<?xml version="1.0" encoding="UTF-8" standalone="no"?>
<svg
   xmlns:dc="http://purl.org/dc/elements/1.1/"
   xmlns:cc="http://creativecommons.org/ns#"
   xmlns:rdf="http://www.w3.org/1999/02/22-rdf-syntax-ns#"
   xmlns:svg="http://www.w3.org/2000/svg"
   xmlns="http://www.w3.org/2000/svg"
   xmlns:xlink="http://www.w3.org/1999/xlink"
   xmlns:sodipodi="http://sodipodi.sourceforge.net/DTD/sodipodi-0.dtd"
   xmlns:inkscape="http://www.inkscape.org/namespaces/inkscape"
   version="1.0"
   width="16"
   height="16"
   id="svg3201"
   sodipodi:docname="rhythmbox-panel.svg"
   inkscape:version="0.92.4 (5da689c313, 2019-01-14)">
  <sodipodi:namedview
     pagecolor="#ffffff"
     bordercolor="#666666"
     borderopacity="1"
     objecttolerance="10"
     gridtolerance="10"
     guidetolerance="10"
     inkscape:pageopacity="0"
     inkscape:pageshadow="2"
     inkscape:window-width="1920"
     inkscape:window-height="1032"
     id="namedview12"
     showgrid="false"
     inkscape:zoom="10.727273"
     inkscape:cx="-7.3644063"
     inkscape:cy="9.5084743"
     inkscape:window-x="0"
     inkscape:window-y="0"
     inkscape:window-maximized="1"
     inkscape:current-layer="svg3201" />
  <metadata
     id="metadata14">
    <rdf:RDF>
      <cc:Work
         rdf:about="">
        <dc:format>image/svg+xml</dc:format>
        <dc:type
           rdf:resource="http://purl.org/dc/dcmitype/StillImage" />
        <dc:title />
      </cc:Work>
    </rdf:RDF>
  </metadata>
  <defs
     id="defs3203">
    <linearGradient
       id="linearGradient3678">
      <stop
         style="stop-color:#ffffff;stop-opacity:1;"
         offset="0"
         id="stop3680" />
      <stop
         style="stop-color:#e6e6e6;stop-opacity:1;"
         offset="1"
         id="stop3682" />
    </linearGradient>
    <linearGradient
       xlink:href="#linearGradient3678"
       id="linearGradient2852"
       gradientUnits="userSpaceOnUse"
       gradientTransform="translate(-1,-1)"
       x1="12.5"
       y1="4"
       x2="12.5"
       y2="20.074728" />
  </defs>
  <path
     style="display:inline;overflow:visible;visibility:visible;opacity:0.3;fill:none;stroke:#ffffff;stroke-width:0.48934197;stroke-linecap:round;stroke-linejoin:miter;stroke-miterlimit:4;stroke-dasharray:none;stroke-dashoffset:0;stroke-opacity:1;marker:none;enable-background:accumulate"
     id="path3201"
     d="M 14.75,2.5000001 C 14.75,4.294926 13.294926,5.75 11.5,5.75 9.705075,5.75 8.2500001,4.294926 8.2500001,2.5000001 c 0,-1.7949255 1.4550749,-3.2500002 3.2499999,-3.2500002 1.794926,0 3.25,1.4550747 3.25,3.2500002 z m -1.5,0 C 13.25,3.466498 12.466499,4.25 11.5,4.25 10.533502,4.25 9.75,3.466498 9.75,2.5000001 9.75,1.5335017 10.533502,0.75 11.5,0.75 c 0.966499,0 1.75,0.7835017 1.75,1.7500001 z"
     inkscape:connector-curvature="0" />
  <path
     style="display:inline;overflow:visible;visibility:visible;opacity:1;fill:#000000;fill-opacity:1;fill-rule:evenodd;stroke:none;stroke-width:0.99999994;marker:none;enable-background:accumulate"
     id="rect2406"
     d="M 4.5,0 C 3.669,0 3,0.669 3,1.5 v 13 C 3,15.331 3.669,16 4.5,16 h 8 C 13.331,16 14,15.331 14,14.5 V 1.5 C 14,0.669 13.331,0 12.5,0 Z m 4,2 C 10.433374,2 12.000462,3.5671386 12,5.5 12.000462,7.432862 10.433374,9 8.5,9 6.566626,9 4.999538,7.432862 5,5.5 4.9995376,3.5671389 6.566626,2 8.5,2 Z M 6,12 c 0.552428,0 1.000202,0.447775 1,1 2.02e-4,0.552225 -0.447572,1 -1,1 -0.5524278,0 -1.000202,-0.447775 -1,-1 -2.019e-4,-0.552225 0.4475726,-1 1,-1 z m 5,0 c 0.552428,0 1.000202,0.447775 1,1 2.02e-4,0.552225 -0.447572,1 -1,1 -0.552428,0 -1.000202,-0.447775 -1,-1 -2.02e-4,-0.552225 0.447572,-1 1,-1 z M 10,5.4999999 C 10,6.328427 9.328427,7 8.5,7 7.671573,7 7,6.328427 7,5.4999999 c 0,-0.8284271 0.671573,-1.5 1.5,-1.5 0.828427,0 1.5,0.6715729 1.5,1.5 z"
     inkscape:connector-curvature="0" />
</svg>
