<?xml version="1.0" encoding="UTF-8" standalone="no"?>
<svg
   xmlns:dc="http://purl.org/dc/elements/1.1/"
   xmlns:cc="http://creativecommons.org/ns#"
   xmlns:rdf="http://www.w3.org/1999/02/22-rdf-syntax-ns#"
   xmlns:svg="http://www.w3.org/2000/svg"
   xmlns="http://www.w3.org/2000/svg"
   xmlns:sodipodi="http://sodipodi.sourceforge.net/DTD/sodipodi-0.dtd"
   xmlns:inkscape="http://www.inkscape.org/namespaces/inkscape"
   version="1.1"
   id="svg2"
   width="16"
   height="16"
   sodipodi:docname="software-update-urgent.svg"
   inkscape:version="0.92.4 (5da689c313, 2019-01-14)">
  <defs
     id="defs7" />
  <sodipodi:namedview
     pagecolor="#ffffff"
     bordercolor="#666666"
     borderopacity="1"
     objecttolerance="10"
     gridtolerance="10"
     guidetolerance="10"
     inkscape:pageopacity="0"
     inkscape:pageshadow="2"
     inkscape:window-width="1920"
     inkscape:window-height="1032"
     id="namedview5"
     showgrid="true"
     inkscape:zoom="15.81"
     inkscape:cx="-31.693865"
     inkscape:cy="5.72296"
     inkscape:window-x="0"
     inkscape:window-y="0"
     inkscape:window-maximized="1"
     inkscape:current-layer="svg2">
    <inkscape:grid
       type="xygrid"
       id="grid814" />
  </sodipodi:namedview>
  <metadata
     id="metadata12">
    <rdf:RDF>
      <cc:Work
         rdf:about="">
        <dc:format>image/svg+xml</dc:format>
        <dc:type
           rdf:resource="http://purl.org/dc/dcmitype/StillImage" />
        <dc:title />
      </cc:Work>
    </rdf:RDF>
  </metadata>
  <path
     style="color:#bebebe;overflow:visible;opacity:0.99999999;fill:#000000;fill-opacity:1;marker:none"
     d="M 7 0 L 7 2 A 6 6 0 0 0 1 8 L 3 8 A 4 4 0 0 1 7 4 L 7 6 L 8.4160156 5.1503906 A 3.5 3.5 0 0 1 8 3.5 A 3.5 3.5 0 0 1 8.9140625 1.1484375 L 7 0 z M 11 8 A 4 4 0 0 1 7 12 L 7 10 L 2 13 L 7 16 L 7 14 A 6 6 0 0 0 13 8 L 11 8 z "
     id="path816" />
  <circle
     class="warning"
     style="opacity:1;fill:#ef2929;fill-opacity:1;stroke:none;stroke-width:9.01824379;stroke-linecap:round;stroke-miterlimit:4;stroke-dasharray:none;stroke-dashoffset:0;stroke-opacity:0"
     id="path879-5"
     cx="12.5"
     cy="3.5"
     r="3.5" />
</svg>
