<?xml version="1.0" encoding="UTF-8" standalone="no"?>
<!-- Created with Inkscape (http://www.inkscape.org/) -->

<svg
   xmlns:dc="http://purl.org/dc/elements/1.1/"
   xmlns:cc="http://creativecommons.org/ns#"
   xmlns:rdf="http://www.w3.org/1999/02/22-rdf-syntax-ns#"
   xmlns:svg="http://www.w3.org/2000/svg"
   xmlns="http://www.w3.org/2000/svg"
   xmlns:xlink="http://www.w3.org/1999/xlink"
   xmlns:sodipodi="http://sodipodi.sourceforge.net/DTD/sodipodi-0.dtd"
   xmlns:inkscape="http://www.inkscape.org/namespaces/inkscape"
   width="128"
   height="128"
   id="svg3172"
   version="1.1"
   inkscape:version="0.48+devel r"
   sodipodi:docname="application-x-java.svg">
  <defs
     id="defs3174">
    <linearGradient
       inkscape:collect="always"
       xlink:href="#linearGradient3977"
       id="linearGradient3093"
       gradientUnits="userSpaceOnUse"
       gradientTransform="matrix(2.4594595,0,0,3.1081081,4.9729852,-78.594559)"
       x1="23.99999"
       y1="5.5641499"
       x2="23.99999"
       y2="43" />
    <linearGradient
       id="linearGradient3977">
      <stop
         id="stop3979"
         style="stop-color:#ffffff;stop-opacity:1;"
         offset="0" />
      <stop
         offset="0.03626217"
         style="stop-color:#ffffff;stop-opacity:0.23529412;"
         id="stop3981" />
      <stop
         id="stop3983"
         style="stop-color:#ffffff;stop-opacity:0.15686275;"
         offset="0.95056331" />
      <stop
         id="stop3985"
         style="stop-color:#ffffff;stop-opacity:0.39215687;"
         offset="1" />
    </linearGradient>
    <linearGradient
       inkscape:collect="always"
       xlink:href="#linearGradient3600"
       id="linearGradient3096"
       gradientUnits="userSpaceOnUse"
       gradientTransform="matrix(2.6571409,0,0,2.5422194,0.228619,-68.91283)"
       x1="25.132275"
       y1="0.98520643"
       x2="25.132275"
       y2="47.013336" />
    <linearGradient
       id="linearGradient3600">
      <stop
         offset="0"
         style="stop-color:#f4f4f4;stop-opacity:1"
         id="stop3602" />
      <stop
         offset="1"
         style="stop-color:#dbdbdb;stop-opacity:1"
         id="stop3604" />
    </linearGradient>
    <linearGradient
       inkscape:collect="always"
       xlink:href="#linearGradient3104"
       id="linearGradient3098"
       gradientUnits="userSpaceOnUse"
       gradientTransform="matrix(2.1456328,0,0,2.3791386,158.08997,-71.746077)"
       x1="-51.786404"
       y1="50.786446"
       x2="-51.786404"
       y2="2.9062471" />
    <linearGradient
       id="linearGradient3104">
      <stop
         offset="0"
         style="stop-color:#a0a0a0;stop-opacity:1;"
         id="stop3106" />
      <stop
         offset="1"
         style="stop-color:#bebebe;stop-opacity:1;"
         id="stop3108-4" />
    </linearGradient>
    <linearGradient
       inkscape:collect="always"
       xlink:href="#linearGradient3702-501-757-486"
       id="linearGradient3120"
       gradientUnits="userSpaceOnUse"
       x1="25.058096"
       y1="47.027729"
       x2="25.058096"
       y2="39.999443"
       gradientTransform="matrix(3.1428572,0,0,1.2857143,-11.428573,-2.428572)" />
    <linearGradient
       id="linearGradient3702-501-757-486">
      <stop
         offset="0"
         style="stop-color:#181818;stop-opacity:0"
         id="stop3100" />
      <stop
         offset="0.5"
         style="stop-color:#181818;stop-opacity:1"
         id="stop3102" />
      <stop
         offset="1"
         style="stop-color:#181818;stop-opacity:0"
         id="stop3104" />
    </linearGradient>
    <radialGradient
       inkscape:collect="always"
       xlink:href="#linearGradient3688-464-309-255"
       id="radialGradient3123"
       gradientUnits="userSpaceOnUse"
       gradientTransform="matrix(2.4045407,0,0,1.7999999,-32.014243,-131.8)"
       cx="4.9929786"
       cy="43.5"
       fx="4.9929786"
       fy="43.5"
       r="2.5" />
    <linearGradient
       id="linearGradient3688-464-309-255">
      <stop
         offset="0"
         style="stop-color:#181818;stop-opacity:1"
         id="stop3094" />
      <stop
         offset="1"
         style="stop-color:#181818;stop-opacity:0"
         id="stop3096" />
    </linearGradient>
    <linearGradient
       id="linearGradient3688-166-749-737">
      <stop
         offset="0"
         style="stop-color:#181818;stop-opacity:1"
         id="stop3088" />
      <stop
         offset="1"
         style="stop-color:#181818;stop-opacity:0"
         id="stop3090" />
    </linearGradient>
    <radialGradient
       r="2.5"
       fy="43.5"
       fx="4.9929786"
       cy="43.5"
       cx="4.9929786"
       gradientTransform="matrix(2.4045407,0,0,1.7999999,95.985757,-24.799999)"
       gradientUnits="userSpaceOnUse"
       id="radialGradient3170"
       xlink:href="#linearGradient3688-166-749-737"
       inkscape:collect="always" />
    <linearGradient
       id="linearGradient3584">
      <stop
         id="stop3586"
         style="stop-color:#5f5f5f;stop-opacity:1"
         offset="0" />
      <stop
         id="stop3588"
         style="stop-color:#c6c6c6;stop-opacity:1"
         offset="1" />
    </linearGradient>
    <linearGradient
       id="linearGradient3526">
      <stop
         id="stop3528"
         style="stop-color:#d1d1d1;stop-opacity:1"
         offset="0" />
      <stop
         id="stop3530"
         style="stop-color:#959594;stop-opacity:1"
         offset="1" />
    </linearGradient>
    <linearGradient
       id="linearGradient3595">
      <stop
         id="stop3597"
         style="stop-color:#ffffff;stop-opacity:1"
         offset="0" />
      <stop
         id="stop3599"
         style="stop-color:#ffffff;stop-opacity:0"
         offset="1" />
    </linearGradient>
    <linearGradient
       id="linearGradient3666">
      <stop
         id="stop3668"
         style="stop-color:#ffffff;stop-opacity:1"
         offset="0" />
      <stop
         id="stop3670"
         style="stop-color:#ffffff;stop-opacity:0"
         offset="1" />
    </linearGradient>
    <radialGradient
       cx="62.625"
       cy="4.625"
       r="10.625"
       fx="62.625"
       fy="4.625"
       id="radialGradient2873-1"
       xlink:href="#linearGradient8838-8"
       gradientUnits="userSpaceOnUse"
       gradientTransform="matrix(3.0117647,0,0,0.9882341,-127.61176,80.929413)" />
    <linearGradient
       id="linearGradient8838-8">
      <stop
         id="stop8840-9"
         style="stop-color:#000000;stop-opacity:1"
         offset="0" />
      <stop
         id="stop8842-4"
         style="stop-color:#000000;stop-opacity:0"
         offset="1" />
    </linearGradient>
    <radialGradient
       cx="118.47996"
       cy="58.118656"
       r="13.983462"
       fx="118.47996"
       fy="58.118656"
       id="radialGradient3664-9"
       xlink:href="#linearGradient3667-4"
       gradientUnits="userSpaceOnUse"
       gradientTransform="matrix(-0.6999332,0.6972126,-0.442379,-0.4441053,200.62199,8.810023)" />
    <linearGradient
       id="linearGradient3667-4">
      <stop
         id="stop3669-4"
         style="stop-color:#fefefe;stop-opacity:1"
         offset="0" />
      <stop
         id="stop3671-3"
         style="stop-color:#b4b4b3;stop-opacity:1"
         offset="1" />
    </linearGradient>
    <radialGradient
       cx="94.238586"
       cy="62.311779"
       r="13.983462"
       fx="94.238586"
       fy="62.311779"
       id="radialGradient3689-7"
       xlink:href="#linearGradient2811-4"
       gradientUnits="userSpaceOnUse"
       gradientTransform="matrix(-0.7793793,0.03963949,-0.03454209,-0.6791559,178.45137,90.422743)" />
    <linearGradient
       id="linearGradient2811-4">
      <stop
         id="stop2813-6"
         style="stop-color:#ffffff;stop-opacity:1"
         offset="0" />
      <stop
         id="stop2815-1"
         style="stop-color:#ffffff;stop-opacity:0"
         offset="1" />
    </linearGradient>
    <radialGradient
       cx="112.17133"
       cy="51.944908"
       r="13.983462"
       fx="112.17133"
       fy="51.944908"
       id="radialGradient3687-9"
       xlink:href="#linearGradient8838-8"
       gradientUnits="userSpaceOnUse"
       gradientTransform="matrix(-0.5706528,0.04728448,-0.02296816,-0.2771912,155.26074,69.386446)" />
    <radialGradient
       cx="-6.453712"
       cy="29.206287"
       r="32.000408"
       fx="-6.453712"
       fy="29.206287"
       id="radialGradient3724-2"
       xlink:href="#linearGradient3489-6"
       gradientUnits="userSpaceOnUse"
       gradientTransform="matrix(-2.2039718e-8,1.4094274,-1.4820235,0,88.859863,71.156584)" />
    <linearGradient
       id="linearGradient3489-6">
      <stop
         id="stop3491-4"
         style="stop-color:#eeeeec;stop-opacity:1"
         offset="0" />
      <stop
         id="stop3497-7"
         style="stop-color:#cacac9;stop-opacity:1"
         offset="0.5" />
      <stop
         id="stop3493-8"
         style="stop-color:#6b6b6b;stop-opacity:1"
         offset="1" />
    </linearGradient>
    <filter
       style="color-interpolation-filters:sRGB"
       x="-0.056300852"
       y="-0.11260171"
       width="1.1126018"
       height="1.2252034"
       id="filter3550-4">
      <feGaussianBlur
         stdDeviation="1.3737999"
         id="feGaussianBlur3552-2" />
    </filter>
    <radialGradient
       cx="8.4375"
       cy="32.535023"
       r="26.40625"
       fx="8.4375"
       fy="32.535023"
       id="radialGradient3717-7"
       xlink:href="#linearGradient3740-8"
       gradientUnits="userSpaceOnUse"
       gradientTransform="matrix(1.184969,-3.1360862e-8,1.41488e-8,0.4800471,51.000013,41.81816)" />
    <linearGradient
       id="linearGradient3740-8">
      <stop
         id="stop3743-6"
         style="stop-color:#8b6a35;stop-opacity:1"
         offset="0" />
      <stop
         id="stop3771-5"
         style="stop-color:#885f22;stop-opacity:1"
         offset="0.37135857" />
      <stop
         id="stop3745-1"
         style="stop-color:#754d0d;stop-opacity:1"
         offset="0.68556082" />
      <stop
         id="stop3747-5"
         style="stop-color:#483816;stop-opacity:1"
         offset="1" />
    </linearGradient>
    <filter
       style="color-interpolation-filters:sRGB"
       id="filter3615-1">
      <feGaussianBlur
         stdDeviation="0.655"
         id="feGaussianBlur3617-0" />
    </filter>
    <linearGradient
       inkscape:collect="always"
       xlink:href="#linearGradient3584"
       id="linearGradient4335"
       gradientUnits="userSpaceOnUse"
       gradientTransform="matrix(2.9977348,0,0,2.9996949,-12.296315,-14.010178)"
       x1="34.462547"
       y1="24.867638"
       x2="39.781116"
       y2="27.548901" />
    <linearGradient
       inkscape:collect="always"
       xlink:href="#linearGradient3584"
       id="linearGradient4337"
       gradientUnits="userSpaceOnUse"
       gradientTransform="translate(-24.302516,35.96875)"
       x1="117.30334"
       y1="55.03125"
       x2="53.302517"
       y2="2.3599293" />
    <linearGradient
       inkscape:collect="always"
       xlink:href="#linearGradient3526"
       id="linearGradient4339"
       gradientUnits="userSpaceOnUse"
       gradientTransform="matrix(0.98119095,0,0,0.68330766,55.335246,38.799945)"
       spreadMethod="reflect"
       x1="5.6835618"
       y1="16.365782"
       x2="35.032936"
       y2="16.365782" />
    <linearGradient
       inkscape:collect="always"
       xlink:href="#linearGradient3595"
       id="linearGradient4341"
       gradientUnits="userSpaceOnUse"
       gradientTransform="translate(-24.302516,35.96875)"
       x1="87.050232"
       y1="53.75"
       x2="87.050232"
       y2="41.729839" />
    <linearGradient
       inkscape:collect="always"
       xlink:href="#linearGradient3666"
       id="linearGradient4343"
       gradientUnits="userSpaceOnUse"
       gradientTransform="matrix(1.0001086,0,0,0.7166998,55.241364,38.197932)"
       x1="-1.937054"
       y1="0.98801559"
       x2="-1.937054"
       y2="31.826666" />
  </defs>
  <sodipodi:namedview
     id="base"
     pagecolor="#ffffff"
     bordercolor="#666666"
     borderopacity="1.0"
     inkscape:pageopacity="0.0"
     inkscape:pageshadow="2"
     inkscape:zoom="4"
     inkscape:cx="63.125"
     inkscape:cy="76.296832"
     inkscape:current-layer="layer1"
     showgrid="false"
     inkscape:document-units="px"
     inkscape:grid-bbox="true"
     inkscape:window-width="1535"
     inkscape:window-height="876"
     inkscape:window-x="65"
     inkscape:window-y="24"
     inkscape:window-maximized="1"
     inkscape:snap-global="true"
     showguides="true">
    <inkscape:grid
       type="xygrid"
       id="grid4117" />
  </sodipodi:namedview>
  <metadata
     id="metadata3177">
    <rdf:RDF>
      <cc:Work
         rdf:about="">
        <dc:format>image/svg+xml</dc:format>
        <dc:type
           rdf:resource="http://purl.org/dc/dcmitype/StillImage" />
        <dc:title></dc:title>
      </cc:Work>
    </rdf:RDF>
  </metadata>
  <g
     id="layer1"
     inkscape:label="Layer 1"
     inkscape:groupmode="layer"
     transform="translate(0,64)">
    <rect
       style="opacity:0.4;fill:url(#radialGradient3170);fill-opacity:1;stroke:none"
       id="rect2801"
       y="49"
       x="108"
       height="8.999999"
       width="6" />
    <rect
       style="opacity:0.4;fill:url(#radialGradient3123);fill-opacity:1;stroke:none"
       id="rect3696"
       transform="scale(-1,-1)"
       y="-58"
       x="-20"
       height="8.999999"
       width="6" />
    <rect
       style="opacity:0.4;fill:url(#linearGradient3120);fill-opacity:1;stroke:none"
       id="rect3700"
       y="49"
       x="20"
       height="9"
       width="88" />
    <path
       inkscape:connector-curvature="0"
       style="fill:url(#linearGradient3096);fill-opacity:1;stroke:url(#linearGradient3098);stroke-width:0.99992186;stroke-linecap:butt;stroke-linejoin:round;stroke-miterlimit:4;stroke-opacity:1;stroke-dasharray:none;stroke-dashoffset:0;display:inline"
       id="path4160"
       d="m 17.499929,-62.499588 c 21.311061,0 93.000031,0.007 93.000031,0.007 l 1.1e-4,116.992628 c 0,0 -62.0001,0 -93.00014,0 0,-39.000029 0,-78.000054 0,-117.000079 z"
       sodipodi:nodetypes="ccccc" />
    <path
       style="fill:none;stroke:url(#linearGradient3093);stroke-width:1;stroke-linecap:round;stroke-linejoin:round;stroke-miterlimit:4;stroke-opacity:1;stroke-dasharray:none;stroke-dashoffset:0"
       d="m 109.5,53.5 -91,0 0,-115.000003 91,0 z"
       id="rect6741-1"
       inkscape:connector-curvature="0"
       sodipodi:nodetypes="ccccc" />
    <g
       transform="matrix(0.90449151,0,0,0.9029669,3.831747,-61.159822)"
       id="g4360">
      <path
         d="M 93,85.500002 C 93,91.29899 78.673111,96 61,96 43.32689,96 29,91.29899 29,85.500002 29,79.701011 43.32689,75 61,75 c 17.673111,0 32,4.701011 32,10.500002 l 0,0 z"
         id="path2845-5"
         style="opacity:0.3;fill:url(#radialGradient2873-1);fill-opacity:1;fill-rule:evenodd;stroke:none;stroke-width:0.99999988;marker:none;visibility:visible;display:inline;overflow:visible"
         inkscape:connector-curvature="0" />
      <path
         d="m 86.776932,77.407742 c 6.138881,-0.544201 18.694428,-12.178071 18.694428,-17.625714 0,-0.828049 -0.26643,-1.67533 -0.63587,-2.332821 -0.46339,-0.782903 -0.9641,-1.301967 -1.65326,-1.814409 C 100.02714,53.373148 94.3099,53.72529 90.2106,53.72529 76.770836,56.529817 73.926737,79.160905 86.776932,77.407742 Z m 2.154733,-17.545176 c 0,0 5.355756,0.01764 7.734486,0.01764 0,5.074692 -7.701936,7.487758 -7.701936,7.487758 l -0.03255,-7.505402 z"
         id="path4023-6"
         style="fill:url(#radialGradient3664-9);fill-opacity:1;stroke:url(#linearGradient4335);stroke-width:1.09670246;stroke-miterlimit:4;stroke-opacity:1;stroke-dasharray:none"
         inkscape:connector-curvature="0" />
      <path
         d="m 90.289684,54.227264 c -6.463791,1.348823 -10.40251,7.514145 -11.15625,13.125 -0.37687,2.805428 0.04695,5.441444 1.28125,7.21875 1.234303,1.777306 3.240099,2.76292 6.3125,2.34375 0.01041,-3.26e-4 0.02084,-3.26e-4 0.03125,0 2.787581,-0.247116 7.483363,-3.227815 11.34375,-6.84375 1.930186,-1.807967 3.661926,-3.769654 4.906246,-5.59375 1.24432,-1.824096 1.96875,-3.517249 1.96875,-4.6875 0,-0.712772 -0.26114,-1.501801 -0.59375,-2.09375 -0.43672,-0.737835 -0.85223,-1.174584 -1.5,-1.65625 -2.88175,-2.065717 -8.473094,-1.816098 -12.593746,-1.8125 z m -1.4375,5.125 c 0.03118,-0.0029 0.06257,-0.0029 0.09375,0 0,0 5.344392,0.03125 7.71875,0.03125 0.132667,-1.93e-4 0.259957,0.05242 0.353767,0.146233 0.09381,0.09381 0.146426,0.2211 0.146233,0.353767 2e-6,2.789432 -2.075482,4.779784 -4.0625,6.0625 -1.987018,1.282716 -3.96875,1.90625 -3.96875,1.90625 -0.151322,0.05013 -0.317484,0.02499 -0.447201,-0.06767 -0.129716,-0.09265 -0.207391,-0.24168 -0.209049,-0.40108 l -0.03125,-7.53125 c -0.0046,-0.243427 0.167035,-0.454681 0.40625,-0.5 z"
         id="path3677-9"
         style="fill:url(#radialGradient3689-7);fill-opacity:1;stroke:none"
         inkscape:connector-curvature="0" />
      <path
         d="m 90.289684,54.227264 c -6.463791,1.348823 -10.40251,7.514145 -11.15625,13.125 -0.37687,2.805428 0.04695,5.441444 1.28125,7.21875 1.234303,1.777306 3.240099,2.76292 6.3125,2.34375 0.01041,-3.26e-4 0.02084,-3.26e-4 0.03125,0 2.787581,-0.247116 7.483363,-3.227815 11.34375,-6.84375 1.930186,-1.807967 3.661926,-3.769654 4.906246,-5.59375 1.24432,-1.824096 1.96875,-3.517249 1.96875,-4.6875 0,-0.712772 -0.26114,-1.501801 -0.59375,-2.09375 -0.43672,-0.737835 -0.85223,-1.174584 -1.5,-1.65625 -2.88175,-2.065717 -8.473094,-1.816098 -12.593746,-1.8125 z m -1.4375,5.125 c 0.03118,-0.0029 0.06257,-0.0029 0.09375,0 0,0 5.344392,0.03125 7.71875,0.03125 0.132667,-1.93e-4 0.259957,0.05242 0.353767,0.146233 0.09381,0.09381 0.146426,0.2211 0.146233,0.353767 2e-6,2.789432 -2.075482,4.779784 -4.0625,6.0625 -1.987018,1.282716 -3.96875,1.90625 -3.96875,1.90625 -0.151322,0.05013 -0.317484,0.02499 -0.447201,-0.06767 -0.129716,-0.09265 -0.207391,-0.24168 -0.209049,-0.40108 l -0.03125,-7.53125 c -0.0046,-0.243427 0.167035,-0.454681 0.40625,-0.5 z"
         id="path3685-2"
         style="opacity:0.3;fill:url(#radialGradient3687-9);fill-opacity:1;stroke:none"
         inkscape:connector-curvature="0" />
      <path
         d="m 61.000003,37.281249 c -16.72932,0 -30.423803,4.811666 -31.437503,10.875001 l -0.0625,0 0,0.71875 0,6.125 0,0.46875 C 29.72548,74.847457 43.751733,90.5 61.000003,90.5 c 17.24825,0 31.27451,-15.652543 31.5,-35.03125 0.0018,-0.157845 0,-0.310416 0,-0.46875 l 0,-6.125 0,-0.71875 -0.0625,0 c -1.0137,-6.063335 -14.70818,-10.875001 -31.4375,-10.875001 z"
         id="path2706-7"
         style="fill:url(#radialGradient3724-2);fill-opacity:1;fill-rule:nonzero;stroke:url(#linearGradient4337);stroke-width:1.10652637;stroke-linecap:square;stroke-linejoin:round;stroke-miterlimit:4;stroke-opacity:1;stroke-dasharray:none;stroke-dashoffset:0;marker:none;visibility:visible;display:inline;overflow:visible;enable-background:accumulate"
         inkscape:connector-curvature="0" />
      <path
         d="m 35.032936,16.365782 c 0.003,8.086853 -13.107553,14.643336 -29.2812595,14.643336 -16.1737065,0 -29.2842485,-6.556483 -29.2812595,-14.643336 -0.003,-8.0868532 13.107553,-14.6433356 29.2812595,-14.6433356 16.1737065,0 29.2842485,6.5564824 29.2812595,14.6433356 l 0,0 z"
         transform="matrix(1.036309,0,0,0.8359469,55.170613,36.044946)"
         id="path3534-0"
         style="opacity:0.6;fill:#ffffff;fill-opacity:1;fill-rule:nonzero;stroke:none;stroke-width:1.25379646;marker:none;visibility:visible;display:inline;overflow:visible;filter:url(#filter3550-4);enable-background:accumulate"
         inkscape:connector-curvature="0" />
      <path
         d="m 89.709248,49.982809 c 0.0029,5.525809 -12.861013,10.005904 -28.730506,10.005904 -15.869494,0 -28.733445,-4.480095 -28.730508,-10.005904 -0.0029,-5.52581 12.861014,-10.005904 28.730508,-10.005904 15.869493,0 28.733438,4.480094 28.730506,10.005904 l 0,0 z"
         id="path3499-4"
         style="fill:url(#linearGradient4339);fill-opacity:1;fill-rule:nonzero;stroke:none;stroke-width:1.25379646;marker:none;visibility:visible;display:inline;overflow:visible;enable-background:accumulate"
         inkscape:connector-curvature="0" />
      <path
         d="m 60.998193,44.442698 c -13.02693,0 -23.356594,3.326208 -27.58375,8.260386 3.206122,4.026656 14.57315,5.739614 27.58375,5.739614 13.00784,0 24.236818,-1.645041 27.445538,-5.670398 -3.161556,-4.489996 -14.420538,-8.329602 -27.445538,-8.329602 z"
         id="path3736-3"
         style="fill:#36290f;fill-opacity:1;fill-rule:nonzero;stroke:none;stroke-width:0.99999994;marker:none;visibility:visible;display:inline;overflow:visible;enable-background:accumulate"
         inkscape:connector-curvature="0"
         sodipodi:nodetypes="scscs" />
      <path
         d="M 60.998193,45 C 47.971263,45 37.157902,48.885157 33.96724,53.207691 37.242462,56.89902 47.987593,60 60.998193,60 74.006033,60 84.613115,56.828411 87.890935,53.207691 84.698465,48.886126 74.023193,45 60.998193,45 Z"
         id="path3501-5"
         style="fill:url(#radialGradient3717-7);fill-opacity:1;fill-rule:nonzero;stroke:none;stroke-width:0.99999994;marker:none;visibility:visible;display:inline;overflow:visible;enable-background:accumulate"
         inkscape:connector-curvature="0"
         sodipodi:nodetypes="scscs" />
      <path
         d="m 86.072483,73.6875 c -5.21761,7.123568 -14.34843,11.84375 -24.75,11.84375 -10.38105,10e-7 -19.49598,-4.712434 -24.71875,-11.8125 4.01831,9.384132 13.57219,16 24.71875,16 11.16122,0 20.74101,-6.627475 24.75,-16.03125 z"
         id="path3590-1"
         style="opacity:0.3;fill:url(#linearGradient4341);fill-opacity:1;fill-rule:nonzero;stroke:none;stroke-width:1;marker:none;visibility:visible;display:inline;overflow:visible;filter:url(#filter3615-1);enable-background:accumulate"
         inkscape:connector-curvature="0"
         transform="matrix(1.0067071,0,0,1.0067071,-0.68784837,-0.60175117)" />
      <path
         d="m 90.278103,49.927285 c 0.003,5.795846 -13.108975,10.494876 -29.284439,10.494876 -16.175461,0 -29.287427,-4.69903 -29.284437,-10.494876 -0.003,-5.795846 13.108976,-10.494876 29.284437,-10.494876 16.175464,0 29.28743,4.69903 29.284439,10.494876 l 0,0 z"
         id="path3664-4"
         style="opacity:0.4;fill:none;stroke:url(#linearGradient4343);stroke-width:1.13317668;stroke-linecap:square;stroke-linejoin:round;stroke-miterlimit:4;stroke-opacity:1;stroke-dasharray:none;stroke-dashoffset:0;marker:none;visibility:visible;display:inline;overflow:visible;enable-background:accumulate"
         inkscape:connector-curvature="0" />
    </g>
  </g>
</svg>
