<?xml version="1.0" encoding="UTF-8" standalone="no"?>
<svg
   xmlns:dc="http://purl.org/dc/elements/1.1/"
   xmlns:cc="http://creativecommons.org/ns#"
   xmlns:rdf="http://www.w3.org/1999/02/22-rdf-syntax-ns#"
   xmlns:svg="http://www.w3.org/2000/svg"
   xmlns="http://www.w3.org/2000/svg"
   xmlns:xlink="http://www.w3.org/1999/xlink"
   xmlns:sodipodi="http://sodipodi.sourceforge.net/DTD/sodipodi-0.dtd"
   xmlns:inkscape="http://www.inkscape.org/namespaces/inkscape"
   version="1.1"
   width="128"
   height="128"
   id="svg4164"
   sodipodi:docname="application-x-bzip-compressed-tar.svg"
   inkscape:version="1.0.2 (e86c870879, 2021-01-15)">
  <sodipodi:namedview
     pagecolor="#ffffff"
     bordercolor="#666666"
     borderopacity="1"
     objecttolerance="10"
     gridtolerance="10"
     guidetolerance="10"
     inkscape:pageopacity="0"
     inkscape:pageshadow="2"
     inkscape:window-width="1920"
     inkscape:window-height="1030"
     id="namedview58"
     showgrid="false"
     inkscape:zoom="6.1953125"
     inkscape:cx="64.322825"
     inkscape:cy="64"
     inkscape:window-x="0"
     inkscape:window-y="0"
     inkscape:window-maximized="1"
     inkscape:current-layer="svg4164"
     inkscape:document-rotation="0" />
  <defs
     id="defs4166">
    <linearGradient
       x1="23.99999"
       y1="4.3177118"
       x2="23.99999"
       y2="43"
       id="linearGradient4092"
       xlink:href="#linearGradient3878"
       gradientUnits="userSpaceOnUse"
       gradientTransform="matrix(2.9459456,0,0,0.59459456,-6.702671,-42.770263)" />
    <linearGradient
       id="linearGradient3878">
      <stop
         id="stop3880"
         style="stop-color:#ffffff;stop-opacity:1"
         offset="0" />
      <stop
         id="stop3882"
         style="stop-color:#ffffff;stop-opacity:0.23529412"
         offset="0.08389385" />
      <stop
         id="stop3884"
         style="stop-color:#ffffff;stop-opacity:0.15686275"
         offset="0.95056331" />
      <stop
         id="stop3886"
         style="stop-color:#ffffff;stop-opacity:0.39215687"
         offset="1" />
    </linearGradient>
    <linearGradient
       x1="23.99999"
       y1="5.5641499"
       x2="23.99999"
       y2="43"
       id="linearGradient3033"
       xlink:href="#linearGradient3977"
       gradientUnits="userSpaceOnUse"
       gradientTransform="matrix(2.9459459,0,0,1.9189191,-6.702674,-27.054045)" />
    <linearGradient
       id="linearGradient3977">
      <stop
         id="stop3979"
         style="stop-color:#ffffff;stop-opacity:1"
         offset="0" />
      <stop
         id="stop3981"
         style="stop-color:#ffffff;stop-opacity:0.23529412"
         offset="0.03626217" />
      <stop
         id="stop3983"
         style="stop-color:#ffffff;stop-opacity:0.15686275"
         offset="0.95056331" />
      <stop
         id="stop3985"
         style="stop-color:#ffffff;stop-opacity:0.39215687"
         offset="1" />
    </linearGradient>
    <linearGradient
       x1="26"
       y1="22"
       x2="26"
       y2="8"
       id="linearGradient3397"
       xlink:href="#linearGradient3827"
       gradientUnits="userSpaceOnUse"
       gradientTransform="matrix(2.9999998,0,0,2.7142858,-8.000012,-63.714286)" />
    <linearGradient
       id="linearGradient3827">
      <stop
         id="stop3829"
         style="stop-color:#ffffff;stop-opacity:1"
         offset="0" />
      <stop
         id="stop4295"
         style="stop-color:#ffffff;stop-opacity:1"
         offset="0.3021296" />
      <stop
         id="stop4293"
         style="stop-color:#ffffff;stop-opacity:0.64347827"
         offset="0.34361121" />
      <stop
         id="stop3832"
         style="stop-color:#ffffff;stop-opacity:0.39130434"
         offset="1" />
    </linearGradient>
    <linearGradient
       x1="63.5"
       y1="47.5"
       x2="63.5"
       y2="23.5"
       id="linearGradient3164"
       xlink:href="#linearGradient4793"
       gradientUnits="userSpaceOnUse"
       gradientTransform="translate(0,-64)" />
    <linearGradient
       id="linearGradient4793">
      <stop
         id="stop4795"
         style="stop-color:#ad8757;stop-opacity:1"
         offset="0" />
      <stop
         id="stop4797"
         style="stop-color:#c7ad88;stop-opacity:0.39215687"
         offset="1" />
    </linearGradient>
    <linearGradient
       x1="24.822832"
       y1="15.377745"
       x2="24.996943"
       y2="37.27668"
       id="linearGradient3219-8-6"
       xlink:href="#linearGradient3199-7-8"
       gradientUnits="userSpaceOnUse"
       gradientTransform="matrix(3.4710784,0,0,4.1494795,-17.402231,-103.82322)" />
    <linearGradient
       id="linearGradient3199-7-8">
      <stop
         id="stop3201-7-0"
         style="stop-color:#dac196;stop-opacity:1"
         offset="0" />
      <stop
         id="stop3203-6-2"
         style="stop-color:#c7ae8e;stop-opacity:1"
         offset="0.23942046" />
      <stop
         id="stop3205-7-1"
         style="stop-color:#dac197;stop-opacity:1"
         offset="0.27582464" />
      <stop
         id="stop3207-3-0"
         style="stop-color:#b19974;stop-opacity:1"
         offset="1" />
    </linearGradient>
    <linearGradient
       x1="15.464298"
       y1="7.9756851"
       x2="15.464298"
       y2="45.04248"
       id="linearGradient3221-5"
       xlink:href="#linearGradient3295-5-1"
       gradientUnits="userSpaceOnUse"
       gradientTransform="matrix(2.7070742,0,0,2.6645997,-0.9697811,-63.079475)" />
    <linearGradient
       id="linearGradient3295-5-1">
      <stop
         id="stop3297-6-1"
         style="stop-color:#c9af8b;stop-opacity:1"
         offset="0" />
      <stop
         id="stop3299-3-0"
         style="stop-color:#ad8757;stop-opacity:1"
         offset="0.23942046" />
      <stop
         id="stop3301-9-8"
         style="stop-color:#c2a57f;stop-opacity:1"
         offset="0.27582464" />
      <stop
         id="stop3303-4-5"
         style="stop-color:#9d7d53;stop-opacity:1"
         offset="1" />
    </linearGradient>
    <radialGradient
       cx="5"
       cy="41.5"
       r="5"
       fx="5"
       fy="41.5"
       id="radialGradient3188"
       xlink:href="#linearGradient3681"
       gradientUnits="userSpaceOnUse"
       gradientTransform="matrix(1.2036149,0,0,3.8,112.06083,-202.69998)" />
    <linearGradient
       id="linearGradient3681">
      <stop
         id="stop3683"
         style="stop-color:#000000;stop-opacity:1"
         offset="0" />
      <stop
         id="stop3685"
         style="stop-color:#000000;stop-opacity:0"
         offset="1" />
    </linearGradient>
    <linearGradient
       x1="17.554192"
       y1="46.000275"
       x2="17.554192"
       y2="34.999718"
       id="linearGradient3191"
       xlink:href="#linearGradient3703"
       gradientUnits="userSpaceOnUse"
       gradientTransform="matrix(4.7015924,0,0,3.4545456,-46.497997,-94.909105)" />
    <linearGradient
       id="linearGradient3703">
      <stop
         id="stop3705"
         style="stop-color:#000000;stop-opacity:0"
         offset="0" />
      <stop
         id="stop3711"
         style="stop-color:#000000;stop-opacity:1"
         offset="0.5" />
      <stop
         id="stop3707"
         style="stop-color:#000000;stop-opacity:0"
         offset="1" />
    </linearGradient>
    <radialGradient
       cx="5"
       cy="41.5"
       r="5"
       fx="5"
       fy="41.5"
       id="radialGradient4162"
       xlink:href="#linearGradient3681"
       gradientUnits="userSpaceOnUse"
       gradientTransform="matrix(1.2036149,0,0,3.8,-16.018071,-202.69998)" />
  </defs>
  <metadata
     id="metadata4169">
    <rdf:RDF>
      <cc:Work
         rdf:about="">
        <dc:format>image/svg+xml</dc:format>
        <dc:type
           rdf:resource="http://purl.org/dc/dcmitype/StillImage" />
        <dc:title></dc:title>
      </cc:Work>
    </rdf:RDF>
  </metadata>
  <g
     transform="translate(0,64)"
     id="layer1">
    <rect
       width="6"
       height="38"
       x="-10"
       y="-63.999992"
       transform="scale(-1,-1)"
       id="rect2484"
       style="opacity:0.3;fill:url(#radialGradient4162);fill-opacity:1;stroke:none" />
    <rect
       width="108.1366"
       height="38"
       x="9.9211044"
       y="25.999992"
       id="rect2486"
       style="opacity:0.3;fill:url(#linearGradient3191);fill-opacity:1;stroke:none" />
    <rect
       width="6"
       height="38"
       x="118.0789"
       y="-63.999992"
       transform="scale(1,-1)"
       id="rect3444"
       style="opacity:0.3;fill:url(#radialGradient3188);fill-opacity:1;stroke:none;display:inline" />
    <path
       d="m 23.422918,-40.430382 79.852532,0 c 4.66154,0 6.75935,-0.763541 8.09835,2.664598 l 8.12592,21.316798 0,68.410696 c 0,4.13894 0.27864,3.50655 -4.38292,3.50655 l -102.233597,0 c -4.6615606,0 -4.3829244,0.63239 -4.3829244,-3.50655 l 0,-68.410696 8.1259194,-21.316798 c 1.301646,-3.358892 2.135157,-2.664598 6.79672,-2.664598 z"
       id="path2488"
       style="color:#000000;fill:url(#linearGradient3219-8-6);fill-opacity:1;fill-rule:nonzero;stroke:url(#linearGradient3221-5);stroke-width:0.99420083;stroke-linecap:round;stroke-linejoin:miter;stroke-miterlimit:4;stroke-opacity:1;stroke-dasharray:none;stroke-dashoffset:0;marker:none;visibility:visible;display:block;overflow:visible;enable-background:accumulate" />
    <path
       d="m 63.5,-40 0,23"
       id="path4763"
       style="opacity:0.4;fill:none;stroke:url(#linearGradient3164);stroke-width:1px;stroke-linecap:butt;stroke-linejoin:miter;stroke-opacity:1" />
    <path
       d="m 58,-42 c 3.99999,0 8.000009,0 12,0 0,12.666668 0,25.333333 0,38 -1.181191,0 -2.36238,-2.092942 -3.54357,-2.092942 C 65.24707,-6.092942 64.037679,-4 62.82832,-4 61.85473,-4 60.88114,-5.831326 59.90755,-5.831326 59.2717,-5.831326 58.635849,-4 58,-4 c 0,-12.666667 0,-25.333332 0,-38 z"
       id="rect3326-4"
       style="opacity:0.3;fill:url(#linearGradient3397);fill-opacity:1;fill-rule:nonzero;stroke:none;stroke-width:1;marker:none;visibility:visible;display:inline;overflow:visible;enable-background:accumulate" />
    <path
       d="m 118.5,54.49999 -109.0000001,0 0,-71.000001 109.0000001,0 z"
       id="rect6741-1"
       style="opacity:0.3;fill:none;stroke:url(#linearGradient3033);stroke-width:1;stroke-linecap:round;stroke-linejoin:round;stroke-miterlimit:4;stroke-opacity:1;stroke-dasharray:none;stroke-dashoffset:0" />
    <path
       d="m 9.4999999,-17.5 9.1591071,-22 90.681793,0 9.1591,22 m -54,-22.5 0,23"
       id="rect6741-1-1"
       style="opacity:0.2;fill:none;stroke:url(#linearGradient4092);stroke-width:1;stroke-linecap:round;stroke-linejoin:round;stroke-miterlimit:4;stroke-opacity:1;stroke-dasharray:none;stroke-dashoffset:0" />
  </g>
  <g
     id="g3313"
     transform="matrix(2.7063788,0,0,2.7063788,3.7496072,86.087588)"
     style="stroke-width:0.5">
    <path
       id="text3329"
       d="m 19.178603,9.004211 h 1.595998 v -1.536 H 19.178603 Z M 22.314,9.004 h 1.464 V 8.4371153 c 0.485249,0.3237098 1.544839,0.7691965 2.304164,0.7230977 2.244661,0.121855 3.700458,-2.414022 3.138239,-4.427448 C 28.848192,2.4033005 25.565953,1.1737086 23.910164,2.9682135 V 0.13621359 H 22.314 Z m 3.432165,-5.423789 c 1.860429,-0.100484 2.640646,2.55306 1.29524,3.672846 -1.14374,1.029834 -3.218896,0.173501 -3.217795,-1.397935 -0.159323,-1.140098 0.720204,-2.329064 1.922555,-2.274911 z m 4.081875,5.424 H 34.892 V 7.576209 H 31.736039 L 34.664,3.784209 V 2.3562125 h -4.5 V 3.784209 h 2.592039 l -2.927999,3.792 z m 5.759248,0 h 5.736 c -0.05916,-0.46926 0.116997,-1.173837 -0.08526,-1.5 h -3.406739 c 1.179367,-1.199822 2.784639,-2.117315 3.394502,-3.756001 0.671724,-1.8541255 -0.97117,-4.00122844 -2.950793,-3.76227441 -1.639435,0.02439 -2.918902,1.60476691 -2.747708,3.21027591 l 1.572,1e-6 C 36.710369,1.1353216 40.107426,0.86551259 39.748993,3.0498435 39.389141,4.38054 38.085102,5.109708 37.195433,6.077672 36.679711,6.622352 35.999921,7.096431 35.587289,7.685473 Z"
       style="font-style:normal;font-variant:normal;font-weight:bold;font-stretch:normal;font-size:12px;line-height:100%;font-family:'URW Gothic L';-inkscape-font-specification:'URW Gothic L Semi-Bold';text-align:start;writing-mode:lr-tb;text-anchor:start;display:inline;opacity:0.4;fill:#000000;fill-opacity:1;stroke:none;stroke-width:0.25" />
    <path
       id="text3329-9-3"
       d="m 3.8284989,9.0004188 h 1.596 v -5.196 H 6.3844981 V 2.3524203 H 5.4244989 V 0.13241942 h -1.596 V 2.3524203 h -0.78 v 1.4519985 h 0.78 z M 13.929873,2.3524203 h -1.464 v 0.888 c -0.62133,-0.930603 -1.839697,-1.199196 -2.8824369,-0.976618 -1.432383,0.239285 -2.532947,1.5431005 -2.648047,2.9718525 -0.198489,1.445692 0.517142,3.047722 1.903854,3.630286 1.145487,0.503569 2.6526769,0.395695 3.5073069,-0.599415 L 12.466,8.058 c -0.0033,0.1989468 -0.02083,0.85624 0,0.942 l 0.50281,4.188e-4 h 0.961063 z m -3.468,1.3079975 c 1.020032,-0.04883 1.911869,0.83476 1.946558,1.84109 0.104805,0.944516 -0.477117,2.01841 -1.483058,2.151161 -0.9557619,0.215892 -2.0844309,-0.305937 -2.3256299,-1.303504 -0.314659,-1.044195 0.225574,-2.375825 1.35415,-2.627433 0.1658619,-0.04175 0.3370309,-0.06135 0.5079799,-0.061314 z m 4.657874,5.340001 h 1.596245 c 0.01288,-1.35272 -0.02712,-2.707617 0.02174,-4.058859 0.0257,-0.727717 0.701391,-1.253367 1.406016,-1.209141 l -10e-7,-1.5360005 c -0.632935,-0.07298 -1.252694,0.243793 -1.560128,0.804001 v -0.647999 h -1.463867 z"
       style="font-style:normal;font-variant:normal;font-weight:bold;font-stretch:normal;font-size:12px;line-height:100%;font-family:'URW Gothic L';-inkscape-font-specification:'URW Gothic L Semi-Bold';text-align:start;writing-mode:lr-tb;text-anchor:start;display:inline;opacity:0.4;fill:#000000;fill-opacity:1;stroke:none;stroke-width:0.25" />
  </g>
</svg>
