<?xml version="1.0" encoding="UTF-8" standalone="no"?>
<svg
   xmlns:dc="http://purl.org/dc/elements/1.1/"
   xmlns:cc="http://creativecommons.org/ns#"
   xmlns:rdf="http://www.w3.org/1999/02/22-rdf-syntax-ns#"
   xmlns:svg="http://www.w3.org/2000/svg"
   xmlns="http://www.w3.org/2000/svg"
   xmlns:xlink="http://www.w3.org/1999/xlink"
   xmlns:sodipodi="http://sodipodi.sourceforge.net/DTD/sodipodi-0.dtd"
   xmlns:inkscape="http://www.inkscape.org/namespaces/inkscape"
   version="1.0"
   width="128"
   height="128"
   id="svg2453"
   sodipodi:docname="image-x-generic.svg"
   inkscape:version="1.0.2 (e86c870879, 2021-01-15)">
  <sodipodi:namedview
     pagecolor="#ffffff"
     bordercolor="#666666"
     borderopacity="1"
     objecttolerance="10"
     gridtolerance="10"
     guidetolerance="10"
     inkscape:pageopacity="0"
     inkscape:pageshadow="2"
     inkscape:window-width="1920"
     inkscape:window-height="1030"
     id="namedview47"
     showgrid="false"
     inkscape:zoom="4.3807475"
     inkscape:cx="105.61648"
     inkscape:cy="77.872354"
     inkscape:window-x="0"
     inkscape:window-y="0"
     inkscape:window-maximized="1"
     inkscape:current-layer="svg2453" />
  <metadata
     id="metadata35">
    <rdf:RDF>
      <cc:Work
         rdf:about="">
        <dc:format>image/svg+xml</dc:format>
        <dc:type
           rdf:resource="http://purl.org/dc/dcmitype/StillImage" />
        <dc:title></dc:title>
      </cc:Work>
    </rdf:RDF>
  </metadata>
  <defs
     id="defs2455">
    <linearGradient
       id="linearGradient3104-6">
      <stop
         id="stop3106-3"
         style="stop-color:#000000;stop-opacity:0.31782946"
         offset="0" />
      <stop
         id="stop3108-9"
         style="stop-color:#000000;stop-opacity:0.24031007"
         offset="1" />
    </linearGradient>
    <linearGradient
       id="linearGradient3977-4">
      <stop
         id="stop3979-7"
         style="stop-color:#ffffff;stop-opacity:1"
         offset="0" />
      <stop
         id="stop3981-6"
         style="stop-color:#ffffff;stop-opacity:0.23529412"
         offset="0.01214366" />
      <stop
         id="stop3983-5"
         style="stop-color:#ffffff;stop-opacity:0.15686275"
         offset="0.98781353" />
      <stop
         id="stop3985-6"
         style="stop-color:#ffffff;stop-opacity:0.39215687"
         offset="1" />
    </linearGradient>
    <linearGradient
       id="linearGradient3600-9">
      <stop
         id="stop3602-3"
         style="stop-color:#f4f4f4;stop-opacity:1"
         offset="0" />
      <stop
         id="stop3604-7"
         style="stop-color:#dbdbdb;stop-opacity:1"
         offset="1" />
    </linearGradient>
    <linearGradient
       id="linearGradient5060-2">
      <stop
         id="stop5062-3"
         style="stop-color:#000000;stop-opacity:1"
         offset="0" />
      <stop
         id="stop5064-1"
         style="stop-color:#000000;stop-opacity:0"
         offset="1" />
    </linearGradient>
    <linearGradient
       id="linearGradient5048-8">
      <stop
         id="stop5050-4"
         style="stop-color:#000000;stop-opacity:0"
         offset="0" />
      <stop
         id="stop5056-5"
         style="stop-color:#000000;stop-opacity:1"
         offset="0.5" />
      <stop
         id="stop5052-1"
         style="stop-color:#000000;stop-opacity:0"
         offset="1" />
    </linearGradient>
    <linearGradient
       x1="-51.786404"
       y1="50.786446"
       x2="-51.786404"
       y2="2.9062471"
       id="linearGradient3163"
       xlink:href="#linearGradient3104-6"
       gradientUnits="userSpaceOnUse"
       gradientTransform="matrix(2.7224154,0,0,1.9114379,182.88295,13.071185)" />
    <linearGradient
       x1="23.99999"
       y1="5.8641062"
       x2="23.99999"
       y2="42.100208"
       id="linearGradient3166"
       xlink:href="#linearGradient3977-4"
       gradientUnits="userSpaceOnUse"
       gradientTransform="matrix(3.1351354,0,0,2.4864798,-11.743223,7.8244025)" />
    <linearGradient
       x1="25.132275"
       y1="0.98520643"
       x2="25.132275"
       y2="47.013336"
       id="linearGradient3169"
       xlink:href="#linearGradient3600-9"
       gradientUnits="userSpaceOnUse"
       gradientTransform="matrix(3.3428496,0,0,2.0207234,-16.728391,15.90233)" />
    <radialGradient
       cx="605.71429"
       cy="486.64789"
       r="117.14286"
       fx="605.71429"
       fy="486.64789"
       id="radialGradient3172"
       xlink:href="#linearGradient5060-2"
       gradientUnits="userSpaceOnUse"
       gradientTransform="matrix(0.06425912,0,0,0.04138441,79.773568,94.775946)" />
    <radialGradient
       cx="605.71429"
       cy="486.64789"
       r="117.14286"
       fx="605.71429"
       fy="486.64789"
       id="radialGradient3175"
       xlink:href="#linearGradient5060-2"
       gradientUnits="userSpaceOnUse"
       gradientTransform="matrix(-0.06425912,0,0,0.04138441,47.226434,94.775946)" />
    <linearGradient
       x1="302.85715"
       y1="366.64789"
       x2="302.85715"
       y2="609.50507"
       id="linearGradient3178"
       xlink:href="#linearGradient5048-8"
       gradientUnits="userSpaceOnUse"
       gradientTransform="matrix(0.22781064,0,0,0.04138441,-18.837281,94.775946)" />
    <linearGradient
       x1="164.28023"
       y1="241.65149"
       x2="164.28023"
       y2="156.78416"
       id="linearGradient3077-9"
       xlink:href="#linearGradient4785-3-8"
       gradientUnits="userSpaceOnUse"
       gradientTransform="matrix(1.2451836,0,0,0.95952912,-145.01368,-123.49978)" />
    <linearGradient
       id="linearGradient4785-3-8">
      <stop
         id="stop4787-5-5"
         style="stop-color:#262626;stop-opacity:1"
         offset="0" />
      <stop
         id="stop4789-1-1"
         style="stop-color:#4d4d4d;stop-opacity:1"
         offset="1" />
    </linearGradient>
    <linearGradient
       x1="30.305618"
       y1="6.9420786"
       x2="30.305618"
       y2="36.268814"
       id="linearGradient3079-1"
       xlink:href="#linearGradient3610-302-9-7-6"
       gradientUnits="userSpaceOnUse"
       gradientTransform="matrix(2.8267692,0,0,2.8031692,7.4725282,7.3068868)" />
    <linearGradient
       id="linearGradient3610-302-9-7-6">
      <stop
         id="stop3796-3-8-6"
         style="stop-color:#1d1d1d;stop-opacity:1"
         offset="0" />
      <stop
         id="stop3798-1-9-9"
         style="stop-color:#000000;stop-opacity:1"
         offset="1" />
    </linearGradient>
  </defs>
  <rect
     width="110"
     height="10.050501"
     x="8.5"
     y="109.94934"
     id="rect2879-0"
     style="display:inline;overflow:visible;visibility:visible;opacity:0.3;fill:url(#linearGradient3178);fill-opacity:1;fill-rule:nonzero;stroke:none;stroke-width:1;marker:none" />
  <path
     d="m 8.5,109.94978 c 0,0 0,10.0499 0,10.0499 -3.309186,0.0201 -8,-2.25171 -8,-5.02565 0,-2.77394 3.6928016,-5.02425 8,-5.02425 z"
     id="path2881-4"
     style="display:inline;overflow:visible;visibility:visible;opacity:0.3;fill:url(#radialGradient3175);fill-opacity:1;fill-rule:nonzero;stroke:none;stroke-width:1;marker:none" />
  <path
     d="m 118.5,109.94978 c 0,0 0,10.0499 0,10.0499 3.30918,0.0201 8,-2.25171 8,-5.02565 0,-2.77394 -3.6928,-5.02425 -8,-5.02425 z"
     id="path2883-6"
     style="display:inline;overflow:visible;visibility:visible;opacity:0.3;fill:url(#radialGradient3172);fill-opacity:1;fill-rule:nonzero;stroke:none;stroke-width:1;marker:none" />
  <path
     d="m 5,21 c 26.810639,0 116.99986,0.0064 116.99986,0.0064 L 122,114 c 0,0 -77.999998,0 -117,0 C 5,82.999988 5,52.000441 5,21.000538 Z"
     id="path4160-6"
     style="display:inline;fill:url(#linearGradient3169);fill-opacity:1;stroke:none;stroke-width:1" />
  <rect
     width="106"
     height="82"
     x="10.500001"
     y="26.5"
     id="rect3180"
     style="color:#000000;display:inline;overflow:visible;visibility:visible;fill:url(#linearGradient3077-9);fill-opacity:1;fill-rule:nonzero;stroke:url(#linearGradient3079-1);stroke-width:0.999998;stroke-linecap:round;stroke-linejoin:miter;stroke-miterlimit:4;stroke-dasharray:none;stroke-dashoffset:0;stroke-opacity:1;marker:none;enable-background:accumulate" />
  <path
     d="M 121.5,113.5 H 5.5000002 v -92 H 121.5 Z"
     id="rect6741-1-8"
     style="fill:none;stroke:url(#linearGradient3166);stroke-width:1;stroke-linecap:round;stroke-linejoin:miter;stroke-miterlimit:4;stroke-dasharray:none;stroke-dashoffset:0;stroke-opacity:1" />
  <path
     d="m 4.499924,20.499961 c 27.0398,0 118.000026,0.0064 118.000026,0.0064 l 1.3e-4,93.993629 c 0,0 -78.66677,0 -118.0001562,0 0,-31.333424 0,-62.666539 0,-93.999603 z"
     id="path4160-6-1"
     style="display:inline;fill:none;stroke:url(#linearGradient3163);stroke-width:0.999997;stroke-linecap:butt;stroke-linejoin:round;stroke-miterlimit:4;stroke-dasharray:none;stroke-dashoffset:0;stroke-opacity:1" />
  <path
     d="m 57.3125,46.946638 c -2.482986,0 -4.30505,1.869498 -5.4375,4.145832 -0.984944,1.979839 -1.486442,4.500709 -1.625,7.223799 -2.228502,-1.53593 -4.521498,-2.66364 -6.6875,-3.07797 -2.505758,-0.47932 -5.103134,-0.16633 -6.625,1.82166 -1.525976,1.99336 -1.120896,4.6095 0,6.90972 1.002516,2.05728 2.785248,4.03041 4.9375,5.84185 -2.70807,0.90875 -5.126024,2.17712 -6.8125,3.76894 -1.86284,1.75828 -3.136666,4.06042 -2.4375,6.47001 0.699788,2.41173 3.059556,3.64751 5.5625,4.08302 1.761668,0.30652 3.780784,0.16724 5.875,-0.18835 -8.878546,9.54994 -15.525986,22.215741 -16.9375,25.000611 h 7.9375 c 2.041296,-4.44112 5.426676,-10.949375 10.0625,-17.337101 0.0299,0.2117 -0.10278,0.48548 -0.0625,0.69097 0.41304,2.10666 1.51545,4.09483 3.5625,4.8368 2.352394,0.852646 4.709786,-0.30658 6.5625,-2.07291 1.375336,-1.31123 2.51233,-3.16396 3.5,-5.2137 1.2888,1.88073 2.691836,3.56055 4.25,4.64835 2.090712,1.4596 4.560312,2.20997 6.75,1.00505 2.194022,-1.2073 2.923422,-3.72658 2.8125,-6.28156 -0.0769,-1.77146 -0.663994,-3.70204 -1.4375,-5.65341 2.05395,0.27077 4.036452,0.35726 5.75,0 2.490392,-0.5192 4.806958,-1.77973 5.4375,-4.20864 0.629874,-2.42628 -0.767896,-4.67479 -2.6875,-6.34438 -1.186176,-1.03169 -2.695364,-1.90751 -4.375,-2.63826 1.4251,-1.16332 2.69946,-2.38131 3.5625,-3.70612 1.396904,-2.14433 2.122712,-4.67489 0.875,-6.84691 -1.250902,-2.17756 -3.832224,-2.80154 -6.375,-2.63825 -2.542776,0.16328 -5.354758,1.0936 -8.125,2.70107 -0.2693,0.15627 -0.433592,0.33876 -0.6875,0.50252 0.0132,-0.31172 0.125,-0.56209 0.125,-0.87941 0,-3.22094 -0.599418,-6.14156 -1.75,-8.417298 -1.150582,-2.275743 -3.017012,-4.145832 -5.5,-4.145832 z M 57.5,68.618029 c 2.655668,0 4.8125,2.16772 4.8125,4.83681 0,2.66908 -2.135492,4.77398 -4.8125,4.77398 -2.677026,0 -4.8125,-2.1049 -4.8125,-4.77398 0,-2.66909 2.156814,-4.83681 4.8125,-4.83681 z"
     id="path4039"
     style="opacity:0.15;fill:#000000;fill-opacity:1;stroke:none;stroke-width:1" />
  <path
     d="m 57.3125,48.831107 c -2.94551,0 -5.3125,4.757862 -5.3125,10.678662 0,0.98513 0.06368,1.9834 0.1875,2.88951 -0.633028,-0.64279 -1.232622,-1.35388 -2,-1.94728 -4.669012,-3.61046 -9.953842,-4.60766 -11.75,-2.26136 -1.796154,2.34629 0.580992,7.19383 5.25,10.80429 0.885918,0.68506 1.725334,1.2025 2.625,1.69602 -1.019156,0.13094 -2.048992,0.31278 -3.125,0.62815 -5.655466,1.65761 -9.574638,5.38684 -8.75,8.22885 0.824638,2.84202 6.094534,3.73052 11.75,2.07292 1.060398,-0.3108 2.081678,-0.63557 3,-1.06787 -0.22416,0.41014 -0.484636,0.81223 -0.6875,1.25631 -9.393208,8.42574 -17.00461,22.712321 -19.25,27.136351 h 3.6875 c 2.43622,-5.54677 7.207574,-15.031501 14.3125,-23.304591 -1.123414,4.69734 -0.396826,8.86768 2,9.73642 2.770842,1.00431 6.68896,-2.72199 8.6875,-8.29166 0.1798,-0.50098 0.23736,-1.01345 0.375,-1.50758 0.21584,0.47805 0.4269,0.96638 0.6875,1.44476 2.82908,5.19338 7.22886,8.26859 9.8125,6.84691 2.58364,-1.42169 2.32908,-6.80441 -0.5,-11.99779 -0.1614,-0.29625 -0.3291,-0.53468 -0.5,-0.8166 0.31342,0.0979 0.6126,0.16605 0.9375,0.25126 5.70022,1.49476 10.94388,0.4147 11.6875,-2.44981 0.74364,-2.8645 -3.29978,-6.35719 -9,-7.85195 -0.0872,-0.0228 -0.163,-0.0411 -0.25,-0.0628 0.0768,-0.0433 0.1732,-0.0811 0.25,-0.12563 5.1018,-2.9604 8.03526,-7.48672 6.5625,-10.0505 -1.47276,-2.56378 -6.8357,-2.20661 -11.9375,0.75379 -1.63418,0.94825 -2.94564,2.05668 -4.0625,3.20359 0.42356,-1.53707 0.6875,-3.33213 0.6875,-5.21369 0,-5.9208 -2.42948,-10.678662 -5.375,-10.678662 z M 57.5,66.733559 c 3.6819,0 6.6875,3.02078 6.6875,6.72128 0,3.70049 -3.0056,6.65845 -6.6875,6.65845 -3.681914,0 -6.6875,-2.95796 -6.6875,-6.65845 0,-3.7005 3.005586,-6.72128 6.6875,-6.72128 z"
     id="path4019-9"
     style="opacity:0.3;fill:#000000;fill-opacity:1;stroke:none;stroke-width:1" />
  <path
     d="m 57.3334,46.8 c -2.94551,0 -5.333328,4.799749 -5.333328,10.720549 0,0.98513 0.04286,1.94153 0.16668,2.84765 -0.633028,-0.6428 -1.232624,-1.33296 -2.000002,-1.92636 -4.669012,-3.61045 -9.95386,-4.60766 -11.750018,-2.26136 -1.796154,2.3463 0.580998,7.19384 5.250006,10.8043 0.885918,0.68506 1.767008,1.18157 2.666674,1.67509 -1.019156,0.13094 -2.090664,0.35466 -3.166672,0.67003 -5.655466,1.65761 -9.57465,5.36591 -8.750012,8.20792 0.824638,2.84202 6.09455,3.75147 11.750016,2.09386 1.060398,-0.3108 2.081682,-0.65651 3.000004,-1.0888 -0.22416,0.41014 -0.463804,0.81222 -0.666668,1.25631 -11.112992,9.96839 -20.250028,29.062731 -20.250028,29.062731 l 3.83334,0.0838 c 2.081556,-5.02252 7.229322,-16.051401 15.166686,-25.293781 -1.123414,4.69734 -0.396822,8.84675 2.000004,9.71549 2.770842,1.00431 6.668138,-2.72201 8.666678,-8.29168 0.1798,-0.50098 0.27902,-1.01345 0.41666,-1.50758 0.21584,0.47805 0.40608,0.94544 0.66668,1.42384 2.82908,5.19335 7.2497,8.28953 9.83334,6.86785 2.58364,-1.42171 2.32908,-6.78351 -0.5,-11.97687 -0.1614,-0.29625 -0.3291,-0.55563 -0.5,-0.83754 0.31342,0.0979 0.59176,0.16605 0.91666,0.25126 5.70022,1.49476 10.92306,0.43563 11.66668,-2.42888 0.74364,-2.8645 -3.29978,-6.37814 -9,-7.8729 -0.0872,-0.0228 -0.163,-0.062 -0.25,-0.0838 0.0768,-0.0433 0.1732,-0.0392 0.25,-0.0837 5.1018,-2.9604 8.0561,-7.48674 6.58334,-10.05052 -1.47276,-2.56377 -6.81488,-2.2066 -11.91668,0.75379 -1.63418,0.94825 -2.96648,2.03575 -4.08334,3.18266 0.42356,-1.53707 0.66666,-3.3112 0.66666,-5.19276 0,-5.9208 -2.38782,-10.720549 -5.33334,-10.720549 z M 57.5,64.723419 c 3.6819,0 6.66666,2.99984 6.66666,6.70034 0,3.7005 -2.98476,6.70034 -6.66666,6.70034 -3.681914,0 -6.666686,-2.99984 -6.666686,-6.70034 0,-3.7005 2.984772,-6.70034 6.666686,-6.70034 z"
     id="path4019"
     style="fill:#d2d2d2;fill-opacity:1;stroke:none;stroke-width:1" />
</svg>
