<?xml version="1.0" encoding="UTF-8" standalone="no"?>
<svg
   xmlns:dc="http://purl.org/dc/elements/1.1/"
   xmlns:cc="http://creativecommons.org/ns#"
   xmlns:rdf="http://www.w3.org/1999/02/22-rdf-syntax-ns#"
   xmlns:svg="http://www.w3.org/2000/svg"
   xmlns="http://www.w3.org/2000/svg"
   xmlns:xlink="http://www.w3.org/1999/xlink"
   id="svg4865"
   height="128"
   width="128"
   version="1.0">
  <metadata
     id="metadata63">
    <rdf:RDF>
      <cc:Work
         rdf:about="">
        <dc:format>image/svg+xml</dc:format>
        <dc:type
           rdf:resource="http://purl.org/dc/dcmitype/StillImage" />
        <dc:title />
      </cc:Work>
    </rdf:RDF>
  </metadata>
  <defs
     id="defs4867">
    <radialGradient
       gradientTransform="matrix(0.5938225,0,0,1.5366531,41.140892,-103.93618)"
       gradientUnits="userSpaceOnUse"
       xlink:href="#linearGradient3681"
       id="radialGradient2480"
       fy="41.5"
       fx="5"
       r="5"
       cy="41.5"
       cx="5" />
    <linearGradient
       id="linearGradient3703">
      <stop
         offset="0"
         style="stop-color:#000000;stop-opacity:0"
         id="stop3705" />
      <stop
         offset="0.5"
         style="stop-color:#000000;stop-opacity:1"
         id="stop3711" />
      <stop
         offset="1"
         style="stop-color:#000000;stop-opacity:0"
         id="stop3707" />
    </linearGradient>
    <linearGradient
       gradientTransform="matrix(1.7570316,0,0,1.3969574,-17.394014,-16.411698)"
       gradientUnits="userSpaceOnUse"
       xlink:href="#linearGradient3703"
       id="linearGradient2478"
       y2="34.999718"
       x2="17.554192"
       y1="46.000275"
       x1="17.554192" />
    <linearGradient
       id="linearGradient3681">
      <stop
         offset="0"
         style="stop-color:#000000;stop-opacity:1"
         id="stop3683" />
      <stop
         offset="1"
         style="stop-color:#000000;stop-opacity:0"
         id="stop3685" />
    </linearGradient>
    <radialGradient
       gradientTransform="matrix(0.5938225,0,0,1.5366531,-6.6594735,-103.93618)"
       gradientUnits="userSpaceOnUse"
       xlink:href="#linearGradient3681"
       id="radialGradient2476"
       fy="41.5"
       fx="5"
       r="5"
       cy="41.5"
       cx="5" />
    <linearGradient
       id="linearGradient2515">
      <stop
         offset="0"
         style="stop-color:#c9af8b;stop-opacity:1"
         id="stop2517" />
      <stop
         offset="0.25061068"
         style="stop-color:#ad8757;stop-opacity:1"
         id="stop2519" />
      <stop
         offset="0.26043808"
         style="stop-color:#c2a57f;stop-opacity:1"
         id="stop2521" />
      <stop
         offset="1"
         style="stop-color:#9d7d53;stop-opacity:1"
         id="stop2523" />
    </linearGradient>
    <linearGradient
       gradientTransform="matrix(2.7070745,0,0,2.6645996,-0.969786,0.9205222)"
       gradientUnits="userSpaceOnUse"
       xlink:href="#linearGradient2515"
       id="linearGradient2509"
       y2="45.04248"
       x2="15.464298"
       y1="8.0320501"
       x1="15.464298" />
    <linearGradient
       id="linearGradient2525">
      <stop
         offset="0"
         style="stop-color:#dac197;stop-opacity:1"
         id="stop2527" />
      <stop
         offset="0.2459572"
         style="stop-color:#c1a581;stop-opacity:1"
         id="stop2529" />
      <stop
         offset="0.25641906"
         style="stop-color:#dac197;stop-opacity:1"
         id="stop2531" />
      <stop
         offset="1"
         style="stop-color:#a68b60;stop-opacity:1"
         id="stop2533" />
    </linearGradient>
    <linearGradient
       gradientTransform="matrix(3.4710787,0,0,4.1494794,-17.402248,-39.82322)"
       gradientUnits="userSpaceOnUse"
       xlink:href="#linearGradient2525"
       id="linearGradient2507"
       y2="38.516453"
       x2="24.996943"
       y1="15.139546"
       x1="24.996943" />
    <linearGradient
       id="linearGradient3219">
      <stop
         offset="0"
         style="stop-color:#cbad7a;stop-opacity:1"
         id="stop3225" />
      <stop
         offset="1"
         style="stop-color:#cbae7d;stop-opacity:0"
         id="stop3227" />
    </linearGradient>
    <radialGradient
       gradientTransform="matrix(4.5505458,0,0,1.8,-45.213099,27.199994)"
       gradientUnits="userSpaceOnUse"
       xlink:href="#linearGradient3219"
       id="radialGradient2504"
       fy="31"
       fx="24"
       r="20"
       cy="31"
       cx="24" />
    <linearGradient
       id="linearGradient2535">
      <stop
         offset="0"
         style="stop-color:#ffffff;stop-opacity:0"
         id="stop2537" />
      <stop
         offset="0.1"
         style="stop-color:#ffffff;stop-opacity:1"
         id="stop2539" />
      <stop
         offset="0.89999998"
         style="stop-color:#ffffff;stop-opacity:1"
         id="stop2541" />
      <stop
         offset="1"
         style="stop-color:#ffffff;stop-opacity:0"
         id="stop2543" />
    </linearGradient>
    <linearGradient
       spreadMethod="reflect"
       gradientTransform="matrix(2.7080051,0,0,2.6574834,-0.992123,0.994042)"
       gradientUnits="userSpaceOnUse"
       xlink:href="#linearGradient2535"
       id="linearGradient2498"
       y2="17.5"
       x2="3.0052247"
       y1="17.5"
       x1="44.994774" />
    <linearGradient
       id="linearGradient4793">
      <stop
         offset="0"
         style="stop-color:#ad8757;stop-opacity:1"
         id="stop4795" />
      <stop
         offset="1"
         style="stop-color:#c7ad88;stop-opacity:0.39215687"
         id="stop4797" />
    </linearGradient>
    <linearGradient
       gradientUnits="userSpaceOnUse"
       xlink:href="#linearGradient4793"
       id="linearGradient4799"
       y2="23.5"
       x2="63.5"
       y1="47.5"
       x1="63.5" />
    <linearGradient
       id="linearGradient3980">
      <stop
         offset="0"
         style="stop-color:#ffffff;stop-opacity:1"
         id="stop3982" />
      <stop
         offset="0.32468599"
         style="stop-color:#ffffff;stop-opacity:1"
         id="stop3984" />
      <stop
         offset="0.3736864"
         style="stop-color:#ffffff;stop-opacity:0.6901961"
         id="stop3986" />
      <stop
         offset="1"
         style="stop-color:#ffffff;stop-opacity:0"
         id="stop3988" />
    </linearGradient>
    <linearGradient
       gradientTransform="matrix(2.9999998,0,0,2.7142858,-7.9999988,0.2857148)"
       gradientUnits="userSpaceOnUse"
       xlink:href="#linearGradient3980"
       id="linearGradient2495"
       y2="8"
       x2="26"
       y1="22"
       x1="26" />
    <linearGradient
       id="linearGradient4805">
      <stop
         offset="0"
         style="stop-color:#ffffff;stop-opacity:1"
         id="stop4807" />
      <stop
         offset="1"
         style="stop-color:#ffffff;stop-opacity:0.3137255"
         id="stop4811" />
    </linearGradient>
    <linearGradient
       gradientTransform="translate(1,0)"
       gradientUnits="userSpaceOnUse"
       xlink:href="#linearGradient4805"
       id="linearGradient4803"
       y2="23.5"
       x2="63.5"
       y1="47.5"
       x1="63.5" />
    <linearGradient
       gradientUnits="userSpaceOnUse"
       y2="38.04184"
       x2="23.143536"
       y1="9.0272236"
       x1="23.143536"
       id="linearGradient3937-7-4"
       xlink:href="#linearGradient3924-3-3" />
    <linearGradient
       id="linearGradient3924-3-3">
      <stop
         style="stop-color:#000000;stop-opacity:1;"
         offset="0"
         id="stop3926-6-3" />
      <stop
         style="stop-color:#000000;stop-opacity:0.38759691;"
         offset="1"
         id="stop3928-5-3" />
    </linearGradient>
    <linearGradient
       y2="28.416178"
       x2="23.534342"
       y1="14.423345"
       x1="10.793174"
       gradientUnits="userSpaceOnUse"
       id="linearGradient3839-8"
       xlink:href="#linearGradient3990-3-6" />
    <linearGradient
       id="linearGradient3990-3-6">
      <stop
         id="stop3992-4-0"
         offset="0"
         style="stop-color:#000000;stop-opacity:0.37254903;" />
      <stop
         id="stop3994-4-4"
         offset="1"
         style="stop-color:#000000;stop-opacity:0;" />
    </linearGradient>
    <linearGradient
       y2="22.232906"
       x2="31.127357"
       y1="33.601665"
       x1="34.658031"
       gradientTransform="matrix(1.0234376,0,0,1.0236879,-0.92479045,-0.92370694)"
       gradientUnits="userSpaceOnUse"
       id="linearGradient3221"
       xlink:href="#linearGradient3927-8" />
    <linearGradient
       id="linearGradient3927-8">
      <stop
         style="stop-color:#ffffff;stop-opacity:0.28813559"
         offset="0"
         id="stop3929-8" />
      <stop
         id="stop3931-8"
         offset="0.16901067"
         style="stop-color:#ffffff;stop-opacity:0.8" />
      <stop
         style="stop-color:#ffffff;stop-opacity:0;"
         offset="1"
         id="stop3933-9" />
    </linearGradient>
    <linearGradient
       id="linearGradient3822-7">
      <stop
         id="stop3824-6"
         offset="0"
         style="stop-color:#a7a7a7;stop-opacity:1;" />
      <stop
         id="stop3826-4"
         offset="1"
         style="stop-color:#000000;stop-opacity:1;" />
    </linearGradient>
    <linearGradient
       xlink:href="#linearGradient3822-7"
       id="linearGradient3256"
       gradientUnits="userSpaceOnUse"
       x1="30.641865"
       y1="35.435268"
       x2="37.586456"
       y2="35.435268" />
  </defs>
  <g
     id="layer1">
    <g
       style="opacity:0.3;display:inline"
       id="g3305"
       transform="matrix(2.6758724,0,0,2.6030596,4.6164632e-2,3.4479024)">
      <rect
         style="opacity:1;fill:url(#radialGradient2476);fill-opacity:1;stroke:none;stroke-width:1;stroke-linecap:round;stroke-linejoin:miter;stroke-miterlimit:4;stroke-dasharray:none;stroke-dashoffset:1.20000057;stroke-opacity:1"
         id="rect2484"
         transform="scale(-1,-1)"
         y="-47.848343"
         x="-3.6903627"
         height="15.366531"
         width="2.9601951" />
      <rect
         style="opacity:1;fill:url(#linearGradient2478);fill-opacity:1;stroke:none;stroke-width:1;stroke-linecap:round;stroke-linejoin:miter;stroke-miterlimit:4;stroke-dasharray:none;stroke-dashoffset:1.20000057;stroke-opacity:1"
         id="rect2486"
         y="32.481812"
         x="3.6903627"
         height="15.366531"
         width="40.41172" />
      <rect
         style="opacity:1;fill:url(#radialGradient2480);fill-opacity:1;stroke:none;stroke-width:1;stroke-linecap:round;stroke-linejoin:miter;stroke-miterlimit:4;stroke-dasharray:none;stroke-dashoffset:1.20000057;stroke-opacity:1;display:inline"
         id="rect3444"
         transform="scale(1,-1)"
         y="-47.848343"
         x="44.110001"
         height="15.366531"
         width="2.9601951" />
    </g>
    <path
       style="fill:url(#linearGradient2507);fill-opacity:1;fill-rule:nonzero;stroke:url(#linearGradient2509);stroke-width:0.99420083;stroke-linecap:round;stroke-linejoin:miter;marker:none;marker-start:none;marker-mid:none;marker-end:none;stroke-miterlimit:4;stroke-dasharray:none;stroke-dashoffset:0;stroke-opacity:1;visibility:visible;display:block;overflow:visible"
       id="path2488"
       d="M 23.422918,23.569618 L 103.27545,23.569618 C 107.93699,23.569618 110.0348,22.806077 111.3738,26.234216 L 119.49972,47.551014 L 119.49972,115.96171 C 119.49972,120.10065 119.77836,119.46826 115.1168,119.46826 L 12.883203,119.46826 C 8.2216424,119.46826 8.5002786,120.10065 8.5002786,115.96171 L 8.5002786,47.551014 L 16.626198,26.234216 C 17.927844,22.875324 18.761355,23.569618 23.422918,23.569618 z" />
    <rect
       style="fill:url(#radialGradient2504);fill-opacity:1;fill-rule:evenodd;stroke:none;stroke-width:1.69999993;stroke-linecap:round;stroke-linejoin:miter;marker:none;marker-start:none;marker-mid:none;marker-end:none;stroke-miterlimit:4;stroke-dasharray:none;stroke-dashoffset:0;stroke-opacity:1;visibility:visible;display:inline;overflow:visible;enable-background:accumulate"
       id="rect3209"
       y="47"
       x="9"
       height="72"
       width="110" />
    <path
       style="opacity:0.3;fill:none;fill-rule:evenodd;stroke:url(#linearGradient2498);stroke-width:0.99999988px;stroke-linecap:square;stroke-linejoin:miter;stroke-opacity:1;display:inline"
       id="path3273"
       d="M 8.5000437,47.5 L 119.49996,47.5" />
    <path
       style="fill:none;fill-opacity:1;fill-rule:evenodd;stroke:url(#linearGradient4799);stroke-width:1px;stroke-linecap:butt;stroke-linejoin:miter;stroke-opacity:1"
       id="path4763"
       d="M 63.5,24 L 63.5,47" />
    <path
       style="opacity:0.4;fill:url(#linearGradient2495);fill-opacity:1;fill-rule:nonzero;stroke:none;stroke-width:1;stroke-linecap:square;stroke-linejoin:round;marker:none;marker-start:none;marker-mid:none;marker-end:none;stroke-miterlimit:4;stroke-dasharray:none;stroke-dashoffset:0;stroke-opacity:1;visibility:visible;display:inline;overflow:visible;enable-background:accumulate"
       id="rect3326"
       d="M 58,22 C 61.999998,22 66.000002,22 70,22 C 70,34.666666 70,47.333332 70,60 C 68.818814,60 67.637626,60 66.45644,60 C 65.247064,60 64.037688,60 62.828314,60 C 61.854726,60 60.881144,60 59.90756,60 C 59.271706,60 58.635852,60 58,60 C 58,47.333332 58,34.666666 58,22 z" />
    <path
       style="opacity:0.3;fill:none;fill-opacity:1;fill-rule:evenodd;stroke:url(#linearGradient4803);stroke-width:1px;stroke-linecap:butt;stroke-linejoin:miter;stroke-opacity:1"
       id="path4801"
       d="M 64.5,24 L 64.5,47" />
  </g>
  <g
     transform="matrix(2.206828,0,0,2.2026604,11.809555,26.575964)"
     id="g3168">
    <g
       transform="matrix(0.7400127,0,0,0.7400127,7.8444241,9.1459649)"
       id="layer1-7">
      <path
         style="opacity:0.5;color:#000000;fill:url(#linearGradient3937-7-4);fill-opacity:1;fill-rule:nonzero;stroke:none;stroke-width:0.68663466;marker:none;visibility:visible;display:inline;overflow:visible;enable-background:accumulate"
         d="m 36.943886,6.7968089 c -0.157078,0.077222 -0.296498,0.3277294 -0.432188,0.7348984 -0.361839,1.085785 -2.90791,8.5865417 -17.33072,8.9484697 C 12.298633,16.651365 9.3703212,10.60099 9.3703212,10.60099 l -0.1728749,7.781278 c 0,0 0.7397713,1.734074 -0.7347189,3.544803 C 8.3825784,21.801792 8.334663,21.660029 8.2466337,21.538008 7.7159378,20.802389 7.093816,20.183401 6.4314461,19.722376 5.6703811,19.192657 4.8787477,18.842912 4.0976334,18.728102 c -0.9005432,-0.132364 -1.7715733,0.0627 -2.4634688,0.561981 -0.69210616,0.499428 -1.09501379,1.264576 -1.25334389,2.161466 -0.13725792,0.777524 -0.0896357,1.618044 0.17287499,2.5073 0.22849391,0.774024 0.5932276,1.55551 1.1236876,2.291155 0.5603944,0.777156 1.258548,1.465348 1.9880627,1.945319 0.8227411,0.541308 1.6949827,0.858408 2.5499063,0.907816 0.2645554,0.01529 0.5348545,-0.04961 0.7779375,-0.08646 5.5372972,4.390835 16.5282672,8.488388 23.8135332,3.804181 0.157588,0.05364 -0.08485,0.367398 0.07356,0.422151 0.0039,0.075 -0.01968,0.149333 0,0.216147 l 0.34575,-0.129688 c 0.06152,0.01956 0.110043,0.06801 0.172875,0.08646 0.01346,0.004 0.02968,-0.0039 0.04322,0 l 0.129657,0.129687 3.284625,1.167192 c -0.13475,1.140796 0.544167,2.340038 1.973221,2.886964 2.573572,0.984956 5.702914,2.666051 5.702914,2.666051 -1.227624,-4.168174 -1.960249,-8.442781 -5.168432,-8.148284 -0.596913,0.0548 -1.223843,0.177608 -1.558902,0.526431 l -2.895657,-1.85886 -0.129656,0 -0.02833,0.436265 c 3.899384,-3.8385 6.1796,-11.05294 4.797282,-23.603209 -0.08,-0.627178 -0.343267,-0.9500602 -0.605064,-0.8213581 z"
         id="path4323" />
    </g>
    <g
       transform="matrix(0.7400127,0,0,0.7400127,7.8444241,9.1459649)"
       id="layer1-7-5"
       style="color:#000000;fill:none;stroke:url(#linearGradient3839-8);stroke-width:0.61291862;stroke-linecap:butt;stroke-linejoin:miter;stroke-miterlimit:4;stroke-opacity:1;stroke-dasharray:none;stroke-dashoffset:0;marker:none;visibility:visible;display:inline;overflow:visible;enable-background:accumulate" />
    <path
       d="m 35.375,13.96875 c -0.089,-0.03116 -0.16326,-0.01139 -0.25,0.03125 -0.294365,0.144708 -0.357468,0.322325 -0.46875,0.65625 -0.128427,0.385374 -0.636443,1.947018 -2.4375,3.4375 -1.800925,1.490374 -4.885277,2.929446 -10.1875,3.0625 C 17.057235,21.279972 14.9375,16.9375 14.9375,16.9375 a 0.26807494,0.26807494 0 0 1 0,-0.03125 C 14.887559,16.786216 14.590133,16.870011 14.59375,17 l -0.15625,5.71875 0,0.03125 c 0.0044,1.42e-4 -0.0053,0.0017 0.03125,0.0625 A 0.26807494,0.26807494 0 0 1 14.5,22.84375 c 0,0 0.300626,0.821227 -0.1875,1.8125 A 0.26807494,0.26807494 0 0 1 14.28125,24.6875 0.26807494,0.26807494 0 0 1 14.25,24.71875 0.26807494,0.26807494 0 0 1 14.15625,24.78125 0.26807494,0.26807494 0 0 1 14,24.78125 0.26807494,0.26807494 0 0 1 13.90625,24.75 0.26807494,0.26807494 0 0 1 13.84375,24.6875 c -0.362954,-0.448565 -0.717449,-0.841336 -1.125,-1.125 -0.576016,-0.400921 -1.186719,-0.658021 -1.8125,-0.75 -0.718181,-0.105555 -1.417205,0.0395 -1.96875,0.4375 -0.5554972,0.400849 -0.8756584,1.014394 -1,1.71875 -0.1078432,0.610901 -0.076044,1.287709 0.125,1.96875 0.1771067,0.599951 0.4411319,1.191648 0.84375,1.75 0.4251931,0.58966 0.9952882,1.126813 1.5625,1.5 0.635565,0.418159 1.264537,0.648607 1.9375,0.6875 0.156941,0.0091 0.272832,-0.0011 0.4375,-0.03125 a 0.26807494,0.26807494 0 0 1 0.15625,0 0.26807494,0.26807494 0 0 1 0.0625,0.03125 c 2.073411,1.604496 5.074628,3.15409 8.25,3.875 3.14846,0.714801 6.232874,0.755952 8.9375,-0.84375 a 0.26807494,0.26807494 0 0 1 0.28125,0 A 0.26807494,0.26807494 0 0 1 30.625,34 c 0.03922,0.07631 0.123844,0.12951 0.1875,0.125 0.0077,-5.44e-4 0.02503,0.0023 0.03125,0 L 30.875,34.09375 A 0.26807494,0.26807494 0 0 1 31,34.0625 l 0.03125,0 a 0.26807494,0.26807494 0 0 1 0.09375,0.03125 0.26807494,0.26807494 0 0 1 0.09375,0.09375 l 0.0625,0.03125 1.9375,0.71875 a 0.26807494,0.26807494 0 0 1 0.0625,0.03125 A 0.26807494,0.26807494 0 0 1 33.3125,35 a 0.26807494,0.26807494 0 0 1 0.0625,0.09375 0.26807494,0.26807494 0 0 1 0.03125,0.09375 c 0.03895,0.79234 0.651932,1.584379 1.65625,1.96875 1.899928,0.72714 4.1875,1.96875 4.1875,1.96875 a 0.26807494,0.26807494 0 0 1 0,0.03125 c 0.09903,0.05512 0.31455,-0.110306 0.28125,-0.21875 a 0.26807494,0.26807494 0 0 1 0,-0.03125 c -0.452823,-1.537473 -0.899263,-3.370377 -1.40625,-4.375 -0.260597,-0.516386 -0.642333,-1.118898 -1.03125,-1.375 -0.463892,-0.305474 -0.848631,-0.522807 -1.4375,-0.46875 -0.364317,0.03344 -0.98613,0.163428 -1.15625,0.28125 A 0.26807494,0.26807494 0 0 1 34.4375,33 0.26807494,0.26807494 0 0 1 34.28125,33 0.26807494,0.26807494 0 0 1 34.1875,32.96875 l -1.21875,-0.8125 A 0.26807494,0.26807494 0 0 1 32.90625,32.09375 0.26807494,0.26807494 0 0 1 32.875,32 a 0.26807494,0.26807494 0 0 1 0,-0.15625 0.26807494,0.26807494 0 0 1 0.0625,-0.09375 c 2.688803,-2.986024 3.85406,-8.110973 2.875,-17 -0.03229,-0.253162 -0.09497,-0.461894 -0.21875,-0.625 -0.05474,-0.07214 -0.110477,-0.118334 -0.21875,-0.15625 z"
       id="path3219"
       style="opacity:0.15;color:#000000;fill:none;stroke:url(#linearGradient3221);stroke-width:0.45356759000000002;stroke-linecap:butt;stroke-linejoin:miter;stroke-miterlimit:4;stroke-opacity:1;stroke-dasharray:none;stroke-dashoffset:0;marker:none;visibility:visible;display:inline;overflow:visible;enable-background:accumulate" />
    <path
       id="path3104"
       d="m 30.641864,33.433814 c 0.116617,0.0397 -0.06279,0.271879 0.05444,0.312397 0.0029,0.05551 -0.01456,0.110509 0,0.159952 l 0.255859,-0.09597 c 0.04552,0.01447 0.08144,0.05033 0.12793,0.06399 0.01,0.003 0.02196,-0.0029 0.03198,0 l 0.09595,0.09597 2.430664,0.863736 c -0.09972,0.844204 0.40269,1.731658 1.460208,2.13639 1.904477,0.728881 4.220229,1.972912 4.220229,1.972912 -0.908457,-3.084502 -1.450609,-6.247765 -3.824705,-6.029834 -0.441723,0.04055 -0.90566,0.131433 -1.153607,0.389566 l -2.142823,-1.37558 -0.09595,0 -0.02096,0.322841"
       style="opacity:0.1;color:#000000;fill:url(#linearGradient3256);fill-opacity:1;fill-rule:nonzero;stroke:none;stroke-width:1.10237157;marker:none;visibility:visible;display:inline;overflow:visible;enable-background:accumulate" />
  </g>
</svg>
