<?xml version="1.0" encoding="UTF-8" standalone="no"?>
<svg
   xmlns:dc="http://purl.org/dc/elements/1.1/"
   xmlns:cc="http://creativecommons.org/ns#"
   xmlns:rdf="http://www.w3.org/1999/02/22-rdf-syntax-ns#"
   xmlns:svg="http://www.w3.org/2000/svg"
   xmlns="http://www.w3.org/2000/svg"
   xmlns:xlink="http://www.w3.org/1999/xlink"
   version="1.1"
   id="svg3172"
   height="128"
   width="128">
  <defs
     id="defs3174">
    <linearGradient
       id="linearGradient4301">
      <stop
         id="stop4303"
         offset="0"
         style="stop-color:#a3a3a3;stop-opacity:1;" />
      <stop
         id="stop4305"
         offset="1"
         style="stop-color:#bababa;stop-opacity:1" />
    </linearGradient>
    <linearGradient
       y2="43"
       x2="23.99999"
       y1="5.5641499"
       x1="23.99999"
       gradientTransform="matrix(2.4594595,0,0,3.1081081,4.9729852,-78.594559)"
       gradientUnits="userSpaceOnUse"
       id="linearGradient3093"
       xlink:href="#linearGradient3977" />
    <linearGradient
       id="linearGradient3977">
      <stop
         offset="0"
         style="stop-color:#ffffff;stop-opacity:1;"
         id="stop3979" />
      <stop
         id="stop3981"
         style="stop-color:#ffffff;stop-opacity:0.23529412;"
         offset="0.03626217" />
      <stop
         offset="0.95056331"
         style="stop-color:#ffffff;stop-opacity:0.15686275;"
         id="stop3983" />
      <stop
         offset="1"
         style="stop-color:#ffffff;stop-opacity:0.39215687;"
         id="stop3985" />
    </linearGradient>
    <linearGradient
       y2="47.013336"
       x2="25.132275"
       y1="0.98520643"
       x1="25.132275"
       gradientTransform="matrix(2.6571409,0,0,2.5422194,0.228619,-68.91283)"
       gradientUnits="userSpaceOnUse"
       id="linearGradient3096"
       xlink:href="#linearGradient3600" />
    <linearGradient
       id="linearGradient3600">
      <stop
         id="stop3602"
         style="stop-color:#f4f4f4;stop-opacity:1"
         offset="0" />
      <stop
         id="stop3604"
         style="stop-color:#dbdbdb;stop-opacity:1"
         offset="1" />
    </linearGradient>
    <linearGradient
       y2="2.9062471"
       x2="-51.786404"
       y1="50.786446"
       x1="-51.786404"
       gradientTransform="matrix(2.1456328,0,0,2.3791386,158.08997,-71.746077)"
       gradientUnits="userSpaceOnUse"
       id="linearGradient3098"
       xlink:href="#linearGradient3104" />
    <linearGradient
       id="linearGradient3104">
      <stop
         id="stop3106"
         style="stop-color:#a0a0a0;stop-opacity:1;"
         offset="0" />
      <stop
         id="stop3108-4"
         style="stop-color:#bebebe;stop-opacity:1;"
         offset="1" />
    </linearGradient>
    <linearGradient
       gradientTransform="matrix(3.1428572,0,0,1.2857143,-11.428573,-2.428572)"
       y2="39.999443"
       x2="25.058096"
       y1="47.027729"
       x1="25.058096"
       gradientUnits="userSpaceOnUse"
       id="linearGradient3120"
       xlink:href="#linearGradient3702-501-757-486" />
    <linearGradient
       id="linearGradient3702-501-757-486">
      <stop
         id="stop3100"
         style="stop-color:#181818;stop-opacity:0"
         offset="0" />
      <stop
         id="stop3102"
         style="stop-color:#181818;stop-opacity:1"
         offset="0.5" />
      <stop
         id="stop3104"
         style="stop-color:#181818;stop-opacity:0"
         offset="1" />
    </linearGradient>
    <radialGradient
       r="2.5"
       fy="43.5"
       fx="4.9929786"
       cy="43.5"
       cx="4.9929786"
       gradientTransform="matrix(2.4045407,0,0,1.7999999,-32.014243,-131.8)"
       gradientUnits="userSpaceOnUse"
       id="radialGradient3123"
       xlink:href="#linearGradient3688-464-309-255" />
    <linearGradient
       id="linearGradient3688-464-309-255">
      <stop
         id="stop3094"
         style="stop-color:#181818;stop-opacity:1"
         offset="0" />
      <stop
         id="stop3096"
         style="stop-color:#181818;stop-opacity:0"
         offset="1" />
    </linearGradient>
    <linearGradient
       id="linearGradient3688-166-749-737">
      <stop
         id="stop3088"
         style="stop-color:#181818;stop-opacity:1"
         offset="0" />
      <stop
         id="stop3090"
         style="stop-color:#181818;stop-opacity:0"
         offset="1" />
    </linearGradient>
    <radialGradient
       xlink:href="#linearGradient3688-166-749-737"
       id="radialGradient3170"
       gradientUnits="userSpaceOnUse"
       gradientTransform="matrix(2.4045407,0,0,1.7999999,95.985757,-24.799999)"
       cx="4.9929786"
       cy="43.5"
       fx="4.9929786"
       fy="43.5"
       r="2.5" />
    <linearGradient
       y2="10.035408"
       x2="22.104254"
       y1="40.124432"
       x1="22.104254"
       gradientTransform="matrix(1.800055,0,0,3.888697,12.474991,-93.360456)"
       gradientUnits="userSpaceOnUse"
       id="linearGradient4061"
       xlink:href="#linearGradient5031" />
    <linearGradient
       id="linearGradient5031">
      <stop
         offset="0"
         style="stop-color:#a3a3a3;stop-opacity:1"
         id="stop5033" />
      <stop
         offset="1"
         style="stop-color:#bababa;stop-opacity:1"
         id="stop5035" />
    </linearGradient>
    <linearGradient
       gradientTransform="translate(0.100047,0.784501)"
       gradientUnits="userSpaceOnUse"
       y2="-71"
       x2="65"
       y1="-21"
       x1="65"
       id="linearGradient4307"
       xlink:href="#linearGradient4301" />
  </defs>
  <metadata
     id="metadata3177">
    <rdf:RDF>
      <cc:Work
         rdf:about="">
        <dc:format>image/svg+xml</dc:format>
        <dc:type
           rdf:resource="http://purl.org/dc/dcmitype/StillImage" />
        <dc:title />
      </cc:Work>
    </rdf:RDF>
  </metadata>
  <g
     transform="translate(0,64)"
     id="layer1">
    <rect
       width="6"
       height="8.999999"
       x="108"
       y="49"
       id="rect2801"
       style="opacity:0.4;fill:url(#radialGradient3170);fill-opacity:1;stroke:none" />
    <rect
       width="6"
       height="8.999999"
       x="-20"
       y="-58"
       transform="scale(-1,-1)"
       id="rect3696"
       style="opacity:0.4;fill:url(#radialGradient3123);fill-opacity:1;stroke:none" />
    <rect
       width="88"
       height="9"
       x="20"
       y="49"
       id="rect3700"
       style="opacity:0.4;fill:url(#linearGradient3120);fill-opacity:1;stroke:none" />
    <path
       d="m 17.499929,-62.499588 c 21.311061,0 93.000031,0.007 93.000031,0.007 l 1.1e-4,116.992628 c 0,0 -62.0001,0 -93.00014,0 0,-39.000029 0,-78.000054 0,-117.000079 z"
       id="path4160"
       style="fill:url(#linearGradient3096);fill-opacity:1;stroke:url(#linearGradient3098);stroke-width:0.99992186;stroke-linecap:butt;stroke-linejoin:round;stroke-miterlimit:4;stroke-opacity:1;stroke-dasharray:none;stroke-dashoffset:0;display:inline" />
    <path
       id="rect6741-1"
       d="m 109.5,53.5 -91,0 0,-115.000003 91,0 z"
       style="fill:none;stroke:url(#linearGradient3093);stroke-width:1;stroke-linecap:round;stroke-linejoin:round;stroke-miterlimit:4;stroke-opacity:1;stroke-dasharray:none;stroke-dashoffset:0" />
    <g
       transform="translate(0,-1)"
       id="g4390">
      <path
         style="fill:#89adc2;fill-opacity:1;stroke:none;display:inline"
         d="m 30,-19 0,1 7,0 0,-1 z m 9,0 0,1 4,0 0,-1 z m 6,0 0,1 4,0 0,-1 z m 5.999999,0 0,1 2,0 0,-1 z m 4,0 0,1 3,0 0,-1 z m 5.000002,0 0,1 L 73,-18 73,-19 Z M 30,-15 l 0,1 9,0 0,-1 z m 11,0 0,1 5,0 0,-1 z m 7,0 0,1 1.999999,0 0,-1 z m 2.999999,0 0,1 3,0 0,-1 z m 5,0 0,1 3.000002,0 0,-1 z m 5.000002,0 0,1 L 69,-14 69,-15 Z M 71,-15 l 0,1 9,0 0,-1 z m -41,4 0,1 10,0 0,-1 z m 12,0 0,1 11.999999,0 0,-1 z m -12,4.0000006 0,1 5,0 0,-1 z m 7,0 0,1 6,0 0,-1 z m 8,0 0,1 4,0 0,-1 z m 9.999999,7.99999849 0,1.00000131 4.000002,0 0,-1.00000131 z m 6.000002,0 0,1.00000131 3.999999,0 0,-1.00000131 z m 5.999999,0 0,1.00000131 6,0 0,-1.00000131 z m 8,0 0,1.00000131 1,0 0,-1.00000131 z M 53.999999,13 l 0,1 6.000002,0 0,-1 z m 8,0 0,1 L 67,14 67,13 Z M 69,13 l 0,1 4,0 0,-1 z m -15.000001,4 0,1 5.039494,0 0,-1 z m 7.000002,0 0,1 L 73,18 73,17 Z M 75,17 l 0,1 10,0 0,-1 z m -21.000001,4 0,1 6.000002,0 0,-1 z m 8,0 0,1 L 73,22 73,21 Z m 13,0 0,1 7,0 0,-1 z m -21,4 0,1 5.000002,0 0,-1 z m 7.000002,0 0,1 L 65,26 65,25 Z M 67,25 l 0,1 6,0 0,-1 z m 8.045454,0 0,1 L 77,26 77,25 Z M 79,25 l 0,1 8,0 0,-1 z m -25.000001,12 0,1 7.000002,0 0,-1 z m 9.000002,0 0,1 L 67,38 67,37 Z m 5.666665,0 0,1 5.333333,0 0,-1 z M 76,37 l 0,1 7,0 0,-1 z m 9,0 0,1 12.999998,0 0,-1 z"
         id="path4149" />
      <path
         style="fill:#b78ed4;fill-opacity:1;stroke:none;display:inline"
         d="m 30,-2.9999995 3e-6,1 7.999999,0 -2e-6,-1 z m 3e-6,3.9999999 0,1 7.999997,0 0,-1 z"
         id="path4063" />
      <path
         style="fill:#d48eb3;fill-opacity:1;stroke:none;display:inline"
         d="m 40,-2.9999995 0,1 14.000002,0 -3e-6,-1 z m 0,3.9999999 0,1 12.999999,0 0,-1 z M 44,29 l 0,1 10.999999,0 0,-1 z m 13.000001,0 0,1 4,0 0,-1 z m 6,0 0,1 L 72,30 72,29 Z m 11.000001,0 0,1 7.999999,0 0,-1 z M 84,29 l 0,1 2.000001,0 0,-1 z m 4,0 0,1 1,0 0,-1 z m 3,0 0,1 5,0 0,-1 z m -43,4 0,1 1.999999,0 0,-1 z m 2.999999,0 0,1 3.000003,0 0,-1 z m 5,0 0,1 3.000002,0 0,-1 z m 5.000002,0 0,1 L 67,34 67,33 Z M 69,33 l 0,1 8,0 0,-1 z m 10,0 0,1 6,0 0,-1 z m 8,0 0,1 1,0 0,-1 z"
         id="path4061" />
      <path
         style="fill:#de6161;fill-opacity:1;stroke:none;display:inline"
         id="path4009"
         d="m 30,37 8,0 0,1 -8,0 z" />
      <path
         style="fill:url(#linearGradient4061);fill-opacity:1;stroke:none;display:inline"
         d="m 39,5.0000003 0,1 5,0 0,-1 z M 30,9.0000002 30,10 33,10 33,9.0000002 Z M 39,13 l 0,1 4,0 0,-1 z m 1,4 0,1 6,0 0,-1 z m -1,4 0,1 4,0 0,-1 z m -2,4 0,1 5,0 0,-1 z m -7,4 0,1 12,0 0,-1 z m 0,4 0,1 9,0 0,-1 z m 11,0 0,1 5,0 0,-1 z m -1,4 0,1 9,0 0,-1 z"
         id="path4007" />
      <path
         style="fill:#94d48e;fill-opacity:1;stroke:none;display:inline"
         d="m 30,5.0000003 0,1 7,0 0,-1 z M 30,13 l 0,1 7,0 0,-1 z m 0,4 0,1 8,0 0,-1 z m 0,4 0,1 7,0 0,-1 z m 0,4 0,1 5,0 0,-1 z"
         id="path5302" />
      <path
         style="fill:#94d48e;fill-opacity:1;stroke:none;display:inline"
         d="m 44,-27 0,1 10.999999,0 0,-1 z m 13.000001,0 0,1 4,0 0,-1 z m 6,0 0,1 L 72,-26 72,-27 Z M 74,-27 l 0,1 8,0 0,-1 z m 10,0 0,1 2,0 0,-1 z m 4,0 0,1 1,0 0,-1 z m 3,0 0,1 4.999997,0 0,-1 z m -43,4 0,1 1.999999,0 0,-1 z m 2.999999,0 0,1 3.000003,0 0,-1 z m 5,0 0,1 3.000002,0 0,-1 z m 5.000002,0 0,1 L 67,-22 67,-23 Z M 69,-23 l 0,1 8,0 0,-1 z m 10,0 0,1 6,0 0,-1 z m 8,0 0,1 1,0 0,-1 z"
         id="path4061-9" />
      <path
         style="fill:#94d48e;fill-opacity:1;stroke:none;display:inline"
         d="m 30,-27 0,1 12,0 0,-1 z m 0,4 0,1 9,0 0,-1 z m 11,0 0,1 5,0 0,-1 z"
         id="path4007-8" />
      <path
         style="fill:url(#linearGradient4307);fill-opacity:1;stroke:none;display:inline"
         d="m 30,-31 0,1 7.000002,0 0,-1 z m 9.000002,0 0,1 3.999999,0 0,-1 z m 5.666665,0 0,1 5.333333,0 0,-1 z m 7.333334,0 0,1 7,0 0,-1 z m 9,0 0,1 12.999998,0 0,-1 z"
         id="path4149-1" />
      <path
         style="fill:#de6161;fill-opacity:1;stroke:none;display:inline"
         id="path4009-1"
         d="m 30,-35 8,0 0,1 -8,0 z" />
      <path
         style="fill:#de6161;fill-opacity:1;stroke:none;display:inline"
         id="path4009-6"
         d="m 40,-35 12,0 0,1 -12,0 z" />
      <path
         style="fill:#de6161;fill-opacity:1;stroke:none;display:inline"
         id="path4009-7"
         d="m 54,-35 4,0 0,1 -4,0 z" />
      <path
         style="fill:#de6161;fill-opacity:1;stroke:none;display:inline"
         id="path4009-2"
         d="m 61,-35 3,0 0,1 -3,0 z" />
      <path
         style="fill:#89adc2;fill-opacity:1;stroke:none;display:inline"
         id="path4009-3"
         d="m 73,-35 8,0 0,1 -8,0 z" />
      <path
         style="fill:#94d48e;fill-opacity:1;stroke:none;display:inline"
         id="path4009-1-2"
         d="m 30,-39 4,0 0,1 -4,0 z" />
      <path
         style="fill:#d48eb3;fill-opacity:1;stroke:none;display:inline"
         d="m 44,-43 0,1 10.999999,0 0,-1 z m 13.000001,0 0,1 4,0 0,-1 z"
         id="path4061-9-8" />
      <path
         style="fill:#d48eb3;fill-opacity:1;stroke:none;display:inline"
         d="m 30,-43 0,1 12,0 0,-1 z"
         id="path4007-8-0" />
    </g>
  </g>
</svg>
