<?xml version="1.0" encoding="UTF-8" standalone="no"?>
<!-- Created with Inkscape (http://www.inkscape.org/) -->

<svg
   xmlns:dc="http://purl.org/dc/elements/1.1/"
   xmlns:cc="http://creativecommons.org/ns#"
   xmlns:rdf="http://www.w3.org/1999/02/22-rdf-syntax-ns#"
   xmlns:svg="http://www.w3.org/2000/svg"
   xmlns="http://www.w3.org/2000/svg"
   xmlns:xlink="http://www.w3.org/1999/xlink"
   xmlns:sodipodi="http://sodipodi.sourceforge.net/DTD/sodipodi-0.dtd"
   xmlns:inkscape="http://www.inkscape.org/namespaces/inkscape"
   width="128"
   height="128"
   id="svg3172"
   version="1.1"
   inkscape:version="0.48+devel r"
   sodipodi:docname="text-x-csrc.svg">
  <defs
     id="defs3174">
    <linearGradient
       inkscape:collect="always"
       id="linearGradient4118">
      <stop
         style="stop-color:#aaaaaa;stop-opacity:1"
         offset="0"
         id="stop4120" />
      <stop
         style="stop-color:#c8c8c8;stop-opacity:1"
         offset="1"
         id="stop4122" />
    </linearGradient>
    <linearGradient
       inkscape:collect="always"
       xlink:href="#linearGradient3977"
       id="linearGradient3093"
       gradientUnits="userSpaceOnUse"
       gradientTransform="matrix(2.4594595,0,0,3.1081081,4.9729852,-78.594559)"
       x1="23.99999"
       y1="5.5641499"
       x2="23.99999"
       y2="43" />
    <linearGradient
       id="linearGradient3977">
      <stop
         id="stop3979"
         style="stop-color:#ffffff;stop-opacity:1;"
         offset="0" />
      <stop
         offset="0.03626217"
         style="stop-color:#ffffff;stop-opacity:0.23529412;"
         id="stop3981" />
      <stop
         id="stop3983"
         style="stop-color:#ffffff;stop-opacity:0.15686275;"
         offset="0.95056331" />
      <stop
         id="stop3985"
         style="stop-color:#ffffff;stop-opacity:0.39215687;"
         offset="1" />
    </linearGradient>
    <linearGradient
       inkscape:collect="always"
       xlink:href="#linearGradient3600"
       id="linearGradient3096"
       gradientUnits="userSpaceOnUse"
       gradientTransform="matrix(2.6571409,0,0,2.5422194,0.228619,-68.91283)"
       x1="25.132275"
       y1="0.98520643"
       x2="25.132275"
       y2="47.013336" />
    <linearGradient
       id="linearGradient3600">
      <stop
         offset="0"
         style="stop-color:#f4f4f4;stop-opacity:1"
         id="stop3602" />
      <stop
         offset="1"
         style="stop-color:#dbdbdb;stop-opacity:1"
         id="stop3604" />
    </linearGradient>
    <linearGradient
       inkscape:collect="always"
       xlink:href="#linearGradient3104"
       id="linearGradient3098"
       gradientUnits="userSpaceOnUse"
       gradientTransform="matrix(2.1456328,0,0,2.3791386,158.08997,-71.746077)"
       x1="-51.786404"
       y1="50.786446"
       x2="-51.786404"
       y2="2.9062471" />
    <linearGradient
       id="linearGradient3104">
      <stop
         offset="0"
         style="stop-color:#a0a0a0;stop-opacity:1;"
         id="stop3106" />
      <stop
         offset="1"
         style="stop-color:#bebebe;stop-opacity:1;"
         id="stop3108-4" />
    </linearGradient>
    <linearGradient
       inkscape:collect="always"
       xlink:href="#linearGradient3702-501-757-486"
       id="linearGradient3120"
       gradientUnits="userSpaceOnUse"
       x1="25.058096"
       y1="47.027729"
       x2="25.058096"
       y2="39.999443"
       gradientTransform="matrix(3.1428572,0,0,1.2857143,-11.428573,-2.428572)" />
    <linearGradient
       id="linearGradient3702-501-757-486">
      <stop
         offset="0"
         style="stop-color:#181818;stop-opacity:0"
         id="stop3100" />
      <stop
         offset="0.5"
         style="stop-color:#181818;stop-opacity:1"
         id="stop3102" />
      <stop
         offset="1"
         style="stop-color:#181818;stop-opacity:0"
         id="stop3104" />
    </linearGradient>
    <radialGradient
       inkscape:collect="always"
       xlink:href="#linearGradient3688-464-309-255"
       id="radialGradient3123"
       gradientUnits="userSpaceOnUse"
       gradientTransform="matrix(2.4045407,0,0,1.7999999,-32.014243,-131.8)"
       cx="4.9929786"
       cy="43.5"
       fx="4.9929786"
       fy="43.5"
       r="2.5" />
    <linearGradient
       id="linearGradient3688-464-309-255">
      <stop
         offset="0"
         style="stop-color:#181818;stop-opacity:1"
         id="stop3094" />
      <stop
         offset="1"
         style="stop-color:#181818;stop-opacity:0"
         id="stop3096" />
    </linearGradient>
    <linearGradient
       id="linearGradient3688-166-749-737">
      <stop
         offset="0"
         style="stop-color:#181818;stop-opacity:1"
         id="stop3088" />
      <stop
         offset="1"
         style="stop-color:#181818;stop-opacity:0"
         id="stop3090" />
    </linearGradient>
    <radialGradient
       r="2.5"
       fy="43.5"
       fx="4.9929786"
       cy="43.5"
       cx="4.9929786"
       gradientTransform="matrix(2.4045407,0,0,1.7999999,95.985757,-24.799999)"
       gradientUnits="userSpaceOnUse"
       id="radialGradient3170"
       xlink:href="#linearGradient3688-166-749-737"
       inkscape:collect="always" />
    <linearGradient
       id="linearGradient5031">
      <stop
         id="stop5033"
         style="stop-color:#a3a3a3;stop-opacity:1"
         offset="0" />
      <stop
         id="stop5035"
         style="stop-color:#bababa;stop-opacity:1"
         offset="1" />
    </linearGradient>
    <linearGradient
       inkscape:collect="always"
       xlink:href="#linearGradient4118"
       id="linearGradient4124"
       x1="65"
       y1="56"
       x2="65"
       y2="-61"
       gradientUnits="userSpaceOnUse" />
    <linearGradient
       id="linearGradient2867-449-88-871-390-598-476-591-434-148-57-177-8-3">
      <stop
         offset="0"
         style="stop-color:#ffcd7d;stop-opacity:1;"
         id="stop3750-1-0" />
      <stop
         offset="0.26238"
         style="stop-color:#fc8f36;stop-opacity:1;"
         id="stop3752-3-7" />
      <stop
         offset="0.704952"
         style="stop-color:#e23a0e;stop-opacity:1;"
         id="stop3754-1-8" />
      <stop
         offset="1"
         style="stop-color:#ac441f;stop-opacity:1;"
         id="stop3756-1-6" />
    </linearGradient>
    <linearGradient
       id="linearGradient4039">
      <stop
         offset="0"
         style="stop-color:#ba3d12;stop-opacity:1"
         id="stop4041" />
      <stop
         offset="1"
         style="stop-color:#db6737;stop-opacity:1"
         id="stop4043" />
    </linearGradient>
    <linearGradient
       id="linearGradient3977-0-2">
      <stop
         offset="0"
         style="stop-color:#ffffff;stop-opacity:1;"
         id="stop3979-5-6" />
      <stop
         id="stop3981-7-1"
         style="stop-color:#ffffff;stop-opacity:0.23529412;"
         offset="0.03626217" />
      <stop
         offset="0.82758623"
         style="stop-color:#ffffff;stop-opacity:0.15686275;"
         id="stop3983-6-1" />
      <stop
         offset="1"
         style="stop-color:#ffffff;stop-opacity:0.39215687;"
         id="stop3985-4-7" />
    </linearGradient>
    <linearGradient
       id="linearGradient4598">
      <stop
         id="stop4600"
         style="stop-color:#ffffff;stop-opacity:1;"
         offset="0" />
      <stop
         offset="0.17647059"
         style="stop-color:#ffffff;stop-opacity:0.23529412;"
         id="stop4602" />
      <stop
         id="stop4604"
         style="stop-color:#ffffff;stop-opacity:0.15686275;"
         offset="0.82352948" />
      <stop
         id="stop4606"
         style="stop-color:#ffffff;stop-opacity:0.39215687;"
         offset="1" />
    </linearGradient>
    <radialGradient
       inkscape:collect="always"
       xlink:href="#linearGradient5060"
       id="radialGradient4237"
       cx="48.45454"
       cy="1018.2387"
       fx="48.45454"
       fy="1018.2387"
       r="21.194542"
       gradientTransform="matrix(1,0,0,0.35935905,0,652.32544)"
       gradientUnits="userSpaceOnUse" />
    <linearGradient
       id="linearGradient5060">
      <stop
         id="stop5062"
         style="stop-color:#000000;stop-opacity:1"
         offset="0" />
      <stop
         id="stop5064"
         style="stop-color:#000000;stop-opacity:0"
         offset="1" />
    </linearGradient>
    <radialGradient
       inkscape:collect="always"
       xlink:href="#linearGradient2867-449-88-871-390-598-476-591-434-148-57-177"
       id="radialGradient3167"
       gradientUnits="userSpaceOnUse"
       gradientTransform="matrix(-2.4533111e-7,10.034807,-12.279538,-3.0121785e-7,158.76196,863.98701)"
       cx="7.8060555"
       cy="9.9571075"
       fx="7.2758255"
       fy="9.9571075"
       r="12.671875" />
    <linearGradient
       id="linearGradient2867-449-88-871-390-598-476-591-434-148-57-177">
      <stop
         offset="0"
         style="stop-color:#90dbec;stop-opacity:1;"
         id="stop3750" />
      <stop
         offset="0.39060768"
         style="stop-color:#55c1ec;stop-opacity:1;"
         id="stop3752" />
      <stop
         offset="0.84839314"
         style="stop-color:#3689e6;stop-opacity:1;"
         id="stop3754" />
      <stop
         offset="1"
         style="stop-color:#2b63a0;stop-opacity:1;"
         id="stop3756" />
    </linearGradient>
    <linearGradient
       inkscape:collect="always"
       xlink:href="#linearGradient3707-319-631-407-324"
       id="linearGradient3169"
       gradientUnits="userSpaceOnUse"
       x1="25"
       y1="51.067951"
       x2="25"
       y2="11.579654"
       gradientTransform="matrix(1.5174516,0,0,1.5199956,0.09072894,955.29692)" />
    <linearGradient
       id="linearGradient3707-319-631-407-324">
      <stop
         offset="0"
         style="stop-color:#185f9a;stop-opacity:1;"
         id="stop3760" />
      <stop
         offset="1"
         style="stop-color:#599ec9;stop-opacity:1;"
         id="stop3762" />
    </linearGradient>
    <linearGradient
       inkscape:collect="always"
       xlink:href="#linearGradient3830"
       id="linearGradient4233"
       gradientUnits="userSpaceOnUse"
       gradientTransform="matrix(1.5920802,0,0,1.5779233,-2.234573,953.50839)"
       x1="33.426144"
       y1="46.206909"
       x2="33.426144"
       y2="22.593197" />
    <linearGradient
       id="linearGradient3830">
      <stop
         id="stop3832"
         style="stop-color:#ffffff;stop-opacity:1"
         offset="0" />
      <stop
         id="stop3834"
         style="stop-color:#ffffff;stop-opacity:0"
         offset="1" />
    </linearGradient>
    <linearGradient
       inkscape:collect="always"
       xlink:href="#linearGradient3830"
       id="linearGradient4199"
       gradientUnits="userSpaceOnUse"
       gradientTransform="matrix(1.5920802,0,0,1.5779233,-2.234573,953.50839)"
       x1="30.924681"
       y1="18.28594"
       x2="30.924681"
       y2="36.030781" />
  </defs>
  <sodipodi:namedview
     id="base"
     pagecolor="#ffffff"
     bordercolor="#666666"
     borderopacity="1.0"
     inkscape:pageopacity="0.0"
     inkscape:pageshadow="2"
     inkscape:zoom="4"
     inkscape:cx="44.415305"
     inkscape:cy="65.05172"
     inkscape:current-layer="layer1"
     showgrid="true"
     inkscape:document-units="px"
     inkscape:grid-bbox="true"
     inkscape:window-width="1535"
     inkscape:window-height="876"
     inkscape:window-x="65"
     inkscape:window-y="24"
     inkscape:window-maximized="1"
     inkscape:snap-global="true">
    <inkscape:grid
       type="xygrid"
       id="grid4117" />
  </sodipodi:namedview>
  <metadata
     id="metadata3177">
    <rdf:RDF>
      <cc:Work
         rdf:about="">
        <dc:format>image/svg+xml</dc:format>
        <dc:type
           rdf:resource="http://purl.org/dc/dcmitype/StillImage" />
        <dc:title></dc:title>
      </cc:Work>
    </rdf:RDF>
  </metadata>
  <g
     id="layer1"
     inkscape:label="Layer 1"
     inkscape:groupmode="layer"
     transform="translate(0,64)">
    <rect
       style="opacity:0.4;fill:url(#radialGradient3170);fill-opacity:1;stroke:none"
       id="rect2801"
       y="49"
       x="108"
       height="8.999999"
       width="6" />
    <rect
       style="opacity:0.4;fill:url(#radialGradient3123);fill-opacity:1;stroke:none"
       id="rect3696"
       transform="scale(-1,-1)"
       y="-58"
       x="-20"
       height="8.999999"
       width="6" />
    <rect
       style="opacity:0.4;fill:url(#linearGradient3120);fill-opacity:1;stroke:none"
       id="rect3700"
       y="49"
       x="20"
       height="9"
       width="88" />
    <path
       inkscape:connector-curvature="0"
       style="fill:url(#linearGradient3096);fill-opacity:1;stroke:url(#linearGradient3098);stroke-width:0.99992186;stroke-linecap:butt;stroke-linejoin:round;stroke-miterlimit:4;stroke-opacity:1;stroke-dasharray:none;stroke-dashoffset:0;display:inline"
       id="path4160"
       d="m 17.499929,-62.499588 c 21.311061,0 93.000031,0.007 93.000031,0.007 l 1.1e-4,116.992628 c 0,0 -62.0001,0 -93.00014,0 0,-39.000029 0,-78.000054 0,-117.000079 z"
       sodipodi:nodetypes="ccccc" />
    <path
       style="fill:none;stroke:url(#linearGradient3093);stroke-width:1;stroke-linecap:round;stroke-linejoin:round;stroke-miterlimit:4;stroke-opacity:1;stroke-dasharray:none;stroke-dashoffset:0"
       d="m 109.5,53.5 -91,0 0,-115.000003 91,0 z"
       id="rect6741-1"
       inkscape:connector-curvature="0"
       sodipodi:nodetypes="ccccc" />
    <g
       id="g4390"
       transform="translate(0,-1)"
       style="fill-opacity:1;fill:url(#linearGradient4124)">
      <path
         sodipodi:nodetypes="ccccccccccccccccccccccccccccccccccccccccccccccccccccccccccccccccccccccccccccccccccccccccccccccccccccccccccccccccccccccccccccccccccccccccccccccccccccccccccccccccccccccccccccccccccccccccccccccccccccccccccccc"
         id="path4149"
         d="m 30,-19 0,1 7,0 0,-1 z m 9,0 0,1 4,0 0,-1 z m 6,0 0,1 4,0 0,-1 z m 5.999999,0 0,1 2,0 0,-1 z m 4,0 0,1 3,0 0,-1 z m 5.000002,0 0,1 L 73,-18 73,-19 Z M 30,-15 l 0,1 9,0 0,-1 z m 11,0 0,1 5,0 0,-1 z m 7,0 0,1 1.999999,0 0,-1 z m 2.999999,0 0,1 3,0 0,-1 z m 5,0 0,1 3.000002,0 0,-1 z m 5.000002,0 0,1 L 69,-14 69,-15 Z M 71,-15 l 0,1 9,0 0,-1 z m -41,4 0,1 10,0 0,-1 z m 12,0 0,1 11.999999,0 0,-1 z m -12,4.0000006 0,1 5,0 0,-1 z m 7,0 0,1 6,0 0,-1 z m 8,0 0,1 4,0 0,-1 z m 9.999999,7.99999849 0,1.00000131 4.000002,0 0,-1.00000131 z m 6.000002,0 0,1.00000131 3.999999,0 0,-1.00000131 z m 5.999999,0 0,1.00000131 6,0 0,-1.00000131 z m 8,0 0,1.00000131 1,0 0,-1.00000131 z M 53.999999,13 l 0,1 6.000002,0 0,-1 z m 8,0 0,1 L 67,14 67,13 Z M 69,13 l 0,1 4,0 0,-1 z m -15.000001,4 0,1 5.039494,0 0,-1 z m 7.000002,0 0,1 L 73,18 73,17 Z M 75,17 l 0,1 10,0 0,-1 z m -21.000001,4 0,1 6.000002,0 0,-1 z m 8,0 0,1 L 73,22 73,21 Z m 13,0 0,1 7,0 0,-1 z m -21,4 0,1 5.000002,0 0,-1 z m 7.000002,0 0,1 L 65,26 65,25 Z M 67,25 l 0,1 6,0 0,-1 z m 8.045454,0 0,1 L 77,26 77,25 Z M 79,25 l 0,1 8,0 0,-1 z m -25.000001,12 0,1 7.000002,0 0,-1 z m 9.000002,0 0,1 L 67,38 67,37 Z m 5.666665,0 0,1 5.333333,0 0,-1 z M 76,37 l 0,1 7,0 0,-1 z m 9,0 0,1 12.999998,0 0,-1 z"
         style="fill:url(#linearGradient4124);fill-opacity:1;stroke:none;display:inline"
         inkscape:connector-curvature="0" />
      <path
         sodipodi:nodetypes="cccccccccc"
         id="path4063"
         d="m 30,-2.9999995 3e-6,1 7.999999,0 -2e-6,-1 z m 3e-6,3.9999999 0,1 7.999997,0 0,-1 z"
         style="fill:url(#linearGradient4124);fill-opacity:1;stroke:none;display:inline"
         inkscape:connector-curvature="0" />
      <path
         sodipodi:nodetypes="cccccccccccccccccccccccccccccccccccccccccccccccccccccccccccccccccccccccccccccccc"
         id="path4061"
         d="m 40,-2.9999995 0,1 14.000002,0 -3e-6,-1 z m 0,3.9999999 0,1 12.999999,0 0,-1 z M 44,29 l 0,1 10.999999,0 0,-1 z m 13.000001,0 0,1 4,0 0,-1 z m 6,0 0,1 L 72,30 72,29 Z m 11.000001,0 0,1 7.999999,0 0,-1 z M 84,29 l 0,1 2.000001,0 0,-1 z m 4,0 0,1 1,0 0,-1 z m 3,0 0,1 5,0 0,-1 z m -43,4 0,1 1.999999,0 0,-1 z m 2.999999,0 0,1 3.000003,0 0,-1 z m 5,0 0,1 3.000002,0 0,-1 z m 5.000002,0 0,1 L 67,34 67,33 Z M 69,33 l 0,1 8,0 0,-1 z m 10,0 0,1 6,0 0,-1 z m 8,0 0,1 1,0 0,-1 z"
         style="fill:url(#linearGradient4124);fill-opacity:1;stroke:none;display:inline"
         inkscape:connector-curvature="0" />
      <path
         sodipodi:nodetypes="ccccc"
         d="m 30,37 8,0 0,1 -8,0 z"
         id="path4009"
         style="fill:url(#linearGradient4124);fill-opacity:1;stroke:none;display:inline"
         inkscape:connector-curvature="0" />
      <path
         sodipodi:nodetypes="cccccccccccccccccccccccccccccccccccccccccccccccccc"
         id="path4007"
         d="m 39,5.0000003 0,1 5,0 0,-1 z M 30,9.0000002 30,10 33,10 33,9.0000002 Z M 39,13 l 0,1 4,0 0,-1 z m 1,4 0,1 6,0 0,-1 z m -1,4 0,1 4,0 0,-1 z m -2,4 0,1 5,0 0,-1 z m -7,4 0,1 12,0 0,-1 z m 0,4 0,1 9,0 0,-1 z m 11,0 0,1 5,0 0,-1 z m -1,4 0,1 9,0 0,-1 z"
         style="fill:url(#linearGradient4124);fill-opacity:1;stroke:none;display:inline"
         inkscape:connector-curvature="0" />
      <path
         sodipodi:nodetypes="ccccccccccccccccccccccccc"
         id="path5302"
         d="m 30,5.0000003 0,1 7,0 0,-1 z M 30,13 l 0,1 7,0 0,-1 z m 0,4 0,1 8,0 0,-1 z m 0,4 0,1 7,0 0,-1 z m 0,4 0,1 5,0 0,-1 z"
         style="fill:url(#linearGradient4124);fill-opacity:1;stroke:none;display:inline"
         inkscape:connector-curvature="0" />
      <path
         sodipodi:nodetypes="cccccccccccccccccccccccccccccccccccccccccccccccccccccccccccccccccccccc"
         id="path4061-9"
         d="m 44,-27 0,1 10.999999,0 0,-1 z m 13.000001,0 0,1 4,0 0,-1 z m 6,0 0,1 L 72,-26 72,-27 Z M 74,-27 l 0,1 8,0 0,-1 z m 10,0 0,1 2,0 0,-1 z m 4,0 0,1 1,0 0,-1 z m 3,0 0,1 4.999997,0 0,-1 z m -43,4 0,1 1.999999,0 0,-1 z m 2.999999,0 0,1 3.000003,0 0,-1 z m 5,0 0,1 3.000002,0 0,-1 z m 5.000002,0 0,1 L 67,-22 67,-23 Z M 69,-23 l 0,1 8,0 0,-1 z m 10,0 0,1 6,0 0,-1 z m 8,0 0,1 1,0 0,-1 z"
         style="fill:url(#linearGradient4124);fill-opacity:1;stroke:none;display:inline"
         inkscape:connector-curvature="0" />
      <path
         sodipodi:nodetypes="ccccccccccccccc"
         id="path4007-8"
         d="m 30,-27 0,1 12,0 0,-1 z m 0,4 0,1 9,0 0,-1 z m 11,0 0,1 5,0 0,-1 z"
         style="fill:url(#linearGradient4124);fill-opacity:1;stroke:none;display:inline"
         inkscape:connector-curvature="0" />
      <path
         sodipodi:nodetypes="ccccccccccccccccccccccccc"
         id="path4149-1"
         d="m 30,-31 0,1 7.000002,0 0,-1 z m 9.000002,0 0,1 3.999999,0 0,-1 z m 5.666665,0 0,1 5.333333,0 0,-1 z m 7.333334,0 0,1 7,0 0,-1 z m 9,0 0,1 12.999998,0 0,-1 z"
         style="fill:url(#linearGradient4124);fill-opacity:1;stroke:none;display:inline"
         inkscape:connector-curvature="0" />
      <path
         sodipodi:nodetypes="ccccc"
         d="m 30,-35 8,0 0,1 -8,0 z"
         id="path4009-1"
         style="fill:url(#linearGradient4124);fill-opacity:1;stroke:none;display:inline"
         inkscape:connector-curvature="0" />
      <path
         sodipodi:nodetypes="ccccc"
         d="m 40,-35 12,0 0,1 -12,0 z"
         id="path4009-6"
         style="fill:url(#linearGradient4124);fill-opacity:1;stroke:none;display:inline"
         inkscape:connector-curvature="0" />
      <path
         sodipodi:nodetypes="ccccc"
         d="m 54,-35 4,0 0,1 -4,0 z"
         id="path4009-7"
         style="fill:url(#linearGradient4124);fill-opacity:1;stroke:none;display:inline"
         inkscape:connector-curvature="0" />
      <path
         sodipodi:nodetypes="ccccc"
         d="m 61,-35 3,0 0,1 -3,0 z"
         id="path4009-2"
         style="fill:url(#linearGradient4124);fill-opacity:1;stroke:none;display:inline"
         inkscape:connector-curvature="0" />
      <path
         sodipodi:nodetypes="ccccc"
         d="m 73,-35 8,0 0,1 -8,0 z"
         id="path4009-3"
         style="fill:url(#linearGradient4124);fill-opacity:1;stroke:none;display:inline"
         inkscape:connector-curvature="0" />
      <path
         sodipodi:nodetypes="ccccc"
         d="m 30,-39 4,0 0,1 -4,0 z"
         id="path4009-1-2"
         style="fill:url(#linearGradient4124);fill-opacity:1;stroke:none;display:inline"
         inkscape:connector-curvature="0" />
      <path
         sodipodi:nodetypes="cccccccccc"
         id="path4061-9-8"
         d="m 44,-43 0,1 10.999999,0 0,-1 z m 13.000001,0 0,1 4,0 0,-1 z"
         style="fill:url(#linearGradient4124);fill-opacity:1;stroke:none;display:inline"
         inkscape:connector-curvature="0" />
      <path
         sodipodi:nodetypes="ccccc"
         id="path4007-8-0"
         d="m 30,-43 0,1 12,0 0,-1 z"
         style="fill:url(#linearGradient4124);fill-opacity:1;stroke:none;display:inline"
         inkscape:connector-curvature="0" />
    </g>
    <g
       transform="matrix(1.3379686,0,0,1.3418991,-0.2130239,-1347.3512)"
       id="g4177">
      <path
         d="m 69.649081,1018.2387 c 0.0023,4.2063 -9.48747,7.6165 -21.194539,7.6165 -11.707069,0 -21.196869,-3.4102 -21.194542,-7.6165 -0.0023,-4.206 9.487473,-7.6164 21.194542,-7.6164 11.707069,0 21.196871,3.4104 21.194539,7.6164 z"
         id="path2917"
         style="opacity:0.3;fill:url(#radialGradient4237);fill-opacity:1;stroke:none;display:inline"
         inkscape:connector-curvature="0" />
      <g
         id="g4172">
        <path
           inkscape:connector-curvature="0"
           style="fill:url(#radialGradient3167);fill-opacity:1;fill-rule:nonzero;stroke:url(#linearGradient3169);stroke-width:0.74630618;stroke-linecap:square;stroke-linejoin:round;stroke-miterlimit:4;stroke-opacity:1;stroke-dasharray:none;stroke-dashoffset:0;marker:none;visibility:visible;display:inline;overflow:visible;enable-background:accumulate"
           id="path3737"
           d="m 48.649178,982.82971 c -10.470415,0 -18.968142,8.51198 -18.968144,18.99999 0,10.4879 8.497727,19 18.968144,19 7.777605,0 15.080766,-5.1453 17.438125,-11.9228 l -8.431866,0 c -2.020406,2.661 -5.305159,4.4712 -9.006259,4.4712 -6.469101,0 -11.380886,-5.2552 -11.380886,-11.5479 -3e-6,-6.29283 4.537697,-11.32791 11.380886,-11.54919 4.683911,-0.15146 8.143426,2.81121 10.207976,6.70244 l 7.341879,0 c -0.701638,-7.09052 -9.200925,-14.15374 -17.549855,-14.15374 z"
           sodipodi:nodetypes="sssccsssccs" />
        <path
           inkscape:connector-curvature="0"
           style="opacity:0.5;fill:none;stroke:url(#linearGradient4199);stroke-width:0.74630624;stroke-linecap:square;stroke-linejoin:miter;stroke-miterlimit:4;stroke-opacity:1;stroke-dasharray:none;stroke-dashoffset:0;marker:none;visibility:visible;display:inline;overflow:visible;enable-background:accumulate"
           id="path3838"
           d="m 65.274345,996.06833 c -1.581531,-7.31461 -9.90083,-12.45213 -16.562352,-12.50402 -7.083664,-0.0982 -13.932395,4.25867 -16.693036,10.71935 -2.937927,6.48054 -1.513316,14.90394 3.506424,19.98824 3.407527,3.6379 8.411977,5.6296 13.383703,5.5897"
           sodipodi:nodetypes="ccccc" />
        <path
           inkscape:connector-curvature="0"
           style="opacity:0.5;fill:none;stroke:url(#linearGradient4233);stroke-width:0.74630624;stroke-linecap:square;stroke-linejoin:miter;stroke-miterlimit:4;stroke-opacity:1;stroke-dasharray:none;stroke-dashoffset:0;marker:none;visibility:visible;display:inline;overflow:visible;enable-background:accumulate"
           id="path3845"
           d="m 48.010405,989.49914 c -6.468311,0.55734 -10.478696,5.14001 -11.412906,10.36284 -0.716856,6.21032 2.445735,11.61782 7.97851,13.54172 4.586771,1.6944 10.143529,0.347 13.514893,-3.7384 l 6.804325,0.031"
           sodipodi:nodetypes="ccccc" />
      </g>
    </g>
  </g>
</svg>
