<?xml version="1.0" encoding="UTF-8" standalone="no"?>
<svg
   xmlns:dc="http://purl.org/dc/elements/1.1/"
   xmlns:cc="http://creativecommons.org/ns#"
   xmlns:rdf="http://www.w3.org/1999/02/22-rdf-syntax-ns#"
   xmlns:svg="http://www.w3.org/2000/svg"
   xmlns="http://www.w3.org/2000/svg"
   xmlns:xlink="http://www.w3.org/1999/xlink"
   version="1.1"
   id="svg3172"
   height="128"
   width="128">
  <defs
     id="defs3174">
    <linearGradient
       y2="43"
       x2="23.99999"
       y1="5.5641499"
       x1="23.99999"
       gradientTransform="matrix(2.4594595,0,0,3.1081081,4.9729852,-78.594559)"
       gradientUnits="userSpaceOnUse"
       id="linearGradient3093"
       xlink:href="#linearGradient3977" />
    <linearGradient
       id="linearGradient3977">
      <stop
         offset="0"
         style="stop-color:#ffffff;stop-opacity:1;"
         id="stop3979" />
      <stop
         id="stop3981"
         style="stop-color:#ffffff;stop-opacity:0.23529412;"
         offset="0.03626217" />
      <stop
         offset="0.95056331"
         style="stop-color:#ffffff;stop-opacity:0.15686275;"
         id="stop3983" />
      <stop
         offset="1"
         style="stop-color:#ffffff;stop-opacity:0.39215687;"
         id="stop3985" />
    </linearGradient>
    <linearGradient
       y2="47.013336"
       x2="25.132275"
       y1="0.98520643"
       x1="25.132275"
       gradientTransform="matrix(2.6571409,0,0,2.5422194,0.228619,-68.91283)"
       gradientUnits="userSpaceOnUse"
       id="linearGradient3096"
       xlink:href="#linearGradient3600" />
    <linearGradient
       id="linearGradient3600">
      <stop
         id="stop3602"
         style="stop-color:#f4f4f4;stop-opacity:1"
         offset="0" />
      <stop
         id="stop3604"
         style="stop-color:#dbdbdb;stop-opacity:1"
         offset="1" />
    </linearGradient>
    <linearGradient
       y2="2.9062471"
       x2="-51.786404"
       y1="50.786446"
       x1="-51.786404"
       gradientTransform="matrix(2.1456328,0,0,2.3791386,158.08997,-71.746077)"
       gradientUnits="userSpaceOnUse"
       id="linearGradient3098"
       xlink:href="#linearGradient3104" />
    <linearGradient
       id="linearGradient3104">
      <stop
         id="stop3106"
         style="stop-color:#a0a0a0;stop-opacity:1;"
         offset="0" />
      <stop
         id="stop3108-4"
         style="stop-color:#bebebe;stop-opacity:1;"
         offset="1" />
    </linearGradient>
    <linearGradient
       gradientTransform="matrix(3.1428572,0,0,1.2857143,-11.428573,-2.428572)"
       y2="39.999443"
       x2="25.058096"
       y1="47.027729"
       x1="25.058096"
       gradientUnits="userSpaceOnUse"
       id="linearGradient3120"
       xlink:href="#linearGradient3702-501-757-486" />
    <linearGradient
       id="linearGradient3702-501-757-486">
      <stop
         id="stop3100"
         style="stop-color:#181818;stop-opacity:0"
         offset="0" />
      <stop
         id="stop3102"
         style="stop-color:#181818;stop-opacity:1"
         offset="0.5" />
      <stop
         id="stop3104"
         style="stop-color:#181818;stop-opacity:0"
         offset="1" />
    </linearGradient>
    <radialGradient
       r="2.5"
       fy="43.5"
       fx="4.9929786"
       cy="43.5"
       cx="4.9929786"
       gradientTransform="matrix(2.4045407,0,0,1.7999999,-32.014243,-131.8)"
       gradientUnits="userSpaceOnUse"
       id="radialGradient3123"
       xlink:href="#linearGradient3688-464-309-255" />
    <linearGradient
       id="linearGradient3688-464-309-255">
      <stop
         id="stop3094"
         style="stop-color:#181818;stop-opacity:1"
         offset="0" />
      <stop
         id="stop3096"
         style="stop-color:#181818;stop-opacity:0"
         offset="1" />
    </linearGradient>
    <linearGradient
       id="linearGradient3688-166-749-737">
      <stop
         id="stop3088"
         style="stop-color:#181818;stop-opacity:1"
         offset="0" />
      <stop
         id="stop3090"
         style="stop-color:#181818;stop-opacity:0"
         offset="1" />
    </linearGradient>
    <radialGradient
       xlink:href="#linearGradient3688-166-749-737"
       id="radialGradient3170"
       gradientUnits="userSpaceOnUse"
       gradientTransform="matrix(2.4045407,0,0,1.7999999,95.985757,-24.799999)"
       cx="4.9929786"
       cy="43.5"
       fx="4.9929786"
       fy="43.5"
       r="2.5" />
  </defs>
  <metadata
     id="metadata3177">
    <rdf:RDF>
      <cc:Work
         rdf:about="">
        <dc:format>image/svg+xml</dc:format>
        <dc:type
           rdf:resource="http://purl.org/dc/dcmitype/StillImage" />
        <dc:title />
      </cc:Work>
    </rdf:RDF>
  </metadata>
  <g
     transform="translate(0,64)"
     id="layer1">
    <rect
       width="6"
       height="8.999999"
       x="108"
       y="49"
       id="rect2801"
       style="opacity:0.4;fill:url(#radialGradient3170);fill-opacity:1;stroke:none" />
    <rect
       width="6"
       height="8.999999"
       x="-20"
       y="-58"
       transform="scale(-1,-1)"
       id="rect3696"
       style="opacity:0.4;fill:url(#radialGradient3123);fill-opacity:1;stroke:none" />
    <rect
       width="88"
       height="9"
       x="20"
       y="49"
       id="rect3700"
       style="opacity:0.4;fill:url(#linearGradient3120);fill-opacity:1;stroke:none" />
    <path
       d="m 17.499929,-62.499588 c 21.311061,0 93.000031,0.007 93.000031,0.007 l 1.1e-4,116.992628 c 0,0 -62.0001,0 -93.00014,0 0,-39.000029 0,-78.000054 0,-117.000079 z"
       id="path4160"
       style="fill:url(#linearGradient3096);fill-opacity:1;stroke:url(#linearGradient3098);stroke-width:0.99992186;stroke-linecap:butt;stroke-linejoin:round;stroke-miterlimit:4;stroke-opacity:1;stroke-dasharray:none;stroke-dashoffset:0;display:inline" />
    <path
       id="rect6741-1"
       d="m 109.5,53.5 -91,0 0,-115.000003 91,0 z"
       style="fill:none;stroke:url(#linearGradient3093);stroke-width:1;stroke-linecap:round;stroke-linejoin:round;stroke-miterlimit:4;stroke-opacity:1;stroke-dasharray:none;stroke-dashoffset:0" />
    <g
       transform="matrix(1.3125,0,0,1.3125,1.0000011,-1312.1004)"
       id="g4098">
      <path
         d="m 49.820875,1009.9273 c -0.132161,-4.7174 0.924749,-9.2972 5.381739,-12.54121 4.70772,-3.66861 9.241631,-8.25878 8.762492,-13.66941 -0.104621,-5.21827 -6.184482,-9.30716 -12.735092,-9.89499 -7.368373,-1.02075 -16.284057,1.50337 -18.75315,7.25778 -1.252267,2.79875 -0.091,7.81996 4.11159,7.81996 2.458104,0 3.587126,-1.58775 3.772604,-3.04033 0.140339,-1.09898 -0.310868,-2.08039 -0.577332,-2.98822 -0.303619,-1.03449 0.992508,-3.03928 2.404169,-3.85606 1.179604,-0.68242 2.413771,-0.91138 2.595694,-0.95504 4.23629,-1.01814 8.459261,1.23074 10.221159,3.96793 1.7619,2.73704 -0.177421,6.88854 -2.96571,10.92605 -2.788294,4.03736 -5.78063,8.62274 -5.768676,13.49344 0,1.8543 -0.16522,2.4841 -0.04782,3.2344 0.09378,0.5994 2.078452,0.5268 3.598339,0.2457 z m -1.93331,6.3497 c -4.050563,-0.22 -6.854115,4.3721 -4.420736,7.2976 2.173121,3.2302 8.266052,2.4328 9.310378,-1.225 1.085723,-2.8446 -1.527083,-6.1201 -4.88964,-6.0726 l -2e-6,0 z"
         id="path9053"
         style="font-size:72px;font-style:normal;font-weight:bold;opacity:0.4;fill:#000000;fill-opacity:1;stroke:none;font-family:Standard Symbols L" />
      <path
         d="m 49.820875,1010.6893 c -0.132161,-4.7174 0.924749,-9.2973 5.381739,-12.54128 4.70772,-3.66861 9.241631,-8.25879 8.762492,-13.66942 -0.104621,-5.21827 -6.184482,-9.30717 -12.735092,-9.895 -7.368373,-1.02075 -16.284057,1.50336 -18.75315,7.25778 -1.252267,2.79875 -0.091,7.81997 4.11159,7.81997 2.458104,0 3.587126,-1.58776 3.772604,-3.04036 0.140339,-1.09896 -0.310868,-2.08037 -0.577332,-2.98819 -0.303619,-1.03449 0.992508,-3.03929 2.404169,-3.85608 1.179604,-0.6824 2.413771,-0.91137 2.595694,-0.95503 4.23629,-1.01813 8.459261,1.23074 10.221159,3.96794 1.7619,2.73703 -0.177421,6.88854 -2.96571,10.9259 -2.788294,4.03752 -5.78063,8.62287 -5.768676,13.49347 0,1.8545 -0.16522,2.4842 -0.04782,3.2345 0.09378,0.5994 2.078452,0.5269 3.598339,0.2458 z m -1.93331,6.3497 c -4.050563,-0.22 -6.854115,4.372 -4.420736,7.2975 2.173121,3.2302 8.266052,2.4328 9.310378,-1.225 1.085723,-2.8445 -1.527083,-6.12 -4.88964,-6.0725 l -2e-6,0 z"
         id="path3298"
         style="font-size:72px;font-style:normal;font-weight:bold;opacity:0.4;fill:#ffffff;fill-opacity:1;stroke:none;font-family:Standard Symbols L" />
    </g>
  </g>
</svg>
