<?xml version="1.0" encoding="UTF-8" standalone="no"?>
<svg
   id="svg11300"
   height="64"
   width="64"
   version="1.0"
   viewBox="0 0 64 64"
   sodipodi:docname="blueman-device.svg"
   inkscape:version="1.1.1 (3bf5ae0d25, 2021-09-20)"
   xmlns:inkscape="http://www.inkscape.org/namespaces/inkscape"
   xmlns:sodipodi="http://sodipodi.sourceforge.net/DTD/sodipodi-0.dtd"
   xmlns:xlink="http://www.w3.org/1999/xlink"
   xmlns="http://www.w3.org/2000/svg"
   xmlns:svg="http://www.w3.org/2000/svg"
   xmlns:rdf="http://www.w3.org/1999/02/22-rdf-syntax-ns#"
   xmlns:cc="http://creativecommons.org/ns#"
   xmlns:dc="http://purl.org/dc/elements/1.1/">
  <sodipodi:namedview
     id="namedview38"
     pagecolor="#ffffff"
     bordercolor="#666666"
     borderopacity="1.0"
     inkscape:pageshadow="2"
     inkscape:pageopacity="0.0"
     inkscape:pagecheckerboard="0"
     showgrid="false"
     inkscape:zoom="10.65625"
     inkscape:cx="33.173021"
     inkscape:cy="45.794721"
     inkscape:window-width="1317"
     inkscape:window-height="890"
     inkscape:window-x="285"
     inkscape:window-y="502"
     inkscape:window-maximized="0"
     inkscape:current-layer="svg11300" />
  <metadata
     id="metadata49">
    <rdf:RDF>
      <cc:Work
         rdf:about="">
        <dc:format>image/svg+xml</dc:format>
        <dc:type
           rdf:resource="http://purl.org/dc/dcmitype/StillImage" />
      </cc:Work>
    </rdf:RDF>
  </metadata>
  <defs
     id="defs3">
    <linearGradient
       id="linearGradient4614">
      <stop
         id="stop4606"
         style="stop-color:#ffffff;stop-opacity:1"
         offset="0" />
      <stop
         id="stop4608"
         style="stop-color:#ffffff;stop-opacity:0.23529412"
         offset="0" />
      <stop
         id="stop4610"
         style="stop-color:#ffffff;stop-opacity:0.15686275"
         offset="0.9812181" />
      <stop
         id="stop4612"
         style="stop-color:#ffffff;stop-opacity:0.39215687"
         offset="1" />
    </linearGradient>
    <linearGradient
       id="linearGradient3742">
      <stop
         offset="0"
         style="stop-color:#ffffff;stop-opacity:0.30000001"
         id="stop3734" />
      <stop
         offset="0.01900466"
         style="stop-color:#ffffff;stop-opacity:0.23529412"
         id="stop3736" />
      <stop
         offset="0.9812181"
         style="stop-color:#ffffff;stop-opacity:0.15686275"
         id="stop3738" />
      <stop
         offset="1"
         style="stop-color:#ffffff;stop-opacity:0.2"
         id="stop3740" />
    </linearGradient>
    <radialGradient
       id="radialGradient7374"
       gradientUnits="userSpaceOnUse"
       cy="41.636002"
       cx="23.334999"
       gradientTransform="matrix(0.61871386,0,0,0.14061988,17.56277,53.961714)"
       r="22.627001">
      <stop
         id="stop23421"
         offset="0" />
      <stop
         id="stop23423"
         style="stop-opacity:0"
         offset="1" />
    </radialGradient>
    <linearGradient
       gradientTransform="matrix(1.2762407,0,0,1.0874576,23.536763,-0.81767723)"
       gradientUnits="userSpaceOnUse"
       xlink:href="#linearGradient878"
       id="linearGradient5466-8-3"
       y2="45.68882"
       x2="11.098394"
       y1="5.9702148"
       x1="11.098394" />
    <linearGradient
       xlink:href="#linearGradient3742"
       id="linearGradient3730"
       gradientUnits="userSpaceOnUse"
       gradientTransform="matrix(0.81791996,0,0,1.4890166,-54.31544,0.6569973)"
       x1="118.57409"
       y1="3.7037382"
       x2="118.57409"
       y2="31.67935" />
    <linearGradient
       xlink:href="#linearGradient4614"
       id="linearGradient4604"
       gradientUnits="userSpaceOnUse"
       gradientTransform="matrix(0.81288992,0,0,1.4490643,-53.78462,-4.0592618)"
       x1="116.7913"
       y1="-37.80846"
       x2="116.7913"
       y2="-26.979191" />
    <linearGradient
       id="linearGradient7056">
      <stop
         offset="0"
         style="stop-color:#e6e6e6;stop-opacity:1"
         id="stop7064" />
      <stop
         offset="1"
         style="stop-color:#c8c8c8;stop-opacity:1"
         id="stop7060" />
    </linearGradient>
    <linearGradient
       gradientTransform="matrix(1.2666667,0,0,1.2666667,1.6,-4.1333342)"
       xlink:href="#linearGradient7056"
       id="linearGradient4763"
       x1="25"
       y1="-35"
       x2="25"
       y2="-44.395805"
       gradientUnits="userSpaceOnUse" />
    <linearGradient
       id="linearGradient878">
      <stop
         id="stop874"
         offset="0"
         style="stop-color:#64baff;stop-opacity:1" />
      <stop
         id="stop876"
         offset="1"
         style="stop-color:#3689e6;stop-opacity:1" />
    </linearGradient>
  </defs>
  <path
     id="path23417"
     style="opacity:0.3;fill:url(#radialGradient7374);fill-rule:evenodd;stroke-width:1"
     d="m 46,59.816784 a 14.000001,3.1818183 0 1 1 -28.000001,0 14.000001,3.1818183 0 1 1 28.000001,0 z" />
  <rect
     id="rect3448"
     style="fill:url(#linearGradient4763);fill-opacity:1;stroke:#000000;stroke-width:1;stroke-opacity:0.293023"
     transform="scale(1,-1)"
     rx="1.0000001"
     ry="1.0000001"
     height="19"
     width="19"
     y="-60.500004"
     x="22.5" />
  <path
     style="opacity:0.1;fill:none;fill-rule:evenodd;stroke:#000000;stroke-width:3;stroke-linecap:butt;stroke-linejoin:miter;stroke-miterlimit:4;stroke-dasharray:none;stroke-opacity:1"
     d="M 23,49.5 H 41"
     id="path4538" />
  <path
     style="opacity:0.35;fill:#000000;fill-opacity:0.335988;stroke:#000000;stroke-width:1;stroke-linecap:butt;stroke-linejoin:round;stroke-miterlimit:4;stroke-dasharray:none;stroke-dashoffset:0;stroke-opacity:0.674419"
     d="m 25.5,53.5 v 4 h 4 v -4 z m 9,0 v 4 h 4 v -4 z"
     id="rect3450" />
  <rect
     id="rect3458"
     style="opacity:0.4;fill:none;fill-opacity:1;stroke:url(#linearGradient4604);stroke-width:1;stroke-linecap:round;stroke-linejoin:round;stroke-miterlimit:4;stroke-dasharray:none;stroke-dashoffset:0;stroke-opacity:1;marker:none"
     transform="scale(1,-1)"
     height="17"
     width="17"
     y="-59.5"
     x="23.5" />
  <rect
     ry="3"
     id="rect5391"
     style="opacity:1;fill:url(#linearGradient5466-8-3);fill-opacity:1;stroke:none;stroke-width:0.999922;stroke-linecap:butt;stroke-linejoin:round;stroke-miterlimit:4;stroke-dasharray:none;stroke-dashoffset:0;stroke-opacity:1;marker:none"
     rx="3"
     height="45"
     width="27"
     y="4.5"
     x="18.5" />
  <rect
     ry="3"
     id="rect5391-2"
     style="opacity:0.3;fill:none;fill-opacity:1;stroke:#000000;stroke-width:0.999922;stroke-linecap:butt;stroke-linejoin:round;stroke-miterlimit:4;stroke-dasharray:none;stroke-dashoffset:0;stroke-opacity:1;marker:none"
     rx="3"
     height="45.000076"
     width="27.000078"
     y="4.4999609"
     x="18.499962" />
  <rect
     rx="2.0000002"
     id="rect5391-2-0"
     style="opacity:1;fill:none;fill-opacity:1;stroke:url(#linearGradient3730);stroke-width:1;stroke-linecap:round;stroke-linejoin:round;stroke-miterlimit:4;stroke-dasharray:none;stroke-dashoffset:0;stroke-opacity:1;marker:none"
     ry="2"
     height="43"
     width="25"
     y="5.5"
     x="19.5" />
  <path
     id="path1313"
     d="m 30.999549,14 c -0.554,0 -0.9937,0.446036 -1,1 v 9.75 l -3.435547,-3 c -0.62576,-0.546899 -1.517651,-0.436288 -2.064453,0.189453 -0.546795,0.62576 -0.500764,1.576227 0.125,2.123047 l 4.5,3.9375 -4.5,3.9375 c -0.625765,0.546803 -0.671798,1.497291 -0.125,2.123047 0.5468,0.625755 1.438693,0.736256 2.064453,0.189453 l 3.435547,-3 V 41 c 0,0.554001 0.446,1 1,1 0.56484,0 0.875,-0.03711 1.3125,-0.373047 l 7.0625,-6.314453 c 0.22462,-0.19982 0.3629,-0.481439 0.4375,-0.75 0.0284,-0.102635 0.05485,-0.206704 0.06055,-0.3125 0.008,-0.084 0.006,-0.166 0,-0.25 -0.01197,-0.107225 -0.02535,-0.209101 -0.06055,-0.3125 -0.077,-0.267919 -0.21112,-0.552198 -0.4375,-0.75 L 33.747596,28 39.374549,23.0625 c 0.22638,-0.197814 0.36056,-0.482098 0.4375,-0.75 0.0352,-0.103491 0.04888,-0.205291 0.06055,-0.3125 0.006,-0.08398 0.008,-0.16602 0,-0.25 -0.0061,-0.105824 -0.03214,-0.209876 -0.06055,-0.3125 -0.0746,-0.268572 -0.21288,-0.550192 -0.4375,-0.75 l -7.0625,-6.314453 C 31.913469,14.05109 31.457149,14 30.999549,14 Z m 1,4 4.5,4.099609 -4.5,3.900391 z m 0,12 4.5,4.099609 -4.5,3.900391 z"
     style="color:#000000;clip-rule:nonzero;display:inline;overflow:visible;visibility:visible;isolation:auto;mix-blend-mode:normal;color-interpolation:sRGB;color-interpolation-filters:linearRGB;solid-color:#000000;solid-opacity:1;fill:#0d52bf;fill-opacity:0.5;fill-rule:nonzero;stroke:none;stroke-width:1;stroke-linecap:butt;stroke-linejoin:miter;stroke-miterlimit:4;stroke-dasharray:none;stroke-dashoffset:0;stroke-opacity:1;marker:none;color-rendering:auto;image-rendering:auto;shape-rendering:auto;text-rendering:auto;enable-background:accumulate" />
  <path
     id="path4167"
     d="m 30.999549,13 c -0.554,0 -0.9937,0.446036 -1,1 v 9.75 l -3.435547,-3 c -0.62576,-0.546899 -1.517651,-0.436288 -2.064453,0.189453 -0.546795,0.62576 -0.500764,1.576227 0.125,2.123047 l 4.5,3.9375 -4.5,3.9375 c -0.625765,0.546803 -0.671798,1.497291 -0.125,2.123047 0.5468,0.625755 1.438693,0.736256 2.064453,0.189453 l 3.435547,-3 V 40 c 0,0.554001 0.446,1 1,1 0.56484,0 0.875,-0.03711 1.3125,-0.373047 l 7.0625,-6.314453 c 0.22462,-0.19982 0.3629,-0.481439 0.4375,-0.75 0.0284,-0.102635 0.05485,-0.206704 0.06055,-0.3125 0.008,-0.084 0.006,-0.166 0,-0.25 -0.01197,-0.107225 -0.02535,-0.209101 -0.06055,-0.3125 -0.077,-0.267919 -0.21112,-0.552198 -0.4375,-0.75 L 33.747596,27 39.374549,22.0625 c 0.22638,-0.197814 0.36056,-0.482098 0.4375,-0.75 0.0352,-0.103491 0.04888,-0.205291 0.06055,-0.3125 0.006,-0.08398 0.008,-0.16602 0,-0.25 -0.0061,-0.105824 -0.03214,-0.209876 -0.06055,-0.3125 -0.0746,-0.268572 -0.21288,-0.550192 -0.4375,-0.75 l -7.0625,-6.314453 C 31.913469,13.05109 31.457149,13 30.999549,13 Z m 1,4 4.5,4.099609 -4.5,3.900391 z m 0,12 4.5,4.099609 -4.5,3.900391 z"
     style="color:#000000;clip-rule:nonzero;display:inline;overflow:visible;visibility:visible;isolation:auto;mix-blend-mode:normal;color-interpolation:sRGB;color-interpolation-filters:linearRGB;solid-color:#000000;solid-opacity:1;fill:#ffffff;fill-opacity:1;fill-rule:nonzero;stroke:none;stroke-width:1;stroke-linecap:butt;stroke-linejoin:miter;stroke-miterlimit:4;stroke-dasharray:none;stroke-dashoffset:0;stroke-opacity:1;marker:none;color-rendering:auto;image-rendering:auto;shape-rendering:auto;text-rendering:auto;enable-background:accumulate" />
</svg>
