<?xml version="1.0" encoding="UTF-8" standalone="no"?>
<!-- Created with Inkscape (http://www.inkscape.org/) -->

<svg
   xmlns:dc="http://purl.org/dc/elements/1.1/"
   xmlns:cc="http://creativecommons.org/ns#"
   xmlns:rdf="http://www.w3.org/1999/02/22-rdf-syntax-ns#"
   xmlns:svg="http://www.w3.org/2000/svg"
   xmlns="http://www.w3.org/2000/svg"
   xmlns:xlink="http://www.w3.org/1999/xlink"
   xmlns:sodipodi="http://sodipodi.sourceforge.net/DTD/sodipodi-0.dtd"
   xmlns:inkscape="http://www.inkscape.org/namespaces/inkscape"
   width="64"
   height="64"
   id="svg4133"
   version="1.1"
   inkscape:version="0.48.4 r9939"
   sodipodi:docname="chromium-browser.svg">
  <defs
     id="defs4135">
    <radialGradient
       r="10.625"
       fy="4.625"
       fx="62.625"
       cy="4.625"
       cx="62.625"
       gradientTransform="matrix(2.565229,0,0,0.89248366,58.406101,476.6425)"
       gradientUnits="userSpaceOnUse"
       id="radialGradient4736-9"
       xlink:href="#linearGradient8838-08"
       inkscape:collect="always" />
    <linearGradient
       id="linearGradient8838-08">
      <stop
         id="stop8840-85"
         style="stop-color:#000000;stop-opacity:1"
         offset="0" />
      <stop
         id="stop8842-0"
         style="stop-color:#000000;stop-opacity:0"
         offset="1" />
    </linearGradient>
    <radialGradient
       inkscape:collect="always"
       xlink:href="#linearGradient4029"
       id="radialGradient4058-9"
       cx="47.917099"
       cy="37.30619"
       fx="47.917099"
       fy="37.30619"
       r="53.035713"
       gradientUnits="userSpaceOnUse"
       gradientTransform="matrix(-1.3414675,1.4686295,-1.4846702,-1.3561193,172.34521,-1.1127437)" />
    <linearGradient
       id="linearGradient4029">
      <stop
         style="stop-color:#87accd;stop-opacity:1;"
         offset="0"
         id="stop4031" />
      <stop
         id="stop4062-3"
         offset="0.28728491"
         style="stop-color:#6b96c1;stop-opacity:1;" />
      <stop
         id="stop4060-0"
         offset="0.59072286"
         style="stop-color:#477ba9;stop-opacity:1;" />
      <stop
         style="stop-color:#325978;stop-opacity:1;"
         offset="1"
         id="stop4033" />
    </linearGradient>
    <radialGradient
       inkscape:collect="always"
       xlink:href="#linearGradient3277"
       id="radialGradient4045-1"
       cx="51.798981"
       cy="-0.038070802"
       fx="51.798981"
       fy="-0.038070802"
       r="48.6875"
       gradientTransform="matrix(-0.24524628,0.32321782,-0.3877593,-0.29441021,231.15604,416.47635)"
       gradientUnits="userSpaceOnUse" />
    <linearGradient
       id="linearGradient3277">
      <stop
         id="stop3279"
         offset="0"
         style="stop-color:#6d95bf;stop-opacity:1;" />
      <stop
         id="stop3281"
         offset="1"
         style="stop-color:#4674a0;stop-opacity:1;" />
    </linearGradient>
    <radialGradient
       inkscape:collect="always"
       xlink:href="#linearGradient4051"
       id="radialGradient4070-8"
       cx="226.45587"
       cy="450.74283"
       fx="226.45587"
       fy="450.74283"
       r="30.253544"
       gradientTransform="matrix(0.50828009,1.7273149,-2.0110407,0.59215642,1025.791,-205.55358)"
       gradientUnits="userSpaceOnUse" />
    <linearGradient
       id="linearGradient4051">
      <stop
         id="stop4053"
         offset="0"
         style="stop-color:#d0e2f1;stop-opacity:1" />
      <stop
         id="stop4055"
         offset="1"
         style="stop-color:#9ac1e2;stop-opacity:1" />
    </linearGradient>
    <radialGradient
       inkscape:collect="always"
       xlink:href="#linearGradient4057"
       id="radialGradient4078-0"
       cx="211.65784"
       cy="435.55545"
       fx="211.65784"
       fy="435.55545"
       r="37.57291"
       gradientTransform="matrix(-1.7436776,-0.27326806,0.22814129,-1.4566819,467.47877,1145.6572)"
       gradientUnits="userSpaceOnUse" />
    <linearGradient
       id="linearGradient4057">
      <stop
         id="stop4059"
         offset="0"
         style="stop-color:#93badf;stop-opacity:1" />
      <stop
         id="stop4061"
         offset="1"
         style="stop-color:#4d8bcb;stop-opacity:1" />
    </linearGradient>
    <linearGradient
       y2="68.946434"
       x2="62.004467"
       y1="155.375"
       x1="62.392857"
       gradientTransform="matrix(0.49555556,0,0,0.49571734,187.338,428.28823)"
       gradientUnits="userSpaceOnUse"
       id="linearGradient4304"
       xlink:href="#linearGradient4191-4"
       inkscape:collect="always" />
    <linearGradient
       inkscape:collect="always"
       id="linearGradient4191-4">
      <stop
         style="stop-color:#000000;stop-opacity:1;"
         offset="0"
         id="stop4193-4" />
      <stop
         style="stop-color:#000000;stop-opacity:0;"
         offset="1"
         id="stop4195-7" />
    </linearGradient>
    <linearGradient
       y2="44.340794"
       x2="71.204407"
       y1="6.2375584"
       x1="71.204407"
       gradientTransform="matrix(1.4540542,0,0,1.4540538,-21.447279,162.98066)"
       gradientUnits="userSpaceOnUse"
       id="linearGradient3038"
       xlink:href="#linearGradient4011"
       inkscape:collect="always" />
    <linearGradient
       id="linearGradient4011">
      <stop
         id="stop4013"
         style="stop-color:#ffffff;stop-opacity:1;"
         offset="0" />
      <stop
         offset="0.507761"
         style="stop-color:#ffffff;stop-opacity:0.23529412;"
         id="stop4015" />
      <stop
         id="stop4017"
         style="stop-color:#ffffff;stop-opacity:0.15686275;"
         offset="0.83456558" />
      <stop
         id="stop4019"
         style="stop-color:#ffffff;stop-opacity:0.39215687;"
         offset="1" />
    </linearGradient>
    <linearGradient
       y2="44.340794"
       x2="71.204407"
       y1="6.2375584"
       x1="71.204407"
       gradientTransform="matrix(1.4540542,0,0,1.4540538,32.838444,151.55209)"
       gradientUnits="userSpaceOnUse"
       id="linearGradient3077"
       xlink:href="#linearGradient4011"
       inkscape:collect="always" />
  </defs>
  <sodipodi:namedview
     id="base"
     pagecolor="#ffffff"
     bordercolor="#666666"
     borderopacity="1.0"
     inkscape:pageopacity="0.0"
     inkscape:pageshadow="2"
     inkscape:zoom="10.8125"
     inkscape:cx="32.184971"
     inkscape:cy="31.815029"
     inkscape:document-units="px"
     inkscape:current-layer="layer1"
     showgrid="false"
     fit-margin-top="0"
     fit-margin-left="0"
     fit-margin-right="0"
     fit-margin-bottom="0"
     inkscape:window-width="1152"
     inkscape:window-height="890"
     inkscape:window-x="596"
     inkscape:window-y="251"
     inkscape:window-maximized="0" />
  <metadata
     id="metadata4138">
    <rdf:RDF>
      <cc:Work
         rdf:about="">
        <dc:format>image/svg+xml</dc:format>
        <dc:type
           rdf:resource="http://purl.org/dc/dcmitype/StillImage" />
        <dc:title />
      </cc:Work>
    </rdf:RDF>
  </metadata>
  <g
     inkscape:label="Capa 1"
     inkscape:groupmode="layer"
     id="layer1"
     transform="translate(-105.14286,-154.6479)">
    <g
       style="display:inline;enable-background:new"
       id="g5129"
       transform="translate(-81.910713,-271.605)">
      <path
         transform="matrix(0.24554683,0,0,0.24562699,206.1185,443.88171)"
         d="m 105.71428,65.678574 c 0,29.290815 -23.744895,53.035716 -53.03571,53.035716 -29.290816,0 -53.0357134,-23.744901 -53.0357134,-53.035716 0,-29.290816 23.7448974,-53.035714 53.0357134,-53.035714 29.290815,0 53.03571,23.744898 53.03571,53.035714 z"
         sodipodi:ry="53.035713"
         sodipodi:rx="53.035713"
         sodipodi:cy="65.678574"
         sodipodi:cx="52.67857"
         id="path3094-9-6-6"
         style="color:#000000;fill:#ffffff;fill-opacity:1;fill-rule:nonzero;stroke:none;stroke-width:2.01817131;marker:none;visibility:visible;display:inline;overflow:visible;enable-background:accumulate"
         sodipodi:type="arc" />
      <path
         style="opacity:0.5;fill:url(#radialGradient4736-9);fill-opacity:1;fill-rule:evenodd;stroke:none;stroke-width:1;marker:none;visibility:visible;display:inline;overflow:visible"
         id="path8836-3"
         d="m 246.30911,480.77025 c 0,5.23712 -12.20272,9.48265 -27.25555,9.48265 -15.05283,0 -27.25556,-4.24553 -27.25556,-9.48265 0,-5.23713 12.20273,-9.48266 27.25556,-9.48266 15.05283,0 27.25555,4.24553 27.25555,9.48266 l 0,0 z"
         inkscape:connector-curvature="0" />
      <path
         transform="matrix(0.17915878,0,0,0.17921753,209.61573,448.24339)"
         d="m 105.71428,65.678574 c 0,29.290815 -23.744895,53.035716 -53.03571,53.035716 -29.290816,0 -53.0357134,-23.744901 -53.0357134,-53.035716 0,-29.290816 23.7448974,-53.035714 53.0357134,-53.035714 29.290815,0 53.03571,23.744898 53.03571,53.035714 z"
         sodipodi:ry="53.035713"
         sodipodi:rx="53.035713"
         sodipodi:cy="65.678574"
         sodipodi:cx="52.67857"
         id="path3094-9-1"
         style="color:#000000;fill:url(#radialGradient4058-9);fill-opacity:1;fill-rule:nonzero;stroke:#325778;stroke-width:5.58072662;stroke-miterlimit:4;stroke-opacity:1;stroke-dasharray:none;marker:none;visibility:visible;display:inline;overflow:visible;enable-background:accumulate"
         sodipodi:type="arc" />
      <path
         inkscape:connector-curvature="0"
         id="path3094-0-7"
         d="m 219.05356,432.13004 c -9.62184,0 -18.11143,4.88277 -23.12077,12.29999 l 11.42875,19.6428 0.0619,-0.0775 c -0.42734,-1.24975 -0.66591,-2.58622 -0.66591,-3.98123 0,-6.79554 5.50266,-12.29999 12.29598,-12.29999 0.78926,0 1.55961,0.0749 2.30743,0.21688 l 22.82652,0 C 239.68563,438.58512 230.11861,432.13 219.05351,432.13 z"
         style="color:#000000;fill:url(#radialGradient4045-1);fill-opacity:1;fill-rule:nonzero;stroke:#345676;stroke-width:1;stroke-miterlimit:4;stroke-opacity:1;stroke-dasharray:none;marker:none;visibility:visible;display:inline;overflow:visible;enable-background:accumulate" />
      <path
         id="path3094-0-5-59"
         d="m 243.19051,473.94777 c 4.81092,-8.33547 4.8285,-18.13145 0.91176,-26.1797 l -22.71999,0.0794 0.0361,0.0924 c 1.29562,0.25467 2.57195,0.71624 3.77967,1.41375 5.88319,3.39776 7.8973,10.91698 4.50064,16.80209 -0.39463,0.68374 -0.84464,1.31366 -1.34147,1.8905 l -11.41327,19.77481 c 10.34203,0.77296 20.71402,-4.28747 26.24657,-13.87326 z"
         style="color:#000000;fill:url(#radialGradient4070-8);fill-opacity:1;fill-rule:nonzero;stroke:#7cacd8;stroke-width:1;stroke-miterlimit:4;stroke-opacity:1;stroke-dasharray:none;marker:none;visibility:visible;display:inline;overflow:visible;enable-background:accumulate"
         inkscape:connector-curvature="0" />
      <path
         id="path3094-0-5-5-6"
         d="m 194.91724,474.01852 c 4.81092,8.33547 13.28293,13.24869 22.20901,13.87972 l 11.29124,-19.72223 -0.098,-0.0149 c -0.86829,0.99508 -1.90605,1.86999 -3.11377,2.56749 -5.88318,3.39777 -13.39995,1.383 -16.79661,-4.5021 -0.39463,-0.68375 -0.71498,-1.38855 -0.96596,-2.10739 l -11.41326,-19.7748 c -5.8402,8.5729 -6.64517,20.08845 -1.11261,29.67424 z"
         style="color:#000000;fill:url(#radialGradient4078-0);fill-opacity:1;fill-rule:nonzero;stroke:#3d84c7;stroke-width:1;stroke-miterlimit:4;stroke-opacity:1;stroke-dasharray:none;marker:none;visibility:visible;display:inline;overflow:visible;enable-background:accumulate"
         inkscape:connector-curvature="0" />
      <path
         inkscape:connector-curvature="0"
         id="path3094-0-1-2"
         d="m 196.28897,443.91882 c -0.12075,0.17042 -0.23919,0.33799 -0.35618,0.51121 l 11.3823,19.54985 0.031,-0.23237 c -0.3765,-1.17905 -0.58847,-2.4289 -0.58847,-3.73337 0,-1.63455 0.32008,-3.18985 0.89819,-4.61637 L 196.289,443.91882 z"
         style="opacity:0.05;color:#000000;fill:#000000;fill-opacity:1;fill-rule:nonzero;stroke:none;stroke-width:0.5;marker:none;visibility:visible;display:inline;overflow:visible;enable-background:accumulate" />
      <path
         id="path3094-0-1-3-1"
         d="m 244.18752,448.33224 c -0.0872,-0.18982 -0.17302,-0.37621 -0.26449,-0.56416 l -22.61629,0.0856 0.18568,0.14302 c 1.20901,0.26336 2.39704,0.70465 3.52638,1.35689 1.4151,0.81727 2.60155,1.87221 3.54749,3.08629 l 15.62123,-4.10768 z"
         style="opacity:0.05;color:#000000;fill:#000000;fill-opacity:1;fill-rule:nonzero;stroke:none;stroke-width:0.5;marker:none;visibility:visible;display:inline;overflow:visible;enable-background:accumulate"
         inkscape:connector-curvature="0" />
      <path
         id="path3094-0-1-9-7"
         d="m 216.22293,487.84528 c 0.20792,0.0194 0.4122,0.0382 0.62066,0.053 l 11.234,-19.63549 -0.21666,0.0893 c -0.83251,0.91569 -1.80857,1.72424 -2.93791,2.37648 -1.4151,0.81727 -2.92163,1.31763 -4.44568,1.53007 l -4.25442,15.58663 z"
         style="opacity:0.05;color:#000000;fill:#000000;fill-opacity:1;fill-rule:nonzero;stroke:none;stroke-width:0.5;marker:none;visibility:visible;display:inline;overflow:visible;enable-background:accumulate"
         inkscape:connector-curvature="0" />
      <path
         inkscape:connector-curvature="0"
         id="path3094-0-5-0-8"
         d="m 191.17856,460.75772 c 0.10527,4.52001 1.31481,9.07211 3.73215,13.26044 4.81091,8.33547 13.29649,13.24906 22.22257,13.88008 l 0.031,-0.062 c 10.2692,0.68578 20.53866,-4.37746 26.03215,-13.89558 2.40377,-4.1648 3.60347,-8.68897 3.71667,-13.18298 l -0.0619,0 c -0.26427,3.88465 -1.44343,7.77276 -3.65473,11.37051 -5.49349,8.93787 -15.76295,13.70303 -26.03215,13.05906 l -0.031,0.062 c -8.92608,-0.59255 -17.41166,-5.21625 -22.22257,-13.04356 -2.226,-3.62168 -3.42687,-7.53691 -3.68569,-11.44797 l -0.0465,0 z"
         style="opacity:0.1;color:#000000;fill:url(#linearGradient4304);fill-opacity:1;fill-rule:nonzero;stroke:none;stroke-width:0.5;marker:none;visibility:visible;display:inline;overflow:visible;enable-background:accumulate" />
    </g>
    <path
       inkscape:connector-curvature="0"
       style="opacity:0.5;color:#000000;fill:none;stroke:url(#linearGradient3077);stroke-width:1;stroke-linecap:round;stroke-linejoin:round;stroke-miterlimit:4;stroke-opacity:1;stroke-dasharray:none;stroke-dashoffset:0;marker:none;visibility:visible;display:inline;overflow:visible;enable-background:accumulate"
       id="path8655-6"
       d="m 164.04286,188.42193 c 0,14.85695 -12.04442,26.90097 -26.89966,26.90097 -14.85659,0 -26.90034,-12.04416 -26.90034,-26.90097 0,-14.85625 12.04375,-26.89904 26.90034,-26.89904 14.85524,0 26.89966,12.04279 26.89966,26.89904 l 0,0 z" />
  </g>
</svg>
