<?xml version="1.0" encoding="UTF-8" standalone="no"?>
<svg
   xmlns:dc="http://purl.org/dc/elements/1.1/"
   xmlns:cc="http://creativecommons.org/ns#"
   xmlns:rdf="http://www.w3.org/1999/02/22-rdf-syntax-ns#"
   xmlns:svg="http://www.w3.org/2000/svg"
   xmlns="http://www.w3.org/2000/svg"
   xmlns:xlink="http://www.w3.org/1999/xlink"
   width="64"
   height="64"
   id="svg4087"
   version="1.1">
  <defs
     id="defs4089">
    <linearGradient
       id="linearGradient8838-08">
      <stop
         id="stop8840-85"
         style="stop-color:#000000;stop-opacity:1"
         offset="0" />
      <stop
         id="stop8842-0"
         style="stop-color:#000000;stop-opacity:0"
         offset="1" />
    </linearGradient>
    <radialGradient
       xlink:href="#linearGradient4029"
       id="radialGradient4058-9"
       cx="47.917099"
       cy="37.30619"
       fx="47.917099"
       fy="37.30619"
       r="53.035713"
       gradientUnits="userSpaceOnUse"
       gradientTransform="matrix(-1.3414675,1.4686295,-1.4846702,-1.3561193,172.34521,-1.1127437)" />
    <linearGradient
       id="linearGradient4029">
      <stop
         style="stop-color:#87accd;stop-opacity:1;"
         offset="0"
         id="stop4031" />
      <stop
         id="stop4062-3"
         offset="0.28728491"
         style="stop-color:#6b96c1;stop-opacity:1;" />
      <stop
         id="stop4060-0"
         offset="0.59072286"
         style="stop-color:#477ba9;stop-opacity:1;" />
      <stop
         style="stop-color:#325978;stop-opacity:1;"
         offset="1"
         id="stop4033" />
    </linearGradient>
    <linearGradient
       id="linearGradient4037">
      <stop
         style="stop-color:#e67263;stop-opacity:1;"
         offset="0"
         id="stop4039" />
      <stop
         style="stop-color:#dc252a;stop-opacity:1;"
         offset="1"
         id="stop4041" />
    </linearGradient>
    <linearGradient
       id="linearGradient4064">
      <stop
         style="stop-color:#f0d550;stop-opacity:1;"
         offset="0"
         id="stop4066" />
      <stop
         style="stop-color:#dca023;stop-opacity:1;"
         offset="1"
         id="stop4068" />
    </linearGradient>
    <linearGradient
       id="linearGradient4072">
      <stop
         style="stop-color:#50b54c;stop-opacity:1;"
         offset="0"
         id="stop4074" />
      <stop
         style="stop-color:#32783b;stop-opacity:1;"
         offset="1"
         id="stop4076" />
    </linearGradient>
    <linearGradient
       id="linearGradient4191-4">
      <stop
         style="stop-color:#000000;stop-opacity:1;"
         offset="0"
         id="stop4193-4" />
      <stop
         style="stop-color:#000000;stop-opacity:0;"
         offset="1"
         id="stop4195-7" />
    </linearGradient>
    <linearGradient
       id="linearGradient4011">
      <stop
         id="stop4013"
         style="stop-color:#ffffff;stop-opacity:1;"
         offset="0" />
      <stop
         offset="0.507761"
         style="stop-color:#ffffff;stop-opacity:0.23529412;"
         id="stop4015" />
      <stop
         id="stop4017"
         style="stop-color:#ffffff;stop-opacity:0.15686275;"
         offset="0.83456558" />
      <stop
         id="stop4019"
         style="stop-color:#ffffff;stop-opacity:0.39215687;"
         offset="1" />
    </linearGradient>
    <linearGradient
       y2="44.340794"
       x2="71.204407"
       y1="6.2375584"
       x1="71.204407"
       gradientTransform="matrix(1.4540542,0,0,1.4540538,-21.447279,162.98066)"
       gradientUnits="userSpaceOnUse"
       id="linearGradient3038"
       xlink:href="#linearGradient4011" />
    <linearGradient
       xlink:href="#linearGradient4191-4"
       id="linearGradient3041"
       gradientUnits="userSpaceOnUse"
       gradientTransform="matrix(0.49555556,0,0,0.49571734,51.14157,168.1118)"
       x1="62.392857"
       y1="155.375"
       x2="62.004467"
       y2="68.946434" />
    <radialGradient
       xlink:href="#linearGradient4072"
       id="radialGradient3047"
       gradientUnits="userSpaceOnUse"
       gradientTransform="matrix(-1.7436776,-0.27326806,0.22814129,-1.4566819,331.28234,885.48077)"
       cx="211.65784"
       cy="435.55545"
       fx="211.65784"
       fy="435.55545"
       r="37.57291" />
    <radialGradient
       xlink:href="#linearGradient4064"
       id="radialGradient3050"
       gradientUnits="userSpaceOnUse"
       gradientTransform="matrix(0.50828009,1.7273149,-2.0110407,0.59215642,889.59457,-465.73001)"
       cx="226.45587"
       cy="450.74283"
       fx="226.45587"
       fy="450.74283"
       r="30.253544" />
    <radialGradient
       xlink:href="#linearGradient4037"
       id="radialGradient3053"
       gradientUnits="userSpaceOnUse"
       gradientTransform="matrix(-0.24524628,0.32321782,-0.3877593,-0.29441021,94.95961,156.29992)"
       cx="51.798981"
       cy="-0.038070802"
       fx="51.798981"
       fy="-0.038070802"
       r="48.6875" />
    <radialGradient
       xlink:href="#linearGradient8838-08"
       id="radialGradient3057"
       gradientUnits="userSpaceOnUse"
       gradientTransform="matrix(2.565229,0,0,0.89248366,-77.790329,216.46607)"
       cx="62.625"
       cy="4.625"
       fx="62.625"
       fy="4.625"
       r="10.625" />
  </defs>
  <metadata
     id="metadata4092">
    <rdf:RDF>
      <cc:Work
         rdf:about="">
        <dc:format>image/svg+xml</dc:format>
        <dc:type
           rdf:resource="http://purl.org/dc/dcmitype/StillImage" />
        <dc:title />
      </cc:Work>
    </rdf:RDF>
  </metadata>
  <g
     id="layer1"
     transform="translate(-50.857143,-166.07646)">
    <path
       style="color:#000000;fill:#ffffff;fill-opacity:1;fill-rule:nonzero;stroke:none;stroke-width:2.01817131;marker:none;visibility:visible;display:inline;overflow:visible;enable-background:accumulate"
       id="path3094-9-6-6"
       d="m 105.71428,65.678574 a 53.035713,53.035713 0 1 1 -106.0714234,0 53.035713,53.035713 0 1 1 106.0714234,0 z"
       transform="matrix(0.24554683,0,0,0.24562699,69.92207,183.70528)" />
    <path
       d="m 110.11268,220.59382 c 0,5.23712 -12.20272,9.48265 -27.25555,9.48265 -15.05283,0 -27.25556,-4.24553 -27.25556,-9.48265 0,-5.23713 12.20273,-9.48266 27.25556,-9.48266 15.05283,0 27.25555,4.24553 27.25555,9.48266 l 0,0 z"
       id="path8836-3"
       style="opacity:0.5;fill:url(#radialGradient3057);fill-opacity:1;fill-rule:evenodd;stroke:none;stroke-width:1;marker:none;visibility:visible;display:inline;overflow:visible" />
    <path
       style="color:#000000;fill:url(#radialGradient4058-9);fill-opacity:1;fill-rule:nonzero;stroke:#325778;stroke-width:5.58072662;stroke-miterlimit:4;stroke-opacity:1;stroke-dasharray:none;marker:none;visibility:visible;display:inline;overflow:visible;enable-background:accumulate"
       id="path3094-9-1"
       d="m 105.71428,65.678574 a 53.035713,53.035713 0 1 1 -106.0714234,0 53.035713,53.035713 0 1 1 106.0714234,0 z"
       transform="matrix(0.17915878,0,0,0.17921753,73.4193,188.06696)" />
    <path
       style="color:#000000;fill:url(#radialGradient3053);fill-opacity:1;fill-rule:nonzero;stroke:#ad1b1e;stroke-width:1;stroke-miterlimit:4;stroke-opacity:1;stroke-dasharray:none;marker:none;visibility:visible;display:inline;overflow:visible;enable-background:accumulate"
       d="m 82.85713,171.95361 c -9.62184,0 -18.11143,4.88277 -23.12077,12.29999 l 11.42875,19.6428 0.0619,-0.0775 c -0.42734,-1.24975 -0.66591,-2.58622 -0.66591,-3.98123 0,-6.79554 5.50266,-12.29999 12.29598,-12.29999 0.78926,0 1.55961,0.0749 2.30743,0.21688 l 22.82652,0 C 103.4892,178.40869 93.92218,171.95357 82.85708,171.95357 z"
       id="path3094-0-7" />
    <path
       style="color:#000000;fill:url(#radialGradient3050);fill-opacity:1;fill-rule:nonzero;stroke:#ad8c1b;stroke-width:1;stroke-miterlimit:4;stroke-opacity:1;stroke-dasharray:none;marker:none;visibility:visible;display:inline;overflow:visible;enable-background:accumulate"
       d="m 106.99408,213.77134 c 4.81092,-8.33547 4.8285,-18.13145 0.91176,-26.1797 l -22.71999,0.0794 0.0361,0.0924 c 1.29562,0.25467 2.57195,0.71624 3.77967,1.41375 5.88319,3.39776 7.8973,10.91698 4.50064,16.80209 -0.39463,0.68374 -0.84464,1.31366 -1.34147,1.8905 l -11.41327,19.77481 c 10.34203,0.77296 20.71402,-4.28747 26.24657,-13.87326 z"
       id="path3094-0-5-59" />
    <path
       style="color:#000000;fill:url(#radialGradient3047);fill-opacity:1;fill-rule:nonzero;stroke:#179317;stroke-width:1;stroke-miterlimit:4;stroke-opacity:1;stroke-dasharray:none;marker:none;visibility:visible;display:inline;overflow:visible;enable-background:accumulate"
       d="m 58.72081,213.84209 c 4.81092,8.33547 13.28293,13.24869 22.20901,13.87972 l 11.29124,-19.72223 -0.098,-0.0149 c -0.86829,0.99508 -1.90605,1.86999 -3.11377,2.56749 -5.88318,3.39777 -13.39995,1.383 -16.79661,-4.5021 -0.39463,-0.68375 -0.71498,-1.38855 -0.96596,-2.10739 l -11.41326,-19.7748 c -5.8402,8.5729 -6.64517,20.08845 -1.11261,29.67424 z"
       id="path3094-0-5-5-6" />
    <path
       style="opacity:0.05;color:#000000;fill:#000000;fill-opacity:1;fill-rule:nonzero;stroke:none;stroke-width:0.5;marker:none;visibility:visible;display:inline;overflow:visible;enable-background:accumulate"
       d="m 60.09254,183.74239 c -0.12075,0.17042 -0.23919,0.33799 -0.35618,0.51121 l 11.3823,19.54985 0.031,-0.23237 c -0.3765,-1.17905 -0.58847,-2.4289 -0.58847,-3.73337 0,-1.63455 0.32008,-3.18985 0.89819,-4.61637 L 60.09257,183.74239 z"
       id="path3094-0-1-2" />
    <path
       style="opacity:0.05;color:#000000;fill:#000000;fill-opacity:1;fill-rule:nonzero;stroke:none;stroke-width:0.5;marker:none;visibility:visible;display:inline;overflow:visible;enable-background:accumulate"
       d="m 107.99109,188.15581 c -0.0872,-0.18982 -0.17302,-0.37621 -0.26449,-0.56416 l -22.61629,0.0856 0.18568,0.14302 c 1.20901,0.26336 2.39704,0.70465 3.52638,1.35689 1.4151,0.81727 2.60155,1.87221 3.54749,3.08629 l 15.62123,-4.10768 z"
       id="path3094-0-1-3-1" />
    <path
       style="opacity:0.05;color:#000000;fill:#000000;fill-opacity:1;fill-rule:nonzero;stroke:none;stroke-width:0.5;marker:none;visibility:visible;display:inline;overflow:visible;enable-background:accumulate"
       d="m 80.0265,227.66885 c 0.20792,0.0194 0.4122,0.0382 0.62066,0.053 l 11.234,-19.63549 -0.21666,0.0893 c -0.83251,0.91569 -1.80857,1.72424 -2.93791,2.37648 -1.4151,0.81727 -2.92163,1.31763 -4.44568,1.53007 l -4.25442,15.58663 z"
       id="path3094-0-1-9-7" />
    <path
       style="opacity:0.1;color:#000000;fill:url(#linearGradient3041);fill-opacity:1;fill-rule:nonzero;stroke:none;stroke-width:0.5;marker:none;visibility:visible;display:inline;overflow:visible;enable-background:accumulate"
       d="m 54.98213,200.58129 c 0.10527,4.52001 1.31481,9.07211 3.73215,13.26044 4.81091,8.33547 13.29649,13.24906 22.22257,13.88008 l 0.031,-0.062 c 10.2692,0.68578 20.53866,-4.37746 26.03215,-13.89558 2.40377,-4.1648 3.60347,-8.68897 3.71667,-13.18298 l -0.0619,0 c -0.26427,3.88465 -1.44343,7.77276 -3.65473,11.37051 -5.49349,8.93787 -15.76295,13.70303 -26.03215,13.05906 l -0.031,0.062 c -8.92608,-0.59255 -17.41166,-5.21625 -22.22257,-13.04356 -2.226,-3.62168 -3.42687,-7.53691 -3.68569,-11.44797 l -0.0465,0 z"
       id="path3094-0-5-0-8" />
    <path
       style="opacity:0.5;color:#000000;fill:none;stroke:url(#linearGradient3038);stroke-width:1;stroke-linecap:round;stroke-linejoin:round;stroke-miterlimit:4;stroke-opacity:1;stroke-dasharray:none;stroke-dashoffset:0;marker:none;visibility:visible;display:inline;overflow:visible;enable-background:accumulate"
       id="path8655-6"
       d="m 109.75714,199.8505 c 0,14.85695 -12.044415,26.90097 -26.899654,26.90097 -14.856597,0 -26.900345,-12.04416 -26.900345,-26.90097 0,-14.85625 12.043748,-26.89904 26.900345,-26.89904 14.855239,0 26.899654,12.04279 26.899654,26.89904 l 0,0 z" />
  </g>
</svg>
