<?xml version="1.0" encoding="UTF-8" standalone="no"?>
<svg
   xmlns:dc="http://purl.org/dc/elements/1.1/"
   xmlns:cc="http://creativecommons.org/ns#"
   xmlns:rdf="http://www.w3.org/1999/02/22-rdf-syntax-ns#"
   xmlns:svg="http://www.w3.org/2000/svg"
   xmlns="http://www.w3.org/2000/svg"
   xmlns:xlink="http://www.w3.org/1999/xlink"
   id="svg2434"
   height="64"
   width="64"
   version="1.1">
  <metadata
     id="metadata112005">
    <rdf:RDF>
      <cc:Work
         rdf:about="">
        <dc:format>image/svg+xml</dc:format>
        <dc:type
           rdf:resource="http://purl.org/dc/dcmitype/StillImage" />
        <dc:title />
      </cc:Work>
    </rdf:RDF>
  </metadata>
  <defs
     id="defs2436">
    <radialGradient
       gradientTransform="matrix(1,0,0,0.282209,0,30.39355)"
       gradientUnits="userSpaceOnUse"
       xlink:href="#linearGradient6975"
       id="radialGradient2417"
       fy="42.343147"
       fx="26.78167"
       r="14.407301"
       cy="42.343147"
       cx="26.78167" />
    <radialGradient
       gradientTransform="matrix(1,0,0,0.282209,0,30.39355)"
       gradientUnits="userSpaceOnUse"
       xlink:href="#linearGradient6975"
       id="radialGradient1687"
       fy="42.343147"
       fx="26.78167"
       r="14.407301"
       cy="42.343147"
       cx="26.78167" />
    <linearGradient
       id="linearGradient6528">
      <stop
         offset="0"
         style="stop-color:#2e3436;stop-opacity:1"
         id="stop6530" />
      <stop
         offset="1"
         style="stop-color:black;stop-opacity:1"
         id="stop6532" />
    </linearGradient>
    <linearGradient
       gradientTransform="matrix(1.125413,0,0,1.125413,-2.601383,-5.668855)"
       gradientUnits="userSpaceOnUse"
       xlink:href="#linearGradient6528"
       id="linearGradient6534"
       y2="36.878933"
       x2="24.722954"
       y1="23.614397"
       x1="24.5" />
    <linearGradient
       id="linearGradient6543">
      <stop
         offset="0"
         style="stop-color:#d3d7cf;stop-opacity:1"
         id="stop6545" />
      <stop
         offset="1"
         style="stop-color:white;stop-opacity:1"
         id="stop6547" />
    </linearGradient>
    <linearGradient
       gradientTransform="matrix(1.2004778,0,0,1.2004778,-4.8329153,-9.0610678)"
       gradientUnits="userSpaceOnUse"
       xlink:href="#linearGradient6543"
       id="linearGradient6549"
       y2="12.642857"
       x2="23.142857"
       y1="16.714287"
       x1="23.142857" />
    <linearGradient
       id="linearGradient8942">
      <stop
         offset="0"
         style="stop-color:white;stop-opacity:1"
         id="stop8944" />
      <stop
         offset="1"
         style="stop-color:white;stop-opacity:0"
         id="stop8946" />
    </linearGradient>
    <linearGradient
       gradientTransform="matrix(1.125413,0,0,1.125413,-2.601383,-5.668855)"
       gradientUnits="userSpaceOnUse"
       xlink:href="#linearGradient8942"
       id="linearGradient8948"
       y2="35.243187"
       x2="24.565037"
       y1="10.528904"
       x1="23.849895" />
    <linearGradient
       id="linearGradient6975">
      <stop
         offset="0"
         style="stop-color:black;stop-opacity:1"
         id="stop6977" />
      <stop
         offset="1"
         style="stop-color:black;stop-opacity:0"
         id="stop6979" />
    </linearGradient>
    <radialGradient
       gradientTransform="matrix(1,0,0,0.282209,0,30.39355)"
       gradientUnits="userSpaceOnUse"
       xlink:href="#linearGradient6975"
       id="radialGradient6981"
       fy="42.343147"
       fx="26.78167"
       r="14.407301"
       cy="42.343147"
       cx="26.78167" />
    <linearGradient
       id="linearGradient2446">
      <stop
         offset="0"
         style="stop-color:white;stop-opacity:1"
         id="stop2448" />
      <stop
         offset="1"
         style="stop-color:white;stop-opacity:0"
         id="stop2450" />
    </linearGradient>
    <linearGradient
       gradientTransform="matrix(0.608217,-0.10171,0.04414374,0.689789,16.62085,13.35659)"
       gradientUnits="userSpaceOnUse"
       xlink:href="#linearGradient2446"
       id="linearGradient8938"
       y2="42.282146"
       x2="7.7521091"
       y1="37.752247"
       x1="13.236155" />
    <linearGradient
       id="linearGradient6963">
      <stop
         offset="0"
         style="stop-color:#696969;stop-opacity:1"
         id="stop6965" />
      <stop
         offset="1"
         style="stop-color:black;stop-opacity:1"
         id="stop6967" />
    </linearGradient>
    <radialGradient
       gradientTransform="matrix(0.709807,-0.118699,0.05020504,0.7845,14.35988,10.7997)"
       gradientUnits="userSpaceOnUse"
       xlink:href="#linearGradient6963"
       id="radialGradient8936"
       fy="35.356506"
       fx="15.415101"
       r="7.5791559"
       cy="35.356506"
       cx="15.415101" />
    <linearGradient
       id="linearGradient6939">
      <stop
         offset="0"
         style="stop-color:#bdbdbd;stop-opacity:1"
         id="stop6941" />
      <stop
         offset="0.33333334"
         style="stop-color:#e2e2e2;stop-opacity:1"
         id="stop6947" />
      <stop
         offset="0.66666669"
         style="stop-color:#a3a3a3;stop-opacity:1"
         id="stop6949" />
      <stop
         offset="1"
         style="stop-color:#ddd;stop-opacity:1"
         id="stop6943" />
    </linearGradient>
    <linearGradient
       gradientTransform="matrix(0.71362,-0.119336,0.05179406,0.809329,14.74036,9.12562)"
       gradientUnits="userSpaceOnUse"
       xlink:href="#linearGradient6939"
       id="linearGradient8934"
       y2="33.438831"
       x2="23.109331"
       y1="30.001331"
       x1="19.394735" />
    <linearGradient
       id="linearGradient6951">
      <stop
         offset="0"
         style="stop-color:#6e3d09;stop-opacity:1"
         id="stop6953" />
      <stop
         offset="0.24242425"
         style="stop-color:#ea8113;stop-opacity:1"
         id="stop6959" />
      <stop
         offset="0.62121212"
         style="stop-color:#5c3307;stop-opacity:1"
         id="stop6961" />
      <stop
         offset="1"
         style="stop-color:#e07c12;stop-opacity:1"
         id="stop6955" />
    </linearGradient>
    <linearGradient
       gradientTransform="matrix(0.71362,-0.119336,0.05179406,0.809329,14.74036,9.12562)"
       gradientUnits="userSpaceOnUse"
       xlink:href="#linearGradient6951"
       id="linearGradient8932"
       y2="23.742767"
       x2="33.436985"
       y1="18.867767"
       x1="28.058632" />
  </defs>
  <g
     transform="matrix(1.3333282,0,0,1.3413295,-2.0387415e-6,0.76343442)"
     id="layer1">
    <g
       transform="translate(-4.587256e-6,-0.11286362)"
       id="g3351">
      <g
         id="g3388">
        <g
           id="g3316">
          <path
             d="m 41.188971,42.343147 a 14.407301,4.0658641 0 1 1 -28.814602,0 14.407301,4.0658641 0 1 1 28.814602,0 z"
             transform="matrix(1.318776,0,0,1.475702,-13.31902,-30.48586)"
             id="path2415"
             style="opacity:0.67204303;color:#000000;fill:url(#radialGradient2417);fill-opacity:1;fill-rule:nonzero;stroke:none;stroke-width:1;marker:none;visibility:visible;display:inline;overflow:visible" />
          <path
             d="m 41.188971,42.343147 a 14.407301,4.0658641 0 1 1 -28.814602,0 14.407301,4.0658641 0 1 1 28.814602,0 z"
             transform="matrix(1.665822,0,0,1.475702,-20.61349,-35.48588)"
             id="path1685"
             style="opacity:0.67204303;color:#000000;fill:url(#radialGradient1687);fill-opacity:1;fill-rule:nonzero;stroke:none;stroke-width:1;marker:none;visibility:visible;display:inline;overflow:visible" />
          <path
             d="M 11.606956,27.837074 C 10.146599,27.942661 2.7376298,25.797421 2.7644254,24.415855 2.7712315,21.670185 19.211692,4.4485294 20.222734,3.8946082 c 1.371402,-1.3642066 5.414374,-1.3073646 6.672091,0 1.40106,0.7078583 17.707292,19.9657368 17.630461,22.1012278 -0.08384,1.841238 -11.081334,5.615101 -12.017803,5.523712 0.0201,1.066718 3.416433,2.856917 3.91885,3.682475 0.133977,1.212818 -9.458829,3.390275 -9.485625,4.844253 l 2.311116,2.279537 c -0.06364,1.926727 -6.07589,3.049589 -8.551129,1.76085 0.257907,-1.227491 0.274655,-1.651117 -0.110531,-2.315902 -0.703383,-1.308059 -5.345712,-0.767226 -5.325616,-1.834127 -0.308149,-0.723298 3.563809,-1.36621 3.657593,-2.893374 C 18.982228,35.713601 7.0486657,32.451314 7.1655949,31.519548 7.0544743,30.689949 11.547551,29.974036 11.606956,27.837074 Z"
             id="path5072"
             style="fill:url(#linearGradient6534);fill-opacity:1;fill-rule:evenodd;stroke:#000000;stroke-width:0.74776286px;stroke-linecap:butt;stroke-linejoin:miter;stroke-opacity:1" />
          <rect
             width="20.356747"
             height="22.817247"
             x="7.7115307"
             y="17.324108"
             transform="matrix(0.914302,-0.405034,0.310037,0.950724,0,0)"
             id="rect2363"
             style="fill:none;stroke:none" />
          <path
             d="m 11.256049,13.74901 c 2.496857,-2.846781 5.470704,-5.9963087 9.10496,-9.4607566 0.971144,-1.2310257 4.656615,-1.4420597 5.933908,-0.3742673 1.455196,1.1468149 2.745529,2.4553976 4.389122,4.3717877 l 0.01967,4.0064732 -3.702099,-1.603765 0,6.002385 -3.691812,-4.801913 -1.93065,3.152336 -1.886504,-5.0976045 -1.530819,3.8053245 z"
             id="path5074"
             style="fill:url(#linearGradient6549);fill-opacity:1;fill-rule:evenodd;stroke:none" />
          <path
             d="M 12.314822,27.064533 C 11.075081,27.43173 4.1739798,25.477443 3.6553651,24.291608 3.4080197,22.304799 19.596616,5.0217833 20.640082,4.5697334 c 1.143082,-1.300684 4.855309,-1.2334225 5.923052,0.024505 1.235832,0.7151658 16.232249,18.2596856 17.135389,21.3431166 -0.837887,1.560337 -11.121289,5.362295 -11.766252,4.733765 -0.265577,0.598396 -0.952684,1.550395 3.288058,4.523289 l -9.114439,3.710618 1.714399,2.613048 -5.384277,1.628346 -0.857199,-3.484062 -3.551622,-0.462375 2.095492,-2.870116 C 20.228124,35.621138 9.138957,32.373576 8.8465038,31.608004 7.6507292,30.974125 12.864296,30.782503 12.314822,27.064533 Z"
             id="path6536"
             style="opacity:0.4;fill:none;stroke:url(#linearGradient8948);stroke-width:0.74776292px;stroke-linecap:butt;stroke-linejoin:miter;stroke-opacity:1" />
          <path
             d="m 41.188971,42.343147 a 14.407301,4.0658641 0 1 1 -28.814602,0 14.407301,4.0658641 0 1 1 28.814602,0 z"
             transform="matrix(1.33837,0,0,1,-6.951893,-3.169211)"
             id="path6973"
             style="opacity:0.3;color:#000000;fill:url(#radialGradient6981);fill-opacity:1;fill-rule:nonzero;stroke:none;stroke-width:1;marker:none;visibility:visible;display:inline;overflow:visible" />
          <g
             transform="translate(-3.3167838e-4,0.101015)"
             id="g8923">
            <path
               d="m 32.815491,26.053448 3.098333,2.590809 C 40.677173,22.070645 47.362292,7.1165887 47.362292,7.1165887 47.605366,6.0743564 46.483038,5.6310026 45.984075,6.3896101 c 0,0 -9.039365,13.0428949 -13.168584,19.6638379 z"
               id="path6937"
               style="color:#000000;fill:url(#linearGradient8932);fill-opacity:1;fill-rule:nonzero;stroke:#673907;stroke-width:0.74776268;stroke-linecap:round;stroke-linejoin:miter;stroke-miterlimit:4;stroke-opacity:1;stroke-dasharray:none;stroke-dashoffset:0;marker:none;visibility:visible;display:inline;overflow:visible" />
            <path
               d="m 27.920688,35.2377 1.703179,1.29703 5.679038,-6.975843 0.159732,-0.604072 0.780067,-0.145018 c -0.393138,-1.212368 -2.32616,-3.196629 -3.664197,-2.972874 l 0.114989,0.872442 -0.458436,0.387521 -4.314372,8.140814 z"
               id="path6935"
               style="color:#000000;fill:url(#linearGradient8934);fill-opacity:1;fill-rule:nonzero;stroke:#888a85;stroke-width:0.74776268;stroke-linecap:round;stroke-linejoin:miter;stroke-miterlimit:4;stroke-opacity:1;stroke-dasharray:none;stroke-dashoffset:0;marker:none;visibility:visible;display:inline;overflow:visible" />
            <path
               d="m 20.985414,42.86777 c 4.713683,-0.788252 8.331712,-0.74985 8.760057,-4.752472 0.345188,-3.225562 -3.551035,-4.091914 -5.255072,-0.978912 -1.641523,2.998804 -3.504985,5.731384 -3.504985,5.731384 z"
               id="path6933"
               style="color:#000000;fill:url(#radialGradient8936);fill-opacity:1;fill-rule:nonzero;stroke:none;stroke-width:0.2;marker:none;visibility:visible;display:inline;overflow:visible" />
            <path
               d="m 8.8749989,37.75 a 1.2499999,1.2499999 0 1 1 -2.4999997,0 1.2499999,1.2499999 0 1 1 2.4999997,0 z"
               transform="matrix(0.608217,-0.10171,0.04414374,0.689789,20.41956,11.75746)"
               id="path6971"
               style="opacity:0.52777782;color:#000000;fill:#ffffff;fill-opacity:1;fill-rule:nonzero;stroke:none;stroke-width:1;marker:none;visibility:visible;display:inline;overflow:visible" />
            <path
               d="m 8.8749989,37.75 a 1.2499999,1.2499999 0 1 1 -2.4999997,0 1.2499999,1.2499999 0 1 1 2.4999997,0 z"
               transform="matrix(0.562239,-0.09402052,0.04080659,0.637644,27.55723,4.593379)"
               id="path6983"
               style="color:#000000;fill:#ffffff;fill-opacity:1;fill-rule:nonzero;stroke:none;stroke-width:1;marker:none;visibility:visible;display:inline;overflow:visible" />
            <path
               d="m 32.506055,29.222896 -3.466373,5.604573"
               id="path6985"
               style="color:#000000;fill:none;stroke:#ffffff;stroke-width:0.74776268;stroke-linecap:round;stroke-linejoin:round;stroke-miterlimit:4;stroke-opacity:1;stroke-dasharray:none;stroke-dashoffset:0;marker:none;visibility:visible;display:inline;overflow:visible" />
            <path
               d="m 21.888602,42.180999 c 0,0 2.299247,-1.727487 3.188602,-3.876203 0.314651,-0.760209 1.166888,-0.298884 0.710034,0.482077 -0.986792,1.686854 -3.898636,3.394126 -3.898636,3.394126 z"
               id="path1571"
               style="opacity:0.42777776;color:#000000;fill:url(#linearGradient8938);fill-opacity:1;fill-rule:nonzero;stroke:none;stroke-width:1;marker:none;visibility:visible;display:inline;overflow:visible" />
          </g>
          <path
             d="m 23.259345,29.998566 c -2.305824,0.224237 -4.422887,-0.712345 -6.728711,-1.38916 l 0.03556,1.178402 c 2.310928,0.847305 4.687994,1.481876 7.14272,1.543012 z"
             id="path8968"
             style="fill:#dde0da;fill-opacity:1;fill-rule:evenodd;stroke:none" />
        </g>
      </g>
    </g>
  </g>
</svg>
