<?xml version="1.0" encoding="UTF-8" standalone="no"?>
<svg
   xmlns:dc="http://purl.org/dc/elements/1.1/"
   xmlns:cc="http://creativecommons.org/ns#"
   xmlns:rdf="http://www.w3.org/1999/02/22-rdf-syntax-ns#"
   xmlns:svg="http://www.w3.org/2000/svg"
   xmlns="http://www.w3.org/2000/svg"
   xmlns:xlink="http://www.w3.org/1999/xlink"
   id="svg3331"
   height="64"
   width="64"
   version="1.0">
  <metadata
     id="metadata143580">
    <rdf:RDF>
      <cc:Work
         rdf:about="">
        <dc:format>image/svg+xml</dc:format>
        <dc:type
           rdf:resource="http://purl.org/dc/dcmitype/StillImage" />
      </cc:Work>
    </rdf:RDF>
  </metadata>
  <defs
     id="defs3333">
    <linearGradient
       id="linearGradient3702-501-757">
      <stop
         offset="0"
         style="stop-color:#181818;stop-opacity:0"
         id="stop2895" />
      <stop
         offset="0.5"
         style="stop-color:#181818;stop-opacity:1"
         id="stop2897" />
      <stop
         offset="1"
         style="stop-color:#181818;stop-opacity:0"
         id="stop2899" />
    </linearGradient>
    <linearGradient
       gradientUnits="userSpaceOnUse"
       xlink:href="#linearGradient3702-501-757"
       id="linearGradient2877-634-617"
       y2="39.999443"
       x2="25.058096"
       y1="47.027729"
       x1="25.058096" />
    <linearGradient
       id="linearGradient3688-464-309">
      <stop
         offset="0"
         style="stop-color:#181818;stop-opacity:1"
         id="stop2889" />
      <stop
         offset="1"
         style="stop-color:#181818;stop-opacity:0"
         id="stop2891" />
    </linearGradient>
    <radialGradient
       gradientTransform="matrix(2.003784,0,0,1.4,-20.01187,-104.4)"
       gradientUnits="userSpaceOnUse"
       xlink:href="#linearGradient3688-464-309"
       id="radialGradient2875-742-326"
       fy="43.5"
       fx="4.9929786"
       r="2.5"
       cy="43.5"
       cx="4.9929786" />
    <linearGradient
       id="linearGradient3688-166-749">
      <stop
         offset="0"
         style="stop-color:#181818;stop-opacity:1"
         id="stop2883" />
      <stop
         offset="1"
         style="stop-color:#181818;stop-opacity:0"
         id="stop2885" />
    </linearGradient>
    <radialGradient
       gradientTransform="matrix(2.003784,0,0,1.4,27.98813,-17.4)"
       gradientUnits="userSpaceOnUse"
       xlink:href="#linearGradient3688-166-749"
       id="radialGradient2873-966-168"
       fy="43.5"
       fx="4.9929786"
       r="2.5"
       cy="43.5"
       cx="4.9929786" />
    <linearGradient
       id="linearGradient3707">
      <stop
         offset="0"
         style="stop-color:#4c2a4e;stop-opacity:1"
         id="stop3709" />
      <stop
         offset="1"
         style="stop-color:#a85394;stop-opacity:1"
         id="stop3711" />
    </linearGradient>
    <linearGradient
       gradientTransform="matrix(1.4102564,0,0,1.4102564,-1.846155,-1.8461541)"
       gradientUnits="userSpaceOnUse"
       xlink:href="#linearGradient3707"
       id="linearGradient2537"
       y2="3.8990016"
       x2="24"
       y1="44"
       x1="24" />
    <linearGradient
       id="linearGradient3671">
      <stop
         offset="0"
         style="stop-color:#e384c6;stop-opacity:1"
         id="stop3673" />
      <stop
         offset="0.26238"
         style="stop-color:#c467be;stop-opacity:1"
         id="stop3675" />
      <stop
         offset="0.704952"
         style="stop-color:#93399a;stop-opacity:1"
         id="stop3677" />
      <stop
         offset="1"
         style="stop-color:#48274f;stop-opacity:1"
         id="stop3679" />
    </linearGradient>
    <radialGradient
       gradientTransform="matrix(7.9456584e-8,2.3693479,-3.4178029,1.4639667e-8,60.879794,-11.568707)"
       gradientUnits="userSpaceOnUse"
       xlink:href="#linearGradient3671"
       id="radialGradient2535"
       fy="13.194963"
       fx="12.011247"
       r="19.99999"
       cy="13.194963"
       cx="12.011247" />
    <linearGradient
       id="linearGradient3308-4-6-931-761">
      <stop
         offset="0"
         style="stop-color:#ffffff;stop-opacity:1"
         id="stop2919" />
      <stop
         offset="1"
         style="stop-color:#ffffff;stop-opacity:0"
         id="stop2921" />
    </linearGradient>
    <linearGradient
       gradientTransform="matrix(1.4324331,0,0,1.432432,-2.3783784,-2.3783618)"
       gradientUnits="userSpaceOnUse"
       xlink:href="#linearGradient3308-4-6-931-761"
       id="linearGradient3319"
       y2="43"
       x2="23.99999"
       y1="4.999989"
       x1="23.99999" />
    <linearGradient
       id="linearGradient3824">
      <stop
         offset="0"
         style="stop-color:#ffffff;stop-opacity:1"
         id="stop3826" />
      <stop
         offset="1"
         style="stop-color:#ffffff;stop-opacity:0"
         id="stop3828" />
    </linearGradient>
    <radialGradient
       gradientTransform="matrix(0,1.9471354,-5.6948458,0,102.82965,-24.731251)"
       gradientUnits="userSpaceOnUse"
       xlink:href="#linearGradient3824"
       id="radialGradient2528"
       fy="9.488533"
       fx="24"
       r="18.5"
       cy="9.488533"
       cx="24" />
    <linearGradient
       id="linearGradient3924">
      <stop
         offset="0"
         style="stop-color:#ffffff;stop-opacity:1"
         id="stop3926" />
      <stop
         offset="1"
         style="stop-color:#ffffff;stop-opacity:0"
         id="stop3928" />
    </linearGradient>
    <linearGradient
       spreadMethod="reflect"
       gradientTransform="matrix(1.4615385,0,0,1.4324324,-3.0769235,-3.8108103)"
       gradientUnits="userSpaceOnUse"
       xlink:href="#linearGradient3924"
       id="linearGradient2525"
       y2="6"
       x2="17"
       y1="25"
       x1="17" />
  </defs>
  <g
     id="layer1">
    <g
       style="display:inline"
       id="g2036"
       transform="matrix(1.5000021,0,0,0.5555561,-4.0000114,35.888881)">
      <g
         style="opacity:0.4"
         id="g3712"
         transform="matrix(1.052632,0,0,1.285713,-1.263158,-13.42854)">
        <rect
           style="fill:url(#radialGradient2873-966-168);fill-opacity:1;stroke:none"
           id="rect2801"
           y="40"
           x="38"
           height="7"
           width="5" />
        <rect
           style="fill:url(#radialGradient2875-742-326);fill-opacity:1;stroke:none"
           id="rect3696"
           transform="scale(-1,-1)"
           y="-47"
           x="-10"
           height="7"
           width="5" />
        <rect
           style="fill:url(#linearGradient2877-634-617);fill-opacity:1;stroke:none"
           id="rect3700"
           y="40"
           x="10"
           height="7.0000005"
           width="28" />
      </g>
    </g>
    <rect
       style="opacity:1;fill:url(#radialGradient2535);fill-opacity:1;fill-rule:nonzero;stroke:url(#linearGradient2537);stroke-width:0.99999994;stroke-linecap:round;stroke-linejoin:round;marker:none;marker-start:none;marker-mid:none;marker-end:none;stroke-miterlimit:4;stroke-dasharray:none;stroke-dashoffset:0;stroke-opacity:1;visibility:visible;display:inline;overflow:visible;enable-background:accumulate"
       id="rect5505"
       y="4.5000005"
       x="4.5"
       ry="3"
       rx="3"
       height="55"
       width="55" />
    <rect
       style="opacity:0.4;fill:none;stroke:url(#linearGradient3319);stroke-width:0.99999964;stroke-linecap:round;stroke-linejoin:round;stroke-miterlimit:4;stroke-dasharray:none;stroke-dashoffset:0;stroke-opacity:1"
       id="rect6741"
       y="5.5"
       x="5.5"
       ry="2"
       rx="2"
       height="53.000004"
       width="53" />
    <path
       style="opacity:0.8;fill:none;stroke:#ffffff;stroke-width:0.99999994px;stroke-linecap:butt;stroke-linejoin:miter;stroke-opacity:1"
       id="path3701"
       d="M 5.4999999,34.48133 C 11.207106,20.009927 16.737584,40.940044 20.556818,37.328744 C 23.847702,34.217028 24.283958,25.262279 27.784092,21.952707 C 30.920668,18.986894 33.104113,31.53895 33.806818,32.203397 C 38.116716,36.27865 38.539432,25.573437 40.431816,27.362793 C 43.555346,30.316267 40.06508,38.120938 43.443182,41.315124 C 46.153556,43.877936 48.931518,18.686523 58.499999,34.196588" />
    <path
       style="opacity:0.4;fill:url(#radialGradient2528);fill-opacity:1;stroke:none"
       id="path3782"
       d="M 29.695428,21.796582 C 28.943613,19.825665 25.89498,25.263763 25.133229,27.161147 C 23.793706,30.699222 23.709377,34.271118 21.060334,37.12244 C 19.36434,38.688871 17.956734,37.402902 16.947376,36.004988 C 15.172433,33.964994 12.791402,30.795776 10.284779,29.58319 C 7.7116701,29.565691 7.1359463,32.849361 6,34.318376 L 6,56.024938 C 6,57.111319 6.8695008,58 7.9324329,58 L 56.067567,58 C 57.130499,58 58,57.111319 58,56.024938 L 58,33.794105 C 56.646217,31.701899 54.802498,29.938897 52.913116,29.472393 C 50.298511,29.459608 48.942269,32.672311 47.898649,34.658355 C 46.730784,36.966752 46.212305,39.097654 44.628617,41.163289 C 42.299322,42.636681 41.896724,39.327226 41.860968,37.510151 C 41.538406,34.521469 41.785429,30.456964 40.392369,27.674037 C 39.267217,26.702396 38.674388,30.639396 37.877424,31.470373 C 37.147779,34.074634 34.218245,34.354097 33.488632,31.740648 L 29.695428,21.796582 z" />
    <path
       style="opacity:0.3;fill:none;stroke:url(#linearGradient2525);stroke-width:0.99999994px;stroke-linecap:square;stroke-linejoin:miter;marker:none;stroke-miterlimit:4;stroke-dasharray:none;stroke-dashoffset:0;stroke-opacity:1;visibility:visible;display:inline;overflow:visible;enable-background:accumulate"
       id="path3834-9-0"
       d="M 22.500001,5.4999998 L 22.500001,58.499998 L 22.500001,5.4999998 z M 41.500002,5.4999998 L 41.500002,58.499998 L 41.500002,5.4999998 z" />
    <path
       style="font-size:4px;font-style:normal;font-variant:normal;font-weight:bold;font-stretch:normal;opacity:0.4;fill:#ffffff;fill-opacity:1;stroke:none;font-family:URW Gothic L;-inkscape-font-specification:Andale Mono Bold"
       id="text3934"
       d="M 8,54.894044 C 8.6708284,55.074042 9.0688176,54.778913 9.1879785,53.998245 C 9.3691141,53.303472 10.240436,53.810592 10.731891,53.65621 C 11.116942,53.972963 10.97913,55.187139 11.71949,54.894044 C 12.516644,55.069299 11.609339,53.944047 11.589117,53.495642 C 11.175912,52.365338 10.762707,51.235034 10.349502,50.10473 C 9.5987089,49.812291 9.5499741,50.728374 9.3037592,51.304515 C 8.8691737,52.501025 8.4345863,53.697534 8,54.894044 z M 9.5983394,52.807225 C 9.7889264,52.496828 9.9795143,50.809767 10.170102,51.76413 C 10.475156,52.477186 10.627402,53.066151 9.735526,52.807225 L 9.6411301,52.807225 L 9.5983374,52.807225 L 9.5983394,52.807225 z M 12.525243,50.10473 C 12.604765,51.48854 12.328421,52.950795 12.751156,54.265407 C 13.92468,56.059587 15.830527,54.166348 15.343515,52.379518 C 15.343515,51.621256 15.343515,50.862992 15.343515,50.10473 C 14.540909,49.840769 14.469145,50.415438 14.569762,51.187912 C 14.531327,52.056843 14.662612,52.956105 14.4681,53.798789 C 13.199138,54.882682 13.241961,52.674609 13.298997,51.729609 C 13.148944,51.251849 13.624476,50.056237 13.015809,50.10473 C 12.852286,50.10473 12.688765,50.10473 12.525243,50.10473 L 12.525243,50.10473 z M 17.651364,53.280324 C 18.227444,53.280324 18.803523,53.280324 19.379603,53.280324 C 18.170598,55.815169 15.266848,52.177887 17.544055,50.998271 C 18.306654,50.274747 19.934011,52.340505 20.036507,51.199544 C 19.104567,49.308126 16.28052,49.829553 15.973139,51.9891 C 15.515794,54.046556 17.729757,55.717045 19.264352,54.686848 C 19.919391,54.492361 21.103665,52.17436 19.812893,52.450782 C 19.092383,52.450782 18.371874,52.450782 17.651364,52.450782 C 17.651364,52.727296 17.651364,53.00381 17.651364,53.280324 z M 26.891406,53.526595 C 26.956667,56.026947 30.605753,54.806012 29.384663,52.654015 C 28.752001,52.381149 26.908193,50.861605 28.561755,51.007182 C 29.134506,52.178076 30.081604,50.642023 28.808142,50.154956 C 26.883385,49.214283 26.425238,52.861495 28.436091,52.917399 C 29.59644,53.844804 27.778089,54.590026 27.510256,53.526595 C 27.303973,53.526595 27.09769,53.526595 26.891406,53.526595 L 26.891406,53.526595 z M 30.130619,54.894044 C 30.878018,54.894044 31.625415,54.894044 32.372812,54.894044 C 32.62601,53.923341 31.980893,53.983441 31.334452,54.045059 C 30.716539,54.428828 30.705427,52.75952 31.187563,52.93036 C 31.774497,52.92145 32.582297,53.166134 32.310686,52.172133 C 32.042794,51.803056 30.85243,52.492503 30.904373,51.75642 C 30.639426,50.78766 31.331412,50.916969 31.942733,50.953716 C 32.654954,51.245819 32.518463,49.657943 31.806436,50.10473 C 31.280354,50.178157 30.49887,49.958507 30.130622,50.213057 C 30.130622,51.773388 30.130622,53.333719 30.130622,54.894052 L 30.130619,54.894044 z M 33.064849,54.894044 C 33.867456,55.158004 33.93922,54.583336 33.838602,53.810862 C 33.487523,52.278578 36.118683,53.643397 35.730629,51.582353 C 35.743336,49.870907 34.101289,50.095836 33.064849,50.10473 C 33.064849,51.701167 33.064849,53.297607 33.064849,54.894044 L 33.064849,54.894044 z M 33.838602,52.223953 C 33.661353,51.311126 33.948058,50.370429 34.855214,51.212138 C 35.270582,52.088103 34.396033,52.300383 33.838602,52.223953 z M 42.540424,54.894044 C 43.34303,55.158004 43.414795,54.583336 43.314179,53.810862 C 43.314179,53.011859 43.314179,52.212854 43.314179,51.413852 C 43.895906,52.573916 44.477633,53.733981 45.059361,54.894044 C 45.796884,55.084866 46.099713,54.776872 45.923481,53.919179 C 45.923481,52.647697 45.923481,51.376214 45.923481,50.10473 C 45.120874,49.840769 45.049109,50.415438 45.149726,51.187912 C 45.149726,51.989076 45.149726,52.790239 45.149726,53.591403 C 44.573647,52.42918 43.997567,51.266954 43.421487,50.10473 C 42.684969,49.921543 42.359155,50.209638 42.540424,51.079594 C 42.540424,52.351077 42.540424,53.622561 42.540424,54.894044 L 42.540424,54.894044 z M 48.709189,50.02048 C 46.927881,49.876006 45.796974,52.578919 47.00428,54.082838 C 48.054846,55.666583 50.562499,55.015167 50.812711,53.004712 C 51.110955,51.52119 50.044352,49.9797 48.709189,50.02048 z M 48.697893,50.875945 C 51.068343,50.888097 49.913542,55.415176 47.903667,53.849419 C 46.761079,53.03255 47.326637,50.790342 48.697893,50.875945 z M 52.752159,54.894044 C 53.515863,55.187528 53.565207,54.284811 53.793556,53.681839 C 54.195704,52.489469 54.597852,51.297099 55,50.10473 C 54.271321,49.872671 53.988118,50.363891 53.871631,51.12579 C 53.602016,51.999508 53.332404,52.873225 53.062791,53.746942 C 52.688151,52.532872 52.313512,51.3188 51.938871,50.10473 C 51.060681,49.875354 51.093962,50.360893 51.468351,51.11398 C 51.896286,52.374002 52.324223,53.634022 52.752159,54.894044 L 52.752159,54.894044 z" />
  </g>
</svg>
