<?xml version="1.0" encoding="UTF-8" standalone="no"?>
<svg
   version="1.0"
   width="64"
   height="64"
   id="svg3331"
   sodipodi:docname="libreoffice-math.svg"
   inkscape:version="1.1.2 (0a00cf5339, 2022-02-04)"
   xmlns:inkscape="http://www.inkscape.org/namespaces/inkscape"
   xmlns:sodipodi="http://sodipodi.sourceforge.net/DTD/sodipodi-0.dtd"
   xmlns:xlink="http://www.w3.org/1999/xlink"
   xmlns="http://www.w3.org/2000/svg"
   xmlns:svg="http://www.w3.org/2000/svg"
   xmlns:rdf="http://www.w3.org/1999/02/22-rdf-syntax-ns#"
   xmlns:cc="http://creativecommons.org/ns#"
   xmlns:dc="http://purl.org/dc/elements/1.1/">
  <sodipodi:namedview
     id="namedview53"
     pagecolor="#ffffff"
     bordercolor="#666666"
     borderopacity="1.0"
     inkscape:pageshadow="2"
     inkscape:pageopacity="0.0"
     inkscape:pagecheckerboard="0"
     showgrid="false"
     inkscape:zoom="7.5351066"
     inkscape:cx="31.651842"
     inkscape:cy="49.966115"
     inkscape:window-width="1317"
     inkscape:window-height="890"
     inkscape:window-x="633"
     inkscape:window-y="192"
     inkscape:window-maximized="0"
     inkscape:current-layer="svg3331"
     inkscape:snap-bbox="true"
     inkscape:bbox-nodes="true"
     inkscape:snap-bbox-edge-midpoints="true"
     inkscape:snap-smooth-nodes="true"
     inkscape:snap-intersection-paths="true" />
  <metadata
     id="metadata143580">
    <rdf:RDF>
      <cc:Work
         rdf:about="">
        <dc:format>image/svg+xml</dc:format>
        <dc:type
           rdf:resource="http://purl.org/dc/dcmitype/StillImage" />
      </cc:Work>
    </rdf:RDF>
  </metadata>
  <defs
     id="defs3333">
    <linearGradient
       id="linearGradient3702-501-757">
      <stop
         id="stop2895"
         style="stop-color:#181818;stop-opacity:0"
         offset="0" />
      <stop
         id="stop2897"
         style="stop-color:#181818;stop-opacity:1"
         offset="0.5" />
      <stop
         id="stop2899"
         style="stop-color:#181818;stop-opacity:0"
         offset="1" />
    </linearGradient>
    <linearGradient
       x1="25.058096"
       y1="47.027729"
       x2="25.058096"
       y2="39.999443"
       id="linearGradient2877-634-617"
       xlink:href="#linearGradient3702-501-757"
       gradientUnits="userSpaceOnUse" />
    <linearGradient
       id="linearGradient3688-464-309">
      <stop
         id="stop2889"
         style="stop-color:#181818;stop-opacity:1"
         offset="0" />
      <stop
         id="stop2891"
         style="stop-color:#181818;stop-opacity:0"
         offset="1" />
    </linearGradient>
    <radialGradient
       cx="4.9929786"
       cy="43.5"
       r="2.5"
       fx="4.9929786"
       fy="43.5"
       id="radialGradient2875-742-326"
       xlink:href="#linearGradient3688-464-309"
       gradientUnits="userSpaceOnUse"
       gradientTransform="matrix(2.003784,0,0,1.4,-20.01187,-104.4)" />
    <linearGradient
       id="linearGradient3688-166-749">
      <stop
         id="stop2883"
         style="stop-color:#181818;stop-opacity:1"
         offset="0" />
      <stop
         id="stop2885"
         style="stop-color:#181818;stop-opacity:0"
         offset="1" />
    </linearGradient>
    <radialGradient
       cx="4.9929786"
       cy="43.5"
       r="2.5"
       fx="4.9929786"
       fy="43.5"
       id="radialGradient2873-966-168"
       xlink:href="#linearGradient3688-166-749"
       gradientUnits="userSpaceOnUse"
       gradientTransform="matrix(2.003784,0,0,1.4,27.98813,-17.4)" />
    <linearGradient
       id="linearGradient3308-4-6-931-761">
      <stop
         id="stop2919"
         style="stop-color:#ffffff;stop-opacity:1"
         offset="0" />
      <stop
         id="stop2921"
         style="stop-color:#ffffff;stop-opacity:0"
         offset="1" />
    </linearGradient>
    <linearGradient
       xlink:href="#linearGradient3308-4-6-931-761"
       id="linearGradient3039"
       gradientUnits="userSpaceOnUse"
       gradientTransform="matrix(1.4324331,0,0,1.432432,-2.3783784,-2.3783618)"
       x1="23.99999"
       y1="9.0873976"
       x2="23.99999"
       y2="50.794746" />
    <linearGradient
       inkscape:collect="always"
       xlink:href="#linearGradient36984-7"
       id="linearGradient1136"
       x1="16.476357"
       y1="63.728039"
       x2="16.476357"
       y2="6.6716003"
       gradientUnits="userSpaceOnUse" />
    <linearGradient
       inkscape:collect="always"
       id="linearGradient22029">
      <stop
         style="stop-color:#dedede;stop-opacity:1"
         offset="0"
         id="stop22025" />
      <stop
         style="stop-color:#fafafa;stop-opacity:1"
         offset="1"
         id="stop22027" />
    </linearGradient>
    <linearGradient
       inkscape:collect="always"
       xlink:href="#linearGradient22029"
       id="linearGradient1850"
       x1="19.924658"
       y1="60.550831"
       x2="19.924658"
       y2="11.291978"
       gradientUnits="userSpaceOnUse" />
    <linearGradient
       inkscape:collect="always"
       id="linearGradient36984-7">
      <stop
         style="stop-color:#485a6c;stop-opacity:1"
         offset="0"
         id="stop36980-5" />
      <stop
         style="stop-color:#667885;stop-opacity:1"
         offset="1"
         id="stop36982-3" />
    </linearGradient>
  </defs>
  <g
     style="display:inline"
     id="g2036"
     transform="matrix(1.5000021,0,0,0.5555561,-4.0000114,35.888881)">
    <g
       style="opacity:0.4"
       id="g3712"
       transform="matrix(1.052632,0,0,1.285713,-1.263158,-13.42854)">
      <rect
         style="fill:url(#radialGradient2873-966-168);fill-opacity:1;stroke:none"
         id="rect2801"
         y="40"
         x="38"
         height="7"
         width="5" />
      <rect
         style="fill:url(#radialGradient2875-742-326);fill-opacity:1;stroke:none"
         id="rect3696"
         transform="scale(-1,-1)"
         y="-47"
         x="-10"
         height="7"
         width="5" />
      <rect
         style="fill:url(#linearGradient2877-634-617);fill-opacity:1;stroke:none"
         id="rect3700"
         y="40"
         x="10"
         height="7.0000005"
         width="28" />
    </g>
  </g>
  <rect
     style="color:#000000;display:inline;overflow:visible;visibility:visible;fill:url(#linearGradient1136);fill-opacity:1;fill-rule:nonzero;stroke:#0e141f;stroke-width:1;stroke-linecap:round;stroke-linejoin:round;stroke-miterlimit:4;stroke-dasharray:none;stroke-dashoffset:0;stroke-opacity:0.50196081;marker:none;enable-background:accumulate"
     id="rect5505-21"
     y="4.5"
     x="4.5"
     ry="2.8205128"
     rx="2.8205128"
     height="55"
     width="55" />
  <rect
     style="opacity:0.4;fill:none;stroke:url(#linearGradient3039);stroke-width:0.99999964;stroke-linecap:round;stroke-linejoin:round;stroke-miterlimit:4;stroke-opacity:1;stroke-dasharray:none;stroke-dashoffset:0"
     id="rect6741"
     y="5.5"
     x="5.5"
     ry="2"
     rx="2"
     height="53.000004"
     width="53" />
  <path
     d="M 7.5,7.5 H 42 L 56.5,22 v 34.5 h -49 z"
     style="opacity:1;fill:url(#linearGradient1850);fill-opacity:1;stroke:#0e141f;stroke-width:1px;stroke-linecap:butt;stroke-linejoin:miter;stroke-opacity:0.50196081;paint-order:normal"
     id="path3872"
     sodipodi:nodetypes="cccccc" />
  <g
     fill="#f09e6f"
     id="g21"
     style="fill:#f37329;fill-opacity:1"
     transform="translate(-303,-73)">
    <path
       d="m 325,92 h 2 v 1 h -2 z"
       id="path2300"
       style="fill:#f37329;fill-opacity:1;stroke-width:1" />
    <path
       d="m 328,92 h 2 v 1 h -2 z"
       id="path2378"
       style="fill:#f37329;fill-opacity:1;stroke-width:1" />
    <path
       d="m 331,92 h 2 v 1 h -2 z"
       id="path2380"
       style="fill:#f37329;fill-opacity:1;stroke-width:1" />
    <path
       d="m 334,92 h 2 v 1 h -2 z"
       id="path2382"
       style="fill:#f37329;fill-opacity:1;stroke-width:1" />
    <path
       d="m 337,92 h 2 v 1 h -2 z"
       id="path2384"
       style="fill:#f37329;fill-opacity:1;stroke-width:1" />
    <path
       d="m 340,92 h 2 v 1 h -2 z"
       id="path2386"
       style="fill:#f37329;fill-opacity:1;stroke-width:1" />
    <path
       d="m 343,92 h 2 v 1 h -2 z"
       id="path2388"
       style="fill:#f37329;fill-opacity:1;stroke-width:1" />
    <path
       d="m 346,92 h 2 v 1 h -2 z"
       id="path2390"
       style="fill:#f37329;fill-opacity:1;stroke-width:1" />
    <path
       d="m 325,114 h 2 v 1 h -2 z"
       id="path3473"
       style="fill:#f37329;fill-opacity:1;stroke-width:1"
       sodipodi:nodetypes="ccccc" />
    <path
       d="m 328,114 h 2 v 1 h -2 z"
       id="path3475"
       style="fill:#f37329;fill-opacity:1;stroke-width:1"
       sodipodi:nodetypes="ccccc" />
    <path
       d="m 331,114 h 2 v 1 h -2 z"
       id="path3477"
       style="fill:#f37329;fill-opacity:1;stroke-width:1"
       sodipodi:nodetypes="ccccc" />
    <path
       d="m 334,114 h 2 v 1 h -2 z"
       id="path3479"
       style="fill:#f37329;fill-opacity:1;stroke-width:1"
       sodipodi:nodetypes="ccccc" />
    <path
       d="m 337,114 h 2 v 1 h -2 z"
       id="path3481"
       style="fill:#f37329;fill-opacity:1;stroke-width:1"
       sodipodi:nodetypes="ccccc" />
    <path
       d="m 340,114 h 2 v 1 h -2 z"
       id="path3483"
       style="fill:#f37329;fill-opacity:1;stroke-width:1"
       sodipodi:nodetypes="ccccc" />
    <path
       d="m 343,114 h 2 v 1 h -2 z"
       id="path3485"
       style="fill:#f37329;fill-opacity:1;stroke-width:1"
       sodipodi:nodetypes="ccccc" />
    <path
       d="m 346,114 h 2 v 1 h -2 z"
       id="path3487"
       style="fill:#f37329;fill-opacity:1;stroke-width:1"
       sodipodi:nodetypes="ccccc" />
    <path
       d="m 321,92 v 2 h -1 v -2 z"
       id="path3471-7"
       style="fill:#f37329;fill-opacity:1;stroke-width:0.999997" />
    <path
       d="m 321,95 v 2 h -1 v -2 z"
       id="path3473-5"
       style="fill:#f37329;fill-opacity:1;stroke-width:1" />
    <path
       d="m 321,98 v 1.999997 h -1 V 98 Z"
       id="path3475-3"
       style="fill:#f37329;fill-opacity:1;stroke-width:1" />
    <path
       d="m 321,101 v 2 h -1 v -2 z"
       id="path3477-5"
       style="fill:#f37329;fill-opacity:1;stroke-width:1" />
    <path
       d="m 321,104 v 2 h -1 v -2 z"
       id="path3479-6"
       style="fill:#f37329;fill-opacity:1;stroke-width:1" />
    <path
       d="m 321,107 v 2 h -1 v -2 z"
       id="path3481-2"
       style="fill:#f37329;fill-opacity:1;stroke-width:1" />
    <path
       d="m 321,110 v 2 h -1 v -2 z"
       id="path3483-9"
       style="fill:#f37329;fill-opacity:1;stroke-width:1" />
    <path
       d="m 350,95 v 2 h -1 v -2 z"
       id="path3473-5-9"
       style="fill:#f37329;fill-opacity:1;stroke-width:1"
       sodipodi:nodetypes="ccccc" />
    <path
       d="m 350,98 v 1.999996 h -1 V 98 Z"
       id="path3475-3-3"
       style="fill:#f37329;fill-opacity:1;stroke-width:1"
       sodipodi:nodetypes="ccccc" />
    <path
       d="m 350,101 v 2.00001 h -1 V 101 Z"
       id="path3477-5-6"
       style="fill:#f37329;fill-opacity:1;stroke-width:1"
       sodipodi:nodetypes="ccccc" />
    <path
       d="m 350,104.00001 v 2 h -1 v -2 z"
       id="path3479-6-0"
       style="fill:#f37329;fill-opacity:1;stroke-width:1"
       sodipodi:nodetypes="ccccc" />
    <path
       d="m 350,107.00001 v 2 h -1 v -2 z"
       id="path3481-2-6"
       style="fill:#f37329;fill-opacity:1;stroke-width:1"
       sodipodi:nodetypes="ccccc" />
    <path
       d="m 350,110.00001 v 2 h -1 v -2 z"
       id="path3483-9-2"
       style="fill:#f37329;fill-opacity:1;stroke-width:1"
       sodipodi:nodetypes="ccccc" />
    <path
       d="m 322,92 h 2 v 1 h -2 z"
       id="path4290"
       style="fill:#f37329;fill-opacity:1;stroke-width:1" />
    <path
       d="m 321,113 v 2 h -1 v -2 z"
       id="path4555"
       style="fill:#f37329;fill-opacity:1;stroke-width:0.999997"
       sodipodi:nodetypes="ccccc" />
    <path
       d="m 322,114 h 2 v 1 h -2 z"
       id="path4557"
       style="fill:#f37329;fill-opacity:1;stroke-width:1"
       sodipodi:nodetypes="ccccc" />
    <path
       d="m 350,113 v 2 h -1 v -2 z"
       id="path4721"
       style="fill:#f37329;fill-opacity:1;stroke-width:0.999997"
       sodipodi:nodetypes="ccccc" />
    <path
       d="m 350,92 v 2 h -1 v -2 z"
       id="path4883"
       style="fill:#f37329;fill-opacity:1;stroke-width:0.999997"
       sodipodi:nodetypes="ccccc" />
  </g>
  <path
     d="m 28,24 -3,11 -2.99966,-6 h -3.05468 v 2 h 1.41726 l 3.36329,7 h 2.83683 L 30,26 h 13 v 2 h 2 v -4 z"
     fill="url(#a)"
     id="path23"
     style="fill:#4e6174;fill-opacity:1"
     sodipodi:nodetypes="cccccccccccccc" />
  <path
     d="m 33,37 8,-8"
     fill="none"
     stroke="#666666"
     stroke-linecap="round"
     stroke-width="2"
     id="path25"
     style="stroke:#4e6174;stroke-opacity:1" />
  <path
     d="M 41,37 33,29"
     fill="none"
     stroke="#666666"
     stroke-linecap="round"
     stroke-width="2"
     id="path27"
     style="stroke:#4e6174;stroke-opacity:1" />
  <path
     d="m 41.89653,44 c -0.71051,0 -1.18523,0.10531 -1.42773,0.31641 -0.23971,0.2083 -0.36143,0.62731 -0.36133,1.25781 v 1.02735 c -10e-5,0.428 -0.0754,0.72401 -0.22656,0.88671 -0.1512,0.1629 -0.7268,-0.14467 -0.83008,0.24414 h -0.26562 v 0.61133 h 0.26562 c 0.3995,0 0.67497,0.0825 0.82617,0.24805 0.1542,0.1655 0.23037,0.46373 0.23047,0.89453 v 1.02344 c -10e-5,0.6306 0.12162,1.0506 0.36133,1.26172 0.2425,0.21119 0.71722,0.3164 1.42773,0.3164 h 0.2754 v -0.61523 h -0.30079 c -0.39951,0 -0.6606,-0.0609 -0.7832,-0.1836 -0.1198,-0.1227 -0.17969,-0.38887 -0.17969,-0.79687 v -1.06055 c 0,-0.4451 -0.063,-0.77005 -0.1914,-0.97265 -0.1284,-0.20261 -0.35127,-0.34293 -0.66797,-0.41993 0.3139,-0.0713 0.53371,-0.20755 0.66211,-0.41015 0.1309,-0.2026 0.19726,-0.52857 0.19726,-0.97656 V 45.5918 c 0,-0.4052 0.0598,-0.66831 0.17969,-0.79102 0.1226,-0.12539 0.3837,-0.18935 0.7832,-0.18945 h 0.30079 V 44 Z m 1.96709,0 v 0.61133 h 0.29102 c 0.40241,10e-5 0.66441,0.0639 0.78711,0.18945 0.123,0.12551 0.18358,0.38862 0.18358,0.79102 v 1.06055 c 0,0.44799 0.065,0.77396 0.19336,0.97656 0.1312,0.2026 0.35407,0.33915 0.66798,0.41015 -0.31671,0.077 -0.53958,0.21732 -0.66798,0.41993 -0.1286,0.20259 -0.19336,0.52755 -0.19336,0.97265 v 1.06055 c 0,0.4023 -0.0609,0.66551 -0.18358,0.79101 -0.1227,0.1253 -0.3847,0.18946 -0.78711,0.18946 h -0.29102 v 0.61523 h 0.26563 c 0.71041,0 1.18412,-0.1052 1.42381,-0.3164 0.23971,-0.21111 0.35938,-0.63112 0.35938,-1.26172 v -1.02344 c 0,-0.4308 0.0772,-0.72903 0.22851,-0.89453 0.154,-0.1652 0.4317,-0.24805 0.83399,-0.24805 h 0.27344 v -0.61133 h -0.27344 c -0.4023,0 -0.67998,-0.0815 -0.83399,-0.24414 -0.15089,-0.1627 -0.22851,-0.45871 -0.22851,-0.88671 v -1.02735 c 0,-0.6305 -0.11967,-1.04951 -0.35938,-1.25781 C 45.31336,44.10531 44.83964,44 44.12924,44 Z m -9.76787,0.87891 v 1.36133 H 32.8145 v 0.61328 h 1.28125 v 2.60156 c 0,0.5792 0.12077,0.98781 0.36328,1.22461 0.2426,0.2368 0.65939,0.35547 1.25,0.35547 h 0.9629 V 50.4043 h -0.88672 c -0.33381,0 -0.56708,-0.0692 -0.70118,-0.20899 -0.1341,-0.1399 -0.20117,-0.38643 -0.20117,-0.74023 v -2.60156 h 1.78907 v -0.61328 h -1.78907 v -1.36133 z m -15.27734,1.11914 c -0.57641,0 -1.01898,0.12585 -1.33008,0.37695 -0.31101,0.2482 -0.4668,0.60115 -0.4668,1.06055 0,0.3624 0.1042,0.65013 0.3125,0.86133 0.20831,0.2082 0.53849,0.35631 0.99219,0.44531 l 0.29492,0.0586 0.0352,0.0117 c 0.699,0.1399 1.04883,0.39066 1.04883,0.75586 0,0.2539 -0.0959,0.4531 -0.28711,0.5957 -0.1912,0.1397 -0.4605,0.20899 -0.80859,0.20899 -0.23972,0 -0.49548,-0.0373 -0.76368,-0.11133 -0.2682,-0.0771 -0.54789,-0.1906 -0.84179,-0.3418 v 0.81446 c 0.3025,0.0998 0.58209,0.1717 0.84179,0.2207 0.2596,0.051 0.50919,0.0781 0.7461,0.0781 0.5992,0 1.06759,-0.13303 1.40429,-0.39843 0.3367,-0.2682 0.50391,-0.6396 0.50391,-1.11328 0,-0.35661 -0.10023,-0.64665 -0.30273,-0.86915 -0.1998,-0.2226 -0.49581,-0.36937 -0.88672,-0.44335 l -0.31641,-0.0606 c -0.52221,-0.0999 -0.84927,-0.203 -0.98047,-0.3086 -0.1309,-0.1056 -0.19726,-0.26451 -0.19726,-0.47851 0,-0.2368 0.0876,-0.41324 0.26171,-0.52734 0.17691,-0.1165 0.44419,-0.17578 0.80079,-0.17578 0.2369,0 0.46895,0.0336 0.69726,0.0996 0.2282,0.0656 0.45429,0.16362 0.67969,0.29492 v -0.76953 -0.002 c -0.2283,-0.0942 -0.46037,-0.16494 -0.69727,-0.21094 -0.23681,-0.049 -0.48343,-0.0723 -0.74023,-0.0723 z m 5.02148,0.0195 c -0.57641,0 -1.03031,0.22388 -1.36132,0.67188 -0.331,0.44799 -0.4961,1.06812 -0.4961,1.86132 0,0.7789 0.1651,1.39084 0.4961,1.83594 0.33381,0.4422 0.78781,0.66406 1.36132,0.66406 0.2882,0 0.54101,-0.0639 0.75782,-0.18945 0.2198,-0.1283 0.39308,-0.31008 0.52148,-0.54688 v 2.43555 h 0.79297 v -6.61718 h -0.79297 v 0.61132 c -0.1313,-0.2368 -0.30569,-0.41646 -0.52539,-0.53906 -0.21691,-0.1254 -0.46861,-0.1875 -0.75391,-0.1875 z m 6.6836,0.0762 c -0.0413,0.37152 -0.69875,0.0908 -0.97266,0.27344 -0.2711,0.1797 -0.47231,0.43979 -0.60351,0.7793 V 46.20898 H 28.1563 v 4.79297 h 0.79102 v -2.38281 c 0,-0.582 0.13092,-1.02774 0.39062,-1.33594 0.25961,-0.30819 0.63419,-0.46093 1.125,-0.46093 0.2083,0 0.40022,0.0298 0.57422,0.0898 0.1741,0.06 0.34536,0.15385 0.51367,0.28515 v -0.80273 c -0.1541,-0.1028 -0.31607,-0.17952 -0.48437,-0.22852 -0.1684,-0.049 -0.52154,-0.26509 -0.54297,-0.0723 z m -6.5586,0.59181 c 0.3795,0 0.66538,0.15681 0.85938,0.4707 0.1973,0.311 0.29492,0.76915 0.29492,1.37695 0,0.6077 -0.098,1.06892 -0.29492,1.38282 -0.194,0.311 -0.47988,0.46679 -0.85938,0.46679 -0.3795,0 -0.66722,-0.15579 -0.86132,-0.46679 -0.1907,-0.311 -0.28711,-0.77222 -0.28711,-1.38282 0,-0.6107 0.096,-1.06986 0.28711,-1.38086 0.1941,-0.31099 0.48182,-0.46679 0.86132,-0.46679 z"
     fill="url(#a)"
     id="path25-6"
     style="fill:#273445;fill-opacity:1"
     sodipodi:nodetypes="sccccsccsccccsccscsssccssccccsccccsscccsscsccscsscsccscsscsccccccscsccscsccccccccsccccscsccccscsccccscscccccccssscsccccccccssccccccscsccccssscscscscs" />
</svg>
