<?xml version="1.0" encoding="UTF-8" standalone="no"?>
<svg
   width="64"
   height="64"
   id="svg2"
   version="1.1"
   sodipodi:docname="menulibre.svg"
   inkscape:version="1.2.2 (b0a8486541, 2022-12-01)"
   xmlns:inkscape="http://www.inkscape.org/namespaces/inkscape"
   xmlns:sodipodi="http://sodipodi.sourceforge.net/DTD/sodipodi-0.dtd"
   xmlns:xlink="http://www.w3.org/1999/xlink"
   xmlns="http://www.w3.org/2000/svg"
   xmlns:svg="http://www.w3.org/2000/svg"
   xmlns:rdf="http://www.w3.org/1999/02/22-rdf-syntax-ns#"
   xmlns:cc="http://creativecommons.org/ns#"
   xmlns:dc="http://purl.org/dc/elements/1.1/">
  <sodipodi:namedview
     id="namedview143"
     pagecolor="#ffffff"
     bordercolor="#666666"
     borderopacity="1.0"
     inkscape:pageshadow="2"
     inkscape:pageopacity="0.0"
     inkscape:pagecheckerboard="0"
     showgrid="false"
     inkscape:zoom="7.5351066"
     inkscape:cx="35.500493"
     inkscape:cy="20.769447"
     inkscape:window-width="1317"
     inkscape:window-height="890"
     inkscape:window-x="788"
     inkscape:window-y="31"
     inkscape:window-maximized="0"
     inkscape:current-layer="layer1"
     inkscape:showpageshadow="2"
     inkscape:deskcolor="#d1d1d1" />
  <defs
     id="defs4">
    <linearGradient
       inkscape:collect="always"
       id="linearGradient2048">
      <stop
         style="stop-color:#f2f2f2;stop-opacity:1;"
         offset="0"
         id="stop2044" />
      <stop
         style="stop-color:#e3e3e3;stop-opacity:1;"
         offset="1"
         id="stop2046" />
    </linearGradient>
    <linearGradient
       id="linearGradient4322">
      <stop
         style="stop-color:#696969;stop-opacity:1;"
         offset="0"
         id="stop4324" />
      <stop
         style="stop-color:#949494;stop-opacity:1;"
         offset="1"
         id="stop4326" />
    </linearGradient>
    <linearGradient
       id="linearGradient4308">
      <stop
         style="stop-color:#b3b3b3;stop-opacity:1;"
         offset="0"
         id="stop4310" />
      <stop
         style="stop-color:#8e8e8e;stop-opacity:1;"
         offset="1"
         id="stop4312" />
    </linearGradient>
    <linearGradient
       id="linearGradient4299">
      <stop
         style="stop-color:#7d7d7d;stop-opacity:1;"
         offset="0"
         id="stop4301" />
      <stop
         style="stop-color:#a0a0a0;stop-opacity:1;"
         offset="1"
         id="stop4303" />
    </linearGradient>
    <linearGradient
       id="linearGradient4236">
      <stop
         style="stop-color:#ffffff;stop-opacity:1;"
         offset="0"
         id="stop4238" />
      <stop
         style="stop-color:#ffffff;stop-opacity:0;"
         offset="1"
         id="stop4240" />
    </linearGradient>
    <linearGradient
       id="linearGradient4226">
      <stop
         style="stop-color:#ffffff;stop-opacity:1;"
         offset="0"
         id="stop4228" />
      <stop
         style="stop-color:#ffffff;stop-opacity:0;"
         offset="1"
         id="stop4230" />
    </linearGradient>
    <linearGradient
       id="linearGradient4194">
      <stop
         style="stop-color:#ffffff;stop-opacity:1;"
         offset="0"
         id="stop4196" />
      <stop
         style="stop-color:#ffffff;stop-opacity:0;"
         offset="1"
         id="stop4198" />
    </linearGradient>
    <linearGradient
       id="linearGradient4184">
      <stop
         style="stop-color:#ffffff;stop-opacity:1;"
         offset="0"
         id="stop4186" />
      <stop
         style="stop-color:#ffffff;stop-opacity:0;"
         offset="1"
         id="stop4188" />
    </linearGradient>
    <linearGradient
       id="linearGradient4106">
      <stop
         style="stop-color:#34b2f4;stop-opacity:1;"
         offset="0"
         id="stop4108" />
      <stop
         style="stop-color:#136ebc;stop-opacity:1;"
         offset="1"
         id="stop4110" />
    </linearGradient>
    <linearGradient
       id="linearGradient3707-319-631-407-324-6">
      <stop
         id="stop3760-3"
         style="stop-color:#0e73c8;stop-opacity:1;"
         offset="0" />
      <stop
         id="stop3762-1"
         style="stop-color:#40a5e4;stop-opacity:1;"
         offset="1" />
    </linearGradient>
    <linearGradient
       id="linearGradient2867-449-88-871-390-598-476-591-434-148-57-177-0">
      <stop
         id="stop3750-4"
         style="stop-color:#90dbec;stop-opacity:1;"
         offset="0" />
      <stop
         id="stop3752-4"
         style="stop-color:#55c1ec;stop-opacity:1;"
         offset="0.26238" />
      <stop
         id="stop3754-4"
         style="stop-color:#3689e6;stop-opacity:1;"
         offset="0.704952" />
      <stop
         id="stop3756-4"
         style="stop-color:#2b63a0;stop-opacity:1;"
         offset="1" />
    </linearGradient>
    <filter
       id="filter4128"
       x="-0.29760004"
       width="1.5952001"
       y="-1.2399999"
       height="3.4799998"
       color-interpolation-filters="sRGB">
      <feGaussianBlur
         stdDeviation="0.78286824"
         id="feGaussianBlur4130" />
    </filter>
    <linearGradient
       xlink:href="#linearGradient4184"
       id="linearGradient4190"
       x1="22.667517"
       y1="1020.6206"
       x2="22.667517"
       y2="1069.5356"
       gradientUnits="userSpaceOnUse"
       gradientTransform="matrix(1.3235101,0,0,1.3220399,0.89718498,-340.02434)" />
    <linearGradient
       xlink:href="#linearGradient4194"
       id="linearGradient4127"
       gradientUnits="userSpaceOnUse"
       gradientTransform="matrix(1.2222222,0,0,1,2.7777769,-25.999963)"
       x1="31.704607"
       y1="1039.8879"
       x2="31.704607"
       y2="1034.458" />
    <linearGradient
       xlink:href="#linearGradient4322"
       id="linearGradient4129"
       gradientUnits="userSpaceOnUse"
       gradientTransform="matrix(1.2222222,0,0,1,2.777777,-5.9999626)"
       x1="22.914341"
       y1="1016.0691"
       x2="22.914341"
       y2="1017.8691" />
    <linearGradient
       xlink:href="#linearGradient4236"
       id="linearGradient4131"
       gradientUnits="userSpaceOnUse"
       gradientTransform="translate(4.9999994,-15.999963)"
       x1="10.757614"
       y1="1030.2664"
       x2="10.757614"
       y2="1023.424" />
    <radialGradient
       xlink:href="#linearGradient4308"
       id="radialGradient4133"
       gradientUnits="userSpaceOnUse"
       gradientTransform="matrix(6.6544265e-7,3.0321498,-2.7493289,6.0337412e-7,2836.2448,967.50394)"
       cx="13.631346"
       cy="1024.8368"
       fx="13.631346"
       fy="1024.8368"
       r="1.9999999" />
    <linearGradient
       xlink:href="#linearGradient4299"
       id="linearGradient4135"
       gradientUnits="userSpaceOnUse"
       gradientTransform="translate(4.9999994,-15.999963)"
       x1="11"
       y1="1024.8933"
       x2="11"
       y2="1029.6985" />
    <linearGradient
       xlink:href="#linearGradient4194"
       id="linearGradient4145"
       gradientUnits="userSpaceOnUse"
       gradientTransform="matrix(1.2222222,0,0,1,2.7777769,-33.999963)"
       x1="31.704607"
       y1="1039.8879"
       x2="31.704607"
       y2="1034.458" />
    <linearGradient
       xlink:href="#linearGradient4322"
       id="linearGradient4147"
       gradientUnits="userSpaceOnUse"
       gradientTransform="matrix(1.2222222,0,0,1,2.777777,-13.999963)"
       x1="22.914341"
       y1="1016.0691"
       x2="22.914341"
       y2="1017.8691" />
    <linearGradient
       xlink:href="#linearGradient4236"
       id="linearGradient4149"
       gradientUnits="userSpaceOnUse"
       gradientTransform="translate(4.9999994,-23.999963)"
       x1="10.757614"
       y1="1030.2664"
       x2="10.757614"
       y2="1023.424" />
    <radialGradient
       xlink:href="#linearGradient4308"
       id="radialGradient4151"
       gradientUnits="userSpaceOnUse"
       gradientTransform="matrix(6.6544265e-7,3.0321498,-2.7493289,6.0337412e-7,2836.2448,959.50394)"
       cx="13.631346"
       cy="1024.8368"
       fx="13.631346"
       fy="1024.8368"
       r="1.9999999" />
    <linearGradient
       xlink:href="#linearGradient4299"
       id="linearGradient4153"
       gradientUnits="userSpaceOnUse"
       gradientTransform="translate(4.9999994,-23.999963)"
       x1="11"
       y1="1024.8933"
       x2="11"
       y2="1029.6985" />
    <linearGradient
       xlink:href="#linearGradient4226"
       id="linearGradient4167"
       gradientUnits="userSpaceOnUse"
       gradientTransform="translate(5.0000002,-7.0001007)"
       x1="11.904188"
       y1="1040.6718"
       x2="11.904188"
       y2="1033.1851" />
    <radialGradient
       xlink:href="#linearGradient2867-449-88-871-390-598-476-591-434-148-57-177-0"
       id="radialGradient4169"
       gradientUnits="userSpaceOnUse"
       gradientTransform="matrix(0,0.47013694,-0.3203765,0,20.707265,1025.5622)"
       cx="0.75304806"
       cy="8.4497671"
       fx="0.75304806"
       fy="8.4497671"
       r="19.99999" />
    <linearGradient
       xlink:href="#linearGradient3707-319-631-407-324-6"
       id="linearGradient4171"
       gradientUnits="userSpaceOnUse"
       gradientTransform="translate(5.0000002,-7.0001007)"
       x1="9.6843271"
       y1="1034.521"
       x2="9.6843271"
       y2="1041.2181" />
    <linearGradient
       xlink:href="#linearGradient4194"
       id="linearGradient4174"
       gradientUnits="userSpaceOnUse"
       gradientTransform="matrix(1.2222222,0,0,1,2.7777778,-7.0001007)"
       x1="31.704607"
       y1="1039.8879"
       x2="31.704607"
       y2="1034.458" />
    <linearGradient
       xlink:href="#linearGradient4106"
       id="linearGradient4176"
       gradientUnits="userSpaceOnUse"
       gradientTransform="matrix(1.2222222,0,0,1,2.777778,-8.0001247)"
       x1="28.553572"
       y1="1038.7977"
       x2="28.553572"
       y2="1037.4253" />
    <linearGradient
       xlink:href="#linearGradient4194"
       id="linearGradient4178"
       gradientUnits="userSpaceOnUse"
       gradientTransform="matrix(1.2222222,0,0,1,2.7777769,-4.0745563)"
       x1="31.704607"
       y1="1039.8879"
       x2="31.704607"
       y2="1034.458" />
    <linearGradient
       xlink:href="#linearGradient4322"
       id="linearGradient4180"
       gradientUnits="userSpaceOnUse"
       gradientTransform="matrix(1.2222222,0,0,1,2.777777,15.925443)"
       x1="22.914341"
       y1="1016.0691"
       x2="22.914341"
       y2="1017.8691" />
    <linearGradient
       xlink:href="#linearGradient4236"
       id="linearGradient4182"
       gradientUnits="userSpaceOnUse"
       gradientTransform="translate(4.9999994,5.9254438)"
       x1="10.757614"
       y1="1030.2664"
       x2="10.757614"
       y2="1023.424" />
    <radialGradient
       xlink:href="#linearGradient4308"
       id="radialGradient4184"
       gradientUnits="userSpaceOnUse"
       gradientTransform="matrix(6.6544265e-7,3.0321498,-2.7493289,6.0337412e-7,2836.2448,989.42934)"
       cx="13.631346"
       cy="1024.8368"
       fx="13.631346"
       fy="1024.8368"
       r="1.9999999" />
    <linearGradient
       xlink:href="#linearGradient4299"
       id="linearGradient4186"
       gradientUnits="userSpaceOnUse"
       gradientTransform="translate(4.9999994,5.9254438)"
       x1="11"
       y1="1024.8933"
       x2="11"
       y2="1029.6985" />
    <linearGradient
       spreadMethod="pad"
       gradientTransform="matrix(0.87539065,-0.87968181,0.97932539,0.97445279,-3.0169552,27.152318)"
       gradientUnits="userSpaceOnUse"
       xlink:href="#linearGradient1039"
       id="linearGradient3176"
       y2="31.210939"
       x2="23.575972"
       y1="25.356892"
       x1="23.575972" />
    <linearGradient
       id="linearGradient1039">
      <stop
         id="stop1023"
         style="stop-color:#ad5f00;stop-opacity:1"
         offset="0" />
      <stop
         id="stop1025"
         style="stop-color:#ffe16b;stop-opacity:1"
         offset="0.13482948" />
      <stop
         id="stop1027"
         style="stop-color:#f9c440;stop-opacity:1"
         offset="0.20224422" />
      <stop
         id="stop1029"
         style="stop-color:#fff394;stop-opacity:1"
         offset="0.26965895" />
      <stop
         id="stop1031"
         style="stop-color:#f9c440;stop-opacity:1"
         offset="0.44650277" />
      <stop
         id="stop1033"
         style="stop-color:#f9c440;stop-opacity:1"
         offset="0.57114136" />
      <stop
         id="stop1035"
         style="stop-color:#ffe16b;stop-opacity:1"
         offset="0.72038066" />
      <stop
         id="stop1037"
         style="stop-color:#ad5f00;stop-opacity:1"
         offset="1" />
    </linearGradient>
    <linearGradient
       spreadMethod="pad"
       y2="31.210939"
       x2="23.575972"
       y1="25.356892"
       x1="23.575972"
       gradientTransform="matrix(0.87539065,-0.87968181,0.97932539,0.97445279,-3.0169552,27.152318)"
       gradientUnits="userSpaceOnUse"
       id="linearGradient1018"
       xlink:href="#linearGradient3155-40-3" />
    <linearGradient
       id="linearGradient3155-40-3">
      <stop
         offset="0"
         style="stop-color:#555761;stop-opacity:1"
         id="stop2541-6" />
      <stop
         offset="0.13482948"
         style="stop-color:#d4d4d4;stop-opacity:1"
         id="stop2543-7" />
      <stop
         offset="0.20224422"
         style="stop-color:#abacae;stop-opacity:1"
         id="stop2545-5" />
      <stop
         offset="0.26965895"
         style="stop-color:#fafafa;stop-opacity:1"
         id="stop2547-3" />
      <stop
         offset="0.44650277"
         style="stop-color:#abacae;stop-opacity:1"
         id="stop2549-5" />
      <stop
         offset="0.57114136"
         style="stop-color:#7e8087;stop-opacity:1"
         id="stop2551-6" />
      <stop
         offset="0.72038066"
         style="stop-color:#d4d4d4;stop-opacity:1"
         id="stop2553-2" />
      <stop
         offset="1"
         style="stop-color:#555761;stop-opacity:1"
         id="stop2555-9" />
    </linearGradient>
    <linearGradient
       gradientTransform="matrix(0.85064445,-0.85481442,1.146122,1.1404196,-6.2249016,22.651052)"
       gradientUnits="userSpaceOnUse"
       xlink:href="#linearGradient3240-279-1"
       id="linearGradient3171"
       y2="30.000141"
       x2="30.037716"
       y1="24.989594"
       x1="30.037716" />
    <linearGradient
       id="linearGradient3240-279-1">
      <stop
         offset="0"
         style="stop-color:#555761;stop-opacity:1"
         id="stop2559-2" />
      <stop
         offset="0.5"
         style="stop-color:#abacae;stop-opacity:1"
         id="stop2561-7" />
      <stop
         offset="1"
         style="stop-color:#555761;stop-opacity:1"
         id="stop2563-0" />
    </linearGradient>
    <linearGradient
       gradientTransform="matrix(0.85064445,-0.85481442,1.146122,1.1404196,-6.4685146,22.89586)"
       gradientUnits="userSpaceOnUse"
       xlink:href="#linearGradient3223-789-9"
       id="linearGradient3168"
       y2="30.000141"
       x2="30.037716"
       y1="24.989594"
       x1="30.037716" />
    <linearGradient
       id="linearGradient3223-789-9">
      <stop
         offset="0"
         style="stop-color:#abacae;stop-opacity:1"
         id="stop2567-3" />
      <stop
         offset="0.5"
         style="stop-color:#fafafa;stop-opacity:1"
         id="stop2569-6" />
      <stop
         offset="1"
         style="stop-color:#abacae;stop-opacity:1"
         id="stop2571-0" />
    </linearGradient>
    <linearGradient
       gradientTransform="matrix(0.85064445,-0.85481442,1.146122,1.1404196,-5.3783496,21.800349)"
       gradientUnits="userSpaceOnUse"
       xlink:href="#linearGradient3240-279-1"
       id="linearGradient3165"
       y2="30.000141"
       x2="30.037716"
       y1="24.989594"
       x1="30.037716" />
    <linearGradient
       gradientTransform="matrix(0.85064445,-0.85481442,1.146122,1.1404196,-5.6219636,22.045155)"
       gradientUnits="userSpaceOnUse"
       xlink:href="#linearGradient3223-789-9"
       id="linearGradient3162"
       y2="30.000141"
       x2="30.037716"
       y1="24.989594"
       x1="30.037716" />
    <linearGradient
       gradientTransform="matrix(0.85064445,-0.85481442,1.146122,1.1404196,-4.5277046,20.945534)"
       gradientUnits="userSpaceOnUse"
       xlink:href="#linearGradient3240-279-1"
       id="linearGradient3159"
       y2="30.000141"
       x2="30.037716"
       y1="24.989594"
       x1="30.037716" />
    <linearGradient
       gradientTransform="matrix(0.85064445,-0.85481442,1.146122,1.1404196,-4.7713176,21.190343)"
       gradientUnits="userSpaceOnUse"
       xlink:href="#linearGradient3223-789-9"
       id="linearGradient3156"
       y2="30.000141"
       x2="30.037716"
       y1="24.989594"
       x1="30.037716" />
    <linearGradient
       gradientTransform="matrix(0.85064445,-0.85481442,1.1461221,1.1404197,-6.5479896,22.97572)"
       gradientUnits="userSpaceOnUse"
       xlink:href="#linearGradient3290-678-8"
       id="linearGradient3151"
       y2="26.02973"
       x2="9"
       y1="29.056757"
       x1="9" />
    <linearGradient
       id="linearGradient3290-678-8">
      <stop
         offset="0"
         style="stop-color:#fff394;stop-opacity:1"
         id="stop2607-9" />
      <stop
         offset="1"
         style="stop-color:#fafafa;stop-opacity:1"
         id="stop2609-7" />
    </linearGradient>
    <linearGradient
       gradientTransform="matrix(0.74712277,0.03224699,0.03220731,0.74620134,24.394615,18.140574)"
       gradientUnits="userSpaceOnUse"
       xlink:href="#linearGradient3191-577-3"
       id="linearGradient3153"
       y2="41.391716"
       x2="9.5220556"
       y1="37.371799"
       x1="5.5178981" />
    <linearGradient
       id="linearGradient3191-577-3">
      <stop
         offset="0"
         style="stop-color:#d48e15;stop-opacity:1"
         id="stop2613-6" />
      <stop
         offset="1"
         style="stop-color:#ad5f00;stop-opacity:1"
         id="stop2615-1" />
    </linearGradient>
    <linearGradient
       inkscape:collect="always"
       xlink:href="#linearGradient2048"
       id="linearGradient2050"
       x1="30.916862"
       y1="988.36218"
       x2="30.916862"
       y2="1052.3622"
       gradientUnits="userSpaceOnUse" />
  </defs>
  <metadata
     id="metadata7">
    <rdf:RDF>
      <cc:Work
         rdf:about="">
        <dc:format>image/svg+xml</dc:format>
        <dc:type
           rdf:resource="http://purl.org/dc/dcmitype/StillImage" />
      </cc:Work>
    </rdf:RDF>
  </metadata>
  <g
     id="layer1"
     transform="translate(0,-988.3622)">
    <path
       style="opacity:0.07999998;fill:#000000;fill-opacity:1;stroke:none;filter:url(#filter4128)"
       id="path4114"
       d="m 17.5514,45.853424 c 0,0.418419 -1.413315,0.757615 -3.156727,0.757615 -1.743412,0 -3.156726,-0.339196 -3.156726,-0.757615 0,-0.418419 1.413314,-0.757614 3.156726,-0.757614 1.743412,0 3.156727,0.339195 3.156727,0.757614 z"
       transform="matrix(1.5886852,0,0,1.5886852,-2.8686047,975.32698)" />
    <path
       style="color:#000000;fill:url(#linearGradient2050);fill-opacity:1;stroke:#000000;stroke-width:0.99999994;stroke-linecap:round;stroke-linejoin:round;stroke-miterlimit:4;stroke-opacity:0.30000001;stroke-dashoffset:0;marker:none;visibility:visible;display:inline;overflow:visible;enable-background:accumulate"
       d="m 10.910256,991.84951 42.17949,0 c 1.335282,0 2.410256,1.09985 2.410256,2.47097 l 0,45.04922 c 0,1.3713 -1.074974,2.4935 -2.410256,2.4925 l -27.589746,0 -5,6 -5,-6 -4.589744,0 C 9.5749744,1041.8622 8.5,1040.741 8.5,1039.3697 l 0,-45.04922 c 0,-1.37112 1.0749744,-2.47097 2.410256,-2.47097 z"
       id="rect5505-21-3-2" />
    <path
       id="path4096"
       d="m 11.807659,992.8622 40.384027,0 c 2.155816,0 2.307658,0.10905 2.307658,2.39275 l 0,42.67735 c 0,1.6576 0.10358,2.9742 -2.307658,2.9299 l -27.191686,0 -4.5,5.5 -4.5,-5.5 -4.192341,0 c -2.1140345,0 -2.3076583,-1.0636 -2.3076583,-2.9299 l 0,-42.67736 c 0,-2.39223 0.3692978,-2.39274 2.3076583,-2.39274 z"
       style="opacity:0.7;color:#000000;fill:none;stroke:url(#linearGradient4190);stroke-width:1;stroke-linecap:round;stroke-linejoin:miter;stroke-miterlimit:4;stroke-opacity:1;stroke-dasharray:none;stroke-dashoffset:0;marker:none;visibility:visible;display:inline;overflow:visible;enable-background:accumulate" />
    <g
       id="g4161"
       transform="translate(0,-0.99972112)">
      <rect
         style="color:#000000;display:inline;overflow:visible;visibility:visible;opacity:0.7;fill:none;stroke:url(#linearGradient4167);stroke-width:3;stroke-linecap:round;stroke-linejoin:round;stroke-miterlimit:4;stroke-dasharray:none;stroke-dashoffset:0;stroke-opacity:1;marker:none;enable-background:accumulate"
         id="rect4204"
         y="1027.8619"
         x="15.5"
         ry="0.25"
         rx="0.25"
         height="5.0002856"
         width="5.0002856" />
      <rect
         width="5.0002856"
         height="5.0002856"
         rx="0.5"
         ry="0.5"
         x="15.5"
         y="1027.8619"
         id="rect3315"
         style="color:#000000;display:inline;overflow:visible;visibility:visible;fill:url(#radialGradient4169);fill-opacity:1;fill-rule:nonzero;stroke:url(#linearGradient4171);stroke-width:1;stroke-linecap:round;stroke-linejoin:round;stroke-miterlimit:4;stroke-dasharray:none;stroke-dashoffset:0;stroke-opacity:1;marker:none;enable-background:accumulate" />
      <rect
         style="opacity:0.6;fill:none;stroke:url(#linearGradient4174);stroke-width:2;stroke-miterlimit:4;stroke-dasharray:none;stroke-opacity:1"
         id="rect4192"
         width="22"
         height="2"
         x="26"
         y="1029.3622"
         rx="1.2222222"
         ry="1" />
      <rect
         ry="1"
         rx="1.2222222"
         y="1029.3622"
         x="26"
         height="2"
         width="22"
         id="rect4179"
         style="fill:url(#linearGradient4176);fill-opacity:1;fill-rule:nonzero;stroke:none" />
    </g>
    <g
       id="g4155"
       transform="translate(0,-13.925503)">
      <rect
         ry="1"
         rx="1.2222222"
         y="1032.2877"
         x="26"
         height="2"
         width="22"
         id="rect4248"
         style="opacity:0.6;fill:none;stroke:url(#linearGradient4178);stroke-width:2;stroke-miterlimit:4;stroke-dasharray:none;stroke-opacity:1" />
      <rect
         style="fill:url(#linearGradient4180);fill-opacity:1;fill-rule:nonzero;stroke:none"
         id="rect4330"
         width="22"
         height="2"
         x="26"
         y="1032.2877"
         rx="1.2222222"
         ry="1" />
      <rect
         width="2.9999998"
         height="2.9999998"
         rx="0.23076917"
         ry="0.23076917"
         x="16.5"
         y="1031.7877"
         id="rect4234"
         style="color:#000000;display:inline;overflow:visible;visibility:visible;opacity:0.6;fill:none;stroke:url(#linearGradient4182);stroke-width:3;stroke-linecap:round;stroke-linejoin:round;stroke-miterlimit:4;stroke-dasharray:none;stroke-dashoffset:0;stroke-opacity:1;marker:none;enable-background:accumulate" />
      <rect
         style="color:#000000;display:inline;overflow:visible;visibility:visible;fill:url(#radialGradient4184);fill-opacity:1;fill-rule:nonzero;stroke:url(#linearGradient4186);stroke-width:1;stroke-linecap:round;stroke-linejoin:round;stroke-miterlimit:4;stroke-dasharray:none;stroke-dashoffset:0;stroke-opacity:1;marker:none;enable-background:accumulate"
         id="rect4237"
         y="1031.7877"
         x="16.5"
         ry="0.23076917"
         rx="0.23076917"
         height="2.9999998"
         width="2.9999998" />
    </g>
    <rect
       ry="1"
       rx="1.2222222"
       y="1010.3622"
       x="26"
       height="2"
       width="22"
       id="rect4119"
       style="opacity:0.6;fill:none;stroke:url(#linearGradient4127);stroke-width:2;stroke-miterlimit:4;stroke-dasharray:none;stroke-opacity:1" />
    <rect
       style="fill:url(#linearGradient4129);fill-opacity:1;fill-rule:nonzero;stroke:none"
       id="rect4121"
       width="22"
       height="2"
       x="26"
       y="1010.3622"
       rx="1.2222222"
       ry="1" />
    <rect
       width="2.9999998"
       height="2.9999998"
       rx="0.23076917"
       ry="0.23076917"
       x="16.5"
       y="1009.8622"
       id="rect4123"
       style="color:#000000;display:inline;overflow:visible;visibility:visible;opacity:0.6;fill:none;stroke:url(#linearGradient4131);stroke-width:3;stroke-linecap:round;stroke-linejoin:round;stroke-miterlimit:4;stroke-dasharray:none;stroke-dashoffset:0;stroke-opacity:1;marker:none;enable-background:accumulate" />
    <rect
       style="color:#000000;display:inline;overflow:visible;visibility:visible;fill:url(#radialGradient4133);fill-opacity:1;fill-rule:nonzero;stroke:url(#linearGradient4135);stroke-width:1;stroke-linecap:round;stroke-linejoin:round;stroke-miterlimit:4;stroke-dasharray:none;stroke-dashoffset:0;stroke-opacity:1;marker:none;enable-background:accumulate"
       id="rect4125"
       y="1009.8622"
       x="16.5"
       ry="0.23076917"
       rx="0.23076917"
       height="2.9999998"
       width="2.9999998" />
    <rect
       style="opacity:0.6;fill:none;stroke:url(#linearGradient4145);stroke-width:2;stroke-miterlimit:4;stroke-dasharray:none;stroke-opacity:1"
       id="rect4137"
       width="22"
       height="2"
       x="26"
       y="1002.3622"
       rx="1.2222222"
       ry="1" />
    <rect
       ry="1"
       rx="1.2222222"
       y="1002.3622"
       x="26"
       height="2"
       width="22"
       id="rect4139"
       style="fill:url(#linearGradient4147);fill-opacity:1;fill-rule:nonzero;stroke:none" />
    <rect
       style="color:#000000;display:inline;overflow:visible;visibility:visible;opacity:0.6;fill:none;stroke:url(#linearGradient4149);stroke-width:3;stroke-linecap:round;stroke-linejoin:round;stroke-miterlimit:4;stroke-dasharray:none;stroke-dashoffset:0;stroke-opacity:1;marker:none;enable-background:accumulate"
       id="rect4141"
       y="1001.8622"
       x="16.5"
       ry="0.23076917"
       rx="0.23076917"
       height="2.9999998"
       width="2.9999998" />
    <rect
       width="2.9999998"
       height="2.9999998"
       rx="0.23076917"
       ry="0.23076917"
       x="16.5"
       y="1001.8622"
       id="rect4143"
       style="color:#000000;display:inline;overflow:visible;visibility:visible;fill:url(#radialGradient4151);fill-opacity:1;fill-rule:nonzero;stroke:url(#linearGradient4153);stroke-width:1;stroke-linecap:round;stroke-linejoin:round;stroke-miterlimit:4;stroke-dasharray:none;stroke-dashoffset:0;stroke-opacity:1;marker:none;enable-background:accumulate" />
    <g
       id="g963"
       transform="matrix(1.2098219,0,0,1.2098219,-11.751365,966.06476)"
       style="stroke-width:0.826568">
      <path
         style="opacity:0.15;fill:#0c0c0c;fill-opacity:1;fill-rule:evenodd;stroke:none;stroke-width:0.826568"
         id="path2422"
         d="m 49.623605,32.593851 c -0.231,-0.13598 -0.40974,-0.10061 -0.527823,-0.02495 l -15.727509,10.014828 -2.894616,1.848398 -0.08912,0.0374 -3.427059,7.72242 8.49318,0.255815 0.0705,-0.04718 2.913229,-1.838602 15.72359,-10.1012 c 0.472343,-0.302645 -0.274679,-2.308458 -1.675739,-4.507318 -1.050799,-1.649136 -2.165636,-2.951672 -2.85864,-3.359609 v 0 z" />
      <path
         style="fill:url(#linearGradient3176);fill-opacity:1;stroke:none;stroke-width:0.413284;stroke-linecap:butt;stroke-linejoin:round;stroke-miterlimit:4;stroke-dasharray:none;stroke-dashoffset:0;stroke-opacity:1"
         id="rect2383"
         d="m 31.57772,42.038752 c 0.594537,-0.446137 2.262714,0.39074 3.795697,1.916096 1.529317,1.521706 2.335133,3.150009 1.899097,3.750366 -0.0016,0.0023 0.03752,0.03339 0.03581,0.03564 L 58.654191,26.29035 c 0.541954,-0.544611 -0.300099,-2.265649 -1.88175,-3.839428 -1.581645,-1.57378 -3.306905,-2.407285 -3.848863,-1.862671 z" />
      <path
         style="opacity:0.6;fill:#f9c440;fill-opacity:1;stroke:none;stroke-width:0.826568"
         id="path3208"
         d="m 31.57772,42.038749 c 0.594537,-0.446136 2.262715,0.390742 3.795696,1.916096 1.529317,1.521707 2.335134,3.150009 1.899097,3.750366 -0.0016,0.0023 0.03752,0.03339 0.03583,0.03564 l 14.700196,-14.772261 0.05317,-0.05343 c 0.0017,-0.0023 -0.03748,-0.03336 -0.03581,-0.03564 0.436028,-0.600361 -0.369789,-2.228662 -1.899105,-3.750369 -1.532982,-1.525354 -3.201161,-2.362232 -3.795698,-1.916094 l -0.05317,0.05342 -14.700191,14.772262 h -7e-6 z" />
      <path
         d="m 31.57772,42.038752 c 0.594537,-0.446137 2.262714,0.39074 3.795697,1.916096 1.529317,1.521706 2.335133,3.150009 1.899097,3.750366 -0.0016,0.0023 0.03752,0.03339 0.03581,0.03564 L 58.654191,26.29035 c 0.541954,-0.544611 -0.300099,-2.265649 -1.88175,-3.839428 -1.581645,-1.57378 -3.306905,-2.407285 -3.848863,-1.862671 z"
         id="path1021"
         style="fill:none;fill-opacity:1;stroke:#ad5f00;stroke-width:0.413284;stroke-linecap:butt;stroke-linejoin:round;stroke-miterlimit:4;stroke-dasharray:none;stroke-dashoffset:0;stroke-opacity:1" />
      <path
         id="path934"
         d="m 53.53125,20.427734 c -0.262669,-0.02614 -0.471932,0.024 -0.607422,0.160157 l -6.591797,6.625 c 0.594537,-0.446138 2.26194,0.390661 3.794922,1.916015 1.529316,1.521707 2.334466,3.149639 1.898438,3.75 -0.0017,0.0023 0.03881,0.03481 0.03711,0.03711 l 6.591797,-6.625 C 59.196251,25.746405 58.353135,24.024951 56.771484,22.451172 55.585251,21.270837 54.319258,20.50617 53.53125,20.427734 Z"
         style="fill:url(#linearGradient1018);fill-opacity:1;stroke:#555761;stroke-width:0.413284;stroke-linecap:butt;stroke-linejoin:round;stroke-miterlimit:4;stroke-dasharray:none;stroke-dashoffset:0;stroke-opacity:1" />
      <path
         style="opacity:0.9;fill:#fe9ab8;fill-opacity:1;stroke:#de3e80;stroke-width:0.413284;stroke-linecap:butt;stroke-linejoin:round;stroke-miterlimit:4;stroke-dasharray:none;stroke-dashoffset:0;stroke-opacity:1"
         id="rect3175"
         d="m 50.318482,23.20612 c 0.594537,-0.446136 2.262715,0.390742 3.795697,1.916096 1.529316,1.521706 2.335133,3.150009 1.899096,3.750365 -0.0016,0.0023 0.03752,0.03338 0.03581,0.03564 l 2.605098,-2.61787 0.05317,-0.05342 c 0.0017,-0.0023 -0.03748,-0.03336 -0.03581,-0.03564 0.43603,-0.600356 -0.369788,-2.228658 -1.899104,-3.750363 -1.53298,-1.525355 -3.201157,-2.362234 -3.795696,-1.916096 l -0.05317,0.05342 -2.605096,2.617869 h 4e-6 z" />
      <path
         style="fill:url(#linearGradient3171);fill-opacity:1;stroke:none;stroke-width:0.826568"
         id="path3233"
         d="m 47.398481,26.140433 c 0.594536,-0.446138 2.262717,0.390741 3.795698,1.916096 1.529315,1.521705 2.335133,3.150007 1.899095,3.750365 -0.0016,0.0023 0.03752,0.03339 0.03581,0.03564 L 53.394912,31.5754 c 0.0017,-0.0023 -0.03748,-0.03336 -0.03581,-0.03564 0.436038,-0.600357 -0.36978,-2.22866 -1.899097,-3.750363 -1.532981,-1.525356 -3.20116,-2.362234 -3.795696,-1.916097 l -0.265827,0.26713 v 2e-6 z" />
      <path
         style="fill:url(#linearGradient3168);fill-opacity:1;stroke:none;stroke-width:0.826568"
         id="path3216"
         d="m 47.154867,26.38524 c 0.594539,-0.446138 2.262718,0.39074 3.795697,1.916095 1.529319,1.521706 2.335136,3.150007 1.899097,3.750364 -0.0016,0.0023 0.03751,0.03339 0.03581,0.03564 l 0.265825,-0.267132 c 0.0017,-0.0023 -0.03748,-0.03336 -0.03581,-0.03564 0.436041,-0.600355 -0.369777,-2.228658 -1.899095,-3.750363 C 49.68341,26.50885 48.015232,25.67197 47.420692,26.118108 l -0.265825,0.267131 z" />
      <path
         style="fill:url(#linearGradient3165);fill-opacity:1;stroke:none;stroke-width:0.826568"
         id="path3248"
         d="m 48.245034,25.28973 c 0.594537,-0.446138 2.262715,0.39074 3.795697,1.916096 1.529316,1.521705 2.335134,3.150006 1.899097,3.750364 -0.0016,0.0023 0.03751,0.03338 0.03581,0.03564 l 0.265826,-0.26713 c 0.0017,-0.0023 -0.03748,-0.03336 -0.03581,-0.03564 C 54.641691,30.088704 53.835875,28.4604 52.306556,26.938696 50.773576,25.413341 49.1054,24.576462 48.510859,25.0226 Z" />
      <path
         style="fill:url(#linearGradient3162);fill-opacity:1;stroke:none;stroke-width:0.826568"
         id="path3250"
         d="m 48.00142,25.534537 c 0.59454,-0.446138 2.262718,0.39074 3.795697,1.916095 1.529318,1.521706 2.335135,3.150007 1.899098,3.750364 -0.0016,0.0023 0.03752,0.03339 0.03581,0.03564 l 0.265825,-0.267131 c 0.0017,-0.0023 -0.03748,-0.03336 -0.03581,-0.03564 0.436039,-0.600357 -0.369778,-2.228661 -1.899095,-3.750364 -1.53298,-1.525355 -3.201159,-2.362235 -3.795699,-1.916096 l -0.265826,0.267131 z" />
      <path
         style="fill:url(#linearGradient3159);fill-opacity:1;stroke:none;stroke-width:0.826568"
         id="path3256"
         d="m 49.095679,24.434915 c 0.594536,-0.446137 2.262714,0.390741 3.795696,1.916096 1.529316,1.521705 2.335134,3.150007 1.899097,3.750364 -0.0016,0.0023 0.0375,0.03339 0.03581,0.03564 l 0.265824,-0.267131 c 0.0017,-0.0023 -0.03748,-0.03336 -0.03581,-0.03564 0.436038,-0.600356 -0.36978,-2.22866 -1.899097,-3.750365 -1.532978,-1.525354 -3.201157,-2.362234 -3.795696,-1.916094 l -0.265825,0.267129 z" />
      <path
         style="fill:url(#linearGradient3156);fill-opacity:1;stroke:none;stroke-width:0.826568"
         id="path3258"
         d="m 48.852067,24.679722 c 0.594534,-0.446138 2.262715,0.39074 3.795696,1.916097 1.529315,1.521704 2.335135,3.150007 1.899095,3.750362 -0.0016,0.0023 0.03752,0.03339 0.03581,0.03564 l 0.265826,-0.267128 c 0.0017,-0.0023 -0.03748,-0.03336 -0.03581,-0.03564 0.436038,-0.600359 -0.36978,-2.228661 -1.899096,-3.750365 -1.532981,-1.525356 -3.20116,-2.362235 -3.795697,-1.916096 l -0.265825,0.267129 v 0 z" />
      <path
         style="fill:url(#linearGradient3151);fill-opacity:1;fill-rule:evenodd;stroke:url(#linearGradient3153);stroke-width:0.413284;stroke-linecap:butt;stroke-linejoin:miter;stroke-miterlimit:4;stroke-dasharray:none;stroke-opacity:1"
         id="path3270"
         d="m 27.487084,51.747568 9.711253,-3.960957 0.08274,-0.08273 c 0.436037,-0.600362 -0.380288,-2.22879 -1.909605,-3.7505 -1.532982,-1.525354 -3.199188,-2.357607 -3.793726,-1.911469 l -4.090658,9.705656 h -7e-6 z" />
      <path
         style="fill:#333333;fill-opacity:1;fill-rule:evenodd;stroke:#1a1a1a;stroke-width:0.413284;stroke-linecap:butt;stroke-linejoin:miter;stroke-miterlimit:4;stroke-dasharray:none;stroke-opacity:1"
         id="path3281"
         d="m 28.595131,49.118873 -1.108643,2.618307 2.648745,-1.085868 C 29.92294,50.397024 29.726959,50.138742 29.472072,49.885124 29.178629,49.59314 28.890001,49.35623 28.595131,49.118873 Z" />
    </g>
  </g>
</svg>
