<?xml version="1.0" encoding="UTF-8" standalone="no"?>
<svg
   version="1.0"
   width="64"
   height="64"
   id="svg3247"
   sodipodi:docname="menu-editor.svg"
   inkscape:version="1.1.2 (0a00cf5339, 2022-02-04)"
   xmlns:inkscape="http://www.inkscape.org/namespaces/inkscape"
   xmlns:sodipodi="http://sodipodi.sourceforge.net/DTD/sodipodi-0.dtd"
   xmlns:xlink="http://www.w3.org/1999/xlink"
   xmlns="http://www.w3.org/2000/svg"
   xmlns:svg="http://www.w3.org/2000/svg"
   xmlns:rdf="http://www.w3.org/1999/02/22-rdf-syntax-ns#"
   xmlns:cc="http://creativecommons.org/ns#">
  <sodipodi:namedview
     id="namedview95"
     pagecolor="#ffffff"
     bordercolor="#666666"
     borderopacity="1.0"
     inkscape:pageshadow="2"
     inkscape:pageopacity="0.0"
     inkscape:pagecheckerboard="0"
     showgrid="false"
     inkscape:zoom="10.65625"
     inkscape:cx="31.202346"
     inkscape:cy="31.953079"
     inkscape:window-width="1317"
     inkscape:window-height="890"
     inkscape:window-x="472"
     inkscape:window-y="105"
     inkscape:window-maximized="0"
     inkscape:current-layer="svg3247" />
  <metadata
     id="metadata95874">
    <rdf:RDF>
      <cc:Work
         rdf:about="" />
    </rdf:RDF>
  </metadata>
  <defs
     id="defs3249">
    <linearGradient
       xlink:href="#linearGradient3524"
       id="linearGradient13148"
       gradientUnits="userSpaceOnUse"
       gradientTransform="matrix(0.88235296,0,0,0.5,7.6470971,21.99999)"
       x1="18.993803"
       y1="37.999992"
       x2="23.910248"
       y2="37.999992" />
    <linearGradient
       id="linearGradient3524">
      <stop
         id="stop3526"
         offset="0"
         style="stop-color:#000000;stop-opacity:1;" />
      <stop
         id="stop3528"
         offset="1"
         style="stop-color:#000000;stop-opacity:0;" />
    </linearGradient>
    <linearGradient
       xlink:href="#linearGradient3690"
       id="linearGradient13153"
       gradientUnits="userSpaceOnUse"
       gradientTransform="matrix(0.92273816,0,0,1.2886112,1.744467,5.8778164)"
       x1="9.5"
       y1="16.26436"
       x2="9.5"
       y2="13.408723" />
    <linearGradient
       id="linearGradient3690">
      <stop
         id="stop3692"
         offset="0"
         style="stop-color:white;stop-opacity:1;" />
      <stop
         id="stop3694"
         offset="1"
         style="stop-color:white;stop-opacity:0.46875" />
    </linearGradient>
    <linearGradient
       id="linearGradient3600-5">
      <stop
         style="stop-color:#f4f4f4;stop-opacity:1"
         offset="0"
         id="stop3602" />
      <stop
         style="stop-color:#dbdbdb;stop-opacity:1"
         offset="1"
         id="stop3604-5" />
    </linearGradient>
    <linearGradient
       id="linearGradient3104-9">
      <stop
         id="stop3106-3"
         offset="0"
         style="stop-color:#9c9c9c;stop-opacity:1;" />
      <stop
         id="stop3108-4"
         offset="1"
         style="stop-color:#afafaf;stop-opacity:1;" />
    </linearGradient>
    <linearGradient
       y2="40.240307"
       x2="27.066463"
       y1="11.286958"
       x1="27.066463"
       gradientTransform="matrix(0.9343959,0,0,1.3203616,1.8093991,4.3151573)"
       gradientUnits="userSpaceOnUse"
       id="linearGradient3106"
       xlink:href="#linearGradient3600-5" />
    <linearGradient
       gradientTransform="matrix(1.9333406,0,0,1.87359,-515.73384,-495.68278)"
       y2="274.76862"
       x2="277.05368"
       y1="294.66794"
       x1="277.05368"
       gradientUnits="userSpaceOnUse"
       id="linearGradient3108-1"
       xlink:href="#linearGradient3104-9" />
    <linearGradient
       spreadMethod="pad"
       gradientTransform="matrix(0.87539065,-0.87968181,0.97932539,0.97445279,-3.0169552,27.152318)"
       gradientUnits="userSpaceOnUse"
       xlink:href="#linearGradient1039"
       id="linearGradient3176-3"
       y2="31.210939"
       x2="23.575972"
       y1="25.356892"
       x1="23.575972" />
    <linearGradient
       id="linearGradient1039">
      <stop
         id="stop1023"
         style="stop-color:#ad5f00;stop-opacity:1"
         offset="0" />
      <stop
         id="stop1025"
         style="stop-color:#ffe16b;stop-opacity:1"
         offset="0.13482948" />
      <stop
         id="stop1027"
         style="stop-color:#f9c440;stop-opacity:1"
         offset="0.20224422" />
      <stop
         id="stop1029"
         style="stop-color:#fff394;stop-opacity:1"
         offset="0.26965895" />
      <stop
         id="stop1031"
         style="stop-color:#f9c440;stop-opacity:1"
         offset="0.44650277" />
      <stop
         id="stop1033"
         style="stop-color:#f9c440;stop-opacity:1"
         offset="0.57114136" />
      <stop
         id="stop1035"
         style="stop-color:#ffe16b;stop-opacity:1"
         offset="0.72038066" />
      <stop
         id="stop1037"
         style="stop-color:#ad5f00;stop-opacity:1"
         offset="1" />
    </linearGradient>
    <linearGradient
       spreadMethod="pad"
       y2="31.210939"
       x2="23.575972"
       y1="25.356892"
       x1="23.575972"
       gradientTransform="matrix(0.87539065,-0.87968181,0.97932539,0.97445279,-3.0169552,27.152318)"
       gradientUnits="userSpaceOnUse"
       id="linearGradient1018"
       xlink:href="#linearGradient3155-40-3" />
    <linearGradient
       id="linearGradient3155-40-3">
      <stop
         offset="0"
         style="stop-color:#555761;stop-opacity:1"
         id="stop2541-6" />
      <stop
         offset="0.13482948"
         style="stop-color:#d4d4d4;stop-opacity:1"
         id="stop2543-7" />
      <stop
         offset="0.20224422"
         style="stop-color:#abacae;stop-opacity:1"
         id="stop2545-5-6" />
      <stop
         offset="0.26965895"
         style="stop-color:#fafafa;stop-opacity:1"
         id="stop2547-3" />
      <stop
         offset="0.44650277"
         style="stop-color:#abacae;stop-opacity:1"
         id="stop2549-5" />
      <stop
         offset="0.57114136"
         style="stop-color:#7e8087;stop-opacity:1"
         id="stop2551-6-7" />
      <stop
         offset="0.72038066"
         style="stop-color:#d4d4d4;stop-opacity:1"
         id="stop2553-2" />
      <stop
         offset="1"
         style="stop-color:#555761;stop-opacity:1"
         id="stop2555-9" />
    </linearGradient>
    <linearGradient
       gradientTransform="matrix(0.85064445,-0.85481442,1.146122,1.1404196,-6.2249016,22.651052)"
       gradientUnits="userSpaceOnUse"
       xlink:href="#linearGradient3240-279-1"
       id="linearGradient3171-5"
       y2="30.000141"
       x2="30.037716"
       y1="24.989594"
       x1="30.037716" />
    <linearGradient
       id="linearGradient3240-279-1">
      <stop
         offset="0"
         style="stop-color:#555761;stop-opacity:1"
         id="stop2559-2" />
      <stop
         offset="0.5"
         style="stop-color:#abacae;stop-opacity:1"
         id="stop2561-7-3" />
      <stop
         offset="1"
         style="stop-color:#555761;stop-opacity:1"
         id="stop2563-0" />
    </linearGradient>
    <linearGradient
       gradientTransform="matrix(0.85064445,-0.85481442,1.146122,1.1404196,-6.4685146,22.89586)"
       gradientUnits="userSpaceOnUse"
       xlink:href="#linearGradient3223-789-9"
       id="linearGradient3168-5"
       y2="30.000141"
       x2="30.037716"
       y1="24.989594"
       x1="30.037716" />
    <linearGradient
       id="linearGradient3223-789-9">
      <stop
         offset="0"
         style="stop-color:#abacae;stop-opacity:1"
         id="stop2567-3" />
      <stop
         offset="0.5"
         style="stop-color:#fafafa;stop-opacity:1"
         id="stop2569-6" />
      <stop
         offset="1"
         style="stop-color:#abacae;stop-opacity:1"
         id="stop2571-0" />
    </linearGradient>
    <linearGradient
       gradientTransform="matrix(0.85064445,-0.85481442,1.146122,1.1404196,-5.3783496,21.800349)"
       gradientUnits="userSpaceOnUse"
       xlink:href="#linearGradient3240-279-1"
       id="linearGradient3165-6"
       y2="30.000141"
       x2="30.037716"
       y1="24.989594"
       x1="30.037716" />
    <linearGradient
       gradientTransform="matrix(0.85064445,-0.85481442,1.146122,1.1404196,-5.6219636,22.045155)"
       gradientUnits="userSpaceOnUse"
       xlink:href="#linearGradient3223-789-9"
       id="linearGradient3162-2"
       y2="30.000141"
       x2="30.037716"
       y1="24.989594"
       x1="30.037716" />
    <linearGradient
       gradientTransform="matrix(0.85064445,-0.85481442,1.146122,1.1404196,-4.5277046,20.945534)"
       gradientUnits="userSpaceOnUse"
       xlink:href="#linearGradient3240-279-1"
       id="linearGradient3159-9"
       y2="30.000141"
       x2="30.037716"
       y1="24.989594"
       x1="30.037716" />
    <linearGradient
       gradientTransform="matrix(0.85064445,-0.85481442,1.146122,1.1404196,-4.7713176,21.190343)"
       gradientUnits="userSpaceOnUse"
       xlink:href="#linearGradient3223-789-9"
       id="linearGradient3156-1"
       y2="30.000141"
       x2="30.037716"
       y1="24.989594"
       x1="30.037716" />
    <linearGradient
       gradientTransform="matrix(0.85064445,-0.85481442,1.1461221,1.1404197,-6.5479896,22.97572)"
       gradientUnits="userSpaceOnUse"
       xlink:href="#linearGradient3290-678-8"
       id="linearGradient3151-2"
       y2="26.02973"
       x2="9"
       y1="29.056757"
       x1="9" />
    <linearGradient
       id="linearGradient3290-678-8">
      <stop
         offset="0"
         style="stop-color:#fff394;stop-opacity:1"
         id="stop2607-9" />
      <stop
         offset="1"
         style="stop-color:#fafafa;stop-opacity:1"
         id="stop2609-7" />
    </linearGradient>
    <linearGradient
       gradientTransform="matrix(0.74712277,0.03224699,0.03220731,0.74620134,24.394615,18.140574)"
       gradientUnits="userSpaceOnUse"
       xlink:href="#linearGradient3191-577-3"
       id="linearGradient3153-7"
       y2="41.391716"
       x2="9.5220556"
       y1="37.371799"
       x1="5.5178981" />
    <linearGradient
       id="linearGradient3191-577-3">
      <stop
         offset="0"
         style="stop-color:#d48e15;stop-opacity:1"
         id="stop2613-6" />
      <stop
         offset="1"
         style="stop-color:#ad5f00;stop-opacity:1"
         id="stop2615-1" />
    </linearGradient>
  </defs>
  <path
     style="fill:url(#linearGradient3106);fill-opacity:1;stroke:url(#linearGradient3108-1);stroke-width:1.00144136;stroke-miterlimit:4;stroke-opacity:1;stroke-dasharray:none"
     d="m 41.153626,9.5246425 c 1.437323,0 2.502759,-0.02603 2.346313,2.1824845 0,5.912675 0,31.546102 0,42.933989 0.0346,1.622978 -1.532764,2.003524 -2.843878,1.858884 -8.634782,0 -20.389427,0 -29.024228,0 C 9.9628958,56.53354 9.3512681,54.777793 9.5,53.502797 c 0,-11.825351 0,-33.650556 0,-45.4759245 0.629302,-1.292366 11.596927,0.431745 19.803842,1.473292 1.949097,0 9.969823,-0.06101 11.849784,0.02442 z"
     id="rect1915" />
  <path
     style="fill:#6392c4;fill-opacity:1;stroke:#49759f;stroke-width:0.99999988;stroke-miterlimit:4;stroke-opacity:1;stroke-dasharray:none"
     d="m 9.5,10 0,-2.666883 c 0,-1.015407 1.01956,-1.832895 2.012122,-1.832895 l 15.22848,0 C 27.733163,5.500222 28.5,6.31771 28.5,7.333117 L 28.5,10"
     id="path1917" />
  <path
     style="opacity:0.6;fill:none;stroke:url(#linearGradient13153);stroke-width:0.99999964;stroke-miterlimit:4;stroke-opacity:1;stroke-dasharray:none"
     d="m 11.435061,6.500199 c 8.918538,0 5.973875,0 14.892456,0 1.528665,-0.02351 1.095701,1.169145 1.163138,1.996068 0,0.691473 -0.0042,1.649094 0.01869,2.025053 2.108222,0 10.904243,0.02433 12.518181,0.02433 1.613938,0 2.472474,0.367296 2.472474,1.468151 0,5.697411 0,31.983062 0,42.598106 -0.126691,1.19817 -1.802499,0.81349 -2.673789,0.877516 -8.416235,0 -19.974234,0 -28.390447,0 -1.262478,-0.1203 -0.868305,-1.480822 -0.935764,-2.307743 0,-11.39484 0,-34.409107 0,-45.803964 -0.01246,-0.470489 0.440005,-0.890131 0.935767,-0.877497 z"
     id="rect1919" />
  <rect
     style="fill:#a2a2a1;fill-opacity:1;stroke:none"
     id="rect2574"
     width="18"
     height="1"
     x="20"
     y="33"
     rx="0.34273958"
     ry="0.30555126" />
  <rect
     style="opacity:0.4;fill:url(#linearGradient13148);fill-opacity:1;stroke:none"
     id="rect3634"
     width="15"
     height="1"
     x="20"
     y="41"
     rx="0.37130117"
     ry="0.39721662" />
  <rect
     style="fill:#878885;fill-opacity:1;stroke:none"
     id="rect2582"
     width="18"
     height="1"
     x="20"
     y="49"
     rx="0.34273958"
     ry="0.30555126" />
  <rect
     style="opacity:0.4;fill:#333333;fill-opacity:1;stroke:none"
     id="rect16160"
     width="18"
     height="1"
     x="20"
     y="25"
     rx="0.34273958"
     ry="0.30555126" />
  <rect
     style="opacity:0.3;fill:#888a85;fill-opacity:1;stroke:#2e3436;stroke-width:0.99999994;stroke-linecap:round;stroke-linejoin:miter;stroke-miterlimit:4;stroke-opacity:1;stroke-dasharray:none;stroke-dashoffset:0"
     id="rect16162"
     width="2"
     height="2"
     x="14.5"
     y="24.5"
     rx="0.41699046"
     ry="0.42131186" />
  <rect
     ry="0.42131186"
     rx="0.41699046"
     y="32.5"
     x="14.5"
     height="2"
     width="2"
     id="rect4018"
     style="opacity:0.3;fill:#888a85;fill-opacity:1;stroke:#2e3436;stroke-width:0.99999994;stroke-linecap:round;stroke-linejoin:miter;stroke-miterlimit:4;stroke-opacity:1;stroke-dasharray:none;stroke-dashoffset:0" />
  <rect
     style="opacity:0.3;fill:#888a85;fill-opacity:1;stroke:#2e3436;stroke-width:0.99999994;stroke-linecap:round;stroke-linejoin:miter;stroke-miterlimit:4;stroke-opacity:1;stroke-dasharray:none;stroke-dashoffset:0"
     id="rect4020"
     width="2"
     height="2"
     x="14.5"
     y="40.5"
     rx="0.41699046"
     ry="0.42131186" />
  <rect
     ry="0.42131186"
     rx="0.41699046"
     y="48.5"
     x="14.5"
     height="2"
     width="2"
     id="rect4022"
     style="opacity:0.3;fill:#888a85;fill-opacity:1;stroke:#2e3436;stroke-width:0.99999994;stroke-linecap:round;stroke-linejoin:miter;stroke-miterlimit:4;stroke-opacity:1;stroke-dasharray:none;stroke-dashoffset:0" />
  <rect
     ry="0.30555126"
     rx="0.34273958"
     y="17"
     x="20"
     height="1"
     width="18"
     id="rect3227"
     style="opacity:0.4;fill:#333333;fill-opacity:1;stroke:none" />
  <rect
     ry="0.42131186"
     rx="0.41699046"
     y="16.5"
     x="14.5"
     height="2"
     width="2"
     id="rect3229"
     style="opacity:0.3;fill:#888a85;fill-opacity:1;stroke:#2e3436;stroke-width:0.99999994;stroke-linecap:round;stroke-linejoin:miter;stroke-miterlimit:4;stroke-opacity:1;stroke-dasharray:none;stroke-dashoffset:0" />
  <g
     id="g963"
     transform="translate(1.042522,-4.9478995)">
    <path
       style="opacity:0.15;fill:#0c0c0c;fill-opacity:1;fill-rule:evenodd;stroke:none"
       id="path2422"
       d="m 49.623605,32.593851 c -0.231,-0.13598 -0.40974,-0.10061 -0.527823,-0.02495 l -15.727509,10.014828 -2.894616,1.848398 -0.08912,0.0374 -3.427059,7.72242 8.49318,0.255815 0.0705,-0.04718 2.913229,-1.838602 15.72359,-10.1012 c 0.472343,-0.302645 -0.274679,-2.308458 -1.675739,-4.507318 -1.050799,-1.649136 -2.165636,-2.951672 -2.85864,-3.359609 v 0 z" />
    <path
       style="fill:url(#linearGradient3176-3);fill-opacity:1;stroke:none;stroke-width:0.5;stroke-linecap:butt;stroke-linejoin:round;stroke-miterlimit:4;stroke-dasharray:none;stroke-dashoffset:0;stroke-opacity:1"
       id="rect2383"
       d="m 31.57772,42.038752 c 0.594537,-0.446137 2.262714,0.39074 3.795697,1.916096 1.529317,1.521706 2.335133,3.150009 1.899097,3.750366 -0.0016,0.0023 0.03752,0.03339 0.03581,0.03564 L 58.654191,26.29035 c 0.541954,-0.544611 -0.300099,-2.265649 -1.88175,-3.839428 -1.581645,-1.57378 -3.306905,-2.407285 -3.848863,-1.862671 z" />
    <path
       style="opacity:0.6;fill:#f9c440;fill-opacity:1;stroke:none"
       id="path3208"
       d="m 31.57772,42.038749 c 0.594537,-0.446136 2.262715,0.390742 3.795696,1.916096 1.529317,1.521707 2.335134,3.150009 1.899097,3.750366 -0.0016,0.0023 0.03752,0.03339 0.03583,0.03564 l 14.700196,-14.772261 0.05317,-0.05343 c 0.0017,-0.0023 -0.03748,-0.03336 -0.03581,-0.03564 0.436028,-0.600361 -0.369789,-2.228662 -1.899105,-3.750369 -1.532982,-1.525354 -3.201161,-2.362232 -3.795698,-1.916094 l -0.05317,0.05342 -14.700191,14.772262 h -7e-6 z" />
    <path
       d="m 31.57772,42.038752 c 0.594537,-0.446137 2.262714,0.39074 3.795697,1.916096 1.529317,1.521706 2.335133,3.150009 1.899097,3.750366 -0.0016,0.0023 0.03752,0.03339 0.03581,0.03564 L 58.654191,26.29035 c 0.541954,-0.544611 -0.300099,-2.265649 -1.88175,-3.839428 -1.581645,-1.57378 -3.306905,-2.407285 -3.848863,-1.862671 z"
       id="path1021"
       style="fill:none;fill-opacity:1;stroke:#ad5f00;stroke-width:0.5;stroke-linecap:butt;stroke-linejoin:round;stroke-miterlimit:4;stroke-dasharray:none;stroke-dashoffset:0;stroke-opacity:1" />
    <path
       id="path934"
       d="m 53.53125,20.427734 c -0.262669,-0.02614 -0.471932,0.024 -0.607422,0.160157 l -6.591797,6.625 c 0.594537,-0.446138 2.26194,0.390661 3.794922,1.916015 1.529316,1.521707 2.334466,3.149639 1.898438,3.75 -0.0017,0.0023 0.03881,0.03481 0.03711,0.03711 l 6.591797,-6.625 C 59.196251,25.746405 58.353135,24.024951 56.771484,22.451172 55.585251,21.270837 54.319258,20.50617 53.53125,20.427734 Z"
       style="fill:url(#linearGradient1018);fill-opacity:1;stroke:#555761;stroke-width:0.5;stroke-linecap:butt;stroke-linejoin:round;stroke-miterlimit:4;stroke-dasharray:none;stroke-dashoffset:0;stroke-opacity:1" />
    <path
       style="opacity:0.9;fill:#fe9ab8;fill-opacity:1;stroke:#de3e80;stroke-width:0.5;stroke-linecap:butt;stroke-linejoin:round;stroke-miterlimit:4;stroke-dasharray:none;stroke-dashoffset:0;stroke-opacity:1"
       id="rect3175"
       d="m 50.318482,23.20612 c 0.594537,-0.446136 2.262715,0.390742 3.795697,1.916096 1.529316,1.521706 2.335133,3.150009 1.899096,3.750365 -0.0016,0.0023 0.03752,0.03338 0.03581,0.03564 l 2.605098,-2.61787 0.05317,-0.05342 c 0.0017,-0.0023 -0.03748,-0.03336 -0.03581,-0.03564 0.43603,-0.600356 -0.369788,-2.228658 -1.899104,-3.750363 -1.53298,-1.525355 -3.201157,-2.362234 -3.795696,-1.916096 l -0.05317,0.05342 -2.605096,2.617869 h 4e-6 z" />
    <path
       style="fill:url(#linearGradient3171-5);fill-opacity:1;stroke:none"
       id="path3233"
       d="m 47.398481,26.140433 c 0.594536,-0.446138 2.262717,0.390741 3.795698,1.916096 1.529315,1.521705 2.335133,3.150007 1.899095,3.750365 -0.0016,0.0023 0.03752,0.03339 0.03581,0.03564 L 53.394912,31.5754 c 0.0017,-0.0023 -0.03748,-0.03336 -0.03581,-0.03564 0.436038,-0.600357 -0.36978,-2.22866 -1.899097,-3.750363 -1.532981,-1.525356 -3.20116,-2.362234 -3.795696,-1.916097 l -0.265827,0.26713 v 2e-6 z" />
    <path
       style="fill:url(#linearGradient3168-5);fill-opacity:1;stroke:none"
       id="path3216"
       d="m 47.154867,26.38524 c 0.594539,-0.446138 2.262718,0.39074 3.795697,1.916095 1.529319,1.521706 2.335136,3.150007 1.899097,3.750364 -0.0016,0.0023 0.03751,0.03339 0.03581,0.03564 l 0.265825,-0.267132 c 0.0017,-0.0023 -0.03748,-0.03336 -0.03581,-0.03564 0.436041,-0.600355 -0.369777,-2.228658 -1.899095,-3.750363 C 49.68341,26.50885 48.015232,25.67197 47.420692,26.118108 l -0.265825,0.267131 z" />
    <path
       style="fill:url(#linearGradient3165-6);fill-opacity:1;stroke:none"
       id="path3248"
       d="m 48.245034,25.28973 c 0.594537,-0.446138 2.262715,0.39074 3.795697,1.916096 1.529316,1.521705 2.335134,3.150006 1.899097,3.750364 -0.0016,0.0023 0.03751,0.03338 0.03581,0.03564 l 0.265826,-0.26713 c 0.0017,-0.0023 -0.03748,-0.03336 -0.03581,-0.03564 C 54.641691,30.088704 53.835875,28.4604 52.306556,26.938696 50.773576,25.413341 49.1054,24.576462 48.510859,25.0226 Z" />
    <path
       style="fill:url(#linearGradient3162-2);fill-opacity:1;stroke:none"
       id="path3250"
       d="m 48.00142,25.534537 c 0.59454,-0.446138 2.262718,0.39074 3.795697,1.916095 1.529318,1.521706 2.335135,3.150007 1.899098,3.750364 -0.0016,0.0023 0.03752,0.03339 0.03581,0.03564 l 0.265825,-0.267131 c 0.0017,-0.0023 -0.03748,-0.03336 -0.03581,-0.03564 0.436039,-0.600357 -0.369778,-2.228661 -1.899095,-3.750364 -1.53298,-1.525355 -3.201159,-2.362235 -3.795699,-1.916096 l -0.265826,0.267131 z" />
    <path
       style="fill:url(#linearGradient3159-9);fill-opacity:1;stroke:none"
       id="path3256"
       d="m 49.095679,24.434915 c 0.594536,-0.446137 2.262714,0.390741 3.795696,1.916096 1.529316,1.521705 2.335134,3.150007 1.899097,3.750364 -0.0016,0.0023 0.0375,0.03339 0.03581,0.03564 l 0.265824,-0.267131 c 0.0017,-0.0023 -0.03748,-0.03336 -0.03581,-0.03564 0.436038,-0.600356 -0.36978,-2.22866 -1.899097,-3.750365 -1.532978,-1.525354 -3.201157,-2.362234 -3.795696,-1.916094 l -0.265825,0.267129 z" />
    <path
       style="fill:url(#linearGradient3156-1);fill-opacity:1;stroke:none"
       id="path3258"
       d="m 48.852067,24.679722 c 0.594534,-0.446138 2.262715,0.39074 3.795696,1.916097 1.529315,1.521704 2.335135,3.150007 1.899095,3.750362 -0.0016,0.0023 0.03752,0.03339 0.03581,0.03564 l 0.265826,-0.267128 c 0.0017,-0.0023 -0.03748,-0.03336 -0.03581,-0.03564 0.436038,-0.600359 -0.36978,-2.228661 -1.899096,-3.750365 -1.532981,-1.525356 -3.20116,-2.362235 -3.795697,-1.916096 l -0.265825,0.267129 v 0 z" />
    <path
       style="fill:url(#linearGradient3151-2);fill-opacity:1;fill-rule:evenodd;stroke:url(#linearGradient3153-7);stroke-width:0.5;stroke-linecap:butt;stroke-linejoin:miter;stroke-miterlimit:4;stroke-dasharray:none;stroke-opacity:1"
       id="path3270"
       d="m 27.487084,51.747568 9.711253,-3.960957 0.08274,-0.08273 c 0.436037,-0.600362 -0.380288,-2.22879 -1.909605,-3.7505 -1.532982,-1.525354 -3.199188,-2.357607 -3.793726,-1.911469 l -4.090658,9.705656 h -7e-6 z" />
    <path
       style="fill:#333333;fill-opacity:1;fill-rule:evenodd;stroke:#1a1a1a;stroke-width:0.5;stroke-linecap:butt;stroke-linejoin:miter;stroke-miterlimit:4;stroke-dasharray:none;stroke-opacity:1"
       id="path3281"
       d="m 28.595131,49.118873 -1.108643,2.618307 2.648745,-1.085868 C 29.92294,50.397024 29.726959,50.138742 29.472072,49.885124 29.178629,49.59314 28.890001,49.35623 28.595131,49.118873 Z" />
  </g>
</svg>
