<?xml version="1.0" encoding="UTF-8" standalone="no"?>
<svg
   xmlns:dc="http://purl.org/dc/elements/1.1/"
   xmlns:cc="http://creativecommons.org/ns#"
   xmlns:rdf="http://www.w3.org/1999/02/22-rdf-syntax-ns#"
   xmlns:svg="http://www.w3.org/2000/svg"
   xmlns="http://www.w3.org/2000/svg"
   xmlns:xlink="http://www.w3.org/1999/xlink"
   version="1.1"
   id="svg2"
   height="64"
   width="64">
  <defs
     id="defs4">
    <linearGradient
       id="linearGradient4322">
      <stop
         id="stop4324"
         offset="0"
         style="stop-color:#696969;stop-opacity:1;" />
      <stop
         id="stop4326"
         offset="1"
         style="stop-color:#949494;stop-opacity:1;" />
    </linearGradient>
    <linearGradient
       id="linearGradient4308">
      <stop
         id="stop4310"
         offset="0"
         style="stop-color:#b3b3b3;stop-opacity:1;" />
      <stop
         id="stop4312"
         offset="1"
         style="stop-color:#8e8e8e;stop-opacity:1;" />
    </linearGradient>
    <linearGradient
       id="linearGradient4299">
      <stop
         id="stop4301"
         offset="0"
         style="stop-color:#7d7d7d;stop-opacity:1;" />
      <stop
         id="stop4303"
         offset="1"
         style="stop-color:#a0a0a0;stop-opacity:1;" />
    </linearGradient>
    <linearGradient
       id="linearGradient4236">
      <stop
         id="stop4238"
         offset="0"
         style="stop-color:#ffffff;stop-opacity:1;" />
      <stop
         id="stop4240"
         offset="1"
         style="stop-color:#ffffff;stop-opacity:0;" />
    </linearGradient>
    <linearGradient
       id="linearGradient4226">
      <stop
         id="stop4228"
         offset="0"
         style="stop-color:#ffffff;stop-opacity:1;" />
      <stop
         id="stop4230"
         offset="1"
         style="stop-color:#ffffff;stop-opacity:0;" />
    </linearGradient>
    <linearGradient
       id="linearGradient4194">
      <stop
         id="stop4196"
         offset="0"
         style="stop-color:#ffffff;stop-opacity:1;" />
      <stop
         id="stop4198"
         offset="1"
         style="stop-color:#ffffff;stop-opacity:0;" />
    </linearGradient>
    <linearGradient
       id="linearGradient4184">
      <stop
         id="stop4186"
         offset="0"
         style="stop-color:#ffffff;stop-opacity:1;" />
      <stop
         id="stop4188"
         offset="1"
         style="stop-color:#ffffff;stop-opacity:0;" />
    </linearGradient>
    <linearGradient
       id="linearGradient4106">
      <stop
         id="stop4108"
         offset="0"
         style="stop-color:#34b2f4;stop-opacity:1;" />
      <stop
         id="stop4110"
         offset="1"
         style="stop-color:#136ebc;stop-opacity:1;" />
    </linearGradient>
    <linearGradient
       id="linearGradient3707-319-631-407-324-6">
      <stop
         offset="0"
         style="stop-color:#0e73c8;stop-opacity:1;"
         id="stop3760-3" />
      <stop
         offset="1"
         style="stop-color:#40a5e4;stop-opacity:1;"
         id="stop3762-1" />
    </linearGradient>
    <linearGradient
       id="linearGradient2867-449-88-871-390-598-476-591-434-148-57-177-0">
      <stop
         offset="0"
         style="stop-color:#90dbec;stop-opacity:1;"
         id="stop3750-4" />
      <stop
         offset="0.26238"
         style="stop-color:#55c1ec;stop-opacity:1;"
         id="stop3752-4" />
      <stop
         offset="0.704952"
         style="stop-color:#3689e6;stop-opacity:1;"
         id="stop3754-4" />
      <stop
         offset="1"
         style="stop-color:#2b63a0;stop-opacity:1;"
         id="stop3756-4" />
    </linearGradient>
    <linearGradient
       id="linearGradient3290-678">
      <stop
         id="stop2607"
         style="stop-color:#ece5a5;stop-opacity:1"
         offset="0" />
      <stop
         id="stop2609"
         style="stop-color:#fcfbf2;stop-opacity:1"
         offset="1" />
    </linearGradient>
    <linearGradient
       id="linearGradient3191-577">
      <stop
         id="stop2613"
         style="stop-color:#dbce48;stop-opacity:1"
         offset="0" />
      <stop
         id="stop2615"
         style="stop-color:#c5b625;stop-opacity:1"
         offset="1" />
    </linearGradient>
    <linearGradient
       id="linearGradient3223-699">
      <stop
         id="stop2599"
         style="stop-color:#b1b1b1;stop-opacity:1"
         offset="0" />
      <stop
         id="stop2601"
         style="stop-color:#ffffff;stop-opacity:1"
         offset="0.5" />
      <stop
         id="stop2603"
         style="stop-color:#8f8f8f;stop-opacity:1"
         offset="1" />
    </linearGradient>
    <linearGradient
       id="linearGradient3240-907">
      <stop
         id="stop2591"
         style="stop-color:#565656;stop-opacity:1"
         offset="0" />
      <stop
         id="stop2593"
         style="stop-color:#9a9a9a;stop-opacity:1"
         offset="0.5" />
      <stop
         id="stop2595"
         style="stop-color:#545454;stop-opacity:1"
         offset="1" />
    </linearGradient>
    <linearGradient
       id="linearGradient3223-768">
      <stop
         id="stop2583"
         style="stop-color:#b1b1b1;stop-opacity:1"
         offset="0" />
      <stop
         id="stop2585"
         style="stop-color:#ffffff;stop-opacity:1"
         offset="0.5" />
      <stop
         id="stop2587"
         style="stop-color:#8f8f8f;stop-opacity:1"
         offset="1" />
    </linearGradient>
    <linearGradient
       id="linearGradient3240-686">
      <stop
         id="stop2575"
         style="stop-color:#565656;stop-opacity:1"
         offset="0" />
      <stop
         id="stop2577"
         style="stop-color:#9a9a9a;stop-opacity:1"
         offset="0.5" />
      <stop
         id="stop2579"
         style="stop-color:#545454;stop-opacity:1"
         offset="1" />
    </linearGradient>
    <linearGradient
       id="linearGradient3223-789">
      <stop
         id="stop2567"
         style="stop-color:#b1b1b1;stop-opacity:1"
         offset="0" />
      <stop
         id="stop2569"
         style="stop-color:#ffffff;stop-opacity:1"
         offset="0.5" />
      <stop
         id="stop2571"
         style="stop-color:#8f8f8f;stop-opacity:1"
         offset="1" />
    </linearGradient>
    <linearGradient
       id="linearGradient3240-279">
      <stop
         id="stop2559"
         style="stop-color:#565656;stop-opacity:1"
         offset="0" />
      <stop
         id="stop2561"
         style="stop-color:#9a9a9a;stop-opacity:1"
         offset="0.5" />
      <stop
         id="stop2563"
         style="stop-color:#545454;stop-opacity:1"
         offset="1" />
    </linearGradient>
    <linearGradient
       id="linearGradient3155-40">
      <stop
         id="stop2541"
         style="stop-color:#181818;stop-opacity:1"
         offset="0" />
      <stop
         id="stop2543"
         style="stop-color:#dbdbdb;stop-opacity:1"
         offset="0.13482948" />
      <stop
         id="stop2545"
         style="stop-color:#a4a4a4;stop-opacity:1"
         offset="0.20224422" />
      <stop
         id="stop2547"
         style="stop-color:#ffffff;stop-opacity:1"
         offset="0.26965895" />
      <stop
         id="stop2549"
         style="stop-color:#8d8d8d;stop-opacity:1"
         offset="0.44650277" />
      <stop
         id="stop2551"
         style="stop-color:#959595;stop-opacity:1"
         offset="0.57114136" />
      <stop
         id="stop2553"
         style="stop-color:#cecece;stop-opacity:1"
         offset="0.72038066" />
      <stop
         id="stop2555"
         style="stop-color:#181818;stop-opacity:1"
         offset="1" />
    </linearGradient>
    <linearGradient
       y2="31.210939"
       x2="23.575972"
       y1="25.356892"
       x1="23.575972"
       spreadMethod="pad"
       gradientTransform="matrix(0.6565695,-0.659788,0.7345237,0.7308691,53.832831,961.61063)"
       gradientUnits="userSpaceOnUse"
       id="linearGradient4374"
       xlink:href="#linearGradient3155-40" />
    <linearGradient
       y2="30.000141"
       x2="30.037716"
       y1="24.989594"
       x1="30.037716"
       gradientTransform="matrix(0.6380091,-0.6411367,0.8596262,0.8553492,51.426774,958.23454)"
       gradientUnits="userSpaceOnUse"
       id="linearGradient4376"
       xlink:href="#linearGradient3240-279" />
    <linearGradient
       y2="30.000141"
       x2="30.037716"
       y1="24.989594"
       x1="30.037716"
       gradientTransform="matrix(0.6380091,-0.6411367,0.8596262,0.8553492,51.244057,958.41815)"
       gradientUnits="userSpaceOnUse"
       id="linearGradient4378"
       xlink:href="#linearGradient3223-789" />
    <linearGradient
       y2="30.000141"
       x2="30.037716"
       y1="24.989594"
       x1="30.037716"
       gradientTransform="matrix(0.6380091,-0.6411367,0.8596262,0.8553492,52.061714,957.59649)"
       gradientUnits="userSpaceOnUse"
       id="linearGradient4380"
       xlink:href="#linearGradient3240-686" />
    <linearGradient
       y2="30.000141"
       x2="30.037716"
       y1="24.989594"
       x1="30.037716"
       gradientTransform="matrix(0.6380091,-0.6411367,0.8596262,0.8553492,51.878996,957.7801)"
       gradientUnits="userSpaceOnUse"
       id="linearGradient4382"
       xlink:href="#linearGradient3223-768" />
    <linearGradient
       y2="30.000141"
       x2="30.037716"
       y1="24.989594"
       x1="30.037716"
       gradientTransform="matrix(0.6380091,-0.6411367,0.8596262,0.8553492,52.699723,956.95535)"
       gradientUnits="userSpaceOnUse"
       id="linearGradient4384"
       xlink:href="#linearGradient3240-907" />
    <linearGradient
       y2="30.000141"
       x2="30.037716"
       y1="24.989594"
       x1="30.037716"
       gradientTransform="matrix(0.6380091,-0.6411367,0.8596262,0.8553492,52.517006,957.13896)"
       gradientUnits="userSpaceOnUse"
       id="linearGradient4386"
       xlink:href="#linearGradient3223-699" />
    <linearGradient
       y2="26.02973"
       x2="9"
       y1="29.056757"
       x1="9"
       gradientTransform="matrix(0.6380091,-0.6411367,0.8596263,0.8553493,51.184448,958.47805)"
       gradientUnits="userSpaceOnUse"
       id="linearGradient4388"
       xlink:href="#linearGradient3290-678" />
    <linearGradient
       y2="41.391716"
       x2="9.5220556"
       y1="37.371799"
       x1="5.5178981"
       gradientTransform="matrix(0.5603647,0.02418622,0.02415646,0.5596736,74.392339,954.85154)"
       gradientUnits="userSpaceOnUse"
       id="linearGradient4390"
       xlink:href="#linearGradient3191-577" />
    <filter
       color-interpolation-filters="sRGB"
       height="3.48"
       y="-1.24"
       width="1.5951999"
       x="-0.29760003"
       id="filter4128">
      <feGaussianBlur
         id="feGaussianBlur4130"
         stdDeviation="0.78286824" />
    </filter>
    <linearGradient
       gradientTransform="matrix(1.3235101,0,0,1.3220399,0.89718498,-340.02434)"
       gradientUnits="userSpaceOnUse"
       y2="1069.5356"
       x2="22.667517"
       y1="1020.6206"
       x1="22.667517"
       id="linearGradient4190"
       xlink:href="#linearGradient4184" />
    <linearGradient
       y2="1034.458"
       x2="31.704607"
       y1="1039.8879"
       x1="31.704607"
       gradientTransform="matrix(1.2222222,0,0,1,2.7777769,-26.99998)"
       gradientUnits="userSpaceOnUse"
       id="linearGradient4127"
       xlink:href="#linearGradient4194" />
    <linearGradient
       y2="1017.8691"
       x2="22.914341"
       y1="1016.0691"
       x1="22.914341"
       gradientTransform="matrix(1.2222222,0,0,1,2.777777,-6.99998)"
       gradientUnits="userSpaceOnUse"
       id="linearGradient4129"
       xlink:href="#linearGradient4322" />
    <linearGradient
       y2="1023.424"
       x2="10.757614"
       y1="1030.2664"
       x1="10.757614"
       gradientTransform="translate(4.9999994,-16.99998)"
       gradientUnits="userSpaceOnUse"
       id="linearGradient4131"
       xlink:href="#linearGradient4236" />
    <radialGradient
       r="1.9999999"
       fy="1024.8368"
       fx="13.631346"
       cy="1024.8368"
       cx="13.631346"
       gradientTransform="matrix(6.6544265e-7,3.0321498,-2.7493289,6.0337412e-7,2836.2448,966.50392)"
       gradientUnits="userSpaceOnUse"
       id="radialGradient4133"
       xlink:href="#linearGradient4308" />
    <linearGradient
       y2="1029.6985"
       x2="11"
       y1="1024.8933"
       x1="11"
       gradientTransform="translate(4.9999994,-16.99998)"
       gradientUnits="userSpaceOnUse"
       id="linearGradient4135"
       xlink:href="#linearGradient4299" />
    <linearGradient
       y2="1034.458"
       x2="31.704607"
       y1="1039.8879"
       x1="31.704607"
       gradientTransform="matrix(1.2222222,0,0,1,2.7777769,-34.99998)"
       gradientUnits="userSpaceOnUse"
       id="linearGradient4145"
       xlink:href="#linearGradient4194" />
    <linearGradient
       y2="1017.8691"
       x2="22.914341"
       y1="1016.0691"
       x1="22.914341"
       gradientTransform="matrix(1.2222222,0,0,1,2.777777,-14.99998)"
       gradientUnits="userSpaceOnUse"
       id="linearGradient4147"
       xlink:href="#linearGradient4322" />
    <linearGradient
       y2="1023.424"
       x2="10.757614"
       y1="1030.2664"
       x1="10.757614"
       gradientTransform="translate(4.9999994,-24.99998)"
       gradientUnits="userSpaceOnUse"
       id="linearGradient4149"
       xlink:href="#linearGradient4236" />
    <radialGradient
       r="1.9999999"
       fy="1024.8368"
       fx="13.631346"
       cy="1024.8368"
       cx="13.631346"
       gradientTransform="matrix(6.6544265e-7,3.0321498,-2.7493289,6.0337412e-7,2836.2448,958.50392)"
       gradientUnits="userSpaceOnUse"
       id="radialGradient4151"
       xlink:href="#linearGradient4308" />
    <linearGradient
       y2="1029.6985"
       x2="11"
       y1="1024.8933"
       x1="11"
       gradientTransform="translate(4.9999994,-24.99998)"
       gradientUnits="userSpaceOnUse"
       id="linearGradient4153"
       xlink:href="#linearGradient4299" />
    <linearGradient
       y2="1033.1851"
       x2="11.904188"
       y1="1040.6718"
       x1="11.904188"
       gradientTransform="translate(5.0000002,-7.0001007)"
       gradientUnits="userSpaceOnUse"
       id="linearGradient4167"
       xlink:href="#linearGradient4226" />
    <radialGradient
       r="19.99999"
       fy="8.4497671"
       fx="0.75304806"
       cy="8.4497671"
       cx="0.75304806"
       gradientTransform="matrix(0,0.47013694,-0.3203765,0,20.707265,1025.5622)"
       gradientUnits="userSpaceOnUse"
       id="radialGradient4169"
       xlink:href="#linearGradient2867-449-88-871-390-598-476-591-434-148-57-177-0" />
    <linearGradient
       y2="1041.2181"
       x2="9.6843271"
       y1="1034.521"
       x1="9.6843271"
       gradientTransform="translate(5.0000002,-7.0001007)"
       gradientUnits="userSpaceOnUse"
       id="linearGradient4171"
       xlink:href="#linearGradient3707-319-631-407-324-6" />
    <linearGradient
       y2="1034.458"
       x2="31.704607"
       y1="1039.8879"
       x1="31.704607"
       gradientTransform="matrix(1.2222222,0,0,1,2.7777778,-7.0001007)"
       gradientUnits="userSpaceOnUse"
       id="linearGradient4174"
       xlink:href="#linearGradient4194" />
    <linearGradient
       y2="1037.4253"
       x2="28.553572"
       y1="1038.7977"
       x1="28.553572"
       gradientTransform="matrix(1.2222222,0,0,1,2.777778,-8.0001247)"
       gradientUnits="userSpaceOnUse"
       id="linearGradient4176"
       xlink:href="#linearGradient4106" />
    <linearGradient
       y2="1034.458"
       x2="31.704607"
       y1="1039.8879"
       x1="31.704607"
       gradientTransform="matrix(1.2222222,0,0,1,2.7777769,-3.999998)"
       gradientUnits="userSpaceOnUse"
       id="linearGradient4178"
       xlink:href="#linearGradient4194" />
    <linearGradient
       y2="1017.8691"
       x2="22.914341"
       y1="1016.0691"
       x1="22.914341"
       gradientTransform="matrix(1.2222222,0,0,1,2.777777,16.000002)"
       gradientUnits="userSpaceOnUse"
       id="linearGradient4180"
       xlink:href="#linearGradient4322" />
    <linearGradient
       y2="1023.424"
       x2="10.757614"
       y1="1030.2664"
       x1="10.757614"
       gradientTransform="translate(4.9999994,6.0000021)"
       gradientUnits="userSpaceOnUse"
       id="linearGradient4182"
       xlink:href="#linearGradient4236" />
    <radialGradient
       r="1.9999999"
       fy="1024.8368"
       fx="13.631346"
       cy="1024.8368"
       cx="13.631346"
       gradientTransform="matrix(6.6544265e-7,3.0321498,-2.7493289,6.0337412e-7,2836.2448,989.5039)"
       gradientUnits="userSpaceOnUse"
       id="radialGradient4184"
       xlink:href="#linearGradient4308" />
    <linearGradient
       y2="1029.6985"
       x2="11"
       y1="1024.8933"
       x1="11"
       gradientTransform="translate(4.9999994,6.0000021)"
       gradientUnits="userSpaceOnUse"
       id="linearGradient4186"
       xlink:href="#linearGradient4299" />
  </defs>
  <metadata
     id="metadata7">
    <rdf:RDF>
      <cc:Work
         rdf:about="">
        <dc:format>image/svg+xml</dc:format>
        <dc:type
           rdf:resource="http://purl.org/dc/dcmitype/StillImage" />
        <dc:title />
      </cc:Work>
    </rdf:RDF>
  </metadata>
  <g
     transform="translate(0,-988.3622)"
     id="layer1">
    <path
       transform="matrix(1.5886852,0,0,1.5886852,-2.8686047,975.32698)"
       d="m 17.5514,45.853424 c 0,0.418419 -1.413315,0.757615 -3.156727,0.757615 -1.743412,0 -3.156726,-0.339196 -3.156726,-0.757615 0,-0.418419 1.413314,-0.757614 3.156726,-0.757614 1.743412,0 3.156727,0.339195 3.156727,0.757614 z"
       id="path4114"
       style="opacity:0.07999998;fill:#000000;fill-opacity:1;stroke:none;filter:url(#filter4128)" />
    <path
       id="rect5505-21-3-2"
       d="m 10.910256,991.84951 42.17949,0 c 1.335282,0 2.410256,1.09985 2.410256,2.47097 l 0,45.04922 c 0,1.3713 -1.074974,2.4935 -2.410256,2.4925 l -27.589746,0 -5,6 -5,-6 -4.589744,0 C 9.5749744,1041.8622 8.5,1040.741 8.5,1039.3697 l 0,-45.04922 c 0,-1.37112 1.0749744,-2.47097 2.410256,-2.47097 z"
       style="color:#000000;fill:#eeeeee;fill-opacity:1;stroke:#b1b1b1;stroke-width:0.99999994;stroke-linecap:round;stroke-linejoin:round;stroke-miterlimit:4;stroke-opacity:1;stroke-dashoffset:0;marker:none;visibility:visible;display:inline;overflow:visible;enable-background:accumulate" />
    <path
       style="opacity:0.7;color:#000000;fill:none;stroke:url(#linearGradient4190);stroke-width:1;stroke-linecap:round;stroke-linejoin:miter;stroke-miterlimit:4;stroke-opacity:1;stroke-dasharray:none;stroke-dashoffset:0;marker:none;visibility:visible;display:inline;overflow:visible;enable-background:accumulate"
       d="m 11.807659,992.8622 40.384027,0 c 2.155816,0 2.307658,0.10905 2.307658,2.39275 l 0,42.67735 c 0,1.6576 0.10358,2.9742 -2.307658,2.9299 l -27.191686,0 -4.5,5.5 -4.5,-5.5 -4.192341,0 c -2.1140345,0 -2.3076583,-1.0636 -2.3076583,-2.9299 l 0,-42.67736 c 0,-2.39223 0.3692978,-2.39274 2.3076583,-2.39274 z"
       id="path4096" />
    <g
       transform="translate(0,-8.9999824)"
       id="g4161">
      <rect
         width="5.0002856"
         height="5.0002856"
         rx="0.38463727"
         ry="0.38463727"
         x="15.5"
         y="1027.8619"
         id="rect4204"
         style="opacity:0.7;color:#000000;fill:none;stroke:url(#linearGradient4167);stroke-width:3;stroke-linecap:round;stroke-linejoin:round;stroke-miterlimit:4;stroke-opacity:1;stroke-dasharray:none;stroke-dashoffset:0;marker:none;visibility:visible;display:inline;overflow:visible;enable-background:accumulate" />
      <rect
         style="color:#000000;fill:url(#radialGradient4169);fill-opacity:1;fill-rule:nonzero;stroke:url(#linearGradient4171);stroke-width:1.00000012;stroke-linecap:round;stroke-linejoin:round;stroke-miterlimit:4;stroke-opacity:1;stroke-dasharray:none;stroke-dashoffset:0;marker:none;visibility:visible;display:inline;overflow:visible;enable-background:accumulate"
         id="rect3315"
         y="1027.8619"
         x="15.5"
         ry="0.38463727"
         rx="0.38463727"
         height="5.0002856"
         width="5.0002856" />
      <rect
         ry="1"
         rx="1.2222222"
         y="1029.3622"
         x="26"
         height="2"
         width="22"
         id="rect4192"
         style="opacity:0.6;fill:none;stroke:url(#linearGradient4174);stroke-width:2;stroke-miterlimit:4;stroke-opacity:1;stroke-dasharray:none" />
      <rect
         style="fill:url(#linearGradient4176);fill-opacity:1;fill-rule:nonzero;stroke:none"
         id="rect4179"
         width="22"
         height="2"
         x="26"
         y="1029.3622"
         rx="1.2222222"
         ry="1" />
    </g>
    <g
       transform="translate(0,-0.99998238)"
       id="g4155">
      <rect
         style="opacity:0.6;fill:none;stroke:url(#linearGradient4178);stroke-width:2;stroke-miterlimit:4;stroke-opacity:1;stroke-dasharray:none"
         id="rect4248"
         width="22"
         height="2"
         x="26"
         y="1032.3622"
         rx="1.2222222"
         ry="1" />
      <rect
         ry="1"
         rx="1.2222222"
         y="1032.3622"
         x="26"
         height="2"
         width="22"
         id="rect4330"
         style="fill:url(#linearGradient4180);fill-opacity:1;fill-rule:nonzero;stroke:none" />
      <rect
         style="opacity:0.6;color:#000000;fill:none;stroke:url(#linearGradient4182);stroke-width:3;stroke-linecap:round;stroke-linejoin:round;stroke-miterlimit:4;stroke-opacity:1;stroke-dasharray:none;stroke-dashoffset:0;marker:none;visibility:visible;display:inline;overflow:visible;enable-background:accumulate"
         id="rect4234"
         y="1031.8622"
         x="16.5"
         ry="0.23076917"
         rx="0.23076917"
         height="2.9999998"
         width="2.9999998" />
      <rect
         width="2.9999998"
         height="2.9999998"
         rx="0.23076917"
         ry="0.23076917"
         x="16.5"
         y="1031.8622"
         id="rect4237"
         style="color:#000000;fill:url(#radialGradient4184);fill-opacity:1;fill-rule:nonzero;stroke:url(#linearGradient4186);stroke-width:1.00000012;stroke-linecap:round;stroke-linejoin:round;stroke-miterlimit:4;stroke-opacity:1;stroke-dasharray:none;stroke-dashoffset:0;marker:none;visibility:visible;display:inline;overflow:visible;enable-background:accumulate" />
    </g>
    <rect
       style="opacity:0.6;fill:none;stroke:url(#linearGradient4127);stroke-width:2;stroke-miterlimit:4;stroke-opacity:1;stroke-dasharray:none"
       id="rect4119"
       width="22"
       height="2"
       x="26"
       y="1009.3622"
       rx="1.2222222"
       ry="1" />
    <rect
       ry="1"
       rx="1.2222222"
       y="1009.3622"
       x="26"
       height="2"
       width="22"
       id="rect4121"
       style="fill:url(#linearGradient4129);fill-opacity:1;fill-rule:nonzero;stroke:none" />
    <rect
       style="opacity:0.6;color:#000000;fill:none;stroke:url(#linearGradient4131);stroke-width:3;stroke-linecap:round;stroke-linejoin:round;stroke-miterlimit:4;stroke-opacity:1;stroke-dasharray:none;stroke-dashoffset:0;marker:none;visibility:visible;display:inline;overflow:visible;enable-background:accumulate"
       id="rect4123"
       y="1008.8622"
       x="16.5"
       ry="0.23076917"
       rx="0.23076917"
       height="2.9999998"
       width="2.9999998" />
    <rect
       width="2.9999998"
       height="2.9999998"
       rx="0.23076917"
       ry="0.23076917"
       x="16.5"
       y="1008.8622"
       id="rect4125"
       style="color:#000000;fill:url(#radialGradient4133);fill-opacity:1;fill-rule:nonzero;stroke:url(#linearGradient4135);stroke-width:1.00000012;stroke-linecap:round;stroke-linejoin:round;stroke-miterlimit:4;stroke-opacity:1;stroke-dasharray:none;stroke-dashoffset:0;marker:none;visibility:visible;display:inline;overflow:visible;enable-background:accumulate" />
    <rect
       ry="1"
       rx="1.2222222"
       y="1001.3622"
       x="26"
       height="2"
       width="22"
       id="rect4137"
       style="opacity:0.6;fill:none;stroke:url(#linearGradient4145);stroke-width:2;stroke-miterlimit:4;stroke-opacity:1;stroke-dasharray:none" />
    <rect
       style="fill:url(#linearGradient4147);fill-opacity:1;fill-rule:nonzero;stroke:none"
       id="rect4139"
       width="22"
       height="2"
       x="26"
       y="1001.3622"
       rx="1.2222222"
       ry="1" />
    <g
       transform="matrix(1.3252289,0,0,1.3252289,-73.134268,-277.13478)"
       id="g4360">
      <path
         d="m 93.314845,965.69194 c -0.173257,-0.10199 -0.307317,-0.0755 -0.395883,-0.0187 l -11.796108,7.51142 -2.17105,1.38636 -0.06684,0.0281 -2.570398,5.79205 6.370142,0.19187 0.05288,-0.0354 2.18501,-1.37901 11.793169,-7.57621 c 0.354271,-0.22699 -0.206018,-1.73141 -1.256855,-3.38062 -0.788131,-1.2369 -1.624293,-2.21385 -2.144067,-2.51981 l 0,0 z"
         id="path2422"
         style="opacity:0.15;fill:#0c0c0c;fill-opacity:1;fill-rule:evenodd;stroke:none" />
      <path
         d="m 79.779885,972.7759 c 0.445921,-0.33462 1.697104,0.29307 2.846888,1.43713 1.147034,1.14133 1.75142,2.3626 1.42438,2.81289 -0.0012,0.002 0.02814,0.025 0.02686,0.0267 l 16.010047,-16.08853 c 0.40648,-0.40847 -0.225085,-1.6993 -1.411371,-2.87969 -1.186282,-1.18038 -2.480279,-1.80553 -2.886764,-1.39705 l -16.01004,16.08852 z"
         id="rect2383"
         style="fill:url(#linearGradient4374);fill-opacity:1;stroke:#0c0c0c;stroke-width:0.37729332;stroke-linecap:butt;stroke-linejoin:round;stroke-miterlimit:4;stroke-opacity:1;stroke-dasharray:none;stroke-dashoffset:0" />
      <path
         d="m 93.836024,958.65086 c 0.445921,-0.33462 1.697105,0.29307 2.846888,1.43713 1.147033,1.14132 1.75142,2.3626 1.424379,2.81288 -0.0012,0.002 0.02814,0.025 0.02686,0.0267 l 1.953899,-1.96348 0.0399,-0.0401 c 0.001,-0.002 -0.0281,-0.025 -0.0269,-0.0267 0.32704,-0.45028 -0.277348,-1.67156 -1.424381,-2.81288 -1.149782,-1.14407 -2.400965,-1.77175 -2.846887,-1.43713 l -0.03988,0.0401 -1.953901,1.96348 3e-6,0 z"
         id="rect3175"
         style="opacity:0.8;fill:#ffb6ed;fill-opacity:1;stroke:#e28ccd;stroke-width:0.37729332;stroke-linecap:butt;stroke-linejoin:round;stroke-miterlimit:4;stroke-opacity:1;stroke-dasharray:none;stroke-dashoffset:0" />
      <path
         d="m 79.779885,972.7759 c 0.445921,-0.33462 1.697105,0.29307 2.846887,1.43713 1.147034,1.14132 1.751421,2.3626 1.42438,2.81289 -0.0012,0.002 0.02814,0.025 0.02687,0.0267 l 11.025592,-11.07965 0.03988,-0.0401 c 0.0013,-0.002 -0.02811,-0.025 -0.02686,-0.0267 0.327034,-0.45029 -0.277353,-1.67156 -1.424386,-2.81289 -1.149783,-1.14406 -2.400968,-1.77174 -2.846889,-1.43713 l -0.03988,0.0401 -11.025589,11.07965 -5e-6,0 z"
         id="path3208"
         style="opacity:0.6;fill:#0c0c0c;fill-opacity:1;stroke:none" />
      <path
         d="m 91.645935,960.85168 c 0.44592,-0.33462 1.697106,0.29307 2.846888,1.43713 1.147033,1.14132 1.751421,2.3626 1.424379,2.81289 -0.0012,0.002 0.02814,0.025 0.02686,0.0267 l 0.199378,-0.20036 c 0.0013,-0.002 -0.02811,-0.025 -0.02686,-0.0267 0.327042,-0.45029 -0.277346,-1.67156 -1.42438,-2.81289 -1.149782,-1.14406 -2.400967,-1.77174 -2.846887,-1.43713 l -0.199378,0.20036 0,0 z"
         id="path3233"
         style="fill:url(#linearGradient4376);fill-opacity:1;stroke:none" />
      <path
         d="m 91.463217,961.03529 c 0.445922,-0.33461 1.697107,0.29307 2.846888,1.43713 1.147035,1.14133 1.751422,2.3626 1.42438,2.81289 -0.0012,0.002 0.02813,0.025 0.02686,0.0267 l 0.199377,-0.20036 c 0.0013,-0.002 -0.02811,-0.025 -0.02686,-0.0267 0.327044,-0.45028 -0.277344,-1.67156 -1.424379,-2.81288 -1.149782,-1.14407 -2.400966,-1.77175 -2.846889,-1.43713 l -0.199377,0.20035 0,0 z"
         id="path3216"
         style="fill:url(#linearGradient4378);fill-opacity:1;stroke:none" />
      <path
         d="m 92.280875,960.21363 c 0.445921,-0.33462 1.697105,0.29306 2.846888,1.43713 1.147033,1.14132 1.751421,2.3626 1.42438,2.81288 -0.0012,0.002 0.02813,0.025 0.02686,0.0267 l 0.199378,-0.20035 c 0.0013,-0.002 -0.02811,-0.025 -0.02686,-0.0267 0.327041,-0.45029 -0.277346,-1.67156 -1.424381,-2.81289 -1.149782,-1.14406 -2.400964,-1.77175 -2.846888,-1.43713 l -0.199377,0.20036 0,0 z"
         id="path3248"
         style="fill:url(#linearGradient4380);fill-opacity:1;stroke:none" />
      <path
         d="m 92.098157,960.39724 c 0.445923,-0.33462 1.697107,0.29307 2.846888,1.43713 1.147035,1.14132 1.751422,2.3626 1.424381,2.81289 -0.0012,0.002 0.02814,0.025 0.02686,0.0267 l 0.199377,-0.20036 c 0.0013,-0.002 -0.02811,-0.025 -0.02686,-0.0267 0.327042,-0.45029 -0.277345,-1.67156 -1.424379,-2.81289 -1.149781,-1.14406 -2.400966,-1.77174 -2.846889,-1.43713 l -0.199378,0.20036 z"
         id="path3250"
         style="fill:url(#linearGradient4382);fill-opacity:1;stroke:none" />
      <path
         d="m 92.918885,959.57249 c 0.44592,-0.33462 1.697104,0.29307 2.846887,1.43713 1.147033,1.14132 1.751421,2.3626 1.42438,2.81289 -0.0012,0.002 0.02813,0.025 0.02686,0.0267 l 0.199376,-0.20036 c 0.0013,-0.002 -0.02811,-0.025 -0.02686,-0.0267 0.327042,-0.45028 -0.277346,-1.67156 -1.42438,-2.81289 -1.14978,-1.14406 -2.400965,-1.77174 -2.846887,-1.43713 l -0.199377,0.20036 10e-7,0 z"
         id="path3256"
         style="fill:url(#linearGradient4384);fill-opacity:1;stroke:none" />
      <path
         d="m 92.736168,959.7561 c 0.445919,-0.33461 1.697105,0.29307 2.846887,1.43713 1.147033,1.14133 1.751422,2.3626 1.424379,2.81289 -0.0012,0.002 0.02814,0.025 0.02686,0.0267 l 0.199378,-0.20036 c 0.0013,-0.002 -0.02811,-0.025 -0.02686,-0.0267 0.327042,-0.45028 -0.277346,-1.67156 -1.424379,-2.81288 -1.149782,-1.14407 -2.400967,-1.77175 -2.846888,-1.43713 l -0.199377,0.20035 0,0 z"
         id="path3258"
         style="fill:url(#linearGradient4386);fill-opacity:1;stroke:none" />
      <path
         d="m 76.711784,980.05781 7.283734,-2.97084 0.06206,-0.062 c 0.327041,-0.45029 -0.285228,-1.67166 -1.432262,-2.81299 -1.149783,-1.14406 -2.399488,-1.76828 -2.845409,-1.43366 l -3.068118,7.27954 -5e-6,0 z"
         id="path3270"
         style="fill:url(#linearGradient4388);fill-opacity:1;fill-rule:evenodd;stroke:url(#linearGradient4390);stroke-width:0.37729332;stroke-linecap:butt;stroke-linejoin:miter;stroke-miterlimit:4;stroke-opacity:1;stroke-dasharray:none" />
      <path
         d="m 77.542853,978.08621 -0.831516,1.96381 1.986639,-0.81444 c -0.159226,-0.19072 -0.306218,-0.38444 -0.497391,-0.57466 -0.220091,-0.219 -0.436571,-0.39669 -0.657732,-0.57471 z"
         id="path3281"
         style="fill:#0c0c0c;fill-opacity:1;fill-rule:evenodd;stroke:#0c0c0c;stroke-width:0.37729332;stroke-linecap:butt;stroke-linejoin:miter;stroke-miterlimit:4;stroke-opacity:1;stroke-dasharray:none" />
    </g>
    <rect
       width="2.9999998"
       height="2.9999998"
       rx="0.23076917"
       ry="0.23076917"
       x="16.5"
       y="1000.8622"
       id="rect4141"
       style="opacity:0.6;color:#000000;fill:none;stroke:url(#linearGradient4149);stroke-width:3;stroke-linecap:round;stroke-linejoin:round;stroke-miterlimit:4;stroke-opacity:1;stroke-dasharray:none;stroke-dashoffset:0;marker:none;visibility:visible;display:inline;overflow:visible;enable-background:accumulate" />
    <rect
       style="color:#000000;fill:url(#radialGradient4151);fill-opacity:1;fill-rule:nonzero;stroke:url(#linearGradient4153);stroke-width:1.00000012;stroke-linecap:round;stroke-linejoin:round;stroke-miterlimit:4;stroke-opacity:1;stroke-dasharray:none;stroke-dashoffset:0;marker:none;visibility:visible;display:inline;overflow:visible;enable-background:accumulate"
       id="rect4143"
       y="1000.8622"
       x="16.5"
       ry="0.23076917"
       rx="0.23076917"
       height="2.9999998"
       width="2.9999998" />
  </g>
</svg>
