<?xml version="1.0" encoding="UTF-8" standalone="no"?>
<svg
   xmlns:dc="http://purl.org/dc/elements/1.1/"
   xmlns:cc="http://creativecommons.org/ns#"
   xmlns:rdf="http://www.w3.org/1999/02/22-rdf-syntax-ns#"
   xmlns:svg="http://www.w3.org/2000/svg"
   xmlns="http://www.w3.org/2000/svg"
   xmlns:xlink="http://www.w3.org/1999/xlink"
   id="svg5029"
   height="64"
   width="64"
   version="1.1">
  <defs
     id="defs5031">
    <radialGradient
       gradientTransform="matrix(3.1638751,0,0,0.99999998,558.29706,737.36219)"
       gradientUnits="userSpaceOnUse"
       xlink:href="#linearGradient5747"
       id="radialGradient4298"
       r="2.5"
       cy="43.5"
       cx="4.993" />
    <linearGradient
       id="linearGradient5747">
      <stop
         offset="0"
         style="stop-color:#000000;stop-opacity:1"
         id="stop5749" />
      <stop
         offset="1"
         style="stop-color:#000000;stop-opacity:0"
         id="stop5751" />
    </linearGradient>
    <radialGradient
       gradientTransform="matrix(3.1638751,0,0,0.99999998,-545.70295,-824.36219)"
       gradientUnits="userSpaceOnUse"
       xlink:href="#linearGradient5747"
       id="radialGradient4300"
       r="2.5"
       cy="43.5"
       cx="4.993" />
    <linearGradient
       spreadMethod="reflect"
       gradientTransform="matrix(1.5789502,0,0,0.7142857,514.1052,749.79079)"
       gradientUnits="userSpaceOnUse"
       xlink:href="#linearGradient5747"
       id="linearGradient4302"
       y2="39.999947"
       x2="24.633329"
       y1="43.499947"
       x1="24.633329" />
    <radialGradient
       gradientTransform="matrix(6.7153141e-8,3.1759097,-2.8372145,0,575.97388,704.84825)"
       gradientUnits="userSpaceOnUse"
       xlink:href="#radialGradient3164"
       id="radialGradient4304"
       r="20"
       cy="8.4497995"
       cx="7.4956999" />
    <radialGradient
       gradientTransform="matrix(1.273594e-7,3.2957553,-5.3809239,0,77.467708,-19.382411)"
       gradientUnits="userSpaceOnUse"
       id="radialGradient3164"
       r="20"
       cy="8.4497995"
       cx="7.4956999">
      <stop
         offset="0"
         style="stop-color:#f8b17e;stop-opacity:1"
         id="stop3244" />
      <stop
         offset="0.26238"
         style="stop-color:#e35d4f;stop-opacity:1"
         id="stop3246" />
      <stop
         offset="0.66093999"
         style="stop-color:#c6262e;stop-opacity:1"
         id="stop3248" />
      <stop
         offset="1"
         style="stop-color:#690b54;stop-opacity:1"
         id="stop3250" />
    </radialGradient>
    <linearGradient
       gradientUnits="userSpaceOnUse"
       xlink:href="#linearGradient3173"
       id="linearGradient4306"
       y2="727.36218"
       x2="567"
       y1="781.36218"
       x1="567" />
    <linearGradient
       gradientTransform="matrix(2.641026,0,0,2.641026,0.6153903,-60.384616)"
       gradientUnits="userSpaceOnUse"
       id="linearGradient3173"
       y2="3.8989999"
       x2="24"
       y1="44"
       x1="24">
      <stop
         offset="0"
         style="stop-color:#791235;stop-opacity:1"
         id="stop2492" />
      <stop
         offset="1"
         style="stop-color:#bf1d09;stop-opacity:1"
         id="stop2494" />
    </linearGradient>
    <linearGradient
       gradientUnits="userSpaceOnUse"
       xlink:href="#linearGradient3173"
       id="linearGradient4308"
       y2="448.54031"
       x2="598.96619"
       y1="475.45972"
       x1="598.96619" />
    <linearGradient
       gradientUnits="userSpaceOnUse"
       xlink:href="#linearGradient3173"
       id="linearGradient4310"
       y2="448.54031"
       x2="598.96619"
       y1="475.45972"
       x1="598.96619" />
    <linearGradient
       gradientTransform="matrix(0.72972971,0,0,1.378391,534.4865,721.28104)"
       gradientUnits="userSpaceOnUse"
       xlink:href="#linearGradient3128"
       id="linearGradient4312"
       y2="43"
       x2="24"
       y1="5.4200001"
       x1="24" />
    <linearGradient
       gradientTransform="matrix(2.7297298,0,0,2.7297298,-1.5135111,-62.513486)"
       gradientUnits="userSpaceOnUse"
       id="linearGradient3128"
       y2="43"
       x2="24"
       y1="5.3301001"
       x1="24">
      <stop
         offset="0"
         style="stop-color:#ffffff;stop-opacity:1"
         id="stop3926" />
      <stop
         offset="0.02982479"
         style="stop-color:#ffffff;stop-opacity:0.23529412"
         id="stop3952" />
      <stop
         offset="0.9614116"
         style="stop-color:#ffffff;stop-opacity:0.15686275"
         id="stop3954" />
      <stop
         offset="1"
         style="stop-color:#ffffff;stop-opacity:0.39215687"
         id="stop3956" />
    </linearGradient>
    <linearGradient
       gradientTransform="matrix(0.4054054,0,0,1.378391,523.27021,721.28104)"
       gradientUnits="userSpaceOnUse"
       xlink:href="#linearGradient3128"
       id="linearGradient4314"
       y2="43"
       x2="24"
       y1="5.4200001"
       x1="24" />
    <linearGradient
       gradientTransform="translate(-1780.7244,61)"
       gradientUnits="userSpaceOnUse"
       xlink:href="#linearGradient5761"
       id="linearGradient4316"
       y2="-592"
       x2="1012.3622"
       y1="-592"
       x1="1004.3622" />
    <linearGradient
       id="linearGradient5761">
      <stop
         offset="0"
         style="stop-color:#ffffff;stop-opacity:1"
         id="stop5763" />
      <stop
         offset="1"
         style="stop-color:#ffffff;stop-opacity:0"
         id="stop5765" />
    </linearGradient>
    <linearGradient
       gradientTransform="translate(-1768.7244,61)"
       gradientUnits="userSpaceOnUse"
       xlink:href="#linearGradient5761"
       id="linearGradient4318"
       y2="-592"
       x2="1012.3622"
       y1="-592"
       x1="1004.3622" />
    <linearGradient
       gradientTransform="translate(-1756.7244,61)"
       gradientUnits="userSpaceOnUse"
       xlink:href="#linearGradient5761"
       id="linearGradient4320"
       y2="-592"
       x2="1012.3622"
       y1="-592"
       x1="1004.3622" />
    <linearGradient
       gradientTransform="translate(-1744.7244,61)"
       gradientUnits="userSpaceOnUse"
       xlink:href="#linearGradient5761"
       id="linearGradient4322"
       y2="-592"
       x2="1012.3622"
       y1="-592"
       x1="1004.3622" />
    <linearGradient
       gradientTransform="matrix(-0.4054054,0,0,1.378391,580.72979,721.28104)"
       gradientUnits="userSpaceOnUse"
       xlink:href="#linearGradient3128"
       id="linearGradient4324"
       y2="43"
       x2="24"
       y1="5.4200001"
       x1="24" />
    <linearGradient
       gradientTransform="translate(-1780.7244,1165)"
       gradientUnits="userSpaceOnUse"
       xlink:href="#linearGradient5761"
       id="linearGradient4326"
       y2="-592"
       x2="1012.3622"
       y1="-592"
       x1="1004.3622" />
    <linearGradient
       gradientTransform="translate(-1768.7244,1165)"
       gradientUnits="userSpaceOnUse"
       xlink:href="#linearGradient5761"
       id="linearGradient4328"
       y2="-592"
       x2="1012.3622"
       y1="-592"
       x1="1004.3622" />
    <linearGradient
       gradientTransform="translate(-1756.7244,1165)"
       gradientUnits="userSpaceOnUse"
       xlink:href="#linearGradient5761"
       id="linearGradient4330"
       y2="-592"
       x2="1012.3622"
       y1="-592"
       x1="1004.3622" />
    <linearGradient
       gradientTransform="translate(-1744.7244,1165)"
       gradientUnits="userSpaceOnUse"
       xlink:href="#linearGradient5761"
       id="linearGradient4332"
       y2="-592"
       x2="1012.3622"
       y1="-592"
       x1="1004.3622" />
    <linearGradient
       gradientUnits="userSpaceOnUse"
       xlink:href="#linearGradient3173"
       id="linearGradient4334"
       y2="448.54031"
       x2="598.96619"
       y1="475.45972"
       x1="598.96619" />
    <linearGradient
       gradientUnits="userSpaceOnUse"
       xlink:href="#linearGradient3173"
       id="linearGradient4336"
       y2="448.54031"
       x2="598.96619"
       y1="475.45972"
       x1="598.96619" />
    <linearGradient
       gradientUnits="userSpaceOnUse"
       xlink:href="#linearGradient3173"
       id="linearGradient4338"
       y2="448.54031"
       x2="598.96619"
       y1="475.45972"
       x1="598.96619" />
    <linearGradient
       gradientUnits="userSpaceOnUse"
       xlink:href="#linearGradient3173"
       id="linearGradient4340"
       y2="448.54031"
       x2="598.96619"
       y1="475.45972"
       x1="598.96619" />
  </defs>
  <metadata
     id="metadata5034">
    <rdf:RDF>
      <cc:Work
         rdf:about="">
        <dc:format>image/svg+xml</dc:format>
        <dc:type
           rdf:resource="http://purl.org/dc/dcmitype/StillImage" />
        <dc:title />
      </cc:Work>
    </rdf:RDF>
  </metadata>
  <g
     id="layer1"
     transform="translate(0,-988.36218)">
    <g
       id="g4186"
       transform="translate(-520,267)">
      <rect
         style="opacity:0.4;fill:url(#radialGradient4298);fill-opacity:1"
         id="rect2801"
         y="778.36218"
         x="574.10529"
         height="5"
         width="7.8947511" />
      <rect
         style="opacity:0.4;fill:url(#radialGradient4300);fill-opacity:1"
         id="rect3696"
         transform="scale(-1,-1)"
         y="-783.36218"
         x="-529.89471"
         height="5"
         width="7.8947511" />
      <rect
         style="opacity:0.4;fill:url(#linearGradient4302);fill-opacity:1"
         id="rect3700"
         y="778.36218"
         x="529.89471"
         height="5"
         width="44.210606" />
      <rect
         style="color:#000000;fill:url(#radialGradient4304);fill-opacity:1;fill-rule:nonzero;stroke:url(#linearGradient4306);stroke-width:1;stroke-linecap:round;stroke-linejoin:round;stroke-miterlimit:4;stroke-opacity:1;stroke-dasharray:none;stroke-dashoffset:0;enable-background:accumulate"
         id="rect5505-21"
         y="727.86218"
         x="537.5"
         height="53"
         width="29" />
      <path
         style="opacity:0.06000001;fill:url(#linearGradient4308);fill-opacity:1;fill-rule:evenodd;stroke:url(#linearGradient4310);stroke-width:1.13844872;stroke-linejoin:round;stroke-miterlimit:4;stroke-opacity:1;stroke-dasharray:none"
         id="path6184"
         transform="matrix(1.0385044,0,0,0.7429588,-82.205504,414.1152)"
         d="m 599.61759,474.78671 0,-25.57342 L 621.76482,462 z" />
      <rect
         style="opacity:0.5;fill:none;stroke:url(#linearGradient4312);stroke-width:0.99999988;stroke-linecap:round;stroke-linejoin:miter;stroke-miterlimit:4;stroke-dasharray:none;stroke-dashoffset:0"
         id="rect6741"
         y="728.86218"
         x="538.5"
         height="51"
         width="27" />
      <path
         style="fill:#000000;fill-opacity:0.78431373;stroke:#000000;stroke-width:1;stroke-linecap:butt;stroke-linejoin:round;stroke-miterlimit:4;stroke-opacity:1;stroke-dasharray:none;stroke-dashoffset:0"
         id="rect6021"
         d="m 526.5,727.86217 c -1.108,0 -2,0.892 -2,2 l 0,49 c 0,1.108 0.892,2 2,2 l 11,0 0,-53 -11,0 z m 3,6 3,0 c 0.554,0 1,0.446 1,1 l 0,3 c 0,0.554 -0.446,1 -1,1 l -3,0 c -0.554,0 -1,-0.446 -1,-1 l 0,-3 c 0,-0.554 0.446,-1 1,-1 z m -0.5,12 4,0 c 0.277,0 0.5,0.223 0.5,0.5 l 0,4 c 0,0.277 -0.223,0.5 -0.5,0.5 l -4,0 c -0.277,0 -0.5,-0.223 -0.5,-0.5 l 0,-4 c 0,-0.277 0.223,-0.5 0.5,-0.5 z m 0,12 4,0 c 0.277,0 0.5,0.223 0.5,0.5 l 0,4 c 0,0.277 -0.223,0.5 -0.5,0.5 l -4,0 c -0.277,0 -0.5,-0.223 -0.5,-0.5 l 0,-4 c 0,-0.277 0.223,-0.5 0.5,-0.5 z m 0,12 4,0 c 0.277,0 0.5,0.223 0.5,0.5 l 0,4 c 0,0.277 -0.223,0.5 -0.5,0.5 l -4,0 c -0.277,0 -0.5,-0.223 -0.5,-0.5 l 0,-4 c 0,-0.277 0.223,-0.5 0.5,-0.5 z" />
      <path
         style="opacity:0.3;fill:none;stroke:url(#linearGradient4314);stroke-width:0.99999988;stroke-linecap:round;stroke-linejoin:miter;stroke-miterlimit:4;stroke-dasharray:none;stroke-dashoffset:0"
         id="rect6023"
         d="m 526.5,728.86217 c -0.554,0 -1,0.446 -1,1 l 0,49.00002 c 0,0.554 0.446,1 1,1 4.66667,0 5.33333,0 10,0 0,-17.6146 0,-35.8609 0,-51.00002 -4.66667,0 -5.33333,0 -10,0 z" />
      <rect
         style="opacity:0.4;fill:#000000;fill-opacity:1;fill-rule:evenodd;stroke:none"
         id="rect5923"
         y="769.36218"
         x="528"
         ry="1"
         rx="1"
         height="6"
         width="6" />
      <rect
         style="opacity:0.12000002;fill:none;stroke:url(#linearGradient4316);stroke-width:1;stroke-opacity:1"
         id="rect5931"
         transform="matrix(0,-1,-1,0,0,0)"
         y="-534.5"
         x="-775.86218"
         ry="2"
         rx="2"
         height="7"
         width="7" />
      <rect
         style="opacity:0.4;fill:#000000;fill-opacity:1;fill-rule:evenodd;stroke:none"
         id="rect5937"
         y="757.36218"
         x="528"
         ry="1"
         rx="1"
         height="6"
         width="6" />
      <rect
         style="opacity:0.12000002;fill:none;stroke:url(#linearGradient4318);stroke-width:1;stroke-opacity:1"
         id="rect5941"
         transform="matrix(0,-1,-1,0,0,0)"
         y="-534.5"
         x="-763.86218"
         ry="2"
         rx="2"
         height="7"
         width="7" />
      <rect
         style="opacity:0.4;fill:#000000;fill-opacity:1;fill-rule:evenodd;stroke:none"
         id="rect5947"
         y="745.36218"
         x="528"
         ry="1"
         rx="1"
         height="6"
         width="6" />
      <rect
         style="opacity:0.12000002;fill:none;stroke:url(#linearGradient4320);stroke-width:1;stroke-opacity:1"
         id="rect5951"
         transform="matrix(0,-1,-1,0,0,0)"
         y="-534.5"
         x="-751.86218"
         ry="2"
         rx="2"
         height="7"
         width="7" />
      <rect
         style="opacity:0.12000002;fill:none;stroke:url(#linearGradient4322);stroke-width:1;stroke-opacity:1"
         id="rect5961"
         transform="matrix(0,-1,-1,0,0,0)"
         y="-534.5"
         x="-739.86218"
         ry="2"
         rx="2"
         height="7"
         width="7" />
      <path
         style="fill:#000000;fill-opacity:0.78431373;stroke:#000000;stroke-width:1;stroke-linecap:butt;stroke-linejoin:round;stroke-miterlimit:4;stroke-opacity:1;stroke-dasharray:none;stroke-dashoffset:0"
         id="path6113"
         d="m 566.5,727.86217 0,53 11,0 c 1.108,0 2,-0.892 2,-2 l 0,-49 c 0,-1.108 -0.892,-2 -2,-2 l -11,0 z m 4.5,6 4,0 c 0.277,0 0.5,0.223 0.5,0.5 l 0,4 c 0,0.277 -0.223,0.5 -0.5,0.5 l -4,0 c -0.277,0 -0.5,-0.223 -0.5,-0.5 l 0,-4 c 0,-0.277 0.223,-0.5 0.5,-0.5 z m 0,12 4,0 c 0.277,0 0.5,0.223 0.5,0.5 l 0,4 c 0,0.277 -0.223,0.5 -0.5,0.5 l -4,0 c -0.277,0 -0.5,-0.223 -0.5,-0.5 l 0,-4 c 0,-0.277 0.223,-0.5 0.5,-0.5 z m 0,12 4,0 c 0.277,0 0.5,0.223 0.5,0.5 l 0,4 c 0,0.277 -0.223,0.5 -0.5,0.5 l -4,0 c -0.277,0 -0.5,-0.223 -0.5,-0.5 l 0,-4 c 0,-0.277 0.223,-0.5 0.5,-0.5 z m 0,12 4,0 c 0.277,0 0.5,0.223 0.5,0.5 l 0,4 c 0,0.277 -0.223,0.5 -0.5,0.5 l -4,0 c -0.277,0 -0.5,-0.223 -0.5,-0.5 l 0,-4 c 0,-0.277 0.223,-0.5 0.5,-0.5 z" />
      <path
         style="opacity:0.3;fill:none;stroke:url(#linearGradient4324);stroke-width:0.99999988;stroke-linecap:round;stroke-linejoin:miter;stroke-miterlimit:4;stroke-dasharray:none;stroke-dashoffset:0"
         id="path6115"
         d="m 577.5,728.86217 c 0.554,0 1,0.446 1,1 l 0,49.00002 c 0,0.554 -0.446,1 -1,1 -4.66667,0 -5.33333,0 -10,0 0,-17.6146 0,-35.8609 0,-51.00002 4.66667,0 5.33333,0 10,0 z" />
      <rect
         style="opacity:0.4;fill:#000000;fill-opacity:1;fill-rule:evenodd;stroke:none"
         id="rect6117"
         transform="scale(-1,1)"
         y="769.36218"
         x="-576"
         ry="1"
         rx="1"
         height="6"
         width="6" />
      <rect
         style="opacity:0.12000002;fill:none;stroke:url(#linearGradient4326);stroke-width:1;stroke-opacity:1"
         id="rect6121"
         transform="matrix(0,-1,1,0,0,0)"
         y="569.5"
         x="-775.86218"
         ry="2"
         rx="2"
         height="7"
         width="7" />
      <rect
         style="opacity:0.4;fill:#000000;fill-opacity:1;fill-rule:evenodd;stroke:none"
         id="rect6123"
         transform="scale(-1,1)"
         y="757.36218"
         x="-576"
         ry="1"
         rx="1"
         height="6"
         width="6" />
      <rect
         style="opacity:0.12000002;fill:none;stroke:url(#linearGradient4328);stroke-width:1;stroke-opacity:1"
         id="rect6127"
         transform="matrix(0,-1,1,0,0,0)"
         y="569.5"
         x="-763.86218"
         ry="2"
         rx="2"
         height="7"
         width="7" />
      <rect
         style="opacity:0.4;fill:#000000;fill-opacity:1;fill-rule:evenodd;stroke:none"
         id="rect6129"
         transform="scale(-1,1)"
         y="745.36218"
         x="-576"
         ry="1"
         rx="1"
         height="6"
         width="6" />
      <rect
         style="opacity:0.12000002;fill:none;stroke:url(#linearGradient4330);stroke-width:1;stroke-opacity:1"
         id="rect6133"
         transform="matrix(0,-1,1,0,0,0)"
         y="569.5"
         x="-751.86218"
         ry="2"
         rx="2"
         height="7"
         width="7" />
      <rect
         style="opacity:0.4;fill:#000000;fill-opacity:1;fill-rule:evenodd;stroke:none"
         id="rect6135"
         transform="scale(-1,1)"
         y="733.36218"
         x="-576"
         ry="1"
         rx="1"
         height="6"
         width="6" />
      <rect
         style="opacity:0.12000002;fill:none;stroke:url(#linearGradient4332);stroke-width:1;stroke-opacity:1"
         id="rect6139"
         transform="matrix(0,-1,1,0,0,0)"
         y="569.5"
         x="-739.86218"
         ry="2"
         rx="2"
         height="7"
         width="7" />
      <path
         style="opacity:0.12000002;fill:url(#linearGradient4334);fill-opacity:1;fill-rule:evenodd;stroke:url(#linearGradient4336);stroke-width:1.19142783;stroke-linejoin:round;stroke-miterlimit:4;stroke-opacity:1;stroke-dasharray:none"
         id="path6178"
         transform="matrix(0.94819965,0,0,0.7429588,-27.057188,413.1152)"
         d="m 599.61759,474.78671 0,-25.57342 L 621.76482,462 z" />
      <path
         style="opacity:0.25;fill:url(#linearGradient4338);fill-opacity:1;fill-rule:evenodd;stroke:url(#linearGradient4340);stroke-width:1.25256586;stroke-linejoin:round;stroke-miterlimit:4;stroke-opacity:1;stroke-dasharray:none"
         id="path6172"
         transform="matrix(0.85789492,0,0,0.7429588,28.09112,412.1152)"
         d="m 599.61759,474.78671 0,-25.57342 L 621.76482,462 z" />
      <path
         style="fill:#fafafa;fill-opacity:1;fill-rule:evenodd;stroke:#ffffff;stroke-width:1.32419801;stroke-linejoin:round;stroke-miterlimit:4;stroke-opacity:1;stroke-dasharray:none"
         id="path6159"
         transform="matrix(0.76759019,0,0,0.7429588,83.23942,411.1152)"
         d="m 599.61759,474.78671 0,-25.57342 L 621.76482,462 z" />
      <rect
         style="opacity:0.4;fill:#000000;fill-opacity:1;fill-rule:evenodd;stroke:none"
         id="rect10861"
         y="733.36218"
         x="528"
         ry="1"
         rx="1"
         height="6"
         width="6" />
    </g>
  </g>
</svg>
