<?xml version="1.0" encoding="UTF-8" standalone="no"?>
<svg
   version="1.1"
   width="64"
   height="64"
   id="svg2434"
   sodipodi:docname="org.inkscape.Inkscape.svg"
   inkscape:version="1.2.2 (b0a8486541, 2022-12-01)"
   xmlns:inkscape="http://www.inkscape.org/namespaces/inkscape"
   xmlns:sodipodi="http://sodipodi.sourceforge.net/DTD/sodipodi-0.dtd"
   xmlns:xlink="http://www.w3.org/1999/xlink"
   xmlns="http://www.w3.org/2000/svg"
   xmlns:svg="http://www.w3.org/2000/svg"
   xmlns:rdf="http://www.w3.org/1999/02/22-rdf-syntax-ns#"
   xmlns:cc="http://creativecommons.org/ns#"
   xmlns:dc="http://purl.org/dc/elements/1.1/">
  <sodipodi:namedview
     id="namedview16949"
     pagecolor="#ffffff"
     bordercolor="#000000"
     borderopacity="0.25"
     inkscape:showpageshadow="2"
     inkscape:pageopacity="0.0"
     inkscape:pagecheckerboard="0"
     inkscape:deskcolor="#d1d1d1"
     showgrid="false"
     inkscape:zoom="12.5625"
     inkscape:cx="29.253731"
     inkscape:cy="32.039801"
     inkscape:window-width="1920"
     inkscape:window-height="1020"
     inkscape:window-x="0"
     inkscape:window-y="0"
     inkscape:window-maximized="1"
     inkscape:current-layer="g8923" />
  <metadata
     id="metadata112005">
    <rdf:RDF>
      <cc:Work
         rdf:about="">
        <dc:format>image/svg+xml</dc:format>
        <dc:type
           rdf:resource="http://purl.org/dc/dcmitype/StillImage" />
      </cc:Work>
    </rdf:RDF>
  </metadata>
  <defs
     id="defs2436">
    <radialGradient
       cx="26.78167"
       cy="42.343147"
       r="14.407301"
       fx="26.78167"
       fy="42.343147"
       id="radialGradient2417"
       xlink:href="#linearGradient6975"
       gradientUnits="userSpaceOnUse"
       gradientTransform="matrix(1,0,0,0.282209,0,30.39355)" />
    <radialGradient
       cx="26.78167"
       cy="42.343147"
       r="14.407301"
       fx="26.78167"
       fy="42.343147"
       id="radialGradient1687"
       xlink:href="#linearGradient6975"
       gradientUnits="userSpaceOnUse"
       gradientTransform="matrix(1,0,0,0.282209,0,30.39355)" />
    <linearGradient
       id="linearGradient6528">
      <stop
         id="stop6530"
         style="stop-color:#2e3436;stop-opacity:1"
         offset="0" />
      <stop
         id="stop6532"
         style="stop-color:black;stop-opacity:1"
         offset="1" />
    </linearGradient>
    <linearGradient
       x1="24.5"
       y1="23.614397"
       x2="24.722954"
       y2="36.878933"
       id="linearGradient6534"
       xlink:href="#linearGradient6528"
       gradientUnits="userSpaceOnUse"
       gradientTransform="matrix(1.125413,0,0,1.125413,-2.601383,-5.668855)" />
    <linearGradient
       id="linearGradient6543">
      <stop
         id="stop6545"
         style="stop-color:#d3d7cf;stop-opacity:1"
         offset="0" />
      <stop
         id="stop6547"
         style="stop-color:white;stop-opacity:1"
         offset="1" />
    </linearGradient>
    <linearGradient
       x1="23.142857"
       y1="16.714287"
       x2="23.142857"
       y2="12.642857"
       id="linearGradient6549"
       xlink:href="#linearGradient6543"
       gradientUnits="userSpaceOnUse"
       gradientTransform="matrix(1.2004778,0,0,1.2004778,-4.8329153,-9.0610678)" />
    <linearGradient
       id="linearGradient8942">
      <stop
         id="stop8944"
         style="stop-color:white;stop-opacity:1"
         offset="0" />
      <stop
         id="stop8946"
         style="stop-color:white;stop-opacity:0"
         offset="1" />
    </linearGradient>
    <linearGradient
       x1="23.849895"
       y1="10.528904"
       x2="24.565037"
       y2="35.243187"
       id="linearGradient8948"
       xlink:href="#linearGradient8942"
       gradientUnits="userSpaceOnUse"
       gradientTransform="matrix(1.125413,0,0,1.125413,-2.601383,-5.668855)" />
    <linearGradient
       id="linearGradient6975">
      <stop
         id="stop6977"
         style="stop-color:black;stop-opacity:1"
         offset="0" />
      <stop
         id="stop6979"
         style="stop-color:black;stop-opacity:0"
         offset="1" />
    </linearGradient>
    <radialGradient
       cx="26.78167"
       cy="42.343147"
       r="14.407301"
       fx="26.78167"
       fy="42.343147"
       id="radialGradient6981"
       xlink:href="#linearGradient6975"
       gradientUnits="userSpaceOnUse"
       gradientTransform="matrix(1,0,0,0.282209,0,30.39355)" />
    <linearGradient
       id="linearGradient2446">
      <stop
         id="stop2448"
         style="stop-color:white;stop-opacity:1"
         offset="0" />
      <stop
         id="stop2450"
         style="stop-color:white;stop-opacity:0"
         offset="1" />
    </linearGradient>
    <linearGradient
       x1="13.236155"
       y1="37.752247"
       x2="7.7521091"
       y2="42.282146"
       id="linearGradient8938"
       xlink:href="#linearGradient2446"
       gradientUnits="userSpaceOnUse"
       gradientTransform="matrix(0.608217,-0.10171,0.04414374,0.689789,16.62085,13.35659)" />
    <linearGradient
       id="linearGradient6963">
      <stop
         id="stop6965"
         style="stop-color:#696969;stop-opacity:1"
         offset="0" />
      <stop
         id="stop6967"
         style="stop-color:black;stop-opacity:1"
         offset="1" />
    </linearGradient>
    <radialGradient
       cx="15.415101"
       cy="35.356506"
       r="7.5791559"
       fx="15.415101"
       fy="35.356506"
       id="radialGradient8936"
       xlink:href="#linearGradient6963"
       gradientUnits="userSpaceOnUse"
       gradientTransform="matrix(0.709807,-0.118699,0.05020504,0.7845,14.35988,10.7997)" />
    <linearGradient
       id="linearGradient6939">
      <stop
         id="stop6941"
         style="stop-color:#bdbdbd;stop-opacity:1"
         offset="0" />
      <stop
         id="stop6947"
         style="stop-color:#e2e2e2;stop-opacity:1"
         offset="0.33333334" />
      <stop
         id="stop6949"
         style="stop-color:#a3a3a3;stop-opacity:1"
         offset="0.66666669" />
      <stop
         id="stop6943"
         style="stop-color:#ddd;stop-opacity:1"
         offset="1" />
    </linearGradient>
    <linearGradient
       x1="19.394735"
       y1="30.001331"
       x2="23.109331"
       y2="33.438831"
       id="linearGradient8934"
       xlink:href="#linearGradient6939"
       gradientUnits="userSpaceOnUse"
       gradientTransform="matrix(0.71362,-0.119336,0.05179406,0.809329,14.74036,9.12562)" />
    <linearGradient
       id="linearGradient6951">
      <stop
         id="stop6953"
         style="stop-color:#6e3d09;stop-opacity:1"
         offset="0" />
      <stop
         id="stop6959"
         style="stop-color:#ea8113;stop-opacity:1"
         offset="0.24242425" />
      <stop
         id="stop6961"
         style="stop-color:#5c3307;stop-opacity:1"
         offset="0.62121212" />
      <stop
         id="stop6955"
         style="stop-color:#e07c12;stop-opacity:1"
         offset="1" />
    </linearGradient>
    <linearGradient
       x1="28.058632"
       y1="18.867767"
       x2="33.436985"
       y2="23.742767"
       id="linearGradient8932"
       xlink:href="#linearGradient6951"
       gradientUnits="userSpaceOnUse"
       gradientTransform="matrix(0.71362,-0.119336,0.05179406,0.809329,14.74036,9.12562)" />
  </defs>
  <g
     id="g3316"
     transform="matrix(1.3333282,0,0,1.3413295,-8.1550593e-6,0.61204712)">
    <path
       style="color:#000000;display:inline;overflow:visible;visibility:visible;opacity:0.672043;fill:url(#radialGradient2417);fill-opacity:1;fill-rule:nonzero;stroke:none;stroke-width:1;marker:none"
       id="path2415"
       transform="matrix(1.318776,0,0,1.475702,-13.31902,-30.48586)"
       d="m 41.188971,42.343147 a 14.407301,4.0658641 0 1 1 -28.814602,0 14.407301,4.0658641 0 1 1 28.814602,0 z" />
    <path
       style="color:#000000;display:inline;overflow:visible;visibility:visible;opacity:0.672043;fill:url(#radialGradient1687);fill-opacity:1;fill-rule:nonzero;stroke:none;stroke-width:1;marker:none"
       id="path1685"
       transform="matrix(1.665822,0,0,1.475702,-20.61349,-35.48588)"
       d="m 41.188971,42.343147 a 14.407301,4.0658641 0 1 1 -28.814602,0 14.407301,4.0658641 0 1 1 28.814602,0 z" />
    <path
       style="fill:url(#linearGradient6534);fill-opacity:1;fill-rule:evenodd;stroke:#000000;stroke-width:0.747763px;stroke-linecap:butt;stroke-linejoin:miter;stroke-opacity:1"
       id="path5072"
       d="M 11.606956,27.837074 C 10.146599,27.942661 2.7376298,25.797421 2.7644254,24.415855 2.7712315,21.670185 19.211692,4.4485294 20.222734,3.8946082 c 1.371402,-1.3642066 5.414374,-1.3073646 6.672091,0 1.40106,0.7078583 17.707292,19.9657368 17.630461,22.1012278 -0.08384,1.841238 -11.081334,5.615101 -12.017803,5.523712 0.0201,1.066718 3.416433,2.856917 3.91885,3.682475 0.133977,1.212818 -9.458829,3.390275 -9.485625,4.844253 l 2.311116,2.279537 c -0.06364,1.926727 -6.07589,3.049589 -8.551129,1.76085 0.257907,-1.227491 0.274655,-1.651117 -0.110531,-2.315902 -0.703383,-1.308059 -5.345712,-0.767226 -5.325616,-1.834127 -0.308149,-0.723298 3.563809,-1.36621 3.657593,-2.893374 C 18.982228,35.713601 7.0486657,32.451314 7.1655949,31.519548 7.0544743,30.689949 11.547551,29.974036 11.606956,27.837074 Z" />
    <rect
       style="fill:none;stroke:none"
       id="rect2363"
       transform="matrix(0.914302,-0.405034,0.310037,0.950724,0,0)"
       y="17.324108"
       x="7.7115307"
       height="22.817247"
       width="20.356747" />
    <path
       style="fill:url(#linearGradient6549);fill-opacity:1;fill-rule:evenodd;stroke:none"
       id="path5074"
       d="m 11.256049,13.74901 c 2.496857,-2.846781 5.470704,-5.9963087 9.10496,-9.4607566 0.971144,-1.2310257 4.656615,-1.4420597 5.933908,-0.3742673 1.455196,1.1468149 2.745529,2.4553976 4.389122,4.3717877 l 0.01967,4.0064732 -3.702099,-1.603765 v 6.002385 L 23.309798,11.888954 21.379148,15.04129 19.492644,9.9436855 17.961825,13.74901 Z" />
    <path
       style="opacity:0.4;fill:none;stroke:url(#linearGradient8948);stroke-width:0.747763px;stroke-linecap:butt;stroke-linejoin:miter;stroke-opacity:1"
       id="path6536"
       d="M 12.314822,27.064533 C 11.075081,27.43173 4.1739798,25.477443 3.6553651,24.291608 3.4080197,22.304799 19.596616,5.0217833 20.640082,4.5697334 c 1.143082,-1.300684 4.855309,-1.2334225 5.923052,0.024505 1.235832,0.7151658 16.232249,18.2596856 17.135389,21.3431166 -0.837887,1.560337 -11.121289,5.362295 -11.766252,4.733765 -0.265577,0.598396 -0.952684,1.550395 3.288058,4.523289 l -9.114439,3.710618 1.714399,2.613048 -5.384277,1.628346 -0.857199,-3.484062 -3.551622,-0.462375 2.095492,-2.870116 C 20.228124,35.621138 9.138957,32.373576 8.8465038,31.608004 7.6507292,30.974125 12.864296,30.782503 12.314822,27.064533 Z" />
    <path
       style="color:#000000;display:inline;overflow:visible;visibility:visible;opacity:0.3;fill:url(#radialGradient6981);fill-opacity:1;fill-rule:nonzero;stroke:none;stroke-width:1;marker:none"
       id="path6973"
       transform="matrix(1.33837,0,0,1,-6.951893,-3.169211)"
       d="m 41.188971,42.343147 a 14.407301,4.0658641 0 1 1 -28.814602,0 14.407301,4.0658641 0 1 1 28.814602,0 z" />
    <g
       id="g8923"
       transform="translate(-3.3167838e-4,0.101015)">
      <path
         style="color:#000000;display:inline;overflow:visible;visibility:visible;fill:url(#linearGradient8932);fill-opacity:1;fill-rule:nonzero;stroke:#3d211b;stroke-width:0.747763;stroke-linecap:round;stroke-linejoin:miter;stroke-miterlimit:4;stroke-dasharray:none;stroke-dashoffset:0;stroke-opacity:0.80000001;marker:none"
         id="path6937"
         d="m 32.815491,26.053448 3.098333,2.590809 C 40.677173,22.070645 47.362292,7.1165887 47.362292,7.1165887 47.605366,6.0743564 46.483038,5.6310026 45.984075,6.3896101 c 0,0 -9.039365,13.0428949 -13.168584,19.6638379 z" />
      <path
         style="color:#000000;display:inline;overflow:visible;visibility:visible;fill:url(#linearGradient8934);fill-opacity:1;fill-rule:nonzero;stroke:#0e141f;stroke-width:0.747763;stroke-linecap:round;stroke-linejoin:miter;stroke-miterlimit:4;stroke-dasharray:none;stroke-dashoffset:0;stroke-opacity:0.5;marker:none"
         id="path6935"
         d="m 27.920688,35.2377 1.703179,1.29703 5.679038,-6.975843 0.159732,-0.604072 0.780067,-0.145018 c -0.393138,-1.212368 -2.32616,-3.196629 -3.664197,-2.972874 l 0.114989,0.872442 -0.458436,0.387521 z" />
      <path
         style="color:#000000;display:inline;overflow:visible;visibility:visible;fill:url(#radialGradient8936);fill-opacity:1;fill-rule:nonzero;stroke:none;stroke-width:0.2;marker:none"
         id="path6933"
         d="m 20.985414,42.86777 c 4.713683,-0.788252 8.331712,-0.74985 8.760057,-4.752472 0.345188,-3.225562 -3.551035,-4.091914 -5.255072,-0.978912 -1.641523,2.998804 -3.504985,5.731384 -3.504985,5.731384 z" />
      <path
         style="color:#000000;display:inline;overflow:visible;visibility:visible;opacity:0.527778;fill:#ffffff;fill-opacity:1;fill-rule:nonzero;stroke:none;stroke-width:1;marker:none"
         id="path6971"
         transform="matrix(0.608217,-0.10171,0.04414374,0.689789,20.41956,11.75746)"
         d="m 8.8749989,37.75 a 1.2499999,1.2499999 0 1 1 -2.4999997,0 1.2499999,1.2499999 0 1 1 2.4999997,0 z" />
      <path
         style="color:#000000;display:inline;overflow:visible;visibility:visible;fill:#ffffff;fill-opacity:1;fill-rule:nonzero;stroke:none;stroke-width:1;marker:none"
         id="path6983"
         transform="matrix(0.562239,-0.09402052,0.04080659,0.637644,27.55723,4.593379)"
         d="m 8.8749989,37.75 a 1.2499999,1.2499999 0 1 1 -2.4999997,0 1.2499999,1.2499999 0 1 1 2.4999997,0 z" />
      <path
         style="color:#000000;display:inline;overflow:visible;visibility:visible;fill:none;stroke:#ffffff;stroke-width:0.747763;stroke-linecap:round;stroke-linejoin:round;stroke-miterlimit:4;stroke-dasharray:none;stroke-dashoffset:0;stroke-opacity:1;marker:none"
         id="path6985"
         d="m 32.506055,29.222896 -3.466373,5.604573" />
      <path
         style="color:#000000;display:inline;overflow:visible;visibility:visible;opacity:0.427778;fill:url(#linearGradient8938);fill-opacity:1;fill-rule:nonzero;stroke:none;stroke-width:1;marker:none"
         id="path1571"
         d="m 21.888602,42.180999 c 0,0 2.299247,-1.727487 3.188602,-3.876203 0.314651,-0.760209 1.166888,-0.298884 0.710034,0.482077 -0.986792,1.686854 -3.898636,3.394126 -3.898636,3.394126 z" />
    </g>
    <path
       style="fill:#dde0da;fill-opacity:1;fill-rule:evenodd;stroke:none"
       id="path8968"
       d="m 23.259345,29.998566 c -2.305824,0.224237 -4.422887,-0.712345 -6.728711,-1.38916 l 0.03556,1.178402 c 2.310928,0.847305 4.687994,1.481876 7.14272,1.543012 z" />
  </g>
</svg>
