<?xml version="1.0" encoding="UTF-8" standalone="no"?>
<svg
   version="1.1"
   width="64"
   height="64"
   id="svg4161"
   sodipodi:docname="org.xfce.terminal.svg"
   inkscape:version="1.2.2 (b0a8486541, 2022-12-01)"
   xmlns:inkscape="http://www.inkscape.org/namespaces/inkscape"
   xmlns:sodipodi="http://sodipodi.sourceforge.net/DTD/sodipodi-0.dtd"
   xmlns:xlink="http://www.w3.org/1999/xlink"
   xmlns="http://www.w3.org/2000/svg"
   xmlns:svg="http://www.w3.org/2000/svg"
   xmlns:rdf="http://www.w3.org/1999/02/22-rdf-syntax-ns#"
   xmlns:cc="http://creativecommons.org/ns#"
   xmlns:dc="http://purl.org/dc/elements/1.1/">
  <sodipodi:namedview
     id="namedview10150"
     pagecolor="#ffffff"
     bordercolor="#000000"
     borderopacity="0.25"
     inkscape:showpageshadow="2"
     inkscape:pageopacity="0.0"
     inkscape:pagecheckerboard="0"
     inkscape:deskcolor="#d1d1d1"
     showgrid="false"
     inkscape:zoom="51.875"
     inkscape:cx="10.13012"
     inkscape:cy="14.785542"
     inkscape:window-width="1278"
     inkscape:window-height="1005"
     inkscape:window-x="554"
     inkscape:window-y="14"
     inkscape:window-maximized="0"
     inkscape:current-layer="svg4161" />
  <defs
     id="defs4163">
    <linearGradient
       id="linearGradient3924-2-2-5-8">
      <stop
         id="stop3926-9-4-9-6"
         style="stop-color:#ffffff;stop-opacity:1"
         offset="0" />
      <stop
         id="stop3928-9-8-6-5"
         style="stop-color:#ffffff;stop-opacity:0.23529412"
         offset="0.06316455" />
      <stop
         id="stop3930-3-5-1-7"
         style="stop-color:#ffffff;stop-opacity:0.15686275"
         offset="0.95056331" />
      <stop
         id="stop3932-8-0-4-8"
         style="stop-color:#ffffff;stop-opacity:0.39215687"
         offset="1" />
    </linearGradient>
    <radialGradient
       cx="4.9929786"
       cy="43.5"
       r="2.5"
       fx="4.9929786"
       fy="43.5"
       id="radialGradient3337-2-2"
       xlink:href="#linearGradient3688-166-749-4-0-3-8"
       gradientUnits="userSpaceOnUse"
       gradientTransform="matrix(2.003784,0,0,1.4,27.98813,-17.4)" />
    <linearGradient
       id="linearGradient3688-166-749-4-0-3-8">
      <stop
         id="stop2883-4-0-1-8"
         style="stop-color:#181818;stop-opacity:1"
         offset="0" />
      <stop
         id="stop2885-9-2-9-6"
         style="stop-color:#181818;stop-opacity:0"
         offset="1" />
    </linearGradient>
    <radialGradient
       cx="4.9929786"
       cy="43.5"
       r="2.5"
       fx="4.9929786"
       fy="43.5"
       id="radialGradient3339-1-4"
       xlink:href="#linearGradient3688-464-309-9-2-4-2"
       gradientUnits="userSpaceOnUse"
       gradientTransform="matrix(2.003784,0,0,1.4,-20.01187,-104.4)" />
    <linearGradient
       id="linearGradient3688-464-309-9-2-4-2">
      <stop
         id="stop2889-7-9-6-9"
         style="stop-color:#181818;stop-opacity:1"
         offset="0" />
      <stop
         id="stop2891-6-6-1-7"
         style="stop-color:#181818;stop-opacity:0"
         offset="1" />
    </linearGradient>
    <linearGradient
       id="linearGradient3702-501-757-8-4-1-1">
      <stop
         id="stop2895-8-9-9-1"
         style="stop-color:#181818;stop-opacity:0"
         offset="0" />
      <stop
         id="stop2897-7-8-7-7"
         style="stop-color:#181818;stop-opacity:1"
         offset="0.5" />
      <stop
         id="stop2899-4-5-1-5"
         style="stop-color:#181818;stop-opacity:0"
         offset="1" />
    </linearGradient>
    <linearGradient
       x1="25.058096"
       y1="47.027729"
       x2="25.058096"
       y2="39.999443"
       id="linearGradient4159"
       xlink:href="#linearGradient3702-501-757-8-4-1-1"
       gradientUnits="userSpaceOnUse" />
    <linearGradient
       xlink:href="#linearGradient3924-2-2-5-8"
       id="linearGradient3029"
       gradientUnits="userSpaceOnUse"
       gradientTransform="matrix(1.4324324,0,0,1.4362832,-2.378381,-2.4707781)"
       x1="23.99999"
       y1="4.999989"
       x2="23.99999"
       y2="43" />
    <linearGradient
       inkscape:collect="always"
       xlink:href="#linearGradient5178"
       id="linearGradient23668"
       x1="21.619581"
       y1="7.419908"
       x2="21.619581"
       y2="47.702518"
       gradientUnits="userSpaceOnUse"
       gradientTransform="matrix(1.4102564,0,0,1.4102564,-1.8461715,-3.2564029)" />
    <linearGradient
       inkscape:collect="always"
       id="linearGradient5178">
      <stop
         style="stop-color:#667885;stop-opacity:1"
         offset="0"
         id="stop5174" />
      <stop
         style="stop-color:#485a6c;stop-opacity:1"
         offset="1"
         id="stop5176" />
    </linearGradient>
    <linearGradient
       inkscape:collect="always"
       xlink:href="#linearGradient23666"
       id="linearGradient5125"
       gradientUnits="userSpaceOnUse"
       x1="21.619581"
       y1="7.419908"
       x2="21.619581"
       y2="47.702518"
       gradientTransform="matrix(1.2820512,0,0,1.2820512,1.2307531,-0.05127601)" />
    <linearGradient
       inkscape:collect="always"
       id="linearGradient23666">
      <stop
         style="stop-color:#273445;stop-opacity:1"
         offset="0"
         id="stop23662" />
      <stop
         style="stop-color:#0e141f;stop-opacity:1"
         offset="1"
         id="stop23664" />
    </linearGradient>
  </defs>
  <metadata
     id="metadata4166">
    <rdf:RDF>
      <cc:Work
         rdf:about="">
        <dc:format>image/svg+xml</dc:format>
        <dc:type
           rdf:resource="http://purl.org/dc/dcmitype/StillImage" />
      </cc:Work>
    </rdf:RDF>
  </metadata>
  <g
     style="opacity:0.6"
     id="g3712-8-2-4-4"
     transform="matrix(1.5789502,0,0,0.7142857,-5.894751,27.928572)">
    <rect
       style="fill:url(#radialGradient3337-2-2);fill-opacity:1;stroke:none"
       id="rect2801-5-5-7-9"
       y="40"
       x="38"
       height="7"
       width="5" />
    <rect
       style="fill:url(#radialGradient3339-1-4);fill-opacity:1;stroke:none"
       id="rect3696-3-0-3-7"
       transform="scale(-1,-1)"
       y="-47"
       x="-10"
       height="7"
       width="5" />
    <rect
       style="fill:url(#linearGradient4159);fill-opacity:1;stroke:none"
       id="rect3700-5-6-8-4"
       y="40"
       x="10"
       height="7.0000005"
       width="28" />
  </g>
  <rect
     style="color:#000000;display:inline;overflow:visible;visibility:visible;opacity:1;fill:url(#linearGradient23668);fill-opacity:1;fill-rule:nonzero;stroke:none;stroke-width:1;marker:none;enable-background:accumulate;font-variation-settings:normal;vector-effect:none;stroke-linecap:butt;stroke-linejoin:miter;stroke-miterlimit:4;stroke-dasharray:none;stroke-dashoffset:0;stroke-opacity:1;-inkscape-stroke:none;stop-color:#000000;stop-opacity:1"
     id="rect5505-21-3-8-5-2"
     y="4.5"
     x="4.5"
     ry="6"
     rx="6"
     height="55"
     width="55" />
  <rect
     width="50"
     height="50"
     rx="5"
     ry="5"
     x="7"
     y="7"
     id="rect5123"
     style="color:#000000;display:inline;overflow:visible;visibility:visible;fill:url(#linearGradient5125);fill-opacity:1;fill-rule:nonzero;stroke:none;stroke-width:1;marker:none;enable-background:accumulate" />
  <rect
     style="opacity:0.3;fill:none;stroke:url(#linearGradient3029);stroke-width:1;stroke-linecap:round;stroke-linejoin:round;stroke-miterlimit:4;stroke-dasharray:none;stroke-dashoffset:0;stroke-opacity:1"
     id="rect6741-5-0-2-3"
     y="5.4287739"
     x="5.4999986"
     ry="5"
     rx="5"
     height="53.142479"
     width="53" />
  <rect
     style="color:#000000;display:inline;overflow:visible;visibility:visible;opacity:0.7;fill:none;stroke:#000000;stroke-width:1;stroke-linecap:round;stroke-linejoin:round;stroke-miterlimit:4;stroke-dasharray:none;stroke-dashoffset:0;stroke-opacity:1;marker:none;enable-background:accumulate"
     id="rect5505-21-3-8-9-1-1"
     y="4.5000019"
     x="4.4999986"
     ry="6"
     rx="6"
     height="55"
     width="55" />
  <path
     style="font-size:14.31169891px;font-style:normal;font-variant:normal;font-weight:bold;font-stretch:normal;line-height:125%;letter-spacing:0px;word-spacing:0px;opacity:0.15;color:#000000;fill:#000000;fill-opacity:1;fill-rule:nonzero;stroke:none;marker:none;visibility:visible;display:inline;overflow:visible;enable-background:accumulate;font-family:Open Sans;-inkscape-font-specification:Open Sans Bold"
     id="path4108"
     d="M 17,16.0625 A 0.92595156,0.92595156 0 0 0 16.0625,17 l 0,0.3125 c -0.920804,0.174116 -1.828635,0.471612 -2.625,1.125 -0.0074,0.0061 -0.02386,-0.0061 -0.03125,0 l 0,0.03125 c -1.631359,1.29497 -1.750855,3.662789 -0.5625,5.21875 a 0.92595156,0.92595156 0 0 0 0.03125,0.03125 c 0.892594,1.083002 2.089768,1.57612 3.1875,2 l 0,1.03125 C 15.148159,26.5817 14.239385,26.421262 13.375,26.03125 A 0.92595156,0.92595156 0 0 0 12.0625,26.875 l 0,2.375 a 0.92595156,0.92595156 0 0 0 0.5625,0.84375 c 1.10256,0.467849 2.272026,0.614611 3.4375,0.71875 l 0,1.1875 A 0.92595156,0.92595156 0 0 0 17,32.9375 l 1,0 A 0.92595156,0.92595156 0 0 0 18.9375,32 l 0,-1.28125 c 0.705436,-0.09464 1.425619,-0.164929 2.125,-0.53125 l 0,0.03125 c 0.01345,-0.0066 0.01788,-0.02451 0.03125,-0.03125 1.319138,-0.665438 2.267517,-2.010517 2.21875,-3.53125 7.9e-5,-0.01028 1.5e-5,-0.02098 0,-0.03125 -0.0011,-0.742864 -0.262915,-1.439012 -0.6875,-2.03125 a 0.92595156,0.92595156 0 0 0 0,-0.03125 c -0.984633,-1.313902 -2.484858,-1.807082 -3.6875,-2.25 l 0,-0.90625 c 0.69467,0.120781 1.413199,0.217229 1.96875,0.4375 a 0.92595156,0.92595156 0 0 0 1.1875,-0.53125 l 0.875,-2.125 A 0.92595156,0.92595156 0 0 0 22.5,18 c -1.117568,-0.47877 -2.375157,-0.704659 -3.5625,-0.8125 l 0,-0.1875 A 0.92595156,0.92595156 0 0 0 18,16.0625 l -1,0 z m 9,16 A 0.92595156,0.92595156 0 0 0 25.0625,33 l 0,3 A 0.92595156,0.92595156 0 0 0 26,36.9375 l 11,0 A 0.92595156,0.92595156 0 0 0 37.9375,36 l 0,-3 A 0.92595156,0.92595156 0 0 0 37,32.0625 l -11,0 z" />
  <path
     style="font-size:14.31169891px;font-style:normal;font-variant:normal;font-weight:bold;font-stretch:normal;line-height:125%;letter-spacing:0px;word-spacing:0px;opacity:0.3;color:#000000;fill:#000000;fill-opacity:1;fill-rule:nonzero;stroke:none;marker:none;visibility:visible;display:inline;overflow:visible;enable-background:accumulate;font-family:Open Sans;-inkscape-font-specification:Open Sans Bold"
     id="path4041"
     d="m 17,17 0,1.0625 c -1.088974,0.104041 -2.154176,0.391472 -3,1.09375 -1.21398,0.93825 -1.298197,2.800888 -0.40625,3.96875 0.862432,1.046406 2.154572,1.527266 3.40625,2 l 0,2.8125 C 15.604363,27.823494 14.268165,27.447198 13,26.875 l 0,2.375 c 1.269335,0.538616 2.620137,0.785512 4,0.8125 L 17,32 l 1,0 0,-2 c 0.844638,-0.07591 1.908372,-0.226153 2.65625,-0.625 1.038951,-0.510076 1.764953,-1.58964 1.71875,-2.71875 0.0042,-0.545911 -0.175744,-1.078957 -0.5,-1.53125 C 21.007616,23.967556 19.308649,23.465104 18,22.9375 L 18,20.25 c 1.037582,0.08439 2.287384,0.337081 3.25,0.71875 l 0.875,-2.125 C 20.8958,18.317156 19.340107,18.086316 18,18.03125 L 18,17 17,17 z m 0,3.28125 0,2.15625 C 16.471711,22.205155 15.72597,21.91363 15.75,21.25 15.72528,20.623568 16.465193,20.34149 17,20.28125 z m 1,5.34375 c 0.523941,0.255688 1.488191,0.458683 1.5,1.125 0.03011,0.679927 -0.906863,1.014708 -1.5,1.09375 L 18,25.625 z m 8,7.375 0,3 11,0 0,-3 -11,0 z" />
  <path
     style="font-size:14.31169891px;font-style:normal;font-variant:normal;font-weight:bold;font-stretch:normal;line-height:125%;letter-spacing:0px;word-spacing:0px;color:#000000;fill:#f0f0f0;fill-opacity:1;fill-rule:nonzero;stroke:none;marker:none;visibility:visible;display:inline;overflow:visible;enable-background:accumulate;font-family:Open Sans;-inkscape-font-specification:Open Sans Bold"
     id="path4041-4"
     d="m 17,16 0,1.0625 c -1.088974,0.104041 -2.154176,0.391472 -3,1.09375 -1.21398,0.93825 -1.298197,2.800888 -0.40625,3.96875 0.862432,1.046406 2.154572,1.527266 3.40625,2 l 0,2.8125 C 15.604363,26.823494 14.268165,26.447198 13,25.875 l 0,2.375 c 1.269335,0.538616 2.620137,0.785512 4,0.8125 L 17,31 l 1,0 0,-2 c 0.844638,-0.07591 1.908372,-0.226153 2.65625,-0.625 1.038951,-0.510076 1.764953,-1.58964 1.71875,-2.71875 0.0042,-0.545911 -0.175744,-1.078957 -0.5,-1.53125 C 21.007616,22.967556 19.308649,22.465104 18,21.9375 L 18,19.25 c 1.037582,0.08439 2.287384,0.337081 3.25,0.71875 l 0.875,-2.125 C 20.8958,17.317156 19.340107,17.086316 18,17.03125 L 18,16 17,16 z m 0,3.28125 0,2.15625 C 16.471711,21.205155 15.72597,20.91363 15.75,20.25 15.72528,19.623568 16.465193,19.34149 17,19.28125 z m 1,5.34375 c 0.523941,0.255688 1.488191,0.458683 1.5,1.125 0.03011,0.679927 -0.906863,1.014708 -1.5,1.09375 L 18,24.625 z m 8,7.375 0,3 11,0 0,-3 -11,0 z" />
  <rect
     width="51.999996"
     height="52"
     rx="4.5"
     ry="4.5"
     x="6.0000019"
     y="6"
     id="rect3038"
     style="opacity:0.3;fill:none;stroke:#ffffff;stroke-width:2;stroke-linecap:round;stroke-linejoin:round;stroke-miterlimit:4;stroke-dasharray:none;stroke-dashoffset:0;stroke-opacity:1" />
  <rect
     style="opacity:0.5;fill:none;stroke:#000000;stroke-width:1;stroke-linecap:round;stroke-linejoin:miter;stroke-miterlimit:4;stroke-dasharray:none;stroke-dashoffset:0;stroke-opacity:1"
     id="rect3810"
     y="7.4999981"
     x="7.5"
     ry="4.5"
     rx="4.5"
     height="49.000004"
     width="49" />
</svg>
