<?xml version="1.0" encoding="UTF-8" standalone="no"?>
<svg
   id="svg4248"
   height="64"
   width="64"
   version="1.1"
   sodipodi:docname="preferences-color.svg"
   inkscape:version="1.2.2 (b0a8486541, 2022-12-01)"
   xmlns:inkscape="http://www.inkscape.org/namespaces/inkscape"
   xmlns:sodipodi="http://sodipodi.sourceforge.net/DTD/sodipodi-0.dtd"
   xmlns:xlink="http://www.w3.org/1999/xlink"
   xmlns="http://www.w3.org/2000/svg"
   xmlns:svg="http://www.w3.org/2000/svg"
   xmlns:rdf="http://www.w3.org/1999/02/22-rdf-syntax-ns#"
   xmlns:cc="http://creativecommons.org/ns#"
   xmlns:dc="http://purl.org/dc/elements/1.1/">
  <sodipodi:namedview
     id="namedview51"
     pagecolor="#ffffff"
     bordercolor="#666666"
     borderopacity="1.0"
     inkscape:showpageshadow="2"
     inkscape:pageopacity="0.0"
     inkscape:pagecheckerboard="0"
     inkscape:deskcolor="#d1d1d1"
     showgrid="false"
     inkscape:zoom="5.2149125"
     inkscape:cx="5.4650965"
     inkscape:cy="37.392765"
     inkscape:window-width="1326"
     inkscape:window-height="606"
     inkscape:window-x="374"
     inkscape:window-y="0"
     inkscape:window-maximized="0"
     inkscape:current-layer="svg4248" />
  <defs
     id="defs4250">
    <linearGradient
       id="linearGradient4011-4">
      <stop
         id="stop4013-8"
         style="stop-color:#ffffff;stop-opacity:1"
         offset="0" />
      <stop
         id="stop4015-5"
         style="stop-color:#ffffff;stop-opacity:0.23529412"
         offset="0.507761" />
      <stop
         id="stop4017-6"
         style="stop-color:#ffffff;stop-opacity:0.15686275"
         offset="0.83456558" />
      <stop
         id="stop4019-1"
         style="stop-color:#ffffff;stop-opacity:0.39215687"
         offset="1" />
    </linearGradient>
    <linearGradient
       id="linearGradient4661">
      <stop
         id="stop4663"
         style="stop-color:#000000;stop-opacity:1"
         offset="0" />
      <stop
         id="stop4665"
         style="stop-color:#000000;stop-opacity:0"
         offset="1" />
    </linearGradient>
    <radialGradient
       xlink:href="#linearGradient4661"
       id="radialGradient3090"
       gradientUnits="userSpaceOnUse"
       gradientTransform="matrix(2.2588236,0,0,0.564705,-109.45883,54.388236)"
       cx="62.625"
       cy="4.625"
       fx="62.625"
       fy="4.625"
       r="10.625" />
    <linearGradient
       y2="44.340794"
       x2="71.204407"
       y1="6.2375584"
       x1="71.204407"
       gradientTransform="matrix(0.89189184,0,0,0.89189184,-41.978532,18.384086)"
       gradientUnits="userSpaceOnUse"
       id="linearGradient14881"
       xlink:href="#linearGradient4011-4" />
    <linearGradient
       y2="44.340794"
       x2="71.204407"
       y1="6.2375584"
       x1="71.204407"
       gradientTransform="matrix(0.89189184,0,0,0.89189184,-21.978533,18.384084)"
       gradientUnits="userSpaceOnUse"
       id="linearGradient14885"
       xlink:href="#linearGradient4011-4" />
    <linearGradient
       y2="44.340794"
       x2="71.204407"
       y1="6.2375584"
       x1="71.204407"
       gradientTransform="matrix(0.89189184,0,0,0.89189184,-31.978534,0.38408416)"
       gradientUnits="userSpaceOnUse"
       id="linearGradient14889"
       xlink:href="#linearGradient4011-4" />
    <linearGradient
       inkscape:collect="always"
       xlink:href="#linearGradient18797"
       id="linearGradient18799"
       x1="24.058325"
       y1="16.260944"
       x2="24.058325"
       y2="26.170309"
       gradientUnits="userSpaceOnUse"
       gradientTransform="matrix(1.4,0,0,1.4,-1.6,-2.2000004)" />
    <linearGradient
       inkscape:collect="always"
       id="linearGradient18797">
      <stop
         style="stop-color:#206b00;stop-opacity:1;"
         offset="0"
         id="stop18793" />
      <stop
         style="stop-color:#206b00;stop-opacity:0.5;"
         offset="1"
         id="stop18795" />
    </linearGradient>
    <linearGradient
       inkscape:collect="always"
       xlink:href="#linearGradient18781"
       id="linearGradient18783"
       x1="13.05024"
       y1="31.615053"
       x2="20.356897"
       y2="18.959551"
       gradientUnits="userSpaceOnUse"
       gradientTransform="matrix(1.3999323,0,0,1.3999323,-1.7988449,-2.3979044)" />
    <linearGradient
       inkscape:collect="always"
       id="linearGradient18781">
      <stop
         style="stop-color:#002e99;stop-opacity:1;"
         offset="0"
         id="stop18777" />
      <stop
         style="stop-color:#002e99;stop-opacity:0.5;"
         offset="1"
         id="stop18779" />
    </linearGradient>
    <linearGradient
       inkscape:collect="always"
       xlink:href="#linearGradient18789"
       id="linearGradient18791"
       x1="35.176392"
       y1="31.948603"
       x2="28.039177"
       y2="19.277662"
       gradientUnits="userSpaceOnUse"
       gradientTransform="matrix(1.4,0,0,1.4,-1.3999985,-2.4000012)" />
    <linearGradient
       inkscape:collect="always"
       id="linearGradient18789">
      <stop
         style="stop-color:#7a0000;stop-opacity:1;"
         offset="0"
         id="stop18785" />
      <stop
         style="stop-color:#7a0000;stop-opacity:0.5;"
         offset="1"
         id="stop18787" />
    </linearGradient>
    <linearGradient
       inkscape:collect="always"
       id="linearGradient13285">
      <stop
         style="stop-color:#8cd5ff;stop-opacity:1;"
         offset="0"
         id="stop13281" />
      <stop
         style="stop-color:#3689e6;stop-opacity:1;"
         offset="1"
         id="stop13283" />
    </linearGradient>
    <linearGradient
       inkscape:collect="always"
       xlink:href="#linearGradient13285"
       id="linearGradient4213"
       x1="7.9807086"
       y1="7.6207061"
       x2="7.9807086"
       y2="36.668678"
       gradientUnits="userSpaceOnUse"
       gradientTransform="matrix(2.0612248,0,0,2.0612248,-0.65338942,-0.22481035)" />
    <linearGradient
       inkscape:collect="always"
       id="linearGradient6761">
      <stop
         style="stop-color:#ff8c82;stop-opacity:1;"
         offset="0"
         id="stop6757" />
      <stop
         style="stop-color:#c6262e;stop-opacity:1;"
         offset="1"
         id="stop6759" />
    </linearGradient>
    <linearGradient
       inkscape:collect="always"
       xlink:href="#linearGradient6761"
       id="linearGradient5807"
       x1="23.420197"
       y1="6.4657583"
       x2="23.420197"
       y2="38.378098"
       gradientUnits="userSpaceOnUse"
       gradientTransform="matrix(2.0685008,0,0,2.0559812,-1.5207717,-0.17090015)" />
    <linearGradient
       inkscape:collect="always"
       id="linearGradient14808">
      <stop
         style="stop-color:#d1ff82;stop-opacity:1;"
         offset="0"
         id="stop14804" />
      <stop
         style="stop-color:#68b723;stop-opacity:1;"
         offset="1"
         id="stop14806" />
    </linearGradient>
    <linearGradient
       inkscape:collect="always"
       xlink:href="#linearGradient14808"
       id="linearGradient7305"
       x1="15.916148"
       y1="0.15015504"
       x2="15.916148"
       y2="25.156954"
       gradientUnits="userSpaceOnUse"
       gradientTransform="matrix(2.0588237,0,0,2.0588237,-0.93910949,0.35087256)" />
  </defs>
  <metadata
     id="metadata4253">
    <rdf:RDF>
      <cc:Work
         rdf:about="">
        <dc:format>image/svg+xml</dc:format>
        <dc:type
           rdf:resource="http://purl.org/dc/dcmitype/StillImage" />
      </cc:Work>
    </rdf:RDF>
  </metadata>
  <path
     d="m 56,57 c 0,3.313708 -10.745166,6 -24,6 -13.254834,0 -24,-2.686292 -24,-6 0,-3.313708 10.745166,-6 24,-6 13.254834,0 24,2.686292 24,6 z"
     id="path8836"
     style="display:inline;overflow:visible;visibility:visible;opacity:0.3;fill:url(#radialGradient3090);fill-opacity:1;fill-rule:evenodd;stroke:none;stroke-width:1;marker:none" />
  <path
     id="path14842"
     d="m 31.946929,27.500397 c -0.229422,0.0065 -0.450349,0.08802 -0.628672,0.232208 -3.201359,2.57371 -5.486622,6.227952 -6.298973,10.416792 -0.09683,0.497507 0.178728,0.992477 0.653167,1.173264 1.962834,0.747606 4.092909,1.177338 6.327548,1.177338 2.234638,0 4.364712,-0.429732 6.327549,-1.177338 0.474447,-0.180776 0.750002,-0.675757 0.653166,-1.173264 -0.365802,-1.871989 -1.028395,-3.724733 -2.041146,-5.475231 -1.146316,-1.981366 -2.642271,-3.613707 -4.310897,-4.945634 -0.193065,-0.154121 -0.434609,-0.234947 -0.681742,-0.228135 z"
     style="color:#000000;font-style:normal;font-variant:normal;font-weight:normal;font-stretch:normal;font-size:medium;line-height:normal;font-family:sans-serif;text-indent:0;text-align:start;text-decoration:none;text-decoration-line:none;text-decoration-style:solid;text-decoration-color:#000000;letter-spacing:normal;word-spacing:normal;text-transform:none;writing-mode:lr-tb;direction:ltr;baseline-shift:baseline;text-anchor:start;white-space:normal;clip-rule:nonzero;display:inline;overflow:visible;visibility:visible;opacity:1;isolation:auto;mix-blend-mode:normal;color-interpolation:sRGB;color-interpolation-filters:linearRGB;solid-color:#000000;solid-opacity:1;fill:#ffffff;fill-opacity:1;fill-rule:nonzero;stroke:none;stroke-width:1;stroke-linecap:round;stroke-linejoin:round;stroke-miterlimit:4;stroke-dasharray:none;stroke-dashoffset:0;stroke-opacity:1;marker:none;color-rendering:auto;image-rendering:auto;shape-rendering:auto;text-rendering:auto;enable-background:accumulate" />
  <path
     id="path14769"
     d="m 31.998049,5.5019529 c -9.655896,-4.1e-6 -17.500002,7.8441031 -17.500002,17.5000011 0,0.851434 0.08322,1.682024 0.201065,2.501149 2.146931,-0.941203 4.512861,-1.47174 7.004826,-1.471737 4.507775,0.458988 7.560075,1.663216 10.349849,3.1241 3.081751,-1.770653 6.18549,-3.078206 10.242401,-3.1281 2.491963,0 4.826823,0.635116 6.973755,1.576319 0,0 0.225951,-2.143216 0.228106,-2.60171 1.2e-5,-9.655898 -7.844111,-17.5000011 -17.500002,-17.5000011 z"
     style="color:#000000;clip-rule:nonzero;display:inline;overflow:visible;visibility:visible;opacity:1;isolation:auto;mix-blend-mode:normal;color-interpolation:sRGB;color-interpolation-filters:linearRGB;solid-color:#000000;solid-opacity:1;fill:url(#linearGradient7305);fill-opacity:1;fill-rule:nonzero;stroke:none;stroke-width:1;stroke-linecap:butt;stroke-linejoin:miter;stroke-miterlimit:4;stroke-dasharray:none;stroke-dashoffset:0;stroke-opacity:1;marker:none;color-rendering:auto;image-rendering:auto;shape-rendering:auto;text-rendering:auto;enable-background:accumulate"
     sodipodi:nodetypes="ssccccccss" />
  <path
     id="path14761"
     d="m 22.829275,23.519532 c 0.157003,0.0072 0.31513,0.01278 0.471022,0.02416 -0.156941,-0.01175 -0.31365,-0.01649 -0.471022,-0.02416 z m -1.715003,0.01216 c -0.248654,0.01237 -0.496156,0.01711 -0.744779,0.04026 0.245253,-0.02325 0.496636,-0.02737 0.744779,-0.04026 z m 4.448541,0.326092 c 0.03648,0.0076 0.07229,0.01628 0.108689,0.02416 -0.0364,-0.0078 -0.07225,-0.01649 -0.108689,-0.02416 z m -7.238442,0.02818 c -0.263967,0.05675 -0.522587,0.139937 -0.785036,0.209342 0.261646,-0.06981 0.518771,-0.1515 0.785036,-0.209342 z m -2.202128,0.644133 c -0.274611,0.09838 -0.545687,0.200969 -0.817245,0.314013 0.268846,-0.11211 0.541972,-0.214938 0.817245,-0.314013 z m -1.115156,0.454918 c -0.588356,0.25794 -1.177975,0.512749 -1.747209,0.841396 C 4.8878672,30.659982 2.0131532,41.387966 6.8467316,49.759969 11.680306,58.131973 22.408284,61.006694 30.780289,56.173115 31.518512,55.746901 31.630795,55.446082 32.282014,54.933866 30.391241,53.543551 29.314312,51.570342 28.06688,49.409721 26.124767,46.045883 25.405981,42.46413 25.812949,38.878256 20.113656,36.596594 15.918604,31.248214 15.007087,24.985013 Z m 15.080758,0.491151 c 0.146697,0.07672 0.290573,0.156797 0.43479,0.237523 -0.144883,-0.08039 -0.287866,-0.161352 -0.43479,-0.237523 z m 2.10551,1.288266 c 0.06874,0.04941 0.137319,0.09859 0.205319,0.148964 0.0045,-0.0035 0.0076,-0.0085 0.01216,-0.01216 -0.06936,-0.051 -0.147357,-0.08696 -0.217396,-0.136886 z"
     style="color:#000000;clip-rule:nonzero;display:inline;overflow:visible;visibility:visible;opacity:1;isolation:auto;mix-blend-mode:normal;color-interpolation:sRGB;color-interpolation-filters:linearRGB;solid-color:#000000;solid-opacity:1;fill:url(#linearGradient4213);fill-opacity:1;fill-rule:nonzero;stroke:none;stroke-width:0.999999;stroke-linecap:round;stroke-linejoin:round;stroke-miterlimit:4;stroke-dasharray:none;stroke-dashoffset:0;stroke-opacity:1;marker:none;color-rendering:auto;image-rendering:auto;shape-rendering:auto;text-rendering:auto;enable-background:accumulate"
     sodipodi:nodetypes="cccccccccccccccsssscscsscccccccc" />
  <path
     id="path14771"
     d="m 22.200526,24.003905 c -2.493492,-2e-6 -4.860873,0.530859 -7.00912,1.47264 0.87415,6.076102 4.5191,10.478461 9.953659,13.127532 0.687082,-4.768087 3.207651,-8.600678 6.930434,-11.319074 -2.890144,-2.118432 -6.018628,-3.281098 -9.874973,-3.281098 z"
     style="color:#000000;display:inline;overflow:visible;visibility:visible;opacity:1;fill:#89ffdd;fill-opacity:1;fill-rule:nonzero;stroke:none;stroke-width:1;marker:none;enable-background:accumulate"
     sodipodi:nodetypes="scccs" />
  <path
     id="path14763"
     d="M 38.907917,38.57079 C 36.788048,39.502531 34.461761,40.027771 32,40.027771 c -2.255579,0 -4.833402,-0.560094 -6.809194,-1.349533 C 24.349955,44.547861 26.896296,51.229362 32,54.74763 37.639243,50.704681 39.680578,43.850096 38.907917,38.57079 Z"
     style="color:#000000;display:inline;overflow:visible;visibility:visible;opacity:1;fill:#f76eda;fill-opacity:1;fill-rule:nonzero;stroke:none;stroke-width:1;marker:none;enable-background:accumulate"
     sodipodi:nodetypes="csccc" />
  <path
     id="path14744"
     d="m 41.831284,24.000077 c -5.490544,-0.113118 -9.708783,3.270398 -9.708783,3.270398 0,0 3.147587,2.508564 4.741289,5.488114 1.081103,2.021206 1.752537,3.943715 2.059528,6.082123 5.429381,-2.391331 9.453191,-7.154438 10.326903,-13.227515 -2.149019,-0.94212 -4.92455,-1.61312 -7.418937,-1.61312 z"
     style="color:#000000;display:inline;overflow:visible;visibility:visible;opacity:1;fill:#ffe16b;fill-opacity:1;fill-rule:nonzero;stroke:none;stroke-width:0.999999;marker:none;enable-background:accumulate"
     sodipodi:nodetypes="ccsccc" />
  <path
     style="color:#000000;clip-rule:nonzero;display:inline;overflow:visible;visibility:visible;opacity:1;isolation:auto;mix-blend-mode:normal;color-interpolation:sRGB;color-interpolation-filters:linearRGB;solid-color:#000000;solid-opacity:1;fill:url(#linearGradient5807);fill-opacity:1;fill-rule:nonzero;stroke:none;stroke-width:1;stroke-linecap:butt;stroke-linejoin:miter;stroke-miterlimit:4;stroke-dasharray:none;stroke-dashoffset:0;stroke-opacity:1;marker:none;color-rendering:auto;image-rendering:auto;shape-rendering:auto;text-rendering:auto;enable-background:accumulate"
     d="m 49.015444,24.938231 c -0.627311,6.160091 -5.522371,11.767151 -10.088139,13.652107 0.410334,3.579149 -0.292827,7.614564 -2.243227,10.97231 -1.251836,2.155125 -3.147962,4.038413 -5.04541,5.425191 2.993876,2.348333 6.174399,3.436724 10.279075,3.436722 9.70128,0 17.582267,-7.833273 17.582257,-17.475839 0,-7.154043 -4.283519,-13.30844 -10.484556,-16.010491 z"
     id="path14717"
     sodipodi:nodetypes="ccscssc" />
  <path
     d="M 38.500002,40.999417 C 38.500002,50.112409 31.112156,57.5 22.000211,57.5 12.88743,57.5 5.5000023,50.112325 5.5000023,40.999417 c 0,-9.112572 7.3874277,-16.499415 16.5002087,-16.499415 9.111945,0 16.499791,7.386843 16.499791,16.499415 z"
     id="path14879"
     style="color:#000000;display:inline;overflow:visible;visibility:visible;opacity:0.7;fill:none;stroke:url(#linearGradient14881);stroke-width:0.999999;stroke-linecap:round;stroke-linejoin:round;stroke-miterlimit:4;stroke-dasharray:none;stroke-dashoffset:0;stroke-opacity:1;marker:none;enable-background:accumulate" />
  <path
     style="color:#000000;display:inline;overflow:visible;visibility:visible;fill:none;fill-opacity:0;fill-rule:nonzero;stroke:url(#linearGradient18783);stroke-width:0.999999;stroke-linecap:round;stroke-linejoin:round;stroke-miterlimit:4;stroke-dasharray:none;stroke-dashoffset:0;stroke-opacity:0.5;marker:none;enable-background:accumulate"
     id="path14759-6"
     d="m 37.157983,32.248532 c 4.828761,8.363652 1.957139,19.080694 -6.406517,23.909453 C 22.387815,60.986742 11.670773,58.115119 6.8420184,49.751465 2.0132636,41.387816 4.88488,30.670768 13.248535,25.842017 c 8.363654,-4.828756 19.080696,-1.957134 23.909448,6.406515 z" />
  <path
     style="color:#000000;display:inline;overflow:visible;visibility:visible;opacity:0.7;fill:none;stroke:url(#linearGradient14885);stroke-width:0.999999;stroke-linecap:round;stroke-linejoin:round;stroke-miterlimit:4;stroke-dasharray:none;stroke-dashoffset:0;stroke-opacity:1;marker:none;enable-background:accumulate"
     id="path14883"
     d="m 58.500001,40.999416 c 0,9.112992 -7.387846,16.500583 -16.499791,16.500583 -9.112781,0 -16.500209,-7.387675 -16.500209,-16.500583 0,-9.112572 7.387428,-16.499415 16.500209,-16.499415 9.111945,0 16.499791,7.386843 16.499791,16.499415 z" />
  <path
     d="m 48.5,22.999415 c 0,9.112992 -7.387846,16.500583 -16.499791,16.500583 C 22.887428,39.499998 15.5,32.112323 15.5,22.999415 15.5,13.886843 22.887428,6.5000007 32.000209,6.5000007 41.112154,6.5000007 48.5,13.886843 48.5,22.999415 Z"
     id="path14887"
     style="color:#000000;display:inline;overflow:visible;visibility:visible;opacity:0.7;fill:none;stroke:url(#linearGradient14889);stroke-width:0.999999;stroke-linecap:round;stroke-linejoin:round;stroke-miterlimit:4;stroke-dasharray:none;stroke-dashoffset:0;stroke-opacity:1;marker:none;enable-background:accumulate" />
  <path
     d="M 32.000002,40.500003 C 22.344107,40.500003 14.5,32.655899 14.5,22.999999 c 0,-9.655897 7.844107,-17.5000035 17.500002,-17.4999994 9.65589,0 17.500003,7.8441024 17.499997,17.4999994 0,9.6559 -7.844105,17.500004 -17.499997,17.500004 z"
     id="path14767-3"
     style="color:#000000;display:inline;overflow:visible;visibility:visible;fill:none;fill-opacity:0;fill-rule:nonzero;stroke:url(#linearGradient18799);stroke-width:0.999999;stroke-linecap:round;stroke-linejoin:round;stroke-miterlimit:4;stroke-dasharray:none;stroke-dashoffset:0;stroke-opacity:0.5;marker:none;enable-background:accumulate" />
  <path
     d="m 42.000001,23.5 c -9.655896,0 -17.5,7.844103 -17.5,17.500001 0,9.655896 7.844104,17.500005 17.5,17.499999 9.655892,0 17.500006,-7.844103 17.499997,-17.499999 C 59.499998,31.344103 51.655893,23.5 42.000001,23.5 Z"
     id="path14719-7"
     style="color:#000000;display:inline;overflow:visible;visibility:visible;fill:none;fill-opacity:0;fill-rule:nonzero;stroke:url(#linearGradient18791);stroke-width:0.999999;stroke-linecap:round;stroke-linejoin:round;stroke-miterlimit:4;stroke-dasharray:none;stroke-dashoffset:0;stroke-opacity:0.5;marker:none;enable-background:accumulate" />
</svg>
