<?xml version="1.0" encoding="UTF-8" standalone="no"?>
<svg
   xmlns:dc="http://purl.org/dc/elements/1.1/"
   xmlns:cc="http://creativecommons.org/ns#"
   xmlns:rdf="http://www.w3.org/1999/02/22-rdf-syntax-ns#"
   xmlns:svg="http://www.w3.org/2000/svg"
   xmlns="http://www.w3.org/2000/svg"
   xmlns:xlink="http://www.w3.org/1999/xlink"
   version="1.1"
   id="svg4211"
   height="64"
   width="64">
  <defs
     id="defs4213">
    <linearGradient
       id="linearGradient3191">
      <stop
         style="stop-color:#b0a647;stop-opacity:1;"
         offset="0"
         id="stop3193" />
      <stop
         style="stop-color:#a29836;stop-opacity:1;"
         offset="1"
         id="stop3195" />
    </linearGradient>
    <linearGradient
       y2="41.391716"
       x2="9.5220556"
       y1="37.371799"
       x1="5.5178981"
       gradientTransform="matrix(0.8962025,0,0,0.895097,6.3838665,7.2725018)"
       gradientUnits="userSpaceOnUse"
       id="linearGradient4209"
       xlink:href="#linearGradient3191" />
    <linearGradient
       id="linearGradient3290">
      <stop
         style="stop-color:#e4db7b;stop-opacity:1;"
         offset="0"
         id="stop3292" />
      <stop
         style="stop-color:#f4f0c8;stop-opacity:1;"
         offset="1"
         id="stop3294" />
    </linearGradient>
    <linearGradient
       y2="26.02973"
       x2="9"
       y1="29.056757"
       x1="9"
       gradientTransform="matrix(1.0666251,-1.0714202,1.3182293,1.3110804,-31.053059,14.688284)"
       gradientUnits="userSpaceOnUse"
       id="linearGradient4207"
       xlink:href="#linearGradient3290" />
    <linearGradient
       y2="30.000141"
       x2="30.037716"
       y1="24.989594"
       x1="30.037716"
       gradientTransform="matrix(1.0666251,-1.07142,1.3182293,1.3110802,-28.825289,12.450501)"
       gradientUnits="userSpaceOnUse"
       id="linearGradient4205"
       xlink:href="#linearGradient3223" />
    <linearGradient
       y2="30.000141"
       x2="30.037716"
       y1="24.989594"
       x1="30.037716"
       gradientTransform="matrix(1.0666251,-1.07142,1.3182293,1.3110802,-28.519821,12.143661)"
       gradientUnits="userSpaceOnUse"
       id="linearGradient4203"
       xlink:href="#linearGradient3240" />
    <linearGradient
       y2="30.000141"
       x2="30.037716"
       y1="24.989594"
       x1="30.037716"
       gradientTransform="matrix(1.0666251,-1.07142,1.3182293,1.3110802,-29.891913,13.521921)"
       gradientUnits="userSpaceOnUse"
       id="linearGradient4201"
       xlink:href="#linearGradient3223" />
    <linearGradient
       y2="30.000141"
       x2="30.037716"
       y1="24.989594"
       x1="30.037716"
       gradientTransform="matrix(1.0666251,-1.07142,1.3182293,1.3110802,-29.586446,13.215081)"
       gradientUnits="userSpaceOnUse"
       id="linearGradient4199"
       xlink:href="#linearGradient3240" />
    <linearGradient
       id="linearGradient3223">
      <stop
         style="stop-color:#999999;stop-opacity:1;"
         offset="0"
         id="stop3225" />
      <stop
         id="stop3231"
         offset="0.5"
         style="stop-color:#ffffff;stop-opacity:1;" />
      <stop
         style="stop-color:#777777;stop-opacity:1;"
         offset="1"
         id="stop3227" />
    </linearGradient>
    <linearGradient
       y2="30.000141"
       x2="30.037716"
       y1="24.989594"
       x1="30.037716"
       gradientTransform="matrix(1.0666251,-1.07142,1.3182293,1.3110802,-30.953407,14.588189)"
       gradientUnits="userSpaceOnUse"
       id="linearGradient4197"
       xlink:href="#linearGradient3223" />
    <linearGradient
       id="linearGradient3240">
      <stop
         id="stop3242"
         offset="0"
         style="stop-color:#3e3e3e;stop-opacity:1;" />
      <stop
         style="stop-color:#828282;stop-opacity:1;"
         offset="0.5"
         id="stop3244" />
      <stop
         id="stop3246"
         offset="1"
         style="stop-color:#3c3c3c;stop-opacity:1;" />
    </linearGradient>
    <linearGradient
       y2="30.000141"
       x2="30.037716"
       y1="24.989594"
       x1="30.037716"
       gradientTransform="matrix(1.0666251,-1.07142,1.3182293,1.3110802,-30.64794,14.281347)"
       gradientUnits="userSpaceOnUse"
       id="linearGradient4195"
       xlink:href="#linearGradient3240" />
    <linearGradient
       id="linearGradient3155">
      <stop
         style="stop-color:#000000;stop-opacity:1;"
         offset="0"
         id="stop3157" />
      <stop
         id="stop3171"
         offset="0.13482948"
         style="stop-color:#c3c3c3;stop-opacity:1;" />
      <stop
         style="stop-color:#8c8c8c;stop-opacity:1;"
         offset="0.20224422"
         id="stop3173" />
      <stop
         id="stop3163"
         offset="0.26965895"
         style="stop-color:#ffffff;stop-opacity:1;" />
      <stop
         style="stop-color:#757575;stop-opacity:1;"
         offset="0.44650277"
         id="stop3165" />
      <stop
         id="stop3167"
         offset="0.57114136"
         style="stop-color:#7d7d7d;stop-opacity:1;" />
      <stop
         style="stop-color:#b6b6b6;stop-opacity:1;"
         offset="0.72038066"
         id="stop3169" />
      <stop
         style="stop-color:#000000;stop-opacity:1;"
         offset="1"
         id="stop3159" />
    </linearGradient>
    <linearGradient
       y2="31.210939"
       x2="23.575972"
       y1="25.356892"
       x1="23.575972"
       spreadMethod="pad"
       gradientTransform="matrix(1.0976542,-1.1025887,1.1263856,1.1202772,-27.026185,19.524468)"
       gradientUnits="userSpaceOnUse"
       id="linearGradient4193"
       xlink:href="#linearGradient3155" />
  </defs>
  <metadata
     id="metadata4216">
    <rdf:RDF>
      <cc:Work
         rdf:about="">
        <dc:format>image/svg+xml</dc:format>
        <dc:type
           rdf:resource="http://purl.org/dc/dcmitype/StillImage" />
        <dc:title />
      </cc:Work>
    </rdf:RDF>
  </metadata>
  <g
     transform="translate(0,16)"
     id="layer1">
    <g
       transform="matrix(1.3375796,0,0,1.3375796,64.484076,-15.7798)"
       id="g4127">
      <path
         style="fill:#ff0000;fill-opacity:0.70196078;fill-rule:nonzero;stroke:none;stroke-width:1;marker:none;visibility:visible;display:inline;overflow:visible;enable-background:accumulate"
         id="path2964"
         d="m -2.0000002,34 c 0,2.051343 -1.6629424,3.714286 -3.7142857,3.714286 -2.0513433,0 -3.7142856,-1.662943 -3.7142856,-3.714286 0,-2.051343 1.6629423,-3.714286 3.7142856,-3.714286 2.0513433,0 3.7142857,1.662943 3.7142857,3.714286 z"
         transform="matrix(1.0384615,0,0,1.0384615,0.2197802,-1.3076923)" />
      <path
         style="fill:#cc0099;fill-opacity:0.70196078;fill-rule:nonzero;stroke:none;stroke-width:1;marker:none;visibility:visible;display:inline;overflow:visible;enable-background:accumulate"
         id="path4113"
         d="m -2.0000002,34 c 0,2.051343 -1.6629424,3.714286 -3.7142857,3.714286 -2.0513433,0 -3.7142856,-1.662943 -3.7142856,-3.714286 0,-2.051343 1.6629423,-3.714286 3.7142856,-3.714286 2.0513433,0 3.7142857,1.662943 3.7142857,3.714286 z"
         transform="matrix(1.0384615,0,0,1.0384615,0.2197802,-11.307692)" />
      <path
         style="fill:#924ab4;fill-opacity:1;fill-rule:nonzero;stroke:none;stroke-width:1;marker:none;visibility:visible;display:inline;overflow:visible;enable-background:accumulate"
         id="path4115"
         d="m -2.0000002,34 c 0,2.051343 -1.6629424,3.714286 -3.7142857,3.714286 -2.0513433,0 -3.7142856,-1.662943 -3.7142856,-3.714286 0,-2.051343 1.6629423,-3.714286 3.7142856,-3.714286 2.0513433,0 3.7142857,1.662943 3.7142857,3.714286 z"
         transform="matrix(1.0384615,0,0,1.0384615,-4.78022,-20.021977)" />
      <path
         style="fill:#6c48b3;fill-opacity:1;fill-rule:nonzero;stroke:none;stroke-width:1;marker:none;visibility:visible;display:inline;overflow:visible;enable-background:accumulate"
         id="path4117"
         d="m -2.0000002,34 c 0,2.051343 -1.6629424,3.714286 -3.7142857,3.714286 -2.0513433,0 -3.7142856,-1.662943 -3.7142856,-3.714286 0,-2.051343 1.6629423,-3.714286 3.7142856,-3.714286 2.0513433,0 3.7142857,1.662943 3.7142857,3.714286 z"
         transform="matrix(1.0384615,0,0,1.0384615,-13.208791,-25.021976)" />
      <path
         style="fill:#476bd7;fill-opacity:1;fill-rule:nonzero;stroke:none;stroke-width:1;marker:none;visibility:visible;display:inline;overflow:visible;enable-background:accumulate"
         id="path4119"
         d="m -2.0000002,34 c 0,2.051343 -1.6629424,3.714286 -3.7142857,3.714286 -2.0513433,0 -3.7142856,-1.662943 -3.7142856,-3.714286 0,-2.051343 1.6629423,-3.714286 3.7142856,-3.714286 2.0513433,0 3.7142857,1.662943 3.7142857,3.714286 z"
         transform="matrix(1.0384615,0,0,1.0384615,-23.208791,-25.021976)" />
      <path
         style="fill:#47b1b1;fill-opacity:1;fill-rule:nonzero;stroke:none;stroke-width:1;marker:none;visibility:visible;display:inline;overflow:visible;enable-background:accumulate"
         id="path4121"
         d="m -2.0000002,34 c 0,2.051343 -1.6629424,3.714286 -3.7142857,3.714286 -2.0513433,0 -3.7142856,-1.662943 -3.7142856,-3.714286 0,-2.051343 1.6629423,-3.714286 3.7142856,-3.714286 2.0513433,0 3.7142857,1.662943 3.7142857,3.714286 z"
         transform="matrix(1.0384615,0,0,1.0384615,-31.637363,-20.164834)" />
      <path
         style="fill:#00cc00;fill-opacity:0.70196078;fill-rule:nonzero;stroke:none;stroke-width:1;marker:none;visibility:visible;display:inline;overflow:visible;enable-background:accumulate"
         id="path4123"
         d="m -2.0000002,34 c 0,2.051343 -1.6629424,3.714286 -3.7142857,3.714286 -2.0513433,0 -3.7142856,-1.662943 -3.7142856,-3.714286 0,-2.051343 1.6629423,-3.714286 3.7142856,-3.714286 2.0513433,0 3.7142857,1.662943 3.7142857,3.714286 z"
         transform="matrix(1.0384615,0,0,1.0384615,-36.637363,-11.593405)" />
      <path
         style="fill:#99ff00;fill-opacity:0.70196078;fill-rule:nonzero;stroke:none;stroke-width:1;marker:none;visibility:visible;display:inline;overflow:visible;enable-background:accumulate"
         id="path4125"
         d="m -2.0000002,34 c 0,2.051343 -1.6629424,3.714286 -3.7142857,3.714286 -2.0513433,0 -3.7142856,-1.662943 -3.7142856,-3.714286 0,-2.051343 1.6629423,-3.714286 3.7142856,-3.714286 2.0513433,0 3.7142857,1.662943 3.7142857,3.714286 z"
         transform="matrix(1.0384615,0,0,1.0384615,-36.923077,-1.7362627)" />
    </g>
    <g
       transform="matrix(1.25,0,0,1.25,-2.8211616,-17.893886)"
       id="g4137">
      <path
         style="opacity:0.15;fill:#000000;fill-opacity:1;fill-rule:evenodd;stroke:none"
         d="m 41.578,39.617594 c -0.321034,-0.0038 -0.578549,0.03029 -0.752072,0.06656 l -23.106772,4.81433 -4.253098,0.887434 -0.129667,0.02219 -5.3941742,2.507001 12.1109552,-1.109293 0.103736,-0.02219 4.279033,-0.887435 23.106772,-4.836516 C 48.236802,40.914592 47.300151,40.490232 45.442096,40.105683 44.048557,39.817271 42.541103,39.628941 41.578,39.617594 z"
         id="path2422" />
      <path
         id="rect2383"
         d="m 13.776743,35.620198 c 0.737644,-0.566997 2.699013,0.352215 4.462195,2.105835 1.758966,1.749425 2.642917,3.664484 2.087757,4.408597 -0.0021,0.0028 0.04335,0.03817 0.0412,0.04097 L 47.133514,15.28965 C 47.813072,14.607038 46.890382,12.582409 45.071226,10.773119 43.252069,8.9638283 41.221927,8.0516318 40.542366,8.7342481 L 13.776743,35.620198 z"
         style="fill:url(#linearGradient4193);fill-opacity:1;stroke:#000000;stroke-width:0.80000019;stroke-linecap:butt;stroke-linejoin:round;stroke-miterlimit:4;stroke-opacity:1;stroke-dasharray:none;stroke-dashoffset:0" />
      <path
         id="rect3175"
         d="m 37.275829,12.015473 c 0.737642,-0.566998 2.699013,0.352214 4.462194,2.105834 1.758964,1.749425 2.642918,3.664483 2.087756,4.408595 -0.0021,0.0028 0.04335,0.03818 0.0412,0.04097 l 3.26654,-3.281225 0.06667,-0.06696 c 0.0022,-0.0028 -0.04331,-0.03814 -0.0412,-0.04097 0.555162,-0.744111 -0.328791,-2.65917 -2.087756,-4.408595 C 43.308044,9.0194996 41.346675,8.1002867 40.609032,8.6672839 l -0.06667,0.066964 -3.266537,3.2812251 z"
         style="opacity:0.8;fill:#ff9de8;fill-opacity:1;stroke:#dd78c5;stroke-width:0.80000019;stroke-linecap:butt;stroke-linejoin:round;stroke-miterlimit:4;stroke-opacity:1;stroke-dasharray:none;stroke-dashoffset:0" />
      <path
         id="path3208"
         d="m 13.776743,35.620195 c 0.737644,-0.566997 2.699012,0.352215 4.462194,2.105836 1.758966,1.749425 2.642917,3.664484 2.087757,4.408596 -0.0021,0.0028 0.04335,0.03818 0.0412,0.04097 l 18.432613,-18.515477 0.06666,-0.06696 c 0.0022,-0.0028 -0.04331,-0.03814 -0.04119,-0.04097 0.555159,-0.744114 -0.328792,-2.659172 -2.087759,-4.408597 -1.763181,-1.753619 -3.72455,-2.672832 -4.462194,-2.105834 l -0.06666,0.06696 -18.432613,18.515478 z"
         style="opacity:0.6;fill:#000000;fill-opacity:1;stroke:none" />
      <path
         id="path3233"
         d="m 33.614432,15.693326 c 0.737644,-0.566998 2.699014,0.352213 4.462195,2.105834 1.758965,1.749424 2.642918,3.664484 2.087756,4.408596 -0.0021,0.0028 0.04335,0.03817 0.0412,0.04097 l 0.33332,-0.33482 c 0.0022,-0.0028 -0.04331,-0.03814 -0.04119,-0.04097 0.55516,-0.744113 -0.328791,-2.659173 -2.087758,-4.408595 -1.763182,-1.753621 -3.72455,-2.672834 -4.462195,-2.105836 l -0.33332,0.33482 z"
         style="fill:url(#linearGradient4195);fill-opacity:1;stroke:none" />
      <path
         id="path3216"
         d="m 33.308966,16.000165 c 0.737643,-0.566998 2.699013,0.352214 4.462194,2.105835 1.758967,1.749424 2.642919,3.664482 2.087757,4.408593 -0.0021,0.0028 0.04335,0.03818 0.0412,0.04097 l 0.33332,-0.334819 c 0.0022,-0.0028 -0.0433,-0.03814 -0.04119,-0.04097 0.555158,-0.744112 -0.328792,-2.659171 -2.08776,-4.408594 -1.76318,-1.753621 -3.724549,-2.672834 -4.462195,-2.105836 l -0.333319,0.33482 z"
         style="fill:url(#linearGradient4197);fill-opacity:1;stroke:none" />
      <path
         id="path3248"
         d="m 34.675928,14.627058 c 0.737642,-0.566998 2.699013,0.352214 4.462194,2.105835 1.758963,1.749424 2.642917,3.664482 2.087757,4.408596 -0.0021,0.0028 0.04335,0.03818 0.0412,0.04097 l 0.33332,-0.334819 c 0.0022,-0.0028 -0.0433,-0.03814 -0.0412,-0.04097 0.555161,-0.744112 -0.32879,-2.659171 -2.087759,-4.408594 -1.763179,-1.753621 -3.724547,-2.672834 -4.462194,-2.105836 l -0.333318,0.334819 z"
         style="fill:url(#linearGradient4199);fill-opacity:1;stroke:none" />
      <path
         id="path3250"
         d="m 34.37046,14.933899 c 0.737644,-0.566999 2.699014,0.352214 4.462195,2.105833 1.758966,1.749426 2.642918,3.664483 2.087758,4.408596 -0.0021,0.0028 0.04335,0.03818 0.04119,0.04097 l 0.33332,-0.334822 c 0.0022,-0.0028 -0.0433,-0.03814 -0.0412,-0.04097 0.555162,-0.744112 -0.32879,-2.659172 -2.087756,-4.408595 -1.763181,-1.75362 -3.724551,-2.672833 -4.462195,-2.105834 l -0.333321,0.334819 z"
         style="fill:url(#linearGradient4201);fill-opacity:1;stroke:none" />
      <path
         id="path3256"
         d="m 35.742553,13.555638 c 0.737642,-0.566998 2.699012,0.352214 4.462192,2.105835 1.758967,1.749424 2.64292,3.664483 2.087758,4.408594 -0.0021,0.0028 0.04335,0.03818 0.04119,0.04097 l 0.333321,-0.334818 c 0.0022,-0.0028 -0.0433,-0.03814 -0.04119,-0.04097 0.55516,-0.744113 -0.328791,-2.659172 -2.087757,-4.408595 -1.76318,-1.753621 -3.72455,-2.672833 -4.462195,-2.105836 l -0.333319,0.334819 z"
         style="fill:url(#linearGradient4203);fill-opacity:1;stroke:none" />
      <path
         id="path3258"
         d="m 35.437085,13.862478 c 0.737643,-0.566998 2.699013,0.352214 4.462194,2.105835 1.758966,1.749424 2.642919,3.664483 2.087757,4.408594 -0.0021,0.0028 0.04335,0.03818 0.0412,0.04097 l 0.333319,-0.33482 c 0.0022,-0.0028 -0.04331,-0.03814 -0.04119,-0.04097 0.55516,-0.744113 -0.328792,-2.659173 -2.087758,-4.408596 -1.76318,-1.753621 -3.724549,-2.672833 -4.462193,-2.105834 l -0.333322,0.334818 z"
         style="fill:url(#linearGradient4205);fill-opacity:1;stroke:none" />
      <path
         style="fill:url(#linearGradient4207);fill-opacity:1;fill-rule:evenodd;stroke:url(#linearGradient4209);stroke-width:0.80000019;stroke-linecap:butt;stroke-linejoin:miter;stroke-miterlimit:4;stroke-opacity:1;stroke-dasharray:none"
         d="M 8.3571068,47.500216 20.233329,42.2363 20.337052,42.132578 c 0.55516,-0.744112 -0.341415,-2.658779 -2.10038,-4.408205 -1.763183,-1.75362 -3.722423,-2.667376 -4.460066,-2.100379 L 8.3571068,47.500216 z"
         id="path3270" />
      <path
         id="path3281"
         d="M 9.8250848,44.283636 8.3569302,47.487764 11.596455,46.045399 C 11.354518,45.750814 11.132387,45.450582 10.839227,45.159011 10.50172,44.823334 10.167142,44.553591 9.8250848,44.283636 z"
         style="fill:#000000;fill-opacity:1;fill-rule:evenodd;stroke:#000000;stroke-width:0.80000019;stroke-linecap:butt;stroke-linejoin:miter;stroke-miterlimit:4;stroke-opacity:1;stroke-dasharray:none" />
    </g>
  </g>
</svg>
