<?xml version="1.0" encoding="UTF-8" standalone="no"?>
<!-- Created with Inkscape (http://www.inkscape.org/) -->

<svg
   xmlns:dc="http://purl.org/dc/elements/1.1/"
   xmlns:cc="http://creativecommons.org/ns#"
   xmlns:rdf="http://www.w3.org/1999/02/22-rdf-syntax-ns#"
   xmlns:svg="http://www.w3.org/2000/svg"
   xmlns="http://www.w3.org/2000/svg"
   xmlns:xlink="http://www.w3.org/1999/xlink"
   xmlns:sodipodi="http://sodipodi.sourceforge.net/DTD/sodipodi-0.dtd"
   xmlns:inkscape="http://www.inkscape.org/namespaces/inkscape"
   width="64"
   height="64"
   id="svg3903"
   version="1.1"
   inkscape:version="0.48.1 r9760"
   sodipodi:docname="skype.svg">
  <defs
     id="defs3905">
    <linearGradient
       inkscape:collect="always"
       xlink:href="#linearGradient4873"
       id="linearGradient3852"
       gradientUnits="userSpaceOnUse"
       gradientTransform="matrix(0.26057125,0,0,0.26070243,20.616637,991.02277)"
       x1="36.514965"
       y1="62.84341"
       x2="36.514965"
       y2="224.55743" />
    <linearGradient
       id="linearGradient4873">
      <stop
         offset="0"
         style="stop-color:#ffffff;stop-opacity:1"
         id="stop4875" />
      <stop
         offset="1"
         style="stop-color:#ffffff;stop-opacity:0"
         id="stop4877" />
    </linearGradient>
    <linearGradient
       gradientTransform="matrix(1.3115355,0,0,1.3115355,0.52315397,-1332.2105)"
       inkscape:collect="always"
       xlink:href="#linearGradient3707-319-631-407-324"
       id="linearGradient3788"
       x1="25"
       y1="1048.7344"
       x2="25"
       y2="1005.9898"
       gradientUnits="userSpaceOnUse" />
    <linearGradient
       id="linearGradient2490-9-1">
      <stop
         offset="0"
         style="stop-color:#365f0e;stop-opacity:1"
         id="stop2492-8-6" />
      <stop
         offset="1"
         style="stop-color:#84a718;stop-opacity:1"
         id="stop2494-1-3" />
    </linearGradient>
    <linearGradient
       id="linearGradient3242-6-4">
      <stop
         offset="0"
         style="stop-color:#eef87e;stop-opacity:1"
         id="stop3244-3-7" />
      <stop
         offset="0.26238"
         style="stop-color:#cde34f;stop-opacity:1"
         id="stop3246-9-9" />
      <stop
         offset="0.66093999"
         style="stop-color:#93b723;stop-opacity:1"
         id="stop3248-3-7" />
      <stop
         offset="1"
         style="stop-color:#5a7e0d;stop-opacity:1"
         id="stop3250-3-2" />
    </linearGradient>
    <radialGradient
       r="20.397499"
       fy="7.3722291"
       fx="50.150719"
       cy="7.4866333"
       cx="50.301655"
       gradientTransform="matrix(5.7009961e-8,2.6433013,-3.4873549,7.5214264e-8,58.108553,-137.25152)"
       gradientUnits="userSpaceOnUse"
       id="radialGradient3899"
       xlink:href="#linearGradient2867-449-88-871-390-598-476-591-434-148-57-177"
       inkscape:collect="always" />
    <linearGradient
       y2="58.838844"
       x2="12.984406"
       y1="227.61346"
       x1="12.984406"
       gradientTransform="matrix(0.34174843,0,0,0.3419205,27.562606,-32.448847)"
       gradientUnits="userSpaceOnUse"
       id="linearGradient3901"
       xlink:href="#linearGradient3707-319-631-407-1-846-4-8-4-9"
       inkscape:collect="always" />
    <linearGradient
       id="linearGradient3702-501-757">
      <stop
         offset="0"
         style="stop-color:#181818;stop-opacity:0"
         id="stop2895" />
      <stop
         offset="0.5"
         style="stop-color:#181818;stop-opacity:1"
         id="stop2897" />
      <stop
         offset="1"
         style="stop-color:#181818;stop-opacity:0"
         id="stop2899" />
    </linearGradient>
    <linearGradient
       id="linearGradient3688-464-309">
      <stop
         offset="0"
         style="stop-color:#181818;stop-opacity:1"
         id="stop2889" />
      <stop
         offset="1"
         style="stop-color:#181818;stop-opacity:0"
         id="stop2891" />
    </linearGradient>
    <linearGradient
       id="linearGradient3688-166-749">
      <stop
         offset="0"
         style="stop-color:#181818;stop-opacity:1"
         id="stop2883" />
      <stop
         offset="1"
         style="stop-color:#181818;stop-opacity:0"
         id="stop2885" />
    </linearGradient>
    <linearGradient
       id="linearGradient3707-319-631-407-324">
      <stop
         offset="0"
         style="stop-color:#185f9a;stop-opacity:1;"
         id="stop3760" />
      <stop
         offset="1"
         style="stop-color:#599ec9;stop-opacity:1;"
         id="stop3762" />
    </linearGradient>
    <linearGradient
       id="linearGradient2867-449-88-871-390-598-476-591-434-148-57-177">
      <stop
         offset="0"
         style="stop-color:#90dbec;stop-opacity:1;"
         id="stop3750" />
      <stop
         offset="0.26238"
         style="stop-color:#55c1ec;stop-opacity:1;"
         id="stop3752" />
      <stop
         offset="0.704952"
         style="stop-color:#3689e6;stop-opacity:1;"
         id="stop3754" />
      <stop
         offset="1"
         style="stop-color:#2b63a0;stop-opacity:1;"
         id="stop3756" />
    </linearGradient>
    <linearGradient
       id="linearGradient3707-319-631-407-1-846-4-8-4-9">
      <stop
         id="stop3788-5-5-3-5"
         style="stop-color:#365a7c;stop-opacity:1"
         offset="0" />
      <stop
         id="stop3790-9-0-0-0"
         style="stop-color:#5ea1ca;stop-opacity:1;"
         offset="1" />
    </linearGradient>
    <linearGradient
       id="linearGradient3924">
      <stop
         offset="0"
         style="stop-color:#ffffff;stop-opacity:1;"
         id="stop3926" />
      <stop
         id="stop3928"
         style="stop-color:#ffffff;stop-opacity:0.23529412;"
         offset="0.06316455" />
      <stop
         offset="0.95056331"
         style="stop-color:#ffffff;stop-opacity:0.15686275;"
         id="stop3930" />
      <stop
         offset="1"
         style="stop-color:#ffffff;stop-opacity:0.39215687;"
         id="stop3932" />
    </linearGradient>
    <linearGradient
       id="linearGradient8265-821-176-38-919-66-249-7-7">
      <stop
         id="stop2687-1-9"
         style="stop-color:#ffffff;stop-opacity:1"
         offset="0" />
      <stop
         id="stop2689-5-4"
         style="stop-color:#ffffff;stop-opacity:0"
         offset="1" />
    </linearGradient>
    <linearGradient
       id="linearGradient3707-319-631-407-1-846-4-8-4">
      <stop
         id="stop3788-5-5-3"
         style="stop-color:#365a7c;stop-opacity:1"
         offset="0" />
      <stop
         id="stop3790-9-0-0"
         style="stop-color:#5ea1ca;stop-opacity:1;"
         offset="1" />
    </linearGradient>
    <linearGradient
       id="linearGradient3707-319-631-407-1-846-4-2">
      <stop
         id="stop3788-5-54"
         style="stop-color:#365a7c;stop-opacity:1"
         offset="0" />
      <stop
         id="stop3790-9-7"
         style="stop-color:#5ea1ca;stop-opacity:1;"
         offset="1" />
    </linearGradient>
    <linearGradient
       gradientTransform="matrix(2.1153735,0,0,2.1153253,-107.57709,32.426559)"
       gradientUnits="userSpaceOnUse"
       xlink:href="#linearGradient4873-4"
       id="linearGradient2407"
       y2="5.4675598"
       x2="63.397362"
       y1="-12.489107"
       x1="63.397362" />
    <linearGradient
       id="linearGradient4873-4">
      <stop
         offset="0"
         style="stop-color:#ffffff;stop-opacity:1"
         id="stop4875-4" />
      <stop
         offset="1"
         style="stop-color:#ffffff;stop-opacity:0"
         id="stop4877-9" />
    </linearGradient>
    <radialGradient
       gradientTransform="matrix(0,2.2874593,-3.0194057,0,36.047437,-50.630156)"
       gradientUnits="userSpaceOnUse"
       xlink:href="#linearGradient3242-187-536"
       id="radialGradient2410"
       fy="3.9900031"
       fx="23.895569"
       r="20.397499"
       cy="3.9900031"
       cx="23.895569" />
    <linearGradient
       id="linearGradient3242-187-536">
      <stop
         offset="0"
         style="stop-color:#8badea;stop-opacity:1"
         id="stop2778" />
      <stop
         offset="0.26238"
         style="stop-color:#6396cd;stop-opacity:1"
         id="stop2780" />
      <stop
         offset="0.66093999"
         style="stop-color:#3b7caf;stop-opacity:1"
         id="stop2782" />
      <stop
         offset="1"
         style="stop-color:#194c70;stop-opacity:1"
         id="stop2784" />
    </linearGradient>
    <linearGradient
       gradientTransform="matrix(0.9584364,0,0,0.9584366,0.9975246,1.9975253)"
       gradientUnits="userSpaceOnUse"
       xlink:href="#linearGradient2490-182-124"
       id="linearGradient2412"
       y2="3.0816143"
       x2="18.379412"
       y1="44.980297"
       x1="18.379412" />
    <linearGradient
       id="linearGradient2490-182-124">
      <stop
         offset="0"
         style="stop-color:#1f4b6a;stop-opacity:1"
         id="stop2788" />
      <stop
         offset="1"
         style="stop-color:#4083c2;stop-opacity:1"
         id="stop2790" />
    </linearGradient>
    <radialGradient
       gradientTransform="matrix(2.1647059,0,0,0.7529402,-188.95015,-35.708768)"
       gradientUnits="userSpaceOnUse"
       xlink:href="#linearGradient8838"
       id="radialGradient2415"
       fy="4.625"
       fx="62.625"
       r="10.625"
       cy="4.625"
       cx="62.625" />
    <linearGradient
       id="linearGradient8838">
      <stop
         offset="0"
         style="stop-color:#000000;stop-opacity:1"
         id="stop8840" />
      <stop
         offset="1"
         style="stop-color:#000000;stop-opacity:0"
         id="stop8842" />
    </linearGradient>
  </defs>
  <sodipodi:namedview
     id="base"
     pagecolor="#ffffff"
     bordercolor="#666666"
     borderopacity="1.0"
     inkscape:pageopacity="0.0"
     inkscape:pageshadow="2"
     inkscape:zoom="6.9780564"
     inkscape:cx="24.830169"
     inkscape:cy="44.519037"
     inkscape:current-layer="layer1"
     showgrid="true"
     inkscape:grid-bbox="true"
     inkscape:document-units="px"
     inkscape:window-width="1214"
     inkscape:window-height="796"
     inkscape:window-x="104"
     inkscape:window-y="56"
     inkscape:window-maximized="0" />
  <metadata
     id="metadata3908">
    <rdf:RDF>
      <cc:Work
         rdf:about="">
        <dc:format>image/svg+xml</dc:format>
        <dc:type
           rdf:resource="http://purl.org/dc/dcmitype/StillImage" />
        <dc:title></dc:title>
      </cc:Work>
    </rdf:RDF>
  </metadata>
  <g
     id="layer1"
     inkscape:label="Layer 1"
     inkscape:groupmode="layer"
     transform="translate(0,16)">
    <g
       id="layer1-93"
       transform="matrix(1.3115355,0,0,1.3115355,102.01691,79.773803)">
      <path
         style="opacity:0.3;fill:url(#radialGradient2415);fill-opacity:1;fill-rule:evenodd;stroke:none;stroke-width:0.99999988;marker:none;visibility:visible;display:inline;overflow:visible"
         id="path8836"
         d="m -30.385448,-32.226415 c 0,4.418278 -10.297452,8 -23,8 -12.702548,0 -23,-3.581722 -23,-8 0,-4.418278 10.297452,-8 23,-8 12.702548,0 23,3.581722 23,8 l 0,0 z"
         inkscape:connector-curvature="0" />
    </g>
    <path
       style="color:#000000;fill:url(#radialGradient3899);fill-opacity:1;fill-rule:nonzero;stroke:url(#linearGradient3901);stroke-width:1;stroke-linecap:round;stroke-linejoin:round;stroke-miterlimit:4;stroke-opacity:1;stroke-dasharray:none;stroke-dashoffset:0;marker:none;visibility:visible;display:inline;overflow:visible;enable-background:accumulate"
       d="m 19.312903,-11.673954 c -1.910125,0 -3.152771,0.192927 -4.858812,0.750854 C 8.9899416,-9.1366579 4.8918488,-4.4083089 3.946418,1.2496556 3.7863069,2.2078636 3.7805323,2.9074366 3.8279075,4.451114 3.8963035,6.6796754 4.1578638,7.9257653 4.933978,9.7865723 5.1727707,10.358926 5.4168186,10.95856 5.4870131,11.130241 c 0.093775,0.229518 0.08462,0.705474 -0.039503,1.739095 -0.2438763,2.030782 -0.2291816,6.011292 0.039503,7.667237 0.5688839,3.506522 1.8678748,7.111015 3.5947307,9.920194 1.6216402,2.638153 4.1832482,5.461364 6.5574212,7.272201 5.912714,4.509584 13.183344,6.37485 20.501813,5.256374 l 0.908559,-0.119351 1.264082,0.553206 c 1.319447,0.589273 2.96297,1.032834 4.38478,1.225236 1.118245,0.151352 3.804575,0.06821 4.937815,-0.158171 4.719083,-0.9426 8.704701,-3.93946 10.902702,-8.220573 1.185378,-2.308828 1.658751,-4.370299 1.659106,-7.074423 3.16e-4,-2.472508 -0.33746,-4.089893 -1.343086,-6.442264 l -0.51353,-1.185759 0.15801,-0.987979 C 58.741006,19.063587 58.81957,15.545262 58.657425,13.97496 57.911087,6.7472195 54.360708,0.11189847 48.821294,-4.3238461 43.08425,-8.9178926 35.830257,-10.931099 28.477491,-10.014992 l -1.5406,0.1975165 -1.10607,-0.5137285 c -2.311195,-1.005686 -4.064276,-1.343669 -6.517918,-1.343669 z"
       id="path2986"
       inkscape:connector-curvature="0" />
    <path
       style="color:#000000;fill:url(#linearGradient3788);fill-opacity:1;fill-rule:nonzero;stroke:none;stroke-width:1;marker:none;visibility:visible;display:inline;overflow:visible;enable-background:accumulate"
       d="m 32.697354,-3.1501529 c 2.135084,6.558e-4 2.522454,0.031477 3.830411,0.3177851 5.648142,1.2319255 9.59266,4.2257677 9.750143,7.427095 0.02393,0.4861863 -0.03588,1.0611634 -0.116071,1.3106175 -0.193777,0.6026506 -0.839253,1.3262249 -1.547641,1.7078815 -0.515347,0.2776523 -0.735517,0.3175229 -1.702406,0.3175229 -0.863093,0 -1.184235,-0.053773 -1.547641,-0.2381748 C 41.108787,7.5640437 40.175367,6.7192837 39.313525,5.8258656 37.567713,4.015553 36.889072,3.5683195 35.0962,3.0855431 33.865635,2.7537247 31.267971,2.7491342 30.105056,3.0461972 c -2.293327,0.5849449 -3.568738,2.0020589 -3.559576,3.971592 0.0059,1.2682549 0.702155,2.230922 2.205388,2.9391518 1.123247,0.529073 1.778636,0.704556 6.848315,1.866707 2.31923,0.531697 4.669709,1.111133 5.223291,1.310619 4.186713,1.508397 6.408331,4.210685 6.848316,8.2611 0.347114,3.195556 -0.652553,6.203957 -2.747065,8.34071 -1.806508,1.84284 -4.332215,3.003285 -7.699519,3.574328 -1.310459,0.221519 -4.993236,0.346115 -6.384022,0.198697 -5.114272,-0.541794 -8.971651,-2.4649 -10.910873,-5.441299 -0.680897,-1.04503 -1.044658,-2.183311 -1.044658,-3.217064 0,-1.354292 0.505528,-2.266859 1.547641,-2.859411 0.553479,-0.315294 0.701699,-0.357655 1.702407,-0.357655 1.567078,0 2.015094,0.30926 3.714339,2.462407 1.76498,2.236824 3.063758,3.133391 5.145909,3.574722 3.744437,0.793086 7.346008,-0.422446 8.51203,-2.859673 0.273458,-0.571698 0.349581,-0.802003 0.348219,-1.668141 -0.0016,-0.868236 -0.0789,-1.10156 -0.348219,-1.628404 -0.35137,-0.687506 -1.047249,-1.358881 -1.81848,-1.707881 -0.282194,-0.127219 -2.928759,-0.868629 -5.881038,-1.628402 -2.952279,-0.759773 -5.800632,-1.516134 -6.30664,-1.707883 -3.613921,-1.367669 -5.553014,-3.394909 -6.267948,-6.43413 -0.339779,-1.4442626 -0.345742,-3.7340726 0,-5.0837739 1.079611,-4.21409505 4.406849,-6.8311332 9.943598,-7.8638363 0.877453,-0.1638109 1.722103,-0.2388307 3.520885,-0.2383061 z"
       id="path2879-9"
       inkscape:connector-curvature="0" />
    <path
       style="color:#000000;fill:#ffffff;fill-opacity:1;fill-rule:nonzero;stroke:none;stroke-width:1;marker:none;visibility:visible;display:inline;overflow:visible;enable-background:accumulate"
       d="m 32.697354,-1.8386172 c 2.135084,6.557e-4 2.522454,0.031477 3.830411,0.317785 5.648142,1.23192538 9.59266,4.2257677 9.750143,7.427095 0.02393,0.4861862 -0.03588,1.0611634 -0.116071,1.3106175 -0.193777,0.6026507 -0.839253,1.3262248 -1.547641,1.7078817 -0.515347,0.277652 -0.735517,0.3175228 -1.702406,0.3175228 -0.863093,0 -1.184235,-0.053773 -1.547641,-0.2381749 C 41.108787,8.8755795 40.175367,8.0308193 39.313525,7.1374012 37.567713,5.3270886 36.889072,4.879855 35.0962,4.3970787 33.865635,4.0652603 31.267971,4.0606699 30.105056,4.3577328 c -2.293327,0.5849448 -3.568738,2.002059 -3.559576,3.971592 0.0059,1.2682551 0.702155,2.2309222 2.205388,2.9391522 1.123247,0.529072 1.778636,0.704556 6.848315,1.866707 2.31923,0.531696 4.669709,1.111133 5.223291,1.310618 4.186713,1.508397 6.408331,4.210685 6.848316,8.2611 0.347114,3.195556 -0.652553,6.203957 -2.747065,8.340711 -1.806508,1.842839 -4.332215,3.003285 -7.699519,3.574329 -1.310459,0.221517 -4.993236,0.346113 -6.384022,0.198697 -5.114272,-0.541796 -8.971651,-2.4649 -10.910873,-5.441299 -0.680897,-1.045032 -1.044658,-2.183313 -1.044658,-3.217066 0,-1.354291 0.505528,-2.266857 1.547641,-2.859409 0.553479,-0.315294 0.701699,-0.357657 1.702407,-0.357657 1.567078,0 2.015094,0.30926 3.714339,2.462408 1.76498,2.236825 3.063758,3.13339 5.145909,3.574722 3.744437,0.793086 7.346008,-0.422446 8.51203,-2.859672 0.273458,-0.571699 0.349581,-0.802005 0.348219,-1.668142 -0.0016,-0.868237 -0.0789,-1.101558 -0.348219,-1.628403 -0.35137,-0.687506 -1.047249,-1.358881 -1.81848,-1.707881 -0.282194,-0.12722 -2.928759,-0.868631 -5.881038,-1.628404 -2.952279,-0.759771 -5.800632,-1.516134 -6.30664,-1.707882 -3.613921,-1.367669 -5.553014,-3.394909 -6.267948,-6.43413 -0.339779,-1.4442632 -0.345742,-3.734073 0,-5.0837743 1.079611,-4.214095 4.406849,-6.83113319 9.943598,-7.8638363 0.877453,-0.1638107 1.722103,-0.2388306 3.520885,-0.2383061 z"
       id="path2879"
       inkscape:connector-curvature="0" />
    <path
       transform="matrix(1.3321626,0,0,1.3321626,0.0279501,-1353.4226)"
       sodipodi:type="inkscape:offset"
       inkscape:radius="-1.0321088"
       inkscape:original="M 14.3125 1006.875 C 12.856097 1006.875 11.925797 1007.0121 10.625 1007.4375 C 6.458777 1008.7996 3.3458584 1012.4048 2.625 1016.7188 C 2.5029219 1017.4493 2.4951262 1017.9792 2.53125 1019.1562 C 2.583402 1020.8555 2.7832401 1021.8 3.375 1023.2188 C 3.5570709 1023.6552 3.7277292 1024.1191 3.78125 1024.25 C 3.852746 1024.425 3.844637 1024.7744 3.75 1025.5625 C 3.5640526 1027.1109 3.576388 1030.1749 3.78125 1031.4375 C 4.2150035 1034.1111 5.2145827 1036.8581 6.53125 1039 C 7.7676939 1041.0115 9.7210248 1043.1506 11.53125 1044.5312 C 16.039487 1047.9697 21.576173 1049.384 27.15625 1048.5312 L 27.84375 1048.4375 L 28.8125 1048.875 C 29.818533 1049.3243 31.072171 1049.6658 32.15625 1049.8125 C 33.008873 1049.9279 35.073444 1049.8601 35.9375 1049.6875 C 39.535635 1048.9688 42.574101 1046.6705 44.25 1043.4062 C 45.15381 1041.6459 45.49973 1040.093 45.5 1038.0312 C 45.500241 1036.1461 45.235505 1034.8873 44.46875 1033.0938 L 44.09375 1032.2188 L 44.21875 1031.4375 C 44.402955 1030.2849 44.436129 1027.6036 44.3125 1026.4062 C 43.743444 1020.8954 41.03611 1015.8508 36.8125 1012.4688 C 32.438206 1008.966 26.918727 1007.4265 21.3125 1008.125 L 20.125 1008.2812 L 19.28125 1007.875 C 17.519046 1007.1082 16.183316 1006.875 14.3125 1006.875 z "
       style="opacity:0.4;color:#000000;fill:none;stroke:url(#linearGradient3852);stroke-width:0.76246506;stroke-linecap:round;stroke-linejoin:round;stroke-miterlimit:4;stroke-opacity:1;stroke-dasharray:none;stroke-dashoffset:0;marker:none;visibility:visible;display:inline;overflow:visible;enable-background:accumulate"
       id="path3850"
       d="m 14.3125,1007.9062 c -1.391631,0 -2.150114,0.1 -3.375,0.5 -3.7992701,1.2422 -6.6245929,4.539 -7.28125,8.4688 -0.1098804,0.6575 -0.1294427,1.087 -0.09375,2.25 0.050032,1.6302 0.1891061,2.3427 0.75,3.6875 0.193905,0.4648 0.4163894,1.0109 0.4375,1.0625 0.2637365,0.6455 0.1293603,0.9955 0.03125,1.8125 -0.1660843,1.383 -0.1323825,4.5853 0.03125,5.5937 0.4115099,2.5365 1.3612123,5.1825 2.59375,7.1876 1.1534399,1.8764 3.063859,3.964 4.75,5.25 4.292751,3.2741 9.532921,4.5929 14.84375,3.7812 a 1.032212,1.032212 0 0 1 0.03125,0 l 0.6875,-0.094 a 1.032212,1.032212 0 0 1 0.5625,0.094 l 0.9375,0.4375 c 0.0085,0 0.02273,-0 0.03125,0 0.889436,0.3934 2.062594,0.7127 3.03125,0.8437 0.57993,0.079 2.863474,0.027 3.46875,-0.094 3.293124,-0.6578 6.059451,-2.7615 7.59375,-5.75 0.840031,-1.6361 1.124745,-2.9598 1.125,-4.9063 2.29e-4,-1.7884 -0.205609,-2.8192 -0.9375,-4.5312 l -0.375,-0.875 a 1.032212,1.032212 0 0 1 -0.09375,-0.5625 l 0.125,-0.7813 c 0.147887,-0.9253 0.199276,-3.7591 0.09375,-4.7812 -0.541311,-5.2421 -3.124293,-10.0152 -7.125,-13.2188 -4.158811,-3.3302 -9.379631,-4.7902 -14.71875,-4.125 l -1.1875,0.1563 a 1.032212,1.032212 0 0 1 -0.5625,-0.094 l -0.8125,-0.4063 c -0.01044,-0 -0.02085,0 -0.03125,0 -1.64024,-0.7101 -2.757452,-0.9063 -4.53125,-0.9063 z" />
  </g>
</svg>
