<?xml version="1.0" encoding="UTF-8" standalone="no"?>
<svg
   width="64"
   height="64"
   id="svg3658"
   version="1.1"
   sodipodi:docname="snap-store.svg"
   inkscape:version="1.2.2 (b0a8486541, 2022-12-01)"
   xmlns:inkscape="http://www.inkscape.org/namespaces/inkscape"
   xmlns:sodipodi="http://sodipodi.sourceforge.net/DTD/sodipodi-0.dtd"
   xmlns:xlink="http://www.w3.org/1999/xlink"
   xmlns="http://www.w3.org/2000/svg"
   xmlns:svg="http://www.w3.org/2000/svg">
  <sodipodi:namedview
     id="namedview56"
     pagecolor="#ffffff"
     bordercolor="#666666"
     borderopacity="1.0"
     inkscape:pageshadow="2"
     inkscape:pageopacity="0.0"
     inkscape:pagecheckerboard="0"
     showgrid="false"
     inkscape:zoom="10.046809"
     inkscape:cx="34.140194"
     inkscape:cy="44.790343"
     inkscape:window-width="1360"
     inkscape:window-height="893"
     inkscape:window-x="649"
     inkscape:window-y="145"
     inkscape:window-maximized="0"
     inkscape:current-layer="svg3658"
     width="64px"
     showguides="false"
     inkscape:showpageshadow="2"
     inkscape:deskcolor="#d1d1d1" />
  <defs
     id="defs3660">
    <linearGradient
       id="linearGradient2368">
      <stop
         style="stop-color:#0d5d6f;stop-opacity:1"
         offset="0"
         id="stop2364" />
      <stop
         style="stop-color:#004f62;stop-opacity:1"
         offset="1"
         id="stop2366" />
    </linearGradient>
    <linearGradient
       inkscape:collect="always"
       xlink:href="#linearGradient2368"
       id="linearGradient4884"
       x1="325.00024"
       y1="107.00019"
       x2="372.25275"
       y2="51.776531"
       gradientUnits="userSpaceOnUse"
       gradientTransform="matrix(0,-1.2161955,1.2222184,0,-70.666494,454.37195)" />
    <linearGradient
       inkscape:collect="always"
       xlink:href="#linearGradient927"
       id="linearGradient1004"
       x1="344"
       y1="66.000679"
       x2="344"
       y2="102.00067"
       gradientUnits="userSpaceOnUse"
       gradientTransform="rotate(-90,344,84)" />
    <linearGradient
       inkscape:collect="always"
       id="linearGradient927">
      <stop
         style="stop-color:#ffffff;stop-opacity:1;"
         offset="0"
         id="stop923" />
      <stop
         id="stop933"
         offset="0.125"
         style="stop-color:#ffffff;stop-opacity:0.09803922" />
      <stop
         id="stop931"
         offset="0.92500001"
         style="stop-color:#ffffff;stop-opacity:0.09803922" />
      <stop
         style="stop-color:#ffffff;stop-opacity:0.49803922"
         offset="1"
         id="stop925" />
    </linearGradient>
    <clipPath
       clipPathUnits="userSpaceOnUse"
       id="clipPath994">
      <path
         style="color:#000000;display:inline;overflow:visible;visibility:visible;fill:#cdcdcd;fill-opacity:1;fill-rule:nonzero;stroke:none;stroke-width:2;stroke-miterlimit:4;stroke-dasharray:none;stroke-opacity:1;marker:none;enable-background:accumulate"
         d="m 335.73108,62 c -8.82418,0 -9.77365,0.90635 -9.7304,9.74838 V 84 96.25162 c -0.0433,8.84203 0.90622,9.74838 9.7304,9.74838 h 16.53919 c 8.82418,0 9.7304,-0.90625 9.7304,-9.74838 V 84 71.74838 C 362.00067,62.90625 361.09445,62 352.27027,62 Z"
         id="path996"
         inkscape:connector-curvature="0"
         sodipodi:nodetypes="scccssscsss" />
    </clipPath>
    <radialGradient
       gradientTransform="matrix(2.003784,0,0,1.4,27.98813,-17.4)"
       gradientUnits="userSpaceOnUse"
       xlink:href="#linearGradient3688-166-749-5"
       id="radialGradient2455-1"
       fy="43.5"
       fx="4.9929786"
       r="2.5"
       cy="43.5"
       cx="4.9929786" />
    <linearGradient
       id="linearGradient3688-166-749-5">
      <stop
         offset="0"
         style="stop-color:#181818;stop-opacity:1"
         id="stop2883-0" />
      <stop
         offset="1"
         style="stop-color:#181818;stop-opacity:0"
         id="stop2885-5" />
    </linearGradient>
    <radialGradient
       gradientTransform="matrix(2.003784,0,0,1.4,-20.01187,-104.4)"
       gradientUnits="userSpaceOnUse"
       xlink:href="#linearGradient3688-166-749-5"
       id="radialGradient2457-5"
       fy="43.5"
       fx="4.9929786"
       r="2.5"
       cy="43.5"
       cx="4.9929786" />
    <linearGradient
       gradientUnits="userSpaceOnUse"
       xlink:href="#linearGradient3702-501-757-0"
       id="linearGradient2459-7"
       y2="39.999443"
       x2="25.058096"
       y1="47.027729"
       x1="25.058096" />
    <linearGradient
       id="linearGradient3702-501-757-0">
      <stop
         offset="0"
         style="stop-color:#181818;stop-opacity:0"
         id="stop2895-0" />
      <stop
         offset="0.5"
         style="stop-color:#181818;stop-opacity:1"
         id="stop2897-2" />
      <stop
         offset="1"
         style="stop-color:#181818;stop-opacity:0"
         id="stop2899-6" />
    </linearGradient>
  </defs>
  <g
     transform="matrix(1.3499995,0,0,0.55555607,-0.4000015,34.88888)"
     id="g2036"
     style="display:inline;opacity:0.4;stroke-width:1.41421">
    <g
       transform="matrix(1.052632,0,0,1.285713,-1.263158,-13.42854)"
       id="g3712"
       style="opacity:0.4;stroke-width:1.41421">
      <rect
         width="5"
         height="7"
         x="38"
         y="40"
         id="rect2801"
         style="fill:url(#radialGradient2455-1);fill-opacity:1;stroke:none;stroke-width:1.41421" />
      <rect
         width="5"
         height="7"
         x="-10"
         y="-47"
         transform="scale(-1)"
         id="rect3696"
         style="fill:url(#radialGradient2457-5);fill-opacity:1;stroke:none;stroke-width:1.41421" />
      <rect
         width="28"
         height="7.0000005"
         x="10"
         y="40"
         id="rect3700"
         style="fill:url(#linearGradient2459-7);fill-opacity:1;stroke:none;stroke-width:1.41421" />
    </g>
  </g>
  <path
     style="color:#000000;display:inline;overflow:visible;visibility:visible;fill:url(#linearGradient4884);fill-opacity:1;fill-rule:nonzero;stroke:none;stroke-width:1;marker:none;enable-background:accumulate"
     d="m 4.5000004,46.664872 c 0,10.011163 1.1077572,11.886671 11.9146486,11.834065 H 31.999851 47.585348 C 58.39224,58.551585 59.5,56.676035 59.5,46.664872 V 25.334055 C 59.5,15.325388 58.39236,13.5 47.585348,13.5 H 31.999851 16.414649 C 5.6076356,13.5 4.5000004,15.325388 4.5000004,25.334068 Z"
     id="path964"
     inkscape:connector-curvature="0"
     sodipodi:nodetypes="scccssscsss" />
  <path
     style="color:#000000;display:inline;overflow:visible;visibility:visible;opacity:0.05;fill:#ffffff;fill-opacity:1;fill-rule:nonzero;stroke:none;stroke-width:0.999998;marker:none;enable-background:accumulate"
     d="M 4.500484,35.000001 V 46.117345 C 4.4617365,58.376882 6.7284641,58.500001 18.964749,58.500001 H 45.035748 C 57.26898,58.500001 59.5,58.301941 59.5,46.117345 V 35.000001 Z"
     id="path964-1"
     inkscape:connector-curvature="0"
     sodipodi:nodetypes="ccssscc" />
  <circle
     style="display:inline;opacity:0.25;fill:#000000;stroke:none;stroke-width:10;stroke-linecap:round;stroke-dasharray:none;stroke-opacity:1;enable-background:new"
     id="path21998"
     cx="23.5"
     cy="17"
     r="2" />
  <circle
     style="display:inline;opacity:0.25;fill:#000000;stroke:none;stroke-width:10;stroke-linecap:round;stroke-dasharray:none;stroke-opacity:1;enable-background:new"
     id="path22000"
     cx="40.5"
     cy="17"
     r="2" />
  <path
     style="color:#000000;display:inline;overflow:visible;visibility:visible;opacity:0.4;fill:none;fill-opacity:1;fill-rule:nonzero;stroke:#000000;stroke-width:0.999994;stroke-miterlimit:4;stroke-dasharray:none;stroke-opacity:1;marker:none;enable-background:accumulate"
     d="M 59.5,25.335146 C 59.5,15.323991 58.392241,13.448485 47.58535,13.501085 H 32.000146 16.414649 C 5.6077573,13.448425 4.4999995,15.323991 4.4999995,25.335146 v 21.330801 c 0,10.008671 1.1076358,11.834055 11.9146495,11.834055 H 32.000146 47.58535 C 58.39236,58.500002 59.5,56.674618 59.5,46.665935 Z"
     id="path958"
     inkscape:connector-curvature="0"
     sodipodi:nodetypes="scccssscsss" />
  <path
     sodipodi:nodetypes="scccssscsss"
     inkscape:connector-curvature="0"
     id="path990"
     d="m 335.73108,62 c -8.82418,0 -9.77365,0.90635 -9.7304,9.74838 V 84 96.25162 c -0.0433,8.84203 0.90622,9.74838 9.7304,9.74838 h 16.53919 c 8.82418,0 9.7304,-0.90625 9.7304,-9.74838 V 84 71.74838 C 362.00067,62.90625 361.09445,62 352.27027,62 Z"
     style="color:#000000;display:inline;overflow:visible;visibility:visible;opacity:0.2;fill:none;fill-opacity:1;fill-rule:nonzero;stroke:url(#linearGradient1004);stroke-width:1.63303;stroke-miterlimit:4;stroke-dasharray:none;stroke-opacity:1;marker:none;enable-background:accumulate"
     clip-path="url(#clipPath994)"
     transform="matrix(0,1.2221767,-1.2272727,0,135.09091,-384.42877)" />
  <path
     style="display:inline;fill:none;stroke:#d3d4d5;stroke-width:3;stroke-linecap:round;stroke-linejoin:miter;stroke-miterlimit:4;stroke-dasharray:none;stroke-opacity:1;enable-background:new"
     d="m 23.500028,16.5 v -1.285714 c 0,0 0,-7.714286 8.499971,-7.714286 8.499973,0 8.499973,7.714286 8.499973,7.714286 V 16.5"
     id="path24398"
     inkscape:connector-curvature="0"
     sodipodi:nodetypes="ccscc" />
  <path
     id="path1748"
     style="fill:#000000;fill-opacity:0.3;fill-rule:evenodd;stroke:none;stroke-width:4.26667"
     d="M 16,21 34,40.5 V 30 Z m 19,8.5 14,7 -3,-7 z m 0,1 v 9 l 6,-6 z m -6,6 -9,18 L 33,41 Z" />
  <g
     style="display:inline;stroke-width:4;enable-background:new"
     transform="matrix(1.0666667,0,0,1.0666667,14.550098,21.466667)"
     id="g2324">
    <path
       transform="translate(-6,-1)"
       style="fill:#82bfa1;fill-rule:evenodd;stroke:none;stroke-width:4"
       d="M 25.171783,17.4375 V 8.9999996 l 5.625,2.8125004 z"
       id="Fill-25"
       inkscape:connector-curvature="0"
       sodipodi:nodetypes="cccc" />
    <path
       transform="translate(-6,-1)"
       style="fill:#82bfa1;fill-rule:evenodd;stroke:none;stroke-width:4"
       d="m 19.546783,14.625 -8.4375,16.874999 12.1875,-12.656249 z"
       id="Fill-27"
       inkscape:connector-curvature="0"
       sodipodi:nodetypes="cccc" />
    <path
       transform="translate(-6,-1)"
       style="fill:#82bfa1;fill-rule:evenodd;stroke:none;stroke-width:4"
       d="M 24.234283,8.5312496 7.3592829,0.09374969 24.234283,18.375 Z"
       id="Fill-29"
       inkscape:connector-curvature="0"
       sodipodi:nodetypes="cccc" />
    <path
       transform="translate(-6,-1)"
       style="fill:#fa6340;fill-rule:evenodd;stroke:none;stroke-width:4"
       d="m 38.296783,14.625 -2.8125,-6.5625004 h -10.3125 z"
       id="Fill-31"
       inkscape:connector-curvature="0"
       sodipodi:nodetypes="cccc" />
  </g>
</svg>
