<?xml version="1.0" encoding="UTF-8" standalone="no"?>
<svg
   version="1.1"
   width="64"
   height="64"
   id="svg24942"
   sodipodi:docname="system-file-manager.svg"
   inkscape:version="1.1.1 (3bf5ae0d25, 2021-09-20)"
   xmlns:inkscape="http://www.inkscape.org/namespaces/inkscape"
   xmlns:sodipodi="http://sodipodi.sourceforge.net/DTD/sodipodi-0.dtd"
   xmlns:xlink="http://www.w3.org/1999/xlink"
   xmlns="http://www.w3.org/2000/svg"
   xmlns:svg="http://www.w3.org/2000/svg"
   xmlns:rdf="http://www.w3.org/1999/02/22-rdf-syntax-ns#"
   xmlns:cc="http://creativecommons.org/ns#"
   xmlns:dc="http://purl.org/dc/elements/1.1/">
  <sodipodi:namedview
     id="namedview56"
     pagecolor="#ffffff"
     bordercolor="#666666"
     borderopacity="1.0"
     inkscape:pageshadow="2"
     inkscape:pageopacity="0.0"
     inkscape:pagecheckerboard="0"
     showgrid="false"
     inkscape:zoom="15.070213"
     inkscape:cx="38.320626"
     inkscape:cy="35.832273"
     inkscape:window-width="1317"
     inkscape:window-height="890"
     inkscape:window-x="168"
     inkscape:window-y="40"
     inkscape:window-maximized="0"
     inkscape:current-layer="layer1" />
  <defs
     id="defs24944">
    <linearGradient
       x1="97.538795"
       y1="16.962049"
       x2="97.538795"
       y2="44.260689"
       id="linearGradient22622"
       xlink:href="#linearGradient8272-8-8"
       gradientUnits="userSpaceOnUse"
       gradientTransform="matrix(1.3210282,0,0,1.2679796,-70.729885,-0.82613866)" />
    <linearGradient
       id="linearGradient8272-8-8">
      <stop
         id="stop8274-4"
         style="stop-color:#ffffff;stop-opacity:1"
         offset="0" />
      <stop
         id="stop8276-5"
         style="stop-color:#ffffff;stop-opacity:0.23529412"
         offset="0.0221225" />
      <stop
         id="stop8278-0"
         style="stop-color:#ffffff;stop-opacity:0.15686275"
         offset="0.97909725" />
      <stop
         id="stop8280-5-9"
         style="stop-color:#ffffff;stop-opacity:0.39215687"
         offset="1" />
    </linearGradient>
    <linearGradient
       x1="-91"
       y1="43.999817"
       x2="-91"
       y2="113.33592"
       id="linearGradient22614"
       xlink:href="#linearGradient4632-0-6-4-4-4"
       gradientUnits="userSpaceOnUse"
       gradientTransform="matrix(0.50413225,0,0,0.49333391,73.843637,-2.4532388)" />
    <linearGradient
       id="linearGradient4632-0-6-4-4-4">
      <stop
         id="stop4634-4-4-7-4"
         style="stop-color:#e9e9e9;stop-opacity:1"
         offset="0" />
      <stop
         id="stop4636-3-1-5-9"
         style="stop-color:#b4b4b4;stop-opacity:1"
         offset="1" />
    </linearGradient>
    <radialGradient
       cx="605.71429"
       cy="486.64789"
       r="117.14286"
       fx="605.71429"
       fy="486.64789"
       id="radialGradient22610"
       xlink:href="#linearGradient5060-820-8"
       gradientUnits="userSpaceOnUse"
       gradientTransform="matrix(-0.04016195,0,0,0.0329426,31.205011,36.921441)" />
    <linearGradient
       id="linearGradient5060-820-8">
      <stop
         id="stop2681-37"
         style="stop-color:#000000;stop-opacity:1"
         offset="0" />
      <stop
         id="stop2683-05"
         style="stop-color:#000000;stop-opacity:0"
         offset="1" />
    </linearGradient>
    <linearGradient
       x1="302.85715"
       y1="366.64789"
       x2="302.85715"
       y2="609.50507"
       id="linearGradient22606"
       xlink:href="#linearGradient5048-585-1"
       gradientUnits="userSpaceOnUse"
       gradientTransform="matrix(0.10355029,0,0,0.03294117,-5.4260416,36.922311)" />
    <linearGradient
       id="linearGradient5048-585-1">
      <stop
         id="stop2667-0"
         style="stop-color:#000000;stop-opacity:0"
         offset="0" />
      <stop
         id="stop2669-91"
         style="stop-color:#000000;stop-opacity:1"
         offset="0.5" />
      <stop
         id="stop2671-6"
         style="stop-color:#000000;stop-opacity:0"
         offset="1" />
    </linearGradient>
    <radialGradient
       cx="605.71429"
       cy="486.64789"
       r="117.14286"
       fx="605.71429"
       fy="486.64789"
       id="radialGradient22602"
       xlink:href="#linearGradient5060-820-8"
       gradientUnits="userSpaceOnUse"
       gradientTransform="matrix(0.04016195,0,0,0.0329426,32.79698,36.921441)" />
    <linearGradient
       x1="97.538795"
       y1="8.8103228"
       x2="97.538795"
       y2="44.260689"
       id="linearGradient22598"
       xlink:href="#linearGradient9235-9"
       gradientUnits="userSpaceOnUse"
       gradientTransform="matrix(1.2749674,0,0,1.218292,-67.158525,-1.3391588)" />
    <linearGradient
       id="linearGradient9235-9">
      <stop
         id="stop9237-7"
         style="stop-color:#ffffff;stop-opacity:1"
         offset="0" />
      <stop
         id="stop9239-2-3"
         style="stop-color:#ffffff;stop-opacity:0.23529412"
         offset="0.1088333" />
      <stop
         id="stop9241-1"
         style="stop-color:#ffffff;stop-opacity:0.15686275"
         offset="0.97909725" />
      <stop
         id="stop9243-5"
         style="stop-color:#ffffff;stop-opacity:0.39215687"
         offset="1" />
    </linearGradient>
    <linearGradient
       x1="-51.786404"
       y1="53.514328"
       x2="-51.786404"
       y2="3.6336823"
       id="linearGradient22594"
       xlink:href="#linearGradient3104-8-8-97-4-6-11-5-5-1-0-5"
       gradientUnits="userSpaceOnUse"
       gradientTransform="matrix(1.0563766,0,0,1.0770552,69.975817,-3.5295988)" />
    <linearGradient
       id="linearGradient3104-8-8-97-4-6-11-5-5-1-0-5">
      <stop
         id="stop3106-5-4-3-5-0-2-1-0-1-2-7"
         style="stop-color:#000000;stop-opacity:0.32173914"
         offset="0" />
      <stop
         id="stop3108-4-3-7-8-2-0-7-9-4-9-4-5"
         style="stop-color:#000000;stop-opacity:0.27826086"
         offset="1" />
    </linearGradient>
    <linearGradient
       id="linearGradient6404-7-5-7">
      <stop
         id="stop6406-1-8-2"
         style="stop-color:#f9f9f9;stop-opacity:1"
         offset="0" />
      <stop
         id="stop6408-9-6-4"
         style="stop-color:#c9c9c9;stop-opacity:1"
         offset="1" />
    </linearGradient>
    <linearGradient
       x1="62.988873"
       y1="14.235775"
       x2="62.988873"
       y2="17.888897"
       id="linearGradient24940"
       xlink:href="#linearGradient6404-7-5-7"
       gradientUnits="userSpaceOnUse"
       gradientTransform="matrix(1.3135526,0,0,1.2900554,-55.484955,-2.2218088)" />
  </defs>
  <metadata
     id="metadata24947">
    <rdf:RDF>
      <cc:Work
         rdf:about="">
        <dc:format>image/svg+xml</dc:format>
        <dc:type
           rdf:resource="http://purl.org/dc/dcmitype/StillImage" />
      </cc:Work>
    </rdf:RDF>
  </metadata>
  <g
     id="layer1">
    <path
       d="m 57.001,49.000051 c 0,0 0,7.999911 0,7.999911 2.06824,0.0151 5,-1.79238 5,-4.000471 0,-2.2081 -2.308,-3.99944 -5,-3.99944 z"
       id="use6506"
       style="display:inline;overflow:visible;visibility:visible;opacity:0.3;fill:url(#radialGradient22602);fill-opacity:1;fill-rule:nonzero;stroke:none;stroke-width:1;marker:none" />
    <rect
       width="50"
       height="8"
       x="7"
       y="49.000118"
       id="use6508"
       style="display:inline;overflow:visible;visibility:visible;opacity:0.3;fill:url(#linearGradient22606);fill-opacity:1;fill-rule:nonzero;stroke:none;stroke-width:0.999996;marker:none" />
    <path
       d="m 7.001,49.000051 c 0,0 0,7.999911 0,7.999911 -2.06825,0.0151 -5,-1.79238 -5,-4.000471 0,-2.2081 2.308,-3.99944 5,-3.99944 z"
       id="use6510"
       style="display:inline;overflow:visible;visibility:visible;opacity:0.3;fill:url(#radialGradient22610);fill-opacity:1;fill-rule:nonzero;stroke:none;stroke-width:1;marker:none" />
    <path
       d="m 9.501,9.9999706 c -0.277,0 -0.5,0.2230014 -0.5,0.5000004 v 3.5 h -2.5 c -0.277,0 -0.5,0.223 -0.5,0.5 v 9.5 c 0,0.277 0.223,0.5 0.5,0.5 h 51 c 0.277,0 0.5,-0.223 0.5,-0.5 v -9.5 c 0,-0.277 -0.223,-0.5 -0.5,-0.5 H 28.000667 v -3.5 c 0,-0.277 -0.223,-0.5000004 -0.5,-0.5000004 z"
       id="use6500"
       style="color:#000000;display:inline;overflow:visible;visibility:visible;fill:url(#linearGradient24940);fill-opacity:1;fill-rule:nonzero;stroke:none;stroke-width:1;marker:none;enable-background:accumulate"
       sodipodi:nodetypes="sscsssssssscsss" />
    <path
       d="m 10.001,9.5001306 c -0.91501,0.0102 -1.5,0.45618 -1.5,1.3332904 v 2.66655 H 6.995 c -0.99492,0 -1.494,0.47358 -1.494,1.34217 0.0456,13.71958 0,14.49301 0,15.65783 1.90283,0 52.99999,-4.9328 52.99999,-7.05611 v -8.44389 c 0,-1.00007 -0.500555,-1.535067 -1.49999,-1.5 H 28.500667 v -2.66655 c 0,-0.8771104 -0.22453,-1.3435104 -1.13954,-1.3332904 z"
       id="use6502"
       style="color:#000000;display:inline;overflow:visible;visibility:visible;opacity:0.8;fill:none;stroke:url(#linearGradient22594);stroke-width:1;stroke-linecap:butt;stroke-linejoin:miter;stroke-miterlimit:4;stroke-dasharray:none;stroke-dashoffset:0;stroke-opacity:1;marker:none;enable-background:accumulate"
       sodipodi:nodetypes="cscsccssscscc" />
    <path
       d="m 9.501,10.499971 v 4 h -3 v 10 h 51 v -10 H 27.500667 v -4 z"
       id="use6504"
       style="color:#000000;display:inline;overflow:visible;visibility:visible;fill:none;stroke:url(#linearGradient22598);stroke-width:1;stroke-linecap:round;stroke-linejoin:round;stroke-miterlimit:4;stroke-dasharray:none;stroke-dashoffset:0;stroke-opacity:1;marker:none;enable-background:accumulate"
       sodipodi:nodetypes="ccccccccc" />
    <path
       d="m 4.50454,19.532162 c -1.44043,0.16346 -0.87122,1.85289 -0.98607,2.8029 0.5271,11.19318 1.25951,18.809309 1.78336,30.002558 0,1.189961 1.19486,1.136531 1.86516,1.136531 H 57.6575 c 1.46281,-0.140931 0.85463,-1.860241 1.0604,-2.844201 0.52711,-11.19317 1.25992,-18.569348 1.78376,-29.762598 0.0178,-0.7521 -0.50074,-1.33519 -1.21534,-1.33519 z"
       id="use6512"
       style="color:#000000;display:inline;overflow:visible;visibility:visible;fill:url(#linearGradient22614);fill-opacity:1;fill-rule:nonzero;stroke:none;stroke-width:1;marker:none;enable-background:accumulate"
       sodipodi:nodetypes="cccscccsc" />
    <path
       d="m 59.06943,20.500052 -53.11794,0.0313 c -1.70924,0 -1.43419,0.0338 -1.43419,1.07579 L 6.13844,51.52118 c 0.0163,0.94321 -0.0656,0.979301 1.0726,0.979301 H 57.6507 c 0.53983,-11.582251 1.25805,-19.682719 1.81479,-31.322279 0.0519,-0.55489 0.0134,-0.67818 -0.39606,-0.67818 z"
       id="use6516"
       style="color:#000000;display:inline;overflow:visible;visibility:visible;opacity:0.8;fill:none;stroke:url(#linearGradient22622);stroke-width:1;stroke-linecap:round;stroke-linejoin:round;stroke-miterlimit:4;stroke-dasharray:none;stroke-dashoffset:0;stroke-opacity:1;marker:none;enable-background:accumulate"
       sodipodi:nodetypes="ccccscccc" />
    <path
       d="m 31.999997,28.00025 -11.187747,11.1873 2.375,2.34375 1.8125,-1.78125 V 48 h 5.000247 v -3.99995 c 0,-1.10457 0.89543,-2 2,-2 1.10457,0 2,0.89543 2,2 V 48 h 5.000253 v -8.24995 l 1.8125,1.78125 2.375,-2.34375 z M 36.00025,28 v 2.219 L 40,34 v -6 z"
       id="path3681"
       style="color:#000000;display:inline;overflow:visible;visibility:visible;fill:#fefefe;fill-opacity:0.6;fill-rule:nonzero;stroke:none;stroke-width:1.7;marker:none;enable-background:accumulate"
       sodipodi:nodetypes="ccccccsssccccccccccc" />
    <path
       d="m 31.999997,27.00025 -11.187747,11.1873 2.375,2.34375 1.8125,-1.78125 V 47 h 5.000247 v -3.99995 c 0,-1.10457 0.89543,-2 2,-2 1.10457,0 2,0.89543 2,2 V 47 h 5.000253 v -8.24995 l 1.8125,1.78125 2.375,-2.34375 z M 36.00025,27 v 2.219 L 40,33 v -6 z"
       id="path2998-4-3"
       style="color:#000000;display:inline;overflow:visible;visibility:visible;fill:#000000;fill-opacity:0.6;fill-rule:nonzero;stroke:none;stroke-width:1.7;marker:none;enable-background:accumulate"
       sodipodi:nodetypes="ccccccsssccccccccccc" />
    <path
       d="m 4.50454,19.532162 c -1.44043,0.16346 -0.87122,1.85289 -0.98607,2.8029 0.5271,11.19318 1.25951,18.809309 1.78336,30.002558 0,1.189961 1.19486,1.136531 1.86516,1.136531 H 57.6575 c 1.46281,-0.140931 0.85463,-1.860241 1.0604,-2.844201 0.52711,-11.19317 1.25992,-18.569348 1.78376,-29.762598 0.0178,-0.7521 -0.50074,-1.33519 -1.21534,-1.33519 z"
       id="use6512-8"
       style="color:#000000;display:inline;overflow:visible;visibility:visible;opacity:0.3;fill:none;stroke:#000000;stroke-width:1;stroke-opacity:1;marker:none;enable-background:accumulate"
       sodipodi:nodetypes="cccscccsc" />
  </g>
</svg>
