<?xml version="1.0" encoding="UTF-8" standalone="no"?>
<!-- Created with Inkscape (http://www.inkscape.org/) -->

<svg
   width="64"
   height="64"
   viewBox="0 0 64 64"
   version="1.1"
   id="svg28287"
   inkscape:version="1.2.2 (b0a8486541, 2022-12-01)"
   sodipodi:docname="ubiquity.svg"
   xmlns:inkscape="http://www.inkscape.org/namespaces/inkscape"
   xmlns:sodipodi="http://sodipodi.sourceforge.net/DTD/sodipodi-0.dtd"
   xmlns:xlink="http://www.w3.org/1999/xlink"
   xmlns="http://www.w3.org/2000/svg"
   xmlns:svg="http://www.w3.org/2000/svg">
  <sodipodi:namedview
     id="namedview28289"
     pagecolor="#ffffff"
     bordercolor="#666666"
     borderopacity="1.0"
     inkscape:showpageshadow="2"
     inkscape:pageopacity="0.0"
     inkscape:pagecheckerboard="0"
     inkscape:deskcolor="#d1d1d1"
     inkscape:document-units="px"
     showgrid="false"
     inkscape:zoom="6.7277215"
     inkscape:cx="25.714501"
     inkscape:cy="35.301699"
     inkscape:window-width="1326"
     inkscape:window-height="688"
     inkscape:window-x="3"
     inkscape:window-y="339"
     inkscape:window-maximized="0"
     inkscape:current-layer="layer1" />
  <defs
     id="defs28284">
    <linearGradient
       id="linearGradient27962">
      <stop
         id="stop27954"
         style="stop-color:#ffffff;stop-opacity:1"
         offset="0" />
      <stop
         id="stop27956"
         style="stop-color:#ffffff;stop-opacity:0.23529412"
         offset="0.507761" />
      <stop
         id="stop27958"
         style="stop-color:#ffffff;stop-opacity:0.15686275"
         offset="0.83456558" />
      <stop
         id="stop27960"
         style="stop-color:#ffffff;stop-opacity:0.44999999;"
         offset="1" />
    </linearGradient>
    <linearGradient
       inkscape:collect="always"
       id="linearGradient27878">
      <stop
         style="stop-color:#002e99;stop-opacity:0.5;"
         offset="0"
         id="stop27874" />
      <stop
         style="stop-color:#002e99;stop-opacity:0.60000002;"
         offset="1"
         id="stop27876" />
    </linearGradient>
    <linearGradient
       inkscape:collect="always"
       id="linearGradient14470">
      <stop
         style="stop-color:#fafafa;stop-opacity:1"
         offset="0"
         id="stop14466" />
      <stop
         style="stop-color:#d4d4d4;stop-opacity:1"
         offset="1"
         id="stop14468" />
    </linearGradient>
    <linearGradient
       id="linearGradient4011">
      <stop
         id="stop4013"
         style="stop-color:#ffffff;stop-opacity:1"
         offset="0" />
      <stop
         id="stop4015-3"
         style="stop-color:#ffffff;stop-opacity:0.23529412"
         offset="0.507761" />
      <stop
         id="stop4017-2"
         style="stop-color:#ffffff;stop-opacity:0.15686275"
         offset="0.83456558" />
      <stop
         id="stop4019"
         style="stop-color:#ffffff;stop-opacity:0.39215687"
         offset="1" />
    </linearGradient>
    <linearGradient
       gradientTransform="matrix(0.56756796,0,0,0.56756779,8.7863418,35.608056)"
       gradientUnits="userSpaceOnUse"
       xlink:href="#linearGradient4011"
       id="linearGradient12398-3-3"
       y2="44.340794"
       x2="71.204407"
       y1="6.2375584"
       x1="71.204407" />
    <linearGradient
       inkscape:collect="always"
       xlink:href="#linearGradient14470"
       id="linearGradient14016"
       gradientUnits="userSpaceOnUse"
       gradientTransform="matrix(1.2445066,0,0,1.2445063,77.874146,21.615722)"
       x1="-26.447308"
       y1="12.065456"
       x2="-26.447308"
       y2="35.164295" />
    <linearGradient
       gradientTransform="matrix(1.3243244,0,0,1.3243246,-63.998448,-3.5812207)"
       gradientUnits="userSpaceOnUse"
       xlink:href="#linearGradient27962"
       id="linearGradient3019"
       y2="44.340794"
       x2="71.204407"
       y1="6.2375584"
       x1="71.204407" />
    <linearGradient
       inkscape:collect="always"
       xlink:href="#linearGradient1499"
       id="linearGradient1461"
       x1="21.373114"
       y1="2.9713831"
       x2="21.373114"
       y2="48.874634"
       gradientUnits="userSpaceOnUse"
       gradientTransform="matrix(1.2439023,0,0,1.2439024,26.615622,10.726827)" />
    <linearGradient
       inkscape:collect="always"
       id="linearGradient1499">
      <stop
         style="stop-color:#0066ff;stop-opacity:1;"
         offset="0"
         id="stop1497" />
      <stop
         style="stop-color:#0047b2;stop-opacity:1;"
         offset="1"
         id="stop1495" />
    </linearGradient>
    <linearGradient
       inkscape:collect="always"
       xlink:href="#linearGradient27878"
       id="linearGradient27880"
       x1="20.000648"
       y1="0.89390171"
       x2="20.000648"
       y2="41.106098"
       gradientUnits="userSpaceOnUse"
       gradientTransform="matrix(1.2439026,0,0,1.2439025,1.1463387,3.8780444)" />
  </defs>
  <g
     inkscape:label="Layer 1"
     inkscape:groupmode="layer"
     id="layer1">
    <circle
       style="font-variation-settings:normal;opacity:1;vector-effect:none;fill:url(#linearGradient1461);fill-opacity:1;fill-rule:evenodd;stroke:none;stroke-width:2;stroke-linecap:round;stroke-linejoin:miter;stroke-miterlimit:4;stroke-dasharray:none;stroke-dashoffset:0;stroke-opacity:0.501961;-inkscape-stroke:none;stop-color:#000000;stop-opacity:1"
       id="path320"
       cx="30.999994"
       cy="29.99999"
       r="25.5" />
    <ellipse
       style="font-variation-settings:normal;opacity:1;vector-effect:none;fill:none;fill-opacity:1;fill-rule:evenodd;stroke:url(#linearGradient27880);stroke-width:0.99999;stroke-linecap:round;stroke-linejoin:round;stroke-miterlimit:3.42857;stroke-dasharray:none;stroke-dashoffset:0;stroke-opacity:1;-inkscape-stroke:none;stop-color:#000000;stop-opacity:1"
       id="circle13890"
       cx="30.999998"
       cy="29.999994"
       rx="25.500004"
       ry="25.5" />
    <path
       id="path20812"
       d="m 37.705937,23.849666 c -0.02532,0.618426 0.0973,1.95195 0.865094,2.054678 0.915318,0.11416 1.209126,-0.681236 1.308902,-1.302902 0.31753,-1.97854 0.405766,-2.569942 0.564428,-4.362682 0.187,-2.112904 0.678706,-5.67708 -0.18074,-5.34473 -0.870736,0.336712 -1.562362,3.183622 -1.788916,4.37672 -0.1765,0.929464 -0.725272,3.516992 -0.768762,4.578916 z"
       style="fill:#000000;fill-opacity:0.5;stroke:none;stroke-width:1.50002" />
    <path
       id="path20810"
       d="m 25.860754,19.360559 c -0.33933,1.777452 0.1483,3.812026 0.829972,6.272266 0.04116,0.14842 -0.03858,0.338368 -0.11064,0.360502 -0.309506,0.09508 -0.840176,-0.0062 -0.942886,-0.228686 -0.531164,-1.151122 -0.783756,-2.328294 -1.404248,-3.461524 -0.42919,-0.783854 -0.87317,-1.531782 -1.402014,-2.037516 -0.642364,-0.614304 -1.145734,-0.735026 -1.83305,-0.431944 -0.86705,0.38233 -1.390862,1.299004 -1.57053,2.121002 -0.18232,0.834182 -0.10604,1.797142 0.0366,2.632804 0.1679,0.983546 0.381504,1.759712 0.656046,2.680076 -0.209466,0.653664 -1.470124,4.241216 -1.774906,6.728324 -0.391266,3.19277 -1.491624,12.853222 8.593868,11.779172 3.71993,-0.396152 6.751184,-1.772116 9.619718,-3.183844 1.314516,-0.646924 2.963556,-1.481516 4.548812,-2.400496 1.58602,-0.91942 3.057378,-1.899398 4.18197,-2.942546 1.12641,-1.044844 1.946906,-2.189392 1.79751,-3.329724 -0.24076,-1.837692 -1.395484,-3.20384 -2.934722,-4.258944 -1.544968,-1.059022 -4.18303,-2.043108 -6.089662,-2.631062 -2.501714,-0.771448 -4.438438,-1.07131 -6.786406,-1.20615 -0.13148,-2.510686 0.1856,-5.814576 -1.320654,-7.7393 -0.34885,-0.445766 -0.857398,-0.729166 -1.467358,-0.774354 -0.980246,0.04166 -2.312454,0.401972 -2.627444,2.051944 z"
       style="fill:#0044aa;fill-opacity:0.6;stroke:none;stroke-width:1.50002" />
    <path
       style="fill:#000000;fill-opacity:0.5;stroke:none;stroke-width:1.50002"
       d="m 41.715377,24.298099 c -0.501406,1.235174 -0.738568,2.30215 -0.04564,2.66461 0.825834,0.431982 1.539592,-0.404434 1.771852,-0.985342 0.700408,-1.751828 1.088128,-2.812438 1.628496,-4.137388 0.794966,-1.949198 2.779126,-5.693484 1.469628,-5.494912 -0.917932,0.13922 -2.152616,2.600088 -2.744894,3.644072 -0.763648,1.340874 -1.357306,2.53 -2.079444,4.30896 z"
       id="path20814" />
    <path
       id="path12949"
       d="m 26.2289,18.895284 c -0.320778,1.593194 0.14018,3.416854 0.784602,5.62205 0.03892,0.13302 -0.03648,0.303292 -0.1046,0.32313 -0.29259,0.08522 -0.79425,-0.0056 -0.891344,-0.204978 -0.50213,-1.03179 -0.740914,-2.08693 -1.327486,-3.102684 -0.405726,-0.702594 -0.825434,-1.372988 -1.325368,-1.826296 -0.60725,-0.550622 -1.083102,-0.65883 -1.732846,-0.387166 -0.819648,0.342694 -1.314826,1.164342 -1.484674,1.901128 -0.17236,0.747704 -0.10024,1.610842 0.03462,2.359874 0.15874,0.881584 0.360648,1.57729 0.62018,2.402244 -0.19802,0.5859 -1.389756,3.801546 -1.677876,6.030828 -0.369878,2.86179 -1.41008,11.520788 8.12407,10.55808 3.51657,-0.355086 6.382118,-1.588412 9.093836,-2.85379 1.242658,-0.579862 2.80155,-1.327932 4.300144,-2.151648 1.49932,-0.824108 2.890244,-1.702494 3.953356,-2.637506 1.064834,-0.936528 1.840476,-1.962428 1.699248,-2.984544 -0.227592,-1.64719 -1.31919,-2.871714 -2.774284,-3.81744 -1.460508,-0.949238 -3.954356,-1.83131 -5.75676,-2.35831 C 35.398764,25.076778 33.567916,24.808 31.3483,24.687142 31.224,22.436726 31.52376,19.475334 30.099844,17.750136 29.770066,17.35058 29.289316,17.09656 28.712702,17.056056 c -0.92666,0.03734 -2.186038,0.360302 -2.48381,1.839228 z"
       style="fill:#ffffff;fill-opacity:1;stroke:none;stroke-width:1.50002" />
    <path
       id="path12953"
       d="m 37.426545,22.919031 c -0.02392,0.554316 0.09196,1.749598 0.817802,1.841678 0.86528,0.10232 1.143028,-0.610618 1.237348,-1.167838 0.300176,-1.773434 0.383584,-2.303528 0.533574,-3.910424 0.17678,-1.893866 0.641604,-5.088564 -0.17086,-4.790666 -0.82314,0.301806 -1.476954,2.85359 -1.691122,3.923006 -0.16684,0.833112 -0.685624,3.1524 -0.726738,4.104244 z"
       style="fill:#ffffff;fill-opacity:1;stroke:none;stroke-width:1.50002" />
    <path
       style="fill:#ffffff;fill-opacity:1;stroke:none;stroke-width:1.50002"
       d="m 41.216803,23.320977 c -0.473994,1.107126 -0.69819,2.063492 -0.04312,2.38838 0.780682,0.3872 1.455422,-0.362506 1.674986,-0.883196 0.66212,-1.570226 1.028642,-2.520886 1.539472,-3.708488 0.751508,-1.74713 2.6272,-5.103264 1.389288,-4.925276 -0.86775,0.12478 -2.034938,2.33055 -2.59484,3.26631 -0.721902,1.201868 -1.283106,2.267726 -1.965766,3.86227 z"
       id="path12955" />
    <path
       style="color:#000000;display:inline;overflow:visible;visibility:visible;opacity:0.3;fill:none;stroke:url(#linearGradient3019);stroke-width:0.999998;stroke-linecap:round;stroke-linejoin:round;stroke-miterlimit:4;stroke-dasharray:none;stroke-dashoffset:0;stroke-opacity:1;marker:none;enable-background:accumulate"
       id="path8655"
       d="m 55.499998,29.999128 c 0,13.531418 -10.969833,24.500873 -24.499691,24.500873 -13.531098,0 -24.5003132,-10.969579 -24.5003132,-24.500873 0,-13.53079 10.9692152,-24.4991373 24.5003132,-24.4991373 13.529858,0 24.499691,10.9683473 24.499691,24.4991373 z" />
    <path
       style="color:#000000;font-variation-settings:normal;display:inline;overflow:visible;visibility:visible;opacity:1;vector-effect:none;fill:url(#linearGradient14016);fill-opacity:1;fill-rule:nonzero;stroke:#002e99;stroke-width:0.999997;stroke-linecap:round;stroke-linejoin:round;stroke-miterlimit:3.42857;stroke-dasharray:none;stroke-dashoffset:0;stroke-opacity:0.5;-inkscape-stroke:none;marker:none;enable-background:accumulate;stop-color:#000000;stop-opacity:1"
       id="path2555-7-8-5-0-9"
       d="m 49.499998,38.5 c -6.345305,0 -11.499999,5.154693 -11.499999,11.499996 0,6.345306 5.154694,11.5 11.499999,11.5 6.345307,0 11.500013,-5.154694 11.500001,-11.5 C 60.999999,43.654693 55.845305,38.5 49.499998,38.5 Z" />
    <path
       style="color:#000000;display:inline;overflow:visible;visibility:visible;opacity:0.5;fill:none;stroke:url(#linearGradient12398-3-3);stroke-width:0.999995;stroke-linecap:round;stroke-linejoin:round;stroke-miterlimit:4;stroke-dasharray:none;stroke-dashoffset:0;stroke-opacity:1;marker:none;enable-background:accumulate"
       id="path8655-6-0-9-5-0"
       d="m 60.000002,49.999627 c 0,5.799186 -4.701364,10.50038 -10.499876,10.50038 -5.799045,0 -10.50013,-4.70125 -10.50013,-10.50038 0,-5.79891 4.701085,-10.49963 10.50013,-10.49963 5.798512,0 10.499876,4.70072 10.499876,10.49963 z" />
    <path
       id="path32058"
       style="font-variation-settings:normal;vector-effect:none;fill:#ffffff;fill-opacity:1;stroke:none;stroke-width:1;stroke-linecap:butt;stroke-linejoin:miter;stroke-miterlimit:4;stroke-dasharray:none;stroke-dashoffset:0;stroke-opacity:1;-inkscape-stroke:none;marker:none;stop-color:#000000"
       d="m 55.603415,52.469891 c 0,-0.538824 -0.32809,-0.972606 -0.834515,-0.972606 h -2.768837 v -6.524601 c 0,-0.538825 -0.407699,-0.972606 -0.914127,-0.972606 h -3.171873 c -0.506426,0 -0.914625,0.433781 -0.914126,0.972606 v 6.524601 h -2.665426 c -0.506424,0 -0.914124,0.433782 -0.914124,0.972606 0,0.290405 0.118626,0.54964 0.307087,0.727557 L 48.773,58.634026 c 0.163721,0.164453 0.484079,0.26595 0.727,0.26595 0.24292,0 0.563284,-0.101493 0.727,-0.26595 l 5.069324,-5.436578 c 0.188484,-0.177909 0.307091,-0.437152 0.307091,-0.727557 z"
       sodipodi:nodetypes="sscsssccssccsccs" />
    <path
       id="path873-5"
       style="font-variation-settings:normal;vector-effect:none;fill:#1366df;fill-opacity:1;stroke:none;stroke-width:1;stroke-linecap:butt;stroke-linejoin:miter;stroke-miterlimit:4;stroke-dasharray:none;stroke-dashoffset:0;stroke-opacity:1;-inkscape-stroke:none;marker:none;stop-color:#000000"
       d="m 55,51.87751 c 0,-0.486144 -0.368112,-0.877516 -0.825362,-0.877516 H 44.825359 C 44.368111,50.999994 44,51.391366 44,51.87751 c 0,0.26201 0.107106,0.4959 0.277268,0.656421 l 4.646163,4.995347 c 0.147823,0.148381 0.346492,0.239947 0.565825,0.239947 0.21933,0 0.418005,-0.09157 0.565823,-0.239947 l 4.66765,-4.995347 C 54.892911,52.373415 55,52.13952 55,51.87751 Z"
       sodipodi:nodetypes="sccsccsccs" />
    <rect
       style="font-variation-settings:normal;opacity:1;vector-effect:none;fill:#1366df;fill-opacity:1;stroke:none;stroke-width:0.999996;stroke-linecap:butt;stroke-linejoin:miter;stroke-miterlimit:4;stroke-dasharray:none;stroke-dashoffset:0;stroke-opacity:1;-inkscape-stroke:none;marker:none;stop-color:#000000;stop-opacity:1"
       id="rect1116"
       width="3"
       height="8"
       x="47.999996"
       y="44"
       rx="0.75"
       ry="0.66666663" />
  </g>
</svg>
