<?xml version="1.0" encoding="UTF-8" standalone="no"?>
<svg
   version="1.1"
   width="64"
   height="64"
   id="svg3554"
   sodipodi:docname="ubiquity.svg"
   inkscape:version="1.2.2 (b0a8486541, 2022-12-01)"
   xmlns:inkscape="http://www.inkscape.org/namespaces/inkscape"
   xmlns:sodipodi="http://sodipodi.sourceforge.net/DTD/sodipodi-0.dtd"
   xmlns:xlink="http://www.w3.org/1999/xlink"
   xmlns="http://www.w3.org/2000/svg"
   xmlns:svg="http://www.w3.org/2000/svg"
   xmlns:rdf="http://www.w3.org/1999/02/22-rdf-syntax-ns#"
   xmlns:cc="http://creativecommons.org/ns#"
   xmlns:dc="http://purl.org/dc/elements/1.1/">
  <sodipodi:namedview
     id="namedview90"
     pagecolor="#ffffff"
     bordercolor="#666666"
     borderopacity="1.0"
     inkscape:pageshadow="2"
     inkscape:pageopacity="0.0"
     inkscape:pagecheckerboard="0"
     showgrid="false"
     inkscape:zoom="22.125001"
     inkscape:cx="50.463275"
     inkscape:cy="47.050845"
     inkscape:window-width="1317"
     inkscape:window-height="893"
     inkscape:window-x="561"
     inkscape:window-y="84"
     inkscape:window-maximized="0"
     inkscape:current-layer="svg3554"
     inkscape:showpageshadow="2"
     inkscape:deskcolor="#d1d1d1" />
  <defs
     id="defs3556">
    <linearGradient
       id="linearGradient4011-7">
      <stop
         id="stop4013-1"
         style="stop-color:#ffffff;stop-opacity:1"
         offset="0" />
      <stop
         id="stop4015-0"
         style="stop-color:#ffffff;stop-opacity:0.23529412"
         offset="0.507761" />
      <stop
         id="stop4017-1"
         style="stop-color:#ffffff;stop-opacity:0.15686275"
         offset="0.83456558" />
      <stop
         id="stop4019-5"
         style="stop-color:#ffffff;stop-opacity:0.39215687"
         offset="1" />
    </linearGradient>
    <linearGradient
       xlink:href="#linearGradient3742"
       id="linearGradient3730"
       gradientUnits="userSpaceOnUse"
       gradientTransform="matrix(0.81791996,0,0,1.4890166,-62.315479,0.65699801)"
       x1="118.57409"
       y1="3.7037382"
       x2="118.57409"
       y2="31.67935" />
    <linearGradient
       id="linearGradient3742">
      <stop
         offset="0"
         style="stop-color:#ffffff;stop-opacity:1"
         id="stop3734" />
      <stop
         offset="0.01900466"
         style="stop-color:#ffffff;stop-opacity:0.23529412"
         id="stop3736" />
      <stop
         offset="0.9812181"
         style="stop-color:#ffffff;stop-opacity:0.15686275"
         id="stop3738" />
      <stop
         offset="1"
         style="stop-color:#ffffff;stop-opacity:0.39215687"
         id="stop3740" />
    </linearGradient>
    <linearGradient
       gradientTransform="matrix(1.2289726,0,0,1.0632918,15.850178,-0.19950599)"
       gradientUnits="userSpaceOnUse"
       xlink:href="#linearGradient3600-8"
       id="linearGradient5466-8-3"
       y2="45.68882"
       x2="11.098394"
       y1="5.9702148"
       x1="11.098394" />
    <linearGradient
       id="linearGradient3600-8">
      <stop
         offset="0"
         style="stop-color:#f4f4f4;stop-opacity:1"
         id="stop3602-2" />
      <stop
         offset="1"
         style="stop-color:#dbdbdb;stop-opacity:1"
         id="stop3604-5" />
    </linearGradient>
    <linearGradient
       xlink:href="#linearGradient4614"
       id="linearGradient4604"
       gradientUnits="userSpaceOnUse"
       gradientTransform="matrix(0.81288992,0,0,1.4490643,-61.784659,-4.059263)"
       x1="116.7913"
       y1="-37.80846"
       x2="116.7913"
       y2="-26.979191" />
    <linearGradient
       id="linearGradient4614">
      <stop
         id="stop4606"
         style="stop-color:#ffffff;stop-opacity:1"
         offset="0" />
      <stop
         id="stop4608"
         style="stop-color:#ffffff;stop-opacity:0.23529412"
         offset="0" />
      <stop
         id="stop4610"
         style="stop-color:#ffffff;stop-opacity:0.15686275"
         offset="0.9812181" />
      <stop
         id="stop4612"
         style="stop-color:#ffffff;stop-opacity:0.39215687"
         offset="1" />
    </linearGradient>
    <linearGradient
       gradientTransform="matrix(1.2666667,0,0,1.2666667,-6.4000376,-4.133335)"
       xlink:href="#linearGradient7056"
       id="linearGradient4763"
       x1="25"
       y1="-35"
       x2="25"
       y2="-44.395805"
       gradientUnits="userSpaceOnUse" />
    <linearGradient
       id="linearGradient7056">
      <stop
         offset="0"
         style="stop-color:#e6e6e6;stop-opacity:1"
         id="stop7064" />
      <stop
         offset="1"
         style="stop-color:#c8c8c8;stop-opacity:1"
         id="stop7060" />
    </linearGradient>
    <radialGradient
       id="radialGradient7374"
       gradientUnits="userSpaceOnUse"
       cy="41.636002"
       cx="23.334999"
       gradientTransform="matrix(0.61871386,0,0,0.14061988,10.562732,53.961715)"
       r="22.627001">
      <stop
         id="stop23421-3"
         offset="0" />
      <stop
         id="stop23423-6"
         style="stop-opacity:0"
         offset="1" />
    </radialGradient>
    <linearGradient
       gradientTransform="matrix(1.1113758,0,0,0.83086019,-2219.8941,-2631.1586)"
       gradientUnits="userSpaceOnUse"
       xlink:href="#linearGradient947-5"
       id="linearGradient11527-6-5"
       y2="3241.9966"
       x2="2035.1652"
       y1="3208.0737"
       x1="2035.1652" />
    <linearGradient
       id="linearGradient947-5">
      <stop
         offset="0"
         style="stop-color:#64baff;stop-opacity:1"
         id="stop943-6" />
      <stop
         offset="1"
         style="stop-color:#3689e6;stop-opacity:1"
         id="stop945-2" />
    </linearGradient>
    <linearGradient
       gradientTransform="matrix(0.7297302,0,0,0.72973015,-6.3461236,29.496071)"
       gradientUnits="userSpaceOnUse"
       xlink:href="#linearGradient4011-7"
       id="linearGradient12398-3"
       y2="44.340794"
       x2="71.204407"
       y1="6.2375584"
       x1="71.204407" />
    <radialGradient
       xlink:href="#linearGradient3820-7-2-2"
       id="radialGradient4048"
       gradientUnits="userSpaceOnUse"
       gradientTransform="matrix(0.2071082,0,0,0.06370284,25.463768,48.140408)"
       cx="99.157013"
       cy="186.17059"
       fx="99.157013"
       fy="186.17059"
       r="62.769119" />
    <linearGradient
       id="linearGradient3820-7-2-2">
      <stop
         id="stop3822-2-6-36"
         style="stop-color:#3d3d3d;stop-opacity:1"
         offset="0" />
      <stop
         id="stop3864-8-7-6"
         style="stop-color:#686868;stop-opacity:0.49803922"
         offset="0.5" />
      <stop
         id="stop3824-1-2-4"
         style="stop-color:#686868;stop-opacity:0"
         offset="1" />
    </linearGradient>
  </defs>
  <metadata
     id="metadata3559">
    <rdf:RDF>
      <cc:Work
         rdf:about="">
        <dc:format>image/svg+xml</dc:format>
        <dc:type
           rdf:resource="http://purl.org/dc/dcmitype/StillImage" />
      </cc:Work>
    </rdf:RDF>
  </metadata>
  <path
     id="path23417"
     style="opacity:0.3;fill:url(#radialGradient7374);fill-rule:evenodd;stroke-width:1"
     d="m 38.999961,59.816785 a 14.000001,3.1818183 0 1 1 -28,0 14.000001,3.1818183 0 1 1 28,0 z" />
  <rect
     id="rect3448"
     style="fill:url(#linearGradient4763);fill-opacity:1;stroke:#000000;stroke-width:1;stroke-opacity:0.293023"
     transform="scale(1,-1)"
     rx="1.0000001"
     ry="1.0000001"
     height="19"
     width="19"
     y="-60.500004"
     x="14.499962" />
  <path
     style="opacity:0.1;fill:none;fill-rule:evenodd;stroke:#000000;stroke-width:3;stroke-linecap:butt;stroke-linejoin:miter;stroke-miterlimit:4;stroke-dasharray:none;stroke-opacity:1"
     d="m 14.999961,49.500001 h 18"
     id="path4538" />
  <path
     style="opacity:0.35;fill:#000000;fill-opacity:0.335988;stroke:#000000;stroke-width:1;stroke-linecap:butt;stroke-linejoin:round;stroke-miterlimit:4;stroke-dasharray:none;stroke-dashoffset:0;stroke-opacity:0.674419"
     d="m 17.499961,53.500001 v 4 h 4 v -4 z m 9,0 v 4 h 4 v -4 z"
     id="rect3450" />
  <rect
     id="rect3458"
     style="opacity:0.4;fill:none;fill-opacity:1;stroke:url(#linearGradient4604);stroke-width:1;stroke-linecap:round;stroke-linejoin:round;stroke-miterlimit:4;stroke-dasharray:none;stroke-dashoffset:0;stroke-opacity:1;marker:none"
     transform="scale(1,-1)"
     height="17"
     width="17"
     y="-59.5"
     x="15.499962" />
  <rect
     ry="2.5"
     id="rect5391"
     style="fill:url(#linearGradient5466-8-3);fill-opacity:1;stroke:none;stroke-width:0.999922;stroke-linecap:butt;stroke-linejoin:round;stroke-miterlimit:4;stroke-dasharray:none;stroke-dashoffset:0;stroke-opacity:1;marker:none"
     rx="2.5"
     height="44"
     width="26"
     y="5.000001"
     x="10.999961" />
  <rect
     ry="3"
     id="rect5391-2"
     style="opacity:0.3;fill:none;fill-opacity:1;stroke:#000000;stroke-width:0.999922;stroke-linecap:butt;stroke-linejoin:round;stroke-miterlimit:4;stroke-dasharray:none;stroke-dashoffset:0;stroke-opacity:1;marker:none"
     rx="3"
     height="45.000076"
     width="27.000078"
     y="4.4999609"
     x="10.499961" />
  <rect
     rx="2.0000002"
     id="rect5391-2-0"
     style="fill:none;fill-opacity:1;stroke:url(#linearGradient3730);stroke-width:1;stroke-linecap:round;stroke-linejoin:round;stroke-miterlimit:4;stroke-dasharray:none;stroke-dashoffset:0;stroke-opacity:1;marker:none"
     ry="2"
     height="43"
     width="25"
     y="5.500001"
     x="11.499961" />
  <path
     d="m 20.961894,41.867924 c 0,-1.858009 0.617533,-2.340038 1.373958,-2.988756 0.607264,-0.293144 0.704295,-0.493272 0.69631,-1.436051 -0.0087,-1.041847 -0.108537,-0.922837 -2.039534,-2.599089 -2.94832,-2.559235 -3.344823,-3.176389 -3.691,-5.744497 -0.255356,-1.894081 -0.07625,-1.47736 -0.809268,-2.205931 -1.349202,-1.340969 -1.118049,-3.307588 0.488095,-4.152812 1.446931,-0.761414 3.160971,0.04841 3.689545,1.743247 0.26052,0.83529 -0.364053,2.277785 -1.202717,2.777705 -0.767465,0.45752 -1.08586,-0.305261 -0.910357,1.38123 0.09713,0.933427 0.333842,2.006953 0.526014,2.385565 0.330046,0.650231 3.561984,3.711218 3.913542,3.711218 l 0.0035,-17.739752 h -1.791537 c 0.829079,-1.43707 1.63634,-3.425076 2.439237,-4.871745 l 2.556617,4.872327 h -1.741356 l -0.0035,13.904202 c 0.242192,0 2.616688,-2.409856 3.415658,-3.494785 0.345217,-0.468764 0.304712,-1.635494 0.304712,-2.263572 0,-0.947244 0.312374,-1.146427 -0.410117,-1.146427 h -0.769714 v -5 h 5 v 5 h -1.343763 c -0.629576,0.07372 -1.079562,0.833238 -1.198411,1.883564 -0.177248,1.566377 -0.598118,2.656935 -3.067042,5.145625 l -1.931317,2.082733 v 5.427381 l 0.570726,0.340621 c 0.388082,0.187343 0.922547,0.792701 1.187706,1.345245 0.943986,1.97088 -0.369449,4.088667 -2.535235,4.088667 -1.569431,-0.05818 -2.721414,-0.863987 -2.721414,-2.4436 z"
     style="opacity:0.2;fill:#ffffff;fill-opacity:1;stroke-width:1"
     id="path4540" />
  <path
     id="path3690"
     style="opacity:0.95;fill:#aaaaaa;stroke-width:1"
     d="m 20.961894,40.867924 c 0,-1.858009 0.617533,-2.340038 1.373958,-2.988756 0.607264,-0.293144 0.704295,-0.493272 0.69631,-1.436051 -0.0087,-1.041847 -0.108537,-0.922837 -2.039534,-2.599089 -2.94832,-2.559235 -3.344823,-3.176389 -3.691,-5.744497 -0.255356,-1.894081 -0.07625,-1.47736 -0.809268,-2.205931 -1.349202,-1.340969 -1.118049,-3.307588 0.488095,-4.152812 1.446931,-0.761414 3.160971,0.04841 3.689545,1.743247 0.26052,0.83529 -0.364053,2.277785 -1.202717,2.777705 -0.767465,0.45752 -1.08586,-0.305261 -0.910357,1.38123 0.09713,0.933427 0.333842,2.006953 0.526014,2.385565 0.330046,0.650231 3.561984,3.711218 3.913542,3.711218 l 0.0035,-17.739752 H 20.5 L 23.65,11 27,16.000583 h -2.537057 l -0.0035,13.904202 c 0.242192,0 2.616688,-2.409856 3.415658,-3.494785 0.345217,-0.468764 0.304712,-1.635494 0.304712,-2.263572 0,-0.947244 0.312374,-1.146427 -0.410117,-1.146427 h -0.769714 v -5 h 5 v 5 h -1.343763 c -0.629576,0.07372 -1.079562,0.833238 -1.198411,1.883564 -0.177248,1.566377 -0.598118,2.656935 -3.067042,5.145625 l -1.931317,2.082733 v 5.427381 l 0.570726,0.340621 c 0.388082,0.187343 0.922547,0.792701 1.187706,1.345245 0.943986,1.97088 -0.369449,4.088667 -2.535235,4.088667 -1.569431,-0.05818 -2.721414,-0.863987 -2.721414,-2.4436 z"
     sodipodi:nodetypes="cccccccccsccccccccssscccccscccccccc" />
  <path
     d="M 58.999998,60 A 13,3.9985694 0 1 1 33,60 13,3.9985694 0 1 1 58.999998,60 Z"
     id="path3818-0-2"
     style="fill:url(#radialGradient4048);fill-opacity:1;stroke:none;stroke-width:0.999998" />
  <path
     style="color:#000000;display:inline;overflow:visible;visibility:visible;opacity:0.99;fill:url(#linearGradient11527-6-5);fill-opacity:1;fill-rule:nonzero;stroke:none;stroke-width:0.999995;marker:none;enable-background:accumulate"
     id="path2555-7-8-5-0-9"
     d="m 45.999998,33.499999 c -8.000602,0 -14.499999,6.499397 -14.499999,14.499999 0,8.000602 6.499397,14.499999 14.499999,14.499999 8.000604,0 14.500014,-6.499397 14.500001,-14.499999 0,-8.000602 -6.499397,-14.499999 -14.500001,-14.499999 z" />
  <path
     style="color:#000000;display:inline;overflow:visible;visibility:visible;opacity:0.5;fill:none;stroke:url(#linearGradient12398-3);stroke-width:0.999996;stroke-linecap:round;stroke-linejoin:round;stroke-miterlimit:4;stroke-dasharray:none;stroke-dashoffset:0;stroke-opacity:1;marker:none;enable-background:accumulate"
     id="path8655-6-0-9-5-0"
     d="m 59.500001,47.999521 c 0,7.456096 -6.044609,13.500492 -13.499838,13.500492 -7.455916,0 -13.500166,-6.044465 -13.500166,-13.500492 0,-7.455742 6.04425,-13.499524 13.500166,-13.499524 7.455229,0 13.499838,6.043782 13.499838,13.499524 z" />
  <path
     style="color:#000000;clip-rule:nonzero;display:inline;overflow:visible;visibility:visible;opacity:0.5;isolation:auto;mix-blend-mode:normal;color-interpolation:sRGB;color-interpolation-filters:linearRGB;solid-color:#000000;solid-opacity:1;vector-effect:none;fill:none;fill-opacity:1;fill-rule:nonzero;stroke:#002e99;stroke-width:1;stroke-linecap:round;stroke-linejoin:round;stroke-miterlimit:4;stroke-dasharray:none;stroke-dashoffset:0;stroke-opacity:1;marker:none;color-rendering:auto;image-rendering:auto;shape-rendering:auto;text-rendering:auto;enable-background:accumulate"
     id="path2555-4"
     d="M 46.000001,33.5 C 37.999403,33.5 31.5,39.9994 31.5,47.999999 c 0,8.000598 6.499403,14.5 14.500001,14.499998 8.000596,0 14.500006,-6.4994 14.499999,-14.499998 C 60.5,39.9994 54.000597,33.5 46.000001,33.5 Z" />
  <path
     style="color:#000000;opacity:0.05;fill:#002e99;-inkscape-stroke:none"
     d="m 45.25,40.006723 c -1.384327,4e-4 -2.399302,1.423752 -2.25,2.739051 v 5.760952 c -0.918955,0.01999 -1.842804,-0.0438 -2.757976,0.03938 -1.478707,0.212047 -2.434923,1.947978 -1.804975,3.306092 0.377392,0.775707 1.107127,1.28878 1.66791,1.926276 1.446306,1.465129 2.863386,2.960763 4.328052,4.40661 1.046927,0.904166 2.760933,0.688824 3.603334,-0.388883 1.718807,-1.791271 3.444464,-3.576533 5.158996,-5.371555 0.978942,-1.099998 0.614607,-3.044809 -0.753709,-3.64699 -0.904146,-0.432356 -1.922714,-0.219882 -2.888535,-0.270929 -0.299858,0.002 -0.693899,0.09815 -0.552999,-0.34062 -0.01006,-2.001199 0.0202,-4.003943 -0.01527,-6.004169 -0.06538,-1.218307 -1.181387,-2.255564 -2.411791,-2.155215 z"
     id="path9255"
     sodipodi:nodetypes="cscccccscccsssc" />
  <path
     style="opacity:0.15;vector-effect:none;fill:#002e99;fill-opacity:1;stroke:none;stroke-width:0.999994;stroke-linecap:butt;stroke-linejoin:miter;stroke-miterlimit:4;stroke-dasharray:none;stroke-dashoffset:0;stroke-opacity:1;marker:none;paint-order:normal"
     d="m 46.034838,57.749919 c 0.394214,0 0.788421,-0.15228 1.085239,-0.449674 l 5.30423,-5.518915 c 0.668506,-0.811424 0.30844,-2.241748 -1.085237,-2.281248 H 47.999958 V 42.403846 C 47.970318,41.640784 47.536415,41.028838 46.749902,41 h -1.500165 c -0.681367,0 -1.243371,0.72746 -1.250057,1.403846 l 3.08e-4,7.096236 H 40.64295 c -1.305768,0.03874 -1.753745,1.469824 -1.085237,2.281248 l 5.391888,5.518915 c 0.296801,0.297384 0.691029,0.449674 1.085237,0.449674 z"
     id="path8890"
     sodipodi:nodetypes="sccccccscccccs" />
  <path
     style="opacity:1;vector-effect:none;fill:#ffffff;fill-opacity:1;stroke:none;stroke-width:0.999994;stroke-linecap:butt;stroke-linejoin:miter;stroke-miterlimit:4;stroke-dasharray:none;stroke-dashoffset:0;stroke-opacity:1;marker:none;paint-order:normal"
     d="m 46.034838,56.24976 c 0.394214,0 0.788421,-0.15228 1.085239,-0.449674 l 5.30423,-5.518915 c 0.668506,-0.811424 0.30844,-2.241748 -1.085237,-2.281248 H 47.999958 V 41.403846 C 47.970318,40.640784 47.536415,40.028838 46.749902,40 h -1.500165 c -0.681367,0 -1.243371,0.72746 -1.250057,1.403846 l 3.08e-4,6.596077 H 40.64295 c -1.305768,0.03874 -1.753745,1.469824 -1.085237,2.281248 l 5.391888,5.518915 c 0.296801,0.297384 0.691029,0.449674 1.085237,0.449674 z"
     id="path818-7"
     sodipodi:nodetypes="sccccccscccccs" />
</svg>
