<?xml version="1.0" encoding="UTF-8" standalone="no"?>
<svg
   version="1.0"
   width="64"
   height="64"
   id="svg2485"
   viewBox="0 0 64 64"
   sodipodi:docname="xfce4-battery-plugin.svg"
   inkscape:version="1.2.2 (b0a8486541, 2022-12-01)"
   xmlns:inkscape="http://www.inkscape.org/namespaces/inkscape"
   xmlns:sodipodi="http://sodipodi.sourceforge.net/DTD/sodipodi-0.dtd"
   xmlns:xlink="http://www.w3.org/1999/xlink"
   xmlns="http://www.w3.org/2000/svg"
   xmlns:svg="http://www.w3.org/2000/svg"
   xmlns:rdf="http://www.w3.org/1999/02/22-rdf-syntax-ns#"
   xmlns:cc="http://creativecommons.org/ns#"
   xmlns:dc="http://purl.org/dc/elements/1.1/">
  <sodipodi:namedview
     id="namedview58"
     pagecolor="#ffffff"
     bordercolor="#000000"
     borderopacity="0.25"
     inkscape:showpageshadow="2"
     inkscape:pageopacity="0.0"
     inkscape:pagecheckerboard="0"
     inkscape:deskcolor="#d1d1d1"
     showgrid="false"
     inkscape:zoom="9.1702911"
     inkscape:cx="18.592649"
     inkscape:cy="26.607661"
     inkscape:window-width="1278"
     inkscape:window-height="1005"
     inkscape:window-x="347"
     inkscape:window-y="20"
     inkscape:window-maximized="0"
     inkscape:current-layer="svg2485" />
  <metadata
     id="metadata71">
    <rdf:RDF>
      <cc:Work
         rdf:about="">
        <dc:format>image/svg+xml</dc:format>
        <dc:type
           rdf:resource="http://purl.org/dc/dcmitype/StillImage" />
      </cc:Work>
    </rdf:RDF>
  </metadata>
  <defs
     id="defs2487">
    <linearGradient
       id="linearGradient5126">
      <stop
         id="stop5128"
         style="stop-color:#ffffff;stop-opacity:1"
         offset="0" />
      <stop
         id="stop5130"
         style="stop-color:#ffffff;stop-opacity:0"
         offset="1" />
    </linearGradient>
    <linearGradient
       id="linearGradient5118">
      <stop
         id="stop5120"
         style="stop-color:#9d9d9d;stop-opacity:1"
         offset="0" />
      <stop
         id="stop5122"
         style="stop-color:#ffffff;stop-opacity:1"
         offset="1" />
    </linearGradient>
    <linearGradient
       id="linearGradient4762">
      <stop
         id="stop4764"
         style="stop-color:#ffffff;stop-opacity:1"
         offset="0" />
      <stop
         id="stop4766"
         style="stop-color:#ffffff;stop-opacity:0.23529412"
         offset="0.05034721" />
      <stop
         id="stop4768"
         style="stop-color:#ffffff;stop-opacity:0.15686275"
         offset="0.94965279" />
      <stop
         id="stop4770"
         style="stop-color:#ffffff;stop-opacity:0.39215687"
         offset="1" />
    </linearGradient>
    <linearGradient
       id="linearGradient3254-3-182-8-5">
      <stop
         id="stop4663-8-7"
         style="stop-color:#ffffff;stop-opacity:1"
         offset="0" />
      <stop
         id="stop4665-7-6"
         style="stop-color:#ffffff;stop-opacity:0"
         offset="1" />
    </linearGradient>
    <linearGradient
       x1="30"
       y1="7"
       x2="30"
       y2="43"
       id="linearGradient4760"
       xlink:href="#linearGradient4762"
       gradientUnits="userSpaceOnUse"
       gradientTransform="matrix(1.1599999,0,0,1.3513513,4.1600005,0.71621695)" />
    <linearGradient
       x1="-20.446733"
       y1="-93.091553"
       x2="-48.479328"
       y2="-93.091553"
       id="linearGradient3457-7-6"
       xlink:href="#linearGradient2793-2-0-669-94-2"
       gradientUnits="userSpaceOnUse"
       gradientTransform="matrix(0.28028596,0,0,0.33250518,39.302361,37.653425)"
       spreadMethod="reflect" />
    <linearGradient
       id="linearGradient2793-2-0-669-94-2">
      <stop
         id="stop4681-3-1"
         style="stop-color:#b4b4b4;stop-opacity:1"
         offset="0" />
      <stop
         id="stop4683-67-4"
         style="stop-color:#ffffff;stop-opacity:1"
         offset="1" />
    </linearGradient>
    <linearGradient
       x1="-17.12093"
       y1="-93.091553"
       x2="-45.761551"
       y2="-93.091553"
       id="linearGradient5066-8"
       xlink:href="#linearGradient5118"
       gradientUnits="userSpaceOnUse"
       gradientTransform="matrix(0.76167396,0,0,0.22265976,51.929456,28.332129)"
       spreadMethod="reflect" />
    <radialGradient
       cx="16.5"
       cy="7.5"
       r="3.5"
       fx="16.5"
       fy="7.5"
       id="radialGradient5132"
       xlink:href="#linearGradient5126"
       gradientUnits="userSpaceOnUse"
       gradientTransform="matrix(1.0690096,0,0,1.1803746,5.537813,1.1525798)" />
    <linearGradient
       id="linearGradient3820-7-2-1-2-6">
      <stop
         id="stop3822-2-6-3-3-7"
         style="stop-color:#3d3d3d;stop-opacity:1"
         offset="0" />
      <stop
         id="stop3864-8-7-7-9-1"
         style="stop-color:#686868;stop-opacity:0.49803922"
         offset="0.5" />
      <stop
         id="stop3824-1-2-5-0-3"
         style="stop-color:#686868;stop-opacity:0"
         offset="1" />
    </linearGradient>
    <radialGradient
       cx="99.157013"
       cy="186.17059"
       r="62.769119"
       fx="99.157013"
       fy="186.17059"
       id="radialGradient5362"
       xlink:href="#linearGradient3820-7-2-1-2-6"
       gradientUnits="userSpaceOnUse"
       gradientTransform="matrix(0.31862799,0,0,0.07965704,0.4057991,43.170708)" />
    <linearGradient
       x1="13.681819"
       y1="17.458462"
       x2="17.77273"
       y2="35.717499"
       id="linearGradient5508"
       xlink:href="#linearGradient3254-3-182-8-5"
       gradientUnits="userSpaceOnUse"
       gradientTransform="matrix(1.9555544,0,0,2.7882868,-4.7555406,-40.134918)" />
    <linearGradient
       x1="25.272734"
       y1="17.458462"
       x2="27.31819"
       y2="35.717499"
       id="linearGradient5510"
       xlink:href="#linearGradient3254-3-182-8-5"
       gradientUnits="userSpaceOnUse"
       gradientTransform="matrix(1.9555544,0,0,2.829291,-11.422208,-41.225136)" />
    <linearGradient
       id="linearGradient3821">
      <stop
         style="stop-color:#000000;stop-opacity:1;"
         offset="0"
         id="stop3823" />
      <stop
         style="stop-color:#000000;stop-opacity:0;"
         offset="1"
         id="stop3825" />
    </linearGradient>
    <linearGradient
       y2="25"
       x2="36.608757"
       y1="25"
       x1="12.029413"
       gradientTransform="matrix(1.24,0,0,1.3589743,-61.759996,0.02564218)"
       gradientUnits="userSpaceOnUse"
       id="linearGradient3941"
       xlink:href="#linearGradient3821" />
    <linearGradient
       gradientTransform="matrix(2.0666666,0,0,2.0612245,-42.399999,-26.071429)"
       xlink:href="#linearGradient899"
       id="linearGradient901"
       x1="28.487635"
       y1="25.5"
       x2="43.512783"
       y2="25.5"
       gradientUnits="userSpaceOnUse" />
    <linearGradient
       id="linearGradient899">
      <stop
         style="stop-color:#64baff;stop-opacity:1"
         offset="0"
         id="stop895" />
      <stop
         style="stop-color:#3689e6;stop-opacity:1"
         offset="1"
         id="stop897" />
    </linearGradient>
  </defs>
  <rect
     width="30.999998"
     height="53"
     rx="18.599998"
     ry="2.0384617"
     x="-47.5"
     y="7.5"
     id="rect3268-4"
     style="color:#000000;display:block;overflow:visible;visibility:visible;opacity:0.1;fill:url(#linearGradient3941);fill-opacity:1;stroke:none;stroke-width:1;marker:none;enable-background:accumulate"
     transform="scale(-1,1)" />
  <path
     d="m 52,58.0005 a 20,5.0000003 0 0 1 -40,0 20,5.0000003 0 1 1 40,0 z"
     id="path3818-0-5"
     style="fill:url(#radialGradient5362);fill-opacity:1;stroke:none;stroke-width:1" />
  <path
     d="M 37.5,7.9999998 V 5.3 c 0,-1.0002082 -2.453,-1.8000002 -5.5,-1.8000002 -3.047,0 -5.5,0.799792 -5.5,1.8000002 v 2.6999998"
     id="rect3268-3-9"
     style="color:#000000;display:inline;overflow:visible;visibility:visible;fill:url(#linearGradient3457-7-6);fill-opacity:1;fill-rule:nonzero;stroke:none;stroke-width:1;marker:none;enable-background:accumulate"
     sodipodi:nodetypes="csssc" />
  <path
     d="M 31.999999,8.000003 C 23.412998,8.000003 16.5,8.9557175 16.5,10.142861 v 2.857142 c 0,-1.187143 6.912998,-2.142858 15.499999,-2.142858 8.587003,0 15.500001,0.955715 15.500001,2.142858 V 10.142861 C 47.5,8.9557175 40.587002,8.000003 31.999999,8.000003 Z"
     id="rect3268-6-4"
     style="color:#000000;display:inline;overflow:visible;visibility:visible;fill:url(#linearGradient5066-8);fill-opacity:1;fill-rule:nonzero;stroke:none;stroke-width:1;marker:none;enable-background:accumulate" />
  <rect
     width="30.999998"
     height="50.5"
     rx="18.972"
     ry="2.0810444"
     x="16.5"
     y="10"
     id="rect3268-0-1"
     style="color:#000000;font-variation-settings:normal;display:inline;overflow:visible;visibility:visible;opacity:1;vector-effect:none;fill:url(#linearGradient901);fill-opacity:1;fill-rule:nonzero;stroke:none;stroke-width:0.999999;stroke-linecap:butt;stroke-linejoin:miter;stroke-miterlimit:4;stroke-dasharray:none;stroke-dashoffset:0;stroke-opacity:1;marker:none;enable-background:accumulate;stop-color:#000000;stop-opacity:1" />
  <path
     d="M 46.999999,12.455921 C 46.999999,10.927941 35.518808,10.5 32,10.5 c -3.518808,0 -15,0.427942 -15,1.955922"
     id="rect3268-0"
     style="color:#000000;display:inline;overflow:visible;visibility:visible;opacity:0.5;fill:none;fill-opacity:1;fill-rule:nonzero;stroke:#00537d;stroke-width:1;stroke-linecap:butt;stroke-linejoin:round;stroke-miterlimit:4;stroke-dasharray:none;stroke-dashoffset:0;stroke-opacity:1;marker:none;enable-background:accumulate"
     sodipodi:nodetypes="czc" />
  <path
     d="M 37.499997,7.4999998 V 4.9318177 c 0,-0.79562 -2.452998,-1.4318182 -5.5,-1.4318182 -3.047,0 -5.499998,0.6361982 -5.499998,1.4318182 v 2.5681821"
     id="rect3268-3"
     style="color:#000000;display:block;overflow:visible;visibility:visible;opacity:0.3;fill:none;stroke:#000000;stroke-width:0.999999;stroke-linecap:butt;stroke-linejoin:miter;stroke-miterlimit:7;stroke-dasharray:none;stroke-dashoffset:0;stroke-opacity:1;marker:none;enable-background:accumulate"
     sodipodi:nodetypes="csssc" />
  <path
     d="m 31.999999,9.4999998 c -4.30347,0 -8.181151,0.2331405 -10.947498,0.5912172 -1.383176,0.179047 -2.499993,0.37935 -3.190002,0.591217 -0.189749,0.05826 -0.247293,0.07684 -0.3625,0.126689 V 58.19088 c 0.11522,0.04985 0.172751,0.06842 0.3625,0.126687 0.690009,0.211865 1.806826,0.412176 3.190002,0.591215 C 23.818848,59.266858 27.696529,59.5 31.999999,59.5 c 4.30347,0 8.181151,-0.233142 10.947498,-0.591216 1.383176,-0.179043 2.499993,-0.37935 3.190001,-0.591214 0.18975,-0.05828 0.247292,-0.07686 0.3625,-0.126688 V 10.809123 c -0.115208,-0.04984 -0.172746,-0.06843 -0.3625,-0.126689 C 45.44749,10.470567 44.330673,10.270254 42.947497,10.091217 40.18115,9.7331403 36.303469,9.4999998 31.999999,9.4999998 Z"
     id="path4752"
     style="color:#000000;display:block;overflow:visible;visibility:visible;opacity:0.8;fill:none;stroke:url(#linearGradient4760);stroke-width:1;stroke-linecap:butt;stroke-linejoin:miter;stroke-miterlimit:7;stroke-dasharray:none;stroke-dashoffset:0;stroke-opacity:1;marker:none;enable-background:accumulate" />
  <path
     d="M 47.500001,12 V 9.6999998 c 0,-1.2188 -6.913,-2.2 -15.5,-2.2 -8.587,0 -15.5,0.9812 -15.5,2.2 V 12"
     style="color:#000000;display:block;overflow:visible;visibility:visible;opacity:0.3;fill:none;stroke:#000000;stroke-width:1;stroke-linecap:butt;stroke-linejoin:miter;stroke-miterlimit:7;stroke-dasharray:none;stroke-dashoffset:0;stroke-opacity:1;marker:none;enable-background:accumulate"
     id="rect3268"
     sodipodi:nodetypes="csssc" />
  <path
     d="m 26.918005,10.00539 a 3.7415336,4.1313126 0 1 1 -7.483066,0 3.7415338,4.1313112 0 1 1 7.483066,0 z"
     id="path5124"
     style="color:#000000;display:inline;overflow:visible;visibility:visible;opacity:0.2;fill:url(#radialGradient5132);fill-opacity:1;fill-rule:nonzero;stroke:none;stroke-width:1.37003;marker:none;enable-background:accumulate" />
  <path
     d="M 46.687376,13 C 45.869514,12.538999 38.941643,11.5 31.988892,11.5 25.059435,11.5 18.106007,12.538999 17.309645,13"
     id="rect3268-0-7"
     style="color:#000000;display:block;overflow:visible;visibility:visible;opacity:0.2;fill:none;stroke:#ffffff;stroke-width:1;stroke-linecap:butt;stroke-linejoin:miter;stroke-miterlimit:7;stroke-dasharray:none;stroke-dashoffset:0;stroke-opacity:1;marker:none;enable-background:accumulate"
     sodipodi:nodetypes="csc" />
  <path
     d="m 30,7.9999996 c -4.283578,0.16232 -6.009688,0.4828676 -8,0.9629616 V 59.037036 c 1.990312,0.480094 3.716422,0.80064 8,0.962962 z"
     id="path5194"
     style="display:inline;overflow:visible;visibility:visible;opacity:0.3;fill:url(#linearGradient5508);fill-opacity:1;fill-rule:nonzero;stroke:none;stroke-width:1;marker:none" />
  <path
     d="M 38,7.9999994 V 59.999998 c 1.515564,-0.16812 3.072384,-0.367726 4,-0.594772 V 8.5947694 C 41.072384,8.367725 39.515564,8.1681042 38,7.9999994 Z"
     id="rect3244"
     style="display:inline;overflow:visible;visibility:visible;opacity:0.1;fill:url(#linearGradient5510);fill-opacity:1;fill-rule:nonzero;stroke:none;stroke-width:1;marker:none" />
  <path
     d="m 16.500001,12 v 46.478724 c 0,1.119787 6.913,2.021276 15.5,2.021276 8.587,0 15.5,-0.901489 15.5,-2.021276 V 12"
     style="color:#000000;display:block;overflow:visible;visibility:visible;opacity:0.5;fill:none;stroke:#0d52bf;stroke-width:1;stroke-linecap:butt;stroke-linejoin:miter;stroke-miterlimit:7;stroke-dasharray:none;stroke-dashoffset:0;stroke-opacity:1;marker:none;enable-background:accumulate"
     id="rect902"
     sodipodi:nodetypes="csssc" />
  <path
     id="path9604"
     style="font-variation-settings:normal;opacity:0.95;vector-effect:none;fill:#ffffff;fill-opacity:0.40000001;stroke:none;stroke-width:1;stroke-linecap:butt;stroke-linejoin:miter;stroke-miterlimit:4;stroke-dasharray:none;stroke-dashoffset:0;stroke-opacity:1;marker:none;stop-color:#000000"
     d="m 32.611125,21.5 c -0.364754,0 -0.692721,0.172118 -0.916663,0.445394 L 21.171875,38.009945 C 21.063323,38.206856 21,38.436163 21,38.681901 c 0,0.727997 0.547206,1.318155 1.222223,1.318155 h 9.777786 l -1.730688,8.65401 c -0.06545,0.16148 -0.102667,0.340258 -0.102667,0.527776 0,0.728002 0.547208,1.318159 1.222223,1.318159 0.36476,0 0.692728,-0.172099 0.916666,-0.445392 L 42.828125,33.990054 C 42.936677,33.793144 43,33.563839 43,33.318106 43,32.590107 42.452794,31.999945 41.777776,31.999945 h -9.77778 l 1.730689,-8.654008 c 0.06545,-0.16148 0.102667,-0.340256 0.102667,-0.527778 0,-0.727997 -0.54721,-1.318159 -1.222227,-1.318159 z"
     sodipodi:nodetypes="sccssccssccssccss" />
  <path
     id="path54"
     style="font-variation-settings:normal;opacity:0.95;vector-effect:none;fill:#0d52bf;fill-opacity:1;stroke:none;stroke-width:1;stroke-linecap:butt;stroke-linejoin:miter;stroke-miterlimit:4;stroke-dasharray:none;stroke-dashoffset:0;stroke-opacity:1;marker:none;stop-color:#000000"
     d="m 32.611125,20.5 c -0.364754,0 -0.692721,0.172118 -0.916663,0.445394 L 21.171875,37.009945 C 21.063323,37.206856 21,37.436163 21,37.681901 c 0,0.727997 0.547206,1.318155 1.222223,1.318155 h 9.777786 l -1.730688,8.65401 c -0.06545,0.16148 -0.102667,0.340258 -0.102667,0.527776 0,0.728002 0.547208,1.318159 1.222223,1.318159 0.36476,0 0.692728,-0.172099 0.916666,-0.445392 L 42.828125,32.990054 C 42.936677,32.793144 43,32.563839 43,32.318106 43,31.590107 42.452794,30.999945 41.777776,30.999945 h -9.77778 l 1.730689,-8.654008 c 0.06545,-0.16148 0.102667,-0.340256 0.102667,-0.527778 0,-0.727997 -0.54721,-1.318159 -1.222227,-1.318159 z"
     sodipodi:nodetypes="sccssccssccssccss" />
</svg>
