<?xml version="1.0" encoding="UTF-8" standalone="no"?>
<svg
   xmlns:dc="http://purl.org/dc/elements/1.1/"
   xmlns:cc="http://creativecommons.org/ns#"
   xmlns:rdf="http://www.w3.org/1999/02/22-rdf-syntax-ns#"
   xmlns:svg="http://www.w3.org/2000/svg"
   xmlns="http://www.w3.org/2000/svg"
   xmlns:xlink="http://www.w3.org/1999/xlink"
   id="svg4307"
   height="22"
   width="22"
   version="1.1">
  <defs
     id="defs4309">
    <linearGradient
       gradientTransform="matrix(0.45945947,0,0,0.45945947,-0.0257797,9.9717328)"
       gradientUnits="userSpaceOnUse"
       xlink:href="#linearGradient3924-742"
       id="linearGradient3302-281"
       y2="43"
       x2="23.99999"
       y1="4.999989"
       x1="23.99999" />
    <linearGradient
       id="linearGradient3924-742">
      <stop
         offset="0"
         style="stop-color:#ffffff;stop-opacity:1"
         id="stop3115" />
      <stop
         offset="0.06316455"
         style="stop-color:#ffffff;stop-opacity:0.23529412"
         id="stop3117" />
      <stop
         offset="0.95056331"
         style="stop-color:#ffffff;stop-opacity:0.15686275"
         id="stop3119" />
      <stop
         offset="1"
         style="stop-color:#ffffff;stop-opacity:0.39215687"
         id="stop3121" />
    </linearGradient>
    <radialGradient
       gradientTransform="matrix(0,0.94477764,-0.99946207,-2.5715395e-8,19.445276,4.7020473)"
       gradientUnits="userSpaceOnUse"
       xlink:href="#linearGradient3600-7"
       id="radialGradient3272"
       fy="8.4497671"
       fx="7.4956832"
       r="19.99999"
       cy="8.4497671"
       cx="7.4956832" />
    <linearGradient
       id="linearGradient3600-7">
      <stop
         offset="0"
         style="stop-color:#f4f4f4;stop-opacity:1"
         id="stop3602-4" />
      <stop
         offset="1"
         style="stop-color:#dbdbdb;stop-opacity:1"
         id="stop3604-5" />
    </linearGradient>
    <linearGradient
       gradientTransform="matrix(0.48717949,0,0,0.48717949,-0.69230739,9.3076928)"
       gradientUnits="userSpaceOnUse"
       xlink:href="#linearGradient3104-54"
       id="linearGradient3274"
       y2="3.8990016"
       x2="24"
       y1="44"
       x1="24" />
    <linearGradient
       id="linearGradient3104-54">
      <stop
         offset="0"
         style="stop-color:#a0a0a0;stop-opacity:1"
         id="stop3106-7" />
      <stop
         offset="1"
         style="stop-color:#c8c8c8;stop-opacity:1"
         id="stop3108-4" />
    </linearGradient>
  </defs>
  <metadata
     id="metadata4312">
    <rdf:RDF>
      <cc:Work
         rdf:about="">
        <dc:format>image/svg+xml</dc:format>
        <dc:type
           rdf:resource="http://purl.org/dc/dcmitype/StillImage" />
        <dc:title />
      </cc:Work>
    </rdf:RDF>
  </metadata>
  <g
     id="layer1"
     transform="translate(0,-10)">
    <rect
       style="color:#000000;fill:url(#radialGradient3272);fill-opacity:1;fill-rule:nonzero;stroke:url(#linearGradient3274);stroke-width:1;stroke-linecap:round;stroke-linejoin:round;stroke-miterlimit:4;stroke-opacity:1;stroke-dasharray:none;stroke-dashoffset:0;marker:none;visibility:visible;display:inline;overflow:visible;enable-background:accumulate"
       id="rect5505-21-9-4"
       y="11.5"
       x="1.5"
       ry="1"
       rx="1"
       height="19"
       width="19" />
    <rect
       style="fill:none;stroke:url(#linearGradient3302-281);stroke-width:0.99999988;stroke-linecap:round;stroke-linejoin:round;stroke-miterlimit:4;stroke-opacity:1;stroke-dasharray:none;stroke-dashoffset:0"
       id="rect6741-9"
       y="12.498756"
       x="2.5012455"
       height="17"
       width="17" />
    <path
       style="color:#000000;fill:#ffffff;fill-opacity:1;fill-rule:nonzero;stroke:none;stroke-width:1;marker:none;visibility:visible;display:inline;overflow:visible;enable-background:accumulate"
       id="path3942-2"
       d="M 10.5,15.375 5.53125,18.21875 7.6875,19.25 10.28125,17.78125 10.5,15.375 z m 1.03125,0 0.1875,2.375 2.5625,1.53125 L 16.5,18.25 11.53125,15.375 z M 11,18.53125 l -3,1.75 0,3.46875 3,1.71875 3,-1.75 L 14,20.25 11,18.53125 z M 5.03125,19.125 5,24.84375 6.96875,23.5 7,20.53125 5.03125,19.125 z M 17,19.15625 15.03125,20.5 15,23.46875 17,24.875 17,19.15625 z m -9.28125,5.5625 -2.1875,1.03125 4.9375,2.875 -0.1875,-2.375 -2.5625,-1.53125 z M 14.3125,24.75 11.71875,26.1875 11.5,28.625 16.46875,25.78125 14.3125,24.75 z" />
    <path
       style="color:#000000;fill:#f8c300;fill-opacity:1;fill-rule:nonzero;stroke:none;stroke-width:1;marker:none;visibility:visible;display:inline;overflow:visible;enable-background:accumulate"
       id="path3942"
       d="m 13.99999,19.263596 -0.0078,3.459616 -2.999983,1.736402 -2.9921969,-1.723216 0.00779,-3.459616 2.9999889,-1.736396 2.992195,1.723215 z" />
    <path
       style="fill:#d18c3b;fill-opacity:1;stroke:none"
       id="path3966"
       d="M 16.999997,18.146391 15.030051,19.495453 15,22.469245 l 2,1.401399 z" />
    <path
       style="fill:#3941bf;fill-opacity:1;stroke:none"
       id="path3972"
       d="M 5.0000043,23.845819 6.9700154,22.496756 7,19.522965 5.0181945,18.121565 5,23.845818 z" />
    <path
       style="color:#000000;fill:#8fb635;fill-opacity:1;fill-rule:nonzero;stroke:none;marker:none;visibility:visible;display:inline;overflow:visible;enable-background:accumulate"
       id="path3966-2"
       d="m 11.532074,14.375098 0.183349,2.380554 2.560354,1.512921 2.213647,-1.031351 z" />
    <path
       style="color:#000000;fill:#bb3a84;fill-opacity:1;fill-rule:nonzero;stroke:none;marker:none;visibility:visible;display:inline;overflow:visible;enable-background:accumulate"
       id="path3972-1"
       d="M 10.467927,27.61711 10.28461,25.236499 7.7242238,23.723636 5.519673,24.73923 l 4.948251,2.877884 z" />
    <path
       style="color:#000000;fill:#a02c35;fill-opacity:1;fill-rule:nonzero;stroke:none;marker:none;visibility:visible;display:inline;overflow:visible;enable-background:accumulate"
       id="path3966-9"
       d="m 16.467923,24.767398 -2.153295,-1.031493 -2.590405,1.460871 -0.213647,2.432751 z" />
    <path
       style="color:#000000;fill:#3895bd;fill-opacity:1;fill-rule:nonzero;stroke:none;marker:none;visibility:visible;display:inline;overflow:visible;enable-background:accumulate"
       id="path3972-9"
       d="m 5.532077,17.224813 2.1533284,1.031548 2.5903706,-1.460928 0.222745,-2.416994 -4.9664453,2.84637 z" />
  </g>
</svg>
