<?xml version="1.0" encoding="UTF-8" standalone="no"?>
<svg
   version="1.1"
   width="22"
   height="22"
   id="svg3749"
   sodipodi:docname="preferences-system-parental-controls.svg"
   inkscape:version="1.2.2 (b0a8486541, 2022-12-01)"
   xmlns:inkscape="http://www.inkscape.org/namespaces/inkscape"
   xmlns:sodipodi="http://sodipodi.sourceforge.net/DTD/sodipodi-0.dtd"
   xmlns:xlink="http://www.w3.org/1999/xlink"
   xmlns="http://www.w3.org/2000/svg"
   xmlns:svg="http://www.w3.org/2000/svg"
   xmlns:rdf="http://www.w3.org/1999/02/22-rdf-syntax-ns#"
   xmlns:cc="http://creativecommons.org/ns#"
   xmlns:dc="http://purl.org/dc/elements/1.1/">
  <sodipodi:namedview
     id="namedview10017"
     pagecolor="#ffffff"
     bordercolor="#000000"
     borderopacity="0.25"
     inkscape:showpageshadow="2"
     inkscape:pageopacity="0.0"
     inkscape:pagecheckerboard="0"
     inkscape:deskcolor="#d1d1d1"
     showgrid="false"
     inkscape:zoom="33.5"
     inkscape:cx="10.029851"
     inkscape:cy="12.014925"
     inkscape:window-width="1920"
     inkscape:window-height="1020"
     inkscape:window-x="0"
     inkscape:window-y="0"
     inkscape:window-maximized="1"
     inkscape:current-layer="svg3749" />
  <metadata
     id="metadata148432">
    <rdf:RDF>
      <cc:Work
         rdf:about="">
        <dc:format>image/svg+xml</dc:format>
        <dc:type
           rdf:resource="http://purl.org/dc/dcmitype/StillImage" />
      </cc:Work>
    </rdf:RDF>
  </metadata>
  <defs
     id="defs3751">
    <linearGradient
       id="linearGradient3820-7-2-2">
      <stop
         offset="0"
         style="stop-color:#3d3d3d;stop-opacity:1"
         id="stop3822-2-6-36" />
      <stop
         offset="0.5"
         style="stop-color:#686868;stop-opacity:0.49803922"
         id="stop3864-8-7-6" />
      <stop
         offset="1"
         style="stop-color:#686868;stop-opacity:0"
         id="stop3824-1-2-4" />
    </linearGradient>
    <linearGradient
       id="linearGradient4806-9">
      <stop
         offset="0"
         style="stop-color:#ffffff;stop-opacity:1"
         id="stop4808-49" />
      <stop
         offset="0.42447853"
         style="stop-color:#ffffff;stop-opacity:0.23529412"
         id="stop4810-05" />
      <stop
         offset="0.82089913"
         style="stop-color:#ffffff;stop-opacity:0.15686275"
         id="stop4812-6" />
      <stop
         offset="1"
         style="stop-color:#ffffff;stop-opacity:0.39215687"
         id="stop4814-7" />
    </linearGradient>
    <linearGradient
       xlink:href="#linearGradient4806-9"
       id="linearGradient3097"
       gradientUnits="userSpaceOnUse"
       gradientTransform="matrix(0.77562456,0,0,0.77562491,-44.981566,-10.614261)"
       x1="71.204407"
       y1="15.369057"
       x2="71.204407"
       y2="40.495617" />
    <radialGradient
       xlink:href="#linearGradient3846"
       id="radialGradient3105"
       gradientUnits="userSpaceOnUse"
       gradientTransform="matrix(2.7218649e-8,1.0000005,-1.0000005,-2.0558214e-8,19.449885,-7.3447227)"
       cx="18.344713"
       cy="8.4498816"
       fx="3.6219957"
       fy="8.4498825"
       r="19.99999" />
    <radialGradient
       xlink:href="#linearGradient3820-7-2-2"
       id="radialGradient3108"
       gradientUnits="userSpaceOnUse"
       gradientTransform="matrix(0.11151981,0,0,0.03186282,-0.057971,14.068084)"
       cx="99.157013"
       cy="186.17059"
       fx="99.157013"
       fy="186.17059"
       r="62.769119" />
    <linearGradient
       id="linearGradient3846">
      <stop
         id="stop3848"
         style="stop-color:#fff3cb;stop-opacity:1"
         offset="0" />
      <stop
         id="stop3850"
         style="stop-color:#fdde76;stop-opacity:1"
         offset="0.26238" />
      <stop
         id="stop3852"
         style="stop-color:#f9c440;stop-opacity:1"
         offset="0.66093999" />
      <stop
         id="stop3854"
         style="stop-color:#e48b20;stop-opacity:1"
         offset="1" />
    </linearGradient>
  </defs>
  <path
     style="fill:url(#radialGradient3108);fill-opacity:1;stroke:none;stroke-width:1"
     id="path3818-0-2"
     d="M 18,20 A 7,2 0 0 1 4,20 7,2 0 1 1 18,20 Z" />
  <path
     style="color:#000000;display:inline;overflow:visible;visibility:visible;fill:url(#radialGradient3105);fill-opacity:1;fill-rule:nonzero;stroke:none;stroke-width:1;marker:none;enable-background:accumulate"
     id="path2555-7-65"
     d="M 11,0.5000002 C 5.206462,0.5000002 0.5,5.2064625 0.5,11 0.5,16.793538 5.206462,21.500001 11,21.5 16.793537,21.5 21.500004,16.793538 21.5,11 21.5,5.2064625 16.793537,0.5000002 11,0.5000002 Z" />
  <path
     style="color:#000000;display:inline;overflow:visible;visibility:visible;opacity:0.5;fill:none;stroke:#985800;stroke-width:1;stroke-linecap:round;stroke-linejoin:round;stroke-miterlimit:4;stroke-dasharray:none;stroke-dashoffset:0;stroke-opacity:1;marker:none;enable-background:accumulate"
     id="path2555-7-1-7"
     d="M 11,0.5 C 5.206462,0.5 0.5,5.2064617 0.5,10.999999 0.5,16.793538 5.206462,21.500002 11,21.5 16.793538,21.5 21.500007,16.793538 21.5,10.999999 21.5,5.2064617 16.793538,0.5 11,0.5 Z" />
  <path
     style="color:#000000;display:inline;overflow:visible;visibility:visible;opacity:0.8;fill:none;stroke:url(#linearGradient3097);stroke-width:1;stroke-linecap:round;stroke-linejoin:round;stroke-miterlimit:4;stroke-dasharray:none;stroke-dashoffset:0;stroke-opacity:1;marker:none;enable-background:accumulate"
     id="path3421"
     d="m 20.500001,11 c 0,5.246706 -4.253305,9.5 -9.500001,9.5 -5.246695,0 -9.5,-4.253294 -9.5,-9.5 0,-5.2467043 4.253305,-9.5000004 9.5,-9.5000004 5.246696,0 9.500001,4.2532961 9.500001,9.5000004 z" />
  <path
     id="path25605"
     d="m 8,4.9999999 c -0.554,0 -1,0.446 -1,1 v 1 c 0,0.554 0.446,1 1,1 h 1 c 0.554,0 1,-0.446 1,-1 v -1 c 0,-0.554 -0.446,-1 -1,-1 z m -0.4723204,4 L 7,9.3828129 5.0527344,13.277344 c -0.3351494,0.608743 0.6108433,1.079673 0.8945312,0.445312 L 7,11.617188 7.3792697,10.491679 7,14 V 16.470703 19 h 1 v -4 h 1 v 4 h 1 V 14 L 9.47232,10.487633 10,11.617188 l 1.052734,2.105468 c 0.04847,0.09729 0.127318,0.176142 0.22461,0.22461 L 13,14.808594 V 15 16 16.509766 18 19 h 1 1 V 18 16.509766 16 15.707031 l 0.646484,0.646485 c 0.471255,0.490773 1.197805,-0.235777 0.707032,-0.707032 L 15,14.292969 V 14 H 14 13.617188 L 11.873047,13.126953 10,9.3828129 9.30742,8.9999999 Z M 13,11 v 2 h 2 v -2 z"
     style="opacity:0.1;fill:#ffffff;fill-opacity:1;stroke:none;stroke-width:1.5;stroke-linecap:round;stroke-linejoin:round;stroke-miterlimit:4;stroke-dasharray:none;stroke-dashoffset:0;stroke-opacity:1" />
  <path
     style="opacity:1;fill:#333333;fill-opacity:1;stroke:none;stroke-width:1.5;stroke-linecap:round;stroke-linejoin:round;stroke-miterlimit:4;stroke-dasharray:none;stroke-dashoffset:0;stroke-opacity:1"
     d="m 8,3.9999999 c -0.554,0 -1,0.446 -1,1 v 1 c 0,0.554 0.446,1 1,1 h 1 c 0.554,0 1,-0.446 1,-1 v -1 c 0,-0.554 -0.446,-1 -1,-1 z m -0.4723204,4 L 7,8.3828124 5.0527344,12.277344 c -0.3351494,0.608743 0.6108433,1.079673 0.8945312,0.445312 L 7,10.617188 7.3792697,9.4916789 7,13 V 15.470703 18 h 1 v -4 h 1 v 4 h 1 V 13 L 9.47232,9.4876329 10,10.617188 l 1.052734,2.105468 c 0.04847,0.09729 0.127318,0.176142 0.22461,0.22461 L 13,13.808594 V 14 15 15.509766 17 18 h 1 1 V 17 15.509766 15 14.707031 l 0.646484,0.646485 c 0.471255,0.490773 1.197805,-0.235777 0.707032,-0.707032 L 15,13.292969 V 13 H 14 13.617188 L 11.873047,12.126953 10,8.3828124 9.30742,7.9999999 Z m 5.4723204,2 V 12 h 2 V 9.9999999 Z"
     id="rect25547" />
</svg>
