<?xml version="1.0" encoding="UTF-8" standalone="no"?>
<svg
   xmlns:dc="http://purl.org/dc/elements/1.1/"
   xmlns:cc="http://creativecommons.org/ns#"
   xmlns:rdf="http://www.w3.org/1999/02/22-rdf-syntax-ns#"
   xmlns:svg="http://www.w3.org/2000/svg"
   xmlns="http://www.w3.org/2000/svg"
   xmlns:xlink="http://www.w3.org/1999/xlink"
   width="24"
   height="24"
   id="svg7854"
   version="1.0">
  <defs
     id="defs7856">
    <linearGradient
       id="linearGradient4111">
      <stop
         style="stop-color:#ffffff;stop-opacity:1;"
         offset="0"
         id="stop4113" />
      <stop
         style="stop-color:#ffffff;stop-opacity:0;"
         offset="1"
         id="stop4115" />
    </linearGradient>
    <linearGradient
       id="linearGradient5106">
      <stop
         style="stop-color:#8fb3d9;stop-opacity:1;"
         offset="0"
         id="stop5108" />
      <stop
         style="stop-color:#6195cb;stop-opacity:1;"
         offset="1"
         id="stop5110" />
    </linearGradient>
    <radialGradient
       xlink:href="#linearGradient5106"
       id="radialGradient4107"
       gradientUnits="userSpaceOnUse"
       gradientTransform="matrix(2.7824037,0,0,1.2781592,-74.498482,-26.200453)"
       cx="32.631359"
       cy="33.584618"
       fx="32.631359"
       fy="33.584618"
       r="16" />
    <linearGradient
       xlink:href="#linearGradient4111"
       id="linearGradient4117"
       x1="22.146978"
       y1="15.722057"
       x2="22.401583"
       y2="34.612499"
       gradientUnits="userSpaceOnUse" />
  </defs>
  <metadata
     id="metadata7859">
    <rdf:RDF>
      <cc:Work
         rdf:about="">
        <dc:format>image/svg+xml</dc:format>
        <dc:type
           rdf:resource="http://purl.org/dc/dcmitype/StillImage" />
        <dc:creator>
          <cc:Agent>
            <dc:title>Lapo Calamandrei</dc:title>
          </cc:Agent>
        </dc:creator>
        <dc:source />
        <cc:license
           rdf:resource="http://creativecommons.org/licenses/GPL/2.0/" />
        <dc:title>Media statusses</dc:title>
        <dc:subject>
          <rdf:Bag />
        </dc:subject>
      </cc:Work>
      <cc:License
         rdf:about="http://creativecommons.org/licenses/GPL/2.0/">
        <cc:permits
           rdf:resource="http://web.resource.org/cc/Reproduction" />
        <cc:permits
           rdf:resource="http://web.resource.org/cc/Distribution" />
        <cc:requires
           rdf:resource="http://web.resource.org/cc/Notice" />
        <cc:permits
           rdf:resource="http://web.resource.org/cc/DerivativeWorks" />
        <cc:requires
           rdf:resource="http://web.resource.org/cc/ShareAlike" />
        <cc:requires
           rdf:resource="http://web.resource.org/cc/SourceCode" />
      </cc:License>
    </rdf:RDF>
  </metadata>
  <g
     id="layer1">
    <path
       style="fill:url(#radialGradient4107);fill-opacity:1.0;stroke:#245398;stroke-width:0.99999994000000003;stroke-linecap:round;stroke-linejoin:round;stroke-miterlimit:4;stroke-dasharray:none;stroke-dashoffset:0.69999999999999996;stroke-opacity:1"
       d="M 4.2095324,4.4999347 C 2.1796347,4.4999347 0.49978585,6.146561 0.49978585,8.1363131 L 0.49978585,14.727249 C 0.49978585,16.717001 2.1796347,18.5 4.2095324,18.5 L 8,18.5 L 8,15.5 L 4.2095324,15.5 C 3.7724597,15.5 3.5,15.155678 3.5,14.727249 L 3.5,8.1363131 C 3.5,7.7078852 3.7724597,7.5 4.2095324,7.5 L 19.790468,7.5 C 20.227543,7.5 20.532417,7.7078845 20.532417,8.1363131 L 20.532417,14.727249 C 20.532417,15.155677 20.22754,15.5 19.790468,15.5 L 16.5,15.5 L 16.5,13.227243 L 10.887076,16.863622 L 16.5,20.5 L 16.5,18.5 L 19.790468,18.5 C 21.820365,18.5 23.500213,16.717001 23.500214,14.727249 L 23.500214,8.1363131 C 23.500214,6.146561 21.820366,4.4999347 19.790468,4.4999347 L 4.2095324,4.4999347 z"
       id="rect7213" />
    <path
       transform="matrix(0.7419493,0,0,0.7272757,-5.8067832,-6.045563)"
       style="opacity:0.4;fill:none;fill-opacity:1;stroke:url(#linearGradient4117);stroke-width:1.08906376;stroke-linecap:round;stroke-linejoin:miter;stroke-miterlimit:4;stroke-dashoffset:0.7;stroke-opacity:1"
       d="M 13.5,15.75 C 11.455149,15.75 9.75,17.455149 9.75,19.5 L 9.75,28.5625 C 9.75,30.607351 11.455149,32.3125 13.5,32.3125 L 17.25,32.3125 L 17.25,30.8125 L 13.5,30.8125 C 12.328432,30.8125 11.25,29.734068 11.25,28.5625 L 11.25,19.5 C 11.25,18.328432 12.328431,17.25 13.5,17.25 L 34.5,17.25 C 35.671568,17.25 36.75,18.328438 36.75,19.5 L 36.75,28.5625 C 36.75,29.734068 35.671569,30.8125 34.5,30.8125 L 29.5,30.8125 C 28.810259,30.811017 28.718786,30.252241 28.717303,29.5625 L 28.717303,28.9375 L 24.65625,31.5 L 28.717303,34.0625 L 28.717303,33.5625 C 28.718786,32.872759 28.810259,32.313983 29.5,32.3125 L 34.5,32.3125 C 36.544851,32.3125 38.249999,30.607352 38.25,28.5625 L 38.25,19.5 C 38.25,17.455149 36.544852,15.75 34.5,15.75 L 13.5,15.75 z"
       id="path7239" />
  </g>
</svg>
