<?xml version="1.0" encoding="UTF-8" standalone="no"?>
<svg
   xmlns:dc="http://purl.org/dc/elements/1.1/"
   xmlns:cc="http://creativecommons.org/ns#"
   xmlns:rdf="http://www.w3.org/1999/02/22-rdf-syntax-ns#"
   xmlns:svg="http://www.w3.org/2000/svg"
   xmlns="http://www.w3.org/2000/svg"
   xmlns:xlink="http://www.w3.org/1999/xlink"
   width="16"
   height="16"
   id="svg4296"
   version="1.1">
  <defs
     id="defs4298">
    <linearGradient
       id="linearGradient3810">
      <stop
         style="stop-color:#a60101;stop-opacity:1;"
         offset="0"
         id="stop3812" />
      <stop
         style="stop-color:#5f0101;stop-opacity:1;"
         offset="1"
         id="stop3814" />
    </linearGradient>
    <linearGradient
       id="linearGradient3774">
      <stop
         style="stop-color:#444444;stop-opacity:1;"
         offset="0"
         id="stop3776" />
      <stop
         style="stop-color:#9e9e9e;stop-opacity:1;"
         offset="1"
         id="stop3778" />
    </linearGradient>
    <linearGradient
       id="linearGradient3764">
      <stop
         style="stop-color:#d1d1d1;stop-opacity:1;"
         offset="0"
         id="stop3766" />
      <stop
         style="stop-color:#eaeaea;stop-opacity:1;"
         offset="1"
         id="stop3768" />
    </linearGradient>
    <radialGradient
       xlink:href="#linearGradient3764"
       id="radialGradient4104"
       gradientUnits="userSpaceOnUse"
       gradientTransform="matrix(-0.56710644,-1.1342033,-1.7012993,0.85065685,1784.0587,176.41224)"
       cx="14.999991"
       cy="1039.7"
       fx="14.999991"
       fy="1039.7"
       r="3.5266583" />
    <linearGradient
       xlink:href="#linearGradient3774"
       id="linearGradient4106"
       gradientUnits="userSpaceOnUse"
       gradientTransform="matrix(-1,0,0,1,21.71146,2.4649363)"
       x1="17"
       y1="1042.3622"
       x2="15"
       y2="1038.3622" />
    <linearGradient
       xlink:href="#linearGradient3810"
       id="linearGradient3817"
       x1="6"
       y1="11"
       x2="4"
       y2="15"
       gradientUnits="userSpaceOnUse" />
    <radialGradient
       xlink:href="#linearGradient3764"
       id="radialGradient3826"
       gradientUnits="userSpaceOnUse"
       gradientTransform="matrix(0.56710644,-1.1342033,1.7012993,0.85065685,-1767.9332,176.41224)"
       cx="14.999991"
       cy="1039.7"
       fx="14.999991"
       fy="1039.7"
       r="3.5266583" />
    <linearGradient
       xlink:href="#linearGradient3774"
       id="linearGradient3828"
       gradientUnits="userSpaceOnUse"
       gradientTransform="translate(-5.585923,2.4649363)"
       x1="17"
       y1="1042.3622"
       x2="15"
       y2="1038.3622" />
    <linearGradient
       xlink:href="#linearGradient3810"
       id="linearGradient3044"
       gradientUnits="userSpaceOnUse"
       x1="6"
       y1="11"
       x2="4"
       y2="15"
       gradientTransform="matrix(-1,0,0,1,16.000399,1036.3622)" />
  </defs>
  <metadata
     id="metadata4301">
    <rdf:RDF>
      <cc:Work
         rdf:about="">
        <dc:format>image/svg+xml</dc:format>
        <dc:type
           rdf:resource="http://purl.org/dc/dcmitype/StillImage" />
        <dc:title />
      </cc:Work>
    </rdf:RDF>
  </metadata>
  <g
     id="layer1"
     transform="translate(0,-1036.3622)">
    <path
       style="fill:url(#radialGradient3826);fill-opacity:1;stroke:url(#linearGradient3828);stroke-width:1px;stroke-linecap:butt;stroke-linejoin:miter;stroke-opacity:1"
       d="m 7.5,1044.8622 5.5,-7.5 c 0,0 3.012802,6.2915 -5.3744632,10 z"
       id="path3824" />
    <path
       id="path4102"
       d="M 8.5405904,1044.8622 3,1037.3622 c 0,0 -2.80608422,6.4945 5.5,10 z"
       style="fill:url(#radialGradient4104);fill-opacity:1;stroke:url(#linearGradient4106);stroke-width:1px;stroke-linecap:butt;stroke-linejoin:miter;stroke-opacity:1" />
    <path
       id="path3041"
       transform="translate(0,1036.3622)"
       style="fill:#ee5050;fill-opacity:1;stroke:url(#linearGradient3817);stroke-width:1px;stroke-linecap:butt;stroke-linejoin:round;stroke-opacity:1"
       d="m 3.1623616,12.837639 c 0.7220462,-1.600995 1.92432,-1.608588 2.6217712,-0.878229 0.2822879,1.081181 -0.2393877,1.642526 -0.9464944,1.878229 -0.7071068,0.235702 -1.6752768,-0.254644 -1.6752768,-1 z M 5.1707033,10.5 C 4.1849083,10.553 1.5,11.145 1.5,13 c 0,2.12 1.6175168,2.5024 2.5548536,2.5 C 4.9921904,15.5 7.4636365,14.8643 7.5,12.7149 7.528987,11.0015 5.9721355,10.6055 5.4831412,10.5 c -0.061124,-0.013 -0.17161,-0.01 -0.3124379,0 z" />
    <path
       d="m 12.838038,1049.1998 c -0.722046,-1.601 -1.92432,-1.6085 -2.621771,-0.8782 -0.282288,1.0812 0.239387,1.6425 0.946494,1.8782 0.707107,0.2357 1.675277,-0.2546 1.675277,-1 z m -2.008342,-2.3376 c 0.985795,0.053 3.670703,0.645 3.670703,2.5 0,2.12 -1.617516,2.5024 -2.554853,2.5 -0.937337,0 -3.4087831,-0.6357 -3.4451466,-2.7851 -0.028987,-1.7134 1.5278646,-2.1094 2.0168586,-2.2149 0.06112,-0.013 0.17161,-0.01 0.312438,0 z"
       style="fill:#ee5050;fill-opacity:1;stroke:url(#linearGradient3044);stroke-width:1px;stroke-linecap:butt;stroke-linejoin:round;stroke-opacity:1"
       id="path3042" />
  </g>
</svg>
