<?xml version="1.0" encoding="UTF-8" standalone="no"?>
<svg
   xmlns:dc="http://purl.org/dc/elements/1.1/"
   xmlns:cc="http://creativecommons.org/ns#"
   xmlns:rdf="http://www.w3.org/1999/02/22-rdf-syntax-ns#"
   xmlns:svg="http://www.w3.org/2000/svg"
   xmlns="http://www.w3.org/2000/svg"
   xmlns:xlink="http://www.w3.org/1999/xlink"
   version="1.0"
   width="16"
   height="16"
   id="svg2485">
  <metadata
     id="metadata6055">
    <rdf:RDF>
      <cc:Work
         rdf:about="">
        <dc:format>image/svg+xml</dc:format>
        <dc:type
           rdf:resource="http://purl.org/dc/dcmitype/StillImage" />
        <dc:title />
      </cc:Work>
    </rdf:RDF>
  </metadata>
  <defs
     id="defs2487">
    <linearGradient
       id="linearGradient3600-8-3">
      <stop
         offset="0"
         style="stop-color:#f4f4f4;stop-opacity:1"
         id="stop3828-7-6" />
      <stop
         offset="1"
         style="stop-color:#dbdbdb;stop-opacity:1"
         id="stop3604-2-5" />
    </linearGradient>
    <linearGradient
       id="linearGradient3104-8-8-97-9">
      <stop
         id="stop3106-5-4-3-6"
         style="stop-color:#000000;stop-opacity:0.32173914;"
         offset="0" />
      <stop
         id="stop3108-4-3-7-0"
         style="stop-color:#000000;stop-opacity:0.27826086;"
         offset="1" />
    </linearGradient>
    <linearGradient
       id="linearGradient6786">
      <stop
         offset="0"
         style="stop-color:#ffffff;stop-opacity:1;"
         id="stop6788" />
      <stop
         id="stop6790"
         style="stop-color:#ffffff;stop-opacity:0.23529412;"
         offset="0.46352294" />
      <stop
         offset="0.76175833"
         style="stop-color:#ffffff;stop-opacity:0.15686275;"
         id="stop6792" />
      <stop
         offset="1"
         style="stop-color:#ffffff;stop-opacity:0.39215687;"
         id="stop6794" />
    </linearGradient>
    <linearGradient
       xlink:href="#linearGradient6786"
       id="linearGradient3192"
       gradientUnits="userSpaceOnUse"
       gradientTransform="matrix(0.33332851,0,0,0.33333107,-0.00157595,0.346385)"
       x1="24.000347"
       y1="5.9997087"
       x2="24.000347"
       y2="35.999912" />
    <radialGradient
       xlink:href="#linearGradient3600-8-3"
       id="radialGradient3195"
       gradientUnits="userSpaceOnUse"
       gradientTransform="matrix(0,0.59011715,-0.49605789,0,10.053781,-10.606556)"
       cx="20.248743"
       cy="4.9115634"
       fx="20.248743"
       fy="4.9115634"
       r="23" />
    <linearGradient
       xlink:href="#linearGradient3104-8-8-97-9"
       id="linearGradient3197"
       gradientUnits="userSpaceOnUse"
       gradientTransform="matrix(0.33332851,0,0,0.33333107,-0.00157595,0.346385)"
       x1="18.138792"
       y1="45.21809"
       x2="18.138792"
       y2="2.9999995" />
  </defs>
  <path
     style="fill:url(#radialGradient3195);fill-opacity:1.0;fill-rule:evenodd;stroke:url(#linearGradient3197);stroke-width:0.99525028000000004;stroke-linecap:butt;stroke-linejoin:round;stroke-miterlimit:4;stroke-opacity:1;stroke-dasharray:none;stroke-dashoffset:0;marker:none;visibility:visible;display:inline;overflow:visible"
     id="path6145"
     d="M 6.9358837,1.607491 C 3.0966124,2.173525 0.25578406,4.818788 0.51390493,7.682908 0.66366298,9.34463 1.8219858,10.742946 3.5255255,11.595185 l -0.070803,2.945136 c 0,0 -0.07314,0.250045 0.031844,0.338376 0.1049824,0.08833 0.3578334,-0.09892 0.3578334,-0.09892 l 3.2050617,-2.317991 0.025987,-0.0024 c 0.4638886,0.02217 0.9299296,0.02952 1.4135472,-0.0146 C 12.615861,12.068278 15.753516,9.322189 15.482698,6.317211 15.211884,3.312234 11.634476,1.178789 7.5076098,1.555301 7.3141633,1.572947 7.1247024,1.579626 6.9358851,1.607469 z" />
  <path
     style="opacity:1;color:#000000;fill:none;stroke:url(#linearGradient3192);stroke-width:0.99525028000000004;stroke-linecap:butt;stroke-linejoin:miter;stroke-miterlimit:4;stroke-opacity:1;stroke-dasharray:none;stroke-dashoffset:0;marker:none;visibility:visible;display:inline;overflow:visible;enable-background:accumulate"
     d="M 7.5863114,2.538759 C 5.8165575,2.640405 4.0612094,3.36719 2.7764832,4.595693 1.759986,5.538432 1.1397304,7.057933 1.6750473,8.408547 c 0.4060318,1.134964 1.4235806,1.883938 2.4502415,2.423598 0.5340587,0.414893 0.3237845,1.124799 0.3488517,1.702989 0.033084,0.162427 -0.087868,0.618461 0.048188,0.584612 0.7126104,-0.508328 1.4165032,-1.032451 2.1332708,-1.532064 0.5500546,-0.232161 1.1654865,-0.01049 1.7432119,-0.111423 C 10.540611,11.271964 12.761397,10.341474 13.983374,8.495467 14.752962,7.37088 14.712349,5.775914 13.838183,4.719644 12.519679,3.083812 10.312297,2.47323 8.2808452,2.501033 c -0.2318713,0.004 -0.4635889,0.01666 -0.6945338,0.03773 z"
     id="path3127" />
  <path
     d="M 8.2845118,7.8883167 C 8.2638618,7.1323034 8.4290043,6.3983751 9.1254084,5.8785066 9.8609902,5.2905677 10.569414,4.5549769 10.494549,3.6878811 10.478199,2.8516461 9.5282226,2.1963648 8.5046893,2.1021468 7.353381,1.938561 5.9603064,2.3430875 5.5745104,3.265269 c -0.195667,0.4485174 -0.01422,1.2532102 0.642437,1.2532102 0.3840778,0 0.560487,-0.254466 0.5894686,-0.4872429 C 6.828341,3.8551105 6.757841,3.697831 6.716208,3.55235 6.668766,3.3865834 6.8712872,3.065309 7.0918597,2.9344107 7.2761722,2.8250274 7.4690105,2.7883496 7.4974363,2.7813432 8.1593563,2.6181876 8.8191954,2.9785757 9.0944921,3.4172132 9.3697887,3.8558498 9.0667671,4.521176 8.6310996,5.1681801 8.1954288,5.8151851 7.7278763,6.55005 7.7297446,7.3305967 c 0,0.2971551 -0.025817,0.3981051 -0.0075,0.5183267 0.014658,0.096053 0.3247584,0.084445 0.5622408,0.039392 z M 7.9824327,8.9058697 C 7.3495319,8.8706277 6.9114769,9.6065093 7.2916927,10.075365 7.6312427,10.593029 8.5832626,10.465239 8.7464385,9.8790373 8.9160826,9.4231913 8.5078318,8.8982605 7.9824327,8.9058689 l 0,8e-7 z"
     id="path3991"
     style="font-size:72px;font-style:normal;font-weight:bold;fill:#ffffff;fill-opacity:1;stroke:none;font-family:Standard Symbols L" />
  <path
     style="font-size:72px;font-style:normal;font-weight:bold;opacity:0.59905659;fill:#000000;fill-opacity:1;stroke:none;font-family:Standard Symbols L"
     id="path3298"
     d="M 8.2845118,8.4883174 C 8.2638618,7.7323041 8.4290043,6.9983758 9.1254084,6.4785073 9.8609902,5.8905684 10.569414,5.1549776 10.494549,4.2878818 10.478199,3.4516468 9.5282226,2.7963655 8.5046893,2.7021475 7.353381,2.5385617 5.9603064,2.9430882 5.5745104,3.8652697 c -0.195667,0.4485174 -0.01422,1.2532102 0.642437,1.2532102 0.3840778,0 0.560487,-0.254466 0.5894686,-0.4872429 C 6.828341,4.4551112 6.757841,4.2978317 6.716208,4.1523507 6.668766,3.9865841 6.8712872,3.6653097 7.0918597,3.5344114 7.2761722,3.4250281 7.4690105,3.3883503 7.4974363,3.3813439 c 0.66192,-0.1631556 1.3217591,0.1972325 1.5970558,0.63587 0.2752966,0.4386366 -0.027725,1.1039628 -0.4633925,1.7509669 -0.4356708,0.647005 -0.9032233,1.3818699 -0.901355,2.1624166 0,0.2971551 -0.025817,0.3981051 -0.0075,0.5183267 0.014658,0.096053 0.3247584,0.084445 0.5622408,0.039392 z M 7.9824327,9.5058704 C 7.3495319,9.4706284 6.9114769,10.20651 7.2916927,10.675366 7.6312427,11.193029 8.5832626,11.065239 8.7464385,10.479038 8.9160826,10.023192 8.5078318,9.4982612 7.9824327,9.5058696 l 0,8e-7 z" />
</svg>
