<?xml version="1.0" encoding="UTF-8" standalone="no"?>
<svg
   xmlns:dc="http://purl.org/dc/elements/1.1/"
   xmlns:cc="http://creativecommons.org/ns#"
   xmlns:rdf="http://www.w3.org/1999/02/22-rdf-syntax-ns#"
   xmlns:svg="http://www.w3.org/2000/svg"
   xmlns="http://www.w3.org/2000/svg"
   version="1.1"
   id="svg2"
   width="16"
   height="16">
  <metadata
     id="metadata14">
    <rdf:RDF>
      <cc:Work
         rdf:about="">
        <dc:format>image/svg+xml</dc:format>
        <dc:type
           rdf:resource="http://purl.org/dc/dcmitype/StillImage" />
      </cc:Work>
    </rdf:RDF>
  </metadata>
  <defs
     id="defs12" />
  <g
     id="g4"
     transform="translate(-813 251)">
    <path
       id="path6"
       white-space="normal"
       style="line-height:normal;font-variant-ligatures:normal;font-variant-position:normal;font-variant-caps:normal;font-variant-numeric:normal;font-variant-alternates:normal;font-feature-settings:normal;text-indent:0;text-align:start;text-decoration-line:none;text-decoration-style:solid;text-decoration-color:#000;text-transform:none;text-orientation:mixed;shape-padding:0;isolation:auto;mix-blend-mode:normal"
       overflow="visible"
       font-weight="400"
       font-family="sans-serif"
       fill="#666"
       d="M820.5-251c-4.13 0-7.5 3.37-7.5 7.5s3.37 7.5 7.5 7.5c.218 0 .431-.015.645-.033.017-.038.024-.078.045-.115l1.252-2.207a5.504 5.504 0 0 1-1.942.355c-3.05 0-5.5-2.45-5.5-5.5s2.45-5.5 5.5-5.5a5.485 5.485 0 0 1 5.348 6.773c.375.094.705.336.902.682l.606 1.068A7.436 7.436 0 0 0 828-243.5c0-4.13-3.37-7.5-7.5-7.5zm2.965 4.002a.425.425 0 0 0-.072.008v.008a.5.5 0 0 0-.25.156l-2.657 2.649-1.656-1.649c-.314-.514-1.201.373-.687.688l2 2a.5.5 0 0 0 .687 0l3-3a.5.5 0 0 0-.365-.86z"
       color="#000" />
    <path
       id="path8"
       white-space="normal"
       style="line-height:normal;text-indent:0;text-align:start;text-decoration-line:none;text-decoration-style:solid;text-decoration-color:#000;text-transform:none;isolation:auto;mix-blend-mode:normal"
       overflow="visible"
       font-weight="400"
       font-family="sans-serif"
       fill-rule="evenodd"
       fill="#f9c440"
       d="M825.48-241.271a.44.44 0 0 0-.36.22l-3.061 5.397a.437.437 0 0 0 .379.654h6.125a.437.437 0 0 0 .379-.654l-3.06-5.397a.439.439 0 0 0-.401-.22zM825-240h1v2h-1zm0 3h1v1h-1z"
       color="#000"
       class="warning" />
  </g>
</svg>
