<?xml version="1.0" encoding="UTF-8" standalone="no"?>
<svg
   height="16"
   width="16"
   id="svg2"
   version="1.1"
   sodipodi:docname="audio-volume-muted-symbolic.svg"
   inkscape:version="1.2.2 (b0a8486541, 2022-12-01)"
   xmlns:inkscape="http://www.inkscape.org/namespaces/inkscape"
   xmlns:sodipodi="http://sodipodi.sourceforge.net/DTD/sodipodi-0.dtd"
   xmlns="http://www.w3.org/2000/svg"
   xmlns:svg="http://www.w3.org/2000/svg"
   xmlns:rdf="http://www.w3.org/1999/02/22-rdf-syntax-ns#"
   xmlns:cc="http://creativecommons.org/ns#"
   xmlns:dc="http://purl.org/dc/elements/1.1/">
  <sodipodi:namedview
     id="namedview49079"
     pagecolor="#ffffff"
     bordercolor="#000000"
     borderopacity="0.25"
     inkscape:showpageshadow="2"
     inkscape:pageopacity="0.0"
     inkscape:pagecheckerboard="0"
     inkscape:deskcolor="#d1d1d1"
     showgrid="false"
     inkscape:zoom="32"
     inkscape:cx="7.078125"
     inkscape:cy="8.15625"
     inkscape:window-width="1278"
     inkscape:window-height="1005"
     inkscape:window-x="640"
     inkscape:window-y="13"
     inkscape:window-maximized="0"
     inkscape:current-layer="svg2"
     showguides="true" />
  <metadata
     id="metadata16">
    <rdf:RDF>
      <cc:Work
         rdf:about="">
        <dc:format>image/svg+xml</dc:format>
        <dc:type
           rdf:resource="http://purl.org/dc/dcmitype/StillImage" />
      </cc:Work>
    </rdf:RDF>
  </metadata>
  <defs
     id="defs14" />
  <path
     id="path64256"
     style="color:#000000;fill:#555761;stroke-linejoin:round;-inkscape-stroke:none;paint-order:markers fill stroke;fill-opacity:0.40000001"
     d="M 6.21875 1 C 6.0379674 1.0077625 5.8614523 1.0813901 5.7265625 1.2128906 L 2.9941406 3.8769531 L 7 7.8828125 L 7 1.75 C 7.0000477 1.4481769 6.8191833 1.1757259 6.5410156 1.0585938 C 6.4368307 1.0147639 6.3272196 0.99534248 6.21875 1 z M 1.6757812 4.3242188 L 0.57226562 4.5917969 C 0.23571314 4.6739183 -0.00081898119 4.9758399 0 5.3222656 L 0 10.677734 C -0.00081911993 11.02416 0.23571303 11.326082 0.57226562 11.408203 L 2.8183594 11.953125 L 5.7265625 14.787109 C 6.2017866 15.249996 6.9998205 14.913401 7 14.25 L 7 9.6484375 L 1.6757812 4.3242188 z " />
  <path
     id="path95579"
     style="color:#000000;fill:#555761;stroke-linejoin:round;-inkscape-stroke:none;paint-order:markers fill stroke;fill-opacity:0.40000001"
     d="M 9.25 5.25 L 8.5 6 L 8.5 9.3828125 L 9.5097656 10.392578 C 9.7267756 10.004562 10 9.2651884 10 8 C 10 5.9116841 9.25 5.25 9.25 5.25 z " />
  <path
     id="path100266"
     style="color:#000000;fill:#555761;stroke-linejoin:round;-inkscape-stroke:none;paint-order:markers fill stroke;fill-opacity:0.40000001"
     d="M 11.537109 2.9746094 L 10.466797 4.0253906 C 10.466797 4.0253906 10.665793 4.209804 10.9375 4.8378906 C 11.209207 5.4659774 11.5 6.4830418 11.5 8 C 11.5 9.5169582 11.209207 10.534023 10.9375 11.162109 C 10.857626 11.34675 10.784802 11.488973 10.720703 11.603516 L 11.800781 12.683594 C 11.949868 12.468857 12.14135 12.157963 12.314453 11.757812 C 12.667048 10.942742 13 9.7103984 13 8 C 13 6.2896016 12.667048 5.0572572 12.314453 4.2421875 C 11.961858 3.4271178 11.537109 2.9746094 11.537109 2.9746094 z " />
  <path
     id="path100270"
     style="color:#000000;fill:#555761;stroke-linejoin:round;-inkscape-stroke:none;paint-order:markers fill stroke;fill-opacity:0.40000001"
     d="M 13.791016 0.73046875 L 12.708984 1.7695312 C 12.708984 1.7695312 13.10747 2.1688099 13.566406 3.1816406 C 14.025344 4.1944713 14.5 5.7708289 14.5 8 C 14.5 10.229171 14.025344 11.805529 13.566406 12.818359 C 13.346967 13.302641 13.143126 13.643935 12.988281 13.871094 L 14.056641 14.939453 C 14.282013 14.638051 14.616756 14.13673 14.933594 13.4375 C 15.474654 12.243429 16 10.443195 16 8 C 16 5.5568054 15.474654 3.7565712 14.933594 2.5625 C 14.392532 1.3684288 13.791016 0.73046875 13.791016 0.73046875 z " />
  <rect
     style="font-variation-settings:normal;vector-effect:none;fill:#555761;fill-opacity:1;stroke:none;stroke-width:0.992001;stroke-linecap:square;stroke-linejoin:miter;stroke-miterlimit:4;stroke-dasharray:none;stroke-dashoffset:0;stroke-opacity:1;-inkscape-stroke:none;marker:none;stop-color:#000000"
     id="rect2480-1-6"
     width="1.248"
     height="19.799999"
     x="-0.62400001"
     y="1.4137089"
     rx="0.5"
     ry="0.5"
     transform="rotate(-45)" />
</svg>
