<?xml version="1.0" encoding="UTF-8" standalone="no"?>
<svg
   height="16"
   id="svg7384"
   version="1.1"
   width="16.000196"
   sodipodi:docname="battery-level-10-symbolic.svg"
   inkscape:version="1.1.1 (3bf5ae0d25, 2021-09-20)"
   xmlns:inkscape="http://www.inkscape.org/namespaces/inkscape"
   xmlns:sodipodi="http://sodipodi.sourceforge.net/DTD/sodipodi-0.dtd"
   xmlns="http://www.w3.org/2000/svg"
   xmlns:svg="http://www.w3.org/2000/svg"
   xmlns:rdf="http://www.w3.org/1999/02/22-rdf-syntax-ns#"
   xmlns:cc="http://creativecommons.org/ns#"
   xmlns:dc="http://purl.org/dc/elements/1.1/">
  <sodipodi:namedview
     id="namedview17"
     pagecolor="#ffffff"
     bordercolor="#666666"
     borderopacity="1.0"
     inkscape:pageshadow="2"
     inkscape:pageopacity="0.0"
     inkscape:pagecheckerboard="0"
     showgrid="false"
     inkscape:zoom="120.56171"
     inkscape:cx="8.0000527"
     inkscape:cy="13.308538"
     inkscape:window-width="2560"
     inkscape:window-height="1387"
     inkscape:window-x="1920"
     inkscape:window-y="29"
     inkscape:window-maximized="1"
     inkscape:current-layer="svg7384" />
  <metadata
     id="metadata90">
    <rdf:RDF>
      <cc:Work
         rdf:about="">
        <dc:format>image/svg+xml</dc:format>
        <dc:type
           rdf:resource="http://purl.org/dc/dcmitype/StillImage" />
        <dc:title>elementary Symbolic Icon Theme</dc:title>
      </cc:Work>
    </rdf:RDF>
  </metadata>
  <title
     id="title9167">elementary Symbolic Icon Theme</title>
  <defs
     id="defs7386" />
  <path
     d="m 3,15 c 0,0.554 0.446,1 1,1 h 8 c 0.554,0 1,-0.446 1,-1 V 3 C 13,2.446 12.554,2 12,2 H 10 V 1 C 10,0.446 9.554,0 9,0 H 7 C 6.446,0 6,0.446 6,1 V 2 H 4 C 3.446,2 3,2.446 3,3 Z M 4,14.5 V 3.5 C 4,3.223 4.223,3 4.5,3 h 7 C 11.777,3 12,3.223 12,3.5 v 11 c 0,0.277 -0.223,0.5 -0.5,0.5 h -7 C 4.223,15 4,14.777 4,14.5 Z M 7,2 V 1.5 C 7,1.223 7.223,1 7.5,1 h 1 C 8.777,1 9,1.223 9,1.5 V 2 Z"
     id="path13417"
     style="color:#bebebe;display:inline;overflow:visible;visibility:visible;fill:#666666;fill-opacity:1;fill-rule:nonzero;stroke:none;stroke-width:1;marker:none;enable-background:accumulate" />
  <path
     class="warning"
     d="M 5,13.75 C 5,14.005151 5.18747,14 5.18747,14 h 5.62406 c 0,0 0.18747,-0.01334 0.18747,-0.25 0.002,-0.25723 0,-0.75 0,-0.75 H 5 Z"
     id="path13466"
     style="color:#bebebe;display:inline;overflow:visible;visibility:visible;opacity:1;fill:#c6262e;fill-opacity:1;fill-rule:nonzero;stroke:none;stroke-width:0.707107;marker:none;enable-background:accumulate"
     sodipodi:nodetypes="ccccccc" />
  <g
     id="layer10"
     style="display:inline"
     transform="translate(-333.0002,562)" />
  <g
     id="layer11"
     transform="translate(-333.0002,562)" />
  <g
     id="layer13"
     style="display:inline"
     transform="translate(-333.0002,562)" />
  <g
     id="layer14"
     transform="translate(-333.0002,562)" />
  <g
     id="layer15"
     style="display:inline"
     transform="translate(-333.0002,562)" />
  <g
     id="g71291"
     style="display:inline"
     transform="translate(-333.0002,562)" />
  <g
     id="g4953"
     style="display:inline"
     transform="translate(-333.0002,562)" />
  <g
     id="layer12"
     style="display:inline"
     transform="translate(-333.0002,562)" />
</svg>
