<?xml version="1.0" encoding="UTF-8" standalone="no"?>
<svg
   xmlns:dc="http://purl.org/dc/elements/1.1/"
   xmlns:cc="http://creativecommons.org/ns#"
   xmlns:rdf="http://www.w3.org/1999/02/22-rdf-syntax-ns#"
   xmlns:svg="http://www.w3.org/2000/svg"
   xmlns="http://www.w3.org/2000/svg"
   width="16.000196"
   version="1.1"
   id="svg7384"
   height="16">
  <metadata
     id="metadata90">
    <rdf:RDF>
      <cc:Work
         rdf:about="">
        <dc:format>image/svg+xml</dc:format>
        <dc:type
           rdf:resource="http://purl.org/dc/dcmitype/StillImage" />
        <dc:title>elementary Symbolic Icon Theme</dc:title>
      </cc:Work>
    </rdf:RDF>
  </metadata>
  <title
     id="title9167">elementary Symbolic Icon Theme</title>
  <defs
     id="defs7386" />
  <g
     transform="translate(-333.0002,562)"
     style="display:inline"
     id="layer9">
    <path
       style="color:#bebebe;display:inline;overflow:visible;visibility:visible;fill:#666666;fill-opacity:1;fill-rule:nonzero;stroke:none;stroke-width:1;marker:none;enable-background:accumulate"
       id="path13417"
       d="m 336.0002,-547 c 0,0.554 0.446,1 1,1 l 8,0 c 0.554,0 1,-0.446 1,-1 l 0,-12 c 0,-0.554 -0.446,-1 -1,-1 l -2,0 0,-1 c 0,-0.554 -0.446,-1 -1,-1 l -2,0 c -0.554,0 -1,0.446 -1,1 l 0,1 -2,0 c -0.554,0 -1,0.446 -1,1 z m 1,-0.5 0,-11 c 0,-0.277 0.223,-0.5 0.5,-0.5 l 7,0 c 0.277,0 0.5,0.223 0.5,0.5 l 0,11 c 0,0.277 -0.223,0.5 -0.5,0.5 l -7,0 c -0.277,0 -0.5,-0.223 -0.5,-0.5 z m 3,-12.5 0,-0.5 c 0,-0.277 0.223,-0.5 0.5,-0.5 l 1,0 c 0.277,0 0.5,0.223 0.5,0.5 l 0,0.5 z" />
    <path
       style="color:#bebebe;display:inline;overflow:visible;visibility:visible;fill:#fbc02d;fill-opacity:1;fill-rule:nonzero;stroke:none;stroke-width:0.99999994;marker:none;enable-background:accumulate"
       id="path13466"
       d="m 338.0002,-548.16667 c 0,0.0923 0.0836,0.16667 0.18747,0.16667 h 5.62406 c 0.10386,0 0.18747,-0.0743 0.18747,-0.16667 0.002,-0.51446 0,-1.83333 0,-1.83333 h -5.999 c 0,0 0,1.26342 0,1.83333 z"
       class="warning" />
  </g>
  <g
     transform="translate(-333.0002,562)"
     style="display:inline"
     id="layer10" />
  <g
     transform="translate(-333.0002,562)"
     id="layer11" />
  <g
     transform="translate(-333.0002,562)"
     style="display:inline"
     id="layer13" />
  <g
     transform="translate(-333.0002,562)"
     id="layer14" />
  <g
     transform="translate(-333.0002,562)"
     style="display:inline"
     id="layer15" />
  <g
     transform="translate(-333.0002,562)"
     style="display:inline"
     id="g71291" />
  <g
     transform="translate(-333.0002,562)"
     style="display:inline"
     id="g4953" />
  <g
     transform="translate(-333.0002,562)"
     style="display:inline"
     id="layer12" />
</svg>
