<?xml version="1.0" encoding="UTF-8" standalone="no"?>
<svg
   height="16"
   id="svg7384"
   version="1.1"
   width="16.000196"
   sodipodi:docname="battery-level-90-symbolic.svg"
   inkscape:version="1.1.1 (3bf5ae0d25, 2021-09-20)"
   xmlns:inkscape="http://www.inkscape.org/namespaces/inkscape"
   xmlns:sodipodi="http://sodipodi.sourceforge.net/DTD/sodipodi-0.dtd"
   xmlns="http://www.w3.org/2000/svg"
   xmlns:svg="http://www.w3.org/2000/svg"
   xmlns:rdf="http://www.w3.org/1999/02/22-rdf-syntax-ns#"
   xmlns:cc="http://creativecommons.org/ns#"
   xmlns:dc="http://purl.org/dc/elements/1.1/">
  <sodipodi:namedview
     id="namedview17"
     pagecolor="#ffffff"
     bordercolor="#666666"
     borderopacity="1.0"
     inkscape:pageshadow="2"
     inkscape:pageopacity="0.0"
     inkscape:pagecheckerboard="0"
     showgrid="false"
     inkscape:zoom="42.625"
     inkscape:cx="8.0117302"
     inkscape:cy="7.9882698"
     inkscape:window-width="2560"
     inkscape:window-height="1387"
     inkscape:window-x="1920"
     inkscape:window-y="29"
     inkscape:window-maximized="1"
     inkscape:current-layer="svg7384" />
  <metadata
     id="metadata90">
    <rdf:RDF>
      <cc:Work
         rdf:about="">
        <dc:format>image/svg+xml</dc:format>
        <dc:type
           rdf:resource="http://purl.org/dc/dcmitype/StillImage" />
        <dc:title>elementary Symbolic Icon Theme</dc:title>
      </cc:Work>
    </rdf:RDF>
  </metadata>
  <title
     id="title9167">elementary Symbolic Icon Theme</title>
  <defs
     id="defs7386" />
  <g
     id="layer9"
     style="display:inline"
     transform="translate(-313.0002,562)">
    <path
       d="m 316.0002,-547 c 0,0.554 0.446,1 1,1 l 8,0 c 0.554,0 1,-0.446 1,-1 l 0,-12 c 0,-0.554 -0.446,-1 -1,-1 l -2,0 0,-1 c 0,-0.554 -0.446,-1 -1,-1 l -2,0 c -0.554,0 -1,0.446 -1,1 l 0,1 -2,0 c -0.554,0 -1,0.446 -1,1 z m 1,-0.5 0,-11 c 0,-0.277 0.223,-0.5 0.5,-0.5 l 7,0 c 0.277,0 0.5,0.223 0.5,0.5 l 0,11 c 0,0.277 -0.223,0.5 -0.5,0.5 l -7,0 c -0.277,0 -0.5,-0.223 -0.5,-0.5 z m 3,-12.5 0,-0.5 c 0,-0.277 0.223,-0.5 0.5,-0.5 l 1,0 c 0.277,0 0.5,0.223 0.5,0.5 l 0,0.5 z"
       id="path13313"
       style="color:#bebebe;display:inline;overflow:visible;visibility:visible;fill:#666666;fill-opacity:1;fill-rule:nonzero;stroke:none;stroke-width:1;marker:none;enable-background:accumulate" />
    <path
       style="color:#bebebe;display:inline;overflow:visible;visibility:visible;opacity:1;fill:#666666;fill-opacity:1;fill-rule:nonzero;stroke:none;stroke-width:1;marker:none;enable-background:accumulate"
       id="path4147"
       d="m 318.0002,-548.16667 c 0,0.0923 0.0836,0.16666 0.1875,0.16666 h 5.625 c 0.10388,0 0.1875,-0.0743 0.1875,-0.16666 V -557 h -6 z"
       sodipodi:nodetypes="ssssccs" />
  </g>
  <g
     id="layer10"
     style="display:inline"
     transform="translate(-313.0002,562)" />
  <g
     id="layer11"
     transform="translate(-313.0002,562)" />
  <g
     id="layer13"
     style="display:inline"
     transform="translate(-313.0002,562)" />
  <g
     id="layer14"
     transform="translate(-313.0002,562)" />
  <g
     id="layer15"
     style="display:inline"
     transform="translate(-313.0002,562)" />
  <g
     id="g71291"
     style="display:inline"
     transform="translate(-313.0002,562)" />
  <g
     id="g4953"
     style="display:inline"
     transform="translate(-313.0002,562)" />
  <g
     id="layer12"
     style="display:inline"
     transform="translate(-313.0002,562)" />
</svg>
