<?xml version="1.0" encoding="UTF-8" standalone="no"?>
<svg
   xmlns:dc="http://purl.org/dc/elements/1.1/"
   xmlns:cc="http://creativecommons.org/ns#"
   xmlns:rdf="http://www.w3.org/1999/02/22-rdf-syntax-ns#"
   xmlns:svg="http://www.w3.org/2000/svg"
   xmlns="http://www.w3.org/2000/svg"
   width="16.000004"
   version="1.1"
   id="svg7384"
   height="16">
  <metadata
     id="metadata90">
    <rdf:RDF>
      <cc:Work
         rdf:about="">
        <dc:format>image/svg+xml</dc:format>
        <dc:type
           rdf:resource="http://purl.org/dc/dcmitype/StillImage" />
        <dc:title>elementary Symbolic Icon Theme</dc:title>
      </cc:Work>
    </rdf:RDF>
  </metadata>
  <title
     id="title9167">elementary Symbolic Icon Theme</title>
  <defs
     id="defs7386" />
  <g
     transform="translate(-493.0004,542)"
     style="display:inline"
     label="status"
     id="layer9">
    <path
       style="color:#bebebe;display:inline;overflow:visible;visibility:visible;fill:#666666;fill-opacity:1;fill-rule:nonzero;stroke:none;stroke-width:1;marker:none;enable-background:accumulate"
       id="rect3206-702"
       d="m 496.0004,-527 c 0,0.554 0.446,1 1,1 h 8 c 0.554,0 1,-0.446 1,-1 v -12 c 0,-0.554 -0.446,-1 -1,-1 h -2 v -1 c 0,-0.554 -0.446,-1 -1,-1 h -2 c -0.554,0 -1,0.446 -1,1 v 1 h -2 c -0.554,0 -1,0.446 -1,1 z m 1,-0.5 v -11 c 0,-0.277 0.223,-0.5 0.5,-0.5 h 7 c 0.277,0 0.5,0.223 0.5,0.5 v 11 c 0,0.277 -0.223,0.5 -0.5,0.5 h -7 c -0.277,0 -0.5,-0.223 -0.5,-0.5 z m 3,-12.5 v -0.5 c 0,-0.277 0.223,-0.5 0.5,-0.5 h 1 c 0.277,0 0.5,0.223 0.5,0.5 v 0.5 z" />
    <path
       style="color:#bebebe;display:inline;overflow:visible;visibility:visible;fill:#666666;fill-opacity:1;fill-rule:nonzero;stroke:none;stroke-width:1;marker:none;enable-background:accumulate"
       id="path3172-2"
       d="m 503.0004,-538 -5,5.9525 3,0.0475 -2,4 5,-6 h -3 z" />
  </g>
  <g
     transform="translate(-493.0004,542)"
     style="display:inline"
     id="layer10" />
  <g
     transform="translate(-493.0004,542)"
     style="display:inline"
     id="layer13" />
  <g
     transform="translate(-493.0004,542)"
     id="layer14" />
  <g
     transform="translate(-493.0004,542)"
     style="display:inline"
     id="layer15" />
  <g
     transform="translate(-493.0004,542)"
     style="display:inline"
     id="g71291" />
  <g
     transform="translate(-493.0004,542)"
     style="display:inline"
     id="g4953" />
  <g
     transform="translate(-493.0004,542)"
     style="display:inline"
     id="layer12" />
</svg>
