<?xml version="1.0" encoding="UTF-8" standalone="no"?>
<svg
   id="svg2816"
   height="16"
   width="16"
   version="1.0"
   sodipodi:docname="caffeine-cup-full-symbolic.svg"
   inkscape:version="1.2.2 (b0a8486541, 2022-12-01)"
   xmlns:inkscape="http://www.inkscape.org/namespaces/inkscape"
   xmlns:sodipodi="http://sodipodi.sourceforge.net/DTD/sodipodi-0.dtd"
   xmlns="http://www.w3.org/2000/svg"
   xmlns:svg="http://www.w3.org/2000/svg"
   xmlns:rdf="http://www.w3.org/1999/02/22-rdf-syntax-ns#"
   xmlns:cc="http://creativecommons.org/ns#"
   xmlns:dc="http://purl.org/dc/elements/1.1/">
  <sodipodi:namedview
     id="namedview18"
     pagecolor="#ffffff"
     bordercolor="#000000"
     borderopacity="0.25"
     inkscape:showpageshadow="2"
     inkscape:pageopacity="0.0"
     inkscape:pagecheckerboard="0"
     inkscape:deskcolor="#d1d1d1"
     showgrid="false"
     inkscape:zoom="18.272728"
     inkscape:cx="2.0522387"
     inkscape:cy="-4.487562"
     inkscape:window-width="1278"
     inkscape:window-height="1005"
     inkscape:window-x="632"
     inkscape:window-y="11"
     inkscape:window-maximized="0"
     inkscape:current-layer="svg2816" />
  <defs
     id="defs3199" />
  <metadata
     id="metadata8">
    <rdf:RDF>
      <cc:Work
         rdf:about="">
        <dc:format>image/svg+xml</dc:format>
        <dc:type
           rdf:resource="http://purl.org/dc/dcmitype/StillImage" />
      </cc:Work>
    </rdf:RDF>
  </metadata>
  <path
     style="opacity:1;fill:#555761;fill-opacity:1;stroke:none;stroke-width:1;stroke-linejoin:round;stroke-dasharray:none;stroke-opacity:0.5"
     d="m 0,6 c 0,3.76281 0.35979341,10 7,10 6.640206,0 7,-5.9995 7,-5.9995 h 1.60587 c 0.21842,0 0.39426,-0.1627401 0.39426,-0.3749999 V 8.3755 C 16.00013,8.1632402 15.82429,8 15.60587,8 H 14 c 0.0267,-0.6580244 0,-2 0,-2 z"
     id="path2990"
     sodipodi:nodetypes="cscssssccc" />
  <path
     style="color:#000000;fill:#555761;-inkscape-stroke:none"
     d="M 2.4960938,0.5 C 1.9811511,1.1960082 1.7301404,1.7963668 1.8144531,2.3945313 c 0.084313,0.5981644 0.479978,0.9529418 0.703125,1.1640625 0.223147,0.2111206 0.2829772,0.2959539 0.2910157,0.3339843 0.00804,0.03803 0.024447,0.2380136 -0.3339844,0.7734375 L 3.7226563,5.5 C 4.1949989,4.7944155 4.3985076,4.1664581 4.2753906,3.5839844 4.1522736,3.0015106 3.7629151,2.6712988 3.5488281,2.46875 3.3347412,2.2662012 3.3039301,2.2078866 3.3007813,2.1855469 3.2976324,2.1632071 3.2979527,1.9375783 3.7011719,1.3925781 Z"
     id="path3833" />
  <path
     style="color:#000000;fill:#555761;-inkscape-stroke:none"
     d="M 6.234375,0.5 C 5.7194324,1.1960082 5.4684217,1.7963668 5.5527344,2.3945313 c 0.084313,0.5981644 0.479978,0.9529418 0.703125,1.1640625 0.223147,0.2111206 0.2829771,0.2959538 0.2910156,0.3339843 0.00804,0.03803 0.0264,0.2380136 -0.3320313,0.7734375 L 7.4609375,5.5 C 7.9332801,4.7944155 8.1367889,4.1664581 8.0136719,3.5839844 7.8905549,3.0015107 7.5011963,2.6712988 7.2871094,2.46875 7.0730225,2.2662012 7.0422113,2.2078867 7.0390625,2.1855469 7.0359137,2.1632071 7.036234,1.9375783 7.4394531,1.3925781 Z"
     id="path3892" />
  <path
     style="color:#000000;fill:#555761;-inkscape-stroke:none"
     d="M 9.9726563,0.5 C 9.4577134,1.1960082 9.2086561,1.7963667 9.2929688,2.3945313 c 0.084313,0.5981645 0.4780247,0.9529418 0.7011718,1.1640625 0.2231474,0.2111206 0.2829774,0.2959539 0.2910154,0.3339843 0.008,0.03803 0.0264,0.2380136 -0.332031,0.7734375 L 11.199219,5.5 C 11.671562,4.7944155 11.87507,4.1664582 11.751953,3.5839844 11.628836,3.0015106 11.239478,2.6712988 11.025391,2.46875 10.811304,2.2662012 10.780493,2.2078866 10.777344,2.1855469 c -0.0031,-0.02234 -0.0028,-0.2479686 0.40039,-0.7929688 z"
     id="path3894" />
</svg>
