<?xml version="1.0" encoding="UTF-8" standalone="no"?>
<svg
   xmlns:dc="http://purl.org/dc/elements/1.1/"
   xmlns:cc="http://creativecommons.org/ns#"
   xmlns:rdf="http://www.w3.org/1999/02/22-rdf-syntax-ns#"
   xmlns:svg="http://www.w3.org/2000/svg"
   xmlns="http://www.w3.org/2000/svg"
   height="16"
   width="16"
   id="svg2"
   version="1.1">
  <metadata
     id="metadata14">
    <rdf:RDF>
      <cc:Work
         rdf:about="">
        <dc:format>image/svg+xml</dc:format>
        <dc:type
           rdf:resource="http://purl.org/dc/dcmitype/StillImage" />
      </cc:Work>
    </rdf:RDF>
  </metadata>
  <defs
     id="defs12" />
  <g
     transform="translate(-833 115)"
     id="g4">
    <path
       color="#000"
       d="M841.5-114a.5.5 0 1 0 0 1h3.793l-4.793 4.793-4.646-4.647a.5.5 0 1 0-.707.708l5.353 5.353 5.5-5.5v3.793a.5.5 0 1 0 1 0v-5.5z"
       fill="#666"
       fill-rule="evenodd"
       font-family="sans-serif"
       font-weight="400"
       overflow="visible"
       style="line-height:normal;font-variant-ligatures:normal;font-variant-position:normal;font-variant-caps:normal;font-variant-numeric:normal;font-variant-alternates:normal;font-feature-settings:normal;text-indent:0;text-align:start;text-decoration-line:none;text-decoration-style:solid;text-decoration-color:#000;text-transform:none;text-orientation:mixed;shape-padding:0;isolation:auto;mix-blend-mode:normal"
       white-space="normal"
       id="path6" />
    <path
       d="M834-101c0 1 1 1 1 1h2s1 0 1-1v-.5c0-1.5 2-1.5 2-1.5h2s2 0 2 1.5v.5c0 1 1 1 1 1h2s1 0 1-1v-1c0-3.5-5.5-3-5.5-3h-3s-5.5-.5-5.5 3z"
       fill="#666"
       fill-rule="evenodd"
       opacity=".4"
       id="path8" />
  </g>
</svg>
