<?xml version="1.0" encoding="UTF-8" standalone="no"?>
<svg
   xmlns:dc="http://purl.org/dc/elements/1.1/"
   xmlns:cc="http://creativecommons.org/ns#"
   xmlns:rdf="http://www.w3.org/1999/02/22-rdf-syntax-ns#"
   xmlns:svg="http://www.w3.org/2000/svg"
   xmlns="http://www.w3.org/2000/svg"
   version="1.1"
   id="svg2"
   width="16"
   height="16">
  <metadata
     id="metadata12">
    <rdf:RDF>
      <cc:Work
         rdf:about="">
        <dc:format>image/svg+xml</dc:format>
        <dc:type
           rdf:resource="http://purl.org/dc/dcmitype/StillImage" />
      </cc:Work>
    </rdf:RDF>
  </metadata>
  <defs
     id="defs10" />
  <g
     id="g4"
     transform="translate(-953 171)">
    <path
       id="path6"
       white-space="normal"
       style="line-height:normal;font-variant-ligatures:normal;font-variant-position:normal;font-variant-caps:normal;font-variant-numeric:normal;font-variant-alternates:normal;font-feature-settings:normal;text-indent:0;text-align:start;text-decoration-line:none;text-decoration-style:solid;text-decoration-color:#000;text-transform:none;text-orientation:mixed;shape-padding:0;isolation:auto;mix-blend-mode:normal;marker:none"
       overflow="visible"
       font-weight="400"
       font-family="sans-serif"
       fill="#666"
       d="M956.436-170c-1.373 0-2.499 1.111-2.499 2.479v9.042c0 1.368 1.126 2.479 2.499 2.479h9.128c1.373 0 2.499-1.111 2.499-2.479v-9.042c0-1.368-1.126-2.479-2.499-2.479zm0 .996h9.128c.844 0 1.502.654 1.502 1.483v9.042c0 .829-.658 1.483-1.502 1.483h-9.128a1.477 1.477 0 0 1-1.502-1.483v-9.042c0-.829.658-1.483 1.502-1.483z"
       color="#000" />
  </g>
</svg>
