<?xml version="1.0" encoding="UTF-8" standalone="no"?>
<svg
   xmlns:dc="http://purl.org/dc/elements/1.1/"
   xmlns:cc="http://creativecommons.org/ns#"
   xmlns:rdf="http://www.w3.org/1999/02/22-rdf-syntax-ns#"
   xmlns:svg="http://www.w3.org/2000/svg"
   xmlns="http://www.w3.org/2000/svg"
   version="1.1"
   id="svg2"
   width="16"
   height="16">
  <metadata
     id="metadata12">
    <rdf:RDF>
      <cc:Work
         rdf:about="">
        <dc:format>image/svg+xml</dc:format>
        <dc:type
           rdf:resource="http://purl.org/dc/dcmitype/StillImage" />
      </cc:Work>
    </rdf:RDF>
  </metadata>
  <defs
     id="defs10" />
  <g
     id="g4"
     transform="translate(-953 151)">
    <path
       id="path6"
       style="line-height:normal;-inkscape-font-specification:Sans;text-indent:0;text-align:start;text-decoration-line:none;text-transform:none;marker:none"
       overflow="visible"
       font-weight="400"
       font-family="Sans"
       fill="#666"
       d="M956.5-150a2.506 2.506 0 0 0-2.5 2.5v9c0 1.376 1.124 2.5 2.5 2.5h9c1.377 0 2.5-1.124 2.5-2.5v-9c0-1.376-1.123-2.5-2.5-2.5zm0 1h9c.84 0 1.5.66 1.5 1.5v9c0 .84-.66 1.5-1.5 1.5h-9c-.84 0-1.5-.66-1.5-1.5v-9c0-.84.66-1.5 1.5-1.5zm-1.5 6.875l5.25 4.5 6.75-8.937-2-1.813-5.218 6.594-3.063-2.656z"
       color="#000" />
  </g>
</svg>
