<?xml version="1.0" encoding="UTF-8" standalone="no"?>
<!-- Created with Inkscape (http://www.inkscape.org/) -->

<svg
   xmlns:dc="http://purl.org/dc/elements/1.1/"
   xmlns:cc="http://creativecommons.org/ns#"
   xmlns:rdf="http://www.w3.org/1999/02/22-rdf-syntax-ns#"
   xmlns:svg="http://www.w3.org/2000/svg"
   xmlns="http://www.w3.org/2000/svg"
   xmlns:sodipodi="http://sodipodi.sourceforge.net/DTD/sodipodi-0.dtd"
   xmlns:inkscape="http://www.inkscape.org/namespaces/inkscape"
   id="svg7384"
   height="16"
   width="16"
   version="1.1"
   inkscape:version="0.48.4 r9939"
   sodipodi:docname="dialog-information-symbolic.svg">
  <defs
     id="defs9" />
  <sodipodi:namedview
     pagecolor="#ffffff"
     bordercolor="#666666"
     borderopacity="1"
     objecttolerance="10"
     gridtolerance="10"
     guidetolerance="10"
     inkscape:pageopacity="0"
     inkscape:pageshadow="2"
     inkscape:window-width="966"
     inkscape:window-height="688"
     id="namedview7"
     showgrid="true"
     inkscape:zoom="29.5"
     inkscape:cx="7.7995664"
     inkscape:cy="9.005379"
     inkscape:window-x="1435"
     inkscape:window-y="92"
     inkscape:window-maximized="0"
     inkscape:current-layer="svg7384"
     showguides="true"
     inkscape:guide-bbox="true">
    <inkscape:grid
       type="xygrid"
       id="grid3766" />
  </sodipodi:namedview>
  <metadata
     id="metadata90">
    <rdf:RDF>
      <cc:Work
         rdf:about="">
        <dc:format>image/svg+xml</dc:format>
        <dc:type
           rdf:resource="http://purl.org/dc/dcmitype/StillImage" />
        <dc:title>Gnome Symbolic Icon Theme</dc:title>
      </cc:Work>
    </rdf:RDF>
  </metadata>
  <title
     id="title9167">Gnome Symbolic Icon Theme</title>
  <g
     id="layer9"
     transform="translate(-341,-257)">
    <path
       id="path10839-3"
       style="text-indent:0;text-transform:none;block-progression:tb;color:#bebebe;fill:#bebebe;enable-background:new"
       d="m 349,258.03 c -3.8533,0 -6.9688,3.1155 -6.9688,6.9688 0,3.8533 3.1155,6.9688 6.9688,6.9688 3.8533,0 6.9688,-3.1155 6.9688,-6.9688 0,-3.8533 -3.1155,-6.9688 -6.9688,-6.9688 z"
       inkscape:connector-curvature="0"
       sodipodi:nodetypes="sssss" />
  </g>
  <path
     id="path19592"
     style="color:#bebebe;fill:#ffffff;fill-opacity:1"
     d="M 9,12 9.00296,6.998837 c 0.007,-0.52831 -0.47163,-0.9999996 -1,-0.9999996 -0.52837,0 -1.007,0.4716896 -1,0.9999996 C 7.00296,6.998837 7,13 7,12 c 0,0 0,1 1,1 1,0 1,-1 1,-1 z M 8.0042634,4.9976374 c 0.55228,0 1,-0.44772 1,-1 0,-0.55228 -0.44772,-1.000001 -1,-1.000001 -0.55228,0 -1,0.447721 -1,1.000001 0,0.55228 0.44772,1 1,1 z"
     inkscape:connector-curvature="0"
     sodipodi:nodetypes="ccscczcsssss" />
</svg>
