<?xml version="1.0" encoding="UTF-8" standalone="no"?>
<svg
   xmlns:dc="http://purl.org/dc/elements/1.1/"
   xmlns:cc="http://creativecommons.org/ns#"
   xmlns:rdf="http://www.w3.org/1999/02/22-rdf-syntax-ns#"
   xmlns:svg="http://www.w3.org/2000/svg"
   xmlns="http://www.w3.org/2000/svg"
   version="1.1"
   id="svg2"
   width="16"
   height="16">
  <metadata
     id="metadata12">
    <rdf:RDF>
      <cc:Work
         rdf:about="">
        <dc:format>image/svg+xml</dc:format>
        <dc:type
           rdf:resource="http://purl.org/dc/dcmitype/StillImage" />
      </cc:Work>
    </rdf:RDF>
  </metadata>
  <defs
     id="defs10" />
  <g
     id="g4"
     transform="translate(-613 111)">
    <path
       id="path6"
       white-space="normal"
       style="line-height:normal;font-variant-ligatures:normal;font-variant-position:normal;font-variant-caps:normal;font-variant-numeric:normal;font-variant-alternates:normal;font-feature-settings:normal;text-indent:0;text-align:start;text-decoration-line:none;text-decoration-style:solid;text-decoration-color:#000;text-transform:none;text-orientation:mixed;shape-padding:0;isolation:auto;mix-blend-mode:normal"
       overflow="visible"
       font-weight="400"
       font-family="sans-serif"
       fill-rule="evenodd"
       fill="#666"
       d="M616-109a1.04 1.04 0 0 0-.885.527c-.122.245-.115.473-.115.473s-.228-.007-.473.115A1.04 1.04 0 0 0 614-107v8.5s-.007.353.178.723c.184.369.655.777 1.322.777h11c.667 0 1.138-.408 1.322-.777.185-.37.178-.723.178-.723v-8.5a1.04 1.04 0 0 0-.525-.885c-.245-.122-.475-.115-.475-.115h-6a1.04 1.04 0 0 0-.525-.885c-.245-.122-.475-.115-.475-.115zm0 1h4v1h7v8.5s-.007.147-.072.277c-.066.131-.095.223-.428.223h-11c-.333 0-.362-.092-.428-.223A.785.785 0 0 1 615-98.5v-8.5h1z"
       color="#000" />
  </g>
</svg>
