<?xml version="1.0" encoding="UTF-8" standalone="no"?>
<svg
   xmlns:dc="http://purl.org/dc/elements/1.1/"
   xmlns:cc="http://creativecommons.org/ns#"
   xmlns:rdf="http://www.w3.org/1999/02/22-rdf-syntax-ns#"
   xmlns:svg="http://www.w3.org/2000/svg"
   xmlns="http://www.w3.org/2000/svg"
   height="16"
   width="16"
   id="svg2"
   version="1.1">
  <metadata
     id="metadata12">
    <rdf:RDF>
      <cc:Work
         rdf:about="">
        <dc:format>image/svg+xml</dc:format>
        <dc:type
           rdf:resource="http://purl.org/dc/dcmitype/StillImage" />
      </cc:Work>
    </rdf:RDF>
  </metadata>
  <defs
     id="defs10" />
  <g
     transform="translate(-733 111)"
     id="g4">
    <path
       color="#000"
       d="M734.99-101.94a3.492 3.492 0 0 0 0 4.95 3.492 3.492 0 0 0 4.95 0l.353-.353-.707-.707-.354.353c-.979.98-2.556.98-3.535 0a2.495 2.495 0 0 1 0-3.535l7.07-7.071c.98-.98 2.557-.98 3.536 0 .98.979.98 2.556 0 3.535l-.712.713-2.47 2.47-.207.206-.853.854a1.497 1.497 0 0 1-2.122 0 1.497 1.497 0 0 1 0-2.121l1.061-1.061.707-.707-.707-.707-1.768 1.767c-.979.98-.979 2.557 0 3.536.98.98 2.557.98 3.536 0l.853-.854 1.268-1.267 2.122-2.122a3.492 3.492 0 0 0 0-4.95 3.492 3.492 0 0 0-4.95 0z"
       fill="#666"
       overflow="visible"
       style="isolation:auto;mix-blend-mode:normal;marker:none"
       id="path6" />
  </g>
</svg>
