<?xml version="1.0" encoding="UTF-8" standalone="no"?>
<svg
   xmlns:dc="http://purl.org/dc/elements/1.1/"
   xmlns:cc="http://creativecommons.org/ns#"
   xmlns:rdf="http://www.w3.org/1999/02/22-rdf-syntax-ns#"
   xmlns:svg="http://www.w3.org/2000/svg"
   xmlns="http://www.w3.org/2000/svg"
   version="1.1"
   id="svg2"
   width="16"
   height="16">
  <metadata
     id="metadata12">
    <rdf:RDF>
      <cc:Work
         rdf:about="">
        <dc:format>image/svg+xml</dc:format>
        <dc:type
           rdf:resource="http://purl.org/dc/dcmitype/StillImage" />
      </cc:Work>
    </rdf:RDF>
  </metadata>
  <defs
     id="defs10" />
  <g
     id="g4"
     transform="translate(-273 151)"
     color="#bebebe">
    <path
       id="path6"
       style="marker:none"
       overflow="visible"
       fill="#666"
       d="M279-150v2h-1c-2.77 0-5 2.23-5 5s2.23 5 5 5v-2c-1.662 0-3-1.338-3-3s1.338-3 3-3h1v2l4-3zm5 2v2c1.662 0 3 1.338 3 3s-1.338 3-3 3h-1v-2l-4 3 4 3v-2h1c2.77 0 5-2.23 5-5s-2.23-5-5-5z" />
  </g>
</svg>
