<?xml version="1.0" encoding="UTF-8" standalone="no"?>
<svg
   height="16"
   width="16"
   id="svg2"
   version="1.1"
   sodipodi:docname="network-wireless-offline-symbolic.svg"
   inkscape:version="1.2.2 (b0a8486541, 2022-12-01)"
   xmlns:inkscape="http://www.inkscape.org/namespaces/inkscape"
   xmlns:sodipodi="http://sodipodi.sourceforge.net/DTD/sodipodi-0.dtd"
   xmlns="http://www.w3.org/2000/svg"
   xmlns:svg="http://www.w3.org/2000/svg"
   xmlns:rdf="http://www.w3.org/1999/02/22-rdf-syntax-ns#"
   xmlns:cc="http://creativecommons.org/ns#"
   xmlns:dc="http://purl.org/dc/elements/1.1/">
  <sodipodi:namedview
     id="namedview245"
     pagecolor="#ffffff"
     bordercolor="#000000"
     borderopacity="0.25"
     inkscape:showpageshadow="2"
     inkscape:pageopacity="0.0"
     inkscape:pagecheckerboard="0"
     inkscape:deskcolor="#d1d1d1"
     showgrid="false"
     inkscape:zoom="22.627417"
     inkscape:cx="12.750019"
     inkscape:cy="8.1759222"
     inkscape:window-width="1278"
     inkscape:window-height="1005"
     inkscape:window-x="1088"
     inkscape:window-y="98"
     inkscape:window-maximized="0"
     inkscape:current-layer="svg2"
     showguides="true" />
  <metadata
     id="metadata14">
    <rdf:RDF>
      <cc:Work
         rdf:about="">
        <dc:format>image/svg+xml</dc:format>
        <dc:type
           rdf:resource="http://purl.org/dc/dcmitype/StillImage" />
      </cc:Work>
    </rdf:RDF>
  </metadata>
  <defs
     id="defs12" />
  <path
     id="path6-3"
     style="stroke-width:1;marker:none;fill:#555761"
     d="M 8 1.625 C 5.7343723 1.625 2.1674648 2.240655 0 4.1894531 L 7.25 14.375 L 8.75 14.375 L 9.9121094 12.740234 L 9.5859375 12.414062 C 9.4505432 12.278668 9.3398845 12.126119 9.2519531 11.964844 L 8.25 13.375 L 7.75 13.375 L 1.4394531 4.4863281 C 3.2890513 3.1081961 5.5978694 2.625 8 2.625 C 10.403199 2.625 12.712016 3.1081961 14.560547 4.4863281 L 11.333984 9.03125 C 11.671916 9.0887325 11.99072 9.2292831 12.257812 9.4453125 L 16 4.1894531 C 13.833602 2.2417217 10.265628 1.625 8 1.625 z " />
  <path
     d="m 15,10 c 0.265625,0 0.519531,0.105469 0.707031,0.292969 0.390625,0.390625 0.390625,1.023437 0,1.414062 L 14.414062,13 l 1.292969,1.292969 c 0.390625,0.390625 0.390625,1.023437 0,1.414062 -0.390625,0.390625 -1.023437,0.390625 -1.414062,0 L 13,14.414062 11.707031,15.707031 c -0.390625,0.390625 -1.023437,0.390625 -1.414062,0 -0.3906252,-0.390625 -0.3906252,-1.023437 0,-1.414062 L 11.585938,13 10.292969,11.707031 c -0.3906252,-0.390625 -0.3906252,-1.023437 0,-1.414062 C 10.480469,10.105469 10.734375,10 11,10 c 0.265625,0 0.519531,0.105469 0.707031,0.292969 L 13,11.585938 14.292969,10.292969 C 14.480469,10.105469 14.734375,10 15,10 Z m 0,0"
     id="path2"
     style="fill:#555761;fill-opacity:1" />
</svg>
