<?xml version="1.0" encoding="UTF-8" standalone="no"?>
<svg
   xmlns:dc="http://purl.org/dc/elements/1.1/"
   xmlns:cc="http://creativecommons.org/ns#"
   xmlns:rdf="http://www.w3.org/1999/02/22-rdf-syntax-ns#"
   xmlns:svg="http://www.w3.org/2000/svg"
   xmlns="http://www.w3.org/2000/svg"
   height="16"
   width="16"
   id="svg2"
   version="1.1">
  <metadata
     id="metadata14">
    <rdf:RDF>
      <cc:Work
         rdf:about="">
        <dc:format>image/svg+xml</dc:format>
        <dc:type
           rdf:resource="http://purl.org/dc/dcmitype/StillImage" />
      </cc:Work>
    </rdf:RDF>
  </metadata>
  <defs
     id="defs12" />
  <g
     transform="translate(-393 351)"
     id="g4">
    <path
       color="#000"
       d="M401-348c-2.853 0-5.468 1.111-7.5 2.938l2.75 3c-.151-.28-.25-.601-.25-.938 0-.229.052-.45.125-.656L395-344.875c1.733-1.292 3.748-2.156 6-2.156 2.253 0 4.267.864 6 2.156l-1.125 1.219c.073.206.125.427.125.656 0 .337-.099.657-.25.938l2.75-3C406.47-346.89 403.854-348 401-348zm-4.094 6.688l4.094 4.468 4.094-4.469A2.02 2.02 0 0 1 404-341c-.168 0-.319-.018-.469-.063l-2.53 2.782-2.532-2.781c-.15.044-.3.062-.469.062a2.02 2.02 0 0 1-1.094-.313z"
       fill="#666"
       opacity=".35"
       overflow="visible"
       style="marker:none"
       id="path6" />
    <path
       d="M398-344a1 1 0 1 0 0 2 1 1 0 0 0 0-2zm3 0a1 1 0 1 0 0 2 1 1 0 0 0 0-2zm3 0a1 1 0 1 0 0 2 1 1 0 0 0 0-2z"
       fill="#666"
       id="path8" />
  </g>
</svg>
