<?xml version="1.0" encoding="UTF-8" standalone="no"?>
<svg
   xmlns:dc="http://purl.org/dc/elements/1.1/"
   xmlns:cc="http://creativecommons.org/ns#"
   xmlns:rdf="http://www.w3.org/1999/02/22-rdf-syntax-ns#"
   xmlns:svg="http://www.w3.org/2000/svg"
   xmlns="http://www.w3.org/2000/svg"
   version="1.1"
   id="svg2"
   width="16"
   height="16">
  <metadata
     id="metadata14">
    <rdf:RDF>
      <cc:Work
         rdf:about="">
        <dc:format>image/svg+xml</dc:format>
        <dc:type
           rdf:resource="http://purl.org/dc/dcmitype/StillImage" />
      </cc:Work>
    </rdf:RDF>
  </metadata>
  <defs
     id="defs12" />
  <g
     id="g4"
     transform="translate(-493 311)">
    <path
       id="path6"
       opacity=".4"
       fill="#666"
       d="M498-308v4h5v-4zm1 1h3v2h-3zm-5 4v1h2c0-.367.104-.705.276-1zm11.725 0l.014.027c.087-.008.172-.027.261-.027zm.275 0c.353 0 .687.074 1 .19v-.19zm0 1c0 .392-.115.754-.308 1.063A.99.99 0 0 1 506-301c.554 0 1 .442 1 1v1h-2v-1c0-.11.03-.21.063-.309a1.987 1.987 0 0 1-1.059.309c0 .01-.004.02-.004.031v.969h-.5s-.5 0-.5.5v3c0 .5.5.5.5.5h5c.5 0 .5-.5.5-.5v-3c0-.5-.5-.5-.5-.5h-.5v-.969c0-1.12-.892-2.031-2-2.031zm-11 1v4h5v-3h-1v2h-3v-2h2a1.99 1.99 0 0 1-1.724-1zm6 1v3h1v-3z" />
    <path
       id="path8"
       fill="#666"
       d="M498-303a1 1 0 1 0 0 2 1 1 0 0 0 0-2zm3 0a1 1 0 1 0 0 2 1 1 0 0 0 0-2zm3 0a1 1 0 1 0 0 2 1 1 0 0 0 0-2z" />
  </g>
</svg>
