<?xml version="1.0" encoding="UTF-8" standalone="no"?>
<svg
   height="16px"
   viewBox="0 0 16 16"
   width="16px"
   version="1.1"
   id="svg8"
   sodipodi:docname="network-no-route-symbolic.svg"
   inkscape:version="1.1.2 (0a00cf5339, 2022-02-04)"
   xmlns:inkscape="http://www.inkscape.org/namespaces/inkscape"
   xmlns:sodipodi="http://sodipodi.sourceforge.net/DTD/sodipodi-0.dtd"
   xmlns="http://www.w3.org/2000/svg"
   xmlns:svg="http://www.w3.org/2000/svg">
  <defs
     id="defs12" />
  <sodipodi:namedview
     id="namedview10"
     pagecolor="#ffffff"
     bordercolor="#666666"
     borderopacity="1.0"
     inkscape:pageshadow="2"
     inkscape:pageopacity="0.0"
     inkscape:pagecheckerboard="0"
     showgrid="false"
     inkscape:zoom="42.625"
     inkscape:cx="8"
     inkscape:cy="8"
     inkscape:window-width="1920"
     inkscape:window-height="1029"
     inkscape:window-x="0"
     inkscape:window-y="0"
     inkscape:window-maximized="1"
     inkscape:current-layer="svg8" />
  <path
     d="M 8.167969,3.007812 C 7.730469,2.984375 7.285156,3.054688 6.867188,3.230469 5.75,3.691406 5.015625,4.789062 5.015625,6 h 2 c 0,-0.40625 0.242187,-0.769531 0.617187,-0.925781 0.375,-0.152344 0.800782,-0.070313 1.089844,0.21875 C 9.011719,5.582031 9.09375,6.007812 8.941406,6.382812 8.785156,6.757812 8.421875,7 8.015625,7 c -0.550781,0 -1,0.449219 -1,1 v 2 h 2 V 8.820312 c 0.785156,-0.28125 1.441406,-0.875 1.773437,-1.671874 C 11.25,6.03125 10.992188,4.734375 10.136719,3.878906 9.601562,3.34375 8.894531,3.042969 8.167969,3.007812 Z M 8.015625,11 c -0.550781,0 -1,0.449219 -1,1 0,0.550781 0.449219,1 1,1 0.550781,0 1,-0.449219 1,-1 0,-0.550781 -0.449219,-1 -1,-1 z m 0,0"
     id="path2"
     style="fill:#2e3436" />
  <path
     d="m 12,1 c -0.265625,0 -0.519531,0.105469 -0.707031,0.292969 -0.390625,0.390625 -0.390625,1.023437 0,1.414062 L 12.585938,4 h -0.941407 c 0.34375,0.582031 0.527344,1.242188 0.53125,1.910156 -0.0039,0.03125 -0.0078,0.058594 -0.01172,0.089844 h 0.421876 L 12.125,6.457031 c -0.113281,0.757813 -0.460938,1.464844 -0.992188,2.035157 0.04297,0.078124 0.09375,0.148437 0.160157,0.214843 0.390625,0.390625 1.023437,0.390625 1.414062,0 l 3,-3 c 0.390625,-0.390625 0.390625,-1.023437 0,-1.414062 l -3,-3 C 12.519531,1.105469 12.265625,1 12,1 Z M 4.425781,4.183594 C 4.167969,4.363281 4,4.664062 4,5 4,5.105469 4.019531,5.203125 4.050781,5.300781 4.117188,4.910156 4.242188,4.535156 4.425781,4.183594 Z M 4,7 C 3.742188,7 3.488281,7.097656 3.292969,7.292969 l -3,3 c -0.3906252,0.390625 -0.3906252,1.023437 0,1.414062 l 3,3 C 3.480469,14.894531 3.734375,15 4,15 c 0.265625,0 0.519531,-0.105469 0.707031,-0.292969 0.390625,-0.390625 0.390625,-1.023437 0,-1.414062 L 3.414062,12 H 6 V 10 H 3.414062 L 4.707031,8.707031 C 4.804688,8.609375 4.878906,8.492188 4.925781,8.367188 4.585938,7.96875 4.328125,7.511719 4.171875,7.015625 4.113281,7.003906 4.058594,7 4,7 Z m 6,3 v 2 h 1 c 0.550781,0 1,-0.449219 1,-1 0,-0.550781 -0.449219,-1 -1,-1 z m 0,0"
     fill-opacity="0.34902"
     id="path4"
     style="fill:#2e3436" />
</svg>
