<?xml version="1.0" encoding="UTF-8" standalone="no"?>
<svg
   xmlns:dc="http://purl.org/dc/elements/1.1/"
   xmlns:cc="http://creativecommons.org/ns#"
   xmlns:rdf="http://www.w3.org/1999/02/22-rdf-syntax-ns#"
   xmlns:svg="http://www.w3.org/2000/svg"
   xmlns="http://www.w3.org/2000/svg"
   height="16"
   width="16"
   id="svg2"
   version="1.1">
  <metadata
     id="metadata14">
    <rdf:RDF>
      <cc:Work
         rdf:about="">
        <dc:format>image/svg+xml</dc:format>
        <dc:type
           rdf:resource="http://purl.org/dc/dcmitype/StillImage" />
      </cc:Work>
    </rdf:RDF>
  </metadata>
  <defs
     id="defs12" />
  <g
     transform="translate(-313 351)"
     id="g4">
    <path
       color="#000"
       d="M321-348c-2.853 0-5.468 1.111-7.5 2.938l1.282 1.437c1.811-1.588 3.732-2.375 6.218-2.375 2.487 0 4.32.74 6.22 2.406l1.28-1.469c-2.031-1.826-4.646-2.937-7.5-2.937zm0 4c-1.847 0-3.514.75-4.875 1.875l1.344 1.406c.907-.649 2.299-1.281 3.469-1.281 1.198 0 2.674.634 3.594 1.313l1.375-1.47C324.546-343.28 322.848-344 321-344zm0 4c-.883 0-1.764.477-2.125.875l2.125 2.281 2.125-2.281c-.36-.418-1.24-.875-2.125-.875z"
       fill="#666"
       opacity=".35"
       overflow="visible"
       style="marker:none"
       id="path6" />
    <path
       color="#000"
       d="M321-340c-.883 0-1.764.477-2.125.875l2.125 2.281 2.125-2.281c-.36-.418-1.24-.875-2.125-.875z"
       fill="#666"
       overflow="visible"
       style="marker:none"
       id="path8" />
  </g>
</svg>
