<?xml version="1.0" encoding="UTF-8" standalone="no"?>
<svg
   height="16"
   width="16"
   id="svg2"
   version="1.1"
   sodipodi:docname="network-cellular-signal-excellent-symbolic.svg"
   xmlns:inkscape="http://www.inkscape.org/namespaces/inkscape"
   xmlns:sodipodi="http://sodipodi.sourceforge.net/DTD/sodipodi-0.dtd"
   xmlns="http://www.w3.org/2000/svg"
   xmlns:svg="http://www.w3.org/2000/svg"
   xmlns:rdf="http://www.w3.org/1999/02/22-rdf-syntax-ns#"
   xmlns:cc="http://creativecommons.org/ns#"
   xmlns:dc="http://purl.org/dc/elements/1.1/">
  <sodipodi:namedview
     id="namedview1"
     pagecolor="#ffffff"
     bordercolor="#000000"
     borderopacity="0.25"
     inkscape:showpageshadow="2"
     inkscape:pageopacity="0.0"
     inkscape:pagecheckerboard="0"
     inkscape:deskcolor="#d1d1d1" />
  <metadata
     id="metadata12">
    <rdf:RDF>
      <cc:Work
         rdf:about="">
        <dc:format>image/svg+xml</dc:format>
        <dc:type
           rdf:resource="http://purl.org/dc/dcmitype/StillImage" />
      </cc:Work>
    </rdf:RDF>
  </metadata>
  <defs
     id="defs10" />
  <path
     d="M 13.5,3 C 13.223,3 13,3.223 13,3.5 v 11 c 0,0.277 0.223,0.5 0.5,0.5 h 1 C 14.777,15 15,14.777 15,14.5 V 3.5 C 15,3.223 14.777,3 14.5,3 Z m -4,3 C 9.223,6 9,6.223 9,6.5 v 8 C 9,14.777 9.223,15 9.5,15 h 1 c 0.277,0 0.5,-0.223 0.5,-0.5 v -8 C 11,6.223 10.777,6 10.5,6 Z m -4,3 C 5.223,9 5,9.223 5,9.5 v 5 C 5,14.777 5.223,15 5.5,15 h 1 C 6.777,15 7,14.777 7,14.5 v -5 C 7,9.223 6.777,9 6.5,9 Z m -4,3 C 1.223,12 1,12.223 1,12.5 v 2 C 1,14.777 1.223,15 1.5,15 h 1 C 2.777,15 3,14.777 3,14.5 v -2 C 3,12.223 2.777,12 2.5,12 Z"
     fill="#666666"
     id="path6" />
</svg>
