<?xml version="1.0" encoding="UTF-8" standalone="no"?>
<svg
   xmlns:dc="http://purl.org/dc/elements/1.1/"
   xmlns:cc="http://creativecommons.org/ns#"
   xmlns:rdf="http://www.w3.org/1999/02/22-rdf-syntax-ns#"
   xmlns:svg="http://www.w3.org/2000/svg"
   xmlns="http://www.w3.org/2000/svg"
   height="16"
   width="16"
   id="svg2"
   version="1.1">
  <metadata
     id="metadata14">
    <rdf:RDF>
      <cc:Work
         rdf:about="">
        <dc:format>image/svg+xml</dc:format>
        <dc:type
           rdf:resource="http://purl.org/dc/dcmitype/StillImage" />
      </cc:Work>
    </rdf:RDF>
  </metadata>
  <defs
     id="defs12" />
  <g
     transform="translate(-313 311)"
     id="g4">
    <path
       color="#000"
       d="M318-308v3c.632 0 1.132.346 1.5.813.369-.467.869-.813 1.5-.813h-2v-2h3v2h-1c.632 0 1.132.346 1.5.813.143-.181.318-.338.5-.47V-308zm-4 5v1h2.281a1.993 1.993 0 0 1-.28-1zm12 0c0 .361-.109.705-.281 1H327v-1zm-3 1.656v.344h-2v4h5v-4h-2c-.387 0-.712-.136-1-.344zm-6 .063v.281h-2v4h5v-4h-2c-.36 0-.705-.11-1-.281zM316-300h3v2h-3zm6 0h3v2h-3z"
       fill="#666"
       opacity=".35"
       overflow="visible"
       style="marker:none"
       id="path6" />
    <path
       d="M318-304a1 1 0 1 0 0 2 1 1 0 0 0 0-2zm3 0a1 1 0 1 0 0 2 1 1 0 0 0 0-2zm3 0a1 1 0 1 0 0 2 1 1 0 0 0 0-2z"
       fill="#666"
       id="path8" />
  </g>
</svg>
