<?xml version="1.0" encoding="UTF-8" standalone="no"?>
<svg
   version="1.1"
   width="16"
   height="16"
   id="svg3020"
   sodipodi:docname="user-trash-full-symbolic.svg"
   inkscape:version="1.2.2 (b0a8486541, 2022-12-01)"
   xmlns:inkscape="http://www.inkscape.org/namespaces/inkscape"
   xmlns:sodipodi="http://sodipodi.sourceforge.net/DTD/sodipodi-0.dtd"
   xmlns="http://www.w3.org/2000/svg"
   xmlns:svg="http://www.w3.org/2000/svg"
   xmlns:rdf="http://www.w3.org/1999/02/22-rdf-syntax-ns#"
   xmlns:cc="http://creativecommons.org/ns#"
   xmlns:dc="http://purl.org/dc/elements/1.1/">
  <sodipodi:namedview
     id="namedview8"
     pagecolor="#ffffff"
     bordercolor="#666666"
     borderopacity="1.0"
     inkscape:showpageshadow="2"
     inkscape:pageopacity="0.0"
     inkscape:pagecheckerboard="0"
     inkscape:deskcolor="#d1d1d1"
     showgrid="false"
     inkscape:zoom="14.75"
     inkscape:cx="1.7966102"
     inkscape:cy="8.0338983"
     inkscape:window-width="1920"
     inkscape:window-height="1031"
     inkscape:window-x="0"
     inkscape:window-y="0"
     inkscape:window-maximized="1"
     inkscape:current-layer="svg3020" />
  <defs
     id="defs3022" />
  <metadata
     id="metadata3025">
    <rdf:RDF>
      <cc:Work
         rdf:about="">
        <dc:format>image/svg+xml</dc:format>
        <dc:type
           rdf:resource="http://purl.org/dc/dcmitype/StillImage" />
      </cc:Work>
    </rdf:RDF>
  </metadata>
  <path
     style="color:#bebebe;fill:#666666;fill-opacity:1;fill-rule:nonzero;stroke:none;stroke-width:1;marker:none;visibility:visible;display:inline;overflow:visible;enable-background:accumulate"
     id="path2983"
     d="m 15,7.4999997 -1,0 0,-3.5 -2,0 L 12,15 l 2,0 0,-3.5 1,0 z" />
  <path
     d="m 2.969,5 c -0.554,0 -1,0.446 -1,1 l 0,8 c 0,0.554 0.446,1 1,1 l 8,0 c 0.554,0 1,-0.446 1,-1 l 0,-8 c 0,-0.554 -0.446,-1 -1,-1 z m 2.03125,2 1,0 0,6 -1,0 z m 3,0 1,0 0,6 -1,0 z"
     id="rect10309"
     style="color:#bebebe;fill:#666666;fill-opacity:1;fill-rule:nonzero;stroke:none;stroke-width:1;marker:none;visibility:visible;display:inline;overflow:visible;enable-background:accumulate" />
  <path
     style="color:#000000;fill:#666666;fill-opacity:1;stroke:none;stroke-width:1.00000012;marker:none;visibility:visible;display:inline;overflow:visible;enable-background:accumulate"
     id="path5956"
     d="M 6.5002504,2.5635799 C 7.097451,2.8567552 7.1863117,4.5272435 7.1863117,4.5272435 M 7.7717367,2 C 6.9183297,2 6.1792465,2.2756273 5.8129008,2.6756773 5.5754594,2.5905863 5.2943829,2.5405441 4.9922272,2.5405441 c -0.8469402,0 -1.5335245,0.3872056 -1.5335245,0.8648641 0,0.075941 0.021303,0.1494118 0.053913,0.2195907 -0.6116881,0.2326749 -1.0123656,0.6285144 -1.0123656,1.0777003 0,0.7187024 1.0259257,1.2973006 2.3002844,1.2973006 l 4.4088825,0 c 1.274356,0 2.300282,-0.5785982 2.300282,-1.2973006 0,-0.5739136 -0.656952,-1.057776 -1.569466,-1.2297294 0.02476,-0.07459 0.03594,-0.15108 0.03594,-0.2297217 C 9.976173,2.5566165 8.989215,2 7.7717363,2 z" />
</svg>
