<?xml version="1.0" encoding="UTF-8" standalone="no"?>
<svg
   xmlns:dc="http://purl.org/dc/elements/1.1/"
   xmlns:cc="http://creativecommons.org/ns#"
   xmlns:rdf="http://www.w3.org/1999/02/22-rdf-syntax-ns#"
   xmlns:svg="http://www.w3.org/2000/svg"
   xmlns="http://www.w3.org/2000/svg"
   height="16"
   width="16"
   id="svg2"
   version="1.1">
  <metadata
     id="metadata16">
    <rdf:RDF>
      <cc:Work
         rdf:about="">
        <dc:format>image/svg+xml</dc:format>
        <dc:type
           rdf:resource="http://purl.org/dc/dcmitype/StillImage" />
      </cc:Work>
    </rdf:RDF>
  </metadata>
  <defs
     id="defs14" />
  <g
     transform="translate(-613 171)"
     id="g4">
    <path
       color="#000"
       d="M614.49-161.037a1.5 1.5 0 0 0-1.478 1.521v2.995a1.5 1.5 0 1 0 3 0v-2.995a1.5 1.5 0 0 0-1.522-1.521z"
       fill="#666"
       font-family="sans-serif"
       font-weight="400"
       overflow="visible"
       style="line-height:normal;font-variant-ligatures:normal;font-variant-position:normal;font-variant-caps:normal;font-variant-numeric:normal;font-variant-alternates:normal;font-feature-settings:normal;text-indent:0;text-align:start;text-decoration-line:none;text-decoration-style:solid;text-decoration-color:#000;text-transform:none;text-orientation:mixed;shape-padding:0;isolation:auto;mix-blend-mode:normal"
       white-space="normal"
       id="path6" />
    <path
       color="#000"
       d="M614.492-169.021a.5.5 0 0 0-.492.507V-161a.5.5 0 1 0 1 0v-7.514a.5.5 0 0 0-.508-.507z"
       fill="#666"
       font-family="sans-serif"
       font-weight="400"
       overflow="visible"
       style="line-height:normal;font-variant-ligatures:normal;font-variant-position:normal;font-variant-caps:normal;font-variant-numeric:normal;font-variant-alternates:normal;font-feature-settings:normal;text-indent:0;text-align:start;text-decoration-line:none;text-decoration-style:solid;text-decoration-color:#000;text-transform:none;text-orientation:mixed;shape-padding:0;isolation:auto;mix-blend-mode:normal"
       white-space="normal"
       id="path8" />
    <path
       d="M621.47-168c-1.047 1-4.323 1.055-6.69 1l.058 1s.468-.047.496.014c.456 1.009 1.482 2.408 3.666 2.408 2.062 0 2.5-1.922 2.5-1.922s.596 1.89 2.5 1.89c3.51 0 4-3.39 4-3.39-2.602.148-5.443 0-6.53-1zm-2.938 2c.959.008 1.468.5 1.468.5s-.198.5-1.375.5c-1.123 0-1.625-.688-1.625-.688s.96-.317 1.532-.312zm5.937 0c.571-.005 1.531.313 1.531.313s-.408.687-1.625.687c-1.145 0-1.375-.5-1.375-.5s.51-.492 1.47-.5z"
       fill="#666"
       id="path10" />
  </g>
</svg>
