<?xml version="1.0" encoding="UTF-8" standalone="no"?>
<svg
   xmlns:dc="http://purl.org/dc/elements/1.1/"
   xmlns:cc="http://creativecommons.org/ns#"
   xmlns:rdf="http://www.w3.org/1999/02/22-rdf-syntax-ns#"
   xmlns:svg="http://www.w3.org/2000/svg"
   xmlns="http://www.w3.org/2000/svg"
   version="1.1"
   id="svg2"
   width="16"
   height="16">
  <metadata
     id="metadata14">
    <rdf:RDF>
      <cc:Work
         rdf:about="">
        <dc:format>image/svg+xml</dc:format>
        <dc:type
           rdf:resource="http://purl.org/dc/dcmitype/StillImage" />
      </cc:Work>
    </rdf:RDF>
  </metadata>
  <defs
     id="defs12" />
  <g
     id="g4"
     transform="translate(-453 191)">
    <path
       id="path6"
       style="marker:none"
       overflow="visible"
       fill-rule="evenodd"
       fill="#c6262e"
       d="M460-185.989l.014 5.984c0 .554.446 1 1 1s1-.446 1-1l-.014-5.984zm.514 7.984c-.277 0-.5.223-.5.5v1c0 .277.223.5.5.5h1c.277 0 .5-.223.5-.5v-1c0-.277-.223-.5-.5-.5h-.5z" />
    <path
       id="path8"
       style="isolation:auto;mix-blend-mode:normal"
       overflow="visible"
       fill-rule="evenodd"
       fill="#666"
       d="M461-190c-1.608 0-3.03.965-3.656 2.398l-.023.047a4.013 4.013 0 0 0-.207.635c-.2-.052-.407-.079-.614-.08-.135 0-.27.014-.404.037A2.5 2.5 0 0 0 454-184.5a2.5 2.5 0 0 0 2.5 2.5h2.51l-.01-3.986-.002-1.002h4l.012 4.988H466a2 2 0 1 0 0-4h-1c0-.251-.028-.496-.072-.734l-.01-.063h.002a4 4 0 0 0-3.92-3.201z"
       color="#000"
       class="error" />
  </g>
</svg>
