<?xml version="1.0" encoding="UTF-8" standalone="no"?>
<svg
   xmlns:dc="http://purl.org/dc/elements/1.1/"
   xmlns:cc="http://creativecommons.org/ns#"
   xmlns:rdf="http://www.w3.org/1999/02/22-rdf-syntax-ns#"
   xmlns:svg="http://www.w3.org/2000/svg"
   xmlns="http://www.w3.org/2000/svg"
   height="16.004"
   width="16"
   id="svg2"
   version="1.1">
  <metadata
     id="metadata12">
    <rdf:RDF>
      <cc:Work
         rdf:about="">
        <dc:format>image/svg+xml</dc:format>
        <dc:type
           rdf:resource="http://purl.org/dc/dcmitype/StillImage" />
      </cc:Work>
    </rdf:RDF>
  </metadata>
  <defs
     id="defs10" />
  <g
     transform="translate(-1233 -81)"
     id="g4">
    <path
       color="#000"
       d="M1239.5 82.004a4.501 4.501 0 0 0-4.5 4.5v6c0 2.484 2.016 4.5 4.5 4.5h2c2.484 0 4.5-2.016 4.5-4.5v-6c0-2.484-2.016-4.5-4.5-4.5zm0 1h.5v4h-4v-.5c0-1.948 1.553-3.5 3.5-3.5zm1.5 0h.5c1.948 0 3.5 1.552 3.5 3.5v.5h-4zm-5 5h9v4.5c0 1.948-1.552 3.5-3.5 3.5h-2a3.481 3.481 0 0 1-3.5-3.5z"
       fill="#666"
       font-family="sans-serif"
       font-weight="400"
       overflow="visible"
       style="line-height:normal;font-variant-ligatures:normal;font-variant-position:normal;font-variant-caps:normal;font-variant-numeric:normal;font-variant-alternates:normal;font-feature-settings:normal;text-indent:0;text-align:start;text-decoration-line:none;text-decoration-style:solid;text-decoration-color:#000;text-transform:none;text-orientation:mixed;shape-padding:0;isolation:auto;mix-blend-mode:normal"
       white-space="normal"
       id="path6" />
  </g>
</svg>
