<?xml version="1.0" encoding="UTF-8" standalone="no"?>
<svg
   xmlns:dc="http://purl.org/dc/elements/1.1/"
   xmlns:cc="http://creativecommons.org/ns#"
   xmlns:rdf="http://www.w3.org/1999/02/22-rdf-syntax-ns#"
   xmlns:svg="http://www.w3.org/2000/svg"
   xmlns="http://www.w3.org/2000/svg"
   height="16"
   width="16"
   id="svg2"
   version="1.1">
  <metadata
     id="metadata14">
    <rdf:RDF>
      <cc:Work
         rdf:about="">
        <dc:format>image/svg+xml</dc:format>
        <dc:type
           rdf:resource="http://purl.org/dc/dcmitype/StillImage" />
      </cc:Work>
    </rdf:RDF>
  </metadata>
  <defs
     id="defs12" />
  <g
     transform="translate(-1232.997 -41.003)"
     id="g4">
    <path
       d="M1236.594 42.003a1.59 1.59 0 0 0-1.594 1.594V54.41c0 .882.711 1.593 1.594 1.593h8.813A1.59 1.59 0 0 0 1247 54.41V43.597a1.59 1.59 0 0 0-1.594-1.594zm.906 1h7c.277 0 .5.223.5.5v9c0 .277-.223.5-.5.5h-7a.499.499 0 0 1-.5-.5v-9c0-.277.223-.5.5-.5zm7 11a.5.5 0 1 1 0 1 .5.5 0 0 1 0-1z"
       fill="#666"
       id="path6" />
    <rect
       color="#000"
       fill="#666"
       height="1"
       overflow="visible"
       rx="0"
       ry="0"
       style="marker:none"
       width="6"
       x="1238"
       y="48.003"
       id="rect8" />
  </g>
</svg>
