<?xml version="1.0" encoding="UTF-8" standalone="no"?>
<svg
   xmlns:dc="http://purl.org/dc/elements/1.1/"
   xmlns:cc="http://creativecommons.org/ns#"
   xmlns:rdf="http://www.w3.org/1999/02/22-rdf-syntax-ns#"
   xmlns:svg="http://www.w3.org/2000/svg"
   xmlns="http://www.w3.org/2000/svg"
   version="1.1"
   id="svg2"
   width="16"
   height="16.005">
  <metadata
     id="metadata14">
    <rdf:RDF>
      <cc:Work
         rdf:about="">
        <dc:format>image/svg+xml</dc:format>
        <dc:type
           rdf:resource="http://purl.org/dc/dcmitype/StillImage" />
      </cc:Work>
    </rdf:RDF>
  </metadata>
  <defs
     id="defs12" />
  <g
     id="g4"
     transform="translate(-1133 -20.995)">
    <path
       id="path6"
       style="marker:none"
       overflow="visible"
       fill="#666"
       d="M1137 21c-1.108 0-2 .892-2 2v13.5s0 .5.5.5h11s.5 0 .5-.5V23c0-1.108-.892-2-2-2zm0 1h8c.554 0 1 .446 1 1v10.5s.054.5-.5.5h-9s-.5 0-.5-.5V23c0-.554.446-1 1-1zm8.5 13a.5.5 0 1 1 0 1 .5.5 0 0 1 0-1z"
       color="#000" />
    <path
       id="path8"
       style="isolation:auto;mix-blend-mode:normal;marker:none"
       overflow="visible"
       fill="#666"
       d="M1141 24l-3 5h3v3l3-5h-3z"
       color="#bebebe" />
  </g>
</svg>
