<?xml version="1.0" encoding="UTF-8" standalone="no"?>
<svg
   xmlns:dc="http://purl.org/dc/elements/1.1/"
   xmlns:cc="http://creativecommons.org/ns#"
   xmlns:rdf="http://www.w3.org/1999/02/22-rdf-syntax-ns#"
   xmlns:svg="http://www.w3.org/2000/svg"
   xmlns="http://www.w3.org/2000/svg"
   xmlns:xlink="http://www.w3.org/1999/xlink"
   id="svg2494"
   height="24"
   width="24"
   version="1.0">
  <metadata
     id="metadata61646">
    <rdf:RDF>
      <cc:Work
         rdf:about="">
        <dc:format>image/svg+xml</dc:format>
        <dc:type
           rdf:resource="http://purl.org/dc/dcmitype/StillImage" />
      </cc:Work>
    </rdf:RDF>
  </metadata>
  <defs
     id="defs2496">
    <linearGradient
       gradientTransform="translate(-24.785715,-2.035714)"
       gradientUnits="userSpaceOnUse"
       xlink:href="#linearGradient3587-6-5"
       id="linearGradient2490"
       y2="4.9945626"
       x2="35.007519"
       y1="23.178743"
       x1="35.007519" />
    <linearGradient
       id="linearGradient3587-6-5">
      <stop
         offset="0"
         style="stop-color:#000000;stop-opacity:1"
         id="stop3589-9-2" />
      <stop
         offset="1"
         style="stop-color:#363636;stop-opacity:1"
         id="stop3591-7-4" />
    </linearGradient>
    <linearGradient
       gradientTransform="matrix(0.9302326,0,0,1.2359551,-10.575969,6.1536003)"
       gradientUnits="userSpaceOnUse"
       xlink:href="#linearGradient3587-6-5"
       id="linearGradient2487"
       y2="11.969362"
       x2="15.669166"
       y1="-2.6219723"
       x1="15.669166" />
  </defs>
  <g
     id="layer1">
    <path
       style="opacity:0.6;fill:#ffffff;fill-opacity:1;fill-rule:evenodd;stroke:none;stroke-width:1;stroke-linecap:butt;stroke-linejoin:miter;marker:none;marker-start:none;marker-mid:none;marker-end:none;stroke-miterlimit:4;stroke-dasharray:none;stroke-dashoffset:0;stroke-opacity:1;visibility:visible;display:inline;overflow:visible;enable-background:accumulate"
       id="path3229"
       d="M 12,5 C 7.5840001,5 3.9999998,8.5840001 4,13 C 4,17.416 7.5840002,21 12,21 C 16.416,21 20,17.416 20,13 C 20,8.5840001 16.416,5.0000002 12,5 z M 12,10 C 13.656,10 15,11.344 15,13 C 15,14.656 13.656,16 12,16 C 10.344,16 9,14.656 9,13 C 9.0000001,11.344 10.344,10 12,10 z" />
    <path
       style="opacity:0.41999996;fill:url(#linearGradient2490);fill-opacity:1;fill-rule:evenodd;stroke:none;stroke-width:1;stroke-linecap:butt;stroke-linejoin:miter;marker:none;marker-start:none;marker-mid:none;marker-end:none;stroke-miterlimit:4;stroke-dasharray:none;stroke-dashoffset:0;stroke-opacity:1;visibility:visible;display:inline;overflow:visible;enable-background:accumulate"
       id="path3170"
       d="M 12,4 C 7.5840001,4 3.9999998,7.5840001 4,12 C 4,16.416 7.5840002,20 12,20 C 15.56385,20 18.560166,17.659511 19.59375,14.4375 L 14.875,12.84375 C 14.506879,14.084088 13.3593,15 12,15 C 10.344,15 9,13.656 9,12 C 9.0000001,10.344 10.344,9 12,9 L 12,4 z M 20,12 C 20,12.404739 19.963077,12.800153 19.90625,13.1875 C 19.964032,12.799873 20,12.40363 20,12 z M 19.90625,13.3125 C 19.862832,13.579521 19.788565,13.835906 19.71875,14.09375 C 19.788073,13.837344 19.86249,13.578402 19.90625,13.3125 z" />
    <path
       style="opacity:0.7;fill:url(#linearGradient2487);fill-opacity:1;fill-rule:nonzero;stroke:none;stroke-width:1;stroke-linecap:butt;stroke-linejoin:miter;marker:none;marker-start:none;marker-mid:none;marker-end:none;stroke-miterlimit:4;stroke-dasharray:none;stroke-dashoffset:0;stroke-opacity:1;visibility:visible;display:inline;overflow:visible;enable-background:accumulate"
       id="path3288"
       d="M 12,4 L 12,9 C 13.656,9.0000001 15,10.344 15,12 C 15,12.295765 14.96319,12.574348 14.882848,12.84375 L 19.625,14.4375 C 19.872009,13.667155 20,12.851831 20,12 C 20,7.5840001 16.416,4.0000002 12,4 z" />
  </g>
</svg>
