<?xml version="1.0" encoding="UTF-8" standalone="no"?>
<svg
   version="1.0"
   width="22"
   height="22"
   id="svg11300"
   sodipodi:docname="printer.svg"
   inkscape:version="1.2.2 (b0a8486541, 2022-12-01)"
   xmlns:inkscape="http://www.inkscape.org/namespaces/inkscape"
   xmlns:sodipodi="http://sodipodi.sourceforge.net/DTD/sodipodi-0.dtd"
   xmlns:xlink="http://www.w3.org/1999/xlink"
   xmlns="http://www.w3.org/2000/svg"
   xmlns:svg="http://www.w3.org/2000/svg"
   xmlns:rdf="http://www.w3.org/1999/02/22-rdf-syntax-ns#"
   xmlns:cc="http://creativecommons.org/ns#"
   xmlns:dc="http://purl.org/dc/elements/1.1/">
  <sodipodi:namedview
     id="namedview51587"
     pagecolor="#ffffff"
     bordercolor="#666666"
     borderopacity="1.0"
     inkscape:showpageshadow="2"
     inkscape:pageopacity="0.0"
     inkscape:pagecheckerboard="0"
     inkscape:deskcolor="#d1d1d1"
     showgrid="false"
     inkscape:zoom="27.812867"
     inkscape:cx="7.172939"
     inkscape:cy="13.033536"
     inkscape:window-width="1635"
     inkscape:window-height="738"
     inkscape:window-x="0"
     inkscape:window-y="219"
     inkscape:window-maximized="0"
     inkscape:current-layer="svg11300" />
  <metadata
     id="metadata162459">
    <rdf:RDF>
      <cc:Work
         rdf:about="">
        <dc:format>image/svg+xml</dc:format>
        <dc:type
           rdf:resource="http://purl.org/dc/dcmitype/StillImage" />
      </cc:Work>
    </rdf:RDF>
  </metadata>
  <defs
     id="defs3">
    <linearGradient
       id="linearGradient6842">
      <stop
         id="stop6844"
         style="stop-color:white;stop-opacity:1"
         offset="0" />
      <stop
         id="stop6846"
         style="stop-color:white;stop-opacity:0"
         offset="1" />
    </linearGradient>
    <linearGradient
       id="linearGradient6828">
      <stop
         id="stop6830"
         style="stop-color:#6e6e6e;stop-opacity:1"
         offset="0" />
      <stop
         id="stop6832"
         style="stop-color:#1e1e1e;stop-opacity:1"
         offset="1" />
    </linearGradient>
    <linearGradient
       id="linearGradient2463">
      <stop
         id="stop2465"
         style="stop-color:white;stop-opacity:1"
         offset="0" />
      <stop
         id="stop2467"
         style="stop-color:white;stop-opacity:0"
         offset="1" />
    </linearGradient>
    <linearGradient
       id="linearGradient2366">
      <stop
         id="stop2368"
         style="stop-color:#2e3436;stop-opacity:1"
         offset="0" />
      <stop
         id="stop2370"
         style="stop-color:#555753;stop-opacity:1"
         offset="1" />
    </linearGradient>
    <linearGradient
       id="linearGradient7612">
      <stop
         id="stop7614"
         style="stop-color:black;stop-opacity:1"
         offset="0" />
      <stop
         id="stop7616"
         style="stop-color:black;stop-opacity:0"
         offset="1" />
    </linearGradient>
    <linearGradient
       id="linearGradient8589">
      <stop
         id="stop8591"
         style="stop-color:#fefefe;stop-opacity:1"
         offset="0" />
      <stop
         id="stop8593"
         style="stop-color:#bebebe;stop-opacity:1"
         offset="1" />
    </linearGradient>
    <radialGradient
       cx="11.537243"
       cy="15.279687"
       r="13"
       fx="11.537243"
       fy="15.279687"
       id="radialGradient5554"
       xlink:href="#linearGradient2463"
       gradientUnits="userSpaceOnUse"
       gradientTransform="matrix(0.3449002,-0.0026213,0.00145995,0.1920948,2.5147917,9.5923987)" />
    <linearGradient
       x1="21.919418"
       y1="21"
       x2="22.007805"
       y2="33"
       id="linearGradient5562"
       xlink:href="#linearGradient6828"
       gradientUnits="userSpaceOnUse"
       gradientTransform="matrix(0.4835921,0,0,0.4597259,0.3937915,1.5874015)" />
    <linearGradient
       x1="15.600636"
       y1="33"
       x2="15.335471"
       y2="21"
       id="linearGradient5564"
       xlink:href="#linearGradient2366"
       gradientUnits="userSpaceOnUse"
       gradientTransform="matrix(0.4835921,0,0,0.4597259,0.3937915,1.5874015)" />
    <radialGradient
       cx="3.7590685"
       cy="11.918329"
       r="21"
       fx="3.7590685"
       fy="11.918329"
       id="radialGradient5577"
       xlink:href="#linearGradient6842"
       gradientUnits="userSpaceOnUse"
       gradientTransform="matrix(0.4633354,0.00804182,-0.00585152,0.288354,0.9480404,9.4950263)" />
    <linearGradient
       x1="11.519291"
       y1="20"
       x2="11.50602"
       y2="37"
       id="linearGradient5581"
       xlink:href="#linearGradient8589"
       gradientUnits="userSpaceOnUse"
       gradientTransform="matrix(0.4883737,0,0,0.5000043,0.2790318,1.2498788)" />
    <radialGradient
       cx="24"
       cy="41.875"
       r="19.125"
       fx="24"
       fy="41.875"
       id="radialGradient5591"
       xlink:href="#linearGradient7612"
       gradientUnits="userSpaceOnUse"
       gradientTransform="matrix(0.57516342,0,0,0.10457506,-1.8039216,16.620915)" />
    <linearGradient
       x1="32.892288"
       y1="8.0590115"
       x2="36.358372"
       y2="5.4565363"
       id="linearGradient4543"
       xlink:href="#linearGradient8589"
       gradientUnits="userSpaceOnUse"
       gradientTransform="matrix(0.3707081,0,0,0.3548465,-0.8566575,-0.04895116)" />
    <linearGradient
       x1="17.288921"
       y1="2.184907"
       x2="15.179585"
       y2="5.8214641"
       id="linearGradient4565"
       xlink:href="#linearGradient4559"
       gradientUnits="userSpaceOnUse"
       gradientTransform="matrix(0.6844293,0,0,0.6820072,-0.2131519,0.1569169)" />
    <linearGradient
       id="linearGradient4559">
      <stop
         id="stop4561"
         style="stop-color:#000000;stop-opacity:0.2;"
         offset="0" />
      <stop
         id="stop4563"
         style="stop-color:#000000;stop-opacity:0.40000001;"
         offset="1" />
    </linearGradient>
  </defs>
  <g
     id="g5529"
     transform="translate(-1,-0.99999942)">
    <path
       d="m 23,20.999999 c 0,1.104569 -4.924868,2 -11,2 -6.0751324,0 -11,-0.895431 -11,-2 0,-1.104569 4.9248676,-2 11,-2 6.075132,0 11,0.895431 11,2 z"
       id="path3087"
       style="display:inline;overflow:visible;visibility:visible;opacity:0.7;fill:url(#radialGradient5591);fill-opacity:1;fill-rule:nonzero;stroke:none;stroke-width:4;marker:none" />
    <rect
       width="14.999916"
       height="10.999916"
       rx="0.29157394"
       ry="0.36184993"
       x="4.500042"
       y="5.500042"
       id="rect2315"
       style="display:inline;fill:#505050;fill-opacity:1;stroke:#000000;stroke-width:1.00008;stroke-linecap:round;stroke-linejoin:round;stroke-miterlimit:4;stroke-dasharray:none;stroke-opacity:0.7" />
    <g
       transform="translate(4,0.9999992)"
       id="layer1">
      <path
         d="m 1.4976268,0.49762721 c 2.980045,0 4.9376418,0 7.9176887,0 0.522766,0.16184396 4.3536885,2.61362219 5.0870585,3.89029659 0,3.907463 0,7.2069842 0,11.1144502 -4.334914,0 -8.6698338,0 -13.0047472,0 0,-5.001584 0,-10.0031638 0,-15.00474679 z"
         id="rect2594"
         style="display:inline;fill:#f4f4f4;fill-opacity:1;stroke:#000000;stroke-width:0.995254;stroke-linecap:butt;stroke-linejoin:round;stroke-miterlimit:4;stroke-dasharray:none;stroke-dashoffset:0;stroke-opacity:0.35" />
      <path
         d="M 9.5,0.4979205 C 9.5,2.041279 9.5,4.5 9.5,4.5 c 0,0 4.080603,0 5.00208,0 0,-1.9018156 -3.00574,-4.0020795 -5.00208,-4.0020795 z"
         id="path12038"
         style="display:inline;fill:url(#linearGradient4543);fill-opacity:1;fill-rule:evenodd;stroke:url(#linearGradient4565);stroke-width:0.995254;stroke-linecap:butt;stroke-linejoin:round;stroke-miterlimit:4;stroke-dasharray:none;stroke-opacity:1" />
    </g>
    <path
       d="m 2.5074017,19.499855 c 0.037084,0.51806 -0.096022,1.075538 0.1174382,1.555517 0.4004353,0.609192 1.2841971,0.408879 1.8751601,0.44374 0.010664,0.359614 0.043357,0.914773 0.5,0.991267 4.8238775,0.01951 9.175572,0.0028 14,0.0084 0.49786,0.01588 0.516095,-0.580789 0.5,-0.959423 0.162596,-0.09327 0.624708,-0.01381 0.849253,-0.0402 0.5556,0.08151 1.234943,-0.329792 1.142361,-1.013692 0,-0.328521 0,-0.657046 0,-0.985565 -6.328071,0 -12.6561415,0 -18.9842123,0 z"
       id="rect6333"
       style="fill:#505050;fill-opacity:1;stroke:#000000;stroke-width:0.999709;stroke-linecap:square;stroke-linejoin:miter;stroke-miterlimit:4;stroke-dasharray:none;stroke-opacity:0.7" />
    <path
       d="M 2.5152783,11.499966 H 21.48472 c 0.562484,0 1.015314,0.463613 1.015314,1.039492 v 6.960576 H 1.499966 v -6.960576 c 0,-0.575879 0.4528294,-1.039492 1.0153123,-1.039492 z"
       id="rect2313"
       style="fill:url(#linearGradient5581);fill-opacity:1;stroke:#000000;stroke-width:0.999932;stroke-linecap:round;stroke-linejoin:round;stroke-miterlimit:4;stroke-dasharray:none;stroke-opacity:0.35" />
    <path
       d="M 2.9633695,12.499953 H 21.03663 c 0.240428,0 0.463417,0.206223 0.463417,0.428579 v 5.571515 H 2.4999528 v -5.571515 c 0,-0.222356 0.2229882,-0.428579 0.4634167,-0.428579 z"
       id="rect2374"
       style="display:inline;opacity:0.9;fill:none;stroke:url(#radialGradient5577);stroke-width:0.999906;stroke-linecap:round;stroke-linejoin:miter;stroke-miterlimit:4;stroke-dasharray:none;stroke-opacity:1" />
    <rect
       width="13.056984"
       height="5.0569839"
       x="5.471508"
       y="11.471508"
       id="rect2319"
       style="fill:url(#linearGradient5562);fill-opacity:1;stroke:url(#linearGradient5564);stroke-width:0.943016;stroke-linecap:round;stroke-linejoin:miter;stroke-miterlimit:4;stroke-dasharray:none;stroke-opacity:1" />
    <rect
       width="11.000179"
       height="3.00018"
       x="6.4999099"
       y="12.49991"
       id="rect2459"
       style="display:inline;opacity:0.3;fill:none;stroke:url(#radialGradient5554);stroke-width:0.99982;stroke-linecap:round;stroke-linejoin:miter;stroke-miterlimit:4;stroke-dasharray:none;stroke-opacity:1" />
    <path
       d="m 21,17.5 c 2.42e-4,0.276071 -0.223687,0.5 -0.5,0.5 -0.276314,0 -0.500242,-0.223929 -0.5,-0.5 -2.42e-4,-0.276071 0.223686,-0.5 0.5,-0.5 0.276313,0 0.500242,0.223929 0.5,0.5 z"
       id="path2764"
       style="fill:#6efb27;fill-opacity:1;stroke:none" />
    <path
       d="m 19,20 v 1.75 C 19,21.8885 18.902437,22 18.78125,22 H 5.21875 C 5.0975625,22 5,21.8885 5,21.75 V 20 Z"
       id="rect6331"
       style="fill:#e6e6e6;fill-opacity:1;stroke:none" />
    <rect
       width="12"
       height="0.99999994"
       x="6"
       y="20"
       id="rect6329"
       style="fill:#323232;fill-opacity:1;stroke:none" />
  </g>
</svg>
