<?xml version="1.0" encoding="UTF-8" standalone="no"?>
<!-- Created with Inkscape (http://www.inkscape.org/) -->

<svg
   xmlns:dc="http://purl.org/dc/elements/1.1/"
   xmlns:cc="http://creativecommons.org/ns#"
   xmlns:rdf="http://www.w3.org/1999/02/22-rdf-syntax-ns#"
   xmlns:svg="http://www.w3.org/2000/svg"
   xmlns="http://www.w3.org/2000/svg"
   xmlns:xlink="http://www.w3.org/1999/xlink"
   xmlns:sodipodi="http://sodipodi.sourceforge.net/DTD/sodipodi-0.dtd"
   xmlns:inkscape="http://www.inkscape.org/namespaces/inkscape"
   version="1.0"
   width="22"
   height="22"
   id="svg4431"
   inkscape:version="0.48.1 r9760"
   sodipodi:docname="audio-volume-low.svg">
  <metadata
     id="metadata31">
    <rdf:RDF>
      <cc:Work
         rdf:about="">
        <dc:format>image/svg+xml</dc:format>
        <dc:type
           rdf:resource="http://purl.org/dc/dcmitype/StillImage" />
        <dc:title></dc:title>
      </cc:Work>
    </rdf:RDF>
  </metadata>
  <sodipodi:namedview
     pagecolor="#ffffff"
     bordercolor="#666666"
     borderopacity="1"
     objecttolerance="10"
     gridtolerance="10"
     guidetolerance="10"
     inkscape:pageopacity="0"
     inkscape:pageshadow="2"
     inkscape:window-width="1075"
     inkscape:window-height="764"
     id="namedview29"
     showgrid="false"
     inkscape:zoom="13.409091"
     inkscape:cx="0.37288165"
     inkscape:cy="10.850847"
     inkscape:window-x="76"
     inkscape:window-y="72"
     inkscape:window-maximized="0"
     inkscape:current-layer="svg4431" />
  <defs
     id="defs4433">
    <linearGradient
       x1="50.925655"
       y1="11.648451"
       x2="73.986542"
       y2="11.648451"
       id="linearGradient2390"
       xlink:href="#linearGradient3678"
       gradientUnits="userSpaceOnUse"
       gradientTransform="matrix(0,0.7805424,-0.7617909,0,28.873684,-37.749634)" />
    <linearGradient
       x1="9"
       y1="3"
       x2="9"
       y2="21"
       id="linearGradient2393"
       xlink:href="#linearGradient3678"
       gradientUnits="userSpaceOnUse"
       gradientTransform="translate(-2,-1)" />
    <linearGradient
       id="linearGradient3678">
      <stop
         id="stop3680"
         style="stop-color:#ffffff;stop-opacity:1"
         offset="0" />
      <stop
         id="stop3682"
         style="stop-color:#e6e6e6;stop-opacity:1"
         offset="1" />
    </linearGradient>
    <linearGradient
       x1="50.925655"
       y1="11.648451"
       x2="73.986542"
       y2="11.648451"
       id="linearGradient3637"
       xlink:href="#linearGradient3678"
       gradientUnits="userSpaceOnUse"
       gradientTransform="matrix(0,0.7805424,-0.7617909,0,28.873684,-37.749634)" />
    <linearGradient
       inkscape:collect="always"
       xlink:href="#linearGradient3678"
       id="linearGradient3612"
       gradientUnits="userSpaceOnUse"
       gradientTransform="matrix(0,-0.7805424,-0.7617909,0,28.873684,60.749634)"
       x1="50.925655"
       y1="11.648451"
       x2="73.986542"
       y2="11.648451" />
    <linearGradient
       id="linearGradient3888"
       y2="29.068001"
       gradientUnits="userSpaceOnUse"
       x2="37.841"
       y1="13.068"
       x1="37.841">
      <stop
         id="stop3770"
         stop-color="#FF6363"
         offset="0" />
      <stop
         id="stop3772"
         stop-color="#c00"
         offset="1" />
    </linearGradient>
    <linearGradient
       id="linearGradient3888-7"
       y2="29.068001"
       gradientUnits="userSpaceOnUse"
       x2="37.841"
       y1="13.068"
       x1="37.841">
      <stop
         id="stop3770-6"
         stop-color="#FF6363"
         offset="0" />
      <stop
         id="stop3772-9"
         stop-color="#c00"
         offset="1" />
    </linearGradient>
    <linearGradient
       inkscape:collect="always"
       xlink:href="#linearGradient3888"
       id="linearGradient3838"
       gradientUnits="userSpaceOnUse"
       x1="37.841"
       y1="13.068"
       x2="37.841"
       y2="29.068001" />
  </defs>
  <g
     transform="matrix(0.37346535,0,0,0.37346535,-1.1445795,5.1441092)"
     id="Layer_9-7"
     style="opacity:0.5;fill:#000000;fill-opacity:1">
    <path
       d="m 41.073,21.069 4.652,-4.653 c 0.073,-0.073 0.115,-0.175 0.115,-0.278 0,-0.103 -0.042,-0.205 -0.115,-0.279 L 43.05,13.185 c -0.073,-0.074 -0.175,-0.115 -0.278,-0.115 -0.104,0 -0.206,0.041 -0.278,0.115 l -4.653,4.652 -4.653,-4.652 c -0.153,-0.154 -0.402,-0.154 -0.557,0 l -2.674,2.674 c -0.154,0.154 -0.154,0.404 0,0.558 l 4.652,4.653 -4.653,4.652 c -0.073,0.073 -0.115,0.175 -0.115,0.278 0,0.103 0.042,0.205 0.115,0.278 l 2.675,2.675 c 0.073,0.073 0.175,0.115 0.278,0.115 0.104,0 0.206,-0.042 0.278,-0.115 l 4.653,-4.652 4.653,4.652 c 0.074,0.074 0.173,0.115 0.278,0.115 0.105,0 0.204,-0.041 0.278,-0.115 l 2.675,-2.675 c 0.074,-0.074 0.115,-0.173 0.115,-0.278 0,-0.105 -0.041,-0.204 -0.115,-0.278 l -4.651,-4.653 z"
       id="path3774-6"
       inkscape:connector-curvature="0"
       style="fill:#000000;fill-opacity:1" />
  </g>
  <g
     transform="matrix(0.37346535,0,0,0.37346535,-1.1445795,4.1441092)"
     id="Layer_9">
    <path
       d="m 41.073,21.069 4.652,-4.653 c 0.073,-0.073 0.115,-0.175 0.115,-0.278 0,-0.103 -0.042,-0.205 -0.115,-0.279 L 43.05,13.185 c -0.073,-0.074 -0.175,-0.115 -0.278,-0.115 -0.104,0 -0.206,0.041 -0.278,0.115 l -4.653,4.652 -4.653,-4.652 c -0.153,-0.154 -0.402,-0.154 -0.557,0 l -2.674,2.674 c -0.154,0.154 -0.154,0.404 0,0.558 l 4.652,4.653 -4.653,4.652 c -0.073,0.073 -0.115,0.175 -0.115,0.278 0,0.103 0.042,0.205 0.115,0.278 l 2.675,2.675 c 0.073,0.073 0.175,0.115 0.278,0.115 0.104,0 0.206,-0.042 0.278,-0.115 l 4.653,-4.652 4.653,4.652 c 0.074,0.074 0.173,0.115 0.278,0.115 0.105,0 0.204,-0.041 0.278,-0.115 l 2.675,-2.675 c 0.074,-0.074 0.115,-0.173 0.115,-0.278 0,-0.105 -0.041,-0.204 -0.115,-0.278 l -4.651,-4.653 z"
       id="path3774"
       inkscape:connector-curvature="0"
       style="fill:url(#linearGradient3838)" />
  </g>
  <g
     style="opacity:0.4"
     id="g3778"
     transform="matrix(0.37346535,0,0,0.37346535,-1.1445795,4.1441092)">
    <g
       id="g3780">
      <path
         style="fill:#ffffff"
         inkscape:connector-curvature="0"
         id="path3782"
         d="m 43.051,13.184 c -0.073,-0.074 -0.175,-0.115 -0.278,-0.115 -0.104,0 -0.206,0.042 -0.278,0.115 l -4.497,4.497 0.531,0.531 4.653,-4.652 c 0.043,-0.043 0.096,-0.071 0.153,-0.091 l -0.284,-0.285 z m -7.754,8.26 -4.652,-4.653 c -0.154,-0.153 -0.154,-0.403 0,-0.558 l 2.674,-2.674 c 0.045,-0.044 0.098,-0.072 0.153,-0.091 l -0.284,-0.284 c -0.153,-0.154 -0.402,-0.154 -0.557,0 l -2.674,2.674 c -0.154,0.154 -0.154,0.404 0,0.557 l 4.652,4.653 -4.653,4.653 c -0.073,0.073 -0.115,0.175 -0.115,0.278 0,0.103 0.042,0.205 0.115,0.278 l 2.675,2.675 c 0.073,0.073 0.175,0.115 0.278,0.115 0.043,0 0.084,-0.012 0.125,-0.024 l -2.391,-2.391 c -0.073,-0.073 -0.115,-0.175 -0.115,-0.278 0,-0.103 0.042,-0.205 0.115,-0.278 l 4.654,-4.652 z m 3.075,3.388 4.122,4.121 c 0.074,0.074 0.173,0.115 0.278,0.115 0.044,0 0.085,-0.011 0.125,-0.024 l -4.369,-4.368 -0.156,0.156 z" />
    </g>
  </g>
  <path
     d="m 2,10 0,5 2,0 4,4 0,-13 -4,4 -2,0 z"
     id="path2387-4"
     style="opacity:0.5;fill:#000000;fill-opacity:1;fill-rule:evenodd;stroke:none" />
  <path
     d="m 2,9 0,5 2,0 4,4 L 8,5 4,9 2,9 z"
     id="path2387"
     style="fill:url(#linearGradient2393);fill-opacity:1;fill-rule:evenodd;stroke:none" />
</svg>
