<?xml version="1.0" encoding="UTF-8" standalone="no"?>
<svg
   version="1.0"
   width="22"
   height="22"
   id="svg3226"
   sodipodi:docname="bluetooth-disabled.svg"
   inkscape:version="1.2.2 (b0a8486541, 2022-12-01)"
   xmlns:inkscape="http://www.inkscape.org/namespaces/inkscape"
   xmlns:sodipodi="http://sodipodi.sourceforge.net/DTD/sodipodi-0.dtd"
   xmlns:xlink="http://www.w3.org/1999/xlink"
   xmlns="http://www.w3.org/2000/svg"
   xmlns:svg="http://www.w3.org/2000/svg"
   xmlns:rdf="http://www.w3.org/1999/02/22-rdf-syntax-ns#"
   xmlns:cc="http://creativecommons.org/ns#"
   xmlns:dc="http://purl.org/dc/elements/1.1/">
  <sodipodi:namedview
     id="namedview13612"
     pagecolor="#ffffff"
     bordercolor="#000000"
     borderopacity="0.25"
     inkscape:showpageshadow="2"
     inkscape:pageopacity="0.0"
     inkscape:pagecheckerboard="0"
     inkscape:deskcolor="#d1d1d1"
     showgrid="false"
     inkscape:zoom="45.254834"
     inkscape:cx="12.926796"
     inkscape:cy="11.810893"
     inkscape:window-width="1386"
     inkscape:window-height="1026"
     inkscape:window-x="1195"
     inkscape:window-y="498"
     inkscape:window-maximized="0"
     inkscape:current-layer="svg3226"
     showguides="true" />
  <metadata
     id="metadata18">
    <rdf:RDF>
      <cc:Work
         rdf:about="">
        <dc:format>image/svg+xml</dc:format>
        <dc:type
           rdf:resource="http://purl.org/dc/dcmitype/StillImage" />
      </cc:Work>
    </rdf:RDF>
  </metadata>
  <defs
     id="defs3228">
    <linearGradient
       xlink:href="#linearGradient3678"
       id="linearGradient3635"
       gradientUnits="userSpaceOnUse"
       x1="16"
       y1="20.000002"
       x2="16"
       y2="4.0000005"
       gradientTransform="translate(-1,-1)" />
    <linearGradient
       xlink:href="#linearGradient3678"
       id="linearGradient3638"
       gradientUnits="userSpaceOnUse"
       x1="16"
       y1="20.000002"
       x2="16"
       y2="4.0000005"
       gradientTransform="translate(-1,-1)" />
    <linearGradient
       id="linearGradient3678">
      <stop
         style="stop-color:#ffffff;stop-opacity:1;"
         offset="0"
         id="stop3680" />
      <stop
         style="stop-color:#e6e6e6;stop-opacity:1;"
         offset="1"
         id="stop3682" />
    </linearGradient>
  </defs>
  <g
     id="g3669"
     style="opacity:0.5">
    <path
       id="path2393"
       style="color:#000000;fill:#000000;fill-opacity:0.5;stroke-linecap:round;stroke-linejoin:round;-inkscape-stroke:none"
       d="M 10.503906 2 C 10.228025 2.00227 10.006019 2.2400074 10.007812 2.53125 L 10.041016 8.2480469 L 11.046875 9.3085938 L 11.046875 9.2832031 L 11.714844 9.9570312 L 14.794922 6.8554688 C 15.066944 6.5823662 15.069466 6.1415367 14.800781 5.8652344 L 11.248047 2.2128906 C 11.11743 2.0789868 10.938996 2.0024142 10.751953 2 L 10.503906 2 z M 11.015625 4 L 13.304688 6.3535156 L 11.042969 8.6308594 L 11.015625 4 z M 8.3378906 11.351562 L 7.2050781 12.492188 C 6.9305642 12.76887 6.932302 13.215709 7.2089844 13.490234 C 7.4856688 13.764749 7.9325039 13.762983 8.2070312 13.486328 L 9.3398438 12.353516 L 8.3378906 11.351562 z M 10.070312 13.083984 L 10.09375 17.173828 C 10.08076 17.249968 10.083633 17.328196 10.095703 17.404297 L 10.095703 17.474609 C 10.097003 17.766786 10.322846 18.002286 10.599609 18 C 10.879034 18 11.169391 17.91069 11.302734 17.777344 L 12.976562 15.990234 L 11.978516 14.992188 L 11.085938 15.945312 L 11.074219 14.087891 L 10.070312 13.083984 z " />
    <path
       id="path3367"
       style="color:#000000;fill:url(#linearGradient3638);stroke-linecap:round;stroke-linejoin:round;-inkscape-stroke:none"
       d="M 10.751953 3 C 10.56484 2.9972321 10.384289 3.068891 10.25 3.1992188 C 9.9705974 3.4710356 9.9644761 3.9178973 10.236328 4.1972656 L 13.304688 7.3535156 L 10.720703 9.9550781 L 11.714844 10.957031 L 14.794922 7.8554688 C 15.06694 7.5823655 15.069507 7.1415373 14.800781 6.8652344 L 11.248047 3.2128906 C 11.11743 3.0789864 10.938996 3.0024142 10.751953 3 z M 8.8496094 11.835938 L 7.2050781 13.492188 C 6.9305636 13.768872 6.9323088 14.215707 7.2089844 14.490234 C 7.4856694 14.764749 7.9325033 14.762995 8.2070312 14.486328 L 9.8535156 12.839844 L 8.8496094 11.835938 z M 12.476562 15.462891 L 10.273438 17.8125 C 10.008108 18.096944 10.022961 18.54245 10.306641 18.808594 C 10.590555 19.074438 11.036042 19.060462 11.302734 18.777344 L 13.474609 16.460938 L 12.476562 15.462891 z " />
    <path
       id="path3590"
       style="color:#000000;fill:url(#linearGradient3635);stroke-linecap:round;-inkscape-stroke:none"
       d="M 10.503906 3.375 A 0.5 0.5 0 0 0 10.007812 3.8789062 L 10.041016 9.2929688 L 11.046875 10.298828 L 11.007812 3.8710938 A 0.5 0.5 0 0 0 10.503906 3.375 z M 10.064453 13.050781 L 10.095703 18.033203 A 0.5 0.5 0 0 0 10.599609 18.53125 A 0.5 0.5 0 0 0 11.095703 18.027344 L 11.070312 14.056641 L 10.064453 13.050781 z " />
  </g>
  <path
     style="fill:none;fill-opacity:1;stroke:#fafafa;stroke-width:1.35;stroke-linecap:round;stroke-dasharray:none;stroke-opacity:1;paint-order:markers fill stroke;stop-color:#000000;opacity:0.8"
     d="M 5.3521879,5.5534969 17.969378,18.152877"
     id="path7679" />
</svg>
