<?xml version="1.0" encoding="UTF-8" standalone="no"?>
<svg
   xmlns:dc="http://purl.org/dc/elements/1.1/"
   xmlns:cc="http://creativecommons.org/ns#"
   xmlns:rdf="http://www.w3.org/1999/02/22-rdf-syntax-ns#"
   xmlns:svg="http://www.w3.org/2000/svg"
   xmlns="http://www.w3.org/2000/svg"
   xmlns:xlink="http://www.w3.org/1999/xlink"
   version="1.1"
   width="22"
   height="22"
   id="svg3833">
  <metadata
     id="metadata13">
    <rdf:RDF>
      <cc:Work
         rdf:about="">
        <dc:format>image/svg+xml</dc:format>
        <dc:type
           rdf:resource="http://purl.org/dc/dcmitype/StillImage" />
      </cc:Work>
    </rdf:RDF>
  </metadata>
  <defs
     id="defs3835">
    <linearGradient
       id="linearGradient3678">
      <stop
         style="stop-color:#ffffff;stop-opacity:1;"
         offset="0"
         id="stop3680" />
      <stop
         style="stop-color:#e6e6e6;stop-opacity:1;"
         offset="1"
         id="stop3682" />
    </linearGradient>
    <linearGradient
       xlink:href="#linearGradient3678"
       id="linearGradient2851"
       gradientUnits="userSpaceOnUse"
       gradientTransform="translate(-0.191199,0.438695)"
       x1="11.191199"
       y1="3.561305"
       x2="11.191199"
       y2="17.561304" />
  </defs>
  <path
     style="opacity:0.50000000000000000;color:#000000;fill:#000000;fill-opacity:1;fill-rule:nonzero;stroke:none;stroke-width:1;marker:none;visibility:visible;display:inline;overflow:visible;enable-background:accumulate"
     id="path2835-6"
     d="M 6.5,4.5 2,8 6.5,11 2,15 11,21 20,15 15.5,11 20,8 15.5,4.5 11,8 6.5,4.5 z M 11,9 c 1.482632,0 2.412772,0.5582915 3,1.25 L 14,9 l 1,0 0,2 0,1 -1,0 -2,0 0,-1 1.3125,0 C 12.877148,10.443283 12.170048,10 11,10 8,10 8,13 8,13 l -1,0 c 0,0 0,-4.0000004 4,-4 z m 3,4 1,0 c 0,0 0,4 -4,4 -1.482632,0 -2.412772,-0.558291 -3,-1.25 l 0,1.25 -1,0 0,-2 0,-1 1,0 2,0 0,1 -1.3125,0 c 0.435352,0.556717 1.142452,1 2.3125,1 3,0 3,-3 3,-3 z" />
  <path
     style="opacity:1;color:#000000;fill:url(#linearGradient2851);fill-opacity:1;fill-rule:nonzero;stroke:none;stroke-width:1;marker:none;visibility:visible;display:inline;overflow:visible;enable-background:accumulate"
     id="path2835"
     d="M 6.5,3.5 2,7 6.5,10 2,14 11,20 20,14 15.5,10 20,7 15.5,3.5 11,7 6.5,3.5 z M 11,8 c 1.482632,0 2.412772,0.5582915 3,1.25 L 14,8 l 1,0 0,2 0,1 -1,0 -2,0 0,-1 1.3125,0 C 12.877148,9.443283 12.170048,9 11,9 8,9 8,12 8,12 l -1,0 c 0,0 0,-4.0000004 4,-4 z m 3,4 1,0 c 0,0 0,4 -4,4 -1.482632,0 -2.412772,-0.558291 -3,-1.25 l 0,1.25 -1,0 0,-2 0,-1 1,0 2,0 0,1 -1.3125,0 c 0.435352,0.556717 1.142452,1 2.3125,1 3,0 3,-3 3,-3 z" />
</svg>
