<?xml version="1.0" encoding="UTF-8" standalone="no"?>
<svg
   xmlns:dc="http://purl.org/dc/elements/1.1/"
   xmlns:cc="http://creativecommons.org/ns#"
   xmlns:rdf="http://www.w3.org/1999/02/22-rdf-syntax-ns#"
   xmlns:svg="http://www.w3.org/2000/svg"
   xmlns="http://www.w3.org/2000/svg"
   xmlns:xlink="http://www.w3.org/1999/xlink"
   id="svg3718"
   height="22"
   width="22"
   version="1.1">
  <metadata
     id="metadata7634">
    <rdf:RDF>
      <cc:Work
         rdf:about="">
        <dc:format>image/svg+xml</dc:format>
        <dc:type
           rdf:resource="http://purl.org/dc/dcmitype/StillImage" />
      </cc:Work>
    </rdf:RDF>
  </metadata>
  <defs
     id="defs3720">
    <linearGradient
       y2="17.01939"
       x2="11.376964"
       y1="14.98917"
       x1="11.376964"
       gradientTransform="translate(-1,-0.9999995)"
       gradientUnits="userSpaceOnUse"
       id="linearGradient7287"
       xlink:href="#linearGradient7300" />
    <linearGradient
       id="linearGradient7300">
      <stop
         id="stop7302"
         style="stop-color:#ff5a5a;stop-opacity:1;"
         offset="0" />
      <stop
         id="stop7304"
         style="stop-color:#de4040;stop-opacity:1;"
         offset="0.704952" />
      <stop
         id="stop7306"
         style="stop-color:#bd2121;stop-opacity:1;"
         offset="1" />
    </linearGradient>
    <linearGradient
       y2="17.01939"
       x2="11.376964"
       y1="7"
       x1="11.376964"
       gradientTransform="translate(-1,-0.9999995)"
       gradientUnits="userSpaceOnUse"
       id="linearGradient7290"
       xlink:href="#linearGradient7300" />
    <linearGradient
       y2="21"
       x2="12"
       y1="1.9895233"
       x1="12"
       gradientTransform="translate(-1,-0.9999995)"
       gradientUnits="userSpaceOnUse"
       id="linearGradient7293"
       xlink:href="#linearGradient7300" />
  </defs>
  <path
     style="opacity:0.5;fill:#000000;fill-opacity:1;fill-rule:nonzero;stroke:none;stroke-width:1;marker:none;visibility:visible;display:inline;overflow:visible;enable-background:accumulate"
     id="path3471-5"
     d="m 11,7.0000005 c -0.554,0 -1,0.446 -1,1 L 10,13 c 0,0.554 0.446,1 1,1 0.554,0 1,-0.446 1,-1 l 0,-4.9999995 c 0,-0.554 -0.446,-1 -1,-1 z M 10.75,15 C 10.3345,15 10,15.3345 10,15.75 l 0,0.5 c 0,0.4155 0.3345,0.75 0.75,0.75 l 0.5,0 C 11.6655,17 12,16.6655 12,16.25 l 0,-0.5 C 12,15.3345 11.6655,15 11.25,15 l -0.5,0 z" />
  <rect
     style="opacity:0.3;fill:none;stroke:#f00000;stroke-width:0.5;stroke-linecap:round;stroke-linejoin:miter;stroke-miterlimit:4;stroke-opacity:1;stroke-dasharray:none;stroke-dashoffset:0;marker:none;visibility:visible;display:inline;overflow:visible;enable-background:accumulate"
     id="rect3236-3-3"
     transform="matrix(0,-1,1,0,0,0)"
     y="7.249999"
     x="-18.749992"
     ry="0.25"
     rx="0.25"
     height="7.5"
     width="14.5" />
  <path
     style="opacity:0.5;fill:none;stroke:#000000;stroke-width:1;stroke-linecap:round;stroke-linejoin:miter;stroke-miterlimit:4;stroke-opacity:1;stroke-dashoffset:0;marker:none;visibility:visible;display:inline;overflow:visible;enable-background:accumulate"
     id="path3208-4-8"
     d="m 6.5,19.5 0,-13.9999995 c 0,-0.554 0.446,-1 1,-1 l 7,0 c 0.554,0 1,0.446 1,1 L 15.5,19.5 c 0,0.554 -0.446,1 -1,1 l -7,0 c -0.554,0 -1,-0.446 -1,-1 z M 9.50264,4.3815505 c 7e-4,-0.32804 0.002,-0.65608 0.002,-0.98411 0.0408,-0.59782 0.6496,-0.97673 1.2122,-0.89747 0.53292,0.0234 1.17689,-0.12412 1.55486,0.36319 0.35076,0.43848 0.19141,1.0212 0.2278,1.53721" />
  <path
     style="opacity:1;fill:none;stroke:url(#linearGradient7293);stroke-width:1;stroke-linecap:round;stroke-linejoin:miter;stroke-miterlimit:4;stroke-opacity:1;stroke-dashoffset:0;marker:none;visibility:visible;display:inline;overflow:visible;enable-background:accumulate"
     id="rect2442-4-8"
     d="m 6.5,18.5 0,-13.9999995 c 0,-0.554 0.446,-1 1,-1 l 7,0 c 0.554,0 1,0.446 1,1 L 15.5,18.5 c 0,0.554 -0.446,1 -1,1 l -7,0 c -0.554,0 -1,-0.446 -1,-1 z M 9.50264,3.3815505 c 7e-4,-0.32804 0.002,-0.65608 0.002,-0.98411 0.0408,-0.59782 0.6496,-0.97673 1.2122,-0.89747 0.53292,0.0234 1.17689,-0.12412 1.55486,0.36319 0.35076,0.43848 0.19141,1.0212 0.2278,1.53721" />
  <path
     style="opacity:1;fill:url(#linearGradient7290);fill-opacity:1;fill-rule:nonzero;stroke:none;stroke-width:1;marker:none;visibility:visible;display:inline;overflow:visible;enable-background:accumulate"
     id="path3467-3"
     d="m 11,6.0000005 c 0.554,0 1,0.446 1,1 L 12,12 c 0,0.554 -0.446,1 -1,1 -0.554,0 -1,-0.446 -1,-1 l 0,-4.9999995 c 0,-0.554 0.446,-1 1,-1 z" />
  <path
     style="opacity:1;fill:url(#linearGradient7287);fill-opacity:1;fill-rule:nonzero;stroke:none;stroke-width:1;marker:none;visibility:visible;display:inline;overflow:visible;enable-background:accumulate"
     id="rect3448-1"
     d="m 10.75,14 0.5,0 c 0.4155,0 0.75,0.3345 0.75,0.75 l 0,0.5 C 12,15.6655 11.6655,16 11.25,16 l -0.5,0 C 10.3345,16 10,15.6655 10,15.25 l 0,-0.5 C 10,14.3345 10.3345,14 10.75,14 z" />
</svg>
