<?xml version="1.0" encoding="UTF-8" standalone="no"?>
<!-- Created with Inkscape (http://www.inkscape.org/) -->

<svg
   xmlns:dc="http://purl.org/dc/elements/1.1/"
   xmlns:cc="http://creativecommons.org/ns#"
   xmlns:rdf="http://www.w3.org/1999/02/22-rdf-syntax-ns#"
   xmlns:svg="http://www.w3.org/2000/svg"
   xmlns="http://www.w3.org/2000/svg"
   xmlns:xlink="http://www.w3.org/1999/xlink"
   xmlns:sodipodi="http://sodipodi.sourceforge.net/DTD/sodipodi-0.dtd"
   xmlns:inkscape="http://www.inkscape.org/namespaces/inkscape"
   version="1.1"
   width="22"
   height="22"
   id="svg3004"
   inkscape:version="0.48.5 r10040"
   sodipodi:docname="gpm-battery-100-charging.svg"
   inkscape:export-filename="/home/ochosi/Nerdstuff/shimmer/elementary-xfce/elementary-xfce-dark/panel/24/gpm-battery-charged.png"
   inkscape:export-xdpi="90"
   inkscape:export-ydpi="90">
  <sodipodi:namedview
     pagecolor="#ffffff"
     bordercolor="#666666"
     borderopacity="1"
     objecttolerance="10"
     gridtolerance="10"
     guidetolerance="10"
     inkscape:pageopacity="0"
     inkscape:pageshadow="2"
     inkscape:window-width="1159"
     inkscape:window-height="723"
     id="namedview9"
     showgrid="false"
     inkscape:zoom="14.75"
     inkscape:cx="12.070632"
     inkscape:cy="13.423729"
     inkscape:window-x="0"
     inkscape:window-y="27"
     inkscape:window-maximized="0"
     inkscape:current-layer="svg3004" />
  <defs
     id="defs3006">
    <linearGradient
       x1="51.780437"
       y1="7.2575765"
       x2="51.780437"
       y2="31.112288"
       id="linearGradient2836"
       xlink:href="#linearGradient3678"
       gradientUnits="userSpaceOnUse"
       gradientTransform="matrix(0.4101105,0,0,0.5452071,9.3029609,2.0822545)" />
    <linearGradient
       id="linearGradient3678">
      <stop
         id="stop3680"
         offset="0"
         style="stop-color:#ffffff;stop-opacity:1;" />
      <stop
         id="stop3682"
         offset="1"
         style="stop-color:#e6e6e6;stop-opacity:1;" />
    </linearGradient>
    <linearGradient
       x1="51.780437"
       y1="7.2575765"
       x2="51.780437"
       y2="31.112288"
       id="linearGradient2852"
       xlink:href="#linearGradient3678"
       gradientUnits="userSpaceOnUse"
       gradientTransform="matrix(0.4101105,0,0,0.33551206,-9.798735,7.5649954)" />
    <linearGradient
       id="linearGradient3778">
      <stop
         id="stop3780"
         offset="0"
         style="stop-color:#ffffff;stop-opacity:1;" />
      <stop
         id="stop3782"
         offset="1"
         style="stop-color:#e6e6e6;stop-opacity:1;" />
    </linearGradient>
    <linearGradient
       x1="12"
       y1="1.9895233"
       x2="12"
       y2="21"
       id="linearGradient2843"
       xlink:href="#linearGradient3678"
       gradientUnits="userSpaceOnUse"
       gradientTransform="translate(18.101695,0.0391365)" />
    <linearGradient
       id="linearGradient3785">
      <stop
         id="stop3787"
         offset="0"
         style="stop-color:#ffffff;stop-opacity:1;" />
      <stop
         id="stop3789"
         offset="1"
         style="stop-color:#e6e6e6;stop-opacity:1;" />
    </linearGradient>
    <linearGradient
       inkscape:collect="always"
       xlink:href="#linearGradient3785"
       id="linearGradient3813"
       x1="3"
       y1="5"
       x2="19"
       y2="5"
       gradientUnits="userSpaceOnUse" />
    <linearGradient
       inkscape:collect="always"
       xlink:href="#linearGradient3785"
       id="linearGradient3815"
       gradientUnits="userSpaceOnUse"
       x1="10.79661"
       y1="-3.1355932"
       x2="10.79661"
       y2="13.475821" />
    <linearGradient
       inkscape:collect="always"
       xlink:href="#linearGradient3785"
       id="linearGradient3997"
       x1="9.9152546"
       y1="-2.3898306"
       x2="9.9152546"
       y2="12.537899"
       gradientUnits="userSpaceOnUse" />
    <linearGradient
       inkscape:collect="always"
       xlink:href="#linearGradient3785"
       id="linearGradient4009"
       x1="10.915255"
       y1="4.6101694"
       x2="10.915255"
       y2="19.537899"
       gradientUnits="userSpaceOnUse"
       gradientTransform="translate(0,-1)" />
    <linearGradient
       inkscape:collect="always"
       xlink:href="#linearGradient3785"
       id="linearGradient4011"
       gradientUnits="userSpaceOnUse"
       x1="9.9152546"
       y1="-2.3898306"
       x2="9.9152546"
       y2="12.537899" />
    <linearGradient
       inkscape:collect="always"
       xlink:href="#linearGradient3785"
       id="linearGradient4070"
       x1="11.084745"
       y1="5.2203388"
       x2="11.084745"
       y2="20.000038"
       gradientUnits="userSpaceOnUse" />
    <linearGradient
       inkscape:collect="always"
       xlink:href="#linearGradient3785"
       id="linearGradient4091"
       gradientUnits="userSpaceOnUse"
       x1="11.084745"
       y1="5.2203388"
       x2="11.084745"
       y2="20.000038" />
    <linearGradient
       inkscape:collect="always"
       xlink:href="#linearGradient3785"
       id="linearGradient4094"
       gradientUnits="userSpaceOnUse"
       x1="11.084745"
       y1="5.2203388"
       x2="11.084745"
       y2="20.000038"
       gradientTransform="translate(0,-1)" />
  </defs>
  <metadata
     id="metadata3009">
    <rdf:RDF>
      <cc:Work
         rdf:about="">
        <dc:format>image/svg+xml</dc:format>
        <dc:type
           rdf:resource="http://purl.org/dc/dcmitype/StillImage" />
        <dc:title></dc:title>
      </cc:Work>
    </rdf:RDF>
  </metadata>
  <g
     style="opacity:0.5;color:#bebebe;fill:#000000;fill-opacity:1;fill-rule:nonzero;stroke-width:1;stroke-linecap:butt;stroke-linejoin:miter;stroke-miterlimit:4;stroke-opacity:1;stroke-dasharray:none;stroke-dashoffset:0;marker:none;visibility:visible;display:inline;overflow:visible;enable-background:accumulate"
     id="g4030"
     transform="translate(1,7)">
    <path
       style="color:#bebebe;fill:#000000;fill-opacity:1;fill-rule:nonzero;stroke:none;stroke-width:1;marker:none;visibility:visible;display:inline;overflow:visible;enable-background:accumulate"
       id="path4032"
       inkscape:connector-curvature="0"
       d="M 4,0 C 3.446,0 3,0.446 3,1 l 0,8 c 0,0.554 0.446,1 1,1 l 12,0 c 0.554,0 1,-0.446 1,-1 l 0,-2 1,0 c 0.554,0 1,-0.446 1,-1 L 19,4 C 19,3.446 18.554,3 18,3 L 17,3 17,1 C 17,0.446 16.554,0 16,0 z m 0.5,1 11,0 C 15.777,1 16,1.223 16,1.5 l 0,7 C 16,8.777 15.777,9 15.5,9 L 4.5,9 C 4.223,9 4,8.777 4,8.5 l 0,-7 C 4,1.223 4.223,1 4.5,1 z M 17,4 17.5,4 C 17.777,4 18,4.223 18,4.5 l 0,1 C 18,5.777 17.777,6 17.5,6 L 17,6 z" />
  </g>
  <g
     transform="translate(1,6)"
     id="layer1"
     style="color:#bebebe;fill:url(#linearGradient4011);fill-opacity:1;fill-rule:nonzero;stroke-width:1;stroke-linecap:butt;stroke-linejoin:miter;stroke-miterlimit:4;stroke-opacity:1;stroke-dasharray:none;stroke-dashoffset:0;marker:none;visibility:visible;display:inline;overflow:visible;enable-background:accumulate">
    <path
       d="M 4,0 C 3.446,0 3,0.446 3,1 l 0,8 c 0,0.554 0.446,1 1,1 l 12,0 c 0.554,0 1,-0.446 1,-1 l 0,-2 1,0 c 0.554,0 1,-0.446 1,-1 L 19,4 C 19,3.446 18.554,3 18,3 L 17,3 17,1 C 17,0.446 16.554,0 16,0 z m 0.5,1 11,0 C 15.777,1 16,1.223 16,1.5 l 0,7 C 16,8.777 15.777,9 15.5,9 L 4.5,9 C 4.223,9 4,8.777 4,8.5 l 0,-7 C 4,1.223 4.223,1 4.5,1 z M 17,4 17.5,4 C 17.777,4 18,4.223 18,4.5 l 0,1 C 18,5.777 17.777,6 17.5,6 L 17,6 z"
       inkscape:connector-curvature="0"
       id="rect3206"
       style="color:#bebebe;fill:url(#linearGradient3997);fill-opacity:1;fill-rule:nonzero;stroke:none;stroke-width:1;marker:none;visibility:visible;display:inline;overflow:visible;enable-background:accumulate" />
  </g>
  <path
     d="M 6.25,8 C 6.1115,8 6,8.1115 6,8.25 L 6,9 10,12 10.0625,9 C 12.019898,10.36509 16,13 16,13 L 16,8.25 C 16,8.1115 15.8885,8 15.75,8 z M 15.90625,13.9375 12,12 l 0,2 3.75,0 c 0.05886,0 0.113628,-0.02871 0.15625,-0.0625 z M 6,10 6,13.75 C 6,13.8885 6.1115,14 6.25,14 l 4.5625,0 z"
     inkscape:connector-curvature="0"
     id="rect3085"
     style="opacity:0.4;color:#bebebe;fill:url(#linearGradient4094);fill-opacity:1;fill-rule:nonzero;stroke:none;stroke-width:1;marker:none;visibility:visible;display:inline;overflow:visible;enable-background:accumulate" />
  <path
     style="opacity:0.5;color:#bebebe;fill:#000000;fill-opacity:1;fill-rule:nonzero;stroke:none;stroke-width:1;marker:none;visibility:visible;display:inline;overflow:visible;enable-background:accumulate"
     id="path4080"
     inkscape:connector-curvature="0"
     d="M 16,14 10.047499,9 10,12 6,10 l 6,5 0,-3 z" />
  <path
     d="M 16,13 10.047499,8 10,11 6,9 l 6,5 0,-3 z"
     inkscape:connector-curvature="0"
     id="path3172"
     style="color:#bebebe;fill:url(#linearGradient4009);fill-opacity:1;fill-rule:nonzero;stroke:none;stroke-width:1;marker:none;visibility:visible;display:inline;overflow:visible;enable-background:accumulate" />
</svg>
