<?xml version="1.0" encoding="UTF-8" standalone="no"?>
<svg
   xmlns:dc="http://purl.org/dc/elements/1.1/"
   xmlns:cc="http://creativecommons.org/ns#"
   xmlns:rdf="http://www.w3.org/1999/02/22-rdf-syntax-ns#"
   xmlns:svg="http://www.w3.org/2000/svg"
   xmlns="http://www.w3.org/2000/svg"
   xmlns:xlink="http://www.w3.org/1999/xlink"
   version="1.0"
   width="22"
   height="22"
   id="svg2518">
  <metadata
     id="metadata19">
    <rdf:RDF>
      <cc:Work
         rdf:about="">
        <dc:format>image/svg+xml</dc:format>
        <dc:type
           rdf:resource="http://purl.org/dc/dcmitype/StillImage" />
      </cc:Work>
    </rdf:RDF>
  </metadata>
  <defs
     id="defs2520">
    <linearGradient
       x1="92.50988"
       y1="37.83659"
       x2="92.50988"
       y2="30.517714"
       id="linearGradient2516"
       xlink:href="#linearGradient7300"
       gradientUnits="userSpaceOnUse"
       gradientTransform="matrix(0.4101105,0,0,-0.4101105,-25.63626,30.515635)" />
    <linearGradient
       x1="12"
       y1="1.9895233"
       x2="12"
       y2="21"
       id="linearGradient2392"
       xlink:href="#linearGradient3678"
       gradientUnits="userSpaceOnUse"
       gradientTransform="translate(-1,-1)" />
    <linearGradient
       id="linearGradient3678">
      <stop
         style="stop-color:#ffffff;stop-opacity:1;"
         offset="0"
         id="stop3680" />
      <stop
         style="stop-color:#e6e6e6;stop-opacity:1;"
         offset="1"
         id="stop3682" />
    </linearGradient>
    <linearGradient
       id="linearGradient7300">
      <stop
         id="stop7302"
         style="stop-color:#ff5a5a;stop-opacity:1;"
         offset="0" />
      <stop
         id="stop7304"
         style="stop-color:#de4040;stop-opacity:1;"
         offset="0.704952" />
      <stop
         id="stop7306"
         style="stop-color:#bd2121;stop-opacity:1;"
         offset="1" />
    </linearGradient>
  </defs>
  <g
     id="layer1">
    <rect
       width="14.5"
       height="7.5"
       rx="0.25"
       ry="0.25"
       x="-18.75"
       y="7.25"
       transform="matrix(0,-1,1,0,0,0)"
       id="rect3236"
       style="opacity:0.29999999999999999;fill:none;fill-opacity:1;fill-rule:nonzero;stroke:#ffffff;stroke-width:0.50000000000000000;stroke-linecap:round;stroke-linejoin:miter;marker:none;marker-start:none;marker-mid:none;marker-end:none;stroke-miterlimit:4;stroke-dasharray:none;stroke-dashoffset:0;stroke-opacity:1;visibility:visible;display:inline;overflow:visible;enable-background:accumulate" />
    <path
       d="M 8.0500002,16 C 10.05,16 12.05,16 14.05,16 c 0,1 0,2 0,3 -2,0 -4,0 -5.9999998,0 0,-1 0,-2 0,-3 z"
       id="rect3728-9"
       style="opacity:0.5;fill:#000000;fill-opacity:1;fill-rule:nonzero;stroke:none;stroke-width:1;marker:none;visibility:visible;display:inline;overflow:visible;enable-background:accumulate" />
    <path
       d="M 6.5,19.5 L 6.5,5.5 C 6.5,4.946 6.946,4.5 7.5,4.5 L 14.5,4.5 C 15.054,4.5 15.5,4.946 15.5,5.5 L 15.5,19.5 C 15.5,20.054 15.054,20.5 14.5,20.5 L 7.5,20.5 C 6.946,20.5 6.5,20.054 6.5,19.5 z M 9.50264,4.381549 C 9.50334,4.053509 9.504168,3.725473 9.505144,3.397441 C 9.545901,2.799616 10.15474,2.420708 10.717338,2.499967 C 11.25026,2.5234 11.894234,2.375846 12.272203,2.863162 C 12.622964,3.30164 12.463608,3.884362 12.5,4.400369"
       id="path3208"
       style="opacity:0.5;fill:none;fill-opacity:1;fill-rule:nonzero;stroke:#000000;stroke-width:1;stroke-linecap:round;stroke-linejoin:miter;marker:none;marker-start:none;marker-mid:none;marker-end:none;stroke-miterlimit:4;stroke-dashoffset:0;stroke-opacity:1;visibility:visible;display:inline;overflow:visible;enable-background:accumulate" />
    <path
       d="M 8.0500002,18 C 10.05,18 12.05,18 14.05,18 c 0,-1 0,-2 0,-3 -2,0 -4,0 -5.9999998,0 0,1 0,2 0,3 z"
       id="rect3728"
       style="fill:url(#linearGradient2516);fill-opacity:1;fill-rule:nonzero;stroke:none;stroke-width:1;marker:none;visibility:visible;display:inline;overflow:visible;enable-background:accumulate" />
    <path
       d="M 6.5,18.5 L 6.5,4.5 C 6.5,3.946 6.946,3.5 7.5,3.5 L 14.5,3.5 C 15.054,3.5 15.5,3.946 15.5,4.5 L 15.5,18.5 C 15.5,19.054 15.054,19.5 14.5,19.5 L 7.5,19.5 C 6.946,19.5 6.5,19.054 6.5,18.5 z M 9.50264,3.381549 C 9.50334,3.053509 9.504168,2.725473 9.505144,2.397441 C 9.545901,1.799616 10.15474,1.420708 10.717338,1.499967 C 11.25026,1.5234 11.894234,1.375846 12.272203,1.863162 C 12.622964,2.30164 12.463608,2.884362 12.5,3.400369"
       id="rect2442"
       style="opacity:1;fill:none;fill-opacity:1;fill-rule:nonzero;stroke:url(#linearGradient2392);stroke-width:1;stroke-linecap:round;stroke-linejoin:miter;marker:none;marker-start:none;marker-mid:none;marker-end:none;stroke-miterlimit:4;stroke-dashoffset:0;stroke-opacity:1;visibility:visible;display:inline;overflow:visible;enable-background:accumulate" />
  </g>
</svg>
