<?xml version="1.0" encoding="UTF-8" standalone="no"?>
<svg
   xmlns:dc="http://purl.org/dc/elements/1.1/"
   xmlns:cc="http://creativecommons.org/ns#"
   xmlns:rdf="http://www.w3.org/1999/02/22-rdf-syntax-ns#"
   xmlns:svg="http://www.w3.org/2000/svg"
   xmlns="http://www.w3.org/2000/svg"
   xmlns:xlink="http://www.w3.org/1999/xlink"
   id="svg3294"
   height="22"
   width="22"
   version="1.0">
  <metadata
     id="metadata15">
    <rdf:RDF>
      <cc:Work
         rdf:about="">
        <dc:format>image/svg+xml</dc:format>
        <dc:type
           rdf:resource="http://purl.org/dc/dcmitype/StillImage" />
      </cc:Work>
    </rdf:RDF>
  </metadata>
  <defs
     id="defs3296">
    <linearGradient
       id="linearGradient3678">
      <stop
         id="stop3680"
         offset="0"
         style="stop-color:#ffffff;stop-opacity:1;" />
      <stop
         id="stop3682"
         offset="1"
         style="stop-color:#e6e6e6;stop-opacity:1;" />
    </linearGradient>
    <linearGradient
       y2="19"
       x2="-33.805603"
       y1="16"
       x1="-33.805603"
       gradientTransform="translate(44.805604,0)"
       gradientUnits="userSpaceOnUse"
       id="linearGradient3625"
       xlink:href="#linearGradient3678" />
    <linearGradient
       y2="15.041595"
       x2="-33.805603"
       y1="3"
       x1="-33.805603"
       gradientTransform="translate(44.805604,0)"
       gradientUnits="userSpaceOnUse"
       id="linearGradient3628"
       xlink:href="#linearGradient3678" />
  </defs>
  <path
     d="M 4,4 C 3.446,4 3,4.4893865 3,5.09375 l 0,9.8125 C 3,15.510614 3.446,16 4,16 l 14,0 c 0.554,0 1,-0.489386 1,-1.09375 l 0,-9.8125 C 19,4.4893863 18.554,4 18,4 L 4,4 z m 1,2 12,0 0,8 -12,0 0,-8 z m 3,11 6,0 0,1 2,0 0,2 -10,0 0,-2 2,0 0,-1 z"
     id="path3287"
     style="opacity:0.5;fill:#000000;fill-opacity:1;fill-rule:nonzero;stroke:none;stroke-width:1;marker:none;visibility:visible;display:inline;overflow:visible;enable-background:accumulate" />
  <path
     d="M 4,3 C 3.446,3 3,3.4893865 3,4.09375 l 0,9.8125 C 3,14.510614 3.446,15 4,15 l 14,0 c 0.554,0 1,-0.489386 1,-1.09375 l 0,-9.8125 C 19,3.4893863 18.554,3 18,3 L 4,3 z m 1,2 12,0 0,8 -12,0 0,-8 z"
     id="rect2722"
     style="opacity:1;fill:url(#linearGradient3628);fill-opacity:1;fill-rule:nonzero;stroke:none;stroke-width:1;marker:none;visibility:visible;display:inline;overflow:visible;enable-background:accumulate" />
  <path
     d="m 8,16 6,0 0,1 2,0 0,2 -10,0 0,-2 2,0 0,-1 z"
     id="path3271"
     style="opacity:1;fill:url(#linearGradient3625);fill-opacity:1;fill-rule:nonzero;stroke:none;stroke-width:1;marker:none;visibility:visible;display:inline;overflow:visible;enable-background:accumulate" />
</svg>
