<?xml version="1.0" encoding="UTF-8" standalone="no"?>
<svg
   xmlns:dc="http://purl.org/dc/elements/1.1/"
   xmlns:cc="http://creativecommons.org/ns#"
   xmlns:rdf="http://www.w3.org/1999/02/22-rdf-syntax-ns#"
   xmlns:svg="http://www.w3.org/2000/svg"
   xmlns="http://www.w3.org/2000/svg"
   xmlns:xlink="http://www.w3.org/1999/xlink"
   version="1.0"
   width="22"
   height="22"
   id="svg4073">
  <metadata
     id="metadata18">
    <rdf:RDF>
      <cc:Work
         rdf:about="">
        <dc:format>image/svg+xml</dc:format>
        <dc:type
           rdf:resource="http://purl.org/dc/dcmitype/StillImage" />
      </cc:Work>
    </rdf:RDF>
  </metadata>
  <defs
     id="defs4075">
    <linearGradient
       id="linearGradient3678">
      <stop
         style="stop-color:#ffffff;stop-opacity:1;"
         offset="0"
         id="stop3680" />
      <stop
         style="stop-color:#e6e6e6;stop-opacity:1;"
         offset="1"
         id="stop3682" />
    </linearGradient>
    <linearGradient
       xlink:href="#linearGradient3678"
       id="linearGradient3684"
       x1="9.1701241"
       y1="3"
       x2="9.311203"
       y2="15"
       gradientUnits="userSpaceOnUse" />
    <linearGradient
       xlink:href="#linearGradient3678"
       id="linearGradient895"
       gradientUnits="userSpaceOnUse"
       x1="15"
       y1="8"
       x2="15"
       y2="20" />
    <linearGradient
       y2="38.389946"
       x2="31.261829"
       y1="23.638462"
       x1="31.261829"
       gradientTransform="matrix(0.4101105,0,0,0.5452071,6.1791955,0.1014845)"
       gradientUnits="userSpaceOnUse"
       id="linearGradient2388-2"
       xlink:href="#linearGradient3678" />
  </defs>
  <path
     style="display:inline;overflow:visible;visibility:visible;opacity:0.5;fill:#000000;fill-opacity:1;fill-rule:nonzero;stroke:none;stroke-width:1;marker:none;enable-background:accumulate"
     d="M 7,4 2,9 h 3 v 7 H 9 V 9 h 3 z m 6,5 v 7 h -3 l 5,5 0.03516,-0.03516 C 15.013268,20.868696 15,20.768979 15,20.666016 v -4 c 0,-0.738667 0.261333,-1.332032 1,-1.332032 v -1.292968 c 0,-0.682241 0.589793,-1.298791 1,-1.775391 V 9 Z"
     id="path4348-1-7" />
  <path
     style="display:inline;overflow:visible;visibility:visible;fill:url(#linearGradient895);fill-opacity:1;fill-rule:nonzero;stroke:none;stroke-width:1;marker:none;enable-background:accumulate"
     d="m 13,8 v 7 h -3 l 5,5 v -3.333984 c 0,-0.738667 0.261333,-1.332032 1,-1.332032 v -1.292968 c 0,-0.682241 0.589793,-1.298791 1,-1.775391 V 8 Z"
     id="path4348-1" />
  <path
     d="M 12,8 7,3 2,8 l 3,0 0,7 4,0 0,-7 3,0 z"
     id="path4348-1-3"
     style="fill:url(#linearGradient3684);fill-opacity:1;fill-rule:nonzero;stroke:none;stroke-width:1;marker:none;visibility:visible;display:inline;overflow:visible;enable-background:accumulate" />
  <g
     id="g913">
    <path
       d="m 19,14 c -1.108,0 -2,0.910763 -2,2.03125 V 17 c -0.554,0 -1,0.446 -1,1 v 3 c 0,0.554 0.446,1 1,1 h 4 c 0.554,0 1,-0.446 1,-1 v -3 c 0,-0.554 -0.446,-1 -1,-1 V 16.03125 C 21,14.910764 20.108,14 19,14 Z m 0,1 c 0.554,0 1,0.442363 1,1 v 1 h -2 v -1 c 0,-0.557637 0.446,-1 1,-1 z"
       id="path2441-2"
       style="display:inline;overflow:visible;visibility:visible;opacity:0.5;fill:#000000;fill-opacity:1;fill-rule:nonzero;stroke:none;stroke-width:1;stroke-linecap:butt;stroke-linejoin:miter;stroke-miterlimit:4;stroke-dasharray:none;stroke-dashoffset:0;stroke-opacity:1;marker:none;marker-start:none;marker-mid:none;marker-end:none;enable-background:accumulate" />
    <path
       d="m 19,13 c -1.108,0 -2,0.910763 -2,2.03125 V 16 c -0.554,0 -1,0.446 -1,1 v 3 c 0,0.554 0.446,1 1,1 h 4 c 0.554,0 1,-0.446 1,-1 v -3 c 0,-0.554 -0.446,-1 -1,-1 V 15.03125 C 21,13.910764 20.108,13 19,13 Z m 0,1 c 0.554,0 1,0.442363 1,1 v 1 h -2 v -1 c 0,-0.557637 0.446,-1 1,-1 z"
       id="rect2822"
       style="display:inline;overflow:visible;visibility:visible;opacity:1;fill:url(#linearGradient2388-2);fill-opacity:1;fill-rule:nonzero;stroke:none;stroke-width:1;stroke-linecap:butt;stroke-linejoin:miter;stroke-miterlimit:4;stroke-dasharray:none;stroke-dashoffset:0;stroke-opacity:1;marker:none;marker-start:none;marker-mid:none;marker-end:none;enable-background:accumulate" />
  </g>
</svg>
