<?xml version="1.0" encoding="UTF-8" standalone="no"?>
<svg
   xmlns:dc="http://purl.org/dc/elements/1.1/"
   xmlns:cc="http://creativecommons.org/ns#"
   xmlns:rdf="http://www.w3.org/1999/02/22-rdf-syntax-ns#"
   xmlns:svg="http://www.w3.org/2000/svg"
   xmlns="http://www.w3.org/2000/svg"
   xmlns:xlink="http://www.w3.org/1999/xlink"
   version="1.0"
   width="22"
   height="22"
   id="svg3226">
  <metadata
     id="metadata16">
    <rdf:RDF>
      <cc:Work
         rdf:about="">
        <dc:format>image/svg+xml</dc:format>
        <dc:type
           rdf:resource="http://purl.org/dc/dcmitype/StillImage" />
      </cc:Work>
    </rdf:RDF>
  </metadata>
  <defs
     id="defs3228">
    <linearGradient
       id="linearGradient3678">
      <stop
         style="stop-color:#ffffff;stop-opacity:1;"
         offset="0"
         id="stop3680" />
      <stop
         style="stop-color:#e6e6e6;stop-opacity:1;"
         offset="1"
         id="stop3682" />
    </linearGradient>
    <linearGradient
       xlink:href="#linearGradient3678"
       id="linearGradient2854"
       gradientUnits="userSpaceOnUse"
       x1="4.5859532"
       y1="11.951736"
       x2="4.5859532"
       y2="20.535381"
       gradientTransform="translate(-0.9591669,-1)" />
    <linearGradient
       xlink:href="#linearGradient3678"
       id="linearGradient2857"
       gradientUnits="userSpaceOnUse"
       gradientTransform="matrix(0.4101105,0,0,-0.4101105,-12.920728,22.852985)"
       x1="65.775291"
       y1="48.41246"
       x2="65.775291"
       y2="9.1825657" />
  </defs>
  <path
     style="opacity:0.5;fill:#000000;fill-opacity:1;fill-rule:nonzero;stroke:none;stroke-width:1;marker:none;visibility:visible;display:inline;overflow:visible;enable-background:accumulate"
     id="path3218"
     d="m 7.0504203,17.010548 2.0428338,0 0,3.001714 -2.0428338,0 0,-3.001714 0,0 z m 4.0308067,-4.002286 2.014309,0 0,7.004 -2.042833,0 0.02852,-7.004 4e-6,0 z m 3.973762,-4.002287 2.016321,0 -0.01517,11.006288 -2.001143,0 -8e-6,-11.006288 z m 6.00341,-5.0071616 0,16.0134486 -2.012613,0 0.02601,-16.0129257 1.986603,-5.229e-4 0,0 z" />
  <path
     style="opacity:0.5;fill:none;stroke:#000000;stroke-width:1px;stroke-linecap:butt;stroke-linejoin:bevel;stroke-opacity:1"
     id="path3220"
     d="m 3.5434052,12.452023 0.041691,3.376929 m -5e-7,4.169048 0,-3.960596 L 0.5,12.493714 l 6.2535723,0 -3.1267862,3.585381" />
  <path
     style="opacity:1;fill:url(#linearGradient2857);fill-opacity:1;fill-rule:nonzero;stroke:none;stroke-width:1;marker:none;visibility:visible;display:inline;overflow:visible;enable-background:accumulate"
     id="path3694"
     d="m 7.0504203,16.010261 2.0428338,0 0,3.001714 -2.0428338,0 0,-3.001714 0,0 z m 4.0308067,-4.002286 2.014309,0 0,7.004 -2.042833,0 0.02852,-7.004 4e-6,0 z m 3.973762,-4.0022869 2.016321,0 -0.01517,11.0062879 -2.001143,0 -8e-6,-11.0062879 z m 6.00341,-5.0071617 0,16.0134486 -2.012613,0 0.02601,-16.0129257 1.986603,-5.229e-4 0,0 z" />
  <path
     style="opacity:1;fill:none;stroke:url(#linearGradient2854);stroke-width:1px;stroke-linecap:butt;stroke-linejoin:bevel;stroke-opacity:1"
     id="path3657"
     d="m 3.5434052,11.451736 0.041691,3.376929 m -5e-7,4.169048 0,-3.960596 L 0.5,11.493427 l 6.2535723,0 -3.1267862,3.585381" />
</svg>
