<?xml version="1.0" encoding="UTF-8" standalone="no"?>
<svg
   version="1.0"
   width="22"
   height="22"
   id="svg4073"
   sodipodi:docname="nm-device-wired.svg"
   inkscape:version="1.1.2 (0a00cf5339, 2022-02-04)"
   xmlns:inkscape="http://www.inkscape.org/namespaces/inkscape"
   xmlns:sodipodi="http://sodipodi.sourceforge.net/DTD/sodipodi-0.dtd"
   xmlns:xlink="http://www.w3.org/1999/xlink"
   xmlns="http://www.w3.org/2000/svg"
   xmlns:svg="http://www.w3.org/2000/svg"
   xmlns:rdf="http://www.w3.org/1999/02/22-rdf-syntax-ns#"
   xmlns:cc="http://creativecommons.org/ns#"
   xmlns:dc="http://purl.org/dc/elements/1.1/">
  <sodipodi:namedview
     id="namedview13"
     pagecolor="#ffffff"
     bordercolor="#666666"
     borderopacity="1.0"
     inkscape:pageshadow="2"
     inkscape:pageopacity="0.0"
     inkscape:pagecheckerboard="0"
     showgrid="false"
     inkscape:zoom="31"
     inkscape:cx="10.983871"
     inkscape:cy="11"
     inkscape:window-width="1920"
     inkscape:window-height="1029"
     inkscape:window-x="0"
     inkscape:window-y="0"
     inkscape:window-maximized="1"
     inkscape:current-layer="g1220" />
  <metadata
     id="metadata18">
    <rdf:RDF>
      <cc:Work
         rdf:about="">
        <dc:format>image/svg+xml</dc:format>
        <dc:type
           rdf:resource="http://purl.org/dc/dcmitype/StillImage" />
      </cc:Work>
    </rdf:RDF>
  </metadata>
  <defs
     id="defs4075">
    <linearGradient
       id="linearGradient3678">
      <stop
         style="stop-color:#ffffff;stop-opacity:1;"
         offset="0"
         id="stop3680" />
      <stop
         style="stop-color:#e6e6e6;stop-opacity:1;"
         offset="1"
         id="stop3682" />
    </linearGradient>
    <linearGradient
       inkscape:collect="always"
       xlink:href="#linearGradient3678"
       id="linearGradient865"
       x1="9.1227322"
       y1="-0.20294978"
       x2="9.1227322"
       y2="16.142153"
       gradientUnits="userSpaceOnUse" />
  </defs>
  <g
     fill="#2e3436"
     id="g1220"
     style="fill:#000000;fill-opacity:0.5"
     transform="translate(3,4)">
    <path
       id="path1397"
       style="fill:#000000;fill-opacity:0.5"
       d="M 10 7.5 L 10 11 L 3 11 L 3 13 L 10 13 L 12 13 L 19 13 L 19 11 L 12 11 L 12 7.5 L 10 7.5 z "
       transform="translate(-3,-4)" />
    <path
       d="m 12,7 h 2 v 6 h -2 z m 0,0"
       id="path1391"
       style="fill:#000000;fill-opacity:0.5" />
    <path
       d="m 2,7 h 2 v 6 H 2 Z m 0,0"
       id="path1388"
       style="fill:#000000;fill-opacity:0.5" />
    <path
       d="m 1,11 h 4 c 0.550781,0 1,0.449219 1,1 v 3 c 0,0.550781 -0.449219,1 -1,1 H 1 C 0.449219,16 0,15.550781 0,15 v -3 c 0,-0.550781 0.449219,-1 1,-1 z m 0,0"
       id="path1385"
       style="fill:#000000;fill-opacity:0.5" />
    <path
       d="m 11,11 h 4 c 0.550781,0 1,0.449219 1,1 v 3 c 0,0.550781 -0.449219,1 -1,1 h -4 c -0.550781,0 -1,-0.449219 -1,-1 v -3 c 0,-0.550781 0.449219,-1 1,-1 z m 0,0"
       id="path1382"
       style="fill:#000000;fill-opacity:0.5" />
    <path
       d="m 6,0 h 4 c 0.550781,0 1,0.449219 1,1 v 3 c 0,0.550781 -0.449219,1 -1,1 H 6 C 5.449219,5 5,4.550781 5,4 V 1 C 5,0.449219 5.449219,0 6,0 Z m 0,0"
       id="path1379"
       style="fill:#000000;fill-opacity:0.5" />
  </g>
  <g
     fill="#2e3436"
     id="g16"
     style="fill:url(#linearGradient865);fill-opacity:1"
     transform="translate(3,3)">
    <path
       d="M 0,7 H 16 V 9 H 0 Z m 0,0"
       id="path2"
       style="fill:url(#linearGradient865);fill-opacity:1.0" />
    <path
       d="M 7,3.5 H 9 V 9 H 7 Z m 0,0"
       id="path4"
       style="fill:url(#linearGradient865);fill-opacity:1.0" />
    <path
       d="m 12,7 h 2 v 6 h -2 z m 0,0"
       id="path6"
       style="fill:url(#linearGradient865);fill-opacity:1.0" />
    <path
       d="m 2,7 h 2 v 6 H 2 Z m 0,0"
       id="path8"
       style="fill:url(#linearGradient865);fill-opacity:1.0" />
    <path
       d="m 1,11 h 4 c 0.550781,0 1,0.449219 1,1 v 3 c 0,0.550781 -0.449219,1 -1,1 H 1 C 0.449219,16 0,15.550781 0,15 v -3 c 0,-0.550781 0.449219,-1 1,-1 z m 0,0"
       id="path10"
       style="fill:url(#linearGradient865);fill-opacity:1.0" />
    <path
       d="m 11,11 h 4 c 0.550781,0 1,0.449219 1,1 v 3 c 0,0.550781 -0.449219,1 -1,1 h -4 c -0.550781,0 -1,-0.449219 -1,-1 v -3 c 0,-0.550781 0.449219,-1 1,-1 z m 0,0"
       id="path12"
       style="fill:url(#linearGradient865);fill-opacity:1.0" />
    <path
       d="m 6,0 h 4 c 0.550781,0 1,0.449219 1,1 v 3 c 0,0.550781 -0.449219,1 -1,1 H 6 C 5.449219,5 5,4.550781 5,4 V 1 C 5,0.449219 5.449219,0 6,0 Z m 0,0"
       id="path14"
       style="fill:url(#linearGradient865);fill-opacity:1.0" />
  </g>
</svg>
