<?xml version="1.0" encoding="UTF-8" standalone="no"?>
<svg
   xmlns:dc="http://purl.org/dc/elements/1.1/"
   xmlns:cc="http://creativecommons.org/ns#"
   xmlns:rdf="http://www.w3.org/1999/02/22-rdf-syntax-ns#"
   xmlns:svg="http://www.w3.org/2000/svg"
   xmlns="http://www.w3.org/2000/svg"
   xmlns:xlink="http://www.w3.org/1999/xlink"
   version="1.0"
   width="22"
   height="22"
   id="svg4073">
  <metadata
     id="metadata18">
    <rdf:RDF>
      <cc:Work
         rdf:about="">
        <dc:format>image/svg+xml</dc:format>
        <dc:type
           rdf:resource="http://purl.org/dc/dcmitype/StillImage" />
      </cc:Work>
    </rdf:RDF>
  </metadata>
  <defs
     id="defs4075">
    <linearGradient
       id="linearGradient3678">
      <stop
         id="stop3680"
         offset="0"
         style="stop-color:#ffffff;stop-opacity:1;" />
      <stop
         id="stop3682"
         offset="1"
         style="stop-color:#e6e6e6;stop-opacity:1;" />
    </linearGradient>
    <linearGradient
       xlink:href="#linearGradient3678"
       id="linearGradient2857"
       gradientUnits="userSpaceOnUse"
       gradientTransform="matrix(0.4101105,0,0,0.4101105,1.737234,0.930148)"
       x1="17.973694"
       y1="34.307465"
       x2="17.973694"
       y2="5.0470591" />
    <linearGradient
       xlink:href="#linearGradient3678"
       id="linearGradient2860"
       gradientUnits="userSpaceOnUse"
       gradientTransform="matrix(0.4101105,0,0,-0.4101105,9.737234,22.069852)"
       x1="29.019793"
       y1="5.0459332"
       x2="29.019793"
       y2="29.577621" />
  </defs>
  <g
     id="g3637"
     style="opacity:0.4">
    <path
       d="M 12,7 7,2 2,7 l 3,0 0,7 4,0 0,-7 3,0 z m 8,7 -5,5 -5,-5 3,0 0,-7 4,0 0,7 3,0 z"
       style="opacity:0.50000000000000000;fill:#000000;fill-opacity:1;fill-rule:nonzero;stroke:none;stroke-width:1;marker:none;visibility:visible;display:inline;overflow:visible;enable-background:accumulate"
       id="path4348-1-3-6" />
    <path
       d="m 20,15 -5,5 -5,-5 3,0 0,-7 4,0 0,7 3,0 z"
       id="path4348-1"
       style="opacity:1;fill:url(#linearGradient2860);fill-opacity:1;fill-rule:nonzero;stroke:none;stroke-width:1;marker:none;visibility:visible;display:inline;overflow:visible;enable-background:accumulate" />
    <path
       d="M 12,8 7,3 2,8 l 3,0 0,7 4,0 0,-7 3,0 z"
       id="path4348-1-3"
       style="opacity:1;fill:url(#linearGradient2857);fill-opacity:1;fill-rule:nonzero;stroke:none;stroke-width:1;marker:none;visibility:visible;display:inline;overflow:visible;enable-background:accumulate" />
  </g>
</svg>
