<?xml version="1.0" encoding="UTF-8" standalone="no"?>
<!-- Created with Inkscape (http://www.inkscape.org/) -->

<svg
   xmlns:dc="http://purl.org/dc/elements/1.1/"
   xmlns:cc="http://creativecommons.org/ns#"
   xmlns:rdf="http://www.w3.org/1999/02/22-rdf-syntax-ns#"
   xmlns:svg="http://www.w3.org/2000/svg"
   xmlns="http://www.w3.org/2000/svg"
   xmlns:xlink="http://www.w3.org/1999/xlink"
   xmlns:sodipodi="http://sodipodi.sourceforge.net/DTD/sodipodi-0.dtd"
   xmlns:inkscape="http://www.inkscape.org/namespaces/inkscape"
   version="1.0"
   width="22"
   height="22"
   id="svg3239"
   inkscape:version="0.48.3.1 r9886"
   sodipodi:docname="onboard-mono.svg">
  <metadata
     id="metadata13">
    <rdf:RDF>
      <cc:Work
         rdf:about="">
        <dc:format>image/svg+xml</dc:format>
        <dc:type
           rdf:resource="http://purl.org/dc/dcmitype/StillImage" />
      </cc:Work>
    </rdf:RDF>
  </metadata>
  <sodipodi:namedview
     pagecolor="#ffffff"
     bordercolor="#666666"
     borderopacity="1"
     objecttolerance="10"
     gridtolerance="10"
     guidetolerance="10"
     inkscape:pageopacity="0"
     inkscape:pageshadow="2"
     inkscape:window-width="1440"
     inkscape:window-height="849"
     id="namedview11"
     showgrid="true"
     inkscape:zoom="29"
     inkscape:cx="6.3891649"
     inkscape:cy="11.600647"
     inkscape:window-x="0"
     inkscape:window-y="27"
     inkscape:window-maximized="1"
     inkscape:current-layer="svg3239">
    <inkscape:grid
       type="xygrid"
       id="grid2992" />
  </sodipodi:namedview>
  <defs
     id="defs3241">
    <linearGradient
       id="linearGradient3678">
      <stop
         style="stop-color:#ffffff;stop-opacity:1;"
         offset="0"
         id="stop3680" />
      <stop
         style="stop-color:#e6e6e6;stop-opacity:1;"
         offset="1"
         id="stop3682" />
    </linearGradient>
    <linearGradient
       inkscape:collect="always"
       xlink:href="#linearGradient3678"
       id="linearGradient3073"
       x1="11"
       y1="3"
       x2="11"
       y2="19"
       gradientUnits="userSpaceOnUse" />
  </defs>
  <g
     id="g3075">
    <path
       d="m 13,12 c -1,0 -2,1 -2,2 l 0,4 c 0,1 1,2 2,2 l 4,0 c 1,0 2,-1 2,-2 l 0,-4 c 0,-1 -1,-2 -2,-2 z m -8,0 c -1,0 -2,1 -2,2 l 0,4 c 0,1 1,2 2,2 l 4.0000002,0 C 10,20 11,19 11,18 l 0,-4 c 0,-1 -1,-2 -1.9999998,-2 z m 8,-8 c -1,0 -2,1 -2,2 l 0,4 c 0,1 1,2 2,2 l 4,0 c 1,0 2,-1 2,-2 L 19,6 C 19,5 18,4 17,4 z M 5,4 C 4,4 3,5 3,6 l 0,4 c 0,1 1,2 2,2 l 4,0 c 1,0 2,-1 2,-2 L 11,6 C 11,5 10,4 9,4 z"
       style="opacity:0.5;fill:#000000;fill-opacity:1;fill-rule:nonzero;stroke:none;stroke-width:1;marker:none;visibility:visible;display:inline;overflow:visible;enable-background:accumulate"
       id="path2998-6" />
    <path
       inkscape:connector-curvature="0"
       d="m 13,11 c -1,0 -2,1 -2,2 l 0,4 c 0,1 1,2 2,2 l 4,0 c 1,0 2,-1 2,-2 l 0,-4 c 0,-1 -1,-2 -2,-2 z m -8,0 c -1,0 -2,1 -2,2 l 0,4 c 0,1 1,2 2,2 l 4,0 c 1,0 2,-1 2,-2 l 0,-4 c 0,-1 -1,-2 -2,-2 z m 8,-8 c -1,0 -2,1 -2,2 l 0,4 c 0,1 1,2 2,2 l 4,0 c 1,0 2,-1 2,-2 L 19,5 C 19,4 18,3 17,3 z M 5,3 C 4,3 3,4 3,5 l 0,4 c 0,1 1,2 2,2 l 4,0 c 1,0 2,-1 2,-2 L 11,5 C 11,4 10,3 9,3 z"
       style="fill:url(#linearGradient3073);fill-opacity:1;fill-rule:nonzero;stroke:none;stroke-width:1;marker:none;visibility:visible;display:inline;overflow:visible;enable-background:accumulate"
       id="path3004-3" />
  </g>
</svg>
