<?xml version="1.0" encoding="UTF-8" standalone="no"?>
<!-- Created with Inkscape (http://www.inkscape.org/) -->

<svg
   xmlns:dc="http://purl.org/dc/elements/1.1/"
   xmlns:cc="http://creativecommons.org/ns#"
   xmlns:rdf="http://www.w3.org/1999/02/22-rdf-syntax-ns#"
   xmlns:svg="http://www.w3.org/2000/svg"
   xmlns="http://www.w3.org/2000/svg"
   xmlns:xlink="http://www.w3.org/1999/xlink"
   xmlns:sodipodi="http://sodipodi.sourceforge.net/DTD/sodipodi-0.dtd"
   xmlns:inkscape="http://www.inkscape.org/namespaces/inkscape"
   version="1.0"
   width="22"
   height="22"
   id="svg3212"
   inkscape:version="0.92.1 r15371"
   sodipodi:docname="redshift-status-off.svg">
  <metadata
     id="metadata13">
    <rdf:RDF>
      <cc:Work
         rdf:about="">
        <dc:format>image/svg+xml</dc:format>
        <dc:type
           rdf:resource="http://purl.org/dc/dcmitype/StillImage" />
        <dc:title />
      </cc:Work>
    </rdf:RDF>
  </metadata>
  <sodipodi:namedview
     pagecolor="#ffffff"
     bordercolor="#666666"
     borderopacity="1"
     objecttolerance="10"
     gridtolerance="10"
     guidetolerance="10"
     inkscape:pageopacity="0"
     inkscape:pageshadow="2"
     inkscape:window-width="1920"
     inkscape:window-height="1029"
     id="namedview11"
     showgrid="false"
     inkscape:zoom="13.409091"
     inkscape:cx="3.7759483"
     inkscape:cy="10.701695"
     inkscape:window-x="0"
     inkscape:window-y="27"
     inkscape:window-maximized="1"
     inkscape:current-layer="svg3212" />
  <defs
     id="defs3214">
    <linearGradient
       id="linearGradient3678">
      <stop
         style="stop-color:#ffffff;stop-opacity:1;"
         offset="0"
         id="stop3680" />
      <stop
         style="stop-color:#e6e6e6;stop-opacity:1;"
         offset="1"
         id="stop3682" />
    </linearGradient>
    <linearGradient
       inkscape:collect="always"
       xlink:href="#linearGradient3678"
       id="linearGradient845"
       x1="0.0033898645"
       y1="2.2000008"
       x2="0.0033898645"
       y2="19.725424"
       gradientUnits="userSpaceOnUse" />
    <linearGradient
       inkscape:collect="always"
       xlink:href="#linearGradient3678"
       id="linearGradient4505"
       x1="1.5971951"
       y1="3.2624371"
       x2="1.5971951"
       y2="19.818369"
       gradientUnits="userSpaceOnUse"
       gradientTransform="translate(0,-0.99999963)" />
    <linearGradient
       inkscape:collect="always"
       xlink:href="#linearGradient3678"
       id="linearGradient4509"
       gradientUnits="userSpaceOnUse"
       x1="1.5971951"
       y1="3.2624371"
       x2="1.5971951"
       y2="19.818369"
       gradientTransform="translate(0,-2.9999996)" />
  </defs>
  <path
     inkscape:connector-curvature="0"
     id="path829"
     d="M 11,3.5 A 5.5,5.6666668 0 0 0 5.5,9.166666 5.5,5.6666668 0 0 0 8.2571615,14.073349 2.75,2.8333334 0 0 0 8.4111328,14.835177 2.75,2.8333334 0 0 0 8.25,15.777777 2.75,2.8333334 0 0 0 8.4111328,16.724066 2.75,2.8333334 0 0 0 8.25,17.666666 2.75,2.8333334 0 0 0 11,20.5 2.75,2.8333334 0 0 0 13.75,17.666666 2.75,2.8333334 0 0 0 13.588867,16.720377 2.75,2.8333334 0 0 0 13.75,15.777777 2.75,2.8333334 0 0 0 13.588867,14.831488 2.75,2.8333334 0 0 0 13.741048,14.071505 5.5,5.6666668 0 0 0 16.5,9.166666 5.5,5.6666668 0 0 0 11,3.5 Z"
     style="opacity:0.5;fill:none;fill-opacity:1;stroke:#000000;stroke-width:1;stroke-linejoin:bevel;stroke-miterlimit:4;stroke-dasharray:none;stroke-dashoffset:0;stroke-opacity:1" />
  <path
     sodipodi:nodetypes="cc"
     inkscape:connector-curvature="0"
     id="path4495"
     d="m 8.2361781,15.61482 c 2.6847449,2.01356 5.5394479,0 5.5394479,0"
     style="opacity:0.5;fill:none;fill-rule:evenodd;stroke:#000000;stroke-width:1;stroke-linecap:butt;stroke-linejoin:miter;stroke-miterlimit:4;stroke-dasharray:none;stroke-opacity:1" />
  <path
     style="opacity:0.5;fill:none;fill-rule:evenodd;stroke:#000000;stroke-width:1;stroke-linecap:butt;stroke-linejoin:miter;stroke-miterlimit:4;stroke-dasharray:none;stroke-opacity:1"
     d="m 8.2361781,17.61482 c 2.6847449,2.01356 5.5394479,0 5.5394479,0"
     id="path4511"
     inkscape:connector-curvature="0"
     sodipodi:nodetypes="cc" />
  <path
     style="opacity:1;fill:none;fill-opacity:1;stroke:url(#linearGradient845);stroke-width:1;stroke-linejoin:bevel;stroke-miterlimit:4;stroke-dasharray:none;stroke-dashoffset:0;stroke-opacity:1"
     d="M 11,2.4999997 A 5.5,5.6666668 0 0 0 5.5,8.1666666 5.5,5.6666668 0 0 0 8.2571615,13.073349 2.75,2.8333334 0 0 0 8.4111328,13.835177 2.75,2.8333334 0 0 0 8.25,14.777777 2.75,2.8333334 0 0 0 8.4111328,15.724066 2.75,2.8333334 0 0 0 8.25,16.666666 2.75,2.8333334 0 0 0 11,19.5 2.75,2.8333334 0 0 0 13.75,16.666666 2.75,2.8333334 0 0 0 13.588867,15.720377 2.75,2.8333334 0 0 0 13.75,14.777777 2.75,2.8333334 0 0 0 13.588867,13.831488 2.75,2.8333334 0 0 0 13.741048,13.071505 5.5,5.6666668 0 0 0 16.5,8.1666666 5.5,5.6666668 0 0 0 11,2.4999997 Z"
     id="path817"
     inkscape:connector-curvature="0" />
  <path
     sodipodi:nodetypes="cc"
     inkscape:connector-curvature="0"
     id="path1471"
     d="m 8.2361781,16.61482 c 2.6847449,2.013559 5.5394479,0 5.5394479,0"
     style="opacity:1;fill:none;fill-rule:evenodd;stroke:url(#linearGradient4505);stroke-width:1;stroke-linecap:butt;stroke-linejoin:miter;stroke-miterlimit:4;stroke-dasharray:none;stroke-opacity:1" />
  <path
     style="opacity:1;fill:none;fill-rule:evenodd;stroke:url(#linearGradient4509);stroke-width:1;stroke-linecap:butt;stroke-linejoin:miter;stroke-miterlimit:4;stroke-dasharray:none;stroke-opacity:1"
     d="m 8.2361781,14.61482 c 2.6847449,2.013559 5.5394479,0 5.5394479,0"
     id="path4507"
     inkscape:connector-curvature="0"
     sodipodi:nodetypes="cc" />
</svg>
