<?xml version="1.0" encoding="UTF-8" standalone="no"?>
<svg
   xmlns:dc="http://purl.org/dc/elements/1.1/"
   xmlns:cc="http://creativecommons.org/ns#"
   xmlns:rdf="http://www.w3.org/1999/02/22-rdf-syntax-ns#"
   xmlns:svg="http://www.w3.org/2000/svg"
   xmlns="http://www.w3.org/2000/svg"
   xmlns:xlink="http://www.w3.org/1999/xlink"
   id="svg3211"
   height="22"
   width="22"
   version="1.0">
  <metadata
     id="metadata14">
    <rdf:RDF>
      <cc:Work
         rdf:about="">
        <dc:format>image/svg+xml</dc:format>
        <dc:type
           rdf:resource="http://purl.org/dc/dcmitype/StillImage" />
      </cc:Work>
    </rdf:RDF>
  </metadata>
  <defs
     id="defs3213">
    <linearGradient
       id="linearGradient2867-449-88-871-390-598-476-591-434-148-69-3-622-247">
      <stop
         offset="0"
         style="stop-color:#5ac9ff;stop-opacity:1"
         id="stop6450" />
      <stop
         offset="0.704952"
         style="stop-color:#408ade;stop-opacity:1"
         id="stop6452" />
      <stop
         offset="1"
         style="stop-color:#216bbd;stop-opacity:1"
         id="stop6454" />
    </linearGradient>
    <linearGradient
       y2="19.004065"
       x2="12.939759"
       y1="5"
       x1="12.939759"
       gradientTransform="translate(-1,-1)"
       gradientUnits="userSpaceOnUse"
       id="linearGradient2876"
       xlink:href="#linearGradient2867-449-88-871-390-598-476-591-434-148-69-3-622-247" />
    <linearGradient
       gradientUnits="userSpaceOnUse"
       y2="19"
       x2="6.2915959"
       y1="2.999588"
       x1="6.1627121"
       id="linearGradient3659"
       xlink:href="#linearGradient2867-449-88-871-390-598-476-591-434-148-69-3-622-247" />
  </defs>
  <path
     d="M 10.9375,3 C 10.407062,3.0272707 9.993028,3.4689075 10,4 l 0,1.21875 C 6.6446544,5.7256953 4,8.5078556 4,12 c 0,3.846695 3.153305,7 7,7 3.846695,0 7,-3.153305 7,-7 0.0032,-0.266173 -0.101179,-0.522368 -0.289405,-0.710595 C 17.522368,11.101179 17.266173,10.996838 17,11 l -2,0 C 14.733827,10.9968 14.477632,11.101179 14.289405,11.289405 14.101179,11.477632 13.996838,11.733827 14,12 14,13.673305 12.673305,15 11,15 9.326695,15 8,13.673305 8,12 8,10.719649 8.8823342,9.844913 10,9.40625 L 10,10 c 6.56e-4,0.356406 0.193153,0.684852 0.503788,0.859585 0.310635,0.174732 0.691287,0.168681 0.996212,-0.01583 l 5,-3 C 16.794183,7.6643058 16.973663,7.344592 16.973663,7 16.973663,6.655408 16.794183,6.3356942 16.5,6.15625 l -5,-3 C 11.332511,3.0487142 11.136456,2.9942544 10.9375,3 z"
     id="path3199"
     style="opacity:0.10000000000000001;fill:url(#linearGradient3659);fill-opacity:1;fill-rule:nonzero;stroke:none;stroke-width:4;marker:none;visibility:visible;display:inline;overflow:visible;enable-background:accumulate" />
  <path
     d="m 11,5 0,2 c -3.312,0 -6,2.688 -6,6 0,3.312 2.688,6 6,6 3.312,0 6,-2.688 6,-6 l -2,0 c 0,2.208 -1.792,4 -4,4 C 8.7920001,17 7,15.208 7,13 7,10.792 8.7919999,9 11,9 l 0,2 5,-3 -5,-3 z"
     id="path3224"
     style="opacity:0.5;fill:#000000;fill-opacity:1;fill-rule:evenodd;stroke:none" />
  <path
     d="m 11,4 0,2 c -3.312,0 -6,2.6879996 -6,6 0,3.312 2.688,6 6,6 3.312,0 6,-2.688 6,-6 l -2,0 c 0,2.208 -1.792,4 -4,4 C 8.7920001,16 7,14.208 7,12 7,9.792 8.7919999,8 11,8 l 0,2 5,-3 -5,-3 z"
     id="path4199"
     style="opacity:1;fill:url(#linearGradient2876);fill-opacity:1;fill-rule:evenodd;stroke:none" />
</svg>
