<?xml version="1.0" encoding="UTF-8" standalone="no"?>
<svg
   xmlns:dc="http://purl.org/dc/elements/1.1/"
   xmlns:cc="http://creativecommons.org/ns#"
   xmlns:rdf="http://www.w3.org/1999/02/22-rdf-syntax-ns#"
   xmlns:svg="http://www.w3.org/2000/svg"
   xmlns="http://www.w3.org/2000/svg"
   xmlns:xlink="http://www.w3.org/1999/xlink"
   version="1.1"
   width="22"
   height="22"
   id="svg7384">
  <defs
     id="defs21">
    <linearGradient
       id="linearGradient3678">
      <stop
         style="stop-color:#ffffff;stop-opacity:1;"
         offset="0"
         id="stop3680" />
      <stop
         style="stop-color:#e6e6e6;stop-opacity:1;"
         offset="1"
         id="stop3682" />
    </linearGradient>
    <linearGradient
       gradientUnits="userSpaceOnUse"
       y2="22"
       x2="15"
       y1="0.5593192"
       x1="15"
       id="linearGradient3834"
       xlink:href="#linearGradient3678" />
  </defs>
  <metadata
     id="metadata90">
    <rdf:RDF>
      <cc:Work
         rdf:about="">
        <dc:format>image/svg+xml</dc:format>
        <dc:type
           rdf:resource="http://purl.org/dc/dcmitype/StillImage" />
        <dc:title>Gnome Symbolic Icon Theme</dc:title>
      </cc:Work>
    </rdf:RDF>
  </metadata>
  <title
     id="title9167">Gnome Symbolic Icon Theme</title>
  <g
     transform="translate(0,1.000006)"
     id="g3853"
     style="opacity:0.5;fill:#000000;fill-opacity:1">
    <path
       id="path3855"
       style="text-indent:0;text-transform:none;block-progression:tb;color:#000000;fill:#000000;fill-opacity:1"
       d="M 10.981825,5.9999997 C 8.2405524,5.9999997 6,8.240552 6,10.981823 6,13.723095 8.2405524,16 10.981825,16 13.723097,16 16,13.723095 16,10.981823 16,8.240552 13.723096,5.9999997 10.981825,5.9999997 z m 0,2.5453764 c 1.376947,0 2.472673,1.0593871 2.472673,2.4363209 0,1.376935 -1.095752,2.472674 -2.472673,2.472674 -1.3769225,0 -2.4363222,-1.095751 -2.4363222,-2.472674 0,-1.3769212 1.059387,-2.4363209 2.4363222,-2.4363209 z M 5.5565622,7.1069996 3.7829935,5.3334309 C 3.4907977,5.0412351 3.4329597,4.6286063 3.6533119,4.4082541 L 4.2720303,3.7895357 C 4.4923825,3.5691836 4.9050113,3.6270216 5.197207,3.9192173 L 6.9707757,5.692786 C 7.2629716,5.9849818 7.3208096,6.3976107 7.1004574,6.6179628 L 6.481739,7.2366813 C 6.2613868,7.4570334 5.848758,7.3991954 5.5565622,7.1069996 z M 16.679586,18.202399 14.921704,16.444516 c -0.296541,-0.296541 -0.357877,-0.712668 -0.137525,-0.93302 l 0.618718,-0.618719 c 0.220352,-0.220352 0.63648,-0.159015 0.93302,0.137526 l 1.757883,1.757882 c 0.296541,0.296541 0.357876,0.712667 0.137524,0.93302 l -0.618718,0.618718 c -0.220352,0.220352 -0.636479,0.159016 -0.93302,-0.137524 z M 10,4.2541025 10,1.7458975 C 10,1.3326703 10.250875,1 10.5625,1 l 0.875,0 C 11.749125,1 12,1.3326703 12,1.7458975 l 0,2.508205 C 12,4.6673297 11.749125,5 11.4375,5 l -0.875,0 C 10.250875,5 10,4.6673297 10,4.2541025 z m 0,15.9889025 0,-2.486021 c 0,-0.419372 0.250875,-0.75699 0.5625,-0.75699 l 0.875,0 c 0.311625,0 0.5625,0.337618 0.5625,0.75699 l 0,2.486021 c 0,0.419372 -0.250875,0.756989 -0.5625,0.756989 l -0.875,0 C 10.250875,20.999994 10,20.662377 10,20.243005 z M 15.007739,5.4461956 16.781308,3.6726268 c 0.292196,-0.2921957 0.704825,-0.3500339 0.925177,-0.1296817 l 0.618718,0.6187184 c 0.220352,0.2203522 0.162514,0.6329811 -0.129682,0.9251769 L 16.421953,6.8604092 C 16.129757,7.1526049 15.717128,7.2104429 15.496776,6.9900908 L 14.878058,6.3713723 C 14.657705,6.1510202 14.715543,5.7383914 15.007739,5.4461956 z M 3.6552399,17.041524 5.4131221,15.283642 c 0.2965409,-0.296541 0.7126678,-0.357877 0.93302,-0.137525 l 0.6187184,0.618718 c 0.2203522,0.220352 0.1590161,0.636479 -0.1375248,0.93302 l -1.7578823,1.757882 c -0.2965409,0.296541 -0.712668,0.357878 -0.9330202,0.137525 L 3.5177148,17.974544 C 3.2973627,17.754192 3.3586989,17.338065 3.6552399,17.041524 z M 17.745898,10 20.254102,10 C 20.66733,10 21,10.250875 21,10.5625 l 0,0.875 C 21,11.749125 20.66733,12 20.254102,12 l -2.508204,0 C 17.33267,12 17,11.749125 17,11.4375 l 0,-0.875 C 17,10.250875 17.33267,10 17.745898,10 z m -15.9889037,0 2.4860209,0 c 0.4193722,0 0.7569896,0.250875 0.7569896,0.5625 l 0,0.875 C 5.0000048,11.749125 4.6623874,12 4.2430152,12 L 1.7569943,12 C 1.3376221,12 1.0000048,11.749125 1.0000048,11.4375 l 0,-0.875 C 1.0000048,10.250875 1.3376221,10 1.7569943,10 z" />
  </g>
  <g
     style="fill-opacity:1;fill:url(#linearGradient3834)"
     id="g3049">
    <path
       d="M 10.981825,5.9999997 C 8.2405524,5.9999997 6,8.240552 6,10.981823 6,13.723095 8.2405524,16 10.981825,16 13.723097,16 16,13.723095 16,10.981823 16,8.240552 13.723096,5.9999997 10.981825,5.9999997 z m 0,2.5453764 c 1.376947,0 2.472673,1.0593871 2.472673,2.4363209 0,1.376935 -1.095752,2.472674 -2.472673,2.472674 -1.3769225,0 -2.4363222,-1.095751 -2.4363222,-2.472674 0,-1.3769212 1.059387,-2.4363209 2.4363222,-2.4363209 z M 5.5565622,7.1069996 3.7829935,5.3334309 C 3.4907977,5.0412351 3.4329597,4.6286063 3.6533119,4.4082541 L 4.2720303,3.7895357 C 4.4923825,3.5691836 4.9050113,3.6270216 5.197207,3.9192173 L 6.9707757,5.692786 C 7.2629716,5.9849818 7.3208096,6.3976107 7.1004574,6.6179628 L 6.481739,7.2366813 C 6.2613868,7.4570334 5.848758,7.3991954 5.5565622,7.1069996 z M 16.679586,18.202399 14.921704,16.444516 c -0.296541,-0.296541 -0.357877,-0.712668 -0.137525,-0.93302 l 0.618718,-0.618719 c 0.220352,-0.220352 0.63648,-0.159015 0.93302,0.137526 l 1.757883,1.757882 c 0.296541,0.296541 0.357876,0.712667 0.137524,0.93302 l -0.618718,0.618718 c -0.220352,0.220352 -0.636479,0.159016 -0.93302,-0.137524 z M 10,4.2541025 10,1.7458975 C 10,1.3326703 10.250875,1 10.5625,1 l 0.875,0 C 11.749125,1 12,1.3326703 12,1.7458975 l 0,2.508205 C 12,4.6673297 11.749125,5 11.4375,5 l -0.875,0 C 10.250875,5 10,4.6673297 10,4.2541025 z m 0,15.9889025 0,-2.486021 c 0,-0.419372 0.250875,-0.75699 0.5625,-0.75699 l 0.875,0 c 0.311625,0 0.5625,0.337618 0.5625,0.75699 l 0,2.486021 c 0,0.419372 -0.250875,0.756989 -0.5625,0.756989 l -0.875,0 C 10.250875,20.999994 10,20.662377 10,20.243005 z M 15.007739,5.4461956 16.781308,3.6726268 c 0.292196,-0.2921957 0.704825,-0.3500339 0.925177,-0.1296817 l 0.618718,0.6187184 c 0.220352,0.2203522 0.162514,0.6329811 -0.129682,0.9251769 L 16.421953,6.8604092 C 16.129757,7.1526049 15.717128,7.2104429 15.496776,6.9900908 L 14.878058,6.3713723 C 14.657705,6.1510202 14.715543,5.7383914 15.007739,5.4461956 z M 3.6552399,17.041524 5.4131221,15.283642 c 0.2965409,-0.296541 0.7126678,-0.357877 0.93302,-0.137525 l 0.6187184,0.618718 c 0.2203522,0.220352 0.1590161,0.636479 -0.1375248,0.93302 l -1.7578823,1.757882 c -0.2965409,0.296541 -0.712668,0.357878 -0.9330202,0.137525 L 3.5177148,17.974544 C 3.2973627,17.754192 3.3586989,17.338065 3.6552399,17.041524 z M 17.745898,10 20.254102,10 C 20.66733,10 21,10.250875 21,10.5625 l 0,0.875 C 21,11.749125 20.66733,12 20.254102,12 l -2.508204,0 C 17.33267,12 17,11.749125 17,11.4375 l 0,-0.875 C 17,10.250875 17.33267,10 17.745898,10 z m -15.9889037,0 2.4860209,0 c 0.4193722,0 0.7569896,0.250875 0.7569896,0.5625 l 0,0.875 C 5.0000048,11.749125 4.6623874,12 4.2430152,12 L 1.7569943,12 C 1.3376221,12 1.0000048,11.749125 1.0000048,11.4375 l 0,-0.875 C 1.0000048,10.250875 1.3376221,10 1.7569943,10 z"
       style="text-indent:0;text-transform:none;block-progression:tb;color:#000000;fill:url(#linearGradient3834);fill-opacity:1.0"
       id="path32729" />
  </g>
</svg>
