<?xml version="1.0" encoding="UTF-8" standalone="no"?>
<svg
   xmlns:dc="http://purl.org/dc/elements/1.1/"
   xmlns:cc="http://creativecommons.org/ns#"
   xmlns:rdf="http://www.w3.org/1999/02/22-rdf-syntax-ns#"
   xmlns:svg="http://www.w3.org/2000/svg"
   xmlns="http://www.w3.org/2000/svg"
   xmlns:xlink="http://www.w3.org/1999/xlink"
   id="svg3223"
   height="128"
   width="128"
   version="1.0">
  <metadata
     id="metadata32658">
    <rdf:RDF>
      <cc:Work
         rdf:about="">
        <dc:format>image/svg+xml</dc:format>
        <dc:type
           rdf:resource="http://purl.org/dc/dcmitype/StillImage" />
        <dc:title />
      </cc:Work>
    </rdf:RDF>
  </metadata>
  <defs
     id="defs3225">
    <linearGradient
       id="linearGradient10691">
      <stop
         offset="0"
         style="stop-color:#000000;stop-opacity:1"
         id="stop10693" />
      <stop
         offset="1"
         style="stop-color:#000000;stop-opacity:0"
         id="stop10695" />
    </linearGradient>
    <radialGradient
       gradientTransform="matrix(4.0247163,0,0,1.281563,5.0474834,-41.177468)"
       gradientUnits="userSpaceOnUse"
       xlink:href="#linearGradient10691"
       id="radialGradient2916"
       fy="73.615715"
       fx="6.702713"
       r="7.228416"
       cy="73.615715"
       cx="6.702713" />
    <linearGradient
       gradientUnits="userSpaceOnUse"
       id="XMLID_4_"
       y2="122.8994"
       x2="63.9995"
       y1="3.1001"
       x1="63.9995">
      <stop
         offset="0"
         style="stop-color:#f2f2f2;stop-opacity:1"
         id="stop11" />
      <stop
         offset="1"
         style="stop-color:#d8d8d8;stop-opacity:1"
         id="stop13" />
    </linearGradient>
    <linearGradient
       gradientTransform="matrix(0.4958917,0,0,0.4955768,0.2869216,-0.304461)"
       gradientUnits="userSpaceOnUse"
       xlink:href="#XMLID_4_"
       id="linearGradient2912"
       y2="117.22547"
       x2="64"
       y1="6.8743429"
       x1="64" />
    <linearGradient
       id="linearGradient5128">
      <stop
         offset="0"
         style="stop-color:#ffffff;stop-opacity:1"
         id="stop5130" />
      <stop
         offset="1"
         style="stop-color:#959595;stop-opacity:1"
         id="stop5132" />
    </linearGradient>
    <linearGradient
       gradientTransform="matrix(0.4219474,0,0,0.42097886,5.0275195,4.0889218)"
       gradientUnits="userSpaceOnUse"
       xlink:href="#linearGradient5128"
       id="linearGradient2909"
       y2="20.895"
       x2="84.63858"
       y1="105.105"
       x1="86.132919" />
    <linearGradient
       spreadMethod="pad"
       gradientTransform="matrix(0.4219474,0,0,0.42097886,5.0275195,4.0889218)"
       gradientUnits="userSpaceOnUse"
       xlink:href="#XMLID_5_"
       id="linearGradient2907"
       y2="104.0591"
       x2="63.9995"
       y1="21.941401"
       x1="63.9995" />
    <linearGradient
       gradientTransform="matrix(0.47035913,0,0,0.47007419,1.9291754,0.50012872)"
       gradientUnits="userSpaceOnUse"
       xlink:href="#XMLID_6_"
       id="linearGradient2904"
       y2="102.04791"
       x2="49.373875"
       y1="22.274775"
       x1="49.273136" />
    <linearGradient
       gradientUnits="userSpaceOnUse"
       id="linearGradient2193"
       y2="104.0591"
       x2="63.9995"
       y1="21.941401"
       x1="63.9995">
      <stop
         offset="0"
         style="stop-color:#dddddd;stop-opacity:1"
         id="stop2195" />
      <stop
         offset="1"
         style="stop-color:#e8e9ef;stop-opacity:1"
         id="stop2197" />
    </linearGradient>
    <linearGradient
       spreadMethod="pad"
       gradientUnits="userSpaceOnUse"
       xlink:href="#linearGradient2193"
       id="linearGradient2199"
       y2="104.0591"
       x2="63.9995"
       y1="21.941401"
       x1="63.9995">
      <stop
         offset="0"
         style="stop-color:#fcfcfd;stop-opacity:1"
         id="stop2201" />
      <stop
         offset="1"
         style="stop-color:#cccccc;stop-opacity:1"
         id="stop2203" />
    </linearGradient>
    <linearGradient
       spreadMethod="pad"
       gradientUnits="userSpaceOnUse"
       xlink:href="#linearGradient2199"
       id="XMLID_5_"
       y2="104.0591"
       x2="63.9995"
       y1="21.941401"
       x1="63.9995">
      <stop
         offset="0"
         style="stop-color:#dadada;stop-opacity:1"
         id="stop24" />
      <stop
         offset="1"
         style="stop-color:#cccccc;stop-opacity:1"
         id="stop26" />
    </linearGradient>
    <linearGradient
       spreadMethod="pad"
       gradientUnits="userSpaceOnUse"
       xlink:href="#XMLID_5_"
       id="XMLID_6_"
       y2="103.06695"
       x2="64"
       y1="21.523018"
       x1="64">
      <stop
         offset="0"
         style="stop-color:#d9d9d9;stop-opacity:1"
         id="stop31" />
      <stop
         offset="1"
         style="stop-color:#cccccc;stop-opacity:1"
         id="stop33" />
    </linearGradient>
    <linearGradient
       spreadMethod="pad"
       gradientTransform="matrix(0.47035913,0,0,0.47007419,1.9291754,0.50012872)"
       gradientUnits="userSpaceOnUse"
       xlink:href="#XMLID_6_"
       id="linearGradient2902"
       y2="103.06695"
       x2="64"
       y1="21.523018"
       x1="64" />
  </defs>
  <g
     transform="translate(0,65.99957)"
     id="layer1">
    <g
       id="g4093">
      <g
         transform="matrix(2.0228704,0,0,2.0246625,-0.79840495,-63.868071)"
         id="g4094">
        <path
           style="opacity:0.3;fill:url(#radialGradient2916);fill-opacity:1;fill-rule:nonzero;stroke:none;stroke-width:0.80000001;marker:none;visibility:visible;display:inline;overflow:visible"
           id="path10689"
           d="m 61.116324,53.165701 c -0.0016,5.115816 -13.02623,9.262729 -29.092323,9.262729 -16.066092,0 -29.0906912,-4.146913 -29.0923227,-9.262729 -0.00163,-5.116551 13.0239227,-9.264611 29.0923227,-9.264611 16.0684,0 29.093955,4.14806 29.092323,9.264611 l 0,0 z" />
        <path
           style="opacity:0.1;fill:#030303;stroke-width:2.66666675;stroke-miterlimit:4;stroke-dasharray:none"
           id="path6"
           d="m 58.526752,23.752086 -2.243341,0 c -0.60547,0 -1.305549,-0.502698 -1.498042,-1.075151 -0.01071,-0.02976 -1.392248,-3.366354 -1.392248,-3.366354 -0.28432,-0.570592 -0.146824,-1.418342 0.281061,-1.845705 l 1.586141,-1.582498 c 0.36449,-0.36412 0.565842,-0.849611 0.565842,-1.36719 0,-0.517579 -0.201352,-1.003071 -0.565842,-1.366724 L 49.015043,6.9175219 C 48.650552,6.5538692 48.163942,6.353441 47.645173,6.3529756 c -0.518772,0 -1.005379,0.2004288 -1.369869,0.5645463 L 44.689166,8.5000205 C 44.261287,8.9264536 43.411117,9.0641025 42.869976,8.7943852 42.839686,8.7804332 39.495411,7.4025494 39.495411,7.4025494 38.891344,7.1993306 38.38749,6.5008552 38.38749,5.896781 l 0,-2.238655 C 38.38609,2.591811 37.516816,1.724531 36.448513,1.724531 l -8.831667,0 c -1.068768,0 -1.938047,0.86728 -1.938047,1.933595 l 0,2.238655 c 0,0.6040742 -0.503853,1.3025496 -1.077621,1.494607 -0.02984,0.01116 -3.374103,1.3890461 -3.374103,1.3890461 -0.571903,0.2836684 -1.422068,0.1460195 -1.849949,-0.2808783 L 17.790985,6.9175219 C 17.42603,6.5534044 16.939421,6.3529756 16.420651,6.3529756 c -0.518771,0 -1.005377,0.2008936 -1.369868,0.5645463 L 8.8050386,13.148464 c -0.7555485,0.753814 -0.7555485,1.980099 0,2.733914 l 1.5861394,1.582498 c 0.427415,0.426898 0.56538,1.275113 0.295041,1.815013 -0.01399,0.03023 -1.3955035,3.36682 -1.3955035,3.36682 -0.2036856,0.602679 -0.9033027,1.104912 -1.5087664,1.104912 l -1.662114,0 c -1.0683016,4.65e-4 -2.5192715,0.867746 -2.5192715,1.934061 l 0,8.810932 c 0,1.066314 0.869277,1.933595 1.9380441,1.933595 l 2.2438072,0 c 0.6054645,0 1.3055468,0.502234 1.4975799,1.07515 0.011187,0.02976 1.3927062,3.366354 1.3927062,3.366354 0.284324,0.570594 0.146357,1.418344 -0.281056,1.845704 l -1.5861409,1.582499 c -0.7555476,0.753816 -0.7555476,1.9801 0,2.733915 l 6.2457449,6.230939 c 0.364491,0.363658 0.851097,0.564557 1.36987,0.564557 0.519234,0 1.005841,-0.200899 1.370333,-0.564557 l 1.58614,-1.582491 c 0.427881,-0.426429 1.278048,-0.56409 1.819188,-0.294367 0.03029,0.01394 3.374567,1.392303 3.374567,1.392303 0.603599,0.203216 1.107452,0.901231 1.107452,1.505305 l 0,2.238192 c 0,1.066314 0.869279,1.933594 1.938047,1.933594 l 8.8312,0 c 1.068304,0 1.93758,-0.86728 1.93758,-1.933594 l 0,-2.238192 c 0,-0.604074 0.503854,-1.302555 1.078089,-1.49461 0.02983,-0.01069 3.374102,-1.389048 3.374102,-1.389048 0.571902,-0.283673 1.422537,-0.146477 1.849951,0.280417 l 1.586138,1.582491 c 0.36449,0.363658 0.851098,0.564557 1.369867,0.564557 0.51877,0 1.00538,-0.200899 1.369869,-0.564557 l 6.245277,-6.230939 c 0.364496,-0.363655 0.565847,-0.849146 0.565847,-1.366723 0,-0.51758 -0.201351,-1.003072 -0.565847,-1.366726 l -1.586134,-1.5825 c -0.427881,-0.426895 -0.565383,-1.27511 -0.295042,-1.815012 0.01398,-0.03022 1.395499,-3.366819 1.395499,-3.366819 0.203688,-0.602214 0.903303,-1.104912 1.508771,-1.104912 l 2.243341,0 c 1.068767,0 1.938044,-0.86728 1.938044,-1.933596 l 0,-8.811861 c 0.0015,-1.066315 -0.86788,-1.933596 -1.936646,-1.933596 z M 32.032679,38.954454 c -4.982505,0 -8.849518,-3.958361 -8.849518,-8.863073 0,-4.770771 3.867013,-8.863541 8.849518,-8.863541 4.882424,0 8.882565,3.925343 8.882565,8.863541 0,4.737748 -3.866081,8.863073 -8.882565,8.863073 z" />
        <path
           style="fill:url(#linearGradient2912);fill-opacity:1;stroke:#888888;stroke-width:0.49114046;stroke-linecap:round;stroke-linejoin:round;stroke-miterlimit:4;stroke-opacity:1;stroke-dasharray:none"
           id="path8"
           d="m 58.518772,23.74139 -2.243344,0 c -0.605465,0 -1.305548,-0.503628 -1.498044,-1.07701 -0.01072,-0.02977 -1.39224,-3.371471 -1.39224,-3.371471 -0.284322,-0.571521 -0.146821,-1.420667 0.28106,-1.848495 l 1.586134,-1.585288 c 0.364491,-0.364583 0.565853,-0.851005 0.565853,-1.369515 0,-0.518043 -0.201362,-1.004465 -0.565853,-1.369049 L 49.007058,6.8793901 C 48.642567,6.5148062 48.15596,6.3139133 47.63719,6.3139133 c -0.518771,0 -1.005378,0.2008929 -1.36987,0.5654768 L 44.681183,8.4642137 C 44.253302,8.891576 43.403135,9.0292253 42.861993,8.7590425 42.831703,8.7450905 39.487428,7.364882 39.487428,7.364882 38.883361,7.1611985 38.379507,6.4617927 38.379507,5.856788 l 0,-2.242374 C 38.378107,2.546238 37.508831,1.677561 36.440529,1.677561 l -8.831666,0 c -1.068767,0 -1.938046,0.868677 -1.938046,1.936853 l 0,2.242374 c 0,0.6050047 -0.503855,1.3048753 -1.077621,1.4969321 -0.02982,0.01116 -3.374104,1.3913712 -3.374104,1.3913712 -0.571901,0.284134 -1.422068,0.1464847 -1.849949,-0.2808776 L 17.783003,6.8793901 C 17.418047,6.5148062 16.931438,6.3139133 16.41267,6.3139133 c -0.518772,0 -1.005379,0.2013577 -1.36987,0.5654768 L 8.7970557,13.120562 c -0.7555484,0.755209 -0.7555484,1.983819 0,2.738564 l 1.5861403,1.585288 c 0.427413,0.427364 0.565379,1.276974 0.29504,1.818269 -0.01398,0.03023 -1.3955034,3.372399 -1.3955034,3.372399 -0.2036852,0.603609 -0.9033027,1.106772 -1.5087664,1.106772 l -1.6621138,0 C 5.043551,23.74139 3.592581,24.610067 3.592581,25.678241 l 0,8.825812 c 0,1.067711 0.869277,1.936388 1.938045,1.936388 l 2.2438065,0 c 0.6054641,0 1.3055464,0.503161 1.4975795,1.077011 0.011188,0.02975 1.392706,3.371469 1.392706,3.371469 0.284324,0.571521 0.14636,1.421132 -0.281057,1.848961 L 8.7975223,44.32317 c -0.7555482,0.754744 -0.7555482,1.98382 0,2.738563 l 6.2457447,6.241182 c 0.364491,0.364581 0.851097,0.565469 1.369869,0.565469 0.519235,0 1.005841,-0.200888 1.370334,-0.565469 l 1.586139,-1.584831 c 0.427881,-0.427365 1.278047,-0.565481 1.819188,-0.294826 0.03029,0.01349 3.374565,1.394161 3.374565,1.394161 0.6036,0.203683 1.107455,0.902623 1.107455,1.508094 l 0,2.241906 c 0,1.068174 0.869279,1.936859 1.938046,1.936859 l 8.831202,0 c 1.068299,0 1.937578,-0.868685 1.937578,-1.936859 l 0,-2.241906 c 0,-0.605471 0.503855,-1.304878 1.078087,-1.497405 0.02983,-0.01069 3.374104,-1.391367 3.374104,-1.391367 0.571904,-0.284138 1.422536,-0.146022 1.849949,0.280883 l 1.586141,1.584819 c 0.364489,0.364592 0.851098,0.565475 1.369867,0.565475 0.518771,0 1.005377,-0.200883 1.369869,-0.565475 l 6.245282,-6.241174 c 0.364494,-0.364121 0.565845,-0.850541 0.565845,-1.369051 0,-0.518508 -0.201351,-1.00493 -0.565845,-1.369048 l -1.58614,-1.585288 c -0.427877,-0.427363 -0.565384,-1.27744 -0.295042,-1.817805 0.01398,-0.03069 1.395504,-3.3724 1.395504,-3.3724 0.203687,-0.604075 0.903307,-1.107236 1.508775,-1.107236 l 2.243337,0 c 1.06876,0 1.938041,-0.868677 1.938041,-1.936388 l 0,-8.825812 C 60.456916,24.610067 59.58754,23.74139 58.518772,23.74139 Z M 32.024695,39.215893 c -5.396101,0 -9.093713,-4.354811 -9.093713,-9.171481 0,-5.087285 4.121433,-9.080173 9.093713,-9.073262 5.04521,0.007 9.300156,4.195776 9.14275,9.320345 -0.15108,4.918636 -4.009389,8.924398 -9.14275,8.924398 z" />
        <path
           style="fill:url(#linearGradient2907);stroke:url(#linearGradient2909);stroke-width:0.49114046;stroke-miterlimit:4;stroke-dasharray:none"
           id="path28"
           d="m 32.03216,13.095765 c -9.679897,0 -17.555127,7.85715 -17.555127,17.514823 0,9.657674 7.87523,17.514825 17.555127,17.514825 9.679897,0 17.555123,-7.857151 17.555123,-17.514825 0,-9.657673 -7.875226,-17.514823 -17.555123,-17.514823 l 0,0 0,0 z m 0,30.396773 c -7.131337,0 -12.911595,-5.766564 -12.911595,-12.88195 0,-7.115383 5.780258,-12.881952 12.911595,-12.881952 7.131333,0 12.911589,5.766987 12.911589,12.881952 0,7.114962 -5.780256,12.88195 -12.911589,12.88195 l 0,0 0,0 z" />
        <path
           style="fill:url(#linearGradient2902);stroke:url(#linearGradient2904);stroke-width:0.49114043;stroke-miterlimit:4;stroke-opacity:1;stroke-dasharray:none"
           id="path35"
           d="m 32.032161,15.542505 c -8.053015,0 -14.581136,6.524159 -14.581136,14.572298 0,8.048138 6.528121,14.572301 14.581136,14.572301 8.053015,0 14.581131,-6.524163 14.581131,-14.572301 0,-8.048139 -6.528116,-14.572298 -14.581131,-14.572298 l 0,0 0,0 z m 0,24.208818 c -5.325872,0 -9.642365,-4.314339 -9.642365,-9.63652 0,-5.32265 4.316493,-9.636521 9.642365,-9.636521 5.325405,0 9.642358,4.313871 9.642358,9.636521 0,5.322181 -4.316953,9.63652 -9.642358,9.63652 z" />
      </g>
    </g>
  </g>
</svg>
