<?xml version="1.0" encoding="UTF-8" standalone="no"?>
<svg
   id="svg3767"
   height="128"
   width="128"
   version="1.1"
   sodipodi:docname="help-hint.svg"
   inkscape:version="1.1.1 (3bf5ae0d25, 2021-09-20)"
   xmlns:inkscape="http://www.inkscape.org/namespaces/inkscape"
   xmlns:sodipodi="http://sodipodi.sourceforge.net/DTD/sodipodi-0.dtd"
   xmlns:xlink="http://www.w3.org/1999/xlink"
   xmlns="http://www.w3.org/2000/svg"
   xmlns:svg="http://www.w3.org/2000/svg"
   xmlns:rdf="http://www.w3.org/1999/02/22-rdf-syntax-ns#"
   xmlns:cc="http://creativecommons.org/ns#"
   xmlns:dc="http://purl.org/dc/elements/1.1/">
  <sodipodi:namedview
     id="namedview27"
     pagecolor="#ffffff"
     bordercolor="#666666"
     borderopacity="1.0"
     inkscape:pageshadow="2"
     inkscape:pageopacity="0.0"
     inkscape:pagecheckerboard="0"
     showgrid="false"
     inkscape:zoom="5.328125"
     inkscape:cx="62.498534"
     inkscape:cy="64"
     inkscape:window-width="1396"
     inkscape:window-height="896"
     inkscape:window-x="489"
     inkscape:window-y="257"
     inkscape:window-maximized="0"
     inkscape:current-layer="svg3767" />
  <defs
     id="defs3769">
    <linearGradient
       id="linearGradient4011">
      <stop
         offset="0"
         style="stop-color:#ffffff;stop-opacity:1"
         id="stop4013" />
      <stop
         offset="0.507761"
         style="stop-color:#ffffff;stop-opacity:0.23529412"
         id="stop4015" />
      <stop
         offset="0.83456558"
         style="stop-color:#ffffff;stop-opacity:0.15686275"
         id="stop4017" />
      <stop
         offset="1"
         style="stop-color:#ffffff;stop-opacity:0.39215687"
         id="stop4019" />
    </linearGradient>
    <radialGradient
       r="62.769119"
       fy="186.17059"
       fx="99.157013"
       cy="186.17059"
       cx="99.157013"
       gradientTransform="matrix(0.6869404,0,0,0.21461693,-4.02174,68.573331)"
       gradientUnits="userSpaceOnUse"
       id="radialGradient3163"
       xlink:href="#linearGradient3820-7-2-8-6" />
    <linearGradient
       id="linearGradient3820-7-2-8-6">
      <stop
         offset="0"
         style="stop-color:#3d3d3d;stop-opacity:1"
         id="stop3822-2-6-5-0" />
      <stop
         offset="0.5"
         style="stop-color:#686868;stop-opacity:0.49803922"
         id="stop3864-8-7-4-1" />
      <stop
         offset="1"
         style="stop-color:#686868;stop-opacity:0"
         id="stop3824-1-2-6-7" />
    </linearGradient>
    <linearGradient
       x1="71.204407"
       y1="6.2375584"
       x2="71.204407"
       y2="44.340794"
       id="linearGradient12398-3"
       xlink:href="#linearGradient4011"
       gradientUnits="userSpaceOnUse"
       gradientTransform="matrix(2.756758,0,0,2.7567581,-133.25196,-3.4037532)" />
    <linearGradient
       x1="2035.1652"
       y1="3208.0737"
       x2="2035.1652"
       y2="3241.9966"
       id="linearGradient11527-6-5"
       xlink:href="#linearGradient947-2"
       gradientUnits="userSpaceOnUse"
       gradientTransform="matrix(3.9856242,0,0,2.9796372,-8061.4657,-9541.5191)" />
    <linearGradient
       id="linearGradient947-2">
      <stop
         offset="0"
         style="stop-color:#64baff;stop-opacity:1"
         id="stop943-7" />
      <stop
         offset="1"
         style="stop-color:#3689e6;stop-opacity:1"
         id="stop945-0" />
    </linearGradient>
    <linearGradient
       xlink:href="#linearGradient3707-319-631-407-324-3-8-7"
       id="linearGradient4038-3"
       x1="63.945602"
       y1="51.63781"
       x2="63.945602"
       y2="-53.386116"
       gradientUnits="userSpaceOnUse"
       gradientTransform="translate(-0.0054711,67.00011)" />
    <linearGradient
       id="linearGradient3707-319-631-407-324-3-8-7">
      <stop
         offset="0"
         style="stop-color:#185f9a;stop-opacity:1;"
         id="stop3760-7-3-4" />
      <stop
         offset="1"
         style="stop-color:#599ec9;stop-opacity:1;"
         id="stop3762-8-4-5" />
    </linearGradient>
    <linearGradient
       xlink:href="#linearGradient4062-1"
       id="linearGradient4068-8"
       x1="57.092731"
       y1="26.437521"
       x2="57.092731"
       y2="41.210434"
       gradientUnits="userSpaceOnUse"
       gradientTransform="matrix(0.91872363,0,0,0.90037893,13.466382,63.09182)" />
    <linearGradient
       id="linearGradient4062-1">
      <stop
         style="stop-color:#000000;stop-opacity:1;"
         offset="0"
         id="stop4064-2" />
      <stop
         style="stop-color:#000000;stop-opacity:0;"
         offset="1"
         id="stop4066-9" />
    </linearGradient>
    <linearGradient
       xlink:href="#linearGradient4062-1"
       id="linearGradient3930"
       gradientUnits="userSpaceOnUse"
       gradientTransform="translate(8.4668009,123.78723)"
       x1="51.703022"
       y1="-96.178337"
       x2="51.703022"
       y2="-46.06004" />
  </defs>
  <metadata
     id="metadata3772">
    <rdf:RDF>
      <cc:Work
         rdf:about="">
        <dc:format>image/svg+xml</dc:format>
        <dc:type
           rdf:resource="http://purl.org/dc/dcmitype/StillImage" />
      </cc:Work>
    </rdf:RDF>
  </metadata>
  <path
     d="m 107.21186,108.52868 a 43.118644,13.471312 0 1 1 -86.237286,0 43.118644,13.471312 0 1 1 86.237286,0 z"
     id="path3818-0-5-0"
     style="fill:url(#radialGradient3163);fill-opacity:1;stroke:none" />
  <path
     style="color:#000000;display:inline;overflow:visible;visibility:visible;opacity:0.98999999;fill:url(#linearGradient11527-6-5);fill-opacity:1.0;fill-rule:nonzero;stroke:none;stroke-width:0.99999982;marker:none;enable-background:accumulate"
     id="path2555-7-8-5-0-9"
     d="M 64.500014,14.499989 C 35.808182,14.499989 12.5,37.808174 12.5,66.499995 12.5,95.191818 35.808182,118.5 64.500014,118.5 93.191803,118.5 116.50004,95.191818 116.5,66.499996 116.5,37.808175 93.191803,14.499989 64.500014,14.499989 Z" />
  <path
     style="color:#000000;display:inline;overflow:visible;visibility:visible;opacity:0.5;fill:none;stroke:url(#linearGradient12398-3);stroke-width:0.99999988;stroke-linecap:round;stroke-linejoin:round;stroke-miterlimit:4;stroke-dasharray:none;stroke-dashoffset:0;stroke-opacity:1;marker:none;enable-background:accumulate"
     id="path8655-6-0-9-5-0"
     d="m 115.5,66.498172 c 0,28.167477 -22.835193,51.001848 -50.99938,51.001848 -28.166783,0 -51.000617,-22.834639 -51.000617,-51.001848 0,-28.166134 22.833834,-50.998201 51.000617,-50.998201 28.164187,0 50.99938,22.832067 50.99938,50.998201 z" />
  <path
     style="color:#000000;display:inline;overflow:visible;visibility:visible;opacity:0.5;vector-effect:none;fill:none;fill-opacity:1;stroke:#002e99;stroke-width:0.99999988;stroke-linecap:round;stroke-linejoin:round;stroke-miterlimit:4;stroke-dasharray:none;stroke-dashoffset:0;stroke-opacity:1;marker:none;enable-background:accumulate;clip-rule:nonzero;isolation:auto;mix-blend-mode:normal;color-interpolation:sRGB;color-interpolation-filters:linearRGB;solid-color:#000000;solid-opacity:1;fill-rule:nonzero;filter-blend-mode:normal;filter-gaussianBlur-deviation:0;color-rendering:auto;image-rendering:auto;shape-rendering:auto;text-rendering:auto"
     id="path2555-4"
     d="M 64.50001,14.499989 C 35.808202,14.499989 12.5,37.808184 12.5,66.499992 12.5,95.191799 35.808202,118.5 64.50001,118.5 93.191814,118.5 116.50003,95.191799 116.5,66.499992 116.5,37.808184 93.191814,14.499988 64.50001,14.499989 Z" />
  <path
     style="color:#000000;font-style:normal;font-variant:normal;font-weight:normal;font-stretch:normal;font-size:62.4583px;line-height:125%;font-family:Georgia;text-align:start;writing-mode:lr-tb;text-anchor:start;display:inline;overflow:visible;visibility:visible;fill:url(#linearGradient4038-3);fill-opacity:1;fill-rule:nonzero;stroke:none;marker:none;enable-background:accumulate"
     id="path3295"
     d="m 57.804528,32.767307 c 1.50317,14.683198 3.224976,29.265343 4.50456,44.006053 1.287015,0 2.796534,0 4.083549,0 1.061378,-14.15576 2.773321,-28.225979 4.00826,-42.364187 0.629511,-3.347729 -1.089318,-7.322528 -4.624438,-8.135877 -3.493235,-1.021312 -7.396044,1.507786 -7.860541,5.120406 -0.07703,0.453505 -0.111392,0.913775 -0.111392,1.373605 h -3e-6 z M 57.359023,92.46505 c -0.158945,4.37063 4.650157,7.79677 8.756206,6.41111 3.977,-1.01499 6.071748,-6.01361 4.033526,-9.56677 -1.824558,-3.67296 -7.174973,-4.88313 -10.252818,-2.07206 -1.555793,1.27819 -2.586998,3.18635 -2.536912,5.22772 z" />
  <path
     style="font-style:normal;font-variant:normal;font-weight:normal;font-stretch:normal;font-size:62.4583px;line-height:125%;font-family:Georgia;text-align:start;writing-mode:lr-tb;text-anchor:start;fill:#ffffff;fill-opacity:1;stroke:none"
     id="text2315"
     d="m 57.804528,33.837868 c 1.50317,14.683198 3.224976,29.265342 4.50456,44.006052 1.287015,0 2.796534,0 4.083549,0 1.061378,-14.15576 2.773321,-28.225978 4.00826,-42.364186 0.629511,-3.347729 -1.089318,-7.322529 -4.624438,-8.135877 -3.493235,-1.021316 -7.396044,1.507786 -7.860541,5.120405 -0.07703,0.453505 -0.111392,0.913776 -0.111392,1.373606 h -3e-6 z M 57.359023,93.53561 c -0.158945,4.37063 4.650157,7.79677 8.756206,6.411111 3.977,-1.014991 6.071748,-6.013611 4.033526,-9.566761 -1.824558,-3.67297 -7.174973,-4.88314 -10.252818,-2.07207 -1.555793,1.27819 -2.586998,3.18635 -2.536912,5.22773 z" />
  <path
     style="color:#000000;display:inline;overflow:visible;visibility:visible;opacity:0.1;fill:none;stroke:url(#linearGradient4068-8);stroke-width:1;stroke-linecap:butt;stroke-linejoin:miter;stroke-miterlimit:4;stroke-dasharray:none;stroke-dashoffset:0;stroke-opacity:1;marker:none;enable-background:accumulate"
     id="path3839"
     d="m 70.438921,93.50148 a 6.2924605,6.2826242 0 1 1 -12.584921,0 6.2924605,6.2826242 0 1 1 12.584921,0 z" />
  <path
     style="color:#000000;font-style:normal;font-variant:normal;font-weight:normal;font-stretch:normal;font-size:62.4583px;line-height:125%;font-family:Georgia;text-align:start;writing-mode:lr-tb;text-anchor:start;display:inline;overflow:visible;visibility:visible;opacity:0.1;fill:none;stroke:url(#linearGradient3930);stroke-width:1;stroke-linecap:butt;stroke-linejoin:miter;stroke-miterlimit:4;stroke-dasharray:none;stroke-dashoffset:0;stroke-opacity:1;marker:none;enable-background:accumulate"
     d="m 64.432029,27.68761 c -3.148195,-0.144204 -6.159127,2.569443 -6.056347,5.778993 0.716171,8.041201 1.692557,16.067269 2.505662,24.102937 0.689361,6.56583 1.350283,13.13492 1.925685,19.71182 1.03125,0 2.0625,0 3.09375,0 1.092031,-14.48576 2.857937,-28.91749 4.053784,-43.389253 0.0049,-2.746945 -1.81226,-5.596202 -4.629887,-6.092241 -0.293367,-0.06439 -0.592692,-0.09994 -0.892647,-0.112256 z"
     id="path3925" />
</svg>
