<?xml version="1.0" encoding="UTF-8" standalone="no"?>
<svg
   version="1.0"
   width="128"
   height="128"
   id="svg2527"
   sodipodi:docname="system-run.svg"
   inkscape:version="1.2.2 (b0a8486541, 2022-12-01)"
   xmlns:inkscape="http://www.inkscape.org/namespaces/inkscape"
   xmlns:sodipodi="http://sodipodi.sourceforge.net/DTD/sodipodi-0.dtd"
   xmlns:xlink="http://www.w3.org/1999/xlink"
   xmlns="http://www.w3.org/2000/svg"
   xmlns:svg="http://www.w3.org/2000/svg"
   xmlns:rdf="http://www.w3.org/1999/02/22-rdf-syntax-ns#"
   xmlns:cc="http://creativecommons.org/ns#"
   xmlns:dc="http://purl.org/dc/elements/1.1/">
  <sodipodi:namedview
     id="namedview46227"
     pagecolor="#ffffff"
     bordercolor="#666666"
     borderopacity="1.0"
     inkscape:showpageshadow="2"
     inkscape:pageopacity="0.0"
     inkscape:pagecheckerboard="0"
     inkscape:deskcolor="#d1d1d1"
     showgrid="false"
     inkscape:zoom="5.2149125"
     inkscape:cx="46.117744"
     inkscape:cy="37.87216"
     inkscape:window-width="1920"
     inkscape:window-height="1031"
     inkscape:window-x="0"
     inkscape:window-y="0"
     inkscape:window-maximized="1"
     inkscape:current-layer="layer1" />
  <metadata
     id="metadata4961">
    <rdf:RDF>
      <cc:Work
         rdf:about="">
        <dc:format>image/svg+xml</dc:format>
        <dc:type
           rdf:resource="http://purl.org/dc/dcmitype/StillImage" />
      </cc:Work>
    </rdf:RDF>
  </metadata>
  <defs
     id="defs2529">
    <linearGradient
       x1="32.036148"
       y1="19"
       x2="32.036148"
       y2="47.012184"
       id="linearGradient3326"
       xlink:href="#linearGradient3309-8"
       gradientUnits="userSpaceOnUse"
       gradientTransform="matrix(0.93928017,0.34315123,-0.34315123,0.93928017,-1.7936946,-25.633934)" />
    <linearGradient
       x1="63.9995"
       y1="3.1001"
       x2="63.9995"
       y2="122.8994"
       id="linearGradient3309-8"
       gradientUnits="userSpaceOnUse">
      <stop
         id="stop3311-4"
         style="stop-color:#f6f6f6;stop-opacity:1"
         offset="0" />
      <stop
         id="stop3313-8"
         style="stop-color:#d2d2d2;stop-opacity:1"
         offset="1" />
    </linearGradient>
    <linearGradient
       id="linearGradient5128-0">
      <stop
         id="stop5130-4"
         style="stop-color:#ffffff;stop-opacity:1"
         offset="0" />
      <stop
         id="stop5132-4"
         style="stop-color:#959595;stop-opacity:1"
         offset="1" />
    </linearGradient>
    <linearGradient
       x1="86.132919"
       y1="105.105"
       x2="84.63858"
       y2="20.895"
       id="linearGradient2868"
       xlink:href="#linearGradient5128-0"
       gradientUnits="userSpaceOnUse"
       gradientTransform="matrix(0.2014014,0,0,0.2014015,3.1103045,3.311705)" />
    <linearGradient
       x1="34"
       y1="1"
       x2="34"
       y2="23.00024"
       id="linearGradient3218"
       xlink:href="#linearGradient3309-4"
       gradientUnits="userSpaceOnUse"
       gradientTransform="translate(-24.5,0)" />
    <linearGradient
       x1="63.9995"
       y1="3.1001"
       x2="63.9995"
       y2="122.8994"
       id="linearGradient3309-4"
       gradientUnits="userSpaceOnUse">
      <stop
         id="stop3311-8"
         style="stop-color:#f6f6f6;stop-opacity:1"
         offset="0" />
      <stop
         id="stop3313-88"
         style="stop-color:#d2d2d2;stop-opacity:1"
         offset="1" />
    </linearGradient>
    <linearGradient
       x1="86.132919"
       y1="105.105"
       x2="84.63858"
       y2="20.895"
       id="linearGradient3241"
       xlink:href="#linearGradient5128-6"
       gradientUnits="userSpaceOnUse"
       gradientTransform="matrix(0.1562313,0,0,0.1562313,2.0012016,2.1574324)" />
    <linearGradient
       id="linearGradient5128-6">
      <stop
         id="stop5130-43"
         style="stop-color:#eeeeee;stop-opacity:1"
         offset="0" />
      <stop
         id="stop5132-0"
         style="stop-color:#a2a2a2;stop-opacity:1"
         offset="1" />
    </linearGradient>
    <linearGradient
       id="linearGradient5128">
      <stop
         offset="0"
         style="stop-color:#e5e5e5;stop-opacity:1"
         id="stop5130" />
      <stop
         offset="1"
         style="stop-color:#ababab;stop-opacity:1"
         id="stop5132" />
    </linearGradient>
    <linearGradient
       gradientUnits="userSpaceOnUse"
       id="linearGradient3309"
       y2="122.8994"
       x2="63.9995"
       y1="3.1001"
       x1="63.9995">
      <stop
         offset="0"
         style="stop-color:#f6f6f6;stop-opacity:1"
         id="stop3311" />
      <stop
         offset="1"
         style="stop-color:#d2d2d2;stop-opacity:1"
         id="stop3313" />
    </linearGradient>
    <linearGradient
       xlink:href="#linearGradient3309"
       id="linearGradient3094"
       gradientUnits="userSpaceOnUse"
       gradientTransform="translate(38.440681,1.059322)"
       x1="20.758585"
       y1="1"
       x2="20.758585"
       y2="45.017357" />
    <linearGradient
       xlink:href="#linearGradient5128"
       id="linearGradient3098"
       gradientUnits="userSpaceOnUse"
       gradientTransform="matrix(0.3244803,0,0,0.3244803,41.673946,3.6170674)"
       x1="86.132919"
       y1="105.105"
       x2="84.63858"
       y2="20.895" />
  </defs>
  <g
     transform="matrix(2.0183385,0,0,2.0187948,-2.545989,-2.6595059)"
     id="layer1">
    <path
       d="m 18.636572,2.5905216 c -0.703275,-0.2569307 -1.495689,0.08705 -1.752619,0.7903248 l -0.600515,1.6437399 c -0.499176,-0.013219 -0.993955,0.00248 -1.484533,0.056512 L 14.072373,3.5181351 C 13.756758,2.8391668 12.960838,2.5483897 12.28187,2.864003 L 8.3651471,4.6602954 C 7.6861782,4.9759083 7.3954033,5.7718319 7.7110151,6.4507982 l 0.726532,1.5629636 C 8.0724464,8.359396 7.744193,8.7441155 7.4266456,9.141602 L 5.8122578,8.5518108 C 5.1089821,8.2948801 4.3165666,8.6388602 4.0596381,9.3421356 L 2.5797984,13.392781 c -0.2569313,0.703275 0.1271272,1.477063 0.8304007,1.733991 l 1.6143878,0.589791 c -0.013469,0.508577 -0.010523,1.014295 0.045789,1.513885 l -1.5629633,0.726533 c -0.6789688,0.315613 -0.9697472,1.111534 -0.654132,1.790502 l 1.8363684,3.898094 c 0.3156123,0.678968 1.1115366,0.969744 1.7905029,0.654132 l 1.5629636,-0.726532 c 0.3402133,0.357549 0.7083491,0.688501 1.0984877,1.000178 l -0.6005147,1.64374 c -0.2569313,0.703275 0.1271291,1.477064 0.8304008,1.733991 l 4.0212927,1.469116 c 0.703276,0.256931 1.466338,-0.09777 1.723267,-0.801048 l 0.600515,-1.64374 c 0.508577,0.01347 1.014295,0.01052 1.513885,-0.04579 l 0.726532,1.562963 c 0.315614,0.678968 1.111534,0.969745 1.790502,0.654132 l 3.916723,-1.796292 c 0.678969,-0.315613 0.969742,-1.111538 0.654132,-1.790503 l -0.745161,-1.603039 c 0.357549,-0.340214 0.6885,-0.708349 1.000178,-1.098488 l 1.64374,0.600515 c 0.703276,0.25693 1.466338,-0.09778 1.723267,-0.801049 l 1.47984,-4.050645 c 0.256931,-0.703275 -0.09778,-1.466339 -0.801048,-1.723268 l -1.64374,-0.600514 c 0.01322,-0.499176 -0.0025,-0.993955 -0.05651,-1.484533 l 1.60304,-0.745162 C 29.20091,13.73813 29.491686,12.942208 29.176073,12.26324 L 27.339704,8.365146 C 27.024092,7.6861784 26.228168,7.3954 25.549202,7.711014 L 23.986239,8.4375465 C 23.640605,8.0724458 23.255886,7.7441924 22.858399,7.4266449 L 23.458914,5.782905 C 23.715845,5.0796306 23.361136,4.3165668 22.657865,4.0596378 L 18.636572,2.5905216 Z M 17.20103,12.71252 c 1.81469,0.662968 2.74942,2.67382 2.086452,4.48851 -0.662969,1.814689 -2.673821,2.749419 -4.48851,2.086451 -1.814691,-0.662969 -2.74942,-2.673821 -2.086452,-4.48851 0.662968,-1.81469 2.673821,-2.74942 4.48851,-2.086451 z"
       id="rect2576"
       style="fill:url(#linearGradient3326);fill-opacity:1;fill-rule:nonzero;stroke:#000000;stroke-width:0.49540102;stroke-linecap:butt;stroke-linejoin:round;stroke-miterlimit:4;stroke-opacity:0.34000003;stroke-dasharray:none;stroke-dashoffset:0;marker:none;visibility:visible;display:block;overflow:visible;enable-background:accumulate" />
    <path
       d="m 15.998797,7.865834 c -4.48457,0 -8.1329266,3.647531 -8.1329266,8.131089 0,4.483558 3.6483566,8.131089 8.1329266,8.131089 4.48457,0 8.132928,-3.647531 8.132928,-8.131089 0,-4.483558 -3.648358,-8.131089 -8.132928,-8.131089 z m 0,4.389044 c 2.231236,0 3.747886,1.828736 3.747886,3.742045 0,1.957091 -1.553561,3.752239 -3.784797,3.752239 -1.771415,0 -3.711221,-1.477722 -3.711221,-3.752239 0,-2.241679 1.889132,-3.742045 3.748132,-3.742045 z"
       id="path3315"
       style="opacity:0.05;fill:#000000;fill-opacity:1;stroke:none" />
    <path
       d="m 16.000001,7.6206906 c -4.620353,0 -8.3793085,3.7589574 -8.3793085,8.3793084 0,4.620352 3.7589555,8.37931 8.3793085,8.37931 4.620353,0 8.379309,-3.758958 8.379309,-8.37931 0,-4.620351 -3.758956,-8.3793084 -8.379309,-8.3793084 z"
       id="path28"
       style="fill:none;stroke:url(#linearGradient2868);stroke-width:0.49540102;stroke-miterlimit:4;stroke-dasharray:none" />
  </g>
  <g
     transform="matrix(1.9999998,0,0,1.9999816,-0.49999743,80.500416)"
     id="layer1-3">
    <g
       id="g2486">
      <path
         d="M 10.1875,1.5 C 9.799134,1.5 9.5,1.7991339 9.5,2.1875 l 0,1.6875 C 8.988333,4.0322247 8.496816,4.2537684 8.03125,4.5 L 6.84375,3.3125 c -0.274616,-0.2746162 -0.725384,-0.2746162 -1,0 L 3.3125,5.84375 c -0.274616,0.2746162 -0.274616,0.7253836 0,1 L 4.5,8.03125 C 4.253769,8.4968155 4.032225,8.9883329 3.875,9.5 l -1.6875,0 C 1.799134,9.5 1.5,9.7991344 1.5,10.1875 l 0,3.625 C 1.5,14.200866 1.799134,14.5 2.1875,14.5 l 1.6875,0 c 0.157225,0.511667 0.378769,1.003185 0.625,1.46875 l -1.1875,1.1875 c -0.274616,0.274616 -0.274616,0.725384 0,1 l 2.53125,2.53125 c 0.274616,0.274616 0.725384,0.274616 1,0 L 8.03125,19.5 C 8.496816,19.746232 8.988333,19.967775 9.5,20.125 l 0,1.6875 c 0,0.388366 0.299135,0.6875 0.6875,0.6875 l 3.625,0 c 0.388366,0 0.6875,-0.299134 0.6875,-0.6875 l 0,-1.6875 c 0.511667,-0.157225 1.003185,-0.378768 1.46875,-0.625 l 1.1875,1.1875 c 0.274616,0.274616 0.725384,0.274616 1,0 l 2.53125,-2.53125 c 0.274616,-0.274616 0.274616,-0.725384 0,-1 L 19.5,15.96875 C 19.746232,15.503185 19.967775,15.011667 20.125,14.5 l 1.6875,0 c 0.388366,0 0.6875,-0.299134 0.6875,-0.6875 l 0,-3.625 C 22.5,9.7991341 22.200866,9.5 21.8125,9.5 l -1.6875,0 C 19.967775,8.9883329 19.746232,8.4968155 19.5,8.03125 l 1.1875,-1.1875 c 0.274616,-0.2746162 0.274616,-0.7253837 0,-1 L 18.15625,3.3125 c -0.274616,-0.2746162 -0.725384,-0.2746162 -1,0 L 15.96875,4.5 C 15.503185,4.2537684 15.011667,4.0322247 14.5,3.875 l 0,-1.6875 C 14.5,1.7991341 14.200866,1.5 13.8125,1.5 l -3.625,0 z M 12,9 c 1.656,0 3,1.344 3,3 0,1.656 -1.344,3 -3,3 -1.656,0 -3,-1.344 -3,-3 0,-1.656 1.344,-3 3,-3 z"
         id="rect2426"
         style="fill:url(#linearGradient3218);fill-opacity:1;fill-rule:nonzero;stroke:#000000;stroke-width:0.50000232;stroke-linecap:butt;stroke-linejoin:round;stroke-miterlimit:4;stroke-opacity:0.34000003;stroke-dasharray:none;stroke-dashoffset:0;marker:none;visibility:visible;display:block;overflow:visible;enable-background:accumulate" />
      <path
         d="M 12,5.7498449 C 8.4962318,5.7498449 5.7499993,8.629044 5.7499993,12 c 0,3.495957 2.83217,6.24996 6.2500007,6.24996 3.433455,0 6.250001,-2.777441 6.250001,-6.24996 0,-3.4725194 -2.839983,-6.2501551 -6.250001,-6.2501551 z m 0,3.0193859 c 1.783385,0 3.230769,1.4473842 3.230769,3.2307692 0,1.783385 -1.447384,3.230769 -3.230769,3.230769 -1.783385,0 -3.2307692,-1.447384 -3.2307692,-3.230769 0,-1.783385 1.4473842,-3.2307692 3.2307692,-3.2307692 z"
         id="path3315-9"
         style="opacity:0.05;fill:#000000;fill-opacity:1;stroke:none" />
      <path
         d="m 11.999999,5.4999995 c -3.5840997,0 -6.4999994,2.9158997 -6.4999994,6.4999995 C 5.4999996,15.5841 8.4158993,18.5 11.999999,18.5 15.584101,18.5 18.5,15.5841 18.5,11.999999 18.5,8.4158992 15.584101,5.4999995 11.999999,5.4999995 Z"
         id="path28-2"
         style="fill:none;stroke:url(#linearGradient3241);stroke-width:0.50000232;stroke-miterlimit:4;stroke-dasharray:none" />
    </g>
  </g>
  <g
     id="g3089"
     transform="matrix(2.0232557,0,0,2.0232559,-44.333464,31.321831)">
    <path
       style="fill:url(#linearGradient3094);fill-opacity:1;fill-rule:nonzero;stroke:#000000;stroke-width:0.49425513;stroke-linecap:butt;stroke-linejoin:round;stroke-miterlimit:4;stroke-opacity:0.34;stroke-dasharray:none;stroke-dashoffset:0;marker:none;visibility:visible;display:block;overflow:visible;enable-background:accumulate"
       id="rect3267"
       d="m 59.471931,2.559322 c -0.84613,0 -1.53125,0.7019069 -1.53125,1.5625 l 0,3.03125 c -1.512942,0.4031055 -2.958563,1.011986 -4.28125,1.78125 l -2.15625,-2.15625 c -0.304266,-0.3042657 -0.668753,-0.4654133 -1.0625,-0.46875 -0.393747,-0.00334 -0.794598,0.1383479 -1.09375,0.4375 l -4.21875,4.21875 c -0.598304,0.598304 -0.577281,1.547718 0.03125,2.15625 l 2.15625,2.15625 c -0.769264,1.322687 -1.378145,2.768308 -1.78125,4.28125 l -3.03125,0 c -0.860593,0 -1.5625,0.685119 -1.5625,1.53125 l 0,5.9375 c 0,0.84613 0.701907,1.53125 1.5625,1.53125 l 3.03125,0 c 0.403105,1.512942 1.011986,2.958563 1.78125,4.28125 l -2.15625,2.15625 c -0.608531,0.608531 -0.629554,1.557945 -0.03125,2.15625 l 4.21875,4.21875 c 0.598304,0.598304 1.547718,0.577279 2.15625,-0.03125 l 2.15625,-2.15625 c 1.322687,0.769264 2.768308,1.378144 4.28125,1.78125 l 0,3.03125 c 0,0.860593 0.685119,1.5625 1.53125,1.5625 l 5.9375,0 c 0.84613,0 1.53125,-0.701907 1.53125,-1.5625 l 0,-3.03125 c 1.512942,-0.403106 2.958563,-1.011986 4.28125,-1.78125 l 2.15625,2.15625 c 0.608531,0.608531 1.557946,0.629555 2.15625,0.03125 l 4.21875,-4.21875 c 0.598304,-0.598304 0.577281,-1.547719 -0.03125,-2.15625 l -2.15625,-2.15625 c 0.769264,-1.322687 1.378144,-2.768308 1.78125,-4.28125 l 3.03125,0 c 0.860593,0 1.5625,-0.685119 1.5625,-1.53125 l 0,-5.9375 c 0,-0.84613 -0.701907,-1.53125 -1.5625,-1.53125 l -3.03125,0 c -0.403106,-1.512942 -1.011986,-2.958563 -1.78125,-4.28125 l 2.15625,-2.15625 c 0.608531,-0.608531 0.629555,-1.557946 0.03125,-2.15625 l -4.21875,-4.21875 c -0.598304,-0.5983044 -1.54772,-0.5772813 -2.15625,0.03125 l -2.15625,2.15625 C 69.899244,8.165058 68.453623,7.5561775 66.940681,7.153072 l 0,-3.03125 c 0,-0.8605933 -0.685119,-1.5625 -1.53125,-1.5625 l -5.9375,0 z m 2.96875,15 c 3.588,0 6.5,2.912 6.5,6.5 0,3.588 -2.912,6.5 -6.5,6.5 -3.588,0 -6.5,-2.912 -6.5,-6.5 0,-3.588 2.912,-6.5 6.5,-6.5 z" />
    <path
       style="fill:none;stroke:url(#linearGradient3098);stroke-width:0.49425513;stroke-miterlimit:4;stroke-dasharray:none"
       id="path28-6"
       d="m 62.440681,10.559322 c -7.443901,0 -13.5,6.056099 -13.5,13.5 0,7.4439 6.056099,13.5 13.5,13.5 7.443901,0 13.5,-6.0561 13.5,-13.5 0,-7.443901 -6.056099,-13.5 -13.5,-13.5 z" />
    <path
       style="opacity:0.05;fill:#000000;fill-opacity:1;stroke:none"
       id="path3315-7"
       d="m 62.440681,10.798517 c -7.308045,-1e-6 -13.253391,5.94535 -13.253391,13.253392 0,7.308044 5.945346,13.253391 13.253391,13.253391 7.308041,-1e-6 13.253392,-5.945347 13.253392,-13.253391 0,-7.308042 -5.945351,-13.253392 -13.253392,-13.253392 z m 0,6.514255 c 3.599517,0 6.746552,2.923384 6.746552,6.739137 0,3.76457 -3.123961,6.753966 -6.746552,6.753966 -4.277883,0 -6.746552,-3.746285 -6.746552,-6.407779 0,-4.518158 3.386079,-7.085324 6.746552,-7.085324 z" />
  </g>
</svg>
