<?xml version="1.0" encoding="UTF-8" standalone="no"?>
<!-- Created with Inkscape (http://www.inkscape.org/) -->

<svg
   xmlns:dc="http://purl.org/dc/elements/1.1/"
   xmlns:cc="http://creativecommons.org/ns#"
   xmlns:rdf="http://www.w3.org/1999/02/22-rdf-syntax-ns#"
   xmlns:svg="http://www.w3.org/2000/svg"
   xmlns="http://www.w3.org/2000/svg"
   xmlns:xlink="http://www.w3.org/1999/xlink"
   xmlns:sodipodi="http://sodipodi.sourceforge.net/DTD/sodipodi-0.dtd"
   xmlns:inkscape="http://www.inkscape.org/namespaces/inkscape"
   version="1.0"
   width="128"
   height="128"
   id="svg11300"
   inkscape:version="0.48+devel r"
   sodipodi:docname="system-log-out.svg">
  <metadata
     id="metadata1445">
    <rdf:RDF>
      <cc:Work
         rdf:about="">
        <dc:format>image/svg+xml</dc:format>
        <dc:type
           rdf:resource="http://purl.org/dc/dcmitype/StillImage" />
        <dc:title></dc:title>
      </cc:Work>
    </rdf:RDF>
  </metadata>
  <sodipodi:namedview
     pagecolor="#ffffff"
     bordercolor="#666666"
     borderopacity="1"
     objecttolerance="10"
     gridtolerance="10"
     guidetolerance="10"
     inkscape:pageopacity="0"
     inkscape:pageshadow="2"
     inkscape:window-width="1535"
     inkscape:window-height="876"
     id="namedview1443"
     showgrid="true"
     inkscape:zoom="3.4766084"
     inkscape:cx="50.170857"
     inkscape:cy="55.1295"
     inkscape:window-x="65"
     inkscape:window-y="24"
     inkscape:window-maximized="1"
     inkscape:current-layer="g3002">
    <inkscape:grid
       type="xygrid"
       id="grid4102" />
  </sodipodi:namedview>
  <defs
     id="defs3">
    <linearGradient
       id="linearGradient3785">
      <stop
         id="stop3787"
         style="stop-color:#bdbdbd;stop-opacity:1"
         offset="0" />
      <stop
         id="stop3789"
         style="stop-color:#8c8c8c;stop-opacity:1"
         offset="1" />
    </linearGradient>
    <linearGradient
       id="linearGradient6954">
      <stop
         id="stop6960"
         style="stop-color:#f5f5f5;stop-opacity:1"
         offset="0" />
      <stop
         id="stop6962"
         style="stop-color:#d2d2d2;stop-opacity:1"
         offset="1" />
    </linearGradient>
    <linearGradient
       id="linearGradient3341">
      <stop
         id="stop3343"
         style="stop-color:#ffffff;stop-opacity:1"
         offset="0" />
      <stop
         id="stop3345"
         style="stop-color:#ffffff;stop-opacity:0"
         offset="1" />
    </linearGradient>
    <linearGradient
       id="linearGradient5060">
      <stop
         id="stop5062"
         style="stop-color:#000000;stop-opacity:1"
         offset="0" />
      <stop
         id="stop5064"
         style="stop-color:#000000;stop-opacity:0"
         offset="1" />
    </linearGradient>
    <radialGradient
       cx="32"
       cy="41.5"
       r="21"
       fx="32"
       fy="41.5"
       id="radialGradient2876"
       xlink:href="#linearGradient5060"
       gradientUnits="userSpaceOnUse"
       gradientTransform="matrix(1,0,0,0.35714286,0,26.678571)" />
    <radialGradient
       cx="24.999998"
       cy="28.659998"
       r="16"
       fx="24.999998"
       fy="28.659998"
       id="radialGradient2878"
       xlink:href="#linearGradient6954"
       gradientUnits="userSpaceOnUse"
       gradientTransform="matrix(1.3125,0,0,0.37326701,-7.812498,20.302168)" />
    <linearGradient
       x1="30"
       y1="25.084745"
       x2="30"
       y2="45"
       id="linearGradient2880"
       xlink:href="#linearGradient3785"
       gradientUnits="userSpaceOnUse" />
    <linearGradient
       x1="24.786562"
       y1="53.869164"
       x2="24.87495"
       y2="83.5"
       id="linearGradient2882"
       xlink:href="#linearGradient3341"
       gradientUnits="userSpaceOnUse"
       gradientTransform="matrix(1.0871387,0,0,1.0875377,2.5081858,-46.146213)" />
    <radialGradient
       cx="26.375898"
       cy="12.31301"
       r="8"
       fx="26.375898"
       fy="12.31301"
       id="radialGradient2884"
       xlink:href="#linearGradient6954"
       gradientUnits="userSpaceOnUse"
       gradientTransform="matrix(1.640165,-0.1325824,0.12811381,1.5848844,-18.396351,-5.2274259)" />
    <linearGradient
       x1="30"
       y1="5"
       x2="30"
       y2="44.678879"
       id="linearGradient2887"
       xlink:href="#linearGradient3785"
       gradientUnits="userSpaceOnUse" />
    <linearGradient
       x1="22"
       y1="39"
       x2="17"
       y2="37.4375"
       id="linearGradient2889"
       xlink:href="#linearGradient5060"
       gradientUnits="userSpaceOnUse" />
    <linearGradient
       x1="38"
       y1="39"
       x2="43"
       y2="38.599998"
       id="linearGradient2891"
       xlink:href="#linearGradient5060"
       gradientUnits="userSpaceOnUse" />
    <radialGradient
       cx="30"
       cy="33.1875"
       r="4.6875"
       fx="30"
       fy="33.1875"
       id="radialGradient2893"
       xlink:href="#linearGradient5060"
       gradientUnits="userSpaceOnUse"
       gradientTransform="matrix(1.5279732,-7.0647448e-7,2.1308638e-7,0.46086628,-15.839202,14.705021)" />
    <linearGradient
       x1="29.999992"
       y1="3.0410755"
       x2="29.999992"
       y2="27.956825"
       id="linearGradient2895"
       xlink:href="#linearGradient3341"
       gradientUnits="userSpaceOnUse"
       gradientTransform="matrix(1.0956684,0,0,1.0760111,-2.907422,-1.1897864)" />
    <linearGradient
       id="linearGradient3840">
      <stop
         id="stop3842"
         style="stop-color:#eda606;stop-opacity:1"
         offset="0" />
      <stop
         id="stop3844"
         style="stop-color:#efb220;stop-opacity:1"
         offset="0.31757474" />
      <stop
         id="stop3846"
         style="stop-color:#f1be3b;stop-opacity:0"
         offset="1" />
    </linearGradient>
    <linearGradient
       id="linearGradient5432">
      <stop
         id="stop5434"
         style="stop-color:#a65612;stop-opacity:1"
         offset="0" />
      <stop
         id="stop5436"
         style="stop-color:#a65612;stop-opacity:0"
         offset="1" />
    </linearGradient>
    <linearGradient
       x1="3.8877637"
       y1="26.022909"
       x2="-8.7979088"
       y2="26.022909"
       id="linearGradient2987"
       xlink:href="#linearGradient3341"
       gradientUnits="userSpaceOnUse"
       gradientTransform="matrix(0.62721007,0,0,0.58770295,18.881317,20.801756)" />
    <linearGradient
       x1="3.8738406"
       y1="28.280676"
       x2="62.400131"
       y2="28.280676"
       id="linearGradient2990"
       xlink:href="#linearGradient3840"
       gradientUnits="userSpaceOnUse"
       gradientTransform="matrix(-0.5572773,0,0,0.55176119,47.470438,23.317893)" />
    <linearGradient
       x1="41.81702"
       y1="45.610001"
       x2="41.81702"
       y2="26.597807"
       id="linearGradient2992"
       xlink:href="#linearGradient5432"
       gradientUnits="userSpaceOnUse"
       gradientTransform="matrix(0,-1.095875,1.1068307,0,-16.554837,81.2205)" />
  </defs>
  <g
     transform="matrix(2.7383903,0,0,2.74392,-32.160684,-10.527679)"
     id="g3912">
    <path
       d="m 53,41.5 a 21,7.5 0 1 1 -42,0 21,7.5 0 1 1 42,0 z"
       transform="matrix(0.85714286,0,0,0.8,2.5714285,7.8)"
       id="path3823"
       style="opacity:0.7;fill:url(#radialGradient2876);fill-opacity:1;stroke:none"
       inkscape:connector-curvature="0" />
    <path
       d="m 25.5,20.5 c 0.460215,2.17673 0.717092,3.82327 0.34375,6 C 22.933057,28.914876 15.488842,30 15.5,32.5 l -1,7.5 c 0,2.485281 6.939586,4.5 15.5,4.5 8.560414,0 15.5,-2.014719 15.5,-4.5 l -1,-7.5 C 44.48813,30.360337 37,29 34.125,26.5 33.879426,24.479663 34.07491,22.520337 34.5,20.5 l -9,0 z"
       id="path3766"
       style="fill:url(#radialGradient2878);fill-opacity:1;stroke:url(#linearGradient2880);stroke-width:0.36480987;stroke-miterlimit:4;stroke-opacity:1;stroke-dasharray:none"
       inkscape:connector-curvature="0" />
    <path
       d="m 25.851546,20.490077 c 0.331183,1.838319 0.809507,3.335527 0.458078,5.385245 -0.04583,0.269705 0.03717,0.660563 -0.17914,0.827958 -1.871852,1.553563 -4.055571,2.229316 -6.431913,3.176188 -1.188175,0.47343 -2.245868,0.945891 -2.92169,1.393406 -0.675814,0.447513 -0.815969,0.745393 -0.815353,0.883627 0.0026,0.0452 0.0026,0.09072 0,0.13594 l -1.087137,8.020588 c 0,0.003 -1.19e-4,0.03056 0,0.03401 0.0055,0.172207 0.16316,0.514425 0.849328,0.985577 0.699932,0.480615 1.841987,0.971301 3.295391,1.393412 2.9068,0.844224 7.051125,1.393406 11.618792,1.393406 4.567669,0 7.337931,-0.586244 10.244737,-1.430468 1.453405,-0.422111 2.595458,-0.912797 3.295387,-1.393412 0.686174,-0.471152 0.843353,-0.81337 0.849335,-0.985577 l 0,-0.03401 -0.975734,-7.983526 c -0.0026,-0.04519 -0.0026,-0.09071 0,-0.13594 1.55e-4,0.02671 0.01711,0.0028 -0.101996,-0.135943 -0.119015,-0.138958 -0.177862,-0.325195 -0.52775,-0.54377 -0.699776,-0.437157 -1.789074,-0.932535 -2.989633,-1.427398 -2.401119,-0.989718 -4.583955,-1.517913 -6.426442,-3.120663 -0.203634,-0.17309 -0.256504,-0.7856 -0.293584,-1.05033 -0.23035,-1.895794 0.149023,-3.853082 0.449298,-5.684815 z"
       id="path3894"
       style="fill:none;stroke:url(#linearGradient2882);stroke-width:0.36480975;stroke-miterlimit:4;stroke-opacity:1;stroke-dasharray:none"
       inkscape:connector-curvature="0"
       sodipodi:nodetypes="cccssccccssssscccccsscccc" />
    <path
       d="m 30,5.5 c -4.142136,0 -7.5,3.134007 -7.5,7 0.03246,1.430727 0.154571,3.130379 1,7 0.5,1.5 4.95976,5.5 5,6 0.96967,0.5 2.5,0.5 3.5,0 0,-0.5 4,-4.5 4.5,-6 0.951375,-4.021691 0.948972,-5.5 1,-7 0,-3.865993 -3.357864,-7 -7.5,-7 z"
       id="path3764"
       style="fill:url(#radialGradient2884);fill-opacity:1;stroke:url(#linearGradient2887);stroke-width:0.36480987;stroke-miterlimit:4;stroke-opacity:1;stroke-dasharray:none"
       inkscape:connector-curvature="0" />
    <path
       d="m 21,43.2 c -2.362349,-1.982195 -1.235869,-6.38286 -1,-9.2 -1,2 -1,8 -3,8 1.36261,0.458554 2.749561,0.965789 4,1.2 z"
       id="path3848"
       style="opacity:0.3;fill:url(#linearGradient2889);fill-opacity:1;stroke:none"
       inkscape:connector-curvature="0" />
    <path
       d="m 39,43.2 c 2.350047,-1.743746 1.156723,-6.485917 1,-9.2 1,2 1,8 3,8 -1.36261,0.458554 -2.749561,0.965789 -4,1.2 z"
       id="path3850"
       style="opacity:0.3;fill:url(#linearGradient2891);fill-opacity:1;stroke:none"
       inkscape:connector-curvature="0" />
    <path
       d="m 25.3125,27 c 0.686303,1.744757 2.518909,3 4.6875,3 2.168591,0 4.001197,-1.255243 4.6875,-3 l -9.375,0 z"
       id="path3833"
       style="opacity:0.2;fill:url(#radialGradient2893);fill-opacity:1;stroke:none"
       inkscape:connector-curvature="0" />
    <path
       d="m 29.962633,5.8379112 c -3.959357,0 -7.067534,2.8826464 -7.087605,6.3888158 1.56e-4,0.0063 -1.61e-4,0.0269 0,0.0337 0.03485,1.478307 0.171389,3.208056 1.061425,7.229451 0.04441,0.104003 0.366788,0.627219 0.855995,1.210512 0.504758,0.601836 1.139259,1.284613 1.78046,1.95027 0.641197,0.665656 1.28992,1.326156 1.780463,1.849394 0.245272,0.261619 0.444111,0.492489 0.616315,0.706131 0.01558,0.01935 0.01919,0.04805 0.03427,0.06718 0.63539,0.245263 1.742016,0.247952 2.431015,0 0.153708,-0.219077 0.328808,-0.476372 0.547832,-0.739757 0.438054,-0.526766 0.997876,-1.148951 1.575025,-1.81577 0.577149,-0.666818 1.182056,-1.379672 1.643501,-1.983894 0.438606,-0.574311 0.720519,-1.0509 0.787515,-1.210514 0.0033,-0.01497 -0.0033,-0.0188 0,-0.03369 1.010788,-4.206468 1.006081,-5.608511 1.061425,-7.229452 0,-0.01138 6.5e-5,-0.02233 0,-0.0337 -0.02009,-3.5061622 -3.128248,-6.3888085 -7.087606,-6.3888085 z"
       id="path3906"
       style="opacity:0.7;fill:none;stroke:url(#linearGradient2895);stroke-width:0.36625117;stroke-miterlimit:4;stroke-opacity:1;stroke-dasharray:none"
       inkscape:connector-curvature="0" />
  </g>
  <g
     id="g3002"
     transform="matrix(2.7383903,0,0,2.7700503,13.601577,-5.8772092)">
    <g
       id="g4122"
       transform="translate(-7.3035606,0)">
      <path
         sodipodi:nodetypes="cccccccc"
         inkscape:connector-curvature="0"
         style="fill:url(#linearGradient2990);fill-opacity:1;fill-rule:nonzero;stroke:url(#linearGradient2992);stroke-width:0.36308506;stroke-linecap:round;stroke-linejoin:round;stroke-miterlimit:4;stroke-opacity:1;stroke-dasharray:none;stroke-dashoffset:0;marker:none;visibility:visible;display:inline;overflow:visible"
         id="path3801"
         d="M 33.574998,24.500002 46.449994,36 33.574998,47.5 l 0,-5.851374 -20.874998,0 0,-11.184844 20.874998,0 z" />
      <path
         sodipodi:nodetypes="cccccccc"
         inkscape:connector-curvature="0"
         style="opacity:0.35400008;fill:none;stroke:url(#linearGradient2987);stroke-width:0.36308506;stroke-linecap:butt;stroke-linejoin:miter;stroke-miterlimit:4;stroke-opacity:1;stroke-dasharray:none;stroke-dashoffset:0;marker:none;visibility:visible;display:inline;overflow:visible"
         id="path3803"
         d="M 33.949529,25.332106 45.867845,36 33.986047,46.593092 l 0,-5.324587 -20.469375,0 -0.06052,-10.424946 20.493377,0 z" />
    </g>
  </g>
</svg>
