<?xml version="1.0" encoding="UTF-8" standalone="no"?>
<svg
   xmlns:dc="http://purl.org/dc/elements/1.1/"
   xmlns:cc="http://creativecommons.org/ns#"
   xmlns:rdf="http://www.w3.org/1999/02/22-rdf-syntax-ns#"
   xmlns:svg="http://www.w3.org/2000/svg"
   xmlns="http://www.w3.org/2000/svg"
   xmlns:xlink="http://www.w3.org/1999/xlink"
   version="1.1"
   width="128"
   height="128"
   id="svg3342">
  <defs
     id="defs3344">
    <linearGradient
       x1="17.591623"
       y1="7"
       x2="17.591623"
       y2="-0.02451775"
       id="linearGradient2865"
       xlink:href="#linearGradient3251"
       gradientUnits="userSpaceOnUse"
       gradientTransform="matrix(5.3333333,0,0,5.3333333,-5.333333,5.330407)" />
    <linearGradient
       id="linearGradient3251">
      <stop
         id="stop3253"
         style="stop-color:#917f6e;stop-opacity:1"
         offset="0" />
      <stop
         id="stop3255"
         style="stop-color:#cbbaa9;stop-opacity:1"
         offset="1" />
    </linearGradient>
    <linearGradient
       x1="40.006763"
       y1="12.910877"
       x2="40.006763"
       y2="7.0924568"
       id="linearGradient2868"
       xlink:href="#linearGradient4222"
       gradientUnits="userSpaceOnUse"
       gradientTransform="matrix(3.7348495,0,0,3.7348365,-68.919239,5.147402)" />
    <linearGradient
       id="linearGradient4222">
      <stop
         id="stop4224"
         style="stop-color:#ffffff;stop-opacity:1"
         offset="0" />
      <stop
         id="stop4226"
         style="stop-color:#ffffff;stop-opacity:0"
         offset="1" />
    </linearGradient>
    <linearGradient
       x1="38.382198"
       y1="5.90625"
       x2="38.382198"
       y2="22.697742"
       id="linearGradient2871"
       xlink:href="#linearGradient4222"
       gradientUnits="userSpaceOnUse"
       gradientTransform="matrix(5.835569,0,0,5.8355808,-151.25687,-17.850163)" />
    <linearGradient
       x1="39.905758"
       y1="6.1230369"
       x2="39.905758"
       y2="24.0341"
       id="linearGradient2874"
       xlink:href="#linearGradient3243"
       gradientUnits="userSpaceOnUse"
       gradientTransform="matrix(5.3333333,0,0,5.3333333,-132.83333,-10.833332)" />
    <linearGradient
       id="linearGradient3243">
      <stop
         id="stop3245"
         style="stop-color:#fff4e9;stop-opacity:1"
         offset="0" />
      <stop
         id="stop3247"
         style="stop-color:#e7d6c5;stop-opacity:1"
         offset="1" />
    </linearGradient>
    <linearGradient
       x1="32.015705"
       y1="24.011269"
       x2="32.015705"
       y2="5"
       id="linearGradient2876"
       xlink:href="#linearGradient3251"
       gradientUnits="userSpaceOnUse"
       gradientTransform="matrix(5.3333333,0,0,5.3333333,-132.83333,-10.833332)" />
    <linearGradient
       id="linearGradient3283">
      <stop
         id="stop3285"
         style="stop-color:#000000;stop-opacity:1"
         offset="0" />
      <stop
         id="stop3287"
         style="stop-color:#000000;stop-opacity:0"
         offset="1" />
    </linearGradient>
    <radialGradient
       cx="10.471204"
       cy="20.146597"
       r="9.2146597"
       fx="10.471204"
       fy="20.146597"
       id="radialGradient3340"
       xlink:href="#linearGradient3283"
       gradientUnits="userSpaceOnUse"
       gradientTransform="matrix(5.2090906,0,0,1.7363636,-6.5454513,66.348348)" />
    <radialGradient
       cx="66.127159"
       cy="48.76759"
       r="31.000002"
       fx="66.127159"
       fy="48.76759"
       id="radialGradient3381"
       xlink:href="#linearGradient3242-7-3-8-0-4-58-06"
       gradientUnits="userSpaceOnUse"
       gradientTransform="matrix(0,2.4235253,-2.6392787,0,226.36903,-84.88818)" />
    <linearGradient
       id="linearGradient3242-7-3-8-0-4-58-06">
      <stop
         offset="0"
         style="stop-color:#cdf87e;stop-opacity:1"
         id="stop3244-5-8-5-6-4-3-8" />
      <stop
         offset="0.26238"
         style="stop-color:#a2e34f;stop-opacity:1"
         id="stop3246-9-5-1-5-3-0-7" />
      <stop
         offset="0.66093999"
         style="stop-color:#68b723;stop-opacity:1"
         id="stop3248-7-2-0-7-5-35-9" />
      <stop
         offset="1"
         style="stop-color:#1d7e0d;stop-opacity:1"
         id="stop3250-8-2-8-5-6-40-4" />
    </linearGradient>
    <linearGradient
       x1="24.138529"
       y1="9.1762295"
       x2="24.138529"
       y2="37.130203"
       id="linearGradient3030"
       xlink:href="#linearGradient4361"
       gradientUnits="userSpaceOnUse"
       gradientTransform="matrix(2.1134672,0,0,1.645562,50.724212,61.899946)" />
    <linearGradient
       id="linearGradient4361">
      <stop
         id="stop4363"
         style="stop-color:#ffffff;stop-opacity:1"
         offset="0" />
      <stop
         id="stop4365"
         style="stop-color:#ffffff;stop-opacity:0.23529412"
         offset="0" />
      <stop
         id="stop4367"
         style="stop-color:#ffffff;stop-opacity:0.15686275"
         offset="1" />
      <stop
         id="stop4369"
         style="stop-color:#ffffff;stop-opacity:0.39215687"
         offset="1" />
    </linearGradient>
    <linearGradient
       x1="24.138529"
       y1="19.795095"
       x2="24.138529"
       y2="26.484531"
       id="linearGradient3030-1"
       xlink:href="#linearGradient4351"
       gradientUnits="userSpaceOnUse"
       gradientTransform="matrix(1.6592445,0,0,2.0928522,60.832154,51.571789)" />
    <linearGradient
       id="linearGradient4351">
      <stop
         id="stop4353"
         style="stop-color:#ffffff;stop-opacity:1"
         offset="0" />
      <stop
         id="stop4355"
         style="stop-color:#ffffff;stop-opacity:0.23529412"
         offset="0.00000015" />
      <stop
         id="stop4357"
         style="stop-color:#ffffff;stop-opacity:0.15686275"
         offset="1" />
      <stop
         id="stop4359"
         style="stop-color:#ffffff;stop-opacity:0.39215687"
         offset="1" />
    </linearGradient>
  </defs>
  <metadata
     id="metadata3347">
    <rdf:RDF>
      <cc:Work
         rdf:about="">
        <dc:format>image/svg+xml</dc:format>
        <dc:type
           rdf:resource="http://purl.org/dc/dcmitype/StillImage" />
        <dc:title />
      </cc:Work>
    </rdf:RDF>
  </metadata>
  <path
     style="display:inline;overflow:visible;visibility:visible;opacity:0.3;fill:url(#radialGradient3340);fill-opacity:1;fill-rule:evenodd;stroke:none;stroke-width:1;marker:none;enable-background:accumulate"
     id="path3281"
     d="m 95.999994,101.33017 a 47.999998,16 0 1 1 -95.99999329999998,0 47.999998,16 0 1 1 95.99999329999998,0 z" />
  <path
     style="fill:url(#linearGradient2874);fill-opacity:1;fill-rule:evenodd;stroke:url(#linearGradient2876);stroke-width:1px;stroke-linecap:butt;stroke-linejoin:miter;stroke-opacity:1"
     id="path2463"
     d="M 59.166665,18.5 8.4999997,71 52.5,114.5 l 52,-50.666667 0,-45.333333 -45.333335,0 z m 21.333334,16 c 4.416,0 8,3.584 8,8 0,4.416 -3.584,8 -8,8 -4.416,0 -8,-3.584 -8,-8 0,-4.416 3.584,-8 8,-8 z" />
  <path
     style="opacity:0.6;fill:none;stroke:url(#linearGradient2871);stroke-width:0.99999994px;stroke-linecap:butt;stroke-linejoin:miter;stroke-opacity:1"
     id="path3265"
     d="m 59.629672,19.5 c 0,0 -49.67726,51.47043 -49.67726,51.47043 0,0 42.53615,41.98714 42.53615,41.98714 0,0 51.011438,-49.664547 51.011438,-49.664547 0,0 0,-43.793023 0,-43.793023 0,0 -43.870328,0 -43.870328,0 z" />
  <path
     style="opacity:0.6;fill:none;stroke:url(#linearGradient2868);stroke-width:0.99999994px;stroke-linecap:butt;stroke-linejoin:miter;stroke-opacity:1"
     id="path3294"
     d="m 80.474738,33.508817 c 5.651902,-0.199253 10.312165,5.803162 8.703503,11.229981 -1.194552,5.325199 -7.751738,8.394113 -12.595882,5.856203 -4.986015,-2.20239 -6.72403,-9.214169 -3.30661,-13.472475 1.660116,-2.24646 4.402068,-3.635344 7.198989,-3.613709 z" />
  <path
     style="fill:none;stroke:url(#linearGradient2865);stroke-width:0.99999994px;stroke-linecap:butt;stroke-linejoin:miter;stroke-opacity:1"
     id="path3298"
     d="m 82.666666,39.997073 c 5.914763,-3.131834 13.621462,-4.091301 20.943314,-4.254607 3.29145,-0.07339 6.61837,0.5968 9.84816,-0.171414 4.11063,-0.97776 6.91191,-3.989402 6.50213,-6.742661 -0.55008,-3.695808 -5.51476,-6.424128 -10.17099,-8.376528 -4.13018,-1.731819 -7.30904,-4.817877 -8.98899,-8.077947 -0.848781,-1.647109 0.63352,-3.376591 3.01116,-3.90752 2.15998,-0.482325 4.4223,-0.672975 6.62024,-0.183232 3.34529,0.745396 7.2943,1.654775 8.85051,4.024854" />
  <g
     id="g4390">
    <path
       d="m 89.5,91.499992 0,-16.007287 17,0 0,16.007287 16.00729,0 0,17.000008 -16.00729,0 0,16.00729 -17,0 0,-16.00729 -16.007286,0 0,-17.000008 16.007286,0 z"
       id="path2262"
       style="color:#000000;display:inline;overflow:visible;visibility:visible;fill:url(#radialGradient3381);fill-opacity:1;fill-rule:nonzero;stroke:none;stroke-width:0.98542738;stroke-linecap:round;stroke-linejoin:round;stroke-miterlimit:4;stroke-dasharray:none;stroke-dashoffset:0;stroke-opacity:1;marker:none;enable-background:accumulate" />
    <path
       style="display:inline;opacity:0.5;fill:none;stroke:url(#linearGradient3030);stroke-width:1;stroke-linecap:butt;stroke-linejoin:miter;stroke-miterlimit:4;stroke-dasharray:none;stroke-opacity:1"
       id="path2272-4"
       d="m 90.500004,93.012938 0,-16.512937 14.999996,0 0,16.487061 m 0,14.012938 0,16.5 -14.999996,0 0,-16.5" />
    <path
       style="display:inline;opacity:0.5;fill:none;stroke:url(#linearGradient3030-1);stroke-width:1;stroke-linecap:butt;stroke-linejoin:miter;stroke-miterlimit:4;stroke-dasharray:none;stroke-opacity:1"
       id="path2272-2"
       d="m 106,92.556134 15.5,-0.05434 0,14.943816 -15.5,0.0544 m -16,0 -15.5,-0.0544 0,-14.943816 15.5,0.05434" />
    <path
       d="m 89.5,91.499992 0,-16.007287 17,0 0,16.007287 16.00729,0 0,17.000008 -16.00729,0 0,16.00729 -17,0 0,-16.00729 -16.007286,0 0,-17.000008 16.007286,0 z"
       id="path2262-8"
       style="color:#000000;clip-rule:nonzero;display:inline;overflow:visible;visibility:visible;opacity:0.5;isolation:auto;mix-blend-mode:normal;color-interpolation:sRGB;color-interpolation-filters:linearRGB;solid-color:#000000;solid-opacity:1;fill:none;fill-opacity:1;fill-rule:nonzero;stroke:#0f5a00;stroke-width:1;stroke-linecap:round;stroke-linejoin:round;stroke-miterlimit:4;stroke-dasharray:none;stroke-dashoffset:0;stroke-opacity:1;marker:none;color-rendering:auto;image-rendering:auto;shape-rendering:auto;text-rendering:auto;enable-background:accumulate" />
  </g>
</svg>
