<?xml version="1.0" encoding="UTF-8" standalone="no"?>
<svg
   height="24"
   width="24"
   version="1.1"
   id="svg1"
   sodipodi:docname="audio-input-microphone-symbolic.svg"
   xmlns:inkscape="http://www.inkscape.org/namespaces/inkscape"
   xmlns:sodipodi="http://sodipodi.sourceforge.net/DTD/sodipodi-0.dtd"
   xmlns="http://www.w3.org/2000/svg"
   xmlns:svg="http://www.w3.org/2000/svg">
  <defs
     id="defs1" />
  <sodipodi:namedview
     id="namedview1"
     pagecolor="#ffffff"
     bordercolor="#000000"
     borderopacity="0.25"
     inkscape:showpageshadow="2"
     inkscape:pageopacity="0.0"
     inkscape:pagecheckerboard="0"
     inkscape:deskcolor="#d1d1d1" />
  <path
     color="#bebebe"
     d="m 12,5 c -1.108,0 -2,0.892 -2,2 v 6 c 0,1.108 0.892,2 2,2 1.108,0 2,-0.892 2,-2 V 7 C 14,5.892 13.108,5 12,5 Z m -5,5 v 1 h 1 v 2 a 3.981,3.981 0 0 0 3,3.861 V 19 h -1 v 1 h 4 V 19 H 13 V 16.861 A 3.981,3.981 0 0 0 16,13 v -2 h 1 v -1 h -2 v 3 c 0,1.662 -1.338,3 -3,3 -1.662,0 -3,-1.338 -3,-3 v -3 z"
     fill="#666666"
     overflow="visible"
     style="isolation:auto;mix-blend-mode:normal;marker:none"
     id="path1" />
</svg>
