<?xml version="1.0" encoding="UTF-8" standalone="no"?>
<svg
   version="1.0"
   width="24"
   height="24"
   id="svg2"
   sodipodi:docname="drive-removable-media-ieee1394.svg"
   inkscape:version="1.1.1 (3bf5ae0d25, 2021-09-20)"
   xmlns:inkscape="http://www.inkscape.org/namespaces/inkscape"
   xmlns:sodipodi="http://sodipodi.sourceforge.net/DTD/sodipodi-0.dtd"
   xmlns:xlink="http://www.w3.org/1999/xlink"
   xmlns="http://www.w3.org/2000/svg"
   xmlns:svg="http://www.w3.org/2000/svg"
   xmlns:rdf="http://www.w3.org/1999/02/22-rdf-syntax-ns#"
   xmlns:cc="http://creativecommons.org/ns#"
   xmlns:dc="http://purl.org/dc/elements/1.1/">
  <sodipodi:namedview
     id="namedview52"
     pagecolor="#ffffff"
     bordercolor="#666666"
     borderopacity="1.0"
     inkscape:pageshadow="2"
     inkscape:pageopacity="0.0"
     inkscape:pagecheckerboard="0"
     showgrid="false"
     inkscape:zoom="28.416667"
     inkscape:cx="13.636363"
     inkscape:cy="12"
     inkscape:window-width="1317"
     inkscape:window-height="890"
     inkscape:window-x="0"
     inkscape:window-y="96"
     inkscape:window-maximized="0"
     inkscape:current-layer="svg2" />
  <metadata
     id="metadata88">
    <rdf:RDF>
      <cc:Work
         rdf:about="">
        <dc:format>image/svg+xml</dc:format>
        <dc:type
           rdf:resource="http://purl.org/dc/dcmitype/StillImage" />
      </cc:Work>
    </rdf:RDF>
  </metadata>
  <defs
     id="defs4">
    <linearGradient
       id="linearGradient4075">
      <stop
         id="stop4077"
         style="stop-color:#ffffff;stop-opacity:1"
         offset="0" />
      <stop
         id="stop4079"
         style="stop-color:#ffffff;stop-opacity:0.23529412"
         offset="0.03367912" />
      <stop
         id="stop4081"
         style="stop-color:#ffffff;stop-opacity:0.15686275"
         offset="0.99223143" />
      <stop
         id="stop4083"
         style="stop-color:#ffffff;stop-opacity:0.39215687"
         offset="1" />
    </linearGradient>
    <linearGradient
       id="linearGradient5048">
      <stop
         id="stop5050"
         style="stop-color:#000000;stop-opacity:0"
         offset="0" />
      <stop
         id="stop5056"
         style="stop-color:#000000;stop-opacity:1"
         offset="0.5" />
      <stop
         id="stop5052"
         style="stop-color:#000000;stop-opacity:0"
         offset="1" />
    </linearGradient>
    <linearGradient
       id="linearGradient5060">
      <stop
         id="stop5062"
         style="stop-color:#000000;stop-opacity:1"
         offset="0" />
      <stop
         id="stop5064"
         style="stop-color:#000000;stop-opacity:0"
         offset="1" />
    </linearGradient>
    <linearGradient
       x1="53.99139"
       y1="87.89592"
       x2="53.99139"
       y2="104.28131"
       id="linearGradient2872"
       xlink:href="#linearGradient2215-9"
       gradientUnits="userSpaceOnUse"
       gradientTransform="matrix(0.1904597,0,0,0.2485308,0.090799,-3.484712)" />
    <radialGradient
       cx="605.71429"
       cy="486.64789"
       r="117.14286"
       fx="605.71429"
       fy="486.64789"
       id="radialGradient2877"
       xlink:href="#linearGradient5060"
       gradientUnits="userSpaceOnUse"
       gradientTransform="matrix(-0.02218262,0,0,0.01085997,16.259269,17.380799)" />
    <radialGradient
       cx="605.71429"
       cy="486.64789"
       r="117.14286"
       fx="605.71429"
       fy="486.64789"
       id="radialGradient2880"
       xlink:href="#linearGradient5060"
       gradientUnits="userSpaceOnUse"
       gradientTransform="matrix(0.02218262,0,0,0.01085997,7.7407365,17.380799)" />
    <linearGradient
       x1="302.85715"
       y1="366.64789"
       x2="302.85715"
       y2="609.50507"
       id="linearGradient2883"
       xlink:href="#linearGradient5048"
       gradientUnits="userSpaceOnUse"
       gradientTransform="matrix(0.03776775,0,0,0.01085997,-1.650341,17.380799)" />
    <linearGradient
       id="linearGradient7056-0">
      <stop
         id="stop7064-4"
         style="stop-color:#e6e6e6;stop-opacity:1"
         offset="0" />
      <stop
         id="stop7060-2"
         style="stop-color:#c8c8c8;stop-opacity:1"
         offset="1" />
    </linearGradient>
    <linearGradient
       id="linearGradient2215-9">
      <stop
         id="stop2223-6"
         style="stop-color:#7a7a7a;stop-opacity:1"
         offset="0" />
      <stop
         id="stop2219-1"
         style="stop-color:#474747;stop-opacity:1"
         offset="1" />
    </linearGradient>
    <radialGradient
       cx="7.2203388"
       cy="4.2332726"
       r="12"
       fx="7.2203388"
       fy="4.2332726"
       id="radialGradient4072"
       xlink:href="#linearGradient7056-0"
       gradientUnits="userSpaceOnUse"
       gradientTransform="matrix(1.5193809,0.00371571,-0.00302474,1.2368318,-3.737301,0.06783288)" />
    <linearGradient
       x1="23.99999"
       y1="51.346149"
       x2="23.99999"
       y2="53.354122"
       id="linearGradient4525"
       xlink:href="#linearGradient4472"
       gradientUnits="userSpaceOnUse"
       gradientTransform="matrix(0.42777307,0,0,0.51069006,6.7368356,-6.2528082)" />
    <linearGradient
       id="linearGradient4472">
      <stop
         id="stop4474"
         style="stop-color:#ffffff;stop-opacity:1"
         offset="0" />
      <stop
         id="stop4476"
         style="stop-color:#ffffff;stop-opacity:0.23529412"
         offset="0.02116842" />
      <stop
         id="stop4478"
         style="stop-color:#ffffff;stop-opacity:0.15686275"
         offset="0.99223143" />
      <stop
         id="stop4480"
         style="stop-color:#ffffff;stop-opacity:0.39215687"
         offset="1" />
    </linearGradient>
    <linearGradient
       x1="23.99999"
       y1="6.5391083"
       x2="23.99999"
       y2="42.102226"
       id="linearGradient4161-4"
       xlink:href="#linearGradient4075"
       gradientUnits="userSpaceOnUse"
       gradientTransform="matrix(0.26232885,0,0,0.42474288,8.0835877,-0.81629626)" />
  </defs>
  <rect
     width="18.236429"
     height="2.6374204"
     x="2.8817775"
     y="21.362579"
     id="rect2723"
     style="opacity:0.40206185;fill:url(#linearGradient2883);fill-opacity:1;fill-rule:nonzero;stroke:none;stroke-width:1;marker:none;visibility:visible;display:inline;overflow:visible" />
  <path
     d="m 21.109321,21.362672 c 0,0 0,2.637274 0,2.637274 1.142348,0.005 2.761647,-0.59088 2.761647,-1.318806 0,-0.727927 -1.274774,-1.318468 -2.761647,-1.318468 z"
     id="path2725"
     style="opacity:0.40206185;fill:url(#radialGradient2880);fill-opacity:1;fill-rule:nonzero;stroke:none;stroke-width:1;marker:none;visibility:visible;display:inline;overflow:visible" />
  <path
     d="m 2.890679,21.362672 c 0,0 0,2.637274 0,2.637274 -1.142353,0.005 -2.761647,-0.59088 -2.761647,-1.318806 0,-0.727927 1.274779,-1.318468 2.761647,-1.318468 z"
     id="path2727"
     style="opacity:0.40206185;fill:url(#radialGradient2877);fill-opacity:1;fill-rule:nonzero;stroke:none;stroke-width:1;marker:none;visibility:visible;display:inline;overflow:visible" />
  <path
     d="M 2.5,2 0.522616,18.483328 c -0.014949,0 -0.022616,0.0044 -0.022616,0.01667 l 23,0 c 0,-0.01232 -0.0077,-0.01667 -0.02261,-0.01667 L 21.5,2 C 21.40074,1.172599 20.333333,0.50000001 19.5,0.50000001 l -15,0 C 3.6666667,0.50000001 2.5992572,1.172599 2.5,2 z"
     id="rect2990"
     style="fill:url(#radialGradient4072);fill-opacity:1;fill-rule:nonzero;stroke:none;stroke-width:0.99999994;marker:none;visibility:visible;display:inline;overflow:visible;enable-background:accumulate" />
  <path
     d="M 2.5,2 0.522616,18.483328 c -0.014949,0 -0.022616,0.0044 -0.022616,0.01667 l 23,0 c 0,-0.01232 -0.0077,-0.01667 -0.02261,-0.01667 L 21.5,2 C 21.40074,1.172599 20.333333,0.49999997 19.5,0.49999997 l -15,0 C 3.6666667,0.49999997 2.5992572,1.172599 2.5,2 z"
     id="rect2990-5"
     style="opacity:0.35;color:#000000;fill:none;stroke:#000000;stroke-width:0.99999988;stroke-linecap:round;stroke-linejoin:round;stroke-miterlimit:4;stroke-opacity:1;stroke-dasharray:none;stroke-dashoffset:0;marker:none;visibility:visible;display:inline;overflow:visible;enable-background:accumulate" />
  <path
     d="m 23.5,18.5 c -0.466387,3.38005 -0.351379,3.981514 -1.195903,3.981514 -0.330786,0.04823 -13.33742,0 -20.654254,0 -0.917139,0 -0.685406,0.06576 -1.149843,-3.978565 l 23,-0.0029 0,-4.9e-5 z"
     id="rect2992"
     style="fill:url(#linearGradient2872);fill-opacity:1;fill-rule:nonzero;stroke:none;stroke-width:1;marker:none;visibility:visible;display:inline;overflow:visible;enable-background:accumulate" />
  <path
     d="m 23.5,18.5 c -0.466387,3.38005 -0.351379,3.981514 -1.195903,3.981514 -0.330786,0.04823 -13.33742,0 -20.654254,0 -0.917139,0 -0.685406,0.06576 -1.149843,-3.978565 l 23,-0.0029 0,-4.9e-5 z"
     id="rect2992-0"
     style="opacity:0.5;color:#000000;fill:none;stroke:#000000;stroke-width:1;stroke-linecap:butt;stroke-linejoin:round;stroke-miterlimit:4;stroke-opacity:1;stroke-dasharray:none;stroke-dashoffset:0;marker:none;visibility:visible;display:inline;overflow:visible;enable-background:accumulate" />
  <path
     d="m 1.8811692,21.468685 20.1351998,0.01866 c 0.0552,-0.198713 0.332357,-1.987316 0.332357,-1.987316 l -20.7291868,0 c 0,0 0.1806404,1.463168 0.26163,1.968656 z"
     id="path4497"
     style="opacity:0.2;color:#000000;fill:none;stroke:url(#linearGradient4525);stroke-width:1;stroke-linecap:round;stroke-linejoin:miter;stroke-miterlimit:4;stroke-opacity:1;stroke-dasharray:none;stroke-dashoffset:0;marker:none;visibility:visible;display:inline;overflow:visible;enable-background:accumulate" />
  <path
     d="M 4.5,1.46875 C 4.3477124,1.46875 4.0083027,1.5891821 3.78125,1.75 3.5541973,1.9108179 3.4725109,2.0936491 3.46875,2.125 L 1.625,17.53125 l 20.75,0 L 20.53125,2.125 C 20.527489,2.0936468 20.445803,1.910818 20.21875,1.75 19.991697,1.589182 19.652287,1.46875 19.5,1.46875 l -15,0 z"
     id="path4034"
     style="opacity:0.8;color:#000000;fill:none;stroke:url(#linearGradient4161-4);stroke-width:1;stroke-linecap:round;stroke-linejoin:round;stroke-miterlimit:4;stroke-opacity:1;stroke-dasharray:none;stroke-dashoffset:0;marker:none;visibility:visible;display:inline;overflow:visible;enable-background:accumulate" />
  <path
     id="path7206"
     style="fill:#000000;stroke-width:0.917526;fill-opacity:1;opacity:0.5"
     d="m 17.386782,3.002384 c -1.032437,0.7216276 -2.147573,1.3932577 -3.128649,2.2363493 a 0.17707247,0.19671171 0 0 0 -0.0272,0.030221 0.17707247,0.19671171 0 0 0 -0.0272,0.030221 0.17707247,0.19671171 0 0 0 0,0.060442 0.17707247,0.19671171 0 0 0 0,0.060442 0.17707247,0.19671171 0 0 0 0,0.030221 0.17707247,0.19671171 0 0 0 0.0272,0.060442 0.17707247,0.19671171 0 0 0 0.0272,0.030221 c 0.690148,0.6274153 1.459949,1.1620309 2.285115,1.5714884 a 0.17707247,0.19671171 0 0 0 0.05441,0 0.17707247,0.19671171 0 0 0 0.0272,0.030221 c 0.624642,-0.028321 1.116703,-0.5661518 1.55057,-0.7857444 0.57941,-0.4044383 1.242493,-0.7831719 1.7682,-1.3297212 a 0.17707247,0.19671171 0 0 0 0.02699,-0.030269 0.17707247,0.19671171 0 0 0 0.02786,-0.030173 0.17707247,0.19671171 0 0 0 0,-0.060442 0.17707247,0.19671171 0 0 0 0,-0.060442 0.17707247,0.19671171 0 0 0 0,-0.030221 0.17707247,0.19671171 0 0 0 -0.02786,-0.060539 0.17707247,0.19671171 0 0 0 -0.02699,-0.030173 C 19.202198,4.0537727 18.331686,3.5822391 17.549698,3.0325565 a 0.17707247,0.19671171 0 0 0 -0.0272,-0.030221 0.17707247,0.19671171 0 0 0 -0.05441,0 0.17707247,0.19671171 0 0 0 -0.05441,0 0.17707247,0.19671171 0 0 0 -0.0272,0 z M 6.8856991,3.092998 a 0.17707247,0.19671171 0 0 0 0,0.030221 C 5.9525017,3.7807298 4.9314688,4.347046 4.0565091,5.1480701 a 0.17707247,0.19671171 0 0 0 -0.02716,0.030269 0.17707247,0.19671171 0 0 0 -0.027247,0.060442 0.17707247,0.19671171 0 0 0 0,0.030221 0.17707247,0.19671171 0 0 0 0,0.060442 0.17707247,0.19671171 0 0 0 0,0.060442 0.17707247,0.19671171 0 0 0 0.027204,0.030221 c 0.2009073,0.3205837 0.48723,0.4797054 0.7889087,0.483535 0.2824576,0.00359 0.5682406,-0.1323242 0.7889088,-0.3626512 0.017423,-0.011495 0.036999,-0.018698 0.054407,-0.030221 C 6.4053899,5.0184345 7.1317518,4.4976673 7.8649908,3.9998197 a 0.17707247,0.19671171 0 0 0 0.02716,-0.030269 0.17707247,0.19671171 0 0 0 0.027247,-0.030269 0.17707247,0.19671171 0 0 0 0.027247,-0.030173 0.17707247,0.19671171 0 0 0 0,-0.060442 0.17707247,0.19671171 0 0 0 0,-0.060442 0.17707247,0.19671171 0 0 0 0,-0.030221 0.17707247,0.19671171 0 0 0 -0.027247,-0.060539 0.17707247,0.19671171 0 0 0 -0.027247,-0.030173 0.17707247,0.19671171 0 0 0 -0.02716,-0.030173 C 7.5939106,3.4521198 7.3175206,3.2731152 7.0488781,3.0930468 a 0.17707247,0.19671171 0 0 0 -0.027204,0 0.17707247,0.19671171 0 0 0 -0.054407,0 0.17707247,0.19671171 0 0 0 -0.054407,0 0.17707247,0.19671171 0 0 0 -0.027204,0 z m 2.067485,1.4204324 -2.8563502,1.93414 a 0.17707247,0.19671171 0 0 0 -0.027247,0.030173 0.17707247,0.19671171 0 0 0 -0.027247,0.030269 0.17707247,0.19671171 0 0 0 -0.02716,0.030269 0.17707247,0.19671171 0 0 0 0,0.060442 0.17707247,0.19671171 0 0 0 0,0.030221 0.17707247,0.19671171 0 0 0 0,0.060442 0.17707247,0.19671171 0 0 0 0.02716,0.060442 0.17707247,0.19671171 0 0 0 0.027247,0.030269 0.17707247,0.19671171 0 0 0 0.027247,0.030173 C 6.334277,6.9672838 6.5578961,7.2158402 6.9129464,7.3240263 a 0.17707247,0.19671171 0 0 0 0.054407,0 0.17707247,0.19671171 0 0 0 0.027204,0 0.17707247,0.19671171 0 0 0 0.054407,0 C 8.0446659,6.7342104 8.9807361,6.0575515 9.9324756,5.4201557 a 0.17707247,0.19671171 0 0 0 0.02716,-0.030269 0.17707247,0.19671171 0 0 0 0.027247,-0.030173 0.17707247,0.19671171 0 0 0 0.027247,-0.030173 0.17707247,0.19671171 0 0 0 0,-0.060442 0.17707247,0.19671171 0 0 0 0,-0.030221 0.17707247,0.19671171 0 0 0 0,-0.060442 0.17707247,0.19671171 0 0 0 -0.027247,-0.060539 0.17707247,0.19671171 0 0 0 -0.027247,-0.030173 0.17707247,0.19671171 0 0 0 -0.02716,-0.030269 C 9.6596546,4.87526 9.3809141,4.6966422 9.1163631,4.5134792 a 0.17707247,0.19671171 0 0 0 -0.027204,0 0.17707247,0.19671171 0 0 0 -0.054408,0 0.17707247,0.19671171 0 0 0 -0.054407,0 0.17707247,0.19671171 0 0 0 -0.027204,0 z m 2.8020299,1.7225455 a 0.17707247,0.19671171 0 0 0 -0.02699,0.030269 c -0.782089,0.097375 -1.589653,0.2498815 -2.2851112,0.7253028 a 0.17707247,0.19671171 0 0 0 -0.027683,0.030269 c -0.2660305,0.2576278 -0.5454674,0.6061598 -0.70721,0.9972429 -0.1618036,0.3911218 -0.2150446,0.8418925 0,1.2692794 0.3213089,0.6808173 0.8927182,1.133793 1.5234102,1.390163 0.630657,0.256332 1.322755,0.337991 1.95867,0.302209 a 0.17707247,0.19671171 0 0 0 0,-0.03022 c 1.109042,-0.07896 2.423789,-0.493408 2.965165,-1.692372 C 15.373966,8.7372541 15.286043,8.187765 15.04665,7.7473613 14.807257,7.3068609 14.434674,6.9501088 14.012472,6.750022 13.316927,6.375089 12.515178,6.227224 11.755214,6.2362177 Z m 0.108815,1.2390101 c 0.369779,-0.014033 0.795237,0.020462 1.142557,0.1813256 0.339077,0.1570425 0.616807,0.4144862 0.707298,0.7857444 0.0022,0.00902 -0.002,0.021036 0,0.030221 0.04364,0.3435903 -0.107292,0.6234603 -0.353649,0.8461862 -0.254174,0.2297952 -0.629551,0.3927755 -0.952175,0.4230931 -0.4009,0.047916 -0.847407,0.024317 -1.251372,-0.090663 C 10.764954,9.5396805 10.42284,9.3205424 10.203904,8.9861296 10.057918,8.7256009 10.085861,8.4695208 10.231151,8.2306545 10.376432,7.9917592 10.63495,7.7864793 10.884041,7.6866776 a 0.17707247,0.19671171 0 0 0 0.0272,0 c 0.3012,-0.1439967 0.611975,-0.1968954 0.952349,-0.2115949 z m 2.067485,4.291373 c -1.306128,0.01885 -2.611908,0.04161 -3.91734,0.06044 a 0.17707247,0.19671171 0 0 0 -0.027204,0.03022 0.17707247,0.19671171 0 0 0 -0.054407,0 0.17707247,0.19671171 0 0 0 -0.027334,0.02998 0.17707247,0.19671171 0 0 0 -0.027247,0.02998 0.17707247,0.19671171 0 0 0 -0.027247,0.02998 0.17707247,0.19671171 0 0 0 0,0.03022 0.17707247,0.19671171 0 0 0 0,0.03022 L 9.74192,12.732704 a 0.17707247,0.19671171 0 0 0 0,0.03022 0.17707247,0.19671171 0 0 0 0,0.06044 0.17707247,0.19671171 0 0 0 0,0.03022 0.17707247,0.19671171 0 0 0 0.027204,0.03022 0.17707247,0.19671171 0 0 0 0.027204,0.03022 0.17707247,0.19671171 0 0 0 0.027204,0.03022 0.17707247,0.19671171 0 0 0 0.027204,0 0.17707247,0.19671171 0 0 0 0.054407,0.03022 h 4.026155 a 0.17707247,0.19671171 0 0 0 0.0272,-0.03022 0.17707247,0.19671171 0 0 0 0.05441,0 0.17707247,0.19671171 0 0 0 0.0272,-0.03022 0.17707247,0.19671171 0 0 0 0.0272,-0.03022 0.17707247,0.19671171 0 0 0 0.0272,-0.06044 0.17707247,0.19671171 0 0 0 0.0272,-0.06044 V 11.97718 a 0.17707247,0.19671171 0 0 0 -0.02786,-0.02901 0.17707247,0.19671171 0 0 0 0,-0.05996 0.17707247,0.19671171 0 0 0 -0.02699,-0.02998 0.17707247,0.19671171 0 0 0 -0.02699,-0.02998 0.17707247,0.19671171 0 0 0 -0.05484,-0.03095 0.17707247,0.19671171 0 0 0 -0.05397,-0.02998 z m -3.999169,2.114982 a 0.17707247,0.19671171 0 0 0 -0.027204,0.03022 0.17707247,0.19671171 0 0 0 -0.054407,0 0.17707247,0.19671171 0 0 0 -0.02716,0.03095 0.17707247,0.19671171 0 0 0 -0.027204,0.03022 0.17707247,0.19671171 0 0 0 -0.027204,0.06044 0.17707247,0.19671171 0 0 0 0,0.06044 0.17707247,0.19671171 0 0 0 0,0.03022 c 0.00814,0.07106 -0.019337,0.197244 -0.027204,0.33243 -0.00787,0.135187 -0.032941,0.26958 0.054408,0.423093 a 0.17707247,0.19671171 0 0 0 0.054407,0.06044 0.17707247,0.19671171 0 0 0 0.027204,0.03022 0.17707247,0.19671171 0 0 0 0.054407,0 0.17707247,0.19671171 0 0 0 0.027204,0.03022 h 3.971748 a 0.17707247,0.19671171 0 0 0 0.02699,-0.02901 0.17707247,0.19671171 0 0 0 0.05441,0 0.17707247,0.19671171 0 0 0 0.0272,-0.03022 0.17707247,0.19671171 0 0 0 0.0272,-0.03022 0.17707247,0.19671171 0 0 0 0.0272,-0.06044 0.17707247,0.19671171 0 0 0 0,-0.06044 0.17707247,0.19671171 0 0 0 0,-0.03022 c -0.0091,-0.0798 -6.18e-4,-0.196683 0,-0.33243 6.17e-4,-0.135747 0.02854,-0.277317 -0.05441,-0.423093 a 0.17707247,0.19671171 0 0 0 -0.05484,-0.06092 0.17707247,0.19671171 0 0 0 -0.02699,-0.02998 0.17707247,0.19671171 0 0 0 -0.05441,0 0.17707247,0.19671171 0 0 0 -0.0272,-0.03022 H 9.9319968 Z" />
</svg>
