<?xml version="1.0" encoding="UTF-8" standalone="no"?>
<svg
   version="1.0"
   width="24"
   height="24"
   id="svg2"
   sodipodi:docname="drive-harddisk-usb.svg"
   inkscape:version="1.1.1 (3bf5ae0d25, 2021-09-20)"
   xmlns:inkscape="http://www.inkscape.org/namespaces/inkscape"
   xmlns:sodipodi="http://sodipodi.sourceforge.net/DTD/sodipodi-0.dtd"
   xmlns:xlink="http://www.w3.org/1999/xlink"
   xmlns="http://www.w3.org/2000/svg"
   xmlns:svg="http://www.w3.org/2000/svg"
   xmlns:rdf="http://www.w3.org/1999/02/22-rdf-syntax-ns#"
   xmlns:cc="http://creativecommons.org/ns#"
   xmlns:dc="http://purl.org/dc/elements/1.1/">
  <sodipodi:namedview
     id="namedview52"
     pagecolor="#ffffff"
     bordercolor="#666666"
     borderopacity="1.0"
     inkscape:pageshadow="2"
     inkscape:pageopacity="0.0"
     inkscape:pagecheckerboard="0"
     showgrid="false"
     inkscape:zoom="45.254834"
     inkscape:cx="9.4023105"
     inkscape:cy="10.186757"
     inkscape:window-width="1317"
     inkscape:window-height="890"
     inkscape:window-x="601"
     inkscape:window-y="27"
     inkscape:window-maximized="0"
     inkscape:current-layer="svg2" />
  <metadata
     id="metadata88">
    <rdf:RDF>
      <cc:Work
         rdf:about="">
        <dc:format>image/svg+xml</dc:format>
        <dc:type
           rdf:resource="http://purl.org/dc/dcmitype/StillImage" />
      </cc:Work>
    </rdf:RDF>
  </metadata>
  <defs
     id="defs4">
    <linearGradient
       id="linearGradient4075">
      <stop
         id="stop4077"
         style="stop-color:#ffffff;stop-opacity:1"
         offset="0" />
      <stop
         id="stop4079"
         style="stop-color:#ffffff;stop-opacity:0.23529412"
         offset="0.03367912" />
      <stop
         id="stop4081"
         style="stop-color:#ffffff;stop-opacity:0.15686275"
         offset="0.99223143" />
      <stop
         id="stop4083"
         style="stop-color:#ffffff;stop-opacity:0.39215687"
         offset="1" />
    </linearGradient>
    <linearGradient
       id="linearGradient5048">
      <stop
         id="stop5050"
         style="stop-color:#000000;stop-opacity:0"
         offset="0" />
      <stop
         id="stop5056"
         style="stop-color:#000000;stop-opacity:1"
         offset="0.5" />
      <stop
         id="stop5052"
         style="stop-color:#000000;stop-opacity:0"
         offset="1" />
    </linearGradient>
    <linearGradient
       id="linearGradient5060">
      <stop
         id="stop5062"
         style="stop-color:#000000;stop-opacity:1"
         offset="0" />
      <stop
         id="stop5064"
         style="stop-color:#000000;stop-opacity:0"
         offset="1" />
    </linearGradient>
    <linearGradient
       x1="53.99139"
       y1="87.89592"
       x2="53.99139"
       y2="104.28131"
       id="linearGradient2872"
       xlink:href="#linearGradient2215-9"
       gradientUnits="userSpaceOnUse"
       gradientTransform="matrix(0.1904597,0,0,0.2485308,0.090799,-3.484712)" />
    <radialGradient
       cx="605.71429"
       cy="486.64789"
       r="117.14286"
       fx="605.71429"
       fy="486.64789"
       id="radialGradient2877"
       xlink:href="#linearGradient5060"
       gradientUnits="userSpaceOnUse"
       gradientTransform="matrix(-0.02218262,0,0,0.01085997,16.259269,17.380799)" />
    <radialGradient
       cx="605.71429"
       cy="486.64789"
       r="117.14286"
       fx="605.71429"
       fy="486.64789"
       id="radialGradient2880"
       xlink:href="#linearGradient5060"
       gradientUnits="userSpaceOnUse"
       gradientTransform="matrix(0.02218262,0,0,0.01085997,7.7407365,17.380799)" />
    <linearGradient
       x1="302.85715"
       y1="366.64789"
       x2="302.85715"
       y2="609.50507"
       id="linearGradient2883"
       xlink:href="#linearGradient5048"
       gradientUnits="userSpaceOnUse"
       gradientTransform="matrix(0.03776775,0,0,0.01085997,-1.650341,17.380799)" />
    <linearGradient
       id="linearGradient7056-0">
      <stop
         id="stop7064-4"
         style="stop-color:#e6e6e6;stop-opacity:1"
         offset="0" />
      <stop
         id="stop7060-2"
         style="stop-color:#c8c8c8;stop-opacity:1"
         offset="1" />
    </linearGradient>
    <linearGradient
       id="linearGradient2215-9">
      <stop
         id="stop2223-6"
         style="stop-color:#7a7a7a;stop-opacity:1"
         offset="0" />
      <stop
         id="stop2219-1"
         style="stop-color:#474747;stop-opacity:1"
         offset="1" />
    </linearGradient>
    <radialGradient
       cx="7.2203388"
       cy="4.2332726"
       r="12"
       fx="7.2203388"
       fy="4.2332726"
       id="radialGradient4072"
       xlink:href="#linearGradient7056-0"
       gradientUnits="userSpaceOnUse"
       gradientTransform="matrix(1.5193809,0.00371571,-0.00302474,1.2368318,-3.737301,0.06783288)" />
    <linearGradient
       x1="23.99999"
       y1="51.346149"
       x2="23.99999"
       y2="53.354122"
       id="linearGradient4525"
       xlink:href="#linearGradient4472"
       gradientUnits="userSpaceOnUse"
       gradientTransform="matrix(0.42777307,0,0,0.51069006,6.7368356,-6.2528082)" />
    <linearGradient
       id="linearGradient4472">
      <stop
         id="stop4474"
         style="stop-color:#ffffff;stop-opacity:1"
         offset="0" />
      <stop
         id="stop4476"
         style="stop-color:#ffffff;stop-opacity:0.23529412"
         offset="0.02116842" />
      <stop
         id="stop4478"
         style="stop-color:#ffffff;stop-opacity:0.15686275"
         offset="0.99223143" />
      <stop
         id="stop4480"
         style="stop-color:#ffffff;stop-opacity:0.39215687"
         offset="1" />
    </linearGradient>
    <linearGradient
       x1="23.99999"
       y1="6.5391083"
       x2="23.99999"
       y2="42.102226"
       id="linearGradient4161-4"
       xlink:href="#linearGradient4075"
       gradientUnits="userSpaceOnUse"
       gradientTransform="matrix(0.26232885,0,0,0.42474288,8.0835877,-0.81629626)" />
  </defs>
  <rect
     width="18.236429"
     height="2.6374204"
     x="2.8817775"
     y="21.362579"
     id="rect2723"
     style="opacity:0.40206185;fill:url(#linearGradient2883);fill-opacity:1;fill-rule:nonzero;stroke:none;stroke-width:1;marker:none;visibility:visible;display:inline;overflow:visible" />
  <path
     d="m 21.109321,21.362672 c 0,0 0,2.637274 0,2.637274 1.142348,0.005 2.761647,-0.59088 2.761647,-1.318806 0,-0.727927 -1.274774,-1.318468 -2.761647,-1.318468 z"
     id="path2725"
     style="opacity:0.40206185;fill:url(#radialGradient2880);fill-opacity:1;fill-rule:nonzero;stroke:none;stroke-width:1;marker:none;visibility:visible;display:inline;overflow:visible" />
  <path
     d="m 2.890679,21.362672 c 0,0 0,2.637274 0,2.637274 -1.142353,0.005 -2.761647,-0.59088 -2.761647,-1.318806 0,-0.727927 1.274779,-1.318468 2.761647,-1.318468 z"
     id="path2727"
     style="opacity:0.40206185;fill:url(#radialGradient2877);fill-opacity:1;fill-rule:nonzero;stroke:none;stroke-width:1;marker:none;visibility:visible;display:inline;overflow:visible" />
  <path
     d="M 2.5,2 0.522616,18.483328 c -0.014949,0 -0.022616,0.0044 -0.022616,0.01667 l 23,0 c 0,-0.01232 -0.0077,-0.01667 -0.02261,-0.01667 L 21.5,2 C 21.40074,1.172599 20.333333,0.50000001 19.5,0.50000001 l -15,0 C 3.6666667,0.50000001 2.5992572,1.172599 2.5,2 z"
     id="rect2990"
     style="fill:url(#radialGradient4072);fill-opacity:1;fill-rule:nonzero;stroke:none;stroke-width:0.99999994;marker:none;visibility:visible;display:inline;overflow:visible;enable-background:accumulate" />
  <path
     d="M 2.5,2 0.522616,18.483328 c -0.014949,0 -0.022616,0.0044 -0.022616,0.01667 l 23,0 c 0,-0.01232 -0.0077,-0.01667 -0.02261,-0.01667 L 21.5,2 C 21.40074,1.172599 20.333333,0.49999997 19.5,0.49999997 l -15,0 C 3.6666667,0.49999997 2.5992572,1.172599 2.5,2 z"
     id="rect2990-5"
     style="opacity:0.35;color:#000000;fill:none;stroke:#000000;stroke-width:0.99999988;stroke-linecap:round;stroke-linejoin:round;stroke-miterlimit:4;stroke-opacity:1;stroke-dasharray:none;stroke-dashoffset:0;marker:none;visibility:visible;display:inline;overflow:visible;enable-background:accumulate" />
  <path
     d="m 23.5,18.5 c -0.466387,3.38005 -0.351379,3.981514 -1.195903,3.981514 -0.330786,0.04823 -13.33742,0 -20.654254,0 -0.917139,0 -0.685406,0.06576 -1.149843,-3.978565 l 23,-0.0029 0,-4.9e-5 z"
     id="rect2992"
     style="fill:url(#linearGradient2872);fill-opacity:1;fill-rule:nonzero;stroke:none;stroke-width:1;marker:none;visibility:visible;display:inline;overflow:visible;enable-background:accumulate" />
  <path
     d="m 23.5,18.5 c -0.466387,3.38005 -0.351379,3.981514 -1.195903,3.981514 -0.330786,0.04823 -13.33742,0 -20.654254,0 -0.917139,0 -0.685406,0.06576 -1.149843,-3.978565 l 23,-0.0029 0,-4.9e-5 z"
     id="rect2992-0"
     style="opacity:0.5;color:#000000;fill:none;stroke:#000000;stroke-width:1;stroke-linecap:butt;stroke-linejoin:round;stroke-miterlimit:4;stroke-opacity:1;stroke-dasharray:none;stroke-dashoffset:0;marker:none;visibility:visible;display:inline;overflow:visible;enable-background:accumulate" />
  <path
     d="m 1.8811692,21.468685 20.1351998,0.01866 c 0.0552,-0.198713 0.332357,-1.987316 0.332357,-1.987316 l -20.7291868,0 c 0,0 0.1806404,1.463168 0.26163,1.968656 z"
     id="path4497"
     style="opacity:0.2;color:#000000;fill:none;stroke:url(#linearGradient4525);stroke-width:1;stroke-linecap:round;stroke-linejoin:miter;stroke-miterlimit:4;stroke-opacity:1;stroke-dasharray:none;stroke-dashoffset:0;marker:none;visibility:visible;display:inline;overflow:visible;enable-background:accumulate" />
  <path
     d="M 4.5,1.46875 C 4.3477124,1.46875 4.0083027,1.5891821 3.78125,1.75 3.5541973,1.9108179 3.4725109,2.0936491 3.46875,2.125 L 1.625,17.53125 l 20.75,0 L 20.53125,2.125 C 20.527489,2.0936468 20.445803,1.910818 20.21875,1.75 19.991697,1.589182 19.652287,1.46875 19.5,1.46875 l -15,0 z"
     id="path4034"
     style="opacity:0.8;color:#000000;fill:none;stroke:url(#linearGradient4161-4);stroke-width:1;stroke-linecap:round;stroke-linejoin:round;stroke-miterlimit:4;stroke-opacity:1;stroke-dasharray:none;stroke-dashoffset:0;marker:none;visibility:visible;display:inline;overflow:visible;enable-background:accumulate" />
  <path
     id="path887"
     style="opacity:0.7;fill:#ffffff;fill-opacity:1"
     d="m 11.861282,4.000049 c -0.84144,0.37567 -1.7001,0.753 -2.4329003,1.317 -0.12982,0.24002 0.37806,0.21124 0.5894403,0.23991 0.25283,0.08665 0.65364,-0.11534 0.85899,0.045885 -0.0012,1.6431 0.11701,3.3024 -0.01379,4.9368 -0.438,0.0529 -0.420799,-0.0204 -0.8694991,0.0138 -0.9019,0.032 -1.9078,-0.2806 -2.3397,-1.1343 -0.1674,-0.2515 -0.2715,-0.5257 0.0462,-0.581 0.7627,0.1233 1.0876,-1.1164 0.1951,-1.1322 -1.014,-0.2371 -2.1417,-0.3008 -3.1094,0.102 -0.7915997,0.5474 0.2502,1.1252 0.829,1.1656 0.41379,0.073285 0.43453,0.73005 0.78593,0.93768 0.6019,0.70559 1.4282,1.2305 2.3259,1.4699 0.86562,0.16392 1.2668988,0.08765 2.1339991,0.13519 0.05584,0.64838 -0.0096,0.833656 0.01083,1.492456 -0.06052,0.17304 0.15584,0.56939 -0.15221,0.56733 -0.46925,0.16364 -0.9720703,0.39424 -1.2913003,0.76543 -0.23632,0.58518 0.4444102,0.97494 0.9656503,1.139127 0.368984,0.116228 1.162647,0.175711 1.661619,0.174159 0.573879,-0.0018 1.146198,0.01904 1.685383,-0.187261 0.211443,-0.0809 0.768709,-0.359392 0.919486,-0.662159 0.13386,-0.464451 -0.260729,-0.699964 -0.672518,-0.964846 -0.21916,-0.23743 -0.72123,-0.17174 -0.89497,-0.38706 0.0043,-1.2779 -0.0083,-2.061756 0.006,-3.336356 0.35117,-0.09666 0.282419,-0.02662 0.651489,-0.10061 1.3884,-0.13163 2.8382,-0.49628 3.9205,-1.4117 0.37992,-0.34555 0.60185,-0.83425 0.77083,-1.2956 0.3291,-0.024654 0.65807,-0.094165 0.98781,-0.12406 0.10279,-0.12502 0.04977,-0.3352 0.06159,-0.52179 -0.04113,-0.16296 0.09379,-0.50086 -0.09228,-0.51952 -0.16177,-0.072554 -0.45987,-0.00947 -0.67328,-0.030644 h -2.7144 c -0.08397,0.11005 -0.06016,0.32926 -0.06159,0.52179 0.03907,0.15487 -0.09087,0.47755 0.09239,0.48891 0.15695,0.079955 0.44882,0.055637 0.65692,0.090856 0.19128,-0.00129 0.0071,0.31671 -0.0079,0.37909 -0.34611,0.76824 -1.1315,1.2485 -1.9422,1.3523 -0.69523,0.16876 -0.930389,0.31052 -1.641189,0.24769 -0.04105,-0.42574 -8.5e-5,-0.88147 -0.01475,-1.317 0.0047,-0.76332 -0.0088,-1.5329 0.006,-2.2926 0.35548,-0.095043 0.79415,0.043376 1.1663,-0.056416 0.18956,0.037716 0.31354,-0.13391 0.2033,-0.24053 -0.41,-0.1483 -0.793,-0.4027 -1.193,-0.5895 -0.433,-0.233 -0.93,-0.4609 -1.323,-0.6978 h -0.09239 l 5.2e-5,4e-7 z"
     sodipodi:nodetypes="cccccccccccccccccsssccccccccccccccccccccccccccc" />
  <path
     id="path7206"
     style="opacity:0.55;fill:#000000;fill-opacity:1"
     d="m 11.949219,2.2011719 c -0.04111,0 -0.08222,0.011827 -0.117188,0.037109 l -2.5488279,2 C 9.1277329,4.3522644 9.2076159,4.5985704 9.4003906,4.5996094 H 11 v 4.4394569 c -0.463095,0 -0.329943,0.017212 -1.0061682,0.013672 -1.365885,-0.00715 -1.9079437,0.2208875 -2.3398437,-0.6328125 -0.1674,-0.2515 -0.270825,-0.5267313 0.046875,-0.5820313 l -0.025391,0.00195 c 0.4959298,-0.1891176 0.875388,-0.6055189 0.8755148,-0.9173622 0,-0.5522847 -0.9838256,-0.9970268 -2.0883951,-0.9970268 -1.1045695,0 -2.0684236,0.5234201 -2.0684236,1.0757048 2.614e-4,0.3973481 0.5394269,0.8006828 1.2676424,0.9597772 l -0.046875,0.00195 c 0.41379,0.073285 0.4337562,0.7415888 0.7851562,0.9492188 0.6019,0.70559 1.4284719,1.2293497 2.3261719,1.4687497 0.86562,0.16392 1.4066363,0.08723 2.2737363,0.134766 v 1.794922 c 0.0039,0.288775 -0.157282,0.484359 -0.306966,0.602986 -0.8088505,0.243152 -1.3149762,0.695033 -1.318031,1.188036 0,0.759392 1.175253,1.118113 2.625,1.118113 1.449747,0 2.625,-0.358721 2.625,-1.118113 C 14.625199,13.615853 14.13928,13.17732 13.380284,12.93156 13.256864,12.88975 13.096161,12.84513 13,12.751957 V 9.6171915 c 0.369217,0 0.380963,-0.025618 0.750033,-0.099609 1.3884,-0.13163 3.030981,-0.9966896 4.113281,-1.9121093 0.37992,-0.3455501 0.409145,-0.6128689 0.578125,-1.0742188 h 0.857422 c 0.111272,4.1e-6 0.201128,-0.088423 0.201128,-0.1992232 V 5.1816406 c 0,-0.1108 -0.0897,-0.1992187 -0.201172,-0.1992187 h -3.097656 c -0.111468,0 -0.201172,0.088419 -0.201172,0.1992187 v 1.1503906 c 0,0.1108001 0.0897,0.1992188 0.201172,0.1992188 h 0.498047 c -0.0038,0.9570922 -1.23885,1.1539609 -1.951172,1.4140625 C 14.052806,8.1140725 13.7108,8.2561894 13,8.1933594 v -3.59375 h 1.5 c 0.108436,-5.85e-4 0.182065,-0.079379 0.197266,-0.1679688 v -0.00195 c 0.02097,-0.046233 0.01536,-0.099383 -0.0293,-0.1425781 -0.0019,-6.823e-4 -0.004,-0.00126 -0.0059,-0.00195 -0.01207,-0.016781 -0.02632,-0.033236 -0.04492,-0.046875 l -2.550782,-2 c -0.03497,-0.025282 -0.07608,-0.037109 -0.117187,-0.037109 z"
     sodipodi:nodetypes="scccccsccccscccccccccsccccccccssssssscccccccccccss" />
  <rect
     style="opacity:1;fill:#39c0ff;fill-opacity:1;stroke-width:0.4;stroke-linecap:round;stroke-linejoin:round"
     id="rect884"
     width="20"
     height="1"
     x="2"
     y="21" />
  <rect
     style="opacity:1;fill:#1f1f1f;fill-opacity:1;stroke-width:0.4;stroke-linecap:round;stroke-linejoin:round"
     id="rect863"
     width="20"
     height="1"
     x="2"
     y="19.039404" />
  <rect
     style="opacity:1;fill:#39c0ff;fill-opacity:1;stroke-width:0.4;stroke-linecap:round;stroke-linejoin:round"
     id="rect2697"
     width="20"
     height="1"
     x="2"
     y="20.039404" />
</svg>
