<?xml version="1.0" encoding="UTF-8" standalone="no"?>
<svg
   version="1.1"
   id="svg4220"
   viewBox="0 0 24 24"
   height="24"
   width="24"
   sodipodi:docname="input-keyboard.svg"
   inkscape:version="1.2.2 (b0a8486541, 2022-12-01)"
   xmlns:inkscape="http://www.inkscape.org/namespaces/inkscape"
   xmlns:sodipodi="http://sodipodi.sourceforge.net/DTD/sodipodi-0.dtd"
   xmlns:xlink="http://www.w3.org/1999/xlink"
   xmlns="http://www.w3.org/2000/svg"
   xmlns:svg="http://www.w3.org/2000/svg"
   xmlns:rdf="http://www.w3.org/1999/02/22-rdf-syntax-ns#"
   xmlns:cc="http://creativecommons.org/ns#"
   xmlns:dc="http://purl.org/dc/elements/1.1/">
  <sodipodi:namedview
     id="namedview104"
     pagecolor="#ffffff"
     bordercolor="#666666"
     borderopacity="1.0"
     inkscape:pageshadow="2"
     inkscape:pageopacity="0.0"
     inkscape:pagecheckerboard="0"
     showgrid="false"
     inkscape:zoom="16"
     inkscape:cx="6.96875"
     inkscape:cy="9.28125"
     inkscape:window-width="1326"
     inkscape:window-height="833"
     inkscape:window-x="162"
     inkscape:window-y="37"
     inkscape:window-maximized="0"
     inkscape:current-layer="svg4220"
     inkscape:showpageshadow="2"
     inkscape:deskcolor="#d1d1d1" />
  <defs
     id="defs4222">
    <linearGradient
       inkscape:collect="always"
       id="linearGradient23267">
      <stop
         style="stop-color:#d4d4d4;stop-opacity:1;"
         offset="0"
         id="stop23263" />
      <stop
         style="stop-color:#abacae;stop-opacity:1;"
         offset="1"
         id="stop23265" />
    </linearGradient>
    <linearGradient
       y2="42.437775"
       x2="40.290417"
       y1="5.524776"
       x1="40.290417"
       gradientTransform="matrix(0.51351348,0,0,0.29729737,-0.3243253,4.8648938)"
       gradientUnits="userSpaceOnUse"
       id="linearGradient4088"
       xlink:href="#linearGradient3462" />
    <linearGradient
       id="linearGradient3462">
      <stop
         offset="0"
         style="stop-color:#ffffff;stop-opacity:1"
         id="stop3464" />
      <stop
         offset="0.05191984"
         style="stop-color:#ffffff;stop-opacity:0.23529412"
         id="stop3466" />
      <stop
         offset="0.95064181"
         style="stop-color:#ffffff;stop-opacity:0.15686275"
         id="stop3468" />
      <stop
         offset="1"
         style="stop-color:#ffffff;stop-opacity:0.39215687"
         id="stop3470" />
    </linearGradient>
    <linearGradient
       x1="302.85715"
       y1="366.64789"
       x2="302.85715"
       y2="609.50507"
       id="linearGradient19619"
       xlink:href="#linearGradient5048"
       gradientUnits="userSpaceOnUse"
       gradientTransform="matrix(0.08449704,0,0,0.01235294,-6.5396456,38.470822)" />
    <linearGradient
       id="linearGradient5048">
      <stop
         id="stop5050"
         style="stop-color:#000000;stop-opacity:0"
         offset="0" />
      <stop
         id="stop5056"
         style="stop-color:#000000;stop-opacity:1"
         offset="0.5" />
      <stop
         id="stop5052"
         style="stop-color:#000000;stop-opacity:0"
         offset="1" />
    </linearGradient>
    <radialGradient
       cx="605.71429"
       cy="486.64789"
       r="117.14286"
       fx="605.71429"
       fy="486.64789"
       id="radialGradient19616"
       xlink:href="#linearGradient5060"
       gradientUnits="userSpaceOnUse"
       gradientTransform="matrix(-0.0289166,0,0,0.01235294,21.026894,38.470848)" />
    <linearGradient
       id="linearGradient5060">
      <stop
         id="stop5062"
         style="stop-color:#000000;stop-opacity:1"
         offset="0" />
      <stop
         id="stop5064"
         style="stop-color:#000000;stop-opacity:0"
         offset="1" />
    </linearGradient>
    <radialGradient
       cx="605.71429"
       cy="486.64789"
       r="117.14286"
       fx="605.71429"
       fy="486.64789"
       id="radialGradient19613"
       xlink:href="#linearGradient5060"
       gradientUnits="userSpaceOnUse"
       gradientTransform="matrix(0.02891661,0,0,0.01235294,26.973101,38.470848)" />
    <linearGradient
       inkscape:collect="always"
       xlink:href="#linearGradient23267"
       id="linearGradient23269"
       x1="13.42141"
       y1="6.3185363"
       x2="13.42141"
       y2="19.970047"
       gradientUnits="userSpaceOnUse" />
  </defs>
  <metadata
     id="metadata4225">
    <rdf:RDF>
      <cc:Work
         rdf:about="">
        <dc:format>image/svg+xml</dc:format>
        <dc:type
           rdf:resource="http://purl.org/dc/dcmitype/StillImage" />
      </cc:Work>
    </rdf:RDF>
  </metadata>
  <g
     transform="matrix(0.5,0,0,0.66666666,0,-10.666649)"
     id="g3257"
     style="opacity:0.4">
    <rect
       width="40.799999"
       height="2.9999998"
       x="3.5999999"
       y="43"
       id="rect2879"
       style="display:inline;overflow:visible;visibility:visible;fill:url(#linearGradient19619);fill-opacity:1;fill-rule:nonzero;stroke:none;stroke-width:1;marker:none" />
    <path
       d="m 3.6,43.00013 c 0,0 0,2.999835 0,2.999835 C 2.1108662,46.005612 0,45.327854 0,44.499854 0,43.671856 1.6617608,43.000131 3.6,43.00013 Z"
       id="path2881"
       style="display:inline;overflow:visible;visibility:visible;fill:url(#radialGradient19616);fill-opacity:1;fill-rule:nonzero;stroke:none;stroke-width:1;marker:none" />
    <path
       d="m 44.4,43.00013 c 0,0 0,2.999835 0,2.999835 1.489133,0.0056 3.6,-0.672111 3.6,-1.500111 0,-0.827998 -1.661761,-1.499723 -3.6,-1.499724 z"
       id="path2883"
       style="display:inline;overflow:visible;visibility:visible;fill:url(#radialGradient19613);fill-opacity:1;fill-rule:nonzero;stroke:none;stroke-width:1;marker:none" />
  </g>
  <rect
     width="21"
     height="13"
     rx="1"
     ry="1"
     x="1.5"
     y="5.5000162"
     id="rect5505-21-3-8-5-2"
     style="color:#000000;display:inline;overflow:visible;visibility:visible;opacity:1;fill:url(#linearGradient23269);fill-opacity:1;fill-rule:nonzero;stroke:none;stroke-width:1;marker:none;enable-background:accumulate" />
  <rect
     width="19"
     height="11.000003"
     x="2.5"
     y="6.5000172"
     id="rect6741-5-0-2-3"
     style="opacity:0.6;fill:none;stroke:url(#linearGradient4088);stroke-width:0.999995;stroke-linecap:round;stroke-linejoin:round;stroke-miterlimit:4;stroke-dasharray:none;stroke-dashoffset:0;stroke-opacity:1" />
  <rect
     width="21"
     height="13.000002"
     rx="1"
     ry="1"
     x="1.5"
     y="5.499999"
     id="rect5505-21-3-8-9-1-1"
     style="color:#000000;clip-rule:nonzero;display:inline;overflow:visible;visibility:visible;opacity:0.3;isolation:auto;mix-blend-mode:normal;color-interpolation:sRGB;color-interpolation-filters:linearRGB;solid-color:#000000;solid-opacity:1;fill:none;fill-opacity:1;fill-rule:nonzero;stroke:#000000;stroke-width:1;stroke-linecap:butt;stroke-linejoin:miter;stroke-miterlimit:4;stroke-dasharray:none;stroke-dashoffset:0;stroke-opacity:1;marker:none;color-rendering:auto;image-rendering:auto;shape-rendering:auto;text-rendering:auto;enable-background:accumulate" />
  <path
     style="color:#000000;clip-rule:nonzero;display:inline;overflow:visible;visibility:visible;opacity:0.07;isolation:auto;mix-blend-mode:normal;color-interpolation:sRGB;color-interpolation-filters:linearRGB;solid-color:#000000;solid-opacity:1;fill:#000000;fill-opacity:1;fill-rule:nonzero;stroke:none;stroke-width:1;stroke-linecap:butt;stroke-linejoin:miter;stroke-miterlimit:4;stroke-dasharray:none;stroke-dashoffset:0;stroke-opacity:1;marker:none;color-rendering:auto;image-rendering:auto;shape-rendering:auto;text-rendering:auto;enable-background:accumulate"
     d="M 2.7108299,7 C 2.3249869,7 2,7.3128876 2,7.684365 2.1280726,9.2969195 2,8.3658898 2,10.041551 2,10.218303 2.081242,10.377259 2.2000372,10.500184 2.0812418,10.623107 2,10.782061 2,10.958815 v 2.082736 c 0,0.176752 0.081242,0.335708 0.2000372,0.458632 C 2.0812418,13.623106 2,13.782062 2,13.958814 v 2.356521 C 2,16.686813 2.3249869,16.9997 2.7108299,16.9997 h 2.3128024 c 0.1835882,0 0.3486904,-0.07822 0.4763677,-0.19259 0.1276772,0.114372 0.2927794,0.19259 0.4763677,0.19259 H 18.023631 c 0.18359,0 0.348691,-0.07822 0.476369,-0.19259 0.127676,0.114372 0.292778,0.19259 0.476368,0.19259 H 21.28917 C 21.675013,16.9997 22,16.686813 22,16.315335 V 13.958816 C 22,13.782062 21.91876,13.623106 21.799963,13.500183 21.918758,13.37726 22,13.218304 22,13.041551 V 10.958815 C 22,10.782061 21.918764,10.623107 21.799963,10.500184 21.918758,10.377259 22,10.218303 22,10.041551 21.858322,8.3598595 22,9.2640325 22,7.684365 22,7.3128876 21.675013,7 21.28917,7 H 19.3837 C 19.20011,7 19.035009,7.078217 18.907332,7.1925894 18.779654,7.0782174 18.614552,7 18.430963,7 H 17.00186 C 16.818272,7 16.653169,7.078217 16.525492,7.1925894 16.397816,7.0782174 16.232713,7 16.049126,7 H 14.620023 C 14.436434,7 14.271332,7.078217 14.143655,7.1925894 14.015978,7.0782174 13.850876,7 13.667286,7 H 12.238184 C 12.054596,7 11.889494,7.078217 11.761817,7.1925894 11.63414,7.0782174 11.469037,7 11.285448,7 H 9.8563455 C 9.6727564,7 9.5076545,7.078217 9.3799773,7.1925894 9.2523005,7.0782174 9.0871985,7 8.9036099,7 H 7.4745068 C 7.2909185,7 7.1258162,7.078217 6.9981391,7.1925894 6.8704621,7.0782174 6.7053597,7 6.5217714,7 H 5.0926684 C 4.9090802,7 4.7439779,7.078217 4.6163007,7.1925894 4.4886234,7.0782174 4.3235212,7 4.139933,7 Z"
     id="path5222"
     sodipodi:nodetypes="scccsscccssccccssssccccccsscsscsscsscsscsscsscss" />
  <path
     style="color:#000000;clip-rule:nonzero;display:inline;overflow:visible;visibility:visible;opacity:0.25;isolation:auto;mix-blend-mode:normal;color-interpolation:sRGB;color-interpolation-filters:linearRGB;solid-color:#000000;solid-opacity:1;fill:#000000;fill-opacity:1;fill-rule:nonzero;stroke:none;stroke-width:1;stroke-linecap:butt;stroke-linejoin:miter;stroke-miterlimit:4;stroke-dasharray:none;stroke-dashoffset:0;stroke-opacity:1;marker:none;color-rendering:auto;image-rendering:auto;shape-rendering:auto;text-rendering:auto;enable-background:accumulate"
     d="m 3.3,14.9997 c -0.1662,0 -0.3,0.1115 -0.3,0.25 v 1.5 c 0,0.1385 0.1338,0.25 0.3,0.25 h 1.4 c 0.1662,0 0.3,-0.1115 0.3,-0.25 v -1.5 c 0,-0.1385 -0.1338,-0.25 -0.3,-0.25 z"
     id="path4188"
     sodipodi:nodetypes="sssssssss" />
  <path
     style="color:#000000;clip-rule:nonzero;display:inline;overflow:visible;visibility:visible;opacity:1;isolation:auto;mix-blend-mode:normal;color-interpolation:sRGB;color-interpolation-filters:linearRGB;solid-color:#000000;solid-opacity:1;fill:#fafafa;fill-opacity:1;fill-rule:nonzero;stroke:none;stroke-width:1;stroke-linecap:butt;stroke-linejoin:miter;stroke-miterlimit:4;stroke-dasharray:none;stroke-dashoffset:0;stroke-opacity:1;marker:none;color-rendering:auto;image-rendering:auto;shape-rendering:auto;text-rendering:auto;enable-background:accumulate"
     d="m 3.3,13.9997 c -0.1662,0 -0.3,0.1115 -0.3,0.25 v 1.5 c 0,0.1385 0.1338,0.25 0.3,0.25 h 1.4 c 0.1662,0 0.3,-0.1115 0.3,-0.25 v -1.5 c 0,-0.1385 -0.1338,-0.25 -0.3,-0.25 z"
     id="path4262"
     sodipodi:nodetypes="sssssssss" />
  <path
     id="path4384"
     d="m 3.3,11.9997 c -0.1662,0 -0.3,0.1115 -0.3,0.25 v 1.5 c 0,0.1385 0.1338,0.25 0.3,0.25 h 2.4 c 0.1662,0 0.3,-0.1115 0.3,-0.25 v -1.5 c 0,-0.1385 -0.1338,-0.25 -0.3,-0.25 z"
     style="color:#000000;clip-rule:nonzero;display:inline;overflow:visible;visibility:visible;opacity:0.25;isolation:auto;mix-blend-mode:normal;color-interpolation:sRGB;color-interpolation-filters:linearRGB;solid-color:#000000;solid-opacity:1;fill:#000000;fill-opacity:1;fill-rule:nonzero;stroke:none;stroke-width:1;stroke-linecap:butt;stroke-linejoin:miter;stroke-miterlimit:4;stroke-dasharray:none;stroke-dashoffset:0;stroke-opacity:1;marker:none;color-rendering:auto;image-rendering:auto;shape-rendering:auto;text-rendering:auto;enable-background:accumulate" />
  <path
     id="path4386"
     d="m 3.3,10.9997 c -0.1662,0 -0.3,0.1115 -0.3,0.25 v 1.5 c 0,0.1385 0.1338,0.25 0.3,0.25 h 2.4 c 0.1662,0 0.3,-0.1115 0.3,-0.25 v -1.5 c 0,-0.1385 -0.1338,-0.25 -0.3,-0.25 z"
     style="color:#000000;clip-rule:nonzero;display:inline;overflow:visible;visibility:visible;opacity:1;isolation:auto;mix-blend-mode:normal;color-interpolation:sRGB;color-interpolation-filters:linearRGB;solid-color:#000000;solid-opacity:1;fill:#fafafa;fill-opacity:1;fill-rule:nonzero;stroke:none;stroke-width:1;stroke-linecap:butt;stroke-linejoin:miter;stroke-miterlimit:4;stroke-dasharray:none;stroke-dashoffset:0;stroke-opacity:1;marker:none;color-rendering:auto;image-rendering:auto;shape-rendering:auto;text-rendering:auto;enable-background:accumulate" />
  <path
     style="color:#000000;clip-rule:nonzero;display:inline;overflow:visible;visibility:visible;opacity:0.25;isolation:auto;mix-blend-mode:normal;color-interpolation:sRGB;color-interpolation-filters:linearRGB;solid-color:#000000;solid-opacity:1;fill:#000000;fill-opacity:1;fill-rule:nonzero;stroke:none;stroke-width:1;stroke-linecap:butt;stroke-linejoin:miter;stroke-miterlimit:4;stroke-dasharray:none;stroke-dashoffset:0;stroke-opacity:1;marker:none;color-rendering:auto;image-rendering:auto;shape-rendering:auto;text-rendering:auto;enable-background:accumulate"
     d="m 19.3,14.9997 c -0.1662,0 -0.3,0.1115 -0.3,0.25 v 1.5 c 0,0.1385 0.1338,0.25 0.3,0.25 h 1.4 c 0.1662,0 0.3,-0.1115 0.3,-0.25 v -1.5 c 0,-0.1385 -0.1338,-0.25 -0.3,-0.25 z"
     id="path4402"
     sodipodi:nodetypes="sssssssss" />
  <path
     style="color:#000000;clip-rule:nonzero;display:inline;overflow:visible;visibility:visible;opacity:1;isolation:auto;mix-blend-mode:normal;color-interpolation:sRGB;color-interpolation-filters:linearRGB;solid-color:#000000;solid-opacity:1;fill:#fafafa;fill-opacity:1;fill-rule:nonzero;stroke:none;stroke-width:1;stroke-linecap:butt;stroke-linejoin:miter;stroke-miterlimit:4;stroke-dasharray:none;stroke-dashoffset:0;stroke-opacity:1;marker:none;color-rendering:auto;image-rendering:auto;shape-rendering:auto;text-rendering:auto;enable-background:accumulate"
     d="m 19.3,13.9997 c -0.1662,0 -0.3,0.1115 -0.3,0.25 v 1.5 c 0,0.1385 0.1338,0.25 0.3,0.25 h 1.4 c 0.1662,0 0.3,-0.1115 0.3,-0.25 v -1.5 c 0,-0.1385 -0.1338,-0.25 -0.3,-0.25 z"
     id="path4404"
     sodipodi:nodetypes="sssssssss" />
  <path
     style="color:#000000;clip-rule:nonzero;display:inline;overflow:visible;visibility:visible;opacity:0.25;isolation:auto;mix-blend-mode:normal;color-interpolation:sRGB;color-interpolation-filters:linearRGB;solid-color:#000000;solid-opacity:1;fill:#000000;fill-opacity:1;fill-rule:nonzero;stroke:none;stroke-width:1;stroke-linecap:butt;stroke-linejoin:miter;stroke-miterlimit:4;stroke-dasharray:none;stroke-dashoffset:0;stroke-opacity:1;marker:none;color-rendering:auto;image-rendering:auto;shape-rendering:auto;text-rendering:auto;enable-background:accumulate"
     d="m 3.2,8.9996995 c -0.1108,0 -0.2,0.1115 -0.2,0.25 V 10.7497 c 0,0.1385 0.0892,0.25 0.2,0.25 h 1.6 c 0.1108,0 0.2,-0.1115 0.2,-0.25 V 9.2496995 c 0,-0.1385 -0.0892,-0.25 -0.2,-0.25 z"
     id="path4414" />
  <path
     style="color:#000000;clip-rule:nonzero;display:inline;overflow:visible;visibility:visible;opacity:1;isolation:auto;mix-blend-mode:normal;color-interpolation:sRGB;color-interpolation-filters:linearRGB;solid-color:#000000;solid-opacity:1;fill:#fafafa;fill-opacity:1;fill-rule:nonzero;stroke:none;stroke-width:1;stroke-linecap:butt;stroke-linejoin:miter;stroke-miterlimit:4;stroke-dasharray:none;stroke-dashoffset:0;stroke-opacity:1;marker:none;color-rendering:auto;image-rendering:auto;shape-rendering:auto;text-rendering:auto;enable-background:accumulate"
     d="m 3.2,7.9996991 c -0.1108,0 -0.2,0.1115 -0.2,0.25 v 1.5000004 c 0,0.1385 0.0892,0.25 0.2,0.25 h 1.6 c 0.1108,0 0.2,-0.1115 0.2,-0.25 V 8.2496991 c 0,-0.1385 -0.0892,-0.25 -0.2,-0.25 z"
     id="path4416" />
  <path
     id="path4420"
     d="m 7.2,11.9997 c -0.1108,0 -0.2,0.1115 -0.2,0.25 v 1.5 c 0,0.1385 0.0892,0.25 0.2,0.25 h 1.6 c 0.1108,0 0.2,-0.1115 0.2,-0.25 v -1.5 c 0,-0.1385 -0.0892,-0.25 -0.2,-0.25 z"
     style="color:#000000;clip-rule:nonzero;display:inline;overflow:visible;visibility:visible;opacity:0.25;isolation:auto;mix-blend-mode:normal;color-interpolation:sRGB;color-interpolation-filters:linearRGB;solid-color:#000000;solid-opacity:1;fill:#000000;fill-opacity:1;fill-rule:nonzero;stroke:none;stroke-width:1;stroke-linecap:butt;stroke-linejoin:miter;stroke-miterlimit:4;stroke-dasharray:none;stroke-dashoffset:0;stroke-opacity:1;marker:none;color-rendering:auto;image-rendering:auto;shape-rendering:auto;text-rendering:auto;enable-background:accumulate" />
  <path
     id="path4422"
     d="m 7.2,10.9997 c -0.1108,0 -0.2,0.1115 -0.2,0.25 v 1.5 c 0,0.1385 0.0892,0.25 0.2,0.25 h 1.6 c 0.1108,0 0.2,-0.1115 0.2,-0.25 v -1.5 c 0,-0.1385 -0.0892,-0.25 -0.2,-0.25 z"
     style="color:#000000;clip-rule:nonzero;display:inline;overflow:visible;visibility:visible;opacity:1;isolation:auto;mix-blend-mode:normal;color-interpolation:sRGB;color-interpolation-filters:linearRGB;solid-color:#000000;solid-opacity:1;fill:#fafafa;fill-opacity:1;fill-rule:nonzero;stroke:none;stroke-width:1;stroke-linecap:butt;stroke-linejoin:miter;stroke-miterlimit:4;stroke-dasharray:none;stroke-dashoffset:0;stroke-opacity:1;marker:none;color-rendering:auto;image-rendering:auto;shape-rendering:auto;text-rendering:auto;enable-background:accumulate" />
  <path
     style="color:#000000;clip-rule:nonzero;display:inline;overflow:visible;visibility:visible;opacity:0.25;isolation:auto;mix-blend-mode:normal;color-interpolation:sRGB;color-interpolation-filters:linearRGB;solid-color:#000000;solid-opacity:1;fill:#000000;fill-opacity:1;fill-rule:nonzero;stroke:none;stroke-width:1;stroke-linecap:butt;stroke-linejoin:miter;stroke-miterlimit:4;stroke-dasharray:none;stroke-dashoffset:0;stroke-opacity:1;marker:none;color-rendering:auto;image-rendering:auto;shape-rendering:auto;text-rendering:auto;enable-background:accumulate"
     d="m 13.2,11.9997 c -0.1108,0 -0.2,0.1115 -0.2,0.25 v 1.5 c 0,0.1385 0.0892,0.25 0.2,0.25 h 1.6 c 0.1108,0 0.2,-0.1115 0.2,-0.25 v -1.5 c 0,-0.1385 -0.0892,-0.25 -0.2,-0.25 z"
     id="path4426" />
  <path
     style="color:#000000;clip-rule:nonzero;display:inline;overflow:visible;visibility:visible;opacity:1;isolation:auto;mix-blend-mode:normal;color-interpolation:sRGB;color-interpolation-filters:linearRGB;solid-color:#000000;solid-opacity:1;fill:#fafafa;fill-opacity:1;fill-rule:nonzero;stroke:none;stroke-width:1;stroke-linecap:butt;stroke-linejoin:miter;stroke-miterlimit:4;stroke-dasharray:none;stroke-dashoffset:0;stroke-opacity:1;marker:none;color-rendering:auto;image-rendering:auto;shape-rendering:auto;text-rendering:auto;enable-background:accumulate"
     d="m 13.2,10.9997 c -0.1108,0 -0.2,0.1115 -0.2,0.25 v 1.5 c 0,0.1385 0.0892,0.25 0.2,0.25 h 1.6 c 0.1108,0 0.2,-0.1115 0.2,-0.25 v -1.5 c 0,-0.1385 -0.0892,-0.25 -0.2,-0.25 z"
     id="path4428" />
  <path
     id="path4432"
     d="m 10.2,11.9997 c -0.1108,0 -0.2,0.1115 -0.2,0.25 v 1.5 c 0,0.1385 0.0892,0.25 0.2,0.25 h 1.6 c 0.1108,0 0.2,-0.1115 0.2,-0.25 v -1.5 c 0,-0.1385 -0.0892,-0.25 -0.2,-0.25 z"
     style="color:#000000;clip-rule:nonzero;display:inline;overflow:visible;visibility:visible;opacity:0.25;isolation:auto;mix-blend-mode:normal;color-interpolation:sRGB;color-interpolation-filters:linearRGB;solid-color:#000000;solid-opacity:1;fill:#000000;fill-opacity:1;fill-rule:nonzero;stroke:none;stroke-width:1;stroke-linecap:butt;stroke-linejoin:miter;stroke-miterlimit:4;stroke-dasharray:none;stroke-dashoffset:0;stroke-opacity:1;marker:none;color-rendering:auto;image-rendering:auto;shape-rendering:auto;text-rendering:auto;enable-background:accumulate" />
  <path
     id="path4434"
     d="m 10.2,10.9997 c -0.1108,0 -0.2,0.1115 -0.2,0.25 v 1.5 c 0,0.1385 0.0892,0.25 0.2,0.25 h 1.6 c 0.1108,0 0.2,-0.1115 0.2,-0.25 v -1.5 c 0,-0.1385 -0.0892,-0.25 -0.2,-0.25 z"
     style="color:#000000;clip-rule:nonzero;display:inline;overflow:visible;visibility:visible;opacity:1;isolation:auto;mix-blend-mode:normal;color-interpolation:sRGB;color-interpolation-filters:linearRGB;solid-color:#000000;solid-opacity:1;fill:#fafafa;fill-opacity:1;fill-rule:nonzero;stroke:none;stroke-width:1;stroke-linecap:butt;stroke-linejoin:miter;stroke-miterlimit:4;stroke-dasharray:none;stroke-dashoffset:0;stroke-opacity:1;marker:none;color-rendering:auto;image-rendering:auto;shape-rendering:auto;text-rendering:auto;enable-background:accumulate" />
  <path
     style="color:#000000;clip-rule:nonzero;display:inline;overflow:visible;visibility:visible;opacity:0.25;isolation:auto;mix-blend-mode:normal;color-interpolation:sRGB;color-interpolation-filters:linearRGB;solid-color:#000000;solid-opacity:1;fill:#000000;fill-opacity:1;fill-rule:nonzero;stroke:none;stroke-width:1;stroke-linecap:butt;stroke-linejoin:miter;stroke-miterlimit:4;stroke-dasharray:none;stroke-dashoffset:0;stroke-opacity:1;marker:none;color-rendering:auto;image-rendering:auto;shape-rendering:auto;text-rendering:auto;enable-background:accumulate"
     d="m 12.2,8.9996995 c -0.1108,0 -0.2,0.1115 -0.2,0.25 V 10.7497 c 0,0.1385 0.0892,0.25 0.2,0.25 h 1.6 c 0.1108,0 0.2,-0.1115 0.2,-0.25 V 9.2496995 c 0,-0.1385 -0.0892,-0.25 -0.2,-0.25 z"
     id="path4450" />
  <path
     style="color:#000000;clip-rule:nonzero;display:inline;overflow:visible;visibility:visible;opacity:1;isolation:auto;mix-blend-mode:normal;color-interpolation:sRGB;color-interpolation-filters:linearRGB;solid-color:#000000;solid-opacity:1;fill:#fafafa;fill-opacity:1;fill-rule:nonzero;stroke:none;stroke-width:1;stroke-linecap:butt;stroke-linejoin:miter;stroke-miterlimit:4;stroke-dasharray:none;stroke-dashoffset:0;stroke-opacity:1;marker:none;color-rendering:auto;image-rendering:auto;shape-rendering:auto;text-rendering:auto;enable-background:accumulate"
     d="m 12.2,7.9996991 c -0.1108,0 -0.2,0.1115 -0.2,0.25 v 1.5000004 c 0,0.1385 0.0892,0.25 0.2,0.25 h 1.6 c 0.1108,0 0.2,-0.1115 0.2,-0.25 V 8.2496991 c 0,-0.1385 -0.0892,-0.25 -0.2,-0.25 z"
     id="path4452" />
  <path
     id="path4498"
     d="m 9.2,8.9996995 c -0.1108,0 -0.2,0.1115 -0.2,0.25 V 10.7497 c 0,0.1385 0.0892,0.25 0.2,0.25 h 1.6 c 0.1108,0 0.2,-0.1115 0.2,-0.25 V 9.2496995 c 0,-0.1385 -0.0892,-0.25 -0.2,-0.25 z"
     style="color:#000000;clip-rule:nonzero;display:inline;overflow:visible;visibility:visible;opacity:0.25;isolation:auto;mix-blend-mode:normal;color-interpolation:sRGB;color-interpolation-filters:linearRGB;solid-color:#000000;solid-opacity:1;fill:#000000;fill-opacity:1;fill-rule:nonzero;stroke:none;stroke-width:1;stroke-linecap:butt;stroke-linejoin:miter;stroke-miterlimit:4;stroke-dasharray:none;stroke-dashoffset:0;stroke-opacity:1;marker:none;color-rendering:auto;image-rendering:auto;shape-rendering:auto;text-rendering:auto;enable-background:accumulate" />
  <path
     id="path4500"
     d="m 9.2,7.9996991 c -0.1108,0 -0.2,0.1115 -0.2,0.25 v 1.5000004 c 0,0.1385 0.0892,0.25 0.2,0.25 h 1.6 c 0.1108,0 0.2,-0.1115 0.2,-0.25 V 8.2496991 c 0,-0.1385 -0.0892,-0.25 -0.2,-0.25 z"
     style="color:#000000;clip-rule:nonzero;display:inline;overflow:visible;visibility:visible;opacity:1;isolation:auto;mix-blend-mode:normal;color-interpolation:sRGB;color-interpolation-filters:linearRGB;solid-color:#000000;solid-opacity:1;fill:#fafafa;fill-opacity:1;fill-rule:nonzero;stroke:none;stroke-width:1;stroke-linecap:butt;stroke-linejoin:miter;stroke-miterlimit:4;stroke-dasharray:none;stroke-dashoffset:0;stroke-opacity:1;marker:none;color-rendering:auto;image-rendering:auto;shape-rendering:auto;text-rendering:auto;enable-background:accumulate" />
  <path
     style="color:#000000;clip-rule:nonzero;display:inline;overflow:visible;visibility:visible;opacity:0.25;isolation:auto;mix-blend-mode:normal;color-interpolation:sRGB;color-interpolation-filters:linearRGB;solid-color:#000000;solid-opacity:1;fill:#000000;fill-opacity:1;fill-rule:nonzero;stroke:none;stroke-width:1;stroke-linecap:butt;stroke-linejoin:miter;stroke-miterlimit:4;stroke-dasharray:none;stroke-dashoffset:0;stroke-opacity:1;marker:none;color-rendering:auto;image-rendering:auto;shape-rendering:auto;text-rendering:auto;enable-background:accumulate"
     d="m 6.2,8.9996995 c -0.1108,0 -0.2,0.1115 -0.2,0.25 V 10.7497 c 0,0.1385 0.0892,0.25 0.2,0.25 h 1.6 c 0.1108,0 0.2,-0.1115 0.2,-0.25 V 9.2496995 c 0,-0.1385 -0.0892,-0.25 -0.2,-0.25 z"
     id="path4504" />
  <path
     style="color:#000000;clip-rule:nonzero;display:inline;overflow:visible;visibility:visible;opacity:1;isolation:auto;mix-blend-mode:normal;color-interpolation:sRGB;color-interpolation-filters:linearRGB;solid-color:#000000;solid-opacity:1;fill:#fafafa;fill-opacity:1;fill-rule:nonzero;stroke:none;stroke-width:1;stroke-linecap:butt;stroke-linejoin:miter;stroke-miterlimit:4;stroke-dasharray:none;stroke-dashoffset:0;stroke-opacity:1;marker:none;color-rendering:auto;image-rendering:auto;shape-rendering:auto;text-rendering:auto;enable-background:accumulate"
     d="m 6.2,7.9996991 c -0.1108,0 -0.2,0.1115 -0.2,0.25 v 1.5000004 c 0,0.1385 0.0892,0.25 0.2,0.25 h 1.6 c 0.1108,0 0.2,-0.1115 0.2,-0.25 V 8.2496991 c 0,-0.1385 -0.0892,-0.25 -0.2,-0.25 z"
     id="path4506" />
  <path
     style="color:#000000;clip-rule:nonzero;display:inline;overflow:visible;visibility:visible;opacity:0.25;isolation:auto;mix-blend-mode:normal;color-interpolation:sRGB;color-interpolation-filters:linearRGB;solid-color:#000000;solid-opacity:1;fill:#000000;fill-opacity:1;fill-rule:nonzero;stroke:none;stroke-width:1;stroke-linecap:butt;stroke-linejoin:miter;stroke-miterlimit:4;stroke-dasharray:none;stroke-dashoffset:0;stroke-opacity:1;marker:none;color-rendering:auto;image-rendering:auto;shape-rendering:auto;text-rendering:auto;enable-background:accumulate"
     d="m 15.2,8.9996995 c -0.1108,0 -0.2,0.1115 -0.2,0.25 V 10.7497 c 0,0.1385 0.0892,0.25 0.2,0.25 h 1.6 c 0.1108,0 0.2,-0.1115 0.2,-0.25 V 9.2496995 c 0,-0.1385 -0.0892,-0.25 -0.2,-0.25 z"
     id="path4516" />
  <path
     style="color:#000000;clip-rule:nonzero;display:inline;overflow:visible;visibility:visible;opacity:1;isolation:auto;mix-blend-mode:normal;color-interpolation:sRGB;color-interpolation-filters:linearRGB;solid-color:#000000;solid-opacity:1;fill:#fafafa;fill-opacity:1;fill-rule:nonzero;stroke:none;stroke-width:1;stroke-linecap:butt;stroke-linejoin:miter;stroke-miterlimit:4;stroke-dasharray:none;stroke-dashoffset:0;stroke-opacity:1;marker:none;color-rendering:auto;image-rendering:auto;shape-rendering:auto;text-rendering:auto;enable-background:accumulate"
     d="m 15.2,7.9996991 c -0.1108,0 -0.2,0.1115 -0.2,0.25 v 1.5000004 c 0,0.1385 0.0892,0.25 0.2,0.25 h 1.6 c 0.1108,0 0.2,-0.1115 0.2,-0.25 V 8.2496991 c 0,-0.1385 -0.0892,-0.25 -0.2,-0.25 z"
     id="path4518" />
  <path
     style="color:#000000;clip-rule:nonzero;display:inline;overflow:visible;visibility:visible;opacity:0.25;isolation:auto;mix-blend-mode:normal;color-interpolation:sRGB;color-interpolation-filters:linearRGB;solid-color:#000000;solid-opacity:1;fill:#000000;fill-opacity:1;fill-rule:nonzero;stroke:none;stroke-width:1;stroke-linecap:butt;stroke-linejoin:miter;stroke-miterlimit:4;stroke-dasharray:none;stroke-dashoffset:0;stroke-opacity:1;marker:none;color-rendering:auto;image-rendering:auto;shape-rendering:auto;text-rendering:auto;enable-background:accumulate"
     d="m 6.2,14.9997 c -0.1108,0 -0.2,0.1115 -0.2,0.25 v 1.5 c 0,0.1385 0.0892,0.25 0.2,0.25 h 11.59 c 0.1108,0 0.2,-0.1115 0.2,-0.25 v -1.5 c 0,-0.1385 -0.0892,-0.25 -0.2,-0.25 z"
     id="path4239"
     sodipodi:nodetypes="sssssssss" />
  <path
     style="color:#000000;clip-rule:nonzero;display:inline;overflow:visible;visibility:visible;opacity:1;isolation:auto;mix-blend-mode:normal;color-interpolation:sRGB;color-interpolation-filters:linearRGB;solid-color:#000000;solid-opacity:1;fill:#fafafa;fill-opacity:1;fill-rule:nonzero;stroke:none;stroke-width:1;stroke-linecap:butt;stroke-linejoin:miter;stroke-miterlimit:4;stroke-dasharray:none;stroke-dashoffset:0;stroke-opacity:1;marker:none;color-rendering:auto;image-rendering:auto;shape-rendering:auto;text-rendering:auto;enable-background:accumulate"
     d="m 6.2,13.9997 c -0.1108,0 -0.2,0.1115 -0.2,0.25 v 1.5 c 0,0.1385 0.0892,0.25 0.2,0.25 h 11.59 c 0.1108,0 0.2,-0.1115 0.2,-0.25 v -1.5 c 0,-0.1385 -0.0892,-0.25 -0.2,-0.25 z"
     id="path4241"
     sodipodi:nodetypes="sssssssss" />
  <path
     style="color:#000000;clip-rule:nonzero;display:inline;overflow:visible;visibility:visible;opacity:0.25;isolation:auto;mix-blend-mode:normal;color-interpolation:sRGB;color-interpolation-filters:linearRGB;solid-color:#000000;solid-opacity:1;fill:#000000;fill-opacity:1;fill-rule:nonzero;stroke:none;stroke-width:1;stroke-linecap:butt;stroke-linejoin:miter;stroke-miterlimit:4;stroke-dasharray:none;stroke-dashoffset:0;stroke-opacity:1;marker:none;color-rendering:auto;image-rendering:auto;shape-rendering:auto;text-rendering:auto;enable-background:accumulate"
     d="m 16.2,11.9997 c -0.1108,0 -0.2,0.1115 -0.2,0.25 v 1.5 c 0,0.1385 0.0892,0.25 0.2,0.25 h 1.6 c 0.1108,0 0.2,-0.1115 0.2,-0.25 v -1.5 c 0,-0.1385 -0.0892,-0.25 -0.2,-0.25 z"
     id="path4245" />
  <path
     style="color:#000000;clip-rule:nonzero;display:inline;overflow:visible;visibility:visible;opacity:1;isolation:auto;mix-blend-mode:normal;color-interpolation:sRGB;color-interpolation-filters:linearRGB;solid-color:#000000;solid-opacity:1;fill:#fafafa;fill-opacity:1;fill-rule:nonzero;stroke:none;stroke-width:1;stroke-linecap:butt;stroke-linejoin:miter;stroke-miterlimit:4;stroke-dasharray:none;stroke-dashoffset:0;stroke-opacity:1;marker:none;color-rendering:auto;image-rendering:auto;shape-rendering:auto;text-rendering:auto;enable-background:accumulate"
     d="m 16.2,10.9997 c -0.1108,0 -0.2,0.1115 -0.2,0.25 v 1.5 c 0,0.1385 0.0892,0.25 0.2,0.25 h 1.6 c 0.1108,0 0.2,-0.1115 0.2,-0.25 v -1.5 c 0,-0.1385 -0.0892,-0.25 -0.2,-0.25 z"
     id="path4247" />
  <path
     style="color:#000000;clip-rule:nonzero;display:inline;overflow:visible;visibility:visible;opacity:0.25;isolation:auto;mix-blend-mode:normal;color-interpolation:sRGB;color-interpolation-filters:linearRGB;solid-color:#000000;solid-opacity:1;fill:#000000;fill-opacity:1;fill-rule:nonzero;stroke:none;stroke-width:1;stroke-linecap:butt;stroke-linejoin:miter;stroke-miterlimit:4;stroke-dasharray:none;stroke-dashoffset:0;stroke-opacity:1;marker:none;color-rendering:auto;image-rendering:auto;shape-rendering:auto;text-rendering:auto;enable-background:accumulate"
     d="m 19.2,11.9997 c -0.1108,0 -0.2,0.1115 -0.2,0.25 v 1.5 c 0,0.1385 0.0892,0.25 0.2,0.25 h 1.6 c 0.1108,0 0.2,-0.1115 0.2,-0.25 v -1.5 c 0,-0.1385 -0.0892,-0.25 -0.2,-0.25 z"
     id="path4249" />
  <path
     style="color:#000000;clip-rule:nonzero;display:inline;overflow:visible;visibility:visible;opacity:1;isolation:auto;mix-blend-mode:normal;color-interpolation:sRGB;color-interpolation-filters:linearRGB;solid-color:#000000;solid-opacity:1;fill:#fafafa;fill-opacity:1;fill-rule:nonzero;stroke:none;stroke-width:1;stroke-linecap:butt;stroke-linejoin:miter;stroke-miterlimit:4;stroke-dasharray:none;stroke-dashoffset:0;stroke-opacity:1;marker:none;color-rendering:auto;image-rendering:auto;shape-rendering:auto;text-rendering:auto;enable-background:accumulate"
     d="m 19.2,10.9997 c -0.1108,0 -0.2,0.1115 -0.2,0.25 v 1.5 c 0,0.1385 0.0892,0.25 0.2,0.25 h 1.6 c 0.1108,0 0.2,-0.1115 0.2,-0.25 v -1.5 c 0,-0.1385 -0.0892,-0.25 -0.2,-0.25 z"
     id="path4251" />
  <path
     style="color:#000000;clip-rule:nonzero;display:inline;overflow:visible;visibility:visible;opacity:0.25;isolation:auto;mix-blend-mode:normal;color-interpolation:sRGB;color-interpolation-filters:linearRGB;solid-color:#000000;solid-opacity:1;fill:#000000;fill-opacity:1;fill-rule:nonzero;stroke:none;stroke-width:1;stroke-linecap:butt;stroke-linejoin:miter;stroke-miterlimit:4;stroke-dasharray:none;stroke-dashoffset:0;stroke-opacity:1;marker:none;color-rendering:auto;image-rendering:auto;shape-rendering:auto;text-rendering:auto;enable-background:accumulate"
     d="m 18.3,8.9996995 c -0.1662,0 -0.3,0.1115 -0.3,0.25 V 10.7497 c 0,0.1385 0.1338,0.25 0.3,0.25 h 2.4 c 0.1662,0 0.3,-0.1115 0.3,-0.25 V 9.2496995 c 0,-0.1385 -0.1338,-0.25 -0.3,-0.25 z"
     id="path4257" />
  <path
     style="color:#000000;clip-rule:nonzero;display:inline;overflow:visible;visibility:visible;opacity:1;isolation:auto;mix-blend-mode:normal;color-interpolation:sRGB;color-interpolation-filters:linearRGB;solid-color:#000000;solid-opacity:1;fill:#fafafa;fill-opacity:1;fill-rule:nonzero;stroke:none;stroke-width:1;stroke-linecap:butt;stroke-linejoin:miter;stroke-miterlimit:4;stroke-dasharray:none;stroke-dashoffset:0;stroke-opacity:1;marker:none;color-rendering:auto;image-rendering:auto;shape-rendering:auto;text-rendering:auto;enable-background:accumulate"
     d="m 18.3,7.9996991 c -0.1662,0 -0.3,0.1115 -0.3,0.25 v 1.5000004 c 0,0.1385 0.1338,0.25 0.3,0.25 h 2.4 c 0.1662,0 0.3,-0.1115 0.3,-0.25 V 8.2496991 c 0,-0.1385 -0.1338,-0.25 -0.3,-0.25 z"
     id="path4259" />
</svg>
