<?xml version="1.0" encoding="UTF-8" standalone="no"?>
<svg
   xmlns:dc="http://purl.org/dc/elements/1.1/"
   xmlns:cc="http://creativecommons.org/ns#"
   xmlns:rdf="http://www.w3.org/1999/02/22-rdf-syntax-ns#"
   xmlns:svg="http://www.w3.org/2000/svg"
   xmlns="http://www.w3.org/2000/svg"
   xmlns:xlink="http://www.w3.org/1999/xlink"
   width="32"
   height="32"
   viewBox="0 0 32 32"
   id="svg4384"
   version="1.1">
  <defs
     id="defs4386">
    <linearGradient
       id="linearGradient4947">
      <stop
         style="stop-color:#ffffff;stop-opacity:1"
         offset="0"
         id="stop4949" />
      <stop
         style="stop-color:#e6e6e6;stop-opacity:1"
         offset="1"
         id="stop4951" />
    </linearGradient>
    <linearGradient
       gradientTransform="matrix(0.20299852,0,0,0.20380309,3.0080946,-185.43127)"
       xlink:href="#linearGradient4947"
       id="linearGradient4955"
       x1="64"
       y1="924.57513"
       x2="64"
       y2="1052.1493"
       gradientUnits="userSpaceOnUse" />
  </defs>
  <metadata
     id="metadata4389">
    <rdf:RDF>
      <cc:Work
         rdf:about="">
        <dc:format>image/svg+xml</dc:format>
        <dc:type
           rdf:resource="http://purl.org/dc/dcmitype/StillImage" />
        <dc:title />
      </cc:Work>
    </rdf:RDF>
  </metadata>
  <path
     id="path4405-9"
     d="M 13.996366,29.90225 C 13.212091,29.756837 12.841984,29.657197 11.720252,29.289414 10.63487,28.933554 9.7538248,28.514738 8.8956541,27.946698 7.3275065,26.908709 6.0535885,25.572902 5.0404889,23.904223 4.6886523,23.324709 4.086879,22.124431 4.1276474,22.083508 c 0.011843,-0.01182 0.7129714,0.263374 1.5580627,0.611694 L 7.22224,23.32852 7.3859815,23.794251 c 0.090058,0.25616 0.2561506,0.618828 0.3690954,0.805919 0.4460066,0.738827 1.4065471,1.468361 2.3132671,1.756946 0.515071,0.163939 1.448367,0.178857 2.009686,0.03212 0.855909,-0.223735 1.709159,-0.746938 2.281883,-1.39921 0.394771,-0.44961 0.748502,-1.189823 0.854763,-1.788678 0.04773,-0.268979 0.08892,-0.571606 0.09154,-0.672489 0.0044,-0.168891 0.210826,-0.338211 2.605581,-2.137242 2.333978,-1.753363 2.632061,-1.959206 2.905318,-2.006281 1.229025,-0.211726 1.697745,-0.366935 2.426855,-0.803609 1.209538,-0.724406 2.122319,-1.889104 2.471261,-3.153303 0.352659,-1.277652 0.136914,-2.912672 -0.547018,-4.145579 C 24.878104,9.7598707 24.263237,9.0833708 23.732303,8.7030029 23.234418,8.3463108 22.460843,7.9883673 21.821959,7.8190579 21.403122,7.7080627 21.14157,7.6819433 20.451719,7.6822286 c -0.686282,2.038e-4 -0.947629,0.02639 -1.33979,0.1338334 -0.562417,0.1540914 -1.124432,0.4059961 -1.528484,0.6850922 -0.430832,0.2975954 -1.103974,0.9590444 -1.394205,1.3699868 -0.143098,0.202615 -0.348397,0.545082 -0.456222,0.761038 -0.226428,0.453505 -0.488211,1.427025 -0.488211,1.815565 0,0.149011 -0.04045,0.314098 -0.09171,0.374291 -0.05044,0.05923 -0.906843,1.317672 -1.903112,2.796533 l -1.811398,2.688835 -0.395847,0.0139 c -0.615166,0.0216 -1.0649577,0.138555 -1.6323755,0.424458 L 8.8882755,19.008824 5.9613602,17.809386 C 4.3515568,17.149696 3.0225111,16.599908 3.0079252,16.587635 2.9629282,16.549775 3.119886,14.914383 3.2181627,14.397115 3.454169,13.154925 3.9244451,11.830407 4.477109,10.851328 4.9340731,10.041788 5.8537146,8.7295829 6.4149902,8.0862315 7.5878183,6.7418995 9.3151176,5.5677491 11.164536,4.8576788 c 0.707659,-0.2717022 1.93374,-0.5921418 2.83183,-0.7401069 0.944367,-0.1555894 3.140602,-0.1570282 4.080271,-0.00267 0.82683,0.1358225 1.714962,0.3547682 2.435982,0.6005303 0.653371,0.2227037 1.842825,0.784597 2.435982,1.1507497 1.47914,0.9130623 2.885104,2.3381024 3.985756,4.0398358 0.942031,1.4564833 1.646988,3.3304023 1.926844,5.1219433 0.05086,0.325587 0.108488,1.100973 0.128063,1.723082 0.03789,1.20414 -0.02139,1.981469 -0.227784,2.987078 -0.146915,0.715798 -0.516579,1.831742 -0.837367,2.527872 -0.588251,1.276521 -1.470455,2.550433 -2.504734,3.616893 -1.06206,1.095096 -2.22988,1.972346 -3.545947,2.663646 -1.149568,0.603827 -2.128142,1.047466 -3.478337,1.353741 -0.597156,0.135468 -0.852971,0.07215 -2.236795,0.09228 -1.316845,0.01916 -1.645524,0.0055 -2.161934,-0.09031 z M 10.403292,25.286192 C 9.7978893,25.093455 9.1794158,24.679796 8.875745,24.264466 c -0.1144498,-0.156521 -0.2080905,-0.299 -0.2080905,-0.316608 0,-0.01753 0.218064,0.06035 0.4845867,0.173191 0.6318489,0.267533 1.0310928,0.385066 1.5637868,0.46033 1.01131,0.142907 2.041531,-0.337416 2.428969,-1.132431 0.0871,-0.178736 0.173615,-0.473394 0.192264,-0.654799 0.0733,-0.713067 -0.247275,-1.53635 -0.804134,-2.065096 -0.335912,-0.318952 -0.819666,-0.577558 -1.7815,-0.952372 -0.298004,-0.116127 -0.423228,-0.192981 -0.381955,-0.234414 0.09477,-0.09516 1.033,-0.123526 1.419688,-0.04292 0.507833,0.105835 1.040874,0.398129 1.482567,0.81295 0.283652,0.266391 0.452145,0.492551 0.618096,0.829662 l 0.14658,0.481648 0.126874,0.764771 -0.09969,0.80119 -0.173767,0.481628 c -0.382415,0.776836 -1.130304,1.378789 -2.002667,1.611899 -0.399094,0.10665 -1.153848,0.108219 -1.484064,0.0031 z m 9.07704,-8.332451 c -0.524771,-0.146068 -1.37233,-0.411523 -1.724198,-0.723876 -0.386876,-0.343428 -0.811639,-0.927508 -1.022294,-1.405724 -0.392649,-0.891369 -0.499173,-2.038285 -0.272101,-2.929647 0.204577,-0.803059 0.447182,-1.218273 1.095953,-1.875697 0.461338,-0.4674923 0.673192,-0.6329335 1.036591,-0.8094943 0.663891,-0.3225571 1.136761,-0.4286305 1.887886,-0.4234845 1.033138,0.00707 1.954005,0.3135593 2.716638,0.904146 0.500659,0.3877128 0.857163,0.8336788 1.123578,1.4055388 0.353364,0.758492 0.442466,1.226935 0.409227,2.151437 -0.02368,0.658504 -0.05393,0.850173 -0.18983,1.202809 -0.08892,0.230715 -0.285443,0.606404 -0.436723,0.834867 -0.513617,0.77565 -1.3951,1.236704 -2.322282,1.562966 -0.364539,0.128274 -0.582663,0.16046 -1.206253,0.177989 -0.551286,0.01549 -0.853626,-0.0043 -1.096192,-0.07183 z m 1.826987,-1.073203 c 0.758925,-0.206723 1.637639,-0.772116 1.989451,-1.428447 0.323307,-0.603153 0.425566,-1.322309 0.291351,-2.048998 -0.03345,-0.181134 -0.157594,-0.527426 -0.275865,-0.76954 -0.381136,-0.780219 -1.146305,-1.301908 -2.031437,-1.55846 -0.271946,-0.07882 -0.505686,-0.09757 -0.943943,-0.07573 -0.480691,0.02396 -0.667645,0.06461 -1.069692,0.2325423 -0.392915,0.164122 -0.536514,0.198924 -0.856415,0.522952 -0.6607,0.669228 -0.921216,1.318567 -0.921621,2.29715 -2.44e-4,0.607698 0.128335,1.121576 0.394933,1.578296 0.190229,0.325888 0.754219,0.790127 1.131396,1.00177 0.324102,0.181864 0.772882,0.335548 1.073851,0.367738 0.320096,0.03424 0.842063,-0.01688 1.217991,-0.119278 z"
     style="opacity:0.5;fill:#000000;fill-opacity:1" />
  <path
     id="path4405"
     d="M 13.996366,28.902244 C 13.212091,28.756831 12.841984,28.657191 11.720252,28.289408 10.63487,27.933548 9.7538249,27.514732 8.8956542,26.946692 7.3275066,25.908703 6.0535886,24.572896 5.040489,22.904217 4.6886524,22.324703 4.0868791,21.124425 4.1276475,21.083502 c 0.011843,-0.01182 0.7129714,0.263374 1.5580627,0.611694 l 1.5365299,0.633318 0.1637415,0.465731 c 0.090058,0.25616 0.2561506,0.618828 0.3690954,0.805919 0.4460066,0.738827 1.4065471,1.468361 2.313267,1.756946 0.515071,0.163939 1.448367,0.178857 2.009686,0.03212 0.855909,-0.223735 1.709159,-0.746938 2.281883,-1.39921 0.394771,-0.44961 0.748502,-1.189823 0.854763,-1.788678 0.04773,-0.268979 0.08892,-0.571606 0.09154,-0.672489 0.0044,-0.168891 0.210826,-0.338211 2.605581,-2.137242 2.333978,-1.753363 2.632061,-1.959206 2.905318,-2.006281 1.229025,-0.211726 1.697745,-0.366935 2.426855,-0.803609 1.209538,-0.724406 2.122319,-1.889104 2.471261,-3.153303 0.352659,-1.277652 0.136914,-2.912672 -0.547018,-4.1455789 C 24.878104,8.7598651 24.263237,8.0833652 23.732303,7.7029973 23.234418,7.3463052 22.460843,6.9883617 21.821959,6.8190523 21.403122,6.7080571 21.14157,6.6819377 20.451719,6.682223 19.765437,6.6824268 19.50409,6.7086135 19.111929,6.8160564 18.549512,6.9701478 17.987497,7.2220525 17.583445,7.5011486 17.152613,7.798744 16.479471,8.460193 16.18924,8.8711354 16.046142,9.0737503 15.840843,9.416217 15.733018,9.6321729 15.50659,10.085678 15.244807,11.059198 15.244807,11.447738 c 0,0.149011 -0.04045,0.314098 -0.09171,0.374291 -0.05044,0.05923 -0.906843,1.317672 -1.903112,2.796533 l -1.811398,2.688835 -0.395847,0.0139 c -0.615166,0.0216 -1.0649576,0.138555 -1.6323754,0.424458 L 8.8882756,18.008818 5.9613603,16.80938 C 4.3515569,16.14969 3.0225112,15.599902 3.0079253,15.587629 2.9629279,15.549765 3.1198861,13.914377 3.2181628,13.397109 3.4541691,12.154919 3.9244452,10.830401 4.4771091,9.8513223 4.9340732,9.0417818 5.8537147,7.7295773 6.4149903,7.0862259 7.5878184,5.7418939 9.3151177,4.5677435 11.164536,3.8576732 c 0.707659,-0.2717022 1.93374,-0.5921418 2.83183,-0.7401069 0.944367,-0.1555894 3.140602,-0.1570282 4.080271,-0.00267 0.82683,0.1358225 1.714962,0.3547682 2.435982,0.6005303 0.653371,0.2227037 1.842825,0.784597 2.435982,1.1507497 1.47914,0.9130623 2.885104,2.3381024 3.985756,4.0398358 0.942031,1.4564827 1.646988,3.3304017 1.926844,5.1219427 0.05086,0.325587 0.108488,1.100973 0.128063,1.723082 0.03789,1.20414 -0.02139,1.981469 -0.227784,2.987078 -0.146915,0.715798 -0.516579,1.831742 -0.837367,2.527872 -0.588251,1.276521 -1.470455,2.550433 -2.504734,3.616893 -1.06206,1.095096 -2.22988,1.972346 -3.545947,2.663646 -1.149568,0.603827 -2.128142,1.047466 -3.478337,1.353741 -0.597156,0.135468 -0.852971,0.07215 -2.236795,0.09228 -1.316845,0.01916 -1.645524,0.0055 -2.161934,-0.09031 z M 10.403292,24.286186 C 9.7978894,24.093449 9.1794159,23.67979 8.8757451,23.26446 8.7612953,23.107939 8.6676546,22.96546 8.6676546,22.947852 c 0,-0.01753 0.218064,0.06035 0.4845867,0.173191 0.6318489,0.267533 1.0310927,0.385066 1.5637867,0.46033 1.01131,0.142907 2.041531,-0.337416 2.428969,-1.132431 0.0871,-0.178736 0.173615,-0.473394 0.192264,-0.654799 0.0733,-0.713067 -0.247275,-1.53635 -0.804134,-2.065096 -0.335912,-0.318952 -0.819666,-0.577558 -1.7815,-0.952372 -0.298004,-0.116127 -0.423228,-0.192981 -0.381955,-0.234414 0.09477,-0.09516 1.033,-0.123526 1.419688,-0.04292 0.507833,0.105835 1.040874,0.398129 1.482567,0.81295 0.283652,0.266391 0.452145,0.492551 0.618096,0.829662 l 0.14658,0.481648 0.126874,0.764771 -0.09969,0.80119 -0.173767,0.481628 c -0.382415,0.776836 -1.130304,1.378789 -2.002667,1.611899 -0.399094,0.10665 -1.153848,0.108219 -1.484064,0.0031 z m 9.07704,-8.332451 C 18.955561,15.807667 18.108002,15.542212 17.756134,15.229859 17.369258,14.886431 16.944495,14.302351 16.73384,13.824135 16.341191,12.932766 16.234667,11.78585 16.461739,10.894488 16.666316,10.091429 16.908921,9.6762147 17.557692,9.0187908 18.01903,8.5512991 18.230884,8.3858579 18.594283,8.2092971 19.258174,7.88674 19.731044,7.7806666 20.482169,7.7858126 c 1.033138,0.00707 1.954005,0.3135593 2.716638,0.904146 0.500659,0.3877129 0.857163,0.8336789 1.123578,1.4055384 0.353364,0.758492 0.442466,1.226935 0.409227,2.151437 -0.02368,0.658504 -0.05393,0.850173 -0.18983,1.202809 -0.08892,0.230715 -0.285443,0.606404 -0.436723,0.834867 -0.513617,0.77565 -1.3951,1.236704 -2.322282,1.562966 -0.364539,0.128274 -0.582663,0.16046 -1.206253,0.177989 -0.551286,0.01549 -0.853626,-0.0043 -1.096192,-0.07183 z m 1.826987,-1.073203 c 0.758925,-0.206723 1.637639,-0.772116 1.989451,-1.428447 0.323307,-0.603153 0.425566,-1.322309 0.291351,-2.048998 -0.03345,-0.181134 -0.157594,-0.527426 -0.275865,-0.76954 -0.381136,-0.7802193 -1.146305,-1.3019083 -2.031437,-1.5584597 -0.271946,-0.078823 -0.505686,-0.097573 -0.943943,-0.075725 -0.480691,0.023963 -0.667645,0.064606 -1.069692,0.2325414 -0.392915,0.1641226 -0.536514,0.198924 -0.856415,0.5229526 -0.6607,0.6692278 -0.921216,1.3185668 -0.921621,2.2971498 -2.44e-4,0.607698 0.128335,1.121576 0.394933,1.578296 0.190229,0.325888 0.754219,0.790127 1.131396,1.00177 0.324102,0.181864 0.772882,0.335548 1.073851,0.367738 0.320096,0.03424 0.842063,-0.01688 1.217991,-0.119278 z"
     style="opacity:1;fill:url(#linearGradient4955);fill-opacity:1" />
</svg>
