<?xml version="1.0" encoding="UTF-8" standalone="no"?>
<svg
   id="svg2"
   height="22"
   width="22"
   version="1.0"
   sodipodi:docname="accessories-text-editor.svg"
   inkscape:version="1.2.2 (b0a8486541, 2022-12-01)"
   xmlns:inkscape="http://www.inkscape.org/namespaces/inkscape"
   xmlns:sodipodi="http://sodipodi.sourceforge.net/DTD/sodipodi-0.dtd"
   xmlns:xlink="http://www.w3.org/1999/xlink"
   xmlns="http://www.w3.org/2000/svg"
   xmlns:svg="http://www.w3.org/2000/svg"
   xmlns:rdf="http://www.w3.org/1999/02/22-rdf-syntax-ns#"
   xmlns:cc="http://creativecommons.org/ns#"
   xmlns:dc="http://purl.org/dc/elements/1.1/">
  <sodipodi:namedview
     id="namedview165"
     pagecolor="#ffffff"
     bordercolor="#666666"
     borderopacity="1.0"
     inkscape:pageshadow="2"
     inkscape:pageopacity="0.0"
     inkscape:pagecheckerboard="0"
     showgrid="false"
     inkscape:zoom="28.416667"
     inkscape:cx="11.806451"
     inkscape:cy="12"
     inkscape:window-width="1278"
     inkscape:window-height="1005"
     inkscape:window-x="344"
     inkscape:window-y="245"
     inkscape:window-maximized="0"
     inkscape:current-layer="g4198"
     inkscape:showpageshadow="2"
     inkscape:deskcolor="#d1d1d1" />
  <defs
     id="defs4">
    <linearGradient
       id="linearGradient985">
      <stop
         id="stop969"
         style="stop-color:#ad5f00;stop-opacity:1"
         offset="0" />
      <stop
         id="stop971"
         style="stop-color:#ffe16b;stop-opacity:1"
         offset="0.13482948" />
      <stop
         id="stop973"
         style="stop-color:#f9c440;stop-opacity:1"
         offset="0.20224422" />
      <stop
         id="stop975"
         style="stop-color:#fff394;stop-opacity:1"
         offset="0.26965895" />
      <stop
         id="stop977"
         style="stop-color:#f9c440;stop-opacity:1"
         offset="0.44650277" />
      <stop
         id="stop979"
         style="stop-color:#f9c440;stop-opacity:1"
         offset="0.57114136" />
      <stop
         id="stop981"
         style="stop-color:#ffe16b;stop-opacity:1"
         offset="0.72038066" />
      <stop
         id="stop983"
         style="stop-color:#ad5f00;stop-opacity:1"
         offset="1" />
    </linearGradient>
    <radialGradient
       gradientTransform="matrix(-2.774389,0,0,1.969706,112.7623,-872.8854)"
       gradientUnits="userSpaceOnUse"
       xlink:href="#linearGradient5060"
       id="radialGradient4536"
       fy="486.64789"
       fx="605.71429"
       r="117.14286"
       cy="486.64789"
       cx="605.71429" />
    <linearGradient
       id="linearGradient5060">
      <stop
         offset="0"
         style="stop-color:#000000;stop-opacity:1"
         id="stop5062" />
      <stop
         offset="1"
         style="stop-color:#000000;stop-opacity:0"
         id="stop5064" />
    </linearGradient>
    <radialGradient
       gradientTransform="matrix(2.774389,0,0,1.969706,-1891.633,-872.8854)"
       gradientUnits="userSpaceOnUse"
       xlink:href="#linearGradient5060"
       id="radialGradient4534"
       fy="486.64789"
       fx="605.71429"
       r="117.14286"
       cy="486.64789"
       cx="605.71429" />
    <linearGradient
       id="linearGradient5048">
      <stop
         offset="0"
         style="stop-color:#000000;stop-opacity:0"
         id="stop5050" />
      <stop
         offset="0.5"
         style="stop-color:#000000;stop-opacity:1"
         id="stop5056" />
      <stop
         offset="1"
         style="stop-color:#000000;stop-opacity:0"
         id="stop5052" />
    </linearGradient>
    <linearGradient
       gradientTransform="matrix(2.774389,0,0,1.969706,-1892.179,-872.8854)"
       gradientUnits="userSpaceOnUse"
       xlink:href="#linearGradient5048"
       id="linearGradient4532"
       y2="609.50507"
       x2="302.85715"
       y1="366.64789"
       x1="302.85715" />
    <linearGradient
       id="linearGradient3104">
      <stop
         offset="0"
         style="stop-color:#000000;stop-opacity:0.40000001"
         id="stop3106" />
      <stop
         offset="1"
         style="stop-color:#000000;stop-opacity:0.25"
         id="stop3108" />
    </linearGradient>
    <linearGradient
       gradientTransform="matrix(0.41863235,0,0,0.42311759,0.77885529,1.6914083)"
       gradientUnits="userSpaceOnUse"
       xlink:href="#linearGradient3104"
       id="linearGradient4196"
       y2="-1.0040783"
       x2="11.536495"
       y1="44.952385"
       x1="11.536495" />
    <linearGradient
       id="linearGradient3600">
      <stop
         offset="0"
         style="stop-color:#f4f4f4;stop-opacity:1"
         id="stop3602" />
      <stop
         offset="1"
         style="stop-color:#dbdbdb;stop-opacity:1"
         id="stop3604" />
    </linearGradient>
    <linearGradient
       gradientTransform="matrix(0.18014749,1.0892095e-4,-1.0968204e-4,0.17889741,20.123117,-0.64004418)"
       gradientUnits="userSpaceOnUse"
       xlink:href="#linearGradient3600"
       id="linearGradient4194"
       y2="114.5354"
       x2="-60.908253"
       y1="13.668072"
       x1="-60.969666" />
    <linearGradient
       id="linearGradient3191-577">
      <stop
         offset="0"
         style="stop-color:#d48e15;stop-opacity:1"
         id="stop2613" />
      <stop
         offset="1"
         style="stop-color:#ad5f00;stop-opacity:1"
         id="stop2615" />
    </linearGradient>
    <linearGradient
       gradientTransform="matrix(0.3763801,0.03615261,0.03669995,0.374874,-2.2182805,-1.1331002)"
       gradientUnits="userSpaceOnUse"
       xlink:href="#linearGradient3191-577"
       id="linearGradient3857"
       y2="41.391716"
       x2="9.5220556"
       y1="37.371799"
       x1="5.5178981" />
    <linearGradient
       id="linearGradient3290-678">
      <stop
         offset="0"
         style="stop-color:#fff394;stop-opacity:1"
         id="stop2607" />
      <stop
         offset="1"
         style="stop-color:#fafafa;stop-opacity:1"
         id="stop2609" />
    </linearGradient>
    <linearGradient
       gradientTransform="matrix(0.4040235,-0.4056919,0.6073752,0.602268,-17.636692,0.462492)"
       gradientUnits="userSpaceOnUse"
       xlink:href="#linearGradient3290-678"
       id="linearGradient3855"
       y2="26.02973"
       x2="9"
       y1="29.056757"
       x1="9" />
    <linearGradient
       id="linearGradient3223-699">
      <stop
         offset="0"
         style="stop-color:#abacae;stop-opacity:1"
         id="stop2599" />
      <stop
         offset="0.5"
         style="stop-color:#fafafa;stop-opacity:1"
         id="stop2601" />
      <stop
         offset="1"
         style="stop-color:#abacae;stop-opacity:1"
         id="stop2603" />
    </linearGradient>
    <linearGradient
       gradientTransform="matrix(0.4040235,-0.4056919,0.6073752,0.6022679,-17.177369,-2.1969969e-4)"
       gradientUnits="userSpaceOnUse"
       xlink:href="#linearGradient3223-699"
       id="linearGradient3853"
       y2="30.000141"
       x2="30.037716"
       y1="24.989594"
       x1="30.037716" />
    <linearGradient
       id="linearGradient3240-907">
      <stop
         offset="0"
         style="stop-color:#555761;stop-opacity:1"
         id="stop2591" />
      <stop
         offset="0.5"
         style="stop-color:#abacae;stop-opacity:1"
         id="stop2593" />
      <stop
         offset="1"
         style="stop-color:#555761;stop-opacity:1"
         id="stop2595" />
    </linearGradient>
    <linearGradient
       gradientTransform="matrix(0.4040235,-0.4056919,0.6073752,0.6022679,-17.061661,-0.1164056)"
       gradientUnits="userSpaceOnUse"
       xlink:href="#linearGradient3240-907"
       id="linearGradient3851"
       y2="30.000141"
       x2="30.037716"
       y1="24.989594"
       x1="30.037716" />
    <linearGradient
       id="linearGradient3223-768">
      <stop
         offset="0"
         style="stop-color:#abacae;stop-opacity:1"
         id="stop2583" />
      <stop
         offset="0.5"
         style="stop-color:#fafafa;stop-opacity:1"
         id="stop2585" />
      <stop
         offset="1"
         style="stop-color:#abacae;stop-opacity:1"
         id="stop2587" />
    </linearGradient>
    <linearGradient
       gradientTransform="matrix(0.4040235,-0.4056919,0.6073752,0.6022679,-17.581392,0.4054707)"
       gradientUnits="userSpaceOnUse"
       xlink:href="#linearGradient3223-768"
       id="linearGradient3849"
       y2="30.000141"
       x2="30.037716"
       y1="24.989594"
       x1="30.037716" />
    <linearGradient
       id="linearGradient3240-686">
      <stop
         offset="0"
         style="stop-color:#555761;stop-opacity:1"
         id="stop2575" />
      <stop
         offset="0.5"
         style="stop-color:#abacae;stop-opacity:1"
         id="stop2577" />
      <stop
         offset="1"
         style="stop-color:#555761;stop-opacity:1"
         id="stop2579" />
    </linearGradient>
    <linearGradient
       gradientTransform="matrix(0.4040235,-0.4056919,0.6073752,0.6022679,-17.465684,0.2892868)"
       gradientUnits="userSpaceOnUse"
       xlink:href="#linearGradient3240-686"
       id="linearGradient3847"
       y2="30.000141"
       x2="30.037716"
       y1="24.989594"
       x1="30.037716" />
    <linearGradient
       id="linearGradient3223-789">
      <stop
         offset="0"
         style="stop-color:#abacae;stop-opacity:1"
         id="stop2567" />
      <stop
         offset="0.5"
         style="stop-color:#fafafa;stop-opacity:1"
         id="stop2569" />
      <stop
         offset="1"
         style="stop-color:#abacae;stop-opacity:1"
         id="stop2571" />
    </linearGradient>
    <linearGradient
       gradientTransform="matrix(0.4040235,-0.4056919,0.6073752,0.6022679,-17.983472,0.8092126)"
       gradientUnits="userSpaceOnUse"
       xlink:href="#linearGradient3223-789"
       id="linearGradient3845"
       y2="30.000141"
       x2="30.037716"
       y1="24.989594"
       x1="30.037716" />
    <linearGradient
       id="linearGradient3240-279">
      <stop
         offset="0"
         style="stop-color:#555761;stop-opacity:1"
         id="stop2559" />
      <stop
         offset="0.5"
         style="stop-color:#abacae;stop-opacity:1"
         id="stop2561" />
      <stop
         offset="1"
         style="stop-color:#555761;stop-opacity:1"
         id="stop2563" />
    </linearGradient>
    <linearGradient
       gradientTransform="matrix(0.4040235,-0.4056919,0.6073752,0.6022679,-17.867764,0.6930272)"
       gradientUnits="userSpaceOnUse"
       xlink:href="#linearGradient3240-279"
       id="linearGradient3843"
       y2="30.000141"
       x2="30.037716"
       y1="24.989594"
       x1="30.037716" />
    <linearGradient
       id="linearGradient3155-40">
      <stop
         offset="0"
         style="stop-color:#555761;stop-opacity:1"
         id="stop2541" />
      <stop
         offset="0.13482948"
         style="stop-color:#d4d4d4;stop-opacity:1"
         id="stop2543" />
      <stop
         offset="0.20224422"
         style="stop-color:#abacae;stop-opacity:1"
         id="stop2545" />
      <stop
         offset="0.26965895"
         style="stop-color:#fafafa;stop-opacity:1"
         id="stop2547" />
      <stop
         offset="0.44650277"
         style="stop-color:#abacae;stop-opacity:1"
         id="stop2549" />
      <stop
         offset="0.57114136"
         style="stop-color:#abacae;stop-opacity:1"
         id="stop2551" />
      <stop
         offset="0.72038066"
         style="stop-color:#d4d4d4;stop-opacity:1"
         id="stop2553" />
      <stop
         offset="1"
         style="stop-color:#555761;stop-opacity:1"
         id="stop2555" />
    </linearGradient>
    <linearGradient
       spreadMethod="pad"
       gradientTransform="matrix(0.415777,-0.4174938,0.518983,0.5146192,-15.747227,2.6503673)"
       gradientUnits="userSpaceOnUse"
       xlink:href="#linearGradient985"
       id="linearGradient3841"
       y2="31.210939"
       x2="23.575972"
       y1="25.356892"
       x1="23.575972" />
    <linearGradient
       spreadMethod="pad"
       y2="31.210939"
       x2="23.575972"
       y1="25.356892"
       x1="23.575972"
       gradientTransform="matrix(0.34152048,-0.34376139,0.42629419,0.42373374,-1.9585025,8.453782)"
       gradientUnits="userSpaceOnUse"
       id="linearGradient964"
       xlink:href="#linearGradient3155-40" />
  </defs>
  <metadata
     id="metadata7">
    <rdf:RDF>
      <cc:Work
         rdf:about="">
        <dc:format>image/svg+xml</dc:format>
        <dc:type
           rdf:resource="http://purl.org/dc/dcmitype/StillImage" />
      </cc:Work>
    </rdf:RDF>
  </metadata>
  <g
     id="layer1">
    <path
       style="display:inline;fill:none;fill-opacity:1;stroke:url(#linearGradient4196);stroke-width:0.999997;stroke-linecap:round;stroke-linejoin:round;stroke-miterlimit:4;stroke-dasharray:none;stroke-opacity:1"
       id="path14317"
       d="m 3.5115119,1.4999985 c 3.5676465,0.00218 11.0575241,0.00674 14.6251701,0.00892 -0.0032,5.2237671 0.01825,13.7856835 0.01509,18.9910805 -4.883936,-0.0029 -9.7678734,-0.006 -14.6518106,-0.0089 0.00385,-6.330353 0.0077,-12.6607085 0.011547,-18.9910628 z" />
    <g
       style="display:inline;stroke-width:2.303;stroke-miterlimit:4;stroke-dasharray:none"
       id="g3490"
       transform="matrix(0.40944471,0,0,0.42210964,1.2757012,1.9271744)">
      <g
         style="display:inline;stroke-width:128.404;stroke-miterlimit:4;stroke-dasharray:none"
         id="g5022"
         transform="matrix(0.02165152,0,0,0.01485743,43.0076,42.68539)">
        <rect
           style="display:inline;overflow:visible;visibility:visible;opacity:0.402062;fill:url(#linearGradient4532);fill-opacity:1;fill-rule:nonzero;stroke:none;stroke-width:128.404;marker:none"
           id="rect4173"
           y="-150.69685"
           x="-1559.2523"
           height="478.35718"
           width="1339.6335" />
        <path
           style="display:inline;overflow:visible;visibility:visible;opacity:0.402062;fill:url(#radialGradient4534);fill-opacity:1;fill-rule:nonzero;stroke:none;stroke-width:128.404;marker:none"
           id="path5058"
           d="m -219.61876,-150.68038 c 0,0 0,478.33079 0,478.33079 142.874166,0.90045 345.40022,-107.16966 345.40014,-239.196175 0,-132.026537 -159.436816,-239.134595 -345.40014,-239.134615 z" />
        <path
           style="display:inline;overflow:visible;visibility:visible;opacity:0.402062;fill:url(#radialGradient4536);fill-opacity:1;fill-rule:nonzero;stroke:none;stroke-width:128.404;marker:none"
           id="path5018"
           d="m -1559.2523,-150.68038 c 0,0 0,478.33079 0,478.33079 -142.8742,0.90045 -345.4002,-107.16966 -345.4002,-239.196175 0,-132.026537 159.4368,-239.134595 345.4002,-239.134615 z" />
      </g>
    </g>
    <path
       style="display:inline;fill:url(#linearGradient4194);fill-opacity:1;stroke:none;stroke-width:0.999998;stroke-linecap:round;stroke-linejoin:round;stroke-miterlimit:4;stroke-dasharray:none;stroke-opacity:1"
       id="path2855"
       d="M 4.0110364,2 C 7.4198959,2.00207 14.576418,2.00639 17.985277,2.00845 17.982219,6.9572825 18.002715,15.068571 17.999695,20 13.333131,19.997253 8.6665653,19.994316 4,19.991568 4.0036786,13.994392 4.0073573,7.9972135 4.0110331,2.0000357 Z" />
    <path
       style="opacity:0.15;fill:#0c0c0c;fill-opacity:1;fill-rule:evenodd;stroke:none"
       id="path2422"
       d="m 17.228502,10.425224 c -0.08415,-0.04997 -0.14927,-0.03697 -0.192287,-0.0092 l -5.729561,3.680068 -1.054515,0.679216 -0.03247,0.01374 -1.2484842,2.837694 3.0940812,0.094 0.02569,-0.01734 1.061294,-0.675616 5.728135,-3.711803 C 19.052458,13.204771 18.780316,12.467711 18.269908,11.659715 17.8871,11.053721 17.480962,10.575087 17.2285,10.425186 Z" />
    <g
       style="fill:#999999"
       id="g4198"
       transform="matrix(1.0195441,0,0,1,32.167123,7.7733386)">
      <path
         style="display:inline;opacity:0.7;fill:#999999;fill-opacity:1;stroke:none"
         id="path6035"
         d="m -25.665515,-2.7733386 h 1.124072 v 1 h -1.124072 z" />
      <path
         style="display:inline;opacity:0.7;fill:#999999;fill-opacity:1;stroke:none"
         id="path6033"
         d="m -24.388326,-2.7733386 h 1.060612 v 1 h -1.060612 z" />
      <path
         style="display:inline;opacity:0.7;fill:#999999;fill-opacity:1;stroke:none"
         id="path6031"
         d="m -23.174597,-2.7733386 h 0.933684 v 1 h -0.933684 z" />
      <path
         style="display:inline;opacity:0.7;fill:#999999;fill-opacity:1;stroke:none"
         id="path6029"
         d="m -22.087797,-2.7733386 h 0.410114 v 1 h -0.410114 z" />
      <path
         style="display:inline;opacity:0.7;fill:#999999;fill-opacity:1;stroke:none"
         id="path6027"
         d="m -21.524561,-2.7733386 h 0.917815 v 1 h -0.917815 z" />
      <path
         style="display:inline;opacity:0.7;fill:#999999;fill-opacity:1;stroke:none"
         id="path6025"
         d="m -20.453624,-2.7733386 h 2.377462 v 1 h -2.377462 z" />
      <path
         style="display:inline;opacity:0.7;fill:#999999;fill-opacity:1;stroke:none"
         id="path6023"
         d="m -17.923045,-2.7733386 h 1.806297 v 1 h -1.806297 z" />
      <path
         style="display:inline;opacity:0.7;fill:#999999;fill-opacity:1;stroke:none"
         id="path5999"
         d="m -25.665515,-0.77333856 h 1.742834 v 1 h -1.742834 z" />
      <path
         style="display:inline;opacity:0.7;fill:#999999;fill-opacity:1;stroke:none"
         id="path5997"
         d="m -23.76361,-0.77333856 h 0.838487 v 1 h -0.838487 z" />
      <path
         style="display:inline;opacity:0.7;fill:#999999;fill-opacity:1;stroke:none"
         id="path5995"
         d="m -22.766052,-0.77333856 h 0.394245 v 1 h -0.394245 z" />
      <path
         style="display:inline;opacity:0.7;fill:#999999;fill-opacity:1;stroke:none"
         id="path5993"
         d="m -22.212735,-0.77333856 h 0.759159 v 1 h -0.759159 z" />
      <path
         style="display:inline;opacity:0.7;fill:#999999;fill-opacity:1;stroke:none"
         id="path5991"
         d="m -21.29451,-0.77333856 h 0.759159 v 1 h -0.759159 z" />
      <path
         style="display:inline;opacity:0.7;fill:#999999;fill-opacity:1;stroke:none"
         id="path5989"
         d="m -20.376281,-0.77333856 h 1.219264 v 1 h -1.219264 z" />
      <path
         style="display:inline;opacity:0.7;fill:#999999;fill-opacity:1;stroke:none"
         id="path5987"
         d="m -18.99795,-0.77333856 h 1.600045 v 1 h -1.600045 z" />
      <path
         style="display:inline;opacity:0.7;fill:#999999;fill-opacity:1;stroke:none"
         id="path5985"
         d="m -17.238834,-0.77333856 h 1.076471 v 1 h -1.076471 z" />
      <path
         style="display:inline;opacity:0.7;fill:#999999;fill-opacity:1;stroke:none"
         id="path5981"
         d="m -25.665515,1.2266614 h 1.996685 v 1 h -1.996685 z" />
      <path
         style="display:inline;opacity:0.7;fill:#999999;fill-opacity:1;stroke:none"
         id="path5979"
         d="m -23.512309,1.2266614 h 2.139471 v 1 h -2.139471 z" />
      <path
         style="display:inline;opacity:0.7;fill:#999999;fill-opacity:1;stroke:none"
         id="path5977"
         d="m -21.216317,1.2266614 h 0.854355 v 1 h -0.854355 z" />
      <path
         style="display:inline;opacity:0.7;fill:#999999;fill-opacity:1;stroke:none"
         id="path5975"
         d="m -20.205441,1.2266614 h 2.012548 v 1 h -2.012548 z" />
      <path
         style="display:inline;opacity:0.7;fill:#999999;fill-opacity:1;stroke:none"
         id="path5971"
         d="m -18.036372,1.2266614 h 1.377919 v 1 h -1.377919 z" />
      <path
         style="display:inline;opacity:0.7;fill:#999999;fill-opacity:1;stroke:none"
         id="path5965"
         d="m -25.665515,9.2266614 h 1.996686 v 0.9999996 h -1.996686 z" />
      <path
         style="display:inline;opacity:0.7;fill:#999999;fill-opacity:1;stroke:none"
         id="path5963"
         d="m -23.512309,9.2266614 h 2.139473 v 0.9999996 h -2.139473 z" />
      <path
         style="display:inline;opacity:0.7;fill:#999999;fill-opacity:1;stroke:none"
         id="path5961"
         d="m -21.216315,9.2266614 h 0.854355 v 0.9999996 h -0.854355 z" />
      <path
         style="display:inline;opacity:0.7;fill:#999999;fill-opacity:1;stroke:none"
         id="path5959"
         d="m -20.205439,9.2266614 h 2.012549 v 0.9999996 h -2.012549 z" />
      <path
         style="display:inline;opacity:0.7;fill:#999999;fill-opacity:1;stroke:none"
         id="path5957"
         d="m -16.501929,9.2266614 h 0.537037 v 0.9999996 h -0.537037 z" />
      <path
         style="display:inline;opacity:0.7;fill:#999999;fill-opacity:1;stroke:none"
         id="path5955"
         d="m -18.036369,9.2266614 h 1.377919 v 0.9999996 h -1.377919 z" />
      <path
         style="display:inline;opacity:0.7;fill:#999999;fill-opacity:1;stroke:none"
         id="path5949"
         d="m -25.665515,5.2266614 h 1.441384 v 1 h -1.441384 z" />
      <path
         style="display:inline;opacity:0.7;fill:#999999;fill-opacity:1;stroke:none"
         id="path5947"
         d="m -24.071009,5.2266614 h 2.393326 v 1 h -2.393326 z" />
      <path
         style="display:inline;opacity:0.7;fill:#999999;fill-opacity:1;stroke:none"
         id="path5945"
         d="m -21.524561,5.2266614 h 1.155799 v 1 h -1.155799 z" />
      <path
         style="display:inline;opacity:0.7;fill:#999999;fill-opacity:1;stroke:none"
         id="path5943"
         d="m -18.986049,5.2266614 h 0.917816 v 1 h -0.917816 z" />
      <path
         style="display:inline;opacity:0.7;fill:#999999;fill-opacity:1;stroke:none"
         id="path5941"
         d="m -17.915112,5.2266614 h 1.473117 v 1 h -1.473117 z" />
      <path
         style="display:inline;opacity:0.7;fill:#999999;fill-opacity:1;stroke:none"
         id="path5937"
         d="m -20.215641,5.2266614 h 1.076476 v 1 h -1.076476 z" />
      <path
         style="display:inline;opacity:0.7;fill:#999999;fill-opacity:1;stroke:none"
         id="path5935"
         d="m -25.665515,7.2266614 h 1.806297 v 1 h -1.806297 z" />
      <path
         style="display:inline;opacity:0.7;fill:#999999;fill-opacity:1;stroke:none"
         id="path5933"
         d="m -23.710065,7.2266614 h 0.56877 v 1 h -0.56877 z" />
      <path
         style="display:inline;opacity:0.7;fill:#999999;fill-opacity:1;stroke:none"
         id="path5931"
         d="m -22.992143,7.2266614 h 1.298596 v 1 h -1.298596 z" />
      <path
         style="display:inline;opacity:0.7;fill:#999999;fill-opacity:1;stroke:none"
         id="path5929"
         d="m -21.544395,7.2266614 h 0.886087 v 1 h -0.886087 z" />
      <path
         style="display:inline;opacity:0.7;fill:#999999;fill-opacity:1;stroke:none"
         id="path5927"
         d="m -20.509155,7.2266614 h 0.886082 v 1 h -0.886082 z" />
      <path
         style="display:inline;opacity:0.7;fill:#999999;fill-opacity:1;stroke:none"
         id="path5925"
         d="m -19.473916,7.2266614 h 1.282728 v 1 h -1.282728 z" />
      <path
         style="display:inline;opacity:0.7;fill:#999999;fill-opacity:1;stroke:none"
         id="path5923"
         d="m -18.042041,7.2266614 h 0.267326 v 1 h -0.267326 z" />
      <path
         style="display:inline;opacity:0.7;fill:#999999;fill-opacity:1;stroke:none"
         id="path5921"
         d="m -17.625563,7.2266614 h 1.663505 v 1 h -1.663505 z" />
    </g>
    <g
       id="g8626"
       transform="matrix(0.821403,0,0,0.8233928,9.1769628,4.2711606)">
      <path
         style="fill:url(#linearGradient3841);fill-opacity:1;stroke:none;stroke-width:0.607979;stroke-linecap:butt;stroke-linejoin:round;stroke-miterlimit:4;stroke-dasharray:none;stroke-dashoffset:0;stroke-opacity:1"
         id="path3041"
         d="m 2.0488085,11.037368 c 0.2865424,-0.207707 1.1479509,0.256388 1.9603385,1.061945 0.8104458,0.803629 1.2601996,1.641331 1.0575577,1.930575 -7.708e-4,0.0011 0.01977,0.01774 0.01898,0.01882 L 15.224149,3.8683779 C 15.481557,3.6099071 15.011041,2.7247557 14.172862,1.893626 13.334685,1.0624962 12.444681,0.59856571 12.187272,0.85703737 Z" />
      <path
         style="opacity:0.6;fill:#f9c440;fill-opacity:1;stroke:none"
         id="path3045"
         d="m 2.0488079,11.037368 c 0.286543,-0.207708 1.1479512,0.256388 1.960339,1.061943 0.8104449,0.80363 1.2601992,1.641332 1.0575579,1.930577 -7.714e-4,0.0011 0.01977,0.01774 0.01898,0.01882 l 6.9820302,-7.0108637 0.02525,-0.025356 c 7.9e-4,-0.00108 -0.01975,-0.01772 -0.01898,-0.01882 C 12.276628,6.7044221 11.826873,5.8667226 11.01643,5.0630931 10.204041,4.2575368 9.3426319,3.7934425 9.0560897,4.0011493 l -0.025251,0.025355 z" />
      <path
         d="m 2.0488085,11.037368 c 0.2865424,-0.207707 1.1479509,0.256388 1.9603385,1.061945 0.8104458,0.803629 1.2601996,1.641331 1.0575577,1.930575 -7.708e-4,0.0011 0.01977,0.01774 0.01898,0.01882 L 15.224149,3.8683779 C 15.481557,3.6099071 15.011041,2.7247557 14.172862,1.893626 13.334685,1.0624962 12.444681,0.59856571 12.187272,0.85703737 Z"
         id="path967"
         style="fill:none;fill-opacity:1;stroke:#ad5f00;stroke-width:0.607979;stroke-linecap:butt;stroke-linejoin:round;stroke-miterlimit:4;stroke-dasharray:none;stroke-dashoffset:0;stroke-opacity:1" />
      <path
         id="path960"
         transform="matrix(1.2174292,0,0,1.2144872,-13.362889,-7.6166425)"
         d="m 21.089844,6.9238281 c -0.04157,0.00859 -0.07709,0.026131 -0.103516,0.052734 l -2.572266,2.5898437 c 0.235367,-0.1710242 0.94403,0.2097577 1.611329,0.8730472 0.6657,0.661703 1.035592,1.351681 0.86914,1.589844 -6.32e-4,9.06e-4 0.01627,0.01474 0.01563,0.01563 L 23.482422,9.4570312 C 23.693858,9.2442083 23.30567,8.5144243 22.617188,7.8300781 22.014767,7.2312751 21.38083,6.8637258 21.089844,6.9238281 Z"
         style="fill:url(#linearGradient964);fill-opacity:1;stroke:#555761;stroke-width:0.5;stroke-linecap:butt;stroke-linejoin:round;stroke-miterlimit:4;stroke-dasharray:none;stroke-dashoffset:0;stroke-opacity:1" />
      <path
         style="opacity:0.9;fill:#fe9ab8;fill-opacity:1;stroke:#de3e80;stroke-width:0.607979;stroke-linecap:butt;stroke-linejoin:round;stroke-miterlimit:4;stroke-dasharray:none;stroke-dashoffset:0;stroke-opacity:1"
         id="path3043"
         d="m 10.565423,2.4840909 c 0.286542,-0.2077065 1.147951,0.2563879 1.960338,1.0619443 0.810445,0.8036291 1.260199,1.6413295 1.057557,1.9305744 -7.69e-4,0.0011 0.01977,0.017738 0.01898,0.018821 L 15.154234,3.9383089 C 15.562715,3.5297289 15.124956,2.8454879 14.172862,1.893626 13.360476,1.0880699 12.499066,0.6239749 12.212525,0.83168148 l -0.02525,0.0253559 -1.621849,1.62705352 z" />
      <path
         style="fill:url(#linearGradient3843);fill-opacity:1;stroke:none"
         id="path3047"
         d="m 9.1785348,3.8767048 c 0.2865413,-0.2077068 1.1479522,0.2563879 1.9603392,1.0619443 0.810445,0.8036291 1.2602,1.6413294 1.057556,1.9305753 -7.71e-4,0.0011 0.01977,0.017736 0.01898,0.01882 l 0.126256,-0.1267795 c 7.9e-4,-0.00108 -0.01975,-0.01772 -0.01898,-0.01882 C 12.525331,6.4531992 12.075576,5.6154986 11.26513,4.8118704 10.452743,4.0063135 9.5913335,3.542219 9.3047918,3.7499256 Z" />
      <path
         style="fill:url(#linearGradient3845);fill-opacity:1;stroke:none"
         id="path3049"
         d="m 9.0628273,3.9928895 c 0.2865436,-0.2077068 1.1479527,0.2563878 1.9603397,1.061944 0.810444,0.8036294 1.2602,1.6413292 1.057556,1.9305742 -7.71e-4,0.0011 0.01977,0.017738 0.01898,0.018822 L 12.22596,6.8774498 c 7.9e-4,-0.00108 -0.01975,-0.017721 -0.01898,-0.018821 C 12.409623,6.569384 11.95987,5.7316836 11.149423,4.9280545 10.337036,4.1224982 9.4756273,3.6584033 9.1890844,3.8661101 Z" />
      <path
         style="fill:url(#linearGradient3847);fill-opacity:1;stroke:none"
         id="path3051"
         d="m 9.5806143,3.4729643 c 0.2865426,-0.2077069 1.1479517,0.2563872 1.9603387,1.0619442 0.810446,0.803629 1.2602,1.6413292 1.057558,1.9305747 -7.73e-4,0.0011 0.01977,0.017737 0.01898,0.01882 l 0.126258,-0.1267784 c 7.91e-4,-0.00108 -0.01975,-0.017721 -0.01898,-0.01882 C 12.927411,6.0494594 12.477656,5.2117588 11.66721,4.4081298 10.854824,3.6025731 9.9934151,3.1384786 9.7068717,3.3461854 Z" />
      <path
         style="fill:url(#linearGradient3849);fill-opacity:1;stroke:none"
         id="path3053"
         d="m 9.4649071,3.5891488 c 0.2865435,-0.207707 1.1479529,0.2563877 1.9603379,1.061944 0.810447,0.8036298 1.260201,1.6413294 1.057558,1.9305748 -7.69e-4,0.0011 0.01977,0.017737 0.01898,0.018821 l 0.126257,-0.12678 c 7.9e-4,-0.00108 -0.01975,-0.01772 -0.01898,-0.01882 C 12.811705,6.1656438 12.361949,5.3279425 11.551504,4.5243147 10.739118,3.718758 9.877708,3.254663 9.5911645,3.46237 Z" />
      <path
         style="fill:url(#linearGradient3851);fill-opacity:1;stroke:none"
         id="path3055"
         d="M 9.9846388,3.0672723 C 10.27118,2.8595657 11.13259,3.3236601 11.944976,4.1292168 c 0.810446,0.8036288 1.260201,1.641329 1.057558,1.9305741 -7.7e-4,0.0011 0.01977,0.017738 0.01898,0.018821 L 13.14777,5.9518328 c 7.92e-4,-0.00108 -0.01975,-0.017721 -0.01898,-0.018821 C 13.331434,5.6437674 12.881679,4.8060668 12.071233,4.0024374 11.258848,3.1968815 10.397438,2.7327869 10.110895,2.9404937 Z" />
      <path
         style="fill:url(#linearGradient3853);fill-opacity:1;stroke:none"
         id="path3057"
         d="m 9.8689318,3.1834569 c 0.2865412,-0.2077072 1.1479512,0.2563879 1.9603392,1.0619447 0.810444,0.8036283 1.260198,1.6413291 1.057556,1.9305739 -7.71e-4,0.0011 0.01977,0.017737 0.01898,0.018821 l 0.126258,-0.1267782 c 7.89e-4,-0.00108 -0.01975,-0.017722 -0.01898,-0.018821 C 13.215727,5.7599515 12.765972,4.9222512 11.955527,4.1186224 11.143141,3.313066 10.281731,2.848971 9.9951884,3.0566783 Z" />
      <path
         style="fill:url(#linearGradient3855);fill-opacity:1;fill-rule:evenodd;stroke:url(#linearGradient3857);stroke-width:0.607979;stroke-linecap:butt;stroke-linejoin:miter;stroke-miterlimit:4;stroke-dasharray:none;stroke-opacity:1"
         id="path3059"
         d="m 0.25980529,15.79419 4.77185621,-1.725488 0.039308,-0.03926 C 5.2736124,13.740202 4.8185731,12.902156 4.0081274,12.098526 3.1957395,11.29297 2.335449,10.831246 2.0489062,11.038953 Z" />
      <path
         style="fill:#333333;fill-opacity:1;fill-rule:evenodd;stroke:#1a1a1a;stroke-width:0.607979;stroke-linecap:butt;stroke-linejoin:miter;stroke-miterlimit:4;stroke-dasharray:none;stroke-opacity:1"
         id="path3061"
         d="M 0.7444326,14.506276 0.25922075,15.788967 1.560593,15.315574 C 1.446907,15.182439 1.3413094,15.047739 1.2062351,14.913801 1.0507282,14.759602 0.89915498,14.633134 0.7444326,14.506276 Z" />
    </g>
  </g>
</svg>
