<?xml version="1.0" encoding="UTF-8" standalone="no"?>
<svg
   xmlns:dc="http://purl.org/dc/elements/1.1/"
   xmlns:cc="http://creativecommons.org/ns#"
   xmlns:rdf="http://www.w3.org/1999/02/22-rdf-syntax-ns#"
   xmlns:svg="http://www.w3.org/2000/svg"
   xmlns="http://www.w3.org/2000/svg"
   xmlns:xlink="http://www.w3.org/1999/xlink"
   id="svg3320"
   height="22"
   width="22"
   version="1.0">
  <metadata
     id="metadata4930">
    <rdf:RDF>
      <cc:Work
         rdf:about="">
        <dc:format>image/svg+xml</dc:format>
        <dc:type
           rdf:resource="http://purl.org/dc/dcmitype/StillImage" />
        <dc:title />
      </cc:Work>
    </rdf:RDF>
  </metadata>
  <defs
     id="defs3322">
    <linearGradient
       id="linearGradient3699">
      <stop
         offset="0"
         style="stop-color:#f8b17e;stop-opacity:1"
         id="stop3701" />
      <stop
         offset="0.26238"
         style="stop-color:#e35d4f;stop-opacity:1"
         id="stop3703" />
      <stop
         offset="0.74740618"
         style="stop-color:#c6262e;stop-opacity:1"
         id="stop3705" />
      <stop
         offset="1"
         style="stop-color:#690b54;stop-opacity:1"
         id="stop3707" />
    </linearGradient>
    <linearGradient
       id="linearGradient2490">
      <stop
         offset="0"
         style="stop-color:#791235;stop-opacity:1"
         id="stop2492" />
      <stop
         offset="1"
         style="stop-color:#dd3b27;stop-opacity:1"
         id="stop2494" />
    </linearGradient>
    <linearGradient
       id="linearGradient4873">
      <stop
         offset="0"
         style="stop-color:#ffffff;stop-opacity:1"
         id="stop4875" />
      <stop
         offset="1"
         style="stop-color:#ffffff;stop-opacity:0"
         id="stop4877" />
    </linearGradient>
    <linearGradient
       gradientTransform="matrix(1.132267,0,0,1.1047717,-1.6900185,-1.5992352)"
       y2="23.643658"
       x2="7.1931496"
       y1="1.8041536"
       x1="7.1931496"
       gradientUnits="userSpaceOnUse"
       id="linearGradient3063"
       xlink:href="#linearGradient4873" />
    <radialGradient
       r="18.656607"
       fy="-9.2804718"
       fx="-1.7499615"
       cy="-9.2804718"
       cx="-1.7499615"
       gradientTransform="matrix(-0.0048138,1.2022617,-1.12881,-0.00451982,-3.7917777,4.6709955)"
       gradientUnits="userSpaceOnUse"
       id="radialGradient3066"
       xlink:href="#linearGradient3699" />
    <linearGradient
       gradientTransform="matrix(1.4018762,0,0,1.401894,-0.31684529,-0.19475848)"
       y2="0"
       x2="4"
       y1="18.827068"
       x1="3.8195488"
       gradientUnits="userSpaceOnUse"
       id="linearGradient3068"
       xlink:href="#linearGradient2490" />
  </defs>
  <path
     d="M 20.036792,19.648097 13.051356,17.220996 7.3505726,21.5075 6.02033,15.896983 0.49249998,17.302932 4.5966443,11.724003 0.81176238,6.1248714 6.0863003,6.1687802 8.1422468,0.49250002 12.825037,3.6291035 19.853878,0.74785212 17.073862,7.6538048 l 4.349126,3.5326902 -4.328993,2.051373 2.942797,6.410229 z"
     id="path2160"
     style="fill:url(#radialGradient3066);fill-opacity:1;stroke:url(#linearGradient3068);stroke-width:0.98499995;stroke-linecap:round;stroke-linejoin:round;stroke-miterlimit:4;stroke-opacity:1;stroke-dasharray:none;stroke-dashoffset:0" />
  <path
     d="M 8.7480679,1.8186523 7.1912008,6.2032149 A 1.4598902,1.424439 0 0 1 5.8112504,7.1353661 L 2.8390495,7.1008419 5.3866503,10.898495 a 1.4598902,1.424439 0 0 1 0,1.622633 l -2.052234,2.796453 2.052234,-0.517861 a 1.4598902,1.424439 0 0 1 1.7691672,1.070247 l 0.9199669,3.866701 4.3167676,-3.245267 a 1.4598902,1.424439 0 0 1 1.379951,-0.207144 l 4.281384,1.484537 -1.769167,-3.832177 a 1.4598902,1.424439 0 0 1 0.707667,-1.864302 L 19.646138,10.829446 16.70932,8.4472825 A 1.4598902,1.424439 0 0 1 16.28472,6.824649 l 1.733784,-4.3155144 -4.387535,1.795254 A 1.4598902,1.424439 0 0 1 12.251019,4.1662921 L 8.7480679,1.8186523 z"
     id="path3200"
     style="opacity:0.4;fill:none;stroke:url(#linearGradient3063);stroke-width:0.98466003;stroke-linecap:round;stroke-linejoin:miter;stroke-miterlimit:4;stroke-opacity:1;stroke-dasharray:none;stroke-dashoffset:0" />
  <path
     d="m 9.5569711,4.2866864 c 0.331945,2.8104459 0.7121699,5.6015486 0.9947399,8.4230026 0.284211,0 0.617557,0 0.901768,0 C 11.687862,10.000198 12.06591,7.3070805 12.338622,4.6009486 12.477636,3.9601747 12.098069,3.1993759 11.317408,3.0436965 10.546,2.8482108 9.6841441,3.3322952 9.5815701,4.0237706 c -0.01701,0.086803 -0.0246,0.1749018 -0.0246,0.2629158 z m -0.09838,10.4260596 c -0.0351,0.836563 1.0268919,1.492345 1.9336279,1.227123 0.87824,-0.194275 1.340822,-1.151039 0.890723,-1.831133 -0.402917,-0.703026 -1.584447,-0.93466 -2.264126,-0.396605 -0.3435659,0.244652 -0.5712849,0.609885 -0.5602249,1.000616 z"
     id="path3295"
     style="font-size:62.4582634px;font-style:normal;font-variant:normal;font-weight:normal;font-stretch:normal;text-align:start;line-height:125%;writing-mode:lr-tb;text-anchor:start;opacity:0.2;fill:#000000;fill-opacity:1;stroke:none;font-family:Georgia" />
  <path
     d="M 9.5569711,5.2866867 C 9.8889161,8.0971325 10.269141,9.888545 10.551711,12.71 c 0.284211,0 0.617557,0 0.901768,0 C 11.687862,10.000507 12.06591,8.3070805 12.338622,5.600949 12.477636,4.9601751 12.098069,4.1993763 11.317408,4.0436968 10.546,3.8482113 9.6841441,4.3322954 9.5815701,5.023771 c -0.01701,0.086803 -0.0246,0.1749017 -0.0246,0.2629157 z m -0.09838,10.4260593 c -0.0351,0.836563 1.0268919,1.492345 1.9336279,1.227122 0.87824,-0.194275 1.340822,-1.151039 0.890723,-1.831132 -0.402917,-0.703026 -1.584447,-0.93466 -2.264126,-0.396605 -0.3435659,0.244652 -0.5712849,0.609885 -0.5602249,1.000615 z"
     id="text2315"
     style="font-size:62.4582634px;font-style:normal;font-variant:normal;font-weight:normal;font-stretch:normal;text-align:start;line-height:125%;writing-mode:lr-tb;text-anchor:start;fill:#ffffff;fill-opacity:1;stroke:none;font-family:Georgia" />
</svg>
