<?xml version="1.0" encoding="UTF-8" standalone="no"?>
<svg
   version="1.0"
   width="22"
   height="22"
   id="svg2"
   sodipodi:docname="blueman-device.svg"
   inkscape:version="1.2.2 (b0a8486541, 2022-12-01)"
   xmlns:inkscape="http://www.inkscape.org/namespaces/inkscape"
   xmlns:sodipodi="http://sodipodi.sourceforge.net/DTD/sodipodi-0.dtd"
   xmlns:xlink="http://www.w3.org/1999/xlink"
   xmlns="http://www.w3.org/2000/svg"
   xmlns:svg="http://www.w3.org/2000/svg"
   xmlns:rdf="http://www.w3.org/1999/02/22-rdf-syntax-ns#"
   xmlns:cc="http://creativecommons.org/ns#"
   xmlns:dc="http://purl.org/dc/elements/1.1/">
  <sodipodi:namedview
     id="namedview36"
     pagecolor="#ffffff"
     bordercolor="#666666"
     borderopacity="1.0"
     inkscape:pageshadow="2"
     inkscape:pageopacity="0.0"
     inkscape:pagecheckerboard="0"
     showgrid="false"
     inkscape:zoom="22.627417"
     inkscape:cx="10.717087"
     inkscape:cy="11.689359"
     inkscape:window-width="1317"
     inkscape:window-height="890"
     inkscape:window-x="-135"
     inkscape:window-y="47"
     inkscape:window-maximized="0"
     inkscape:current-layer="svg2"
     inkscape:showpageshadow="2"
     inkscape:deskcolor="#d1d1d1" />
  <metadata
     id="metadata88">
    <rdf:RDF>
      <cc:Work
         rdf:about="">
        <dc:format>image/svg+xml</dc:format>
        <dc:type
           rdf:resource="http://purl.org/dc/dcmitype/StillImage" />
      </cc:Work>
    </rdf:RDF>
  </metadata>
  <defs
     id="defs4">
    <linearGradient
       id="linearGradient4075">
      <stop
         id="stop4077"
         style="stop-color:#ffffff;stop-opacity:0.30000001"
         offset="0" />
      <stop
         id="stop4079"
         style="stop-color:#ffffff;stop-opacity:0.23529412"
         offset="0.00514398" />
      <stop
         id="stop4081"
         style="stop-color:#ffffff;stop-opacity:0.15686275"
         offset="1" />
      <stop
         id="stop4083"
         style="stop-color:#ffffff;stop-opacity:0.1"
         offset="1" />
    </linearGradient>
    <linearGradient
       x1="22.553417"
       y1="6.6305909"
       x2="22.553417"
       y2="41.943768"
       id="linearGradient4161-4"
       xlink:href="#linearGradient4075"
       gradientUnits="userSpaceOnUse"
       gradientTransform="matrix(0.21462027,0,0,0.37092203,10.250481,-0.4954395)" />
    <linearGradient
       y2="-26.979191"
       x2="116.7913"
       y1="-37.80846"
       x1="116.7913"
       gradientTransform="matrix(0.33471938,0,0,0.59667354,-24.32865,2.3563863)"
       gradientUnits="userSpaceOnUse"
       id="linearGradient4604"
       xlink:href="#linearGradient4614" />
    <linearGradient
       id="linearGradient4614">
      <stop
         offset="0"
         style="stop-color:#ffffff;stop-opacity:1"
         id="stop4606" />
      <stop
         offset="0.03140453"
         style="stop-color:#ffffff;stop-opacity:0.23529412"
         id="stop4608" />
      <stop
         offset="0.9812181"
         style="stop-color:#ffffff;stop-opacity:0.15686275"
         id="stop4610" />
      <stop
         offset="1"
         style="stop-color:#ffffff;stop-opacity:0.39215687"
         id="stop4612" />
    </linearGradient>
    <radialGradient
       r="22.627001"
       gradientTransform="matrix(0.26516308,0,0,0.06026566,48.916692,28.466026)"
       cx="23.334999"
       cy="41.636002"
       gradientUnits="userSpaceOnUse"
       id="radialGradient7374">
      <stop
         offset="0"
         id="stop23421" />
      <stop
         offset="1"
         style="stop-opacity:0"
         id="stop23423" />
    </radialGradient>
    <linearGradient
       x1="11.098394"
       y1="5.9702148"
       x2="11.098394"
       y2="45.68882"
       id="linearGradient5466-8-3-0"
       xlink:href="#linearGradient3600-8-3"
       gradientUnits="userSpaceOnUse"
       gradientTransform="matrix(0.52572567,0,0,0.40252533,7.5136984,-1.9047797)" />
    <linearGradient
       id="linearGradient3600-8-3">
      <stop
         id="stop3602-2-6"
         style="stop-color:#64baff;stop-opacity:1"
         offset="0" />
      <stop
         id="stop3604-5-7"
         style="stop-color:#3689e6;stop-opacity:1"
         offset="1" />
    </linearGradient>
  </defs>
  <g
     id="g4579"
     transform="translate(-44.104076,-8.3392264)">
    <path
       id="path23417"
       style="opacity:0.3;fill:url(#radialGradient7374);fill-rule:evenodd;stroke-width:1"
       d="m 61.104077,30.975341 a 6.0000001,1.3636364 0 1 1 -12,0 6.0000001,1.3636364 0 1 1 12,0 z" />
  </g>
  <rect
     x="6.5"
     y="-21.5"
     width="9"
     height="9"
     ry="1"
     rx="1"
     transform="scale(1,-1)"
     style="fill:#e6e6e6;fill-opacity:1;stroke:#000000;stroke-width:1;stroke-opacity:0.302326"
     id="rect3448" />
  <g
     id="g4576"
     style="opacity:0.2"
     transform="translate(-0.99999982,-2)">
    <rect
       y="20"
       x="9"
       height="2"
       width="2"
       id="rect4570"
       style="opacity:1;fill:#000000;fill-opacity:1;stroke:none;stroke-width:2;stroke-linecap:round;stroke-linejoin:round;stroke-miterlimit:4;stroke-dasharray:none;stroke-dashoffset:0;stroke-opacity:0.4" />
    <rect
       style="opacity:1;fill:#000000;fill-opacity:1;stroke:none;stroke-width:2;stroke-linecap:round;stroke-linejoin:round;stroke-miterlimit:4;stroke-dasharray:none;stroke-dashoffset:0;stroke-opacity:0.4"
       id="rect4572"
       width="2"
       height="2"
       x="13"
       y="20" />
  </g>
  <rect
     x="7.4944277"
     y="-20.472153"
     width="7"
     height="7"
     transform="scale(1,-1)"
     style="opacity:0.6;fill:none;fill-opacity:1;stroke:url(#linearGradient4604);stroke-width:1;stroke-linecap:round;stroke-linejoin:round;stroke-miterlimit:4;stroke-dasharray:none;stroke-dashoffset:0;stroke-opacity:1;marker:none"
     id="rect3458" />
  <rect
     ry="1"
     id="rect5391-5-7"
     style="opacity:1;fill:url(#linearGradient5466-8-3-0);fill-opacity:1;stroke:none;stroke-width:0.999924;stroke-linecap:butt;stroke-linejoin:round;stroke-miterlimit:4;stroke-dasharray:none;stroke-dashoffset:0;stroke-opacity:1;marker:none"
     rx="1"
     height="16"
     width="11"
     y="0.5"
     x="5.5" />
  <rect
     ry="1"
     rx="1"
     y="0.49995935"
     x="5.4999609"
     height="16.000078"
     width="11.000078"
     id="rect901"
     style="opacity:0.3;vector-effect:none;fill:none;fill-opacity:1;stroke:#000000;stroke-width:0.999925;stroke-linecap:butt;stroke-linejoin:round;stroke-miterlimit:4;stroke-dasharray:none;stroke-dashoffset:0;stroke-opacity:1;marker:none" />
  <rect
     y="1.4999593"
     x="6.5"
     height="14"
     width="9"
     id="rect901-3"
     style="opacity:1;vector-effect:none;fill:none;fill-opacity:1;stroke:url(#linearGradient4161-4);stroke-width:1;stroke-linecap:round;stroke-linejoin:round;stroke-miterlimit:4;stroke-dasharray:none;stroke-dashoffset:0;stroke-opacity:1;marker:none" />
  <g
     style="fill:#0d52bf;fill-opacity:0.5"
     id="g2944"
     transform="matrix(0.70561795,0,0,0.71735611,5.4578112,3.2616439)">
    <path
       style="color:#bebebe;display:inline;overflow:visible;visibility:visible;fill:#0d52bf;fill-opacity:0.5;fill-rule:nonzero;stroke:none;stroke-width:1.82311;marker:none;enable-background:accumulate"
       id="path2942"
       d="M 6.9499005,1 C 6.6311714,1 6.4410574,1.2566142 6.4374833,1.5753233 V 7.1847249 L 4.2991524,5.4587552 C 3.9391382,5.1441109 3.427135,5.2066255 3.1125482,5.5666283 2.7979615,5.9266426 2.8244494,6.474592 3.1844637,6.7891902 L 5.7734183,9.0545255 3.1844637,11.319861 c -0.3600143,0.314588 -0.3865022,0.86255 -0.071916,1.222562 0.3145868,0.360012 0.82659,0.422461 1.1866042,0.107873 l 2.1383309,-1.72597 v 5.609402 c 0,0.318729 0.1936881,0.575323 0.5124172,0.575323 0.3249656,0 1.0261329,-0.02247 1.2778368,-0.215746 l 4.2961902,-3.631728 c 0.129229,-0.114961 0.208785,-0.276984 0.251704,-0.431493 0.01634,-0.05905 0.03256,-0.118919 0.0359,-0.179788 0.0046,-0.04833 0.0035,-0.0955 0,-0.143831 -0.0069,-0.06169 -0.01565,-0.1203 -0.0359,-0.179789 -0.0443,-0.15414 -0.121462,-0.317693 -0.251704,-0.431492 L 9.125174,9.0545255 12.523928,6.213867 c 0.130242,-0.113807 0.207439,-0.2773626 0.251704,-0.4314925 0.02025,-0.059543 0.02923,-0.1181081 0.0359,-0.1797885 0.0035,-0.048315 0.0046,-0.095514 0,-0.1438308 -0.0035,-0.060884 -0.01956,-0.120746 -0.0359,-0.1797885 C 12.732713,5.1244511 12.653157,4.9624292 12.523928,4.8474742 L 8.2277373,1.2157462 C 7.998425,1.0305124 7.2131684,1 6.9499005,1 Z M 7.8551557,3.2373671 10.690085,5.5306706 7.8551557,7.7121034 Z m 0,7.1595779 2.8349293,2.181435 -2.8349293,2.293301 z"
       sodipodi:nodetypes="scccccccsccsscccccccccccccccscccccccc" />
  </g>
  <g
     style="fill:#ffffff"
     id="layer1-4-1"
     transform="matrix(0.70561795,0,0,0.71735611,5.4578112,2.2616439)">
    <path
       style="color:#bebebe;display:inline;overflow:visible;visibility:visible;fill:#ffffff;fill-opacity:1;fill-rule:nonzero;stroke:none;stroke-width:1.82311;marker:none;enable-background:accumulate"
       id="rect6885-0"
       d="M 6.9499005,1 C 6.6311714,1 6.4410574,1.2566142 6.4374833,1.5753233 V 7.1847249 L 4.2991524,5.4587552 C 3.9391382,5.1441109 3.427135,5.2066255 3.1125482,5.5666283 2.7979615,5.9266426 2.8244494,6.474592 3.1844637,6.7891902 L 5.7734183,9.0545255 3.1844637,11.319861 c -0.3600143,0.314588 -0.3865022,0.86255 -0.071916,1.222562 0.3145868,0.360012 0.82659,0.422461 1.1866042,0.107873 l 2.1383309,-1.72597 v 5.609402 c 0,0.318729 0.1936881,0.575323 0.5124172,0.575323 0.3249656,0 1.0261329,-0.02247 1.2778368,-0.215746 l 4.2961902,-3.631728 c 0.129229,-0.114961 0.208785,-0.276984 0.251704,-0.431493 0.01634,-0.05905 0.03256,-0.118919 0.0359,-0.179788 0.0046,-0.04833 0.0035,-0.0955 0,-0.143831 -0.0069,-0.06169 -0.01565,-0.1203 -0.0359,-0.179789 -0.0443,-0.15414 -0.121462,-0.317693 -0.251704,-0.431492 L 9.125174,9.0545255 12.523928,6.213867 c 0.130242,-0.113807 0.207439,-0.2773626 0.251704,-0.4314925 0.02025,-0.059543 0.02923,-0.1181081 0.0359,-0.1797885 0.0035,-0.048315 0.0046,-0.095514 0,-0.1438308 -0.0035,-0.060884 -0.01956,-0.120746 -0.0359,-0.1797885 C 12.732713,5.1244511 12.653157,4.9624292 12.523928,4.8474742 L 8.2277373,1.2157462 C 7.998425,1.0305124 7.2131684,1 6.9499005,1 Z M 7.8551557,3.2373671 10.690085,5.5306706 7.8551557,7.7121034 Z m 0,7.1595779 2.8349293,2.181435 -2.8349293,2.293301 z"
       sodipodi:nodetypes="scccccccsccsscccccccccccccccscccccccc" />
  </g>
</svg>
