<?xml version="1.0" encoding="UTF-8" standalone="no"?>
<svg
   xmlns:dc="http://purl.org/dc/elements/1.1/"
   xmlns:cc="http://creativecommons.org/ns#"
   xmlns:rdf="http://www.w3.org/1999/02/22-rdf-syntax-ns#"
   xmlns:svg="http://www.w3.org/2000/svg"
   xmlns="http://www.w3.org/2000/svg"
   xmlns:xlink="http://www.w3.org/1999/xlink"
   version="1.1"
   width="22"
   height="22"
   id="svg4100">
  <defs
     id="defs4102">
    <linearGradient
       id="linearGradient947">
      <stop
         offset="0"
         style="stop-color:#64baff;stop-opacity:1"
         id="stop943" />
      <stop
         offset="1"
         style="stop-color:#3689e6;stop-opacity:1"
         id="stop945" />
    </linearGradient>
    <linearGradient
       y2="43.432285"
       x2="27.583231"
       y1="7.4575353"
       x1="27.583231"
       gradientTransform="matrix(0.45885863,0,0,0.51437915,-1.6539938,-2.0689726)"
       gradientUnits="userSpaceOnUse"
       id="linearGradient1295"
       xlink:href="#linearGradient954" />
    <linearGradient
       id="linearGradient954">
      <stop
         id="stop946"
         style="stop-color:#ffffff;stop-opacity:1"
         offset="0" />
      <stop
         id="stop948"
         style="stop-color:#ffffff;stop-opacity:0.23529412"
         offset="0.33333334" />
      <stop
         id="stop950"
         style="stop-color:#ffffff;stop-opacity:0.15686275"
         offset="0.73809522" />
      <stop
         id="stop952"
         style="stop-color:#ffffff;stop-opacity:0.39215687"
         offset="1" />
    </linearGradient>
    <linearGradient
       gradientTransform="matrix(0.45454547,0,0,0.46665642,21.909092,-0.19971926)"
       gradientUnits="userSpaceOnUse"
       y2="46.525425"
       x2="-24"
       y1="2"
       x1="-24"
       id="linearGradient880-3"
       xlink:href="#linearGradient947" />
  </defs>
  <metadata
     id="metadata4105">
    <rdf:RDF>
      <cc:Work
         rdf:about="">
        <dc:format>image/svg+xml</dc:format>
        <dc:type
           rdf:resource="http://purl.org/dc/dcmitype/StillImage" />
        <dc:title />
      </cc:Work>
    </rdf:RDF>
  </metadata>
  <path
     id="path855-0"
     d="M 8.5174247,21.291634 C 6.1099825,20.60179 4.6493816,18.884737 3.9181153,15.88477 3.520823,14.254922 3.3659465,9.8874646 3.6334425,7.8570427 c 0.6033627,-4.579869 2.443968,-6.793519 6.0356994,-7.25897596 1.0036361,-0.130062 1.6718761,-0.130351 2.6688101,-9.33e-4 3.619576,0.46906896 5.443035,2.70865596 6.05684,7.43905396 0.212282,1.6360129 0.08431,6.0814013 -0.213977,7.4330253 -0.666387,3.01958 -1.926204,4.770068 -4.039968,5.613443 -1.112819,0.444009 -4.3798421,0.56555 -5.6234223,0.209206 z"
     style="fill:url(#linearGradient880-3);fill-opacity:1;stroke-width:1" />
  <path
     id="path855-3-63"
     d="M 8.5197706,21.289882 C 6.1158086,20.600038 4.6573166,18.882985 3.9270986,15.883018 3.5303816,14.25317 3.3757316,9.8857126 3.6428366,7.8552906 c 0.602493,-4.579869 2.440446,-6.793519 6.0269953,-7.25897096 1.0021891,-0.130067 1.6694601,-0.130356 2.6649581,-9.33e-4 3.614354,0.46906396 5.435181,2.70865096 6.048095,7.43904896 0.211975,1.636013 0.08419,6.0814014 -0.213664,7.4330254 -0.665429,3.01958 -1.923424,4.770068 -4.034137,5.613443 -1.111218,0.444009 -4.3735261,0.56555 -5.6153134,0.209206 z"
     style="opacity:0.5;fill:none;stroke:#002e99;stroke-width:1" />
  <path
     d="M 12.190309,1.6349692 C 11.292182,1.5160545 10.733387,1.5160648 9.8288949,1.6358286 8.2427512,1.8458517 7.1094184,2.4272528 6.2728241,3.4553464 5.4362298,4.48344 4.8886117,5.9991579 4.6162235,8.1117287 4.382683,9.9230056 4.5402217,14.140171 4.8705802,15.52493 c 0.6529226,2.736841 1.8620227,4.174468 3.9548362,4.787209 0.4704645,0.137744 1.5134076,0.206894 2.5156696,0.168696 1.002262,-0.0382 2.01916,-0.19128 2.415568,-0.352886 1.822501,-0.742991 2.875687,-2.215824 3.47402,-4.98603 C 17.468031,14.042987 17.6019,9.6973476 17.421851,8.2795661 17.144281,6.0938499 16.596834,4.534665 15.759507,3.4837509 14.922181,2.4328367 13.788861,1.8466355 12.190309,1.6349692 Z"
     id="path855-3-6-0"
     style="opacity:0.5;vector-effect:none;fill:none;fill-opacity:1;stroke:url(#linearGradient1295);stroke-width:1.00000012;stroke-linecap:round;stroke-linejoin:round;stroke-miterlimit:4;stroke-dasharray:none;stroke-dashoffset:0;stroke-opacity:1;marker:none" />
  <path
     d="m 9.9960939,4.2500386 a 1.0001001,1.0001001 0 0 0 -0.996094,1 v 3.453125 L 8.064453,8.0098042 A 1.0001001,1.0001001 0 0 0 6.7304687,8.1387105 l -0.65625,0.71875 a 1.0001001,1.0001001 0 0 0 0.1367187,1.4726565 l 2.6113281,1.972656 -2.6445312,2.357422 a 1.0001001,1.0001001 0 0 0 -0.083984,1.40625 l 0.6875,0.78125 a 1.0001001,1.0001001 0 0 0 1.4140625,0.08789 l 0.8046871,-0.71289 v 2.496094 a 1.0001001,1.0001001 0 0 0 1.7128911,0.703125 l 4.53125,-4.59375 a 1.0001001,1.0001001 0 0 0 -0.107422,-1.5 l -1.632813,-1.238281 1.666016,-1.503906 a 1.0001001,1.0001001 0 0 0 0.04492,-1.4414074 l -4.5,-4.5937498 A 1.0001001,1.0001001 0 0 0 9.9960939,4.2500386 Z"
     id="path3205-6-6"
     style="opacity:0.05;vector-effect:none;fill:#002e99;fill-opacity:1;stroke:none;stroke-width:1;stroke-linecap:butt;stroke-linejoin:miter;stroke-miterlimit:4;stroke-dasharray:none;stroke-dashoffset:0;stroke-opacity:1;marker:none" />
  <path
     style="opacity:0.15;vector-effect:none;fill:#002e99;fill-opacity:1;stroke:none;stroke-width:1;stroke-linecap:butt;stroke-linejoin:miter;stroke-miterlimit:4;stroke-dasharray:none;stroke-dashoffset:0;stroke-opacity:1;marker:none"
     id="path3205-6"
     d="m 9.9999999,5.2502886 v 5.4375004 l -2.53125,-1.8750004 -0.65625,0.71875 3.1875,2.4062504 v 0.65625 l -3.15625,2.8125 0.6875,0.78125 2.46875,-2.1875 v 4.71875 L 14.53125,14.125289 11.9375,12.156539 14.5,9.8440386 Z M 11,7.6877886 13.0625,9.7815386 11.125,11.562789 11,11.469039 Z m 0.1875,5.1562504 1.84375,1.40625 L 11,16.312789 v -3.28125 z" />
  <path
     style="fill:#ffffff;fill-opacity:1;stroke:none"
     id="path3205"
     d="m 9.9999999,4.2500385 v 5.4375001 l -2.53125,-1.8750001 -0.65625,0.71875 3.1875,2.4062505 v 0.65625 l -3.15625,2.8125 0.6875,0.78125 2.46875,-2.1875 v 4.71875 L 14.53125,13.125039 11.9375,11.156289 14.5,8.8437885 Z M 11,6.6875385 13.0625,8.7812885 11.125,10.562539 11,10.468789 Z m 0.1875,5.1562505 1.84375,1.40625 L 11,15.312539 v -3.28125 z" />
</svg>
