<?xml version="1.0" encoding="UTF-8" standalone="no"?>
<svg
   id="svg2"
   height="22"
   width="22"
   version="1.0"
   sodipodi:docname="clipman-symbolic.svg"
   inkscape:version="1.2.2 (b0a8486541, 2022-12-01)"
   xmlns:inkscape="http://www.inkscape.org/namespaces/inkscape"
   xmlns:sodipodi="http://sodipodi.sourceforge.net/DTD/sodipodi-0.dtd"
   xmlns="http://www.w3.org/2000/svg"
   xmlns:svg="http://www.w3.org/2000/svg"
   xmlns:rdf="http://www.w3.org/1999/02/22-rdf-syntax-ns#"
   xmlns:cc="http://creativecommons.org/ns#"
   xmlns:dc="http://purl.org/dc/elements/1.1/">
  <sodipodi:namedview
     id="namedview1602"
     pagecolor="#ffffff"
     bordercolor="#000000"
     borderopacity="0.25"
     inkscape:showpageshadow="2"
     inkscape:pageopacity="0.0"
     inkscape:pagecheckerboard="0"
     inkscape:deskcolor="#d1d1d1"
     showgrid="false"
     inkscape:zoom="37.727273"
     inkscape:cx="9.8204819"
     inkscape:cy="11"
     inkscape:window-width="1278"
     inkscape:window-height="1005"
     inkscape:window-x="790"
     inkscape:window-y="151"
     inkscape:window-maximized="0"
     inkscape:current-layer="svg2" />
  <metadata
     id="metadata33">
    <rdf:RDF>
      <cc:Work
         rdf:about="">
        <dc:format>image/svg+xml</dc:format>
        <dc:type
           rdf:resource="http://purl.org/dc/dcmitype/StillImage" />
      </cc:Work>
    </rdf:RDF>
  </metadata>
  <defs
     id="defs4" />
  <path
     id="rect4480"
     d="M 4.53125,4 C 4.2329423,4 4,4.2459286 4,4.5625 v 14.875 C 4,19.754072 4.2329423,20 4.53125,20 h 12.9375 C 17.767058,20 18,19.754072 18,19.4375 V 4.5625 C 18,4.2459286 17.767058,4 17.46875,4 H 15 c 0.0026,0.041612 0.0026,0.083388 0,0.125 V 4.96875 C 15.000163,4.979166 15.000163,4.989584 15,5 h 1.46875 C 16.770932,5 17,5.2329423 17,5.53125 v 12.9375 C 17,18.767058 16.770932,19 16.46875,19 H 5.53125 C 5.2290682,19 5,18.767058 5,18.46875 V 5.53125 C 5,5.2329423 5.2290682,5 5.53125,5 H 7 C 6.9998372,4.989584 6.9998372,4.979166 7,4.96875 V 4.125 C 7.0077163,4.0827196 6.9869119,4.0409375 7,4 Z"
     style="opacity:1;fill:#555761;fill-opacity:1;stroke:none" />
  <path
     id="rect4587"
     d="M 6.5,6 C 6.223,6 6,6.223 6,6.5 v 11 C 6,17.777 6.223,18 6.5,18 h 9 C 15.777,18 16,17.777 16,17.5 V 6.5 C 16,6.223 15.777,6 15.5,6 Z M 8,8 h 0.5 5 0.5 V 9 H 13.5 8.5 8 Z m 0,2 h 0.5 2.96875 0.5 v 1 h -0.5 H 8.5 8 Z m 0,2 h 0.5 5 0.5 v 1 H 13.5 8.5 8 Z m 0,2 H 8.5 12.46875 13 v 1 H 12.46875 8.5 8 Z"
     style="opacity:1;fill:#555761;fill-opacity:1;stroke:none" />
  <path
     d="M 10,2 C 10.0635,3.3790816 9.141013,3.976843 8,4 v 1 h 6 V 4 C 12.7064,3.982582 12.028777,3.375035 12,2 Z"
     style="opacity:1;fill:#555761;fill-opacity:1;stroke:none;enable-background:new"
     id="path4157" />
</svg>
