<?xml version="1.0" encoding="UTF-8" standalone="no"?>
<svg
   xmlns:dc="http://purl.org/dc/elements/1.1/"
   xmlns:cc="http://creativecommons.org/ns#"
   xmlns:rdf="http://www.w3.org/1999/02/22-rdf-syntax-ns#"
   xmlns:svg="http://www.w3.org/2000/svg"
   xmlns="http://www.w3.org/2000/svg"
   xmlns:xlink="http://www.w3.org/1999/xlink"
   version="1.1"
   id="svg4228"
   height="22"
   width="22">
  <defs
     id="defs4230">
    <linearGradient
       gradientTransform="matrix(0.47862806,0,0,0.48685863,0.08325526,25.557985)"
       y2="6"
       x2="25"
       y1="45"
       x1="25"
       gradientUnits="userSpaceOnUse"
       id="linearGradient4019"
       xlink:href="#linearGradient3707-319-631-407-324-41-523-319-700-849-809-394-658-263" />
    <linearGradient
       id="linearGradient3707-319-631-407-324-41-523-319-700-849-809-394-658-263">
      <stop
         id="stop6695"
         style="stop-color:#13315d;stop-opacity:1;"
         offset="0" />
      <stop
         id="stop6697"
         style="stop-color:#404e90;stop-opacity:1;"
         offset="1" />
    </linearGradient>
    <linearGradient
       xlink:href="#linearGradient3924"
       id="linearGradient2959"
       gradientUnits="userSpaceOnUse"
       gradientTransform="matrix(0.51351375,0,0,0.51351343,-1.324171,24.675953)"
       x1="23.99999"
       y1="4.999989"
       x2="23.99999"
       y2="43" />
    <linearGradient
       id="linearGradient3924">
      <stop
         offset="0"
         style="stop-color:#ffffff;stop-opacity:1;"
         id="stop3926" />
      <stop
         id="stop3928"
         style="stop-color:#ffffff;stop-opacity:0.23529412;"
         offset="0.06316455" />
      <stop
         offset="0.95056331"
         style="stop-color:#ffffff;stop-opacity:0.15686275;"
         id="stop3930" />
      <stop
         offset="1"
         style="stop-color:#ffffff;stop-opacity:0.39215687;"
         id="stop3932" />
    </linearGradient>
    <linearGradient
       gradientTransform="matrix(0.45190629,0,0,0.48178399,0.93584246,25.788001)"
       y2="6"
       x2="25"
       y1="45"
       x1="25"
       gradientUnits="userSpaceOnUse"
       id="linearGradient4013"
       xlink:href="#linearGradient3707-319-631-407-324-41-523-319-700-849-809-394-658-263-8" />
    <linearGradient
       id="linearGradient3707-319-631-407-324-41-523-319-700-849-809-394-658-263-8">
      <stop
         id="stop6695-4"
         style="stop-color:#13315d;stop-opacity:1;"
         offset="0" />
      <stop
         id="stop6697-2"
         style="stop-color:#404e90;stop-opacity:1;"
         offset="1" />
    </linearGradient>
    <linearGradient
       gradientTransform="matrix(0.46730908,0,0,0.48446909,0.41428656,25.667168)"
       y2="6"
       x2="25"
       y1="45"
       x1="25"
       gradientUnits="userSpaceOnUse"
       id="linearGradient4016"
       xlink:href="#linearGradient3707-319-631-407-324-41-523-319-700-849-809-394-658-263-7" />
    <linearGradient
       id="linearGradient3707-319-631-407-324-41-523-319-700-849-809-394-658-263-7">
      <stop
         id="stop6695-0"
         style="stop-color:#13315d;stop-opacity:1;"
         offset="0" />
      <stop
         id="stop6697-6"
         style="stop-color:#404e90;stop-opacity:1;"
         offset="1" />
    </linearGradient>
    <radialGradient
       r="19.99999"
       fy="8.4497671"
       fx="7.4956832"
       cy="8.4497671"
       cx="7.4956832"
       gradientTransform="matrix(1.0461367e-8,1.2583618,-1.3312011,-2.318382e-8,22.248302,17.381691)"
       gradientUnits="userSpaceOnUse"
       id="radialGradient2874-8-294-836-962-955-927-928-503-91"
       xlink:href="#linearGradient2867-449-88-871-390-598-476-591-434-148-57-177-55-47-104-185-932-323-597-112-181" />
    <linearGradient
       id="linearGradient2867-449-88-871-390-598-476-591-434-148-57-177-55-47-104-185-932-323-597-112-181">
      <stop
         id="stop6685"
         style="stop-color:#819bd8;stop-opacity:1"
         offset="0" />
      <stop
         id="stop6687"
         style="stop-color:#6282cd;stop-opacity:1;"
         offset="0.26238" />
      <stop
         id="stop6689"
         style="stop-color:#365baf;stop-opacity:1"
         offset="0.704952" />
      <stop
         id="stop6691"
         style="stop-color:#253e79;stop-opacity:1;"
         offset="1" />
    </linearGradient>
    <linearGradient
       y2="3.8990016"
       x2="24"
       y1="44"
       x1="24"
       gradientTransform="matrix(0.53845642,0,0,0.53845395,-1.9230562,24.077251)"
       gradientUnits="userSpaceOnUse"
       id="linearGradient2876-727-161-532-369-556-351-512-535-128"
       xlink:href="#linearGradient3707-319-631-407-324-41-523-319-700-849-809-394-658-263" />
  </defs>
  <metadata
     id="metadata4233">
    <rdf:RDF>
      <cc:Work
         rdf:about="">
        <dc:format>image/svg+xml</dc:format>
        <dc:type
           rdf:resource="http://purl.org/dc/dcmitype/StillImage" />
        <dc:title />
      </cc:Work>
    </rdf:RDF>
  </metadata>
  <g
     transform="translate(0,-26)"
     id="layer1">
    <rect
       style="color:#000000;fill:url(#radialGradient2874-8-294-836-962-955-927-928-503-91);fill-opacity:1;fill-rule:nonzero;stroke:url(#linearGradient2876-727-161-532-369-556-351-512-535-128);stroke-width:0.99999952;stroke-linecap:round;stroke-linejoin:round;stroke-miterlimit:4;stroke-opacity:1;stroke-dasharray:none;stroke-dashoffset:0;marker:none;visibility:visible;display:inline;overflow:visible;enable-background:accumulate"
       id="rect5505-21"
       y="26.50029"
       x="0.49999976"
       ry="1.0769079"
       rx="1.076913"
       height="20.99971"
       width="20.999817" />
    <path
       id="rect7275"
       d="m 1.0001516,43.00029 0,0.749994 0,1.78124 0,0.718766 c 0,0.415508 0.352104,0.75 0.7894729,0.75 l 18.4210585,0 c 0.437378,0 0.789468,-0.334492 0.789468,-0.75 l 0,-0.718765 0,-1.781241 0,-0.749994 -0.789468,0 -18.4210588,0 -0.789473,0 z"
       style="opacity:0.3;color:#000000;fill:#ffffff;fill-opacity:1;fill-rule:nonzero;stroke:none;stroke-width:1;marker:none;visibility:visible;display:inline;overflow:visible;enable-background:accumulate" />
    <path
       id="path3957-2"
       d="m 15.046901,29.0736 c -1.637111,0.102183 -3.205097,1.305975 -3.577849,2.997654 -0.203654,0.756908 -0.246692,1.549474 -0.262842,2.331491 -0.574054,0.0068 -1.2651328,-0.105139 -1.6501918,0.454193 -0.318509,0.682672 -0.100436,1.279961 -0.147867,1.922751 0.0388,0.604874 0.01363,1.124662 0.04563,1.816761 0.08344,0.872476 0.6014168,0.856038 1.3741448,0.82084 0.303521,-0.04958 0.09815,0.233962 0.160651,0.435736 0.01727,2.31156 0.01721,4.622705 0.0438,6.933962 0.01899,0.274641 0.296557,0.501581 0.465895,0.681302 l 4.001339,0 c 0.245315,-0.292068 0.449567,-0.321644 0.463196,-1.105037 l 0.01469,-7.020925 c 0.663405,-0.02504 1.190124,0.03594 1.845153,-0.07633 0.640121,-0.181063 0.731,-0.626068 0.802165,-1.623348 -0.01368,-0.759837 0.02373,-1.528893 -0.02938,-2.286096 -0.113172,-0.678237 -0.798814,-1.037713 -1.41653,-0.953805 l -1.255891,0 c 0.10666,-0.296661 -0.02229,-0.171505 0.238765,-0.528909 0.73105,-0.0505 1.555811,0.317193 2.141593,-0.302304 0.49067,-0.535392 0.273981,-1.352384 0.321273,-2.015032 -0.03996,-0.618851 0.106636,-1.281208 -0.146025,-1.862169 -0.286536,-0.606869 -0.963758,-0.655928 -1.533339,-0.620734 l -1.577178,0 c -0.109514,-0.0052 -0.212119,-0.0068 -0.321269,0 z"
       style="opacity:0.1;color:#000000;fill:url(#linearGradient4016);fill-opacity:1;fill-rule:nonzero;stroke:none;stroke-width:0.98542738;marker:none;visibility:visible;display:inline;overflow:visible;enable-background:accumulate" />
    <path
       id="path3957-4"
       d="m 17.529275,28.633526 c -0.116026,-0.01143 -0.235689,-0.0032 -0.353057,0.01505 l -1.779382,0 c -1.967645,-0.02669 -4.016223,1.482141 -4.392732,3.583269 -0.30726,0.468925 0.114914,1.658967 -0.451906,1.716361 -0.9761268,-0.0374 -1.4819198,0.8095 -1.5102968,1.987367 0.01506,0.826161 -0.03589,1.661211 0.02832,2.484185 0.139709,0.863879 0.660943,1.459567 1.4649148,1.370069 0.01488,2.355315 0.01399,4.70627 0.04256,7.061159 0.01553,0.224442 0.07561,0.431959 0.16947,0.617286 l 5.356056,0 c 0.167593,-0.338772 0.399589,-0.220626 0.311814,-1.114136 0.0052,-2.188809 0.0096,-4.375491 0.01423,-6.564309 0.770126,-0.03196 1.572942,0.172807 2.159541,-0.511892 0.647344,-0.681319 0.407001,-1.679671 0.451914,-2.544416 -0.01902,-0.786186 0.141075,-1.699367 -0.480163,-2.288473 -0.63691,-0.332241 0.599893,-0.725143 0.451913,-1.324915 0.07392,-0.916132 0.01014,-1.835127 0.02835,-2.755197 0.0308,-0.910584 -0.698998,-1.652298 -1.51106,-1.73141 z"
       style="opacity:0.05;color:#000000;fill:url(#linearGradient4013);fill-opacity:1;fill-rule:nonzero;stroke:none;stroke-width:0.98542738;marker:none;visibility:visible;display:inline;overflow:visible;enable-background:accumulate" />
    <rect
       style="opacity:0.5;fill:none;stroke:url(#linearGradient2959);stroke-width:0.9999994;stroke-linecap:round;stroke-linejoin:round;stroke-miterlimit:4;stroke-opacity:1;stroke-dasharray:none;stroke-dashoffset:0"
       id="rect6741"
       y="27.50029"
       x="1.5001509"
       ry="0.18205516"
       rx="0.15996034"
       height="19"
       width="19" />
    <path
       id="path3957"
       d="m 15.399447,29.55331 c -1.48967,-0.05903 -3.008074,0.777742 -3.448381,2.262972 -0.32375,0.960009 -0.357359,1.986677 -0.365781,2.992021 -0.496494,0.02752 -1.009542,-0.06253 -1.493205,0.0608 -0.4265078,0.262028 -0.3173298,0.659627 -0.3361338,1.268365 0.01942,0.68345 0.03638,1.242554 0.03441,2.052822 0.0316,0.738147 0.2947308,0.830748 0.9760038,0.813 l 0.674181,0 c 0.01769,2.676835 0.02483,5.05386 0.04922,7.730491 0.03695,0.497755 0.653887,0.725643 1.088358,0.656738 0.743758,-0.01024 1.49025,0.02096 2.232296,-0.01606 0.475826,-0.08422 0.711147,-0.01017 0.722561,-1.033656 0.0057,-2.545911 0.0095,-4.791614 0.01435,-7.337493 0.765577,-0.01002 1.385941,0.02049 2.149796,-0.01604 0.475633,-0.08422 0.529873,-0.906993 0.473899,-1.333856 -0.0097,-0.753406 0.02,-1.509511 -0.01574,-2.261175 -0.08282,-0.48381 -0.496334,-0.640919 -0.915974,-0.583976 l -1.680156,0 c -0.03888,-0.719021 0.129139,-1.416182 0.955,-1.196973 0.529164,-0.03009 1.385079,0.168612 1.604,-0.248 0.268898,-0.41398 0.01006,-1.237335 0.0532,-1.704166 -0.01827,-0.563753 0.03936,-1.135508 -0.0344,-1.693553 -0.131067,-0.484012 -0.560003,-0.452144 -0.976096,-0.412302 l -1.761307,0 z"
       style="opacity:0.25;color:#000000;fill:url(#linearGradient4019);fill-opacity:1;fill-rule:nonzero;stroke:none;stroke-width:0.98542738;marker:none;visibility:visible;display:inline;overflow:visible;enable-background:accumulate" />
    <path
       id="path7296"
       d="m 12.441168,46.499515 2.165479,0 0.01389,-8.407262 2.631853,0 0,-2.356314 -2.631853,0 c 0,-3.473629 0.857555,-2.920402 2.631853,-2.972149 l 2e-6,-2.211822 -1.973883,0 c -2.824524,0 -2.851075,2.698638 -2.851075,5.183971 l -1.754569,0 0,2.356314 1.726948,0 z"
       style="color:#000000;fill:#f7f7f7;fill-opacity:1;fill-rule:nonzero;stroke:#ffffff;stroke-width:0.9854272;stroke-linecap:butt;stroke-linejoin:miter;stroke-miterlimit:4;stroke-opacity:1;stroke-dasharray:none;stroke-dashoffset:0;marker:none;visibility:visible;display:inline;overflow:visible;enable-background:accumulate" />
  </g>
</svg>
