<?xml version="1.0" encoding="UTF-8" standalone="no"?>
<!-- Created with Inkscape (http://www.inkscape.org/) -->

<svg
   xmlns:dc="http://purl.org/dc/elements/1.1/"
   xmlns:cc="http://creativecommons.org/ns#"
   xmlns:rdf="http://www.w3.org/1999/02/22-rdf-syntax-ns#"
   xmlns:svg="http://www.w3.org/2000/svg"
   xmlns="http://www.w3.org/2000/svg"
   xmlns:xlink="http://www.w3.org/1999/xlink"
   xmlns:sodipodi="http://sodipodi.sourceforge.net/DTD/sodipodi-0.dtd"
   xmlns:inkscape="http://www.inkscape.org/namespaces/inkscape"
   width="22"
   height="22"
   id="svg4032"
   version="1.1"
   inkscape:version="0.48.4 r9939"
   sodipodi:docname="google-calendar.svg">
  <defs
     id="defs4034">
    <linearGradient
       inkscape:collect="always"
       xlink:href="#linearGradient3940"
       id="linearGradient3946"
       x1="25.287861"
       y1="10.84078"
       x2="25.287861"
       y2="38.98481"
       gradientUnits="userSpaceOnUse"
       gradientTransform="translate(-60,0)" />
    <linearGradient
       id="linearGradient3940">
      <stop
         style="stop-color:#f7f7f7;stop-opacity:1;"
         offset="0"
         id="stop3942" />
      <stop
         style="stop-color:#fef2cc;stop-opacity:1;"
         offset="1"
         id="stop3944" />
    </linearGradient>
    <linearGradient
       y2="39.798145"
       x2="26.939138"
       y1="10.156249"
       x1="26.939138"
       gradientUnits="userSpaceOnUse"
       id="linearGradient3118"
       xlink:href="#linearGradient3895-9-0-3"
       inkscape:collect="always"
       gradientTransform="translate(-60,0)" />
    <linearGradient
       id="linearGradient3895-9-0-3">
      <stop
         offset="0"
         style="stop-color:#dc5639;stop-opacity:1;"
         id="stop3897-0-5-7" />
      <stop
         offset="1"
         style="stop-color:#9d0f0f;stop-opacity:1;"
         id="stop3899-8-7-06" />
    </linearGradient>
    <linearGradient
       inkscape:collect="always"
       xlink:href="#linearGradient3895-9-0-3"
       id="linearGradient4018-8"
       x1="28.383904"
       y1="9.0511551"
       x2="28.383904"
       y2="40.814419"
       gradientUnits="userSpaceOnUse"
       gradientTransform="translate(-60,0)" />
    <linearGradient
       inkscape:collect="always"
       xlink:href="#linearGradient3895-9-0-3"
       id="linearGradient4010-3"
       x1="21.507429"
       y1="7.8855376"
       x2="21.507429"
       y2="42.121353"
       gradientUnits="userSpaceOnUse"
       gradientTransform="translate(-60,0)" />
    <linearGradient
       id="linearGradient4067-0-2">
      <stop
         id="stop4069-2-9"
         offset="0"
         style="stop-color:#ff8d52;stop-opacity:1;" />
      <stop
         id="stop4071-8-9"
         offset="1"
         style="stop-color:#ffeb41;stop-opacity:0;" />
    </linearGradient>
    <linearGradient
       inkscape:collect="always"
       xlink:href="#linearGradient3924"
       id="linearGradient2959"
       gradientUnits="userSpaceOnUse"
       gradientTransform="matrix(0.45945938,0,0,0.4594596,-0.02702498,25.968809)"
       x1="23.99999"
       y1="4.999989"
       x2="23.99999"
       y2="43" />
    <linearGradient
       id="linearGradient3924">
      <stop
         offset="0"
         style="stop-color:#ffffff;stop-opacity:1;"
         id="stop3926" />
      <stop
         id="stop3928"
         style="stop-color:#ffffff;stop-opacity:0.23529412;"
         offset="0.06316455" />
      <stop
         offset="0.95056331"
         style="stop-color:#ffffff;stop-opacity:0.15686275;"
         id="stop3930" />
      <stop
         offset="1"
         style="stop-color:#ffffff;stop-opacity:0.39215687;"
         id="stop3932" />
    </linearGradient>
    <linearGradient
       inkscape:collect="always"
       xlink:href="#linearGradient4011"
       id="linearGradient3568"
       gradientUnits="userSpaceOnUse"
       gradientTransform="matrix(0.39078025,0,0,0.6235079,1.6029957,24.434224)"
       x1="13.13743"
       y1="18.776737"
       x2="25.258932"
       y2="34.146767" />
    <linearGradient
       id="linearGradient8265-821-176-38-919-66-249-7-7">
      <stop
         offset="0"
         style="stop-color:#e77e71;stop-opacity:1;"
         id="stop2687-1-9" />
      <stop
         offset="1"
         style="stop-color:#ffdf80;stop-opacity:0.375;"
         id="stop2689-5-4" />
    </linearGradient>
    <radialGradient
       r="19.99999"
       fy="8.4497671"
       fx="7.4956832"
       cy="8.4497671"
       cx="7.4956832"
       gradientTransform="matrix(0,1.1385335,-1.2044328,-2.0976132e-8,21.177235,19.245543)"
       gradientUnits="userSpaceOnUse"
       id="radialGradient2874"
       xlink:href="#linearGradient2867-449-88-871-390-598-476-591-434-148-57-177-3-8"
       inkscape:collect="always" />
    <linearGradient
       id="linearGradient4644-104-3-3-6-2">
      <stop
         id="stop5237-6-5-1-7"
         style="stop-color:#e44532;stop-opacity:1;"
         offset="0" />
      <stop
         id="stop5239-4-6-4-8"
         style="stop-color:#dd4b39;stop-opacity:1;"
         offset="1" />
    </linearGradient>
    <linearGradient
       y2="5"
       x2="-4.0000014"
       y1="41"
       x1="-4.0000014"
       gradientTransform="matrix(0.48717954,0,0,0.4871794,-0.69230843,25.303524)"
       gradientUnits="userSpaceOnUse"
       id="linearGradient2876"
       xlink:href="#linearGradient3707-319-631-407-324-3-8"
       inkscape:collect="always" />
    <linearGradient
       id="linearGradient3688-166-749">
      <stop
         offset="0"
         style="stop-color:#181818;stop-opacity:1"
         id="stop2883" />
      <stop
         offset="1"
         style="stop-color:#181818;stop-opacity:0"
         id="stop2885" />
    </linearGradient>
    <linearGradient
       id="linearGradient3688-464-309">
      <stop
         offset="0"
         style="stop-color:#181818;stop-opacity:1"
         id="stop2889" />
      <stop
         offset="1"
         style="stop-color:#181818;stop-opacity:0"
         id="stop2891" />
    </linearGradient>
    <linearGradient
       id="linearGradient3702-501-757">
      <stop
         offset="0"
         style="stop-color:#181818;stop-opacity:0"
         id="stop2895" />
      <stop
         offset="0.5"
         style="stop-color:#181818;stop-opacity:1"
         id="stop2897" />
      <stop
         offset="1"
         style="stop-color:#181818;stop-opacity:0"
         id="stop2899" />
    </linearGradient>
    <radialGradient
       inkscape:collect="always"
       xlink:href="#linearGradient8838"
       id="radialGradient4267"
       gradientUnits="userSpaceOnUse"
       gradientTransform="matrix(2.1647059,0,0,0.7529402,-111.56471,36.517647)"
       cx="62.625"
       cy="4.625"
       fx="62.625"
       fy="4.625"
       r="10.625" />
    <linearGradient
       id="linearGradient8838">
      <stop
         offset="0"
         style="stop-color:#000000;stop-opacity:1"
         id="stop8840" />
      <stop
         offset="1"
         style="stop-color:#000000;stop-opacity:0"
         id="stop8842" />
    </linearGradient>
    <linearGradient
       y2="3.8990016"
       x2="24"
       y1="44"
       x1="24"
       gradientTransform="translate(2.39e-6,1.0000002)"
       gradientUnits="userSpaceOnUse"
       id="linearGradient3911-1"
       xlink:href="#linearGradient3707-319-631-407-324-3-8"
       inkscape:collect="always" />
    <linearGradient
       id="linearGradient2867-449-88-871-390-598-476-591-434-148-57-177-3-8">
      <stop
         id="stop3750-8-9"
         style="stop-color:#90dbec;stop-opacity:1;"
         offset="0" />
      <stop
         id="stop3752-3-2"
         style="stop-color:#42baea;stop-opacity:1;"
         offset="0.26238" />
      <stop
         id="stop3754-7-2"
         style="stop-color:#3689e6;stop-opacity:1;"
         offset="0.704952" />
      <stop
         id="stop3756-9-3"
         style="stop-color:#2b63a0;stop-opacity:1;"
         offset="1" />
    </linearGradient>
    <radialGradient
       r="19.99999"
       fy="8.4497671"
       fx="3.9722471"
       cy="8.4497671"
       cx="3.9722471"
       gradientTransform="matrix(0,2.3767198,-2.5142859,-6.4690655e-8,45.245242,-9.412373)"
       gradientUnits="userSpaceOnUse"
       id="radialGradient3909-0"
       xlink:href="#linearGradient2867-449-88-871-390-598-476-591-434-148-57-177-3-8"
       inkscape:collect="always" />
    <linearGradient
       id="linearGradient4011">
      <stop
         id="stop4013"
         style="stop-color:#ffffff;stop-opacity:1;"
         offset="0" />
      <stop
         offset="0.507761"
         style="stop-color:#ffffff;stop-opacity:0.23529412;"
         id="stop4015" />
      <stop
         id="stop4017"
         style="stop-color:#ffffff;stop-opacity:0.15686275;"
         offset="0.83456558" />
      <stop
         id="stop4019"
         style="stop-color:#ffffff;stop-opacity:0.39215687;"
         offset="1" />
    </linearGradient>
    <linearGradient
       y2="44.340794"
       x2="71.204407"
       y1="6.2375584"
       x1="71.204407"
       gradientTransform="translate(-47.733515,-0.3572397)"
       gradientUnits="userSpaceOnUse"
       id="linearGradient3906-0"
       xlink:href="#linearGradient4011"
       inkscape:collect="always" />
    <linearGradient
       id="linearGradient3707-319-631-407-324-3-8">
      <stop
         id="stop3760-7-3"
         style="stop-color:#185f9a;stop-opacity:1;"
         offset="0" />
      <stop
         id="stop3762-8-4"
         style="stop-color:#599ec9;stop-opacity:1;"
         offset="1" />
    </linearGradient>
    <linearGradient
       gradientUnits="userSpaceOnUse"
       y2="0.088140324"
       x2="22.950275"
       y1="45.185081"
       x1="22.950275"
       id="linearGradient4079"
       xlink:href="#linearGradient3707-319-631-407-324-3-8"
       inkscape:collect="always" />
    <linearGradient
       y2="34.548019"
       x2="60.948738"
       y1="-5.801291"
       x1="60.948738"
       gradientTransform="matrix(0.35010764,0,0,0.36130751,1.5259338,26.093427)"
       gradientUnits="userSpaceOnUse"
       id="linearGradient4183"
       xlink:href="#linearGradient4072"
       inkscape:collect="always" />
    <linearGradient
       id="linearGradient4072"
       inkscape:collect="always">
      <stop
         id="stop4074"
         offset="0"
         style="stop-color:#000000;stop-opacity:1;" />
      <stop
         id="stop4076"
         offset="1"
         style="stop-color:#000000;stop-opacity:0;" />
    </linearGradient>
    <linearGradient
       y2="33.986996"
       x2="69.311714"
       y1="-15.790401"
       x1="69.311714"
       gradientTransform="matrix(0.34365524,0,0,0.33978679,1.6032383,26.290608)"
       gradientUnits="userSpaceOnUse"
       id="linearGradient4180"
       xlink:href="#linearGradient4072"
       inkscape:collect="always" />
    <linearGradient
       id="linearGradient4062"
       inkscape:collect="always">
      <stop
         id="stop4064"
         offset="0"
         style="stop-color:#000000;stop-opacity:1;" />
      <stop
         id="stop4066"
         offset="1"
         style="stop-color:#000000;stop-opacity:0;" />
    </linearGradient>
    <linearGradient
       y2="-24.791594"
       x2="72.458694"
       y1="-37.888779"
       x1="72.458694"
       gradientTransform="matrix(0.32209081,0,0,0.33064419,3.4344155,24.890793)"
       gradientUnits="userSpaceOnUse"
       id="linearGradient4177"
       xlink:href="#linearGradient4062"
       inkscape:collect="always" />
    <linearGradient
       id="linearGradient4072-8"
       inkscape:collect="always">
      <stop
         id="stop4074-2"
         offset="0"
         style="stop-color:#000000;stop-opacity:1;" />
      <stop
         id="stop4076-2"
         offset="1"
         style="stop-color:#000000;stop-opacity:0;" />
    </linearGradient>
    <linearGradient
       y2="27.727411"
       x2="69.311714"
       y1="21.319286"
       x1="69.311714"
       gradientTransform="matrix(0.35010764,0,0,0.36130751,1.3499354,26.906196)"
       gradientUnits="userSpaceOnUse"
       id="linearGradient4174"
       xlink:href="#linearGradient4072-8"
       inkscape:collect="always" />
    <linearGradient
       inkscape:collect="always"
       xlink:href="#linearGradient4072-8"
       id="linearGradient3964"
       gradientUnits="userSpaceOnUse"
       gradientTransform="matrix(0.35010764,0,0,0.36130751,-44.870511,-10.442272)"
       x1="69.311714"
       y1="21.319286"
       x2="69.311714"
       y2="27.727411" />
    <linearGradient
       inkscape:collect="always"
       xlink:href="#linearGradient4062"
       id="linearGradient3967"
       gradientUnits="userSpaceOnUse"
       gradientTransform="matrix(0.32209081,0,0,0.33064419,-42.786031,-12.457675)"
       x1="72.458694"
       y1="-37.888779"
       x2="72.458694"
       y2="-24.791594" />
    <linearGradient
       inkscape:collect="always"
       xlink:href="#linearGradient4072"
       id="linearGradient3970"
       gradientUnits="userSpaceOnUse"
       gradientTransform="matrix(0.34365524,0,0,0.33978679,-44.617208,-11.05786)"
       x1="69.311714"
       y1="-15.790401"
       x2="69.311714"
       y2="33.986996" />
    <linearGradient
       inkscape:collect="always"
       xlink:href="#linearGradient4072"
       id="linearGradient3973"
       gradientUnits="userSpaceOnUse"
       gradientTransform="matrix(0.35010764,0,0,0.36130751,-44.694512,-11.255041)"
       x1="60.948738"
       y1="-5.801291"
       x2="60.948738"
       y2="34.548019" />
    <linearGradient
       inkscape:collect="always"
       xlink:href="#linearGradient3707-319-631-407-324-3-8"
       id="linearGradient3977"
       gradientUnits="userSpaceOnUse"
       x1="22.950275"
       y1="45.185081"
       x2="22.950275"
       y2="0.088140324"
       gradientTransform="translate(-46.220446,-37.348468)" />
    <linearGradient
       inkscape:collect="always"
       xlink:href="#linearGradient4011"
       id="linearGradient3980"
       gradientUnits="userSpaceOnUse"
       gradientTransform="translate(-93.953961,-37.705708)"
       x1="71.204407"
       y1="6.2375584"
       x2="71.204407"
       y2="44.340794" />
    <radialGradient
       inkscape:collect="always"
       xlink:href="#linearGradient2867-449-88-871-390-598-476-591-434-148-57-177-3-8"
       id="radialGradient3983"
       gradientUnits="userSpaceOnUse"
       gradientTransform="matrix(0,2.3767198,-2.5142859,-6.4690655e-8,-0.975204,-46.760841)"
       cx="3.9722471"
       cy="8.4497671"
       fx="3.9722471"
       fy="8.4497671"
       r="19.99999" />
    <linearGradient
       inkscape:collect="always"
       xlink:href="#linearGradient3707-319-631-407-324-3-8"
       id="linearGradient3985"
       gradientUnits="userSpaceOnUse"
       gradientTransform="translate(-46.220444,-36.348468)"
       x1="24"
       y1="44"
       x2="24"
       y2="3.8990016" />
    <radialGradient
       inkscape:collect="always"
       xlink:href="#linearGradient8838"
       id="radialGradient3988"
       gradientUnits="userSpaceOnUse"
       gradientTransform="matrix(2.1647059,0,0,0.7529402,-157.78516,-0.830821)"
       cx="62.625"
       cy="4.625"
       fx="62.625"
       fy="4.625"
       r="10.625" />
    <linearGradient
       gradientTransform="matrix(1,0,0,0.9777778,9.9353024e-8,-0.9888879)"
       gradientUnits="userSpaceOnUse"
       xlink:href="#linearGradient3211"
       id="linearGradient2946"
       y2="46.01725"
       x2="24"
       y1="1.9999999"
       x1="24" />
    <linearGradient
       id="linearGradient3211">
      <stop
         offset="0"
         style="stop-color:#ffffff;stop-opacity:1"
         id="stop3213" />
      <stop
         offset="1"
         style="stop-color:#ffffff;stop-opacity:0"
         id="stop3215" />
    </linearGradient>
    <radialGradient
       gradientTransform="matrix(0.36170675,0,0,-0.3907784,0.8509869,47.517004)"
       gradientUnits="userSpaceOnUse"
       xlink:href="#XMLID_8_"
       id="radialGradient2997"
       r="139.55859"
       cy="112.3047"
       cx="102" />
    <linearGradient
       id="linearGradient8589-8">
      <stop
         offset="0"
         style="stop-color:#fefefe;stop-opacity:1"
         id="stop8591-1" />
      <stop
         offset="1"
         style="stop-color:#cbcbcb;stop-opacity:1"
         id="stop8593-2" />
    </linearGradient>
    <linearGradient
       gradientTransform="matrix(0.99771106,0,0,1.0406866,0.1637173,-1.1057947)"
       gradientUnits="userSpaceOnUse"
       xlink:href="#linearGradient8589-8"
       id="linearGradient2633"
       y2="5.4565363"
       x2="36.358372"
       y1="8.0590115"
       x1="32.892288" />
    <filter
       id="filter3248"
       color-interpolation-filters="sRGB"
       height="1.3286875"
       width="1.2969251"
       y="-0.16434373"
       x="-0.14846256">
      <feGaussianBlur
         id="feGaussianBlur3250"
         stdDeviation="0.77391625" />
    </filter>
    <radialGradient
       gradientUnits="userSpaceOnUse"
       id="XMLID_8_"
       r="139.55859"
       cy="112.3047"
       cx="102">
      <stop
         offset="0"
         style="stop-color:#b7b8b9;stop-opacity:1"
         id="stop41" />
      <stop
         offset="0.18851049"
         style="stop-color:#ececec;stop-opacity:1"
         id="stop47" />
      <stop
         offset="0.25718147"
         style="stop-color:#fafafa;stop-opacity:0"
         id="stop49" />
      <stop
         offset="0.30111277"
         style="stop-color:#ffffff;stop-opacity:0"
         id="stop51" />
      <stop
         offset="0.53130001"
         style="stop-color:#fafafa;stop-opacity:0"
         id="stop53" />
      <stop
         offset="0.84490001"
         style="stop-color:#ebecec;stop-opacity:0"
         id="stop55" />
      <stop
         offset="1"
         style="stop-color:#e1e2e3;stop-opacity:0"
         id="stop57" />
    </radialGradient>
    <linearGradient
       gradientTransform="matrix(0.4063605,0,0,1.4407893,8.3143938,-4.5939912)"
       gradientUnits="userSpaceOnUse"
       xlink:href="#linearGradient5031"
       id="linearGradient6143"
       y2="10.035408"
       x2="22.104254"
       y1="40.124432"
       x1="22.104254" />
    <linearGradient
       gradientTransform="matrix(0.3814643,0,0,1.4009103,8.4789307,6.2584122)"
       gradientUnits="userSpaceOnUse"
       xlink:href="#linearGradient5031"
       id="linearGradient6073"
       y2="10.035408"
       x2="22.104254"
       y1="40.124432"
       x1="22.104254" />
    <linearGradient
       gradientTransform="matrix(1.7828362,0,0,1.4407913,-37.938893,-27.441342)"
       gradientUnits="userSpaceOnUse"
       xlink:href="#linearGradient5031"
       id="linearGradient6065"
       y2="10.035408"
       x2="22.104254"
       y1="40.124432"
       x1="22.104254" />
    <linearGradient
       gradientTransform="matrix(0.3342091,0,0,1.4207463,9.6790122,-0.23795132)"
       gradientUnits="userSpaceOnUse"
       xlink:href="#linearGradient5031"
       id="linearGradient5988"
       y2="10.035408"
       x2="22.104254"
       y1="40.124432"
       x1="22.104254" />
    <linearGradient
       gradientTransform="matrix(0.4876325,0,0,1.4406684,7.777273,1.4082398)"
       gradientUnits="userSpaceOnUse"
       xlink:href="#linearGradient5031"
       id="linearGradient5984"
       y2="10.035408"
       x2="22.104254"
       y1="40.124432"
       x1="22.104254" />
    <linearGradient
       gradientTransform="matrix(0.369496,0,0,1.4205132,9.0116197,3.7802626)"
       gradientUnits="userSpaceOnUse"
       xlink:href="#linearGradient5031"
       id="linearGradient5980"
       y2="10.035408"
       x2="22.104254"
       y1="40.124432"
       x1="22.104254" />
    <linearGradient
       id="linearGradient5031">
      <stop
         offset="0"
         style="stop-color:#a3a3a3;stop-opacity:1"
         id="stop5033" />
      <stop
         offset="1"
         style="stop-color:#bababa;stop-opacity:1"
         id="stop5035" />
    </linearGradient>
    <linearGradient
       gradientTransform="matrix(0.8074968,0,0,0.9358511,59.410236,-2.1144791)"
       gradientUnits="userSpaceOnUse"
       xlink:href="#linearGradient3104"
       id="linearGradient3603"
       y2="2.9062471"
       x2="-51.786404"
       y1="50.786446"
       x1="-51.786404" />
    <linearGradient
       gradientTransform="translate(0,-0.99999972)"
       gradientUnits="userSpaceOnUse"
       xlink:href="#linearGradient3600"
       id="linearGradient3601"
       y2="47.013336"
       x2="25.132275"
       y1="6.7287393"
       x1="25.132275" />
    <radialGradient
       gradientTransform="matrix(0.02409717,0,0,0.01537476,26.477584,38.629039)"
       gradientUnits="userSpaceOnUse"
       xlink:href="#linearGradient5060"
       id="radialGradient3588"
       fy="486.64789"
       fx="605.71429"
       r="117.14286"
       cy="486.64789"
       cx="605.71429" />
    <radialGradient
       gradientTransform="matrix(-0.02409717,0,0,0.01537476,21.522412,38.629039)"
       gradientUnits="userSpaceOnUse"
       xlink:href="#linearGradient5060"
       id="radialGradient3586"
       fy="486.64789"
       fx="605.71429"
       r="117.14286"
       cy="486.64789"
       cx="605.71429" />
    <linearGradient
       gradientTransform="matrix(0.0704142,0,0,0.01537476,-1.4497047,38.629007)"
       gradientUnits="userSpaceOnUse"
       xlink:href="#linearGradient5048"
       id="linearGradient3584"
       y2="609.50507"
       x2="302.85715"
       y1="366.64789"
       x1="302.85715" />
    <linearGradient
       id="linearGradient5060">
      <stop
         offset="0"
         style="stop-color:#000000;stop-opacity:1"
         id="stop5062" />
      <stop
         offset="1"
         style="stop-color:#000000;stop-opacity:0"
         id="stop5064" />
    </linearGradient>
    <linearGradient
       id="linearGradient5048">
      <stop
         offset="0"
         style="stop-color:#000000;stop-opacity:0"
         id="stop5050" />
      <stop
         offset="0.5"
         style="stop-color:#000000;stop-opacity:1"
         id="stop5056" />
      <stop
         offset="1"
         style="stop-color:#000000;stop-opacity:0"
         id="stop5052" />
    </linearGradient>
    <linearGradient
       id="linearGradient3600">
      <stop
         offset="0"
         style="stop-color:#f4f4f4;stop-opacity:1"
         id="stop3602" />
      <stop
         offset="1"
         style="stop-color:#dbdbdb;stop-opacity:1"
         id="stop3604" />
    </linearGradient>
    <linearGradient
       id="linearGradient3104">
      <stop
         offset="0"
         style="stop-color:#aaaaaa;stop-opacity:1"
         id="stop3106" />
      <stop
         offset="1"
         style="stop-color:#d2d2d2;stop-opacity:1"
         id="stop3108" />
    </linearGradient>
    <linearGradient
       inkscape:collect="always"
       xlink:href="#linearGradient5048"
       id="linearGradient3366"
       gradientUnits="userSpaceOnUse"
       gradientTransform="matrix(0.0704142,0,0,0.01537476,-1.4497047,38.629007)"
       x1="302.85715"
       y1="366.64789"
       x2="302.85715"
       y2="609.50507" />
    <radialGradient
       inkscape:collect="always"
       xlink:href="#linearGradient5060"
       id="radialGradient3368"
       gradientUnits="userSpaceOnUse"
       gradientTransform="matrix(-0.02409717,0,0,0.01537476,21.522412,38.629039)"
       cx="605.71429"
       cy="486.64789"
       fx="605.71429"
       fy="486.64789"
       r="117.14286" />
    <radialGradient
       inkscape:collect="always"
       xlink:href="#linearGradient5060"
       id="radialGradient3370"
       gradientUnits="userSpaceOnUse"
       gradientTransform="matrix(0.02409717,0,0,0.01537476,26.477584,38.629039)"
       cx="605.71429"
       cy="486.64789"
       fx="605.71429"
       fy="486.64789"
       r="117.14286" />
    <linearGradient
       inkscape:collect="always"
       xlink:href="#linearGradient3600"
       id="linearGradient3372"
       gradientUnits="userSpaceOnUse"
       gradientTransform="translate(0,-0.99999972)"
       x1="25.132275"
       y1="6.7287393"
       x2="25.132275"
       y2="47.013336" />
    <linearGradient
       inkscape:collect="always"
       xlink:href="#linearGradient3104"
       id="linearGradient3374"
       gradientUnits="userSpaceOnUse"
       gradientTransform="matrix(0.8074968,0,0,0.9358511,59.410236,-2.1144791)"
       x1="-51.786404"
       y1="50.786446"
       x2="-51.786404"
       y2="2.9062471" />
    <linearGradient
       inkscape:collect="always"
       xlink:href="#linearGradient3211"
       id="linearGradient3376"
       gradientUnits="userSpaceOnUse"
       gradientTransform="matrix(1,0,0,0.9777778,9.9353024e-8,-0.9888879)"
       x1="24"
       y1="1.9999999"
       x2="24"
       y2="46.01725" />
    <linearGradient
       inkscape:collect="always"
       xlink:href="#linearGradient5031"
       id="linearGradient3378"
       gradientUnits="userSpaceOnUse"
       gradientTransform="matrix(0.3342091,0,0,1.4207463,9.6790122,-0.23795132)"
       x1="22.104254"
       y1="40.124432"
       x2="22.104254"
       y2="10.035408" />
    <linearGradient
       inkscape:collect="always"
       xlink:href="#linearGradient5031"
       id="linearGradient3380"
       gradientUnits="userSpaceOnUse"
       gradientTransform="matrix(0.4876325,0,0,1.4406684,7.777273,1.4082398)"
       x1="22.104254"
       y1="40.124432"
       x2="22.104254"
       y2="10.035408" />
    <linearGradient
       inkscape:collect="always"
       xlink:href="#linearGradient5031"
       id="linearGradient3382"
       gradientUnits="userSpaceOnUse"
       gradientTransform="matrix(0.369496,0,0,1.4205132,9.0116197,3.7802626)"
       x1="22.104254"
       y1="40.124432"
       x2="22.104254"
       y2="10.035408" />
    <linearGradient
       inkscape:collect="always"
       xlink:href="#linearGradient5031"
       id="linearGradient3384"
       gradientUnits="userSpaceOnUse"
       gradientTransform="matrix(0.3814643,0,0,1.4009103,8.4789307,6.2584122)"
       x1="22.104254"
       y1="40.124432"
       x2="22.104254"
       y2="10.035408" />
    <linearGradient
       inkscape:collect="always"
       xlink:href="#linearGradient5031"
       id="linearGradient3386"
       gradientUnits="userSpaceOnUse"
       gradientTransform="matrix(0.4063605,0,0,1.4407893,8.3143938,-4.5939912)"
       x1="22.104254"
       y1="40.124432"
       x2="22.104254"
       y2="10.035408" />
    <linearGradient
       inkscape:collect="always"
       xlink:href="#linearGradient5031"
       id="linearGradient3388"
       gradientUnits="userSpaceOnUse"
       gradientTransform="matrix(1.7828362,0,0,1.4407913,-37.938893,-27.441342)"
       x1="22.104254"
       y1="40.124432"
       x2="22.104254"
       y2="10.035408" />
    <radialGradient
       inkscape:collect="always"
       xlink:href="#XMLID_8_"
       id="radialGradient3390"
       gradientUnits="userSpaceOnUse"
       gradientTransform="matrix(0.36170675,0,0,-0.3907784,0.8509869,47.517004)"
       cx="102"
       cy="112.3047"
       r="139.55859" />
    <linearGradient
       inkscape:collect="always"
       xlink:href="#linearGradient8589-8"
       id="linearGradient3392"
       gradientUnits="userSpaceOnUse"
       gradientTransform="matrix(0.99771106,0,0,1.0406866,0.1637173,-1.1057947)"
       x1="32.892288"
       y1="8.0590115"
       x2="36.358372"
       y2="5.4565363" />
    <linearGradient
       inkscape:collect="always"
       xlink:href="#linearGradient8589-8"
       id="linearGradient3395"
       gradientUnits="userSpaceOnUse"
       gradientTransform="matrix(0,0.485279,-0.50713564,0,21.036635,26.1068)"
       x1="32.892288"
       y1="8.0590115"
       x2="36.358372"
       y2="5.4565363" />
    <radialGradient
       inkscape:collect="always"
       xlink:href="#XMLID_8_"
       id="radialGradient3399"
       gradientUnits="userSpaceOnUse"
       gradientTransform="matrix(0.36170675,0,0,-0.3907784,-60.637874,48.88791)"
       cx="102"
       cy="112.3047"
       r="139.55859" />
    <linearGradient
       inkscape:collect="always"
       xlink:href="#linearGradient5031"
       id="linearGradient3403"
       gradientUnits="userSpaceOnUse"
       gradientTransform="matrix(1.7828362,0,0,1.4407913,-99.427754,-26.070436)"
       x1="22.104254"
       y1="40.124432"
       x2="22.104254"
       y2="10.035408" />
    <linearGradient
       inkscape:collect="always"
       xlink:href="#linearGradient5031"
       id="linearGradient3406"
       gradientUnits="userSpaceOnUse"
       gradientTransform="matrix(0.4063605,0,0,1.4407893,-53.174467,-3.2230849)"
       x1="22.104254"
       y1="40.124432"
       x2="22.104254"
       y2="10.035408" />
    <linearGradient
       inkscape:collect="always"
       xlink:href="#linearGradient5031"
       id="linearGradient3410"
       gradientUnits="userSpaceOnUse"
       gradientTransform="matrix(0.3814643,0,0,1.4009103,-53.00993,7.6293185)"
       x1="22.104254"
       y1="40.124432"
       x2="22.104254"
       y2="10.035408" />
    <linearGradient
       inkscape:collect="always"
       xlink:href="#linearGradient5031"
       id="linearGradient3414"
       gradientUnits="userSpaceOnUse"
       gradientTransform="matrix(0.369496,0,0,1.4205132,-52.477241,5.1511689)"
       x1="22.104254"
       y1="40.124432"
       x2="22.104254"
       y2="10.035408" />
    <linearGradient
       inkscape:collect="always"
       xlink:href="#linearGradient5031"
       id="linearGradient3418"
       gradientUnits="userSpaceOnUse"
       gradientTransform="matrix(0.4876325,0,0,1.4406684,-53.711588,2.7791461)"
       x1="22.104254"
       y1="40.124432"
       x2="22.104254"
       y2="10.035408" />
    <linearGradient
       inkscape:collect="always"
       xlink:href="#linearGradient5031"
       id="linearGradient3422"
       gradientUnits="userSpaceOnUse"
       gradientTransform="matrix(0.3342091,0,0,1.4207463,-51.809849,1.132955)"
       x1="22.104254"
       y1="40.124432"
       x2="22.104254"
       y2="10.035408" />
    <linearGradient
       inkscape:collect="always"
       xlink:href="#linearGradient3211"
       id="linearGradient3466"
       gradientUnits="userSpaceOnUse"
       gradientTransform="matrix(1,0,0,0.9777778,-61.488861,0.3820184)"
       x1="24"
       y1="1.9999999"
       x2="24"
       y2="46.01725" />
    <linearGradient
       inkscape:collect="always"
       xlink:href="#linearGradient3600"
       id="linearGradient3469"
       gradientUnits="userSpaceOnUse"
       gradientTransform="translate(-61.488861,0.37090658)"
       x1="25.132275"
       y1="6.7287393"
       x2="25.132275"
       y2="47.013336" />
    <linearGradient
       inkscape:collect="always"
       xlink:href="#linearGradient3104"
       id="linearGradient3471"
       gradientUnits="userSpaceOnUse"
       gradientTransform="matrix(0.8074968,0,0,0.9358511,-2.078625,-0.7435728)"
       x1="-51.786404"
       y1="50.786446"
       x2="-51.786404"
       y2="2.9062471" />
  </defs>
  <sodipodi:namedview
     id="base"
     pagecolor="#ffffff"
     bordercolor="#666666"
     borderopacity="1.0"
     inkscape:pageopacity="0.0"
     inkscape:pageshadow="2"
     inkscape:zoom="18.561553"
     inkscape:cx="14.930218"
     inkscape:cy="14.98391"
     inkscape:current-layer="layer1"
     showgrid="true"
     inkscape:grid-bbox="true"
     inkscape:document-units="px"
     inkscape:window-width="1280"
     inkscape:window-height="751"
     inkscape:window-x="0"
     inkscape:window-y="25"
     inkscape:window-maximized="1">
    <inkscape:grid
       type="xygrid"
       id="grid3827"
       empspacing="5"
       visible="true"
       enabled="true"
       snapvisiblegridlinesonly="true" />
  </sodipodi:namedview>
  <metadata
     id="metadata4037">
    <rdf:RDF>
      <cc:Work
         rdf:about="">
        <dc:format>image/svg+xml</dc:format>
        <dc:type
           rdf:resource="http://purl.org/dc/dcmitype/StillImage" />
        <dc:title />
      </cc:Work>
    </rdf:RDF>
  </metadata>
  <g
     id="layer1"
     inkscape:label="Layer 1"
     inkscape:groupmode="layer"
     transform="translate(0,-26)">
    <rect
       style="color:#000000;fill:url(#radialGradient2874);fill-opacity:1;fill-rule:nonzero;stroke:url(#linearGradient2876);stroke-width:0.9999997;stroke-linecap:round;stroke-linejoin:round;stroke-miterlimit:4;stroke-opacity:1;stroke-dasharray:none;stroke-dashoffset:0;marker:none;visibility:visible;display:inline;overflow:visible;enable-background:accumulate"
       id="rect5505-21"
       y="27.495834"
       x="1.4999999"
       ry="0.97435808"
       rx="0.97435921"
       height="19"
       width="19" />
    <path
       inkscape:connector-curvature="0"
       style="opacity:0.1;fill:url(#linearGradient3568);fill-opacity:1;fill-rule:evenodd;stroke:none"
       id="path3333"
       d="m 2.5764348,27.995833 c -0.3217218,0 -0.5764347,0.437221 -0.5764347,0.862495 l 0.00597,10.637505 C 2.5238032,39.484271 19.606968,35.256689 20,35.053342 l 0,-6.195014 c 0,-0.325065 -0.25161,-0.862495 -0.530185,-0.862495 l -16.8933808,0 z"
       sodipodi:nodetypes="ccccccc" />
    <rect
       style="opacity:0.5;fill:none;stroke:url(#linearGradient2959);stroke-width:0.99999964;stroke-linecap:round;stroke-linejoin:round;stroke-miterlimit:4;stroke-opacity:1;stroke-dasharray:none;stroke-dashoffset:0"
       id="rect6741"
       y="28.495834"
       x="2.4999998"
       ry="0"
       rx="0"
       height="17"
       width="17" />
    <path
       transform="matrix(0.33333325,0,0,0.33333325,5.3333365,26.329167)"
       sodipodi:type="arc"
       style="opacity:0.2;fill:#ffffff;fill-opacity:1;fill-rule:nonzero;stroke:#000000;stroke-width:6.00000238;stroke-miterlimit:4;stroke-opacity:1;stroke-dasharray:none"
       id="path3920"
       sodipodi:cx="36.5"
       sodipodi:cy="12.5"
       sodipodi:rx="1.5"
       sodipodi:ry="1.5"
       d="M 38,12.5 C 38,13.328427 37.328427,14 36.5,14 35.671573,14 35,13.328427 35,12.5 35,11.671573 35.671573,11 36.5,11 c 0.828427,0 1.5,0.671573 1.5,1.5 z" />
    <path
       d="M 38,12.5 C 38,13.328427 37.328427,14 36.5,14 35.671573,14 35,13.328427 35,12.5 35,11.671573 35.671573,11 36.5,11 c 0.828427,0 1.5,0.671573 1.5,1.5 z"
       sodipodi:ry="1.5"
       sodipodi:rx="1.5"
       sodipodi:cy="12.5"
       sodipodi:cx="36.5"
       id="path3897"
       style="fill:#ffffff;fill-opacity:1;fill-rule:nonzero;stroke:none"
       sodipodi:type="arc"
       transform="matrix(0.33333333,0,0,0.33333333,5.3333336,26.329166)" />
    <path
       d="M 38,12.5 C 38,13.328427 37.328427,14 36.5,14 35.671573,14 35,13.328427 35,12.5 35,11.671573 35.671573,11 36.5,11 c 0.828427,0 1.5,0.671573 1.5,1.5 z"
       sodipodi:ry="1.5"
       sodipodi:rx="1.5"
       sodipodi:cy="12.5"
       sodipodi:cx="36.5"
       id="path3922"
       style="opacity:0.2;fill:#ffffff;fill-opacity:1;fill-rule:nonzero;stroke:#000000;stroke-width:6.00000238;stroke-miterlimit:4;stroke-opacity:1;stroke-dasharray:none"
       sodipodi:type="arc"
       transform="matrix(0.33333325,0,0,0.33333325,-7.6666635,26.329167)" />
    <path
       sodipodi:type="arc"
       style="fill:#ffffff;fill-opacity:1;fill-rule:nonzero;stroke:none"
       id="path3899"
       sodipodi:cx="36.5"
       sodipodi:cy="12.5"
       sodipodi:rx="1.5"
       sodipodi:ry="1.5"
       d="M 38,12.5 C 38,13.328427 37.328427,14 36.5,14 35.671573,14 35,13.328427 35,12.5 35,11.671573 35.671573,11 36.5,11 c 0.828427,0 1.5,0.671573 1.5,1.5 z"
       transform="matrix(0.33333333,0,0,0.33333333,-7.6666664,26.329166)" />
    <g
       transform="scale(0.97021781,1.0306964)"
       style="font-size:6.45677423px;font-style:normal;font-variant:normal;font-weight:normal;font-stretch:normal;line-height:125%;letter-spacing:0px;word-spacing:0px;opacity:0.3;fill:#000000;fill-opacity:1;stroke:none;font-family:Droid Sans;-inkscape-font-specification:Sans"
       id="text3990">
      <path
         d="m 11.394676,33.135042 c -6e-6,0.281299 -0.04432,0.537545 -0.13294,0.768739 -0.08863,0.231205 -0.213865,0.431578 -0.3757,0.601119 -0.157991,0.169552 -0.348731,0.310198 -0.572219,0.42194 -0.223497,0.107898 -0.472037,0.184964 -0.7456193,0.2312 l 0,0.03468 c 0.6820353,0.08478 1.2003073,0.30249 1.5548183,0.653139 0.354501,0.346803 0.531754,0.799569 0.531759,1.358299 -5e-6,0.369921 -0.06359,0.709014 -0.190739,1.017278 -0.123312,0.308268 -0.312125,0.574147 -0.56644,0.79764 -0.254324,0.223493 -0.576077,0.396893 -0.9652587,0.520199 -0.38919,0.123307 -0.8496623,0.18496 -1.3814185,0.18496 -0.4200152,0 -0.8169077,-0.03275 -1.1906787,-0.09826 -0.3699208,-0.06551 -0.7186467,-0.18496 -1.0461789,-0.35836 l 0,-0.982599 c 0.3352388,0.177255 0.6974514,0.314048 1.0866388,0.41038 0.3930376,0.09633 0.7687369,0.144501 1.1270988,0.1445 0.3545032,10e-7 0.6608426,-0.03853 0.919019,-0.1156 0.2581692,-0.07707 0.4701021,-0.186885 0.6357992,-0.32946 0.169542,-0.142572 0.292849,-0.317898 0.36992,-0.525979 0.08092,-0.208078 0.121375,-0.441204 0.12138,-0.699379 -5e-6,-0.262024 -0.05203,-0.485517 -0.15606,-0.67048 -0.100191,-0.18881 -0.244691,-0.342943 -0.4334998,-0.462399 -0.1888171,-0.123303 -0.4200166,-0.213856 -0.6935992,-0.27166 -0.2697363,-0.0578 -0.5760756,-0.0867 -0.919019,-0.0867 l -0.7687392,0 0,-0.872779 0.7687392,0 c 0.3121168,5e-6 0.5895562,-0.03853 0.8323191,-0.1156 0.2427561,-0.07706 0.4450557,-0.186881 0.6068993,-0.329459 0.165689,-0.142568 0.2909216,-0.312114 0.3756996,-0.50864 0.08477,-0.196514 0.127155,-0.4123 0.12716,-0.647359 -5e-6,-0.200367 -0.03468,-0.379546 -0.10404,-0.53754 -0.06936,-0.157979 -0.167624,-0.290919 -0.2947797,-0.398819 -0.1271638,-0.111739 -0.2793702,-0.196512 -0.4566195,-0.25432 -0.1772566,-0.05779 -0.3737762,-0.08669 -0.5895594,-0.0867 -0.4123088,8e-6 -0.776448,0.06552 -1.0924188,0.19652 -0.3121213,0.127167 -0.610754,0.294787 -0.895899,0.50286 l -0.5317594,-0.7225 c 0.1464258,-0.119445 0.3082655,-0.231191 0.4855194,-0.335239 0.1811053,-0.104032 0.3776249,-0.194585 0.5895594,-0.27166 0.2119313,-0.08091 0.4373508,-0.144491 0.6762593,-0.19074 0.2427572,-0.04623 0.4990033,-0.06935 0.7687391,-0.06936 0.4161561,9e-6 0.7802954,0.05203 1.0924188,0.15606 0.3159688,0.104048 0.5799218,0.250475 0.7918588,0.43928 0.211928,0.184967 0.371841,0.406533 0.47974,0.664699 0.107888,0.254327 0.161834,0.533693 0.16184,0.838099"
         style="font-size:11.83742714px;fill:#000000"
         id="path3923" />
      <path
         d="m 16.46951,39.608635 -1.017279,0 0,-5.277134 c -3e-6,-0.165688 -3e-6,-0.342941 0,-0.53176 0.0039,-0.188807 0.0077,-0.375693 0.01156,-0.560659 0.0077,-0.188807 0.01348,-0.367986 0.01734,-0.53754 0.0077,-0.173392 0.01348,-0.325599 0.01734,-0.456619 -0.06551,0.06937 -0.123309,0.129094 -0.173399,0.17918 -0.0501,0.0501 -0.102117,0.09827 -0.15606,0.1445 -0.0501,0.04625 -0.104043,0.09634 -0.16184,0.150279 -0.0578,0.0501 -0.127162,0.109827 -0.20808,0.17918 l -0.855439,0.699379 -0.554879,-0.710939 2.213737,-1.728218 0.866999,0 0,8.450351"
         style="font-size:11.83742714px;fill:#000000"
         id="path3925" />
    </g>
    <g
       transform="scale(0.97601273,1.0245768)"
       style="font-size:6.51419782999999963px;font-style:normal;font-variant:normal;font-weight:normal;font-stretch:normal;line-height:125%;letter-spacing:0px;word-spacing:0px;fill:#ffffff;fill-opacity:1;stroke:none;font-family:Droid Sans;-inkscape-font-specification:Sans"
       id="text3955">
      <path
         d="m 11.273262,34.340666 c -6e-6,0.283801 -0.04471,0.542326 -0.134122,0.775576 -0.08942,0.233262 -0.215767,0.435417 -0.379041,0.606466 -0.159397,0.171059 -0.351833,0.312956 -0.577309,0.425692 -0.2254848,0.108857 -0.4762348,0.186609 -0.7522503,0.233256 l 0,0.03499 c 0.6881003,0.08553 1.2109823,0.305181 1.5686463,0.658948 0.357654,0.349888 0.536483,0.80668 0.536489,1.370379 -6e-6,0.373212 -0.06415,0.715321 -0.192436,1.026327 -0.124409,0.311009 -0.314901,0.579253 -0.571477,0.804733 -0.256587,0.225481 -0.581201,0.400423 -0.9738441,0.524826 -0.3926514,0.124403 -0.8572191,0.186605 -1.3937046,0.186605 -0.4237507,0 -0.8241731,-0.03305 -1.2012684,-0.09913 -0.3732107,-0.06609 -0.7250382,-0.186605 -1.0554834,-0.361547 l 0,-0.991338 c 0.3382204,0.178831 0.7036544,0.316841 1.0963032,0.41403 0.3965332,0.09719 0.7755739,0.145785 1.137123,0.145785 0.3576561,0 0.66672,-0.03888 0.9271926,-0.116628 0.2604653,-0.07775 0.4742831,-0.188548 0.641454,-0.33239 0.1710497,-0.14384 0.2954527,-0.320726 0.3732097,-0.530658 0.08164,-0.209928 0.122454,-0.445128 0.122459,-0.705599 -5e-6,-0.264354 -0.05249,-0.489835 -0.157448,-0.676442 -0.101082,-0.190489 -0.246866,-0.345993 -0.4373545,-0.466512 -0.1904964,-0.1244 -0.4237522,-0.215758 -0.699768,-0.274076 -0.2721352,-0.05831 -0.5811991,-0.08747 -0.9271926,-0.08747 l -0.7755762,0 0,-0.880542 0.7755762,0 c 0.3148927,5e-6 0.5947996,-0.03887 0.8397216,-0.116628 0.2449151,-0.07775 0.4490139,-0.188543 0.612297,-0.332389 0.1671626,-0.143836 0.2935095,-0.31489 0.3790405,-0.513164 0.08552,-0.198261 0.128287,-0.415967 0.128291,-0.653116 -4e-6,-0.202149 -0.03499,-0.382922 -0.104965,-0.542321 C 10.007844,33.708938 9.9087102,33.574816 9.7804237,33.465956 9.6521289,33.353223 9.4985689,33.267696 9.3197431,33.209374 9.14091,33.151068 8.9426426,33.121911 8.7249403,33.121903 c -0.4159758,8e-6 -0.7833537,0.0661 -1.1021346,0.198268 -0.3148972,0.128298 -0.6161859,0.297409 -0.903867,0.507332 L 6.1824499,33.098578 C 6.3301781,32.97807 6.4934571,32.86533 6.6722875,32.760356 6.8550035,32.6554 7.0532709,32.564041 7.2670903,32.486281 c 0.2138162,-0.08163 0.4412406,-0.145777 0.6822738,-0.192436 0.2449163,-0.04664 0.5034414,-0.06997 0.7755762,-0.06998 0.4198573,8e-6 0.7872351,0.05249 1.1021346,0.157447 0.3187791,0.104974 0.5850791,0.252703 0.7989021,0.443187 0.213812,0.186613 0.375148,0.410149 0.484006,0.670611 0.108847,0.256589 0.163273,0.538439 0.163279,0.845553"
         style="font-size:11.94270706000000004px;fill:#ffffff;fill-opacity:1"
         id="path3150" />
      <path
         d="m 16.393231,40.871834 -1.026326,0 0,-5.324068 c -3e-6,-0.167162 -3e-6,-0.345991 0,-0.536489 0.0039,-0.190486 0.0078,-0.379035 0.01166,-0.565646 0.0078,-0.190486 0.0136,-0.371259 0.01749,-0.54232 0.0078,-0.174935 0.0136,-0.328495 0.01749,-0.460681 -0.06609,0.06998 -0.124406,0.130242 -0.174942,0.180774 -0.05054,0.05055 -0.103024,0.09914 -0.157448,0.145785 -0.05054,0.04666 -0.104967,0.0972 -0.163279,0.151616 -0.05832,0.05055 -0.128293,0.110804 -0.20993,0.180773 l -0.863047,0.7056 -0.559815,-0.717262 2.233426,-1.743589 0.87471,0 0,8.525507"
         style="font-size:11.94270706000000004px;fill:#ffffff;fill-opacity:1"
         id="path3152" />
    </g>
    <path
       style="opacity:0.4;fill:#000000;fill-opacity:1;fill-rule:evenodd;stroke:none;display:inline;filter:url(#filter3248)"
       id="path12038"
       transform="matrix(0,0.4863984,-0.48730873,0,20.735828,26.290208)"
       d="m 28.617256,0.9212581 c 4.282522,0 2.15325,8.4831709 2.15325,8.4831709 0,0 10.357642,-1.8023467 10.357642,2.818745 0,-2.609724 -11.302304,-10.7285959 -12.510892,-11.3019159 z"
       inkscape:connector-curvature="0" />
    <path
       style="opacity:0.1;fill:#000000;fill-opacity:1;stroke:none"
       d="m 15.638,46.039833 4.385778,-5.350312 0,4.863923 -0.487305,0.486389 z"
       id="path3477"
       inkscape:connector-curvature="0" />
    <path
       style="fill:url(#linearGradient3395);fill-opacity:1;fill-rule:evenodd;stroke:none;display:inline"
       id="path4474"
       d="m 20.048834,39.946519 c 0,1.549899 -3.733698,1.136101 -3.733698,1.136101 0,0 0.478075,4.949166 -1.773824,4.949166 0.548681,0 0.941602,0.04177 1.112818,-0.06502 1.230051,-0.767693 3.990276,-4.08357 4.352048,-5.280977 0.02704,-0.08961 0.04258,-0.288292 0.04258,-0.739231 z"
       inkscape:connector-curvature="0" />
  </g>
</svg>
