<?xml version="1.0" encoding="UTF-8" standalone="no"?>
<svg
   xmlns:dc="http://purl.org/dc/elements/1.1/"
   xmlns:cc="http://creativecommons.org/ns#"
   xmlns:rdf="http://www.w3.org/1999/02/22-rdf-syntax-ns#"
   xmlns:svg="http://www.w3.org/2000/svg"
   xmlns="http://www.w3.org/2000/svg"
   xmlns:xlink="http://www.w3.org/1999/xlink"
   width="22"
   height="22"
   id="svg4032"
   version="1.1">
  <defs
     id="defs4034">
    <linearGradient
       id="linearGradient3895-9-0-3">
      <stop
         offset="0"
         style="stop-color:#dc5639;stop-opacity:1;"
         id="stop3897-0-5-7" />
      <stop
         offset="1"
         style="stop-color:#9d0f0f;stop-opacity:1;"
         id="stop3899-8-7-06" />
    </linearGradient>
    <linearGradient
       xlink:href="#linearGradient3924"
       id="linearGradient2959"
       gradientUnits="userSpaceOnUse"
       gradientTransform="matrix(0.45945947,0,0,0.45945947,-0.02702537,25.972977)"
       x1="23.99999"
       y1="4.999989"
       x2="23.99999"
       y2="43" />
    <linearGradient
       id="linearGradient3924">
      <stop
         offset="0"
         style="stop-color:#ffffff;stop-opacity:1;"
         id="stop3926" />
      <stop
         id="stop3928"
         style="stop-color:#ffffff;stop-opacity:0.23529412;"
         offset="0.06316455" />
      <stop
         offset="0.95056331"
         style="stop-color:#ffffff;stop-opacity:0.15686275;"
         id="stop3930" />
      <stop
         offset="1"
         style="stop-color:#ffffff;stop-opacity:0.39215687;"
         id="stop3932" />
    </linearGradient>
    <linearGradient
       xlink:href="#linearGradient8265-821-176-38-919-66-249-7-7"
       id="linearGradient3568"
       gradientUnits="userSpaceOnUse"
       gradientTransform="matrix(0.39078011,0,0,0.59639875,1.6029957,24.593244)"
       x1="16.626165"
       y1="15.298182"
       x2="20.054544"
       y2="24.627615" />
    <linearGradient
       id="linearGradient8265-821-176-38-919-66-249-7-7">
      <stop
         offset="0"
         style="stop-color:#e77e71;stop-opacity:1;"
         id="stop2687-1-9" />
      <stop
         offset="1"
         style="stop-color:#ffdf80;stop-opacity:0.375;"
         id="stop2689-5-4" />
    </linearGradient>
    <radialGradient
       r="19.99999"
       fy="8.4497671"
       fx="7.4956832"
       cy="8.4497671"
       cx="7.4956832"
       gradientTransform="matrix(0,1.1385336,-1.2044327,-2.0976134e-8,21.177229,19.249713)"
       gradientUnits="userSpaceOnUse"
       id="radialGradient2874"
       xlink:href="#linearGradient4644-104-3-3-6-2" />
    <linearGradient
       id="linearGradient4644-104-3-3-6-2">
      <stop
         id="stop5237-6-5-1-7"
         style="stop-color:#e44532;stop-opacity:1;"
         offset="0" />
      <stop
         id="stop5239-4-6-4-8"
         style="stop-color:#dd4b39;stop-opacity:1;"
         offset="1" />
    </linearGradient>
    <linearGradient
       y2="43.2943"
       x2="13.990655"
       y1="3.9626207"
       x1="13.990655"
       gradientTransform="matrix(0.48717948,0,0,0.48717948,-0.69230718,25.307692)"
       gradientUnits="userSpaceOnUse"
       id="linearGradient2876"
       xlink:href="#linearGradient3895-9-0-3" />
  </defs>
  <metadata
     id="metadata4037">
    <rdf:RDF>
      <cc:Work
         rdf:about="">
        <dc:format>image/svg+xml</dc:format>
        <dc:type
           rdf:resource="http://purl.org/dc/dcmitype/StillImage" />
        <dc:title />
      </cc:Work>
    </rdf:RDF>
  </metadata>
  <g
     id="layer1"
     transform="translate(0,-26)">
    <rect
       style="color:#000000;display:inline;overflow:visible;visibility:visible;fill:url(#radialGradient2874);fill-opacity:1;fill-rule:nonzero;stroke:url(#linearGradient2876);stroke-width:0.99999994;stroke-linecap:round;stroke-linejoin:round;stroke-miterlimit:4;stroke-dasharray:none;stroke-dashoffset:0;stroke-opacity:1;marker:none;enable-background:accumulate"
       id="rect5505-21"
       y="27.5"
       x="1.5"
       ry="0.97435904"
       rx="0.97435904"
       height="19"
       width="19" />
    <path
       style="opacity:0.4;fill:url(#linearGradient3568);fill-opacity:1;fill-rule:evenodd;stroke:none"
       id="path3333"
       d="M 2.5764341,28 C 2.2652781,28 2,28.320011 2,28.61875 L 2.00599,39 C 2.5238059,38.988921 19.606965,34.945167 20,34.750659 L 20,28.61875 C 20,28.307814 19.679036,28 19.400461,28 Z" />
    <path
       id="path3873"
       d="m 9.145041,30.000621 c -0.4625485,-0.0046 -3.7003936,0 -3.7003936,3.733171 0,1.866582 1.3876487,2.799873 3.2378451,2.799873 -0.4625482,1.399939 0.4625485,1.866584 -0.4163848,1.89332 0,0 -4.2091078,0.43991 -4.2091078,3.239785 0,1.866585 2.1211577,2.33323 3.7003947,2.33323 2.5043324,0 4.6254914,-0.933289 4.6254914,-3.266521 0,-2.33323 -2.312747,-2.33323 -2.312747,-3.733165 l 0,-0.453281 c 0,0 1.904061,-0.751719 2.312747,-2.813241 0.462549,-2.333232 -1.387648,-2.799877 -1.387648,-2.799877 l 0.462551,0 c 0.925097,0 1.520539,-0.893188 1.520539,-0.893188 z m 0.795602,5.721075 c -2.5167064,0.846333 -4.3449165,-3.55233 -2.0321693,-4.485623 2.3127443,-0.933294 4.5488753,3.63929 2.0321693,4.485623 z m -1.7206987,3.741341 c 1.3876457,0 3.4412697,0.565887 2.4731357,2.519301 -0.9251,1.866583 -4.9678571,1.551017 -4.9678571,-0.782212 0,-1.399938 1.1070732,-1.737089 2.4947214,-1.737089 z"
       style="opacity:0.25;fill:none;fill-opacity:1;stroke:#8e1a1a;stroke-width:1.99999976;stroke-miterlimit:4;stroke-dasharray:none;stroke-opacity:1" />
    <path
       style="fill:#ffffff;fill-opacity:1;stroke:none"
       d="m 9.145041,30.000625 c -0.4625476,-0.0046 -3.7003935,0 -3.7003935,3.733168 0,1.866584 1.3876481,2.799874 3.2378459,2.799874 -0.4625497,1.399939 0.4625476,1.866585 -0.4163863,1.893321 0,0 -4.209107,0.439911 -4.209107,3.239784 0,1.866585 2.1211578,2.333232 3.7003939,2.333232 2.504333,0 4.625492,-0.933292 4.625492,-3.266522 0,-2.33323 -2.312746,-2.33323 -2.312746,-3.733167 l 0,-0.453278 c 0,0 1.90406,-0.751719 2.312746,-2.813244 0.462549,-2.333232 -1.387646,-2.799877 -1.387646,-2.799877 l 0.462548,0 c 0.925098,0 1.52054,-0.893188 1.52054,-0.893188 z m 0.77402,5.69949 C 7.2990588,36.581187 5.7522566,32.09749 7.8868904,31.236074 10.021524,30.374658 12.539063,34.819043 9.919061,35.700115 Z M 8.2199437,39.6357 c 1.1286553,0 3.4456763,0.384336 2.4731383,2.346641 -0.792259,1.598552 -4.9462762,1.18411 -4.9462762,-0.782211 0,-1.248861 1.2797344,-1.56443 2.4731379,-1.56443 z"
       id="path3817" />
    <rect
       style="opacity:0.5;fill:none;stroke:url(#linearGradient2959);stroke-width:0.99999988;stroke-linecap:round;stroke-linejoin:round;stroke-miterlimit:4;stroke-dasharray:none;stroke-dashoffset:0;stroke-opacity:1"
       id="rect6741"
       y="28.5"
       x="2.5"
       ry="0.31924465"
       rx="0.31924465"
       height="17"
       width="17" />
    <path
       id="path3869"
       d="m 13,37 2,0 0,-2 1,0 0,2 2,0 0,1 -2,0 0,2 -1,0 0,-2 -2,0 z"
       style="opacity:0.25;fill:none;fill-opacity:1;stroke:#8e1a1a;stroke-width:2;stroke-miterlimit:4;stroke-dasharray:none;stroke-opacity:1" />
    <path
       style="fill:#ffffff;fill-opacity:1;stroke:none"
       d="m 13,37 2,0 0,-2.000001 1,0 L 16,37 l 1.999999,0 0,1 L 16,38 l 0,1.999999 -1,0 L 15,38 13,38 Z"
       id="path3825" />
  </g>
</svg>
