<?xml version="1.0" encoding="UTF-8" standalone="no"?>
<svg
   xmlns:dc="http://purl.org/dc/elements/1.1/"
   xmlns:cc="http://creativecommons.org/ns#"
   xmlns:rdf="http://www.w3.org/1999/02/22-rdf-syntax-ns#"
   xmlns:svg="http://www.w3.org/2000/svg"
   xmlns="http://www.w3.org/2000/svg"
   xmlns:xlink="http://www.w3.org/1999/xlink"
   version="1.1"
   width="22"
   height="22"
   id="svg4117">
  <defs
     id="defs4119">
    <linearGradient
       id="linearGradient3891">
      <stop
         style="stop-color:#000000;stop-opacity:1;"
         offset="0"
         id="stop3893" />
      <stop
         style="stop-color:#000000;stop-opacity:0;"
         offset="1"
         id="stop3895" />
    </linearGradient>
    <linearGradient
       id="linearGradient3924">
      <stop
         id="stop3926"
         style="stop-color:#ffffff;stop-opacity:1"
         offset="0" />
      <stop
         id="stop3928"
         style="stop-color:#ffffff;stop-opacity:0.23529412"
         offset="0.06316455" />
      <stop
         id="stop3930"
         style="stop-color:#ffffff;stop-opacity:0.15686275"
         offset="0.95056331" />
      <stop
         id="stop3932"
         style="stop-color:#ffffff;stop-opacity:0.39215687"
         offset="1" />
    </linearGradient>
    <filter
       color-interpolation-filters="sRGB"
       id="filter3831">
      <feGaussianBlur
         id="feGaussianBlur3833"
         stdDeviation="0.6375" />
    </filter>
    <clipPath
       id="clipPath3823">
      <path
         d="M 108.8125,58 C 107.25437,58 106,59.254375 106,60.8125 l 0,24.375 C 106,86.745625 107.25437,88 108.8125,88 l 24.375,0 C 134.74562,88 136,86.745625 136,85.1875 l 0,-24.375 C 136,59.254375 134.74562,58 133.1875,58 l -24.375,0 z m 7.1875,4.5 10,0 0,8.75 5,0 -10,13.75 -10,-13.75 5,0 0,-8.75 z"
         id="path3825"
         style="fill:#ffffff;fill-opacity:1;stroke:none" />
    </clipPath>
    <linearGradient
       x1="65.262688"
       y1="64.205269"
       x2="65.262688"
       y2="50.068527"
       id="linearGradient3812"
       xlink:href="#linearGradient5010"
       gradientUnits="userSpaceOnUse"
       gradientTransform="matrix(0.625,0,0,0.625,78.5,32.25)" />
    <filter
       color-interpolation-filters="sRGB"
       id="filter3806">
      <feGaussianBlur
         id="feGaussianBlur3808"
         stdDeviation="1.2" />
    </filter>
    <linearGradient
       x1="70"
       y1="54"
       x2="70"
       y2="75.095024"
       id="linearGradient3788"
       xlink:href="#linearGradient3737"
       gradientUnits="userSpaceOnUse"
       gradientTransform="translate(0,4)" />
    <linearGradient
       x1="56"
       y1="72"
       x2="88"
       y2="72"
       id="linearGradient3773"
       xlink:href="#linearGradient3778"
       gradientUnits="userSpaceOnUse"
       gradientTransform="matrix(0.9375,0,0,0.9375,-140.5,3.5)" />
    <linearGradient
       x1="65.262688"
       y1="64.205269"
       x2="65.262688"
       y2="50.068527"
       id="linearGradient3832"
       xlink:href="#linearGradient3737"
       gradientUnits="userSpaceOnUse"
       gradientTransform="matrix(0.625,0,0,0.625,28.5,31.25)" />
    <filter
       color-interpolation-filters="sRGB"
       id="filter3174">
      <feGaussianBlur
         id="feGaussianBlur3176"
         stdDeviation="1.71" />
    </filter>
    <linearGradient
       id="linearGradient3737">
      <stop
         id="stop3739"
         style="stop-color:#ffffff;stop-opacity:1"
         offset="0" />
      <stop
         id="stop3741"
         style="stop-color:#ffffff;stop-opacity:0"
         offset="1" />
    </linearGradient>
    <linearGradient
       x1="45.447727"
       y1="92.539597"
       x2="45.447727"
       y2="7.0165396"
       id="ButtonShadow"
       gradientUnits="userSpaceOnUse"
       gradientTransform="scale(1.0058652,0.994169)">
      <stop
         id="stop3750"
         style="stop-color:#000000;stop-opacity:1"
         offset="0" />
      <stop
         id="stop3752"
         style="stop-color:#000000;stop-opacity:0.58823532"
         offset="1" />
    </linearGradient>
    <linearGradient
       id="linearGradient5010">
      <stop
         id="stop5012"
         style="stop-color:#000000;stop-opacity:1"
         offset="0" />
      <stop
         id="stop5014"
         style="stop-color:#000000;stop-opacity:0"
         offset="1" />
    </linearGradient>
    <linearGradient
       id="linearGradient3778">
      <stop
         id="stop3780"
         style="stop-color:#499119;stop-opacity:1"
         offset="0" />
      <stop
         id="stop3782"
         style="stop-color:#8fd625;stop-opacity:1"
         offset="1" />
    </linearGradient>
    <linearGradient
       id="linearGradient3104">
      <stop
         id="stop3106"
         style="stop-color:#aaaaaa;stop-opacity:1"
         offset="0" />
      <stop
         id="stop3108"
         style="stop-color:#c8c8c8;stop-opacity:1"
         offset="1" />
    </linearGradient>
    <linearGradient
       id="linearGradient3600">
      <stop
         id="stop3602"
         style="stop-color:#f4f4f4;stop-opacity:1"
         offset="0" />
      <stop
         id="stop3604"
         style="stop-color:#dbdbdb;stop-opacity:1"
         offset="1" />
    </linearGradient>
    <linearGradient
       id="linearGradient3104-5">
      <stop
         id="stop3106-9"
         style="stop-color:#aaaaaa;stop-opacity:1"
         offset="0" />
      <stop
         id="stop3108-8"
         style="stop-color:#c8c8c8;stop-opacity:1"
         offset="1" />
    </linearGradient>
    <linearGradient
       xlink:href="#linearGradient3924"
       id="linearGradient3084"
       gradientUnits="userSpaceOnUse"
       gradientTransform="matrix(0.45945943,0,0,0.45945941,-0.02702528,-0.02702254)"
       x1="23.99999"
       y1="4.999989"
       x2="23.99999"
       y2="43" />
    <radialGradient
       xlink:href="#linearGradient3600"
       id="radialGradient3093"
       gradientUnits="userSpaceOnUse"
       gradientTransform="matrix(0,0.94477745,-0.99946216,-2.5715389e-8,19.445273,-5.2979526)"
       cx="7.4956832"
       cy="8.4497671"
       fx="7.4956832"
       fy="8.4497671"
       r="19.99999" />
    <linearGradient
       xlink:href="#linearGradient3104"
       id="linearGradient3095"
       gradientUnits="userSpaceOnUse"
       gradientTransform="matrix(0.48717948,0,0,0.48717939,-0.69230785,-0.69230734)"
       x1="24"
       y1="44"
       x2="24"
       y2="3.8990016" />
    <linearGradient
       xlink:href="#linearGradient3104-5"
       id="linearGradient3098"
       gradientUnits="userSpaceOnUse"
       x1="20"
       y1="43"
       x2="20"
       y2="3"
       gradientTransform="matrix(0.48766996,0,0,0.4873028,-0.70251357,-1.1600016)" />
    <linearGradient
       xlink:href="#linearGradient3891"
       id="linearGradient3897"
       x1="24.772341"
       y1="8.1982851"
       x2="24.772341"
       y2="42.203014"
       gradientUnits="userSpaceOnUse"
       gradientTransform="matrix(0.44793889,0,0,0.45828852,5.182404e-4,-0.49545374)" />
  </defs>
  <metadata
     id="metadata4122">
    <rdf:RDF>
      <cc:Work
         rdf:about="">
        <dc:format>image/svg+xml</dc:format>
        <dc:type
           rdf:resource="http://purl.org/dc/dcmitype/StillImage" />
        <dc:title />
      </cc:Work>
    </rdf:RDF>
  </metadata>
  <path
     style="opacity:0.05;color:#000000;fill:url(#linearGradient3098);fill-opacity:1;fill-rule:nonzero;stroke:none;stroke-width:1;marker:none;visibility:visible;display:inline;overflow:visible;enable-background:accumulate"
     id="path4564-0"
     d="M 10.498656,2.8297902 A 1.4317614,1.4306834 0 0 0 9.8128689,3.0277569 L 4.4332606,6.1343122 a 1.4317614,1.4306834 0 0 0 -0.685786,0.9898334 1.4317614,1.4306834 0 0 0 -0.015238,0 1.4317614,1.4306834 0 0 0 -0.4724304,1.0659742 l -0.030479,6.1978842 a 1.4317614,1.4306834 0 0 0 0.4876699,1.065975 1.4317614,1.4306834 0 0 0 0,0.01521 1.4317614,1.4306834 0 0 0 0.7010255,1.020291 l 5.3643693,3.076099 a 1.4317614,1.4306834 0 0 0 1.1734561,0.106599 1.4317614,1.4306834 0 0 0 0.01522,0 1.4317614,1.4306834 0 0 0 1.219174,-0.09137 l 5.364372,-3.091325 a 1.4317614,1.4306834 0 0 0 0.685788,-0.974605 1.4317614,1.4306834 0 0 0 0.533388,-1.096433 l 0,-6.1978796 A 1.4317614,1.4306834 0 0 0 18.286136,7.1546039 1.4317614,1.4306834 0 0 0 17.585109,6.1343122 L 12.2055,3.0429852 A 1.4317614,1.4306834 0 0 0 11.032044,2.9211594 1.4317614,1.4306834 0 0 0 10.498656,2.8297902 z" />
  <rect
     style="color:#000000;fill:url(#radialGradient3093);fill-opacity:1;fill-rule:nonzero;stroke:url(#linearGradient3095);stroke-width:0.99999988;stroke-linecap:round;stroke-linejoin:round;stroke-miterlimit:4;stroke-opacity:1;stroke-dasharray:none;stroke-dashoffset:0;marker:none;visibility:visible;display:inline;overflow:visible;enable-background:accumulate"
     id="rect5505-21"
     y="1.5"
     x="1.5"
     ry="0.97435886"
     rx="0.97435886"
     height="19"
     width="19" />
  <rect
     style="fill:none;stroke:url(#linearGradient3084);stroke-width:1;stroke-linecap:round;stroke-linejoin:round;stroke-miterlimit:4;stroke-opacity:1;stroke-dasharray:none;stroke-dashoffset:0"
     id="rect6741-2"
     y="2.5"
     x="2.5"
     ry="0"
     rx="0"
     height="17"
     width="17" />
  <g
     style="display:none"
     id="layer2"
     transform="translate(-135.85714,-57.05041)">
    <path
       style="opacity:0.9;fill:url(#ButtonShadow);fill-opacity:1;fill-rule:nonzero;stroke:none;filter:url(#filter3174)"
       id="rect3745"
       d="M 11,7 48,5 85,7 c 3.324,0 6,2.676 6,6 l 0,73 c 0,3.324 -2.676,6 -6,6 L 11,92 C 7.676,92 5,89.324 5,86 L 5,13 C 5,9.676 7.676,7 11,7 z" />
  </g>
  <g
     style="display:none"
     id="layer4"
     transform="translate(-135.85714,-57.05041)">
    <rect
       style="opacity:0.6;fill:#000000;fill-opacity:1;stroke:none;filter:url(#filter3806)"
       id="rect3790"
       transform="matrix(0,-1,1,0,0,4)"
       y="56"
       x="-86"
       ry="2.8125"
       rx="2.8125"
       height="30"
       width="30" />
    <rect
       style="fill:url(#linearGradient3773);fill-opacity:1;stroke:none"
       id="rect2993"
       transform="matrix(0,-1,1,0,0,0)"
       y="56"
       x="-88"
       ry="2.8125"
       rx="2.8125"
       height="30"
       width="30" />
    <path
       style="opacity:0.5;fill:url(#linearGradient3788);fill-opacity:1;stroke:none"
       id="rect3775"
       d="M 58.8125,58 C 57.254375,58 56,59.254375 56,60.8125 l 0,24.375 c 0,0.873066 0.410816,1.641163 1.03125,2.15625 C 57.02841,87.289908 57,87.242129 57,87.1875 l 0,-24.375 C 57,61.254375 58.17075,60 59.625,60 l 22.75,0 C 83.82925,60 85,61.254375 85,62.8125 l 0,24.375 c 0,0.05463 -0.02841,0.102408 -0.03125,0.15625 C 85.589184,86.828663 86,86.060566 86,85.1875 l 0,-24.375 C 86,59.254375 84.745625,58 83.1875,58 l -24.375,0 z" />
    <path
       style="opacity:0.6;fill:url(#linearGradient3812);fill-opacity:1;fill-rule:nonzero;stroke:none;display:inline;filter:url(#filter3831)"
       id="path3810"
       clip-path="url(#clipPath3823)"
       transform="translate(-50,0)"
       d="m 116,63.5 0,8.75 -5,0 10,13.75 10,-13.75 -5,0 0,-8.75 -10,0 z" />
    <path
       style="fill:url(#linearGradient3832);fill-opacity:1;fill-rule:nonzero;stroke:none;display:inline"
       id="path4278"
       d="m 66,62.5 0,8.75 -5,0 10,13.75 10,-13.75 -5,0 0,-8.75 -10,0 z" />
  </g>
  <path
     style="opacity:0.6;fill:#ffffff;fill-opacity:1"
     d="M 9.2009329,19.92612 C 8.1596677,19.772915 7.4091619,19.441759 6.8132377,18.872566 5.7437658,17.851063 5.778382,16.352322 6.8971313,15.240377 7.6556566,14.48647 9.2359219,13.73795 10.941048,13.592846 c 0.314243,-0.02673 0.581627,-0.05755 0.594187,-0.06843 0.01257,-0.01089 -0.08576,-0.1754 -0.21847,-0.36556 -0.189664,-0.271742 -0.248171,-0.441561 -0.273375,-0.793471 -0.01766,-0.246257 -0.3014,-0.267884 -0.25778,-0.394099 l 0.07921,-0.229485 -0.538679,0 c -1.7361134,0 -2.9921693,-1.024179 -3.2708058,-2.6669929 C 6.8886025,8.0917287 7.3111097,6.9263742 8.1150465,6.1519395 8.9122004,5.3840381 10.249758,4.9019565 11.583179,4.9019565 c 0.516234,0 0.815713,-0.1067307 1.667849,-0.594395 0.295588,-0.1691586 0.565352,-0.3075614 0.59948,-0.3075614 0.107958,0 0.520017,0.3849629 0.520017,0.4858228 0,0.053156 -0.187369,0.355759 -0.416376,0.6724552 l -0.416379,0.5758041 0.293452,0.3215192 c 0.92541,1.0139138 1.155543,2.3166893 0.616673,3.4909567 -0.189737,0.413459 -0.372002,0.6392809 -1.014005,1.2563169 -0.596928,0.573719 -0.796383,0.814539 -0.840386,1.014702 -0.104658,0.47606 0.01983,0.71208 0.644437,1.221798 0.908568,0.74145 1.615969,1.457601 1.827485,1.850084 0.107266,0.199035 0.24671,0.586938 0.309876,0.862003 0.102829,0.447797 0.10309,0.551297 0.0024,0.989343 -0.06181,0.269079 -0.20079,0.665504 -0.308891,0.880944 -0.250918,0.500081 -0.988392,1.277218 -1.483517,1.563309 -1.168098,0.674953 -2.874078,0.963297 -4.3844771,0.741064 z M 12.55645,18.602022 c 0.512212,-0.200529 0.959353,-0.582646 1.184721,-1.012439 0.215377,-0.410736 0.357028,-1.027101 0.151372,-1.413175 -0.191027,-0.358609 -0.871719,-1.01346 -1.514945,-1.457425 l -0.532532,-0.367564 -0.653695,0.05232 c -1.7647311,0.141258 -2.7818102,0.613688 -3.2414054,1.50562 -0.2482073,0.481702 -0.2232118,1.240756 0.057968,1.760108 0.5396606,0.996797 1.4635563,1.167988 3.1433234,1.127326 0.791903,-0.01919 1.046965,-0.05451 1.405193,-0.194771 z M 12.060909,10.199827 C 12.929184,9.7613521 13.214791,9.4773091 12.838565,8.0050128 12.574381,6.9711647 11.99331,6.1641349 11.331934,5.8407906 10.974231,5.6659119 10.452312,5.6418714 9.9944739,5.7791822 9.5552859,5.910899 9.0388369,6.5849842 8.902888,7.0584266 8.6778086,7.8422662 8.7967049,8.8350026 9.2427479,9.7273871 9.8979769,11.038266 10.954744,10.758433 12.060909,10.199827 z"
     id="path3082-7" />
  <path
     style="fill:#3b60b5;fill-opacity:1"
     d="M 9.1669329,18.926112 C 8.1256668,18.772907 7.3751611,18.441749 6.7792376,17.872556 5.709766,16.851057 5.7443821,15.352313 6.8631304,14.24037 c 0.7585259,-0.75391 2.0338908,-1.219306 3.7390166,-1.364408 0.314243,-0.02672 0.581626,-0.05756 0.594188,-0.06843 0.01257,-0.01089 -0.08576,-0.175401 -0.218471,-0.365559 -0.189663,-0.271745 -0.248171,-0.441564 -0.273374,-0.793475 -0.01766,-0.246252 0.0035,-0.551002 0.04712,-0.677216 l 0.07921,-0.229484 -0.538677,0 c -1.7361142,0 -2.9921698,-1.0241799 -3.2708071,-2.6669931 C 6.8546022,7.0917283 7.2771093,5.9263733 8.081046,5.1519389 8.8781995,4.3840378 10.215757,3.9019567 11.549179,3.9019567 c 0.516232,0 0.815713,-0.1067308 1.667847,-0.5943953 0.295588,-0.1691585 0.565353,-0.3075615 0.59948,-0.3075615 0.107958,0 0.520018,0.3849629 0.520018,0.4858226 0,0.053156 -0.18737,0.3557597 -0.416377,0.6724553 l -0.416373,0.5758067 0.293452,0.321519 c 0.92541,1.0139137 1.155543,2.3166893 0.616674,3.4909544 -0.189738,0.4134615 -0.372003,0.6392822 -1.014007,1.2563172 -0.596927,0.5737169 -0.796382,0.8145379 -0.840386,1.0146999 -0.104658,0.476062 0.01983,0.712081 0.644437,1.2218 0.908568,0.741449 1.615969,1.457601 1.827485,1.850083 0.107267,0.199034 0.246711,0.586938 0.309876,0.862004 0.102829,0.447795 0.10309,0.551296 0.0024,0.989344 -0.06181,0.26908 -0.200791,0.665502 -0.308892,0.880943 -0.250918,0.500082 -0.988392,1.277215 -1.483517,1.563308 -1.168099,0.674952 -2.874078,0.963298 -4.3844771,0.741065 z m 3.4630901,-1.441371 c 0.328914,-0.135339 0.638051,-0.305675 0.869023,-0.712143 0.22913,-0.403226 0.341853,-1.094626 0.151598,-1.557697 -0.154414,-0.375834 -0.771618,-0.844067 -1.414846,-1.288031 l -0.532533,-0.367561 -0.692195,0.07542 c -1.7599591,0.19176 -2.5046129,0.790784 -2.87181,1.45942 -0.260844,0.474976 -0.1416513,1.055553 0.050268,1.429012 0.4857774,0.945283 1.3016309,1.289412 2.9814,1.24875 0.791901,-0.01917 1.120344,-0.147783 1.459095,-0.28717 z M 11.956288,9.7400941 C 13.108542,9.3241191 12.738416,7.4866161 12.527367,6.8433097 12.267681,6.0517519 11.761753,5.3632326 11.308277,5.1168872 10.958404,4.9268236 10.467154,4.8871685 10.009315,5.02448 9.5701269,5.1561966 9.1833749,5.6091264 9.0409279,6.080654 8.9390463,6.4179007 8.9167028,7.4346038 9.3627439,8.3269886 10.017974,9.6378641 10.792404,10.160267 11.956288,9.7400941 z"
     id="path3082" />
  <path
     style="opacity:0.1;fill:none;stroke:url(#linearGradient3897);stroke-width:0.60000002;stroke-miterlimit:4;stroke-opacity:1;stroke-dasharray:none"
     d="m 13.70465,3.3999988 c -0.75149,0.3883588 -1.508642,0.8952449 -2.399644,0.8030738 -1.4357381,0.071886 -3.1306708,0.7401112 -3.731724,2.171831 -0.6751805,1.3589368 0.05122,3.2937885 1.4651809,3.8602624 0.592611,0.283681 1.2524401,0.241529 1.8857611,0.264433 0.260844,0.101278 0.0939,0.393239 0.07422,0.581334 -0.149207,0.611325 0.205297,1.291399 0.492456,1.782049 -0.129316,0.446842 -1.017136,0.23768 -1.368052,0.359589 -1.3455317,0.16642 -2.8214258,0.469267 -3.5048599,1.789832 -0.6113345,1.191557 -0.2333369,2.189439 0.5883334,2.78281 1.149175,0.906507 2.8631555,1.007876 4.2431065,0.802292 1.021206,-0.173317 2.080831,-0.718586 2.740289,-1.581096 0.508092,-0.531364 0.877455,-1.201031 0.907181,-1.940386 -0.08668,-0.7085 -0.501956,-1.42557 -1.03487,-1.897088 -0.514132,-0.583988 -1.257604,-1.009908 -1.756256,-1.604201 -0.362349,-0.566963 0.159086,-1.40016 0.61029,-1.7794239 0.593094,-0.580479 1.301592,-1.0985888 1.435464,-1.978652 C 14.591994,6.7649437 13.971144,5.6520623 13.239502,4.9339792 13.003323,4.7399796 13.233055,4.5803218 13.346625,4.4076915 13.518054,4.066106 14.18295,3.5284543 13.704627,3.3999988 z m -0.993008,3.0577285 c 0.313273,1.0074155 0.528511,2.421919 -0.251301,3.2727988 C 11.72808,10.491983 10.570934,10.387311 9.8455749,9.5922571 8.8337582,8.3094261 8.5142113,7.4037555 8.7370977,6.0836286 8.9265115,5.1818643 9.5986039,4.7629654 10.604059,4.6604443 c 0.872829,-0.068879 1.799562,0.9332895 2.107583,1.797283 z m -0.97093,6.8116467 c 0.280093,0.08813 0.341068,0.290673 0.594932,0.44085 0.55894,0.452356 1.307081,0.760309 1.589224,1.452654 0.233302,0.835746 0.09208,1.811435 -0.645855,2.323971 -0.815749,0.67685 -1.989946,0.589455 -2.975174,0.537706 -1.1277371,-0.05967 -2.3403363,-0.670203 -2.6354292,-1.853631 -0.287946,-0.960513 0.3972307,-1.795416 1.2552852,-2.235571 0.8879409,-0.497055 1.826096,-0.605772 2.817017,-0.665979 z"
     id="path3888" />
</svg>
