<?xml version="1.0" encoding="UTF-8" standalone="no"?>
<svg
   xmlns:dc="http://purl.org/dc/elements/1.1/"
   xmlns:cc="http://creativecommons.org/ns#"
   xmlns:rdf="http://www.w3.org/1999/02/22-rdf-syntax-ns#"
   xmlns:svg="http://www.w3.org/2000/svg"
   xmlns="http://www.w3.org/2000/svg"
   xmlns:xlink="http://www.w3.org/1999/xlink"
   id="svg11300"
   height="22"
   width="22"
   version="1.1">
  <metadata
     id="metadata151095">
    <rdf:RDF>
      <cc:Work
         rdf:about="">
        <dc:format>image/svg+xml</dc:format>
        <dc:type
           rdf:resource="http://purl.org/dc/dcmitype/StillImage" />
        <dc:title />
      </cc:Work>
    </rdf:RDF>
  </metadata>
  <defs
     id="defs3">
    <linearGradient
       id="linearGradient10591">
      <stop
         offset="0"
         style="stop-color:#dcdcdc;stop-opacity:1"
         id="stop10593" />
      <stop
         offset="0.5"
         style="stop-color:#fafafa;stop-opacity:1"
         id="stop10599" />
      <stop
         offset="1"
         style="stop-color:#c8c8c8;stop-opacity:1"
         id="stop10595" />
    </linearGradient>
    <linearGradient
       id="linearGradient7622-6">
      <stop
         offset="0"
         style="stop-color:white;stop-opacity:1"
         id="stop7624-1" />
      <stop
         offset="1"
         style="stop-color:white;stop-opacity:0"
         id="stop7626-5" />
    </linearGradient>
    <linearGradient
       id="linearGradient14861-7">
      <stop
         offset="0"
         style="stop-color:white;stop-opacity:1"
         id="stop14863-5" />
      <stop
         offset="1"
         style="stop-color:white;stop-opacity:0"
         id="stop14865-8" />
    </linearGradient>
    <linearGradient
       id="linearGradient14780-7-6">
      <stop
         offset="0"
         style="stop-color:#d3ba00;stop-opacity:1"
         id="stop14782-0-3" />
      <stop
         offset="1"
         style="stop-color:#d3ba00;stop-opacity:0"
         id="stop14784-4-7" />
    </linearGradient>
    <linearGradient
       id="linearGradient14981-4-9">
      <stop
         offset="0"
         style="stop-color:#6d9335;stop-opacity:1"
         id="stop14983-1-0" />
      <stop
         offset="1"
         style="stop-color:#364d17;stop-opacity:1"
         id="stop14985-7-7" />
    </linearGradient>
    <linearGradient
       gradientTransform="matrix(0.39731096,0,0,0.39082257,2.143028,-1.1067283)"
       gradientUnits="userSpaceOnUse"
       xlink:href="#linearGradient14861-7"
       id="linearGradient3222"
       y2="31.347067"
       x2="18.968426"
       y1="20.165941"
       x1="16.964844" />
    <radialGradient
       gradientTransform="matrix(1.4043815,0.04555468,-0.03427223,1.0005357,-11.151028,-11.219333)"
       gradientUnits="userSpaceOnUse"
       xlink:href="#linearGradient7622-6"
       id="radialGradient3226"
       fy="16.655396"
       fx="10"
       r="16.000418"
       cy="16.655396"
       cx="10" />
    <linearGradient
       gradientTransform="matrix(0.9999997,0,0,0.56326439,4.000001,-5.3017482)"
       gradientUnits="userSpaceOnUse"
       xlink:href="#linearGradient14780-7-6"
       id="linearGradient3240"
       y2="39.266895"
       x2="6.2376504"
       y1="42.890816"
       x1="6.2209711" />
    <linearGradient
       gradientTransform="matrix(0.99999854,0,0,0.56326439,2.00001,-5.3017482)"
       gradientUnits="userSpaceOnUse"
       xlink:href="#linearGradient14780-7-6"
       id="linearGradient3243"
       y2="39.266895"
       x2="6.2376504"
       y1="42.890816"
       x1="6.2209711" />
    <linearGradient
       gradientTransform="matrix(1.0000004,0,0,0.56326439,-2e-6,-5.3017489)"
       gradientUnits="userSpaceOnUse"
       xlink:href="#linearGradient14780-7-6"
       id="linearGradient3246"
       y2="39.266895"
       x2="6.2376504"
       y1="42.890816"
       x1="6.2209711" />
    <linearGradient
       gradientTransform="matrix(1,0,0,0.56326439,-2,-5.3017489)"
       gradientUnits="userSpaceOnUse"
       xlink:href="#linearGradient14780-7-6"
       id="linearGradient3249"
       y2="39.266895"
       x2="6.2376504"
       y1="42.890816"
       x1="6.2209711" />
    <radialGradient
       gradientTransform="matrix(2.2011105,0,0,0.9928155,-28.19895,-12.347918)"
       gradientUnits="userSpaceOnUse"
       xlink:href="#linearGradient14981-4-9"
       id="radialGradient3262"
       fy="19.770353"
       fx="15"
       r="17.001272"
       cy="19.770353"
       cx="15" />
    <linearGradient
       id="linearGradient12071">
      <stop
         offset="0"
         style="stop-color:white;stop-opacity:1"
         id="stop12073" />
      <stop
         offset="1"
         style="stop-color:white;stop-opacity:0"
         id="stop12075" />
    </linearGradient>
    <linearGradient
       id="linearGradient5881">
      <stop
         offset="0"
         style="stop-color:#d6c8a7;stop-opacity:1"
         id="stop5883" />
      <stop
         offset="1"
         style="stop-color:#d0bd99;stop-opacity:1"
         id="stop5885" />
    </linearGradient>
    <linearGradient
       id="linearGradient2411-1">
      <stop
         offset="0"
         style="stop-color:#fee7b1;stop-opacity:1"
         id="stop2413-5" />
      <stop
         offset="0.25796592"
         style="stop-color:#ebd4b4;stop-opacity:1"
         id="stop2419-3" />
      <stop
         offset="0.50796592"
         style="stop-color:#c8a775;stop-opacity:1"
         id="stop2421-5" />
      <stop
         offset="0.74009573"
         style="stop-color:#b0935b;stop-opacity:1"
         id="stop2423-1" />
      <stop
         offset="1"
         style="stop-color:#fcebbf;stop-opacity:1"
         id="stop2415-1" />
    </linearGradient>
    <linearGradient
       gradientTransform="matrix(0.25316645,0,0,0.30433767,8.4062562,8.604581)"
       gradientUnits="userSpaceOnUse"
       xlink:href="#linearGradient10591"
       id="linearGradient4275"
       y2="14.442574"
       x2="46.79763"
       y1="14.442574"
       x1="3.1504524" />
    <linearGradient
       gradientTransform="matrix(0.20588235,0,0,0.40374204,9.5588228,8.4056478)"
       gradientUnits="userSpaceOnUse"
       xlink:href="#linearGradient5881"
       id="linearGradient4281"
       y2="17"
       x2="24.75"
       y1="21"
       x1="24.875" />
    <linearGradient
       gradientTransform="matrix(0.22861209,0,0,0.26448676,9.0140208,9.2473104)"
       gradientUnits="userSpaceOnUse"
       xlink:href="#linearGradient2411-1"
       id="linearGradient4287"
       y2="32.161697"
       x2="40.938126"
       y1="32.161697"
       x1="6.72682" />
    <linearGradient
       gradientTransform="matrix(0.18181819,0,0,0.2515933,10.136364,11.097116)"
       gradientUnits="userSpaceOnUse"
       xlink:href="#linearGradient12071"
       id="linearGradient4297"
       y2="18.037588"
       x2="21.941509"
       y1="21.550869"
       x1="21.941509" />
    <linearGradient
       gradientTransform="matrix(0.73900817,0,0,0.62997639,-10.456032,-1.5460195)"
       gradientUnits="userSpaceOnUse"
       xlink:href="#linearGradient10591"
       id="linearGradient4304"
       y2="20.018223"
       x2="42.4007"
       y1="15.04982"
       x1="42.365673" />
    <linearGradient
       gradientTransform="matrix(0.73900817,0,0,0.62997639,-10.456032,2.4539806)"
       gradientUnits="userSpaceOnUse"
       xlink:href="#linearGradient10591"
       id="linearGradient4308"
       y2="20.018223"
       x2="42.4007"
       y1="15.04982"
       x1="42.365673" />
    <linearGradient
       gradientTransform="translate(-2,-0.9999996)"
       gradientUnits="userSpaceOnUse"
       xlink:href="#linearGradient10591"
       id="linearGradient4316"
       y2="11.25"
       x2="23"
       y1="11.25"
       x1="20" />
  </defs>
  <rect
     style="color:#000000;fill:url(#linearGradient4308);fill-opacity:1;fill-rule:nonzero;stroke:#787878;stroke-width:0.49999997;stroke-linecap:round;stroke-linejoin:round;stroke-miterlimit:4;stroke-opacity:1;stroke-dasharray:none;stroke-dashoffset:0;marker:none;visibility:visible;display:block;overflow:visible"
     id="rect4306"
     y="12.25"
     x="18.25"
     ry="1"
     rx="1"
     height="2.5"
     width="3.5" />
  <path
     style="color:#000000;fill:url(#radialGradient3262);fill-opacity:1;fill-rule:nonzero;stroke:#2d410f;stroke-width:1;stroke-linecap:butt;stroke-linejoin:round;stroke-miterlimit:4;stroke-opacity:1;stroke-dasharray:none;stroke-dashoffset:0;marker:none;visibility:visible;display:block;overflow:visible"
     id="rect14772-0"
     d="m 0.502669,17.5 1.997331,0 0,3 10,0 0,-3 6.999951,0 0,-15.0000559 L 0.5,2.4999424 0.50273,17.5 l -6.1e-5,0 z" />
  <path
     style="color:#000000;fill:none;stroke:#305526;stroke-width:0.5;stroke-linecap:butt;stroke-linejoin:miter;stroke-miterlimit:4;stroke-opacity:1;stroke-dasharray:none;stroke-dashoffset:0;marker:none;visibility:visible;display:block;overflow:visible"
     id="path14957-6"
     d="m 12.874,12.275 -7.632,0 0,2.020419" />
  <path
     style="color:#000000;fill:none;stroke:#305526;stroke-width:0.5;stroke-linecap:butt;stroke-linejoin:miter;stroke-miterlimit:4;stroke-opacity:1;stroke-dasharray:none;stroke-dashoffset:0;marker:none;visibility:visible;display:block;overflow:visible"
     id="path14826-5"
     d="m 4.25,18.95 0.03097,-3.24193 1.07338,-1.49541 11.93565,0 0,-4.8126596 -2.623305,-1.641 2.038425,0 0,-1.9664324 -4.10512,0" />
  <path
     style="color:#000000;fill:none;stroke:#305526;stroke-width:0.5;stroke-linecap:butt;stroke-linejoin:miter;stroke-miterlimit:4;stroke-opacity:1;stroke-dasharray:none;stroke-dashoffset:0;marker:none;visibility:visible;display:block;overflow:visible"
     id="path14830"
     d="m 8.25,19.078451 0.03097,-3.24193 1.073379,-1.49541" />
  <path
     style="color:#000000;fill:none;stroke:#305526;stroke-width:0.5;stroke-linecap:butt;stroke-linejoin:miter;stroke-miterlimit:4;stroke-opacity:1;stroke-dasharray:none;stroke-dashoffset:0;marker:none;visibility:visible;display:block;overflow:visible"
     id="path14838"
     d="m 6.25,19.078451 0.03097,-3.24193 1.07338,-1.49541" />
  <path
     style="color:#000000;fill:none;stroke:#305526;stroke-width:0.5;stroke-linecap:butt;stroke-linejoin:miter;stroke-miterlimit:4;stroke-opacity:1;stroke-dasharray:none;stroke-dashoffset:0;marker:none;visibility:visible;display:block;overflow:visible"
     id="path14840"
     d="m 10.25,19.078451 0.03096,-3.24193 1.073379,-1.49541" />
  <path
     style="color:#000000;fill:url(#linearGradient3249);fill-opacity:1;fill-rule:nonzero;stroke:none;stroke-width:1;marker:none;visibility:visible;display:block;overflow:visible"
     id="path14788"
     d="M 4.5,17 C 4.902984,17 5,17.354433 5,17.510457 L 5,20 c 0,0 -1,0 -1,0 L 4,17.510457 C 4,17.354433 4.10489,17 4.5,17 z" />
  <path
     style="color:#000000;fill:url(#linearGradient3246);fill-opacity:1;fill-rule:nonzero;stroke:none;stroke-width:1;marker:none;visibility:visible;display:block;overflow:visible"
     id="path14792"
     d="M 6.499999,17 C 6.902984,17 7,17.354433 7,17.510457 L 7,20 c 0,0 -1,0 -1,0 L 6,17.510457 C 6,17.354433 6.104889,17 6.499999,17 z" />
  <path
     style="color:#000000;fill:url(#linearGradient3243);fill-opacity:1;fill-rule:nonzero;stroke:none;stroke-width:1;marker:none;visibility:visible;display:block;overflow:visible"
     id="path14796-8"
     d="M 8.499999,17 C 8.902984,17 9,17.354434 9,17.510459 L 9,20 c 0,0 -1,0 -1,0 L 8,17.510459 C 8,17.354434 8.104893,17 8.499999,17 z" />
  <path
     style="color:#000000;fill:url(#linearGradient3240);fill-opacity:1;fill-rule:nonzero;stroke:none;stroke-width:1;marker:none;visibility:visible;display:block;overflow:visible"
     id="path14800"
     d="M 10.499999,17 C 10.902984,17 11,17.354434 11,17.510459 L 11,20 c 0,0 -1,0 -1,0 l 0,-2.489541 C 10,17.354434 10.104893,17 10.499999,17 z" />
  <path
     style="color:#000000;fill:none;stroke:#305526;stroke-width:0.5;stroke-linecap:butt;stroke-linejoin:miter;stroke-miterlimit:4;stroke-opacity:1;stroke-dasharray:none;stroke-dashoffset:0;marker:none;visibility:visible;display:block;overflow:visible"
     id="path15029-1"
     d="M 4.382777,6.0925386 2.8,6.6884107 2.8,13.201 l 2.5,0" />
  <path
     style="color:#000000;fill:none;stroke:#305526;stroke-width:0.5;stroke-linecap:butt;stroke-linejoin:miter;stroke-miterlimit:4;stroke-opacity:1;stroke-dasharray:none;stroke-dashoffset:0;marker:none;visibility:visible;display:block;overflow:visible"
     id="path14959-2"
     d="m 4.99307,9.7351104 0.598904,2.3544396 1.09799,0 -0.598903,-2.3544396" />
  <path
     style="color:#000000;fill:none;stroke:#305526;stroke-width:0.5;stroke-linecap:butt;stroke-linejoin:miter;stroke-miterlimit:4;stroke-opacity:1;stroke-dasharray:none;stroke-dashoffset:0;marker:none;visibility:visible;display:block;overflow:visible"
     id="path14961-2"
     d="m 7.251678,9.7916814 0.598903,2.2978686 1.097991,0 -0.598904,-2.2978686" />
  <path
     style="color:#000000;fill:none;stroke:#305526;stroke-width:0.5;stroke-linecap:butt;stroke-linejoin:miter;stroke-miterlimit:4;stroke-opacity:1;stroke-dasharray:none;stroke-dashoffset:0;marker:none;visibility:visible;display:block;overflow:visible"
     id="path14963-6"
     d="m 9.510285,9.7059674 0.598903,2.3835826 1.097992,0 -0.598905,-2.3835826" />
  <path
     style="color:#000000;fill:none;stroke:#305526;stroke-width:0.5;stroke-linecap:butt;stroke-linejoin:miter;stroke-miterlimit:4;stroke-opacity:1;stroke-dasharray:none;stroke-dashoffset:0;marker:none;visibility:visible;display:block;overflow:visible"
     id="path14965-9"
     d="M 11.768891,9.6819664 12.367795,12.08955" />
  <path
     style="opacity:0.23863633;color:#000000;fill:none;stroke:url(#radialGradient3226);stroke-width:1.0000006;stroke-linecap:butt;stroke-linejoin:miter;stroke-miterlimit:4;stroke-opacity:1;stroke-dasharray:none;stroke-dashoffset:0;marker:none;visibility:visible;display:block;overflow:visible"
     id="path14989-1"
     d="m 1.500089,16.5 1.999911,0 0,3 8,-0.0013 0,-2.9987 6.997903,0 c 0.0022,-2.19e-4 0.0021,-12.9988679 0.0021,-12.9988679 L 1.50192,3.500001 C 1.504109,7.9497662 1.5,16.5 1.5,16.5 l 8.9e-5,0 z" />
  <rect
     style="color:#000000;fill:#646662;fill-opacity:1;fill-rule:nonzero;stroke:#2e3436;stroke-width:0.9999994;stroke-linecap:butt;stroke-linejoin:miter;stroke-miterlimit:4;stroke-opacity:1;stroke-dasharray:none;stroke-dashoffset:0;marker:none;visibility:visible;display:block;overflow:visible"
     id="rect14857-2"
     y="5.5000005"
     x="4.5"
     ry="0.5"
     rx="0.5"
     height="4.0000005"
     width="8.000001" />
  <rect
     style="opacity:0.25;color:#000000;fill:none;stroke:url(#linearGradient3222);stroke-width:0.99999982;stroke-linecap:butt;stroke-linejoin:miter;stroke-miterlimit:4;stroke-opacity:1;stroke-dasharray:none;stroke-dashoffset:0;marker:none;visibility:visible;display:block;overflow:visible"
     id="rect14859-2"
     y="6.5000005"
     x="5.5"
     ry="0"
     rx="0"
     height="2.0000002"
     width="6" />
  <rect
     style="color:#000000;fill:url(#linearGradient4304);fill-opacity:1;fill-rule:nonzero;stroke:#787878;stroke-width:0.49999997;stroke-linecap:round;stroke-linejoin:round;stroke-miterlimit:4;stroke-opacity:1;stroke-dasharray:none;stroke-dashoffset:0;marker:none;visibility:visible;display:block;overflow:visible"
     id="rect15011"
     y="8.25"
     x="18.25"
     ry="1"
     rx="1"
     height="2.5"
     width="3.5" />
  <path
     style="color:#000000;fill:none;stroke:#787878;stroke-width:3;stroke-linecap:round;stroke-linejoin:round;stroke-miterlimit:4;stroke-opacity:1;stroke-dasharray:none;stroke-dashoffset:0;marker:none;visibility:visible;display:block;overflow:visible"
     id="path15001"
     d="m 18.5,19.5 0,-17.9499996 2,0" />
  <path
     style="color:#000000;fill:none;stroke:url(#linearGradient4316);stroke-width:2;stroke-linecap:round;stroke-linejoin:round;stroke-miterlimit:4;stroke-opacity:1;stroke-dasharray:none;stroke-dashoffset:0;marker:none;visibility:visible;display:block;overflow:visible"
     id="path15003"
     d="m 18.5,19.4 0,-17.8999997 2,0" />
  <path
     style="fill:url(#linearGradient4287);fill-opacity:1;fill-rule:evenodd;stroke:#876c41;stroke-width:0.99999964;stroke-linecap:round;stroke-linejoin:round;stroke-miterlimit:4;stroke-opacity:1;stroke-dashoffset:0"
     id="rect1314"
     d="m 11.010942,14.734154 c 2.304811,-0.337884 4.634144,-0.285428 6.978115,0 0.283064,0 0.510944,0.244288 0.510944,0.547734 l 0,5.459026 c 0,0.303444 -0.242588,0.503841 -0.510944,0.547732 -2.430148,0.28292 -4.513836,0.280688 -6.978115,0 C 10.683759,21.186233 10.5,21.044358 10.5,20.740914 l 0,-5.459026 c 0,-0.303446 0.227881,-0.547734 0.510942,-0.547734 z" />
  <path
     style="fill:url(#linearGradient4281);fill-opacity:1;fill-rule:evenodd;stroke:none;stroke-width:2;marker:none;visibility:visible;display:inline;overflow:visible"
     id="rect1460"
     d="m 11.341,15.269261 c 2.105998,-0.393178 4.211999,-0.323147 6.317998,0 0.188914,0 0.341002,0.193001 0.341002,0.432737 l 0,0.749493 c 0,0.239737 -0.152088,0.432738 -0.341002,0.432738 -2.197734,0.185748 -4.219844,0.119457 -6.317998,0 -0.188914,0 -0.341,-0.193001 -0.341,-0.432738 l 0,-0.749493 c 0,-0.239736 0.152086,-0.432737 0.341,-0.432737 z" />
  <path
     style="opacity:0.6;fill:none;stroke:url(#linearGradient4297);stroke-width:1.00000012;stroke-linecap:round;stroke-linejoin:round;stroke-miterlimit:4;stroke-opacity:1;stroke-dashoffset:0;marker:none;visibility:visible;display:inline;overflow:visible"
     id="rect1593"
     d="m 11.718218,15.499999 5.563564,0 c 0.120893,0 0.218218,0.1293 0.218218,0.2899 l 0,0.174986 c 0,0.160601 -0.09733,0.289897 -0.218218,0.289897 -1.837215,0.317179 -3.695183,0.336589 -5.563564,0 -0.120894,0 -0.218218,-0.1293 -0.218218,-0.289897 l 0,-0.174986 c 0,-0.160603 0.09732,-0.2899 0.218218,-0.2899 z" />
  <path
     style="fill:url(#linearGradient4275);fill-opacity:1;fill-rule:evenodd;stroke:#969696;stroke-width:0.2;stroke-linecap:butt;stroke-linejoin:miter;stroke-miterlimit:4;stroke-opacity:1;stroke-dasharray:none"
     id="path2086"
     d="m 11.1,15.349044 0,-1.745328 c 0,-2.145179 1.330999,-3.470555 3.387324,-3.503142 C 16.554793,10.06781 17.9,11.39911 17.9,13.603716 l 0,1.821416 c 0,0.594744 -1.8,0.67044 -1.8,0 l 0,-1.212741 C 16.15008,12.999997 16.003322,11.893882 14.502266,11.9 12.96875,11.90625 12.891725,12.999997 12.9,14.209967 l 0,1.149328 c 0,0.7166 -1.8,0.713554 -1.8,-0.01023 l 0,-4.2e-5 0,2.1e-5 z" />
</svg>
