<?xml version="1.0" encoding="UTF-8" standalone="no"?>
<svg
   xmlns:dc="http://purl.org/dc/elements/1.1/"
   xmlns:cc="http://creativecommons.org/ns#"
   xmlns:rdf="http://www.w3.org/1999/02/22-rdf-syntax-ns#"
   xmlns:svg="http://www.w3.org/2000/svg"
   xmlns="http://www.w3.org/2000/svg"
   xmlns:xlink="http://www.w3.org/1999/xlink"
   id="svg3067"
   height="22"
   width="22"
   version="1.1">
  <metadata
     id="metadata122210">
    <rdf:RDF>
      <cc:Work
         rdf:about="">
        <dc:format>image/svg+xml</dc:format>
        <dc:type
           rdf:resource="http://purl.org/dc/dcmitype/StillImage" />
      </cc:Work>
    </rdf:RDF>
  </metadata>
  <defs
     id="defs3069">
    <linearGradient
       gradientTransform="matrix(0.4970956,0,0,0.4073268,-28.391469,1.8045218)"
       gradientUnits="userSpaceOnUse"
       xlink:href="#linearGradient3202"
       id="linearGradient2930"
       y2="30.889549"
       x2="22.885227"
       y1="17.628952"
       x1="22.885227" />
    <linearGradient
       id="linearGradient3202">
      <stop
         offset="0"
         style="stop-color:#ffffff;stop-opacity:1"
         id="stop3204" />
      <stop
         offset="1"
         style="stop-color:#d3eefc;stop-opacity:1"
         id="stop3206" />
    </linearGradient>
    <linearGradient
       gradientTransform="matrix(0.9161265,0,0,0.88440172,-1.0216096,11.057498)"
       gradientUnits="userSpaceOnUse"
       xlink:href="#linearGradient8997"
       id="linearGradient2980"
       y2="16.876755"
       x2="22.946913"
       y1="-0.046165399"
       x1="4.5829558" />
    <linearGradient
       id="linearGradient8997">
      <stop
         offset="0"
         style="stop-color:#cdcdcd;stop-opacity:1"
         id="stop8999" />
      <stop
         offset="1"
         style="stop-color:#cdcdcd;stop-opacity:0"
         id="stop9001" />
    </linearGradient>
    <radialGradient
       gradientTransform="matrix(0.03492848,1.5714813,-2.0961319,0.0020734,35.687941,-54.333341)"
       gradientUnits="userSpaceOnUse"
       xlink:href="#linearGradient3242-2-7-9"
       id="radialGradient2942-2"
       fy="18.618757"
       fx="39.651478"
       r="20.714195"
       cy="18.618757"
       cx="39.651478" />
    <linearGradient
       id="linearGradient3242-2-7-9">
      <stop
         offset="0"
         style="stop-color:#f8b17e;stop-opacity:1"
         id="stop3244-0-6" />
      <stop
         offset="0.31209752"
         style="stop-color:#e35d4f;stop-opacity:1"
         id="stop3246-9-4-1" />
      <stop
         offset="0.57054454"
         style="stop-color:#c6262e;stop-opacity:1"
         id="stop3248-3-8-0" />
      <stop
         offset="1"
         style="stop-color:#690b54;stop-opacity:1"
         id="stop3250-9-0-4" />
    </linearGradient>
    <linearGradient
       gradientTransform="matrix(0.48741,0,0,0.44143469,-0.53057824,9.550607)"
       gradientUnits="userSpaceOnUse"
       xlink:href="#linearGradient2490-2-2"
       id="linearGradient2944-2"
       y2="0.99999988"
       x2="24.008854"
       y1="38.246284"
       x1="24.008854" />
    <linearGradient
       id="linearGradient2490-2-2">
      <stop
         offset="0"
         style="stop-color:#791235;stop-opacity:1"
         id="stop2492-9-2" />
      <stop
         offset="1"
         style="stop-color:#dd3b27;stop-opacity:1"
         id="stop2494-6-0" />
    </linearGradient>
    <linearGradient
       gradientTransform="matrix(0.41830254,0,0,0.32361333,1.3409184,15.691445)"
       gradientUnits="userSpaceOnUse"
       xlink:href="#linearGradient6468"
       id="linearGradient2996"
       y2="36.402096"
       x2="23.637569"
       y1="38.423183"
       x1="23.637569" />
    <linearGradient
       id="linearGradient6468">
      <stop
         offset="0"
         style="stop-color:#eeeeee;stop-opacity:1"
         id="stop6470" />
      <stop
         offset="1"
         style="stop-color:#d9d9da;stop-opacity:1"
         id="stop6472" />
    </linearGradient>
    <linearGradient
       gradientTransform="matrix(0.91378695,0,0,0.89809436,0.01044605,10.196662)"
       gradientUnits="userSpaceOnUse"
       xlink:href="#linearGradient3628"
       id="linearGradient2998"
       y2="-0.19451723"
       x2="12.026385"
       y1="19.963423"
       x1="12.276525" />
    <linearGradient
       id="linearGradient3628">
      <stop
         offset="0"
         style="stop-color:#791235;stop-opacity:1"
         id="stop3630" />
      <stop
         offset="1"
         style="stop-color:#dd3b27;stop-opacity:1"
         id="stop3632" />
    </linearGradient>
    <linearGradient
       gradientTransform="matrix(2.774389,0,0,1.969706,-1892.179,-872.8854)"
       gradientUnits="userSpaceOnUse"
       xlink:href="#linearGradient5048"
       id="linearGradient3840"
       y2="609.50507"
       x2="302.85715"
       y1="366.64789"
       x1="302.85715" />
    <linearGradient
       id="linearGradient5048">
      <stop
         offset="0"
         style="stop-color:#000000;stop-opacity:0"
         id="stop5050" />
      <stop
         offset="0.5"
         style="stop-color:#000000;stop-opacity:1"
         id="stop5056" />
      <stop
         offset="1"
         style="stop-color:#000000;stop-opacity:0"
         id="stop5052" />
    </linearGradient>
    <radialGradient
       gradientTransform="matrix(2.774389,0,0,1.969706,-1891.633,-872.8854)"
       gradientUnits="userSpaceOnUse"
       xlink:href="#linearGradient5060"
       id="radialGradient3842"
       fy="486.64789"
       fx="605.71429"
       r="117.14286"
       cy="486.64789"
       cx="605.71429" />
    <linearGradient
       id="linearGradient5060">
      <stop
         offset="0"
         style="stop-color:#000000;stop-opacity:1"
         id="stop5062" />
      <stop
         offset="1"
         style="stop-color:#000000;stop-opacity:0"
         id="stop5064" />
    </linearGradient>
    <radialGradient
       gradientTransform="matrix(-2.774389,0,0,1.969706,112.7623,-872.8854)"
       gradientUnits="userSpaceOnUse"
       xlink:href="#linearGradient5060"
       id="radialGradient3065"
       fy="486.64789"
       fx="605.71429"
       r="117.14286"
       cy="486.64789"
       cx="605.71429" />
  </defs>
  <g
     id="layer1"
     transform="translate(0,-10)">
    <g
       id="g8875"
       transform="matrix(0.00982389,0,0,0.00670087,19.713576,29.804391)">
      <rect
         style="opacity:0.40206185;fill:url(#linearGradient3840);fill-opacity:1;fill-rule:nonzero;stroke:none;stroke-width:1;marker:none;visibility:visible;display:inline;overflow:visible"
         id="rect8877"
         y="-150.69685"
         x="-1559.2523"
         height="478.35718"
         width="1339.6335" />
      <path
         style="opacity:0.40206185;fill:url(#radialGradient3842);fill-opacity:1;fill-rule:nonzero;stroke:none;stroke-width:1;marker:none;visibility:visible;display:inline;overflow:visible"
         id="path8879"
         d="m -219.61876,-150.68038 c 0,0 0,478.33079 0,478.33079 142.874166,0.90045 345.40022,-107.16966 345.40014,-239.196175 0,-132.026537 -159.436816,-239.134595 -345.40014,-239.134615 z" />
      <path
         style="opacity:0.40206185;fill:url(#radialGradient3065);fill-opacity:1;fill-rule:nonzero;stroke:none;stroke-width:1;marker:none;visibility:visible;display:inline;overflow:visible"
         id="path8881"
         d="m -1559.2523,-150.68038 c 0,0 0,478.33079 0,478.33079 -142.8742,0.90045 -345.4002,-107.16966 -345.4002,-239.196175 0,-132.026537 159.4368,-239.134595 345.4002,-239.134615 z" />
    </g>
    <path
       style="fill:url(#linearGradient2996);fill-opacity:1;fill-rule:nonzero;stroke:url(#linearGradient2998);stroke-width:0.99995708;stroke-linecap:round;stroke-linejoin:round;stroke-miterlimit:4;stroke-opacity:1;stroke-dasharray:none;stroke-dashoffset:0.06;marker:none;visibility:visible;display:inline;overflow:visible;enable-background:accumulate"
       id="rect8840"
       d="m 1.793067,26.499978 18.706954,0.161782 c -0.195361,1.258623 -0.419502,2.78705 -0.590907,3.838261 -6.045381,0 -17.7780057,0 -17.7780057,0 -0.1623709,0 -0.2930884,-0.143457 -0.2930884,-0.321652 L 1.4999785,26.82163 c 0,-0.178194 0.1307174,-0.321652 0.2930885,-0.321652 z" />
    <path
       style="fill:none;stroke:#666666;stroke-width:0.99995703;stroke-linecap:round;stroke-linejoin:miter;stroke-miterlimit:4;stroke-opacity:1;stroke-dasharray:none"
       id="path9017"
       d="m 20.056,30.131 c 0.07887,-0.830579 0.390936,-2.636869 0.430322,-3.382619" />
    <path
       style="color:#000000;fill:url(#radialGradient2942-2);fill-opacity:1;fill-rule:nonzero;stroke:url(#linearGradient2944-2);stroke-width:0.99974573;stroke-linecap:round;stroke-linejoin:round;stroke-miterlimit:4;stroke-opacity:1;stroke-dasharray:none;stroke-dashoffset:0.06;marker:none;visibility:visible;display:inline;overflow:visible;enable-background:accumulate"
       id="rect8064"
       d="m 2.7223045,10.499978 c -0.1688213,0 -0.300234,0.185391 -0.3002338,0.420259 L 1.4999786,26.079762 c 0,0.234867 0.1444663,0.42026 0.3132873,0.420259 l 18.3734701,0 c 0.16882,1e-6 0.313286,-0.185392 0.313286,-0.420259 l -1.0312,-15.159525 c 0,-0.234868 -0.131414,-0.420259 -0.300236,-0.420259 l -16.4462815,0 z" />
    <path
       style="opacity:0.2;fill:none;stroke:#000000;stroke-width:0.99995703;stroke-linecap:square;stroke-linejoin:miter;stroke-miterlimit:4;stroke-opacity:1;stroke-dasharray:none"
       id="path3267"
       d="M 2.65926,29.826801 2.4818084,27.873159" />
    <path
       style="opacity:0.3;fill:none;stroke:url(#linearGradient2980);stroke-width:0.99995703;stroke-linecap:round;stroke-linejoin:round;stroke-miterlimit:4;stroke-opacity:1;stroke-dasharray:none;stroke-dashoffset:0.06;marker:none;visibility:visible;display:inline;overflow:visible;enable-background:accumulate"
       id="path2858"
       d="m 3.7224758,11.499978 c -0.168845,0 -0.3002761,0.184619 -0.3002759,0.418508 L 2.4999785,25.081512 c 0,0.23389 0.1444865,0.418509 0.3133312,0.418509 l 16.3733803,0 c 0.168844,0 0.313331,-0.184619 0.313331,-0.418509 L 18.468675,11.918486 c 0,-0.233889 -0.131431,-0.418508 -0.300277,-0.418508 l -14.4459222,0 z" />
    <g
       id="g2926"
       transform="translate(27.398306,7.1610168)">
      <path
         style="font-size:26.70637703px;font-style:normal;font-variant:normal;font-weight:bold;font-stretch:normal;text-align:start;line-height:125%;writing-mode:lr-tb;text-anchor:start;fill:#a1ceef;fill-opacity:1;stroke:none;font-family:URW Gothic L;-inkscape-font-specification:URW Gothic L Book"
         id="path2438"
         d="m -21.898305,9.8290853 c 9.487896,0 9.078701,-0.1096312 10.998332,2.0098977 -0.0068,-1.305701 0.01419,-0.419246 -0.01162,-1.724636 -0.03675,-0.7892641 -0.364802,-1.6613128 -1.237538,-2.0610903 -0.499287,-0.1516355 -0.642047,-0.2090546 -1.264801,-0.2090546 -1.282505,0 -6.259533,-0.00522 -8.484373,-0.00522 0,2.0642048 0,-0.074102 0,1.9901023 z" />
      <path
         style="font-size:26.70637703px;font-style:normal;font-variant:normal;font-weight:bold;font-stretch:normal;text-align:start;line-height:125%;writing-mode:lr-tb;text-anchor:start;fill:url(#linearGradient2930);fill-opacity:1;stroke:none;font-family:URW Gothic L;-inkscape-font-specification:URW Gothic L Book"
         id="text3190"
         d="m -21.898305,14.838983 c 0.585962,0 1.80498,0 2.390942,0 0.0096,-1.153046 -0.03992,-2.306821 0,-3.459326 0,-0.614762 0.100156,-1.164445 0.907026,-1.164445 0.9257,0 0.999262,0.415636 0.999262,1.207315 0,0.72353 0,2.692925 0,3.416456 0.585962,0 1.811447,0 2.397407,0 0.0069,-1.133875 -0.02812,-2.26817 0,-3.401737 0.0043,-0.545219 -0.05419,-1.222034 0.952753,-1.222034 0.905899,0 0.959552,0.534221 0.959552,1.231184 0,0.715573 0,2.677013 0,3.392587 0.585962,0 1.805429,0 2.39139,0 -0.0068,-1.265089 0.01419,-2.530621 -0.01162,-3.795408 -0.03675,-0.764714 -0.364802,-1.6096399 -1.237538,-1.9969826 -0.499287,-0.1469194 -0.642047,-0.2025526 -1.264801,-0.2025526 -1.282505,0 -6.259533,-0.00506 -8.484373,-0.00506 0,2.0000002 0,4.0000002 0,6.0000002 z" />
    </g>
  </g>
</svg>
