<?xml version="1.0" encoding="UTF-8" standalone="no"?>
<svg
   xmlns:dc="http://purl.org/dc/elements/1.1/"
   xmlns:cc="http://creativecommons.org/ns#"
   xmlns:rdf="http://www.w3.org/1999/02/22-rdf-syntax-ns#"
   xmlns:svg="http://www.w3.org/2000/svg"
   xmlns="http://www.w3.org/2000/svg"
   xmlns:xlink="http://www.w3.org/1999/xlink"
   version="1.0"
   id="svg2"
   height="22"
   width="22">
  <defs
     id="defs4">
    <radialGradient
       xlink:href="#linearGradient5060"
       id="radialGradient3681"
       gradientUnits="userSpaceOnUse"
       gradientTransform="matrix(0.02409717,0,0,0.01537476,26.477584,38.629039)"
       cx="605.71429"
       cy="486.64789"
       fx="605.71429"
       fy="486.64789"
       r="117.14286" />
    <linearGradient
       id="linearGradient5060">
      <stop
         id="stop5062"
         offset="0"
         style="stop-color:black;stop-opacity:1;" />
      <stop
         id="stop5064"
         offset="1"
         style="stop-color:black;stop-opacity:0;" />
    </linearGradient>
    <radialGradient
       xlink:href="#linearGradient5060"
       id="radialGradient3679"
       gradientUnits="userSpaceOnUse"
       gradientTransform="matrix(-0.02409717,0,0,0.01537476,21.522412,38.629039)"
       cx="605.71429"
       cy="486.64789"
       fx="605.71429"
       fy="486.64789"
       r="117.14286" />
    <linearGradient
       id="linearGradient5048">
      <stop
         id="stop5050"
         offset="0"
         style="stop-color:black;stop-opacity:0;" />
      <stop
         style="stop-color:black;stop-opacity:1;"
         offset="0.5"
         id="stop5056" />
      <stop
         id="stop5052"
         offset="1"
         style="stop-color:black;stop-opacity:0;" />
    </linearGradient>
    <linearGradient
       xlink:href="#linearGradient5048"
       id="linearGradient3677"
       gradientUnits="userSpaceOnUse"
       gradientTransform="matrix(0.0704142,0,0,0.01537476,-1.4497047,38.629007)"
       x1="302.85715"
       y1="366.64789"
       x2="302.85715"
       y2="609.50507" />
    <linearGradient
       id="linearGradient3104">
      <stop
         id="stop3106"
         offset="0"
         style="stop-color:#a0a0a0;stop-opacity:1;" />
      <stop
         id="stop3108"
         offset="1"
         style="stop-color:#c8c8c8;stop-opacity:1;" />
    </linearGradient>
    <linearGradient
       y2="-1.0040783"
       x2="11.536495"
       y1="44.952385"
       x1="11.536495"
       gradientTransform="matrix(0.4858696,0,0,0.487784,-1.6585605,0.8158734)"
       gradientUnits="userSpaceOnUse"
       id="linearGradient5700"
       xlink:href="#linearGradient3104" />
    <linearGradient
       id="linearGradient3600">
      <stop
         style="stop-color:#f4f4f4;stop-opacity:1"
         offset="0"
         id="stop3602" />
      <stop
         style="stop-color:#dbdbdb;stop-opacity:1"
         offset="1"
         id="stop3604" />
    </linearGradient>
    <linearGradient
       y2="114.5354"
       x2="-60.908253"
       y1="13.668072"
       x1="-60.969666"
       gradientTransform="matrix(0.2188204,1.3254363e-4,-1.3322792e-4,0.2176966,21.083916,-2.6174038)"
       gradientUnits="userSpaceOnUse"
       id="linearGradient5698"
       xlink:href="#linearGradient3600" />
    <linearGradient
       id="linearGradient3269">
      <stop
         style="stop-color:#ffffff;stop-opacity:1;"
         offset="0"
         id="stop3271" />
      <stop
         style="stop-color:#ffffff;stop-opacity:0;"
         offset="1"
         id="stop3273" />
    </linearGradient>
    <linearGradient
       y2="22.686895"
       x2="13.392033"
       y1="26.59115"
       x1="13.392033"
       gradientTransform="matrix(-0.5285575,0,0,-0.527797,18.56564,3.898679)"
       gradientUnits="userSpaceOnUse"
       id="linearGradient5734"
       xlink:href="#linearGradient3269" />
    <linearGradient
       id="linearGradient3780">
      <stop
         style="stop-color:#ffffff;stop-opacity:1;"
         offset="0"
         id="stop3782" />
      <stop
         style="stop-color:#ffffff;stop-opacity:0;"
         offset="1"
         id="stop3784" />
    </linearGradient>
    <linearGradient
       y2="26.641962"
       x2="16.550491"
       y1="17.803926"
       x1="16.550491"
       gradientUnits="userSpaceOnUse"
       id="linearGradient5732"
       xlink:href="#linearGradient3780" />
    <linearGradient
       id="linearGradient3448-138-327-514">
      <stop
         style="stop-color:#59bc52;stop-opacity:1;"
         offset="0"
         id="stop4005" />
      <stop
         style="stop-color:#8cd982;stop-opacity:1;"
         offset="1"
         id="stop4007" />
    </linearGradient>
    <linearGradient
       y2="20.717426"
       x2="14.499061"
       y1="29.965809"
       x1="17.696638"
       gradientUnits="userSpaceOnUse"
       id="linearGradient5730"
       xlink:href="#linearGradient3448-138-327-514" />
    <linearGradient
       id="linearGradient3191-577-747-672">
      <stop
         id="stop2865"
         offset="0"
         style="stop-color:#a1a1a1;stop-opacity:1;" />
      <stop
         id="stop2867"
         offset="1"
         style="stop-color:#828282;stop-opacity:1;" />
    </linearGradient>
    <linearGradient
       y2="41.391716"
       x2="9.5220556"
       y1="37.817223"
       x1="5.7117834"
       gradientTransform="matrix(0.6334257,-0.05500901,-0.03910351,0.6392777,-44.564069,0.713749)"
       gradientUnits="userSpaceOnUse"
       id="linearGradient5676"
       xlink:href="#linearGradient3191-577-747-672" />
    <linearGradient
       id="linearGradient3155-40-33">
      <stop
         id="stop2847"
         offset="0"
         style="stop-color:#1b1b1b;stop-opacity:1;" />
      <stop
         style="stop-color:#f3f3f3;stop-opacity:1;"
         offset="0.13482948"
         id="stop2849" />
      <stop
         id="stop2851"
         offset="0.20224422"
         style="stop-color:#b6b6b6;stop-opacity:1;" />
      <stop
         style="stop-color:#ffffff;stop-opacity:1;"
         offset="0.26965895"
         id="stop2853" />
      <stop
         id="stop2855"
         offset="0.44650277"
         style="stop-color:#9d9d9d;stop-opacity:1;" />
      <stop
         style="stop-color:#a6a6a6;stop-opacity:1;"
         offset="0.57114136"
         id="stop2857" />
      <stop
         id="stop2859"
         offset="0.72038066"
         style="stop-color:#e5e5e5;stop-opacity:1;" />
      <stop
         id="stop2861"
         offset="1"
         style="stop-color:#1b1b1b;stop-opacity:1;" />
    </linearGradient>
    <linearGradient
       y2="30.467169"
       x2="11.083416"
       y1="25.077497"
       x1="10.86941"
       gradientTransform="matrix(0.8006848,-0.8306768,0.8744329,0.8554595,-71.348022,8.307975)"
       gradientUnits="userSpaceOnUse"
       id="linearGradient5674"
       xlink:href="#linearGradient3155-40-33" />
    <linearGradient
       id="linearGradient3155-40">
      <stop
         id="stop2541"
         offset="0"
         style="stop-color:#181818;stop-opacity:1;" />
      <stop
         style="stop-color:#dbdbdb;stop-opacity:1;"
         offset="0.13482948"
         id="stop2543" />
      <stop
         id="stop2545"
         offset="0.20224422"
         style="stop-color:#a4a4a4;stop-opacity:1;" />
      <stop
         style="stop-color:#ffffff;stop-opacity:1;"
         offset="0.26965895"
         id="stop2547" />
      <stop
         id="stop2549"
         offset="0.44650277"
         style="stop-color:#8d8d8d;stop-opacity:1;" />
      <stop
         style="stop-color:#959595;stop-opacity:1;"
         offset="0.57114136"
         id="stop2551" />
      <stop
         id="stop2553"
         offset="0.72038066"
         style="stop-color:#cecece;stop-opacity:1;" />
      <stop
         id="stop2555"
         offset="1"
         style="stop-color:#181818;stop-opacity:1;" />
    </linearGradient>
    <linearGradient
       y2="31.210939"
       x2="23.575972"
       y1="25.356892"
       x1="23.575972"
       spreadMethod="pad"
       gradientTransform="matrix(0.8239774,-0.8548421,0.7471754,0.7309632,-68.713149,11.514804)"
       gradientUnits="userSpaceOnUse"
       id="linearGradient5672"
       xlink:href="#linearGradient3155-40" />
  </defs>
  <metadata
     id="metadata7">
    <rdf:RDF>
      <cc:Work
         rdf:about="">
        <dc:format>image/svg+xml</dc:format>
        <dc:type
           rdf:resource="http://purl.org/dc/dcmitype/StillImage" />
        <dc:title />
      </cc:Work>
    </rdf:RDF>
  </metadata>
  <g
     transform="translate(0,-2)"
     id="layer1">
    <g
       style="opacity:0.6;stroke-width:1.04588675;stroke-miterlimit:4;stroke-dasharray:none;display:inline"
       id="g2766"
       transform="matrix(0.4999796,0,0,0.5803644,-1.9999184,-3.857491)">
      <rect
         style="opacity:0.40206185;fill:url(#linearGradient3677);fill-opacity:1;fill-rule:nonzero;stroke:none;stroke-width:1.04588675;marker:none;visibility:visible;display:inline;overflow:visible"
         id="rect2768"
         width="34"
         height="3.7338707"
         x="7"
         y="44.266129" />
      <path
         id="path2770"
         d="m 7,44.266291 c 0,0 0,3.733665 0,3.733665 -1.2409448,0.007 -3,-0.836525 -3,-1.867073 0,-1.030547 1.3848007,-1.866591 3,-1.866592 z"
         style="opacity:0.40206185;fill:url(#radialGradient3679);fill-opacity:1;fill-rule:nonzero;stroke:none;stroke-width:1.04588675;marker:none;visibility:visible;display:inline;overflow:visible" />
      <path
         id="path2772"
         d="m 41,44.266291 c 0,0 0,3.733665 0,3.733665 1.240944,0.007 3,-0.836525 3,-1.867073 0,-1.030547 -1.384801,-1.866591 -3,-1.866592 z"
         style="opacity:0.40206185;fill:url(#radialGradient3681);fill-opacity:1;fill-rule:nonzero;stroke:none;stroke-width:1.04588675;marker:none;visibility:visible;display:inline;overflow:visible" />
    </g>
    <path
       id="path2855"
       d="m 1.9854615,2.4998911 c 4.140653,0.00251 11.8930425,-0.00251 16.0336965,0 0.03645,0.783279 0.449031,18.6325589 0.485497,19.9991449 -5.668353,-0.0034 -11.3367085,-0.0069 -17.0050635,-0.0103 0.044608,-1.535104 0.441262,-19.3000126 0.48587,-19.9888419 z"
       style="fill:url(#linearGradient5698);fill-opacity:1;stroke:url(#linearGradient5700);stroke-width:0.99999982;stroke-linecap:round;stroke-linejoin:round;stroke-miterlimit:4;stroke-opacity:1;stroke-dasharray:none;display:inline" />
    <g
       transform="translate(0.9169753,16.10155)"
       id="g5724">
      <path
         transform="matrix(0.6453412,0,0,0.6460712,-3.075784,-20.007003)"
         d="m 21.213204,22.291618 c 0,2.594197 -2.103012,4.69721 -4.697209,4.69721 -2.594197,0 -4.697209,-2.103013 -4.697209,-4.69721 0,-2.594197 2.103012,-4.697209 4.697209,-4.697209 0.0129,0 0.02579,5.3e-5 0.03869,1.59e-4 l -0.03869,4.69705 z"
         id="path2508"
         style="fill:url(#linearGradient5730);fill-opacity:1;stroke:#3c853a;stroke-width:1.45189595;stroke-linejoin:round;stroke-miterlimit:4;stroke-opacity:1;stroke-dasharray:none" />
      <path
         id="path2510"
         d="m 9.567164,-10.629013 c 1.809703,-0.151714 3.184603,1.1937484 3.033358,3.056615 l -3.047188,-0.01381 0.01383,-3.042805 z"
         style="fill:#729fcf;fill-opacity:1;stroke:#3465a4;stroke-width:0.94121051;stroke-linejoin:round;stroke-miterlimit:4;stroke-opacity:1;stroke-dasharray:none" />
      <path
         style="opacity:0.4;fill:none;stroke:url(#linearGradient5732);stroke-width:0.83783406;stroke-miterlimit:4;stroke-opacity:1;stroke-dasharray:none"
         id="path5344"
         d="m 15.40625,19.0625 c -1.406479,0.464313 -2.4375,1.66425 -2.4375,3.21875 0,1.96024 1.60226,3.562501 3.5625,3.5625 1.545913,0 2.746918,-1.012733 3.21875,-2.40625 l -3.21875,0 c -0.321336,6.29e-4 -0.608185,-0.139435 -0.8125,-0.34375 -0.204314,-0.204315 -0.344379,-0.491164 -0.34375,-0.8125 l 0.03125,-3.21875 z"
         transform="matrix(0.6453412,0,0,0.6460712,-3.075784,-20.007003)" />
      <path
         id="path2514"
         d="m 11.901023,-8.2831095 c -0.06493,-0.8013716 -0.714405,-1.5452301 -1.627126,-1.6353197 l -0.01652,1.6282955 1.643643,0.00702 z"
         style="opacity:0.4;fill:none;stroke:url(#linearGradient5734);stroke-width:0.41572616;stroke-miterlimit:4;stroke-opacity:1;stroke-dasharray:none" />
    </g>
    <path
       id="path5359"
       d="m 5.4995916,19.5 9.0141244,0"
       style="fill:none;stroke:#b3b3b3;stroke-width:1px;stroke-linecap:square;stroke-linejoin:miter;stroke-opacity:1" />
    <path
       id="path5361"
       d="m 5.4995916,15.5 8.9936834,0"
       style="fill:none;stroke:#888a85;stroke-width:1px;stroke-linecap:square;stroke-linejoin:miter;stroke-opacity:1" />
    <path
       id="path5363"
       d="m 5.4995917,17.5 10.0022173,0"
       style="fill:none;stroke:#b3b3b3;stroke-width:1.00000012px;stroke-linecap:square;stroke-linejoin:miter;stroke-opacity:1" />
    <g
       transform="matrix(0.5145355,0,0,0.5145355,27.975161,8.9677954)"
       id="g2706">
      <path
         style="opacity:0.15;fill:#0c0c0c;fill-opacity:1;fill-rule:evenodd;stroke:none"
         d="m -20.006264,14.650792 c -0.16099,-0.07329 -0.324292,-0.04023 -0.446586,0.01499 l -16.271002,7.315568 -2.996075,1.349729 -0.08686,0.0291 -5.071935,5.131349 7.226102,-0.334205 0.07358,-0.03426 3.009364,-1.344566 16.291433,-7.370485 c 0.489178,-0.220903 0.400051,-1.457808 -0.197775,-2.779654 -0.448378,-0.99138 -1.047268,-1.757712 -1.530239,-1.977572 z"
         id="path2422" />
      <path
         id="rect2383"
         d="m -39.833733,20.340642 c 0.546127,-0.450225 1.148697,0.251117 2.318286,1.395328 0.540287,0.775209 1.127409,1.562056 1.392949,2.468889 l 13.922219,-13.951118 7.252295,-8.748825 c 0.510123,-0.529234 3.790545,-4.809294 2.583825,-5.989829 -1.206714,-1.180533 -5.800195,2.729207 -6.310321,3.258442 l -7.76415,7.064089 -13.395103,14.503024 z"
         style="fill:url(#linearGradient5672);fill-opacity:1;stroke:#0c0c0c;stroke-width:0.97175026;stroke-linecap:butt;stroke-linejoin:round;stroke-miterlimit:4;stroke-opacity:1;stroke-dasharray:none;stroke-dashoffset:0" />
      <path
         id="path3208"
         d="m -39.751115,20.25802 c 0.546126,-0.450224 1.06608,0.333736 2.235667,1.477945 1.166791,1.141475 1.79051,1.628788 1.365621,2.194308 l 13.781544,-13.502238 0.05004,-0.05192 c 0.0016,-0.0021 -0.02894,-0.02458 -0.02733,-0.02673 0.424887,-0.565521 -0.116215,-1.878997 -1.283005,-3.02047 -1.169587,-1.144209 -2.515704,-1.68032 -3.061832,-1.230094 l -0.05004,0.051918 -13.010668,14.107282 z"
         style="opacity:0.6;fill:#0c0c0c;fill-opacity:1;stroke:none" />
      <path
         style="fill:url(#linearGradient5674);fill-opacity:1;fill-rule:evenodd;stroke:url(#linearGradient5676);stroke-width:0.97175026;stroke-linecap:round;stroke-linejoin:round;stroke-miterlimit:4;stroke-opacity:1;stroke-dasharray:none"
         d="m -36.368366,24.483597 c 0.42489,-0.565519 0.193365,-1.877941 -0.973425,-3.019416 -1.169586,-1.144209 -2.068506,-1.326182 -2.614637,-0.875957 -1.450621,2.868332 -2.095062,2.633063 -4.340424,7.559765 0.08336,0.172306 0.245016,0.33745 0.487928,0.581233 l 7.440558,-4.245625 z"
         id="path3270" />
      <path
         id="path2786"
         d="m -25.759246,4.937675 c 0.546126,-0.450225 1.892241,0.085886 3.061827,1.230096 1.166791,1.141473 1.707895,2.45495 1.283007,3.020469 -0.0016,0.00215 0.02897,0.024603 0.02733,0.026731 1.499799,-2.259861 5.463204,-5.632013 6.62456,-7.842044 0.424887,-0.565522 3.372736,-4.451842 2.205946,-5.593315 -1.169587,-1.14421 -5.204501,1.98369 -5.750629,2.433915 l -7.452038,6.724148 z"
         style="opacity:0.6;fill:#0c0c0c;fill-opacity:1;stroke:none" />
    </g>
  </g>
</svg>
