<?xml version="1.0" encoding="UTF-8" standalone="no"?>
<svg
   id="svg11300"
   width="22"
   height="22"
   style="enable-background:new"
   version="1.0"
   viewBox="0 0 22 22"
   sodipodi:docname="org.gnome.DiskUtility.svg"
   inkscape:version="1.2.2 (b0a8486541, 2022-12-01)"
   xmlns:inkscape="http://www.inkscape.org/namespaces/inkscape"
   xmlns:sodipodi="http://sodipodi.sourceforge.net/DTD/sodipodi-0.dtd"
   xmlns:xlink="http://www.w3.org/1999/xlink"
   xmlns="http://www.w3.org/2000/svg"
   xmlns:svg="http://www.w3.org/2000/svg"
   xmlns:rdf="http://www.w3.org/1999/02/22-rdf-syntax-ns#"
   xmlns:cc="http://creativecommons.org/ns#"
   xmlns:dc="http://purl.org/dc/elements/1.1/">
  <sodipodi:namedview
     id="namedview64"
     pagecolor="#ffffff"
     bordercolor="#000000"
     borderopacity="0.25"
     inkscape:showpageshadow="2"
     inkscape:pageopacity="0.0"
     inkscape:pagecheckerboard="0"
     inkscape:deskcolor="#d1d1d1"
     showgrid="false"
     inkscape:zoom="17.766058"
     inkscape:cx="15.872964"
     inkscape:cy="12.552025"
     inkscape:window-width="1386"
     inkscape:window-height="857"
     inkscape:window-x="532"
     inkscape:window-y="70"
     inkscape:window-maximized="0"
     inkscape:current-layer="svg11300" />
  <title
     id="title4162">Adwaita Icon Template</title>
  <defs
     id="defs3">
    <linearGradient
       id="linearGradient2155"
       x1="301.62"
       x2="318.91"
       y1="113.77"
       y2="59.234001"
       gradientTransform="matrix(0.04714933,0,0,0.04699825,-0.51102824,8.3481507)"
       gradientUnits="userSpaceOnUse">
      <stop
         id="stop1190"
         style="stop-color:#5e5c64"
         offset="0" />
      <stop
         id="stop1192"
         style="stop-color:#77767b"
         offset="1" />
    </linearGradient>
    <linearGradient
       id="linearGradient1057"
       x1="249"
       x2="249"
       y1="125"
       y2="-112.15"
       gradientTransform="matrix(0.04166667,0,0,0.03645833,0.3333322,9.270834)"
       gradientUnits="userSpaceOnUse">
      <stop
         id="stop1184"
         style="stop-color:#c0bfbc"
         offset="0" />
      <stop
         id="stop1186"
         style="stop-color:#f6f5f4"
         offset="1" />
    </linearGradient>
    <linearGradient
       id="linearGradient1284"
       x1="347"
       x2="323"
       y1="217"
       y2="-172"
       gradientTransform="matrix(0.046875,0,0,0.04086539,-1.0000016,8.8557702)"
       gradientUnits="userSpaceOnUse">
      <stop
         id="stop1278"
         style="stop-color:#f6f5f4"
         offset="0" />
      <stop
         id="stop1280"
         style="stop-color:#fff"
         offset="1" />
    </linearGradient>
    <linearGradient
       id="linearGradient1444-3-9"
       x1="177"
       x2="496"
       y1="619.96002"
       y2="619.96002"
       gradientTransform="matrix(0.04375,0,0,0.04513971,-3.7,-17.109542)"
       gradientUnits="userSpaceOnUse">
      <stop
         id="stop1366"
         style="stop-color:#424048"
         offset="0" />
      <stop
         id="stop1368"
         style="stop-color:#f6f5f4"
         offset=".047022" />
      <stop
         id="stop1370"
         style="stop-color:#949390"
         offset=".097179" />
      <stop
         id="stop1372"
         style="stop-color:#d5d3cf"
         offset=".89969" />
      <stop
         id="stop1374"
         style="stop-color:#f6f5f4"
         offset=".94984" />
      <stop
         id="stop1376"
         style="stop-color:#424048"
         offset="1" />
    </linearGradient>
    <linearGradient
       id="linearGradient1121"
       x1="176"
       x2="495"
       y1="799.96002"
       y2="799.96002"
       gradientTransform="matrix(0.046875,0,0,0.01736143,-4.7500007,6.1831421)"
       gradientUnits="userSpaceOnUse">
      <stop
         id="stop1352"
         offset="0" />
      <stop
         id="stop1354"
         style="stop-color:#424048"
         offset=".047022" />
      <stop
         id="stop1356"
         style="stop-color:#241f31"
         offset=".097179" />
      <stop
         id="stop1358"
         style="stop-color:#241f31"
         offset=".89969" />
      <stop
         id="stop1360"
         style="stop-color:#424048"
         offset=".94984" />
      <stop
         id="stop1362"
         offset="1" />
    </linearGradient>
    <radialGradient
       id="radialGradient1131"
       cx="128"
       cy="199.58"
       r="16"
       gradientUnits="userSpaceOnUse">
      <stop
         id="stop979"
         style="stop-opacity:.25098"
         offset="0" />
      <stop
         id="stop981"
         style="stop-opacity:.031373"
         offset="1" />
    </radialGradient>
    <radialGradient
       id="radialGradient1133"
       cx="127.94"
       cy="200.07001"
       r="8"
       gradientTransform="matrix(1.3757,0,0,1.3757,-47.997,-75.472)"
       gradientUnits="userSpaceOnUse">
      <stop
         id="stop1231"
         style="stop-color:#949390"
         offset="0" />
      <stop
         id="stop1233"
         style="stop-color:#424048"
         offset="1" />
    </radialGradient>
    <linearGradient
       id="linearGradient9681"
       x1="298.66"
       x2="328.10001"
       y1="125.79"
       y2="70.897003"
       gradientTransform="matrix(0.04714933,0,0,0.04699825,-0.51102819,8.3481507)"
       gradientUnits="userSpaceOnUse">
      <stop
         id="stop10228"
         style="stop-color:#47454b"
         offset="0" />
      <stop
         id="stop10230"
         style="stop-color:#dfdee0"
         offset="1" />
    </linearGradient>
    <radialGradient
       id="radialGradient10249"
       cx="62.562"
       cy="221.95"
       r="36.043999"
       gradientTransform="matrix(0.11283025,0.11940377,-0.02173207,0.02040477,9.052556,-4.215424)"
       gradientUnits="userSpaceOnUse">
      <stop
         id="stop10243"
         style="stop-color:#010101"
         offset="0" />
      <stop
         id="stop10245"
         style="stop-color:#010101;stop-opacity:0"
         offset="1" />
    </radialGradient>
    <radialGradient
       inkscape:collect="always"
       xlink:href="#radialGradient1131"
       id="radialGradient1397"
       gradientUnits="userSpaceOnUse"
       cx="128"
       cy="199.58"
       r="16"
       gradientTransform="matrix(1.0267857,0,0,1.0301205,-5.1904475,-6.4337383)" />
    <radialGradient
       inkscape:collect="always"
       xlink:href="#radialGradient1133"
       id="radialGradient1399"
       gradientUnits="userSpaceOnUse"
       gradientTransform="matrix(1.4125491,0,0,1.4171368,-54.473074,-84.17899)"
       cx="127.94"
       cy="200.07001"
       r="8" />
    <radialGradient
       inkscape:collect="always"
       xlink:href="#radialGradient1131"
       id="radialGradient1407"
       gradientUnits="userSpaceOnUse"
       cx="128"
       cy="199.58"
       r="16"
       gradientTransform="matrix(1.0267857,0,0,1.0301205,-3.8333133,-6.4337373)" />
    <radialGradient
       inkscape:collect="always"
       xlink:href="#radialGradient1133"
       id="radialGradient1409"
       gradientUnits="userSpaceOnUse"
       gradientTransform="matrix(1.4125491,0,0,1.4171368,-53.115938,-84.178989)"
       cx="127.94"
       cy="200.07001"
       r="8" />
    <radialGradient
       inkscape:collect="always"
       xlink:href="#radialGradient1131"
       id="radialGradient1417"
       gradientUnits="userSpaceOnUse"
       cx="128"
       cy="199.58"
       r="16"
       gradientTransform="translate(-0.81157547,-0.14034453)" />
    <radialGradient
       inkscape:collect="always"
       xlink:href="#radialGradient1133"
       id="radialGradient1419"
       gradientUnits="userSpaceOnUse"
       gradientTransform="matrix(1.3757,0,0,1.3757,-48.808575,-75.612345)"
       cx="127.94"
       cy="200.07001"
       r="8" />
    <radialGradient
       inkscape:collect="always"
       xlink:href="#radialGradient1131"
       id="radialGradient1437"
       gradientUnits="userSpaceOnUse"
       cx="128"
       cy="199.58"
       r="16"
       gradientTransform="matrix(1.0267857,0,0,1.0301205,-5.1904568,-5.8072318)" />
    <radialGradient
       inkscape:collect="always"
       xlink:href="#radialGradient1133"
       id="radialGradient1439"
       gradientUnits="userSpaceOnUse"
       gradientTransform="matrix(1.4125491,0,0,1.4171368,-54.473081,-83.552483)"
       cx="127.94"
       cy="200.07001"
       r="8" />
    <radialGradient
       inkscape:collect="always"
       xlink:href="#radialGradient1131"
       id="radialGradient1447"
       gradientUnits="userSpaceOnUse"
       cx="128"
       cy="199.58"
       r="16"
       gradientTransform="matrix(1.1666667,0,0,1.1704558,-21.333341,-34.721025)" />
    <radialGradient
       inkscape:collect="always"
       xlink:href="#radialGradient1133"
       id="radialGradient1449"
       gradientUnits="userSpaceOnUse"
       gradientTransform="matrix(1.8342666,0,0,1.840224,-106.66266,-169.7876)"
       cx="127.94"
       cy="200.07001"
       r="8" />
  </defs>
  <metadata
     id="metadata4">
    <rdf:RDF>
      <cc:Work
         rdf:about="">
        <dc:title>Adwaita Icon Template</dc:title>
      </cc:Work>
    </rdf:RDF>
  </metadata>
  <circle
     id="path907"
     cx="25.704348"
     cy="-0.048245907"
     r="0"
     style="opacity:0.05;fill:#ac1d2e;stroke-width:1;paint-order:normal" />
  <rect
     id="rect1480-3-7-1-2"
     x="3.5"
     y="15.5"
     width="15"
     height="5"
     rx="1.5"
     ry="1.5"
     style="fill:url(#linearGradient1121);stroke-width:0.999999;paint-order:normal;enable-background:new" />
  <path
     id="rect3193"
     style="color:#000000;fill:#0e141f;fill-opacity:0.5;stroke-width:0.999999;-inkscape-stroke:none"
     d="M 3,16.999999 V 18.75 c 0,1.154707 0.8219573,2.249999 1.75,2.249999 h 12.5 c 0.92804,0 1.750001,-1.095292 1.750001,-2.249999 V 16.999999 C 19.000001,17.351037 18.124187,18.210958 18,18.5 v 0.25 C 18,19.774828 17.323136,20 16.5,20 H 5.5 C 4.676864,20 4,20 4,18.911459 V 18.5 C 3.8758119,18.210958 3,17.351037 3,16.999999 Z"
     sodipodi:nodetypes="cssssccsssscc" />
  <rect
     id="rect1480-3-7-1"
     x="4"
     y="6"
     width="14"
     height="13"
     rx="1"
     ry="1"
     style="fill:url(#linearGradient1444-3-9);stroke-width:1;paint-order:normal;enable-background:new" />
  <rect
     id="rect1480-6-7"
     x="3.5"
     y="1.5"
     width="15.000001"
     height="17"
     rx="1.5"
     ry="1.5"
     style="fill:url(#linearGradient1284);stroke-width:1;paint-order:normal;enable-background:new" />
  <path
     id="path905"
     d="M 7.333333,4 C 6.9640003,4 6.6666666,4.2601667 6.6666666,4.5833333 c 0,0.4832479 -0.4477168,0.875 -0.9999997,0.875 C 5.2973332,5.4583333 5,5.7185 5,6.0416666 V 7.2083334 C 5,7.5315 5.2973332,7.7916669 5.6666669,7.7916669 c 0.5522829,0 0.9999997,0.3917518 0.9999997,0.8749996 C 6.6661589,8.8820919 6.5749751,9.089787 6.4104001,9.25 5.4233664,10.211421 5.0023667,11.457625 5,12.750001 5,15.649459 7.6863334,18 11,18 c 3.313667,0 6,-2.350541 6,-5.25 -0.0026,-1.292492 -0.423151,-2.538667 -1.410567,-3.5 -0.164515,-0.160242 -0.2557,-0.3679373 -0.2561,-0.5833335 0,-0.4832478 0.447717,-0.8749996 1,-0.8749996 C 16.702667,7.7916669 17,7.5315 17,7.2083334 V 6.0416666 C 17,5.7185 16.702667,5.4583333 16.333333,5.4583333 c -0.552283,0 -1,-0.3917521 -1,-0.875 C 15.333333,4.2601667 15.036,4 14.666667,4 Z M 11,12.166667 a 0.99999997,0.875 0 0 1 1,0.875 0.99999997,0.875 0 0 1 -1,0.875 0.99999997,0.875 0 0 1 -1,-0.875 0.99999997,0.875 0 0 1 1,-0.875 z"
     style="fill:#9a9996;stroke-width:1;paint-order:normal;enable-background:new" />
  <path
     id="path905-2"
     d="M 7.3333326,3 C 6.9640007,3 6.6666671,3.2601667 6.6666671,3.5833334 c 0,0.4832478 -0.4477168,0.8749999 -0.9999997,0.8749999 -0.3693333,0 -0.666667,0.2601667 -0.666667,0.5833333 v 1.1666668 c 0,0.3231666 0.2973337,0.5833331 0.666667,0.5833331 0.5522829,0 0.9999997,0.3917522 0.9999997,0.875 C 6.6661594,7.8820919 6.5749755,8.0897872 6.4104006,8.25 5.4233669,9.211421 5.0023667,10.457624 5,11.75 5,14.649458 7.6863334,17 11,17 c 3.313667,0 6,-2.350542 6,-5.25 -0.0026,-1.292491 -0.42315,-2.538666 -1.410567,-3.5 -0.164515,-0.160242 -0.2557,-0.3679373 -0.2561,-0.5833335 0,-0.4832478 0.447716,-0.875 1,-0.875 C 16.702667,6.7916665 17,6.5315 17,6.2083334 V 5.0416666 C 17,4.7185 16.702667,4.4583333 16.333333,4.4583333 c -0.552284,0 -1,-0.3917521 -1,-0.8749999 C 15.333333,3.2601667 15.036,3 14.666667,3 Z M 11,11.166667 a 0.99999987,0.875 0 0 1 1,0.875 0.99999987,0.875 0 0 1 -1,0.875 0.99999987,0.875 0 0 1 -1,-0.875 0.99999987,0.875 0 0 1 1,-0.875 z"
     style="fill:url(#linearGradient1057);stroke-width:1;paint-order:normal;enable-background:new" />
  <g
     id="use1038-7"
     transform="matrix(0.06086956,0,0,0.06067251,9.315942,-9.3596484)"
     style="stroke-width:4.11381;enable-background:new">
    <ellipse
       id="circle1391"
       cx="126.23811"
       cy="203.71085"
       style="fill:url(#radialGradient1397);stroke-width:4.11381;paint-order:normal;enable-background:new"
       rx="16.428572"
       ry="16.481928" />
    <ellipse
       id="circle1393"
       cx="126.23811"
       cy="203.71085"
       style="fill:url(#radialGradient1399);stroke-width:4.11381;paint-order:normal"
       rx="8.2142859"
       ry="8.2409639" />
  </g>
  <g
     id="use1038-2"
     transform="matrix(0.06086956,0,0,0.06067251,-2.7666674,-9.3596484)"
     style="stroke-width:4.11381;enable-background:new">
    <ellipse
       id="circle1401"
       cx="127.59526"
       cy="203.71085"
       style="fill:url(#radialGradient1407);stroke-width:4.11381;paint-order:normal;enable-background:new"
       rx="16.428572"
       ry="16.481928" />
    <ellipse
       id="circle1403"
       cx="127.59526"
       cy="203.71085"
       style="fill:url(#radialGradient1409);stroke-width:4.11381;paint-order:normal"
       rx="8.2142859"
       ry="8.2409639" />
  </g>
  <g
     id="use1038-3"
     transform="matrix(0.0625,0,0,0.0625,-2.9492764,-4.2412281)"
     style="stroke-width:4.00001;enable-background:new">
    <circle
       id="circle1411"
       cx="127.18842"
       cy="203.85965"
       r="16"
       style="fill:url(#radialGradient1417);stroke-width:4.00001;paint-order:normal;enable-background:new" />
    <circle
       id="circle1413"
       cx="127.18842"
       cy="203.85965"
       r="8"
       style="fill:url(#radialGradient1419);stroke-width:4.00001;paint-order:normal" />
  </g>
  <g
     id="use1038-9"
     transform="matrix(0.06086956,0,0,0.06067251,9.315942,-3.8976604)"
     style="stroke-width:4.11381;enable-background:new">
    <ellipse
       id="circle1431"
       cx="126.23811"
       cy="204.33736"
       style="fill:url(#radialGradient1437);stroke-width:4.11381;paint-order:normal;enable-background:new"
       rx="16.428572"
       ry="16.481928" />
    <ellipse
       id="circle1433"
       cx="126.23811"
       cy="204.33736"
       style="fill:url(#radialGradient1439);stroke-width:4.11381;paint-order:normal"
       rx="8.2142859"
       ry="8.2409639" />
  </g>
  <rect
     id="rect3005"
     x="3.5"
     y="1.5"
     width="15"
     height="17"
     rx="1.5"
     ry="1.5"
     style="fill:none;stroke:#485a6c;stroke-width:1;stroke-opacity:0.5;paint-order:normal;enable-background:new" />
  <g
     id="g1445"
     transform="matrix(0.05357142,0,0,0.053398,-1.8571419,6.1040328)"
     style="stroke-width:4.67425;enable-background:new">
    <ellipse
       id="circle1441"
       cx="128"
       cy="204.05197"
       style="fill:url(#radialGradient1447);stroke-width:4.67427;paint-order:normal;enable-background:new"
       rx="18.666668"
       ry="18.727293" />
    <ellipse
       id="circle1443"
       cx="128"
       cy="204.05197"
       style="fill:url(#radialGradient1449);stroke-width:4.67425;paint-order:normal"
       rx="10.666666"
       ry="10.70131" />
  </g>
  <path
     id="path9673"
     d="m 11.068472,5.5188556 c -0.480922,0 -0.932066,0.1090601 -1.336759,0.2493162 A 0.36250295,0.36134142 0 0 0 9.594687,6.3652003 l 2.007806,1.9962977 c 0.276748,0.275091 0.276748,0.685404 0,0.960532 l -0.756972,0.752705 c -0.276673,0.275015 -0.692832,0.275015 -0.969503,0 L 7.8678328,8.0784372 A 0.36250295,0.36134142 0 0 0 7.2696209,8.2150273 C 7.1284537,8.6174826 7.0187674,9.066711 7.0187674,9.545304 c 0,2.220197 1.8179088,4.02681 4.0497506,4.02681 0.395791,0 0.764328,-0.08224 1.110594,-0.186525 l 5.321273,5.300464 c 0.987741,0.984575 2.249967,0.880653 2.941364,0.192767 0.691341,-0.687885 0.801275,-1.941592 -0.156921,-2.896596 l -5.353712,-5.332799 c 0.104809,-0.344271 0.187124,-0.710688 0.187124,-1.104083 0,-2.2201967 -1.817946,-4.0264337 -4.04975,-4.0264337 z"
     style="color:#000000;text-indent:0;text-decoration-line:none;text-transform:none;fill:url(#linearGradient9681);stroke-width:1;enable-background:accumulate" />
  <path
     id="path10241"
     d="m 11.068472,5.5000561 c -0.483808,0 -0.937065,0.1093539 -1.343021,0.2500495 A 0.3814004,0.38017831 0 0 0 9.581426,6.3783411 l 2.007808,1.9962976 c 0.269655,0.2680594 0.269675,0.6660223 0,0.9340993 l -0.756973,0.752706 c -0.269582,0.267984 -0.673406,0.267984 -0.942988,0 L 7.8810891,8.065146 A 0.3814004,0.38017831 0 0 0 7.2519471,8.2087103 C 7.1103334,8.6124445 6.9999998,9.06374 6.9999998,9.545227 c 0,2.230351 1.8265279,4.045611 4.0684212,4.045611 0.394226,0 0.760745,-0.08128 1.105426,-0.184322 l 5.313164,5.292756 c 0.993399,0.990216 2.269957,0.887854 2.968145,0.193126 0.698187,-0.694729 0.806801,-1.96246 -0.157286,-2.92348 l -5.34598,-5.325091 c 0.103487,-0.342599 0.184914,-0.706891 0.184914,-1.098594 0,-2.2303486 -1.826566,-4.0452331 -4.068423,-4.0452331 z"
     style="color:#000000;text-indent:0;text-decoration-line:none;text-transform:none;opacity:0.58;fill:url(#radialGradient10249);stroke-width:1;enable-background:accumulate" />
  <path
     id="path2141"
     d="m 11.068661,5.8798022 c -0.425456,0 -0.837843,0.097317 -1.218094,0.2291072 l 2.008186,1.9962975 c 0.412688,0.4102394 0.412688,1.0624231 0,1.4726621 l -0.7572,0.752705 c -0.412689,0.410239 -1.06878,0.410239 -1.48147,0 L 7.6118984,8.3342767 C 7.4793164,8.7122561 7.3814513,9.122193 7.3814513,9.545139 c 0,2.02431 1.6508307,3.665301 3.6872667,3.665301 0.425457,0 0.837843,-0.09731 1.218112,-0.229089 l 5.46989,5.448978 c 1.758179,1.752547 3.962051,-0.507656 2.271655,-2.192563 l -5.502707,-5.481688 c 0.132582,-0.377979 0.230448,-0.787916 0.230448,-1.210863 0,-2.024309 -1.650829,-3.6652998 -3.687266,-3.6652998 z"
     style="color:#000000;text-indent:0;text-decoration-line:none;text-transform:none;fill:url(#linearGradient2155);stroke-width:1;enable-background:accumulate" />
</svg>
