<?xml version="1.0" encoding="UTF-8" standalone="no"?>
<svg
   xmlns:dc="http://purl.org/dc/elements/1.1/"
   xmlns:cc="http://creativecommons.org/ns#"
   xmlns:rdf="http://www.w3.org/1999/02/22-rdf-syntax-ns#"
   xmlns:svg="http://www.w3.org/2000/svg"
   xmlns="http://www.w3.org/2000/svg"
   xmlns:xlink="http://www.w3.org/1999/xlink"
   xmlns:sodipodi="http://sodipodi.sourceforge.net/DTD/sodipodi-0.dtd"
   xmlns:inkscape="http://www.inkscape.org/namespaces/inkscape"
   version="1.1"
   id="svg4384"
   viewBox="0 0 22 22"
   height="22"
   width="22"
   inkscape:version="0.91 r"
   sodipodi:docname="steam_tray_mono.svg">
  <sodipodi:namedview
     pagecolor="#ffffff"
     bordercolor="#666666"
     borderopacity="1"
     objecttolerance="10"
     gridtolerance="10"
     guidetolerance="10"
     inkscape:pageopacity="0"
     inkscape:pageshadow="2"
     inkscape:window-width="640"
     inkscape:window-height="480"
     id="namedview11"
     showgrid="true"
     inkscape:zoom="22.627417"
     inkscape:cx="11.179319"
     inkscape:cy="9.9318478"
     inkscape:current-layer="svg4384">
    <inkscape:grid
       type="xygrid"
       id="grid4139" />
  </sodipodi:namedview>
  <defs
     id="defs4386">
    <linearGradient
       id="linearGradient4947">
      <stop
         id="stop4949"
         offset="0"
         style="stop-color:#000000;stop-opacity:1;" />
      <stop
         id="stop4951"
         offset="1"
         style="stop-color:#363636;stop-opacity:1" />
    </linearGradient>
    <linearGradient
       gradientUnits="userSpaceOnUse"
       y2="1131.8831"
       x2="64"
       y1="964.44208"
       x1="64"
       id="linearGradient4955"
       xlink:href="#linearGradient4947" />
    <linearGradient
       gradientUnits="userSpaceOnUse"
       y2="1131.8831"
       x2="64"
       y1="964.44208"
       x1="64"
       id="linearGradient4955-1"
       xlink:href="#linearGradient4947" />
    <linearGradient
       inkscape:collect="always"
       xlink:href="#linearGradient4947"
       id="linearGradient4143"
       gradientUnits="userSpaceOnUse"
       x1="64.038918"
       y1="924.59058"
       x2="64.038918"
       y2="1052.1493"
       gradientTransform="matrix(0.12485501,0,0,0.12543251,3.00442,-112.97372)" />
  </defs>
  <metadata
     id="metadata4389">
    <rdf:RDF>
      <cc:Work
         rdf:about="">
        <dc:format>image/svg+xml</dc:format>
        <dc:type
           rdf:resource="http://purl.org/dc/dcmitype/StillImage" />
        <dc:title></dc:title>
      </cc:Work>
    </rdf:RDF>
  </metadata>
  <g
     transform="matrix(0.12485501,0,0,0.12543251,3.00442,-111.97372)"
     id="layer1-6"
     style="opacity:0.6;fill:#ffffff;fill-opacity:1">
    <path
       id="path4405-9"
       d="m 54.12981,1051.6696 c -3.863451,-0.7135 -5.68665,-1.2024 -11.212468,-3.007 -5.346747,-1.7461 -9.686901,-3.8011 -13.914374,-6.5883 -7.724921,-5.0931 -14.163082,-11.9511 -19.2412558,-19.7106 -1.0383734,-1.5867 -3.0403378,-4.6839 -4.6218667,-8.996 0.05834,-0.058 3.8874337,1.23 8.0504755,2.9391 l 7.569168,3.1075 0.806614,2.2852 c 0.443637,1.2569 1.261835,3.0364 1.818217,3.9544 2.197093,3.6252 6.928854,7.2048 11.395489,8.6208 2.53731,0.8044 7.134864,0.8776 9.9,0.1576 4.216333,-1.0978 8.419567,-3.665 11.240887,-6.8655 1.944699,-2.2061 3.687226,-5.8381 4.210687,-8.7765 0.235122,-1.3198 0.438048,-2.8047 0.450945,-3.2997 0.0216,-0.8287 1.038561,-1.6595 12.835468,-10.4868 11.497513,-8.60322 12.965917,-9.61323 14.312017,-9.84421 6.054357,-1.03888 8.363337,-1.80044 11.955037,-3.94307 5.95836,-3.55444 10.45485,-9.26926 12.17379,-15.4723 1.73725,-6.26905 0.67446,-14.2916 -2.69469,-20.3411 -1.42913,-2.56607 -4.45805,-5.88545 -7.07351,-7.7518 -2.452651,-1.75018 -6.263393,-3.5065 -9.410627,-4.33725 -2.063256,-0.54462 -3.351699,-0.67278 -6.75,-0.67138 -3.380725,10e-4 -4.66816,0.12949 -6.600001,0.65668 -2.770545,0.75608 -5.539116,1.9921 -7.529535,3.36154 -2.122339,1.46021 -5.438332,4.70574 -6.868054,6.72211 -0.704919,0.99417 -1.716252,2.67455 -2.247414,3.73418 -1.115418,2.22521 -2.404998,7.00198 -2.404998,8.90843 0,0.73115 -0.199272,1.54118 -0.451794,1.83653 -0.248487,0.29064 -4.467238,6.46542 -9.375001,13.72174 l -8.923207,13.1933 -1.95,0.0682 c -3.030396,0.10598 -5.246136,0.67985 -8.041318,2.08269 l -2.571871,1.29077 -14.418407,-5.88528 C 6.6180892,989.09668 0.07101818,986.39904 -8.3382485e-4,986.33882 -0.22249782,986.15303 0.67577778,978.15983 1.1599041,975.62175 c 0.7591985,-3.98018 2.0380673,-8.04186 3.6267913,-11.71382 0.8441735,-1.95111 1.8078393,-3.75627 2.6062292,-5.49741 1.9071069,-4.15904 6.8126274,-10.31732 9.5775524,-13.47405 5.77752,-6.59623 14.317715,-12.45087 23.428218,-15.93497 3.48603,-1.33316 9.306994,-3.12348 13.731115,-3.8495 4.652089,-0.76343 15.502327,-0.73934 20.131271,0.018 4.073085,0.66644 8.229267,1.9899 11.781115,3.19578 3.218601,1.09274 8.859135,4.00551 11.781115,5.80211 7.286459,4.48012 14.556399,11.12976 19.978369,19.47965 4.64058,7.14652 8.17584,16.24783 9.55445,25.03838 0.25054,1.59756 0.62824,5.40214 0.72467,8.45464 0.18665,5.90835 -0.44932,9.72247 -1.46607,14.65664 -0.72372,3.5122 -2.45093,9.0501 -4.03118,12.4658 -2.89781,6.2635 -6.96224,12.6699 -12.05725,17.9027 -5.23186,5.3733 -11.047252,9.6777 -17.530385,13.0698 -5.662941,2.9628 -10.613672,4.5175 -17.26493,6.0204 -2.941674,0.6647 -4.134258,0.7579 -10.951174,0.8568 -6.486969,0.094 -8.106091,0.027 -10.650001,-0.4431 z M 36.429809,1029.02 c -2.9823,-0.9457 -6.02899,-2.9754 -7.524916,-5.0133 -0.563796,-0.768 -1.025084,-1.4671 -1.025084,-1.5535 0,-0.086 1.074215,0.2961 2.387144,0.8498 3.112579,1.3127 5.079313,1.8894 7.703437,2.2587 4.981863,0.7012 10.05688,-1.6556 11.965453,-5.5565 0.429048,-0.877 0.855252,-2.3228 0.947121,-3.2129 0.361113,-3.4988 -1.218114,-7.5384 -3.961278,-10.1328 -1.654753,-1.565 -4.037794,-2.8339 -8.775928,-4.673 -1.468011,-0.5698 -2.084883,-0.9469 -1.881567,-1.1502 0.466863,-0.4669 5.088708,-0.6061 6.993591,-0.2106 2.501659,0.5193 5.127493,1.9535 7.303339,3.9889 1.397307,1.3071 2.227332,2.4168 3.044826,4.0709 l 0.722077,2.3633 0.625,3.7525 -0.491071,3.9312 -0.856006,2.3632 c -1.883829,3.8117 -5.568036,6.7653 -9.865426,7.9091 -1.965993,0.5233 -5.684019,0.531 -7.310712,0.015 z m 43.724302,-40.56511 c -2.585097,-0.71671 -5.76979,-2.33892 -7.503139,-3.87154 -1.905808,-1.6851 -3.998251,-4.551 -5.035969,-6.89746 -1.934247,-4.37368 -2.459001,-10.00125 -1.340409,-14.37489 1.007775,-3.94037 2.202885,-5.9777 5.398822,-9.20348 2.27262,-2.29384 3.316239,-3.10561 5.106396,-3.97194 3.270423,-1.58269 5.555626,-1.6262 9.255779,-1.60095 5.089386,0.0347 9.669929,1.06158 13.42677,3.95941 2.466319,1.90239 4.222509,4.09061 5.534909,6.89655 1.74072,3.72169 2.17965,6.0202 2.01591,10.55645 -0.11664,3.23108 -0.26565,4.17154 -0.93513,5.90182 -0.43802,1.13205 -1.40613,2.97544 -2.15136,4.09644 -2.53015,3.80588 -6.236959,6.51241 -10.804391,8.11328 -1.79577,0.6294 -2.870279,0.41355 -5.942174,0.49959 -2.715714,0.076 -5.831099,0.22797 -7.026014,-0.10328 z m 10.125702,-5.11427 c 3.738576,-1.01433 7.932055,-4.25985 9.665128,-7.48027 1.592659,-2.95949 2.096399,-6.48817 1.435239,-10.05381 -0.1648,-0.88877 -0.77633,-2.58792 -1.35895,-3.7759 -1.877531,-3.8283 -5.511672,-6.79205 -9.871959,-8.05087 -1.339647,-0.38676 -2.49108,-0.47876 -4.65,-0.37156 -2.367952,0.11758 -3.288916,0.317 -5.269459,1.14101 -1.935555,0.8053 -2.778138,1.38004 -4.354014,2.96995 -3.254706,3.2837 -4.538046,6.46981 -4.540041,11.27142 -0.0012,2.98179 0.632196,5.50323 1.9455,7.74422 0.937095,1.59903 3.850584,4.34822 5.70861,5.38669 1.596576,0.89235 3.807333,1.64643 5.289946,1.80438 1.576842,0.16799 4.148124,-0.0828 6,-0.58526 z"
       style="opacity:1;fill:#ffffff;fill-opacity:1"
       inkscape:connector-curvature="0"
       sodipodi:nodetypes="cssscscscscsscssssssscssssscscsscscsssssssssssssssscscccssccsssccscccccccccssssssssssssccsssssssscssss" />
  </g>
  <path
     sodipodi:nodetypes="cssscscscscsscssssssscssssscscsscscsssssssssssssssscscccssccsssccsccaccccccssssssssssssccsssssssscssss"
     inkscape:connector-curvature="0"
     style="opacity:0.7;fill:url(#linearGradient4143);fill-opacity:1"
     d="M 9.762798,18.939838 C 9.2804268,18.850342 9.0527912,18.789018 8.3628652,18.562662 7.695297,18.343644 7.153407,18.085881 6.6255859,17.736275 5.6610908,17.097435 4.8572541,16.237219 4.2232187,15.263925 4.0935726,15.064901 3.8436173,14.676412 3.6461555,14.135534 c 0.00728,-0.0073 0.4853655,0.154282 1.0051422,0.368659 l 0.9450485,0.389781 0.1007098,0.286639 c 0.05539,0.157656 0.1575464,0.380863 0.2270135,0.49601 0.2743181,0.454718 0.8651021,0.903716 1.4227839,1.081329 0.3167959,0.100898 0.8908235,0.110079 1.2360646,0.01977 0.5264303,-0.1377 1.0512251,-0.45971 1.4034811,-0.861157 0.2428049,-0.276717 0.4603689,-0.732288 0.5257249,-1.100859 0.02936,-0.165545 0.05469,-0.3518 0.0563,-0.413889 0.0027,-0.103946 0.12967,-0.208155 1.602573,-1.315386 1.435522,-1.079123 1.618859,-1.205811 1.786927,-1.234784 0.755916,-0.130309 1.044204,-0.225833 1.492646,-0.494589 0.743931,-0.445842 1.30534,-1.162666 1.519959,-1.9407294 C 17.187436,8.629984 17.054741,7.6236954 16.634086,6.8648914 16.455652,6.5430228 16.077476,6.1266646 15.750923,5.8925637 15.444697,5.6730342 14.968907,5.4527346 14.575959,5.3485315 14.318351,5.2802185 14.157483,5.264143 13.733188,5.2643186 c -0.422101,1.255e-4 -0.582844,0.016242 -0.824044,0.082369 -0.345916,0.094837 -0.691586,0.2498741 -0.9401,0.4216464 -0.264984,0.1831578 -0.679003,0.5902527 -0.857511,0.8431711 -0.08801,0.1247012 -0.214282,0.3354755 -0.280601,0.4683876 -0.139265,0.2791136 -0.300276,0.8782759 -0.300276,1.1174067 0,0.09171 -0.02488,0.1933141 -0.05641,0.2303606 -0.03102,0.036456 -0.5577574,0.8109738 -1.1705162,1.7211519 l -1.1141071,1.654869 -0.2434673,0.0086 c -0.3783601,0.01329 -0.6550063,0.08527 -1.0039988,0.261237 L 6.6210476,12.235377 4.8208373,11.497172 C 3.8307216,11.091159 3.013287,10.752787 3.0043159,10.745234 2.97664,10.72193 3.0887942,9.7193227 3.1492398,9.4009649 3.2440296,8.9017209 3.4037028,8.3922542 3.6020629,7.9316711 3.7074622,7.6869384 3.8277807,7.4605127 3.9274637,7.2421171 4.1655755,6.7204383 4.7780543,5.9479898 5.1232691,5.5520332 5.8446214,4.7246515 6.9109075,3.9902893 8.0483995,3.5532699 8.4836478,3.3860483 9.2104243,3.161484 9.762798,3.0704175 c 0.580837,-0.095759 1.935543,-0.092737 2.51349,0.00226 0.508545,0.083593 1.027465,0.2495981 1.470931,0.4008547 0.401859,0.1370651 1.106108,0.5024212 1.470931,0.7277732 0.909751,0.5619527 1.81744,1.3960337 2.4944,2.4433814 0.5794,0.8964059 1.020795,2.0380061 1.192921,3.1406268 0.03128,0.200386 0.07844,0.6776036 0.09048,1.0604866 0.0233,0.741099 -0.0561,1.219514 -0.183047,1.838419 -0.09036,0.440544 -0.306011,1.135177 -0.503313,1.563617 -0.361806,0.785646 -0.86927,1.589217 -1.505408,2.24558 -0.653224,0.673987 -1.379304,1.213899 -2.188756,1.639378 -0.707047,0.371632 -1.32517,0.566642 -2.155613,0.755154 -0.367283,0.08338 -0.516183,0.09507 -1.367309,0.107471 -0.809931,0.01179 -1.012086,0.0034 -1.329706,-0.05558 z M 7.5528642,16.098841 C 7.1805091,15.98022 6.8001146,15.72563 6.6133407,15.470011 c -0.070393,-0.09633 -0.1279869,-0.184022 -0.1279869,-0.19486 0,-0.01079 0.1341212,0.03714 0.2980469,0.106593 0.3886211,0.164655 0.6341777,0.236992 0.9618127,0.283314 0.6220106,0.08795 1.2556519,-0.207666 1.4939468,-0.696966 C 9.292729,14.858088 9.3459427,14.676738 9.357413,14.56509 9.4024997,14.126227 9.2053253,13.61953 8.8628276,13.294108 8.6562234,13.097806 8.3586888,12.938645 7.767109,12.707962 7.5838205,12.63649 7.5068009,12.58919 7.5321859,12.563689 c 0.05829,-0.05856 0.6353507,-0.07602 0.8731849,-0.02642 0.3123447,0.06514 0.6401932,0.245033 0.9118585,0.500338 0.1744607,0.163953 0.2780935,0.303145 0.3801617,0.510623 l 0.090155,0.296435 c 0,0 0.074807,0.311687 0.078034,0.470685 0.00336,0.165596 -0.061313,0.4931 -0.061313,0.4931 L 9.697391,15.104877 c -0.2352054,0.478111 -0.6951971,0.848588 -1.2317478,0.992058 -0.2454641,0.06564 -0.7096783,0.06661 -0.912779,0.0019 z M 13.012062,11.010658 C 12.6893,10.920759 12.291675,10.717281 12.075258,10.525041 11.837308,10.313675 11.576056,9.9541975 11.446492,9.6598752 11.204991,9.1112735 11.139473,8.4053933 11.279135,7.8567966 c 0.125826,-0.4942505 0.275041,-0.7497979 0.67407,-1.1544156 0.283748,-0.2877221 0.414049,-0.3895444 0.637559,-0.4982104 0.408329,-0.1985207 0.693648,-0.2039783 1.155631,-0.2008111 0.635435,0.00435 1.207339,0.1331566 1.676399,0.4966387 0.307932,0.2386215 0.527201,0.5130955 0.691061,0.8650516 0.217338,0.4668209 0.27214,0.7551288 0.251697,1.324122 -0.01456,0.4052825 -0.03317,0.5232467 -0.116756,0.7402801 -0.05469,0.1419959 -0.175562,0.3732169 -0.268608,0.5138267 -0.315902,0.4773814 -0.778716,0.8168684 -1.348982,1.0176694 -0.224211,0.07895 -0.358369,0.05187 -0.741911,0.06266 -0.33907,0.0095 -0.728042,0.02859 -0.877233,-0.01295 z m 1.264245,-0.641496 c 0.46678,-0.12723 0.990357,-0.5343235 1.20674,-0.9382689 C 15.681898,9.0596769 15.744793,8.6170657 15.662243,8.1698185 15.641667,8.0583378 15.565315,7.8452092 15.492572,7.6961979 15.258153,7.2160046 14.804412,6.844254 14.260008,6.686357 14.092746,6.6378448 13.948984,6.626305 13.679432,6.6397513 c -0.29565,0.014748 -0.410637,0.039762 -0.657918,0.1431198 -0.241664,0.1010108 -0.346864,0.1731019 -0.54362,0.3725283 -0.406367,0.4118827 -0.472848,0.8115245 -0.473097,1.4138025 -1.5e-4,0.3740134 -0.01482,0.6902839 0.149155,0.9713769 0.117001,0.2005704 0.480765,0.5454082 0.712749,0.6756662 0.19934,0.11193 0.475364,0.206516 0.660476,0.226328 0.196877,0.02107 0.517914,-0.01039 0.74913,-0.07341 z"
     id="path4405" />
</svg>
