<?xml version="1.0" encoding="UTF-8" standalone="no"?>
<svg
   version="1.1"
   width="22"
   height="22"
   id="svg7357"
   sodipodi:docname="system-software-update.svg"
   inkscape:version="1.2.2 (b0a8486541, 2022-12-01)"
   xmlns:inkscape="http://www.inkscape.org/namespaces/inkscape"
   xmlns:sodipodi="http://sodipodi.sourceforge.net/DTD/sodipodi-0.dtd"
   xmlns:xlink="http://www.w3.org/1999/xlink"
   xmlns="http://www.w3.org/2000/svg"
   xmlns:svg="http://www.w3.org/2000/svg"
   xmlns:rdf="http://www.w3.org/1999/02/22-rdf-syntax-ns#"
   xmlns:cc="http://creativecommons.org/ns#"
   xmlns:dc="http://purl.org/dc/elements/1.1/">
  <sodipodi:namedview
     id="namedview21"
     pagecolor="#ffffff"
     bordercolor="#666666"
     borderopacity="1.0"
     inkscape:pageshadow="2"
     inkscape:pageopacity="0.0"
     inkscape:pagecheckerboard="0"
     showgrid="false"
     inkscape:zoom="45.254834"
     inkscape:cx="10.043126"
     inkscape:cy="19.069786"
     inkscape:window-width="1278"
     inkscape:window-height="1005"
     inkscape:window-x="304"
     inkscape:window-y="376"
     inkscape:window-maximized="0"
     inkscape:current-layer="svg7357"
     inkscape:showpageshadow="2"
     inkscape:deskcolor="#d1d1d1" />
  <defs
     id="defs7359">
    <linearGradient
       y2="19.271681"
       x2="61.219437"
       y1="15.833592"
       x1="61.219437"
       gradientTransform="matrix(3.1196537,0,0,3.1196537,-181.98753,-43.757648)"
       gradientUnits="userSpaceOnUse"
       id="linearGradient3293"
       xlink:href="#linearGradient4806" />
    <linearGradient
       id="linearGradient4806">
      <stop
         offset="0"
         style="stop-color:#ffffff;stop-opacity:1"
         id="stop4808" />
      <stop
         offset="0.12499987"
         style="stop-color:#ffffff;stop-opacity:0.23529412"
         id="stop4810" />
      <stop
         offset="0.87499982"
         style="stop-color:#ffffff;stop-opacity:0.15686275"
         id="stop4812" />
      <stop
         offset="1"
         style="stop-color:#ffffff;stop-opacity:0.39215687"
         id="stop4814" />
    </linearGradient>
    <linearGradient
       x1="2065.6956"
       y1="3220.5276"
       x2="2065.6956"
       y2="3244.8506"
       id="linearGradient11527-6-5-3"
       xlink:href="#linearGradient947-2"
       gradientUnits="userSpaceOnUse"
       gradientTransform="matrix(1.038617,0,0,0.77646603,-2133.2133,-2499.0422)" />
    <linearGradient
       id="linearGradient947-2">
      <stop
         offset="0"
         style="stop-color:#64baff;stop-opacity:1"
         id="stop943-7" />
      <stop
         offset="1"
         style="stop-color:#3689e6;stop-opacity:1"
         id="stop945-0" />
    </linearGradient>
  </defs>
  <metadata
     id="metadata7362">
    <rdf:RDF>
      <cc:Work
         rdf:about="">
        <dc:format>image/svg+xml</dc:format>
        <dc:type
           rdf:resource="http://purl.org/dc/dcmitype/StillImage" />
      </cc:Work>
    </rdf:RDF>
  </metadata>
  <path
     style="opacity:0.99;vector-effect:none;fill:url(#linearGradient11527-6-5-3);fill-opacity:1;stroke:none;stroke-width:0.999999;stroke-linecap:butt;stroke-linejoin:miter;stroke-miterlimit:4;stroke-dasharray:none;stroke-dashoffset:0;stroke-opacity:1;marker:none;paint-order:normal"
     d="M 11,1.4999671 8.4556796,4.8560579 4.2831798,4.2831799 4.8560578,8.4556797 1.4999671,11 4.8560578,13.544321 4.2831798,17.716821 8.4556796,17.143942 11,20.500033 l 2.544321,-3.356091 4.172498,0.572879 -0.572877,-4.1725 L 20.500033,11 17.143942,8.4556797 17.716819,4.2831799 13.544321,4.8560579 Z"
     id="path833" />
  <path
     id="path841"
     d="M 11,1.4999671 8.4556796,4.8560579 4.2831798,4.2831799 4.8560578,8.4556797 1.4999671,11 4.8560578,13.544321 4.2831798,17.716821 8.4556796,17.143942 11,20.500033 l 2.544321,-3.356091 4.172498,0.572879 -0.572877,-4.1725 L 20.500033,11 17.143942,8.4556797 17.716819,4.2831799 13.544321,4.8560579 Z"
     style="opacity:0.5;vector-effect:none;fill:none;fill-opacity:1;stroke:#002e99;stroke-width:0.999999;stroke-linecap:round;stroke-linejoin:round;stroke-miterlimit:4;stroke-dasharray:none;stroke-dashoffset:0;stroke-opacity:1;marker:none;paint-order:normal" />
  <path
     d="M 10.999999,3.1657517 9.3764894,5.3077383 A 1.3412951,1.3412951 0 0 1 8.1248153,5.8262143 L 5.4591154,5.4596151 5.8257146,8.125315 A 1.3412951,1.3412951 0 0 1 5.3072386,9.3769891 L 3.165252,11.000499 5.3072386,12.624011 a 1.3412951,1.3412951 0 0 1 0.518476,1.251673 l -0.3665992,2.6657 2.6656999,-0.366599 a 1.3412951,1.3412951 0 0 1 1.2516741,0.518477 l 1.6235096,2.141986 1.623512,-2.141986 a 1.3412951,1.3412951 0 0 1 1.251673,-0.518477 l 2.6657,0.366599 -0.366599,-2.6657 a 1.3412951,1.3412951 0 0 1 0.518477,-1.251673 L 18.834748,11.000499 16.692762,9.3769891 A 1.3412951,1.3412951 0 0 1 16.174285,8.125315 l 0.366599,-2.6656999 -2.6657,0.3665992 a 1.3412951,1.3412951 0 0 1 -1.251673,-0.518476 z"
     id="path841-5"
     style="opacity:0.3;vector-effect:none;fill:none;fill-opacity:1;stroke:url(#linearGradient3293);stroke-width:0.999999;stroke-linecap:round;stroke-linejoin:miter;stroke-miterlimit:4;stroke-dasharray:none;stroke-dashoffset:0;stroke-opacity:1;marker:none;paint-order:normal" />
  <path
     style="opacity:0.05;vector-effect:none;fill:#002e99;fill-opacity:1;stroke:none;stroke-width:1px;stroke-linecap:butt;stroke-linejoin:miter;stroke-miterlimit:4;stroke-dasharray:none;stroke-dashoffset:0;stroke-opacity:1;marker:none;paint-order:normal"
     id="path818-7-6-1"
     d="m 11,18.030971 c -0.477697,0 -0.95406,-0.194596 -1.3027342,-0.554688 a 1.0313531,1.0313531 0 0 1 -0.04297,-0.04687 L 6.6542967,13.923549 a 1.0313531,1.0313531 0 0 1 -0.021484,-0.02539 c -0.4660889,-0.583116 -0.4329484,-1.312346 -0.1875,-1.84375 0.2454484,-0.531404 0.7767579,-1.028523 1.5234375,-1.050782 a 1.0313531,1.0313531 0 0 1 0.03125,0 h 0.96875 v -3.21875 a 1.0313531,1.0313531 0 0 1 0,-0.0098 C 8.9767702,6.938684 9.5725598,6.206396 10.388672,6.02703 A 1.0313531,1.0313531 0 0 1 10.515625,6.0075 c 0.108916,-0.01 0.219207,-0.01 0.328125,0 L 10.75,6.0036 h 0.5 a 1.0313531,1.0313531 0 0 1 0.03906,0 c 0.936535,0.03539 1.706895,0.805504 1.742188,1.742188 a 1.0313531,1.0313531 0 0 1 0,0.03906 v 3.21875 H 14 a 1.0313531,1.0313531 0 0 1 0.03125,0 c 0.746676,0.02226 1.277989,0.519377 1.523438,1.050783 0.245448,0.531404 0.278587,1.260634 -0.1875,1.84375 a 1.0313531,1.0313531 0 0 1 -0.02148,0.02539 l -3,3.505858 a 1.0313531,1.0313531 0 0 1 -0.04297,0.04687 C 11.954079,17.836337 11.477699,18.030971 11,18.030971 Z" />
  <path
     style="opacity:0.15;vector-effect:none;fill:#002e99;fill-opacity:1;stroke:none;stroke-width:1px;stroke-linecap:butt;stroke-linejoin:miter;stroke-miterlimit:4;stroke-dasharray:none;stroke-dashoffset:0;stroke-opacity:1;marker:none;paint-order:normal"
     d="m 11.000001,17 c 0.204456,0 0.408909,-0.08141 0.562851,-0.240387 L 14.56285,13.253067 C 14.909566,12.819296 14.55385,12.05007 14,12.033558 H 12 V 7.784024 C 11.98463,7.376106 11.65745,7.048972 11.249532,7.033556 h -0.499065 c -0.04693,-0.0043 -0.09378,-0.0043 -0.140711,0 -0.353169,0.07762 -0.606287,0.388886 -0.6097562,0.750468 v 4.249534 H 7.9999999 c -0.553846,0.01651 -0.909567,0.785738 -0.562851,1.219509 l 3.0000031,3.506546 C 10.591087,16.918589 10.795548,17 11.000001,17 Z"
     id="path818-7-6" />
  <path
     style="opacity:0.99;vector-effect:none;fill:#fafafa;fill-opacity:1;stroke:none;stroke-width:1;stroke-linecap:butt;stroke-linejoin:miter;stroke-miterlimit:4;stroke-dasharray:none;stroke-dashoffset:0;stroke-opacity:1;marker:none;paint-order:normal"
     d="m 11.000001,16.003 c 0.204456,0 0.408909,-0.08141 0.562851,-0.240386 L 14.56285,12.256067 C 14.909566,11.822296 14.55385,11.053069 14,11.036558 H 12 V 6.7870236 c -0.01537,-0.407918 -0.34255,-0.735052 -0.750468,-0.750468 h -0.499065 c -0.04693,-0.0043 -0.09378,-0.0043 -0.140711,0 -0.353169,0.07762 -0.606287,0.388886 -0.6097562,0.750468 V 11.036558 H 7.9999999 c -0.553846,0.01651 -0.909567,0.785738 -0.562851,1.219509 l 3.0000031,3.506547 C 10.591087,15.92159 10.795548,16.003 11.000001,16.003 Z"
     id="path818-7" />
</svg>
