<?xml version="1.0" encoding="UTF-8" standalone="no"?>
<svg
   xmlns:dc="http://purl.org/dc/elements/1.1/"
   xmlns:cc="http://creativecommons.org/ns#"
   xmlns:rdf="http://www.w3.org/1999/02/22-rdf-syntax-ns#"
   xmlns:svg="http://www.w3.org/2000/svg"
   xmlns="http://www.w3.org/2000/svg"
   xmlns:xlink="http://www.w3.org/1999/xlink"
   id="svg10994"
   height="22"
   width="22"
   version="1.1">
  <defs
     id="defs10996">
    <linearGradient
       id="linearGradient3454-2-5-0-3-4-1">
      <stop
         offset="0"
         style="stop-color:#ffffff;stop-opacity:1"
         id="stop3456-4-9-38-1-8-8" />
      <stop
         offset="0.0097359"
         style="stop-color:#ffffff;stop-opacity:0.23529412"
         id="stop3458-39-80-3-5-5-8" />
      <stop
         offset="0.99001008"
         style="stop-color:#ffffff;stop-opacity:0.15686275"
         id="stop3460-7-0-2-4-2-7" />
      <stop
         offset="1"
         style="stop-color:#ffffff;stop-opacity:0.39215687"
         id="stop3462-0-9-8-7-2-3" />
    </linearGradient>
    <linearGradient
       id="linearGradient6129-963-697-142-998-580-273-5-3">
      <stop
         offset="0"
         style="stop-color:#0a0a0a;stop-opacity:0.498"
         id="stop2661-1-2" />
      <stop
         offset="1"
         style="stop-color:#0a0a0a;stop-opacity:0"
         id="stop2663-85-8" />
    </linearGradient>
    <linearGradient
       id="linearGradient4632-0-6-4-3-4-0">
      <stop
         offset="0"
         style="stop-color:#e9e9e9;stop-opacity:1"
         id="stop4634-4-4-7-7-4-8" />
      <stop
         offset="1"
         style="stop-color:#b4b4b4;stop-opacity:1"
         id="stop4636-3-1-5-1-3-9" />
    </linearGradient>
    <linearGradient
       id="linearGradient4325-0">
      <stop
         offset="0"
         style="stop-color:#ffffff;stop-opacity:1"
         id="stop4327-4" />
      <stop
         offset="0.1106325"
         style="stop-color:#ffffff;stop-opacity:0.23529412"
         id="stop4329-5" />
      <stop
         offset="0.99001008"
         style="stop-color:#ffffff;stop-opacity:0.15686275"
         id="stop4331-6" />
      <stop
         offset="1"
         style="stop-color:#ffffff;stop-opacity:0.39215687"
         id="stop4333-7" />
    </linearGradient>
    <linearGradient
       id="linearGradient4646-7-4-3-5-6">
      <stop
         offset="0"
         style="stop-color:#f9f9f9;stop-opacity:1"
         id="stop4648-8-0-3-6-5" />
      <stop
         offset="1"
         style="stop-color:#d8d8d8;stop-opacity:1"
         id="stop4650-1-7-3-4-8" />
    </linearGradient>
    <linearGradient
       id="linearGradient3104-8-8-97-4-6-11-5-5-0-5">
      <stop
         offset="0"
         style="stop-color:#000000;stop-opacity:0.32173914"
         id="stop3106-5-4-3-5-0-2-1-0-6-6" />
      <stop
         offset="1"
         style="stop-color:#000000;stop-opacity:0.27826086"
         id="stop3108-4-3-7-8-2-0-7-9-1-4" />
    </linearGradient>
    <linearGradient
       gradientTransform="matrix(0.62762637,0,0,0.7245642,1.93677,2.6273729)"
       gradientUnits="userSpaceOnUse"
       xlink:href="#linearGradient3454-2-5-0-3-4-1"
       id="linearGradient3044"
       y2="21.386522"
       x2="27.557428"
       y1="7.162672"
       x1="27.557428" />
    <linearGradient
       gradientTransform="matrix(0.54761895,0,0,0.48299421,-2.14285,-1.2449071)"
       gradientUnits="userSpaceOnUse"
       xlink:href="#linearGradient6129-963-697-142-998-580-273-5-3"
       id="linearGradient3047"
       y2="36.657963"
       x2="22.809399"
       y1="49.629246"
       x1="22.934725" />
    <linearGradient
       gradientTransform="matrix(0.4666607,0,0,0.46428558,-0.19984998,-1.1607071)"
       gradientUnits="userSpaceOnUse"
       xlink:href="#linearGradient4632-0-6-4-3-4-0"
       id="linearGradient3050"
       y2="43.761127"
       x2="35.792694"
       y1="17.118193"
       x1="35.792694" />
    <linearGradient
       gradientTransform="matrix(0.43131243,0,0,0.48638011,0.95356,1.1854129)"
       gradientUnits="userSpaceOnUse"
       xlink:href="#linearGradient4325-0"
       id="linearGradient3053"
       y2="34.143417"
       x2="21.37039"
       y1="4.73244"
       x1="21.37039" />
    <linearGradient
       gradientTransform="matrix(0.49096263,0,0,0.48984879,-25.74252,-1.7127571)"
       gradientUnits="userSpaceOnUse"
       xlink:href="#linearGradient4646-7-4-3-5-6"
       id="linearGradient3056"
       y2="16"
       x2="62.988873"
       y1="13"
       x1="62.988873" />
    <linearGradient
       gradientTransform="matrix(0.40212523,0,0,0.398023,52.31456,-1.7909371)"
       gradientUnits="userSpaceOnUse"
       xlink:href="#linearGradient3104-8-8-97-4-6-11-5-5-0-5"
       id="linearGradient3064"
       y2="3.6336823"
       x2="-51.786404"
       y1="53.514328"
       x1="-51.786404" />
  </defs>
  <metadata
     id="metadata10999">
    <rdf:RDF>
      <cc:Work
         rdf:about="">
        <dc:format>image/svg+xml</dc:format>
        <dc:type
           rdf:resource="http://purl.org/dc/dcmitype/StillImage" />
        <dc:title />
      </cc:Work>
    </rdf:RDF>
  </metadata>
  <path
     style="opacity:0.8;color:#000000;fill:none;stroke:url(#linearGradient3064);stroke-width:1;stroke-linecap:butt;stroke-linejoin:miter;stroke-miterlimit:4;stroke-opacity:1;stroke-dasharray:none;stroke-dashoffset:0;marker:none;visibility:visible;display:inline;overflow:visible;enable-background:accumulate"
     id="rect3186"
     d="m 2,2.4375029 c -0.277,0 -0.5,0.223 -0.5,0.5 l 0,1.5625 -0.5,0 c -0.277,0 -0.5,0.223 -0.5,0.5 l 0,1.76465 21,0 0,-1.76465 c 0,-0.277 -0.223,-0.5 -0.5,-0.5 l -11.5000002,0 0,-1.5625 c 0,-0.277 -0.223,-0.5 -0.5,-0.5 z" />
  <path
     style="color:#000000;fill:url(#linearGradient3056);fill-opacity:1;fill-rule:nonzero;stroke:none;stroke-width:1;marker:none;visibility:visible;display:inline;overflow:visible;enable-background:accumulate"
     id="rect3409-5-2"
     d="m 2,3.0000029 0,2 -1,0 0,3.0000001 20,0 0,-3.0000001 -12.0000002,0 0,-2 z" />
  <path
     style="color:#000000;fill:none;stroke:url(#linearGradient3053);stroke-width:1;stroke-linecap:round;stroke-linejoin:miter;stroke-miterlimit:4;stroke-opacity:1;stroke-dasharray:none;stroke-dashoffset:0;marker:none;visibility:visible;display:inline;overflow:visible;enable-background:accumulate"
     id="rect3409-3"
     d="m 2.5,3.5000029 0,2 -1,0 0,2.33929 19,0 0,-2.33929 -12,0 0,-2 z" />
  <path
     style="color:#000000;fill:url(#linearGradient3050);fill-opacity:1;fill-rule:nonzero;stroke:none;stroke-width:0.99999988;marker:none;visibility:visible;display:inline;overflow:visible;enable-background:accumulate"
     id="path3388-3"
     d="m 0.80922,6.5000029 c -0.50041,0.0575 -0.23314,0.65186 -0.27303,0.98608 0.0581,0.21599 0.43282,11.3518901 0.43282,11.7342701 0,0.33235 0.16413,0.27604 0.58003,0.27604 6.15466,0 12.96052,0 19.11518,0 0.44803,0.0103 0.35334,0.005 0.35334,-0.28128 0.0327,-0.14639 0.46339,-12.2622301 0.47997,-12.4535901 0,-0.2015 0.0421,-0.26152 -0.22081,-0.26152 -6.57255,0 -13.89494,0 -20.4675,0 z" />
  <path
     style="opacity:0.4;fill:url(#linearGradient3047);fill-opacity:1;stroke:none"
     id="path6127-36-9"
     d="m 0.5,6.0000029 21.00001,2e-4 c 0.30338,0 0.49999,0.21522 0.49999,0.4828 L 21.5061,19.534033 c 0.007,0.33856 -0.10002,0.4728 -0.45251,0.4657 l -19.98783,-0.008 c -0.30338,0 -0.6093,-0.19981 -0.6093,-0.46739 L 0,6.4835229 c 0,-0.26757 0.19662,-0.48299 0.5,-0.48299 z" />
  <path
     style="opacity:0.5;color:#000000;fill:none;stroke:url(#linearGradient3044);stroke-width:1.00000012;stroke-linecap:round;stroke-linejoin:miter;stroke-miterlimit:4;stroke-opacity:1;stroke-dasharray:none;stroke-dashoffset:0;marker:none;visibility:visible;display:inline;overflow:visible;enable-background:accumulate"
     id="path3309-8"
     d="m 1.5,7.5000029 0.43982,11.0000001 18.12037,0 L 20.5,7.5000029 z" />
  <path
     style="opacity:0.3;color:#000000;fill:none;stroke:#000000;stroke-width:0.99999988;stroke-linecap:round;stroke-linejoin:round;stroke-miterlimit:4;stroke-opacity:1;stroke-dasharray:none;stroke-dashoffset:0;marker:none;visibility:visible;display:inline;overflow:visible;enable-background:accumulate"
     id="path3388-3-7"
     d="m 0.80922,6.5000029 c -0.50041,0.0575 -0.23314,0.65186 -0.27303,0.98608 0.0581,0.21599 0.43282,11.3518901 0.43282,11.7342701 0,0.33235 0.16413,0.27604 0.58003,0.27604 6.15466,0 12.96052,0 19.11518,0 0.44803,0.0103 0.35334,0.005 0.35334,-0.28128 0.0327,-0.14639 0.46339,-12.2622301 0.47997,-12.4535901 0,-0.2015 0.0421,-0.26152 -0.22081,-0.26152 -6.57255,0 -13.89494,0 -20.4675,0 z" />
  <path
     style="opacity:0.3;color:#000000;fill:#ffffff;fill-opacity:1;fill-rule:nonzero;stroke:none;stroke-width:1.70000005;marker:none;visibility:visible;display:inline;overflow:visible;enable-background:accumulate"
     id="path2998-4-8-1"
     d="m 10.963702,10.000005 -3.8750002,3.875 0.75,0.75 0.625,-0.625 0,3 2.0000002,0 0,-1.5 c 0,-0.277 0.223,-0.5 0.5,-0.5 0.277,0 0.5,0.223 0.5,0.5 l 0,1.5 2.000001,0 0,-3 0.625,0.625 0.75,-0.75 -3.875001,-3.875 z m 1.500001,0.5 0,0.375 1,1 0,-1.375 -1,0 z" />
  <path
     style="color:#000000;fill:#6c6c6c;fill-opacity:0.5521628;fill-rule:nonzero;stroke:none;stroke-width:1.70000005;marker:none;visibility:visible;display:inline;overflow:visible;enable-background:accumulate"
     id="path2998-4-8"
     d="m 10.963702,9.000005 -3.8750002,3.875 0.75,0.75 0.625,-0.625 0,3 2.0000002,0 0,-1.5 c 0,-0.277 0.223,-0.5 0.5,-0.5 0.277,0 0.5,0.223 0.5,0.5 l 0,1.5 2.000001,0 0,-3 0.625,0.625 0.75,-0.75 -3.875001,-3.875 z m 1.500001,0.5 0,0.375 1,1 0,-1.375 -1,0 z" />
</svg>
