<?xml version="1.0" encoding="UTF-8" standalone="no"?>
<svg
   xmlns:dc="http://purl.org/dc/elements/1.1/"
   xmlns:cc="http://creativecommons.org/ns#"
   xmlns:rdf="http://www.w3.org/1999/02/22-rdf-syntax-ns#"
   xmlns:svg="http://www.w3.org/2000/svg"
   xmlns="http://www.w3.org/2000/svg"
   xmlns:xlink="http://www.w3.org/1999/xlink"
   version="1.1"
   width="22"
   height="22"
   id="svg7107">
  <defs
     id="defs7109">
    <linearGradient
       id="linearGradient3924-64">
      <stop
         id="stop3926-3-6"
         style="stop-color:#ffffff;stop-opacity:1"
         offset="0" />
      <stop
         id="stop3928-0"
         style="stop-color:#ffffff;stop-opacity:0.23529412"
         offset="0.06316455" />
      <stop
         id="stop3930-3-59"
         style="stop-color:#ffffff;stop-opacity:0.15686275"
         offset="0.95056331" />
      <stop
         id="stop3932-0"
         style="stop-color:#ffffff;stop-opacity:0.39215687"
         offset="1" />
    </linearGradient>
    <linearGradient
       id="linearGradient2867-449-88-871-390-598-476-591-434-148-57-177-8-3-3-6-4-8-8-8">
      <stop
         id="stop3750-1-0-7-6-6-1-3-9"
         style="stop-color:#ffcd7d;stop-opacity:1"
         offset="0" />
      <stop
         id="stop3752-3-7-4-0-32-8-923-0"
         style="stop-color:#fc8f36;stop-opacity:1"
         offset="0.26238" />
      <stop
         id="stop3754-1-8-5-2-7-6-7-1"
         style="stop-color:#e23a0e;stop-opacity:1"
         offset="0.704952" />
      <stop
         id="stop3756-1-6-2-6-6-1-96-6"
         style="stop-color:#ac441f;stop-opacity:1"
         offset="1" />
    </linearGradient>
    <linearGradient
       id="linearGradient5803-1">
      <stop
         offset="0"
         style="stop-color:#fff5ef;stop-opacity:1"
         id="stop5805-6" />
      <stop
         offset="1"
         style="stop-color:#fef8dd;stop-opacity:1"
         id="stop5807-3" />
    </linearGradient>
    <linearGradient
       xlink:href="#linearGradient3924-64"
       id="linearGradient3110"
       gradientUnits="userSpaceOnUse"
       gradientTransform="matrix(0.45945947,0,0,0.45945947,-0.02577919,-0.02827736)"
       x1="23.99999"
       y1="4.999989"
       x2="23.99999"
       y2="43" />
    <radialGradient
       xlink:href="#linearGradient2867-449-88-871-390-598-476-591-434-148-57-177-8-3-3-6-4-8-8-8"
       id="radialGradient3118"
       gradientUnits="userSpaceOnUse"
       gradientTransform="matrix(0,4.6270127,-5.6804933,0,67.966161,-39.745092)"
       cx="6.7304144"
       cy="9.9571075"
       fx="6.2001843"
       fy="9.9571075"
       r="12.671875" />
    <linearGradient
       xlink:href="#linearGradient5803-1"
       id="linearGradient3126"
       gradientUnits="userSpaceOnUse"
       gradientTransform="matrix(0.35545351,0,0,0.35545351,-46.605896,-0.92867926)"
       x1="167.98311"
       y1="6.8325434"
       x2="167.98311"
       y2="61.692036" />
  </defs>
  <metadata
     id="metadata7112">
    <rdf:RDF>
      <cc:Work
         rdf:about="">
        <dc:format>image/svg+xml</dc:format>
        <dc:type
           rdf:resource="http://purl.org/dc/dcmitype/StillImage" />
        <dc:title />
      </cc:Work>
    </rdf:RDF>
  </metadata>
  <rect
     style="color:#000000;fill:url(#radialGradient3118);fill-opacity:1;fill-rule:nonzero;stroke:none;stroke-width:0.99999994;marker:none;visibility:visible;display:inline;overflow:visible;enable-background:accumulate"
     id="rect5505-21-8"
     y="1.4999981"
     x="1.5"
     ry="1"
     rx="1"
     height="19.000002"
     width="19.000002" />
  <rect
     style="opacity:0.5;fill:none;stroke:url(#linearGradient3110);stroke-width:0.99999988;stroke-linecap:round;stroke-linejoin:round;stroke-miterlimit:4;stroke-opacity:1;stroke-dasharray:none;stroke-dashoffset:0"
     id="rect6741-9"
     y="2.4987459"
     x="2.5012512"
     height="17"
     width="17" />
  <rect
     style="opacity:0.4;color:#000000;fill:none;stroke:#640000;stroke-width:1;stroke-linecap:round;stroke-linejoin:round;stroke-miterlimit:4;stroke-opacity:1;stroke-dasharray:none;stroke-dashoffset:0;marker:none;visibility:visible;display:inline;overflow:visible;enable-background:accumulate"
     id="rect5505-21-8-1"
     y="1.4999981"
     x="1.5"
     ry="1"
     rx="1"
     height="19.000002"
     width="19.000002" />
  <path
     d="m 11.000001,4.9856622 c -3.0203874,0 -5.5564272,2.0770399 -6.2809752,4.8747871 -0.077578,0.2944217 0.1798875,0.6266347 0.4843539,0.6249717 l 1.48431,0 c 0.2068702,-0.002 0.404634,-0.147035 0.46873,-0.343735 0.5514049,-1.5875285 2.0617562,-2.7186299 3.8435813,-2.7186299 1.066803,0 1.994194,0.456695 2.718633,1.1249504 l -1.578056,1.5780555 c -0.291266,0.275984 -0.04167,0.872856 0.359359,0.859337 l 4.499802,0 c 0.262062,0.001 0.500985,-0.237916 0.49998,-0.499978 l 0,-4.4998018 C 17.51324,5.5845942 16.916365,5.3349916 16.640381,5.6262593 L 15.452932,6.8137082 C 14.288686,5.7015232 12.733623,4.9856622 11.000001,4.9856622 z M 4.9533897,12.000092 C 4.7073,12.022392 4.4983315,12.252979 4.5002848,12.500069 l 0,4.499804 c -0.013521,0.401025 0.5833543,0.650628 0.859338,0.35936 l 1.4843098,-1.484311 c 1.1299939,0.966978 2.5525893,1.62493 4.1560684,1.62493 3.02039,0 5.556429,-2.077039 6.280977,-4.874788 0.07758,-0.294422 -0.179888,-0.626635 -0.484354,-0.624972 l -1.48431,0 c -0.20687,0.002 -0.404634,0.147035 -0.46873,0.343735 -0.551404,1.587529 -2.061755,2.718631 -3.843583,2.718631 -0.935279,0 -1.7507331,-0.372399 -2.4373935,-0.90621 l 1.2968194,-1.296819 c 0.2912661,-0.275984 0.04167,-0.872856 -0.359359,-0.859337 l -4.4998051,0 c -0.015612,-7.35e-4 -0.031258,-7.35e-4 -0.046873,0 z"
     id="path4451"
     style="opacity:0.15;color:#000000;fill:#ae2109;fill-opacity:1;fill-rule:nonzero;stroke:none;stroke-width:1;marker:none;visibility:visible;display:inline;overflow:visible;enable-background:accumulate" />
  <path
     d="m 11.000002,5.4999723 c -2.7926561,0 -5.1278201,1.916531 -5.7968751,4.5 l 1.484375,0 c 0.619757,-1.784316 2.317831,-3.0625 4.3125001,-3.0625 1.387271,0 2.631388,0.616947 3.46875,1.59375 l -1.96875,1.9687497 4.5,0 0,-4.4999997 -1.515625,1.515625 c -1.095564,-1.239377 -2.699621,-2.015625 -4.484375,-2.015625 z m -6.0000001,6.9999997 0,4.5 1.765625,-1.765625 c 1.082584,1.089739 2.576235,1.765625 4.2343751,1.765625 2.792657,0 5.12782,-1.916531 5.796875,-4.5 l -1.484375,0 c -0.619756,1.784316 -2.317832,3.0625 -4.3125,3.0625 -1.2588501,0 -2.3926651,-0.519627 -3.2187501,-1.34375 l 1.71875,-1.71875 z"
     id="path4285-6"
     style="opacity:0.3;color:#000000;fill:#ae2109;fill-opacity:1;fill-rule:nonzero;stroke:none;stroke-width:1;marker:none;visibility:visible;display:inline;overflow:visible;enable-background:accumulate" />
  <path
     d="m 11.000002,4.9999723 c -2.7926561,0 -5.1278201,1.916531 -5.7968751,4.5 l 1.484375,0 c 0.619757,-1.784316 2.317831,-3.0625 4.3125001,-3.0625 1.387271,0 2.631388,0.616947 3.46875,1.59375 l -1.96875,1.96875 4.5,0 0,-4.5 -1.515625,1.515625 c -1.095564,-1.239377 -2.699621,-2.015625 -4.484375,-2.015625 z m -6.0000001,6.9999997 0,4.5 1.765625,-1.765625 c 1.082584,1.089739 2.576235,1.765625 4.2343751,1.765625 2.792657,0 5.12782,-1.916531 5.796875,-4.5 l -1.484375,0 c -0.619756,1.784316 -2.317832,3.0625 -4.3125,3.0625 -1.2588501,0 -2.3926651,-0.519628 -3.2187501,-1.34375 l 1.71875,-1.71875 z"
     id="path4285"
     style="color:#000000;fill:url(#linearGradient3126);fill-opacity:1;fill-rule:nonzero;stroke:none;stroke-width:1;marker:none;visibility:visible;display:inline;overflow:visible;enable-background:accumulate" />
</svg>
