<?xml version="1.0" encoding="UTF-8" standalone="no"?>
<svg
   version="1.0"
   width="22"
   height="22"
   id="svg2890"
   sodipodi:docname="ubiquity.svg"
   inkscape:version="1.1.2 (0a00cf5339, 2022-02-04)"
   xmlns:inkscape="http://www.inkscape.org/namespaces/inkscape"
   xmlns:sodipodi="http://sodipodi.sourceforge.net/DTD/sodipodi-0.dtd"
   xmlns:xlink="http://www.w3.org/1999/xlink"
   xmlns="http://www.w3.org/2000/svg"
   xmlns:svg="http://www.w3.org/2000/svg"
   xmlns:rdf="http://www.w3.org/1999/02/22-rdf-syntax-ns#"
   xmlns:cc="http://creativecommons.org/ns#"
   xmlns:dc="http://purl.org/dc/elements/1.1/">
  <sodipodi:namedview
     id="namedview90"
     pagecolor="#ffffff"
     bordercolor="#666666"
     borderopacity="1.0"
     inkscape:pageshadow="2"
     inkscape:pageopacity="0.0"
     inkscape:pagecheckerboard="0"
     showgrid="false"
     inkscape:zoom="11.377991"
     inkscape:cx="2.5927248"
     inkscape:cy="12.831791"
     inkscape:window-width="1317"
     inkscape:window-height="893"
     inkscape:window-x="601"
     inkscape:window-y="108"
     inkscape:window-maximized="0"
     inkscape:current-layer="svg2890" />
  <metadata
     id="metadata38397">
    <rdf:RDF>
      <cc:Work
         rdf:about="">
        <dc:format>image/svg+xml</dc:format>
        <dc:type
           rdf:resource="http://purl.org/dc/dcmitype/StillImage" />
      </cc:Work>
    </rdf:RDF>
  </metadata>
  <defs
     id="defs2892">
    <linearGradient
       id="linearGradient3519">
      <stop
         id="stop3521"
         style="stop-color:#fcd9cd;stop-opacity:1"
         offset="0" />
      <stop
         id="stop3523"
         style="stop-color:#fcd9cd;stop-opacity:0"
         offset="1" />
    </linearGradient>
    <linearGradient
       id="linearGradient3511">
      <stop
         id="stop3513"
         style="stop-color:#ebeec7;stop-opacity:1"
         offset="0" />
      <stop
         id="stop3515"
         style="stop-color:#ebeec7;stop-opacity:0"
         offset="1" />
    </linearGradient>
    <linearGradient
       id="linearGradient3503">
      <stop
         id="stop3505"
         style="stop-color:#c4ebdd;stop-opacity:1"
         offset="0" />
      <stop
         id="stop3507"
         style="stop-color:#c4ebdd;stop-opacity:0"
         offset="1" />
    </linearGradient>
    <linearGradient
       id="linearGradient3495">
      <stop
         id="stop3497"
         style="stop-color:#c1cbe4;stop-opacity:1"
         offset="0" />
      <stop
         id="stop3499"
         style="stop-color:#c1cbe4;stop-opacity:0"
         offset="1" />
    </linearGradient>
    <linearGradient
       id="linearGradient3487">
      <stop
         id="stop3489"
         style="stop-color:#e6cde2;stop-opacity:1"
         offset="0" />
      <stop
         id="stop3491"
         style="stop-color:#e6cde2;stop-opacity:0"
         offset="1" />
    </linearGradient>
    <linearGradient
       id="linearGradient3707-319-631-407-324-3-8">
      <stop
         offset="0"
         style="stop-color:#185f9a;stop-opacity:1"
         id="stop3760-7-3" />
      <stop
         offset="1"
         style="stop-color:#599ec9;stop-opacity:1"
         id="stop3762-8-4" />
    </linearGradient>
    <linearGradient
       id="linearGradient2867-449-88-871-390-598-476-591-434-148-57-177-3-8">
      <stop
         offset="0"
         style="stop-color:#90dbec;stop-opacity:1"
         id="stop3750-8-9" />
      <stop
         offset="0.26238"
         style="stop-color:#55c1ec;stop-opacity:1"
         id="stop3752-3-2" />
      <stop
         offset="0.704952"
         style="stop-color:#3689e6;stop-opacity:1"
         id="stop3754-7-2" />
      <stop
         offset="1"
         style="stop-color:#2b63a0;stop-opacity:1"
         id="stop3756-9-3" />
    </linearGradient>
    <linearGradient
       id="linearGradient4011">
      <stop
         offset="0"
         style="stop-color:#ffffff;stop-opacity:1"
         id="stop4013" />
      <stop
         offset="0.507761"
         style="stop-color:#ffffff;stop-opacity:0.23529412"
         id="stop4015" />
      <stop
         offset="0.83456558"
         style="stop-color:#ffffff;stop-opacity:0.15686275"
         id="stop4017" />
      <stop
         offset="1"
         style="stop-color:#ffffff;stop-opacity:0.39215687"
         id="stop4019" />
    </linearGradient>
    <linearGradient
       id="linearGradient3707-319-631-407-324-3-8-2">
      <stop
         offset="0"
         style="stop-color:#185f9a;stop-opacity:1"
         id="stop3760-7-3-6" />
      <stop
         offset="1"
         style="stop-color:#599ec9;stop-opacity:1"
         id="stop3762-8-4-8" />
    </linearGradient>
    <linearGradient
       xlink:href="#linearGradient3487"
       id="linearGradient3313"
       gradientUnits="userSpaceOnUse"
       spreadMethod="reflect"
       x1="20.580074"
       y1="10.774516"
       x2="24.27351"
       y2="9.8622112" />
    <linearGradient
       xlink:href="#linearGradient3495"
       id="linearGradient3315"
       gradientUnits="userSpaceOnUse"
       spreadMethod="reflect"
       x1="17.494959"
       y1="11.200086"
       x2="21.047453"
       y2="9.7956104" />
    <linearGradient
       xlink:href="#linearGradient3503"
       id="linearGradient3317"
       gradientUnits="userSpaceOnUse"
       spreadMethod="reflect"
       x1="14.084608"
       y1="13.045606"
       x2="16.994024"
       y2="10.732353" />
    <linearGradient
       xlink:href="#linearGradient3511"
       id="linearGradient3319"
       gradientUnits="userSpaceOnUse"
       spreadMethod="reflect"
       x1="12.371647"
       y1="16.188046"
       x2="14.609327"
       y2="13.461712" />
    <linearGradient
       xlink:href="#linearGradient3519"
       id="linearGradient3321"
       gradientUnits="userSpaceOnUse"
       spreadMethod="reflect"
       x1="10.609375"
       y1="17.886322"
       x2="9.7297754"
       y2="20.612656" />
    <radialGradient
       xlink:href="#linearGradient2867-449-88-871-390-598-476-591-434-148-57-177-3-8"
       id="radialGradient3323"
       gradientUnits="userSpaceOnUse"
       gradientTransform="matrix(0,0.77906898,-0.82416206,-1.4353423e-8,42.964014,2.8539399)"
       cx="5.7800279"
       cy="8.4497671"
       fx="5.7800279"
       fy="8.4497671"
       r="19.99999" />
    <linearGradient
       xlink:href="#linearGradient3707-319-631-407-324-3-8"
       id="linearGradient3325"
       gradientUnits="userSpaceOnUse"
       gradientTransform="matrix(0.33336426,0,0,0.33336425,27.999258,6.9992576)"
       x1="24"
       y1="44"
       x2="24"
       y2="3.8990016" />
    <linearGradient
       xlink:href="#linearGradient4011"
       id="linearGradient3327"
       gradientUnits="userSpaceOnUse"
       gradientTransform="matrix(0.29729731,0,0,0.29729731,14.673817,7.4613611)"
       x1="71.204407"
       y1="6.2375584"
       x2="71.204407"
       y2="44.340794" />
    <linearGradient
       xlink:href="#linearGradient3707-319-631-407-324-3-8-2"
       id="linearGradient3329"
       gradientUnits="userSpaceOnUse"
       gradientTransform="translate(28,8.155436)"
       x1="7.8555918"
       y1="15.85593"
       x2="7.8555918"
       y2="-0.12225635" />
    <linearGradient
       x1="22.553417"
       y1="6.6305909"
       x2="22.553417"
       y2="41.943768"
       id="linearGradient4161-4"
       xlink:href="#linearGradient4075"
       gradientUnits="userSpaceOnUse"
       gradientTransform="matrix(0.21462027,0,0,0.39741647,5.2504798,-0.63796629)" />
    <linearGradient
       id="linearGradient4075">
      <stop
         id="stop4077"
         style="stop-color:#ffffff;stop-opacity:1"
         offset="0" />
      <stop
         id="stop4079"
         style="stop-color:#ffffff;stop-opacity:0.23529412"
         offset="0" />
      <stop
         id="stop4081"
         style="stop-color:#ffffff;stop-opacity:0.15686275"
         offset="1" />
      <stop
         id="stop4083"
         style="stop-color:#ffffff;stop-opacity:0.39215687"
         offset="1" />
    </linearGradient>
    <linearGradient
       x1="11.098394"
       y1="5.9702148"
       x2="11.098394"
       y2="45.68882"
       id="linearGradient5466-8-3-0"
       xlink:href="#linearGradient3600-8"
       gradientUnits="userSpaceOnUse"
       gradientTransform="matrix(0.47793243,0,0,0.40252535,2.8306345,-1.4047796)" />
    <linearGradient
       id="linearGradient3600-8">
      <stop
         id="stop3602-2"
         style="stop-color:#f4f4f4;stop-opacity:1"
         offset="0" />
      <stop
         id="stop3604-5"
         style="stop-color:#dbdbdb;stop-opacity:1"
         offset="1" />
    </linearGradient>
    <linearGradient
       y2="-26.979191"
       x2="116.7913"
       y1="-37.80846"
       x1="116.7913"
       gradientTransform="matrix(0.33471938,0,0,0.59667354,-29.328651,2.3563865)"
       gradientUnits="userSpaceOnUse"
       id="linearGradient4604"
       xlink:href="#linearGradient4614" />
    <linearGradient
       id="linearGradient4614">
      <stop
         offset="0"
         style="stop-color:#ffffff;stop-opacity:1"
         id="stop4606" />
      <stop
         offset="0.03140453"
         style="stop-color:#ffffff;stop-opacity:0.23529412"
         id="stop4608" />
      <stop
         offset="0.9812181"
         style="stop-color:#ffffff;stop-opacity:0.15686275"
         id="stop4610" />
      <stop
         offset="1"
         style="stop-color:#ffffff;stop-opacity:0.39215687"
         id="stop4612" />
    </linearGradient>
    <radialGradient
       r="22.627001"
       gradientTransform="matrix(0.26516308,0,0,0.06026566,48.916692,28.466026)"
       cx="23.334999"
       cy="41.636002"
       gradientUnits="userSpaceOnUse"
       id="radialGradient7374">
      <stop
         offset="0"
         id="stop23421" />
      <stop
         offset="1"
         style="stop-opacity:0"
         id="stop23423" />
    </radialGradient>
  </defs>
  <g
     id="g4579"
     transform="translate(-49.104077,-10.339226)">
    <path
       id="path23417"
       style="opacity:0.3;fill:url(#radialGradient7374);fill-rule:evenodd;stroke-width:1"
       d="m 61.104077,30.975341 a 6.0000001,1.3636364 0 1 1 -12,0 6.0000001,1.3636364 0 1 1 12,0 z" />
  </g>
  <rect
     x="1.4999998"
     y="-21.5"
     width="9"
     height="9"
     ry="1"
     rx="1"
     transform="scale(1,-1)"
     style="fill:#e6e6e6;fill-opacity:1;stroke:#000000;stroke-width:1;stroke-opacity:0.302326"
     id="rect3448" />
  <g
     id="g4576"
     style="opacity:0.2;stroke-width:0.999997"
     transform="translate(-6.0000002,-1)">
    <rect
       y="20"
       x="9"
       height="2"
       width="2"
       id="rect4570"
       style="opacity:1;fill:#000000;fill-opacity:1;stroke:none;stroke-width:2;stroke-linecap:round;stroke-linejoin:round;stroke-miterlimit:4;stroke-dasharray:none;stroke-dashoffset:0;stroke-opacity:0.4" />
    <rect
       style="opacity:1;fill:#000000;fill-opacity:1;stroke:none;stroke-width:2;stroke-linecap:round;stroke-linejoin:round;stroke-miterlimit:4;stroke-dasharray:none;stroke-dashoffset:0;stroke-opacity:0.4"
       id="rect4572"
       width="2"
       height="2"
       x="13"
       y="20" />
  </g>
  <rect
     x="2.4944272"
     y="-20.472153"
     width="7"
     height="7"
     transform="scale(1,-1)"
     style="opacity:0.6;fill:none;fill-opacity:1;stroke:url(#linearGradient4604);stroke-width:1;stroke-linecap:round;stroke-linejoin:round;stroke-miterlimit:4;stroke-dasharray:none;stroke-dashoffset:0;stroke-opacity:1;marker:none"
     id="rect3458" />
  <rect
     ry="0.47058824"
     id="rect5391-5-7"
     style="fill:url(#linearGradient5466-8-3-0);fill-opacity:1;stroke:none;stroke-width:0.999926;stroke-linecap:butt;stroke-linejoin:round;stroke-miterlimit:4;stroke-dasharray:none;stroke-dashoffset:0;stroke-opacity:1;marker:none"
     rx="0.5"
     height="16"
     width="10"
     y="1.0000001"
     x="0.99999952" />
  <rect
     ry="0.94444466"
     rx="1"
     y="0.49996099"
     x="0.49996051"
     height="17.000078"
     width="11.000078"
     id="rect901"
     style="opacity:0.3;vector-effect:none;fill:none;fill-opacity:1;stroke:#000000;stroke-width:0.999921;stroke-linecap:butt;stroke-linejoin:round;stroke-miterlimit:4;stroke-dasharray:none;stroke-dashoffset:0;stroke-opacity:1;marker:none" />
  <rect
     y="1.499961"
     x="1.4999998"
     height="15"
     width="9"
     id="rect901-3"
     style="vector-effect:none;fill:none;fill-opacity:1;stroke:url(#linearGradient4161-4);stroke-width:1;stroke-linecap:round;stroke-linejoin:round;stroke-miterlimit:4;stroke-dasharray:none;stroke-dashoffset:0;stroke-opacity:1;marker:none" />
  <path
     d="m 4.8407228,15.425961 c 0,-0.812844 0.270159,-1.023722 0.601081,-1.307524 0.265666,-0.128245 0.308115,-0.215797 0.304622,-0.628246 -0.0038,-0.455788 -0.04748,-0.403723 -0.892257,-1.137052 C 3.5643339,11.233523 3.3908715,10.963529 3.2394258,9.8400312 3.1277126,9.0114062 3.2060696,9.6984202 2.8853867,9.3796832 2.2951365,8.7930346 2.3962616,7.9326767 3.0989188,7.5629073 3.7319229,7.229803 4.4817838,7.5840843 4.7130238,8.3255447 4.8269958,8.6909683 4.5537578,9.3220324 4.1868588,9.5407382 3.8511069,9.7408952 3.7118159,9.407192 3.7885949,10.144999 c 0.04249,0.408357 0.14605,0.373299 0.2301219,0.538935 0.144387,0.284464 1.5583,1.623587 1.712099,1.623587 V 5.9999146 h -0.783763 l 1.06712,-2.5039139 1.11847,2.5041685 h -0.76181 v 4.7546638 c 0.105957,0 1.129458,-1.0236788 1.478993,-1.4983141 0.151025,-0.2050753 0.242676,-0.4962648 0.242676,-0.7710368 0,-0.4144014 0.136657,-0.50154 -0.17942,-0.50154 H 7.5763378 V 6.0421279 H 9.4845545 V 7.9839421 H 9.1758725 C 8.9004443,8.0161921 8.7035843,8.1565775 8.6515893,8.6160753 8.5740393,9.3013354 8.2958478,9.7205022 7.2157418,10.809259 l -0.844915,0.911155 v 2.24934 l 0.249682,0.149014 c 0.169778,0.08196 0.403596,0.346791 0.519598,0.58852 0.412977,0.862221 -0.161626,1.788713 -1.109116,1.788713 -0.686597,-0.02546 -1.190568,-0.377978 -1.190568,-1.069028 z"
     style="opacity:0.3;vector-effect:none;fill:#ffffff;fill-opacity:1;stroke-width:1;stroke-linecap:butt;stroke-linejoin:miter;stroke-miterlimit:4;stroke-dasharray:none;stroke-dashoffset:0;stroke-opacity:1"
     id="path3690-3" />
  <path
     d="m 4.8407228,14.425793 c 0,-0.812844 0.270159,-1.023722 0.601081,-1.307524 0.265666,-0.128245 0.308115,-0.215797 0.304622,-0.628246 -0.0038,-0.455788 -0.04748,-0.403723 -0.892257,-1.137052 C 3.5643339,10.233355 3.3908715,9.9633612 3.2394258,8.8398637 3.1277126,8.0112387 3.2060696,8.6982526 2.8853867,8.3795157 2.2951365,7.7928671 2.3962616,6.9325092 3.0989188,6.5627398 c 0.6330041,-0.3331043 1.382865,0.021177 1.614105,0.7626374 0.113972,0.3654236 -0.159266,0.9964877 -0.526165,1.2151934 -0.3357519,0.200157 -0.4750429,-0.1335461 -0.3982639,0.604262 0.04249,0.4083566 0.14605,0.3732976 0.2301219,0.5389336 0.144387,0.284464 1.5583,1.6235868 1.712099,1.6235868 V 4.9997471 h -0.783763 l 1.06712,-2.5039139 1.11847,2.5041685 h -0.76181 v 4.7546635 c 0.105957,0 1.129458,-1.023678 1.478993,-1.4983138 0.151025,-0.2050753 0.242676,-0.4962648 0.242676,-0.7710368 0,-0.4144014 0.136657,-0.50154 -0.17942,-0.50154 H 7.5763378 V 5.0419604 H 9.4845545 V 6.9837746 H 9.1758725 C 8.9004443,7.0160246 8.7035843,7.15641 8.6515893,7.6159078 8.5740393,8.3011679 8.2958478,8.720335 7.2157418,9.8090912 l -0.844915,0.9111548 v 2.24934 l 0.249682,0.149014 c 0.169778,0.08196 0.403596,0.346791 0.519598,0.58852 0.412977,0.862221 -0.161626,1.788713 -1.109116,1.788713 -0.686597,-0.02546 -1.190568,-0.377978 -1.190568,-1.069028 z"
     style="opacity:0.95;fill:#969696;fill-opacity:1;stroke-width:0.636327"
     id="path3690" />
  <g
     id="g3301"
     transform="translate(-21,0)">
    <g
       transform="matrix(-0.4893625,0,0,-0.4893625,42.7447,21.740214)"
       id="g3297">
      <path
         d="M 15.856928,5.7307748 20.625,16.34375 C 21.660403,15.885186 22.795334,15.625 24,15.625 c 0.03206,0 0.06178,-3.6e-4 0.09375,0 L 24.10801,4.0047512 c -2.94215,-0.070687 -5.543041,0.6572865 -8.251083,1.7260236 l 10e-7,0 z"
         transform="matrix(0.9996011,0.02824295,-0.02824295,0.9996011,0.6924114,-0.6708346)"
         id="path3299"
         style="opacity:0.8;fill:url(#linearGradient3313);fill-opacity:1;fill-rule:nonzero;stroke:none" />
      <path
         d="m 12.121471,7.9060109 6.931026,9.3601041 c 0.913109,-0.669755 1.965938,-1.167064 3.142629,-1.425169 0.03132,-0.0069 0.06026,-0.01359 0.09157,-0.02009 L 19.857174,4.426276 c -2.888973,0.5613244 -5.31953,1.8556038 -7.735703,3.4797349 l 0,0 z"
         id="path3301"
         style="opacity:0.8;fill:url(#linearGradient3315);fill-opacity:1;fill-rule:nonzero;stroke:none" />
      <path
         d="m 8.2523933,11.646535 9.2137237,7.155818 c 0.70865,-0.883264 1.596891,-1.636119 2.666685,-2.18998 0.02847,-0.01474 0.05469,-0.02872 0.08325,-0.0431 L 14.86585,6.2506132 C 12.220599,7.5405321 10.165881,9.452393 8.2523933,11.646535 z"
         id="path3303"
         style="opacity:0.8;fill:url(#linearGradient3317);fill-opacity:1;fill-rule:nonzero;stroke:none" />
      <path
         d="m 5.6328855,16.073974 c 7.1748065,2.242248 7.8502625,7.031463 12.7767855,1.754127 L 10.499985,9.1321388 C 8.2787249,11.062747 6.9132871,13.459349 5.6328855,16.073974 z"
         id="path3305"
         style="opacity:0.8;fill:url(#linearGradient3319);fill-opacity:1;fill-rule:nonzero;stroke:none" />
      <path
         d="M 7.155289,13.193173 C 5.9722117,14.945185 5.2475768,16.829547 4.6301929,18.837116 L 15.96875,21.8125 C 16.184264,21.049497 16.486796,20.297733 16.9375,19.59375 16.95479,19.56675 16.98246,19.52673 17,19.5 L 7.155289,13.193173 z"
         id="path3307"
         style="opacity:0.8;fill:url(#linearGradient3321);fill-opacity:1;fill-rule:nonzero;stroke:none" />
    </g>
    <path
       style="color:#000000;fill:url(#radialGradient3323);fill-opacity:1;fill-rule:nonzero;stroke:url(#linearGradient3325);stroke-width:0.99999994;stroke-linecap:round;stroke-linejoin:round;stroke-miterlimit:4;stroke-opacity:1;stroke-dasharray:none;stroke-dashoffset:0;marker:none;visibility:visible;display:inline;overflow:visible;enable-background:accumulate"
       id="path2555-7"
       d="M 36.000001,8.5 C 32.413525,8.5 29.5,11.413524 29.5,15 c 0,3.586476 2.913525,6.500001 6.500001,6.5 3.586474,0 6.500003,-2.913524 6.499999,-6.5 0,-3.586476 -2.913525,-6.5 -6.499999,-6.5 z" />
    <path
       style="opacity:0.5;color:#000000;fill:none;stroke:url(#linearGradient3327);stroke-width:1;stroke-linecap:round;stroke-linejoin:round;stroke-miterlimit:4;stroke-opacity:1;stroke-dasharray:none;stroke-dashoffset:0;marker:none;visibility:visible;display:inline;overflow:visible;enable-background:accumulate"
       id="path8655-6"
       d="M 41.5,14.999804 C 41.5,18.03747 39.037384,20.5 36.000069,20.5 32.962476,20.5 30.5,18.037441 30.5,14.999804 30.5,11.962282 32.962476,9.5 36.000069,9.5 39.037384,9.5 41.5,11.962282 41.5,14.999804 l 0,0 z" />
    <path
       style="color:#000000;fill:url(#linearGradient3329);fill-opacity:1;fill-rule:nonzero;stroke:none;stroke-width:1;marker:none;visibility:visible;display:inline;overflow:visible;enable-background:accumulate"
       id="rect3005-8"
       d="m 35,12 0,4 -3,0 4,4 4,-4 -3,0 0,-4 z" />
    <path
       style="color:#000000;fill:#ffffff;fill-opacity:1;fill-rule:nonzero;stroke:none;stroke-width:1;marker:none;visibility:visible;display:inline;overflow:visible;enable-background:accumulate"
       id="rect3005"
       d="m 35,11 0,4 -3,0 4,4 4,-4 -3,0 0,-4 z" />
  </g>
</svg>
