<?xml version="1.0" encoding="UTF-8" standalone="no"?>
<svg
   version="1.1"
   width="22"
   height="22"
   id="svg3426"
   sodipodi:docname="utilities-terminal.svg"
   inkscape:version="1.2.2 (b0a8486541, 2022-12-01)"
   xmlns:inkscape="http://www.inkscape.org/namespaces/inkscape"
   xmlns:sodipodi="http://sodipodi.sourceforge.net/DTD/sodipodi-0.dtd"
   xmlns:xlink="http://www.w3.org/1999/xlink"
   xmlns="http://www.w3.org/2000/svg"
   xmlns:svg="http://www.w3.org/2000/svg"
   xmlns:rdf="http://www.w3.org/1999/02/22-rdf-syntax-ns#"
   xmlns:cc="http://creativecommons.org/ns#"
   xmlns:dc="http://purl.org/dc/elements/1.1/">
  <sodipodi:namedview
     id="namedview40"
     pagecolor="#ffffff"
     bordercolor="#000000"
     borderopacity="0.25"
     inkscape:showpageshadow="2"
     inkscape:pageopacity="0.0"
     inkscape:pagecheckerboard="0"
     inkscape:deskcolor="#d1d1d1"
     showgrid="false"
     inkscape:zoom="35.75"
     inkscape:cx="10.111888"
     inkscape:cy="12"
     inkscape:window-width="1920"
     inkscape:window-height="1029"
     inkscape:window-x="0"
     inkscape:window-y="0"
     inkscape:window-maximized="1"
     inkscape:current-layer="svg3426" />
  <defs
     id="defs3428">
    <radialGradient
       cx="4.9929786"
       cy="43.5"
       r="2.5"
       fx="4.9929786"
       fy="43.5"
       id="radialGradient3152"
       xlink:href="#linearGradient3688-166-749"
       gradientUnits="userSpaceOnUse"
       gradientTransform="matrix(2.003784,0,0,1.4,27.98813,-17.4)" />
    <linearGradient
       id="linearGradient3688-166-749">
      <stop
         id="stop2883"
         style="stop-color:#181818;stop-opacity:1"
         offset="0" />
      <stop
         id="stop2885"
         style="stop-color:#181818;stop-opacity:0"
         offset="1" />
    </linearGradient>
    <radialGradient
       cx="4.9929786"
       cy="43.5"
       r="2.5"
       fx="4.9929786"
       fy="43.5"
       id="radialGradient3154"
       xlink:href="#linearGradient3688-464-309"
       gradientUnits="userSpaceOnUse"
       gradientTransform="matrix(2.003784,0,0,1.4,-20.01187,-104.4)" />
    <linearGradient
       id="linearGradient3688-464-309">
      <stop
         id="stop2889"
         style="stop-color:#181818;stop-opacity:1"
         offset="0" />
      <stop
         id="stop2891"
         style="stop-color:#181818;stop-opacity:0"
         offset="1" />
    </linearGradient>
    <linearGradient
       x1="25.058096"
       y1="47.027729"
       x2="25.058096"
       y2="39.999443"
       id="linearGradient3156"
       xlink:href="#linearGradient3702-501-757"
       gradientUnits="userSpaceOnUse" />
    <linearGradient
       id="linearGradient3702-501-757">
      <stop
         id="stop2895"
         style="stop-color:#181818;stop-opacity:0"
         offset="0" />
      <stop
         id="stop2897"
         style="stop-color:#181818;stop-opacity:1"
         offset="0.5" />
      <stop
         id="stop2899"
         style="stop-color:#181818;stop-opacity:0"
         offset="1" />
    </linearGradient>
    <linearGradient
       id="linearGradient3924-64">
      <stop
         id="stop3926-3-6"
         style="stop-color:#ffffff;stop-opacity:1"
         offset="0" />
      <stop
         id="stop3928-0"
         style="stop-color:#ffffff;stop-opacity:0.23529412"
         offset="0" />
      <stop
         id="stop3930-3-59"
         style="stop-color:#ffffff;stop-opacity:0.15686275"
         offset="1" />
      <stop
         id="stop3932-0"
         style="stop-color:#ffffff;stop-opacity:0.39215687"
         offset="1" />
    </linearGradient>
    <linearGradient
       y2="41.414425"
       x2="23.99999"
       y1="6.5908957"
       x1="23.99999"
       gradientTransform="matrix(0.45945947,0,0,0.45945947,-0.0257811,-0.02827539)"
       gradientUnits="userSpaceOnUse"
       id="linearGradient3101"
       xlink:href="#linearGradient3924-64" />
    <linearGradient
       id="linearGradient2867-449-88-871-390-598-476-591-434-148-57-177-8-3-3-6-4-8-8-8-5-7-8">
      <stop
         offset="0"
         style="stop-color:#404648;stop-opacity:1"
         id="stop3750-1-0-7-6-6-1-3-9-3-9-2" />
      <stop
         offset="1"
         style="stop-color:#0c1011;stop-opacity:1"
         id="stop3754-1-8-5-2-7-6-7-1-9-1-0" />
    </linearGradient>
    <radialGradient
       gradientTransform="matrix(0,2.8928881,-3.5515428,0,46.767971,-27.609058)"
       gradientUnits="userSpaceOnUse"
       xlink:href="#linearGradient2867-449-88-871-390-598-476-591-434-148-57-177-8-3-3-6-4-8-8-8-5-7-8"
       id="radialGradient3988-3-3"
       fy="9.9571075"
       fx="6.952919"
       r="12.671875"
       cy="9.9571075"
       cx="6.952919" />
  </defs>
  <metadata
     id="metadata3431">
    <rdf:RDF>
      <cc:Work
         rdf:about="">
        <dc:format>image/svg+xml</dc:format>
        <dc:type
           rdf:resource="http://purl.org/dc/dcmitype/StillImage" />
      </cc:Work>
    </rdf:RDF>
  </metadata>
  <g
     style="display:inline"
     id="g2036"
     transform="matrix(0.55,0,0,0.3333336,-2.2000011,6.333284)">
    <g
       style="opacity:0.4"
       id="g3712"
       transform="matrix(1.052632,0,0,1.285713,-1.263158,-13.42854)">
      <rect
         style="fill:url(#radialGradient3152);fill-opacity:1;stroke:none"
         id="rect2801"
         y="40"
         x="38"
         height="7"
         width="5" />
      <rect
         style="fill:url(#radialGradient3154);fill-opacity:1;stroke:none"
         id="rect3696"
         transform="scale(-1)"
         y="-47"
         x="-10"
         height="7"
         width="5" />
      <rect
         style="fill:url(#linearGradient3156);fill-opacity:1;stroke:none"
         id="rect3700"
         y="40"
         x="10"
         height="7.0000005"
         width="28" />
    </g>
  </g>
  <rect
     style="color:#000000;clip-rule:nonzero;display:inline;overflow:visible;visibility:visible;opacity:0.9;isolation:auto;mix-blend-mode:normal;color-interpolation:sRGB;color-interpolation-filters:linearRGB;solid-color:#000000;solid-opacity:1;fill:url(#radialGradient3988-3-3);fill-opacity:1;fill-rule:nonzero;stroke:none;stroke-width:1;stroke-linecap:butt;stroke-linejoin:miter;stroke-miterlimit:4;stroke-dasharray:none;stroke-dashoffset:0;stroke-opacity:1;marker:none;color-rendering:auto;image-rendering:auto;shape-rendering:auto;text-rendering:auto;enable-background:accumulate"
     id="rect5505-21-6"
     y="1.500001"
     x="1.499999"
     ry="2"
     rx="2"
     height="19"
     width="19" />
  <rect
     width="19.000002"
     height="19.000002"
     rx="2"
     ry="2"
     x="1.4999981"
     y="1.5"
     id="rect5505-21-8-1"
     style="color:#000000;display:inline;overflow:visible;visibility:visible;opacity:0.7;fill:none;stroke:#000000;stroke-width:1;stroke-linecap:round;stroke-linejoin:round;stroke-miterlimit:4;stroke-dasharray:none;stroke-dashoffset:0;stroke-opacity:1;marker:none;enable-background:accumulate" />
  <path
     style="color:#000000;font-style:normal;font-variant:normal;font-weight:bold;font-stretch:normal;font-size:5.92781px;line-height:125%;font-family:'Open Sans';-inkscape-font-specification:'Open Sans Bold';letter-spacing:0px;word-spacing:0px;clip-rule:nonzero;display:inline;overflow:visible;visibility:visible;opacity:0.15;isolation:auto;mix-blend-mode:normal;color-interpolation:sRGB;color-interpolation-filters:linearRGB;solid-color:#000000;solid-opacity:1;fill:#000000;fill-opacity:1;fill-rule:nonzero;stroke:none;stroke-width:1;stroke-linecap:butt;stroke-linejoin:miter;stroke-miterlimit:4;stroke-dasharray:none;stroke-dashoffset:0;stroke-opacity:1;marker:none;color-rendering:auto;image-rendering:auto;shape-rendering:auto;text-rendering:auto;enable-background:accumulate"
     d="m 5,3.999974 a 1.0001,1.0001 0 0 0 -1,1 v 0.3242188 c -0.064049,0.036476 -0.1283164,0.037179 -0.1914062,0.082031 a 1.0001,1.0001 0 0 0 -0.00195,0.00195 C 3.2713,5.7916676 2.9375,6.4672465 2.9375,7.1073959 c 0,0.3418605 0.08177,0.7178308 0.2851562,1.0488281 0.026671,0.043406 0.070357,0.066492 0.099609,0.1074219 -0.2081758,0.19144 -0.4363859,0.4018501 -0.4394531,0.7246093 a 1.0001,1.0001 0 0 0 0,0.00977 v 0.7636721 c -0.00183,0.4795697 0.3385262,0.8741867 0.6875,1.0175777 0,0 0,0.002 0,0.002 0.1440359,0.0593 0.2856558,0.05158 0.4296875,0.08984 v 0.128906 a 1.0001,1.0001 0 0 0 1,1 h 1 a 1.0001,1.0001 0 0 0 1,-1 v -0.322266 c 0.05989,-0.03318 0.1228119,-0.03446 0.1816406,-0.07422 0.5590889,-0.376813 0.9355469,-1.0642097 0.9355469,-1.7382813 0,-0.4797273 -0.1807543,-0.9984925 -0.5253906,-1.375 -0.00504,-0.00553 -0.012517,-0.00627 -0.017578,-0.011719 0.02627,-0.040679 0.075379,-0.043886 0.097656,-0.089844 l 0.3125,-0.6347657 C 8.1227099,6.472324 8.1260377,6.0974452 7.9921875,5.812474 7.8583373,5.5275028 7.6200736,5.3393441 7.3789062,5.2480209 a 1.0001,1.0001 0 0 0 -0.00977,-0.00391 C 7.246421,5.1991258 7.1230007,5.1725415 7,5.1347396 V 4.999974 a 1.0001,1.0001 0 0 0 -1,-1 z m 3.8066406,6.087891 c -0.4395033,0.09247 -0.7839908,0.519633 -0.78125,0.96875 v 1 c 0.00768,0.505097 0.463653,0.961069 0.96875,0.96875 h 4.0000004 c 0.505097,-0.0077 0.961069,-0.463653 0.96875,-0.96875 v -1 c -0.0077,-0.505097 -0.463653,-0.961069 -0.96875,-0.96875 H 8.9941406 c -0.06231,-0.006 -0.1251897,-0.006 -0.1875,0 z"
     id="path4407" />
  <path
     style="color:#000000;font-style:normal;font-variant:normal;font-weight:bold;font-stretch:normal;font-size:14.3117px;line-height:125%;font-family:'Open Sans';-inkscape-font-specification:'Open Sans Bold';letter-spacing:0px;word-spacing:0px;display:inline;overflow:visible;visibility:visible;opacity:0.3;fill:#000000;fill-opacity:1;fill-rule:nonzero;stroke:none;marker:none;enable-background:accumulate"
     d="m 5,4.999974 v 0.9707031 c -0.2336342,0.052246 -0.4430714,0.1303828 -0.6113281,0.25 C 4.0879338,6.4361104 3.9375,6.7408605 3.9375,7.1073959 c 0,0.1954364 0.042925,0.3727478 0.1367188,0.5253906 0.090934,0.1479895 0.2141333,0.2761345 0.3652343,0.3867187 0.1537189,0.1125002 0.3709655,0.2237213 0.6582031,0.3378907 0.2985364,0.1200169 0.4979726,0.2090805 0.5800782,0.2558593 a 0.11763009,0.09944686 0 0 0 0.00195,0 c 0.089016,0.049637 0.1515635,0.1007189 0.1914063,0.1484376 a 0.11763009,0.09944686 0 0 0 0,0.00195 c 0.036898,0.042892 0.056641,0.085462 0.056641,0.1425781 0,0.112511 -0.041122,0.175109 -0.1269532,0.226562 -0.085095,0.05196 -0.2229634,0.08789 -0.421875,0.08789 -0.1659421,0 -0.3540978,-0.02413 -0.5625,-0.07031 C 4.6118789,9.104595 4.3558575,9.023931 4.0488281,8.9081771 a 0.11763009,0.09944686 0 0 0 -0.1660156,0.089844 v 0.7675781 a 0.11763009,0.09944686 0 0 0 0.066406,0.08984 C 4.2617046,9.984601 4.6188863,10.04582 5,10.07224 v 0.927734 h 1 v -0.976562 c 0.2386096,-0.05341 0.4504412,-0.13285 0.6230469,-0.25 C 6.94899,9.553734 7.1171875,9.240471 7.1171875,8.8652084 7.1171875,8.5941727 7.0321015,8.3565922 6.8554688,8.1640365 6.6761201,7.9665251 6.3666946,7.7887088 5.9277344,7.6113021 5.6052142,7.4811265 5.3972221,7.3885636 5.3242188,7.3476302 h -0.00195 C 5.2470869,7.3022879 5.1944793,7.2547663 5.1660156,7.2167709 5.1386266,7.1784459 5.125,7.1369909 5.125,7.0800521 c 0,-0.093141 0.032438,-0.1536838 0.1074219,-0.2089843 0.071447,-0.052691 0.1814592,-0.085937 0.3476562,-0.085938 0.1443288,0 0.2936566,0.016775 0.4453125,0.048828 0.153072,0.031932 0.351817,0.089916 0.59375,0.1738281 A 0.11763009,0.09944686 0 0 0 6.7714844,6.953099 L 7.0859375,6.312474 A 0.11763009,0.09944686 0 0 0 7.0253906,6.1835678 C 6.7834995,6.0948908 6.5493812,6.024003 6.3242188,5.9745834 6.2210111,5.951711 6.107654,5.9534582 6,5.9413802 V 4.999974 Z m 3.9941406,6.056641 v 1 h 4.0000004 v -1 z"
     id="path3864" />
  <path
     d="m 8.9937667,10.056118 v 1 h 4.0000003 v -1 z"
     id="path3866"
     style="color:#000000;font-style:normal;font-variant:normal;font-weight:bold;font-stretch:normal;font-size:14.3117px;line-height:125%;font-family:'Open Sans';-inkscape-font-specification:'Open Sans Bold';letter-spacing:0px;word-spacing:0px;clip-rule:nonzero;display:inline;overflow:visible;visibility:visible;opacity:1;isolation:auto;mix-blend-mode:normal;color-interpolation:sRGB;color-interpolation-filters:linearRGB;solid-color:#000000;solid-opacity:1;fill:#ffffff;fill-opacity:1;fill-rule:nonzero;stroke:none;stroke-width:5;stroke-linecap:butt;stroke-linejoin:miter;stroke-miterlimit:4;stroke-dasharray:none;stroke-dashoffset:0;stroke-opacity:1;marker:none;color-rendering:auto;image-rendering:auto;shape-rendering:auto;text-rendering:auto;enable-background:accumulate" />
  <path
     style="color:#000000;font-style:normal;font-variant:normal;font-weight:bold;font-stretch:normal;font-size:5.92781px;line-height:125%;font-family:'Open Sans';-inkscape-font-specification:'Open Sans Bold';letter-spacing:0px;word-spacing:0px;clip-rule:nonzero;display:inline;overflow:visible;visibility:visible;opacity:1;isolation:auto;mix-blend-mode:normal;color-interpolation:sRGB;color-interpolation-filters:linearRGB;solid-color:#000000;solid-opacity:1;fill:#ffffff;fill-opacity:1;fill-rule:nonzero;stroke:none;stroke-width:5;stroke-linecap:butt;stroke-linejoin:miter;stroke-miterlimit:4;stroke-dasharray:none;stroke-dashoffset:0;stroke-opacity:1;marker:none;color-rendering:auto;image-rendering:auto;shape-rendering:auto;text-rendering:auto;enable-background:accumulate"
     d="m 5,3.999974 v 0.9707031 c -0.2336342,0.052247 -0.4430714,0.1303828 -0.6113281,0.25 C 4.0879338,5.4361104 3.9375,5.7408605 3.9375,6.1073959 c 0,0.1954364 0.042925,0.3727478 0.1367188,0.5253906 0.090934,0.1479895 0.2141333,0.2761344 0.3652343,0.3867187 0.1537189,0.1125002 0.3709655,0.2237213 0.6582031,0.3378907 0.2985364,0.1200169 0.4979726,0.2090805 0.5800782,0.2558593 a 0.11763009,0.09944686 0 0 0 0.00195,0 c 0.089016,0.049637 0.1515636,0.1007189 0.1914063,0.1484376 a 0.11763009,0.09944686 0 0 0 0,0.00195 c 0.036898,0.042892 0.056641,0.085462 0.056641,0.1425781 0,0.112511 -0.041122,0.1751085 -0.1269532,0.2265625 -0.085095,0.051958 -0.2229634,0.087891 -0.421875,0.087891 -0.1659422,0 -0.3540978,-0.024127 -0.5625,-0.070312 C 4.6118761,8.1045932 4.3558575,8.0239308 4.0488281,7.9081771 A 0.11763009,0.09944686 0 0 0 3.8828125,7.9980209 V 8.765599 a 0.11763009,0.09944686 0 0 0 0.066406,0.089844 C 4.2617043,8.9845983 4.6188863,9.04582 5,9.07224 V 9.999974 H 6 V 9.023412 C 6.2386096,8.97 6.4504412,8.8905622 6.6230469,8.7734115 6.94899,8.5537351 7.1171875,8.2404714 7.1171875,7.8652084 7.1171875,7.5941727 7.0321013,7.3565922 6.8554688,7.1640365 6.6761201,6.9665251 6.3666946,6.7887088 5.9277344,6.6113021 5.6052142,6.4811265 5.3972221,6.3885635 5.3242188,6.3476302 h -0.00195 C 5.2470901,6.3022878 5.1944793,6.2547663 5.1660156,6.2167709 5.1386271,6.1784462 5.125,6.1369912 5.125,6.0800521 c 0,-0.093141 0.032438,-0.1536838 0.1074219,-0.2089843 0.071447,-0.052691 0.1814592,-0.085937 0.3476562,-0.085938 0.1443288,0 0.2936566,0.016775 0.4453125,0.048828 0.153072,0.031932 0.351817,0.089916 0.59375,0.1738281 A 0.11763009,0.09944686 0 0 0 6.7714844,5.953099 L 7.0859375,5.312474 A 0.11763009,0.09944686 0 0 0 7.0253906,5.1835678 C 6.7834995,5.0948908 6.5493812,5.024003 6.3242188,4.9745834 6.2210111,4.951711 6.107654,4.9534582 6,4.9413802 V 3.999974 Z"
     id="path4372" />
  <rect
     width="17"
     height="17"
     x="2.5012493"
     y="2.4987478"
     id="rect6741-9-5"
     style="opacity:0.3;fill:none;stroke:url(#linearGradient3101);stroke-width:1;stroke-linecap:round;stroke-linejoin:round;stroke-miterlimit:4;stroke-dasharray:none;stroke-dashoffset:0;stroke-opacity:1"
     rx="1"
     ry="1" />
</svg>
