<?xml version="1.0" encoding="UTF-8" standalone="no"?>
<svg
   version="1.0"
   width="16"
   height="16"
   id="svg3239"
   sodipodi:docname="onboard-symbolic.svg"
   inkscape:version="1.2.2 (b0a8486541, 2022-12-01)"
   xmlns:inkscape="http://www.inkscape.org/namespaces/inkscape"
   xmlns:sodipodi="http://sodipodi.sourceforge.net/DTD/sodipodi-0.dtd"
   xmlns="http://www.w3.org/2000/svg"
   xmlns:svg="http://www.w3.org/2000/svg"
   xmlns:rdf="http://www.w3.org/1999/02/22-rdf-syntax-ns#"
   xmlns:cc="http://creativecommons.org/ns#"
   xmlns:dc="http://purl.org/dc/elements/1.1/">
  <sodipodi:namedview
     id="namedview411"
     pagecolor="#ffffff"
     bordercolor="#000000"
     borderopacity="0.25"
     inkscape:showpageshadow="2"
     inkscape:pageopacity="0.0"
     inkscape:pagecheckerboard="0"
     inkscape:deskcolor="#d1d1d1"
     showgrid="false"
     inkscape:zoom="54.575787"
     inkscape:cx="9.7662357"
     inkscape:cy="12.743747"
     inkscape:window-width="1386"
     inkscape:window-height="1052"
     inkscape:window-x="851"
     inkscape:window-y="117"
     inkscape:window-maximized="0"
     inkscape:current-layer="svg3239" />
  <metadata
     id="metadata13">
    <rdf:RDF>
      <cc:Work
         rdf:about="">
        <dc:format>image/svg+xml</dc:format>
        <dc:type
           rdf:resource="http://purl.org/dc/dcmitype/StillImage" />
      </cc:Work>
    </rdf:RDF>
  </metadata>
  <defs
     id="defs3241" />
  <path
     id="path555"
     style="opacity:1;fill:#555761;fill-opacity:1;stroke:none"
     d="M 8.875,7 C 7.831001,7 7,7.74552 7,8.6875 v 5.625 C 7,15.25448 7.831001,16 8.875,16 h 5.25 C 15.168999,16 16,15.25448 16,14.3125 V 8.6875 C 16,7.74552 15.168999,7 14.125,7 Z m 0.269,1.375 h 1.875 c 0.404294,6e-6 0.757809,0.03516 1.0625,0.09375 0.304683,0.05567 0.576168,0.15235 0.78125,0.28125 0.205073,0.125982 0.334956,0.291998 0.4375,0.5 0.105464,0.205083 0.187495,0.448247 0.1875,0.75 -5e-6,0.181645 -0.04981,0.373051 -0.09375,0.53125 -0.04395,0.158207 -0.102544,0.286137 -0.1875,0.40625 -0.08497,0.120121 -0.189458,0.230472 -0.3125,0.3125 -0.120122,0.0791 -0.248051,0.129886 -0.40625,0.15625 v 0.03125 c 0.161129,0.03516 0.2998,0.08887 0.4375,0.15625 0.14062,0.06446 0.272456,0.164066 0.375,0.28125 0.105464,0.114261 0.191401,0.261721 0.25,0.4375 0.06152,0.175784 0.09374,0.373049 0.09375,0.625 -5e-6,0.29297 -0.05372,0.549806 -0.15625,0.78125 -0.102544,0.228516 -0.244146,0.432618 -0.4375,0.59375 -0.190434,0.158203 -0.443364,0.290039 -0.71875,0.375 -0.272465,0.08496 -0.56055,0.125 -0.90625,0.125 H 9.144 Z M 10.519,9.5 v 1.4375 h 0.6875 c 0.169919,4e-6 0.323239,-0.0332 0.4375,-0.0625 0.114254,-0.03222 0.210934,-0.06347 0.28125,-0.125 0.07031,-0.06152 0.126949,-0.159175 0.15625,-0.25 0.03222,-0.09375 0.03125,-0.189449 0.03125,-0.3125 C 12.112746,9.941411 12.04927,9.761724 11.894,9.65625 11.741653,9.547857 11.477981,9.500005 11.144,9.5 Z m 0,2.5 v 1.6875 h 0.78125 c 0.178708,10e-7 0.34863,-0.02148 0.46875,-0.0625 0.123043,-0.04101 0.208004,-0.111327 0.28125,-0.1875 0.07617,-0.07617 0.12402,-0.17285 0.15625,-0.28125 0.03222,-0.108397 0.0625,-0.211912 0.0625,-0.34375 -4e-6,-0.120115 -0.03028,-0.247068 -0.0625,-0.34375 -0.03223,-0.09961 -0.07715,-0.179685 -0.15625,-0.25 C 11.97407,12.14844 11.863723,12.100589 11.73775,12.0625 11.61177,12.02442 11.456497,12 11.269,12 Z"
     sodipodi:nodetypes="sssssssssccccccccccccccccccsccccccccccccccccccccccsc" />
  <path
     id="path565"
     style="opacity:1;fill:#555761;fill-opacity:1;stroke:none"
     d="M 1.875,0 C 0.831001,0 0,0.74552044 0,1.6875 v 5.625 C 0,8.2544796 0.831001,9 1.875,9 h 5.25 C 8.168999,9 9,8.2544796 9,7.3125 V 1.6875 C 9,0.74552044 8.168999,0 7.125,0 Z M 4.5,1.1875 c 0.4921826,6.5e-6 0.9208949,0.060553 1.28125,0.21875 C 6.1415957,1.5615292 6.4531201,1.8037174 6.6875,2.09375 6.9247985,2.3808641 7.1044864,2.7177792 7.21875,3.125 7.3359311,3.5293002 7.3749937,3.9990282 7.375,4.5 7.3749937,4.9951189 7.3359311,5.4365265 7.21875,5.84375 7.1044864,6.2509772 6.9247985,6.5849626 6.6875,6.875 6.4501904,7.165039 6.1445254,7.4042976 5.78125,7.5625 5.4208949,7.7207027 4.9921826,7.7812499 4.5,7.78125 4.0078106,7.7812499 3.582028,7.7207027 3.21875,7.5625 2.8583975,7.4042976 2.5498028,7.165039 2.3125,6.875 2.0781244,6.5849626 1.8984365,6.2509772 1.78125,5.84375 1.6669918,5.4335968 1.6249995,4.9667986 1.625,4.46875 1.6249995,3.9707079 1.6669918,3.5293003 1.78125,3.125 1.8984365,2.7177792 2.0751947,2.3808641 2.3125,2.09375 2.5498028,1.8066471 2.8583975,1.5615292 3.21875,1.40625 3.582028,1.2480537 4.0048809,1.1875065 4.5,1.1875 Z m 0,1.125 C 4.2451146,2.3125054 4.0312467,2.3691462 3.84375,2.46875 3.6562478,2.5683643 3.4980443,2.7187554 3.375,2.90625 3.2548809,3.0937542 3.1835915,3.3242237 3.125,3.59375 3.0664045,3.8603548 3.0312481,4.1630901 3.03125,4.5 3.0312481,4.8369163 3.0664045,5.1367219 3.125,5.40625 3.1835915,5.672853 3.2548809,5.8750022 3.375,6.0625 3.4980443,6.2470714 3.6591775,6.4003921 3.84375,6.5 4.028317,6.5996103 4.2451146,6.6562511 4.5,6.65625 4.7607379,6.6562511 4.9716762,6.5996103 5.15625,6.5 5.3437453,6.4003921 5.5078083,6.2470714 5.625,6.0625 5.7451123,5.8750022 5.8193314,5.672853 5.875,5.40625 5.9335887,5.1367219 5.9687451,4.8369163 5.96875,4.5 5.9687451,4.1630901 5.9335887,3.8603548 5.875,3.59375 5.8193314,3.3242237 5.7451123,3.0937542 5.625,2.90625 5.5078083,2.7187554 5.3408157,2.5683643 5.15625,2.46875 4.9716762,2.3691462 4.7578082,2.3125054 4.5,2.3125 Z"
     sodipodi:nodetypes="sssssssssccccccccsccccccccccccccccccccccccc" />
  <path
     style="opacity:1;fill:#555761;fill-opacity:1;stroke:none"
     d="m 11.884477,0 h 2.231285 c 1.044,0 1.884477,0.7583453 1.884477,1.7003258 v 2.5995113 c 0,0.9419805 -0.840477,1.7003258 -1.884477,1.7003258 H 11.884477 C 10.840477,6.0001629 10,5.2418176 10,4.2998371 V 1.7003258 C 10,0.7583453 10.840477,0 11.884477,0 Z"
     id="path563"
     sodipodi:nodetypes="sssssssss" />
  <path
     style="opacity:1;fill:#555761;fill-opacity:1;stroke:none"
     d="m 1.884477,10 h 2.231285 c 1.044,0 1.884477,0.758346 1.884477,1.700326 v 2.599512 c 0,0.94198 -0.840477,1.700325 -1.884477,1.700325 H 1.884477 C 0.840477,16.000163 0,15.241818 0,14.299838 V 11.700326 C 0,10.758346 0.840477,10 1.884477,10 Z"
     id="path586"
     sodipodi:nodetypes="sssssssss" />
</svg>
