<?xml version="1.0" encoding="UTF-8" standalone="no"?>
<!-- Created with Inkscape (http://www.inkscape.org/) -->

<svg
   xmlns:dc="http://purl.org/dc/elements/1.1/"
   xmlns:cc="http://creativecommons.org/ns#"
   xmlns:rdf="http://www.w3.org/1999/02/22-rdf-syntax-ns#"
   xmlns:svg="http://www.w3.org/2000/svg"
   xmlns="http://www.w3.org/2000/svg"
   xmlns:xlink="http://www.w3.org/1999/xlink"
   xmlns:sodipodi="http://sodipodi.sourceforge.net/DTD/sodipodi-0.dtd"
   xmlns:inkscape="http://www.inkscape.org/namespaces/inkscape"
   id="svg7384"
   height="16"
   width="16"
   version="1.1"
   inkscape:version="0.48.3.1 r9886"
   sodipodi:docname="preferences-desktop-locale-symbolic.svg">
  <defs
     id="defs11">
    <linearGradient
       x1="6.0052142"
       y1="12.517409"
       x2="14.609042"
       y2="12.517409"
       id="linearGradient4019"
       xlink:href="#linearGradient4120"
       gradientUnits="userSpaceOnUse"
       gradientTransform="matrix(0.69402363,0,0,0.62529439,-18.269916,-8.9867193)"
       spreadMethod="reflect" />
    <linearGradient
       id="linearGradient4120">
      <stop
         id="stop4122"
         style="stop-color:white;stop-opacity:1"
         offset="0" />
      <stop
         id="stop4124"
         style="stop-color:white;stop-opacity:0.23529412"
         offset="1" />
    </linearGradient>
    <linearGradient
       id="linearGradient3707-319-631-407-324-3-8-3-8">
      <stop
         id="stop3760-7-3-6-1"
         style="stop-color:#185f9a;stop-opacity:1;"
         offset="0" />
      <stop
         id="stop3762-8-4-4-0"
         style="stop-color:#599ec9;stop-opacity:1;"
         offset="1" />
    </linearGradient>
    <linearGradient
       id="linearGradient3707-319-631-407-324-3-8-3-8-5">
      <stop
         id="stop3760-7-3-6-1-9"
         style="stop-color:#185f9a;stop-opacity:1;"
         offset="0" />
      <stop
         id="stop3762-8-4-4-0-5"
         style="stop-color:#599ec9;stop-opacity:1;"
         offset="1" />
    </linearGradient>
    <linearGradient
       id="linearGradient3875">
      <stop
         id="stop3877"
         style="stop-color:#ffffff;stop-opacity:1;"
         offset="0" />
      <stop
         offset="0.13099068"
         style="stop-color:#ffffff;stop-opacity:0.23529412;"
         id="stop3879" />
      <stop
         id="stop3881"
         style="stop-color:#ffffff;stop-opacity:0.15686275;"
         offset="0.90155029" />
      <stop
         id="stop3883"
         style="stop-color:#ffffff;stop-opacity:0.39215687;"
         offset="1" />
    </linearGradient>
    <linearGradient
       y2="19.599176"
       x2="28.05953"
       y1="19.599176"
       x1="0.36465192"
       spreadMethod="reflect"
       gradientTransform="matrix(0.4420619,0,0,0.44502114,-2.4036487,-0.3871894)"
       gradientUnits="userSpaceOnUse"
       id="linearGradient4013"
       xlink:href="#linearGradient2867-449-88-871-390-598-476-591-434-148-57-177-3-8"
       inkscape:collect="always" />
    <linearGradient
       id="linearGradient2867-449-88-871-390-598-476-591-434-148-57-177-3-8">
      <stop
         id="stop3750-8-9"
         style="stop-color:#90dbec;stop-opacity:1;"
         offset="0" />
      <stop
         id="stop3752-3-2"
         style="stop-color:#55c1ec;stop-opacity:1;"
         offset="0.26238" />
      <stop
         id="stop3754-7-2"
         style="stop-color:#3689e6;stop-opacity:1;"
         offset="0.704952" />
      <stop
         id="stop3756-9-3"
         style="stop-color:#2b63a0;stop-opacity:1;"
         offset="1" />
    </linearGradient>
    <linearGradient
       y2="30"
       x2="-11"
       y1="30"
       x1="30"
       spreadMethod="reflect"
       gradientTransform="matrix(0.33330061,0,0,0.33324608,0.00138124,0.336953)"
       gradientUnits="userSpaceOnUse"
       id="linearGradient4015"
       xlink:href="#linearGradient3707-319-631-407-324-3-8"
       inkscape:collect="always" />
    <linearGradient
       id="linearGradient3707-319-631-407-324-3-8">
      <stop
         id="stop3760-7-3"
         style="stop-color:#185f9a;stop-opacity:1;"
         offset="0" />
      <stop
         id="stop3762-8-4"
         style="stop-color:#599ec9;stop-opacity:1;"
         offset="1" />
    </linearGradient>
    <linearGradient
       inkscape:collect="always"
       xlink:href="#linearGradient3707-319-631-407-324-3-8-3-8-1"
       id="linearGradient3917-9"
       gradientUnits="userSpaceOnUse"
       gradientTransform="matrix(0.69402363,0,0,0.62529439,-0.168221,0.598027)"
       spreadMethod="reflect"
       x1="14.609042"
       y1="10.208309"
       x2="5.9908566"
       y2="10.208309" />
    <linearGradient
       id="linearGradient3707-319-631-407-324-3-8-3-8-1">
      <stop
         id="stop3760-7-3-6-1-97"
         style="stop-color:#185f9a;stop-opacity:1;"
         offset="0" />
      <stop
         id="stop3762-8-4-4-0-6"
         style="stop-color:#599ec9;stop-opacity:1;"
         offset="1" />
    </linearGradient>
  </defs>
  <sodipodi:namedview
     pagecolor="#ffffff"
     bordercolor="#666666"
     borderopacity="1"
     objecttolerance="10"
     gridtolerance="10"
     guidetolerance="10"
     inkscape:pageopacity="0"
     inkscape:pageshadow="2"
     inkscape:window-width="856"
     inkscape:window-height="661"
     id="namedview9"
     showgrid="false"
     inkscape:zoom="14.75"
     inkscape:cx="4.5525753"
     inkscape:cy="8"
     inkscape:window-x="0"
     inkscape:window-y="24"
     inkscape:window-maximized="0"
     inkscape:current-layer="svg7384" />
  <metadata
     id="metadata90">
    <rdf:RDF>
      <cc:Work
         rdf:about="">
        <dc:format>image/svg+xml</dc:format>
        <dc:type
           rdf:resource="http://purl.org/dc/dcmitype/StillImage" />
        <dc:title>Gnome Symbolic Icon Theme</dc:title>
      </cc:Work>
    </rdf:RDF>
  </metadata>
  <title
     id="title9167">Gnome Symbolic Icon Theme</title>
  <path
     style="font-size:medium;font-style:normal;font-variant:normal;font-weight:normal;font-stretch:normal;text-indent:0;text-align:start;text-decoration:none;line-height:normal;letter-spacing:normal;word-spacing:normal;text-transform:none;direction:ltr;block-progression:tb;writing-mode:lr-tb;text-anchor:start;baseline-shift:baseline;color:#000000;fill:#bebebe;fill-opacity:1;stroke:none;stroke-width:1;marker:none;visibility:visible;display:inline;overflow:visible;enable-background:accumulate;font-family:Sans;-inkscape-font-specification:Sans"
     d="M 5.0625,1.5 C 3.8568919,1.4565135 2.6840227,1.6136204 1.78125,1.84375 1.3298637,1.9588148 0.96020299,2.0850869 0.65625,2.25 0.5042735,2.3324565 0.3695605,2.437371 0.25,2.5625 0.1304395,2.687629 -0.00690224,2.8480815 0,3.09375 l 0,10.1875 0,0.03125 c -0.00705723,0.204862 0.04563156,0.452118 0.21875,0.625 0.18087001,0.180623 0.41098497,0.24032 0.59375,0.25 0.3655301,0.01936 0.7000247,-0.08058 1.125,-0.1875 0.8499506,-0.213831 1.9581934,-0.520683 3.09375,-0.5 1.1672813,0.02126 1.8338354,0.255313 2.59375,0.5 0.7599146,0.244687 1.6014869,0.495972 2.96875,0.5 1.338703,0.0039 2.606113,-0.120434 3.5625,-0.34375 0.478193,-0.111658 0.893787,-0.251508 1.21875,-0.4375 0.162482,-0.093 0.284656,-0.194659 0.40625,-0.34375 0.115959,-0.142182 0.216289,-0.349468 0.21875,-0.5625 1.2e-4,-0.01035 3.07e-4,-0.02083 0,-0.03125 L 16,2.5 c 2.27e-4,-0.00824 1.95e-4,-0.022679 0,-0.03125 -0.0029,-0.1267349 -0.0585,-0.2944725 -0.15625,-0.40625 -0.104358,-0.1193373 -0.213897,-0.1609936 -0.3125,-0.1875 -0.197206,-0.053013 -0.336746,-0.050985 -0.5,-0.03125 -0.326509,0.03947 -0.725415,0.1443115 -1.1875,0.25 C 12.919579,2.305127 11.716544,2.5472864 10.59375,2.5 9.3364719,2.4470496 8.6096295,2.2238385 7.84375,2 7.0778705,1.7761615 6.2719223,1.5436238 5.0625,1.5 z m -0.03125,1 c 1.0969027,0.039565 1.7593467,0.2431509 2.53125,0.46875 0.7719033,0.2255991 1.6439639,0.4741404 3,0.53125 1.297795,0.054657 2.565464,-0.2237523 3.5,-0.4375 C 14.474316,2.9683091 14.77421,2.9108053 15,2.875 l 0,9.875 c -0.0105,0.01287 -0.03379,0.0728 -0.125,0.125 -0.182416,0.104406 -0.516152,0.214115 -0.9375,0.3125 C 13.094804,13.384269 11.86898,13.50375 10.59375,13.5 9.3470929,13.496328 8.6579689,13.273299 7.90625,13.03125 7.1545311,12.789201 6.3567867,12.523573 5.0625,12.5 3.7378856,12.475873 2.5407792,12.824444 1.71875,13.03125 1.3693331,13.119156 1.1388459,13.145282 1,13.15625 L 1,3.21875 C 1.023388,3.1993596 1.0523897,3.1643955 1.125,3.125 1.311064,3.0240489 1.633397,2.9139184 2.03125,2.8125 2.8269561,2.6096632 3.9304471,2.4602939 5.03125,2.5 z"
     id="path4319-4"
     inkscape:connector-curvature="0" />
  <path
     inkscape:connector-curvature="0"
     d="m 7.5082441,4.5141685 c -0.603809,0.082235 -1.174342,0.3442502 -1.621075,0.7185578 -0.41225,0.3420532 -0.698855,0.7985276 -0.873072,1.274568 -0.145733,0.517634 -0.212321,1.0868315 0.02711,1.5905898 0.147392,0.3533484 0.34262,0.6910391 0.60185,0.9887491 0.005,0.1260682 -0.186212,0.1612371 -0.173506,0.2931066 0.190492,-0.1419556 0.540883,-0.078391 0.628959,0.1367835 0.616718,0.418009 1.361062,0.6664637 2.1197264,0.7844947 0.6484498,0.05042 1.337435,-0.0666 1.8925965,-0.3936857 0.570888,-0.327099 0.878452,-0.9127999 0.976979,-1.4998362 0.120961,-0.575751 -0.0066,-1.1722303 -0.274469,-1.6999835 C 10.490732,6.0978692 10.107886,5.476541 9.4866659,5.0735431 8.9384053,4.7067664 8.2482717,4.4482594 7.5558591,4.5088065 l -0.04761,0.0054 z m -3.209859,0.5862138 c -0.509768,0.4222424 -0.624951,1.0925891 -0.759088,1.6804783 -0.07628,0.5341369 -0.0438,1.0774466 0.117524,1.5959693 0.160442,0.5665955 0.46235,1.0942301 0.836758,1.5695834 0.442891,0.4602217 0.94258,0.8906117 1.590498,1.1020927 0.446257,0.196097 0.972527,0.369085 1.467544,0.246198 0.2397051,-0.224392 -0.0283,-0.556464 -0.325324,-0.586213 -0.608241,-0.112837 -1.188425,-0.351657 -1.67957,-0.699685 C 5.0645611,9.6232403 4.6643741,9.1307489 4.4285331,8.5883983 4.2081211,8.0481835 4.1466241,7.4694322 4.2116321,6.8981036 4.2570021,6.4304749 4.4370451,5.9949758 4.6887731,5.5888937 4.7676131,5.4209692 4.7692931,5.1826301 4.5369561,5.119922 4.4687861,5.076115 4.3730091,5.0635 4.2983851,5.100382 z m 3.5134946,0.058618 C 8.421331,5.2083753 9.0306269,5.4166726 9.4384976,5.8429159 9.7229555,6.244428 10.120049,6.5955848 10.240962,7.0739636 9.8722625,6.6831551 9.5035625,6.2923457 9.1348623,5.9015374 9.1999263,6.1685899 9.2649917,6.4356425 9.3300564,6.702695 8.9029744,6.2653519 8.3961046,5.7019101 7.6673236,5.8213719 7.1278171,5.8952239 6.6115171,6.2085837 6.4238321,6.6831586 c -0.03322,0.2969518 -0.3407,0.4505268 -0.60727,0.5666727 0.384608,0.068459 0.545051,0.4184163 0.628959,0.7229964 C 6.3127661,7.8387771 6.2490741,8.0893084 6.2069501,8.1682328 6.1346601,8.2854757 6.0623621,8.4027177 5.9900681,8.5199607 5.6689331,8.062724 5.5254571,7.4945646 5.5996791,6.9567251 5.7301031,6.3732909 6.0826221,5.8233998 6.6407151,5.4911906 6.9789801,5.2778287 7.3920641,5.1271035 7.8118797,5.1590036 z m 3.7737523,0.332187 c -0.400596,0.1852319 -0.211811,0.6588854 -0.06506,0.9379423 0.217961,0.5596196 0.385309,1.1552615 0.305863,1.7520979 -0.03899,0.5057917 -0.189832,1.0146364 -0.479369,1.4525348 -0.336789,0.4058067 -0.703575,0.8371797 -1.236581,1.0358327 -0.5135755,0.288372 -1.1439492,0.180569 -1.6952837,0.340609 -0.1069511,-1.58e-4 -0.014151,0.132602 -0.03942,0.186793 -0.0052,0.238578 0.2636477,0.355434 0.4947965,0.280485 0.6627277,-0.03733 1.3257802,-0.177476 1.8880322,-0.500215 0.602785,-0.375589 1.072888,-0.929583 1.365794,-1.5320894 0.22554,-0.5328469 0.323012,-1.1015371 0.372141,-1.6677575 C 12.525135,7.1924365 12.373566,6.6129935 12.144111,6.0695882 12.02271,5.8557035 11.930198,5.5103171 11.62901,5.4716473 l -0.04338,0.019536 z M 8.0504503,6.4486689 C 8.4613373,6.5589531 8.8255519,6.8855282 8.8312269,7.2889081 8.948258,7.5314515 9.1789501,7.8243919 8.9479937,8.0750651 8.6722524,8.5449107 7.9257565,8.5104069 7.5328091,8.1829837 7.4248021,8.1332832 7.3375331,8.0627868 7.2696741,7.9728277 c 0.251632,0.083787 0.192648,-0.2393924 0.195194,-0.3683338 0,-0.1182203 0,-0.2364414 0,-0.3546626 -0.166276,0 -0.332553,0 -0.49883,0 0.138174,-0.4229177 0.518696,-0.927391 1.0844122,-0.8011586 z m 2.3206417,1.074725 c 0.122763,0.5097927 0.0975,1.1040301 -0.281948,1.5241557 0,-0.2605407 0,-0.5210789 0,-0.7816185 C 9.9734735,8.1486883 9.8578035,8.0314453 9.7421325,7.9142034 9.9083265,7.711444 10.172545,7.6017241 10.349403,7.406151 l 0.02086,0.1127531 8.34e-4,0.00453 z M 7.5733091,8.9107661 c 0.3272744,0.1152235 0.6710404,0.1713766 1.0193472,0.1367835 0.2891768,0.1693501 0.5783528,0.3387011 0.8675295,0.5080527 -0.613986,0.14069 -1.2723258,0.233501 -1.8759807,1.5e-5 -0.38821,-0.1281165 -0.73429,-0.338253 -1.07362,-0.5471487 0.209806,-0.186617 0.597226,-0.3215681 0.869245,-0.1973143 l 0.110156,0.056717 0.08332,0.042892 z"
     id="path5577-5"
     style="font-size:medium;font-style:normal;font-variant:normal;font-weight:normal;font-stretch:normal;text-indent:0;text-align:start;text-decoration:none;line-height:normal;letter-spacing:normal;word-spacing:normal;text-transform:none;direction:ltr;block-progression:tb;writing-mode:lr-tb;text-anchor:start;color:#000000;fill:#bebebe;fill-opacity:1;stroke:none;stroke-width:1;marker:none;visibility:visible;display:inline;overflow:visible;enable-background:accumulate;font-family:Andale Mono;-inkscape-font-specification:Andale Mono" />
</svg>
