<?xml version="1.0" encoding="UTF-8" standalone="no"?>
<!-- Created with Inkscape (http://www.inkscape.org/) -->

<svg
   width="16"
   height="16"
   viewBox="0 0 16 16"
   version="1.1"
   id="svg5"
   inkscape:version="1.2.2 (b0a8486541, 2022-12-01)"
   sodipodi:docname="qbittorrent-symbolic.svg"
   xmlns:inkscape="http://www.inkscape.org/namespaces/inkscape"
   xmlns:sodipodi="http://sodipodi.sourceforge.net/DTD/sodipodi-0.dtd"
   xmlns="http://www.w3.org/2000/svg"
   xmlns:svg="http://www.w3.org/2000/svg">
  <sodipodi:namedview
     id="namedview7"
     pagecolor="#ffffff"
     bordercolor="#666666"
     borderopacity="1.0"
     inkscape:showpageshadow="2"
     inkscape:pageopacity="0.0"
     inkscape:pagecheckerboard="false"
     inkscape:deskcolor="#d1d1d1"
     inkscape:document-units="px"
     showgrid="false"
     showborder="true"
     borderlayer="true"
     shape-rendering="auto"
     inkscape:zoom="13.455444"
     inkscape:cx="-3.7531278"
     inkscape:cy="9.5871978"
     inkscape:window-width="1920"
     inkscape:window-height="1029"
     inkscape:window-x="0"
     inkscape:window-y="0"
     inkscape:window-maximized="1"
     inkscape:current-layer="layer1" />
  <defs
     id="defs2" />
  <g
     inkscape:label="Layer 1"
     inkscape:groupmode="layer"
     id="layer1">
    <path
       id="circle1702"
       style="opacity:1;fill:#666666;fill-opacity:1;stroke-width:1;stroke-linecap:square;stroke-opacity:0.4;stop-color:#000000"
       d="M 8 0.5 A 7.5 7.5 0 0 0 0.5 8 A 7.5 7.5 0 0 0 8 15.5 A 7.5 7.5 0 0 0 15.5 8 A 7.5 7.5 0 0 0 8 0.5 z M 9.5 2.5 C 9.7761418 2.5 10 2.7238582 10 3 L 10 6.2714844 C 10.294777 6.0997661 10.636318 6 11 6 C 12.099346 6 13 6.9006541 13 8 L 13 9 C 13 10.099346 12.099346 11 11 11 C 10.616083 11 10.256728 10.889002 9.9511719 10.699219 C 9.8729246 10.879403 9.6964181 10.997073 9.5 11 C 9.2238582 11 9 10.776142 9 10.5 L 9 9 L 9 8 L 9 3 C 9 2.7238582 9.2238582 2.5 9.5 2.5 z M 5 5 C 5.3839157 5 5.7432733 5.1109986 6.0488281 5.3007812 C 6.1270753 5.1205979 6.3035818 5.0029269 6.5 5 C 6.7761418 5 7 5.2238582 7 5.5 L 7 13 C 7 13.276142 6.7761418 13.5 6.5 13.5 C 6.2238582 13.5 6 13.276142 6 13 L 6 9.7285156 C 5.7052237 9.9002324 5.3636805 10 5 10 C 3.9006541 10 3 9.0993458 3 8 L 3 7 C 3 5.9006541 3.9006541 5 5 5 z M 5 6 C 4.4373543 6 4 6.4373543 4 7 L 4 8 C 4 8.5626457 4.4373543 9 5 9 C 5.5626457 9 6 8.5626457 6 8 L 6 7 C 6 6.4373543 5.5626457 6 5 6 z M 11 7 C 10.437356 7 10 7.4373543 10 8 L 10 9 C 10 9.5626457 10.437356 10 11 10 C 11.562644 10 12 9.5626457 12 9 L 12 8 C 12 7.4373543 11.562644 7 11 7 z " />
  </g>
</svg>
