<?xml version="1.0" encoding="UTF-8" standalone="no"?>
<svg
   width="16"
   height="16"
   id="svg3658"
   version="1.1"
   sodipodi:docname="system-software-install-symbolic.svg"
   inkscape:version="1.2.2 (b0a8486541, 2022-12-01)"
   xmlns:inkscape="http://www.inkscape.org/namespaces/inkscape"
   xmlns:sodipodi="http://sodipodi.sourceforge.net/DTD/sodipodi-0.dtd"
   xmlns="http://www.w3.org/2000/svg"
   xmlns:svg="http://www.w3.org/2000/svg"
   xmlns:rdf="http://www.w3.org/1999/02/22-rdf-syntax-ns#"
   xmlns:cc="http://creativecommons.org/ns#">
  <sodipodi:namedview
     id="namedview56"
     pagecolor="#ffffff"
     bordercolor="#666666"
     borderopacity="1.0"
     inkscape:pageshadow="2"
     inkscape:pageopacity="0.0"
     inkscape:pagecheckerboard="0"
     showgrid="false"
     inkscape:zoom="28.416667"
     inkscape:cx="6.7038122"
     inkscape:cy="5.7008797"
     inkscape:window-width="1317"
     inkscape:window-height="893"
     inkscape:window-x="593"
     inkscape:window-y="122"
     inkscape:window-maximized="0"
     inkscape:current-layer="svg3658"
     width="24px"
     inkscape:showpageshadow="2"
     inkscape:deskcolor="#d1d1d1" />
  <defs
     id="defs3660" />
  <metadata
     id="metadata3663">
    <rdf:RDF>
      <cc:Work
         rdf:about="" />
    </rdf:RDF>
  </metadata>
  <path
     id="rect5505-21"
     style="color:#000000;display:inline;overflow:visible;visibility:visible;fill:#555761;fill-opacity:1;fill-rule:nonzero;stroke:none;stroke-width:0.999997;stroke-linecap:round;stroke-linejoin:round;stroke-miterlimit:4;stroke-dasharray:none;stroke-dashoffset:0;stroke-opacity:0.501961;marker:none;enable-background:accumulate"
     d="M 3,1 C 1.8920011,1 1,1.8920011 1,3 v 10 c 0,1.107999 0.8920011,2 2,2 h 10 c 1.107999,0 2,-0.892001 2,-2 V 3 C 15,1.8920011 14.107999,1 13,1 Z m 3.5,3 h 3 C 9.7769994,4 10,4.2230006 10,4.5 V 8 h 1.082031 c 1.039326,4.067e-4 1.558878,1.0537307 0.824219,1.7871094 L 8.7246094,12.910156 c -0.4557281,0.45443 -0.9934907,0.45443 -1.4492188,0 L 4.09375,9.7871094 C 3.3590911,9.0537307 3.8805959,8.0004067 4.9199219,8 H 6 V 4.5 C 6,4.2230006 6.2230006,4 6.5,4 Z"
     sodipodi:nodetypes="ssssssssssssccccccccss" />
</svg>
