<?xml version="1.0" encoding="UTF-8" standalone="no"?>
<svg
   version="1.0"
   width="22"
   height="22"
   id="svg2"
   sodipodi:docname="edit-find-replace.svg"
   inkscape:version="1.2.2 (b0a8486541, 2022-12-01)"
   xmlns:inkscape="http://www.inkscape.org/namespaces/inkscape"
   xmlns:sodipodi="http://sodipodi.sourceforge.net/DTD/sodipodi-0.dtd"
   xmlns:xlink="http://www.w3.org/1999/xlink"
   xmlns="http://www.w3.org/2000/svg"
   xmlns:svg="http://www.w3.org/2000/svg"
   xmlns:rdf="http://www.w3.org/1999/02/22-rdf-syntax-ns#"
   xmlns:cc="http://creativecommons.org/ns#"
   xmlns:dc="http://purl.org/dc/elements/1.1/">
  <sodipodi:namedview
     id="namedview45"
     pagecolor="#ffffff"
     bordercolor="#666666"
     borderopacity="1.0"
     inkscape:pageshadow="2"
     inkscape:pageopacity="0.0"
     inkscape:pagecheckerboard="0"
     showgrid="false"
     inkscape:snap-center="true"
     inkscape:snap-object-midpoints="true"
     inkscape:zoom="22.922044"
     inkscape:cx="10.601149"
     inkscape:cy="9.6631871"
     inkscape:window-width="1317"
     inkscape:window-height="986"
     inkscape:window-x="117"
     inkscape:window-y="61"
     inkscape:window-maximized="0"
     inkscape:current-layer="svg2"
     inkscape:showpageshadow="2"
     inkscape:deskcolor="#d1d1d1" />
  <metadata
     id="metadata36502">
    <rdf:RDF>
      <cc:Work
         rdf:about="">
        <dc:format>image/svg+xml</dc:format>
        <dc:type
           rdf:resource="http://purl.org/dc/dcmitype/StillImage" />
      </cc:Work>
    </rdf:RDF>
  </metadata>
  <defs
     id="defs4">
    <linearGradient
       inkscape:collect="always"
       id="linearGradient2755">
      <stop
         style="stop-color:#ffffff;stop-opacity:1;"
         offset="0"
         id="stop2751" />
      <stop
         style="stop-color:#ffffff;stop-opacity:0;"
         offset="1"
         id="stop2753" />
    </linearGradient>
    <linearGradient
       inkscape:collect="always"
       id="linearGradient2366">
      <stop
         style="stop-color:#a3907c;stop-opacity:1"
         offset="0"
         id="stop2362" />
      <stop
         style="stop-color:#f9c440;stop-opacity:1"
         offset="1"
         id="stop2364" />
    </linearGradient>
    <linearGradient
       inkscape:collect="always"
       xlink:href="#linearGradient2366"
       id="linearGradient2368"
       x1="14.528689"
       y1="21.986223"
       x2="20.510841"
       y2="16.00407"
       gradientUnits="userSpaceOnUse"
       gradientTransform="translate(-0.5903829,-0.52175511)" />
    <linearGradient
       inkscape:collect="always"
       xlink:href="#linearGradient2755"
       id="linearGradient2757"
       x1="4.8997488"
       y1="1.2380532"
       x2="4.8997488"
       y2="17.306723"
       gradientUnits="userSpaceOnUse"
       gradientTransform="matrix(1.0285714,0,0,1.0285714,0.0059212,0.00704812)" />
    <radialGradient
       inkscape:collect="always"
       xlink:href="#linearGradient1858"
       id="radialGradient4285"
       gradientUnits="userSpaceOnUse"
       gradientTransform="matrix(0.27787338,0,0,0.07578363,-0.24799561,12.332667)"
       cx="40.478836"
       cy="87.978516"
       fx="40.478836"
       fy="87.978516"
       r="39.586376" />
    <linearGradient
       inkscape:collect="always"
       id="linearGradient1858">
      <stop
         style="stop-color:#000000;stop-opacity:1;"
         offset="0"
         id="stop1854" />
      <stop
         style="stop-color:#000000;stop-opacity:0;"
         offset="1"
         id="stop1856" />
    </linearGradient>
    <linearGradient
       spreadMethod="pad"
       gradientTransform="matrix(0.415777,-0.4174938,0.518983,0.5146192,-15.747227,2.6503673)"
       gradientUnits="userSpaceOnUse"
       xlink:href="#linearGradient902"
       id="linearGradient8639-3"
       y2="31.210939"
       x2="23.575972"
       y1="25.356892"
       x1="23.575972" />
    <linearGradient
       id="linearGradient902">
      <stop
         id="stop886"
         style="stop-color:#ad5f00;stop-opacity:1"
         offset="0" />
      <stop
         id="stop888"
         style="stop-color:#ffe16b;stop-opacity:1"
         offset="0.13482948" />
      <stop
         id="stop890"
         style="stop-color:#f9c440;stop-opacity:1"
         offset="0.20224422" />
      <stop
         id="stop892"
         style="stop-color:#fff394;stop-opacity:1"
         offset="0.26965895" />
      <stop
         id="stop894"
         style="stop-color:#f9c440;stop-opacity:1"
         offset="0.44650277" />
      <stop
         id="stop896"
         style="stop-color:#f9c440;stop-opacity:1"
         offset="0.57114136" />
      <stop
         id="stop898"
         style="stop-color:#ffe16b;stop-opacity:1"
         offset="0.72038066" />
      <stop
         id="stop900"
         style="stop-color:#ad5f00;stop-opacity:1"
         offset="1" />
    </linearGradient>
    <linearGradient
       spreadMethod="pad"
       y2="31.210939"
       x2="23.575972"
       y1="25.356892"
       x1="23.575972"
       gradientTransform="matrix(0.4282553,-0.43106531,0.53455872,0.53134798,-16.236606,2.2149977)"
       gradientUnits="userSpaceOnUse"
       id="linearGradient881"
       xlink:href="#linearGradient3155-40-6" />
    <linearGradient
       id="linearGradient3155-40-6">
      <stop
         offset="0"
         style="stop-color:#555761;stop-opacity:1"
         id="stop2541-7" />
      <stop
         offset="0.13482948"
         style="stop-color:#d4d4d4;stop-opacity:1"
         id="stop2543-5" />
      <stop
         offset="0.20224422"
         style="stop-color:#abacae;stop-opacity:1"
         id="stop2545-3" />
      <stop
         offset="0.26965895"
         style="stop-color:#fafafa;stop-opacity:1"
         id="stop2547-5" />
      <stop
         offset="0.44650277"
         style="stop-color:#abacae;stop-opacity:1"
         id="stop2549-6" />
      <stop
         offset="0.57114136"
         style="stop-color:#abacae;stop-opacity:1"
         id="stop2551-2" />
      <stop
         offset="0.72038066"
         style="stop-color:#d4d4d4;stop-opacity:1"
         id="stop2553-9" />
      <stop
         offset="1"
         style="stop-color:#555761;stop-opacity:1"
         id="stop2555-1" />
    </linearGradient>
    <linearGradient
       gradientTransform="matrix(0.4040235,-0.4056919,0.6073752,0.6022679,-17.867764,0.6930272)"
       gradientUnits="userSpaceOnUse"
       xlink:href="#linearGradient3240-279-7"
       id="linearGradient8641-2"
       y2="30.000141"
       x2="30.037716"
       y1="24.989594"
       x1="30.037716" />
    <linearGradient
       id="linearGradient3240-279-7">
      <stop
         offset="0"
         style="stop-color:#555761;stop-opacity:1"
         id="stop2559-0" />
      <stop
         offset="0.5"
         style="stop-color:#abacae;stop-opacity:1"
         id="stop2561-9" />
      <stop
         offset="1"
         style="stop-color:#555761;stop-opacity:1"
         id="stop2563-3" />
    </linearGradient>
    <linearGradient
       gradientTransform="matrix(0.4040235,-0.4056919,0.6073752,0.6022679,-17.983472,0.8092126)"
       gradientUnits="userSpaceOnUse"
       xlink:href="#linearGradient3223-789-0"
       id="linearGradient8643-6"
       y2="30.000141"
       x2="30.037716"
       y1="24.989594"
       x1="30.037716" />
    <linearGradient
       id="linearGradient3223-789-0">
      <stop
         offset="0"
         style="stop-color:#abacae;stop-opacity:1"
         id="stop2567-6" />
      <stop
         offset="0.5"
         style="stop-color:#fafafa;stop-opacity:1"
         id="stop2569-2" />
      <stop
         offset="1"
         style="stop-color:#abacae;stop-opacity:1"
         id="stop2571-6" />
    </linearGradient>
    <linearGradient
       gradientTransform="matrix(0.4040235,-0.4056919,0.6073752,0.6022679,-17.465684,0.2892868)"
       gradientUnits="userSpaceOnUse"
       xlink:href="#linearGradient3240-279-7"
       id="linearGradient8645-1"
       y2="30.000141"
       x2="30.037716"
       y1="24.989594"
       x1="30.037716" />
    <linearGradient
       gradientTransform="matrix(0.4040235,-0.4056919,0.6073752,0.6022679,-17.581392,0.4054707)"
       gradientUnits="userSpaceOnUse"
       xlink:href="#linearGradient3223-789-0"
       id="linearGradient8647-8"
       y2="30.000141"
       x2="30.037716"
       y1="24.989594"
       x1="30.037716" />
    <linearGradient
       gradientTransform="matrix(0.4040235,-0.4056919,0.6073752,0.6022679,-17.061661,-0.1164056)"
       gradientUnits="userSpaceOnUse"
       xlink:href="#linearGradient3240-279-7"
       id="linearGradient8649-7"
       y2="30.000141"
       x2="30.037716"
       y1="24.989594"
       x1="30.037716" />
    <linearGradient
       gradientTransform="matrix(0.4040235,-0.4056919,0.6073752,0.6022679,-17.177369,-2.1969969e-4)"
       gradientUnits="userSpaceOnUse"
       xlink:href="#linearGradient3223-789-0"
       id="linearGradient8651-9"
       y2="30.000141"
       x2="30.037716"
       y1="24.989594"
       x1="30.037716" />
    <linearGradient
       gradientTransform="matrix(0.4040235,-0.4056919,0.6073752,0.602268,-17.636692,0.462492)"
       gradientUnits="userSpaceOnUse"
       xlink:href="#linearGradient3290-678-0"
       id="linearGradient8653-2"
       y2="26.02973"
       x2="9"
       y1="29.056757"
       x1="9" />
    <linearGradient
       id="linearGradient3290-678-0">
      <stop
         offset="0"
         style="stop-color:#fff394;stop-opacity:1"
         id="stop2607-2" />
      <stop
         offset="1"
         style="stop-color:#fafafa;stop-opacity:1"
         id="stop2609-3" />
    </linearGradient>
    <linearGradient
       gradientTransform="matrix(0.3763801,0.03615261,0.03669995,0.374874,-2.2182805,-1.1331002)"
       gradientUnits="userSpaceOnUse"
       xlink:href="#linearGradient3191-577-5"
       id="linearGradient8655-7"
       y2="41.391716"
       x2="9.5220556"
       y1="37.371799"
       x1="5.5178981" />
    <linearGradient
       id="linearGradient3191-577-5">
      <stop
         offset="0"
         style="stop-color:#d48e15;stop-opacity:1"
         id="stop2613-9" />
      <stop
         offset="1"
         style="stop-color:#ad5f00;stop-opacity:1"
         id="stop2615-2" />
    </linearGradient>
  </defs>
  <rect
     style="opacity:0.07;fill:url(#radialGradient4285);fill-opacity:1;stroke:none;stroke-width:0.999987;stroke-opacity:0.5"
     id="rect4283"
     width="22"
     height="6"
     x="0"
     y="16"
     rx="1.2790698"
     ry="1.6666666" />
  <path
     id="path1118"
     style="opacity:1;fill:#8cd5ff;fill-opacity:1;stroke:none;stroke-width:0.5;stroke-linejoin:round;stroke-miterlimit:4;stroke-dasharray:none;stroke-opacity:1;paint-order:stroke markers fill"
     d="m 3.4038072,3.4062563 c -2.5384077,2.5384078 -2.5384078,6.6539807 -2e-7,9.1923887 2.5384079,2.538408 6.653981,2.538408 9.192389,0 2.538407,-2.538409 2.538407,-6.6539807 -1e-6,-9.1923883 -2.538408,-2.53840748 -6.6539801,-2.53840728 -9.1923878,-4e-7 z m 1.3852115,1.813342 C 5.5958233,4.287773 6.7674297,3.7521096 8.000001,3.7515235 c 2.347935,-5.119e-4 4.25144,1.9029928 4.250928,4.2509268 5.12e-4,2.3479357 -1.902993,4.2514407 -4.2509282,4.2509277 C 5.6520667,12.25389 3.7485621,10.350385 3.749074,8.0024506 3.7496695,6.9799353 4.1188917,5.9919111 4.7890187,5.2195983 Z"
     sodipodi:nodetypes="ssssscccccc" />
  <circle
     style="opacity:0.3;fill:#ffffff;fill-opacity:1;stroke:none;stroke-width:0.991994;stroke-linecap:round;stroke-linejoin:round;stroke-opacity:0.498039;paint-order:stroke fill markers"
     id="path18198"
     cx="8.000001"
     cy="8.0024509"
     r="3.5" />
  <path
     style="color:#000000;fill:url(#linearGradient2368);fill-opacity:1;stroke-linejoin:round;-inkscape-stroke:none;paint-order:fill markers stroke"
     d="m 11.777806,12.908508 c -0.188212,0.187683 -0.196705,0.489811 -0.01933,0.687771 l 6.611611,7.530573 c 0.191669,0.213844 0.523662,0.222677 0.726441,0.01933 l 2.05023,-2.050229 c 0.203343,-0.202777 0.194506,-0.534768 -0.01933,-0.726442 l -7.600461,-6.541444 c -0.197961,-0.177369 -0.500088,-0.168876 -0.687773,0.01933 z"
     id="path44716"
     sodipodi:nodetypes="ccccccccc" />
  <path
     style="fill:none;stroke:#a76900;stroke-width:1px;stroke-linecap:butt;stroke-linejoin:round;stroke-opacity:0.5"
     d="m 18.742687,21.500023 2.757336,-2.757336 -8.307287,-7.248834 -1.768485,1.768208 z"
     id="path44171"
     sodipodi:nodetypes="ccccc" />
  <path
     style="opacity:0.6;fill:none;fill-opacity:1;stroke:#ffffff;stroke-width:0.999998px;stroke-linecap:butt;stroke-linejoin:miter;stroke-opacity:1"
     d="m 12.873524,12.596847 7.367575,6.508918"
     id="path5321"
     sodipodi:nodetypes="cc" />
  <circle
     style="opacity:0.5;fill:none;fill-opacity:1;stroke:#002e99;stroke-width:1;stroke-linejoin:round;stroke-miterlimit:4;stroke-dasharray:none;stroke-opacity:1;paint-order:stroke markers fill"
     id="path1558"
     cx="-0.0017312253"
     cy="11.315443"
     r="4.25"
     transform="rotate(-45)" />
  <circle
     style="opacity:0.6;fill:none;fill-opacity:1;stroke:url(#linearGradient2757);stroke-width:1.2;stroke-linejoin:round;stroke-miterlimit:4;stroke-dasharray:none;stroke-opacity:1;paint-order:stroke markers fill"
     id="path2543"
     cx="8"
     cy="7.9999995"
     r="5.3999996" />
  <ellipse
     style="opacity:0.5;fill:none;stroke:#002e99;stroke-width:1;stroke-linejoin:round;stroke-opacity:1;paint-order:stroke markers fill"
     id="path859"
     cx="8"
     cy="7.9999995"
     rx="6.5"
     ry="6.4999995" />
  <g
     id="g8626"
     transform="matrix(0.84791912,0,0,0.84997099,8.7710768,8.1553907)"
     style="stroke-width:1.21475">
    <path
       style="fill:url(#linearGradient8639-3);fill-opacity:1;stroke:none;stroke-width:0.588966;stroke-linecap:butt;stroke-linejoin:round;stroke-miterlimit:4;stroke-dasharray:none;stroke-dashoffset:0;stroke-opacity:1"
       id="rect2383"
       d="m 2.0488085,11.037368 c 0.2865424,-0.207707 1.1479509,0.256388 1.9603385,1.061945 0.8104458,0.803629 1.2601996,1.641331 1.0575577,1.930575 -7.708e-4,0.0011 0.01977,0.01774 0.01898,0.01882 L 15.224149,3.8683779 C 15.481557,3.6099071 15.011041,2.7247557 14.172862,1.893626 13.334685,1.0624962 12.444681,0.59856571 12.187272,0.85703737 Z" />
    <path
       style="opacity:0.6;fill:#f9c440;fill-opacity:1;stroke:none;stroke-width:1.21475"
       id="path3208"
       d="m 2.0488079,11.037368 c 0.286543,-0.207708 1.1479512,0.256388 1.960339,1.061943 0.8104449,0.80363 1.2601992,1.641332 1.0575579,1.930577 -7.714e-4,0.0011 0.01977,0.01774 0.01898,0.01882 l 6.9820302,-7.0108637 0.02525,-0.025356 c 7.9e-4,-0.00108 -0.01975,-0.01772 -0.01898,-0.01882 C 12.276628,6.7044221 11.826873,5.8667226 11.01643,5.0630931 10.204041,4.2575368 9.3426319,3.7934425 9.0560897,4.0011493 l -0.025251,0.025355 z" />
    <path
       d="m 2.0488085,11.037368 c 0.2865424,-0.207707 1.1479509,0.256388 1.9603385,1.061945 0.8104458,0.803629 1.2601996,1.641331 1.0575577,1.930575 -7.708e-4,0.0011 0.01977,0.01774 0.01898,0.01882 L 15.224149,3.8683779 C 15.481557,3.6099071 15.011041,2.7247557 14.172862,1.893626 13.334685,1.0624962 12.444681,0.59856571 12.187272,0.85703737 Z"
       id="path884"
       style="fill:none;fill-opacity:1;stroke:#ad5f00;stroke-width:0.588966;stroke-linecap:butt;stroke-linejoin:round;stroke-miterlimit:4;stroke-dasharray:none;stroke-dashoffset:0;stroke-opacity:1" />
    <path
       id="path877"
       transform="matrix(0.97086248,0,0,0.96851634,0.01628428,0.50510587)"
       d="m 12.664062,0.296875 c -0.05213,0.0107666 -0.09381,0.033047 -0.126953,0.0664063 L 9.3125,3.609375 c 0.2965301,-0.2119541 1.182118,0.2672165 2.017578,1.0976562 0.834766,0.8297532 1.298569,1.6935388 1.089844,1.9921876 -7.93e-4,0.00114 0.02035,0.018416 0.01953,0.019531 l 3.22461,-3.2460936 C 15.929196,3.2057833 15.445366,2.2917411 14.582031,1.4335938 13.826615,0.68271476 13.02895,0.22150867 12.664062,0.296875 Z"
       style="fill:url(#linearGradient881);fill-opacity:1;stroke:#555761;stroke-width:0.607377;stroke-linecap:butt;stroke-linejoin:round;stroke-miterlimit:4;stroke-dasharray:none;stroke-dashoffset:0;stroke-opacity:1" />
    <path
       style="opacity:0.9;fill:#fe9ab8;fill-opacity:1;stroke:#de3e80;stroke-width:0.588966;stroke-linecap:butt;stroke-linejoin:round;stroke-miterlimit:4;stroke-dasharray:none;stroke-dashoffset:0;stroke-opacity:1"
       id="rect3175"
       d="m 10.565423,2.4840909 c 0.286542,-0.2077065 1.147951,0.2563879 1.960338,1.0619443 0.810445,0.8036291 1.260199,1.6413295 1.057557,1.9305744 -7.69e-4,0.0011 0.01977,0.017738 0.01898,0.018821 L 15.154234,3.9383089 C 15.562715,3.5297289 15.124956,2.8454879 14.172862,1.893626 13.360476,1.0880699 12.499066,0.6239749 12.212525,0.83168148 l -0.02525,0.0253559 -1.621849,1.62705352 z" />
    <path
       style="fill:url(#linearGradient8641-2);fill-opacity:1;stroke:none;stroke-width:1.21475"
       id="path3233"
       d="m 9.1785348,3.8767048 c 0.2865413,-0.2077068 1.1479522,0.2563879 1.9603392,1.0619443 0.810445,0.8036291 1.2602,1.6413294 1.057556,1.9305753 -7.71e-4,0.0011 0.01977,0.017736 0.01898,0.01882 l 0.126256,-0.1267795 c 7.9e-4,-0.00108 -0.01975,-0.01772 -0.01898,-0.01882 C 12.525331,6.4531992 12.075576,5.6154986 11.26513,4.8118704 10.452743,4.0063135 9.5913335,3.542219 9.3047918,3.7499256 Z" />
    <path
       style="fill:url(#linearGradient8643-6);fill-opacity:1;stroke:none;stroke-width:1.21475"
       id="path3216"
       d="m 9.0628273,3.9928895 c 0.2865436,-0.2077068 1.1479527,0.2563878 1.9603397,1.061944 0.810444,0.8036294 1.2602,1.6413292 1.057556,1.9305742 -7.71e-4,0.0011 0.01977,0.017738 0.01898,0.018822 L 12.22596,6.8774498 c 7.9e-4,-0.00108 -0.01975,-0.017721 -0.01898,-0.018821 C 12.409623,6.569384 11.95987,5.7316836 11.149423,4.9280545 10.337036,4.1224982 9.4756273,3.6584033 9.1890844,3.8661101 Z" />
    <path
       style="fill:url(#linearGradient8645-1);fill-opacity:1;stroke:none;stroke-width:1.21475"
       id="path3248"
       d="m 9.5806143,3.4729643 c 0.2865426,-0.2077069 1.1479517,0.2563872 1.9603387,1.0619442 0.810446,0.803629 1.2602,1.6413292 1.057558,1.9305747 -7.73e-4,0.0011 0.01977,0.017737 0.01898,0.01882 l 0.126258,-0.1267784 c 7.91e-4,-0.00108 -0.01975,-0.017721 -0.01898,-0.01882 C 12.927411,6.0494594 12.477656,5.2117588 11.66721,4.4081298 10.854824,3.6025731 9.9934151,3.1384786 9.7068717,3.3461854 Z" />
    <path
       style="fill:url(#linearGradient8647-8);fill-opacity:1;stroke:none;stroke-width:1.21475"
       id="path3250"
       d="m 9.4649071,3.5891488 c 0.2865435,-0.207707 1.1479529,0.2563877 1.9603379,1.061944 0.810447,0.8036298 1.260201,1.6413294 1.057558,1.9305748 -7.69e-4,0.0011 0.01977,0.017737 0.01898,0.018821 l 0.126257,-0.12678 c 7.9e-4,-0.00108 -0.01975,-0.01772 -0.01898,-0.01882 C 12.811705,6.1656438 12.361949,5.3279425 11.551504,4.5243147 10.739118,3.718758 9.877708,3.254663 9.5911645,3.46237 Z" />
    <path
       style="fill:url(#linearGradient8649-7);fill-opacity:1;stroke:none;stroke-width:1.21475"
       id="path3256"
       d="M 9.9846388,3.0672723 C 10.27118,2.8595657 11.13259,3.3236601 11.944976,4.1292168 c 0.810446,0.8036288 1.260201,1.641329 1.057558,1.9305741 -7.7e-4,0.0011 0.01977,0.017738 0.01898,0.018821 L 13.14777,5.9518328 c 7.92e-4,-0.00108 -0.01975,-0.017721 -0.01898,-0.018821 C 13.331434,5.6437674 12.881679,4.8060668 12.071233,4.0024374 11.258848,3.1968815 10.397438,2.7327869 10.110895,2.9404937 Z" />
    <path
       style="fill:url(#linearGradient8651-9);fill-opacity:1;stroke:none;stroke-width:1.21475"
       id="path3258"
       d="m 9.8689318,3.1834569 c 0.2865412,-0.2077072 1.1479512,0.2563879 1.9603392,1.0619447 0.810444,0.8036283 1.260198,1.6413291 1.057556,1.9305739 -7.71e-4,0.0011 0.01977,0.017737 0.01898,0.018821 l 0.126258,-0.1267782 c 7.89e-4,-0.00108 -0.01975,-0.017722 -0.01898,-0.018821 C 13.215727,5.7599515 12.765972,4.9222512 11.955527,4.1186224 11.143141,3.313066 10.281731,2.848971 9.9951884,3.0566783 Z" />
    <path
       style="fill:url(#linearGradient8653-2);fill-opacity:1;fill-rule:evenodd;stroke:url(#linearGradient8655-7);stroke-width:0.588966;stroke-linecap:butt;stroke-linejoin:miter;stroke-miterlimit:4;stroke-dasharray:none;stroke-opacity:1"
       id="path3270"
       d="m 0.25980529,15.79419 4.77185621,-1.725488 0.039308,-0.03926 C 5.2736124,13.740202 4.8185731,12.902156 4.0081274,12.098526 3.1957395,11.29297 2.335449,10.831246 2.0489062,11.038953 Z" />
    <path
       style="fill:#333333;fill-opacity:1;fill-rule:evenodd;stroke:#1a1a1a;stroke-width:0.588966;stroke-linecap:butt;stroke-linejoin:miter;stroke-miterlimit:4;stroke-dasharray:none;stroke-opacity:1"
       id="path3281"
       d="M 0.7444326,14.506276 0.25922075,15.788967 1.560593,15.315574 C 1.446907,15.182439 1.3413094,15.047739 1.2062351,14.913801 1.0507282,14.759602 0.89915498,14.633134 0.7444326,14.506276 Z" />
  </g>
</svg>
