<?xml version="1.0" encoding="UTF-8" standalone="no"?>
<svg
   xmlns:dc="http://purl.org/dc/elements/1.1/"
   xmlns:cc="http://creativecommons.org/ns#"
   xmlns:rdf="http://www.w3.org/1999/02/22-rdf-syntax-ns#"
   xmlns:svg="http://www.w3.org/2000/svg"
   xmlns="http://www.w3.org/2000/svg"
   xmlns:xlink="http://www.w3.org/1999/xlink"
   xmlns:sodipodi="http://sodipodi.sourceforge.net/DTD/sodipodi-0.dtd"
   xmlns:inkscape="http://www.inkscape.org/namespaces/inkscape"
   width="22"
   height="22"
   id="svg2"
   version="1.0"
   sodipodi:docname="folder-move.svg"
   inkscape:version="0.92.3 (2405546, 2018-03-11)">
  <sodipodi:namedview
     pagecolor="#ffffff"
     bordercolor="#666666"
     borderopacity="1"
     objecttolerance="10"
     gridtolerance="10"
     guidetolerance="10"
     inkscape:pageopacity="0"
     inkscape:pageshadow="2"
     inkscape:window-width="874"
     inkscape:window-height="728"
     id="namedview37"
     showgrid="false"
     inkscape:zoom="9.8333333"
     inkscape:cx="12"
     inkscape:cy="12"
     inkscape:window-x="538"
     inkscape:window-y="25"
     inkscape:window-maximized="0"
     inkscape:current-layer="svg2" />
  <defs
     id="defs4">
    <linearGradient
       y2="2.0612748"
       x2="-51.786404"
       y1="53.514328"
       x1="-51.786404"
       gradientTransform="matrix(0.31070043,0,0,0.27489387,20.17717,-0.10316268)"
       gradientUnits="userSpaceOnUse"
       id="linearGradient3018"
       xlink:href="#linearGradient3104-8-8-97-4-6-11-5-5-4-4" />
    <linearGradient
       xlink:href="#linearGradient4346"
       id="linearGradient8858"
       gradientUnits="userSpaceOnUse"
       gradientTransform="matrix(0.33333327,0,0,0.32971018,-17.44063,-0.64784268)"
       x1="62.988873"
       y1="11.645091"
       x2="62.988873"
       y2="15.385052" />
    <linearGradient
       id="linearGradient4346">
      <stop
         offset="0"
         style="stop-color:#ffffff;stop-opacity:1"
         id="stop4348" />
      <stop
         offset="1"
         style="stop-color:#d8d8d8;stop-opacity:1"
         id="stop4350" />
    </linearGradient>
    <linearGradient
       id="linearGradient3104-8-8-97-4-6-11-5-5-4-4">
      <stop
         id="stop3106-5-4-3-5-0-2-1-0-7-7"
         style="stop-color:#000000;stop-opacity:0.32173914"
         offset="0" />
      <stop
         id="stop3108-4-3-7-8-2-0-7-9-0-6"
         style="stop-color:#000000;stop-opacity:0.27826086"
         offset="1" />
    </linearGradient>
    <linearGradient
       id="linearGradient4632-0-6-4-4">
      <stop
         id="stop4634-4-4-7-5"
         offset="0"
         style="stop-color:#b4cee1;stop-opacity:1;" />
      <stop
         id="stop4636-3-1-5-4"
         offset="1"
         style="stop-color:#5d9fcd;stop-opacity:1;" />
    </linearGradient>
    <linearGradient
       y2="42.923553"
       x2="84.30883"
       y1="16.110577"
       x1="84.30883"
       gradientTransform="matrix(0.33333327,0,0,0.34148555,-17.08621,-0.60407268)"
       gradientUnits="userSpaceOnUse"
       id="linearGradient10262-3"
       xlink:href="#linearGradient4632-0-6-4-4" />
    <linearGradient
       id="linearGradient6129-963-697-142-998-580-273-44-2-2-2">
      <stop
         offset="0"
         style="stop-color:#0a0a0a;stop-opacity:0.498"
         id="stop2661-01-6-2-4" />
      <stop
         offset="1"
         style="stop-color:#0a0a0a;stop-opacity:0"
         id="stop2663-64-5-5-3" />
    </linearGradient>
    <linearGradient
       y2="35.430561"
       x2="76.041"
       y1="49.372032"
       x1="76.041"
       gradientTransform="matrix(0.38156409,0,0,0.32896952,-18.24159,0.28216731)"
       gradientUnits="userSpaceOnUse"
       id="linearGradient10268-4"
       xlink:href="#linearGradient6129-963-697-142-998-580-273-44-2-2-2" />
    <linearGradient
       id="linearGradient3454-2-5-0-3-8">
      <stop
         id="stop3456-4-9-38-1-9"
         style="stop-color:#ffffff;stop-opacity:1"
         offset="0" />
      <stop
         id="stop3458-39-80-3-5-6"
         style="stop-color:#ffffff;stop-opacity:0.23529412"
         offset="0.0097359" />
      <stop
         id="stop3460-7-0-2-4-4"
         style="stop-color:#ffffff;stop-opacity:0.15686275"
         offset="0.99001008" />
      <stop
         id="stop3462-0-9-8-7-8"
         style="stop-color:#ffffff;stop-opacity:0.39215687"
         offset="1" />
    </linearGradient>
    <linearGradient
       y2="8.1721792"
       x2="11.350123"
       y1="0.66696572"
       x1="11.350123"
       gradientTransform="matrix(0.89189031,0,0,0.94046961,3.14398,5.346537)"
       gradientUnits="userSpaceOnUse"
       id="linearGradient10270-0"
       xlink:href="#linearGradient3454-2-5-0-3-8" />
    <linearGradient
       x1="-162.6788"
       y1="58.56691"
       x2="-162.6788"
       y2="80.030975"
       id="linearGradient5954"
       xlink:href="#linearGradient4632-0-6-4-4-4"
       gradientUnits="userSpaceOnUse"
       gradientTransform="matrix(0.50413225,0,0,0.49333391,93.640247,-24.864023)" />
    <linearGradient
       id="linearGradient4632-0-6-4-4-4">
      <stop
         id="stop4634-4-4-7-4"
         style="stop-color:#efdfc4;stop-opacity:1"
         offset="0" />
      <stop
         id="stop4636-3-1-5-9"
         style="stop-color:#e7c591;stop-opacity:1"
         offset="1" />
    </linearGradient>
    <linearGradient
       inkscape:collect="always"
       xlink:href="#linearGradient4346"
       id="linearGradient4580"
       gradientUnits="userSpaceOnUse"
       gradientTransform="matrix(0.33333327,0,0,0.32971018,-17.44063,-0.64784268)"
       x1="62.988873"
       y1="11.645091"
       x2="62.988873"
       y2="15.385052" />
    <linearGradient
       inkscape:collect="always"
       xlink:href="#linearGradient3454-2-5-0-3-8"
       id="linearGradient4582"
       gradientUnits="userSpaceOnUse"
       gradientTransform="matrix(0.89189031,0,0,0.94046961,3.14398,5.346537)"
       x1="11.350123"
       y1="0.66696572"
       x2="11.350123"
       y2="8.1721792" />
  </defs>
  <metadata
     id="metadata7">
    <rdf:RDF>
      <cc:Work
         rdf:about="">
        <dc:format>image/svg+xml</dc:format>
        <dc:type
           rdf:resource="http://purl.org/dc/dcmitype/StillImage" />
        <dc:title></dc:title>
      </cc:Work>
    </rdf:RDF>
  </metadata>
  <path
     inkscape:connector-curvature="0"
     style="opacity:0.3;fill:#ffffff;fill-opacity:1;stroke:none"
     d="M 1.1328043,3.1370482 C 0.95226492,3.3543278 1.0081808,3.6685409 1.0081808,4 v 2 c 0,0.554 0.223,1 0.5,1 0.277,0 0.5,-0.446 0.5,-1 V 4 h 1.25 c 0.4155,0 0.75,-0.223 0.75,-0.5 0,-0.277 -0.3345,-0.5 -0.75,-0.5 h -1.5 C 1.5604878,3.0172294 1.3133438,2.9197686 1.1328043,3.1370482 Z M 6.7581808,3 c -0.4155,0 -0.75,0.223 -0.75,0.5 0,0.277 0.3345,0.5 0.75,0.5 h 1.5 c 0.4155,0 0.75,-0.223 0.75,-0.5 0,-0.277 -0.3345,-0.5 -0.75,-0.5 z m 5.0000002,0 c -0.4155,0 -0.75,0.223 -0.75,0.5 0,0.277 0.3345,0.5 0.75,0.5 h 1.5 c 0.4155,0 0.75,-0.223 0.75,-0.5 0,-0.277 -0.3345,-0.5 -0.75,-0.5 z m 4.75,0 c -0.277,0 -0.5,0.223 -0.5,0.5 0,0.277 0.223,0.5 0.5,0.5 h 0.5 v 1.25 c 0,0.4155 0.223,0.75 0.5,0.75 0.277,0 0.5,-0.3345 0.5,-0.75 -0.0033,-0.5741535 0,-1.2026168 0,-1.75 0,-0.277 -0.223,-0.5 -0.5,-0.5 z m 1,5 c -0.277,0 -0.5,1 -0.5,1 h 1 c 0,0 -0.223,-1 -0.5,-1 z M 1.5081808,9 c -0.277,0 -0.5,0.3345 -0.5,0.75 v 1.5 c 0,0.4155 0.223,0.75 0.5,0.75 0.277,0 0.5,-0.3345 0.5,-0.75 v -1.5 c 0,-0.4155 -0.223,-0.75 -0.5,-0.75 z m 16.0000002,4 c -0.277,0 -0.5,0.446 -0.5,1 v 2 h -1.25 c -0.4155,0 -0.75,0.223 -0.75,0.5 0,0.277 0.3345,0.5 0.75,0.5 h 1.5 c 0.08107,0 0.145728,-0.01553 0.21875,-0.03125 0.01356,0.0022 0.0174,0.03125 0.03125,0.03125 0.06925,0 0.127641,-0.04328 0.1875,-0.09375 0.186084,-0.09082 0.3125,-0.24005 0.3125,-0.40625 0,-0.04501 -0.01467,-0.08357 -0.03125,-0.125 0.02523,-0.119719 0.03125,-0.2365 0.03125,-0.375 v -2 c 0,-0.554 -0.223,-1 -0.5,-1 z M 1.5081808,14 c -0.277,0 -0.5,0.3345 -0.5,0.75 0.00331,0.574154 0,1.202617 0,1.75 0,0.277 0.223,0.5 0.5,0.5 h 1 c 0.277,0 0.5,-0.223 0.5,-0.5 0,-0.277 -0.223,-0.5 -0.5,-0.5 h -0.5 v -1.25 c 0,-0.4155 -0.223,-0.75 -0.5,-0.75 z m 5.25,2 c -0.4155,0 -0.75,0.223 -0.75,0.5 0,0.277 0.3345,0.5 0.75,0.5 h 0.5 c 0.4155,0 0.75,-0.223 0.75,-0.5 0,-0.277 -0.3345,-0.5 -0.75,-0.5 z m 4.0000002,0 c -0.4155,0 -0.75,0.223 -0.75,0.5 0,0.277 0.3345,0.5 0.75,0.5 h 1.5 c 0.4155,0 0.75,-0.223 0.75,-0.5 0,-0.277 -0.3345,-0.5 -0.75,-0.5 z"
     id="path3841" />
  <path
     inkscape:connector-curvature="0"
     id="rect4043"
     d="M 1.1328043,2.1370482 C 0.95226492,2.3543278 1.0081808,2.6685409 1.0081808,3 v 2 c 0,0.554 0.223,1 0.5,1 0.277,0 0.5,-0.446 0.5,-1 V 3 h 1.25 c 0.4155,0 0.75,-0.223 0.75,-0.5 0,-0.277 -0.3345,-0.5 -0.75,-0.5 h -1.5 C 1.5604878,2.0172294 1.3133438,1.9197686 1.1328043,2.1370482 Z M 6.7581808,2 c -0.4155,0 -0.75,0.223 -0.75,0.5 0,0.277 0.3345,0.5 0.75,0.5 h 1.5 c 0.4155,0 0.75,-0.223 0.75,-0.5 0,-0.277 -0.3345,-0.5 -0.75,-0.5 z m 5.0000002,0 c -0.4155,0 -0.75,0.223 -0.75,0.5 0,0.277 0.3345,0.5 0.75,0.5 h 1.5 c 0.4155,0 0.75,-0.223 0.75,-0.5 0,-0.277 -0.3345,-0.5 -0.75,-0.5 z m 4.75,0 c -0.277,0 -0.5,0.223 -0.5,0.5 0,0.277 0.223,0.5 0.5,0.5 h 0.5 v 1.25 c 0,0.4155 0.223,0.75 0.5,0.75 0.277,0 0.5,-0.3345 0.5,-0.75 -0.0033,-0.5741535 0,-1.2026168 0,-1.75 0,-0.277 -0.223,-0.5 -0.5,-0.5 z m 1,5 c -0.277,0 -0.5,1 -0.5,1 h 1 c 0,0 -0.223,-1 -0.5,-1 z M 1.5081808,8 c -0.277,0 -0.5,0.3345 -0.5,0.75 v 1.5 c 0,0.4155 0.223,0.75 0.5,0.75 0.277,0 0.5,-0.3345 0.5,-0.75 v -1.5 c 0,-0.4155 -0.223,-0.75 -0.5,-0.75 z m 16.0000002,4 c -0.277,0 -0.5,0.446 -0.5,1 v 2 h -1.25 c -0.4155,0 -0.75,0.223 -0.75,0.5 0,0.277 0.3345,0.5 0.75,0.5 h 1.5 c 0.08107,0 0.145728,-0.01553 0.21875,-0.03125 0.01356,0.0022 0.0174,0.03125 0.03125,0.03125 0.06925,0 0.127641,-0.04328 0.1875,-0.09375 0.186084,-0.09082 0.3125,-0.24005 0.3125,-0.40625 0,-0.04501 -0.01467,-0.08357 -0.03125,-0.125 0.02523,-0.119719 0.03125,-0.2365 0.03125,-0.375 v -2 c 0,-0.554 -0.223,-1 -0.5,-1 z M 1.5081808,13 c -0.277,0 -0.5,0.3345 -0.5,0.75 0.00331,0.574154 0,1.202617 0,1.75 0,0.277 0.223,0.5 0.5,0.5 h 1 c 0.277,0 0.5,-0.223 0.5,-0.5 0,-0.277 -0.223,-0.5 -0.5,-0.5 h -0.5 v -1.25 c 0,-0.4155 -0.223,-0.75 -0.5,-0.75 z m 5.25,2 c -0.4155,0 -0.75,0.223 -0.75,0.5 0,0.277 0.3345,0.5 0.75,0.5 h 0.5 c 0.4155,0 0.75,-0.223 0.75,-0.5 0,-0.277 -0.3345,-0.5 -0.75,-0.5 z m 4.0000002,0 c -0.4155,0 -0.75,0.223 -0.75,0.5 0,0.277 0.3345,0.5 0.75,0.5 h 1.5 c 0.4155,0 0.75,-0.223 0.75,-0.5 0,-0.277 -0.3345,-0.5 -0.75,-0.5 z"
     style="opacity:0.5;fill:#000000;fill-opacity:1;stroke:none" />
  <g
     id="g875"
     transform="translate(5.0081808,6)">
    <path
       style="color:#000000;display:inline;overflow:visible;visibility:visible;opacity:0.5;vector-effect:none;fill:none;fill-opacity:1;stroke:#7e8087;stroke-width:1;stroke-linecap:square;stroke-linejoin:miter;stroke-miterlimit:4;stroke-dasharray:none;stroke-dashoffset:0;stroke-opacity:1;marker:none;enable-background:accumulate"
       id="rect4170-6"
       d="M 15.5,3.9996665 V 2.7263335 C 15.5,2.5878335 15.41182,2.5 15.27332,2.5 H 8.5 V 1.757917 C 8.5,1.619417 8.41182,1.5 8.27332,1.5 h -6.5 C 1.63482,1.5 1.5,1.619417 1.5,1.757917 V 2.5 H 0.773 C 0.6345,2.5 0.5,2.588167 0.5,2.726667 V 4"
       inkscape:connector-curvature="0" />
    <path
       style="color:#000000;display:inline;overflow:visible;visibility:visible;fill:url(#linearGradient4580);fill-opacity:1;fill-rule:nonzero;stroke:none;stroke-width:0.99992168;marker:none;enable-background:accumulate"
       id="rect4170-0-2"
       d="M 2,2 V 3 H 1 V 7 H 15 V 3 H 8 V 2 Z"
       inkscape:connector-curvature="0" />
    <path
       style="color:#000000;display:inline;overflow:visible;visibility:visible;opacity:1;vector-effect:none;fill:url(#linearGradient5954);fill-opacity:1;stroke:#987124;stroke-width:1;stroke-linecap:butt;stroke-linejoin:round;stroke-miterlimit:4;stroke-dasharray:none;stroke-dashoffset:0;stroke-opacity:0.49803922;marker:none;enable-background:accumulate"
       id="rect3086-0-9"
       d="m 0.5,4.5 h 15 v 10 h -15 z"
       inkscape:connector-curvature="0" />
    <path
       style="color:#000000;display:inline;overflow:visible;visibility:visible;opacity:0.5;fill:none;stroke:url(#linearGradient4582);stroke-width:1;stroke-linecap:round;stroke-linejoin:miter;stroke-miterlimit:4;stroke-dasharray:none;stroke-dashoffset:0;stroke-opacity:1;marker:none;enable-background:accumulate"
       id="rect3086-9-1"
       d="m 1.5,5.5 h 13 v 8 h -13 z"
       inkscape:connector-curvature="0" />
  </g>
</svg>
