<?xml version="1.0" encoding="UTF-8" standalone="no"?>
<svg
   version="1.2"
   width="22"
   height="22"
   id="svg2"
   sodipodi:docname="process-stop.svg"
   inkscape:version="1.2.2 (b0a8486541, 2022-12-01)"
   xmlns:inkscape="http://www.inkscape.org/namespaces/inkscape"
   xmlns:sodipodi="http://sodipodi.sourceforge.net/DTD/sodipodi-0.dtd"
   xmlns:xlink="http://www.w3.org/1999/xlink"
   xmlns="http://www.w3.org/2000/svg"
   xmlns:svg="http://www.w3.org/2000/svg"
   xmlns:rdf="http://www.w3.org/1999/02/22-rdf-syntax-ns#"
   xmlns:cc="http://creativecommons.org/ns#"
   xmlns:dc="http://purl.org/dc/elements/1.1/">
  <sodipodi:namedview
     id="namedview21529"
     pagecolor="#ffffff"
     bordercolor="#000000"
     borderopacity="0.25"
     inkscape:showpageshadow="2"
     inkscape:pageopacity="0.0"
     inkscape:pagecheckerboard="0"
     inkscape:deskcolor="#d1d1d1"
     showgrid="false"
     inkscape:zoom="33.5"
     inkscape:cx="10.029851"
     inkscape:cy="11.955224"
     inkscape:window-width="1920"
     inkscape:window-height="1020"
     inkscape:window-x="0"
     inkscape:window-y="0"
     inkscape:window-maximized="1"
     inkscape:current-layer="svg2" />
  <defs
     id="defs4">
    <linearGradient
       id="linearGradient947">
      <stop
         offset="0"
         style="stop-color:#ed5353;stop-opacity:1"
         id="stop943" />
      <stop
         offset="1"
         style="stop-color:#c6262e;stop-opacity:1"
         id="stop945" />
    </linearGradient>
    <linearGradient
       id="linearGradient4011">
      <stop
         id="stop4013"
         style="stop-color:#ffffff;stop-opacity:1"
         offset="0" />
      <stop
         id="stop4015-3"
         style="stop-color:#ffffff;stop-opacity:0.23529412"
         offset="0.507761" />
      <stop
         id="stop4017-2"
         style="stop-color:#ffffff;stop-opacity:0.15686275"
         offset="0.83456558" />
      <stop
         id="stop4019"
         style="stop-color:#ffffff;stop-opacity:0.39215687"
         offset="1" />
    </linearGradient>
    <linearGradient
       x1="71.204407"
       y1="6.2375584"
       x2="71.204407"
       y2="44.340794"
       id="linearGradient12398-3"
       xlink:href="#linearGradient4011"
       gradientUnits="userSpaceOnUse"
       gradientTransform="matrix(0.5135135,0,0,0.5135135,-25.83614,-2.02128)" />
    <linearGradient
       x1="2035.1652"
       y1="3208.0737"
       x2="2035.1652"
       y2="3241.9966"
       id="linearGradient11527-6-5"
       xlink:href="#linearGradient947"
       gradientUnits="userSpaceOnUse"
       gradientTransform="matrix(0.8047894,0,0,0.60165743,-1629.8199,-1929.0804)" />
  </defs>
  <metadata
     id="metadata7">
    <rdf:RDF>
      <cc:Work
         rdf:about="">
        <dc:format>image/svg+xml</dc:format>
        <dc:type
           rdf:resource="http://purl.org/dc/dcmitype/StillImage" />
      </cc:Work>
    </rdf:RDF>
  </metadata>
  <path
     d="M 11,0.5 C 5.20646,0.5 0.5,5.20646 0.5,11 0.5,16.79354 5.20646,21.5 11,21.5 16.79354,21.5 21.50001,16.79354 21.5,11 21.5,5.20646 16.79354,0.5 11,0.5 Z"
     id="path2555-7-8-5-0-9"
     style="color:#000000;display:inline;overflow:visible;visibility:visible;opacity:0.99;fill:url(#linearGradient11527-6-5);fill-opacity:1;fill-rule:nonzero;stroke:none;stroke-width:1;marker:none;enable-background:accumulate" />
  <path
     d="M 11,0.5 C 5.20646,0.5 0.5,5.20646 0.5,11 0.5,16.79354 5.20646,21.5 11,21.5 16.79354,21.5 21.50001,16.79354 21.5,11 21.5,5.20646 16.79354,0.5 11,0.5 Z"
     id="path2555-7-8-5-1"
     style="color:#000000;display:inline;overflow:visible;visibility:visible;opacity:0.5;fill:none;stroke:#7a0000;stroke-width:1;stroke-linecap:round;stroke-linejoin:round;stroke-miterlimit:4;stroke-dasharray:none;stroke-dashoffset:0;stroke-opacity:1;marker:none;enable-background:accumulate" />
  <path
     d="M 20.49999,10.99966 C 20.49999,16.24654 16.24638,20.5 11.00011,20.5 5.75336,20.5 1.5,16.24649 1.5,10.99966 1.5,5.75303 5.75336,1.5 11.00011,1.5 c 5.24627,0 9.49988,4.25303 9.49988,9.49966 z"
     id="path8655-6-0-9-5-0"
     style="color:#000000;display:inline;overflow:visible;visibility:visible;opacity:0.4;fill:none;stroke:url(#linearGradient12398-3);stroke-width:1;stroke-linecap:round;stroke-linejoin:round;stroke-miterlimit:4;stroke-dasharray:none;stroke-dashoffset:0;stroke-opacity:1;marker:none;enable-background:accumulate" />
  <path
     d="m 7.4798385,6.4962773 c -0.511707,0 -1.024393,0.2032002 -1.4053186,0.5840793 -0.7660334,0.765939 -0.7660332,2.0446985 0,2.8106365 L 8.1893578,12.003872 6.0745199,14.11871 c -0.7660329,0.765938 -0.7660314,2.044698 0,2.810637 0.7659298,0.765834 2.0447075,0.765835 2.8106372,0 l 2.1148379,-2.116798 2.114838,2.116798 c 0.765929,0.765834 2.044708,0.765832 2.810637,0 0.766031,-0.765939 0.766033,-2.044699 0,-2.810637 L 13.810632,12.003872 15.92547,9.8909931 c 0.766033,-0.765938 0.766033,-2.0446976 0,-2.8106365 -0.765929,-0.7658328 -2.044708,-0.7658342 -2.810637,0 L 10.999995,9.1951951 8.8851571,7.0803566 C 8.5042314,6.6994782 7.9915463,6.4962772 7.4798385,6.4962773 Z"
     id="rect968-61-8"
     style="opacity:0.05;vector-effect:none;fill:#7a0000;fill-opacity:1;stroke:none;stroke-width:0.843237;stroke-linecap:butt;stroke-linejoin:miter;stroke-miterlimit:4;stroke-dasharray:none;stroke-dashoffset:0;stroke-opacity:1;marker:none" />
  <path
     id="rect968-61"
     d="m 7.4928882,7.5000004 c -0.2535911,0 -0.507107,0.098255 -0.7014215,0.2925458 -0.3886289,0.3885811 -0.3886289,1.0140886 0,1.4026699 l 2.8056854,2.8053389 -2.8056854,2.805339 c -0.388629,0.388581 -0.388629,1.014088 0,1.40267 0.3886291,0.388581 1.0142138,0.388581 1.4028428,0 l 2.8056845,-2.80534 2.805686,2.80534 c 0.388629,0.388581 1.014213,0.388581 1.402843,0 0.388629,-0.388582 0.388629,-1.014089 0,-1.40267 l -2.805686,-2.805339 2.805686,-2.8053389 c 0.388629,-0.3885813 0.388629,-1.0140888 0,-1.4026699 -0.38863,-0.388581 -1.014214,-0.388581 -1.402843,0 L 10.999994,10.597885 8.1943095,7.7925462 C 7.9999949,7.5982557 7.746479,7.5000004 7.4928882,7.5000004 Z"
     style="opacity:0.15;vector-effect:none;fill:#7a0000;fill-opacity:1;stroke:none;stroke-width:0.843237;stroke-linecap:butt;stroke-linejoin:miter;stroke-miterlimit:4;stroke-dasharray:none;stroke-dashoffset:0;stroke-opacity:1;marker:none" />
  <path
     id="rect968"
     d="m 7.4928881,6.5 c -0.253591,0 -0.5071069,0.098255 -0.7014214,0.2925458 -0.388629,0.3885811 -0.388629,1.0140886 0,1.4026697 l 2.8056854,2.8053395 -2.8056854,2.805339 c -0.388629,0.388581 -0.388629,1.014088 0,1.40267 0.388629,0.388581 1.0142137,0.388581 1.4028427,0 l 2.8056846,-2.80534 2.805686,2.80534 c 0.388629,0.388581 1.014213,0.388581 1.402843,0 0.388629,-0.388582 0.388629,-1.014089 0,-1.40267 l -2.805686,-2.805339 2.805686,-2.8053395 c 0.388629,-0.3885811 0.388629,-1.0140886 0,-1.4026697 -0.38863,-0.388581 -1.014214,-0.388581 -1.402843,0 L 10.999994,9.5978851 8.1943094,6.7925458 C 7.9999949,6.5982553 7.746479,6.5 7.4928881,6.5 Z"
     style="opacity:1;vector-effect:none;fill:#ffffff;fill-opacity:1;stroke:none;stroke-width:0.843237;stroke-linecap:butt;stroke-linejoin:miter;stroke-miterlimit:4;stroke-dasharray:none;stroke-dashoffset:0;stroke-opacity:1;marker:none" />
</svg>
