<?xml version="1.0" encoding="UTF-8" standalone="no"?>
<svg
   xmlns:dc="http://purl.org/dc/elements/1.1/"
   xmlns:cc="http://creativecommons.org/ns#"
   xmlns:rdf="http://www.w3.org/1999/02/22-rdf-syntax-ns#"
   xmlns:svg="http://www.w3.org/2000/svg"
   xmlns="http://www.w3.org/2000/svg"
   xmlns:xlink="http://www.w3.org/1999/xlink"
   version="1.1"
   width="22"
   height="22"
   id="svg3792">
  <defs
     id="defs3794">
    <linearGradient
       id="linearGradient1541">
      <stop
         offset="0"
         style="stop-color:#ffffff;stop-opacity:1"
         id="stop1533" />
      <stop
         offset="0.00000006"
         style="stop-color:#ffffff;stop-opacity:0.23529412"
         id="stop1535" />
      <stop
         offset="0.53919154"
         style="stop-color:#ffffff;stop-opacity:0.15686275"
         id="stop1537" />
      <stop
         offset="1"
         style="stop-color:#ffffff;stop-opacity:0.39215687"
         id="stop1539" />
    </linearGradient>
    <linearGradient
       id="linearGradient1228">
      <stop
         id="stop1220"
         style="stop-color:#ffffff;stop-opacity:1"
         offset="0" />
      <stop
         id="stop1222"
         style="stop-color:#ffffff;stop-opacity:0.23529412"
         offset="0.49999997" />
      <stop
         id="stop1224"
         style="stop-color:#ffffff;stop-opacity:0.15686275"
         offset="0.75" />
      <stop
         id="stop1226"
         style="stop-color:#ffffff;stop-opacity:0.39215687"
         offset="1" />
    </linearGradient>
    <linearGradient
       id="linearGradient4382">
      <stop
         offset="0"
         style="stop-color:#64baff;stop-opacity:1"
         id="stop4384" />
      <stop
         offset="1"
         style="stop-color:#3689e6;stop-opacity:1"
         id="stop4386" />
    </linearGradient>
    <linearGradient
       xlink:href="#linearGradient1228"
       id="linearGradient1218-9-9"
       gradientUnits="userSpaceOnUse"
       gradientTransform="matrix(0.60658008,0,0,0.60674898,15.728903,-6.9043032)"
       x1="-2.8502469"
       y1="39.397354"
       x2="-2.8502469"
       y2="22.916073" />
    <linearGradient
       xlink:href="#linearGradient1228"
       id="linearGradient1218-7"
       gradientUnits="userSpaceOnUse"
       gradientTransform="matrix(0.82355447,0,0,0.82372543,17.389474,-13.633091)"
       x1="-6.3880167"
       y1="22.76745"
       x2="-6.3880167"
       y2="39.523407" />
    <linearGradient
       y2="33.390285"
       x2="26.434902"
       y1="27.802895"
       x1="30.026651"
       gradientTransform="matrix(0.64628766,0,0,0.65308836,-3.878936,-13.25109)"
       gradientUnits="userSpaceOnUse"
       id="linearGradient4273-1-6-8-5-8"
       xlink:href="#linearGradient1541" />
    <linearGradient
       xlink:href="#linearGradient4382"
       id="linearGradient1252-6"
       gradientUnits="userSpaceOnUse"
       gradientTransform="matrix(0.8047894,0,0,0.60165743,-1665.8212,-1933.1946)"
       x1="2082.5732"
       y1="3213.9473"
       x2="2082.5732"
       y2="3247.2981" />
  </defs>
  <metadata
     id="metadata3797">
    <rdf:RDF>
      <cc:Work
         rdf:about="">
        <dc:format>image/svg+xml</dc:format>
        <dc:type
           rdf:resource="http://purl.org/dc/dcmitype/StillImage" />
        <dc:title />
      </cc:Work>
    </rdf:RDF>
  </metadata>
  <path
     style="opacity:0.98999999;vector-effect:none;fill:url(#linearGradient1252-6);fill-opacity:1;stroke:none;stroke-width:0.99999982;stroke-linecap:butt;stroke-linejoin:miter;stroke-miterlimit:4;stroke-dasharray:none;stroke-dashoffset:0;stroke-opacity:1;marker:none"
     d="M 11.5,0.50000033 V 3.5175784 C 11.333542,3.5068144 11.166803,3.5009524 11,3.5000004 6.305599,3.5000004 2.500027,7.305572 2.5,12 c 2.7e-5,4.694428 3.805599,8.5 8.5,8.5 4.499095,-0.0015 8.217745,-3.508671 8.482422,-8 h -1 -3.013672 c -0.0297,0.265682 -0.08704,0.52276 -0.160156,0.771484 -0.0069,0.02611 -0.01409,0.05215 -0.02148,0.07813 -0.07326,0.233574 -0.167232,0.457076 -0.27539,0.671875 -0.0165,0.03407 -0.03343,0.06792 -0.05078,0.101563 -0.110532,0.206297 -0.237062,0.40092 -0.376954,0.585937 -0.02619,0.03489 -0.05289,0.0694 -0.08008,0.103516 -0.146039,0.181874 -0.304707,0.352979 -0.476562,0.509766 -0.0277,0.02443 -0.0557,0.04852 -0.08398,0.07227 -0.181695,0.157751 -0.372993,0.304474 -0.578125,0.431641 -0.01622,0.0086 -0.0325,0.01703 -0.04883,0.02539 -0.200062,0.120668 -0.410551,0.225687 -0.628906,0.314454 -0.02787,0.01266 -0.05586,0.02502 -0.08398,0.03711 -0.219311,0.08393 -0.447951,0.146266 -0.681641,0.195313 -0.04413,0.0098 -0.08841,0.0189 -0.132813,0.02734 -0.256808,0.04577 -0.520046,0.07401 -0.789073,0.07421 -0.306617,0 -0.605139,-0.03141 -0.894531,-0.08984 -0.0039,-6.46e-4 -0.0078,-0.0013 -0.01172,-0.002 -0.0067,-0.0014 -0.01279,-0.0044 -0.01953,-0.0059 -0.273675,-0.05732 -0.538093,-0.141517 -0.791016,-0.246093 -0.02221,-0.0089 -0.04434,-0.01805 -0.06641,-0.02734 -0.246767,-0.106734 -0.481604,-0.233561 -0.703125,-0.380859 -0.01306,-0.0077 -0.02608,-0.01556 -0.03906,-0.02344 C 8.25103,15.572574 8.04387,15.397594 7.851561,15.208902 c -0.01507,-0.01357 -0.03004,-0.02724 -0.04492,-0.04102 -0.18359,-0.185054 -0.348631,-0.388971 -0.498047,-0.603516 -0.01982,-0.02648 -0.03936,-0.05317 -0.05859,-0.08008 -0.136872,-0.206105 -0.251599,-0.426227 -0.353516,-0.654297 -0.02023,-0.04331 -0.03976,-0.08693 -0.05859,-0.130859 -0.09461,-0.23152 -0.169344,-0.473734 -0.22461,-0.722657 -0.0097,-0.03959 -0.01877,-0.0793 -0.02734,-0.11914 C 6.532145,12.579245 6.5,12.293891 6.5,12 c 0,-0.306617 0.03141,-0.605139 0.08984,-0.894531 l 0.002,-0.0059 c 0.0018,-0.0086 0.0041,-0.01678 0.0059,-0.02539 0.05732,-0.273675 0.141518,-0.538093 0.246094,-0.791016 0.0089,-0.02221 0.01805,-0.04434 0.02734,-0.06641 0.106734,-0.246767 0.233561,-0.481604 0.380859,-0.703125 0.0077,-0.01306 0.01556,-0.02608 0.02344,-0.03906 C 7.427426,9.25099 7.602406,9.04383 7.791098,8.8515218 7.804668,8.8364558 7.818338,8.8214808 7.832118,8.8065998 8.017172,8.6230106 8.221089,8.457969 8.435634,8.308553 8.462114,8.288728 8.488804,8.269196 8.515714,8.249959 8.721819,8.1130866 8.941941,7.99836 9.170011,7.8964434 9.213321,7.8762184 9.256941,7.8566844 9.30087,7.8378494 9.53239,7.7432344 9.774604,7.6685056 10.023527,7.61324 10.063117,7.60359 10.102827,7.594471 10.142667,7.585896 10.420755,7.532145 10.706109,7.5000003 11,7.5000003 c 0.167118,0.00112 0.334043,0.011557 0.5,0.03125 V 10.5 l 7.765714,-4.9999997 z"
     id="path1036-9-4-3" />
  <path
     id="path4271-3-1-2-9-1"
     d="M 12.489846,5.12 V 2.3300999 l 4.932158,3.1877468 -4.932158,3.1415085 V 6.1314286"
     style="color:#000000;clip-rule:nonzero;display:inline;overflow:visible;visibility:visible;opacity:0.5;isolation:auto;mix-blend-mode:normal;color-interpolation:sRGB;color-interpolation-filters:linearRGB;solid-color:#000000;solid-opacity:1;fill:none;fill-opacity:1;fill-rule:nonzero;stroke:url(#linearGradient4273-1-6-8-5-8);stroke-width:0.99199998;stroke-linecap:butt;stroke-linejoin:miter;stroke-miterlimit:4;stroke-dasharray:none;stroke-dashoffset:0;stroke-opacity:1;marker:none;color-rendering:auto;image-rendering:auto;shape-rendering:auto;text-rendering:auto;enable-background:accumulate" />
  <path
     style="opacity:0.5;vector-effect:none;fill:none;fill-opacity:1;stroke:url(#linearGradient1218-7);stroke-width:0.99199998;stroke-linecap:butt;stroke-linejoin:miter;stroke-miterlimit:4;stroke-dasharray:none;stroke-dashoffset:0;stroke-opacity:1;marker:none"
     id="path1187-5"
     d="m 18.389255,13.046461 a 7.4813957,7.4808507 0 0 1 -8.37307,6.39446 7.4813957,7.4808507 0 0 1 -6.4649498,-8.318518 7.4813957,7.4808507 0 0 1 8.2645908,-6.5340416" />
  <path
     style="opacity:0.5;vector-effect:none;fill:none;fill-opacity:1;stroke:#002e99;stroke-width:0.99999994;stroke-linecap:round;stroke-linejoin:round;stroke-miterlimit:4;stroke-dasharray:none;stroke-dashoffset:0;stroke-opacity:1;marker:none"
     d="M 11.5,0.50000003 V 3.5175781 C 11.333542,3.5068139 11.166803,3.500952 11,3.5 6.305599,3.5 2.500027,7.3055716 2.5,12 c 2.7e-5,4.694428 3.805599,8.5 8.5,8.5 4.499095,-0.0015 8.217745,-3.508671 8.482422,-8 h -1 -3.013672 c -0.0297,0.265682 -0.08704,0.52276 -0.160156,0.771484 -0.0069,0.02611 -0.01409,0.05215 -0.02148,0.07813 -0.07326,0.233574 -0.167232,0.457076 -0.27539,0.671875 -0.0165,0.03407 -0.03343,0.06792 -0.05078,0.101563 -0.110532,0.206297 -0.237062,0.40092 -0.376954,0.585937 -0.02619,0.03489 -0.05289,0.0694 -0.08008,0.103516 -0.146039,0.181874 -0.304707,0.352979 -0.476562,0.509766 -0.0277,0.02443 -0.0557,0.04852 -0.08398,0.07227 -0.181695,0.157751 -0.372993,0.304474 -0.578125,0.431641 -0.01622,0.0086 -0.0325,0.01703 -0.04883,0.02539 -0.200062,0.120668 -0.410551,0.225687 -0.628906,0.314454 -0.02787,0.01266 -0.05586,0.02502 -0.08398,0.03711 -0.219311,0.08393 -0.447951,0.146266 -0.681641,0.195313 -0.04413,0.0098 -0.08841,0.0189 -0.132813,0.02734 C 11.532265,16.471557 11.269027,16.499798 11,16.5 c -0.306617,0 -0.605139,-0.03141 -0.894531,-0.08984 -0.0039,-6.46e-4 -0.0078,-0.0013 -0.01172,-0.002 -0.0067,-0.0014 -0.01279,-0.0044 -0.01953,-0.0059 -0.273675,-0.05732 -0.538093,-0.141518 -0.791016,-0.246094 -0.02221,-0.0089 -0.04434,-0.01805 -0.06641,-0.02734 -0.246767,-0.106734 -0.481604,-0.233561 -0.703125,-0.380859 -0.01306,-0.0077 -0.02608,-0.01556 -0.03906,-0.02344 C 8.25103,15.572574 8.04387,15.397594 7.851561,15.208902 c -0.01507,-0.01357 -0.03004,-0.02724 -0.04492,-0.04102 -0.18359,-0.185054 -0.348631,-0.388971 -0.498047,-0.603516 -0.01982,-0.02648 -0.03936,-0.05317 -0.05859,-0.08008 -0.136872,-0.206105 -0.251599,-0.426227 -0.353516,-0.654297 -0.02023,-0.04331 -0.03976,-0.08693 -0.05859,-0.130859 -0.09461,-0.23152 -0.169344,-0.473734 -0.22461,-0.722657 -0.0097,-0.03959 -0.01877,-0.0793 -0.02734,-0.11914 C 6.532145,12.579245 6.5,12.293891 6.5,12 c 0,-0.306617 0.03141,-0.605139 0.08984,-0.894531 l 0.002,-0.0059 c 0.0018,-0.0086 0.0041,-0.01678 0.0059,-0.02539 0.05732,-0.273675 0.141518,-0.538093 0.246094,-0.791016 0.0089,-0.02221 0.01805,-0.04434 0.02734,-0.06641 0.106734,-0.246767 0.233561,-0.481604 0.380859,-0.703125 0.0077,-0.01306 0.01556,-0.02608 0.02344,-0.03906 C 7.427426,9.25099 7.602406,9.04383 7.791098,8.8515215 c 0.01357,-0.015066 0.02724,-0.030041 0.04102,-0.044922 0.185054,-0.1835892 0.388971,-0.3486308 0.603516,-0.4980468 0.02648,-0.019825 0.05317,-0.039357 0.08008,-0.058594 0.206105,-0.1368724 0.426227,-0.251599 0.654297,-0.3535156 0.04331,-0.020225 0.08693,-0.039759 0.130859,-0.058594 0.23152,-0.094615 0.473734,-0.1693438 0.722657,-0.2246094 0.03959,-0.00965 0.0793,-0.018769 0.11914,-0.027344 C 10.420755,7.5321447 10.706109,7.5 11,7.5 c 0.167118,0.00112 0.334043,0.011557 0.5,0.03125 V 10.5 l 7.765714,-5 z"
     id="path1036-9-4" />
  <path
     id="path1187-2-5"
     style="opacity:0.5;vector-effect:none;fill:none;fill-opacity:1;stroke:url(#linearGradient1218-9-9);stroke-width:0.99200004;stroke-linecap:butt;stroke-linejoin:miter;stroke-miterlimit:4;stroke-dasharray:none;stroke-dashoffset:0;stroke-opacity:1;marker:none"
     d="M 18.768571,13.5 16.308862,13.495 C 15.54084,16.217572 12.805095,17.943911 9.977958,17.406586 7.00297,16.841161 5.041728,13.98102 5.586342,11.002158 6.130957,8.0232962 8.977322,6.0421097 11.959924,6.5658842" />
</svg>
