<?xml version="1.0" encoding="UTF-8" standalone="no"?>
<svg
   version="1.1"
   width="16"
   height="16"
   id="svg3508"
   sodipodi:docname="applications-graphics.svg"
   inkscape:version="1.2.2 (b0a8486541, 2022-12-01)"
   xmlns:inkscape="http://www.inkscape.org/namespaces/inkscape"
   xmlns:sodipodi="http://sodipodi.sourceforge.net/DTD/sodipodi-0.dtd"
   xmlns:xlink="http://www.w3.org/1999/xlink"
   xmlns="http://www.w3.org/2000/svg"
   xmlns:svg="http://www.w3.org/2000/svg"
   xmlns:rdf="http://www.w3.org/1999/02/22-rdf-syntax-ns#"
   xmlns:cc="http://creativecommons.org/ns#"
   xmlns:dc="http://purl.org/dc/elements/1.1/">
  <sodipodi:namedview
     id="namedview129189"
     pagecolor="#ffffff"
     bordercolor="#666666"
     borderopacity="1.0"
     inkscape:showpageshadow="2"
     inkscape:pageopacity="0.0"
     inkscape:pagecheckerboard="0"
     inkscape:deskcolor="#d1d1d1"
     showgrid="false"
     inkscape:zoom="29.5"
     inkscape:cx="11.983051"
     inkscape:cy="6.2881356"
     inkscape:window-width="1278"
     inkscape:window-height="788"
     inkscape:window-x="640"
     inkscape:window-y="89"
     inkscape:window-maximized="0"
     inkscape:current-layer="svg3508" />
  <defs
     id="defs3510">
    <linearGradient
       id="linearGradient3871-6-7">
      <stop
         id="stop3873-3-2"
         style="stop-color:#0b85e9;stop-opacity:1"
         offset="0" />
      <stop
         id="stop3875-4-0"
         style="stop-color:#69d1ef;stop-opacity:1"
         offset="1" />
    </linearGradient>
    <linearGradient
       id="linearGradient3825-5-8-3">
      <stop
         id="stop3827-2-3-1"
         style="stop-color:#e89c42;stop-opacity:1"
         offset="0" />
      <stop
         id="stop3829-5-0-9"
         style="stop-color:#faca67;stop-opacity:1"
         offset="1" />
    </linearGradient>
    <linearGradient
       id="linearGradient3977-7-7">
      <stop
         id="stop3979-6-6"
         style="stop-color:#ffffff;stop-opacity:1"
         offset="0" />
      <stop
         id="stop3981-3-44"
         style="stop-color:#ffffff;stop-opacity:0.23529412"
         offset="0.03626217" />
      <stop
         id="stop3983-8-5"
         style="stop-color:#ffffff;stop-opacity:0.15686275"
         offset="0.95056331" />
      <stop
         id="stop3985-2-08"
         style="stop-color:#ffffff;stop-opacity:0.39215687"
         offset="1" />
    </linearGradient>
    <linearGradient
       id="linearGradient3600-9-29">
      <stop
         id="stop3602-0-00"
         style="stop-color:#f4f4f4;stop-opacity:1"
         offset="0" />
      <stop
         id="stop3604-9-14"
         style="stop-color:#dbdbdb;stop-opacity:1"
         offset="1" />
    </linearGradient>
    <linearGradient
       x1="-107.45584"
       y1="-40.98423"
       x2="-107.45584"
       y2="42.663475"
       id="linearGradient3153-9"
       xlink:href="#linearGradient3871-6-7"
       gradientUnits="userSpaceOnUse"
       gradientTransform="matrix(0.0657842,0,0,0.06298893,16.561058,4.3815534)" />
    <linearGradient
       x1="-96.557358"
       y1="124.52504"
       x2="-96.557358"
       y2="53.183502"
       id="linearGradient3156-9"
       xlink:href="#linearGradient3825-5-8-3"
       gradientUnits="userSpaceOnUse"
       gradientTransform="matrix(0.0657842,0,0,0.06827881,16.561058,4.4975785)" />
    <linearGradient
       x1="23.99999"
       y1="5.5641499"
       x2="23.99999"
       y2="43"
       id="linearGradient3159-7"
       xlink:href="#linearGradient3977-7-7"
       gradientUnits="userSpaceOnUse"
       gradientTransform="matrix(0.35135143,0,0,0.29729738,-0.4324276,0.86485978)" />
    <linearGradient
       x1="25.132275"
       y1="0.98520643"
       x2="25.132275"
       y2="47.013336"
       id="linearGradient3162-2"
       xlink:href="#linearGradient3600-9-29"
       gradientUnits="userSpaceOnUse"
       gradientTransform="matrix(0.41758019,0,0,0.27439687,-2.0219207,0.99351675)" />
  </defs>
  <metadata
     id="metadata3513">
    <rdf:RDF>
      <cc:Work
         rdf:about="">
        <dc:format>image/svg+xml</dc:format>
        <dc:type
           rdf:resource="http://purl.org/dc/dcmitype/StillImage" />
      </cc:Work>
    </rdf:RDF>
  </metadata>
  <rect
     style="font-variation-settings:normal;vector-effect:none;fill:url(#linearGradient3162-2);fill-opacity:1;stroke:#333333;stroke-width:0.999997;stroke-linecap:butt;stroke-linejoin:miter;stroke-miterlimit:4;stroke-dasharray:none;stroke-dashoffset:0;stroke-opacity:0.5;-inkscape-stroke:none;stop-color:#000000"
     id="rect412"
     width="15"
     height="13.000003"
     x="0.5"
     y="1.4999986"
     ry="0.25"
     rx="0.25" />
  <rect
     style="font-variation-settings:normal;vector-effect:none;fill:none;fill-opacity:1;stroke:url(#linearGradient3159-7);stroke-width:0.999994;stroke-linecap:round;stroke-linejoin:miter;stroke-miterlimit:4;stroke-dasharray:none;stroke-dashoffset:0;stroke-opacity:1;-inkscape-stroke:none;stop-color:#000000"
     id="rect412-7"
     width="13.000003"
     height="11.000005"
     x="1.4999986"
     y="2.4999976" />
  <rect
     style="font-variation-settings:normal;vector-effect:none;fill:url(#linearGradient3156-9);fill-opacity:1;stroke:none;stroke-width:9.99993;stroke-linecap:butt;stroke-linejoin:miter;stroke-miterlimit:4;stroke-dasharray:none;stroke-dashoffset:0;stroke-opacity:1;-inkscape-stroke:none;marker:none;stop-color:#000000"
     id="rect3621"
     width="12"
     height="10"
     x="2"
     y="3"
     rx="0.5"
     ry="0.5" />
  <rect
     style="font-variation-settings:normal;vector-effect:none;fill:url(#linearGradient3153-9);fill-opacity:1;stroke:none;stroke-width:0.999992;stroke-linecap:butt;stroke-linejoin:miter;stroke-miterlimit:4;stroke-dasharray:none;stroke-dashoffset:0;stroke-opacity:1;-inkscape-stroke:none;marker:none;stop-color:#000000"
     id="rect3681"
     width="12"
     height="6"
     x="2"
     y="3"
     rx="0.5"
     ry="0.5" />
  <path
     d="m 10.012646,8.5 c -1.2460197,0 -1.4659597,0.8577803 -2.4431797,0.8577803 -0.97722,0 -1.56017,-0.5932975 -2.33523,-0.5932975 -0.77506,0 -1.229,0.4717794 -1.69318,0.4717794 C 3.3377963,9.2362622 2.14848,9.1579897 2,9.0718535 v 1.0564415 c 0.22336,0.07472 1.5142963,0.135815 1.8592363,0.135815 0.8795,0 0.75402,-0.371706 1.51137,-0.371706 0.75734,0 1.20343,0.607596 2.22727,0.607596 1.26814,0 1.55916,-0.979301 2.5624997,-0.979301 0.78346,0 0.84229,0.536114 1.70454,0.536114 0.5825,0 1.774664,-0.28164 2.135084,-0.464632 V 8.6572602 C 13.68741,8.807109 12.459176,9.0432611 11.921736,9.0432611 11.141506,9.0432611 11.258666,8.5 10.012646,8.5 Z"
     id="path26238"
     style="color:#000000;display:inline;overflow:visible;visibility:visible;fill:#b6802e;fill-opacity:0.5;fill-rule:nonzero;stroke:none;stroke-width:10;marker:none;enable-background:accumulate"
     sodipodi:nodetypes="ssssccsssssccss" />
  <path
     d="m 10.012646,7.5 c -1.2460197,0 -1.4659597,0.8577803 -2.4431797,0.8577803 -0.97722,0 -1.56017,-0.5932975 -2.33523,-0.5932975 -0.77506,0 -1.229,0.4717794 -1.69318,0.4717794 C 3.3377963,8.2362622 2.14848,8.1579897 2,8.0718535 v 1.0564413 c 0.22336,0.07472 1.5142963,0.135815 1.8592363,0.135815 0.8795,0 0.75402,-0.3717054 1.51137,-0.3717054 0.75734,0 1.20343,0.6075954 2.22727,0.6075954 1.26814,0 1.55916,-0.9793007 2.5624997,-0.9793007 0.78346,0 0.84229,0.5361137 1.70454,0.5361137 0.5825,0 1.774664,-0.2816401 2.135084,-0.464632 V 7.6572602 C 13.68741,7.807109 12.459176,8.0432611 11.921736,8.0432611 11.141506,8.0432611 11.258666,7.5 10.012646,7.5 Z"
     id="path26780"
     style="color:#000000;display:inline;overflow:visible;visibility:visible;fill:#3689e6;fill-opacity:0.5;fill-rule:nonzero;stroke:none;stroke-width:10;marker:none;enable-background:accumulate"
     sodipodi:nodetypes="ssssccsssssccss" />
  <path
     d="M 10.012646,8 C 8.7666263,8 8.5466863,8.8577803 7.5694663,8.8577803 c -0.97722,0 -1.56017,-0.5932975 -2.33523,-0.5932975 -0.77506,0 -1.229,0.4717794 -1.69318,0.4717794 C 3.3377963,8.7362622 2.14848,8.6579897 2,8.5718535 v 1.0564413 c 0.22336,0.07472 1.5142963,0.135815 1.8592363,0.135815 0.8795,0 0.75402,-0.3717054 1.51137,-0.3717054 0.75734,0 1.20343,0.6075954 2.22727,0.6075954 1.26814,0 1.55916,-0.9793007 2.5624997,-0.9793007 0.78346,0 0.84229,0.5361137 1.70454,0.5361137 0.5825,0 1.774664,-0.2816401 2.135084,-0.464632 V 8.1572602 C 13.68741,8.307109 12.459176,8.5432611 11.921736,8.5432611 11.141506,8.5432611 11.258666,8 10.012646,8 Z"
     id="rect3055-2-6-8-1"
     style="color:#000000;display:inline;overflow:visible;visibility:visible;fill:#ffffff;fill-opacity:1;fill-rule:nonzero;stroke:none;stroke-width:10;marker:none;enable-background:accumulate"
     sodipodi:nodetypes="ssssccsssssccss" />
  <rect
     style="font-variation-settings:normal;vector-effect:none;fill:none;fill-opacity:1;stroke:#333333;stroke-width:0.999993;stroke-linecap:butt;stroke-linejoin:miter;stroke-miterlimit:4;stroke-dasharray:none;stroke-dashoffset:0;stroke-opacity:0.5;-inkscape-stroke:none;stop-color:#000000"
     id="rect3305"
     width="11.000012"
     height="9.0000114"
     x="2.4999938"
     y="3.4999943"
     rx="0.050000001"
     ry="0.050000001" />
</svg>
