<?xml version="1.0" encoding="UTF-8" standalone="no"?>
<svg
   version="1.1"
   width="16"
   height="16"
   id="svg9767"
   sodipodi:docname="applications-multimedia.svg"
   inkscape:version="1.1.2 (0a00cf5339, 2022-02-04)"
   xmlns:inkscape="http://www.inkscape.org/namespaces/inkscape"
   xmlns:sodipodi="http://sodipodi.sourceforge.net/DTD/sodipodi-0.dtd"
   xmlns:xlink="http://www.w3.org/1999/xlink"
   xmlns="http://www.w3.org/2000/svg"
   xmlns:svg="http://www.w3.org/2000/svg"
   xmlns:rdf="http://www.w3.org/1999/02/22-rdf-syntax-ns#"
   xmlns:cc="http://creativecommons.org/ns#"
   xmlns:dc="http://purl.org/dc/elements/1.1/">
  <sodipodi:namedview
     id="namedview21"
     pagecolor="#ffffff"
     bordercolor="#666666"
     borderopacity="1.0"
     inkscape:pageshadow="2"
     inkscape:pageopacity="0.0"
     inkscape:pagecheckerboard="0"
     showgrid="false"
     inkscape:zoom="45.254834"
     inkscape:cx="8.1206794"
     inkscape:cy="10.871767"
     inkscape:window-width="1317"
     inkscape:window-height="893"
     inkscape:window-x="601"
     inkscape:window-y="0"
     inkscape:window-maximized="0"
     inkscape:current-layer="svg9767"
     inkscape:snap-global="false" />
  <defs
     id="defs9769">
    <linearGradient
       id="linearGradient1258">
      <stop
         id="stop1250"
         style="stop-color:#ffffff;stop-opacity:1"
         offset="0" />
      <stop
         id="stop1252"
         style="stop-color:#ffffff;stop-opacity:0.23529412"
         offset="0" />
      <stop
         id="stop1254"
         style="stop-color:#ffffff;stop-opacity:0.15686275"
         offset="1" />
      <stop
         id="stop1256"
         style="stop-color:#ffffff;stop-opacity:0.39215687"
         offset="1" />
    </linearGradient>
    <linearGradient
       id="linearGradient864">
      <stop
         style="stop-color:#ffa154;stop-opacity:1"
         offset="0"
         id="stop860" />
      <stop
         style="stop-color:#f37329;stop-opacity:1"
         offset="1"
         id="stop862" />
    </linearGradient>
    <linearGradient
       xlink:href="#linearGradient864"
       id="linearGradient866-3"
       x1="23.932209"
       y1="2.4120836"
       x2="23.932209"
       y2="21.493765"
       gradientUnits="userSpaceOnUse"
       gradientTransform="matrix(0.7894736,0,0,0.7894736,-7.7894721,-1.4736825)" />
    <linearGradient
       gradientTransform="matrix(0.35135136,0,0,0.35135136,-0.43118381,-0.43368178)"
       gradientUnits="userSpaceOnUse"
       xlink:href="#linearGradient1258"
       id="linearGradient5397-6"
       y2="41.414486"
       x2="30.526697"
       y1="6.5909567"
       x1="30.526697" />
  </defs>
  <metadata
     id="metadata9772">
    <rdf:RDF>
      <cc:Work
         rdf:about="">
        <dc:format>image/svg+xml</dc:format>
        <dc:type
           rdf:resource="http://purl.org/dc/dcmitype/StillImage" />
      </cc:Work>
    </rdf:RDF>
  </metadata>
  <rect
     width="15"
     height="15"
     rx="1"
     ry="1"
     x="0.5"
     y="0.5"
     id="rect5505-21-8"
     style="color:#000000;display:inline;overflow:visible;visibility:visible;fill:url(#linearGradient866-3);fill-opacity:1;fill-rule:nonzero;stroke:none;stroke-width:1;marker:none;enable-background:accumulate" />
  <rect
     width="13"
     height="13"
     x="1.5012512"
     y="1.4987478"
     id="rect6741-9-0"
     style="opacity:0.5;fill:none;stroke:url(#linearGradient5397-6);stroke-width:0.999998;stroke-linecap:round;stroke-linejoin:round;stroke-miterlimit:4;stroke-dasharray:none;stroke-dashoffset:0;stroke-opacity:1" />
  <rect
     width="15"
     height="15"
     rx="1"
     ry="1"
     x="0.5"
     y="0.5"
     id="rect5505-21-8-1-7"
     style="color:#000000;display:inline;overflow:visible;visibility:visible;opacity:0.5;fill:none;stroke:#a62100;stroke-width:1;stroke-linecap:round;stroke-linejoin:round;stroke-miterlimit:4;stroke-dasharray:none;stroke-dashoffset:0;stroke-opacity:1;marker:none;enable-background:accumulate" />
  <path
     id="path4382"
     style="color:#000000;clip-rule:nonzero;display:inline;overflow:visible;visibility:visible;isolation:auto;mix-blend-mode:normal;color-interpolation:sRGB;color-interpolation-filters:linearRGB;solid-color:#000000;solid-opacity:1;fill:#a62100;fill-opacity:0.5;fill-rule:nonzero;stroke:none;stroke-width:1.00225;stroke-linecap:butt;stroke-linejoin:miter;stroke-miterlimit:4;stroke-dasharray:none;stroke-dashoffset:0;stroke-opacity:1;marker:none;color-rendering:auto;image-rendering:auto;shape-rendering:auto;text-rendering:auto;enable-background:accumulate"
     d="m 11.556641,3.5060344 c -0.03619,3.375e-4 -0.07474,0.00308 -0.113282,0.013672 L 6.5546875,4.8927531 C 6.2463391,4.9774575 6,5.3179054 6,5.656425 v 0.6875 0.3457031 4.8710939 A 1.9016424,1.6019228 13.68287 0 0 5.5722656,11.3908 a 1.9016424,1.6019228 13.68287 0 0 -2.28125,1.03125 1.9016424,1.6019228 13.68287 0 0 1.3828125,2.046875 1.9016424,1.6019228 13.68287 0 0 2.28125,-1.03125 A 1.9016424,1.6019228 13.68287 0 0 7,12.894706 V 6.9630656 L 11,5.9591594 V 10.371269 A 1.9016424,1.6019228 13.68287 0 0 10.570312,10.201347 1.9016424,1.6019228 13.68287 0 0 8.2890625,11.230644 1.9016424,1.6019228 13.68287 0 0 9.671875,13.277519 1.9016424,1.6019228 13.68287 0 0 11.953125,12.248222 1.9016424,1.6019228 13.68287 0 0 12,11.716972 V 5.0118938 3.9786906 C 12,3.724801 11.865516,3.5079875 11.662109,3.5079875 h -0.002 c -0.0339,0 -0.06732,-0.00229 -0.103515,-0.00195 z" />
  <path
     id="path4192"
     style="color:#000000;clip-rule:nonzero;display:inline;overflow:visible;visibility:visible;isolation:auto;mix-blend-mode:normal;color-interpolation:sRGB;color-interpolation-filters:linearRGB;solid-color:#000000;solid-opacity:1;fill:#fffdfd;fill-opacity:1;fill-rule:nonzero;stroke:none;stroke-width:1.00225;stroke-linecap:butt;stroke-linejoin:miter;stroke-miterlimit:4;stroke-dasharray:none;stroke-dashoffset:0;stroke-opacity:1;marker:none;color-rendering:auto;image-rendering:auto;shape-rendering:auto;text-rendering:auto;enable-background:accumulate"
     d="M 11.556641 2.5058594 C 11.520451 2.5061969 11.481901 2.5089392 11.443359 2.5195312 L 6.5546875 3.8925781 C 6.2463391 3.9772825 6 4.3177304 6 4.65625 L 6 5.34375 L 6 5.6894531 L 6 10.560547 A 1.9016424 1.6019228 13.68287 0 0 5.5722656 10.390625 A 1.9016424 1.6019228 13.68287 0 0 3.2910156 11.421875 A 1.9016424 1.6019228 13.68287 0 0 4.6738281 13.46875 A 1.9016424 1.6019228 13.68287 0 0 6.9550781 12.4375 A 1.9016424 1.6019228 13.68287 0 0 7 11.894531 L 7 5.9628906 L 11 4.9589844 L 11 9.3710938 A 1.9016424 1.6019228 13.68287 0 0 10.570312 9.2011719 A 1.9016424 1.6019228 13.68287 0 0 8.2890625 10.230469 A 1.9016424 1.6019228 13.68287 0 0 9.671875 12.277344 A 1.9016424 1.6019228 13.68287 0 0 11.953125 11.248047 A 1.9016424 1.6019228 13.68287 0 0 12 10.716797 L 12 4.0117188 L 12 2.9785156 C 12 2.724626 11.865516 2.5078125 11.662109 2.5078125 L 11.660156 2.5078125 C 11.626256 2.5078125 11.592836 2.5055194 11.556641 2.5058594 z " />
</svg>
