<?xml version="1.0" encoding="UTF-8" standalone="no"?>
<!-- Created with Inkscape (http://www.inkscape.org/) -->

<svg
   xmlns:dc="http://purl.org/dc/elements/1.1/"
   xmlns:cc="http://creativecommons.org/ns#"
   xmlns:rdf="http://www.w3.org/1999/02/22-rdf-syntax-ns#"
   xmlns:svg="http://www.w3.org/2000/svg"
   xmlns="http://www.w3.org/2000/svg"
   xmlns:xlink="http://www.w3.org/1999/xlink"
   xmlns:sodipodi="http://sodipodi.sourceforge.net/DTD/sodipodi-0.dtd"
   xmlns:inkscape="http://www.inkscape.org/namespaces/inkscape"
   version="1.0"
   width="16"
   height="16"
   id="svg2"
   inkscape:version="0.48+devel r"
   sodipodi:docname="applications-office.svg">
  <metadata
     id="metadata28">
    <rdf:RDF>
      <cc:Work
         rdf:about="">
        <dc:format>image/svg+xml</dc:format>
        <dc:type
           rdf:resource="http://purl.org/dc/dcmitype/StillImage" />
        <dc:title />
      </cc:Work>
    </rdf:RDF>
  </metadata>
  <sodipodi:namedview
     pagecolor="#ffffff"
     bordercolor="#666666"
     borderopacity="1"
     objecttolerance="10"
     gridtolerance="10"
     guidetolerance="10"
     inkscape:pageopacity="0"
     inkscape:pageshadow="2"
     inkscape:window-width="1535"
     inkscape:window-height="876"
     id="namedview26"
     showgrid="false"
     showguides="true"
     inkscape:guide-bbox="true"
     inkscape:zoom="10.429825"
     inkscape:cx="16.50466"
     inkscape:cy="11.110508"
     inkscape:window-x="65"
     inkscape:window-y="24"
     inkscape:window-maximized="1"
     inkscape:current-layer="svg2">
    <inkscape:grid
       type="xygrid"
       id="grid4072" />
  </sodipodi:namedview>
  <defs
     id="defs4">
    <clipPath
       clipPathUnits="userSpaceOnUse"
       id="clipPath4496">
      <path
         inkscape:connector-curvature="0"
         style="fill:#808080;fill-opacity:1;fill-rule:evenodd;stroke:none;stroke-width:0.51499999;marker:none;visibility:visible;display:inline;overflow:visible;enable-background:accumulate"
         d="m 372.05199,129.25245 1.38353,8.76352 c -1.12864,0.82513 -1.76872,1.75074 -1.63129,2.6212 0.32156,2.03683 4.60527,3.05482 9.56176,2.27232 4.95647,-0.78249 8.71825,-3.07066 8.39669,-5.10748 l 1.99538,-0.31502 -1.74762,-11.06971 -17.95845,2.83517 z"
         id="path4498" />
    </clipPath>
    <linearGradient
       inkscape:collect="always"
       xlink:href="#linearGradient2966"
       id="linearGradient4483"
       gradientUnits="userSpaceOnUse"
       gradientTransform="matrix(0.00525957,0.999987,0.999987,-0.00525957,42.9955,-2.496241)"
       x1="48.90625"
       y1="17.376184"
       x2="50.988335"
       y2="22.250591" />
    <linearGradient
       id="linearGradient2966">
      <stop
         id="stop2968"
         offset="0"
         style="stop-color:#ffd1d1;stop-opacity:1;" />
      <stop
         id="stop3006"
         offset="0.5"
         style="stop-color:#ff1d1d;stop-opacity:1;" />
      <stop
         id="stop2970"
         offset="1"
         style="stop-color:#6f0000;stop-opacity:1;" />
    </linearGradient>
    <linearGradient
       inkscape:collect="always"
       xlink:href="#linearGradient2974"
       id="linearGradient4485"
       gradientUnits="userSpaceOnUse"
       gradientTransform="matrix(0.00525957,0.999987,0.999987,-0.00525957,42.99552,-2.496241)"
       x1="46"
       y1="19.8125"
       x2="47.6875"
       y2="22.625" />
    <linearGradient
       id="linearGradient2974">
      <stop
         id="stop2976"
         offset="0"
         style="stop-color:#c1c1c1;stop-opacity:1;" />
      <stop
         id="stop2978"
         offset="1"
         style="stop-color:#acacac;stop-opacity:1;" />
    </linearGradient>
    <radialGradient
       inkscape:collect="always"
       xlink:href="#linearGradient2984"
       id="radialGradient4487"
       gradientUnits="userSpaceOnUse"
       gradientTransform="matrix(0.0153767,2.923527,2.029691,-0.01067544,20.39098,-69.72665)"
       cx="29.053354"
       cy="27.640751"
       fx="29.053354"
       fy="27.640751"
       r="3.2408545" />
    <linearGradient
       id="linearGradient2984"
       inkscape:collect="always">
      <stop
         id="stop2986"
         offset="0"
         style="stop-color:#e7e2b8;stop-opacity:1;" />
      <stop
         id="stop2988"
         offset="1"
         style="stop-color:#e7e2b8;stop-opacity:0;" />
    </linearGradient>
    <linearGradient
       inkscape:collect="always"
       xlink:href="#linearGradient2994"
       id="linearGradient4489"
       gradientUnits="userSpaceOnUse"
       gradientTransform="matrix(0.00525957,0.999987,0.999987,-0.00525957,48.6929,-14.14491)"
       x1="25.71875"
       y1="31.046875"
       x2="25.514589"
       y2="30.703125" />
    <linearGradient
       id="linearGradient2994">
      <stop
         id="stop2996"
         offset="0"
         style="stop-color:#000000;stop-opacity:1;" />
      <stop
         id="stop2998"
         offset="1"
         style="stop-color:#c9c9c9;stop-opacity:1;" />
    </linearGradient>
    <linearGradient
       inkscape:collect="always"
       xlink:href="#linearGradient5461"
       id="linearGradient4327"
       gradientUnits="userSpaceOnUse"
       gradientTransform="matrix(0.389915,9.1972513e-4,-9.1972513e-4,0.389915,422.4817,126.13066)"
       x1="28.244684"
       y1="60.445503"
       x2="28.244684"
       y2="68.224884" />
    <linearGradient
       id="linearGradient5461">
      <stop
         id="stop5463"
         offset="0"
         style="stop-color:#dfe2e3;stop-opacity:1" />
      <stop
         style="stop-color:#282a2a;stop-opacity:1;"
         offset="0.14285721"
         id="stop5475" />
      <stop
         style="stop-color:#cacaca;stop-opacity:1;"
         offset="0.46561521"
         id="stop5465" />
      <stop
         id="stop5467"
         offset="0.77618349"
         style="stop-color:#ffffff;stop-opacity:1;" />
      <stop
         style="stop-color:#a0a1a0;stop-opacity:1;"
         offset="0.89721245"
         id="stop5473" />
      <stop
         id="stop5469"
         offset="1"
         style="stop-color:#eeeeec;stop-opacity:1" />
    </linearGradient>
    <linearGradient
       inkscape:collect="always"
       xlink:href="#linearGradient5461"
       id="linearGradient4329"
       gradientUnits="userSpaceOnUse"
       gradientTransform="matrix(0.3527802,9.1972513e-4,-8.3213226e-4,0.389915,419.8644,126.13066)"
       x1="28.221773"
       y1="58.512177"
       x2="28.244684"
       y2="68.224884" />
    <linearGradient
       inkscape:collect="always"
       xlink:href="#linearGradient4080"
       id="linearGradient4283"
       gradientUnits="userSpaceOnUse"
       x1="315.5625"
       y1="196.5625"
       x2="315.5625"
       y2="181.98914" />
    <linearGradient
       inkscape:collect="always"
       id="linearGradient4080">
      <stop
         style="stop-color:#ffffff;stop-opacity:1;"
         offset="0"
         id="stop4082" />
      <stop
         style="stop-color:#ffffff;stop-opacity:0;"
         offset="1"
         id="stop4084" />
    </linearGradient>
    <linearGradient
       inkscape:collect="always"
       xlink:href="#linearGradient4102"
       id="linearGradient4262"
       gradientUnits="userSpaceOnUse"
       x1="335.375"
       y1="184.5625"
       x2="335.375"
       y2="189.56406"
       gradientTransform="matrix(0.9719021,0,0,0.9557593,-9.6012567,8.4007784)" />
    <linearGradient
       inkscape:collect="always"
       id="linearGradient4102">
      <stop
         style="stop-color:#ffffff;stop-opacity:1;"
         offset="0"
         id="stop4104" />
      <stop
         style="stop-color:#ffffff;stop-opacity:0.8"
         offset="1"
         id="stop4106" />
    </linearGradient>
    <linearGradient
       inkscape:collect="always"
       xlink:href="#linearGradient5036"
       id="linearGradient4273"
       gradientUnits="userSpaceOnUse"
       gradientTransform="matrix(0.5546897,0,0,0.5483654,-4.4123975,-14.546322)"
       x1="17.99999"
       y1="47.659233"
       x2="31.499985"
       y2="47.659233" />
    <linearGradient
       id="linearGradient5036">
      <stop
         id="stop5038"
         offset="0"
         style="stop-color:#f5f5f5;stop-opacity:0.09;" />
      <stop
         id="stop5044"
         offset="0.2631579"
         style="stop-color:#ffffff;stop-opacity:0.89999998;" />
      <stop
         id="stop5088"
         offset="0.74792242"
         style="stop-color:#c7c7c7;stop-opacity:0.46000001;" />
      <stop
         id="stop5040"
         offset="1"
         style="stop-color:#ffffff;stop-opacity:0.78039217;" />
    </linearGradient>
    <linearGradient
       gradientTransform="matrix(0.4013834,0,0,0.4370286,-0.59298771,0.14169853)"
       inkscape:collect="always"
       xlink:href="#linearGradient5068"
       id="linearGradient4258"
       gradientUnits="userSpaceOnUse"
       x1="3.1413867"
       y1="14.1875"
       x2="42.169193"
       y2="14.1875" />
    <linearGradient
       id="linearGradient5068">
      <stop
         id="stop5070"
         offset="0"
         style="stop-color:#ffffff;stop-opacity:1;" />
      <stop
         id="stop5078"
         offset="0.32894737"
         style="stop-color:#ffffff;stop-opacity:0.69;" />
      <stop
         id="stop5076"
         offset="0.65789473"
         style="stop-color:#c2c2c2;stop-opacity:0.34;" />
      <stop
         id="stop5072"
         offset="1"
         style="stop-color:#ffffff;stop-opacity:0;" />
    </linearGradient>
    <linearGradient
       inkscape:collect="always"
       xlink:href="#linearGradient9910"
       id="linearGradient4449"
       gradientUnits="userSpaceOnUse"
       gradientTransform="matrix(-0.2229101,-0.2472796,0.2352898,-0.2585588,0.07108229,32.345178)"
       x1="28.244684"
       y1="60.445503"
       x2="28.244684"
       y2="68.224884" />
    <linearGradient
       id="linearGradient9910">
      <stop
         id="stop9912"
         offset="0"
         style="stop-color:#729fcf;stop-opacity:1;" />
      <stop
         id="stop9918"
         offset="0.31578946"
         style="stop-color:#a5bfda;stop-opacity:1;" />
      <stop
         id="stop9914"
         offset="1"
         style="stop-color:#376ca4;stop-opacity:1;" />
    </linearGradient>
    <clipPath
       clipPathUnits="userSpaceOnUse"
       id="clipPath4455">
      <path
         sodipodi:type="inkscape:offset"
         inkscape:radius="-0.5"
         inkscape:original="M 309.5 185.5 L 309.5 194.5 C 309.5 196.16412 312.188 197.53125 315.5 197.53125 C 318.812 197.53125 321.5 196.16411 321.5 194.5 L 321.5 185.5 C 321.5 187.16411 318.812 188.53125 315.5 188.53125 C 312.188 188.53125 309.5 187.16412 309.5 185.5 z "
         style="opacity:0.3;fill:#808080;fill-opacity:1;fill-rule:evenodd;stroke:none;stroke-width:1.0000006;marker:none;visibility:visible;display:inline;overflow:visible;enable-background:new"
         id="path4457"
         d="m 310,187.30469 0,7.19531 c 0,0.56285 0.4894,1.18965 1.48438,1.69336 0.99497,0.50371 2.42842,0.83789 4.01562,0.83789 1.5872,0 3.02065,-0.33418 4.01562,-0.83789 C 320.5106,195.68964 321,195.06284 321,194.5 l 0,-7.19531 c -0.31229,0.28068 -0.61467,0.57035 -1.03125,0.78125 -1.17703,0.59588 -2.74395,0.94531 -4.46875,0.94531 -1.7248,0 -3.29172,-0.34943 -4.46875,-0.94531 -0.41658,-0.2109 -0.71896,-0.50057 -1.03125,-0.78125 z"
         transform="matrix(1.6511153,-0.2606677,0.21698,1.3743895,-180.20396,-32.290204)" />
    </clipPath>
    <radialGradient
       inkscape:collect="always"
       xlink:href="#linearGradient2984"
       id="radialGradient4313"
       gradientUnits="userSpaceOnUse"
       gradientTransform="matrix(0.0153767,2.923527,2.029691,-0.01067544,20.39098,-69.72665)"
       cx="29.053354"
       cy="27.640751"
       fx="29.053354"
       fy="27.640751"
       r="3.2408545" />
    <radialGradient
       inkscape:collect="always"
       xlink:href="#linearGradient4502"
       id="radialGradient4508"
       cx="311.5"
       cy="232.5"
       fx="311.5"
       fy="232.5"
       r="4.5"
       gradientTransform="matrix(1,0,0,0.44444439,-302.18382,-89.9769)"
       gradientUnits="userSpaceOnUse" />
    <linearGradient
       inkscape:collect="always"
       id="linearGradient4502">
      <stop
         style="stop-color:#808080;stop-opacity:1;"
         offset="0"
         id="stop4504" />
      <stop
         style="stop-color:#808080;stop-opacity:0;"
         offset="1"
         id="stop4506" />
    </linearGradient>
    <linearGradient
       inkscape:collect="always"
       xlink:href="#linearGradient2966"
       id="linearGradient4388"
       gradientUnits="userSpaceOnUse"
       gradientTransform="matrix(0.00525957,0.999987,0.999987,-0.00525957,42.9955,-2.496241)"
       x1="48.90625"
       y1="17.376184"
       x2="50.988335"
       y2="22.250591" />
    <linearGradient
       inkscape:collect="always"
       xlink:href="#linearGradient2974"
       id="linearGradient4390"
       gradientUnits="userSpaceOnUse"
       gradientTransform="matrix(0.00525957,0.999987,0.999987,-0.00525957,42.99552,-2.496241)"
       x1="46"
       y1="19.8125"
       x2="47.6875"
       y2="22.625" />
    <linearGradient
       inkscape:collect="always"
       xlink:href="#linearGradient2994"
       id="linearGradient4392"
       gradientUnits="userSpaceOnUse"
       gradientTransform="matrix(0.00525957,0.999987,0.999987,-0.00525957,48.6929,-14.14491)"
       x1="25.71875"
       y1="31.046875"
       x2="25.514589"
       y2="30.703125" />
  </defs>
  <g
     id="g4394"
     transform="translate(-0.80362744,-0.394699)">
    <ellipse
       id="path4500"
       style="opacity:0.8;fill:url(#radialGradient4508);fill-opacity:1;fill-rule:evenodd;stroke:none;stroke-width:0.51499999;marker:none;visibility:visible;display:inline;overflow:visible;enable-background:accumulate"
       cx="9.3161831"
       cy="13.356431"
       rx="4.5"
       ry="2"
       d="m 13.816183,13.356431 a 4.5,2 0 0 1 -4.4999999,2 4.5,2 0 0 1 -4.5,-2 4.5,2 0 0 1 4.5,-2 4.5,2 0 0 1 4.4999999,2 z" />
    <g
       clip-path="url(#clipPath4455)"
       transform="matrix(0.4889697,0.08348973,-0.07719545,0.5288388,-166.12827,-99.05979)"
       id="g4285"
       style="display:inline;enable-background:new">
      <g
         transform="matrix(0.666667,0,0,0.666667,336.16665,121)"
         inkscape:r_cy="true"
         inkscape:r_cx="true"
         id="g4287">
        <path
           style="fill:#cb9022;fill-opacity:1;fill-rule:evenodd;stroke:none;stroke-width:1.50000119;marker:none;visibility:visible;display:inline;overflow:visible"
           sodipodi:nodetypes="cccccc"
           inkscape:r_cy="true"
           inkscape:r_cx="true"
           id="path4289"
           d="M 81.189325,8.8512115 75.593983,14.505723 60.324794,46.150492 c -1.23289,3.256532 3.40224,5.169682 5.012098,2.286172 L 80.231414,16.856367 81.189325,8.8512115 Z"
           inkscape:connector-curvature="0" />
        <path
           style="fill:url(#linearGradient4388);fill-opacity:1;fill-rule:evenodd;stroke:none;stroke-width:1;marker:none;visibility:visible;display:inline;overflow:visible"
           sodipodi:nodetypes="czcczcc"
           inkscape:r_cy="true"
           inkscape:r_cx="true"
           id="path4291"
           d="m 63.226659,41.398 c 0,0 0.101309,1.436989 1.354252,1.992907 1.290792,0.572712 2.656215,-0.01397 2.656215,-0.01397 l -2.442255,5.044169 c 0,0 -0.873719,1.456649 -2.840262,0.671199 -1.93968,-0.774722 -1.17037,-2.681384 -1.17037,-2.681384 l 2.44242,-5.01292 z"
           inkscape:connector-curvature="0" />
        <path
           style="fill:url(#linearGradient4390);fill-opacity:1;fill-rule:evenodd;stroke:none;stroke-width:1;marker:none;visibility:visible;display:inline;overflow:visible"
           sodipodi:nodetypes="czcczcc"
           inkscape:r_cy="true"
           inkscape:r_cx="true"
           id="path4293"
           d="m 63.226659,41.398 c 0,0 0.101309,1.436989 1.354252,1.992907 1.290792,0.572712 2.656215,-0.01397 2.656215,-0.01397 l -0.989468,2.005234 c 0,0 -1.3145,0.833957 -2.686314,0.232882 -1.409519,-0.617596 -1.324153,-2.211818 -1.324153,-2.211818 L 63.226659,41.398 Z"
           inkscape:connector-curvature="0" />
        <path
           style="fill:url(#radialGradient4313);fill-opacity:1;fill-rule:evenodd;stroke:none;stroke-width:1;marker:none;visibility:visible;display:inline;overflow:visible"
           sodipodi:nodetypes="cccc"
           inkscape:r_cy="true"
           inkscape:r_cx="true"
           id="path4295"
           d="m 80.47809,10.282021 -4.476274,4.52361 c 0.820379,1.495707 2.168221,2.269879 3.728563,1.855416 l 0.747711,-6.379026 z"
           inkscape:connector-curvature="0" />
        <path
           style="fill:url(#linearGradient4392);fill-opacity:1;fill-rule:evenodd;stroke:none;stroke-width:1;marker:none;visibility:visible;display:inline;overflow:visible"
           sodipodi:nodetypes="cccc"
           inkscape:r_cy="true"
           inkscape:r_cx="true"
           id="path4297"
           d="m 79.078925,11.63315 1.585183,-1.6333612 -0.300169,2.3453632 c -0.71759,0.222527 -1.063472,-0.181909 -1.285014,-0.712002 z"
           inkscape:connector-curvature="0" />
        <path
           style="fill:#ffffff;fill-opacity:0.36363639;fill-rule:evenodd;stroke:none;stroke-width:1;marker:none;visibility:visible;display:inline;overflow:visible"
           sodipodi:nodetypes="ccccc"
           inkscape:r_cy="true"
           inkscape:r_cx="true"
           id="path4299"
           d="M 75.970567,14.805795 77.228768,16.3617 64.439998,43.316362 C 63.581628,42.876439 63.348884,42.080316 63.26774,41.419121 L 75.970567,14.805795 Z"
           inkscape:connector-curvature="0" />
        <path
           style="fill:#000000;fill-opacity:0.36363639;fill-rule:evenodd;stroke:none;stroke-width:1;marker:none;visibility:visible;display:inline;overflow:visible"
           sodipodi:nodetypes="ccccc"
           inkscape:r_cy="true"
           inkscape:r_cx="true"
           id="path4301"
           d="m 79.792879,16.660719 -0.749004,0.191442 -12.549399,26.768391 c 0,0 0.61304,-0.113386 0.748205,-0.219818 L 79.792879,16.660719 Z"
           inkscape:connector-curvature="0" />
      </g>
      <path
         style="fill:none;stroke:#8f5902;stroke-width:1.00036561;stroke-linecap:butt;stroke-linejoin:miter;stroke-miterlimit:4;stroke-opacity:1;stroke-dasharray:none;stroke-dashoffset:0;marker:none;visibility:visible;display:inline;overflow:visible"
         sodipodi:nodetypes="cccccc"
         inkscape:r_cy="true"
         inkscape:r_cx="true"
         id="path4303"
         d="m 390.29289,126.90081 -3.73023,3.76967 -10.17946,21.09653 c -0.82193,2.17102 2.26816,3.44645 3.3414,1.52411 l 9.92969,-21.05354 0.6386,-5.33677 z"
         inkscape:connector-curvature="0" />
      <path
         style="opacity:0.72527472;fill:#ffffff;fill-opacity:1;fill-rule:evenodd;stroke:none;stroke-width:1;marker:none;visibility:visible;display:inline;overflow:visible"
         inkscape:r_cy="true"
         inkscape:r_cx="true"
         id="path4305"
         d="m 389.98792,127.6828 -3.18198,3.24091 -5.53901,11.51995 5.80417,-11.19586 2.91682,-3.565 z"
         inkscape:connector-curvature="0" />
      <path
         style="opacity:0.41758243;fill:#ffffff;fill-opacity:1;fill-rule:evenodd;stroke:none;stroke-width:1;marker:none;visibility:visible;display:inline;overflow:visible"
         inkscape:r_cy="true"
         inkscape:r_cx="true"
         id="path4307"
         d="m 389.89953,127.6828 -0.58925,4.47834 -4.50781,9.60488 4.36049,-9.63434 -0.35355,0.0589 1.09012,-4.50781 z"
         inkscape:connector-curvature="0" />
    </g>
    <path
       sodipodi:nodetypes="cccsssssssssssssssc"
       d="m 7.1983523,8.9517985 c 1.32245,1.4267205 2.59411,2.6336605 3.6213507,3.4751605 2.1103,0.77635 1.29543,-0.59989 1.26977,-1.39535 -0.85313,-1.2821505 -2.1278107,-2.9025305 -3.6307807,-4.5698205 -2.71302,-3.00958 -2.85614,-2.50302 -3.76834,-2.62341 -0.0279,-0.003 -0.0653,-0.007 -0.09,-0.006 -0.0173,10e-4 -0.0422,0.008 -0.0577,0.0108 -0.0244,0.006 -0.0548,0.0183 -0.0746,0.0294 -0.005,0.003 -0.0204,0.006 -0.0249,0.01 -0.004,0.003 -0.0128,0.0148 -0.0169,0.0186 -0.002,0.002 -0.007,0.007 -0.008,0.009 -0.002,0.002 -0.007,0.007 -0.008,0.009 -0.003,0.005 -0.0138,0.0138 -0.0169,0.0186 -0.003,0.005 -0.006,0.0221 -0.009,0.0274 -0.0102,0.0218 -0.0217,0.0554 -0.027,0.0822 -0.003,0.0172 -0.009,0.0446 -0.01,0.0636 -8.7e-4,0.0272 0.003,0.0686 0.005,0.0994 0.10475,1.00772 -0.36682,1.17661 2.34619,4.1862 0.16882,0.18727 0.33308,0.37462 0.50042,0.55513 z"
       id="path4337"
       inkscape:r_cx="true"
       inkscape:r_cy="true"
       style="fill:url(#linearGradient4449);fill-opacity:1;fill-rule:evenodd;stroke:#3465a4;stroke-width:0.85154063;stroke-linecap:butt;stroke-linejoin:miter;stroke-miterlimit:4;stroke-opacity:1;stroke-dasharray:none;stroke-dashoffset:0;marker:none;visibility:visible;display:inline;overflow:visible;enable-background:new"
       inkscape:connector-curvature="0" />
    <ellipse
       style="fill:url(#linearGradient4258);fill-opacity:1;fill-rule:evenodd;stroke:#babdb6;stroke-width:1;stroke-linecap:butt;stroke-linejoin:miter;stroke-miterlimit:4;stroke-opacity:1;stroke-dasharray:none;stroke-dashoffset:0;marker:none;visibility:visible;display:inline;overflow:visible;enable-background:new"
       inkscape:r_cy="true"
       inkscape:r_cx="true"
       id="path4210"
       cx="9.316165"
       cy="6.342042"
       rx="4.9922061"
       ry="2.4856002"
       d="M 14.308371,6.342042 A 4.9922061,2.4856002 0 0 1 9.316165,8.8276422 4.9922061,2.4856002 0 0 1 4.3239589,6.342042 4.9922061,2.4856002 0 0 1 9.316165,3.8564417 4.9922061,2.4856002 0 0 1 14.308371,6.342042 Z" />
    <path
       id="path4212"
       d="m 4.3239623,6.4102885 0,7.1696305 c 0,1.32568 2.23651,2.41478 4.99221,2.41478 2.7556907,0 4.9922007,-1.0891 4.9922007,-2.41478 l 0,-7.1696305 c 0,1.32567 -2.23651,2.41477 -4.9922007,2.41477 -2.7557,0 -4.99221,-1.08909 -4.99221,-2.41477 z"
       style="fill:url(#linearGradient4273);fill-opacity:1;fill-rule:evenodd;stroke:#888a85;stroke-width:1;stroke-linecap:butt;stroke-linejoin:round;stroke-miterlimit:4;stroke-opacity:1;stroke-dasharray:none;stroke-dashoffset:0;marker:none;visibility:visible;display:inline;overflow:visible;enable-background:new"
       inkscape:connector-curvature="0" />
    <g
       transform="matrix(0.8320342,0,0,0.7966259,-253.19062,-141.36381)"
       style="opacity:0.8;display:inline;enable-background:new"
       id="g4214">
      <path
         sodipodi:nodetypes="csccsssccsc"
         id="path4216"
         d="m 315.5,183.53861 c -1.47962,0 -2.82447,0.28368 -3.70538,0.71682 -0.88091,0.43314 -1.15413,0.91411 -1.15413,1.1947 l 0,8.84583 c 0,0.28696 0.30378,0.75624 1.1845,1.1947 0.88072,0.43847 2.19763,0.74669 3.67501,0.74669 1.47737,0 2.79428,-0.30822 3.675,-0.74669 0.88072,-0.43846 1.18451,-0.90774 1.18451,-1.1947 l 0,-8.84583 c 0,-0.28059 -0.27322,-0.76156 -1.15414,-1.1947 -0.88091,-0.43314 -2.22576,-0.71682 -3.70537,-0.71682 z"
         style="fill:none;stroke:url(#linearGradient4262);stroke-width:1.22829366;stroke-linecap:butt;stroke-linejoin:miter;stroke-miterlimit:4;stroke-opacity:1;stroke-dashoffset:0;marker:none;visibility:visible;display:inline;overflow:visible;enable-background:new"
         inkscape:connector-curvature="0" />
      <path
         style="fill:none;stroke:#ffffff;stroke-width:1.22829366;stroke-linecap:butt;stroke-linejoin:miter;stroke-miterlimit:4;stroke-opacity:1;stroke-dashoffset:0;marker:none;visibility:visible;display:inline;overflow:visible;enable-background:new"
         d="m 320.3075,188.16968 c 0,0.91425 -2.15375,1.65625 -4.80749,1.65625 -2.65374,0 -4.80749,-0.742 -4.80749,-1.65625"
         id="path4218"
         sodipodi:nodetypes="css"
         inkscape:connector-curvature="0" />
    </g>
    <path
       transform="matrix(0.8274677,0,0,0.7449461,-251.74988,-131.18128)"
       d="m 310,187.30469 0,7.19531 c 0,0.56285 0.4894,1.18965 1.48438,1.69336 0.99497,0.50371 2.42842,0.83789 4.01562,0.83789 1.5872,0 3.02065,-0.33418 4.01562,-0.83789 C 320.5106,195.68964 321,195.06284 321,194.5 l 0,-7.19531 c -0.31229,0.28068 -0.61467,0.57035 -1.03125,0.78125 -1.17703,0.59588 -2.74395,0.94531 -4.46875,0.94531 -1.7248,0 -3.29172,-0.34943 -4.46875,-0.94531 -0.41658,-0.2109 -0.71896,-0.50057 -1.03125,-0.78125 z"
       id="path4220"
       style="opacity:0.2;fill:url(#linearGradient4283);fill-opacity:1;fill-rule:evenodd;stroke:none;stroke-width:1.0000006;marker:none;visibility:visible;display:inline;overflow:visible;enable-background:new"
       inkscape:original="M 309.5 185.5 L 309.5 194.5 C 309.5 196.16412 312.188 197.53125 315.5 197.53125 C 318.812 197.53125 321.5 196.16411 321.5 194.5 L 321.5 185.5 C 321.5 187.16411 318.812 188.53125 315.5 188.53125 C 312.188 188.53125 309.5 187.16412 309.5 185.5 z "
       inkscape:radius="-0.5"
       sodipodi:type="inkscape:offset" />
    <g
       transform="matrix(0.8048101,0,0,0.8048101,-243.04128,-142.84506)"
       id="g4317"
       style="display:inline;enable-background:new">
      <rect
         transform="matrix(-0.7071068,-0.7071068,0.7071068,-0.7071068,498.74862,587.22691)"
         ry="1.5000001"
         rx="1.5000001"
         y="149.5"
         x="416"
         height="3.0000002"
         width="10.5"
         id="rect4323"
         style="fill:url(#linearGradient4327);fill-opacity:1;fill-rule:evenodd;stroke:#888a85;stroke-width:1.00000012;stroke-linecap:butt;stroke-linejoin:miter;stroke-miterlimit:4;stroke-opacity:1;stroke-dasharray:none;stroke-dashoffset:0;marker:none;visibility:visible;display:inline;overflow:visible;enable-background:accumulate" />
      <rect
         transform="matrix(-0.7071068,-0.7071068,0.7071068,-0.7071068,498.74862,587.22691)"
         y="149.5"
         x="415.05435"
         height="3.0000081"
         width="8.4453068"
         id="rect4325"
         style="fill:url(#linearGradient4329);fill-opacity:1;fill-rule:evenodd;stroke:#888a85;stroke-width:1.00000012;stroke-linecap:butt;stroke-linejoin:miter;stroke-miterlimit:4;stroke-opacity:1;stroke-dasharray:none;stroke-dashoffset:0;marker:none;visibility:visible;display:inline;overflow:visible;enable-background:accumulate" />
    </g>
    <g
       clip-path="url(#clipPath4496)"
       transform="matrix(0.4889697,0.08348973,-0.07719545,0.5288388,-166.12827,-99.05979)"
       id="g4459"
       style="display:inline;enable-background:new">
      <g
         transform="matrix(0.666667,0,0,0.666667,336.16665,121)"
         inkscape:r_cy="true"
         inkscape:r_cx="true"
         id="g4461">
        <path
           style="fill:#cb9022;fill-opacity:1;fill-rule:evenodd;stroke:none;stroke-width:1.50000119;marker:none;visibility:visible;display:inline;overflow:visible"
           sodipodi:nodetypes="cccccc"
           inkscape:r_cy="true"
           inkscape:r_cx="true"
           id="path4463"
           d="M 81.189325,8.8512115 75.593983,14.505723 60.324794,46.150492 c -1.23289,3.256532 3.40224,5.169682 5.012098,2.286172 L 80.231414,16.856367 81.189325,8.8512115 Z"
           inkscape:connector-curvature="0" />
        <path
           style="fill:url(#linearGradient4483);fill-opacity:1;fill-rule:evenodd;stroke:none;stroke-width:1;marker:none;visibility:visible;display:inline;overflow:visible"
           sodipodi:nodetypes="czcczcc"
           inkscape:r_cy="true"
           inkscape:r_cx="true"
           id="path4465"
           d="m 63.226659,41.398 c 0,0 0.101309,1.436989 1.354252,1.992907 1.290792,0.572712 2.656215,-0.01397 2.656215,-0.01397 l -2.442255,5.044169 c 0,0 -0.873719,1.456649 -2.840262,0.671199 -1.93968,-0.774722 -1.17037,-2.681384 -1.17037,-2.681384 l 2.44242,-5.01292 z"
           inkscape:connector-curvature="0" />
        <path
           style="fill:url(#linearGradient4485);fill-opacity:1;fill-rule:evenodd;stroke:none;stroke-width:1;marker:none;visibility:visible;display:inline;overflow:visible"
           sodipodi:nodetypes="czcczcc"
           inkscape:r_cy="true"
           inkscape:r_cx="true"
           id="path4467"
           d="m 63.226659,41.398 c 0,0 0.101309,1.436989 1.354252,1.992907 1.290792,0.572712 2.656215,-0.01397 2.656215,-0.01397 l -0.989468,2.005234 c 0,0 -1.3145,0.833957 -2.686314,0.232882 -1.409519,-0.617596 -1.324153,-2.211818 -1.324153,-2.211818 L 63.226659,41.398 Z"
           inkscape:connector-curvature="0" />
        <path
           style="fill:url(#radialGradient4487);fill-opacity:1;fill-rule:evenodd;stroke:none;stroke-width:1;marker:none;visibility:visible;display:inline;overflow:visible"
           sodipodi:nodetypes="cccc"
           inkscape:r_cy="true"
           inkscape:r_cx="true"
           id="path4469"
           d="m 80.47809,10.282021 -4.476274,4.52361 c 0.820379,1.495707 2.168221,2.269879 3.728563,1.855416 l 0.747711,-6.379026 z"
           inkscape:connector-curvature="0" />
        <path
           style="fill:url(#linearGradient4489);fill-opacity:1;fill-rule:evenodd;stroke:none;stroke-width:1;marker:none;visibility:visible;display:inline;overflow:visible"
           sodipodi:nodetypes="cccc"
           inkscape:r_cy="true"
           inkscape:r_cx="true"
           id="path4471"
           d="m 79.078925,11.63315 1.585183,-1.6333612 -0.300169,2.3453632 c -0.71759,0.222527 -1.063472,-0.181909 -1.285014,-0.712002 z"
           inkscape:connector-curvature="0" />
        <path
           style="fill:#ffffff;fill-opacity:0.36363639;fill-rule:evenodd;stroke:none;stroke-width:1;marker:none;visibility:visible;display:inline;overflow:visible"
           sodipodi:nodetypes="ccccc"
           inkscape:r_cy="true"
           inkscape:r_cx="true"
           id="path4473"
           d="M 75.970567,14.805795 77.228768,16.3617 64.439998,43.316362 C 63.581628,42.876439 63.348884,42.080316 63.26774,41.419121 L 75.970567,14.805795 Z"
           inkscape:connector-curvature="0" />
        <path
           style="fill:#000000;fill-opacity:0.36363639;fill-rule:evenodd;stroke:none;stroke-width:1;marker:none;visibility:visible;display:inline;overflow:visible"
           sodipodi:nodetypes="ccccc"
           inkscape:r_cy="true"
           inkscape:r_cx="true"
           id="path4475"
           d="m 79.792879,16.660719 -0.749004,0.191442 -12.549399,26.768391 c 0,0 0.61304,-0.113386 0.748205,-0.219818 L 79.792879,16.660719 Z"
           inkscape:connector-curvature="0" />
      </g>
      <path
         style="fill:none;stroke:#8f5902;stroke-width:1.00036561;stroke-linecap:butt;stroke-linejoin:miter;stroke-miterlimit:4;stroke-opacity:1;stroke-dasharray:none;stroke-dashoffset:0;marker:none;visibility:visible;display:inline;overflow:visible"
         sodipodi:nodetypes="cccccc"
         inkscape:r_cy="true"
         inkscape:r_cx="true"
         id="path4477"
         d="m 390.29289,126.90081 -3.73023,3.76967 -10.17946,21.09653 c -0.82193,2.17102 2.26816,3.44645 3.3414,1.52411 l 9.92969,-21.05354 0.6386,-5.33677 z"
         inkscape:connector-curvature="0" />
      <path
         style="opacity:0.72527472;fill:#ffffff;fill-opacity:1;fill-rule:evenodd;stroke:none;stroke-width:1;marker:none;visibility:visible;display:inline;overflow:visible"
         inkscape:r_cy="true"
         inkscape:r_cx="true"
         id="path4479"
         d="m 389.98792,127.6828 -3.18198,3.24091 -5.53901,11.51995 5.80417,-11.19586 2.91682,-3.565 z"
         inkscape:connector-curvature="0" />
      <path
         style="opacity:0.41758243;fill:#ffffff;fill-opacity:1;fill-rule:evenodd;stroke:none;stroke-width:1;marker:none;visibility:visible;display:inline;overflow:visible"
         inkscape:r_cy="true"
         inkscape:r_cx="true"
         id="path4481"
         d="m 389.89953,127.6828 -0.58925,4.47834 -4.50781,9.60488 4.36049,-9.63434 -0.35355,0.0589 1.09012,-4.50781 z"
         inkscape:connector-curvature="0" />
    </g>
    <path
       sodipodi:open="true"
       d="m -8.9520984,-1.0714851 a 4.3128576,1.6316893 0 0 1 6.8875446,0.93021679"
       id="path4510"
       inkscape:r_cx="true"
       inkscape:r_cy="true"
       sodipodi:cx="-6.2771821"
       sodipodi:cy="0.20845878"
       sodipodi:end="6.067175"
       sodipodi:rx="4.3128576"
       sodipodi:ry="1.6316893"
       sodipodi:start="4.0433671"
       sodipodi:type="arc"
       style="fill:none;stroke:#888a85;stroke-width:0.8132773;stroke-linecap:butt;stroke-linejoin:miter;stroke-miterlimit:4;stroke-opacity:1;stroke-dasharray:none;stroke-dashoffset:0;marker:none;visibility:visible;display:inline;overflow:visible;enable-background:new"
       transform="matrix(-0.66410725,-0.74763732,0.80691826,-0.59066312,0,0)" />
    <path
       d="m -6.7075318,-1.0395695 a 1.0674635,0.56132835 0 0 1 -2.0177503,0.36527993 l 0.9984945,-0.198496 z"
       id="path4512"
       inkscape:r_cx="true"
       inkscape:r_cy="true"
       sodipodi:cx="-7.7267876"
       sodipodi:cy="-0.87278557"
       sodipodi:end="2.7801561"
       sodipodi:rx="1.0674635"
       sodipodi:ry="0.56132835"
       sodipodi:start="5.9815064"
       sodipodi:type="arc"
       style="fill:#729fcf;fill-opacity:1;fill-rule:evenodd;stroke:#888a85;stroke-width:0.99999976;stroke-linecap:butt;stroke-linejoin:miter;stroke-miterlimit:4;stroke-opacity:1;stroke-dasharray:none;stroke-dashoffset:0;marker:none;visibility:visible;display:inline;overflow:visible;enable-background:new"
       transform="matrix(-0.62853453,-0.77778168,0.77778148,-0.62853477,0,0)" />
  </g>
</svg>
