<?xml version="1.0" encoding="UTF-8" standalone="no"?>
<svg
   xmlns:dc="http://purl.org/dc/elements/1.1/"
   xmlns:cc="http://creativecommons.org/ns#"
   xmlns:rdf="http://www.w3.org/1999/02/22-rdf-syntax-ns#"
   xmlns:svg="http://www.w3.org/2000/svg"
   xmlns="http://www.w3.org/2000/svg"
   xmlns:xlink="http://www.w3.org/1999/xlink"
   id="svg5954"
   height="32"
   width="32"
   version="1.0">
  <metadata
     id="metadata98032">
    <rdf:RDF>
      <cc:Work
         rdf:about="">
        <dc:format>image/svg+xml</dc:format>
        <dc:type
           rdf:resource="http://purl.org/dc/dcmitype/StillImage" />
        <dc:title />
      </cc:Work>
    </rdf:RDF>
  </metadata>
  <defs
     id="defs5956">
    <radialGradient
       gradientTransform="matrix(0.04433975,0,0,0.01450725,0.00807152,20.557755)"
       gradientUnits="userSpaceOnUse"
       xlink:href="#linearGradient5060"
       id="radialGradient5928"
       fy="486.64789"
       fx="605.71429"
       r="117.14286"
       cy="486.64789"
       cx="605.71429" />
    <linearGradient
       id="linearGradient5048">
      <stop
         offset="0"
         style="stop-color:#000000;stop-opacity:0"
         id="stop5050" />
      <stop
         offset="0.5"
         style="stop-color:#000000;stop-opacity:1"
         id="stop5056" />
      <stop
         offset="1"
         style="stop-color:#000000;stop-opacity:0"
         id="stop5052" />
    </linearGradient>
    <linearGradient
       gradientTransform="matrix(0.04433975,0,0,0.01450725,-6.5449383e-4,20.557755)"
       gradientUnits="userSpaceOnUse"
       xlink:href="#linearGradient5048"
       id="linearGradient5931"
       y2="609.50507"
       x2="302.85715"
       y1="366.64789"
       x1="302.85715" />
    <linearGradient
       id="linearGradient5060">
      <stop
         offset="0"
         style="stop-color:#000000;stop-opacity:1"
         id="stop5062" />
      <stop
         offset="1"
         style="stop-color:#000000;stop-opacity:0"
         id="stop5064" />
    </linearGradient>
    <radialGradient
       gradientTransform="matrix(-0.04433975,0,0,0.01450725,32.041929,20.557755)"
       gradientUnits="userSpaceOnUse"
       xlink:href="#linearGradient5060"
       id="radialGradient5934"
       fy="486.64789"
       fx="605.71429"
       r="117.14286"
       cy="486.64789"
       cx="605.71429" />
    <linearGradient
       id="linearGradient18344">
      <stop
         offset="0"
         style="stop-color:#2f3537;stop-opacity:1"
         id="stop18346" />
      <stop
         offset="0.30000001"
         style="stop-color:#8a8e8e;stop-opacity:1"
         id="stop18354" />
      <stop
         offset="1"
         style="stop-color:#2f3537;stop-opacity:1"
         id="stop18348" />
    </linearGradient>
    <linearGradient
       gradientTransform="matrix(0.70725264,0,0,0.70360448,-37.751202,1.8170971)"
       gradientUnits="userSpaceOnUse"
       xlink:href="#linearGradient18344"
       id="linearGradient5809"
       y2="45.818478"
       x2="8.5625"
       y1="4.646832"
       x1="8.5625" />
    <linearGradient
       id="linearGradient5428">
      <stop
         offset="0"
         style="stop-color:#7a7c7c;stop-opacity:1"
         id="stop5430" />
      <stop
         offset="1"
         style="stop-color:#33393a;stop-opacity:1"
         id="stop5432" />
    </linearGradient>
    <radialGradient
       gradientTransform="matrix(2.9751582,1.3635123e-8,0,0.09864183,-210.48741,8.9344922)"
       gradientUnits="userSpaceOnUse"
       xlink:href="#linearGradient5428"
       id="radialGradient5807"
       fy="14.781876"
       fx="76.16552"
       r="20.999798"
       cy="14.781876"
       cx="76.16552" />
    <linearGradient
       id="linearGradient25793">
      <stop
         offset="0"
         style="stop-color:#f0f0f4;stop-opacity:1"
         id="stop25795" />
      <stop
         offset="0.03744119"
         style="stop-color:#eeeeec;stop-opacity:1"
         id="stop25819" />
      <stop
         offset="0.39254159"
         style="stop-color:#eeeeec;stop-opacity:0.69594592"
         id="stop25817" />
      <stop
         offset="0.90799886"
         style="stop-color:#a1a29f;stop-opacity:1"
         id="stop25803" />
      <stop
         offset="1"
         style="stop-color:#555753;stop-opacity:1"
         id="stop25799" />
    </linearGradient>
    <linearGradient
       gradientTransform="matrix(0.10774189,0,0,0.10858864,-61.52751,-25.593557)"
       gradientUnits="userSpaceOnUse"
       xlink:href="#linearGradient25793"
       id="linearGradient5925"
       y2="496.33771"
       x2="700.41443"
       y1="327.78354"
       x1="697.91443" />
    <linearGradient
       id="linearGradient26816">
      <stop
         offset="0"
         style="stop-color:#ffffff;stop-opacity:1"
         id="stop26818" />
      <stop
         offset="1"
         style="stop-color:#eeeeec;stop-opacity:0"
         id="stop26820" />
    </linearGradient>
    <radialGradient
       gradientTransform="matrix(0.77626712,2.2769199e-5,-1.0339273e-5,0.36464936,-291.01826,-33.458701)"
       gradientUnits="userSpaceOnUse"
       xlink:href="#linearGradient26816"
       id="radialGradient5813"
       fy="127.65469"
       fx="400.29608"
       r="2.0221689"
       cy="127.65469"
       cx="400.29608" />
    <linearGradient
       id="linearGradient26830">
      <stop
         offset="0"
         style="stop-color:#ffffff;stop-opacity:1"
         id="stop26832" />
      <stop
         offset="1"
         style="stop-color:#ffffff;stop-opacity:0"
         id="stop26834" />
    </linearGradient>
    <radialGradient
       gradientTransform="matrix(0.67291593,-0.06645368,0.08710897,0.31229929,-260.31505,0.26203708)"
       gradientUnits="userSpaceOnUse"
       xlink:href="#linearGradient26830"
       id="radialGradient5815"
       fy="127.24747"
       fx="399.8783"
       r="2.0221689"
       cy="127.24747"
       cx="399.8783" />
    <linearGradient
       id="linearGradient18403">
      <stop
         offset="0"
         style="stop-color:#eeeeec;stop-opacity:1"
         id="stop18405" />
      <stop
         offset="1"
         style="stop-color:#eeeeec;stop-opacity:0"
         id="stop18407" />
    </linearGradient>
    <radialGradient
       gradientTransform="matrix(-0.31378687,0.07150766,-0.05719547,-0.25048924,161.07577,-8.2354618)"
       gradientUnits="userSpaceOnUse"
       xlink:href="#linearGradient18403"
       id="radialGradient5821"
       fy="33.604549"
       fx="427.79684"
       r="74.907745"
       cy="33.604549"
       cx="427.79684" />
    <linearGradient
       id="linearGradient26168">
      <stop
         offset="0"
         style="stop-color:#eeeeec;stop-opacity:1"
         id="stop26170" />
      <stop
         offset="1"
         style="stop-color:#eeeeec;stop-opacity:0"
         id="stop26172" />
    </linearGradient>
    <radialGradient
       gradientTransform="matrix(0.07630213,-0.05296767,0.02608792,0.04146104,-19.397882,41.216047)"
       gradientUnits="userSpaceOnUse"
       xlink:href="#linearGradient26168"
       id="radialGradient5823"
       fy="217.46133"
       fx="502.53064"
       r="74.907745"
       cy="217.46133"
       cx="502.53064" />
    <linearGradient
       id="linearGradient26128">
      <stop
         offset="0"
         style="stop-color:#eeeeec;stop-opacity:0.9527027"
         id="stop26130" />
      <stop
         offset="0.47988781"
         style="stop-color:#eeeeec;stop-opacity:0"
         id="stop26146" />
      <stop
         offset="0.5229584"
         style="stop-color:#eeeeec;stop-opacity:0.99324322"
         id="stop26148" />
      <stop
         offset="0.63153976"
         style="stop-color:#eeeeec;stop-opacity:0"
         id="stop26132" />
      <stop
         offset="0.7383545"
         style="stop-color:#eeeeec;stop-opacity:0.23529412"
         id="stop26134" />
      <stop
         offset="0.83400774"
         style="stop-color:#ffffff;stop-opacity:0.71621621"
         id="stop26136" />
      <stop
         offset="0.90514386"
         style="stop-color:#f6f6f5;stop-opacity:0.27027026"
         id="stop26142" />
      <stop
         offset="0.90514386"
         style="stop-color:#f2f2f0;stop-opacity:0.27702704"
         id="stop26144" />
      <stop
         offset="1"
         style="stop-color:#eeeeec;stop-opacity:0"
         id="stop26138" />
    </linearGradient>
    <radialGradient
       gradientTransform="matrix(0.10565813,-1.6278061e-8,0,0.08728006,-28.544917,4.1299954)"
       gradientUnits="userSpaceOnUse"
       xlink:href="#linearGradient26128"
       id="radialGradient5825"
       fy="170.414"
       fx="459.45273"
       r="74.907745"
       cy="170.414"
       cx="459.45273" />
    <linearGradient
       id="linearGradient26021">
      <stop
         offset="0"
         style="stop-color:#eeeeec;stop-opacity:0"
         id="stop26023" />
      <stop
         offset="0.86670214"
         style="stop-color:#eeeeec;stop-opacity:0.49803922"
         id="stop26029" />
      <stop
         offset="1"
         style="stop-color:#eeeeec;stop-opacity:0"
         id="stop26025" />
    </linearGradient>
    <radialGradient
       gradientTransform="matrix(0,-0.06886933,0.07543903,0,7.5713179,49.250391)"
       gradientUnits="userSpaceOnUse"
       xlink:href="#linearGradient26021"
       id="radialGradient5827"
       fy="165.51567"
       fx="449.88171"
       r="74.907745"
       cy="165.51567"
       cx="449.88171" />
    <linearGradient
       id="linearGradient26120">
      <stop
         offset="0"
         style="stop-color:#2e3436;stop-opacity:0"
         id="stop26122" />
      <stop
         offset="0.47336468"
         style="stop-color:#2e3436;stop-opacity:0"
         id="stop26124" />
      <stop
         offset="1"
         style="stop-color:#0f1112;stop-opacity:1"
         id="stop26126" />
    </linearGradient>
    <radialGradient
       gradientTransform="matrix(0,0.07163003,-0.07211994,0,26.936573,-18.628034)"
       gradientUnits="userSpaceOnUse"
       xlink:href="#linearGradient26120"
       id="radialGradient5829"
       fy="95.381569"
       fx="529.39941"
       r="74.907745"
       cy="95.381569"
       cx="529.39941" />
    <linearGradient
       gradientTransform="matrix(0.0667546,0,0,0.09304403,-10.462242,2.9126576)"
       gradientUnits="userSpaceOnUse"
       xlink:href="#linearGradient26075"
       id="linearGradient5831"
       y2="225.83026"
       x2="280.0184"
       y1="126.83501"
       x1="469.35895" />
    <linearGradient
       id="linearGradient26075">
      <stop
         offset="0"
         style="stop-color:#555753;stop-opacity:0"
         id="stop26077" />
      <stop
         offset="1"
         style="stop-color:#eeeeec;stop-opacity:1"
         id="stop26079" />
    </linearGradient>
    <radialGradient
       gradientTransform="matrix(-0.00980351,-0.17660648,0.06689297,-0.00396058,8.8057406,82.012915)"
       gradientUnits="userSpaceOnUse"
       xlink:href="#linearGradient26075"
       id="radialGradient5833"
       fy="218.66101"
       fx="344.26065"
       r="74.907745"
       cy="218.66101"
       cx="344.26065" />
    <radialGradient
       gradientTransform="matrix(-0.10037164,-0.09809974,0.08790763,-0.09307772,58.216204,72.077454)"
       gradientUnits="userSpaceOnUse"
       xlink:href="#linearGradient8660"
       id="radialGradient5835"
       fy="131.83463"
       fx="469.91165"
       r="74.907745"
       cy="131.83463"
       cx="469.91165" />
    <linearGradient
       id="linearGradient8690">
      <stop
         offset="0"
         style="stop-color:#3a3a3a;stop-opacity:1"
         id="stop8692" />
      <stop
         offset="1"
         style="stop-color:#3a3a3a;stop-opacity:0"
         id="stop8694" />
    </linearGradient>
    <radialGradient
       gradientTransform="matrix(-0.00919127,-0.06348048,0.20835984,-0.03171256,-3.1580194,48.24243)"
       gradientUnits="userSpaceOnUse"
       xlink:href="#linearGradient8690"
       id="radialGradient5839"
       fy="130.89047"
       fx="441.3573"
       r="75.756241"
       cy="130.89047"
       cx="441.3573" />
    <linearGradient
       id="linearGradient8660">
      <stop
         offset="0"
         style="stop-color:#2e3436;stop-opacity:1"
         id="stop8662" />
      <stop
         offset="1"
         style="stop-color:#555753;stop-opacity:0"
         id="stop8664" />
    </linearGradient>
    <radialGradient
       gradientTransform="matrix(-0.10731127,0.11002336,-0.14194397,-0.1455318,80.693051,-16.930906)"
       gradientUnits="userSpaceOnUse"
       xlink:href="#linearGradient8660"
       id="radialGradient5837"
       fy="98.974625"
       fx="434.12521"
       r="74.907745"
       cy="98.974625"
       cx="434.12521" />
    <linearGradient
       id="linearGradient26091">
      <stop
         offset="0"
         style="stop-color:#2e3436;stop-opacity:1"
         id="stop26093" />
      <stop
         offset="1"
         style="stop-color:#ffffff;stop-opacity:1"
         id="stop26095" />
    </linearGradient>
    <linearGradient
       gradientTransform="matrix(0.05176062,0,0,0.07214513,-3.6070641,8.6511492)"
       gradientUnits="userSpaceOnUse"
       xlink:href="#linearGradient26091"
       id="linearGradient5904"
       y2="114.22821"
       x2="457.19556"
       y1="289.77823"
       x1="457.19556" />
    <linearGradient
       id="linearGradient26099">
      <stop
         offset="0"
         style="stop-color:#eeeeec;stop-opacity:1"
         id="stop26101" />
      <stop
         offset="1"
         style="stop-color:#babdb6;stop-opacity:1"
         id="stop26103" />
    </linearGradient>
    <radialGradient
       gradientTransform="matrix(0.05074333,-0.04046569,0.08250091,0.10963528,-13.209399,24.756867)"
       gradientUnits="userSpaceOnUse"
       xlink:href="#linearGradient26099"
       id="radialGradient5902"
       fy="111.3"
       fx="439.04871"
       r="75.752426"
       cy="111.3"
       cx="439.04871" />
    <linearGradient
       gradientTransform="matrix(0.09917043,0,0,0.09539514,-3.8648481,4.1246104)"
       gradientUnits="userSpaceOnUse"
       xlink:href="#linearGradient9688"
       id="linearGradient5898"
       y2="179.03932"
       x2="222.73204"
       y1="171.61981"
       x1="236.75015" />
    <linearGradient
       id="linearGradient9785">
      <stop
         offset="0"
         style="stop-color:#eeeeec;stop-opacity:1"
         id="stop9787" />
      <stop
         offset="1"
         style="stop-color:#090908;stop-opacity:0.96621621"
         id="stop9789" />
    </linearGradient>
    <radialGradient
       gradientTransform="matrix(0.02903333,-0.11731128,0.18039767,0.04564574,-15.739941,44.265406)"
       gradientUnits="userSpaceOnUse"
       xlink:href="#linearGradient9785"
       id="radialGradient5895"
       fy="171.7894"
       fx="251.69016"
       r="21.53125"
       cy="171.7894"
       cx="251.69016" />
    <linearGradient
       id="linearGradient9688">
      <stop
         offset="0"
         style="stop-color:#eeeeec;stop-opacity:1"
         id="stop9690" />
      <stop
         offset="1"
         style="stop-color:#ffffff;stop-opacity:0"
         id="stop9692" />
    </linearGradient>
    <radialGradient
       gradientTransform="matrix(0.12407789,-0.00167534,0.00127476,0.09425709,-10.454495,4.7071785)"
       gradientUnits="userSpaceOnUse"
       xlink:href="#linearGradient9688"
       id="radialGradient5891"
       fy="183.6442"
       fx="258.76035"
       r="18.578125"
       cy="183.6442"
       cx="258.76035" />
    <linearGradient
       id="linearGradient26371">
      <stop
         offset="0"
         style="stop-color:#777777;stop-opacity:0"
         id="stop26373" />
      <stop
         offset="1"
         style="stop-color:#2b2b2b;stop-opacity:1"
         id="stop26375" />
    </linearGradient>
    <radialGradient
       gradientTransform="matrix(-9.2833993e-6,-0.99101164,0.18444363,0,8.4715439,457.32032)"
       gradientUnits="userSpaceOnUse"
       xlink:href="#linearGradient26371"
       id="radialGradient5851"
       fy="62.526134"
       fx="442.29459"
       r="77.922958"
       cy="62.526134"
       cx="442.29459" />
    <linearGradient
       gradientTransform="matrix(0.75705204,0,0,0.7580119,2.0242519,-5.3490995)"
       gradientUnits="userSpaceOnUse"
       xlink:href="#linearGradient5895"
       id="linearGradient5853"
       y2="26.86837"
       x2="24.082361"
       y1="21.015778"
       x1="21.568329" />
    <filter
       style="color-interpolation-filters:sRGB"
       id="filter9094"
       height="1.6823529"
       width="1.6823529"
       y="-0.34117648"
       x="-0.34117648">
      <feGaussianBlur
         id="feGaussianBlur9096"
         stdDeviation="0.28648224" />
    </filter>
    <linearGradient
       id="linearGradient5895">
      <stop
         offset="0"
         style="stop-color:#888a85;stop-opacity:1"
         id="stop5897" />
      <stop
         offset="1"
         style="stop-color:#ffffff;stop-opacity:1"
         id="stop5899" />
    </linearGradient>
    <linearGradient
       gradientTransform="matrix(0.48124498,0,0,0.48077354,4.538315,1.8349002)"
       gradientUnits="userSpaceOnUse"
       xlink:href="#linearGradient5895"
       id="linearGradient5855"
       y2="24.9375"
       x2="24"
       y1="22.125"
       x1="22.0625" />
    <linearGradient
       id="linearGradient2230">
      <stop
         offset="0"
         style="stop-color:#eeeeee;stop-opacity:1"
         id="stop2232" />
      <stop
         offset="1"
         style="stop-color:#a2a2a2;stop-opacity:1"
         id="stop2234" />
    </linearGradient>
    <linearGradient
       gradientTransform="matrix(0.75612918,0,0,0.23813115,20.070139,5.5056194)"
       gradientUnits="userSpaceOnUse"
       xlink:href="#linearGradient2230"
       id="linearGradient5882"
       y2="22.712967"
       x2="8.5602255"
       y1="29.179651"
       x1="5.334765" />
    <linearGradient
       id="linearGradient3301">
      <stop
         offset="0"
         style="stop-color:#ffffff;stop-opacity:1"
         id="stop3303" />
      <stop
         offset="1"
         style="stop-color:#d7dbc7;stop-opacity:1"
         id="stop3305" />
    </linearGradient>
    <linearGradient
       gradientTransform="matrix(0.8475249,0,0,0.61048174,19.989913,-6.0091491)"
       gradientUnits="userSpaceOnUse"
       xlink:href="#linearGradient3301"
       id="linearGradient5880"
       y2="30.191154"
       x2="6.5595827"
       y1="28.780806"
       x1="6.5595827" />
    <radialGradient
       gradientTransform="matrix(0,-0.42638805,1.9428397,0,-31.086461,14.532892)"
       gradientUnits="userSpaceOnUse"
       xlink:href="#linearGradient17963"
       id="radialGradient5861"
       fy="20.823402"
       fx="9.1189642"
       r="3.1769876"
       cy="20.823402"
       cx="9.1189642" />
    <linearGradient
       id="linearGradient17941">
      <stop
         offset="0"
         style="stop-color:#e9e9e9;stop-opacity:1"
         id="stop17943" />
      <stop
         offset="0"
         style="stop-color:#a7a7a7;stop-opacity:1"
         id="stop17945" />
      <stop
         offset="0.52899867"
         style="stop-color:#bebebe;stop-opacity:1"
         id="stop17947" />
      <stop
         offset="1"
         style="stop-color:#e7e7e7;stop-opacity:1"
         id="stop17949" />
    </linearGradient>
    <radialGradient
       gradientTransform="matrix(0.89415612,-3.2918142e-7,1.3332342e-7,0.31379817,1.2174756,3.5729802)"
       gradientUnits="userSpaceOnUse"
       xlink:href="#linearGradient17941"
       id="radialGradient5863"
       fy="17.108955"
       fx="9.2365828"
       r="2.9610097"
       cy="17.108955"
       cx="9.2365828" />
    <linearGradient
       id="linearGradient17963">
      <stop
         offset="0"
         style="stop-color:#dee3e0;stop-opacity:1"
         id="stop17965" />
      <stop
         offset="1"
         style="stop-color:#dee3e0;stop-opacity:0"
         id="stop17967" />
    </linearGradient>
    <radialGradient
       gradientTransform="matrix(-2.3967533e-6,-1.5890918,2.3866136,-3.8064476e-6,-19.153491,32.897146)"
       gradientUnits="userSpaceOnUse"
       xlink:href="#linearGradient17963"
       id="radialGradient5874"
       fy="12.007012"
       fx="14.738829"
       r="0.546875"
       cy="12.007012"
       cx="14.738829" />
    <linearGradient
       id="linearGradient5404">
      <stop
         offset="0"
         style="stop-color:#ffffff;stop-opacity:1"
         id="stop5406" />
      <stop
         offset="1"
         style="stop-color:#ffffff;stop-opacity:0"
         id="stop5408" />
    </linearGradient>
    <linearGradient
       gradientTransform="matrix(0.67497915,0,0,0.66663195,-0.19950005,-2.8322224)"
       gradientUnits="userSpaceOnUse"
       xlink:href="#linearGradient5404"
       id="linearGradient5870"
       y2="53.913837"
       x2="11.692044"
       y1="20.521324"
       x1="10.666382" />
    <linearGradient
       id="linearGradient10695">
      <stop
         offset="0"
         style="stop-color:#b100cb;stop-opacity:1"
         id="stop10697" />
      <stop
         offset="1"
         style="stop-color:#204a87;stop-opacity:0"
         id="stop10699" />
    </linearGradient>
    <radialGradient
       gradientTransform="matrix(0.16625557,0,0,0.16609272,-9.696609,-11.668893)"
       gradientUnits="userSpaceOnUse"
       xlink:href="#linearGradient10695"
       id="radialGradient5947"
       fy="188.5"
       fx="171.25"
       r="19"
       cy="188.5"
       cx="171.25" />
  </defs>
  <g
     id="g4230">
    <path
       d="m 5.3201188,25.87693 c 0,0 0,3.522996 0,3.522996 -2.2833875,0.0067 -5.52012016,-0.789324 -5.5201188,-1.761724 0,-0.972401 2.5480889,-1.761271 5.5201188,-1.761272 l 0,0 z"
       id="path5387"
       style="opacity:0.3;fill:url(#radialGradient5934);fill-opacity:1;fill-rule:nonzero;stroke:none;stroke-width:1;marker:none;visibility:visible;display:inline;overflow:visible" />
    <rect
       width="21.409765"
       height="3.5231905"
       x="5.3201156"
       y="25.87681"
       id="rect5373"
       style="opacity:0.3;fill:url(#linearGradient5931);fill-opacity:1;fill-rule:nonzero;stroke:none;stroke-width:1;marker:none;visibility:visible;display:inline;overflow:visible" />
    <path
       d="m 26.729882,25.87693 c 0,0 0,3.522996 0,3.522996 2.283387,0.0067 5.520119,-0.789324 5.520118,-1.761724 0,-0.972401 -2.548089,-1.761271 -5.520118,-1.761272 l 0,0 z"
       id="path5375"
       style="opacity:0.3;fill:url(#radialGradient5928);fill-opacity:1;fill-rule:nonzero;stroke:none;stroke-width:1;marker:none;visibility:visible;display:inline;overflow:visible" />
    <rect
       style="fill:url(#radialGradient5807);fill-opacity:1;fill-rule:nonzero;stroke:url(#linearGradient5809);stroke-width:1;stroke-linecap:round;stroke-linejoin:round;stroke-miterlimit:4;stroke-opacity:1;stroke-dasharray:none"
       id="rect5438"
       y="8.5050001"
       x="1.505"
       ry="1.4778754"
       rx="1.7503611"
       height="18.99"
       width="28.99" />
    <rect
       style="fill:url(#linearGradient5925);fill-opacity:1;fill-rule:nonzero;stroke:none"
       id="rect5445"
       y="10"
       x="2"
       ry="1.1739233"
       rx="1.1601123"
       height="17"
       width="28" />
    <path
       style="opacity:0.27227723;fill:url(#radialGradient5813);fill-opacity:1;fill-rule:nonzero;stroke:none"
       id="path5451"
       d="m 21.657648,12.066334 a 1.9405336,1.8820367 0 0 1 -3.881067,0 1.9405336,1.8820367 0 1 1 3.881067,0 z" />
    <path
       style="fill:url(#radialGradient5815);fill-opacity:1;fill-rule:nonzero;stroke:none"
       id="path5453"
       d="m 21.648802,12.977844 a 1.9316877,1.2912687 0 0 1 -3.863375,0 1.9316877,1.2912687 0 1 1 3.863375,0 z" />
    <path
       style="fill:url(#radialGradient5821);fill-opacity:1;fill-rule:nonzero;stroke:none"
       id="path5463"
       d="m 27,19.006855 a 7,6.993145 0 0 1 -14,0 7,6.993145 0 1 1 14,0 z" />
    <path
       style="fill:#888a85;fill-opacity:1;fill-rule:nonzero;stroke:none"
       id="path5465"
       d="m 26,19 a 6,6 0 0 1 -12,0 6,6 0 1 1 12,0 z" />
    <path
       style="fill:url(#radialGradient5823);fill-opacity:1;fill-rule:nonzero;stroke:none"
       id="path5467"
       d="m 27.999999,19.004 a 8,8 0 0 1 -15.999998,0 8,8 0 1 1 15.999998,0 z" />
    <path
       style="fill:url(#radialGradient5825);fill-opacity:1;fill-rule:nonzero;stroke:none"
       id="path5469"
       d="m 26.999999,19.003742 a 7,7 0 0 1 -13.999998,0 7,7 0 1 1 13.999998,0 z" />
    <path
       style="fill:url(#radialGradient5827);fill-opacity:1;fill-rule:nonzero;stroke:none"
       id="path5471"
       d="m 25.821833,18.688435 a 5.7641724,5.5799416 0 0 1 -11.528344,0 5.7641724,5.5799416 0 1 1 11.528344,0 z" />
    <path
       style="opacity:0.85148513;fill:url(#radialGradient5829);fill-opacity:1;fill-rule:nonzero;stroke:none"
       id="path5473"
       d="m 25.058099,18.929279 a 5.0004367,4.995538 0 0 1 -10.000874,0 5.0004367,4.995538 0 1 1 10.000874,0 z" />
    <path
       style="fill:url(#linearGradient5831);fill-opacity:1;fill-rule:nonzero;stroke:none"
       id="path5475"
       d="m 25.058099,18.929278 a 5.0004367,4.995538 0 0 1 -10.000874,0 5.0004367,4.995538 0 1 1 10.000874,0 z" />
    <path
       style="fill:url(#radialGradient5833);fill-opacity:1;fill-rule:nonzero;stroke:none"
       id="path5477"
       d="m 25.058099,19.642928 a 5.0004367,4.995538 0 0 1 -10.000874,0 5.0004367,4.995538 0 1 1 10.000874,0 z" />
    <path
       style="opacity:0.53960422;fill:url(#radialGradient5835);fill-opacity:1;fill-rule:nonzero;stroke:none"
       id="path5479"
       d="m 24.153597,19.605543 a 4.1191165,4.2818906 0 0 1 -8.238233,0 4.1191165,4.2818906 0 1 1 8.238233,0 z" />
    <path
       style="fill:url(#radialGradient5837);fill-opacity:1;fill-rule:nonzero;stroke:url(#radialGradient5839);stroke-width:0.14849521;stroke-linecap:round;stroke-linejoin:round;stroke-miterlimit:4;stroke-opacity:1;stroke-dasharray:none"
       id="path5481"
       d="m 24.112125,19.99975 a 4.0544625,3.87208 0 0 1 -8.108925,0 4.0544625,3.87208 0 1 1 8.108925,0 z" />
    <path
       style="fill:url(#radialGradient5902);fill-opacity:1;fill-rule:nonzero;stroke:url(#linearGradient5904);stroke-width:0.14458716;stroke-linecap:round;stroke-linejoin:round;stroke-miterlimit:4;stroke-opacity:1"
       id="path5483"
       d="m 23.934934,21.070223 c 0,2.138157 -1.737018,3.873474 -3.877271,3.873474 -2.140254,0 -3.877272,-1.735317 -3.877272,-3.873474 0,-2.138157 1.737018,-3.873473 3.877272,-3.873473 2.140253,0 3.877271,1.735316 3.877271,3.873473 z" />
    <path
       style="fill:#2e3436;fill-opacity:1;fill-rule:nonzero;stroke:none"
       id="path5485"
       d="m 23.272229,21.070223 a 3.2145665,3.2114169 0 0 1 -6.429131,0 3.2145665,3.2114169 0 1 1 6.429131,0 z" />
    <path
       style="opacity:0.23267326;fill:url(#linearGradient5898);fill-opacity:1;fill-rule:nonzero;stroke:none"
       id="path5487"
       d="m 19.503491,19.261674 c -0.06069,0.01893 -0.118863,0.04106 -0.176647,0.06558 0.05771,-0.02471 0.116013,-0.04651 0.176647,-0.06558 z m 1.264424,0.03578 c 0.025,0.0096 0.04991,0.01939 0.07437,0.02981 -0.02455,-0.01043 -0.04928,-0.02039 -0.07437,-0.02981 z m -1.64871,0.134149 c -0.04045,0.02333 -0.07941,0.04845 -0.117764,0.07453 0.03808,-0.02609 0.07764,-0.05114 0.117764,-0.07453 z m -0.117764,0.07453 c -0.04616,0.03138 -0.09034,0.06322 -0.133261,0.09838 0.04235,-0.03482 0.08778,-0.06721 0.133261,-0.09838 z m 2.339799,0.134148 c 0.02653,0.02313 0.0524,0.04703 0.07747,0.07154 -0.02508,-0.02442 -0.05098,-0.04853 -0.07747,-0.07154 z m -2.519546,0.0059 c -0.03402,0.02983 -0.06754,0.06028 -0.09918,0.09241 0.0317,-0.03221 0.06511,-0.06246 0.09918,-0.09241 z m -0.09918,0.09241 c -0.241001,0.244907 -0.411633,0.55318 -0.477259,0.897311 -1.82e-4,0.001 1.83e-4,0.002 0,0.003 l 0,0.634973 c 0.09942,0.526316 0.44109,0.971055 0.911127,1.228212 l 1.856347,0 c 0.450356,-0.24639 0.781107,-0.664957 0.895632,-1.162627 l 0,-0.0059 0,-0.754218 C 21.857406,20.35439 21.76338,20.143919 21.632547,19.959295 21.530774,19.828335 21.41303,19.733397 21.285451,19.682053 l -2.491657,0 c -0.02509,0.01865 -0.04819,0.03738 -0.07126,0.05665 z m -0.477254,1.535309 c -0.0098,-0.05108 -0.01651,-0.102211 -0.0217,-0.155017 0.005,0.05263 0.01203,0.103799 0.0217,0.155017 z m 0,-0.634973 c -0.0098,0.05131 -0.0167,0.102271 -0.0217,0.155017 0.0051,-0.05208 0.01204,-0.103955 0.0217,-0.155017 z m 3.257126,-0.843651 c 0.01816,0.0202 0.03547,0.04164 0.05269,0.06259 -0.01746,-0.02121 -0.03426,-0.04216 -0.05269,-0.06259 z m -2.020595,2.846947 c 0.03774,0.01229 0.07588,0.02277 0.114666,0.0328 -0.0388,-0.01012 -0.0769,-0.02046 -0.114666,-0.0328 z m 1.205539,0 c -0.03795,0.01234 -0.07567,0.02275 -0.114665,0.0328 0.03877,-0.01006 0.07693,-0.02052 0.114665,-0.0328 z" />
    <path
       style="opacity:0.37556559;fill:url(#radialGradient5895);fill-opacity:1;fill-rule:nonzero;stroke:none"
       id="path5489"
       d="m 18.439234,18.929279 c -0.38242,0.274562 -0.689437,0.644789 -0.88179,1.071391 l 0,2.102417 c 0.201407,0.446985 0.528088,0.829786 0.93622,1.108081 l 3.164283,0 c 0.385213,-0.263005 0.697029,-0.619341 0.899933,-1.034697 l 0,-2.245514 c -0.193881,-0.397139 -0.487166,-0.742376 -0.849132,-1.001678 l -3.269514,0 z" />
    <path
       style="fill:#2e3436;fill-opacity:1;fill-rule:nonzero;stroke:none"
       id="path5491"
       d="m 19.510306,19.217071 c -0.05995,0.01918 -0.117422,0.04158 -0.174507,0.06645 0.05702,-0.02502 0.114607,-0.04713 0.174507,-0.06645 z m 1.249103,0.03625 c 0.02469,0.0097 0.04931,0.01965 0.07348,0.0302 -0.02426,-0.01057 -0.04868,-0.02065 -0.07348,-0.0302 z m -1.628731,0.135903 c -0.03996,0.02363 -0.07843,0.04908 -0.116338,0.07552 0.03762,-0.02645 0.0767,-0.05182 0.116338,-0.07552 z m -0.116338,0.07552 c -0.0456,0.03179 -0.08926,0.06403 -0.131646,0.09966 0.04184,-0.03527 0.08671,-0.06808 0.131646,-0.09966 z m 2.311449,0.1359 c 0.02619,0.02343 0.05175,0.04763 0.07654,0.07249 -0.02476,-0.02475 -0.05035,-0.04915 -0.07654,-0.07249 z m -2.489019,0.006 c -0.03361,0.03022 -0.06674,0.06108 -0.09796,0.09362 0.03132,-0.03264 0.06431,-0.06328 0.09796,-0.09362 z m -0.09796,0.09362 c -0.238081,0.248106 -0.406644,0.560409 -0.471477,0.909034 -1.8e-4,9.99e-4 1.82e-4,0.0021 0,0.003 l 0,0.64327 c 0.09821,0.533195 0.435745,0.983742 0.900089,1.244263 l 1.833853,0 c 0.444899,-0.249611 0.771644,-0.673648 0.88478,-1.17782 l 0,-0.006 0,-0.764075 c -0.05033,-0.227912 -0.143227,-0.441131 -0.272474,-0.62817 -0.100536,-0.132671 -0.216857,-0.228848 -0.342891,-0.280864 l -2.461465,0 c -0.02479,0.01889 -0.04762,0.03786 -0.07042,0.05737 z m -0.471477,1.555324 c -0.0097,-0.05176 -0.01631,-0.103546 -0.02142,-0.157043 0.0049,0.05334 0.01186,0.105155 0.02142,0.157043 z m 0,-0.64327 c -0.0097,0.052 -0.01651,0.103607 -0.02142,0.157043 0.005,-0.05275 0.01188,-0.105314 0.02142,-0.157043 z m 3.217663,-0.854674 c 0.01792,0.02046 0.03504,0.04219 0.05205,0.06342 -0.01725,-0.02151 -0.03385,-0.04272 -0.05205,-0.06342 z m -1.996113,2.884146 c 0.03728,0.01245 0.07497,0.0231 0.113276,0.03322 -0.03834,-0.01016 -0.07596,-0.02073 -0.113276,-0.03322 z m 1.190932,0 c -0.03748,0.0125 -0.07476,0.02306 -0.113276,0.03322 0.03831,-0.01012 0.07598,-0.02078 0.113276,-0.03322 z" />
    <path
       style="opacity:0.23267326;fill:url(#radialGradient5891);fill-opacity:1;fill-rule:nonzero;stroke:none"
       id="path5493"
       d="m 19.510306,19.172469 c -0.05995,0.01943 -0.117422,0.04214 -0.174507,0.06729 0.05702,-0.02534 0.114607,-0.04773 0.174507,-0.06729 z m 1.249103,0.03672 c 0.02469,0.0098 0.04931,0.01991 0.07348,0.03058 -0.02426,-0.0107 -0.04868,-0.02091 -0.07348,-0.03058 z m -1.628731,0.137653 c -0.03996,0.02393 -0.07843,0.0497 -0.116338,0.07646 0.03762,-0.02679 0.0767,-0.05248 0.116338,-0.07646 z m -0.116338,0.07646 c -0.0456,0.0322 -0.08926,0.06487 -0.131646,0.100955 0.04184,-0.03573 0.08671,-0.06897 0.131646,-0.100955 z m 2.311449,0.137656 c 0.02619,0.02373 0.05175,0.04824 0.07654,0.07341 -0.02476,-0.02506 -0.05035,-0.04978 -0.07654,-0.07341 z m -2.489019,0.0061 c -0.03361,0.03061 -0.06674,0.06184 -0.09796,0.09483 0.03132,-0.03306 0.06431,-0.06408 0.09796,-0.09483 z m -0.09796,0.09483 c -0.238081,0.251306 -0.406644,0.567638 -0.471477,0.92076 -1.8e-4,10e-4 1.82e-4,0.0021 0,0.003 l 0,0.651567 c 0.09821,0.540072 0.435745,0.99643 0.900089,1.26031 l 1.833853,0 c 0.444899,-0.25283 0.771644,-0.682336 0.88478,-1.193009 l 0,-0.0061 0,-0.77393 c -0.05033,-0.230851 -0.143227,-0.446821 -0.272474,-0.636272 -0.100536,-0.134383 -0.216857,-0.2318 -0.342891,-0.284487 l -2.461465,0 c -0.02479,0.01914 -0.04762,0.03834 -0.07042,0.05812 z m -0.471477,1.575365 c -0.0097,-0.05242 -0.01631,-0.10488 -0.02142,-0.159066 0.0049,0.05401 0.01186,0.106509 0.02142,0.159066 z m 0,-0.651567 c -0.0097,0.05266 -0.01651,0.104944 -0.02142,0.159068 0.005,-0.05345 0.01188,-0.106672 0.02142,-0.159068 z m 3.217663,-0.865699 c 0.01792,0.02072 0.03504,0.04273 0.05205,0.06424 -0.01725,-0.02179 -0.03385,-0.04326 -0.05205,-0.06424 z m -1.996114,2.921391 c 0.03728,0.01261 0.07497,0.02339 0.113276,0.03365 -0.03834,-0.0103 -0.07596,-0.02099 -0.113276,-0.03365 z m 1.190932,0 c -0.03748,0.01266 -0.07476,0.02335 -0.113276,0.03365 0.03831,-0.01026 0.07598,-0.02104 0.113276,-0.03365 z" />
    <path
       style="fill:#000000;fill-opacity:0.50543482;fill-rule:nonzero;stroke:none"
       id="path5495"
       d="m 20.065983,19.638379 c -0.735667,-3e-6 -1.339564,0.551613 -1.41805,1.258321 -0.0033,0.02979 -0.0057,0.05958 -0.007,0.08988 -0.001,0.0217 -0.0035,0.04277 -0.0035,0.06471 0,0.0047 -4.6e-5,0.0097 0,0.01438 -4.6e-5,0.0047 0,0.0097 0,0.01439 4.34e-4,0.02141 0.0021,0.04355 0.0035,0.06471 0.0014,0.03031 0.0038,0.0601 0.007,0.08988 0.07848,0.70671 0.682383,1.258323 1.41805,1.258323 0.735666,0 1.339564,-0.551613 1.41805,-1.258323 0.0033,-0.02979 0.0057,-0.05958 0.007,-0.08988 0.0017,-0.02586 0.0033,-0.05286 0.0035,-0.0791 -2.66e-4,-0.02623 -0.0018,-0.05325 -0.0035,-0.0791 -0.0014,-0.03031 -0.0038,-0.06009 -0.007,-0.08988 -0.07848,-0.70671 -0.682384,-1.258322 -1.41805,-1.258322 z" />
    <path
       style="fill:none;stroke:url(#radialGradient5851);stroke-width:0.99999988;stroke-linecap:round;stroke-linejoin:round;stroke-miterlimit:4;stroke-opacity:1;stroke-dasharray:none"
       id="path5497"
       d="m 27.5,19.001225 a 7.5000001,7.5000034 0 0 1 -15,0 7.5000001,7.5000034 0 1 1 15,0 z" />
    <path
       style="fill:#2e3436;fill-opacity:1;fill-rule:evenodd;stroke:url(#linearGradient5855);stroke-width:0.47368419;stroke-linecap:butt;stroke-linejoin:miter;stroke-miterlimit:10;stroke-opacity:1;stroke-dasharray:none;stroke-dashoffset:0;marker:none;visibility:visible;display:inline;overflow:visible;enable-background:accumulate"
       id="path5505"
       d="m 16.358894,12.922741 a 0.90233443,0.90145048 0 0 1 -1.804668,0 0.90233443,0.90145048 0 1 1 1.804668,0 z" />
    <rect
       style="fill:url(#linearGradient5880);fill-opacity:1;fill-rule:nonzero;stroke:url(#linearGradient5882);stroke-width:0.56;stroke-linecap:butt;stroke-linejoin:miter;stroke-miterlimit:4;stroke-opacity:1;stroke-dasharray:none;stroke-dashoffset:0;marker:none;visibility:visible;display:inline;overflow:visible;font-family:Bitstream Vera Sans"
       id="rect5507"
       y="11.313261"
       x="23.379999"
       ry="0.50125653"
       rx="0.60406542"
       height="1.4117391"
       width="5.3500004" />
    <rect
       style="opacity:0.4;fill:none;stroke:url(#linearGradient5870);stroke-width:1.00083256;stroke-linecap:round;stroke-linejoin:round;stroke-miterlimit:4;stroke-opacity:1;stroke-dasharray:none"
       id="rect5519"
       y="10.500417"
       x="2.5004163"
       ry="0.91526192"
       rx="0.91086739"
       height="15.999167"
       width="26.999168" />
    <g
       id="g4304"
       transform="matrix(1.0649321,0,0,1.0650751,-1.4789328,-0.89281402)">
      <path
         d="m 20.619343,12.132549 a 1.4194726,1.4212723 0 0 1 -2.838945,0 1.4194726,1.4212723 0 1 1 2.838945,0 z"
         id="path5499"
         style="fill:#2e3436;fill-opacity:1;fill-rule:evenodd;stroke:url(#linearGradient5853);stroke-width:0.91716093;stroke-linecap:butt;stroke-linejoin:miter;stroke-miterlimit:10;stroke-opacity:1;stroke-dasharray:none;stroke-dashoffset:0;marker:none;visibility:visible;display:inline;overflow:visible;enable-background:accumulate" />
      <path
         d="m 19.78786,12.137967 a 0.57789889,0.57863162 0 0 1 -1.155797,0 0.57789889,0.57863162 0 1 1 1.155797,0 z"
         id="path5501"
         style="opacity:0.34705882;fill:#000000;fill-opacity:1;fill-rule:evenodd;stroke:none;stroke-width:0.1;marker:none;visibility:visible;display:inline;overflow:visible;enable-background:accumulate" />
      <path
         d="m 28.416853,16.44536 a 0.8396895,0.8396895 0 1 1 -1.679379,0 0.8396895,0.8396895 0 1 1 1.679379,0 z"
         transform="matrix(0.48900487,0,0,0.48962487,5.9831274,4.5779538)"
         id="path5503"
         style="opacity:0.30588235;fill:#ffffff;fill-opacity:1;fill-rule:evenodd;stroke:none;stroke-width:0.1;marker:none;visibility:visible;display:inline;overflow:visible;filter:url(#filter9094);enable-background:accumulate" />
    </g>
    <g
       id="g4299"
       transform="matrix(1,0,0,0.87786993,0,0.98526228)">
      <path
         d="m 12.106379,9.3792989 a 2.631764,1.139235 0 0 1 -5.2635276,0 2.631764,1.139235 0 1 1 5.2635276,0 z"
         id="path5511"
         style="fill:#2e3436;fill-opacity:1;fill-rule:evenodd;stroke:url(#radialGradient5861);stroke-width:0.52906114;stroke-linecap:butt;stroke-linejoin:miter;stroke-miterlimit:10;stroke-opacity:0.99607843;stroke-dasharray:none;stroke-dashoffset:0;marker:none;visibility:visible;display:inline;overflow:visible;enable-background:accumulate" />
      <path
         d="m 11.592729,8.9417349 a 2.1163046,0.8807978 0 0 1 -4.2326089,0 2.1163046,0.8807978 0 1 1 4.2326089,0 z"
         id="path5513"
         style="fill:url(#radialGradient5863);fill-opacity:1;fill-rule:evenodd;stroke:none;stroke-width:0.37656182;marker:none;visibility:visible;display:inline;overflow:visible;enable-background:accumulate" />
      <rect
         width="1.0178967"
         height="1.0292913"
         rx="0.36118916"
         ry="0.39213023"
         x="9.0510874"
         y="9.4420023"
         id="rect5515"
         style="fill:#2e3436;fill-opacity:1;fill-rule:nonzero;stroke:url(#radialGradient5874);stroke-width:0.32251027;stroke-linecap:butt;stroke-linejoin:round;stroke-miterlimit:0;stroke-opacity:1;stroke-dasharray:none" />
    </g>
    <path
       style="opacity:0.8;fill:url(#radialGradient5947);fill-opacity:1;fill-rule:evenodd;stroke:none;stroke-width:0.94462639;marker:none;visibility:visible;display:inline;overflow:visible;enable-background:accumulate"
       id="path10013"
       d="m 22.55788,21.282848 c 0,1.379478 -1.119386,2.497769 -2.500218,2.497769 -1.380832,0 -2.500218,-1.118291 -2.500218,-2.497769 0,-1.379481 1.119386,-2.497769 2.500218,-2.497769 1.380832,0 2.500218,1.118288 2.500218,2.497769 z" />
    <rect
       style="opacity:0.5;fill:#eeeeec;fill-opacity:1;fill-rule:nonzero;stroke:none;stroke-width:1;marker:none;visibility:visible;display:inline;overflow:visible;enable-background:accumulate"
       id="rect5950"
       y="16"
       x="7"
       ry="0.70000005"
       rx="0.5"
       height="7"
       width="1" />
    <rect
       style="opacity:0.2;fill:#555753;fill-opacity:1;fill-rule:nonzero;stroke:none;stroke-width:1;marker:none;visibility:visible;display:inline;overflow:visible;enable-background:accumulate"
       id="rect5952"
       y="16.716894"
       x="9"
       ry="0.70463818"
       rx="0.5"
       height="5.6371055"
       width="1" />
  </g>
</svg>
