<?xml version="1.0" encoding="UTF-8" standalone="no"?>
<svg
   version="1.1"
   id="svg4220"
   viewBox="0 0 32.000001 32.000001"
   height="32"
   width="32"
   sodipodi:docname="input-keyboard.svg"
   inkscape:version="1.2.2 (b0a8486541, 2022-12-01)"
   xmlns:inkscape="http://www.inkscape.org/namespaces/inkscape"
   xmlns:sodipodi="http://sodipodi.sourceforge.net/DTD/sodipodi-0.dtd"
   xmlns:xlink="http://www.w3.org/1999/xlink"
   xmlns="http://www.w3.org/2000/svg"
   xmlns:svg="http://www.w3.org/2000/svg"
   xmlns:rdf="http://www.w3.org/1999/02/22-rdf-syntax-ns#"
   xmlns:cc="http://creativecommons.org/ns#"
   xmlns:dc="http://purl.org/dc/elements/1.1/">
  <sodipodi:namedview
     id="namedview77"
     pagecolor="#ffffff"
     bordercolor="#666666"
     borderopacity="1.0"
     inkscape:pageshadow="2"
     inkscape:pageopacity="0.0"
     inkscape:pagecheckerboard="0"
     showgrid="false"
     inkscape:zoom="22.627417"
     inkscape:cx="16.064582"
     inkscape:cy="18.73833"
     inkscape:window-width="1326"
     inkscape:window-height="774"
     inkscape:window-x="55"
     inkscape:window-y="174"
     inkscape:window-maximized="0"
     inkscape:current-layer="svg4220"
     inkscape:showpageshadow="2"
     inkscape:deskcolor="#d1d1d1" />
  <defs
     id="defs4222">
    <linearGradient
       inkscape:collect="always"
       id="linearGradient10689">
      <stop
         style="stop-color:#fafafa;stop-opacity:1;"
         offset="0"
         id="stop10685" />
      <stop
         style="stop-color:#abacae;stop-opacity:1;"
         offset="1"
         id="stop10687" />
    </linearGradient>
    <linearGradient
       y2="42.437775"
       x2="40.290417"
       y1="5.524776"
       x1="40.290417"
       gradientTransform="matrix(0.67567564,0,0,0.37837837,-0.2162175,7.418935)"
       gradientUnits="userSpaceOnUse"
       id="linearGradient4088"
       xlink:href="#linearGradient3462" />
    <linearGradient
       id="linearGradient3462">
      <stop
         offset="0"
         style="stop-color:#ffffff;stop-opacity:0.5;"
         id="stop3464" />
      <stop
         offset="0.03457849"
         style="stop-color:#ffffff;stop-opacity:0.23529412"
         id="stop3466" />
      <stop
         offset="0.96375686"
         style="stop-color:#ffffff;stop-opacity:0.15686275"
         id="stop3468" />
      <stop
         offset="1"
         style="stop-color:#ffffff;stop-opacity:0.5;"
         id="stop3470" />
    </linearGradient>
    <linearGradient
       x1="302.85715"
       y1="366.64789"
       x2="302.85715"
       y2="609.50507"
       id="linearGradient19619"
       xlink:href="#linearGradient5048"
       gradientUnits="userSpaceOnUse"
       gradientTransform="matrix(0.08449704,0,0,0.01235294,-6.5396456,38.470822)" />
    <linearGradient
       id="linearGradient5048">
      <stop
         id="stop5050"
         style="stop-color:#000000;stop-opacity:0"
         offset="0" />
      <stop
         id="stop5056"
         style="stop-color:#000000;stop-opacity:1"
         offset="0.5" />
      <stop
         id="stop5052"
         style="stop-color:#000000;stop-opacity:0"
         offset="1" />
    </linearGradient>
    <radialGradient
       cx="605.71429"
       cy="486.64789"
       r="117.14286"
       fx="605.71429"
       fy="486.64789"
       id="radialGradient19616"
       xlink:href="#linearGradient5060"
       gradientUnits="userSpaceOnUse"
       gradientTransform="matrix(-0.0289166,0,0,0.01235294,21.026894,38.470848)" />
    <linearGradient
       id="linearGradient5060">
      <stop
         id="stop5062"
         style="stop-color:#000000;stop-opacity:1"
         offset="0" />
      <stop
         id="stop5064"
         style="stop-color:#000000;stop-opacity:0"
         offset="1" />
    </linearGradient>
    <radialGradient
       cx="605.71429"
       cy="486.64789"
       r="117.14286"
       fx="605.71429"
       fy="486.64789"
       id="radialGradient19613"
       xlink:href="#linearGradient5060"
       gradientUnits="userSpaceOnUse"
       gradientTransform="matrix(0.02891661,0,0,0.01235294,26.973101,38.470848)" />
    <linearGradient
       inkscape:collect="always"
       xlink:href="#linearGradient10689"
       id="linearGradient11488"
       gradientUnits="userSpaceOnUse"
       x1="18.237503"
       y1="1.4154987"
       x2="18.237503"
       y2="30.11273" />
  </defs>
  <metadata
     id="metadata4225">
    <rdf:RDF>
      <cc:Work
         rdf:about="">
        <dc:format>image/svg+xml</dc:format>
        <dc:type
           rdf:resource="http://purl.org/dc/dcmitype/StillImage" />
      </cc:Work>
    </rdf:RDF>
  </metadata>
  <rect
     width="27"
     height="16"
     rx="1"
     ry="1"
     x="2.5"
     y="8.5"
     id="rect11486"
     style="color:#000000;display:inline;overflow:visible;visibility:visible;opacity:1;fill:url(#linearGradient11488);fill-opacity:1;fill-rule:nonzero;stroke:none;stroke-width:1;marker:none;enable-background:accumulate" />
  <g
     id="g3257"
     style="opacity:0.4"
     transform="matrix(0.625,0,0,1,1,-20)">
    <rect
       width="40.799999"
       height="2.9999998"
       x="3.5999999"
       y="43"
       id="rect2879"
       style="display:inline;overflow:visible;visibility:visible;fill:url(#linearGradient19619);fill-opacity:1;fill-rule:nonzero;stroke:none;stroke-width:1;marker:none" />
    <path
       d="m 3.6,43.00013 c 0,0 0,2.999835 0,2.999835 C 2.1108662,46.005612 0,45.327854 0,44.499854 0,43.671856 1.6617608,43.000131 3.6,43.00013 Z"
       id="path2881"
       style="display:inline;overflow:visible;visibility:visible;fill:url(#radialGradient19616);fill-opacity:1;fill-rule:nonzero;stroke:none;stroke-width:1;marker:none" />
    <path
       d="m 44.4,43.00013 c 0,0 0,2.999835 0,2.999835 1.489133,0.0056 3.6,-0.672111 3.6,-1.500111 0,-0.827998 -1.661761,-1.499723 -3.6,-1.499724 z"
       id="path2883"
       style="display:inline;overflow:visible;visibility:visible;fill:url(#radialGradient19613);fill-opacity:1;fill-rule:nonzero;stroke:none;stroke-width:1;marker:none" />
  </g>
  <rect
     width="25"
     height="14"
     rx="0.5"
     ry="0.5"
     x="3.5"
     y="9.5"
     id="rect6741-5-0-2-3"
     style="opacity:0.6;fill:none;stroke:url(#linearGradient4088);stroke-width:1;stroke-linecap:round;stroke-linejoin:round;stroke-miterlimit:4;stroke-dasharray:none;stroke-dashoffset:0;stroke-opacity:1" />
  <rect
     width="27"
     height="16.000002"
     rx="1"
     ry="1"
     x="2.5"
     y="8.5"
     id="rect5505-21-3-8-9-1-1"
     style="color:#000000;clip-rule:nonzero;display:inline;overflow:visible;visibility:visible;opacity:0.3;isolation:auto;mix-blend-mode:normal;color-interpolation:sRGB;color-interpolation-filters:linearRGB;solid-color:#000000;solid-opacity:1;fill:none;fill-opacity:1;fill-rule:nonzero;stroke:#000000;stroke-width:1;stroke-linecap:butt;stroke-linejoin:miter;stroke-miterlimit:4;stroke-dasharray:none;stroke-dashoffset:0;stroke-opacity:1;marker:none;color-rendering:auto;image-rendering:auto;shape-rendering:auto;text-rendering:auto;enable-background:accumulate" />
  <path
     style="color:#000000;clip-rule:nonzero;display:inline;overflow:visible;visibility:visible;opacity:0.1;isolation:auto;mix-blend-mode:normal;color-interpolation:sRGB;color-interpolation-filters:linearRGB;solid-color:#000000;solid-opacity:1;fill:#000000;fill-opacity:1;fill-rule:nonzero;stroke:none;stroke-width:1;stroke-linecap:butt;stroke-linejoin:miter;stroke-miterlimit:4;stroke-dasharray:none;stroke-dashoffset:0;stroke-opacity:1;marker:none;color-rendering:auto;image-rendering:auto;shape-rendering:auto;text-rendering:auto;enable-background:accumulate"
     id="path5222"
     d="M 3.9240789,10 C 3.422483,10 3,10.426666 3,10.933225 v 1.941368 c 0,0.241028 0.095566,0.457783 0.25,0.625406 C 3.0955659,13.667622 3,13.88438 3,14.125407 v 1.749186 C 3,16.115621 3.0955659,16.332377 3.25,16.5 3.0955659,16.667623 3,16.884381 3,17.125407 v 1.749186 C 3,19.115621 3.0955659,19.332377 3.25,19.5 3.0955659,19.667623 3,19.884382 3,20.125407 v 1.940989 c 0,0.50656 0.422483,0.933225 0.9240789,0.933225 h 2.956643 c 0.2386649,0 0.4532976,-0.09366 0.6192782,-0.249621 0.1659803,0.155964 0.3806131,0.249621 0.619278,0.249621 H 23.880722 c 0.238665,0 0.453298,-0.09366 0.619277,-0.249621 0.165982,0.155964 0.380614,0.249621 0.619279,0.249621 h 2.956643 C 28.577518,22.999621 29,22.572956 29,22.066396 v -1.94099 C 29,19.884381 28.90443,19.667622 28.75,19.499999 28.904436,19.332377 29,19.115621 29,18.874593 V 17.125407 C 29,16.884381 28.90443,16.667623 28.75,16.5 28.904436,16.332377 29,16.115621 29,15.874593 V 14.125407 C 29,13.88438 28.90443,13.667622 28.75,13.499999 28.904436,13.332376 29,13.115621 29,12.874593 V 10.933225 C 29,10.426666 28.577518,10 28.075921,10 h -2.956643 c -0.238665,0 -0.453297,0.09404 -0.619279,0.25 C 24.33402,10.094035 24.119387,10 23.880722,10 H 22.119278 C 21.880613,10 21.66598,10.09404 21.500001,10.25 21.334019,10.094035 21.119388,10 20.880722,10 H 19.119278 C 18.880613,10 18.665979,10.094036 18.5,10.25 18.33402,10.094035 18.119386,10 17.880721,10 H 16.119278 C 15.880613,10 15.665981,10.094036 15.5,10.25 15.33402,10.094035 15.119386,10 14.880722,10 H 13.119278 C 12.880612,10 12.66598,10.09404 12.499999,10.25 12.33402,10.094035 12.119386,10 11.880722,10 H 10.119278 C 9.880613,10 9.6659803,10.094036 9.5000002,10.25 9.3340201,10.094036 9.1193869,10 8.8807222,10 H 7.119278 C 6.8806133,10 6.6659804,10.094036 6.4999998,10.25 6.3340195,10.094036 6.1193866,10 5.8807219,10 Z"
     sodipodi:nodetypes="scccsscsscssssccccsssscsscsscccsscsscsscsscsscsscsscss" />
  <path
     style="color:#000000;clip-rule:nonzero;display:inline;overflow:visible;visibility:visible;opacity:0.2;isolation:auto;mix-blend-mode:normal;color-interpolation:sRGB;color-interpolation-filters:linearRGB;solid-color:#000000;solid-opacity:1;fill:#000000;fill-opacity:1;fill-rule:nonzero;stroke:none;stroke-width:1;stroke-linecap:butt;stroke-linejoin:miter;stroke-miterlimit:4;stroke-dasharray:none;stroke-dashoffset:0;stroke-opacity:1;marker:none;color-rendering:auto;image-rendering:auto;shape-rendering:auto;text-rendering:auto;enable-background:accumulate"
     d="m 4.3,20.999621 c -0.1662,0 -0.3,0.1115 -0.3,0.25 v 1.5 c 0,0.1385 0.1338,0.25 0.3,0.25 h 2.4 c 0.1662,0 0.3,-0.1115 0.3,-0.25 v -1.5 c 0,-0.1385 -0.1338,-0.25 -0.3,-0.25 z"
     id="path4264" />
  <path
     id="path4330"
     d="m 8.3,20.999621 c -0.1662,0 -0.3,0.1115 -0.3,0.25 v 1.5 c 0,0.1385 0.1338,0.25 0.3,0.25 l 15.4,0 c 0.1662,0 0.3,-0.1115 0.3,-0.25 v -1.5 c 0,-0.1385 -0.1338,-0.25 -0.3,-0.25 z"
     style="color:#000000;clip-rule:nonzero;display:inline;overflow:visible;visibility:visible;opacity:0.2;isolation:auto;mix-blend-mode:normal;color-interpolation:sRGB;color-interpolation-filters:linearRGB;solid-color:#000000;solid-opacity:1;fill:#000000;fill-opacity:1;fill-rule:nonzero;stroke:none;stroke-width:1;stroke-linecap:butt;stroke-linejoin:miter;stroke-miterlimit:4;stroke-dasharray:none;stroke-dashoffset:0;stroke-opacity:1;marker:none;color-rendering:auto;image-rendering:auto;shape-rendering:auto;text-rendering:auto;enable-background:accumulate"
     sodipodi:nodetypes="sssssssss" />
  <path
     style="color:#000000;clip-rule:nonzero;display:inline;overflow:visible;visibility:visible;opacity:0.2;isolation:auto;mix-blend-mode:normal;color-interpolation:sRGB;color-interpolation-filters:linearRGB;solid-color:#000000;solid-opacity:1;fill:#000000;fill-opacity:1;fill-rule:nonzero;stroke:none;stroke-width:1;stroke-linecap:butt;stroke-linejoin:miter;stroke-miterlimit:4;stroke-dasharray:none;stroke-dashoffset:0;stroke-opacity:1;marker:none;color-rendering:auto;image-rendering:auto;shape-rendering:auto;text-rendering:auto;enable-background:accumulate"
     d="m 25.3,20.999621 c -0.1662,0 -0.3,0.1115 -0.3,0.25 v 1.5 c 0,0.1385 0.1338,0.25 0.3,0.25 h 2.4 c 0.1662,0 0.3,-0.1115 0.3,-0.25 v -1.5 c 0,-0.1385 -0.1338,-0.25 -0.3,-0.25 z"
     id="path4336" />
  <path
     style="color:#000000;clip-rule:nonzero;display:inline;overflow:visible;visibility:visible;opacity:0.2;isolation:auto;mix-blend-mode:normal;color-interpolation:sRGB;color-interpolation-filters:linearRGB;solid-color:#000000;solid-opacity:1;fill:#000000;fill-opacity:1;fill-rule:nonzero;stroke:none;stroke-width:1;stroke-linecap:butt;stroke-linejoin:miter;stroke-miterlimit:4;stroke-dasharray:none;stroke-dashoffset:0;stroke-opacity:1;marker:none;color-rendering:auto;image-rendering:auto;shape-rendering:auto;text-rendering:auto;enable-background:accumulate"
     d="m 9.2,17.999621 c -0.1108,0 -0.2,0.1115 -0.2,0.25 v 1.5 c 0,0.1385 0.0892,0.25 0.2,0.25 h 1.6 c 0.1108,0 0.2,-0.1115 0.2,-0.25 v -1.5 c 0,-0.1385 -0.0892,-0.25 -0.2,-0.25 z"
     id="path4360"
     sodipodi:nodetypes="sssssssss" />
  <path
     id="path4366"
     d="m 15.2,17.999621 c -0.1108,0 -0.2,0.1115 -0.2,0.25 v 1.5 c 0,0.1385 0.0892,0.25 0.2,0.25 h 1.6 c 0.1108,0 0.2,-0.1115 0.2,-0.25 v -1.5 c 0,-0.1385 -0.0892,-0.25 -0.2,-0.25 z"
     style="color:#000000;clip-rule:nonzero;display:inline;overflow:visible;visibility:visible;opacity:0.2;isolation:auto;mix-blend-mode:normal;color-interpolation:sRGB;color-interpolation-filters:linearRGB;solid-color:#000000;solid-opacity:1;fill:#000000;fill-opacity:1;fill-rule:nonzero;stroke:none;stroke-width:1;stroke-linecap:butt;stroke-linejoin:miter;stroke-miterlimit:4;stroke-dasharray:none;stroke-dashoffset:0;stroke-opacity:1;marker:none;color-rendering:auto;image-rendering:auto;shape-rendering:auto;text-rendering:auto;enable-background:accumulate"
     sodipodi:nodetypes="sssssssss" />
  <path
     style="color:#000000;clip-rule:nonzero;display:inline;overflow:visible;visibility:visible;opacity:0.2;isolation:auto;mix-blend-mode:normal;color-interpolation:sRGB;color-interpolation-filters:linearRGB;solid-color:#000000;solid-opacity:1;fill:#000000;fill-opacity:1;fill-rule:nonzero;stroke:none;stroke-width:1;stroke-linecap:butt;stroke-linejoin:miter;stroke-miterlimit:4;stroke-dasharray:none;stroke-dashoffset:0;stroke-opacity:1;marker:none;color-rendering:auto;image-rendering:auto;shape-rendering:auto;text-rendering:auto;enable-background:accumulate"
     d="m 21.2,17.999621 c -0.1108,0 -0.2,0.1115 -0.2,0.25 v 1.5 c 0,0.1385 0.0892,0.25 0.2,0.25 h 1.6 c 0.1108,0 0.2,-0.1115 0.2,-0.25 v -1.5 c 0,-0.1385 -0.0892,-0.25 -0.2,-0.25 z"
     id="path4372"
     sodipodi:nodetypes="sssssssss" />
  <path
     id="path4378"
     d="m 24.2,17.999621 c -0.1108,0 -0.2,0.1115 -0.2,0.25 v 1.5 c 0,0.1385 0.0892,0.25 0.2,0.25 h 3.6 c 0.1108,0 0.2,-0.1115 0.2,-0.25 v -1.5 c 0,-0.1385 -0.0892,-0.25 -0.2,-0.25 z"
     style="color:#000000;clip-rule:nonzero;display:inline;overflow:visible;visibility:visible;opacity:0.2;isolation:auto;mix-blend-mode:normal;color-interpolation:sRGB;color-interpolation-filters:linearRGB;solid-color:#000000;solid-opacity:1;fill:#000000;fill-opacity:1;fill-rule:nonzero;stroke:none;stroke-width:1;stroke-linecap:butt;stroke-linejoin:miter;stroke-miterlimit:4;stroke-dasharray:none;stroke-dashoffset:0;stroke-opacity:1;marker:none;color-rendering:auto;image-rendering:auto;shape-rendering:auto;text-rendering:auto;enable-background:accumulate"
     sodipodi:nodetypes="sssssssss" />
  <path
     id="path4384"
     d="m 4.3,17.999621 c -0.1662,0 -0.3,0.1115 -0.3,0.25 v 1.5 c 0,0.1385 0.1338,0.25 0.3,0.25 h 3.4 c 0.1662,0 0.3,-0.1115 0.3,-0.25 v -1.5 c 0,-0.1385 -0.1338,-0.25 -0.3,-0.25 z"
     style="color:#000000;clip-rule:nonzero;display:inline;overflow:visible;visibility:visible;opacity:0.2;isolation:auto;mix-blend-mode:normal;color-interpolation:sRGB;color-interpolation-filters:linearRGB;solid-color:#000000;solid-opacity:1;fill:#000000;fill-opacity:1;fill-rule:nonzero;stroke:none;stroke-width:1;stroke-linecap:butt;stroke-linejoin:miter;stroke-miterlimit:4;stroke-dasharray:none;stroke-dashoffset:0;stroke-opacity:1;marker:none;color-rendering:auto;image-rendering:auto;shape-rendering:auto;text-rendering:auto;enable-background:accumulate"
     sodipodi:nodetypes="sssssssss" />
  <path
     id="path4390"
     d="m 12.2,17.999621 c -0.1108,0 -0.2,0.1115 -0.2,0.25 v 1.5 c 0,0.1385 0.0892,0.25 0.2,0.25 h 1.6 c 0.1108,0 0.2,-0.1115 0.2,-0.25 v -1.5 c 0,-0.1385 -0.0892,-0.25 -0.2,-0.25 z"
     style="color:#000000;clip-rule:nonzero;display:inline;overflow:visible;visibility:visible;opacity:0.2;isolation:auto;mix-blend-mode:normal;color-interpolation:sRGB;color-interpolation-filters:linearRGB;solid-color:#000000;solid-opacity:1;fill:#000000;fill-opacity:1;fill-rule:nonzero;stroke:none;stroke-width:1;stroke-linecap:butt;stroke-linejoin:miter;stroke-miterlimit:4;stroke-dasharray:none;stroke-dashoffset:0;stroke-opacity:1;marker:none;color-rendering:auto;image-rendering:auto;shape-rendering:auto;text-rendering:auto;enable-background:accumulate"
     sodipodi:nodetypes="sssssssss" />
  <path
     style="color:#000000;clip-rule:nonzero;display:inline;overflow:visible;visibility:visible;opacity:0.2;isolation:auto;mix-blend-mode:normal;color-interpolation:sRGB;color-interpolation-filters:linearRGB;solid-color:#000000;solid-opacity:1;fill:#000000;fill-opacity:1;fill-rule:nonzero;stroke:none;stroke-width:1;stroke-linecap:butt;stroke-linejoin:miter;stroke-miterlimit:4;stroke-dasharray:none;stroke-dashoffset:0;stroke-opacity:1;marker:none;color-rendering:auto;image-rendering:auto;shape-rendering:auto;text-rendering:auto;enable-background:accumulate"
     d="m 18.2,17.999621 c -0.1108,0 -0.2,0.1115 -0.2,0.25 v 1.5 c 0,0.1385 0.0892,0.25 0.2,0.25 h 1.6 c 0.1108,0 0.2,-0.1115 0.2,-0.25 v -1.5 c 0,-0.1385 -0.0892,-0.25 -0.2,-0.25 z"
     id="path4396"
     sodipodi:nodetypes="sssssssss" />
  <path
     id="path4408"
     d="m 8.2,14.999621 c -0.1108,0 -0.2,0.1115 -0.2,0.25 v 1.5 c 0,0.1385 0.0892,0.25 0.2,0.25 h 1.6 c 0.1108,0 0.2,-0.1115 0.2,-0.25 v -1.5 c 0,-0.1385 -0.0892,-0.25 -0.2,-0.25 z"
     style="color:#000000;clip-rule:nonzero;display:inline;overflow:visible;visibility:visible;opacity:0.2;isolation:auto;mix-blend-mode:normal;color-interpolation:sRGB;color-interpolation-filters:linearRGB;solid-color:#000000;solid-opacity:1;fill:#000000;fill-opacity:1;fill-rule:nonzero;stroke:none;stroke-width:1;stroke-linecap:butt;stroke-linejoin:miter;stroke-miterlimit:4;stroke-dasharray:none;stroke-dashoffset:0;stroke-opacity:1;marker:none;color-rendering:auto;image-rendering:auto;shape-rendering:auto;text-rendering:auto;enable-background:accumulate" />
  <path
     style="color:#000000;clip-rule:nonzero;display:inline;overflow:visible;visibility:visible;opacity:0.2;isolation:auto;mix-blend-mode:normal;color-interpolation:sRGB;color-interpolation-filters:linearRGB;solid-color:#000000;solid-opacity:1;fill:#000000;fill-opacity:1;fill-rule:nonzero;stroke:none;stroke-width:1;stroke-linecap:butt;stroke-linejoin:miter;stroke-miterlimit:4;stroke-dasharray:none;stroke-dashoffset:0;stroke-opacity:1;marker:none;color-rendering:auto;image-rendering:auto;shape-rendering:auto;text-rendering:auto;enable-background:accumulate"
     d="m 14.2,14.999621 c -0.1108,0 -0.2,0.1115 -0.2,0.25 v 1.5 c 0,0.1385 0.0892,0.25 0.2,0.25 h 1.6 c 0.1108,0 0.2,-0.1115 0.2,-0.25 v -1.5 c 0,-0.1385 -0.0892,-0.25 -0.2,-0.25 z"
     id="path4412" />
  <path
     id="path4416"
     d="m 20.2,14.999621 c -0.1108,0 -0.2,0.1115 -0.2,0.25 v 1.5 c 0,0.1385 0.0892,0.25 0.2,0.25 h 1.6 c 0.1108,0 0.2,-0.1115 0.2,-0.25 v -1.5 c 0,-0.1385 -0.0892,-0.25 -0.2,-0.25 z"
     style="color:#000000;clip-rule:nonzero;display:inline;overflow:visible;visibility:visible;opacity:0.2;isolation:auto;mix-blend-mode:normal;color-interpolation:sRGB;color-interpolation-filters:linearRGB;solid-color:#000000;solid-opacity:1;fill:#000000;fill-opacity:1;fill-rule:nonzero;stroke:none;stroke-width:1;stroke-linecap:butt;stroke-linejoin:miter;stroke-miterlimit:4;stroke-dasharray:none;stroke-dashoffset:0;stroke-opacity:1;marker:none;color-rendering:auto;image-rendering:auto;shape-rendering:auto;text-rendering:auto;enable-background:accumulate" />
  <path
     style="color:#000000;clip-rule:nonzero;display:inline;overflow:visible;visibility:visible;opacity:0.2;isolation:auto;mix-blend-mode:normal;color-interpolation:sRGB;color-interpolation-filters:linearRGB;solid-color:#000000;solid-opacity:1;fill:#000000;fill-opacity:1;fill-rule:nonzero;stroke:none;stroke-width:1;stroke-linecap:butt;stroke-linejoin:miter;stroke-miterlimit:4;stroke-dasharray:none;stroke-dashoffset:0;stroke-opacity:1;marker:none;color-rendering:auto;image-rendering:auto;shape-rendering:auto;text-rendering:auto;enable-background:accumulate"
     d="m 26.2,14.999621 c -0.1108,0 -0.2,0.1115 -0.2,0.25 v 1.5 c 0,0.1385 0.0892,0.25 0.2,0.25 h 1.6 c 0.1108,0 0.2,-0.1115 0.2,-0.25 v -1.5 c 0,-0.1385 -0.0892,-0.25 -0.2,-0.25 z"
     id="path4420" />
  <path
     style="color:#000000;clip-rule:nonzero;display:inline;overflow:visible;visibility:visible;opacity:0.2;isolation:auto;mix-blend-mode:normal;color-interpolation:sRGB;color-interpolation-filters:linearRGB;solid-color:#000000;solid-opacity:1;fill:#000000;fill-opacity:1;fill-rule:nonzero;stroke:none;stroke-width:1;stroke-linecap:butt;stroke-linejoin:miter;stroke-miterlimit:4;stroke-dasharray:none;stroke-dashoffset:0;stroke-opacity:1;marker:none;color-rendering:auto;image-rendering:auto;shape-rendering:auto;text-rendering:auto;enable-background:accumulate"
     d="m 4.3,14.999621 c -0.1662,0 -0.3,0.1115 -0.3,0.25 v 1.5 c 0,0.1385 0.1338,0.25 0.3,0.25 h 2.4 c 0.1662,0 0.3,-0.1115 0.3,-0.25 v -1.5 c 0,-0.1385 -0.1338,-0.25 -0.3,-0.25 z"
     id="path4424" />
  <path
     style="color:#000000;clip-rule:nonzero;display:inline;overflow:visible;visibility:visible;opacity:0.2;isolation:auto;mix-blend-mode:normal;color-interpolation:sRGB;color-interpolation-filters:linearRGB;solid-color:#000000;solid-opacity:1;fill:#000000;fill-opacity:1;fill-rule:nonzero;stroke:none;stroke-width:1;stroke-linecap:butt;stroke-linejoin:miter;stroke-miterlimit:4;stroke-dasharray:none;stroke-dashoffset:0;stroke-opacity:1;marker:none;color-rendering:auto;image-rendering:auto;shape-rendering:auto;text-rendering:auto;enable-background:accumulate"
     d="m 11.2,14.999621 c -0.1108,0 -0.2,0.1115 -0.2,0.25 v 1.5 c 0,0.1385 0.0892,0.25 0.2,0.25 h 1.6 c 0.1108,0 0.2,-0.1115 0.2,-0.25 v -1.5 c 0,-0.1385 -0.0892,-0.25 -0.2,-0.25 z"
     id="path4428" />
  <path
     id="path4432"
     d="m 17.2,14.999621 c -0.1108,0 -0.2,0.1115 -0.2,0.25 v 1.5 c 0,0.1385 0.0892,0.25 0.2,0.25 h 1.6 c 0.1108,0 0.2,-0.1115 0.2,-0.25 v -1.5 c 0,-0.1385 -0.0892,-0.25 -0.2,-0.25 z"
     style="color:#000000;clip-rule:nonzero;display:inline;overflow:visible;visibility:visible;opacity:0.2;isolation:auto;mix-blend-mode:normal;color-interpolation:sRGB;color-interpolation-filters:linearRGB;solid-color:#000000;solid-opacity:1;fill:#000000;fill-opacity:1;fill-rule:nonzero;stroke:none;stroke-width:1;stroke-linecap:butt;stroke-linejoin:miter;stroke-miterlimit:4;stroke-dasharray:none;stroke-dashoffset:0;stroke-opacity:1;marker:none;color-rendering:auto;image-rendering:auto;shape-rendering:auto;text-rendering:auto;enable-background:accumulate" />
  <path
     style="color:#000000;clip-rule:nonzero;display:inline;overflow:visible;visibility:visible;opacity:0.2;isolation:auto;mix-blend-mode:normal;color-interpolation:sRGB;color-interpolation-filters:linearRGB;solid-color:#000000;solid-opacity:1;fill:#000000;fill-opacity:1;fill-rule:nonzero;stroke:none;stroke-width:1;stroke-linecap:butt;stroke-linejoin:miter;stroke-miterlimit:4;stroke-dasharray:none;stroke-dashoffset:0;stroke-opacity:1;marker:none;color-rendering:auto;image-rendering:auto;shape-rendering:auto;text-rendering:auto;enable-background:accumulate"
     d="m 23.2,14.999621 c -0.1108,0 -0.2,0.1115 -0.2,0.25 v 1.5 c 0,0.1385 0.0892,0.25 0.2,0.25 h 1.6 c 0.1108,0 0.2,-0.1115 0.2,-0.25 v -1.5 c 0,-0.1385 -0.0892,-0.25 -0.2,-0.25 z"
     id="path4436" />
  <path
     style="color:#000000;clip-rule:nonzero;display:inline;overflow:visible;visibility:visible;opacity:0.2;isolation:auto;mix-blend-mode:normal;color-interpolation:sRGB;color-interpolation-filters:linearRGB;solid-color:#000000;solid-opacity:1;fill:#000000;fill-opacity:1;fill-rule:nonzero;stroke:none;stroke-width:1;stroke-linecap:butt;stroke-linejoin:miter;stroke-miterlimit:4;stroke-dasharray:none;stroke-dashoffset:0;stroke-opacity:1;marker:none;color-rendering:auto;image-rendering:auto;shape-rendering:auto;text-rendering:auto;enable-background:accumulate"
     d="m 4.2,11.999621 c -0.1108,0 -0.2,0.1115 -0.2,0.25 v 1.5 c 0,0.1385 0.0892,0.25 0.2,0.25 h 1.6 c 0.1108,0 0.2,-0.1115 0.2,-0.25 v -1.5 c 0,-0.1385 -0.0892,-0.25 -0.2,-0.25 z"
     id="path4531" />
  <path
     id="path4535"
     d="m 10.2,11.999621 c -0.1108,0 -0.2,0.1115 -0.2,0.25 v 1.5 c 0,0.1385 0.0892,0.25 0.2,0.25 h 1.6 c 0.1108,0 0.2,-0.1115 0.2,-0.25 v -1.5 c 0,-0.1385 -0.0892,-0.25 -0.2,-0.25 z"
     style="color:#000000;clip-rule:nonzero;display:inline;overflow:visible;visibility:visible;opacity:0.2;isolation:auto;mix-blend-mode:normal;color-interpolation:sRGB;color-interpolation-filters:linearRGB;solid-color:#000000;solid-opacity:1;fill:#000000;fill-opacity:1;fill-rule:nonzero;stroke:none;stroke-width:1;stroke-linecap:butt;stroke-linejoin:miter;stroke-miterlimit:4;stroke-dasharray:none;stroke-dashoffset:0;stroke-opacity:1;marker:none;color-rendering:auto;image-rendering:auto;shape-rendering:auto;text-rendering:auto;enable-background:accumulate" />
  <path
     style="color:#000000;clip-rule:nonzero;display:inline;overflow:visible;visibility:visible;opacity:0.2;isolation:auto;mix-blend-mode:normal;color-interpolation:sRGB;color-interpolation-filters:linearRGB;solid-color:#000000;solid-opacity:1;fill:#000000;fill-opacity:1;fill-rule:nonzero;stroke:none;stroke-width:1;stroke-linecap:butt;stroke-linejoin:miter;stroke-miterlimit:4;stroke-dasharray:none;stroke-dashoffset:0;stroke-opacity:1;marker:none;color-rendering:auto;image-rendering:auto;shape-rendering:auto;text-rendering:auto;enable-background:accumulate"
     d="m 16.2,11.999621 c -0.1108,0 -0.2,0.1115 -0.2,0.25 v 1.5 c 0,0.1385 0.0892,0.25 0.2,0.25 h 1.6 c 0.1108,0 0.2,-0.1115 0.2,-0.25 v -1.5 c 0,-0.1385 -0.0892,-0.25 -0.2,-0.25 z"
     id="path4539" />
  <path
     id="path4543"
     d="m 22.2,11.999621 c -0.1108,0 -0.2,0.1115 -0.2,0.25 v 1.5 c 0,0.1385 0.0892,0.25 0.2,0.25 h 1.6 c 0.1108,0 0.2,-0.1115 0.2,-0.25 v -1.5 c 0,-0.1385 -0.0892,-0.25 -0.2,-0.25 z"
     style="color:#000000;clip-rule:nonzero;display:inline;overflow:visible;visibility:visible;opacity:0.2;isolation:auto;mix-blend-mode:normal;color-interpolation:sRGB;color-interpolation-filters:linearRGB;solid-color:#000000;solid-opacity:1;fill:#000000;fill-opacity:1;fill-rule:nonzero;stroke:none;stroke-width:1;stroke-linecap:butt;stroke-linejoin:miter;stroke-miterlimit:4;stroke-dasharray:none;stroke-dashoffset:0;stroke-opacity:1;marker:none;color-rendering:auto;image-rendering:auto;shape-rendering:auto;text-rendering:auto;enable-background:accumulate" />
  <path
     id="path4547"
     d="m 7.2,11.999621 c -0.1108,0 -0.2,0.1115 -0.2,0.25 v 1.5 c 0,0.1385 0.0892,0.25 0.2,0.25 h 1.6 c 0.1108,0 0.2,-0.1115 0.2,-0.25 v -1.5 c 0,-0.1385 -0.0892,-0.25 -0.2,-0.25 z"
     style="color:#000000;clip-rule:nonzero;display:inline;overflow:visible;visibility:visible;opacity:0.2;isolation:auto;mix-blend-mode:normal;color-interpolation:sRGB;color-interpolation-filters:linearRGB;solid-color:#000000;solid-opacity:1;fill:#000000;fill-opacity:1;fill-rule:nonzero;stroke:none;stroke-width:1;stroke-linecap:butt;stroke-linejoin:miter;stroke-miterlimit:4;stroke-dasharray:none;stroke-dashoffset:0;stroke-opacity:1;marker:none;color-rendering:auto;image-rendering:auto;shape-rendering:auto;text-rendering:auto;enable-background:accumulate" />
  <path
     style="color:#000000;clip-rule:nonzero;display:inline;overflow:visible;visibility:visible;opacity:0.2;isolation:auto;mix-blend-mode:normal;color-interpolation:sRGB;color-interpolation-filters:linearRGB;solid-color:#000000;solid-opacity:1;fill:#000000;fill-opacity:1;fill-rule:nonzero;stroke:none;stroke-width:1;stroke-linecap:butt;stroke-linejoin:miter;stroke-miterlimit:4;stroke-dasharray:none;stroke-dashoffset:0;stroke-opacity:1;marker:none;color-rendering:auto;image-rendering:auto;shape-rendering:auto;text-rendering:auto;enable-background:accumulate"
     d="m 13.2,11.999621 c -0.1108,0 -0.2,0.1115 -0.2,0.25 v 1.5 c 0,0.1385 0.0892,0.25 0.2,0.25 h 1.6 c 0.1108,0 0.2,-0.1115 0.2,-0.25 v -1.5 c 0,-0.1385 -0.0892,-0.25 -0.2,-0.25 z"
     id="path4551" />
  <path
     id="path4555"
     d="m 19.2,11.999621 c -0.1108,0 -0.2,0.1115 -0.2,0.25 v 1.5 c 0,0.1385 0.0892,0.25 0.2,0.25 h 1.6 c 0.1108,0 0.2,-0.1115 0.2,-0.25 v -1.5 c 0,-0.1385 -0.0892,-0.25 -0.2,-0.25 z"
     style="color:#000000;clip-rule:nonzero;display:inline;overflow:visible;visibility:visible;opacity:0.2;isolation:auto;mix-blend-mode:normal;color-interpolation:sRGB;color-interpolation-filters:linearRGB;solid-color:#000000;solid-opacity:1;fill:#000000;fill-opacity:1;fill-rule:nonzero;stroke:none;stroke-width:1;stroke-linecap:butt;stroke-linejoin:miter;stroke-miterlimit:4;stroke-dasharray:none;stroke-dashoffset:0;stroke-opacity:1;marker:none;color-rendering:auto;image-rendering:auto;shape-rendering:auto;text-rendering:auto;enable-background:accumulate" />
  <path
     id="path4573"
     d="m 25.3,11.999621 c -0.1662,0 -0.3,0.1115 -0.3,0.25 v 1.5 c 0,0.1385 0.1338,0.25 0.3,0.25 h 2.4 c 0.1662,0 0.3,-0.1115 0.3,-0.25 v -1.5 c 0,-0.1385 -0.1338,-0.25 -0.3,-0.25 z"
     style="color:#000000;clip-rule:nonzero;display:inline;overflow:visible;visibility:visible;opacity:0.2;isolation:auto;mix-blend-mode:normal;color-interpolation:sRGB;color-interpolation-filters:linearRGB;solid-color:#000000;solid-opacity:1;fill:#000000;fill-opacity:1;fill-rule:nonzero;stroke:none;stroke-width:1;stroke-linecap:butt;stroke-linejoin:miter;stroke-miterlimit:4;stroke-dasharray:none;stroke-dashoffset:0;stroke-opacity:1;marker:none;color-rendering:auto;image-rendering:auto;shape-rendering:auto;text-rendering:auto;enable-background:accumulate" />
  <path
     id="path4575"
     style="color:#000000;clip-rule:nonzero;display:inline;overflow:visible;visibility:visible;opacity:1;isolation:auto;mix-blend-mode:normal;color-interpolation:sRGB;color-interpolation-filters:linearRGB;solid-color:#000000;solid-opacity:1;fill:#fafafa;fill-opacity:1;fill-rule:nonzero;stroke:none;stroke-width:1;stroke-linecap:butt;stroke-linejoin:miter;stroke-miterlimit:4;stroke-dasharray:none;stroke-dashoffset:0;stroke-opacity:1;marker:none;color-rendering:auto;image-rendering:auto;shape-rendering:auto;text-rendering:auto;enable-background:accumulate"
     d="m 25.3,10.999621 c -0.1662,0 -0.3,0.1115 -0.3,0.25 v 1.5 c 0,0.1385 0.1338,0.25 0.3,0.25 h 2.4 c 0.1662,0 0.3,-0.1115 0.3,-0.25 v -1.5 c 0,-0.1385 -0.1338,-0.25 -0.3,-0.25 z m -6.1,0 c -0.1108,0 -0.2,0.1115 -0.2,0.25 v 1.5 c 0,0.1385 0.0892,0.25 0.2,0.25 h 1.6 c 0.1108,0 0.2,-0.1115 0.2,-0.25 v -1.5 c 0,-0.1385 -0.0892,-0.25 -0.2,-0.25 z m -6,0 c -0.1108,0 -0.2,0.1115 -0.2,0.25 v 1.5 c 0,0.1385 0.0892,0.25 0.2,0.25 h 1.6 c 0.1108,0 0.2,-0.1115 0.2,-0.25 v -1.5 c 0,-0.1385 -0.0892,-0.25 -0.2,-0.25 z m -6,0 c -0.1108,0 -0.2,0.1115 -0.2,0.25 v 1.5 c 0,0.1385 0.0892,0.25 0.2,0.25 h 1.6 c 0.1108,0 0.2,-0.1115 0.2,-0.25 v -1.5 c 0,-0.1385 -0.0892,-0.25 -0.2,-0.25 z m 15,0 c -0.1108,0 -0.2,0.1115 -0.2,0.25 v 1.5 c 0,0.1385 0.0892,0.25 0.2,0.25 h 1.6 c 0.1108,0 0.2,-0.1115 0.2,-0.25 v -1.5 c 0,-0.1385 -0.0892,-0.25 -0.2,-0.25 z m -6,0 c -0.1108,0 -0.2,0.1115 -0.2,0.25 v 1.5 c 0,0.1385 0.0892,0.25 0.2,0.25 h 1.6 c 0.1108,0 0.2,-0.1115 0.2,-0.25 v -1.5 c 0,-0.1385 -0.0892,-0.25 -0.2,-0.25 z m -6,0 c -0.1108,0 -0.2,0.1115 -0.2,0.25 v 1.5 c 0,0.1385 0.0892,0.25 0.2,0.25 h 1.6 c 0.1108,0 0.2,-0.1115 0.2,-0.25 v -1.5 c 0,-0.1385 -0.0892,-0.25 -0.2,-0.25 z m -6,0 c -0.1108,0 -0.2,0.1115 -0.2,0.25 v 1.5 c 0,0.1385 0.0892,0.25 0.2,0.25 h 1.6 c 0.1108,0 0.2,-0.1115 0.2,-0.25 v -1.5 c 0,-0.1385 -0.0892,-0.25 -0.2,-0.25 z m 19,3 c -0.1108,0 -0.2,0.1115 -0.2,0.25 v 1.5 c 0,0.1385 0.0892,0.25 0.2,0.25 h 1.6 c 0.1108,0 0.2,-0.1115 0.2,-0.25 v -1.5 c 0,-0.1385 -0.0892,-0.25 -0.2,-0.25 z m -6,0 c -0.1108,0 -0.2,0.1115 -0.2,0.25 v 1.5 c 0,0.1385 0.0892,0.25 0.2,0.25 h 1.6 c 0.1108,0 0.2,-0.1115 0.2,-0.25 v -1.5 c 0,-0.1385 -0.0892,-0.25 -0.2,-0.25 z m -6,0 c -0.1108,0 -0.2,0.1115 -0.2,0.25 v 1.5 c 0,0.1385 0.0892,0.25 0.2,0.25 h 1.6 c 0.1108,0 0.2,-0.1115 0.2,-0.25 v -1.5 c 0,-0.1385 -0.0892,-0.25 -0.2,-0.25 z m -6.9,0 c -0.1662,0 -0.3,0.1115 -0.3,0.25 v 1.5 c 0,0.1385 0.1338,0.25 0.3,0.25 h 2.4 c 0.1662,0 0.3,-0.1115 0.3,-0.25 v -1.5 c 0,-0.1385 -0.1338,-0.25 -0.3,-0.25 z m 21.9,0 c -0.1108,0 -0.2,0.1115 -0.2,0.25 v 1.5 c 0,0.1385 0.0892,0.25 0.2,0.25 h 1.6 c 0.1108,0 0.2,-0.1115 0.2,-0.25 v -1.5 c 0,-0.1385 -0.0892,-0.25 -0.2,-0.25 z m -6,0 c -0.1108,0 -0.2,0.1115 -0.2,0.25 v 1.5 c 0,0.1385 0.0892,0.25 0.2,0.25 h 1.6 c 0.1108,0 0.2,-0.1115 0.2,-0.25 v -1.5 c 0,-0.1385 -0.0892,-0.25 -0.2,-0.25 z m -6,0 c -0.1108,0 -0.2,0.1115 -0.2,0.25 v 1.5 c 0,0.1385 0.0892,0.25 0.2,0.25 h 1.6 c 0.1108,0 0.2,-0.1115 0.2,-0.25 v -1.5 c 0,-0.1385 -0.0892,-0.25 -0.2,-0.25 z m -6,0 c -0.1108,0 -0.2,0.1115 -0.2,0.25 v 1.5 c 0,0.1385 0.0892,0.25 0.2,0.25 h 1.6 c 0.1108,0 0.2,-0.1115 0.2,-0.25 v -1.5 c 0,-0.1385 -0.0892,-0.25 -0.2,-0.25 z m 10,3 c -0.1108,0 -0.2,0.1115 -0.2,0.25 v 1.5 c 0,0.1385 0.0892,0.25 0.2,0.25 h 1.6 c 0.1108,0 0.2,-0.1115 0.2,-0.25 v -1.5 c 0,-0.1385 -0.0892,-0.25 -0.2,-0.25 z m -6,0 c -0.1108,0 -0.2,0.1115 -0.2,0.25 v 1.5 c 0,0.1385 0.0892,0.25 0.2,0.25 h 1.6 c 0.1108,0 0.2,-0.1115 0.2,-0.25 v -1.5 c 0,-0.1385 -0.0892,-0.25 -0.2,-0.25 z m -7.9,0 c -0.1662,0 -0.3,0.1115 -0.3,0.25 v 1.5 c 0,0.1385 0.1338,0.25 0.3,0.25 h 3.4 c 0.1662,0 0.3,-0.1115 0.3,-0.25 v -1.5 c 0,-0.1385 -0.1338,-0.25 -0.3,-0.25 z m 19.9,0 c -0.1108,0 -0.2,0.1115 -0.2,0.25 v 1.5 c 0,0.1385 0.0892,0.25 0.2,0.25 h 3.6 c 0.1108,0 0.2,-0.1115 0.2,-0.25 v -1.5 c 0,-0.1385 -0.0892,-0.25 -0.2,-0.25 z m -3,0 c -0.1108,0 -0.2,0.1115 -0.2,0.25 v 1.5 c 0,0.1385 0.0892,0.25 0.2,0.25 h 1.6 c 0.1108,0 0.2,-0.1115 0.2,-0.25 v -1.5 c 0,-0.1385 -0.0892,-0.25 -0.2,-0.25 z m -6,0 c -0.1108,0 -0.2,0.1115 -0.2,0.25 v 1.5 c 0,0.1385 0.0892,0.25 0.2,0.25 h 1.6 c 0.1108,0 0.2,-0.1115 0.2,-0.25 v -1.5 c 0,-0.1385 -0.0892,-0.25 -0.2,-0.25 z m -6,0 c -0.1108,0 -0.2,0.1115 -0.2,0.25 v 1.5 c 0,0.1385 0.0892,0.25 0.2,0.25 h 1.6 c 0.1108,0 0.2,-0.1115 0.2,-0.25 v -1.5 c 0,-0.1385 -0.0892,-0.25 -0.2,-0.25 z m 16.1,3 c -0.1662,0 -0.3,0.1115 -0.3,0.25 v 1.5 c 0,0.1385 0.1338,0.25 0.3,0.25 h 2.4 c 0.1662,0 0.3,-0.1115 0.3,-0.25 v -1.5 c 0,-0.1385 -0.1338,-0.25 -0.3,-0.25 z m -17,0 c -0.1662,0 -0.3,0.1115 -0.3,0.25 v 1.5 c 0,0.1385 0.1338,0.25 0.3,0.25 h 15.4 c 0.1662,0 0.3,-0.1115 0.3,-0.25 v -1.5 c 0,-0.1385 -0.1338,-0.25 -0.3,-0.25 z m -4,0 c -0.1662,0 -0.3,0.1115 -0.3,0.25 v 1.5 c 0,0.1385 0.1338,0.25 0.3,0.25 h 2.4 c 0.1662,0 0.3,-0.1115 0.3,-0.25 v -1.5 c 0,-0.1385 -0.1338,-0.25 -0.3,-0.25 z"
     sodipodi:nodetypes="ssssssssssssssssssssssssssssssssssssssssssssssssssssssssssssssssssssssssssssssssssssssssssssssssssssssssssssssssssssssssssssssssssssssssssssssssssssssssssssssssssssssssssssssssssssssssssssssssssssssssssssssssssssssssssssssssssssssssss" />
</svg>
