<?xml version="1.0" encoding="UTF-8" standalone="no"?>
<svg
   width="22"
   height="22"
   id="svg10706"
   version="1.1"
   sodipodi:docname="folder-saved-search.svg"
   inkscape:version="1.2.2 (b0a8486541, 2022-12-01)"
   xmlns:inkscape="http://www.inkscape.org/namespaces/inkscape"
   xmlns:sodipodi="http://sodipodi.sourceforge.net/DTD/sodipodi-0.dtd"
   xmlns:xlink="http://www.w3.org/1999/xlink"
   xmlns="http://www.w3.org/2000/svg"
   xmlns:svg="http://www.w3.org/2000/svg"
   xmlns:rdf="http://www.w3.org/1999/02/22-rdf-syntax-ns#"
   xmlns:cc="http://creativecommons.org/ns#"
   xmlns:dc="http://purl.org/dc/elements/1.1/">
  <sodipodi:namedview
     id="namedview4858"
     pagecolor="#ffffff"
     bordercolor="#000000"
     borderopacity="0.25"
     inkscape:showpageshadow="2"
     inkscape:pageopacity="0.0"
     inkscape:pagecheckerboard="0"
     inkscape:deskcolor="#d1d1d1"
     showgrid="false"
     inkscape:zoom="36.545455"
     inkscape:cx="9.3171642"
     inkscape:cy="11.013682"
     inkscape:window-width="1920"
     inkscape:window-height="1020"
     inkscape:window-x="0"
     inkscape:window-y="0"
     inkscape:window-maximized="1"
     inkscape:current-layer="layer1" />
  <defs
     id="defs10708">
    <linearGradient
       xlink:href="#linearGradient3454-2-5-0-3-4-1-2"
       id="linearGradient4440-9-5"
       gradientUnits="userSpaceOnUse"
       gradientTransform="matrix(0.62762637,0,0,0.7245642,2.925437,-3.3726291)"
       x1="27.557428"
       y1="7.162672"
       x2="27.557428"
       y2="21.386522" />
    <linearGradient
       id="linearGradient3454-2-5-0-3-4-1-2">
      <stop
         offset="0"
         style="stop-color:#ffffff;stop-opacity:1"
         id="stop3456-4-9-38-1-8-8-6" />
      <stop
         offset="0.0097359"
         style="stop-color:#ffffff;stop-opacity:0.23529412"
         id="stop3458-39-80-3-5-5-8-1" />
      <stop
         offset="0.99001008"
         style="stop-color:#ffffff;stop-opacity:0.15686275"
         id="stop3460-7-0-2-4-2-7-9" />
      <stop
         offset="1"
         style="stop-color:#ffffff;stop-opacity:0.39215687"
         id="stop3462-0-9-8-7-2-3-40" />
    </linearGradient>
    <linearGradient
       xlink:href="#linearGradient6129-963-697-142-998-580-273-5-3-7"
       id="linearGradient4436-4-4"
       gradientUnits="userSpaceOnUse"
       gradientTransform="matrix(0.54761895,0,0,0.48299421,-1.154183,-7.2449091)"
       x1="22.934725"
       y1="49.629246"
       x2="22.809399"
       y2="36.657963" />
    <linearGradient
       id="linearGradient6129-963-697-142-998-580-273-5-3-7">
      <stop
         id="stop2661-1-2-2"
         style="stop-color:#0a0a0a;stop-opacity:0.498"
         offset="0" />
      <stop
         id="stop2663-85-8-6"
         style="stop-color:#0a0a0a;stop-opacity:0"
         offset="1" />
    </linearGradient>
    <linearGradient
       xlink:href="#linearGradient4632-92-3-0-8-1"
       id="linearGradient4430-9-7"
       gradientUnits="userSpaceOnUse"
       gradientTransform="matrix(0.4666607,0,0,0.46428558,0.788817,-7.1607091)"
       x1="35.792694"
       y1="17.118193"
       x2="35.792694"
       y2="43.761127" />
    <linearGradient
       id="linearGradient4632-92-3-0-8-1">
      <stop
         style="stop-color:#cdc9e3;stop-opacity:1"
         offset="0"
         id="stop4634-68-8-0-2-9" />
      <stop
         style="stop-color:#9389cb;stop-opacity:1"
         offset="1"
         id="stop4636-8-21-7-1-4" />
    </linearGradient>
    <linearGradient
       xlink:href="#linearGradient4325-0-5"
       id="linearGradient4418-4-2"
       gradientUnits="userSpaceOnUse"
       gradientTransform="matrix(0.43131243,0,0,0.48638011,1.942227,-4.8145891)"
       x1="21.37039"
       y1="4.73244"
       x2="21.37039"
       y2="34.143417" />
    <linearGradient
       id="linearGradient4325-0-5">
      <stop
         offset="0"
         style="stop-color:#ffffff;stop-opacity:1"
         id="stop4327-4-6" />
      <stop
         offset="0.1106325"
         style="stop-color:#ffffff;stop-opacity:0.23529412"
         id="stop4329-5-9" />
      <stop
         offset="0.99001008"
         style="stop-color:#ffffff;stop-opacity:0.15686275"
         id="stop4331-6-1" />
      <stop
         offset="1"
         style="stop-color:#ffffff;stop-opacity:0.39215687"
         id="stop4333-7-7" />
    </linearGradient>
    <linearGradient
       xlink:href="#linearGradient4646-7-4-3-5-6-8"
       id="linearGradient4414-2-2"
       gradientUnits="userSpaceOnUse"
       gradientTransform="matrix(0.49096263,0,0,0.48984879,-24.753853,-7.7127591)"
       x1="62.988873"
       y1="13"
       x2="62.988873"
       y2="16" />
    <linearGradient
       id="linearGradient4646-7-4-3-5-6-8">
      <stop
         offset="0"
         style="stop-color:#f9f9f9;stop-opacity:1"
         id="stop4648-8-0-3-6-5-0" />
      <stop
         offset="1"
         style="stop-color:#d8d8d8;stop-opacity:1"
         id="stop4650-1-7-3-4-8-2" />
    </linearGradient>
    <linearGradient
       id="linearGradient3104-8-8-97-4-6-11-5-5-0-5-7">
      <stop
         offset="0"
         style="stop-color:#000000;stop-opacity:0.32173914"
         id="stop3106-5-4-3-5-0-2-1-0-6-6-64" />
      <stop
         offset="1"
         style="stop-color:#000000;stop-opacity:0.27826086"
         id="stop3108-4-3-7-8-2-0-7-9-1-4-3" />
    </linearGradient>
    <linearGradient
       y2="3.6336823"
       x2="-51.786404"
       y1="53.514328"
       x1="-51.786404"
       gradientTransform="matrix(0.40212523,0,0,0.398023,53.303227,-7.7909391)"
       gradientUnits="userSpaceOnUse"
       id="linearGradient10704"
       xlink:href="#linearGradient3104-8-8-97-4-6-11-5-5-0-5-7" />
  </defs>
  <metadata
     id="metadata10711">
    <rdf:RDF>
      <cc:Work
         rdf:about="">
        <dc:format>image/svg+xml</dc:format>
        <dc:type
           rdf:resource="http://purl.org/dc/dcmitype/StillImage" />
      </cc:Work>
    </rdf:RDF>
  </metadata>
  <g
     id="layer1"
     transform="translate(0,6)">
    <path
       style="color:#000000;display:inline;overflow:visible;visibility:visible;opacity:0.8;fill:none;stroke:url(#linearGradient10704);stroke-width:1;stroke-linecap:butt;stroke-linejoin:miter;stroke-miterlimit:4;stroke-dasharray:none;stroke-dashoffset:0;stroke-opacity:1;marker:none;enable-background:accumulate"
       d="m 2.988667,-3.5624991 c -0.277,0 -0.5,0.223 -0.5,0.5 v 1.5625 h -0.5 c -0.277,0 -0.5,0.2230002 -0.5,0.50000019 v 1.76464998 h 18.999905 v -1.76464998 c 0,-0.27699999 -0.223,-0.50000019 -0.5,-0.50000019 h -9.499905 v -1.5625 c 0,-0.277 -0.223,-0.5 -0.5000002,-0.5 z"
       id="rect3186-87"
       sodipodi:nodetypes="sscssccsscsss" />
    <path
       style="color:#000000;display:inline;overflow:visible;visibility:visible;fill:url(#linearGradient4414-2-2);fill-opacity:1;fill-rule:nonzero;stroke:none;stroke-width:1;marker:none;enable-background:accumulate"
       d="m 2.988667,-2.9999991 v 2.00000019 h -1 V 2.0000011 H 19.988572 V -0.99999891 H 9.9886668 V -2.9999991 Z"
       id="rect3409-5-2-2"
       sodipodi:nodetypes="ccccccccc" />
    <path
       style="color:#000000;display:inline;overflow:visible;visibility:visible;fill:none;stroke:url(#linearGradient4418-4-2);stroke-width:1;stroke-linecap:round;stroke-linejoin:miter;stroke-miterlimit:4;stroke-dasharray:none;stroke-dashoffset:0;stroke-opacity:1;marker:none;enable-background:accumulate"
       d="m 3.488667,-2.4999991 v 2.00000019 h -1 V 1.8392911 H 19.488572 V -0.49999891 H 9.4886668 V -2.4999991 Z"
       id="rect3409-3-2"
       sodipodi:nodetypes="ccccccccc" />
    <path
       d="m 1.797887,0.50000107 c -0.50041,0.0575 -0.23314,0.65186003 -0.27303,0.98608003 0.0581,0.21599 0.43282,11.3518919 0.43282,11.7342719 0,0.33235 0.16413,0.27604 0.58003,0.27604 h 17.115085 c 0.44803,0.0103 0.35334,0.005 0.35334,-0.28128 0.0327,-0.14639 0.46339,-12.26223193 0.47997,-12.45359193 0,-0.2015 0.0421,-0.26152 -0.22081,-0.26152 z"
       id="path3388-3-1"
       style="color:#000000;display:inline;overflow:visible;visibility:visible;fill:url(#linearGradient4430-9-7);fill-opacity:1;fill-rule:nonzero;stroke:none;stroke-width:1;marker:none;enable-background:accumulate"
       sodipodi:nodetypes="ccsscccsc" />
    <path
       d="M 1.488667,1.0851241e-6 20.488582,2.0106512e-4 c 0.30338,0 0.49999,0.21522000488 0.49999,0.48280000488 l -0.4939,13.05103193 c 0.007,0.33856 -0.10002,0.4728 -0.45251,0.4657 l -17.987735,-0.008 c -0.30338,0 -0.6093,-0.19981 -0.6093,-0.46739 L 0.988667,0.48352107 c 0,-0.26757 0.19662,-0.48299000488 0.5,-0.48299000488 z"
       id="path6127-36-9-6"
       style="opacity:0.4;fill:url(#linearGradient4436-4-4);fill-opacity:1;stroke:none"
       sodipodi:nodetypes="cccccccccc" />
    <path
       style="color:#000000;display:inline;overflow:visible;visibility:visible;opacity:0.5;fill:none;stroke:url(#linearGradient4440-9-5);stroke-width:1;stroke-linecap:round;stroke-linejoin:miter;stroke-miterlimit:4;stroke-dasharray:none;stroke-dashoffset:0;stroke-opacity:1;marker:none;enable-background:accumulate"
       d="M 2.488667,1.5000011 2.928487,12.500003 H 19.048762 L 19.488572,1.5000011 Z"
       id="path3309-8-1"
       sodipodi:nodetypes="ccccc" />
    <path
       d="m 10.4997,4.0000031 c -0.1385,0 -0.25,0.1115 -0.25,0.25 v 0.84375 c -0.2743502,0.0704 -0.5275002,0.188 -0.7656502,0.32812 l -0.60935,-0.60937 c -0.098,-0.0979 -0.2458,-0.0979 -0.34375,0 L 7.8122,5.5312531 c -0.098,0.0979 -0.098,0.24581 0,0.34375 l 0.6093498,0.60937 c -0.1401,0.23812 -0.25775,0.49131 -0.3281,0.76563 H 7.2497 c -0.1385,0 -0.25,0.1115 -0.25,0.25 V 8.500003 c 0,0.1385 0.1115,0.25 0.25,0.25 h 0.8437498 c 0.0703,0.27432 0.188,0.52751 0.3281,0.76562 L 7.8122,10.125003 c -0.098,0.0979 -0.098,0.24581 0,0.34375 l 0.7187498,0.71875 c 0.0979,0.0979 0.2458,0.0979 0.34375,0 l 0.60935,-0.60938 c 0.23815,0.14012 0.4913,0.25776 0.7656502,0.32813 v 0.84375 c 0,0.1385 0.1115,0.25 0.25,0.25 h 1 c 0.1385,0 0.25,-0.1115 0.25,-0.25 v -0.84375 c 0.2743,-0.0704 0.5275,-0.18801 0.7656,-0.32813 l 0.6094,0.60938 c 0.0979,0.0979 0.2458,0.0979 0.34375,0 l 0.71875,-0.71875 c 0.0979,-0.0979 0.0979,-0.24582 0,-0.34375 l -0.6094,-0.60938 c 0.14015,-0.23811 0.25775,-0.4913 0.32815,-0.76562 h 0.84375 c 0.1385,0 0.25,-0.1115 0.25,-0.25 V 7.5000031 c 0,-0.1385 -0.1115,-0.25 -0.25,-0.25 h -0.84375 c -0.0704,-0.27432 -0.188,-0.52751 -0.32815,-0.76563 l 0.6094,-0.60937 c 0.0979,-0.0979 0.0979,-0.24582 0,-0.34375 l -0.71875,-0.71875 c -0.098,-0.0979 -0.2458,-0.0979 -0.34375,0 l -0.6094,0.60937 c -0.2381,-0.14012 -0.4913,-0.25775 -0.7656,-0.32812 v -0.84375 c 0,-0.1385 -0.1115,-0.25 -0.25,-0.25 z m 0.5,2.5 c 0.8284,0 1.5,0.67157 1.5,1.4999999 0,0.82842 -0.6716,1.5 -1.5,1.5 -0.82845,0 -1.5000002,-0.67158 -1.5000002,-1.5 0,-0.8284299 0.6715502,-1.4999999 1.5000002,-1.4999999 z"
       id="path3575-5-8-4-7-0-8-5"
       style="color:#000000;display:inline;overflow:visible;visibility:visible;opacity:0.3;fill:#ffffff;fill-opacity:1;fill-rule:nonzero;stroke:none;stroke-width:1.7;marker:none;enable-background:accumulate"
       sodipodi:nodetypes="ssccccccccssssccccscccssssccccscccssssccccccccssssssss" />
    <path
       d="m 10.4997,3.0000031 c -0.1385,0 -0.25,0.1115 -0.25,0.25 v 0.84375 c -0.2743502,0.0704 -0.5275002,0.188 -0.7656502,0.32812 l -0.60935,-0.60937 c -0.098,-0.0979 -0.2458,-0.0979 -0.34375,0 L 7.8122,4.5312531 c -0.098,0.0979 -0.098,0.24581 0,0.34375 l 0.6093498,0.60937 c -0.1401,0.23812 -0.25775,0.49131 -0.3281,0.76563 H 7.2497 c -0.1385,0 -0.25,0.1115 -0.25,0.25 v 1 c 0,0.1384999 0.1115,0.2499999 0.25,0.2499999 h 0.8437498 c 0.0703,0.27432 0.188,0.52751 0.3281,0.76562 L 7.8122,9.125003 c -0.098,0.0979 -0.098,0.24581 0,0.34375 l 0.7187498,0.71875 c 0.0979,0.0979 0.2458,0.0979 0.34375,0 l 0.60935,-0.60938 c 0.23815,0.1401201 0.4913,0.2577601 0.7656502,0.3281301 v 0.8437499 c 0,0.1385 0.1115,0.25 0.25,0.25 h 1 c 0.1385,0 0.25,-0.1115 0.25,-0.25 V 9.9062531 c 0.2743,-0.0704 0.5275,-0.18801 0.7656,-0.3281301 l 0.6094,0.60938 c 0.0979,0.0979 0.2458,0.0979 0.34375,0 l 0.71875,-0.71875 c 0.0979,-0.0979 0.0979,-0.24582 0,-0.34375 l -0.6094,-0.60938 c 0.14015,-0.23811 0.25775,-0.4913 0.32815,-0.76562 h 0.84375 c 0.1385,0 0.25,-0.1115 0.25,-0.2499999 v -1 c 0,-0.1385 -0.1115,-0.25 -0.25,-0.25 h -0.84375 c -0.0704,-0.27432 -0.188,-0.52751 -0.32815,-0.76563 l 0.6094,-0.60937 c 0.0979,-0.0979 0.0979,-0.24582 0,-0.34375 l -0.71875,-0.71875 c -0.098,-0.0979 -0.2458,-0.0979 -0.34375,0 l -0.6094,0.60937 c -0.2381,-0.14012 -0.4913,-0.25775 -0.7656,-0.32812 v -0.84375 c 0,-0.1385 -0.1115,-0.25 -0.25,-0.25 z m 0.5,2.5 c 0.8284,0 1.5,0.67157 1.5,1.5 0,0.8284199 -0.6716,1.4999999 -1.5,1.4999999 -0.82845,0 -1.5000002,-0.67158 -1.5000002,-1.4999999 0,-0.82843 0.6715502,-1.5 1.5000002,-1.5 z"
       id="path3575-5-8-4-7-0-1"
       style="color:#000000;display:inline;overflow:visible;visibility:visible;fill:#382a72;fill-opacity:0.552163;fill-rule:nonzero;stroke:none;stroke-width:1.7;marker:none;enable-background:accumulate"
       sodipodi:nodetypes="ssccccccccssssccccscccssssccccscccssssccccccccssssssss" />
    <path
       d="m 1.797887,0.50000307 c -0.50041,0.0575 -0.23314,0.65186003 -0.27303,0.98608003 0.0581,0.21599 0.43282,11.3518899 0.43282,11.7342699 0,0.33235 0.16413,0.27604 0.58003,0.27604 h 17.115085 c 0.44803,0.0103 0.35334,0.005 0.35334,-0.28128 0.0327,-0.14639 0.46339,-12.26222993 0.47997,-12.45358993 0,-0.2015 0.0421,-0.26152 -0.22081,-0.26152 z"
       id="path3388-3-1-7"
       style="color:#000000;display:inline;overflow:visible;visibility:visible;opacity:0.3;fill:none;stroke:#000000;stroke-width:1;stroke-linecap:round;stroke-linejoin:round;stroke-miterlimit:4;stroke-dasharray:none;stroke-dashoffset:0;stroke-opacity:1;marker:none;enable-background:accumulate"
       sodipodi:nodetypes="ccsscccsc" />
  </g>
</svg>
