<?xml version="1.0" encoding="UTF-8" standalone="no"?>
<svg
   id="svg3162"
   height="22"
   width="22"
   version="1.1"
   sodipodi:docname="user-trash.svg"
   inkscape:version="1.2.2 (b0a8486541, 2022-12-01)"
   xmlns:inkscape="http://www.inkscape.org/namespaces/inkscape"
   xmlns:sodipodi="http://sodipodi.sourceforge.net/DTD/sodipodi-0.dtd"
   xmlns:xlink="http://www.w3.org/1999/xlink"
   xmlns="http://www.w3.org/2000/svg"
   xmlns:svg="http://www.w3.org/2000/svg"
   xmlns:rdf="http://www.w3.org/1999/02/22-rdf-syntax-ns#"
   xmlns:cc="http://creativecommons.org/ns#"
   xmlns:dc="http://purl.org/dc/elements/1.1/">
  <sodipodi:namedview
     id="namedview58"
     pagecolor="#ffffff"
     bordercolor="#000000"
     borderopacity="0.25"
     inkscape:showpageshadow="2"
     inkscape:pageopacity="0.0"
     inkscape:pagecheckerboard="0"
     inkscape:deskcolor="#d1d1d1"
     showgrid="false"
     inkscape:zoom="33.5"
     inkscape:cx="11.865672"
     inkscape:cy="11.044776"
     inkscape:window-width="1278"
     inkscape:window-height="1005"
     inkscape:window-x="640"
     inkscape:window-y="10"
     inkscape:window-maximized="0"
     inkscape:current-layer="svg3162" />
  <defs
     id="defs3164">
    <linearGradient
       id="linearGradient3642">
      <stop
         id="stop3644"
         style="stop-color:#ffffff;stop-opacity:1"
         offset="0" />
      <stop
         id="stop3646"
         style="stop-color:#ffffff;stop-opacity:0.23529412"
         offset="0.09090912" />
      <stop
         id="stop3648"
         style="stop-color:#ffffff;stop-opacity:0.15686275"
         offset="0.89330584" />
      <stop
         id="stop3650"
         style="stop-color:#ffffff;stop-opacity:0.39215687"
         offset="1" />
    </linearGradient>
    <linearGradient
       id="linearGradient4633">
      <stop
         offset="0"
         style="stop-color:#8d909a;stop-opacity:1"
         id="stop4635" />
      <stop
         id="stop4639"
         style="stop-color:#c6c7ca;stop-opacity:1;"
         offset="0.64868498" />
      <stop
         offset="1"
         style="stop-color:#404040;stop-opacity:1"
         id="stop4637" />
    </linearGradient>
    <linearGradient
       id="linearGradient4611">
      <stop
         id="stop4613"
         offset="0"
         style="stop-color:#ffffff;stop-opacity:0.13875598" />
      <stop
         style="stop-color:#ffffff;stop-opacity:1"
         offset="0.39641187"
         id="stop4619" />
      <stop
         id="stop4615"
         offset="1"
         style="stop-color:#ffffff;stop-opacity:0;" />
    </linearGradient>
    <linearGradient
       id="linearGradient4555">
      <stop
         id="stop4557"
         offset="0"
         style="stop-color:#ffffff;stop-opacity:1;" />
      <stop
         id="stop4559"
         offset="1"
         style="stop-color:#ffffff;stop-opacity:0" />
    </linearGradient>
    <linearGradient
       id="linearGradient4238">
      <stop
         id="stop4240"
         style="stop-color:#8d909a;stop-opacity:1;"
         offset="0" />
      <stop
         offset="0.39999998"
         style="stop-color:#e5e5e5;stop-opacity:1;"
         id="stop3792" />
      <stop
         id="stop4242"
         style="stop-color:#8d909a;stop-opacity:1;"
         offset="1" />
    </linearGradient>
    <linearGradient
       y2="26.410894"
       x2="39.304905"
       y1="26.410894"
       x1="6.89116"
       spreadMethod="reflect"
       gradientTransform="matrix(0.54905777,0,0,0.61030386,-0.804254,-4.0721454)"
       gradientUnits="userSpaceOnUse"
       id="linearGradient4746"
       xlink:href="#linearGradient4238" />
    <linearGradient
       id="linearGradient3205">
      <stop
         id="stop3207"
         style="stop-color:#000000;stop-opacity:1"
         offset="0" />
      <stop
         id="stop3209"
         style="stop-color:#000000;stop-opacity:0"
         offset="1" />
    </linearGradient>
    <linearGradient
       y2="38.298595"
       x2="24"
       y1="13.506023"
       x1="24"
       gradientTransform="matrix(0.33333337,0.18705844,0,0.50775188,2.0004867,-3.3323935)"
       gradientUnits="userSpaceOnUse"
       id="linearGradient4516"
       xlink:href="#linearGradient3205" />
    <linearGradient
       y2="38.051785"
       x2="24"
       y1="13.506023"
       x1="24"
       gradientTransform="matrix(0.33333342,0.18705844,0,0.50775189,4.0004837,-3.2069853)"
       gradientUnits="userSpaceOnUse"
       id="linearGradient4518"
       xlink:href="#linearGradient3205" />
    <linearGradient
       y2="40.33622"
       x2="24"
       y1="15.502284"
       x1="24"
       gradientTransform="matrix(0.33333342,0.02353771,0,0.51112669,2.6671517,-1.1646336)"
       gradientUnits="userSpaceOnUse"
       id="linearGradient4520"
       xlink:href="#linearGradient3205" />
    <linearGradient
       y2="40.33622"
       x2="24"
       y1="15.502284"
       x1="24"
       gradientTransform="matrix(0.33333342,0.02353771,0,0.51112669,3.3338187,-1.1646336)"
       gradientUnits="userSpaceOnUse"
       id="linearGradient4522"
       xlink:href="#linearGradient3205" />
    <linearGradient
       y2="37.663418"
       x2="23.500021"
       y1="19.153051"
       x1="23.500021"
       gradientTransform="matrix(0.45666181,0,0,0.80862302,-0.1894089,-10.468751)"
       gradientUnits="userSpaceOnUse"
       id="linearGradient4528"
       xlink:href="#linearGradient3642" />
    <linearGradient
       gradientTransform="matrix(0.93741153,0,0,0.7500006,-0.7178957,2.1249977)"
       y2="4.6875"
       x2="22.313522"
       y1="5.9375"
       x1="5.4365268"
       gradientUnits="userSpaceOnUse"
       id="linearGradient4530"
       xlink:href="#linearGradient4633" />
    <linearGradient
       gradientTransform="matrix(0.95406822,0,0,0.71641861,-0.8653945,1.7089536)"
       gradientUnits="userSpaceOnUse"
       y2="2.25"
       x2="12.5"
       y1="6.5018396"
       x1="12.427539"
       id="linearGradient4561"
       xlink:href="#linearGradient4555" />
    <linearGradient
       gradientTransform="matrix(1,0,0,0.9546036,-1.247335,-0.68797199)"
       gradientUnits="userSpaceOnUse"
       y2="7.9067039"
       x2="15.032932"
       y1="8"
       x1="7.5415921"
       id="linearGradient4617"
       xlink:href="#linearGradient4611" />
  </defs>
  <metadata
     id="metadata3167">
    <rdf:RDF>
      <cc:Work
         rdf:about="">
        <dc:format>image/svg+xml</dc:format>
        <dc:type
           rdf:resource="http://purl.org/dc/dcmitype/StillImage" />
      </cc:Work>
    </rdf:RDF>
  </metadata>
  <path
     style="display:inline;overflow:visible;visibility:visible;fill:url(#linearGradient4746);fill-opacity:1;fill-rule:nonzero;stroke:none;stroke-width:1.01885;marker:none"
     id="path4744"
     d="M 5.0004867,7 5.00025,18.138536 C 5.0002458,18.334925 5.2585584,18.79451 6.225,19.25033 7.1914414,19.706151 8.7657649,20 11.000487,20 c 2.234722,0 3.823071,-0.307485 4.789513,-0.763306 0.966442,-0.45582 1.210487,-0.901769 1.210487,-1.098158 V 7 Z"
     sodipodi:nodetypes="cssssscc" />
  <g
     transform="translate(-24,8)"
     style="display:inline"
     id="layer2" />
  <path
     id="rect4457"
     d="m 4.5009735,5.5 v 12.219076 c 0,1.656854 2.6538234,2.799848 6.5002265,2.799848 3.846402,0 6.499774,-1.142994 6.499774,-2.799848 V 5.5 Z"
     style="color:#000000;clip-rule:nonzero;display:inline;overflow:visible;visibility:visible;opacity:0.5;isolation:auto;mix-blend-mode:normal;color-interpolation:sRGB;color-interpolation-filters:linearRGB;solid-color:#000000;solid-opacity:1;fill:none;fill-opacity:1;fill-rule:nonzero;stroke:#161b28;stroke-width:0.999999;stroke-linecap:butt;stroke-linejoin:miter;stroke-miterlimit:4;stroke-dasharray:none;stroke-dashoffset:0;stroke-opacity:1;marker:none;color-rendering:auto;image-rendering:auto;shape-rendering:auto;text-rendering:auto;enable-background:accumulate"
     sodipodi:nodetypes="cssscc" />
  <path
     style="display:inline;overflow:visible;visibility:visible;opacity:0.15;fill:url(#linearGradient4516);fill-opacity:1;fill-rule:nonzero;stroke:none;stroke-width:0.999922;marker:none;enable-background:accumulate"
     id="path4508"
     d="m 6.5004867,6.050604 c 0.277,0.1554456 0.5,0.6202737 0.5,1.0422155 V 18.225761 c 0,0.421943 -0.223,0.636487 -0.5,0.481041 -0.277,-0.155446 -0.5,-0.620275 -0.5,-1.042217 V 6.531644 c 0,-0.4219419 0.223,-0.6364859 0.5,-0.48104 z"
     sodipodi:nodetypes="sssssss" />
  <path
     style="display:inline;overflow:visible;visibility:visible;opacity:0.15;fill:url(#linearGradient4518);fill-opacity:1;fill-rule:nonzero;stroke:none;stroke-width:0.999922;marker:none;enable-background:accumulate"
     id="path4510"
     d="m 15.500486,6.0506039 c -0.277,0.1554456 -0.499999,0.6202738 -0.499999,1.0422154 V 18.225761 c 0,0.421942 0.222999,0.636488 0.499999,0.48104 0.277,-0.155445 0.500001,-0.620274 0.500001,-1.042216 V 6.5316439 c 0,-0.4219419 -0.223001,-0.6364859 -0.500001,-0.48104 z"
     sodipodi:nodetypes="sssssss" />
  <path
     style="display:inline;overflow:visible;visibility:visible;opacity:0.3;fill:url(#linearGradient4522);fill-opacity:1;fill-rule:nonzero;stroke:none;stroke-width:0.999922;marker:none;enable-background:accumulate"
     id="path4514"
     d="m 12.500487,7.2434317 c -0.277001,0.01956 -0.5,0.3772502 -0.5,0.8019966 V 19.267783 c 0,0.424746 0.222999,0.750944 0.5,0.731382 0.277,-0.01956 0.5,-0.37725 0.5,-0.801996 V 7.9748151 c 0,-0.4247461 -0.223,-0.7509431 -0.5,-0.7313834 z"
     sodipodi:nodetypes="ssscsss" />
  <path
     style="display:inline;overflow:visible;visibility:visible;opacity:1;fill:none;stroke:url(#linearGradient4528);stroke-width:1;stroke-linecap:round;stroke-linejoin:round;stroke-miterlimit:4;stroke-dasharray:none;stroke-dashoffset:0;stroke-opacity:1;marker:none"
     id="path4526"
     d="m 5.5004867,6.5 v 11.380246 c 0,0 0.9166529,1.588773 5.4999953,1.606368 4.583343,0.0176 5.500005,-1.618869 5.500005,-1.618869 V 6.5 Z"
     sodipodi:nodetypes="cccccc" />
  <path
     id="path4563"
     d="m 4.5,7.7651631 c 2.2136292,0.9918491 3.9389379,1.329937 6.084782,1.252539 2.205557,-0.07955 4.952037,-0.06771 6.915218,-1.5177041"
     style="opacity:0.1;fill:none;fill-rule:evenodd;stroke:#000000;stroke-width:0.999996px;stroke-linecap:round;stroke-linejoin:miter;stroke-opacity:1" />
  <path
     style="display:inline;overflow:visible;visibility:visible;opacity:0.3;fill:url(#linearGradient4520);fill-opacity:1;fill-rule:nonzero;stroke:none;stroke-width:0.999922;marker:none;enable-background:accumulate"
     id="path4512"
     d="m 9.5004867,7.2434317 c 0.277,0.019561 0.5000003,0.3772502 0.5000003,0.8019966 V 19.267783 c 0,0.424746 -0.2230003,0.750944 -0.5000003,0.731382 -0.277,-0.01956 -0.5,-0.37725 -0.5,-0.801996 V 7.9748151 c 0,-0.4247461 0.223,-0.7509431 0.5,-0.7313834 z"
     sodipodi:nodetypes="ssscsss" />
  <path
     style="opacity:1;fill:url(#linearGradient4530);fill-opacity:1;stroke:#000000;stroke-width:0.999995;stroke-linecap:round;stroke-linejoin:round;stroke-miterlimit:4;stroke-dasharray:none;stroke-opacity:0.301961"
     d="M 11.000205,2.4999979 C 7.0430447,2.5016029 4.0671339,3.4597106 3.5018279,4.7499997 L 3.5,6.5312511 c 0.5654035,1.2905154 3.5423494,1.9674444 7.500205,1.9687516 3.95716,-0.00157 6.932614,-0.7253375 7.49792,-2.0156266 L 18.5,4.7499997 C 17.934551,3.4594844 14.958061,2.5013052 11.000205,2.4999979 Z"
     id="path4504" />
  <ellipse
     ry="2.5"
     rx="7"
     cy="5.5"
     cx="11.000486"
     id="path4506"
     style="opacity:0.3;fill:#ffffff;fill-opacity:1;stroke:none;stroke-width:0.999998;stroke-linecap:round;stroke-linejoin:round;stroke-miterlimit:4;stroke-dasharray:none;stroke-opacity:1" />
  <path
     style="opacity:0.5;fill:#ffffff;fill-opacity:1;fill-rule:evenodd;stroke:none;stroke-width:1px;stroke-linecap:butt;stroke-linejoin:miter;stroke-opacity:1"
     d="m 16.187987,3.8012605 -4.5,1.3125 -1.3125,-2 c 2.189235,-0.2937492 4.443022,-0.00246 5.8125,0.6875 z"
     id="path4643" />
  <path
     style="color:#000000;display:inline;overflow:visible;visibility:visible;opacity:0.7;fill:#ffffff;fill-opacity:0.239234;stroke:url(#linearGradient4561);stroke-width:1;stroke-linecap:round;stroke-linejoin:round;stroke-miterlimit:4;stroke-dasharray:none;stroke-dashoffset:0;stroke-opacity:1;marker:none;enable-background:accumulate"
     id="path4564-1-6"
     d="M 17.500419,4.9328373 C 17.500419,4.1415031 14.74888,3.5 11.060458,3.5 7.372037,3.5 4.4579659,4.5903707 4.5012393,5.0671658 c 0.05963,0.6570055 2.8111684,1.4328372 6.4995897,1.4328372 3.688422,0 6.49959,-0.7758317 6.49959,-1.5671657 z" />
  <path
     id="rect4605-2-4-3"
     d="m 7.9999999,1.509425 c -0.277,0 -0.5,0.223 -0.5,0.5 v 2 c 0,0.277 0.223,0.5 0.5,0.5 h 1.5000003 v -0.5 c 0,-0.554 0.9459998,-1 1.4999998,-1 0.554,0 1.500487,0.446 1.500487,1 v 0.5 h 1.5 c 0.277,0 0.5,-0.223 0.5,-0.5 v -2 c 0,-0.277 -0.223,-0.5 -0.5,-0.5 z"
     style="color:#000000;display:inline;overflow:visible;visibility:visible;fill:#dcdcdd;fill-opacity:1;fill-rule:nonzero;stroke:#000000;stroke-width:1.01885;stroke-opacity:0.301961;marker:none;enable-background:accumulate"
     sodipodi:nodetypes="sssscssscsssss" />
  <path
     id="rect4608"
     d="M 5.55,5.485 C 5.9506663,5.6179261 7.5282127,6.0835175 9.7574563,6.2177456 11.076595,6.2971743 13.372718,6.0530844 14.377665,5.991255 l -0.3125,1.79288 C 13.202755,7.961177 11.40801,8.0479865 9.692405,7.9327396 7.9979519,7.8189136 6.1597277,7.294119 5.5941941,7.1410797 Z"
     style="opacity:0.8;fill:url(#linearGradient4617);fill-opacity:1;stroke:none;stroke-width:0.999999;stroke-linecap:round;stroke-linejoin:round;stroke-miterlimit:4;stroke-dasharray:none;stroke-opacity:0" />
  <path
     id="path4641"
     d="m 7.0004867,6.5 4.5000003,-1.3125 1.3125,2 C 10.623752,7.4812492 8.3699644,7.18996 7.0004867,6.5 Z"
     style="opacity:0.5;fill:#ffffff;fill-opacity:1;fill-rule:evenodd;stroke:none;stroke-width:1px;stroke-linecap:butt;stroke-linejoin:miter;stroke-opacity:1" />
</svg>
