<?xml version="1.0" encoding="UTF-8" standalone="no"?>
<!-- Created with Inkscape (http://www.inkscape.org/) -->

<svg
   xmlns:dc="http://purl.org/dc/elements/1.1/"
   xmlns:cc="http://creativecommons.org/ns#"
   xmlns:rdf="http://www.w3.org/1999/02/22-rdf-syntax-ns#"
   xmlns:svg="http://www.w3.org/2000/svg"
   xmlns="http://www.w3.org/2000/svg"
   xmlns:xlink="http://www.w3.org/1999/xlink"
   xmlns:sodipodi="http://sodipodi.sourceforge.net/DTD/sodipodi-0.dtd"
   xmlns:inkscape="http://www.inkscape.org/namespaces/inkscape"
   version="1.1"
   width="16"
   height="16"
   id="svg4077"
   inkscape:version="0.48.4 r9939"
   sodipodi:docname="view-refresh.svg">
  <sodipodi:namedview
     pagecolor="#ffffff"
     bordercolor="#666666"
     borderopacity="1"
     objecttolerance="10"
     gridtolerance="10"
     guidetolerance="10"
     inkscape:pageopacity="0"
     inkscape:pageshadow="2"
     inkscape:window-width="1280"
     inkscape:window-height="776"
     id="namedview15"
     showgrid="true"
     inkscape:zoom="14.142136"
     inkscape:cx="10.933923"
     inkscape:cy="11.434136"
     inkscape:window-x="0"
     inkscape:window-y="0"
     inkscape:window-maximized="1"
     inkscape:current-layer="svg4077">
    <inkscape:grid
       type="xygrid"
       id="grid2992"
       empspacing="5"
       visible="true"
       enabled="true"
       snapvisiblegridlinesonly="true" />
  </sodipodi:namedview>
  <defs
     id="defs4079">
    <linearGradient
       id="linearGradient2867-449-88-871-390-598-476-591-434-148-57-177-641-289-620-227-114-444-680-744-4-1-5-6">
      <stop
         id="stop5430-5-0-9-4"
         style="stop-color:#737373;stop-opacity:1"
         offset="0" />
      <stop
         id="stop5432-2-0-0-4"
         style="stop-color:#636363;stop-opacity:1"
         offset="0.26238" />
      <stop
         id="stop5434-9-6-8-5"
         style="stop-color:#4b4b4b;stop-opacity:1"
         offset="0.704952" />
      <stop
         id="stop5436-2-7-0-0"
         style="stop-color:#3f3f3f;stop-opacity:1"
         offset="1" />
    </linearGradient>
    <radialGradient
       cx="16.202444"
       cy="-19.005346"
       r="19.99999"
       fx="16.202444"
       fy="-19.005346"
       id="radialGradient4075"
       xlink:href="#linearGradient2867-449-88-871-390-598-476-591-434-148-57-177-641-289-620-227-114-444-680-744-4-1-5-6"
       gradientUnits="userSpaceOnUse"
       gradientTransform="matrix(0,1.7142863,1.7418575,0,44.771221,-20.233914)" />
    <radialGradient
       inkscape:collect="always"
       xlink:href="#linearGradient2867-449-88-871-390-598-476-591-434-148-57-177-641-289-620-227-114-444-680-744-4-1-5-6"
       id="radialGradient3849"
       gradientUnits="userSpaceOnUse"
       gradientTransform="matrix(0,1.7142863,1.7418575,0,44.771221,-20.233914)"
       cx="16.202444"
       cy="-19.005346"
       fx="16.202444"
       fy="-19.005346"
       r="19.99999" />
    <radialGradient
       inkscape:collect="always"
       xlink:href="#linearGradient2867-449-88-871-390-598-476-591-434-148-57-177-641-289-620-227-114-444-680-744-4-1-5-6"
       id="radialGradient3854"
       gradientUnits="userSpaceOnUse"
       gradientTransform="matrix(0,1.4769235,1.4930207,0,36.089616,-26.555372)"
       cx="16.202444"
       cy="-19.005346"
       fx="16.202444"
       fy="-19.005346"
       r="19.99999" />
  </defs>
  <metadata
     id="metadata4082">
    <rdf:RDF>
      <cc:Work
         rdf:about="">
        <dc:format>image/svg+xml</dc:format>
        <dc:type
           rdf:resource="http://purl.org/dc/dcmitype/StillImage" />
        <dc:title />
      </cc:Work>
    </rdf:RDF>
  </metadata>
  <path
     d="M 7.9999997,2 C 7.5266126,2 7.1428569,2.3857237 7.1428569,2.8615385 l 0,1.1576923 C 4.2371693,4.4390413 2,6.9324637 2,9.9692308 2,13.299932 4.6862914,16 7.9999997,16 11.313708,16 14,13.299932 14,9.9692308 l -2.571429,0 c 0,1.9032582 -1.5350237,3.4461542 -3.4285713,3.4461542 -1.8935477,0 -3.4285713,-1.542896 -3.4285713,-3.4461542 0,-1.6052081 1.0934494,-2.9284364 2.5714285,-3.3115385 l 0,1.373077 c 0,0.4758148 0.3837557,0.8615385 0.8571428,0.8615385 0.1971283,0 0.3909102,-0.07604 0.5357143,-0.1884616 L 12.767857,6.173077 c 0.227607,-0.1548857 0.374999,-0.4298449 0.374999,-0.7269231 0,-0.3145021 -0.178188,-0.5765114 -0.428571,-0.7269231 L 8.5089282,2.1884616 C 8.3648056,2.0779511 8.1952654,2 7.9999997,2 z"
     id="path3762"
     style="opacity:0.35;color:#000000;fill:#ffffff;fill-opacity:1;fill-rule:nonzero;stroke:none;stroke-width:1;marker:none;visibility:visible;display:inline;overflow:visible;enable-background:accumulate"
     inkscape:connector-curvature="0" />
  <path
     inkscape:connector-curvature="0"
     style="color:#000000;fill:url(#radialGradient3854);fill-opacity:1;fill-rule:nonzero;stroke:none;stroke-width:1;marker:none;visibility:visible;display:inline;overflow:visible;enable-background:accumulate"
     id="path3070"
     d="M 7.9999997,1 C 7.5266126,1 7.1428569,1.3857237 7.1428569,1.8615385 l 0,1.1576923 C 4.2371693,3.4390413 2,5.9324637 2,8.9692308 2,12.299932 4.6862914,15 7.9999997,15 11.313708,15 14,12.299932 14,8.9692308 l -2.571429,0 c 0,1.9032582 -1.5350237,3.4461542 -3.4285713,3.4461542 -1.8935477,0 -3.4285713,-1.542896 -3.4285713,-3.4461542 0,-1.6052081 1.0934494,-2.9284364 2.5714285,-3.3115385 l 0,1.373077 c 0,0.4758148 0.3837557,0.8615385 0.8571428,0.8615385 0.1971283,0 0.3909102,-0.07604 0.5357143,-0.1884616 L 12.767857,5.173077 c 0.227607,-0.1548857 0.374999,-0.4298449 0.374999,-0.7269231 0,-0.3145021 -0.178188,-0.5765114 -0.428571,-0.7269231 L 8.5089282,1.1884616 C 8.3648056,1.0779511 8.1952654,1 7.9999997,1 z" />
  <path
     inkscape:connector-curvature="0"
     style="opacity:0.1;color:#000000;fill:none;stroke:#000000;stroke-width:0.80000007;stroke-linecap:round;stroke-linejoin:round;stroke-miterlimit:4;stroke-opacity:1;stroke-dasharray:none;stroke-dashoffset:0;marker:none;visibility:visible;display:inline;overflow:visible;enable-background:accumulate"
     id="path4019"
     d="m 8.050717,1.37329 c -0.2404527,0 -0.4328503,0.1923696 -0.4328503,0.4327869 l 0,1.1631147 A 0.43979834,0.43973399 0 0 1 7.2391228,3.4019784 c -2.7234338,0.3914141 -4.8154587,2.711143 -4.8154587,5.545082 0,3.1086766 2.5179218,5.6262296 5.6270529,5.6262296 2.96066,0 5.348736,-2.291756 5.572947,-5.1934427 l -1.758454,0 c -0.225707,1.9374417 -1.8177,3.4622957 -3.814493,3.4622957 -2.1501135,0 -3.895652,-1.745284 -3.895652,-3.8950826 0,-1.8134255 1.2426944,-3.3269007 2.921739,-3.7598361 a 0.43979834,0.43973399 0 0 1 0.5410627,0.4327869 l 0,1.3795083 c 0,0.2404174 0.1923976,0.4327868 0.4328503,0.4327868 0.086588,0 0.1985718,-0.052627 0.2705313,-0.1081968 a 0.43979834,0.43973399 0 0 1 0.054106,-0.027049 L 12.622697,4.7814867 c 0.0088,-0.00596 0.01858,-0.020028 0.02705,-0.027049 0.09042,-0.07489 0.162318,-0.2124014 0.162318,-0.3516394 0,-0.1490456 -0.07772,-0.2687502 -0.216425,-0.3516393 L 8.3483016,1.5085359 A 0.43979834,0.43973399 0 0 1 8.2941952,1.4814867 C 8.201573,1.4108386 8.1314938,1.37329 8.050717,1.37329 z" />
  <path
     inkscape:connector-curvature="0"
     style="opacity:0.02999998;color:#000000;fill:none;stroke:#000000;stroke-width:0.89999998;stroke-linecap:butt;stroke-linejoin:miter;stroke-miterlimit:4;stroke-opacity:1;stroke-dasharray:none;stroke-dashoffset:0;marker:none;visibility:visible;display:inline;overflow:visible;enable-background:accumulate"
     id="path4019-6"
     d="m 8.5093387,2.6429154 0,0.4892101 C 8.390208,3.7803839 7.8546562,4.1830293 7.2671876,4.2730865 c -0.1281024,0.017782 0.00315,0.01721 -0.1215116,0.044177 0.7322313,-0.08946 1.3555821,0.5407124 1.3511627,1.2534609 l 0,0.6292345 2.9659883,-1.7651873 z M 7,4.2989415 C 5.8055383,4.5861064 4.6534571,5.322622 4.1715481,6.209935 4.5258789,5.4108009 6,4.5424442 7,4.2989415 z M 4.1840481,6.147435 C 3.5796951,6.9625 3.1822422,7.9329287 3.2445132,9.0260588 c 0.15,2.6331602 2.1743741,4.7204802 4.8880813,4.7204802 C 10.383296,13.746539 12.206666,12 12.619513,10.24 l -0.06773,0 C 11.870077,12.500838 10,13.668201 8.1325975,13.693201 5.2903382,13.731252 3.2997488,11.515039 3.2997488,9.0260588 3.2997488,7.9444221 3.6741946,6.9625 4.1840481,6.147435 z"
     sodipodi:nodetypes="ccccccccccccssccssc" />
</svg>
