<?xml version="1.0" encoding="UTF-8" standalone="no"?>
<svg
   height="22"
   width="22"
   id="svg2"
   version="1.1"
   sodipodi:docname="audio-volume-medium.svg"
   inkscape:version="1.2.2 (b0a8486541, 2022-12-01)"
   xmlns:inkscape="http://www.inkscape.org/namespaces/inkscape"
   xmlns:sodipodi="http://sodipodi.sourceforge.net/DTD/sodipodi-0.dtd"
   xmlns:xlink="http://www.w3.org/1999/xlink"
   xmlns="http://www.w3.org/2000/svg"
   xmlns:svg="http://www.w3.org/2000/svg"
   xmlns:rdf="http://www.w3.org/1999/02/22-rdf-syntax-ns#"
   xmlns:cc="http://creativecommons.org/ns#"
   xmlns:dc="http://purl.org/dc/elements/1.1/">
  <sodipodi:namedview
     id="namedview49079"
     pagecolor="#ffffff"
     bordercolor="#000000"
     borderopacity="0.25"
     inkscape:showpageshadow="2"
     inkscape:pageopacity="0.0"
     inkscape:pagecheckerboard="0"
     inkscape:deskcolor="#d1d1d1"
     showgrid="false"
     inkscape:zoom="16"
     inkscape:cx="14.75"
     inkscape:cy="13.15625"
     inkscape:window-width="1507"
     inkscape:window-height="898"
     inkscape:window-x="409"
     inkscape:window-y="116"
     inkscape:window-maximized="0"
     inkscape:current-layer="svg2"
     showguides="true" />
  <metadata
     id="metadata16">
    <rdf:RDF>
      <cc:Work
         rdf:about="">
        <dc:format>image/svg+xml</dc:format>
        <dc:type
           rdf:resource="http://purl.org/dc/dcmitype/StillImage" />
      </cc:Work>
    </rdf:RDF>
  </metadata>
  <defs
     id="defs14">
    <linearGradient
       id="linearGradient5662">
      <stop
         id="stop5654"
         style="stop-color:#ffffff;stop-opacity:1"
         offset="0" />
      <stop
         id="stop5656"
         style="stop-color:#ffffff;stop-opacity:0.23529412"
         offset="0.00000003" />
      <stop
         id="stop5658"
         style="stop-color:#ffffff;stop-opacity:0.15686275"
         offset="0.53919154" />
      <stop
         id="stop5660"
         style="stop-color:#ffffff;stop-opacity:0.39215687"
         offset="1" />
    </linearGradient>
    <linearGradient
       inkscape:collect="always"
       xlink:href="#linearGradient964"
       id="linearGradient966"
       x1="4.9075637"
       y1="-0.13711601"
       x2="4.9075637"
       y2="16.600239"
       gradientUnits="userSpaceOnUse"
       gradientTransform="matrix(1.3332799,0,0,1.2303294,0.83335569,1.1576704)" />
    <linearGradient
       inkscape:collect="always"
       id="linearGradient964">
      <stop
         style="stop-color:#fafafa;stop-opacity:1"
         offset="0"
         id="stop960" />
      <stop
         style="stop-color:#667885;stop-opacity:1"
         offset="1"
         id="stop962" />
    </linearGradient>
    <linearGradient
       inkscape:collect="always"
       xlink:href="#linearGradient5662"
       id="linearGradient5652"
       x1="3.039969"
       y1="5.3313737"
       x2="5.0378942"
       y2="11.163724"
       gradientUnits="userSpaceOnUse"
       gradientTransform="matrix(1.3999998,0,0,1.2494454,0.59999809,1.00057)" />
  </defs>
  <path
     style="color:#000000;font-variation-settings:normal;opacity:1;vector-effect:none;fill:url(#linearGradient966);fill-opacity:1;stroke:none;stroke-width:0.999996;stroke-linecap:butt;stroke-linejoin:round;stroke-miterlimit:4;stroke-dasharray:none;stroke-dashoffset:0;stroke-opacity:1;-inkscape-stroke:none;paint-order:markers fill stroke;stop-color:#000000;stop-opacity:1"
     d="M 8.8984345,3.0827184 C 8.5331694,2.9247694 8.1090122,2.9983984 7.8183564,3.2702094 L 4.3554657,6.5005234 H 2.499997 c -0.5522619,5.5e-5 -0.9999448,0.447716 -1,0.999952 v 6.9996626 c 5.52e-5,0.552236 0.4477381,0.999897 1,0.999952 h 1.8554687 l 3.4628907,3.230314 C 8.4574219,19.325457 9.498734,18.873155 9.499997,17.99997 V 4.0006434 C 9.500279,3.6021484 9.263939,3.2415174 8.8984345,3.0827184 Z"
     id="path1125"
     sodipodi:nodetypes="cccccccccccc" />
  <path
     style="color:#000000;font-variation-settings:normal;opacity:1;vector-effect:none;fill:none;fill-opacity:1;stroke:#0e141f;stroke-width:0.999994;stroke-linecap:butt;stroke-linejoin:round;stroke-miterlimit:4;stroke-dasharray:none;stroke-dashoffset:0;stroke-opacity:0.5;-inkscape-stroke:none;paint-order:stroke fill markers;stop-color:#000000;stop-opacity:1"
     d="M 8.8984345,3.0822964 C 8.5331694,2.9243074 8.1090122,2.9979554 7.8183564,3.2698334 L 4.3554657,6.5009424 H 2.499997 c -0.5522619,5.5e-5 -0.9999448,0.447827 -1,1.000198 v 6.9993056 c 5.52e-5,0.552372 0.4477381,1.000143 1,1.000198 h 1.8554687 l 3.4628907,3.233192 c 0.6390655,0.5952 1.6803776,0.142786 1.6816406,-0.730614 V 4.0004464 c 2.82e-4,-0.398593 -0.236058,-0.759312 -0.6015625,-0.91815 z"
     id="path1779"
     sodipodi:nodetypes="cccccccccccc" />
  <path
     id="path2241"
     style="color:#000000;font-variation-settings:normal;opacity:0.5;vector-effect:none;fill:url(#linearGradient5652);fill-opacity:1;stroke-width:0.999998;stroke-linecap:butt;stroke-linejoin:round;stroke-miterlimit:4;stroke-dasharray:none;stroke-dashoffset:0;stroke-opacity:1;-inkscape-stroke:none;paint-order:markers fill stroke;stop-color:#000000;stop-opacity:1"
     d="M 8.4863251,3.5005449 C 8.3673824,3.503824 8.2516073,3.5497649 8.1601532,3.6353105 L 4.6972626,6.8657793 C 4.6045589,6.9524455 4.4823712,7.0006223 4.3554658,7.0005449 H 2.499997 c -0.2820244,2.81e-5 -0.4999718,0.2177593 -0.5,0.5 v 7.0000001 c 2.82e-5,0.282242 0.217975,0.499972 0.5,0.5 h 1.8554688 c 0.1269055,-7.7e-5 0.2490932,0.0481 0.3417968,0.134766 l 3.4609375,3.232422 h 0.00195 c 0.1736859,0.160569 0.3641877,0.169729 0.5390626,0.09375 0.1754928,-0.07624 0.30044,-0.220867 0.3007843,-0.458985 V 4.0005449 C 9.000139,3.7998096 8.8831969,3.6215135 8.6992158,3.5415605 8.6302707,3.5117395 8.5576908,3.4985775 8.4863251,3.5005449 Z M 7.999997,5.1509355 V 16.852107 L 5.3789032,14.404842 C 5.1012845,14.145305 4.7355075,14.000809 4.3554658,14.000545 H 2.999997 V 8.0005449 H 4.3554658 C 4.7352416,8.0008112 5.1009842,7.8570268 5.3789032,7.5982011 Z"
     sodipodi:nodetypes="scccccccccccscccsccccccccc" />
  <path
     style="color:#000000;fill:#95a3ab;stroke-linecap:round;stroke-linejoin:round;-inkscape-stroke:none;paint-order:markers fill stroke;fill-opacity:0.3019608"
     d="m 16.955075,2.2954668 a 0.75,0.75 0 0 0 -0.53125,0.2207031 0.75,0.75 0 0 0 0,1.0605469 c 1.969334,1.9693338 3.076172,4.6387694 3.076172,7.4238282 0,2.785058 -1.106838,5.454494 -3.076172,7.423828 a 0.75,0.75 0 0 0 0,1.060547 0.75,0.75 0 0 0 1.060547,0 c 2.250231,-2.250231 3.515625,-5.302068 3.515625,-8.484375 0,-3.1823068 -1.265394,-6.2341445 -3.515625,-8.4843751 A 0.75,0.75 0 0 0 16.955075,2.2954668 Z"
     id="circle4163" />
  <path
     style="color:#000000;fill:#33a4ff;stroke-linecap:round;stroke-linejoin:round;-inkscape-stroke:none;paint-order:markers fill stroke"
     d="m 14.052731,4.6372636 a 0.75,0.75 0 0 0 0,1.0605469 c 1.406726,1.4067252 2.197266,3.3133244 2.197266,5.3027345 0,1.98941 -0.79054,3.896009 -2.197266,5.302734 a 0.75,0.75 0 0 0 0,1.060547 0.75,0.75 0 0 0 1.0625,0 c 1.687622,-1.687622 2.634766,-3.976623 2.634766,-6.363281 0,-2.3866581 -0.947143,-4.6756594 -2.634766,-6.3632814 a 0.75,0.75 0 0 0 -1.0625,0 z"
     id="circle4167" />
  <path
     style="color:#000000;fill:#33a4ff;stroke-linecap:round;stroke-linejoin:round;-inkscape-stroke:none;paint-order:markers fill stroke"
     d="m 12.212888,6.5376543 a 0.75,0.75 0 0 0 -0.53125,0.2207031 0.75,0.75 0 0 0 0,1.0605469 c 0.844116,0.8441166 1.318359,1.9878796 1.318359,3.1816407 0,1.193761 -0.474243,2.337524 -1.318359,3.181641 a 0.75,0.75 0 0 0 0,1.060546 0.75,0.75 0 0 0 1.060547,0 c 1.125013,-1.125013 1.757812,-2.651178 1.757812,-4.242187 0,-1.5910091 -0.632799,-3.1171742 -1.757812,-4.2421876 A 0.75,0.75 0 0 0 12.212888,6.5376543 Z"
     id="circle4171" />
</svg>
