<?xml version="1.0" encoding="UTF-8" standalone="no"?>
<svg
   version="1.1"
   width="22"
   height="22"
   id="svg4100"
   sodipodi:docname="bluetooth-paired.svg"
   inkscape:version="1.2.2 (b0a8486541, 2022-12-01)"
   xmlns:inkscape="http://www.inkscape.org/namespaces/inkscape"
   xmlns:sodipodi="http://sodipodi.sourceforge.net/DTD/sodipodi-0.dtd"
   xmlns:xlink="http://www.w3.org/1999/xlink"
   xmlns="http://www.w3.org/2000/svg"
   xmlns:svg="http://www.w3.org/2000/svg"
   xmlns:rdf="http://www.w3.org/1999/02/22-rdf-syntax-ns#"
   xmlns:cc="http://creativecommons.org/ns#"
   xmlns:dc="http://purl.org/dc/elements/1.1/">
  <sodipodi:namedview
     id="namedview2889"
     pagecolor="#ffffff"
     bordercolor="#000000"
     borderopacity="0.25"
     inkscape:showpageshadow="2"
     inkscape:pageopacity="0.0"
     inkscape:pagecheckerboard="0"
     inkscape:deskcolor="#d1d1d1"
     showgrid="false"
     inkscape:zoom="48.908219"
     inkscape:cx="18.473378"
     inkscape:cy="14.210291"
     inkscape:window-width="1281"
     inkscape:window-height="1005"
     inkscape:window-x="210"
     inkscape:window-y="9"
     inkscape:window-maximized="0"
     inkscape:current-layer="svg4100" />
  <defs
     id="defs4102">
    <linearGradient
       id="linearGradient947">
      <stop
         offset="0"
         style="stop-color:#64baff;stop-opacity:1"
         id="stop943" />
      <stop
         offset="1"
         style="stop-color:#3689e6;stop-opacity:1"
         id="stop945" />
    </linearGradient>
    <linearGradient
       y2="43.432285"
       x2="27.583231"
       y1="7.4575353"
       x1="27.583231"
       gradientTransform="matrix(0.45885863,0,0,0.51437915,-1.6539937,-2.0689339)"
       gradientUnits="userSpaceOnUse"
       id="linearGradient1295"
       xlink:href="#linearGradient954" />
    <linearGradient
       id="linearGradient954">
      <stop
         id="stop946"
         style="stop-color:#ffffff;stop-opacity:1"
         offset="0" />
      <stop
         id="stop948"
         style="stop-color:#ffffff;stop-opacity:0.23529412"
         offset="0.33333334" />
      <stop
         id="stop950"
         style="stop-color:#ffffff;stop-opacity:0.15686275"
         offset="0.73809522" />
      <stop
         id="stop952"
         style="stop-color:#ffffff;stop-opacity:0.39215687"
         offset="1" />
    </linearGradient>
    <linearGradient
       gradientTransform="matrix(0.45454547,0,0,0.46665642,21.909092,-0.19968057)"
       gradientUnits="userSpaceOnUse"
       y2="46.525425"
       x2="-24"
       y1="2"
       x1="-24"
       id="linearGradient880-3"
       xlink:href="#linearGradient947" />
    <linearGradient
       gradientTransform="matrix(0,0.72727296,-0.72727303,0,23.318185,11.681895)"
       gradientUnits="userSpaceOnUse"
       y2="8"
       x2="13.5"
       y1="8"
       x1="2.5"
       id="linearGradient940"
       xlink:href="#linearGradient938" />
    <linearGradient
       id="linearGradient938">
      <stop
         id="stop934"
         offset="0"
         style="stop-color:#9bdb4d;stop-opacity:1" />
      <stop
         id="stop936"
         offset="1"
         style="stop-color:#68b723;stop-opacity:1" />
    </linearGradient>
    <linearGradient
       y2="44.340794"
       x2="71.204407"
       y1="6.2375584"
       x1="71.204407"
       gradientTransform="matrix(0.16216228,0,0,0.1621622,5.8675306,13.388015)"
       gradientUnits="userSpaceOnUse"
       id="linearGradient3825"
       xlink:href="#linearGradient4011" />
    <linearGradient
       id="linearGradient4011">
      <stop
         id="stop4013"
         style="stop-color:#ffffff;stop-opacity:1"
         offset="0" />
      <stop
         id="stop4015"
         style="stop-color:#ffffff;stop-opacity:0.23529412"
         offset="0.507761" />
      <stop
         id="stop4017"
         style="stop-color:#ffffff;stop-opacity:0.15686275"
         offset="0.83456558" />
      <stop
         id="stop4019"
         style="stop-color:#ffffff;stop-opacity:0.39215687"
         offset="1" />
    </linearGradient>
  </defs>
  <metadata
     id="metadata4105">
    <rdf:RDF>
      <cc:Work
         rdf:about="">
        <dc:format>image/svg+xml</dc:format>
        <dc:type
           rdf:resource="http://purl.org/dc/dcmitype/StillImage" />
      </cc:Work>
    </rdf:RDF>
  </metadata>
  <path
     id="path855-0"
     d="M 8.517425,21.291672 C 6.1099828,20.601828 4.6493819,18.884775 3.9181156,15.884808 3.5208233,14.25496 3.3659468,9.8875033 3.6334428,7.8570814 c 0.6033627,-4.579869 2.443968,-6.793519 6.0356994,-7.25897598 1.0036358,-0.130062 1.6718758,-0.130351 2.6688098,-9.33e-4 3.619576,0.46906898 5.443035,2.70865598 6.05684,7.43905398 0.212282,1.6360129 0.08431,6.0814006 -0.213977,7.4330246 -0.666387,3.01958 -1.926204,4.770068 -4.039968,5.613443 -1.112819,0.444009 -4.3798418,0.56555 -5.623422,0.209206 z"
     style="fill:url(#linearGradient880-3);fill-opacity:1;stroke-width:1" />
  <path
     id="path855-3-63"
     d="m 8.5197709,21.28992 c -2.403962,-0.689844 -3.862454,-2.406897 -4.592672,-5.406864 -0.396717,-1.629848 -0.551367,-5.9973047 -0.284262,-8.0277267 0.602493,-4.579869 2.440446,-6.793519 6.0269953,-7.25897098 1.0021888,-0.130067 1.6694598,-0.130356 2.6649578,-9.33e-4 3.614354,0.46906398 5.435181,2.70865098 6.048095,7.43904898 0.211975,1.636013 0.08419,6.0814007 -0.213664,7.4330247 -0.665429,3.01958 -1.923424,4.770068 -4.034137,5.613443 -1.111218,0.444009 -4.3735258,0.56555 -5.6153131,0.209206 z"
     style="opacity:0.5;fill:none;stroke:#002e99;stroke-width:1" />
  <path
     d="M 12.190309,1.6350079 C 11.292182,1.5160932 10.733388,1.5161035 9.8288949,1.6358673 8.2427515,1.8458904 7.1094187,2.4272915 6.2728244,3.4553851 5.4362301,4.4834787 4.888612,5.9991965 4.6162237,8.1117673 c -0.2335404,1.811277 -0.076002,6.0284417 0.2543568,7.4132007 0.6529226,2.736841 1.8620227,4.174468 3.9548362,4.787209 0.4704648,0.137744 1.5134073,0.206894 2.5156693,0.168696 1.002262,-0.0382 2.01916,-0.19128 2.415568,-0.352886 1.822501,-0.742991 2.875687,-2.215824 3.47402,-4.98603 C 17.468031,14.043025 17.6019,9.6973863 17.421852,8.2796048 17.144281,6.0938886 16.596834,4.5347037 15.759508,3.4837896 14.922181,2.4328754 13.788861,1.8466742 12.190309,1.6350079 Z"
     id="path855-3-6-0"
     style="opacity:0.5;vector-effect:none;fill:none;fill-opacity:1;stroke:url(#linearGradient1295);stroke-width:1;stroke-linecap:round;stroke-linejoin:round;stroke-miterlimit:4;stroke-dasharray:none;stroke-dashoffset:0;stroke-opacity:1;marker:none" />
  <path
     d="m 9.9960942,4.2500773 a 1.0001001,1.0001001 0 0 0 -0.996094,1 v 3.453125 L 8.0644533,8.0098429 A 1.0001001,1.0001001 0 0 0 6.730469,8.1387492 l -0.65625,0.71875 a 1.0001001,1.0001001 0 0 0 0.1367187,1.4726558 l 2.6113281,1.972656 -2.6445312,2.357422 a 1.0001001,1.0001001 0 0 0 -0.083984,1.40625 l 0.6875,0.78125 a 1.0001001,1.0001001 0 0 0 1.4140625,0.08789 l 0.8046871,-0.71289 v 2.496094 a 1.0001001,1.0001001 0 0 0 1.7128908,0.703125 l 4.53125,-4.59375 a 1.0001001,1.0001001 0 0 0 -0.107422,-1.5 l -1.632813,-1.238281 1.666016,-1.503906 a 1.0001001,1.0001001 0 0 0 0.04492,-1.4414067 l -4.5,-4.5937498 A 1.0001001,1.0001001 0 0 0 9.9960942,4.2500773 Z"
     id="path3205-6-6"
     style="font-variation-settings:normal;opacity:0.05;vector-effect:none;fill:#002e99;fill-opacity:1;stroke:none;stroke-width:1;stroke-linecap:butt;stroke-linejoin:miter;stroke-miterlimit:4;stroke-dasharray:none;stroke-dashoffset:0;stroke-opacity:1;marker:none" />
  <path
     style="font-variation-settings:normal;opacity:0.15;vector-effect:none;fill:#002e99;fill-opacity:1;stroke:none;stroke-width:1;stroke-linecap:butt;stroke-linejoin:miter;stroke-miterlimit:4;stroke-dasharray:none;stroke-dashoffset:0;stroke-opacity:1;marker:none"
     id="path3205-6"
     d="M 10,5.2503273 V 10.687827 L 7.4687502,8.8128273 6.8125002,9.5315773 10,11.937827 v 0.65625 l -3.1562498,2.8125 0.6875,0.78125 L 10,14.000327 v 4.71875 L 14.53125,14.125327 11.9375,12.156577 14.5,9.8440773 Z m 1,2.4375 2.0625,2.09375 L 11.125,11.562827 11,11.469077 Z m 0.1875,5.1562497 1.84375,1.40625 L 11,16.312827 v -3.28125 z" />
  <path
     style="font-variation-settings:normal;fill:#ffffff;fill-opacity:1;stroke:none"
     id="path3205"
     d="M 10,4.2500772 V 9.6875773 L 7.4687502,7.8125772 6.8125002,8.5313272 10,10.937577 v 0.65625 l -3.1562498,2.8125 0.6875,0.78125 L 10,13.000077 v 4.71875 L 14.53125,13.125077 11.9375,11.156327 14.5,8.8438272 Z m 1,2.4375 2.0625,2.09375 L 11.125,10.562577 11,10.468827 Z m 0.1875,5.1562498 1.84375,1.40625 L 11,15.312577 v -3.28125 z" />
  <path
     d="m 17.500002,21.500079 c 2.207061,0 4.000002,-1.792939 4.000002,-4.000002 0,-2.207064 -1.792941,-4.000001 -4.000002,-4.000001 -2.207063,0 -4.000005,1.792937 -4.000002,4.000001 0,2.207063 1.792939,4.000002 4.000002,4.000002 z"
     id="path2555-7"
     style="color:#000000;display:inline;overflow:visible;visibility:visible;fill:#fafafa;fill-opacity:1;fill-rule:nonzero;stroke:none;stroke-width:0.999997;marker:none;enable-background:accumulate" />
  <path
     d="M 20.500003,17.499893 C 20.500003,19.156801 19.156757,20.5 17.500039,20.5 15.843168,20.5 14.5,19.156787 14.5,17.499893 14.5,15.843063 15.843168,14.5 17.500039,14.5 c 1.656718,0 2.999964,1.343061 2.999964,2.999893 z"
     id="path8655-6"
     style="color:#000000;display:inline;overflow:visible;visibility:visible;opacity:0.6;fill:none;stroke:url(#linearGradient3825);stroke-width:1;stroke-linecap:round;stroke-linejoin:round;stroke-miterlimit:4;stroke-dasharray:none;stroke-dashoffset:0;stroke-opacity:1;marker:none;enable-background:accumulate" />
  <path
     d="m 17.500002,13.500076 c -2.207063,0 -4.000002,1.792937 -4.000002,4.000001 0,2.207063 1.792939,4.000002 4.000002,4.000002 2.207061,0 4.000004,-1.792939 4.000002,-4.000002 0,-2.207064 -1.792941,-4.000001 -4.000002,-4.000001 z"
     id="path2555-7-4"
     style="color:#000000;display:inline;overflow:visible;visibility:visible;opacity:0.5;fill:none;stroke:#0e141f;stroke-width:0.999997;stroke-linecap:round;stroke-linejoin:miter;stroke-miterlimit:4;stroke-dasharray:none;stroke-dashoffset:0;stroke-opacity:1;marker:none;enable-background:accumulate" />
  <path
     d="M 17.5,19 C 18.327647,19 19,18.327647 19,17.499999 19,16.672352 18.327647,16 17.5,16 16.672352,16 15.999998,16.672352 16,17.499999 16,18.327647 16.672352,19 17.5,19 Z"
     id="path10939"
     style="color:#000000;display:inline;overflow:visible;visibility:visible;fill:#3a9104;fill-opacity:1;fill-rule:nonzero;stroke:none;stroke-width:0.999991;marker:none;enable-background:accumulate" />
</svg>
