<?xml version="1.0" encoding="UTF-8" standalone="no"?>
<svg
   xmlns:dc="http://purl.org/dc/elements/1.1/"
   xmlns:cc="http://creativecommons.org/ns#"
   xmlns:rdf="http://www.w3.org/1999/02/22-rdf-syntax-ns#"
   xmlns:svg="http://www.w3.org/2000/svg"
   xmlns="http://www.w3.org/2000/svg"
   xmlns:xlink="http://www.w3.org/1999/xlink"
   version="1.2"
   width="22"
   height="22"
   id="svg2">
  <defs
     id="defs4">
    <linearGradient
       id="linearGradient947">
      <stop
         offset="0"
         style="stop-color:#ed5353;stop-opacity:1"
         id="stop943" />
      <stop
         offset="1"
         style="stop-color:#c6262e;stop-opacity:1"
         id="stop945" />
    </linearGradient>
    <linearGradient
       id="linearGradient4011">
      <stop
         id="stop4013"
         style="stop-color:#ffffff;stop-opacity:1"
         offset="0" />
      <stop
         id="stop4015-3"
         style="stop-color:#ffffff;stop-opacity:0.23529412"
         offset="0.507761" />
      <stop
         id="stop4017-2"
         style="stop-color:#ffffff;stop-opacity:0.15686275"
         offset="0.83456558" />
      <stop
         id="stop4019"
         style="stop-color:#ffffff;stop-opacity:0.39215687"
         offset="1" />
    </linearGradient>
    <linearGradient
       x1="71.204407"
       y1="6.2375584"
       x2="71.204407"
       y2="44.340794"
       id="linearGradient12398-3"
       xlink:href="#linearGradient4011"
       gradientUnits="userSpaceOnUse"
       gradientTransform="matrix(0.5135135,0,0,0.5135135,-25.83614,-2.02128)" />
    <linearGradient
       x1="2035.1652"
       y1="3208.0737"
       x2="2035.1652"
       y2="3241.9966"
       id="linearGradient11527-6-5"
       xlink:href="#linearGradient947"
       gradientUnits="userSpaceOnUse"
       gradientTransform="matrix(0.8047894,0,0,0.60165743,-1629.8199,-1929.0804)" />
  </defs>
  <metadata
     id="metadata7">
    <rdf:RDF>
      <cc:Work
         rdf:about="">
        <dc:format>image/svg+xml</dc:format>
        <dc:type
           rdf:resource="http://purl.org/dc/dcmitype/StillImage" />
        <dc:title />
      </cc:Work>
    </rdf:RDF>
  </metadata>
  <path
     d="M 11,0.49999996 C 5.2064599,0.49999996 0.49999994,5.20646 0.49999994,11 0.49999994,16.79354 5.2064599,21.5 11,21.5 16.79354,21.5 21.50001,16.79354 21.5,11 21.5,5.20646 16.79354,0.49999996 11,0.49999996 Z"
     id="path2555-7-8-5-0-9"
     style="color:#000000;display:inline;overflow:visible;visibility:visible;opacity:0.98999999;fill:url(#linearGradient11527-6-5);fill-opacity:1;fill-rule:nonzero;stroke:none;stroke-width:0.99999982;marker:none;enable-background:accumulate" />
  <path
     d="M 11,0.49999996 C 5.2064599,0.49999996 0.49999994,5.20646 0.49999994,11 0.49999994,16.79354 5.2064599,21.5 11,21.5 16.79354,21.5 21.50001,16.79354 21.5,11 21.5,5.20646 16.79354,0.49999996 11,0.49999996 Z"
     id="path2555-7-8-5-1"
     style="color:#000000;display:inline;overflow:visible;visibility:visible;opacity:0.5;fill:none;stroke:#7a0000;stroke-width:0.99999988;stroke-linecap:round;stroke-linejoin:round;stroke-miterlimit:4;stroke-dasharray:none;stroke-dashoffset:0;stroke-opacity:1;marker:none;enable-background:accumulate" />
  <path
     d="m 20.49999,10.99966 c 0,5.24688 -4.25361,9.50034 -9.49988,9.50034 -5.2467501,0 -9.5001101,-4.25351 -9.5001101,-9.50034 0,-5.24663 4.25336,-9.49966 9.5001101,-9.49966 5.24627,0 9.49988,4.25303 9.49988,9.49966 z"
     id="path8655-6-0-9-5-0"
     style="color:#000000;display:inline;overflow:visible;visibility:visible;opacity:0.4;fill:none;stroke:url(#linearGradient12398-3);stroke-width:0.99999988;stroke-linecap:round;stroke-linejoin:round;stroke-miterlimit:4;stroke-dasharray:none;stroke-dashoffset:0;stroke-opacity:1;marker:none;enable-background:accumulate" />
  <path
     style="opacity:0.05;vector-effect:none;fill:#7a0000;fill-opacity:1;stroke:none;stroke-width:0.84323651;stroke-linecap:butt;stroke-linejoin:miter;stroke-miterlimit:4;stroke-dasharray:none;stroke-dashoffset:0;stroke-opacity:1;marker:none"
     id="path860-3-6-2"
     d="m 11,4.0000001 c -1.274903,0 -2.4277344,0.975373 -2.4277344,2.2851562 0,1.5320006 0.4862734,4.4339957 0.9609374,7.8515627 A 1.0001,1.0001 0 0 0 10.523438,15 H 11 11.476562 a 1.0001,1.0001 0 0 0 0.990235,-0.863281 C 12.941461,10.719151 13.427734,7.8171571 13.427734,6.2851563 13.427734,4.9753721 12.274903,4.0000001 11,4.0000001 Z M 11,15 c -1.368867,0 -2.5,1.131132 -2.5,2.5 0,1.368868 1.131133,2.5 2.5,2.5 1.368867,0 2.5,-1.131133 2.5,-2.5 C 13.5,16.131133 12.368867,15 11,15 Z" />
  <path
     style="opacity:0.15;vector-effect:none;fill:#7a0000;fill-opacity:1;stroke:none;stroke-width:0.84323651;stroke-linecap:butt;stroke-linejoin:miter;stroke-miterlimit:4;stroke-dasharray:none;stroke-dashoffset:0;stroke-opacity:1;marker:none"
     d="m 11,5.0000001 c -0.788978,0 -1.427734,0.5750764 -1.427734,1.2851562 0,1.2857147 0.474981,4.2862737 0.951172,7.7148437 h 0.953124 C 11.952753,10.571429 12.427734,7.5708711 12.427734,6.2851563 12.427734,5.5750764 11.788977,5.0000001 11,5.0000001 Z M 11,16 c -0.828426,0 -1.5,0.671573 -1.5,1.5 0,0.828427 0.671574,1.5 1.5,1.5 0.828427,0 1.5,-0.671573 1.5,-1.5 C 12.5,16.671573 11.828427,16 11,16 Z"
     id="path860-3-6" />
  <path
     style="opacity:1;fill:#ffffff;fill-opacity:1;stroke:none;stroke-width:1;stroke-linejoin:round;stroke-miterlimit:4;stroke-dasharray:none;stroke-opacity:0.49803922"
     d="m 11,4.0000001 c -0.788978,0 -1.427734,0.5750764 -1.427734,1.2851562 0,1.2857147 0.474981,4.2862738 0.951172,7.7148437 h 0.953124 C 11.952753,9.5714291 12.427734,6.5708711 12.427734,5.2851563 12.427734,4.5750764 11.788977,4.0000001 11,4.0000001 Z M 11,15 c -0.828426,0 -1.5,0.671573 -1.5,1.5 0,0.828427 0.671574,1.5 1.5,1.5 0.828427,0 1.5,-0.671573 1.5,-1.5 C 12.5,15.671573 11.828427,15 11,15 Z"
     id="path860-3" />
</svg>
