<?xml version="1.0" encoding="UTF-8" standalone="no"?>
<svg
   id="svg4157"
   height="22"
   width="22"
   version="1.1"
   sodipodi:docname="gpm-keyboard-020.svg"
   inkscape:version="1.2.2 (b0a8486541, 2022-12-01)"
   xmlns:inkscape="http://www.inkscape.org/namespaces/inkscape"
   xmlns:sodipodi="http://sodipodi.sourceforge.net/DTD/sodipodi-0.dtd"
   xmlns:xlink="http://www.w3.org/1999/xlink"
   xmlns="http://www.w3.org/2000/svg"
   xmlns:svg="http://www.w3.org/2000/svg"
   xmlns:rdf="http://www.w3.org/1999/02/22-rdf-syntax-ns#"
   xmlns:cc="http://creativecommons.org/ns#"
   xmlns:dc="http://purl.org/dc/elements/1.1/">
  <sodipodi:namedview
     id="namedview16130"
     pagecolor="#ffffff"
     bordercolor="#000000"
     borderopacity="0.25"
     inkscape:showpageshadow="2"
     inkscape:pageopacity="0.0"
     inkscape:pagecheckerboard="0"
     inkscape:deskcolor="#d1d1d1"
     showgrid="false"
     inkscape:zoom="16"
     inkscape:cx="16.0625"
     inkscape:cy="14.90625"
     inkscape:window-width="1277"
     inkscape:window-height="866"
     inkscape:window-x="530"
     inkscape:window-y="81"
     inkscape:window-maximized="0"
     inkscape:current-layer="svg4157" />
  <defs
     id="defs4159">
    <linearGradient
       gradientTransform="matrix(0.35135138,0,0,0.29729729,-0.43242977,2.8648394)"
       gradientUnits="userSpaceOnUse"
       xlink:href="#linearGradient4095"
       id="linearGradient3233"
       y2="40.784431"
       x2="23.99999"
       y1="6.8939195"
       x1="23.99999" />
    <linearGradient
       id="linearGradient4095">
      <stop
         offset="0"
         style="stop-color:#ffffff;stop-opacity:1"
         id="stop4097" />
      <stop
         offset="0.04097982"
         style="stop-color:#ffffff;stop-opacity:0.23529412"
         id="stop4100" />
      <stop
         offset="0.96216732"
         style="stop-color:#ffffff;stop-opacity:0.15686275"
         id="stop4102" />
      <stop
         offset="1"
         style="stop-color:#ffffff;stop-opacity:0.39215687"
         id="stop4104" />
    </linearGradient>
    <linearGradient
       id="linearGradient909">
      <stop
         id="stop905"
         style="stop-color:#fafafa;stop-opacity:1"
         offset="0" />
      <stop
         id="stop907"
         style="stop-color:#d4d4d4;stop-opacity:1"
         offset="1" />
    </linearGradient>
    <linearGradient
       xlink:href="#linearGradient909"
       id="linearGradient903-6"
       x1="14.329722"
       y1="28.818197"
       x2="14.329722"
       y2="-0.070297658"
       gradientUnits="userSpaceOnUse"
       gradientTransform="matrix(0.53846153,0,0,0.53846153,-0.6153829,-19.615357)" />
  </defs>
  <metadata
     id="metadata4162">
    <rdf:RDF>
      <cc:Work
         rdf:about="">
        <dc:format>image/svg+xml</dc:format>
        <dc:type
           rdf:resource="http://purl.org/dc/dcmitype/StillImage" />
      </cc:Work>
    </rdf:RDF>
  </metadata>
  <rect
     transform="scale(1,-1)"
     width="14"
     height="14"
     rx="1.5"
     ry="1.5"
     x="1.0000019"
     y="-17.999971"
     id="rect5505-6"
     style="color:#000000;display:inline;overflow:visible;visibility:visible;fill:url(#linearGradient903-6);fill-opacity:1;fill-rule:nonzero;stroke:none;stroke-width:0.999995;marker:none;enable-background:accumulate" />
  <path
     id="text782-3"
     style="font-style:normal;font-variant:normal;font-weight:600;font-stretch:normal;font-size:17.3333px;line-height:1.25;font-family:Inter;-inkscape-font-specification:'Inter Semi-Bold';fill:#fafafa;fill-opacity:1;stroke:none;stroke-width:0.999999"
     d="m 5.731106,5.9001768 c -2.419999,0 -3.82819,1.4898859 -3.831106,3.8107524 0.0029,2.3762638 1.387642,3.7432158 3.833882,3.7432158 0.749324,0 1.5460073,-0.188875 1.9104643,-0.378393 L 7.3964023,12.334696 C 7.119415,12.439659 6.448611,12.632599 5.783841,12.632599 c -1.930168,0 -2.973479,-1.044349 -2.973479,-2.9336972 0,-1.7610593 0.996464,-2.9882808 2.900391,-2.9882808 1.554047,0 2.7117974,0.8807054 2.7088814,2.536801 0.0029,1.204168 -0.1838851,1.745785 -0.6503911,1.745785 -0.247831,0 -0.393054,-0.197986 -0.39597,-0.486636 V 7.7310775 H 6.559129 V 8.0576604 H 6.518419 C 6.425119,7.8010823 5.865139,7.5649683 5.23244,7.6524383 4.418971,7.760318 3.638382,8.4278697 3.638382,9.6757728 c 0,1.2858072 0.699063,2.0406612 1.649569,2.0843952 0.661855,0.03207 1.174847,-0.261794 1.311883,-0.608758 h 0.03516 c 0.06998,0.437349 0.455547,0.675987 1.0445113,0.643915 C 8.9332404,11.748675 9.2912824,10.628913 9.2883664,9.2964554 9.2912664,7.3808662 8.0024093,5.9001768 5.731109,5.9001768 Z M 5.535896,8.488787 c 0.726,0 0.994412,0.3559945 0.997328,1.1490541 0.0087,0.8513729 -0.265216,1.2859789 -1.002878,1.2859789 -0.760988,0 -1.017541,-0.618432 -1.020457,-1.2832031 0.0029,-0.6647708 0.3729,-1.1518299 1.026007,-1.1518299 z" />
  <path
     id="text782"
     style="font-style:normal;font-variant:normal;font-weight:600;font-stretch:normal;font-size:17.3333px;line-height:1.25;font-family:Inter;-inkscape-font-specification:'Inter Semi-Bold';fill:#7e8087;fill-opacity:1;stroke:none;stroke-width:0.999999"
     d="m 5.731106,4.8999985 c -2.419999,0 -3.82819,1.489886 -3.831106,3.8107523 0.0029,2.3762642 1.387642,3.7432152 3.833882,3.7432152 0.749324,0 1.5460073,-0.188874 1.9104643,-0.378392 L 7.3964023,11.334518 C 7.119415,11.439481 6.448611,11.63242 5.783841,11.63242 c -1.930168,0 -2.973479,-1.044348 -2.973479,-2.9336965 0,-1.7610593 0.996464,-2.9882807 2.900391,-2.9882807 1.554047,0 2.7117974,0.8807053 2.7088814,2.5368009 0.0029,1.2041678 -0.1838851,1.7457848 -0.6503911,1.7457848 -0.247831,0 -0.393054,-0.1979856 -0.39597,-0.486636 V 6.7308992 H 6.559129 v 0.326583 H 6.518419 C 6.425119,6.800904 5.865139,6.56479 5.23244,6.65226 4.418971,6.7601397 3.638382,7.4276915 3.638382,8.6755945 c 0,1.285806 0.699063,2.0406615 1.649569,2.0843955 0.661855,0.03207 1.174847,-0.261794 1.311883,-0.608758 h 0.03516 c 0.06998,0.437349 0.455547,0.675987 1.0445113,0.643915 C 8.9332404,10.748497 9.2912824,9.6287343 9.2883664,8.2962772 9.2912664,6.3806879 8.0024093,4.8999985 5.731109,4.8999985 Z m -0.19521,2.5886102 c 0.726,0 0.994412,0.3559945 0.997328,1.1490541 0.0087,0.851373 -0.265216,1.2859787 -1.002878,1.2859787 -0.760988,0 -1.017541,-0.6184321 -1.020457,-1.2832029 0.0029,-0.6647708 0.3729,-1.1518299 1.026007,-1.1518299 z" />
  <rect
     width="15"
     height="15"
     rx="2"
     ry="2"
     x="0.5"
     y="3.4999986"
     id="rect5505-21-8-1"
     style="color:#000000;font-variation-settings:normal;display:inline;overflow:visible;visibility:visible;opacity:0.5;vector-effect:none;fill:none;fill-opacity:1;stroke:#555761;stroke-width:0.999997;stroke-linecap:round;stroke-linejoin:round;stroke-miterlimit:4;stroke-dasharray:none;stroke-dashoffset:0;stroke-opacity:1;-inkscape-stroke:none;marker:none;enable-background:accumulate;stop-color:#000000;stop-opacity:1" />
  <rect
     width="13.000001"
     height="11"
     x="1.5000014"
     y="4.4999723"
     id="rect6741-9"
     style="opacity:1;fill:none;stroke:url(#linearGradient3233);stroke-width:1;stroke-linecap:round;stroke-linejoin:round;stroke-miterlimit:4;stroke-dasharray:none;stroke-dashoffset:0;stroke-opacity:1"
     rx="1"
     ry="1" />
  <path
     id="rect5505-6-0"
     style="color:#000000;font-variation-settings:normal;display:inline;overflow:visible;visibility:visible;opacity:0.1;vector-effect:none;fill:#000000;fill-opacity:1;fill-rule:nonzero;stroke:none;stroke-width:1;stroke-linecap:butt;stroke-linejoin:miter;stroke-miterlimit:4;stroke-dasharray:none;stroke-dashoffset:0;stroke-opacity:1;-inkscape-stroke:none;marker:none;enable-background:accumulate;stop-color:#000000;stop-opacity:1"
     d="m 1,14.499999 v 2 c 0,0.839648 0.6603522,1.5 1.5,1.5 h 11 c 0.839648,0 1.5,-0.660352 1.5,-1.5 v -2 c 0,0.822349 -0.677651,1.5 -1.5,1.5 h -11 c -0.822349,0 -1.5,-0.677651 -1.5,-1.5 z" />
  <circle
     style="fill:#c6262e;fill-opacity:1;fill-rule:evenodd;stroke-width:2;stroke-opacity:0.42;paint-order:markers fill stroke;stop-color:#000000"
     id="path372"
     cx="19.5"
     cy="17.5"
     r="2.5" />
  <circle
     style="fill:#c6262e;fill-opacity:0.5;fill-rule:evenodd;stroke-width:2;stroke-opacity:0.42;paint-order:markers fill stroke;stop-color:#000000"
     id="circle2480"
     cx="19.5"
     cy="11.5"
     r="2.5" />
</svg>
