<?xml version="1.0" encoding="UTF-8" standalone="no"?>
<svg
   version="1.0"
   width="22"
   height="22"
   id="svg2"
   sodipodi:docname="microphone-sensitivity-high.svg"
   inkscape:version="1.2.2 (b0a8486541, 2022-12-01)"
   xmlns:inkscape="http://www.inkscape.org/namespaces/inkscape"
   xmlns:sodipodi="http://sodipodi.sourceforge.net/DTD/sodipodi-0.dtd"
   xmlns:xlink="http://www.w3.org/1999/xlink"
   xmlns="http://www.w3.org/2000/svg"
   xmlns:svg="http://www.w3.org/2000/svg"
   xmlns:rdf="http://www.w3.org/1999/02/22-rdf-syntax-ns#"
   xmlns:cc="http://creativecommons.org/ns#"
   xmlns:dc="http://purl.org/dc/elements/1.1/">
  <sodipodi:namedview
     id="namedview7386"
     pagecolor="#ffffff"
     bordercolor="#000000"
     borderopacity="0.25"
     inkscape:showpageshadow="2"
     inkscape:pageopacity="0.0"
     inkscape:pagecheckerboard="0"
     inkscape:deskcolor="#d1d1d1"
     showgrid="false"
     inkscape:zoom="11.844039"
     inkscape:cx="19.630129"
     inkscape:cy="16.886132"
     inkscape:window-width="1278"
     inkscape:window-height="1005"
     inkscape:window-x="602"
     inkscape:window-y="14"
     inkscape:window-maximized="0"
     inkscape:current-layer="g5645" />
  <metadata
     id="metadata48">
    <rdf:RDF>
      <cc:Work
         rdf:about="">
        <dc:format>image/svg+xml</dc:format>
        <dc:type
           rdf:resource="http://purl.org/dc/dcmitype/StillImage" />
      </cc:Work>
    </rdf:RDF>
  </metadata>
  <defs
     id="defs4">
    <linearGradient
       id="linearGradient3711-6">
      <stop
         id="stop3713-6"
         offset="0"
         style="stop-color:#ffffff;stop-opacity:1" />
      <stop
         id="stop3715-7"
         offset="1"
         style="stop-color:#d2d2d2;stop-opacity:1" />
    </linearGradient>
    <linearGradient
       id="linearGradient2904">
      <stop
         id="stop2906"
         offset="0"
         style="stop-color:#b9b9b9;stop-opacity:1" />
      <stop
         id="stop2910"
         offset="0.21551724"
         style="stop-color:white;stop-opacity:1;" />
      <stop
         id="stop2912"
         offset="0.70243758"
         style="stop-color:#c3c3c3;stop-opacity:1" />
      <stop
         id="stop2908"
         offset="1"
         style="stop-color:#878787;stop-opacity:1" />
    </linearGradient>
    <linearGradient
       id="linearGradient4170">
      <stop
         offset="0"
         style="stop-color:#ffffff;stop-opacity:1"
         id="stop4172" />
      <stop
         offset="0.02783963"
         style="stop-color:#ffffff;stop-opacity:0.23529412"
         id="stop4174" />
      <stop
         offset="0.98396504"
         style="stop-color:#ffffff;stop-opacity:0.15686275"
         id="stop4176" />
      <stop
         offset="1"
         style="stop-color:#ffffff;stop-opacity:0.39215687"
         id="stop4178" />
    </linearGradient>
    <linearGradient
       xlink:href="#linearGradient11193"
       id="linearGradient9448"
       gradientUnits="userSpaceOnUse"
       gradientTransform="matrix(0.99514874,0,0,0.79639888,29.1074,183.34141)"
       x1="16.977392"
       y1="14.011304"
       x2="32.045643"
       y2="14.011304" />
    <linearGradient
       id="linearGradient11193">
      <stop
         style="stop-color:#ffffff;stop-opacity:1"
         offset="0"
         id="stop11195" />
      <stop
         id="stop9375"
         offset="0.23791341"
         style="stop-color:#e5e5e5;stop-opacity:1;" />
      <stop
         id="stop11205"
         offset="0.5490092"
         style="stop-color:#e1e1e1;stop-opacity:1" />
      <stop
         id="stop11201"
         offset="0.69210809"
         style="stop-color:#ababab;stop-opacity:1" />
      <stop
         style="stop-color:#959595;stop-opacity:1"
         offset="0.80617243"
         id="stop11203" />
      <stop
         style="stop-color:#d3d3d3;stop-opacity:1"
         offset="1"
         id="stop11197" />
    </linearGradient>
    <radialGradient
       r="13.08399"
       fy="40.578671"
       fx="18.753521"
       cy="40.578671"
       cx="18.753521"
       gradientTransform="matrix(0.52712163,0,0,0.09102151,38.243095,203.0887)"
       gradientUnits="userSpaceOnUse"
       id="radialGradient9456-3"
       xlink:href="#linearGradient3711-6" />
    <linearGradient
       y2="13.351768"
       x2="30.230837"
       y1="13.351768"
       x1="18.737373"
       gradientTransform="matrix(0.57142833,0,0,0.62499979,36.500008,185.5625)"
       gradientUnits="userSpaceOnUse"
       id="linearGradient9438-5"
       xlink:href="#linearGradient2904" />
    <linearGradient
       y2="20.136354"
       x2="24.458324"
       y1="2.8636429"
       x1="24.458324"
       gradientTransform="matrix(0.54545472,0,0,0.65000039,37.409087,186.52501)"
       gradientUnits="userSpaceOnUse"
       id="linearGradient9442-9"
       xlink:href="#linearGradient4170" />
  </defs>
  <g
     id="g6155"
     style="display:inline;enable-background:new"
     transform="translate(-43,-186)">
    <g
       id="g5645">
      <ellipse
         ry="1"
         rx="6"
         cy="206.5"
         cx="50.500023"
         id="ellipse9454"
         style="display:inline;fill:url(#radialGradient9456-3);fill-opacity:1;stroke:#000000;stroke-width:0.999997;stroke-linecap:round;stroke-linejoin:round;stroke-miterlimit:4;stroke-dasharray:none;stroke-dashoffset:0;stroke-opacity:0.4" />
      <path
         id="rect9509"
         d="m 43.5,194.5 v 1 1 1.19336 c -3e-6,2.44206 1.350004,4.6925 3.511719,5.90039 0.780391,0.43606 1.62604,0.70886 2.488281,0.83008 V 205.5 h 2 v -1.07617 c 0.862241,-0.12122 1.70789,-0.39402 2.488281,-0.83008 C 56.149998,202.38586 57.5,200.13542 57.5,197.69336 V 196.5 v -1 -1 z m 2,2 h 10 v 1.19336 c 0,1.70708 -0.937209,3.28761 -2.488281,4.1543 -1.551069,0.86668 -3.472369,0.86668 -5.023438,0 -1.551071,-0.86669 -2.488283,-2.44722 -2.488281,-4.1543 z"
         style="opacity:1;fill:#e1e1e1;fill-opacity:1;stroke:#000000;stroke-width:1;stroke-linecap:butt;stroke-linejoin:round;stroke-miterlimit:4;stroke-dasharray:none;stroke-dashoffset:0;stroke-opacity:0.4"
         sodipodi:nodetypes="cccsccccccsccccccsccsc" />
      <rect
         height="14.999999"
         id="rect9436"
         rx="3.9999998"
         ry="3.9999995"
         style="fill:url(#linearGradient9438-5);fill-opacity:1;stroke:#000000;stroke-width:1;stroke-linecap:square;stroke-linejoin:round;stroke-miterlimit:4;stroke-dasharray:none;stroke-dashoffset:0;stroke-opacity:0.4"
         width="7.9999995"
         x="46.5"
         y="186.5" />
      <rect
         height="13"
         id="rect9440"
         rx="2.9999998"
         ry="2.9999998"
         style="display:inline;fill:none;stroke:url(#linearGradient9442-9);stroke-width:1;stroke-linecap:square;stroke-linejoin:round;stroke-miterlimit:4;stroke-dasharray:none;stroke-dashoffset:0;stroke-opacity:1"
         width="5.9999995"
         x="47.5"
         y="187.50002" />
      <path
         style="display:inline;opacity:0.3;fill:#000000;fill-opacity:1;stroke:none"
         d="m 49.5,187 c -0.276,0 -0.5,0.224 -0.5,0.5 0,0.276 0.224,0.5 0.5,0.5 0.276,0 0.5,-0.224 0.5,-0.5 0,-0.276 -0.224,-0.5 -0.5,-0.5 z m 2,0 c -0.276,0 -0.5,0.224 -0.5,0.5 0,0.276 0.224,0.5 0.5,0.5 0.276,0 0.5,-0.224 0.5,-0.5 0,-0.276 -0.224,-0.5 -0.5,-0.5 z m -3,1 c -0.276,0 -0.5,0.224 -0.5,0.5 0,0.276 0.224,0.5 0.5,0.5 0.276,0 0.5,-0.224 0.5,-0.5 0,-0.276 -0.224,-0.5 -0.5,-0.5 z m 2,0 c -0.276,0 -0.5,0.224 -0.5,0.5 0,0.276 0.224,0.5 0.5,0.5 0.276,0 0.5,-0.224 0.5,-0.5 0,-0.276 -0.224,-0.5 -0.5,-0.5 z m 2,0 c -0.276,0 -0.5,0.224 -0.5,0.5 0,0.276 0.224,0.5 0.5,0.5 0.276,0 0.5,-0.224 0.5,-0.5 0,-0.276 -0.224,-0.5 -0.5,-0.5 z m -5,1 c -0.276,0 -0.5,0.224 -0.5,0.5 0,0.276 0.224,0.5 0.5,0.5 0.276,0 0.5,-0.224 0.5,-0.5 0,-0.276 -0.224,-0.5 -0.5,-0.5 z m 2,0 c -0.276,0 -0.5,0.224 -0.5,0.5 0,0.276 0.224,0.5 0.5,0.5 0.276,0 0.5,-0.224 0.5,-0.5 0,-0.276 -0.224,-0.5 -0.5,-0.5 z m 2,0 c -0.276,0 -0.5,0.224 -0.5,0.5 0,0.276 0.224,0.5 0.5,0.5 0.276,0 0.5,-0.224 0.5,-0.5 0,-0.276 -0.224,-0.5 -0.5,-0.5 z m 2,0 c -0.276,0 -0.5,0.224 -0.5,0.5 0,0.276 0.224,0.5 0.5,0.5 0.276,0 0.5,-0.224 0.5,-0.5 0,-0.276 -0.224,-0.5 -0.5,-0.5 z m -5,1 c -0.276,0 -0.5,0.224 -0.5,0.5 0,0.276 0.224,0.5 0.5,0.5 0.276,0 0.5,-0.224 0.5,-0.5 0,-0.276 -0.224,-0.5 -0.5,-0.5 z m 2,0 c -0.276,0 -0.5,0.224 -0.5,0.5 0,0.276 0.224,0.5 0.5,0.5 0.276,0 0.5,-0.224 0.5,-0.5 0,-0.276 -0.224,-0.5 -0.5,-0.5 z m 2,0 c -0.276,0 -0.5,0.224 -0.5,0.5 0,0.276 0.224,0.5 0.5,0.5 0.276,0 0.5,-0.224 0.5,-0.5 0,-0.276 -0.224,-0.5 -0.5,-0.5 z m -5,1 c -0.276,0 -0.5,0.224 -0.5,0.5 0,0.276 0.224,0.5 0.5,0.5 0.276,0 0.5,-0.224 0.5,-0.5 0,-0.276 -0.224,-0.5 -0.5,-0.5 z m 2,0 c -0.276,0 -0.5,0.224 -0.5,0.5 0,0.276 0.224,0.5 0.5,0.5 0.276,0 0.5,-0.224 0.5,-0.5 0,-0.276 -0.224,-0.5 -0.5,-0.5 z m 2,0 c -0.276,0 -0.5,0.224 -0.5,0.5 0,0.276 0.224,0.5 0.5,0.5 0.276,0 0.5,-0.224 0.5,-0.5 0,-0.276 -0.224,-0.5 -0.5,-0.5 z m 2,0 c -0.276,0 -0.5,0.224 -0.5,0.5 0,0.276 0.224,0.5 0.5,0.5 0.276,0 0.5,-0.224 0.5,-0.5 0,-0.276 -0.224,-0.5 -0.5,-0.5 z m -5,1 c -0.276,0 -0.5,0.224 -0.5,0.5 0,0.276 0.224,0.5 0.5,0.5 0.276,0 0.5,-0.224 0.5,-0.5 0,-0.276 -0.224,-0.5 -0.5,-0.5 z m 2,0 c -0.276,0 -0.5,0.224 -0.5,0.5 0,0.276 0.224,0.5 0.5,0.5 0.276,0 0.5,-0.224 0.5,-0.5 0,-0.276 -0.224,-0.5 -0.5,-0.5 z m 2,0 c -0.276,0 -0.5,0.224 -0.5,0.5 0,0.276 0.224,0.5 0.5,0.5 0.276,0 0.5,-0.224 0.5,-0.5 0,-0.276 -0.224,-0.5 -0.5,-0.5 z m -5,1 c -0.276,0 -0.5,0.224 -0.5,0.5 0,0.276 0.224,0.5 0.5,0.5 0.276,0 0.5,-0.224 0.5,-0.5 0,-0.276 -0.224,-0.5 -0.5,-0.5 z m 2,0 c -0.276,0 -0.5,0.224 -0.5,0.5 0,0.276 0.224,0.5 0.5,0.5 0.276,0 0.5,-0.224 0.5,-0.5 0,-0.276 -0.224,-0.5 -0.5,-0.5 z m 2,0 c -0.276,0 -0.5,0.224 -0.5,0.5 0,0.276 0.224,0.5 0.5,0.5 0.276,0 0.5,-0.224 0.5,-0.5 0,-0.276 -0.224,-0.5 -0.5,-0.5 z m 2,0 c -0.276,0 -0.5,0.224 -0.5,0.5 0,0.276 0.224,0.5 0.5,0.5 0.276,0 0.5,-0.224 0.5,-0.5 0,-0.276 -0.224,-0.5 -0.5,-0.5 z m -5,1 c -0.276,0 -0.5,0.224 -0.5,0.5 0,0.276 0.224,0.5 0.5,0.5 0.276,0 0.5,-0.224 0.5,-0.5 0,-0.276 -0.224,-0.5 -0.5,-0.5 z m 2,0 c -0.276,0 -0.5,0.224 -0.5,0.5 0,0.276 0.224,0.5 0.5,0.5 0.276,0 0.5,-0.224 0.5,-0.5 0,-0.276 -0.224,-0.5 -0.5,-0.5 z m 2,0 c -0.276,0 -0.5,0.224 -0.5,0.5 0,0.276 0.224,0.5 0.5,0.5 0.276,0 0.5,-0.224 0.5,-0.5 0,-0.276 -0.224,-0.5 -0.5,-0.5 z m -5,1 c -0.276,0 -0.5,0.224 -0.5,0.5 0,0.276 0.224,0.5 0.5,0.5 0.276,0 0.5,-0.224 0.5,-0.5 0,-0.276 -0.224,-0.5 -0.5,-0.5 z m 2,0 c -0.276,0 -0.5,0.224 -0.5,0.5 0,0.276 0.224,0.5 0.5,0.5 0.276,0 0.5,-0.224 0.5,-0.5 0,-0.276 -0.224,-0.5 -0.5,-0.5 z m 2,0 c -0.276,0 -0.5,0.224 -0.5,0.5 0,0.276 0.224,0.5 0.5,0.5 0.276,0 0.5,-0.224 0.5,-0.5 0,-0.276 -0.224,-0.5 -0.5,-0.5 z m 2,0 c -0.276,0 -0.5,0.224 -0.5,0.5 0,0.276 0.224,0.5 0.5,0.5 0.276,0 0.5,-0.224 0.5,-0.5 0,-0.276 -0.224,-0.5 -0.5,-0.5 z"
         id="path9444" />
      <path
         style="color:#000000;display:inline;overflow:visible;visibility:visible;fill:url(#linearGradient9448);fill-opacity:1;fill-rule:nonzero;stroke:#000000;stroke-width:1;stroke-miterlimit:4;stroke-dasharray:none;stroke-opacity:0.25098;marker:none;enable-background:accumulate"
         d="m 46.5,194.5 h 8 v 2 h -8 z"
         id="path9446" />
      <rect
         style="display:inline;opacity:0.4;fill:#000000;fill-opacity:1;stroke:none;stroke-width:1;stroke-linecap:round;stroke-linejoin:round;stroke-miterlimit:4;stroke-dasharray:none;stroke-dashoffset:0;stroke-opacity:1;enable-background:new"
         id="rect10955"
         width="1"
         height="1"
         x="44"
         y="196" />
      <rect
         y="196"
         x="56"
         height="1"
         width="1"
         id="rect10957"
         style="display:inline;opacity:0.4;fill:#000000;fill-opacity:1;stroke:none;stroke-width:1;stroke-linecap:round;stroke-linejoin:round;stroke-miterlimit:4;stroke-dasharray:none;stroke-dashoffset:0;stroke-opacity:1;enable-background:new" />
      <path
         id="path10959"
         d="m 56.49995,197.69316 c 0,2.07458 -1.143586,3.99157 -2.999979,5.02886 -1.85639,1.03729 -4.143556,1.03729 -5.999946,0 -1.856392,-1.03729 -2.999976,-2.95428 -2.999975,-5.02886"
         style="opacity:1;fill:none;fill-opacity:1;stroke:#ffffff;stroke-width:1;stroke-linecap:butt;stroke-linejoin:round;stroke-miterlimit:4;stroke-dasharray:none;stroke-dashoffset:0;stroke-opacity:0.498039" />
      <ellipse
         style="fill:#68b723;fill-opacity:1;fill-rule:evenodd;stroke:none;stroke-width:0.999997;paint-order:markers fill stroke;stop-color:#000000"
         id="ellipse7605"
         cx="61.5"
         cy="190.5"
         rx="2.5"
         ry="2.5000012" />
      <ellipse
         style="fill:#68b723;fill-opacity:1;fill-rule:evenodd;stroke:none;stroke-width:0.999997;paint-order:markers fill stroke;stop-color:#000000"
         id="ellipse7970"
         cx="61.5"
         cy="197.5"
         rx="2.5"
         ry="2.5000012" />
      <ellipse
         style="fill:#68b723;fill-opacity:1;fill-rule:evenodd;stroke:none;stroke-width:0.999997;paint-order:markers fill stroke;stop-color:#000000"
         id="ellipse7972"
         cx="61.5"
         cy="204.5"
         rx="2.5"
         ry="2.5000012" />
    </g>
  </g>
</svg>
