<?xml version="1.0" encoding="UTF-8" standalone="no"?>
<svg
   version="1.0"
   width="22"
   height="22"
   id="svg2"
   sodipodi:docname="microphone-sensitivity-muted.svg"
   inkscape:version="1.2.2 (b0a8486541, 2022-12-01)"
   xmlns:inkscape="http://www.inkscape.org/namespaces/inkscape"
   xmlns:sodipodi="http://sodipodi.sourceforge.net/DTD/sodipodi-0.dtd"
   xmlns:xlink="http://www.w3.org/1999/xlink"
   xmlns="http://www.w3.org/2000/svg"
   xmlns:svg="http://www.w3.org/2000/svg"
   xmlns:rdf="http://www.w3.org/1999/02/22-rdf-syntax-ns#"
   xmlns:cc="http://creativecommons.org/ns#"
   xmlns:dc="http://purl.org/dc/elements/1.1/">
  <sodipodi:namedview
     id="namedview7386"
     pagecolor="#ffffff"
     bordercolor="#000000"
     borderopacity="0.25"
     inkscape:showpageshadow="2"
     inkscape:pageopacity="0.0"
     inkscape:pagecheckerboard="0"
     inkscape:deskcolor="#d1d1d1"
     showgrid="false"
     inkscape:zoom="16.75"
     inkscape:cx="16.477612"
     inkscape:cy="11.940299"
     inkscape:window-width="1278"
     inkscape:window-height="1005"
     inkscape:window-x="901"
     inkscape:window-y="16"
     inkscape:window-maximized="0"
     inkscape:current-layer="g5645" />
  <metadata
     id="metadata48">
    <rdf:RDF>
      <cc:Work
         rdf:about="">
        <dc:format>image/svg+xml</dc:format>
        <dc:type
           rdf:resource="http://purl.org/dc/dcmitype/StillImage" />
      </cc:Work>
    </rdf:RDF>
  </metadata>
  <defs
     id="defs4">
    <linearGradient
       id="linearGradient3324">
      <stop
         id="stop3326"
         style="stop-color:#ffffff;stop-opacity:1"
         offset="0" />
      <stop
         id="stop3328"
         style="stop-color:#ffffff;stop-opacity:0"
         offset="1" />
    </linearGradient>
    <linearGradient
       id="linearGradient3711-6">
      <stop
         id="stop3713-6"
         offset="0"
         style="stop-color:#ffffff;stop-opacity:1" />
      <stop
         id="stop3715-7"
         offset="1"
         style="stop-color:#d2d2d2;stop-opacity:1" />
    </linearGradient>
    <linearGradient
       xlink:href="#linearGradient3324"
       id="linearGradient9507"
       gradientUnits="userSpaceOnUse"
       x1="23.8125"
       y1="41.836731"
       x2="26.24283"
       y2="32.429119"
       gradientTransform="matrix(0.3962309,0,0,0.02203697,41.788132,205.66879)" />
    <linearGradient
       id="linearGradient2904">
      <stop
         id="stop2906"
         offset="0"
         style="stop-color:#b9b9b9;stop-opacity:1" />
      <stop
         id="stop2910"
         offset="0.21551724"
         style="stop-color:white;stop-opacity:1;" />
      <stop
         id="stop2912"
         offset="0.70243758"
         style="stop-color:#c3c3c3;stop-opacity:1" />
      <stop
         id="stop2908"
         offset="1"
         style="stop-color:#878787;stop-opacity:1" />
    </linearGradient>
    <linearGradient
       id="linearGradient4170">
      <stop
         offset="0"
         style="stop-color:#ffffff;stop-opacity:1"
         id="stop4172" />
      <stop
         offset="0.02783963"
         style="stop-color:#ffffff;stop-opacity:0.23529412"
         id="stop4174" />
      <stop
         offset="0.98396504"
         style="stop-color:#ffffff;stop-opacity:0.15686275"
         id="stop4176" />
      <stop
         offset="1"
         style="stop-color:#ffffff;stop-opacity:0.39215687"
         id="stop4178" />
    </linearGradient>
    <linearGradient
       xlink:href="#linearGradient11193"
       id="linearGradient9448"
       gradientUnits="userSpaceOnUse"
       gradientTransform="matrix(0.99514874,0,0,0.79639888,32.1074,183.34141)"
       x1="16.977392"
       y1="14.011304"
       x2="32.045643"
       y2="14.011304" />
    <linearGradient
       id="linearGradient11193">
      <stop
         style="stop-color:#ffffff;stop-opacity:1"
         offset="0"
         id="stop11195" />
      <stop
         id="stop9375"
         offset="0.23791341"
         style="stop-color:#e5e5e5;stop-opacity:1;" />
      <stop
         id="stop11205"
         offset="0.5490092"
         style="stop-color:#e1e1e1;stop-opacity:1" />
      <stop
         id="stop11201"
         offset="0.69210809"
         style="stop-color:#ababab;stop-opacity:1" />
      <stop
         style="stop-color:#959595;stop-opacity:1"
         offset="0.80617243"
         id="stop11203" />
      <stop
         style="stop-color:#d3d3d3;stop-opacity:1"
         offset="1"
         id="stop11197" />
    </linearGradient>
    <radialGradient
       r="13.08399"
       fy="40.578671"
       fx="18.753521"
       cy="40.578671"
       cx="18.753521"
       gradientTransform="matrix(0.52712163,0,0,0.09102151,41.243095,203.0887)"
       gradientUnits="userSpaceOnUse"
       id="radialGradient9456-3"
       xlink:href="#linearGradient3711-6" />
    <linearGradient
       y2="13.351768"
       x2="30.230837"
       y1="13.351768"
       x1="18.737373"
       gradientTransform="matrix(0.57142833,0,0,0.62499979,39.500008,185.5625)"
       gradientUnits="userSpaceOnUse"
       id="linearGradient9438-5"
       xlink:href="#linearGradient2904" />
    <linearGradient
       y2="20.136354"
       x2="24.458324"
       y1="2.8636429"
       x1="24.458324"
       gradientTransform="matrix(0.54545472,0,0,0.65000039,40.409087,186.52501)"
       gradientUnits="userSpaceOnUse"
       id="linearGradient9442-9"
       xlink:href="#linearGradient4170" />
  </defs>
  <g
     id="g6155"
     style="display:inline;enable-background:new"
     transform="translate(-43,-186)">
    <g
       id="g5645">
      <ellipse
         ry="1"
         rx="6"
         cy="206.5"
         cx="53.500023"
         id="ellipse9454"
         style="display:inline;fill:url(#radialGradient9456-3);fill-opacity:1;stroke:#000000;stroke-width:0.999997;stroke-linecap:round;stroke-linejoin:round;stroke-miterlimit:4;stroke-dasharray:none;stroke-dashoffset:0;stroke-opacity:0.4" />
      <g
         id="rect9509">
        <path
           id="path15689"
           style="color:#000000;fill:#e1e1e1;stroke-linejoin:round;-inkscape-stroke:none"
           d="M 46.5 194.5 L 46.5 195.5 L 46.5 196.5 L 46.5 197.69336 C 46.499997 200.13542 47.850006 202.38586 50.011719 203.59375 C 50.792109 204.02981 51.63776 204.30261 52.5 204.42383 L 52.5 205.5 L 54.5 205.5 L 54.5 204.42383 C 55.36224 204.30261 56.207891 204.02981 56.988281 203.59375 C 57.241525 203.45225 57.482793 203.2957 57.712891 203.12695 L 56.275391 201.68945 C 56.189355 201.7446 56.101975 201.79722 56.011719 201.84766 C 54.460651 202.71434 52.539349 202.71434 50.988281 201.84766 C 49.437212 200.98097 48.499998 199.40044 48.5 197.69336 L 48.5 196.5 L 51.085938 196.5 L 49.085938 194.5 L 46.5 194.5 z M 51.914062 194.5 L 53.914062 196.5 L 58.5 196.5 L 58.5 197.69336 C 58.5 198.63 58.215963 199.52758 57.705078 200.29102 L 59.136719 201.72266 C 60.004485 200.57443 60.5 199.16962 60.5 197.69336 L 60.5 196.5 L 60.5 195.5 L 60.5 194.5 L 51.914062 194.5 z " />
        <path
           id="path15726"
           style="color:#000000;fill:#000000;fill-opacity:0.4;stroke-linejoin:round;-inkscape-stroke:none"
           d="M 46.5 194 A 0.50005 0.50005 0 0 0 46 194.5 L 46 195.5 L 46 196.5 L 46 197.69336 C 45.999997 200.31969 47.452394 202.73565 49.767578 204.0293 C 50.469524 204.42152 51.233694 204.62268 52 204.77539 L 52 205.5 A 0.50005 0.50005 0 0 0 52.5 206 L 54.5 206 A 0.50005 0.50005 0 0 0 55 205.5 L 55 204.77539 C 55.766306 204.62268 56.530476 204.42152 57.232422 204.0293 C 57.526345 203.86506 57.805408 203.68292 58.070312 203.48438 L 57.353516 202.76758 C 57.158544 202.90701 56.956739 203.03941 56.744141 203.1582 C 56.020503 203.56255 55.234148 203.81464 54.429688 203.92773 A 0.50005 0.50005 0 0 0 54 204.42383 L 54 205 L 53 205 L 53 204.42383 A 0.50005 0.50005 0 0 0 52.570312 203.92773 C 51.765853 203.81464 50.979497 203.56255 50.255859 203.1582 C 48.247622 202.03607 46.999997 199.95115 47 197.69336 L 47 196.5 L 47 195.5 L 47 195 L 49.585938 195 L 48.585938 194 L 46.5 194 z M 51.414062 194 L 52.414062 195 L 60 195 L 60 195.5 L 60 196.5 L 60 197.69336 C 60 199.03392 59.557026 200.31191 58.779297 201.36523 L 59.492188 202.07812 C 60.449879 200.83561 61 199.30509 61 197.69336 L 61 196.5 L 61 195.5 L 61 194.5 A 0.50005 0.50005 0 0 0 60.5 194 L 51.414062 194 z M 48.5 196 A 0.50005 0.50005 0 0 0 48 196.5 L 48 197.69336 C 47.999998 199.58344 49.041978 201.33209 50.744141 202.2832 C 52.44869 203.23564 54.55131 203.23564 56.255859 202.2832 C 56.386683 202.2101 56.511915 202.13105 56.634766 202.04883 L 55.912109 201.32617 C 55.864283 201.35522 55.81682 201.38459 55.767578 201.41211 C 54.369996 202.19303 52.630004 202.19303 51.232422 201.41211 C 49.832447 200.62985 48.999998 199.21743 49 197.69336 L 49 197 L 51.585938 197 L 50.585938 196 L 48.5 196 z M 53.414062 196 L 54.414062 197 L 58 197 L 58 197.69336 C 58 198.49574 57.766553 199.26486 57.34375 199.92969 L 58.064453 200.65039 C 58.66386 199.78971 59 198.76412 59 197.69336 L 59 196.5 A 0.50005 0.50005 0 0 0 58.5 196 L 53.414062 196 z " />
      </g>
      <g
         id="rect9436">
        <path
           id="path15703"
           style="color:#000000;fill:url(#linearGradient9438-5);stroke-linecap:square;stroke-linejoin:round;-inkscape-stroke:none"
           d="M 53.5 186.5 C 51.284002 186.5 49.5 188.284 49.5 190.5 L 49.5 192.08594 L 56.947266 199.5332 C 57.297729 198.9381 57.5 198.24336 57.5 197.5 L 57.5 190.5 C 57.5 188.284 55.715998 186.5 53.5 186.5 z M 49.5 194.91406 L 49.5 197.5 C 49.5 199.716 51.284002 201.5 53.5 201.5 C 54.243359 201.5 54.938102 201.29773 55.533203 200.94727 L 49.5 194.91406 z " />
        <path
           id="path15744"
           style="color:#000000;fill:#000000;fill-opacity:0.4;stroke-linecap:square;stroke-linejoin:round;-inkscape-stroke:none"
           d="M 53.5 186 C 51.015655 186 49 188.01565 49 190.5 L 49 191.58594 L 50 192.58594 L 50 190.5 C 50 188.55235 51.552357 187 53.5 187 C 55.447643 187 57 188.55235 57 190.5 L 57 197.5 C 57 198.10643 56.848103 198.67311 56.582031 199.16797 L 57.308594 199.89453 C 57.74589 199.20077 58 198.38026 58 197.5 L 58 190.5 C 58 188.01565 55.984345 186 53.5 186 z M 49 194.41406 L 49 197.5 C 49 199.98435 51.015655 202 53.5 202 C 54.380263 202 55.200768 201.74589 55.894531 201.30859 L 55.167969 200.58203 C 54.673111 200.8481 54.106432 201 53.5 201 C 51.552357 201 50 199.44765 50 197.5 L 50 195.41406 L 49 194.41406 z " />
      </g>
      <path
         id="path15751"
         style="color:#000000;fill:url(#linearGradient9442-9);stroke-linecap:square;stroke-linejoin:round;-inkscape-stroke:none"
         d="M 53.5 187 C 51.569653 187 50 188.56965 50 190.5 L 50 192.58594 L 51 193.58594 L 51 190.5 C 51 189.10635 52.106354 188 53.5 188 C 54.893646 188 56 189.10635 56 190.5 L 56 197.5 C 56 197.82406 55.937464 198.13137 55.828125 198.41406 L 56.578125 199.16406 C 56.846516 198.66907 57 198.10169 57 197.5 L 57 190.5 C 57 188.56965 55.430347 187 53.5 187 z M 50 195.41406 L 50 197.5 C 50 199.43035 51.569653 201 53.5 201 C 54.101687 201 54.669075 200.84652 55.164062 200.57812 L 54.414062 199.82812 C 54.131369 199.93746 53.824058 200 53.5 200 C 52.106354 200 51 198.89365 51 197.5 L 51 196.41406 L 50 195.41406 z " />
      <path
         id="path9444"
         style="display:inline;opacity:0.3;fill:#000000;fill-opacity:1;stroke:none"
         d="M 52.5 187 C 52.224 187 52 187.224 52 187.5 C 52 187.776 52.224 188 52.5 188 C 52.776 188 53 187.776 53 187.5 C 53 187.224 52.776 187 52.5 187 z M 54.5 187 C 54.224 187 54 187.224 54 187.5 C 54 187.776 54.224 188 54.5 188 C 54.776 188 55 187.776 55 187.5 C 55 187.224 54.776 187 54.5 187 z M 51.5 188 C 51.224 188 51 188.224 51 188.5 C 51 188.776 51.224 189 51.5 189 C 51.776 189 52 188.776 52 188.5 C 52 188.224 51.776 188 51.5 188 z M 53.5 188 C 53.224 188 53 188.224 53 188.5 C 53 188.776 53.224 189 53.5 189 C 53.776 189 54 188.776 54 188.5 C 54 188.224 53.776 188 53.5 188 z M 55.5 188 C 55.224 188 55 188.224 55 188.5 C 55 188.776 55.224 189 55.5 189 C 55.776 189 56 188.776 56 188.5 C 56 188.224 55.776 188 55.5 188 z M 50.5 189 C 50.224 189 50 189.224 50 189.5 C 50 189.776 50.224 190 50.5 190 C 50.776 190 51 189.776 51 189.5 C 51 189.224 50.776 189 50.5 189 z M 52.5 189 C 52.224 189 52 189.224 52 189.5 C 52 189.776 52.224 190 52.5 190 C 52.776 190 53 189.776 53 189.5 C 53 189.224 52.776 189 52.5 189 z M 54.5 189 C 54.224 189 54 189.224 54 189.5 C 54 189.776 54.224 190 54.5 190 C 54.776 190 55 189.776 55 189.5 C 55 189.224 54.776 189 54.5 189 z M 56.5 189 C 56.224 189 56 189.224 56 189.5 C 56 189.776 56.224 190 56.5 190 C 56.776 190 57 189.776 57 189.5 C 57 189.224 56.776 189 56.5 189 z M 51.5 190 C 51.224 190 51 190.224 51 190.5 C 51 190.776 51.224 191 51.5 191 C 51.776 191 52 190.776 52 190.5 C 52 190.224 51.776 190 51.5 190 z M 53.5 190 C 53.224 190 53 190.224 53 190.5 C 53 190.776 53.224 191 53.5 191 C 53.776 191 54 190.776 54 190.5 C 54 190.224 53.776 190 53.5 190 z M 55.5 190 C 55.224 190 55 190.224 55 190.5 C 55 190.776 55.224 191 55.5 191 C 55.776 191 56 190.776 56 190.5 C 56 190.224 55.776 190 55.5 190 z M 50.5 191 C 50.224 191 50 191.224 50 191.5 C 50 191.776 50.224 192 50.5 192 C 50.776 192 51 191.776 51 191.5 C 51 191.224 50.776 191 50.5 191 z M 52.5 191 C 52.224 191 52 191.224 52 191.5 C 52 191.776 52.224 192 52.5 192 C 52.776 192 53 191.776 53 191.5 C 53 191.224 52.776 191 52.5 191 z M 54.5 191 C 54.224 191 54 191.224 54 191.5 C 54 191.776 54.224 192 54.5 192 C 54.776 192 55 191.776 55 191.5 C 55 191.224 54.776 191 54.5 191 z M 56.5 191 C 56.224 191 56 191.224 56 191.5 C 56 191.776 56.224 192 56.5 192 C 56.776 192 57 191.776 57 191.5 C 57 191.224 56.776 191 56.5 191 z M 51.5 192 C 51.224 192 51 192.224 51 192.5 C 51 192.776 51.224 193 51.5 193 C 51.776 193 52 192.776 52 192.5 C 52 192.224 51.776 192 51.5 192 z M 53.5 192 C 53.224 192 53 192.224 53 192.5 C 53 192.776 53.224 193 53.5 193 C 53.776 193 54 192.776 54 192.5 C 54 192.224 53.776 192 53.5 192 z M 55.5 192 C 55.224 192 55 192.224 55 192.5 C 55 192.776 55.224 193 55.5 193 C 55.776 193 56 192.776 56 192.5 C 56 192.224 55.776 192 55.5 192 z M 50.5 193 C 50.473452 193 50.447308 193.00382 50.421875 193.00781 L 50.992188 193.57812 C 50.996179 193.55269 51 193.52655 51 193.5 C 51 193.224 50.776 193 50.5 193 z M 52.5 193 C 52.224 193 52 193.224 52 193.5 C 52 193.776 52.224 194 52.5 194 C 52.776 194 53 193.776 53 193.5 C 53 193.224 52.776 193 52.5 193 z M 54.5 193 C 54.224 193 54 193.224 54 193.5 C 54 193.776 54.224 194 54.5 194 C 54.776 194 55 193.776 55 193.5 C 55 193.224 54.776 193 54.5 193 z M 56.5 193 C 56.224 193 56 193.224 56 193.5 C 56 193.776 56.224 194 56.5 194 C 56.776 194 57 193.776 57 193.5 C 57 193.224 56.776 193 56.5 193 z M 51.5 194 C 51.473452 194 51.447308 194.00382 51.421875 194.00781 L 51.992188 194.57812 C 51.996179 194.55269 52 194.52655 52 194.5 C 52 194.224 51.776 194 51.5 194 z M 53.5 194 C 53.224 194 53 194.224 53 194.5 C 53 194.776 53.224 195 53.5 195 C 53.776 195 54 194.776 54 194.5 C 54 194.224 53.776 194 53.5 194 z M 55.5 194 C 55.224 194 55 194.224 55 194.5 C 55 194.776 55.224 195 55.5 195 C 55.776 195 56 194.776 56 194.5 C 56 194.224 55.776 194 55.5 194 z M 52.5 195 C 52.473452 195 52.447308 195.00382 52.421875 195.00781 L 52.992188 195.57812 C 52.996179 195.55269 53 195.52655 53 195.5 C 53 195.224 52.776 195 52.5 195 z M 54.5 195 C 54.224 195 54 195.224 54 195.5 C 54 195.776 54.224 196 54.5 196 C 54.776 196 55 195.776 55 195.5 C 55 195.224 54.776 195 54.5 195 z M 56.5 195 C 56.224 195 56 195.224 56 195.5 C 56 195.776 56.224 196 56.5 196 C 56.776 196 57 195.776 57 195.5 C 57 195.224 56.776 195 56.5 195 z M 50.007812 195.42188 C 50.003821 195.44731 50 195.47345 50 195.5 C 50 195.776 50.224 196 50.5 196 C 50.526548 196 50.552692 195.99618 50.578125 195.99219 L 50.007812 195.42188 z " />
      <g
         id="path9446">
        <path
           id="path15709"
           style="color:#000000;fill:url(#linearGradient9448);-inkscape-stroke:none"
           d="M 51.914062 194.5 L 53.914062 196.5 L 57.5 196.5 L 57.5 194.5 L 51.914062 194.5 z M 49.5 194.91406 L 49.5 196.5 L 51.085938 196.5 L 49.5 194.91406 z " />
        <path
           id="path15711"
           style="color:#000000;fill:#000000;fill-opacity:0.25098;-inkscape-stroke:none"
           d="M 51.414062 194 L 52.414062 195 L 57 195 L 57 196 L 53.414062 196 L 54.414062 197 L 58 197 L 58 194 L 51.414062 194 z M 49 194.41406 L 49 194.5 L 49 197 L 51.585938 197 L 50.585938 196 L 50 196 L 50 195.41406 L 49 194.41406 z " />
      </g>
      <rect
         style="display:inline;opacity:0.4;fill:#000000;fill-opacity:1;stroke:none;stroke-width:1;stroke-linecap:round;stroke-linejoin:round;stroke-miterlimit:4;stroke-dasharray:none;stroke-dashoffset:0;stroke-opacity:1;enable-background:new"
         id="rect10955"
         width="1"
         height="1"
         x="47"
         y="196" />
      <rect
         y="196"
         x="59"
         height="1"
         width="1"
         id="rect10957"
         style="display:inline;opacity:0.4;fill:#000000;fill-opacity:1;stroke:none;stroke-width:1;stroke-linecap:round;stroke-linejoin:round;stroke-miterlimit:4;stroke-dasharray:none;stroke-dashoffset:0;stroke-opacity:1;enable-background:new" />
      <path
         id="path10959"
         style="color:#000000;fill:#ffffff;fill-opacity:0.498039;stroke-linejoin:round;-inkscape-stroke:none"
         d="M 47 197.69336 C 46.999999 199.95168 48.246811 202.03561 50.255859 203.1582 C 52.264906 204.28079 54.735094 204.28079 56.744141 203.1582 C 56.956824 203.03936 57.158492 202.90703 57.353516 202.76758 L 56.636719 202.05078 C 56.513687 202.13314 56.386912 202.21193 56.255859 202.28516 C 54.552134 203.23714 52.447866 203.23714 50.744141 202.28516 C 49.040412 201.33317 47.999999 199.58419 48 197.69336 L 47 197.69336 z M 59 197.69336 C 59 198.76505 58.666199 199.79107 58.066406 200.65234 L 58.779297 201.36523 C 59.556964 200.31204 60 199.03424 60 197.69336 L 59 197.69336 z " />
      <rect
         style="fill:#ed5353;stroke:none;stroke-width:0.5;stroke-linecap:round;stroke-linejoin:round;stroke-opacity:0.5;paint-order:fill markers stroke;stop-color:#000000"
         id="rect3503"
         width="2"
         height="28"
         x="-102.11626"
         y="163.48422"
         rx="1"
         ry="1"
         transform="rotate(-45)" />
    </g>
  </g>
</svg>
