<?xml version="1.0" encoding="UTF-8" standalone="no"?>
<svg
   height="22"
   width="22"
   id="svg2"
   version="1.1"
   sodipodi:docname="network-wireless-signal-ok-secure.svg"
   inkscape:version="1.2.2 (b0a8486541, 2022-12-01)"
   xmlns:inkscape="http://www.inkscape.org/namespaces/inkscape"
   xmlns:sodipodi="http://sodipodi.sourceforge.net/DTD/sodipodi-0.dtd"
   xmlns="http://www.w3.org/2000/svg"
   xmlns:svg="http://www.w3.org/2000/svg"
   xmlns:rdf="http://www.w3.org/1999/02/22-rdf-syntax-ns#"
   xmlns:cc="http://creativecommons.org/ns#"
   xmlns:dc="http://purl.org/dc/elements/1.1/">
  <sodipodi:namedview
     id="namedview245"
     pagecolor="#ffffff"
     bordercolor="#000000"
     borderopacity="0.25"
     inkscape:showpageshadow="2"
     inkscape:pageopacity="0.0"
     inkscape:pagecheckerboard="0"
     inkscape:deskcolor="#d1d1d1"
     showgrid="false"
     inkscape:zoom="22.627417"
     inkscape:cx="4.0879611"
     inkscape:cy="8.1980192"
     inkscape:window-width="1278"
     inkscape:window-height="1005"
     inkscape:window-x="0"
     inkscape:window-y="10"
     inkscape:window-maximized="0"
     inkscape:current-layer="svg2"
     showguides="true" />
  <metadata
     id="metadata14">
    <rdf:RDF>
      <cc:Work
         rdf:about="">
        <dc:format>image/svg+xml</dc:format>
        <dc:type
           rdf:resource="http://purl.org/dc/dcmitype/StillImage" />
      </cc:Work>
    </rdf:RDF>
  </metadata>
  <defs
     id="defs12" />
  <path
     id="path7820-3"
     style="color:#000000;fill:#f37329;fill-opacity:1;stroke-width:1;-inkscape-stroke:none;paint-order:markers fill stroke"
     d="m 11,13.375 c -1.2938677,0 -2.375,0.775391 -2.375,0.775391 L 11,17.5 12,16.089844 V 15.5 c 0,-0.583332 0.439221,-1.150265 0.802734,-1.332031 0.102767,-0.05137 0.106131,-0.02201 0.197266,-0.04687 v -0.08984 c 0,-0.03527 7.37e-4,-0.07046 0.002,-0.105469 C 12.577318,13.696887 11.834086,13.375 11,13.375 Z" />
  <path
     style="color:#000000;fill:#95a3ab;fill-opacity:0.45;stroke-linejoin:round;-inkscape-stroke:none;paint-order:markers fill stroke"
     d="m 11,4.375 c -4.7547454,0 -8,2.765625 -8,2.765625 l 1.4550781,1.71875 c 0,0 2.6580656,-2.234375 6.5449219,-2.234375 3.886855,0 6.544922,2.234375 6.544922,2.234375 L 19,7.140625 c 0,0 -3.245256,-2.765625 -8,-2.765625 z"
     id="path38238" />
  <path
     id="path38244"
     style="color:#000000;fill:#95a3ab;fill-opacity:0.45;stroke-linejoin:round;-inkscape-stroke:none;paint-order:markers fill stroke"
     d="m 11,8.875 c -2.9919031,0 -5.1035156,1.708984 -5.1035156,1.708984 l 1.4023437,1.759766 c 0,0 1.5654046,-1.21875 3.7011719,-1.21875 1.209515,0 2.243859,0.39498 2.914062,0.736328 0.492295,-0.48391 1.147503,-0.801195 1.873047,-0.853515 l 0.333985,-0.423829 c 0,0 -2.127851,-1.708984 -5.121094,-1.708984 z" />
  <path
     d="m 16,12 c -1.108,0 -2,0.91 -2,2.031 V 15 h -0.5 c 0,0 -0.5,0 -0.5,0.5 v 3 c 0,0 0,0.5 0.5,0.5 h 5 c 0,0 0.5,0 0.5,-0.5 v -3 C 19,15 18.5,15 18.5,15 H 18 V 14.031 C 18,12.911 17.108,12 16,12 Z m 0,1 c 0.554,0 1,0.442 1,1 v 1 h -2 v -1 c 0,-0.558 0.446,-1 1,-1 z"
     fill="#666666"
     id="path6"
     style="fill:#f9c440" />
</svg>
