<?xml version="1.0" encoding="UTF-8" standalone="no"?>
<svg
   xmlns:dc="http://purl.org/dc/elements/1.1/"
   xmlns:cc="http://creativecommons.org/ns#"
   xmlns:rdf="http://www.w3.org/1999/02/22-rdf-syntax-ns#"
   xmlns:svg="http://www.w3.org/2000/svg"
   xmlns="http://www.w3.org/2000/svg"
   height="16.008"
   width="16"
   id="svg2"
   version="1.1">
  <metadata
     id="metadata12">
    <rdf:RDF>
      <cc:Work
         rdf:about="">
        <dc:format>image/svg+xml</dc:format>
        <dc:type
           rdf:resource="http://purl.org/dc/dcmitype/StillImage" />
      </cc:Work>
    </rdf:RDF>
  </metadata>
  <defs
     id="defs10" />
  <g
     color="#bebebe"
     transform="translate(-1033 267)"
     id="g4">
    <path
       d="M1046.37-267l-7.376 1.906c-.554.149-1 .74-1 1.313v9.094a2.84 2.84 0 0 0-2.03-.22c-1.35.351-2.196 1.485-1.907 2.532.29 1.047 1.619 1.632 2.969 1.281 1.076-.28 1.819-1.071 1.937-1.906l.031-8.594 7-1.875v6.781a2.84 2.84 0 0 0-2.031-.218c-1.35.35-2.196 1.484-1.906 2.531.289 1.047 1.619 1.632 2.968 1.281 1.077-.28 1.82-1.071 1.938-1.906l.03-11.188c0-.43-.265-.751-.624-.812z"
       fill="#666"
       overflow="visible"
       style="marker:none"
       id="path6" />
  </g>
</svg>
