<?xml version="1.0" encoding="UTF-8" standalone="no"?>
<svg
   width="16"
   height="16"
   version="1.1"
   id="svg58586"
   sodipodi:docname="nm-vpn-connecting09.svg"
   inkscape:version="1.2.2 (b0a8486541, 2022-12-01)"
   xmlns:inkscape="http://www.inkscape.org/namespaces/inkscape"
   xmlns:sodipodi="http://sodipodi.sourceforge.net/DTD/sodipodi-0.dtd"
   xmlns="http://www.w3.org/2000/svg"
   xmlns:svg="http://www.w3.org/2000/svg">
  <sodipodi:namedview
     id="namedview58588"
     pagecolor="#ffffff"
     bordercolor="#000000"
     borderopacity="0.25"
     inkscape:showpageshadow="2"
     inkscape:pageopacity="0.0"
     inkscape:pagecheckerboard="0"
     inkscape:deskcolor="#d1d1d1"
     showgrid="false"
     inkscape:zoom="36.545455"
     inkscape:cx="7.9490049"
     inkscape:cy="11.041045"
     inkscape:window-width="1920"
     inkscape:window-height="1020"
     inkscape:window-x="0"
     inkscape:window-y="0"
     inkscape:window-maximized="1"
     inkscape:current-layer="svg58586" />
  <defs
     id="defs58578">
    <linearGradient
       id="linearGradient3605"
       x1="7"
       x2="19"
       y1="12"
       y2="5"
       gradientTransform="matrix(-0.43209,0.90183,0.90183,0.43209,2.3638123,-8.0073142)"
       gradientUnits="userSpaceOnUse">
      <stop
         offset="0"
         stop-color="#444444"
         stop-opacity=".5"
         id="stop58568"
         style="stop-color:#64baff;stop-opacity:0.5;" />
      <stop
         offset="1"
         stop-color="#444444"
         stop-opacity="0"
         id="stop58570"
         style="stop-color:#64baff;stop-opacity:0;" />
    </linearGradient>
    <linearGradient
       id="linearGradient3611"
       x1="7"
       x2="17"
       y1="12"
       y2="12"
       gradientTransform="matrix(0.43209,-0.90183,-0.90183,-0.43209,13.637112,24.006686)"
       gradientUnits="userSpaceOnUse">
      <stop
         offset="0"
         stop-color="#444444"
         id="stop58573"
         style="stop-color:#64baff;stop-opacity:1" />
      <stop
         offset="1"
         stop-color="#444444"
         stop-opacity=".5"
         id="stop58575"
         style="stop-color:#64baff;stop-opacity:0.5;" />
    </linearGradient>
  </defs>
  <path
     style="fill:url(#linearGradient3611)"
     d="m 11.025112,1.6871858 -0.865,1.8027 c 1.794,0.8592 2.813,2.6498 2.811,4.5138 0.01,0 0.019,-0.004 0.029,-0.004 0.743,0 1.411,0.288 1.932,0.744 0.307,-2.8653 -1.158,-5.7402 -3.907,-7.0565 z M 5.4181123,12.401186 c -0.9348,-0.023 -1.4673,1.418 -0.4414,1.909 1.3023,0.624 2.6944,0.783 4.0234,0.587 v -2.031 c -1.033,0.216 -2.135,0.133 -3.1602,-0.357 -0.1465,-0.07 -0.2883,-0.104 -0.4218,-0.108 z"
     id="path58580" />
  <path
     style="fill:url(#linearGradient3605)"
     d="m 8.3301123,1.0055858 c -2.7249,-0.12730002 -5.3896,1.3539 -6.6425,3.9687 -1.67039995,3.4864 -0.1974,7.6674002 3.2891,9.3374002 l 0.8632,-1.802 c -2.4903,-1.193 -3.5408,-4.1800002 -2.3476,-6.6702002 1.1931,-2.4903 4.1788,-3.5428 6.6697997,-2.3496 l 0.863,-1.8027 c -0.871,-0.4176 -1.7869997,-0.6392 -2.6949997,-0.6816 z"
     id="path58582" />
  <path
     fill="#444444"
     d="m 13.000112,8.9996858 c -1.108,0 -2,0.91085 -2,2.0312002 v 0.96875 h -1 v 4 h 6 v -4 h -1 v -0.96875 c 0,-1.1200002 -0.892,-2.0310002 -2,-2.0310002 z m 0,1 c 0.554,0 1,0.4424002 1,1.0000002 v 1 h -2 v -1 c 0,-0.5576 0.446,-1.0000002 1,-1.0000002 z"
     id="path58584"
     style="fill:#f9c440" />
</svg>
