<?xml version="1.0" encoding="UTF-8" standalone="no"?>
<svg
   width="16"
   height="16"
   version="1.1"
   id="svg57770"
   sodipodi:docname="nm-vpn-connecting06.svg"
   inkscape:version="1.2.2 (b0a8486541, 2022-12-01)"
   xmlns:inkscape="http://www.inkscape.org/namespaces/inkscape"
   xmlns:sodipodi="http://sodipodi.sourceforge.net/DTD/sodipodi-0.dtd"
   xmlns="http://www.w3.org/2000/svg"
   xmlns:svg="http://www.w3.org/2000/svg">
  <sodipodi:namedview
     id="namedview57772"
     pagecolor="#ffffff"
     bordercolor="#000000"
     borderopacity="0.25"
     inkscape:showpageshadow="2"
     inkscape:pageopacity="0.0"
     inkscape:pagecheckerboard="0"
     inkscape:deskcolor="#d1d1d1"
     showgrid="false"
     inkscape:zoom="36.545455"
     inkscape:cx="7.9490049"
     inkscape:cy="11.041045"
     inkscape:window-width="1920"
     inkscape:window-height="1020"
     inkscape:window-x="0"
     inkscape:window-y="0"
     inkscape:window-maximized="1"
     inkscape:current-layer="svg57770" />
  <defs
     id="defs57762">
    <linearGradient
       id="linearGradient3605"
       x1="7"
       x2="19"
       y1="12"
       y2="5"
       gradientTransform="matrix(0.78261,0.62251,0.62251,-0.78261,-8.8606628,9.9211474)"
       gradientUnits="userSpaceOnUse">
      <stop
         offset="0"
         stop-color="#444444"
         stop-opacity=".5"
         id="stop57752"
         style="stop-color:#64baff;stop-opacity:0.5;" />
      <stop
         offset="1"
         stop-color="#444444"
         stop-opacity="0"
         id="stop57754"
         style="stop-color:#64baff;stop-opacity:0;" />
    </linearGradient>
    <linearGradient
       id="linearGradient3611"
       x1="7"
       x2="17"
       y1="12"
       y2="12"
       gradientTransform="matrix(-0.78261,-0.62251,-0.62251,0.78261,24.862337,6.0791474)"
       gradientUnits="userSpaceOnUse">
      <stop
         offset="0"
         stop-color="#444444"
         id="stop57757"
         style="stop-color:#64baff;stop-opacity:1" />
      <stop
         offset="1"
         stop-color="#444444"
         stop-opacity=".5"
         id="stop57759"
         style="stop-color:#64baff;stop-opacity:0.5;" />
    </linearGradient>
  </defs>
  <path
     style="fill:url(#linearGradient3611)"
     d="m 7.8793372,1.0021474 c -2.017,0.0363 -4.0038,0.9387 -5.3575,2.6406 l 1.5664,1.2441 c 1.719,-2.1611 4.8641,-2.5176 7.0250998,-0.7988 1.242,0.987 1.874,2.4432 1.873,3.9141 0.005,0 0.009,-0.002 0.014,-0.002 0.747,0 1.419,0.291 1.941,0.752 0.249,-2.3045 -0.635,-4.6808 -2.584,-6.2305 -1.323,-1.0529 -2.9089998,-1.54780002 -4.4779998,-1.5195 z"
     id="path57764" />
  <path
     style="fill:url(#linearGradient3605)"
     d="m 2.5218372,3.6427474 c -2.40659999,3.0256 -1.90449999,7.4293996 1.1211,9.8363996 1.5723,1.25 3.5144,1.706 5.3574,1.439 v -2.022 c -1.398,0.285 -2.9073,-0.024 -4.1113,-0.982 -2.1615,-1.72 -2.5198,-4.8659996 -0.8008,-7.0272996 z"
     id="path57766" />
  <path
     fill="#444444"
     d="m 13.000337,9.0001474 c -1.108,0 -2,0.91085 -2,2.0311996 v 0.96875 h -1 v 4 h 6 v -4 h -1 v -0.96875 c 0,-1.1199996 -0.892,-2.0309996 -2,-2.0309996 z m 0,0.9999996 c 0.554,0 1,0.4424 1,1 v 1 h -2 v -1 c 0,-0.5576 0.446,-1 1,-1 z"
     id="path57768"
     style="fill:#f9c440" />
</svg>
