<?xml version="1.0" encoding="UTF-8" standalone="no"?>
<svg
   width="16"
   height="16"
   version="1.1"
   id="svg4688"
   sodipodi:docname="nm-vpn-connecting01.svg"
   inkscape:version="1.2.2 (b0a8486541, 2022-12-01)"
   xmlns:inkscape="http://www.inkscape.org/namespaces/inkscape"
   xmlns:sodipodi="http://sodipodi.sourceforge.net/DTD/sodipodi-0.dtd"
   xmlns="http://www.w3.org/2000/svg"
   xmlns:svg="http://www.w3.org/2000/svg">
  <sodipodi:namedview
     id="namedview4690"
     pagecolor="#ffffff"
     bordercolor="#000000"
     borderopacity="0.25"
     inkscape:showpageshadow="2"
     inkscape:pageopacity="0.0"
     inkscape:pagecheckerboard="0"
     inkscape:deskcolor="#d1d1d1"
     showgrid="false"
     inkscape:zoom="36.545455"
     inkscape:cx="7.9216417"
     inkscape:cy="11"
     inkscape:window-width="1278"
     inkscape:window-height="1005"
     inkscape:window-x="521"
     inkscape:window-y="13"
     inkscape:window-maximized="0"
     inkscape:current-layer="svg4688" />
  <defs
     id="defs4680">
    <linearGradient
       id="linearGradient3605"
       x1="7"
       x2="19"
       y1="12"
       y2="5"
       gradientTransform="matrix(0,-1,-1,0,20,20)"
       gradientUnits="userSpaceOnUse">
      <stop
         offset="0"
         stop-color="#444444"
         stop-opacity=".5"
         id="stop4670"
         style="stop-color:#64baff;stop-opacity:0.5;" />
      <stop
         offset="1"
         stop-color="#444444"
         stop-opacity="0"
         id="stop4672"
         style="stop-color:#64baff;stop-opacity:0;" />
    </linearGradient>
    <linearGradient
       id="linearGradient3611"
       x1="7"
       x2="17"
       y1="12"
       y2="12"
       gradientTransform="matrix(0,1,1,0,-4,-3.99995)"
       gradientUnits="userSpaceOnUse">
      <stop
         offset="0"
         stop-color="#444444"
         id="stop4675"
         style="stop-color:#3689e6;stop-opacity:1" />
      <stop
         offset="1"
         stop-color="#444444"
         stop-opacity=".5"
         id="stop4677"
         style="stop-color:#3689e6;stop-opacity:0.5;" />
    </linearGradient>
  </defs>
  <path
     style="fill:url(#linearGradient3605)"
     d="m 8,1 v 2 c 2.761,0 5,2.2386 5,5 0.75,0 1.424,0.294 1.947,0.758 C 14.979,8.509 15,8.257 15,8 15,4.134 11.866,1 8,1 Z M 9,12.885 C 8.676,12.952 8.345,13 8,13 v 2 c 0.342,0 0.673,-0.041 1,-0.094 z"
     id="path4684" />
  <path
     fill="#444444"
     d="m 13,9 c -1.108,0 -2,0.91085 -2,2.0312 v 0.969 h -1 v 4 h 6 v -4 h -1 v -0.96875 c 0,-1.12 -0.892,-2.031 -2,-2.031 z m 0,1 c 0.554,0 1,0.4424 1,1 v 1 h -2 v -1 c 0,-0.5576 0.446,-1 1,-1 z"
     id="path4686"
     style="fill:#f9c440" />
  <path
     style="fill:url(#linearGradient3611)"
     d="M 8,1 C 4.134,1 1,4.134 1,8 c 0,3.866 3.134,7 7,7 V 13 C 5.2386,13 3,10.761 3,8 3,5.2386 5.2386,3 8,3 9.3,3 9.3,1 8,1 Z"
     id="path4682" />
</svg>
