<?xml version="1.0" encoding="UTF-8" standalone="no"?>
<svg
   version="1.1"
   width="48"
   height="48"
   id="svg6649"
   sodipodi:docname="application-x-rpm.svg"
   inkscape:version="1.2.2 (b0a8486541, 2022-12-01)"
   xmlns:inkscape="http://www.inkscape.org/namespaces/inkscape"
   xmlns:sodipodi="http://sodipodi.sourceforge.net/DTD/sodipodi-0.dtd"
   xmlns:xlink="http://www.w3.org/1999/xlink"
   xmlns="http://www.w3.org/2000/svg"
   xmlns:svg="http://www.w3.org/2000/svg"
   xmlns:rdf="http://www.w3.org/1999/02/22-rdf-syntax-ns#"
   xmlns:cc="http://creativecommons.org/ns#"
   xmlns:dc="http://purl.org/dc/elements/1.1/">
  <sodipodi:namedview
     id="namedview68"
     pagecolor="#ffffff"
     bordercolor="#666666"
     borderopacity="1.0"
     inkscape:pageshadow="2"
     inkscape:pageopacity="0.0"
     inkscape:pagecheckerboard="0"
     showgrid="false"
     inkscape:zoom="10.046809"
     inkscape:cx="28.267682"
     inkscape:cy="27.421642"
     inkscape:window-width="1317"
     inkscape:window-height="890"
     inkscape:window-x="501"
     inkscape:window-y="133"
     inkscape:window-maximized="0"
     inkscape:current-layer="svg6649"
     inkscape:showpageshadow="2"
     inkscape:deskcolor="#d1d1d1" />
  <defs
     id="defs6651">
    <linearGradient
       xlink:href="#linearGradient121303"
       id="linearGradient121764"
       gradientUnits="userSpaceOnUse"
       gradientTransform="matrix(1.0059184,0,0,0.85710999,-0.12782287,8.1064751)"
       x1="25.086039"
       y1="-1.3623691"
       x2="25.086039"
       y2="18.299334" />
    <linearGradient
       id="linearGradient121303">
      <stop
         id="stop121295"
         style="stop-color:#ffffff;stop-opacity:1"
         offset="0" />
      <stop
         id="stop121297"
         style="stop-color:#ffffff;stop-opacity:0.23529412"
         offset="0.11419468" />
      <stop
         id="stop121299"
         style="stop-color:#ffffff;stop-opacity:0.15686275"
         offset="0.93896598" />
      <stop
         id="stop121301"
         style="stop-color:#ffffff;stop-opacity:0.39215687"
         offset="1" />
    </linearGradient>
    <linearGradient
       xlink:href="#linearGradient3924-2-2-5-8"
       id="linearGradient121760"
       gradientUnits="userSpaceOnUse"
       gradientTransform="matrix(1.0000003,0,0,0.83783813,-1.248146e-5,7.8918853)"
       x1="23.99999"
       y1="6.0445275"
       x2="23.99999"
       y2="41.763222" />
    <linearGradient
       id="linearGradient3924-2-2-5-8">
      <stop
         id="stop3926-9-4-9-6"
         style="stop-color:#ffffff;stop-opacity:1"
         offset="0" />
      <stop
         id="stop3928-9-8-6-5"
         style="stop-color:#ffffff;stop-opacity:0.23529412"
         offset="0.09302325" />
      <stop
         id="stop3930-3-5-1-7"
         style="stop-color:#ffffff;stop-opacity:0.15686275"
         offset="0.9069767" />
      <stop
         id="stop3932-8-0-4-8"
         style="stop-color:#ffffff;stop-opacity:0.39215687"
         offset="1" />
    </linearGradient>
    <linearGradient
       xlink:href="#d"
       id="linearGradient121758"
       gradientUnits="userSpaceOnUse"
       gradientTransform="matrix(1.2122903,0,0,1.1145514,-4.499903,-2.7612533)"
       x1="23.452"
       y1="30.555"
       x2="43.007"
       y2="45.933998" />
    <linearGradient
       id="d">
      <stop
         offset="0"
         stop-color="#fff"
         stop-opacity="0"
         id="stop65" />
      <stop
         offset="1"
         stop-color="#fff"
         stop-opacity="0"
         id="stop67" />
    </linearGradient>
    <linearGradient
       xlink:href="#linearGradient855"
       id="linearGradient121756"
       gradientUnits="userSpaceOnUse"
       gradientTransform="matrix(1.2196365,0,0,1.3203708,40.785915,-13.338744)"
       x1="-5.8870335"
       y1="19.341915"
       x2="-5.8870335"
       y2="43.375748" />
    <linearGradient
       xlink:href="#linearGradient855"
       id="linearGradient1703"
       gradientUnits="userSpaceOnUse"
       gradientTransform="matrix(1.2196365,0,0,1.3154165,40.800338,-12.983422)"
       x1="-5.8870335"
       y1="11.482978"
       x2="-5.8870335"
       y2="22.148865" />
    <radialGradient
       cx="5"
       cy="41.5"
       fx="5"
       fy="41.5"
       gradientTransform="matrix(1.0028871,0,0,1.6,-18.167138,-111.98289)"
       gradientUnits="userSpaceOnUse"
       xlink:href="#g"
       id="k-0-7-3-9-3"
       r="5" />
    <linearGradient
       id="g">
      <stop
         offset="0"
         id="stop13" />
      <stop
         offset="1"
         stop-opacity="0"
         id="stop15" />
    </linearGradient>
    <linearGradient
       xlink:href="#h"
       id="linearGradient121754"
       gradientUnits="userSpaceOnUse"
       gradientTransform="matrix(2.1304332,0,0,1.45455,-87.719018,-13.32711)"
       x1="17.554001"
       y1="46"
       x2="17.554001"
       y2="35" />
    <linearGradient
       id="h">
      <stop
         offset="0"
         stop-opacity="0"
         id="stop54" />
      <stop
         offset=".5"
         id="stop56" />
      <stop
         offset="1"
         stop-opacity="0"
         id="stop58" />
    </linearGradient>
    <radialGradient
       cx="5"
       cy="41.5"
       fx="5"
       fy="41.5"
       gradientTransform="matrix(1.0028871,0,0,1.6,57.139048,-111.98289)"
       gradientUnits="userSpaceOnUse"
       xlink:href="#g"
       id="i-6-9-7-8-9"
       r="5" />
    <linearGradient
       gradientUnits="userSpaceOnUse"
       xlink:href="#c-3"
       id="n"
       x1="26"
       x2="26"
       y1="22"
       y2="8"
       gradientTransform="translate(0,-3)" />
    <linearGradient
       id="c-3">
      <stop
         offset="0"
         stop-color="#fff"
         id="stop36-6" />
      <stop
         offset="0.42818305"
         stop-color="#fff"
         id="stop38-7" />
      <stop
         offset="0.50093317"
         stop-color="#fff"
         stop-opacity=".643"
         id="stop40-5" />
      <stop
         offset="1"
         stop-color="#fff"
         stop-opacity=".391"
         id="stop42-3" />
    </linearGradient>
    <linearGradient
       id="linearGradient855">
      <stop
         id="stop851"
         offset="0"
         style="stop-color:#fafafa;stop-opacity:1" />
      <stop
         id="stop853"
         offset="1"
         style="stop-color:#d4d4d4;stop-opacity:1" />
    </linearGradient>
  </defs>
  <metadata
     id="metadata6654">
    <rdf:RDF>
      <cc:Work
         rdf:about="">
        <dc:format>image/svg+xml</dc:format>
        <dc:type
           rdf:resource="http://purl.org/dc/dcmitype/StillImage" />
      </cc:Work>
    </rdf:RDF>
  </metadata>
  <g
     id="g1210"
     transform="matrix(0.71186438,0,0,0.75,50.804562,6.8128328)"
     style="stroke-width:1.36858">
    <rect
       fill="url(#i)"
       height="16"
       opacity="0.4"
       transform="scale(-1)"
       width="5"
       x="62.15403"
       y="-53.58289"
       id="rect77-9-90-2-7-8"
       style="fill:url(#i-6-9-7-8-9);stroke-width:1.36858" />
    <rect
       fill="url(#j)"
       height="16"
       opacity="0.4"
       width="49"
       x="-62.15403"
       y="37.58289"
       id="rect79-7-2-0-1-4"
       style="fill:url(#linearGradient121754);stroke-width:1.36858" />
    <rect
       fill="url(#k)"
       height="16"
       opacity="0.4"
       transform="scale(1,-1)"
       width="5"
       x="-13.154028"
       y="-53.58289"
       id="rect81-3-8-6-7-8"
       style="fill:url(#k-0-7-3-9-3);stroke-width:1.36858" />
  </g>
  <path
     id="rect5505-21-1-5-0-6-5-1-2-5-10"
     style="color:#000000;font-variation-settings:normal;display:inline;overflow:visible;visibility:visible;vector-effect:none;fill:url(#linearGradient1703);fill-opacity:1.0;fill-rule:nonzero;stroke:none;stroke-width:0.999999;stroke-linecap:butt;stroke-linejoin:miter;stroke-miterlimit:4;stroke-dasharray:none;stroke-dashoffset:0;stroke-opacity:0.3;-inkscape-stroke:none;marker:none;enable-background:accumulate;stop-color:#000000"
     d="M 11.590923,5.5 C 9.233905,5.5 8.29365,6.8965183 7.336378,9.0580252 6.602625,10.710457 5.7489,12.420162 5.070613,14.03926 4.709869,14.666994 4.500014,15.394506 4.500014,16.174075 h 39.000003 c 0,-0.779569 -0.209855,-1.507081 -0.570598,-2.134815 C 42.232744,12.428361 41.41792,10.701192 40.663653,9.0580252 39.677379,6.9096877 38.766126,5.5 36.409108,5.5 Z" />
  <path
     id="rect5505-21-1-5-0-6-5-1-2-3"
     style="color:#000000;font-variation-settings:normal;display:inline;overflow:visible;visibility:visible;vector-effect:none;fill:url(#linearGradient121756);fill-opacity:1.0;fill-rule:nonzero;stroke:none;stroke-width:0.999999;stroke-linecap:butt;stroke-linejoin:miter;stroke-miterlimit:4;stroke-dasharray:none;stroke-dashoffset:0;stroke-opacity:0.3;-inkscape-stroke:none;marker:none;enable-background:accumulate;stop-color:#000000"
     d="M 8.754545,12 C 6.981818,12 4.5,13.556457 4.5,17.357139 v 22.857126 c 0,0.180002 0.01454,0.356244 0.03602,0.530134 0.005,0.04032 0.01198,0.08001 0.01801,0.119976 0.02142,0.140443 0.0485,0.278843 0.0831,0.414342 0.0089,0.03497 0.01667,0.07002 0.02631,0.104631 0.09713,0.343837 0.233773,0.670898 0.407174,0.973772 5.1e-4,9.29e-4 7.09e-4,0.0018 0.0014,0.0028 0.73415,1.280259 2.103419,2.14007 3.682515,2.14007 h 30.490912 c 1.579096,0 2.948365,-0.859811 3.682565,-2.140066 3.96e-4,-9.29e-4 7.09e-4,-0.0019 0.0014,-0.0028 0.173401,-0.302874 0.31005,-0.629935 0.407175,-0.973772 0.0096,-0.03461 0.01752,-0.06966 0.02631,-0.104631 0.0346,-0.135499 0.06169,-0.273898 0.0831,-0.414341 0.0057,-0.03997 0.01312,-0.07965 0.01801,-0.119977 0.02149,-0.173894 0.03596,-0.350136 0.03596,-0.530138 V 17.714282 c 0,-2.675475 -1.063637,-5.714281 -4.254546,-5.714281 z" />
  <path
     d="m 10.644861,11.296505 h 26.144185 c 1.526673,0 2.471182,0.528011 3.110782,1.979685 l 2.201727,6.091339 v 21.95942 c 0,1.385495 -0.774327,2.08358 -2.300291,2.08358 H 7.90777 c -1.525964,0 -2.148546,-0.767822 -2.148546,-2.153317 V 19.366105 l 2.130819,-6.221562 c 0.425455,-1.124336 1.228855,-1.84875 2.754818,-1.84875 z"
     display="block"
     fill="none"
     opacity="0.505"
     overflow="visible"
     stroke="url(#m)"
     stroke-width="0.741998"
     style="stroke:url(#linearGradient121758);marker:none"
     id="path85-1-8-5-7-0" />
  <rect
     style="opacity:1;fill:none;stroke:url(#linearGradient121760);stroke-width:0.999984;stroke-linecap:round;stroke-linejoin:round;stroke-miterlimit:4;stroke-dasharray:none;stroke-dashoffset:0;stroke-opacity:1"
     id="rect6741-5-0-2-3-4-2-4"
     y="12.499992"
     x="5.4999943"
     ry="3.5"
     height="31.000017"
     width="37"
     rx="3.5" />
  <path
     id="rect5505-21-1-5-0-6-5-1-2-5-1-4"
     style="color:#000000;font-variation-settings:normal;display:inline;overflow:visible;visibility:visible;vector-effect:none;fill:none;fill-opacity:1;fill-rule:nonzero;stroke:#555761;stroke-width:1;stroke-linecap:round;stroke-linejoin:round;stroke-miterlimit:4;stroke-dasharray:none;stroke-dashoffset:0;stroke-opacity:1;-inkscape-stroke:none;marker:none;enable-background:accumulate;stop-color:#000000;opacity:0.5;stop-opacity:1"
     d="m 11.590923,5.4999995 c -2.357018,0 -3.297273,1.3915844 -4.254545,3.5454546 C 6.602625,10.692048 5.7489,12.395713 5.070613,14.009091 4.709869,14.634607 4.500014,15.359549 4.500014,16.136363 v 24.109092 c 0,2.357018 1.897527,4.254546 4.254545,4.254546 h 30.490913 c 2.357018,0 4.254545,-1.897528 4.254545,-4.254546 V 16.136363 c 0,-0.776814 -0.209855,-1.501756 -0.570598,-2.127272 C 42.232744,12.403883 41.41792,10.682816 40.663653,9.0454541 39.677379,6.9047068 38.766126,5.4999995 36.409108,5.4999995 Z" />
  <path
     id="rect5505-21-1-5-0-6-5-1-2-5-1-7-7"
     style="color:#000000;font-variation-settings:normal;display:inline;overflow:visible;visibility:visible;opacity:0.5;vector-effect:none;fill:none;fill-opacity:1;fill-rule:nonzero;stroke:url(#linearGradient121764);stroke-width:0.999991;stroke-linecap:round;stroke-linejoin:round;stroke-miterlimit:4;stroke-dasharray:none;stroke-dashoffset:0;stroke-opacity:1;-inkscape-stroke:none;marker:none;enable-background:accumulate;stop-color:#000000"
     d="M 41.559097,13.18 39.846261,9.6011007 C 39.368173,8.5596761 38.922829,7.7593749 38.404755,7.261163 37.886674,6.7629512 37.313172,6.4999945 36.28979,6.4999945 H 11.711218 c -1.02473,0 -1.608821,0.2626032 -2.1286804,0.7584158 C 9.0626805,7.7542228 8.620631,8.5487423 8.1588488,9.5914677 v 0.00141 L 6.5978603,13.256725" />
  <path
     d="m 22,5 h 4 V 19 C 25.606,19 25.213,18.229 24.819,18.229 24.416,18.229 24.013,19 23.609,19 23.285,19 22.96,18.325 22.636,18.325 22.424,18.325 22.212,19 22,19 Z"
     fill="url(#n)"
     opacity="0.3"
     overflow="visible"
     style="fill:url(#n);marker:none;opacity:0.6"
     id="path87" />
  <path
     d="m 20.356961,21.101461 c 0.571021,-0.08777 1.147493,-0.151909 1.724873,-0.182345 0.102574,-0.02444 0.208693,-0.01945 0.313494,-0.02319 0.819507,-0.02614 1.639924,-0.02496 2.458977,0.01195 1.478204,0.104528 2.949139,0.350108 4.375099,0.759543 l -0.006,0.008 c -0.209056,0.282738 -0.418748,0.565114 -0.623715,0.850851 -0.06142,0.01133 -0.115205,-0.02752 -0.169898,-0.04706 -1.082078,-0.446414 -2.233659,-0.705485 -3.392508,-0.845855 -1.906582,-0.195247 -3.858592,-0.03837 -5.687494,0.548307 -1.346463,0.435556 -2.647046,1.107062 -3.651443,2.12009 -0.711845,0.727744 -1.25788,1.668997 -1.332381,2.70065 -0.06901,0.491524 0.04869,0.982138 0.152818,1.459578 l -4.516379,0.79634 c -0.010916,-0.796794 0.197018,-1.585411 0.527865,-2.306342 0.658241,-1.403703 1.799828,-2.525302 3.071337,-3.383876 0.859938,-0.577381 1.789379,-1.048462 2.755163,-1.421874 1.2865,-0.502879 2.633873,-0.84631 4.000324,-1.044372 z"
     style="fill:#555761;fill-opacity:1;stroke-width:1.45979"
     sodipodi:nodetypes="cccccccccccccccccc"
     id="path9634" />
  <path
     d="m 28.602009,22.526059 c 0.205013,-0.285646 0.41466,-0.56784 0.623716,-0.850852 1.914759,0.560572 3.763648,1.446404 5.274105,2.765611 0.617357,0.55285 1.176112,1.178384 1.604945,1.890229 0.507877,0.837678 0.829956,1.797102 0.864481,2.779693 -1.501825,-0.262478 -3.002742,-0.526956 -4.504567,-0.790433 0.184798,-0.587829 0.186388,-1.227445 0.05983,-1.827539 -0.234538,-1.03665 -0.899003,-1.92657 -1.700794,-2.602074 -0.668235,-0.562389 -1.430504,-1.013027 -2.238201,-1.34283 z"
     style="fill:#ed5353;fill-opacity:1;stroke-width:1.45979"
     id="path9636" />
  <path
     d="m 23.064426,26.664483 c 0.0884,-0.143959 0.244035,-0.258753 0.421065,-0.237448 0.200108,0.0051 0.354287,0.170443 0.395718,0.357603 L 38,29.295857 37.95284,29.532351 23.838591,27.057475 c -0.112569,0.195882 -0.373775,0.297048 -0.578744,0.18139 -0.142232,-0.06219 -0.190794,-0.214417 -0.254982,-0.342113 l -0.869025,-0.139234 0.03984,-0.244444 z"
     sodipodi:nodetypes="ccccccccccc"
     id="path9638"
     style="fill:#666666;fill-opacity:1;stroke-width:1.45979" />
  <path
     d="m 16.450217,33.519456 0.0079,-3.513798 1.494557,0.0028 c 1.575418,0.003 1.92975,0.02558 2.628421,0.16799 1.713062,0.349063 2.850106,1.170206 3.073155,2.219121 0.226182,1.063453 -0.615994,2.034687 -2.318608,2.674757 -0.612359,0.230181 -1.443224,0.410708 -2.103737,0.457452 l -0.283057,0.01993 -0.0085,0.564661 -0.0085,0.56466 -0.100485,0.01797 c -0.05529,0.0099 -0.569658,0.08195 -1.143405,0.160177 -0.573746,0.07822 -1.088437,0.150227 -1.144312,0.160085 l -0.101303,0.01789 z m 2.726089,1.35555 c 0.08036,-0.01888 0.286192,-0.101485 0.457453,-0.183572 0.644158,-0.308678 1.114331,-0.747278 1.36736,-1.276052 0.195746,-0.408436 0.210284,-0.791796 0.04665,-1.229261 -0.187387,-0.501063 -0.722747,-1.045736 -1.326022,-1.350098 -0.198698,-0.100213 -0.594188,-0.222957 -0.717751,-0.222957 h -0.07068 v 2.148255 c 0,1.923844 0.0051,2.148255 0.04847,2.148255 0.02666,0 0.114205,-0.01546 0.194565,-0.03434 z M 10,32.74583 v -2.755163 h 2.490776 v 0.06614 c 0,0.05815 0.01224,0.06364 0.101167,0.04534 0.584649,-0.120246 1.465938,-0.174577 1.843893,-0.113568 0.131239,0.02117 0.333935,0.07091 0.450456,0.110524 0.246716,0.08391 0.685498,0.273609 0.685044,0.296277 -1.37e-4,0.0086 -0.115431,0.08449 -0.256256,0.168717 -0.140824,0.08422 -0.441326,0.27061 -0.66778,0.41416 l -0.411753,0.26098 -0.116566,-0.07923 c -0.234541,-0.159359 -0.485617,-0.219823 -0.91218,-0.219823 -0.225182,0 -0.457907,0.0177 -0.552395,0.04202 l -0.163448,0.04202 v 4.476856 h -2.490776 z m 15.318072,-0.002 v -2.757423 l 4.878888,0.0136 c 4.951571,0.01381 5.101482,0.0173 5.73292,0.133012 0.472898,0.08668 0.750913,0.191657 0.899005,0.339751 l 0.13233,0.13224 v 4.897058 h -2.490776 v -4.819832 l -0.13233,-0.05688 c -0.115794,-0.04979 -0.24608,-0.05829 -1.04301,-0.0681 l -0.910816,-0.01122 V 35.50215 H 29.89396 l -0.01595,-4.83346 -0.124516,-0.04792 c -0.0989,-0.03807 -0.312131,-0.05042 -1.035287,-0.0601 L 27.80739,30.54853 v 4.956114 h -2.490776 z"
     style="fill:#555761;fill-opacity:1;stroke-width:1.00039"
     id="path9640" />
</svg>
