<?xml version="1.0" encoding="UTF-8" standalone="no"?>
<svg
   version="1.0"
   width="48"
   height="48"
   id="svg2453"
   sodipodi:docname="image-bmp.svg"
   inkscape:version="1.1.1 (3bf5ae0d25, 2021-09-20)"
   xmlns:inkscape="http://www.inkscape.org/namespaces/inkscape"
   xmlns:sodipodi="http://sodipodi.sourceforge.net/DTD/sodipodi-0.dtd"
   xmlns:xlink="http://www.w3.org/1999/xlink"
   xmlns="http://www.w3.org/2000/svg"
   xmlns:svg="http://www.w3.org/2000/svg"
   xmlns:rdf="http://www.w3.org/1999/02/22-rdf-syntax-ns#"
   xmlns:cc="http://creativecommons.org/ns#"
   xmlns:dc="http://purl.org/dc/elements/1.1/">
  <sodipodi:namedview
     id="namedview48"
     pagecolor="#ffffff"
     bordercolor="#666666"
     borderopacity="1.0"
     inkscape:pageshadow="2"
     inkscape:pageopacity="0.0"
     inkscape:pagecheckerboard="0"
     showgrid="false"
     inkscape:zoom="7.1041667"
     inkscape:cx="-5.9824047"
     inkscape:cy="23.085044"
     inkscape:window-width="1317"
     inkscape:window-height="890"
     inkscape:window-x="601"
     inkscape:window-y="36"
     inkscape:window-maximized="0"
     inkscape:current-layer="svg2453" />
  <metadata
     id="metadata35">
    <rdf:RDF>
      <cc:Work
         rdf:about="">
        <dc:format>image/svg+xml</dc:format>
        <dc:type
           rdf:resource="http://purl.org/dc/dcmitype/StillImage" />
      </cc:Work>
    </rdf:RDF>
  </metadata>
  <defs
     id="defs2455">
    <radialGradient
       cx="605.71429"
       cy="486.64789"
       r="117.14286"
       fx="605.71429"
       fy="486.64789"
       id="radialGradient19613"
       xlink:href="#linearGradient5060"
       gradientUnits="userSpaceOnUse"
       gradientTransform="matrix(0.02891661,0,0,0.01235294,26.973101,38.470848)" />
    <linearGradient
       id="linearGradient5060">
      <stop
         id="stop5062"
         style="stop-color:#000000;stop-opacity:1"
         offset="0" />
      <stop
         id="stop5064"
         style="stop-color:#000000;stop-opacity:0"
         offset="1" />
    </linearGradient>
    <radialGradient
       cx="605.71429"
       cy="486.64789"
       r="117.14286"
       fx="605.71429"
       fy="486.64789"
       id="radialGradient19616"
       xlink:href="#linearGradient5060"
       gradientUnits="userSpaceOnUse"
       gradientTransform="matrix(-0.0289166,0,0,0.01235294,21.026894,38.470848)" />
    <linearGradient
       id="linearGradient5048">
      <stop
         id="stop5050"
         style="stop-color:#000000;stop-opacity:0"
         offset="0" />
      <stop
         id="stop5056"
         style="stop-color:#000000;stop-opacity:1"
         offset="0.5" />
      <stop
         id="stop5052"
         style="stop-color:#000000;stop-opacity:0"
         offset="1" />
    </linearGradient>
    <linearGradient
       x1="302.85715"
       y1="366.64789"
       x2="302.85715"
       y2="609.50507"
       id="linearGradient19619"
       xlink:href="#linearGradient5048"
       gradientUnits="userSpaceOnUse"
       gradientTransform="matrix(0.08449704,0,0,0.01235294,-6.5396456,38.470822)" />
    <linearGradient
       id="linearGradient3600">
      <stop
         id="stop3602"
         style="stop-color:#f4f4f4;stop-opacity:1"
         offset="0" />
      <stop
         id="stop3604"
         style="stop-color:#dbdbdb;stop-opacity:1"
         offset="1" />
    </linearGradient>
    <linearGradient
       id="linearGradient3977">
      <stop
         id="stop3979"
         style="stop-color:#ffffff;stop-opacity:1"
         offset="0" />
      <stop
         id="stop3981"
         style="stop-color:#ffffff;stop-opacity:0.23529412"
         offset="0.03626217" />
      <stop
         id="stop3983"
         style="stop-color:#ffffff;stop-opacity:0.15686275"
         offset="0.95056331" />
      <stop
         id="stop3985"
         style="stop-color:#ffffff;stop-opacity:0.39215687"
         offset="1" />
    </linearGradient>
    <linearGradient
       x1="23.99999"
       y1="5.5641499"
       x2="23.99999"
       y2="43"
       id="linearGradient3138"
       xlink:href="#linearGradient3977"
       gradientUnits="userSpaceOnUse"
       gradientTransform="matrix(1.1621622,0,0,0.91891889,-3.8918883,4.4459543)" />
    <linearGradient
       x1="25.132275"
       y1="0.98520643"
       x2="25.132275"
       y2="47.013336"
       id="linearGradient3141"
       xlink:href="#linearGradient3600"
       gradientUnits="userSpaceOnUse"
       gradientTransform="matrix(1.2571399,0,0,0.76049252,-6.1713598,7.0815133)" />
    <linearGradient
       id="linearGradient4785-3">
      <stop
         id="stop4787-5"
         style="stop-color:#262626;stop-opacity:1"
         offset="0" />
      <stop
         id="stop4789-1"
         style="stop-color:#4d4d4d;stop-opacity:1"
         offset="1" />
    </linearGradient>
    <linearGradient
       id="linearGradient3610-302-9-7">
      <stop
         id="stop3796-3-8"
         style="stop-color:#1d1d1d;stop-opacity:1"
         offset="0" />
      <stop
         id="stop3798-1-9"
         style="stop-color:#000000;stop-opacity:1"
         offset="1" />
    </linearGradient>
    <linearGradient
       id="linearGradient3104-6">
      <stop
         offset="0"
         style="stop-color:#000000;stop-opacity:0.31782946"
         id="stop3106-3" />
      <stop
         offset="1"
         style="stop-color:#000000;stop-opacity:0.24031007"
         id="stop3108-9" />
    </linearGradient>
    <linearGradient
       xlink:href="#linearGradient3104-6"
       id="linearGradient3144"
       gradientUnits="userSpaceOnUse"
       gradientTransform="matrix(1.0382097,0,0,0.73204138,69.527413,5.6548677)"
       x1="-51.786404"
       y1="50.786446"
       x2="-51.786404"
       y2="2.9062471" />
    <linearGradient
       xlink:href="#linearGradient4785-3"
       id="linearGradient4002"
       gradientUnits="userSpaceOnUse"
       gradientTransform="matrix(-0.48995989,6.9868352e-4,0.00181362,-0.38149037,57.128707,48.266601)"
       x1="45.414135"
       y1="15.270427"
       x2="45.567307"
       y2="96.25267" />
    <linearGradient
       xlink:href="#linearGradient3610-302-9-7"
       id="linearGradient4004"
       gradientUnits="userSpaceOnUse"
       gradientTransform="matrix(-1.1122886,0.00158613,0.00529831,-1.1144864,-2.6249379,-3.6540545)"
       x1="-24.032034"
       y1="-13.090545"
       x2="-24.097931"
       y2="-40.163883" />
    <linearGradient
       id="linearGradient3211">
      <stop
         id="stop3213"
         style="stop-color:#ffffff;stop-opacity:1"
         offset="0" />
      <stop
         id="stop3215"
         style="stop-color:#ffffff;stop-opacity:0"
         offset="1" />
    </linearGradient>
    <linearGradient
       x1="19.857143"
       y1="33.986282"
       x2="19.857143"
       y2="38.430866"
       id="linearGradient20332"
       xlink:href="#linearGradient3211"
       gradientUnits="userSpaceOnUse"
       gradientTransform="matrix(1,0,0,0.99796725,-2.6216198e-7,-0.92404229)" />
  </defs>
  <g
     id="g3257"
     style="opacity:0.4">
    <rect
       width="40.799999"
       height="2.9999998"
       x="3.5999999"
       y="43"
       id="rect2879"
       style="fill:url(#linearGradient19619);fill-opacity:1;fill-rule:nonzero;stroke:none;stroke-width:1;marker:none;visibility:visible;display:inline;overflow:visible" />
    <path
       d="m 3.6,43.00013 c 0,0 0,2.999835 0,2.999835 C 2.1108662,46.005612 0,45.327854 0,44.499854 0,43.671856 1.6617608,43.000131 3.6,43.00013 z"
       id="path2881"
       style="fill:url(#radialGradient19616);fill-opacity:1;fill-rule:nonzero;stroke:none;stroke-width:1;marker:none;visibility:visible;display:inline;overflow:visible" />
    <path
       d="m 44.4,43.00013 c 0,0 0,2.999835 0,2.999835 1.489133,0.0056 3.6,-0.672111 3.6,-1.500111 0,-0.827998 -1.661761,-1.499723 -3.6,-1.499724 z"
       id="path2883"
       style="fill:url(#radialGradient19613);fill-opacity:1;fill-rule:nonzero;stroke:none;stroke-width:1;marker:none;visibility:visible;display:inline;overflow:visible" />
  </g>
  <path
     d="m 2,9.0000015 c 10.082633,0 43.999947,0.00223 43.999947,0.00223 L 46,44 C 46,44 16.666668,44 2,44 2,32.333334 2,20.666667 2,9 z"
     id="path4160"
     style="fill:url(#linearGradient3141);fill-opacity:1;stroke:none;display:inline" />
  <path
     d="m 45.499997,43.499999 -43.0000003,0 0,-34.0000001 43.0000003,0 z"
     id="rect6741-1"
     style="fill:none;stroke:url(#linearGradient3138);stroke-width:1;stroke-linecap:round;stroke-linejoin:round;stroke-miterlimit:4;stroke-opacity:1;stroke-dasharray:none;stroke-dashoffset:0" />
  <path
     style="fill:url(#linearGradient4002);fill-opacity:1;stroke:url(#linearGradient4004);stroke-width:1.0000006;stroke-linecap:round;stroke-linejoin:miter;stroke-miterlimit:4;stroke-opacity:1;stroke-dasharray:none"
     d="m 43.5,41.5 -39.0000023,0 2.3e-6,-30 38.999997,3e-6 z"
     id="rect3582-50-4" />
  <path
     d="m 1.4999552,8.4999357 c 10.3117928,0 45.0000318,0.0025 45.0000318,0.0025 l 4.7e-5,35.9976273 c 0,0 -30.000052,0 -45.0000788,0 0,-12.000058 0,-23.999996 0,-35.9999143 z"
     id="path4160-6-1"
     style="fill:none;stroke:url(#linearGradient3144);stroke-width:0.9999218;stroke-linecap:butt;stroke-linejoin:round;stroke-miterlimit:4;stroke-opacity:1;stroke-dasharray:none;stroke-dashoffset:0;display:inline" />
  <path
     d="m 8.0338912,21.007979 c 0,3.77255 0,7.542346 0,11.314896 -0.135442,0.567001 0.144842,0.728916 0.666248,0.621697 1.4768298,-0.07316 3.0234138,0.211994 4.4214638,-0.404103 1.785422,-0.772908 2.484811,-3.298248 1.271927,-4.880325 -0.193265,-0.780394 -2.169728,-1.017971 -1.483916,-1.46099 1.645717,-1.072683 1.474134,-3.884306 -0.272555,-4.755987 -1.445847,-0.663615 -3.0675628,-0.364449 -4.6031678,-0.435188 z m 1.150792,1.150141 c 0.797769,0.02271 1.6083668,-0.06405 2.3924358,0.124339 1.156753,0.186427 1.623547,1.659372 1.029655,2.61113 -0.692985,1.231956 -2.225008,1.078074 -3.4220908,1.087971 0,-1.273994 0,-2.549447 0,-3.82344 z m 0,5.035751 c 1.1106378,0.02781 2.2879448,-0.09461 3.3312398,0.373018 1.362863,0.531905 1.717071,2.532948 0.60568,3.512591 -1.085709,0.971671 -2.610284,0.612322 -3.9369198,0.683867 0,-1.525547 0,-3.04393 0,-4.569476 z m 7.8153158,5.799285 c 0.546241,-3.987306 1.092481,-7.974612 1.638722,-11.961919 0.406531,0.01771 0.421603,0.689658 0.660184,0.988061 1.405592,2.942352 2.811184,5.884703 4.216776,8.827055 1.547245,-3.271705 3.094492,-6.54341 4.641737,-9.815116 0.400774,0.01957 0.197517,0.761865 0.339139,1.091509 0.501147,3.62347 1.002295,7.24694 1.503442,10.87041 -0.358663,-0.05047 -0.884639,0.09795 -1.145924,-0.06828 -0.373353,-2.8288 -0.746706,-5.657602 -1.120059,-8.486402 -1.359067,2.851561 -2.718134,5.703123 -4.077201,8.554683 -0.478183,0.119473 -0.470427,-0.574444 -0.704269,-0.863959 -1.239309,-2.585259 -2.478618,-5.170519 -3.717926,-7.755778 -0.373744,2.873245 -0.747488,5.746491 -1.121231,8.619737 -0.37113,0 -0.74226,0 -1.11339,-10e-7 z m 16,-11.952479 c 0,3.960042 0,7.926694 0,11.886734 0.239599,0.165603 0.76081,0.0128 1.109404,0.06223 0,-1.507834 0,-3.03526 0,-4.543097 0.100493,-0.314883 -0.213664,-1.081543 0.233559,-1.026864 1.592538,-0.07439 3.38976,0.259888 4.729565,-0.871279 1.5929,-1.440832 1.057752,-4.664392 -1.02182,-5.258791 -1.654622,-0.406252 -3.365138,-0.198517 -5.050708,-0.248936 z m 1.109404,1.151333 c 1.156365,0.03619 2.338079,-0.11179 3.474187,0.155586 1.46617,0.418982 1.706928,2.828098 0.379534,3.578467 -1.201803,0.568984 -2.576665,0.292759 -3.853721,0.342288 0,-1.353837 0,-2.722503 0,-4.076341 z"
     id="path20306"
     style="font-style:normal;font-variant:normal;font-weight:normal;font-stretch:normal;font-size:16.707px;font-family:'Century Gothic';-inkscape-font-specification:'Century Gothic';fill:#ffffff;fill-opacity:1;stroke:none;stroke-width:1" />
  <path
     d="m 8.0338912,44.992022 c 0,-3.77255 0,-7.542346 0,-11.314896 -0.135442,-0.567001 0.144842,-0.728916 0.666248,-0.621698 1.4768298,0.07316 3.0234138,-0.211994 4.4214638,0.404103 1.785422,0.772909 2.484811,3.298249 1.271927,4.880326 -0.193265,0.780394 -2.169728,1.017971 -1.483916,1.46099 1.645717,1.072683 1.474133,3.884306 -0.272556,4.755986 -1.445847,0.663616 -3.0675618,0.36445 -4.6031668,0.435189 z m 1.150792,-1.150141 c 0.797769,-0.02271 1.6083668,0.06405 2.3924358,-0.124339 1.156753,-0.186427 1.623547,-1.659372 1.029655,-2.611131 -0.692985,-1.231955 -2.225008,-1.078074 -3.4220908,-1.08797 0,1.273994 0,2.549447 0,3.82344 z m 0,-5.035751 c 1.1106378,-0.02781 2.2879448,0.09461 3.3312398,-0.373018 1.362863,-0.531905 1.717071,-2.532948 0.60568,-3.512592 -1.085709,-0.97167 -2.610284,-0.612321 -3.9369198,-0.683867 0,1.525548 0,3.04393 0,4.569477 z m 7.8153158,-5.799286 c 0.546241,3.987307 1.092481,7.974613 1.638722,11.961919 0.406531,-0.01771 0.421603,-0.689657 0.660184,-0.98806 1.405592,-2.942352 2.811184,-5.884704 4.216776,-8.827055 1.547245,3.271704 3.094492,6.543409 4.641737,9.815115 0.400774,-0.01957 0.197517,-0.761864 0.339139,-1.091508 0.501147,-3.62347 1.002295,-7.24694 1.503442,-10.870411 -0.358663,0.05048 -0.884639,-0.09795 -1.145924,0.06828 -0.373353,2.8288 -0.746706,5.657602 -1.120059,8.486402 -1.359067,-2.85156 -2.718134,-5.703122 -4.077201,-8.554683 -0.478183,-0.119472 -0.470427,0.574444 -0.704269,0.86396 -1.239309,2.585259 -2.478618,5.170519 -3.717926,7.755778 -0.373744,-2.873246 -0.747488,-5.746491 -1.121231,-8.619738 -0.37113,0 -0.74226,0 -1.11339,10e-7 z m 16,11.95248 c 0,-3.960042 0,-7.926695 0,-11.886735 0.239599,-0.165602 0.76081,-0.0128 1.109404,-0.06223 0,1.507835 0,3.035261 0,4.543097 0.100493,0.314884 -0.213664,1.081543 0.233559,1.026865 1.592538,0.07439 3.38976,-0.259889 4.729565,0.871279 1.5929,1.440831 1.057752,4.664391 -1.02182,5.258791 -1.654622,0.406252 -3.365138,0.198516 -5.050708,0.248936 z m 1.109404,-1.151333 c 1.156365,-0.03619 2.338079,0.11179 3.474187,-0.155586 1.46617,-0.418982 1.706928,-2.828098 0.379534,-3.578467 -1.201803,-0.568985 -2.576665,-0.292759 -3.853721,-0.342288 0,1.353837 0,2.722502 0,4.076341 z"
     id="path20311"
     style="font-style:normal;font-variant:normal;font-weight:normal;font-stretch:normal;font-size:16.707px;font-family:'Century Gothic';-inkscape-font-specification:'Century Gothic';opacity:0.3;fill:url(#linearGradient20332);fill-opacity:1;stroke:none;stroke-width:1" />
</svg>
