<?xml version="1.0" encoding="UTF-8" standalone="no"?>
<svg
   id="svg3901"
   height="48"
   width="48"
   version="1.1"
   sodipodi:docname="text-x-scala.svg"
   inkscape:version="1.2.2 (b0a8486541, 2022-12-01)"
   xmlns:inkscape="http://www.inkscape.org/namespaces/inkscape"
   xmlns:sodipodi="http://sodipodi.sourceforge.net/DTD/sodipodi-0.dtd"
   xmlns:xlink="http://www.w3.org/1999/xlink"
   xmlns="http://www.w3.org/2000/svg"
   xmlns:svg="http://www.w3.org/2000/svg"
   xmlns:rdf="http://www.w3.org/1999/02/22-rdf-syntax-ns#"
   xmlns:cc="http://creativecommons.org/ns#"
   xmlns:dc="http://purl.org/dc/elements/1.1/">
  <sodipodi:namedview
     pagecolor="#ffffff"
     bordercolor="#666666"
     borderopacity="1"
     objecttolerance="10"
     gridtolerance="10"
     guidetolerance="10"
     inkscape:pageopacity="0"
     inkscape:pageshadow="2"
     inkscape:window-width="1317"
     inkscape:window-height="890"
     id="namedview42"
     showgrid="false"
     inkscape:zoom="5.8409965"
     inkscape:cx="-2.3968513"
     inkscape:cy="22.342078"
     inkscape:window-x="920"
     inkscape:window-y="69"
     inkscape:window-maximized="0"
     inkscape:current-layer="svg3901"
     inkscape:pagecheckerboard="0"
     inkscape:showpageshadow="2"
     inkscape:deskcolor="#d1d1d1" />
  <defs
     id="defs3903">
    <linearGradient
       id="linearGradient3490">
      <stop
         id="stop3492"
         style="stop-color:#ffffff;stop-opacity:1"
         offset="0" />
      <stop
         id="stop3494"
         style="stop-color:#ffffff;stop-opacity:0.23529412"
         offset="0" />
      <stop
         id="stop3496"
         style="stop-color:#ffffff;stop-opacity:0.15686275"
         offset="1" />
      <stop
         id="stop3498"
         style="stop-color:#ffffff;stop-opacity:0.39215687"
         offset="1" />
    </linearGradient>
    <linearGradient
       id="linearGradient3600">
      <stop
         offset="0"
         style="stop-color:#f4f4f4;stop-opacity:1"
         id="stop3602" />
      <stop
         offset="1"
         style="stop-color:#dbdbdb;stop-opacity:1"
         id="stop3604" />
    </linearGradient>
    <linearGradient
       id="linearGradient5060">
      <stop
         offset="0"
         style="stop-color:#000000;stop-opacity:1"
         id="stop5062" />
      <stop
         offset="1"
         style="stop-color:#000000;stop-opacity:0"
         id="stop5064" />
    </linearGradient>
    <linearGradient
       id="linearGradient5048">
      <stop
         offset="0"
         style="stop-color:#000000;stop-opacity:0"
         id="stop5050" />
      <stop
         offset="0.5"
         style="stop-color:#000000;stop-opacity:1"
         id="stop5056" />
      <stop
         offset="1"
         style="stop-color:#000000;stop-opacity:0"
         id="stop5052" />
    </linearGradient>
    <linearGradient
       id="linearGradient3104-6">
      <stop
         id="stop3106-3"
         style="stop-color:#000000;stop-opacity:0.31782946"
         offset="0" />
      <stop
         id="stop3108-9"
         style="stop-color:#000000;stop-opacity:0.24031007"
         offset="1" />
    </linearGradient>
    <linearGradient
       y2="42.110645"
       x2="23.99999"
       y1="5.9404659"
       x1="23.99999"
       gradientTransform="matrix(0.89189189,0,0,1.1351351,2.5945999,-4.7432314)"
       gradientUnits="userSpaceOnUse"
       id="linearGradient3106"
       xlink:href="#linearGradient3490" />
    <linearGradient
       y2="47.013336"
       x2="25.132275"
       y1="0.98520643"
       x1="25.132275"
       gradientTransform="matrix(0.97142632,0,0,0.93431938,0.68576678,-1.3569996)"
       gradientUnits="userSpaceOnUse"
       id="linearGradient3109"
       xlink:href="#linearGradient3600" />
    <radialGradient
       r="117.14286"
       fy="486.64789"
       fx="605.71429"
       cy="486.64789"
       cx="605.71429"
       gradientTransform="matrix(0.02303995,0,0,0.01470022,26.360882,37.040176)"
       gradientUnits="userSpaceOnUse"
       id="radialGradient3112"
       xlink:href="#linearGradient5060" />
    <radialGradient
       r="117.14286"
       fy="486.64789"
       fx="605.71429"
       cy="486.64789"
       cx="605.71429"
       gradientTransform="matrix(-0.02303994,0,0,0.01470022,21.62311,37.040176)"
       gradientUnits="userSpaceOnUse"
       id="radialGradient3115"
       xlink:href="#linearGradient5060" />
    <linearGradient
       y2="609.50507"
       x2="302.85715"
       y1="366.64789"
       x1="302.85715"
       gradientTransform="matrix(0.06732488,0,0,0.01470022,-0.3411391,37.040146)"
       gradientUnits="userSpaceOnUse"
       id="linearGradient3118"
       xlink:href="#linearGradient5048" />
    <linearGradient
       y2="2.9062471"
       x2="-51.786404"
       y1="50.786446"
       x1="-51.786404"
       gradientTransform="matrix(0.80749686,0,0,0.89471714,59.410232,-2.9773433)"
       gradientUnits="userSpaceOnUse"
       id="linearGradient3170"
       xlink:href="#linearGradient3104-6" />
    <linearGradient
       inkscape:collect="always"
       xlink:href="#linearGradient1648"
       id="linearGradient1650"
       x1="58.119049"
       y1="2.5000019"
       x2="58.119049"
       y2="119.00001"
       gradientUnits="userSpaceOnUse" />
    <linearGradient
       inkscape:collect="always"
       id="linearGradient1648">
      <stop
         style="stop-color:#ed5353;stop-opacity:1"
         offset="0"
         id="stop1644" />
      <stop
         style="stop-color:#c6262e;stop-opacity:1"
         offset="1"
         id="stop1646" />
    </linearGradient>
    <linearGradient
       inkscape:collect="always"
       xlink:href="#linearGradient1648"
       id="linearGradient8370"
       gradientUnits="userSpaceOnUse"
       x1="58.119049"
       y1="2.5000019"
       x2="58.119049"
       y2="119.00001" />
    <linearGradient
       inkscape:collect="always"
       xlink:href="#linearGradient1648"
       id="linearGradient8372"
       gradientUnits="userSpaceOnUse"
       x1="58.119049"
       y1="2.5000019"
       x2="58.119049"
       y2="119.00001" />
    <linearGradient
       inkscape:collect="always"
       xlink:href="#linearGradient1648"
       id="linearGradient8374"
       gradientUnits="userSpaceOnUse"
       x1="58.119049"
       y1="2.5000019"
       x2="58.119049"
       y2="119.00001" />
  </defs>
  <metadata
     id="metadata3906">
    <rdf:RDF>
      <cc:Work
         rdf:about="">
        <dc:format>image/svg+xml</dc:format>
        <dc:type
           rdf:resource="http://purl.org/dc/dcmitype/StillImage" />
      </cc:Work>
    </rdf:RDF>
  </metadata>
  <rect
     width="32.508301"
     height="3.5700529"
     x="7.7378473"
     y="42.429947"
     id="rect2879"
     style="opacity:0.3;fill:url(#linearGradient3118);fill-opacity:1;fill-rule:nonzero;stroke:none;stroke-width:1;marker:none;visibility:visible;display:inline;overflow:visible" />
  <path
     d="m 7.7378475,42.430102 0,3.569856 C 6.5513473,46.006658 4.869468,45.200135 4.869468,44.2148 c 0,-0.985333 1.3240446,-1.784697 2.8683795,-1.784698 z"
     id="path2881"
     style="display:inline;overflow:visible;visibility:visible;opacity:0.3;fill:url(#radialGradient3115);fill-opacity:1;fill-rule:nonzero;stroke:none;stroke-width:1;marker:none" />
  <path
     d="m 40.246148,42.430102 0,3.569856 c 1.1865,0.0067 2.86838,-0.799823 2.86838,-1.785158 0,-0.985333 -1.324045,-1.784697 -2.86838,-1.784698 z"
     id="path2883"
     style="display:inline;overflow:visible;visibility:visible;opacity:0.3;fill:url(#radialGradient3112);fill-opacity:1;fill-rule:nonzero;stroke:none;stroke-width:1;marker:none" />
  <path
     d="m 7,1.0000001 c 7.791126,0 33.999959,0.00274 33.999959,0.00274 L 41,44 7,44 Z"
     id="path4160"
     style="display:inline;fill:url(#linearGradient3109);fill-opacity:1;stroke:none" />
  <path
     d="m 40.5,43.5 -33,0 0,-41.9999998 33,0 z"
     id="rect6741-1"
     style="fill:none;stroke:url(#linearGradient3106);stroke-width:1;stroke-linecap:round;stroke-linejoin:miter;stroke-miterlimit:4;stroke-dasharray:none;stroke-dashoffset:0;stroke-opacity:1" />
  <path
     d="m 6.4999605,0.4999623 c 8.0202885,0 35.0000415,0.00298 35.0000415,0.00298 l 3.7e-5,43.9970957 -35.0000785,0 0,-43.9998923 z"
     id="path4160-6-1"
     style="display:inline;fill:none;stroke:url(#linearGradient3170);stroke-width:0.99992192;stroke-linecap:butt;stroke-linejoin:round;stroke-miterlimit:4;stroke-dasharray:none;stroke-dashoffset:0;stroke-opacity:1" />
  <path
     d="m 15.026603,19.118014 c 0.248902,0.343081 2.347749,0.990225 5.478529,1.664278 3.13078,0.600055 6.386683,2.96933 8.918754,2.23877 1.712713,-0.495113 3.57073,-4.906728 3.57073,-5.561944 v -0.06727 c 0,-0.457441 -0.34308,-0.824739 -0.925645,-1.13015 -2.388111,-1.22029 -2.84017,-1.669658 -3.725453,-1.426139 -4.595937,1.268726 -12.710133,0.620237 -13.316915,4.282455 z"
     style="fill:#273445;fill-rule:evenodd;stroke-width:0.999998"
     id="path14" />
  <path
     d="m 15.026603,28.075786 c 0.248902,0.348462 2.347749,0.990225 5.478529,1.665623 3.498078,0.637727 6.540061,2.716391 9.073476,1.984486 1.712714,-0.495112 3.416008,-4.652444 3.416008,-5.309007 v -0.06458 c 0,-0.456095 -0.34308,-0.824739 -0.925645,-1.128803 -1.821691,-0.968698 -4.228638,-2.035611 -5.112576,-1.792092 -4.604009,1.266036 -10.757936,1.544536 -11.929792,4.644372 z"
     style="fill:#273445;fill-rule:evenodd;stroke-width:0.999998"
     id="path16" />
  <path
     d="m 15.00104,21.043303 v 0.06458 0 a 0.50183965,0.50183965 0 0 1 0,-0.06458 z"
     style="fill:#555555;fill-rule:evenodd;stroke-width:0.999998"
     id="path18" />
  <g
     id="g1036"
     style="fill:url(#linearGradient1650);fill-opacity:1;stroke-width:2.44444"
     transform="matrix(0.40909092,0,0,0.40909092,-2.1818189,-2.1363639)">
    <path
       d="m 77.620155,30.232675 c -10.346538,2.989511 -26.760896,4.67666 -35.604456,4.67666 v 0 16.887946 a 0.26310332,0.26310332 0 0 0 0.06249,0.157861 c 6.034933,0 24.665936,-1.973275 35.907024,-5.064739 a 42.425408,42.425408 0 0 0 5.752097,-1.910788 c 1.374713,-0.618292 2.262689,-1.269474 2.262689,-1.946965 V 26 c -0.01316,1.604931 -4.19321,3.025689 -8.379844,4.232675 z"
       style="fill:url(#linearGradient8370);fill-opacity:1;fill-rule:evenodd;stroke-width:2.44444"
       id="path20" />
    <path
       d="m 77.620155,52.132737 c -6.192794,1.785812 -14.549613,3.114485 -22.163165,3.890638 -5.110781,0.522919 -9.886107,0.795889 -13.441291,0.795889 v 0 16.874789 a 0.26310332,0.26310332 0 0 0 0.06249,0.157862 c 6.034933,0 24.665936,-1.973274 35.907024,-5.06145 a 42.879262,42.879262 0 0 0 5.752097,-1.910788 c 1.374713,-0.621583 2.262689,-1.269473 2.262689,-1.946965 v -17.03265 c -0.01316,1.601641 -4.19321,3.022399 -8.379844,4.232675 z"
       style="fill:url(#linearGradient8372);fill-opacity:1;fill-rule:evenodd;stroke-width:2.44444"
       id="path22" />
    <path
       d="m 77.620155,74.045955 c -6.192794,1.785811 -14.549613,3.111195 -22.163165,3.890638 -5.117359,0.522918 -9.899263,0.795888 -13.454447,0.795888 v 17.019498 c 5.972446,0 24.698826,-1.956837 35.969513,-5.061453 4.153743,-1.144502 8.014784,-2.44686 8.014784,-3.861044 V 69.796835 c 0,1.618085 -4.180054,3.025688 -8.366685,4.24912 z"
       style="fill:url(#linearGradient8374);fill-opacity:1;fill-rule:evenodd;stroke-width:2.44444"
       id="path24" />
  </g>
</svg>
