<?xml version="1.0" encoding="UTF-8" standalone="no"?>
<svg
   id="svg3901"
   height="48"
   width="48"
   version="1.1"
   sodipodi:docname="text-markdown.svg"
   inkscape:version="1.1.2 (0a00cf5339, 2022-02-04)"
   xmlns:inkscape="http://www.inkscape.org/namespaces/inkscape"
   xmlns:sodipodi="http://sodipodi.sourceforge.net/DTD/sodipodi-0.dtd"
   xmlns:xlink="http://www.w3.org/1999/xlink"
   xmlns="http://www.w3.org/2000/svg"
   xmlns:svg="http://www.w3.org/2000/svg"
   xmlns:rdf="http://www.w3.org/1999/02/22-rdf-syntax-ns#"
   xmlns:cc="http://creativecommons.org/ns#">
  <sodipodi:namedview
     id="namedview40"
     pagecolor="#ffffff"
     bordercolor="#666666"
     borderopacity="1.0"
     inkscape:pageshadow="2"
     inkscape:pageopacity="0.0"
     inkscape:pagecheckerboard="0"
     showgrid="false"
     inkscape:zoom="28.416667"
     inkscape:cx="24.228739"
     inkscape:cy="24.316716"
     inkscape:window-width="1360"
     inkscape:window-height="893"
     inkscape:window-x="378"
     inkscape:window-y="456"
     inkscape:window-maximized="0"
     inkscape:current-layer="svg3901" />
  <defs
     id="defs3903">
    <linearGradient
       id="linearGradient3029">
      <stop
         offset="0"
         style="stop-color:#ffffff;stop-opacity:1"
         id="stop3031" />
      <stop
         offset="0.01487851"
         style="stop-color:#ffffff;stop-opacity:0.23529412"
         id="stop3033" />
      <stop
         offset="0.98463625"
         style="stop-color:#ffffff;stop-opacity:0.15686275"
         id="stop3035" />
      <stop
         offset="1"
         style="stop-color:#ffffff;stop-opacity:0.39215687"
         id="stop3037" />
    </linearGradient>
    <linearGradient
       id="linearGradient3600">
      <stop
         offset="0"
         style="stop-color:#f4f4f4;stop-opacity:1"
         id="stop3602" />
      <stop
         offset="1"
         style="stop-color:#dbdbdb;stop-opacity:1"
         id="stop3604" />
    </linearGradient>
    <linearGradient
       id="linearGradient5060">
      <stop
         offset="0"
         style="stop-color:#000000;stop-opacity:1"
         id="stop5062" />
      <stop
         offset="1"
         style="stop-color:#000000;stop-opacity:0"
         id="stop5064" />
    </linearGradient>
    <linearGradient
       id="linearGradient5048">
      <stop
         offset="0"
         style="stop-color:#000000;stop-opacity:0"
         id="stop5050" />
      <stop
         offset="0.5"
         style="stop-color:#000000;stop-opacity:1"
         id="stop5056" />
      <stop
         offset="1"
         style="stop-color:#000000;stop-opacity:0"
         id="stop5052" />
    </linearGradient>
    <linearGradient
       id="linearGradient3104-6">
      <stop
         offset="0"
         style="stop-color:#000000;stop-opacity:0.31782946"
         id="stop3106-3" />
      <stop
         offset="1"
         style="stop-color:#000000;stop-opacity:0.24031007"
         id="stop3108-9" />
    </linearGradient>
    <linearGradient
       gradientTransform="matrix(0.89189189,0,0,1.1351351,2.5945999,-4.7432314)"
       gradientUnits="userSpaceOnUse"
       xlink:href="#linearGradient3029"
       id="linearGradient3106"
       y2="42.110645"
       x2="23.99999"
       y1="5.5641499"
       x1="23.99999" />
    <linearGradient
       gradientTransform="matrix(0.97142632,0,0,0.93431938,0.68576678,-1.3569996)"
       gradientUnits="userSpaceOnUse"
       xlink:href="#linearGradient3600"
       id="linearGradient3109"
       y2="47.013336"
       x2="25.132275"
       y1="0.98520643"
       x1="25.132275" />
    <radialGradient
       gradientTransform="matrix(0.02303995,0,0,0.01470022,26.360882,37.040176)"
       gradientUnits="userSpaceOnUse"
       xlink:href="#linearGradient5060"
       id="radialGradient3112"
       fy="486.64789"
       fx="605.71429"
       r="117.14286"
       cy="486.64789"
       cx="605.71429" />
    <radialGradient
       gradientTransform="matrix(-0.02303994,0,0,0.01470022,21.62311,37.040176)"
       gradientUnits="userSpaceOnUse"
       xlink:href="#linearGradient5060"
       id="radialGradient3115"
       fy="486.64789"
       fx="605.71429"
       r="117.14286"
       cy="486.64789"
       cx="605.71429" />
    <linearGradient
       gradientTransform="matrix(0.06732488,0,0,0.01470022,-0.3411391,37.040146)"
       gradientUnits="userSpaceOnUse"
       xlink:href="#linearGradient5048"
       id="linearGradient3118"
       y2="609.50507"
       x2="302.85715"
       y1="366.64789"
       x1="302.85715" />
    <linearGradient
       gradientTransform="matrix(0.80749686,0,0,0.89471714,59.410232,-2.9773433)"
       gradientUnits="userSpaceOnUse"
       xlink:href="#linearGradient3104-6"
       id="linearGradient3170"
       y2="2.9062471"
       x2="-51.786404"
       y1="50.786446"
       x1="-51.786404" />
    <linearGradient
       gradientUnits="userSpaceOnUse"
       y2="8"
       x2="64"
       y1="112"
       x1="64"
       id="linearGradient4615"
       xlink:href="#linearGradient4613"
       gradientTransform="matrix(0.49999998,0,0,0.49999998,-5.9999994,-9.499998)" />
    <linearGradient
       id="linearGradient4613">
      <stop
         id="stop4609"
         offset="0"
         style="stop-color:#4a525a;stop-opacity:1;" />
      <stop
         id="stop4611"
         offset="1"
         style="stop-color:#505f6f;stop-opacity:1" />
    </linearGradient>
    <linearGradient
       gradientUnits="userSpaceOnUse"
       y2="-6.4428625"
       x2="64"
       y1="126.85467"
       x1="64"
       id="linearGradient4615-2"
       xlink:href="#linearGradient4613"
       gradientTransform="matrix(0.38235294,0,0,0.38235294,-0.4705882,-2.2057852)" />
  </defs>
  <metadata
     id="metadata3906">
    <rdf:RDF>
      <cc:Work
         rdf:about="" />
    </rdf:RDF>
  </metadata>
  <rect
     style="opacity:0.3;fill:url(#linearGradient3118);fill-opacity:1;fill-rule:nonzero;stroke:none;stroke-width:1;marker:none;visibility:visible;display:inline;overflow:visible"
     id="rect2879"
     y="42.429947"
     x="7.7378473"
     height="3.5700529"
     width="32.508301" />
  <path
     style="opacity:0.3;fill:url(#radialGradient3115);fill-opacity:1;fill-rule:nonzero;stroke:none;stroke-width:1;marker:none;visibility:visible;display:inline;overflow:visible"
     id="path2881"
     d="m 7.7378475,42.430102 c 0,0 0,3.569856 0,3.569856 -1.1865002,0.0067 -2.8683795,-0.799823 -2.8683795,-1.785158 0,-0.985333 1.3240446,-1.784697 2.8683795,-1.784698 z" />
  <path
     style="opacity:0.3;fill:url(#radialGradient3112);fill-opacity:1;fill-rule:nonzero;stroke:none;stroke-width:1;marker:none;visibility:visible;display:inline;overflow:visible"
     id="path2883"
     d="m 40.246148,42.430102 c 0,0 0,3.569856 0,3.569856 1.1865,0.0067 2.86838,-0.799823 2.86838,-1.785158 0,-0.985333 -1.324045,-1.784697 -2.86838,-1.784698 z" />
  <path
     style="display:inline;fill:url(#linearGradient3109);fill-opacity:1;stroke:none"
     id="path4160"
     d="m 7,1.0000001 c 7.791126,0 33.999959,0.00274 33.999959,0.00274 L 41,44 H 7 Z" />
  <path
     style="fill:none;stroke:url(#linearGradient3106);stroke-width:1;stroke-linecap:round;stroke-linejoin:miter;stroke-miterlimit:4;stroke-opacity:1;stroke-dasharray:none;stroke-dashoffset:0"
     id="rect6741-1"
     d="m 40.5,43.5 -33,0 0,-41.9999998 33,0 z" />
  <path
     style="fill:none;stroke:url(#linearGradient3170);stroke-width:0.99992192;stroke-linecap:butt;stroke-linejoin:round;stroke-miterlimit:4;stroke-opacity:1;stroke-dasharray:none;stroke-dashoffset:0;display:inline"
     id="path4160-6-1"
     d="m 6.4999605,0.4999623 c 8.0202885,0 35.0000415,0.00298 35.0000415,0.00298 l 3.7e-5,43.9970957 c 0,0 -23.333385,0 -35.0000785,0 0,-14.666738 0,-29.333326 0,-43.9998923 z" />
  <path
     id="rect4550"
     d="m 13,15 c -1.090703,0 -2,0.909297 -2,2 v 12 c 0,1.090703 0.909297,2 2,2 h 22 c 1.090703,0 2,-0.909297 2,-2 V 17 c 0,-1.090703 -0.909297,-2 -2,-2 z m 0,2 H 35 V 29 H 13 Z"
     style="color:#000000;font-style:normal;font-variant:normal;font-weight:normal;font-stretch:normal;font-size:medium;line-height:normal;font-family:sans-serif;font-variant-ligatures:normal;font-variant-position:normal;font-variant-caps:normal;font-variant-numeric:normal;font-variant-alternates:normal;font-feature-settings:normal;text-indent:0;text-align:start;text-decoration:none;text-decoration-line:none;text-decoration-style:solid;text-decoration-color:#000000;letter-spacing:normal;word-spacing:normal;text-transform:none;writing-mode:lr-tb;direction:ltr;text-orientation:mixed;dominant-baseline:auto;baseline-shift:baseline;text-anchor:start;white-space:normal;shape-padding:0;clip-rule:nonzero;display:inline;overflow:visible;visibility:visible;opacity:1;isolation:auto;mix-blend-mode:normal;color-interpolation:sRGB;color-interpolation-filters:linearRGB;solid-color:#000000;solid-opacity:1;vector-effect:none;fill:url(#linearGradient4615);fill-opacity:1;fill-rule:nonzero;stroke:none;stroke-width:4;stroke-linecap:butt;stroke-linejoin:miter;stroke-miterlimit:4;stroke-dasharray:none;stroke-dashoffset:0;stroke-opacity:1;color-rendering:auto;image-rendering:auto;shape-rendering:auto;text-rendering:auto;enable-background:accumulate"
     sodipodi:nodetypes="sssssssssccccc" />
  <path
     id="path574"
     style="font-variation-settings:normal;vector-effect:none;fill:url(#linearGradient4615-2);fill-opacity:1;stroke:none;stroke-width:4;stroke-linecap:butt;stroke-linejoin:miter;stroke-miterlimit:4;stroke-dasharray:none;stroke-dashoffset:0;stroke-opacity:1;-inkscape-stroke:none;stop-color:#000000"
     d="m 16.75,19.000089 c -0.415499,0 -0.75,0.357593 -0.75,0.800781 v 6.398438 c 0,0.44319 0.334501,0.800781 0.75,0.800781 h 0.5 c 0.415495,0 0.750004,-0.357591 0.75,-0.800781 v -3.59375 l 2.107422,2.107422 c 0.09149,0.09558 0.210592,0.155415 0.34375,0.166015 0.01821,0.0021 0.03794,0.0039 0.05664,0.0039 0.01369,-3.99e-4 0.0276,-0.0024 0.04102,-0.0039 0.133158,-0.01069 0.25226,-0.07044 0.34375,-0.166015 l 2.10742,-2.107422 v 3.59375 c -5e-6,0.44319 0.334499,0.800781 0.749996,0.800781 H 24.25 c 0.415498,0 0.75,-0.357591 0.75,-0.800781 V 19.80087 c 0,-0.443188 -0.334502,-0.800781 -0.75,-0.800781 h -0.734375 c -0.195064,-0.0031 -0.391553,0.07495 -0.541016,0.234375 L 20.5,21.617277 18.001953,19.234464 C 17.85249,19.075039 17.656001,18.996989 17.460937,19.000089 Z m 11.81225,0 c -0.311761,0 -0.562808,0.278076 -0.5625,0.623047 v 3.376919 H 26.5625 c -0.31176,0 -0.5625,0.278078 -0.5625,0.623047 0,0.18592 0.07343,0.350936 0.189453,0.464843 l 2.417969,2.742222 c 0.100784,0.105292 0.235223,0.169922 0.384766,0.169922 0.149541,0 0.283982,-0.06463 0.384765,-0.169922 l 2.433594,-2.742222 C 31.92658,23.974039 32,23.809022 32,23.623102 32,23.278133 31.749261,23.000899 31.4375,23.000055 h -1.43725 v -3.376919 c 0,-0.344971 -0.25074,-0.623047 -0.5625,-0.623047 z"
     sodipodi:nodetypes="ssssscccccccccssssscccccssccssccsccsscsss" />
</svg>
