<?xml version="1.0" encoding="UTF-8" standalone="no"?>
<svg
   id="svg3901"
   height="48"
   width="48"
   version="1.1"
   sodipodi:docname="text-rust.svg"
   inkscape:version="1.1.2 (0a00cf5339, 2022-02-04)"
   xmlns:inkscape="http://www.inkscape.org/namespaces/inkscape"
   xmlns:sodipodi="http://sodipodi.sourceforge.net/DTD/sodipodi-0.dtd"
   xmlns:xlink="http://www.w3.org/1999/xlink"
   xmlns="http://www.w3.org/2000/svg"
   xmlns:svg="http://www.w3.org/2000/svg"
   xmlns:rdf="http://www.w3.org/1999/02/22-rdf-syntax-ns#"
   xmlns:cc="http://creativecommons.org/ns#"
   xmlns:dc="http://purl.org/dc/elements/1.1/">
  <sodipodi:namedview
     id="namedview41"
     pagecolor="#ffffff"
     bordercolor="#666666"
     borderopacity="1.0"
     inkscape:pageshadow="2"
     inkscape:pageopacity="0.0"
     inkscape:pagecheckerboard="0"
     showgrid="false"
     inkscape:zoom="16"
     inkscape:cx="27.21875"
     inkscape:cy="25.8125"
     inkscape:window-width="1317"
     inkscape:window-height="893"
     inkscape:window-x="559"
     inkscape:window-y="64"
     inkscape:window-maximized="0"
     inkscape:current-layer="svg3901"
     inkscape:snap-global="true"
     inkscape:snap-center="true"
     inkscape:snap-object-midpoints="true" />
  <defs
     id="defs3903">
    <linearGradient
       id="linearGradient3403">
      <stop
         id="stop3405"
         style="stop-color:#ffffff;stop-opacity:1"
         offset="0" />
      <stop
         id="stop3407"
         style="stop-color:#ffffff;stop-opacity:0.23529412"
         offset="0" />
      <stop
         id="stop3409"
         style="stop-color:#ffffff;stop-opacity:0.15686275"
         offset="1" />
      <stop
         id="stop3411"
         style="stop-color:#ffffff;stop-opacity:0.39215687"
         offset="1" />
    </linearGradient>
    <linearGradient
       id="linearGradient3600">
      <stop
         offset="0"
         style="stop-color:#f4f4f4;stop-opacity:1"
         id="stop3602" />
      <stop
         offset="1"
         style="stop-color:#dbdbdb;stop-opacity:1"
         id="stop3604" />
    </linearGradient>
    <linearGradient
       id="linearGradient5060">
      <stop
         offset="0"
         style="stop-color:#000000;stop-opacity:1"
         id="stop5062" />
      <stop
         offset="1"
         style="stop-color:#000000;stop-opacity:0"
         id="stop5064" />
    </linearGradient>
    <linearGradient
       id="linearGradient5048">
      <stop
         offset="0"
         style="stop-color:#000000;stop-opacity:0"
         id="stop5050" />
      <stop
         offset="0.5"
         style="stop-color:#000000;stop-opacity:1"
         id="stop5056" />
      <stop
         offset="1"
         style="stop-color:#000000;stop-opacity:0"
         id="stop5052" />
    </linearGradient>
    <linearGradient
       id="linearGradient3104-6">
      <stop
         id="stop3106-3"
         style="stop-color:#000000;stop-opacity:0.31782946"
         offset="0" />
      <stop
         id="stop3108-9"
         style="stop-color:#000000;stop-opacity:0.24031007"
         offset="1" />
    </linearGradient>
    <linearGradient
       y2="42.110645"
       x2="23.99999"
       y1="5.9404659"
       x1="23.99999"
       gradientTransform="matrix(0.89189189,0,0,1.1351351,2.5945999,-4.7432314)"
       gradientUnits="userSpaceOnUse"
       id="linearGradient3106"
       xlink:href="#linearGradient3403" />
    <linearGradient
       y2="47.013336"
       x2="25.132275"
       y1="0.98520643"
       x1="25.132275"
       gradientTransform="matrix(0.97142632,0,0,0.93431938,0.68576678,-1.3569996)"
       gradientUnits="userSpaceOnUse"
       id="linearGradient3109"
       xlink:href="#linearGradient3600" />
    <radialGradient
       r="117.14286"
       fy="486.64789"
       fx="605.71429"
       cy="486.64789"
       cx="605.71429"
       gradientTransform="matrix(0.02303995,0,0,0.01470022,26.360882,37.040176)"
       gradientUnits="userSpaceOnUse"
       id="radialGradient3112"
       xlink:href="#linearGradient5060" />
    <radialGradient
       r="117.14286"
       fy="486.64789"
       fx="605.71429"
       cy="486.64789"
       cx="605.71429"
       gradientTransform="matrix(-0.02303994,0,0,0.01470022,21.62311,37.040176)"
       gradientUnits="userSpaceOnUse"
       id="radialGradient3115"
       xlink:href="#linearGradient5060" />
    <linearGradient
       y2="609.50507"
       x2="302.85715"
       y1="366.64789"
       x1="302.85715"
       gradientTransform="matrix(0.06732488,0,0,0.01470022,-0.3411391,37.040146)"
       gradientUnits="userSpaceOnUse"
       id="linearGradient3118"
       xlink:href="#linearGradient5048" />
    <linearGradient
       y2="2.9062471"
       x2="-51.786404"
       y1="50.786446"
       x1="-51.786404"
       gradientTransform="matrix(0.80749686,0,0,0.89471714,59.410232,-2.9773433)"
       gradientUnits="userSpaceOnUse"
       id="linearGradient3170"
       xlink:href="#linearGradient3104-6" />
  </defs>
  <metadata
     id="metadata3906">
    <rdf:RDF>
      <cc:Work
         rdf:about="">
        <dc:format>image/svg+xml</dc:format>
        <dc:type
           rdf:resource="http://purl.org/dc/dcmitype/StillImage" />
      </cc:Work>
    </rdf:RDF>
  </metadata>
  <rect
     width="32.508301"
     height="3.5700529"
     x="7.7378473"
     y="42.429947"
     id="rect2879"
     style="opacity:0.3;fill:url(#linearGradient3118);fill-opacity:1;fill-rule:nonzero;stroke:none;stroke-width:1;marker:none;visibility:visible;display:inline;overflow:visible" />
  <path
     d="m 7.7378475,42.430102 c 0,0 0,3.569856 0,3.569856 -1.1865002,0.0067 -2.8683795,-0.799823 -2.8683795,-1.785158 0,-0.985333 1.3240446,-1.784697 2.8683795,-1.784698 z"
     id="path2881"
     style="opacity:0.3;fill:url(#radialGradient3115);fill-opacity:1;fill-rule:nonzero;stroke:none;stroke-width:1;marker:none;visibility:visible;display:inline;overflow:visible" />
  <path
     d="m 40.246148,42.430102 c 0,0 0,3.569856 0,3.569856 1.1865,0.0067 2.86838,-0.799823 2.86838,-1.785158 0,-0.985333 -1.324045,-1.784697 -2.86838,-1.784698 z"
     id="path2883"
     style="opacity:0.3;fill:url(#radialGradient3112);fill-opacity:1;fill-rule:nonzero;stroke:none;stroke-width:1;marker:none;visibility:visible;display:inline;overflow:visible" />
  <path
     d="m 7,1.0000001 c 7.791126,0 33.999959,0.00274 33.999959,0.00274 L 41,44 C 41,44 18.333334,44 7,44 7,29.666666 7,15.333333 7,1 z"
     id="path4160"
     style="fill:url(#linearGradient3109);fill-opacity:1;stroke:none;display:inline" />
  <path
     id="path881"
     style="color:#000000;fill:#384759;stroke-width:1;stroke-linecap:round;stroke-linejoin:round;-inkscape-stroke:none;fill-opacity:1"
     d="M 24 9.5 A 0.5287249 0.47293043 0 0 0 23.541016 9.7363281 L 22.623047 11.158203 L 22.416016 11.478516 L 22.134766 11.224609 L 20.878906 10.087891 A 0.47293044 0.52872491 75.000002 0 0 20.376953 9.9765625 A 0.47293044 0.52872491 75.000002 0 0 19.994141 10.324219 L 19.474609 11.935547 L 19.357422 12.298828 L 19.019531 12.125 L 17.513672 11.351562 A 0.47293044 0.52872489 59.999998 0 0 17 11.375 A 0.47293044 0.52872489 59.999998 0 0 16.720703 11.810547 L 16.636719 13.501953 L 16.619141 13.880859 L 16.246094 13.800781 L 14.589844 13.445312 A 0.47293045 0.52872491 45 0 0 14.101562 13.599609 A 0.47293045 0.52872491 45 0 0 13.943359 14.091797 L 14.298828 15.748047 L 14.378906 16.119141 L 14 16.138672 L 12.308594 16.222656 A 0.47293044 0.52872492 29.999994 0 0 11.876953 16.5 A 0.47293044 0.52872492 29.999994 0 0 11.851562 17.015625 L 12.623047 18.521484 L 12.798828 18.861328 L 12.435547 18.978516 L 10.824219 19.496094 A 0.47293044 0.52872494 14.999994 0 0 10.476562 19.876953 A 0.47293044 0.52872494 14.999994 0 0 10.585938 20.380859 L 11.722656 21.636719 L 11.978516 21.917969 L 11.658203 22.125 L 10.236328 23.042969 A 0.47293043 0.5287249 0 0 0 10 23.5 A 0.47293043 0.5287249 0 0 0 10.236328 23.958984 L 11.658203 24.876953 L 11.978516 25.083984 L 11.724609 25.365234 L 10.587891 26.621094 A 0.52872491 0.47293044 75.000002 0 0 10.476562 27.123047 A 0.52872491 0.47293044 75.000002 0 0 10.824219 27.505859 L 12.435547 28.025391 L 12.798828 28.142578 L 12.625 28.480469 L 11.851562 29.986328 A 0.52872492 0.47293044 60.000004 0 0 11.875 30.5 A 0.52872492 0.47293044 60.000004 0 0 12.310547 30.779297 L 14.001953 30.863281 L 14.380859 30.880859 L 14.300781 31.253906 L 13.945312 32.910156 A 0.52872491 0.47293045 45 0 0 14.099609 33.398438 A 0.52872491 0.47293045 45 0 0 14.591797 33.556641 L 16.248047 33.201172 L 16.619141 33.121094 L 16.638672 33.5 L 16.722656 35.191406 A 0.52872488 0.47293044 29.999995 0 0 17 35.623047 A 0.52872488 0.47293044 29.999995 0 0 17.515625 35.648438 L 19.021484 34.876953 L 19.361328 34.701172 L 19.478516 35.064453 L 19.996094 36.675781 A 0.52872491 0.47293044 14.999998 0 0 20.376953 37.023438 A 0.52872491 0.47293044 14.999998 0 0 20.880859 36.914062 L 22.136719 35.777344 L 22.417969 35.521484 L 22.625 35.841797 L 23.542969 37.263672 A 0.5287249 0.47293043 0 0 0 24 37.5 A 0.5287249 0.47293043 0 0 0 24.458984 37.263672 L 25.376953 35.841797 L 25.583984 35.521484 L 25.865234 35.775391 L 27.121094 36.912109 A 0.47293044 0.52872494 75.000006 0 0 27.623047 37.023438 A 0.47293044 0.52872494 75.000006 0 0 28.005859 36.675781 L 28.525391 35.064453 L 28.642578 34.701172 L 28.980469 34.875 L 30.486328 35.648438 A 0.47293044 0.52872492 60.000006 0 0 31 35.625 A 0.47293044 0.52872492 60.000006 0 0 31.279297 35.189453 L 31.363281 33.498047 L 31.380859 33.119141 L 31.753906 33.199219 L 33.410156 33.554688 A 0.47293045 0.52872491 45 0 0 33.898438 33.400391 A 0.47293045 0.52872491 45 0 0 34.056641 32.908203 L 33.701172 31.251953 L 33.621094 30.880859 L 34 30.861328 L 35.691406 30.777344 A 0.47293044 0.52872489 30.000002 0 0 36.123047 30.5 A 0.47293044 0.52872489 30.000002 0 0 36.148438 29.984375 L 35.376953 28.478516 L 35.201172 28.138672 L 35.564453 28.021484 L 37.175781 27.503906 A 0.47293044 0.52872491 14.999998 0 0 37.523438 27.123047 A 0.47293044 0.52872491 14.999998 0 0 37.414062 26.619141 L 36.277344 25.363281 L 36.021484 25.082031 L 36.341797 24.875 L 37.763672 23.957031 A 0.47293043 0.5287249 0 0 0 38 23.5 A 0.47293043 0.5287249 0 0 0 37.763672 23.041016 L 36.341797 22.123047 L 36.021484 21.916016 L 36.275391 21.634766 L 37.412109 20.378906 A 0.52872491 0.47293044 75.000002 0 0 37.523438 19.876953 A 0.52872491 0.47293044 75.000002 0 0 37.175781 19.494141 L 35.564453 18.974609 L 35.201172 18.857422 L 35.375 18.519531 L 36.148438 17.013672 A 0.52872492 0.47293044 60.000004 0 0 36.125 16.5 A 0.52872492 0.47293044 60.000004 0 0 35.689453 16.220703 L 33.998047 16.136719 L 33.619141 16.119141 L 33.699219 15.746094 L 34.054688 14.089844 A 0.52872491 0.47293045 45 0 0 33.900391 13.601562 A 0.52872491 0.47293045 45 0 0 33.408203 13.443359 L 31.751953 13.798828 L 31.380859 13.878906 L 31.361328 13.5 L 31.277344 11.808594 A 0.52872492 0.47293044 29.999996 0 0 31 11.376953 A 0.52872492 0.47293044 29.999996 0 0 30.484375 11.351562 L 28.978516 12.123047 L 28.638672 12.298828 L 28.521484 11.935547 L 28.003906 10.324219 A 0.52872491 0.47293044 14.999998 0 0 27.623047 9.9765625 A 0.52872491 0.47293044 14.999998 0 0 27.119141 10.085938 L 25.863281 11.222656 L 25.582031 11.478516 L 25.375 11.158203 L 24.457031 9.7363281 A 0.5287249 0.47293043 0 0 0 24 9.5 z M 24 12.5 A 1 1 0 0 1 25 13.5 A 1 1 0 0 1 24 14.5 A 1 1 0 0 1 23 13.5 A 1 1 0 0 1 24 12.5 z M 22.199219 13.865234 L 23.414062 15.140625 C 23.688232 15.427487 24.142824 15.440762 24.429688 15.164062 L 25.791016 13.865234 C 28.596 14.390928 31.027988 16.124294 32.441406 18.603516 L 31.509766 20.705078 C 31.349833 21.068098 31.514589 21.495732 31.875 21.658203 L 33.666016 22.451172 C 33.721706 23.011527 33.747128 23.575176 33.705078 24.136719 C 33.578261 25.956689 32.941897 27.704567 31.871094 29.181641 C 31.596699 29.54908 31.249269 29.897604 30.925781 30.222656 L 29.257812 29.865234 C 28.869405 29.781464 28.486118 30.029562 28.402344 30.417969 L 28.005859 32.265625 C 25.428908 33.432953 22.472111 33.420018 19.90625 32.228516 L 19.507812 30.378906 C 19.424042 29.9905 19.044657 29.742398 18.65625 29.826172 L 17.023438 30.177734 C 16.720225 29.865467 16.364121 29.53171 16.105469 29.181641 C 15.429049 28.242988 14.925094 27.191433 14.617188 26.076172 C 14.274127 24.871699 14.206737 23.612258 14.341797 22.367188 L 16.041016 21.611328 C 16.404036 21.448857 16.570674 21.02513 16.408203 20.662109 L 16.056641 19.873047 L 16.064453 19.873047 L 15.537109 18.691406 C 15.914781 18.085457 15.903175 17.917594 16.761719 16.933594 C 18.187015 15.341042 20.099143 14.261937 22.199219 13.865234 z M 14.470703 19.400391 A 1 1 0 0 1 15.451172 20.089844 A 1 1 0 0 1 14.810547 21.351562 A 1 1 0 0 1 13.548828 20.710938 A 1 1 0 0 1 14.189453 19.449219 A 1 1 0 0 1 14.470703 19.400391 z M 33.470703 19.400391 A 1 1 0 0 1 34.451172 20.089844 A 1 1 0 0 1 33.810547 21.351562 A 1 1 0 0 1 32.548828 20.710938 A 1 1 0 0 1 33.189453 19.449219 A 1 1 0 0 1 33.470703 19.400391 z M 17.970703 30.75 A 1 1 0 0 1 18.951172 31.439453 A 1 1 0 0 1 18.310547 32.701172 A 1 1 0 0 1 17.048828 32.060547 A 1 1 0 0 1 17.689453 30.798828 A 1 1 0 0 1 17.970703 30.75 z M 29.970703 30.75 A 1 1 0 0 1 30.951172 31.439453 A 1 1 0 0 1 30.310547 32.701172 A 1 1 0 0 1 29.048828 32.060547 A 1 1 0 0 1 29.689453 30.798828 A 1 1 0 0 1 29.970703 30.75 z " />
  <path
     d="m 40.5,43.5 -33,0 0,-41.9999998 33,0 z"
     id="rect6741-1"
     style="fill:none;stroke:url(#linearGradient3106);stroke-width:1;stroke-linecap:round;stroke-linejoin:miter;stroke-miterlimit:4;stroke-opacity:1;stroke-dasharray:none;stroke-dashoffset:0" />
  <path
     d="m 6.4999605,0.4999623 c 8.0202885,0 35.0000415,0.00298 35.0000415,0.00298 l 3.7e-5,43.9970957 c 0,0 -23.333385,0 -35.0000785,0 0,-14.666738 0,-29.333326 0,-43.9998923 z"
     id="path4160-6-1"
     style="fill:none;stroke:url(#linearGradient3170);stroke-width:0.99992192;stroke-linecap:butt;stroke-linejoin:round;stroke-miterlimit:4;stroke-opacity:1;stroke-dasharray:none;stroke-dashoffset:0;display:inline" />
  <path
     id="path25467"
     style="fill:#384759;fill-opacity:1;stroke-width:0.75"
     d="m 16,16.999997 c -0.858545,0.984001 -1,2.190922 -1,2.190922 L 16,20 h 2.000002 v 7.999863 h -3.344238 -0.03808 c 0.307909,1.115261 0.425613,1.061151 1.102033,1.999805 h 0.07471 8.054394 c 0.08885,0 0.150879,-0.01584 0.150879,-0.09961 V 28.09799 c 0,-0.08124 -0.06216,-0.09334 -0.150879,-0.09814 H 22 v -1.999987 h 2.309119 c 0.228476,0 1.226619,-0.03756 1.543946,1.236822 0.09901,0.390946 0.320436,1.024187 0.470214,1.432904 0.149777,0.456949 0.755975,1.330548 1.403321,1.330548 h 4.097168 0.04834 c 1.824381,0 1.705702,-2.179987 1.832519,-3.999956 h -0.01758 -1.547257 c -0.09901,0 -0.139161,0.06613 -0.139161,0.162598 v 0.452766 c 0,1.07637 -0.671409,1.097502 -1.250419,1.097502 -0.511069,0 -1.28315,-0.298488 -1.354231,-0.608198 -0.299554,-1.683098 -0.796509,-2.045522 -1.583478,-2.667481 0.977363,-0.61942 1.739344,-2.295662 1.6875,-3.837505 -0.05184,-1.541845 -1.558844,-3.599861 -2.625,-3.599861 z M 22,20 h 3 c 0.656396,0 1.499999,0.437133 1.499999,1.499863 0,1.062735 -0.708749,1.5 -1.499999,1.5 h -3 z"
     sodipodi:nodetypes="cccccccccccssssccsccsccccsssczsccczccc" />
</svg>
