<?xml version="1.0" encoding="UTF-8" standalone="no"?>
<svg
   xmlns:dc="http://purl.org/dc/elements/1.1/"
   xmlns:cc="http://creativecommons.org/ns#"
   xmlns:rdf="http://www.w3.org/1999/02/22-rdf-syntax-ns#"
   xmlns:svg="http://www.w3.org/2000/svg"
   xmlns="http://www.w3.org/2000/svg"
   height="16"
   width="16"
   id="svg2"
   version="1.1">
  <metadata
     id="metadata24">
    <rdf:RDF>
      <cc:Work
         rdf:about="">
        <dc:format>image/svg+xml</dc:format>
        <dc:type
           rdf:resource="http://purl.org/dc/dcmitype/StillImage" />
      </cc:Work>
    </rdf:RDF>
  </metadata>
  <defs
     id="defs22" />
  <g
     transform="translate(-633 -105)"
     fill="#666"
     id="g4">
    <rect
       color="#bebebe"
       height="4"
       overflow="visible"
       style="marker:none"
       width="3"
       x="639"
       y="107"
       id="rect6" />
    <rect
       color="#bebebe"
       height="5"
       overflow="visible"
       style="marker:none"
       width="3"
       x="635"
       y="106"
       id="rect8" />
    <rect
       color="#bebebe"
       height="4"
       overflow="visible"
       style="marker:none"
       transform="scale(1 -1)"
       width="3"
       x="639"
       y="-118"
       id="rect10" />
    <rect
       color="#bebebe"
       height="5"
       overflow="visible"
       style="marker:none"
       transform="scale(1 -1)"
       width="3"
       x="635"
       y="-119"
       id="rect12" />
    <rect
       color="#bebebe"
       height="3"
       overflow="visible"
       style="marker:none"
       width="3"
       x="643"
       y="108"
       id="rect14" />
    <rect
       color="#bebebe"
       height="3"
       overflow="visible"
       style="marker:none"
       transform="scale(1 -1)"
       width="3"
       x="643"
       y="-117"
       id="rect16" />
    <path
       color="#000"
       d="M634 113h1v-1h-1zm2 0h1v-1h-1zm2 0h1v-1h-1zm2 0h1v-1h-1zm2 0h1v-1h-1zm2 0h1v-1h-1zm2 0h1v-1h-1z"
       fill-rule="evenodd"
       font-family="sans-serif"
       font-weight="400"
       overflow="visible"
       style="line-height:normal;font-variant-ligatures:normal;font-variant-position:normal;font-variant-caps:normal;font-variant-numeric:normal;font-variant-alternates:normal;font-feature-settings:normal;text-indent:0;text-align:start;text-decoration-line:none;text-decoration-style:solid;text-decoration-color:#000;text-transform:none;text-orientation:mixed;shape-padding:0;isolation:auto;mix-blend-mode:normal"
       white-space="normal"
       id="path18" />
  </g>
</svg>
