<?xml version="1.0" encoding="UTF-8" standalone="no"?>
<svg
   xmlns:dc="http://purl.org/dc/elements/1.1/"
   xmlns:cc="http://creativecommons.org/ns#"
   xmlns:rdf="http://www.w3.org/1999/02/22-rdf-syntax-ns#"
   xmlns:svg="http://www.w3.org/2000/svg"
   xmlns="http://www.w3.org/2000/svg"
   version="1.1"
   id="svg2"
   width="16"
   height="16">
  <metadata
     id="metadata24">
    <rdf:RDF>
      <cc:Work
         rdf:about="">
        <dc:format>image/svg+xml</dc:format>
        <dc:type
           rdf:resource="http://purl.org/dc/dcmitype/StillImage" />
      </cc:Work>
    </rdf:RDF>
  </metadata>
  <defs
     id="defs22" />
  <g
     id="g4"
     fill="#666"
     transform="translate(-653 -105)">
    <rect
       id="rect6"
       y="655.001"
       x="-115"
       width="3"
       transform="rotate(-90)"
       style="marker:none"
       overflow="visible"
       height="4"
       color="#bebebe" />
    <rect
       id="rect8"
       y="654.001"
       x="-119"
       width="3"
       transform="rotate(-90)"
       style="marker:none"
       overflow="visible"
       height="5"
       color="#bebebe" />
    <rect
       id="rect10"
       y="-666.001"
       x="-115"
       width="3"
       transform="matrix(0 -1 -1 0 0 0)"
       style="marker:none"
       overflow="visible"
       height="4"
       color="#bebebe" />
    <rect
       id="rect12"
       y="-667.001"
       x="-119"
       width="3"
       transform="matrix(0 -1 -1 0 0 0)"
       style="marker:none"
       overflow="visible"
       height="5"
       color="#bebebe" />
    <rect
       id="rect14"
       y="656.001"
       x="-111"
       width="3"
       transform="rotate(-90)"
       style="marker:none"
       overflow="visible"
       height="3"
       color="#bebebe" />
    <rect
       id="rect16"
       y="-665.001"
       x="-111"
       width="3"
       transform="matrix(0 -1 -1 0 0 0)"
       style="marker:none"
       overflow="visible"
       height="3"
       color="#bebebe" />
    <path
       id="path18"
       white-space="normal"
       style="line-height:normal;font-variant-ligatures:normal;font-variant-position:normal;font-variant-caps:normal;font-variant-numeric:normal;font-variant-alternates:normal;font-feature-settings:normal;text-indent:0;text-align:start;text-decoration-line:none;text-decoration-style:solid;text-decoration-color:#000;text-transform:none;text-orientation:mixed;shape-padding:0;isolation:auto;mix-blend-mode:normal"
       overflow="visible"
       font-weight="400"
       font-family="sans-serif"
       fill-rule="evenodd"
       d="M661 120v-1h-1v1zm0-2v-1h-1v1zm0-2v-1h-1v1zm0-2v-1h-1v1zm0-2v-1h-1v1zm0-2v-1h-1v1zm0-2v-1h-1v1z"
       color="#000" />
  </g>
</svg>
