<?xml version="1.0" encoding="UTF-8" standalone="no"?>
<svg
   xmlns:dc="http://purl.org/dc/elements/1.1/"
   xmlns:cc="http://creativecommons.org/ns#"
   xmlns:rdf="http://www.w3.org/1999/02/22-rdf-syntax-ns#"
   xmlns:svg="http://www.w3.org/2000/svg"
   xmlns="http://www.w3.org/2000/svg"
   version="1.1"
   id="svg2"
   width="16"
   height="16">
  <metadata
     id="metadata12">
    <rdf:RDF>
      <cc:Work
         rdf:about="">
        <dc:format>image/svg+xml</dc:format>
        <dc:type
           rdf:resource="http://purl.org/dc/dcmitype/StillImage" />
      </cc:Work>
    </rdf:RDF>
  </metadata>
  <defs
     id="defs10" />
  <g
     id="g4"
     transform="translate(-893 35)">
    <path
       id="path6"
       fill-rule="evenodd"
       fill="#666"
       d="M905.48-32.678c-.726-.725-1.452 0-1.452 0l-1.45 1.451s-.726.726 0 1.451l.362.363c1.088 1.088-.363 2.54-.363 2.54l-1.45 1.45s-1.451 1.451-2.54.363l-.362-.363c-.726-.725-1.451 0-1.451 0l-1.451 1.451s-.726.726 0 1.451l.725.726c2.54 2.539 6.167-1.814 6.167-1.814l2.176-2.176s4.353-3.628 1.814-6.167z" />
  </g>
</svg>
