<?xml version="1.0" encoding="UTF-8" standalone="no"?>
<svg
   xmlns:dc="http://purl.org/dc/elements/1.1/"
   xmlns:cc="http://creativecommons.org/ns#"
   xmlns:rdf="http://www.w3.org/1999/02/22-rdf-syntax-ns#"
   xmlns:svg="http://www.w3.org/2000/svg"
   xmlns="http://www.w3.org/2000/svg"
   height="16"
   width="16"
   id="svg2"
   version="1.1">
  <metadata
     id="metadata12">
    <rdf:RDF>
      <cc:Work
         rdf:about="">
        <dc:format>image/svg+xml</dc:format>
        <dc:type
           rdf:resource="http://purl.org/dc/dcmitype/StillImage" />
      </cc:Work>
    </rdf:RDF>
  </metadata>
  <defs
     id="defs10" />
  <g
     color="#bebebe"
     transform="translate(-553 35)"
     id="g4">
    <path
       d="M566-33s1 0 1 1v3h-1v-2.5s0-.5-.5-.5h-9s-.5 0-.5.5v9c0 .5.5.5.5.5h9s.5 0 .5-.5V-25h1v3c0 1-1 1-1 1h-10s-1 0-1-1v-10c0-1 1-1 1-1zm-2.568 3.035c.267-.013.559.188.567.465v1.5h3.5c.262 0 .5.238.5.5v1a.489.489 0 0 1 0 .094.517.517 0 0 1-.5.406h-3.5v1.5c-.012.369-.525.606-.813.375l-3-2.5a.522.522 0 0 1 0-.75l3-2.5a.418.418 0 0 1 .246-.09z"
       fill="#666"
       overflow="visible"
       style="marker:none"
       id="path6" />
  </g>
</svg>
