<?xml version="1.0" encoding="UTF-8" standalone="no"?>
<svg
   xmlns:dc="http://purl.org/dc/elements/1.1/"
   xmlns:cc="http://creativecommons.org/ns#"
   xmlns:rdf="http://www.w3.org/1999/02/22-rdf-syntax-ns#"
   xmlns:svg="http://www.w3.org/2000/svg"
   xmlns="http://www.w3.org/2000/svg"
   version="1.1"
   id="svg2"
   width="16"
   height="15.974">
  <metadata
     id="metadata12">
    <rdf:RDF>
      <cc:Work
         rdf:about="">
        <dc:format>image/svg+xml</dc:format>
        <dc:type
           rdf:resource="http://purl.org/dc/dcmitype/StillImage" />
      </cc:Work>
    </rdf:RDF>
  </metadata>
  <defs
     id="defs10" />
  <g
     id="g4"
     transform="translate(-553 -17)">
    <path
       id="path6"
       style="isolation:auto;mix-blend-mode:normal;marker:none"
       overflow="visible"
       fill="#666"
       d="M554 18v1h1v-1zm2 0v1h1v-1zm2 0v1h1v-1zm2 0v1h1v-1zm2 0v1h1v-1zm2 0v1h1v-1zm2 0v1h1v-1zm-12 2v1h1v-1zm2 0v4h9v-4zm10 0v1h1v-1zm-12 2v1h1v-1zm12 0v1h1v-1zm-12 2v1h1v-1zm12 0v1h1v-1zm-10 1v4h4v-4zm5 0v4h4v-4zm-7 1v1h1v-1zm12 0v1h1v-1zm-12 2v1h1v-1zm12 0v1h1v-1zm-12 2v1h1v-1zm2 0v1h1v-1zm2 0v1h1v-1zm2 0v1h1v-1zm2 0v1h1v-1zm2 0v1h1v-1zm2 0v1h1v-1z"
       color="#000" />
  </g>
</svg>
