<?xml version="1.0" encoding="UTF-8" standalone="no"?>
<svg
   xmlns:dc="http://purl.org/dc/elements/1.1/"
   xmlns:cc="http://creativecommons.org/ns#"
   xmlns:rdf="http://www.w3.org/1999/02/22-rdf-syntax-ns#"
   xmlns:svg="http://www.w3.org/2000/svg"
   xmlns="http://www.w3.org/2000/svg"
   version="1.1"
   id="svg2"
   width="16"
   height="16">
  <metadata
     id="metadata14">
    <rdf:RDF>
      <cc:Work
         rdf:about="">
        <dc:format>image/svg+xml</dc:format>
        <dc:type
           rdf:resource="http://purl.org/dc/dcmitype/StillImage" />
      </cc:Work>
    </rdf:RDF>
  </metadata>
  <defs
     id="defs12" />
  <g
     id="g4"
     transform="translate(-613 -157)">
    <path
       id="path6"
       fill="#666"
       d="M615 171v1h12v-1z" />
    <path
       id="path8"
       white-space="normal"
       style="line-height:normal;text-indent:0;text-align:start;text-decoration-line:none;text-decoration-style:solid;text-decoration-color:#000;text-transform:none;isolation:auto;mix-blend-mode:normal"
       overflow="visible"
       font-weight="400"
       font-family="sans-serif"
       fill-rule="evenodd"
       fill="#666"
       d="M620.668 158.933c-2.495-.009-3.861 1.688-3.814 3.368.062 2.237 1.74 2.665 2.804 2.945 1.665.438 3.532.346 3.532 1.453 0 .768-.947 1.285-1.896 1.385-1.204.126-2.011-.262-2.833-.988a1 1 0 0 0-.717-.305c-.898-.003-1.345 1.087-.703 1.715 1.217 1.314 2.636 1.644 3.887 1.6 4.015-.14 4.46-2.315 4.46-3.407-.034-2.337-1.895-2.985-4.405-3.17-1.454-.107-2.1-.408-2.1-1.228 0-.82.7-1.37 2.035-1.36 1.336.01 1.98.251 2.28.655.785 1.129 2.458-.113 1.605-1.192-.795-1.071-1.64-1.462-4.135-1.47z"
       color="#000" />
  </g>
</svg>
