<?xml version="1.0" encoding="UTF-8" standalone="no"?>
<!-- Created with Inkscape (http://www.inkscape.org/) -->
<svg id="svg7384" xmlns:rdf="http://www.w3.org/1999/02/22-rdf-syntax-ns#" xmlns="http://www.w3.org/2000/svg" height="16" width="16" version="1.1" xmlns:cc="http://creativecommons.org/ns#" xmlns:dc="http://purl.org/dc/elements/1.1/">
 <metadata id="metadata90">
  <rdf:RDF>
   <cc:Work rdf:about="">
    <dc:format>image/svg+xml</dc:format>
    <dc:type rdf:resource="http://purl.org/dc/dcmitype/StillImage"/>
    <dc:title>Gnome Symbolic Icon Theme</dc:title>
   </cc:Work>
  </rdf:RDF>
 </metadata>
 <title id="title9167">Gnome Symbolic Icon Theme</title>
 <g id="layer12" transform="translate(-41 -807)">
  <path id="path9159" style="block-progression:tb;text-indent:0;color:#000000;enable-background:new;text-transform:none;fill:#bebebe" d="m43 807v9h12v-9zm2 2h8v5h-8z"/>
  <path id="path9161" style="opacity:.35;color:#000000;enable-background:new;fill:#bebebe" d="m46 812c2.3208 1 3.0446-1.6596 6 0v1h-6z"/>
  <path id="path9197" style="block-progression:tb;text-indent:0;color:#bebebe;text-transform:none;fill:#bebebe" d="m52.004 818.04h-1.0011c-0.2572 0-0.52906 0.12998-0.71957 0.31286l-1.2827 1.2827-1.2827-1.2827c-0.19026-0.18312-0.46238-0.31285-0.71959-0.31281h-1.0011l-0.00001 1.0011c0 0.3098 0.0903 0.55295 0.28162 0.75083l2.7218 2.6593 2.7218-2.6593c0.19115-0.19793 0.28158-0.44106 0.28158-0.75085v-1.0011z"/>
 </g>
</svg>
