<?xml version="1.0" encoding="UTF-8" standalone="no"?>
<svg
   height="16"
   width="16"
   version="1.1"
   id="svg6"
   sodipodi:docname="media-skip-backward-symbolic.svg"
   inkscape:version="1.2.2 (b0a8486541, 2022-12-01)"
   xmlns:inkscape="http://www.inkscape.org/namespaces/inkscape"
   xmlns:sodipodi="http://sodipodi.sourceforge.net/DTD/sodipodi-0.dtd"
   xmlns="http://www.w3.org/2000/svg"
   xmlns:svg="http://www.w3.org/2000/svg"
   xmlns:rdf="http://www.w3.org/1999/02/22-rdf-syntax-ns#"
   xmlns:cc="http://creativecommons.org/ns#"
   xmlns:dc="http://purl.org/dc/elements/1.1/">
  <sodipodi:namedview
     id="namedview1929"
     pagecolor="#ffffff"
     bordercolor="#666666"
     borderopacity="1.0"
     inkscape:showpageshadow="2"
     inkscape:pageopacity="0.0"
     inkscape:pagecheckerboard="0"
     inkscape:deskcolor="#d1d1d1"
     showgrid="false"
     inkscape:zoom="14.75"
     inkscape:cx="2.440678"
     inkscape:cy="8.0338983"
     inkscape:window-width="1920"
     inkscape:window-height="1031"
     inkscape:window-x="0"
     inkscape:window-y="0"
     inkscape:window-maximized="1"
     inkscape:current-layer="svg6" />
  <metadata
     id="metadata12">
    <rdf:RDF>
      <cc:Work
         rdf:about="">
        <dc:format>image/svg+xml</dc:format>
        <dc:type
           rdf:resource="http://purl.org/dc/dcmitype/StillImage" />
      </cc:Work>
    </rdf:RDF>
  </metadata>
  <defs
     id="defs10" />
  <path
     d="M 1.6666667,4 C 1.2973333,4 1,4.2973332 1,4.6666666 v 6.6666654 c 0,0.369333 0.2973333,0.666666 0.6666667,0.666666 h 0.6666667 c 0.3693333,0 0.6666667,-0.297333 0.6666667,-0.666666 V 8.7747383 L 8.0273442,11.916665 C 8.1201822,11.965708 8.2210335,12 8.3333336,12 c 0.36819,0 0.6666666,-0.298476 0.6666666,-0.666666 V 8.7526029 L 14.027344,11.916665 C 14.120184,11.965708 14.221034,12 14.333334,12 14.701523,12 15,11.701524 15,11.333334 V 4.6666666 C 15,4.2984768 14.701523,4 14.333334,4 c -0.1123,0 -0.213152,0.034291 -0.30599,0.083333 L 9.0000002,7.2473953 V 4.6666666 C 9.0000002,4.2984768 8.7015236,4 8.3333336,4 8.2210335,4 8.1201823,4.034291 8.0273442,4.0833329 L 3.0000001,7.2252599 V 4.6666666 C 3.0000001,4.2973332 2.7026667,4 2.3333334,4 Z"
     style="font-variation-settings:normal;opacity:1;vector-effect:none;fill:#555761;fill-opacity:1;stroke:none;stroke-width:2.66667;stroke-linecap:round;stroke-linejoin:round;stroke-miterlimit:4;stroke-dasharray:none;stroke-dashoffset:0;stroke-opacity:1;stop-color:#000000;stop-opacity:1"
     id="path980-3" />
</svg>
