<?xml version="1.0" encoding="UTF-8" standalone="no"?>
<svg
   height="16"
   width="16"
   version="1.1"
   id="svg6"
   sodipodi:docname="media-skip-forward-symbolic.svg"
   inkscape:version="1.2.2 (b0a8486541, 2022-12-01)"
   xmlns:inkscape="http://www.inkscape.org/namespaces/inkscape"
   xmlns:sodipodi="http://sodipodi.sourceforge.net/DTD/sodipodi-0.dtd"
   xmlns="http://www.w3.org/2000/svg"
   xmlns:svg="http://www.w3.org/2000/svg"
   xmlns:rdf="http://www.w3.org/1999/02/22-rdf-syntax-ns#"
   xmlns:cc="http://creativecommons.org/ns#"
   xmlns:dc="http://purl.org/dc/elements/1.1/">
  <sodipodi:namedview
     id="namedview1801"
     pagecolor="#ffffff"
     bordercolor="#666666"
     borderopacity="1.0"
     inkscape:showpageshadow="2"
     inkscape:pageopacity="0.0"
     inkscape:pagecheckerboard="0"
     inkscape:deskcolor="#d1d1d1"
     showgrid="false"
     inkscape:zoom="14.75"
     inkscape:cx="2.440678"
     inkscape:cy="8.0338983"
     inkscape:window-width="1920"
     inkscape:window-height="1031"
     inkscape:window-x="0"
     inkscape:window-y="0"
     inkscape:window-maximized="1"
     inkscape:current-layer="svg6" />
  <metadata
     id="metadata12">
    <rdf:RDF>
      <cc:Work
         rdf:about="">
        <dc:format>image/svg+xml</dc:format>
        <dc:type
           rdf:resource="http://purl.org/dc/dcmitype/StillImage" />
      </cc:Work>
    </rdf:RDF>
  </metadata>
  <defs
     id="defs10" />
  <path
     d="M 14.333333,4 C 14.702667,4 15,4.2973332 15,4.6666666 v 6.6666654 c 0,0.369333 -0.297333,0.666666 -0.666667,0.666666 H 13.666667 C 13.297333,11.999998 13,11.702665 13,11.333332 V 8.7747383 L 7.9726558,11.916665 C 7.8798178,11.965708 7.7789665,12 7.6666664,12 7.2984764,12 6.9999998,11.701524 6.9999998,11.333334 V 8.7526029 L 1.972656,11.916665 C 1.879816,11.965708 1.778966,12 1.666666,12 1.298477,12 1,11.701524 1,11.333334 V 4.6666666 C 1,4.2984768 1.298477,4 1.666666,4 c 0.1123,0 0.213152,0.034291 0.30599,0.083333 L 6.9999998,7.2473953 V 4.6666666 C 6.9999998,4.2984768 7.2984764,4 7.6666664,4 7.7789665,4 7.8798177,4.034291 7.9726558,4.0833329 L 13,7.2252599 V 4.6666666 C 13,4.2973332 13.297333,4 13.666667,4 Z"
     style="font-variation-settings:normal;opacity:1;vector-effect:none;fill:#555761;fill-opacity:1;stroke:none;stroke-width:2.66667;stroke-linecap:round;stroke-linejoin:round;stroke-miterlimit:4;stroke-dasharray:none;stroke-dashoffset:0;stroke-opacity:1;stop-color:#000000;stop-opacity:1"
     id="path980-3" />
</svg>
