<?xml version="1.0" encoding="UTF-8" standalone="no"?>
<svg
   xmlns:dc="http://purl.org/dc/elements/1.1/"
   xmlns:cc="http://creativecommons.org/ns#"
   xmlns:rdf="http://www.w3.org/1999/02/22-rdf-syntax-ns#"
   xmlns:svg="http://www.w3.org/2000/svg"
   xmlns="http://www.w3.org/2000/svg"
   height="16"
   width="16"
   id="svg2"
   version="1.1">
  <metadata
     id="metadata12">
    <rdf:RDF>
      <cc:Work
         rdf:about="">
        <dc:format>image/svg+xml</dc:format>
        <dc:type
           rdf:resource="http://purl.org/dc/dcmitype/StillImage" />
      </cc:Work>
    </rdf:RDF>
  </metadata>
  <defs
     id="defs10" />
  <g
     color="#bebebe"
     transform="translate(-713 -97)"
     id="g4">
    <path
       d="M715 98v3h-1.5c-.277 0-.5.223-.5.5v1c0 .277.223.5.5.5h1.5v9h2v-9h1.5c.277 0 .5-.223.5-.5v-1c0-.277-.223-.5-.5-.5H717v-3zm5 0v9h-1.5c-.277 0-.5.223-.5.5v1c0 .277.223.5.5.5h1.5v3h2v-3h1.5c.277 0 .5-.223.5-.5v-1c0-.277-.223-.5-.5-.5H722v-9zm5 0v5h-1.5c-.277 0-.5.223-.5.5v1c0 .277.223.5.5.5h1.5v7h2v-7h1.5c.277 0 .5-.223.5-.5v-1c0-.277-.223-.5-.5-.5H727v-5z"
       fill="#666"
       overflow="visible"
       style="marker:none"
       id="path6" />
  </g>
</svg>
