<?xml version="1.0" encoding="UTF-8" standalone="no"?>
<svg
   xmlns:dc="http://purl.org/dc/elements/1.1/"
   xmlns:cc="http://creativecommons.org/ns#"
   xmlns:rdf="http://www.w3.org/1999/02/22-rdf-syntax-ns#"
   xmlns:svg="http://www.w3.org/2000/svg"
   xmlns="http://www.w3.org/2000/svg"
   version="1.1"
   id="svg2"
   width="16"
   height="16">
  <metadata
     id="metadata12">
    <rdf:RDF>
      <cc:Work
         rdf:about="">
        <dc:format>image/svg+xml</dc:format>
        <dc:type
           rdf:resource="http://purl.org/dc/dcmitype/StillImage" />
      </cc:Work>
    </rdf:RDF>
  </metadata>
  <defs
     id="defs10" />
  <g
     id="g4"
     transform="translate(-433 -77)">
    <path
       id="path6"
       style="isolation:auto;mix-blend-mode:normal"
       overflow="visible"
       fill-rule="evenodd"
       fill="#666"
       d="M445.5 78a2.5 2.5 0 0 0-2.5 2.5 2.5 2.5 0 0 0 .051.482l-4.846 2.694A2.5 2.5 0 0 0 436.5 83a2.5 2.5 0 0 0-2.5 2.5 2.5 2.5 0 0 0 2.5 2.5 2.5 2.5 0 0 0 1.717-.684l4.834 2.688a2.5 2.5 0 0 0-.05.496 2.5 2.5 0 0 0 2.5 2.5 2.5 2.5 0 0 0 2.5-2.5 2.5 2.5 0 0 0-2.5-2.5 2.5 2.5 0 0 0-1.722.688L438.947 86a2.5 2.5 0 0 0 .053-.5 2.5 2.5 0 0 0-.056-.514l4.828-2.683A2.5 2.5 0 0 0 445.5 83a2.5 2.5 0 0 0 2.5-2.5 2.5 2.5 0 0 0-2.5-2.5z"
       color="#000" />
  </g>
</svg>
