<?xml version="1.0" encoding="UTF-8" standalone="no"?>
<svg
   xmlns:dc="http://purl.org/dc/elements/1.1/"
   xmlns:cc="http://creativecommons.org/ns#"
   xmlns:rdf="http://www.w3.org/1999/02/22-rdf-syntax-ns#"
   xmlns:svg="http://www.w3.org/2000/svg"
   xmlns="http://www.w3.org/2000/svg"
   height="16"
   width="16"
   id="svg2"
   version="1.1">
  <metadata
     id="metadata12">
    <rdf:RDF>
      <cc:Work
         rdf:about="">
        <dc:format>image/svg+xml</dc:format>
        <dc:type
           rdf:resource="http://purl.org/dc/dcmitype/StillImage" />
      </cc:Work>
    </rdf:RDF>
  </metadata>
  <defs
     id="defs10" />
  <g
     transform="translate(-873 -77)"
     id="g4">
    <path
       color="#000"
       d="M874.385 80a.381.381 0 0 0-.385.379v1.242c0 .21.172.379.385.379h1.23c.214 0 .385-.17.385-.379V80.38a.381.381 0 0 0-.385-.379zm7.615.219L876.938 86H880v4h4v-4h3.188zm-7.615 3.797a.381.381 0 0 0-.385.379v1.242c0 .21.172.379.385.379h1.23a.381.381 0 0 0 .385-.38v-1.241a.381.381 0 0 0-.385-.38zm0 3.984a.381.381 0 0 0-.385.379v1.242c0 .21.172.379.385.379h1.23c.214 0 .385-.17.385-.379V88.38a.381.381 0 0 0-.385-.379z"
       fill="#666"
       overflow="visible"
       style="marker:none"
       id="path6" />
  </g>
</svg>
