<?xml version="1.0" encoding="UTF-8" standalone="no"?>
<svg
   xmlns:dc="http://purl.org/dc/elements/1.1/"
   xmlns:cc="http://creativecommons.org/ns#"
   xmlns:rdf="http://www.w3.org/1999/02/22-rdf-syntax-ns#"
   xmlns:svg="http://www.w3.org/2000/svg"
   xmlns="http://www.w3.org/2000/svg"
   version="1.1"
   id="svg2"
   width="16"
   height="16">
  <metadata
     id="metadata12">
    <rdf:RDF>
      <cc:Work
         rdf:about="">
        <dc:format>image/svg+xml</dc:format>
        <dc:type
           rdf:resource="http://purl.org/dc/dcmitype/StillImage" />
      </cc:Work>
    </rdf:RDF>
  </metadata>
  <defs
     id="defs10" />
  <g
     id="g4"
     transform="translate(-873 -57)"
     color="#bebebe">
    <path
       id="path6"
       style="marker:none"
       overflow="visible"
       fill="#666"
       d="M880 59v12h1V59zm-6 1v1h4v-1zm9.5 0s-.5 0-.5.5v3s0 .5.5.5h3s.5 0 .5-.5v-3s0-.5-.5-.5zm.5 1h2v2h-2zm-10 2v1h4v-1zm0 3v1h4v-1zm9.5 0s-.5 0-.5.5v3s0 .5.5.5h3s.5 0 .5-.5v-3s0-.5-.5-.5zm.5 1h2v2h-2zm-10 2v1h4v-1z" />
  </g>
</svg>
