<?xml version="1.0" encoding="UTF-8" standalone="no"?>
<!-- Created with Inkscape (http://www.inkscape.org/) -->

<svg
   xmlns:dc="http://purl.org/dc/elements/1.1/"
   xmlns:cc="http://creativecommons.org/ns#"
   xmlns:rdf="http://www.w3.org/1999/02/22-rdf-syntax-ns#"
   xmlns:svg="http://www.w3.org/2000/svg"
   xmlns="http://www.w3.org/2000/svg"
   xmlns:sodipodi="http://sodipodi.sourceforge.net/DTD/sodipodi-0.dtd"
   xmlns:inkscape="http://www.inkscape.org/namespaces/inkscape"
   version="1.1"
   width="16"
   height="16"
   id="svg7384"
   inkscape:version="0.48.3.1 r9886"
   sodipodi:docname="zoom-original-symbolic.svg">
  <sodipodi:namedview
     pagecolor="#ffffff"
     bordercolor="#666666"
     borderopacity="1"
     objecttolerance="10"
     gridtolerance="10"
     guidetolerance="10"
     inkscape:pageopacity="0"
     inkscape:pageshadow="2"
     inkscape:window-width="1004"
     inkscape:window-height="787"
     id="namedview32444"
     showgrid="true"
     inkscape:zoom="14.75"
     inkscape:cx="6.7229977"
     inkscape:cy="10.293267"
     inkscape:window-x="0"
     inkscape:window-y="24"
     inkscape:window-maximized="0"
     inkscape:current-layer="svg7384">
    <inkscape:grid
       type="xygrid"
       id="grid2983" />
  </sodipodi:namedview>
  <title
     id="title9167">Gnome Symbolic Icon Theme</title>
  <defs
     id="defs11" />
  <metadata
     id="metadata90">
    <rdf:RDF>
      <cc:Work
         rdf:about="">
        <dc:format>image/svg+xml</dc:format>
        <dc:type
           rdf:resource="http://purl.org/dc/dcmitype/StillImage" />
        <dc:title>Gnome Symbolic Icon Theme</dc:title>
      </cc:Work>
    </rdf:RDF>
  </metadata>
  <path
     d="m 8.65625,10.21875 4.46875,4.625 c 0.09558,0.105267 0.226186,0.164519 0.375,0.15625 0.148816,-0.0083 0.303095,-0.07119 0.40625,-0.1875 l 0.9375,-1.0625 c 0.191938,-0.220889 0.195486,-0.535924 0,-0.71875 L 10.25,8.625 z"
     id="path3220"
     style="color:#bebebe;fill:#bebebe;fill-opacity:1;fill-rule:nonzero;stroke:none;stroke-width:1;marker:none;visibility:visible;display:inline;overflow:visible;enable-background:accumulate"
     inkscape:connector-curvature="0"
     sodipodi:nodetypes="cccccccc" />
  <path
     style="fill:#bebebe;fill-opacity:1;stroke:none"
     d="M 11,11 11,7 9,7 9,9 7,9 7,11 z"
     id="path3875"
     inkscape:connector-curvature="0"
     sodipodi:nodetypes="ccccccc" />
  <path
     sodipodi:nodetypes="ccccccc"
     inkscape:connector-curvature="0"
     id="path3877"
     d="M 1,11 1,7 3,7 3,9 5,9 5,11 z"
     style="fill:#bebebe;fill-opacity:1;stroke:none" />
  <path
     style="fill:#bebebe;fill-opacity:1;stroke:none"
     d="M 1,1 5,1 5,3 3,3 3,5 1,5 z"
     id="path3879"
     inkscape:connector-curvature="0"
     sodipodi:nodetypes="ccccccc" />
  <path
     sodipodi:nodetypes="ccccccc"
     inkscape:connector-curvature="0"
     id="path3881"
     d="M 11,1 11,5 9,5 9,3 7,3 7,1 z"
     style="fill:#bebebe;fill-opacity:1;stroke:none" />
</svg>
