<?xml version="1.0" encoding="UTF-8" standalone="no"?>
<svg
   version="1.1"
   width="32"
   height="32"
   id="svg16113"
   sodipodi:docname="catfish.svg"
   inkscape:version="1.1.1 (3bf5ae0d25, 2021-09-20)"
   xmlns:inkscape="http://www.inkscape.org/namespaces/inkscape"
   xmlns:sodipodi="http://sodipodi.sourceforge.net/DTD/sodipodi-0.dtd"
   xmlns:xlink="http://www.w3.org/1999/xlink"
   xmlns="http://www.w3.org/2000/svg"
   xmlns:svg="http://www.w3.org/2000/svg"
   xmlns:rdf="http://www.w3.org/1999/02/22-rdf-syntax-ns#"
   xmlns:cc="http://creativecommons.org/ns#"
   xmlns:dc="http://purl.org/dc/elements/1.1/">
  <sodipodi:namedview
     id="namedview98"
     pagecolor="#ffffff"
     bordercolor="#666666"
     borderopacity="1.0"
     inkscape:pageshadow="2"
     inkscape:pageopacity="0.0"
     inkscape:pagecheckerboard="0"
     showgrid="false"
     inkscape:zoom="10.65625"
     inkscape:cx="-14.686217"
     inkscape:cy="22.146628"
     inkscape:window-width="1317"
     inkscape:window-height="890"
     inkscape:window-x="432"
     inkscape:window-y="76"
     inkscape:window-maximized="0"
     inkscape:current-layer="svg16113" />
  <defs
     id="defs16115">
    <linearGradient
       id="linearGradient3454-2-5-0-3-4">
      <stop
         id="stop3456-4-9-38-1-8"
         style="stop-color:#ffffff;stop-opacity:1"
         offset="0" />
      <stop
         id="stop3458-39-80-3-5-5"
         style="stop-color:#ffffff;stop-opacity:0.23529412"
         offset="0.0097359" />
      <stop
         id="stop3460-7-0-2-4-2"
         style="stop-color:#ffffff;stop-opacity:0.15686275"
         offset="0.99001008" />
      <stop
         id="stop3462-0-9-8-7-2"
         style="stop-color:#ffffff;stop-opacity:0.39215687"
         offset="1" />
    </linearGradient>
    <linearGradient
       id="linearGradient6129-963-697-142-998-580-273-5">
      <stop
         id="stop2661-1"
         style="stop-color:#0a0a0a;stop-opacity:0.498"
         offset="0" />
      <stop
         id="stop2663-85"
         style="stop-color:#0a0a0a;stop-opacity:0"
         offset="1" />
    </linearGradient>
    <linearGradient
       id="linearGradient4632-0-6-4-3-4">
      <stop
         id="stop4634-4-4-7-7-4"
         style="stop-color:#e9e9e9;stop-opacity:1"
         offset="0" />
      <stop
         id="stop4636-3-1-5-1-3"
         style="stop-color:#b4b4b4;stop-opacity:1"
         offset="1" />
    </linearGradient>
    <linearGradient
       id="linearGradient5048-585-0">
      <stop
         id="stop2667-18"
         style="stop-color:#000000;stop-opacity:0"
         offset="0" />
      <stop
         id="stop2669-9"
         style="stop-color:#000000;stop-opacity:1"
         offset="0.5" />
      <stop
         id="stop2671-33"
         style="stop-color:#000000;stop-opacity:0"
         offset="1" />
    </linearGradient>
    <linearGradient
       id="linearGradient5060-179-67">
      <stop
         id="stop2675-81"
         style="stop-color:#000000;stop-opacity:1"
         offset="0" />
      <stop
         id="stop2677-2"
         style="stop-color:#000000;stop-opacity:0"
         offset="1" />
    </linearGradient>
    <linearGradient
       id="linearGradient5060-820-4">
      <stop
         id="stop2681-5"
         style="stop-color:#000000;stop-opacity:1"
         offset="0" />
      <stop
         id="stop2683-00"
         style="stop-color:#000000;stop-opacity:0"
         offset="1" />
    </linearGradient>
    <linearGradient
       id="linearGradient4325">
      <stop
         id="stop4327"
         style="stop-color:#ffffff;stop-opacity:1"
         offset="0" />
      <stop
         id="stop4329"
         style="stop-color:#ffffff;stop-opacity:0.23529412"
         offset="0.1106325" />
      <stop
         id="stop4331"
         style="stop-color:#ffffff;stop-opacity:0.15686275"
         offset="0.99001008" />
      <stop
         id="stop4333"
         style="stop-color:#ffffff;stop-opacity:0.39215687"
         offset="1" />
    </linearGradient>
    <linearGradient
       id="linearGradient4646-7-4-3-5">
      <stop
         id="stop4648-8-0-3-6"
         style="stop-color:#f9f9f9;stop-opacity:1"
         offset="0" />
      <stop
         id="stop4650-1-7-3-4"
         style="stop-color:#d8d8d8;stop-opacity:1"
         offset="1" />
    </linearGradient>
    <linearGradient
       id="linearGradient3104-8-8-97-4-6-11-5-5-0">
      <stop
         id="stop3106-5-4-3-5-0-2-1-0-6"
         style="stop-color:#000000;stop-opacity:0.32173914"
         offset="0" />
      <stop
         id="stop3108-4-3-7-8-2-0-7-9-1"
         style="stop-color:#000000;stop-opacity:0.27826086"
         offset="1" />
    </linearGradient>
    <linearGradient
       xlink:href="#linearGradient3104-8-8-97-4-6-11-5-5-0"
       id="linearGradient3161"
       gradientUnits="userSpaceOnUse"
       gradientTransform="matrix(0.50703384,0,0,0.50300255,68.029659,1.329769)"
       x1="-51.786404"
       y1="53.514328"
       x2="-51.786404"
       y2="3.6336823" />
    <linearGradient
       xlink:href="#linearGradient4646-7-4-3-5"
       id="linearGradient3163"
       gradientUnits="userSpaceOnUse"
       gradientTransform="matrix(0.61904762,0,0,0.61904762,-30.391371,1.428569)"
       x1="62.988873"
       y1="13"
       x2="62.988873"
       y2="16" />
    <linearGradient
       xlink:href="#linearGradient4325"
       id="linearGradient3165"
       gradientUnits="userSpaceOnUse"
       gradientTransform="matrix(0.54383556,0,0,0.61466406,3.2693194,5.091139)"
       x1="21.37039"
       y1="4.73244"
       x2="21.37039"
       y2="34.143417" />
    <linearGradient
       xlink:href="#linearGradient5048-585-0"
       id="linearGradient3167"
       gradientUnits="userSpaceOnUse"
       gradientTransform="matrix(0.05114282,0,0,0.01591575,-2.4899573,22.29927)"
       x1="302.85715"
       y1="366.64789"
       x2="302.85715"
       y2="609.50507" />
    <radialGradient
       xlink:href="#linearGradient5060-179-67"
       id="radialGradient3169"
       gradientUnits="userSpaceOnUse"
       gradientTransform="matrix(0.01983573,0,0,0.01591575,16.38765,22.29927)"
       cx="605.71429"
       cy="486.64789"
       fx="605.71429"
       fy="486.64789"
       r="117.14286" />
    <radialGradient
       xlink:href="#linearGradient5060-820-4"
       id="radialGradient3171"
       gradientUnits="userSpaceOnUse"
       gradientTransform="matrix(-0.01983573,0,0,0.01591575,15.60139,22.29927)"
       cx="605.71429"
       cy="486.64789"
       fx="605.71429"
       fy="486.64789"
       r="117.14286" />
    <linearGradient
       xlink:href="#linearGradient4632-0-6-4-3-4"
       id="linearGradient3173"
       gradientUnits="userSpaceOnUse"
       gradientTransform="matrix(0.64444432,0,0,0.64285702,0.53395936,0.89285905)"
       x1="35.792694"
       y1="17.118193"
       x2="35.792694"
       y2="43.761127" />
    <linearGradient
       xlink:href="#linearGradient6129-963-697-142-998-580-273-5"
       id="linearGradient3175"
       gradientUnits="userSpaceOnUse"
       gradientTransform="matrix(0.7467531,0,0,0.6554922,-1.9214506,1.167619)"
       x1="22.934725"
       y1="49.629246"
       x2="22.809399"
       y2="36.657963" />
    <linearGradient
       xlink:href="#linearGradient3454-2-5-0-3-4"
       id="linearGradient3177"
       gradientUnits="userSpaceOnUse"
       gradientTransform="matrix(0.89186139,0,0,1.0539115,3.1212694,5.412539)"
       x1="27.557428"
       y1="7.162672"
       x2="27.557428"
       y2="21.386522" />
    <linearGradient
       inkscape:collect="always"
       xlink:href="#linearGradient2755"
       id="linearGradient2757"
       x1="4.8997488"
       y1="3.4159844"
       x2="4.8997488"
       y2="10.602132"
       gradientUnits="userSpaceOnUse"
       gradientTransform="matrix(0.95238093,0,0,0.95238093,9.0980747,12.099114)" />
    <linearGradient
       inkscape:collect="always"
       id="linearGradient2755">
      <stop
         style="stop-color:#ffffff;stop-opacity:1;"
         offset="0"
         id="stop2751" />
      <stop
         style="stop-color:#ffffff;stop-opacity:0;"
         offset="1"
         id="stop2753" />
    </linearGradient>
    <linearGradient
       inkscape:collect="always"
       xlink:href="#linearGradient2366"
       id="linearGradient2368"
       x1="14.44391"
       y1="22.071005"
       x2="19.081802"
       y2="17.433111"
       gradientUnits="userSpaceOnUse"
       gradientTransform="translate(7.9162402,10.917332)" />
    <linearGradient
       inkscape:collect="always"
       id="linearGradient2366">
      <stop
         style="stop-color:#a3907c;stop-opacity:1"
         offset="0"
         id="stop2362" />
      <stop
         style="stop-color:#f9c440;stop-opacity:1"
         offset="1"
         id="stop2364" />
    </linearGradient>
  </defs>
  <metadata
     id="metadata16118">
    <rdf:RDF>
      <cc:Work
         rdf:about="">
        <dc:format>image/svg+xml</dc:format>
        <dc:type
           rdf:resource="http://purl.org/dc/dcmitype/StillImage" />
      </cc:Work>
    </rdf:RDF>
  </metadata>
  <g
     id="g3148"
     transform="translate(0,-0.99999995)">
    <path
       d="m 4.0006194,6.500079 c -0.43342,0.005 -0.5,0.21723 -0.5,0.6349 l 0,1.36502 c -1.24568,0 -1,-0.002 -1,0.54389 0.0216,6.53313 0,6.90143 0,7.456109 0.90135,0 26.9999996,-2.348949 26.9999996,-3.360049 l 0,-4.09606 c 0,-0.41767 -0.34799,-0.54876 -0.78141,-0.54389 l -14.21859,0 0,-1.36502 c 0,-0.41767 -0.26424,-0.63977 -0.69767,-0.6349 l -9.8023296,0 z"
       id="use7669"
       style="opacity:0.8;color:#000000;fill:none;stroke:url(#linearGradient3161);stroke-width:1;stroke-linecap:butt;stroke-linejoin:miter;stroke-miterlimit:4;stroke-opacity:1;stroke-dasharray:none;stroke-dashoffset:0;marker:none;visibility:visible;display:inline;overflow:visible;enable-background:accumulate" />
    <path
       d="m 4.0006194,6.999999 0,2 -1,0 0,4 25.9999996,0 0,-4 -15,0 0,-2 -9.9999996,0 z"
       id="use7671"
       style="color:#000000;fill:url(#linearGradient3163);fill-opacity:1;fill-rule:nonzero;stroke:none;stroke-width:1;marker:none;visibility:visible;display:inline;overflow:visible;enable-background:accumulate" />
    <path
       d="m 4.5006194,7.499999 0,2 -1,0 0,4 24.9999996,0 0,-4 -15,0 0,-2 -8.9999996,0 z"
       id="use7673"
       style="color:#000000;fill:none;stroke:url(#linearGradient3165);stroke-width:1;stroke-linecap:round;stroke-linejoin:miter;stroke-miterlimit:4;stroke-opacity:1;stroke-dasharray:none;stroke-dashoffset:0;marker:none;visibility:visible;display:inline;overflow:visible;enable-background:accumulate" />
    <g
       transform="translate(6.1935663e-4,-1.000001)"
       id="use7675">
      <rect
         width="24.694677"
         height="3.8652544"
         x="3.6471815"
         y="28.134747"
         id="rect14880"
         style="opacity:0.3;fill:url(#linearGradient3167);fill-opacity:1;fill-rule:nonzero;stroke:none;stroke-width:1;marker:none;visibility:visible;display:inline;overflow:visible" />
      <path
         d="m 28.341859,28.13488 c 0,0 0,3.865041 0,3.865041 1.021491,0.0073 2.469468,-0.86596 2.469468,-1.932769 0,-1.06681 -1.139908,-1.932272 -2.469468,-1.932272 z"
         id="path14882"
         style="opacity:0.3;fill:url(#radialGradient3169);fill-opacity:1;fill-rule:nonzero;stroke:none;stroke-width:1;marker:none;visibility:visible;display:inline;overflow:visible" />
      <path
         d="m 3.6471816,28.13488 c 0,0 0,3.865041 0,3.865041 -1.0214912,0.0073 -2.4694678,-0.86596 -2.4694678,-1.932769 0,-1.06681 1.1399068,-1.932272 2.4694678,-1.932272 z"
         id="path14884"
         style="opacity:0.3;fill:url(#radialGradient3171);fill-opacity:1;fill-rule:nonzero;stroke:none;stroke-width:1;marker:none;visibility:visible;display:inline;overflow:visible" />
    </g>
    <path
       d="m 1.9274594,11.499999 c -0.69105,0.0796 -0.32196,0.90258 -0.37705,1.36535 0.0802,0.29906 0.59771,15.717989 0.59771,16.247439 0,0.46018 0.22667,0.38222 0.80101,0.38222 8.4993996,0 17.8980796,0 26.3974796,0 0.61872,0.0143 0.48796,0.007 0.48796,-0.38947 0.0452,-0.20269 0.63993,-16.978479 0.66282,-17.243439 0,-0.279 0.0581,-0.3621 -0.30493,-0.3621 -9.0765,0 -19.18849,0 -28.2649996,0 z"
       id="use7677"
       style="color:#000000;fill:url(#linearGradient3173);fill-opacity:1;fill-rule:nonzero;stroke:none;stroke-width:0.99999994;marker:none;visibility:visible;display:inline;overflow:visible;enable-background:accumulate" />
    <path
       d="m 1.6824394,10.999999 28.6363696,2.7e-4 c 0.4137,0 0.68181,0.29209 0.68181,0.65523 l -0.6735,17.712109 c 0.01,0.45948 -0.1364,0.64166 -0.61707,0.63203 l -27.2561296,-0.0115 c -0.4137,0 -0.83086,-0.27118 -0.83086,-0.63432 l -0.62244,-17.698289 c 0,-0.36314 0.26812,-0.65549 0.68182,-0.65549 z"
       id="use7679"
       style="opacity:0.4;fill:url(#linearGradient3175);fill-opacity:1;stroke:none" />
    <path
       d="m 2.5006194,12.499999 0.62498,15.999999 25.7491696,0 0.62498,-15.999999 z"
       id="use7681"
       style="opacity:0.5;color:#000000;fill:none;stroke:url(#linearGradient3177);stroke-width:1.00000012;stroke-linecap:round;stroke-linejoin:miter;stroke-miterlimit:4;stroke-opacity:1;stroke-dasharray:none;stroke-dashoffset:0;marker:none;visibility:visible;display:inline;overflow:visible;enable-background:accumulate" />
    <path
       d="m 1.9270194,11.499999 c -0.69105,0.0796 -0.32196,0.90258 -0.37705,1.36535 0.0802,0.29906 0.59771,15.717989 0.59771,16.247439 0,0.46018 0.22667,0.38222 0.80101,0.38222 8.4993996,0 17.8980796,0 26.3974796,0 0.61872,0.0143 0.48796,0.007 0.48796,-0.38947 0.0452,-0.20269 0.63993,-16.978479 0.66282,-17.243439 0,-0.279 0.0581,-0.3621 -0.30493,-0.3621 -9.0765,0 -19.18849,0 -28.2649996,0 z"
       id="path3388-5-0"
       style="opacity:0.3;color:#000000;fill:none;stroke:#000000;stroke-width:0.99999994;stroke-linecap:round;stroke-linejoin:round;stroke-miterlimit:4;stroke-opacity:1;stroke-dasharray:none;stroke-dashoffset:0;marker:none;visibility:visible;display:inline;overflow:visible;enable-background:accumulate" />
  </g>
  <path
     id="path1118"
     style="fill:#8cd5ff;fill-opacity:1;stroke:none;stroke-width:0.5;stroke-linejoin:round;stroke-miterlimit:4;stroke-dasharray:none;stroke-opacity:1;paint-order:stroke markers fill"
     d="m 12.257362,15.259807 c -2.3431464,2.343147 -2.3431444,6.142134 -1e-6,8.48528 2.343147,2.343147 6.142135,2.343147 8.485282,2e-6 2.343146,-2.343148 2.343146,-6.142135 0,-8.485283 -2.343147,-2.343147 -6.142135,-2.343145 -8.485281,1e-6 z m 1.278657,1.673855 c 0.744745,-0.860145 1.826226,-1.354606 2.963983,-1.355147 2.167324,-4.73e-4 3.924406,1.756609 3.923933,3.923933 4.73e-4,2.167324 -1.756609,3.924407 -3.923934,3.923932 -2.167322,4.73e-4 -3.924404,-1.756608 -3.923931,-3.923932 5.49e-4,-0.943861 0.341371,-1.855884 0.959949,-2.568786 z"
     sodipodi:nodetypes="ssssscccccc" />
  <circle
     style="opacity:0.3;fill:#ffffff;fill-opacity:1;stroke:none;stroke-width:0.991997;stroke-linecap:round;stroke-linejoin:round;stroke-opacity:0.498039;paint-order:stroke fill markers"
     id="path18198"
     cx="16.499998"
     cy="19.499998"
     r="3" />
  <path
     style="color:#000000;fill:url(#linearGradient2368);fill-opacity:1;stroke-linejoin:round;-inkscape-stroke:none;paint-order:fill markers stroke"
     d="m 20.213879,24.277043 c -0.188216,0.18768 -0.1967,0.489814 -0.01933,0.68777 l 5.05581,5.974773 c 0.191669,0.213844 0.523664,0.222675 0.726441,0.01933 l 2.05023,-2.05023 c 0.20334,-0.202777 0.194504,-0.534769 -0.01933,-0.726441 l -6.04466,-4.985643 c -0.197961,-0.17737 -0.500088,-0.168876 -0.687772,0.01933 z"
     id="path44716"
     sodipodi:nodetypes="ccccccccc" />
  <path
     style="fill:none;stroke:#715344;stroke-width:1px;stroke-linecap:butt;stroke-linejoin:round;stroke-opacity:0.5"
     d="m 25.622958,31.312756 2.757336,-2.757336 -6.751486,-5.693032 -1.768485,1.768209 z"
     id="path44171"
     sodipodi:nodetypes="ccccc" />
  <path
     style="opacity:0.6;fill:none;fill-opacity:1;stroke:#ffffff;stroke-width:0.999998px;stroke-linecap:butt;stroke-linejoin:miter;stroke-opacity:1"
     d="m 21.309597,23.965381 5.811773,4.953118"
     id="path5321"
     sodipodi:nodetypes="cc" />
  <circle
     style="opacity:0.5;fill:none;fill-opacity:1;stroke:#002e99;stroke-width:0.999998;stroke-linejoin:round;stroke-miterlimit:4;stroke-dasharray:none;stroke-opacity:1;paint-order:stroke markers fill"
     id="path1558"
     cx="-2.1213186"
     cy="25.455841"
     r="4.0031424"
     transform="rotate(-45)" />
  <circle
     style="opacity:0.6;fill:none;fill-opacity:1;stroke:url(#linearGradient2757);stroke-width:1;stroke-linejoin:round;stroke-miterlimit:4;stroke-dasharray:none;stroke-opacity:1;paint-order:stroke markers fill"
     id="path2543"
     cx="16.499996"
     cy="19.499996"
     r="5" />
  <ellipse
     style="opacity:0.5;fill:none;stroke:#002e99;stroke-width:0.999997;stroke-linejoin:round;stroke-opacity:1;paint-order:stroke markers fill"
     id="path859"
     cx="16.499998"
     cy="19.499998"
     rx="6"
     ry="5.9999995" />
</svg>
