<?xml version="1.0" encoding="UTF-8" standalone="no"?>
<svg
   xmlns:dc="http://purl.org/dc/elements/1.1/"
   xmlns:cc="http://creativecommons.org/ns#"
   xmlns:rdf="http://www.w3.org/1999/02/22-rdf-syntax-ns#"
   xmlns:svg="http://www.w3.org/2000/svg"
   xmlns="http://www.w3.org/2000/svg"
   xmlns:xlink="http://www.w3.org/1999/xlink"
   id="svg3347"
   height="32"
   width="32"
   version="1.0">
  <metadata
     id="metadata190979">
    <rdf:RDF>
      <cc:Work
         rdf:about="">
        <dc:format>image/svg+xml</dc:format>
        <dc:type
           rdf:resource="http://purl.org/dc/dcmitype/StillImage" />
      </cc:Work>
    </rdf:RDF>
  </metadata>
  <defs
     id="defs3349">
    <linearGradient
       id="linearGradient10691-1">
      <stop
         offset="0"
         style="stop-color:#000000;stop-opacity:1"
         id="stop10693-3" />
      <stop
         offset="1"
         style="stop-color:#000000;stop-opacity:0"
         id="stop10695-1" />
    </linearGradient>
    <radialGradient
       gradientTransform="matrix(1.2450862,0,0,0.2766858,7.6545456,8.631578)"
       gradientUnits="userSpaceOnUse"
       xlink:href="#linearGradient10691-1"
       id="radialGradient2557"
       fy="73.615715"
       fx="6.702713"
       r="7.228416"
       cy="73.615715"
       cx="6.702713" />
    <linearGradient
       id="linearGradient3962">
      <stop
         offset="0"
         style="stop-color:#464646;stop-opacity:1"
         id="stop3964" />
      <stop
         offset="0.23349524"
         style="stop-color:#969696;stop-opacity:1"
         id="stop3968" />
      <stop
         offset="0.34358323"
         style="stop-color:#aaaaaa;stop-opacity:1"
         id="stop3970" />
      <stop
         offset="1"
         style="stop-color:#646464;stop-opacity:1"
         id="stop3972" />
    </linearGradient>
    <linearGradient
       gradientTransform="matrix(0.6843014,0,0,0.6062554,-52.461444,3.1287517)"
       gradientUnits="userSpaceOnUse"
       xlink:href="#linearGradient3962"
       id="linearGradient2554"
       y2="44.323311"
       x2="98.584404"
       y1="36.075962"
       x1="98.584404" />
    <linearGradient
       id="linearGradient3178">
      <stop
         offset="0"
         style="stop-color:#787878;stop-opacity:1"
         id="stop3180" />
      <stop
         offset="0.24005625"
         style="stop-color:#c8c8c8;stop-opacity:1"
         id="stop3184" />
      <stop
         offset="0.33494958"
         style="stop-color:#e6e6e6;stop-opacity:1"
         id="stop3186" />
      <stop
         offset="1"
         style="stop-color:#8c8c8c;stop-opacity:1"
         id="stop3188" />
    </linearGradient>
    <linearGradient
       gradientTransform="matrix(0.681844,0,0,0.6063426,-254.2496,-27.797984)"
       gradientUnits="userSpaceOnUse"
       xlink:href="#linearGradient3178"
       id="linearGradient2552"
       y2="95.365944"
       x2="397.07306"
       y1="87.076035"
       x1="397.07306" />
    <linearGradient
       id="linearGradient3342-3">
      <stop
         offset="0"
         style="stop-color:#ffffff;stop-opacity:0"
         id="stop3344-0" />
      <stop
         offset="1"
         style="stop-color:#ffffff;stop-opacity:1"
         id="stop3346-3" />
    </linearGradient>
    <linearGradient
       spreadMethod="reflect"
       gradientTransform="matrix(0.7274459,0,0,0.6589186,-1.151775,-2.450068)"
       gradientUnits="userSpaceOnUse"
       xlink:href="#linearGradient3342-3"
       id="linearGradient2549"
       y2="46.971004"
       x2="23.578077"
       y1="46.971004"
       x1="15.573899" />
    <linearGradient
       id="linearGradient3654">
      <stop
         offset="0"
         style="stop-color:#76de98;stop-opacity:1"
         id="stop3656" />
      <stop
         offset="0.5"
         style="stop-color:#37b862;stop-opacity:1"
         id="stop3658" />
      <stop
         offset="1"
         style="stop-color:#2f7b48;stop-opacity:1"
         id="stop3660" />
    </linearGradient>
    <radialGradient
       gradientTransform="matrix(1.1539587,0,2.5614294e-3,0.9264253,-6.1701773,3.7550591)"
       gradientUnits="userSpaceOnUse"
       xlink:href="#linearGradient3654"
       id="radialGradient2545"
       fy="4.8630676"
       fx="12.244348"
       r="20.999998"
       cy="4.8630676"
       cx="12.244348" />
    <linearGradient
       id="linearGradient6592-2-7-1">
      <stop
         offset="0"
         style="stop-color:#ffffff;stop-opacity:0.27450982"
         id="stop6594-0-2-4" />
      <stop
         offset="1"
         style="stop-color:#ffffff;stop-opacity:0"
         id="stop6596-2-5-3" />
    </linearGradient>
    <linearGradient
       gradientTransform="matrix(0.7142858,0,0,0.866666,-1.1428573,0.4000017)"
       gradientUnits="userSpaceOnUse"
       xlink:href="#linearGradient6592-2-7-1"
       id="linearGradient2542"
       y2="19.8125"
       x2="15.25"
       y1="8.4375"
       x1="12.9375" />
    <linearGradient
       id="linearGradient3202">
      <stop
         offset="0"
         style="stop-color:#ffffff;stop-opacity:1"
         id="stop3204" />
      <stop
         offset="1"
         style="stop-color:#d3fce1;stop-opacity:1"
         id="stop3206" />
    </linearGradient>
    <linearGradient
       gradientTransform="matrix(0.4211262,-0.101411,0.1008249,0.4235749,52.062512,-4.3075088e-2)"
       gradientUnits="userSpaceOnUse"
       xlink:href="#linearGradient3202"
       id="linearGradient3338"
       y2="27.521217"
       x2="-92.222527"
       y1="-7.8379993"
       x1="-83.756935" />
  </defs>
  <g
     id="layer1">
    <path
       style="opacity:0.3;fill:url(#radialGradient2557);fill-opacity:1;fill-rule:nonzero;stroke:none;stroke-width:0.80000001;marker:none;visibility:visible;display:inline;overflow:visible"
       id="path2589"
       d="M 25,29 C 25,30.10457 20.970562,31 15.999999,31 C 11.029436,31 7,30.10457 7,29 C 7,27.895431 11.029436,27 15.999999,27 C 20.970562,27 25,27.895431 25,29 L 25,29 z" />
    <path
       style="fill:url(#linearGradient2552);fill-opacity:1;fill-rule:nonzero;stroke:url(#linearGradient2554);stroke-width:0.99827468;stroke-linecap:round;stroke-linejoin:round;marker:none;stroke-miterlimit:4;stroke-dasharray:none;stroke-dashoffset:0.50000001;stroke-opacity:1;visibility:visible;display:inline;overflow:visible;enable-background:new"
       id="rect1789-8"
       d="M 11.798578,24.5 C 11.798578,24.5 11.895578,26.398544 11.411765,27 C 10.927949,27.601454 9.9652422,27.5 9.9652422,27.5 C 9.3474772,27.56319 9.3423672,29.5 9.9652422,29.5 L 22.034709,29.5 C 22.657585,29.5 22.652603,27.562381 22.034709,27.5 C 22.034709,27.5 21.072045,27.60147 20.588235,27 C 20.104425,26.398546 20.201372,24.5 20.201372,24.5 L 11.798578,24.5 z" />
    <path
       style="fill:none;stroke:url(#linearGradient2549);stroke-width:1px;stroke-linecap:square;stroke-linejoin:miter;stroke-opacity:1"
       id="path3340-3"
       d="M 10.541117,28.5 L 21.458883,28.5" />
    <rect
       style="fill:#1a1a1a;fill-opacity:1;stroke:#000000;stroke-width:1.00023937;stroke-linecap:round;stroke-linejoin:round;stroke-miterlimit:4;stroke-dasharray:none;stroke-dashoffset:0.50000001;stroke-opacity:1"
       id="rect2722"
       y="2.5001197"
       x="0.49999428"
       ry="0.6666643"
       rx="0.68889284"
       height="21.99976"
       width="31.000011" />
    <rect
       style="fill:url(#radialGradient2545);fill-opacity:1;fill-rule:evenodd;stroke:none;display:inline;enable-background:new"
       id="rect2716"
       y="4"
       x="2"
       height="19"
       width="28" />
    <path
       style="fill:url(#linearGradient2542);fill-opacity:1;stroke:none"
       id="rect6588"
       d="M 0.99999999,3 L 31,3 L 31,9.9333362 L 0.99999999,16 L 0.99999999,3 z" />
    <path
       style="fill:#1f6235;fill-opacity:1;fill-rule:nonzero;stroke:none;stroke-width:1.00278974;marker:none;visibility:visible;display:inline;overflow:visible"
       id="path3343"
       d="M 20.262501,5.0030671 C 20.03079,4.9794096 19.800425,5.0935616 19.681374,5.3126976 L 14.608934,14.64757 L 11.347684,12.039391 C 11.057186,11.879729 10.694743,11.982443 10.536007,12.274629 L 9.0735233,14.163183 C 8.9147887,14.455366 9.0215731,14.81981 9.3120712,14.979467 C 9.3120712,14.979467 15.266706,19.926076 15.274055,19.929736 C 15.342138,19.967158 15.413336,19.985986 15.485713,19.995189 C 15.722137,20.025233 15.964087,19.913508 16.085619,19.689807 L 22.926477,7.1005641 C 23.085212,6.8083785 22.978425,6.4439371 22.68793,6.2842764 L 20.49294,5.072768 C 20.420314,5.0328473 20.339739,5.0109514 20.262501,5.0030671 z" />
    <path
       style="fill:url(#linearGradient3338);fill-opacity:1;fill-rule:nonzero;stroke:none;stroke-width:1.00278974;marker:none;visibility:visible;display:inline;overflow:visible"
       id="path4368"
       d="M 20.262501,5.9673524 C 20.03079,5.9436949 19.800425,6.0578469 19.681374,6.2769829 L 14.608934,15.611855 L 11.347684,13.003676 C 11.057186,12.844014 10.694743,12.946728 10.536007,13.238914 L 9.0735233,15.127468 C 8.9147887,15.419651 9.0215731,15.784095 9.3120712,15.943752 C 9.3120712,15.943752 15.266706,20.890361 15.274055,20.894021 C 15.342138,20.931443 15.413336,20.950271 15.485713,20.959474 C 15.722137,20.989518 15.964087,20.877793 16.085619,20.654092 L 22.926477,8.0648494 C 23.085212,7.7726638 22.978425,7.4082224 22.68793,7.2485617 L 20.49294,6.0370533 C 20.420314,5.9971326 20.339739,5.9752367 20.262501,5.9673524 z" />
  </g>
</svg>
