<?xml version="1.0" encoding="UTF-8" standalone="no"?>
<!-- Created with Inkscape (http://www.inkscape.org/) -->

<svg
   xmlns:dc="http://purl.org/dc/elements/1.1/"
   xmlns:cc="http://creativecommons.org/ns#"
   xmlns:rdf="http://www.w3.org/1999/02/22-rdf-syntax-ns#"
   xmlns:svg="http://www.w3.org/2000/svg"
   xmlns="http://www.w3.org/2000/svg"
   xmlns:xlink="http://www.w3.org/1999/xlink"
   xmlns:sodipodi="http://sodipodi.sourceforge.net/DTD/sodipodi-0.dtd"
   xmlns:inkscape="http://www.inkscape.org/namespaces/inkscape"
   width="32"
   height="32"
   id="svg4117"
   version="1.1"
   inkscape:version="0.48.4 r9939"
   sodipodi:docname="chromium-browser.svg">
  <defs
     id="defs4119">
    <radialGradient
       inkscape:collect="always"
       xlink:href="#linearGradient8838-08-7-6"
       id="radialGradient5533"
       gradientUnits="userSpaceOnUse"
       gradientTransform="matrix(1.378058,0,0,0.47944812,63.699118,79.688588)"
       cx="62.625"
       cy="4.625"
       fx="62.625"
       fy="4.625"
       r="10.625" />
    <linearGradient
       id="linearGradient8838-08-7-6">
      <stop
         id="stop8840-85-9-6"
         style="stop-color:#000000;stop-opacity:1"
         offset="0" />
      <stop
         id="stop8842-0-3-1"
         style="stop-color:#000000;stop-opacity:0"
         offset="1" />
    </linearGradient>
    <radialGradient
       inkscape:collect="always"
       xlink:href="#linearGradient4029-0-2"
       id="radialGradient4058-9-2-8"
       cx="47.917099"
       cy="37.30619"
       fx="47.917099"
       fy="37.30619"
       r="53.035713"
       gradientUnits="userSpaceOnUse"
       gradientTransform="matrix(-1.3414675,1.4686295,-1.4846702,-1.3561193,172.34521,-1.1127437)" />
    <linearGradient
       id="linearGradient4029-0-2">
      <stop
         style="stop-color:#87accd;stop-opacity:1;"
         offset="0"
         id="stop4031-7-8" />
      <stop
         id="stop4062-3-8-5"
         offset="0.28728491"
         style="stop-color:#6b96c1;stop-opacity:1;" />
      <stop
         id="stop4060-0-2-4"
         offset="0.59072286"
         style="stop-color:#477ba9;stop-opacity:1;" />
      <stop
         style="stop-color:#325978;stop-opacity:1;"
         offset="1"
         id="stop4033-0-3" />
    </linearGradient>
    <radialGradient
       inkscape:collect="always"
       xlink:href="#linearGradient3277"
       id="radialGradient5529"
       gradientUnits="userSpaceOnUse"
       gradientTransform="matrix(-0.13174792,0.17363475,-0.20830686,-0.15815911,156.50153,47.090568)"
       cx="51.798981"
       cy="-0.038070802"
       fx="51.798981"
       fy="-0.038070802"
       r="48.6875" />
    <linearGradient
       id="linearGradient3277">
      <stop
         id="stop3279"
         offset="0"
         style="stop-color:#6d95bf;stop-opacity:1;" />
      <stop
         id="stop3281"
         offset="1"
         style="stop-color:#4674a0;stop-opacity:1;" />
    </linearGradient>
    <radialGradient
       inkscape:collect="always"
       xlink:href="#linearGradient4051"
       id="radialGradient5526"
       gradientUnits="userSpaceOnUse"
       gradientTransform="matrix(0.27305142,0.92792498,-1.0803444,0.31811034,583.38468,-287.06802)"
       cx="226.45587"
       cy="450.74283"
       fx="226.45587"
       fy="450.74283"
       r="30.253544" />
    <linearGradient
       id="linearGradient4051">
      <stop
         id="stop4053"
         offset="0"
         style="stop-color:#d0e2f1;stop-opacity:1" />
      <stop
         id="stop4055"
         offset="1"
         style="stop-color:#9ac1e2;stop-opacity:1" />
    </linearGradient>
    <radialGradient
       inkscape:collect="always"
       xlink:href="#linearGradient4057"
       id="radialGradient5523"
       gradientUnits="userSpaceOnUse"
       gradientTransform="matrix(-0.93671513,-0.14680141,0.12255901,-0.78253915,283.45566,438.81134)"
       cx="211.65784"
       cy="435.55545"
       fx="211.65784"
       fy="435.55545"
       r="37.57291" />
    <linearGradient
       id="linearGradient4057">
      <stop
         id="stop4059"
         offset="0"
         style="stop-color:#93badf;stop-opacity:1" />
      <stop
         id="stop4061"
         offset="1"
         style="stop-color:#4d8bcb;stop-opacity:1" />
    </linearGradient>
    <linearGradient
       inkscape:collect="always"
       xlink:href="#linearGradient4191-4-0-0"
       id="linearGradient5517"
       gradientUnits="userSpaceOnUse"
       gradientTransform="matrix(0.26621572,0,0,0.25717022,132.96219,54.034162)"
       x1="62.392857"
       y1="155.375"
       x2="62.004467"
       y2="68.946434" />
    <linearGradient
       inkscape:collect="always"
       id="linearGradient4191-4-0-0">
      <stop
         style="stop-color:#000000;stop-opacity:1;"
         offset="0"
         id="stop4193-4-7-7" />
      <stop
         style="stop-color:#000000;stop-opacity:0;"
         offset="1"
         id="stop4195-7-9-3" />
    </linearGradient>
    <linearGradient
       y2="44.340794"
       x2="71.204407"
       y1="6.2375584"
       x1="71.204407"
       gradientTransform="matrix(0.75675667,0,0,0.75675667,100.0009,158.3872)"
       gradientUnits="userSpaceOnUse"
       id="linearGradient3035"
       xlink:href="#linearGradient4011"
       inkscape:collect="always" />
    <linearGradient
       id="linearGradient4011">
      <stop
         id="stop4013"
         style="stop-color:#ffffff;stop-opacity:1;"
         offset="0" />
      <stop
         offset="0.507761"
         style="stop-color:#ffffff;stop-opacity:0.23529412;"
         id="stop4015" />
      <stop
         id="stop4017"
         style="stop-color:#ffffff;stop-opacity:0.15686275;"
         offset="0.83456558" />
      <stop
         id="stop4019"
         style="stop-color:#ffffff;stop-opacity:0.39215687;"
         offset="1" />
    </linearGradient>
    <linearGradient
       y2="44.340794"
       x2="71.204407"
       y1="6.2375584"
       x1="71.204407"
       gradientTransform="matrix(0.75675667,0,0,0.75675667,162.85803,164.1014)"
       gradientUnits="userSpaceOnUse"
       id="linearGradient3057"
       xlink:href="#linearGradient4011"
       inkscape:collect="always" />
  </defs>
  <sodipodi:namedview
     id="base"
     pagecolor="#ffffff"
     bordercolor="#666666"
     borderopacity="1.0"
     inkscape:pageopacity="0.0"
     inkscape:pageshadow="2"
     inkscape:zoom="21.624876"
     inkscape:cx="15.571412"
     inkscape:cy="15.907611"
     inkscape:document-units="px"
     inkscape:current-layer="layer1"
     showgrid="false"
     fit-margin-top="0"
     fit-margin-left="0"
     fit-margin-right="0"
     fit-margin-bottom="0"
     inkscape:window-width="1177"
     inkscape:window-height="988"
     inkscape:window-x="590"
     inkscape:window-y="388"
     inkscape:window-maximized="0" />
  <metadata
     id="metadata4122">
    <rdf:RDF>
      <cc:Work
         rdf:about="">
        <dc:format>image/svg+xml</dc:format>
        <dc:type
           rdf:resource="http://purl.org/dc/dcmitype/StillImage" />
        <dc:title />
      </cc:Work>
    </rdf:RDF>
  </metadata>
  <g
     inkscape:label="Capa 1"
     inkscape:groupmode="layer"
     id="layer1"
     transform="translate(-201.14285,-167.79066)">
    <g
       transform="translate(67.142857,112.79066)"
       style="display:inline;enable-background:new"
       id="g5600">
      <path
         transform="matrix(0.13190938,0,0,0.13195244,143.05119,61.812909)"
         d="m 105.71428,65.678574 c 0,29.290815 -23.744895,53.035716 -53.03571,53.035716 -29.290816,0 -53.0357134,-23.744901 -53.0357134,-53.035716 0,-29.290816 23.7448974,-53.035714 53.0357134,-53.035714 29.290815,0 53.03571,23.744898 53.03571,53.035714 z"
         sodipodi:ry="53.035713"
         sodipodi:rx="53.035713"
         sodipodi:cy="65.678574"
         sodipodi:cx="52.67857"
         id="path3094-9-6-6-7-7"
         style="color:#000000;fill:#ffffff;fill-opacity:1;fill-rule:nonzero;stroke:none;stroke-width:2.01817131;marker:none;visibility:visible;display:inline;overflow:visible;enable-background:accumulate"
         sodipodi:type="arc" />
      <path
         style="opacity:0.5;fill:url(#radialGradient5533);fill-opacity:1;fill-rule:evenodd;stroke:none;stroke-width:1;marker:none;visibility:visible;display:inline;overflow:visible"
         id="path8836-3-6-0"
         d="m 164.64186,81.906042 c 0,2.813416 -6.55539,5.094142 -14.64187,5.094142 -8.08648,0 -14.64186,-2.280726 -14.64186,-5.094142 0,-2.813421 6.55538,-5.094148 14.64186,-5.094148 8.08648,0 14.64187,2.280727 14.64187,5.094148 l 0,0 z"
         inkscape:connector-curvature="0" />
      <path
         transform="matrix(0.07901543,0,0,0.07901543,145.83758,64.810382)"
         d="m 105.71428,65.678574 c 0,29.290815 -23.744895,53.035716 -53.03571,53.035716 -29.290816,0 -53.0357134,-23.744901 -53.0357134,-53.035716 0,-29.290816 23.7448974,-53.035714 53.0357134,-53.035714 29.290815,0 53.03571,23.744898 53.03571,53.035714 z"
         sodipodi:ry="53.035713"
         sodipodi:rx="53.035713"
         sodipodi:cy="65.678574"
         sodipodi:cx="52.67857"
         id="path3094-9-1-9-7"
         style="color:#000000;fill:url(#radialGradient4058-9-2-8);fill-opacity:1;fill-rule:nonzero;stroke:#325778;stroke-width:12.65575981;stroke-miterlimit:4;stroke-opacity:1;stroke-dasharray:none;marker:none;visibility:visible;display:inline;overflow:visible;enable-background:accumulate"
         sodipodi:type="arc" />
      <path
         inkscape:connector-curvature="0"
         id="path3094-0-7-3-1"
         d="m 150,55.5 c -5.16891,0 -9.7152,2.60917 -12.40625,6.59375 l 6.125,10.5625 0.0312,-0.03125 c -0.22957,-0.671374 -0.34375,-1.406841 -0.34375,-2.15625 0,-0.566491 0.0848,-1.117235 0.21875,-1.65625 0.0213,-0.114907 0.0353,-0.231049 0.0625,-0.34375 C 144.37641,65.618474 146.93807,63.5 150,63.5 c 0.39488,0 0.78078,0.02629 1.15625,0.09375 0.0512,0.0092 0.10547,0.02086 0.15625,0.03125 0.0288,0.0048 0.0666,-0.0052 0.0937,0 L 163.5,64 c -2.41841,-5.020663 -7.55576,-8.5 -13.5,-8.5 z"
         style="color:#000000;fill:url(#radialGradient5529);fill-opacity:1;fill-rule:nonzero;stroke:#345676;stroke-width:1.00000012;stroke-miterlimit:4;stroke-opacity:1;stroke-dasharray:none;marker:none;visibility:visible;display:inline;overflow:visible;enable-background:accumulate" />
      <path
         inkscape:connector-curvature="0"
         id="path3094-0-5-59-3-3"
         d="m 163.25,63.5 -12,0.03125 0.0312,0.0625 c 0.0131,0.0026 0.0181,0.02832 0.0312,0.03125 0.0523,0.0107 0.10445,0.01931 0.15625,0.03125 2.4644,0.56812 4.39743,2.544713 4.90625,5.03125 0.0196,0.0704 0.014,0.147737 0.0312,0.21875 0.38597,1.591906 0.19634,3.343639 -0.6875,4.875 -0.212,0.367309 -0.45185,0.690118 -0.71875,1 l -6.125,10.625 c 5.5558,0.41524 11.12164,-2.287956 14.09375,-7.4375 2.58461,-4.47787 2.3855,-10.145177 0.2814,-14.46875 z"
         style="color:#000000;fill:url(#radialGradient5526);fill-opacity:1;fill-rule:nonzero;stroke:#7cacd8;stroke-width:1.00000012;stroke-miterlimit:4;stroke-opacity:1;stroke-dasharray:none;marker:none;visibility:visible;display:inline;overflow:visible;enable-background:accumulate" />
      <path
         inkscape:connector-curvature="0"
         id="path3094-0-5-5-6-6-3"
         d="m 137.625,62.0625 c -3.1374,4.605419 -3.56588,10.787951 -0.59375,15.9375 2.58446,4.47787 7.14235,7.129756 11.9375,7.46875 l 6.0625,-10.59375 -0.21875,0.1875 c -0.62112,0.357785 -0.69653,0.34784 -1.5,0.65625 -0.1634,0.06272 -0.33509,0.102223 -0.5,0.15625 -0.8509,0.408869 -1.80535,0.625 -2.8125,0.625 -1.07197,0 -2.07739,-0.259152 -2.96875,-0.71875 -0.0431,-0.01911 -0.0823,-0.0424 -0.125,-0.0625 -0.0126,-0.0068 -0.0187,-0.02434 -0.0312,-0.03125 -1.04231,-0.499971 -1.94401,-1.280494 -2.59375,-2.40625 -0.212,-0.367315 -0.55268,-0.707584 -0.6875,-1.09375 l -5.9688,-10.125 z"
         style="color:#000000;fill:url(#radialGradient5523);fill-opacity:1;fill-rule:nonzero;stroke:#3d84c7;stroke-width:1.00000012;stroke-miterlimit:4;stroke-opacity:1;stroke-dasharray:none;marker:none;visibility:visible;display:inline;overflow:visible;enable-background:accumulate" />
      <path
         inkscape:connector-curvature="0"
         id="path3094-0-1-2-4-7"
         d="m 137.77071,61.832844 c -0.0649,0.09155 -0.1285,0.181571 -0.19135,0.274626 l 6.11465,10.502308 0.0166,-0.12483 c -0.20225,-0.633394 -0.31613,-1.304821 -0.31613,-2.005591 0,-0.878091 0.17195,-1.713609 0.48252,-2.479945 l -6.10633,-6.166568 z"
         style="opacity:0.05;color:#000000;fill:#000000;fill-opacity:1;fill-rule:nonzero;stroke:none;stroke-width:0.5;marker:none;visibility:visible;display:inline;overflow:visible;enable-background:accumulate" />
      <path
         id="path3094-0-1-3-1-9-6"
         d="m 163.50212,64.203763 c -0.0468,-0.101973 -0.0929,-0.202103 -0.14208,-0.303071 l -12.14962,0.04599 0.0998,0.07683 c 0.64948,0.141479 1.2877,0.378543 1.89439,0.728931 0.7602,0.439043 1.39757,1.005763 1.90574,1.657975 l 8.39182,-2.206673 z"
         style="opacity:0.05;color:#000000;fill:#000000;fill-opacity:1;fill-rule:nonzero;stroke:none;stroke-width:0.5;marker:none;visibility:visible;display:inline;overflow:visible;enable-background:accumulate"
         inkscape:connector-curvature="0" />
      <path
         id="path3094-0-1-9-7-8-3"
         d="m 148.47936,85.430429 c 0.1117,0.01042 0.22144,0.02052 0.33342,0.02847 l 6.03498,-10.548315 -0.11639,0.04797 c -0.44723,0.491914 -0.97157,0.926273 -1.57826,1.27666 -0.7602,0.439043 -1.56952,0.70784 -2.38825,0.821964 l -2.2855,8.373241 z"
         style="opacity:0.05;color:#000000;fill:#000000;fill-opacity:1;fill-rule:nonzero;stroke:none;stroke-width:0.5;marker:none;visibility:visible;display:inline;overflow:visible;enable-background:accumulate"
         inkscape:connector-curvature="0" />
      <path
         inkscape:connector-curvature="0"
         id="path3094-0-5-0-8-4-9"
         d="m 135.02536,70.878813 c 0.0565,2.344907 0.70632,4.706467 2.00494,6.879301 2.58445,4.324309 7.14296,6.873403 11.93811,7.200766 l 0.0166,-0.03218 c 5.51668,0.355771 11.0335,-2.27096 13.98464,-7.208808 1.29132,-2.160628 1.93581,-4.507695 1.99662,-6.839118 l -0.0333,0 c -0.14197,2.015293 -0.77542,4.032386 -1.96334,5.89884 -2.95114,4.636824 -8.46797,7.108909 -13.98465,6.774831 l -0.0166,0.03218 c -4.79515,-0.307406 -9.35366,-2.706109 -11.93811,-6.766789 -1.19582,-1.878869 -1.84094,-3.910026 -1.97998,-5.939023 l -0.025,0 z"
         style="opacity:0.1;color:#000000;fill:url(#linearGradient5517);fill-opacity:1;fill-rule:nonzero;stroke:none;stroke-width:0.5;marker:none;visibility:visible;display:inline;overflow:visible;enable-background:accumulate" />
    </g>
    <path
       inkscape:connector-curvature="0"
       style="opacity:0.5;color:#000000;fill:none;stroke:url(#linearGradient3057);stroke-width:0.99999994;stroke-linecap:round;stroke-linejoin:round;stroke-miterlimit:4;stroke-opacity:1;stroke-dasharray:none;stroke-dashoffset:0;marker:none;visibility:visible;display:inline;overflow:visible;enable-background:accumulate"
       id="path8655-6"
       d="m 231.14285,183.29017 c 0,7.73223 -6.26847,14.00049 -13.99982,14.00049 -7.73205,0 -14.00018,-6.26834 -14.00018,-14.00049 0,-7.73188 6.26813,-13.99951 14.00018,-13.99951 7.73135,0 13.99982,6.26763 13.99982,13.99951 l 0,0 z" />
  </g>
</svg>
