<?xml version="1.0" encoding="UTF-8" standalone="no"?>
<svg
   xmlns:dc="http://purl.org/dc/elements/1.1/"
   xmlns:cc="http://creativecommons.org/ns#"
   xmlns:rdf="http://www.w3.org/1999/02/22-rdf-syntax-ns#"
   xmlns:svg="http://www.w3.org/2000/svg"
   xmlns="http://www.w3.org/2000/svg"
   xmlns:xlink="http://www.w3.org/1999/xlink"
   version="1.0"
   width="32"
   height="32"
   id="svg4167">
  <metadata
     id="metadata99">
    <rdf:RDF>
      <cc:Work
         rdf:about="">
        <dc:format>image/svg+xml</dc:format>
        <dc:type
           rdf:resource="http://purl.org/dc/dcmitype/StillImage" />
        <dc:title />
      </cc:Work>
    </rdf:RDF>
  </metadata>
  <defs
     id="defs4169">
    <linearGradient
       id="linearGradient8838">
      <stop
         id="stop8840"
         style="stop-color:#000000;stop-opacity:1"
         offset="0" />
      <stop
         id="stop8842"
         style="stop-color:#000000;stop-opacity:0"
         offset="1" />
    </linearGradient>
    <linearGradient
       id="linearGradient2372-991">
      <stop
         id="stop3792"
         style="stop-color:#ffffff;stop-opacity:1"
         offset="0" />
      <stop
         id="stop3794"
         style="stop-color:#ffffff;stop-opacity:0.34482759"
         offset="1" />
    </linearGradient>
    <linearGradient
       id="linearGradient3242-978">
      <stop
         id="stop3812"
         style="stop-color:#e4fc58;stop-opacity:1"
         offset="0" />
      <stop
         id="stop3814"
         style="stop-color:#a3cb27;stop-opacity:1"
         offset="0.66093999" />
      <stop
         id="stop3816"
         style="stop-color:#74a111;stop-opacity:1"
         offset="1" />
    </linearGradient>
    <linearGradient
       id="linearGradient2490-435">
      <stop
         id="stop3806"
         style="stop-color:#547411;stop-opacity:1"
         offset="0" />
      <stop
         id="stop3808"
         style="stop-color:#7e9f17;stop-opacity:1;"
         offset="1" />
    </linearGradient>
    <linearGradient
       id="linearGradient3599-836">
      <stop
         id="stop3798"
         style="stop-color:#e4fc58;stop-opacity:1"
         offset="0" />
      <stop
         id="stop3800"
         style="stop-color:#a3cb27;stop-opacity:1"
         offset="0.3245278" />
      <stop
         id="stop3802"
         style="stop-color:#74a111;stop-opacity:1"
         offset="1" />
    </linearGradient>
    <linearGradient
       xlink:href="#linearGradient2372-991"
       id="linearGradient3101"
       gradientUnits="userSpaceOnUse"
       gradientTransform="matrix(0.24315207,0,0,0.24301571,15.316742,-26.252242)"
       x1="34.171181"
       y1="116.01754"
       x2="34.171181"
       y2="199.93648" />
    <radialGradient
       xlink:href="#linearGradient3242-978"
       id="radialGradient3104"
       gradientUnits="userSpaceOnUse"
       gradientTransform="matrix(0.7878146,-0.33322205,0.17429328,0.63876918,-2.2975349,5.4378515)"
       cx="17.058823"
       cy="41.058823"
       fx="14.68769"
       fy="37.45607"
       r="5.7384715" />
    <radialGradient
       xlink:href="#linearGradient3599-836"
       id="radialGradient3107"
       gradientUnits="userSpaceOnUse"
       gradientTransform="matrix(1.0112112,0,2.1618515e-8,2.1563978,-11.048735,-30.79446)"
       cx="35.293636"
       cy="16.980043"
       fx="35.293636"
       fy="16.980043"
       r="12.030256" />
    <linearGradient
       xlink:href="#linearGradient2490-435"
       id="linearGradient3109"
       gradientUnits="userSpaceOnUse"
       gradientTransform="matrix(0.7167491,0,0,0.71524219,-0.65603967,-2.0369299)"
       x1="26.71656"
       y1="46.001907"
       x2="26.71656"
       y2="4.0338311" />
    <radialGradient
       xlink:href="#linearGradient8838"
       id="radialGradient3112"
       gradientUnits="userSpaceOnUse"
       gradientTransform="matrix(0.91939516,0,0,0.33739574,-41.029439,27.454691)"
       cx="62.625"
       cy="4.625"
       fx="62.625"
       fy="4.625"
       r="10.625" />
  </defs>
  <path
     d="m 22.5,9.4737002 0,15.1509878 c 0.571138,2.909876 -2.039889,5.720397 -4.897492,5.866858 -2.108099,0.198779 -4.425619,-1.599704 -4.281942,-3.770218 0.02727,-3.379901 3.988087,-5.868043 7.179235,-5.157264 l 0,-19.4968567 c 0,-0.6735504 1.915243,-0.8164869 1.99658,0 0.07578,0.7608546 0.574618,3.5595165 3.773469,6.7912443 C 29.4108,12.031686 30.348921,18.034213 26.100887,22.96516 28.360453,17.241932 28.402999,12.821779 22.5,9.4737002 Z"
     id="path2588"
     style="fill:url(#radialGradient3107);fill-opacity:1;stroke:url(#linearGradient3109);stroke-width:0.99999994;stroke-linecap:round;stroke-linejoin:round;stroke-miterlimit:4;stroke-opacity:1;stroke-dasharray:none" />
  <path
     style="opacity:0.15;fill:url(#radialGradient3112);fill-opacity:1;fill-rule:evenodd;stroke:none;stroke-width:0.99999988;marker:none;visibility:visible;display:inline;overflow:visible"
     id="path2598"
     d="M 26.316097,29.01517 C 26.316097,30.995014 21.94257,32.6 16.547551,32.6 11.152529,32.6 6.779,30.995014 6.779,29.01517 c 0,-1.97985 4.373529,-3.584835 9.768551,-3.584835 5.395019,0 9.768546,1.604985 9.768546,3.584835 l 0,0 z" />
  <path
     d="m 18.187255,29.912683 c -2.399336,0.4089 -4.131439,-0.821253 -4.370372,-3.020091 -0.209227,-1.925461 1.39379,-4.11529 4.476074,-4.847008 2.299479,-0.545884 3.911364,0.144875 3.908948,2.332488 0.0083,4.056483 -2.348979,5.131371 -4.01465,5.534611 z"
     id="path2596"
     style="fill:url(#radialGradient3104);fill-opacity:1;stroke:none" />
  <path
     d="m 21.3333,3.256194 -3e-4,19.057098 C 21.122039,22.211242 21.031719,22.141197 20.733455,22.018902 20.871451,21.947136 21.049199,21.700261 21,21.547232 L 21,2.1332516 c 0.170552,-0.1204066 0.705267,-0.1960605 1,-0.012914 0.05918,0.8668171 0.612845,3.2792896 2.86548,5.9377683 C 26.330062,9.526962 28.628994,11.853552 28.448326,15.9695 28.210983,15.419424 29.074298,13.770137 24.754603,8.9928629 21.765382,5.6869974 21.333296,3.2561905 21.3333,3.256194 Z"
     id="path2594"
     style="opacity:0.4;fill:url(#linearGradient3101);fill-opacity:1;fill-rule:evenodd;stroke:none" />
  <g
     id="g4108"
     transform="matrix(1.0516446,0,0,1.051525,0.94824289,18.259642)">
    <path
       id="path4097"
       d="M 13.691589,-0.54841944 C 10.857716,-0.25486744 8.5519263,2.1312626 8.4317838,5.0072246 l 0.8474135,0 C 9.4010078,2.5398646 11.421421,0.48254256 13.866916,0.27030456 l 0,-0.818724 c -0.05851,0.0043 -0.117247,-0.006 -0.175327,0 z"
       style="font-style:normal;font-variant:normal;font-weight:normal;font-stretch:normal;text-indent:0;text-align:start;text-decoration:none;line-height:normal;letter-spacing:normal;word-spacing:normal;text-transform:none;direction:ltr;block-progression:tb;writing-mode:lr-tb;text-anchor:start;baseline-shift:baseline;color:#000000;fill:#74a111;fill-opacity:1;stroke:none;stroke-width:0.89999998;marker:none;visibility:visible;display:inline;overflow:visible;enable-background:accumulate;font-family:Sans;-inkscape-font-specification:Sans" />
    <path
       id="path4099"
       d="M 13.866916,-4.5543322 C 8.9683792,-4.0700611 5.069629,0.07313756 4.8668069,5.0072246 l 1.139624,0 c 0.1939372,-4.31545404 3.5855469,-7.9123887 7.8604851,-8.391948 l 0,-1.1696088 z"
       style="font-style:normal;font-variant:normal;font-weight:normal;font-stretch:normal;text-indent:0;text-align:start;text-decoration:none;line-height:normal;letter-spacing:normal;word-spacing:normal;text-transform:none;direction:ltr;block-progression:tb;writing-mode:lr-tb;text-anchor:start;baseline-shift:baseline;color:#000000;fill:#74a111;fill-opacity:1;stroke:none;stroke-width:1.20000005;marker:none;visibility:visible;display:inline;overflow:visible;enable-background:accumulate;font-family:Sans;-inkscape-font-specification:Sans" />
    <path
       id="path4101"
       d="M 13.866916,-9.1158077 C 6.7995862,-8.1913768 1.3019387,-2.1215708 1.0096159,5.0072246 l 1.5779417,0 C 2.8766764,-1.2364981 7.6993061,-6.5572827 13.866916,-7.478355 l 0,-1.6374527 z"
       style="font-style:normal;font-variant:normal;font-weight:normal;font-stretch:normal;text-indent:0;text-align:start;text-decoration:none;line-height:normal;letter-spacing:normal;word-spacing:normal;text-transform:none;direction:ltr;block-progression:tb;writing-mode:lr-tb;text-anchor:start;baseline-shift:baseline;color:#000000;fill:#74a111;fill-opacity:1;stroke:none;stroke-width:1.70000005;marker:none;visibility:visible;display:inline;overflow:visible;enable-background:accumulate;font-family:Sans;-inkscape-font-specification:Sans" />
  </g>
</svg>
