<?xml version="1.0" encoding="UTF-8" standalone="no"?>
<svg
   xmlns:dc="http://purl.org/dc/elements/1.1/"
   xmlns:cc="http://creativecommons.org/ns#"
   xmlns:rdf="http://www.w3.org/1999/02/22-rdf-syntax-ns#"
   xmlns:svg="http://www.w3.org/2000/svg"
   xmlns="http://www.w3.org/2000/svg"
   xmlns:xlink="http://www.w3.org/1999/xlink"
   width="32"
   height="32"
   id="svg4032"
   version="1.1">
  <defs
     id="defs4034">
    <linearGradient
       xlink:href="#linearGradient3924"
       id="linearGradient2959"
       gradientUnits="userSpaceOnUse"
       gradientTransform="matrix(0.67567557,0,0,0.67567577,-0.21621295,15.78379)"
       x1="23.99999"
       y1="4.999989"
       x2="23.99999"
       y2="43" />
    <linearGradient
       id="linearGradient3924">
      <stop
         offset="0"
         style="stop-color:#ffffff;stop-opacity:1;"
         id="stop3926" />
      <stop
         id="stop3928"
         style="stop-color:#ffffff;stop-opacity:0.23529412;"
         offset="0.06316455" />
      <stop
         offset="0.95056331"
         style="stop-color:#ffffff;stop-opacity:0.15686275;"
         id="stop3930" />
      <stop
         offset="1"
         style="stop-color:#ffffff;stop-opacity:0.39215687;"
         id="stop3932" />
    </linearGradient>
    <linearGradient
       xlink:href="#linearGradient4011"
       id="linearGradient3568"
       gradientUnits="userSpaceOnUse"
       gradientTransform="matrix(0.56446022,0,0,0.89459796,2.4265491,13.889869)"
       x1="13.13743"
       y1="18.776737"
       x2="25.258932"
       y2="34.146767" />
    <radialGradient
       r="19.99999"
       fy="8.4497671"
       fx="7.4956832"
       cy="8.4497671"
       cx="7.4956832"
       gradientTransform="matrix(1.3450474e-8,1.6179163,-1.7115621,-2.9808188e-8,30.462375,6.7759088)"
       gradientUnits="userSpaceOnUse"
       id="radialGradient2874"
       xlink:href="#linearGradient2867-449-88-871-390-598-476-591-434-148-57-177-3-8" />
    <linearGradient
       y2="5"
       x2="-4.0000014"
       y1="41"
       x1="-4.0000014"
       gradientTransform="matrix(0.69230759,0,0,0.69230764,-0.61538483,15.384615)"
       gradientUnits="userSpaceOnUse"
       id="linearGradient2876"
       xlink:href="#linearGradient3707-319-631-407-324-3-8" />
    <radialGradient
       xlink:href="#linearGradient3688-166-749"
       id="radialGradient3013"
       gradientUnits="userSpaceOnUse"
       gradientTransform="matrix(2.003784,0,0,1.4,27.98813,-17.4)"
       cx="4.9929786"
       cy="43.5"
       fx="4.9929786"
       fy="43.5"
       r="2.5" />
    <linearGradient
       id="linearGradient3688-166-749">
      <stop
         offset="0"
         style="stop-color:#181818;stop-opacity:1"
         id="stop2883" />
      <stop
         offset="1"
         style="stop-color:#181818;stop-opacity:0"
         id="stop2885" />
    </linearGradient>
    <radialGradient
       xlink:href="#linearGradient3688-464-309"
       id="radialGradient3015"
       gradientUnits="userSpaceOnUse"
       gradientTransform="matrix(2.003784,0,0,1.4,-20.01187,-104.4)"
       cx="4.9929786"
       cy="43.5"
       fx="4.9929786"
       fy="43.5"
       r="2.5" />
    <linearGradient
       id="linearGradient3688-464-309">
      <stop
         offset="0"
         style="stop-color:#181818;stop-opacity:1"
         id="stop2889" />
      <stop
         offset="1"
         style="stop-color:#181818;stop-opacity:0"
         id="stop2891" />
    </linearGradient>
    <linearGradient
       id="linearGradient3702-501-757">
      <stop
         offset="0"
         style="stop-color:#181818;stop-opacity:0"
         id="stop2895" />
      <stop
         offset="0.5"
         style="stop-color:#181818;stop-opacity:1"
         id="stop2897" />
      <stop
         offset="1"
         style="stop-color:#181818;stop-opacity:0"
         id="stop2899" />
    </linearGradient>
    <linearGradient
       y2="39.999443"
       x2="25.058096"
       y1="47.027729"
       x1="25.058096"
       gradientUnits="userSpaceOnUse"
       id="linearGradient4030"
       xlink:href="#linearGradient3702-501-757" />
    <linearGradient
       id="linearGradient2867-449-88-871-390-598-476-591-434-148-57-177-3-8">
      <stop
         id="stop3750-8-9"
         style="stop-color:#90dbec;stop-opacity:1;"
         offset="0" />
      <stop
         id="stop3752-3-2"
         style="stop-color:#42baea;stop-opacity:1;"
         offset="0.26238" />
      <stop
         id="stop3754-7-2"
         style="stop-color:#3689e6;stop-opacity:1;"
         offset="0.704952" />
      <stop
         id="stop3756-9-3"
         style="stop-color:#2b63a0;stop-opacity:1;"
         offset="1" />
    </linearGradient>
    <linearGradient
       id="linearGradient4011">
      <stop
         id="stop4013"
         style="stop-color:#ffffff;stop-opacity:1;"
         offset="0" />
      <stop
         offset="0.507761"
         style="stop-color:#ffffff;stop-opacity:0.23529412;"
         id="stop4015" />
      <stop
         id="stop4017"
         style="stop-color:#ffffff;stop-opacity:0.15686275;"
         offset="0.83456558" />
      <stop
         id="stop4019"
         style="stop-color:#ffffff;stop-opacity:0.39215687;"
         offset="1" />
    </linearGradient>
    <linearGradient
       id="linearGradient3707-319-631-407-324-3-8">
      <stop
         id="stop3760-7-3"
         style="stop-color:#185f9a;stop-opacity:1;"
         offset="0" />
      <stop
         id="stop3762-8-4"
         style="stop-color:#599ec9;stop-opacity:1;"
         offset="1" />
    </linearGradient>
    <linearGradient
       id="linearGradient8589-8">
      <stop
         offset="0"
         style="stop-color:#fefefe;stop-opacity:1"
         id="stop8591-1" />
      <stop
         offset="1"
         style="stop-color:#cbcbcb;stop-opacity:1"
         id="stop8593-2" />
    </linearGradient>
    <filter
       id="filter3248"
       color-interpolation-filters="sRGB"
       height="1.3286875"
       width="1.2969251"
       y="-0.16434373"
       x="-0.14846256">
      <feGaussianBlur
         id="feGaussianBlur3250"
         stdDeviation="0.77391625" />
    </filter>
    <linearGradient
       xlink:href="#linearGradient8589-8"
       id="linearGradient3395"
       gradientUnits="userSpaceOnUse"
       gradientTransform="matrix(0,0.68986606,-0.72031669,0,30.325717,16.66347)"
       x1="32.892288"
       y1="8.0590115"
       x2="36.358372"
       y2="5.4565363" />
  </defs>
  <metadata
     id="metadata4037">
    <rdf:RDF>
      <cc:Work
         rdf:about="">
        <dc:format>image/svg+xml</dc:format>
        <dc:type
           rdf:resource="http://purl.org/dc/dcmitype/StillImage" />
        <dc:title />
      </cc:Work>
    </rdf:RDF>
  </metadata>
  <g
     id="layer1"
     transform="translate(0,-16)">
    <g
       style="opacity:0.6"
       id="g3712"
       transform="matrix(0.78947368,0,0,0.4285714,-2.9473684,26.657144)">
      <rect
         style="fill:url(#radialGradient3013);fill-opacity:1;stroke:none"
         id="rect2801"
         y="40"
         x="38"
         height="7"
         width="5" />
      <rect
         style="fill:url(#radialGradient3015);fill-opacity:1;stroke:none"
         id="rect3696"
         transform="scale(-1,-1)"
         y="-47"
         x="-10"
         height="7"
         width="5" />
      <rect
         style="fill:url(#linearGradient4030);fill-opacity:1;stroke:none"
         id="rect3700"
         y="40"
         x="10"
         height="7.0000005"
         width="28" />
    </g>
    <rect
       style="color:#000000;fill:url(#radialGradient2874);fill-opacity:1;fill-rule:nonzero;stroke:url(#linearGradient2876);stroke-width:1;stroke-linecap:round;stroke-linejoin:round;stroke-miterlimit:4;stroke-opacity:1;stroke-dasharray:none;stroke-dashoffset:0;marker:none;visibility:visible;display:inline;overflow:visible;enable-background:accumulate"
       id="rect5505-21"
       y="18.5"
       x="2.5"
       ry="1.3846147"
       rx="1.3846152"
       height="27"
       width="27.000002" />
    <path
       style="opacity:0.1;fill:url(#linearGradient3568);fill-opacity:1;fill-rule:evenodd;stroke:none"
       id="path3333"
       d="M 3.8326276,19 C 3.3679182,19 3,19.627323 3,20.237501 L 3.0086496,35.5 C 3.7566064,35.483385 28.432286,29.417751 29,29.125989 l 0,-8.888488 C 29,19.771099 28.63656,19 28.234173,19 L 3.8326283,19 z" />
    <rect
       style="opacity:0.5;fill:none;stroke:url(#linearGradient2959);stroke-width:1;stroke-linecap:round;stroke-linejoin:round;stroke-miterlimit:4;stroke-opacity:1;stroke-dasharray:none;stroke-dashoffset:0"
       id="rect6741"
       y="19.5"
       x="3.5"
       ry="0.36531299"
       rx="0.36531299"
       height="25"
       width="25" />
    <path
       transform="matrix(0.66666673,0,0,0.66666672,0.6666645,14.666666)"
       style="opacity:0.2;fill:#ffffff;fill-opacity:1;fill-rule:nonzero;stroke:#000000;stroke-width:2.99999952;stroke-miterlimit:4;stroke-opacity:1;stroke-dasharray:none"
       id="path3920"
       d="M 38,12.5 C 38,13.328427 37.328427,14 36.5,14 35.671573,14 35,13.328427 35,12.5 35,11.671573 35.671573,11 36.5,11 c 0.828427,0 1.5,0.671573 1.5,1.5 z" />
    <path
       d="M 38,12.5 C 38,13.328427 37.328427,14 36.5,14 35.671573,14 35,13.328427 35,12.5 35,11.671573 35.671573,11 36.5,11 c 0.828427,0 1.5,0.671573 1.5,1.5 z"
       id="path3897"
       style="fill:#ffffff;fill-opacity:1;fill-rule:nonzero;stroke:none"
       transform="matrix(0.66666667,0,0,0.66666667,0.66666659,14.666667)" />
    <path
       d="M 38,12.5 C 38,13.328427 37.328427,14 36.5,14 35.671573,14 35,13.328427 35,12.5 35,11.671573 35.671573,11 36.5,11 c 0.828427,0 1.5,0.671573 1.5,1.5 z"
       id="path3922"
       style="opacity:0.2;fill:#ffffff;fill-opacity:1;fill-rule:nonzero;stroke:#000000;stroke-width:2.99999952;stroke-miterlimit:4;stroke-opacity:1;stroke-dasharray:none"
       transform="matrix(0.66666673,0,0,0.66666672,-17.333336,14.666666)" />
    <path
       style="fill:#ffffff;fill-opacity:1;fill-rule:nonzero;stroke:none"
       id="path3899"
       d="M 38,12.5 C 38,13.328427 37.328427,14 36.5,14 35.671573,14 35,13.328427 35,12.5 35,11.671573 35.671573,11 36.5,11 c 0.828427,0 1.5,0.671573 1.5,1.5 z"
       transform="matrix(0.66666667,0,0,0.66666667,-17.333334,14.666667)" />
    <g
       transform="scale(0.99806644,1.0019373)"
       style="font-size:8.28133869px;font-style:normal;font-variant:normal;font-weight:normal;font-stretch:normal;line-height:125%;letter-spacing:0px;word-spacing:0px;opacity:0.3;fill:#000000;fill-opacity:1;stroke:none;font-family:Droid Sans;-inkscape-font-specification:Sans"
       id="text3990">
      <path
         d="m 15.68124,28.477287 c -7e-6,0.360789 -0.05684,0.689445 -0.170506,0.98597 -0.113677,0.296539 -0.274299,0.553534 -0.481865,0.770984 -0.202637,0.217463 -0.447276,0.397854 -0.733918,0.541172 -0.286653,0.138387 -0.605425,0.237231 -0.956317,0.296532 l 0,0.04448 c 0.874765,0.108734 1.539491,0.387968 1.994181,0.837704 0.454675,0.444803 0.682017,1.025511 0.682024,1.742128 -7e-6,0.474454 -0.08155,0.909368 -0.244639,1.304742 -0.158158,0.395378 -0.400326,0.73639 -0.726504,1.023037 -0.326192,0.286648 -0.738866,0.509047 -1.238023,0.667198 -0.499168,0.15815 -1.089761,0.237225 -1.771781,0.237226 -0.538704,-1e-6 -1.04775,-0.04201 -1.527142,-0.126027 -0.474453,-0.08402 -0.9217224,-0.237225 -1.3418089,-0.459625 l 0,-1.260263 c 0.4299709,0.227343 0.8945379,0.402792 1.3937019,0.526345 0.504103,0.123557 0.985968,0.185334 1.445596,0.185333 0.454679,10e-7 0.847584,-0.04942 1.178716,-0.148266 0.331123,-0.09884 0.602944,-0.239696 0.815464,-0.422559 0.217451,-0.18286 0.375602,-0.40773 0.474452,-0.674611 0.10378,-0.266876 0.155673,-0.56588 0.155679,-0.89701 -6e-6,-0.336067 -0.06673,-0.622715 -0.200159,-0.859944 -0.128503,-0.242164 -0.313836,-0.439852 -0.555998,-0.593065 -0.242173,-0.158146 -0.538706,-0.274288 -0.889597,-0.348426 -0.345959,-0.07413 -0.738864,-0.111194 -1.178717,-0.111199 l -0.98597,0 0,-1.11941 0.98597,0 c 0.400315,6e-6 0.756154,-0.04942 1.067517,-0.148266 0.311354,-0.09884 0.57082,-0.239691 0.778397,-0.422559 0.21251,-0.182854 0.373132,-0.400311 0.481866,-0.652371 0.108722,-0.252045 0.163087,-0.528808 0.163092,-0.830291 -5e-6,-0.256986 -0.04448,-0.486798 -0.133439,-0.689437 -0.08896,-0.202622 -0.214992,-0.373128 -0.378079,-0.511519 -0.163098,-0.143314 -0.358315,-0.252043 -0.585651,-0.326185 -0.227346,-0.07412 -0.479399,-0.11119 -0.756158,-0.1112 -0.528819,10e-6 -0.995858,0.08403 -1.401116,0.252052 -0.40032,0.163103 -0.783341,0.378088 -1.1490625,0.644958 L 9.209421,26.898252 c 0.187803,-0.153199 0.3953755,-0.296522 0.622718,-0.429972 0.232282,-0.133429 0.484334,-0.249571 0.756158,-0.348426 0.271819,-0.103775 0.560937,-0.185322 0.867357,-0.244639 0.311356,-0.0593 0.640012,-0.08895 0.98597,-0.08896 0.533754,1.1e-5 1.000792,0.06673 1.401115,0.20016 0.405256,0.13345 0.743796,0.321254 1.015624,0.563411 0.271815,0.237236 0.476916,0.521413 0.615305,0.852531 0.138374,0.326194 0.207565,0.684504 0.207572,1.07493"
         style="font-size:15.18245792px;fill:#000000"
         id="path3953" />
      <path
         d="m 22.190126,36.780193 -1.304743,0 0,-6.768351 c -3e-6,-0.212508 -3e-6,-0.439849 0,-0.682025 0.0049,-0.24216 0.0099,-0.481857 0.01483,-0.719091 0.0099,-0.242159 0.01729,-0.471972 0.02224,-0.689438 0.0099,-0.22239 0.01729,-0.417607 0.02224,-0.585651 -0.08402,0.08897 -0.158155,0.165573 -0.222399,0.229813 -0.06425,0.06426 -0.130972,0.126035 -0.20016,0.185332 -0.06425,0.05932 -0.133443,0.123564 -0.207572,0.192746 -0.07414,0.06426 -0.163096,0.140862 -0.266879,0.229813 l -1.09717,0.89701 -0.711678,-0.911837 2.839298,-2.216579 1.111996,0 0,10.838258"
         style="font-size:15.18245792px;fill:#000000"
         id="path3955" />
    </g>
    <g
       transform="scale(0.9980664,1.0019373)"
       style="font-size:8.28133869000000011px;font-style:normal;font-variant:normal;font-weight:normal;font-stretch:normal;line-height:125%;letter-spacing:0px;word-spacing:0px;fill:#ffffff;fill-opacity:1;stroke:none;font-family:Droid Sans;-inkscape-font-specification:Sans"
       id="text3955">
      <path
         d="m 15.681241,29.58314 c -7e-6,0.360789 -0.05684,0.689446 -0.170506,0.98597 -0.113678,0.29654 -0.2743,0.553534 -0.481866,0.770985 -0.202636,0.217463 -0.447275,0.397853 -0.733917,0.541171 -0.286654,0.138388 -0.605426,0.237232 -0.956317,0.296533 l 0,0.04448 c 0.874765,0.108734 1.539491,0.387968 1.99418,0.837704 0.454676,0.444803 0.682017,1.025511 0.682025,1.742127 -8e-6,0.474455 -0.08155,0.909369 -0.24464,1.304743 -0.158157,0.395378 -0.400325,0.73639 -0.726504,1.023037 -0.326192,0.286648 -0.738866,0.509047 -1.238023,0.667198 -0.499167,0.15815 -1.08976,0.237225 -1.771781,0.237226 -0.538703,-1e-6 -1.04775,-0.04201 -1.527142,-0.126027 -0.474453,-0.08402 -0.9217223,-0.237225 -1.3418088,-0.459625 l 0,-1.260263 c 0.4299709,0.227343 0.8945378,0.402792 1.3937018,0.526345 0.504103,0.123557 0.985968,0.185334 1.445596,0.185333 0.454679,10e-7 0.847584,-0.04942 1.178716,-0.148266 0.331123,-0.09884 0.602944,-0.239696 0.815464,-0.422559 0.217452,-0.18286 0.375602,-0.40773 0.474452,-0.674611 0.10378,-0.266877 0.155674,-0.56588 0.15568,-0.89701 -6e-6,-0.336067 -0.06673,-0.622715 -0.20016,-0.859944 -0.128503,-0.242164 -0.313835,-0.439852 -0.555998,-0.593065 -0.242173,-0.158146 -0.538705,-0.274288 -0.889597,-0.348426 -0.345959,-0.07413 -0.738864,-0.111194 -1.178716,-0.111199 l -0.985971,0 0,-1.11941 0.985971,0 c 0.400315,6e-6 0.756153,-0.04942 1.067516,-0.148266 0.311355,-0.09884 0.57082,-0.239691 0.778398,-0.422559 0.212509,-0.182855 0.373131,-0.400312 0.481865,-0.652371 0.108723,-0.252045 0.163087,-0.528809 0.163093,-0.830291 -6e-6,-0.256986 -0.04449,-0.486799 -0.13344,-0.689438 -0.08896,-0.202621 -0.214991,-0.373127 -0.378079,-0.511518 -0.163098,-0.143315 -0.358315,-0.252043 -0.585651,-0.326186 -0.227346,-0.07412 -0.479398,-0.11119 -0.756158,-0.1112 -0.528819,10e-6 -0.995857,0.08403 -1.401115,0.252053 -0.400321,0.163102 -0.783342,0.378088 -1.1490634,0.644958 L 9.209421,28.004105 c 0.187803,-0.153198 0.3953755,-0.296522 0.6227181,-0.429972 0.2322819,-0.133429 0.4843349,-0.249571 0.7561579,-0.348425 0.271819,-0.103776 0.560938,-0.185322 0.867357,-0.24464 0.311356,-0.05929 0.640012,-0.08895 0.98597,-0.08896 0.533754,1.1e-5 1.000792,0.06673 1.401116,0.200159 0.405255,0.13345 0.743796,0.321254 1.015623,0.563412 0.271815,0.237235 0.476916,0.521412 0.615305,0.85253 0.138375,0.326195 0.207566,0.684505 0.207573,1.07493"
         style="font-size:15.18245888000000043px;fill:#ffffff;fill-opacity:1"
         id="path3180" />
      <path
         d="m 22.190127,37.886047 -1.304742,0 0,-6.768352 c -4e-6,-0.212508 -4e-6,-0.439849 0,-0.682024 0.0049,-0.242161 0.0099,-0.481857 0.01483,-0.719091 0.0099,-0.24216 0.01729,-0.471972 0.02224,-0.689438 0.0099,-0.22239 0.01729,-0.417607 0.02224,-0.585652 -0.08402,0.08897 -0.158154,0.165574 -0.222399,0.229813 -0.06425,0.06426 -0.130972,0.126035 -0.20016,0.185333 -0.06425,0.05931 -0.133443,0.123564 -0.207572,0.192746 -0.07414,0.06426 -0.163096,0.140861 -0.266879,0.229812 l -1.09717,0.897011 -0.711678,-0.911837 2.839298,-2.21658 1.111996,0 0,10.838259"
         style="font-size:15.18245888000000043px;fill:#ffffff;fill-opacity:1"
         id="path3182" />
    </g>
    <path
       style="opacity:0.4;fill:#000000;fill-opacity:1;fill-rule:evenodd;stroke:none;display:inline;filter:url(#filter3248)"
       id="path12038"
       transform="matrix(0,0.69145745,-0.69215533,0,29.898461,16.782315)"
       d="m 28.617256,0.9212581 c 4.282522,0 2.15325,8.4831709 2.15325,8.4831709 0,0 10.357642,-1.8023467 10.357642,2.818745 0,-2.609724 -11.302304,-10.7285959 -12.510892,-11.3019159 z" />
    <path
       style="opacity:0.1;fill:#000000;fill-opacity:1;stroke:none"
       d="m 22.8,45 6.229397,-7.605934 0,6.914485 L 28.337244,45 z"
       id="path3477" />
    <path
       style="fill:url(#linearGradient3395);fill-opacity:1;fill-rule:evenodd;stroke:none;display:inline"
       id="path4474"
       d="m 28.922685,36.337825 c 0,2.20332 -5.303212,1.615072 -5.303212,1.615072 0,0 0.679042,7.035671 -2.519473,7.035671 0.779327,0 1.337418,0.05937 1.580603,-0.09249 1.747125,-1.091339 5.667642,-5.805143 6.181496,-7.507363 0.03848,-0.127385 0.0605,-0.409829 0.0605,-1.050884 z" />
  </g>
</svg>
