<?xml version="1.0" encoding="UTF-8" standalone="no"?>
<svg
   xmlns:dc="http://purl.org/dc/elements/1.1/"
   xmlns:cc="http://creativecommons.org/ns#"
   xmlns:rdf="http://www.w3.org/1999/02/22-rdf-syntax-ns#"
   xmlns:svg="http://www.w3.org/2000/svg"
   xmlns="http://www.w3.org/2000/svg"
   xmlns:xlink="http://www.w3.org/1999/xlink"
   version="1.1"
   width="32"
   height="32"
   id="svg4117">
  <defs
     id="defs4119">
    <linearGradient
       id="linearGradient3891">
      <stop
         style="stop-color:#000000;stop-opacity:1;"
         offset="0"
         id="stop3893" />
      <stop
         style="stop-color:#000000;stop-opacity:0;"
         offset="1"
         id="stop3895" />
    </linearGradient>
    <linearGradient
       id="linearGradient3924">
      <stop
         id="stop3926"
         style="stop-color:#ffffff;stop-opacity:1"
         offset="0" />
      <stop
         id="stop3928"
         style="stop-color:#ffffff;stop-opacity:0.23529412"
         offset="0.06316455" />
      <stop
         id="stop3930"
         style="stop-color:#ffffff;stop-opacity:0.15686275"
         offset="0.95056331" />
      <stop
         id="stop3932"
         style="stop-color:#ffffff;stop-opacity:0.39215687"
         offset="1" />
    </linearGradient>
    <radialGradient
       cx="4.9929786"
       cy="43.5"
       r="2.5"
       fx="4.9929786"
       fy="43.5"
       id="radialGradient2873-966-168"
       xlink:href="#linearGradient3688-166-749"
       gradientUnits="userSpaceOnUse"
       gradientTransform="matrix(2.003784,0,0,1.4,27.98813,-17.4)" />
    <linearGradient
       id="linearGradient3688-166-749">
      <stop
         id="stop2883"
         style="stop-color:#181818;stop-opacity:1"
         offset="0" />
      <stop
         id="stop2885"
         style="stop-color:#181818;stop-opacity:0"
         offset="1" />
    </linearGradient>
    <radialGradient
       cx="4.9929786"
       cy="43.5"
       r="2.5"
       fx="4.9929786"
       fy="43.5"
       id="radialGradient2875-742-326"
       xlink:href="#linearGradient3688-464-309"
       gradientUnits="userSpaceOnUse"
       gradientTransform="matrix(2.003784,0,0,1.4,-20.01187,-104.4)" />
    <linearGradient
       id="linearGradient3688-464-309">
      <stop
         id="stop2889"
         style="stop-color:#181818;stop-opacity:1"
         offset="0" />
      <stop
         id="stop2891"
         style="stop-color:#181818;stop-opacity:0"
         offset="1" />
    </linearGradient>
    <linearGradient
       x1="25.058096"
       y1="47.027729"
       x2="25.058096"
       y2="39.999443"
       id="linearGradient2877-634-617"
       xlink:href="#linearGradient3702-501-757"
       gradientUnits="userSpaceOnUse" />
    <linearGradient
       id="linearGradient3702-501-757">
      <stop
         id="stop2895"
         style="stop-color:#181818;stop-opacity:0"
         offset="0" />
      <stop
         id="stop2897"
         style="stop-color:#181818;stop-opacity:1"
         offset="0.5" />
      <stop
         id="stop2899"
         style="stop-color:#181818;stop-opacity:0"
         offset="1" />
    </linearGradient>
    <filter
       color-interpolation-filters="sRGB"
       id="filter3831">
      <feGaussianBlur
         id="feGaussianBlur3833"
         stdDeviation="0.6375" />
    </filter>
    <clipPath
       id="clipPath3823">
      <path
         d="M 108.8125,58 C 107.25437,58 106,59.254375 106,60.8125 l 0,24.375 C 106,86.745625 107.25437,88 108.8125,88 l 24.375,0 C 134.74562,88 136,86.745625 136,85.1875 l 0,-24.375 C 136,59.254375 134.74562,58 133.1875,58 l -24.375,0 z m 7.1875,4.5 10,0 0,8.75 5,0 -10,13.75 -10,-13.75 5,0 0,-8.75 z"
         id="path3825"
         style="fill:#ffffff;fill-opacity:1;stroke:none" />
    </clipPath>
    <linearGradient
       x1="65.262688"
       y1="64.205269"
       x2="65.262688"
       y2="50.068527"
       id="linearGradient3812"
       xlink:href="#linearGradient5010"
       gradientUnits="userSpaceOnUse"
       gradientTransform="matrix(0.625,0,0,0.625,78.5,32.25)" />
    <filter
       color-interpolation-filters="sRGB"
       id="filter3806">
      <feGaussianBlur
         id="feGaussianBlur3808"
         stdDeviation="1.2" />
    </filter>
    <linearGradient
       x1="70"
       y1="54"
       x2="70"
       y2="75.095024"
       id="linearGradient3788"
       xlink:href="#linearGradient3737"
       gradientUnits="userSpaceOnUse"
       gradientTransform="translate(0,4)" />
    <linearGradient
       x1="56"
       y1="72"
       x2="88"
       y2="72"
       id="linearGradient3773"
       xlink:href="#linearGradient3778"
       gradientUnits="userSpaceOnUse"
       gradientTransform="matrix(0.9375,0,0,0.9375,-140.5,3.5)" />
    <linearGradient
       x1="65.262688"
       y1="64.205269"
       x2="65.262688"
       y2="50.068527"
       id="linearGradient3832"
       xlink:href="#linearGradient3737"
       gradientUnits="userSpaceOnUse"
       gradientTransform="matrix(0.625,0,0,0.625,28.5,31.25)" />
    <filter
       color-interpolation-filters="sRGB"
       id="filter3174">
      <feGaussianBlur
         id="feGaussianBlur3176"
         stdDeviation="1.71" />
    </filter>
    <linearGradient
       id="linearGradient3737">
      <stop
         id="stop3739"
         style="stop-color:#ffffff;stop-opacity:1"
         offset="0" />
      <stop
         id="stop3741"
         style="stop-color:#ffffff;stop-opacity:0"
         offset="1" />
    </linearGradient>
    <linearGradient
       x1="45.447727"
       y1="92.539597"
       x2="45.447727"
       y2="7.0165396"
       id="ButtonShadow"
       gradientUnits="userSpaceOnUse"
       gradientTransform="scale(1.0058652,0.994169)">
      <stop
         id="stop3750"
         style="stop-color:#000000;stop-opacity:1"
         offset="0" />
      <stop
         id="stop3752"
         style="stop-color:#000000;stop-opacity:0.58823532"
         offset="1" />
    </linearGradient>
    <linearGradient
       id="linearGradient5010">
      <stop
         id="stop5012"
         style="stop-color:#000000;stop-opacity:1"
         offset="0" />
      <stop
         id="stop5014"
         style="stop-color:#000000;stop-opacity:0"
         offset="1" />
    </linearGradient>
    <linearGradient
       id="linearGradient3778">
      <stop
         id="stop3780"
         style="stop-color:#499119;stop-opacity:1"
         offset="0" />
      <stop
         id="stop3782"
         style="stop-color:#8fd625;stop-opacity:1"
         offset="1" />
    </linearGradient>
    <linearGradient
       id="linearGradient3104">
      <stop
         id="stop3106"
         style="stop-color:#aaaaaa;stop-opacity:1"
         offset="0" />
      <stop
         id="stop3108"
         style="stop-color:#c8c8c8;stop-opacity:1"
         offset="1" />
    </linearGradient>
    <linearGradient
       id="linearGradient3600">
      <stop
         id="stop3602"
         style="stop-color:#f4f4f4;stop-opacity:1"
         offset="0" />
      <stop
         id="stop3604"
         style="stop-color:#dbdbdb;stop-opacity:1"
         offset="1" />
    </linearGradient>
    <linearGradient
       id="linearGradient3104-5">
      <stop
         id="stop3106-9"
         style="stop-color:#aaaaaa;stop-opacity:1"
         offset="0" />
      <stop
         id="stop3108-8"
         style="stop-color:#c8c8c8;stop-opacity:1"
         offset="1" />
    </linearGradient>
    <linearGradient
       xlink:href="#linearGradient3924"
       id="linearGradient3084"
       gradientUnits="userSpaceOnUse"
       gradientTransform="matrix(0.67567565,0,0,0.67567562,-0.21621367,-0.21620992)"
       x1="23.99999"
       y1="4.999989"
       x2="23.99999"
       y2="43" />
    <radialGradient
       xlink:href="#linearGradient3600"
       id="radialGradient3093"
       gradientUnits="userSpaceOnUse"
       gradientTransform="matrix(0,1.3425785,-1.4202883,-3.6542922e-8,28.001178,-7.1602489)"
       cx="7.4956832"
       cy="8.4497671"
       fx="7.4956832"
       fy="8.4497671"
       r="19.99999" />
    <linearGradient
       xlink:href="#linearGradient3104"
       id="linearGradient3095"
       gradientUnits="userSpaceOnUse"
       gradientTransform="matrix(0.69230769,0,0,0.69230756,-0.61538454,-0.61538456)"
       x1="24"
       y1="44"
       x2="24"
       y2="3.8990016" />
    <linearGradient
       xlink:href="#linearGradient3104-5"
       id="linearGradient3098"
       gradientUnits="userSpaceOnUse"
       x1="20"
       y1="43"
       x2="20"
       y2="3"
       gradientTransform="matrix(0.69228672,0,0,0.69176551,-0.61265903,-1.2621002)" />
    <linearGradient
       xlink:href="#linearGradient3891"
       id="linearGradient3897"
       x1="24.772341"
       y1="8.1982851"
       x2="24.772341"
       y2="42.203014"
       gradientUnits="userSpaceOnUse"
       gradientTransform="matrix(0.66592834,0,0,0.66620838,-0.13579363,-1.1627718)" />
  </defs>
  <metadata
     id="metadata4122">
    <rdf:RDF>
      <cc:Work
         rdf:about="">
        <dc:format>image/svg+xml</dc:format>
        <dc:type
           rdf:resource="http://purl.org/dc/dcmitype/StillImage" />
        <dc:title />
      </cc:Work>
    </rdf:RDF>
  </metadata>
  <g
     style="display:inline"
     id="g2036"
     transform="matrix(0.7499997,0,0,0.33333364,-2.0000003,15.333328)">
    <g
       style="opacity:0.4"
       id="g3712"
       transform="matrix(1.052632,0,0,1.285713,-1.263158,-13.42854)">
      <rect
         style="fill:url(#radialGradient2873-966-168);fill-opacity:1;stroke:none"
         id="rect2801"
         y="40"
         x="38"
         height="7"
         width="5" />
      <rect
         style="fill:url(#radialGradient2875-742-326);fill-opacity:1;stroke:none"
         id="rect3696"
         transform="scale(-1,-1)"
         y="-47"
         x="-10"
         height="7"
         width="5" />
      <rect
         style="fill:url(#linearGradient2877-634-617);fill-opacity:1;stroke:none"
         id="rect3700"
         y="40"
         x="10"
         height="7.0000005"
         width="28" />
    </g>
  </g>
  <path
     style="opacity:0.05;color:#000000;fill:url(#linearGradient3098);fill-opacity:1;fill-rule:nonzero;stroke:none;stroke-width:1;marker:none;visibility:visible;display:inline;overflow:visible;enable-background:accumulate"
     id="path4564-0"
     d="m 15.288302,4.4017302 a 2.0325004,2.0309701 0 0 0 -0.97353,0.2810296 L 6.6779854,9.0927649 a 2.0325004,2.0309701 0 0 0 -0.9735284,1.4051481 2.0325004,2.0309701 0 0 0 -0.021632,0 2.0325004,2.0309701 0 0 0 -0.6706529,1.513236 l -0.043267,8.798395 a 2.0325004,2.0309701 0 0 0 0.6922867,1.513238 2.0325004,2.0309701 0 0 0 0,0.02159 2.0325004,2.0309701 0 0 0 0.995162,1.448385 l 7.6151529,4.36677 a 2.0325004,2.0309701 0 0 0 1.665815,0.151326 2.0325004,2.0309701 0 0 0 0.02161,0 2.0325004,2.0309701 0 0 0 1.730715,-0.129706 l 7.615158,-4.388384 a 2.0325004,2.0309701 0 0 0 0.97353,-1.38353 2.0325004,2.0309701 0 0 0 0.757188,-1.556475 l 0,-8.798389 A 2.0325004,2.0309701 0 0 0 26.343256,10.541151 2.0325004,2.0309701 0 0 0 25.348092,9.0927649 L 17.711304,4.7043776 A 2.0325004,2.0309701 0 0 0 16.045489,4.5314361 2.0325004,2.0309701 0 0 0 15.288302,4.4017302 z" />
  <rect
     style="color:#000000;fill:url(#radialGradient3093);fill-opacity:1;fill-rule:nonzero;stroke:url(#linearGradient3095);stroke-width:0.99999988;stroke-linecap:round;stroke-linejoin:round;stroke-miterlimit:4;stroke-opacity:1;stroke-dasharray:none;stroke-dashoffset:0;marker:none;visibility:visible;display:inline;overflow:visible;enable-background:accumulate"
     id="rect5505-21"
     y="2.5"
     x="2.5"
     ry="1.3846152"
     rx="1.3846152"
     height="27"
     width="27" />
  <rect
     style="fill:none;stroke:url(#linearGradient3084);stroke-width:0.99999994;stroke-linecap:round;stroke-linejoin:round;stroke-miterlimit:4;stroke-opacity:1;stroke-dasharray:none;stroke-dashoffset:0"
     id="rect6741-2"
     y="3.4999998"
     x="3.5"
     ry="0.37077546"
     rx="0.37077546"
     height="25"
     width="25" />
  <g
     style="display:none"
     id="layer2"
     transform="translate(-135.85714,-47.05041)">
    <path
       style="opacity:0.9;fill:url(#ButtonShadow);fill-opacity:1;fill-rule:nonzero;stroke:none;filter:url(#filter3174)"
       id="rect3745"
       d="M 11,7 48,5 85,7 c 3.324,0 6,2.676 6,6 l 0,73 c 0,3.324 -2.676,6 -6,6 L 11,92 C 7.676,92 5,89.324 5,86 L 5,13 C 5,9.676 7.676,7 11,7 z" />
  </g>
  <g
     style="display:none"
     id="layer4"
     transform="translate(-135.85714,-47.05041)">
    <rect
       style="opacity:0.6;fill:#000000;fill-opacity:1;stroke:none;filter:url(#filter3806)"
       id="rect3790"
       transform="matrix(0,-1,1,0,0,4)"
       y="56"
       x="-86"
       ry="2.8125"
       rx="2.8125"
       height="30"
       width="30" />
    <rect
       style="fill:url(#linearGradient3773);fill-opacity:1;stroke:none"
       id="rect2993"
       transform="matrix(0,-1,1,0,0,0)"
       y="56"
       x="-88"
       ry="2.8125"
       rx="2.8125"
       height="30"
       width="30" />
    <path
       style="opacity:0.5;fill:url(#linearGradient3788);fill-opacity:1;stroke:none"
       id="rect3775"
       d="M 58.8125,58 C 57.254375,58 56,59.254375 56,60.8125 l 0,24.375 c 0,0.873066 0.410816,1.641163 1.03125,2.15625 C 57.02841,87.289908 57,87.242129 57,87.1875 l 0,-24.375 C 57,61.254375 58.17075,60 59.625,60 l 22.75,0 C 83.82925,60 85,61.254375 85,62.8125 l 0,24.375 c 0,0.05463 -0.02841,0.102408 -0.03125,0.15625 C 85.589184,86.828663 86,86.060566 86,85.1875 l 0,-24.375 C 86,59.254375 84.745625,58 83.1875,58 l -24.375,0 z" />
    <path
       style="opacity:0.6;fill:url(#linearGradient3812);fill-opacity:1;fill-rule:nonzero;stroke:none;display:inline;filter:url(#filter3831)"
       id="path3810"
       clip-path="url(#clipPath3823)"
       transform="translate(-50,0)"
       d="m 116,63.5 0,8.75 -5,0 10,13.75 10,-13.75 -5,0 0,-8.75 -10,0 z" />
    <path
       style="fill:url(#linearGradient3832);fill-opacity:1;fill-rule:nonzero;stroke:none;display:inline"
       id="path4278"
       d="m 66,62.5 0,8.75 -5,0 10,13.75 10,-13.75 -5,0 0,-8.75 -10,0 z" />
  </g>
  <path
     style="opacity:0.6;fill:#ffffff;fill-opacity:1"
     d="m 13.552718,27.893797 c -1.496818,-0.220232 -2.57567,-0.696269 -3.432311,-1.514484 -1.5373655,-1.468409 -1.4876048,-3.62285 0.120597,-5.22127 1.09038,-1.083742 2.923718,-1.752751 5.374836,-1.961338 0.451724,-0.03843 0.836089,-0.08274 0.854145,-0.09838 0.01805,-0.01565 -0.123272,-0.252136 -0.314052,-0.525491 -0.272641,-0.39063 -0.356745,-0.634745 -0.392976,-1.140615 -0.02538,-0.353994 0.005,-0.792071 0.06774,-0.973505 l 0.113868,-0.329884 -0.774349,0 c -2.495664,0 -4.301244,-1.472258 -4.701784,-3.833803 -0.239688,-1.413165 0.367666,-3.0883619 1.523325,-4.2016117 1.145909,-1.103858 3.068648,-1.7968502 4.985441,-1.7968502 0.742086,0 1.172588,-0.1534253 2.397532,-0.8544427 0.424907,-0.2431655 0.812694,-0.4421194 0.861752,-0.4421194 0.15519,0 0.747525,0.5533839 0.747525,0.6983701 0,0.076412 -0.269344,0.5114035 -0.598541,0.9666542 l -0.598543,0.8277184 0.421835,0.4621837 c 1.330277,1.457501 1.661094,3.3302406 0.886468,5.0182496 -0.272747,0.594348 -0.534753,0.918966 -1.457632,1.805957 -0.858084,0.824719 -1.144801,1.170897 -1.208055,1.458632 -0.150445,0.684336 0.02851,1.023616 0.926377,1.756335 1.306068,1.065834 2.322956,2.095301 2.627011,2.659495 0.154195,0.286113 0.354645,0.843724 0.445445,1.239129 0.147818,0.643708 0.148193,0.79249 0.0035,1.422181 -0.08885,0.386802 -0.288635,0.95666 -0.44403,1.266357 -0.360695,0.718865 -1.420813,1.835999 -2.132556,2.247256 -1.679141,0.970245 -4.131487,1.38474 -6.302686,1.06528 z m 5.011398,-1.496403 c 0.736304,-0.288261 1.37907,-0.837553 1.703035,-1.45538 0.309605,-0.590433 0.325386,-1.883445 0.02975,-2.438426 -0.274602,-0.515502 -1.253096,-1.45685 -2.177733,-2.09505 l -0.765516,-0.528372 -0.939687,0.07521 c -2.536798,0.203058 -3.998851,0.882176 -4.659519,2.164329 -0.356798,0.692445 -0.320867,1.783586 0.08333,2.530155 0.775762,1.432894 2.291702,2.08597 4.706368,2.027519 1.138359,-0.02759 1.50501,-0.07836 2.019971,-0.279984 z M 17.695241,14.976681 c 1.248146,-0.630308 1.627397,-2.103048 1.086573,-4.219473 C 18.40205,9.2710515 17.504146,7.9544129 16.55342,7.4896053 16.039222,7.2382173 15.288964,7.203659 14.63082,7.4010433 c -0.631332,0.1893428 -1.373728,0.9705 -1.569154,1.6510734 -0.323552,1.1267693 -0.09003,2.8982013 0.551162,4.1810053 0.941891,1.884387 2.492302,2.546556 4.082413,1.743557 z"
     id="path3082-7" />
  <path
     style="fill:#3b60b5;fill-opacity:1"
     d="M 13.552718,26.902033 C 12.055899,26.6818 10.977047,26.205761 10.120407,25.387546 8.5830416,23.919141 8.6328023,21.764698 10.241003,20.166279 c 1.090381,-1.083745 2.923719,-1.752752 5.374837,-1.961337 0.451723,-0.03842 0.836088,-0.08274 0.854144,-0.09838 0.01805,-0.01566 -0.123271,-0.25214 -0.314052,-0.525492 -0.27264,-0.390634 -0.356745,-0.634748 -0.392975,-1.140619 -0.02538,-0.353988 0.005,-0.792066 0.06774,-0.973499 l 0.113868,-0.329884 -0.774348,0 c -2.495664,0 -4.301244,-1.472258 -4.701785,-3.833802 -0.239687,-1.4131654 0.367667,-3.0883631 1.523326,-4.2016127 1.145909,-1.1038579 3.068647,-1.7968494 4.985441,-1.7968494 0.742085,0 1.172588,-0.1534255 2.397531,-0.8544432 0.424908,-0.2431654 0.812694,-0.4421198 0.861752,-0.4421198 0.15519,0 0.747525,0.5533842 0.747525,0.6983701 0,0.076412 -0.269343,0.5114046 -0.598541,0.9666544 l -0.598535,0.8277221 0.421835,0.4621837 c 1.330277,1.4575009 1.661094,3.3302408 0.886469,5.0182468 -0.272747,0.594351 -0.534754,0.918968 -1.457634,1.805956 -0.858083,0.824718 -1.1448,1.1709 -1.208055,1.458631 -0.150445,0.68434 0.02851,1.023617 0.926378,1.756338 1.306068,1.065834 2.322956,2.095301 2.62701,2.659494 0.154196,0.286112 0.354646,0.843724 0.445446,1.239131 0.147817,0.643706 0.148193,0.79249 0.0035,1.422183 -0.08885,0.386801 -0.288636,0.956658 -0.444031,1.266354 -0.360695,0.718867 -1.420813,1.835997 -2.132556,2.247256 -1.679141,0.970244 -4.131486,1.384741 -6.302685,1.065281 z m 5.011397,-1.496403 c 0.736305,-0.288263 1.37907,-0.837552 1.703035,-1.455381 0.309605,-0.590433 0.325386,-1.883445 0.02975,-2.438424 -0.274603,-0.515506 -1.253096,-1.456851 -2.177733,-2.095054 L 17.353651,18.8884 16.413963,18.96361 c -2.536798,0.203058 -3.99885,0.882176 -4.659519,2.164329 -0.356797,0.692445 -0.320867,1.783584 0.08333,2.530153 0.775763,1.432896 2.291702,2.085972 4.706369,2.027519 1.138358,-0.02756 1.50501,-0.07835 2.01997,-0.279983 z M 17.69524,13.984916 c 1.248146,-0.630303 1.627397,-2.10305 1.086573,-4.2194714 C 18.402049,8.2792884 17.504145,6.9626498 16.553419,6.4978423 16.039222,6.2464542 15.288963,6.2118959 14.63082,6.4092818 c -0.631332,0.1893427 -1.373729,0.9704997 -1.569154,1.6510731 -0.323552,1.1267707 -0.09003,2.8982021 0.551162,4.1810051 0.941891,1.884386 2.492301,2.546556 4.082412,1.743555 z"
     id="path3082" />
  <path
     style="opacity:0.1;fill:none;stroke:url(#linearGradient3897);stroke-width:0.80000001;stroke-miterlimit:4;stroke-opacity:1;stroke-dasharray:none"
     d="m 20.237453,4.4999995 c -1.117199,0.5645523 -2.219927,1.3909521 -3.544534,1.2569642 -2.134442,0.1044994 -4.515222,0.9546854 -5.408778,3.0359587 -1.003757,1.9754696 -0.08574,4.8197986 2.016325,5.6432746 0.881005,0.412384 1.861942,0.351108 2.803468,0.384404 0.387785,0.147227 0.107204,0.571647 0.07797,0.84508 -0.221818,0.888672 0.236521,1.653423 0.663427,2.366675 -0.192247,0.64957 -1.145819,0.424192 -1.667508,0.601412 -2.000336,0.241921 -4.297834,0.764034 -5.3138614,2.683723 -0.9088403,1.73215 -0.4763988,3.119441 0.7451374,3.982017 1.708421,1.317779 4.256512,1.465139 6.308015,1.166282 1.518176,-0.251948 3.061089,-0.917962 4.041473,-2.171783 0.755355,-0.772437 1.207337,-1.840901 1.251529,-2.915692 -0.128865,-1.029939 -0.584353,-2.009017 -1.376609,-2.694456 -0.764336,-0.848937 -1.934373,-1.436432 -2.675694,-2.300348 -0.538685,-0.824187 0.236506,-2.035396 0.90729,-2.586728 0.881725,-0.843834 1.74075,-1.533685 1.939769,-2.813022 C 21.362359,9.4548967 20.568881,7.9004333 19.481186,6.8565648 19.130071,6.5745499 19.536356,6.2158203 19.705194,5.9648698 19.96005,5.468311 20.948518,4.6867335 20.237418,4.4999995 z m -4.49502,1.4070564 c 1.654126,0.071335 2.780393,1.7916279 3.268972,3.2093356 0.465729,1.4644675 0.713102,3.4148715 -0.446206,4.6517865 -1.088616,1.106918 -3.215425,1.247375 -4.293779,0.09161 -1.359672,-1.41392 -2.010023,-3.754169 -1.678669,-5.6732211 0.281592,-1.3108836 1.792283,-2.3992205 3.149682,-2.2796165 z m 1.644013,12.6041371 c 0.4164,0.128096 0.735991,0.489706 1.113398,0.708016 0.830949,0.657585 1.771802,1.325276 2.19125,2.331728 0.346839,1.214915 0.0682,2.682535 -1.028842,3.427601 -1.212732,0.98393 -2.859596,0.87543 -4.324284,0.800203 -1.67655,-0.08673 -3.45704,-1.060629 -3.89574,-2.780965 -0.428075,-1.396285 0.34331,-2.923384 1.618939,-3.563231 1.320057,-0.722563 2.852128,-0.835831 4.325279,-0.923352 z"
     id="path3888" />
</svg>
