<?xml version="1.0" encoding="UTF-8" standalone="no"?>
<!-- Created with Inkscape (http://www.inkscape.org/) -->

<svg
   xmlns:dc="http://purl.org/dc/elements/1.1/"
   xmlns:cc="http://creativecommons.org/ns#"
   xmlns:rdf="http://www.w3.org/1999/02/22-rdf-syntax-ns#"
   xmlns:svg="http://www.w3.org/2000/svg"
   xmlns="http://www.w3.org/2000/svg"
   xmlns:xlink="http://www.w3.org/1999/xlink"
   xmlns:sodipodi="http://sodipodi.sourceforge.net/DTD/sodipodi-0.dtd"
   xmlns:inkscape="http://www.inkscape.org/namespaces/inkscape"
   width="32"
   height="32"
   id="svg4032"
   version="1.1"
   inkscape:version="0.48.4 r9939"
   sodipodi:docname="google-calendar.svg">
  <defs
     id="defs4034">
    <linearGradient
       inkscape:collect="always"
       xlink:href="#linearGradient3940"
       id="linearGradient3946"
       x1="25.287861"
       y1="10.84078"
       x2="25.287861"
       y2="38.98481"
       gradientUnits="userSpaceOnUse"
       gradientTransform="translate(-60,0)" />
    <linearGradient
       id="linearGradient3940">
      <stop
         style="stop-color:#f7f7f7;stop-opacity:1;"
         offset="0"
         id="stop3942" />
      <stop
         style="stop-color:#fef2cc;stop-opacity:1;"
         offset="1"
         id="stop3944" />
    </linearGradient>
    <linearGradient
       y2="39.798145"
       x2="26.939138"
       y1="10.156249"
       x1="26.939138"
       gradientUnits="userSpaceOnUse"
       id="linearGradient3118"
       xlink:href="#linearGradient3895-9-0-3"
       inkscape:collect="always"
       gradientTransform="translate(-60,0)" />
    <linearGradient
       id="linearGradient3895-9-0-3">
      <stop
         offset="0"
         style="stop-color:#dc5639;stop-opacity:1;"
         id="stop3897-0-5-7" />
      <stop
         offset="1"
         style="stop-color:#9d0f0f;stop-opacity:1;"
         id="stop3899-8-7-06" />
    </linearGradient>
    <linearGradient
       inkscape:collect="always"
       xlink:href="#linearGradient3895-9-0-3"
       id="linearGradient4018-8"
       x1="28.383904"
       y1="9.0511551"
       x2="28.383904"
       y2="40.814419"
       gradientUnits="userSpaceOnUse"
       gradientTransform="translate(-60,0)" />
    <linearGradient
       inkscape:collect="always"
       xlink:href="#linearGradient3895-9-0-3"
       id="linearGradient4010-3"
       x1="21.507429"
       y1="7.8855376"
       x2="21.507429"
       y2="42.121353"
       gradientUnits="userSpaceOnUse"
       gradientTransform="translate(-60,0)" />
    <linearGradient
       id="linearGradient4067-0-2">
      <stop
         id="stop4069-2-9"
         offset="0"
         style="stop-color:#ff8d52;stop-opacity:1;" />
      <stop
         id="stop4071-8-9"
         offset="1"
         style="stop-color:#ffeb41;stop-opacity:0;" />
    </linearGradient>
    <linearGradient
       inkscape:collect="always"
       xlink:href="#linearGradient3924"
       id="linearGradient2959"
       gradientUnits="userSpaceOnUse"
       gradientTransform="matrix(0.67567557,0,0,0.67567577,-0.21621295,15.78379)"
       x1="23.99999"
       y1="4.999989"
       x2="23.99999"
       y2="43" />
    <linearGradient
       id="linearGradient3924">
      <stop
         offset="0"
         style="stop-color:#ffffff;stop-opacity:1;"
         id="stop3926" />
      <stop
         id="stop3928"
         style="stop-color:#ffffff;stop-opacity:0.23529412;"
         offset="0.06316455" />
      <stop
         offset="0.95056331"
         style="stop-color:#ffffff;stop-opacity:0.15686275;"
         id="stop3930" />
      <stop
         offset="1"
         style="stop-color:#ffffff;stop-opacity:0.39215687;"
         id="stop3932" />
    </linearGradient>
    <linearGradient
       inkscape:collect="always"
       xlink:href="#linearGradient4011"
       id="linearGradient3568"
       gradientUnits="userSpaceOnUse"
       gradientTransform="matrix(0.56446022,0,0,0.89459796,2.4265491,13.889869)"
       x1="13.13743"
       y1="18.776737"
       x2="25.258932"
       y2="34.146767" />
    <linearGradient
       id="linearGradient8265-821-176-38-919-66-249-7-7">
      <stop
         offset="0"
         style="stop-color:#e77e71;stop-opacity:1;"
         id="stop2687-1-9" />
      <stop
         offset="1"
         style="stop-color:#ffdf80;stop-opacity:0.375;"
         id="stop2689-5-4" />
    </linearGradient>
    <radialGradient
       r="19.99999"
       fy="8.4497671"
       fx="7.4956832"
       cy="8.4497671"
       cx="7.4956832"
       gradientTransform="matrix(1.3450474e-8,1.6179163,-1.7115621,-2.9808188e-8,30.462375,6.7759088)"
       gradientUnits="userSpaceOnUse"
       id="radialGradient2874"
       xlink:href="#linearGradient2867-449-88-871-390-598-476-591-434-148-57-177-3-8"
       inkscape:collect="always" />
    <linearGradient
       id="linearGradient4644-104-3-3-6-2">
      <stop
         id="stop5237-6-5-1-7"
         style="stop-color:#e44532;stop-opacity:1;"
         offset="0" />
      <stop
         id="stop5239-4-6-4-8"
         style="stop-color:#dd4b39;stop-opacity:1;"
         offset="1" />
    </linearGradient>
    <linearGradient
       y2="5"
       x2="-4.0000014"
       y1="41"
       x1="-4.0000014"
       gradientTransform="matrix(0.69230759,0,0,0.69230764,-0.61538483,15.384615)"
       gradientUnits="userSpaceOnUse"
       id="linearGradient2876"
       xlink:href="#linearGradient3707-319-631-407-324-3-8"
       inkscape:collect="always" />
    <radialGradient
       inkscape:collect="always"
       xlink:href="#linearGradient3688-166-749"
       id="radialGradient3013"
       gradientUnits="userSpaceOnUse"
       gradientTransform="matrix(2.003784,0,0,1.4,27.98813,-17.4)"
       cx="4.9929786"
       cy="43.5"
       fx="4.9929786"
       fy="43.5"
       r="2.5" />
    <linearGradient
       id="linearGradient3688-166-749">
      <stop
         offset="0"
         style="stop-color:#181818;stop-opacity:1"
         id="stop2883" />
      <stop
         offset="1"
         style="stop-color:#181818;stop-opacity:0"
         id="stop2885" />
    </linearGradient>
    <radialGradient
       inkscape:collect="always"
       xlink:href="#linearGradient3688-464-309"
       id="radialGradient3015"
       gradientUnits="userSpaceOnUse"
       gradientTransform="matrix(2.003784,0,0,1.4,-20.01187,-104.4)"
       cx="4.9929786"
       cy="43.5"
       fx="4.9929786"
       fy="43.5"
       r="2.5" />
    <linearGradient
       id="linearGradient3688-464-309">
      <stop
         offset="0"
         style="stop-color:#181818;stop-opacity:1"
         id="stop2889" />
      <stop
         offset="1"
         style="stop-color:#181818;stop-opacity:0"
         id="stop2891" />
    </linearGradient>
    <linearGradient
       id="linearGradient3702-501-757">
      <stop
         offset="0"
         style="stop-color:#181818;stop-opacity:0"
         id="stop2895" />
      <stop
         offset="0.5"
         style="stop-color:#181818;stop-opacity:1"
         id="stop2897" />
      <stop
         offset="1"
         style="stop-color:#181818;stop-opacity:0"
         id="stop2899" />
    </linearGradient>
    <linearGradient
       y2="39.999443"
       x2="25.058096"
       y1="47.027729"
       x1="25.058096"
       gradientUnits="userSpaceOnUse"
       id="linearGradient4030"
       xlink:href="#linearGradient3702-501-757"
       inkscape:collect="always" />
    <radialGradient
       inkscape:collect="always"
       xlink:href="#linearGradient8838"
       id="radialGradient4267"
       gradientUnits="userSpaceOnUse"
       gradientTransform="matrix(2.1647059,0,0,0.7529402,-111.56471,36.517647)"
       cx="62.625"
       cy="4.625"
       fx="62.625"
       fy="4.625"
       r="10.625" />
    <linearGradient
       id="linearGradient8838">
      <stop
         offset="0"
         style="stop-color:#000000;stop-opacity:1"
         id="stop8840" />
      <stop
         offset="1"
         style="stop-color:#000000;stop-opacity:0"
         id="stop8842" />
    </linearGradient>
    <linearGradient
       y2="3.8990016"
       x2="24"
       y1="44"
       x1="24"
       gradientTransform="translate(2.39e-6,1.0000002)"
       gradientUnits="userSpaceOnUse"
       id="linearGradient3911-1"
       xlink:href="#linearGradient3707-319-631-407-324-3-8"
       inkscape:collect="always" />
    <linearGradient
       id="linearGradient2867-449-88-871-390-598-476-591-434-148-57-177-3-8">
      <stop
         id="stop3750-8-9"
         style="stop-color:#90dbec;stop-opacity:1;"
         offset="0" />
      <stop
         id="stop3752-3-2"
         style="stop-color:#42baea;stop-opacity:1;"
         offset="0.26238" />
      <stop
         id="stop3754-7-2"
         style="stop-color:#3689e6;stop-opacity:1;"
         offset="0.704952" />
      <stop
         id="stop3756-9-3"
         style="stop-color:#2b63a0;stop-opacity:1;"
         offset="1" />
    </linearGradient>
    <radialGradient
       r="19.99999"
       fy="8.4497671"
       fx="3.9722471"
       cy="8.4497671"
       cx="3.9722471"
       gradientTransform="matrix(0,2.3767198,-2.5142859,-6.4690655e-8,45.245242,-9.412373)"
       gradientUnits="userSpaceOnUse"
       id="radialGradient3909-0"
       xlink:href="#linearGradient2867-449-88-871-390-598-476-591-434-148-57-177-3-8"
       inkscape:collect="always" />
    <linearGradient
       id="linearGradient4011">
      <stop
         id="stop4013"
         style="stop-color:#ffffff;stop-opacity:1;"
         offset="0" />
      <stop
         offset="0.507761"
         style="stop-color:#ffffff;stop-opacity:0.23529412;"
         id="stop4015" />
      <stop
         id="stop4017"
         style="stop-color:#ffffff;stop-opacity:0.15686275;"
         offset="0.83456558" />
      <stop
         id="stop4019"
         style="stop-color:#ffffff;stop-opacity:0.39215687;"
         offset="1" />
    </linearGradient>
    <linearGradient
       y2="44.340794"
       x2="71.204407"
       y1="6.2375584"
       x1="71.204407"
       gradientTransform="translate(-47.733515,-0.3572397)"
       gradientUnits="userSpaceOnUse"
       id="linearGradient3906-0"
       xlink:href="#linearGradient4011"
       inkscape:collect="always" />
    <linearGradient
       id="linearGradient3707-319-631-407-324-3-8">
      <stop
         id="stop3760-7-3"
         style="stop-color:#185f9a;stop-opacity:1;"
         offset="0" />
      <stop
         id="stop3762-8-4"
         style="stop-color:#599ec9;stop-opacity:1;"
         offset="1" />
    </linearGradient>
    <linearGradient
       gradientUnits="userSpaceOnUse"
       y2="0.088140324"
       x2="22.950275"
       y1="45.185081"
       x1="22.950275"
       id="linearGradient4079"
       xlink:href="#linearGradient3707-319-631-407-324-3-8"
       inkscape:collect="always" />
    <linearGradient
       y2="34.548019"
       x2="60.948738"
       y1="-5.801291"
       x1="60.948738"
       gradientTransform="matrix(0.35010764,0,0,0.36130751,1.5259338,26.093427)"
       gradientUnits="userSpaceOnUse"
       id="linearGradient4183"
       xlink:href="#linearGradient4072"
       inkscape:collect="always" />
    <linearGradient
       id="linearGradient4072"
       inkscape:collect="always">
      <stop
         id="stop4074"
         offset="0"
         style="stop-color:#000000;stop-opacity:1;" />
      <stop
         id="stop4076"
         offset="1"
         style="stop-color:#000000;stop-opacity:0;" />
    </linearGradient>
    <linearGradient
       y2="33.986996"
       x2="69.311714"
       y1="-15.790401"
       x1="69.311714"
       gradientTransform="matrix(0.34365524,0,0,0.33978679,1.6032383,26.290608)"
       gradientUnits="userSpaceOnUse"
       id="linearGradient4180"
       xlink:href="#linearGradient4072"
       inkscape:collect="always" />
    <linearGradient
       id="linearGradient4062"
       inkscape:collect="always">
      <stop
         id="stop4064"
         offset="0"
         style="stop-color:#000000;stop-opacity:1;" />
      <stop
         id="stop4066"
         offset="1"
         style="stop-color:#000000;stop-opacity:0;" />
    </linearGradient>
    <linearGradient
       y2="-24.791594"
       x2="72.458694"
       y1="-37.888779"
       x1="72.458694"
       gradientTransform="matrix(0.32209081,0,0,0.33064419,3.4344155,24.890793)"
       gradientUnits="userSpaceOnUse"
       id="linearGradient4177"
       xlink:href="#linearGradient4062"
       inkscape:collect="always" />
    <linearGradient
       id="linearGradient4072-8"
       inkscape:collect="always">
      <stop
         id="stop4074-2"
         offset="0"
         style="stop-color:#000000;stop-opacity:1;" />
      <stop
         id="stop4076-2"
         offset="1"
         style="stop-color:#000000;stop-opacity:0;" />
    </linearGradient>
    <linearGradient
       y2="27.727411"
       x2="69.311714"
       y1="21.319286"
       x1="69.311714"
       gradientTransform="matrix(0.35010764,0,0,0.36130751,1.3499354,26.906196)"
       gradientUnits="userSpaceOnUse"
       id="linearGradient4174"
       xlink:href="#linearGradient4072-8"
       inkscape:collect="always" />
    <linearGradient
       inkscape:collect="always"
       xlink:href="#linearGradient4072-8"
       id="linearGradient3964"
       gradientUnits="userSpaceOnUse"
       gradientTransform="matrix(0.35010764,0,0,0.36130751,-44.870511,-10.442272)"
       x1="69.311714"
       y1="21.319286"
       x2="69.311714"
       y2="27.727411" />
    <linearGradient
       inkscape:collect="always"
       xlink:href="#linearGradient4062"
       id="linearGradient3967"
       gradientUnits="userSpaceOnUse"
       gradientTransform="matrix(0.32209081,0,0,0.33064419,-42.786031,-12.457675)"
       x1="72.458694"
       y1="-37.888779"
       x2="72.458694"
       y2="-24.791594" />
    <linearGradient
       inkscape:collect="always"
       xlink:href="#linearGradient4072"
       id="linearGradient3970"
       gradientUnits="userSpaceOnUse"
       gradientTransform="matrix(0.34365524,0,0,0.33978679,-44.617208,-11.05786)"
       x1="69.311714"
       y1="-15.790401"
       x2="69.311714"
       y2="33.986996" />
    <linearGradient
       inkscape:collect="always"
       xlink:href="#linearGradient4072"
       id="linearGradient3973"
       gradientUnits="userSpaceOnUse"
       gradientTransform="matrix(0.35010764,0,0,0.36130751,-44.694512,-11.255041)"
       x1="60.948738"
       y1="-5.801291"
       x2="60.948738"
       y2="34.548019" />
    <linearGradient
       inkscape:collect="always"
       xlink:href="#linearGradient3707-319-631-407-324-3-8"
       id="linearGradient3977"
       gradientUnits="userSpaceOnUse"
       x1="22.950275"
       y1="45.185081"
       x2="22.950275"
       y2="0.088140324"
       gradientTransform="translate(-46.220446,-37.348468)" />
    <linearGradient
       inkscape:collect="always"
       xlink:href="#linearGradient4011"
       id="linearGradient3980"
       gradientUnits="userSpaceOnUse"
       gradientTransform="translate(-93.953961,-37.705708)"
       x1="71.204407"
       y1="6.2375584"
       x2="71.204407"
       y2="44.340794" />
    <radialGradient
       inkscape:collect="always"
       xlink:href="#linearGradient2867-449-88-871-390-598-476-591-434-148-57-177-3-8"
       id="radialGradient3983"
       gradientUnits="userSpaceOnUse"
       gradientTransform="matrix(0,2.3767198,-2.5142859,-6.4690655e-8,-0.975204,-46.760841)"
       cx="3.9722471"
       cy="8.4497671"
       fx="3.9722471"
       fy="8.4497671"
       r="19.99999" />
    <linearGradient
       inkscape:collect="always"
       xlink:href="#linearGradient3707-319-631-407-324-3-8"
       id="linearGradient3985"
       gradientUnits="userSpaceOnUse"
       gradientTransform="translate(-46.220444,-36.348468)"
       x1="24"
       y1="44"
       x2="24"
       y2="3.8990016" />
    <radialGradient
       inkscape:collect="always"
       xlink:href="#linearGradient8838"
       id="radialGradient3988"
       gradientUnits="userSpaceOnUse"
       gradientTransform="matrix(2.1647059,0,0,0.7529402,-157.78516,-0.830821)"
       cx="62.625"
       cy="4.625"
       fx="62.625"
       fy="4.625"
       r="10.625" />
    <linearGradient
       gradientTransform="matrix(1,0,0,0.9777778,9.9353024e-8,-0.9888879)"
       gradientUnits="userSpaceOnUse"
       xlink:href="#linearGradient3211"
       id="linearGradient2946"
       y2="46.01725"
       x2="24"
       y1="1.9999999"
       x1="24" />
    <linearGradient
       id="linearGradient3211">
      <stop
         offset="0"
         style="stop-color:#ffffff;stop-opacity:1"
         id="stop3213" />
      <stop
         offset="1"
         style="stop-color:#ffffff;stop-opacity:0"
         id="stop3215" />
    </linearGradient>
    <radialGradient
       gradientTransform="matrix(0.36170675,0,0,-0.3907784,0.8509869,47.517004)"
       gradientUnits="userSpaceOnUse"
       xlink:href="#XMLID_8_"
       id="radialGradient2997"
       r="139.55859"
       cy="112.3047"
       cx="102" />
    <linearGradient
       id="linearGradient8589-8">
      <stop
         offset="0"
         style="stop-color:#fefefe;stop-opacity:1"
         id="stop8591-1" />
      <stop
         offset="1"
         style="stop-color:#cbcbcb;stop-opacity:1"
         id="stop8593-2" />
    </linearGradient>
    <linearGradient
       gradientTransform="matrix(0.99771106,0,0,1.0406866,0.1637173,-1.1057947)"
       gradientUnits="userSpaceOnUse"
       xlink:href="#linearGradient8589-8"
       id="linearGradient2633"
       y2="5.4565363"
       x2="36.358372"
       y1="8.0590115"
       x1="32.892288" />
    <filter
       id="filter3248"
       color-interpolation-filters="sRGB"
       height="1.3286875"
       width="1.2969251"
       y="-0.16434373"
       x="-0.14846256">
      <feGaussianBlur
         id="feGaussianBlur3250"
         stdDeviation="0.77391625" />
    </filter>
    <radialGradient
       gradientUnits="userSpaceOnUse"
       id="XMLID_8_"
       r="139.55859"
       cy="112.3047"
       cx="102">
      <stop
         offset="0"
         style="stop-color:#b7b8b9;stop-opacity:1"
         id="stop41" />
      <stop
         offset="0.18851049"
         style="stop-color:#ececec;stop-opacity:1"
         id="stop47" />
      <stop
         offset="0.25718147"
         style="stop-color:#fafafa;stop-opacity:0"
         id="stop49" />
      <stop
         offset="0.30111277"
         style="stop-color:#ffffff;stop-opacity:0"
         id="stop51" />
      <stop
         offset="0.53130001"
         style="stop-color:#fafafa;stop-opacity:0"
         id="stop53" />
      <stop
         offset="0.84490001"
         style="stop-color:#ebecec;stop-opacity:0"
         id="stop55" />
      <stop
         offset="1"
         style="stop-color:#e1e2e3;stop-opacity:0"
         id="stop57" />
    </radialGradient>
    <linearGradient
       gradientTransform="matrix(0.4063605,0,0,1.4407893,8.3143938,-4.5939912)"
       gradientUnits="userSpaceOnUse"
       xlink:href="#linearGradient5031"
       id="linearGradient6143"
       y2="10.035408"
       x2="22.104254"
       y1="40.124432"
       x1="22.104254" />
    <linearGradient
       gradientTransform="matrix(0.3814643,0,0,1.4009103,8.4789307,6.2584122)"
       gradientUnits="userSpaceOnUse"
       xlink:href="#linearGradient5031"
       id="linearGradient6073"
       y2="10.035408"
       x2="22.104254"
       y1="40.124432"
       x1="22.104254" />
    <linearGradient
       gradientTransform="matrix(1.7828362,0,0,1.4407913,-37.938893,-27.441342)"
       gradientUnits="userSpaceOnUse"
       xlink:href="#linearGradient5031"
       id="linearGradient6065"
       y2="10.035408"
       x2="22.104254"
       y1="40.124432"
       x1="22.104254" />
    <linearGradient
       gradientTransform="matrix(0.3342091,0,0,1.4207463,9.6790122,-0.23795132)"
       gradientUnits="userSpaceOnUse"
       xlink:href="#linearGradient5031"
       id="linearGradient5988"
       y2="10.035408"
       x2="22.104254"
       y1="40.124432"
       x1="22.104254" />
    <linearGradient
       gradientTransform="matrix(0.4876325,0,0,1.4406684,7.777273,1.4082398)"
       gradientUnits="userSpaceOnUse"
       xlink:href="#linearGradient5031"
       id="linearGradient5984"
       y2="10.035408"
       x2="22.104254"
       y1="40.124432"
       x1="22.104254" />
    <linearGradient
       gradientTransform="matrix(0.369496,0,0,1.4205132,9.0116197,3.7802626)"
       gradientUnits="userSpaceOnUse"
       xlink:href="#linearGradient5031"
       id="linearGradient5980"
       y2="10.035408"
       x2="22.104254"
       y1="40.124432"
       x1="22.104254" />
    <linearGradient
       id="linearGradient5031">
      <stop
         offset="0"
         style="stop-color:#a3a3a3;stop-opacity:1"
         id="stop5033" />
      <stop
         offset="1"
         style="stop-color:#bababa;stop-opacity:1"
         id="stop5035" />
    </linearGradient>
    <linearGradient
       gradientTransform="matrix(0.8074968,0,0,0.9358511,59.410236,-2.1144791)"
       gradientUnits="userSpaceOnUse"
       xlink:href="#linearGradient3104"
       id="linearGradient3603"
       y2="2.9062471"
       x2="-51.786404"
       y1="50.786446"
       x1="-51.786404" />
    <linearGradient
       gradientTransform="translate(0,-0.99999972)"
       gradientUnits="userSpaceOnUse"
       xlink:href="#linearGradient3600"
       id="linearGradient3601"
       y2="47.013336"
       x2="25.132275"
       y1="6.7287393"
       x1="25.132275" />
    <radialGradient
       gradientTransform="matrix(0.02409717,0,0,0.01537476,26.477584,38.629039)"
       gradientUnits="userSpaceOnUse"
       xlink:href="#linearGradient5060"
       id="radialGradient3588"
       fy="486.64789"
       fx="605.71429"
       r="117.14286"
       cy="486.64789"
       cx="605.71429" />
    <radialGradient
       gradientTransform="matrix(-0.02409717,0,0,0.01537476,21.522412,38.629039)"
       gradientUnits="userSpaceOnUse"
       xlink:href="#linearGradient5060"
       id="radialGradient3586"
       fy="486.64789"
       fx="605.71429"
       r="117.14286"
       cy="486.64789"
       cx="605.71429" />
    <linearGradient
       gradientTransform="matrix(0.0704142,0,0,0.01537476,-1.4497047,38.629007)"
       gradientUnits="userSpaceOnUse"
       xlink:href="#linearGradient5048"
       id="linearGradient3584"
       y2="609.50507"
       x2="302.85715"
       y1="366.64789"
       x1="302.85715" />
    <linearGradient
       id="linearGradient5060">
      <stop
         offset="0"
         style="stop-color:#000000;stop-opacity:1"
         id="stop5062" />
      <stop
         offset="1"
         style="stop-color:#000000;stop-opacity:0"
         id="stop5064" />
    </linearGradient>
    <linearGradient
       id="linearGradient5048">
      <stop
         offset="0"
         style="stop-color:#000000;stop-opacity:0"
         id="stop5050" />
      <stop
         offset="0.5"
         style="stop-color:#000000;stop-opacity:1"
         id="stop5056" />
      <stop
         offset="1"
         style="stop-color:#000000;stop-opacity:0"
         id="stop5052" />
    </linearGradient>
    <linearGradient
       id="linearGradient3600">
      <stop
         offset="0"
         style="stop-color:#f4f4f4;stop-opacity:1"
         id="stop3602" />
      <stop
         offset="1"
         style="stop-color:#dbdbdb;stop-opacity:1"
         id="stop3604" />
    </linearGradient>
    <linearGradient
       id="linearGradient3104">
      <stop
         offset="0"
         style="stop-color:#aaaaaa;stop-opacity:1"
         id="stop3106" />
      <stop
         offset="1"
         style="stop-color:#d2d2d2;stop-opacity:1"
         id="stop3108" />
    </linearGradient>
    <linearGradient
       inkscape:collect="always"
       xlink:href="#linearGradient5048"
       id="linearGradient3366"
       gradientUnits="userSpaceOnUse"
       gradientTransform="matrix(0.0704142,0,0,0.01537476,-1.4497047,38.629007)"
       x1="302.85715"
       y1="366.64789"
       x2="302.85715"
       y2="609.50507" />
    <radialGradient
       inkscape:collect="always"
       xlink:href="#linearGradient5060"
       id="radialGradient3368"
       gradientUnits="userSpaceOnUse"
       gradientTransform="matrix(-0.02409717,0,0,0.01537476,21.522412,38.629039)"
       cx="605.71429"
       cy="486.64789"
       fx="605.71429"
       fy="486.64789"
       r="117.14286" />
    <radialGradient
       inkscape:collect="always"
       xlink:href="#linearGradient5060"
       id="radialGradient3370"
       gradientUnits="userSpaceOnUse"
       gradientTransform="matrix(0.02409717,0,0,0.01537476,26.477584,38.629039)"
       cx="605.71429"
       cy="486.64789"
       fx="605.71429"
       fy="486.64789"
       r="117.14286" />
    <linearGradient
       inkscape:collect="always"
       xlink:href="#linearGradient3600"
       id="linearGradient3372"
       gradientUnits="userSpaceOnUse"
       gradientTransform="translate(0,-0.99999972)"
       x1="25.132275"
       y1="6.7287393"
       x2="25.132275"
       y2="47.013336" />
    <linearGradient
       inkscape:collect="always"
       xlink:href="#linearGradient3104"
       id="linearGradient3374"
       gradientUnits="userSpaceOnUse"
       gradientTransform="matrix(0.8074968,0,0,0.9358511,59.410236,-2.1144791)"
       x1="-51.786404"
       y1="50.786446"
       x2="-51.786404"
       y2="2.9062471" />
    <linearGradient
       inkscape:collect="always"
       xlink:href="#linearGradient3211"
       id="linearGradient3376"
       gradientUnits="userSpaceOnUse"
       gradientTransform="matrix(1,0,0,0.9777778,9.9353024e-8,-0.9888879)"
       x1="24"
       y1="1.9999999"
       x2="24"
       y2="46.01725" />
    <linearGradient
       inkscape:collect="always"
       xlink:href="#linearGradient5031"
       id="linearGradient3378"
       gradientUnits="userSpaceOnUse"
       gradientTransform="matrix(0.3342091,0,0,1.4207463,9.6790122,-0.23795132)"
       x1="22.104254"
       y1="40.124432"
       x2="22.104254"
       y2="10.035408" />
    <linearGradient
       inkscape:collect="always"
       xlink:href="#linearGradient5031"
       id="linearGradient3380"
       gradientUnits="userSpaceOnUse"
       gradientTransform="matrix(0.4876325,0,0,1.4406684,7.777273,1.4082398)"
       x1="22.104254"
       y1="40.124432"
       x2="22.104254"
       y2="10.035408" />
    <linearGradient
       inkscape:collect="always"
       xlink:href="#linearGradient5031"
       id="linearGradient3382"
       gradientUnits="userSpaceOnUse"
       gradientTransform="matrix(0.369496,0,0,1.4205132,9.0116197,3.7802626)"
       x1="22.104254"
       y1="40.124432"
       x2="22.104254"
       y2="10.035408" />
    <linearGradient
       inkscape:collect="always"
       xlink:href="#linearGradient5031"
       id="linearGradient3384"
       gradientUnits="userSpaceOnUse"
       gradientTransform="matrix(0.3814643,0,0,1.4009103,8.4789307,6.2584122)"
       x1="22.104254"
       y1="40.124432"
       x2="22.104254"
       y2="10.035408" />
    <linearGradient
       inkscape:collect="always"
       xlink:href="#linearGradient5031"
       id="linearGradient3386"
       gradientUnits="userSpaceOnUse"
       gradientTransform="matrix(0.4063605,0,0,1.4407893,8.3143938,-4.5939912)"
       x1="22.104254"
       y1="40.124432"
       x2="22.104254"
       y2="10.035408" />
    <linearGradient
       inkscape:collect="always"
       xlink:href="#linearGradient5031"
       id="linearGradient3388"
       gradientUnits="userSpaceOnUse"
       gradientTransform="matrix(1.7828362,0,0,1.4407913,-37.938893,-27.441342)"
       x1="22.104254"
       y1="40.124432"
       x2="22.104254"
       y2="10.035408" />
    <radialGradient
       inkscape:collect="always"
       xlink:href="#XMLID_8_"
       id="radialGradient3390"
       gradientUnits="userSpaceOnUse"
       gradientTransform="matrix(0.36170675,0,0,-0.3907784,0.8509869,47.517004)"
       cx="102"
       cy="112.3047"
       r="139.55859" />
    <linearGradient
       inkscape:collect="always"
       xlink:href="#linearGradient8589-8"
       id="linearGradient3392"
       gradientUnits="userSpaceOnUse"
       gradientTransform="matrix(0.99771106,0,0,1.0406866,0.1637173,-1.1057947)"
       x1="32.892288"
       y1="8.0590115"
       x2="36.358372"
       y2="5.4565363" />
    <linearGradient
       inkscape:collect="always"
       xlink:href="#linearGradient8589-8"
       id="linearGradient3395"
       gradientUnits="userSpaceOnUse"
       gradientTransform="matrix(0,0.68986606,-0.72031669,0,30.325717,16.66347)"
       x1="32.892288"
       y1="8.0590115"
       x2="36.358372"
       y2="5.4565363" />
    <radialGradient
       inkscape:collect="always"
       xlink:href="#XMLID_8_"
       id="radialGradient3399"
       gradientUnits="userSpaceOnUse"
       gradientTransform="matrix(0.36170675,0,0,-0.3907784,-60.637874,48.88791)"
       cx="102"
       cy="112.3047"
       r="139.55859" />
    <linearGradient
       inkscape:collect="always"
       xlink:href="#linearGradient5031"
       id="linearGradient3403"
       gradientUnits="userSpaceOnUse"
       gradientTransform="matrix(1.7828362,0,0,1.4407913,-99.427754,-26.070436)"
       x1="22.104254"
       y1="40.124432"
       x2="22.104254"
       y2="10.035408" />
    <linearGradient
       inkscape:collect="always"
       xlink:href="#linearGradient5031"
       id="linearGradient3406"
       gradientUnits="userSpaceOnUse"
       gradientTransform="matrix(0.4063605,0,0,1.4407893,-53.174467,-3.2230849)"
       x1="22.104254"
       y1="40.124432"
       x2="22.104254"
       y2="10.035408" />
    <linearGradient
       inkscape:collect="always"
       xlink:href="#linearGradient5031"
       id="linearGradient3410"
       gradientUnits="userSpaceOnUse"
       gradientTransform="matrix(0.3814643,0,0,1.4009103,-53.00993,7.6293185)"
       x1="22.104254"
       y1="40.124432"
       x2="22.104254"
       y2="10.035408" />
    <linearGradient
       inkscape:collect="always"
       xlink:href="#linearGradient5031"
       id="linearGradient3414"
       gradientUnits="userSpaceOnUse"
       gradientTransform="matrix(0.369496,0,0,1.4205132,-52.477241,5.1511689)"
       x1="22.104254"
       y1="40.124432"
       x2="22.104254"
       y2="10.035408" />
    <linearGradient
       inkscape:collect="always"
       xlink:href="#linearGradient5031"
       id="linearGradient3418"
       gradientUnits="userSpaceOnUse"
       gradientTransform="matrix(0.4876325,0,0,1.4406684,-53.711588,2.7791461)"
       x1="22.104254"
       y1="40.124432"
       x2="22.104254"
       y2="10.035408" />
    <linearGradient
       inkscape:collect="always"
       xlink:href="#linearGradient5031"
       id="linearGradient3422"
       gradientUnits="userSpaceOnUse"
       gradientTransform="matrix(0.3342091,0,0,1.4207463,-51.809849,1.132955)"
       x1="22.104254"
       y1="40.124432"
       x2="22.104254"
       y2="10.035408" />
    <linearGradient
       inkscape:collect="always"
       xlink:href="#linearGradient3211"
       id="linearGradient3466"
       gradientUnits="userSpaceOnUse"
       gradientTransform="matrix(1,0,0,0.9777778,-61.488861,0.3820184)"
       x1="24"
       y1="1.9999999"
       x2="24"
       y2="46.01725" />
    <linearGradient
       inkscape:collect="always"
       xlink:href="#linearGradient3600"
       id="linearGradient3469"
       gradientUnits="userSpaceOnUse"
       gradientTransform="translate(-61.488861,0.37090658)"
       x1="25.132275"
       y1="6.7287393"
       x2="25.132275"
       y2="47.013336" />
    <linearGradient
       inkscape:collect="always"
       xlink:href="#linearGradient3104"
       id="linearGradient3471"
       gradientUnits="userSpaceOnUse"
       gradientTransform="matrix(0.8074968,0,0,0.9358511,-2.078625,-0.7435728)"
       x1="-51.786404"
       y1="50.786446"
       x2="-51.786404"
       y2="2.9062471" />
  </defs>
  <sodipodi:namedview
     id="base"
     pagecolor="#ffffff"
     bordercolor="#666666"
     borderopacity="1.0"
     inkscape:pageopacity="0.0"
     inkscape:pageshadow="2"
     inkscape:zoom="9.2807765"
     inkscape:cx="-1.0440934"
     inkscape:cy="13.49902"
     inkscape:current-layer="layer1"
     showgrid="false"
     inkscape:grid-bbox="true"
     inkscape:document-units="px"
     inkscape:window-width="1280"
     inkscape:window-height="751"
     inkscape:window-x="0"
     inkscape:window-y="25"
     inkscape:window-maximized="1">
    <inkscape:grid
       type="xygrid"
       id="grid3827"
       empspacing="5"
       visible="true"
       enabled="true"
       snapvisiblegridlinesonly="true" />
  </sodipodi:namedview>
  <metadata
     id="metadata4037">
    <rdf:RDF>
      <cc:Work
         rdf:about="">
        <dc:format>image/svg+xml</dc:format>
        <dc:type
           rdf:resource="http://purl.org/dc/dcmitype/StillImage" />
        <dc:title />
      </cc:Work>
    </rdf:RDF>
  </metadata>
  <g
     id="layer1"
     inkscape:label="Layer 1"
     inkscape:groupmode="layer"
     transform="translate(0,-16)">
    <g
       style="opacity:0.6"
       id="g3712"
       transform="matrix(0.78947368,0,0,0.4285714,-2.9473684,26.657144)">
      <rect
         style="fill:url(#radialGradient3013);fill-opacity:1;stroke:none"
         id="rect2801"
         y="40"
         x="38"
         height="7"
         width="5" />
      <rect
         style="fill:url(#radialGradient3015);fill-opacity:1;stroke:none"
         id="rect3696"
         transform="scale(-1,-1)"
         y="-47"
         x="-10"
         height="7"
         width="5" />
      <rect
         style="fill:url(#linearGradient4030);fill-opacity:1;stroke:none"
         id="rect3700"
         y="40"
         x="10"
         height="7.0000005"
         width="28" />
    </g>
    <rect
       style="color:#000000;fill:url(#radialGradient2874);fill-opacity:1;fill-rule:nonzero;stroke:url(#linearGradient2876);stroke-width:1;stroke-linecap:round;stroke-linejoin:round;stroke-miterlimit:4;stroke-opacity:1;stroke-dasharray:none;stroke-dashoffset:0;marker:none;visibility:visible;display:inline;overflow:visible;enable-background:accumulate"
       id="rect5505-21"
       y="18.5"
       x="2.5"
       ry="1.3846147"
       rx="1.3846152"
       height="27"
       width="27.000002" />
    <path
       inkscape:connector-curvature="0"
       style="opacity:0.1;fill:url(#linearGradient3568);fill-opacity:1;fill-rule:evenodd;stroke:none"
       id="path3333"
       d="M 3.8326276,19 C 3.3679182,19 3,19.627323 3,20.237501 L 3.0086496,35.5 C 3.7566064,35.483385 28.432286,29.417751 29,29.125989 l 0,-8.888488 C 29,19.771099 28.63656,19 28.234173,19 L 3.8326283,19 z"
       sodipodi:nodetypes="ccccccc" />
    <rect
       style="opacity:0.5;fill:none;stroke:url(#linearGradient2959);stroke-width:1;stroke-linecap:round;stroke-linejoin:round;stroke-miterlimit:4;stroke-opacity:1;stroke-dasharray:none;stroke-dashoffset:0"
       id="rect6741"
       y="19.5"
       x="3.5"
       ry="0.36531299"
       rx="0.36531299"
       height="25"
       width="25" />
    <path
       transform="matrix(0.66666673,0,0,0.66666672,0.6666645,14.666666)"
       sodipodi:type="arc"
       style="opacity:0.2;fill:#ffffff;fill-opacity:1;fill-rule:nonzero;stroke:#000000;stroke-width:2.99999952;stroke-miterlimit:4;stroke-opacity:1;stroke-dasharray:none"
       id="path3920"
       sodipodi:cx="36.5"
       sodipodi:cy="12.5"
       sodipodi:rx="1.5"
       sodipodi:ry="1.5"
       d="M 38,12.5 C 38,13.328427 37.328427,14 36.5,14 35.671573,14 35,13.328427 35,12.5 35,11.671573 35.671573,11 36.5,11 c 0.828427,0 1.5,0.671573 1.5,1.5 z" />
    <path
       d="M 38,12.5 C 38,13.328427 37.328427,14 36.5,14 35.671573,14 35,13.328427 35,12.5 35,11.671573 35.671573,11 36.5,11 c 0.828427,0 1.5,0.671573 1.5,1.5 z"
       sodipodi:ry="1.5"
       sodipodi:rx="1.5"
       sodipodi:cy="12.5"
       sodipodi:cx="36.5"
       id="path3897"
       style="fill:#ffffff;fill-opacity:1;fill-rule:nonzero;stroke:none"
       sodipodi:type="arc"
       transform="matrix(0.66666667,0,0,0.66666667,0.66666659,14.666667)" />
    <path
       d="M 38,12.5 C 38,13.328427 37.328427,14 36.5,14 35.671573,14 35,13.328427 35,12.5 35,11.671573 35.671573,11 36.5,11 c 0.828427,0 1.5,0.671573 1.5,1.5 z"
       sodipodi:ry="1.5"
       sodipodi:rx="1.5"
       sodipodi:cy="12.5"
       sodipodi:cx="36.5"
       id="path3922"
       style="opacity:0.2;fill:#ffffff;fill-opacity:1;fill-rule:nonzero;stroke:#000000;stroke-width:2.99999952;stroke-miterlimit:4;stroke-opacity:1;stroke-dasharray:none"
       sodipodi:type="arc"
       transform="matrix(0.66666673,0,0,0.66666672,-17.333336,14.666666)" />
    <path
       sodipodi:type="arc"
       style="fill:#ffffff;fill-opacity:1;fill-rule:nonzero;stroke:none"
       id="path3899"
       sodipodi:cx="36.5"
       sodipodi:cy="12.5"
       sodipodi:rx="1.5"
       sodipodi:ry="1.5"
       d="M 38,12.5 C 38,13.328427 37.328427,14 36.5,14 35.671573,14 35,13.328427 35,12.5 35,11.671573 35.671573,11 36.5,11 c 0.828427,0 1.5,0.671573 1.5,1.5 z"
       transform="matrix(0.66666667,0,0,0.66666667,-17.333334,14.666667)" />
    <g
       transform="scale(0.99806644,1.0019373)"
       style="font-size:8.28133869px;font-style:normal;font-variant:normal;font-weight:normal;font-stretch:normal;line-height:125%;letter-spacing:0px;word-spacing:0px;opacity:0.3;fill:#000000;fill-opacity:1;stroke:none;font-family:Droid Sans;-inkscape-font-specification:Sans"
       id="text3990">
      <path
         d="m 15.68124,28.477287 c -7e-6,0.360789 -0.05684,0.689445 -0.170506,0.98597 -0.113677,0.296539 -0.274299,0.553534 -0.481865,0.770984 -0.202637,0.217463 -0.447276,0.397854 -0.733918,0.541172 -0.286653,0.138387 -0.605425,0.237231 -0.956317,0.296532 l 0,0.04448 c 0.874765,0.108734 1.539491,0.387968 1.994181,0.837704 0.454675,0.444803 0.682017,1.025511 0.682024,1.742128 -7e-6,0.474454 -0.08155,0.909368 -0.244639,1.304742 -0.158158,0.395378 -0.400326,0.73639 -0.726504,1.023037 -0.326192,0.286648 -0.738866,0.509047 -1.238023,0.667198 -0.499168,0.15815 -1.089761,0.237225 -1.771781,0.237226 -0.538704,-1e-6 -1.04775,-0.04201 -1.527142,-0.126027 -0.474453,-0.08402 -0.9217224,-0.237225 -1.3418089,-0.459625 l 0,-1.260263 c 0.4299709,0.227343 0.8945379,0.402792 1.3937019,0.526345 0.504103,0.123557 0.985968,0.185334 1.445596,0.185333 0.454679,10e-7 0.847584,-0.04942 1.178716,-0.148266 0.331123,-0.09884 0.602944,-0.239696 0.815464,-0.422559 0.217451,-0.18286 0.375602,-0.40773 0.474452,-0.674611 0.10378,-0.266876 0.155673,-0.56588 0.155679,-0.89701 -6e-6,-0.336067 -0.06673,-0.622715 -0.200159,-0.859944 -0.128503,-0.242164 -0.313836,-0.439852 -0.555998,-0.593065 -0.242173,-0.158146 -0.538706,-0.274288 -0.889597,-0.348426 -0.345959,-0.07413 -0.738864,-0.111194 -1.178717,-0.111199 l -0.98597,0 0,-1.11941 0.98597,0 c 0.400315,6e-6 0.756154,-0.04942 1.067517,-0.148266 0.311354,-0.09884 0.57082,-0.239691 0.778397,-0.422559 0.21251,-0.182854 0.373132,-0.400311 0.481866,-0.652371 0.108722,-0.252045 0.163087,-0.528808 0.163092,-0.830291 -5e-6,-0.256986 -0.04448,-0.486798 -0.133439,-0.689437 -0.08896,-0.202622 -0.214992,-0.373128 -0.378079,-0.511519 -0.163098,-0.143314 -0.358315,-0.252043 -0.585651,-0.326185 -0.227346,-0.07412 -0.479399,-0.11119 -0.756158,-0.1112 -0.528819,10e-6 -0.995858,0.08403 -1.401116,0.252052 -0.40032,0.163103 -0.783341,0.378088 -1.1490625,0.644958 L 9.209421,26.898252 c 0.187803,-0.153199 0.3953755,-0.296522 0.622718,-0.429972 0.232282,-0.133429 0.484334,-0.249571 0.756158,-0.348426 0.271819,-0.103775 0.560937,-0.185322 0.867357,-0.244639 0.311356,-0.0593 0.640012,-0.08895 0.98597,-0.08896 0.533754,1.1e-5 1.000792,0.06673 1.401115,0.20016 0.405256,0.13345 0.743796,0.321254 1.015624,0.563411 0.271815,0.237236 0.476916,0.521413 0.615305,0.852531 0.138374,0.326194 0.207565,0.684504 0.207572,1.07493"
         style="font-size:15.18245792px;fill:#000000"
         id="path3953" />
      <path
         d="m 22.190126,36.780193 -1.304743,0 0,-6.768351 c -3e-6,-0.212508 -3e-6,-0.439849 0,-0.682025 0.0049,-0.24216 0.0099,-0.481857 0.01483,-0.719091 0.0099,-0.242159 0.01729,-0.471972 0.02224,-0.689438 0.0099,-0.22239 0.01729,-0.417607 0.02224,-0.585651 -0.08402,0.08897 -0.158155,0.165573 -0.222399,0.229813 -0.06425,0.06426 -0.130972,0.126035 -0.20016,0.185332 -0.06425,0.05932 -0.133443,0.123564 -0.207572,0.192746 -0.07414,0.06426 -0.163096,0.140862 -0.266879,0.229813 l -1.09717,0.89701 -0.711678,-0.911837 2.839298,-2.216579 1.111996,0 0,10.838258"
         style="font-size:15.18245792px;fill:#000000"
         id="path3955" />
    </g>
    <g
       transform="scale(0.9980664,1.0019373)"
       style="font-size:8.28133869000000011px;font-style:normal;font-variant:normal;font-weight:normal;font-stretch:normal;line-height:125%;letter-spacing:0px;word-spacing:0px;fill:#ffffff;fill-opacity:1;stroke:none;font-family:Droid Sans;-inkscape-font-specification:Sans"
       id="text3955">
      <path
         d="m 15.681241,29.58314 c -7e-6,0.360789 -0.05684,0.689446 -0.170506,0.98597 -0.113678,0.29654 -0.2743,0.553534 -0.481866,0.770985 -0.202636,0.217463 -0.447275,0.397853 -0.733917,0.541171 -0.286654,0.138388 -0.605426,0.237232 -0.956317,0.296533 l 0,0.04448 c 0.874765,0.108734 1.539491,0.387968 1.99418,0.837704 0.454676,0.444803 0.682017,1.025511 0.682025,1.742127 -8e-6,0.474455 -0.08155,0.909369 -0.24464,1.304743 -0.158157,0.395378 -0.400325,0.73639 -0.726504,1.023037 -0.326192,0.286648 -0.738866,0.509047 -1.238023,0.667198 -0.499167,0.15815 -1.08976,0.237225 -1.771781,0.237226 -0.538703,-1e-6 -1.04775,-0.04201 -1.527142,-0.126027 -0.474453,-0.08402 -0.9217223,-0.237225 -1.3418088,-0.459625 l 0,-1.260263 c 0.4299709,0.227343 0.8945378,0.402792 1.3937018,0.526345 0.504103,0.123557 0.985968,0.185334 1.445596,0.185333 0.454679,10e-7 0.847584,-0.04942 1.178716,-0.148266 0.331123,-0.09884 0.602944,-0.239696 0.815464,-0.422559 0.217452,-0.18286 0.375602,-0.40773 0.474452,-0.674611 0.10378,-0.266877 0.155674,-0.56588 0.15568,-0.89701 -6e-6,-0.336067 -0.06673,-0.622715 -0.20016,-0.859944 -0.128503,-0.242164 -0.313835,-0.439852 -0.555998,-0.593065 -0.242173,-0.158146 -0.538705,-0.274288 -0.889597,-0.348426 -0.345959,-0.07413 -0.738864,-0.111194 -1.178716,-0.111199 l -0.985971,0 0,-1.11941 0.985971,0 c 0.400315,6e-6 0.756153,-0.04942 1.067516,-0.148266 0.311355,-0.09884 0.57082,-0.239691 0.778398,-0.422559 0.212509,-0.182855 0.373131,-0.400312 0.481865,-0.652371 0.108723,-0.252045 0.163087,-0.528809 0.163093,-0.830291 -6e-6,-0.256986 -0.04449,-0.486799 -0.13344,-0.689438 -0.08896,-0.202621 -0.214991,-0.373127 -0.378079,-0.511518 -0.163098,-0.143315 -0.358315,-0.252043 -0.585651,-0.326186 -0.227346,-0.07412 -0.479398,-0.11119 -0.756158,-0.1112 -0.528819,10e-6 -0.995857,0.08403 -1.401115,0.252053 -0.400321,0.163102 -0.783342,0.378088 -1.1490634,0.644958 L 9.209421,28.004105 c 0.187803,-0.153198 0.3953755,-0.296522 0.6227181,-0.429972 0.2322819,-0.133429 0.4843349,-0.249571 0.7561579,-0.348425 0.271819,-0.103776 0.560938,-0.185322 0.867357,-0.24464 0.311356,-0.05929 0.640012,-0.08895 0.98597,-0.08896 0.533754,1.1e-5 1.000792,0.06673 1.401116,0.200159 0.405255,0.13345 0.743796,0.321254 1.015623,0.563412 0.271815,0.237235 0.476916,0.521412 0.615305,0.85253 0.138375,0.326195 0.207566,0.684505 0.207573,1.07493"
         style="font-size:15.18245888000000043px;fill:#ffffff;fill-opacity:1"
         id="path3180" />
      <path
         d="m 22.190127,37.886047 -1.304742,0 0,-6.768352 c -4e-6,-0.212508 -4e-6,-0.439849 0,-0.682024 0.0049,-0.242161 0.0099,-0.481857 0.01483,-0.719091 0.0099,-0.24216 0.01729,-0.471972 0.02224,-0.689438 0.0099,-0.22239 0.01729,-0.417607 0.02224,-0.585652 -0.08402,0.08897 -0.158154,0.165574 -0.222399,0.229813 -0.06425,0.06426 -0.130972,0.126035 -0.20016,0.185333 -0.06425,0.05931 -0.133443,0.123564 -0.207572,0.192746 -0.07414,0.06426 -0.163096,0.140861 -0.266879,0.229812 l -1.09717,0.897011 -0.711678,-0.911837 2.839298,-2.21658 1.111996,0 0,10.838259"
         style="font-size:15.18245888000000043px;fill:#ffffff;fill-opacity:1"
         id="path3182" />
    </g>
    <path
       style="opacity:0.4;fill:#000000;fill-opacity:1;fill-rule:evenodd;stroke:none;display:inline;filter:url(#filter3248)"
       id="path12038"
       transform="matrix(0,0.69145745,-0.69215533,0,29.898461,16.782315)"
       d="m 28.617256,0.9212581 c 4.282522,0 2.15325,8.4831709 2.15325,8.4831709 0,0 10.357642,-1.8023467 10.357642,2.818745 0,-2.609724 -11.302304,-10.7285959 -12.510892,-11.3019159 z"
       inkscape:connector-curvature="0" />
    <path
       style="opacity:0.1;fill:#000000;fill-opacity:1;stroke:none"
       d="m 22.8,45 6.229397,-7.605934 0,6.914485 L 28.337244,45 z"
       id="path3477"
       inkscape:connector-curvature="0" />
    <path
       style="fill:url(#linearGradient3395);fill-opacity:1;fill-rule:evenodd;stroke:none;display:inline"
       id="path4474"
       d="m 28.922685,36.337825 c 0,2.20332 -5.303212,1.615072 -5.303212,1.615072 0,0 0.679042,7.035671 -2.519473,7.035671 0.779327,0 1.337418,0.05937 1.580603,-0.09249 1.747125,-1.091339 5.667642,-5.805143 6.181496,-7.507363 0.03848,-0.127385 0.0605,-0.409829 0.0605,-1.050884 z"
       inkscape:connector-curvature="0" />
  </g>
</svg>
