<?xml version="1.0" encoding="UTF-8" standalone="no"?>
<!-- Created with Inkscape (http://www.inkscape.org/) -->

<svg
   xmlns:dc="http://purl.org/dc/elements/1.1/"
   xmlns:cc="http://creativecommons.org/ns#"
   xmlns:rdf="http://www.w3.org/1999/02/22-rdf-syntax-ns#"
   xmlns:svg="http://www.w3.org/2000/svg"
   xmlns="http://www.w3.org/2000/svg"
   xmlns:xlink="http://www.w3.org/1999/xlink"
   xmlns:sodipodi="http://sodipodi.sourceforge.net/DTD/sodipodi-0.dtd"
   xmlns:inkscape="http://www.inkscape.org/namespaces/inkscape"
   width="32"
   height="32"
   id="svg5060"
   sodipodi:version="0.32"
   inkscape:version="0.48+devel r"
   sodipodi:docname="inkscape.svg"
   inkscape:export-filename="/home/andreas/projekt/tango/inkscape.png"
   inkscape:export-xdpi="90.000000"
   inkscape:export-ydpi="90.000000"
   inkscape:output_extension="org.inkscape.output.svg.inkscape"
   version="1.0">
  <defs
     id="defs5062">
    <linearGradient
       inkscape:collect="always"
       id="linearGradient8942">
      <stop
         style="stop-color:#ffffff;stop-opacity:1.0000000"
         offset="0"
         id="stop8944" />
      <stop
         style="stop-color:#ffffff;stop-opacity:0;"
         offset="1"
         id="stop8946" />
    </linearGradient>
    <linearGradient
       id="linearGradient6951">
      <stop
         style="stop-color:#6e3d09;stop-opacity:1;"
         offset="0"
         id="stop6953" />
      <stop
         id="stop6959"
         offset="0.24242425"
         style="stop-color:#ea8113;stop-opacity:1;" />
      <stop
         style="stop-color:#5c3307;stop-opacity:1;"
         offset="0.62121212"
         id="stop6961" />
      <stop
         style="stop-color:#e07c12;stop-opacity:1;"
         offset="1"
         id="stop6955" />
    </linearGradient>
    <linearGradient
       id="linearGradient6939">
      <stop
         style="stop-color:#bdbdbd;stop-opacity:1;"
         offset="0"
         id="stop6941" />
      <stop
         id="stop6947"
         offset="0.33333334"
         style="stop-color:#e2e2e2;stop-opacity:1;" />
      <stop
         style="stop-color:#a3a3a3;stop-opacity:1;"
         offset="0.66666669"
         id="stop6949" />
      <stop
         style="stop-color:#dddddd;stop-opacity:1;"
         offset="1"
         id="stop6943" />
    </linearGradient>
    <linearGradient
       inkscape:collect="always"
       id="linearGradient6975">
      <stop
         style="stop-color:#000000;stop-opacity:1;"
         offset="0"
         id="stop6977" />
      <stop
         style="stop-color:#000000;stop-opacity:0;"
         offset="1"
         id="stop6979" />
    </linearGradient>
    <linearGradient
       id="linearGradient6963">
      <stop
         style="stop-color:#696969;stop-opacity:1;"
         offset="0"
         id="stop6965" />
      <stop
         style="stop-color:#000000;stop-opacity:1;"
         offset="1"
         id="stop6967" />
    </linearGradient>
    <linearGradient
       inkscape:collect="always"
       id="linearGradient2446">
      <stop
         style="stop-color:#ffffff;stop-opacity:1;"
         offset="0"
         id="stop2448" />
      <stop
         style="stop-color:#ffffff;stop-opacity:0;"
         offset="1"
         id="stop2450" />
    </linearGradient>
    <linearGradient
       inkscape:collect="always"
       id="linearGradient6543">
      <stop
         style="stop-color:#d3d7cf"
         offset="0"
         id="stop6545" />
      <stop
         style="stop-color:#ffffff;stop-opacity:1.0000000"
         offset="1"
         id="stop6547" />
    </linearGradient>
    <linearGradient
       inkscape:collect="always"
       id="linearGradient6528">
      <stop
         style="stop-color:#2e3436"
         offset="0"
         id="stop6530" />
      <stop
         style="stop-color:#000000;stop-opacity:1.0000000"
         offset="1"
         id="stop6532" />
    </linearGradient>
    <radialGradient
       inkscape:collect="always"
       xlink:href="#linearGradient6975"
       id="radialGradient2452"
       gradientUnits="userSpaceOnUse"
       gradientTransform="matrix(1,0,0,0.282209,0,30.39355)"
       cx="26.78167"
       cy="42.343147"
       fx="26.78167"
       fy="42.343147"
       r="14.407301" />
    <radialGradient
       inkscape:collect="always"
       xlink:href="#linearGradient6975"
       id="radialGradient2454"
       gradientUnits="userSpaceOnUse"
       gradientTransform="matrix(1,0,0,0.282209,0,30.39355)"
       cx="26.78167"
       cy="42.343147"
       fx="26.78167"
       fy="42.343147"
       r="14.407301" />
    <radialGradient
       inkscape:collect="always"
       xlink:href="#linearGradient6975"
       id="radialGradient2462"
       gradientUnits="userSpaceOnUse"
       gradientTransform="matrix(1,0,0,0.282209,0,30.39355)"
       cx="26.78167"
       cy="42.343147"
       fx="26.78167"
       fy="42.343147"
       r="14.407301" />
    <linearGradient
       inkscape:collect="always"
       xlink:href="#linearGradient6951"
       id="linearGradient2464"
       gradientUnits="userSpaceOnUse"
       gradientTransform="matrix(0.71362,-0.119336,0.05179406,0.809329,14.74036,9.12562)"
       x1="28.058632"
       y1="18.867767"
       x2="33.436985"
       y2="23.742767" />
    <linearGradient
       inkscape:collect="always"
       xlink:href="#linearGradient6939"
       id="linearGradient2466"
       gradientUnits="userSpaceOnUse"
       gradientTransform="matrix(0.71362,-0.119336,0.05179406,0.809329,14.74036,9.12562)"
       x1="19.394735"
       y1="30.001331"
       x2="23.109331"
       y2="33.438831" />
    <radialGradient
       inkscape:collect="always"
       xlink:href="#linearGradient6963"
       id="radialGradient2468"
       gradientUnits="userSpaceOnUse"
       gradientTransform="matrix(0.709807,-0.118699,0.05020504,0.7845,14.35988,10.7997)"
       cx="15.415101"
       cy="35.356506"
       fx="15.415101"
       fy="35.356506"
       r="7.5791559" />
    <linearGradient
       inkscape:collect="always"
       xlink:href="#linearGradient2446"
       id="linearGradient2470"
       gradientUnits="userSpaceOnUse"
       gradientTransform="matrix(0.608217,-0.10171,0.04414374,0.689789,16.62085,13.35659)"
       x1="13.236155"
       y1="37.752247"
       x2="7.7521091"
       y2="42.282146" />
    <linearGradient
       inkscape:collect="always"
       xlink:href="#linearGradient8942"
       id="linearGradient2483"
       gradientUnits="userSpaceOnUse"
       gradientTransform="matrix(0.5280291,0,0,0.523556,-0.3112583,-0.6153384)"
       x1="23.849895"
       y1="10.528904"
       x2="24.565037"
       y2="35.243187" />
    <linearGradient
       inkscape:collect="always"
       xlink:href="#linearGradient6543"
       id="linearGradient2486"
       gradientUnits="userSpaceOnUse"
       gradientTransform="matrix(0.65046747,0,0,0.59829972,-3.3126292,-3.1828065)"
       x1="23.142857"
       y1="16.714287"
       x2="23.142857"
       y2="12.642857" />
    <linearGradient
       inkscape:collect="always"
       xlink:href="#linearGradient6528"
       id="linearGradient2490"
       gradientUnits="userSpaceOnUse"
       gradientTransform="matrix(0.5659241,0,0,0.5611214,-1.1982088,-1.5830059)"
       x1="24.5"
       y1="23.614397"
       x2="24.722954"
       y2="36.878933" />
  </defs>
  <sodipodi:namedview
     id="base"
     pagecolor="#ffffff"
     bordercolor="#666666"
     borderopacity="1.0"
     inkscape:pageopacity="0.0"
     inkscape:pageshadow="2"
     inkscape:zoom="9.192388"
     inkscape:cx="13.577824"
     inkscape:cy="8.3759242"
     inkscape:current-layer="g3314"
     showgrid="false"
     inkscape:grid-bbox="true"
     inkscape:document-units="px"
     fill="#eeeeec"
     inkscape:window-width="1535"
     inkscape:window-height="876"
     inkscape:window-x="65"
     inkscape:window-y="24"
     showguides="true"
     inkscape:guide-bbox="true"
     inkscape:snap-global="false"
     inkscape:window-maximized="1">
    <inkscape:grid
       type="xygrid"
       id="grid3264"
       visible="true"
       enabled="true" />
  </sodipodi:namedview>
  <metadata
     id="metadata5065">
    <rdf:RDF>
      <cc:Work
         rdf:about="">
        <dc:format>image/svg+xml</dc:format>
        <dc:type
           rdf:resource="http://purl.org/dc/dcmitype/StillImage" />
        <dc:title>Inkscape Application Icon</dc:title>
        <dc:date>January 2006</dc:date>
        <dc:creator>
          <cc:Agent>
            <dc:title>Andreas Nilsson</dc:title>
          </cc:Agent>
        </dc:creator>
        <dc:source>http://tango-project.org</dc:source>
        <dc:subject>
          <rdf:Bag>
            <rdf:li>inkscape</rdf:li>
            <rdf:li>graphics</rdf:li>
            <rdf:li>gfx</rdf:li>
            <rdf:li>svg</rdf:li>
          </rdf:Bag>
        </dc:subject>
        <cc:license
           rdf:resource="http://creativecommons.org/licenses/GPL/2.0/" />
      </cc:Work>
      <cc:License
         rdf:about="http://creativecommons.org/licenses/GPL/2.0/">
        <cc:permits
           rdf:resource="http://web.resource.org/cc/Reproduction" />
        <cc:permits
           rdf:resource="http://web.resource.org/cc/Distribution" />
        <cc:requires
           rdf:resource="http://web.resource.org/cc/Notice" />
        <cc:permits
           rdf:resource="http://web.resource.org/cc/DerivativeWorks" />
        <cc:requires
           rdf:resource="http://web.resource.org/cc/ShareAlike" />
        <cc:requires
           rdf:resource="http://web.resource.org/cc/SourceCode" />
      </cc:License>
    </rdf:RDF>
  </metadata>
  <g
     id="layer1"
     inkscape:label="Layer 1"
     inkscape:groupmode="layer"
     transform="translate(0,8)">
    <g
       id="g3314"
       transform="matrix(1.3348365,0,0,1.3493406,9.2611702e-8,-8.2095038)">
      <g
         id="g3332"
         transform="translate(2.0720731e-7,-0.7512847)">
        <ellipse
           style="opacity:0.67204303;fill:url(#radialGradient2452);fill-opacity:1;fill-rule:nonzero;stroke:none;stroke-width:1;marker:none;visibility:visible;display:inline;overflow:visible"
           id="path2415"
           inkscape:r_cx="true"
           inkscape:r_cy="true"
           transform="matrix(0.6541156,0,0,0.7300891,-6.606264,-13.667228)"
           cx="26.78167"
           cy="42.343147"
           rx="14.407301"
           ry="4.0658641"
           d="M 41.188971,42.343147 A 14.407301,4.0658641 0 0 1 26.78167,46.409011 14.407301,4.0658641 0 0 1 12.374369,42.343147 14.407301,4.0658641 0 0 1 26.78167,38.277283 14.407301,4.0658641 0 0 1 41.188971,42.343147 Z" />
        <ellipse
           style="opacity:0.67204303;fill:url(#radialGradient2454);fill-opacity:1;fill-rule:nonzero;stroke:none;stroke-width:1;marker:none;visibility:visible;display:inline;overflow:visible"
           id="path1685"
           inkscape:r_cx="true"
           inkscape:r_cy="true"
           transform="matrix(0.8262511,0,0,0.7300891,-10.224336,-16.140939)"
           cx="26.78167"
           cy="42.343147"
           rx="14.407301"
           ry="4.0658641"
           d="M 41.188971,42.343147 A 14.407301,4.0658641 0 0 1 26.78167,46.409011 14.407301,4.0658641 0 0 1 12.374369,42.343147 14.407301,4.0658641 0 0 1 26.78167,38.277283 14.407301,4.0658641 0 0 1 41.188971,42.343147 Z" />
        <path
           style="fill:url(#linearGradient2490);fill-opacity:1;fill-rule:evenodd;stroke:#000000;stroke-width:0.7451185px;stroke-linecap:butt;stroke-linejoin:miter;stroke-opacity:1"
           d="M 5.9465832,15.122764 C 5.1690088,15.068518 1.4865621,14.10581 1.5000366,13.416973 1.503459,12.048005 9.7706936,3.2757454 10.279105,2.9995641 c 0.689621,-0.6801809 2.722667,-0.65184 3.355121,0 0.704535,0.3529321 8.904273,10.1404369 8.865638,11.2051739 -0.04216,0.918026 -5.586758,2.742633 -6.129703,2.796832 0.139772,0.4891 1.804424,1.381679 2.05707,1.793294 0.06737,0.604701 -4.756457,1.690362 -4.769932,2.415304 l 1.162165,1.136558 c -0.032,0.960649 -3.055316,1.520499 -4.300012,0.877943 0.129691,-0.612016 0.138112,-0.823233 -0.05558,-1.154688 -0.353702,-0.652187 -2.6881391,-0.382533 -2.6780337,-0.91448 -0.1549555,-0.36063 1.7920937,-0.68118 1.8392539,-1.442612 0.030215,-0.662957 -5.9706846,-2.289504 -5.9118858,-2.754075 -0.055878,-0.413631 2.2035063,-0.77058 2.2333768,-1.83605 z"
           id="path5072"
           sodipodi:nodetypes="ccccccccccccccc"
           inkscape:connector-curvature="0" />
        <rect
           y="9.8329248"
           x="3.5870461"
           height="11.385876"
           width="10.222375"
           id="rect2363"
           style="fill:none;stroke:none"
           transform="matrix(0.9155719,-0.4021544,0.3124329,0.9499398,0,0)" />
        <path
           id="path5074"
           d="M 5.7512659,8.3341321 C 7.1852551,6.8386827 8.4315332,5.2485558 10.298293,3.4697466 c 0.781868,-0.8126205 2.613539,-0.7646973 3.217611,-0.057595 0.739431,0.7048796 1.465571,1.3834644 2.578641,2.8275899 l 0.0108,1.3684483 -2.290553,-0.9481258 0,2.9914965 L 11.936349,7.2583635 10.890247,8.8294373 9.984952,6.0617643 8.9573316,8.334132 Z"
           style="fill:url(#linearGradient2486);fill-opacity:1;fill-rule:evenodd;stroke:none"
           sodipodi:nodetypes="cccccccccccc"
           inkscape:connector-curvature="0" />
        <path
           style="opacity:0.4;fill:none;stroke:url(#linearGradient2483);stroke-width:0.74511814;stroke-linecap:butt;stroke-linejoin:miter;stroke-miterlimit:4;stroke-opacity:1;stroke-dasharray:none"
           d="M 6.6304151,14.392522 C 5.9755969,14.6194 3.0789481,13.688168 2.3526071,13.254442 3.1642795,11.616615 7.9453798,6.3145317 10.540177,3.739893 c 0.556791,-0.5281162 2.022204,-0.8464933 2.829588,0.030233 0.486706,0.1959025 8.005609,9.218708 8.288809,10.321356 -1.666032,1.069604 -4.944519,2.198337 -6.304504,2.341938 0.571019,1.136084 0.912212,2.155008 2.112641,2.390437 l -4.308892,1.297124 0.804373,1.21562 -2.526232,0.757529 -0.402188,-1.620828 -1.6663726,-0.215105 0.7096916,-1.255135 c 0.04947,-0.329709 -4.3935267,-1.895548 -4.8620991,-2.087804 0.7774063,-0.389044 1.7684305,-1.004074 1.4154232,-2.522736 z"
           id="path6536"
           sodipodi:nodetypes="ccccccccccccccc"
           inkscape:connector-curvature="0" />
        <ellipse
           style="opacity:0.3;fill:url(#radialGradient2462);fill-opacity:1;fill-rule:nonzero;stroke:none;stroke-width:1;marker:none;visibility:visible;display:inline;overflow:visible"
           id="path6973"
           inkscape:r_cx="true"
           inkscape:r_cy="true"
           transform="matrix(0.6638343,0,0,0.4947402,-3.4524881,-0.152584)"
           cx="26.78167"
           cy="42.343147"
           rx="14.407301"
           ry="4.0658641"
           d="M 41.188971,42.343147 A 14.407301,4.0658641 0 0 1 26.78167,46.409011 14.407301,4.0658641 0 0 1 12.374369,42.343147 14.407301,4.0658641 0 0 1 26.78167,38.277283 14.407301,4.0658641 0 0 1 41.188971,42.343147 Z" />
        <g
           id="g8923"
           transform="matrix(0.4960021,0,0,0.4947402,-0.004539,1.465328)">
          <path
             sodipodi:nodetypes="ccssc"
             inkscape:r_cy="true"
             inkscape:r_cx="true"
             id="path6937"
             d="m 32.815491,26.053448 3.098333,2.590809 C 40.677173,22.070645 47.362292,7.1165887 47.362292,7.1165887 47.605366,6.0743564 46.483038,5.6310026 45.984075,6.3896101 c 0,0 -9.039365,13.0428949 -13.168584,19.6638379 z"
             style="fill:url(#linearGradient2464);fill-opacity:1;fill-rule:nonzero;stroke:#673907;stroke-width:1.50416291;stroke-linecap:round;stroke-linejoin:miter;stroke-miterlimit:4;stroke-opacity:1;stroke-dasharray:none;stroke-dashoffset:0;marker:none;visibility:visible;display:inline;overflow:visible"
             inkscape:connector-curvature="0" />
          <path
             sodipodi:nodetypes="ccccccccc"
             inkscape:r_cy="true"
             inkscape:r_cx="true"
             id="path6935"
             d="m 27.920688,35.2377 1.703179,1.29703 5.679038,-6.975843 0.159732,-0.604072 0.780067,-0.145018 c -0.393138,-1.212368 -2.32616,-3.196629 -3.664197,-2.972874 l 0.114989,0.872442 -0.458436,0.387521 -4.314372,8.140814 z"
             style="fill:url(#linearGradient2466);fill-opacity:1;fill-rule:nonzero;stroke:#888a85;stroke-width:1.50416291;stroke-linecap:round;stroke-linejoin:miter;stroke-miterlimit:4;stroke-opacity:1;stroke-dasharray:none;stroke-dashoffset:0;marker:none;visibility:visible;display:inline;overflow:visible"
             inkscape:connector-curvature="0" />
          <path
             sodipodi:nodetypes="cssc"
             inkscape:r_cy="true"
             inkscape:r_cx="true"
             id="path6933"
             d="m 20.985414,42.86777 c 4.713683,-0.788252 8.331712,-0.74985 8.760057,-4.752472 0.345188,-3.225562 -3.551035,-4.091914 -5.255072,-0.978912 -1.641523,2.998804 -3.504985,5.731384 -3.504985,5.731384 z"
             style="fill:url(#radialGradient2468);fill-opacity:1;fill-rule:nonzero;stroke:none;stroke-width:0.2;marker:none;visibility:visible;display:inline;overflow:visible"
             inkscape:connector-curvature="0" />
          <circle
             transform="matrix(0.608217,-0.10171,0.04414374,0.689789,20.41956,11.75746)"
             inkscape:r_cy="true"
             inkscape:r_cx="true"
             id="path6971"
             style="opacity:0.52777782;fill:#ffffff;fill-opacity:1;fill-rule:nonzero;stroke:none;stroke-width:1;marker:none;visibility:visible;display:inline;overflow:visible"
             cx="7.624999"
             cy="37.75"
             r="1.2499999"
             d="M 8.8749989,37.75 A 1.2499999,1.2499999 0 0 1 7.624999,39 1.2499999,1.2499999 0 0 1 6.3749992,37.75 1.2499999,1.2499999 0 0 1 7.624999,36.5 1.2499999,1.2499999 0 0 1 8.8749989,37.75 Z" />
          <circle
             style="fill:#ffffff;fill-opacity:1;fill-rule:nonzero;stroke:none;stroke-width:1;marker:none;visibility:visible;display:inline;overflow:visible"
             id="path6983"
             inkscape:r_cx="true"
             inkscape:r_cy="true"
             transform="matrix(0.562239,-0.09402052,0.04080659,0.637644,27.55723,4.593379)"
             cx="7.624999"
             cy="37.75"
             r="1.2499999"
             d="M 8.8749989,37.75 A 1.2499999,1.2499999 0 0 1 7.624999,39 1.2499999,1.2499999 0 0 1 6.3749992,37.75 1.2499999,1.2499999 0 0 1 7.624999,36.5 1.2499999,1.2499999 0 0 1 8.8749989,37.75 Z" />
          <path
             inkscape:r_cy="true"
             inkscape:r_cx="true"
             id="path6985"
             d="m 32.506055,29.222896 -3.466373,5.604573"
             style="fill:none;stroke:#ffffff;stroke-width:1.50416291;stroke-linecap:round;stroke-linejoin:round;stroke-miterlimit:4;stroke-opacity:1;stroke-dasharray:none;stroke-dashoffset:0;marker:none;visibility:visible;display:inline;overflow:visible"
             inkscape:connector-curvature="0" />
          <path
             sodipodi:nodetypes="cssc"
             inkscape:r_cy="true"
             inkscape:r_cx="true"
             id="path1571"
             d="m 21.888602,42.180999 c 0,0 2.299247,-1.727487 3.188602,-3.876203 0.314651,-0.760209 1.166888,-0.298884 0.710034,0.482077 -0.986792,1.686854 -3.898636,3.394126 -3.898636,3.394126 z"
             style="opacity:0.42777776;fill:url(#linearGradient2470);fill-opacity:1;fill-rule:nonzero;stroke:none;stroke-width:1;marker:none;visibility:visible;display:inline;overflow:visible"
             inkscape:connector-curvature="0" />
        </g>
        <path
           style="fill:#dde0da;fill-opacity:1;fill-rule:evenodd;stroke:none"
           d="M 11.792056,15.823774 8.4224987,15.028275 8.4398227,15.597413 11.9191,16.493112 Z"
           id="path8968"
           sodipodi:nodetypes="ccccc"
           inkscape:connector-curvature="0" />
      </g>
    </g>
  </g>
</svg>
