<?xml version="1.0" encoding="UTF-8" standalone="no"?>
<svg
   version="1.1"
   width="32"
   height="32"
   id="svg6358"
   sodipodi:docname="postscript-viewer.svg"
   inkscape:version="1.2.2 (b0a8486541, 2022-12-01)"
   xmlns:inkscape="http://www.inkscape.org/namespaces/inkscape"
   xmlns:sodipodi="http://sodipodi.sourceforge.net/DTD/sodipodi-0.dtd"
   xmlns:xlink="http://www.w3.org/1999/xlink"
   xmlns="http://www.w3.org/2000/svg"
   xmlns:svg="http://www.w3.org/2000/svg"
   xmlns:rdf="http://www.w3.org/1999/02/22-rdf-syntax-ns#"
   xmlns:cc="http://creativecommons.org/ns#"
   xmlns:dc="http://purl.org/dc/elements/1.1/">
  <sodipodi:namedview
     id="namedview75646"
     pagecolor="#ffffff"
     bordercolor="#000000"
     borderopacity="0.25"
     inkscape:showpageshadow="2"
     inkscape:pageopacity="0.0"
     inkscape:pagecheckerboard="0"
     inkscape:deskcolor="#d1d1d1"
     showgrid="false"
     inkscape:zoom="12.5625"
     inkscape:cx="13.492537"
     inkscape:cy="32.318408"
     inkscape:window-width="1278"
     inkscape:window-height="1005"
     inkscape:window-x="541"
     inkscape:window-y="178"
     inkscape:window-maximized="0"
     inkscape:current-layer="svg6358" />
  <defs
     id="defs6360">
    <linearGradient
       inkscape:collect="always"
       id="linearGradient76355">
      <stop
         style="stop-color:#ed5353;stop-opacity:1"
         offset="0"
         id="stop76351" />
      <stop
         style="stop-color:#c6262e;stop-opacity:1"
         offset="1"
         id="stop76353" />
    </linearGradient>
    <linearGradient
       x1="23.99999"
       y1="4.999989"
       x2="23.99999"
       y2="43"
       id="linearGradient4140"
       xlink:href="#linearGradient3924-33"
       gradientUnits="userSpaceOnUse"
       gradientTransform="matrix(0.67567568,0,0,0.67567568,-0.21621749,-0.21620653)" />
    <linearGradient
       id="linearGradient3924-33">
      <stop
         id="stop3926-0"
         style="stop-color:#ffffff;stop-opacity:1"
         offset="0" />
      <stop
         id="stop3928-5"
         style="stop-color:#ffffff;stop-opacity:0.23529412"
         offset="0.06316455" />
      <stop
         id="stop3930-2"
         style="stop-color:#ffffff;stop-opacity:0.15686275"
         offset="0.95056331" />
      <stop
         id="stop3932-5"
         style="stop-color:#ffffff;stop-opacity:0.39215687"
         offset="1" />
    </linearGradient>
    <linearGradient
       id="linearGradient3688-166-749-0">
      <stop
         id="stop2883-7"
         style="stop-color:#181818;stop-opacity:1"
         offset="0" />
      <stop
         id="stop2885-0"
         style="stop-color:#181818;stop-opacity:0"
         offset="1" />
    </linearGradient>
    <linearGradient
       id="linearGradient3702-501-757-9">
      <stop
         id="stop2895-9"
         style="stop-color:#181818;stop-opacity:0"
         offset="0" />
      <stop
         id="stop2897-8"
         style="stop-color:#181818;stop-opacity:1"
         offset="0.5" />
      <stop
         id="stop2899-9"
         style="stop-color:#181818;stop-opacity:0"
         offset="1" />
    </linearGradient>
    <linearGradient
       inkscape:collect="always"
       xlink:href="#linearGradient76355"
       id="linearGradient76357"
       x1="11.385672"
       y1="4.5981574"
       x2="11.385672"
       y2="29.500008"
       gradientUnits="userSpaceOnUse"
       gradientTransform="matrix(1.08,0,0,1.08,-1.2799997,-2.3600088)" />
    <radialGradient
       gradientTransform="matrix(2.003784,0,0,1.4,27.98813,-17.4)"
       gradientUnits="userSpaceOnUse"
       xlink:href="#linearGradient3688-166-749-0"
       id="radialGradient3163"
       fy="43.5"
       fx="4.9929786"
       r="2.5"
       cy="43.5"
       cx="4.9929786" />
    <radialGradient
       gradientTransform="matrix(2.003784,0,0,1.4,-20.01187,-104.4)"
       gradientUnits="userSpaceOnUse"
       xlink:href="#linearGradient3688-166-749-0"
       id="radialGradient3165"
       fy="43.5"
       fx="4.9929786"
       r="2.5"
       cy="43.5"
       cx="4.9929786" />
    <linearGradient
       gradientUnits="userSpaceOnUse"
       xlink:href="#linearGradient3702-501-757-9"
       id="linearGradient3167"
       y2="39.999443"
       x2="25.058096"
       y1="47.027729"
       x1="25.058096" />
  </defs>
  <metadata
     id="metadata6363">
    <rdf:RDF>
      <cc:Work
         rdf:about="">
        <dc:format>image/svg+xml</dc:format>
        <dc:type
           rdf:resource="http://purl.org/dc/dcmitype/StillImage" />
      </cc:Work>
    </rdf:RDF>
  </metadata>
  <g
     style="opacity:0.4"
     id="g3712"
     transform="matrix(0.73684208,0,0,0.57142853,-1.6842104,4.1428588)">
    <rect
       style="fill:url(#radialGradient3163);fill-opacity:1;stroke:none"
       id="rect2801"
       y="40"
       x="38"
       height="7"
       width="5" />
    <rect
       style="fill:url(#radialGradient3165);fill-opacity:1;stroke:none"
       id="rect3696"
       transform="scale(-1)"
       y="-47"
       x="-10"
       height="7"
       width="5" />
    <rect
       style="fill:url(#linearGradient3167);fill-opacity:1;stroke:none"
       id="rect3700"
       y="40"
       x="10"
       height="7.0000005"
       width="28" />
  </g>
  <rect
     width="27"
     height="27"
     rx="3"
     ry="3"
     x="2.5"
     y="2.5"
     id="rect5505-9"
     style="color:#000000;display:inline;overflow:visible;visibility:visible;fill:url(#linearGradient76357);fill-opacity:1;fill-rule:nonzero;stroke:none;stroke-width:1;marker:none;enable-background:accumulate" />
  <path
     id="path5611"
     style="color:#000000;display:inline;overflow:visible;visibility:visible;opacity:0.15;fill:#7a0000;fill-opacity:1;fill-rule:evenodd;stroke:none;stroke-width:1;marker:none;enable-background:accumulate"
     d="M 18.363281 3.0058594 A 1.121721 1.121721 0 0 0 17.855469 3.2753906 C 9.1913816 10.70964 4.3914758 11.67448 3 11.779297 L 3 21.457031 A 1.121721 1.121721 0 0 0 3.0390625 21.466797 C 4.3791576 21.466797 6.4879121 22.366722 8.5078125 23.931641 C 10.225581 25.262486 11.875503 27.045243 13.148438 29 L 26.5 29 C 27.893646 29 29 27.893646 29 26.5 L 29 25.892578 C 27.920804 22.843373 27.105987 19.043707 26.462891 15.560547 C 26.459691 15.535707 26.466091 15.518981 26.462891 15.494141 C 25.803961 10.377896 26.770966 5.8186864 27.136719 4.390625 A 1.121721 1.121721 0 0 0 26.056641 3.0058594 L 18.599609 3.0058594 A 1.121721 1.121721 0 0 0 18.363281 3.0058594 z M 18.363281 8.2714844 C 18.149344 9.7291159 17.989097 11.422981 17.855469 13.435547 C 17.59669 17.332972 17.518546 22.431441 17.484375 27.947266 C 16.153114 25.45614 13.817805 22.899565 11.173828 20.724609 C 9.6473899 19.468949 8.0995718 18.392838 6.71875 17.585938 C 5.8423525 17.073802 5.0653481 16.709986 4.3222656 16.472656 C 5.971964 16.15396 8.5058635 15.497374 11.476562 13.636719 C 13.966586 12.077126 16.443583 10.002129 18.363281 8.2714844 z " />
  <path
     id="path6711-76-3"
     style="color:#000000;display:inline;overflow:visible;visibility:visible;opacity:0.3;fill:#7a0000;fill-opacity:1;fill-rule:evenodd;stroke:none;stroke-width:1;marker:none;enable-background:accumulate"
     d="M 18.599609 4.1191406 C 9.7648294 11.699859 4.717802 12.776531 3.0390625 12.894531 L 3.0390625 15.628906 C 4.3061712 15.451981 7.47708 14.817932 10.869141 12.693359 C 15.218685 9.969084 20.421875 4.7949219 20.421875 4.7949219 C 19.035316 7.5147307 18.616226 16.767336 18.568359 29 L 26.5 29 C 27.376096 29 28.138432 28.563526 28.583984 27.892578 C 27.106346 24.465281 26.115201 19.852765 25.349609 15.697266 C 24.641918 10.32702 25.669202 5.6318847 26.056641 4.1191406 L 18.599609 4.1191406 z M 3.0390625 17.316406 L 3.0390625 20.353516 C 6.4685352 20.353516 11.602267 24.205214 14.486328 29 L 16.96875 29 C 14.732655 24.199568 5.6520717 17.316406 3.0390625 17.316406 z " />
  <path
     id="path6711-76"
     style="color:#000000;display:inline;overflow:visible;visibility:visible;fill:#fafafa;fill-opacity:1;fill-rule:nonzero;stroke:none;stroke-width:1;marker:none;enable-background:accumulate"
     d="M 18.599609 3.0390625 C 9.7648294 10.619781 4.717802 11.690593 3.0390625 11.808594 L 3.0390625 14.533203 C 4.3061712 14.356277 7.4927048 13.74176 10.884766 11.617188 C 15.23431 8.8929121 20.433594 3.7207031 20.433594 3.7207031 C 19.007476 6.5181167 18.592004 16.164066 18.564453 28.919922 L 27.125 28.919922 C 27.922047 28.718743 28.557769 28.142199 28.839844 27.382812 C 27.218594 23.909417 26.144905 19.010079 25.335938 14.619141 C 24.628247 9.2488899 25.673108 4.5518062 26.060547 3.0390625 L 18.599609 3.0390625 z M 3.0390625 16.248047 L 3.0390625 19.265625 C 6.7068576 19.265625 12.346476 23.666256 15.074219 28.919922 L 17.365234 28.919922 C 16.083535 24.143832 5.8372965 16.248047 3.0390625 16.248047 z " />
  <rect
     width="25"
     height="25"
     rx="2"
     ry="2"
     x="3.5"
     y="3.5"
     id="rect6741-7-7"
     style="opacity:0.5;fill:none;stroke:url(#linearGradient4140);stroke-width:1;stroke-linecap:round;stroke-linejoin:round;stroke-miterlimit:4;stroke-dasharray:none;stroke-dashoffset:0;stroke-opacity:1" />
  <rect
     width="27"
     height="27"
     rx="3"
     ry="3"
     x="2.5"
     y="2.5"
     id="rect5505-9-7"
     style="color:#000000;display:inline;overflow:visible;visibility:visible;opacity:0.35;fill:none;stroke:#7a0000;stroke-width:1;stroke-linecap:round;stroke-linejoin:round;stroke-miterlimit:4;stroke-dasharray:none;stroke-dashoffset:0;stroke-opacity:1;marker:none;enable-background:accumulate" />
</svg>
