<?xml version="1.0" encoding="UTF-8" standalone="no"?>
<svg
   version="1.1"
   width="32"
   height="32"
   id="svg4248"
   sodipodi:docname="qbittorrent.svg"
   inkscape:version="1.2.2 (b0a8486541, 2022-12-01)"
   xmlns:inkscape="http://www.inkscape.org/namespaces/inkscape"
   xmlns:sodipodi="http://sodipodi.sourceforge.net/DTD/sodipodi-0.dtd"
   xmlns:xlink="http://www.w3.org/1999/xlink"
   xmlns="http://www.w3.org/2000/svg"
   xmlns:svg="http://www.w3.org/2000/svg"
   xmlns:rdf="http://www.w3.org/1999/02/22-rdf-syntax-ns#"
   xmlns:cc="http://creativecommons.org/ns#"
   xmlns:dc="http://purl.org/dc/elements/1.1/">
  <sodipodi:namedview
     pagecolor="#ffffff"
     bordercolor="#666666"
     borderopacity="1"
     objecttolerance="10"
     gridtolerance="10"
     guidetolerance="10"
     inkscape:pageopacity="0"
     inkscape:pageshadow="2"
     inkscape:window-width="1317"
     inkscape:window-height="893"
     id="namedview53"
     showgrid="false"
     inkscape:zoom="6.1953125"
     inkscape:cx="17.593947"
     inkscape:cy="17.271122"
     inkscape:window-x="96"
     inkscape:window-y="67"
     inkscape:window-maximized="0"
     inkscape:current-layer="svg4248"
     inkscape:pagecheckerboard="0"
     inkscape:showpageshadow="2"
     inkscape:deskcolor="#d1d1d1" />
  <defs
     id="defs4250">
    <linearGradient
       id="linearGradient4011-4">
      <stop
         id="stop4013-8"
         style="stop-color:#ffffff;stop-opacity:1"
         offset="0" />
      <stop
         id="stop4015-5"
         style="stop-color:#ffffff;stop-opacity:0.23529412"
         offset="0.507761" />
      <stop
         id="stop4017-6"
         style="stop-color:#ffffff;stop-opacity:0.15686275"
         offset="0.83456558" />
      <stop
         id="stop4019-1"
         style="stop-color:#ffffff;stop-opacity:0.39215687"
         offset="1" />
    </linearGradient>
    <linearGradient
       x1="71.204407"
       y1="6.2375584"
       x2="71.204407"
       y2="44.340794"
       id="linearGradient3089"
       xlink:href="#linearGradient4011-4"
       gradientUnits="userSpaceOnUse"
       gradientTransform="matrix(0.67567564,0,0,0.67567567,-32.468588,-1.13327)" />
    <linearGradient
       id="linearGradient3820-7-2-2">
      <stop
         id="stop3822-2-6-36"
         style="stop-color:#3d3d3d;stop-opacity:1"
         offset="0" />
      <stop
         id="stop3864-8-7-6"
         style="stop-color:#686868;stop-opacity:0.49803922"
         offset="0.5" />
      <stop
         id="stop3824-1-2-4"
         style="stop-color:#686868;stop-opacity:0"
         offset="1" />
    </linearGradient>
    <radialGradient
       cx="99.157013"
       cy="186.17059"
       r="62.769119"
       fx="99.157013"
       fy="186.17059"
       id="radialGradient3315"
       xlink:href="#linearGradient3820-7-2-2"
       gradientUnits="userSpaceOnUse"
       gradientTransform="matrix(0.15931401,0,0,0.05576231,0.20289886,17.1192)" />
    <linearGradient
       inkscape:collect="always"
       xlink:href="#linearGradient1278"
       id="linearGradient1280"
       x1="23.120403"
       y1="4.8180451"
       x2="23.120403"
       y2="43.294945"
       gradientUnits="userSpaceOnUse"
       gradientTransform="matrix(0.69230769,0,0,0.69230769,-0.6153849,-0.6153847)" />
    <linearGradient
       inkscape:collect="always"
       id="linearGradient1278">
      <stop
         style="stop-color:#64baff;stop-opacity:1"
         offset="0"
         id="stop1274" />
      <stop
         style="stop-color:#3689e6;stop-opacity:1"
         offset="1"
         id="stop1276" />
    </linearGradient>
  </defs>
  <metadata
     id="metadata4253">
    <rdf:RDF>
      <cc:Work
         rdf:about="">
        <dc:format>image/svg+xml</dc:format>
        <dc:type
           rdf:resource="http://purl.org/dc/dcmitype/StillImage" />
      </cc:Work>
    </rdf:RDF>
  </metadata>
  <path
     d="m 26,27.5005 a 10,3.50015 0 1 1 -19.9999999,0 10,3.50015 0 1 1 19.9999999,0 z"
     id="path3818-0-2"
     style="fill:url(#radialGradient3315);fill-opacity:1;stroke:none;stroke-width:1" />
  <circle
     style="fill:url(#linearGradient1280);fill-opacity:1;stroke:#002e99;stroke-width:1;stroke-linecap:round;stroke-linejoin:round;stroke-opacity:0.5;paint-order:markers fill stroke"
     id="path878"
     cx="16"
     cy="16"
     r="13.5" />
  <path
     id="path53248"
     style="color:#000000;fill:none;fill-opacity:0.1;stroke:#002e99;stroke-width:2;stroke-linecap:round;stroke-dasharray:none;stroke-opacity:0.04"
     d="m 11.000001,12 c -2.245682,0 -4,2.049198 -4,4.5 v 1 c 0,2.450802 1.754318,4.5 4,4.5 1.207321,0 2.272972,-0.592929 3,-1.521484 V 25.5 a 0.5,0.5 0 0 0 0.5,0.5 0.5,0.5 0 0 0 0.5,-0.5 v -8 -1 -4 a 0.5,0.5 0 0 0 -0.5,-0.5 0.5,0.5 0 0 0 -0.5,0.5 v 1.021484 C 13.272973,12.592929 12.207322,12 11.000001,12 Z m 0,1 c 1.632311,0 3,1.518811 3,3.5 v 1 c 0,1.981189 -1.367689,3.5 -3,3.5 -1.632312,0 -3,-1.518811 -3,-3.5 v -1 c 0,-1.981189 1.367688,-3.5 3,-3.5 z" />
  <path
     d="M 28.5,15.999557 C 28.5,22.90334 22.903147,28.5 16.000158,28.5 9.0965371,28.5 3.5,22.903276 3.5,15.999557 3.5,9.0960936 9.0965371,3.5000002 16.000158,3.5000002 22.903147,3.5000002 28.5,9.0960936 28.5,15.999557 Z"
     id="path8655"
     style="color:#000000;display:inline;overflow:visible;visibility:visible;opacity:0.5;fill:none;stroke:url(#linearGradient3089);stroke-width:1;stroke-linecap:round;stroke-linejoin:round;stroke-miterlimit:4;stroke-dasharray:none;stroke-dashoffset:0;stroke-opacity:1;marker:none;enable-background:accumulate" />
  <g
     style="opacity:1;fill:#206b00;fill-opacity:0.50196081"
     transform="matrix(1.3076923,0,0,1.3076923,5.5384616,6.6923078)"
     id="g4641">
    <g
       id="g4643"
       label="status"
       style="display:inline;fill:#206b00;fill-opacity:0.50196081"
       transform="translate(-333.0004,-28)" />
    <g
       id="g4645"
       style="display:inline;fill:#206b00;fill-opacity:0.50196081"
       transform="translate(-333.0004,-28)" />
    <g
       id="g4647"
       style="display:inline;fill:#206b00;fill-opacity:0.50196081"
       transform="translate(-333.0004,-28)" />
    <g
       style="fill:#206b00;fill-opacity:0.50196081"
       id="g4649"
       transform="translate(-333.0004,-28)" />
    <g
       id="g4651"
       style="display:inline;fill:#206b00;fill-opacity:0.50196081"
       transform="translate(-333.0004,-28)" />
    <g
       id="g4653"
       style="display:inline;fill:#206b00;fill-opacity:0.50196081"
       transform="translate(-333.0004,-28)" />
    <g
       id="g4655"
       style="display:inline;fill:#206b00;fill-opacity:0.50196081"
       transform="translate(-333.0004,-28)" />
  </g>
  <path
     id="path46975"
     style="color:#000000;fill:#002e99;stroke-linecap:round;-inkscape-stroke:none;fill-opacity:0.1"
     d="m 11,12 c -2.2456823,0 -4,2.049198 -4,4.5 v 1 c 0,2.450802 1.7543177,4.5 4,4.5 1.207321,0 2.272972,-0.592929 3,-1.521484 V 25.5 A 0.5,0.5 0 0 0 14.5,26 0.5,0.5 0 0 0 15,25.5 v -8 -1 -4 A 0.5,0.5 0 0 0 14.5,12 0.5,0.5 0 0 0 14,12.5 v 1.021484 C 13.272972,12.592929 12.207321,12 11,12 Z m 0,1 c 1.632311,0 3,1.518811 3,3.5 v 1 C 14,19.481189 12.632311,21 11,21 9.3676884,21 8,19.481189 8,17.5 v -1 C 8,14.518811 9.3676884,13 11,13 Z" />
  <path
     style="fill:none;stroke:#ffffff;stroke-width:1;stroke-linecap:round;stroke-linejoin:miter;stroke-miterlimit:4;stroke-dasharray:none;stroke-opacity:1"
     d="m 14.5,11.5 v 13"
     id="path4196"
     sodipodi:nodetypes="cc" />
  <rect
     style="fill:none;fill-opacity:0.1;stroke:#ffffff;stroke-width:0.999996;stroke-linecap:round;stroke-linejoin:round;stroke-dasharray:none;stroke-opacity:1;paint-order:markers fill stroke;stop-color:#000000"
     id="rect41042"
     width="7.0000029"
     height="9.0000029"
     x="7.4999981"
     y="11.499998"
     rx="4"
     ry="4" />
  <path
     id="path53246"
     style="color:#000000;fill:none;fill-opacity:0.1;stroke-linecap:round;stroke:#002e99;stroke-opacity:0.04;stroke-width:2;stroke-dasharray:none"
     d="m 21.000001,22 c 2.245682,0 4,-2.049198 4,-4.5 v -1 c 0,-2.450802 -1.754318,-4.5 -4,-4.5 -1.207321,0 -2.272972,0.592929 -3,1.521484 V 8.5 a 0.5,0.5 0 0 0 -0.5,-0.5 0.5,0.5 0 0 0 -0.5,0.5 v 8 1 4 a 0.5,0.5 0 0 0 0.5,0.5 0.5,0.5 0 0 0 0.5,-0.5 V 20.478516 C 18.727029,21.407071 19.79268,22 21.000001,22 Z m 0,-1 c -1.632311,0 -3,-1.518811 -3,-3.5 v -1 c 0,-1.981189 1.367689,-3.5 3,-3.5 1.632312,0 3,1.518811 3,3.5 v 1 c 0,1.981189 -1.367688,3.5 -3,3.5 z" />
  <path
     id="path46988"
     style="color:#000000;fill:#002e99;fill-opacity:0.1;stroke-linecap:round;-inkscape-stroke:none"
     d="m 21.000001,22 c 2.245682,0 4,-2.049198 4,-4.5 v -1 c 0,-2.450802 -1.754318,-4.5 -4,-4.5 -1.207321,0 -2.272972,0.592929 -3,1.521484 V 8.5 a 0.5,0.5 0 0 0 -0.5,-0.5 0.5,0.5 0 0 0 -0.5,0.5 v 8 1 4 a 0.5,0.5 0 0 0 0.5,0.5 0.5,0.5 0 0 0 0.5,-0.5 V 20.478516 C 18.727029,21.407071 19.79268,22 21.000001,22 Z m 0,-1 c -1.632311,0 -3,-1.518811 -3,-3.5 v -1 c 0,-1.981189 1.367689,-3.5 3,-3.5 1.632312,0 3,1.518811 3,3.5 v 1 c 0,1.981189 -1.367688,3.5 -3,3.5 z" />
  <path
     style="fill:none;stroke:#ffffff;stroke-width:1;stroke-linecap:round;stroke-linejoin:miter;stroke-miterlimit:4;stroke-dasharray:none;stroke-opacity:1"
     d="M 17.500001,20.5 V 7.5"
     id="path46199"
     sodipodi:nodetypes="cc" />
  <rect
     style="fill:none;fill-opacity:0.1;stroke:#ffffff;stroke-width:0.999996;stroke-linecap:round;stroke-linejoin:round;stroke-dasharray:none;stroke-opacity:1;paint-order:markers fill stroke;stop-color:#000000"
     id="rect46871"
     width="7.0000029"
     height="9.0000029"
     x="17.500002"
     y="11.499998"
     rx="4"
     ry="4" />
</svg>
