<?xml version="1.0" encoding="UTF-8" standalone="no"?>
<!-- Created with Inkscape (http://www.inkscape.org/) -->

<svg
   xmlns:dc="http://purl.org/dc/elements/1.1/"
   xmlns:cc="http://creativecommons.org/ns#"
   xmlns:rdf="http://www.w3.org/1999/02/22-rdf-syntax-ns#"
   xmlns:svg="http://www.w3.org/2000/svg"
   xmlns="http://www.w3.org/2000/svg"
   xmlns:xlink="http://www.w3.org/1999/xlink"
   xmlns:sodipodi="http://sodipodi.sourceforge.net/DTD/sodipodi-0.dtd"
   xmlns:inkscape="http://www.inkscape.org/namespaces/inkscape"
   width="32"
   height="32"
   id="svg3903"
   version="1.1"
   inkscape:version="0.48.1 r9760"
   sodipodi:docname="skype.svg">
  <defs
     id="defs3905">
    <linearGradient
       inkscape:collect="always"
       xlink:href="#linearGradient4873"
       id="linearGradient3852"
       gradientUnits="userSpaceOnUse"
       gradientTransform="matrix(0.26057125,0,0,0.26070243,20.616637,991.02277)"
       x1="36.514965"
       y1="62.84341"
       x2="36.514965"
       y2="224.55743" />
    <linearGradient
       id="linearGradient4873">
      <stop
         offset="0"
         style="stop-color:#ffffff;stop-opacity:1"
         id="stop4875" />
      <stop
         offset="1"
         style="stop-color:#ffffff;stop-opacity:0"
         id="stop4877" />
    </linearGradient>
    <linearGradient
       gradientTransform="matrix(0.65426384,0,0,0.65426384,0.29766789,-640.73056)"
       inkscape:collect="always"
       xlink:href="#linearGradient3707-319-631-407-324"
       id="linearGradient3788"
       x1="25"
       y1="1048.7344"
       x2="25"
       y2="1005.9898"
       gradientUnits="userSpaceOnUse" />
    <linearGradient
       id="linearGradient2490-9-1">
      <stop
         offset="0"
         style="stop-color:#365f0e;stop-opacity:1"
         id="stop2492-8-6" />
      <stop
         offset="1"
         style="stop-color:#84a718;stop-opacity:1"
         id="stop2494-1-3" />
    </linearGradient>
    <linearGradient
       id="linearGradient3242-6-4">
      <stop
         offset="0"
         style="stop-color:#eef87e;stop-opacity:1"
         id="stop3244-3-7" />
      <stop
         offset="0.26238"
         style="stop-color:#cde34f;stop-opacity:1"
         id="stop3246-9-9" />
      <stop
         offset="0.66093999"
         style="stop-color:#93b723;stop-opacity:1"
         id="stop3248-3-7" />
      <stop
         offset="1"
         style="stop-color:#5a7e0d;stop-opacity:1"
         id="stop3250-3-2" />
    </linearGradient>
    <radialGradient
       r="20.397499"
       fy="7.3722291"
       fx="50.150719"
       cy="7.4866333"
       cx="50.301655"
       gradientTransform="matrix(2.8439607e-8,1.3186196,-1.7396786,3.7520885e-8,29.024335,-44.413342)"
       gradientUnits="userSpaceOnUse"
       id="radialGradient3899"
       xlink:href="#linearGradient2867-449-88-871-390-598-476-591-434-148-57-177"
       inkscape:collect="always" />
    <linearGradient
       y2="58.838844"
       x2="12.984406"
       y1="227.61346"
       x1="12.984406"
       gradientTransform="matrix(0.17048235,0,0,0.17056818,13.786388,7.8678291)"
       gradientUnits="userSpaceOnUse"
       id="linearGradient3901"
       xlink:href="#linearGradient3707-319-631-407-1-846-4-8-4-9"
       inkscape:collect="always" />
    <linearGradient
       id="linearGradient3702-501-757">
      <stop
         offset="0"
         style="stop-color:#181818;stop-opacity:0"
         id="stop2895" />
      <stop
         offset="0.5"
         style="stop-color:#181818;stop-opacity:1"
         id="stop2897" />
      <stop
         offset="1"
         style="stop-color:#181818;stop-opacity:0"
         id="stop2899" />
    </linearGradient>
    <linearGradient
       id="linearGradient3688-464-309">
      <stop
         offset="0"
         style="stop-color:#181818;stop-opacity:1"
         id="stop2889" />
      <stop
         offset="1"
         style="stop-color:#181818;stop-opacity:0"
         id="stop2891" />
    </linearGradient>
    <linearGradient
       id="linearGradient3688-166-749">
      <stop
         offset="0"
         style="stop-color:#181818;stop-opacity:1"
         id="stop2883" />
      <stop
         offset="1"
         style="stop-color:#181818;stop-opacity:0"
         id="stop2885" />
    </linearGradient>
    <linearGradient
       id="linearGradient3707-319-631-407-324">
      <stop
         offset="0"
         style="stop-color:#185f9a;stop-opacity:1;"
         id="stop3760" />
      <stop
         offset="1"
         style="stop-color:#599ec9;stop-opacity:1;"
         id="stop3762" />
    </linearGradient>
    <linearGradient
       id="linearGradient2867-449-88-871-390-598-476-591-434-148-57-177">
      <stop
         offset="0"
         style="stop-color:#90dbec;stop-opacity:1;"
         id="stop3750" />
      <stop
         offset="0.26238"
         style="stop-color:#55c1ec;stop-opacity:1;"
         id="stop3752" />
      <stop
         offset="0.704952"
         style="stop-color:#3689e6;stop-opacity:1;"
         id="stop3754" />
      <stop
         offset="1"
         style="stop-color:#2b63a0;stop-opacity:1;"
         id="stop3756" />
    </linearGradient>
    <linearGradient
       id="linearGradient3707-319-631-407-1-846-4-8-4-9">
      <stop
         id="stop3788-5-5-3-5"
         style="stop-color:#365a7c;stop-opacity:1"
         offset="0" />
      <stop
         id="stop3790-9-0-0-0"
         style="stop-color:#5ea1ca;stop-opacity:1;"
         offset="1" />
    </linearGradient>
    <linearGradient
       id="linearGradient3924">
      <stop
         offset="0"
         style="stop-color:#ffffff;stop-opacity:1;"
         id="stop3926" />
      <stop
         id="stop3928"
         style="stop-color:#ffffff;stop-opacity:0.23529412;"
         offset="0.06316455" />
      <stop
         offset="0.95056331"
         style="stop-color:#ffffff;stop-opacity:0.15686275;"
         id="stop3930" />
      <stop
         offset="1"
         style="stop-color:#ffffff;stop-opacity:0.39215687;"
         id="stop3932" />
    </linearGradient>
    <linearGradient
       id="linearGradient8265-821-176-38-919-66-249-7-7">
      <stop
         id="stop2687-1-9"
         style="stop-color:#ffffff;stop-opacity:1"
         offset="0" />
      <stop
         id="stop2689-5-4"
         style="stop-color:#ffffff;stop-opacity:0"
         offset="1" />
    </linearGradient>
    <linearGradient
       id="linearGradient3707-319-631-407-1-846-4-8-4">
      <stop
         id="stop3788-5-5-3"
         style="stop-color:#365a7c;stop-opacity:1"
         offset="0" />
      <stop
         id="stop3790-9-0-0"
         style="stop-color:#5ea1ca;stop-opacity:1;"
         offset="1" />
    </linearGradient>
    <linearGradient
       id="linearGradient3707-319-631-407-1-846-4-2">
      <stop
         id="stop3788-5-54"
         style="stop-color:#365a7c;stop-opacity:1"
         offset="0" />
      <stop
         id="stop3790-9-7"
         style="stop-color:#5ea1ca;stop-opacity:1;"
         offset="1" />
    </linearGradient>
    <linearGradient
       gradientTransform="matrix(2.1153735,0,0,2.1153253,-107.57709,32.426559)"
       gradientUnits="userSpaceOnUse"
       xlink:href="#linearGradient4873-4"
       id="linearGradient2407"
       y2="5.4675598"
       x2="63.397362"
       y1="-12.489107"
       x1="63.397362" />
    <linearGradient
       id="linearGradient4873-4">
      <stop
         offset="0"
         style="stop-color:#ffffff;stop-opacity:1"
         id="stop4875-4" />
      <stop
         offset="1"
         style="stop-color:#ffffff;stop-opacity:0"
         id="stop4877-9" />
    </linearGradient>
    <radialGradient
       gradientTransform="matrix(0,2.2874593,-3.0194057,0,36.047437,-50.630156)"
       gradientUnits="userSpaceOnUse"
       xlink:href="#linearGradient3242-187-536"
       id="radialGradient2410"
       fy="3.9900031"
       fx="23.895569"
       r="20.397499"
       cy="3.9900031"
       cx="23.895569" />
    <linearGradient
       id="linearGradient3242-187-536">
      <stop
         offset="0"
         style="stop-color:#8badea;stop-opacity:1"
         id="stop2778" />
      <stop
         offset="0.26238"
         style="stop-color:#6396cd;stop-opacity:1"
         id="stop2780" />
      <stop
         offset="0.66093999"
         style="stop-color:#3b7caf;stop-opacity:1"
         id="stop2782" />
      <stop
         offset="1"
         style="stop-color:#194c70;stop-opacity:1"
         id="stop2784" />
    </linearGradient>
    <linearGradient
       gradientTransform="matrix(0.9584364,0,0,0.9584366,0.9975246,1.9975253)"
       gradientUnits="userSpaceOnUse"
       xlink:href="#linearGradient2490-182-124"
       id="linearGradient2412"
       y2="3.0816143"
       x2="18.379412"
       y1="44.980297"
       x1="18.379412" />
    <linearGradient
       id="linearGradient2490-182-124">
      <stop
         offset="0"
         style="stop-color:#1f4b6a;stop-opacity:1"
         id="stop2788" />
      <stop
         offset="1"
         style="stop-color:#4083c2;stop-opacity:1"
         id="stop2790" />
    </linearGradient>
    <radialGradient
       gradientTransform="matrix(2.1647059,0,0,0.7529402,-188.95015,-35.708768)"
       gradientUnits="userSpaceOnUse"
       xlink:href="#linearGradient8838"
       id="radialGradient2415"
       fy="4.625"
       fx="62.625"
       r="10.625"
       cy="4.625"
       cx="62.625" />
    <linearGradient
       id="linearGradient8838">
      <stop
         offset="0"
         style="stop-color:#000000;stop-opacity:1"
         id="stop8840" />
      <stop
         offset="1"
         style="stop-color:#000000;stop-opacity:0"
         id="stop8842" />
    </linearGradient>
    <radialGradient
       inkscape:collect="always"
       xlink:href="#linearGradient8838"
       id="radialGradient4000"
       gradientUnits="userSpaceOnUse"
       gradientTransform="matrix(2.1647059,0,0,0.7529402,-188.95015,-35.708768)"
       cx="62.625"
       cy="4.625"
       fx="62.625"
       fy="4.625"
       r="10.625" />
  </defs>
  <sodipodi:namedview
     id="base"
     pagecolor="#ffffff"
     bordercolor="#666666"
     borderopacity="1.0"
     inkscape:pageopacity="0.0"
     inkscape:pageshadow="2"
     inkscape:zoom="8"
     inkscape:cx="10.563852"
     inkscape:cy="20.414242"
     inkscape:current-layer="layer1"
     showgrid="true"
     inkscape:grid-bbox="true"
     inkscape:document-units="px"
     inkscape:window-width="1214"
     inkscape:window-height="796"
     inkscape:window-x="104"
     inkscape:window-y="56"
     inkscape:window-maximized="0" />
  <metadata
     id="metadata3908">
    <rdf:RDF>
      <cc:Work
         rdf:about="">
        <dc:format>image/svg+xml</dc:format>
        <dc:type
           rdf:resource="http://purl.org/dc/dcmitype/StillImage" />
        <dc:title></dc:title>
      </cc:Work>
    </rdf:RDF>
  </metadata>
  <g
     id="layer1"
     inkscape:label="Layer 1"
     inkscape:groupmode="layer"
     transform="translate(0,-16)">
    <g
       id="layer1-93"
       transform="matrix(0.65426384,0,0,0.65426384,50.928168,63.850467)">
      <path
         style="opacity:0.3;fill:url(#radialGradient4000);fill-opacity:1;fill-rule:evenodd;stroke:none;stroke-width:0.99999988;marker:none;visibility:visible;display:inline;overflow:visible"
         id="path8836"
         d="m -30.385448,-32.226415 c 0,4.418278 -10.297452,8 -23,8 -12.702548,0 -23,-3.581722 -23,-8 0,-4.418278 10.297452,-8 23,-8 12.702548,0 23,3.581722 23,8 l 0,0 z"
         inkscape:connector-curvature="0" />
    </g>
    <path
       style="color:#000000;fill:url(#radialGradient3899);fill-opacity:1;fill-rule:nonzero;stroke:url(#linearGradient3901);stroke-width:1;stroke-linecap:round;stroke-linejoin:round;stroke-miterlimit:4;stroke-opacity:1;stroke-dasharray:none;stroke-dashoffset:0;marker:none;visibility:visible;display:inline;overflow:visible;enable-background:accumulate"
       d="m 9.6709958,18.231452 c -0.9528719,0 -1.5727698,0.09624 -2.4238343,0.374567 -2.725809,0.891173 -4.7701559,3.249925 -5.2417875,6.072419 -0.079871,0.478005 -0.082752,0.826989 -0.059118,1.597058 0.034121,1.111725 0.1645999,1.733341 0.551767,2.661611 0.1191225,0.28552 0.2408669,0.58465 0.2758836,0.670293 0.046777,0.114496 0.042211,0.351928 -0.019706,0.867553 -0.1216586,1.013062 -0.114328,2.998753 0.019706,3.824827 0.2837893,1.74924 0.9317952,3.547354 1.7932431,4.948721 0.8089604,1.316051 2.0868259,2.72442 3.2711909,3.627762 2.9495764,2.24962 6.5765544,3.180115 10.2273974,2.622159 l 0.453237,-0.05954 0.630591,0.275969 c 0.658211,0.293959 1.478089,0.515232 2.187363,0.611212 0.557839,0.0755 1.897925,0.03402 2.463245,-0.0789 2.35413,-0.47022 4.342368,-1.965213 5.438848,-4.100861 0.59133,-1.151765 0.827474,-2.180137 0.827651,-3.529099 1.56e-4,-1.233417 -0.168344,-2.040256 -0.670003,-3.213743 l -0.256178,-0.59152 0.07882,-0.492857 c 0.120519,-0.754101 0.15971,-2.509229 0.07882,-3.292579 C 28.925819,27.420921 27.1547,24.11087 24.391346,21.898085 21.529403,19.606329 17.910724,18.602033 14.242773,19.059037 l -0.768534,0.09853 -0.551767,-0.256276 c -1.15294,-0.501695 -2.027471,-0.670298 -3.2514785,-0.670298 z"
       id="path2986"
       inkscape:connector-curvature="0" />
    <path
       style="color:#000000;fill:url(#linearGradient3788);fill-opacity:1;fill-rule:nonzero;stroke:none;stroke-width:1;marker:none;visibility:visible;display:inline;overflow:visible;enable-background:accumulate"
       d="m 16.347873,22.275532 c 1.065095,3.27e-4 1.258335,0.01571 1.910813,0.158529 2.817595,0.61455 4.78533,2.108037 4.863891,3.70503 0.01193,0.242536 -0.01789,0.529365 -0.0579,0.653807 -0.09667,0.300633 -0.418665,0.661591 -0.772046,0.851982 -0.257082,0.138508 -0.366915,0.158397 -0.849251,0.158397 -0.430557,0 -0.590759,-0.02683 -0.772046,-0.118814 -0.127388,-0.06412 -0.593028,-0.48553 -1.022961,-0.931214 -0.870903,-0.903081 -1.209446,-1.126185 -2.103827,-1.367018 -0.613871,-0.165529 -1.909723,-0.16782 -2.489848,-0.01963 -1.144033,0.291802 -1.780276,0.998734 -1.775706,1.981242 0.003,0.632673 0.350273,1.112903 1.100165,1.466205 0.560336,0.26393 0.887278,0.351471 3.416305,0.931214 1.156954,0.265239 2.3295,0.554292 2.605656,0.653806 2.088554,0.752469 3.196817,2.100513 3.416304,4.121076 0.173159,1.594115 -0.325527,3.094866 -1.370382,4.160791 -0.901182,0.919307 -2.161139,1.498199 -3.84093,1.783067 -0.653727,0.110504 -2.490892,0.172659 -3.18469,0.09912 -2.551272,-0.270275 -4.475539,-1.229623 -5.4429255,-2.714409 -0.339667,-0.521317 -0.521131,-1.089152 -0.521131,-1.604844 0,-0.675593 0.2521846,-1.13083 0.7720465,-1.426426 0.276103,-0.157285 0.350045,-0.178417 0.84925,-0.178417 0.781744,0 1.005237,0.154274 1.852911,1.22838 0.880467,1.115847 1.528366,1.563101 2.567054,1.783261 1.867925,0.395634 3.66458,-0.210738 4.246253,-1.426556 0.136417,-0.285194 0.17439,-0.400083 0.17371,-0.832158 -7.2e-4,-0.433124 -0.03935,-0.549517 -0.17371,-0.812335 -0.175282,-0.342965 -0.522423,-0.677883 -0.907154,-0.851982 -0.140774,-0.06346 -1.461021,-0.433318 -2.933775,-0.812335 -1.472754,-0.379014 -2.893664,-0.756328 -3.146088,-0.851982 -1.802816,-0.682265 -2.7701394,-1.693561 -3.1267872,-3.209686 -0.1694988,-0.720476 -0.1724738,-1.862756 0,-2.536058 0.5385692,-2.102216 2.1983712,-3.407734 4.9603972,-3.9229 0.43772,-0.08172 0.859076,-0.119143 1.756405,-0.11888 z"
       id="path2879-9"
       inkscape:connector-curvature="0" />
    <path
       style="color:#000000;fill:#ffffff;fill-opacity:1;fill-rule:nonzero;stroke:none;stroke-width:1;marker:none;visibility:visible;display:inline;overflow:visible;enable-background:accumulate"
       d="m 16.347873,23.137842 c 1.065095,3.29e-4 1.258335,0.01571 1.910813,0.158528 2.817595,0.614552 4.78533,2.108039 4.863891,3.705032 0.01193,0.242535 -0.01789,0.529364 -0.0579,0.653806 -0.09667,0.300634 -0.418665,0.661591 -0.772046,0.851982 -0.257082,0.138508 -0.366915,0.158397 -0.849251,0.158397 -0.430557,0 -0.590759,-0.02683 -0.772046,-0.118814 -0.127388,-0.06412 -0.593028,-0.48553 -1.022961,-0.931214 -0.870903,-0.903079 -1.209446,-1.126183 -2.103827,-1.367019 -0.613871,-0.165528 -1.909723,-0.167819 -2.489848,-0.01963 -1.144033,0.291802 -1.780276,0.998734 -1.775706,1.981243 0.003,0.632672 0.350273,1.112901 1.100165,1.466204 0.560336,0.263931 0.887278,0.351471 3.416305,0.931214 1.156954,0.265239 2.3295,0.554292 2.605656,0.653806 2.088554,0.752469 3.196817,2.100513 3.416304,4.121077 0.173159,1.594114 -0.325527,3.094864 -1.370382,4.16079 -0.901182,0.919307 -2.161139,1.498199 -3.84093,1.783066 -0.653727,0.110505 -2.490892,0.172661 -3.18469,0.09912 -2.551272,-0.270275 -4.475539,-1.229623 -5.4429255,-2.714408 -0.339667,-0.521318 -0.521131,-1.089153 -0.521131,-1.604844 0,-0.675593 0.2521846,-1.13083 0.7720465,-1.426427 0.276103,-0.157285 0.350045,-0.178417 0.84925,-0.178417 0.781744,0 1.005237,0.154275 1.852911,1.228379 0.880467,1.115848 1.528366,1.563103 2.567054,1.783262 1.867925,0.395635 3.66458,-0.210738 4.246253,-1.426557 0.136417,-0.285193 0.17439,-0.400081 0.17371,-0.832157 -7.2e-4,-0.433123 -0.03935,-0.549517 -0.17371,-0.812334 -0.175282,-0.342966 -0.522423,-0.677883 -0.907154,-0.851983 -0.140774,-0.06346 -1.461021,-0.433319 -2.933775,-0.812334 -1.472754,-0.379015 -2.893664,-0.756329 -3.146088,-0.851983 -1.802816,-0.682266 -2.7701394,-1.693561 -3.1267872,-3.209686 -0.1694988,-0.720476 -0.1724738,-1.862755 0,-2.536059 0.5385692,-2.102215 2.1983712,-3.407732 4.9603972,-3.9229 0.43772,-0.08171 0.859076,-0.119141 1.756405,-0.118879 z"
       id="path2879"
       inkscape:connector-curvature="0" />
    <path
       transform="matrix(0.63790865,0,0,0.63790865,0.69031501,-623.70346)"
       sodipodi:type="inkscape:offset"
       inkscape:radius="-1.0321088"
       inkscape:original="M 14.3125 1006.875 C 12.856097 1006.875 11.925797 1007.0121 10.625 1007.4375 C 6.458777 1008.7996 3.3458584 1012.4048 2.625 1016.7188 C 2.5029219 1017.4493 2.4951262 1017.9792 2.53125 1019.1562 C 2.583402 1020.8555 2.7832401 1021.8 3.375 1023.2188 C 3.5570709 1023.6552 3.7277292 1024.1191 3.78125 1024.25 C 3.852746 1024.425 3.844637 1024.7744 3.75 1025.5625 C 3.5640526 1027.1109 3.576388 1030.1749 3.78125 1031.4375 C 4.2150035 1034.1111 5.2145827 1036.8581 6.53125 1039 C 7.7676939 1041.0115 9.7210248 1043.1506 11.53125 1044.5312 C 16.039487 1047.9697 21.576173 1049.384 27.15625 1048.5312 L 27.84375 1048.4375 L 28.8125 1048.875 C 29.818533 1049.3243 31.072171 1049.6658 32.15625 1049.8125 C 33.008873 1049.9279 35.073444 1049.8601 35.9375 1049.6875 C 39.535635 1048.9688 42.574101 1046.6705 44.25 1043.4062 C 45.15381 1041.6459 45.49973 1040.093 45.5 1038.0312 C 45.500241 1036.1461 45.235505 1034.8873 44.46875 1033.0938 L 44.09375 1032.2188 L 44.21875 1031.4375 C 44.402955 1030.2849 44.436129 1027.6036 44.3125 1026.4062 C 43.743444 1020.8954 41.03611 1015.8508 36.8125 1012.4688 C 32.438206 1008.966 26.918727 1007.4265 21.3125 1008.125 L 20.125 1008.2812 L 19.28125 1007.875 C 17.519046 1007.1082 16.183316 1006.875 14.3125 1006.875 z "
       style="opacity:0.40000000000000002;color:#000000;fill:none;stroke:url(#linearGradient3852);stroke-width:1.56762257;stroke-linecap:round;stroke-linejoin:round;stroke-miterlimit:4;stroke-opacity:1;stroke-dasharray:none;stroke-dashoffset:0;marker:none;visibility:visible;display:inline;overflow:visible;enable-background:accumulate"
       id="path3850"
       d="m 14.3125,1007.9062 c -1.391631,0 -2.150114,0.1 -3.375,0.5 -3.7992701,1.2422 -6.6245929,4.539 -7.28125,8.4688 -0.1098804,0.6575 -0.1294427,1.087 -0.09375,2.25 0.050032,1.6302 0.1891061,2.3427 0.75,3.6875 0.193905,0.4648 0.4163894,1.0109 0.4375,1.0625 0.2637365,0.6455 0.1293603,0.9955 0.03125,1.8125 -0.1660843,1.383 -0.1323825,4.5853 0.03125,5.5937 0.4115099,2.5365 1.3612123,5.1825 2.59375,7.1876 1.1534399,1.8764 3.063859,3.964 4.75,5.25 4.292751,3.2741 9.532921,4.5929 14.84375,3.7812 a 1.032212,1.032212 0 0 1 0.03125,0 l 0.6875,-0.094 a 1.032212,1.032212 0 0 1 0.5625,0.094 l 0.9375,0.4375 c 0.0085,0 0.02273,-0 0.03125,0 0.889436,0.3934 2.062594,0.7127 3.03125,0.8437 0.57993,0.079 2.863474,0.027 3.46875,-0.094 3.293124,-0.6578 6.059451,-2.7615 7.59375,-5.75 0.840031,-1.6361 1.124745,-2.9598 1.125,-4.9063 2.29e-4,-1.7884 -0.205609,-2.8192 -0.9375,-4.5312 l -0.375,-0.875 a 1.032212,1.032212 0 0 1 -0.09375,-0.5625 l 0.125,-0.7813 c 0.147887,-0.9253 0.199276,-3.7591 0.09375,-4.7812 -0.541311,-5.2421 -3.124293,-10.0152 -7.125,-13.2188 -4.158811,-3.3302 -9.379631,-4.7902 -14.71875,-4.125 l -1.1875,0.1563 a 1.032212,1.032212 0 0 1 -0.5625,-0.094 l -0.8125,-0.4063 c -0.01044,-0 -0.02085,0 -0.03125,0 -1.64024,-0.7101 -2.757452,-0.9063 -4.53125,-0.9063 z" />
  </g>
</svg>
