<?xml version="1.0" encoding="UTF-8" standalone="no"?>
<svg
   version="1.1"
   width="32"
   height="32"
   id="svg6860"
   sodipodi:docname="software-properties.svg"
   inkscape:version="1.2.2 (b0a8486541, 2022-12-01)"
   xmlns:inkscape="http://www.inkscape.org/namespaces/inkscape"
   xmlns:sodipodi="http://sodipodi.sourceforge.net/DTD/sodipodi-0.dtd"
   xmlns:xlink="http://www.w3.org/1999/xlink"
   xmlns="http://www.w3.org/2000/svg"
   xmlns:svg="http://www.w3.org/2000/svg"
   xmlns:rdf="http://www.w3.org/1999/02/22-rdf-syntax-ns#"
   xmlns:cc="http://creativecommons.org/ns#"
   xmlns:dc="http://purl.org/dc/elements/1.1/">
  <sodipodi:namedview
     id="namedview53"
     pagecolor="#ffffff"
     bordercolor="#666666"
     borderopacity="1.0"
     inkscape:pageshadow="2"
     inkscape:pageopacity="0.0"
     inkscape:pagecheckerboard="0"
     showgrid="false"
     inkscape:zoom="21.3125"
     inkscape:cx="15.061584"
     inkscape:cy="22.099707"
     inkscape:window-width="1317"
     inkscape:window-height="893"
     inkscape:window-x="633"
     inkscape:window-y="120"
     inkscape:window-maximized="0"
     inkscape:current-layer="layer1"
     inkscape:showpageshadow="2"
     inkscape:deskcolor="#d1d1d1" />
  <defs
     id="defs6862">
    <linearGradient
       xlink:href="#linearGradient121303"
       id="linearGradient121764"
       gradientUnits="userSpaceOnUse"
       gradientTransform="matrix(0.68006824,0,0,0.57741648,-0.31214791,4.5822458)"
       x1="25.086039"
       y1="-1.3623691"
       x2="25.086039"
       y2="18.299334" />
    <linearGradient
       id="linearGradient121303">
      <stop
         id="stop121295"
         style="stop-color:#ffffff;stop-opacity:1"
         offset="0" />
      <stop
         id="stop121297"
         style="stop-color:#ffffff;stop-opacity:0.23529412"
         offset="0.11419468" />
      <stop
         id="stop121299"
         style="stop-color:#ffffff;stop-opacity:0.15686275"
         offset="0.93896598" />
      <stop
         id="stop121301"
         style="stop-color:#ffffff;stop-opacity:0.39215687"
         offset="1" />
    </linearGradient>
    <linearGradient
       xlink:href="#linearGradient3924-2-2-5-8"
       id="linearGradient121760"
       gradientUnits="userSpaceOnUse"
       gradientTransform="matrix(0.67567599,0,0,0.56756767,-0.2162231,4.378376)"
       x1="23.99999"
       y1="6.4195485"
       x2="23.99999"
       y2="41.544617" />
    <linearGradient
       id="linearGradient3924-2-2-5-8">
      <stop
         id="stop3926-9-4-9-6"
         style="stop-color:#ffffff;stop-opacity:1"
         offset="0" />
      <stop
         id="stop3928-9-8-6-5"
         style="stop-color:#ffffff;stop-opacity:0.23529412"
         offset="0.07611413" />
      <stop
         id="stop3930-3-5-1-7"
         style="stop-color:#ffffff;stop-opacity:0.15686275"
         offset="0.9069767" />
      <stop
         id="stop3932-8-0-4-8"
         style="stop-color:#ffffff;stop-opacity:0.39215687"
         offset="1" />
    </linearGradient>
    <linearGradient
       xlink:href="#d"
       id="linearGradient121758"
       gradientUnits="userSpaceOnUse"
       gradientTransform="matrix(0.83927807,0,0,0.76888647,-3.730718,-3.10373)"
       x1="23.452"
       y1="30.555"
       x2="43.007"
       y2="45.933998" />
    <linearGradient
       id="d">
      <stop
         offset="0"
         stop-color="#fff"
         stop-opacity="0"
         id="stop65" />
      <stop
         offset="1"
         stop-color="#fff"
         stop-opacity="0"
         id="stop67" />
    </linearGradient>
    <linearGradient
       xlink:href="#linearGradient106305"
       id="linearGradient121756"
       gradientUnits="userSpaceOnUse"
       gradientTransform="matrix(0.8443639,0,0,0.91410403,27.630994,-10.542232)"
       x1="-5.8870335"
       y1="19.239614"
       x2="-5.8870335"
       y2="43.792946" />
    <linearGradient
       id="linearGradient106305">
      <stop
         offset="0"
         stop-color="#dac197"
         id="stop106301"
         style="stop-color:#e7c591;stop-opacity:1" />
      <stop
         offset="1"
         stop-color="#b19974"
         id="stop106303"
         style="stop-color:#cfa25e;stop-opacity:1" />
    </linearGradient>
    <linearGradient
       xlink:href="#linearGradient106305"
       id="linearGradient1703"
       gradientUnits="userSpaceOnUse"
       gradientTransform="matrix(0.8443639,0,0,0.90745565,27.630994,-10.25101)"
       x1="-5.8870335"
       y1="11.482978"
       x2="-5.8870335"
       y2="22.148865" />
    <radialGradient
       cx="5"
       cy="41.5"
       fx="5"
       fy="41.5"
       gradientTransform="matrix(1.0028871,0,0,1.6,-14.229948,-106.87522)"
       gradientUnits="userSpaceOnUse"
       xlink:href="#g"
       id="k-0-7-3-9-3"
       r="5" />
    <linearGradient
       id="g">
      <stop
         offset="0"
         id="stop13" />
      <stop
         offset="1"
         stop-opacity="0"
         id="stop15" />
    </linearGradient>
    <linearGradient
       xlink:href="#h"
       id="linearGradient121754"
       gradientUnits="userSpaceOnUse"
       gradientTransform="matrix(2.1304332,0,0,1.45455,-83.781828,-18.434784)"
       x1="17.554001"
       y1="46"
       x2="17.554001"
       y2="35" />
    <linearGradient
       id="h">
      <stop
         offset="0"
         stop-opacity="0"
         id="stop54" />
      <stop
         offset=".5"
         id="stop56" />
      <stop
         offset="1"
         stop-opacity="0"
         id="stop58" />
    </linearGradient>
    <radialGradient
       cx="5"
       cy="41.5"
       fx="5"
       fy="41.5"
       gradientTransform="matrix(1.0028871,0,0,1.6,53.201858,-106.87522)"
       gradientUnits="userSpaceOnUse"
       xlink:href="#g"
       id="i-6-9-7-8-9"
       r="5" />
    <linearGradient
       y2="8.3470001"
       y1="21.915001"
       x2="24.537001"
       x1="24.537001"
       id="n"
       xlink:href="#g-3"
       gradientUnits="userSpaceOnUse"
       gradientTransform="matrix(0.9899,0,0,0.6901,-7.737,-3.78)" />
    <linearGradient
       id="g-3">
      <stop
         id="stop18"
         stop-color="#fff"
         offset="0" />
      <stop
         id="stop20"
         stop-color="#fff"
         offset="0.35662466" />
      <stop
         id="stop22"
         stop-opacity=".643"
         stop-color="#fff"
         offset="0.46007031" />
      <stop
         id="stop24"
         stop-opacity=".391"
         stop-color="#fff"
         offset="1" />
    </linearGradient>
    <radialGradient
       xlink:href="#g"
       id="radialGradient3868"
       gradientUnits="userSpaceOnUse"
       gradientTransform="matrix(0.84705878,0,0,0.28231047,-41.047056,19.69455)"
       cx="62.625"
       cy="4.625"
       fx="62.625"
       fy="4.625"
       r="10.625" />
    <linearGradient
       inkscape:collect="always"
       xlink:href="#linearGradient914"
       id="linearGradient1003"
       x1="8.8334904"
       y1="2.5936887"
       x2="8.8334904"
       y2="20.305342"
       gradientUnits="userSpaceOnUse"
       gradientTransform="translate(-0.4658154,0.5)" />
    <linearGradient
       inkscape:collect="always"
       id="linearGradient914">
      <stop
         style="stop-color:#8cd5ff;stop-opacity:1"
         offset="0"
         id="stop910" />
      <stop
         style="stop-color:#3689e6;stop-opacity:1"
         offset="1"
         id="stop912" />
    </linearGradient>
    <linearGradient
       xlink:href="#linearGradient4873"
       id="linearGradient5158"
       gradientUnits="userSpaceOnUse"
       gradientTransform="matrix(1.0291008,0,0,1.0290771,-52.010479,15.612921)"
       x1="63.397362"
       y1="-12.742159"
       x2="63.397362"
       y2="-0.62969548" />
    <linearGradient
       id="linearGradient4873">
      <stop
         style="stop-color:#ffffff;stop-opacity:1;"
         offset="0"
         id="stop4875" />
      <stop
         style="stop-color:#ffffff;stop-opacity:0;"
         offset="1"
         id="stop4877" />
    </linearGradient>
  </defs>
  <metadata
     id="metadata6865">
    <rdf:RDF>
      <cc:Work
         rdf:about="">
        <dc:format>image/svg+xml</dc:format>
        <dc:type
           rdf:resource="http://purl.org/dc/dcmitype/StillImage" />
      </cc:Work>
    </rdf:RDF>
  </metadata>
  <g
     id="g2277"
     transform="matrix(0.50847457,0,0,0.5625,33.144155,4.732691)"
     style="stroke-width:1.86984">
    <rect
       fill="url(#i)"
       height="16"
       opacity="0.4"
       transform="scale(-1)"
       width="5"
       x="58.216839"
       y="-48.475216"
       id="rect77-9-90-2-7-8"
       style="fill:url(#i-6-9-7-8-9);stroke-width:1.86984" />
    <rect
       fill="url(#j)"
       height="16"
       opacity="0.4"
       width="49"
       x="-58.216839"
       y="32.475216"
       id="rect79-7-2-0-1-4"
       style="fill:url(#linearGradient121754);stroke-width:1.86984" />
    <rect
       fill="url(#k)"
       height="16"
       opacity="0.4"
       transform="scale(1,-1)"
       width="5"
       x="-9.2168379"
       y="-48.475216"
       id="rect81-3-8-6-7-8"
       style="fill:url(#k-0-7-3-9-3);stroke-width:1.86984" />
  </g>
  <path
     id="rect5505-21-1-5-0-6-5-1-2-5-10"
     style="color:#000000;font-variation-settings:normal;display:inline;overflow:visible;visibility:visible;vector-effect:none;fill:url(#linearGradient1703);fill-opacity:1;fill-rule:nonzero;stroke:none;stroke-width:0.999999;stroke-linecap:butt;stroke-linejoin:miter;stroke-miterlimit:4;stroke-dasharray:none;stroke-dashoffset:0;stroke-opacity:0.3;-inkscape-stroke:none;marker:none;enable-background:accumulate;stop-color:#000000"
     d="m 7.409088,2.499998 c -1.631783,0 -2.282728,0.9634046 -2.945456,2.4545458 C 3.95565,6.0944933 3.364609,7.2739536 2.895025,8.3909079 2.64528,8.8239575 2.499996,9.3258405 2.499996,9.8636354 h 27.000008 c 0,-0.5377949 -0.145285,-1.0396779 -0.39503,-1.4727275 C 28.622661,7.2796103 28.058552,6.0881021 27.536366,4.9545438 26.853561,3.4724877 26.222694,2.499998 24.590911,2.499998 Z" />
  <path
     id="rect5505-21-1-5-0-6-5-1-2-3"
     style="color:#000000;font-variation-settings:normal;display:inline;overflow:visible;visibility:visible;vector-effect:none;fill:url(#linearGradient121756);fill-opacity:1;fill-rule:nonzero;stroke:none;stroke-width:0.999999;stroke-linecap:butt;stroke-linejoin:miter;stroke-miterlimit:4;stroke-dasharray:none;stroke-dashoffset:0;stroke-opacity:0.3;-inkscape-stroke:none;marker:none;enable-background:accumulate;stop-color:#000000"
     d="m 5.455426,6.9999997 c -1.227273,0 -2.945455,1.0775483 -2.945455,3.7087933 v 15.824184 c 0,0.124618 0.01007,0.246631 0.02494,0.367017 0.0034,0.02792 0.0083,0.05539 0.01246,0.08306 0.01482,0.09723 0.03358,0.193045 0.05753,0.286851 0.0061,0.02421 0.01154,0.04847 0.01821,0.07244 0.06723,0.23804 0.161842,0.464468 0.281889,0.67415 3.54e-4,6.43e-4 4.91e-4,0.0013 9.82e-4,0.0019 0.508258,0.886334 1.456214,1.481589 2.549434,1.481589 h 21.109098 c 1.09322,0 2.041176,-0.595255 2.549468,-1.481586 2.75e-4,-6.43e-4 4.91e-4,-0.0013 9.82e-4,-0.0019 0.120047,-0.209682 0.21465,-0.43611 0.28189,-0.67415 0.0067,-0.02395 0.01213,-0.04823 0.01821,-0.07244 0.02396,-0.0938 0.04271,-0.189622 0.05753,-0.286851 0.0039,-0.02767 0.0091,-0.05514 0.01246,-0.08306 0.01488,-0.120389 0.02489,-0.242402 0.02489,-0.36702 V 10.956045 c 0,-1.8522532 -0.736365,-3.9560453 -2.945456,-3.9560453 z" />
  <path
     d="m 6.754122,6.5941804 h 18.099824 c 1.056927,0 1.710818,0.3642546 2.153619,1.3657092 l 1.524273,4.2021824 v 15.148966 c 0,0.9558 -0.536073,1.437382 -1.59251,1.437382 H 4.859212 c -1.056437,0 -1.487455,-0.529691 -1.487455,-1.485491 V 12.16109 L 4.84694,7.8690715 C 5.141485,7.093435 5.697685,6.5936894 6.754122,6.5936894 Z"
     display="block"
     fill="none"
     opacity="0.505"
     overflow="visible"
     stroke="url(#m)"
     stroke-width="0.741999"
     style="stroke:url(#linearGradient121758);marker:none"
     id="path85-1-8-5-7-0" />
  <rect
     style="opacity:0.3;fill:none;stroke:url(#linearGradient121760);stroke-width:0.999993;stroke-linecap:round;stroke-linejoin:round;stroke-miterlimit:4;stroke-dasharray:none;stroke-dashoffset:0;stroke-opacity:1"
     id="rect6741-5-0-2-3-4-2-4"
     y="7.4999967"
     x="3.4999945"
     ry="2"
     height="21.000006"
     width="25"
     rx="2" />
  <path
     id="rect5505-21-1-5-0-6-5-1-2-5-1-4"
     style="color:#000000;font-variation-settings:normal;display:inline;overflow:visible;visibility:visible;vector-effect:none;fill:none;fill-opacity:1;fill-rule:nonzero;stroke:#804b00;stroke-width:0.999999;stroke-linecap:butt;stroke-linejoin:miter;stroke-miterlimit:4;stroke-dasharray:none;stroke-dashoffset:0;stroke-opacity:0.5;-inkscape-stroke:none;marker:none;enable-background:accumulate;stop-color:#000000"
     d="m 7.409088,2.499998 c -1.631783,0 -2.282728,0.9634046 -2.945456,2.4545458 C 3.95565,6.0944933 3.364609,7.2739536 2.895025,8.3909079 2.64528,8.8239575 2.499996,9.3258405 2.499996,9.8636354 V 26.554547 c 0,1.631782 1.313673,2.945455 2.945455,2.945455 h 21.109098 c 1.631782,0 2.945455,-1.313673 2.945455,-2.945455 V 9.8636354 c 0,-0.5377949 -0.145285,-1.0396779 -0.39503,-1.4727275 C 28.622661,7.2796103 28.058552,6.0881021 27.536366,4.9545438 26.853561,3.4724877 26.222694,2.499998 24.590911,2.499998 Z" />
  <path
     id="rect5505-21-1-5-0-6-5-1-2-5-1-7-7"
     style="color:#000000;font-variation-settings:normal;display:inline;overflow:visible;visibility:visible;opacity:0.15;vector-effect:none;fill:none;fill-opacity:1;fill-rule:nonzero;stroke:url(#linearGradient121764);stroke-width:0.999985;stroke-linecap:round;stroke-linejoin:round;stroke-miterlimit:4;stroke-dasharray:none;stroke-dashoffset:0;stroke-opacity:1;-inkscape-stroke:none;marker:none;enable-background:accumulate;stop-color:#000000"
     d="M 27.939447,8.24764 26.713012,5.5891427 C 26.389792,4.8875574 26.095663,4.2796771 25.745409,3.9440426 25.395152,3.608408 25.000475,3.4999945 24.308599,3.4999945 H 7.6918375 c -0.6927864,0 -1.1115917,0.1147024 -1.4630502,0.4487205 C 5.8773288,4.2827333 5.6023931,4.8801917 5.2901985,5.5826531 v 9.495e-4 L 4.0510426,8.24764" />
  <path
     id="path87"
     style="overflow:visible;opacity:0.3;fill:url(#n);marker:none"
     overflow="visible"
     d="m 14.37,2 h 3.3 L 18,8.331 v 3.071 c -0.39,0 -0.78,-0.532 -1.17,-0.532 -0.398,0 -0.797,0.532 -1.196,0.532 -0.322,0 -0.643,-0.466 -0.964,-0.466 -0.21,0 -0.42,0.466 -0.63,0.466 0,0 -0.09,-1.325 0,-3.07 z" />
  <g
     id="layer1"
     transform="translate(8.9999991,8.0000005)">
    <path
       d="m 21,21.000238 a 9,2.9995529 0 1 1 -17.9999998,0 9,2.9995529 0 1 1 17.9999998,0 z"
       id="path2774"
       style="display:inline;overflow:visible;visibility:visible;opacity:0.56044;fill:url(#radialGradient3868);fill-opacity:1;fill-rule:evenodd;stroke:none;stroke-width:1;stroke-linecap:butt;stroke-linejoin:round;stroke-miterlimit:4;stroke-dasharray:none;stroke-dashoffset:0;stroke-opacity:1;marker:none;marker-start:none;marker-mid:none;marker-end:none" />
    <path
       style="fill:url(#linearGradient1003);fill-opacity:1;stroke:#002e99;stroke-width:0.999949;stroke-linecap:round;stroke-linejoin:round;stroke-miterlimit:4;stroke-dasharray:none;stroke-dashoffset:0;stroke-opacity:0.501961"
       d="m 11.992147,1.999974 c -5.5190686,0 -9.9921716,4.473101 -9.9921716,9.992171 0,5.519069 4.473103,10.007882 9.9921716,10.007881 5.519068,0 10.007888,-4.488812 10.007878,-10.007881 0,-5.51907 -4.48881,-9.992171 -10.007878,-9.992171 z"
       id="path2555" />
    <path
       id="path6566"
       style="opacity:0.5;fill:#0e141f;fill-opacity:1;fill-rule:nonzero;stroke:none;stroke-width:1;stroke-miterlimit:4;stroke-dasharray:none"
       d="M 8.6056558,14.191772 8.3252702,13.636644 7.8000054,13.517842 7.519861,12.765097 6.8195726,12.844153 6.224404,12.4085 5.5937297,12.963195 v 0.08749 C 5.4029521,12.995617 5.1684308,12.988102 4.9985616,12.883657 l -0.140193,-0.396149 v -0.436134 l -0.4201439,0.0395 c 0.035072,-0.277588 0.069855,-0.554695 0.1051684,-0.832235 H 4.2980318 l -0.2448794,0.317096 -0.2453613,0.11856 -0.3502889,-0.197617 -0.035072,-0.436134 0.070096,-0.475639 0.5255057,-0.396149 H 4.4381765 L 4.5080316,9.9507194 5.0332964,10.06928 5.4186093,10.5454 5.4887056,9.752187 6.1541634,9.1974919 6.3992838,8.6028113 6.889524,8.4047607 7.1696684,8.0086118 7.799861,7.8891358 8.1153188,7.4139787 c -0.3152166,0 -0.6304338,0 -0.9456504,0 L 7.7650294,7.1363906 H 8.1849333 L 8.780535,6.9378582 8.8506312,6.7007374 8.6403424,6.5022056 8.3952221,6.4227156 8.4653183,6.185113 8.2902942,5.8285162 7.8699092,5.9865807 7.9400054,5.6697293 7.4497647,5.3921406 7.064693,6.0655889 7.099524,6.3036251 6.7144523,6.4626531 6.4690908,6.9777962 6.3641629,6.5021574 5.6987056,6.2245688 5.5935372,5.8679724 6.4690908,5.3523475 6.8544037,4.9957506 6.8894758,4.5598571 6.6794282,4.4408151 6.3992838,4.4010701 6.2242597,4.8372044 c 0,0 -0.292863,0.057378 -0.3681623,0.075973 -0.9616445,0.8861438 -2.9046858,2.7990573 -3.3560965,6.4103576 0.017873,0.08373 0.3272126,0.569244 0.3272126,0.569244 l 0.7353609,0.435653 0.7353611,0.198532 0.3154576,0.396583 0.4899996,0.356596 0.2801444,-0.0395 0.2100482,0.09457 v 0.06398 l -0.2799519,0.752987 -0.2102888,0.317092 0.070096,0.159028 -0.1750241,0.593718 0.6304338,1.149809 0.6301921,0.555129 0.2803856,0.396149 -0.035265,0.832717 0.2102893,0.475157 -0.2102893,0.911774 c 0,0 -0.016476,-0.0056 0.010358,0.08561 0.027075,0.09129 1.1220711,0.699126 1.1916856,0.647386 0.069374,-0.05271 0.1286786,-0.09881 0.1286786,-0.09881 l -0.069856,-0.197617 0.279952,-0.277588 0.1051684,-0.277589 0.4554097,-0.159028 0.3500477,-0.872221 -0.1049273,-0.237121 0.244638,-0.356597 0.5255062,-0.119475 0.280385,-0.634185 -0.070096,-0.79225 0.4201451,-0.594681 0.0701,-0.594681 C 9.7464191,14.778793 9.1762058,14.485211 8.6055595,14.191676 M 13.177488,3.0004825 12.155266,2.5999995 10.976731,2.7333316 9.5220664,3.1335442 9.246965,3.4006951 10.15094,4.023236 V 4.3791127 L 9.7971681,4.7349894 10.269188,5.6698272 10.582841,5.4913481 10.976731,4.8688078 C 11.583922,4.6810834 12.12834,4.4683251 12.705469,4.2013906 l 0.47202,-1.2009622 m 8.204798,7.5380266 c 0,0.130409 0,0 0,0 l -0.2705,0.306389 c -0.165806,-0.19539 -0.351964,-0.359704 -0.541002,-0.531316 l -0.41496,0.06106 -0.379118,-0.4285585 v 0.5303735 l 0.324809,0.245776 0.216193,0.244834 0.288918,-0.326743 c 0.07272,0.136218 0.144459,0.272435 0.216688,0.408652 v 0.408205 l -0.325306,0.367448 -0.59531,0.408652 -0.450852,0.449904 -0.288918,-0.327736 0.144459,-0.367448 -0.288471,-0.326743 -0.487189,-1.041336 -0.41496,-0.469264 -0.108618,0.122168 0.162877,0.592426 0.306392,0.347095 c 0.174989,0.505155 0.348092,0.987972 0.577886,1.470838 0.356331,0 0.692262,-0.03783 1.046161,-0.08241 v 0.286037 l -0.43293,1.061938 -0.397039,0.448911 -0.32481,0.695183 c 0,0.381051 0,0.762102 0,1.143103 l 0.108618,0.449904 -0.18035,0.203631 -0.397536,0.24528 -0.41496,0.347095 0.343227,0.387852 -0.469269,0.409148 0.09015,0.26469 -0.703928,0.797 h -0.468772 l -0.397039,0.24528 h -0.253076 v -0.326742 l -0.107624,-0.654478 c -0.139644,-0.410141 -0.285046,-0.817353 -0.432931,-1.224565 0,-0.300581 0.01792,-0.598233 0.03589,-0.898765 l 0.180848,-0.408205 -0.253077,-0.49061 0.01842,-0.673838 -0.343227,-0.387852 0.171613,-0.561399 -0.279238,-0.316814 H 14.70674 l -0.16238,-0.183724 -0.487189,0.306637 -0.198271,-0.225176 -0.451348,0.388051 c -0.306392,-0.347344 -0.613281,-0.69444 -0.92012,-1.041535 l -0.360701,-0.858059 0.32481,-0.489617 -0.180351,-0.204078 0.396543,-0.940018 c 0.325801,-0.4052755 0.6661,-0.7940706 1.010318,-1.1843049 l 0.613728,-0.1633713 0.685511,-0.081462 0.469269,0.122665 0.66754,0.6733417 0.234658,-0.2651865 0.324313,-0.040706 0.613728,0.2040776 h 0.469269 L 18.080876,9.3740065 18.225335,9.1699289 17.900028,8.9658513 17.35853,8.925145 C 17.208263,8.7166992 17.068621,8.4975798 16.890205,8.3123666 l -0.180847,0.081462 -0.07223,0.5313166 -0.324809,-0.3674489 -0.07173,-0.4091479 -0.3607,-0.2850431 H 15.734934 L 16.09608,8.2717097 15.951622,8.6391586 15.663151,8.7206206 15.8435,8.3531717 15.518195,8.1902967 15.23022,7.8635546 14.688226,7.9857228 14.616495,8.1485977 14.291686,8.3531717 14.111335,8.8025793 13.660484,9.0270097 13.461717,8.8025793 h -0.216199 v -0.735394 l 0.469269,-0.2452802 h 0.360701 L 14.002762,7.5363656 13.714787,7.2503293 14.201529,7.1480172 14.472031,6.8421244 14.688223,6.4741791 h 0.397535 L 14.97714,6.1886397 15.230216,6.0252684 V 6.3520105 L 15.771219,6.4741791 16.31222,6.0252684 16.34856,5.8206945 16.817332,5.4942 c -0.169677,0.021098 -0.339355,0.036586 -0.50516,0.081711 V 5.2080151 l 0.18035,-0.4084532 h -0.18035 L 15.915827,5.1670108 15.807209,5.3713366 15.915827,5.6576211 15.73498,6.1472381 15.446509,5.9838668 15.194425,5.6983274 14.79689,5.9838668 14.65243,5.3306303 15.337941,4.8814709 V 4.6361904 l 0.433377,-0.2857879 0.68551,-0.1636195 0.469268,0.1636195 0.865812,0.1633713 -0.216193,0.2448337 h -0.469268 l 0.469268,0.4901139 0.360701,-0.408205 0.109561,-0.1796044 c 0,0 1.38358,1.2400532 2.174283,2.5965159 0.790702,1.35691 1.162026,2.9562211 1.162027,3.2810271 z" />
    <path
       style="opacity:0.4;fill:none;fill-opacity:1;fill-rule:nonzero;stroke:url(#linearGradient5158);stroke-width:0.999998;stroke-miterlimit:4;stroke-dasharray:none;stroke-opacity:1"
       d="M 21,11.99968 C 21,16.970403 16.970267,21 12.000112,21 7.0295055,21 2.9999999,16.970358 2.9999999,11.99968 c 0,-4.9704937 4.0295056,-8.9996815 9.0001121,-8.9996815 C 16.970267,2.9999985 21,7.0291863 21,11.99968 Z"
       id="path8655" />
  </g>
</svg>
