<?xml version="1.0" encoding="UTF-8" standalone="no"?>
<svg
   version="1.0"
   width="32"
   height="32"
   id="svg3333"
   sodipodi:docname="system-upgrade.svg"
   inkscape:version="1.2.2 (b0a8486541, 2022-12-01)"
   xmlns:inkscape="http://www.inkscape.org/namespaces/inkscape"
   xmlns:sodipodi="http://sodipodi.sourceforge.net/DTD/sodipodi-0.dtd"
   xmlns:xlink="http://www.w3.org/1999/xlink"
   xmlns="http://www.w3.org/2000/svg"
   xmlns:svg="http://www.w3.org/2000/svg"
   xmlns:rdf="http://www.w3.org/1999/02/22-rdf-syntax-ns#"
   xmlns:cc="http://creativecommons.org/ns#"
   xmlns:dc="http://purl.org/dc/elements/1.1/">
  <sodipodi:namedview
     id="namedview64915"
     pagecolor="#ffffff"
     bordercolor="#666666"
     borderopacity="1.0"
     inkscape:showpageshadow="2"
     inkscape:pageopacity="0.0"
     inkscape:pagecheckerboard="0"
     inkscape:deskcolor="#d1d1d1"
     showgrid="false"
     inkscape:zoom="45.254834"
     inkscape:cx="25.754155"
     inkscape:cy="23.080407"
     inkscape:window-width="1326"
     inkscape:window-height="814"
     inkscape:window-x="999"
     inkscape:window-y="250"
     inkscape:window-maximized="0"
     inkscape:current-layer="layer1" />
  <metadata
     id="metadata55879">
    <rdf:RDF>
      <cc:Work
         rdf:about="">
        <dc:format>image/svg+xml</dc:format>
        <dc:type
           rdf:resource="http://purl.org/dc/dcmitype/StillImage" />
      </cc:Work>
    </rdf:RDF>
  </metadata>
  <defs
     id="defs3335">
    <linearGradient
       id="linearGradient5128">
      <stop
         id="stop5130"
         style="stop-color:#ffffff;stop-opacity:1"
         offset="0" />
      <stop
         id="stop5132"
         style="stop-color:#959595;stop-opacity:1"
         offset="1" />
    </linearGradient>
    <linearGradient
       x1="63.9995"
       y1="3.1001"
       x2="63.9995"
       y2="122.8994"
       id="linearGradient3309"
       gradientUnits="userSpaceOnUse">
      <stop
         id="stop3311"
         style="stop-color:#f6f6f6;stop-opacity:1"
         offset="0" />
      <stop
         id="stop3313"
         style="stop-color:#d2d2d2;stop-opacity:1"
         offset="1" />
    </linearGradient>
    <linearGradient
       x1="32.036148"
       y1="19"
       x2="32.036148"
       y2="47.012184"
       id="linearGradient3326"
       xlink:href="#linearGradient3309"
       gradientUnits="userSpaceOnUse"
       gradientTransform="translate(-14.999999,-17)" />
    <linearGradient
       id="linearGradient10691">
      <stop
         id="stop10693"
         style="stop-color:#000000;stop-opacity:1"
         offset="0" />
      <stop
         id="stop10695"
         style="stop-color:#000000;stop-opacity:0"
         offset="1" />
    </linearGradient>
    <linearGradient
       id="linearGradient5432">
      <stop
         id="stop5434"
         style="stop-color:#a62100;stop-opacity:0.5;"
         offset="0" />
      <stop
         id="stop5436"
         style="stop-color:#ce5c00;stop-opacity:0"
         offset="1" />
    </linearGradient>
    <linearGradient
       x1="22.760281"
       y1="31.598818"
       x2="22.760281"
       y2="42.241817"
       id="linearGradient2548"
       xlink:href="#linearGradient5432"
       gradientUnits="userSpaceOnUse"
       gradientTransform="matrix(0.754477,0,0,0.7959389,6.827896,-2.1219053)" />
    <linearGradient
       id="linearGradient2442">
      <stop
         id="stop2444"
         style="stop-color:#fcaf3e;stop-opacity:1"
         offset="0" />
      <stop
         id="stop2446"
         style="stop-color:#f57900;stop-opacity:0"
         offset="1" />
    </linearGradient>
    <linearGradient
       x1="28.104145"
       y1="23.890959"
       x2="49.242634"
       y2="23.890959"
       id="linearGradient2546"
       xlink:href="#linearGradient2442"
       gradientUnits="userSpaceOnUse"
       gradientTransform="matrix(0,0.4007466,-0.379871,0,33.075486,11.766183)" />
    <linearGradient
       id="linearGradient4222">
      <stop
         id="stop4224"
         style="stop-color:#ffffff;stop-opacity:1"
         offset="0" />
      <stop
         id="stop4226"
         style="stop-color:#ffffff;stop-opacity:0"
         offset="1" />
    </linearGradient>
    <linearGradient
       x1="22.760281"
       y1="29.13673"
       x2="22.760281"
       y2="42.241817"
       id="linearGradient3331"
       xlink:href="#linearGradient4222"
       gradientUnits="userSpaceOnUse"
       gradientTransform="matrix(0.754477,0,0,0.7959389,6.8278957,-2.1219053)" />
    <linearGradient
       xlink:href="#linearGradient4222"
       id="linearGradient3698"
       x1="16.116789"
       y1="21.119221"
       x2="16.116789"
       y2="10.997566"
       gradientUnits="userSpaceOnUse"
       gradientTransform="matrix(0.98798073,0,0,0.98798073,0.07692353,0.134617)" />
    <linearGradient
       xlink:href="#linearGradient4222"
       id="linearGradient3688"
       gradientUnits="userSpaceOnUse"
       x1="15.321168"
       y1="3"
       x2="15.321168"
       y2="29.045145" />
    <linearGradient
       xlink:href="#linearGradient5128"
       id="linearGradient2836"
       gradientUnits="userSpaceOnUse"
       gradientTransform="matrix(0.20430229,0,0,0.20430239,2.9246469,3.12895)"
       x1="86.132919"
       y1="105.105"
       x2="84.63858"
       y2="20.895" />
    <linearGradient
       inkscape:collect="always"
       xlink:href="#linearGradient6417"
       id="linearGradient6419"
       x1="16.015627"
       y1="2.5"
       x2="16.015627"
       y2="29.5"
       gradientUnits="userSpaceOnUse" />
    <linearGradient
       inkscape:collect="always"
       id="linearGradient6417">
      <stop
         style="stop-color:#000000;stop-opacity:0.30000001;"
         offset="0"
         id="stop6413" />
      <stop
         style="stop-color:#000000;stop-opacity:0.34;"
         offset="1"
         id="stop6415" />
    </linearGradient>
    <radialGradient
       r="7.228416"
       fy="73.615715"
       fx="6.702713"
       cy="73.615715"
       cx="6.702713"
       gradientTransform="matrix(1.9368007,0,0,0.4842001,3.0181815,-8.144736)"
       gradientUnits="userSpaceOnUse"
       id="radialGradient3751"
       xlink:href="#linearGradient10691" />
  </defs>
  <g
     id="layer1">
    <path
       style="display:inline;overflow:visible;visibility:visible;opacity:0.2;fill:url(#radialGradient3751);fill-opacity:1;fill-rule:nonzero;stroke:none;stroke-width:0.8;marker:none"
       id="path10689"
       d="M 30.000001,27.5 C 30.000001,29.432997 23.731986,31 16,31 8.2680131,31 2,29.432997 2,27.5 2,25.567004 8.2680131,24 16,24 c 7.731986,0 14.000001,1.567004 14.000001,3.5 z" />
    <path
       style="display:block;overflow:visible;visibility:visible;fill:url(#linearGradient3326);fill-opacity:1;fill-rule:nonzero;stroke:url(#linearGradient6419);stroke-width:1;stroke-linecap:butt;stroke-linejoin:round;stroke-miterlimit:4;stroke-dasharray:none;stroke-dashoffset:0;stroke-opacity:0.999903;marker:none;enable-background:accumulate"
       id="rect2576"
       d="m 13.875002,2.5 c -0.748739,0 -1.375,0.595012 -1.375,1.34375 v 1.75 c -0.473402,0.158876 -0.932751,0.343406 -1.375,0.5625 L 9.9062508,4.9375 c -0.529439,-0.529438 -1.3768121,-0.529438 -1.9062501,0 l -3.0625,3.03125 c -0.529439,0.529438 -0.5294361,1.376813 0,1.9062496 l 1.21875,1.2187504 c -0.224327,0.449932 -0.400632,0.923932 -0.5625,1.40625 h -1.71875 c -0.748739,0 -1.375002,0.595012 -1.375,1.34375 v 4.3125 c -1e-6,0.748738 0.626264,1.343752 1.375,1.34375 h 1.71875 c 0.161868,0.482318 0.338173,0.956318 0.5625,1.40625 l -1.21875,1.21875 c -0.529439,0.529438 -0.52944,1.376812 0,1.90625 l 3.0625,3.03125 c 0.529437,0.529438 1.3768131,0.529436 1.9062501,0 l 1.2187512,-1.21875 c 0.442249,0.219094 0.901598,0.403624 1.375,0.5625 v 1.75 c -1e-6,0.748738 0.626266,1.343752 1.375,1.34375 h 4.28125 c 0.748739,0 1.34375,-0.595014 1.34375,-1.34375 v -1.75 c 0.482318,-0.161868 0.956318,-0.338173 1.40625,-0.5625 l 1.218749,1.21875 c 0.529439,0.529438 1.376811,0.529438 1.90625,0 l 3.0625,-3.03125 c 0.529439,-0.529438 0.529434,-1.376814 0,-1.90625 l -1.25,-1.25 c 0.219094,-0.442249 0.403624,-0.901598 0.5625,-1.375 h 1.75 c 0.748739,0 1.34375,-0.595014 1.34375,-1.34375 v -4.3125 C 29.500002,13.095012 28.904985,12.5 28.156251,12.5 h -1.75 c -0.158876,-0.473402 -0.343406,-0.932751 -0.5625,-1.375 l 1.25,-1.2500004 c 0.529439,-0.5294376 0.529438,-1.3768116 0,-1.9062496 l -3.0625,-3.03125 c -0.529437,-0.529438 -1.376814,-0.529438 -1.90625,0 L 20.906252,6.15625 C 20.45632,5.931923 19.98232,5.755618 19.500002,5.59375 v -1.75 C 19.500003,3.095012 18.904986,2.5 18.156252,2.5 Z m 2.125,10 c 1.932,0 3.5,1.568 3.5,3.5 0,1.932 -1.568,3.5 -3.5,3.5 -1.932001,0 -3.5,-1.568 -3.5,-3.5 -1e-6,-1.932 1.568,-3.5 3.5,-3.5 z" />
    <path
       style="opacity:0.05;fill:#000000;fill-opacity:1;stroke:none"
       d="m 16.000001,8 c -4.411273,0 -8.0000007,3.588727 -8.0000007,8 0,4.411274 3.5887277,8 8.0000007,8 4.411273,0 8,-3.588726 8,-8 0,-4.411273 -3.588727,-8 -8,-8 z m 0,5 c 1.656854,0 3,1.343146 3,3 0,1.656854 -1.343146,3 -3,3 -1.656854,0 -3,-1.343146 -3,-3 0,-1.656854 1.343146,-3 3,-3 z"
       id="path3315" />
    <path
       style="fill:none;stroke:url(#linearGradient2836);stroke-width:1;stroke-miterlimit:4;stroke-dasharray:none"
       id="path28"
       d="M 16,7.5 C 11.313098,7.5 7.5000004,11.313099 7.5000004,15.999999 7.5000002,20.6869 11.313098,24.5 16,24.5 c 4.686903,0 8.500001,-3.8131 8.500001,-8.500001 C 24.500001,11.313099 20.686903,7.5 16,7.5 Z" />
    <path
       style="display:block;overflow:visible;visibility:visible;opacity:0.8;fill:none;stroke:url(#linearGradient3688);stroke-width:1;stroke-linecap:butt;stroke-linejoin:round;stroke-miterlimit:4;stroke-dasharray:none;stroke-dashoffset:0;stroke-opacity:1;marker:none;enable-background:accumulate"
       d="m 13.875001,3.5 c -0.639758,0.139596 -0.281426,0.969754 -0.375,1.446837 0.04636,0.59677 0.0119,1.38713 -0.6875,1.584413 -0.765238,0.160626 -1.646003,1.018213 -2.375,0.3125 C 9.9318968,6.417508 9.5498278,5.784883 8.9531249,5.508789 8.4124173,5.783988 8.021896,6.384683 7.5376488,6.794368 6.8835788,7.472372 6.1607384,8.095616 5.5502086,8.808289 5.5121356,9.346975 6.165901,9.616863 6.4570003,10.0195 c 0.5007373,0.379751 0.9173046,1.057877 0.5037794,1.658859 -0.339832,0.659737 -0.3885068,1.81868 -1.3670293,1.821641 -0.6582277,0.0529 -1.36834,-0.113773 -1.989806,0.09868 -0.2222261,0.620609 -0.049167,1.345745 -0.1039439,2.01001 0.017783,0.893676 -0.035837,1.794436 0.027261,2.683617 0.3771148,0.391003 1.0238323,0.133059 1.5243644,0.207694 0.6387783,-0.09371 1.4231566,0.122058 1.5377348,0.85939 0.1751984,0.712662 0.9292423,1.558244 0.2543895,2.23436 -0.4203558,0.500498 -1.0498435,0.87899 -1.3216908,1.467284 0.2852627,0.600214 0.9223984,0.985095 1.3573244,1.49305 0.644873,0.63134 1.2973181,1.296541 1.9347017,1.908072 0.5512981,0.04116 0.8274483,-0.620606 1.2366655,-0.919156 0.380101,-0.501806 1.060094,-0.917737 1.661198,-0.502471 0.649426,0.341936 1.787769,0.400533 1.788052,1.365721 0.05574,0.659036 -0.119745,1.379822 0.103948,1.995071 0.710824,0.211082 1.509181,0.0466 2.256608,0.09868 0.813909,-0.01488 1.632306,0.02982 2.443405,-0.02238 0.37768,-0.362795 0.119997,-1.008529 0.196039,-1.497998 -0.0551,-0.577962 0.02332,-1.324829 0.6875,-1.510874 0.777573,-0.148764 1.668777,-1.021335 2.40625,-0.3125 0.505604,0.426242 0.887673,1.058866 1.484375,1.334961 0.540708,-0.275199 0.931229,-0.875894 1.415477,-1.285579 0.654069,-0.678004 1.37691,-1.301247 1.987439,-2.013921 0.03807,-0.538686 -0.615692,-0.808574 -0.906791,-1.211211 -0.506655,-0.389766 -0.962574,-1.072006 -0.533721,-1.692448 0.341936,-0.649426 0.400533,-1.787769 1.365721,-1.788052 0.664013,-0.04719 1.374293,0.101475 2.00543,-0.08832 0.191498,-0.733903 0.03991,-1.547672 0.08832,-2.314525 -0.01434,-0.799853 0.02907,-1.604056 -0.02238,-2.401113 -0.362794,-0.377684 -1.008528,-0.12 -1.497997,-0.196042 -0.642943,0.08985 -1.445587,-0.10069 -1.566443,-0.850505 C 25.224828,11.947079 24.484985,11.107528 25.156251,10.4375 25.592168,9.9753075 26.085714,9.560517 26.485869,9.06891 26.511639,8.525789 25.866356,8.2609 25.569995,7.859777 24.786232,7.090297 23.993246,6.287601 23.217165,5.537844 22.665867,5.496674 22.389717,6.15845 21.980501,6.457 21.60075,6.957737 20.922624,7.374304 20.321642,6.960779 19.661905,6.620947 18.502962,6.572272 18.500001,5.59375 18.452811,4.929737 18.601478,4.219457 18.411681,3.588322 17.67778,3.396819 16.86401,3.548412 16.097158,3.500002 c -0.740718,0 -1.481437,0 -2.222155,0 z"
       id="path2901" />
    <path
       style="color:#000000;display:inline;overflow:visible;visibility:visible;opacity:0.4;fill:none;stroke:url(#linearGradient3698);stroke-width:1;stroke-linecap:butt;stroke-linejoin:miter;stroke-miterlimit:4;stroke-dasharray:none;stroke-dashoffset:0;stroke-opacity:1;marker:none;enable-background:accumulate"
       id="path3690"
       d="M 20.500001,16 A 4.5000005,4.5000005 0 1 1 11.5,16 a 4.5000005,4.5000005 0 1 1 9.000001,0 z" />
    <path
       d="M 31.500001,21.5 24,12.5 l -7.5,9 h 4 v 10 h 7 v -10 z"
       id="path2426"
       style="display:inline;overflow:visible;visibility:visible;fill:url(#linearGradient2546);fill-opacity:1;fill-rule:nonzero;stroke:url(#linearGradient2548);stroke-width:1;stroke-linecap:round;stroke-linejoin:round;stroke-miterlimit:4;stroke-dasharray:none;stroke-dashoffset:0;stroke-opacity:1;marker:none;marker-start:none;marker-mid:none;marker-end:none"
       sodipodi:nodetypes="cccccccc" />
    <path
       d="M 24,14.06 18.635,20.5 H 20.5 c 0.550992,0.0031 0.996892,0.449008 1,1 v 9 h 5 v -9 c 0.0031,-0.550992 0.449008,-0.996892 1,-1 h 1.865 z"
       id="path3329"
       style="display:inline;overflow:visible;visibility:visible;opacity:0.4;fill:none;fill-opacity:1;fill-rule:nonzero;stroke:url(#linearGradient3331);stroke-width:1;stroke-linecap:round;stroke-linejoin:miter;stroke-miterlimit:4;stroke-dasharray:none;stroke-dashoffset:0;stroke-opacity:1;marker:none;marker-start:none;marker-mid:none;marker-end:none"
       sodipodi:nodetypes="cccccccccc" />
  </g>
</svg>
