<?xml version="1.0" encoding="UTF-8" standalone="no"?>
<svg
   xmlns:dc="http://purl.org/dc/elements/1.1/"
   xmlns:cc="http://creativecommons.org/ns#"
   xmlns:rdf="http://www.w3.org/1999/02/22-rdf-syntax-ns#"
   xmlns:svg="http://www.w3.org/2000/svg"
   xmlns="http://www.w3.org/2000/svg"
   xmlns:xlink="http://www.w3.org/1999/xlink"
   version="1.0"
   width="32"
   height="32"
   id="svg5254">
  <metadata
     id="metadata100305">
    <rdf:RDF>
      <cc:Work
         rdf:about="">
        <dc:format>image/svg+xml</dc:format>
        <dc:type
           rdf:resource="http://purl.org/dc/dcmitype/StillImage" />
        <dc:title />
      </cc:Work>
    </rdf:RDF>
  </metadata>
  <defs
     id="defs5256">
    <linearGradient
       id="linearGradient8838-561-565-604-255-272">
      <stop
         id="stop4140"
         style="stop-color:#121212;stop-opacity:1"
         offset="0" />
      <stop
         id="stop4142"
         style="stop-color:#121212;stop-opacity:0"
         offset="1" />
    </linearGradient>
    <radialGradient
       cx="62.625"
       cy="4.625"
       r="10.625"
       fx="62.625"
       fy="4.625"
       id="radialGradient2902-873-655-58"
       xlink:href="#linearGradient8838-561-565-604-255-272"
       gradientUnits="userSpaceOnUse"
       gradientTransform="matrix(1.3951239,0,0,0.49586606,-71.368174,24.438034)" />
    <linearGradient
       id="linearGradient3707-319-631-477-589-201-606">
      <stop
         id="stop4156"
         style="stop-color:#898989;stop-opacity:1"
         offset="0" />
      <stop
         id="stop4158"
         style="stop-color:#aaaaaa;stop-opacity:1"
         offset="0.5" />
      <stop
         id="stop4160"
         style="stop-color:#d2d2d2;stop-opacity:1"
         offset="1" />
    </linearGradient>
    <linearGradient
       x1="18.138792"
       y1="45.21809"
       x2="18.138792"
       y2="2.9999995"
       id="linearGradient2899-145-663-74-244"
       xlink:href="#linearGradient3707-319-631-477-589-201-606"
       gradientUnits="userSpaceOnUse"
       gradientTransform="matrix(0.64448654,0,0,0.65857297,0.53234157,0.19441175)" />
    <linearGradient
       id="linearGradient2867-449-88-871-390-598-476-591-434-148-905-902-285-933">
      <stop
         id="stop4146"
         style="stop-color:#ffffff;stop-opacity:1"
         offset="0" />
      <stop
         id="stop4148"
         style="stop-color:#ffffff;stop-opacity:1"
         offset="0.26238" />
      <stop
         id="stop4150"
         style="stop-color:#cfd3d6;stop-opacity:1"
         offset="0.704952" />
      <stop
         id="stop4152"
         style="stop-color:#919dab;stop-opacity:1"
         offset="1" />
    </linearGradient>
    <radialGradient
       cx="20.248743"
       cy="4.9115634"
       r="23"
       fx="20.248743"
       fy="4.9115634"
       id="radialGradient2897-479-547-107-90"
       xlink:href="#linearGradient2867-449-88-871-390-598-476-591-434-148-905-902-285-933"
       gradientUnits="userSpaceOnUse"
       gradientTransform="matrix(0,1.1659136,-0.95912177,0,19.974251,-21.445665)" />
    <linearGradient
       id="linearGradient3725-941-985-508-595-572-135-693">
      <stop
         id="stop4418"
         style="stop-color:#ffffff;stop-opacity:1"
         offset="0" />
      <stop
         id="stop4420"
         style="stop-color:#ededed;stop-opacity:0"
         offset="1" />
    </linearGradient>
    <radialGradient
       cx="90.746872"
       cy="32.164093"
       r="23"
       fx="90.746872"
       fy="32.164093"
       id="radialGradient2889-180-16-11-858-197"
       xlink:href="#linearGradient3725-941-985-508-595-572-135-693"
       gradientUnits="userSpaceOnUse"
       gradientTransform="matrix(0.210938,-0.14969743,0.07773912,0.11438267,-15.462261,35.694079)" />
    <linearGradient
       id="linearGradient5108">
      <stop
         id="stop5110"
         style="stop-color:#ffed8c;stop-opacity:1"
         offset="0" />
      <stop
         id="stop5112"
         style="stop-color:#fb9858;stop-opacity:1"
         offset="0.60000002" />
      <stop
         id="stop5114"
         style="stop-color:#dc572a;stop-opacity:1"
         offset="1" />
    </linearGradient>
    <radialGradient
       cx="23.187857"
       cy="10.205709"
       r="11.171996"
       fx="23.187857"
       fy="10.205709"
       id="radialGradient5106"
       xlink:href="#linearGradient5108"
       gradientUnits="userSpaceOnUse"
       gradientTransform="matrix(4.8012723e-8,1.83708,-1.5485882,4.2261446e-8,31.849295,-39.951416)" />
    <linearGradient
       xlink:href="#linearGradient4593"
       id="linearGradient2475"
       gradientUnits="userSpaceOnUse"
       gradientTransform="matrix(0.68859283,-0.06541918,0.06771833,0.78245271,-1.9972534,-1.4687669)"
       x1="23.967623"
       y1="1.0104272"
       x2="23.967623"
       y2="47.604183" />
    <linearGradient
       id="linearGradient4593">
      <stop
         style="stop-color:#ffffff;stop-opacity:1;"
         offset="0"
         id="stop12409" />
      <stop
         style="stop-color:#ffffff;stop-opacity:0.0000000;"
         offset="1.0000000"
         id="stop12411" />
    </linearGradient>
  </defs>
  <path
     style="opacity:0.3;fill:url(#radialGradient2902-873-655-58);fill-opacity:1;fill-rule:evenodd;stroke:none;stroke-width:0.99999988;marker:none;visibility:visible;display:inline;overflow:visible"
     id="path8836"
     d="M 30.824644,26.731416 C 30.824644,29.641174 24.188075,32 16.001453,32 7.8148328,32 1.1782635,29.641174 1.1782635,26.731416 c 0,-2.909758 6.6365693,-5.268585 14.8231895,-5.268585 8.186622,0 14.823191,2.358827 14.823191,5.268585 l 0,0 z" />
  <path
     style="fill:url(#radialGradient2897-479-547-107-90);fill-opacity:1;fill-rule:evenodd;stroke:url(#linearGradient2899-145-663-74-244);stroke-width:0.99525052;stroke-linecap:butt;stroke-linejoin:round;stroke-miterlimit:4;stroke-opacity:1;stroke-dasharray:none;stroke-dashoffset:0;marker:none;visibility:visible;display:inline;overflow:visible"
     id="path6145"
     d="M 13.945834,2.6860194 C 6.5226503,3.8043503 1.0299452,9.0306843 1.5290175,14.689422 c 0.3231707,3.66426 3.0754448,6.680263 7.0113052,8.271547 l -1.6428825,6.541506 7.2679918,-5.371265 0.05025,-0.0046 c 0.896923,0.04381 1.798006,0.05833 2.733075,-0.02885 C 24.928,23.353836 30.994615,17.9283 30.470995,11.991267 29.947376,6.0541904 23.030502,1.839076 15.051257,2.5829633 14.67723,2.6178313 14.310909,2.6310183 13.945834,2.6860194 Z" />
  <path
     style="fill:#ca6006;fill-opacity:1;fill-rule:evenodd;stroke:none"
     id="path5116"
     d="m 11.530788,6.5701488 -1.9741974,2.8020293 4.8420564,3.5622789 -3.486083,4.947881 2.742097,2.017349 3.486081,-4.94789 4.842056,3.56228 1.974196,-2.802031 L 19.114939,12.14977 22.60102,7.2018837 19.858924,5.1845368 16.372843,10.132426 11.530788,6.5701488 Z" />
  <path
     style="fill:url(#radialGradient2889-180-16-11-858-197);fill-opacity:1;fill-rule:evenodd;stroke:none;stroke-width:0.99525028;marker:none;visibility:visible;display:inline;overflow:visible"
     id="path3845"
     d="m 1.9984312,14.507863 c 0.3111517,3.527985 2.98516,6.464727 6.8476694,8.026355 0.1389603,0.05225 0.2170973,0.203061 0.1812618,0.349867 L 7.7491428,28.235393 14.203394,23.72788 c 0.0018,-0.07634 0.104637,-0.04378 0.161123,-0.04115 0.02014,-8.6e-5 0.04029,0 0.06042,0 22.33764,-4.353096 7.825164,-32.3142307 -12.4265058,-9.178867 z" />
  <path
     style="opacity:0.4;fill:#ffffff;fill-opacity:1;fill-rule:evenodd;stroke:none"
     id="path5120"
     d="m 11.530788,7.8872946 -1.9741974,2.8020284 4.8420564,3.562277 -3.486083,4.947889 2.742097,2.017342 3.486081,-4.947887 4.842056,3.562278 1.974196,-2.802031 L 19.114939,13.46692 22.60102,8.5190295 19.858924,6.5016827 16.372843,11.44957 11.530788,7.8872946 Z" />
  <path
     style="fill:url(#radialGradient5106);fill-opacity:1;fill-rule:evenodd;stroke:none"
     id="path5098"
     d="m 11.530788,7.2287217 -1.9741974,2.8020283 4.8420564,3.562279 -3.486083,4.947884 2.742097,2.017346 3.486081,-4.947888 4.842056,3.562277 L 23.956994,16.37062 19.114939,12.808346 22.60102,7.8604566 19.858924,5.8431097 16.372843,10.790997 11.530788,7.2287217 Z" />
  <path
     id="path2464"
     d="M 14.149589,3.6649618 C 7.7575016,4.6343907 2,9 2.5658987,14.791323 c 0.3931047,4.022975 3.6319212,6.28376 7.1190578,7.468815 l -1.1855425,4.798879 5.394343,-3.974074 c 0.771921,0.03487 2.242278,0.09721 3.047341,0.02069 6.087121,-0.578286 12.966877,-4.859419 12.555689,-10.944188 -0.388979,-5.7561086 -7.463416,-9.2776227 -14.395478,-8.5869195 -0.321893,0.032076 -0.637361,0.042741 -0.95172,0.090425 z"
     style="opacity:0.4;fill:none;stroke:url(#linearGradient2475);stroke-width:0.99500018;stroke-linecap:butt;stroke-linejoin:miter;stroke-miterlimit:4;stroke-opacity:1;stroke-dasharray:none;stroke-dashoffset:0;marker:none;visibility:visible;display:inline;overflow:visible" />
</svg>
