<?xml version="1.0" encoding="UTF-8" standalone="no"?>
<svg
   xmlns:dc="http://purl.org/dc/elements/1.1/"
   xmlns:cc="http://creativecommons.org/ns#"
   xmlns:rdf="http://www.w3.org/1999/02/22-rdf-syntax-ns#"
   xmlns:svg="http://www.w3.org/2000/svg"
   xmlns="http://www.w3.org/2000/svg"
   xmlns:xlink="http://www.w3.org/1999/xlink"
   width="32px"
   height="32px"
   id="svg17618"
   version="1.1">
  <defs
     id="defs17620">
    <linearGradient
       xlink:href="#linearGradient3454-2-5-0-3-4"
       id="linearGradient15173"
       gradientUnits="userSpaceOnUse"
       gradientTransform="matrix(0.89186139,0,0,1.0539115,3.1208294,5.412539)"
       x1="27.557428"
       y1="7.162672"
       x2="27.557428"
       y2="21.386522" />
    <linearGradient
       id="linearGradient3454-2-5-0-3-4">
      <stop
         offset="0"
         style="stop-color:#ffffff;stop-opacity:1"
         id="stop3456-4-9-38-1-8" />
      <stop
         offset="0.0097359"
         style="stop-color:#ffffff;stop-opacity:0.23529412"
         id="stop3458-39-80-3-5-5" />
      <stop
         offset="0.99001008"
         style="stop-color:#ffffff;stop-opacity:0.15686275"
         id="stop3460-7-0-2-4-2" />
      <stop
         offset="1"
         style="stop-color:#ffffff;stop-opacity:0.39215687"
         id="stop3462-0-9-8-7-2" />
    </linearGradient>
    <linearGradient
       xlink:href="#linearGradient6129-963-697-142-998-580-273-5"
       id="linearGradient15181"
       gradientUnits="userSpaceOnUse"
       gradientTransform="matrix(0.7467531,0,0,0.6554922,-1.9218906,1.167619)"
       x1="22.934725"
       y1="49.629246"
       x2="22.809399"
       y2="36.657963" />
    <linearGradient
       id="linearGradient6129-963-697-142-998-580-273-5">
      <stop
         id="stop2661-1"
         style="stop-color:#0a0a0a;stop-opacity:0.498"
         offset="0" />
      <stop
         id="stop2663-85"
         style="stop-color:#0a0a0a;stop-opacity:0"
         offset="1" />
    </linearGradient>
    <linearGradient
       xlink:href="#linearGradient4632-92-3-0-8-1"
       id="linearGradient8239"
       gradientUnits="userSpaceOnUse"
       gradientTransform="matrix(0.64444432,0,0,0.64285702,0.53351936,0.89285905)"
       x1="35.792694"
       y1="17.118193"
       x2="35.792694"
       y2="43.761127" />
    <linearGradient
       id="linearGradient4632-92-3-0-8-1">
      <stop
         style="stop-color:#cdc9e3;stop-opacity:1"
         offset="0"
         id="stop4634-68-8-0-2-9" />
      <stop
         style="stop-color:#9389cb;stop-opacity:1"
         offset="1"
         id="stop4636-8-21-7-1-4" />
    </linearGradient>
    <linearGradient
       xlink:href="#linearGradient5048-585-0"
       id="linearGradient15209"
       gradientUnits="userSpaceOnUse"
       gradientTransform="matrix(0.05114282,0,0,0.01591575,-2.4899573,22.29927)"
       x1="302.85715"
       y1="366.64789"
       x2="302.85715"
       y2="609.50507" />
    <linearGradient
       id="linearGradient5048-585-0">
      <stop
         id="stop2667-18"
         style="stop-color:#000000;stop-opacity:0"
         offset="0" />
      <stop
         id="stop2669-9"
         style="stop-color:#000000;stop-opacity:1"
         offset="0.5" />
      <stop
         id="stop2671-33"
         style="stop-color:#000000;stop-opacity:0"
         offset="1" />
    </linearGradient>
    <radialGradient
       xlink:href="#linearGradient5060-179-67"
       id="radialGradient15211"
       gradientUnits="userSpaceOnUse"
       gradientTransform="matrix(0.01983573,0,0,0.01591575,16.38765,22.29927)"
       cx="605.71429"
       cy="486.64789"
       fx="605.71429"
       fy="486.64789"
       r="117.14286" />
    <linearGradient
       id="linearGradient5060-179-67">
      <stop
         id="stop2675-81"
         style="stop-color:#000000;stop-opacity:1"
         offset="0" />
      <stop
         id="stop2677-2"
         style="stop-color:#000000;stop-opacity:0"
         offset="1" />
    </linearGradient>
    <radialGradient
       xlink:href="#linearGradient5060-820-4"
       id="radialGradient15213"
       gradientUnits="userSpaceOnUse"
       gradientTransform="matrix(-0.01983573,0,0,0.01591575,15.60139,22.29927)"
       cx="605.71429"
       cy="486.64789"
       fx="605.71429"
       fy="486.64789"
       r="117.14286" />
    <linearGradient
       id="linearGradient5060-820-4">
      <stop
         id="stop2681-5"
         style="stop-color:#000000;stop-opacity:1"
         offset="0" />
      <stop
         id="stop2683-00"
         style="stop-color:#000000;stop-opacity:0"
         offset="1" />
    </linearGradient>
    <linearGradient
       xlink:href="#linearGradient4325"
       id="linearGradient15221"
       gradientUnits="userSpaceOnUse"
       gradientTransform="matrix(0.54383556,0,0,0.61466406,3.2688794,5.091139)"
       x1="21.37039"
       y1="4.73244"
       x2="21.37039"
       y2="34.143417" />
    <linearGradient
       id="linearGradient4325">
      <stop
         offset="0"
         style="stop-color:#ffffff;stop-opacity:1"
         id="stop4327" />
      <stop
         offset="0.1106325"
         style="stop-color:#ffffff;stop-opacity:0.23529412"
         id="stop4329" />
      <stop
         offset="0.99001008"
         style="stop-color:#ffffff;stop-opacity:0.15686275"
         id="stop4331" />
      <stop
         offset="1"
         style="stop-color:#ffffff;stop-opacity:0.39215687"
         id="stop4333" />
    </linearGradient>
    <linearGradient
       xlink:href="#linearGradient4646-7-4-3-5"
       id="linearGradient15229"
       gradientUnits="userSpaceOnUse"
       gradientTransform="matrix(0.61904762,0,0,0.61904762,-30.391812,1.428569)"
       x1="62.988873"
       y1="13"
       x2="62.988873"
       y2="16" />
    <linearGradient
       id="linearGradient4646-7-4-3-5">
      <stop
         offset="0"
         style="stop-color:#f9f9f9;stop-opacity:1"
         id="stop4648-8-0-3-6" />
      <stop
         offset="1"
         style="stop-color:#d8d8d8;stop-opacity:1"
         id="stop4650-1-7-3-4" />
    </linearGradient>
    <linearGradient
       id="linearGradient3104-8-8-97-4-6-11-5-5-0">
      <stop
         offset="0"
         style="stop-color:#000000;stop-opacity:0.32173914"
         id="stop3106-5-4-3-5-0-2-1-0-6" />
      <stop
         offset="1"
         style="stop-color:#000000;stop-opacity:0.27826086"
         id="stop3108-4-3-7-8-2-0-7-9-1" />
    </linearGradient>
    <linearGradient
       y2="3.6336823"
       x2="-51.786404"
       y1="53.514328"
       x1="-51.786404"
       gradientTransform="matrix(0.50703384,0,0,0.50300255,68.029218,1.329769)"
       gradientUnits="userSpaceOnUse"
       id="linearGradient17616"
       xlink:href="#linearGradient3104-8-8-97-4-6-11-5-5-0" />
  </defs>
  <metadata
     id="metadata17623">
    <rdf:RDF>
      <cc:Work
         rdf:about="">
        <dc:format>image/svg+xml</dc:format>
        <dc:type
           rdf:resource="http://purl.org/dc/dcmitype/StillImage" />
        <dc:title />
      </cc:Work>
    </rdf:RDF>
  </metadata>
  <g
     id="layer1">
    <path
       d="m 4.0001794,6.500079 c -0.43342,0.005 -0.5,0.21723 -0.5,0.6349 l 0,1.36502 c -1.24568,0 -1,-0.002 -1,0.54389 0.0216,6.53313 0,6.90143 0,7.45611 0.90135,0 26.9999986,-2.34895 26.9999986,-3.36005 l 0,-4.09606 c 0,-0.41767 -0.34799,-0.54876 -0.78141,-0.54389 l -14.21859,0 0,-1.36502 c 0,-0.41767 -0.26424,-0.63977 -0.69767,-0.6349 l -9.8023286,0 z"
       id="use7687-1"
       style="opacity:0.8;color:#000000;fill:none;stroke:url(#linearGradient17616);stroke-width:1;stroke-linecap:butt;stroke-linejoin:miter;stroke-miterlimit:4;stroke-opacity:1;stroke-dasharray:none;stroke-dashoffset:0;marker:none;visibility:visible;display:inline;overflow:visible;enable-background:accumulate" />
    <path
       style="color:#000000;fill:url(#linearGradient15229);fill-opacity:1;fill-rule:nonzero;stroke:none;stroke-width:1;marker:none;visibility:visible;display:inline;overflow:visible;enable-background:accumulate"
       d="m 4.0001794,6.999999 0,2 -1,0 0,4 25.9999986,0 0,-4 -15,0 0,-2 -9.9999986,0 z"
       id="use7689-7" />
    <path
       style="color:#000000;fill:none;stroke:url(#linearGradient15221);stroke-width:1;stroke-linecap:round;stroke-linejoin:miter;stroke-miterlimit:4;stroke-opacity:1;stroke-dasharray:none;stroke-dashoffset:0;marker:none;visibility:visible;display:inline;overflow:visible;enable-background:accumulate"
       d="m 4.5001794,7.499999 0,2 -1,0 0,4 24.9999986,0 0,-4 -15,0 0,-2 -8.9999986,0 z"
       id="use7691-5" />
    <g
       transform="translate(1.7935663e-4,-1.000001)"
       id="use7693-6">
      <rect
         width="24.694677"
         height="3.8652544"
         x="3.6471815"
         y="28.134747"
         id="rect15203"
         style="opacity:0.3;fill:url(#linearGradient15209);fill-opacity:1;fill-rule:nonzero;stroke:none;stroke-width:1;marker:none;visibility:visible;display:inline;overflow:visible" />
      <path
         d="m 28.341859,28.13488 c 0,0 0,3.865041 0,3.865041 1.021491,0.0073 2.469468,-0.86596 2.469468,-1.932769 0,-1.06681 -1.139908,-1.932272 -2.469468,-1.932272 z"
         id="path15205"
         style="opacity:0.3;fill:url(#radialGradient15211);fill-opacity:1;fill-rule:nonzero;stroke:none;stroke-width:1;marker:none;visibility:visible;display:inline;overflow:visible" />
      <path
         d="m 3.6471816,28.13488 c 0,0 0,3.865041 0,3.865041 -1.0214912,0.0073 -2.4694678,-0.86596 -2.4694678,-1.932769 0,-1.06681 1.1399068,-1.932272 2.4694678,-1.932272 z"
         id="path15207"
         style="opacity:0.3;fill:url(#radialGradient15213);fill-opacity:1;fill-rule:nonzero;stroke:none;stroke-width:1;marker:none;visibility:visible;display:inline;overflow:visible" />
    </g>
    <path
       style="color:#000000;fill:url(#linearGradient8239);fill-opacity:1;fill-rule:nonzero;stroke:none;stroke-width:0.99999994;marker:none;visibility:visible;display:inline;overflow:visible;enable-background:accumulate"
       id="use7695-9"
       d="m 1.9270194,11.499999 c -0.69105,0.0796 -0.32196,0.90258 -0.37705,1.36535 0.0802,0.29906 0.59771,15.71799 0.59771,16.24744 0,0.46018 0.22667,0.38222 0.80101,0.38222 8.4993986,0 17.8980786,0 26.3974786,0 0.61872,0.0143 0.48796,0.007 0.48796,-0.38947 0.0452,-0.20269 0.63993,-16.97848 0.66282,-17.24344 0,-0.279 0.0581,-0.3621 -0.30493,-0.3621 -9.0765,0 -19.18849,0 -28.2649986,0 z" />
    <path
       d="m 1.6819994,10.999999 28.6363686,2.7e-4 c 0.4137,0 0.68181,0.29209 0.68181,0.65523 l -0.6735,17.71211 c 0.01,0.45948 -0.1364,0.64166 -0.61707,0.63203 l -27.2561286,-0.0115 c -0.4137,0 -0.83086,-0.27118 -0.83086,-0.63432 l -0.62244,-17.69829 c 0,-0.36314 0.26812,-0.65549 0.68182,-0.65549 z"
       id="use7697-1"
       style="opacity:0.4;fill:url(#linearGradient15181);fill-opacity:1;stroke:none" />
    <path
       style="opacity:0.5;color:#000000;fill:none;stroke:url(#linearGradient15173);stroke-width:1.00000012;stroke-linecap:round;stroke-linejoin:miter;stroke-miterlimit:4;stroke-opacity:1;stroke-dasharray:none;stroke-dashoffset:0;marker:none;visibility:visible;display:inline;overflow:visible;enable-background:accumulate"
       d="m 2.5001794,12.499999 0.62498,16 25.7491686,0 0.62498,-16 z"
       id="use7699-2" />
    <path
       d="m 15.375002,17 c -0.173128,0 -0.312507,0.139378 -0.312507,0.312506 l 0,1.054688 c -0.342928,0.08794 -0.659371,0.235002 -0.957055,0.410151 l -0.761696,-0.761714 c -0.122504,-0.122383 -0.307251,-0.122383 -0.429679,0 l -0.898434,0.898434 c -0.122504,0.122383 -0.122504,0.307256 0,0.429679 l 0.761675,0.761714 c -0.175113,0.297657 -0.322191,0.614137 -0.410112,0.957037 l -1.054688,0 C 11.139378,21.062495 11,21.201874 11,21.375002 l 0,1.249996 c 0,0.173128 0.139378,0.312507 0.312506,0.312507 l 1.054688,0 c 0.08784,0.3429 0.234999,0.65938 0.410112,0.957027 l -0.761675,0.761724 c -0.122504,0.122364 -0.122504,0.30726 0,0.429679 l 0.898434,0.898434 c 0.12238,0.122383 0.307247,0.122383 0.429679,0 l 0.761696,-0.761724 c 0.297684,0.17515 0.614127,0.3222 0.957055,0.410161 l 0,1.054688 C 15.062495,26.860622 15.201874,27 15.375002,27 l 1.249996,0 c 0.173128,0 0.312507,-0.139378 0.312507,-0.312506 l 0,-1.054688 c 0.342877,-0.08794 0.659371,-0.235011 0.956984,-0.410161 l 0.761767,0.761724 c 0.122364,0.122383 0.307247,0.122383 0.429679,0 l 0.898434,-0.898434 c 0.122383,-0.12238 0.122383,-0.307266 0,-0.429679 l -0.761746,-0.761724 c 0.175181,-0.297647 0.32219,-0.614127 0.410183,-0.957027 l 1.054688,0 C 20.860622,22.937505 21,22.798126 21,22.624998 l 0,-1.249996 c 0,-0.173128 -0.139378,-0.312507 -0.312506,-0.312507 l -1.054688,0 c -0.08797,-0.3429 -0.235002,-0.65938 -0.410183,-0.957037 l 0.761746,-0.761714 c 0.122383,-0.122364 0.122383,-0.307269 0,-0.429679 l -0.898434,-0.898434 c -0.122504,-0.122383 -0.307247,-0.122383 -0.429679,0 l -0.761767,0.761714 c -0.297613,-0.175149 -0.614107,-0.322186 -0.956984,-0.410151 l 0,-1.054688 C 16.937505,17.139378 16.798126,17 16.624998,17 l -1.249996,0 z m 0.624988,3.125005 c 1.035511,0 1.875005,0.839466 1.875005,1.875005 0,1.03551 -0.839494,1.874985 -1.875005,1.874985 -1.035563,0 -1.874985,-0.839475 -1.874985,-1.874985 0,-1.035539 0.839422,-1.875005 1.874985,-1.875005 z"
       id="path3575-5-8-4-7-0-8"
       style="opacity:0.3;color:#000000;fill:#ffffff;fill-opacity:1;fill-rule:nonzero;stroke:none;stroke-width:1.70000005;marker:none;visibility:visible;display:inline;overflow:visible;enable-background:accumulate" />
    <path
       d="m 15.375002,16 c -0.173128,0 -0.312507,0.139378 -0.312507,0.312506 l 0,1.054688 c -0.342928,0.08794 -0.659371,0.234999 -0.957055,0.410151 l -0.761696,-0.761714 c -0.122504,-0.122383 -0.307251,-0.122383 -0.429679,0 l -0.898434,0.898434 c -0.122504,0.12238 -0.122504,0.307256 0,0.429679 l 0.761675,0.761714 c -0.175113,0.297657 -0.322191,0.614137 -0.410112,0.957037 l -1.054688,0 C 11.139378,20.062495 11,20.201874 11,20.375002 l 0,1.249996 c 0,0.173128 0.139378,0.312507 0.312506,0.312507 l 1.054688,0 c 0.08784,0.3429 0.234999,0.65938 0.410112,0.957023 l -0.761675,0.761728 c -0.122504,0.122364 -0.122504,0.30726 0,0.429679 l 0.898434,0.898434 c 0.12238,0.122383 0.307247,0.122383 0.429679,0 l 0.761696,-0.761728 c 0.297684,0.175154 0.614127,0.3222 0.957055,0.410165 l 0,1.054688 C 15.062495,25.860622 15.201874,26 15.375002,26 l 1.249996,0 c 0.173128,0 0.312507,-0.139378 0.312507,-0.312506 l 0,-1.054688 c 0.342877,-0.08794 0.659371,-0.235011 0.956984,-0.410165 l 0.761767,0.761728 c 0.122364,0.122383 0.307247,0.122383 0.429679,0 l 0.898434,-0.898434 c 0.122383,-0.122383 0.122383,-0.30727 0,-0.429679 l -0.761746,-0.761728 c 0.175181,-0.297643 0.32219,-0.614123 0.410183,-0.957023 l 1.054688,0 C 20.860622,21.937505 21,21.798126 21,21.624998 l 0,-1.249996 c 0,-0.173128 -0.139378,-0.312507 -0.312506,-0.312507 l -1.054688,0 c -0.08799,-0.3429 -0.235002,-0.65938 -0.410183,-0.957037 l 0.761746,-0.761714 c 0.122383,-0.122364 0.122383,-0.307269 0,-0.429679 l -0.898434,-0.898434 c -0.122504,-0.122383 -0.307247,-0.122383 -0.429679,0 l -0.761767,0.761714 c -0.297613,-0.175152 -0.614107,-0.32219 -0.956984,-0.410151 l 0,-1.054688 C 16.937505,16.139378 16.798126,16 16.624998,16 l -1.249996,0 z m 0.624988,3.125005 c 1.035511,0 1.875005,0.839462 1.875005,1.874985 0,1.03553 -0.839494,1.875005 -1.875005,1.875005 -1.035563,0 -1.874985,-0.839475 -1.874985,-1.875005 0,-1.035523 0.839422,-1.874985 1.874985,-1.874985 z"
       id="path3575-5-8-4-7-0"
       style="color:#000000;fill:#382a72;fill-opacity:0.5521628;fill-rule:nonzero;stroke:none;stroke-width:1.70000005;marker:none;visibility:visible;display:inline;overflow:visible;enable-background:accumulate" />
    <path
       style="opacity:0.3;color:#000000;fill:none;stroke:#000000;stroke-width:0.99999994;stroke-linecap:round;stroke-linejoin:round;stroke-miterlimit:4;stroke-opacity:1;stroke-dasharray:none;stroke-dashoffset:0;marker:none;visibility:visible;display:inline;overflow:visible;enable-background:accumulate"
       id="use7695-9-5"
       d="m 1.9270194,11.499999 c -0.69105,0.0796 -0.32196,0.90258 -0.37705,1.36535 0.0802,0.29906 0.59771,15.71799 0.59771,16.24744 0,0.46018 0.22667,0.38222 0.80101,0.38222 8.4993986,0 17.8980786,0 26.3974786,0 0.61872,0.0143 0.48796,0.007 0.48796,-0.38947 0.0452,-0.20269 0.63993,-16.97848 0.66282,-17.24344 0,-0.279 0.0581,-0.3621 -0.30493,-0.3621 -9.0765,0 -19.18849,0 -28.2649986,0 z" />
  </g>
</svg>
