<?xml version="1.0" encoding="UTF-8" standalone="no"?>
<svg
   id="svg3901"
   height="96"
   width="96"
   version="1.1"
   sodipodi:docname="application-x-cd-image.svg"
   inkscape:version="1.1.1 (3bf5ae0d25, 2021-09-20)"
   xmlns:inkscape="http://www.inkscape.org/namespaces/inkscape"
   xmlns:sodipodi="http://sodipodi.sourceforge.net/DTD/sodipodi-0.dtd"
   xmlns:xlink="http://www.w3.org/1999/xlink"
   xmlns="http://www.w3.org/2000/svg"
   xmlns:svg="http://www.w3.org/2000/svg"
   xmlns:rdf="http://www.w3.org/1999/02/22-rdf-syntax-ns#"
   xmlns:cc="http://creativecommons.org/ns#">
  <sodipodi:namedview
     id="namedview41"
     pagecolor="#ffffff"
     bordercolor="#666666"
     borderopacity="1.0"
     inkscape:pageshadow="2"
     inkscape:pageopacity="0.0"
     inkscape:pagecheckerboard="0"
     showgrid="false"
     inkscape:zoom="2.8284271"
     inkscape:cx="70.357125"
     inkscape:cy="85.913474"
     inkscape:window-width="1396"
     inkscape:window-height="896"
     inkscape:window-x="543"
     inkscape:window-y="301"
     inkscape:window-maximized="0"
     inkscape:current-layer="svg3901" />
  <defs
     id="defs3903">
    <linearGradient
       id="linearGradient3403">
      <stop
         id="stop3405"
         style="stop-color:#ffffff;stop-opacity:1"
         offset="0" />
      <stop
         id="stop3407"
         style="stop-color:#ffffff;stop-opacity:0.23529412"
         offset="0.00541497" />
      <stop
         id="stop3409"
         style="stop-color:#ffffff;stop-opacity:0.15686275"
         offset="1" />
      <stop
         id="stop3411"
         style="stop-color:#ffffff;stop-opacity:0.39215687"
         offset="1" />
    </linearGradient>
    <linearGradient
       id="linearGradient3600">
      <stop
         offset="0"
         style="stop-color:#f4f4f4;stop-opacity:1"
         id="stop3602" />
      <stop
         offset="1"
         style="stop-color:#dbdbdb;stop-opacity:1"
         id="stop3604" />
    </linearGradient>
    <linearGradient
       id="linearGradient5060">
      <stop
         offset="0"
         style="stop-color:#000000;stop-opacity:1"
         id="stop5062" />
      <stop
         offset="1"
         style="stop-color:#000000;stop-opacity:0"
         id="stop5064" />
    </linearGradient>
    <linearGradient
       id="linearGradient5048">
      <stop
         offset="0"
         style="stop-color:#000000;stop-opacity:0"
         id="stop5050" />
      <stop
         offset="0.5"
         style="stop-color:#000000;stop-opacity:1"
         id="stop5056" />
      <stop
         offset="1"
         style="stop-color:#000000;stop-opacity:0"
         id="stop5052" />
    </linearGradient>
    <linearGradient
       id="linearGradient3104-6">
      <stop
         id="stop3106-3"
         style="stop-color:#000000;stop-opacity:0.31782946"
         offset="0" />
      <stop
         id="stop3108-9"
         style="stop-color:#000000;stop-opacity:0.24031007"
         offset="1" />
    </linearGradient>
    <linearGradient
       y2="42.273762"
       x2="23.99999"
       y1="5.6275582"
       x1="23.99999"
       gradientTransform="matrix(1.8648648,0,0,2.3513513,3.2432558,-11.432408)"
       gradientUnits="userSpaceOnUse"
       id="linearGradient3106"
       xlink:href="#linearGradient3403" />
    <linearGradient
       y2="47.013336"
       x2="25.132275"
       y1="0.98520643"
       x1="25.132275"
       gradientTransform="matrix(1.9999954,0,0,1.9120955,1.0813194e-4,-3.8236272)"
       gradientUnits="userSpaceOnUse"
       id="linearGradient3109"
       xlink:href="#linearGradient3600" />
    <linearGradient
       y2="2.9062471"
       x2="-51.786404"
       y1="50.786446"
       x1="-51.786404"
       gradientTransform="matrix(1.6380632,0,0,1.8097673,119.83211,-6.5336729)"
       gradientUnits="userSpaceOnUse"
       id="linearGradient3170"
       xlink:href="#linearGradient3104-6" />
    <linearGradient
       gradientTransform="matrix(0.13730769,0,0,0.02882352,-1.626924,75.431978)"
       gradientUnits="userSpaceOnUse"
       xlink:href="#linearGradient5048"
       id="linearGradient3842"
       y2="609.50507"
       x2="302.85715"
       y1="366.64789"
       x1="302.85715" />
    <radialGradient
       gradientTransform="matrix(-0.04698948,0,0,0.02882352,43.168704,75.431978)"
       gradientUnits="userSpaceOnUse"
       xlink:href="#linearGradient5060"
       id="radialGradient3156"
       fy="486.64789"
       fx="605.71429"
       r="117.14286"
       cy="486.64789"
       cx="605.71429" />
    <radialGradient
       gradientTransform="matrix(0.04698949,0,0,0.02882352,52.831289,75.431978)"
       gradientUnits="userSpaceOnUse"
       xlink:href="#linearGradient5060"
       id="radialGradient3153"
       fy="486.64789"
       fx="605.71429"
       r="117.14286"
       cy="486.64789"
       cx="605.71429" />
    <radialGradient
       xlink:href="#linearGradient5060"
       id="radialGradient4291"
       cx="32"
       cy="1034.6122"
       fx="32"
       fy="1034.6122"
       r="22"
       gradientTransform="matrix(1,0,0,0.29545454,0,728.93132)"
       gradientUnits="userSpaceOnUse" />
    <linearGradient
       xlink:href="#linearGradient3263"
       id="linearGradient3180"
       gradientUnits="userSpaceOnUse"
       gradientTransform="matrix(0,1.172141,-1.172141,0,59.018172,990.94679)"
       x1="12.2744"
       y1="32.4165"
       x2="35.391201"
       y2="14.2033" />
    <linearGradient
       gradientUnits="userSpaceOnUse"
       id="linearGradient3263"
       y2="14.2033"
       x2="35.391201"
       y1="32.4165"
       x1="12.2744">
      <stop
         offset="0"
         style="stop-color:#dedcde;stop-opacity:1;"
         id="stop3265" />
      <stop
         offset="0.5"
         style="stop-color:#f0f0f0;stop-opacity:1;"
         id="stop3267" />
      <stop
         offset="1"
         style="stop-color:#d2d2d2;stop-opacity:1"
         id="stop3269" />
    </linearGradient>
    <linearGradient
       xlink:href="#linearGradient3772"
       id="linearGradient3182"
       gradientUnits="userSpaceOnUse"
       gradientTransform="matrix(1.0005994,0,0,1.0005994,58.222512,995.0638)"
       x1="-21.915663"
       y1="3"
       x2="-21.915663"
       y2="45.032898" />
    <linearGradient
       id="linearGradient3772">
      <stop
         offset="0"
         style="stop-color:#b4b4b4;stop-opacity:1;"
         id="stop3774" />
      <stop
         offset="1"
         style="stop-color:#969696;stop-opacity:1;"
         id="stop3776" />
    </linearGradient>
    <linearGradient
       xlink:href="#linearGradient3428"
       id="linearGradient3176"
       gradientUnits="userSpaceOnUse"
       gradientTransform="matrix(0.93564175,0,0,0.93608145,9.4769059,996.61225)"
       x1="21.448364"
       y1="15.5"
       x2="21.448364"
       y2="32.509201" />
    <linearGradient
       id="linearGradient3428">
      <stop
         offset="0"
         style="stop-color:#aaaaaa;stop-opacity:1"
         id="stop3430" />
      <stop
         offset="1"
         style="stop-color:#d4d4d4;stop-opacity:1"
         id="stop3432" />
    </linearGradient>
    <linearGradient
       xlink:href="#linearGradient3487"
       id="linearGradient4244"
       gradientUnits="userSpaceOnUse"
       spreadMethod="reflect"
       x1="20.580074"
       y1="10.774516"
       x2="24.27351"
       y2="9.8622112"
       gradientTransform="matrix(1.0482741,0.02961821,-0.02961821,1.0482741,0.0450932,-1.3098504)" />
    <linearGradient
       id="linearGradient3487">
      <stop
         offset="0"
         style="stop-color:#e6cde2;stop-opacity:1"
         id="stop3489" />
      <stop
         offset="1"
         style="stop-color:#e6cde2;stop-opacity:0"
         id="stop3491" />
    </linearGradient>
    <linearGradient
       xlink:href="#linearGradient3495"
       id="linearGradient4246"
       gradientUnits="userSpaceOnUse"
       spreadMethod="reflect"
       x1="17.494959"
       y1="11.200086"
       x2="21.047453"
       y2="9.7956104"
       gradientTransform="matrix(1.0486921,0,0,1.0486921,-0.68103348,-0.54141681)" />
    <linearGradient
       id="linearGradient3495">
      <stop
         offset="0"
         style="stop-color:#c1cbe4;stop-opacity:1"
         id="stop3497" />
      <stop
         offset="1"
         style="stop-color:#c1cbe4;stop-opacity:0"
         id="stop3499" />
    </linearGradient>
    <linearGradient
       xlink:href="#linearGradient3503"
       id="linearGradient4248"
       gradientUnits="userSpaceOnUse"
       spreadMethod="reflect"
       x1="14.084608"
       y1="13.045606"
       x2="16.994024"
       y2="10.732353"
       gradientTransform="matrix(1.0486921,0,0,1.0486921,-0.68103348,-0.60635122)" />
    <linearGradient
       id="linearGradient3503">
      <stop
         offset="0"
         style="stop-color:#c4ebdd;stop-opacity:1"
         id="stop3505" />
      <stop
         offset="1"
         style="stop-color:#c4ebdd;stop-opacity:0"
         id="stop3507" />
    </linearGradient>
    <linearGradient
       xlink:href="#linearGradient3511"
       id="linearGradient4250"
       gradientUnits="userSpaceOnUse"
       spreadMethod="reflect"
       x1="12.371647"
       y1="16.188046"
       x2="14.609327"
       y2="13.461712"
       gradientTransform="matrix(1.0486921,0,0,1.0486921,-0.68103348,-0.60635122)" />
    <linearGradient
       id="linearGradient3511">
      <stop
         offset="0"
         style="stop-color:#ebeec7;stop-opacity:1"
         id="stop3513" />
      <stop
         offset="1"
         style="stop-color:#ebeec7;stop-opacity:0"
         id="stop3515" />
    </linearGradient>
    <linearGradient
       xlink:href="#linearGradient3519"
       id="linearGradient4252"
       gradientUnits="userSpaceOnUse"
       spreadMethod="reflect"
       x1="10.609375"
       y1="17.886322"
       x2="9.7297754"
       y2="20.612656"
       gradientTransform="matrix(1.0486921,0,0,1.0486921,-0.61594472,-0.60635122)" />
    <linearGradient
       id="linearGradient3519">
      <stop
         offset="0"
         style="stop-color:#fcd9cd;stop-opacity:1"
         id="stop3521" />
      <stop
         offset="1"
         style="stop-color:#fcd9cd;stop-opacity:0"
         id="stop3523" />
    </linearGradient>
    <linearGradient
       spreadMethod="reflect"
       gradientUnits="userSpaceOnUse"
       xlink:href="#linearGradient3487"
       id="linearGradient3346"
       y2="9.8622112"
       x2="24.27351"
       y1="10.774516"
       x1="20.580074"
       gradientTransform="matrix(1.0352921,0.02925141,-0.02925141,1.0352921,0.22640857,-0.83743657)" />
    <linearGradient
       spreadMethod="reflect"
       gradientUnits="userSpaceOnUse"
       xlink:href="#linearGradient3495"
       id="linearGradient3348"
       y2="9.7956104"
       x2="21.047453"
       y1="11.200086"
       x1="17.494959"
       gradientTransform="matrix(1.0357053,0,0,1.0357053,-0.49072578,-0.14264942)" />
    <linearGradient
       spreadMethod="reflect"
       gradientUnits="userSpaceOnUse"
       xlink:href="#linearGradient3503"
       id="linearGradient3350"
       y2="10.732353"
       x2="16.994024"
       y1="13.045606"
       x1="14.084608"
       gradientTransform="matrix(1.0357053,0,0,1.0357053,-0.49072578,-0.14264942)" />
    <linearGradient
       spreadMethod="reflect"
       gradientUnits="userSpaceOnUse"
       xlink:href="#linearGradient3511"
       id="linearGradient3352"
       y2="13.461712"
       x2="14.609327"
       y1="16.188046"
       x1="12.371647"
       gradientTransform="matrix(1.0357053,0,0,1.0357053,-0.49072578,-0.14264942)" />
    <linearGradient
       spreadMethod="reflect"
       gradientUnits="userSpaceOnUse"
       xlink:href="#linearGradient3519"
       id="linearGradient3354"
       y2="20.612656"
       x2="9.7297754"
       y1="17.886322"
       x1="10.609375"
       gradientTransform="matrix(1.0357053,0,0,1.0357053,-0.49072578,-0.14264942)" />
    <linearGradient
       xlink:href="#linearGradient4011"
       id="linearGradient3161"
       gradientUnits="userSpaceOnUse"
       gradientTransform="matrix(1.0730809,0,0,1.0735731,-45.043561,991.85537)"
       x1="71.204407"
       y1="6.2375584"
       x2="71.204407"
       y2="44.340794" />
    <linearGradient
       id="linearGradient4011">
      <stop
         offset="0"
         style="stop-color:#ffffff;stop-opacity:1;"
         id="stop4013" />
      <stop
         id="stop4015"
         style="stop-color:#ffffff;stop-opacity:0.23529412;"
         offset="0.507761" />
      <stop
         offset="0.83456558"
         style="stop-color:#ffffff;stop-opacity:0.15686275;"
         id="stop4017" />
      <stop
         offset="1"
         style="stop-color:#ffffff;stop-opacity:0.39215687;"
         id="stop4019" />
    </linearGradient>
    <linearGradient
       xlink:href="#linearGradient6036"
       id="linearGradient3158"
       gradientUnits="userSpaceOnUse"
       gradientTransform="matrix(0.41095945,0,0,-0.41115174,21.926678,1029.357)"
       x1="18.775953"
       y1="4.0378027"
       x2="18.203465"
       y2="45.962208" />
    <linearGradient
       id="linearGradient6036">
      <stop
         offset="0"
         style="stop-color:#ffffff;stop-opacity:1"
         id="stop6038" />
      <stop
         offset="1"
         style="stop-color:#ffffff;stop-opacity:0"
         id="stop6040" />
    </linearGradient>
  </defs>
  <metadata
     id="metadata3906">
    <rdf:RDF>
      <cc:Work
         rdf:about="" />
    </rdf:RDF>
  </metadata>
  <rect
     width="66.299995"
     height="7"
     x="14.849998"
     y="86"
     id="rect2879-2"
     style="display:inline;overflow:visible;visibility:visible;opacity:0.15;fill:url(#linearGradient3842);fill-opacity:1;fill-rule:nonzero;stroke:none;stroke-width:1;marker:none" />
  <path
     d="m 14.85,86.000298 c 0,0 0,6.999581 0,6.999581 -2.419842,0.014 -5.85,-1.56828 -5.85,-3.50028 0,-1.932 2.700361,-3.499301 5.85,-3.499301 z"
     id="path2881-9"
     style="display:inline;overflow:visible;visibility:visible;opacity:0.15;fill:url(#radialGradient3156);fill-opacity:1;fill-rule:nonzero;stroke:none;stroke-width:1;marker:none" />
  <path
     d="m 81.149999,86.000298 c 0,0 0,6.999581 0,6.999581 C 83.56984,93.013879 87,91.431599 87,89.499599 c 0,-1.932 -2.700361,-3.499301 -5.850001,-3.499301 z"
     id="path2883-1"
     style="display:inline;overflow:visible;visibility:visible;opacity:0.15;fill:url(#radialGradient3153);fill-opacity:1;fill-rule:nonzero;stroke:none;stroke-width:1;marker:none" />
  <path
     d="m 13,0.99999999 h 69.999918 l 8.5e-5,87.99999901 H 13 Z"
     id="path4160"
     style="display:inline;fill:url(#linearGradient3109);fill-opacity:1;stroke:none;stroke-width:0.999997"
     sodipodi:nodetypes="ccccc" />
  <path
     d="M 82.499999,88.499999 H 13.500001 V 1.5 h 68.999998 z"
     id="rect6741-1"
     style="fill:none;stroke:url(#linearGradient3106);stroke-width:1;stroke-linecap:round;stroke-linejoin:round;stroke-miterlimit:4;stroke-dasharray:none;stroke-dashoffset:0;stroke-opacity:1" />
  <path
     d="M 12.499959,0.4999623 83.499966,0.5 l 7.5e-5,89.000043 H 12.499959 Z"
     id="path4160-6-1"
     style="display:inline;fill:none;stroke:url(#linearGradient3170);stroke-width:0.999922;stroke-linecap:butt;stroke-linejoin:round;stroke-miterlimit:4;stroke-dasharray:none;stroke-dashoffset:0;stroke-opacity:1"
     sodipodi:nodetypes="ccccc" />
  <g
     transform="matrix(1.5363636,0,0,1.535672,-1.0596358,-1517.9698)"
     id="g4158">
    <path
       d="m 54,1034.6122 c 0.0011,3.5897 -9.848934,6.5 -22,6.5 -12.151066,0 -22.001133,-2.9103 -22,-6.5 -0.00113,-3.5898 9.848934,-6.5 22,-6.5 12.151066,0 22.001133,2.9102 22,6.5 z"
       id="path23417"
       style="display:inline;overflow:visible;visibility:visible;opacity:0.3;fill:url(#radialGradient4291);fill-opacity:1;fill-rule:evenodd;stroke:none;stroke-width:2;marker:none" />
    <path
       d="m 52.453996,1019.0782 c 0,-11.3698 -9.142517,-20.51229 -20.512287,-20.51229 -11.369772,0 -20.512287,9.14249 -20.512287,20.51229 -2e-6,11.3698 9.142516,20.5123 20.512287,20.5123 11.369769,0 20.512287,-9.1425 20.512287,-20.5123 z m -13.007791,0 c 0,4.1306 -3.291242,7.5045 -7.504496,7.5045 -4.295903,0 -7.504495,-3.4574 -7.504495,-7.5045 0,-4.1297 3.04329,-7.5045 7.504495,-7.5045 4.461205,0 7.504496,3.4566 7.504496,7.5045 z"
       id="path2781"
       style="fill:url(#linearGradient3180);fill-rule:nonzero;stroke:url(#linearGradient3182);stroke-width:0.651034;stroke-miterlimit:4;stroke-opacity:1" />
    <path
       d="m 31.932308,1011.2641 c -4.311479,0 -7.810651,3.5007 -7.810651,7.8141 0,4.3135 3.499172,7.8142 7.810651,7.8142 4.311479,0 7.810651,-3.5007 7.810651,-7.8142 0,-4.3134 -3.499172,-7.8141 -7.810651,-7.8141 z m 0,3.907 c 2.15574,0 3.905326,1.7504 3.905326,3.9071 0,2.1567 -1.749586,3.9071 -3.905326,3.9071 -2.15574,0 -3.905325,-1.7504 -3.905325,-3.9071 0,-2.1567 1.749585,-3.9071 3.905325,-3.9071 z"
       id="path2474"
       style="display:inline;overflow:visible;visibility:visible;opacity:0.5;fill:#ffffff;fill-opacity:1;fill-rule:nonzero;stroke:none;stroke-width:1;marker:none;enable-background:accumulate" />
    <path
       d="m 31.932308,1011.5895 c -4.131794,0 -7.485134,3.3549 -7.485134,7.4886 0,4.1338 3.35334,7.4887 7.485134,7.4887 4.131794,0 7.485134,-3.3549 7.485134,-7.4887 0,-4.1337 -3.35334,-7.4886 -7.485134,-7.4886 z m 0,3.9072 c 1.952663,0 3.579882,1.628 3.579882,3.5814 0,2.0669 -1.627219,3.5816 -3.579882,3.5816 -1.952663,0 -3.579882,-1.628 -3.579882,-3.5816 0,-1.9534 1.627219,-3.5814 3.579882,-3.5814 z"
       id="path3418"
       style="display:inline;overflow:visible;visibility:visible;fill:none;stroke:url(#linearGradient3176);stroke-width:0.651034;stroke-linecap:butt;stroke-linejoin:round;stroke-miterlimit:4;stroke-dasharray:none;stroke-dashoffset:0;stroke-opacity:1;marker:none;enable-background:accumulate" />
    <g
       transform="translate(8,995.11231)"
       id="g3527">
      <path
         d="M 16.497763,5.1672263 21.57219,16.498796 c 1.29882,-0.400052 1.977785,-0.410399 3.168699,-0.39271 0.03355,9.5e-4 0.06477,0.0014 0.09823,0.0027 L 25.198283,3.7975158 C 22.116197,3.6362753 19.36819,4.127104 16.497762,5.1672262 Z"
         id="path3296"
         style="opacity:0.8;fill:url(#linearGradient4244);fill-opacity:1;fill-rule:nonzero;stroke:none" />
      <path
         d="m 12.030659,7.7495579 7.268516,9.8158721 c 0.957573,-0.70236 2.126791,-1.09343 3.360779,-1.364103 0.03282,-0.0069 0.06325,-0.01419 0.09607,-0.02108 L 20.143036,4.1003858 c -3.029647,0.5886568 -5.578549,1.9459579 -8.112377,3.6491721 z"
         id="path3308"
         style="opacity:0.8;fill:url(#linearGradient4246);fill-opacity:1;fill-rule:nonzero;stroke:none" />
      <path
         d="m 7.9731897,11.607287 9.6623643,7.504253 c 0.743155,-0.926276 1.674646,-1.715785 2.796532,-2.296613 0.02982,-0.01549 0.05739,-0.03007 0.0873,-0.0452 L 14.90867,5.9486203 C 12.134616,7.3013485 9.9798502,9.3063029 7.9731897,11.607287 Z"
         id="path3310"
         style="opacity:0.8;fill:url(#linearGradient4248);fill-opacity:1;fill-rule:nonzero;stroke:none" />
      <path
         d="m 5.2261319,16.250311 11.6464861,4.197816 c 0.584143,-1.216584 1.168287,-1.762978 1.75243,-2.358276 L 10.330225,8.9704548 C 8.0008036,10.995071 6.568879,13.508372 5.2261319,16.250311 Z"
         id="path3312"
         style="opacity:0.8;fill:url(#linearGradient4250);fill-opacity:1;fill-rule:nonzero;stroke:none" />
      <path
         d="m 6.8877536,13.229232 c -1.2406843,1.837327 -2.0006033,3.813443 -2.6480495,5.918766 l 12.0243029,3.093518 c 0.226012,-0.800152 0.409625,-1.561783 0.882277,-2.30005 0.01819,-0.02835 0.04721,-0.07032 0.0655,-0.09825 z"
         id="path3314"
         style="opacity:0.8;fill:url(#linearGradient4252);fill-opacity:1;fill-rule:nonzero;stroke:none" />
    </g>
    <g
       transform="rotate(180,28,521.55155)"
       id="g3297">
      <path
         d="m 16.34491,5.364019 4.756332,11.387848 c 1.085354,-0.444469 2.267949,-0.616083 3.515134,-0.58085 0.03315,9.39e-4 0.06397,0.0014 0.09701,0.0026 L 25.068105,3.8838852 C 22.024188,3.7246415 19.179789,4.3367774 16.34491,5.364019 Z"
         id="path3299"
         style="opacity:0.8;fill:url(#linearGradient3346);fill-opacity:1;fill-rule:nonzero;stroke:none" />
      <path
         d="m 11.933194,7.9153451 7.308864,9.8894819 c 0.945706,-0.693664 2.036124,-1.208275 3.254836,-1.475595 0.03242,-0.0069 0.06238,-0.01403 0.09487,-0.0208 L 20.010058,4.2465929 c -2.992129,0.5390808 -5.574417,1.8908869 -8.076864,3.6687522 z"
         id="path3301"
         style="opacity:0.8;fill:url(#linearGradient3348);fill-opacity:1;fill-rule:nonzero;stroke:none" />
      <path
         d="m 7.9263296,11.854337 9.7379294,7.607093 c 0.733955,-0.914805 1.588684,-1.824915 2.696672,-2.398549 0.02946,-0.01529 0.05667,-0.02971 0.08622,-0.04464 L 14.710531,6.1356682 C 11.970824,7.4716443 9.9081396,9.5818521 7.9263296,11.854337 Z"
         id="path3303"
         style="opacity:0.8;fill:url(#linearGradient3350);fill-opacity:1;fill-rule:nonzero;stroke:none" />
      <path
         d="M 5.3432851,16.505258 16.81767,20.885856 c 0.5862,-1.108653 1.1724,-1.808795 1.7586,-2.498874 L 10.253904,9.2502655 C 7.9533294,11.249811 6.6694042,13.797276 5.3432851,16.505258 Z"
         id="path3305"
         style="opacity:0.8;fill:url(#linearGradient3352);fill-opacity:1;fill-rule:nonzero;stroke:none" />
      <path
         d="M 6.8398588,13.468105 C 5.614539,15.282681 5.024407,17.341291 4.3849791,19.420541 l 11.9572399,3.054877 c 0.223211,-0.790243 0.372472,-1.53046 0.839276,-2.259583 0.01795,-0.02799 0.04661,-0.06944 0.0647,-0.09705 z"
         id="path3307"
         style="opacity:0.8;fill:url(#linearGradient3354);fill-opacity:1;fill-rule:nonzero;stroke:none" />
    </g>
    <path
       d="m 51.784306,1019.0776 c 0,10.9694 -8.888697,19.8617 -19.851746,19.8617 -10.964054,0 -19.852252,-8.8924 -19.852252,-19.8617 0,-10.9689 8.888198,-19.86043 19.852252,-19.86043 10.963049,0 19.851746,8.89153 19.851746,19.86043 z"
       id="path8655"
       style="color:#000000;display:inline;overflow:visible;visibility:visible;opacity:0.55;fill:none;stroke:url(#linearGradient3161);stroke-width:0.651034;stroke-linecap:round;stroke-linejoin:round;stroke-miterlimit:4;stroke-dasharray:none;stroke-dashoffset:0;stroke-opacity:1;marker:none;enable-background:accumulate" />
    <path
       d="m 31.932308,1027.218 c -4.509681,0 -8.136022,-3.6281 -8.136022,-8.1398 0,-4.5118 3.626341,-8.1399 8.136022,-8.1399 4.509682,0 8.136021,3.6281 8.136021,8.1399 0,4.5117 -3.626339,8.1398 -8.136021,8.1398 z"
       id="path3281"
       style="opacity:0.4;fill:none;stroke:url(#linearGradient3158);stroke-width:0.651034;stroke-miterlimit:4;stroke-dasharray:none;stroke-opacity:1" />
  </g>
</svg>
