<?xml version="1.0" encoding="UTF-8" standalone="no"?>
<svg
   version="1.1"
   width="96"
   height="96"
   id="svg3049"
   sodipodi:docname="application-x-rpm.svg"
   inkscape:version="1.1.1 (3bf5ae0d25, 2021-09-20)"
   xmlns:inkscape="http://www.inkscape.org/namespaces/inkscape"
   xmlns:sodipodi="http://sodipodi.sourceforge.net/DTD/sodipodi-0.dtd"
   xmlns:xlink="http://www.w3.org/1999/xlink"
   xmlns="http://www.w3.org/2000/svg"
   xmlns:svg="http://www.w3.org/2000/svg"
   xmlns:rdf="http://www.w3.org/1999/02/22-rdf-syntax-ns#"
   xmlns:cc="http://creativecommons.org/ns#"
   xmlns:dc="http://purl.org/dc/elements/1.1/">
  <sodipodi:namedview
     id="namedview55"
     pagecolor="#ffffff"
     bordercolor="#666666"
     borderopacity="1.0"
     inkscape:pageshadow="2"
     inkscape:pageopacity="0.0"
     inkscape:pagecheckerboard="0"
     showgrid="false"
     inkscape:zoom="73.176658"
     inkscape:cx="49.640146"
     inkscape:cy="33.439625"
     inkscape:window-width="1801"
     inkscape:window-height="858"
     inkscape:window-x="99"
     inkscape:window-y="96"
     inkscape:window-maximized="0"
     inkscape:current-layer="svg3049" />
  <defs
     id="defs3051">
    <linearGradient
       id="linearGradient3811">
      <stop
         id="stop3813"
         style="stop-color:#000000;stop-opacity:1"
         offset="0" />
      <stop
         id="stop3815"
         style="stop-color:#000000;stop-opacity:0"
         offset="1" />
    </linearGradient>
    <linearGradient
       xlink:href="#linearGradient121303"
       id="linearGradient121764"
       gradientUnits="userSpaceOnUse"
       gradientTransform="matrix(2.0331557,0,0,1.745505,-0.69079033,15.771592)"
       x1="25.086039"
       y1="-1.3623691"
       x2="25.086039"
       y2="18.299334" />
    <linearGradient
       id="linearGradient121303">
      <stop
         id="stop121295"
         style="stop-color:#ffffff;stop-opacity:1"
         offset="0" />
      <stop
         id="stop121297"
         style="stop-color:#ffffff;stop-opacity:0.23529412"
         offset="0.11419468" />
      <stop
         id="stop121299"
         style="stop-color:#ffffff;stop-opacity:0.15686275"
         offset="0.93896598" />
      <stop
         id="stop121301"
         style="stop-color:#ffffff;stop-opacity:0.39215687"
         offset="1" />
    </linearGradient>
    <linearGradient
       xlink:href="#linearGradient3924-2-2-5-8"
       id="linearGradient121760"
       gradientUnits="userSpaceOnUse"
       gradientTransform="matrix(2.0270272,0,0,1.6756756,-0.6486551,16.283787)"
       x1="23.99999"
       y1="5.9204559"
       x2="23.99999"
       y2="42.079544" />
    <linearGradient
       id="linearGradient3924-2-2-5-8">
      <stop
         id="stop3926-9-4-9-6"
         style="stop-color:#ffffff;stop-opacity:1"
         offset="0" />
      <stop
         id="stop3928-9-8-6-5"
         style="stop-color:#ffffff;stop-opacity:0.23529412"
         offset="0.09302325" />
      <stop
         id="stop3930-3-5-1-7"
         style="stop-color:#ffffff;stop-opacity:0.15686275"
         offset="0.9069767" />
      <stop
         id="stop3932-8-0-4-8"
         style="stop-color:#ffffff;stop-opacity:0.39215687"
         offset="1" />
    </linearGradient>
    <linearGradient
       xlink:href="#d"
       id="linearGradient121758"
       gradientUnits="userSpaceOnUse"
       gradientTransform="matrix(2.4012199,0,0,2.1906549,-8.4506609,-3.9837811)"
       x1="23.452"
       y1="30.555"
       x2="43.007"
       y2="45.933998" />
    <linearGradient
       id="d">
      <stop
         offset="0"
         stop-color="#fff"
         stop-opacity="0"
         id="stop65" />
      <stop
         offset="1"
         stop-color="#fff"
         stop-opacity="0"
         id="stop67" />
    </linearGradient>
    <linearGradient
       xlink:href="#linearGradient855"
       id="linearGradient121756"
       gradientUnits="userSpaceOnUse"
       gradientTransform="matrix(2.4079953,0,0,2.5904958,81.141271,-24.975762)"
       x1="-5.8870335"
       y1="19.72085"
       x2="-5.8870335"
       y2="43.375748" />
    <linearGradient
       xlink:href="#linearGradient855"
       id="linearGradient1703"
       gradientUnits="userSpaceOnUse"
       gradientTransform="matrix(2.4080002,0,0,2.5879287,81.169866,-24.86398)"
       x1="-5.8870335"
       y1="11.482978"
       x2="-5.8870335"
       y2="22.148865" />
    <radialGradient
       cx="5"
       cy="41.5"
       fx="5"
       fy="41.5"
       gradientTransform="matrix(2.0040711,0,0,3.2,245.36093,-195.09167)"
       gradientUnits="userSpaceOnUse"
       xlink:href="#linearGradient3811"
       id="k-0-7-3-9-3"
       r="5" />
    <linearGradient
       xlink:href="#h"
       id="linearGradient121754"
       gradientUnits="userSpaceOnUse"
       gradientTransform="matrix(4.220013,0,0,2.9091,107.67852,-55.528333)"
       x1="17.554001"
       y1="46"
       x2="17.554001"
       y2="35" />
    <linearGradient
       id="h">
      <stop
         offset="0"
         stop-opacity="0"
         id="stop54" />
      <stop
         offset=".5"
         id="stop56" />
      <stop
         offset="1"
         stop-opacity="0"
         id="stop58" />
    </linearGradient>
    <radialGradient
       cx="5"
       cy="41.5"
       fx="5"
       fy="41.5"
       gradientTransform="matrix(2.0040711,0,0,3.2,-168.33971,-195.09167)"
       gradientUnits="userSpaceOnUse"
       xlink:href="#linearGradient3811"
       id="i-6-9-7-8-9"
       r="5" />
    <linearGradient
       id="linearGradient855">
      <stop
         id="stop851"
         offset="0"
         style="stop-color:#fafafa;stop-opacity:1" />
      <stop
         id="stop853"
         offset="1"
         style="stop-color:#d4d4d4;stop-opacity:1" />
    </linearGradient>
  </defs>
  <metadata
     id="metadata3054">
    <rdf:RDF>
      <cc:Work
         rdf:about="">
        <dc:format>image/svg+xml</dc:format>
        <dc:type
           rdf:resource="http://purl.org/dc/dcmitype/StillImage" />
      </cc:Work>
    </rdf:RDF>
  </metadata>
  <rect
     style="color:#000000;display:inline;overflow:visible;visibility:visible;opacity:0.5;fill:none;stroke:none;stroke-width:0.999997;stroke-linecap:round;stroke-linejoin:round;stroke-miterlimit:4;stroke-dasharray:none;stroke-dashoffset:0;stroke-opacity:1;marker:none;enable-background:accumulate"
     id="rect5505-21-3-1"
     y="11.657606"
     x="9.3749914"
     ry="7.5"
     rx="7.5"
     height="77.25"
     width="77.25" />
  <g
     id="g3005"
     transform="matrix(0.70059488,0,0,0.75,-96.916965,33.78125)"
     style="stroke-width:1.37955">
    <rect
       fill="url(#i)"
       height="32"
       opacity="0.4"
       transform="scale(-1)"
       width="9.9915085"
       x="-158.31827"
       y="-78.291664"
       id="rect77-9-90-2-7-8"
       style="fill:url(#i-6-9-7-8-9);stroke-width:1.37955" />
    <rect
       fill="url(#j)"
       height="32"
       opacity="0.4"
       width="97.060371"
       x="158.31827"
       y="46.291668"
       id="rect79-7-2-0-1-4"
       style="fill:url(#linearGradient121754);stroke-width:1.37955" />
    <rect
       fill="url(#k)"
       height="32"
       opacity="0.4"
       transform="scale(1,-1)"
       width="9.9915085"
       x="255.37863"
       y="-78.291664"
       id="rect81-3-8-6-7-8"
       style="fill:url(#k-0-7-3-9-3);stroke-width:1.37955" />
  </g>
  <path
     id="rect5505-21-1-5-0-6-5-1-2-5-10"
     style="color:#000000;font-variation-settings:normal;display:inline;overflow:visible;visibility:visible;vector-effect:none;fill:url(#linearGradient1703);fill-opacity:1;fill-rule:nonzero;stroke:none;stroke-width:0.999997;stroke-linecap:butt;stroke-linejoin:miter;stroke-miterlimit:4;stroke-dasharray:none;stroke-dashoffset:0;stroke-opacity:0.3;-inkscape-stroke:none;marker:none;enable-background:accumulate;stop-color:#000000"
     d="m 23.500001,11.5 c -4.6536,0 -6.509999,2.747488 -8.4,7 -1.448692,3.250967 -3.134251,6.614613 -4.473435,9.8 -0.712237,1.234994 -1.1265658,2.666289 -1.1265658,4.200001 H 86.5 C 86.5,30.966289 86.085673,29.534994 85.373438,28.3 83.997948,25.130745 82.389195,21.73274 80.9,18.5 c -1.947256,-4.226603 -3.746402,-7 -8.399997,-7 z" />
  <path
     id="rect5505-21-1-5-0-6-5-1-2-3"
     style="color:#000000;font-variation-settings:normal;display:inline;overflow:visible;visibility:visible;vector-effect:none;fill:url(#linearGradient121756);fill-opacity:1;fill-rule:nonzero;stroke:none;stroke-width:1;stroke-linecap:butt;stroke-linejoin:miter;stroke-miterlimit:4;stroke-dasharray:none;stroke-dashoffset:0;stroke-opacity:0.3;-inkscape-stroke:none;marker:none;enable-background:accumulate;stop-color:#000000"
     d="M 17.899973,25 C 14.39998,25 9.5000002,26.866446 9.5000002,34.323177 V 80.98538 c 0,4.1631 3.3341748,7.51462 7.4757288,7.51462 h 0.924244 60.200054 0.924246 C 83.165825,88.5 86.5,85.14848 86.5,80.98538 V 34.837159 C 86.5,29.588025 84.40001,25 78.100027,25 Z" />
  <path
     d="m 21.547032,23.646793 h 51.784574 c 3.023929,0 4.894744,1.037807 6.161622,3.891079 l 4.361025,11.972549 V 82.67174 c 0,2.723197 -1.533735,4.095285 -4.556258,4.095285 H 16.125593 c -3.022523,0 -4.255689,-1.509158 -4.255689,-4.232355 V 39.507624 L 16.09048,27.27912 c 0.84271,-2.209887 2.43403,-3.633726 5.456552,-3.633726 z"
     display="block"
     fill="none"
     opacity="0.505"
     overflow="visible"
     stroke="url(#m)"
     stroke-width="0.742"
     style="stroke:url(#linearGradient121758);marker:none"
     id="path85-1-8-5-7-0" />
  <rect
     style="opacity:1;fill:none;stroke:url(#linearGradient121760);stroke-width:0.999996;stroke-linecap:round;stroke-linejoin:round;stroke-miterlimit:4;stroke-dasharray:none;stroke-dashoffset:0;stroke-opacity:1"
     id="rect6741-5-0-2-3-4-2-4"
     y="25.499998"
     x="10.499996"
     ry="6.9652252"
     height="62.000008"
     width="75.000008"
     rx="6.9530587" />
  <path
     d="m 44,11.28125 h 8 l 1,14.25 V 34 C 52.131386,34 50.778962,32.41131 49.8,32.41131 48.799502,32.41131 48.202153,34 47.2,34 46.394964,34 45.506691,32.58869 44.7,32.58869 44.173249,32.58869 43.526753,34 43,34 v -8.46875 z"
     fill="url(#n)"
     opacity="0.3"
     overflow="visible"
     style="opacity:0.6;fill:#ffffff;fill-opacity:1;stroke-width:0.535152;marker:none"
     id="path87-0-9-7-6-4"
     sodipodi:nodetypes="ccccsssccc" />
  <path
     id="rect5505-21-1-5-0-6-5-1-2-5-1-4"
     style="color:#000000;font-variation-settings:normal;display:inline;overflow:visible;visibility:visible;opacity:0.5;vector-effect:none;fill:none;fill-opacity:1;fill-rule:nonzero;stroke:#555761;stroke-width:0.999993;stroke-linecap:round;stroke-linejoin:round;stroke-miterlimit:4;stroke-dasharray:none;stroke-dashoffset:0;stroke-opacity:1;-inkscape-stroke:none;marker:none;enable-background:accumulate;stop-color:#000000;stop-opacity:1"
     d="m 23.499468,11.499997 c -4.653602,0 -6.509974,2.747222 -8.399974,6.999735 -1.448694,3.250965 -3.133113,6.614825 -4.472297,9.800212 -0.7122348,1.234995 -1.1271985,2.665546 -1.1271985,4.199257 v 23.320769 24.280055 0.924247 c 0,4.141554 3.3341745,7.475729 7.4757275,7.475729 h 0.924246 60.200055 0.924245 c 4.141555,0 7.475729,-3.334175 7.475729,-7.475729 V 80.100025 55.81997 32.499201 c 0,-1.533711 -0.414963,-2.964262 -1.127197,-4.199257 -1.37549,-3.169255 -2.9831,-6.567473 -4.472295,-9.800212 -1.947256,-4.226605 -3.746372,-6.999735 -8.399977,-6.999735 z" />
  <path
     id="rect5505-21-1-5-0-6-5-1-2-5-1-7-7"
     style="color:#000000;font-variation-settings:normal;display:inline;overflow:visible;visibility:visible;opacity:0.5;vector-effect:none;fill:none;fill-opacity:1;fill-rule:nonzero;stroke:url(#linearGradient121764);stroke-width:0.999987;stroke-linecap:round;stroke-linejoin:round;stroke-miterlimit:4;stroke-dasharray:none;stroke-dashoffset:0;stroke-opacity:1;-inkscape-stroke:none;marker:none;enable-background:accumulate;stop-color:#000000"
     d="m 84.500005,28.387204 -4.395431,-9.571806 c -0.966308,-2.120862 -1.866432,-3.750676 -2.913563,-4.765284 -1.047139,-1.014609 -2.726474,-1.55012 -4.794925,-1.55012 H 23.588073 c -2.071177,0 -3.601609,0.534792 -4.652342,1.544514 -1.050733,1.009723 -1.9442,2.627763 -2.877552,4.751273 v 0.0028 l -4.558184,9.70139" />
  <g
     transform="matrix(0.11248655,0,0,0.11248655,25.461564,53.850751)"
     id="g9642"
     style="stroke-width:12.9775">
    <path
       d="m 140.21936,-83.883433 c 9.4275,-1.449 18.945,-2.508001 28.4775,-3.010501 1.6935,-0.403499 3.4455,-0.321074 5.17575,-0.382875 13.53,-0.431474 27.075,-0.411974 40.5975,0.197176 24.405,1.72575 48.69,5.780249 72.2325,12.539999 l -0.0997,0.132225 c -3.4515,4.668001 -6.9135,9.33 -10.2975,14.0475 -1.014,0.187125 -1.902,-0.45435 -2.805,-0.777 -17.865,-7.37025 -36.8775,-11.6475 -56.01,-13.965 -31.4775,-3.2235 -63.705,-0.633525 -93.9,9.052501 -22.23,7.190999 -43.702501,18.277499 -60.285001,35.002502 -11.7525,12.014996 -20.7675,27.5550035 -21.9975,44.587503 -1.13925,8.115 0.804,16.215 2.523,24.0975 l -74.565003,13.1475 c -0.180225,-13.155 3.25275,-26.175 8.715,-38.0775 10.8675,-23.175 29.7149995,-41.692503 50.707503,-55.867506 14.1975,-9.5325 29.542499,-17.31 45.4875,-23.475 21.239999,-8.3025 43.485001,-13.9725 66.045001,-17.2425 z"
       style="fill:#666666;fill-opacity:1;stroke-width:12.9775"
       sodipodi:nodetypes="cccccccccccccccccc"
       id="path9634" />
    <path
       d="m 276.34436,-60.363433 c 3.38475,-4.716 6.846,-9.375 10.2975,-14.0475 31.6125,9.254999 62.1375,23.879999 87.075,45.660002 10.1925,9.127496 19.4175,19.4550035 26.4975,31.2075035 8.385,13.8300005 13.7025,29.6700005 14.2725,45.8925005 -24.795,-4.3335 -49.575,-8.7 -74.37,-13.050001 3.051,-9.704999 3.07725,-20.265 0.98775,-30.1724995 -3.87225,-17.1149995 -14.8425,-31.8075035 -28.08,-42.9600055 -11.0325,-9.285 -23.6175,-16.725 -36.9525,-22.17 z"
       style="fill:#ed5353;fill-opacity:1;stroke-width:12.9775"
       id="path9636" />
    <path
       d="m 184.91936,7.9615725 c 1.4595,-2.37675 4.029,-4.272 6.95175,-3.92025 3.30375,0.084525 5.84925,2.814 6.53325,5.904 l 233.1,41.4600005 -0.7785,3.9045 -233.025,-40.86 c -1.8585,3.234 -6.171,4.904249 -9.555,2.99475 -2.34825,-1.02675 -3.15,-3.54 -4.20975,-5.64825 l -14.3475,-2.2987505 0.65768,-4.03575 z"
       sodipodi:nodetypes="ccccccccccc"
       id="path9638"
       style="fill:#666666;fill-opacity:1;stroke-width:12.9775" />
    <path
       d="m 75.719363,121.66252 0.130725,-58.012498 24.675002,0.04605 c 26.01,0.0486 31.86,0.422399 43.395,2.7735 28.2825,5.763 47.055,19.32 50.7375,36.637498 3.73425,17.5575 -10.17,33.5925 -38.28,44.16 -10.11,3.80025 -23.8275,6.78075 -34.7325,7.5525 l -4.67325,0.3291 -0.13988,9.3225 -0.13987,9.3225 -1.659,0.2967 c -0.91275,0.1632 -9.405,1.353 -18.877502,2.6445 -9.4725,1.2915 -17.97,2.48025 -18.8925,2.643 l -1.6725,0.29535 z m 45.007497,22.38 c 1.32675,-0.31177 4.725,-1.6755 7.5525,-3.03075 10.635,-5.09625 18.3975,-12.3375 22.575,-21.0675 3.23175,-6.74325 3.47175,-13.0725 0.77025,-20.294999 -3.09375,-8.272499 -11.9325,-17.264999 -21.8925,-22.289999 -3.2805,-1.6545 -9.81,-3.681 -11.85,-3.681 h -1.167 v 35.467498 c 0,31.7625 0.0836,35.4675 0.80025,35.4675 0.44018,0 1.8855,-0.25515 3.21225,-0.56692 z M -30.773139,108.89002 V 63.402521 h 41.1225 v 1.092 c 0,0.96 0.20205,1.05075 1.670249,0.748575 9.652501,-1.98525 24.202504,-2.88225 30.442503,-1.875 2.166751,0.3495 5.51325,1.17075 7.437001,1.82475 4.07325,1.38525 11.3175,4.51725 11.31,4.8915 -0.0022,0.141375 -1.90575,1.395 -4.23075,2.7855 -2.325,1.3905 -7.28625,4.46775 -11.025,6.83775 l -6.798,4.30875 -1.9245,-1.308 c -3.87225,-2.631 -8.0175,-3.62925 -15.060003,-3.62925 -3.71775,0 -7.56,0.29235 -9.12,0.69375 l -2.6985,0.69375 V 154.3791 h -41.1225 z m 252.899999,-0.0342 V 63.330822 l 80.55,0.224699 c 81.75,0.228001 84.225,0.285601 94.65,2.196001 7.8075,1.431 12.3975,3.16425 14.8425,5.60925 l 2.18475,2.18325 v 80.849998 h -41.1225 V 74.819022 l -2.18475,-0.939001 c -1.91175,-0.822 -4.06275,-0.962249 -17.22,-1.124249 l -15.0375,-0.185325 v 81.825003 h -41.115 l -0.26332,-79.800004 -2.05575,-0.79125 c -1.63275,-0.6285 -5.15325,-0.8325 -17.0925,-0.99225 l -15.0375,-0.2004 v 81.825004 h -41.1225 z"
       style="fill:#666666;fill-opacity:1;stroke-width:8.89335"
       id="path9640" />
  </g>
</svg>
