<?xml version="1.0" encoding="UTF-8" standalone="no"?>
<svg
   id="svg4045"
   height="96"
   width="96"
   version="1.1"
   sodipodi:docname="application-x-fictionbook+xml.svg"
   inkscape:version="1.1.2 (0a00cf5339, 2022-02-04)"
   xmlns:inkscape="http://www.inkscape.org/namespaces/inkscape"
   xmlns:sodipodi="http://sodipodi.sourceforge.net/DTD/sodipodi-0.dtd"
   xmlns:xlink="http://www.w3.org/1999/xlink"
   xmlns="http://www.w3.org/2000/svg"
   xmlns:svg="http://www.w3.org/2000/svg"
   xmlns:rdf="http://www.w3.org/1999/02/22-rdf-syntax-ns#"
   xmlns:cc="http://creativecommons.org/ns#"
   xmlns:dc="http://purl.org/dc/elements/1.1/">
  <sodipodi:namedview
     id="namedview62"
     pagecolor="#ffffff"
     bordercolor="#666666"
     borderopacity="1.0"
     inkscape:pageshadow="2"
     inkscape:pageopacity="0.0"
     inkscape:pagecheckerboard="0"
     showgrid="false"
     width="96px"
     inkscape:zoom="7.1041668"
     inkscape:cx="43.214075"
     inkscape:cy="64.328445"
     inkscape:window-width="1317"
     inkscape:window-height="893"
     inkscape:window-x="597"
     inkscape:window-y="135"
     inkscape:window-maximized="0"
     inkscape:current-layer="svg4045" />
  <defs
     id="defs4047">
    <linearGradient
       id="linearGradient4405">
      <stop
         id="stop4407"
         style="stop-color:#ffffff;stop-opacity:1"
         offset="0" />
      <stop
         id="stop4409"
         style="stop-color:#ffffff;stop-opacity:0.23529412"
         offset="0" />
      <stop
         id="stop4411"
         style="stop-color:#ffffff;stop-opacity:0.15686275"
         offset="1" />
      <stop
         id="stop4413"
         style="stop-color:#ffffff;stop-opacity:0.39215687"
         offset="1" />
    </linearGradient>
    <linearGradient
       id="linearGradient2867-449-88-871-390-598-476-591-434-148-57-177-641-289-620-227-114-444-680-744-8">
      <stop
         offset="0"
         style="stop-color:#5f5f5f;stop-opacity:1"
         id="stop5430-8" />
      <stop
         offset="0.26238"
         style="stop-color:#4f4f4f;stop-opacity:1"
         id="stop5432-3" />
      <stop
         offset="0.704952"
         style="stop-color:#3b3b3b;stop-opacity:1"
         id="stop5434-1" />
      <stop
         offset="1"
         style="stop-color:#2b2b2b;stop-opacity:1"
         id="stop5436-8" />
    </linearGradient>
    <linearGradient
       id="linearGradient3707-319-631-407-324-616-674-812-821-107-178-392-400-6">
      <stop
         offset="0"
         style="stop-color:#272727;stop-opacity:1"
         id="stop5440-4" />
      <stop
         offset="1"
         style="stop-color:#454545;stop-opacity:1"
         id="stop5442-3" />
    </linearGradient>
    <linearGradient
       id="linearGradient3707-319-631-407-324-616-674-812-821-107-178-392-400-6-2">
      <stop
         offset="0"
         style="stop-color:#272727;stop-opacity:1"
         id="stop5440-4-8" />
      <stop
         offset="1"
         style="stop-color:#454545;stop-opacity:1"
         id="stop5442-3-8" />
    </linearGradient>
    <radialGradient
       gradientTransform="matrix(1.9035948,0,0,1.4,28.738724,-17.4)"
       gradientUnits="userSpaceOnUse"
       xlink:href="#linearGradient3688-166-749"
       id="radialGradient3013"
       fy="43.5"
       fx="4.9929786"
       r="2.5"
       cy="43.5"
       cx="4.9929786" />
    <linearGradient
       id="linearGradient3688-166-749">
      <stop
         offset="0"
         style="stop-color:#181818;stop-opacity:1"
         id="stop2883" />
      <stop
         offset="1"
         style="stop-color:#181818;stop-opacity:0"
         id="stop2885" />
    </linearGradient>
    <radialGradient
       gradientTransform="matrix(1.9035948,0,0,1.4,-19.261276,-104.4)"
       gradientUnits="userSpaceOnUse"
       xlink:href="#linearGradient3688-464-309"
       id="radialGradient3015"
       fy="43.5"
       fx="4.9929786"
       r="2.5"
       cy="43.5"
       cx="4.9929786" />
    <linearGradient
       id="linearGradient3688-464-309">
      <stop
         offset="0"
         style="stop-color:#181818;stop-opacity:1"
         id="stop2889" />
      <stop
         offset="1"
         style="stop-color:#181818;stop-opacity:0"
         id="stop2891" />
    </linearGradient>
    <linearGradient
       id="linearGradient3702-501-757">
      <stop
         offset="0"
         style="stop-color:#181818;stop-opacity:0"
         id="stop2895" />
      <stop
         offset="0.5"
         style="stop-color:#181818;stop-opacity:1"
         id="stop2897" />
      <stop
         offset="1"
         style="stop-color:#181818;stop-opacity:0"
         id="stop2899" />
    </linearGradient>
    <linearGradient
       gradientUnits="userSpaceOnUse"
       xlink:href="#linearGradient3702-501-757"
       id="linearGradient4043"
       y2="39.999443"
       x2="25.058096"
       y1="47.027729"
       x1="25.058096"
       gradientTransform="matrix(1.0178571,0,0,1,-0.42857095,0)" />
    <linearGradient
       gradientTransform="matrix(1.8648647,0,0,2.1891894,3.2432464,-4.5405185)"
       gradientUnits="userSpaceOnUse"
       xlink:href="#linearGradient4405"
       id="linearGradient3072"
       y2="42.025627"
       x2="23.99999"
       y1="5.9743481"
       x1="23.99999" />
    <radialGradient
       gradientTransform="matrix(3.8856932e-8,4.9735944,-4.9445131,-9.1632587e-8,93.280202,-29.540728)"
       gradientUnits="userSpaceOnUse"
       xlink:href="#linearGradient2867-449-88-871-390-598-476-591-434-148-57-177-641-289-620-227-114-444-680-744-8"
       id="radialGradient3075"
       fy="8.4497671"
       fx="7.4956832"
       r="19.99999"
       cy="8.4497671"
       cx="7.4956832" />
    <linearGradient
       gradientTransform="matrix(1.9999999,0,0,2.1282051,3.5000032,-3.0769239)"
       gradientUnits="userSpaceOnUse"
       xlink:href="#linearGradient3707-319-631-407-324-616-674-812-821-107-178-392-400-6"
       id="linearGradient3077"
       y2="3.8990016"
       x2="24"
       y1="44"
       x1="24" />
    <linearGradient
       gradientUnits="userSpaceOnUse"
       xlink:href="#linearGradient4323"
       id="linearGradient3085"
       y2="2.7565014"
       x2="10.654308"
       y1="1.0618905"
       x1="10.654308"
       gradientTransform="matrix(2.0288513,0,0,2.022925,-0.6875332,-0.5201625)" />
    <linearGradient
       gradientTransform="matrix(2.0288513,0,0,0.20747819,3.3706991,-0.44230204)"
       gradientUnits="userSpaceOnUse"
       xlink:href="#linearGradient3707-319-631-407-324-616-674-812-821-107-178-392-400-6-2"
       id="linearGradient3087"
       y2="3.8990016"
       x2="24"
       y1="44"
       x1="24" />
    <linearGradient
       id="linearGradient4323">
      <stop
         id="stop4325"
         style="stop-color:#fafafa;stop-opacity:1"
         offset="0" />
      <stop
         id="stop4327"
         style="stop-color:#d4d4d4;stop-opacity:1"
         offset="1" />
    </linearGradient>
    <linearGradient
       y2="8.4245768"
       x2="61.306068"
       y1="7.6589384"
       x1="61.306068"
       gradientTransform="matrix(2.735905,0,0,4.468208,-127.60187,-32.653433)"
       gradientUnits="userSpaceOnUse"
       id="linearGradient4361"
       xlink:href="#linearGradient4323" />
    <radialGradient
       cx="24.501682"
       cy="6.6475959"
       r="17.49832"
       fx="24.501682"
       fy="6.6475959"
       id="radialGradient3080"
       xlink:href="#linearGradient8967"
       gradientUnits="userSpaceOnUse"
       gradientTransform="matrix(0,5.5586098,-6.4647187,0,91.97484,-130.37257)" />
    <linearGradient
       id="linearGradient8967">
      <stop
         id="stop8969"
         style="stop-color:#ffbd5d;stop-opacity:1"
         offset="0" />
      <stop
         id="stop8971"
         style="stop-color:#d17b01;stop-opacity:1"
         offset="1" />
    </linearGradient>
    <linearGradient
       x1="32.901409"
       y1="4.6481781"
       x2="32.901409"
       y2="61.481758"
       id="linearGradient3082"
       xlink:href="#linearGradient3319"
       gradientUnits="userSpaceOnUse"
       gradientTransform="matrix(1.4229684,0,0,1.4929295,3.4650109,-0.85994367)" />
    <linearGradient
       id="linearGradient3319">
      <stop
         id="stop3321"
         style="stop-color:#fc9501;stop-opacity:1"
         offset="0" />
      <stop
         id="stop3323"
         style="stop-color:#6b440d;stop-opacity:1"
         offset="1" />
    </linearGradient>
  </defs>
  <metadata
     id="metadata4050">
    <rdf:RDF>
      <cc:Work
         rdf:about="">
        <dc:format>image/svg+xml</dc:format>
        <dc:type
           rdf:resource="http://purl.org/dc/dcmitype/StillImage" />
      </cc:Work>
    </rdf:RDF>
  </metadata>
  <g
     style="opacity:0.4;stroke-width:0.5"
     id="g3712"
     transform="matrix(2.1052632,0,0,1.1428571,-2.5263168,39.285716)">
    <rect
       style="fill:url(#radialGradient3013);fill-opacity:1;stroke:none;stroke-width:0.5"
       id="rect2801"
       y="40"
       x="38.25"
       height="7"
       width="4.75" />
    <rect
       style="fill:url(#radialGradient3015);fill-opacity:1;stroke:none;stroke-width:0.5"
       id="rect3696"
       transform="scale(-1)"
       y="-47"
       x="-9.75"
       height="7"
       width="4.75" />
    <rect
       style="fill:url(#linearGradient4043);fill-opacity:1;stroke:none;stroke-width:0.5"
       id="rect3700"
       y="40"
       x="9.75"
       height="7.0000005"
       width="28.499998" />
  </g>
  <path
     style="color:#000000;clip-rule:nonzero;display:inline;overflow:visible;visibility:visible;opacity:1;isolation:auto;mix-blend-mode:normal;color-interpolation:sRGB;color-interpolation-filters:linearRGB;solid-color:#000000;solid-opacity:1;fill:url(#linearGradient4361);fill-opacity:1;fill-rule:nonzero;stroke:#b87514;stroke-width:1;stroke-linecap:butt;stroke-linejoin:round;stroke-miterlimit:0;stroke-dasharray:none;stroke-dashoffset:0;stroke-opacity:1;color-rendering:auto;image-rendering:auto;shape-rendering:auto;text-rendering:auto;enable-background:accumulate"
     id="path2723"
     d="M 81.5,7.0000001 V 0.49999999 L 20.5,0.5 v 6.5000002"
     sodipodi:nodetypes="cccc" />
  <path
     style="color:#000000;display:inline;overflow:visible;visibility:visible;fill:url(#linearGradient3085);fill-opacity:1;fill-rule:nonzero;stroke:url(#linearGradient3087);stroke-width:1;stroke-linecap:round;stroke-linejoin:round;stroke-miterlimit:4;stroke-dasharray:none;stroke-dashoffset:0;stroke-opacity:1;marker:none;enable-background:accumulate"
     id="rect5505-21-3-9"
     d="M 22.5,8.0493391 12.485574,7.9506609 12.5,2.8 c 0.005,-1.7961874 1.134721,-2.3 2.61956,-2.3 H 22.5"
     sodipodi:nodetypes="ccssc" />
  <rect
     width="69"
     height="83"
     rx="2"
     ry="2"
     x="14.5"
     y="6.5"
     id="rect2719-3"
     style="display:inline;fill:url(#radialGradient3080);fill-opacity:1;stroke:url(#linearGradient3082);stroke-width:1;stroke-linecap:round;stroke-linejoin:round;stroke-miterlimit:0;stroke-dasharray:none;stroke-dashoffset:0;stroke-opacity:1" />
  <path
     style="color:#000000;display:inline;overflow:visible;visibility:visible;fill:url(#radialGradient3075);fill-opacity:1;fill-rule:nonzero;stroke:url(#linearGradient3077);stroke-width:1;stroke-linecap:round;stroke-linejoin:round;stroke-miterlimit:4;stroke-dasharray:none;stroke-dashoffset:0;stroke-opacity:1;marker:none;enable-background:accumulate"
     id="rect5505-21-3"
     d="m 22.5,6.4999999 c 0,0 0,57.7135791 0,82.9999981 H 14.500001 C 13.358304,89.499998 12.5,88.621514 12.5,87.475608 V 6.4999999 Z" />
  <rect
     style="opacity:0.3;fill:none;stroke:url(#linearGradient3072);stroke-width:1;stroke-linecap:round;stroke-linejoin:round;stroke-miterlimit:4;stroke-dasharray:none;stroke-dashoffset:0;stroke-opacity:1"
     id="rect6741-0"
     y="7.5"
     x="13.499999"
     height="81"
     width="69"
     rx="1"
     ry="1" />
  <path
     d="m 50.782938,22.061818 c -0.522668,0.0186 -0.656544,0.06894 -0.716114,0.12698 -0.12296,0.1199 -0.06512,1.686908 -0.06512,26.618912 0,21.314478 -0.015,27.004704 0.06512,27.082984 0.1492,0.14552 7.933202,0.10834 7.933202,0.10834 0,0 0,-0.64963 0,-1.40942 0,-0.885242 0,-1.14186 0,-1.14186 0,0 0.211036,0.317052 0.464876,0.601684 0.959102,1.075442 2.763596,1.890344 4.01806,2.22221 2.953824,0.45429 6.762914,-1.03037 7.517064,-3.555546 0.14384,-0.516172 0.19532,-0.914032 0.19532,-18.384614 0,-17.470586 -0.05144,-18.594842 -0.19532,-19.111016 -1.763636,-3.411882 -4.49217,-3.836734 -7.972772,-3.49205 -1.196514,0.417112 -2.725464,1.231564 -3.627454,2.285704 -0.299108,0.34956 -0.29919,0.634918 -0.335908,0.634918 -0.03672,0 -0.1302,-2.108474 -0.1302,-5.793618 0,-6.538056 0.03276,-6.644958 -0.1302,-6.730126 -0.10756,-0.05616 -1.71833,-0.0635 -4.025864,-0.0635 -1.572986,0 -2.47198,-0.0186 -2.99465,0 z m 9.361112,16.352844 c 0.997142,-0.004 1.659062,0.611084 1.82283,1.841262 0.1108,0.832436 0.11118,27.456468 0,28.289326 -0.0456,0.34262 -0.147,0.837736 -0.260404,1.07936 -0.756036,0.786338 -1.63249,0.504132 -2.7208,0.36136 -0.598054,-0.3409 -0.90612,-0.745102 -0.999962,-1.333328 l 0.0104,-14.130666 c -0.0162,-10.173104 -0.05894,-14.233114 0.004,-14.522946 0.193,-0.889078 1.25253,-1.580572 2.144024,-1.584368 z"
     id="path4095-2"
     style="opacity:0.2;fill:#000000;fill-opacity:1;stroke:none;stroke-width:1" />
  <path
     d="m 50.782938,20.06251 c -0.522668,0.0186 -0.656544,0.06894 -0.716114,0.12698 -0.12296,0.1199 -0.06512,1.686908 -0.06512,26.618912 0,21.314478 -0.015,27.004704 0.06512,27.082984 0.1492,0.14552 7.933202,0.10834 7.933202,0.10834 0,0 0,-0.64963 0,-1.40942 0,-0.885242 0,-1.14186 0,-1.14186 0,0 0.211036,0.317052 0.464876,0.601684 0.959102,1.075442 2.763596,1.890344 4.01806,2.22221 2.953824,0.45429 6.762914,-1.03037 7.517064,-3.555546 0.14384,-0.516172 0.19532,-0.914032 0.19532,-18.384614 0,-17.470586 -0.05144,-18.594842 -0.19532,-19.111016 -1.763636,-3.411882 -4.520636,-4.054324 -7.972772,-3.49205 -1.250654,0.203702 -2.725464,1.231564 -3.627454,2.285704 -0.299108,0.34956 -0.29919,0.634918 -0.335908,0.634918 -0.03672,0 -0.1302,-2.108474 -0.1302,-5.793618 0,-6.538056 0.03276,-6.644958 -0.1302,-6.730126 -0.10756,-0.05616 -1.71833,-0.0635 -4.025864,-0.0635 -1.572986,0 -2.47198,-0.0186 -2.99465,0 z m 9.361112,16.352844 c 0.997142,-0.004 1.659062,0.611084 1.82283,1.841262 0.1108,0.832436 0.11118,27.456468 0,28.289326 -0.0456,0.34262 -0.147,0.837736 -0.260404,1.07936 -0.756036,0.786338 -1.63249,0.504132 -2.7208,0.36136 -0.598054,-0.3409 -0.90612,-0.745102 -0.999962,-1.333328 l 0.0104,-14.130666 c -0.0162,-10.173104 -0.05894,-14.233114 0.004,-14.522946 0.193,-0.889078 1.25253,-1.580572 2.144024,-1.584368 z"
     id="path4095"
     style="fill:#ffffff;fill-opacity:1;stroke:none;stroke-width:1" />
  <path
     d="m 44.058268,22.043364 c -2.242842,7.6e-5 -3.635478,0.07846 -4.455672,0.284952 -1.67666,0.422116 -2.989834,1.44144 -3.45649,2.992002 -0.13074,0.434388 -0.14608,0.952406 -0.14608,4.060576 V 31.99903 L 34.0196,32.01403 34,37.99903 h 2 v 19.264594 c 0.012,10.550202 0,18.735406 0,18.735406 h 8 V 57.303612 37.998072 h 1.007872 c 0.784236,-0.0168 0.992154,9.58e-4 0.992154,9.58e-4 0,0 0.016,-1.061988 0,-3.064202 V 31.99903 l -0.919084,0.015 -1.080916,-0.015 v -0.496 c -0.02564,-1.544776 -0.09374,-2.569098 0.204388,-2.905786 0.258274,-0.29167 0.601028,-0.512746 1.387834,-0.569906 l 0.407778,-0.07126 0.07308,-2.849526 c 0.0162,-2.038076 -0.0028,-2.838432 -0.07308,-2.920764 -0.07816,-0.09186 -0.281886,-0.14254 -1.9417,-0.14248 z"
     id="path4071-2"
     style="opacity:0.2;fill:#000000;fill-opacity:1;stroke:none;stroke-width:1" />
  <path
     d="m 44.058268,20.044056 c -2.242842,7.6e-5 -3.635478,0.07846 -4.455672,0.284952 -1.67666,0.422116 -2.989834,1.44144 -3.45649,2.992002 -0.13074,0.434388 -0.14608,0.952406 -0.14608,4.060576 v 2.618136 l -1.980426,0.015 -0.0196,5.985 h 2 v 19.264594 c 0.012,10.550202 0,18.735406 0,18.735406 h 8 V 55.304304 35.998764 h 1.007872 C 45.792082,35.981964 46,35.999722 46,35.999722 c 0,0 0.016,-1.061988 0,-3.064202 v -2.935798 l -0.919084,0.015 L 44,29.999722 v -0.496 c -0.02564,-1.544776 -0.09374,-2.569098 0.204388,-2.905786 0.258274,-0.29167 0.351412,-0.512746 1.138218,-0.569906 L 46,25.95677 46.07308,23.107244 C 46.08928,21.069168 46.07028,20.268812 46,20.18648 45.92184,20.09462 45.718114,20.04394 44.0583,20.044 Z"
     id="path4071"
     style="fill:#ffffff;fill-opacity:1;stroke:none;stroke-width:1" />
</svg>
