<?xml version="1.0" encoding="UTF-8" standalone="no"?>
<svg
   id="svg3901"
   height="96"
   width="96"
   version="1.1"
   sodipodi:docname="text-x-generic-template.svg"
   inkscape:version="1.1.1 (3bf5ae0d25, 2021-09-20)"
   xmlns:inkscape="http://www.inkscape.org/namespaces/inkscape"
   xmlns:sodipodi="http://sodipodi.sourceforge.net/DTD/sodipodi-0.dtd"
   xmlns:xlink="http://www.w3.org/1999/xlink"
   xmlns="http://www.w3.org/2000/svg"
   xmlns:svg="http://www.w3.org/2000/svg"
   xmlns:rdf="http://www.w3.org/1999/02/22-rdf-syntax-ns#"
   xmlns:cc="http://creativecommons.org/ns#">
  <sodipodi:namedview
     id="namedview41"
     pagecolor="#ffffff"
     bordercolor="#666666"
     borderopacity="1.0"
     inkscape:pageshadow="2"
     inkscape:pageopacity="0.0"
     inkscape:pagecheckerboard="0"
     showgrid="false"
     inkscape:zoom="16"
     inkscape:cx="68.125"
     inkscape:cy="89.875"
     inkscape:window-width="1396"
     inkscape:window-height="896"
     inkscape:window-x="613"
     inkscape:window-y="138"
     inkscape:window-maximized="0"
     inkscape:current-layer="g3138" />
  <defs
     id="defs3903">
    <linearGradient
       id="linearGradient3403">
      <stop
         id="stop3405"
         style="stop-color:#ffffff;stop-opacity:1"
         offset="0" />
      <stop
         id="stop3407"
         style="stop-color:#ffffff;stop-opacity:0.23529412"
         offset="0.00541497" />
      <stop
         id="stop3409"
         style="stop-color:#ffffff;stop-opacity:0.15686275"
         offset="1" />
      <stop
         id="stop3411"
         style="stop-color:#ffffff;stop-opacity:0.39215687"
         offset="1" />
    </linearGradient>
    <linearGradient
       id="linearGradient3600">
      <stop
         offset="0"
         style="stop-color:#f4f4f4;stop-opacity:1"
         id="stop3602" />
      <stop
         offset="1"
         style="stop-color:#dbdbdb;stop-opacity:1"
         id="stop3604" />
    </linearGradient>
    <linearGradient
       id="linearGradient5060">
      <stop
         offset="0"
         style="stop-color:#000000;stop-opacity:1"
         id="stop5062" />
      <stop
         offset="1"
         style="stop-color:#000000;stop-opacity:0"
         id="stop5064" />
    </linearGradient>
    <linearGradient
       id="linearGradient5048">
      <stop
         offset="0"
         style="stop-color:#000000;stop-opacity:0"
         id="stop5050" />
      <stop
         offset="0.5"
         style="stop-color:#000000;stop-opacity:1"
         id="stop5056" />
      <stop
         offset="1"
         style="stop-color:#000000;stop-opacity:0"
         id="stop5052" />
    </linearGradient>
    <linearGradient
       id="linearGradient3104-6">
      <stop
         id="stop3106-3"
         style="stop-color:#000000;stop-opacity:0.31782946"
         offset="0" />
      <stop
         id="stop3108-9"
         style="stop-color:#000000;stop-opacity:0.24031007"
         offset="1" />
    </linearGradient>
    <linearGradient
       y2="42.273762"
       x2="23.99999"
       y1="5.6275582"
       x1="23.99999"
       gradientTransform="matrix(1.8648648,0,0,2.3513513,3.2432558,-11.432408)"
       gradientUnits="userSpaceOnUse"
       id="linearGradient3106"
       xlink:href="#linearGradient3403" />
    <linearGradient
       y2="47.013336"
       x2="25.132275"
       y1="0.98520643"
       x1="25.132275"
       gradientTransform="matrix(1.9999954,0,0,1.9120955,1.0813194e-4,-3.8236272)"
       gradientUnits="userSpaceOnUse"
       id="linearGradient3109"
       xlink:href="#linearGradient3600" />
    <linearGradient
       y2="2.9062471"
       x2="-51.786404"
       y1="50.786446"
       x1="-51.786404"
       gradientTransform="matrix(1.6380632,0,0,1.8097673,119.83211,-6.5336729)"
       gradientUnits="userSpaceOnUse"
       id="linearGradient3170"
       xlink:href="#linearGradient3104-6" />
    <linearGradient
       gradientTransform="matrix(0.13730769,0,0,0.02882352,-1.626924,75.431978)"
       gradientUnits="userSpaceOnUse"
       xlink:href="#linearGradient5048"
       id="linearGradient3842"
       y2="609.50507"
       x2="302.85715"
       y1="366.64789"
       x1="302.85715" />
    <radialGradient
       gradientTransform="matrix(-0.04698948,0,0,0.02882352,43.168704,75.431978)"
       gradientUnits="userSpaceOnUse"
       xlink:href="#linearGradient5060"
       id="radialGradient3156"
       fy="486.64789"
       fx="605.71429"
       r="117.14286"
       cy="486.64789"
       cx="605.71429" />
    <radialGradient
       gradientTransform="matrix(0.04698949,0,0,0.02882352,52.831289,75.431978)"
       gradientUnits="userSpaceOnUse"
       xlink:href="#linearGradient5060"
       id="radialGradient3153"
       fy="486.64789"
       fx="605.71429"
       r="117.14286"
       cy="486.64789"
       cx="605.71429" />
    <linearGradient
       xlink:href="#linearGradient3104-5-2"
       id="linearGradient4132"
       gradientUnits="userSpaceOnUse"
       gradientTransform="matrix(1.5068494,0,0,1.5195207,-3.517543,-4.34625)"
       x1="22.004084"
       y1="47.813133"
       x2="22.004084"
       y2="3.3638515" />
    <linearGradient
       id="linearGradient3104-5-2">
      <stop
         id="stop3106-2-9"
         style="stop-color:#aaaaaa;stop-opacity:1"
         offset="0" />
      <stop
         id="stop3108-5-3"
         style="stop-color:#c8c8c8;stop-opacity:1"
         offset="1" />
    </linearGradient>
    <linearGradient
       inkscape:collect="always"
       xlink:href="#linearGradient3104-5-2"
       id="linearGradient1705"
       gradientUnits="userSpaceOnUse"
       gradientTransform="matrix(1.5068494,0,0,1.5195207,-3.517543,-4.34625)"
       x1="22.004084"
       y1="47.813133"
       x2="22.004084"
       y2="3.3638515" />
    <radialGradient
       xlink:href="#linearGradient5060"
       id="radialGradient4184-5"
       gradientUnits="userSpaceOnUse"
       gradientTransform="matrix(0.03128083,0,0,0.02053005,64.045118,1036.6837)"
       cx="605.71429"
       cy="486.64789"
       fx="605.71429"
       fy="486.64789"
       r="117.14286" />
    <radialGradient
       xlink:href="#linearGradient5060"
       id="radialGradient4186-9"
       gradientUnits="userSpaceOnUse"
       gradientTransform="matrix(0.03128083,0,0,0.02053005,64.045118,1036.6837)"
       cx="605.71429"
       cy="486.64789"
       fx="605.71429"
       fy="486.64789"
       r="117.14286" />
    <radialGradient
       xlink:href="#linearGradient5060"
       id="radialGradient4188-1"
       gradientUnits="userSpaceOnUse"
       gradientTransform="matrix(0.03128083,0,0,0.02053005,64.045118,1036.6837)"
       cx="605.71429"
       cy="486.64789"
       fx="605.71429"
       fy="486.64789"
       r="117.14286" />
    <linearGradient
       inkscape:collect="always"
       xlink:href="#linearGradient5048"
       id="linearGradient1020"
       gradientUnits="userSpaceOnUse"
       gradientTransform="matrix(0.14476034,0,0,0.02053005,-4.3728904,1036.6837)"
       x1="302.85715"
       y1="366.64789"
       x2="302.85715"
       y2="609.50507" />
    <linearGradient
       xlink:href="#linearGradient3412"
       id="linearGradient3163-9"
       gradientUnits="userSpaceOnUse"
       gradientTransform="matrix(0,2.7038931,-2.6535314,0,169.84848,922.24617)"
       x1="30.739399"
       y1="35.285313"
       x2="45.902721"
       y2="50.73642" />
    <linearGradient
       id="linearGradient3412">
      <stop
         id="stop3414"
         style="stop-color:#f0f0f1;stop-opacity:1"
         offset="0" />
      <stop
         id="stop3416"
         style="stop-color:#cbcdd9;stop-opacity:1"
         offset="1" />
    </linearGradient>
    <linearGradient
       xlink:href="#linearGradient6240"
       id="linearGradient3165-0"
       gradientUnits="userSpaceOnUse"
       gradientTransform="matrix(-1.0328274,0,0,1.0328274,135.47174,915.5721)"
       x1="75.779678"
       y1="86"
       x2="75.779678"
       y2="127.03607" />
    <linearGradient
       id="linearGradient6240">
      <stop
         id="stop6242"
         style="stop-color:#ffffff;stop-opacity:1"
         offset="0" />
      <stop
         id="stop6244"
         style="stop-color:#ffffff;stop-opacity:0"
         offset="1" />
    </linearGradient>
  </defs>
  <metadata
     id="metadata3906">
    <rdf:RDF>
      <cc:Work
         rdf:about="" />
    </rdf:RDF>
  </metadata>
  <rect
     width="66.299995"
     height="7"
     x="14.849998"
     y="86"
     id="rect2879-2"
     style="display:inline;overflow:visible;visibility:visible;opacity:0.15;fill:url(#linearGradient3842);fill-opacity:1;fill-rule:nonzero;stroke:none;stroke-width:1;marker:none" />
  <path
     d="m 14.85,86.000298 c 0,0 0,6.999581 0,6.999581 -2.419842,0.014 -5.85,-1.56828 -5.85,-3.50028 0,-1.932 2.700361,-3.499301 5.85,-3.499301 z"
     id="path2881-9"
     style="display:inline;overflow:visible;visibility:visible;opacity:0.15;fill:url(#radialGradient3156);fill-opacity:1;fill-rule:nonzero;stroke:none;stroke-width:1;marker:none" />
  <path
     d="m 81.149999,86.000298 c 0,0 0,6.999581 0,6.999581 C 83.56984,93.013879 87,91.431599 87,89.499599 c 0,-1.932 -2.700361,-3.499301 -5.850001,-3.499301 z"
     id="path2883-1"
     style="display:inline;overflow:visible;visibility:visible;opacity:0.15;fill:url(#radialGradient3153);fill-opacity:1;fill-rule:nonzero;stroke:none;stroke-width:1;marker:none" />
  <path
     d="m 13,0.99999999 h 69.999918 l 8.5e-5,87.99999901 H 13 Z"
     id="path4160"
     style="display:inline;fill:url(#linearGradient3109);fill-opacity:1;stroke:none;stroke-width:0.999997"
     sodipodi:nodetypes="ccccc" />
  <path
     d="M 82.499999,88.499999 H 13.500001 V 1.5 h 68.999998 z"
     id="rect6741-1"
     style="fill:none;stroke:url(#linearGradient3106);stroke-width:1;stroke-linecap:round;stroke-linejoin:round;stroke-miterlimit:4;stroke-dasharray:none;stroke-dashoffset:0;stroke-opacity:1" />
  <path
     d="M 12.499959,0.4999623 83.499966,0.5 l 7.5e-5,89.000043 H 12.499959 Z"
     id="path4160-6-1"
     style="display:inline;fill:none;stroke:url(#linearGradient3170);stroke-width:0.999922;stroke-linecap:butt;stroke-linejoin:round;stroke-miterlimit:4;stroke-dasharray:none;stroke-dashoffset:0;stroke-opacity:1"
     sodipodi:nodetypes="ccccc" />
  <path
     style="fill:none;stroke:url(#linearGradient1705);stroke-width:1px;stroke-linecap:butt;stroke-linejoin:miter;stroke-opacity:1"
     id="path3475"
     d="m 20,14.5 h 5 z m 6,0 h 5 z m 6,0 h 4 z m 5,0 h 1 z m 2,0 h 4 z m 5,0 h 11 z m 12,0 h 8 z m 9,0 h 1.999998 z m -45,3 h 8 z m 9,0 h 4 z m 5,0 h 1 z m 2,0 h 4 z m 5,0 h 3 z m 4,0 h 5 z m 6,0 h 8 z m 9,0 h 4 z m 5,0 h 0.999998 z m -45,3 h 7 z m 8,0 h 11 z m 12,0 h 5 z m 6,0 h 5 z m 6,0 h 4 z m 5,0 6,0.0236 z m 7,0.0236 H 74.999998 Z M 20,23.5 h 9 z m 10,0 h 10 z m 11,0 h 4 z m 5,0 h 9 z m 10,0 h 7 z m 8,0 h 1.999998 z m 2.999998,0 h 1 z m 2,0 h 4 z M 20,26.5 h 4 z m 5,0 h 13 z m -5,6.97645 h 7 z m 8,0 h 11 z m 12,0 h 5 z m 6,0 h 5 z m 6,0 h 4 z m 5,0 6,0.0471 z m 7,0.0471 H 74.999998 Z M 20,36.5 h 5 z m 6,0 h 5 z m 6,0 h 4 z m 5,0 h 1 z m 2,0 h 4 z m 5,0 h 11 z m 12,0 h 8 z m 9,0 h 1.999998 z m 2.999998,0 h 6 z M 20,39.5 h 8 z m 9,0 h 10 z m 11,0 h 3 z m 4,0 h 8 z m 9,0 h 11 z m 12,0 h 3.999998 z m -45,3 h 9 z m 10,0 h 10 z m 11,0 h 4 z m 5,0 h 9 z m 10,0 h 7 z m 8,0 h 1.999998 z m 2.999998,0 h 1 z m 2,0 h 4 z M 20,45.5 h 8 z m 9,0 h 4 z m 5,0 h 1 z m 2,0 h 4 z m 5,0 h 3 z m 4,0 h 6 z m 7,0 h 7 z m 8,0 h 4 z m 5,0 h 0.999998 z m -45,6 h 7 z m 8,0 h 11 z m 12,0 h 5 z m 6,0 h 5 z m 6,0 h 4 z m 5,0 h 6 z m 7,0 h 10.999998 z m -44,3 h 8 z m 9,0 h 4 z m 5,0 h 1 z m 2,0 h 4 z m 5,0 h 3 z m 4,0 h 5 z m 6,0 h 8 z m 9,0 h 4 z m 5,0 h 0.999998 z m -45,3 h 9 z m 10,0 h 2 z m 3,0 h 6 z m 7,0 h 9 z m 10,0 h 5 z m 6,0 h 1 z m 2,0 h 7.999998 z m 8.999998,0 h 4 z M 20,60.5 h 8 z m 9,0 h 4 z m 5,0 h 6 z m 7,0 h 6 z m 7,0 h 2 z m 3,0 h 2 z m 3,0 h 4 z" />
  <path
     style="fill:none;stroke:url(#linearGradient4132);stroke-width:1;stroke-linecap:butt;stroke-linejoin:miter;stroke-miterlimit:4;stroke-dasharray:none;stroke-opacity:1"
     id="path3475-2"
     d="m 20,66.5 h 5 z m 5.942211,0 H 31 Z M 32,66.5 h 4 z m 5,0 h 1 z m 2,0 h 4 z m 5,0 h 11 z m 12,0 h 8 z m 9,0 h 1.999998 z m -45,2.9765 h 7 z m 8,0 h 11 z m 12,0 h 5 z m 6,0 h 4 z m 5,0 h 5 z m 6,0 6,0.047 z m 7,0.047 H 74.999998 Z M 20,72.5 h 9 z m 10,0 h 10 z m 11,0 h 4 z m 5,0 h 9 z m 10,0 h 7 z m 8,0 h 1.999998 z m 2.999998,0 h 1 z m 2,0 h 4 z M 20,75.5 h 3.523868 z m 4.629397,0 H 37.688441 Z M 20,75.5 h 8.706029 z m 9.396984,0 H 39 Z M 40,75.5 h 3 z m 4,0 h 8 z m 9,0 h 11 z m 12,0 h 3.999998 z" />
  <g
     id="g3138"
     transform="matrix(1.4999995,0,0,1.5145429,-22.07665,-1490.5035)">
    <path
       d="m 72.217794,1040.9585 c 0,0 0,5.4036 0,5.4036 2.068242,0.01 5,-1.2107 5,-2.7022 0,-1.4915 -2.308,-2.7014 -5,-2.7014 z"
       id="path2881-3"
       style="display:inline;overflow:visible;visibility:visible;opacity:0.15;fill:url(#radialGradient4184-5);fill-opacity:1;fill-rule:nonzero;stroke:none;stroke-width:1;marker:none" />
    <g
       transform="matrix(-0.916667,0,0,0.714282,78.217794,1017.3623)"
       id="g22150"
       style="opacity:0.3">
      <g
         id="g4200">
        <rect
           style="fill:url(#radialGradient4186-9);fill-opacity:1;stroke:none"
           id="rect22120"
           y="35"
           x="0"
           height="7"
           width="4" />
        <rect
           style="fill:url(#radialGradient4188-1);fill-opacity:1;stroke:none"
           id="rect22134"
           transform="scale(-1)"
           y="-42"
           x="-48"
           height="7"
           width="4" />
        <rect
           style="fill:url(#linearGradient1020);fill-opacity:1;stroke:none"
           id="rect22138"
           y="35"
           x="4"
           height="7"
           width="40" />
      </g>
    </g>
    <path
       d="m 75.717796,1005.8622 -39.999999,40 h 39.999999 z m -7.999996,18.6666 v 13.4104 H 54.217794 Z"
       id="path2993"
       style="display:inline;overflow:visible;visibility:visible;opacity:0.8;fill:url(#linearGradient3163-9);fill-opacity:1;fill-rule:evenodd;stroke:#83899a;stroke-width:0.66345833;stroke-linecap:butt;stroke-linejoin:miter;stroke-miterlimit:4;stroke-dasharray:none;stroke-dashoffset:0;stroke-opacity:1;marker:none;enable-background:accumulate"
       sodipodi:nodetypes="cccccccc" />
    <path
       d="m 70.368457,1045.2037 v -1.3221"
       id="path3101"
       style="opacity:0.3;fill:none;stroke:#ffffff;stroke-width:0.663458px;stroke-linecap:round;stroke-linejoin:miter;stroke-opacity:1"
       sodipodi:nodetypes="cc" />
    <path
       d="m 64.368455,1045.2037 v -1.3221"
       id="path3103"
       style="opacity:0.3;fill:none;stroke:#ffffff;stroke-width:0.663458px;stroke-linecap:round;stroke-linejoin:miter;stroke-opacity:1"
       sodipodi:nodetypes="cc" />
    <path
       d="m 58.368453,1045.2037 v -1.3221"
       id="path3105"
       style="opacity:0.3;fill:none;stroke:#ffffff;stroke-width:0.663458px;stroke-linecap:round;stroke-linejoin:miter;stroke-opacity:1"
       sodipodi:nodetypes="cc" />
    <path
       d="m 52.368451,1045.2037 v -1.3221"
       id="path3107"
       style="opacity:0.3;fill:none;stroke:#ffffff;stroke-width:0.663458px;stroke-linecap:round;stroke-linejoin:miter;stroke-opacity:1"
       sodipodi:nodetypes="cc" />
    <path
       d="m 46.368449,1045.2037 v -1.3221"
       id="path3109"
       style="opacity:0.3;fill:none;stroke:#ffffff;stroke-width:0.663458px;stroke-linecap:round;stroke-linejoin:miter;stroke-opacity:1"
       sodipodi:nodetypes="cc" />
    <path
       d="m 69.717794,1045.8622 v -1.9925 m -6,1.9925 v -1.9925 m -6,1.9925 v -1.9687 m -6,1.9687 v -1.9925 m -6,1.9925 v -1.9925"
       id="path3091"
       style="opacity:0.75;fill:none;stroke:#83899a;stroke-width:0.663458px;stroke-linecap:round;stroke-linejoin:miter;stroke-opacity:1"
       sodipodi:nodetypes="cccccccccc" />
    <path
       d="m 75.051387,1007.468 v 37.7342 H 37.317779 Z m -6.666931,15.4188 -15.733338,15.7127 h 15.733338 z"
       id="path3934"
       style="display:inline;overflow:visible;visibility:visible;opacity:0.5;fill:none;stroke:url(#linearGradient3165-0);stroke-width:0.663458px;stroke-linecap:butt;stroke-linejoin:miter;stroke-miterlimit:4;stroke-dasharray:none;stroke-dashoffset:0;stroke-opacity:1;marker:none;enable-background:accumulate"
       sodipodi:nodetypes="cccccccc" />
  </g>
</svg>
