<?xml version="1.0" encoding="UTF-8" standalone="no"?>
<svg
   id="svg3901"
   height="96"
   width="96"
   version="1.1"
   sodipodi:docname="text-x-tex.svg"
   inkscape:version="1.1.1 (3bf5ae0d25, 2021-09-20)"
   xmlns:inkscape="http://www.inkscape.org/namespaces/inkscape"
   xmlns:sodipodi="http://sodipodi.sourceforge.net/DTD/sodipodi-0.dtd"
   xmlns:xlink="http://www.w3.org/1999/xlink"
   xmlns="http://www.w3.org/2000/svg"
   xmlns:svg="http://www.w3.org/2000/svg"
   xmlns:rdf="http://www.w3.org/1999/02/22-rdf-syntax-ns#"
   xmlns:cc="http://creativecommons.org/ns#">
  <sodipodi:namedview
     id="namedview41"
     pagecolor="#ffffff"
     bordercolor="#666666"
     borderopacity="1.0"
     inkscape:pageshadow="2"
     inkscape:pageopacity="0.0"
     inkscape:pagecheckerboard="0"
     showgrid="false"
     inkscape:zoom="2.5117022"
     inkscape:cx="66.488774"
     inkscape:cy="-0.79627275"
     inkscape:window-width="1396"
     inkscape:window-height="896"
     inkscape:window-x="406"
     inkscape:window-y="186"
     inkscape:window-maximized="0"
     inkscape:current-layer="svg3901" />
  <defs
     id="defs3903">
    <linearGradient
       id="linearGradient3403">
      <stop
         id="stop3405"
         style="stop-color:#ffffff;stop-opacity:1"
         offset="0" />
      <stop
         id="stop3407"
         style="stop-color:#ffffff;stop-opacity:0.23529412"
         offset="0.00541497" />
      <stop
         id="stop3409"
         style="stop-color:#ffffff;stop-opacity:0.15686275"
         offset="1" />
      <stop
         id="stop3411"
         style="stop-color:#ffffff;stop-opacity:0.39215687"
         offset="1" />
    </linearGradient>
    <linearGradient
       id="linearGradient3600">
      <stop
         offset="0"
         style="stop-color:#f4f4f4;stop-opacity:1"
         id="stop3602" />
      <stop
         offset="1"
         style="stop-color:#dbdbdb;stop-opacity:1"
         id="stop3604" />
    </linearGradient>
    <linearGradient
       id="linearGradient5060">
      <stop
         offset="0"
         style="stop-color:#000000;stop-opacity:1"
         id="stop5062" />
      <stop
         offset="1"
         style="stop-color:#000000;stop-opacity:0"
         id="stop5064" />
    </linearGradient>
    <linearGradient
       id="linearGradient5048">
      <stop
         offset="0"
         style="stop-color:#000000;stop-opacity:0"
         id="stop5050" />
      <stop
         offset="0.5"
         style="stop-color:#000000;stop-opacity:1"
         id="stop5056" />
      <stop
         offset="1"
         style="stop-color:#000000;stop-opacity:0"
         id="stop5052" />
    </linearGradient>
    <linearGradient
       id="linearGradient3104-6">
      <stop
         id="stop3106-3"
         style="stop-color:#000000;stop-opacity:0.31782946"
         offset="0" />
      <stop
         id="stop3108-9"
         style="stop-color:#000000;stop-opacity:0.24031007"
         offset="1" />
    </linearGradient>
    <linearGradient
       y2="42.273762"
       x2="23.99999"
       y1="5.6275582"
       x1="23.99999"
       gradientTransform="matrix(1.8648648,0,0,2.3513513,3.2432558,-11.432408)"
       gradientUnits="userSpaceOnUse"
       id="linearGradient3106"
       xlink:href="#linearGradient3403" />
    <linearGradient
       y2="47.013336"
       x2="25.132275"
       y1="0.98520643"
       x1="25.132275"
       gradientTransform="matrix(1.9999954,0,0,1.9120955,1.0813194e-4,-3.8236272)"
       gradientUnits="userSpaceOnUse"
       id="linearGradient3109"
       xlink:href="#linearGradient3600" />
    <linearGradient
       y2="2.9062471"
       x2="-51.786404"
       y1="50.786446"
       x1="-51.786404"
       gradientTransform="matrix(1.6380632,0,0,1.8097673,119.83211,-6.5336729)"
       gradientUnits="userSpaceOnUse"
       id="linearGradient3170"
       xlink:href="#linearGradient3104-6" />
    <linearGradient
       gradientTransform="matrix(0.13730769,0,0,0.02882352,-1.626924,75.431978)"
       gradientUnits="userSpaceOnUse"
       xlink:href="#linearGradient5048"
       id="linearGradient3842"
       y2="609.50507"
       x2="302.85715"
       y1="366.64789"
       x1="302.85715" />
    <radialGradient
       gradientTransform="matrix(-0.04698948,0,0,0.02882352,43.168704,75.431978)"
       gradientUnits="userSpaceOnUse"
       xlink:href="#linearGradient5060"
       id="radialGradient3156"
       fy="486.64789"
       fx="605.71429"
       r="117.14286"
       cy="486.64789"
       cx="605.71429" />
    <radialGradient
       gradientTransform="matrix(0.04698949,0,0,0.02882352,52.831289,75.431978)"
       gradientUnits="userSpaceOnUse"
       xlink:href="#linearGradient5060"
       id="radialGradient3153"
       fy="486.64789"
       fx="605.71429"
       r="117.14286"
       cy="486.64789"
       cx="605.71429" />
  </defs>
  <metadata
     id="metadata3906">
    <rdf:RDF>
      <cc:Work
         rdf:about="" />
    </rdf:RDF>
  </metadata>
  <rect
     width="66.299995"
     height="7"
     x="14.849998"
     y="86"
     id="rect2879-2"
     style="display:inline;overflow:visible;visibility:visible;opacity:0.15;fill:url(#linearGradient3842);fill-opacity:1;fill-rule:nonzero;stroke:none;stroke-width:1;marker:none" />
  <path
     d="m 14.85,86.000298 c 0,0 0,6.999581 0,6.999581 -2.419842,0.014 -5.85,-1.56828 -5.85,-3.50028 0,-1.932 2.700361,-3.499301 5.85,-3.499301 z"
     id="path2881-9"
     style="display:inline;overflow:visible;visibility:visible;opacity:0.15;fill:url(#radialGradient3156);fill-opacity:1;fill-rule:nonzero;stroke:none;stroke-width:1;marker:none" />
  <path
     d="m 81.149999,86.000298 c 0,0 0,6.999581 0,6.999581 C 83.56984,93.013879 87,91.431599 87,89.499599 c 0,-1.932 -2.700361,-3.499301 -5.850001,-3.499301 z"
     id="path2883-1"
     style="display:inline;overflow:visible;visibility:visible;opacity:0.15;fill:url(#radialGradient3153);fill-opacity:1;fill-rule:nonzero;stroke:none;stroke-width:1;marker:none" />
  <path
     d="m 13,0.99999999 h 69.999918 l 8.5e-5,87.99999901 H 13 Z"
     id="path4160"
     style="display:inline;fill:url(#linearGradient3109);fill-opacity:1;stroke:none;stroke-width:0.999997"
     sodipodi:nodetypes="ccccc" />
  <path
     d="M 82.499999,88.499999 H 13.500001 V 1.5 h 68.999998 z"
     id="rect6741-1"
     style="fill:none;stroke:url(#linearGradient3106);stroke-width:1;stroke-linecap:round;stroke-linejoin:round;stroke-miterlimit:4;stroke-dasharray:none;stroke-dashoffset:0;stroke-opacity:1" />
  <path
     d="M 12.499959,0.4999623 83.499966,0.5 l 7.5e-5,89.000043 H 12.499959 Z"
     id="path4160-6-1"
     style="display:inline;fill:none;stroke:url(#linearGradient3170);stroke-width:0.999922;stroke-linecap:butt;stroke-linejoin:round;stroke-miterlimit:4;stroke-dasharray:none;stroke-dashoffset:0;stroke-opacity:1"
     sodipodi:nodetypes="ccccc" />
  <path
     style="font-style:normal;font-variant:normal;font-weight:normal;font-stretch:normal;font-size:15.1284px;line-height:125%;font-family:'Latin Modern Roman';-inkscape-font-specification:'Latin Modern Roman';text-align:start;letter-spacing:0px;word-spacing:0px;writing-mode:lr-tb;text-anchor:start;fill:#555761;fill-opacity:1;stroke:none;stroke-width:0.864865"
     d="m 55.259258,31 v 1.111111 h 0.740741 c 1.972299,0 2.651997,0.255181 3.333337,1.259258 l 6.592589,10 L 60,52.037035 c -0.502041,0.717203 -1.563326,2.370371 -5.185187,2.370371 v 1.111114 l 4.000002,-0.14814 c 1.326819,0 3.301631,0.04055 4.59259,0.14814 v -1.111114 c -1.649557,-0.03586 -2.296294,-1.058222 -2.296294,-1.703702 0,-0.32274 0.11938,-0.420353 0.370368,-0.814814 l 5.111118,-7.555556 5.629622,8.592592 c 0.0717,0.143421 0.22222,0.26279 0.22222,0.37037 0,0.43032 -0.828386,1.075251 -2.370365,1.11111 v 1.111114 c 1.255103,-0.107581 3.896574,-0.14814 5.259256,-0.14814 L 80,55.51852 v -1.111114 h -0.666671 c -1.86472,0 -2.65434,-0.221678 -3.407402,-1.333332 l -7.555555,-11.407408 4.88888,-7.185186 c 0.78893,-1.14752 2.067727,-2.334508 5.25927,-2.370369 V 31 l -3.999998,0.14814 c -1.434406,0 -3.158202,-0.04055 -4.592597,-0.14814 v 1.111111 c 1.434395,0.03586 2.222215,0.80485 2.222215,1.629629 0,0.358598 -0.04523,0.494429 -0.296293,0.888889 l -4.148142,6 -4.592598,-6.888889 c -0.07173,-0.10758 -0.22222,-0.37508 -0.22222,-0.51852 0,-0.43032 0.754313,-1.075249 2.296295,-1.111109 V 31 c -1.2551,0.107579 -3.89658,0.14814 -5.259259,0.14814 z M 16.666666,31.22222 16,39.296296 h 0.88889 c 0.502038,-5.773459 1.029582,-6.962961 6.444444,-6.962961 0.645481,0 1.567328,0.0023 1.925926,0.07407 0.753057,0.143421 0.814814,0.508556 0.814814,1.333333 v 18.888891 c 0,1.219239 -0.01261,1.777777 -3.777778,1.777777 h -1.481483 v 1.111113 c 1.470263,-0.107579 5.165256,-0.14814 6.814818,-0.14814 1.649559,0 5.344554,0.04055 6.814813,0.14814 v -1.111113 h -1.48148 c -3.765298,0 -3.703704,-0.558538 -3.703704,-1.777777 v -18.88889 c 0,-0.717197 -0.05289,-1.189892 0.592589,-1.333333 0.394463,-0.07173 1.392737,-0.07407 2.074076,-0.07407 5.414856,0 5.942405,1.189504 6.444445,6.962962 h 0.88889 L 38.592594,31.222222 H 16.666666 Z m 19.407408,9.407409 v 1.111111 h 0.88889 c 2.761218,0 2.814815,0.338671 2.814815,1.629628 v 18.814818 c 0,1.290955 -0.05358,1.703704 -2.814815,1.703704 h -0.88889 V 65 H 56.74074 l 1.555554,-9.25926 h -0.962961 c -0.896499,5.522438 -1.683932,8.14815 -7.851853,8.14815 h -4.740739 c -1.685419,0 -1.777777,-0.298105 -1.777777,-1.481484 v -9.555557 h 3.185186 c 3.478416,0 3.925924,1.174127 3.925924,4.222226 h 0.88889 V 47.51852 h -0.88889 c 0,3.083956 -0.447508,4.22222 -3.925924,4.22222 h -3.185186 v -8.59259 c 0,-1.18338 0.09238,-1.40741 1.777777,-1.40741 h 4.592593 c 5.486576,0 6.463274,1.904349 7.037034,6.88889 h 0.888893 l -1.037041,-8 z"
     id="path4447" />
</svg>
