<?xml version="1.0" encoding="UTF-8" standalone="no"?>
<svg
   id="svg3901"
   height="96"
   width="96"
   version="1.1"
   sodipodi:docname="text-x-bibtex.svg"
   inkscape:version="1.1.2 (0a00cf5339, 2022-02-04)"
   xmlns:inkscape="http://www.inkscape.org/namespaces/inkscape"
   xmlns:sodipodi="http://sodipodi.sourceforge.net/DTD/sodipodi-0.dtd"
   xmlns:xlink="http://www.w3.org/1999/xlink"
   xmlns="http://www.w3.org/2000/svg"
   xmlns:svg="http://www.w3.org/2000/svg"
   xmlns:rdf="http://www.w3.org/1999/02/22-rdf-syntax-ns#"
   xmlns:cc="http://creativecommons.org/ns#">
  <sodipodi:namedview
     id="namedview41"
     pagecolor="#ffffff"
     bordercolor="#666666"
     borderopacity="1.0"
     inkscape:pageshadow="2"
     inkscape:pageopacity="0.0"
     inkscape:pagecheckerboard="0"
     showgrid="false"
     inkscape:zoom="4"
     inkscape:cx="35.375"
     inkscape:cy="98.625"
     inkscape:window-width="1396"
     inkscape:window-height="896"
     inkscape:window-x="544"
     inkscape:window-y="448"
     inkscape:window-maximized="0"
     inkscape:current-layer="svg3901" />
  <defs
     id="defs3903">
    <linearGradient
       id="linearGradient3403">
      <stop
         id="stop3405"
         style="stop-color:#ffffff;stop-opacity:1"
         offset="0" />
      <stop
         id="stop3407"
         style="stop-color:#ffffff;stop-opacity:0.23529412"
         offset="0.00541497" />
      <stop
         id="stop3409"
         style="stop-color:#ffffff;stop-opacity:0.15686275"
         offset="1" />
      <stop
         id="stop3411"
         style="stop-color:#ffffff;stop-opacity:0.39215687"
         offset="1" />
    </linearGradient>
    <linearGradient
       id="linearGradient3600">
      <stop
         offset="0"
         style="stop-color:#f4f4f4;stop-opacity:1"
         id="stop3602" />
      <stop
         offset="1"
         style="stop-color:#dbdbdb;stop-opacity:1"
         id="stop3604" />
    </linearGradient>
    <linearGradient
       id="linearGradient5060">
      <stop
         offset="0"
         style="stop-color:#000000;stop-opacity:1"
         id="stop5062" />
      <stop
         offset="1"
         style="stop-color:#000000;stop-opacity:0"
         id="stop5064" />
    </linearGradient>
    <linearGradient
       id="linearGradient5048">
      <stop
         offset="0"
         style="stop-color:#000000;stop-opacity:0"
         id="stop5050" />
      <stop
         offset="0.5"
         style="stop-color:#000000;stop-opacity:1"
         id="stop5056" />
      <stop
         offset="1"
         style="stop-color:#000000;stop-opacity:0"
         id="stop5052" />
    </linearGradient>
    <linearGradient
       id="linearGradient3104-6">
      <stop
         id="stop3106-3"
         style="stop-color:#000000;stop-opacity:0.31782946"
         offset="0" />
      <stop
         id="stop3108-9"
         style="stop-color:#000000;stop-opacity:0.24031007"
         offset="1" />
    </linearGradient>
    <linearGradient
       y2="42.273762"
       x2="23.99999"
       y1="5.6275582"
       x1="23.99999"
       gradientTransform="matrix(1.8648648,0,0,2.3513513,3.2432558,-11.432408)"
       gradientUnits="userSpaceOnUse"
       id="linearGradient3106"
       xlink:href="#linearGradient3403" />
    <linearGradient
       y2="47.013336"
       x2="25.132275"
       y1="0.98520643"
       x1="25.132275"
       gradientTransform="matrix(1.9999954,0,0,1.9120955,1.0813194e-4,-3.8236272)"
       gradientUnits="userSpaceOnUse"
       id="linearGradient3109"
       xlink:href="#linearGradient3600" />
    <linearGradient
       y2="2.9062471"
       x2="-51.786404"
       y1="50.786446"
       x1="-51.786404"
       gradientTransform="matrix(1.6380632,0,0,1.8097673,119.83211,-6.5336729)"
       gradientUnits="userSpaceOnUse"
       id="linearGradient3170"
       xlink:href="#linearGradient3104-6" />
    <linearGradient
       gradientTransform="matrix(0.13730769,0,0,0.02882352,-1.626924,75.431978)"
       gradientUnits="userSpaceOnUse"
       xlink:href="#linearGradient5048"
       id="linearGradient3842"
       y2="609.50507"
       x2="302.85715"
       y1="366.64789"
       x1="302.85715" />
    <radialGradient
       gradientTransform="matrix(-0.04698948,0,0,0.02882352,43.168704,75.431978)"
       gradientUnits="userSpaceOnUse"
       xlink:href="#linearGradient5060"
       id="radialGradient3156"
       fy="486.64789"
       fx="605.71429"
       r="117.14286"
       cy="486.64789"
       cx="605.71429" />
    <radialGradient
       gradientTransform="matrix(0.04698949,0,0,0.02882352,52.831289,75.431978)"
       gradientUnits="userSpaceOnUse"
       xlink:href="#linearGradient5060"
       id="radialGradient3153"
       fy="486.64789"
       fx="605.71429"
       r="117.14286"
       cy="486.64789"
       cx="605.71429" />
  </defs>
  <metadata
     id="metadata3906">
    <rdf:RDF>
      <cc:Work
         rdf:about="" />
    </rdf:RDF>
  </metadata>
  <rect
     width="66.299995"
     height="7"
     x="14.849998"
     y="86"
     id="rect2879-2"
     style="display:inline;overflow:visible;visibility:visible;opacity:0.15;fill:url(#linearGradient3842);fill-opacity:1;fill-rule:nonzero;stroke:none;stroke-width:1;marker:none" />
  <path
     d="m 14.85,86.000298 c 0,0 0,6.999581 0,6.999581 -2.419842,0.014 -5.85,-1.56828 -5.85,-3.50028 0,-1.932 2.700361,-3.499301 5.85,-3.499301 z"
     id="path2881-9"
     style="display:inline;overflow:visible;visibility:visible;opacity:0.15;fill:url(#radialGradient3156);fill-opacity:1;fill-rule:nonzero;stroke:none;stroke-width:1;marker:none" />
  <path
     d="m 81.149999,86.000298 c 0,0 0,6.999581 0,6.999581 C 83.56984,93.013879 87,91.431599 87,89.499599 c 0,-1.932 -2.700361,-3.499301 -5.850001,-3.499301 z"
     id="path2883-1"
     style="display:inline;overflow:visible;visibility:visible;opacity:0.15;fill:url(#radialGradient3153);fill-opacity:1;fill-rule:nonzero;stroke:none;stroke-width:1;marker:none" />
  <path
     d="m 13,0.99999999 h 69.999918 l 8.5e-5,87.99999901 H 13 Z"
     id="path4160"
     style="display:inline;fill:url(#linearGradient3109);fill-opacity:1;stroke:none;stroke-width:0.999997"
     sodipodi:nodetypes="ccccc" />
  <path
     d="M 82.499999,88.499999 H 13.500001 V 1.5 h 68.999998 z"
     id="rect6741-1"
     style="fill:none;stroke:url(#linearGradient3106);stroke-width:1;stroke-linecap:round;stroke-linejoin:round;stroke-miterlimit:4;stroke-dasharray:none;stroke-dashoffset:0;stroke-opacity:1" />
  <path
     d="M 12.499959,0.4999623 83.499966,0.5 l 7.5e-5,89.000043 H 12.499959 Z"
     id="path4160-6-1"
     style="display:inline;fill:none;stroke:url(#linearGradient3170);stroke-width:0.999922;stroke-linecap:butt;stroke-linejoin:round;stroke-miterlimit:4;stroke-dasharray:none;stroke-dashoffset:0;stroke-opacity:1"
     sodipodi:nodetypes="ccccc" />
  <path
     id="path3475"
     d="m 44,17.5 h 5.9375 z m 6.6875,0 h 3.75 z m 4.4375,0 h 1.6875 z m 2.3125,0 h 3.875 z M 62,17.5 h 4.375 z m 5.0625,0 H 72 Z M 44,21.5 h 5.3125 z m 5.9375,0 h 3.25 z m 3.9375,0 h 3.1875 z m 3.875,0 h 1.75 z m 2.375,0 h 3.5 z m 4.3125,0 H 72 Z M 44,25.5 h 4.886718 z m 5.511718,0 h 4.9375 z m 5.5625,0 h 10.125 z m 10.75,0 h 6.1875 z M 44,29.5 h 8.625 z m 9.25,0 h 9.25 z m 9.9375,0 H 72 Z m -24.503906,7.992094 6.1875,0.0078 z M 22,37.499906 h 3.1875 z m 4.1875,0 H 38 Z m 19.246094,0 h 9.648438 z m 10.316406,0 h 11.8125 z m 12.8125,0 H 72 Z M 22,41.46875 h 6.1875 z m 6.8125,0 h 10.125 z m 10.75,0 H 44.5 Z m 5.5625,0 h 4.625 z m 5.25,0 h 3.9375 z m 4.5625,0 6.1875,0.0625 z m 6.75,0.0625 H 72 Z M 22,45.5 h 4.6875 z m 5.375,0 h 4.3125 z m 5.0625,0 h 3.875 z m 4.5,0 h 1.6875 z m 2.375,0 h 3.75 z m 4.5,0 h 9.8125 z m 10.5,0 h 7.5 z m 8.125,0 h 2.375 z m 3,0 H 72 Z M 22,49.5 h 7.875 z m 8.5,0 h 8.4375 z m 9.0625,0 h 3.25 z m 3.875,0 H 51.375 Z M 52,49.5 h 10 z m 10.6875,0 H 72 Z M 22,53.5 h 8.5625 z m 9.25,0 h 9.25 z m 9.875,0 h 3.6875 z m 4.3125,0 h 8.6875 z m 9.25,0 h 5.9375 z m 6.625,0 h 2.375 z m 3,0 h 1.3125 z m 2,0 H 72 Z M 22,57.5 h 7.3125 z m 8.125,0 h 3.5 z m 4.125,0 H 36 Z m 2.4375,0 h 3.1875 z m 3.875,0 h 3.25 z m 3.875,0 h 5.1875 z m 5.875,0 h 6.75 z m 7.375,0 h 4.5 z m 5.125,0 H 72 Z M 22,65.46875 h 6.1875 z m 6.8125,0 h 10.125 z m 10.75,0 H 44.5 Z m 5.5625,0 H 50 Z M 22,69.5 h 7.3125 z m 8.125,0 h 3.5 z m 4.125,0 H 36 Z m 2.4375,0 h 3.1875 z m 3.875,0 h 3.25 z m 3.875,0 H 50 Z M 22,73.5 h 7.75 z m 8.4375,0 h 2.4375 z m 3.0625,0 h 5.5625 z m 6.1875,0 H 50 Z M 22,77.5 h 7.75 z m 8.4375,0 h 3.5 z m 4.125,0 h 5.5 z m 6.125,0 h 5.9375 z m 6.625,0 H 50 Z"
     style="fill:none;stroke:#7e8087;stroke-width:1px;stroke-linecap:butt;stroke-linejoin:miter;stroke-opacity:1" />
  <path
     style="fill:#7e8087;fill-opacity:1;stroke-width:1"
     d="m 52.789102,77.242532 c 2.606742,-1.212056 5.333852,-2.485546 5.333852,-5.21265 0,-0.848436 -0.363616,-0.848436 -1.939278,-0.969644 -1.757468,-0.1212 -2.485534,-1.272646 -2.485534,-2.848308 0,-2.181686 1.393852,-3.21193 3.090718,-3.21193 2.545302,0 4.424818,2.242288 4.424818,5.333016 0,2.36433 -1.151448,4.787584 -3.21193,6.545902 C 56.607894,78.030358 55.456446,78.454576 53.516334,79 Z m 10.788066,0 c 2.605904,-1.212056 5.333014,-2.485546 5.333014,-5.21265 0,-0.848436 -0.363616,-0.848436 -1.939276,-0.969644 -1.757476,-0.1212 -2.4847,-1.272646 -2.4847,-2.848308 0,-2.181686 1.393852,-3.21193 3.09072,-3.21193 2.545302,0 4.423976,2.242288 4.423976,5.333016 0,2.36433 -1.151444,4.787584 -3.211926,6.545902 C 67.395118,78.030358 66.243674,78.454576 64.304398,79 Z"
     id="path3253" />
  <path
     style="fill:#7e8087;fill-opacity:1;stroke-width:1"
     d="m 30.425078,17.757575 c -2.606898,1.212118 -5.334174,2.48485 -5.334174,5.21212 0,0.848488 0.363638,0.848488 1.939394,0.969702 1.757576,0.12122 2.485692,1.272724 2.485692,2.848486 0,2.181812 -1.393936,3.212118 -3.09091,3.212118 -2.545452,0 -4.42508,-2.243266 -4.42508,-5.334172 0,-2.36364 1.151512,-4.787886 3.212116,-6.54546 C 26.606062,16.9697 27.758416,16.545457 29.69781,16 Z m 10.788726,0 c -2.606064,1.212118 -5.333338,2.48485 -5.333338,5.21212 0,0.848488 0.363636,0.848488 1.939392,0.969702 1.757582,0.12122 2.48485,1.272724 2.48485,2.848486 0,2.181812 -1.393936,3.212118 -3.090906,3.212118 -2.545456,0 -4.424242,-2.243266 -4.424242,-5.334172 0,-2.36364 1.151512,-4.787886 3.212118,-6.54546 C 37.395622,16.9697 38.547134,16.545457 40.486528,16 Z"
     id="path3255" />
</svg>
