<?xml version="1.0" encoding="UTF-8" standalone="no"?>
<svg
   width="24"
   viewBox="0 0 24 24.000027"
   version="1.0"
   style="display:inline;enable-background:new"
   id="svg11300"
   height="24.000027"
   sodipodi:docname="application-x-bittorrent.svg"
   inkscape:version="1.1.2 (0a00cf5339, 2022-02-04)"
   xmlns:inkscape="http://www.inkscape.org/namespaces/inkscape"
   xmlns:sodipodi="http://sodipodi.sourceforge.net/DTD/sodipodi-0.dtd"
   xmlns:xlink="http://www.w3.org/1999/xlink"
   xmlns="http://www.w3.org/2000/svg"
   xmlns:svg="http://www.w3.org/2000/svg"
   xmlns:rdf="http://www.w3.org/1999/02/22-rdf-syntax-ns#"
   xmlns:cc="http://creativecommons.org/ns#"
   xmlns:dc="http://purl.org/dc/elements/1.1/">
  <sodipodi:namedview
     id="namedview36"
     pagecolor="#ffffff"
     bordercolor="#666666"
     borderopacity="1.0"
     inkscape:pageshadow="2"
     inkscape:pageopacity="0.0"
     inkscape:pagecheckerboard="0"
     showgrid="false"
     inkscape:zoom="40.187191"
     inkscape:cx="8.8709859"
     inkscape:cy="13.014097"
     inkscape:window-width="1360"
     inkscape:window-height="893"
     inkscape:window-x="9"
     inkscape:window-y="235"
     inkscape:window-maximized="0"
     inkscape:current-layer="g153" />
  <metadata
     id="metadata155">
    <rdf:RDF>
      <cc:Work
         rdf:about="">
        <dc:format>image/svg+xml</dc:format>
        <dc:type
           rdf:resource="http://purl.org/dc/dcmitype/StillImage" />
        <dc:title>elementary Icon Template</dc:title>
      </cc:Work>
    </rdf:RDF>
  </metadata>
  <title
     id="title4162">elementary Icon Template</title>
  <defs
     id="defs3">
    <linearGradient
       id="linearGradient10457">
      <stop
         style="stop-color:#000000;stop-opacity:1;"
         offset="0"
         id="stop10453" />
      <stop
         style="stop-color:#000000;stop-opacity:0;"
         offset="1"
         id="stop10455" />
    </linearGradient>
    <linearGradient
       id="linearGradient3977">
      <stop
         style="stop-color:#ffffff;stop-opacity:1"
         offset="0"
         id="stop3979" />
      <stop
         style="stop-color:#ffffff;stop-opacity:0.23529412"
         offset="0"
         id="stop3981" />
      <stop
         style="stop-color:#ffffff;stop-opacity:0.15686275"
         offset="1"
         id="stop3983" />
      <stop
         style="stop-color:#ffffff;stop-opacity:0.39215687"
         offset="1"
         id="stop3985" />
    </linearGradient>
    <linearGradient
       id="linearGradient3600">
      <stop
         style="stop-color:#f4f4f4;stop-opacity:1"
         offset="0"
         id="stop3602" />
      <stop
         style="stop-color:#dbdbdb;stop-opacity:1"
         offset="1"
         id="stop3604" />
    </linearGradient>
    <linearGradient
       id="linearGradient5048">
      <stop
         style="stop-color:#000000;stop-opacity:0"
         offset="0"
         id="stop5050" />
      <stop
         style="stop-color:#000000;stop-opacity:1"
         offset="0.5"
         id="stop5056" />
      <stop
         style="stop-color:#000000;stop-opacity:0"
         offset="1"
         id="stop5052" />
    </linearGradient>
    <linearGradient
       y2="41.526306"
       y1="6.4736748"
       x2="23.99999"
       x1="23.99999"
       id="linearGradient3013"
       xlink:href="#linearGradient3977"
       gradientUnits="userSpaceOnUse"
       gradientTransform="matrix(0.40540511,0,0,0.51351351,42.269687,185.67568)" />
    <linearGradient
       y2="47.013336"
       y1="0.98520643"
       x2="25.132275"
       x1="25.132275"
       id="linearGradient3016"
       xlink:href="#linearGradient3600"
       gradientUnits="userSpaceOnUse"
       gradientTransform="matrix(0.45714178,0,0,0.43456667,41.028596,186.90372)" />
    <linearGradient
       y2="609.50507"
       y1="366.64789"
       x2="302.85715"
       x1="302.85715"
       id="linearGradient3027"
       xlink:href="#linearGradient5048"
       gradientUnits="userSpaceOnUse"
       gradientTransform="matrix(0.0352071,0,0,0.0082353,39.275148,204.98055)" />
    <radialGradient
       r="117.14286"
       id="radialGradient7078"
       xlink:href="#linearGradient10457"
       gradientUnits="userSpaceOnUse"
       gradientTransform="matrix(-0.01253114,0,0,0.00823569,51.05202,204.98032)"
       fy="486.64789"
       fx="605.71429"
       cy="486.64789"
       cx="605.71429" />
    <radialGradient
       r="117.14286"
       id="radialGradient7082"
       xlink:href="#linearGradient10457"
       gradientUnits="userSpaceOnUse"
       gradientTransform="matrix(0.01253114,0,0,0.00823569,52.94798,204.98035)"
       fy="486.64789"
       fx="605.71429"
       cy="486.64789"
       cx="605.71429" />
  </defs>
  <g
     transform="translate(-40,-186)"
     id="g153">
    <rect
       y="208"
       x="43.5"
       width="16.999998"
       style="display:inline;overflow:visible;visibility:visible;opacity:0.15;fill:url(#linearGradient3027);fill-opacity:1;fill-rule:nonzero;stroke:none;stroke-width:1;marker:none"
       id="rect2879"
       height="2" />
    <path
       style="display:inline;fill:url(#linearGradient3016);fill-opacity:1;stroke:none"
       id="path4160-3"
       d="m 44,188 c 3.666412,0 15.99998,0.001 15.99998,0.001 L 60,208 H 44 v -19.99998 z" />
    <path
       style="fill:none;stroke:url(#linearGradient3013);stroke-width:1;stroke-linecap:round;stroke-linejoin:miter;stroke-miterlimit:4;stroke-dasharray:none;stroke-dashoffset:0;stroke-opacity:1"
       id="rect6741-1-3"
       d="m 59.5,207.5 h -15 v -19 h 15 z" />
    <path
       style="display:inline;opacity:0.3;fill:none;stroke:#000000;stroke-width:0.99992186;stroke-linecap:butt;stroke-linejoin:round;stroke-miterlimit:4;stroke-dasharray:none;stroke-dashoffset:0;stroke-opacity:1"
       id="path4160-3-1"
       d="m 43.49996,187.49996 c 3.895581,0 17.000059,0.001 17.000059,0.001 l 2.1e-5,20.99871 H 43.49996 v -21.00005 z" />
    <path
       style="color:#bebebe;display:inline;overflow:visible;visibility:visible;opacity:0.2;fill:#3689e6;fill-opacity:1;fill-rule:nonzero;stroke:none;stroke-width:1;marker:none;enable-background:accumulate"
       id="path10832"
       d="m 52,191.45556 c 0,0 -0.666655,0 -0.666655,0.63707 0,0.63703 -0.666685,0.63703 -0.666685,0.63703 0,0 -0.66666,4.5e-4 -0.66666,-0.63703 V 201 h 4 v -8.90737 c 0,0.63703 -0.666655,0.63703 -0.666655,0.63703 0,0 -0.66669,0 -0.66669,-0.63703 C 52.666655,191.45556 52,191.45556 52,191.45556 Z"
       sodipodi:nodetypes="csccccccsc" />
    <path
       style="color:#bebebe;display:inline;overflow:visible;visibility:visible;opacity:0.5;fill:#3689e6;fill-opacity:1;fill-rule:nonzero;stroke:none;stroke-width:1;marker:none;enable-background:accumulate"
       id="path10846"
       d="m 50.666668,194.33707 c 0,0 -0.666666,-5.4e-4 -0.666666,0.63704 V 199 h 3.999997 v -4.02589 c 0,-0.63704 -0.666666,-0.63704 -0.666666,-0.63704 0,0 -0.666667,0 -0.666667,0.63704 0,0.63705 -0.666666,0.63705 -0.666666,0.63705 0,0 -0.666666,0 -0.666666,-0.63705 0,-0.63704 -0.666666,-0.63704 -0.666666,-0.63704 z"
       sodipodi:nodetypes="csccscscsc" />
    <path
       id="path873-5"
       style="font-variation-settings:normal;vector-effect:none;fill:#3689e6;fill-opacity:1;stroke:none;stroke-width:0.999994;stroke-linecap:butt;stroke-linejoin:miter;stroke-miterlimit:4;stroke-dasharray:none;stroke-dashoffset:0;stroke-opacity:1;-inkscape-stroke:none;marker:none;stop-color:#000000"
       d="m 56.999999,199.7778 c 0,-0.4309 -0.334639,-0.7778 -0.750328,-0.7778 h -8.49934 C 47.33465,199 47,199.3469 47,199.7778 c 0,0.23224 0.0974,0.43955 0.25206,0.58183 l 4.22379,4.42769 C 51.610229,204.91883 51.79084,205 51.990229,205 c 0.199401,0 0.380009,-0.0812 0.514391,-0.21268 l 4.243319,-4.42769 c 0.15471,-0.14228 0.25206,-0.34959 0.25206,-0.58183 z" />
    <path
       style="color:#bebebe;display:inline;overflow:visible;visibility:visible;fill:#3689e6;fill-opacity:1;fill-rule:nonzero;stroke:none;stroke-width:1;marker:none;enable-background:accumulate"
       id="path10852"
       d="m 52,196.95508 c 0,0 -0.66699,5e-4 -0.66699,0.63769 0,0.63704 -0.66602,0.63672 -0.66602,0.63672 0,0 -0.66699,0.001 -0.66699,-0.63672 V 200 h 4 v -2.40722 c 0,0.63703 -0.66699,0.63671 -0.66699,0.63671 0,0 -0.66602,3.2e-4 -0.66602,-0.63671 0,-0.63707 -0.66699,-0.6377 -0.66699,-0.6377 z"
       sodipodi:nodetypes="csccccccsc" />
    <path
       style="display:inline;overflow:visible;visibility:visible;opacity:0.15;fill:url(#radialGradient7078);fill-opacity:1;fill-rule:nonzero;stroke:none;stroke-width:1;marker:none"
       id="path7076"
       d="m 43.5,207.99999 v 1.99998 c -0.64533,0.004 -1.56008,-0.44811 -1.56008,-1.00013 0,-0.55203 0.72013,-0.99985 1.56008,-0.99985 z" />
    <path
       style="display:inline;overflow:visible;visibility:visible;opacity:0.15;fill:url(#radialGradient7082);fill-opacity:1;fill-rule:nonzero;stroke:none;stroke-width:1;marker:none"
       id="path7080"
       d="M 60.5,208.00002 V 210 c 0.64533,0.004 1.56008,-0.44811 1.56008,-1.00013 0,-0.55203 -0.72013,-0.99985 -1.56008,-0.99985 z" />
  </g>
</svg>
