<?xml version="1.0" encoding="UTF-8" standalone="no"?>
<svg
   id="svg3828"
   height="24"
   width="24"
   version="1.1"
   inkscape:version="1.2.2 (b0a8486541, 2022-12-01)"
   sodipodi:docname="application-vnd.openxmlformats-officedocument.spreadsheetml.template.svg"
   xmlns:inkscape="http://www.inkscape.org/namespaces/inkscape"
   xmlns:sodipodi="http://sodipodi.sourceforge.net/DTD/sodipodi-0.dtd"
   xmlns:xlink="http://www.w3.org/1999/xlink"
   xmlns="http://www.w3.org/2000/svg"
   xmlns:svg="http://www.w3.org/2000/svg"
   xmlns:rdf="http://www.w3.org/1999/02/22-rdf-syntax-ns#"
   xmlns:cc="http://creativecommons.org/ns#"
   xmlns:dc="http://purl.org/dc/elements/1.1/">
  <sodipodi:namedview
     pagecolor="#ffffff"
     bordercolor="#666666"
     borderopacity="1"
     objecttolerance="10"
     gridtolerance="10"
     guidetolerance="10"
     inkscape:pageopacity="0"
     inkscape:pageshadow="2"
     inkscape:window-width="1396"
     inkscape:window-height="859"
     id="namedview38"
     showgrid="true"
     inkscape:zoom="6.9532166"
     inkscape:cx="24.95248"
     inkscape:cy="32.215306"
     inkscape:window-x="613"
     inkscape:window-y="390"
     inkscape:window-maximized="0"
     inkscape:current-layer="svg3828"
     inkscape:document-rotation="0"
     inkscape:pagecheckerboard="0"
     inkscape:showpageshadow="2"
     inkscape:deskcolor="#d1d1d1">
    <inkscape:grid
       type="xygrid"
       id="grid4278" />
  </sodipodi:namedview>
  <defs
     id="defs3830">
    <linearGradient
       id="linearGradient3977">
      <stop
         offset="0"
         style="stop-color:#ffffff;stop-opacity:1"
         id="stop3979" />
      <stop
         offset="0"
         style="stop-color:#ffffff;stop-opacity:0.23529412"
         id="stop3981" />
      <stop
         offset="1"
         style="stop-color:#ffffff;stop-opacity:0.15686275"
         id="stop3983" />
      <stop
         offset="1"
         style="stop-color:#ffffff;stop-opacity:0.39215687"
         id="stop3985" />
    </linearGradient>
    <linearGradient
       id="linearGradient3600-4">
      <stop
         offset="0"
         style="stop-color:#f4f4f4;stop-opacity:1"
         id="stop3602-7" />
      <stop
         offset="1"
         style="stop-color:#dbdbdb;stop-opacity:1"
         id="stop3604-6" />
    </linearGradient>
    <linearGradient
       id="linearGradient5060">
      <stop
         offset="0"
         style="stop-color:#000000;stop-opacity:1"
         id="stop5062" />
      <stop
         offset="1"
         style="stop-color:#000000;stop-opacity:0"
         id="stop5064" />
    </linearGradient>
    <linearGradient
       id="linearGradient5048">
      <stop
         offset="0"
         style="stop-color:#000000;stop-opacity:0"
         id="stop5050" />
      <stop
         offset="0.5"
         style="stop-color:#000000;stop-opacity:1"
         id="stop5056" />
      <stop
         offset="1"
         style="stop-color:#000000;stop-opacity:0"
         id="stop5052" />
    </linearGradient>
    <linearGradient
       gradientTransform="matrix(0.40540511,0,0,0.51351351,2.2696871,-0.3243195)"
       gradientUnits="userSpaceOnUse"
       xlink:href="#linearGradient3977"
       id="linearGradient3013"
       y2="41.526306"
       x2="23.99999"
       y1="6.4736748"
       x1="23.99999" />
    <linearGradient
       gradientTransform="matrix(0.45714178,0,0,0.43456667,1.0285964,0.90372283)"
       gradientUnits="userSpaceOnUse"
       xlink:href="#linearGradient3600-4"
       id="linearGradient3016"
       y2="47.013336"
       x2="25.132275"
       y1="0.98520643"
       x1="25.132275" />
    <radialGradient
       gradientTransform="matrix(0.01204859,0,0,0.0082353,13.238793,18.980564)"
       gradientUnits="userSpaceOnUse"
       xlink:href="#linearGradient5060"
       id="radialGradient3021"
       fy="486.64789"
       fx="605.71429"
       r="117.14286"
       cy="486.64789"
       cx="605.71429" />
    <radialGradient
       gradientTransform="matrix(-0.01204859,0,0,0.0082353,10.761206,18.980564)"
       gradientUnits="userSpaceOnUse"
       xlink:href="#linearGradient5060"
       id="radialGradient3024"
       fy="486.64789"
       fx="605.71429"
       r="117.14286"
       cy="486.64789"
       cx="605.71429" />
    <linearGradient
       gradientTransform="matrix(0.0352071,0,0,0.0082353,-0.724852,18.980547)"
       gradientUnits="userSpaceOnUse"
       xlink:href="#linearGradient5048"
       id="linearGradient3027"
       y2="609.50507"
       x2="302.85715"
       y1="366.64789"
       x1="302.85715" />
    <linearGradient
       id="linearGradient3242-7-3-8-0-4-58">
      <stop
         offset="0"
         style="stop-color:#bdff69;stop-opacity:1;"
         id="stop3244-5-8-5-6-4-3" />
      <stop
         offset="0.26238"
         style="stop-color:#8ed451;stop-opacity:1;"
         id="stop3246-9-5-1-5-3-0" />
      <stop
         offset="0.66093999"
         style="stop-color:#58aa30;stop-opacity:1;"
         id="stop3248-7-2-0-7-5-35" />
      <stop
         offset="1"
         style="stop-color:#2a6c1f;stop-opacity:1;"
         id="stop3250-8-2-8-5-6-40" />
    </linearGradient>
    <linearGradient
       id="linearGradient3412">
      <stop
         id="stop3414"
         style="stop-color:#fcfcfc;stop-opacity:1"
         offset="0" />
      <stop
         id="stop3416"
         style="stop-color:#cbcdd9;stop-opacity:1"
         offset="1" />
    </linearGradient>
    <linearGradient
       x1="35.06815"
       y1="20.622553"
       x2="43.550648"
       y2="29.10021"
       id="linearGradient3081"
       xlink:href="#linearGradient3412"
       gradientUnits="userSpaceOnUse"
       gradientTransform="matrix(0,0.61752191,-0.65185192,0,33.55926,-4.7555097)" />
    <radialGradient
       xlink:href="#linearGradient3242-7-3-8-0-4-58"
       id="radialGradient4777-3"
       gradientUnits="userSpaceOnUse"
       gradientTransform="matrix(-1.501195e-8,4.103576,-5.0378796,-1.8040853e-8,62.156945,-35.443688)"
       cx="5.6155143"
       cy="9.9571075"
       fx="5.0852842"
       fy="9.9571075"
       r="12.671875" />
  </defs>
  <metadata
     id="metadata3833">
    <rdf:RDF>
      <cc:Work
         rdf:about="">
        <dc:format>image/svg+xml</dc:format>
        <dc:type
           rdf:resource="http://purl.org/dc/dcmitype/StillImage" />
      </cc:Work>
    </rdf:RDF>
  </metadata>
  <rect
     style="opacity:0.15;fill:url(#linearGradient3027);fill-opacity:1;fill-rule:nonzero;stroke:none;stroke-width:1;marker:none;visibility:visible;display:inline;overflow:visible"
     id="rect2879"
     y="22"
     x="3.5000007"
     height="2"
     width="16.999998" />
  <path
     style="opacity:0.15;fill:url(#radialGradient3024);fill-opacity:1;fill-rule:nonzero;stroke:none;stroke-width:1;marker:none;visibility:visible;display:inline;overflow:visible"
     id="path2881"
     d="m 3.4999999,22.000085 c 0,0 0,1.999891 0,1.999891 C 2.8795275,24.003776 2,23.551901 2,22.999901 2,22.447902 2.6924,22.000085 3.4999999,22.000085 z" />
  <path
     style="opacity:0.15;fill:url(#radialGradient3021);fill-opacity:1;fill-rule:nonzero;stroke:none;stroke-width:1;marker:none;visibility:visible;display:inline;overflow:visible"
     id="path2883"
     d="m 20.5,22.000085 c 0,0 0,1.999891 0,1.999891 0.620472,0.0038 1.5,-0.448075 1.5,-1.000075 0,-0.551999 -0.692402,-0.999816 -1.5,-0.999816 z" />
  <path
     style="display:inline;fill:url(#linearGradient3016);fill-opacity:1;stroke:none"
     id="path4160-3"
     d="m 4,2 c 3.6664118,0 15.99998,0.0013 15.99998,0.0013 L 20,22 C 20,22 9.3333337,22 4,22 4,15.33334 4,8.6666817 4,2.0000212 Z" />
  <path
     id="path4881"
     style="color:#000000;clip-rule:nonzero;display:inline;overflow:visible;visibility:visible;isolation:auto;mix-blend-mode:normal;color-interpolation:sRGB;color-interpolation-filters:linearRGB;solid-color:#000000;solid-opacity:1;fill:url(#radialGradient4777-3);fill-opacity:1;fill-rule:nonzero;stroke:none;stroke-width:1;stroke-linecap:butt;stroke-linejoin:miter;stroke-miterlimit:4;stroke-dasharray:none;stroke-dashoffset:0;stroke-opacity:1;marker:none;color-rendering:auto;image-rendering:auto;shape-rendering:auto;text-rendering:auto;enable-background:accumulate"
     d="M 12,7 6,8 v 8.800781 L 12,18 Z m 1,1 v 9 h 5 V 8 Z m 1,1 h 1 v 1 h -1 z m 2,0 h 1 v 1 h -1 z m -5.962891,1.185547 c 0.07265,-0.0014 0.111364,-0.0031 0.111329,0 -5.6e-5,0.0061 -0.2049672,0.471414 -0.4628911,1.025391 l -0.4746094,1 0.4746094,1 c 0.2579239,0.546547 0.4628911,1.014233 0.4628911,1.037109 0,0.04804 -0.3438675,0.0408 -0.6367192,-0.01172 -0.1938479,-0.03476 -0.2047082,-0.0573 -0.4511719,-0.675781 -0.1404519,-0.352458 -0.2751762,-0.662847 -0.2988281,-0.6875 -0.02364,-0.02465 -0.1616254,0.24282 -0.3007813,0.587891 -0.1391559,0.345067 -0.2682814,0.641369 -0.2871094,0.662109 -0.01884,0.02076 -0.1891549,0.02076 -0.3867187,0 l -0.3632813,-0.03711 0.4375,-0.925782 0.4375,-0.923828 -0.3867187,-0.888672 C 7.6999456,10.858005 7.5234375,10.42145 7.5234375,10.386719 c 0,-0.03876 0.1464922,-0.0625 0.375,-0.0625 h 0.375 l 0.2128906,0.599609 c 0.1194319,0.328426 0.2396428,0.612513 0.2617188,0.636719 0.02208,0.0242 0.171912,-0.268195 0.3261719,-0.650391 l 0.2753906,-0.6875 0.3984375,-0.02344 c 0.1102639,-0.0052 0.2164109,-0.01222 0.2890621,-0.01367 z M 14,11 h 1 v 1 h -1 z m 2,0 h 1 v 1 h -1 z m -2,2 h 1 v 1 h -1 z m 2,0 h 1 v 1 h -1 z m -2,2 h 1 v 1 h -1 z m 2,0 h 1 v 1 h -1 z" />
  <path
     style="fill:none;stroke:url(#linearGradient3013);stroke-width:1;stroke-linecap:round;stroke-linejoin:miter;stroke-miterlimit:4;stroke-opacity:1;stroke-dasharray:none;stroke-dashoffset:0"
     id="rect6741-1"
     d="m 19.5,21.5 -15.0000004,0 0,-19 L 19.5,2.5 z" />
  <path
     style="opacity:0.3;fill:none;stroke:#000000;stroke-width:0.99992186;stroke-linecap:butt;stroke-linejoin:round;stroke-miterlimit:4;stroke-opacity:1;stroke-dasharray:none;stroke-dashoffset:0;display:inline"
     id="path4160-3-1"
     d="m 3.4999601,1.4999569 c 3.8955809,0 17.0000589,0.00136 17.0000589,0.00136 l 2.1e-5,20.9987161 c 0,0 -11.3333862,0 -17.0000799,0 0,-7.000018 0,-14.000035 0,-21.0000538 z" />
  <g
     id="g4198"
     transform="matrix(1.2992953,0,0,1.3610939,-5.4236416,-8.4980338)"
     style="stroke-width:0.751974">
    <path
       d="M 21.491162,13.028313 10.854674,23.509221 h 10.636488 z m -2.308944,5.337795 v 2.938708 h -3.078592 z"
       id="path3410"
       style="opacity:0.8;fill:url(#linearGradient3081);fill-opacity:1;fill-rule:evenodd;stroke:#83899a;stroke-width:0.751974px;stroke-linecap:butt;stroke-linejoin:miter;stroke-opacity:1"
       sodipodi:nodetypes="cccccccc" />
  </g>
</svg>
