<?xml version="1.0" encoding="UTF-8" standalone="no"?>
<svg
   version="1.1"
   width="24"
   height="24"
   id="svg7107"
   sodipodi:docname="application-x-rpm.svg"
   inkscape:version="1.2.2 (b0a8486541, 2022-12-01)"
   xmlns:inkscape="http://www.inkscape.org/namespaces/inkscape"
   xmlns:sodipodi="http://sodipodi.sourceforge.net/DTD/sodipodi-0.dtd"
   xmlns:xlink="http://www.w3.org/1999/xlink"
   xmlns="http://www.w3.org/2000/svg"
   xmlns:svg="http://www.w3.org/2000/svg"
   xmlns:rdf="http://www.w3.org/1999/02/22-rdf-syntax-ns#"
   xmlns:cc="http://creativecommons.org/ns#"
   xmlns:dc="http://purl.org/dc/elements/1.1/">
  <sodipodi:namedview
     id="namedview54"
     pagecolor="#ffffff"
     bordercolor="#666666"
     borderopacity="1.0"
     inkscape:pageshadow="2"
     inkscape:pageopacity="0.0"
     inkscape:pagecheckerboard="0"
     showgrid="false"
     inkscape:zoom="28.416667"
     inkscape:cx="7.4252199"
     inkscape:cy="14.480938"
     inkscape:window-width="1317"
     inkscape:window-height="890"
     inkscape:window-x="487"
     inkscape:window-y="133"
     inkscape:window-maximized="0"
     inkscape:current-layer="svg7107"
     inkscape:showpageshadow="2"
     inkscape:deskcolor="#d1d1d1" />
  <defs
     id="defs7109">
    <linearGradient
       id="linearGradient2671">
      <stop
         offset="0"
         stop-color="#fff"
         id="stop2663" />
      <stop
         offset="0.21609467"
         stop-color="#fff"
         id="stop2665" />
      <stop
         offset="0.36015779"
         stop-color="#fff"
         stop-opacity=".643"
         id="stop2667" />
      <stop
         offset="1"
         stop-color="#fff"
         stop-opacity=".391"
         id="stop2669" />
    </linearGradient>
    <linearGradient
       xlink:href="#linearGradient121303"
       id="linearGradient121764"
       gradientUnits="userSpaceOnUse"
       gradientTransform="matrix(0.46324744,0,0,0.39332388,0.88842124,4.2372046)"
       x1="25.086039"
       y1="-0.47852933"
       x2="25.086039"
       y2="18.299334" />
    <linearGradient
       id="linearGradient121303">
      <stop
         id="stop121295"
         style="stop-color:#ffffff;stop-opacity:1"
         offset="0" />
      <stop
         id="stop121297"
         style="stop-color:#ffffff;stop-opacity:0.23529412"
         offset="0.08609325" />
      <stop
         id="stop121299"
         style="stop-color:#ffffff;stop-opacity:0.15686275"
         offset="0.93896598" />
      <stop
         id="stop121301"
         style="stop-color:#ffffff;stop-opacity:0.39215687"
         offset="1" />
    </linearGradient>
    <linearGradient
       xlink:href="#linearGradient3924-2-2-5-8"
       id="linearGradient121760"
       gradientUnits="userSpaceOnUse"
       gradientTransform="matrix(0.45945951,0,0,0.37837833,0.97296934,4.4189186)"
       x1="23.99999"
       y1="6.8214302"
       x2="23.99999"
       y2="41.178577" />
    <linearGradient
       id="linearGradient3924-2-2-5-8">
      <stop
         id="stop3926-9-4-9-6"
         style="stop-color:#ffffff;stop-opacity:1"
         offset="0" />
      <stop
         id="stop3928-9-8-6-5"
         style="stop-color:#ffffff;stop-opacity:0.23529412"
         offset="0.07495743" />
      <stop
         id="stop3930-3-5-1-7"
         style="stop-color:#ffffff;stop-opacity:0.15686275"
         offset="0.92307693" />
      <stop
         id="stop3932-8-0-4-8"
         style="stop-color:#ffffff;stop-opacity:0.39215687"
         offset="1" />
    </linearGradient>
    <linearGradient
       xlink:href="#d"
       id="linearGradient121758"
       gradientUnits="userSpaceOnUse"
       gradientTransform="matrix(0.59060316,0,0,0.54106907,-1.884579,-1.44337)"
       x1="23.452"
       y1="30.555"
       x2="43.007"
       y2="45.933998" />
    <linearGradient
       id="d">
      <stop
         offset="0"
         stop-color="#fff"
         stop-opacity="0"
         id="stop65" />
      <stop
         offset="1"
         stop-color="#fff"
         stop-opacity="0"
         id="stop67" />
    </linearGradient>
    <linearGradient
       xlink:href="#linearGradient855"
       id="linearGradient121756"
       gradientUnits="userSpaceOnUse"
       gradientTransform="matrix(0.59418207,0,0,0.62971369,20.177759,-6.0846012)"
       x1="-5.8870335"
       y1="19.72085"
       x2="-5.8870335"
       y2="43.375748" />
    <linearGradient
       xlink:href="#linearGradient855"
       id="linearGradient1703"
       gradientUnits="userSpaceOnUse"
       gradientTransform="matrix(0.59418207,0,0,0.61617359,20.184777,-6.1580918)"
       x1="-5.8870335"
       y1="11.482978"
       x2="-5.8870335"
       y2="22.148865" />
    <radialGradient
       cx="5"
       cy="41.5"
       fx="5"
       fy="41.5"
       gradientTransform="matrix(1.0028871,0,0,1.6,-26.450086,-100.24811)"
       gradientUnits="userSpaceOnUse"
       xlink:href="#g"
       id="k-0-7-3-9-3"
       r="5" />
    <linearGradient
       id="g">
      <stop
         offset="0"
         id="stop13" />
      <stop
         offset="1"
         stop-opacity="0"
         id="stop15" />
    </linearGradient>
    <linearGradient
       xlink:href="#h"
       id="linearGradient121754"
       gradientUnits="userSpaceOnUse"
       gradientTransform="matrix(2.1304332,0,0,1.45455,-96.001966,-25.061894)"
       x1="17.554001"
       y1="46"
       x2="17.554001"
       y2="35" />
    <linearGradient
       id="h">
      <stop
         offset="0"
         stop-opacity="0"
         id="stop54" />
      <stop
         offset=".5"
         id="stop56" />
      <stop
         offset="1"
         stop-opacity="0"
         id="stop58" />
    </linearGradient>
    <radialGradient
       cx="5"
       cy="41.5"
       fx="5"
       fy="41.5"
       gradientTransform="matrix(1.0028871,0,0,1.6,65.421996,-100.24811)"
       gradientUnits="userSpaceOnUse"
       xlink:href="#g"
       id="i-6-9-7-8-9"
       r="5" />
    <linearGradient
       xlink:href="#linearGradient2671"
       id="linearGradient121762-6"
       gradientUnits="userSpaceOnUse"
       gradientTransform="matrix(0.49693557,0,0,0.57610552,0.079678,-3.6742869)"
       x1="24.537001"
       y1="21.915001"
       x2="24.537001"
       y2="7.9130001" />
    <linearGradient
       id="linearGradient855">
      <stop
         id="stop851"
         offset="0"
         style="stop-color:#fafafa;stop-opacity:1" />
      <stop
         id="stop853"
         offset="1"
         style="stop-color:#d4d4d4;stop-opacity:1" />
    </linearGradient>
  </defs>
  <metadata
     id="metadata7112">
    <rdf:RDF>
      <cc:Work
         rdf:about="">
        <dc:format>image/svg+xml</dc:format>
        <dc:type
           rdf:resource="http://purl.org/dc/dcmitype/StillImage" />
      </cc:Work>
    </rdf:RDF>
  </metadata>
  <g
     id="g2756"
     transform="matrix(0.37288137,0,0,0.40625,29.129042,6.4992068)"
     style="stroke-width:2.56931">
    <rect
       fill="url(#i)"
       height="16"
       opacity="0.4"
       transform="scale(-1)"
       width="5"
       x="70.436974"
       y="-41.848106"
       id="rect77-9-90-2-7-8"
       style="fill:url(#i-6-9-7-8-9);stroke-width:2.56931" />
    <rect
       fill="url(#j)"
       height="16"
       opacity="0.4"
       width="49"
       x="-70.436974"
       y="25.848106"
       id="rect79-7-2-0-1-4"
       style="fill:url(#linearGradient121754);stroke-width:2.56931" />
    <rect
       fill="url(#k)"
       height="16"
       opacity="0.4"
       transform="scale(1,-1)"
       width="5"
       x="-21.436975"
       y="-41.848106"
       id="rect81-3-8-6-7-8"
       style="fill:url(#k-0-7-3-9-3);stroke-width:2.56931" />
  </g>
  <path
     id="rect5505-21-1-5-0-6-5-1-2-5-10"
     style="color:#000000;font-variation-settings:normal;display:inline;overflow:visible;visibility:visible;vector-effect:none;fill:url(#linearGradient1703);fill-opacity:1.0;fill-rule:nonzero;stroke:none;stroke-width:1;stroke-linecap:butt;stroke-linejoin:miter;stroke-miterlimit:4;stroke-dasharray:none;stroke-dashoffset:0;stroke-opacity:0.3;-inkscape-stroke:none;marker:none;enable-background:accumulate;stop-color:#000000"
     d="m 5.954546,2.499999 c -1.148292,0 -1.606365,0.6541642 -2.072729,1.6666673 C 3.524347,4.9407062 3.108431,5.7415735 2.777983,6.4999992 2.602235,6.7940451 2.499999,7.1348294 2.499999,7.499999 h 19.000008 c 0,-0.3651696 -0.102238,-0.7059539 -0.277985,-0.9999998 C 20.882617,5.7454148 20.485651,4.936366 20.118188,4.1666663 19.637695,3.1603309 19.193751,2.499999 18.04546,2.499999 Z" />
  <path
     id="rect5505-21-1-5-0-6-5-1-2-3"
     style="color:#000000;font-variation-settings:normal;display:inline;overflow:visible;visibility:visible;vector-effect:none;fill:url(#linearGradient121756);fill-opacity:1.0;fill-rule:nonzero;stroke:none;stroke-width:0.999994;stroke-linecap:butt;stroke-linejoin:miter;stroke-miterlimit:4;stroke-dasharray:none;stroke-dashoffset:0;stroke-opacity:0.3;-inkscape-stroke:none;marker:none;enable-background:accumulate;stop-color:#000000"
     d="M 4.572728,6 C 3.709091,6 2.5,6.7423074 2.5,8.5549362 V 19.455998 c 0,0.08585 0.0071,0.169901 0.01755,0.252833 0.0024,0.01923 0.0058,0.03815 0.0088,0.05722 0.01043,0.06698 0.02363,0.132987 0.04048,0.197609 0.0043,0.01667 0.0081,0.0334 0.01282,0.0499 0.04732,0.163983 0.11389,0.319965 0.198367,0.464412 2.48e-4,4.44e-4 3.45e-4,8.86e-4 6.91e-4,0.0014 C 3.13637,21.089938 3.80345,21.5 4.572754,21.5 h 14.854552 c 0.769303,0 1.436383,-0.410062 1.79407,-1.020643 1.94e-4,-4.44e-4 3.46e-4,-8.87e-4 6.91e-4,-0.0014 0.08448,-0.144448 0.15105,-0.30043 0.198367,-0.464413 0.0047,-0.01651 0.0085,-0.03322 0.01281,-0.0499 0.01686,-0.06462 0.03006,-0.130628 0.04048,-0.197609 0.0028,-0.01906 0.0064,-0.03798 0.0088,-0.05722 0.01046,-0.08293 0.01752,-0.166987 0.01752,-0.252835 V 8.7252651 C 21.500044,7.4492734 20.981862,6 19.427316,6 Z" />
  <path
     d="m 5.493643,5.381094 h 12.736915 c 0.743763,0 1.20391,0.256328 1.515509,0.961056 l 1.072637,2.9570964 V 19.959646 c 0,0.672601 -0.377237,1.011492 -1.120655,1.011492 H 4.160188 c -0.743419,0 -1.046728,-0.372746 -1.046728,-1.045347 V 9.2985555 L 4.151551,6.278241 C 4.358824,5.732422 4.750225,5.380749 5.493643,5.380749 Z"
     display="block"
     fill="none"
     opacity="0.505"
     overflow="visible"
     stroke="url(#m)"
     stroke-width="0.742"
     style="stroke:url(#linearGradient121758);marker:none"
     id="path85-1-8-5-7-0" />
  <rect
     style="opacity:1;fill:none;stroke:url(#linearGradient121760);stroke-width:1;stroke-linecap:round;stroke-linejoin:round;stroke-miterlimit:4;stroke-dasharray:none;stroke-dashoffset:0;stroke-opacity:1"
     id="rect6741-5-0-2-3-4-2-4"
     y="6.4999986"
     x="3.4999986"
     ry="1"
     height="14"
     width="17"
     rx="1" />
  <path
     id="rect5505-21-1-5-0-6-5-1-2-5-1-4"
     style="color:#000000;font-variation-settings:normal;display:inline;overflow:visible;visibility:visible;vector-effect:none;fill:none;fill-opacity:1;fill-rule:nonzero;stroke:#555761;stroke-width:1;stroke-linecap:round;stroke-linejoin:round;stroke-miterlimit:4;stroke-dasharray:none;stroke-dashoffset:0;stroke-opacity:1;-inkscape-stroke:none;marker:none;enable-background:accumulate;stop-color:#000000;opacity:0.5;stop-opacity:1"
     d="m 5.954546,2.499999 c -1.148292,0 -1.606365,0.677953 -2.072729,1.727276 C 3.524347,5.029463 3.108431,5.859454 2.777983,6.64546 2.602235,6.950199 2.499999,7.303376 2.499999,7.681825 v 11.745474 c 0,1.148293 0.924436,2.072731 2.072728,2.072731 h 14.854552 c 1.14829,0 2.072728,-0.924438 2.072728,-2.072731 V 7.681825 c 0,-0.378449 -0.102238,-0.731626 -0.277985,-1.036365 C 20.882617,5.863435 20.485651,5.024965 20.118188,4.227275 19.637695,3.184344 19.193751,2.499999 18.04546,2.499999 Z" />
  <path
     id="rect5505-21-1-5-0-6-5-1-2-5-1-7-7"
     style="color:#000000;font-variation-settings:normal;display:inline;overflow:visible;visibility:visible;opacity:0.5;vector-effect:none;fill:none;fill-opacity:1;fill-rule:nonzero;stroke:url(#linearGradient121764);stroke-width:0.999994;stroke-linecap:round;stroke-linejoin:round;stroke-miterlimit:4;stroke-dasharray:none;stroke-dashoffset:0;stroke-opacity:1;-inkscape-stroke:none;marker:none;enable-background:accumulate;stop-color:#000000"
     d="M 20.132782,6.733994 19.297362,4.9230806 C 19.077192,4.4451762 18.921714,3.9706724 18.683129,3.7420464 18.444541,3.5134196 18.130819,3.4999985 17.65953,3.4999985 H 6.3405586 c -0.4719103,0 -0.7829126,0.010941 -1.0223184,0.2384658 C 5.0788345,3.9659912 4.9172751,4.4401584 4.7046143,4.918661 v 6.458e-4 L 3.8605301,6.733994" />
  <path
     d="m 11.177906,2.0000005 h 1.656452 L 12.987745,6 l 0.01226,3.0000005 c -0.195461,0 -0.391254,-0.4440268 -0.587047,-0.4440268 -0.200099,0 -0.40053,0.4440268 -0.60096,0.4440268 -0.161007,0 -0.322346,-0.3888417 -0.483684,-0.3888417 -0.105351,0 -0.210701,0.3888417 -0.316051,0.3888417 L 11.000003,6 Z"
     fill="url(#n)"
     opacity="0.3"
     overflow="visible"
     style="fill:url(#linearGradient121762-6);stroke-width:0.999997;marker:none"
     id="path87-0-9-7-6-4" />
  <path
     d="m 9.9704736,8.1420009 c 0.3181144,-0.055772 0.6392654,-0.096532 0.9609224,-0.1158771 0.05715,-0.015538 0.116262,-0.012354 0.174646,-0.014739 0.456546,-0.01661 0.913597,-0.015856 1.369889,0.00765 0.823502,0.066439 1.642955,0.2225004 2.437355,0.4827056 l -0.0033,0.00514 c -0.116465,0.1796861 -0.233284,0.3591408 -0.347471,0.5407331 -0.03422,0.00718 -0.06418,-0.017488 -0.09465,-0.029911 C 13.865043,8.7339856 13.223501,8.5693392 12.577909,8.4801321 11.515758,8.3560494 10.4283,8.4557425 9.4094246,8.8285919 8.6593139,9.1053964 7.9347629,9.5321519 7.3752164,10.17595 6.9786499,10.638447 6.6744548,11.236631 6.6329506,11.892268 6.5945046,12.204641 6.6600766,12.696577 6.7180846,13 H 4.202024 C 4.195934,12.493501 4.282338,12.294204 4.4666517,11.836038 4.8333559,10.943958 5.4987692,10.255223 6.2071231,9.7095804 6.6861917,9.3426436 7.2039811,9.0432633 7.7420164,8.8059522 8.4587218,8.4863619 9.2093387,8.2681063 9.9705846,8.1422336 Z"
     style="fill:#555761;fill-opacity:1;stroke-width:1.45979"
     sodipodi:nodetypes="ccccccccccccccccccc"
     id="path9634" />
  <path
     d="m 14.563765,9.0473621 c 0.114214,-0.1815343 0.231007,-0.3608736 0.347471,-0.5407333 1.066707,0.3562546 2.096717,0.9192181 2.938188,1.7576012 0.343927,0.351347 0.655208,0.748885 0.89411,1.201277 0.282936,0.532361 0.462366,0.910038 0.4816,1.534493 h -2.509481 c 0.10295,-0.373578 0.103839,-1.050344 0.03333,-1.431716 C 16.618321,10.909474 16.248149,10.34391 15.801474,9.9146146 15.429202,9.5572055 15.004543,9.2708151 14.554579,9.0612201 Z"
     style="fill:#ed5353;fill-opacity:1;stroke-width:1.45979"
     id="path9636"
     sodipodi:nodetypes="cccccccccc" />
  <path
     d="m 7.7940388,16.494393 0.00441,-2.485063 0.8326132,0.002 c 0.8776616,0.0022 1.0750586,0.0181 1.464286,0.118799 0.954341,0.246867 1.587786,0.827605 1.712045,1.569429 0.126006,0.752105 -0.343168,1.43899 -1.291689,1.891669 -0.341144,0.162789 -0.8040164,0.290465 -1.1719854,0.323524 l -0.1576912,0.0141 -0.00471,0.399344 -0.00471,0.399345 -0.055976,0.01276 c -0.030803,0.007 -0.3173553,0.05796 -0.6369871,0.11329 -0.3196334,0.05532 -0.6063657,0.106243 -0.6374938,0.113226 l -0.056436,0.01257 z m 1.5186958,0.958685 c 0.04477,-0.01336 0.159437,-0.07177 0.254845,-0.12983 0.358859,-0.218306 0.6207904,-0.528497 0.7617534,-0.902463 0.109049,-0.288857 0.117147,-0.559981 0.02599,-0.869369 -0.104394,-0.354367 -0.4026394,-0.739575 -0.7387204,-0.95483 -0.110695,-0.07088 -0.331021,-0.157681 -0.3998572,-0.157681 h -0.039378 v 1.519309 c 0,1.360601 0.00283,1.519311 0.027004,1.519311 0.014852,0 0.063627,-0.01092 0.1083912,-0.02428 z M 4.2006424,15.947261 v -1.948532 h 1.3876044 v 0.04677 c 0,0.04112 0.00681,0.04502 0.05636,0.03207 0.3257063,-0.08504 0.8166697,-0.123471 1.0272272,-0.08032 0.073112,0.01498 0.1860343,0.05015 0.2509484,0.07818 0.1374441,0.05934 0.3818883,0.193503 0.381635,0.209534 -7.57e-5,0.0061 -0.064307,0.05976 -0.142759,0.11932 -0.078453,0.05956 -0.2458616,0.191383 -0.3720187,0.292906 l -0.2293855,0.184573 -0.064939,-0.05604 C 6.3646528,14.713011 6.2247788,14.67025 5.9871422,14.67025 c -0.1254488,0 -0.2550985,0.01244 -0.3077379,0.02971 l -0.091056,0.02972 v 3.166168 h -1.387604 z m 8.5336526,-0.0015 v -1.95014 l 2.718013,0.0095 c 2.758505,0.0096 2.842019,0.01219 3.193792,0.09407 0.263449,0.06129 0.418332,0.135547 0.500833,0.240281 l 0.07372,0.09352 v 3.463356 h -1.387606 v -3.40873 l -0.07372,-0.04022 c -0.06451,-0.03522 -0.13709,-0.04122 -0.581056,-0.04816 l -0.507415,-0.008 v 3.505111 h -1.387351 l -0.0089,-3.418368 -0.06937,-0.03389 c -0.0551,-0.02693 -0.173887,-0.03565 -0.576756,-0.0425 l -0.507412,-0.0086 v 3.505112 h -1.3876 z"
     style="fill:#555761;fill-opacity:1;stroke-width:1.00039"
     id="path9640" />
</svg>
