<?xml version="1.0" encoding="UTF-8" standalone="no"?>
<svg
   version="1.0"
   width="24"
   height="24"
   id="svg2453"
   sodipodi:docname="image-x-generic3.svg"
   inkscape:version="1.1.1 (3bf5ae0d25, 2021-09-20)"
   xmlns:inkscape="http://www.inkscape.org/namespaces/inkscape"
   xmlns:sodipodi="http://sodipodi.sourceforge.net/DTD/sodipodi-0.dtd"
   xmlns:xlink="http://www.w3.org/1999/xlink"
   xmlns="http://www.w3.org/2000/svg"
   xmlns:svg="http://www.w3.org/2000/svg"
   xmlns:rdf="http://www.w3.org/1999/02/22-rdf-syntax-ns#"
   xmlns:cc="http://creativecommons.org/ns#"
   xmlns:dc="http://purl.org/dc/elements/1.1/">
  <sodipodi:namedview
     id="namedview48"
     pagecolor="#ffffff"
     bordercolor="#666666"
     borderopacity="1.0"
     inkscape:pageshadow="2"
     inkscape:pageopacity="0.0"
     inkscape:pagecheckerboard="0"
     showgrid="false"
     inkscape:zoom="45.254834"
     inkscape:cx="7.2146989"
     inkscape:cy="13.214058"
     inkscape:window-width="1317"
     inkscape:window-height="890"
     inkscape:window-x="601"
     inkscape:window-y="36"
     inkscape:window-maximized="0"
     inkscape:current-layer="svg2453" />
  <metadata
     id="metadata35">
    <rdf:RDF>
      <cc:Work
         rdf:about="">
        <dc:format>image/svg+xml</dc:format>
        <dc:type
           rdf:resource="http://purl.org/dc/dcmitype/StillImage" />
      </cc:Work>
    </rdf:RDF>
  </metadata>
  <defs
     id="defs2455">
    <radialGradient
       cx="605.71429"
       cy="486.64789"
       r="117.14286"
       fx="605.71429"
       fy="486.64789"
       id="radialGradient19613"
       xlink:href="#linearGradient5060"
       gradientUnits="userSpaceOnUse"
       gradientTransform="matrix(0.02891661,0,0,0.01235294,26.973101,38.470848)" />
    <linearGradient
       id="linearGradient5060">
      <stop
         id="stop5062"
         style="stop-color:#000000;stop-opacity:1"
         offset="0" />
      <stop
         id="stop5064"
         style="stop-color:#000000;stop-opacity:0"
         offset="1" />
    </linearGradient>
    <radialGradient
       cx="605.71429"
       cy="486.64789"
       r="117.14286"
       fx="605.71429"
       fy="486.64789"
       id="radialGradient19616"
       xlink:href="#linearGradient5060"
       gradientUnits="userSpaceOnUse"
       gradientTransform="matrix(-0.0289166,0,0,0.01235294,21.026894,38.470848)" />
    <linearGradient
       id="linearGradient5048">
      <stop
         id="stop5050"
         style="stop-color:#000000;stop-opacity:0"
         offset="0" />
      <stop
         id="stop5056"
         style="stop-color:#000000;stop-opacity:1"
         offset="0.5" />
      <stop
         id="stop5052"
         style="stop-color:#000000;stop-opacity:0"
         offset="1" />
    </linearGradient>
    <linearGradient
       x1="302.85715"
       y1="366.64789"
       x2="302.85715"
       y2="609.50507"
       id="linearGradient19619"
       xlink:href="#linearGradient5048"
       gradientUnits="userSpaceOnUse"
       gradientTransform="matrix(0.08449704,0,0,0.01235294,-6.5396456,38.470822)" />
    <linearGradient
       id="linearGradient3600">
      <stop
         id="stop3602"
         style="stop-color:#f4f4f4;stop-opacity:1"
         offset="0" />
      <stop
         id="stop3604"
         style="stop-color:#dbdbdb;stop-opacity:1"
         offset="1" />
    </linearGradient>
    <linearGradient
       id="linearGradient3977">
      <stop
         id="stop3979"
         style="stop-color:#ffffff;stop-opacity:1"
         offset="0" />
      <stop
         id="stop3981"
         style="stop-color:#ffffff;stop-opacity:0.23529412"
         offset="0.03626217" />
      <stop
         id="stop3983"
         style="stop-color:#ffffff;stop-opacity:0.15686275"
         offset="0.95056331" />
      <stop
         id="stop3985"
         style="stop-color:#ffffff;stop-opacity:0.39215687"
         offset="1" />
    </linearGradient>
    <linearGradient
       x1="23.99999"
       y1="5.5641499"
       x2="23.99999"
       y2="43"
       id="linearGradient3138"
       xlink:href="#linearGradient3977"
       gradientUnits="userSpaceOnUse"
       gradientTransform="matrix(0.5810811,0,0,0.4533338,-1.9459441,0.99998846)" />
    <linearGradient
       x1="25.132275"
       y1="0.98520643"
       x2="25.132275"
       y2="47.013336"
       id="linearGradient3141"
       xlink:href="#linearGradient3600"
       gradientUnits="userSpaceOnUse"
       gradientTransform="matrix(0.62856995,0,0,0.39111046,-3.0856799,2.0133489)" />
    <linearGradient
       id="linearGradient4785-3">
      <stop
         id="stop4787-5"
         style="stop-color:#262626;stop-opacity:1"
         offset="0" />
      <stop
         id="stop4789-1"
         style="stop-color:#4d4d4d;stop-opacity:1"
         offset="1" />
    </linearGradient>
    <linearGradient
       id="linearGradient3610-302-9-7">
      <stop
         id="stop3796-3-8"
         style="stop-color:#1d1d1d;stop-opacity:1"
         offset="0" />
      <stop
         id="stop3798-1-9"
         style="stop-color:#000000;stop-opacity:1"
         offset="1" />
    </linearGradient>
    <linearGradient
       id="linearGradient3104-6">
      <stop
         offset="0"
         style="stop-color:#000000;stop-opacity:0.31782946"
         id="stop3106-3" />
      <stop
         offset="1"
         style="stop-color:#000000;stop-opacity:0.24031007"
         id="stop3108-9" />
    </linearGradient>
    <linearGradient
       xlink:href="#linearGradient3104-6"
       id="linearGradient3144"
       gradientUnits="userSpaceOnUse"
       gradientTransform="matrix(0.53064138,0,0,0.38635541,35.269607,0.99839636)"
       x1="-51.786404"
       y1="50.786446"
       x2="-51.786404"
       y2="2.9062471" />
    <linearGradient
       xlink:href="#linearGradient4785-3"
       id="linearGradient4002"
       gradientUnits="userSpaceOnUse"
       gradientTransform="matrix(-0.21357227,3.0276294e-4,7.9055237e-4,-0.16531253,26.44072,21.432197)"
       x1="45.414135"
       y1="15.270427"
       x2="45.567307"
       y2="96.25267" />
    <linearGradient
       xlink:href="#linearGradient3610-302-9-7"
       id="linearGradient4004"
       gradientUnits="userSpaceOnUse"
       gradientTransform="matrix(-0.48484378,6.8732317e-4,0.00230951,-0.48294421,0.39425854,-1.0667583)"
       x1="-24.032034"
       y1="-13.090545"
       x2="-24.097931"
       y2="-40.163883" />
    <linearGradient
       id="linearGradient3211">
      <stop
         id="stop3213"
         style="stop-color:#ffffff;stop-opacity:1"
         offset="0" />
      <stop
         id="stop3215"
         style="stop-color:#ffffff;stop-opacity:0"
         offset="1" />
    </linearGradient>
    <linearGradient
       x1="19.565496"
       y1="33.997028"
       x2="19.565496"
       y2="38.449821"
       id="linearGradient3219"
       xlink:href="#linearGradient3211"
       gradientUnits="userSpaceOnUse"
       gradientTransform="matrix(0.99326637,0,0,0.99898159,0.0362966,-0.97462625)" />
    <linearGradient
       x1="149.98465"
       y1="-104.23534"
       x2="149.98465"
       y2="-174.9679"
       id="linearGradient5104-88-8"
       xlink:href="#linearGradient3707-319-631-407-324-616-674-812-821-107-178-392-400-7-3-5-8"
       gradientUnits="userSpaceOnUse"
       gradientTransform="matrix(0.21501147,0,0,0.2317217,-16.202714,38.724515)" />
    <linearGradient
       id="linearGradient3707-319-631-407-324-616-674-812-821-107-178-392-400-7-3-5-8">
      <stop
         id="stop5440-9-8-4-9"
         style="stop-color:#272727;stop-opacity:1"
         offset="0" />
      <stop
         id="stop5442-0-9-2-7"
         style="stop-color:#454545;stop-opacity:1"
         offset="1" />
    </linearGradient>
  </defs>
  <path
     d="m 1,2.9999999 c 5.0413165,0 21.999973,0.00114 21.999973,0.00114 L 23,20.999999 c 0,0 -14.666666,0 -22,0 C 1,15 1,8.9999994 1,2.9999999 Z"
     id="path4160"
     style="display:inline;fill:url(#linearGradient3141);fill-opacity:1;stroke:none;stroke-width:0.999999" />
  <path
     style="fill:url(#linearGradient4002);fill-opacity:1;stroke:url(#linearGradient4004);stroke-width:0.999997;stroke-linecap:round;stroke-linejoin:miter;stroke-miterlimit:4;stroke-dasharray:none;stroke-opacity:1"
     d="M 20.500002,18.500003 H 3.4999999 l 9e-7,-13.0000029 L 20.5,5.5000014 Z"
     id="rect3582-50-4" />
  <path
     d="m 0.49996098,2.499961 c 5.27048052,0 23.00005402,0.00132 23.00005402,0.00132 l 2.4e-5,18.998759 c 0,0 -15.3333851,0 -23.00007802,0 0,-6.333367 0,-12.6666713 0,-18.999966 z"
     id="path4160-6-1"
     style="display:inline;fill:none;stroke:url(#linearGradient3144);stroke-width:0.999922;stroke-linecap:butt;stroke-linejoin:round;stroke-miterlimit:4;stroke-dasharray:none;stroke-dashoffset:0;stroke-opacity:1" />
  <path
     d="m 11.803672,5.7270082 c -0.563682,0 -1.020638,0.9784216 -1.020638,2.1853704 0,0.2008174 0.0082,0.3957774 0.03189,0.5804874 C 10.693787,8.361833 10.579043,8.221147 10.432189,8.100183 9.5386826,7.3641944 8.5273234,7.1609165 8.1835937,7.6392067 7.8398639,8.117495 8.2947782,9.105662 9.1882855,9.841648 c 0.1695373,0.139652 0.338151,0.240863 0.5103196,0.341465 -0.1950355,0.02669 -0.4000891,0.07229 -0.6060046,0.136586 -1.0822843,0.3379 -1.8322969,1.093833 -1.6744862,1.673172 0.1578108,0.579341 1.1663114,0.76473 2.2485958,0.426831 C 7.1324191,14.283009 6.0576944,16.90092 5.2460404,19 h 1.7255442 c 0.3983467,-1.023831 1.3834723,-3.876739 2.9024426,-5.760787 -0.2149872,0.957545 -0.075935,1.803395 0.3827398,1.980487 0.530254,0.204729 1.276079,-0.554873 1.658538,-1.690243 0.03441,-0.102123 0.05339,-0.206593 0.07973,-0.307319 0.0413,0.09745 0.07771,0.192727 0.12758,0.290245 0.541402,1.05866 1.387375,1.689811 1.881803,1.400001 0.49443,-0.289807 0.445716,-1.382806 -0.09567,-2.441466 -0.03088,-0.06039 -0.06297,-0.113268 -0.09568,-0.170731 0.05998,0.01997 0.113245,0.03385 0.175423,0.05122 1.090848,0.304703 2.090341,0.0888 2.232647,-0.495125 0.142308,-0.583924 -0.63148,-1.300176 -1.722328,-1.604879 -0.0167,-0.0047 -0.03118,-0.01266 -0.04784,-0.01708 0.0147,-0.0089 0.03316,-0.0081 0.04784,-0.01707 C 15.47513,9.613777 16.040494,8.69109 15.758654,8.168467 15.47681,7.6458436 14.45449,7.7186527 13.478161,8.322126 13.165433,8.515425 12.910467,8.737111 12.696736,8.970907 12.777786,8.657577 12.824315,8.295923 12.824315,7.9123692 12.824315,6.7054216 12.367359,5.727 11.803676,5.727 Z m 0.03189,3.6536648 c 0.704605,0 1.275798,0.611515 1.275798,1.365856 0,0.754341 -0.571193,1.365854 -1.275798,1.365854 -0.704606,0 -1.275799,-0.611513 -1.275799,-1.365854 0,-0.754341 0.571193,-1.365856 1.275799,-1.365856 z"
     id="path4019-3"
     style="color:#000000;display:inline;overflow:visible;visibility:visible;fill:url(#linearGradient5104-88-8);fill-opacity:1;fill-rule:nonzero;stroke:none;stroke-width:1;marker:none;enable-background:accumulate"
     sodipodi:nodetypes="csccssccsccccscccssccscccsscsccsssss" />
  <path
     d="m 11.803672,6.2562768 c -0.563682,0 -1.020638,0.9784228 -1.020638,2.1853692 0,0.200818 0.0082,0.395778 0.03189,0.58049 C 10.693787,8.891103 10.579043,8.750416 10.432189,8.629452 9.5386826,7.8934642 8.5273234,7.6901863 8.1835937,8.168475 c -0.3437298,0.478289 0.1111845,1.466456 1.0046918,2.202444 0.1695373,0.139648 0.338151,0.240862 0.5103196,0.341463 -0.1950355,0.02668 -0.4000891,0.0723 -0.6060046,0.136585 -1.0822843,0.3379 -1.8322969,1.093833 -1.6744862,1.673173 0.1578108,0.579341 1.1663114,0.764731 2.2485958,0.42683 C 8.2085179,14.357088 6.8224525,16.898296 5.8378101,19 l 1.8500066,-0.04527 c 0.3983467,-1.023832 0.6679442,-2.684603 2.1869145,-4.568653 -0.2149872,0.957547 -0.076639,1.185804 0.3820358,1.362897 0.530254,0.204729 1.276079,-0.554877 1.658538,-1.690247 0.03441,-0.102123 0.05339,-0.206591 0.07973,-0.307315 0.0413,0.09744 0.07771,0.192724 0.12758,0.290242 0.541402,1.058662 1.387375,1.689811 1.881803,1.400003 0.49443,-0.289809 0.445716,-1.382806 -0.09567,-2.441468 -0.03088,-0.06039 -0.06297,-0.113257 -0.09568,-0.17073 0.05998,0.01996 0.113245,0.03385 0.175423,0.05121 1.090848,0.304707 2.090341,0.0888 2.232647,-0.49512 0.142308,-0.583926 -0.63148,-1.300176 -1.722328,-1.60488 -0.0167,-0.0047 -0.03118,-0.01267 -0.04784,-0.01708 0.0147,-0.0089 0.03316,-0.0081 0.04784,-0.01708 0.976329,-0.603472 1.541693,-1.52616 1.259853,-2.048785 -0.281844,-0.522623 -1.304164,-0.449812 -2.280493,0.15366 -0.312728,0.1933 -0.567694,0.414985 -0.781425,0.648781 0.08105,-0.313329 0.127579,-0.674986 0.127579,-1.058538 0,-1.2069473 -0.456956,-2.1853689 -1.020639,-2.1853689 z m 0.03189,3.6536642 c 0.704605,0 1.275798,0.611515 1.275798,1.365856 0,0.754341 -0.571193,1.365855 -1.275798,1.365855 -0.704606,0 -1.275799,-0.611514 -1.275799,-1.365855 0,-0.754341 0.571193,-1.365856 1.275799,-1.365856 z"
     id="path4019"
     style="fill:#f2f2f2;fill-opacity:1;stroke:none;stroke-width:1"
     sodipodi:nodetypes="csccssccsccccscccssccsccccscsccsssss" />
</svg>
