<?xml version="1.0" encoding="UTF-8" standalone="no"?>
<!-- Created with Inkscape (http://www.inkscape.org/) -->

<svg
   xmlns:dc="http://purl.org/dc/elements/1.1/"
   xmlns:cc="http://creativecommons.org/ns#"
   xmlns:rdf="http://www.w3.org/1999/02/22-rdf-syntax-ns#"
   xmlns:svg="http://www.w3.org/2000/svg"
   xmlns="http://www.w3.org/2000/svg"
   xmlns:xlink="http://www.w3.org/1999/xlink"
   xmlns:sodipodi="http://sodipodi.sourceforge.net/DTD/sodipodi-0.dtd"
   xmlns:inkscape="http://www.inkscape.org/namespaces/inkscape"
   version="1.1"
   width="64"
   height="64"
   id="svg3912"
   inkscape:version="0.48+devel r"
   sodipodi:docname="application-x-sln.svg">
  <sodipodi:namedview
     pagecolor="#ffffff"
     bordercolor="#666666"
     borderopacity="1"
     objecttolerance="10"
     gridtolerance="10"
     guidetolerance="10"
     inkscape:pageopacity="0"
     inkscape:pageshadow="2"
     inkscape:window-width="1535"
     inkscape:window-height="876"
     id="namedview99735"
     showgrid="false"
     inkscape:zoom="3.6875"
     inkscape:cx="12.351003"
     inkscape:cy="41.073813"
     inkscape:window-x="65"
     inkscape:window-y="24"
     inkscape:window-maximized="1"
     inkscape:current-layer="svg3912"
     inkscape:snap-global="false">
    <inkscape:grid
       type="xygrid"
       id="grid4015" />
  </sodipodi:namedview>
  <defs
     id="defs3914">
    <linearGradient
       id="linearGradient5060">
      <stop
         id="stop5062"
         style="stop-color:#000000;stop-opacity:1"
         offset="0" />
      <stop
         id="stop5064"
         style="stop-color:#000000;stop-opacity:0"
         offset="1" />
    </linearGradient>
    <linearGradient
       id="linearGradient5048">
      <stop
         id="stop5050"
         style="stop-color:#000000;stop-opacity:0"
         offset="0" />
      <stop
         id="stop5056"
         style="stop-color:#000000;stop-opacity:1"
         offset="0.5" />
      <stop
         id="stop5052"
         style="stop-color:#000000;stop-opacity:0"
         offset="1" />
    </linearGradient>
    <radialGradient
       inkscape:collect="always"
       xlink:href="#linearGradient5060"
       id="radialGradient3110"
       gradientUnits="userSpaceOnUse"
       gradientTransform="matrix(0.03132633,0,0,0.02058823,35.220859,49.45142)"
       cx="605.71429"
       cy="486.64789"
       fx="605.71429"
       fy="486.64789"
       r="117.14286" />
    <radialGradient
       inkscape:collect="always"
       xlink:href="#linearGradient5060"
       id="radialGradient3113"
       gradientUnits="userSpaceOnUse"
       gradientTransform="matrix(-0.03132632,0,0,0.02058823,28.779136,49.45142)"
       cx="605.71429"
       cy="486.64789"
       fx="605.71429"
       fy="486.64789"
       r="117.14286" />
    <linearGradient
       inkscape:collect="always"
       xlink:href="#linearGradient5048"
       id="linearGradient3116"
       gradientUnits="userSpaceOnUse"
       gradientTransform="matrix(0.09153846,0,0,0.02058823,-1.084616,49.45142)"
       x1="302.85715"
       y1="366.64789"
       x2="302.85715"
       y2="609.50507" />
    <radialGradient
       cx="14.531452"
       cy="8.9239874"
       r="18.000002"
       fx="14.531452"
       fy="8.9239874"
       id="radialGradient3943-0"
       xlink:href="#linearGradient3993-2"
       gradientUnits="userSpaceOnUse"
       gradientTransform="matrix(-3.0487056e-8,2.8634566,-4.7807508,-5.0740078e-8,73.119103,-32.931989)" />
    <linearGradient
       id="linearGradient3993-2">
      <stop
         id="stop3995-8"
         style="stop-color:#a3c0d0;stop-opacity:1"
         offset="0" />
      <stop
         id="stop4001-3"
         style="stop-color:#427da1;stop-opacity:1"
         offset="1" />
    </linearGradient>
    <linearGradient
       x1="-51.786404"
       y1="53.623615"
       x2="-51.786404"
       y2="2.9062471"
       id="linearGradient3945-8"
       xlink:href="#linearGradient2490-0"
       gradientUnits="userSpaceOnUse"
       gradientTransform="matrix(1.0843522,0,0,1.1997374,79.55085,-4.1627449)" />
    <linearGradient
       id="linearGradient2490-0">
      <stop
         id="stop2492-4"
         style="stop-color:#2e4a5a;stop-opacity:1"
         offset="0" />
      <stop
         id="stop2494-0"
         style="stop-color:#6e8796;stop-opacity:1"
         offset="1" />
    </linearGradient>
    <linearGradient
       x1="23.99999"
       y1="5.5641499"
       x2="23.99999"
       y2="43"
       id="linearGradient3988-7"
       xlink:href="#linearGradient3977-8"
       gradientUnits="userSpaceOnUse"
       gradientTransform="matrix(1.2162163,0,0,1.5405404,2.8108189,-6.9729559)" />
    <linearGradient
       id="linearGradient3977-8">
      <stop
         id="stop3979-5"
         style="stop-color:#ffffff;stop-opacity:1"
         offset="0" />
      <stop
         id="stop3981-4"
         style="stop-color:#ffffff;stop-opacity:0.23529412"
         offset="0.03626217" />
      <stop
         id="stop3983-0"
         style="stop-color:#ffffff;stop-opacity:0.15686275"
         offset="0.95056331" />
      <stop
         id="stop3985-64"
         style="stop-color:#ffffff;stop-opacity:0.39215687"
         offset="1" />
    </linearGradient>
  </defs>
  <metadata
     id="metadata3917">
    <rdf:RDF>
      <cc:Work
         rdf:about="">
        <dc:format>image/svg+xml</dc:format>
        <dc:type
           rdf:resource="http://purl.org/dc/dcmitype/StillImage" />
        <dc:title></dc:title>
      </cc:Work>
    </rdf:RDF>
  </metadata>
  <rect
     style="opacity:0.3;fill:url(#linearGradient3116);fill-opacity:1;fill-rule:nonzero;stroke:none;stroke-width:1;marker:none;visibility:visible;display:inline;overflow:visible"
     id="rect2879"
     y="57.000004"
     x="9.8999996"
     height="5"
     width="44.199997" />
  <path
     inkscape:connector-curvature="0"
     style="opacity:0.3;fill:url(#radialGradient3113);fill-opacity:1;fill-rule:nonzero;stroke:none;stroke-width:1;marker:none;visibility:visible;display:inline;overflow:visible"
     id="path2881"
     d="m 9.9,57.00022 c 0,0 0,4.9997 0,4.9997 -1.6132281,0.01 -3.9,-1.1202 -3.9,-2.5002 0,-1.38 1.8002408,-2.4995 3.9,-2.4995 z" />
  <path
     inkscape:connector-curvature="0"
     style="opacity:0.3;fill:url(#radialGradient3110);fill-opacity:1;fill-rule:nonzero;stroke:none;stroke-width:1;marker:none;visibility:visible;display:inline;overflow:visible"
     id="path2883"
     d="m 54.099999,57.00022 c 0,0 0,4.9997 0,4.9997 C 55.713227,62.00992 58,60.87972 58,59.49972 c 0,-1.38 -1.800241,-2.4995 -3.900001,-2.4995 z" />
  <path
     style="color:#000000;fill:url(#radialGradient3943-0);fill-opacity:1;fill-rule:nonzero;stroke:url(#linearGradient3945-8);stroke-width:0.99992186;stroke-linecap:butt;stroke-linejoin:round;stroke-miterlimit:4;stroke-opacity:1;stroke-dasharray:none;stroke-dashoffset:0;marker:none;visibility:visible;display:inline;overflow:visible;enable-background:accumulate"
     id="path4160-5"
     inkscape:connector-curvature="0"
     d="m 8.4999609,0.50001707 c 10.7701021,0 47.0000211,0.0037 47.0000211,0.0037 l 5.6e-5,58.99632193 c 0,0 -31.333384,0 -47.0000771,0 0,-19.666693 0,-39.333385 0,-59.00007693 z" />
  <path
     inkscape:connector-curvature="0"
     d="m 25.25,16.6875 c -3.812265,4.34e-4 -8.410784,2.815989 -10.25,7.46875 0,3.635417 -2.109335,5.449134 0,10.90625 0.847295,3.330655 2.204081,5.897429 3.34375,8.65625 l 5.25,-2.1875 c -1.2055,-2.469428 -2.75521,-4.93394 -3.3125,-6.15625 -1.56018,-3.42248 -2.13025,-4.95392 -2,-7.5625 0.12595,-2.522 0.96662,-4.07568 2.5,-5.5625 1.53341,-1.48668 3.65452,-2.22555 6.1875,-1.875 5.364479,0.7432 7.09073,4.80332 7.21875,6.78125 0.105369,1.62681 -1.06611,5.63326 -5.1875,5.4375 -2.857121,-0.13595 -4.4631,-1.71971 -4.65625,-4.40625 -0.142291,-1.98 1.7736,-3.97857 4.875,-2.96875 0.499199,0.16244 0.53295,-0.73279 -0.03125,-1.1875 -1.452561,-1.17058 -7.20695,-0.72309 -7.1875,3.875 0.01803,4.26106 3.4265,7.1059 6.71875,7.125 6.894999,0.04058 8.249,-5.40233 8,-9.15625 C 36.442859,21.71531 31.19681,16.68681 25.25,16.6875 z"
     id="path3605"
     style="fill:#4a6574;fill-opacity:1;fill-rule:evenodd;stroke:none"
     sodipodi:nodetypes="scccccscccccccscss" />
  <path
     style="opacity:0.5;fill:none;stroke:url(#linearGradient3988-7);stroke-width:0.99999988;stroke-linecap:round;stroke-linejoin:round;stroke-miterlimit:4;stroke-opacity:1;stroke-dasharray:none;stroke-dashoffset:0"
     id="rect6741-1"
     inkscape:connector-curvature="0"
     d="m 54.500002,58.499998 -45.0000011,0 0,-56.9999969 45.0000011,0 z" />
  <path
     inkscape:connector-curvature="0"
     d="m 25.25,15.6875 c -3.816476,4.35e-4 -8.41213,2.838476 -10.25,7.5 -0.910849,1.759617 -0.958789,3.861125 -0.958789,5.668682 0,1.817443 0.383516,3.005359 0.958789,5.206318 0.853571,3.329512 2.204074,5.897429 3.34375,8.65625 l 5.25,-2.1875 C 22.38825,38.06182 20.80729,35.59731 20.25,34.375 c -1.56018,-3.42248 -2.13026,-4.95391 -2,-7.5625 0.12595,-2.522 0.99787,-4.07569 2.53125,-5.5625 1.53341,-1.48668 3.623269,-2.22554 6.15625,-1.875 5.36448,0.7432 7.090709,4.803331 7.21875,6.78125 0.10537,1.62681 -1.034841,5.63327 -5.15625,5.4375 -2.85712,-0.13595 -4.463089,-1.750959 -4.65625,-4.4375 -0.14229,-1.98 1.77358,-3.947311 4.875,-2.9375 0.4992,0.16244 0.532979,-0.7328 -0.03125,-1.1875 -1.45256,-1.17058 -7.20696,-0.72308 -7.1875,3.875 0.01803,4.26106 3.42652,7.105901 6.71875,7.125 6.895,0.04058 8.217739,-5.402321 7.96875,-9.15625 C 36.41161,20.71531 31.19684,15.68681 25.25,15.6875 z"
     id="path3607"
     style="fill:#eeeeec;fill-opacity:1;fill-rule:evenodd;stroke:none"
     sodipodi:nodetypes="scsccccsccccccsscss" />
  <path
     inkscape:connector-curvature="0"
     d="m 45.65625,16.96875 -5.25,2.1875 c 1.20547,2.46971 2.78647,4.93353 3.34375,6.15625 1.56018,3.42249 2.130262,4.95377 2,7.5625 -0.12594,2.52158 -0.99784,4.044299 -2.53125,5.53125 -1.53339,1.48668 -3.623281,2.256941 -6.15625,1.90625 -5.36451,-0.74264 -7.09071,-4.80334 -7.21875,-6.78125 -0.10536,-1.62653 1.034851,-5.63327 5.15625,-5.4375 2.85712,0.13595 4.4631,1.719719 4.65625,4.40625 0.14229,1.97987 -1.77359,3.978689 -4.875,2.96875 -0.49923,-0.1623 -0.532969,0.7328 0.03125,1.1875 1.45256,1.17071 7.206948,0.72294 7.1875,-3.875 -0.01803,-4.26092 -3.426519,-7.13714 -6.71875,-7.15625 -6.89502,-0.04085 -8.217729,5.433161 -7.96875,9.1875 0.27588,4.15927 5.49065,9.188618 11.4375,9.1875 3.812249,-2.1e-4 8.408066,-2.847665 10.25,-7.5 1.773759,-4.076759 0,-7.246386 0,-10.875 -0.85357,-3.329532 -2.204061,-5.897243 -3.34375,-8.65625 z"
     id="path3609"
     style="opacity:0.77380952;fill:#466170;fill-opacity:1;fill-rule:evenodd;stroke:none"
     sodipodi:nodetypes="cccccccccccscccccc" />
  <path
     inkscape:connector-curvature="0"
     d="m 45.5,15.6875 -5.25,2.1875 c 1.20547,2.46971 2.786471,4.93353 3.34375,6.15625 1.56018,3.42249 2.130259,4.95377 2,7.5625 -0.12594,2.52158 -0.997839,4.044299 -2.53125,5.53125 -1.53339,1.48668 -3.62328,2.256941 -6.15625,1.90625 -5.36451,-0.74264 -7.090711,-4.803339 -7.21875,-6.78125 -0.10536,-1.62653 1.03485,-5.63327 5.15625,-5.4375 2.85712,0.13595 4.463101,1.71972 4.65625,4.40625 0.14229,1.97987 -1.773591,3.97869 -4.875,2.96875 -0.49923,-0.1623 -0.53297,0.732801 0.03125,1.1875 1.45256,1.17071 7.238199,0.722941 7.21875,-3.875 -0.01803,-4.26092 -3.45777,-7.13714 -6.75,-7.15625 -6.89502,-0.04085 -8.217731,5.433159 -7.96875,9.1875 0.27588,4.15927 5.490651,9.18862 11.4375,9.1875 3.922946,-2.16e-4 8.678556,-3.010524 10.40625,-7.90625 0.610169,-1.791376 0.915254,-3.233975 0.915254,-4.877586 0,-1.653511 -0.440678,-3.270718 -0.915254,-5.028664 -0.837257,-3.605691 -2.2978,-6.308415 -3.5,-9.21875 z"
     id="path3611"
     style="fill:#a9c5d3;fill-opacity:1;fill-rule:evenodd;stroke:none"
     sodipodi:nodetypes="cccccccccccsccccscc" />
</svg>
