<?xml version="1.0" encoding="UTF-8" standalone="no"?>
<!-- Created with Inkscape (http://www.inkscape.org/) -->

<svg
   xmlns:dc="http://purl.org/dc/elements/1.1/"
   xmlns:cc="http://creativecommons.org/ns#"
   xmlns:rdf="http://www.w3.org/1999/02/22-rdf-syntax-ns#"
   xmlns:svg="http://www.w3.org/2000/svg"
   xmlns="http://www.w3.org/2000/svg"
   xmlns:xlink="http://www.w3.org/1999/xlink"
   xmlns:sodipodi="http://sodipodi.sourceforge.net/DTD/sodipodi-0.dtd"
   xmlns:inkscape="http://www.inkscape.org/namespaces/inkscape"
   version="1.0"
   width="64"
   height="64"
   id="svg4030"
   inkscape:version="0.48+devel r"
   sodipodi:docname="application-x-bzip-compressed-tar.svg">
  <metadata
     id="metadata98139">
    <rdf:RDF>
      <cc:Work
         rdf:about="">
        <dc:format>image/svg+xml</dc:format>
        <dc:type
           rdf:resource="http://purl.org/dc/dcmitype/StillImage" />
        <dc:title />
      </cc:Work>
    </rdf:RDF>
  </metadata>
  <sodipodi:namedview
     pagecolor="#ffffff"
     bordercolor="#666666"
     borderopacity="1"
     objecttolerance="10"
     gridtolerance="10"
     guidetolerance="10"
     inkscape:pageopacity="0"
     inkscape:pageshadow="2"
     inkscape:window-width="1535"
     inkscape:window-height="876"
     id="namedview98137"
     showgrid="true"
     inkscape:zoom="7.0558894"
     inkscape:cx="45.307624"
     inkscape:cy="22.130322"
     inkscape:window-x="65"
     inkscape:window-y="24"
     inkscape:window-maximized="1"
     inkscape:current-layer="svg4030">
    <inkscape:grid
       type="xygrid"
       id="grid3312" />
  </sodipodi:namedview>
  <defs
     id="defs4032">
    <radialGradient
       cx="5"
       cy="41.5"
       r="5"
       fx="5"
       fy="41.5"
       id="radialGradient3944"
       xlink:href="#linearGradient3681"
       gradientUnits="userSpaceOnUse"
       gradientTransform="matrix(0.5938225,0,0,1.5366531,41.140892,-103.93618)" />
    <linearGradient
       id="linearGradient3703">
      <stop
         id="stop3705"
         style="stop-color:#000000;stop-opacity:0"
         offset="0" />
      <stop
         id="stop3711"
         style="stop-color:#000000;stop-opacity:1"
         offset="0.5" />
      <stop
         id="stop3707"
         style="stop-color:#000000;stop-opacity:0"
         offset="1" />
    </linearGradient>
    <linearGradient
       x1="17.554192"
       y1="46.000275"
       x2="17.554192"
       y2="34.999718"
       id="linearGradient3942"
       xlink:href="#linearGradient3703"
       gradientUnits="userSpaceOnUse"
       gradientTransform="matrix(1.7570316,0,0,1.3969574,-17.394014,-16.411698)" />
    <linearGradient
       id="linearGradient3681">
      <stop
         id="stop3683"
         style="stop-color:#000000;stop-opacity:1"
         offset="0" />
      <stop
         id="stop3685"
         style="stop-color:#000000;stop-opacity:0"
         offset="1" />
    </linearGradient>
    <radialGradient
       cx="5"
       cy="41.5"
       r="5"
       fx="5"
       fy="41.5"
       id="radialGradient3940"
       xlink:href="#linearGradient3681"
       gradientUnits="userSpaceOnUse"
       gradientTransform="matrix(0.5938225,0,0,1.5366531,-6.6594735,-103.93618)" />
    <linearGradient
       id="linearGradient3295">
      <stop
         id="stop3297"
         style="stop-color:#c9af8b;stop-opacity:1"
         offset="0" />
      <stop
         id="stop3299"
         style="stop-color:#ad8757;stop-opacity:1"
         offset="0.23942046" />
      <stop
         id="stop3301"
         style="stop-color:#c2a57f;stop-opacity:1"
         offset="0.27582464" />
      <stop
         id="stop3303"
         style="stop-color:#9d7d53;stop-opacity:1"
         offset="1" />
    </linearGradient>
    <linearGradient
       x1="15.464298"
       y1="7.9756851"
       x2="15.464298"
       y2="45.04248"
       id="linearGradient3974"
       xlink:href="#linearGradient3295"
       gradientUnits="userSpaceOnUse"
       gradientTransform="matrix(1.3414025,0,0,1.3287417,-0.1936585,0.370193)" />
    <linearGradient
       id="linearGradient3199">
      <stop
         id="stop3201"
         style="stop-color:#dac197;stop-opacity:1"
         offset="0" />
      <stop
         id="stop3203"
         style="stop-color:#c1a581;stop-opacity:1"
         offset="0.23942046" />
      <stop
         id="stop3205"
         style="stop-color:#dac197;stop-opacity:1"
         offset="0.27582464" />
      <stop
         id="stop3207"
         style="stop-color:#a68b60;stop-opacity:1"
         offset="1" />
    </linearGradient>
    <linearGradient
       x1="24.822832"
       y1="15.377745"
       x2="24.996943"
       y2="37.27668"
       id="linearGradient3972"
       xlink:href="#linearGradient3199"
       gradientUnits="userSpaceOnUse"
       gradientTransform="matrix(1.7199799,0,0,2.0691988,-8.336229,-19.947272)" />
    <linearGradient
       id="linearGradient3219">
      <stop
         id="stop3225"
         style="stop-color:#cbad7a;stop-opacity:1"
         offset="0" />
      <stop
         id="stop3227"
         style="stop-color:#cbae7d;stop-opacity:0"
         offset="1" />
    </linearGradient>
    <radialGradient
       cx="24"
       cy="31"
       r="20"
       fx="24"
       fy="31"
       id="radialGradient3969"
       xlink:href="#linearGradient3219"
       gradientUnits="userSpaceOnUse"
       gradientTransform="matrix(2.2339043,0,0,0.875,-21.613703,14.374997)" />
    <linearGradient
       id="linearGradient4559">
      <stop
         id="stop4561"
         style="stop-color:#ffffff;stop-opacity:0"
         offset="0" />
      <stop
         id="stop4563"
         style="stop-color:#ffffff;stop-opacity:0"
         offset="1" />
    </linearGradient>
    <linearGradient
       x1="23.451576"
       y1="30.554907"
       x2="43.00663"
       y2="45.934479"
       id="linearGradient3966"
       xlink:href="#linearGradient4559"
       gradientUnits="userSpaceOnUse"
       gradientTransform="matrix(1.7199799,0,0,1.5608559,-8.336229,-6.6763471)" />
    <linearGradient
       id="linearGradient3275">
      <stop
         id="stop3277"
         style="stop-color:#ffffff;stop-opacity:0"
         offset="0" />
      <stop
         id="stop3283"
         style="stop-color:#ffffff;stop-opacity:1"
         offset="0.16682135" />
      <stop
         id="stop3285"
         style="stop-color:#ffffff;stop-opacity:1"
         offset="0.83237511" />
      <stop
         id="stop3279"
         style="stop-color:#ffffff;stop-opacity:0"
         offset="1" />
    </linearGradient>
    <linearGradient
       x1="44.994774"
       y1="17.5"
       x2="3.0052247"
       y2="17.5"
       id="linearGradient3960"
       xlink:href="#linearGradient3275"
       gradientUnits="userSpaceOnUse"
       gradientTransform="matrix(1.3417982,0,0,1.3287417,-0.2031568,0.247021)"
       spreadMethod="reflect" />
    <linearGradient
       id="linearGradient3980">
      <stop
         id="stop3982"
         style="stop-color:#ffffff;stop-opacity:1"
         offset="0" />
      <stop
         id="stop3984"
         style="stop-color:#ffffff;stop-opacity:1"
         offset="0.32468599" />
      <stop
         id="stop3986"
         style="stop-color:#ffffff;stop-opacity:0.6901961"
         offset="0.3736864" />
      <stop
         id="stop3988"
         style="stop-color:#ffffff;stop-opacity:0"
         offset="1" />
    </linearGradient>
    <linearGradient
       x1="26"
       y1="22"
       x2="26"
       y2="8"
       id="linearGradient3963"
       xlink:href="#linearGradient3980"
       gradientUnits="userSpaceOnUse"
       gradientTransform="matrix(1.4999999,0,0,1.3571429,-3.9999994,0.1428574)" />
    <linearGradient
       x1="63.5"
       y1="47.5"
       x2="63.5"
       y2="23.5"
       id="linearGradient4803"
       xlink:href="#linearGradient4805"
       gradientUnits="userSpaceOnUse"
       gradientTransform="matrix(1,0,0,0.47826082,-31,0.5217393)" />
    <linearGradient
       id="linearGradient4805">
      <stop
         id="stop4807"
         style="stop-color:#ffffff;stop-opacity:1"
         offset="0" />
      <stop
         id="stop4811"
         style="stop-color:#ffffff;stop-opacity:0.3137255"
         offset="1" />
    </linearGradient>
    <linearGradient
       gradientTransform="matrix(1,0,0,0.47826082,-32,0.5217393)"
       x1="63.5"
       y1="47.5"
       x2="63.5"
       y2="23.5"
       id="linearGradient4799"
       xlink:href="#linearGradient4793"
       gradientUnits="userSpaceOnUse" />
    <linearGradient
       id="linearGradient4793">
      <stop
         id="stop4795"
         style="stop-color:#ad8757;stop-opacity:1"
         offset="0" />
      <stop
         id="stop4797"
         style="stop-color:#c7ad88;stop-opacity:0.39215687"
         offset="1" />
    </linearGradient>
  </defs>
  <g
     id="g3347">
    <g
       transform="matrix(1.3379362,0,0,1.3015298,0.02308232,1.7239512)"
       id="g3305"
       style="opacity:0.3;display:inline">
      <rect
         width="2.9601951"
         height="15.366531"
         x="-3.6903627"
         y="-47.848343"
         transform="scale(-1,-1)"
         id="rect2484"
         style="fill:url(#radialGradient3940);fill-opacity:1;stroke:none" />
      <rect
         width="40.41172"
         height="15.366531"
         x="3.6903627"
         y="32.481812"
         id="rect2486"
         style="fill:url(#linearGradient3942);fill-opacity:1;stroke:none" />
      <rect
         width="2.9601951"
         height="15.366531"
         x="44.110001"
         y="-47.848343"
         transform="scale(1,-1)"
         id="rect3444"
         style="fill:url(#radialGradient3944);fill-opacity:1;stroke:none;display:inline" />
    </g>
    <path
       d="m 11.893351,11.664497 39.568319,0 c 2.309875,0 3.349377,-0.380751 4.012876,1.328741 l 4.026533,10.629934 0,34.113998 c 0,2.063939 0.138071,1.748592 -2.171815,1.748592 l -50.6585249,0 c -2.3098849,0 -2.1718158,0.315347 -2.1718158,-1.748592 l 0,-34.113998 4.0265345,-10.629934 c 0.6449886,-1.674961 1.0580077,-1.328741 3.3678932,-1.328741 z"
       id="path2488"
       style="fill:url(#linearGradient3972);fill-opacity:1;fill-rule:nonzero;stroke:url(#linearGradient3974);stroke-width:0.99420083;stroke-linecap:round;stroke-linejoin:miter;stroke-miterlimit:4;stroke-opacity:1;stroke-dasharray:none;stroke-dashoffset:0;marker:none;visibility:visible;display:block;overflow:visible"
       inkscape:connector-curvature="0" />
    <rect
       width="54"
       height="35"
       x="5"
       y="24"
       id="rect3209"
       style="fill:url(#radialGradient3969);fill-opacity:1;fill-rule:evenodd;stroke:none;stroke-width:1.69999993;marker:none;visibility:visible;display:inline;overflow:visible;enable-background:accumulate" />
    <path
       d="m 13.150874,13.010441 37.093631,0 c 2.165417,0 3.505595,0.739493 4.412572,2.771792 l 3.124047,8.530151 0,30.753138 c 0,1.940862 -1.098286,2.91803 -3.263708,2.91803 l -45.2498033,0 c -2.1654173,0 -3.0487076,-1.074722 -3.0487076,-3.015585 l 0,-30.655583 3.0232676,-8.713038 c 0.6046535,-1.57508 1.7432793,-2.588905 3.9087013,-2.588905 z"
       id="path2490"
       style="opacity:0.50549454;fill:none;stroke:url(#linearGradient3966);stroke-width:0.74211526;stroke-linecap:butt;stroke-linejoin:miter;stroke-miterlimit:4;stroke-opacity:1;stroke-dasharray:none;stroke-dashoffset:0;marker:none;visibility:visible;display:block;overflow:visible"
       inkscape:connector-curvature="0" />
    <path
       d="m 4.5001475,23.5 54.9997055,0"
       id="path3273"
       style="opacity:0.3;fill:none;stroke:url(#linearGradient3960);stroke-width:0.99999994px;stroke-linecap:square;stroke-linejoin:miter;stroke-opacity:1;display:inline"
       inkscape:connector-curvature="0" />
    <path
       d="m 29,11 c 1.999999,0 4.000001,0 6,0 0,6.333333 0,12.666666 0,19 -0.590593,0 -1.181187,0 -1.77178,0 -0.604688,0 -1.209376,0 -1.814063,0 -0.486794,0 -0.973585,0 -1.460377,0 -0.317927,0 -0.635854,0 -0.95378,0 0,-6.333334 0,-12.666667 0,-19 z"
       id="rect3326"
       style="opacity:0.4;fill:url(#linearGradient3963);fill-opacity:1;fill-rule:nonzero;stroke:none;stroke-width:1;marker:none;visibility:visible;display:inline;overflow:visible;enable-background:accumulate"
       inkscape:connector-curvature="0" />
    <path
       d="m 31.5,12 0,11"
       id="path4763"
       style="fill:none;stroke:url(#linearGradient4799);stroke-width:0.99999988px;stroke-linecap:butt;stroke-linejoin:miter;stroke-opacity:1"
       inkscape:connector-curvature="0" />
    <path
       d="m 32.5,12 0,11"
       id="path4801"
       style="opacity:0.3;fill:none;stroke:url(#linearGradient4803);stroke-width:0.99999988px;stroke-linecap:butt;stroke-linejoin:miter;stroke-opacity:1"
       inkscape:connector-curvature="0" />
  </g>
  <g
     id="g3313"
     transform="matrix(1.3531894,0,0,1.3531894,1.9788036,42.823774)">
    <path
       sodipodi:nodetypes="ccccccccccccccccccccccccccccccccccccccccc"
       id="text3329"
       d="m 19.178603,9.004211 1.595998,0 0,-1.536 -1.595998,0 z M 22.314,9.004 l 1.464,0 0,-0.5668847 c 0.485249,0.3237098 1.544839,0.7691965 2.304164,0.7230977 2.244661,0.121855 3.700458,-2.414022 3.138239,-4.427448 -0.372211,-2.3294645 -3.65445,-3.5590564 -5.310239,-1.7645515 l 0,-2.83199991 -1.596164,0 z m 3.432165,-5.423789 c 1.860429,-0.100484 2.640646,2.55306 1.29524,3.672846 -1.14374,1.029834 -3.218896,0.173501 -3.217795,-1.397935 -0.159323,-1.140098 0.720204,-2.329064 1.922555,-2.274911 z m 4.081875,5.424 5.06396,0 0,-1.428002 -3.155961,0 2.927961,-3.792 0,-1.4279965 -4.5,0 0,1.4279965 2.592039,0 -2.927999,3.792 z m 5.759248,0 5.736,0 c -0.05916,-0.46926 0.116997,-1.173837 -0.08526,-1.5 l -3.406739,0 c 1.179367,-1.199822 2.784639,-2.117315 3.394502,-3.756001 0.671724,-1.8541255 -0.97117,-4.00122844 -2.950793,-3.76227441 -1.639435,0.02439 -2.918902,1.60476691 -2.747708,3.21027591 l 1.572,1e-6 C 36.710369,1.1353216 40.107426,0.86551259 39.748993,3.0498435 39.389141,4.38054 38.085102,5.109708 37.195433,6.077672 36.679711,6.622352 35.999921,7.096431 35.587289,7.685473 Z"
       style="font-size:12px;font-style:normal;font-variant:normal;font-weight:bold;font-stretch:normal;text-align:start;line-height:100%;writing-mode:lr-tb;text-anchor:start;opacity:0.4;fill:#000000;fill-opacity:1;stroke:none;display:inline;font-family:URW Gothic L;-inkscape-font-specification:URW Gothic L Semi-Bold"
       inkscape:connector-curvature="0" />
    <path
       sodipodi:nodetypes="cccccccccccccccccccccccccccccccccccccccc"
       id="text3329-9"
       d="m 3.8284989,9.0004188 1.596,0 0,-5.196 0.9599992,0 0,-1.4519985 -0.9599992,0 0,-2.22000088 -1.596,0 0,2.22000088 -0.78,0 0,1.4519985 0.78,0 z m 10.1013741,-6.6479985 -1.464,0 0,0.888 c -0.62133,-0.930603 -1.839697,-1.199196 -2.8824369,-0.976618 -1.432383,0.239285 -2.532947,1.5431005 -2.648047,2.9718525 -0.198489,1.445692 0.517142,3.047722 1.903854,3.630286 1.145487,0.503569 2.6526769,0.395695 3.5073069,-0.599415 L 12.466,8.058 c -0.0033,0.1989468 -0.02083,0.85624 0,0.942 l 0.50281,4.188e-4 0.961063,0 z m -3.468,1.3079975 c 1.020032,-0.04883 1.911869,0.83476 1.946558,1.84109 0.104805,0.944516 -0.477117,2.01841 -1.483058,2.151161 -0.9557619,0.215892 -2.0844309,-0.305937 -2.3256299,-1.303504 -0.314659,-1.044195 0.225574,-2.375825 1.35415,-2.627433 0.1658619,-0.04175 0.3370309,-0.06135 0.5079799,-0.061314 z m 4.657874,5.340001 1.596245,0 c 0.01288,-1.35272 -0.02712,-2.707617 0.02174,-4.058859 0.0257,-0.727717 0.701391,-1.253367 1.406016,-1.209141 l -10e-7,-1.5360005 c -0.632935,-0.07298 -1.252694,0.243793 -1.560128,0.804001 l 0,-0.647999 -1.463867,0 z"
       style="font-size:12px;font-style:normal;font-variant:normal;font-weight:bold;font-stretch:normal;text-align:start;line-height:100%;writing-mode:lr-tb;text-anchor:start;opacity:0.4;fill:#000000;fill-opacity:1;stroke:none;display:inline;font-family:URW Gothic L;-inkscape-font-specification:URW Gothic L Semi-Bold"
       inkscape:connector-curvature="0" />
  </g>
</svg>
