<?xml version="1.0" encoding="UTF-8" standalone="no"?>
<!-- Created with Inkscape (http://www.inkscape.org/) -->

<svg
   xmlns:dc="http://purl.org/dc/elements/1.1/"
   xmlns:cc="http://creativecommons.org/ns#"
   xmlns:rdf="http://www.w3.org/1999/02/22-rdf-syntax-ns#"
   xmlns:svg="http://www.w3.org/2000/svg"
   xmlns="http://www.w3.org/2000/svg"
   xmlns:xlink="http://www.w3.org/1999/xlink"
   xmlns:sodipodi="http://sodipodi.sourceforge.net/DTD/sodipodi-0.dtd"
   xmlns:inkscape="http://www.inkscape.org/namespaces/inkscape"
   width="64"
   height="64"
   id="svg4112"
   version="1.1"
   inkscape:version="0.48.3.1 r9886"
   sodipodi:docname="application-pdf.svg">
  <defs
     id="defs4114">
    <linearGradient
       inkscape:collect="always"
       xlink:href="#linearGradient3977"
       id="linearGradient3988"
       gradientUnits="userSpaceOnUse"
       gradientTransform="matrix(1.1988578,0,0,1.5386429,3.2381777,-22.603253)"
       x1="23.99999"
       y1="5.5641499"
       x2="23.99999"
       y2="43" />
    <linearGradient
       id="linearGradient3977">
      <stop
         offset="0"
         style="stop-color:#ffffff;stop-opacity:1;"
         id="stop3979" />
      <stop
         id="stop3981"
         style="stop-color:#ffffff;stop-opacity:0.23529412;"
         offset="0.03626217" />
      <stop
         offset="0.95056331"
         style="stop-color:#ffffff;stop-opacity:0.15686275;"
         id="stop3983" />
      <stop
         offset="1"
         style="stop-color:#ffffff;stop-opacity:0.39215687;"
         id="stop3985" />
    </linearGradient>
    <radialGradient
       inkscape:collect="always"
       xlink:href="#linearGradient5060"
       id="radialGradient3327"
       gradientUnits="userSpaceOnUse"
       gradientTransform="matrix(0.03096969,0,0,0.01992572,35.184193,34.032952)"
       cx="605.71429"
       cy="486.64789"
       fx="605.71429"
       fy="486.64789"
       r="117.14286" />
    <linearGradient
       id="linearGradient5060">
      <stop
         id="stop5062"
         style="stop-color:#000000;stop-opacity:1"
         offset="0" />
      <stop
         id="stop5064"
         style="stop-color:#000000;stop-opacity:0"
         offset="1" />
    </linearGradient>
    <radialGradient
       inkscape:collect="always"
       xlink:href="#linearGradient5060"
       id="radialGradient3330"
       gradientUnits="userSpaceOnUse"
       gradientTransform="matrix(-0.03096968,0,0,0.01992572,28.815803,34.032952)"
       cx="605.71429"
       cy="486.64789"
       fx="605.71429"
       fy="486.64789"
       r="117.14286" />
    <linearGradient
       id="linearGradient5048">
      <stop
         id="stop5050"
         style="stop-color:#000000;stop-opacity:0"
         offset="0" />
      <stop
         id="stop5056"
         style="stop-color:#000000;stop-opacity:1"
         offset="0.5" />
      <stop
         id="stop5052"
         style="stop-color:#000000;stop-opacity:0"
         offset="1" />
    </linearGradient>
    <linearGradient
       y2="609.50507"
       x2="302.85715"
       y1="366.64789"
       x1="302.85715"
       gradientTransform="matrix(0.09049635,0,0,0.01992572,-0.70796579,34.032912)"
       gradientUnits="userSpaceOnUse"
       id="linearGradient4110"
       xlink:href="#linearGradient5048"
       inkscape:collect="always" />
    <linearGradient
       id="linearGradient4246-9">
      <stop
         offset="0"
         style="stop-color:#ffffff;stop-opacity:1"
         id="stop4248-6" />
      <stop
         offset="1"
         style="stop-color:#dcdcdc;stop-opacity:1"
         id="stop4250-1" />
    </linearGradient>
    <linearGradient
       inkscape:collect="always"
       xlink:href="#linearGradient4246-9"
       id="linearGradient3159"
       gradientUnits="userSpaceOnUse"
       gradientTransform="matrix(1.2380548,0,0,1.5314943,2.9726742,-22.47594)"
       x1="23.969797"
       y1="3.9810441"
       x2="23.969797"
       y2="44.024017" />
    <radialGradient
       r="19.99999"
       fy="8.4497671"
       fx="7.4956832"
       cy="8.4497671"
       cx="7.4956832"
       gradientTransform="matrix(0,3.8873649,-4.612357,-2.2089501e-7,70.984233,-43.743813)"
       gradientUnits="userSpaceOnUse"
       id="radialGradient4023-5"
       xlink:href="#linearGradient3242-7-5-0-3"
       inkscape:collect="always" />
    <linearGradient
       id="linearGradient3242-7-5-0-3">
      <stop
         offset="0"
         style="stop-color:#f89b7e;stop-opacity:1"
         id="stop3244-6-7-3-3" />
      <stop
         offset="0.26238"
         style="stop-color:#e35d4f;stop-opacity:1"
         id="stop3246-5-0-7-8" />
      <stop
         offset="0.66093999"
         style="stop-color:#c6262e;stop-opacity:1"
         id="stop3248-6-8-8-3" />
      <stop
         offset="1"
         style="stop-color:#690b2c;stop-opacity:1"
         id="stop3250-9-1-8-7" />
    </linearGradient>
    <linearGradient
       y2="3.8990016"
       x2="24"
       y1="44"
       x1="24"
       gradientTransform="matrix(1.2063099,0,0,1.5292495,3.0593193,-22.377826)"
       gradientUnits="userSpaceOnUse"
       id="linearGradient4025-9"
       xlink:href="#linearGradient2490-3-9-0-3"
       inkscape:collect="always" />
    <linearGradient
       id="linearGradient2490-3-9-0-3">
      <stop
         offset="0"
         style="stop-color:#791235;stop-opacity:1"
         id="stop2492-7-7-4-7" />
      <stop
         offset="1"
         style="stop-color:#dd3b27;stop-opacity:1"
         id="stop2494-4-8-6-8" />
    </linearGradient>
  </defs>
  <sodipodi:namedview
     id="base"
     pagecolor="#ffffff"
     bordercolor="#666666"
     borderopacity="1.0"
     inkscape:pageopacity="0.0"
     inkscape:pageshadow="2"
     inkscape:zoom="7.9991455"
     inkscape:cx="23.380605"
     inkscape:cy="31.071823"
     inkscape:current-layer="layer1"
     showgrid="true"
     inkscape:grid-bbox="true"
     inkscape:document-units="px"
     inkscape:window-width="1920"
     inkscape:window-height="1151"
     inkscape:window-x="0"
     inkscape:window-y="25"
     inkscape:window-maximized="1"
     showguides="true"
     inkscape:guide-bbox="true">
    <inkscape:grid
       type="xygrid"
       id="grid3820"
       empspacing="5"
       visible="true"
       enabled="true"
       snapvisiblegridlinesonly="true" />
  </sodipodi:namedview>
  <metadata
     id="metadata4117">
    <rdf:RDF>
      <cc:Work
         rdf:about="">
        <dc:format>image/svg+xml</dc:format>
        <dc:type
           rdf:resource="http://purl.org/dc/dcmitype/StillImage" />
        <dc:title></dc:title>
      </cc:Work>
    </rdf:RDF>
  </metadata>
  <g
     id="layer1"
     inkscape:label="Layer 1"
     inkscape:groupmode="layer"
     transform="translate(0,16)">
    <rect
       style="opacity:0.3;fill:url(#linearGradient4110);fill-opacity:1;fill-rule:nonzero;stroke:none;stroke-width:1;marker:none;visibility:visible;display:inline;overflow:visible"
       id="rect2879"
       y="41.338631"
       x="10.151597"
       height="4.8391037"
       width="43.696804" />
    <path
       inkscape:connector-curvature="0"
       style="opacity:0.3;fill:url(#radialGradient3330);fill-opacity:1;fill-rule:nonzero;stroke:none;stroke-width:1;marker:none;visibility:visible;display:inline;overflow:visible"
       id="path2881"
       d="m 10.151596,41.338842 c 0,0 0,4.838837 0,4.838837 -1.5948619,0.0091 -3.8556001,-1.084137 -3.8556001,-2.41973 0,-1.335591 1.7797462,-2.419106 3.8556001,-2.419107 z" />
    <path
       inkscape:connector-curvature="0"
       style="opacity:0.3;fill:url(#radialGradient3327);fill-opacity:1;fill-rule:nonzero;stroke:none;stroke-width:1;marker:none;visibility:visible;display:inline;overflow:visible"
       id="path2883"
       d="m 53.848404,41.338842 c 0,0 0,4.838837 0,4.838837 1.594862,0.0091 3.8556,-1.084137 3.8556,-2.41973 0,-1.335591 -1.779744,-2.419106 -3.8556,-2.419107 z" />
    <path
       inkscape:connector-curvature="0"
       style="color:#000000;fill:url(#radialGradient4023-5);fill-opacity:1;fill-rule:nonzero;stroke:url(#linearGradient4025-9);stroke-width:0.99999994;stroke-linecap:round;stroke-linejoin:round;stroke-miterlimit:4;stroke-opacity:1;stroke-dasharray:none;stroke-dashoffset:0;marker:none;visibility:visible;display:inline;overflow:visible;enable-background:accumulate"
       id="path4160"
       d="m 8.4876619,-15.5 c 10.7806711,0 47.0461381,0.0038 47.0461381,0.0038 l 5.6e-5,59.644532 c 0,0 -31.364129,0 -47.0461941,0 0,-19.882777 0,-39.7655537 0,-59.648329 z"
       sodipodi:nodetypes="ccccc" />
    <path
       style="opacity:0.5;fill:none;stroke:url(#linearGradient3988);stroke-width:0.99999994;stroke-linecap:round;stroke-linejoin:round;stroke-miterlimit:4;stroke-opacity:1;stroke-dasharray:none;stroke-dashoffset:0"
       d="m 54.189627,42.789058 -44.3577379,0 0,-56.92979 44.3577379,0 z"
       id="rect6741-1"
       inkscape:connector-curvature="0"
       sodipodi:nodetypes="ccccc" />
    <path
       inkscape:connector-curvature="0"
       style="opacity:0.05;fill:#000000;fill-opacity:1;fill-rule:evenodd;stroke:none"
       d="M 37.406074,-10.135511 C 21.370496,6.9109715 12.20995,9.3171552 9.1629484,9.5824805 l 0,6.1259765 C 11.462824,15.310619 17.24383,13.929178 23.400579,9.151747 31.295225,3.0257709 40.733347,-8.6040174 40.733347,-8.6040174 38.287357,-2.6598445 37.491099,17.113632 37.367386,43.466793 l 16.365538,0 c 0.625571,0 1.189977,-0.295728 1.624948,-0.765747 -2.575835,-7.641599 -4.371099,-17.69018 -5.726006,-26.801152 -1.284487,-12.0758929 0.612221,-22.6337465 1.315436,-26.035405 l -13.541227,0 z m -28.2431256,29.720564 0,6.748147 c 5.7693546,0 14.2399996,7.461595 19.6154326,17.133593 l 4.642706,0 C 28.111683,32.916186 13.567337,19.585053 9.1629484,19.585053 z"
       id="path6711-0-7-1-0" />
    <path
       inkscape:connector-curvature="0"
       style="opacity:0.1;fill:#000000;fill-opacity:1;fill-rule:evenodd;stroke:none"
       d="M 37.406074,-11.667005 C 21.370496,5.3794775 12.20995,7.7856611 9.1629484,8.0509865 l 0,6.1259775 C 11.462824,13.779124 17.24383,12.397683 23.400579,7.620253 31.295225,1.4942768 40.733347,-10.135511 40.733347,-10.135511 38.239866,-4.0759287 37.466791,16.341166 37.367386,43.466793 l 16.365538,0 c 0.817145,0 1.522698,-0.49367 1.973149,-1.244339 C 52.929578,34.471615 51.049941,23.904157 49.631866,14.3684 48.347379,2.2925057 50.244087,-8.2653468 50.947301,-11.667005 l -13.541227,0 z m -28.2431256,29.720564 0,6.748147 c 6.0728906,0 15.1276696,8.251378 20.4279066,18.665087 l 4.526636,0 C 29.560077,32.726172 13.786056,18.053559 9.1629484,18.053559 z"
       id="path6711-0-7-4" />
    <path
       style="opacity:0.25;fill:#000000;fill-opacity:1;fill-rule:evenodd;stroke:none"
       d="M 37.387452,-13.208846 C 21.351875,3.8376371 12.206802,6.264878 9.1598013,6.5302034 l 0,6.0996206 C 11.459677,12.231983 17.242894,10.88405 23.399643,6.1066186 31.294288,-0.01935887 40.747886,-11.683941 40.747886,-11.683941 38.2069,-5.5089149 37.420266,15.564102 37.345448,43.466793 l 16.382118,0 c 0.408504,0 0.795072,-0.124296 1.134146,-0.338867 l 0,-4.913584 C 52.534671,30.774063 50.883315,21.396986 49.611033,12.841616 48.326544,0.76572191 50.251992,-9.8071885 50.955207,-13.208846 l -13.567755,0 z m -28.2276507,29.735649 0,6.734998 c 6.3681257,0 16.0117827,9.077973 21.1707377,20.204992 l 4.410571,0 C 31.152589,32.655251 14.004825,16.526803 9.1598013,16.526803 z"
       id="path6711-0-2"
       inkscape:connector-curvature="0" />
    <path
       style="fill:url(#linearGradient3159);fill-opacity:1;fill-rule:evenodd;stroke:none"
       d="M 37.387452,-14.818468 C 21.351875,2.2280137 12.206802,4.655256 9.1598013,4.9205813 l 0,6.0996207 C 11.459677,10.622363 17.242894,9.2320695 23.399643,4.4546381 31.294288,-1.6713394 40.747886,-13.293563 40.747886,-13.293563 38.159411,-7.0031254 37.39546,14.698473 37.345448,43.382076 l 16.55014,0 c 0.353222,0 0.668322,-0.08445 0.966124,-0.25415 l 0,-6.565564 c -2.317989,-7.436087 -3.981394,-16.79515 -5.250679,-25.330368 -1.284489,-12.07589413 0.640959,-22.648805 1.344174,-26.050462 l -13.567755,0 z m -28.2276507,29.693291 0,6.777356 c 6.6572347,0 16.8918447,9.916191 21.8428247,21.729897 l 4.158539,0 C 32.834822,32.642263 14.238736,14.874823 9.1598013,14.874823 z"
       id="path6711-2"
       inkscape:connector-curvature="0" />
    <path
       style="opacity:0.1;fill:#000000;fill-opacity:1;fill-rule:evenodd;stroke:none"
       d="M 51.6693,-14.733751 C 45.366475,-9.976671 24.740103,4.5111138 9.1598013,2.6755822 l 0,13.1311268 c 0,0 32.3228737,5.977146 45.7019107,-5.040658 l 0,-25.160934 c -0.33897,-0.214953 -0.725642,-0.338868 -1.134146,-0.338868 l -2.058266,0 z"
       id="path6713-2"
       inkscape:connector-curvature="0" />
    <path
       style="opacity:0.1;fill:#000000;fill-opacity:1;fill-rule:evenodd;stroke:none"
       d="m 54.861712,16.780954 c -5.798631,7.465704 -11.584275,16.918668 -15.54201,26.685839 l 4.956642,0 c 3.067588,-6.420228 6.973608,-13.389387 10.585368,-18.298861 l 0,-8.386978 z"
       id="path6715-0"
       inkscape:connector-curvature="0" />
  </g>
</svg>
