<?xml version="1.0" encoding="UTF-8" standalone="no"?>
<svg
   xmlns:dc="http://purl.org/dc/elements/1.1/"
   xmlns:cc="http://creativecommons.org/ns#"
   xmlns:rdf="http://www.w3.org/1999/02/22-rdf-syntax-ns#"
   xmlns:svg="http://www.w3.org/2000/svg"
   xmlns="http://www.w3.org/2000/svg"
   xmlns:xlink="http://www.w3.org/1999/xlink"
   version="1.0"
   width="64"
   height="64"
   id="svg4030">
  <metadata
     id="metadata98139">
    <rdf:RDF>
      <cc:Work
         rdf:about="">
        <dc:format>image/svg+xml</dc:format>
        <dc:type
           rdf:resource="http://purl.org/dc/dcmitype/StillImage" />
        <dc:title />
      </cc:Work>
    </rdf:RDF>
  </metadata>
  <defs
     id="defs4032">
    <radialGradient
       cx="5"
       cy="41.5"
       r="5"
       fx="5"
       fy="41.5"
       id="radialGradient3944"
       xlink:href="#linearGradient3681"
       gradientUnits="userSpaceOnUse"
       gradientTransform="matrix(0.79449662,0,0,1.9999998,55.066971,-136.99999)" />
    <linearGradient
       id="linearGradient3703">
      <stop
         id="stop3705"
         style="stop-color:#000000;stop-opacity:0"
         offset="0" />
      <stop
         id="stop3711"
         style="stop-color:#000000;stop-opacity:1"
         offset="0.5" />
      <stop
         id="stop3707"
         style="stop-color:#000000;stop-opacity:0"
         offset="1" />
    </linearGradient>
    <linearGradient
       x1="17.554192"
       y1="46.000275"
       x2="17.554192"
       y2="34.999718"
       id="linearGradient3942"
       xlink:href="#linearGradient3703"
       gradientUnits="userSpaceOnUse"
       gradientTransform="matrix(2.3507962,0,0,1.8181817,-23.248999,-19.636363)" />
    <linearGradient
       id="linearGradient3681">
      <stop
         id="stop3683"
         style="stop-color:#000000;stop-opacity:1"
         offset="0" />
      <stop
         id="stop3685"
         style="stop-color:#000000;stop-opacity:0"
         offset="1" />
    </linearGradient>
    <radialGradient
       cx="5"
       cy="41.5"
       r="5"
       fx="5"
       fy="41.5"
       id="radialGradient3940"
       xlink:href="#linearGradient3681"
       gradientUnits="userSpaceOnUse"
       gradientTransform="matrix(0.79449662,0,0,1.9999998,-8.933033,-136.99999)" />
    <linearGradient
       id="linearGradient3295">
      <stop
         id="stop3297"
         style="stop-color:#c9af8b;stop-opacity:1"
         offset="0" />
      <stop
         id="stop3299"
         style="stop-color:#ad8757;stop-opacity:1"
         offset="0.23942046" />
      <stop
         id="stop3301"
         style="stop-color:#c2a57f;stop-opacity:1"
         offset="0.27582464" />
      <stop
         id="stop3303"
         style="stop-color:#9d7d53;stop-opacity:1"
         offset="1" />
    </linearGradient>
    <linearGradient
       x1="15.464298"
       y1="7.9756851"
       x2="15.464298"
       y2="45.04248"
       id="linearGradient3974"
       xlink:href="#linearGradient3295"
       gradientUnits="userSpaceOnUse"
       gradientTransform="matrix(1.3414025,0,0,1.3322508,-0.1936585,0.21402706)" />
    <linearGradient
       id="linearGradient3199">
      <stop
         id="stop3201"
         style="stop-color:#dac197;stop-opacity:1"
         offset="0" />
      <stop
         id="stop3203"
         style="stop-color:#c1a581;stop-opacity:1"
         offset="0.23942046" />
      <stop
         id="stop3205"
         style="stop-color:#dac197;stop-opacity:1"
         offset="0.27582464" />
      <stop
         id="stop3207"
         style="stop-color:#a68b60;stop-opacity:1"
         offset="1" />
    </linearGradient>
    <linearGradient
       x1="24.822832"
       y1="15.377745"
       x2="24.996943"
       y2="37.27668"
       id="linearGradient3972"
       xlink:href="#linearGradient3199"
       gradientUnits="userSpaceOnUse"
       gradientTransform="matrix(1.7199799,0,0,2.0746633,-8.336229,-20.157095)" />
    <linearGradient
       id="linearGradient3219">
      <stop
         id="stop3225"
         style="stop-color:#cbad7a;stop-opacity:1"
         offset="0" />
      <stop
         id="stop3227"
         style="stop-color:#cbae7d;stop-opacity:0"
         offset="1" />
    </linearGradient>
    <radialGradient
       cx="24"
       cy="31"
       r="20"
       fx="24"
       fy="31"
       id="radialGradient3969"
       xlink:href="#linearGradient3219"
       gradientUnits="userSpaceOnUse"
       gradientTransform="matrix(2.2339043,0,0,0.875,-21.613703,14.374997)" />
    <linearGradient
       id="linearGradient4559">
      <stop
         id="stop4561"
         style="stop-color:#ffffff;stop-opacity:0"
         offset="0" />
      <stop
         id="stop4563"
         style="stop-color:#ffffff;stop-opacity:0"
         offset="1" />
    </linearGradient>
    <linearGradient
       x1="23.451576"
       y1="30.554907"
       x2="43.00663"
       y2="45.934479"
       id="linearGradient3966"
       xlink:href="#linearGradient4559"
       gradientUnits="userSpaceOnUse"
       gradientTransform="matrix(1.7199799,0,0,1.5608559,-8.336229,-6.6763471)" />
    <linearGradient
       id="linearGradient3275">
      <stop
         id="stop3277"
         style="stop-color:#ffffff;stop-opacity:0"
         offset="0" />
      <stop
         id="stop3283"
         style="stop-color:#ffffff;stop-opacity:1"
         offset="0.16682135" />
      <stop
         id="stop3285"
         style="stop-color:#ffffff;stop-opacity:1"
         offset="0.83237511" />
      <stop
         id="stop3279"
         style="stop-color:#ffffff;stop-opacity:0"
         offset="1" />
    </linearGradient>
    <linearGradient
       x1="44.994774"
       y1="17.5"
       x2="3.0052247"
       y2="17.5"
       id="linearGradient3960"
       xlink:href="#linearGradient3275"
       gradientUnits="userSpaceOnUse"
       gradientTransform="matrix(1.3417982,0,0,1.3287417,-0.2031568,0.247021)"
       spreadMethod="reflect" />
    <linearGradient
       id="linearGradient3980">
      <stop
         id="stop3982"
         style="stop-color:#ffffff;stop-opacity:1"
         offset="0" />
      <stop
         id="stop3984"
         style="stop-color:#ffffff;stop-opacity:1"
         offset="0.32468599" />
      <stop
         id="stop3986"
         style="stop-color:#ffffff;stop-opacity:0.6901961"
         offset="0.3736864" />
      <stop
         id="stop3988"
         style="stop-color:#ffffff;stop-opacity:0"
         offset="1" />
    </linearGradient>
    <linearGradient
       x1="26"
       y1="22"
       x2="26"
       y2="8"
       id="linearGradient3963"
       xlink:href="#linearGradient3980"
       gradientUnits="userSpaceOnUse"
       gradientTransform="matrix(1.4999999,0,0,1.3571429,-3.9999994,0.1428574)" />
    <linearGradient
       x1="63.5"
       y1="47.5"
       x2="63.5"
       y2="23.5"
       id="linearGradient4803"
       xlink:href="#linearGradient4805"
       gradientUnits="userSpaceOnUse"
       gradientTransform="matrix(1,0,0,0.47826082,-31,0.52173914)" />
    <linearGradient
       id="linearGradient4805">
      <stop
         id="stop4807"
         style="stop-color:#ffffff;stop-opacity:1"
         offset="0" />
      <stop
         id="stop4811"
         style="stop-color:#ffffff;stop-opacity:0.3137255"
         offset="1" />
    </linearGradient>
    <linearGradient
       gradientTransform="matrix(1,0,0,0.47826082,-32,0.52173914)"
       x1="63.5"
       y1="47.5"
       x2="63.5"
       y2="23.5"
       id="linearGradient4799"
       xlink:href="#linearGradient4793"
       gradientUnits="userSpaceOnUse" />
    <linearGradient
       id="linearGradient4793">
      <stop
         id="stop4795"
         style="stop-color:#ad8757;stop-opacity:1"
         offset="0" />
      <stop
         id="stop4797"
         style="stop-color:#c7ad88;stop-opacity:0.39215687"
         offset="1" />
    </linearGradient>
  </defs>
  <g
     id="g3401">
    <g
       id="g3312">
      <g
         id="g3370">
        <rect
           style="opacity:0.3;fill:url(#radialGradient3940);fill-opacity:1;stroke:none"
           id="rect2484"
           transform="scale(-1,-1)"
           y="-63.999996"
           x="-4.9605522"
           height="19.999998"
           width="3.9605522" />
        <rect
           style="opacity:0.3;fill:url(#linearGradient3942);fill-opacity:1;stroke:none"
           id="rect2486"
           y="43.999996"
           x="4.9605522"
           height="19.999998"
           width="54.068302" />
        <rect
           style="opacity:0.3;fill:url(#radialGradient3944);fill-opacity:1;stroke:none;display:inline"
           id="rect3444"
           transform="scale(1,-1)"
           y="-63.999996"
           x="59.039448"
           height="19.999998"
           width="3.9605522" />
        <path
           d="m 11.893351,11.538158 39.568319,0 c 2.309875,0 3.349377,-0.381756 4.012876,1.332251 l 4.026533,10.658006 0,34.20409 c 0,2.06939 0.138071,1.75321 -2.171815,1.75321 l -50.6585249,0 c -2.3098849,0 -2.1718158,0.31618 -2.1718158,-1.75321 l 0,-34.20409 4.0265345,-10.658006 c 0.6449886,-1.679385 1.0580077,-1.332251 3.3678932,-1.332251 z"
           id="path2488"
           style="fill:url(#linearGradient3972);fill-opacity:1;fill-rule:nonzero;stroke:url(#linearGradient3974);stroke-width:0.99420083;stroke-linecap:round;stroke-linejoin:miter;stroke-miterlimit:4;stroke-opacity:1;stroke-dasharray:none;stroke-dashoffset:0;marker:none;visibility:visible;display:block;overflow:visible" />
        <rect
           width="54"
           height="35"
           x="5"
           y="24"
           id="rect3209"
           style="fill:url(#radialGradient3969);fill-opacity:1;fill-rule:evenodd;stroke:none;stroke-width:1.69999993;marker:none;visibility:visible;display:inline;overflow:visible;enable-background:accumulate" />
        <path
           d="m 13.150874,13.010441 37.093631,0 c 2.165417,0 3.505595,0.739493 4.412572,2.771792 l 3.124047,8.530151 0,30.753138 c 0,1.940862 -1.098286,2.91803 -3.263708,2.91803 l -45.2498033,0 c -2.1654173,0 -3.0487076,-1.074722 -3.0487076,-3.015585 l 0,-30.655583 3.0232676,-8.713038 c 0.6046535,-1.57508 1.7432793,-2.588905 3.9087013,-2.588905 z"
           id="path2490"
           style="opacity:0.50549454;fill:none;stroke:url(#linearGradient3966);stroke-width:0.74211526;stroke-linecap:butt;stroke-linejoin:miter;stroke-miterlimit:4;stroke-opacity:1;stroke-dasharray:none;stroke-dashoffset:0;marker:none;visibility:visible;display:block;overflow:visible" />
        <path
           d="m 4.5001475,23.5 54.9997055,0"
           id="path3273"
           style="opacity:0.3;fill:none;stroke:url(#linearGradient3960);stroke-width:0.99999994px;stroke-linecap:square;stroke-linejoin:miter;stroke-opacity:1;display:inline" />
        <path
           d="m 29,11 c 1.999999,0 4.000001,0 6,0 0,6.333333 0,12.666666 0,19 -0.590593,0 -1.181187,0 -1.77178,0 -0.604688,0 -1.209376,0 -1.814063,0 -0.486794,0 -0.973585,0 -1.460377,0 -0.317927,0 -0.635854,0 -0.95378,0 0,-6.333334 0,-12.666667 0,-19 z"
           id="rect3326"
           style="opacity:0.4;fill:url(#linearGradient3963);fill-opacity:1;fill-rule:nonzero;stroke:none;stroke-width:1;marker:none;visibility:visible;display:inline;overflow:visible;enable-background:accumulate" />
        <path
           style="fill:none;stroke:url(#linearGradient4799);stroke-width:0.99999988px;stroke-linecap:butt;stroke-linejoin:miter;stroke-opacity:1"
           id="path4763"
           d="m 31.5,12 0,11" />
        <path
           style="opacity:0.3;fill:none;stroke:url(#linearGradient4803);stroke-width:0.99999988px;stroke-linecap:butt;stroke-linejoin:miter;stroke-opacity:1"
           id="path4801"
           d="m 32.5,12 0,11" />
      </g>
      <path
         style="font-size:12px;font-style:normal;font-variant:normal;font-weight:bold;font-stretch:normal;text-align:start;line-height:100%;writing-mode:lr-tb;text-anchor:start;opacity:0.4;fill:#000000;fill-opacity:1;stroke:none;display:inline;font-family:URW Gothic L;-inkscape-font-specification:URW Gothic L Semi-Bold"
         id="text3329"
         d="m 16.943504,54.996753 c 0.811686,0 1.623381,0 2.435067,0 1.461035,-3.32251 2.922078,-6.645021 4.383114,-9.967531 0,-0.676405 0,-1.352813 0,-2.029222 -2.353892,0 -4.707788,0 -7.061685,0 0,0.676409 0,1.352817 0,2.029222 1.596324,0 3.192639,0 4.788963,0 -1.515156,3.32251 -3.030304,6.645021 -4.545459,9.967531 z m 8.125762,0 c 2.283547,0 4.567094,0 6.850645,0 0,-0.643941 0,-1.28788 0,-1.931819 -1.423162,0 -2.846321,0 -4.269478,0 1.320343,-1.709958 2.640695,-3.419916 3.961038,-5.12987 0,-0.64394 0,-1.287879 0,-1.931817 -2.029222,0 -4.058443,0 -6.087661,0 0,0.643938 0,1.287877 0,1.931817 1.168827,0 2.337661,0 3.506495,0 -1.320352,1.709954 -2.640695,3.419912 -3.961039,5.12987 0,0.643939 0,1.287878 0,1.931819 z m 8.034693,0 c 0.719698,0 1.439396,0 2.159094,0 0,-2.997836 0,-5.995672 0,-8.993506 -0.719698,0 -1.439396,0 -2.159094,0 0,2.997834 0,5.99567 0,8.993506 z m 0,-9.967531 c 0.719698,0 1.439396,0 2.159094,0 0,-0.676405 0,-1.352813 0,-2.029222 -0.719698,0 -1.439396,0 -2.159094,0 0,0.676409 0,1.352817 0,2.029222 z M 37.003868,58 c 0.719695,0 1.439394,0 2.159092,0 0,-1.28247 0,-2.564938 0,-3.847408 2.032875,1.974528 5.829352,1.03699 6.832492,-1.582319 1.074465,-2.350022 0.115095,-5.644021 -2.466749,-6.508827 -1.529619,-0.549396 -3.454904,-0.289082 -4.544315,0.996999 -0.111189,-0.338789 0.272131,-1.172082 -0.294724,-1.055198 -0.56193,0 -1.123865,0 -1.685796,0 0,3.998923 0,7.997837 0,11.996753 z m 4.659089,-10.227275 c 2.000056,-0.07673 3.203387,2.39006 2.277778,4.048469 -0.772426,1.766414 -3.508447,1.864485 -4.467622,0.222628 -1.144403,-1.707154 0.01979,-4.34425 2.189845,-4.271096 l -1e-6,-10e-7 z" />
    </g>
  </g>
</svg>
