<?xml version="1.0" encoding="UTF-8" standalone="no"?>
<svg
   version="1.0"
   width="64"
   height="64"
   id="svg2453"
   sodipodi:docname="image-bmp.svg"
   inkscape:version="1.1.1 (3bf5ae0d25, 2021-09-20)"
   xmlns:inkscape="http://www.inkscape.org/namespaces/inkscape"
   xmlns:sodipodi="http://sodipodi.sourceforge.net/DTD/sodipodi-0.dtd"
   xmlns:xlink="http://www.w3.org/1999/xlink"
   xmlns="http://www.w3.org/2000/svg"
   xmlns:svg="http://www.w3.org/2000/svg"
   xmlns:rdf="http://www.w3.org/1999/02/22-rdf-syntax-ns#"
   xmlns:cc="http://creativecommons.org/ns#"
   xmlns:dc="http://purl.org/dc/elements/1.1/">
  <sodipodi:namedview
     id="namedview47"
     pagecolor="#ffffff"
     bordercolor="#666666"
     borderopacity="1.0"
     inkscape:pageshadow="2"
     inkscape:pageopacity="0.0"
     inkscape:pagecheckerboard="0"
     showgrid="false"
     inkscape:snap-center="true"
     inkscape:snap-object-midpoints="true"
     inkscape:zoom="10.65625"
     inkscape:cx="-21.630499"
     inkscape:cy="40.070381"
     inkscape:window-width="1317"
     inkscape:window-height="890"
     inkscape:window-x="601"
     inkscape:window-y="140"
     inkscape:window-maximized="0"
     inkscape:current-layer="svg2453" />
  <metadata
     id="metadata35">
    <rdf:RDF>
      <cc:Work
         rdf:about="">
        <dc:format>image/svg+xml</dc:format>
        <dc:type
           rdf:resource="http://purl.org/dc/dcmitype/StillImage" />
      </cc:Work>
    </rdf:RDF>
  </metadata>
  <defs
     id="defs2455">
    <linearGradient
       id="linearGradient3104-6">
      <stop
         id="stop3106-3"
         style="stop-color:#000000;stop-opacity:0.31782946"
         offset="0" />
      <stop
         id="stop3108-9"
         style="stop-color:#000000;stop-opacity:0.24031007"
         offset="1" />
    </linearGradient>
    <linearGradient
       id="linearGradient3977-4">
      <stop
         id="stop3979-7"
         style="stop-color:#ffffff;stop-opacity:1"
         offset="0" />
      <stop
         id="stop3981-6"
         style="stop-color:#ffffff;stop-opacity:0.23529412"
         offset="0.01214366" />
      <stop
         id="stop3983-5"
         style="stop-color:#ffffff;stop-opacity:0.15686275"
         offset="0.98781353" />
      <stop
         id="stop3985-6"
         style="stop-color:#ffffff;stop-opacity:0.39215687"
         offset="1" />
    </linearGradient>
    <linearGradient
       id="linearGradient3600-9">
      <stop
         id="stop3602-3"
         style="stop-color:#f4f4f4;stop-opacity:1"
         offset="0" />
      <stop
         id="stop3604-7"
         style="stop-color:#dbdbdb;stop-opacity:1"
         offset="1" />
    </linearGradient>
    <linearGradient
       x1="-51.786404"
       y1="50.786446"
       x2="-51.786404"
       y2="2.9062471"
       id="linearGradient3163"
       xlink:href="#linearGradient3104-6"
       gradientUnits="userSpaceOnUse"
       gradientTransform="matrix(1.3612077,0,0,0.95572049,91.691477,7.7856436)" />
    <linearGradient
       x1="23.99999"
       y1="5.8641062"
       x2="23.99999"
       y2="42.100208"
       id="linearGradient3166"
       xlink:href="#linearGradient3977-4"
       gradientUnits="userSpaceOnUse"
       gradientTransform="matrix(1.5405406,0,0,1.216213,-4.9729707,5.8108651)" />
    <linearGradient
       x1="25.132275"
       y1="0.98520643"
       x2="25.132275"
       y2="47.013336"
       id="linearGradient3169"
       xlink:href="#linearGradient3600-9"
       gradientUnits="userSpaceOnUse"
       gradientTransform="matrix(1.6571391,0,0,0.99949772,-7.7713459,9.4785876)" />
    <linearGradient
       x1="164.28023"
       y1="241.65149"
       x2="164.28023"
       y2="156.78416"
       id="linearGradient3077-9"
       xlink:href="#linearGradient4785-3-8"
       gradientUnits="userSpaceOnUse"
       gradientTransform="matrix(0.59909774,0,0,0.45636141,-68.322625,-55.841327)" />
    <linearGradient
       id="linearGradient4785-3-8">
      <stop
         id="stop4787-5-5"
         style="stop-color:#262626;stop-opacity:1"
         offset="0" />
      <stop
         id="stop4789-1-1"
         style="stop-color:#4d4d4d;stop-opacity:1"
         offset="1" />
    </linearGradient>
    <linearGradient
       x1="30.305618"
       y1="6.9420786"
       x2="30.305618"
       y2="36.268814"
       id="linearGradient3079-1"
       xlink:href="#linearGradient3610-302-9-7-6"
       gradientUnits="userSpaceOnUse"
       gradientTransform="matrix(1.3600493,0,0,1.3332146,5.0433787,6.3715953)" />
    <linearGradient
       id="linearGradient3610-302-9-7-6">
      <stop
         id="stop3796-3-8-6"
         style="stop-color:#1d1d1d;stop-opacity:1"
         offset="0" />
      <stop
         id="stop3798-1-9-9"
         style="stop-color:#000000;stop-opacity:1"
         offset="1" />
    </linearGradient>
    <radialGradient
       gradientTransform="matrix(2.003784,0,0,1.4,27.98813,-17.4)"
       gradientUnits="userSpaceOnUse"
       xlink:href="#linearGradient3688-464-309-8"
       id="radialGradient4093-8"
       fy="43.5"
       fx="4.9929786"
       r="2.5"
       cy="43.5"
       cx="4.9929786" />
    <linearGradient
       id="linearGradient3688-464-309-8">
      <stop
         offset="0"
         style="stop-color:#181818;stop-opacity:1"
         id="stop2889-9" />
      <stop
         offset="1"
         style="stop-color:#181818;stop-opacity:0"
         id="stop2891-4" />
    </linearGradient>
    <radialGradient
       gradientTransform="matrix(2.003784,0,0,1.4,-20.01187,-104.4)"
       gradientUnits="userSpaceOnUse"
       xlink:href="#linearGradient3688-464-309-8"
       id="radialGradient4095-5"
       fy="43.5"
       fx="4.9929786"
       r="2.5"
       cy="43.5"
       cx="4.9929786" />
    <linearGradient
       gradientUnits="userSpaceOnUse"
       xlink:href="#linearGradient3702-501-757-0"
       id="linearGradient4097-9"
       y2="39.999443"
       x2="25.058096"
       y1="47.027729"
       x1="25.058096" />
    <linearGradient
       id="linearGradient3702-501-757-0">
      <stop
         offset="0"
         style="stop-color:#181818;stop-opacity:0"
         id="stop2895-0" />
      <stop
         offset="0.5"
         style="stop-color:#181818;stop-opacity:1"
         id="stop2897-2" />
      <stop
         offset="1"
         style="stop-color:#181818;stop-opacity:0"
         id="stop2899-6" />
    </linearGradient>
    <linearGradient
       id="linearGradient3654-601">
      <stop
         id="stop3808"
         style="stop-color:#ffffff;stop-opacity:1"
         offset="0" />
      <stop
         id="stop3810"
         style="stop-color:#ffffff;stop-opacity:0"
         offset="1" />
    </linearGradient>
    <linearGradient
       x1="19.857143"
       y1="33.986282"
       x2="19.857143"
       y2="38.430866"
       id="linearGradient20332"
       xlink:href="#linearGradient3654-601"
       gradientUnits="userSpaceOnUse"
       gradientTransform="matrix(1.1249999,0,0,1.1227131,5.0000013,3.3354532)" />
  </defs>
  <g
     style="display:inline;stroke-width:2"
     id="g2036"
     transform="matrix(1.5124994,0,0,0.27777804,-4.3000007,46.94444)">
    <g
       style="opacity:0.4;stroke-width:2"
       id="g3712"
       transform="matrix(1.052632,0,0,1.285713,-1.263158,-13.42854)">
      <rect
         style="fill:url(#radialGradient4093-8);fill-opacity:1;stroke:none;stroke-width:2"
         id="rect2801-5"
         y="40"
         x="38"
         height="7"
         width="5" />
      <rect
         style="fill:url(#radialGradient4095-5);fill-opacity:1;stroke:none;stroke-width:2"
         id="rect3696-7"
         transform="scale(-1)"
         y="-47"
         x="-10"
         height="7"
         width="5" />
      <rect
         style="fill:url(#linearGradient4097-9);fill-opacity:1;stroke:none;stroke-width:2"
         id="rect3700-7"
         y="40"
         x="10"
         height="7.0000005"
         width="28" />
    </g>
  </g>
  <path
     d="m 2.9999928,12.000016 c 13.2907442,0 57.9999312,0.0032 57.9999312,0.0032 l 6.9e-5,45.996828 c 0,0 -38.666666,0 -58.0000002,0 0,-15.333349 0,-30.666461 0,-45.999746 z"
     id="path4160-6"
     style="fill:url(#linearGradient3169);fill-opacity:1;stroke:none;display:inline" />
  <rect
     width="51"
     height="39"
     x="6.4999928"
     y="15.50003"
     id="rect3180"
     style="color:#000000;display:inline;overflow:visible;visibility:visible;fill:url(#linearGradient3077-9);fill-opacity:1;fill-rule:nonzero;stroke:url(#linearGradient3079-1);stroke-width:1;stroke-linecap:round;stroke-linejoin:miter;stroke-miterlimit:4;stroke-dasharray:none;stroke-dashoffset:0;stroke-opacity:1;marker:none;enable-background:accumulate" />
  <path
     d="m 60.499993,57.500016 -57.0000004,0 0,-45 57.0000004,0 z"
     id="rect6741-1-8"
     style="fill:none;stroke:url(#linearGradient3166);stroke-width:1;stroke-linecap:round;stroke-linejoin:miter;stroke-miterlimit:4;stroke-opacity:1;stroke-dasharray:none;stroke-dashoffset:0" />
  <path
     d="m 2.499962,11.500038 c 13.5199,0 59.000015,0.0032 59.000015,0.0032 l 6.1e-5,46.996892 c 0,0 -39.333383,0 -59.0000761,0 0,-15.66674 0,-31.333322 0,-46.999879 z"
     id="path4160-6-1"
     style="fill:none;stroke:url(#linearGradient3163);stroke-width:0.9999218;stroke-linecap:butt;stroke-linejoin:round;stroke-miterlimit:4;stroke-opacity:1;stroke-dasharray:none;stroke-dashoffset:0;display:inline" />
  <path
     d="m 14.038128,28.00898 c 0,4.244111 0,8.485136 0,12.729252 -0.152373,0.637881 0.162947,0.820029 0.749529,0.699416 1.661433,-0.0823 3.401341,0.238486 4.974146,-0.454619 2.008601,-0.869525 2.795413,-3.710527 1.430921,-5.490366 C 20.9753,34.614718 18.751779,34.347446 19.523319,33.849046 21.37475,32.64228 21.181717,29.479203 19.216692,28.498568 17.590114,27.751995 15.765684,28.088555 14.038128,28.00898 Z m 1.294642,1.293903 c 0.89749,0.02556 1.809412,-0.07209 2.691489,0.139886 1.301348,0.209727 1.826491,1.866789 1.158364,2.93752 -0.779608,1.385949 -2.503136,1.212836 -3.849853,1.223963 0,-1.43324 0,-2.868127 0,-4.301369 z m 0,5.665218 c 1.249466,0.0313 2.573939,-0.106434 3.747645,0.419651 1.533219,0.598391 1.931704,2.849567 0.681388,3.951664 -1.22142,1.093128 -2.936568,0.688862 -4.429033,0.769352 0,-1.716244 0,-3.424424 0,-5.140667 z M 24.125,41.4923 c 0.614521,-4.485719 1.229041,-8.971443 1.843561,-13.457156 0.457349,0.0199 0.474304,0.77586 0.742707,1.111567 1.581294,3.310142 3.162582,6.620291 4.743873,9.930432 1.740653,-3.680663 3.481304,-7.361329 5.221955,-11.041999 0.450872,0.02199 0.22221,0.857096 0.381533,1.227947 0.563787,4.076399 1.12758,8.152805 1.691368,12.229209 -0.403491,-0.0568 -0.995214,0.110249 -1.289157,-0.07676 -0.420026,-3.182401 -0.840051,-6.364803 -1.260068,-9.547197 -1.528955,3.208001 -3.057903,6.416012 -4.586856,9.624015 -0.537952,0.134412 -0.529229,-0.646246 -0.792298,-0.971955 -1.394225,-2.908415 -2.788448,-5.81683 -4.182669,-8.725244 -0.420462,3.232393 -0.840924,6.464796 -1.261387,9.697199 -0.417519,0 -0.83504,0 -1.252562,0 z M 42.124996,28.045763 c 0,4.455043 0,8.91753 0,13.372573 0.269552,0.186304 0.855912,0.01434 1.248083,0.07006 0,-1.696313 0,-3.414669 0,-5.110983 0.113051,-0.354243 -0.240373,-1.21674 0.262755,-1.155226 1.791607,-0.08369 3.813479,0.292376 5.32076,-0.980188 1.792013,-1.620933 1.189969,-5.247436 -1.149548,-5.91614 -1.861453,-0.457031 -3.785782,-0.223328 -5.68205,-0.280048 z m 1.248083,1.295248 c 1.30091,0.04068 2.630339,-0.125764 3.908457,0.175035 1.649444,0.471355 1.920297,3.181606 0.426977,4.025774 -1.352025,0.640111 -2.898747,0.329357 -4.335434,0.385073 0,-1.523068 0,-3.062815 0,-4.585882 z"
     id="path20306"
     style="font-style:normal;font-variant:normal;font-weight:normal;font-stretch:normal;font-size:16.707px;font-family:'Century Gothic';-inkscape-font-specification:'Century Gothic';fill:#ffffff;fill-opacity:1;stroke:none;stroke-width:1" />
  <path
     d="m 14.038128,54.991028 c 0,-4.244125 0,-8.485138 0,-12.729264 -0.152373,-0.637869 0.162947,-0.82003 0.749529,-0.699405 1.661433,0.08227 3.401341,-0.238498 4.974146,0.454607 2.008601,0.869534 2.795413,3.710537 1.430921,5.490374 -0.217424,0.877939 -2.440945,1.14522 -1.669405,1.643611 1.851431,1.206763 1.658398,4.369849 -0.306627,5.350485 -1.626578,0.746569 -3.451008,0.410004 -5.178564,0.489592 z m 1.294642,-1.293917 c 0.89749,-0.02558 1.809412,0.07211 2.691489,-0.139876 1.301348,-0.209738 1.826491,-1.866793 1.158364,-2.937528 -0.779608,-1.385942 -2.503136,-1.212831 -3.849853,-1.223966 0,1.433242 0,2.868129 0,4.30137 z m 0,-5.665218 c 1.249466,-0.03133 2.573939,0.106433 3.747645,-0.419638 1.533219,-0.598395 1.931704,-2.849567 0.681388,-3.951666 -1.22142,-1.093133 -2.936568,-0.688868 -4.429033,-0.769354 0,1.716251 0,3.424419 0,5.140658 z M 24.125,41.507704 c 0.614521,4.485712 1.229041,8.971434 1.843561,13.457151 0.457349,-0.01994 0.474304,-0.77586 0.742707,-1.11156 1.581294,-3.310151 3.162582,-6.620291 4.743873,-9.930443 1.740653,3.680666 3.481304,7.361335 5.221955,11.042003 0.450872,-0.02199 0.22221,-0.8571 0.381533,-1.227943 0.563787,-4.076402 1.12758,-8.152802 1.691368,-12.229208 -0.403491,0.0568 -0.995214,-0.110139 -1.289157,0.07675 -0.420026,3.1824 -0.840051,6.364798 -1.260068,9.547194 -1.528955,-3.207994 -3.057903,-6.416014 -4.586856,-9.624007 -0.537952,-0.134412 -0.529229,0.646245 -0.792298,0.971946 -1.394225,2.90842 -2.788448,5.816844 -4.182669,8.725253 -0.420462,-3.232401 -0.840924,-6.464803 -1.261387,-9.697199 -0.417519,0 -0.83504,0 -1.252562,0 z m 17.999996,13.44653 c 0,-4.455045 0,-8.917529 0,-13.372565 0.269552,-0.186304 0.855912,-0.01434 1.248083,-0.07006 0,1.696305 0,3.414662 0,5.110983 0.113051,0.354238 -0.240373,1.21673 0.262755,1.155215 1.791607,0.08365 3.813479,-0.292375 5.32076,0.980194 1.792013,1.620929 1.189969,5.24744 -1.149548,5.916138 -1.861453,0.457032 -3.785782,0.22333 -5.68205,0.280049 z m 1.248083,-1.295249 c 1.30091,-0.04073 2.630339,0.125767 3.908457,-0.17503 1.649444,-0.471361 1.920297,-3.181612 0.426977,-4.025784 -1.352025,-0.6401 -2.898747,-0.329345 -4.335434,-0.385066 0,1.523064 0,3.062821 0,4.58588 z"
     id="path20311"
     style="font-style:normal;font-variant:normal;font-weight:normal;font-stretch:normal;font-size:16.707px;font-family:'Century Gothic';-inkscape-font-specification:'Century Gothic';opacity:0.25;fill:url(#linearGradient20332);fill-opacity:1;stroke:none;stroke-width:1" />
</svg>
