<?xml version="1.0" encoding="UTF-8" standalone="no"?>
<!-- Created with Inkscape (http://www.inkscape.org/) -->

<svg
   xmlns:dc="http://purl.org/dc/elements/1.1/"
   xmlns:cc="http://creativecommons.org/ns#"
   xmlns:rdf="http://www.w3.org/1999/02/22-rdf-syntax-ns#"
   xmlns:svg="http://www.w3.org/2000/svg"
   xmlns="http://www.w3.org/2000/svg"
   xmlns:xlink="http://www.w3.org/1999/xlink"
   xmlns:sodipodi="http://sodipodi.sourceforge.net/DTD/sodipodi-0.dtd"
   xmlns:inkscape="http://www.inkscape.org/namespaces/inkscape"
   width="64"
   height="64"
   id="svg4017"
   version="1.1"
   inkscape:version="0.48+devel r"
   sodipodi:docname="text-css.svg">
  <defs
     id="defs4019">
    <radialGradient
       inkscape:collect="always"
       xlink:href="#linearGradient5060"
       id="radialGradient3153"
       gradientUnits="userSpaceOnUse"
       gradientTransform="matrix(0.03132633,0,0,0.02058823,35.220859,1037.8136)"
       cx="605.71429"
       cy="486.64789"
       fx="605.71429"
       fy="486.64789"
       r="117.14286" />
    <linearGradient
       id="linearGradient5060">
      <stop
         id="stop5062"
         style="stop-color:#000000;stop-opacity:1"
         offset="0" />
      <stop
         id="stop5064"
         style="stop-color:#000000;stop-opacity:0"
         offset="1" />
    </linearGradient>
    <radialGradient
       inkscape:collect="always"
       xlink:href="#linearGradient5060"
       id="radialGradient3156"
       gradientUnits="userSpaceOnUse"
       gradientTransform="matrix(-0.03132632,0,0,0.02058823,28.779136,1037.8136)"
       cx="605.71429"
       cy="486.64789"
       fx="605.71429"
       fy="486.64789"
       r="117.14286" />
    <linearGradient
       id="linearGradient5048">
      <stop
         id="stop5050"
         style="stop-color:#000000;stop-opacity:0"
         offset="0" />
      <stop
         id="stop5056"
         style="stop-color:#000000;stop-opacity:1"
         offset="0.5" />
      <stop
         id="stop5052"
         style="stop-color:#000000;stop-opacity:0"
         offset="1" />
    </linearGradient>
    <linearGradient
       y2="609.50507"
       x2="302.85715"
       y1="366.64789"
       x1="302.85715"
       gradientTransform="matrix(0.09153846,0,0,0.02058823,-1.084616,1037.8136)"
       gradientUnits="userSpaceOnUse"
       id="linearGradient4015"
       xlink:href="#linearGradient5048"
       inkscape:collect="always" />
    <linearGradient
       id="linearGradient3104">
      <stop
         offset="0"
         style="stop-color:#a0a0a0;stop-opacity:1;"
         id="stop3106" />
      <stop
         offset="1"
         style="stop-color:#bebebe;stop-opacity:1;"
         id="stop3108" />
    </linearGradient>
    <linearGradient
       id="linearGradient3600-9">
      <stop
         offset="0"
         style="stop-color:#f4f4f4;stop-opacity:1"
         id="stop3602-3" />
      <stop
         offset="1"
         style="stop-color:#dbdbdb;stop-opacity:1"
         id="stop3604-7" />
    </linearGradient>
    <linearGradient
       id="linearGradient3977-4">
      <stop
         id="stop3979-7"
         style="stop-color:#ffffff;stop-opacity:1;"
         offset="0" />
      <stop
         offset="0.03626217"
         style="stop-color:#ffffff;stop-opacity:0.23529412;"
         id="stop3981-6" />
      <stop
         id="stop3983-5"
         style="stop-color:#ffffff;stop-opacity:0.15686275;"
         offset="0.95056331" />
      <stop
         id="stop3985-6"
         style="stop-color:#ffffff;stop-opacity:0.39215687;"
         offset="1" />
    </linearGradient>
    <linearGradient
       inkscape:collect="always"
       xlink:href="#linearGradient3977-4"
       id="linearGradient3093"
       gradientUnits="userSpaceOnUse"
       gradientTransform="matrix(1.2162162,0,0,1.5405376,2.8108184,981.38923)"
       x1="23.99999"
       y1="5.5641499"
       x2="23.99999"
       y2="43" />
    <linearGradient
       inkscape:collect="always"
       xlink:href="#linearGradient3600-9"
       id="linearGradient3096"
       gradientUnits="userSpaceOnUse"
       gradientTransform="matrix(1.3428567,0,0,1.2819685,-0.22855506,985.62813)"
       x1="25.132275"
       y1="0.98520643"
       x2="25.132275"
       y2="47.013336" />
    <linearGradient
       inkscape:collect="always"
       xlink:href="#linearGradient3104"
       id="linearGradient3098"
       gradientUnits="userSpaceOnUse"
       gradientTransform="matrix(1.0843525,0,0,1.1997316,79.550873,984.1994)"
       x1="-51.786404"
       y1="50.786446"
       x2="-51.786404"
       y2="2.9062471" />
    <linearGradient
       id="linearGradient3735">
      <stop
         offset="0"
         style="stop-color:#c1c1c1;stop-opacity:1"
         id="stop3737" />
      <stop
         offset="1"
         style="stop-color:#cecece;stop-opacity:1"
         id="stop3739" />
    </linearGradient>
    <linearGradient
       inkscape:collect="always"
       xlink:href="#linearGradient3735"
       id="linearGradient3275"
       gradientUnits="userSpaceOnUse"
       gradientTransform="matrix(1.3684211,0,0,1,-0.84211034,985.8622)"
       x1="24.949999"
       y1="13.5"
       x2="24.949999"
       y2="17.5" />
  </defs>
  <sodipodi:namedview
     id="base"
     pagecolor="#ffffff"
     bordercolor="#666666"
     borderopacity="1.0"
     inkscape:pageopacity="0.0"
     inkscape:pageshadow="2"
     inkscape:zoom="6.0877475"
     inkscape:cx="34.640377"
     inkscape:cy="42.435312"
     inkscape:document-units="pt"
     inkscape:current-layer="layer1"
     showgrid="true"
     inkscape:window-width="1535"
     inkscape:window-height="876"
     inkscape:window-x="65"
     inkscape:window-y="24"
     inkscape:window-maximized="1"
     units="px">
    <inkscape:grid
       type="xygrid"
       id="grid3339"
       empspacing="5"
       visible="true"
       enabled="true"
       snapvisiblegridlinesonly="true" />
  </sodipodi:namedview>
  <metadata
     id="metadata4022">
    <rdf:RDF>
      <cc:Work
         rdf:about="">
        <dc:format>image/svg+xml</dc:format>
        <dc:type
           rdf:resource="http://purl.org/dc/dcmitype/StillImage" />
        <dc:title></dc:title>
      </cc:Work>
    </rdf:RDF>
  </metadata>
  <g
     inkscape:label="Layer 1"
     inkscape:groupmode="layer"
     id="layer1"
     transform="translate(0,-988.3622)">
    <rect
       style="opacity:0.3;fill:url(#linearGradient4015);fill-opacity:1;fill-rule:nonzero;stroke:none;stroke-width:1;marker:none;visibility:visible;display:inline;overflow:visible"
       id="rect2879"
       y="1045.3622"
       x="9.8999996"
       height="5"
       width="44.199997" />
    <path
       inkscape:connector-curvature="0"
       style="opacity:0.3;fill:url(#radialGradient3156);fill-opacity:1;fill-rule:nonzero;stroke:none;stroke-width:1;marker:none;visibility:visible;display:inline;overflow:visible"
       id="path2881"
       d="m 9.9,1045.3624 c 0,0 0,4.9997 0,4.9997 -1.6132281,0.01 -3.9,-1.1202 -3.9,-2.5002 0,-1.38 1.8002408,-2.4995 3.9,-2.4995 z" />
    <path
       inkscape:connector-curvature="0"
       style="opacity:0.3;fill:url(#radialGradient3153);fill-opacity:1;fill-rule:nonzero;stroke:none;stroke-width:1;marker:none;visibility:visible;display:inline;overflow:visible"
       id="path2883"
       d="m 54.099999,1045.3624 c 0,0 0,4.9997 0,4.9997 1.613228,0.01 3.900001,-1.1202 3.900001,-2.5002 0,-1.38 -1.800241,-2.4995 -3.900001,-2.4995 z" />
    <path
       inkscape:connector-curvature="0"
       style="fill:url(#linearGradient3096);fill-opacity:1;stroke:url(#linearGradient3098);stroke-width:0.99992186;stroke-linecap:butt;stroke-linejoin:round;stroke-miterlimit:4;stroke-opacity:1;stroke-dasharray:none;stroke-dashoffset:0;display:inline"
       id="path4160-6"
       d="m 8.4999609,988.86214 c 10.7701071,0 47.0000371,0.004 47.0000371,0.004 l 5.6e-5,58.99606 c 0,0 -31.333395,0 -47.0000931,0 0,-19.6667 0,-39.3332 0,-58.99981 z"
       sodipodi:nodetypes="ccccc" />
    <path
       style="fill:none;stroke:url(#linearGradient3093);stroke-width:1;stroke-linecap:round;stroke-linejoin:miter;stroke-miterlimit:4;stroke-opacity:1;stroke-dasharray:none;stroke-dashoffset:0"
       d="m 54.499999,1046.8622 -44.9999992,0 0,-57.00004 44.9999992,0 z"
       id="rect6741-1-8"
       inkscape:connector-curvature="0"
       sodipodi:nodetypes="ccccc" />
    <path
       inkscape:connector-curvature="0"
       style="opacity:0.6;fill:#b3b3b3;fill-opacity:1;stroke:none;display:inline"
       id="path3406"
       d="m 19,1006.3622 2.121,0 0,1 -2.121,0 z"
       sodipodi:nodetypes="ccccc" />
    <path
       inkscape:connector-curvature="0"
       style="opacity:0.6;fill:#b3b3b3;fill-opacity:1;stroke:none;display:inline"
       id="path3404"
       d="m 21.965,1006.3622 2.114,0 0,1 -2.114,0 z"
       sodipodi:nodetypes="ccccc" />
    <path
       inkscape:connector-curvature="0"
       style="opacity:0.6;fill:#b3b3b3;fill-opacity:1;stroke:none;display:inline"
       id="path3402"
       d="m 24.898,1006.3622 1.24884,0 0,1 -1.24884,0 z"
       sodipodi:nodetypes="ccccc" />
    <path
       inkscape:connector-curvature="0"
       style="opacity:0.6;fill:#b3b3b3;fill-opacity:1;stroke:none;display:inline"
       id="path3397"
       d="m 27.042,1006.3622 2.115,0 0,1 -2.115,0 z"
       sodipodi:nodetypes="ccccc" />
    <path
       inkscape:connector-curvature="0"
       style="opacity:0.6;fill:#b3b3b3;fill-opacity:1;stroke:none;display:inline"
       id="path3395"
       d="m 29.977,1006.3622 4.161,0 0,1 -4.161,0 z"
       sodipodi:nodetypes="ccccc" />
    <path
       inkscape:connector-curvature="0"
       style="opacity:0.6;fill:#b3b3b3;fill-opacity:1;stroke:none;display:inline"
       id="path3392"
       d="m 35.058,1006.3622 4.069,0 0,1 -4.069,0 z"
       sodipodi:nodetypes="ccccc" />
    <path
       inkscape:connector-curvature="0"
       style="opacity:0.6;fill:#b3b3b3;fill-opacity:1;stroke:none;display:inline"
       id="path3385"
       d="m 19,1018.3622 3.192,0 0,1 -3.192,0 z"
       sodipodi:nodetypes="ccccc" />
    <path
       inkscape:connector-curvature="0"
       style="opacity:0.6;fill:#b3b3b3;fill-opacity:1;stroke:none;display:inline"
       id="path3383"
       d="m 22.965761,1018.3622 2.176239,0 0,1 -2.176239,0 z"
       sodipodi:nodetypes="ccccc" />
    <path
       inkscape:connector-curvature="0"
       style="opacity:0.6;fill:#b3b3b3;fill-opacity:1;stroke:none;display:inline"
       id="path3379"
       d="m 25.959,1018.3622 1.208,0 0,1 -1.208,0 z"
       sodipodi:nodetypes="ccccc" />
    <path
       inkscape:connector-curvature="0"
       style="opacity:0.6;fill:#b3b3b3;fill-opacity:1;stroke:none;display:inline"
       id="path3373"
       d="m 28.040581,1018.3622 2.908419,0 0,1 -2.908419,0 z"
       sodipodi:nodetypes="ccccc" />
    <path
       inkscape:connector-curvature="0"
       style="opacity:0.6;fill:#b3b3b3;fill-opacity:1;stroke:none;display:inline"
       id="path3363"
       d="m 19,1014.3622 4.128,0 0,1 -4.128,0 z"
       sodipodi:nodetypes="ccccc" />
    <path
       inkscape:connector-curvature="0"
       style="opacity:0.6;fill:#b3b3b3;fill-opacity:1;stroke:none;display:inline"
       id="path3361"
       d="m 24.036,1014.3622 3.109,0 0,1 -3.109,0 z"
       sodipodi:nodetypes="ccccc" />
    <path
       inkscape:connector-curvature="0"
       style="opacity:0.6;fill:#b3b3b3;fill-opacity:1;stroke:none;display:inline"
       id="path3359"
       d="m 27.953,1014.3622 2.981,0 0,1 -2.981,0 z"
       sodipodi:nodetypes="ccccc" />
    <path
       inkscape:connector-curvature="0"
       style="opacity:0.6;fill:#b3b3b3;fill-opacity:1;stroke:none;display:inline"
       id="path3347"
       d="m 19,1016.3622 5.085,0 0,1 -5.085,0 z"
       sodipodi:nodetypes="ccccc" />
    <path
       inkscape:connector-curvature="0"
       style="opacity:0.6;fill:#b3b3b3;fill-opacity:1;stroke:none;display:inline"
       id="path3345"
       d="m 24.821,1016.3622 3.292,0 0,1 -3.292,0 z"
       sodipodi:nodetypes="ccccc" />
    <path
       inkscape:connector-curvature="0"
       style="opacity:0.6;fill:#b3b3b3;fill-opacity:1;stroke:none;display:inline"
       id="path3343"
       d="m 29,1016.3622 1.082,0 0,1 -1.082,0 z"
       sodipodi:nodetypes="ccccc" />
    <path
       inkscape:connector-curvature="0"
       style="opacity:0.6;fill:#b3b3b3;fill-opacity:1;stroke:none;display:inline"
       id="path3176"
       d="m 19,1024.3622 4.192,0 0,1 -4.192,0 z"
       sodipodi:nodetypes="ccccc" />
    <path
       inkscape:connector-curvature="0"
       style="opacity:0.6;fill:#b3b3b3;fill-opacity:1;stroke:none;display:inline"
       id="path3174"
       d="m 23.966,1024.3622 1.076,0 0,1 -1.076,0 z"
       sodipodi:nodetypes="ccccc" />
    <path
       inkscape:connector-curvature="0"
       style="opacity:0.6;fill:#b3b3b3;fill-opacity:1;stroke:none;display:inline"
       id="path3170"
       d="m 25.859,1024.3622 2.308,0 0,1 -2.308,0 z"
       sodipodi:nodetypes="ccccc" />
    <path
       inkscape:connector-curvature="0"
       style="opacity:0.6;fill:#b3b3b3;fill-opacity:1;stroke:none;display:inline"
       id="path3166"
       d="m 28.958,1024.3622 4.183,0 0,1 -4.183,0 z"
       sodipodi:nodetypes="ccccc" />
    <path
       inkscape:connector-curvature="0"
       style="opacity:0.6;fill:#b3b3b3;fill-opacity:1;stroke:none;display:inline"
       id="path3164"
       d="m 33.948,1024.3622 3.19,0 0,1 -3.19,0 z"
       sodipodi:nodetypes="ccccc" />
    <path
       inkscape:connector-curvature="0"
       style="opacity:0.6;fill:#b3b3b3;fill-opacity:1;stroke:none;display:inline"
       id="path3162"
       d="m 37.913,1024.3622 1.280406,0 0,1 -1.280406,0 z"
       sodipodi:nodetypes="ccccc" />
    <path
       inkscape:connector-curvature="0"
       style="opacity:0.6;fill:#b3b3b3;fill-opacity:1;stroke:none;display:inline"
       id="path3158"
       d="m 19,1022.3622 3.162,0 0,1 -3.162,0 z"
       sodipodi:nodetypes="ccccc" />
    <path
       inkscape:connector-curvature="0"
       style="opacity:0.6;fill:#b3b3b3;fill-opacity:1;stroke:none;display:inline"
       id="path3156"
       d="m 22.987,1022.3622 4.183,0 0,1 -4.183,0 z"
       sodipodi:nodetypes="ccccc" />
    <path
       inkscape:connector-curvature="0"
       style="opacity:0.6;fill:#b3b3b3;fill-opacity:1;stroke:none;display:inline"
       id="path3154"
       d="m 27.996,1022.3622 2.155,0 0,1 -2.155,0 z"
       sodipodi:nodetypes="ccccc" />
    <path
       inkscape:connector-curvature="0"
       style="opacity:0.6;fill:#b3b3b3;fill-opacity:1;stroke:none;display:inline"
       id="path3152"
       d="m 36.9885,1022.3622 1.1495,0 0,1 -1.1495,0 z"
       sodipodi:nodetypes="ccccc" />
    <path
       inkscape:connector-curvature="0"
       style="opacity:0.6;fill:#b3b3b3;fill-opacity:1;stroke:none;display:inline"
       id="path3150"
       d="m 38.962,1022.3622 2.229,0 0,1 -2.229,0 z"
       sodipodi:nodetypes="ccccc" />
    <path
       inkscape:connector-curvature="0"
       style="opacity:0.6;fill:#b3b3b3;fill-opacity:1;stroke:none;display:inline"
       id="path3146"
       d="m 30.976,1022.3622 5.186,0 0,1 -5.186,0 z"
       sodipodi:nodetypes="ccccc" />
    <path
       inkscape:connector-curvature="0"
       style="opacity:0.6;fill:#b3b3b3;fill-opacity:1;stroke:none;display:inline"
       id="path35069"
       d="m 19,1026.3605 4.069,0 0,1 -4.069,0 z"
       sodipodi:nodetypes="ccccc" />
    <path
       inkscape:connector-curvature="0"
       style="opacity:0.6;fill:#b3b3b3;fill-opacity:1;stroke:none;display:inline"
       id="path35065"
       d="m 23.826,1026.3605 3.281,0 0,1 -3.281,0 z"
       sodipodi:nodetypes="ccccc" />
    <path
       inkscape:connector-curvature="0"
       style="opacity:0.6;fill:#b3b3b3;fill-opacity:1;stroke:none;display:inline"
       id="path35063"
       d="m 27.927,1026.3605 2.197,0 0,1 -2.197,0 z"
       sodipodi:nodetypes="ccccc" />
    <path
       inkscape:connector-curvature="0"
       style="opacity:0.6;fill:#b3b3b3;fill-opacity:1;stroke:none;display:inline"
       id="path35061"
       d="m 30.944,1026.3605 0.997623,0 0,1 -0.997623,0 z"
       sodipodi:nodetypes="ccccc" />
    <path
       inkscape:connector-curvature="0"
       style="opacity:0.6;fill:#b3b3b3;fill-opacity:1;stroke:none;display:inline"
       id="path35059"
       d="m 32.961,1026.3605 2.147,0 0,1 -2.147,0 z"
       sodipodi:nodetypes="ccccc" />
    <path
       inkscape:connector-curvature="0"
       style="opacity:0.6;fill:#b3b3b3;fill-opacity:1;stroke:none;display:inline"
       id="path35057"
       d="m 35.928,1026.3605 2.173,0 0,1 -2.173,0 z"
       sodipodi:nodetypes="ccccc" />
    <path
       inkscape:connector-curvature="0"
       style="opacity:0.6;fill:#b3b3b3;fill-opacity:1;stroke:none;display:inline"
       id="path35055"
       d="m 38.92,1026.3605 3.2,0 0,1 -3.2,0 z"
       sodipodi:nodetypes="ccccc" />
    <rect
       style="fill:url(#linearGradient3275);fill-opacity:1;stroke:none"
       id="rect2963"
       y="999.36218"
       x="19"
       ry="0.91034484"
       rx="1.1834483"
       height="4"
       width="26" />
    <path
       inkscape:connector-curvature="0"
       style="opacity:0.6;fill:#797979;fill-opacity:1;stroke:none;display:inline"
       id="path3743"
       d="m 22,1001.3622 2.345838,0 0,1 -2.345838,0 0,-1 z" />
    <path
       inkscape:connector-curvature="0"
       style="opacity:0.6;fill:#797979;fill-opacity:1;stroke:none;display:inline"
       id="path3747"
       d="m 26,1001.3622 1.948514,0 0,1 -1.948514,0 0,-1 z" />
    <path
       inkscape:connector-curvature="0"
       style="opacity:0.6;fill:#797979;fill-opacity:1;stroke:none;display:inline"
       id="path3751"
       d="m 30,1001.3622 1.915398,0 0,1 -1.915398,0 0,-1 z" />
    <rect
       style="fill:none;stroke:#c1c1c1;stroke-width:1;stroke-linecap:butt;stroke-miterlimit:4;stroke-opacity:1;stroke-dasharray:none"
       id="rect3757"
       y="1010.3622"
       x="34"
       ry="0"
       rx="0"
       height="8"
       width="10" />
    <path
       inkscape:connector-curvature="0"
       style="opacity:0.6;fill:#b3b3b3;fill-opacity:1;stroke:none;display:inline"
       id="path3759"
       d="m 19,1020.3605 4.185,0 0,1 -4.185,0 z"
       sodipodi:nodetypes="ccccc" />
    <path
       inkscape:connector-curvature="0"
       style="opacity:0.6;fill:#b3b3b3;fill-opacity:1;stroke:none;display:inline"
       id="path3761"
       d="m 24.021,1020.3605 4.092,0 0,1 -4.092,0 z"
       sodipodi:nodetypes="ccccc" />
    <path
       inkscape:connector-curvature="0"
       style="opacity:0.6;fill:#b3b3b3;fill-opacity:1;stroke:none;display:inline"
       id="path3763"
       d="m 29.049,1020.3605 1.951,0 0,1 -1.951,0 z"
       sodipodi:nodetypes="ccccc" />
    <path
       inkscape:connector-curvature="0"
       style="font-size:11.69507122px;font-style:normal;font-weight:normal;line-height:125%;fill:#808080;fill-opacity:1;stroke:none;display:inline;font-family:Bitstream Vera Sans"
       id="text2019"
       d="m 28.169038,1036.6449 c 0,0.5044 0,1.0087 0,1.5133 -0.778239,-0.5566 -2.018675,-0.7789 -2.762399,-0.053 -0.566035,0.6488 -0.571385,1.7121 -0.100819,2.4145 0.641751,0.803 1.902231,0.6761 2.693474,0.1767 0.302498,-0.296 0.120444,0.3359 0.169747,0.5263 0,0.2911 0,0.5823 0,0.8729 -1.325908,0.465 -2.964482,0.5099 -4.126025,-0.3847 -1.087495,-0.8828 -1.23619,-2.5253 -0.719285,-3.7562 0.535706,-1.2098 1.937509,-1.6921 3.176224,-1.6311 0.568608,0.013 1.134756,0.1259 1.669086,0.32 l 0,0 z m 6.146716,0 c 0,0.4697 0,0.9397 0,1.4096 -0.911857,-0.3624 -1.942329,-0.6636 -2.916256,-0.3944 -0.807804,0.4246 0.106616,1.0851 0.681264,0.9702 0.793486,0.1316 1.720708,0.1692 2.298663,0.7987 0.573756,0.8091 0.417232,2.1784 -0.54064,2.6324 -1.225966,0.5562 -2.634332,0.3773 -3.910516,0.1006 -0.451942,0.039 -0.426426,-0.3027 -0.401355,-0.6359 0,-0.2927 0,-0.5854 0,-0.8781 0.939697,0.433 2.048878,0.7105 3.067847,0.424 0.856697,-0.4551 -0.07661,-1.1889 -0.708718,-1.0552 -0.80187,-0.1148 -1.804625,-0.2008 -2.252887,-0.9784 -0.425172,-0.8501 -0.18569,-2.1238 0.796196,-2.4621 1.247704,-0.4474 2.629497,-0.2297 3.886402,0.07 l 0,0 z m 6.322932,0 c 0,0.4697 0,0.9397 0,1.4096 -0.911867,-0.3624 -1.942328,-0.6636 -2.916266,-0.3944 -0.807796,0.4246 0.106626,1.0851 0.681275,0.9702 0.793484,0.1316 1.720707,0.1692 2.298661,0.7987 0.573746,0.8091 0.417232,2.1784 -0.54065,2.6324 -1.225955,0.5562 -2.634333,0.3773 -3.910505,0.1006 -0.451942,0.039 -0.426424,-0.3027 -0.401365,-0.6359 0,-0.2927 0,-0.5854 0,-0.8781 0.939705,0.433 2.048875,0.7105 3.067857,0.424 0.856685,-0.4551 -0.07661,-1.1889 -0.708719,-1.0552 -0.80188,-0.1148 -1.804624,-0.2008 -2.252885,-0.9784 -0.425174,-0.8501 -0.185692,-2.1238 0.796195,-2.4621 1.247705,-0.4474 2.629485,-0.2297 3.886402,0.07 l 0,0 z" />
    <path
       inkscape:connector-curvature="0"
       style="fill:none;stroke:#b3b3b3;stroke-width:0.99999994px;stroke-linecap:butt;stroke-linejoin:miter;stroke-opacity:1"
       id="path2505"
       d="m 48.5,996.36223 0,38.99997" />
    <path
       inkscape:connector-curvature="0"
       style="fill:none;stroke:#b3b3b3;stroke-width:0.99999994px;stroke-linecap:butt;stroke-linejoin:miter;stroke-opacity:1"
       id="path2509"
       d="m 13,996.8622 35,0" />
    <path
       inkscape:connector-curvature="0"
       style="fill:none;stroke:#b3b3b3;stroke-width:0.99999994px;stroke-linecap:butt;stroke-linejoin:miter;stroke-opacity:1"
       id="path2513"
       d="m 13,1030.8622 38,0" />
    <path
       style="fill:none;stroke:#b3b3b3;stroke-width:0.99999994;stroke-linecap:butt;stroke-linejoin:miter;stroke-miterlimit:4;stroke-opacity:1;stroke-dasharray:none"
       d="m 15.5,992.36221 0,42.99999"
       id="path4109"
       inkscape:connector-curvature="0" />
    <path
       d="m 34,1001.3622 1.915398,0 0,1 -1.915398,0 0,-1 z"
       id="path4121"
       style="opacity:0.6;fill:#797979;fill-opacity:1;stroke:none;display:inline"
       inkscape:connector-curvature="0" />
    <path
       d="m 19,1010.3622 3.1,0 0,1 -3.1,0 z"
       id="path4123"
       style="opacity:0.6;fill:#b3b3b3;fill-opacity:1;stroke:none;display:inline"
       inkscape:connector-curvature="0"
       sodipodi:nodetypes="ccccc" />
    <path
       d="m 22.965761,1010.3622 2.176239,0 0,1 -2.176239,0 z"
       id="path4125"
       style="opacity:0.6;fill:#b3b3b3;fill-opacity:1;stroke:none;display:inline"
       inkscape:connector-curvature="0"
       sodipodi:nodetypes="ccccc" />
    <path
       d="m 26.059,1010.3622 2.108,0 0,1 -2.108,0 z"
       id="path4129"
       style="opacity:0.6;fill:#b3b3b3;fill-opacity:1;stroke:none;display:inline"
       inkscape:connector-curvature="0"
       sodipodi:nodetypes="ccccc" />
    <path
       d="m 29.041,1010.3622 1.008,0 0,1 -1.008,0 z"
       id="path4131"
       style="opacity:0.6;fill:#b3b3b3;fill-opacity:1;stroke:none;display:inline"
       inkscape:connector-curvature="0"
       sodipodi:nodetypes="ccccc" />
    <path
       d="m 19,1008.3622 4.16,0 0,1 -4.16,0 z"
       id="path4133"
       style="opacity:0.6;fill:#b3b3b3;fill-opacity:1;stroke:none;display:inline"
       inkscape:connector-curvature="0"
       sodipodi:nodetypes="ccccc" />
    <path
       d="m 24.021,1008.3622 4.092,0 0,1 -4.092,0 z"
       id="path4135"
       style="opacity:0.6;fill:#b3b3b3;fill-opacity:1;stroke:none;display:inline"
       inkscape:connector-curvature="0"
       sodipodi:nodetypes="ccccc" />
    <path
       d="m 29.049,1008.3622 1.951,0 0,1 -1.951,0 z"
       id="path4137"
       style="opacity:0.6;fill:#b3b3b3;fill-opacity:1;stroke:none;display:inline"
       inkscape:connector-curvature="0"
       sodipodi:nodetypes="ccccc" />
    <path
       d="m 19,1012.3605 4.185,0 0,1 -4.185,0 z"
       id="path4139"
       style="opacity:0.6;fill:#b3b3b3;fill-opacity:1;stroke:none;display:inline"
       inkscape:connector-curvature="0"
       sodipodi:nodetypes="ccccc" />
    <path
       d="m 24.021,1012.3605 3.992,0 0,1 -3.992,0 z"
       id="path4141"
       style="opacity:0.6;fill:#b3b3b3;fill-opacity:1;stroke:none;display:inline"
       inkscape:connector-curvature="0"
       sodipodi:nodetypes="ccccc" />
    <path
       d="m 28.949,1012.3605 2.033,0 0,1 -2.033,0 z"
       id="path4143"
       style="opacity:0.6;fill:#b3b3b3;fill-opacity:1;stroke:none;display:inline"
       inkscape:connector-curvature="0"
       sodipodi:nodetypes="ccccc" />
    <path
       inkscape:connector-curvature="0"
       style="opacity:0.6;fill:#b3b3b3;fill-opacity:1;stroke:none;display:inline"
       id="path3154-6"
       d="m 42.06678,1022.3622 3.08422,0 0,1 -3.08422,0 z"
       sodipodi:nodetypes="ccccc" />
    <path
       inkscape:connector-curvature="0"
       style="opacity:0.6;fill:#b3b3b3;fill-opacity:1;stroke:none;display:inline"
       id="path3154-6-6"
       d="m 39.937,1006.3622 5.10122,0 0,1 -5.10122,0 z"
       sodipodi:nodetypes="ccccc" />
    <path
       inkscape:connector-curvature="0"
       style="opacity:0.6;fill:#b3b3b3;fill-opacity:1;stroke:none;display:inline"
       id="path3176-4"
       d="m 40.012704,1024.3622 4.092,0 0,1 -4.092,0 z"
       sodipodi:nodetypes="ccccc" />
    <path
       inkscape:connector-curvature="0"
       style="opacity:0.6;fill:#b3b3b3;fill-opacity:1;stroke:none;display:inline"
       id="path35061-7"
       d="m 42.944,1026.3605 2.101071,0 0,1 -2.101071,0 z"
       sodipodi:nodetypes="ccccc" />
  </g>
</svg>
