<?xml version="1.0" encoding="UTF-8" standalone="no"?>
<svg
   version="1.1"
   width="64"
   height="64"
   id="svg3844"
   sodipodi:docname="text-x-fortran.svg"
   inkscape:version="1.1.2 (0a00cf5339, 2022-02-04)"
   xmlns:inkscape="http://www.inkscape.org/namespaces/inkscape"
   xmlns:sodipodi="http://sodipodi.sourceforge.net/DTD/sodipodi-0.dtd"
   xmlns:xlink="http://www.w3.org/1999/xlink"
   xmlns="http://www.w3.org/2000/svg"
   xmlns:svg="http://www.w3.org/2000/svg"
   xmlns:rdf="http://www.w3.org/1999/02/22-rdf-syntax-ns#"
   xmlns:cc="http://creativecommons.org/ns#">
  <sodipodi:namedview
     id="namedview40"
     pagecolor="#ffffff"
     bordercolor="#666666"
     borderopacity="1.0"
     inkscape:pageshadow="2"
     inkscape:pageopacity="0.0"
     inkscape:pagecheckerboard="0"
     showgrid="false"
     inkscape:zoom="11.313709"
     inkscape:cx="21.301592"
     inkscape:cy="41.896077"
     inkscape:window-width="1317"
     inkscape:window-height="893"
     inkscape:window-x="371"
     inkscape:window-y="135"
     inkscape:window-maximized="0"
     inkscape:current-layer="svg3844" />
  <defs
     id="defs3846">
    <linearGradient
       x1="-51.786404"
       y1="50.786446"
       x2="-51.786404"
       y2="2.9062471"
       id="linearGradient3033"
       xlink:href="#linearGradient3104-6"
       gradientUnits="userSpaceOnUse"
       gradientTransform="matrix(1.0843523,0,0,1.1997367,79.550862,-4.1628601)" />
    <linearGradient
       id="linearGradient3104-6">
      <stop
         id="stop3106-3"
         style="stop-color:#000000;stop-opacity:0.31782946"
         offset="0" />
      <stop
         id="stop3108-9"
         style="stop-color:#000000;stop-opacity:0.24031007"
         offset="1" />
    </linearGradient>
    <linearGradient
       x1="23.99999"
       y1="5.8641062"
       x2="23.99999"
       y2="42.175503"
       id="linearGradient3093"
       xlink:href="#linearGradient3977-4"
       gradientUnits="userSpaceOnUse"
       gradientTransform="matrix(1.2162162,0,0,1.5405376,2.8108184,-6.9729501)" />
    <linearGradient
       id="linearGradient3977-4">
      <stop
         id="stop3979-7"
         style="stop-color:#ffffff;stop-opacity:1"
         offset="0" />
      <stop
         id="stop3981-6"
         style="stop-color:#ffffff;stop-opacity:0.23529412"
         offset="0" />
      <stop
         id="stop3983-5"
         style="stop-color:#ffffff;stop-opacity:0.15686275"
         offset="1" />
      <stop
         id="stop3985-6"
         style="stop-color:#ffffff;stop-opacity:0.39215687"
         offset="1" />
    </linearGradient>
    <linearGradient
       x1="25.132275"
       y1="0.98520643"
       x2="25.132275"
       y2="47.013336"
       id="linearGradient3096"
       xlink:href="#linearGradient3600-9"
       gradientUnits="userSpaceOnUse"
       gradientTransform="matrix(1.3142827,0,0,1.2602393,0.4572141,-2.1793201)" />
    <linearGradient
       id="linearGradient3600-9">
      <stop
         id="stop3602-3"
         style="stop-color:#f4f4f4;stop-opacity:1"
         offset="0" />
      <stop
         id="stop3604-7"
         style="stop-color:#dbdbdb;stop-opacity:1"
         offset="1" />
    </linearGradient>
    <radialGradient
       cx="605.71429"
       cy="486.64789"
       r="117.14286"
       fx="605.71429"
       fy="486.64789"
       id="radialGradient3153"
       xlink:href="#linearGradient5060"
       gradientUnits="userSpaceOnUse"
       gradientTransform="matrix(0.03132633,0,0,0.02058823,35.220859,49.45142)" />
    <linearGradient
       id="linearGradient5060">
      <stop
         id="stop5062"
         style="stop-color:#000000;stop-opacity:1"
         offset="0" />
      <stop
         id="stop5064"
         style="stop-color:#000000;stop-opacity:0"
         offset="1" />
    </linearGradient>
    <radialGradient
       cx="605.71429"
       cy="486.64789"
       r="117.14286"
       fx="605.71429"
       fy="486.64789"
       id="radialGradient3156"
       xlink:href="#linearGradient5060"
       gradientUnits="userSpaceOnUse"
       gradientTransform="matrix(-0.03132632,0,0,0.02058823,28.779136,49.45142)" />
    <linearGradient
       id="linearGradient5048">
      <stop
         id="stop5050"
         style="stop-color:#000000;stop-opacity:0"
         offset="0" />
      <stop
         id="stop5056"
         style="stop-color:#000000;stop-opacity:1"
         offset="0.5" />
      <stop
         id="stop5052"
         style="stop-color:#000000;stop-opacity:0"
         offset="1" />
    </linearGradient>
    <linearGradient
       x1="302.85715"
       y1="366.64789"
       x2="302.85715"
       y2="609.50507"
       id="linearGradient3842"
       xlink:href="#linearGradient5048"
       gradientUnits="userSpaceOnUse"
       gradientTransform="matrix(0.09153846,0,0,0.02058823,-1.084616,49.45142)" />
    <mask
       id="holes">
      <rect
         x="-60"
         y="-60"
         width="120"
         height="120"
         fill="#ffffff"
         id="rect80" />
      <circle
         id="hole"
         cy="-40"
         r="3"
         cx="0" />
      <use
         xlink:href="#hole"
         transform="rotate(72)"
         id="use83"
         x="0"
         y="0"
         width="100%"
         height="100%" />
      <use
         xlink:href="#hole"
         transform="rotate(144)"
         id="use85"
         x="0"
         y="0"
         width="100%"
         height="100%" />
      <use
         xlink:href="#hole"
         transform="rotate(-144)"
         id="use87"
         x="0"
         y="0"
         width="100%"
         height="100%" />
      <use
         xlink:href="#hole"
         transform="rotate(-72)"
         id="use89"
         x="0"
         y="0"
         width="100%"
         height="100%" />
    </mask>
    <mask
       id="holes-6">
      <rect
         x="-60"
         y="-60"
         width="120"
         height="120"
         fill="#ffffff"
         id="rect23997" />
      <circle
         id="hole-7"
         cy="-40"
         r="3"
         cx="0" />
      <use
         xlink:href="#hole-7"
         transform="rotate(72)"
         id="use24000"
         x="0"
         y="0"
         width="100%"
         height="100%" />
      <use
         xlink:href="#hole-7"
         transform="rotate(144)"
         id="use24002"
         x="0"
         y="0"
         width="100%"
         height="100%" />
      <use
         xlink:href="#hole-7"
         transform="rotate(-144)"
         id="use24004"
         x="0"
         y="0"
         width="100%"
         height="100%" />
      <use
         xlink:href="#hole-7"
         transform="rotate(-72)"
         id="use24006"
         x="0"
         y="0"
         width="100%"
         height="100%" />
    </mask>
    <mask
       id="holes-5">
      <rect
         x="-60"
         y="-60"
         width="120"
         height="120"
         fill="#ffffff"
         id="rect23997-3" />
      <circle
         id="hole-5"
         cy="-40"
         r="3"
         cx="0" />
      <use
         xlink:href="#hole-5"
         transform="rotate(72)"
         id="use24000-6"
         x="0"
         y="0"
         width="100%"
         height="100%" />
      <use
         xlink:href="#hole-5"
         transform="rotate(144)"
         id="use24002-2"
         x="0"
         y="0"
         width="100%"
         height="100%" />
      <use
         xlink:href="#hole-5"
         transform="rotate(-144)"
         id="use24004-9"
         x="0"
         y="0"
         width="100%"
         height="100%" />
      <use
         xlink:href="#hole-5"
         transform="rotate(-72)"
         id="use24006-1"
         x="0"
         y="0"
         width="100%"
         height="100%" />
    </mask>
    <mask
       id="holes-2">
      <rect
         x="-60"
         y="-60"
         width="120"
         height="120"
         fill="#ffffff"
         id="rect23997-7" />
      <circle
         id="hole-0"
         cy="-40"
         r="3"
         cx="0" />
      <use
         xlink:href="#hole-0"
         transform="rotate(72)"
         id="use24000-9"
         x="0"
         y="0"
         width="100%"
         height="100%" />
      <use
         xlink:href="#hole-0"
         transform="rotate(144)"
         id="use24002-3"
         x="0"
         y="0"
         width="100%"
         height="100%" />
      <use
         xlink:href="#hole-0"
         transform="rotate(-144)"
         id="use24004-6"
         x="0"
         y="0"
         width="100%"
         height="100%" />
      <use
         xlink:href="#hole-0"
         transform="rotate(-72)"
         id="use24006-0"
         x="0"
         y="0"
         width="100%"
         height="100%" />
    </mask>
  </defs>
  <metadata
     id="metadata3849">
    <rdf:RDF>
      <cc:Work
         rdf:about="" />
    </rdf:RDF>
  </metadata>
  <rect
     style="display:inline;overflow:visible;visibility:visible;opacity:0.15;fill:url(#linearGradient3842);fill-opacity:1;fill-rule:nonzero;stroke:none;stroke-width:1;marker:none"
     id="rect2879"
     y="57.000004"
     x="9.8999996"
     height="5"
     width="44.199997" />
  <path
     style="display:inline;overflow:visible;visibility:visible;opacity:0.15;fill:url(#radialGradient3156);fill-opacity:1;fill-rule:nonzero;stroke:none;stroke-width:1;marker:none"
     id="path2881"
     d="m 9.9,57.00022 c 0,0 0,4.9997 0,4.9997 -1.6132281,0.01 -3.9,-1.1202 -3.9,-2.5002 0,-1.38 1.8002408,-2.4995 3.9,-2.4995 z" />
  <path
     style="display:inline;overflow:visible;visibility:visible;opacity:0.15;fill:url(#radialGradient3153);fill-opacity:1;fill-rule:nonzero;stroke:none;stroke-width:1;marker:none"
     id="path2883"
     d="m 54.099999,57.00022 c 0,0 0,4.9997 0,4.9997 C 55.713227,62.00992 58,60.87972 58,59.49972 c 0,-1.38 -1.800241,-2.4995 -3.900001,-2.4995 z" />
  <path
     style="display:inline;fill:url(#linearGradient3096);fill-opacity:1;stroke:none"
     id="path4160-6"
     d="m 9,0.9998799 c 10.540935,0 45.999945,0.004 45.999945,0.004 L 55,59.00002 c 0,0 -30.666666,0 -46,0 0,-19.3334 0,-38.6665 0,-57.9998201 z" />
  <path
     style="fill:none;stroke:url(#linearGradient3093);stroke-width:1;stroke-linecap:round;stroke-linejoin:miter;stroke-miterlimit:4;stroke-dasharray:none;stroke-dashoffset:0;stroke-opacity:1"
     id="rect6741-1-8"
     d="m 54.499999,58.50002 -44.9999992,0 0,-57.0000401 44.9999992,0 z" />
  <path
     style="display:inline;fill:none;stroke:url(#linearGradient3033);stroke-width:0.9999218;stroke-linecap:butt;stroke-linejoin:round;stroke-miterlimit:4;stroke-dasharray:none;stroke-dashoffset:0;stroke-opacity:1"
     id="path4160-6-1"
     d="m 8.4999684,0.4998999 c 10.7700936,0 47.0000286,0.004 47.0000286,0.004 l 4.9e-5,58.9962201 c 0,0 -31.333384,0 -47.0000776,0 0,-19.6668 0,-39.3334 0,-58.9999701 z" />
  <g
     id="layer101"
     style="fill:#7239b3;stroke:none;stroke-width:7.96987;fill-opacity:1"
     transform="matrix(0.01254695,0,0,0.01254754,16.001779,14.900862)">
    <path
       d="M 374,2558.203 C 223.231,2558.253 -0.142,2295.04 -0.142,2181.664 v -1802 C -0.142,227.08 263.836,7.893 377.76,7.901 l 1805.356,0.127 c 155.783,0.01 367.163,254.122 367.163,375.222 v 1803.768 c 0,177.696 -238.056,370.532 -372.282,370.577 z"
       id="path2"
       style="stroke-width:7.96987;fill:#7239b3;fill-opacity:1" />
  </g>
  <path
     d="m 22,40 h 0.919963 C 24.820051,40 24.890214,39.354519 25,37.641781 c 0,0 0.07315,-14.347106 0,-14.602194 C 24.87951,22.619417 24.521123,21.99966 23.17247,22 H 22 v -2 h 20 v 9 h -2 c 0,0 0.04391,-0.591636 0,-1.184508 C 39.747494,25.026803 38.849885,23.422296 37.642241,22.796488 37.005483,22.467115 36.011206,22.000966 32.826463,22 H 30 v 7 h 0.385397 c 0.889265,-0.01098 2.02006,-0.06944 2.393332,-0.3 0.483057,-0.296435 0.889266,-1.093109 1.031988,-2.125143 C 33.918306,25.821658 34,25.000369 34,25.000369 l 2,-7.38e-4 V 36 H 34 V 35.698483 C 34,34.776772 33.64628,33.494824 33.360594,33 32.932488,32.2585 32.383499,32.164687 30.637906,32 H 30 v 3.12757 c 0.01518,1.543318 0,2.574405 0,3.299784 0,0.636148 0.692799,1.440899 2.438393,1.572646 H 34 v 2.000001 H 22 Z"
     id="path5"
     style="fill:#ffffff;stroke:none;stroke-width:0.0999997"
     sodipodi:nodetypes="cccsccccccccccccccccccsccccsccccc" />
</svg>
