<?xml version="1.0" encoding="UTF-8" standalone="no"?>
<!-- Created with Inkscape (http://www.inkscape.org/) -->

<svg
   xmlns:dc="http://purl.org/dc/elements/1.1/"
   xmlns:cc="http://creativecommons.org/ns#"
   xmlns:rdf="http://www.w3.org/1999/02/22-rdf-syntax-ns#"
   xmlns:svg="http://www.w3.org/2000/svg"
   xmlns="http://www.w3.org/2000/svg"
   xmlns:xlink="http://www.w3.org/1999/xlink"
   xmlns:sodipodi="http://sodipodi.sourceforge.net/DTD/sodipodi-0.dtd"
   xmlns:inkscape="http://www.inkscape.org/namespaces/inkscape"
   width="64"
   height="64"
   id="svg4017"
   version="1.1"
   inkscape:version="0.48.3.1 r9886"
   sodipodi:docname="text-x-preview.svg">
  <defs
     id="defs4019">
    <radialGradient
       inkscape:collect="always"
       xlink:href="#linearGradient5060"
       id="radialGradient3153"
       gradientUnits="userSpaceOnUse"
       gradientTransform="matrix(0.03132633,0,0,0.02058823,35.220859,1037.8136)"
       cx="605.71429"
       cy="486.64789"
       fx="605.71429"
       fy="486.64789"
       r="117.14286" />
    <linearGradient
       id="linearGradient5060">
      <stop
         id="stop5062"
         style="stop-color:#000000;stop-opacity:1"
         offset="0" />
      <stop
         id="stop5064"
         style="stop-color:#000000;stop-opacity:0"
         offset="1" />
    </linearGradient>
    <radialGradient
       inkscape:collect="always"
       xlink:href="#linearGradient5060"
       id="radialGradient3156"
       gradientUnits="userSpaceOnUse"
       gradientTransform="matrix(-0.03132632,0,0,0.02058823,28.779136,1037.8136)"
       cx="605.71429"
       cy="486.64789"
       fx="605.71429"
       fy="486.64789"
       r="117.14286" />
    <linearGradient
       id="linearGradient5048">
      <stop
         id="stop5050"
         style="stop-color:#000000;stop-opacity:0"
         offset="0" />
      <stop
         id="stop5056"
         style="stop-color:#000000;stop-opacity:1"
         offset="0.5" />
      <stop
         id="stop5052"
         style="stop-color:#000000;stop-opacity:0"
         offset="1" />
    </linearGradient>
    <linearGradient
       y2="609.50507"
       x2="302.85715"
       y1="366.64789"
       x1="302.85715"
       gradientTransform="matrix(0.09153846,0,0,0.02058823,-1.084616,1037.8136)"
       gradientUnits="userSpaceOnUse"
       id="linearGradient4015"
       xlink:href="#linearGradient5048"
       inkscape:collect="always" />
    <linearGradient
       id="linearGradient3104">
      <stop
         offset="0"
         style="stop-color:#a0a0a0;stop-opacity:1;"
         id="stop3106" />
      <stop
         offset="1"
         style="stop-color:#bebebe;stop-opacity:1;"
         id="stop3108" />
    </linearGradient>
    <linearGradient
       id="linearGradient3600-9">
      <stop
         offset="0"
         style="stop-color:#f4f4f4;stop-opacity:1"
         id="stop3602-3" />
      <stop
         offset="1"
         style="stop-color:#dbdbdb;stop-opacity:1"
         id="stop3604-7" />
    </linearGradient>
    <linearGradient
       id="linearGradient3977-4">
      <stop
         id="stop3979-7"
         style="stop-color:#ffffff;stop-opacity:1;"
         offset="0" />
      <stop
         offset="0.03626217"
         style="stop-color:#ffffff;stop-opacity:0.23529412;"
         id="stop3981-6" />
      <stop
         id="stop3983-5"
         style="stop-color:#ffffff;stop-opacity:0.15686275;"
         offset="0.95056331" />
      <stop
         id="stop3985-6"
         style="stop-color:#ffffff;stop-opacity:0.39215687;"
         offset="1" />
    </linearGradient>
    <linearGradient
       inkscape:collect="always"
       xlink:href="#linearGradient3977-4"
       id="linearGradient3093"
       gradientUnits="userSpaceOnUse"
       gradientTransform="matrix(1.2162162,0,0,1.5405376,2.8108184,981.38923)"
       x1="23.99999"
       y1="5.5641499"
       x2="23.99999"
       y2="43" />
    <linearGradient
       inkscape:collect="always"
       xlink:href="#linearGradient3600-9"
       id="linearGradient3096"
       gradientUnits="userSpaceOnUse"
       gradientTransform="matrix(1.3428567,0,0,1.2819685,-0.22855506,985.62813)"
       x1="25.132275"
       y1="0.98520643"
       x2="25.132275"
       y2="47.013336" />
    <linearGradient
       inkscape:collect="always"
       xlink:href="#linearGradient3104"
       id="linearGradient3098"
       gradientUnits="userSpaceOnUse"
       gradientTransform="matrix(1.0843525,0,0,1.1997316,79.550873,984.1994)"
       x1="-51.786404"
       y1="50.786446"
       x2="-51.786404"
       y2="2.9062471" />
    <linearGradient
       id="linearGradient3735">
      <stop
         offset="0"
         style="stop-color:#c1c1c1;stop-opacity:1"
         id="stop3737" />
      <stop
         offset="1"
         style="stop-color:#cecece;stop-opacity:1"
         id="stop3739" />
    </linearGradient>
    <radialGradient
       inkscape:collect="always"
       xlink:href="#linearGradient8838"
       id="radialGradient3176"
       gradientUnits="userSpaceOnUse"
       gradientTransform="matrix(1.1294118,0,0,0.37647008,-47.729414,29.258824)"
       cx="62.625"
       cy="4.625"
       fx="62.625"
       fy="4.625"
       r="10.625" />
    <linearGradient
       id="linearGradient8838">
      <stop
         offset="0"
         style="stop-color:#000000;stop-opacity:1"
         id="stop8840" />
      <stop
         offset="1"
         style="stop-color:#000000;stop-opacity:0"
         id="stop8842" />
    </linearGradient>
    <radialGradient
       r="10.625"
       fy="4.625"
       fx="62.625"
       cy="4.625"
       cx="62.625"
       gradientTransform="matrix(1.1294118,0,0,0.37647008,-47.729414,30.258824)"
       gradientUnits="userSpaceOnUse"
       id="radialGradient3099"
       xlink:href="#linearGradient8838"
       inkscape:collect="always" />
    <linearGradient
       id="linearGradient3159">
      <stop
         offset="0"
         style="stop-color:#5f5f5f;stop-opacity:1"
         id="stop3161" />
      <stop
         offset="1"
         style="stop-color:#c6c6c6;stop-opacity:1"
         id="stop3163" />
    </linearGradient>
    <linearGradient
       y2="27.548901"
       x2="39.781116"
       y1="24.867638"
       x1="34.462547"
       gradientTransform="translate(-1.0000024,-1.9999994)"
       gradientUnits="userSpaceOnUse"
       id="linearGradient3089"
       xlink:href="#linearGradient3584"
       inkscape:collect="always" />
    <linearGradient
       id="linearGradient4088">
      <stop
         offset="0"
         style="stop-color:#7f7f7f;stop-opacity:1"
         id="stop4090" />
      <stop
         offset="1"
         style="stop-color:#eaeae8;stop-opacity:0"
         id="stop4092" />
    </linearGradient>
    <linearGradient
       y2="23.94458"
       x2="38.154778"
       y1="22.977568"
       x1="34.876202"
       gradientTransform="translate(-1.0000024,-1.9999994)"
       gradientUnits="userSpaceOnUse"
       id="linearGradient3087"
       xlink:href="#linearGradient4088"
       inkscape:collect="always" />
    <linearGradient
       id="linearGradient3584">
      <stop
         offset="0"
         style="stop-color:#5f5f5f;stop-opacity:1"
         id="stop3586" />
      <stop
         offset="1"
         style="stop-color:#c6c6c6;stop-opacity:1"
         id="stop3588" />
    </linearGradient>
    <linearGradient
       y2="2.3599293"
       x2="53.302517"
       y1="55.03125"
       x1="117.30334"
       gradientTransform="matrix(0.333329,0,0,0.3378597,-5.4339407,14.066322)"
       gradientUnits="userSpaceOnUse"
       id="linearGradient3084"
       xlink:href="#linearGradient3584"
       inkscape:collect="always" />
    <linearGradient
       id="linearGradient3489">
      <stop
         offset="0"
         style="stop-color:#eeeeec;stop-opacity:1"
         id="stop3491" />
      <stop
         offset="0.5"
         style="stop-color:#cacac9;stop-opacity:1"
         id="stop3497" />
      <stop
         offset="1"
         style="stop-color:#6b6b6b;stop-opacity:1"
         id="stop3493" />
    </linearGradient>
    <radialGradient
       r="32.000408"
       fy="29.206287"
       fx="-6.453712"
       cy="29.206287"
       cx="-6.453712"
       gradientTransform="matrix(0,0.4761889,-0.4940015,0,32.286364,25.954876)"
       gradientUnits="userSpaceOnUse"
       id="radialGradient3082"
       xlink:href="#linearGradient3489"
       inkscape:collect="always" />
    <linearGradient
       id="linearGradient3526">
      <stop
         offset="0"
         style="stop-color:#d1d1d1;stop-opacity:1"
         id="stop3528" />
      <stop
         offset="1"
         style="stop-color:#959594;stop-opacity:1"
         id="stop3530" />
    </linearGradient>
    <linearGradient
       gradientTransform="matrix(0.3062941,0,0,0.1699856,21.21814,15.868031)"
       y2="16.365782"
       x2="35.032936"
       y1="16.365782"
       x1="5.6835618"
       spreadMethod="reflect"
       gradientUnits="userSpaceOnUse"
       id="linearGradient3079"
       xlink:href="#linearGradient3526"
       inkscape:collect="always" />
    <linearGradient
       id="linearGradient3738">
      <stop
         offset="0"
         style="stop-color:#8b6a35;stop-opacity:1"
         id="stop3740" />
      <stop
         offset="0.60331488"
         style="stop-color:#754d0d;stop-opacity:1"
         id="stop3742" />
      <stop
         offset="1"
         style="stop-color:#483816;stop-opacity:1"
         id="stop3744" />
    </linearGradient>
    <radialGradient
       r="26.40625"
       fy="32.535023"
       fx="8.4375"
       cy="32.535023"
       cx="8.4375"
       gradientTransform="matrix(0.3779082,0,0,0.1182073,19.790537,16.657874)"
       gradientUnits="userSpaceOnUse"
       id="radialGradient3076"
       xlink:href="#linearGradient3738"
       inkscape:collect="always" />
    <linearGradient
       id="linearGradient3595">
      <stop
         offset="0"
         style="stop-color:#ffffff;stop-opacity:1"
         id="stop3597" />
      <stop
         offset="1"
         style="stop-color:#ffffff;stop-opacity:0"
         id="stop3599" />
    </linearGradient>
    <linearGradient
       y2="41.729839"
       x2="87.050232"
       y1="53.75"
       x1="87.050232"
       gradientTransform="matrix(0.3333289,0,0,0.3378597,-5.4339327,13.704061)"
       gradientUnits="userSpaceOnUse"
       id="linearGradient3073"
       xlink:href="#linearGradient3595"
       inkscape:collect="always" />
    <linearGradient
       id="linearGradient3666">
      <stop
         offset="0"
         style="stop-color:#ffffff;stop-opacity:1"
         id="stop3668" />
      <stop
         offset="1"
         style="stop-color:#ffffff;stop-opacity:0"
         id="stop3670" />
    </linearGradient>
    <linearGradient
       gradientTransform="matrix(0.3244846,0,0,0.2091035,21.13367,15.24799)"
       y2="31.826666"
       x2="-1.937054"
       y1="-0.72359675"
       x1="-1.937054"
       gradientUnits="userSpaceOnUse"
       id="linearGradient3070"
       xlink:href="#linearGradient3666"
       inkscape:collect="always" />
    <linearGradient
       id="linearGradient5048-4">
      <stop
         offset="0"
         style="stop-color:#000000;stop-opacity:0"
         id="stop5050-4" />
      <stop
         offset="0.5"
         style="stop-color:#000000;stop-opacity:1"
         id="stop5056-9" />
      <stop
         offset="1"
         style="stop-color:#000000;stop-opacity:0"
         id="stop5052-6" />
    </linearGradient>
    <linearGradient
       id="linearGradient5060-6">
      <stop
         offset="0"
         style="stop-color:#000000;stop-opacity:1"
         id="stop5062-8" />
      <stop
         offset="1"
         style="stop-color:#000000;stop-opacity:0"
         id="stop5064-1" />
    </linearGradient>
    <linearGradient
       id="linearGradient3104-3">
      <stop
         offset="0"
         style="stop-color:#a0a0a0;stop-opacity:1;"
         id="stop3106-0" />
      <stop
         offset="1"
         style="stop-color:#bebebe;stop-opacity:1;"
         id="stop3108-2" />
    </linearGradient>
    <linearGradient
       id="linearGradient3600">
      <stop
         offset="0"
         style="stop-color:#f4f4f4;stop-opacity:1"
         id="stop3602" />
      <stop
         offset="1"
         style="stop-color:#dbdbdb;stop-opacity:1"
         id="stop3604" />
    </linearGradient>
    <linearGradient
       id="linearGradient3977">
      <stop
         id="stop3979"
         style="stop-color:#ffffff;stop-opacity:1;"
         offset="0" />
      <stop
         offset="0.03626217"
         style="stop-color:#ffffff;stop-opacity:0.23529412;"
         id="stop3981" />
      <stop
         id="stop3983"
         style="stop-color:#ffffff;stop-opacity:0.15686275;"
         offset="0.95056331" />
      <stop
         id="stop3985"
         style="stop-color:#ffffff;stop-opacity:0.39215687;"
         offset="1" />
    </linearGradient>
    <linearGradient
       inkscape:collect="always"
       xlink:href="#linearGradient3735"
       id="linearGradient3275"
       gradientUnits="userSpaceOnUse"
       gradientTransform="matrix(1.3684211,0,0,1,-0.84211034,985.8622)"
       x1="24.949999"
       y1="13.5"
       x2="24.949999"
       y2="17.5" />
    <linearGradient
       inkscape:collect="always"
       xlink:href="#linearGradient3977"
       id="linearGradient3321"
       gradientUnits="userSpaceOnUse"
       gradientTransform="matrix(0.89189189,0,0,1.1351351,-95.152101,951.19416)"
       x1="23.99999"
       y1="5.5641499"
       x2="23.99999"
       y2="43" />
    <linearGradient
       inkscape:collect="always"
       xlink:href="#linearGradient3600"
       id="linearGradient3325"
       gradientUnits="userSpaceOnUse"
       gradientTransform="matrix(1,0,0,0.9561695,-97.746701,954.02247)"
       x1="25.132275"
       y1="0.98520643"
       x2="25.132275"
       y2="47.013336" />
    <linearGradient
       inkscape:collect="always"
       xlink:href="#linearGradient3104-3"
       id="linearGradient3327"
       gradientUnits="userSpaceOnUse"
       gradientTransform="matrix(0.8074968,0,0,0.8948322,-38.336469,952.95684)"
       x1="-51.786404"
       y1="50.786446"
       x2="-51.786404"
       y2="2.9062471" />
    <radialGradient
       inkscape:collect="always"
       xlink:href="#linearGradient5060-6"
       id="radialGradient3331"
       gradientUnits="userSpaceOnUse"
       gradientTransform="matrix(0.02303995,0,0,0.01470022,-71.385819,992.97757)"
       cx="605.71429"
       cy="486.64789"
       fx="605.71429"
       fy="486.64789"
       r="117.14286" />
    <radialGradient
       inkscape:collect="always"
       xlink:href="#linearGradient5060-6"
       id="radialGradient3334"
       gradientUnits="userSpaceOnUse"
       gradientTransform="matrix(-0.02303994,0,0,0.01470022,-76.123591,992.97757)"
       cx="605.71429"
       cy="486.64789"
       fx="605.71429"
       fy="486.64789"
       r="117.14286" />
    <linearGradient
       inkscape:collect="always"
       xlink:href="#linearGradient5048-4"
       id="linearGradient3337"
       gradientUnits="userSpaceOnUse"
       gradientTransform="matrix(0.06732488,0,0,0.01470022,-98.08784,992.97754)"
       x1="302.85715"
       y1="366.64789"
       x2="302.85715"
       y2="609.50507" />
  </defs>
  <sodipodi:namedview
     id="base"
     pagecolor="#ffffff"
     bordercolor="#666666"
     borderopacity="1.0"
     inkscape:pageopacity="0.0"
     inkscape:pageshadow="2"
     inkscape:zoom="12.175495"
     inkscape:cx="33.023723"
     inkscape:cy="40.730189"
     inkscape:document-units="pt"
     inkscape:current-layer="layer1"
     showgrid="true"
     inkscape:window-width="1680"
     inkscape:window-height="1026"
     inkscape:window-x="0"
     inkscape:window-y="0"
     inkscape:window-maximized="1"
     units="px">
    <inkscape:grid
       type="xygrid"
       id="grid3339"
       empspacing="5"
       visible="true"
       enabled="true"
       snapvisiblegridlinesonly="true" />
  </sodipodi:namedview>
  <metadata
     id="metadata4022">
    <rdf:RDF>
      <cc:Work
         rdf:about="">
        <dc:format>image/svg+xml</dc:format>
        <dc:type
           rdf:resource="http://purl.org/dc/dcmitype/StillImage" />
        <dc:title></dc:title>
      </cc:Work>
    </rdf:RDF>
  </metadata>
  <g
     inkscape:label="Layer 1"
     inkscape:groupmode="layer"
     id="layer1"
     transform="translate(0,-988.3622)">
    <rect
       style="opacity:0.3;fill:url(#linearGradient4015);fill-opacity:1;fill-rule:nonzero;stroke:none;stroke-width:1;marker:none;visibility:visible;display:inline;overflow:visible"
       id="rect2879"
       y="1045.3622"
       x="9.8999996"
       height="5"
       width="44.199997" />
    <path
       inkscape:connector-curvature="0"
       style="opacity:0.3;fill:url(#radialGradient3156);fill-opacity:1;fill-rule:nonzero;stroke:none;stroke-width:1;marker:none;visibility:visible;display:inline;overflow:visible"
       id="path2881"
       d="m 9.9,1045.3624 c 0,0 0,4.9997 0,4.9997 -1.6132281,0.01 -3.9,-1.1202 -3.9,-2.5002 0,-1.38 1.8002408,-2.4995 3.9,-2.4995 z" />
    <path
       inkscape:connector-curvature="0"
       style="opacity:0.3;fill:url(#radialGradient3153);fill-opacity:1;fill-rule:nonzero;stroke:none;stroke-width:1;marker:none;visibility:visible;display:inline;overflow:visible"
       id="path2883"
       d="m 54.099999,1045.3624 c 0,0 0,4.9997 0,4.9997 1.613228,0.01 3.900001,-1.1202 3.900001,-2.5002 0,-1.38 -1.800241,-2.4995 -3.900001,-2.4995 z" />
    <path
       inkscape:connector-curvature="0"
       style="fill:url(#linearGradient3096);fill-opacity:1;stroke:url(#linearGradient3098);stroke-width:0.99992186;stroke-linecap:butt;stroke-linejoin:round;stroke-miterlimit:4;stroke-opacity:1;stroke-dasharray:none;stroke-dashoffset:0;display:inline"
       id="path4160-6"
       d="m 8.4999609,988.86214 c 10.7701071,0 47.0000371,0.004 47.0000371,0.004 l 5.6e-5,58.99606 c 0,0 -31.333395,0 -47.0000931,0 0,-19.6667 0,-39.3332 0,-58.99981 z"
       sodipodi:nodetypes="ccccc" />
    <path
       style="fill:none;stroke:url(#linearGradient3093);stroke-width:1;stroke-linecap:round;stroke-linejoin:miter;stroke-miterlimit:4;stroke-opacity:1;stroke-dasharray:none;stroke-dashoffset:0"
       d="m 54.499999,1046.8622 -44.9999992,0 0,-57.00004 44.9999992,0 z"
       id="rect6741-1-8"
       inkscape:connector-curvature="0"
       sodipodi:nodetypes="ccccc" />
    <rect
       style="opacity:0.3;fill:url(#linearGradient3337);fill-opacity:1;fill-rule:nonzero;stroke:none;stroke-width:1;marker:none;visibility:visible;display:inline;overflow:visible"
       id="rect2879-2"
       y="998.36731"
       x="-90.00885"
       height="3.5700529"
       width="32.508301" />
    <path
       inkscape:connector-curvature="0"
       style="opacity:0.3;fill:url(#radialGradient3334);fill-opacity:1;fill-rule:nonzero;stroke:none;stroke-width:1;marker:none;visibility:visible;display:inline;overflow:visible"
       id="path2881-3"
       d="m -90.008853,998.36749 c 0,0 0,3.56981 0,3.56981 -1.186501,0.01 -2.86838,-0.7998 -2.86838,-1.7851 0,-0.98534 1.324045,-1.78471 2.86838,-1.78471 z" />
    <path
       inkscape:connector-curvature="0"
       style="opacity:0.3;fill:url(#radialGradient3331);fill-opacity:1;fill-rule:nonzero;stroke:none;stroke-width:1;marker:none;visibility:visible;display:inline;overflow:visible"
       id="path2883-9"
       d="m -57.500553,998.36749 c 0,0 0,3.56981 0,3.56981 1.1865,0.01 2.86838,-0.7998 2.86838,-1.7851 0,-0.98534 -1.324045,-1.78471 -2.86838,-1.78471 z" />
    <path
       inkscape:connector-curvature="0"
       style="fill:url(#linearGradient3325);fill-opacity:1;stroke:url(#linearGradient3327);stroke-width:0.99992186;stroke-linecap:butt;stroke-linejoin:round;stroke-miterlimit:4;stroke-opacity:1;stroke-dasharray:none;stroke-dashoffset:0;display:inline"
       id="path4160"
       d="m -91.24674,956.43459 c 8.020295,0 35.000039,0.003 35.000039,0.003 l 4.2e-5,44.00281 c 0,0 -23.333387,0 -35.000081,0 0,-14.66854 0,-29.33708 0,-44.00561 z"
       sodipodi:nodetypes="ccccc" />
    <path
       style="fill:none;stroke:url(#linearGradient3321);stroke-width:1;stroke-linecap:round;stroke-linejoin:round;stroke-miterlimit:4;stroke-opacity:1;stroke-dasharray:none;stroke-dashoffset:0"
       d="m -57.246701,999.43739 -33,0 0,-42 33,0 z"
       id="rect6741-1"
       inkscape:connector-curvature="0"
       sodipodi:nodetypes="ccccc" />
    <path
       inkscape:connector-curvature="0"
       style="opacity:0.6;fill:#b3b3b3;fill-opacity:1;stroke:none;display:inline"
       id="path3406"
       d="m 19,1006.3622 2.34584,0 0,1 -2.34584,0 0,-1 z" />
    <path
       inkscape:connector-curvature="0"
       style="opacity:0.6;fill:#b3b3b3;fill-opacity:1;stroke:none;display:inline"
       id="path3404"
       d="m 21.66538,1006.3622 2.2134,0 0,1 -2.2134,0 0,-1 z" />
    <path
       inkscape:connector-curvature="0"
       style="opacity:0.6;fill:#b3b3b3;fill-opacity:1;stroke:none;display:inline"
       id="path3402"
       d="m 24.19832,1006.3622 1.94852,0 0,1 -1.94852,0 0,-1 z" />
    <path
       inkscape:connector-curvature="0"
       style="opacity:0.6;fill:#b3b3b3;fill-opacity:1;stroke:none;display:inline"
       id="path3397"
       d="m 27.6418,1006.3622 1.9154,0 0,1 -1.9154,0 0,-1 z" />
    <path
       inkscape:connector-curvature="0"
       style="opacity:0.6;fill:#b3b3b3;fill-opacity:1;stroke:none;display:inline"
       id="path3395"
       d="m 29.87675,1006.3622 4.96155,0 0,1 -4.96155,0 0,-1 z" />
    <path
       inkscape:connector-curvature="0"
       style="opacity:0.6;fill:#b3b3b3;fill-opacity:1;stroke:none;display:inline"
       id="path3392"
       d="m 35.15784,1006.3622 3.76958,0 0,1 -3.76958,0 0,-1 z" />
    <path
       inkscape:connector-curvature="0"
       style="opacity:0.6;fill:#b3b3b3;fill-opacity:1;stroke:none;display:inline"
       id="path3385"
       d="m 19,1018.3622 3.691817,0 0,1 -3.691817,0 0,-1 z" />
    <path
       inkscape:connector-curvature="0"
       style="opacity:0.6;fill:#b3b3b3;fill-opacity:1;stroke:none;display:inline"
       id="path3383"
       d="m 22.965761,1018.3622 1.776154,0 0,1 -1.776154,0 0,-1 z" />
    <path
       inkscape:connector-curvature="0"
       style="opacity:0.6;fill:#b3b3b3;fill-opacity:1;stroke:none;display:inline"
       id="path3381"
       d="m 25.116681,1018.3622 0.835125,0 0,1 -0.835125,0 0,-1 z" />
    <path
       inkscape:connector-curvature="0"
       style="opacity:0.6;fill:#b3b3b3;fill-opacity:1;stroke:none;display:inline"
       id="path3379"
       d="m 26.158533,1018.3622 1.608114,0 0,1 -1.608114,0 0,-1 z" />
    <path
       inkscape:connector-curvature="0"
       style="opacity:0.6;fill:#b3b3b3;fill-opacity:1;stroke:none;display:inline"
       id="path3373"
       d="m 28.040581,1018.3622 1.608115,0 0,1 -1.608115,0 0,-1 z" />
    <path
       inkscape:connector-curvature="0"
       style="opacity:0.6;fill:#b3b3b3;fill-opacity:1;stroke:none;display:inline"
       id="path3363"
       d="m 19,1014.3622 3.928045,0 0,1 -3.928045,0 0,-1 z" />
    <path
       inkscape:connector-curvature="0"
       style="opacity:0.6;fill:#b3b3b3;fill-opacity:1;stroke:none;display:inline"
       id="path3361"
       d="m 23.235965,1014.3622 4.208949,0 0,1 -4.208949,0 0,-1 z" />
    <path
       inkscape:connector-curvature="0"
       style="opacity:0.6;fill:#b3b3b3;fill-opacity:1;stroke:none;display:inline"
       id="path3359"
       d="m 27.752834,1014.3622 1.680758,0 0,1 -1.680758,0 0,-1 z" />
    <path
       inkscape:connector-curvature="0"
       style="opacity:0.6;fill:#b3b3b3;fill-opacity:1;stroke:none;display:inline"
       id="path3347"
       d="m 19,1016.3622 4.28514,0 0,1 -4.28514,0 0,-1 z" />
    <path
       inkscape:connector-curvature="0"
       style="opacity:0.6;fill:#b3b3b3;fill-opacity:1;stroke:none;display:inline"
       id="path3345"
       d="m 23.621053,1016.3622 4.59158,0 0,1 -4.59158,0 0,-1 z" />
    <path
       inkscape:connector-curvature="0"
       style="opacity:0.6;fill:#b3b3b3;fill-opacity:1;stroke:none;display:inline"
       id="path3343"
       d="m 28.548546,1016.3622 1.833555,0 0,1 -1.833555,0 0,-1 z" />
    <path
       inkscape:connector-curvature="0"
       style="opacity:0.6;fill:#b3b3b3;fill-opacity:1;stroke:none;display:inline"
       id="path3176"
       d="m 19,1024.3622 3.691817,0 0,1 -3.691817,0 0,-1 z" />
    <path
       inkscape:connector-curvature="0"
       style="opacity:0.6;fill:#b3b3b3;fill-opacity:1;stroke:none;display:inline"
       id="path3174"
       d="m 22.965761,1024.3622 1.776154,0 0,1 -1.776154,0 0,-1 z" />
    <path
       inkscape:connector-curvature="0"
       style="opacity:0.6;fill:#b3b3b3;fill-opacity:1;stroke:none;display:inline"
       id="path3172"
       d="m 25.116681,1024.3622 0.835125,0 0,1 -0.835125,0 0,-1 z" />
    <path
       inkscape:connector-curvature="0"
       style="opacity:0.6;fill:#b3b3b3;fill-opacity:1;stroke:none;display:inline"
       id="path3170"
       d="m 26.158533,1024.3622 1.608114,0 0,1 -1.608114,0 0,-1 z" />
    <path
       inkscape:connector-curvature="0"
       style="opacity:0.6;fill:#b3b3b3;fill-opacity:1;stroke:none;display:inline"
       id="path3168"
       d="m 28.040581,1024.3622 1.608115,0 0,1 -1.608115,0 0,-1 z" />
    <path
       inkscape:connector-curvature="0"
       style="opacity:0.6;fill:#b3b3b3;fill-opacity:1;stroke:none;display:inline"
       id="path3166"
       d="m 30.157898,1024.3622 2.582748,0 0,1 -2.582748,0 0,-1 z" />
    <path
       inkscape:connector-curvature="0"
       style="opacity:0.6;fill:#b3b3b3;fill-opacity:1;stroke:none;display:inline"
       id="path3164"
       d="m 33.048194,1024.3622 3.389342,0 0,1 -3.389342,0 0,-1 z" />
    <path
       inkscape:connector-curvature="0"
       style="opacity:0.6;fill:#b3b3b3;fill-opacity:1;stroke:none;display:inline"
       id="path3162"
       d="m 36.913123,1024.3622 2.280283,0 0,1 -2.280283,0 0,-1 z" />
    <path
       inkscape:connector-curvature="0"
       style="opacity:0.6;fill:#b3b3b3;fill-opacity:1;stroke:none;display:inline"
       id="path3158"
       d="m 19,1022.3622 3.061572,0 0,1 -3.061572,0 0,-1 z" />
    <path
       inkscape:connector-curvature="0"
       style="opacity:0.6;fill:#b3b3b3;fill-opacity:1;stroke:none;display:inline"
       id="path3156"
       d="m 22.38681,1022.3622 5.083544,0 0,1 -5.083544,0 0,-1 z" />
    <path
       inkscape:connector-curvature="0"
       style="opacity:0.6;fill:#b3b3b3;fill-opacity:1;stroke:none;display:inline"
       id="path3154"
       d="m 27.795592,1022.3622 2.454976,0 0,1 -2.454976,0 0,-1 z" />
    <path
       inkscape:connector-curvature="0"
       style="opacity:0.6;fill:#b3b3b3;fill-opacity:1;stroke:none;display:inline"
       id="path3152"
       d="m 33.187522,1022.3622 1.949485,0 0,1 -1.949485,0 0,-1 z" />
    <path
       inkscape:connector-curvature="0"
       style="opacity:0.6;fill:#b3b3b3;fill-opacity:1;stroke:none;display:inline"
       id="path3150"
       d="m 35.462245,1022.3622 3.128973,0 0,1 -3.128973,0 0,-1 z" />
    <path
       inkscape:connector-curvature="0"
       style="opacity:0.6;fill:#b3b3b3;fill-opacity:1;stroke:none;display:inline"
       id="path3146"
       d="m 30.575806,1022.3622 2.286488,0 0,1 -2.286488,0 0,-1 z" />
    <path
       inkscape:connector-curvature="0"
       style="opacity:0.6;fill:#b3b3b3;fill-opacity:1;stroke:none;display:inline"
       id="path35069"
       d="m 19,1026.3605 3.868703,0 0,1 -3.868703,0 0,-1 z" />
    <path
       inkscape:connector-curvature="0"
       style="opacity:0.6;fill:#b3b3b3;fill-opacity:1;stroke:none;display:inline"
       id="path35067"
       d="m 23.188155,1026.3605 1.218185,0 0,1 -1.218185,0 0,-1 0,0 z" />
    <path
       inkscape:connector-curvature="0"
       style="opacity:0.6;fill:#b3b3b3;fill-opacity:1;stroke:none;display:inline"
       id="path35065"
       d="m 24.725792,1026.3605 2.781317,0 0,1 -2.781317,0 0,-1 z" />
    <path
       inkscape:connector-curvature="0"
       style="opacity:0.6;fill:#b3b3b3;fill-opacity:1;stroke:none;display:inline"
       id="path35063"
       d="m 27.826561,1026.3605 1.89781,0 0,1 -1.89781,0 0,-1 z" />
    <path
       inkscape:connector-curvature="0"
       style="opacity:0.6;fill:#b3b3b3;fill-opacity:1;stroke:none;display:inline"
       id="path35061"
       d="m 30.043823,1026.3605 1.8978,0 0,1 -1.8978,0 0,-1 z" />
    <path
       inkscape:connector-curvature="0"
       style="opacity:0.6;fill:#b3b3b3;fill-opacity:1;stroke:none;display:inline"
       id="path35059"
       d="m 32.261086,1026.3605 2.747329,0 0,1 -2.747329,0 0,-1 z" />
    <path
       inkscape:connector-curvature="0"
       style="opacity:0.6;fill:#b3b3b3;fill-opacity:1;stroke:none;display:inline"
       id="path35057"
       d="m 35.327857,1026.3605 0.572556,0 0,1 -0.572556,0 0,-1 z" />
    <path
       inkscape:connector-curvature="0"
       style="opacity:0.6;fill:#b3b3b3;fill-opacity:1;stroke:none;display:inline"
       id="path35055"
       d="m 36.219865,1026.3605 3,0 0,1 -3,0 0,-1 z" />
    <rect
       style="fill:url(#linearGradient3275);fill-opacity:1;stroke:none"
       id="rect2963"
       y="999.36218"
       x="19"
       ry="0.91034484"
       rx="1.1834483"
       height="4"
       width="26" />
    <path
       inkscape:connector-curvature="0"
       style="opacity:0.6;fill:#797979;fill-opacity:1;stroke:none;display:inline"
       id="path3743"
       d="m 22,1001.3622 2.345838,0 0,1 -2.345838,0 0,-1 z" />
    <path
       inkscape:connector-curvature="0"
       style="opacity:0.6;fill:#797979;fill-opacity:1;stroke:none;display:inline"
       id="path3747"
       d="m 26,1001.3622 1.948514,0 0,1 -1.948514,0 0,-1 z" />
    <path
       inkscape:connector-curvature="0"
       style="opacity:0.6;fill:#797979;fill-opacity:1;stroke:none;display:inline"
       id="path3751"
       d="m 30,1001.3622 1.915398,0 0,1 -1.915398,0 0,-1 z" />
    <rect
       style="fill:none;stroke:#c1c1c1;stroke-width:0.99999994;stroke-linecap:butt;stroke-miterlimit:4;stroke-opacity:1;stroke-dasharray:none"
       id="rect3757"
       y="1011.3622"
       x="35"
       ry="0"
       rx="0"
       height="8"
       width="10" />
    <path
       inkscape:connector-curvature="0"
       style="opacity:0.6;fill:#b3b3b3;fill-opacity:1;stroke:none;display:inline"
       id="path3759"
       d="m 19,1020.3605 4.28514,0 0,1 -4.28514,0 0,-1 z" />
    <path
       inkscape:connector-curvature="0"
       style="opacity:0.6;fill:#b3b3b3;fill-opacity:1;stroke:none;display:inline"
       id="path3761"
       d="m 23.621053,1020.3605 4.59158,0 0,1 -4.59158,0 0,-1 z" />
    <path
       inkscape:connector-curvature="0"
       style="opacity:0.6;fill:#b3b3b3;fill-opacity:1;stroke:none;display:inline"
       id="path3763"
       d="m 28.548546,1020.3605 1.833555,0 0,1 -1.833555,0 0,-1 z" />
    <path
       inkscape:connector-curvature="0"
       style="font-size:11.69507122px;font-style:normal;font-weight:normal;line-height:125%;fill:#808080;fill-opacity:1;stroke:none;display:inline;font-family:Bitstream Vera Sans"
       id="text2019"
       d="m 28.448817,1038.1179 c 0,0.4632 0,0.9263 0,1.3895 -0.714572,-0.511 -1.853531,-0.7151 -2.536411,-0.048 -0.519729,0.5958 -0.524641,1.5722 -0.09257,2.2172 0.589248,0.7371 1.74661,0.6206 2.473124,0.1622 0.27775,-0.2719 0.11059,0.3083 0.15586,0.4833 0,0.2672 0,0.5344 0,0.8015 -1.217438,0.427 -2.721962,0.4679 -3.788479,-0.3532 -0.998529,-0.8109 -1.13506,-2.3188 -0.660442,-3.4491 0.491881,-1.1109 1.779003,-1.5537 2.91638,-1.4977 0.522091,0.013 1.041921,0.1157 1.532541,0.2939 l 0,0 z m 5.64386,0 c 0,0.4314 0,0.8629 0,1.2943 -0.83726,-0.3328 -1.78343,-0.6092 -2.67768,-0.3621 -0.74172,0.3898 0.09789,0.9963 0.62553,0.8909 0.72857,0.1207 1.57994,0.1553 2.11061,0.7333 0.52682,0.7429 0.3831,2.0003 -0.49641,2.4169 -1.12567,0.5106 -2.41882,0.3467 -3.5906,0.091 -0.41497,0.034 -0.39154,-0.2778 -0.36852,-0.5839 0,-0.2688 0,-0.5375 0,-0.8062 0.86282,0.3974 1.88126,0.6525 2.81687,0.3892 0.78661,-0.4178 -0.07035,-1.0915 -0.65074,-0.9687 -0.73627,-0.1055 -1.65699,-0.1844 -2.06858,-0.8984 -0.39039,-0.7807 -0.1705,-1.95 0.73106,-2.2607 1.14563,-0.4107 2.41438,-0.2109 3.56846,0.065 l 0,0 z m 5.80566,0 c 0,0.4314 0,0.8629 0,1.2943 -0.83727,-0.3328 -1.78343,-0.6092 -2.67769,-0.3621 -0.74171,0.3898 0.0979,0.9963 0.62554,0.8909 0.72857,0.1207 1.57994,0.1553 2.11061,0.7333 0.52681,0.7429 0.3831,2.0003 -0.49642,2.4169 -1.12566,0.5106 -2.41882,0.3467 -3.59059,0.091 -0.41497,0.034 -0.39154,-0.2778 -0.36853,-0.5839 0,-0.2688 0,-0.5375 0,-0.8062 0.86283,0.3974 1.88126,0.6525 2.81688,0.3892 0.7866,-0.4178 -0.07035,-1.0915 -0.65074,-0.9687 -0.73628,-0.1055 -1.65699,-0.1844 -2.06858,-0.8984 -0.39039,-0.7807 -0.1705,-1.95 0.73106,-2.2607 1.14563,-0.4107 2.41437,-0.2109 3.56846,0.065 l 0,0 z" />
    <path
       inkscape:connector-curvature="0"
       style="fill:none;stroke:#b3b3b3;stroke-width:0.99999994px;stroke-linecap:butt;stroke-linejoin:miter;stroke-opacity:1"
       id="path2505"
       d="m 48.5,996.36223 0,38.99997" />
    <path
       inkscape:connector-curvature="0"
       style="fill:none;stroke:#b3b3b3;stroke-width:0.99999994px;stroke-linecap:butt;stroke-linejoin:miter;stroke-opacity:1"
       id="path2509"
       d="m 13,996.8622 35,0" />
    <path
       inkscape:connector-curvature="0"
       style="fill:none;stroke:#b3b3b3;stroke-width:0.99999994px;stroke-linecap:butt;stroke-linejoin:miter;stroke-opacity:1"
       id="path2513"
       d="m 13,1030.8622 38,0" />
    <path
       style="fill:none;stroke:#b3b3b3;stroke-width:0.99999994;stroke-linecap:butt;stroke-linejoin:miter;stroke-miterlimit:4;stroke-opacity:1;stroke-dasharray:none"
       d="m 15.5,992.36221 0,42.99999"
       id="path4109"
       inkscape:connector-curvature="0" />
    <path
       d="m 34,1001.3622 1.915398,0 0,1 -1.915398,0 0,-1 z"
       id="path4121"
       style="opacity:0.6;fill:#797979;fill-opacity:1;stroke:none;display:inline"
       inkscape:connector-curvature="0" />
    <path
       d="m 19,1010.3622 3.691817,0 0,1 -3.691817,0 0,-1 z"
       id="path4123"
       style="opacity:0.6;fill:#b3b3b3;fill-opacity:1;stroke:none;display:inline"
       inkscape:connector-curvature="0" />
    <path
       d="m 22.965761,1010.3622 1.776154,0 0,1 -1.776154,0 0,-1 z"
       id="path4125"
       style="opacity:0.6;fill:#b3b3b3;fill-opacity:1;stroke:none;display:inline"
       inkscape:connector-curvature="0" />
    <path
       d="m 25.116681,1010.3622 0.835125,0 0,1 -0.835125,0 0,-1 z"
       id="path4127"
       style="opacity:0.6;fill:#b3b3b3;fill-opacity:1;stroke:none;display:inline"
       inkscape:connector-curvature="0" />
    <path
       d="m 26.158533,1010.3622 1.608114,0 0,1 -1.608114,0 0,-1 z"
       id="path4129"
       style="opacity:0.6;fill:#b3b3b3;fill-opacity:1;stroke:none;display:inline"
       inkscape:connector-curvature="0" />
    <path
       d="m 28.040581,1010.3622 1.608115,0 0,1 -1.608115,0 0,-1 z"
       id="path4131"
       style="opacity:0.6;fill:#b3b3b3;fill-opacity:1;stroke:none;display:inline"
       inkscape:connector-curvature="0" />
    <path
       d="m 19,1008.3622 4.28514,0 0,1 -4.28514,0 0,-1 z"
       id="path4133"
       style="opacity:0.6;fill:#b3b3b3;fill-opacity:1;stroke:none;display:inline"
       inkscape:connector-curvature="0" />
    <path
       d="m 23.621053,1008.3622 4.59158,0 0,1 -4.59158,0 0,-1 z"
       id="path4135"
       style="opacity:0.6;fill:#b3b3b3;fill-opacity:1;stroke:none;display:inline"
       inkscape:connector-curvature="0" />
    <path
       d="m 28.548546,1008.3622 1.833555,0 0,1 -1.833555,0 0,-1 z"
       id="path4137"
       style="opacity:0.6;fill:#b3b3b3;fill-opacity:1;stroke:none;display:inline"
       inkscape:connector-curvature="0" />
    <path
       d="m 19,1012.3605 4.28514,0 0,1 -4.28514,0 0,-1 z"
       id="path4139"
       style="opacity:0.6;fill:#b3b3b3;fill-opacity:1;stroke:none;display:inline"
       inkscape:connector-curvature="0" />
    <path
       d="m 23.621053,1012.3605 4.59158,0 0,1 -4.59158,0 0,-1 z"
       id="path4141"
       style="opacity:0.6;fill:#b3b3b3;fill-opacity:1;stroke:none;display:inline"
       inkscape:connector-curvature="0" />
    <path
       d="m 28.548546,1012.3605 1.833555,0 0,1 -1.833555,0 0,-1 z"
       id="path4143"
       style="opacity:0.6;fill:#b3b3b3;fill-opacity:1;stroke:none;display:inline"
       inkscape:connector-curvature="0" />
  </g>
</svg>
