<?xml version="1.0" encoding="UTF-8" standalone="no"?>
<!-- Created with Inkscape (http://www.inkscape.org/) -->

<svg
   xmlns:dc="http://purl.org/dc/elements/1.1/"
   xmlns:cc="http://creativecommons.org/ns#"
   xmlns:rdf="http://www.w3.org/1999/02/22-rdf-syntax-ns#"
   xmlns:svg="http://www.w3.org/2000/svg"
   xmlns="http://www.w3.org/2000/svg"
   xmlns:xlink="http://www.w3.org/1999/xlink"
   xmlns:sodipodi="http://sodipodi.sourceforge.net/DTD/sodipodi-0.dtd"
   xmlns:inkscape="http://www.inkscape.org/namespaces/inkscape"
   width="64px"
   height="64px"
   id="svg4132"
   version="1.1"
   inkscape:version="0.48.3.1 r9886"
   sodipodi:docname="text-x-javascript.svg">
  <defs
     id="defs4134">
    <linearGradient
       id="linearGradient3908">
      <stop
         style="stop-color:#aaaaaa;stop-opacity:1;"
         offset="0"
         id="stop3910" />
      <stop
         style="stop-color:#c8c8c8;stop-opacity:1;"
         offset="1"
         id="stop3912" />
    </linearGradient>
    <linearGradient
       id="linearGradient5031">
      <stop
         id="stop5033"
         style="stop-color:#a3a3a3;stop-opacity:1"
         offset="0" />
      <stop
         id="stop5035"
         style="stop-color:#bababa;stop-opacity:1"
         offset="1" />
    </linearGradient>
    <linearGradient
       y2="2.9062471"
       x2="-51.786404"
       y1="50.786446"
       x1="-51.786404"
       gradientTransform="matrix(1.0843523,0,0,1.1997367,79.550862,-4.1628601)"
       gradientUnits="userSpaceOnUse"
       id="linearGradient3033"
       xlink:href="#linearGradient3104-6"
       inkscape:collect="always" />
    <linearGradient
       id="linearGradient3104-6">
      <stop
         offset="0"
         style="stop-color:#000000;stop-opacity:0.31782946;"
         id="stop3106-3" />
      <stop
         offset="1"
         style="stop-color:#000000;stop-opacity:0.24031007;"
         id="stop3108-9" />
    </linearGradient>
    <linearGradient
       inkscape:collect="always"
       xlink:href="#linearGradient3977-4"
       id="linearGradient3093"
       gradientUnits="userSpaceOnUse"
       gradientTransform="matrix(1.2162162,0,0,1.5405376,2.8108184,-6.9729501)"
       x1="23.99999"
       y1="5.8641062"
       x2="23.99999"
       y2="42.100208" />
    <linearGradient
       id="linearGradient3977-4">
      <stop
         id="stop3979-7"
         style="stop-color:#ffffff;stop-opacity:1;"
         offset="0" />
      <stop
         offset="0.01214366"
         style="stop-color:#ffffff;stop-opacity:0.23529412;"
         id="stop3981-6" />
      <stop
         id="stop3983-5"
         style="stop-color:#ffffff;stop-opacity:0.15686275;"
         offset="0.98781353" />
      <stop
         id="stop3985-6"
         style="stop-color:#ffffff;stop-opacity:0.39215687;"
         offset="1" />
    </linearGradient>
    <linearGradient
       inkscape:collect="always"
       xlink:href="#linearGradient3600-9"
       id="linearGradient3096"
       gradientUnits="userSpaceOnUse"
       gradientTransform="matrix(1.3142827,0,0,1.2602393,0.4572141,-2.1793201)"
       x1="25.132275"
       y1="0.98520643"
       x2="25.132275"
       y2="47.013336" />
    <linearGradient
       id="linearGradient3600-9">
      <stop
         offset="0"
         style="stop-color:#f4f4f4;stop-opacity:1"
         id="stop3602-3" />
      <stop
         offset="1"
         style="stop-color:#dbdbdb;stop-opacity:1"
         id="stop3604-7" />
    </linearGradient>
    <radialGradient
       inkscape:collect="always"
       xlink:href="#linearGradient5060"
       id="radialGradient3153"
       gradientUnits="userSpaceOnUse"
       gradientTransform="matrix(0.03132633,0,0,0.02058823,35.220859,49.45142)"
       cx="605.71429"
       cy="486.64789"
       fx="605.71429"
       fy="486.64789"
       r="117.14286" />
    <linearGradient
       id="linearGradient5060">
      <stop
         id="stop5062"
         style="stop-color:#000000;stop-opacity:1"
         offset="0" />
      <stop
         id="stop5064"
         style="stop-color:#000000;stop-opacity:0"
         offset="1" />
    </linearGradient>
    <radialGradient
       inkscape:collect="always"
       xlink:href="#linearGradient5060"
       id="radialGradient3156"
       gradientUnits="userSpaceOnUse"
       gradientTransform="matrix(-0.03132632,0,0,0.02058823,28.779136,49.45142)"
       cx="605.71429"
       cy="486.64789"
       fx="605.71429"
       fy="486.64789"
       r="117.14286" />
    <linearGradient
       id="linearGradient5048">
      <stop
         id="stop5050"
         style="stop-color:#000000;stop-opacity:0"
         offset="0" />
      <stop
         id="stop5056"
         style="stop-color:#000000;stop-opacity:1"
         offset="0.5" />
      <stop
         id="stop5052"
         style="stop-color:#000000;stop-opacity:0"
         offset="1" />
    </linearGradient>
    <linearGradient
       y2="609.50507"
       x2="302.85715"
       y1="366.64789"
       x1="302.85715"
       gradientTransform="matrix(0.09153846,0,0,0.02058823,-1.084616,49.45142)"
       gradientUnits="userSpaceOnUse"
       id="linearGradient4130"
       xlink:href="#linearGradient5048"
       inkscape:collect="always" />
    <linearGradient
       id="linearGradient3830">
      <stop
         id="stop3832"
         style="stop-color:#ffffff;stop-opacity:1"
         offset="0" />
      <stop
         id="stop3834"
         style="stop-color:#ffffff;stop-opacity:0"
         offset="1" />
    </linearGradient>
    <linearGradient
       id="linearGradient3054">
      <stop
         id="stop3056"
         style="stop-color:#ffffff;stop-opacity:1"
         offset="0" />
      <stop
         id="stop3058"
         style="stop-color:#ffffff;stop-opacity:0"
         offset="1" />
    </linearGradient>
    <linearGradient
       id="linearGradient2867-449-88-871-390-598-476-591-434-148-57-177">
      <stop
         offset="0"
         style="stop-color:#90dbec;stop-opacity:1;"
         id="stop3750" />
      <stop
         offset="0.39060768"
         style="stop-color:#55c1ec;stop-opacity:1;"
         id="stop3752" />
      <stop
         offset="0.84839314"
         style="stop-color:#3689e6;stop-opacity:1;"
         id="stop3754" />
      <stop
         offset="1"
         style="stop-color:#2b63a0;stop-opacity:1;"
         id="stop3756" />
    </linearGradient>
    <linearGradient
       id="linearGradient3707-319-631-407-324">
      <stop
         offset="0"
         style="stop-color:#185f9a;stop-opacity:1;"
         id="stop3760" />
      <stop
         offset="1"
         style="stop-color:#599ec9;stop-opacity:1;"
         id="stop3762" />
    </linearGradient>
    <radialGradient
       inkscape:collect="always"
       xlink:href="#linearGradient4114-3"
       id="radialGradient3172"
       gradientUnits="userSpaceOnUse"
       gradientTransform="matrix(1.139227,0,0,0.4068666,6.7799989,7.7466159)"
       cx="15.115514"
       cy="63.965389"
       fx="15.115514"
       fy="63.965389"
       r="12.289036" />
    <linearGradient
       id="linearGradient4114-3">
      <stop
         id="stop4116-7"
         style="stop-color:#000000;stop-opacity:1"
         offset="0" />
      <stop
         id="stop4118-4"
         style="stop-color:#000000;stop-opacity:0"
         offset="1" />
    </linearGradient>
    <linearGradient
       inkscape:collect="always"
       xlink:href="#linearGradient3908"
       id="linearGradient3930"
       x1="51.298679"
       y1="52.904591"
       x2="51.298679"
       y2="9.590909"
       gradientUnits="userSpaceOnUse" />
    <linearGradient
       inkscape:collect="always"
       xlink:href="#linearGradient3908"
       id="linearGradient3932"
       x1="51.298679"
       y1="52.904591"
       x2="51.298679"
       y2="9.590909"
       gradientUnits="userSpaceOnUse" />
    <linearGradient
       inkscape:collect="always"
       xlink:href="#linearGradient3908"
       id="linearGradient3934"
       x1="51.298679"
       y1="52.904591"
       x2="51.298679"
       y2="9.590909"
       gradientUnits="userSpaceOnUse" />
    <linearGradient
       inkscape:collect="always"
       xlink:href="#linearGradient3908"
       id="linearGradient3936"
       x1="51.298679"
       y1="52.904591"
       x2="51.298679"
       y2="9.590909"
       gradientUnits="userSpaceOnUse" />
    <linearGradient
       inkscape:collect="always"
       xlink:href="#linearGradient3908"
       id="linearGradient3938"
       x1="51.298679"
       y1="52.904591"
       x2="51.298679"
       y2="9.590909"
       gradientUnits="userSpaceOnUse" />
    <linearGradient
       inkscape:collect="always"
       xlink:href="#linearGradient3908"
       id="linearGradient3940"
       x1="51.298679"
       y1="52.904591"
       x2="51.298679"
       y2="9.590909"
       gradientUnits="userSpaceOnUse" />
    <linearGradient
       inkscape:collect="always"
       xlink:href="#linearGradient4598"
       id="linearGradient4596"
       gradientUnits="userSpaceOnUse"
       gradientTransform="translate(4.116099,-1.6069012)"
       x1="29.465117"
       y1="17.606901"
       x2="29.465117"
       y2="34.606899" />
    <linearGradient
       id="linearGradient4598">
      <stop
         id="stop4600"
         style="stop-color:#ffffff;stop-opacity:1;"
         offset="0" />
      <stop
         offset="0.17647059"
         style="stop-color:#ffffff;stop-opacity:0.23529412;"
         id="stop4602" />
      <stop
         id="stop4604"
         style="stop-color:#ffffff;stop-opacity:0.15686275;"
         offset="0.82352948" />
      <stop
         id="stop4606"
         style="stop-color:#ffffff;stop-opacity:0.39215687;"
         offset="1" />
    </linearGradient>
    <linearGradient
       inkscape:collect="always"
       xlink:href="#linearGradient3977-0-2"
       id="linearGradient4467-5"
       gradientUnits="userSpaceOnUse"
       gradientTransform="translate(4.116099,-1.6069012)"
       x1="13.883902"
       y1="12.606901"
       x2="13.883902"
       y2="41.606899" />
    <linearGradient
       id="linearGradient3977-0-2">
      <stop
         offset="0"
         style="stop-color:#ffffff;stop-opacity:1;"
         id="stop3979-5-6" />
      <stop
         id="stop3981-7-1"
         style="stop-color:#ffffff;stop-opacity:0.23529412;"
         offset="0.03626217" />
      <stop
         offset="0.82758623"
         style="stop-color:#ffffff;stop-opacity:0.15686275;"
         id="stop3983-6-1" />
      <stop
         offset="1"
         style="stop-color:#ffffff;stop-opacity:0.39215687;"
         id="stop3985-4-7" />
    </linearGradient>
    <radialGradient
       inkscape:collect="always"
       xlink:href="#linearGradient2867-449-88-871-390-598-476-591-434-148-57-177-8-3"
       id="radialGradient3815"
       gradientUnits="userSpaceOnUse"
       gradientTransform="matrix(0,7.0760926,-7.4527115,0,100.32061,-66.261922)"
       cx="9.0815544"
       cy="10.243929"
       fx="8.5513258"
       fy="10.243929"
       r="12.671875" />
    <linearGradient
       id="linearGradient2867-449-88-871-390-598-476-591-434-148-57-177-8-3">
      <stop
         offset="0"
         style="stop-color:#ffcd7d;stop-opacity:1;"
         id="stop3750-1-0" />
      <stop
         offset="0.26238"
         style="stop-color:#fc8f36;stop-opacity:1;"
         id="stop3752-3-7" />
      <stop
         offset="0.704952"
         style="stop-color:#e23a0e;stop-opacity:1;"
         id="stop3754-1-8" />
      <stop
         offset="1"
         style="stop-color:#ac441f;stop-opacity:1;"
         id="stop3756-1-6" />
    </linearGradient>
    <linearGradient
       inkscape:collect="always"
       xlink:href="#linearGradient4039"
       id="linearGradient3817"
       gradientUnits="userSpaceOnUse"
       gradientTransform="translate(2.123909,-1.9451008)"
       x1="25"
       y1="49.945103"
       x2="25"
       y2="4.9451008" />
    <linearGradient
       id="linearGradient4039">
      <stop
         offset="0"
         style="stop-color:#ba3d12;stop-opacity:1"
         id="stop4041" />
      <stop
         offset="1"
         style="stop-color:#db6737;stop-opacity:1"
         id="stop4043" />
    </linearGradient>
    <radialGradient
       r="12.671875"
       fy="10.243929"
       fx="8.5513258"
       cy="10.243929"
       cx="9.0815544"
       gradientTransform="matrix(0,7.0760926,-7.4527115,0,100.32061,-66.261922)"
       gradientUnits="userSpaceOnUse"
       id="radialGradient3077"
       xlink:href="#linearGradient2867-449-88-871-390-598-476-591-434-148-57-177-8-3"
       inkscape:collect="always" />
    <linearGradient
       y2="4.9451008"
       x2="25"
       y1="49.945103"
       x1="25"
       gradientTransform="translate(2.123909,-1.9451012)"
       gradientUnits="userSpaceOnUse"
       id="linearGradient3079"
       xlink:href="#linearGradient4039"
       inkscape:collect="always" />
    <linearGradient
       inkscape:collect="always"
       xlink:href="#linearGradient4328"
       id="linearGradient4326"
       gradientUnits="userSpaceOnUse"
       gradientTransform="translate(-15.883902,-1.6069006)"
       x1="57.430408"
       y1="25.325565"
       x2="57.430408"
       y2="48.770836" />
    <linearGradient
       id="linearGradient4328">
      <stop
         id="stop4330"
         style="stop-color:#ffffff;stop-opacity:1;"
         offset="0" />
      <stop
         offset="0.09704833"
         style="stop-color:#ffffff;stop-opacity:0.23529412;"
         id="stop4332" />
      <stop
         id="stop4334"
         style="stop-color:#ffffff;stop-opacity:0.15686275;"
         offset="0.66666669" />
      <stop
         id="stop4336"
         style="stop-color:#ffffff;stop-opacity:0.39215687;"
         offset="1" />
    </linearGradient>
    <linearGradient
       inkscape:collect="always"
       xlink:href="#linearGradient4354"
       id="linearGradient4352"
       gradientUnits="userSpaceOnUse"
       gradientTransform="translate(-15.883902,-1.6069006)"
       x1="39.897167"
       y1="34.269909"
       x2="39.897167"
       y2="20.147835" />
    <linearGradient
       id="linearGradient4354">
      <stop
         id="stop4356"
         style="stop-color:#ffffff;stop-opacity:1;"
         offset="0" />
      <stop
         offset="0.38322371"
         style="stop-color:#ffffff;stop-opacity:0.23529412;"
         id="stop4358" />
      <stop
         id="stop4360"
         style="stop-color:#ffffff;stop-opacity:0.15686275;"
         offset="0.95056331" />
      <stop
         id="stop4362"
         style="stop-color:#ffffff;stop-opacity:0.39215687;"
         offset="1" />
    </linearGradient>
    <linearGradient
       inkscape:collect="always"
       xlink:href="#linearGradient4340"
       id="linearGradient4338"
       gradientUnits="userSpaceOnUse"
       gradientTransform="translate(-15.883902,-1.6069006)"
       x1="34.556026"
       y1="18.386543"
       x2="34.556026"
       y2="42.005493" />
    <linearGradient
       id="linearGradient4340">
      <stop
         id="stop4342"
         style="stop-color:#ffffff;stop-opacity:1;"
         offset="0" />
      <stop
         offset="0.27889803"
         style="stop-color:#ffffff;stop-opacity:0.23529412;"
         id="stop4344" />
      <stop
         id="stop4346"
         style="stop-color:#ffffff;stop-opacity:0.15686275;"
         offset="0.95056331" />
      <stop
         id="stop4348"
         style="stop-color:#ffffff;stop-opacity:0.39215687;"
         offset="1" />
    </linearGradient>
    <radialGradient
       inkscape:collect="always"
       xlink:href="#linearGradient3846-5"
       id="radialGradient3352"
       gradientUnits="userSpaceOnUse"
       gradientTransform="matrix(0,4.6309229,-4.1186673,0,114.37606,-52.028739)"
       cx="9.9660025"
       cy="23.403069"
       fx="9.9660025"
       fy="23.403069"
       r="13.931416" />
    <linearGradient
       id="linearGradient3846-5">
      <stop
         offset="0"
         style="stop-color:#fff3cb;stop-opacity:1"
         id="stop3848-48" />
      <stop
         offset="0.26238"
         style="stop-color:#fdde76;stop-opacity:1"
         id="stop3850-1" />
      <stop
         offset="0.66093999"
         style="stop-color:#f9c440;stop-opacity:1"
         id="stop3852-28" />
      <stop
         offset="1"
         style="stop-color:#e48b20;stop-opacity:1"
         id="stop3854-9" />
    </linearGradient>
    <linearGradient
       inkscape:collect="always"
       xlink:href="#linearGradient3856-6"
       id="linearGradient3354"
       gradientUnits="userSpaceOnUse"
       gradientTransform="matrix(1.6508808,0,0,1.6568311,-16.628817,-20.281567)"
       x1="21.483376"
       y1="44.154785"
       x2="21.483376"
       y2="8.404891" />
    <linearGradient
       id="linearGradient3856-6">
      <stop
         offset="0"
         style="stop-color:#b67926;stop-opacity:1"
         id="stop3858-8" />
      <stop
         offset="1"
         style="stop-color:#eab41a;stop-opacity:1"
         id="stop3860-0" />
    </linearGradient>
    <radialGradient
       r="13.931416"
       fy="23.403069"
       fx="9.9660025"
       cy="23.403069"
       cx="9.9660025"
       gradientTransform="matrix(0,3.4561718,-4.1186673,0,121.20805,-33.840698)"
       gradientUnits="userSpaceOnUse"
       id="radialGradient4476"
       xlink:href="#linearGradient3846-5"
       inkscape:collect="always" />
    <linearGradient
       id="linearGradient3090">
      <stop
         offset="0"
         style="stop-color:#fff3cb;stop-opacity:1"
         id="stop3092" />
      <stop
         offset="0.26238"
         style="stop-color:#fdde76;stop-opacity:1"
         id="stop3094" />
      <stop
         offset="0.66093999"
         style="stop-color:#f9c440;stop-opacity:1"
         id="stop3096" />
      <stop
         offset="1"
         style="stop-color:#e48b20;stop-opacity:1"
         id="stop3098" />
    </linearGradient>
    <linearGradient
       y2="8.404891"
       x2="21.483376"
       y1="35.375534"
       x1="21.483376"
       gradientTransform="matrix(1.6508808,0,0,1.6568311,-9.7968269,-13.801098)"
       gradientUnits="userSpaceOnUse"
       id="linearGradient4478"
       xlink:href="#linearGradient3856-6"
       inkscape:collect="always" />
    <linearGradient
       id="linearGradient3101">
      <stop
         offset="0"
         style="stop-color:#b67926;stop-opacity:1"
         id="stop3103" />
      <stop
         offset="1"
         style="stop-color:#eab41a;stop-opacity:1"
         id="stop3105" />
    </linearGradient>
    <radialGradient
       r="13.931416"
       fy="23.403069"
       fx="9.9660025"
       cy="23.403069"
       cx="9.9660025"
       gradientTransform="matrix(0,3.4561718,-4.1186673,0,114.37606,-40.321167)"
       gradientUnits="userSpaceOnUse"
       id="radialGradient3112"
       xlink:href="#linearGradient3846-5"
       inkscape:collect="always" />
    <linearGradient
       y2="8.404891"
       x2="21.483376"
       y1="35.375534"
       x1="21.483376"
       gradientTransform="matrix(1.6508808,0,0,1.6568311,-16.628817,-20.281567)"
       gradientUnits="userSpaceOnUse"
       id="linearGradient3114"
       xlink:href="#linearGradient3856-6"
       inkscape:collect="always" />
  </defs>
  <sodipodi:namedview
     id="base"
     pagecolor="#ffffff"
     bordercolor="#666666"
     borderopacity="1.0"
     inkscape:pageopacity="0.0"
     inkscape:pageshadow="2"
     inkscape:zoom="5.5"
     inkscape:cx="43.953247"
     inkscape:cy="30.540507"
     inkscape:current-layer="layer1"
     showgrid="true"
     inkscape:document-units="px"
     inkscape:grid-bbox="true"
     inkscape:window-width="811"
     inkscape:window-height="609"
     inkscape:window-x="45"
     inkscape:window-y="115"
     inkscape:window-maximized="0" />
  <metadata
     id="metadata4137">
    <rdf:RDF>
      <cc:Work
         rdf:about="">
        <dc:format>image/svg+xml</dc:format>
        <dc:type
           rdf:resource="http://purl.org/dc/dcmitype/StillImage" />
        <dc:title></dc:title>
      </cc:Work>
    </rdf:RDF>
  </metadata>
  <g
     id="layer1"
     inkscape:label="Layer 1"
     inkscape:groupmode="layer">
    <rect
       style="opacity:0.3;fill:url(#linearGradient4130);fill-opacity:1;fill-rule:nonzero;stroke:none;stroke-width:1;marker:none;visibility:visible;display:inline;overflow:visible"
       id="rect2879"
       y="57.000004"
       x="9.8999996"
       height="5"
       width="44.199997" />
    <path
       inkscape:connector-curvature="0"
       style="opacity:0.3;fill:url(#radialGradient3156);fill-opacity:1;fill-rule:nonzero;stroke:none;stroke-width:1;marker:none;visibility:visible;display:inline;overflow:visible"
       id="path2881"
       d="m 9.9,57.00022 c 0,0 0,4.9997 0,4.9997 -1.6132281,0.01 -3.9,-1.1202 -3.9,-2.5002 0,-1.38 1.8002408,-2.4995 3.9,-2.4995 z" />
    <path
       inkscape:connector-curvature="0"
       style="opacity:0.3;fill:url(#radialGradient3153);fill-opacity:1;fill-rule:nonzero;stroke:none;stroke-width:1;marker:none;visibility:visible;display:inline;overflow:visible"
       id="path2883"
       d="m 54.099999,57.00022 c 0,0 0,4.9997 0,4.9997 C 55.713227,62.00992 58,60.87972 58,59.49972 c 0,-1.38 -1.800241,-2.4995 -3.900001,-2.4995 z" />
    <path
       inkscape:connector-curvature="0"
       style="fill:url(#linearGradient3096);fill-opacity:1;stroke:none;display:inline"
       id="path4160-6"
       d="m 9,0.9998799 c 10.540935,0 45.999945,0.004 45.999945,0.004 L 55,59.00002 c 0,0 -30.666666,0 -46,0 0,-19.3334 0,-38.6665 0,-57.9998201 z"
       sodipodi:nodetypes="ccccc" />
    <path
       style="fill:none;stroke:url(#linearGradient3093);stroke-width:1;stroke-linecap:round;stroke-linejoin:miter;stroke-miterlimit:4;stroke-opacity:1;stroke-dasharray:none;stroke-dashoffset:0"
       d="m 54.499999,58.50002 -44.9999992,0 0,-57.0000401 44.9999992,0 z"
       id="rect6741-1-8"
       inkscape:connector-curvature="0"
       sodipodi:nodetypes="ccccc" />
    <path
       inkscape:connector-curvature="0"
       style="fill:none;stroke:url(#linearGradient3033);stroke-width:0.9999218;stroke-linecap:butt;stroke-linejoin:round;stroke-miterlimit:4;stroke-opacity:1;stroke-dasharray:none;stroke-dashoffset:0;display:inline"
       id="path4160-6-1"
       d="m 8.4999684,0.4998999 c 10.7700936,0 47.0000286,0.004 47.0000286,0.004 l 4.9e-5,58.9962201 c 0,0 -31.333384,0 -47.0000776,0 0,-19.6668 0,-39.3334 0,-58.9999701 z"
       sodipodi:nodetypes="ccccc" />
    <g
       id="g3942">
      <path
         sodipodi:nodetypes="ccccccccccccccccccccccccccccccccccccccccccccccccccccccccccccccccccccccccccccccccccccccccccccccccccccccccccccccccccccccccccccccccccccccccccccccccccccccccccccccccccccccccccccccccccccccccccccccccccccccccccccc"
         id="path4149"
         d="m 15,9 0,1 3.189283,0 0,-1 z m 3.608926,0 0,1 3.021426,0 0,-1 z m 3.441069,0 0,1 2.643748,0 0,-1 z m 3.063391,0 0,1 1.174999,0 0,-1 z m 1.594642,0 0,1 2.601784,0 0,-1 z m 3.063391,0 0,1 6.714281,0 0,-1 z M 15,12 l 0,1 5.077675,0 0,-1 z m 5.581246,0 0,1 2.433927,0 0,-1 z m 2.895534,0 0,1 1.133035,0 0,-1 z m 1.636606,0 0,1 2.182141,0 0,-1 z m 2.685712,0 0,1 2.182142,0 0,-1 z m 2.643749,0 0,1 3.566962,0 0,-1 z m 4.070533,0 0,1 4.658032,0 0,-1 z M 15,15 l 0,1 5.62321,0 0,-1 z m 6.042853,0 0,1 6.042853,0 0,-1 z M 15,18 l 0,1 3.105355,0 0,-1 z m 3.524997,0 0,1 2.895534,0 0,-1 z m 3.315177,0 0,1 2.559819,0 0,-1 z m 5.119639,6 0,1 2.55982,0 0,-1 z m 2.979463,0 0,1 2.559819,0 0,-1 z m 2.979462,0 0,1 3.692855,0 0,-1 z m 4.154462,0 0,1 0.755356,0 0,-1 z m -9.987494,9 0,1 3.147319,0 0,-1 z m 3.566962,0 0,1 2.937498,0 0,-1 z m 3.357141,0 0,1 2.475891,0 0,-1 z m -6.924103,3 0,1 2.517856,0 0,-1 z m 2.937498,0 0,1 6.462496,0 0,-1 z m 6.882139,0 0,1 4.951782,0 0,-1 z m -9.819637,3 0,1 3.273212,0 0,-1 z m 3.734819,0 0,1 5.749103,0 0,-1 z m 6.168746,0 0,1 3.94464,0 0,-1 z m -9.903565,3 0,1 2.517856,0 0,-1 z m 2.937498,0 0,1 2.55982,0 0,-1 z m 2.979462,0 0,1 3.650891,0 0,-1 z m 4.070534,0 0,1 0.755356,0 0,-1 z m 1.174999,0 0,1 4.741961,0 0,-1 z m -11.246421,9 0,1 3.273212,0 0,-1 z m 3.692854,0 0,1 3.021427,0 0,-1 z m 3.483034,0 0,1 2.601784,0 0,-1 z m 3.021426,0 0,1 4.154462,0 0,-1 z m 4.616069,0 0,1 6.756245,0 0,-1 z"
         style="fill:url(#linearGradient3940);fill-opacity:1;stroke:none;display:inline"
         inkscape:connector-curvature="0" />
      <path
         sodipodi:nodetypes="cccccccccc"
         id="path4063"
         d="m 15,21 0,1 4.112497,0 0,-1 z m 0,3 0,1 4.154461,0 0,-1 z"
         style="fill:url(#linearGradient3938);fill-opacity:1;stroke:none;display:inline"
         inkscape:connector-curvature="0" />
      <path
         sodipodi:nodetypes="cccccccccccccccccccccccccccccccccccccccccccccccccccccccccccccccccccccccccccccccc"
         id="path4061"
         d="m 19.574104,21 0,1 7.511602,0 0,-1 z m 0.04196,3 0,1 6.840174,0 0,-1 z m 1.594642,21 0,1 6.168746,0 0,-1 z m 6.630353,0 0,1 2.433927,0 0,-1 z m 2.895534,0 0,1 5.791067,0 0,-1 z m 6.252674,0 0,1 3.986605,0 0,-1 z m 4.406247,0 0,1 1.552678,0 0,-1 z m 2.014285,0 0,1 0.923213,0 0,-1 z m 1.342856,0 0,1 2.475891,0 0,-1 z m -21.527665,3 0,1 1.091071,0 0,-1 z m 1.384821,0 0,1 2.182141,0 0,-1 z m 2.517855,0 0,1 2.182142,0 0,-1 z m 2.85357,0 0,1 3.483033,0 0,-1 z m 3.902676,0 0,1 4.53214,0 0,-1 z m 5.161604,0 0,1 3.063391,0 0,-1 z m 3.441069,0 0,1 0.713392,0 0,-1 z"
         style="fill:url(#linearGradient3934);fill-opacity:1;stroke:none;display:inline"
         inkscape:connector-curvature="0" />
      <path
         sodipodi:nodetypes="ccccc"
         d="m 15,51 4.077913,0 0,1 L 15,52 z"
         id="path4009"
         style="fill:url(#linearGradient3936);fill-opacity:1;stroke:none;display:inline"
         inkscape:connector-curvature="0" />
      <path
         sodipodi:nodetypes="cccccccccccccccccccccccccccccccccccccccccccccccccc"
         id="path4007"
         d="m 18.692854,27 0,1 3.021427,0 0,-1 z M 15,30 l 0,1 1.342856,0 0,-1 z m 4.23839,3 0,1 2.475891,0 0,-1 z m 0.167857,3 0,1 3.65089,0 0,-1 z m -0.461607,3 0,1 2.769641,0 0,-1 z m -0.503571,3 0,1 2.853569,0 0,-1 z M 15,45 l 0,1 5.749103,0 0,-1 z m 0,3 0,1 4.951782,0 0,-1 z m 5.32946,0 0,1 2.391963,0 0,-1 z m -0.839285,3 0,1 4.490176,0 0,-1 z"
         style="fill:url(#linearGradient3930);fill-opacity:1;stroke:none;display:inline"
         inkscape:connector-curvature="0" />
      <path
         sodipodi:nodetypes="ccccccccccccccccccccccccc"
         id="path5302"
         d="m 15,27 0,1 3.147319,0 0,-1 z m 0,6 0,1 3.692854,0 0,-1 z m 0,3 0,1 3.94464,0 0,-1 z m 0,3 0,1 3.399105,0 0,-1 z m 0,3 0,1 2.979462,0 0,-1 z"
         style="fill:url(#linearGradient3932);fill-opacity:1;stroke:none;display:inline"
         inkscape:connector-curvature="0" />
    </g>
    <g
       transform="translate(6.8319896,6.480469)"
       style="font-size:32px;font-style:normal;font-variant:normal;font-weight:bold;font-stretch:normal;line-height:125%;letter-spacing:0px;word-spacing:0px;color:#000000;fill:url(#radialGradient3352);fill-opacity:1;fill-rule:nonzero;stroke:url(#linearGradient3354);stroke-width:0.99227129999999997;stroke-linecap:butt;stroke-linejoin:round;stroke-miterlimit:4;stroke-opacity:1;stroke-dashoffset:0;marker:none;visibility:visible;display:inline;overflow:visible;enable-background:accumulate;font-family:Droid Sans;-inkscape-font-specification:Droid Sans Bold"
       id="text3106">
      <path
         id="path4367"
         style="font-size:28px;fill:url(#radialGradient3112);stroke:url(#linearGradient3114);marker:none"
         d="m 25.746136,18.292969 4.566406,0 2.460937,8.599609 0.601562,2.269531 c 0.03645,-0.255203 0.07747,-0.514969 0.123047,-0.779297 0.04556,-0.264317 0.09569,-0.524082 0.15039,-0.779296 0.06379,-0.264317 0.127597,-0.501296 0.191407,-0.710938 l 2.40625,-8.599609 4.59375,0 -6.042969,17.240234 c -0.565113,1.613278 -1.335294,2.811844 -2.310547,3.595703 -0.975266,0.783848 -2.196619,1.175775 -3.664062,1.175781 -0.473961,-6e-6 -0.884117,-0.02735 -1.230469,-0.08203 -0.346356,-0.04558 -0.642579,-0.09571 -0.888672,-0.15039 l 0,-3.308594 c 0.191405,0.04557 0.432941,0.08658 0.724609,0.123047 0.291665,0.03646 0.597003,0.05468 0.916016,0.05469 0.437497,-3e-6 0.811194,-0.05925 1.121094,-0.177734 0.309892,-0.118493 0.574214,-0.287112 0.792968,-0.50586 0.22786,-0.209637 0.419266,-0.464845 0.574219,-0.765625 0.164057,-0.300782 0.305333,-0.638022 0.423828,-1.011718 l 0.259766,-0.765625 -5.769531,-15.421875 m -11.406249,3.191402 0.953125,0 c 1.364573,1.2e-5 2.390614,-0.270821 3.078125,-0.8125 0.697904,-0.541653 1.046862,-1.421861 1.046875,-2.640625 -1.3e-5,-1.1354 -0.312513,-1.973941 -0.9375,-2.515625 -0.614595,-0.541648 -1.583344,-0.812481 -2.90625,-0.8125 l -1.234375,0 0,6.78125 m 9.984375,-3.625 c -1.8e-5,1.000015 -0.15106,1.958347 -0.453125,2.875 -0.302101,0.916679 -0.8021,1.723969 -1.5,2.421875 -0.687515,0.697926 -1.598973,1.255217 -2.734375,1.671875 -1.125012,0.416675 -2.520844,0.625008 -4.1875,0.625 l -1.109375,0 0,8.125 -4.8437503,0 0,-22.84375 6.3437503,0 c 1.468739,2.3e-5 2.734363,0.166689 3.796875,0.5 1.072902,0.322939 1.95311,0.791688 2.640625,1.40625 0.6979,0.604187 1.213525,1.348978 1.546875,2.234375 0.333316,0.875018 0.499982,1.869809 0.5,2.984375"
         inkscape:connector-curvature="0"
         sodipodi:nodetypes="ccccccccccccccccccccccccsccccccccccsccccccccc" />
    </g>
    <path
       inkscape:connector-curvature="0"
       style="font-size:32px;font-style:normal;font-variant:normal;font-weight:bold;font-stretch:normal;line-height:125%;letter-spacing:0px;word-spacing:0px;opacity:0.80000000000000004;color:#000000;fill:none;stroke:url(#linearGradient4338);stroke-width:1;stroke-linecap:butt;stroke-linejoin:round;stroke-miterlimit:4;stroke-opacity:1;stroke-dashoffset:0;marker:none;visibility:visible;display:inline;overflow:visible;enable-background:accumulate;font-family:Droid Sans;-inkscape-font-specification:Droid Sans Bold"
       d="m 17.30074,18.199219 0,20.875 2.90625,0 0,-7.15625 a 0.97157835,0.97157835 0 0 1 0.96875,-0.96875 l 1.09375,0 c 1.585696,8e-6 2.865261,-0.200093 3.84375,-0.5625 1.040326,-0.381767 1.848787,-0.871596 2.40625,-1.4375 0.602208,-0.602213 0.995595,-1.259294 1.25,-2.03125 0.266085,-0.807464 0.406234,-1.650175 0.40625,-2.5625 -1.6e-5,-1.017729 -0.154396,-1.913047 -0.4375,-2.65625 -0.285108,-0.757263 -0.683463,-1.353287 -1.25,-1.84375 a 0.97157835,0.97157835 0 0 1 -0.03125,-0.03125 c -0.545695,-0.487791 -1.297313,-0.86009 -2.28125,-1.15625 -0.943132,-0.295861 -2.104745,-0.468728 -3.5,-0.46875 l -5.375,0 z"
       id="path4324" />
    <path
       inkscape:connector-curvature="0"
       style="font-size:32px;font-style:normal;font-variant:normal;font-weight:bold;font-stretch:normal;line-height:125%;letter-spacing:0px;word-spacing:0px;opacity:0.80000000000000004;color:#000000;fill:none;stroke:url(#linearGradient4352);stroke-width:1;stroke-linecap:butt;stroke-linejoin:round;stroke-miterlimit:4;stroke-opacity:1;stroke-dashoffset:0;marker:none;visibility:visible;display:inline;overflow:visible;enable-background:accumulate;font-family:Droid Sans;-inkscape-font-specification:Droid Sans Bold"
       d="m 21.01949,20.199219 a 0.97157835,0.97157835 0 0 1 0.15625,0 l 1.21875,0 c 1.444034,2.1e-5 2.658763,0.305883 3.53125,1.0625 0.0069,0.006 0.02437,-0.0061 0.03125,0 l -0.03125,0.03125 c 0.871699,0.768183 1.281235,1.914999 1.28125,3.21875 -1.5e-5,1.38621 -0.431579,2.636925 -1.40625,3.40625 l -0.03125,0 c -0.936289,0.726803 -2.174615,1.031263 -3.65625,1.03125 l -0.9375,0 a 0.97157835,0.97157835 0 0 1 -0.96875,-0.96875 l 0,-6.8125 a 0.97157835,0.97157835 0 0 1 0.8125,-0.96875 z"
       id="path4322" />
    <path
       inkscape:connector-curvature="0"
       style="font-size:32px;font-style:normal;font-variant:normal;font-weight:bold;font-stretch:normal;line-height:125%;letter-spacing:0px;word-spacing:0px;opacity:0.80000000000000004;color:#000000;fill:none;stroke:url(#linearGradient4326);stroke-width:1;stroke-linecap:butt;stroke-linejoin:round;stroke-miterlimit:4;stroke-opacity:1;stroke-dashoffset:0;marker:none;visibility:visible;display:inline;overflow:visible;enable-background:accumulate;font-family:Droid Sans;-inkscape-font-specification:Droid Sans Bold"
       d="m 33.98824,25.730469 5.28125,14.125 c 0.08288,0.219088 0.08288,0.468412 0,0.6875 l -0.25,0.6875 -0.03125,0.0625 c -0.114517,0.358736 -0.240336,0.754543 -0.4375,1.125 -0.0067,0.01252 -0.02443,0.01874 -0.03125,0.03125 -0.212745,0.397781 -0.488257,0.724293 -0.75,0.96875 -0.01011,0.01011 -0.02099,0.02128 -0.03125,0.03125 -0.307215,0.298481 -0.684822,0.531139 -1.09375,0.6875 -0.438247,0.167558 -0.929096,0.249996 -1.46875,0.25 -0.236464,-2e-6 -0.443851,-0.01211 -0.65625,-0.03125 l 0,1.375 c 0.01198,0.0016 0.01908,-0.0016 0.03125,0 0.01042,-1.68e-4 0.02083,-1.68e-4 0.03125,0 0.303385,0.0479 0.641908,0.09374 1.0625,0.09375 1.289297,-6e-6 2.306171,-0.335751 3.09375,-0.96875 0.794116,-0.63827 1.476613,-1.662091 2,-3.15625 l 5.59375,-15.96875 -2.5,0 -2.21875,7.90625 c 1.68e-4,0.01042 1.68e-4,0.02083 0,0.03125 -0.05961,0.195845 -0.128246,0.379493 -0.1875,0.625 -0.05465,0.254979 -0.08383,0.47993 -0.125,0.71875 -0.04289,0.248746 -0.09138,0.486212 -0.125,0.71875 -0.0011,0.0099 0.001,0.02129 0,0.03125 l -1.03125,1.5625 c -0.487089,-0.551507 -0.839689,-1.577128 -1.1875,-2.3125 -0.05752,-0.48477 -0.152811,-0.926297 -0.28125,-1.34375 l -2.28125,-7.9375 z"
       id="path4320"
       sodipodi:nodetypes="cccccccccccccccccsccccccccccccc" />
  </g>
</svg>
