<?xml version="1.0" encoding="UTF-8" standalone="no"?>
<!-- Created with Inkscape (http://www.inkscape.org/) -->

<svg
   xmlns:dc="http://purl.org/dc/elements/1.1/"
   xmlns:cc="http://creativecommons.org/ns#"
   xmlns:rdf="http://www.w3.org/1999/02/22-rdf-syntax-ns#"
   xmlns:svg="http://www.w3.org/2000/svg"
   xmlns="http://www.w3.org/2000/svg"
   xmlns:xlink="http://www.w3.org/1999/xlink"
   xmlns:sodipodi="http://sodipodi.sourceforge.net/DTD/sodipodi-0.dtd"
   xmlns:inkscape="http://www.inkscape.org/namespaces/inkscape"
   width="64px"
   height="64px"
   id="svg4132"
   version="1.1"
   inkscape:version="0.48.3.1 r9886"
   sodipodi:docname="text-x-javascript.svg">
  <defs
     id="defs4134">
    <linearGradient
       id="linearGradient3908">
      <stop
         style="stop-color:#aaaaaa;stop-opacity:1;"
         offset="0"
         id="stop3910" />
      <stop
         style="stop-color:#c8c8c8;stop-opacity:1;"
         offset="1"
         id="stop3912" />
    </linearGradient>
    <linearGradient
       id="linearGradient5031">
      <stop
         id="stop5033"
         style="stop-color:#a3a3a3;stop-opacity:1"
         offset="0" />
      <stop
         id="stop5035"
         style="stop-color:#bababa;stop-opacity:1"
         offset="1" />
    </linearGradient>
    <linearGradient
       y2="2.9062471"
       x2="-51.786404"
       y1="50.786446"
       x1="-51.786404"
       gradientTransform="matrix(1.0843523,0,0,1.1997367,79.550862,-4.1628601)"
       gradientUnits="userSpaceOnUse"
       id="linearGradient3033"
       xlink:href="#linearGradient3104-6"
       inkscape:collect="always" />
    <linearGradient
       id="linearGradient3104-6">
      <stop
         offset="0"
         style="stop-color:#000000;stop-opacity:0.31782946;"
         id="stop3106-3" />
      <stop
         offset="1"
         style="stop-color:#000000;stop-opacity:0.24031007;"
         id="stop3108-9" />
    </linearGradient>
    <linearGradient
       inkscape:collect="always"
       xlink:href="#linearGradient3977-4"
       id="linearGradient3093"
       gradientUnits="userSpaceOnUse"
       gradientTransform="matrix(1.2162162,0,0,1.5405376,2.8108184,-6.9729501)"
       x1="23.99999"
       y1="5.8641062"
       x2="23.99999"
       y2="42.100208" />
    <linearGradient
       id="linearGradient3977-4">
      <stop
         id="stop3979-7"
         style="stop-color:#ffffff;stop-opacity:1;"
         offset="0" />
      <stop
         offset="0.01214366"
         style="stop-color:#ffffff;stop-opacity:0.23529412;"
         id="stop3981-6" />
      <stop
         id="stop3983-5"
         style="stop-color:#ffffff;stop-opacity:0.15686275;"
         offset="0.98781353" />
      <stop
         id="stop3985-6"
         style="stop-color:#ffffff;stop-opacity:0.39215687;"
         offset="1" />
    </linearGradient>
    <linearGradient
       inkscape:collect="always"
       xlink:href="#linearGradient3600-9"
       id="linearGradient3096"
       gradientUnits="userSpaceOnUse"
       gradientTransform="matrix(1.3142827,0,0,1.2602393,0.4572141,-2.1793201)"
       x1="25.132275"
       y1="0.98520643"
       x2="25.132275"
       y2="47.013336" />
    <linearGradient
       id="linearGradient3600-9">
      <stop
         offset="0"
         style="stop-color:#f4f4f4;stop-opacity:1"
         id="stop3602-3" />
      <stop
         offset="1"
         style="stop-color:#dbdbdb;stop-opacity:1"
         id="stop3604-7" />
    </linearGradient>
    <radialGradient
       inkscape:collect="always"
       xlink:href="#linearGradient5060"
       id="radialGradient3153"
       gradientUnits="userSpaceOnUse"
       gradientTransform="matrix(0.03132633,0,0,0.02058823,35.220859,49.45142)"
       cx="605.71429"
       cy="486.64789"
       fx="605.71429"
       fy="486.64789"
       r="117.14286" />
    <linearGradient
       id="linearGradient5060">
      <stop
         id="stop5062"
         style="stop-color:#000000;stop-opacity:1"
         offset="0" />
      <stop
         id="stop5064"
         style="stop-color:#000000;stop-opacity:0"
         offset="1" />
    </linearGradient>
    <radialGradient
       inkscape:collect="always"
       xlink:href="#linearGradient5060"
       id="radialGradient3156"
       gradientUnits="userSpaceOnUse"
       gradientTransform="matrix(-0.03132632,0,0,0.02058823,28.779136,49.45142)"
       cx="605.71429"
       cy="486.64789"
       fx="605.71429"
       fy="486.64789"
       r="117.14286" />
    <linearGradient
       id="linearGradient5048">
      <stop
         id="stop5050"
         style="stop-color:#000000;stop-opacity:0"
         offset="0" />
      <stop
         id="stop5056"
         style="stop-color:#000000;stop-opacity:1"
         offset="0.5" />
      <stop
         id="stop5052"
         style="stop-color:#000000;stop-opacity:0"
         offset="1" />
    </linearGradient>
    <linearGradient
       y2="609.50507"
       x2="302.85715"
       y1="366.64789"
       x1="302.85715"
       gradientTransform="matrix(0.09153846,0,0,0.02058823,-1.084616,49.45142)"
       gradientUnits="userSpaceOnUse"
       id="linearGradient4130"
       xlink:href="#linearGradient5048"
       inkscape:collect="always" />
    <linearGradient
       inkscape:collect="always"
       xlink:href="#linearGradient3830"
       id="linearGradient3161"
       gradientUnits="userSpaceOnUse"
       x1="31.000002"
       y1="41.727272"
       x2="31.000002"
       y2="23.450186"
       gradientTransform="translate(1.7981601e-7,-4.6109e-4)" />
    <linearGradient
       id="linearGradient3830">
      <stop
         id="stop3832"
         style="stop-color:#ffffff;stop-opacity:1"
         offset="0" />
      <stop
         id="stop3834"
         style="stop-color:#ffffff;stop-opacity:0"
         offset="1" />
    </linearGradient>
    <linearGradient
       inkscape:collect="always"
       xlink:href="#linearGradient3830"
       id="linearGradient3164"
       gradientUnits="userSpaceOnUse"
       x1="30"
       y1="17.251894"
       x2="30"
       y2="35.510258"
       gradientTransform="translate(1.7981601e-7,-4.6109e-4)" />
    <linearGradient
       id="linearGradient3054">
      <stop
         id="stop3056"
         style="stop-color:#ffffff;stop-opacity:1"
         offset="0" />
      <stop
         id="stop3058"
         style="stop-color:#ffffff;stop-opacity:0"
         offset="1" />
    </linearGradient>
    <radialGradient
       inkscape:collect="always"
       xlink:href="#linearGradient2867-449-88-871-390-598-476-591-434-148-57-177"
       id="radialGradient3167"
       gradientUnits="userSpaceOnUse"
       gradientTransform="matrix(-1.6167311e-7,6.6018651,-8.0922115,-1.9817022e-7,104.56429,-60.072946)"
       cx="7.8060555"
       cy="9.9571075"
       fx="7.2758255"
       fy="9.9571075"
       r="12.671875" />
    <linearGradient
       id="linearGradient2867-449-88-871-390-598-476-591-434-148-57-177">
      <stop
         offset="0"
         style="stop-color:#90dbec;stop-opacity:1;"
         id="stop3750" />
      <stop
         offset="0.39060768"
         style="stop-color:#55c1ec;stop-opacity:1;"
         id="stop3752" />
      <stop
         offset="0.84839314"
         style="stop-color:#3689e6;stop-opacity:1;"
         id="stop3754" />
      <stop
         offset="1"
         style="stop-color:#2b63a0;stop-opacity:1;"
         id="stop3756" />
    </linearGradient>
    <linearGradient
       inkscape:collect="always"
       xlink:href="#linearGradient3707-319-631-407-324"
       id="linearGradient3169"
       gradientUnits="userSpaceOnUse"
       x1="25"
       y1="51.067951"
       x2="25"
       y2="11.579654"
       gradientTransform="translate(1.7981601e-7,-4.6109e-4)" />
    <linearGradient
       id="linearGradient3707-319-631-407-324">
      <stop
         offset="0"
         style="stop-color:#185f9a;stop-opacity:1;"
         id="stop3760" />
      <stop
         offset="1"
         style="stop-color:#599ec9;stop-opacity:1;"
         id="stop3762" />
    </linearGradient>
    <radialGradient
       inkscape:collect="always"
       xlink:href="#linearGradient4114-3"
       id="radialGradient3172"
       gradientUnits="userSpaceOnUse"
       gradientTransform="matrix(1.139227,0,0,0.4068666,6.7799989,7.7466159)"
       cx="15.115514"
       cy="63.965389"
       fx="15.115514"
       fy="63.965389"
       r="12.289036" />
    <linearGradient
       id="linearGradient4114-3">
      <stop
         id="stop4116-7"
         style="stop-color:#000000;stop-opacity:1"
         offset="0" />
      <stop
         id="stop4118-4"
         style="stop-color:#000000;stop-opacity:0"
         offset="1" />
    </linearGradient>
    <radialGradient
       r="12.289036"
       fy="83.5168"
       fx="21.260031"
       cy="83.5168"
       cx="21.260031"
       gradientTransform="matrix(1.139227,0,0,0.4068666,6.7800002,7.7466159)"
       gradientUnits="userSpaceOnUse"
       id="radialGradient3078"
       xlink:href="#linearGradient4114-3"
       inkscape:collect="always" />
    <linearGradient
       inkscape:collect="always"
       xlink:href="#linearGradient3908"
       id="linearGradient3930"
       x1="51.298679"
       y1="52.904591"
       x2="51.298679"
       y2="9.590909"
       gradientUnits="userSpaceOnUse" />
    <linearGradient
       inkscape:collect="always"
       xlink:href="#linearGradient3908"
       id="linearGradient3932"
       x1="51.298679"
       y1="52.904591"
       x2="51.298679"
       y2="9.590909"
       gradientUnits="userSpaceOnUse" />
    <linearGradient
       inkscape:collect="always"
       xlink:href="#linearGradient3908"
       id="linearGradient3934"
       x1="51.298679"
       y1="52.904591"
       x2="51.298679"
       y2="9.590909"
       gradientUnits="userSpaceOnUse" />
    <linearGradient
       inkscape:collect="always"
       xlink:href="#linearGradient3908"
       id="linearGradient3936"
       x1="51.298679"
       y1="52.904591"
       x2="51.298679"
       y2="9.590909"
       gradientUnits="userSpaceOnUse" />
    <linearGradient
       inkscape:collect="always"
       xlink:href="#linearGradient3908"
       id="linearGradient3938"
       x1="51.298679"
       y1="52.904591"
       x2="51.298679"
       y2="9.590909"
       gradientUnits="userSpaceOnUse" />
    <linearGradient
       inkscape:collect="always"
       xlink:href="#linearGradient3908"
       id="linearGradient3940"
       x1="51.298679"
       y1="52.904591"
       x2="51.298679"
       y2="9.590909"
       gradientUnits="userSpaceOnUse" />
    <linearGradient
       inkscape:collect="always"
       xlink:href="#linearGradient4598"
       id="linearGradient4596"
       gradientUnits="userSpaceOnUse"
       gradientTransform="translate(4.116099,-1.6069012)"
       x1="29.465117"
       y1="17.606901"
       x2="29.465117"
       y2="34.606899" />
    <linearGradient
       id="linearGradient4598">
      <stop
         id="stop4600"
         style="stop-color:#ffffff;stop-opacity:1;"
         offset="0" />
      <stop
         offset="0.17647059"
         style="stop-color:#ffffff;stop-opacity:0.23529412;"
         id="stop4602" />
      <stop
         id="stop4604"
         style="stop-color:#ffffff;stop-opacity:0.15686275;"
         offset="0.82352948" />
      <stop
         id="stop4606"
         style="stop-color:#ffffff;stop-opacity:0.39215687;"
         offset="1" />
    </linearGradient>
    <linearGradient
       inkscape:collect="always"
       xlink:href="#linearGradient3977-0-2"
       id="linearGradient4467-5"
       gradientUnits="userSpaceOnUse"
       gradientTransform="translate(4.116099,-1.6069012)"
       x1="13.883902"
       y1="12.606901"
       x2="13.883902"
       y2="41.606899" />
    <linearGradient
       id="linearGradient3977-0-2">
      <stop
         offset="0"
         style="stop-color:#ffffff;stop-opacity:1;"
         id="stop3979-5-6" />
      <stop
         id="stop3981-7-1"
         style="stop-color:#ffffff;stop-opacity:0.23529412;"
         offset="0.03626217" />
      <stop
         offset="0.82758623"
         style="stop-color:#ffffff;stop-opacity:0.15686275;"
         id="stop3983-6-1" />
      <stop
         offset="1"
         style="stop-color:#ffffff;stop-opacity:0.39215687;"
         id="stop3985-4-7" />
    </linearGradient>
    <radialGradient
       inkscape:collect="always"
       xlink:href="#linearGradient2867-449-88-871-390-598-476-591-434-148-57-177-8-3"
       id="radialGradient3815"
       gradientUnits="userSpaceOnUse"
       gradientTransform="matrix(0,7.0760926,-7.4527115,0,100.32061,-66.261922)"
       cx="9.0815544"
       cy="10.243929"
       fx="8.5513258"
       fy="10.243929"
       r="12.671875" />
    <linearGradient
       id="linearGradient2867-449-88-871-390-598-476-591-434-148-57-177-8-3">
      <stop
         offset="0"
         style="stop-color:#ffcd7d;stop-opacity:1;"
         id="stop3750-1-0" />
      <stop
         offset="0.26238"
         style="stop-color:#fc8f36;stop-opacity:1;"
         id="stop3752-3-7" />
      <stop
         offset="0.704952"
         style="stop-color:#e23a0e;stop-opacity:1;"
         id="stop3754-1-8" />
      <stop
         offset="1"
         style="stop-color:#ac441f;stop-opacity:1;"
         id="stop3756-1-6" />
    </linearGradient>
    <linearGradient
       inkscape:collect="always"
       xlink:href="#linearGradient4039"
       id="linearGradient3817"
       gradientUnits="userSpaceOnUse"
       gradientTransform="translate(2.123909,-1.9451008)"
       x1="25"
       y1="49.945103"
       x2="25"
       y2="4.9451008" />
    <linearGradient
       id="linearGradient4039">
      <stop
         offset="0"
         style="stop-color:#ba3d12;stop-opacity:1"
         id="stop4041" />
      <stop
         offset="1"
         style="stop-color:#db6737;stop-opacity:1"
         id="stop4043" />
    </linearGradient>
    <radialGradient
       r="12.671875"
       fy="10.243929"
       fx="8.5513258"
       cy="10.243929"
       cx="9.0815544"
       gradientTransform="matrix(0,7.0760926,-7.4527115,0,100.32061,-66.261922)"
       gradientUnits="userSpaceOnUse"
       id="radialGradient3077"
       xlink:href="#linearGradient2867-449-88-871-390-598-476-591-434-148-57-177-8-3"
       inkscape:collect="always" />
    <linearGradient
       y2="4.9451008"
       x2="25"
       y1="49.945103"
       x1="25"
       gradientTransform="translate(2.123909,-1.9451012)"
       gradientUnits="userSpaceOnUse"
       id="linearGradient3079"
       xlink:href="#linearGradient4039"
       inkscape:collect="always" />
  </defs>
  <sodipodi:namedview
     id="base"
     pagecolor="#ffffff"
     bordercolor="#666666"
     borderopacity="1.0"
     inkscape:pageopacity="0.0"
     inkscape:pageshadow="2"
     inkscape:zoom="3.8890873"
     inkscape:cx="35.515152"
     inkscape:cy="30.540507"
     inkscape:current-layer="layer1"
     showgrid="true"
     inkscape:document-units="px"
     inkscape:grid-bbox="true"
     inkscape:window-width="811"
     inkscape:window-height="609"
     inkscape:window-x="306"
     inkscape:window-y="128"
     inkscape:window-maximized="0">
    <inkscape:grid
       type="xygrid"
       id="grid3081" />
  </sodipodi:namedview>
  <metadata
     id="metadata4137">
    <rdf:RDF>
      <cc:Work
         rdf:about="">
        <dc:format>image/svg+xml</dc:format>
        <dc:type
           rdf:resource="http://purl.org/dc/dcmitype/StillImage" />
        <dc:title />
      </cc:Work>
    </rdf:RDF>
  </metadata>
  <g
     id="layer1"
     inkscape:label="Layer 1"
     inkscape:groupmode="layer">
    <rect
       style="opacity:0.3;fill:url(#linearGradient4130);fill-opacity:1;fill-rule:nonzero;stroke:none;stroke-width:1;marker:none;visibility:visible;display:inline;overflow:visible"
       id="rect2879"
       y="57.000004"
       x="9.8999996"
       height="5"
       width="44.199997" />
    <path
       inkscape:connector-curvature="0"
       style="opacity:0.3;fill:url(#radialGradient3156);fill-opacity:1;fill-rule:nonzero;stroke:none;stroke-width:1;marker:none;visibility:visible;display:inline;overflow:visible"
       id="path2881"
       d="m 9.9,57.00022 c 0,0 0,4.9997 0,4.9997 -1.6132281,0.01 -3.9,-1.1202 -3.9,-2.5002 0,-1.38 1.8002408,-2.4995 3.9,-2.4995 z" />
    <path
       inkscape:connector-curvature="0"
       style="opacity:0.3;fill:url(#radialGradient3153);fill-opacity:1;fill-rule:nonzero;stroke:none;stroke-width:1;marker:none;visibility:visible;display:inline;overflow:visible"
       id="path2883"
       d="m 54.099999,57.00022 c 0,0 0,4.9997 0,4.9997 C 55.713227,62.00992 58,60.87972 58,59.49972 c 0,-1.38 -1.800241,-2.4995 -3.900001,-2.4995 z" />
    <path
       inkscape:connector-curvature="0"
       style="fill:url(#linearGradient3096);fill-opacity:1;stroke:none;display:inline"
       id="path4160-6"
       d="m 9,0.9998799 c 10.540935,0 45.999945,0.004 45.999945,0.004 L 55,59.00002 c 0,0 -30.666666,0 -46,0 0,-19.3334 0,-38.6665 0,-57.9998201 z"
       sodipodi:nodetypes="ccccc" />
    <path
       style="fill:none;stroke:url(#linearGradient3093);stroke-width:1;stroke-linecap:round;stroke-linejoin:miter;stroke-miterlimit:4;stroke-opacity:1;stroke-dasharray:none;stroke-dashoffset:0"
       d="m 54.499999,58.50002 -44.9999992,0 0,-57.0000401 44.9999992,0 z"
       id="rect6741-1-8"
       inkscape:connector-curvature="0"
       sodipodi:nodetypes="ccccc" />
    <path
       inkscape:connector-curvature="0"
       style="fill:none;stroke:url(#linearGradient3033);stroke-width:0.9999218;stroke-linecap:butt;stroke-linejoin:round;stroke-miterlimit:4;stroke-opacity:1;stroke-dasharray:none;stroke-dashoffset:0;display:inline"
       id="path4160-6-1"
       d="m 8.4999684,0.4998999 c 10.7700936,0 47.0000286,0.004 47.0000286,0.004 l 4.9e-5,58.9962201 c 0,0 -31.333384,0 -47.0000776,0 0,-19.6668 0,-39.3334 0,-58.9999701 z"
       sodipodi:nodetypes="ccccc" />
    <g
       id="g3942">
      <path
         sodipodi:nodetypes="ccccccccccccccccccccccccccccccccccccccccccccccccccccccccccccccccccccccccccccccccccccccccccccccccccccccccccccccccccccccccccccccccccccccccccccccccccccccccccccccccccccccccccccccccccccccccccccccccccccccccccccc"
         id="path4149"
         d="m 15,9 0,1 3.189283,0 0,-1 z m 3.608926,0 0,1 3.021426,0 0,-1 z m 3.441069,0 0,1 2.643748,0 0,-1 z m 3.063391,0 0,1 1.174999,0 0,-1 z m 1.594642,0 0,1 2.601784,0 0,-1 z m 3.063391,0 0,1 6.714281,0 0,-1 z M 15,12 l 0,1 5.077675,0 0,-1 z m 5.581246,0 0,1 2.433927,0 0,-1 z m 2.895534,0 0,1 1.133035,0 0,-1 z m 1.636606,0 0,1 2.182141,0 0,-1 z m 2.685712,0 0,1 2.182142,0 0,-1 z m 2.643749,0 0,1 3.566962,0 0,-1 z m 4.070533,0 0,1 4.658032,0 0,-1 z M 15,15 l 0,1 5.62321,0 0,-1 z m 6.042853,0 0,1 6.042853,0 0,-1 z M 15,18 l 0,1 3.105355,0 0,-1 z m 3.524997,0 0,1 2.895534,0 0,-1 z m 3.315177,0 0,1 2.559819,0 0,-1 z m 5.119639,6 0,1 2.55982,0 0,-1 z m 2.979463,0 0,1 2.559819,0 0,-1 z m 2.979462,0 0,1 3.692855,0 0,-1 z m 4.154462,0 0,1 0.755356,0 0,-1 z m -9.987494,9 0,1 3.147319,0 0,-1 z m 3.566962,0 0,1 2.937498,0 0,-1 z m 3.357141,0 0,1 2.475891,0 0,-1 z m -6.924103,3 0,1 2.517856,0 0,-1 z m 2.937498,0 0,1 6.462496,0 0,-1 z m 6.882139,0 0,1 4.951782,0 0,-1 z m -9.819637,3 0,1 3.273212,0 0,-1 z m 3.734819,0 0,1 5.749103,0 0,-1 z m 6.168746,0 0,1 3.94464,0 0,-1 z m -9.903565,3 0,1 2.517856,0 0,-1 z m 2.937498,0 0,1 2.55982,0 0,-1 z m 2.979462,0 0,1 3.650891,0 0,-1 z m 4.070534,0 0,1 0.755356,0 0,-1 z m 1.174999,0 0,1 4.741961,0 0,-1 z m -11.246421,9 0,1 3.273212,0 0,-1 z m 3.692854,0 0,1 3.021427,0 0,-1 z m 3.483034,0 0,1 2.601784,0 0,-1 z m 3.021426,0 0,1 4.154462,0 0,-1 z m 4.616069,0 0,1 6.756245,0 0,-1 z"
         style="fill:url(#linearGradient3940);fill-opacity:1;stroke:none;display:inline"
         inkscape:connector-curvature="0" />
      <path
         sodipodi:nodetypes="cccccccccc"
         id="path4063"
         d="m 15,21 0,1 4.112497,0 0,-1 z m 0,3 0,1 4.154461,0 0,-1 z"
         style="fill:url(#linearGradient3938);fill-opacity:1;stroke:none;display:inline"
         inkscape:connector-curvature="0" />
      <path
         sodipodi:nodetypes="cccccccccccccccccccccccccccccccccccccccccccccccccccccccccccccccccccccccccccccccc"
         id="path4061"
         d="m 19.574104,21 0,1 7.511602,0 0,-1 z m 0.04196,3 0,1 6.840174,0 0,-1 z m 1.594642,21 0,1 6.168746,0 0,-1 z m 6.630353,0 0,1 2.433927,0 0,-1 z m 2.895534,0 0,1 5.791067,0 0,-1 z m 6.252674,0 0,1 3.986605,0 0,-1 z m 4.406247,0 0,1 1.552678,0 0,-1 z m 2.014285,0 0,1 0.923213,0 0,-1 z m 1.342856,0 0,1 2.475891,0 0,-1 z m -21.527665,3 0,1 1.091071,0 0,-1 z m 1.384821,0 0,1 2.182141,0 0,-1 z m 2.517855,0 0,1 2.182142,0 0,-1 z m 2.85357,0 0,1 3.483033,0 0,-1 z m 3.902676,0 0,1 4.53214,0 0,-1 z m 5.161604,0 0,1 3.063391,0 0,-1 z m 3.441069,0 0,1 0.713392,0 0,-1 z"
         style="fill:url(#linearGradient3934);fill-opacity:1;stroke:none;display:inline"
         inkscape:connector-curvature="0" />
      <path
         sodipodi:nodetypes="ccccc"
         d="m 15,51 4.077913,0 0,1 L 15,52 z"
         id="path4009"
         style="fill:url(#linearGradient3936);fill-opacity:1;stroke:none;display:inline"
         inkscape:connector-curvature="0" />
      <path
         sodipodi:nodetypes="cccccccccccccccccccccccccccccccccccccccccccccccccc"
         id="path4007"
         d="m 18.692854,27 0,1 3.021427,0 0,-1 z M 15,30 l 0,1 1.342856,0 0,-1 z m 4.23839,3 0,1 2.475891,0 0,-1 z m 0.167857,3 0,1 3.65089,0 0,-1 z m -0.461607,3 0,1 2.769641,0 0,-1 z m -0.503571,3 0,1 2.853569,0 0,-1 z M 15,45 l 0,1 5.749103,0 0,-1 z m 0,3 0,1 4.951782,0 0,-1 z m 5.32946,0 0,1 2.391963,0 0,-1 z m -0.839285,3 0,1 4.490176,0 0,-1 z"
         style="fill:url(#linearGradient3930);fill-opacity:1;stroke:none;display:inline"
         inkscape:connector-curvature="0" />
      <path
         sodipodi:nodetypes="ccccccccccccccccccccccccc"
         id="path5302"
         d="m 15,27 0,1 3.147319,0 0,-1 z m 0,6 0,1 3.692854,0 0,-1 z m 0,3 0,1 3.94464,0 0,-1 z m 0,3 0,1 3.399105,0 0,-1 z m 0,3 0,1 2.979462,0 0,-1 z"
         style="fill:url(#linearGradient3932);fill-opacity:1;stroke:none;display:inline"
         inkscape:connector-curvature="0" />
    </g>
    <path
       sodipodi:nodetypes="cccssccscccccccccccccccccsccccccccccccccccccccccccscccsccsccccc"
       inkscape:connector-curvature="0"
       d="m 44.075069,34.875 c -1.3e-5,0.916671 -0.16668,1.718754 -0.5,2.40625 -0.333347,0.687502 -0.807305,1.260419 -1.421875,1.71875 -0.614593,0.458334 -1.359386,0.802084 -2.234375,1.03125 -0.875008,0.229167 -1.854174,0.34375 -2.9375,0.34375 -0.572922,0 -1.104172,-0.02083 -1.59375,-0.0625 -0.489587,-0.03125 -0.95313,-0.08854 -1.390625,-0.171875 -0.437503,-0.08333 -0.859378,-0.1875 -1.265625,-0.3125 -0.40625,-0.124999 -0.81771,-0.281249 -1.234375,-0.46875 l 0,-3.9375 c 0.4375,0.218755 0.895832,0.416671 1.375,0.59375 0.48958,0.177088 0.973954,0.333337 1.453125,0.46875 0.479163,0.125004 0.942704,0.223962 1.390625,0.296875 0.458328,0.07292 0.880203,0.109379 1.265625,0.109375 0.427076,4e-6 0.79166,-0.03646 1.09375,-0.109375 0.302076,-0.08333 0.546867,-0.192704 0.734375,-0.328125 0.197908,-0.145829 0.338532,-0.312496 0.421875,-0.5 0.09374,-0.197912 0.140617,-0.406245 0.140625,-0.625 -8e-6,-0.218745 -0.03647,-0.411453 -0.109375,-0.578125 -0.06251,-0.177077 -0.213549,-0.359369 -0.453125,-0.546875 -0.23959,-0.19791 -0.593758,-0.41666 -1.0625,-0.65625 -0.45834,-0.249993 -1.078132,-0.552076 -1.859375,-0.90625 -0.760421,-0.343742 -1.42188,-0.682283 -1.984375,-1.015625 -0.552087,-0.343741 -1.01042,-0.723949 -1.375,-1.140625 -0.354168,-0.416656 -0.619793,-0.890614 -0.796875,-1.421875 -0.177085,-0.541655 -0.265625,-1.182279 -0.265625,-1.921875 0,-0.812486 0.15625,-1.520819 0.46875,-2.125 0.3125,-0.614567 0.755207,-1.124983 1.328125,-1.53125 0.572913,-0.406233 1.260413,-0.708316 2.0625,-0.90625 0.812495,-0.208315 1.713535,-0.312482 2.703125,-0.3125 1.041658,1.8e-5 2.03124,0.11981 2.96875,0.359375 0.937488,0.239601 1.90103,0.598976 2.890625,1.078125 l -1.4375,3.375 c -0.791677,-0.374986 -1.546886,-0.682278 -2.265625,-0.921875 -0.71876,-0.239569 -1.437508,-0.35936 -2.15625,-0.359375 -0.64584,1.5e-5 -1.11459,0.114598 -1.40625,0.34375 -0.281255,0.229181 -0.42188,0.54168 -0.421875,0.9375 -5e-6,0.208346 0.03645,0.395846 0.109375,0.5625 0.07291,0.156263 0.218744,0.322929 0.4375,0.5 0.218744,0.166679 0.526035,0.354179 0.921875,0.5625 0.395826,0.197928 0.911451,0.44272 1.546875,0.734375 0.739574,0.322927 1.406239,0.645844 2,0.96875 0.593738,0.31251 1.104155,0.671884 1.53125,1.078125 0.42707,0.406259 0.755195,0.880216 0.984375,1.421875 0.229153,0.541674 0.343737,1.197923 0.34375,1.96875 M 19.548507,46.78125 c -0.677083,-6e-6 -1.270831,-0.03646 -1.78125,-0.109375 -0.510414,-0.06251 -0.942706,-0.140631 -1.296875,-0.234375 l 0,-4.03125 c 0.385419,0.08333 0.791669,0.156248 1.21875,0.21875 0.416669,0.0625 0.875002,0.09375 1.375,0.09375 0.479167,-2e-6 0.921875,-0.05209 1.328125,-0.15625 0.416665,-0.104169 0.77604,-0.28646 1.078125,-0.546875 0.312499,-0.250001 0.552082,-0.588543 0.71875,-1.015625 0.177082,-0.427083 0.265622,-0.963541 0.265625,-1.609375 l 0,-22.171875 5.090626,0 0,22.015625 c 0,1.3125 -0.192716,2.442707 -0.578125,3.390625 -0.375007,0.947914 -0.906256,1.729163 -1.59375,2.34375 -0.677088,0.624995 -1.489587,1.083328 -2.4375,1.375 -0.947919,0.29166 -1.994793,0.437494 -3.140625,0.4375 z"
       style="font-size:32px;font-style:normal;font-variant:normal;font-weight:bold;font-stretch:normal;line-height:125%;letter-spacing:0px;word-spacing:0px;color:#000000;fill:url(#radialGradient3077);fill-opacity:1;fill-rule:nonzero;stroke:url(#linearGradient3079);stroke-width:1;stroke-linecap:butt;stroke-linejoin:round;stroke-miterlimit:4;stroke-opacity:1;stroke-dashoffset:0;marker:none;visibility:visible;font-family:Droid Sans;-inkscape-font-specification:Droid Sans Bold"
       id="path4474" />
    <path
       inkscape:connector-curvature="0"
       style="opacity:0.5;color:#000000;fill:none;stroke:url(#linearGradient4467-5);stroke-width:1;stroke-linecap:butt;stroke-linejoin:round;stroke-miterlimit:4;stroke-opacity:1;stroke-dashoffset:0;marker:none;visibility:visible;display:inline;overflow:visible;enable-background:accumulate"
       d="m 23.501632,18.24375 0,21.15625 c -3e-6,0.745207 -0.146044,1.405727 -0.375,1.96875 l 0.03125,0 c -0.0053,0.01356 -0.02582,0.01774 -0.03125,0.03125 -0.212909,0.529768 -0.516413,1.032952 -0.96875,1.40625 -0.01075,0.0093 -0.02039,0.02213 -0.03125,0.03125 -0.423641,0.355466 -0.944019,0.587564 -1.46875,0.71875 -0.506804,0.129941 -1.039912,0.187498 -1.59375,0.1875 -0.542933,0 -1.054787,-0.02228 -1.53125,-0.09375 -0.01053,-0.0015 -0.02074,0.0016 -0.03125,0 l 0,1.9375 c 0.141992,0.02453 0.249998,0.04337 0.40625,0.0625 a 1.0305145,1.0305145 0 0 1 0.03125,0 c 0.432697,0.06181 0.937794,0.09374 1.59375,0.09375 l 0.25,0 c 1.058406,-6e-6 2.010407,-0.149843 2.84375,-0.40625 0.816097,-0.251112 1.502811,-0.608372 2.0625,-1.125 a 1.0305145,1.0305145 0 0 1 0,-0.03125 c 0.560656,-0.5012 0.988708,-1.119043 1.3125,-1.9375 0.320743,-0.788872 0.5,-1.780187 0.5,-3 l 0,-21 -3,0 z"
       id="path4592" />
    <path
       inkscape:connector-curvature="0"
       style="opacity:0.5;color:#000000;fill:none;stroke:url(#linearGradient4596);stroke-width:1;stroke-linecap:butt;stroke-linejoin:round;stroke-miterlimit:4;stroke-opacity:1;stroke-dashoffset:0;marker:none;visibility:visible;display:inline;overflow:visible;enable-background:accumulate"
       d="m 38.032882,23.30625 c -0.917292,1.7e-5 -1.756813,0.09872 -2.46875,0.28125 -0.698295,0.172321 -1.266506,0.42933 -1.71875,0.75 -0.437834,0.310476 -0.754945,0.674321 -1,1.15625 -0.225909,0.436769 -0.34375,0.975871 -0.34375,1.65625 0,0.67187 0.0572,1.195213 0.1875,1.59375 0.130758,0.392284 0.362604,0.748632 0.625,1.0625 0.278909,0.318762 0.63321,0.631301 1.125,0.9375 0.540285,0.32018 1.157109,0.644233 1.875,0.96875 0.780224,0.353712 1.405618,0.665645 1.90625,0.9375 0.0091,0.0047 0.02219,-0.0047 0.03125,0 0.480314,0.246699 0.862958,0.487079 1.1875,0.75 0.01,0.0081 0.02142,0.02313 0.03125,0.03125 0.294073,0.235692 0.56733,0.528196 0.71875,0.90625 0.0064,0.0161 -0.006,0.04609 0,0.0625 0.0023,0.0064 0.02897,-0.0065 0.03125,0 0.113178,0.2766 0.187487,0.580503 0.1875,0.9375 -1.4e-5,0.403436 -0.117348,0.744983 -0.25,1.03125 -0.0031,0.0069 0.0032,0.02432 0,0.03125 l -0.03125,0 c -0.149014,0.317911 -0.366906,0.67002 -0.6875,0.90625 a 1.0305145,1.0305145 0 0 1 -0.03125,0 c -0.371623,0.268392 -0.715789,0.373107 -1.0625,0.46875 a 1.0305145,1.0305145 0 0 1 -0.03125,0 c -0.377097,0.09102 -0.832884,0.156255 -1.34375,0.15625 -0.478259,5e-6 -0.929803,-0.0492 -1.40625,-0.125 -0.455786,-0.07419 -0.966714,-0.173376 -1.5,-0.3125 a 1.0305145,1.0305145 0 0 1 -0.03125,0 c -0.509552,-0.143999 -0.994897,-0.317297 -1.5,-0.5 l 0,1.65625 c 0.165642,0.0631 0.337351,0.137455 0.5,0.1875 0.361297,0.111169 0.749767,0.235078 1.15625,0.3125 0.372518,0.07096 0.778647,0.09491 1.25,0.125 a 1.0305145,1.0305145 0 0 1 0.03125,0 c 0.455729,0.03879 0.952053,0.0625 1.5,0.0625 1.010667,0 1.913315,-0.109739 2.6875,-0.3125 0.772227,-0.202251 1.388996,-0.481312 1.875,-0.84375 0.481505,-0.359094 0.824127,-0.787673 1.09375,-1.34375 0.254892,-0.525735 0.406239,-1.176969 0.40625,-1.96875 -1.1e-5,-0.668723 -0.08918,-1.182344 -0.25,-1.5625 -0.179479,-0.424194 -0.421466,-0.749975 -0.75,-1.0625 -0.359487,-0.341935 -0.77277,-0.669865 -1.28125,-0.9375 a 1.0305145,1.0305145 0 0 1 -0.03125,0 c -0.562671,-0.305998 -1.189427,-0.624508 -1.90625,-0.9375 a 1.0305145,1.0305145 0 0 1 -0.03125,0 c -0.623517,-0.28619 -1.152628,-0.529422 -1.59375,-0.75 -0.436734,-0.229842 -0.788848,-0.447732 -1.0625,-0.65625 a 1.0305145,1.0305145 0 0 1 -0.03125,0 c -0.290458,-0.235108 -0.541936,-0.496046 -0.71875,-0.875 a 1.0305145,1.0305145 0 0 1 0,-0.03125 c -0.114485,-0.26163 -0.218758,-0.588675 -0.21875,-0.96875 -8e-6,-0.666997 0.320535,-1.349121 0.8125,-1.75 a 1.0305145,1.0305145 0 0 1 0.03125,0 c 0.582187,-0.457414 1.263546,-0.562482 2.03125,-0.5625 0.818286,1.7e-5 1.6395,0.129854 2.46875,0.40625 0.461194,0.153742 0.941007,0.360676 1.40625,0.5625 l 0.625,-1.4375 c -0.602418,-0.253026 -1.218094,-0.54357 -1.78125,-0.6875 -0.838413,-0.214242 -1.745775,-0.312483 -2.71875,-0.3125 z"
       id="rect4585" />
  </g>
</svg>
