<?xml version="1.0" encoding="UTF-8" standalone="no"?>
<!-- Created with Inkscape (http://www.inkscape.org/) -->

<svg
   xmlns:dc="http://purl.org/dc/elements/1.1/"
   xmlns:cc="http://creativecommons.org/ns#"
   xmlns:rdf="http://www.w3.org/1999/02/22-rdf-syntax-ns#"
   xmlns:svg="http://www.w3.org/2000/svg"
   xmlns="http://www.w3.org/2000/svg"
   xmlns:xlink="http://www.w3.org/1999/xlink"
   xmlns:sodipodi="http://sodipodi.sourceforge.net/DTD/sodipodi-0.dtd"
   xmlns:inkscape="http://www.inkscape.org/namespaces/inkscape"
   width="64"
   height="64"
   id="svg3231"
   version="1.1"
   inkscape:version="0.48.3.1 r9886"
   sodipodi:docname="video-x-generic.svg"
   inkscape:export-filename="/home/daniel/Projects/4.0/WIP/mimes/video-x-generic/48/video-x-generic.png"
   inkscape:export-xdpi="90"
   inkscape:export-ydpi="90">
  <defs
     id="defs3233">
    <linearGradient
       inkscape:collect="always"
       xlink:href="#linearGradient8265-821-176-38-919-66-249-7-7-7"
       id="linearGradient3182"
       gradientUnits="userSpaceOnUse"
       gradientTransform="matrix(0.90959365,0,0,1.3012336,2.1271914,-17.432921)"
       x1="21.565845"
       y1="18.657814"
       x2="29.800396"
       y2="32.933372" />
    <linearGradient
       id="linearGradient8265-821-176-38-919-66-249-7-7-7">
      <stop
         id="stop2687-1-9-8"
         style="stop-color:#ffffff;stop-opacity:1"
         offset="0" />
      <stop
         id="stop2689-5-4-6"
         style="stop-color:#ffffff;stop-opacity:0"
         offset="1" />
    </linearGradient>
    <linearGradient
       inkscape:collect="always"
       xlink:href="#linearGradient3707-319-631-407-324-616-674-812-821-107-178-392-400-7-3-5"
       id="linearGradient5104-88"
       gradientUnits="userSpaceOnUse"
       gradientTransform="matrix(0.42132707,0,0,0.42413288,-33.192592,61.209636)"
       x1="149.98465"
       y1="-104.23534"
       x2="149.98465"
       y2="-174.9679" />
    <linearGradient
       id="linearGradient3707-319-631-407-324-616-674-812-821-107-178-392-400-7-3-5">
      <stop
         id="stop5440-9-8-4"
         style="stop-color:#272727;stop-opacity:1;"
         offset="0" />
      <stop
         id="stop5442-0-9-2"
         style="stop-color:#454545;stop-opacity:1;"
         offset="1" />
    </linearGradient>
    <linearGradient
       inkscape:collect="always"
       xlink:href="#linearGradient4640"
       id="linearGradient3185"
       gradientUnits="userSpaceOnUse"
       gradientTransform="matrix(1.108108,0,0,1,-2.5945911,-14.999989)"
       x1="23.99999"
       y1="4.999989"
       x2="23.99999"
       y2="57.32991" />
    <linearGradient
       id="linearGradient4640">
      <stop
         id="stop4642"
         style="stop-color:#ffffff;stop-opacity:1;"
         offset="0" />
      <stop
         offset="0.0310698"
         style="stop-color:#ffffff;stop-opacity:0.23529412;"
         id="stop4644" />
      <stop
         id="stop4646"
         style="stop-color:#ffffff;stop-opacity:0.15686275;"
         offset="0.97119564" />
      <stop
         id="stop4648"
         style="stop-color:#ffffff;stop-opacity:0.39215687;"
         offset="1" />
    </linearGradient>
    <linearGradient
       id="linearGradient2867-449-88-871-390-598-476-591-434-148-57-177-641-289-620-227-114-444-680-744-921-551">
      <stop
         id="stop4445"
         style="stop-color:#4d4d4d;stop-opacity:1;"
         offset="0" />
      <stop
         id="stop4447"
         style="stop-color:#404040;stop-opacity:1;"
         offset="0.26238" />
      <stop
         id="stop4449"
         style="stop-color:#303030;stop-opacity:1;"
         offset="0.704952" />
      <stop
         id="stop4451"
         style="stop-color:#232323;stop-opacity:1;"
         offset="1" />
    </linearGradient>
    <linearGradient
       id="linearGradient3707-319-631-407-324-616-674-812-821-107-178-392-400-671-944">
      <stop
         id="stop4455"
         style="stop-color:#202020;stop-opacity:1;"
         offset="0" />
      <stop
         id="stop4457"
         style="stop-color:#383838;stop-opacity:1;"
         offset="1" />
    </linearGradient>
    <linearGradient
       id="linearGradient3688-166-749-2-324">
      <stop
         offset="0"
         style="stop-color:#181818;stop-opacity:1"
         id="stop3216" />
      <stop
         offset="1"
         style="stop-color:#181818;stop-opacity:0"
         id="stop3218" />
    </linearGradient>
    <linearGradient
       id="linearGradient3688-464-309-8-331">
      <stop
         offset="0"
         style="stop-color:#181818;stop-opacity:1"
         id="stop3222" />
      <stop
         offset="1"
         style="stop-color:#181818;stop-opacity:0"
         id="stop3224" />
    </linearGradient>
    <linearGradient
       id="linearGradient3702-501-757-6-946">
      <stop
         offset="0"
         style="stop-color:#181818;stop-opacity:0"
         id="stop3228" />
      <stop
         offset="0.5"
         style="stop-color:#181818;stop-opacity:1"
         id="stop3230" />
      <stop
         offset="1"
         style="stop-color:#181818;stop-opacity:0"
         id="stop3232" />
    </linearGradient>
    <linearGradient
       y2="12.118899"
       x2="6.1911855"
       y1="13.900338"
       x1="6.1911855"
       gradientTransform="translate(35,30)"
       gradientUnits="userSpaceOnUse"
       id="linearGradient3889-9-8-0"
       xlink:href="#linearGradient3798-44-1-9-1"
       inkscape:collect="always" />
    <linearGradient
       inkscape:collect="always"
       id="linearGradient3798-44-1-9-1">
      <stop
         style="stop-color:#ffffff;stop-opacity:1;"
         offset="0"
         id="stop3800-9-4-2-1" />
      <stop
         style="stop-color:#ffffff;stop-opacity:0;"
         offset="1"
         id="stop3802-93-6-8-0" />
    </linearGradient>
    <radialGradient
       inkscape:collect="always"
       xlink:href="#linearGradient2867-449-88-871-390-598-476-591-434-148-57-177-641-289-620-227-114-444-680-744-921-551-5"
       id="radialGradient3059-0"
       gradientUnits="userSpaceOnUse"
       gradientTransform="matrix(2.1421132e-8,2.3369902,-2.7258215,-4.3056278e-8,47.032681,-27.434801)"
       cx="7.4956832"
       cy="8.4497671"
       fx="7.4956832"
       fy="8.4497671"
       r="19.99999" />
    <linearGradient
       id="linearGradient2867-449-88-871-390-598-476-591-434-148-57-177-641-289-620-227-114-444-680-744-921-551-5">
      <stop
         id="stop4445-5"
         style="stop-color:#4d4d4d;stop-opacity:1;"
         offset="0" />
      <stop
         id="stop4447-7"
         style="stop-color:#404040;stop-opacity:1;"
         offset="0.26238" />
      <stop
         id="stop4449-2"
         style="stop-color:#303030;stop-opacity:1;"
         offset="0.704952" />
      <stop
         id="stop4451-9"
         style="stop-color:#232323;stop-opacity:1;"
         offset="1" />
    </linearGradient>
    <linearGradient
       inkscape:collect="always"
       xlink:href="#linearGradient3707-319-631-407-324-616-674-812-821-107-178-392-400-671-944-7"
       id="linearGradient3061-3"
       gradientUnits="userSpaceOnUse"
       gradientTransform="matrix(1.1025642,0,0,0.99999998,-2.4615381,-15.000001)"
       x1="24"
       y1="44"
       x2="24"
       y2="3.8990016" />
    <linearGradient
       id="linearGradient3707-319-631-407-324-616-674-812-821-107-178-392-400-671-944-7">
      <stop
         id="stop4455-3"
         style="stop-color:#202020;stop-opacity:1;"
         offset="0" />
      <stop
         id="stop4457-1"
         style="stop-color:#383838;stop-opacity:1;"
         offset="1" />
    </linearGradient>
    <radialGradient
       inkscape:collect="always"
       xlink:href="#linearGradient2867-449-88-871-390-598-476-591-434-148-57-177-641-289-620-227-114-444-680-744-921-551"
       id="radialGradient3241"
       gradientUnits="userSpaceOnUse"
       gradientTransform="matrix(2.1421132e-8,2.3369902,-2.7258215,-4.3056278e-8,47.032681,-27.434801)"
       cx="7.4956832"
       cy="8.4497671"
       fx="7.4956832"
       fy="8.4497671"
       r="19.99999" />
    <linearGradient
       inkscape:collect="always"
       xlink:href="#linearGradient3707-319-631-407-324-616-674-812-821-107-178-392-400-671-944"
       id="linearGradient3243"
       gradientUnits="userSpaceOnUse"
       gradientTransform="matrix(1.1025642,0,0,0.99999998,-2.4615381,-15.000001)"
       x1="24"
       y1="44"
       x2="24"
       y2="3.8990016" />
    <linearGradient
       inkscape:collect="always"
       xlink:href="#linearGradient3798-44-1-9-1"
       id="linearGradient4502"
       gradientUnits="userSpaceOnUse"
       gradientTransform="translate(34.999999,14.000001)"
       x1="37.103531"
       y1="28.399309"
       x2="37.103531"
       y2="23.210093" />
    <linearGradient
       inkscape:collect="always"
       xlink:href="#linearGradient3798-44-1-9-1"
       id="linearGradient4506"
       gradientUnits="userSpaceOnUse"
       gradientTransform="translate(34.999999,14.000001)"
       x1="37.103531"
       y1="28.399309"
       x2="37.103531"
       y2="23.210093" />
    <linearGradient
       inkscape:collect="always"
       xlink:href="#linearGradient3798-44-1-9-1"
       id="linearGradient4510"
       gradientUnits="userSpaceOnUse"
       gradientTransform="translate(34.999999,14.000001)"
       x1="37.103531"
       y1="28.399309"
       x2="37.103531"
       y2="23.210093" />
    <linearGradient
       inkscape:collect="always"
       xlink:href="#linearGradient3798-44-1-9-1"
       id="linearGradient4514"
       gradientUnits="userSpaceOnUse"
       gradientTransform="translate(34.999999,14.000001)"
       x1="37.103531"
       y1="28.399309"
       x2="37.103531"
       y2="23.210093" />
    <linearGradient
       inkscape:collect="always"
       xlink:href="#linearGradient3798-44-1-9-1"
       id="linearGradient4518"
       gradientUnits="userSpaceOnUse"
       gradientTransform="translate(34.999999,14.000001)"
       x1="37.103531"
       y1="28.399309"
       x2="37.103531"
       y2="23.210093" />
    <linearGradient
       inkscape:collect="always"
       xlink:href="#linearGradient3798-44-1-9-1"
       id="linearGradient4522"
       gradientUnits="userSpaceOnUse"
       gradientTransform="translate(34.999999,14.000001)"
       x1="37.103531"
       y1="28.399309"
       x2="37.103531"
       y2="23.210093" />
    <linearGradient
       inkscape:collect="always"
       xlink:href="#linearGradient3798-44-1-9-1"
       id="linearGradient4526"
       gradientUnits="userSpaceOnUse"
       gradientTransform="translate(34.999999,14.000001)"
       x1="37.103531"
       y1="28.399309"
       x2="37.103531"
       y2="23.210093" />
    <linearGradient
       inkscape:collect="always"
       xlink:href="#linearGradient3798-44-1-9-1"
       id="linearGradient4568"
       gradientUnits="userSpaceOnUse"
       gradientTransform="translate(34.999999,14.000001)"
       x1="37.103531"
       y1="-13.708596"
       x2="37.103531"
       y2="-21.333338" />
    <linearGradient
       inkscape:collect="always"
       xlink:href="#linearGradient3798-44-1-9-1"
       id="linearGradient4571"
       gradientUnits="userSpaceOnUse"
       gradientTransform="translate(34.999999,14.000001)"
       x1="37.103531"
       y1="-13.708596"
       x2="37.103531"
       y2="-21.333338" />
    <linearGradient
       inkscape:collect="always"
       xlink:href="#linearGradient3798-44-1-9-1"
       id="linearGradient4574"
       gradientUnits="userSpaceOnUse"
       gradientTransform="translate(34.999999,14.000001)"
       x1="37.103531"
       y1="-13.708596"
       x2="37.103531"
       y2="-21.333338" />
    <linearGradient
       inkscape:collect="always"
       xlink:href="#linearGradient3798-44-1-9-1"
       id="linearGradient4577"
       gradientUnits="userSpaceOnUse"
       gradientTransform="translate(34.999999,14.000001)"
       x1="37.103531"
       y1="-13.708596"
       x2="37.103531"
       y2="-21.333338" />
    <linearGradient
       inkscape:collect="always"
       xlink:href="#linearGradient3798-44-1-9-1"
       id="linearGradient4580"
       gradientUnits="userSpaceOnUse"
       gradientTransform="translate(34.999999,14.000001)"
       x1="37.103531"
       y1="-13.708596"
       x2="37.103531"
       y2="-21.333338" />
    <linearGradient
       inkscape:collect="always"
       xlink:href="#linearGradient3798-44-1-9-1"
       id="linearGradient4583"
       gradientUnits="userSpaceOnUse"
       gradientTransform="translate(34.999999,14.000001)"
       x1="37.103531"
       y1="-13.708596"
       x2="37.103531"
       y2="-21.333338" />
    <linearGradient
       inkscape:collect="always"
       xlink:href="#linearGradient3798-44-1-9-1"
       id="linearGradient4586"
       gradientUnits="userSpaceOnUse"
       gradientTransform="translate(34.999999,14.000001)"
       x1="37.103531"
       y1="-13.708596"
       x2="37.103531"
       y2="-21.333338" />
  </defs>
  <sodipodi:namedview
     id="base"
     pagecolor="#ffffff"
     bordercolor="#666666"
     borderopacity="1.0"
     inkscape:pageopacity="0.0"
     inkscape:pageshadow="2"
     inkscape:zoom="4.08"
     inkscape:cx="52.611234"
     inkscape:cy="52.550215"
     inkscape:current-layer="layer1"
     showgrid="true"
     inkscape:grid-bbox="true"
     inkscape:document-units="px"
     inkscape:window-width="1280"
     inkscape:window-height="751"
     inkscape:window-x="0"
     inkscape:window-y="25"
     inkscape:window-maximized="1" />
  <metadata
     id="metadata3236">
    <rdf:RDF>
      <cc:Work
         rdf:about="">
        <dc:format>image/svg+xml</dc:format>
        <dc:type
           rdf:resource="http://purl.org/dc/dcmitype/StillImage" />
        <dc:title></dc:title>
      </cc:Work>
    </rdf:RDF>
  </metadata>
  <g
     id="layer1"
     inkscape:label="Layer 1"
     inkscape:groupmode="layer"
     transform="translate(0,16)">
    <g
       id="g3245">
      <path
         id="path3211"
         style="color:#000000;fill:url(#radialGradient3241);fill-opacity:1;fill-rule:nonzero;stroke:url(#linearGradient3243);stroke-width:1;stroke-linecap:round;stroke-linejoin:round;stroke-miterlimit:4;stroke-opacity:1;stroke-dasharray:none;stroke-dashoffset:0;marker:none;visibility:visible;display:inline;overflow:visible;enable-background:accumulate"
         d="m 54.127907,-8.837995 2.744187,0 c 0.760139,0 1.372092,0.612339 1.372092,1.37296 l 0,4.118881 c 0,0.760619 -0.611953,1.37296 -1.372092,1.37296 l -2.744187,0 c -0.760139,0 -1.372093,-0.612341 -1.372093,-1.37296 l 0,-4.118881 c 0,-0.760621 0.611954,-1.37296 1.372093,-1.37296 z m -8,0 2.744187,0 c 0.760139,0 1.372092,0.612339 1.372092,1.37296 l 0,4.118881 c 0,0.760619 -0.611953,1.37296 -1.372092,1.37296 l -2.744187,0 c -0.760139,0 -1.372093,-0.612341 -1.372093,-1.37296 l 0,-4.118881 c 0,-0.760621 0.611954,-1.37296 1.372093,-1.37296 z m -7.999999,0 2.744185,0 c 0.76014,0 1.372092,0.612339 1.372092,1.37296 l 0,4.118881 c 0,0.760619 -0.611952,1.37296 -1.372092,1.37296 l -2.744185,0 c -0.760141,0 -1.372093,-0.612341 -1.372093,-1.37296 l 0,-4.118881 c 0,-0.760621 0.611952,-1.37296 1.372093,-1.37296 z m -8.000001,0 2.744185,0 c 0.76014,0 1.372093,0.612339 1.372093,1.37296 l 0,4.118881 c 0,0.760619 -0.611953,1.37296 -1.372093,1.37296 l -2.744185,0 c -0.760139,0 -1.372092,-0.612341 -1.372092,-1.37296 l 0,-4.118881 c 0,-0.760621 0.611953,-1.37296 1.372092,-1.37296 z m -8,0 2.744186,0 c 0.76014,0 1.372093,0.612339 1.372093,1.37296 l 0,4.118881 c 0,0.760619 -0.611953,1.37296 -1.372093,1.37296 l -2.744186,0 c -0.760141,0 -1.372093,-0.612341 -1.372093,-1.37296 l 0,-4.118881 c 0,-0.760621 0.611952,-1.37296 1.372093,-1.37296 z m -8,0 2.744187,0 c 0.760139,0 1.372092,0.612339 1.372092,1.37296 l 0,4.118881 c 0,0.760619 -0.611953,1.37296 -1.372092,1.37296 l -2.744187,0 c -0.76014,0 -1.372093,-0.612341 -1.372093,-1.37296 l 0,-4.118881 c 0,-0.760621 0.611953,-1.37296 1.372093,-1.37296 z m -8.0116283,0 2.7441861,0 c 0.7601392,0 1.3720922,0.612339 1.3720922,1.37296 l 0,4.118881 c 0,0.760619 -0.611953,1.37296 -1.3720922,1.37296 l -2.7441861,0 c -0.7601395,0 -1.3720931,-0.612341 -1.3720931,-1.37296 l 0,-4.118881 c 0,-0.760621 0.6119536,-1.37296 1.3720931,-1.37296 z m 48.0116283,42 2.744187,0 c 0.760139,0 1.372092,0.612339 1.372092,1.37296 l 0,4.118881 c 0,0.760619 -0.611953,1.37296 -1.372092,1.37296 l -2.744187,0 c -0.760139,0 -1.372093,-0.612341 -1.372093,-1.37296 l 0,-4.118881 c 0,-0.760621 0.611954,-1.37296 1.372093,-1.37296 z m -8,0 2.744187,0 c 0.760139,0 1.372092,0.612339 1.372092,1.37296 l 0,4.118881 c 0,0.760619 -0.611953,1.37296 -1.372092,1.37296 l -2.744187,0 c -0.760139,0 -1.372093,-0.612341 -1.372093,-1.37296 l 0,-4.118881 c 0,-0.760621 0.611954,-1.37296 1.372093,-1.37296 z m -7.999999,0 2.744185,0 c 0.76014,0 1.372092,0.612339 1.372092,1.37296 l 0,4.118881 c 0,0.760619 -0.611952,1.37296 -1.372092,1.37296 l -2.744185,0 c -0.760141,0 -1.372093,-0.612341 -1.372093,-1.37296 l 0,-4.118881 c 0,-0.760621 0.611952,-1.37296 1.372093,-1.37296 z m -8.000001,0 2.744185,0 c 0.76014,0 1.372093,0.612339 1.372093,1.37296 l 0,4.118881 c 0,0.760619 -0.611953,1.37296 -1.372093,1.37296 l -2.744185,0 c -0.760139,0 -1.372092,-0.612341 -1.372092,-1.37296 l 0,-4.118881 c 0,-0.760621 0.611953,-1.37296 1.372092,-1.37296 z m -8,0 2.744186,0 c 0.76014,0 1.372093,0.612339 1.372093,1.37296 l 0,4.118881 c 0,0.760619 -0.611953,1.37296 -1.372093,1.37296 l -2.744186,0 c -0.760141,0 -1.372093,-0.612341 -1.372093,-1.37296 l 0,-4.118881 c 0,-0.760621 0.611952,-1.37296 1.372093,-1.37296 z m -8,0 2.744187,0 c 0.760139,0 1.372092,0.612339 1.372092,1.37296 l 0,4.118881 c 0,0.760619 -0.611953,1.37296 -1.372092,1.37296 l -2.744187,0 c -0.76014,0 -1.372093,-0.612341 -1.372093,-1.37296 l 0,-4.118881 c 0,-0.760621 0.611953,-1.37296 1.372093,-1.37296 z m -8.0116283,0 2.7441861,0 c 0.7601392,0 1.3720922,0.612339 1.3720922,1.37296 l 0,4.118881 c 0,0.760619 -0.611953,1.37296 -1.3720922,1.37296 l -2.7441861,0 c -0.7601395,0 -1.3720931,-0.612341 -1.3720931,-1.37296 l 0,-4.118881 c 0,-0.760621 0.6119536,-1.37296 1.3720931,-1.37296 z m -2.244186,-44.389278 c -0.7601396,0 -1.3720931,0.617539 -1.3720931,1.3846148 l 0,51.2307712 c 0,0.767076 0.6119535,1.384615 1.3720931,1.384615 l 56.2558133,0 c 0.76014,0 1.372094,-0.617539 1.372094,-1.384615 l 0,-51.2307712 c 0,-0.7670758 -0.611954,-1.3846148 -1.372094,-1.3846148 z"
         inkscape:connector-curvature="0"
         sodipodi:nodetypes="sssssssssssssssssssssssssssssssssssssssssssssssssssssssssssssssssssssssssssssssssssssssssssssssssssssssssssssssssssssssssssssssssssssss" />
    </g>
    <rect
       style="opacity:0.50000000000000000;fill:none;stroke:url(#linearGradient3185);stroke-width:1;stroke-linecap:round;stroke-linejoin:round;stroke-miterlimit:4;stroke-opacity:1;stroke-dasharray:none;stroke-dashoffset:0"
       id="rect6741-1-4"
       y="-10"
       x="3.5000019"
       height="52"
       width="56.999996" />
    <path
       inkscape:connector-curvature="0"
       id="path5201-7"
       style="color:#000000;fill:url(#linearGradient5104-88);fill-opacity:1;fill-rule:nonzero;stroke:none;stroke-width:1;marker:none;visibility:visible;display:inline;overflow:visible;enable-background:accumulate"
       d="m 28.842553,10.304347 0,8.347827 8.342552,-4.173913 z M 31.97101,3 C 25.635747,3 20.5,8.138993 20.5,14.478261 c 0,6.339268 5.135747,11.47826 11.47101,11.47826 6.335264,0 11.47101,-5.138992 11.47101,-11.47826 C 43.44202,8.138993 38.306274,3 31.97101,3 z m 0,2.086956 c 5.183398,0 9.385372,4.20463 9.385372,9.391305 0,5.186674 -4.201974,9.391304 -9.385372,9.391304 -5.183397,0 -9.385371,-4.20463 -9.385371,-9.391304 0,-5.186675 4.201974,-9.391305 9.385371,-9.391305 z" />
    <path
       inkscape:connector-curvature="0"
       id="path5201"
       style="color:#000000;fill:#d2d2d2;fill-opacity:1;fill-rule:nonzero;stroke:none;stroke-width:0.91666669;marker:none;visibility:visible;display:inline;overflow:visible;enable-background:accumulate"
       d="m 28.842553,11.347826 0,8.347826 8.342552,-4.173913 z M 31.97101,4.0434782 C 25.635747,4.0434782 20.5,9.182471 20.5,15.521739 20.5,21.861007 25.635747,27 31.97101,27 c 6.335264,0 11.47101,-5.138993 11.47101,-11.478261 0,-6.339268 -5.135746,-11.4782608 -11.47101,-11.4782608 z m 0,2.0869568 c 5.183398,0 9.385372,4.204629 9.385372,9.391304 0,5.186674 -4.201974,9.391304 -9.385372,9.391304 -5.183397,0 -9.385371,-4.20463 -9.385371,-9.391304 0,-5.186675 4.201974,-9.391304 9.385371,-9.391304 z" />
    <path
       sodipodi:nodetypes="ccccc"
       d="m 3.0000002,-10.358986 0.019292,32.951051 C 4.6878111,22.55888 59.733557,10.44561 61,9.862949 l 0,-20.221935 c 0,0 -38.717636,0.03252 -57.9999998,0 z"
       id="path3333-3"
       style="opacity:0.20000000000000001;fill:url(#linearGradient3182);fill-opacity:1;fill-rule:evenodd;stroke:none"
       inkscape:connector-curvature="0" />
    <g
       id="g3255" />
    <g
       id="g4528">
      <path
         id="path3297"
         d="m 6.1666535,31.999961 c -1.4773477,0 -2.6666926,1.146867 -2.6666926,2.571451 l 0,3.857176 c 0,1.424584 1.1893449,2.571451 2.6666926,2.571451 l 2.6666926,0 c 1.4773479,0 2.6666909,-1.146867 2.6666909,-2.571451 l 0,-3.857176 c 0,-1.424584 -1.189343,-2.571451 -2.6666909,-2.571451 z"
         style="opacity:0.14999999999999999;color:#000000;fill:none;stroke:url(#linearGradient4502);stroke-width:0.99992179999999997;stroke-opacity:1;marker:none;visibility:visible;display:inline;overflow:visible;enable-background:accumulate"
         inkscape:connector-curvature="0" />
      <path
         inkscape:connector-curvature="0"
         style="opacity:0.14999999999999999;color:#000000;fill:none;stroke:url(#linearGradient4506);stroke-width:0.99992179999999997;stroke-opacity:1;marker:none;visibility:visible;display:inline;overflow:visible;enable-background:accumulate"
         d="m 14.166654,31.999961 c -1.477348,0 -2.666693,1.146867 -2.666693,2.571451 l 0,3.857176 c 0,1.424584 1.189345,2.571451 2.666693,2.571451 l 2.666692,0 c 1.477348,0 2.666691,-1.146867 2.666691,-2.571451 l 0,-3.857176 c 0,-1.424584 -1.189343,-2.571451 -2.666691,-2.571451 z"
         id="path4504" />
      <path
         id="path4508"
         d="m 22.166654,31.999961 c -1.477348,0 -2.666693,1.146867 -2.666693,2.571451 l 0,3.857176 c 0,1.424584 1.189345,2.571451 2.666693,2.571451 l 2.666692,0 c 1.477348,0 2.666691,-1.146867 2.666691,-2.571451 l 0,-3.857176 c 0,-1.424584 -1.189343,-2.571451 -2.666691,-2.571451 z"
         style="opacity:0.14999999999999999;color:#000000;fill:none;stroke:url(#linearGradient4510);stroke-width:0.99992179999999997;stroke-opacity:1;marker:none;visibility:visible;display:inline;overflow:visible;enable-background:accumulate"
         inkscape:connector-curvature="0" />
      <path
         inkscape:connector-curvature="0"
         style="opacity:0.14999999999999999;color:#000000;fill:none;stroke:url(#linearGradient4514);stroke-width:0.99992179999999997;stroke-opacity:1;marker:none;visibility:visible;display:inline;overflow:visible;enable-background:accumulate"
         d="m 30.166658,31.999961 c -1.477348,0 -2.666693,1.146867 -2.666693,2.571451 l 0,3.857176 c 0,1.424584 1.189345,2.571451 2.666693,2.571451 l 2.666692,0 c 1.477348,0 2.666691,-1.146867 2.666691,-2.571451 l 0,-3.857176 c 0,-1.424584 -1.189343,-2.571451 -2.666691,-2.571451 z"
         id="path4512" />
      <path
         id="path4516"
         d="m 38.166658,31.999961 c -1.477348,0 -2.666693,1.146867 -2.666693,2.571451 l 0,3.857176 c 0,1.424584 1.189345,2.571451 2.666693,2.571451 l 2.666692,0 c 1.477348,0 2.666691,-1.146867 2.666691,-2.571451 l 0,-3.857176 c 0,-1.424584 -1.189343,-2.571451 -2.666691,-2.571451 z"
         style="opacity:0.14999999999999999;color:#000000;fill:none;stroke:url(#linearGradient4518);stroke-width:0.99992179999999997;stroke-opacity:1;marker:none;visibility:visible;display:inline;overflow:visible;enable-background:accumulate"
         inkscape:connector-curvature="0" />
      <path
         inkscape:connector-curvature="0"
         style="opacity:0.14999999999999999;color:#000000;fill:none;stroke:url(#linearGradient4522);stroke-width:0.99992179999999997;stroke-opacity:1;marker:none;visibility:visible;display:inline;overflow:visible;enable-background:accumulate"
         d="m 46.166658,31.999961 c -1.477348,0 -2.666693,1.146867 -2.666693,2.571451 l 0,3.857176 c 0,1.424584 1.189345,2.571451 2.666693,2.571451 l 2.666692,0 c 1.477348,0 2.666691,-1.146867 2.666691,-2.571451 l 0,-3.857176 c 0,-1.424584 -1.189343,-2.571451 -2.666691,-2.571451 z"
         id="path4520" />
      <path
         id="path4524"
         d="m 54.253313,31.999961 c -1.477348,0 -2.666693,1.146867 -2.666693,2.571451 l 0,3.857176 c 0,1.424584 1.189345,2.571451 2.666693,2.571451 l 2.666692,0 c 1.477348,0 2.666691,-1.146867 2.666691,-2.571451 l 0,-3.857176 c 0,-1.424584 -1.189343,-2.571451 -2.666691,-2.571451 z"
         style="opacity:0.14999999999999999;color:#000000;fill:none;stroke:url(#linearGradient4526);stroke-width:0.99992179999999997;stroke-opacity:1;marker:none;visibility:visible;display:inline;overflow:visible;enable-background:accumulate"
         inkscape:connector-curvature="0" />
    </g>
    <path
       id="path4539"
       d="m 6.1666535,-10.000039 c -1.4773477,0 -2.6666926,1.146867 -2.6666926,2.571451 l 0,3.857176 c 0,1.424584 1.1893449,2.571451 2.6666926,2.571451 l 2.6666926,0 c 1.4773479,0 2.6666909,-1.146867 2.6666909,-2.571451 l 0,-3.857176 c 0,-1.424584 -1.189343,-2.571451 -2.6666909,-2.571451 z"
       style="opacity:0.15;color:#000000;fill:none;stroke:url(#linearGradient4586);stroke-width:0.9999218;stroke-opacity:1;marker:none;visibility:visible;display:inline;overflow:visible;enable-background:accumulate"
       inkscape:connector-curvature="0" />
    <path
       inkscape:connector-curvature="0"
       style="opacity:0.15;color:#000000;fill:none;stroke:url(#linearGradient4583);stroke-width:0.9999218;stroke-opacity:1;marker:none;visibility:visible;display:inline;overflow:visible;enable-background:accumulate"
       d="m 14.166654,-10.000039 c -1.477348,0 -2.666693,1.146867 -2.666693,2.571451 l 0,3.857176 c 0,1.424584 1.189345,2.571451 2.666693,2.571451 l 2.666692,0 c 1.477348,0 2.666691,-1.146867 2.666691,-2.571451 l 0,-3.857176 c 0,-1.424584 -1.189343,-2.571451 -2.666691,-2.571451 z"
       id="path4541" />
    <path
       id="path4543"
       d="m 22.166654,-10.000039 c -1.477348,0 -2.666693,1.146867 -2.666693,2.571451 l 0,3.857176 c 0,1.424584 1.189345,2.571451 2.666693,2.571451 l 2.666692,0 c 1.477348,0 2.666691,-1.146867 2.666691,-2.571451 l 0,-3.857176 c 0,-1.424584 -1.189343,-2.571451 -2.666691,-2.571451 z"
       style="opacity:0.15;color:#000000;fill:none;stroke:url(#linearGradient4580);stroke-width:0.9999218;stroke-opacity:1;marker:none;visibility:visible;display:inline;overflow:visible;enable-background:accumulate"
       inkscape:connector-curvature="0" />
    <path
       inkscape:connector-curvature="0"
       style="opacity:0.15;color:#000000;fill:none;stroke:url(#linearGradient4577);stroke-width:0.9999218;stroke-opacity:1;marker:none;visibility:visible;display:inline;overflow:visible;enable-background:accumulate"
       d="m 30.166658,-10.000039 c -1.477348,0 -2.666693,1.146867 -2.666693,2.571451 l 0,3.857176 c 0,1.424584 1.189345,2.571451 2.666693,2.571451 l 2.666692,0 c 1.477348,0 2.666691,-1.146867 2.666691,-2.571451 l 0,-3.857176 c 0,-1.424584 -1.189343,-2.571451 -2.666691,-2.571451 z"
       id="path4545" />
    <path
       id="path4547"
       d="m 38.166658,-10.000039 c -1.477348,0 -2.666693,1.146867 -2.666693,2.571451 l 0,3.857176 c 0,1.424584 1.189345,2.571451 2.666693,2.571451 l 2.666692,0 c 1.477348,0 2.666691,-1.146867 2.666691,-2.571451 l 0,-3.857176 c 0,-1.424584 -1.189343,-2.571451 -2.666691,-2.571451 z"
       style="opacity:0.15;color:#000000;fill:none;stroke:url(#linearGradient4574);stroke-width:0.9999218;stroke-opacity:1;marker:none;visibility:visible;display:inline;overflow:visible;enable-background:accumulate"
       inkscape:connector-curvature="0" />
    <path
       inkscape:connector-curvature="0"
       style="opacity:0.15;color:#000000;fill:none;stroke:url(#linearGradient4571);stroke-width:0.9999218;stroke-opacity:1;marker:none;visibility:visible;display:inline;overflow:visible;enable-background:accumulate"
       d="m 46.166658,-10.000039 c -1.477348,0 -2.666693,1.146867 -2.666693,2.571451 l 0,3.857176 c 0,1.424584 1.189345,2.571451 2.666693,2.571451 l 2.666692,0 c 1.477348,0 2.666691,-1.146867 2.666691,-2.571451 l 0,-3.857176 c 0,-1.424584 -1.189343,-2.571451 -2.666691,-2.571451 z"
       id="path4549" />
    <path
       id="path4551"
       d="m 54.253313,-10.000039 c -1.477348,0 -2.666693,1.146867 -2.666693,2.571451 l 0,3.857176 c 0,1.424584 1.189345,2.571451 2.666693,2.571451 l 2.666692,0 c 1.477348,0 2.666691,-1.146867 2.666691,-2.571451 l 0,-3.857176 c 0,-1.424584 -1.189343,-2.571451 -2.666691,-2.571451 z"
       style="opacity:0.15;color:#000000;fill:none;stroke:url(#linearGradient4568);stroke-width:0.9999218;stroke-opacity:1;marker:none;visibility:visible;display:inline;overflow:visible;enable-background:accumulate"
       inkscape:connector-curvature="0" />
  </g>
</svg>
