<?xml version="1.0" encoding="UTF-8" standalone="no"?>
<svg
   xmlns:dc="http://purl.org/dc/elements/1.1/"
   xmlns:cc="http://creativecommons.org/ns#"
   xmlns:rdf="http://www.w3.org/1999/02/22-rdf-syntax-ns#"
   xmlns:svg="http://www.w3.org/2000/svg"
   xmlns="http://www.w3.org/2000/svg"
   version="1.0"
   width="24"
   height="24"
   id="svg1">
  <metadata
     id="metadata160634">
    <rdf:RDF>
      <cc:Work
         rdf:about="">
        <dc:format>image/svg+xml</dc:format>
        <dc:type
           rdf:resource="http://purl.org/dc/dcmitype/StillImage" />
      </cc:Work>
    </rdf:RDF>
  </metadata>
  <defs
     id="defs3">
    <linearGradient
       x1="22.82"
       y1="28.829"
       gradientTransform="matrix(.51288 0 0 .27021 .92882 2.7455)"
       x2="12.85"
       gradientUnits="userSpaceOnUse"
       y2="12.239"
       id="linearGradient7881">
      <stop
         offset="0"
         style="stop-color:#f5a108;stop-opacity:0"
         id="stop6622" />
      <stop
         offset="1"
         style="stop-color:#fefdc3;stop-opacity:.74251"
         id="stop6623" />
    </linearGradient>
    <linearGradient
       x1="24"
       y1="5.0793"
       gradientTransform="matrix(.46199 0 0 .47518 .85460 1.9584)"
       x2="24"
       gradientUnits="userSpaceOnUse"
       y2="41.079"
       id="linearGradient2786">
      <stop
         offset="0"
         style="stop-color:#fff"
         id="stop2782" />
      <stop
         offset="1"
         style="stop-color:#fff;stop-opacity:0"
         id="stop2784" />
    </linearGradient>
    <radialGradient
       r="17.375"
       gradientTransform="matrix(.57554 0 0 .17266 -2.0288 14.482)"
       cx="24.375"
       cy="37.75"
       gradientUnits="userSpaceOnUse"
       id="radialGradient2796">
      <stop
         offset="0"
         id="stop2792" />
      <stop
         offset="1"
         style="stop-opacity:0"
         id="stop2794" />
    </radialGradient>
    <linearGradient
       x1="24"
       y1="6"
       gradientTransform="matrix(.48413 0 0 .49584 .32375 .43515)"
       x2="24"
       gradientUnits="userSpaceOnUse"
       y2="51"
       id="linearGradient3853">
      <stop
         offset="0"
         style="stop-color:#f8b17e"
         id="stop3244" />
      <stop
         offset=".31210"
         style="stop-color:#e35d4f"
         id="stop3246" />
      <stop
         offset=".57054"
         style="stop-color:#c6262e"
         id="stop3248" />
      <stop
         offset="1"
         style="stop-color:#690b54"
         id="stop3250" />
    </linearGradient>
    <linearGradient
       x1="17"
       y1="45"
       gradientTransform="matrix(.48413 0 0 .49584 .32375 .43515)"
       x2="17"
       gradientUnits="userSpaceOnUse"
       y2="6"
       id="linearGradient3861">
      <stop
         offset="0"
         style="stop-color:#791235"
         id="stop2492" />
      <stop
         offset="1"
         style="stop-color:#dd3b27"
         id="stop2494" />
    </linearGradient>
  </defs>
  <path
     d="m22 21a10 3 0 0 1 -20 0 10 3 0 1 1 20 0z"
     style="opacity:.3;color:black;fill:url(#radialGradient2796)"
     id="path2788" />
  <path
     d="m7.1197 4.6499c-2.5988-0.131-3.8095 1.5781-4.4643 3.204-0.6499 2.141 0.2687 6.1851 4.7707 5.8771 2.5679 0 3.5885-2.696 4.94-3.3958 1.2282-0.47544 1.3249-0.51799 2.6225-0.51799 1.8033 0 5.0644-1.3361 5.0644-2.6618-0.554-1.0636-2.026-2.9581-4.73-2.6352-1.721 0.2051-3.35 1.4647-3.775 2.0915-1.042-0.9409-2.3726-1.9618-4.4283-1.9618z"
     style="fill:url(#linearGradient7881);fill-rule:evenodd"
     id="path7876" />
  <path
     d="m11.864 5.492c4.497-4.6038 10.676-0.3604 10.636 4.0057-0.037 3.9913-3.009 5.9033-10.474 13.002-7.8132-6.605-10.566-8.128-10.526-12.863 0.0411-4.9023 5.3315-8.5813 10.364-4.145z"
     style="fill-rule:evenodd;stroke:url(#linearGradient3861);fill:url(#linearGradient3853)"
     id="path920" />
  <path
     d="m7.8422 4.5273c-0.3846-0.0339-0.768-0.0253-1.1261 0.0297-2.389 0.367-4.1934 2.6094-4.2157 5.3012-0.0184 2.1628 0.5343 3.4708 2.0646 5.1378 1.4748 1.607 3.9336 3.531 7.45 6.504 3.3646-3.1996 5.7851-5.3423 7.2908-7.0237 1.5626-1.7449 2.178-2.9736 2.1945-4.7518 0.017-1.8325-1.321-3.7569-3.162-4.6621s-4.101-0.8592-6.107 1.2028a0.51814 0.53292 0 0 1 -0.693 0.0297c-1.282-1.1356-2.5419-1.6655-3.6958-1.7671z"
     style="opacity:.4;stroke:url(#linearGradient2786);fill:none"
     id="path2778" />
</svg>
