<?xml version="1.0" encoding="UTF-8" standalone="no"?>
<svg
   xmlns:dc="http://purl.org/dc/elements/1.1/"
   xmlns:cc="http://creativecommons.org/ns#"
   xmlns:rdf="http://www.w3.org/1999/02/22-rdf-syntax-ns#"
   xmlns:svg="http://www.w3.org/2000/svg"
   xmlns="http://www.w3.org/2000/svg"
   xmlns:xlink="http://www.w3.org/1999/xlink"
   id="svg3346"
   height="24"
   width="24"
   version="1.0">
  <metadata
     id="metadata164637">
    <rdf:RDF>
      <cc:Work
         rdf:about="">
        <dc:format>image/svg+xml</dc:format>
        <dc:type
           rdf:resource="http://purl.org/dc/dcmitype/StillImage" />
      </cc:Work>
    </rdf:RDF>
  </metadata>
  <defs
     id="defs3348">
    <linearGradient
       id="linearGradient10691-1">
      <stop
         offset="0"
         style="stop-color:#000000;stop-opacity:1"
         id="stop10693-3" />
      <stop
         offset="1"
         style="stop-color:#000000;stop-opacity:0"
         id="stop10695-1" />
    </linearGradient>
    <radialGradient
       gradientTransform="matrix(0.9684004,0,0,0.2075143,5.509091,7.223683)"
       gradientUnits="userSpaceOnUse"
       xlink:href="#linearGradient10691-1"
       id="radialGradient2556"
       fy="73.615715"
       fx="6.702713"
       r="7.228416"
       cy="73.615715"
       cx="6.702713" />
    <linearGradient
       id="linearGradient3924">
      <stop
         offset="0"
         style="stop-color:#464646;stop-opacity:1"
         id="stop3926" />
      <stop
         offset="0.35046947"
         style="stop-color:#8c8c8c;stop-opacity:1"
         id="stop3928" />
      <stop
         offset="0.50989443"
         style="stop-color:#969696;stop-opacity:1"
         id="stop3930" />
      <stop
         offset="0.61998242"
         style="stop-color:#aaaaaa;stop-opacity:1"
         id="stop3932" />
      <stop
         offset="1"
         style="stop-color:#646464;stop-opacity:1"
         id="stop3934" />
    </linearGradient>
    <linearGradient
       gradientTransform="matrix(0.5790465,0,0,0.6062555,-23.900882,-3.8712552)"
       gradientUnits="userSpaceOnUse"
       xlink:href="#linearGradient3924"
       id="linearGradient2553"
       y2="43.378311"
       x2="61.968769"
       y1="35.944077"
       x1="61.968769" />
    <linearGradient
       id="linearGradient3912">
      <stop
         offset="0"
         style="stop-color:#787878;stop-opacity:1"
         id="stop3914" />
      <stop
         offset="0.35046947"
         style="stop-color:#bebebe;stop-opacity:1"
         id="stop3916" />
      <stop
         offset="0.49417919"
         style="stop-color:#c8c8c8;stop-opacity:1"
         id="stop3918" />
      <stop
         offset="0.58907253"
         style="stop-color:#e6e6e6;stop-opacity:1"
         id="stop3920" />
      <stop
         offset="1"
         style="stop-color:#8c8c8c;stop-opacity:1"
         id="stop3922" />
    </linearGradient>
    <linearGradient
       gradientTransform="matrix(0.5769671,0,0,0.6063427,-194.65125,-34.797997)"
       gradientUnits="userSpaceOnUse"
       xlink:href="#linearGradient3912"
       id="linearGradient2550"
       y2="94.396416"
       x2="361.10583"
       y1="87.050117"
       x1="361.10583" />
    <linearGradient
       id="linearGradient3342">
      <stop
         offset="0"
         style="stop-color:#ffffff;stop-opacity:0"
         id="stop3344" />
      <stop
         offset="1"
         style="stop-color:#ffffff;stop-opacity:1"
         id="stop3346" />
    </linearGradient>
    <linearGradient
       spreadMethod="reflect"
       gradientTransform="matrix(0.6041001,0,0,0.4850453,-2.2435196,-1.2830676)"
       gradientUnits="userSpaceOnUse"
       xlink:href="#linearGradient3342"
       id="linearGradient2547"
       y2="46.971004"
       x2="23.578077"
       y1="46.971004"
       x1="15.573899" />
    <linearGradient
       id="linearGradient3654">
      <stop
         offset="0"
         style="stop-color:#76de98;stop-opacity:1"
         id="stop3656" />
      <stop
         offset="0.5"
         style="stop-color:#37b862;stop-opacity:1"
         id="stop3658" />
      <stop
         offset="1"
         style="stop-color:#2f7b48;stop-opacity:1"
         id="stop3660" />
    </linearGradient>
    <radialGradient
       gradientTransform="matrix(0.7990679,0,1.0142957e-3,0.6145101,-3.5234617,2.9265569)"
       gradientUnits="userSpaceOnUse"
       xlink:href="#linearGradient3654"
       id="radialGradient2543"
       fy="4.8630676"
       fx="12.244348"
       r="20.999998"
       cy="4.8630676"
       cx="12.244348" />
    <linearGradient
       id="linearGradient6592-2-7">
      <stop
         offset="0"
         style="stop-color:#ffffff;stop-opacity:0.27450982"
         id="stop6594-0-2" />
      <stop
         offset="1"
         style="stop-color:#ffffff;stop-opacity:0"
         id="stop6596-2-5" />
    </linearGradient>
    <linearGradient
       gradientTransform="matrix(0.5238096,0,0,0.6666661,-0.5714286,1.4e-6)"
       gradientUnits="userSpaceOnUse"
       xlink:href="#linearGradient6592-2-7"
       id="linearGradient2540"
       y2="19.8125"
       x2="15.25"
       y1="8.4375"
       x1="12.9375" />
    <linearGradient
       id="linearGradient3202">
      <stop
         offset="0"
         style="stop-color:#ffffff;stop-opacity:1"
         id="stop3204" />
      <stop
         offset="1"
         style="stop-color:#d3fce1;stop-opacity:1"
         id="stop3206" />
    </linearGradient>
    <linearGradient
       gradientTransform="matrix(0.3008045,-6.7607336e-2,7.2017786e-2,0.2823833,37.758937,0.9950933)"
       gradientUnits="userSpaceOnUse"
       xlink:href="#linearGradient3202"
       id="linearGradient3337"
       y2="27.521217"
       x2="-92.222527"
       y1="-7.8379993"
       x1="-83.756935" />
  </defs>
  <g
     id="layer1">
    <path
       style="opacity:0.3;fill:url(#radialGradient2556);fill-opacity:1;fill-rule:nonzero;stroke:none;stroke-width:0.80000001;marker:none;visibility:visible;display:inline;overflow:visible"
       id="path2589"
       d="M 19,22.500001 C 19,23.328428 15.865993,24 11.999999,24 C 8.1340066,24 5,23.328428 5,22.500001 C 5,21.671573 8.1340066,21 11.999999,21 C 15.865993,21 19,21.671573 19,22.500001 L 19,22.500001 z" />
    <path
       style="fill:url(#linearGradient2550);fill-opacity:1;fill-rule:nonzero;stroke:url(#linearGradient2553);stroke-width:0.99827474;stroke-linecap:round;stroke-linejoin:round;marker:none;stroke-miterlimit:4;stroke-dasharray:none;stroke-dashoffset:0.50000001;stroke-opacity:1;visibility:visible;display:inline;overflow:visible;enable-background:new"
       id="rect1789"
       d="M 8.5,17.499134 C 8.5,17.499134 8.7272727,19.645179 8.5,20 C 8.1074638,20.612833 6.8927921,20.5 6.8927921,20.5 C 6.369978,20.56321 6.3656531,22.500859 6.8927921,22.500859 L 17.107166,22.500859 C 17.634305,22.500859 17.630089,20.562403 17.107166,20.5 C 17.107166,20.5 15.935658,20.58298 15.5,20 C 15.254189,19.671064 15.5,17.499134 15.5,17.499134 L 8.5,17.499134 L 8.5,17.499134 z" />
    <path
       style="fill:none;stroke:url(#linearGradient2547);stroke-width:1px;stroke-linecap:square;stroke-linejoin:miter;stroke-opacity:1"
       id="path3340"
       d="M 7.4667247,21.5 L 16.533275,21.5" />
    <rect
       style="fill:#1a1a1a;fill-opacity:1;stroke:#000000;stroke-width:1.00023937;stroke-linecap:round;stroke-linejoin:round;stroke-miterlimit:4;stroke-dasharray:none;stroke-dashoffset:0.50000001;stroke-opacity:1"
       id="rect2722"
       y="1.5001202"
       x="0.50010204"
       ry="0.48484477"
       rx="0.51110935"
       height="15.999761"
       width="22.999796" />
    <rect
       style="fill:url(#radialGradient2543);fill-opacity:1;fill-rule:evenodd;stroke:none;display:inline;enable-background:new"
       id="rect2716"
       y="3"
       x="2"
       height="13"
       width="20" />
    <path
       style="fill:url(#linearGradient2540);fill-opacity:1;stroke:none"
       id="rect6588"
       d="M 0.99999996,2 L 23,2 L 23,7.333336 L 0.99999996,12 L 0.99999996,2 z" />
    <path
       style="fill:#1f6235;fill-opacity:1;fill-rule:nonzero;stroke:none;stroke-width:1.00278974;marker:none;visibility:visible;display:inline;overflow:visible"
       id="path3342"
       d="M 15.044644,4.0020454 C 14.879136,3.9862737 14.714589,4.062375 14.629553,4.2084657 L 11.006382,10.431713 L 8.6769171,8.692928 C 8.4694185,8.5864866 8.2105307,8.6549626 8.0971478,8.8497533 L 7.0525164,10.108789 C 6.939135,10.303577 7.0154092,10.54654 7.2229078,10.652978 C 7.2229078,10.652978 11.476219,13.950718 11.481468,13.953158 C 11.530099,13.978105 11.580954,13.990658 11.632652,13.996792 C 11.801527,14.016822 11.974348,13.942338 12.061157,13.793205 L 16.947484,5.4003768 C 17.060866,5.2055863 16.984589,4.9626254 16.777094,4.856185 L 15.209243,4.0485126 C 15.157367,4.0218988 15.099814,4.0073015 15.044644,4.0020454 z" />
    <path
       style="fill:url(#linearGradient3337);fill-opacity:1;fill-rule:nonzero;stroke:none;stroke-width:1.00278974;marker:none;visibility:visible;display:inline;overflow:visible"
       id="path4368"
       d="M 15.044644,5.0020451 C 14.879136,4.9862734 14.714589,5.0623747 14.629553,5.2084654 L 11.006382,11.431713 L 8.6769171,9.6929277 C 8.4694185,9.5864863 8.2105307,9.6549623 8.0971478,9.849753 L 7.0525164,11.108789 C 6.939135,11.303577 7.0154092,11.54654 7.2229078,11.652978 C 7.2229078,11.652978 11.476219,14.950718 11.481468,14.953158 C 11.530099,14.978105 11.580954,14.990658 11.632652,14.996792 C 11.801527,15.016822 11.974348,14.942338 12.061157,14.793205 L 16.947484,6.4003765 C 17.060866,6.205586 16.984589,5.9626251 16.777094,5.8561847 L 15.209243,5.0485123 C 15.157367,5.0218985 15.099814,5.0073012 15.044644,5.0020451 z" />
  </g>
</svg>
