<?xml version="1.0" encoding="UTF-8" standalone="no"?>
<svg
   id="svg2"
   height="24"
   width="24"
   version="1.0"
   sodipodi:docname="clipman-symbolic.svg"
   inkscape:version="1.2.2 (b0a8486541, 2022-12-01)"
   xmlns:inkscape="http://www.inkscape.org/namespaces/inkscape"
   xmlns:sodipodi="http://sodipodi.sourceforge.net/DTD/sodipodi-0.dtd"
   xmlns="http://www.w3.org/2000/svg"
   xmlns:svg="http://www.w3.org/2000/svg"
   xmlns:rdf="http://www.w3.org/1999/02/22-rdf-syntax-ns#"
   xmlns:cc="http://creativecommons.org/ns#"
   xmlns:dc="http://purl.org/dc/elements/1.1/">
  <sodipodi:namedview
     id="namedview2889"
     pagecolor="#ffffff"
     bordercolor="#000000"
     borderopacity="0.25"
     inkscape:showpageshadow="2"
     inkscape:pageopacity="0.0"
     inkscape:pagecheckerboard="0"
     inkscape:deskcolor="#d1d1d1"
     showgrid="false"
     inkscape:zoom="16"
     inkscape:cx="4.34375"
     inkscape:cy="15.9375"
     inkscape:window-width="1920"
     inkscape:window-height="1027"
     inkscape:window-x="0"
     inkscape:window-y="0"
     inkscape:window-maximized="1"
     inkscape:current-layer="svg2" />
  <metadata
     id="metadata33">
    <rdf:RDF>
      <cc:Work
         rdf:about="">
        <dc:format>image/svg+xml</dc:format>
        <dc:type
           rdf:resource="http://purl.org/dc/dcmitype/StillImage" />
      </cc:Work>
    </rdf:RDF>
  </metadata>
  <defs
     id="defs4" />
  <path
     id="path3444"
     d="M 4.53125,4 C 4.232942,4 4,4.2459286 4,4.5625 v 16.875 C 4,21.754072 4.232942,22 4.53125,22 h 14.9375 C 19.767058,22 20,21.754072 20,21.4375 V 4.5625 C 20,4.2459286 19.767058,4 19.46875,4 H 17 v 1 h 1.46875 C 18.770932,5 19,5.2329423 19,5.53125 v 14.9375 C 19,20.767058 18.770932,21 18.46875,21 H 5.53125 C 5.229068,21 5,20.767058 5,20.46875 V 5.53125 C 5,5.2329423 5.229068,5 5.53125,5 H 8 V 4 Z"
     style="fill:#555761;fill-opacity:1;stroke:none"
     sodipodi:nodetypes="ssssssssccssssssssccs" />
  <path
     id="path3446"
     d="M 6.5,6 C 6.223,6 6,6.223 6,6.5 v 13 C 6,19.777 6.223,20 6.5,20 h 11 C 17.777,20 18,19.777 18,19.5 V 6.5 C 18,6.223 17.777,6 17.5,6 Z M 9,9 h 6 v 1 H 9 Z m 0,2 h 3.96875 v 1 H 9 Z m 0,2 h 6 v 1 H 9 Z m 0,2 h 5 v 1 H 9 Z"
     style="fill:#555761;fill-opacity:1;stroke:none"
     sodipodi:nodetypes="ssssssssscccccccccccccccccccc" />
  <path
     d="m 11,2 c 0.0635,1.3790816 -0.858987,1.976843 -2,2 v 1 h 6 V 4 C 13.7064,3.982582 13.028777,3.375035 13,2 Z"
     style="fill:#555761;fill-opacity:1;stroke:none;enable-background:new"
     id="path3448"
     sodipodi:nodetypes="ccccccc" />
</svg>
