<?xml version="1.0" encoding="UTF-8" standalone="no"?>
<svg
   xmlns:dc="http://purl.org/dc/elements/1.1/"
   xmlns:cc="http://creativecommons.org/ns#"
   xmlns:rdf="http://www.w3.org/1999/02/22-rdf-syntax-ns#"
   xmlns:svg="http://www.w3.org/2000/svg"
   xmlns="http://www.w3.org/2000/svg"
   xmlns:xlink="http://www.w3.org/1999/xlink"
   version="1.1"
   width="24"
   height="24"
   id="svg3767">
  <metadata
     id="metadata109508">
    <rdf:RDF>
      <cc:Work
         rdf:about="">
        <dc:format>image/svg+xml</dc:format>
        <dc:type
           rdf:resource="http://purl.org/dc/dcmitype/StillImage" />
        <dc:title />
      </cc:Work>
    </rdf:RDF>
  </metadata>
  <defs
     id="defs3769">
    <linearGradient
       id="linearGradient3718">
      <stop
         id="stop3720"
         style="stop-color:#55da19;stop-opacity:1;"
         offset="0" />
      <stop
         id="stop3722"
         style="stop-color:#9c4694;stop-opacity:0"
         offset="1" />
    </linearGradient>
    <linearGradient
       id="linearGradient4593">
      <stop
         id="stop12409"
         style="stop-color:#ffffff;stop-opacity:0.70200002"
         offset="0" />
      <stop
         id="stop12411"
         style="stop-color:#ffffff;stop-opacity:0"
         offset="1" />
    </linearGradient>
    <linearGradient
       id="linearGradient8838">
      <stop
         id="stop8840"
         style="stop-color:#000000;stop-opacity:1"
         offset="0" />
      <stop
         id="stop8842"
         style="stop-color:#000000;stop-opacity:0"
         offset="1" />
    </linearGradient>
    <linearGradient
       id="linearGradient2264">
      <stop
         offset="0"
         style="stop-color:#20d74e;stop-opacity:1;"
         id="stop2266" />
      <stop
         offset="1"
         style="stop-color:#1f802a;stop-opacity:1;"
         id="stop2268" />
    </linearGradient>
    <radialGradient
       xlink:href="#linearGradient3718"
       id="radialGradient3076"
       gradientUnits="userSpaceOnUse"
       gradientTransform="matrix(0.14824498,-0.10938885,0.0546342,0.08358314,-10.250026,27.164865)"
       cx="90.746872"
       cy="32.164093"
       fx="90.746872"
       fy="32.164093"
       r="23" />
    <radialGradient
       xlink:href="#linearGradient4593"
       id="radialGradient3082"
       gradientUnits="userSpaceOnUse"
       gradientTransform="matrix(0,0.65146434,-0.54228922,0,13.217936,-11.941041)"
       cx="24.016491"
       cy="2.2461414"
       fx="24.016491"
       fy="2.2461414"
       r="21.995602" />
    <radialGradient
       xlink:href="#linearGradient2264"
       id="radialGradient3085"
       gradientUnits="userSpaceOnUse"
       gradientTransform="matrix(0,0.86369192,-0.69458029,0,14.878075,-15.239198)"
       cx="20.248743"
       cy="4.9115634"
       fx="20.248743"
       fy="4.9115634"
       r="23" />
    <radialGradient
       xlink:href="#linearGradient8838"
       id="radialGradient3090"
       gradientUnits="userSpaceOnUse"
       gradientTransform="matrix(1.0352942,0,0,0.37647008,-52.835294,18.258824)"
       cx="62.625"
       cy="4.625"
       fx="62.625"
       fy="4.625"
       r="10.625" />
  </defs>
  <path
     style="display:inline;overflow:visible;visibility:visible;opacity:0.3;fill:url(#radialGradient3090);fill-opacity:1;fill-rule:evenodd;stroke:none;stroke-width:0.99999988;marker:none"
     id="path8836"
     d="M 23,20.000001 C 23,22.20914 18.075133,24 12.000002,24 5.9248685,24 1,22.20914 1,20.000001 1,17.790862 5.9248685,16 12.000002,16 18.075133,16 23,17.790862 23,20.000001 l 0,0 z" />
  <path
     style="display:inline;overflow:visible;visibility:visible;fill:url(#radialGradient3085);fill-opacity:1;fill-rule:evenodd;stroke:#2c7941;stroke-width:0.99525028;stroke-linecap:butt;stroke-linejoin:round;stroke-miterlimit:4;stroke-dasharray:none;stroke-dashoffset:0;stroke-opacity:1;marker:none"
     id="path6145"
     d="M 10.512395,2.6372074 C 5.1366454,3.4656506 1.1589182,7.3372436 1.5203381,11.529153 c 0.2340349,2.714432 2.2271869,4.948643 5.0774727,6.12744 l -1.1897487,4.845855 5.2633619,-3.978955 0.03638,-0.0035 c 0.649537,0.03247 1.302089,0.04322 1.97925,-0.02135 C 18.465494,17.94761 22.858837,13.92845 22.479639,9.5303823 22.100447,5.1323151 17.091357,2.0098192 11.312919,2.56088 11.042055,2.586714 10.776773,2.596478 10.512391,2.637223 Z" />
  <path
     style="display:inline;overflow:visible;visibility:visible;opacity:0.4;fill:none;stroke:url(#radialGradient3082);stroke-width:0.99525034;stroke-linecap:butt;stroke-linejoin:miter;stroke-miterlimit:4;stroke-dasharray:none;stroke-dashoffset:0;stroke-opacity:1;marker:none"
     id="path6179"
     d="M 10.708373,3.6427067 C 6.1870268,4.329439 2.2003723,7.3859119 2.5148242,11.524508 c 0.211208,2.779765 2.290705,4.666065 4.8693869,5.542972 l -0.8664845,3.714362 4.0478184,-3.034969 c 0.545999,0.02474 1.386068,0.06885 1.955511,0.0147 4.305635,-0.40967 9.323497,-3.744651 8.962941,-7.8910768 C 21.099824,5.4000353 16.084869,3.0756961 11.38156,3.5786661 c -0.227508,0.02433 -0.450827,0.030276 -0.673187,0.064052 z" />
  <path
     style="fill:#209433;fill-opacity:1;stroke-width:1px"
     id="path3705"
     d="M 5.8086603,21.952225 7.1926279,17.518163 10.46968,18.017602 Z" />
  <path
     style="display:inline;overflow:visible;visibility:visible;fill:url(#radialGradient3076);fill-opacity:1;fill-rule:evenodd;stroke:none;stroke-width:0.99525028;marker:none"
     id="path3845"
     d="m 13.372925,3.0210624 c -0.659082,-0.039991 -1.33178,-0.021988 -2.024066,0.045116 -0.270352,0.026208 -0.52275,0.037348 -0.764333,0.075194 -2.5703782,0.402634 -4.8009662,1.5448875 -6.3411362,3.0829499 -1.540171,1.5380615 -2.391087,3.4683513 -2.222228,5.4590777 0.218674,2.578014 2.3136655,4.436353 5.0281955,5.577486 0.097659,0.03818 0.1525731,0.148383 0.127389,0.255658 l -1.3966341,4.447501 4.5489088,-3.974729 c 0.03418,-0.02154 0.07354,-0.03199 0.113234,-0.03008 l 0.0283,0 c 0.0047,-1.74e-4 0.0094,-1.74e-4 0.01415,0 0.62413,0.03169 1.251711,0.03243 1.896681,-0.03006 2.763921,-0.267923 5.462696,-0.950059 7.148657,-2.516144 1.685963,-1.56609 2.625869,-3.580904 2.448697,-5.6696203 C 21.823739,7.9159083 20.837282,6.3171375 19.303587,5.1264917 17.769893,3.9358456 15.683668,3.161272 13.372925,3.0210624 Z" />
  <path
     id="path3030"
     d="m 13,7 0,3.906235 2.857145,0 c 0,1.205909 -0.571427,1.987816 -1.142863,1.987816 -1.142855,0 -0.571428,1.205899 0,1.205899 C 15.285718,14.099949 17,13.318041 17,10.906235 L 17,7 Z"
     style="opacity:0.3;fill:#333333;fill-opacity:1;stroke:none" />
  <path
     style="fill:#ffffff;fill-opacity:1;stroke:none"
     d="m 13,8 0,3.946866 2.857145,0 c 0,1.190175 -0.571427,1.86296 -1.142863,1.86296 -1.142855,0 -0.571428,1.190174 0,1.190174 C 15.285718,15 17,14.327204 17,11.946866 L 17,8 Z"
     id="path3886" />
  <path
     style="opacity:0.3;fill:#333333;fill-opacity:1;stroke:none"
     d="m 7,7.0000022 0,3.9062338 2.857145,0 c 0,1.205908 -0.571426,1.987816 -1.1428636,1.987816 -1.1428533,0 -0.5714275,1.205897 0,1.205897 C 9.285719,14.099949 11,13.318041 11,10.906236 l 0,-3.9062338 z"
     id="path3800" />
  <path
     id="path3802"
     d="m 7,8.000002 0,3.946865 2.857145,0 c 0,1.190174 -0.571426,1.862959 -1.1428636,1.862959 -1.1428533,0 -0.5714275,1.190174 0,1.190174 C 9.285719,15 11,14.327204 11,11.946867 l 0,-3.946865 z"
     style="fill:#ffffff;fill-opacity:1;stroke:none" />
</svg>
