<?xml version="1.0" encoding="UTF-8" standalone="no"?>
<!-- Created with Inkscape (http://www.inkscape.org/) -->

<svg
   xmlns:dc="http://purl.org/dc/elements/1.1/"
   xmlns:cc="http://creativecommons.org/ns#"
   xmlns:rdf="http://www.w3.org/1999/02/22-rdf-syntax-ns#"
   xmlns:svg="http://www.w3.org/2000/svg"
   xmlns="http://www.w3.org/2000/svg"
   xmlns:xlink="http://www.w3.org/1999/xlink"
   xmlns:sodipodi="http://sodipodi.sourceforge.net/DTD/sodipodi-0.dtd"
   xmlns:inkscape="http://www.inkscape.org/namespaces/inkscape"
   version="1.1"
   width="24"
   height="24"
   id="svg4117"
   inkscape:version="0.48.4 r9939"
   sodipodi:docname="google.svg">
  <sodipodi:namedview
     pagecolor="#ffffff"
     bordercolor="#666666"
     borderopacity="1"
     objecttolerance="10"
     gridtolerance="10"
     guidetolerance="10"
     inkscape:pageopacity="0"
     inkscape:pageshadow="2"
     inkscape:window-width="1600"
     inkscape:window-height="851"
     id="namedview91"
     showgrid="false"
     inkscape:zoom="22.958334"
     inkscape:cx="12.001006"
     inkscape:cy="10.065161"
     inkscape:window-x="0"
     inkscape:window-y="25"
     inkscape:window-maximized="1"
     inkscape:current-layer="svg4117"
     showguides="false"
     inkscape:guide-bbox="true">
    <sodipodi:guide
       orientation="1,0"
       position="24.043557,44.079855"
       id="guide3967" />
    <sodipodi:guide
       orientation="0,1"
       position="49.742287,22.475499"
       id="guide3969" />
    <inkscape:grid
       type="xygrid"
       id="grid3099"
       empspacing="5"
       visible="true"
       enabled="true"
       snapvisiblegridlinesonly="true" />
  </sodipodi:namedview>
  <defs
     id="defs4119">
    <linearGradient
       inkscape:collect="always"
       id="linearGradient3891">
      <stop
         style="stop-color:#000000;stop-opacity:1;"
         offset="0"
         id="stop3893" />
      <stop
         style="stop-color:#000000;stop-opacity:0;"
         offset="1"
         id="stop3895" />
    </linearGradient>
    <linearGradient
       id="linearGradient3924">
      <stop
         id="stop3926"
         style="stop-color:#ffffff;stop-opacity:1"
         offset="0" />
      <stop
         id="stop3928"
         style="stop-color:#ffffff;stop-opacity:0.23529412"
         offset="0.06316455" />
      <stop
         id="stop3930"
         style="stop-color:#ffffff;stop-opacity:0.15686275"
         offset="0.95056331" />
      <stop
         id="stop3932"
         style="stop-color:#ffffff;stop-opacity:0.39215687"
         offset="1" />
    </linearGradient>
    <radialGradient
       cx="4.9929786"
       cy="43.5"
       r="2.5"
       fx="4.9929786"
       fy="43.5"
       id="radialGradient2873-966-168"
       xlink:href="#linearGradient3688-166-749"
       gradientUnits="userSpaceOnUse"
       gradientTransform="matrix(2.003784,0,0,1.4,27.98813,-17.4)" />
    <linearGradient
       id="linearGradient3688-166-749">
      <stop
         id="stop2883"
         style="stop-color:#181818;stop-opacity:1"
         offset="0" />
      <stop
         id="stop2885"
         style="stop-color:#181818;stop-opacity:0"
         offset="1" />
    </linearGradient>
    <radialGradient
       cx="4.9929786"
       cy="43.5"
       r="2.5"
       fx="4.9929786"
       fy="43.5"
       id="radialGradient2875-742-326"
       xlink:href="#linearGradient3688-464-309"
       gradientUnits="userSpaceOnUse"
       gradientTransform="matrix(2.003784,0,0,1.4,-20.01187,-104.4)" />
    <linearGradient
       id="linearGradient3688-464-309">
      <stop
         id="stop2889"
         style="stop-color:#181818;stop-opacity:1"
         offset="0" />
      <stop
         id="stop2891"
         style="stop-color:#181818;stop-opacity:0"
         offset="1" />
    </linearGradient>
    <linearGradient
       x1="25.058096"
       y1="47.027729"
       x2="25.058096"
       y2="39.999443"
       id="linearGradient2877-634-617"
       xlink:href="#linearGradient3702-501-757"
       gradientUnits="userSpaceOnUse" />
    <linearGradient
       id="linearGradient3702-501-757">
      <stop
         id="stop2895"
         style="stop-color:#181818;stop-opacity:0"
         offset="0" />
      <stop
         id="stop2897"
         style="stop-color:#181818;stop-opacity:1"
         offset="0.5" />
      <stop
         id="stop2899"
         style="stop-color:#181818;stop-opacity:0"
         offset="1" />
    </linearGradient>
    <filter
       color-interpolation-filters="sRGB"
       id="filter3831">
      <feGaussianBlur
         id="feGaussianBlur3833"
         stdDeviation="0.6375" />
    </filter>
    <clipPath
       id="clipPath3823">
      <path
         d="M 108.8125,58 C 107.25437,58 106,59.254375 106,60.8125 l 0,24.375 C 106,86.745625 107.25437,88 108.8125,88 l 24.375,0 C 134.74562,88 136,86.745625 136,85.1875 l 0,-24.375 C 136,59.254375 134.74562,58 133.1875,58 l -24.375,0 z m 7.1875,4.5 10,0 0,8.75 5,0 -10,13.75 -10,-13.75 5,0 0,-8.75 z"
         id="path3825"
         style="fill:#ffffff;fill-opacity:1;stroke:none"
         inkscape:connector-curvature="0" />
    </clipPath>
    <linearGradient
       x1="65.262688"
       y1="64.205269"
       x2="65.262688"
       y2="50.068527"
       id="linearGradient3812"
       xlink:href="#linearGradient5010"
       gradientUnits="userSpaceOnUse"
       gradientTransform="matrix(0.625,0,0,0.625,78.5,32.25)" />
    <filter
       color-interpolation-filters="sRGB"
       id="filter3806">
      <feGaussianBlur
         id="feGaussianBlur3808"
         stdDeviation="1.2" />
    </filter>
    <linearGradient
       x1="70"
       y1="54"
       x2="70"
       y2="75.095024"
       id="linearGradient3788"
       xlink:href="#linearGradient3737"
       gradientUnits="userSpaceOnUse"
       gradientTransform="translate(0,4)" />
    <linearGradient
       x1="56"
       y1="72"
       x2="88"
       y2="72"
       id="linearGradient3773"
       xlink:href="#linearGradient3778"
       gradientUnits="userSpaceOnUse"
       gradientTransform="matrix(0.9375,0,0,0.9375,-140.5,3.5)" />
    <linearGradient
       x1="65.262688"
       y1="64.205269"
       x2="65.262688"
       y2="50.068527"
       id="linearGradient3832"
       xlink:href="#linearGradient3737"
       gradientUnits="userSpaceOnUse"
       gradientTransform="matrix(0.625,0,0,0.625,28.5,31.25)" />
    <filter
       color-interpolation-filters="sRGB"
       id="filter3174">
      <feGaussianBlur
         id="feGaussianBlur3176"
         stdDeviation="1.71" />
    </filter>
    <linearGradient
       id="linearGradient3737">
      <stop
         id="stop3739"
         style="stop-color:#ffffff;stop-opacity:1"
         offset="0" />
      <stop
         id="stop3741"
         style="stop-color:#ffffff;stop-opacity:0"
         offset="1" />
    </linearGradient>
    <linearGradient
       x1="45.447727"
       y1="92.539597"
       x2="45.447727"
       y2="7.0165396"
       id="ButtonShadow"
       gradientUnits="userSpaceOnUse"
       gradientTransform="scale(1.0058652,0.994169)">
      <stop
         id="stop3750"
         style="stop-color:#000000;stop-opacity:1"
         offset="0" />
      <stop
         id="stop3752"
         style="stop-color:#000000;stop-opacity:0.58823532"
         offset="1" />
    </linearGradient>
    <linearGradient
       id="linearGradient5010">
      <stop
         id="stop5012"
         style="stop-color:#000000;stop-opacity:1"
         offset="0" />
      <stop
         id="stop5014"
         style="stop-color:#000000;stop-opacity:0"
         offset="1" />
    </linearGradient>
    <linearGradient
       id="linearGradient3778">
      <stop
         id="stop3780"
         style="stop-color:#499119;stop-opacity:1"
         offset="0" />
      <stop
         id="stop3782"
         style="stop-color:#8fd625;stop-opacity:1"
         offset="1" />
    </linearGradient>
    <linearGradient
       id="linearGradient3104">
      <stop
         id="stop3106"
         style="stop-color:#aaaaaa;stop-opacity:1"
         offset="0" />
      <stop
         id="stop3108"
         style="stop-color:#c8c8c8;stop-opacity:1"
         offset="1" />
    </linearGradient>
    <linearGradient
       id="linearGradient3600">
      <stop
         id="stop3602"
         style="stop-color:#f4f4f4;stop-opacity:1"
         offset="0" />
      <stop
         id="stop3604"
         style="stop-color:#dbdbdb;stop-opacity:1"
         offset="1" />
    </linearGradient>
    <linearGradient
       id="linearGradient3104-5">
      <stop
         id="stop3106-9"
         style="stop-color:#aaaaaa;stop-opacity:1"
         offset="0" />
      <stop
         id="stop3108-8"
         style="stop-color:#c8c8c8;stop-opacity:1"
         offset="1" />
    </linearGradient>
    <linearGradient
       inkscape:collect="always"
       xlink:href="#linearGradient3924"
       id="linearGradient3084"
       gradientUnits="userSpaceOnUse"
       gradientTransform="matrix(0.45945943,0,0,0.45945941,0.97297478,0.97297743)"
       x1="23.99999"
       y1="4.999989"
       x2="23.99999"
       y2="43" />
    <radialGradient
       inkscape:collect="always"
       xlink:href="#linearGradient3600"
       id="radialGradient3093"
       gradientUnits="userSpaceOnUse"
       gradientTransform="matrix(0,0.94477745,-0.99946216,-2.5715389e-8,20.445273,-4.2979527)"
       cx="7.4956832"
       cy="8.4497671"
       fx="7.4956832"
       fy="8.4497671"
       r="19.99999" />
    <linearGradient
       inkscape:collect="always"
       xlink:href="#linearGradient3104"
       id="linearGradient3095"
       gradientUnits="userSpaceOnUse"
       gradientTransform="matrix(0.48717948,0,0,0.48717939,0.30769221,0.30769258)"
       x1="24"
       y1="44"
       x2="24"
       y2="3.8990016" />
    <linearGradient
       inkscape:collect="always"
       xlink:href="#linearGradient3104-5"
       id="linearGradient3098"
       gradientUnits="userSpaceOnUse"
       x1="20"
       y1="43"
       x2="20"
       y2="3"
       gradientTransform="matrix(0.48766996,0,0,0.4873028,0.29748649,-0.16000174)" />
    <linearGradient
       inkscape:collect="always"
       xlink:href="#linearGradient3891"
       id="linearGradient3897"
       x1="24.772341"
       y1="8.1982851"
       x2="24.772341"
       y2="42.203014"
       gradientUnits="userSpaceOnUse"
       gradientTransform="matrix(0.44793889,0,0,0.45828852,1.0005183,0.5045462)" />
  </defs>
  <metadata
     id="metadata4122">
    <rdf:RDF>
      <cc:Work
         rdf:about="">
        <dc:format>image/svg+xml</dc:format>
        <dc:type
           rdf:resource="http://purl.org/dc/dcmitype/StillImage" />
        <dc:title />
      </cc:Work>
    </rdf:RDF>
  </metadata>
  <g
     style="display:inline"
     id="g2036"
     transform="matrix(0.56249978,0,0,0.25000023,-1.7500002,11.249996)">
    <g
       style="opacity:0.4"
       id="g3712"
       transform="matrix(1.052632,0,0,1.285713,-1.263158,-13.42854)">
      <rect
         style="fill:url(#radialGradient2873-966-168);fill-opacity:1;stroke:none"
         id="rect2801"
         y="40"
         x="38"
         height="7"
         width="5" />
      <rect
         style="fill:url(#radialGradient2875-742-326);fill-opacity:1;stroke:none"
         id="rect3696"
         transform="scale(-1,-1)"
         y="-47"
         x="-10"
         height="7"
         width="5" />
      <rect
         style="fill:url(#linearGradient2877-634-617);fill-opacity:1;stroke:none"
         id="rect3700"
         y="40"
         x="10"
         height="7.0000005"
         width="28" />
    </g>
  </g>
  <path
     inkscape:connector-curvature="0"
     style="opacity:0.05;color:#000000;fill:url(#linearGradient3098);fill-opacity:1;fill-rule:nonzero;stroke:none;stroke-width:1;marker:none;visibility:visible;display:inline;overflow:visible;enable-background:accumulate"
     id="path4564-0"
     d="M 11.498656,3.8297901 A 1.4317614,1.4306834 0 0 0 10.812869,4.0277568 L 5.4332607,7.1343121 a 1.4317614,1.4306834 0 0 0 -0.685786,0.9898334 1.4317614,1.4306834 0 0 0 -0.015238,0 1.4317614,1.4306834 0 0 0 -0.4724304,1.0659742 l -0.030479,6.1978843 a 1.4317614,1.4306834 0 0 0 0.4876699,1.065975 1.4317614,1.4306834 0 0 0 0,0.01521 1.4317614,1.4306834 0 0 0 0.7010255,1.020291 l 5.3643693,3.076099 a 1.4317614,1.4306834 0 0 0 1.173456,0.106599 1.4317614,1.4306834 0 0 0 0.01522,0 1.4317614,1.4306834 0 0 0 1.219174,-0.09137 l 5.364372,-3.091325 a 1.4317614,1.4306834 0 0 0 0.685788,-0.974605 1.4317614,1.4306834 0 0 0 0.533388,-1.096433 l 0,-6.1978797 A 1.4317614,1.4306834 0 0 0 19.286136,8.1546038 1.4317614,1.4306834 0 0 0 18.585109,7.1343121 L 13.2055,4.0429851 A 1.4317614,1.4306834 0 0 0 12.032044,3.9211593 1.4317614,1.4306834 0 0 0 11.498656,3.8297901 z" />
  <rect
     style="color:#000000;fill:url(#radialGradient3093);fill-opacity:1;fill-rule:nonzero;stroke:url(#linearGradient3095);stroke-width:0.99999988;stroke-linecap:round;stroke-linejoin:round;stroke-miterlimit:4;stroke-opacity:1;stroke-dasharray:none;stroke-dashoffset:0;marker:none;visibility:visible;display:inline;overflow:visible;enable-background:accumulate"
     id="rect5505-21"
     y="2.5"
     x="2.5"
     ry="0.97435886"
     rx="0.97435886"
     height="19"
     width="19" />
  <rect
     style="fill:none;stroke:url(#linearGradient3084);stroke-width:1;stroke-linecap:round;stroke-linejoin:round;stroke-miterlimit:4;stroke-opacity:1;stroke-dasharray:none;stroke-dashoffset:0"
     id="rect6741-2"
     y="3.5"
     x="3.5"
     ry="0"
     rx="0"
     height="17"
     width="17" />
  <g
     style="display:none"
     id="layer2"
     transform="translate(-135.85714,-55.05041)">
    <path
       inkscape:connector-curvature="0"
       style="opacity:0.9;fill:url(#ButtonShadow);fill-opacity:1;fill-rule:nonzero;stroke:none;filter:url(#filter3174)"
       id="rect3745"
       d="M 11,7 48,5 85,7 c 3.324,0 6,2.676 6,6 l 0,73 c 0,3.324 -2.676,6 -6,6 L 11,92 C 7.676,92 5,89.324 5,86 L 5,13 C 5,9.676 7.676,7 11,7 z" />
  </g>
  <g
     style="display:none"
     id="layer4"
     transform="translate(-135.85714,-55.05041)">
    <rect
       style="opacity:0.6;fill:#000000;fill-opacity:1;stroke:none;filter:url(#filter3806)"
       id="rect3790"
       transform="matrix(0,-1,1,0,0,4)"
       y="56"
       x="-86"
       ry="2.8125"
       rx="2.8125"
       height="30"
       width="30" />
    <rect
       style="fill:url(#linearGradient3773);fill-opacity:1;stroke:none"
       id="rect2993"
       transform="matrix(0,-1,1,0,0,0)"
       y="56"
       x="-88"
       ry="2.8125"
       rx="2.8125"
       height="30"
       width="30" />
    <path
       inkscape:connector-curvature="0"
       style="opacity:0.5;fill:url(#linearGradient3788);fill-opacity:1;stroke:none"
       id="rect3775"
       d="M 58.8125,58 C 57.254375,58 56,59.254375 56,60.8125 l 0,24.375 c 0,0.873066 0.410816,1.641163 1.03125,2.15625 C 57.02841,87.289908 57,87.242129 57,87.1875 l 0,-24.375 C 57,61.254375 58.17075,60 59.625,60 l 22.75,0 C 83.82925,60 85,61.254375 85,62.8125 l 0,24.375 c 0,0.05463 -0.02841,0.102408 -0.03125,0.15625 C 85.589184,86.828663 86,86.060566 86,85.1875 l 0,-24.375 C 86,59.254375 84.745625,58 83.1875,58 l -24.375,0 z" />
    <path
       inkscape:connector-curvature="0"
       style="opacity:0.6;fill:url(#linearGradient3812);fill-opacity:1;fill-rule:nonzero;stroke:none;display:inline;filter:url(#filter3831)"
       id="path3810"
       clip-path="url(#clipPath3823)"
       transform="translate(-50,0)"
       d="m 116,63.5 0,8.75 -5,0 10,13.75 10,-13.75 -5,0 0,-8.75 -10,0 z" />
    <path
       inkscape:connector-curvature="0"
       style="fill:url(#linearGradient3832);fill-opacity:1;fill-rule:nonzero;stroke:none;display:inline"
       id="path4278"
       d="m 66,62.5 0,8.75 -5,0 10,13.75 10,-13.75 -5,0 0,-8.75 -10,0 z" />
  </g>
  <path
     style="opacity:0.6;fill:#ffffff;fill-opacity:1"
     d="M 10.200933,20.92612 C 9.1596678,20.772915 8.409162,20.441759 7.8132378,19.872566 6.7437659,18.851063 6.7783821,17.352322 7.8971314,16.240377 8.6556567,15.48647 10.235922,14.73795 11.941048,14.592846 c 0.314243,-0.02673 0.581627,-0.05755 0.594187,-0.06843 0.01257,-0.01089 -0.08576,-0.1754 -0.21847,-0.36556 -0.189664,-0.271742 -0.248171,-0.441561 -0.273375,-0.793471 -0.01766,-0.246257 -0.3014,-0.267884 -0.25778,-0.394099 l 0.07921,-0.229485 -0.538679,0 c -1.7361133,0 -2.9921692,-1.024179 -3.2708057,-2.666993 C 7.8886026,9.0917286 8.3111098,7.9263741 9.1150466,7.1519394 9.9122005,6.384038 11.249758,5.9019564 12.583179,5.9019564 c 0.516234,0 0.815713,-0.1067307 1.667849,-0.594395 C 14.546616,5.1384028 14.81638,5 14.850508,5 c 0.107958,0 0.520017,0.3849629 0.520017,0.4858228 0,0.053156 -0.187369,0.355759 -0.416376,0.6724552 l -0.416379,0.5758041 0.293452,0.3215192 c 0.92541,1.0139138 1.155543,2.3166893 0.616673,3.4909567 -0.189737,0.413459 -0.372002,0.639281 -1.014005,1.256317 -0.596928,0.573719 -0.796383,0.814539 -0.840386,1.014702 -0.104658,0.47606 0.01983,0.71208 0.644437,1.221798 0.908568,0.74145 1.615969,1.457601 1.827485,1.850084 0.107266,0.199035 0.24671,0.586938 0.309876,0.862003 0.102829,0.447797 0.10309,0.551297 0.0024,0.989343 -0.06181,0.269079 -0.20079,0.665504 -0.308891,0.880944 -0.250918,0.500081 -0.988392,1.277218 -1.483517,1.563309 -1.168098,0.674953 -2.874078,0.963297 -4.384477,0.741064 z m 3.355517,-1.324098 c 0.512212,-0.200529 0.959353,-0.582646 1.184721,-1.012439 0.215377,-0.410736 0.357028,-1.027101 0.151372,-1.413175 -0.191027,-0.358609 -0.871719,-1.01346 -1.514945,-1.457425 l -0.532532,-0.367564 -0.653695,0.05232 c -1.764731,0.141258 -2.7818101,0.613688 -3.2414053,1.50562 -0.2482073,0.481702 -0.2232118,1.240756 0.057968,1.760108 0.5396606,0.996797 1.4635563,1.167988 3.1433233,1.127326 0.791903,-0.01919 1.046965,-0.05451 1.405193,-0.194771 z M 13.060909,11.199827 C 13.929184,10.761352 14.214791,10.477309 13.838565,9.0050127 13.574381,7.9711646 12.99331,7.1641348 12.331934,6.8407905 11.974231,6.6659118 11.452312,6.6418713 10.994474,6.7791821 10.555286,6.9108989 10.038837,7.5849841 9.9028881,8.0584265 9.6778087,8.8422661 9.796705,9.8350025 10.242748,10.727387 c 0.655229,1.310879 1.711996,1.031046 2.818161,0.47244 z"
     id="path3082-7"
     inkscape:connector-curvature="0"
     sodipodi:nodetypes="cssccssccsssssssscssssscscssccsssscssscssssssss" />
  <path
     style="fill:#3b60b5;fill-opacity:1"
     d="M 10.166933,19.926112 C 9.1256669,19.772907 8.3751612,19.441749 7.7792377,18.872556 6.7097661,17.851057 6.7443822,16.352313 7.8631305,15.24037 c 0.7585259,-0.75391 2.0338908,-1.219306 3.7390165,-1.364408 0.314243,-0.02672 0.581626,-0.05756 0.594188,-0.06843 0.01257,-0.01089 -0.08576,-0.175401 -0.218471,-0.365559 -0.189663,-0.271745 -0.248171,-0.441564 -0.273374,-0.793475 -0.01766,-0.246252 0.0035,-0.551002 0.04712,-0.677216 l 0.07921,-0.229484 -0.538677,0 c -1.7361141,0 -2.9921697,-1.02418 -3.270807,-2.6669932 C 7.8546023,8.0917282 8.2771094,6.9263732 9.0810461,6.1519388 9.8781996,5.3840377 11.215757,4.9019566 12.549179,4.9019566 c 0.516232,0 0.815713,-0.1067308 1.667847,-0.5943953 0.295588,-0.1691585 0.565353,-0.3075615 0.59948,-0.3075615 0.107958,0 0.520018,0.3849629 0.520018,0.4858226 0,0.053156 -0.18737,0.3557597 -0.416377,0.6724553 l -0.416373,0.5758067 0.293452,0.321519 c 0.92541,1.0139137 1.155543,2.3166893 0.616674,3.4909544 -0.189738,0.4134615 -0.372003,0.6392822 -1.014007,1.2563172 -0.596927,0.573717 -0.796382,0.814538 -0.840386,1.0147 -0.104658,0.476062 0.01983,0.712081 0.644437,1.2218 0.908568,0.741449 1.615969,1.457601 1.827485,1.850083 0.107267,0.199034 0.246711,0.586938 0.309876,0.862004 0.102829,0.447795 0.10309,0.551296 0.0024,0.989344 -0.06181,0.26908 -0.200791,0.665502 -0.308892,0.880943 -0.250918,0.500082 -0.988392,1.277215 -1.483517,1.563308 -1.168099,0.674952 -2.874078,0.963298 -4.384477,0.741065 z m 3.46309,-1.441371 c 0.328914,-0.135339 0.638051,-0.305675 0.869023,-0.712143 0.22913,-0.403226 0.341853,-1.094626 0.151598,-1.557697 -0.154414,-0.375834 -0.771618,-0.844067 -1.414846,-1.288031 l -0.532533,-0.367561 -0.692195,0.07542 c -1.759959,0.19176 -2.5046128,0.790784 -2.8718099,1.45942 -0.260844,0.474976 -0.1416513,1.055553 0.050268,1.429012 0.4857774,0.945283 1.3016309,1.289412 2.9813999,1.24875 0.791901,-0.01917 1.120344,-0.147783 1.459095,-0.28717 z M 12.956288,10.740094 C 14.108542,10.324119 13.738416,8.486616 13.527367,7.8433096 13.267681,7.0517518 12.761753,6.3632325 12.308277,6.1168871 11.958404,5.9268235 11.467154,5.8871684 11.009315,6.0244799 c -0.439188,0.1317166 -0.82594,0.5846464 -0.968387,1.056174 -0.1018816,0.3372467 -0.1242251,1.3539498 0.321816,2.2463346 0.65523,1.3108755 1.42966,1.8332785 2.593544,1.4131055 z"
     id="path3082"
     inkscape:connector-curvature="0"
     sodipodi:nodetypes="cssccssccsssssssscssssscscssccsssscssscssssssss" />
  <path
     style="opacity:0.1;fill:none;stroke:url(#linearGradient3897);stroke-width:0.60000002;stroke-miterlimit:4;stroke-opacity:1;stroke-dasharray:none"
     d="m 14.70465,4.3999987 c -0.75149,0.3883588 -1.508642,0.8952449 -2.399644,0.8030738 -1.435738,0.071886 -3.1306707,0.7401112 -3.7317239,2.171831 -0.6751805,1.3589368 0.05122,3.2937885 1.4651809,3.8602625 0.592611,0.283681 1.25244,0.241529 1.885761,0.264433 0.260844,0.101278 0.0939,0.393239 0.07422,0.581334 -0.149207,0.611325 0.205297,1.291399 0.492456,1.782049 -0.129316,0.446842 -1.017136,0.23768 -1.368052,0.359589 -1.3455316,0.16642 -2.8214257,0.469267 -3.5048598,1.789832 -0.6113345,1.191557 -0.2333369,2.189439 0.5883334,2.78281 1.149175,0.906507 2.8631554,1.007876 4.2431064,0.802292 1.021206,-0.173317 2.080831,-0.718586 2.740289,-1.581096 0.508092,-0.531364 0.877455,-1.201031 0.907181,-1.940386 -0.08668,-0.7085 -0.501956,-1.42557 -1.03487,-1.897088 -0.514132,-0.583988 -1.257604,-1.009908 -1.756256,-1.604201 -0.362349,-0.566963 0.159086,-1.40016 0.61029,-1.779424 0.593094,-0.580479 1.301592,-1.0985888 1.435464,-1.978652 C 15.591994,7.7649436 14.971144,6.6520622 14.239502,5.9339791 14.003323,5.7399795 14.233055,5.5803217 14.346625,5.4076914 14.518054,5.0661059 15.18295,4.5284542 14.704627,4.3999987 z m -0.993008,3.0577285 c 0.313273,1.0074155 0.528511,2.421919 -0.251301,3.2727988 -0.732261,0.761457 -1.889407,0.656785 -2.614766,-0.138269 C 9.8337583,9.309426 9.5142114,8.4037554 9.7370978,7.0836285 9.9265116,6.1818642 10.598604,5.7629653 11.604059,5.6604442 c 0.872829,-0.068879 1.799562,0.9332895 2.107583,1.797283 z m -0.97093,6.8116468 c 0.280093,0.08813 0.341068,0.290673 0.594932,0.44085 0.55894,0.452356 1.307081,0.760309 1.589224,1.452654 0.233302,0.835746 0.09208,1.811435 -0.645855,2.323971 -0.815749,0.67685 -1.989946,0.589455 -2.975174,0.537706 -1.127737,-0.05967 -2.3403362,-0.670203 -2.6354291,-1.853631 -0.287946,-0.960513 0.3972307,-1.795416 1.2552852,-2.235571 0.8879409,-0.497055 1.8260959,-0.605772 2.8170169,-0.665979 z"
     id="path3888"
     inkscape:connector-curvature="0"
     sodipodi:nodetypes="ccccccccccccccccccccccccccccccccccc" />
</svg>
