<?xml version="1.0" encoding="UTF-8" standalone="no"?>
<svg
   xmlns:dc="http://purl.org/dc/elements/1.1/"
   xmlns:cc="http://creativecommons.org/ns#"
   xmlns:rdf="http://www.w3.org/1999/02/22-rdf-syntax-ns#"
   xmlns:svg="http://www.w3.org/2000/svg"
   xmlns="http://www.w3.org/2000/svg"
   xmlns:xlink="http://www.w3.org/1999/xlink"
   id="svg2"
   height="24"
   width="24"
   version="1.0">
  <metadata
     id="metadata53">
    <rdf:RDF>
      <cc:Work
         rdf:about="">
        <dc:format>image/svg+xml</dc:format>
        <dc:type
           rdf:resource="http://purl.org/dc/dcmitype/StillImage" />
      </cc:Work>
    </rdf:RDF>
  </metadata>
  <defs
     id="defs4">
    <linearGradient
       id="linearGradient3308-4-6-931-761-6">
      <stop
         offset="0"
         style="stop-color:#ffffff;stop-opacity:1"
         id="stop2919-1" />
      <stop
         offset="1"
         style="stop-color:#ffffff;stop-opacity:0"
         id="stop2921-0" />
    </linearGradient>
    <radialGradient
       gradientTransform="matrix(2.003784,0,0,1.4,27.98813,-17.4)"
       gradientUnits="userSpaceOnUse"
       xlink:href="#linearGradient3688-166-749"
       id="radialGradient2889"
       fy="43.5"
       fx="4.9929786"
       r="2.5"
       cy="43.5"
       cx="4.9929786" />
    <linearGradient
       id="linearGradient3688-166-749">
      <stop
         offset="0"
         style="stop-color:#181818;stop-opacity:1"
         id="stop2883" />
      <stop
         offset="1"
         style="stop-color:#181818;stop-opacity:0"
         id="stop2885" />
    </linearGradient>
    <radialGradient
       gradientTransform="matrix(2.003784,0,0,1.4,-20.01187,-104.4)"
       gradientUnits="userSpaceOnUse"
       xlink:href="#linearGradient3688-464-309"
       id="radialGradient2891"
       fy="43.5"
       fx="4.9929786"
       r="2.5"
       cy="43.5"
       cx="4.9929786" />
    <linearGradient
       id="linearGradient3688-464-309">
      <stop
         offset="0"
         style="stop-color:#181818;stop-opacity:1"
         id="stop2889" />
      <stop
         offset="1"
         style="stop-color:#181818;stop-opacity:0"
         id="stop2891" />
    </linearGradient>
    <linearGradient
       gradientUnits="userSpaceOnUse"
       xlink:href="#linearGradient3702-501-757"
       id="linearGradient2893"
       y2="39.999443"
       x2="25.058096"
       y1="47.027729"
       x1="25.058096" />
    <linearGradient
       id="linearGradient3702-501-757">
      <stop
         offset="0"
         style="stop-color:#181818;stop-opacity:0"
         id="stop2895" />
      <stop
         offset="0.5"
         style="stop-color:#181818;stop-opacity:1"
         id="stop2897" />
      <stop
         offset="1"
         style="stop-color:#181818;stop-opacity:0"
         id="stop2899" />
    </linearGradient>
    <linearGradient
       id="linearGradient3707">
      <stop
         offset="0"
         style="stop-color:#4c2a4e;stop-opacity:1"
         id="stop3709" />
      <stop
         offset="1"
         style="stop-color:#a85394;stop-opacity:1"
         id="stop3711" />
    </linearGradient>
    <linearGradient
       id="linearGradient3824">
      <stop
         offset="0"
         style="stop-color:#ffffff;stop-opacity:1"
         id="stop3826" />
      <stop
         offset="1"
         style="stop-color:#ffffff;stop-opacity:0"
         id="stop3828" />
    </linearGradient>
    <linearGradient
       id="linearGradient3924">
      <stop
         offset="0"
         style="stop-color:#ffffff;stop-opacity:1"
         id="stop3926" />
      <stop
         offset="1"
         style="stop-color:#ffffff;stop-opacity:0"
         id="stop3928" />
    </linearGradient>
    <linearGradient
       id="linearGradient7209">
      <stop
         offset="0"
         style="stop-color:#e384c6;stop-opacity:1"
         id="stop7211" />
      <stop
         offset="0.26238"
         style="stop-color:#c467be;stop-opacity:1"
         id="stop7213" />
      <stop
         offset="0.704952"
         style="stop-color:#93399a;stop-opacity:1"
         id="stop7215" />
      <stop
         offset="1"
         style="stop-color:#48274f;stop-opacity:1"
         id="stop7217" />
    </linearGradient>
    <linearGradient
       gradientTransform="matrix(0.51351371,0,0,0.51351372,-0.32432424,-0.3243287)"
       gradientUnits="userSpaceOnUse"
       xlink:href="#linearGradient3308-4-6-931-761-6"
       id="linearGradient3036"
       y2="43"
       x2="23.99999"
       y1="4.999989"
       x1="23.99999" />
    <radialGradient
       gradientTransform="matrix(3.0337968e-8,0.90467628,-1.3049793,0,23.02683,-4.635622)"
       gradientUnits="userSpaceOnUse"
       xlink:href="#linearGradient7209"
       id="radialGradient3044"
       fy="13.194963"
       fx="12.011247"
       r="19.99999"
       cy="13.194963"
       cx="12.011247" />
    <linearGradient
       gradientTransform="matrix(0.53846153,0,0,0.53847115,-0.92307804,-0.9233082)"
       gradientUnits="userSpaceOnUse"
       xlink:href="#linearGradient3707"
       id="linearGradient3046"
       y2="3.8990016"
       x2="24"
       y1="44"
       x1="24" />
    <linearGradient
       spreadMethod="reflect"
       gradientTransform="matrix(0.52216996,0,0,0.52217053,-0.41803103,-1.0542641)"
       gradientUnits="userSpaceOnUse"
       xlink:href="#linearGradient3924"
       id="linearGradient4028"
       y2="6"
       x2="17"
       y1="25"
       x1="17" />
    <radialGradient
       gradientTransform="matrix(0,0.70783234,-2.1158858,0,38.313977,-8.4310394)"
       gradientUnits="userSpaceOnUse"
       xlink:href="#linearGradient3824"
       id="radialGradient4031"
       fy="9.488533"
       fx="24"
       r="18.5"
       cy="9.488533"
       cx="24" />
  </defs>
  <g
     style="display:inline"
     id="g2036"
     transform="matrix(0.59999976,0,0,0.33333364,-2.4000002,8.3333283)">
    <g
       style="opacity:0.4"
       id="g3712"
       transform="matrix(1.052632,0,0,1.285713,-1.263158,-13.42854)">
      <rect
         style="fill:url(#radialGradient2889);fill-opacity:1;stroke:none"
         id="rect2801"
         y="40"
         x="38"
         height="7"
         width="5" />
      <rect
         style="fill:url(#radialGradient2891);fill-opacity:1;stroke:none"
         id="rect3696"
         transform="scale(-1,-1)"
         y="-47"
         x="-10"
         height="7"
         width="5" />
      <rect
         style="fill:url(#linearGradient2893);fill-opacity:1;stroke:none"
         id="rect3700"
         y="40"
         x="10"
         height="7.0000005"
         width="28" />
    </g>
  </g>
  <rect
     style="fill:url(#radialGradient3044);fill-opacity:1;stroke:url(#linearGradient3046);stroke-width:1;stroke-linecap:round;stroke-linejoin:round;stroke-miterlimit:4;stroke-opacity:1;stroke-dasharray:none;stroke-dashoffset:0"
     id="rect5505-3"
     y="1.499812"
     x="1.4999999"
     ry="2.2322156"
     rx="2.2322156"
     height="21.000376"
     width="21" />
  <rect
     style="opacity:0.4;fill:none;stroke:url(#linearGradient3036);stroke-width:0.99999988;stroke-linecap:round;stroke-linejoin:round;stroke-miterlimit:4;stroke-opacity:1;stroke-dasharray:none;stroke-dashoffset:0"
     id="rect6741"
     y="2.4999917"
     x="2.5"
     ry="1.3651931"
     rx="1.365193"
     height="19.000015"
     width="19" />
  <path
     style="opacity:0.8;fill:none;stroke:#ffffff;stroke-width:0.99999994px;stroke-linecap:butt;stroke-linejoin:miter;stroke-opacity:1"
     id="path3701"
     d="m 2.34221,13.072731 c 2.080179,-5.2895779 4.09598,2.360785 5.48805,1.040785 1.199491,-1.137392 1.358502,-4.4105268 2.634264,-5.6202389 1.143249,-1.0840623 1.93909,3.5039569 2.19522,3.7468259 1.570911,1.489583 1.724987,-2.4233798 2.414741,-1.769335 1.138493,1.079552 -0.133672,3.932311 1.09761,5.099848 0.987902,0.936757 2.00044,-8.2711933 5.48805,-2.601964" />
  <path
     style="opacity:0.4;fill:url(#radialGradient4031);fill-opacity:1;stroke:none"
     id="path3782"
     d="M 10.839079,8.5569412 C 10.158835,8.9378105 9.930904,9.7926952 9.647879,10.482441 9.150188,11.76862 8.967699,13.264286 7.983462,14.300813 7.353326,14.87025 6.628796,14.156277 6.253775,13.6481 5.594306,12.906511 5.112735,11.902316 4.181414,11.46151 3.3037,11.301575 2.938055,12.371822 2.631221,13.011705 c -0.03899,0.197407 -0.50429,0.220524 -0.640846,0.195813 l 0,7.718334 c 0,0.394926 0.670183,1.02654 1.065109,1.02654 l 17.884321,0 c 0.394926,0 1.02654,-0.631614 1.02654,-1.02654 l 0,-7.489884 c -0.50299,-0.76057 -1.59734,-1.919096 -2.299329,-2.088682 -0.97144,-0.0046 -1.374572,1.089303 -1.762324,1.811279 -0.433913,0.839161 -0.651744,1.81099 -1.240153,2.5619 -0.865436,0.535614 -1.29214,-0.938596 -1.305425,-1.599148 -0.119846,-1.086461 0.223862,-2.26822 -0.293721,-3.279884 -0.418044,-0.353215 -0.487148,0.905439 -0.783255,1.20752 -0.271096,0.946713 -1.687054,0.999007 -1.958137,0.04896 -0.387019,-1.141175 -0.557646,-2.4046198 -1.289107,-3.3941088 l -0.114225,-0.097907 -0.08159,-0.048956 z" />
  <path
     style="opacity:0.3;color:#000000;fill:none;stroke:url(#linearGradient4028);stroke-width:0.99999994px;stroke-linecap:square;stroke-linejoin:miter;stroke-miterlimit:4;stroke-opacity:1;stroke-dasharray:none;stroke-dashoffset:0;marker:none;visibility:visible;display:inline;overflow:visible;enable-background:accumulate"
     id="path3834-9-0"
     d="m 8.5,2.3398444 0,19.3203096 0,-19.3203096 z m 7,0 0,19.3203096 0,-19.3203096 z" />
  <path
     style="opacity:0.2;fill:none;stroke:#ffffff;stroke-width:0.99999994px;stroke-linecap:round;stroke-linejoin:miter;stroke-opacity:1"
     id="path4284"
     d="m 4,19.5 3,0 -3,0 z m 6,0 4,0 -4,0 z m 7,0 3,0 -3,0 z" />
</svg>
