<?xml version="1.0" encoding="UTF-8" standalone="no"?>
<svg
   xmlns:dc="http://purl.org/dc/elements/1.1/"
   xmlns:cc="http://creativecommons.org/ns#"
   xmlns:rdf="http://www.w3.org/1999/02/22-rdf-syntax-ns#"
   xmlns:svg="http://www.w3.org/2000/svg"
   xmlns="http://www.w3.org/2000/svg"
   xmlns:xlink="http://www.w3.org/1999/xlink"
   id="svg11300"
   height="24"
   width="24"
   version="1.1">
  <metadata
     id="metadata151095">
    <rdf:RDF>
      <cc:Work
         rdf:about="">
        <dc:format>image/svg+xml</dc:format>
        <dc:type
           rdf:resource="http://purl.org/dc/dcmitype/StillImage" />
      </cc:Work>
    </rdf:RDF>
  </metadata>
  <defs
     id="defs3">
    <linearGradient
       id="linearGradient10591">
      <stop
         offset="0"
         style="stop-color:#dcdcdc;stop-opacity:1"
         id="stop10593" />
      <stop
         offset="0.5"
         style="stop-color:#fafafa;stop-opacity:1"
         id="stop10599" />
      <stop
         offset="1"
         style="stop-color:#c8c8c8;stop-opacity:1"
         id="stop10595" />
    </linearGradient>
    <linearGradient
       id="linearGradient7622-6">
      <stop
         offset="0"
         style="stop-color:white;stop-opacity:1"
         id="stop7624-1" />
      <stop
         offset="1"
         style="stop-color:white;stop-opacity:0"
         id="stop7626-5" />
    </linearGradient>
    <linearGradient
       id="linearGradient14861-7">
      <stop
         offset="0"
         style="stop-color:white;stop-opacity:1"
         id="stop14863-5" />
      <stop
         offset="1"
         style="stop-color:white;stop-opacity:0"
         id="stop14865-8" />
    </linearGradient>
    <linearGradient
       id="linearGradient14780-7-6">
      <stop
         offset="0"
         style="stop-color:#d3ba00;stop-opacity:1"
         id="stop14782-0-3" />
      <stop
         offset="1"
         style="stop-color:#d3ba00;stop-opacity:0"
         id="stop14784-4-7" />
    </linearGradient>
    <linearGradient
       id="linearGradient14981-4-9">
      <stop
         offset="0"
         style="stop-color:#6d9335;stop-opacity:1"
         id="stop14983-1-0" />
      <stop
         offset="1"
         style="stop-color:#364d17;stop-opacity:1"
         id="stop14985-7-7" />
    </linearGradient>
    <linearGradient
       id="linearGradient14993">
      <stop
         offset="0"
         style="stop-color:black;stop-opacity:1"
         id="stop14995" />
      <stop
         offset="1"
         style="stop-color:black;stop-opacity:0"
         id="stop14997" />
    </linearGradient>
    <linearGradient
       gradientTransform="matrix(0.39731096,0,0,0.39082257,2.143028,-0.1067287)"
       gradientUnits="userSpaceOnUse"
       xlink:href="#linearGradient14861-7"
       id="linearGradient3222"
       y2="31.347067"
       x2="18.968426"
       y1="20.165941"
       x1="16.964844" />
    <radialGradient
       gradientTransform="matrix(1.4043815,0.04555468,-0.03427223,1.0005357,-11.151028,-10.219333)"
       gradientUnits="userSpaceOnUse"
       xlink:href="#linearGradient7622-6"
       id="radialGradient3226"
       fy="16.655396"
       fx="10"
       r="16.000418"
       cy="16.655396"
       cx="10" />
    <linearGradient
       gradientTransform="matrix(0.9999997,0,0,0.56326439,4.000001,-4.3017486)"
       gradientUnits="userSpaceOnUse"
       xlink:href="#linearGradient14780-7-6"
       id="linearGradient3240"
       y2="39.266895"
       x2="6.2376504"
       y1="42.890816"
       x1="6.2209711" />
    <linearGradient
       gradientTransform="matrix(0.99999854,0,0,0.56326439,2.00001,-4.3017486)"
       gradientUnits="userSpaceOnUse"
       xlink:href="#linearGradient14780-7-6"
       id="linearGradient3243"
       y2="39.266895"
       x2="6.2376504"
       y1="42.890816"
       x1="6.2209711" />
    <linearGradient
       gradientTransform="matrix(1.0000004,0,0,0.56326439,-2e-6,-4.3017493)"
       gradientUnits="userSpaceOnUse"
       xlink:href="#linearGradient14780-7-6"
       id="linearGradient3246"
       y2="39.266895"
       x2="6.2376504"
       y1="42.890816"
       x1="6.2209711" />
    <linearGradient
       gradientTransform="matrix(1,0,0,0.56326439,-2,-4.3017493)"
       gradientUnits="userSpaceOnUse"
       xlink:href="#linearGradient14780-7-6"
       id="linearGradient3249"
       y2="39.266895"
       x2="6.2376504"
       y1="42.890816"
       x1="6.2209711" />
    <radialGradient
       gradientTransform="matrix(0.64705885,0,0,0.17647041,-2.911765,13.103433)"
       gradientUnits="userSpaceOnUse"
       xlink:href="#linearGradient14993"
       id="radialGradient3259"
       fy="44.75"
       fx="21.5"
       r="17"
       cy="44.75"
       cx="21.5" />
    <radialGradient
       gradientTransform="matrix(2.2011105,0,0,0.9928155,-28.19895,-11.347918)"
       gradientUnits="userSpaceOnUse"
       xlink:href="#linearGradient14981-4-9"
       id="radialGradient3262"
       fy="19.770353"
       fx="15"
       r="17.001272"
       cy="19.770353"
       cx="15" />
    <linearGradient
       id="linearGradient12071">
      <stop
         offset="0"
         style="stop-color:white;stop-opacity:1"
         id="stop12073" />
      <stop
         offset="1"
         style="stop-color:white;stop-opacity:0"
         id="stop12075" />
    </linearGradient>
    <linearGradient
       id="linearGradient5881">
      <stop
         offset="0"
         style="stop-color:#d6c8a7;stop-opacity:1"
         id="stop5883" />
      <stop
         offset="1"
         style="stop-color:#d0bd99;stop-opacity:1"
         id="stop5885" />
    </linearGradient>
    <linearGradient
       id="linearGradient2411-1">
      <stop
         offset="0"
         style="stop-color:#fee7b1;stop-opacity:1"
         id="stop2413-5" />
      <stop
         offset="0.25796592"
         style="stop-color:#ebd4b4;stop-opacity:1"
         id="stop2419-3" />
      <stop
         offset="0.50796592"
         style="stop-color:#c8a775;stop-opacity:1"
         id="stop2421-5" />
      <stop
         offset="0.74009573"
         style="stop-color:#b0935b;stop-opacity:1"
         id="stop2423-1" />
      <stop
         offset="1"
         style="stop-color:#fcebbf;stop-opacity:1"
         id="stop2415-1" />
    </linearGradient>
    <linearGradient
       gradientTransform="matrix(0.25316645,0,0,0.30433767,9.4062564,9.6045806)"
       gradientUnits="userSpaceOnUse"
       xlink:href="#linearGradient10591"
       id="linearGradient4275"
       y2="14.442574"
       x2="46.79763"
       y1="14.442574"
       x1="3.1504524" />
    <linearGradient
       gradientTransform="matrix(0.20588235,0,0,0.40374204,10.558823,9.4056474)"
       gradientUnits="userSpaceOnUse"
       xlink:href="#linearGradient5881"
       id="linearGradient4281"
       y2="17"
       x2="24.75"
       y1="21"
       x1="24.875" />
    <linearGradient
       gradientTransform="matrix(0.22861209,0,0,0.26448676,10.014021,10.24731)"
       gradientUnits="userSpaceOnUse"
       xlink:href="#linearGradient2411-1"
       id="linearGradient4287"
       y2="32.161697"
       x2="40.938126"
       y1="32.161697"
       x1="6.72682" />
    <linearGradient
       gradientTransform="matrix(0.18181819,0,0,0.2515933,11.136364,12.097116)"
       gradientUnits="userSpaceOnUse"
       xlink:href="#linearGradient12071"
       id="linearGradient4297"
       y2="18.037588"
       x2="21.941509"
       y1="21.550869"
       x1="21.941509" />
    <linearGradient
       gradientTransform="matrix(0.73900817,0,0,0.62997639,-8.456032,-1.5460199)"
       gradientUnits="userSpaceOnUse"
       xlink:href="#linearGradient10591"
       id="linearGradient4304"
       y2="20.018223"
       x2="42.4007"
       y1="15.04982"
       x1="42.365673" />
    <linearGradient
       gradientTransform="matrix(0.73900817,0,0,0.62997639,-8.456032,2.4539802)"
       gradientUnits="userSpaceOnUse"
       xlink:href="#linearGradient10591"
       id="linearGradient4308"
       y2="20.018223"
       x2="42.4007"
       y1="15.04982"
       x1="42.365673" />
    <linearGradient
       gradientTransform="translate(0,-1)"
       gradientUnits="userSpaceOnUse"
       xlink:href="#linearGradient10591"
       id="linearGradient4316"
       y2="11.25"
       x2="23"
       y1="11.25"
       x1="20" />
  </defs>
  <path
     style="opacity:0.4;color:black;fill:url(#radialGradient3259);fill-opacity:1;fill-rule:nonzero;stroke:none;stroke-width:1;marker:none;visibility:visible;display:block;overflow:visible"
     id="path14991"
     d="M 22,21.000488 A 11,3 0 0 1 1.05e-7,21.000488 11,3 0 1 1 22,21.000488 z" />
  <rect
     style="color:black;fill:url(#linearGradient4308);fill-opacity:1;fill-rule:nonzero;stroke:#787878;stroke-width:0.49999997;stroke-linecap:round;stroke-linejoin:round;stroke-miterlimit:4;stroke-opacity:1;stroke-dasharray:none;stroke-dashoffset:0;marker:none;visibility:visible;display:block;overflow:visible"
     id="rect4306"
     y="12.25"
     x="20.25"
     ry="1"
     rx="1"
     height="2.5"
     width="3.5" />
  <path
     style="color:black;fill:url(#radialGradient3262);fill-opacity:1;fill-rule:nonzero;stroke:#2d410f;stroke-width:1;stroke-linecap:butt;stroke-linejoin:round;stroke-miterlimit:4;stroke-opacity:1;stroke-dasharray:none;stroke-dashoffset:0;marker:none;visibility:visible;display:block;overflow:visible"
     id="rect14772-0"
     d="m 0.502669,18.5 1.997331,0 0,3 10,0 0,-3 6.999951,0 0,-15.0000563 L 0.5,3.499942 0.50273,18.5 l -6.1e-5,0 z" />
  <path
     style="color:black;fill:none;stroke:#305526;stroke-width:0.5;stroke-linecap:butt;stroke-linejoin:miter;stroke-miterlimit:4;stroke-opacity:1;stroke-dasharray:none;stroke-dashoffset:0;marker:none;visibility:visible;display:block;overflow:visible"
     id="path14957-6"
     d="m 12.874,13.275 -7.632,0 0,2.020419" />
  <path
     style="color:black;fill:none;stroke:#305526;stroke-width:0.5;stroke-linecap:butt;stroke-linejoin:miter;stroke-miterlimit:4;stroke-opacity:1;stroke-dasharray:none;stroke-dashoffset:0;marker:none;visibility:visible;display:block;overflow:visible"
     id="path14826-5"
     d="m 4.25,19.95 0.03097,-3.24193 1.07338,-1.49541 11.93565,0 0,-4.81266 -2.623305,-1.641 2.038425,0 0,-1.9664324 -4.10512,0" />
  <path
     style="color:black;fill:none;stroke:#305526;stroke-width:0.5;stroke-linecap:butt;stroke-linejoin:miter;stroke-miterlimit:4;stroke-opacity:1;stroke-dasharray:none;stroke-dashoffset:0;marker:none;visibility:visible;display:block;overflow:visible"
     id="path14830"
     d="m 8.25,20.078451 0.03097,-3.24193 1.073379,-1.49541" />
  <path
     style="color:black;fill:none;stroke:#305526;stroke-width:0.5;stroke-linecap:butt;stroke-linejoin:miter;stroke-miterlimit:4;stroke-opacity:1;stroke-dasharray:none;stroke-dashoffset:0;marker:none;visibility:visible;display:block;overflow:visible"
     id="path14838"
     d="m 6.25,20.078451 0.03097,-3.24193 1.07338,-1.49541" />
  <path
     style="color:black;fill:none;stroke:#305526;stroke-width:0.5;stroke-linecap:butt;stroke-linejoin:miter;stroke-miterlimit:4;stroke-opacity:1;stroke-dasharray:none;stroke-dashoffset:0;marker:none;visibility:visible;display:block;overflow:visible"
     id="path14840"
     d="m 10.25,20.078451 0.03096,-3.24193 1.073379,-1.49541" />
  <path
     style="color:black;fill:url(#linearGradient3249);fill-opacity:1;fill-rule:nonzero;stroke:none;stroke-width:1;marker:none;visibility:visible;display:block;overflow:visible"
     id="path14788"
     d="M 4.5,18 C 4.902984,18 5,18.354433 5,18.510457 L 5,21 c 0,0 -1,0 -1,0 L 4,18.510457 C 4,18.354433 4.10489,18 4.5,18 z" />
  <path
     style="color:black;fill:url(#linearGradient3246);fill-opacity:1;fill-rule:nonzero;stroke:none;stroke-width:1;marker:none;visibility:visible;display:block;overflow:visible"
     id="path14792"
     d="M 6.499999,18 C 6.902984,18 7,18.354433 7,18.510457 L 7,21 c 0,0 -1,0 -1,0 L 6,18.510457 C 6,18.354433 6.104889,18 6.499999,18 z" />
  <path
     style="color:black;fill:url(#linearGradient3243);fill-opacity:1;fill-rule:nonzero;stroke:none;stroke-width:1;marker:none;visibility:visible;display:block;overflow:visible"
     id="path14796-8"
     d="M 8.499999,18 C 8.902984,18 9,18.354434 9,18.510459 L 9,21 c 0,0 -1,0 -1,0 L 8,18.510459 C 8,18.354434 8.104893,18 8.499999,18 z" />
  <path
     style="color:black;fill:url(#linearGradient3240);fill-opacity:1;fill-rule:nonzero;stroke:none;stroke-width:1;marker:none;visibility:visible;display:block;overflow:visible"
     id="path14800"
     d="M 10.499999,18 C 10.902984,18 11,18.354434 11,18.510459 L 11,21 c 0,0 -1,0 -1,0 l 0,-2.489541 C 10,18.354434 10.104893,18 10.499999,18 z" />
  <path
     style="color:black;fill:none;stroke:#305526;stroke-width:0.5;stroke-linecap:butt;stroke-linejoin:miter;stroke-miterlimit:4;stroke-opacity:1;stroke-dasharray:none;stroke-dashoffset:0;marker:none;visibility:visible;display:block;overflow:visible"
     id="path15029-1"
     d="M 4.382777,7.0925382 2.8,7.6884103 2.8,14.201 l 2.5,0" />
  <path
     style="color:black;fill:none;stroke:#305526;stroke-width:0.5;stroke-linecap:butt;stroke-linejoin:miter;stroke-miterlimit:4;stroke-opacity:1;stroke-dasharray:none;stroke-dashoffset:0;marker:none;visibility:visible;display:block;overflow:visible"
     id="path14959-2"
     d="m 4.99307,10.73511 0.598904,2.35444 1.09799,0 -0.598903,-2.35444" />
  <path
     style="color:black;fill:none;stroke:#305526;stroke-width:0.5;stroke-linecap:butt;stroke-linejoin:miter;stroke-miterlimit:4;stroke-opacity:1;stroke-dasharray:none;stroke-dashoffset:0;marker:none;visibility:visible;display:block;overflow:visible"
     id="path14961-2"
     d="m 7.251678,10.791681 0.598903,2.297869 1.097991,0 -0.598904,-2.297869" />
  <path
     style="color:black;fill:none;stroke:#305526;stroke-width:0.5;stroke-linecap:butt;stroke-linejoin:miter;stroke-miterlimit:4;stroke-opacity:1;stroke-dasharray:none;stroke-dashoffset:0;marker:none;visibility:visible;display:block;overflow:visible"
     id="path14963-6"
     d="m 9.510285,10.705967 0.598903,2.383583 1.097992,0 -0.598905,-2.383583" />
  <path
     style="color:black;fill:none;stroke:#305526;stroke-width:0.5;stroke-linecap:butt;stroke-linejoin:miter;stroke-miterlimit:4;stroke-opacity:1;stroke-dasharray:none;stroke-dashoffset:0;marker:none;visibility:visible;display:block;overflow:visible"
     id="path14965-9"
     d="m 11.768891,10.681966 0.598904,2.407584" />
  <path
     style="opacity:0.23863633;color:black;fill:none;stroke:url(#radialGradient3226);stroke-width:1.0000006;stroke-linecap:butt;stroke-linejoin:miter;stroke-miterlimit:4;stroke-opacity:1;stroke-dasharray:none;stroke-dashoffset:0;marker:none;visibility:visible;display:block;overflow:visible"
     id="path14989-1"
     d="m 1.500089,17.5 1.999911,0 0,3 8,-0.0013 0,-2.9987 6.997903,0 c 0.0022,-2.19e-4 0.0021,-12.9988683 0.0021,-12.9988683 L 1.50192,4.5000006 C 1.504109,8.9497658 1.5,17.5 1.5,17.5 l 8.9e-5,0 z" />
  <rect
     style="color:black;fill:#646662;fill-opacity:1;fill-rule:nonzero;stroke:#2e3436;stroke-width:0.9999994;stroke-linecap:butt;stroke-linejoin:miter;stroke-miterlimit:4;stroke-opacity:1;stroke-dasharray:none;stroke-dashoffset:0;marker:none;visibility:visible;display:block;overflow:visible"
     id="rect14857-2"
     y="6.5"
     x="4.5"
     ry="0.5"
     rx="0.5"
     height="4.0000005"
     width="8.000001" />
  <rect
     style="opacity:0.25;color:black;fill:none;stroke:url(#linearGradient3222);stroke-width:0.99999982;stroke-linecap:butt;stroke-linejoin:miter;stroke-miterlimit:4;stroke-opacity:1;stroke-dasharray:none;stroke-dashoffset:0;marker:none;visibility:visible;display:block;overflow:visible"
     id="rect14859-2"
     y="7.5"
     x="5.5"
     ry="0"
     rx="0"
     height="2.0000002"
     width="6" />
  <rect
     style="color:black;fill:url(#linearGradient4304);fill-opacity:1;fill-rule:nonzero;stroke:#787878;stroke-width:0.49999997;stroke-linecap:round;stroke-linejoin:round;stroke-miterlimit:4;stroke-opacity:1;stroke-dasharray:none;stroke-dashoffset:0;marker:none;visibility:visible;display:block;overflow:visible"
     id="rect15011"
     y="8.249999"
     x="20.25"
     ry="1"
     rx="1"
     height="2.5"
     width="3.5" />
  <path
     style="color:black;fill:none;stroke:#787878;stroke-width:3;stroke-linecap:round;stroke-linejoin:round;stroke-miterlimit:4;stroke-opacity:1;stroke-dasharray:none;stroke-dashoffset:0;marker:none;visibility:visible;display:block;overflow:visible"
     id="path15001"
     d="m 20.5,19.5 0,-17.95 2,0" />
  <path
     style="color:black;fill:none;stroke:url(#linearGradient4316);stroke-width:2;stroke-linecap:round;stroke-linejoin:round;stroke-miterlimit:4;stroke-opacity:1;stroke-dasharray:none;stroke-dashoffset:0;marker:none;visibility:visible;display:block;overflow:visible"
     id="path15003"
     d="m 20.5,19.4 0,-17.9 2,0" />
  <path
     style="fill:url(#linearGradient4287);fill-opacity:1;fill-rule:evenodd;stroke:#876c41;stroke-width:0.99999964;stroke-linecap:round;stroke-linejoin:round;stroke-miterlimit:4;stroke-opacity:1;stroke-dashoffset:0"
     id="rect1314"
     d="m 12.010942,15.734154 c 2.304811,-0.337884 4.634144,-0.285428 6.978115,0 0.283064,0 0.510944,0.244288 0.510944,0.547734 l 0,5.459026 c 0,0.303444 -0.242588,0.503841 -0.510944,0.547732 -2.430148,0.28292 -4.513836,0.280688 -6.978115,0 C 11.683759,22.186233 11.5,22.044358 11.5,21.740914 l 0,-5.459026 c 0,-0.303446 0.227881,-0.547734 0.510942,-0.547734 z" />
  <path
     style="fill:url(#linearGradient4281);fill-opacity:1;fill-rule:evenodd;stroke:none;stroke-width:2;marker:none;visibility:visible;display:inline;overflow:visible"
     id="rect1460"
     d="m 12.341,16.269261 c 2.105998,-0.393178 4.211999,-0.323147 6.317998,0 0.188914,0 0.341002,0.193001 0.341002,0.432737 l 0,0.749493 c 0,0.239737 -0.152088,0.432738 -0.341002,0.432738 -2.197734,0.185748 -4.219844,0.119457 -6.317998,0 -0.188914,0 -0.341,-0.193001 -0.341,-0.432738 l 0,-0.749493 c 0,-0.239736 0.152086,-0.432737 0.341,-0.432737 z" />
  <path
     style="opacity:0.6;fill:none;stroke:url(#linearGradient4297);stroke-width:1.00000012;stroke-linecap:round;stroke-linejoin:round;stroke-miterlimit:4;stroke-opacity:1;stroke-dashoffset:0;marker:none;visibility:visible;display:inline;overflow:visible"
     id="rect1593"
     d="m 12.718218,16.499999 5.563564,0 c 0.120893,0 0.218218,0.1293 0.218218,0.2899 l 0,0.174986 c 0,0.160601 -0.09733,0.289897 -0.218218,0.289897 -1.837215,0.317179 -3.695183,0.336589 -5.563564,0 -0.120894,0 -0.218218,-0.1293 -0.218218,-0.289897 l 0,-0.174986 c 0,-0.160603 0.09732,-0.2899 0.218218,-0.2899 z" />
  <path
     style="fill:url(#linearGradient4275);fill-opacity:1;fill-rule:evenodd;stroke:#969696;stroke-width:0.2;stroke-linecap:butt;stroke-linejoin:miter;stroke-miterlimit:4;stroke-opacity:1;stroke-dasharray:none"
     id="path2086"
     d="m 12.1,16.349044 0,-1.745328 c 0,-2.145179 1.330999,-3.470555 3.387324,-3.503142 C 17.554793,11.06781 18.9,12.39911 18.9,14.603716 l 0,1.821416 c 0,0.594744 -1.8,0.67044 -1.8,0 l 0,-1.212741 C 17.15008,13.999997 17.003322,12.893882 15.502266,12.9 13.96875,12.90625 13.891725,13.999997 13.9,15.209967 l 0,1.149328 c 0,0.7166 -1.8,0.713554 -1.8,-0.01023 l 0,-4.2e-5 0,2.1e-5 z" />
</svg>
