<?xml version="1.0" encoding="UTF-8" standalone="no"?>
<svg
   xmlns:dc="http://purl.org/dc/elements/1.1/"
   xmlns:cc="http://creativecommons.org/ns#"
   xmlns:rdf="http://www.w3.org/1999/02/22-rdf-syntax-ns#"
   xmlns:svg="http://www.w3.org/2000/svg"
   xmlns="http://www.w3.org/2000/svg"
   xmlns:xlink="http://www.w3.org/1999/xlink"
   version="1.1"
   id="svg3426"
   height="24"
   width="24">
  <defs
     id="defs3428">
    <linearGradient
       y2="24.627615"
       x2="20.054544"
       y1="15.298182"
       x1="16.626165"
       gradientTransform="matrix(0.39077928,0,0,0.59639877,2.6029975,7.5932433)"
       gradientUnits="userSpaceOnUse"
       id="linearGradient3178"
       xlink:href="#linearGradient8265-821-176-38-919-66-249-7-7-8" />
    <linearGradient
       id="linearGradient8265-821-176-38-919-66-249-7-7-8">
      <stop
         offset="0"
         style="stop-color:#ffffff;stop-opacity:1"
         id="stop2687-1-9-6" />
      <stop
         offset="1"
         style="stop-color:#ffffff;stop-opacity:0"
         id="stop2689-5-4-8" />
    </linearGradient>
    <linearGradient
       y2="43"
       x2="23.99999"
       y1="4.999989"
       x1="23.99999"
       gradientTransform="matrix(0.45945947,0,0,0.45945947,0.9742203,8.9717328)"
       gradientUnits="userSpaceOnUse"
       id="linearGradient3181"
       xlink:href="#linearGradient3924" />
    <linearGradient
       id="linearGradient3924">
      <stop
         offset="0"
         style="stop-color:#ffffff;stop-opacity:1"
         id="stop3926" />
      <stop
         offset="0.06316455"
         style="stop-color:#ffffff;stop-opacity:0.23529412"
         id="stop3928" />
      <stop
         offset="0.95056331"
         style="stop-color:#ffffff;stop-opacity:0.15686275"
         id="stop3930" />
      <stop
         offset="1"
         style="stop-color:#ffffff;stop-opacity:0.39215687"
         id="stop3932" />
    </linearGradient>
    <radialGradient
       r="19.99999"
       fy="8.4497671"
       fx="7.4956832"
       cy="8.4497671"
       cx="7.4956832"
       gradientTransform="matrix(0,1.1385337,-1.2044328,-2.0976135e-8,22.177231,2.2497107)"
       gradientUnits="userSpaceOnUse"
       id="radialGradient3184"
       xlink:href="#linearGradient3242-593-605-251-305" />
    <linearGradient
       y2="3.8990016"
       x2="24"
       y1="44"
       x1="24"
       gradientTransform="matrix(0.48717951,0,0,0.48717951,0.30769188,8.3076897)"
       gradientUnits="userSpaceOnUse"
       id="linearGradient3186"
       xlink:href="#linearGradient3332-412-419-652-471" />
    <radialGradient
       r="2.5"
       fy="43.5"
       fx="4.9929786"
       cy="43.5"
       cx="4.9929786"
       gradientTransform="matrix(2.003784,0,0,1.4,27.98813,-17.4)"
       gradientUnits="userSpaceOnUse"
       id="radialGradient3152"
       xlink:href="#linearGradient3688-166-749-0" />
    <linearGradient
       id="linearGradient3688-166-749-0">
      <stop
         offset="0"
         style="stop-color:#181818;stop-opacity:1"
         id="stop2883-6" />
      <stop
         offset="1"
         style="stop-color:#181818;stop-opacity:0"
         id="stop2885-6" />
    </linearGradient>
    <radialGradient
       r="2.5"
       fy="43.5"
       fx="4.9929786"
       cy="43.5"
       cx="4.9929786"
       gradientTransform="matrix(2.003784,0,0,1.4,-20.01187,-104.4)"
       gradientUnits="userSpaceOnUse"
       id="radialGradient3154"
       xlink:href="#linearGradient3688-464-309-50" />
    <linearGradient
       id="linearGradient3688-464-309-50">
      <stop
         offset="0"
         style="stop-color:#181818;stop-opacity:1"
         id="stop2889-0" />
      <stop
         offset="1"
         style="stop-color:#181818;stop-opacity:0"
         id="stop2891-5" />
    </linearGradient>
    <linearGradient
       y2="39.999443"
       x2="25.058096"
       y1="47.027729"
       x1="25.058096"
       gradientUnits="userSpaceOnUse"
       id="linearGradient3156"
       xlink:href="#linearGradient3702-501-757-0" />
    <linearGradient
       id="linearGradient3702-501-757-0">
      <stop
         offset="0"
         style="stop-color:#181818;stop-opacity:0"
         id="stop2895-4" />
      <stop
         offset="0.5"
         style="stop-color:#181818;stop-opacity:1"
         id="stop2897-7" />
      <stop
         offset="1"
         style="stop-color:#181818;stop-opacity:0"
         id="stop2899-1" />
    </linearGradient>
    <linearGradient
       id="linearGradient3242-593-605-251-305">
      <stop
         id="stop2749"
         style="stop-color:#d78ec1;stop-opacity:1"
         offset="0" />
      <stop
         id="stop2751"
         style="stop-color:#c564be;stop-opacity:1"
         offset="0.26238" />
      <stop
         id="stop2753"
         style="stop-color:#9d3ea4;stop-opacity:1"
         offset="0.66093999" />
      <stop
         id="stop2755"
         style="stop-color:#5e2c73;stop-opacity:1"
         offset="1" />
    </linearGradient>
    <linearGradient
       id="linearGradient3332-412-419-652-471">
      <stop
         id="stop2759"
         style="stop-color:#650d5c;stop-opacity:1"
         offset="0" />
      <stop
         id="stop2761"
         style="stop-color:#ad53a5;stop-opacity:1"
         offset="1" />
    </linearGradient>
  </defs>
  <metadata
     id="metadata3431">
    <rdf:RDF>
      <cc:Work
         rdf:about="">
        <dc:format>image/svg+xml</dc:format>
        <dc:type
           rdf:resource="http://purl.org/dc/dcmitype/StillImage" />
        <dc:title />
      </cc:Work>
    </rdf:RDF>
  </metadata>
  <g
     transform="translate(0,-8)"
     id="layer1">
    <g
       transform="matrix(0.55,0,0,0.3333336,-1.2000011,15.33333)"
       id="g2036"
       style="display:inline">
      <g
         transform="matrix(1.052632,0,0,1.285713,-1.263158,-13.42854)"
         id="g3712"
         style="opacity:0.4">
        <rect
           width="5"
           height="7"
           x="38"
           y="40"
           id="rect2801"
           style="fill:url(#radialGradient3152);fill-opacity:1;stroke:none" />
        <rect
           width="5"
           height="7"
           x="-10"
           y="-47"
           transform="scale(-1,-1)"
           id="rect3696"
           style="fill:url(#radialGradient3154);fill-opacity:1;stroke:none" />
        <rect
           width="28"
           height="7.0000005"
           x="10"
           y="40"
           id="rect3700"
           style="fill:url(#linearGradient3156);fill-opacity:1;stroke:none" />
      </g>
    </g>
    <rect
       width="19.000002"
       height="19.000002"
       rx="1"
       ry="1"
       x="2.5"
       y="10.499998"
       id="rect5505-21"
       style="color:#000000;fill:url(#radialGradient3184);fill-opacity:1.0;fill-rule:nonzero;stroke:url(#linearGradient3186);stroke-width:1;stroke-linecap:round;stroke-linejoin:round;stroke-miterlimit:4;stroke-opacity:1;stroke-dasharray:none;stroke-dashoffset:0;marker:none;visibility:visible;display:inline;overflow:visible;enable-background:accumulate" />
    <rect
       width="17"
       height="17"
       x="3.5012455"
       y="11.498756"
       id="rect6741-9"
       style="opacity:0.5;fill:none;stroke:url(#linearGradient3181);stroke-width:0.99999988;stroke-linecap:round;stroke-linejoin:round;stroke-miterlimit:4;stroke-opacity:1;stroke-dasharray:none;stroke-dashoffset:0" />
    <path
       id="path3872"
       style="opacity:0.2;fill:#ffffff;fill-opacity:1;stroke:#000000;stroke-width:0.99999988px;stroke-linecap:butt;stroke-linejoin:miter;stroke-opacity:1"
       d="M 3.4999999,11.5 14.823213,11.5 20.5,17.085714 20.5,28.5 l -17,0 z" />
    <path
       id="path3102"
       d="M 4,12 14.635293,12 20,17.17647 20,28 4,28 z"
       style="fill:#ffffff;fill-opacity:1;stroke:none" />
    <path
       transform="matrix(0.48125,0,0,0.48147989,0.45000017,11.73148)"
       d="m 36,18.5 a 12,6.5 0 1 1 -24,0 12,6.5 0 1 1 24,0 z"
       id="path4255"
       style="opacity:0.86046543;fill:#ffffff;fill-opacity:1;fill-rule:nonzero;stroke:none" />
    <path
       id="path3988"
       d="m 7.0500001,19.499993 0,1.499982 c 0,0 1.65,1.499998 4.9500009,1.499998 3.3,0 4.95,-1.499998 4.95,-1.499998 l 0,-1.499982 c 0,0 -2.200001,1.499998 -4.95,1.499998 -2.7500009,0 -4.9500009,-1.499998 -4.9500009,-1.499998 z"
       style="fill:#951fa6;fill-opacity:0.33519556;stroke:none" />
    <path
       id="path4358"
       d="m 6.5,17.999979 c 0,0.324727 0,2.202515 0,2.500013 0,0.999999 2.7426888,2.004675 5.5,1.999997 2.742649,-0.0046 5.5,-0.999998 5.5,-1.999997 0,-0.352167 0,-2.187899 0,-2.500013"
       style="fill:none;stroke:#813384;stroke-width:0.99999994;stroke-linecap:butt;stroke-linejoin:miter;stroke-miterlimit:4;stroke-opacity:1;stroke-dasharray:none" />
    <path
       transform="matrix(0.45833333,0,0,-0.38461486,1.0000003,25.11537)"
       d="m 36,18.5 a 12,6.5 0 1 1 -24,0 12,6.5 0 1 1 24,0 z"
       id="path4247"
       style="fill:#951fa6;fill-opacity:0.5977654;fill-rule:nonzero;stroke:#813384;stroke-width:2.38175035;stroke-miterlimit:4;stroke-opacity:1;stroke-dasharray:none" />
    <path
       style="fill:#951fa6;fill-opacity:0.27374303;stroke:none"
       d="m 7.0500001,21.599991 0,1.399998 c 0,0 1.65,1.099998 4.9500009,1.099998 3.3,0 4.95,-1.099998 4.95,-1.099998 l 0,-1.399998 c 0,0 -2.200001,1.399998 -4.95,1.399998 -2.7500009,0 -4.9500009,-1.399998 -4.9500009,-1.399998 z"
       id="path3990" />
    <path
       id="path3992"
       style="fill:none;stroke:#813384;stroke-width:0.99999994;stroke-linecap:butt;stroke-linejoin:miter;stroke-miterlimit:4;stroke-opacity:1;stroke-dasharray:none"
       d="m 6.5,19.999976 c 0,0.324728 0,2.202515 0,2.500013 0,0.999999 2.7426888,2.004675 5.5,1.999998 2.742649,-0.0047 5.5,-0.999999 5.5,-1.999998 0,-0.352167 0,-2.187898 0,-2.500013" />
    <path
       d="m 6.5,21.999973 c 0,0.324728 0,2.202515 0,2.500014 0,0.999998 2.7426888,2.004674 5.5,1.999997 2.742649,-0.0047 5.5,-0.999999 5.5,-1.999997 0,-0.352167 0,-2.187899 0,-2.500014"
       style="fill:none;stroke:#813384;stroke-width:0.99999994;stroke-linecap:butt;stroke-linejoin:miter;stroke-miterlimit:4;stroke-opacity:1;stroke-dasharray:none"
       id="path3994" />
    <path
       d="M 3.5764341,11 C 3.2547127,11 3,11.418213 3,11.824999 L 3.00603,22 C 3.5238425,21.988917 20.606966,17.945168 21,17.750658 l 0,-5.925659 C 21,11.514064 20.748387,11 20.46981,11 L 3.576473,11 z"
       id="path3333"
       style="opacity:0.2;fill:url(#linearGradient3178);fill-opacity:1;fill-rule:evenodd;stroke:none" />
    <path
       id="path3996"
       d="m 7.0500001,23.599988 0,1.399998 c 0,0 1.65,1.099998 4.9500009,1.099998 3.3,0 4.95,-1.099998 4.95,-1.099998 l 0,-1.399998 c 0,0 -2.200001,1.399998 -4.95,1.399998 -2.7500009,0 -4.9500009,-1.399998 -4.9500009,-1.399998 z"
       style="fill:#951fa6;fill-opacity:0.27374303;stroke:none" />
  </g>
</svg>
