<?xml version="1.0" encoding="UTF-8" standalone="no"?>
<svg
   xmlns:dc="http://purl.org/dc/elements/1.1/"
   xmlns:cc="http://creativecommons.org/ns#"
   xmlns:rdf="http://www.w3.org/1999/02/22-rdf-syntax-ns#"
   xmlns:svg="http://www.w3.org/2000/svg"
   xmlns="http://www.w3.org/2000/svg"
   xmlns:xlink="http://www.w3.org/1999/xlink"
   version="1.0"
   id="svg2"
   height="24"
   width="24">
  <defs
     id="defs4">
    <linearGradient
       id="linearGradient3104">
      <stop
         style="stop-color:#9c9c9c;stop-opacity:1;"
         offset="0"
         id="stop3106" />
      <stop
         style="stop-color:#afafaf;stop-opacity:1;"
         offset="1"
         id="stop3108" />
    </linearGradient>
    <linearGradient
       gradientUnits="userSpaceOnUse"
       y2="274.76862"
       x2="277.05368"
       y1="294.66794"
       x1="277.05368"
       id="linearGradient4222"
       xlink:href="#linearGradient3104" />
    <linearGradient
       id="linearGradient3600">
      <stop
         id="stop3602"
         offset="0"
         style="stop-color:#f4f4f4;stop-opacity:1" />
      <stop
         id="stop3604"
         offset="1"
         style="stop-color:#dbdbdb;stop-opacity:1" />
    </linearGradient>
    <linearGradient
       y2="40.240307"
       x2="27.066463"
       y1="11.286958"
       x1="27.066463"
       gradientTransform="matrix(0.4833064,0,0,0.7047228,267.69377,266.86625)"
       gradientUnits="userSpaceOnUse"
       id="linearGradient13159"
       xlink:href="#linearGradient3600" />
    <linearGradient
       id="linearGradient3690">
      <stop
         style="stop-color:white;stop-opacity:1;"
         offset="0"
         id="stop3692" />
      <stop
         style="stop-color:white;stop-opacity:0.46875"
         offset="1"
         id="stop3694" />
    </linearGradient>
    <linearGradient
       y2="13.408723"
       x2="9.5"
       y1="16.26436"
       x1="9.5"
       gradientTransform="matrix(0.4442812,0,0,0.6619597,268.57041,268.2284)"
       gradientUnits="userSpaceOnUse"
       id="linearGradient13153"
       xlink:href="#linearGradient3690" />
    <linearGradient
       id="linearGradient3524">
      <stop
         style="stop-color:#000000;stop-opacity:1;"
         offset="0"
         id="stop3526" />
      <stop
         style="stop-color:#000000;stop-opacity:0;"
         offset="1"
         id="stop3528" />
    </linearGradient>
    <linearGradient
       y2="37.999992"
       x2="23.910248"
       y1="37.999992"
       x1="18.993803"
       gradientTransform="matrix(0.4838676,0,0,0.488882,270.05824,268.66405)"
       gradientUnits="userSpaceOnUse"
       id="linearGradient13148"
       xlink:href="#linearGradient3524" />
    <linearGradient
       id="linearGradient3191-577">
      <stop
         style="stop-color:#dbce48;stop-opacity:1;"
         offset="0"
         id="stop2613" />
      <stop
         style="stop-color:#c5b625;stop-opacity:1;"
         offset="1"
         id="stop2615" />
    </linearGradient>
    <linearGradient
       y2="41.391716"
       x2="9.5220556"
       y1="37.371799"
       x1="5.5178981"
       gradientTransform="matrix(0.3763801,3.6152606e-2,3.669995e-2,0.374874,-2.2182805,-1.1331002)"
       gradientUnits="userSpaceOnUse"
       id="linearGradient3444"
       xlink:href="#linearGradient3191-577" />
    <linearGradient
       id="linearGradient3290-678">
      <stop
         style="stop-color:#ece5a5;stop-opacity:1;"
         offset="0"
         id="stop2607" />
      <stop
         style="stop-color:#fcfbf2;stop-opacity:1;"
         offset="1"
         id="stop2609" />
    </linearGradient>
    <linearGradient
       y2="26.02973"
       x2="9"
       y1="29.056757"
       x1="9"
       gradientTransform="matrix(0.4040235,-0.4056919,0.6073752,0.602268,-17.636692,0.462492)"
       gradientUnits="userSpaceOnUse"
       id="linearGradient3442"
       xlink:href="#linearGradient3290-678" />
    <linearGradient
       id="linearGradient3223-699">
      <stop
         style="stop-color:#b1b1b1;stop-opacity:1;"
         offset="0"
         id="stop2599" />
      <stop
         id="stop2601"
         offset="0.5"
         style="stop-color:#ffffff;stop-opacity:1;" />
      <stop
         style="stop-color:#8f8f8f;stop-opacity:1;"
         offset="1"
         id="stop2603" />
    </linearGradient>
    <linearGradient
       y2="30.000141"
       x2="30.037716"
       y1="24.989594"
       x1="30.037716"
       gradientTransform="matrix(0.4040235,-0.4056919,0.6073752,0.6022679,-17.177369,-2.1969969e-4)"
       gradientUnits="userSpaceOnUse"
       id="linearGradient3440"
       xlink:href="#linearGradient3223-699" />
    <linearGradient
       id="linearGradient3240-907">
      <stop
         id="stop2591"
         offset="0"
         style="stop-color:#565656;stop-opacity:1;" />
      <stop
         style="stop-color:#9a9a9a;stop-opacity:1;"
         offset="0.5"
         id="stop2593" />
      <stop
         id="stop2595"
         offset="1"
         style="stop-color:#545454;stop-opacity:1;" />
    </linearGradient>
    <linearGradient
       y2="30.000141"
       x2="30.037716"
       y1="24.989594"
       x1="30.037716"
       gradientTransform="matrix(0.4040235,-0.4056919,0.6073752,0.6022679,-17.061661,-0.1164056)"
       gradientUnits="userSpaceOnUse"
       id="linearGradient3438"
       xlink:href="#linearGradient3240-907" />
    <linearGradient
       id="linearGradient3223-768">
      <stop
         style="stop-color:#b1b1b1;stop-opacity:1;"
         offset="0"
         id="stop2583" />
      <stop
         id="stop2585"
         offset="0.5"
         style="stop-color:#ffffff;stop-opacity:1;" />
      <stop
         style="stop-color:#8f8f8f;stop-opacity:1;"
         offset="1"
         id="stop2587" />
    </linearGradient>
    <linearGradient
       y2="30.000141"
       x2="30.037716"
       y1="24.989594"
       x1="30.037716"
       gradientTransform="matrix(0.4040235,-0.4056919,0.6073752,0.6022679,-17.581392,0.4054707)"
       gradientUnits="userSpaceOnUse"
       id="linearGradient3436"
       xlink:href="#linearGradient3223-768" />
    <linearGradient
       id="linearGradient3240-686">
      <stop
         id="stop2575"
         offset="0"
         style="stop-color:#565656;stop-opacity:1;" />
      <stop
         style="stop-color:#9a9a9a;stop-opacity:1;"
         offset="0.5"
         id="stop2577" />
      <stop
         id="stop2579"
         offset="1"
         style="stop-color:#545454;stop-opacity:1;" />
    </linearGradient>
    <linearGradient
       y2="30.000141"
       x2="30.037716"
       y1="24.989594"
       x1="30.037716"
       gradientTransform="matrix(0.4040235,-0.4056919,0.6073752,0.6022679,-17.465684,0.2892868)"
       gradientUnits="userSpaceOnUse"
       id="linearGradient3434"
       xlink:href="#linearGradient3240-686" />
    <linearGradient
       id="linearGradient3223-789">
      <stop
         style="stop-color:#b1b1b1;stop-opacity:1;"
         offset="0"
         id="stop2567" />
      <stop
         id="stop2569"
         offset="0.5"
         style="stop-color:#ffffff;stop-opacity:1;" />
      <stop
         style="stop-color:#8f8f8f;stop-opacity:1;"
         offset="1"
         id="stop2571" />
    </linearGradient>
    <linearGradient
       y2="30.000141"
       x2="30.037716"
       y1="24.989594"
       x1="30.037716"
       gradientTransform="matrix(0.4040235,-0.4056919,0.6073752,0.6022679,-17.983472,0.8092126)"
       gradientUnits="userSpaceOnUse"
       id="linearGradient3432"
       xlink:href="#linearGradient3223-789" />
    <linearGradient
       id="linearGradient3240-279">
      <stop
         id="stop2559"
         offset="0"
         style="stop-color:#565656;stop-opacity:1;" />
      <stop
         style="stop-color:#9a9a9a;stop-opacity:1;"
         offset="0.5"
         id="stop2561" />
      <stop
         id="stop2563"
         offset="1"
         style="stop-color:#545454;stop-opacity:1;" />
    </linearGradient>
    <linearGradient
       y2="30.000141"
       x2="30.037716"
       y1="24.989594"
       x1="30.037716"
       gradientTransform="matrix(0.4040235,-0.4056919,0.6073752,0.6022679,-17.867764,0.6930272)"
       gradientUnits="userSpaceOnUse"
       id="linearGradient3430"
       xlink:href="#linearGradient3240-279" />
    <linearGradient
       id="linearGradient3155-40">
      <stop
         style="stop-color:#181818;stop-opacity:1;"
         offset="0"
         id="stop2541" />
      <stop
         id="stop2543"
         offset="0.13482948"
         style="stop-color:#dbdbdb;stop-opacity:1;" />
      <stop
         style="stop-color:#a4a4a4;stop-opacity:1;"
         offset="0.20224422"
         id="stop2545" />
      <stop
         id="stop2547"
         offset="0.26965895"
         style="stop-color:#ffffff;stop-opacity:1;" />
      <stop
         style="stop-color:#8d8d8d;stop-opacity:1;"
         offset="0.44650277"
         id="stop2549" />
      <stop
         id="stop2551"
         offset="0.57114136"
         style="stop-color:#959595;stop-opacity:1;" />
      <stop
         style="stop-color:#cecece;stop-opacity:1;"
         offset="0.72038066"
         id="stop2553" />
      <stop
         style="stop-color:#181818;stop-opacity:1;"
         offset="1"
         id="stop2555" />
    </linearGradient>
    <linearGradient
       y2="31.210939"
       x2="23.575972"
       y1="25.356892"
       x1="23.575972"
       spreadMethod="pad"
       gradientTransform="matrix(0.415777,-0.4174938,0.518983,0.5146192,-15.747227,2.6503673)"
       gradientUnits="userSpaceOnUse"
       id="linearGradient3428"
       xlink:href="#linearGradient3155-40" />
  </defs>
  <metadata
     id="metadata7">
    <rdf:RDF>
      <cc:Work
         rdf:about="">
        <dc:format>image/svg+xml</dc:format>
        <dc:type
           rdf:resource="http://purl.org/dc/dcmitype/StillImage" />
      </cc:Work>
    </rdf:RDF>
  </metadata>
  <g
     id="layer1">
    <path
       id="rect1915"
       d="M 285.45799,274.80642 C 286.20143,274.80642 286.85947,274.9701 286.77855,276.14886 C 286.77855,279.30466 286.77855,287.64885 286.77855,293.72696 C 286.79643,294.5932 285.87879,294.77999 285.20063,294.70279 C 280.73438,294.70279 277.24058,294.70279 272.77432,294.70279 C 271.91108,294.72073 271.72494,293.79991 271.80187,293.1194 C 271.80187,286.8078 271.80187,280.49619 271.80187,274.18458 C 272.12737,273.4948 277.67004,274.2244 281.91498,274.78029 C 282.92313,274.78029 284.4856,274.76076 285.45799,274.80642 z"
       style="fill:url(#linearGradient13159);fill-opacity:1;stroke:url(#linearGradient4222);stroke-width:1.00144136000000006;stroke-miterlimit:4;stroke-dasharray:none;stroke-opacity:1"
       transform="translate(-270.28571,-271.21933)" />
    <path
       id="path1917"
       d="M 271.7857,275.21933 L 271.7857,273.70283 C 271.7857,273.15798 272.21046,272.71933 272.73809,272.71933 L 280.83331,272.71933 C 281.36094,272.71933 281.7857,273.15798 281.7857,273.70283 L 281.7857,275.21933"
       style="fill:#6392c4;fill-opacity:1;stroke:#49759f;stroke-width:0.99999994000000003;stroke-miterlimit:4;stroke-dasharray:none;stroke-opacity:1"
       transform="translate(-270.28571,-271.21933)" />
    <path
       id="rect1919"
       d="M 273.23625,273.68515 C 277.53036,273.68515 276.11256,273.68515 280.40669,273.68515 C 281.01454,273.74695 280.8194,274.28574 280.85187,274.71053 C 280.85187,275.06574 280.85015,275.55767 280.86053,275.7508 C 281.8756,275.7508 282.88357,275.76329 284.59548,275.76329 C 286.30738,275.76329 285.66931,275.95197 285.66931,276.51748 C 285.66931,279.44424 285.66931,287.81015 285.66931,293.2631 C 285.60827,293.8786 284.91806,293.68099 284.49855,293.71388 C 280.44629,293.71388 277.2885,293.71388 273.23625,293.71388 C 272.62839,293.65206 272.82354,292.95318 272.79106,292.52839 C 272.79106,286.67486 272.79106,279.98946 272.79106,274.13592 C 272.78465,273.89423 272.99755,273.67866 273.23625,273.68515 z"
       style="opacity:0.59999999999999998;fill:none;fill-opacity:1;stroke:url(#linearGradient13153);stroke-width:0.99999987999999995;stroke-miterlimit:4;stroke-dasharray:none;stroke-opacity:1"
       transform="translate(-270.28571,-271.21933)" />
    <rect
       ry="0.30555126"
       rx="0.28561631"
       y="282.24158"
       x="276.86252"
       height="0.97776401"
       width="8.225749"
       id="rect2574"
       style="fill:#a2a2a1;fill-opacity:1;stroke:none;stroke-width:1;stroke-linecap:round;stroke-linejoin:round;stroke-miterlimit:4;stroke-dasharray:none;stroke-dashoffset:0;stroke-opacity:1"
       transform="translate(-270.28571,-271.21933)" />
    <rect
       ry="0.42131186"
       rx="0.41699049"
       y="281.99713"
       x="274.20123"
       height="1.466646"
       width="1.4516028"
       id="rect2576"
       style="opacity:0.29999999999999999;fill:#888a85;fill-opacity:1;stroke:#2e3436;stroke-width:1;stroke-linecap:round;stroke-linejoin:miter;stroke-miterlimit:4;stroke-dasharray:none;stroke-dashoffset:0;stroke-opacity:1"
       transform="translate(-270.28571,-271.21933)" />
    <rect
       ry="0.39721662"
       rx="0.37130117"
       y="287.24158"
       x="276.83237"
       height="0.97776401"
       width="8.225749"
       id="rect3634"
       style="opacity:0.40000000000000002;fill:url(#linearGradient13148);fill-opacity:1;stroke:none;stroke-width:1;stroke-linecap:round;stroke-linejoin:round;stroke-miterlimit:4;stroke-dasharray:none;stroke-dashoffset:0;stroke-opacity:1"
       transform="translate(-270.28571,-271.21933)" />
    <rect
       ry="0.42131186"
       rx="0.41699049"
       y="286.99713"
       x="274.20123"
       height="1.466646"
       width="1.4516028"
       id="rect2580"
       style="opacity:0.29999999999999999;fill:#888a85;fill-opacity:1;stroke:#2e3436;stroke-width:1;stroke-linecap:round;stroke-linejoin:miter;stroke-miterlimit:4;stroke-dasharray:none;stroke-dashoffset:0;stroke-opacity:1"
       transform="translate(-270.28571,-271.21933)" />
    <rect
       ry="0.30555126"
       rx="0.28561631"
       y="291.24158"
       x="276.86252"
       height="0.97776401"
       width="8.225749"
       id="rect2582"
       style="fill:#878885;fill-opacity:1;stroke:none;stroke-width:1;stroke-linecap:round;stroke-linejoin:round;stroke-miterlimit:4;stroke-dasharray:none;stroke-dashoffset:0;stroke-opacity:1"
       transform="translate(-270.28571,-271.21933)" />
    <rect
       ry="0.42131186"
       rx="0.41699049"
       y="290.99713"
       x="274.20123"
       height="1.466646"
       width="1.4516028"
       id="rect2584"
       style="opacity:0.29999999999999999;fill:#888a85;fill-opacity:1;stroke:#2e3436;stroke-width:1;stroke-linecap:round;stroke-linejoin:miter;stroke-miterlimit:4;stroke-dasharray:none;stroke-dashoffset:0;stroke-opacity:1"
       transform="translate(-270.28571,-271.21933)" />
    <rect
       ry="0.30555126"
       rx="0.28561631"
       y="278.24158"
       x="276.86252"
       height="0.97776401"
       width="8.225749"
       id="rect16160"
       style="opacity:0.40000000000000002;fill:#333333;fill-opacity:1;stroke:none;stroke-width:1;stroke-linecap:round;stroke-linejoin:round;stroke-miterlimit:4;stroke-dasharray:none;stroke-dashoffset:0;stroke-opacity:1"
       transform="translate(-270.28571,-271.21933)" />
    <rect
       ry="0.42131186"
       rx="0.41699049"
       y="277.99713"
       x="274.20123"
       height="1.466646"
       width="1.4516028"
       id="rect16162"
       style="opacity:0.29999999999999999;fill:#888a85;fill-opacity:1;stroke:#2e3436;stroke-width:1;stroke-linecap:round;stroke-linejoin:miter;stroke-miterlimit:4;stroke-dasharray:none;stroke-dashoffset:0;stroke-opacity:1"
       transform="translate(-270.28571,-271.21933)" />
    <g
       transform="matrix(0.8819815,0,0,0.884118,10.2853,2.70335)"
       id="g8626">
      <path
         style="fill:url(#linearGradient3428);fill-opacity:1;stroke:#0c0c0c;stroke-width:0.56621987;stroke-linecap:butt;stroke-linejoin:round;stroke-miterlimit:4;stroke-dasharray:none;stroke-dashoffset:0;stroke-opacity:1"
         d="M 2.0488085,11.037368 C 2.3353509,10.829661 3.1967594,11.293756 4.009147,12.099313 C 4.8195928,12.902942 5.2693466,13.740644 5.0667047,14.029888 C 5.0659339,14.030989 5.086475,14.047625 5.0856851,14.048709 L 15.224149,3.8683779 C 15.481557,3.6099071 15.011041,2.7247557 14.172862,1.893626 C 13.334685,1.0624962 12.444681,0.59856571 12.187272,0.85703737 L 2.0488085,11.037368 z"
         id="rect2383" />
      <path
         style="opacity:0.8;fill:#ffb6ed;fill-opacity:1;stroke:#e28ccd;stroke-width:0.56621987;stroke-linecap:butt;stroke-linejoin:round;stroke-miterlimit:4;stroke-dasharray:none;stroke-dashoffset:0;stroke-opacity:1"
         d="M 10.565423,2.4840909 C 10.851965,2.2763844 11.713374,2.7404788 12.525761,3.5460352 C 13.336206,4.3496643 13.78596,5.1873647 13.583318,5.4766096 C 13.582549,5.4777098 13.603089,5.4943472 13.602299,5.4954307 L 15.154234,3.9383089 C 15.562715,3.5297289 15.124956,2.8454879 14.172862,1.893626 C 13.360476,1.0880699 12.499066,0.6239749 12.212525,0.83168148 L 12.187272,0.85703737 L 10.565423,2.4840909 z"
         id="rect3175" />
      <path
         style="opacity:0.6;fill:#0c0c0c;fill-opacity:1;stroke:none;stroke-width:2;stroke-linecap:butt;stroke-linejoin:round;stroke-miterlimit:4;stroke-dasharray:2, 8;stroke-dashoffset:0;stroke-opacity:0.23529412"
         d="M 2.0488079,11.037368 C 2.3353509,10.82966 3.1967591,11.293756 4.0091469,12.099311 C 4.8195918,12.902941 5.2693461,13.740643 5.0667048,14.029888 C 5.0659334,14.030987 5.0864751,14.047624 5.0856853,14.048708 L 12.067715,7.0378443 L 12.092966,7.0124886 C 12.093756,7.0114059 12.073215,6.9947683 12.073986,6.9936682 C 12.276628,6.7044221 11.826873,5.8667226 11.01643,5.0630931 C 10.204041,4.2575368 9.3426319,3.7934425 9.0560897,4.0011493 L 9.0308383,4.0265046 L 2.0488079,11.037368 z"
         id="path3208" />
      <path
         style="fill:url(#linearGradient3430);fill-opacity:1;stroke:none;stroke-width:2;stroke-linecap:butt;stroke-linejoin:round;stroke-miterlimit:4;stroke-dasharray:2, 8;stroke-dashoffset:0;stroke-opacity:0.23529412"
         d="M 9.1785348,3.8767048 C 9.4650761,3.668998 10.326487,4.1330927 11.138874,4.9386491 C 11.949319,5.7422782 12.399074,6.5799785 12.19643,6.8692244 C 12.195659,6.8703238 12.216202,6.8869609 12.215411,6.8880447 L 12.341667,6.7612652 C 12.342457,6.7601824 12.321918,6.7435449 12.322688,6.7424448 C 12.525331,6.4531992 12.075576,5.6154986 11.26513,4.8118704 C 10.452743,4.0063135 9.5913335,3.542219 9.3047918,3.7499256 L 9.1785348,3.8767048 z"
         id="path3233" />
      <path
         style="fill:url(#linearGradient3432);fill-opacity:1;stroke:none;stroke-width:2;stroke-linecap:butt;stroke-linejoin:round;stroke-miterlimit:4;stroke-dasharray:2, 8;stroke-dashoffset:0;stroke-opacity:0.23529412"
         d="M 9.0628273,3.9928895 C 9.3493709,3.7851827 10.21078,4.2492773 11.023167,5.0548335 C 11.833611,5.8584629 12.283367,6.6961627 12.080723,6.9854077 C 12.079952,6.986508 12.100493,7.0031453 12.099705,7.0042301 L 12.225962,6.8774502 C 12.226752,6.8763664 12.206211,6.8597292 12.206981,6.8586296 C 12.409623,6.569384 11.95987,5.7316836 11.149423,4.9280545 C 10.337036,4.1224982 9.4756273,3.6584033 9.1890844,3.8661101 L 9.0628273,3.9928895 z"
         id="path3216" />
      <path
         style="fill:url(#linearGradient3434);fill-opacity:1;stroke:none;stroke-width:2;stroke-linecap:butt;stroke-linejoin:round;stroke-miterlimit:4;stroke-dasharray:2, 8;stroke-dashoffset:0;stroke-opacity:0.23529412"
         d="M 9.5806143,3.4729643 C 9.8671569,3.2652574 10.728566,3.7293515 11.540953,4.5349085 C 12.351399,5.3385375 12.801153,6.1762377 12.598511,6.4654832 C 12.597738,6.4665825 12.618281,6.4832198 12.617491,6.4843035 L 12.743749,6.3575251 C 12.74454,6.356442 12.723998,6.3398041 12.724769,6.3387048 C 12.927411,6.0494594 12.477656,5.2117588 11.66721,4.4081298 C 10.854824,3.6025731 9.9934151,3.1384786 9.7068717,3.3461854 L 9.5806143,3.4729643 z"
         id="path3248" />
      <path
         style="fill:url(#linearGradient3436);fill-opacity:1;stroke:none;stroke-width:2;stroke-linecap:butt;stroke-linejoin:round;stroke-miterlimit:4;stroke-dasharray:2, 8;stroke-dashoffset:0;stroke-opacity:0.23529412"
         d="M 9.4649071,3.5891488 C 9.7514506,3.3814418 10.61286,3.8455365 11.425245,4.6510928 C 12.235692,5.4547226 12.685446,6.2924222 12.482803,6.5816676 C 12.482034,6.5827675 12.502575,6.5994047 12.501784,6.6004885 L 12.628041,6.4737085 C 12.628831,6.4726252 12.608291,6.4559884 12.609061,6.4548886 C 12.811705,6.1656438 12.361949,5.3279425 11.551504,4.5243147 C 10.739118,3.718758 9.877708,3.254663 9.5911645,3.46237 L 9.4649071,3.5891488 z"
         id="path3250" />
      <path
         style="fill:url(#linearGradient3438);fill-opacity:1;stroke:none;stroke-width:2;stroke-linecap:butt;stroke-linejoin:round;stroke-miterlimit:4;stroke-dasharray:2, 8;stroke-dashoffset:0;stroke-opacity:0.23529412"
         d="M 9.9846388,3.0672723 C 10.27118,2.8595657 11.13259,3.3236601 11.944976,4.1292168 C 12.755422,4.9328456 13.205177,5.7705458 13.002534,6.0597909 C 13.001764,6.0608915 13.022304,6.0775286 13.021513,6.0786124 L 13.14777,5.9518328 C 13.148562,5.9507498 13.128021,5.9341122 13.128791,5.9330122 C 13.331434,5.6437674 12.881679,4.8060668 12.071233,4.0024374 C 11.258848,3.1968815 10.397438,2.7327869 10.110895,2.9404937 L 9.9846388,3.0672723 z"
         id="path3256" />
      <path
         style="fill:url(#linearGradient3440);fill-opacity:1;stroke:none;stroke-width:2;stroke-linecap:butt;stroke-linejoin:round;stroke-miterlimit:4;stroke-dasharray:2, 8;stroke-dashoffset:0;stroke-opacity:0.23529412"
         d="M 9.8689318,3.1834569 C 10.155473,2.9757497 11.016883,3.4398448 11.829271,4.2454016 C 12.639715,5.0490299 13.089469,5.8867307 12.886827,6.1759755 C 12.886056,6.1770761 12.906598,6.1937129 12.905808,6.1947965 L 13.032066,6.0680183 C 13.032855,6.0669346 13.012313,6.0502964 13.013084,6.049197 C 13.215727,5.7599515 12.765972,4.9222512 11.955527,4.1186224 C 11.143141,3.313066 10.281731,2.848971 9.9951884,3.0566783 L 9.8689318,3.1834569 z"
         id="path3258" />
      <path
         id="path3270"
         d="M 0.25980529,15.79419 L 5.0316615,14.068702 L 5.0709697,14.029447 C 5.2736124,13.740202 4.8185731,12.902156 4.0081274,12.098526 C 3.1957395,11.29297 2.335449,10.831246 2.0489062,11.038953 L 0.25980529,15.79419 z"
         style="fill:url(#linearGradient3442);fill-opacity:1;fill-rule:evenodd;stroke:url(#linearGradient3444);stroke-width:0.56621987;stroke-linecap:butt;stroke-linejoin:miter;stroke-miterlimit:4;stroke-dasharray:none;stroke-opacity:1" />
      <path
         style="fill:#0c0c0c;fill-opacity:1;fill-rule:evenodd;stroke:#0c0c0c;stroke-width:0.56621987;stroke-linecap:butt;stroke-linejoin:miter;stroke-miterlimit:4;stroke-dasharray:none;stroke-opacity:1"
         d="M 0.7444326,14.506276 L 0.25922075,15.788967 L 1.560593,15.315574 C 1.446907,15.182439 1.3413094,15.047739 1.2062351,14.913801 C 1.0507282,14.759602 0.89915498,14.633134 0.7444326,14.506276 z"
         id="path3281" />
    </g>
  </g>
</svg>
