<?xml version="1.0" encoding="UTF-8" standalone="no"?>
<svg
   xmlns:dc="http://purl.org/dc/elements/1.1/"
   xmlns:cc="http://creativecommons.org/ns#"
   xmlns:rdf="http://www.w3.org/1999/02/22-rdf-syntax-ns#"
   xmlns:svg="http://www.w3.org/2000/svg"
   xmlns="http://www.w3.org/2000/svg"
   xmlns:xlink="http://www.w3.org/1999/xlink"
   id="svg4505"
   height="24"
   width="24"
   version="1.1">
  <defs
     id="defs4507">
    <linearGradient
       id="linearGradient4806-9">
      <stop
         offset="0"
         style="stop-color:#ffffff;stop-opacity:1"
         id="stop4808-49" />
      <stop
         offset="0.42447853"
         style="stop-color:#ffffff;stop-opacity:0.23529412"
         id="stop4810-05" />
      <stop
         offset="0.82089913"
         style="stop-color:#ffffff;stop-opacity:0.15686275"
         id="stop4812-6" />
      <stop
         offset="1"
         style="stop-color:#ffffff;stop-opacity:0.39215687"
         id="stop4814-7" />
    </linearGradient>
    <linearGradient
       id="linearGradient3242-7-3-8-9-94">
      <stop
         offset="0"
         style="stop-color:#eef87e;stop-opacity:1"
         id="stop3244-5-8-5-3-7" />
      <stop
         offset="0.26238"
         style="stop-color:#cde34f;stop-opacity:1"
         id="stop3246-9-5-1-2-9" />
      <stop
         offset="0.66093999"
         style="stop-color:#93b723;stop-opacity:1"
         id="stop3248-7-2-0-84-9" />
      <stop
         offset="1"
         style="stop-color:#5a7e0d;stop-opacity:1"
         id="stop3250-8-2-8-3-2" />
    </linearGradient>
    <radialGradient
       gradientTransform="matrix(0.8232,0.2312,0.2703,-0.9626,-96.2274,-315.3433)"
       gradientUnits="userSpaceOnUse"
       id="XMLID_2_-8-6-1-2"
       fy="-289.9133"
       fx="297.44989"
       r="17.1528"
       cy="-290.5918"
       cx="299.44821">
      <stop
         offset="0"
         style="stop-color:#000000;stop-opacity:1"
         id="stop228-2-7-9-0" />
      <stop
         offset="1"
         style="stop-color:#000000;stop-opacity:0"
         id="stop230-7-5-7-7" />
    </radialGradient>
    <linearGradient
       id="linearGradient2867-449-88-871-390-598-476-591-434-148-57-177-3-8-7">
      <stop
         offset="0"
         style="stop-color:#90dbec;stop-opacity:1"
         id="stop3750-8-9-6" />
      <stop
         offset="0.26238"
         style="stop-color:#42baea;stop-opacity:1"
         id="stop3752-3-2-2" />
      <stop
         offset="0.704952"
         style="stop-color:#3689e6;stop-opacity:1"
         id="stop3754-7-2-00" />
      <stop
         offset="1"
         style="stop-color:#2b63a0;stop-opacity:1"
         id="stop3756-9-3-69" />
    </linearGradient>
    <linearGradient
       id="linearGradient3820-7-2-2">
      <stop
         offset="0"
         style="stop-color:#3d3d3d;stop-opacity:1"
         id="stop3822-2-6-36" />
      <stop
         offset="0.5"
         style="stop-color:#686868;stop-opacity:0.49803922"
         id="stop3864-8-7-6" />
      <stop
         offset="1"
         style="stop-color:#686868;stop-opacity:0"
         id="stop3824-1-2-4" />
    </linearGradient>
    <linearGradient
       y2="40.495617"
       x2="71.204407"
       y1="15.369057"
       x1="71.204407"
       gradientTransform="matrix(0.77562437,0,0,0.77562497,-43.981558,-9.6142601)"
       gradientUnits="userSpaceOnUse"
       id="linearGradient3028"
       xlink:href="#linearGradient4806-9" />
    <radialGradient
       r="19.99999"
       fy="8.5985041"
       fx="8.894803"
       cy="8.449769"
       cx="18.164446"
       gradientTransform="matrix(0,0.70727943,-0.66817168,0,17.645642,-0.91215633)"
       gradientUnits="userSpaceOnUse"
       id="radialGradient3032"
       xlink:href="#linearGradient3242-7-3-8-9-94" />
    <linearGradient
       y2="375.61926"
       x2="-474.68497"
       y1="539.40955"
       x1="-1085.9586"
       gradientTransform="matrix(0.03600687,0,0,0.03027322,42.857474,-1.3684393)"
       gradientUnits="userSpaceOnUse"
       id="linearGradient3035"
       xlink:href="#XMLID_2_-8-6-1-2" />
    <radialGradient
       r="19.99999"
       fy="8.44977"
       fx="-0.025213266"
       cy="8.449769"
       cx="15.645058"
       gradientTransform="matrix(-3.4387771e-8,0.56509674,-0.53241447,-3.8923043e-8,16.498837,1.6472369)"
       gradientUnits="userSpaceOnUse"
       id="radialGradient3040"
       xlink:href="#linearGradient2867-449-88-871-390-598-476-591-434-148-57-177-3-8-7" />
    <radialGradient
       r="62.769119"
       fy="186.17059"
       fx="99.157013"
       cy="186.17059"
       cx="99.157013"
       gradientTransform="matrix(0.12690188,0,0,0.04037702,-0.58320733,13.548295)"
       gradientUnits="userSpaceOnUse"
       id="radialGradient3043"
       xlink:href="#linearGradient3820-7-2-2" />
  </defs>
  <metadata
     id="metadata4510">
    <rdf:RDF>
      <cc:Work
         rdf:about="">
        <dc:format>image/svg+xml</dc:format>
        <dc:type
           rdf:resource="http://purl.org/dc/dcmitype/StillImage" />
        <dc:title />
      </cc:Work>
    </rdf:RDF>
  </metadata>
  <path
     d="m 19.965518,21.065302 a 7.965518,2.5344278 0 1 1 -15.931034,0 7.965518,2.5344278 0 1 1 15.931034,0 z"
     id="path3818-0-2"
     style="fill:url(#radialGradient3043);fill-opacity:1;stroke:none" />
  <path
     d="m 11.999999,1.5140002 c -5.7935362,0 -10.4999992,4.7063603 -10.4999992,10.4997728 0,5.793413 4.706463,10.49978 10.4999992,10.499778 5.793537,0 10.500009,-4.706365 10.500001,-10.499778 C 22.5,6.2203605 17.793536,1.5140002 11.999999,1.5140002 Z"
     id="path2555-7-66"
     style="color:#000000;fill:url(#radialGradient3040);fill-opacity:1;fill-rule:nonzero;stroke:none;stroke-width:1;marker:none;visibility:visible;display:inline;overflow:visible;enable-background:accumulate" />
  <path
     d="m 11.796338,1.5140002 c 2.3189,0.2556735 6.578377,3.0253113 4.958344,7.1562797 C 16.042929,10.4852 14.549716,11.79754 11.953397,12.138656 l -0.750938,0.02265 c -2.8737738,0.18336 -4.859163,3.213187 -4.4258079,5.8265 0.2543772,1.534002 0.8058748,2.979783 1.8849337,3.938755 1.1027544,0.393964 2.1012822,0.587013 3.3384142,0.587012 5.670167,0 10.282816,-4.514585 10.47737,-10.137716 C 22.286544,6.7288531 17.962182,1.5520278 12.287636,1.5379699 l -0.491273,-0.02397 z"
     id="path2555-1-30-7"
     style="opacity:0.3;color:#000000;fill:#000000;fill-opacity:1;fill-rule:nonzero;stroke:none;stroke-width:1;marker:none;visibility:visible;display:inline;overflow:visible;enable-background:accumulate" />
  <path
     d="m 11.999999,1.5144442 c -0.369782,0 -0.726215,0.00784 -1.086202,0.045257 0.02895,0.4173328 0.853098,0.6704735 1.27142,0.6748417 0.880935,0 1.879855,0.5552579 2.797987,1.6012828 0.907972,1.0344414 1.248549,2.5765488 1.338994,3.7884001 7.27e-4,0.013571 -7.21e-4,0.031736 0,0.045254 0.09894,1.4343209 -1.868613,3.8190742 -4.248952,3.8214212 l -0.698915,0.09455 c -3.2184617,0.13967 -5.6554754,3.169071 -5.2937555,6.258966 0.1347834,1.151351 0.7153517,2.59699 1.2886881,3.504948 1.5315032,0.873821 2.7434294,1.164635 4.6308094,1.164635 5.793541,0 10.500009,-4.706362 10.499999,-10.499774 0,-5.7934157 -4.706458,-10.4997762 -10.499999,-10.4997762 z"
     id="path4390"
     style="opacity:0.15;color:#000000;fill:#000000;fill-opacity:1;fill-rule:nonzero;stroke:none;stroke-width:1;marker:none;visibility:visible;display:inline;overflow:visible;enable-background:accumulate" />
  <path
     d="M 11.977367,1.5140002 10.959057,1.6497736 9.5334064,2.0118345 C 9.6538702,1.9719516 9.7932751,1.914254 9.9181005,1.8760618 L 9.8275927,1.7402887 C 9.0226453,1.9109616 8.2449107,2.1884914 7.5193973,2.5322975 l -0.090518,0.1584018 -0.045258,-0.090515 c -0.076166,0.037466 -0.1511786,0.073901 -0.2262936,0.1131445 l 0.022594,0.226288 -0.3620692,0.2715459 -0.203664,0.4978342 0.4299573,0 0.1584041,-0.3168035 0.067854,-0.1357732 C 7.456146,3.1321597 7.624334,2.9913439 7.8135078,2.8717298 L 8.2434645,3.0075025 C 8.5304492,3.1919628 8.8387786,3.3890407 9.1260091,3.5732234 L 9.5333339,3.2111622 9.058194,3.0075025 8.8318992,2.6001841 8.0398733,2.5096686 8.0172713,2.4191532 8.3567096,2.4870379 8.560373,2.3060073 9.0129596,2.215492 c 0.1043145,-0.048 0.2115163,-0.096706 0.3168116,-0.1357731 l -0.2941807,0.2489172 0.9956885,0.6562361 0,0.3846896 -0.3846969,0.3620613 0.5204769,0.9730395 0.339437,-0.2036594 0.452585,-0.633607 C 11.578799,3.6861333 12.116615,3.4844933 12.70154,3.2337889 l -0.0226,0.2262884 0.294178,0.2036593 0.520439,-0.3394322 -0.248924,-0.2715458 -0.362067,0.1810303 -0.113148,-0.022627 c 0.02539,-0.010951 0.04244,-0.034156 0.06784,-0.045256 L 13.357743,1.9213203 12.497827,1.5818881 C 12.349073,1.5562987 12.196716,1.525996 12.045242,1.5140039 l -0.0226,0 c -0.0146,-0.00108 -0.03054,8.89e-4 -0.04523,0 z m -4.7747807,1.8781926 0.4299574,0.2715457 0.3394393,0 0,-0.3394324 -0.4299565,-0.1810304 z m -1.1993534,0 c -0.047863,0.033446 -0.088481,0.078924 -0.1357754,0.1131441 L 5.7316813,3.8447694 c 0,0 -0.30219,0.025972 -0.3846983,0.045255 -0.00814,0.00667 -0.014555,0.015967 -0.022592,0.022629 C 5.198073,4.0230301 5.0687349,4.1551839 4.9170641,4.297343 4.7567329,4.4476191 4.5748654,4.6069688 4.3965904,4.7951768 4.0434713,5.1679687 3.6488739,5.6167712 3.2877534,6.1529062 c -0.00362,0.00522 0.00362,0.017398 0,0.022629 -0.7286002,1.086093 -1.381997,2.5181642 -1.6293124,4.3899947 0.019624,0.0868 0.3620693,0.588351 0.3620693,0.588351 l 0.7920262,0.452576 0.8146556,0.203657 0.339439,0.384694 0.5431037,0.384689 0.294181,-0.04524 0.2262932,0.113149 0,0.06789 -0.2715518,0.76938 -0.2489224,0.339432 0.067853,0.158402 -0.1810348,0.610977 0.6788792,1.19933 0.7015088,0.565722 0.3168104,0.407317 -0.045253,0.882524 0.2262933,0.475204 -0.2262933,0.950412 c -0.00362,0.01178 -0.0147,0.04321 0,0.09051 0.02969,0.09464 1.2362267,0.732495 1.3125,0.67886 0.013687,-0.0098 0.00979,-0.01331 0.022592,-0.02261 -0.4266625,-0.756759 -0.6788793,-1.626719 -0.6788793,-2.557053 0,-1.473106 0.6249521,-2.805098 1.6066809,-3.756384 l -0.2715555,-0.56574 -0.5883624,-0.113144 -0.2941813,-0.769382 -0.7693964,0.0679 -0.6562501,-0.452573 -0.7015088,0.588348 0,0.0905 c -0.2090381,-0.05707 -0.4474821,-0.07276 -0.633622,-0.181029 l -0.1584052,-0.407322 0,-0.452572 -0.4752154,0.04524 c 0.038451,-0.287758 0.097078,-0.594809 0.1357761,-0.88252 l -0.271552,0 -0.2715519,0.339433 -0.2715514,0.113144 -0.3846984,-0.203662 -0.022594,-0.452573 0.067852,-0.4752079 0.5657325,-0.4299472 0.4525866,0 0.1131474,-0.24892 0.5657325,0.1357727 0.4073279,0.497834 L 4.9169539,8.9136192 5.6637204,8.3478986 5.9126433,7.7369202 6.478376,7.5332608 6.7499278,7.1033131 7.451436,6.990169 7.8135066,6.4923349 l -1.0635788,0 0.6788796,-0.2941748 0.4525885,0 L 8.4697553,6.0171362 8.5829049,6.5602283 8.831828,6.1755379 8.5602734,5.9945075 8.6281399,5.7455903 8.3793204,5.541931 8.1303987,5.4740446 8.1983019,5.2251275 7.9946276,4.8630661 7.5420384,5.021468 7.6098913,4.7046645 7.0667894,4.4104898 6.6594618,5.0893545 6.7047204,5.3382715 6.2747488,5.5193022 6.0258263,6.0397649 5.8900505,5.541931 5.1659126,5.2703849 5.0301365,4.8856952 6.0258263,4.3652323 6.4331538,3.9805422 6.4784133,3.5505946 6.2294907,3.4148217 Z m 9.7758661,0.2036594 -0.04528,0.022628 0,0.2715456 -0.769402,0.4525764 0.158412,0.6788648 0.429951,-0.2941748 0.294181,0.2941748 0.29418,0.1584016 0.20367,-0.497834 -0.113151,-0.2941748 0.04526,-0.090513 C 16.129212,4.0510649 15.958587,3.8173184 15.779097,3.5958513 Z m -1.968753,0.6109783 0,0.2941745 0.158403,0.1584018 0,0.4299477 -0.0905,0.5430919 0.475219,-0.090516 0.339436,-0.316803 -0.294182,-0.2715455 C 14.297447,4.6984991 14.185996,4.4514913 14.059268,4.2068305 Z m -0.429959,0.5657206 -0.271549,0.090516 0.06785,0.4978343 0.384702,-0.2036595 z m 2.217679,0.2941745 -0.271553,0.1810307 0.113142,0.2941747 -0.429958,0 -0.248919,0.3620609 -0.271551,0.3168039 -0.54311,0.113144 0.316817,0.2941747 0.06784,0.2941747 -0.384694,0 -0.520476,0.271546 0,0.7467513 0.24892,0 0.226297,0.2262884 0.497841,-0.2262884 0.181036,-0.4525767 0.362073,-0.2262884 0.06785,-0.1584017 0.588361,-0.1584016 0.339438,0.362061 0.339443,0.1810307 -0.203663,0.3620614 0.316811,-0.067886 0.158404,-0.3846903 -0.407324,-0.4525765 0.18103,0 0.384702,0.3168034 0.09052,0.4299481 0.203655,0.2262878 c 0.06837,-0.3327798 0.11316,-0.665527 0.11316,-1.0182975 -0.03951,-0.6135705 -0.183376,-1.2093496 -0.407312,-1.7650475 l -0.497868,0.407318 -0.610992,-0.1357729 z m -0.271553,3.0322625 -0.746767,0.090519 -0.65625,0.1810307 c -0.377192,0.4045367 -0.774469,0.8018242 -1.131469,1.2219558 l -0.429953,0.9730402 0.203656,0.203659 -0.362066,0.520462 0.316813,0.701494 c 1.941418,-0.205406 3.55336,-1.50471 4.231678,-3.2585514 L 16.571117,8.9362543 15.846981,8.2347611 Z"
     id="path6534-74"
     style="opacity:0.5;color:#000000;fill:url(#linearGradient3035);fill-opacity:1;fill-rule:nonzero;stroke:none;stroke-width:1;marker:none;visibility:visible;display:inline;overflow:visible;enable-background:accumulate" />
  <path
     d="m 11.706045,1.5149859 c 2.733712,0 5.209427,2.473967 5.396821,5.3839887 0,2.8221669 -2.298082,5.1147924 -5.126978,5.1147924 l -0.269843,0.01684 C 8.928145,12.171356 6.714,14.457251 6.714,17.263169 c 0,2.805918 2.214145,5.091812 4.992045,5.232566 l 0,0.01682 c 0.09009,0.0025 0.179216,0 0.269843,0 5.806124,0 10.523798,-4.706452 10.52379,-10.49878 0,-5.7923279 -4.717666,-10.4987799 -10.52379,-10.4987799 -0.09061,0 -0.179753,-0.00228 -0.269843,3.4e-6 z"
     id="path2555-1-30"
     style="color:#000000;fill:url(#radialGradient3032);fill-opacity:1;fill-rule:nonzero;stroke:none;stroke-width:1;marker:none;visibility:visible;display:inline;overflow:visible;enable-background:accumulate" />
  <path
     d="m 17.250081,4.1522314 c 0.525643,0.6869343 0.804371,1.6736949 0.88269,2.9038082 -0.405407,4.5758714 -3.881152,5.8421634 -6.300712,5.9610154 -2.525867,0.331908 -4.059424,2.095504 -4.102594,4.084785 -0.04019,1.851805 0.600008,3.446801 2.163973,4.210048 M 21.5,12 c 0,5.246706 -4.253306,9.5 -9.500004,9.5 C 6.753304,21.5 2.5,17.246706 2.5,12 2.5,6.7532961 6.753304,2.5 11.999996,2.5 17.246694,2.5 21.5,6.7532961 21.5,12 Z"
     id="path3421"
     style="opacity:0.5;color:#000000;fill:none;stroke:url(#linearGradient3028);stroke-width:1;stroke-linecap:round;stroke-linejoin:round;stroke-miterlimit:4;stroke-opacity:1;stroke-dasharray:none;stroke-dashoffset:0;marker:none;visibility:visible;display:inline;overflow:visible;enable-background:accumulate" />
  <path
     d="m 11.32837,1.52171 c 2.733707,3e-7 5.896266,2.4738048 5.777571,5.3224214 4e-6,2.828581 -2.293066,5.1382206 -5.121951,5.1382206 l -0.236149,0.01601 c -3.1051345,0.386498 -5.0559364,2.63628 -5.0418421,5.438005 0.014147,2.812262 1.9763037,4.917438 4.7542051,5.058511 l 0.251682,0.004 c 0.09009,0.0023 0.181473,0 0.272104,0 M 12,1.4978218 c -5.7935379,0 -10.5,4.706702 -10.5,10.5005372 0,5.793834 4.7064621,10.500539 10.5,10.500537 5.793537,0 10.500004,-4.706703 10.5,-10.500537 C 22.5,6.2045238 17.793537,1.4978218 12,1.4978218 Z"
     style="opacity:0.3;color:#000000;fill:none;stroke:#2b2200;stroke-width:1;marker:none;visibility:visible;display:inline;overflow:visible;enable-background:accumulate"
     id="path3871" />
</svg>
