<?xml version="1.0" encoding="UTF-8" standalone="no"?>
<svg
   xmlns:dc="http://purl.org/dc/elements/1.1/"
   xmlns:cc="http://creativecommons.org/ns#"
   xmlns:rdf="http://www.w3.org/1999/02/22-rdf-syntax-ns#"
   xmlns:svg="http://www.w3.org/2000/svg"
   xmlns="http://www.w3.org/2000/svg"
   xmlns:xlink="http://www.w3.org/1999/xlink"
   version="1.1"
   id="svg3022"
   height="24"
   width="24">
  <defs
     id="defs3024">
    <linearGradient
       y2="30.889549"
       x2="22.885227"
       y1="17.628952"
       x1="22.885227"
       gradientTransform="matrix(0.5422862,0,0,0.4752147,-81.698251,11.00549)"
       gradientUnits="userSpaceOnUse"
       id="linearGradient2952"
       xlink:href="#linearGradient3202" />
    <linearGradient
       id="linearGradient3202">
      <stop
         id="stop3204"
         style="stop-color:#ffffff;stop-opacity:1"
         offset="0" />
      <stop
         id="stop3206"
         style="stop-color:#d3eefc;stop-opacity:1"
         offset="1" />
    </linearGradient>
    <linearGradient
       gradientTransform="matrix(1.0137415,0,0,0.99900262,-1.2082487,9.0001838)"
       gradientUnits="userSpaceOnUse"
       xlink:href="#linearGradient8997"
       id="linearGradient2859"
       y2="17.016289"
       x2="22.900433"
       y1="0.00031490001"
       x1="4.2847428" />
    <linearGradient
       id="linearGradient8997">
      <stop
         offset="0"
         style="stop-color:#cdcdcd;stop-opacity:1"
         id="stop8999" />
      <stop
         offset="1"
         style="stop-color:#cdcdcd;stop-opacity:0.24705882"
         id="stop3642" />
    </linearGradient>
    <radialGradient
       xlink:href="#linearGradient3242-2-7"
       id="radialGradient2951-8"
       gradientUnits="userSpaceOnUse"
       gradientTransform="matrix(0.03860465,1.7678884,-2.3167466,0.00233254,39.258069,-64.388399)"
       cx="39.651478"
       cy="18.618757"
       fx="39.651478"
       fy="18.618757"
       r="20.714195" />
    <linearGradient
       id="linearGradient3242-2-7">
      <stop
         id="stop3244-0"
         style="stop-color:#f8b17e;stop-opacity:1"
         offset="0" />
      <stop
         id="stop3246-9-4"
         style="stop-color:#e35d4f;stop-opacity:1"
         offset="0.31209752" />
      <stop
         id="stop3248-3-8"
         style="stop-color:#c6262e;stop-opacity:1"
         offset="0.57054454" />
      <stop
         id="stop3250-9-0"
         style="stop-color:#690b54;stop-opacity:1"
         offset="1" />
    </linearGradient>
    <linearGradient
       xlink:href="#linearGradient2490-2"
       id="linearGradient2953-4"
       gradientUnits="userSpaceOnUse"
       x1="24.008854"
       y1="38.246284"
       x2="24.008854"
       y2="0.99999988"
       gradientTransform="matrix(0.53870916,0,0,0.49660615,-0.7723924,7.4799033)" />
    <linearGradient
       id="linearGradient2490-2">
      <stop
         offset="0"
         style="stop-color:#791235;stop-opacity:1"
         id="stop2492-9" />
      <stop
         offset="1"
         style="stop-color:#dd3b27;stop-opacity:1"
         id="stop2494-6" />
    </linearGradient>
    <linearGradient
       gradientTransform="matrix(0.46233336,0,0,0.32360991,1.3241971,15.69158)"
       gradientUnits="userSpaceOnUse"
       xlink:href="#linearGradient8867"
       id="linearGradient2875"
       y2="36.402096"
       x2="23.637569"
       y1="38.423183"
       x1="23.637569" />
    <linearGradient
       id="linearGradient8867">
      <stop
         offset="0"
         style="stop-color:#eeeeee;stop-opacity:1"
         id="stop8869" />
      <stop
         offset="1"
         style="stop-color:#d9d9da;stop-opacity:1"
         id="stop8871" />
    </linearGradient>
    <linearGradient
       gradientTransform="matrix(1.0099728,0,0,0.89808488,-0.1463217,10.196855)"
       gradientUnits="userSpaceOnUse"
       xlink:href="#linearGradient3628"
       id="linearGradient2877"
       y2="-0.17325033"
       x2="12.026385"
       y1="20.380196"
       x1="12.026385" />
    <linearGradient
       id="linearGradient3628">
      <stop
         offset="0"
         style="stop-color:#791235;stop-opacity:1"
         id="stop3630" />
      <stop
         offset="1"
         style="stop-color:#dd3b27;stop-opacity:1"
         id="stop3632" />
    </linearGradient>
    <linearGradient
       gradientTransform="matrix(2.774389,0,0,1.969706,-1892.179,-872.8854)"
       gradientUnits="userSpaceOnUse"
       xlink:href="#linearGradient5048"
       id="linearGradient3010"
       y2="609.50507"
       x2="302.85715"
       y1="366.64789"
       x1="302.85715" />
    <linearGradient
       id="linearGradient5048">
      <stop
         offset="0"
         style="stop-color:#000000;stop-opacity:0"
         id="stop5050" />
      <stop
         offset="0.5"
         style="stop-color:#000000;stop-opacity:1"
         id="stop5056" />
      <stop
         offset="1"
         style="stop-color:#000000;stop-opacity:0"
         id="stop5052" />
    </linearGradient>
    <radialGradient
       gradientTransform="matrix(2.774389,0,0,1.969706,-1891.633,-872.8854)"
       gradientUnits="userSpaceOnUse"
       xlink:href="#linearGradient5060"
       id="radialGradient3012"
       fy="486.64789"
       fx="605.71429"
       r="117.14286"
       cy="486.64789"
       cx="605.71429" />
    <linearGradient
       id="linearGradient5060">
      <stop
         offset="0"
         style="stop-color:#000000;stop-opacity:1"
         id="stop5062" />
      <stop
         offset="1"
         style="stop-color:#000000;stop-opacity:0"
         id="stop5064" />
    </linearGradient>
    <radialGradient
       xlink:href="#linearGradient5060"
       id="radialGradient3020"
       gradientUnits="userSpaceOnUse"
       gradientTransform="matrix(-2.774389,0,0,1.969706,112.7623,-872.8854)"
       cx="605.71429"
       cy="486.64789"
       fx="605.71429"
       fy="486.64789"
       r="117.14286" />
  </defs>
  <metadata
     id="metadata3027">
    <rdf:RDF>
      <cc:Work
         rdf:about="">
        <dc:format>image/svg+xml</dc:format>
        <dc:type
           rdf:resource="http://purl.org/dc/dcmitype/StillImage" />
        <dc:title />
      </cc:Work>
    </rdf:RDF>
  </metadata>
  <g
     transform="translate(0,-8)"
     id="layer1">
    <g
       id="g8875"
       transform="matrix(0.01073759,0,0,0.0073241,21.55039,29.600184)">
      <rect
         style="opacity:0.40206185;fill:url(#linearGradient3010);fill-opacity:1;fill-rule:nonzero;stroke:none;stroke-width:1;marker:none;visibility:visible;display:inline;overflow:visible"
         id="rect8877"
         y="-150.69685"
         x="-1559.2523"
         height="478.35718"
         width="1339.6335" />
      <path
         style="opacity:0.40206185;fill:url(#radialGradient3012);fill-opacity:1;fill-rule:nonzero;stroke:none;stroke-width:1;marker:none;visibility:visible;display:inline;overflow:visible"
         id="path8879"
         d="m -219.61876,-150.68038 c 0,0 0,478.33079 0,478.33079 142.874166,0.90045 345.40022,-107.16966 345.40014,-239.196175 0,-132.026537 -159.436816,-239.134595 -345.40014,-239.134615 z" />
      <path
         style="opacity:0.40206185;fill:url(#radialGradient3020);fill-opacity:1;fill-rule:nonzero;stroke:none;stroke-width:1;marker:none;visibility:visible;display:inline;overflow:visible"
         id="path8881"
         d="m -1559.2523,-150.68038 c 0,0 0,478.33079 0,478.33079 -142.8742,0.90045 -345.4002,-107.16966 -345.4002,-239.196175 0,-132.026537 159.4368,-239.134595 345.4002,-239.134615 z" />
    </g>
    <path
       style="fill:url(#linearGradient2875);fill-opacity:1;fill-rule:nonzero;stroke:url(#linearGradient2877);stroke-width:1;stroke-linecap:round;stroke-linejoin:round;stroke-miterlimit:4;stroke-opacity:1;stroke-dasharray:none;stroke-dashoffset:0.06;marker:none;visibility:visible;display:inline;overflow:visible;enable-background:accumulate"
       id="rect8840"
       d="m 1.8239392,26.5 20.6760618,0.16178 c -0.215925,1.258609 -0.463659,2.787021 -0.653107,3.83822 -6.681723,0 -19.6493311,0 -19.6493311,0 -0.1794621,0 -0.323939,-0.143455 -0.323939,-0.321648 L 1.5000001,26.821648 C 1.5000001,26.643456 1.6444769,26.5 1.8239392,26.5 z" />
    <path
       style="fill:none;stroke:#666666;stroke-width:1;stroke-linecap:round;stroke-linejoin:miter;stroke-miterlimit:4;stroke-opacity:1;stroke-dasharray:none"
       id="path9017"
       d="m 21.916,29.813 c 0.08621,-0.907829 0.435958,-2.737948 0.479007,-3.553058" />
    <path
       style="color:#000000;fill:url(#radialGradient2951-8);fill-opacity:1;fill-rule:nonzero;stroke:url(#linearGradient2953-4);stroke-width:0.99974561;stroke-linecap:round;stroke-linejoin:round;stroke-miterlimit:4;stroke-opacity:1;stroke-dasharray:none;stroke-dashoffset:0.06;marker:none;visibility:visible;display:inline;overflow:visible;enable-background:accumulate"
       id="rect8064"
       d="m 2.8509888,8.4999998 c -0.1865915,0 -0.3318367,0.2085648 -0.3318365,0.4727907 L 1.5000001,26.02721 c 0,0.264225 0.1596729,0.472791 0.3462641,0.47279 l 20.3074738,0 c 0.186589,1e-6 0.346263,-0.208565 0.346263,-0.47279 L 21.360255,8.9727905 c 0,-0.2642259 -0.145246,-0.4727907 -0.331838,-0.4727907 l -18.1774282,0 z" />
    <path
       style="opacity:0.2;fill:none;stroke:#020201;stroke-width:1;stroke-linecap:square;stroke-linejoin:miter;stroke-miterlimit:4;stroke-opacity:1;stroke-dasharray:none"
       id="path3267"
       d="M 2.9098933,29.624678 2.7159373,27.489333" />
    <path
       style="opacity:0.2;fill:none;stroke:url(#linearGradient2859);stroke-width:0.99999994;stroke-linecap:round;stroke-linejoin:round;stroke-miterlimit:4;stroke-opacity:1;stroke-dasharray:none;stroke-dashoffset:0.06;marker:none;visibility:visible;display:inline;overflow:visible;enable-background:accumulate"
       id="path2858"
       d="m 3.8527566,9.4999997 c -0.1868357,0 -0.332271,0.2085416 -0.3322708,0.4727383 L 2.4999999,25.027262 c 0,0.264196 0.159882,0.472739 0.3467174,0.472738 l 18.3065647,0 c 0.186835,1e-6 0.346717,-0.208542 0.346717,-0.472738 L 20.358762,9.972738 c 0,-0.2641967 -0.145436,-0.4727383 -0.332272,-0.4727383 l -16.1737334,0 z" />
    <g
       transform="translate(80.614797,-5.212363)"
       id="g2948">
      <path
         d="m -74.614799,20.461933 c 10.350434,0 9.904039,-0.123925 11.998181,2.271945 -0.0074,-1.475937 0.01548,-0.473906 -0.01267,-1.949491 -0.0401,-0.892168 -0.397971,-1.877913 -1.350049,-2.329813 -0.544675,-0.171406 -0.700414,-0.236311 -1.379781,-0.236311 -1.399096,0 -6.828583,-0.0059 -9.255681,-0.0059 0,2.333333 0,-0.08376 0,2.24957 z"
         id="path2438"
         style="font-size:26.70637703px;font-style:normal;font-variant:normal;font-weight:bold;font-stretch:normal;text-align:start;line-height:125%;writing-mode:lr-tb;text-anchor:start;fill:#a1ceef;fill-opacity:1;stroke:none;font-family:URW Gothic L;-inkscape-font-specification:URW Gothic L Book" />
      <path
         d="m -74.614799,26.212363 c 0.639231,0 1.969069,0 2.6083,0 0.01045,-1.34522 -0.04355,-2.69129 0,-4.035881 0,-0.717222 0.109261,-1.358519 0.989485,-1.358519 1.009852,0 1.090104,0.484908 1.090104,1.408535 0,0.844118 0,3.141746 0,3.985865 0.63923,0 1.976122,0 2.615351,0 0.0075,-1.322853 -0.03068,-2.646198 0,-3.968693 0.0047,-0.636089 -0.05912,-1.425707 1.039368,-1.425707 0.988253,0 1.046784,0.623257 1.046784,1.436382 0,0.834836 0,3.123182 0,3.958018 0.639231,0 1.969558,0 2.608789,0 -0.0074,-1.475937 0.01548,-2.952391 -0.01267,-4.427976 -0.0401,-0.892167 -0.397971,-1.877913 -1.350049,-2.329813 -0.544675,-0.171406 -0.700414,-0.236311 -1.379781,-0.236311 -1.399096,0 -6.828583,-0.0059 -9.255681,-0.0059 0,2.333333 0,4.666667 0,7 z"
         id="text3190"
         style="font-size:26.70637703px;font-style:normal;font-variant:normal;font-weight:bold;font-stretch:normal;text-align:start;line-height:125%;writing-mode:lr-tb;text-anchor:start;fill:url(#linearGradient2952);fill-opacity:1;stroke:none;font-family:URW Gothic L;-inkscape-font-specification:URW Gothic L Book" />
    </g>
  </g>
</svg>
