<?xml version="1.0" encoding="UTF-8" standalone="no"?>
<svg
   id="svg3816"
   height="24"
   width="24"
   version="1.1"
   sodipodi:docname="org.xfce.ristretto.svg"
   inkscape:version="1.2.2 (b0a8486541, 2022-12-01)"
   xmlns:inkscape="http://www.inkscape.org/namespaces/inkscape"
   xmlns:sodipodi="http://sodipodi.sourceforge.net/DTD/sodipodi-0.dtd"
   xmlns:xlink="http://www.w3.org/1999/xlink"
   xmlns="http://www.w3.org/2000/svg"
   xmlns:svg="http://www.w3.org/2000/svg"
   xmlns:rdf="http://www.w3.org/1999/02/22-rdf-syntax-ns#"
   xmlns:cc="http://creativecommons.org/ns#"
   xmlns:dc="http://purl.org/dc/elements/1.1/">
  <sodipodi:namedview
     id="namedview75363"
     pagecolor="#ffffff"
     bordercolor="#000000"
     borderopacity="0.25"
     inkscape:showpageshadow="2"
     inkscape:pageopacity="0.0"
     inkscape:pagecheckerboard="0"
     inkscape:deskcolor="#d1d1d1"
     showgrid="false"
     inkscape:zoom="181.01934"
     inkscape:cx="19.718888"
     inkscape:cy="19.263136"
     inkscape:window-width="1278"
     inkscape:window-height="1005"
     inkscape:window-x="640"
     inkscape:window-y="22"
     inkscape:window-maximized="0"
     inkscape:current-layer="svg3816" />
  <defs
     id="defs3818">
    <linearGradient
       id="linearGradient4574-39-1">
      <stop
         offset="0"
         style="stop-color:#7a0f01;stop-opacity:1"
         id="stop4576-75-8" />
      <stop
         offset="1"
         style="stop-color:#d31807;stop-opacity:1"
         id="stop4578-96-3" />
    </linearGradient>
    <linearGradient
       id="linearGradient4470-86-9">
      <stop
         offset="0"
         style="stop-color:#ec4502;stop-opacity:1"
         id="stop4472-0-4" />
      <stop
         offset="1"
         style="stop-color:#fe7617;stop-opacity:1"
         id="stop4474-9-9" />
    </linearGradient>
    <linearGradient
       id="linearGradient3871-6-7">
      <stop
         offset="0"
         style="stop-color:#0b85e9;stop-opacity:1"
         id="stop3873-3-2" />
      <stop
         offset="1"
         style="stop-color:#69d1ef;stop-opacity:1"
         id="stop3875-4-0" />
    </linearGradient>
    <linearGradient
       id="linearGradient3825-5-8-9">
      <stop
         offset="0"
         style="stop-color:#e89c42;stop-opacity:1"
         id="stop3827-2-3-55" />
      <stop
         offset="1"
         style="stop-color:#faca67;stop-opacity:1"
         id="stop3829-5-0-1" />
    </linearGradient>
    <linearGradient
       id="linearGradient3977-7-61">
      <stop
         offset="0"
         style="stop-color:#ffffff;stop-opacity:1"
         id="stop3979-6-49" />
      <stop
         offset="0.03626217"
         style="stop-color:#ffffff;stop-opacity:0.23529412"
         id="stop3981-3-78" />
      <stop
         offset="0.95056331"
         style="stop-color:#ffffff;stop-opacity:0.15686275"
         id="stop3983-8-86" />
      <stop
         offset="1"
         style="stop-color:#ffffff;stop-opacity:0.39215687"
         id="stop3985-2-07" />
    </linearGradient>
    <linearGradient
       id="linearGradient3600-9-51">
      <stop
         offset="0"
         style="stop-color:#f4f4f4;stop-opacity:1"
         id="stop3602-0-0" />
      <stop
         offset="1"
         style="stop-color:#dbdbdb;stop-opacity:1"
         id="stop3604-9-04" />
    </linearGradient>
    <linearGradient
       id="linearGradient4623-7-15">
      <stop
         offset="0"
         style="stop-color:#000000;stop-opacity:0.27058825"
         id="stop4625-3-7" />
      <stop
         offset="1"
         style="stop-color:#000000;stop-opacity:0.368"
         id="stop4627-1-42" />
    </linearGradient>
    <linearGradient
       y2="88.801025"
       x2="-175.25337"
       y1="113.97943"
       x1="-184.92441"
       gradientTransform="matrix(0.07502968,0,0,0.07558974,21.869769,8.8575245)"
       gradientUnits="userSpaceOnUse"
       id="linearGradient3277"
       xlink:href="#linearGradient4574-39-1" />
    <linearGradient
       gradientTransform="matrix(0.07511055,0.00586778,-0.00619394,0.07150456,25.004891,10.54629)"
       y2="75.190559"
       x2="-208.49672"
       y1="88.750069"
       x1="-211.28862"
       gradientUnits="userSpaceOnUse"
       id="linearGradient3281"
       xlink:href="#linearGradient4470-86-9" />
    <linearGradient
       y2="38.561256"
       x2="-107.45584"
       y1="-37.385227"
       x1="-107.45584"
       gradientTransform="matrix(0.11183314,0,0,0.11948791,27.051608,8.6130493)"
       gradientUnits="userSpaceOnUse"
       id="linearGradient3289"
       xlink:href="#linearGradient3871-6-7" />
    <linearGradient
       y2="39.991924"
       x2="-96.557358"
       y1="110.92493"
       x1="-96.557358"
       gradientTransform="matrix(0.11183314,0,0,0.11095306,27.051608,8.4330978)"
       gradientUnits="userSpaceOnUse"
       id="linearGradient3294"
       xlink:href="#linearGradient3825-5-8-9" />
    <linearGradient
       y2="43"
       x2="23.99999"
       y1="5.5641499"
       x1="23.99999"
       gradientTransform="matrix(0.48648651,0,0,0.37837838,0.82432896,3.4184545)"
       gradientUnits="userSpaceOnUse"
       id="linearGradient3297"
       xlink:href="#linearGradient3977-7-61" />
    <linearGradient
       y2="47.013336"
       x2="25.132275"
       y1="0.98520643"
       x1="25.132275"
       gradientTransform="matrix(0.54285589,0,0,0.3259251,-0.528541,4.1773213)"
       gradientUnits="userSpaceOnUse"
       id="linearGradient3300"
       xlink:href="#linearGradient3600-9-51" />
    <linearGradient
       y2="52.887863"
       x2="-76.844345"
       y1="6.6805849"
       x1="-76.834877"
       gradientTransform="matrix(0.48625742,2.7191503e-4,9.9659804e-5,0.34755305,59.859833,2.2416949)"
       gradientUnits="userSpaceOnUse"
       id="linearGradient3303"
       xlink:href="#linearGradient4623-7-15" />
    <linearGradient
       y2="52.887863"
       x2="-76.844345"
       y1="6.6805849"
       x1="-76.834877"
       gradientTransform="matrix(0.47467232,0.10551084,-0.07512695,0.33933623,60.451903,11.735858)"
       gradientUnits="userSpaceOnUse"
       id="linearGradient4202"
       xlink:href="#linearGradient4623-7-15" />
    <linearGradient
       y2="47.013336"
       x2="25.132275"
       y1="0.98520643"
       x1="25.132275"
       gradientTransform="matrix(0.52998804,0.11749552,-0.0705431,0.31819937,1.0760283,0.555165)"
       gradientUnits="userSpaceOnUse"
       id="linearGradient4204"
       xlink:href="#linearGradient3600-9-51" />
    <linearGradient
       y2="43"
       x2="23.99999"
       y1="5.5641499"
       x1="23.99999"
       gradientTransform="matrix(0.47495484,0.10529495,-0.08189607,0.3694093,2.5610785,0.107101)"
       gradientUnits="userSpaceOnUse"
       id="linearGradient4206"
       xlink:href="#linearGradient3977-7-61" />
    <linearGradient
       gradientTransform="matrix(0.03279364,0,0,0.01512557,0.14744624,14.28089)"
       gradientUnits="userSpaceOnUse"
       xlink:href="#linearGradient5048"
       id="linearGradient3028"
       y2="609.50507"
       x2="302.85715"
       y1="366.64789"
       x1="302.85715" />
    <linearGradient
       id="linearGradient5048">
      <stop
         offset="0"
         style="stop-color:#000000;stop-opacity:0"
         id="stop5050" />
      <stop
         offset="0.5"
         style="stop-color:#000000;stop-opacity:1"
         id="stop5056" />
      <stop
         offset="1"
         style="stop-color:#000000;stop-opacity:0"
         id="stop5052" />
    </linearGradient>
    <radialGradient
       gradientTransform="matrix(0.03279364,0,0,0.01512557,0.15390003,14.28089)"
       gradientUnits="userSpaceOnUse"
       xlink:href="#linearGradient5060"
       id="radialGradient3030"
       fy="486.64789"
       fx="605.71429"
       r="117.14286"
       cy="486.64789"
       cx="605.71429" />
    <linearGradient
       id="linearGradient5060">
      <stop
         offset="0"
         style="stop-color:#000000;stop-opacity:1"
         id="stop5062" />
      <stop
         offset="1"
         style="stop-color:#000000;stop-opacity:0"
         id="stop5064" />
    </linearGradient>
    <radialGradient
       gradientTransform="matrix(-0.03279364,0,0,0.01512557,23.846113,14.28089)"
       gradientUnits="userSpaceOnUse"
       xlink:href="#linearGradient5060"
       id="radialGradient3032"
       fy="486.64789"
       fx="605.71429"
       r="117.14286"
       cy="486.64789"
       cx="605.71429" />
    <radialGradient
       xlink:href="#linearGradient3820-7-2"
       id="radialGradient3163-6"
       gradientUnits="userSpaceOnUse"
       gradientTransform="matrix(0.11852961,0,0,0.02388751,4.8022589,18.052849)"
       cx="99.157013"
       cy="186.17059"
       fx="99.157013"
       fy="186.17059"
       r="62.769119" />
    <linearGradient
       id="linearGradient3820-7-2">
      <stop
         id="stop3822-2-6"
         style="stop-color:#3d3d3d;stop-opacity:1"
         offset="0" />
      <stop
         id="stop3864-8-7"
         style="stop-color:#686868;stop-opacity:0.49803922"
         offset="0.5" />
      <stop
         id="stop3824-1-2"
         style="stop-color:#686868;stop-opacity:0"
         offset="1" />
    </linearGradient>
    <linearGradient
       inkscape:collect="always"
       xlink:href="#linearGradient2090"
       id="linearGradient2092-5"
       x1="85.228851"
       y1="101.76944"
       x2="85.228851"
       y2="125.8599"
       gradientUnits="userSpaceOnUse"
       gradientTransform="matrix(0.2078618,0,0,0.19784644,-1.3845645,-1.3321064)" />
    <linearGradient
       inkscape:collect="always"
       id="linearGradient2090">
      <stop
         style="stop-color:#d4d4d4;stop-opacity:1"
         offset="0"
         id="stop2086" />
      <stop
         style="stop-color:#ffffff;stop-opacity:1;"
         offset="1"
         id="stop2088" />
    </linearGradient>
    <linearGradient
       inkscape:collect="always"
       xlink:href="#linearGradient4574-3"
       id="linearGradient4576-9"
       x1="99.8675"
       y1="100.65423"
       x2="99.890022"
       y2="123.1615"
       gradientUnits="userSpaceOnUse"
       gradientTransform="matrix(0.2078618,0,0,0.21739131,-1.3845645,-3.2912835)" />
    <linearGradient
       inkscape:collect="always"
       id="linearGradient4574-3">
      <stop
         style="stop-color:#000000;stop-opacity:0.25999999;"
         offset="0"
         id="stop4570" />
      <stop
         style="stop-color:#000000;stop-opacity:0.31999999;"
         offset="1"
         id="stop4572" />
    </linearGradient>
    <linearGradient
       inkscape:collect="always"
       xlink:href="#linearGradient4851"
       id="linearGradient4843-7"
       gradientUnits="userSpaceOnUse"
       gradientTransform="matrix(0.12791496,0,0,0.094297,5.6864208,10.594112)"
       x1="85.228851"
       y1="101.76944"
       x2="85.228851"
       y2="125.8599" />
    <linearGradient
       inkscape:collect="always"
       id="linearGradient4851">
      <stop
         style="stop-color:#abacae;stop-opacity:0;"
         offset="0"
         id="stop4847" />
      <stop
         style="stop-color:#cacaca;stop-opacity:1;"
         offset="1"
         id="stop4849" />
    </linearGradient>
    <linearGradient
       inkscape:collect="always"
       xlink:href="#linearGradient13504"
       id="linearGradient19598-6"
       x1="114.52522"
       y1="101.35174"
       x2="105.68826"
       y2="98.403526"
       gradientUnits="userSpaceOnUse"
       gradientTransform="matrix(0.30769247,0,0,0.30748859,-12.192325,-14.096438)" />
    <linearGradient
       inkscape:collect="always"
       id="linearGradient13504">
      <stop
         style="stop-color:#fafafa;stop-opacity:1"
         offset="0"
         id="stop13500" />
      <stop
         style="stop-color:#d4d4d4;stop-opacity:1"
         offset="1"
         id="stop13502" />
    </linearGradient>
    <linearGradient
       inkscape:collect="always"
       xlink:href="#linearGradient34174"
       id="linearGradient14213-2"
       gradientUnits="userSpaceOnUse"
       x1="92.660721"
       y1="100.00296"
       x2="92.660721"
       y2="125.12054"
       gradientTransform="matrix(0.30519654,0,0,0.29961925,-9.864265,-13.555647)" />
    <linearGradient
       inkscape:collect="always"
       id="linearGradient34174">
      <stop
         style="stop-color:#fafafa;stop-opacity:1"
         offset="0"
         id="stop34170" />
      <stop
         style="stop-color:#abacae;stop-opacity:1"
         offset="1"
         id="stop34172" />
    </linearGradient>
    <linearGradient
       inkscape:collect="always"
       xlink:href="#linearGradient7531"
       id="linearGradient7533-8"
       x1="81.51638"
       y1="87.022705"
       x2="81.51638"
       y2="92.845627"
       gradientUnits="userSpaceOnUse"
       gradientTransform="matrix(0.2538223,0,0,0.34338263,-5.3013859,-16.178765)" />
    <linearGradient
       inkscape:collect="always"
       id="linearGradient7531">
      <stop
         style="stop-color:#3d211b;stop-opacity:1"
         offset="0"
         id="stop7527" />
      <stop
         style="stop-color:#a3907c;stop-opacity:1"
         offset="1"
         id="stop7529" />
    </linearGradient>
    <linearGradient
       inkscape:collect="always"
       xlink:href="#linearGradient8770"
       id="linearGradient8772-2"
       x1="95.59137"
       y1="86.393402"
       x2="95.59137"
       y2="92.963478"
       gradientUnits="userSpaceOnUse"
       gradientTransform="matrix(0.2538223,0,0,0.34338263,-5.3013859,-16.178765)" />
    <linearGradient
       inkscape:collect="always"
       id="linearGradient8770">
      <stop
         style="stop-color:#3d211b;stop-opacity:0.2;"
         offset="0"
         id="stop8766" />
      <stop
         style="stop-color:#3d211b;stop-opacity:0.60000002;"
         offset="1"
         id="stop8768" />
    </linearGradient>
  </defs>
  <metadata
     id="metadata3821">
    <rdf:RDF>
      <cc:Work
         rdf:about="">
        <dc:format>image/svg+xml</dc:format>
        <dc:type
           rdf:resource="http://purl.org/dc/dcmitype/StillImage" />
      </cc:Work>
    </rdf:RDF>
  </metadata>
  <g
     id="g4219"
     style="opacity:0.2"
     transform="translate(0,-1.0004668)">
    <rect
       width="15.834642"
       height="3.6733527"
       x="4.0826831"
       y="19.826649"
       id="rect4173-4"
       style="display:inline;overflow:visible;visibility:visible;opacity:1;fill:url(#linearGradient3028);fill-opacity:1;fill-rule:nonzero;stroke:none;stroke-width:104.962;stroke-miterlimit:4;stroke-dasharray:none;marker:none" />
    <path
       d="m 19.917326,19.826774 c 0,0 0,3.67315 0,3.67315 1.688791,0.0069 4.082675,-0.822966 4.082674,-1.836811 0,-1.013845 -1.884564,-1.836339 -4.082674,-1.836339 z"
       id="path5058-9"
       style="display:inline;overflow:visible;visibility:visible;opacity:1;fill:url(#radialGradient3030);fill-opacity:1;fill-rule:nonzero;stroke:none;stroke-width:104.962;stroke-miterlimit:4;stroke-dasharray:none;marker:none" />
    <path
       d="m 4.0826831,19.826774 c 0,0 0,3.67315 0,3.67315 C 2.3938915,23.506839 7.845175e-6,22.676958 7.845175e-6,21.663113 7.845175e-6,20.649268 1.8845715,19.826774 4.0826831,19.826774 Z"
       id="path5018-53"
       style="display:inline;overflow:visible;visibility:visible;opacity:1;fill:url(#radialGradient3032);fill-opacity:1;fill-rule:nonzero;stroke:none;stroke-width:104.962;stroke-miterlimit:4;stroke-dasharray:none;marker:none" />
  </g>
  <g
     transform="translate(0,-0.4752377)"
     id="g4195">
    <path
       d="M 20.025957,21.47481 0.49996093,17.146002 3.9630117,1.525189 23.489008,5.853998 Z"
       id="path4151"
       style="color:#000000;display:inline;overflow:visible;visibility:visible;fill:none;stroke:url(#linearGradient4202);stroke-width:0.999922;stroke-linecap:butt;stroke-linejoin:round;stroke-miterlimit:4;stroke-dasharray:none;stroke-dashoffset:0;stroke-opacity:1;marker:none;enable-background:accumulate" />
    <path
       d="M 4.3429706,2.121603 C 8.5936307,3.063951 22.892369,6.234865 22.892369,6.234865 l -3.246368,14.643531 c 0,0 -12.3664183,-2.741569 -18.5496246,-4.112353 C 2.1785738,11.884566 3.2607712,7.003089 4.3429675,2.121616 Z"
       id="path4153"
       style="display:inline;fill:url(#linearGradient4204);fill-opacity:1;stroke:none" />
    <path
       d="M 19.266073,20.282028 1.6927442,16.386115 4.7228988,2.717971 22.296228,6.613884 Z"
       id="path4155"
       style="fill:none;stroke:url(#linearGradient4206);stroke-width:1;stroke-linecap:round;stroke-linejoin:miter;stroke-miterlimit:4;stroke-dasharray:none;stroke-dashoffset:0;stroke-opacity:1" />
    <path
       d="M 5.1028262,3.314337 2.2891113,16.006185 18.886144,19.685659 21.699859,6.993811 Z"
       id="path4157"
       style="color:#000000;display:inline;overflow:visible;visibility:visible;fill:#49bdea;fill-opacity:1;fill-rule:nonzero;stroke:none;stroke-width:10;marker:none;enable-background:accumulate" />
    <path
       d="M 5.4827526,3.910713 C 9.0622551,4.704269 21.103308,7.37448 21.103308,7.37448 l -2.597092,11.714812 c 0,0 -10.4138244,-2.308689 -15.6207372,-3.463034 C 3.7512374,11.721073 4.6169958,7.81589 5.4827541,3.910706 Z"
       id="path4171"
       style="color:#000000;display:inline;overflow:visible;visibility:visible;fill:none;stroke:#158bb9;stroke-width:1;stroke-linecap:butt;stroke-linejoin:miter;stroke-miterlimit:4;stroke-dasharray:none;stroke-dashoffset:0;stroke-opacity:1;marker:none;enable-background:accumulate" />
  </g>
  <path
     d="M 22.500039,20.499572 H 2.4999609 V 4.4994944 H 22.500039 Z"
     id="rect6741-1-2-0-3"
     style="color:#000000;display:inline;overflow:visible;visibility:visible;fill:none;stroke:url(#linearGradient3303);stroke-width:0.999922;stroke-linecap:butt;stroke-linejoin:round;stroke-miterlimit:4;stroke-dasharray:none;stroke-dashoffset:0;stroke-opacity:1;marker:none;enable-background:accumulate" />
  <path
     d="m 3.0000009,4.9995322 c 4.353864,0 18.9999761,9.375e-4 18.9999761,9.375e-4 l 2.4e-5,14.9990623 c 0,0 -12.6666681,0 -19.0000001,0 0,-4.999997 0,-9.9999938 0,-14.9999857 z"
     id="path4160-9-1"
     style="display:inline;fill:url(#linearGradient3300);fill-opacity:1;stroke:none" />
  <path
     d="M 21.500001,19.499532 H 3.5000009 V 5.4995322 H 21.500001 Z"
     id="rect6741-1-2-1"
     style="fill:none;stroke:url(#linearGradient3297);stroke-width:1;stroke-linecap:round;stroke-linejoin:miter;stroke-miterlimit:4;stroke-dasharray:none;stroke-dashoffset:0;stroke-opacity:1" />
  <path
     d="M 3.9999999,5.9995317 V 18.999531 H 21 V 5.9995317 Z"
     id="rect3055-2-9-1"
     style="color:#000000;display:inline;overflow:visible;visibility:visible;fill:url(#linearGradient3294);fill-opacity:1;fill-rule:nonzero;stroke:none;stroke-width:10;marker:none;enable-background:accumulate" />
  <path
     d="m 8.108383,13.362584 c -0.072735,-0.0055 -0.1545133,9.6e-5 -0.2369661,0.02791 -0.3218422,0.108583 -0.3587506,0.322485 -0.3874877,0.425147 -0.028735,0.102661 -0.03468,0.182453 -0.039352,0.266639 -0.00934,0.16837 -0.00208,0.345343 0.00586,0.522198 0.00651,0.145267 0.012305,0.274201 0.015154,0.388068 -0.1109878,0.02573 -0.2333009,0.05337 -0.3741562,0.08352 -0.1765366,0.03779 -0.3550044,0.07562 -0.5196116,0.127425 -0.082303,0.02591 -0.1596166,0.05205 -0.2578436,0.108081 -0.049113,0.02801 -0.1056789,0.06133 -0.1719029,0.134692 -0.066224,0.07336 -0.1464577,0.211318 -0.1418904,0.37801 0.00892,0.325417 0.2104863,0.423818 0.3043152,0.481402 0.093829,0.05758 0.1695117,0.08689 0.2522818,0.116983 0.1655411,0.06019 0.3481483,0.108991 0.5275569,0.156173 0.1478643,0.03889 0.2774025,0.07553 0.3923923,0.108032 -0.00861,0.108299 -0.020522,0.227991 -0.033877,0.36434 -0.016818,0.171667 -0.033277,0.343048 -0.032406,0.508155 4.358e-4,0.08255 0.00232,0.161276 0.027923,0.267473 0.012793,0.0531 0.030065,0.114011 0.082828,0.196597 0.052764,0.08259 0.1634885,0.199626 0.3315883,0.246981 0.327506,0.09226 0.4885528,-0.05824 0.5751618,-0.125296 0.086609,-0.06705 0.1399475,-0.129181 0.195682,-0.194736 0.1114677,-0.131109 0.2153497,-0.280706 0.3180987,-0.428356 0.08451,-0.121437 0.159635,-0.228819 0.227664,-0.322673 0.105677,0.04112 0.221967,0.08844 0.354559,0.142659 0.16612,0.06793 0.334191,0.137202 0.4993305,0.18713 0.08257,0.02496 0.15975,0.0473 0.273754,0.05676 0.057,0.0047 0.125389,0.0089 0.224101,-0.01344 0.09871,-0.02238 0.247783,-0.0876 0.346922,-0.224925 0.193359,-0.267841 0.09361,-0.462656 0.05331,-0.561792 -0.0403,-0.09913 -0.08453,-0.16528 -0.132836,-0.235875 -0.09661,-0.14119 -0.214817,-0.28105 -0.330592,-0.419343 -0.09508,-0.113567 -0.177277,-0.214454 -0.249953,-0.304715 0.07386,-0.08297 0.156307,-0.173356 0.251541,-0.276592 0.119443,-0.12948 0.239503,-0.25933 0.340618,-0.393436 0.05056,-0.06705 0.09837,-0.131725 0.143176,-0.231999 0.0224,-0.05014 0.04672,-0.109408 0.05498,-0.205728 0.0083,-0.09632 -0.01097,-0.252744 -0.117596,-0.385017 -0.207895,-0.257896 -0.431564,-0.225033 -0.542991,-0.21928 -0.111427,0.0058 -0.192512,0.02499 -0.278081,0.04681 -0.1711355,0.04364 -0.3487155,0.105044 -0.5230345,0.166951 -0.143691,0.05103 -0.269999,0.0958 -0.38314,0.133665 -0.05991,-0.09235 -0.124539,-0.195955 -0.19807,-0.313929 -0.0922,-0.147923 -0.185361,-0.296418 -0.2879308,-0.429275 -0.051285,-0.06643 -0.098347,-0.128599 -0.1847,-0.200134 -0.043178,-0.03577 -0.096085,-0.07714 -0.1898116,-0.114313 -0.046863,-0.01859 -0.1118206,-0.03544 -0.1845559,-0.04095 z m 0.8407957,1.151171 c 0.0025,-3.58e-4 0.01724,0.0039 0.02057,0.0038 -0.0059,0.0015 -0.02274,0.0061 -0.02613,0.0068 -0.0083,0.0017 -0.01458,-0.0077 0.0056,-0.01062 z m 0.307236,0.09917 c 0.0256,0.02035 0.02393,0.02946 0.01886,0.02358 -0.0023,-0.0027 -0.01429,-0.01772 -0.01886,-0.02358 z m -1.5929124,0.319922 c 0.020658,-0.0093 0.022418,0.0032 0.015768,0.0057 -0.00348,0.0013 -0.023299,0.0062 -0.030936,0.0086 0.003,-0.0018 0.012711,-0.01318 0.015173,-0.01429 z m -0.1975606,0.243224 c -3.811e-4,0.0061 4.039e-4,0.02313 2.04e-5,0.02653 -0.00102,0.0091 -0.00917,0.0022 -2.04e-5,-0.02653 z m 2.6127193,0.480456 c -0.0047,-0.0078 0.0064,-0.0064 0.01674,0.02121 -0.0035,-0.0052 -0.01495,-0.01826 -0.01674,-0.02121 z m 0.008,0.31013 c -0.01235,0.02884 -0.02274,0.03152 -0.01843,0.02509 0.002,-0.003 0.01389,-0.01901 0.01843,-0.02509 z m -2.6006757,0.506486 c 2.138e-4,0.0035 -4.271e-4,0.02329 -3.604e-4,0.03092 -0.00801,-0.03061 -1.219e-4,-0.03857 3.604e-4,-0.03092 z m 0.1741897,0.267846 c 0.00559,0.0021 0.021678,0.0073 0.024803,0.0086 0.00882,0.0037 0.00116,0.0086 -0.024803,-0.0086 z m 1.6399797,0.289504 c 0.0065,-0.0069 0.0075,0.0045 -0.01824,0.02289 0.0046,-0.0053 0.01564,-0.02015 0.01824,-0.02289 z m -0.338006,0.09519 c 0.0038,9.19e-4 0.02335,0.0089 0.03153,0.01131 -0.03279,-0.0022 -0.03929,-0.01322 -0.03153,-0.01131 z"
     id="path5297"
     style="color:#000000;display:inline;overflow:visible;visibility:visible;opacity:0.05;fill:#000000;fill-opacity:1;fill-rule:nonzero;stroke:none;stroke-width:44.3704;marker:none;enable-background:accumulate" />
  <path
     d="m 3.9999999,5.9992048 v 7.7637182 c 0.379714,0.107869 0.872114,0.196069 1.45852,0.196069 1.49515,0 1.281828,-0.536609 2.569323,-0.536609 1.287486,0 2.0458371,0.877149 3.7863631,0.877149 2.155845,0 2.650569,-1.413759 4.35625,-1.413759 1.331888,0 1.431886,0.773956 2.897725,0.773956 0.990241,0 1.319101,-0.406589 1.931819,-0.670762 V 5.9992048 Z"
     id="rect3055-2-6-9-0-6"
     style="color:#000000;display:inline;overflow:visible;visibility:visible;opacity:0.07;fill:#000000;fill-opacity:1;fill-rule:nonzero;stroke:none;stroke-width:10;marker:none;enable-background:accumulate" />
  <path
     d="m 3.9999999,5.9922858 v 7.1444702 c 0.252426,0.124353 0.572074,0.237347 0.917613,0.237347 0.789107,0 1.560808,-0.681081 2.878407,-0.681081 1.317604,0 2.3086091,0.856511 3.9698871,0.856511 1.661278,0 2.035169,-1.238329 4.153412,-1.238329 2.118237,0 1.919054,0.784275 3.245451,0.784275 0.913651,0 1.303838,-0.34092 1.83523,-0.557248 V 5.9922858 Z"
     id="path3867-3-5-3"
     style="fill:url(#linearGradient3289);fill-opacity:1;stroke:none" />
  <path
     d="m 15.919319,10.806168 c -1.112768,0 -1.812739,0.336631 -2.385799,0.650123 -0.573056,0.313491 -1.00538,0.588206 -1.767613,0.588206 -0.783322,0 -1.40242,-0.199955 -2.0187501,-0.412776 -0.616326,-0.212822 -1.23268,-0.443735 -1.951137,-0.443735 -0.706237,0 -1.274028,0.177476 -1.738633,0.35086 -0.46461,0.173384 -0.824429,0.330221 -1.139774,0.330221 -0.28552,0 -0.563838,-0.104285 -0.792044,-0.216707 A 0.29415704,0.31426635 0 0 0 3.9999999,11.6214 v 1.351843 c 0.391132,0.104566 0.881785,0.185749 1.45852,0.185749 0.780512,0 1.177609,-0.152178 1.477843,-0.288944 0.300234,-0.136765 0.485983,-0.247665 1.09148,-0.247665 0.581221,0 1.048758,0.20154 1.622726,0.423095 0.5739621,0.221556 1.2471241,0.454055 2.1636371,0.454055 1.138098,0 1.878958,-0.385644 2.492044,-0.742998 0.613086,-0.357354 1.087424,-0.670762 1.864206,-0.670762 0.612614,0 0.897189,0.166095 1.275,0.36118 0.377801,0.195085 0.841349,0.412776 1.622725,0.412776 0.995062,0 1.431212,-0.394433 1.931819,-0.639803 v -1.186733 a 0.29415704,0.31426635 0 0 0 -0.10625,0.02064 c -0.582708,0.237219 -0.883811,0.53661 -1.72898,0.53661 -0.60894,0 -0.798986,-0.155864 -1.197726,-0.36118 -0.398744,-0.205315 -0.95463,-0.423096 -2.047725,-0.423096 z"
     id="path4213-1-6"
     style="color:#000000;display:inline;overflow:visible;visibility:visible;opacity:0.1;fill:#ffffff;fill-opacity:1;fill-rule:nonzero;stroke:none;stroke-width:10;marker:none;enable-background:accumulate" />
  <path
     d="m 15.919319,11.425331 c -2.118243,0 -2.492134,1.238329 -4.153412,1.238329 -1.661278,0 -2.6522831,-0.856511 -3.9698871,-0.856511 -1.317599,0 -2.0893,0.681081 -2.878407,0.681081 -0.345539,0 -0.665187,-0.112993 -0.917613,-0.237346 v 0.712039 c 0.379714,0.107869 0.872114,0.196069 1.45852,0.196069 1.49515,0 1.281828,-0.536609 2.569323,-0.536609 1.287486,0 2.0458371,0.87715 3.7863631,0.87715 2.155845,0 2.650569,-1.41376 4.35625,-1.41376 1.331888,0 1.431886,0.773956 2.897725,0.773956 0.990241,0 1.319101,-0.406588 1.931819,-0.670761 v -0.53661 c -0.531392,0.216329 -0.921579,0.557248 -1.83523,0.557248 -1.326397,0 -1.127214,-0.784275 -3.245451,-0.784275 z"
     id="rect3055-2-6-94-0-7"
     style="color:#000000;display:inline;overflow:visible;visibility:visible;opacity:0.3;fill:#ffffff;fill-opacity:1;fill-rule:nonzero;stroke:none;stroke-width:10;marker:none;enable-background:accumulate" />
  <path
     d="m 15.919319,11.925332 c -2.118243,0 -2.492134,1.238329 -4.153412,1.238329 -1.661278,0 -2.6522831,-0.856511 -3.9698871,-0.856511 -1.317599,0 -2.0893,0.681081 -2.878407,0.681081 -0.345539,0 -0.665187,-0.112993 -0.917613,-0.237346 v 0.712039 c 0.379714,0.107868 0.872114,0.196069 1.45852,0.196069 1.49515,0 1.281828,-0.536609 2.569323,-0.536609 1.287486,0 2.0458371,0.877149 3.7863631,0.877149 2.155845,0 2.650569,-1.413758 4.35625,-1.413758 1.331888,0 1.431886,0.773955 2.897725,0.773955 0.990241,0 1.319101,-0.406588 1.931819,-0.670761 v -0.53661 c -0.531392,0.216329 -0.921579,0.557248 -1.83523,0.557248 -1.326397,0 -1.127214,-0.784275 -3.245451,-0.784275 z"
     id="rect3055-2-6-8-5"
     style="color:#000000;display:inline;overflow:visible;visibility:visible;fill:#ffffff;fill-opacity:1;fill-rule:nonzero;stroke:none;stroke-width:10;marker:none;enable-background:accumulate" />
  <path
     d="m 4.4999999,6.4995388 c 3.666411,0 15.9999821,7.556e-4 15.9999821,7.556e-4 L 20.5,18.499532 c 0,0 -10.6666661,0 -16.0000001,0 0,-4.000001 0,-8 0,-11.9999994 z"
     id="path4160-62-8"
     style="color:#000000;display:inline;overflow:visible;visibility:visible;opacity:0.3;fill:none;stroke:#000000;stroke-width:1;stroke-linecap:butt;stroke-linejoin:miter;stroke-miterlimit:4;stroke-dasharray:none;stroke-dashoffset:0;stroke-opacity:1;marker:none;enable-background:accumulate" />
  <path
     d="m 7.9702405,13.844877 c -0.1801063,0.06076 0.030127,1.367687 -0.083875,1.513688 -0.1100705,0.140971 -1.464343,0.283889 -1.4595331,0.459442 0.00498,0.181816 1.3780039,0.393059 1.4885954,0.54133 0.1067819,0.143163 -0.1690945,1.414799 0.00778,1.464626 0.1831851,0.0516 0.8197981,-1.124468 1.0021461,-1.178833 0.176065,-0.05249 1.3595611,0.587471 1.4640661,0.442713 0.108232,-0.149924 -0.8701921,-1.086848 -0.8680871,-1.268718 0.002,-0.175604 1.0090371,-1.050022 0.8967501,-1.189314 -0.116292,-0.144262 -1.3577321,0.450569 -1.5387781,0.392531 -0.174809,-0.05604 -0.735162,-1.236135 -0.9090644,-1.177465 z"
     id="path5640-3"
     style="color:#000000;display:inline;overflow:visible;visibility:visible;opacity:0.15;fill:#000000;fill-opacity:1;fill-rule:nonzero;stroke:none;stroke-width:44.3704;marker:none;enable-background:accumulate" />
  <path
     d="m 8.0218294,13.504322 c 0.1739611,-0.05869 0.7361161,1.123036 0.9109851,1.179094 0.181107,0.05806 1.4218135,-0.538302 1.5381455,-0.39399 0.112325,0.139339 -0.8947775,1.013919 -0.8968115,1.189583 -0.0021,0.181932 0.9766135,1.120715 0.8683435,1.270688 -0.104539,0.144807 -1.2891185,-0.496399 -1.4652435,-0.44389 -0.182409,0.05438 -0.818233,1.230941 -1.0014803,1.179319 -0.1769347,-0.04984 0.098058,-1.320712 -0.00876,-1.463924 -0.110627,-0.148321 -1.4823083,-0.359951 -1.4872912,-0.541829 -0.00482,-0.175612 1.3497237,-0.319845 1.4598315,-0.460864 0.1140359,-0.14605 -0.097885,-1.453403 0.082282,-1.514187 z"
     id="path4468-6"
     style="color:#000000;display:inline;overflow:visible;visibility:visible;fill:url(#linearGradient3281);fill-opacity:1;stroke:none;stroke-width:10;marker:none;enable-background:accumulate" />
  <path
     d="m 8.039313,13.470129 -0.04821,0.04636 c -3.44e-4,0.0011 -0.0019,0.0014 -0.0019,0.0021 -0.096792,0.234217 0.058261,1.259164 -0.03946,1.3843 -0.0042,0.0052 -0.01001,0.01243 -0.017541,0.01766 l 0.039461,0.0265 c 0.7903285,0.236715 0.098571,-1.427744 0.07889,-1.474818 -0.0037,-6.98e-4 -0.0074,-0.0025 -0.01094,-0.0021 z"
     id="path4480-14"
     style="opacity:0.5;fill:#9d0f06;fill-opacity:1;stroke:none" />
  <path
     d="m 6.7536304,15.426738 c -0.1663436,0.0015 -0.262602,0.0094 -0.262602,0.0094 v 0.0022 0.0378 c 0.097563,0.179325 1.3903695,0.384497 1.4982481,0.529129 0.108053,0.144867 -0.1695997,1.430665 0.00936,1.481083 0.185362,0.05222 0.828383,-1.137887 1.012899,-1.192899 0.177047,-0.05278 1.3609145,0.586923 1.4794925,0.451177 l -0.002,-0.0022 C 9.4907355,15.518655 7.4746472,15.420624 6.7538346,15.426739 Z"
     id="path4517-2"
     style="opacity:0.75;fill:url(#linearGradient3277);fill-opacity:1;stroke:none" />
  <path
     style="fill:url(#radialGradient3163-6);fill-opacity:1;stroke:none;stroke-width:0.999991"
     id="path3818-0-5-0-3"
     d="m 23.995299,22.5 a 7.4399994,1.4993978 0 1 1 -14.8799976,0 7.4399994,1.4993978 0 1 1 14.8799976,0 z" />
  <ellipse
     style="fill:url(#linearGradient2092-5);fill-opacity:1;stroke:url(#linearGradient4576-9);stroke-width:1;stroke-linejoin:round;stroke-opacity:0.999982;stop-color:#000000"
     id="path623-7"
     cx="17"
     cy="21"
     rx="6.5"
     ry="2.5" />
  <ellipse
     style="fill:url(#linearGradient4843-7);fill-opacity:1;stroke:none;stroke-width:0.999989;stroke-linejoin:round;stroke-opacity:0.999982;stop-color:#000000"
     id="ellipse4841-5"
     cx="17.000002"
     cy="21.23798"
     rx="4"
     ry="1.1915429" />
  <path
     id="path6860-2"
     style="fill:url(#linearGradient19598-6);fill-opacity:1;stroke:#000000;stroke-width:1;stroke-linejoin:round;stroke-opacity:0.2;stop-color:#000000"
     d="M 21.500001,14.5 C 20.395431,14.5 19.5,15.394839 19.5,16.498676 c 0,1.103838 0.895431,1.998677 2.000001,1.998677 1.104571,0 2.000002,-0.894839 2.000002,-1.998677 C 23.500003,15.39484 22.604572,14.5 21.500001,14.5 Z m 0,1.383699 a 0.61538495,0.61497717 0 0 1 0.615386,0.614977 0.61538495,0.61497717 0 0 1 -0.615386,0.614977 0.61538495,0.61497717 0 0 1 -0.615385,-0.614977 0.61538495,0.61497717 0 0 1 0.615385,-0.614977 z" />
  <path
     id="path14209-2"
     style="fill:url(#linearGradient14213-2);fill-opacity:1;stroke:#000000;stroke-width:0.999999;stroke-linejoin:round;stroke-opacity:0.1;stop-color:#000000"
     d="M 17.000011,12.499999 A 5.4998895,1.8000007 0 0 0 11.500124,14.3 v 0.527929 c -0.0186,2.763859 2.14416,6.672073 4.256803,6.672073 h 1.243084 1.243086 c 2.111659,0 4.273375,-3.904335 4.256803,-6.66797 V 14.3 a 5.4998895,1.8000007 0 0 0 -5.499889,-1.800001 z" />
  <ellipse
     style="fill:none;fill-opacity:1;stroke:#ffffff;stroke-width:0.999991;stroke-linejoin:round;stroke-opacity:1;stop-color:#000000"
     id="ellipse45236-8"
     cx="17"
     cy="15.280265"
     rx="4.5000062"
     ry="1.1915468" />
  <path
     id="path45478-9"
     style="fill:none;fill-opacity:1;stroke:#ffffff;stroke-width:1;stroke-linejoin:round;stroke-opacity:0.1;stop-color:#000000"
     d="m 17.00001,13.499999 c -2.48524,0 -4.499928,0.626801 -4.499928,1.4 v 0.198406 c 0,1.54215 1.611643,5.401597 3.403341,5.401597 h 1.096587 1.072329 c 1.822718,0 3.427598,-3.924936 3.427598,-5.398407 v -0.201594 c 0,-0.7732 -2.014685,-1.400002 -4.499927,-1.400002 z"
     sodipodi:nodetypes="sscscccss" />
  <ellipse
     style="fill:url(#linearGradient7533-8);fill-opacity:1;stroke:url(#linearGradient8772-2);stroke-width:0.999989;stroke-linejoin:round;stroke-opacity:0.999982;stop-color:#000000"
     id="ellipse5492-7"
     cx="17"
     cy="14.69154"
     rx="4.0000062"
     ry="1.1915457" />
</svg>
