<?xml version="1.0" encoding="UTF-8" standalone="no"?>
<svg
   id="svg3874"
   height="24"
   width="24"
   version="1.1"
   sodipodi:docname="org.xfce.about.svg"
   inkscape:version="1.1.2 (0a00cf5339, 2022-02-04)"
   xmlns:inkscape="http://www.inkscape.org/namespaces/inkscape"
   xmlns:sodipodi="http://sodipodi.sourceforge.net/DTD/sodipodi-0.dtd"
   xmlns:xlink="http://www.w3.org/1999/xlink"
   xmlns="http://www.w3.org/2000/svg"
   xmlns:svg="http://www.w3.org/2000/svg"
   xmlns:rdf="http://www.w3.org/1999/02/22-rdf-syntax-ns#"
   xmlns:cc="http://creativecommons.org/ns#"
   xmlns:dc="http://purl.org/dc/elements/1.1/">
  <sodipodi:namedview
     id="namedview27"
     pagecolor="#ffffff"
     bordercolor="#666666"
     borderopacity="1.0"
     inkscape:pageshadow="2"
     inkscape:pageopacity="0.0"
     inkscape:pagecheckerboard="0"
     showgrid="false"
     inkscape:zoom="29.5"
     inkscape:cx="12.016949"
     inkscape:cy="12"
     inkscape:window-width="1317"
     inkscape:window-height="893"
     inkscape:window-x="192"
     inkscape:window-y="105"
     inkscape:window-maximized="0"
     inkscape:current-layer="svg3874" />
  <defs
     id="defs3876">
    <linearGradient
       id="linearGradient851">
      <stop
         id="stop847"
         offset="0"
         style="stop-color:#ffe16b;stop-opacity:1" />
      <stop
         id="stop849"
         offset="1"
         style="stop-color:#f9c440;stop-opacity:1" />
    </linearGradient>
    <linearGradient
       gradientTransform="matrix(0.77056228,0,0,0.77077837,-4.5542786,-6.199358)"
       gradientUnits="userSpaceOnUse"
       xlink:href="#linearGradient3881"
       id="linearGradient2907"
       y2="35.051075"
       x2="23.470181"
       y1="11.209872"
       x1="23.470181" />
    <linearGradient
       id="linearGradient3881">
      <stop
         offset="0"
         style="stop-color:#ffffff;stop-opacity:1"
         id="stop3883" />
      <stop
         offset="0.33380178"
         style="stop-color:#ffffff;stop-opacity:0.23529412"
         id="stop3885" />
      <stop
         offset="0.67927718"
         style="stop-color:#ffffff;stop-opacity:0.15686275"
         id="stop3887" />
      <stop
         offset="1"
         style="stop-color:#ffffff;stop-opacity:0.39215687"
         id="stop3889" />
    </linearGradient>
    <linearGradient
       gradientTransform="matrix(0.4893617,0,0,0.4893617,1.7135742,-1.2723)"
       gradientUnits="userSpaceOnUse"
       xlink:href="#linearGradient8265-821-176-38-919-66-249"
       id="linearGradient3683"
       y2="33.95525"
       x2="15.214532"
       y1="22.292103"
       x1="11.566265" />
    <linearGradient
       id="linearGradient8265-821-176-38-919-66-249">
      <stop
         offset="0"
         style="stop-color:#ffffff;stop-opacity:0.27450982"
         id="stop2687" />
      <stop
         offset="1"
         style="stop-color:#ffffff;stop-opacity:0"
         id="stop2689" />
    </linearGradient>
    <linearGradient
       id="linearGradient8838">
      <stop
         offset="0"
         style="stop-color:#000000;stop-opacity:1"
         id="stop8840" />
      <stop
         offset="1"
         style="stop-color:#000000;stop-opacity:0"
         id="stop8842" />
    </linearGradient>
    <radialGradient
       gradientTransform="matrix(1.0352941,0,0,0.42352883,-52.835297,17.541176)"
       gradientUnits="userSpaceOnUse"
       xlink:href="#linearGradient8838"
       id="radialGradient3872"
       fy="4.625"
       fx="62.625"
       r="10.625"
       cy="4.625"
       cx="62.625" />
    <linearGradient
       gradientUnits="userSpaceOnUse"
       y2="21.922901"
       x2="12.000001"
       y1="1.4961357"
       x1="12.000001"
       id="linearGradient853"
       xlink:href="#linearGradient851" />
  </defs>
  <metadata
     id="metadata3879">
    <rdf:RDF>
      <cc:Work
         rdf:about="">
        <dc:format>image/svg+xml</dc:format>
        <dc:type
           rdf:resource="http://purl.org/dc/dcmitype/StillImage" />
      </cc:Work>
    </rdf:RDF>
  </metadata>
  <path
     d="M 23,19.499999 C 23,21.985281 18.075131,24 12,24 5.9248685,24 0.99999999,21.985281 0.99999999,19.499999 0.99999999,17.014718 5.9248685,15 12,15 c 6.075131,0 11,2.014718 11,4.499999 z"
     id="path8836"
     style="display:inline;overflow:visible;visibility:visible;opacity:0.3;fill:url(#radialGradient3872);fill-opacity:1;fill-rule:evenodd;stroke:none;stroke-width:0.99999988;marker:none" />
  <path
     d="m 12.000001,1.4961357 c 0.708911,0 2.994425,5.7107023 3.567948,6.1275073 0.57352,0.416804 6.709462,0.826364 6.928527,1.500768 0.219066,0.674404 -4.504349,4.613371 -4.723415,5.287775 -0.219065,0.674404 1.287639,6.638229 0.714118,7.055033 C 17.913658,21.884024 12.708912,18.607738 12,18.607738 c -0.708911,0 -5.9136574,3.276286 -6.4871791,2.859481 C 4.9392998,21.050415 6.4460042,15.086589 6.2269387,14.412186 6.007873,13.737782 1.2844585,9.798814 1.5035242,9.12441 1.7225898,8.450007 7.8585305,8.040447 8.4320523,7.623643 9.005573,7.206838 11.29109,1.4961357 12.000001,1.4961357 Z"
     id="path1307"
     style="display:inline;overflow:visible;visibility:visible;fill:url(#linearGradient853);fill-opacity:1;fill-rule:nonzero;stroke:#ad5f00;stroke-width:0.99227142;stroke-linecap:butt;stroke-linejoin:round;stroke-miterlimit:4;stroke-dasharray:none;stroke-dashoffset:0;stroke-opacity:0.49803922;marker:none" />
  <path
     d="m 11.969145,2.093355 c -0.45703,0.693479 -1.679762,2.629165 -3.0312503,5.8125 a 0.43670935,0.43670935 0 0 1 -0.34375,0.28125 c -2.1354674,0.348211 -4.8091853,0.716906 -6.5625,1.15625 1.1001782,1.3189 2.393494,2.529956 3.625,3.78125 l 15.1562503,-2.71875 c 0.353244,-0.353813 0.697176,-0.697415 1.0625,-1.0625 -2.051482,-0.507486 -4.36574,-0.808235 -6.5,-1.15625 a 0.43670935,0.43670935 0 0 1 -0.34375,-0.25 c -1.039472,-2.413271 -2.582922,-5.037031 -3.0625,-5.84375 z"
     id="path3681"
     style="display:inline;overflow:visible;visibility:visible;opacity:0.8;fill:url(#linearGradient3683);fill-opacity:1;fill-rule:nonzero;stroke:none;stroke-width:1;marker:none;enable-background:accumulate" />
  <path
     d="m 12.000395,2.937105 c -0.289389,0.492394 -0.61844,1.165503 -0.96875,1.875 -0.361907,0.732986 -0.746865,1.511515 -1.0625003,2.125 -0.1578173,0.306742 -0.2983144,0.582546 -0.4375,0.8125 -0.1391856,0.229954 -0.1632419,0.388801 -0.53125,0.65625 -0.3684354,0.267759 -0.5505426,0.251058 -0.8125,0.3125 -0.2619574,0.06144 -0.5652425,0.100734 -0.90625,0.15625 -0.6820149,0.111033 -1.5021108,0.22551 -2.3125,0.34375 -0.7742066,0.112961 -1.5055387,0.221892 -2.0625,0.34375 0.3780266,0.425859 0.9075435,0.983352 1.46875,1.53125 0.5845803,0.570717 1.1708703,1.135202 1.65625,1.625 0.2426898,0.244899 0.4494983,0.484046 0.625,0.6875 0.1755017,0.203454 0.3283605,0.286554 0.46875,0.71875 0.1407051,0.433167 0.085066,0.575594 0.0625,0.84375 -0.022566,0.268156 -0.072353,0.564729 -0.125,0.90625 -0.1052939,0.683043 -0.2681064,1.505117 -0.40625,2.3125 -0.1323415,0.773473 -0.25635,1.525786 -0.3125,2.09375 0.525364,-0.229545 1.203496,-0.56765 1.90625,-0.9375 0.7258699,-0.382016 1.4761784,-0.781664 2.0937503,-1.09375 0.308786,-0.156043 0.564288,-0.301637 0.8125,-0.40625 0.248212,-0.104613 0.387156,-0.1875 0.84375,-0.1875 0.456594,0 0.595538,0.08289 0.84375,0.1875 0.248212,0.104613 0.503714,0.250207 0.8125,0.40625 0.617572,0.312086 1.36788,0.711734 2.09375,1.09375 0.702754,0.36985 1.380886,0.707955 1.90625,0.9375 -0.05615,-0.567964 -0.180159,-1.320277 -0.3125,-2.09375 -0.138144,-0.807383 -0.300956,-1.629457 -0.40625,-2.3125 -0.05265,-0.341521 -0.102434,-0.638094 -0.125,-0.90625 -0.02257,-0.268156 -0.0782,-0.410584 0.0625,-0.84375 0.14039,-0.432195 0.293248,-0.515296 0.46875,-0.71875 0.175502,-0.203454 0.38231,-0.442601 0.625,-0.6875 0.48538,-0.489798 1.07167,-1.054283 1.65625,-1.625 0.561206,-0.547898 1.090723,-1.105391 1.46875,-1.53125 -0.556961,-0.121858 -1.288293,-0.230789 -2.0625,-0.34375 -0.810389,-0.11824 -1.630485,-0.232717 -2.3125,-0.34375 -0.341007,-0.055516 -0.644293,-0.094808 -0.90625,-0.15625 -0.261957,-0.061442 -0.444064,-0.04474 -0.8125,-0.3125 -0.368009,-0.267449 -0.392064,-0.426296 -0.53125,-0.65625 -0.139186,-0.229954 -0.279683,-0.505758 -0.4375,-0.8125 -0.315635,-0.613485 -0.700593,-1.392014 -1.0625,-2.125 -0.350309,-0.709497 -0.679362,-1.382606 -0.96875,-1.875 z"
     id="path2903"
     style="display:inline;overflow:visible;visibility:visible;opacity:0.8;fill:none;stroke:url(#linearGradient2907);stroke-width:0.99227142;stroke-linecap:butt;stroke-linejoin:round;stroke-miterlimit:4;stroke-dasharray:none;stroke-dashoffset:0;stroke-opacity:1;marker:none" />
  <path
     id="path1881"
     d="m 8.4001017,15.352644 c -0.012256,-0.03502 0.017884,-0.197811 0.066976,-0.361774 0.097067,-0.324179 0.112254,-0.444581 0.060394,-0.47881 -0.01844,-0.01217 -0.131026,0.01172 -0.2501976,0.05307 -0.2485876,0.08628 -0.326136,0.07013 -0.3221096,-0.06706 0.00296,-0.100719 0.094337,-0.233545 0.3129136,-0.454825 l 0.1279568,-0.129538 0.019204,-0.635612 c 0.017096,-0.565889 0.03082,-0.666367 0.1251004,-0.91599 0.058243,-0.154208 0.15995,-0.362814 0.2260155,-0.46357 0.066066,-0.100755 0.12066,-0.201624 0.1213208,-0.224153 6.4e-4,-0.02252 -0.1271664,-0.170402 -0.2840607,-0.328611 C 8.0936517,10.831544 7.2687365,10.275101 6.3278669,9.8106813 5.7173865,9.5093443 5.2936113,9.269541 5.2557573,9.204003 c -0.03822,-0.066172 0.047625,-0.038192 0.368064,0.1199592 0.1727336,0.085252 0.6040048,0.2602641 0.9583804,0.3889131 0.9485936,0.3443687 1.4413648,0.6365467 2.1679795,1.2854577 0.204166,0.182334 0.3910812,0.344629 0.4153656,0.360657 0.024288,0.01603 0.161824,-0.02594 0.3056428,-0.09328 0.3297049,-0.154354 0.4744569,-0.149308 1.5153804,0.05282 0.53572,0.104025 0.871699,0.14877 1.107081,0.147438 l 0.337941,-0.0019 0.183407,-0.311405 c 0.168677,-0.286398 0.180442,-0.323459 0.146484,-0.46143 -0.0877,-0.356345 -9.2e-4,-0.7592567 0.183256,-0.8510747 0.208968,-0.104164 0.352437,0.0205 0.60376,0.5246247 0.09187,0.184283 0.189334,0.327721 0.223358,0.328721 0.07146,0.0021 0.07077,-0.0413 -0.0058,-0.363722 -0.07925,-0.3336117 -0.03304,-0.6091747 0.127568,-0.7607607 0.09927,-0.0937 0.141969,-0.108152 0.248857,-0.08425 0.248673,0.05562 0.351943,0.29429 0.388343,0.8975147 0.01046,0.173255 0.03534,0.325786 0.05529,0.338957 0.01995,0.01318 0.248402,0.07356 0.507659,0.1342 1.289549,0.301616 1.809851,0.649307 1.79373,1.198653 -0.0036,0.124007 -0.03772,0.174631 -0.233075,0.346179 -0.229298,0.20136 -0.7816,0.513063 -1.490178,0.841012 -0.535885,0.248023 -0.556563,0.360048 -0.156659,0.848729 0.236115,0.288533 0.303441,0.429621 0.246359,0.516275 -0.03756,0.05701 -0.18384,0.03287 -0.631899,-0.104254 -0.454925,-0.139229 -0.50207,-0.103776 -0.268225,0.201708 0.302854,0.39563 0.35958,0.615259 0.172697,0.668638 -0.09041,0.02582 -0.423595,-0.09663 -1.042406,-0.383108 l -0.458633,-0.212326 -0.24437,0.04072 c -0.134403,0.0224 -0.682357,0.03681 -1.217676,0.03203 -0.93047,-0.0083 -0.996795,-0.01407 -1.506984,-0.130776 -0.5130754,-0.117369 -0.5372818,-0.119426 -0.627087,-0.05328 -0.051376,0.03784 -0.287258,0.222395 -0.5241816,0.410126 -0.2369243,0.18773 -0.4424727,0.34115 -0.4567751,0.340933 -0.0143,-1.87e-4 -0.036036,-0.02904 -0.04829,-0.06405 z m 7.0177023,-2.593879 c 0.104311,-0.10476 0.08076,-0.23742 -0.03199,-0.180192 -0.129671,0.06582 -0.353322,0.310503 -0.326403,0.357106 0.03086,0.05343 0.223945,-0.04189 0.358396,-0.176914 z m -0.280261,-0.268406 c 0.111118,-0.04402 0.202767,-0.105116 0.203666,-0.135758 0.0022,-0.07584 -0.04875,-0.07175 -0.261984,0.02102 -0.374973,0.163153 -0.322827,0.265742 0.05832,0.114734 z m -0.388098,-0.651188 c 6e-4,-0.02048 -0.05291,-0.0508 -0.118908,-0.06735 -0.066,-0.01656 -0.153382,-0.07525 -0.194177,-0.130424 -0.134496,-0.181897 -0.16814,-0.1174 -0.04841,0.09281 0.06274,0.110152 0.10141,0.134603 0.218324,0.13804 0.07814,0.0023 0.142571,-0.01258 0.143173,-0.03307 z m 0.166063,-0.4108 c 0.02107,-0.186965 -0.08308,-0.269517 -0.223473,-0.177117 -0.168963,0.111205 -0.0934,0.352037 0.105016,0.334721 0.08526,-0.0074 0.104401,-0.03291 0.118457,-0.157604 z M 16.59477,11.02972 c 0.0016,-0.09457 0.244676,-0.568829 0.322979,-0.630083 0.120981,-0.09464 0.107758,0.005 -0.03477,0.26213 -0.185109,0.333893 -0.289867,0.467637 -0.288209,0.367953 z m -0.277616,-0.202666 c 0.0051,-0.146434 0.05196,-0.279939 0.09776,-0.278592 0.02447,6.8e-4 0.02756,0.06027 0.0079,0.152103 -0.0392,0.183105 -0.110625,0.268609 -0.105663,0.126489 z M 5.0000185,9.0383534 c 0.00148,-0.05185 0.030144,-0.051009 0.060637,0.0018 0.013088,0.022656 0.00455,0.040634 -0.019016,0.03994 -0.023544,-6.8e-4 -0.042274,-0.019468 -0.041623,-0.041719 z"
     style="fill:#ad5f00;fill-opacity:0.7;stroke:none;stroke-width:0.999996" />
</svg>
