<?xml version="1.0" encoding="UTF-8" standalone="no"?>
<svg
   width="24"
   height="24"
   id="svg5060"
   version="1.0"
   sodipodi:docname="org.inkscape.Inkscape.svg"
   inkscape:version="1.2.2 (b0a8486541, 2022-12-01)"
   xmlns:inkscape="http://www.inkscape.org/namespaces/inkscape"
   xmlns:sodipodi="http://sodipodi.sourceforge.net/DTD/sodipodi-0.dtd"
   xmlns:xlink="http://www.w3.org/1999/xlink"
   xmlns="http://www.w3.org/2000/svg"
   xmlns:svg="http://www.w3.org/2000/svg"
   xmlns:rdf="http://www.w3.org/1999/02/22-rdf-syntax-ns#"
   xmlns:cc="http://creativecommons.org/ns#"
   xmlns:dc="http://purl.org/dc/elements/1.1/">
  <sodipodi:namedview
     id="namedview1262"
     pagecolor="#ffffff"
     bordercolor="#000000"
     borderopacity="0.25"
     inkscape:showpageshadow="2"
     inkscape:pageopacity="0.0"
     inkscape:pagecheckerboard="0"
     inkscape:deskcolor="#d1d1d1"
     showgrid="false"
     inkscape:zoom="50.25"
     inkscape:cx="15.333333"
     inkscape:cy="8.7761194"
     inkscape:window-width="978"
     inkscape:window-height="1019"
     inkscape:window-x="873"
     inkscape:window-y="0"
     inkscape:window-maximized="0"
     inkscape:current-layer="g8923" />
  <defs
     id="defs5062">
    <linearGradient
       id="linearGradient8942">
      <stop
         style="stop-color:#ffffff;stop-opacity:1.0000000"
         offset="0"
         id="stop8944" />
      <stop
         style="stop-color:#ffffff;stop-opacity:0;"
         offset="1"
         id="stop8946" />
    </linearGradient>
    <linearGradient
       id="linearGradient6951">
      <stop
         style="stop-color:#6e3d09;stop-opacity:1;"
         offset="0"
         id="stop6953" />
      <stop
         id="stop6959"
         offset="0.24242425"
         style="stop-color:#ea8113;stop-opacity:1;" />
      <stop
         style="stop-color:#5c3307;stop-opacity:1;"
         offset="0.62121212"
         id="stop6961" />
      <stop
         style="stop-color:#e07c12;stop-opacity:1;"
         offset="1"
         id="stop6955" />
    </linearGradient>
    <linearGradient
       id="linearGradient6939">
      <stop
         style="stop-color:#bdbdbd;stop-opacity:1;"
         offset="0"
         id="stop6941" />
      <stop
         id="stop6947"
         offset="0.33333334"
         style="stop-color:#e2e2e2;stop-opacity:1;" />
      <stop
         style="stop-color:#a3a3a3;stop-opacity:1;"
         offset="0.66666669"
         id="stop6949" />
      <stop
         style="stop-color:#dddddd;stop-opacity:1;"
         offset="1"
         id="stop6943" />
    </linearGradient>
    <linearGradient
       id="linearGradient6963">
      <stop
         style="stop-color:#696969;stop-opacity:1;"
         offset="0"
         id="stop6965" />
      <stop
         style="stop-color:#000000;stop-opacity:1;"
         offset="1"
         id="stop6967" />
    </linearGradient>
    <linearGradient
       id="linearGradient2446">
      <stop
         style="stop-color:#ffffff;stop-opacity:1;"
         offset="0"
         id="stop2448" />
      <stop
         style="stop-color:#ffffff;stop-opacity:0;"
         offset="1"
         id="stop2450" />
    </linearGradient>
    <linearGradient
       id="linearGradient6543">
      <stop
         style="stop-color:#d3d7cf"
         offset="0"
         id="stop6545" />
      <stop
         style="stop-color:#ffffff;stop-opacity:1.0000000"
         offset="1"
         id="stop6547" />
    </linearGradient>
    <linearGradient
       id="linearGradient6528">
      <stop
         style="stop-color:#2e3436"
         offset="0"
         id="stop6530" />
      <stop
         style="stop-color:#000000;stop-opacity:1.0000000"
         offset="1"
         id="stop6532" />
    </linearGradient>
    <linearGradient
       xlink:href="#linearGradient6951"
       id="linearGradient2464"
       gradientUnits="userSpaceOnUse"
       gradientTransform="matrix(0.71362,-0.119336,0.05179406,0.809329,14.74036,9.12562)"
       x1="28.058632"
       y1="18.867767"
       x2="33.436985"
       y2="23.742767" />
    <linearGradient
       xlink:href="#linearGradient6939"
       id="linearGradient2466"
       gradientUnits="userSpaceOnUse"
       gradientTransform="matrix(0.71362,-0.119336,0.05179406,0.809329,14.74036,9.12562)"
       x1="19.394735"
       y1="30.001331"
       x2="23.109331"
       y2="33.438831" />
    <radialGradient
       xlink:href="#linearGradient6963"
       id="radialGradient2468"
       gradientUnits="userSpaceOnUse"
       gradientTransform="matrix(0.709807,-0.118699,0.05020504,0.7845,14.35988,10.7997)"
       cx="15.415101"
       cy="35.356506"
       fx="15.415101"
       fy="35.356506"
       r="7.5791559" />
    <linearGradient
       xlink:href="#linearGradient2446"
       id="linearGradient2470"
       gradientUnits="userSpaceOnUse"
       gradientTransform="matrix(0.608217,-0.10171,0.04414374,0.689789,16.62085,13.35659)"
       x1="13.236155"
       y1="37.752247"
       x2="7.7521091"
       y2="42.282146" />
    <linearGradient
       xlink:href="#linearGradient8942"
       id="linearGradient2483"
       gradientUnits="userSpaceOnUse"
       gradientTransform="matrix(0.41923209,0,0,0.41567428,-1.757989,5.2176448)"
       x1="23.849895"
       y1="10.528904"
       x2="24.565037"
       y2="35.243187" />
    <linearGradient
       xlink:href="#linearGradient6528"
       id="linearGradient2490"
       gradientUnits="userSpaceOnUse"
       gradientTransform="matrix(0.44931906,0,0,0.44549911,-2.462189,4.4493707)"
       x1="24.5"
       y1="23.614397"
       x2="24.722954"
       y2="36.878933" />
    <linearGradient
       x1="23.142857"
       y1="16.714287"
       x2="23.142857"
       y2="12.642857"
       id="linearGradient6549"
       xlink:href="#linearGradient6543"
       gradientUnits="userSpaceOnUse"
       gradientTransform="matrix(0.55335746,0,0,0.55135825,-5.1111767,2.352967)" />
  </defs>
  <metadata
     id="metadata5065">
    <rdf:RDF>
      <cc:Work
         rdf:about="">
        <dc:format>image/svg+xml</dc:format>
        <dc:type
           rdf:resource="http://purl.org/dc/dcmitype/StillImage" />
        <dc:date>January 2006</dc:date>
        <dc:creator>
          <cc:Agent>
            <dc:title>Andreas Nilsson</dc:title>
          </cc:Agent>
        </dc:creator>
        <dc:source>http://tango-project.org</dc:source>
        <dc:subject>
          <rdf:Bag>
            <rdf:li>inkscape</rdf:li>
            <rdf:li>graphics</rdf:li>
            <rdf:li>gfx</rdf:li>
            <rdf:li>svg</rdf:li>
          </rdf:Bag>
        </dc:subject>
        <cc:license
           rdf:resource="http://creativecommons.org/licenses/GPL/2.0/" />
      </cc:Work>
      <cc:License
         rdf:about="http://creativecommons.org/licenses/GPL/2.0/">
        <cc:permits
           rdf:resource="http://web.resource.org/cc/Reproduction" />
        <cc:permits
           rdf:resource="http://web.resource.org/cc/Distribution" />
        <cc:requires
           rdf:resource="http://web.resource.org/cc/Notice" />
        <cc:permits
           rdf:resource="http://web.resource.org/cc/DerivativeWorks" />
        <cc:requires
           rdf:resource="http://web.resource.org/cc/ShareAlike" />
        <cc:requires
           rdf:resource="http://web.resource.org/cc/SourceCode" />
      </cc:License>
    </rdf:RDF>
  </metadata>
  <g
     id="layer1"
     transform="matrix(1.2638428,0,0,1.2560835,1.8681373,-8.1621129)"
     style="stroke-width:0.793678">
    <path
       style="fill:url(#linearGradient2490);fill-opacity:1;fill-rule:evenodd;stroke:#000000;stroke-width:0.793678px;stroke-linecap:butt;stroke-linejoin:miter;stroke-opacity:1"
       d="m 3.2104642,17.712821 c -0.5830449,0.04179 -3.54106219,-0.807404 -3.53036397,-1.354303 0.002712,-1.086884 6.56654097,-8.0515696 6.97019737,-8.2708421 0.5475291,-0.5400258 2.1616789,-0.5175247 2.6638207,0 0.559369,0.2802083 7.0696037,8.0509421 7.0389287,8.8962831 -0.03347,0.728862 -4.424203,2.222759 -4.798086,2.186585 0.008,0.422262 1.454692,1.523902 1.655283,1.850701 0.05348,0.4801 -3.8671097,0.949073 -3.8778077,1.524636 l 1.4668457,0.751216 c -0.02541,0.762702 -3.3024536,1.449026 -4.290688,0.938874 0.1029685,-0.485907 0.4421831,-0.74429 0.2884006,-1.007447 -0.280824,-0.517799 -2.6481731,-0.636233 -2.6401498,-1.05857 -0.1230279,-0.28632 1.936752,-0.208295 1.9741952,-0.81283 0.02399,-0.52635 -4.7404633,-1.817739 -4.6937795,-2.18658 -0.044364,-0.328401 1.7494879,-0.611799 1.7732037,-1.457723 z"
       id="path5072" />
    <rect
       y="12.445054"
       x="-0.38502061"
       height="9.0397644"
       width="8.1161003"
       id="rect2363"
       style="fill:none;stroke:none;stroke-width:0.793678"
       transform="matrix(0.91557414,-0.40214923,0.31243723,0.94993841,0,0)" />
    <path
       style="fill:url(#linearGradient6549);fill-opacity:1;fill-rule:evenodd;stroke:none;stroke-width:0.629925"
       id="path5074-7"
       d="M 2.6147729,12.92337 C 3.8659214,11.515117 5.1950805,10.051455 6.6666963,8.604576 7.3046296,8.0993814 8.38013,8.0196256 9.2000442,8.5032523 9.425739,8.7029944 9.595934,8.8107835 11.483938,11.037645 l 0.009,1.302591 -2.033872,-0.959849 v 2.756986 L 7.8610925,11.932128 6.9711544,13.379642 6.2010166,10.829076 5.3268171,12.92337 Z" />
    <path
       style="opacity:0.4;fill:none;stroke:url(#linearGradient2483);stroke-width:0.793678;stroke-linecap:butt;stroke-linejoin:miter;stroke-miterlimit:4;stroke-dasharray:none;stroke-opacity:1"
       d="M 4.0583822,16.852148 C 2.8651407,17.081803 1.0724404,16.383563 0.70862328,16.123298 1.4629201,15.038742 6.5855678,9.1424058 6.9742738,8.9662204 7.5194829,8.5060102 8.8031573,8.600214 9.1986413,9.0158883 9.525801,9.196114 15.047363,16.145135 15.418685,16.81191 c -1.460068,0.866034 -4.153394,1.572348 -5.092042,1.408685 -0.9386487,-0.163664 0.91506,2.344879 0.91506,2.344879 L 8.9358711,21.681128 9.5745083,22.646262 7.5687902,23.247698 7.2494703,21.96085 5.9264431,21.790068 7.1190194,20.736986 C 7.1582984,20.475214 2.8583225,19.554042 2.7493796,19.271274 3.8720031,18.849938 4.0034471,18.050698 4.0583822,16.852148 Z"
       id="path6536"
       sodipodi:nodetypes="cccccsccccccccc" />
    <g
       id="g8923"
       transform="matrix(0.42165702,0,0,0.42058427,-3.6574456,5.9704902)"
       style="stroke-width:0.793678">
      <path
         id="path6937"
         d="m 32.815491,26.053448 3.098333,2.590809 C 40.677173,22.070645 47.362292,7.1165887 47.362292,7.1165887 47.605366,6.0743564 46.483038,5.6310026 45.984075,6.3896101 c 0,0 -9.039365,13.0428949 -13.168584,19.6638379 z"
         style="display:inline;overflow:visible;visibility:visible;fill:url(#linearGradient2464);fill-opacity:1;fill-rule:nonzero;stroke:#3d211b;stroke-width:1.88468;stroke-linecap:round;stroke-linejoin:miter;stroke-miterlimit:4;stroke-dasharray:none;stroke-dashoffset:0;stroke-opacity:0.60000002;marker:none" />
      <path
         id="path6935"
         d="m 27.920688,35.2377 1.703179,1.29703 5.679038,-6.975843 0.159732,-0.604072 0.780067,-0.145018 c -0.393138,-1.212368 -2.32616,-3.196629 -3.664197,-2.972874 l 0.114989,0.872442 -0.458436,0.387521 z"
         style="display:inline;overflow:visible;visibility:visible;fill:url(#linearGradient2466);fill-opacity:1;fill-rule:nonzero;stroke:#888a85;stroke-width:1.88468;stroke-linecap:round;stroke-linejoin:miter;stroke-miterlimit:4;stroke-dasharray:none;stroke-dashoffset:0;stroke-opacity:1;marker:none" />
      <path
         id="path6933"
         d="m 20.985414,42.86777 c 4.713683,-0.788252 8.331712,-0.74985 8.760057,-4.752472 0.345188,-3.225562 -3.551035,-4.091914 -5.255072,-0.978912 -1.641523,2.998804 -3.504985,5.731384 -3.504985,5.731384 z"
         style="display:inline;overflow:visible;visibility:visible;fill:url(#radialGradient2468);fill-opacity:1;fill-rule:nonzero;stroke:none;stroke-width:0.158736;marker:none" />
      <circle
         transform="matrix(0.608217,-0.10171,0.04414374,0.689789,20.41956,11.75746)"
         id="path6971"
         style="display:inline;overflow:visible;visibility:visible;opacity:0.527778;fill:#ffffff;fill-opacity:1;fill-rule:nonzero;stroke:none;stroke-width:0.793678;marker:none"
         cx="0"
         cy="0"
         r="0" />
      <circle
         style="display:inline;overflow:visible;visibility:visible;fill:#ffffff;fill-opacity:1;fill-rule:nonzero;stroke:none;stroke-width:0.793678;marker:none"
         id="path6983"
         transform="matrix(0.562239,-0.09402052,0.04080659,0.637644,27.55723,4.593379)"
         cx="0"
         cy="0"
         r="0" />
      <path
         id="path6985"
         d="m 32.506055,29.222896 -3.466373,5.604573"
         style="display:inline;overflow:visible;visibility:visible;fill:none;stroke:#ffffff;stroke-width:1.88468;stroke-linecap:round;stroke-linejoin:round;stroke-miterlimit:4;stroke-dasharray:none;stroke-dashoffset:0;stroke-opacity:1;marker:none" />
      <path
         id="path1571"
         d="m 21.888602,42.180999 c 0,0 2.299247,-1.727487 3.188602,-3.876203 0.314651,-0.760209 1.166888,-0.298884 0.710034,0.482077 -0.986792,1.686854 -3.898636,3.394126 -3.898636,3.394126 z"
         style="display:inline;overflow:visible;visibility:visible;opacity:0.427778;fill:url(#linearGradient2470);fill-opacity:1;fill-rule:nonzero;stroke:none;stroke-width:0.793678;marker:none" />
    </g>
    <path
       style="fill:#dde0da;fill-opacity:1;fill-rule:evenodd;stroke:none;stroke-width:0.793678"
       d="m 6.6932218,18.576214 -2.0727581,-0.560533 0.010655,0.911771 2.1402517,0.721054 z"
       id="path8968" />
  </g>
</svg>
