<?xml version="1.0" encoding="UTF-8" standalone="no"?>
<svg
   id="svg4248"
   height="24"
   width="24"
   version="1.1"
   sodipodi:docname="preferences-color.svg"
   inkscape:version="1.2.2 (b0a8486541, 2022-12-01)"
   xmlns:inkscape="http://www.inkscape.org/namespaces/inkscape"
   xmlns:sodipodi="http://sodipodi.sourceforge.net/DTD/sodipodi-0.dtd"
   xmlns:xlink="http://www.w3.org/1999/xlink"
   xmlns="http://www.w3.org/2000/svg"
   xmlns:svg="http://www.w3.org/2000/svg"
   xmlns:rdf="http://www.w3.org/1999/02/22-rdf-syntax-ns#"
   xmlns:cc="http://creativecommons.org/ns#"
   xmlns:dc="http://purl.org/dc/elements/1.1/">
  <sodipodi:namedview
     id="namedview220"
     pagecolor="#ffffff"
     bordercolor="#666666"
     borderopacity="1.0"
     inkscape:showpageshadow="2"
     inkscape:pageopacity="0.0"
     inkscape:pagecheckerboard="0"
     inkscape:deskcolor="#d1d1d1"
     showgrid="false"
     inkscape:zoom="55.625734"
     inkscape:cx="11.451534"
     inkscape:cy="17.599768"
     inkscape:window-width="1326"
     inkscape:window-height="764"
     inkscape:window-x="431"
     inkscape:window-y="264"
     inkscape:window-maximized="0"
     inkscape:current-layer="svg4248" />
  <defs
     id="defs4250">
    <linearGradient
       inkscape:collect="always"
       id="linearGradient18797">
      <stop
         style="stop-color:#206b00;stop-opacity:1;"
         offset="0"
         id="stop18793" />
      <stop
         style="stop-color:#206b00;stop-opacity:0.5;"
         offset="1"
         id="stop18795" />
    </linearGradient>
    <linearGradient
       inkscape:collect="always"
       id="linearGradient18789">
      <stop
         style="stop-color:#7a0000;stop-opacity:1;"
         offset="0"
         id="stop18785" />
      <stop
         style="stop-color:#7a0000;stop-opacity:0.5;"
         offset="1"
         id="stop18787" />
    </linearGradient>
    <linearGradient
       inkscape:collect="always"
       id="linearGradient18781">
      <stop
         style="stop-color:#002e99;stop-opacity:1;"
         offset="0"
         id="stop18777" />
      <stop
         style="stop-color:#002e99;stop-opacity:0.5;"
         offset="1"
         id="stop18779" />
    </linearGradient>
    <linearGradient
       inkscape:collect="always"
       id="linearGradient14808">
      <stop
         style="stop-color:#d1ff82;stop-opacity:1;"
         offset="0"
         id="stop14804" />
      <stop
         style="stop-color:#68b723;stop-opacity:1;"
         offset="1"
         id="stop14806" />
    </linearGradient>
    <linearGradient
       inkscape:collect="always"
       id="linearGradient13285">
      <stop
         style="stop-color:#8cd5ff;stop-opacity:1;"
         offset="0"
         id="stop13281" />
      <stop
         style="stop-color:#3689e6;stop-opacity:1;"
         offset="1"
         id="stop13283" />
    </linearGradient>
    <linearGradient
       inkscape:collect="always"
       id="linearGradient6761">
      <stop
         style="stop-color:#ff8c82;stop-opacity:1;"
         offset="0"
         id="stop6757" />
      <stop
         style="stop-color:#c6262e;stop-opacity:1;"
         offset="1"
         id="stop6759" />
    </linearGradient>
    <linearGradient
       id="linearGradient4011-4">
      <stop
         id="stop4013-8"
         style="stop-color:#ffffff;stop-opacity:1"
         offset="0" />
      <stop
         id="stop4015-5"
         style="stop-color:#ffffff;stop-opacity:0.23529412"
         offset="0.507761" />
      <stop
         id="stop4017-6"
         style="stop-color:#ffffff;stop-opacity:0.15686275"
         offset="0.83456558" />
      <stop
         id="stop4019-1"
         style="stop-color:#ffffff;stop-opacity:0.39215687"
         offset="1" />
    </linearGradient>
    <linearGradient
       id="linearGradient4661">
      <stop
         id="stop4663"
         style="stop-color:#000000;stop-opacity:1"
         offset="0" />
      <stop
         id="stop4665"
         style="stop-color:#000000;stop-opacity:0"
         offset="1" />
    </linearGradient>
    <radialGradient
       xlink:href="#linearGradient4661"
       id="radialGradient3090"
       gradientUnits="userSpaceOnUse"
       gradientTransform="matrix(0.80000005,0,0,0.23529376,-38.100003,18.911765)"
       cx="62.625"
       cy="4.625"
       fx="62.625"
       fy="4.625"
       r="10.625" />
    <linearGradient
       y2="44.340794"
       x2="71.204407"
       y1="6.2375584"
       x1="71.204407"
       gradientTransform="matrix(0.29729726,0,0,0.29729726,-13.326175,8.4613608)"
       gradientUnits="userSpaceOnUse"
       id="linearGradient14881"
       xlink:href="#linearGradient4011-4" />
    <linearGradient
       y2="44.340794"
       x2="71.204407"
       y1="6.2375584"
       x1="71.204407"
       gradientTransform="matrix(0.29729727,0,0,0.29729727,-5.3261787,8.4613634)"
       gradientUnits="userSpaceOnUse"
       id="linearGradient14885"
       xlink:href="#linearGradient4011-4" />
    <linearGradient
       y2="44.340794"
       x2="71.204407"
       y1="6.2375584"
       x1="71.204407"
       gradientTransform="matrix(0.29729729,0,0,0.29729729,-9.3261795,1.4613631)"
       gradientUnits="userSpaceOnUse"
       id="linearGradient14889"
       xlink:href="#linearGradient4011-4" />
    <linearGradient
       inkscape:collect="always"
       xlink:href="#linearGradient6761"
       id="linearGradient6763"
       x1="34.676956"
       y1="11.723297"
       x2="34.676956"
       y2="59.709702"
       gradientUnits="userSpaceOnUse"
       gradientTransform="matrix(0.52000001,0,0,0.52099501,-0.12000048,-0.13840834)" />
    <linearGradient
       inkscape:collect="always"
       xlink:href="#linearGradient13285"
       id="linearGradient13287"
       x1="12.6016"
       y1="12.405132"
       x2="12.6016"
       y2="55.15794"
       gradientUnits="userSpaceOnUse"
       gradientTransform="matrix(0.51999702,0,0,0.51999702,-0.83983592,-0.12007874)" />
    <linearGradient
       inkscape:collect="always"
       xlink:href="#linearGradient14808"
       id="linearGradient14810"
       x1="23.930099"
       y1="0.062989004"
       x2="23.930099"
       y2="39.951103"
       gradientUnits="userSpaceOnUse"
       gradientTransform="matrix(0.51999998,0,0,0.51999998,-0.48000103,-0.33544381)" />
    <linearGradient
       inkscape:collect="always"
       xlink:href="#linearGradient18781"
       id="linearGradient18783"
       x1="13.05024"
       y1="31.615053"
       x2="20.356897"
       y2="18.959551"
       gradientUnits="userSpaceOnUse"
       gradientTransform="matrix(0.52008128,0,0,0.52008128,-0.84138124,-0.12252151)" />
    <linearGradient
       inkscape:collect="always"
       xlink:href="#linearGradient18789"
       id="linearGradient18791"
       x1="35.176392"
       y1="31.948603"
       x2="28.039177"
       y2="19.277662"
       gradientUnits="userSpaceOnUse"
       gradientTransform="matrix(0.52000001,0,0,0.52099501,-0.12000048,-0.13840834)" />
    <linearGradient
       inkscape:collect="always"
       xlink:href="#linearGradient18797"
       id="linearGradient18799"
       x1="24.058325"
       y1="12.515717"
       x2="24.058325"
       y2="26.170309"
       gradientUnits="userSpaceOnUse"
       gradientTransform="matrix(0.52000008,0,0,0.52000008,-0.48000194,-0.36000151)" />
  </defs>
  <metadata
     id="metadata4253">
    <rdf:RDF>
      <cc:Work
         rdf:about="">
        <dc:format>image/svg+xml</dc:format>
        <dc:type
           rdf:resource="http://purl.org/dc/dcmitype/StillImage" />
      </cc:Work>
    </rdf:RDF>
  </metadata>
  <path
     id="path14769"
     d="m 11.999999,2.5511599 c -3.586475,-1.6e-6 -6.5000002,2.9135241 -6.5000002,6.4999998 0,0.3162473 0.030909,0.6247519 0.074682,0.9289987 0.7974309,-0.3495903 1.6762059,-0.3289055 2.6017929,-0.3289049 1.4299813,0 2.7513043,0.5534255 3.8235283,1.3382955 1.103648,-0.767412 1.811918,-1.3153044 3.242643,-1.3153044 0.925587,0 2.386738,0.1484228 3.18417,0.4980124 -0.01469,0.102068 -0.0374,0.0076 -0.05676,0.108108 0.07709,-0.3995589 0.129939,-0.8072388 0.129939,-1.2292053 9e-6,-3.5864757 -2.913522,-6.4999998 -6.499995,-6.4999998 z m 6.262523,8.1937041 c -0.03099,0.114642 -0.06007,0.229975 -0.09708,0.342026 0.03717,-0.112197 0.06598,-0.227216 0.09708,-0.342026 z m -0.339039,0.961857 c -0.0472,0.105148 -0.09982,0.207059 -0.152344,0.309168 0.05276,-0.102169 0.104943,-0.203936 0.152344,-0.309168 z m -0.436122,0.806525 c -0.04385,0.06946 -0.08656,0.139947 -0.132927,0.207606 0.04664,-0.06775 0.08883,-0.138032 0.132927,-0.207606 z m -0.566061,0.7662 c -0.04876,0.05682 -0.0972,0.113673 -0.147863,0.168773 0.05085,-0.05509 0.09891,-0.111949 0.147863,-0.168773 z m -0.704963,0.70795 c -0.04065,0.03484 -0.08396,0.06621 -0.12546,0.100068 0.04161,-0.03382 0.08471,-0.06525 0.12546,-0.100068 z m -0.713925,0.528723 c -0.03564,0.02297 -0.06993,0.04792 -0.106048,0.0702 0.03626,-0.02229 0.07027,-0.04721 0.106048,-0.0702 z m -0.837891,0.455537 c -0.0213,0.0096 -0.0428,0.01897 -0.06422,0.02837 2.25e-4,0.0015 0.0013,0.0029 0.0015,0.0046 0.02174,-0.0095 0.04111,-0.0231 0.06273,-0.03286 z"
     style="color:#000000;clip-rule:nonzero;display:inline;overflow:visible;visibility:visible;opacity:1;isolation:auto;mix-blend-mode:normal;color-interpolation:sRGB;color-interpolation-filters:linearRGB;solid-color:#000000;solid-opacity:1;fill:url(#linearGradient14810);fill-opacity:1;fill-rule:nonzero;stroke:none;stroke-width:0.999998;stroke-linecap:butt;stroke-linejoin:miter;stroke-miterlimit:4;stroke-dasharray:none;stroke-dashoffset:0;stroke-opacity:1;marker:none;color-rendering:auto;image-rendering:auto;shape-rendering:auto;text-rendering:auto;enable-background:accumulate"
     sodipodi:nodetypes="sscscscccsccccccccccccccccccccccc" />
  <path
     d="m 20.5,20 c 0,1.380712 -3.80558,2.5 -8.5,2.5 -4.6944205,0 -8.5000001,-1.119288 -8.5000001,-2.5 0,-1.380712 3.8055796,-2.5 8.5000001,-2.5 4.69442,0 8.5,1.119288 8.5,2.5 z"
     id="path8836"
     style="display:inline;overflow:visible;visibility:visible;opacity:0.3;fill:url(#radialGradient3090);fill-opacity:1;fill-rule:evenodd;stroke:none;stroke-width:1;marker:none" />
  <path
     id="path14761"
     d="m 8.3081731,9.4997247 c 0.058316,0.00271 0.1170477,0.00477 0.1749504,0.00899 -0.058292,-0.00433 -0.1164981,-0.00617 -0.1749504,-0.00899 z m -0.6369974,0.00455 c -0.092357,0.00455 -0.1842854,0.00639 -0.2766302,0.01495 0.091093,-0.00867 0.1844633,-0.010183 0.2766302,-0.01495 z m 1.6523061,0.1211182 c 0.01355,0.00282 0.02685,0.00607 0.04037,0.00899 -0.01352,-0.00292 -0.02683,-0.00617 -0.04037,-0.00899 z m -2.6885489,0.010508 c -0.098044,0.021071 -0.1941024,0.051978 -0.2915831,0.07775 0.097182,-0.025935 0.1926854,-0.056268 0.2915831,-0.07775 z M 5.8170041,9.8751487 C 5.7150066,9.9116894 5.6143217,9.94979 5.513458,9.991782 5.6133137,9.9501388 5.7147607,9.9119515 5.8170041,9.8751487 Z M 5.4028057,10.044118 c -0.2185309,0.09581 -0.4375312,0.190449 -0.6489594,0.312517 -3.1095863,1.795316 -4.17733111,5.779973 -2.3820123,8.889556 1.7953172,3.109584 5.7799719,4.17733 8.889556,2.382013 0.274196,-0.158308 0.526704,-0.339086 0.768584,-0.529337 C 11.327691,20.582401 10.716888,19.918545 10.253559,19.116034 9.5322058,17.866615 9.3274874,16.303458 9.4786464,14.97157 7.3186546,13.980478 5.9550266,12.349618 5.5432061,10.052245 Z m 5.6013923,0.182426 c 0.05449,0.02849 0.107921,0.05824 0.161493,0.08823 -0.05381,-0.02986 -0.106924,-0.05993 -0.161493,-0.08823 z m 0.782043,0.478496 c 0.02553,0.01835 0.051,0.03662 0.07625,0.05532 0.0016,-0.0013 0.0028,-0.0031 0.0046,-0.0046 -0.02576,-0.01895 -0.05473,-0.03231 -0.08074,-0.05084 z"
     style="color:#000000;clip-rule:nonzero;display:inline;overflow:visible;visibility:visible;opacity:1;isolation:auto;mix-blend-mode:normal;color-interpolation:sRGB;color-interpolation-filters:linearRGB;solid-color:#000000;solid-opacity:1;fill:url(#linearGradient13287);fill-opacity:1;fill-rule:nonzero;stroke:none;stroke-width:0.999998;stroke-linecap:round;stroke-linejoin:round;stroke-miterlimit:4;stroke-dasharray:none;stroke-dashoffset:0;stroke-opacity:1;marker:none;color-rendering:auto;image-rendering:auto;shape-rendering:auto;text-rendering:auto;enable-background:accumulate"
     sodipodi:nodetypes="cccccccccccccccccsscsccccccccccc" />
  <path
     style="color:#000000;clip-rule:nonzero;display:inline;overflow:visible;visibility:visible;opacity:1;isolation:auto;mix-blend-mode:normal;color-interpolation:sRGB;color-interpolation-filters:linearRGB;solid-color:#000000;solid-opacity:1;fill:url(#linearGradient6763);fill-opacity:1;fill-rule:nonzero;stroke:none;stroke-width:1;stroke-linecap:butt;stroke-linejoin:miter;stroke-miterlimit:4;stroke-dasharray:none;stroke-dashoffset:0;stroke-opacity:1;marker:none;color-rendering:auto;image-rendering:auto;shape-rendering:auto;text-rendering:auto;enable-background:accumulate"
     d="m 18.355483,10.027424 c -0.334038,2.326305 -1.706564,3.982242 -3.817876,4.830104 0.151333,1.330595 0.0039,2.94187 -0.715454,4.190155 -0.461686,0.801196 -1.1689,1.507403 -1.868692,2.022956 0.681361,0.646375 2.542941,1.479212 4.056775,1.479211 3.577898,0 6.484462,-2.91212 6.484458,-6.496866 0,-2.659607 -1.852226,-5.021039 -4.139211,-6.02556 z"
     id="path14717"
     sodipodi:nodetypes="ccscssc" />
  <path
     d="m 13.500001,15.999804 c 0,3.037663 -2.462616,5.500195 -5.4999307,5.500195 -3.0375934,0 -5.5000692,-2.462559 -5.5000692,-5.500195 0,-3.037524 2.4624758,-5.499804 5.5000692,-5.499804 3.0373147,0 5.4999307,2.46228 5.4999307,5.499804 z"
     id="path14879"
     style="color:#000000;display:inline;overflow:visible;visibility:visible;opacity:0.7;fill:none;stroke:url(#linearGradient14881);stroke-width:1;stroke-linecap:round;stroke-linejoin:round;stroke-miterlimit:4;stroke-dasharray:none;stroke-dashoffset:0;stroke-opacity:1;marker:none;enable-background:accumulate" />
  <path
     style="color:#000000;display:inline;overflow:visible;visibility:visible;opacity:0.7;fill:none;stroke:url(#linearGradient14885);stroke-width:1;stroke-linecap:round;stroke-linejoin:round;stroke-miterlimit:4;stroke-dasharray:none;stroke-dashoffset:0;stroke-opacity:1;marker:none;enable-background:accumulate"
     id="path14883"
     d="m 21.499999,15.999807 c 0,3.037664 -2.462616,5.500194 -5.49993,5.500194 -3.037594,0 -5.50007,-2.462559 -5.50007,-5.500194 0,-3.037524 2.462476,-5.499805 5.50007,-5.499805 3.037314,0 5.49993,2.462281 5.49993,5.499805 z" />
  <path
     d="m 17.499999,8.9998072 c 0,3.0376648 -2.462615,5.5001948 -5.499931,5.5001948 -3.0375936,0 -5.500069,-2.462559 -5.500069,-5.5001948 0,-3.0375239 2.4624754,-5.4998052 5.500069,-5.4998052 3.037316,0 5.499931,2.4622813 5.499931,5.4998052 z"
     id="path14887"
     style="color:#000000;display:inline;overflow:visible;visibility:visible;opacity:0.7;fill:none;stroke:url(#linearGradient14889);stroke-width:1;stroke-linecap:round;stroke-linejoin:round;stroke-miterlimit:4;stroke-dasharray:none;stroke-dashoffset:0;stroke-opacity:1;marker:none;enable-background:accumulate" />
  <path
     d="M 12.000001,15.500002 C 8.4135248,15.500002 5.499999,12.586477 5.499999,9 5.499999,5.4135236 8.4135248,2.4999975 12,2.499999 c 3.586475,0 6.500004,2.9135246 6.500001,6.500001 0,3.586477 -2.913526,6.500002 -6.5,6.500002 z"
     id="path14767"
     style="color:#000000;display:inline;overflow:visible;visibility:visible;opacity:1;fill:none;fill-opacity:0;fill-rule:nonzero;stroke:url(#linearGradient18799);stroke-width:0.999998;stroke-linecap:round;stroke-linejoin:round;stroke-miterlimit:4;stroke-dasharray:none;stroke-dashoffset:0;stroke-opacity:0.5;marker:none;enable-background:accumulate" />
  <path
     id="path14771"
     d="m 8.1472088,9.5501576 c -0.8783602,0 -1.7762694,0.099266 -2.5330142,0.4310188 C 5.9120176,12.338082 7.027526,13.774519 9.1453212,14.861778 9.5331024,13.146212 10.412551,11.514157 11.538463,10.697297 10.520377,9.9510552 9.5056487,9.5501576 8.1472088,9.5501576 Z"
     style="color:#000000;display:inline;overflow:visible;visibility:visible;opacity:1;fill:#89ffdd;fill-opacity:1;fill-rule:nonzero;stroke:none;stroke-width:1;marker:none;enable-background:accumulate"
     sodipodi:nodetypes="scccs" />
  <path
     id="path14763"
     d="m 14.560801,14.844298 c -0.800094,0.351664 -1.631668,0.66808 -2.560801,0.66808 -0.851314,0 -1.793234,-0.170554 -2.5389495,-0.468509 C 9.3288227,17.609221 9.9984444,19.66678 12,21.058776 c 1.987768,-1.509071 2.906867,-3.499249 2.560801,-6.214478 z"
     style="color:#000000;display:inline;overflow:visible;visibility:visible;opacity:1;fill:#f76eda;fill-opacity:1;fill-rule:nonzero;stroke:none;stroke-width:1;marker:none;enable-background:accumulate"
     sodipodi:nodetypes="csccc" />
  <path
     style="color:#000000;display:inline;overflow:visible;visibility:visible;opacity:1;fill:none;fill-opacity:0;fill-rule:nonzero;stroke:url(#linearGradient18783);stroke-width:1;stroke-linecap:round;stroke-linejoin:round;stroke-miterlimit:4;stroke-dasharray:none;stroke-dashoffset:0;stroke-opacity:0.5;marker:none;enable-background:accumulate"
     id="path14759"
     d="m 13.63126,12.74879 c 1.793907,3.107134 0.727086,7.088564 -2.38005,8.882471 C 8.1440743,23.425166 4.1626432,22.358345 2.3687391,19.251209 0.57483439,16.144074 1.6416532,12.162642 4.7487902,10.36874 7.8559258,8.5748337 11.837356,9.6416548 13.63126,12.74879 Z" />
  <path
     id="path14744"
     d="m 15.573163,9.558653 c -1.74908,-0.036031 -3.247732,1.219227 -3.247732,1.219227 0,0 1.198002,1.057514 1.64437,1.830645 0.410182,0.710455 0.660826,1.467531 0.770698,2.232863 2.153632,-0.980664 3.285702,-2.606989 3.598401,-4.780529 C 17.569771,9.7236763 16.465898,9.558653 15.573163,9.558653 Z"
     style="color:#000000;display:inline;overflow:visible;visibility:visible;opacity:1;fill:#ffe16b;fill-opacity:1;fill-rule:nonzero;stroke:none;stroke-width:1;marker:none;enable-background:accumulate"
     sodipodi:nodetypes="ccsccc" />
  <path
     d="m 16,9.5 c -3.586476,0 -6.5000002,2.919099 -6.5000002,6.512438 0,3.593339 2.9135242,6.512439 6.5000002,6.512437 3.586475,0 6.500003,-2.919098 6.499999,-6.512437 C 22.499999,12.419099 19.586475,9.5 16,9.5 Z"
     id="path14719"
     style="color:#000000;display:inline;overflow:visible;visibility:visible;opacity:1;fill:none;fill-opacity:0;fill-rule:nonzero;stroke:url(#linearGradient18791);stroke-width:1;stroke-linecap:round;stroke-linejoin:round;stroke-miterlimit:4;stroke-dasharray:none;stroke-dashoffset:0;stroke-opacity:0.5;marker:none;enable-background:accumulate" />
  <path
     id="rect5240"
     style="opacity:1;fill:#ffffff;fill-opacity:1;stroke:none;stroke-width:0.999998;stroke-linejoin:round;stroke-miterlimit:3.42857;stroke-opacity:0.5;paint-order:stroke markers fill"
     d="m 11.957668,10.990497 c -0.07925,0.0023 -0.155754,0.03037 -0.217356,0.08028 -1.105906,0.890932 -1.8948932,2.155924 -2.1755192,3.605958 -0.03345,0.172221 0.06129,0.343737 0.225188,0.406319 0.6780602,0.258796 1.4143362,0.407298 2.1862902,0.407298 0.771953,0 1.50725,-0.148502 2.185311,-0.407298 0.163896,-0.06258 0.259618,-0.234098 0.226167,-0.406319 -0.126366,-0.648019 -0.356064,-1.289538 -0.705918,-1.895502 -0.395994,-0.685882 -0.912758,-1.251346 -1.489183,-1.712414 -0.06669,-0.05335 -0.149607,-0.08068 -0.23498,-0.07833 z" />
</svg>
