<?xml version="1.0" encoding="UTF-8" standalone="no"?>
<svg
   xmlns:dc="http://purl.org/dc/elements/1.1/"
   xmlns:cc="http://creativecommons.org/ns#"
   xmlns:rdf="http://www.w3.org/1999/02/22-rdf-syntax-ns#"
   xmlns:svg="http://www.w3.org/2000/svg"
   xmlns="http://www.w3.org/2000/svg"
   xmlns:xlink="http://www.w3.org/1999/xlink"
   id="svg3946"
   height="24"
   width="24"
   version="1.1">
  <defs
     id="defs3948">
    <linearGradient
       gradientTransform="matrix(0.5135135,0,0,0.5135135,-24.836132,6.978716)"
       gradientUnits="userSpaceOnUse"
       xlink:href="#linearGradient4011"
       id="linearGradient3090"
       y2="44.340794"
       x2="71.204407"
       y1="6.2375584"
       x1="71.204407" />
    <linearGradient
       id="linearGradient4011">
      <stop
         offset="0"
         style="stop-color:#ffffff;stop-opacity:1"
         id="stop4013" />
      <stop
         offset="0.507761"
         style="stop-color:#ffffff;stop-opacity:0.23529412"
         id="stop4015" />
      <stop
         offset="0.83456558"
         style="stop-color:#ffffff;stop-opacity:0.15686275"
         id="stop4017" />
      <stop
         offset="1"
         style="stop-color:#ffffff;stop-opacity:0.39215687"
         id="stop4019" />
    </linearGradient>
    <linearGradient
       id="linearGradient3707-319-631-407-324-3-8">
      <stop
         offset="0"
         style="stop-color:#185f9a;stop-opacity:1"
         id="stop3760-7-3" />
      <stop
         offset="1"
         style="stop-color:#599ec9;stop-opacity:1"
         id="stop3762-8-4" />
    </linearGradient>
    <radialGradient
       gradientTransform="matrix(0,1.1468756,-1.2132576,-3.1216191e-8,22.251804,1.0569109)"
       gradientUnits="userSpaceOnUse"
       xlink:href="#linearGradient2867-449-88-871-390-598-476-591-434-148-57-177-3-8"
       id="radialGradient3093"
       fy="8.4497671"
       fx="6.0693989"
       r="19.99999"
       cy="8.4497671"
       cx="6.0693989" />
    <linearGradient
       id="linearGradient2867-449-88-871-390-598-476-591-434-148-57-177-3-8">
      <stop
         offset="0"
         style="stop-color:#90dbec;stop-opacity:1"
         id="stop3750-8-9" />
      <stop
         offset="0.26238"
         style="stop-color:#42baea;stop-opacity:1"
         id="stop3752-3-2" />
      <stop
         offset="0.704952"
         style="stop-color:#3689e6;stop-opacity:1"
         id="stop3754-7-2" />
      <stop
         offset="1"
         style="stop-color:#2b63a0;stop-opacity:1"
         id="stop3756-9-3" />
    </linearGradient>
    <linearGradient
       gradientTransform="matrix(0.53851149,0,0,0.53851149,-0.924275,7.0757243)"
       gradientUnits="userSpaceOnUse"
       xlink:href="#linearGradient3707-319-631-407-324-3-8"
       id="linearGradient3095"
       y2="3.8990016"
       x2="24"
       y1="44"
       x1="24" />
    <linearGradient
       id="linearGradient8838">
      <stop
         offset="0"
         style="stop-color:#000000;stop-opacity:1"
         id="stop8840" />
      <stop
         offset="1"
         style="stop-color:#000000;stop-opacity:0"
         id="stop8842" />
    </linearGradient>
    <radialGradient
       gradientTransform="matrix(1.1294118,0,0,0.2823525,-58.729414,27.694118)"
       gradientUnits="userSpaceOnUse"
       xlink:href="#linearGradient8838"
       id="radialGradient3944"
       fy="4.625"
       fx="62.625"
       r="10.625"
       cy="4.625"
       cx="62.625" />
    <linearGradient
       gradientTransform="translate(20,8.0000005)"
       gradientUnits="userSpaceOnUse"
       xlink:href="#linearGradient3707-319-631-407-324-3-8-4"
       id="linearGradient3887-6"
       y2="0.86377394"
       x2="11.801105"
       y1="19.013813"
       x1="11.801105" />
    <linearGradient
       id="linearGradient3707-319-631-407-324-3-8-4">
      <stop
         offset="0"
         style="stop-color:#185f9a;stop-opacity:1"
         id="stop3760-7-3-9" />
      <stop
         offset="1"
         style="stop-color:#599ec9;stop-opacity:1"
         id="stop3762-8-4-5" />
    </linearGradient>
  </defs>
  <metadata
     id="metadata3951">
    <rdf:RDF>
      <cc:Work
         rdf:about="">
        <dc:format>image/svg+xml</dc:format>
        <dc:type
           rdf:resource="http://purl.org/dc/dcmitype/StillImage" />
        <dc:title />
      </cc:Work>
    </rdf:RDF>
  </metadata>
  <g
     id="layer1"
     transform="translate(0,-8)">
    <path
       style="opacity:0.3;fill:url(#radialGradient3944);fill-opacity:1;fill-rule:evenodd;stroke:none;stroke-width:0.99999988;marker:none;visibility:visible;display:inline;overflow:visible"
       id="path8836"
       d="m 24,29 c 0,1.656854 -5.372583,3 -12,3 C 5.3725827,32 -2.5e-7,30.656854 -2.5e-7,29 -2.5e-7,27.343146 5.3725827,26 12,26 c 6.627417,0 12,1.343146 12,3 l 0,0 z" />
    <path
       style="color:#000000;fill:url(#radialGradient3093);fill-opacity:1;fill-rule:nonzero;stroke:url(#linearGradient3095);stroke-width:1;stroke-linecap:round;stroke-linejoin:round;stroke-miterlimit:4;stroke-opacity:1;stroke-dasharray:none;stroke-dashoffset:0;marker:none;visibility:visible;display:inline;overflow:visible;enable-background:accumulate"
       id="path2555-7"
       d="M 12.000001,9.5 C 6.206464,9.5 1.4999999,14.206462 1.4999999,20 c 0,5.793538 4.7064641,10.500001 10.5000011,10.5 C 17.793536,30.5 22.500005,25.793538 22.5,20 22.5,14.206462 17.793536,9.5 12.000001,9.5 z" />
    <path
       style="opacity:0.5;color:#000000;fill:none;stroke:url(#linearGradient3090);stroke-width:0.99999988;stroke-linecap:round;stroke-linejoin:round;stroke-miterlimit:4;stroke-opacity:1;stroke-dasharray:none;stroke-dashoffset:0;marker:none;visibility:visible;display:inline;overflow:visible;enable-background:accumulate"
       id="path8655-6"
       d="M 21.5,19.999663 C 21.5,25.246537 17.246391,29.5 12.000121,29.5 6.7533684,29.5 2.5,25.246489 2.5,19.999663 c 0,-5.24663 4.2533684,-9.499662 9.500121,-9.499662 5.24627,0 9.499879,4.253032 9.499879,9.499662 l 0,0 z" />
    <path
       style="color:#000000;fill:url(#linearGradient3887-6);fill-opacity:1;fill-rule:nonzero;stroke:none;stroke-width:1;marker:none;visibility:visible;display:inline;overflow:visible;enable-background:accumulate"
       id="path2503"
       d="m 13.623388,14.488603 c 0,0.821708 -0.694421,1.488602 -1.550048,1.488602 -0.855626,0 -1.550049,-0.666894 -1.550049,-1.488602 0,-0.821708 0.694423,-1.488602 1.550049,-1.488602 0.855627,0 1.550048,0.666894 1.550048,1.488602 z m 3.868706,1.582867 c -0.07169,0.01116 -0.139436,0.03831 -0.197496,0.07922 l -5.294759,0.792931 -5.2662433,-0.803868 c -0.136132,-0.09482 -0.327528,-0.123217 -0.479639,-0.05282 -0.152114,0.0704 -0.251834,0.237252 -0.253931,0.396026 -0.00192,0.158798 0.103709,0.295742 0.253931,0.369632 l 4.1266143,1.257184 -0.02822,2.886074 -1.4561163,4.322407 c -0.140242,0.196825 -0.097498,0.449603 0.112858,0.580821 0.210365,0.131238 0.508681,0.09125 0.648937,-0.105595 l 2.3498773,-4.665617 2.30552,4.657554 c 0.124666,0.20415 0.402562,0.275067 0.620718,0.158414 0.218155,-0.116651 0.293947,-0.37669 0.169286,-0.580842 l -1.429086,-4.341003 -0.05642,-2.717043 4.184517,-1.467818 c 0.169071,-0.110945 0.242521,-0.320981 0.169292,-0.501626 -0.07324,-0.180664 -0.274488,-0.285922 -0.479651,-0.264031 l 1.5e-5,0 z" />
    <path
       style="fill:#ffffff;fill-opacity:1;stroke:none"
       id="path6668"
       d="m 13.623388,15.488603 c 0,0.821708 -0.694421,1.488602 -1.550048,1.488602 -0.855626,0 -1.550049,-0.666894 -1.550049,-1.488602 0,-0.821708 0.694423,-1.488602 1.550049,-1.488602 0.855627,0 1.550048,0.666894 1.550048,1.488602 z m 3.868706,1.582867 c -0.07169,0.01116 -0.139436,0.03831 -0.197496,0.07922 l -5.294759,0.792931 -5.2662433,-0.803868 c -0.136132,-0.09482 -0.327528,-0.123217 -0.479639,-0.05282 -0.152114,0.0704 -0.251834,0.237252 -0.253931,0.396026 -0.00192,0.158798 0.103709,0.295742 0.253931,0.369632 l 4.1266143,1.257184 -0.02822,2.886074 -1.4561163,4.322407 c -0.140242,0.196825 -0.097498,0.449603 0.112858,0.580821 0.210365,0.131238 0.508681,0.09125 0.648937,-0.105595 l 2.3498773,-4.665617 2.30552,4.657554 c 0.124666,0.20415 0.402562,0.275067 0.620718,0.158414 0.218155,-0.116651 0.293947,-0.37669 0.169286,-0.580842 l -1.429086,-4.341003 -0.05642,-2.717043 4.184517,-1.467818 c 0.169071,-0.110945 0.242521,-0.320981 0.169292,-0.501626 -0.07324,-0.180664 -0.274488,-0.285922 -0.479651,-0.264031 l 1.5e-5,0 z" />
  </g>
</svg>
