<?xml version="1.0" encoding="UTF-8" standalone="no"?>
<svg
   version="1.1"
   width="24"
   height="24"
   id="svg7107"
   sodipodi:docname="software-properties.svg"
   inkscape:version="1.2.2 (b0a8486541, 2022-12-01)"
   xmlns:inkscape="http://www.inkscape.org/namespaces/inkscape"
   xmlns:sodipodi="http://sodipodi.sourceforge.net/DTD/sodipodi-0.dtd"
   xmlns:xlink="http://www.w3.org/1999/xlink"
   xmlns="http://www.w3.org/2000/svg"
   xmlns:svg="http://www.w3.org/2000/svg"
   xmlns:rdf="http://www.w3.org/1999/02/22-rdf-syntax-ns#"
   xmlns:cc="http://creativecommons.org/ns#"
   xmlns:dc="http://purl.org/dc/elements/1.1/">
  <sodipodi:namedview
     id="namedview53"
     pagecolor="#ffffff"
     bordercolor="#666666"
     borderopacity="1.0"
     inkscape:pageshadow="2"
     inkscape:pageopacity="0.0"
     inkscape:pagecheckerboard="0"
     showgrid="false"
     inkscape:zoom="14.208333"
     inkscape:cx="7.8826981"
     inkscape:cy="17.313783"
     inkscape:window-width="1317"
     inkscape:window-height="893"
     inkscape:window-x="69"
     inkscape:window-y="0"
     inkscape:window-maximized="0"
     inkscape:current-layer="svg7107"
     inkscape:showpageshadow="2"
     inkscape:deskcolor="#d1d1d1" />
  <defs
     id="defs7109">
    <linearGradient
       id="linearGradient2671">
      <stop
         offset="0"
         stop-color="#fff"
         id="stop2663" />
      <stop
         offset="0.21609467"
         stop-color="#fff"
         id="stop2665" />
      <stop
         offset="0.36015779"
         stop-color="#fff"
         stop-opacity=".643"
         id="stop2667" />
      <stop
         offset="1"
         stop-color="#fff"
         stop-opacity=".391"
         id="stop2669" />
    </linearGradient>
    <linearGradient
       xlink:href="#linearGradient121303"
       id="linearGradient121764"
       gradientUnits="userSpaceOnUse"
       gradientTransform="matrix(0.46324744,0,0,0.39332388,0.88842124,4.2372046)"
       x1="25.086039"
       y1="-0.47852933"
       x2="25.086039"
       y2="18.299334" />
    <linearGradient
       id="linearGradient121303">
      <stop
         id="stop121295"
         style="stop-color:#ffffff;stop-opacity:1"
         offset="0" />
      <stop
         id="stop121297"
         style="stop-color:#ffffff;stop-opacity:0.23529412"
         offset="0.08609325" />
      <stop
         id="stop121299"
         style="stop-color:#ffffff;stop-opacity:0.15686275"
         offset="0.93896598" />
      <stop
         id="stop121301"
         style="stop-color:#ffffff;stop-opacity:0.39215687"
         offset="1" />
    </linearGradient>
    <linearGradient
       xlink:href="#linearGradient3924-2-2-5-8"
       id="linearGradient121760"
       gradientUnits="userSpaceOnUse"
       gradientTransform="matrix(0.45945951,0,0,0.37837833,0.97296934,4.4189186)"
       x1="23.99999"
       y1="6.8214302"
       x2="23.99999"
       y2="41.178577" />
    <linearGradient
       id="linearGradient3924-2-2-5-8">
      <stop
         id="stop3926-9-4-9-6"
         style="stop-color:#ffffff;stop-opacity:1"
         offset="0" />
      <stop
         id="stop3928-9-8-6-5"
         style="stop-color:#ffffff;stop-opacity:0.23529412"
         offset="0.07495743" />
      <stop
         id="stop3930-3-5-1-7"
         style="stop-color:#ffffff;stop-opacity:0.15686275"
         offset="0.92307693" />
      <stop
         id="stop3932-8-0-4-8"
         style="stop-color:#ffffff;stop-opacity:0.39215687"
         offset="1" />
    </linearGradient>
    <linearGradient
       xlink:href="#d"
       id="linearGradient121758"
       gradientUnits="userSpaceOnUse"
       gradientTransform="matrix(0.59060316,0,0,0.54106907,-1.884579,-1.44337)"
       x1="23.452"
       y1="30.555"
       x2="43.007"
       y2="45.933998" />
    <linearGradient
       id="d">
      <stop
         offset="0"
         stop-color="#fff"
         stop-opacity="0"
         id="stop65" />
      <stop
         offset="1"
         stop-color="#fff"
         stop-opacity="0"
         id="stop67" />
    </linearGradient>
    <linearGradient
       xlink:href="#linearGradient106305"
       id="linearGradient121756"
       gradientUnits="userSpaceOnUse"
       gradientTransform="matrix(0.59418207,0,0,0.62971369,20.177759,-6.0846012)"
       x1="-5.8870335"
       y1="19.72085"
       x2="-5.8870335"
       y2="43.375748" />
    <linearGradient
       id="linearGradient106305">
      <stop
         offset="0"
         stop-color="#dac197"
         id="stop106301"
         style="stop-color:#e7c591;stop-opacity:1" />
      <stop
         offset="1"
         stop-color="#b19974"
         id="stop106303"
         style="stop-color:#cfa25e;stop-opacity:1" />
    </linearGradient>
    <linearGradient
       xlink:href="#linearGradient106305"
       id="linearGradient1703"
       gradientUnits="userSpaceOnUse"
       gradientTransform="matrix(0.59418207,0,0,0.61617359,20.184777,-6.1580918)"
       x1="-5.8870335"
       y1="11.482978"
       x2="-5.8870335"
       y2="22.148865" />
    <radialGradient
       cx="5"
       cy="41.5"
       fx="5"
       fy="41.5"
       gradientTransform="matrix(1.0028871,0,0,1.6,-26.450086,-100.24811)"
       gradientUnits="userSpaceOnUse"
       xlink:href="#g"
       id="k-0-7-3-9-3"
       r="5" />
    <linearGradient
       id="g">
      <stop
         offset="0"
         id="stop13" />
      <stop
         offset="1"
         stop-opacity="0"
         id="stop15" />
    </linearGradient>
    <linearGradient
       xlink:href="#h"
       id="linearGradient121754"
       gradientUnits="userSpaceOnUse"
       gradientTransform="matrix(2.1304332,0,0,1.45455,-96.001966,-25.061894)"
       x1="17.554001"
       y1="46"
       x2="17.554001"
       y2="35" />
    <linearGradient
       id="h">
      <stop
         offset="0"
         stop-opacity="0"
         id="stop54" />
      <stop
         offset=".5"
         id="stop56" />
      <stop
         offset="1"
         stop-opacity="0"
         id="stop58" />
    </linearGradient>
    <radialGradient
       cx="5"
       cy="41.5"
       fx="5"
       fy="41.5"
       gradientTransform="matrix(1.0028871,0,0,1.6,65.421996,-100.24811)"
       gradientUnits="userSpaceOnUse"
       xlink:href="#g"
       id="i-6-9-7-8-9"
       r="5" />
    <linearGradient
       xlink:href="#linearGradient2671"
       id="linearGradient121762-6"
       gradientUnits="userSpaceOnUse"
       gradientTransform="matrix(0.49693557,0,0,0.57610552,0.079678,-3.6742869)"
       x1="24.537001"
       y1="21.915001"
       x2="24.537001"
       y2="7.9130001" />
    <linearGradient
       inkscape:collect="always"
       xlink:href="#linearGradient914"
       id="linearGradient979"
       x1="5.2689443"
       y1="1.6859524"
       x2="5.2689443"
       y2="15.023678"
       gradientUnits="userSpaceOnUse" />
    <linearGradient
       inkscape:collect="always"
       id="linearGradient914">
      <stop
         style="stop-color:#8cd5ff;stop-opacity:1"
         offset="0"
         id="stop910" />
      <stop
         style="stop-color:#3689e6;stop-opacity:1"
         offset="1"
         id="stop912" />
    </linearGradient>
    <linearGradient
       y2="5.4675598"
       x2="63.397362"
       y1="-12.489107"
       x1="63.397362"
       gradientTransform="matrix(0.7432394,0,0,0.7432224,-38.229789,10.609333)"
       gradientUnits="userSpaceOnUse"
       id="linearGradient3029"
       xlink:href="#linearGradient4873" />
    <linearGradient
       id="linearGradient4873">
      <stop
         id="stop4875"
         style="stop-color:#ffffff;stop-opacity:1"
         offset="0" />
      <stop
         id="stop4877"
         style="stop-color:#ffffff;stop-opacity:0"
         offset="1" />
    </linearGradient>
  </defs>
  <metadata
     id="metadata7112">
    <rdf:RDF>
      <cc:Work
         rdf:about="">
        <dc:format>image/svg+xml</dc:format>
        <dc:type
           rdf:resource="http://purl.org/dc/dcmitype/StillImage" />
      </cc:Work>
    </rdf:RDF>
  </metadata>
  <g
     id="g2756"
     transform="matrix(0.37288137,0,0,0.40625,29.129042,6.4992068)"
     style="stroke-width:2.56931">
    <rect
       fill="url(#i)"
       height="16"
       opacity="0.4"
       transform="scale(-1)"
       width="5"
       x="70.436974"
       y="-41.848106"
       id="rect77-9-90-2-7-8"
       style="fill:url(#i-6-9-7-8-9);stroke-width:2.56931" />
    <rect
       fill="url(#j)"
       height="16"
       opacity="0.4"
       width="49"
       x="-70.436974"
       y="25.848106"
       id="rect79-7-2-0-1-4"
       style="fill:url(#linearGradient121754);stroke-width:2.56931" />
    <rect
       fill="url(#k)"
       height="16"
       opacity="0.4"
       transform="scale(1,-1)"
       width="5"
       x="-21.436975"
       y="-41.848106"
       id="rect81-3-8-6-7-8"
       style="fill:url(#k-0-7-3-9-3);stroke-width:2.56931" />
  </g>
  <path
     id="rect5505-21-1-5-0-6-5-1-2-5-10"
     style="color:#000000;font-variation-settings:normal;display:inline;overflow:visible;visibility:visible;vector-effect:none;fill:url(#linearGradient1703);fill-opacity:1;fill-rule:nonzero;stroke:none;stroke-width:1;stroke-linecap:butt;stroke-linejoin:miter;stroke-miterlimit:4;stroke-dasharray:none;stroke-dashoffset:0;stroke-opacity:0.3;-inkscape-stroke:none;marker:none;enable-background:accumulate;stop-color:#000000"
     d="m 5.954546,2.499999 c -1.148292,0 -1.606365,0.6541642 -2.072729,1.6666673 C 3.524347,4.9407062 3.108431,5.7415735 2.777983,6.4999992 2.602235,6.7940451 2.499999,7.1348294 2.499999,7.499999 h 19.000008 c 0,-0.3651696 -0.102238,-0.7059539 -0.277985,-0.9999998 C 20.882617,5.7454148 20.485651,4.936366 20.118188,4.1666663 19.637695,3.1603309 19.193751,2.499999 18.04546,2.499999 Z" />
  <path
     id="rect5505-21-1-5-0-6-5-1-2-3"
     style="color:#000000;font-variation-settings:normal;display:inline;overflow:visible;visibility:visible;vector-effect:none;fill:url(#linearGradient121756);fill-opacity:1;fill-rule:nonzero;stroke:none;stroke-width:0.999994;stroke-linecap:butt;stroke-linejoin:miter;stroke-miterlimit:4;stroke-dasharray:none;stroke-dashoffset:0;stroke-opacity:0.3;-inkscape-stroke:none;marker:none;enable-background:accumulate;stop-color:#000000"
     d="M 4.572728,6 C 3.709091,6 2.5,6.7423074 2.5,8.5549362 V 19.455998 c 0,0.08585 0.0071,0.169901 0.01755,0.252833 0.0024,0.01923 0.0058,0.03815 0.0088,0.05722 0.01043,0.06698 0.02363,0.132987 0.04048,0.197609 0.0043,0.01667 0.0081,0.0334 0.01282,0.0499 0.04732,0.163983 0.11389,0.319965 0.198367,0.464412 2.48e-4,4.44e-4 3.45e-4,8.86e-4 6.91e-4,0.0014 C 3.13637,21.089938 3.80345,21.5 4.572754,21.5 h 14.854552 c 0.769303,0 1.436383,-0.410062 1.79407,-1.020643 1.94e-4,-4.44e-4 3.46e-4,-8.87e-4 6.91e-4,-0.0014 0.08448,-0.144448 0.15105,-0.30043 0.198367,-0.464413 0.0047,-0.01651 0.0085,-0.03322 0.01281,-0.0499 0.01686,-0.06462 0.03006,-0.130628 0.04048,-0.197609 0.0028,-0.01906 0.0064,-0.03798 0.0088,-0.05722 0.01046,-0.08293 0.01752,-0.166987 0.01752,-0.252835 V 8.7252651 C 21.500044,7.4492734 20.981862,6 19.427316,6 Z" />
  <path
     d="m 5.493643,5.381094 h 12.736915 c 0.743763,0 1.20391,0.256328 1.515509,0.961056 l 1.072637,2.9570964 V 19.959646 c 0,0.672601 -0.377237,1.011492 -1.120655,1.011492 H 4.160188 c -0.743419,0 -1.046728,-0.372746 -1.046728,-1.045347 V 9.2985555 L 4.151551,6.278241 C 4.358824,5.732422 4.750225,5.380749 5.493643,5.380749 Z"
     display="block"
     fill="none"
     opacity="0.505"
     overflow="visible"
     stroke="url(#m)"
     stroke-width="0.742"
     style="stroke:url(#linearGradient121758);marker:none"
     id="path85-1-8-5-7-0" />
  <rect
     style="opacity:0.3;fill:none;stroke:url(#linearGradient121760);stroke-width:1;stroke-linecap:round;stroke-linejoin:round;stroke-miterlimit:4;stroke-dasharray:none;stroke-dashoffset:0;stroke-opacity:1"
     id="rect6741-5-0-2-3-4-2-4"
     y="6.4999986"
     x="3.4999986"
     ry="1"
     height="14"
     width="17"
     rx="1" />
  <path
     id="rect5505-21-1-5-0-6-5-1-2-5-1-4"
     style="color:#000000;font-variation-settings:normal;display:inline;overflow:visible;visibility:visible;vector-effect:none;fill:none;fill-opacity:1;fill-rule:nonzero;stroke:#804b00;stroke-width:0.999997;stroke-linecap:butt;stroke-linejoin:miter;stroke-miterlimit:4;stroke-dasharray:none;stroke-dashoffset:0;stroke-opacity:0.5;-inkscape-stroke:none;marker:none;enable-background:accumulate;stop-color:#000000"
     d="m 5.954546,2.499999 c -1.148292,0 -1.606365,0.677953 -2.072729,1.727276 C 3.524347,5.029463 3.108431,5.859454 2.777983,6.64546 2.602235,6.950199 2.499999,7.303376 2.499999,7.681825 v 11.745474 c 0,1.148293 0.924436,2.072731 2.072728,2.072731 h 14.854552 c 1.14829,0 2.072728,-0.924438 2.072728,-2.072731 V 7.681825 c 0,-0.378449 -0.102238,-0.731626 -0.277985,-1.036365 C 20.882617,5.863435 20.485651,5.024965 20.118188,4.227275 19.637695,3.184344 19.193751,2.499999 18.04546,2.499999 Z" />
  <path
     id="rect5505-21-1-5-0-6-5-1-2-5-1-7-7"
     style="color:#000000;font-variation-settings:normal;display:inline;overflow:visible;visibility:visible;opacity:0.15;vector-effect:none;fill:none;fill-opacity:1;fill-rule:nonzero;stroke:url(#linearGradient121764);stroke-width:0.999994;stroke-linecap:round;stroke-linejoin:round;stroke-miterlimit:4;stroke-dasharray:none;stroke-dashoffset:0;stroke-opacity:1;-inkscape-stroke:none;marker:none;enable-background:accumulate;stop-color:#000000"
     d="M 20.132782,6.733994 19.297362,4.9230806 C 19.077192,4.4451762 18.921714,3.9706724 18.683129,3.7420464 18.444541,3.5134196 18.130819,3.4999985 17.65953,3.4999985 H 6.3405586 c -0.4719103,0 -0.7829126,0.010941 -1.0223184,0.2384658 C 5.0788345,3.9659912 4.9172751,4.4401584 4.7046143,4.918661 v 6.458e-4 L 3.8605301,6.733994" />
  <path
     d="m 11.177906,2.0000005 h 1.656452 L 12.987745,6 l 0.01226,3.0000005 c -0.195461,0 -0.391254,-0.4440268 -0.587047,-0.4440268 -0.200099,0 -0.40053,0.4440268 -0.60096,0.4440268 -0.161007,0 -0.322346,-0.3888417 -0.483684,-0.3888417 -0.105351,0 -0.210701,0.3888417 -0.316051,0.3888417 L 11.000003,6 Z"
     fill="url(#n)"
     opacity="0.3"
     overflow="visible"
     style="fill:url(#linearGradient121762-6);stroke-width:0.999997;marker:none"
     id="path87-0-9-7-6-4" />
  <g
     id="layer1-3"
     transform="translate(8,8)">
    <path
       d="M 15.5,7.999735 C 15.5,12.142003 12.141888,15.5 8.000094,15.5 3.857922,15.5 0.5,12.141965 0.5,7.999735 0.5,3.8576552 3.857922,0.4999997 8.000094,0.4999997 12.141888,0.4999997 15.5,3.8576552 15.5,7.999735 Z"
       id="path6495"
       style="fill:url(#linearGradient979);fill-opacity:1;fill-rule:nonzero;stroke:#002e99;stroke-width:1;stroke-miterlimit:4;stroke-dasharray:none;stroke-opacity:0.501961" />
    <path
       d="M 8.1022062,0.95621712 7.236144,1.0568701 6.2834735,1.3210847 C 6.3646244,1.2921995 6.446834,1.2606694 6.5309208,1.2330132 L 6.4195696,1.0317069 6.048401,1.0946151 5.8628152,1.2707582 5.5782512,1.3085031 5.318433,1.4343196 5.1947098,1.4972277 5.157592,1.5475543 4.9720082,1.5852992 4.8606579,1.8243504 4.712189,1.522391 4.662699,1.6482076 4.687446,1.9879118 4.4523726,2.1892181 4.3162764,2.5540857 H 4.6008405 L 4.7121908,2.3150345 4.7493088,2.2269635 C 4.8744282,2.136984 4.9930427,2.0367771 5.1204782,1.9501669 L 5.4174142,2.05082 C 5.6107409,2.1843878 5.8054259,2.3200676 5.9989133,2.4534326 L 6.2834735,2.1892181 5.9617936,2.05082 5.8133266,1.7488605 5.2689442,1.6859524 5.2565714,1.6230443 5.4916438,1.6733709 5.6277409,1.5349726 5.9246759,1.4720643 C 5.9949454,1.4373108 6.06407,1.4122795 6.1350055,1.3839929 L 5.9494207,1.560136 6.6175262,2.0256568 V 2.302453 L 6.357707,2.5666673 6.7041325,3.2712399 6.9392071,3.1328408 7.2361431,2.6673207 C 7.6536127,2.5360677 8.0298636,2.383337 8.423888,2.2017997 L 8.3991411,2.3779426 8.5970969,2.5163408 8.9435226,2.2772895 8.7703107,2.0759833 8.5352353,2.2143814 8.4610018,2.1892185 c 0.017052,-0.00792 0.032364,-0.017109 0.04949,-0.025163 L 8.8569181,1.2581766 Z M 4.712189,2.3150345 4.9967521,2.5163408 H 5.2318265 V 2.2772895 L 4.9472634,2.1514733 Z m 6.569706,-0.1635612 -0.507267,0.1258162 -0.321677,0.2138881 v 0.1887243 l -0.5072681,0.3271224 0.098978,0.4906852 0.296936,-0.2138887 0.185586,0.2138887 0.210331,0.1258164 0.136094,-0.3648684 -0.07423,-0.2138876 0.07423,-0.1509803 0.296936,-0.2767955 h 0.136096 l -0.136096,0.3019602 v 0.2767953 c 0.122388,-0.033878 0.245923,-0.047072 0.371169,-0.062909 L 11.195288,3.3844744 11.170548,3.5354535 10.774633,3.8751586 10.366346,3.7745047 V 3.5354535 l -0.185585,0.1258166 0.08661,0.2138885 H 9.970433 l -0.1608399,0.276796 -0.1979568,0.2264696 -0.3587976,0.075489 0.2103296,0.213888 0.049489,0.2138881 H 9.252839 L 8.9064134,5.0704136 v 0.5535916 h 0.160839 L 9.2157214,5.7875669 9.5497754,5.6240052 9.6734977,5.2843006 9.920944,5.1333211 9.970434,5.007505 l 0.395915,-0.1006531 0.222701,0.2516328 0.235075,0.1258159 -0.136096,0.2767966 0.21033,-0.062908 0.11135,-0.2767966 -0.272189,-0.3145408 h 0.11135 l 0.272192,0.2264692 0.04949,0.3019603 0.235072,0.276796 0.06186,-0.4026124 0.123723,-0.062909 c 0.131695,0.1390299 0.235504,0.3090531 0.346424,0.4655215 l 0.408287,0.025165 0.235074,0.1509801 -0.11135,0.1635607 -0.235073,0.2138886 H 11.88814 L 11.430361,6.1146942 11.195287,6.1398593 11.022074,6.3411657 10.527181,5.8378996 10.180756,5.7372462 9.6734907,5.8001547 9.2280866,5.9259711 C 8.974001,6.2188978 8.7138634,6.5150518 8.4733747,6.8192683 L 8.1888107,7.5238405 8.3249076,7.6748196 8.0774604,8.0396877 8.3496515,8.6813514 C 8.5761437,8.9418962 8.8039678,9.2006825 9.030129,9.461412 L 9.3641827,9.1720348 9.5002778,9.3481795 9.8590764,9.1091277 9.9827973,9.2475248 h 0.3587977 l 0.210332,0.2390509 -0.123724,0.4277763 0.247446,0.289379 -0.01237,0.503264 0.185586,0.364869 -0.136095,0.314541 c -0.01327,0.225592 -0.02475,0.4412 -0.02475,0.666826 0.10916,0.305671 0.218601,0.610592 0.32168,0.918462 l 0.07423,0.490682 v 0.251634 h 0.197957 l 0.284562,-0.188726 h 0.346427 l 0.519637,-0.591336 -0.06186,-0.201308 0.346427,-0.314538 -0.259821,-0.289379 0.309308,-0.251633 0.296936,-0.188725 0.136096,-0.15098 -0.08661,-0.339704 c 0,-0.285996 10e-7,-0.569519 0,-0.855553 L 13.348063,9.8136993 13.645,9.4865757 13.966679,8.6813514 V 8.467463 C 13.806601,8.487969 13.653165,8.506459 13.496531,8.51779 L 13.818212,8.1906673 14.263615,7.8887073 14.49869,7.611912 V 7.3099529 C 14.445379,7.2077028 14.391536,7.0976601 14.337854,6.9954116 L 14.127525,7.2470431 13.966685,7.0583197 13.731609,6.8695964 V 6.4795648 l 0.272193,0.3145399 0.309309,-0.037745 c 0.139537,0.1288198 0.273525,0.2433636 0.395913,0.3900326 l 0.197962,-0.2264767 c 0,-0.2438137 -0.270036,-1.4474482 -0.85369,-2.466002 C 13.46964,3.4356954 12.444894,2.5037591 12.444895,2.5037591 L 12.370665,2.6421572 12.098473,2.9441167 11.752047,2.579249 h 0.346426 L 12.259308,2.4031061 11.615949,2.2772895 Z M 3.8461259,2.3150345 3.7224027,2.6421572 c 0,0 -0.2166086,0.036366 -0.2721911,0.050327 C 2.7403769,3.3576613 1.3089548,4.8004591 0.97574709,7.5112538 0.98894063,7.5741032 1.2108206,7.9390292 1.2108206,7.9390292 l 0.5443833,0.3271217 0.5443813,0.1509801 0.2350744,0.2893781 0.3587977,0.2767963 0.2103295,-0.037745 0.148469,0.07549 v 0.050326 l -0.1979586,0.5661735 -0.1608399,0.2390518 0.049489,0.113235 -0.1237222,0.4529393 0.4577758,0.855551 0.470148,0.415195 0.2103284,0.30196 -0.024746,0.629081 0.1484679,0.352287 -0.1484679,0.67941 c 0,0 -0.019811,-0.0056 0,0.06291 0.019988,0.06853 0.8270507,0.529522 0.8784351,0.490683 0.051209,-0.03956 0.098979,-0.07549 0.098979,-0.07549 l -0.049489,-0.150981 0.2103287,-0.201305 0.074234,-0.213887 0.3340518,-0.113235 0.2598192,-0.654247 -0.074233,-0.176143 0.1732127,-0.276796 0.3959144,-0.08807 0.1979577,-0.478102 -0.049491,-0.591338 0.3093088,-0.440357 0.049489,-0.452939 C 6.3168632,10.102948 5.9004921,9.8830534 5.4792709,9.6627135 L 5.2689423,9.2475198 4.8853999,9.1594491 4.6750703,8.5932746 4.1678047,8.6561827 3.7224017,8.32906 3.2522529,8.7442535 v 0.062909 C 3.1114329,8.7658292 2.9446126,8.7597462 2.8192238,8.6813464 L 2.7202458,8.3793874 V 8.0522637 L 2.3985659,8.0900087 C 2.4244529,7.881639 2.4591059,7.6692602 2.4851709,7.4609269 H 2.2995851 L 2.1140004,7.6999787 1.9407886,7.7880507 1.6809693,7.6370698 1.6562243,7.3099462 1.7057143,6.9576612 2.0892557,6.6557011 H 2.3985645 L 2.4604275,6.4795588 2.843969,6.5676298 3.1285316,6.932497 3.1780203,6.3285781 3.672914,5.9133853 3.8461259,5.4730269 4.2172963,5.3220476 4.415253,5.0200879 4.8854018,4.9320161 5.1204763,4.57973 c -0.2326763,0 -0.472546,0 -0.7052233,0 L 4.8606579,4.3658421 h 0.309307 L 5.5658793,4.2274443 5.6401139,4.6174752 5.8133266,4.3406788 5.615369,4.2022808 5.6648596,4.0387201 5.5040187,3.8877395 5.3308048,3.8374132 5.3802955,3.6486888 5.2441994,3.3844746 4.9348905,3.5102908 4.9843801,3.2712399 4.6255827,3.0573516 4.3410204,3.5606172 4.3657663,3.7367603 4.0812032,3.8625768 3.9079904,4.2526078 3.821384,3.8877395 3.3388631,3.6864335 3.2522568,3.4096375 3.9079904,3.0321885 4.1925535,2.755392 4.2173002,2.4282694 4.0564593,2.3401977 3.8461298,2.315035 Z M 9.1538541,2.9189543 V 3.1202592 L 9.2652062,3.246076 V 3.5480356 L 9.2033438,3.9506479 9.5250246,3.8877395 9.760098,3.6486888 9.5497694,3.4473819 C 9.4815603,3.2626763 9.4124355,3.0961113 9.3270669,2.9189543 Z M 8.881662,3.3215656 8.6837063,3.3844746 8.7331959,3.7493421 8.9930152,3.6109428 Z m 3.625092,3.308973 0.296937,0.3522842 0.358798,0.7800638 0.2227,0.2516317 -0.11135,0.2642164 0.197958,0.2390499 c -0.09084,0.00611 -0.17882,0.012584 -0.272192,0.012584 -0.169621,-0.362459 -0.303864,-0.7279946 -0.43303,-1.1071857 l -0.222704,-0.2516326 -0.123722,-0.4529392 0.08661,-0.088071 v -1.3e-6 z"
       id="path6534"
       style="opacity:0.6;fill:#0e141f;fill-opacity:1;fill-rule:nonzero;stroke:none" />
    <path
       d="M 14.500001,7.9997709 C 14.500001,11.589737 11.589636,14.5 8.0000818,14.5 4.4101984,14.5 1.5000001,11.589705 1.5000001,7.9997709 c 0,-3.5898006 2.9101983,-6.4997695 6.5000817,-6.4997695 3.5895542,0 6.4999192,2.9099689 6.4999192,6.4997695 z"
       id="path2451"
       style="opacity:0.4;fill:none;stroke:url(#linearGradient3029);stroke-width:1;stroke-miterlimit:4;stroke-dasharray:none;stroke-opacity:1" />
  </g>
</svg>
