<?xml version="1.0" encoding="UTF-8" standalone="no"?>
<svg
   version="1.0"
   width="24"
   height="24"
   id="svg3328"
   sodipodi:docname="stock_keyring.svg"
   inkscape:version="1.2.2 (b0a8486541, 2022-12-01)"
   xmlns:inkscape="http://www.inkscape.org/namespaces/inkscape"
   xmlns:sodipodi="http://sodipodi.sourceforge.net/DTD/sodipodi-0.dtd"
   xmlns:xlink="http://www.w3.org/1999/xlink"
   xmlns="http://www.w3.org/2000/svg"
   xmlns:svg="http://www.w3.org/2000/svg"
   xmlns:rdf="http://www.w3.org/1999/02/22-rdf-syntax-ns#"
   xmlns:cc="http://creativecommons.org/ns#"
   xmlns:dc="http://purl.org/dc/elements/1.1/">
  <sodipodi:namedview
     id="namedview14889"
     pagecolor="#ffffff"
     bordercolor="#000000"
     borderopacity="0.25"
     inkscape:showpageshadow="2"
     inkscape:pageopacity="0.0"
     inkscape:pagecheckerboard="0"
     inkscape:deskcolor="#d1d1d1"
     showgrid="false"
     inkscape:zoom="16"
     inkscape:cx="14.6875"
     inkscape:cy="15.5625"
     inkscape:window-width="1412"
     inkscape:window-height="801"
     inkscape:window-x="360"
     inkscape:window-y="249"
     inkscape:window-maximized="0"
     inkscape:current-layer="svg3328" />
  <metadata
     id="metadata78175">
    <rdf:RDF>
      <cc:Work
         rdf:about="">
        <dc:format>image/svg+xml</dc:format>
        <dc:type
           rdf:resource="http://purl.org/dc/dcmitype/StillImage" />
      </cc:Work>
    </rdf:RDF>
  </metadata>
  <defs
     id="defs3330">
    <linearGradient
       inkscape:collect="always"
       id="linearGradient19415">
      <stop
         style="stop-color:#fafafa;stop-opacity:1;"
         offset="0"
         id="stop19411" />
      <stop
         style="stop-color:#fafafa;stop-opacity:0;"
         offset="1"
         id="stop19413" />
    </linearGradient>
    <linearGradient
       id="linearGradient13498">
      <stop
         id="stop13494"
         style="stop-color:#e5e5e5;stop-opacity:1;"
         offset="0" />
      <stop
         id="stop13496"
         style="stop-color:#dcdcdc;stop-opacity:1;"
         offset="1" />
    </linearGradient>
    <linearGradient
       inkscape:collect="always"
       id="linearGradient10813">
      <stop
         style="stop-color:#000000;stop-opacity:0.44;"
         offset="0"
         id="stop10809" />
      <stop
         style="stop-color:#000000;stop-opacity:0.30000001;"
         offset="1"
         id="stop10811" />
    </linearGradient>
    <linearGradient
       id="linearGradient7604">
      <stop
         id="stop7606"
         style="stop-color:#000000;stop-opacity:1"
         offset="0" />
      <stop
         id="stop7608"
         style="stop-color:#000000;stop-opacity:0"
         offset="1" />
    </linearGradient>
    <radialGradient
       cx="20"
       cy="46"
       r="8"
       fx="20"
       fy="46"
       id="radialGradient7610"
       xlink:href="#linearGradient7604"
       gradientUnits="userSpaceOnUse"
       gradientTransform="matrix(0.71874997,0,0,0.24996464,-2.3749995,10.501989)" />
    <linearGradient
       id="linearGradient7557">
      <stop
         id="stop7559"
         style="stop-color:#eeeeec;stop-opacity:1"
         offset="0" />
      <stop
         id="stop7561"
         style="stop-color:#eeeeec;stop-opacity:1"
         offset="1" />
    </linearGradient>
    <radialGradient
       cx="17.812502"
       cy="14.729167"
       r="9.500001"
       fx="17.812502"
       fy="14.729167"
       id="radialGradient6179"
       xlink:href="#linearGradient7557"
       gradientUnits="userSpaceOnUse"
       gradientTransform="matrix(0.52145452,-0.18278247,0.10654338,0.33007056,-3.2272184,4.0475006)" />
    <linearGradient
       x1="33.120464"
       y1="20.5"
       x2="22.328388"
       y2="20.5"
       id="linearGradient7433"
       xlink:href="#linearGradient4542"
       gradientUnits="userSpaceOnUse"
       gradientTransform="matrix(0.00451697,0.31197607,-0.91582797,-0.00284212,30.111376,5.9055886)" />
    <linearGradient
       x1="15.406166"
       y1="37.34367"
       x2="16.864777"
       y2="24.249567"
       id="linearGradient7431"
       xlink:href="#linearGradient2816"
       gradientUnits="userSpaceOnUse"
       gradientTransform="matrix(0.00384528,0.57128373,-0.56906785,-0.00379905,30.898501,0.86623847)" />
    <linearGradient
       x1="11.161089"
       y1="17.254425"
       x2="18.391479"
       y2="44.238609"
       id="linearGradient3326"
       xlink:href="#linearGradient3312"
       gradientUnits="userSpaceOnUse"
       gradientTransform="matrix(0.74251101,0.00499398,0.00503546,0.753695,0.93509585,-9.4748618)" />
    <linearGradient
       id="linearGradient6826">
      <stop
         id="stop6828"
         style="stop-color:#babdb6;stop-opacity:1"
         offset="0" />
      <stop
         id="stop6830"
         style="stop-color:#eeeeec;stop-opacity:1"
         offset="1" />
    </linearGradient>
    <linearGradient
       x1="18.881708"
       y1="37.384682"
       x2="34.058681"
       y2="37.487236"
       id="linearGradient7425"
       xlink:href="#linearGradient6826"
       gradientUnits="userSpaceOnUse"
       gradientTransform="matrix(0.00340872,0.50642544,-0.50446114,-0.00336774,28.643467,1.7801963)" />
    <linearGradient
       id="linearGradient3312">
      <stop
         id="stop3314"
         style="stop-color:#ffffff;stop-opacity:1"
         offset="0" />
      <stop
         id="stop3316"
         style="stop-color:#ffffff;stop-opacity:0"
         offset="1" />
    </linearGradient>
    <linearGradient
       id="linearGradient2816">
      <stop
         id="stop2818"
         style="stop-color:#ffffff;stop-opacity:1"
         offset="0" />
      <stop
         id="stop2820"
         style="stop-color:#ffffff;stop-opacity:0"
         offset="1" />
    </linearGradient>
    <linearGradient
       id="linearGradient4542">
      <stop
         id="stop4544"
         style="stop-color:#888a85;stop-opacity:1"
         offset="0" />
      <stop
         id="stop4546"
         style="stop-color:#888a85;stop-opacity:0"
         offset="1" />
    </linearGradient>
    <linearGradient
       inkscape:collect="always"
       xlink:href="#linearGradient13498"
       id="linearGradient5257"
       gradientUnits="userSpaceOnUse"
       gradientTransform="matrix(0.31198844,0.30777485,-0.31076132,0.30659806,19.423442,-8.2424571)"
       x1="10.936142"
       y1="34.081249"
       x2="25.975197"
       y2="36.901684" />
    <linearGradient
       inkscape:collect="always"
       xlink:href="#linearGradient4542"
       id="linearGradient20247"
       gradientUnits="userSpaceOnUse"
       gradientTransform="matrix(0.25055128,0.18593957,-0.55862892,0.72572907,21.705777,-9.8289461)"
       x1="33.120464"
       y1="20.5"
       x2="13.252909"
       y2="20.367456" />
    <linearGradient
       inkscape:collect="always"
       xlink:href="#linearGradient10813"
       id="linearGradient52283"
       gradientUnits="userSpaceOnUse"
       gradientTransform="matrix(1.1925238,0,0,1.2082338,-2.0900724,-2.0282939)"
       x1="13.357662"
       y1="7.2274294"
       x2="11.600693"
       y2="5.9378109" />
    <linearGradient
       inkscape:collect="always"
       xlink:href="#linearGradient10813"
       id="linearGradient10815-3"
       x1="25.671684"
       y1="11.801095"
       x2="4.590632"
       y2="2.0803702"
       gradientUnits="userSpaceOnUse"
       gradientTransform="translate(2e-7,-1.0094854)" />
    <linearGradient
       inkscape:collect="always"
       xlink:href="#linearGradient19415"
       id="linearGradient19417"
       x1="12.888231"
       y1="11.096961"
       x2="10.459456"
       y2="1.7699802"
       gradientUnits="userSpaceOnUse" />
  </defs>
  <path
     d="m 17.75,22.000363 a 5.7500002,1.9997173 0 1 1 -11.5,0 5.7500003,1.9997173 0 1 1 11.5,0 z"
     id="path7602"
     style="display:inline;overflow:visible;visibility:visible;opacity:0.162896;fill:url(#radialGradient7610);fill-opacity:1;fill-rule:evenodd;stroke:none;stroke-width:1.47903;stroke-linecap:round;stroke-linejoin:miter;stroke-miterlimit:4;stroke-dasharray:none;stroke-dashoffset:0.677417;stroke-opacity:1;marker:none;marker-start:none;marker-mid:none;marker-end:none;enable-background:accumulate" />
  <path
     d="M 10.457901,5.3619554 C 10.143233,5.5439586 9.6785234,5.6755255 9.1191704,5.7558568 7.7918159,5.9464806 5.931493,5.8485772 4.2784138,5.4514289 1.9287168,4.8869196 0.88312666,3.9305309 1.9445069,3.3166323"
     id="use6159"
     style="fill:none;fill-opacity:1;fill-rule:evenodd;stroke:#000000;stroke-width:3;stroke-linecap:round;stroke-linejoin:miter;stroke-miterlimit:4;stroke-dashoffset:0.7;stroke-opacity:0.29"
     sodipodi:nodetypes="cssc" />
  <path
     d="M 8.4277592,2.3523591 C 11.171995,3.1301468 12.414214,4.3526627 11.20057,5.0811892 9.9869261,5.8097155 6.7747345,5.7697351 4.0304991,4.9919476 1.2862636,4.2141599 0.04404421,2.9916444 1.2576876,2.2631181 2.4713316,1.5345915 5.6835232,1.5745714 8.4277592,2.3523591 Z"
     id="use6161"
     style="fill:none;fill-opacity:1;fill-rule:evenodd;stroke:url(#radialGradient6179);stroke-width:0.999998;stroke-linecap:round;stroke-linejoin:miter;stroke-miterlimit:4;stroke-dashoffset:0.7;stroke-opacity:1" />
  <path
     d="m 10.995954,3.0109012 c 3.038582,0.020344 5.281789,2.2786782 5.301549,5.2139208 0.01665,2.472897 -1.506386,4.164333 -3.297502,4.83069 l -2e-6,7.120309 -0.624892,1.829702 -1.459339,-0.01248 L 9,19.602922 v -0.494038 l 1.759799,-1.62084 -1.75999,-1.750564 2e-6,-1.548771 -4.2e-5,-1.085896 C 6.7154049,12.117671 6.0364885,10.320529 6.0222291,8.2020445 6.0023065,5.2422061 7.9705234,2.9906191 10.995898,3.0108883 l -5.7e-5,-1.3e-5 m -0.05983,1.4204766 c 0.823689,0.0055 1.496721,0.6834979 1.502307,1.5133906 0.0056,0.8298959 -0.658379,1.4989686 -1.482067,1.4934694 -0.823689,-0.0055 -1.496722,-0.6834986 -1.502309,-1.5133912 -0.0056,-0.829894 0.65838,-1.498968 1.482069,-1.4934688 z"
     id="path7415"
     style="fill:url(#linearGradient7425);fill-opacity:1;fill-rule:evenodd;stroke:none;stroke-width:1;stroke-linecap:round;stroke-linejoin:miter;stroke-miterlimit:4;stroke-dasharray:none;stroke-opacity:0.3"
     sodipodi:nodetypes="csccccccccccsccsssss" />
  <path
     d="m 10.970852,3.0456305 c -0.184054,0.00246 -0.392481,0.026362 -0.578277,0.049128 C 9.60839,3.1909625 8.9005493,3.5447455 8.2675083,3.9451867 8.4172763,4.484479 8.6315156,4.9296081 8.8817169,5.3272063 8.9801949,4.2091165 9.913539,3.2770486 11.05136,3.2846459 c 1.208673,0.00807 2.290088,1.0659216 2.298284,2.2837034 0.0082,1.2177819 -1.060001,2.1929638 -2.268673,2.1848966 -0.06496,-4.347e-4 -0.12382,-0.018814 -0.18429,-0.027726 0.898816,1.0831134 1.819025,2.5080641 2.055247,5.1802471 1.902182,-0.758126 3.244683,-2.459073 3.229454,-4.7216624 C 16.094538,5.9772233 15.031136,4.243331 12.956129,3.3700133 12.382399,3.1751164 11.532691,3.0381385 10.970852,3.0456272 Z M 13,14.333087 C 12.779572,16.524063 12.038248,17.659648 11.254519,21 h 1.43413 L 13,20 Z"
     id="path7421"
     style="opacity:0.6;fill:url(#linearGradient7431);fill-opacity:1;fill-rule:evenodd;stroke:none;stroke-width:1;stroke-linecap:round;stroke-linejoin:miter;stroke-miterlimit:4;stroke-dasharray:none;stroke-opacity:1"
     sodipodi:nodetypes="ccccsssccccccccccc" />
  <path
     d="m 6.5440329,8.3196588 c 0.012707,1.9018732 1.00229,3.5059802 2.5823231,4.2753472 0.196663,0.09789 0.369008,0.29919 0.373646,0.52035 l -3e-6,2.663848 c 0.71452,1.108263 2.093152,1.760007 2.093152,1.760007 L 9.5,19.318458 l 1.405728,2.176375 1.322598,0.0089 L 12.5,18.339747 v -5.380201 c 0.0018,-0.221121 0.41083,-0.420731 0.606202,-0.515981 1.547332,-0.750369 2.671608,-2.22414 2.659016,-4.1088933 C 15.747548,5.6902519 13.605781,3.6877271 11.002675,3.6702154 8.399568,3.6527037 6.5264908,5.6939774 6.5440329,8.3196588 Z M 10.932196,3.9463115 c 1.131742,0.00761 2.07144,0.9613159 2.079114,2.1101028 0.0077,1.1487895 -0.91936,2.0899367 -2.051104,2.0823249 C 9.828463,8.1311274 8.8887661,7.1774246 8.88109,6.0286344 8.8734164,4.8798481 9.800455,3.9387003 10.932194,3.9463115 Z"
     id="path7419"
     style="opacity:0.4;fill:none;fill-opacity:1;fill-rule:evenodd;stroke:url(#linearGradient3326);stroke-width:1;stroke-linecap:round;stroke-linejoin:miter;stroke-miterlimit:4;stroke-dasharray:none;stroke-opacity:1"
     sodipodi:nodetypes="sccccccccccscsssssss" />
  <path
     id="rect6351"
     style="opacity:0.615385;fill:url(#linearGradient7433);fill-rule:evenodd;stroke-width:0.999993;stroke-linecap:round"
     d="m 12,13.001395 10e-7,7.999999 L 11,20.998605 v -7.999999 z"
     sodipodi:nodetypes="ccccc" />
  <path
     d="M 2.4224614,3.8584623 C 1.3438394,3.0395992 2.396858,2.2893926 4.7729501,2.1838948 7.1490422,2.0783962 9.9528682,2.6573599 11.031491,3.476223 c 0.535228,0.406332 0.578782,0.7720584 0.130745,1.0978779"
     id="use6163"
     style="fill:none;fill-opacity:1;fill-rule:evenodd;stroke:#000000;stroke-width:4;stroke-linecap:round;stroke-linejoin:miter;stroke-miterlimit:4;stroke-dasharray:none;stroke-dashoffset:0.7;stroke-opacity:0.3" />
  <path
     d="M 10.999949,2.5052572 C 7.7262778,2.4833392 5.4918462,4.9590502 5.513967,8.2454701 5.529933,10.617413 6.492517,12.434757 8.4999552,13.404994 l -1.1e-6,1.508786 -5e-7,1.015226 1.5441844,1.546285 -1.5441836,1.459388 9.2e-5,0.841652 2.1682896,2.715982 2.088395,0.01394 0.742804,-2.275636 5e-6,-6.846182 c 1.97534,-0.950826 3.325114,-2.755621 3.309242,-5.1134953 -0.02212,-3.2864193 -2.535066,-5.7437675 -5.808737,-5.7656848 z m -0.06699,1.4837756 c 0.922235,0.00616 1.675792,0.7652736 1.682045,1.694457 0.0063,0.9291848 -0.73715,1.6783085 -1.659384,1.6721501 -0.922233,-0.00616 -1.67579,-0.765273 -1.682045,-1.6944565 -0.0063,-0.9291841 0.737153,-1.6783077 1.659388,-1.6721506 z"
     id="path3491"
     style="fill:none;fill-opacity:1;fill-rule:evenodd;stroke:#000000;stroke-width:1;stroke-linecap:round;stroke-linejoin:miter;stroke-miterlimit:4;stroke-dasharray:none;stroke-opacity:0.36"
     sodipodi:nodetypes="ssccccccccccsssssssss" />
  <path
     id="path12656"
     style="font-variation-settings:normal;opacity:1;vector-effect:none;fill:url(#linearGradient5257);fill-opacity:1;fill-rule:evenodd;stroke:none;stroke-width:0.999998;stroke-linecap:round;stroke-linejoin:miter;stroke-miterlimit:4;stroke-dasharray:none;stroke-dashoffset:0;stroke-opacity:0.3;-inkscape-stroke:none;stop-color:#000000;stop-opacity:1"
     d="M 12,1 C 9.2326624,1 7,3.2326623 7,6 c 0,2.76254 2.2256441,4.990324 4.986328,4.998047 0.576356,-0.04039 1.276615,-0.227677 1.88086,-0.460938 0.610451,-0.235656 0.242163,-0.02856 0.409584,-0.16873 0.201041,-0.164386 0.820312,0.14064 0.820312,0.741126 L 16,12 h 2 v 2 h 2 v 2 h 3 V 12.727008 L 17.227016,7.8677286 C 16.79766,7.4427184 16.926405,6.6852115 16.998045,5.9882812 16.991394,3.2266728 14.763206,1 12,1 Z m -0.923828,2.4786641 c 0.70044,-0.0077 1.419335,0.4584255 1.535156,1.2109375 0.276069,1.1234315 -1.001268,2.149312 -2.02539,1.6660157 C 9.6190839,6.0000475 9.3181355,4.6232194 10.080078,3.9083516 10.347591,3.616399 10.709275,3.4826996 11.076172,3.4786641 Z"
     sodipodi:nodetypes="sscscccccccccccsscccs" />
  <path
     id="path19767"
     style="opacity:0.5;fill:#ffffff;fill-opacity:1;fill-rule:evenodd;stroke-width:0.999993;stroke-linecap:round"
     d="m 16.79231,7.6977628 6.230145,5.0585222 -0.609723,0.792621 -6.230144,-5.0585226 z"
     sodipodi:nodetypes="ccccc" />
  <circle
     style="font-variation-settings:normal;opacity:1;vector-effect:none;fill:none;fill-opacity:1;stroke:url(#linearGradient19417);stroke-width:0.999999;stroke-linecap:round;stroke-linejoin:miter;stroke-miterlimit:4;stroke-dasharray:none;stroke-dashoffset:0;stroke-opacity:0.997548;-inkscape-stroke:none;stop-color:#000000;stop-opacity:1"
     id="path19355"
     cx="12"
     cy="6.0000005"
     r="4.500001" />
  <path
     d="m 15.529498,5.1791879 c -0.05396,-0.09066 -0.125552,-0.1872733 -0.190093,-0.272978 -0.272464,-0.3616984 -0.650904,-0.6116717 -1.03107,-0.8111407 0.976579,4.0362685 -1.209078,4.2299604 -3.105379,4.8936576 0.921385,0.7269573 2.150375,0.9058523 3.269082,0.2497866 C 15.542572,8.5628636 16.098493,7.5380166 15.937376,6.2576623 15.869711,5.916999 15.694214,5.4559397 15.5295,5.1791869 Z"
     id="path4734"
     style="opacity:0.8;fill:#000000;fill-opacity:0.113754;fill-rule:evenodd;stroke:none;stroke-width:1;stroke-linecap:round;stroke-linejoin:miter;stroke-miterlimit:4;stroke-dasharray:none;stroke-opacity:1"
     sodipodi:nodetypes="cccccccc" />
  <path
     d="M 9.9117904,3.8532153 C 10.817369,2.8648584 12.652023,3.4285225 12.857396,4.762929 13.178643,6.0702755 11.690564,7.2630387 10.498839,6.7006228 9.3737565,6.2868434 9.0251543,4.6851126 9.9117904,3.8532153 Z"
     id="path51417"
     style="opacity:1;fill:none;fill-opacity:1;fill-rule:evenodd;stroke:url(#linearGradient52283);stroke-width:0.999998;stroke-linecap:round;stroke-linejoin:miter;stroke-miterlimit:4;stroke-dasharray:none;stroke-opacity:1"
     sodipodi:nodetypes="ssss" />
  <path
     id="path4738-5"
     style="fill:none;fill-opacity:1;fill-rule:evenodd;stroke:url(#linearGradient10815-3);stroke-width:1;stroke-linecap:round;stroke-linejoin:miter;stroke-miterlimit:4;stroke-dasharray:none;stroke-opacity:1"
     d="M 12,0.5 C 8.962434,0.5 6.5,2.9624339 6.5,6 c 0,3.037566 2.462434,5.5 5.5,5.5 1.316815,-0.08565 1.973923,-0.252984 2.497084,-0.690996 C 14.628939,10.677149 15.500004,12.5 15.500004,12.5 H 17.5 v 2 h 2 v 2 h 4.000004 v -4 L 17.845883,7.7272199 C 17.163466,7.2633078 17.465438,6.8807087 17.5,6 17.5,2.9624339 15.037566,0.5 12,0.5 Z"
     sodipodi:nodetypes="sscccccccccccs" />
  <path
     d="M 3.778493,4.7554184 C 1.4566625,3.8720239 0.79064043,2.669703 2.2918363,2.0716657 3.7930319,1.4736283 6.8957777,1.7052228 9.2176073,2.5886175 11.504035,3.4585413 12.191313,4.6363807 10.768189,5.2459639"
     id="use6167"
     style="fill:none;fill-opacity:1;fill-rule:evenodd;stroke:#fafafa;stroke-width:1.5;stroke-linecap:round;stroke-linejoin:miter;stroke-miterlimit:4;stroke-dasharray:none;stroke-dashoffset:0.7;stroke-opacity:0.997548" />
  <rect
     style="font-variation-settings:normal;opacity:0.3;vector-effect:none;fill:#ffffff;fill-opacity:1;stroke:none;stroke-width:0.999998;stroke-linecap:round;stroke-linejoin:miter;stroke-miterlimit:4;stroke-dasharray:none;stroke-dashoffset:0;stroke-opacity:0.997548;-inkscape-stroke:none;stop-color:#000000;stop-opacity:1"
     id="rect20000"
     width="2"
     height="1"
     x="16"
     y="11.000001" />
  <rect
     style="font-variation-settings:normal;opacity:0.3;vector-effect:none;fill:#ffffff;fill-opacity:1;stroke:none;stroke-width:0.999998;stroke-linecap:round;stroke-linejoin:miter;stroke-miterlimit:4;stroke-dasharray:none;stroke-dashoffset:0;stroke-opacity:0.997548;-inkscape-stroke:none;stop-color:#000000;stop-opacity:1"
     id="rect20114"
     width="2"
     height="1"
     x="18"
     y="13" />
  <rect
     style="font-variation-settings:normal;opacity:0.3;vector-effect:none;fill:#ffffff;fill-opacity:1;stroke:none;stroke-width:0.999998;stroke-linecap:round;stroke-linejoin:miter;stroke-miterlimit:4;stroke-dasharray:none;stroke-dashoffset:0;stroke-opacity:0.997548;-inkscape-stroke:none;stop-color:#000000;stop-opacity:1"
     id="rect20116"
     width="3"
     height="1"
     x="20"
     y="15" />
  <path
     id="path20245"
     style="opacity:0.3;fill:url(#linearGradient20247);fill-rule:evenodd;stroke-width:0.999993;stroke-linecap:round"
     d="m 15.509329,8.0067371 6.406072,5.1258979 -0.609723,0.792621 -6.406071,-5.1258983 z"
     sodipodi:nodetypes="ccccc" />
</svg>
