<?xml version="1.0" encoding="UTF-8" standalone="no"?>
<svg
   xmlns:dc="http://purl.org/dc/elements/1.1/"
   xmlns:cc="http://creativecommons.org/ns#"
   xmlns:rdf="http://www.w3.org/1999/02/22-rdf-syntax-ns#"
   xmlns:svg="http://www.w3.org/2000/svg"
   xmlns="http://www.w3.org/2000/svg"
   xmlns:xlink="http://www.w3.org/1999/xlink"
   id="svg2509"
   height="24"
   width="24"
   version="1.0">
  <metadata
     id="metadata203981">
    <rdf:RDF>
      <cc:Work
         rdf:about="">
        <dc:format>image/svg+xml</dc:format>
        <dc:type
           rdf:resource="http://purl.org/dc/dcmitype/StillImage" />
        <dc:title />
      </cc:Work>
    </rdf:RDF>
  </metadata>
  <defs
     id="defs2511">
    <radialGradient
       r="4.5"
       fy="23.5"
       fx="6.5"
       cy="23.5"
       cx="6.5"
       gradientUnits="userSpaceOnUse"
       id="radialGradient9282"
       xlink:href="#linearGradient2892" />
    <linearGradient
       id="linearGradient2892">
      <stop
         style="stop-color:black;stop-opacity:1;"
         offset="0"
         id="stop2894" />
      <stop
         style="stop-color:black;stop-opacity:0;"
         offset="1"
         id="stop2896" />
    </linearGradient>
    <radialGradient
       r="4.5"
       fy="23.5"
       fx="6.5"
       cy="23.5"
       cx="6.5"
       gradientUnits="userSpaceOnUse"
       id="radialGradient9284"
       xlink:href="#linearGradient2892" />
    <radialGradient
       r="5.7894368"
       fy="28.950602"
       fx="6.9384851"
       cy="28.950602"
       cx="6.9384851"
       gradientTransform="matrix(1,0,0,0.3740458,0,18.121751)"
       gradientUnits="userSpaceOnUse"
       id="radialGradient9286"
       xlink:href="#linearGradient3271" />
    <linearGradient
       id="linearGradient3271">
      <stop
         style="stop-color:#000000;stop-opacity:1;"
         offset="0"
         id="stop3273" />
      <stop
         style="stop-color:#000000;stop-opacity:0;"
         offset="1"
         id="stop3275" />
    </linearGradient>
    <linearGradient
       y2="60.688343"
       x2="24.826874"
       y1="22.719007"
       x1="25.327408"
       gradientTransform="matrix(0.501233,0.00217039,-0.00223689,-0.4888619,323.25389,200.65425)"
       gradientUnits="userSpaceOnUse"
       id="linearGradient9288"
       xlink:href="#linearGradient3201" />
    <linearGradient
       id="linearGradient3201">
      <stop
         style="stop-color:#e7ce79;stop-opacity:1"
         offset="0"
         id="stop3203" />
      <stop
         style="stop-color:#c17d11;stop-opacity:1"
         offset="1"
         id="stop3205" />
    </linearGradient>
    <linearGradient
       gradientTransform="matrix(0.9747193,0,0,0.9497825,0.2307018,0.9422149)"
       y2="39.559361"
       x2="35.011539"
       y1="4.6692243"
       x1="8.6859617"
       gradientUnits="userSpaceOnUse"
       id="linearGradient9290"
       xlink:href="#linearGradient3088" />
    <linearGradient
       id="linearGradient3088">
      <stop
         style="stop-color:white;stop-opacity:1;"
         offset="0"
         id="stop3090" />
      <stop
         style="stop-color:white;stop-opacity:0.34600762"
         offset="1"
         id="stop3092" />
    </linearGradient>
    <linearGradient
       y2="17.322275"
       x2="30.679979"
       y1="19.52313"
       x1="33.466816"
       gradientTransform="matrix(0.5445633,-0.1007552,-0.1319373,0.5760638,-24.339757,2.645245)"
       gradientUnits="userSpaceOnUse"
       id="linearGradient9294"
       xlink:href="#linearGradient3235" />
    <linearGradient
       id="linearGradient3235">
      <stop
         style="stop-color:#eeeeec;stop-opacity:1"
         offset="0"
         id="stop3237" />
      <stop
         style="stop-color:#888a85;stop-opacity:1"
         offset="1"
         id="stop3239" />
    </linearGradient>
    <linearGradient
       y2="13.736895"
       x2="-10.625"
       y1="11.861895"
       x1="-12.800283"
       gradientUnits="userSpaceOnUse"
       id="linearGradient9296"
       xlink:href="#linearGradient3376" />
    <linearGradient
       id="linearGradient3376">
      <stop
         style="stop-color:#8f5902;stop-opacity:1;"
         offset="0"
         id="stop3378" />
      <stop
         style="stop-color:#6a4201;stop-opacity:1;"
         offset="1"
         id="stop3380" />
    </linearGradient>
    <linearGradient
       y2="32.878731"
       x2="23.033716"
       y1="30.012707"
       x1="20.121948"
       gradientTransform="matrix(0.5445633,-0.1007552,-0.1319373,0.5760638,-24.339757,2.645245)"
       gradientUnits="userSpaceOnUse"
       id="linearGradient9298"
       xlink:href="#linearGradient3235" />
    <linearGradient
       y2="4.1767769"
       x2="-5.6448302"
       y1="24.500631"
       x1="-22.124054"
       gradientUnits="userSpaceOnUse"
       id="linearGradient9300"
       xlink:href="#linearGradient3293" />
    <linearGradient
       id="linearGradient3293">
      <stop
         style="stop-color:#ffffff;stop-opacity:1;"
         offset="0"
         id="stop3295" />
      <stop
         style="stop-color:#ffffff;stop-opacity:0;"
         offset="1"
         id="stop3297" />
    </linearGradient>
    <linearGradient
       y2="40.193146"
       x2="11.757354"
       y1="43.021572"
       x1="12.365852"
       gradientTransform="matrix(0.6628673,0,0,0.8418504,-30.824503,-8.9506372)"
       gradientUnits="userSpaceOnUse"
       id="linearGradient9302"
       xlink:href="#linearGradient3126" />
    <linearGradient
       id="linearGradient3126">
      <stop
         style="stop-color:#555753;stop-opacity:1"
         offset="0"
         id="stop3128" />
      <stop
         style="stop-color:#1f2324;stop-opacity:1"
         offset="1"
         id="stop3130" />
    </linearGradient>
    <linearGradient
       y2="45.596516"
       x2="10.730166"
       y1="38.811657"
       x1="9.3437004"
       gradientTransform="matrix(0.4387652,0,0,0.4819627,-27.858493,5.0659759)"
       gradientUnits="userSpaceOnUse"
       id="linearGradient9304"
       xlink:href="#linearGradient3171" />
    <linearGradient
       id="linearGradient3171">
      <stop
         style="stop-color:white;stop-opacity:1;"
         offset="0"
         id="stop3173" />
      <stop
         style="stop-color:white;stop-opacity:0.06844106"
         offset="1"
         id="stop3175" />
    </linearGradient>
    <linearGradient
       y2="39.53223"
       x2="12.186543"
       y1="38.012455"
       x1="12.186543"
       gradientUnits="userSpaceOnUse"
       id="linearGradient9306"
       xlink:href="#linearGradient3171" />
    <linearGradient
       y2="7.8062501"
       x2="-8.0875006"
       y1="4.6629128"
       x1="-5.2803302"
       gradientUnits="userSpaceOnUse"
       id="linearGradient9308"
       xlink:href="#linearGradient3313" />
    <linearGradient
       id="linearGradient3313">
      <stop
         style="stop-color:#e9b96e;stop-opacity:1;"
         offset="0"
         id="stop3315" />
      <stop
         style="stop-color:#e9b96e;stop-opacity:0;"
         offset="1"
         id="stop75" />
    </linearGradient>
    <linearGradient
       gradientUnits="userSpaceOnUse"
       y2="13.341757"
       x2="18.572561"
       y1="-1.8483135"
       x1="3.9062865"
       id="linearGradient10095"
       xlink:href="#linearGradient3088" />
  </defs>
  <g
     transform="matrix(0.7159282,0,0,0.7159282,0.70324147,0.37725618)"
     style="display:inline;enable-background:new"
     id="g9224">
    <g
       transform="matrix(0.7381097,0,0,1.0186585,-10.703287,-20.451576)"
       style="opacity:0.4"
       id="g9226">
      <path
         transform="matrix(0,-1.0362219,5.8543177,0,-94.232036,53.072444)"
         style="fill:url(#radialGradient9282);fill-opacity:1;fill-rule:evenodd;stroke:none"
         id="path9228"
         d="m 2,23.5 a 4.5,4.5 0 0 1 9,0 l -4.5,0 z" />
      <path
         transform="matrix(0,-1.0362219,-3.224556,0,119.1215,53.072444)"
         style="fill:url(#radialGradient9284);fill-opacity:1;fill-rule:evenodd;stroke:none"
         id="path9230"
         d="m 2,23.5 a 4.5,4.5 0 0 1 9,0 l -4.5,0 z" />
    </g>
    <ellipse
       d="M 12.727922,28.950602 A 5.7894368,2.1655145 0 0 1 6.9384851,31.116116 5.7894368,2.1655145 0 0 1 1.1490483,28.950602 5.7894368,2.1655145 0 0 1 6.9384851,26.785087 5.7894368,2.1655145 0 0 1 12.727922,28.950602 Z"
       transform="matrix(1,0,0,1.1010153,-0.751301,-2.838285)"
       style="opacity:0.08429117;fill:url(#radialGradient9286);fill-opacity:1;stroke:none"
       id="path9232"
       cx="6.9384851"
       cy="28.950602"
       rx="5.7894368"
       ry="2.1655145" />
    <path
       id="path9234"
       transform="matrix(1.3967881,0,0,1.3967881,-452.14503,-246.46083)"
       d="m 334.25,178.5 c -2.93645,0.0376 -6.87897,1.0354 -6.8125,4.1875 0.0709,3.36249 4.2786,2.03735 4.4375,3.53125 0.25682,2.41446 -5.09533,9.74743 3.03125,11.1875 5.42527,0.9614 11.17225,-2.33957 10.59375,-9 -0.52027,-5.98986 -5.58226,-9.75377 -10.65625,-9.90625 -0.18539,-0.006 -0.39799,-0.003 -0.59375,0 z m -1.25,2 1,0 c 0.831,0 1.5,0.669 1.5,1.5 0,0.831 -0.669,1.5 -1.5,1.5 l -1,0 c -0.831,0 -1.5,-0.669 -1.5,-1.5 0,-0.831 0.669,-1.5 1.5,-1.5 z"
       style="fill:url(#linearGradient9288);fill-opacity:1;fill-rule:evenodd;stroke:#c17d11;stroke-width:0.99999976;stroke-linecap:butt;stroke-linejoin:miter;stroke-miterlimit:4;stroke-opacity:1;stroke-dasharray:none" />
    <path
       style="fill:#cc0000;fill-opacity:1;fill-rule:evenodd;stroke:#a40000;stroke-width:1.39678812;stroke-linecap:butt;stroke-linejoin:round;stroke-miterlimit:5;stroke-opacity:1"
       id="path9238"
       d="m 24.77418,23.118051 c 0.595305,0 1.594381,0.09985 1.857305,0.407107 0.61479,0.718456 1.160268,-0.226579 0.692573,-0.634557 -0.538985,-0.470165 -1.255353,-0.740767 -1.290541,-0.940494 -0.202258,-1.147975 1.347302,-0.385272 0.942349,-1.287998 -0.242322,-0.540191 -0.994971,0.22357 -1.309461,-0.498573 -0.24984,-0.573696 0.364531,-0.567958 0.03784,-0.883843 -1.537963,-1.487111 -2.678164,-0.536027 -3.561273,0.290854 -0.883124,0.826891 -0.856422,2.306395 0.07949,3.323854 0.384374,0.417863 0.57325,1.4223 1.063452,1.543092 0.703393,0.173325 -0.01079,-1.319442 1.488264,-1.319442 l 2e-6,0 z" />
    <path
       style="fill:#3465a4;fill-opacity:1;fill-rule:evenodd;stroke:#204a87;stroke-width:1.39678788;stroke-linecap:butt;stroke-linejoin:round;stroke-miterlimit:5;stroke-opacity:1"
       id="path9240"
       d="m 25.165155,15.252204 c -0.651586,0 -0.782084,0.380159 -1.089131,0.625067 -0.243517,0.194233 -1.269959,-0.190375 -0.758047,-0.533164 0.58994,-0.395038 0.719531,-0.861689 0.758047,-1.029503 0.221378,-0.964543 -1.964558,-0.495622 -1.514893,-1.251295 0.327427,-0.550254 1.51813,-0.02635 1.514893,-0.31137 -0.005,-0.43949 -0.310727,-1.103443 0.340718,-1.212023 1.370695,-0.228463 2.948557,0.570393 3.691775,1.210736 0.710605,0.612247 0.316455,1.682868 -0.103696,2.443391 -0.256708,0.464669 -0.844935,1.410375 -1.527032,1.296529 -0.773985,-0.129185 0.328138,-1.238368 -1.312634,-1.238368 l 0,0 z" />
    <path
       style="opacity:0.93486591;fill:none;stroke:url(#linearGradient9290);stroke-width:1.39678836;stroke-linecap:butt;stroke-linejoin:miter;stroke-miterlimit:4;stroke-opacity:1"
       id="path9242"
       d="m 14.821031,4.2664536 c -1.863649,0.023926 -4.0381,0.390337 -5.6350956,1.1575474 -1.5969956,0.7672105 -2.5645789,1.7428098 -2.5281782,3.4726424 0.019711,0.9366955 0.2862819,1.3655346 0.6396595,1.6917996 0.3533777,0.326265 0.9012181,0.573908 1.5534589,0.742018 0.6522408,0.16811 1.3767914,0.24267 2.0712784,0.474892 0.347244,0.116109 0.680927,0.279559 1.005179,0.563932 0.324252,0.284374 0.589588,0.745177 0.63966,1.216909 0.127302,1.199309 -0.337505,2.41062 -0.791959,3.828811 -0.454455,1.418191 -0.949709,2.958801 -1.12702,4.392744 -0.17731,1.433944 -0.04745,2.689216 0.63966,3.680407 0.687108,0.991191 2.006307,1.860025 4.568997,2.315096 3.384787,0.601054 6.8555,-0.135549 9.351213,-2.018289 2.495713,-1.882739 4.080171,-4.852449 3.716117,-9.052614 C 28.267964,9.1635152 21.882319,4.4570767 15.552071,4.2664536 c -0.217346,-0.00654 -0.465987,-0.0034 -0.73104,0 z" />
    <path
       style="fill:#73d216;fill-opacity:1;fill-rule:evenodd;stroke:#4e9a06;stroke-width:1.39678788;stroke-linecap:butt;stroke-linejoin:round;stroke-miterlimit:5;stroke-opacity:1"
       id="path9246"
       d="m 19.167541,25.497668 c -0.625176,0.395224 0.04558,0.849233 0.347272,1.113721 0.23927,0.209762 -0.120057,1.223555 -0.54856,0.775539 -0.493819,-0.516305 -0.811766,-1.234592 -1.005449,-1.253001 -1.113243,-0.105815 -0.256096,1.431848 -1.15193,1.093668 -0.536067,-0.202366 0.13091,-1.051892 -0.584935,-1.312617 -0.568694,-0.207131 -0.512193,0.429372 -0.841029,0.119231 -1.548076,-1.460073 -0.734369,-2.728393 -0.01794,-3.718903 0.716439,-0.990525 2.131752,-1.096745 3.181262,-0.218412 1.049508,0.878332 1.327854,2.401879 0.621308,3.400774 l 1e-6,0 z" />
    <path
       style="fill:#73d216;fill-opacity:1;fill-rule:evenodd;stroke:none"
       id="path9248"
       d="m 16.861328,21.744141 c -0.507053,0.03581 -0.971595,0.276671 -1.287109,0.71289 -0.355494,0.491493 -0.714991,1.030504 -0.806641,1.580078 -0.09099,0.545598 0.04332,1.118734 0.761719,1.802735 0.0076,-0.0065 -0.0036,0.0014 0.0059,-0.0078 0.05434,-0.05278 0.144109,-0.138651 0.28125,-0.183593 0.137142,-0.04494 0.306989,-0.03798 0.486328,0.02734 0.230605,0.08399 0.392573,0.248336 0.462891,0.425781 0.07032,0.177446 0.06673,0.348254 0.0625,0.490235 -0.0042,0.141981 -0.0072,0.261371 0.0059,0.320312 0.01307,0.05894 -9.44e-4,0.05148 0.06445,0.07617 0.07315,0.02761 0.100119,0.02683 0.115234,0.02734 0.006,-0.02073 0.03264,-0.127786 0.05078,-0.285156 0.01963,-0.17028 0.04043,-0.382889 0.181641,-0.576172 0.141213,-0.193283 0.41496,-0.304912 0.746094,-0.273438 0.191314,0.01818 0.256954,0.125578 0.333984,0.21875 0.07703,0.09317 0.151826,0.20452 0.234375,0.328125 0.165098,0.247212 0.360291,0.541422 0.585937,0.777344 0.06469,0.06763 0.03599,0.03998 0.0332,0.04102 -0.0028,0.001 0.0482,-0.03426 0.08594,-0.109375 0.03773,-0.07511 0.06305,-0.178407 0.06641,-0.253907 0.0034,-0.0755 -0.02798,-0.10193 0.0059,-0.07227 -0.137046,-0.120145 -0.398366,-0.305149 -0.564453,-0.566406 -0.08304,-0.130629 -0.148362,-0.301001 -0.111329,-0.486329 0.03175,-0.158897 0.14565,-0.293553 0.294922,-0.40625 0.616023,-0.877623 0.372737,-2.269633 -0.583984,-3.070312 -0.482967,-0.404194 -1.004071,-0.572962 -1.511719,-0.537109 z" />
    <path
       style="opacity:0.81226059;fill:none;stroke:#eeeeec;stroke-width:1.39678812;stroke-linecap:round;stroke-linejoin:miter;stroke-miterlimit:4;stroke-opacity:1;stroke-dasharray:none"
       id="path9250"
       d="M 15.432532,24.5 C 15.663684,23.616678 16.156359,22.473503 17.5,22.432049" />
    <path
       style="fill:#ef2929;fill-opacity:1;fill-rule:evenodd;stroke:none"
       id="path9252"
       d="m 24.144531,18.716797 c -0.138424,-5.94e-4 -0.272388,0.01841 -0.402343,0.05273 -0.522006,0.137893 -1.002777,0.540345 -1.439454,0.949219 -0.788131,0.737947 -0.791119,2.102232 0.07422,3.042969 0.237679,0.258386 0.374197,0.620612 0.525391,0.925781 0.151194,0.305169 0.310909,0.511747 0.429687,0.541016 0.05739,0.01414 0.06707,0.0057 0.0625,0.0078 -0.0046,0.0022 -0.0017,0.0058 0.01367,-0.02539 0.03071,-0.06248 0.06446,-0.231976 0.119141,-0.423829 0.05468,-0.191852 0.142977,-0.417893 0.34375,-0.59375 0.200773,-0.175856 0.499964,-0.283203 0.910156,-0.283203 0.309541,0 0.712651,0.02548 1.083984,0.0918 0.371334,0.06631 0.711749,0.145068 0.921875,0.390625 0.12816,0.14977 0.224155,0.179991 0.277344,0.181641 0.05319,0.0017 0.09463,-0.01991 0.138672,-0.07813 0.08809,-0.116431 0.108527,-0.337055 -0.03125,-0.458985 -0.249673,-0.217793 -0.55067,-0.397238 -0.800781,-0.548828 -0.125056,-0.07579 -0.236297,-0.143592 -0.330078,-0.214843 -0.09378,-0.07125 -0.192031,-0.136086 -0.220704,-0.298829 -0.05795,-0.328903 0.01524,-0.593642 0.181641,-0.75 0.166403,-0.156357 0.370607,-0.197346 0.53125,-0.230468 0.159641,-0.03292 0.279237,-0.07244 0.289063,-0.08008 7.65e-4,-0.01674 -0.0063,-0.07512 -0.04883,-0.169921 -0.03583,-0.07988 -0.03873,-0.07161 -0.09766,-0.08008 -0.05893,-0.0085 -0.172882,0.0062 -0.308593,0.02344 -0.135712,0.01721 -0.298568,0.03689 -0.472657,-0.01953 -0.174089,-0.05642 -0.338855,-0.203755 -0.435547,-0.425781 -0.07569,-0.173804 -0.09186,-0.334652 -0.06055,-0.46875 0.03131,-0.134099 0.104292,-0.228175 0.152343,-0.28711 0.04805,-0.05893 0.05712,-0.08941 0.05078,-0.05664 -0.0063,0.03277 0.0259,0.06112 -0.03125,0.0059 -0.5497,-0.531525 -1.010507,-0.716969 -1.425781,-0.71875 z" />
    <path
       style="opacity:0.82758622;fill:none;stroke:#eeeeec;stroke-width:1.39678812;stroke-linecap:round;stroke-linejoin:miter;stroke-miterlimit:4;stroke-opacity:1;stroke-dasharray:none"
       id="path9254"
       d="M 24.429117,19.5 C 23.541497,19.566486 22.800913,20.333331 22.5,20.964206" />
    <path
       style="fill:#729fcf;fill-opacity:1;fill-rule:evenodd;stroke:none"
       id="path9256"
       d="m 24.453125,11.808594 c -0.113177,0.01886 -0.135404,0.04428 -0.150391,0.06445 -0.01499,0.02017 -0.03135,0.06513 -0.0332,0.150391 -0.0037,0.170522 0.07101,0.440122 0.07422,0.722656 0.0015,0.131584 -0.120523,0.290626 -0.220703,0.333984 -0.10018,0.04336 -0.173523,0.04318 -0.248047,0.04297 -0.149049,-4.3e-4 -0.303785,-0.02476 -0.460938,-0.03711 -0.157152,-0.01235 -0.312965,-0.01312 -0.421874,0.0098 -0.10891,0.02288 -0.15532,0.05201 -0.189454,0.109375 0.0735,0.0348 0.261725,0.08203 0.482422,0.128906 0.233265,0.04955 0.493409,0.100858 0.722656,0.244141 0.114624,0.07164 0.225365,0.173964 0.291016,0.316406 0.06565,0.142442 0.07541,0.313593 0.03711,0.480469 -0.04082,0.177867 -0.213025,0.730448 -0.833985,1.167969 0.01472,0.0127 0.0044,0.0037 0.03125,0.01758 0.07613,0.03935 0.185491,0.07242 0.269531,0.08203 0.08404,0.0096 0.132757,-0.02523 0.08398,0.01367 0.113888,-0.09084 0.225221,-0.246292 0.416015,-0.402344 0.190795,-0.156051 0.473163,-0.285156 0.853516,-0.285156 0.442139,0 0.743701,0.07104 0.958984,0.236328 0.215284,0.165286 0.286558,0.415237 0.302735,0.597656 0.01618,0.182419 0.0087,0.32816 0.02148,0.378907 0.0064,0.02537 0.0085,0.02014 0.0078,0.01953 -6.71e-4,-6.12e-4 0.0094,0.01165 0.06836,0.02148 0.201492,0.03363 0.437324,-0.100253 0.673828,-0.353515 0.236504,-0.253263 0.44066,-0.592328 0.564453,-0.816407 0.20078,-0.363435 0.387583,-0.797652 0.439453,-1.177734 0.05187,-0.380082 -0.0078,-0.67481 -0.283203,-0.912109 -0.683145,-0.588586 -2.226371,-1.35942 -3.457031,-1.154297 z" />
    <path
       style="opacity:0.6;fill:none;stroke:#eeeeec;stroke-width:1.39678812;stroke-linecap:round;stroke-linejoin:miter;stroke-miterlimit:4;stroke-opacity:1;stroke-dasharray:none"
       id="path9258"
       d="M 26,12.815285 C 24.784703,12.24835 24.392376,12.496111 24.621688,13.159943" />
    <path
       style="opacity:0.1532567;fill:#000000;fill-opacity:1;fill-rule:evenodd;stroke:#000000;stroke-width:1.39678788px;stroke-linecap:butt;stroke-linejoin:round;stroke-opacity:1"
       id="path9260"
       d="m 24.625,5.75 c -5.252227,4.576929 -8.463682,8.108715 -10.1875,10.1875 -1.599204,1.835088 -3.517157,4.755619 -4.8125,6.90625 -0.01384,0.520655 0.00573,1.037879 0.09375,1.53125 l 0.09375,0.21875 c 2.426807,-1.588883 6.209008,-5.205746 7.15625,-6.25 C 20.143866,15.111872 23.33529,10.750799 25.875,6.8125 25.477462,6.4293586 25.057748,6.085422 24.625,5.75 Z" />
    <g
       transform="translate(30,0)"
       id="g9262">
      <path
         style="fill:url(#linearGradient9294);fill-opacity:1;fill-rule:evenodd;stroke:url(#linearGradient9296);stroke-width:1.39678788px;stroke-linecap:butt;stroke-linejoin:round;stroke-opacity:1"
         id="path9264"
         d="M -14.045711,17.34879 C -9.6362224,12.860471 -5.1911542,6.1795287 -2.5,1.5 -10.132088,7.6891131 -14.435407,12.398954 -16.550283,14.949324" />
      <path
         style="opacity:0.2;fill:#000000;fill-opacity:1;fill-rule:evenodd;stroke:#000000;stroke-width:1.39678824;stroke-linecap:butt;stroke-linejoin:round;stroke-miterlimit:4;stroke-opacity:1;stroke-dasharray:none"
         id="path9266"
         d="m -16.004572,14.369197 c 1.235787,0.278613 2.101876,1.037834 2.504572,2.399466 -0.947242,1.044253 -4.726859,4.642454 -7.153666,6.231337 l -0.503875,-1.133714 c 1.278625,-2.167356 3.412795,-5.500238 5.152969,-7.497089 l 0,0 z" />
      <path
         style="fill:url(#linearGradient9298);fill-opacity:1;fill-rule:evenodd;stroke:#888a85;stroke-width:1.39678788px;stroke-linecap:butt;stroke-linejoin:miter;stroke-opacity:1"
         id="path9268"
         d="m -16.550283,14.949324 c 1.235787,0.278613 2.101876,1.037834 2.504572,2.399466 -0.947242,1.044253 -4.726859,4.642454 -7.153666,6.231337 l -0.503875,-1.133714 c 1.278625,-2.167356 3.412795,-5.500238 5.152969,-7.497089 l 0,0 z" />
      <path
         style="fill:url(#linearGradient9300);fill-opacity:1;fill-rule:evenodd;stroke:none"
         id="path9270"
         d="M -3.7790291,3.1767767 C -9.8702816,10.131151 -15.142052,16.928974 -21.5,23 -19.310955,18.292697 -10.673108,9.4140575 -3.7790291,3.1767767 Z" />
      <g
         id="g9272">
        <path
           style="fill:url(#linearGradient9302);fill-opacity:1;fill-rule:evenodd;stroke:#000000;stroke-width:1.39678788;stroke-linecap:butt;stroke-linejoin:miter;stroke-miterlimit:4;stroke-opacity:1"
           id="path9274"
           d="m -28.5,27.5 c 3.111145,0.0012 2.79359,-3.577423 4.304166,-4.573805 1.750479,-1.154622 3.284496,0.276082 3.590759,1.453519 0.386445,1.485697 -0.234224,3.2648 -2.265024,3.771754 C -25.021658,28.688567 -28.205437,28.704517 -28.5,27.5 Z" />
        <path
           style="opacity:0.2;fill:none;stroke:url(#linearGradient9304);stroke-width:1.39678788;stroke-linecap:butt;stroke-linejoin:miter;stroke-miterlimit:5;stroke-opacity:1;stroke-dasharray:none"
           id="path9276"
           d="m -26.5,27.5 c 1.390135,-0.01729 1.639252,-1.464836 2,-2.5 1.039228,-2.982064 3.381907,-1.100535 3,0.5 -0.716099,3.494542 -2.920404,2.005508 -5,2 z" />
        <ellipse
           d="m 13.324543,38.708176 a 1.138,0.91702908 0 0 1 -1.138,0.917029 1.138,0.91702908 0 0 1 -1.138,-0.917029 1.138,0.91702908 0 0 1 1.138,-0.917029 1.138,0.91702908 0 0 1 1.138,0.917029 z"
           transform="matrix(1.757469,0,0,1.6357161,-44.417471,-38.815588)"
           style="opacity:0.5;fill:url(#linearGradient9306);fill-opacity:1;fill-rule:evenodd;stroke:none"
           id="path9278"
           cx="12.186543"
           cy="38.708176"
           rx="1.138"
           ry="0.91702908" />
      </g>
      <path
         style="fill:none;stroke:url(#linearGradient9308);stroke-width:1.11743057;stroke-linecap:round;stroke-linejoin:miter;stroke-miterlimit:4;stroke-opacity:1;stroke-dasharray:none"
         id="path9280"
         d="M -3.5,2.5 -7.40625,7.15625" />
    </g>
    <rect
       ry="3.4919703"
       rx="3.4919703"
       y="4.2626343"
       x="9.4934387"
       height="6.9839406"
       width="8.3807287"
       id="rect9317"
       style="fill:none;stroke:url(#linearGradient10095);stroke-width:1.396788;stroke-linecap:round;stroke-linejoin:miter;stroke-miterlimit:4;stroke-opacity:1;stroke-dasharray:none;stroke-dashoffset:0;marker:none;visibility:visible;display:inline;overflow:visible;enable-background:accumulate" />
  </g>
</svg>
