<?xml version="1.0" encoding="UTF-8" standalone="no"?>
<svg
   xmlns:dc="http://purl.org/dc/elements/1.1/"
   xmlns:cc="http://creativecommons.org/ns#"
   xmlns:rdf="http://www.w3.org/1999/02/22-rdf-syntax-ns#"
   xmlns:svg="http://www.w3.org/2000/svg"
   xmlns="http://www.w3.org/2000/svg"
   xmlns:xlink="http://www.w3.org/1999/xlink"
   id="svg3138"
   height="24"
   width="24"
   version="1.1">
  <metadata
     id="metadata204425">
    <rdf:RDF>
      <cc:Work
         rdf:about="">
        <dc:format>image/svg+xml</dc:format>
        <dc:type
           rdf:resource="http://purl.org/dc/dcmitype/StillImage" />
      </cc:Work>
    </rdf:RDF>
  </metadata>
  <defs
     id="defs3140">
    <linearGradient
       gradientTransform="translate(10,0)"
       gradientUnits="userSpaceOnUse"
       xlink:href="#linearGradient6939"
       id="linearGradient6945"
       y2="41.975765"
       x2="18"
       y1="2.5681367"
       x1="6.3601508" />
    <linearGradient
       id="linearGradient6939">
      <stop
         offset="0"
         style="stop-color:#babdb6;stop-opacity:1"
         id="stop6941" />
      <stop
         offset="0.24743238"
         style="stop-color:#ededed;stop-opacity:1"
         id="stop7051" />
      <stop
         offset="0.53371018"
         style="stop-color:#b6b9b1;stop-opacity:1"
         id="stop7053" />
      <stop
         offset="0.83191627"
         style="stop-color:#e9eae8;stop-opacity:1"
         id="stop7049" />
      <stop
         offset="1"
         style="stop-color:#b5b9b2;stop-opacity:1"
         id="stop6943" />
    </linearGradient>
    <linearGradient
       gradientTransform="translate(1,0)"
       gradientUnits="userSpaceOnUse"
       xlink:href="#linearGradient6931"
       id="linearGradient6937"
       y2="22.003469"
       x2="15.5625"
       y1="18.872503"
       x1="15.5625" />
    <linearGradient
       id="linearGradient6931">
      <stop
         offset="0"
         style="stop-color:#a1a29e;stop-opacity:1"
         id="stop6933" />
      <stop
         offset="1"
         style="stop-color:#888a85;stop-opacity:0"
         id="stop6935" />
    </linearGradient>
    <linearGradient
       gradientTransform="translate(10,-1)"
       gradientUnits="userSpaceOnUse"
       xlink:href="#linearGradient6958"
       id="linearGradient7039"
       y2="23.321859"
       x2="12.6875"
       y1="17.550121"
       x1="12.6875" />
    <linearGradient
       id="linearGradient6958">
      <stop
         offset="0"
         style="stop-color:#ffffff;stop-opacity:1"
         id="stop6960" />
      <stop
         offset="1"
         style="stop-color:#ffffff;stop-opacity:0"
         id="stop6962" />
    </linearGradient>
    <linearGradient
       gradientTransform="translate(10,0)"
       gradientUnits="userSpaceOnUse"
       xlink:href="#linearGradient6955"
       id="linearGradient6961"
       y2="34.389534"
       x2="22.226398"
       y1="8.1772938"
       x1="9.015625" />
    <linearGradient
       id="linearGradient6955">
      <stop
         offset="0"
         style="stop-color:#ffffff;stop-opacity:1"
         id="stop6957" />
      <stop
         offset="1"
         style="stop-color:#ffffff;stop-opacity:0"
         id="stop6959" />
    </linearGradient>
    <linearGradient
       gradientTransform="translate(-1,-2)"
       gradientUnits="userSpaceOnUse"
       xlink:href="#linearGradient6970"
       id="linearGradient6976"
       y2="7.9975319"
       x2="3.800699"
       y1="9.5814371"
       x1="3.800699" />
    <linearGradient
       id="linearGradient6970">
      <stop
         offset="0"
         style="stop-color:#ffffff;stop-opacity:1"
         id="stop6972" />
      <stop
         offset="1"
         style="stop-color:#eeeeec;stop-opacity:0"
         id="stop6974" />
    </linearGradient>
    <linearGradient
       gradientTransform="translate(-1,0)"
       gradientUnits="userSpaceOnUse"
       xlink:href="#linearGradient6978"
       id="linearGradient6984"
       y2="5.0105686"
       x2="3.7123106"
       y1="3.5268352"
       x1="3.7123106" />
    <linearGradient
       id="linearGradient6978">
      <stop
         offset="0"
         style="stop-color:#babdb6;stop-opacity:1"
         id="stop6980" />
      <stop
         offset="1"
         style="stop-color:#555753;stop-opacity:0"
         id="stop6982" />
    </linearGradient>
    <linearGradient
       gradientTransform="matrix(1,0,0,0.75,7,2.875)"
       gradientUnits="userSpaceOnUse"
       xlink:href="#linearGradient7065"
       id="linearGradient7071"
       y2="11.746678"
       x2="20.461903"
       y1="15.32668"
       x1="20.461903" />
    <linearGradient
       id="linearGradient7065">
      <stop
         offset="0"
         style="stop-color:#888a85;stop-opacity:1"
         id="stop7067" />
      <stop
         offset="0.70408165"
         style="stop-color:#cfd0ce;stop-opacity:1"
         id="stop7073" />
      <stop
         offset="1"
         style="stop-color:#888a85;stop-opacity:1"
         id="stop7069" />
    </linearGradient>
    <linearGradient
       gradientTransform="matrix(0.5,0,0,1,14.5,-4)"
       gradientUnits="userSpaceOnUse"
       xlink:href="#linearGradient7033"
       id="linearGradient7043"
       y2="21.500893"
       x2="12.6875"
       y1="17.550121"
       x1="12.6875" />
    <linearGradient
       id="linearGradient7033">
      <stop
         offset="0"
         style="stop-color:#000000;stop-opacity:1"
         id="stop7035" />
      <stop
         offset="1"
         style="stop-color:#000000;stop-opacity:0"
         id="stop7037" />
    </linearGradient>
    <linearGradient
       gradientTransform="matrix(0.5,0,0,1,18.5,-4)"
       gradientUnits="userSpaceOnUse"
       xlink:href="#linearGradient7033"
       id="linearGradient7047"
       y2="21.500893"
       x2="12.6875"
       y1="17.550121"
       x1="12.6875" />
    <linearGradient
       id="linearGradient6967">
      <stop
         offset="0"
         style="stop-color:#ffffff;stop-opacity:1"
         id="stop6969" />
      <stop
         offset="1"
         style="stop-color:#ffffff;stop-opacity:0"
         id="stop6971" />
    </linearGradient>
    <linearGradient
       gradientTransform="translate(10,0)"
       gradientUnits="userSpaceOnUse"
       xlink:href="#linearGradient6939"
       id="linearGradient3132"
       y2="41.975765"
       x2="18"
       y1="2.5681367"
       x1="6.3601508" />
    <linearGradient
       gradientTransform="translate(1,0)"
       gradientUnits="userSpaceOnUse"
       xlink:href="#linearGradient6931"
       id="linearGradient3134"
       y2="22.003469"
       x2="15.5625"
       y1="18.872503"
       x1="15.5625" />
    <linearGradient
       gradientTransform="translate(0,-1)"
       gradientUnits="userSpaceOnUse"
       xlink:href="#linearGradient6967"
       id="linearGradient3136"
       y2="17.5625"
       x2="11.157452"
       y1="17.5625"
       x1="9.53125" />
  </defs>
  <g
     id="layer1"
     transform="translate(0,-8)">
    <g
       style="display:inline;enable-background:new"
       id="g22"
       transform="translate(1,8)">
      <path
         style="fill:url(#linearGradient3132);fill-opacity:1;fill-rule:evenodd;stroke:url(#linearGradient3134);stroke-width:1px;stroke-linecap:butt;stroke-linejoin:miter;stroke-opacity:1"
         id="path6950"
         d="m 16.5,0.5 -6,0 C 8.4651474,0.5 1.4722718,1.5277282 1.4722718,1.5277282 0.6034698,2.0293312 0.5,2.9407971 0.5,4.5 l 11,0 5,1.03125 c 2.257372,0 5,-1.4980165 5,-3.03125 l -5,0 0,-2 z" />
      <path
         style="fill:#babdb6;fill-opacity:1;fill-rule:evenodd;stroke:#888a85;stroke-width:1;stroke-linecap:round;stroke-linejoin:miter;stroke-miterlimit:10;stroke-opacity:1;stroke-dasharray:none"
         id="path5979"
         d="m 0.5,6.5 c 0,1.559203 0.0999481,2.467147 0.96875,2.96875 L 10,10.5 c 0.373164,0.185835 0.5,0.5 0.5,1 l 0,6 2,0 0,-11 -12,0 z m 15,0 0,11 2,0 0,-11 -2,0 z" />
      <path
         style="fill:#babdb6;fill-rule:evenodd;stroke:#888a85;stroke-width:1px;stroke-linecap:butt;stroke-linejoin:miter;stroke-opacity:1"
         id="path206"
         d="m 17.5,6.5 4,0 c 0,-1.309637 -2.222373,-2.6533694 -4,-3 l 0,3 z" />
      <rect
         style="fill:#eeeeec;fill-opacity:1;fill-rule:evenodd;stroke:#babdb6;stroke-width:0.99999994;stroke-linecap:round;stroke-linejoin:miter;stroke-miterlimit:10;stroke-opacity:1;stroke-dasharray:none"
         id="rect208"
         y="11.5"
         x="16.5"
         ry="0"
         rx="0"
         height="2"
         width="4" />
      <path
         style="fill:url(#linearGradient6945);fill-opacity:1;fill-rule:evenodd;stroke:url(#linearGradient6937);stroke-width:1px;stroke-linecap:butt;stroke-linejoin:miter;stroke-opacity:1"
         id="path210"
         d="m 16.5,0.5 -6,0 C 8.4651474,0.5 1.4722718,1.5277282 1.4722718,1.5277282 0.6034698,2.0293312 0.5,2.9407971 0.5,4.5 l 11,0 0,19 5,0 0,-17.96875 c 2.257372,0 5,-1.4980165 5,-3.03125 l -5,0 0,-2 z" />
      <path
         style="opacity:0.69402986;fill:url(#linearGradient7039);fill-opacity:1;fill-rule:evenodd;stroke:none"
         id="path212"
         d="m 12,8 0,1 3,0 0,-1 -3,0 z m 0,2 0,1 2,0 0,-1 -2,0 z m 0,2 0,1 3,0 0,-1 -3,0 z m 0,2 0,1 2,0 0,-1 -2,0 z m 0,2 0,1 3,0 0,-1 -3,0 z m 0,2 0,1 2,0 0,-1 -2,0 z m 0,2 0,1 3,0 0,-1 -3,0 z" />
      <path
         style="opacity:0.77985074;fill:none;stroke:url(#linearGradient6961);stroke-width:1px;stroke-linecap:butt;stroke-linejoin:miter;stroke-opacity:1"
         id="path214"
         d="m 10.5,1.46875 c -1.9657567,0.2058833 -6.3280478,0.729474 -8.53125,1.0625 -0.4787855,0.2498717 -0.403901,0.4525177 -0.4375,1 l 9.96875,0 C 12.034202,3.53323 12.466765,3.9657983 12.46875,4.5 l 0,19.03125 3.0625,-1 0,-17 C 15.53325,4.9970483 15.965798,4.5644846 16.5,4.5625 c 0.913616,0 2.029559,-0.3362164 2.84375,-0.8125 0.187767,-0.1098394 0.140807,-0.1658019 0.28125,-0.28125 l -3.125,0 C 15.965798,3.4667654 15.533235,3.0342017 15.53125,2.5 l 0,-1.03125 -5.03125,0 z" />
      <path
         style="fill:#babdb6;fill-opacity:1;fill-rule:evenodd;stroke:#888a85;stroke-width:1;stroke-linecap:round;stroke-linejoin:miter;stroke-miterlimit:10;stroke-opacity:1;stroke-dasharray:none"
         id="path216"
         d="m 0.5,6.5 c 0,1.559203 0.0999481,2.467147 0.96875,2.96875 L 10,10.5 c 0.373164,0.185835 0.5,0.5 0.5,1 l 0,4 -1,0 c -0.554,0 -1,0.446 -1,1 0,0.554 0.446,1 1,1 l 1,0 2,0 0,-11 -12,0 z m 15,0 0,11 2,0 0,-11 -2,0 z" />
      <g
         style="opacity:0.6268657"
         id="g218"
         transform="translate(1,-1)">
        <path
           style="fill:none;stroke:#ffffff;stroke-width:1px;stroke-linecap:butt;stroke-linejoin:miter;stroke-opacity:1"
           id="path220"
           d="m 0.515625,8.5 c 0,0.5073099 0.1649948,0.8023 0.546875,1 3.272305,0.573037 9.326061,0.613478 9.21875,1.9375 C 10.452659,11.79686 10.5,13.165442 10.5,13.5 l 0,-5 -9.984375,0 z" />
        <path
           style="fill:none;stroke:#ffffff;stroke-width:1px;stroke-linecap:butt;stroke-linejoin:miter;stroke-opacity:1"
           id="path222"
           d="m 10.5,18 0,-5.5" />
        <path
           style="fill:none;stroke:#ffffff;stroke-width:1px;stroke-linecap:butt;stroke-linejoin:miter;stroke-opacity:1"
           id="path224"
           d="m 15.5,18 0,-9" />
      </g>
      <path
         style="fill:url(#linearGradient6976);fill-opacity:1;fill-rule:evenodd;stroke:none"
         id="path226"
         d="M 5,6 5,7.03125 C 5,7.5679375 4.5679375,8 4.03125,8 L 1.6417354,8 C 1.6417354,8 1,7.5399631 1,7.03125 L 1,6 5,6 z" />
      <path
         style="fill:url(#linearGradient6984);fill-opacity:1;fill-rule:evenodd;stroke:none"
         id="path228"
         d="M 5,5 5,3.96875 C 5,3.4320625 4.5679375,3 4.03125,3 L 1.6104854,3 C 1.6104854,3 1,3.4600369 1,3.96875 L 1,5 5,5 z" />
      <rect
         style="fill:#eeeeec;fill-opacity:1;fill-rule:evenodd;stroke:url(#linearGradient7071);stroke-width:1;stroke-linecap:round;stroke-linejoin:miter;stroke-miterlimit:10;stroke-opacity:1;stroke-dasharray:none"
         id="rect230"
         y="10.5"
         x="19.5"
         ry="0.4826141"
         rx="0.4826141"
         height="4"
         width="2" />
      <rect
         style="opacity:0.21268658;fill:#000000;fill-opacity:1;fill-rule:evenodd;stroke:none"
         id="rect232"
         y="12"
         x="20"
         height="1"
         width="1" />
      <path
         style="opacity:0.15671644;fill:url(#linearGradient7043);fill-opacity:1;fill-rule:evenodd;stroke:none"
         id="path234"
         d="m 11,9 0,1 1,0 0,-1 -1,0 z m 0,2 0,1 1,0 0,-1 -1,0 z m 0,2 0,1 1,0 0,-1 -1,0 z m 0,2 0,1 1,0 0,-1 -1,0 z" />
      <path
         style="opacity:0.1;fill:url(#linearGradient7047);fill-opacity:1;fill-rule:evenodd;stroke:none"
         id="path236"
         d="m 16,9 0,1 1,0 0,-1 -1,0 z m 0,2 0,1 1,0 0,-1 -1,0 z m 0,2 0,1 1,0 0,-1 -1,0 z m 0,2 0,1 1,0 0,-1 -1,0 z" />
      <path
         style="opacity:0.53731342;fill:none;stroke:url(#linearGradient3136);stroke-width:1px;stroke-linecap:round;stroke-linejoin:miter;stroke-opacity:1"
         id="path238"
         d="m 9.5,16.5 2,0" />
    </g>
  </g>
</svg>
