<?xml version="1.0" encoding="UTF-8" standalone="no"?>
<svg
   version="1.1"
   width="32"
   height="32"
   id="svg3182"
   sodipodi:docname="application-vnd.efi.img.svg"
   inkscape:version="1.2.2 (b0a8486541, 2022-12-01)"
   xmlns:inkscape="http://www.inkscape.org/namespaces/inkscape"
   xmlns:sodipodi="http://sodipodi.sourceforge.net/DTD/sodipodi-0.dtd"
   xmlns:xlink="http://www.w3.org/1999/xlink"
   xmlns="http://www.w3.org/2000/svg"
   xmlns:svg="http://www.w3.org/2000/svg"
   xmlns:rdf="http://www.w3.org/1999/02/22-rdf-syntax-ns#"
   xmlns:cc="http://creativecommons.org/ns#"
   xmlns:dc="http://purl.org/dc/elements/1.1/">
  <sodipodi:namedview
     id="namedview3180"
     pagecolor="#ffffff"
     bordercolor="#000000"
     borderopacity="0.25"
     inkscape:showpageshadow="2"
     inkscape:pageopacity="0.0"
     inkscape:pagecheckerboard="0"
     inkscape:deskcolor="#d1d1d1"
     showgrid="false"
     inkscape:zoom="18.73833"
     inkscape:cx="9.6860286"
     inkscape:cy="36.983018"
     inkscape:window-width="1423"
     inkscape:window-height="1051"
     inkscape:window-x="236"
     inkscape:window-y="470"
     inkscape:window-maximized="0"
     inkscape:current-layer="svg3182" />
  <defs
     id="defs3184">
    <linearGradient
       id="linearGradient3977">
      <stop
         id="stop3979"
         style="stop-color:#ffffff;stop-opacity:1"
         offset="0" />
      <stop
         id="stop3981"
         style="stop-color:#ffffff;stop-opacity:0.23529412"
         offset="0" />
      <stop
         id="stop3983"
         style="stop-color:#ffffff;stop-opacity:0.15686275"
         offset="0.99999994" />
      <stop
         id="stop3985"
         style="stop-color:#ffffff;stop-opacity:0.39215687"
         offset="1" />
    </linearGradient>
    <linearGradient
       id="linearGradient3600-4">
      <stop
         id="stop3602-7"
         style="stop-color:#f4f4f4;stop-opacity:1"
         offset="0" />
      <stop
         id="stop3604-6"
         style="stop-color:#dbdbdb;stop-opacity:1"
         offset="1" />
    </linearGradient>
    <linearGradient
       id="linearGradient5060">
      <stop
         id="stop5062"
         style="stop-color:#000000;stop-opacity:1"
         offset="0" />
      <stop
         id="stop5064"
         style="stop-color:#000000;stop-opacity:0"
         offset="1" />
    </linearGradient>
    <linearGradient
       id="linearGradient5048">
      <stop
         id="stop5050"
         style="stop-color:#000000;stop-opacity:0"
         offset="0" />
      <stop
         id="stop5056"
         style="stop-color:#000000;stop-opacity:1"
         offset="0.5" />
      <stop
         id="stop5052"
         style="stop-color:#000000;stop-opacity:0"
         offset="1" />
    </linearGradient>
    <linearGradient
       x1="23.99999"
       y1="6.1851754"
       x2="23.99999"
       y2="41.814808"
       id="linearGradient3013"
       xlink:href="#linearGradient3977"
       gradientUnits="userSpaceOnUse"
       gradientTransform="matrix(0.56756757,0,0,0.72972971,2.378382,-2.5135063)" />
    <linearGradient
       x1="25.132275"
       y1="0.98520643"
       x2="25.132275"
       y2="47.013336"
       id="linearGradient3016"
       xlink:href="#linearGradient3600-4"
       gradientUnits="userSpaceOnUse"
       gradientTransform="matrix(0.62856997,0,0,0.60839392,0.91431981,-0.5347905)" />
    <radialGradient
       cx="605.71429"
       cy="486.64789"
       r="117.14286"
       fx="605.71429"
       fy="486.64789"
       id="radialGradient3021"
       xlink:href="#linearGradient5060"
       gradientUnits="userSpaceOnUse"
       gradientTransform="matrix(0.01566318,0,0,0.00823529,17.610433,25.980565)" />
    <radialGradient
       cx="605.71429"
       cy="486.64789"
       r="117.14286"
       fx="605.71429"
       fy="486.64789"
       id="radialGradient3024"
       xlink:href="#linearGradient5060"
       gradientUnits="userSpaceOnUse"
       gradientTransform="matrix(-0.01566318,0,0,0.00823529,14.389566,25.980565)" />
    <linearGradient
       x1="302.85715"
       y1="366.64789"
       x2="302.85715"
       y2="609.50507"
       id="linearGradient3027"
       xlink:href="#linearGradient5048"
       gradientUnits="userSpaceOnUse"
       gradientTransform="matrix(0.04576928,0,0,0.00823529,-0.5423243,25.980548)" />
    <linearGradient
       id="linearGradient3104-6">
      <stop
         offset="0"
         style="stop-color:#000000;stop-opacity:0.31782946"
         id="stop3106-3" />
      <stop
         offset="1"
         style="stop-color:#000000;stop-opacity:0.24031007"
         id="stop3108-9" />
    </linearGradient>
    <linearGradient
       xlink:href="#linearGradient3104-6"
       id="linearGradient3148"
       gradientUnits="userSpaceOnUse"
       gradientTransform="matrix(0.53064141,0,0,0.58970049,39.269607,-1.791918)"
       x1="-51.786404"
       y1="50.786446"
       x2="-51.786404"
       y2="2.9062471" />
    <linearGradient
       inkscape:collect="always"
       id="linearGradient913">
      <stop
         style="stop-color:#cd9ef7;stop-opacity:1"
         offset="0"
         id="stop909" />
      <stop
         style="stop-color:#a56de2;stop-opacity:1"
         offset="1"
         id="stop911" />
    </linearGradient>
    <linearGradient
       inkscape:collect="always"
       xlink:href="#linearGradient913"
       id="linearGradient3415"
       gradientUnits="userSpaceOnUse"
       x1="26.162539"
       y1="8.3618374e-08"
       x2="26.162539"
       y2="60.000034"
       gradientTransform="matrix(0.5,0,0,0.5,2.25e-5,0)" />
    <linearGradient
       inkscape:collect="always"
       xlink:href="#linearGradient913"
       id="linearGradient3417"
       gradientUnits="userSpaceOnUse"
       x1="26.162533"
       y1="1.0009651"
       x2="26.162539"
       y2="59.000019"
       gradientTransform="matrix(0.66666665,0,0,0.66666665,-5.3333656,-4.6666657)" />
    <linearGradient
       inkscape:collect="always"
       xlink:href="#linearGradient3600-4"
       id="linearGradient10009"
       gradientUnits="userSpaceOnUse"
       gradientTransform="matrix(0.6251266,0.06570345,-0.06359448,0.60506107,3.3383287,-1.5699666)"
       x1="25.132275"
       y1="0.98520643"
       x2="25.132275"
       y2="47.013336" />
  </defs>
  <metadata
     id="metadata3187">
    <rdf:RDF>
      <cc:Work
         rdf:about="">
        <dc:format>image/svg+xml</dc:format>
        <dc:type
           rdf:resource="http://purl.org/dc/dcmitype/StillImage" />
      </cc:Work>
    </rdf:RDF>
  </metadata>
  <rect
     width="22.100021"
     height="2"
     x="4.9499893"
     y="29"
     id="rect2879"
     style="opacity:0.15;fill:url(#linearGradient3027);fill-opacity:1;fill-rule:nonzero;stroke:none;stroke-width:1;marker:none;visibility:visible;display:inline;overflow:visible" />
  <path
     d="m 4.9499887,29.000086 c 0,0 0,1.99989 0,1.99989 -0.806615,0.0038 -1.950002,-0.448074 -1.950002,-1.000074 0,-0.552 0.900121,-0.999816 1.950002,-0.999816 z"
     id="path2881"
     style="opacity:0.15;fill:url(#radialGradient3024);fill-opacity:1;fill-rule:nonzero;stroke:none;stroke-width:1;marker:none;visibility:visible;display:inline;overflow:visible" />
  <path
     d="m 27.050011,29.000086 c 0,0 0,1.99989 0,1.99989 0.806614,0.0038 1.950002,-0.448074 1.950002,-1.000074 0,-0.552 -0.900122,-0.999816 -1.950002,-0.999816 z"
     id="path2883"
     style="opacity:0.15;fill:url(#radialGradient3021);fill-opacity:1;fill-rule:nonzero;stroke:none;stroke-width:1;marker:none;visibility:visible;display:inline;overflow:visible" />
  <path
     d="m 5,1 c 5.041316,0 21.999973,0.00179 21.999973,0.00179 L 27,29 C 27,29 12.333334,29 5,29 5,19.666667 5,10.333336 5,1.0000041 z"
     id="path4160-3"
     style="fill:url(#linearGradient3016);fill-opacity:1;stroke:none;display:inline" />
  <path
     d="m 26.5,28.5 -21,0 0,-27 21,0 z"
     id="rect6741-1"
     style="fill:none;stroke:url(#linearGradient3013);stroke-width:1;stroke-linecap:round;stroke-linejoin:miter;stroke-miterlimit:4;stroke-opacity:1;stroke-dasharray:none;stroke-dashoffset:0" />
  <path
     style="fill:none;stroke:url(#linearGradient3148);stroke-width:0.9999218;stroke-linecap:butt;stroke-linejoin:round;stroke-miterlimit:4;stroke-opacity:1;stroke-dasharray:none;stroke-dashoffset:0;display:inline"
     id="path4160-6-1"
     d="m 4.499961,0.499944 c 5.27048,0 23.000054,0.002 23.000054,0.002 l 2.4e-5,28.998112 c 0,0 -15.333385,0 -23.000078,0 0,-9.666722 0,-19.333346 0,-28.999956 z" />
  <path
     id="path5560"
     style="fill:url(#linearGradient3415);fill-opacity:1;fill-rule:evenodd;stroke:none;stroke-width:2;stroke-linejoin:round;stroke-dasharray:none;stroke-opacity:1;paint-order:markers fill stroke;stop-color:#000000"
     d="M 16 7 C 12.134011 7 9 10.134011 9 14 C 9.006 15.560495 9.5332719 17.074244 10.498047 18.300781 C 11.453143 17.915988 12.561873 17.894978 13.542969 18.322266 L 16.753906 17.177734 C 16.91826 17.118604 17.088232 17.090804 17.251953 17.089844 C 17.749515 17.086944 18.233288 17.331629 18.519531 17.771484 L 18.521484 17.773438 C 18.897509 18.353573 18.82535 19.124791 18.347656 19.625 L 18.345703 19.626953 L 17.138672 20.898438 C 20.516445 20.341481 22.995926 17.423367 23 14 C 23 10.134011 19.865989 7 16 7 z M 16 12 A 2 2 0 0 1 18 14 A 2 2 0 0 1 16 16 A 2 2 0 0 1 14 14 A 2 2 0 0 1 16 12 z " />
  <circle
     style="font-variation-settings:normal;vector-effect:none;fill:url(#linearGradient3417);fill-opacity:1;fill-rule:evenodd;stroke:none;stroke-width:2;stroke-linecap:butt;stroke-linejoin:round;stroke-miterlimit:4;stroke-dasharray:none;stroke-dashoffset:0;stroke-opacity:1;-inkscape-stroke:none;paint-order:markers fill stroke;stop-color:#000000"
     id="circle5769"
     cx="16.000187"
     cy="14"
     r="1" />
  <path
     style="color:#000000;font-variation-settings:normal;opacity:1;vector-effect:none;fill:url(#linearGradient10009);fill-opacity:1;fill-rule:evenodd;stroke:none;stroke-width:1;stroke-linecap:butt;stroke-linejoin:miter;stroke-miterlimit:4;stroke-dasharray:none;stroke-dashoffset:0;stroke-opacity:1;-inkscape-stroke:none;paint-order:markers fill stroke;stop-color:#000000;stop-opacity:1"
     d="m 17.517996,17.314125 c -0.312978,-0.105202 -0.661704,-0.110563 -0.98653,0.0063 l -3.05971,1.102226 c -1.194673,-0.482336 -2.537441,-0.492081 -3.6408286,0.22221 a 1.0001,1.0001 0 0 0 -0.00194,-2.04e-4 c -1.8428034,1.196732 -2.3734619,3.691465 -1.1767317,5.534269 1.1967313,1.842804 3.6914633,2.373463 5.5342683,1.176731 1.103477,-0.717064 1.64232,-1.950742 1.687738,-3.239769 l 2.247798,-2.346253 c 0.477294,-0.497963 0.551212,-1.271815 0.176873,-1.851027 a 1.0001,1.0001 0 0 0 -0.0016,-0.0041 C 18.109062,17.625173 17.830928,17.41933 17.51795,17.314126 Z m -2.310731,2.60869 -0.94855,0.990259 A 1.0001,1.0001 0 0 0 13.989464,21.7371 c 0.102312,0.76744 -0.244098,1.518828 -0.893297,1.940693 -0.936303,0.608043 -2.158019,0.347068 -2.766061,-0.589235 -0.6080422,-0.936301 -0.3470679,-2.158018 0.589235,-2.76606 0.648663,-0.418711 1.473389,-0.42777 2.131313,-0.02344 a 1.0001,1.0001 0 0 0 0.862646,0.08866 z"
     id="path3424" />
  <path
     id="path10344"
     style="font-variation-settings:normal;vector-effect:none;fill:#b27de9;fill-opacity:1;fill-rule:evenodd;stroke:none;stroke-width:2;stroke-linecap:butt;stroke-linejoin:round;stroke-miterlimit:4;stroke-dasharray:none;stroke-dashoffset:0;stroke-opacity:1;-inkscape-stroke:none;paint-order:markers fill stroke;stop-color:#000000"
     d="M 17.257812 18.089844 C 17.202306 18.090171 17.146362 18.099511 17.091797 18.119141 L 13.498047 19.408203 A 3 3 0 0 0 10.373047 19.484375 A 3 3 0 0 0 9.4921875 23.634766 A 3 3 0 0 0 13.642578 24.515625 A 3 3 0 0 0 14.990234 21.699219 L 17.623047 18.935547 C 17.783551 18.768092 17.80781 18.511063 17.681641 18.316406 C 17.586753 18.170597 17.424335 18.088862 17.257812 18.089844 z M 12.037109 21 A 1 1 0 0 1 12.994141 21.894531 A 1 1 0 0 1 12.105469 22.994141 A 1 1 0 0 1 11.005859 22.105469 A 1 1 0 0 1 11.894531 21.005859 A 1 1 0 0 1 12.037109 21 z " />
</svg>
