<?xml version="1.0" encoding="UTF-8" standalone="no"?>
<svg
   version="1.1"
   width="32"
   height="32"
   id="svg3182"
   sodipodi:docname="application-x-perl.svg"
   inkscape:version="1.1.2 (0a00cf5339, 2022-02-04)"
   xmlns:inkscape="http://www.inkscape.org/namespaces/inkscape"
   xmlns:sodipodi="http://sodipodi.sourceforge.net/DTD/sodipodi-0.dtd"
   xmlns:xlink="http://www.w3.org/1999/xlink"
   xmlns="http://www.w3.org/2000/svg"
   xmlns:svg="http://www.w3.org/2000/svg"
   xmlns:rdf="http://www.w3.org/1999/02/22-rdf-syntax-ns#"
   xmlns:cc="http://creativecommons.org/ns#"
   xmlns:dc="http://purl.org/dc/elements/1.1/">
  <sodipodi:namedview
     id="namedview41"
     pagecolor="#ffffff"
     bordercolor="#666666"
     borderopacity="1.0"
     inkscape:pageshadow="2"
     inkscape:pageopacity="0.0"
     inkscape:pagecheckerboard="0"
     showgrid="false"
     inkscape:zoom="10.65625"
     inkscape:cx="7.3196482"
     inkscape:cy="9.0087978"
     inkscape:window-width="1317"
     inkscape:window-height="893"
     inkscape:window-x="491"
     inkscape:window-y="135"
     inkscape:window-maximized="0"
     inkscape:current-layer="svg3182" />
  <defs
     id="defs3184">
    <linearGradient
       id="linearGradient3977">
      <stop
         id="stop3979"
         style="stop-color:#ffffff;stop-opacity:1"
         offset="0" />
      <stop
         id="stop3981"
         style="stop-color:#ffffff;stop-opacity:0.23529412"
         offset="0" />
      <stop
         id="stop3983"
         style="stop-color:#ffffff;stop-opacity:0.15686275"
         offset="0.99999994" />
      <stop
         id="stop3985"
         style="stop-color:#ffffff;stop-opacity:0.39215687"
         offset="1" />
    </linearGradient>
    <linearGradient
       id="linearGradient3600-4">
      <stop
         id="stop3602-7"
         style="stop-color:#f4f4f4;stop-opacity:1"
         offset="0" />
      <stop
         id="stop3604-6"
         style="stop-color:#dbdbdb;stop-opacity:1"
         offset="1" />
    </linearGradient>
    <linearGradient
       id="linearGradient5060">
      <stop
         id="stop5062"
         style="stop-color:#000000;stop-opacity:1"
         offset="0" />
      <stop
         id="stop5064"
         style="stop-color:#000000;stop-opacity:0"
         offset="1" />
    </linearGradient>
    <linearGradient
       id="linearGradient5048">
      <stop
         id="stop5050"
         style="stop-color:#000000;stop-opacity:0"
         offset="0" />
      <stop
         id="stop5056"
         style="stop-color:#000000;stop-opacity:1"
         offset="0.5" />
      <stop
         id="stop5052"
         style="stop-color:#000000;stop-opacity:0"
         offset="1" />
    </linearGradient>
    <linearGradient
       x1="23.99999"
       y1="6.1851754"
       x2="23.99999"
       y2="41.814808"
       id="linearGradient3013"
       xlink:href="#linearGradient3977"
       gradientUnits="userSpaceOnUse"
       gradientTransform="matrix(0.56756757,0,0,0.72972971,2.378382,-2.5135063)" />
    <linearGradient
       x1="25.132275"
       y1="0.98520643"
       x2="25.132275"
       y2="47.013336"
       id="linearGradient3016"
       xlink:href="#linearGradient3600-4"
       gradientUnits="userSpaceOnUse"
       gradientTransform="matrix(0.62856997,0,0,0.60839392,0.91431981,-0.5347905)" />
    <radialGradient
       cx="605.71429"
       cy="486.64789"
       r="117.14286"
       fx="605.71429"
       fy="486.64789"
       id="radialGradient3021"
       xlink:href="#linearGradient5060"
       gradientUnits="userSpaceOnUse"
       gradientTransform="matrix(0.01566318,0,0,0.00823529,17.610433,25.980565)" />
    <radialGradient
       cx="605.71429"
       cy="486.64789"
       r="117.14286"
       fx="605.71429"
       fy="486.64789"
       id="radialGradient3024"
       xlink:href="#linearGradient5060"
       gradientUnits="userSpaceOnUse"
       gradientTransform="matrix(-0.01566318,0,0,0.00823529,14.389566,25.980565)" />
    <linearGradient
       x1="302.85715"
       y1="366.64789"
       x2="302.85715"
       y2="609.50507"
       id="linearGradient3027"
       xlink:href="#linearGradient5048"
       gradientUnits="userSpaceOnUse"
       gradientTransform="matrix(0.04576928,0,0,0.00823529,-0.5423243,25.980548)" />
    <linearGradient
       id="linearGradient3104-6">
      <stop
         offset="0"
         style="stop-color:#000000;stop-opacity:0.31782946"
         id="stop3106-3" />
      <stop
         offset="1"
         style="stop-color:#000000;stop-opacity:0.24031007"
         id="stop3108-9" />
    </linearGradient>
    <linearGradient
       xlink:href="#linearGradient3104-6"
       id="linearGradient3148"
       gradientUnits="userSpaceOnUse"
       gradientTransform="matrix(0.53064141,0,0,0.58970049,39.269607,-1.791918)"
       x1="-51.786404"
       y1="50.786446"
       x2="-51.786404"
       y2="2.9062471" />
  </defs>
  <metadata
     id="metadata3187">
    <rdf:RDF>
      <cc:Work
         rdf:about="">
        <dc:format>image/svg+xml</dc:format>
        <dc:type
           rdf:resource="http://purl.org/dc/dcmitype/StillImage" />
      </cc:Work>
    </rdf:RDF>
  </metadata>
  <rect
     width="22.100021"
     height="2"
     x="4.9499893"
     y="29"
     id="rect2879"
     style="opacity:0.15;fill:url(#linearGradient3027);fill-opacity:1;fill-rule:nonzero;stroke:none;stroke-width:1;marker:none;visibility:visible;display:inline;overflow:visible" />
  <path
     d="m 4.9499887,29.000086 c 0,0 0,1.99989 0,1.99989 -0.806615,0.0038 -1.950002,-0.448074 -1.950002,-1.000074 0,-0.552 0.900121,-0.999816 1.950002,-0.999816 z"
     id="path2881"
     style="opacity:0.15;fill:url(#radialGradient3024);fill-opacity:1;fill-rule:nonzero;stroke:none;stroke-width:1;marker:none;visibility:visible;display:inline;overflow:visible" />
  <path
     d="m 27.050011,29.000086 c 0,0 0,1.99989 0,1.99989 0.806614,0.0038 1.950002,-0.448074 1.950002,-1.000074 0,-0.552 -0.900122,-0.999816 -1.950002,-0.999816 z"
     id="path2883"
     style="opacity:0.15;fill:url(#radialGradient3021);fill-opacity:1;fill-rule:nonzero;stroke:none;stroke-width:1;marker:none;visibility:visible;display:inline;overflow:visible" />
  <path
     d="m 5,1 c 5.041316,0 21.999973,0.00179 21.999973,0.00179 L 27,29 C 27,29 12.333334,29 5,29 5,19.666667 5,10.333336 5,1.0000041 z"
     id="path4160-3"
     style="fill:url(#linearGradient3016);fill-opacity:1;stroke:none;display:inline" />
  <path
     d="m 26.5,28.5 -21,0 0,-27 21,0 z"
     id="rect6741-1"
     style="fill:none;stroke:url(#linearGradient3013);stroke-width:1;stroke-linecap:round;stroke-linejoin:miter;stroke-miterlimit:4;stroke-opacity:1;stroke-dasharray:none;stroke-dashoffset:0" />
  <path
     style="fill:none;stroke:url(#linearGradient3148);stroke-width:0.9999218;stroke-linecap:butt;stroke-linejoin:round;stroke-miterlimit:4;stroke-opacity:1;stroke-dasharray:none;stroke-dashoffset:0;display:inline"
     id="path4160-6-1"
     d="m 4.499961,0.499944 c 5.27048,0 23.000054,0.002 23.000054,0.002 l 2.4e-5,28.998112 c 0,0 -15.333385,0 -23.000078,0 0,-9.666722 0,-19.333346 0,-28.999956 z" />
  <path
     id="path925-6"
     style="display:inline;fill:#8cd5ff;fill-opacity:0.2;fill-rule:evenodd;stroke:none;stroke-width:2;stroke-linecap:round;stroke-linejoin:round;stroke-miterlimit:4;stroke-dasharray:none;stroke-opacity:1;enable-background:new"
     d="M 8.7039392,6.6570674 C 8.13507,6.6635774 7.7499999,6.7817803 7.7499999,6.7817803 c 0,0 1.0558404,3.4509047 3.0358321,3.1092085 L 10.97662,9.1781952 c -0.01863,1.6524248 0.548869,3.6795648 0.737993,4.3074148 -0.632525,1.650375 -1.512971,4.312324 -1.245362,5.771715 0.20911,1.140374 0.632998,2.01532 1.409942,2.627024 h -0.103257 c -0.527998,2.186844 1.056076,2.733497 4.224064,1.640077 3.167988,1.09342 4.75206,0.546767 4.224063,-1.640077 h -0.103257 c 0.776946,-0.611704 1.200833,-1.48665 1.409944,-2.627024 0.267608,-1.459391 -0.612837,-4.12134 -1.245363,-5.771715 0.189123,-0.62785 0.756618,-2.65499 0.737993,-4.3074148 l 0.190787,0.7127936 C 23.19416,10.232685 24.25,6.7817803 24.25,6.7817803 c 0,0 -1.939327,-0.5916074 -3.540057,0.8084803 -0.30405,-0.5501758 -1.038125,-0.9331932 -1.542026,-0.9331932 -1.070563,0 -1.583923,0.4660591 -3.167917,0.4660591 -1.583995,0 -2.097355,-0.4660591 -3.167917,-0.4660591 -0.503903,0 -1.237978,0.3830174 -1.542026,0.9331932 C 10.402785,6.8142027 9.4113975,6.6489342 8.7039392,6.6570674 Z"
     sodipodi:nodetypes="sccccscccccscccccssscs" />
  <path
     style="display:inline;fill:none;fill-rule:evenodd;stroke:#3689e6;stroke-width:0.8;stroke-linecap:round;stroke-linejoin:round;stroke-miterlimit:4;stroke-dasharray:none;stroke-opacity:1;enable-background:new"
     d="m 12.191813,11.942965 c 0,0 -2.3087067,5.144511 -1.890291,7.423456 0.290989,1.584908 0.983661,2.672701 2.434318,3.265944 C 13.595714,22.98401 16,22.069765 16,22.069765 v -3.938201 0 0 c 0,0 -2.176107,-0.738412 -2.618129,-3.586575 0,0 0.233887,2.434014 0.675908,2.504338"
     id="path925"
     inkscape:connector-curvature="0"
     sodipodi:nodetypes="csscccccc" />
  <path
     style="display:inline;fill:none;fill-rule:evenodd;stroke:#3689e6;stroke-width:0.8;stroke-linecap:butt;stroke-linejoin:miter;stroke-miterlimit:4;stroke-dasharray:none;stroke-opacity:1;enable-background:new"
     d="M 11.239766,7.4421641 C 9.5736833,5.8950142 7.4995808,6.5279394 7.4995808,6.5279394 c 0,0 1.0880542,3.5514116 3.1281552,3.1997874"
     id="path927"
     inkscape:connector-curvature="0"
     sodipodi:nodetypes="ccc" />
  <path
     style="display:inline;fill:none;fill-rule:evenodd;stroke:#3689e6;stroke-width:0.8;stroke-linecap:round;stroke-linejoin:miter;stroke-miterlimit:4;stroke-dasharray:none;stroke-opacity:1;enable-background:new"
     d="M 11.647786,22.069765 C 11.103759,24.320166 12.73584,24.882766 16,23.757564 c 3.264161,1.125202 4.896242,0.562602 4.352215,-1.687799"
     id="path932"
     inkscape:connector-curvature="0"
     sodipodi:nodetypes="ccc" />
  <path
     style="display:inline;fill:none;fill-rule:evenodd;stroke:#3689e6;stroke-width:0.8;stroke-linecap:butt;stroke-linejoin:round;stroke-miterlimit:4;stroke-dasharray:none;stroke-opacity:1;enable-background:new"
     d="m 12.851937,9.307608 c 1.030931,-0.495307 2.126559,0.1119268 2.089571,0.1740368 0,0 -0.35599,1.5267102 -1.1974,1.3950022 -0.788189,-0.123376 -0.89151,-1.2228342 -0.892171,-1.569039 z"
     id="path938-7"
     inkscape:connector-curvature="0"
     sodipodi:nodetypes="ccsc" />
  <path
     sodipodi:nodetypes="ccsscsscc"
     inkscape:connector-curvature="0"
     id="path947"
     d="m 20.352215,13.630764 v 0 c 0,0 1.408158,-4.319908 0.544027,-6.1885999 C 20.614162,6.8321654 19.808188,6.4 19.264161,6.4 18.161099,6.4 17.632081,6.8795643 16,6.8795643 14.36792,6.8795643 13.838901,6.4 12.73584,6.4 c -0.544027,0 -1.350001,0.4321654 -1.632081,1.0421641 -0.864131,1.8686919 0.544027,6.1885999 0.544027,6.1885999 v 0"
     style="display:inline;fill:none;fill-rule:evenodd;stroke:#3689e6;stroke-width:0.8;stroke-linecap:butt;stroke-linejoin:miter;stroke-miterlimit:4;stroke-dasharray:none;stroke-opacity:1;enable-background:new" />
  <path
     sodipodi:nodetypes="csscccccc"
     inkscape:connector-curvature="0"
     id="path949"
     d="m 19.808188,11.942965 c 0,0 2.308707,5.144511 1.890291,7.423456 -0.290989,1.584908 -0.983661,2.672701 -2.434318,3.265944 C 18.404286,22.98401 16,22.069765 16,22.069765 v -3.938201 0 0 c 0,0 2.176107,-0.738412 2.618129,-3.586575 0,0 -0.25793,2.48374 -0.699951,2.554065"
     style="display:inline;fill:none;fill-rule:evenodd;stroke:#3689e6;stroke-width:0.8;stroke-linecap:round;stroke-linejoin:round;stroke-miterlimit:4;stroke-dasharray:none;stroke-opacity:1;enable-background:new" />
  <path
     sodipodi:nodetypes="ccc"
     inkscape:connector-curvature="0"
     id="path951"
     d="m 20.760235,7.4421641 c 1.666082,-1.5471499 3.740184,-0.9142247 3.740184,-0.9142247 0,0 -1.088054,3.5514116 -3.128154,3.1997874"
     style="display:inline;fill:none;fill-rule:evenodd;stroke:#3689e6;stroke-width:0.8;stroke-linecap:butt;stroke-linejoin:miter;stroke-miterlimit:4;stroke-dasharray:none;stroke-opacity:1;enable-background:new" />
  <path
     sodipodi:nodetypes="ccsc"
     inkscape:connector-curvature="0"
     id="path955"
     d="m 19.148064,9.307608 c -1.030931,-0.495307 -2.12656,0.1119268 -2.089571,0.1740368 0,0 0.35599,1.5267102 1.1974,1.3950022 0.788189,-0.123376 0.891511,-1.2228342 0.892171,-1.569039 z"
     style="display:inline;fill:none;fill-rule:evenodd;stroke:#3689e6;stroke-width:0.8;stroke-linecap:butt;stroke-linejoin:round;stroke-miterlimit:4;stroke-dasharray:none;stroke-opacity:1;enable-background:new" />
</svg>
