<?xml version="1.0" encoding="UTF-8" standalone="no"?>
<svg
   version="1.1"
   width="32"
   height="32"
   id="svg6860"
   sodipodi:docname="application-vnd.rar.svg"
   inkscape:version="1.2.2 (b0a8486541, 2022-12-01)"
   xmlns:inkscape="http://www.inkscape.org/namespaces/inkscape"
   xmlns:sodipodi="http://sodipodi.sourceforge.net/DTD/sodipodi-0.dtd"
   xmlns:xlink="http://www.w3.org/1999/xlink"
   xmlns="http://www.w3.org/2000/svg"
   xmlns:svg="http://www.w3.org/2000/svg"
   xmlns:rdf="http://www.w3.org/1999/02/22-rdf-syntax-ns#"
   xmlns:cc="http://creativecommons.org/ns#"
   xmlns:dc="http://purl.org/dc/elements/1.1/">
  <sodipodi:namedview
     id="namedview7015"
     pagecolor="#ffffff"
     bordercolor="#000000"
     borderopacity="0.25"
     inkscape:showpageshadow="2"
     inkscape:pageopacity="0.0"
     inkscape:pagecheckerboard="0"
     inkscape:deskcolor="#d1d1d1"
     showgrid="false"
     inkscape:zoom="37.476659"
     inkscape:cx="15.72979"
     inkscape:cy="25.242378"
     inkscape:window-width="1423"
     inkscape:window-height="1051"
     inkscape:window-x="540"
     inkscape:window-y="159"
     inkscape:window-maximized="0"
     inkscape:current-layer="svg6860" />
  <defs
     id="defs6862">
    <linearGradient
       xlink:href="#linearGradient121303"
       id="linearGradient121764"
       gradientUnits="userSpaceOnUse"
       gradientTransform="matrix(0.68006824,0,0,0.57741648,-0.31214791,4.5822458)"
       x1="25.086039"
       y1="-1.3623691"
       x2="25.086039"
       y2="18.299334" />
    <linearGradient
       id="linearGradient121303">
      <stop
         id="stop121295"
         style="stop-color:#ffffff;stop-opacity:1"
         offset="0" />
      <stop
         id="stop121297"
         style="stop-color:#ffffff;stop-opacity:0.23529412"
         offset="0.11419468" />
      <stop
         id="stop121299"
         style="stop-color:#ffffff;stop-opacity:0.15686275"
         offset="0.93896598" />
      <stop
         id="stop121301"
         style="stop-color:#ffffff;stop-opacity:0.39215687"
         offset="1" />
    </linearGradient>
    <linearGradient
       xlink:href="#linearGradient3924-2-2-5-8"
       id="linearGradient121760"
       gradientUnits="userSpaceOnUse"
       gradientTransform="matrix(0.67567599,0,0,0.56756767,-0.2162231,4.378376)"
       x1="23.99999"
       y1="6.4195485"
       x2="23.99999"
       y2="41.544617" />
    <linearGradient
       id="linearGradient3924-2-2-5-8">
      <stop
         id="stop3926-9-4-9-6"
         style="stop-color:#ffffff;stop-opacity:1"
         offset="0" />
      <stop
         id="stop3928-9-8-6-5"
         style="stop-color:#ffffff;stop-opacity:0.23529412"
         offset="0.07611413" />
      <stop
         id="stop3930-3-5-1-7"
         style="stop-color:#ffffff;stop-opacity:0.15686275"
         offset="0.9069767" />
      <stop
         id="stop3932-8-0-4-8"
         style="stop-color:#ffffff;stop-opacity:0.39215687"
         offset="1" />
    </linearGradient>
    <linearGradient
       xlink:href="#d"
       id="linearGradient121758"
       gradientUnits="userSpaceOnUse"
       gradientTransform="matrix(0.83927807,0,0,0.76888647,-3.730718,-3.10373)"
       x1="23.452"
       y1="30.555"
       x2="43.007"
       y2="45.933998" />
    <linearGradient
       id="d">
      <stop
         offset="0"
         stop-color="#fff"
         stop-opacity="0"
         id="stop65" />
      <stop
         offset="1"
         stop-color="#fff"
         stop-opacity="0"
         id="stop67" />
    </linearGradient>
    <linearGradient
       xlink:href="#linearGradient106305"
       id="linearGradient121756"
       gradientUnits="userSpaceOnUse"
       gradientTransform="matrix(0.8443639,0,0,0.91410403,27.630994,-10.542232)"
       x1="-5.8870335"
       y1="19.239614"
       x2="-5.8870335"
       y2="43.792946" />
    <linearGradient
       id="linearGradient106305">
      <stop
         offset="0"
         stop-color="#dac197"
         id="stop106301"
         style="stop-color:#e7c591;stop-opacity:1" />
      <stop
         offset="1"
         stop-color="#b19974"
         id="stop106303"
         style="stop-color:#cfa25e;stop-opacity:1" />
    </linearGradient>
    <linearGradient
       xlink:href="#linearGradient106305"
       id="linearGradient1703"
       gradientUnits="userSpaceOnUse"
       gradientTransform="matrix(0.8443639,0,0,0.90745565,27.630994,-10.25101)"
       x1="-5.8870335"
       y1="11.482978"
       x2="-5.8870335"
       y2="22.148865" />
    <radialGradient
       cx="5"
       cy="41.5"
       fx="5"
       fy="41.5"
       gradientTransform="matrix(1.0028871,0,0,1.6,-14.229948,-106.87522)"
       gradientUnits="userSpaceOnUse"
       xlink:href="#g"
       id="k-0-7-3-9-3"
       r="5" />
    <linearGradient
       id="g">
      <stop
         offset="0"
         id="stop13" />
      <stop
         offset="1"
         stop-opacity="0"
         id="stop15" />
    </linearGradient>
    <linearGradient
       xlink:href="#h"
       id="linearGradient121754"
       gradientUnits="userSpaceOnUse"
       gradientTransform="matrix(2.1304332,0,0,1.45455,-83.781828,-18.434784)"
       x1="17.554001"
       y1="46"
       x2="17.554001"
       y2="35" />
    <linearGradient
       id="h">
      <stop
         offset="0"
         stop-opacity="0"
         id="stop54" />
      <stop
         offset=".5"
         id="stop56" />
      <stop
         offset="1"
         stop-opacity="0"
         id="stop58" />
    </linearGradient>
    <radialGradient
       cx="5"
       cy="41.5"
       fx="5"
       fy="41.5"
       gradientTransform="matrix(1.0028871,0,0,1.6,53.201858,-106.87522)"
       gradientUnits="userSpaceOnUse"
       xlink:href="#g"
       id="i-6-9-7-8-9"
       r="5" />
    <linearGradient
       y2="8.3470001"
       y1="21.915001"
       x2="24.537001"
       x1="24.537001"
       id="n"
       xlink:href="#g-3"
       gradientUnits="userSpaceOnUse"
       gradientTransform="matrix(0.9899,0,0,0.6901,-7.737,-3.78)" />
    <linearGradient
       id="g-3">
      <stop
         id="stop18"
         stop-color="#fff"
         offset="0" />
      <stop
         id="stop20"
         stop-color="#fff"
         offset="0.35662466" />
      <stop
         id="stop22"
         stop-opacity=".643"
         stop-color="#fff"
         offset="0.46007031" />
      <stop
         id="stop24"
         stop-opacity=".391"
         stop-color="#fff"
         offset="1" />
    </linearGradient>
  </defs>
  <metadata
     id="metadata6865">
    <rdf:RDF>
      <cc:Work
         rdf:about="">
        <dc:format>image/svg+xml</dc:format>
        <dc:type
           rdf:resource="http://purl.org/dc/dcmitype/StillImage" />
      </cc:Work>
    </rdf:RDF>
  </metadata>
  <g
     id="g2277"
     transform="matrix(0.50847457,0,0,0.5625,33.144155,4.732691)"
     style="stroke-width:1.86984">
    <rect
       fill="url(#i)"
       height="16"
       opacity="0.4"
       transform="scale(-1)"
       width="5"
       x="58.216839"
       y="-48.475216"
       id="rect77-9-90-2-7-8"
       style="fill:url(#i-6-9-7-8-9);stroke-width:1.86984" />
    <rect
       fill="url(#j)"
       height="16"
       opacity="0.4"
       width="49"
       x="-58.216839"
       y="32.475216"
       id="rect79-7-2-0-1-4"
       style="fill:url(#linearGradient121754);stroke-width:1.86984" />
    <rect
       fill="url(#k)"
       height="16"
       opacity="0.4"
       transform="scale(1,-1)"
       width="5"
       x="-9.2168379"
       y="-48.475216"
       id="rect81-3-8-6-7-8"
       style="fill:url(#k-0-7-3-9-3);stroke-width:1.86984" />
  </g>
  <path
     id="rect5505-21-1-5-0-6-5-1-2-5-10"
     style="color:#000000;font-variation-settings:normal;display:inline;overflow:visible;visibility:visible;vector-effect:none;fill:url(#linearGradient1703);fill-opacity:1;fill-rule:nonzero;stroke:none;stroke-width:0.999999;stroke-linecap:butt;stroke-linejoin:miter;stroke-miterlimit:4;stroke-dasharray:none;stroke-dashoffset:0;stroke-opacity:0.3;-inkscape-stroke:none;marker:none;enable-background:accumulate;stop-color:#000000"
     d="m 7.409088,2.499998 c -1.631783,0 -2.282728,0.9634046 -2.945456,2.4545458 C 3.95565,6.0944933 3.364609,7.2739536 2.895025,8.3909079 2.64528,8.8239575 2.499996,9.3258405 2.499996,9.8636354 h 27.000008 c 0,-0.5377949 -0.145285,-1.0396779 -0.39503,-1.4727275 C 28.622661,7.2796103 28.058552,6.0881021 27.536366,4.9545438 26.853561,3.4724877 26.222694,2.499998 24.590911,2.499998 Z" />
  <path
     id="rect5505-21-1-5-0-6-5-1-2-3"
     style="color:#000000;font-variation-settings:normal;display:inline;overflow:visible;visibility:visible;vector-effect:none;fill:url(#linearGradient121756);fill-opacity:1;fill-rule:nonzero;stroke:none;stroke-width:0.999999;stroke-linecap:butt;stroke-linejoin:miter;stroke-miterlimit:4;stroke-dasharray:none;stroke-dashoffset:0;stroke-opacity:0.3;-inkscape-stroke:none;marker:none;enable-background:accumulate;stop-color:#000000"
     d="m 5.455426,6.9999997 c -1.227273,0 -2.945455,1.0775483 -2.945455,3.7087933 v 15.824184 c 0,0.124618 0.01007,0.246631 0.02494,0.367017 0.0034,0.02792 0.0083,0.05539 0.01246,0.08306 0.01482,0.09723 0.03358,0.193045 0.05753,0.286851 0.0061,0.02421 0.01154,0.04847 0.01821,0.07244 0.06723,0.23804 0.161842,0.464468 0.281889,0.67415 3.54e-4,6.43e-4 4.91e-4,0.0013 9.82e-4,0.0019 0.508258,0.886334 1.456214,1.481589 2.549434,1.481589 h 21.109098 c 1.09322,0 2.041176,-0.595255 2.549468,-1.481586 2.75e-4,-6.43e-4 4.91e-4,-0.0013 9.82e-4,-0.0019 0.120047,-0.209682 0.21465,-0.43611 0.28189,-0.67415 0.0067,-0.02395 0.01213,-0.04823 0.01821,-0.07244 0.02396,-0.0938 0.04271,-0.189622 0.05753,-0.286851 0.0039,-0.02767 0.0091,-0.05514 0.01246,-0.08306 0.01488,-0.120389 0.02489,-0.242402 0.02489,-0.36702 V 10.956045 c 0,-1.8522532 -0.736365,-3.9560453 -2.945456,-3.9560453 z" />
  <path
     d="m 6.754122,6.5941804 h 18.099824 c 1.056927,0 1.710818,0.3642546 2.153619,1.3657092 l 1.524273,4.2021824 v 15.148966 c 0,0.9558 -0.536073,1.437382 -1.59251,1.437382 H 4.859212 c -1.056437,0 -1.487455,-0.529691 -1.487455,-1.485491 V 12.16109 L 4.84694,7.8690715 C 5.141485,7.093435 5.697685,6.5936894 6.754122,6.5936894 Z"
     display="block"
     fill="none"
     opacity="0.505"
     overflow="visible"
     stroke="url(#m)"
     stroke-width="0.741999"
     style="stroke:url(#linearGradient121758);marker:none"
     id="path85-1-8-5-7-0" />
  <rect
     style="opacity:0.3;fill:none;stroke:url(#linearGradient121760);stroke-width:0.999993;stroke-linecap:round;stroke-linejoin:round;stroke-miterlimit:4;stroke-dasharray:none;stroke-dashoffset:0;stroke-opacity:1"
     id="rect6741-5-0-2-3-4-2-4"
     y="7.4999967"
     x="3.4999945"
     ry="2"
     height="21.000006"
     width="25"
     rx="2" />
  <path
     id="rect5505-21-1-5-0-6-5-1-2-5-1-4"
     style="color:#000000;font-variation-settings:normal;display:inline;overflow:visible;visibility:visible;vector-effect:none;fill:none;fill-opacity:1;fill-rule:nonzero;stroke:#804b00;stroke-width:0.999999;stroke-linecap:butt;stroke-linejoin:miter;stroke-miterlimit:4;stroke-dasharray:none;stroke-dashoffset:0;stroke-opacity:0.5;-inkscape-stroke:none;marker:none;enable-background:accumulate;stop-color:#000000"
     d="m 7.409088,2.499998 c -1.631783,0 -2.282728,0.9634046 -2.945456,2.4545458 C 3.95565,6.0944933 3.364609,7.2739536 2.895025,8.3909079 2.64528,8.8239575 2.499996,9.3258405 2.499996,9.8636354 V 26.554547 c 0,1.631782 1.313673,2.945455 2.945455,2.945455 h 21.109098 c 1.631782,0 2.945455,-1.313673 2.945455,-2.945455 V 9.8636354 c 0,-0.5377949 -0.145285,-1.0396779 -0.39503,-1.4727275 C 28.622661,7.2796103 28.058552,6.0881021 27.536366,4.9545438 26.853561,3.4724877 26.222694,2.499998 24.590911,2.499998 Z" />
  <path
     id="rect5505-21-1-5-0-6-5-1-2-5-1-7-7"
     style="color:#000000;font-variation-settings:normal;display:inline;overflow:visible;visibility:visible;opacity:0.15;vector-effect:none;fill:none;fill-opacity:1;fill-rule:nonzero;stroke:url(#linearGradient121764);stroke-width:0.999985;stroke-linecap:round;stroke-linejoin:round;stroke-miterlimit:4;stroke-dasharray:none;stroke-dashoffset:0;stroke-opacity:1;-inkscape-stroke:none;marker:none;enable-background:accumulate;stop-color:#000000"
     d="M 27.939447,8.24764 26.713012,5.5891427 C 26.389792,4.8875574 26.095663,4.2796771 25.745409,3.9440426 25.395152,3.608408 25.000475,3.4999945 24.308599,3.4999945 H 7.6918375 c -0.6927864,0 -1.1115917,0.1147024 -1.4630502,0.4487205 C 5.8773288,4.2827333 5.6023931,4.8801917 5.2901985,5.5826531 v 9.495e-4 L 4.0510426,8.24764" />
  <path
     id="path87"
     style="overflow:visible;opacity:0.3;fill:url(#n);marker:none"
     overflow="visible"
     d="m 14.37,2 h 3.3 L 18,8.331 v 3.071 c -0.39,0 -0.78,-0.532 -1.17,-0.532 -0.398,0 -0.797,0.532 -1.196,0.532 -0.322,0 -0.643,-0.466 -0.964,-0.466 -0.21,0 -0.42,0.466 -0.63,0.466 0,0 -0.09,-1.325 0,-3.07 z" />
  <path
     style="font-style:normal;font-variant:normal;font-weight:bold;font-stretch:normal;font-size:12px;line-height:100%;font-family:'URW Gothic L';-inkscape-font-specification:'URW Gothic L Semi-Bold';text-align:start;writing-mode:lr-tb;text-anchor:start;display:inline;opacity:0.5;fill:#000000;fill-opacity:1;stroke:none;stroke-width:0.999999px;stroke-linecap:butt;stroke-linejoin:miter;stroke-opacity:1"
     d="m 8.5000129,25.739362 c 0.5395704,0 1.079141,0 1.6187111,0 0.01296,-1.371974 -0.02712,-2.746144 0.02229,-4.116618 0.02607,-0.738074 0.711372,-1.271204 1.426024,-1.226348 0,-0.519288 0,-1.038573 0,-1.557858 -0.64196,-0.0741 -1.270377,0.247322 -1.5821988,0.815441 -0.0455,-0.199411 0.0949,-0.584725 -0.07752,-0.65722 -0.4691067,0 -0.9382135,0 -1.4073203,0 0,2.247532 0,4.495068 0,6.742603 z M 19.226256,18.996759 c -0.494943,0 -0.989886,0 -1.484832,0 0,0.300212 0,0.600424 0,0.900638 -0.612444,-0.913484 -1.801112,-1.205944 -2.836607,-1.006359 -1.455851,0.205292 -2.611685,1.491939 -2.76131,2.938407 -0.23093,1.463586 0.451056,3.109554 1.84437,3.738973 1.172683,0.551718 2.746336,0.455193 3.632526,-0.573393 0.226142,-0.301121 0.07926,0.354395 0.121021,0.526896 -0.10461,0.345026 0.299732,0.181141 0.503829,0.217441 0.327002,0 0.654004,0 0.981003,0 0,-2.247535 0,-4.495071 0,-6.742603 z m -3.51735,1.326611 c 1.034547,-0.04953 1.939077,0.846641 1.974258,1.867289 0.10629,0.957957 -0.483906,2.047134 -1.504161,2.181772 -0.969363,0.218971 -2.114092,-0.310289 -2.358725,-1.322051 -0.319136,-1.059054 0.228781,-2.409635 1.37342,-2.664823 0.168211,-0.04236 0.341828,-0.06222 0.515208,-0.06219 z m 4.724158,5.415992 c 0.539571,0 1.079143,0 1.618711,0 0.0129,-1.371974 -0.027,-2.746144 0.0222,-4.116618 0.0261,-0.738074 0.711373,-1.271204 1.426026,-1.226348 0,-0.519288 0,-1.038573 -3e-6,-1.557858 -0.641959,-0.0741 -1.270376,0.247322 -1.582198,0.815441 -0.04551,-0.199411 0.09489,-0.584725 -0.07752,-0.65722 -0.469107,0 -0.938214,0 -1.407321,0 0,2.247532 0,4.495068 0,6.742603 z"
     id="text3329" />
</svg>
