<?xml version="1.0" encoding="UTF-8" standalone="no"?>
<svg
   version="1.1"
   width="32"
   height="32"
   id="svg3182"
   sodipodi:docname="text-rust.svg"
   inkscape:version="1.1.2 (0a00cf5339, 2022-02-04)"
   xmlns:inkscape="http://www.inkscape.org/namespaces/inkscape"
   xmlns:sodipodi="http://sodipodi.sourceforge.net/DTD/sodipodi-0.dtd"
   xmlns:xlink="http://www.w3.org/1999/xlink"
   xmlns="http://www.w3.org/2000/svg"
   xmlns:svg="http://www.w3.org/2000/svg"
   xmlns:rdf="http://www.w3.org/1999/02/22-rdf-syntax-ns#"
   xmlns:cc="http://creativecommons.org/ns#"
   xmlns:dc="http://purl.org/dc/elements/1.1/">
  <sodipodi:namedview
     id="namedview41"
     pagecolor="#ffffff"
     bordercolor="#666666"
     borderopacity="1.0"
     inkscape:pageshadow="2"
     inkscape:pageopacity="0.0"
     inkscape:pagecheckerboard="0"
     showgrid="false"
     inkscape:zoom="30.140427"
     inkscape:cx="13.254623"
     inkscape:cy="10.61697"
     inkscape:window-width="1317"
     inkscape:window-height="893"
     inkscape:window-x="515"
     inkscape:window-y="67"
     inkscape:window-maximized="0"
     inkscape:current-layer="svg3182"
     inkscape:snap-object-midpoints="true"
     inkscape:snap-center="true" />
  <defs
     id="defs3184">
    <linearGradient
       id="linearGradient3977">
      <stop
         id="stop3979"
         style="stop-color:#ffffff;stop-opacity:1"
         offset="0" />
      <stop
         id="stop3981"
         style="stop-color:#ffffff;stop-opacity:0.23529412"
         offset="0" />
      <stop
         id="stop3983"
         style="stop-color:#ffffff;stop-opacity:0.15686275"
         offset="0.99999994" />
      <stop
         id="stop3985"
         style="stop-color:#ffffff;stop-opacity:0.39215687"
         offset="1" />
    </linearGradient>
    <linearGradient
       id="linearGradient3600-4">
      <stop
         id="stop3602-7"
         style="stop-color:#f4f4f4;stop-opacity:1"
         offset="0" />
      <stop
         id="stop3604-6"
         style="stop-color:#dbdbdb;stop-opacity:1"
         offset="1" />
    </linearGradient>
    <linearGradient
       id="linearGradient5060">
      <stop
         id="stop5062"
         style="stop-color:#000000;stop-opacity:1"
         offset="0" />
      <stop
         id="stop5064"
         style="stop-color:#000000;stop-opacity:0"
         offset="1" />
    </linearGradient>
    <linearGradient
       id="linearGradient5048">
      <stop
         id="stop5050"
         style="stop-color:#000000;stop-opacity:0"
         offset="0" />
      <stop
         id="stop5056"
         style="stop-color:#000000;stop-opacity:1"
         offset="0.5" />
      <stop
         id="stop5052"
         style="stop-color:#000000;stop-opacity:0"
         offset="1" />
    </linearGradient>
    <linearGradient
       x1="23.99999"
       y1="6.1851754"
       x2="23.99999"
       y2="41.814808"
       id="linearGradient3013"
       xlink:href="#linearGradient3977"
       gradientUnits="userSpaceOnUse"
       gradientTransform="matrix(0.56756757,0,0,0.72972971,2.378382,-2.5135063)" />
    <linearGradient
       x1="25.132275"
       y1="0.98520643"
       x2="25.132275"
       y2="47.013336"
       id="linearGradient3016"
       xlink:href="#linearGradient3600-4"
       gradientUnits="userSpaceOnUse"
       gradientTransform="matrix(0.62856997,0,0,0.60839392,0.91431981,-0.5347905)" />
    <radialGradient
       cx="605.71429"
       cy="486.64789"
       r="117.14286"
       fx="605.71429"
       fy="486.64789"
       id="radialGradient3021"
       xlink:href="#linearGradient5060"
       gradientUnits="userSpaceOnUse"
       gradientTransform="matrix(0.01566318,0,0,0.00823529,17.610433,25.980565)" />
    <radialGradient
       cx="605.71429"
       cy="486.64789"
       r="117.14286"
       fx="605.71429"
       fy="486.64789"
       id="radialGradient3024"
       xlink:href="#linearGradient5060"
       gradientUnits="userSpaceOnUse"
       gradientTransform="matrix(-0.01566318,0,0,0.00823529,14.389566,25.980565)" />
    <linearGradient
       x1="302.85715"
       y1="366.64789"
       x2="302.85715"
       y2="609.50507"
       id="linearGradient3027"
       xlink:href="#linearGradient5048"
       gradientUnits="userSpaceOnUse"
       gradientTransform="matrix(0.04576928,0,0,0.00823529,-0.5423243,25.980548)" />
    <linearGradient
       id="linearGradient3104-6">
      <stop
         offset="0"
         style="stop-color:#000000;stop-opacity:0.31782946"
         id="stop3106-3" />
      <stop
         offset="1"
         style="stop-color:#000000;stop-opacity:0.24031007"
         id="stop3108-9" />
    </linearGradient>
    <linearGradient
       xlink:href="#linearGradient3104-6"
       id="linearGradient3148"
       gradientUnits="userSpaceOnUse"
       gradientTransform="matrix(0.53064141,0,0,0.58970049,39.269607,-1.791918)"
       x1="-51.786404"
       y1="50.786446"
       x2="-51.786404"
       y2="2.9062471" />
  </defs>
  <metadata
     id="metadata3187">
    <rdf:RDF>
      <cc:Work
         rdf:about="">
        <dc:format>image/svg+xml</dc:format>
        <dc:type
           rdf:resource="http://purl.org/dc/dcmitype/StillImage" />
      </cc:Work>
    </rdf:RDF>
  </metadata>
  <rect
     width="22.100021"
     height="2"
     x="4.9499893"
     y="29"
     id="rect2879"
     style="opacity:0.15;fill:url(#linearGradient3027);fill-opacity:1;fill-rule:nonzero;stroke:none;stroke-width:1;marker:none;visibility:visible;display:inline;overflow:visible" />
  <path
     d="m 4.9499887,29.000086 c 0,0 0,1.99989 0,1.99989 -0.806615,0.0038 -1.950002,-0.448074 -1.950002,-1.000074 0,-0.552 0.900121,-0.999816 1.950002,-0.999816 z"
     id="path2881"
     style="opacity:0.15;fill:url(#radialGradient3024);fill-opacity:1;fill-rule:nonzero;stroke:none;stroke-width:1;marker:none;visibility:visible;display:inline;overflow:visible" />
  <path
     d="m 27.050011,29.000086 c 0,0 0,1.99989 0,1.99989 0.806614,0.0038 1.950002,-0.448074 1.950002,-1.000074 0,-0.552 -0.900122,-0.999816 -1.950002,-0.999816 z"
     id="path2883"
     style="opacity:0.15;fill:url(#radialGradient3021);fill-opacity:1;fill-rule:nonzero;stroke:none;stroke-width:1;marker:none;visibility:visible;display:inline;overflow:visible" />
  <path
     d="m 5,1 c 5.041316,0 21.999973,0.00179 21.999973,0.00179 L 27,29 C 27,29 12.333334,29 5,29 5,19.666667 5,10.333336 5,1.0000041 z"
     id="path4160-3"
     style="fill:url(#linearGradient3016);fill-opacity:1;stroke:none;display:inline" />
  <path
     d="m 26.5,28.5 -21,0 0,-27 21,0 z"
     id="rect6741-1"
     style="fill:none;stroke:url(#linearGradient3013);stroke-width:1;stroke-linecap:round;stroke-linejoin:miter;stroke-miterlimit:4;stroke-opacity:1;stroke-dasharray:none;stroke-dashoffset:0" />
  <path
     id="path8871"
     style="fill:#384759;fill-opacity:1;stroke:none;stroke-width:1;stroke-linecap:round;stroke-linejoin:miter;stroke-miterlimit:4;stroke-dasharray:none;stroke-opacity:1"
     inkscape:transform-center-y="-0.19098306"
     d="M 16 5 L 15 6.5 L 14.791016 6.8144531 L 14.507812 6.5644531 L 13.152344 5.375 L 12.576172 7.0820312 L 12.455078 7.4414062 L 12.115234 7.2734375 L 10.5 6.4746094 L 10.384766 8.2734375 L 10.359375 8.6503906 L 9.9902344 8.5761719 L 8.2226562 8.2226562 L 8.5761719 9.9902344 L 8.6503906 10.359375 L 8.2734375 10.384766 L 6.4746094 10.5 L 7.2734375 12.115234 L 7.4414062 12.455078 L 7.0820312 12.576172 L 5.375 13.152344 L 6.5644531 14.507812 L 6.8144531 14.791016 L 6.5 15 L 5 16 L 6.5 17 L 6.8144531 17.208984 L 6.5644531 17.492188 L 5.375 18.847656 L 7.0820312 19.423828 L 7.4414062 19.544922 L 7.2734375 19.884766 L 6.4746094 21.5 L 8.2734375 21.615234 L 8.6503906 21.640625 L 8.5761719 22.009766 L 8.2226562 23.777344 L 9.9902344 23.423828 L 10.359375 23.349609 L 10.384766 23.726562 L 10.5 25.525391 L 12.115234 24.726562 L 12.455078 24.558594 L 12.576172 24.917969 L 13.152344 26.625 L 14.507812 25.435547 L 14.791016 25.185547 L 15 25.5 L 16 27 L 17 25.5 L 17.208984 25.185547 L 17.492188 25.435547 L 18.847656 26.625 L 19.423828 24.917969 L 19.544922 24.558594 L 19.884766 24.726562 L 21.5 25.525391 L 21.615234 23.726562 L 21.640625 23.349609 L 22.009766 23.423828 L 23.777344 23.777344 L 23.423828 22.009766 L 23.349609 21.640625 L 23.726562 21.615234 L 25.525391 21.5 L 24.726562 19.884766 L 24.558594 19.544922 L 24.917969 19.423828 L 26.625 18.847656 L 25.435547 17.492188 L 25.185547 17.208984 L 25.5 17 L 27 16 L 25.5 15 L 25.185547 14.791016 L 25.435547 14.507812 L 26.625 13.152344 L 24.917969 12.576172 L 24.558594 12.455078 L 24.726562 12.115234 L 25.525391 10.5 L 23.726562 10.384766 L 23.349609 10.359375 L 23.423828 9.9902344 L 23.777344 8.2226562 L 22.009766 8.5761719 L 21.640625 8.6503906 L 21.615234 8.2734375 L 21.5 6.4746094 L 19.884766 7.2734375 L 19.544922 7.4414062 L 19.423828 7.0820312 L 18.847656 5.375 L 17.492188 6.5644531 L 17.208984 6.8144531 L 17 6.5 L 16 5 z M 16 7.25 A 0.75 0.75 0 0 1 16.75 8 A 0.75 0.75 0 0 1 16 8.75 A 0.75 0.75 0 0 1 15.25 8 A 0.75 0.75 0 0 1 16 7.25 z M 14.564453 8.3125 L 15.533203 9.3300781 C 15.751682 9.5588112 16.113204 9.5682852 16.341797 9.3476562 L 17.425781 8.3125 C 19.661003 8.7316684 21.600245 10.114962 22.726562 12.091797 L 21.982422 13.767578 C 21.854975 14.057036 21.988088 14.395843 22.275391 14.525391 L 23.703125 15.158203 C 23.747495 15.605007 23.767895 16.056154 23.734375 16.503906 C 23.63331 17.955079 23.126734 19.347629 22.273438 20.525391 C 22.054778 20.818373 21.777311 21.094331 21.519531 21.353516 L 20.189453 21.070312 C 19.879942 21.003522 19.574571 21.200065 19.507812 21.509766 L 19.191406 22.984375 C 17.137898 23.915159 14.78295 23.903176 12.738281 22.953125 L 12.419922 21.480469 C 12.353162 21.17077 12.051696 20.972265 11.742188 21.039062 L 10.441406 21.318359 C 10.199782 21.069362 9.9170505 20.804523 9.7109375 20.525391 C 9.1719133 19.776948 8.7688019 18.938095 8.5234375 18.048828 C 8.2500629 17.088429 8.1951086 16.08457 8.3027344 15.091797 L 9.6582031 14.490234 C 9.9474861 14.360686 10.080641 14.021881 9.9511719 13.732422 L 9.6699219 13.101562 L 9.6777344 13.101562 L 9.2558594 12.160156 C 9.5568161 11.676994 9.5482688 11.542417 10.232422 10.757812 C 11.368204 9.4879709 12.890955 8.628815 14.564453 8.3125 z M 8.5 12.75 A 0.75 0.75 0 0 1 9.25 13.5 A 0.75 0.75 0 0 1 8.5 14.25 A 0.75 0.75 0 0 1 8.3515625 14.220703 A 0.75 0.75 0 0 1 7.75 13.5 A 0.75 0.75 0 0 1 8.5 12.75 z M 23.5 12.75 A 0.75 0.75 0 0 1 24.25 13.5 A 0.75 0.75 0 0 1 23.708984 14.208984 C 23.461783 14.30286 23.160673 14.248247 22.984375 14.042969 A 0.75 0.75 0 0 1 22.945312 13.996094 C 22.940491 13.989023 22.936179 13.981968 22.931641 13.974609 A 0.75 0.75 0 0 1 22.75 13.5 A 0.75 0.75 0 0 1 23.5 12.75 z M 11.25 21.75 A 0.75 0.75 0 0 1 12 22.5 A 0.75 0.75 0 0 1 11.25 23.25 A 0.75 0.75 0 0 1 10.5 22.5 A 0.75 0.75 0 0 1 11.25 21.75 z M 20.75 21.75 A 0.75 0.75 0 0 1 21.5 22.5 A 0.75 0.75 0 0 1 20.75 23.25 A 0.75 0.75 0 0 1 20.109375 22.865234 L 20.105469 22.867188 C 20.100342 22.85987 20.098589 22.849423 20.09375 22.841797 A 0.75 0.75 0 0 1 20.050781 22.755859 C 20.017938 22.679252 19.994141 22.595304 19.994141 22.494141 C 19.994098 22.399202 20.015076 22.30906 20.052734 22.228516 A 0.75 0.75 0 0 1 20.095703 22.154297 C 20.101627 22.145156 20.106904 22.135759 20.113281 22.126953 A 0.75 0.75 0 0 1 20.75 21.75 z " />
  <path
     style="fill:none;stroke:url(#linearGradient3148);stroke-width:0.9999218;stroke-linecap:butt;stroke-linejoin:round;stroke-miterlimit:4;stroke-opacity:1;stroke-dasharray:none;stroke-dashoffset:0;display:inline"
     id="path4160-6-1"
     d="m 4.499961,0.499944 c 5.27048,0 23.000054,0.002 23.000054,0.002 l 2.4e-5,28.998112 c 0,0 -15.333385,0 -23.000078,0 0,-9.666722 0,-19.333346 0,-28.999956 z" />
  <path
     id="path25467"
     style="fill:#384759;fill-opacity:1;stroke-width:1"
     d="M 9.66358,11 C 9.0912309,11.655983 9.3404669,11.889957 9.0886919,12.293912 L 9.4386829,13 h 1.5611241 v 6.000216 H 8.6532849 c 0.123679,0.535729 1.0408016,1.76313 1.3039026,1.999741 H 15.07755 c 0.05923,0 0.100581,-0.01056 0.100581,-0.0664 v -1.868085 c 0,-0.05416 -0.04135,-0.06543 -0.100581,-0.06543 H 13.999998 V 17 h 0.897441 C 15.049753,17 15.788454,17.01842 16,17.867992 v 1.307981 c 0,0.821324 1.121422,1.823104 2.539515,1.823104 h 4.536132 l 0.68924,-3.000154 h -2.672502 c -0.066,0 -0.09277,0.04409 -0.09277,0.108396 v 0.301837 c 0,0.717561 -0.334044,0.59009 -0.999615,0.59009 -1.07978,0 -0.962881,-1.271634 -1,-1.480193 -0.156574,-0.87974 -0.22481,-1.065449 -0.794061,-1.394106 0.651559,-0.412936 1.772099,-0.878155 1.772099,-2.424947 0,-1.546792 -1.087077,-2.699996 -1.797829,-2.699996 z m 4.336422,1.999949 h 1.928324 C 16.848551,12.999949 17,13.437019 17,14 c 0,0.562978 -0.02891,1 -1.071674,1 h -1.928324 z"
     sodipodi:nodetypes="cccccccccssssccccccccsssczsccczccc" />
</svg>
