<?xml version="1.0" encoding="UTF-8" standalone="no"?>
<svg
   xmlns:dc="http://purl.org/dc/elements/1.1/"
   xmlns:cc="http://creativecommons.org/ns#"
   xmlns:rdf="http://www.w3.org/1999/02/22-rdf-syntax-ns#"
   xmlns:svg="http://www.w3.org/2000/svg"
   xmlns="http://www.w3.org/2000/svg"
   xmlns:xlink="http://www.w3.org/1999/xlink"
   version="1.1"
   width="22"
   height="22"
   id="svg3020">
  <defs
     id="defs3022">
    <linearGradient
       id="linearGradient2867-449-88-871-390-598-476-591-434-148-57-177-641-289-620-227-114-444-680-744-4">
      <stop
         offset="0"
         style="stop-color:#737373;stop-opacity:1"
         id="stop5430-5" />
      <stop
         offset="0.26238"
         style="stop-color:#636363;stop-opacity:1"
         id="stop5432-2" />
      <stop
         offset="0.704952"
         style="stop-color:#4b4b4b;stop-opacity:1"
         id="stop5434-9" />
      <stop
         offset="1"
         style="stop-color:#3f3f3f;stop-opacity:1"
         id="stop5436-2" />
    </linearGradient>
    <radialGradient
       xlink:href="#linearGradient2867-449-88-871-390-598-476-591-434-148-57-177-641-289-620-227-114-444-680-744-4"
       id="radialGradient4192"
       gradientUnits="userSpaceOnUse"
       gradientTransform="matrix(0,3.25,-3.25,0,24,-38)"
       cx="12"
       cy="4"
       fx="12"
       fy="4"
       r="8" />
    <radialGradient
       xlink:href="#linearGradient2867-449-88-871-390-598-476-591-434-148-57-177-641-289-620-227-114-444-680-744-4"
       id="radialGradient4195"
       gradientUnits="userSpaceOnUse"
       gradientTransform="matrix(0,3.25,-3.25,0,24,-38)"
       cx="12"
       cy="4"
       fx="12"
       fy="4"
       r="8" />
  </defs>
  <metadata
     id="metadata3025">
    <rdf:RDF>
      <cc:Work
         rdf:about="">
        <dc:format>image/svg+xml</dc:format>
        <dc:type
           rdf:resource="http://purl.org/dc/dcmitype/StillImage" />
        <dc:title />
      </cc:Work>
    </rdf:RDF>
  </metadata>
  <g
     id="g3403"
     style="opacity:0.35;fill:#ffffff;fill-opacity:1"
     transform="translate(-1,0)">
    <path
       style="color:#bebebe;fill:#ffffff;fill-opacity:1;fill-rule:nonzero;stroke:none;stroke-width:1;marker:none;visibility:visible;display:inline;overflow:visible;enable-background:accumulate"
       id="path3405"
       d="M 9,2 9,3 4,3 4,6 20,6 20,3 15,3 15,2 z" />
    <path
       d="M 7,7 C 6.1941818,7 5,8.194182 5,9 l 0,11 c 0,0.805818 1.1941818,2 2,2 l 10,0 c 0.805818,0 2,-1.194182 2,-2 L 19,9 C 19,8.194182 17.805818,7 17,7 z m 2,3 2,0 0,9 -2,0 z m 4,0 2,0 0,9 -2,0 z"
       id="path3407"
       style="color:#bebebe;fill:#ffffff;fill-opacity:1;fill-rule:nonzero;stroke:none;stroke-width:1;marker:none;visibility:visible;display:inline;overflow:visible;enable-background:accumulate" />
  </g>
  <path
     style="color:#bebebe;fill:url(#radialGradient4195);fill-opacity:1;fill-rule:nonzero;stroke:none;stroke-width:1;marker:none;visibility:visible;display:inline;overflow:visible;enable-background:accumulate"
     id="rect10309"
     d="M 8,1 8,2 3,2 3,5 19,5 19,2 14,2 14,1 z" />
  <path
     d="M 6,6 C 5.1941818,6 4,7.194182 4,8 l 0,11 c 0,0.805818 1.1941818,2 2,2 l 10,0 c 0.805818,0 2,-1.194182 2,-2 L 18,8 C 18,7.194182 16.805818,6 16,6 z m 2,3 2,0 0,9 -2,0 z m 4,0 2,0 0,9 -2,0 z"
     id="path2983"
     style="color:#bebebe;fill:url(#radialGradient4192);fill-opacity:1;fill-rule:nonzero;stroke:none;stroke-width:1;marker:none;visibility:visible;display:inline;overflow:visible;enable-background:accumulate" />
  <path
     style="opacity:0.1;fill:none;stroke:#000000;stroke-width:0.99999994px;stroke-linecap:butt;stroke-linejoin:miter;stroke-opacity:1"
     d="m 8.5,1.5 0,0.9999999 -5,0 0,1.9999999 15.000001,0 0,-1.9999999 -5.000001,0 L 13.5,1.5 z"
     id="path4185" />
  <path
     style="opacity:0.1;color:#bebebe;fill:#000000;fill-opacity:1;fill-rule:nonzero;stroke:none;stroke-width:1;marker:none;visibility:visible;display:inline;overflow:visible;enable-background:accumulate"
     id="path4197"
     d="M 6,6 C 5.1941818,6 4,7.194182 4,8 l 0,11 c 0,0.805818 1.1941818,2 2,2 l 10,0 c 0.805818,0 2,-1.194182 2,-2 L 18,8 C 18,7.194182 16.805818,6 16,6 z m 0,1 10,0 c 0,0 1,0 1,1 l 0,11 c 0,0 0,1 -1,1 L 6,20 C 6,20 5,20 5,19 L 5,8 C 5,7 6,7 6,7 z" />
  <rect
     style="opacity:0.1;fill:none;stroke:#000000;stroke-width:1;stroke-linecap:round;stroke-linejoin:miter;stroke-miterlimit:4;stroke-opacity:1;stroke-dasharray:none;stroke-dashoffset:0"
     id="rect4205"
     width="3"
     height="10"
     x="7.5"
     y="8.5" />
  <rect
     y="8.5"
     x="11.5"
     height="10"
     width="3"
     id="rect4207"
     style="opacity:0.1;fill:none;stroke:#000000;stroke-width:1;stroke-linecap:round;stroke-linejoin:miter;stroke-miterlimit:4;stroke-opacity:1;stroke-dasharray:none;stroke-dashoffset:0" />
  <path
     d="M 6.7142857,7 C 5,7 5,7 5,8.733333 l 0,9.533334 C 5,20 5,20 6.7142857,20 l 8.5714283,0 C 17,20 17,20 17,18.266667 L 17,8.733333 C 17,7 17,7 15.285714,7 z m 0,0.8666667 8.5714283,0 c 0,0 0.857143,0 0.857143,0.8666663 l 0,9.533334 c 0,0 0,0.866666 -0.857143,0.866666 l -8.5714283,0 c 0,0 -0.8571428,0 -0.8571428,-0.866666 l 0,-9.533334 c 0,-0.8666663 0.8571428,-0.8666663 0.8571428,-0.8666663 z"
     id="path4209"
     style="opacity:0.05;color:#bebebe;fill:#000000;fill-opacity:1;fill-rule:nonzero;stroke:none;stroke-width:1;marker:none;visibility:visible;display:inline;overflow:visible;enable-background:accumulate" />
  <path
     style="opacity:0.05;fill:#000000;fill-opacity:1;stroke:none"
     d="M 4,3 4,4 18,4 18,3 13,3 13,2 9,2 9,3 z"
     id="path4213" />
</svg>
