<?xml version="1.0" encoding="UTF-8" standalone="no"?>
<!-- Created with Inkscape (http://www.inkscape.org/) -->

<svg
   xmlns:dc="http://purl.org/dc/elements/1.1/"
   xmlns:cc="http://creativecommons.org/ns#"
   xmlns:rdf="http://www.w3.org/1999/02/22-rdf-syntax-ns#"
   xmlns:svg="http://www.w3.org/2000/svg"
   xmlns="http://www.w3.org/2000/svg"
   xmlns:xlink="http://www.w3.org/1999/xlink"
   xmlns:sodipodi="http://sodipodi.sourceforge.net/DTD/sodipodi-0.dtd"
   xmlns:inkscape="http://www.inkscape.org/namespaces/inkscape"
   version="1.1"
   width="22"
   height="22"
   id="svg4077"
   inkscape:version="0.48.4 r9939"
   sodipodi:docname="view-refresh.svg">
  <sodipodi:namedview
     pagecolor="#ffffff"
     bordercolor="#666666"
     borderopacity="1"
     objecttolerance="10"
     gridtolerance="10"
     guidetolerance="10"
     inkscape:pageopacity="0"
     inkscape:pageshadow="2"
     inkscape:window-width="1920"
     inkscape:window-height="1151"
     id="namedview15"
     showgrid="true"
     inkscape:zoom="11.313708"
     inkscape:cx="39.462834"
     inkscape:cy="13.601192"
     inkscape:window-x="0"
     inkscape:window-y="25"
     inkscape:window-maximized="1"
     inkscape:current-layer="svg4077">
    <inkscape:grid
       type="xygrid"
       id="grid2991"
       empspacing="5"
       visible="true"
       enabled="true"
       snapvisiblegridlinesonly="true" />
  </sodipodi:namedview>
  <defs
     id="defs4079">
    <radialGradient
       inkscape:collect="always"
       xlink:href="#linearGradient2867-449-88-871-390-598-476-591-434-148-57-177-641-289-620-227-114-444-680-744-4-1-5-6-9"
       id="radialGradient3813-6"
       gradientUnits="userSpaceOnUse"
       gradientTransform="matrix(0,1.7142863,1.7418575,0,43.771221,-29.233914)"
       cx="16.202444"
       cy="-19.005346"
       fx="16.202444"
       fy="-19.005346"
       r="19.99999" />
    <linearGradient
       id="linearGradient2867-449-88-871-390-598-476-591-434-148-57-177-641-289-620-227-114-444-680-744-4-1-5-6-9">
      <stop
         id="stop5430-5-0-9-4-2"
         style="stop-color:#737373;stop-opacity:1"
         offset="0" />
      <stop
         id="stop5432-2-0-0-4-4"
         style="stop-color:#636363;stop-opacity:1"
         offset="0.26238" />
      <stop
         id="stop5434-9-6-8-5-0"
         style="stop-color:#4b4b4b;stop-opacity:1"
         offset="0.704952" />
      <stop
         id="stop5436-2-7-0-0-5"
         style="stop-color:#3f3f3f;stop-opacity:1"
         offset="1" />
    </linearGradient>
  </defs>
  <metadata
     id="metadata4082">
    <rdf:RDF>
      <cc:Work
         rdf:about="">
        <dc:format>image/svg+xml</dc:format>
        <dc:type
           rdf:resource="http://purl.org/dc/dcmitype/StillImage" />
        <dc:title></dc:title>
      </cc:Work>
    </rdf:RDF>
  </metadata>
  <path
     inkscape:connector-curvature="0"
     style="opacity:0.02999998;color:#000000;fill:none;stroke:#000000;stroke-width:1;stroke-linecap:butt;stroke-linejoin:miter;stroke-miterlimit:4;stroke-opacity:1;stroke-dasharray:none;stroke-dashoffset:0;marker:none;visibility:visible;display:inline;overflow:visible;enable-background:accumulate"
     id="path4019-6"
     d="m 11.46875,4.59375 0,0.5 a 1.4715757,1.4715757 0 0 1 -1.25,1.46875 C 10.073792,6.583336 9.953565,6.655901 9.8125,6.6875 a 1.4715757,1.4715757 0 0 1 1.65625,1.46875 l 0,0.78125 3.625,-2.15625 -3.625,-2.1875 z M 9.40625,6.8125 C 8.3092274,7.1489871 7.3742654,7.7776523 6.6875,8.65625 7.3713481,7.7930948 8.3293638,7.1417665 9.40625,6.8125 z M 6.6875,8.65625 C 5.9611926,9.585435 5.46875,10.717042 5.46875,12 c 0,3.070774 2.4604759,5.53125 5.53125,5.53125 2.546847,0 4.567699,-1.733675 5.21875,-4.0625 l -0.0625,0 c -0.658247,2.282977 -2.671733,4 -5.15625,4 -3.004358,0 -5.46875,-2.464392 -5.46875,-5.46875 0,-1.267414 0.4237151,-2.419142 1.15625,-3.34375 z" />
  <path
     style="color:#000000;fill:url(#radialGradient3813-6);fill-opacity:1;fill-rule:nonzero;stroke:none;stroke-width:1;marker:none;visibility:visible;display:inline;overflow:visible;enable-background:accumulate"
     d="M 11.53125,3 C 11.230004,3 11,3.2532205 11,3.5625 L 11,5 c -3.8659932,0 -7,3.1340068 -7,7 0,3.865993 3.1340068,7 7,7 3.865993,0 7,-3.134007 7,-7 l -3,0 c 0,2.209139 -1.790861,4 -4,4 C 8.790861,16 7,14.209139 7,12 7,9.790861 8.790861,8 11,8 l 0,1.4375 C 11,9.746779 11.230004,10 11.53125,10 11.60657,10 11.684743,9.9971 11.75,9.96875 l 4.90625,-2.9375 C 16.852022,6.9462374 17,6.7319596 17,6.5 17,6.2680404 16.852022,6.0537626 16.65625,5.96875 L 11.75,3.03125 C 11.684743,3.002914 11.606566,3 11.53125,3 z"
     id="path3003"
     inkscape:connector-curvature="0"
     sodipodi:nodetypes="sscssccsscssccsccs" />
  <path
     style="opacity:0.1;color:#000000;fill:none;stroke:#000000;stroke-width:1;stroke-linecap:round;stroke-linejoin:round;stroke-miterlimit:4;stroke-opacity:1;stroke-dasharray:none;stroke-dashoffset:0;marker:none;visibility:visible;display:inline;overflow:visible;enable-background:accumulate"
     d="M 11.53125,3.5 C 11.518522,3.5 11.5,3.5084789 11.5,3.5625 L 11.5,5 C 11.4926,5.2596991 11.259699,5.4925833 11,5.5 7.4122565,5.5 4.5,8.4122565 4.5,12 c 0,3.587743 2.9122565,6.5 6.5,6.5 3.416779,0 6.179296,-2.650652 6.4375,-6 l -2.03125,0 C 15.145122,14.741701 13.310018,16.5 11,16.5 8.5126113,16.5 6.5,14.487389 6.5,12 6.5,9.512611 8.5126113,7.5 11,7.5 11.259699,7.50742 11.492583,7.7403009 11.5,8 l 0,1.4375 C 11.5,9.49152 11.51852,9.5 11.53125,9.5 L 16.375,6.59375 c 0.245134,-0.095683 0,-0.1875 0,-0.1875 z"
     id="path4018"
     inkscape:connector-curvature="0"
     sodipodi:nodetypes="csccssccssccscccc" />
</svg>
