<?xml version="1.0" encoding="UTF-8" standalone="no"?>
<svg
   xmlns:dc="http://purl.org/dc/elements/1.1/"
   xmlns:cc="http://creativecommons.org/ns#"
   xmlns:rdf="http://www.w3.org/1999/02/22-rdf-syntax-ns#"
   xmlns:svg="http://www.w3.org/2000/svg"
   xmlns="http://www.w3.org/2000/svg"
   xmlns:xlink="http://www.w3.org/1999/xlink"
   id="svg3828"
   height="22"
   width="22"
   version="1.1">
  <defs
     id="defs3830">
    <linearGradient
       id="linearGradient2867-449-88-871-390-598-476-591-434-148-57-177-641-289-620-227-114-444-680-744-4-0">
      <stop
         offset="0"
         style="stop-color:#737373;stop-opacity:1"
         id="stop5430-5-0" />
      <stop
         offset="0.26238"
         style="stop-color:#636363;stop-opacity:1"
         id="stop5432-2-9" />
      <stop
         offset="0.704952"
         style="stop-color:#4b4b4b;stop-opacity:1"
         id="stop5434-9-0" />
      <stop
         offset="1"
         style="stop-color:#3f3f3f;stop-opacity:1"
         id="stop5436-2-5" />
    </linearGradient>
    <radialGradient
       gradientUnits="userSpaceOnUse"
       gradientTransform="matrix(1.617265e-8,2.7058822,-2.4705883,1.4766334e-8,18.411794,-30.502752)"
       r="8.5"
       fy="3.0000119"
       fx="10.533627"
       cy="3.0000119"
       cx="10.533627"
       id="radialGradient4437"
       xlink:href="#linearGradient2867-449-88-871-390-598-476-591-434-148-57-177-641-289-620-227-114-444-680-744-4-0" />
  </defs>
  <metadata
     id="metadata3833">
    <rdf:RDF>
      <cc:Work
         rdf:about="">
        <dc:format>image/svg+xml</dc:format>
        <dc:type
           rdf:resource="http://purl.org/dc/dcmitype/StillImage" />
        <dc:title />
      </cc:Work>
    </rdf:RDF>
  </metadata>
  <rect
     width="18"
     height="18.000025"
     rx="2.7692308"
     ry="2.7692308"
     x="2"
     y="2.9999752"
     id="rect5148"
     style="opacity:0.35;fill:#ffffff;fill-opacity:1;stroke:none" />
  <rect
     width="18"
     height="18.000025"
     rx="2.7692308"
     ry="2.7692311"
     x="2"
     y="1.9999876"
     id="rect4133"
     style="fill:url(#radialGradient4437);fill-opacity:1;stroke:none" />
  <rect
     style="opacity:0.02999998;fill:none;stroke:#000000;stroke-width:1;stroke-opacity:1"
     id="rect4183"
     y="3.49999"
     x="3.5"
     ry="2.3076925"
     rx="2.3076923"
     height="15.00002"
     width="15" />
  <rect
     style="opacity:0.1;fill:none;stroke:#000000;stroke-width:0.99999994;stroke-miterlimit:4;stroke-opacity:1;stroke-dasharray:none"
     id="rect7169"
     y="2.4999886"
     x="2.5"
     ry="2.6153846"
     rx="2.6153846"
     height="17.000023"
     width="17" />
  <g
     transform="translate(-0.99635685,-1.0145793)"
     style="opacity:0.1;fill:none;stroke:#000000;stroke-opacity:1"
     id="g3481">
    <path
       style="color:#000000;fill:none;stroke:#000000;stroke-width:0.98542738;stroke-linecap:round;stroke-linejoin:round;stroke-miterlimit:4;stroke-opacity:1;stroke-dasharray:none;stroke-dashoffset:0;marker:none;visibility:visible;display:inline;overflow:visible;enable-background:accumulate"
       d="m 10.5,6.5218725 0,2.0000001 -2.0072863,0 0,1.9854134 -2,0 0,-3.9854135 z"
       id="path2262-6" />
    <path
       id="path3475"
       d="m 13.492714,6.5218725 0,2.0000001 2.007286,0 0,1.9854134 2,0 0,-3.9854135 z"
       style="color:#000000;fill:none;stroke:#000000;stroke-width:0.98542738;stroke-linecap:round;stroke-linejoin:round;stroke-miterlimit:4;stroke-opacity:1;stroke-dasharray:none;stroke-dashoffset:0;marker:none;visibility:visible;display:inline;overflow:visible;enable-background:accumulate" />
    <path
       id="path3477"
       d="m 10.5,17.507286 0,-2 -2.007286,0 0,-1.985413 -2.0000003,0 0,3.985413 z"
       style="color:#000000;fill:none;stroke:#000000;stroke-width:0.98542738;stroke-linecap:round;stroke-linejoin:round;stroke-miterlimit:4;stroke-opacity:1;stroke-dasharray:none;stroke-dashoffset:0;marker:none;visibility:visible;display:inline;overflow:visible;enable-background:accumulate" />
    <path
       style="color:#000000;fill:none;stroke:#000000;stroke-width:0.98542738;stroke-linecap:round;stroke-linejoin:round;stroke-miterlimit:4;stroke-opacity:1;stroke-dasharray:none;stroke-dashoffset:0;marker:none;visibility:visible;display:inline;overflow:visible;enable-background:accumulate"
       d="m 13.492714,17.507286 0,-2 2.007286,0 0,-1.985413 2,0 0,3.985413 z"
       id="path3479" />
  </g>
  <path
     id="path4305"
     d="m 6.0036432,12.985421 0,3 2.9999998,0 0,-1 -1.9999998,0 0,-2 z"
     style="fill:#ffffff;fill-opacity:1;stroke:none" />
  <path
     style="fill:#ffffff;fill-opacity:1;stroke:none"
     d="m 16.003643,12.985421 0,3 -3,0 0,-1 2,0 0,-2 z"
     id="path4315" />
  <path
     style="fill:#ffffff;fill-opacity:1;stroke:none"
     d="m 6.0036432,9 0,-3 2.9999998,0 0,1 -1.9999998,0 0,2 z"
     id="path6203" />
  <path
     id="path6205"
     d="m 16,9 0,-3 -3,0 0,1 2,0 0,2 z"
     style="fill:#ffffff;fill-opacity:1;stroke:none" />
</svg>
