<?xml version="1.0" encoding="UTF-8" standalone="no"?>
<svg
   version="1.0"
   width="24"
   height="24"
   id="svg3226"
   sodipodi:docname="bluetooth-disabled.svg"
   inkscape:version="1.2.2 (b0a8486541, 2022-12-01)"
   xmlns:inkscape="http://www.inkscape.org/namespaces/inkscape"
   xmlns:sodipodi="http://sodipodi.sourceforge.net/DTD/sodipodi-0.dtd"
   xmlns:xlink="http://www.w3.org/1999/xlink"
   xmlns="http://www.w3.org/2000/svg"
   xmlns:svg="http://www.w3.org/2000/svg"
   xmlns:rdf="http://www.w3.org/1999/02/22-rdf-syntax-ns#"
   xmlns:cc="http://creativecommons.org/ns#"
   xmlns:dc="http://purl.org/dc/elements/1.1/">
  <sodipodi:namedview
     id="namedview18167"
     pagecolor="#ffffff"
     bordercolor="#000000"
     borderopacity="0.25"
     inkscape:showpageshadow="2"
     inkscape:pageopacity="0.0"
     inkscape:pagecheckerboard="0"
     inkscape:deskcolor="#d1d1d1"
     showgrid="false"
     inkscape:zoom="32"
     inkscape:cx="12.0625"
     inkscape:cy="9.890625"
     inkscape:window-width="1278"
     inkscape:window-height="840"
     inkscape:window-x="274"
     inkscape:window-y="57"
     inkscape:window-maximized="0"
     inkscape:current-layer="svg3226"
     showguides="true" />
  <metadata
     id="metadata17">
    <rdf:RDF>
      <cc:Work
         rdf:about="">
        <dc:format>image/svg+xml</dc:format>
        <dc:type
           rdf:resource="http://purl.org/dc/dcmitype/StillImage" />
      </cc:Work>
    </rdf:RDF>
  </metadata>
  <defs
     id="defs3228">
    <linearGradient
       id="linearGradient3678">
      <stop
         style="stop-color:#ffffff;stop-opacity:1;"
         offset="0"
         id="stop3680" />
      <stop
         style="stop-color:#e6e6e6;stop-opacity:1;"
         offset="1"
         id="stop3682" />
    </linearGradient>
    <linearGradient
       x1="14.313253"
       y1="4.0000005"
       x2="14.313253"
       y2="20.001163"
       id="linearGradient3209"
       xlink:href="#linearGradient3587-6-5"
       gradientUnits="userSpaceOnUse" />
    <linearGradient
       id="linearGradient3587-6-5">
      <stop
         id="stop3589-9-2"
         style="stop-color:#000000;stop-opacity:1"
         offset="0" />
      <stop
         id="stop3591-7-4"
         style="stop-color:#363636;stop-opacity:1"
         offset="1" />
    </linearGradient>
    <linearGradient
       x1="12.095703"
       y1="4.0491958"
       x2="12.095703"
       y2="19.954636"
       id="linearGradient3201"
       xlink:href="#linearGradient3587-6-5"
       gradientUnits="userSpaceOnUse"
       gradientTransform="matrix(0.9191846,0,0,1.055668,0.88180191,-0.61853124)" />
    <linearGradient
       inkscape:collect="always"
       xlink:href="#linearGradient3678"
       id="linearGradient51655"
       gradientUnits="userSpaceOnUse"
       x1="10.09761"
       y1="5"
       x2="10.09761"
       y2="19"
       gradientTransform="matrix(1,0,0,0.99994936,0,9.7177854e-4)" />
  </defs>
  <path
     id="path57487"
     style="color:#000000;font-variation-settings:normal;vector-effect:none;fill:#000000;fill-opacity:0.15000001;stroke-width:1;stroke-linecap:butt;stroke-linejoin:miter;stroke-miterlimit:4;stroke-dasharray:none;stroke-dashoffset:0;stroke-opacity:1;-inkscape-stroke:none;marker:none;stop-color:#000000"
     d="M 11.455078 5 C 11.201853 5.0028505 10.998349 5.2404334 11 5.53125 L 11 10.027344 L 12 11.027344 L 12 6.9082031 L 14.304688 9.3535156 L 12.341797 11.369141 L 13.320312 12.347656 L 15.794922 9.8554688 C 16.066941 9.5823802 16.069467 9.1415222 15.800781 8.8652344 L 12.248047 5.2128906 C 11.986732 4.974811 11.731247 5 11.455078 5 z M 9.8847656 13.800781 L 8.2050781 15.492188 C 7.9305629 15.768856 7.9323044 16.215724 8.2089844 16.490234 C 8.4856683 16.764737 8.9325045 16.762976 9.2070312 16.486328 L 10.861328 14.775391 L 9.8847656 13.800781 z M 11 14.916016 L 11 20.474609 C 11.0012 20.767524 11.289878 21.00335 11.544922 21 C 11.906294 21 12.152908 20.92716 12.302734 20.777344 L 14.509766 18.423828 L 13.511719 17.427734 L 12 19.044922 L 12 15.916016 L 11 14.916016 z " />
  <path
     id="path3367"
     style="color:#000000;font-variation-settings:normal;vector-effect:none;fill:url(#linearGradient51655);fill-opacity:1;stroke-width:1;stroke-linecap:butt;stroke-linejoin:miter;stroke-miterlimit:4;stroke-dasharray:none;stroke-dashoffset:0;stroke-opacity:1;-inkscape-stroke:none;marker:none;stop-color:#000000;opacity:0.5"
     d="M 11.455078,4 C 11.201853,4.0028505 10.998349,4.2404331 11,4.53125 v 5.496094 l 1.822266,1.822265 2.972656,-2.9941402 C 16.066941,8.58238 16.069508,8.1415225 15.800781,7.8652344 L 12.248047,4.2128906 C 11.986732,3.9748107 11.731247,4 11.455078,4 Z M 12,5.9082031 14.304688,8.3535156 12,10.720703 Z M 9.8847656,12.800781 8.2050781,14.492188 c -0.2745155,0.276669 -0.2727703,0.723535 0.00391,0.998046 0.2766842,0.274503 0.7235198,0.272748 0.9980468,-0.0039 L 10.861328,13.775391 Z M 11,13.916016 v 5.558593 c 0.0012,0.292915 0.289878,0.528741 0.544922,0.525391 0.361372,0 0.607985,-0.07284 0.757812,-0.222656 L 14.509766,17.423828 13.511719,16.427734 12,18.044922 v -3.128906 z" />
  <path
     style="fill:none;stroke:#ffffff;stroke-width:1.375;stroke-linecap:round;stroke-dasharray:none;paint-order:markers fill stroke;stop-color:#000000;stroke-opacity:1;opacity:1"
     d="m 5.1875,5.187499 13.625,13.625002"
     id="path56947" />
  <g
     id="path57444"
     transform="translate(0.0244142,0.0341795)">
    <path
       style="color:#000000;fill:#000000;stroke-width:1.375;stroke-linecap:round;-inkscape-stroke:none;paint-order:markers fill stroke"
       d="M 4.4041071,6.3389949 18.029107,19.963997"
       id="path57480" />
  </g>
  <path
     style="color:#000000;fill:#000000;stroke-width:1.375;stroke-linecap:round;-inkscape-stroke:none;paint-order:markers fill stroke"
     d="m 5.1875,5.187499 13.625,13.625002"
     id="path57450" />
  <path
     style="color:#000000;opacity:1;fill:#000000;stroke-linecap:round;-inkscape-stroke:none;paint-order:markers fill stroke;fill-opacity:0.15000001"
     d="m 4.6875,6.63086 a 0.6875,0.6875 0 0 0 0,0.9726562 l 13.625,13.6249998 a 0.6875,0.6875 0 0 0 0.972656,0 0.6875,0.6875 0 0 0 0,-0.972656 L 5.6601562,6.63086 a 0.6875,0.6875 0 0 0 -0.9726562,0 z"
     id="path57533" />
</svg>
