<?xml version="1.0" encoding="UTF-8" standalone="no"?>
<svg
   version="1.0"
   width="24"
   height="24"
   id="svg3226"
   sodipodi:docname="bluetooth-active.svg"
   inkscape:version="1.2.2 (b0a8486541, 2022-12-01)"
   xmlns:inkscape="http://www.inkscape.org/namespaces/inkscape"
   xmlns:sodipodi="http://sodipodi.sourceforge.net/DTD/sodipodi-0.dtd"
   xmlns:xlink="http://www.w3.org/1999/xlink"
   xmlns="http://www.w3.org/2000/svg"
   xmlns:svg="http://www.w3.org/2000/svg"
   xmlns:rdf="http://www.w3.org/1999/02/22-rdf-syntax-ns#"
   xmlns:cc="http://creativecommons.org/ns#"
   xmlns:dc="http://purl.org/dc/elements/1.1/">
  <sodipodi:namedview
     id="namedview18167"
     pagecolor="#ffffff"
     bordercolor="#000000"
     borderopacity="0.25"
     inkscape:showpageshadow="2"
     inkscape:pageopacity="0.0"
     inkscape:pagecheckerboard="0"
     inkscape:deskcolor="#d1d1d1"
     showgrid="false"
     inkscape:zoom="45.254834"
     inkscape:cx="10.938058"
     inkscape:cy="12.750019"
     inkscape:window-width="1278"
     inkscape:window-height="1005"
     inkscape:window-x="185"
     inkscape:window-y="0"
     inkscape:window-maximized="0"
     inkscape:current-layer="svg3226" />
  <metadata
     id="metadata17">
    <rdf:RDF>
      <cc:Work
         rdf:about="">
        <dc:format>image/svg+xml</dc:format>
        <dc:type
           rdf:resource="http://purl.org/dc/dcmitype/StillImage" />
      </cc:Work>
    </rdf:RDF>
  </metadata>
  <defs
     id="defs3228">
    <linearGradient
       id="linearGradient3678">
      <stop
         style="stop-color:#ffffff;stop-opacity:1;"
         offset="0"
         id="stop3680" />
      <stop
         style="stop-color:#e6e6e6;stop-opacity:1;"
         offset="1"
         id="stop3682" />
    </linearGradient>
    <linearGradient
       x1="14.313253"
       y1="4.0000005"
       x2="14.313253"
       y2="20.001163"
       id="linearGradient3209"
       xlink:href="#linearGradient3587-6-5"
       gradientUnits="userSpaceOnUse" />
    <linearGradient
       id="linearGradient3587-6-5">
      <stop
         id="stop3589-9-2"
         style="stop-color:#000000;stop-opacity:1"
         offset="0" />
      <stop
         id="stop3591-7-4"
         style="stop-color:#363636;stop-opacity:1"
         offset="1" />
    </linearGradient>
    <linearGradient
       x1="12.095703"
       y1="4.0491958"
       x2="12.095703"
       y2="19.954636"
       id="linearGradient3201"
       xlink:href="#linearGradient3587-6-5"
       gradientUnits="userSpaceOnUse"
       gradientTransform="matrix(0.9191846,0,0,1.055668,0.88180191,-0.61853124)" />
    <linearGradient
       inkscape:collect="always"
       xlink:href="#linearGradient3678"
       id="linearGradient51655"
       gradientUnits="userSpaceOnUse"
       x1="10.09761"
       y1="5"
       x2="10.09761"
       y2="19"
       gradientTransform="matrix(1,0,0,0.99994936,0,9.7177854e-4)" />
  </defs>
  <g
     style="opacity:0.5;font-variation-settings:normal;vector-effect:none;fill:#000000;fill-opacity:1;stroke-width:1;stroke-linecap:butt;stroke-linejoin:miter;stroke-miterlimit:4;stroke-dasharray:none;stroke-dashoffset:0;stroke-opacity:1;-inkscape-stroke:none;marker:none;stop-color:#000000;stop-opacity:1"
     id="g51692"
     transform="translate(0,1)">
    <path
       id="path51690"
       style="color:#000000;font-variation-settings:normal;opacity:1;vector-effect:none;fill:#000000;fill-opacity:1;stroke-width:1;stroke-linecap:butt;stroke-linejoin:miter;stroke-miterlimit:4;stroke-dasharray:none;stroke-dashoffset:0;stroke-opacity:1;-inkscape-stroke:none;marker:none;stop-color:#000000;stop-opacity:1"
       d="M 11.455078,4.0007692 C 11.201853,4.0036197 10.998349,4.2411748 11,4.5319923 V 10.262171 L 9.2070312,8.4263263 C 8.9325036,8.1496663 8.4856692,8.1479176 8.2089844,8.4224203 7.9323103,8.6969339 7.9305614,9.1437458 8.2050781,9.4204167 l 2.5195309,2.5350273 -2.5195309,2.536982 c -0.2745161,0.276671 -0.2727672,0.723482 0.00391,0.997995 0.2766848,0.274503 0.7235192,0.272754 0.9980468,-0.0039 L 11,13.633099 V 19.4746 c 0.0012,0.292915 0.289882,0.528715 0.544926,0.525365 0.282165,0 0.607983,-0.07283 0.757812,-0.222645 l 3.50586,-3.740046 c 0.260262,-0.277147 0.254217,-0.710636 -0.01367,-0.980418 L 12.71485,11.957403 15.794928,8.8559982 c 0.272019,-0.2730892 0.274627,-0.7138956 0.0059,-0.9901843 L 12.248047,4.2136491 C 11.986732,3.9755686 11.731247,4.0007692 11.455078,4.0007692 Z M 12,5.9088757 14.304688,8.3540644 12,10.721132 Z m -0.03321,7.2965053 2.347656,2.363161 -2.322265,2.476438 z"
       sodipodi:nodetypes="ccccccccccccccccccccccccccccc" />
  </g>
  <g
     style="opacity:1"
     id="g3212">
    <path
       id="path3367"
       style="color:#000000;font-variation-settings:normal;opacity:1;vector-effect:none;fill:url(#linearGradient51655);fill-opacity:1;stroke-width:1;stroke-linecap:butt;stroke-linejoin:miter;stroke-miterlimit:4;stroke-dasharray:none;stroke-dashoffset:0;stroke-opacity:1;-inkscape-stroke:none;marker:none;stop-color:#000000;stop-opacity:1"
       d="M 11.455078,4.0007692 C 11.201853,4.0036197 10.998349,4.2411748 11,4.5319923 V 10.262171 L 9.2070312,8.4263263 C 8.9325036,8.1496663 8.4856692,8.1479176 8.2089844,8.4224203 7.9323103,8.6969339 7.9305614,9.1437458 8.2050781,9.4204167 l 2.5195309,2.5350273 -2.5195309,2.536982 c -0.2745161,0.276671 -0.2727672,0.723482 0.00391,0.997995 0.2766848,0.274503 0.7235192,0.272754 0.9980468,-0.0039 L 11,13.633099 V 19.4746 c 0.0012,0.292915 0.289882,0.528715 0.544926,0.525365 0.361372,0 0.607983,-0.07283 0.757812,-0.222645 l 3.50586,-3.740046 c 0.260262,-0.277147 0.254217,-0.710636 -0.01367,-0.980418 L 12.71485,11.957403 15.794928,8.8559982 c 0.272019,-0.2730892 0.274627,-0.7138956 0.0059,-0.9901843 L 12.248047,4.2136491 C 11.986732,3.9755686 11.731247,4.0007692 11.455078,4.0007692 Z M 12,5.9088757 14.304688,8.3540644 12,10.721132 Z m 0,7.2965053 2.31445,2.363161 L 12,18.04498 Z"
       sodipodi:nodetypes="ccccccccccccccccccccccccccccc" />
  </g>
</svg>
