<?xml version="1.0" encoding="UTF-8" standalone="no"?>
<svg
   version="1.0"
   width="24"
   height="24"
   id="svg4073"
   sodipodi:docname="nm-device-wired-secure.svg"
   inkscape:version="1.1.2 (0a00cf5339, 2022-02-04)"
   xmlns:inkscape="http://www.inkscape.org/namespaces/inkscape"
   xmlns:sodipodi="http://sodipodi.sourceforge.net/DTD/sodipodi-0.dtd"
   xmlns:xlink="http://www.w3.org/1999/xlink"
   xmlns="http://www.w3.org/2000/svg"
   xmlns:svg="http://www.w3.org/2000/svg"
   xmlns:rdf="http://www.w3.org/1999/02/22-rdf-syntax-ns#"
   xmlns:cc="http://creativecommons.org/ns#"
   xmlns:dc="http://purl.org/dc/elements/1.1/">
  <sodipodi:namedview
     id="namedview17"
     pagecolor="#ffffff"
     bordercolor="#666666"
     borderopacity="1.0"
     inkscape:pageshadow="2"
     inkscape:pageopacity="0.0"
     inkscape:pagecheckerboard="0"
     showgrid="false"
     inkscape:zoom="14.208333"
     inkscape:cx="19.706745"
     inkscape:cy="7.5307918"
     inkscape:window-width="1317"
     inkscape:window-height="893"
     inkscape:window-x="783"
     inkscape:window-y="77"
     inkscape:window-maximized="0"
     inkscape:current-layer="svg4073" />
  <metadata
     id="metadata18">
    <rdf:RDF>
      <cc:Work
         rdf:about="">
        <dc:format>image/svg+xml</dc:format>
        <dc:type
           rdf:resource="http://purl.org/dc/dcmitype/StillImage" />
      </cc:Work>
    </rdf:RDF>
  </metadata>
  <defs
     id="defs4075">
    <linearGradient
       id="linearGradient3678">
      <stop
         style="stop-color:#ffffff;stop-opacity:1;"
         offset="0"
         id="stop3680" />
      <stop
         style="stop-color:#e6e6e6;stop-opacity:1;"
         offset="1"
         id="stop3682" />
    </linearGradient>
    <linearGradient
       inkscape:collect="always"
       xlink:href="#linearGradient3678"
       id="linearGradient848"
       x1="13.825679"
       y1="4.230546"
       x2="13.825679"
       y2="19.910877"
       gradientUnits="userSpaceOnUse" />
  </defs>
  <path
     d="M 11.917969,5 C 10.300781,5 9.0000001,6.3007811 9.0000001,7.9179687 V 9.9999998 H 7.0000002 V 17 H 11 v 2 H 5.0000002 v 2 H 19 v -2 h -6 v -2 h 4 V 9.9999998 H 15 V 7.9179688 C 15,6.3007811 13.699219,5.0000001 12.082031,5.0000001 Z m 0.08203,2 c 0.554688,0 1,0.445312 1,0.9999997 v 2.0000001 h -2 V 7.9999997 C 10.999999,7.445312 11.445311,7 11.999999,7 Z"
     fill="#2e3436"
     id="path1265"
     style="fill:#000000;fill-opacity:0.5"
     sodipodi:nodetypes="ssccccccccccccccsssssccss" />
  <path
     d="m 11.917969,4.0000001 c -1.617188,0 -2.9179689,1.3007811 -2.9179689,2.9179687 V 8.9999999 H 7.0000002 V 16 H 11 v 2 H 5.0000002 v 2 H 19 v -2 h -6 v -2 h 4 V 8.9999999 H 15 V 6.9179689 C 15,5.3007812 13.699219,4.0000002 12.082031,4.0000002 Z m 0.08203,2 c 0.554688,0 1,0.445312 1,0.9999997 v 2.0000001 h -2 V 6.9999998 c 0,-0.5546877 0.445312,-0.9999997 1,-0.9999997 z"
     fill="#2e3436"
     id="path2"
     style="fill:url(#linearGradient848);fill-opacity:1"
     sodipodi:nodetypes="ssccccccccccccccsssssccss" />
</svg>
