<?xml version="1.0" encoding="UTF-8" standalone="no"?>
<svg
   xmlns:dc="http://purl.org/dc/elements/1.1/"
   xmlns:cc="http://creativecommons.org/ns#"
   xmlns:rdf="http://www.w3.org/1999/02/22-rdf-syntax-ns#"
   xmlns:svg="http://www.w3.org/2000/svg"
   xmlns="http://www.w3.org/2000/svg"
   xmlns:xlink="http://www.w3.org/1999/xlink"
   xmlns:sodipodi="http://sodipodi.sourceforge.net/DTD/sodipodi-0.dtd"
   xmlns:inkscape="http://www.inkscape.org/namespaces/inkscape"
   version="1.1"
   id="svg2"
   width="24"
   height="24"
   sodipodi:docname="software-update-available.svg"
   inkscape:version="0.92.4 (5da689c313, 2019-01-14)">
  <defs
     id="defs7">
    <linearGradient
       x1="159.68553"
       y1="14.403693"
       x2="159.68553"
       y2="38.279892"
       id="linearGradient2388"
       xlink:href="#linearGradient3587-6-5-3"
       gradientUnits="userSpaceOnUse"
       gradientTransform="matrix(-0.32801832,0,0,0.5447147,86.823996,-10.845903)" />
    <linearGradient
       id="linearGradient3587-6-5-3">
      <stop
         id="stop3589-9-2-2"
         style="stop-color:#000000;stop-opacity:1"
         offset="0" />
      <stop
         id="stop3591-7-4-73"
         style="stop-color:#363636;stop-opacity:1"
         offset="1" />
    </linearGradient>
    <linearGradient
       inkscape:collect="always"
       xlink:href="#linearGradient3587-6-5-3"
       id="linearGradient836"
       x1="7"
       y1="3"
       x2="7"
       y2="19"
       gradientUnits="userSpaceOnUse"
       gradientTransform="matrix(1.1818182,0,0,1.125,-0.9090909,-0.375)" />
    <linearGradient
       inkscape:collect="always"
       xlink:href="#linearGradient3587-6-5-3"
       id="linearGradient836-3"
       x1="7"
       y1="3"
       x2="7"
       y2="19"
       gradientUnits="userSpaceOnUse"
       gradientTransform="matrix(-1.1818182,0,0,-1.125,24.909091,24.375)" />
    <linearGradient
       inkscape:collect="always"
       xlink:href="#linearGradient3678"
       id="linearGradient913"
       gradientUnits="userSpaceOnUse"
       gradientTransform="matrix(1.1818182,0,0,1.125,-0.9090909,-0.375)"
       x1="7"
       y1="3"
       x2="7"
       y2="19" />
    <linearGradient
       id="linearGradient3678">
      <stop
         style="stop-color:#ffffff;stop-opacity:1;"
         offset="0"
         id="stop3680" />
      <stop
         style="stop-color:#e6e6e6;stop-opacity:1;"
         offset="1"
         id="stop3682" />
    </linearGradient>
  </defs>
  <sodipodi:namedview
     pagecolor="#ffffff"
     bordercolor="#666666"
     borderopacity="1"
     objecttolerance="10"
     gridtolerance="10"
     guidetolerance="10"
     inkscape:pageopacity="0"
     inkscape:pageshadow="2"
     inkscape:window-width="1920"
     inkscape:window-height="1030"
     id="namedview5"
     showgrid="true"
     inkscape:zoom="19.69"
     inkscape:cx="1.2784617"
     inkscape:cy="8.3910694"
     inkscape:window-x="0"
     inkscape:window-y="26"
     inkscape:window-maximized="1"
     inkscape:current-layer="svg2">
    <inkscape:grid
       type="xygrid"
       id="grid814" />
  </sodipodi:namedview>
  <metadata
     id="metadata12">
    <rdf:RDF>
      <cc:Work
         rdf:about="">
        <dc:format>image/svg+xml</dc:format>
        <dc:type
           rdf:resource="http://purl.org/dc/dcmitype/StillImage" />
        <dc:title />
      </cc:Work>
    </rdf:RDF>
  </metadata>
  <path
     inkscape:connector-curvature="0"
     style="color:#bebebe;overflow:visible;opacity:0.5;fill:#000000;fill-opacity:1;stroke-width:1.15305912;marker:none"
     d="M 12,4 V 6 C 8.083799,6 5,9.2721 5,13 H 7 C 7,10.5147 9.3892,8 12,8 v 2 L 14.75,8.625 A 5,5 0 0 1 14,6 5,5 0 0 1 14.09375,5.046875 Z m 5,9 c 0,2.4853 -2.3892,5 -5,5 v -2 l -6,3 6,3 v -2 c 3.916201,0 7,-3.2721 7,-7 z"
     id="path816-2" />
  <circle
     style="opacity:0.5;fill:#000000;fill-opacity:1;stroke:none;stroke-width:10.30656433;stroke-linecap:round;stroke-miterlimit:4;stroke-dasharray:none;stroke-dashoffset:0;stroke-opacity:0"
     id="path879-5-9"
     cx="19"
     cy="6"
     r="4" />
  <circle
     style="opacity:1;fill:#009dff;fill-opacity:1;stroke:none;stroke-width:10.30656433;stroke-linecap:round;stroke-miterlimit:4;stroke-dasharray:none;stroke-dashoffset:0;stroke-opacity:0"
     id="path879-5"
     cx="19"
     cy="5"
     r="4" />
  <path
     style="color:#bebebe;overflow:visible;opacity:1;fill:url(#linearGradient913);fill-opacity:1;stroke-width:1.15305912;marker:none"
     d="M 12 3 L 12 5 C 8.0837991 5 5 8.2721 5 12 L 7 12 C 7 9.5147 9.3892 7 12 7 L 12 9 L 14.75 7.625 A 5 5 0 0 1 14 5 A 5 5 0 0 1 14.09375 4.046875 L 12 3 z M 17 12 C 17 14.4853 14.6108 17 12 17 L 12 15 L 6 18 L 12 21 L 12 19 C 15.916201 19 19 15.7279 19 12 L 17 12 z "
     id="path816" />
</svg>
