<?xml version="1.0" encoding="UTF-8" standalone="no"?>
<svg
   xmlns:dc="http://purl.org/dc/elements/1.1/"
   xmlns:cc="http://creativecommons.org/ns#"
   xmlns:rdf="http://www.w3.org/1999/02/22-rdf-syntax-ns#"
   xmlns:svg="http://www.w3.org/2000/svg"
   xmlns="http://www.w3.org/2000/svg"
   xmlns:xlink="http://www.w3.org/1999/xlink"
   id="svg3828"
   height="24"
   width="24"
   version="1.1">
  <defs
     id="defs3830">
    <linearGradient
       id="linearGradient5060">
      <stop
         offset="0"
         style="stop-color:#000000;stop-opacity:1"
         id="stop5062" />
      <stop
         offset="1"
         style="stop-color:#000000;stop-opacity:0"
         id="stop5064" />
    </linearGradient>
    <linearGradient
       id="linearGradient5048">
      <stop
         offset="0"
         style="stop-color:#000000;stop-opacity:0"
         id="stop5050" />
      <stop
         offset="0.5"
         style="stop-color:#000000;stop-opacity:1"
         id="stop5056" />
      <stop
         offset="1"
         style="stop-color:#000000;stop-opacity:0"
         id="stop5052" />
    </linearGradient>
    <linearGradient
       xlink:href="#linearGradient8265-821-176-38-919-66-249-48-321"
       id="linearGradient3051"
       gradientUnits="userSpaceOnUse"
       gradientTransform="matrix(0.34829932,0,0,0.64312604,3.640816,-0.83865695)"
       x1="16.626165"
       y1="15.298182"
       x2="20.054544"
       y2="24.627615" />
    <linearGradient
       id="linearGradient8265-821-176-38-919-66-249-48-321">
      <stop
         offset="0"
         style="stop-color:#ffffff;stop-opacity:1"
         id="stop5601" />
      <stop
         offset="1"
         style="stop-color:#ffffff;stop-opacity:0"
         id="stop5603" />
    </linearGradient>
    <radialGradient
       xlink:href="#linearGradient2867-449-88-871-390-598-476-591-434-148-57-177-641-289-620-227-114-444-680-744-4"
       id="radialGradient3174"
       gradientUnits="userSpaceOnUse"
       gradientTransform="matrix(0,1.5168666,-2.5735755,0,36.382422,-17.589018)"
       cx="14.239056"
       cy="11.49049"
       fx="14.239056"
       fy="11.49049"
       r="18.000002" />
    <linearGradient
       xlink:href="#linearGradient2781"
       id="linearGradient3176"
       gradientUnits="userSpaceOnUse"
       gradientTransform="matrix(0.39221362,0,0,0.4270262,29.203178,-0.15980093)"
       x1="-51.786404"
       y1="53.623615"
       x2="-51.786404"
       y2="2.9062471" />
    <radialGradient
       r="117.14286"
       fy="486.64789"
       fx="605.71429"
       cy="486.64789"
       cx="605.71429"
       gradientTransform="matrix(0.01204859,0,0,0.0082353,13.238793,18.980564)"
       gradientUnits="userSpaceOnUse"
       id="radialGradient3095"
       xlink:href="#linearGradient5060" />
    <radialGradient
       r="117.14286"
       fy="486.64789"
       fx="605.71429"
       cy="486.64789"
       cx="605.71429"
       gradientTransform="matrix(-0.01204859,0,0,0.0082353,10.761206,18.980564)"
       gradientUnits="userSpaceOnUse"
       id="radialGradient3098"
       xlink:href="#linearGradient5060" />
    <linearGradient
       y2="609.50507"
       x2="302.85715"
       y1="366.64789"
       x1="302.85715"
       gradientTransform="matrix(0.0352071,0,0,0.0082353,-0.724852,18.980547)"
       gradientUnits="userSpaceOnUse"
       id="linearGradient3101"
       xlink:href="#linearGradient5048" />
    <linearGradient
       y2="24.627615"
       x2="20.054544"
       y1="15.298182"
       x1="16.626165"
       gradientTransform="matrix(0.34829932,0,0,0.64312604,3.640816,-1.8386569)"
       gradientUnits="userSpaceOnUse"
       id="linearGradient3873"
       xlink:href="#linearGradient8265-821-176-38-919-66-249-48-321" />
    <linearGradient
       id="linearGradient2867-449-88-871-390-598-476-591-434-148-57-177-641-289-620-227-114-444-680-744-4">
      <stop
         offset="0"
         style="stop-color:#6b6b6b;stop-opacity:1;"
         id="stop5430-5" />
      <stop
         offset="0.26238"
         style="stop-color:#525252;stop-opacity:1;"
         id="stop5432-2" />
      <stop
         offset="0.704952"
         style="stop-color:#4b4b4b;stop-opacity:1"
         id="stop5434-9" />
      <stop
         offset="1"
         style="stop-color:#3f3f3f;stop-opacity:1"
         id="stop5436-2" />
    </linearGradient>
    <linearGradient
       id="linearGradient2781">
      <stop
         id="stop2783"
         style="stop-color:#000000;stop-opacity:1"
         offset="0" />
      <stop
         id="stop2785"
         style="stop-color:#525252;stop-opacity:1;"
         offset="1" />
    </linearGradient>
  </defs>
  <metadata
     id="metadata3833">
    <rdf:RDF>
      <cc:Work
         rdf:about="">
        <dc:format>image/svg+xml</dc:format>
        <dc:type
           rdf:resource="http://purl.org/dc/dcmitype/StillImage" />
        <dc:title />
      </cc:Work>
    </rdf:RDF>
  </metadata>
  <rect
     width="16.999998"
     height="2"
     x="3.5000007"
     y="22"
     id="rect2879"
     style="opacity:0.15;fill:url(#linearGradient3101);fill-opacity:1;fill-rule:nonzero;stroke:none;stroke-width:1;marker:none;visibility:visible;display:inline;overflow:visible" />
  <path
     d="m 3.4999999,22.000085 c 0,0 0,1.999891 0,1.999891 C 2.8795275,24.003776 2,23.551901 2,22.999901 2,22.447902 2.6924,22.000085 3.4999999,22.000085 z"
     id="path2881"
     style="opacity:0.15;fill:url(#radialGradient3098);fill-opacity:1;fill-rule:nonzero;stroke:none;stroke-width:1;marker:none;visibility:visible;display:inline;overflow:visible" />
  <path
     d="m 20.5,22.000085 c 0,0 0,1.999891 0,1.999891 0.620472,0.0038 1.5,-0.448075 1.5,-1.000075 0,-0.551999 -0.692402,-0.999816 -1.5,-0.999816 z"
     id="path2883"
     style="opacity:0.15;fill:url(#radialGradient3095);fill-opacity:1;fill-rule:nonzero;stroke:none;stroke-width:1;marker:none;visibility:visible;display:inline;overflow:visible" />
  <path
     d="m 3.4999609,1.4998305 c 3.89558,0 17.0000571,0.00134 17.0000571,0.00134 l 2.1e-5,20.9988685 c 0,0 -11.3333861,0 -17.0000781,0 0,-7.000026 0,-14.0001795 0,-21.0002085 z"
     id="path4160"
     style="color:#000000;fill:url(#radialGradient3174);fill-opacity:1.0;fill-rule:nonzero;stroke:url(#linearGradient3176);stroke-width:0.99992186000000005;stroke-linecap:butt;stroke-linejoin:round;stroke-miterlimit:4;stroke-opacity:1;stroke-dasharray:none;stroke-dashoffset:0;marker:none;visibility:visible;display:inline;overflow:visible;enable-background:accumulate" />
  <path
     d="M 4,3.0000028 4,14.696857 c 9.778e-4,0.08657 0.02152,0.168428 0.056684,0.225715 0.035165,0.05729 0.081707,0.08477 0.1283485,0.07574 L 19.858503,10.416048 c 0.08062,-0.02348 0.14037,-0.15077 0.141497,-0.301466 l 0,-7.1145792 z"
     id="path3879"
     style="opacity:0.2;fill:url(#linearGradient3051);fill-opacity:1;fill-rule:evenodd;stroke:none" />
  <path
     id="path3102"
     d="M 5,3 14.613334,3 19,7.3846154 19,21 5,21 z"
     style="fill:#ffffff;fill-opacity:1;stroke:none" />
  <g
     id="g3530">
    <path
       style="fill:none;stroke:#000000;stroke-width:1;stroke-linecap:round;stroke-linejoin:round;stroke-miterlimit:4;stroke-opacity:1;stroke-dasharray:none"
       d="m 6.5,12.5 1.363637,0 1.363636,4 1.363636,-7.9999994 5.909091,0"
       id="path4018" />
    <g
       style="font-size:12px;font-style:normal;font-variant:normal;font-weight:bold;font-stretch:normal;line-height:125%;letter-spacing:0px;word-spacing:0px;fill:#000000;fill-opacity:1;stroke:none;font-family:Droid Sans;-inkscape-font-specification:Sans"
       id="text4042"
       transform="matrix(0.50000472,0,0,0.49999295,0.49989616,1.0002256)">
      <path
         d="m 22.24707,22.698101 0,-0.698242 5.392578,0 0,0.698242 -1.127929,0.290039 1.471679,2.169087 1.944336,-2.190571 -1.009765,-0.268555 0,-0.698242 3.4375,0 0,0.698242 -0.891602,0.225586 -2.835937,3.232563 3.201172,4.919922 0.966796,0.225586 0,0.698242 -5.392578,0 0,-0.698242 1.12793,-0.247071 -1.761719,-2.717773 -2.341797,2.739258 L 25.4375,31.301758 25.4375,32 22,32 22,31.301758 22.902344,31.129883 26.125,27.348633 23.224609,22.966656 22.24707,22.698101"
         style="font-size:22px;font-family:Liberation Serif;-inkscape-font-specification:Liberation Serif Bold"
         id="path3142" />
    </g>
  </g>
  <path
     id="path3872"
     style="opacity:0.2;fill:#ffffff;fill-opacity:1;stroke:#000000;stroke-width:0.99999988px;stroke-linecap:butt;stroke-linejoin:miter;stroke-opacity:1"
     d="m 4.4999999,2.4999991 10.3124991,0 L 19.5,7.1341457 19.5,21.5 4.4999999,21.5 z" />
  <path
     style="opacity:0.2;fill:url(#linearGradient3873);fill-opacity:1;fill-rule:evenodd;stroke:none"
     id="path3871"
     d="M 4,2.0000029 4,13.696857 c 9.778e-4,0.08657 0.02152,0.168428 0.056684,0.225715 0.035165,0.05729 0.081707,0.08477 0.1283485,0.07574 L 19.858503,9.4160481 c 0.08062,-0.02348 0.14037,-0.15077 0.141497,-0.301466 l 0,-7.1145792 z" />
</svg>
