<?xml version="1.0" encoding="UTF-8" standalone="no"?>
<svg
   xmlns:dc="http://purl.org/dc/elements/1.1/"
   xmlns:cc="http://creativecommons.org/ns#"
   xmlns:rdf="http://www.w3.org/1999/02/22-rdf-syntax-ns#"
   xmlns:svg="http://www.w3.org/2000/svg"
   xmlns="http://www.w3.org/2000/svg"
   xmlns:xlink="http://www.w3.org/1999/xlink"
   version="1.1"
   width="24"
   height="24"
   id="svg3828">
  <defs
     id="defs3830">
    <linearGradient
       id="linearGradient4625">
      <stop
         style="stop-color:#aaaaaa;stop-opacity:1"
         offset="0"
         id="stop4627" />
      <stop
         style="stop-color:#c8c8c8;stop-opacity:1"
         offset="1"
         id="stop4629" />
    </linearGradient>
    <linearGradient
       x1="23.99999"
       y1="2.7872362"
       x2="23.99999"
       y2="43"
       id="linearGradient3119"
       xlink:href="#linearGradient3977"
       gradientUnits="userSpaceOnUse"
       gradientTransform="matrix(0.40540511,0,0,0.51351351,2.2696871,7.6756805)" />
    <linearGradient
       id="linearGradient3977">
      <stop
         id="stop3979"
         style="stop-color:#ffffff;stop-opacity:1"
         offset="0" />
      <stop
         id="stop3981"
         style="stop-color:#ffffff;stop-opacity:0.23529412"
         offset="0.03626217" />
      <stop
         id="stop3983"
         style="stop-color:#ffffff;stop-opacity:0.15686275"
         offset="0.95056331" />
      <stop
         id="stop3985"
         style="stop-color:#ffffff;stop-opacity:0.39215687"
         offset="1" />
    </linearGradient>
    <linearGradient
       x1="25.132275"
       y1="-3.7190604"
       x2="25.132275"
       y2="47.013336"
       id="linearGradient3122"
       xlink:href="#linearGradient3600-4"
       gradientUnits="userSpaceOnUse"
       gradientTransform="matrix(0.48571543,0,0,0.45629666,0.3428289,8.3488617)" />
    <linearGradient
       id="linearGradient3600-4">
      <stop
         id="stop3602-7"
         style="stop-color:#f4f4f4;stop-opacity:1"
         offset="0" />
      <stop
         id="stop3604-6"
         style="stop-color:#dbdbdb;stop-opacity:1"
         offset="1" />
    </linearGradient>
    <linearGradient
       x1="-51.786404"
       y1="50.786446"
       x2="-51.786404"
       y2="2.9062471"
       id="linearGradient3124"
       xlink:href="#linearGradient3104-5"
       gradientUnits="userSpaceOnUse"
       gradientTransform="matrix(0.39221364,0,0,0.42702571,29.199296,7.8403287)" />
    <linearGradient
       id="linearGradient3104-5">
      <stop
         id="stop3106-6"
         style="stop-color:#a0a0a0;stop-opacity:1"
         offset="0" />
      <stop
         id="stop3108-9"
         style="stop-color:#bebebe;stop-opacity:1"
         offset="1" />
    </linearGradient>
    <radialGradient
       cx="605.71429"
       cy="486.64789"
       r="117.14286"
       fx="605.71429"
       fy="486.64789"
       id="radialGradient3045"
       xlink:href="#linearGradient5060"
       gradientUnits="userSpaceOnUse"
       gradientTransform="matrix(0.01204859,0,0,0.0082353,13.238793,26.980564)" />
    <linearGradient
       id="linearGradient5060">
      <stop
         id="stop5062"
         style="stop-color:#000000;stop-opacity:1"
         offset="0" />
      <stop
         id="stop5064"
         style="stop-color:#000000;stop-opacity:0"
         offset="1" />
    </linearGradient>
    <radialGradient
       cx="605.71429"
       cy="486.64789"
       r="117.14286"
       fx="605.71429"
       fy="486.64789"
       id="radialGradient3048"
       xlink:href="#linearGradient5060"
       gradientUnits="userSpaceOnUse"
       gradientTransform="matrix(-0.01204859,0,0,0.0082353,10.761206,26.980564)" />
    <linearGradient
       id="linearGradient5048">
      <stop
         id="stop5050"
         style="stop-color:#000000;stop-opacity:0"
         offset="0" />
      <stop
         id="stop5056"
         style="stop-color:#000000;stop-opacity:1"
         offset="0.5" />
      <stop
         id="stop5052"
         style="stop-color:#000000;stop-opacity:0"
         offset="1" />
    </linearGradient>
    <linearGradient
       x1="302.85715"
       y1="366.64789"
       x2="302.85715"
       y2="609.50507"
       id="linearGradient3826"
       xlink:href="#linearGradient5048"
       gradientUnits="userSpaceOnUse"
       gradientTransform="matrix(0.0352071,0,0,0.0082353,-0.724852,26.980547)" />
    <linearGradient
       xlink:href="#linearGradient4625"
       id="linearGradient4631"
       x1="10.89079"
       y1="22.398319"
       x2="10.89079"
       y2="0.51694918"
       gradientUnits="userSpaceOnUse" />
    <radialGradient
       xlink:href="#linearGradient4114-3-2"
       id="radialGradient3172"
       gradientUnits="userSpaceOnUse"
       gradientTransform="matrix(0.95600859,0,0,0.31831544,8.0437962,15.10823)"
       cx="15.115514"
       cy="63.965389"
       fx="15.115514"
       fy="63.965389"
       r="12.289036" />
    <linearGradient
       id="linearGradient4114-3-2">
      <stop
         id="stop4116-7-9"
         style="stop-color:#000000;stop-opacity:1"
         offset="0" />
      <stop
         id="stop4118-4-1"
         style="stop-color:#000000;stop-opacity:0"
         offset="1" />
    </linearGradient>
    <radialGradient
       xlink:href="#linearGradient4172"
       id="radialGradient4178"
       cx="20.138643"
       cy="12.122985"
       fx="20.138643"
       fy="12.122985"
       r="11"
       gradientUnits="userSpaceOnUse"
       gradientTransform="matrix(-0.89675202,0.77141514,-0.77614915,-0.89106157,55.014729,14.885565)" />
    <linearGradient
       id="linearGradient4172">
      <stop
         style="stop-color:#8282bf;stop-opacity:1"
         offset="0"
         id="stop4174" />
      <stop
         style="stop-color:#000080;stop-opacity:1"
         offset="1"
         id="stop4176" />
    </linearGradient>
    <linearGradient
       xlink:href="#linearGradient4156"
       id="linearGradient4162"
       x1="14.070047"
       y1="31.767511"
       x2="29.828938"
       y2="17.828428"
       gradientUnits="userSpaceOnUse"
       gradientTransform="matrix(1.0430785,0,0,1.0365878,-0.45921384,-1.4794848)" />
    <linearGradient
       id="linearGradient4156">
      <stop
         style="stop-color:#000058;stop-opacity:1"
         offset="0"
         id="stop4158" />
      <stop
         style="stop-color:#000078;stop-opacity:1"
         offset="1"
         id="stop4160" />
    </linearGradient>
    <radialGradient
       xlink:href="#linearGradient4165"
       id="radialGradient4171"
       cx="32.802898"
       cy="13.760531"
       fx="32.802898"
       fy="13.760531"
       r="3.4999998"
       gradientTransform="matrix(-0.58079829,3.9638409e-8,-3.8283352e-8,-0.55263328,53.710488,19.942878)"
       gradientUnits="userSpaceOnUse" />
    <linearGradient
       id="linearGradient4165">
      <stop
         style="stop-color:#5858a9;stop-opacity:1"
         offset="0"
         id="stop4167" />
      <stop
         style="stop-color:#000080;stop-opacity:1"
         offset="1"
         id="stop4169" />
    </linearGradient>
    <linearGradient
       xlink:href="#linearGradient4164"
       id="linearGradient4170"
       x1="30.651611"
       y1="16.348345"
       x2="35.248386"
       y2="11.751223"
       gradientUnits="userSpaceOnUse"
       gradientTransform="matrix(0.88444372,0,0,0.87780128,4.2965236,1.2160422)" />
    <linearGradient
       id="linearGradient4164">
      <stop
         style="stop-color:#000058;stop-opacity:1"
         offset="0"
         id="stop4166" />
      <stop
         style="stop-color:#000078;stop-opacity:1"
         offset="1"
         id="stop4168" />
    </linearGradient>
    <linearGradient
       xlink:href="#linearGradient4155"
       id="linearGradient4163"
       x1="28.798479"
       y1="18.222336"
       x2="21.484772"
       y2="26.383757"
       gradientUnits="userSpaceOnUse"
       gradientTransform="matrix(0.94090429,0,0,0.9349547,1.7892495,1.06197)" />
    <linearGradient
       id="linearGradient4155">
      <stop
         style="stop-color:#ffffff;stop-opacity:0.78"
         offset="0"
         id="stop4157" />
      <stop
         style="stop-color:#ffffff;stop-opacity:0.314"
         offset="1"
         id="stop4159" />
    </linearGradient>
    <linearGradient
       xlink:href="#linearGradient4167"
       id="linearGradient4174"
       x1="35.94286"
       y1="10.928572"
       x2="32.485714"
       y2="14.535714"
       gradientUnits="userSpaceOnUse"
       gradientTransform="matrix(0.52450935,0,0,0.5198443,15.233869,7.1599633)" />
    <linearGradient
       id="linearGradient4167">
      <stop
         style="stop-color:#ffffff;stop-opacity:1;"
         offset="0"
         id="stop4170" />
      <stop
         style="stop-color:#ffffff;stop-opacity:0;"
         offset="1"
         id="stop4172" />
    </linearGradient>
  </defs>
  <metadata
     id="metadata3833">
    <rdf:RDF>
      <cc:Work
         rdf:about="">
        <dc:format>image/svg+xml</dc:format>
        <dc:type
           rdf:resource="http://purl.org/dc/dcmitype/StillImage" />
        <dc:title />
      </cc:Work>
    </rdf:RDF>
  </metadata>
  <g
     transform="translate(0,-8)"
     id="layer1">
    <rect
       width="16.999998"
       height="2"
       x="3.5000007"
       y="30"
       id="rect2879"
       style="opacity:0.15;fill:url(#linearGradient3826);fill-opacity:1;fill-rule:nonzero;stroke:none;stroke-width:1;marker:none;visibility:visible;display:inline;overflow:visible" />
    <path
       d="m 3.4999999,30.000085 c 0,0 0,1.999891 0,1.999891 C 2.8795275,32.003776 2,31.551901 2,30.999901 2,30.447902 2.6924,30.000085 3.4999999,30.000085 z"
       id="path2881"
       style="opacity:0.15;fill:url(#radialGradient3048);fill-opacity:1;fill-rule:nonzero;stroke:none;stroke-width:1;marker:none;visibility:visible;display:inline;overflow:visible" />
    <path
       d="m 20.5,30.000085 c 0,0 0,1.999891 0,1.999891 0.620472,0.0038 1.5,-0.448075 1.5,-1.000075 0,-0.551999 -0.692402,-0.999816 -1.5,-0.999816 z"
       id="path2883"
       style="opacity:0.15;fill:url(#radialGradient3045);fill-opacity:1;fill-rule:nonzero;stroke:none;stroke-width:1;marker:none;visibility:visible;display:inline;overflow:visible" />
    <path
       d="m 3.4999601,8.49932 c 3.8955809,0 17.0000589,0.00136 17.0000589,0.00136 l 2.1e-5,21.999353 c 0,0 -11.3333862,0 -17.0000799,0 0,-7.000018 0,-15.000672 0,-22.0006907 z"
       id="path4160-3"
       style="fill:url(#linearGradient3122);fill-opacity:1;stroke:url(#linearGradient3124);stroke-width:0.99992186000000005;stroke-linecap:butt;stroke-linejoin:round;stroke-miterlimit:4;stroke-opacity:1;stroke-dasharray:none;stroke-dashoffset:0;display:inline" />
    <path
       d="m 19.5,29.5 -15.0000004,0 0,-20 L 19.5,9.5 z"
       id="rect6741-1"
       style="fill:none;stroke:url(#linearGradient3119);stroke-width:1;stroke-linecap:round;stroke-linejoin:miter;stroke-miterlimit:4;stroke-opacity:1;stroke-dasharray:none;stroke-dashoffset:0" />
  </g>
  <g
     id="g4578"
     style="fill-opacity:1;fill:url(#linearGradient4631)">
    <path
       style="display:inline;fill:url(#linearGradient4631);fill-opacity:1;stroke:none;opacity:1"
       id="path6035"
       d="m 6,4.0000004 1.124072,0 0,1 -1.124072,0 0,-1 z" />
    <path
       style="display:inline;fill:url(#linearGradient4631);fill-opacity:1;stroke:none;opacity:1"
       id="path6033"
       d="m 7.277189,4.0000004 1.060612,0 0,1 -1.060612,0 0,-1 z" />
    <path
       style="display:inline;fill:url(#linearGradient4631);fill-opacity:1;stroke:none;opacity:1"
       id="path6031"
       d="m 8.490918,4.0000004 0.933684,0 0,1 -0.933684,0 0,-1 z" />
    <path
       style="display:inline;fill:url(#linearGradient4631);fill-opacity:1;stroke:none;opacity:1"
       id="path6029"
       d="m 9.577718,4.0000004 0.410114,0 0,1 -0.410114,0 0,-1 z" />
    <path
       style="display:inline;fill:url(#linearGradient4631);fill-opacity:1;stroke:none;opacity:1"
       id="path6027"
       d="m 10.140954,4.0000004 0.917815,0 0,1 -0.917815,0 0,-1 z" />
    <path
       style="display:inline;fill:url(#linearGradient4631);fill-opacity:1;stroke:none;opacity:1"
       id="path6025"
       d="m 11.211891,4.0000004 2.377462,0 0,1 -2.377462,0 0,-1 z" />
    <path
       style="display:inline;fill:url(#linearGradient4631);fill-opacity:1;stroke:none;opacity:1"
       id="path6017"
       d="m 6,10 1.124072,0 0,1 L 6,11 6,10 Z" />
    <path
       style="display:inline;fill:url(#linearGradient4631);fill-opacity:1;stroke:none;opacity:1"
       id="path6015"
       d="m 7.277188,10 1.060612,0 0,1 -1.060612,0 0,-1 z" />
    <path
       style="display:inline;fill:url(#linearGradient4631);fill-opacity:1;stroke:none;opacity:1"
       id="path6013"
       d="m 8.490917,10 0.933683,0 0,1 -0.933683,0 0,-1 z" />
    <path
       style="display:inline;fill:url(#linearGradient4631);fill-opacity:1;stroke:none;opacity:1"
       id="path6011"
       d="m 9.577716,10 0.410114,0 0,1 -0.410114,0 0,-1 z" />
    <path
       style="display:inline;fill:url(#linearGradient4631);fill-opacity:1;stroke:none;opacity:1"
       id="path6009"
       d="m 10.140952,12 0.917814,0 0,1 -0.917814,0 0,-1 z" />
    <path
       style="display:inline;fill:url(#linearGradient4631);fill-opacity:1;stroke:none;opacity:1"
       id="path6007"
       d="m 11.211888,12 2.377461,0 0,1 -2.377461,0 0,-1 z" />
    <path
       style="display:inline;fill:url(#linearGradient4631);fill-opacity:1;stroke:none;opacity:1"
       id="path6005"
       d="m 13.742466,12 1.806296,0 0,1 -1.806296,0 0,-1 z" />
    <path
       style="display:inline;fill:url(#linearGradient4631);fill-opacity:1;stroke:none;opacity:1"
       id="path6003"
       d="m 15.701884,12 0.552901,0 0,1 -0.552901,0 0,-1 z" />
    <path
       style="display:inline;fill:url(#linearGradient4631);fill-opacity:1;stroke:none;opacity:1"
       id="path5999"
       d="m 6,6.0000008 1.742834,0 0,0.9999996 -1.742834,0 0,-0.9999996 z" />
    <path
       style="display:inline;fill:url(#linearGradient4631);fill-opacity:1;stroke:none;opacity:1"
       id="path5997"
       d="m 7.901905,6.0000008 0.838487,0 0,0.9999996 -0.838487,0 0,-0.9999996 z" />
    <path
       style="display:inline;fill:url(#linearGradient4631);fill-opacity:1;stroke:none;opacity:1"
       id="path5995"
       d="m 8.899463,6.0000008 0.394245,0 0,0.9999996 -0.394245,0 0,-0.9999996 z" />
    <path
       style="display:inline;fill:url(#linearGradient4631);fill-opacity:1;stroke:none;opacity:1"
       id="path5993"
       d="m 9.45278,6.0000008 0.759159,0 0,0.9999996 -0.759159,0 0,-0.9999996 z" />
    <path
       style="display:inline;fill:url(#linearGradient4631);fill-opacity:1;stroke:none;opacity:1"
       id="path5991"
       d="m 10.371005,6.0000008 0.759159,0 0,0.9999996 -0.759159,0 0,-0.9999996 z" />
    <path
       style="display:inline;fill:url(#linearGradient4631);fill-opacity:1;stroke:none;opacity:1"
       id="path5989"
       d="m 11.289234,6.0000008 1.219264,0 0,0.9999996 -1.219264,0 0,-0.9999996 z" />
    <path
       style="display:inline;fill:url(#linearGradient4631);fill-opacity:1;stroke:none;opacity:1"
       id="path5987"
       d="m 12.667565,6.0000008 1.600045,0 0,0.9999996 -1.600045,0 0,-0.9999996 z" />
    <path
       style="display:inline;fill:url(#linearGradient4631);fill-opacity:1;stroke:none;opacity:1"
       id="path5985"
       d="m 14.426681,6.0000008 1.076471,0 0,0.9999996 -1.076471,0 0,-0.9999996 z" />
    <path
       style="display:inline;fill:url(#linearGradient4631);fill-opacity:1;stroke:none;opacity:1"
       id="path5981"
       d="m 6,8.0000004 1.996685,0 0,1 -1.996685,0 0,-1 z" />
    <path
       style="display:inline;fill:url(#linearGradient4631);fill-opacity:1;stroke:none;opacity:1"
       id="path5979"
       d="m 8.153206,8.0000004 2.139471,0 0,1 -2.139471,0 0,-1 z" />
    <path
       style="display:inline;fill:url(#linearGradient4631);fill-opacity:1;stroke:none;opacity:1"
       id="path5977"
       d="m 10.449198,8.0000004 0.854355,0 0,1 -0.854355,0 0,-1 z" />
    <path
       style="display:inline;opacity:1;fill:url(#linearGradient4631);fill-opacity:1;stroke:none"
       id="path5965"
       d="m 6,16 1.996686,0 0,1 L 6,17 6,16 Z" />
    <path
       style="display:inline;opacity:1;fill:url(#linearGradient4631);fill-opacity:1;stroke:none"
       id="path5963"
       d="m 8.153206,16 2.139473,0 0,1 -2.139473,0 0,-1 z" />
    <path
       style="display:inline;fill:url(#linearGradient4631);fill-opacity:1;stroke:none;opacity:1"
       id="path5961"
       d="m 10.4492,16 0.854355,0 0,1 -0.854355,0 0,-1 z" />
    <path
       style="display:inline;fill:url(#linearGradient4631);fill-opacity:1;stroke:none;opacity:1"
       id="path5959"
       d="m 11.460076,16 2.012549,0 0,1 -2.012549,0 0,-1 z" />
    <path
       style="display:inline;fill:url(#linearGradient4631);fill-opacity:1;stroke:none;opacity:1"
       id="path5957"
       d="m 15.163586,16 0.537037,0 0,1 -0.537037,0 0,-1 z" />
    <path
       style="display:inline;fill:url(#linearGradient4631);fill-opacity:1;stroke:none;opacity:1"
       id="path5955"
       d="m 13.629146,16 1.377919,0 0,1 -1.377919,0 0,-1 z" />
    <path
       style="display:inline;fill:url(#linearGradient4631);fill-opacity:1;stroke:none;opacity:1"
       id="path5953"
       d="m 15.857144,16 0.314918,0 0,1 -0.314918,0 0,-1 z" />
    <path
       style="display:inline;fill:url(#linearGradient4631);fill-opacity:1;stroke:none;opacity:1"
       id="path5951"
       d="m 16.328583,16 0.854355,0 0,1 -0.854355,0 0,-1 z" />
    <path
       style="display:inline;fill:url(#linearGradient4631);fill-opacity:1;stroke:none;opacity:1"
       id="path5949"
       d="m 6,12 1.441384,0 0,1 L 6,13 6,12 Z" />
    <path
       style="display:inline;fill:url(#linearGradient4631);fill-opacity:1;stroke:none;opacity:1"
       id="path5947"
       d="m 7.594506,12 2.393326,0 0,1 -2.393326,0 0,-1 z" />
    <path
       style="display:inline;fill:url(#linearGradient4631);fill-opacity:1;stroke:none;opacity:1"
       id="path5935"
       d="m 6,14 1.806297,0 0,1 L 6,15 6,14 Z" />
    <path
       style="display:inline;fill:url(#linearGradient4631);fill-opacity:1;stroke:none;opacity:1"
       id="path5933"
       d="m 7.95545,14 0.56877,0 0,1 -0.56877,0 0,-1 z" />
    <path
       style="display:inline;opacity:1;fill:url(#linearGradient4631);fill-opacity:1;stroke:none"
       id="path5931"
       d="m 8.673372,14 1.298596,0 0,1 -1.298596,0 0,-1 z" />
    <path
       style="display:inline;opacity:1;fill:url(#linearGradient4631);fill-opacity:1;stroke:none"
       id="path5929"
       d="m 10.12112,14 0.886087,0 0,1 -0.886087,0 0,-1 z" />
    <path
       style="display:inline;fill:url(#linearGradient4631);fill-opacity:1;stroke:none;opacity:1"
       id="path5921"
       d="m 14.039952,14 1.663505,0 0,1 -1.663505,0 0,-1 z" />
    <path
       style="display:inline;fill:url(#linearGradient4631);fill-opacity:1;stroke:none;opacity:1"
       id="path5919"
       d="m 15.852609,14 0.886087,0 0,1 -0.886087,0 0,-1 z" />
    <path
       style="display:inline;fill:url(#linearGradient4631);fill-opacity:1;stroke:none;opacity:1"
       id="path5917"
       d="m 6,18 1.48749,0 0,1 L 6,19 6,18 Z" />
    <path
       style="display:inline;opacity:1;fill:url(#linearGradient4631);fill-opacity:1;stroke:none"
       id="path5915"
       d="m 7.726414,18 2.647178,0 0,1 -2.647178,0 0,-1 z" />
    <path
       style="display:inline;fill:url(#linearGradient4631);fill-opacity:1;stroke:none;opacity:1"
       id="path6838"
       d="m 16.736711,18 -0.727427,0 0,1 0.727427,0 0,-1 z" />
    <path
       style="display:inline;fill:url(#linearGradient4631);fill-opacity:1;stroke:none;opacity:1"
       id="path6840"
       d="m 15.821031,18 -2.647178,0 0,1 2.647178,0 0,-1 z" />
  </g>
  <g
     transform="matrix(0.45662962,0,0,0.45927631,1.23079,1.2771973)"
     id="g4271">
    <path
       d="m 34.242799,35.469395 c 0.0015,2.160732 -5.259037,3.912581 -11.748432,3.912581 -6.489398,0 -11.749726,-1.751849 -11.748433,-3.912581 -0.0012,-2.160719 5.259035,-3.912548 11.748433,-3.912548 6.489395,0 11.749725,1.751829 11.748432,3.912548 z"
       id="path2917"
       style="display:inline;opacity:0.3;fill:url(#radialGradient3172);fill-opacity:1;stroke:none" />
    <g
       id="g4204">
      <ellipse
         style="fill:url(#radialGradient4178);fill-opacity:1;stroke:url(#linearGradient4162);stroke-width:1.74691164;stroke-miterlimit:4;stroke-dasharray:none;stroke-opacity:1"
         id="circle10"
         cy="24.435211"
         cx="22.488512"
         rx="10.952321"
         ry="10.884172" />
      <ellipse
         cx="26.869062"
         cy="20.081163"
         style="fill:#ffffff"
         id="circle12"
         rx="3.2849381"
         ry="3.2660077" />
      <ellipse
         style="fill:url(#radialGradient4171);fill-opacity:1;stroke:url(#linearGradient4170);stroke-width:1.31018369;stroke-miterlimit:4;stroke-dasharray:none;stroke-opacity:1"
         cx="33.438938"
         cy="13.549149"
         id="circle14"
         rx="2.5206642"
         ry="2.5017338" />
      <path
         d="m 31.470503,24.435842 c 0,4.926361 -4.023644,8.924566 -8.981361,8.924566 -4.957709,0 -8.981355,-3.998205 -8.981355,-8.924566 0,-4.926362 4.023646,-8.924569 8.981355,-8.924569 4.957717,0 8.981361,3.998207 8.981361,8.924569 z"
         id="path3164"
         style="opacity:0.4;fill:none;stroke:url(#linearGradient4163);stroke-width:1.74691164;stroke-linecap:round;stroke-linejoin:round;stroke-miterlimit:4;stroke-dasharray:none;stroke-dashoffset:0;stroke-opacity:1" />
      <path
         d="m 32.123126,13.669496 c -0.0065,-0.659965 0.528849,-1.200729 1.194737,-1.207066 0.665883,-0.0064 1.211501,0.524142 1.217894,1.184105 0.0065,0.659967 -0.528847,1.200731 -1.194732,1.20707 -0.665888,0.0064 -1.211506,-0.524143 -1.217899,-1.184109 z"
         id="path3164-2"
         style="opacity:0.26000001;fill:none;stroke:url(#linearGradient4174);stroke-width:1.31018364;stroke-linecap:round;stroke-linejoin:round;stroke-miterlimit:4;stroke-dasharray:none;stroke-dashoffset:0;stroke-opacity:1" />
    </g>
  </g>
</svg>
