<?xml version="1.0" encoding="UTF-8" standalone="no"?>
<!-- Created with Inkscape (http://www.inkscape.org/) -->

<svg
   xmlns:dc="http://purl.org/dc/elements/1.1/"
   xmlns:cc="http://creativecommons.org/ns#"
   xmlns:rdf="http://www.w3.org/1999/02/22-rdf-syntax-ns#"
   xmlns:svg="http://www.w3.org/2000/svg"
   xmlns="http://www.w3.org/2000/svg"
   xmlns:xlink="http://www.w3.org/1999/xlink"
   xmlns:sodipodi="http://sodipodi.sourceforge.net/DTD/sodipodi-0.dtd"
   xmlns:inkscape="http://www.inkscape.org/namespaces/inkscape"
   version="1.1"
   width="24"
   height="24"
   id="svg3828"
   inkscape:version="0.48.3.1 r9886"
   sodipodi:docname="text-x-script.svg">
  <sodipodi:namedview
     pagecolor="#ffffff"
     bordercolor="#666666"
     borderopacity="1"
     objecttolerance="10"
     gridtolerance="10"
     guidetolerance="10"
     inkscape:pageopacity="0"
     inkscape:pageshadow="2"
     inkscape:window-width="935"
     inkscape:window-height="669"
     id="namedview102613"
     showgrid="false"
     inkscape:zoom="9.8333333"
     inkscape:cx="12"
     inkscape:cy="12"
     inkscape:window-x="758"
     inkscape:window-y="202"
     inkscape:window-maximized="0"
     inkscape:current-layer="svg3828" />
  <defs
     id="defs3830">
    <linearGradient
       x1="23.99999"
       y1="2.7872362"
       x2="23.99999"
       y2="43"
       id="linearGradient3119"
       xlink:href="#linearGradient3977"
       gradientUnits="userSpaceOnUse"
       gradientTransform="matrix(0.40540511,0,0,0.51351351,2.2696871,7.6756805)" />
    <linearGradient
       id="linearGradient3977">
      <stop
         id="stop3979"
         style="stop-color:#ffffff;stop-opacity:1"
         offset="0" />
      <stop
         id="stop3981"
         style="stop-color:#ffffff;stop-opacity:0.23529412"
         offset="0.03626217" />
      <stop
         id="stop3983"
         style="stop-color:#ffffff;stop-opacity:0.15686275"
         offset="0.95056331" />
      <stop
         id="stop3985"
         style="stop-color:#ffffff;stop-opacity:0.39215687"
         offset="1" />
    </linearGradient>
    <linearGradient
       x1="25.132275"
       y1="-3.7190604"
       x2="25.132275"
       y2="47.013336"
       id="linearGradient3122"
       xlink:href="#linearGradient3600-4"
       gradientUnits="userSpaceOnUse"
       gradientTransform="matrix(0.48571543,0,0,0.45629666,0.3428289,8.3488617)" />
    <linearGradient
       id="linearGradient3600-4">
      <stop
         id="stop3602-7"
         style="stop-color:#f4f4f4;stop-opacity:1"
         offset="0" />
      <stop
         id="stop3604-6"
         style="stop-color:#dbdbdb;stop-opacity:1"
         offset="1" />
    </linearGradient>
    <linearGradient
       x1="-51.786404"
       y1="50.786446"
       x2="-51.786404"
       y2="2.9062471"
       id="linearGradient3124"
       xlink:href="#linearGradient3104-5"
       gradientUnits="userSpaceOnUse"
       gradientTransform="matrix(0.39221364,0,0,0.42702571,29.199296,7.8403287)" />
    <linearGradient
       id="linearGradient3104-5">
      <stop
         id="stop3106-6"
         style="stop-color:#a0a0a0;stop-opacity:1"
         offset="0" />
      <stop
         id="stop3108-9"
         style="stop-color:#bebebe;stop-opacity:1"
         offset="1" />
    </linearGradient>
    <radialGradient
       cx="605.71429"
       cy="486.64789"
       r="117.14286"
       fx="605.71429"
       fy="486.64789"
       id="radialGradient3045"
       xlink:href="#linearGradient5060"
       gradientUnits="userSpaceOnUse"
       gradientTransform="matrix(0.01204859,0,0,0.0082353,13.238793,26.980564)" />
    <linearGradient
       id="linearGradient5060">
      <stop
         id="stop5062"
         style="stop-color:#000000;stop-opacity:1"
         offset="0" />
      <stop
         id="stop5064"
         style="stop-color:#000000;stop-opacity:0"
         offset="1" />
    </linearGradient>
    <radialGradient
       cx="605.71429"
       cy="486.64789"
       r="117.14286"
       fx="605.71429"
       fy="486.64789"
       id="radialGradient3048"
       xlink:href="#linearGradient5060"
       gradientUnits="userSpaceOnUse"
       gradientTransform="matrix(-0.01204859,0,0,0.0082353,10.761206,26.980564)" />
    <linearGradient
       id="linearGradient5048">
      <stop
         id="stop5050"
         style="stop-color:#000000;stop-opacity:0"
         offset="0" />
      <stop
         id="stop5056"
         style="stop-color:#000000;stop-opacity:1"
         offset="0.5" />
      <stop
         id="stop5052"
         style="stop-color:#000000;stop-opacity:0"
         offset="1" />
    </linearGradient>
    <linearGradient
       x1="302.85715"
       y1="366.64789"
       x2="302.85715"
       y2="609.50507"
       id="linearGradient3826"
       xlink:href="#linearGradient5048"
       gradientUnits="userSpaceOnUse"
       gradientTransform="matrix(0.0352071,0,0,0.0082353,-0.724852,26.980547)" />
    <linearGradient
       gradientTransform="translate(-17.058189,0)"
       gradientUnits="userSpaceOnUse"
       xlink:href="#linearGradient3309"
       id="linearGradient3262"
       y2="16.000105"
       x2="25"
       y1="0"
       x1="25" />
    <linearGradient
       gradientUnits="userSpaceOnUse"
       id="linearGradient3309"
       y2="122.8994"
       x2="63.9995"
       y1="3.1001"
       x1="63.9995">
      <stop
         offset="0"
         style="stop-color:#f6f6f6;stop-opacity:1"
         id="stop3311" />
      <stop
         offset="1"
         style="stop-color:#cccccc;stop-opacity:1"
         id="stop3313" />
    </linearGradient>
    <linearGradient
       gradientTransform="translate(-17.058189,0)"
       gradientUnits="userSpaceOnUse"
       xlink:href="#linearGradient3397"
       id="linearGradient3264"
       y2="16.004715"
       x2="21"
       y1="0"
       x1="21" />
    <linearGradient
       id="linearGradient3397">
      <stop
         offset="0"
         style="stop-color:#aaaaaa;stop-opacity:1"
         id="stop3399" />
      <stop
         offset="1"
         style="stop-color:#8c8c8c;stop-opacity:1"
         id="stop3401" />
    </linearGradient>
    <linearGradient
       gradientTransform="matrix(9.6142312e-2,0,0,9.6142312e-2,1.8468935,1.9430362)"
       gradientUnits="userSpaceOnUse"
       xlink:href="#linearGradient5128"
       id="linearGradient3260"
       y2="20.895"
       x2="84.63858"
       y1="105.105"
       x1="86.132919" />
    <linearGradient
       id="linearGradient5128">
      <stop
         offset="0"
         style="stop-color:#e5e5e5;stop-opacity:1"
         id="stop5130" />
      <stop
         offset="1"
         style="stop-color:#ababab;stop-opacity:1"
         id="stop5132" />
    </linearGradient>
    <linearGradient
       y2="20.895"
       x2="84.63858"
       y1="105.105"
       x1="86.132919"
       gradientTransform="matrix(0.04807115,0,0,0.04807115,8.6734468,8.7215181)"
       gradientUnits="userSpaceOnUse"
       id="linearGradient3100"
       xlink:href="#linearGradient5128-6"
       inkscape:collect="always" />
    <linearGradient
       y2="16.004715"
       x2="21"
       y1="-10.033898"
       x1="21"
       gradientTransform="matrix(0.5,0,0,0.5,-0.7790945,7.75)"
       gradientUnits="userSpaceOnUse"
       id="linearGradient3098"
       xlink:href="#linearGradient3397-4"
       inkscape:collect="always" />
    <linearGradient
       y2="8.4520321"
       x2="25"
       y1="-11.932203"
       x1="25"
       gradientTransform="matrix(0.5,0,0,0.5,-0.7790945,7.75)"
       gradientUnits="userSpaceOnUse"
       id="linearGradient3096"
       xlink:href="#linearGradient3309-5"
       inkscape:collect="always" />
    <linearGradient
       y2="16.004715"
       x2="21"
       y1="-10.033898"
       x1="21"
       gradientTransform="matrix(0.43330117,0,0,0.43330117,-7.3579838,9.033832)"
       gradientUnits="userSpaceOnUse"
       id="linearGradient3981"
       xlink:href="#linearGradient3397-4"
       inkscape:collect="always" />
    <linearGradient
       y2="8.4520321"
       x2="25"
       y1="-11.932203"
       x1="25"
       gradientTransform="matrix(0.43330117,0,0,0.43330117,-7.3579838,9.033832)"
       gradientUnits="userSpaceOnUse"
       id="linearGradient3979"
       xlink:href="#linearGradient3309-5"
       inkscape:collect="always" />
    <linearGradient
       y2="20.895"
       x2="84.63858"
       y1="105.105"
       x1="86.132919"
       gradientTransform="matrix(0.04165857,0,0,0.04165857,0.83361056,9.8757519)"
       gradientUnits="userSpaceOnUse"
       id="linearGradient3975"
       xlink:href="#linearGradient5128-6"
       inkscape:collect="always" />
    <linearGradient
       y2="20.895"
       x2="84.63858"
       y1="105.105"
       x1="86.132919"
       gradientTransform="matrix(0.03461267,0,0,0.03461267,0.7849019,9.8192897)"
       gradientUnits="userSpaceOnUse"
       id="linearGradient3972"
       xlink:href="#linearGradient5128-6"
       inkscape:collect="always" />
    <linearGradient
       y2="16.004715"
       x2="21"
       y1="-10.033898"
       x1="21"
       gradientTransform="matrix(0.360015,0,0,0.360015,-6.0212114,9.1197675)"
       gradientUnits="userSpaceOnUse"
       id="linearGradient3970"
       xlink:href="#linearGradient3397-4"
       inkscape:collect="always" />
    <linearGradient
       y2="8.4520321"
       x2="25"
       y1="-11.932203"
       x1="25"
       gradientTransform="matrix(0.360015,0,0,0.360015,-6.0212114,9.1197675)"
       gradientUnits="userSpaceOnUse"
       id="linearGradient3968"
       xlink:href="#linearGradient3309-5"
       inkscape:collect="always" />
    <linearGradient
       y2="16.004715"
       x2="21"
       y1="-10.033898"
       x1="21"
       gradientTransform="matrix(0.360015,0,0,0.360015,-6.0212114,9.1197675)"
       gradientUnits="userSpaceOnUse"
       id="linearGradient3955"
       xlink:href="#linearGradient3397-4"
       inkscape:collect="always" />
    <linearGradient
       y2="8.4520321"
       x2="25"
       y1="-11.932203"
       x1="25"
       gradientTransform="matrix(0.360015,0,0,0.360015,-6.0212114,9.1197675)"
       gradientUnits="userSpaceOnUse"
       id="linearGradient3953"
       xlink:href="#linearGradient3309-5"
       inkscape:collect="always" />
    <linearGradient
       y2="20.895"
       x2="84.63858"
       y1="105.105"
       x1="86.132919"
       gradientTransform="matrix(0.03461267,0,0,0.03461267,0.7849019,9.8192897)"
       gradientUnits="userSpaceOnUse"
       id="linearGradient3949"
       xlink:href="#linearGradient5128-6"
       inkscape:collect="always" />
    <linearGradient
       y2="20.895"
       x2="84.63858"
       y1="105.105"
       x1="86.132919"
       gradientTransform="matrix(0.04807115,0,0,0.04807115,8.6734468,8.7215181)"
       gradientUnits="userSpaceOnUse"
       id="linearGradient3927"
       xlink:href="#linearGradient5128-6"
       inkscape:collect="always" />
    <linearGradient
       y2="16.004715"
       x2="21"
       y1="-10.033898"
       x1="21"
       gradientTransform="matrix(0.5,0,0,0.5,-0.7790945,7.75)"
       gradientUnits="userSpaceOnUse"
       id="linearGradient3925"
       xlink:href="#linearGradient3397-4"
       inkscape:collect="always" />
    <linearGradient
       y2="8.4520321"
       x2="25"
       y1="-11.932203"
       x1="25"
       gradientTransform="matrix(0.5,0,0,0.5,-0.7790945,7.75)"
       gradientUnits="userSpaceOnUse"
       id="linearGradient3923"
       xlink:href="#linearGradient3309-5"
       inkscape:collect="always" />
    <linearGradient
       y2="20.895"
       x2="84.63858"
       y1="105.105"
       x1="86.132919"
       gradientTransform="matrix(0.04807115,0,0,0.04807115,8.6734468,8.7215181)"
       gradientUnits="userSpaceOnUse"
       id="linearGradient3913"
       xlink:href="#linearGradient5128-6"
       inkscape:collect="always" />
    <linearGradient
       y2="16.004715"
       x2="21"
       y1="-10.033898"
       x1="21"
       gradientTransform="matrix(0.5,0,0,0.5,-0.7790945,7.75)"
       gradientUnits="userSpaceOnUse"
       id="linearGradient3911"
       xlink:href="#linearGradient3397-4"
       inkscape:collect="always" />
    <linearGradient
       y2="8.4520321"
       x2="25"
       y1="-11.932203"
       x1="25"
       gradientTransform="matrix(0.5,0,0,0.5,-0.7790945,7.75)"
       gradientUnits="userSpaceOnUse"
       id="linearGradient3909"
       xlink:href="#linearGradient3309-5"
       inkscape:collect="always" />
    <linearGradient
       y2="20.895"
       x2="84.63858"
       y1="105.105"
       x1="86.132919"
       gradientTransform="matrix(0.04807115,0,0,0.04807115,8.6734468,8.7215181)"
       gradientUnits="userSpaceOnUse"
       id="linearGradient3897"
       xlink:href="#linearGradient5128-6"
       inkscape:collect="always" />
    <linearGradient
       y2="16.004715"
       x2="21"
       y1="-10.033898"
       x1="21"
       gradientTransform="matrix(0.5,0,0,0.5,-0.7790945,7.75)"
       gradientUnits="userSpaceOnUse"
       id="linearGradient3895"
       xlink:href="#linearGradient3397-4"
       inkscape:collect="always" />
    <linearGradient
       y2="8.4520321"
       x2="25"
       y1="-11.932203"
       x1="25"
       gradientTransform="matrix(0.5,0,0,0.5,-0.7790945,7.75)"
       gradientUnits="userSpaceOnUse"
       id="linearGradient3893"
       xlink:href="#linearGradient3309-5"
       inkscape:collect="always" />
    <linearGradient
       id="linearGradient5128-6">
      <stop
         offset="0"
         style="stop-color:#efefef;stop-opacity:1;"
         id="stop5130-7" />
      <stop
         offset="1"
         style="stop-color:#c9c9c9;stop-opacity:1;"
         id="stop5132-2" />
    </linearGradient>
    <linearGradient
       gradientTransform="matrix(0.09614231,0,0,0.09614231,1.8468935,1.9430362)"
       gradientUnits="userSpaceOnUse"
       xlink:href="#linearGradient5128-6"
       id="linearGradient3260-4"
       y2="20.895"
       x2="84.63858"
       y1="105.105"
       x1="86.132919" />
    <linearGradient
       id="linearGradient3397-4">
      <stop
         offset="0"
         style="stop-color:#888888;stop-opacity:1;"
         id="stop3399-2" />
      <stop
         offset="1"
         style="stop-color:#626262;stop-opacity:1;"
         id="stop3401-6" />
    </linearGradient>
    <linearGradient
       gradientTransform="translate(-17.058189,0)"
       gradientUnits="userSpaceOnUse"
       xlink:href="#linearGradient3397-4"
       id="linearGradient3264-6"
       y2="16.004715"
       x2="21"
       y1="-10.033898"
       x1="21" />
    <linearGradient
       gradientUnits="userSpaceOnUse"
       id="linearGradient3309-5"
       y2="122.8994"
       x2="63.9995"
       y1="3.1001"
       x1="63.9995">
      <stop
         offset="0"
         style="stop-color:#f6f6f6;stop-opacity:1"
         id="stop3311-1" />
      <stop
         offset="1"
         style="stop-color:#e6e6e6;stop-opacity:1;"
         id="stop3313-5" />
    </linearGradient>
    <linearGradient
       gradientTransform="translate(-17.058189,0)"
       gradientUnits="userSpaceOnUse"
       xlink:href="#linearGradient3309-5"
       id="linearGradient3262-3"
       y2="8.4520321"
       x2="25"
       y1="-11.932203"
       x1="25" />
    <linearGradient
       gradientTransform="matrix(0.2966887,0,0,0.3520695,1.8794702,2.1186294)"
       y2="24.627615"
       x2="20.054544"
       y1="16.407909"
       x1="18.03083"
       gradientUnits="userSpaceOnUse"
       id="linearGradient3101"
       xlink:href="#linearGradient8265-821-176-38-919-66-249"
       inkscape:collect="always" />
    <linearGradient
       id="linearGradient4352">
      <stop
         id="stop4354"
         offset="0"
         style="stop-color:#425e7b;stop-opacity:1;" />
      <stop
         id="stop4356"
         offset="1"
         style="stop-color:#7a91a7;stop-opacity:1;" />
    </linearGradient>
    <linearGradient
       id="linearGradient4344">
      <stop
         id="stop4346"
         offset="0"
         style="stop-color:#9cbbd9;stop-opacity:1;" />
      <stop
         id="stop4348"
         offset="1"
         style="stop-color:#5c82ab;stop-opacity:1;" />
    </linearGradient>
    <linearGradient
       id="linearGradient5048-3">
      <stop
         style="stop-color:black;stop-opacity:0;"
         offset="0"
         id="stop5050-4" />
      <stop
         id="stop5056-2"
         offset="0.5"
         style="stop-color:black;stop-opacity:1;" />
      <stop
         style="stop-color:black;stop-opacity:0;"
         offset="1"
         id="stop5052-9" />
    </linearGradient>
    <linearGradient
       gradientTransform="matrix(0.3280315,0,0,0.3257096,4.4449582,4.5320247)"
       gradientUnits="userSpaceOnUse"
       xlink:href="#linearGradient3945"
       id="linearGradient2471"
       y2="32.485161"
       x2="24.103895"
       y1="15.168831"
       x1="24.103895" />
    <linearGradient
       id="linearGradient3945">
      <stop
         offset="0"
         style="stop-color:#ecf5b6;stop-opacity:1"
         id="stop3947" />
      <stop
         offset="1"
         style="stop-color:#9fba48;stop-opacity:1"
         id="stop3949" />
    </linearGradient>
    <linearGradient
       gradientUnits="userSpaceOnUse"
       xlink:href="#linearGradient8265-821-176-38-919-66-249"
       id="linearGradient2580"
       y2="24.627615"
       x2="20.054544"
       y1="16.407909"
       x1="18.03083" />
    <linearGradient
       id="linearGradient8265-821-176-38-919-66-249">
      <stop
         offset="0"
         style="stop-color:#ffffff;stop-opacity:1"
         id="stop2687" />
      <stop
         offset="1"
         style="stop-color:#ffffff;stop-opacity:0"
         id="stop2689" />
    </linearGradient>
    <linearGradient
       gradientTransform="matrix(0.05489342,0.01385132,0.00257263,0.05248166,-11.212261,-26.738461)"
       gradientUnits="userSpaceOnUse"
       xlink:href="#linearGradient7012-661-145-733-759-865-745"
       id="linearGradient2576"
       y2="238.3999"
       x2="169.22964"
       y1="58.583481"
       x1="126.69791" />
    <linearGradient
       id="linearGradient7012-661-145-733-759-865-745">
      <stop
         offset="0"
         style="stop-color:#9cbbd9;stop-opacity:1"
         id="stop2699" />
      <stop
         offset="1"
         style="stop-color:#5c82ab;stop-opacity:1"
         id="stop2701" />
    </linearGradient>
    <linearGradient
       gradientTransform="matrix(1.0083043,0,0,1.0006232,-10.500284,-26.477671)"
       gradientUnits="userSpaceOnUse"
       xlink:href="#linearGradient3390"
       id="linearGradient2578"
       y2="4.0514131"
       x2="4.1760364"
       y1="14.992862"
       x1="10.318256" />
    <linearGradient
       id="linearGradient3390">
      <stop
         offset="0"
         style="stop-color:#425e7b;stop-opacity:1"
         id="stop3392" />
      <stop
         offset="1"
         style="stop-color:#7a91a7;stop-opacity:1"
         id="stop3394" />
    </linearGradient>
    <linearGradient
       gradientTransform="matrix(2.774389,0,0,1.969706,-1892.179,-872.8854)"
       gradientUnits="userSpaceOnUse"
       xlink:href="#linearGradient5048-0"
       id="linearGradient2570"
       y2="609.50507"
       x2="302.85715"
       y1="366.64789"
       x1="302.85715" />
    <linearGradient
       id="linearGradient5048-0">
      <stop
         offset="0"
         style="stop-color:#000000;stop-opacity:0"
         id="stop5050-0" />
      <stop
         offset="0.5"
         style="stop-color:#000000;stop-opacity:1"
         id="stop5056-4" />
      <stop
         offset="1"
         style="stop-color:#000000;stop-opacity:0"
         id="stop5052-4" />
    </linearGradient>
    <radialGradient
       gradientTransform="matrix(2.774389,0,0,1.969706,-1891.633,-872.8854)"
       gradientUnits="userSpaceOnUse"
       xlink:href="#linearGradient5060-5"
       id="radialGradient2572"
       fy="486.64789"
       fx="605.71429"
       r="117.14286"
       cy="486.64789"
       cx="605.71429" />
    <linearGradient
       id="linearGradient5060-5">
      <stop
         offset="0"
         style="stop-color:#000000;stop-opacity:1"
         id="stop5062-2" />
      <stop
         offset="1"
         style="stop-color:#000000;stop-opacity:0"
         id="stop5064-1" />
    </linearGradient>
    <radialGradient
       gradientTransform="matrix(-2.774389,0,0,1.969706,112.7623,-872.8854)"
       gradientUnits="userSpaceOnUse"
       xlink:href="#linearGradient5060-5"
       id="radialGradient2574"
       fy="486.64789"
       fx="605.71429"
       r="117.14286"
       cy="486.64789"
       cx="605.71429" />
    <linearGradient
       inkscape:collect="always"
       xlink:href="#linearGradient3309-5"
       id="linearGradient3278"
       gradientUnits="userSpaceOnUse"
       gradientTransform="matrix(0.5,0,0,0.5,-0.7790945,7.75)"
       x1="25"
       y1="-11.932203"
       x2="25"
       y2="8.4520321" />
    <linearGradient
       inkscape:collect="always"
       xlink:href="#linearGradient3397-4"
       id="linearGradient3280"
       gradientUnits="userSpaceOnUse"
       gradientTransform="matrix(0.5,0,0,0.5,-0.7790945,7.75)"
       x1="21"
       y1="-10.033898"
       x2="21"
       y2="16.004715" />
    <linearGradient
       inkscape:collect="always"
       xlink:href="#linearGradient5128-6"
       id="linearGradient3282"
       gradientUnits="userSpaceOnUse"
       gradientTransform="matrix(0.04807115,0,0,0.04807115,8.6734468,8.7215181)"
       x1="86.132919"
       y1="105.105"
       x2="84.63858"
       y2="20.895" />
  </defs>
  <metadata
     id="metadata3833">
    <rdf:RDF>
      <cc:Work
         rdf:about="">
        <dc:format>image/svg+xml</dc:format>
        <dc:type
           rdf:resource="http://purl.org/dc/dcmitype/StillImage" />
        <dc:title></dc:title>
      </cc:Work>
    </rdf:RDF>
  </metadata>
  <g
     transform="translate(0,-8)"
     id="layer1">
    <rect
       width="16.999998"
       height="2"
       x="3.5000007"
       y="30"
       id="rect2879"
       style="opacity:0.15;fill:url(#linearGradient3826);fill-opacity:1;fill-rule:nonzero;stroke:none;stroke-width:1;marker:none;visibility:visible;display:inline;overflow:visible" />
    <path
       d="m 3.4999999,30.000085 c 0,0 0,1.999891 0,1.999891 C 2.8795275,32.003776 2,31.551901 2,30.999901 2,30.447902 2.6924,30.000085 3.4999999,30.000085 z"
       id="path2881"
       style="opacity:0.15;fill:url(#radialGradient3048);fill-opacity:1;fill-rule:nonzero;stroke:none;stroke-width:1;marker:none;visibility:visible;display:inline;overflow:visible" />
    <path
       d="m 20.5,30.000085 c 0,0 0,1.999891 0,1.999891 0.620472,0.0038 1.5,-0.448075 1.5,-1.000075 0,-0.551999 -0.692402,-0.999816 -1.5,-0.999816 z"
       id="path2883"
       style="opacity:0.15;fill:url(#radialGradient3045);fill-opacity:1;fill-rule:nonzero;stroke:none;stroke-width:1;marker:none;visibility:visible;display:inline;overflow:visible" />
    <path
       d="m 3.4999601,8.49932 c 3.8955809,0 17.0000589,0.00136 17.0000589,0.00136 l 2.1e-5,21.999353 c 0,0 -11.3333862,0 -17.0000799,0 0,-7.000018 0,-15.000672 0,-22.0006907 z"
       id="path4160-3"
       style="fill:url(#linearGradient3122);fill-opacity:1;stroke:url(#linearGradient3124);stroke-width:0.99992186000000005;stroke-linecap:butt;stroke-linejoin:round;stroke-miterlimit:4;stroke-opacity:1;stroke-dasharray:none;stroke-dashoffset:0;display:inline"
       inkscape:connector-curvature="0"
       sodipodi:nodetypes="ccccsc" />
    <path
       d="m 19.5,29.5 -15.0000004,0 0,-20 L 19.5,9.5 z"
       id="rect6741-1"
       style="fill:none;stroke:url(#linearGradient3119);stroke-width:1;stroke-linecap:round;stroke-linejoin:miter;stroke-miterlimit:4;stroke-opacity:1;stroke-dasharray:none;stroke-dashoffset:0"
       inkscape:connector-curvature="0"
       sodipodi:nodetypes="ccccc" />
  </g>
  <g
     id="g2660"
     transform="translate(25.060241,-0.277108)">
    <path
       inkscape:connector-curvature="0"
       style="fill:#89adc2;fill-opacity:1;stroke:none;display:inline"
       id="path6035"
       d="m -19.060241,4.2771084 1.124072,0 0,1 -1.124072,0 0,-1 z" />
    <path
       inkscape:connector-curvature="0"
       style="fill:#89adc2;fill-opacity:1;stroke:none;display:inline"
       id="path6033"
       d="m -17.783052,4.2771084 1.060612,0 0,1 -1.060612,0 0,-1 z" />
    <path
       inkscape:connector-curvature="0"
       style="fill:#89adc2;fill-opacity:1;stroke:none;display:inline"
       id="path6031"
       d="m -16.569323,4.2771084 0.933684,0 0,1 -0.933684,0 0,-1 z" />
    <path
       inkscape:connector-curvature="0"
       style="fill:#89adc2;fill-opacity:1;stroke:none;display:inline"
       id="path6029"
       d="m -15.482523,4.2771084 0.410114,0 0,1 -0.410114,0 0,-1 z" />
    <path
       inkscape:connector-curvature="0"
       style="fill:#89adc2;fill-opacity:1;stroke:none;display:inline"
       id="path6027"
       d="m -14.919287,4.2771084 0.917815,0 0,1 -0.917815,0 0,-1 z" />
    <path
       inkscape:connector-curvature="0"
       style="fill:#89adc2;fill-opacity:1;stroke:none;display:inline"
       id="path6025"
       d="m -13.84835,4.2771084 2.377462,0 0,1 -2.377462,0 0,-1 z" />
    <path
       inkscape:connector-curvature="0"
       style="fill:#b78ed4;fill-opacity:1;stroke:none;display:inline"
       id="path6017"
       d="m -19.060241,10.277108 1.124072,0 0,1 -1.124072,0 0,-1 z" />
    <path
       inkscape:connector-curvature="0"
       style="fill:#d48eb3;fill-opacity:1;stroke:none;display:inline"
       id="path6015"
       d="m -17.783053,10.277108 1.060612,0 0,1 -1.060612,0 0,-1 z" />
    <path
       inkscape:connector-curvature="0"
       style="fill:#d48eb3;fill-opacity:1;stroke:none;display:inline"
       id="path6013"
       d="m -16.569324,10.277108 0.933683,0 0,1 -0.933683,0 0,-1 z" />
    <path
       inkscape:connector-curvature="0"
       style="fill:#d48eb3;fill-opacity:1;stroke:none;display:inline"
       id="path6011"
       d="m -15.482525,10.277108 0.410114,0 0,1 -0.410114,0 0,-1 z" />
    <path
       inkscape:connector-curvature="0"
       style="fill:#89adc2;fill-opacity:1;stroke:none;display:inline"
       id="path6009"
       d="m -14.919289,12.277108 0.917814,0 0,1 -0.917814,0 0,-1 z" />
    <path
       inkscape:connector-curvature="0"
       style="fill:#89adc2;fill-opacity:1;stroke:none;display:inline"
       id="path6007"
       d="m -13.848353,12.277108 2.377461,0 0,1 -2.377461,0 0,-1 z" />
    <path
       inkscape:connector-curvature="0"
       style="fill:#89adc2;fill-opacity:1;stroke:none;display:inline"
       id="path6005"
       d="m -11.317775,12.277108 1.806296,0 0,1 -1.806296,0 0,-1 z" />
    <path
       inkscape:connector-curvature="0"
       style="fill:#89adc2;fill-opacity:1;stroke:none;display:inline"
       id="path6003"
       d="m -9.358357,12.277108 0.552901,0 0,1 -0.552901,0 0,-1 z" />
    <path
       inkscape:connector-curvature="0"
       style="fill:#89adc2;fill-opacity:1;stroke:none;display:inline"
       id="path5999"
       d="m -19.060241,6.2771088 1.742834,0 0,0.9999996 -1.742834,0 0,-0.9999996 z" />
    <path
       inkscape:connector-curvature="0"
       style="fill:#89adc2;fill-opacity:1;stroke:none;display:inline"
       id="path5997"
       d="m -17.158336,6.2771088 0.838487,0 0,0.9999996 -0.838487,0 0,-0.9999996 z" />
    <path
       inkscape:connector-curvature="0"
       style="fill:#89adc2;fill-opacity:1;stroke:none;display:inline"
       id="path5995"
       d="m -16.160778,6.2771088 0.394245,0 0,0.9999996 -0.394245,0 0,-0.9999996 z" />
    <path
       inkscape:connector-curvature="0"
       style="fill:#89adc2;fill-opacity:1;stroke:none;display:inline"
       id="path5993"
       d="m -15.607461,6.2771088 0.759159,0 0,0.9999996 -0.759159,0 0,-0.9999996 z" />
    <path
       inkscape:connector-curvature="0"
       style="fill:#89adc2;fill-opacity:1;stroke:none;display:inline"
       id="path5991"
       d="m -14.689236,6.2771088 0.759159,0 0,0.9999996 -0.759159,0 0,-0.9999996 z" />
    <path
       inkscape:connector-curvature="0"
       style="fill:#89adc2;fill-opacity:1;stroke:none;display:inline"
       id="path5989"
       d="m -13.771007,6.2771088 1.219264,0 0,0.9999996 -1.219264,0 0,-0.9999996 z" />
    <path
       inkscape:connector-curvature="0"
       style="fill:#89adc2;fill-opacity:1;stroke:none;display:inline"
       id="path5987"
       d="m -12.392676,6.2771088 1.600045,0 0,0.9999996 -1.600045,0 0,-0.9999996 z" />
    <path
       inkscape:connector-curvature="0"
       style="fill:#89adc2;fill-opacity:1;stroke:none;display:inline"
       id="path5985"
       d="m -10.63356,6.2771088 1.076471,0 0,0.9999996 -1.076471,0 0,-0.9999996 z" />
    <path
       inkscape:connector-curvature="0"
       style="fill:#89adc2;fill-opacity:1;stroke:none;display:inline"
       id="path5981"
       d="m -19.060241,8.2771084 1.996685,0 0,1 -1.996685,0 0,-1 z" />
    <path
       inkscape:connector-curvature="0"
       style="fill:#89adc2;fill-opacity:1;stroke:none;display:inline"
       id="path5979"
       d="m -16.907035,8.2771084 2.139471,0 0,1 -2.139471,0 0,-1 z" />
    <path
       inkscape:connector-curvature="0"
       style="fill:#89adc2;fill-opacity:1;stroke:none;display:inline"
       id="path5977"
       d="m -14.611043,8.2771084 0.854355,0 0,1 -0.854355,0 0,-1 z" />
    <path
       inkscape:connector-curvature="0"
       style="opacity:0.7;fill:#666666;fill-opacity:1;stroke:none;display:inline"
       id="path5965"
       d="m -19.060241,16.277108 1.996686,0 0,1 -1.996686,0 0,-1 z" />
    <path
       inkscape:connector-curvature="0"
       style="opacity:0.7;fill:#666666;fill-opacity:1;stroke:none;display:inline"
       id="path5963"
       d="m -16.907035,16.277108 2.139473,0 0,1 -2.139473,0 0,-1 z" />
    <path
       inkscape:connector-curvature="0"
       style="fill:#d48eb3;fill-opacity:1;stroke:none;display:inline"
       id="path5961"
       d="m -14.611041,16.277108 0.854355,0 0,1 -0.854355,0 0,-1 z" />
    <path
       inkscape:connector-curvature="0"
       style="fill:#d48eb3;fill-opacity:1;stroke:none;display:inline"
       id="path5959"
       d="m -13.600165,16.277108 2.012549,0 0,1 -2.012549,0 0,-1 z" />
    <path
       inkscape:connector-curvature="0"
       style="fill:#d48eb3;fill-opacity:1;stroke:none;display:inline"
       id="path5957"
       d="m -9.896655,16.277108 0.537037,0 0,1 -0.537037,0 0,-1 z" />
    <path
       inkscape:connector-curvature="0"
       style="fill:#d48eb3;fill-opacity:1;stroke:none;display:inline"
       id="path5955"
       d="m -11.431095,16.277108 1.377919,0 0,1 -1.377919,0 0,-1 z" />
    <path
       inkscape:connector-curvature="0"
       style="fill:#d48eb3;fill-opacity:1;stroke:none;display:inline"
       id="path5953"
       d="m -9.203097,16.277108 0.314918,0 0,1 -0.314918,0 0,-1 z" />
    <path
       inkscape:connector-curvature="0"
       style="fill:#d48eb3;fill-opacity:1;stroke:none;display:inline"
       id="path5951"
       d="m -8.731658,16.277108 0.854355,0 0,1 -0.854355,0 0,-1 z" />
    <path
       inkscape:connector-curvature="0"
       style="fill:#b78ed4;fill-opacity:1;stroke:none;display:inline"
       id="path5949"
       d="m -19.060241,12.277108 1.441384,0 0,1 -1.441384,0 0,-1 z" />
    <path
       inkscape:connector-curvature="0"
       style="fill:#d48eb3;fill-opacity:1;stroke:none;display:inline"
       id="path5947"
       d="m -17.465735,12.277108 2.393326,0 0,1 -2.393326,0 0,-1 z" />
    <path
       inkscape:connector-curvature="0"
       style="fill:#94d48e;fill-opacity:1;stroke:none;display:inline"
       id="path5935"
       d="m -19.060241,14.277108 1.806297,0 0,1 -1.806297,0 0,-1 z" />
    <path
       inkscape:connector-curvature="0"
       style="fill:#94d48e;fill-opacity:1;stroke:none;display:inline"
       id="path5933"
       d="m -17.104791,14.277108 0.56877,0 0,1 -0.56877,0 0,-1 z" />
    <path
       inkscape:connector-curvature="0"
       style="opacity:0.7;fill:#666666;fill-opacity:1;stroke:none;display:inline"
       id="path5931"
       d="m -16.386869,14.277108 1.298596,0 0,1 -1.298596,0 0,-1 z" />
    <path
       inkscape:connector-curvature="0"
       style="opacity:0.7;fill:#666666;fill-opacity:1;stroke:none;display:inline"
       id="path5929"
       d="m -14.939121,14.277108 0.886087,0 0,1 -0.886087,0 0,-1 z" />
    <path
       inkscape:connector-curvature="0"
       style="fill:#89adc2;fill-opacity:1;stroke:none;display:inline"
       id="path5921"
       d="m -11.020289,14.277108 1.663505,0 0,1 -1.663505,0 0,-1 z" />
    <path
       inkscape:connector-curvature="0"
       style="fill:#89adc2;fill-opacity:1;stroke:none;display:inline"
       id="path5919"
       d="m -9.207632,14.277108 0.886087,0 0,1 -0.886087,0 0,-1 z" />
    <path
       inkscape:connector-curvature="0"
       style="fill:#de6161;fill-opacity:1;stroke:none;display:inline"
       id="path5917"
       d="m -19.060241,18.277108 1.48749,0 0,1 -1.48749,0 0,-1 z" />
    <path
       inkscape:connector-curvature="0"
       style="opacity:0.7;fill:#666666;fill-opacity:1;stroke:none;display:inline"
       id="path5915"
       d="m -17.333827,18.277108 2.647178,0 0,1 -2.647178,0 0,-1 z" />
    <path
       inkscape:connector-curvature="0"
       style="fill:#89adc2;fill-opacity:1;stroke:none;display:inline"
       id="path6838"
       d="m -8.32353,18.277108 -0.727427,0 0,1 0.727427,0 0,-1 z" />
    <path
       inkscape:connector-curvature="0"
       style="fill:#89adc2;fill-opacity:1;stroke:none;display:inline"
       id="path6840"
       d="m -9.23921,18.277108 -2.647178,0 0,1 2.647178,0 0,-1 z" />
  </g>
  <g
     id="g3888"
     transform="matrix(1.0513065,-0.43546544,0.43546544,1.0513065,-0.96947315,11.26377)">
    <path
       style="fill:url(#linearGradient3278);fill-opacity:1;fill-rule:nonzero;stroke:url(#linearGradient3280);stroke-width:0.52727503;stroke-linecap:butt;stroke-linejoin:round;stroke-miterlimit:4;stroke-opacity:1;stroke-dasharray:none;stroke-dashoffset:0;marker:none;visibility:visible;display:block;overflow:visible;enable-background:accumulate"
       id="path2426"
       d="M 11.21875,8 C 11.094542,8 11,8.0945411 11,8.21875 l 0,0.625 c -0.276951,0.0711 -0.525582,0.1859391 -0.765625,0.328125 L 9.78125,8.71875 c -0.087828,-0.087829 -0.224671,-0.087829 -0.3125,0 l -0.75,0.75 c -0.087829,0.087829 -0.087829,0.2246711 0,0.3125 l 0.453125,0.453125 C 9.0296894,10.474418 8.9148505,10.723048 8.84375,11 l -0.625,0 C 8.0945415,11 8,11.094541 8,11.21875 l 0,1.0625 C 8,12.405459 8.0945415,12.5 8.21875,12.5 l 0.625,0 c 0.071101,0.276951 0.1859395,0.525582 0.328125,0.765625 L 8.71875,13.71875 c -0.087829,0.08783 -0.087829,0.224671 0,0.3125 l 0.75,0.75 c 0.087829,0.08783 0.224671,0.08783 0.3125,0 l 0.453125,-0.453125 C 10.474418,14.470311 10.723049,14.58515 11,14.65625 l 0,0.625 C 11,15.405459 11.094542,15.5 11.21875,15.5 l 1.0625,0 C 12.405459,15.5 12.5,15.405459 12.5,15.28125 l 0,-0.625 c 0.276951,-0.0711 0.525582,-0.185939 0.765625,-0.328125 l 0.453125,0.453125 c 0.08783,0.08783 0.224671,0.08783 0.3125,0 l 0.75,-0.75 c 0.08783,-0.08783 0.08783,-0.224671 0,-0.3125 L 14.328125,13.265625 C 14.470311,13.025582 14.58515,12.776951 14.65625,12.5 l 0.625,0 C 15.405459,12.5 15.5,12.405459 15.5,12.28125 l 0,-1.0625 C 15.5,11.094541 15.405459,11 15.28125,11 l -0.625,0 c -0.0711,-0.276952 -0.185939,-0.525582 -0.328125,-0.765625 L 14.78125,9.78125 c 0.08783,-0.087829 0.08783,-0.224671 0,-0.3125 l -0.75,-0.75 c -0.08783,-0.087829 -0.224671,-0.087829 -0.3125,0 L 13.265625,9.171875 C 13.025582,9.0296891 12.776951,8.9148503 12.5,8.84375 l 0,-0.625 C 12.5,8.0945411 12.405459,8 12.28125,8 l -1.0625,0 z M 11.75,10.75 c 0.552,0 1,0.448 1,1 0,0.552 -0.448,1 -1,1 -0.552,0 -1,-0.448 -1,-1 0,-0.552 0.448,-1 1,-1 z"
       inkscape:connector-curvature="0" />
    <path
       style="opacity:0.05;fill:#000000;fill-opacity:1;stroke:none"
       id="path3315"
       d="m 11.75,9.482558 c -1.250289,0 -2.2674419,1.017154 -2.2674419,2.267442 0,1.250289 1.0171529,2.267442 2.2674419,2.267442 1.250288,0 2.267442,-1.017153 2.267442,-2.267442 0,-1.250288 -1.017154,-2.267442 -2.267442,-2.267442 z m 0,1.046512 c 0.673954,0 1.22093,0.546977 1.22093,1.22093 0,0.673954 -0.546976,1.22093 -1.22093,1.22093 -0.673953,0 -1.22093,-0.546976 -1.22093,-1.22093 0,-0.673953 0.546977,-1.22093 1.22093,-1.22093 z"
       inkscape:connector-curvature="0" />
    <path
       style="fill:none;stroke:url(#linearGradient3282);stroke-width:0.87879175;stroke-miterlimit:4;stroke-dasharray:none"
       id="path28"
       d="m 11.75,9.75 c -1.1028,0 -2,0.8972 -2,2 0,1.1028 0.8972,2 2,2 1.1028,0 2,-0.8972 2,-2 0,-1.1028 -0.8972,-2 -2,-2 z"
       inkscape:connector-curvature="0" />
  </g>
</svg>
