<?xml version="1.0" encoding="UTF-8" standalone="no"?>
<svg
   version="1.2"
   width="16"
   height="16"
   id="svg2"
   sodipodi:docname="crosshairs.svg"
   inkscape:version="1.1.1 (3bf5ae0d25, 2021-09-20)"
   xmlns:inkscape="http://www.inkscape.org/namespaces/inkscape"
   xmlns:sodipodi="http://sodipodi.sourceforge.net/DTD/sodipodi-0.dtd"
   xmlns="http://www.w3.org/2000/svg"
   xmlns:svg="http://www.w3.org/2000/svg"
   xmlns:rdf="http://www.w3.org/1999/02/22-rdf-syntax-ns#"
   xmlns:cc="http://creativecommons.org/ns#"
   xmlns:dc="http://purl.org/dc/elements/1.1/">
  <sodipodi:namedview
     id="namedview21"
     pagecolor="#ffffff"
     bordercolor="#666666"
     borderopacity="1.0"
     inkscape:pageshadow="2"
     inkscape:pageopacity="0.0"
     inkscape:pagecheckerboard="0"
     showgrid="false"
     inkscape:zoom="30.140427"
     inkscape:cx="2.8533106"
     inkscape:cy="5.8393333"
     inkscape:window-width="1396"
     inkscape:window-height="859"
     inkscape:window-x="522"
     inkscape:window-y="99"
     inkscape:window-maximized="0"
     inkscape:current-layer="svg2" />
  <defs
     id="defs4" />
  <metadata
     id="metadata7">
    <rdf:RDF>
      <cc:Work
         rdf:about="">
        <dc:format>image/svg+xml</dc:format>
        <dc:type
           rdf:resource="http://purl.org/dc/dcmitype/StillImage" />
      </cc:Work>
    </rdf:RDF>
  </metadata>
  <path
     d="M 8,0.50000007 C 3.8617571,0.50000007 0.49999994,3.8617572 0.49999994,8 c 0,4.138243 3.36175716,7.5 7.50000006,7.5 4.138243,0 7.500007,-3.361757 7.5,-7.5 C 15.5,3.8617572 12.138243,0.50000007 8,0.50000007 z"
     id="path2555-7-8-5-0"
     style="opacity:0.98999999;color:#000000;fill:#616161;fill-opacity:1;fill-rule:nonzero;stroke:none;stroke-width:0.99999982;marker:none;visibility:visible;display:inline;overflow:visible;enable-background:accumulate" />
  <path
     d="m 8,0.50000008 c -4.1382429,0 -7.50000006,3.36175712 -7.50000006,7.50000002 C 0.49999994,12.138243 3.8617571,15.5 8,15.5 c 4.138243,0 7.500007,-3.361757 7.5,-7.4999999 C 15.5,3.8617572 12.138243,0.50000008 8,0.50000008 z"
     id="path2555-7-8-5"
     style="opacity:0.5;color:#000000;fill:none;stroke:#333333;stroke-width:0.99999988;stroke-linecap:round;stroke-linejoin:round;stroke-miterlimit:4;stroke-opacity:1;stroke-dasharray:none;stroke-dashoffset:0;marker:none;visibility:visible;display:inline;overflow:visible;enable-background:accumulate;font-variant-east_asian:normal;vector-effect:none;fill-opacity:1" />
  <path
     id="rect3155"
     style="fill:#141414;fill-opacity:1;fill-rule:evenodd;stroke-width:0.5;opacity:0.15"
     d="M 6 1 L 6 6 L 1 6 L 1 10 L 6 10 L 6 15 L 10 15 L 10 10 L 15 10 L 15 6 L 10 6 L 10 1 L 6 1 z " />
  <rect
     style="fill:#dedede;fill-opacity:1;fill-rule:evenodd;stroke-width:0.5"
     id="rect1100"
     width="2"
     height="5"
     x="7"
     y="1" />
  <rect
     style="fill:#dedede;fill-opacity:1;fill-rule:evenodd;stroke-width:0.5"
     id="rect1302"
     width="2"
     height="5"
     x="7"
     y="10" />
  <rect
     style="fill:#dedede;fill-opacity:1;fill-rule:evenodd;stroke-width:0.5"
     id="rect1304"
     width="2"
     height="5"
     x="7"
     y="-6"
     transform="rotate(90)" />
  <rect
     style="fill:#dedede;fill-opacity:1;fill-rule:evenodd;stroke-width:0.5"
     id="rect1306"
     width="2"
     height="5"
     x="7"
     y="-15"
     transform="rotate(90)" />
</svg>
