<?xml version="1.0" encoding="UTF-8" standalone="no"?>
<!-- Created with Inkscape (http://www.inkscape.org/) -->

<svg
   xmlns:dc="http://purl.org/dc/elements/1.1/"
   xmlns:cc="http://creativecommons.org/ns#"
   xmlns:rdf="http://www.w3.org/1999/02/22-rdf-syntax-ns#"
   xmlns:svg="http://www.w3.org/2000/svg"
   xmlns="http://www.w3.org/2000/svg"
   xmlns:sodipodi="http://sodipodi.sourceforge.net/DTD/sodipodi-0.dtd"
   xmlns:inkscape="http://www.inkscape.org/namespaces/inkscape"
   version="1.0"
   width="16"
   height="16"
   id="svg3222"
   sodipodi:version="0.32"
   inkscape:version="0.48.3.1 r9886"
   sodipodi:docname="edit-find.svg"
   inkscape:output_extension="org.inkscape.output.svg.inkscape">
  <metadata
     id="metadata8">
    <rdf:RDF>
      <cc:Work
         rdf:about="">
        <dc:format>image/svg+xml</dc:format>
        <dc:type
           rdf:resource="http://purl.org/dc/dcmitype/StillImage" />
      </cc:Work>
    </rdf:RDF>
  </metadata>
  <sodipodi:namedview
     inkscape:window-height="711"
     inkscape:window-width="689"
     inkscape:pageshadow="2"
     inkscape:pageopacity="0.0"
     guidetolerance="10.0"
     gridtolerance="10.0"
     objecttolerance="10.0"
     borderopacity="1.0"
     bordercolor="#666666"
     pagecolor="#ffffff"
     id="base"
     showgrid="false"
     inkscape:zoom="15.5625"
     inkscape:cx="8.112359"
     inkscape:cy="8"
     inkscape:window-x="636"
     inkscape:window-y="25"
     inkscape:current-layer="svg3222"
     inkscape:window-maximized="0" />
  <defs
     id="defs3224" />
  <path
     inkscape:connector-curvature="0"
     d="m 9.335315,8.5380265 c -0.053977,0.021587 -0.1048795,0.05148 -0.1507363,0.088524 L 8.2734918,9.2443867 c -0.1386079,0.087649 -0.2358191,0.2297701 -0.2646596,0.3869271 -0.028841,0.157157 0.013758,0.3126313 0.1159746,0.4232822 l 5.5131092,5.790109 c 0.09497,0.105821 0.234268,0.162049 0.383128,0.154646 0.148861,-0.0074 0.293228,-0.07774 0.397058,-0.193447 l 0.944433,-1.051287 c 0.19322,-0.219769 0.192317,-0.537725 -0.0021,-0.721685 L 9.8140285,8.6762744 C 9.6969096,8.5476266 9.515648,8.49528 9.335315,8.5380265 z"
     id="path2989"
     style="opacity:0.40000000000000002;fill:none;fill-opacity:1;fill-rule:evenodd;stroke:#ffffff;display:inline;stroke-opacity:1" />
  <path
     inkscape:connector-curvature="0"
     d="m 10.056334,6 c 0,2.2402518 -1.8160823,4.056334 -4.0563339,4.056334 -2.2402516,0 -4.0563343,-1.8160822 -4.0563343,-4.0563341 0,-2.2402519 1.8160827,-4.0563348 4.0563343,-4.0563348 2.2402516,0 4.0563339,1.8160829 4.0563339,4.0563348 l 0,0 z"
     id="path2991"
     style="opacity:0.40000000000000002;fill:none;fill-opacity:1;fill-rule:evenodd;stroke:#ffffff;stroke-width:1.88733149000000000;stroke-linecap:butt;stroke-linejoin:miter;stroke-miterlimit:4;stroke-opacity:1;stroke-dasharray:none" />
  <path
     style="fill:#4d4d4d;fill-opacity:1;fill-rule:evenodd;stroke:none;display:inline"
     id="path3220"
     d="m 9.335315,7.5380263 c -0.053977,0.021587 -0.1048795,0.05148 -0.1507363,0.088524 L 8.2734918,8.2443865 c -0.1386079,0.087649 -0.2358191,0.2297701 -0.2646596,0.3869271 -0.028841,0.157157 0.013758,0.3126313 0.1159746,0.4232826 l 5.5131092,5.7901088 c 0.09497,0.105821 0.234268,0.162049 0.383128,0.154646 0.148861,-0.0074 0.293228,-0.07774 0.397058,-0.193447 l 0.944433,-1.051287 c 0.19322,-0.219769 0.192317,-0.537725 -0.0021,-0.721685 L 9.8140285,7.6762742 C 9.6969096,7.5476264 9.515648,7.4952798 9.335315,7.5380263 z"
     inkscape:connector-curvature="0" />
  <path
     style="fill:#000000;fill-opacity:0;fill-rule:evenodd;stroke:#4d4d4d;stroke-width:1.88733149;stroke-linecap:butt;stroke-linejoin:miter;stroke-miterlimit:4;stroke-opacity:1;stroke-dasharray:none"
     id="path2447"
     d="m 10.056334,4.9999998 c 0,2.2402518 -1.8160823,4.0563344 -4.0563339,4.0563344 -2.2402516,0 -4.0563343,-1.8160826 -4.0563343,-4.0563345 0,-2.2402519 1.8160827,-4.05633485 4.0563343,-4.05633485 2.2402516,0 4.0563339,1.81608295 4.0563339,4.05633485 l 0,0 z"
     inkscape:connector-curvature="0" />
</svg>
