<?xml version="1.0" encoding="UTF-8" standalone="no"?>
<!-- Created with Inkscape (http://www.inkscape.org/) -->

<svg
   xmlns:dc="http://purl.org/dc/elements/1.1/"
   xmlns:cc="http://creativecommons.org/ns#"
   xmlns:rdf="http://www.w3.org/1999/02/22-rdf-syntax-ns#"
   xmlns:svg="http://www.w3.org/2000/svg"
   xmlns="http://www.w3.org/2000/svg"
   xmlns:xlink="http://www.w3.org/1999/xlink"
   xmlns:sodipodi="http://sodipodi.sourceforge.net/DTD/sodipodi-0.dtd"
   xmlns:inkscape="http://www.inkscape.org/namespaces/inkscape"
   version="1.0"
   width="16"
   height="16"
   id="svg3222"
   sodipodi:version="0.32"
   inkscape:version="0.48.4 r9939"
   sodipodi:docname="edit-find.svg"
   inkscape:output_extension="org.inkscape.output.svg.inkscape">
  <metadata
     id="metadata8">
    <rdf:RDF>
      <cc:Work
         rdf:about="">
        <dc:format>image/svg+xml</dc:format>
        <dc:type
           rdf:resource="http://purl.org/dc/dcmitype/StillImage" />
      </cc:Work>
    </rdf:RDF>
  </metadata>
  <sodipodi:namedview
     inkscape:window-height="751"
     inkscape:window-width="1280"
     inkscape:pageshadow="2"
     inkscape:pageopacity="0.0"
     guidetolerance="10.0"
     gridtolerance="10.0"
     objecttolerance="10.0"
     borderopacity="1.0"
     bordercolor="#666666"
     pagecolor="#ffffff"
     id="base"
     showgrid="true"
     inkscape:zoom="7.78125"
     inkscape:cx="17.126493"
     inkscape:cy="8"
     inkscape:window-x="0"
     inkscape:window-y="25"
     inkscape:current-layer="svg3222"
     inkscape:window-maximized="1">
    <inkscape:grid
       type="xygrid"
       id="grid3760" />
  </sodipodi:namedview>
  <defs
     id="defs3224">
    <radialGradient
       inkscape:collect="always"
       xlink:href="#linearGradient2867-449-88-871-390-598-476-591-434-148-57-177-641-289-620-227-114-444-680-744-4"
       id="radialGradient3062"
       gradientUnits="userSpaceOnUse"
       gradientTransform="matrix(0,0.9964861,-1.0668483,0,-12.270981,-20.309295)"
       cx="21.385109"
       cy="-19.005346"
       fx="21.385109"
       fy="-19.005346"
       r="19.99999" />
    <linearGradient
       id="linearGradient2867-449-88-871-390-598-476-591-434-148-57-177-641-289-620-227-114-444-680-744-4">
      <stop
         id="stop5430-5"
         style="stop-color:#737373;stop-opacity:1"
         offset="0" />
      <stop
         id="stop5432-2"
         style="stop-color:#636363;stop-opacity:1"
         offset="0.26238" />
      <stop
         id="stop5434-9"
         style="stop-color:#4b4b4b;stop-opacity:1"
         offset="0.704952" />
      <stop
         id="stop5436-2"
         style="stop-color:#3f3f3f;stop-opacity:1"
         offset="1" />
    </linearGradient>
    <radialGradient
       r="19.99999"
       fy="-19.005346"
       fx="21.385109"
       cy="-19.005346"
       cx="21.385109"
       gradientTransform="matrix(0,0.9964861,-1.0668483,0,12.303316,-21.514114)"
       gradientUnits="userSpaceOnUse"
       id="radialGradient3052"
       xlink:href="#linearGradient2867-449-88-871-390-598-476-591-434-148-57-177-641-289-620-227-114-444-680-744-4"
       inkscape:collect="always" />
    <radialGradient
       inkscape:collect="always"
       xlink:href="#linearGradient2867-449-88-871-390-598-476-591-434-148-57-177-641-289-620-227-114-444-680-744-4"
       id="radialGradient3793"
       cx="6.8941779"
       cy="1.0000002"
       fx="6.8941779"
       fy="1.0000002"
       r="7.0035386"
       gradientUnits="userSpaceOnUse"
       gradientTransform="matrix(0,2.7129141,-2.5701293,0,10.57013,-20.703312)" />
  </defs>
  <path
     id="path3795"
     d="m 6.2464612,1.992923 c -2.899495,0 -5.24999995,2.350505 -5.24999995,5.25 0,2.899494 2.35050495,5.25 5.24999995,5.25 1.127974,0 2.1755081,-0.363363 3.03125,-0.96875 l 4.2187498,4.21875 c 0.34277,0.342769 0.90723,0.342769 1.25,0 0.34277,-0.34277 0.34277,-0.90723 0,-1.25 l -4.21875,-4.21875 c 0.605387,-0.855742 0.96875,-1.903276 0.96875,-3.03125 0,-2.899495 -2.3505048,-5.25 -5.2499998,-5.25 z m 0,1.375 c 2.140103,0 3.8749998,1.734896 3.8749998,3.875 0,2.140103 -1.7348968,3.875 -3.8749998,3.875 -2.140103,0 -3.875,-1.734897 -3.875,-3.875 0,-2.140104 1.734897,-3.875 3.875,-3.875 z"
     style="opacity:0.3;color:#bebebe;fill:#ffffff;fill-opacity:1;fill-rule:nonzero;stroke:none;stroke-width:1;marker:none;visibility:visible;display:inline;overflow:visible;enable-background:accumulate"
     inkscape:connector-curvature="0" />
  <path
     inkscape:connector-curvature="0"
     style="color:#bebebe;fill:url(#radialGradient3793);fill-opacity:1;fill-rule:nonzero;stroke:none;stroke-width:1;marker:none;visibility:visible;display:inline;overflow:visible;enable-background:accumulate"
     d="m 6.2464612,0.99646135 c -2.899495,0 -5.24999995,2.35050505 -5.24999995,5.24999975 0,2.8994948 2.35050495,5.2499999 5.24999995,5.2499999 1.127974,0 2.1755081,-0.363363 3.03125,-0.96875 l 4.2187498,4.21875 c 0.34277,0.34277 0.90723,0.34277 1.25,0 0.34277,-0.34277 0.34277,-0.90723 0,-1.25 l -4.21875,-4.2187499 c 0.605387,-0.8557419 0.96875,-1.9032758 0.96875,-3.03125 0,-2.8994947 -2.3505048,-5.24999975 -5.2499998,-5.24999975 z m 0,1.37499975 c 2.140103,0 3.8749998,1.7348966 3.8749998,3.875 0,2.1401034 -1.7348968,3.8749999 -3.8749998,3.8749999 -2.140103,0 -3.875,-1.7348965 -3.875,-3.8749999 0,-2.1401034 1.734897,-3.875 3.875,-3.875 z"
     id="path2986-0" />
</svg>
