<?xml version="1.0" encoding="UTF-8" standalone="no"?>
<svg
   xmlns:dc="http://purl.org/dc/elements/1.1/"
   xmlns:cc="http://creativecommons.org/ns#"
   xmlns:rdf="http://www.w3.org/1999/02/22-rdf-syntax-ns#"
   xmlns:svg="http://www.w3.org/2000/svg"
   xmlns="http://www.w3.org/2000/svg"
   xmlns:xlink="http://www.w3.org/1999/xlink"
   version="1.1"
   width="16"
   height="16"
   id="svg8860">
  <defs
     id="defs8862">
    <linearGradient
       id="linearGradient3454-2-5-0-3-8">
      <stop
         id="stop3456-4-9-38-1-9"
         style="stop-color:#ffffff;stop-opacity:1"
         offset="0" />
      <stop
         id="stop3458-39-80-3-5-6"
         style="stop-color:#ffffff;stop-opacity:0.23529412"
         offset="0.0097359" />
      <stop
         id="stop3460-7-0-2-4-4"
         style="stop-color:#ffffff;stop-opacity:0.15686275"
         offset="0.99001008" />
      <stop
         id="stop3462-0-9-8-7-8"
         style="stop-color:#ffffff;stop-opacity:0.39215687"
         offset="1" />
    </linearGradient>
    <linearGradient
       id="linearGradient6129-963-697-142-998-580-273-44-2-2-2">
      <stop
         id="stop2661-01-6-2-4"
         style="stop-color:#0a0a0a;stop-opacity:0.498"
         offset="0" />
      <stop
         id="stop2663-64-5-5-3"
         style="stop-color:#0a0a0a;stop-opacity:0"
         offset="1" />
    </linearGradient>
    <linearGradient
       id="linearGradient4632-0-6-4-4">
      <stop
         id="stop4634-4-4-7-5"
         style="stop-color:#b4cee1;stop-opacity:1"
         offset="0" />
      <stop
         id="stop4636-3-1-5-4"
         style="stop-color:#5d9fcd;stop-opacity:1"
         offset="1" />
    </linearGradient>
    <linearGradient
       id="linearGradient3104-8-8-97-4-6-11-5-5-4-4">
      <stop
         id="stop3106-5-4-3-5-0-2-1-0-7-7"
         style="stop-color:#000000;stop-opacity:0.32173914"
         offset="0" />
      <stop
         id="stop3108-4-3-7-8-2-0-7-9-0-6"
         style="stop-color:#000000;stop-opacity:0.27826086"
         offset="1" />
    </linearGradient>
    <linearGradient
       id="linearGradient4346">
      <stop
         id="stop4348"
         style="stop-color:#ffffff;stop-opacity:1"
         offset="0" />
      <stop
         id="stop4350"
         style="stop-color:#d8d8d8;stop-opacity:1"
         offset="1" />
    </linearGradient>
    <linearGradient
       id="linearGradient4111">
      <stop
         id="stop4113"
         style="stop-color:#ffffff;stop-opacity:1"
         offset="0" />
      <stop
         id="stop4115"
         style="stop-color:#ffffff;stop-opacity:0.23529412"
         offset="0.34280834" />
      <stop
         id="stop4117"
         style="stop-color:#ffffff;stop-opacity:0.15686275"
         offset="0.68008143" />
      <stop
         id="stop4119"
         style="stop-color:#ffffff;stop-opacity:0.39215687"
         offset="1" />
    </linearGradient>
    <linearGradient
       id="linearGradient3242-7">
      <stop
         id="stop3244-5"
         style="stop-color:#eef87e;stop-opacity:1"
         offset="0" />
      <stop
         id="stop3246-9"
         style="stop-color:#cde34f;stop-opacity:1"
         offset="0.26238" />
      <stop
         id="stop3248-7"
         style="stop-color:#93b723;stop-opacity:1"
         offset="0.66093999" />
      <stop
         id="stop3250-8"
         style="stop-color:#5a7e0d;stop-opacity:1"
         offset="1" />
    </linearGradient>
    <linearGradient
       xlink:href="#linearGradient4111"
       id="linearGradient3028"
       gradientUnits="userSpaceOnUse"
       gradientTransform="matrix(0.20131127,0,0,0.1999165,7.4133025,7.3088517)"
       x1="24.138529"
       y1="7.0478544"
       x2="24.138529"
       y2="39.268391" />
    <radialGradient
       xlink:href="#linearGradient3242-7"
       id="radialGradient3031"
       gradientUnits="userSpaceOnUse"
       gradientTransform="matrix(0,0.38528829,-0.41958841,0,32.389496,-16.793007)"
       cx="64.575233"
       cy="48.605404"
       fx="64.575233"
       fy="48.605404"
       r="31.000002" />
    <linearGradient
       xlink:href="#linearGradient3454-2-5-0-3-8"
       id="linearGradient3035"
       gradientUnits="userSpaceOnUse"
       gradientTransform="matrix(0.89189031,0,0,0.94046961,3.14398,5.346537)"
       x1="11.350123"
       y1="0.66696572"
       x2="11.350123"
       y2="8.1721792" />
    <linearGradient
       xlink:href="#linearGradient6129-963-697-142-998-580-273-44-2-2-2"
       id="linearGradient3038"
       gradientUnits="userSpaceOnUse"
       gradientTransform="matrix(0.38156409,0,0,0.32896952,-18.24159,0.28216731)"
       x1="76.041"
       y1="49.372032"
       x2="76.041"
       y2="35.430561" />
    <linearGradient
       xlink:href="#linearGradient4632-0-6-4-4"
       id="linearGradient3041"
       gradientUnits="userSpaceOnUse"
       gradientTransform="matrix(0.33333327,0,0,0.34148555,-17.08621,-0.60407268)"
       x1="84.30883"
       y1="16.110577"
       x2="84.30883"
       y2="42.923553" />
    <linearGradient
       xlink:href="#linearGradient4346"
       id="linearGradient3047"
       gradientUnits="userSpaceOnUse"
       gradientTransform="matrix(0.33333327,0,0,0.32971018,-17.44063,-0.64784268)"
       x1="62.988873"
       y1="11.645091"
       x2="62.988873"
       y2="15.385052" />
    <linearGradient
       xlink:href="#linearGradient3104-8-8-97-4-6-11-5-5-4-4"
       id="linearGradient3053"
       gradientUnits="userSpaceOnUse"
       gradientTransform="matrix(0.31070043,0,0,0.27489387,20.17717,-0.10316268)"
       x1="-51.786404"
       y1="53.514328"
       x2="-51.786404"
       y2="2.0612748" />
  </defs>
  <metadata
     id="metadata8865">
    <rdf:RDF>
      <cc:Work
         rdf:about="">
        <dc:format>image/svg+xml</dc:format>
        <dc:type
           rdf:resource="http://purl.org/dc/dcmitype/StillImage" />
        <dc:title />
      </cc:Work>
    </rdf:RDF>
  </metadata>
  <path
     style="color:#000000;fill:url(#linearGradient3047);fill-opacity:1;fill-rule:nonzero;stroke:none;stroke-width:0.99992168;marker:none;visibility:visible;display:inline;overflow:visible;enable-background:accumulate"
     id="rect4170-0"
     d="m 2.02332,1.976667 0,1 -1,0 0,4 14,0 0,-4 -7,0 0,-1 -6,0 z" />
  <path
     style="font-size:medium;font-style:normal;font-variant:normal;font-weight:normal;font-stretch:normal;text-indent:0;text-align:start;text-decoration:none;line-height:normal;letter-spacing:normal;word-spacing:normal;text-transform:none;direction:ltr;block-progression:tb;writing-mode:lr-tb;text-anchor:start;baseline-shift:baseline;opacity:0.8;color:#000000;fill:url(#linearGradient3053);fill-opacity:1;stroke:none;stroke-width:1;marker:none;visibility:visible;display:inline;overflow:visible;enable-background:accumulate;font-family:Sans;-inkscape-font-specification:Sans"
     d="m 1.78125,1 c -0.4068514,0 -0.75,0.3431486 -0.75,0.75 l 0,0.21875 -0.25,0 c -0.40685138,0 -0.75,0.3431486 -0.75,0.75 l 0,1.28125 1,0 0,-1.03125 0.5,0 0.5,0 0,-0.5 0,-0.46875 6,0 0,0.46875 0,0.5 0.5,0 6.5,0 0,1.03125 1,0 0,-1.28125 c 0,-0.4068514 -0.343149,-0.75 -0.75,-0.75 l -6.25,0 0,-0.21875 C 9.03125,1.3431486 8.6881014,1 8.28125,1 l -6.5,0 z"
     id="rect4170" />
  <path
     style="color:#000000;fill:url(#linearGradient3041);fill-opacity:1;fill-rule:nonzero;stroke:none;stroke-width:1;marker:none;visibility:visible;display:inline;overflow:visible;enable-background:accumulate"
     id="rect3086"
     d="m 0.55988,4.453367 c 0.75732,0 14.39951,0.0316 14.98675,0.0316 0,0.6186 -0.0285,10.00962 -0.0624,10.00962 -5.26001,0.0178 -13.45265,-0.014 -14.98423,-0.014 0,-1.16748 0.0599,-7.62459 0.0599,-10.02721 z" />
  <path
     style="opacity:0.4;color:#000000;fill:url(#linearGradient3038);fill-opacity:1;fill-rule:nonzero;stroke:none;stroke-width:1;marker:none;visibility:visible;display:inline;overflow:visible;enable-background:accumulate"
     id="rect3086-1"
     d="m 0.08698,3.976647 c 0.8053,0 15.31189,0.0341 15.93634,0.0341 0,0.67729 -0.0303,10.95971 -0.0663,10.95971 -5.5933,0.02 -14.30504,-0.0148 -15.93366,-0.0148 0,-1.2783 0.0636,-8.34831 0.0636,-10.97898 z" />
  <path
     style="opacity:0.5;color:#000000;fill:none;stroke:url(#linearGradient3035);stroke-width:1.00000012;stroke-linecap:round;stroke-linejoin:miter;stroke-miterlimit:4;stroke-opacity:1;stroke-dasharray:none;stroke-dashoffset:0;marker:none;visibility:visible;display:inline;overflow:visible;enable-background:accumulate"
     id="rect3086-9"
     d="m 1.57504,5.476667 c 0.65431,0 12.44092,0.0251 12.94828,0.0251 0,0.49259 -0.0246,7.97055 -0.0539,7.97055 -4.54455,0.0142 -11.62285,-0.0111 -12.9461,-0.0111 0,-0.92965 0.0517,-6.07138 0.0517,-7.98455 z" />
  <path
     style="opacity:0.3;color:#000000;fill:none;stroke:#000000;stroke-width:1;stroke-linecap:round;stroke-linejoin:round;stroke-miterlimit:4;stroke-opacity:1;stroke-dasharray:none;stroke-dashoffset:0;marker:none;visibility:visible;display:inline;overflow:visible;enable-background:accumulate"
     id="rect3086-0"
     d="m 0.55988,4.453367 c 0.75732,0 14.39951,0.0316 14.98675,0.0316 0,0.6186 -0.0285,10.00962 -0.0624,10.00962 -5.26001,0.0178 -13.45265,-0.014 -14.98423,-0.014 0,-1.16748 0.0599,-7.62459 0.0599,-10.02721 z" />
  <path
     style="color:#000000;fill:url(#radialGradient3031);fill-opacity:1;fill-rule:nonzero;stroke:none;stroke-width:0.98542738;marker:none;visibility:visible;display:inline;overflow:visible;enable-background:accumulate"
     id="path2262"
     d="m 10.5,10.5 0,-2.0072863 3,0 0,2.0072863 2.007286,0 0,3 -2.007286,0 0,2.007286 -3,0 0,-2.007286 -2.0072863,0 0,-3 2.0072863,0 z" />
  <path
     style="opacity:0.5;fill:none;stroke:url(#linearGradient3028);stroke-width:1;stroke-linecap:butt;stroke-linejoin:miter;stroke-miterlimit:4;stroke-opacity:1;stroke-dasharray:none;display:inline"
     id="path2272"
     d="m 11.5,11.5 0,-1.9999997 1,0 0,1.9999997 2,0 0,1 -2,0 0,2.292538 -1,0 0,-2.292538 -2,0 0,-1 2,0 z" />
  <path
     style="opacity:0.3;color:#000000;fill:none;stroke:#000000;stroke-width:0.98542738;stroke-linecap:round;stroke-linejoin:round;stroke-miterlimit:4;stroke-opacity:1;stroke-dasharray:none;stroke-dashoffset:0;marker:none;visibility:visible;display:inline;overflow:visible;enable-background:accumulate"
     id="path2262-4"
     d="m 10.5,10.5 0,-2.0072863 3,0 0,2.0072863 2.007286,0 0,3 -2.007286,0 0,2.007286 -3,0 0,-2.007286 -2.0072863,0 0,-3 2.0072863,0 z" />
</svg>
