<?xml version="1.0" encoding="UTF-8" standalone="no"?>
<svg
   height="16"
   version="1.1"
   width="16"
   enable-background="new"
   id="svg3001"
   sodipodi:docname="format-text-direction-ltr.svg"
   inkscape:version="1.2.2 (b0a8486541, 2022-12-01)"
   xmlns:inkscape="http://www.inkscape.org/namespaces/inkscape"
   xmlns:sodipodi="http://sodipodi.sourceforge.net/DTD/sodipodi-0.dtd"
   xmlns:xlink="http://www.w3.org/1999/xlink"
   xmlns="http://www.w3.org/2000/svg"
   xmlns:svg="http://www.w3.org/2000/svg"
   xmlns:rdf="http://www.w3.org/1999/02/22-rdf-syntax-ns#"
   xmlns:cc="http://creativecommons.org/ns#"
   xmlns:dc="http://purl.org/dc/elements/1.1/">
  <sodipodi:namedview
     id="namedview19776"
     pagecolor="#ffffff"
     bordercolor="#000000"
     borderopacity="0.25"
     inkscape:showpageshadow="2"
     inkscape:pageopacity="0.0"
     inkscape:pagecheckerboard="0"
     inkscape:deskcolor="#d1d1d1"
     showgrid="false"
     inkscape:zoom="22.627417"
     inkscape:cx="12.352272"
     inkscape:cy="4.574097"
     inkscape:window-width="1386"
     inkscape:window-height="912"
     inkscape:window-x="930"
     inkscape:window-y="85"
     inkscape:window-maximized="0"
     inkscape:current-layer="svg3001" />
  <metadata
     id="metadata90">
    <rdf:RDF>
      <cc:Work
         rdf:about="">
        <dc:format>image/svg+xml</dc:format>
        <dc:type
           rdf:resource="http://purl.org/dc/dcmitype/StillImage" />
      </cc:Work>
    </rdf:RDF>
  </metadata>
  <defs
     id="defs7386">
    <linearGradient
       inkscape:collect="always"
       id="linearGradient22664">
      <stop
         style="stop-color:#64baff;stop-opacity:1"
         offset="0"
         id="stop22660" />
      <stop
         style="stop-color:#3689e6;stop-opacity:1"
         offset="1"
         id="stop22662" />
    </linearGradient>
    <linearGradient
       inkscape:collect="always"
       xlink:href="#linearGradient22664"
       id="linearGradient22666"
       x1="5.7037144"
       y1="1.9296136"
       x2="5.7037144"
       y2="12.107595"
       gradientUnits="userSpaceOnUse"
       gradientTransform="matrix(0.88326543,0,0,0.88486656,-2.5408179,0.05756672)" />
  </defs>
  <path
     d="m 3.486045,9.7969806 c -0.5737892,0 -1.085125,-0.099715 -1.5340075,-0.2991451 C 1.5031549,9.2944941 1.1479522,8.9953481 0.8864293,8.600398 0.6288098,8.2015371 0.5,7.7049161 0.5,7.1105349 0.5,6.6100034 0.5917282,6.1896352 0.7751845,5.8494302 0.9586409,5.5092252 1.2084538,5.235497 1.5246232,5.0282457 1.8407927,4.8209944 2.1998987,4.6645783 2.6019414,4.5589975 3.007887,4.4534166 3.43335,4.379119 3.878329,4.3361046 4.401375,4.2813586 4.822934,4.2305237 5.143007,4.1835989 5.46308,4.1327629 5.695327,4.058466 5.83975,3.9607059 5.984174,3.8629459 6.056385,3.718261 6.056385,3.5266513 v -0.035194 c 0,-0.3714882 -0.1171,-0.6589028 -0.351299,-0.8622437 C 5.474789,2.4258727 5.146911,2.3242022 4.721448,2.3242022 c -0.448883,0 -0.806037,0.099715 -1.071464,0.2991458 C 3.384558,2.8188683 3.208909,3.0652236 3.123035,3.3624142 L 0.8161694,3.1747151 C 0.9332692,2.6272588 1.1635655,2.1541001 1.5070582,1.7552391 1.850551,1.3524676 2.2935786,1.0435458 2.8361409,0.82847374 3.382607,0.60949125 4.014946,0.5 4.733157,0.5 5.232783,0.5 5.710941,0.558656 6.16763,0.67596814 6.628223,0.79328015 7.03612,0.97511379 7.391323,1.2214691 7.750429,1.4678245 8.03628,1.7941609 8.222655,2.1716969 8.430061,2.5918384 8.5,3.0143886 8.5,3.5501137 V 9.6268783 H 6.185195 V 8.3775053 H 6.114935 C 5.970511,8.659054 5.777297,8.9073641 5.535291,9.1224362 5.293285,9.3335981 5.002487,9.4997902 4.662898,9.6210125 4.323308,9.7383246 3.931024,9.7969806 3.486045,9.7969806 Z M 4.200354,8.0724939 c 0.366912,0 0.690888,-0.072342 0.971928,-0.2170273 C 5.453322,7.7068713 5.673859,7.5074407 5.833896,7.257175 5.993932,7.0069093 6.07395,6.7234051 6.07395,6.4066625 V 5.4505691 C 5.99589,5.5014041 5.888542,5.5483291 5.751925,5.5913436 5.619213,5.6304476 5.468934,5.6675956 5.301092,5.7027901 5.133248,5.7340731 4.965406,5.7634011 4.797562,5.7907741 4.629719,5.8142361 4.47749,5.8357441 4.340874,5.8552961 4.048124,5.8983101 3.792456,5.9667426 3.57387,6.0605922 3.355283,6.1544422 3.185489,6.2815299 3.064486,6.4418564 2.9434824,6.5982725 2.8829809,6.7937926 2.8829809,7.0284167 c 0,0.340205 0.1229551,0.6002468 0.3688641,0.7801253 0.249813,0.175968 0.565983,0.263952 0.948509,0.2639519 z"
     style="font-weight:bold;font-size:18.6667px;font-family:'Inter V';-inkscape-font-specification:'Inter V Bold';fill:url(#linearGradient22666);fill-opacity:1;stroke-width:1;stroke-linecap:round;stroke-linejoin:round;paint-order:fill markers stroke"
     id="path20772"
     sodipodi:nodetypes="sccssscccssscscccccsccasccccccsscsscccccscscs" />
  <path
     d="m 3.486045,9.7969806 c -0.5737892,0 -1.085125,-0.099715 -1.5340075,-0.2991451 C 1.5031549,9.2944941 1.1479522,8.9953481 0.8864293,8.600398 0.6288098,8.2015371 0.5,7.7049161 0.5,7.1105349 0.5,6.6100034 0.5917282,6.1896352 0.7751845,5.8494302 0.9586409,5.5092252 1.2084538,5.235497 1.5246232,5.0282457 1.8407927,4.8209944 2.1998987,4.6645783 2.6019414,4.5589975 3.007887,4.4534166 3.43335,4.379119 3.878329,4.3361046 4.401375,4.2813586 4.822934,4.2305237 5.143007,4.1835989 5.46308,4.1327629 5.695327,4.058466 5.83975,3.9607059 5.984174,3.8629459 6.056385,3.718261 6.056385,3.5266513 v -0.035194 c 0,-0.3714882 -0.1171,-0.6589028 -0.351299,-0.8622437 C 5.474789,2.4258727 5.146911,2.3242022 4.721448,2.3242022 c -0.448883,0 -0.806037,0.099715 -1.071464,0.2991458 C 3.384558,2.8188683 3.208909,3.0652236 3.123035,3.3624142 L 0.8161694,3.1747151 C 0.9332692,2.6272588 1.1635655,2.1541001 1.5070582,1.7552391 1.850551,1.3524676 2.2935786,1.0435458 2.8361409,0.82847374 3.382607,0.60949125 4.014946,0.5 4.733157,0.5 5.232783,0.5 5.710941,0.558656 6.16763,0.67596814 6.628223,0.79328015 7.03612,0.97511379 7.391323,1.2214691 7.750429,1.4678245 8.03628,1.7941609 8.222655,2.1716969 8.430061,2.5918384 8.5,3.0143886 8.5,3.5501137 V 9.6268783 H 6.185195 V 8.3775053 H 6.114935 C 5.970511,8.659054 5.777297,8.9073641 5.535291,9.1224362 5.293285,9.3335981 5.002487,9.4997902 4.662898,9.6210125 4.323308,9.7383246 3.931024,9.7969806 3.486045,9.7969806 Z M 4.200354,8.0724939 c 0.366912,0 0.690888,-0.072342 0.971928,-0.2170273 C 5.453322,7.7068713 5.673859,7.5074407 5.833896,7.257175 5.993932,7.0069093 6.07395,6.7234051 6.07395,6.4066625 V 5.4505691 C 5.99589,5.5014041 5.888543,5.5483291 5.751926,5.5913436 5.619213,5.6304476 5.468935,5.6675956 5.301092,5.7027901 5.133248,5.7340731 4.965406,5.7634011 4.797562,5.7907741 4.62972,5.8142361 4.47749,5.8357441 4.340874,5.8552961 4.048124,5.8983101 3.792456,5.9667426 3.57387,6.0605922 3.355283,6.1544422 3.185489,6.2815299 3.064486,6.4418564 2.9434824,6.5982725 2.8829809,6.7937926 2.8829809,7.0284167 c 0,0.340205 0.1229551,0.6002468 0.3688641,0.7801253 0.249813,0.175968 0.565983,0.263952 0.948509,0.2639519 z"
     style="font-weight:bold;font-size:18.6667px;font-family:'Inter V';-inkscape-font-specification:'Inter V Bold';fill:none;stroke:#002e99;stroke-width:1;stroke-linecap:round;stroke-linejoin:round;stroke-opacity:0.5;paint-order:fill markers stroke"
     id="path20776"
     sodipodi:nodetypes="sccssscccssscscccccsccasccccccsscsscccccscscs" />
  <path
     id="rect20830"
     style="fill:#64baff;fill-opacity:1;stroke:none;stroke-width:0.999996;stroke-linecap:round;stroke-linejoin:round;stroke-opacity:0.5;paint-order:fill markers stroke;stop-color:#000000"
     d="m 11.47831,9.5 c 0.112852,-0.00681 0.227153,0.025416 0.322265,0.09375 l 3.5,2.5 c 0.277978,0.199505 0.277978,0.612995 0,0.8125 l -3.5,2.5 C 11.469808,15.642903 11.00991,15.406709 11.00956,15 V 13.5 H 1.5095598 c -0.55399902,0 -1.00000002,-0.446001 -1.00000002,-1 0,-0.553999 0.446001,-1 1.00000002,-1 H 11.00956 V 10 C 11.009351,9.8123872 11.114177,9.6404425 11.281044,9.5546875 11.343601,9.5226815 11.410598,9.5040863 11.47831,9.5 Z" />
  <rect
     style="fill:none;fill-opacity:1;stroke:none;stroke-width:1;stroke-linecap:round;stroke-linejoin:round;stroke-opacity:0.5;paint-order:fill markers stroke;stop-color:#000000"
     id="rect20936"
     width="12"
     height="1"
     x="3.0000019"
     y="11.999998"
     rx="0.5"
     ry="0.5" />
  <path
     id="path21717"
     style="font-weight:bold;font-size:18.6667px;font-family:'Inter V';-inkscape-font-specification:'Inter V Bold';fill:#ffffff;fill-opacity:0.3;stroke-width:1;stroke-linecap:round;stroke-linejoin:round;paint-order:fill markers stroke"
     d="m 4.732321,0.94243328 c -0.718212,0 -1.251949,0.11855712 -1.7984139,0.33753942 C 2.3913453,1.4950446 2.0642832,1.7943754 1.7207907,2.1971465 1.6340749,2.2978402 1.6093324,2.4032529 1.5370452,2.5134171 1.7448173,2.3744248 1.971864,2.254791 2.2219209,2.1556683 2.768386,1.9366861 2.994966,1.8884316 3.397011,1.8272998 4.051684,1.7277558 4.736465,1.6243548 5.382674,1.7691318 5.803391,1.8633888 6.232698,2.048341 6.536198,2.3550714 6.809056,2.6308336 6.948851,3.0245637 7.052906,3.3985957 7.185485,3.8751662 7.175909,4.8776705 7.175909,4.8776705 V 9.1840808 H 8.059175 V 3.9928033 c 0,-0.5357246 0.0055,-1.0411196 -0.189003,-1.5092045 C 7.734888,2.1579806 7.495252,1.8693029 7.219265,1.6503265 6.88873,1.3880692 6.476033,1.2361803 6.07102,1.1187153 5.6387,0.99333089 5.231946,0.94243328 4.732321,0.94243328 Z M 3.138303,3.7577607 c -0.03504,0.012154 -0.06869,0.025482 -0.101783,0.03975 l 0.08626,0.00691 c 0.0046,-0.015921 0.01041,-0.065218 0.01553,-0.080847 z M 5.76389,4.5042615 c 0,0 -0.453863,0.1035698 -0.683455,0.1408579 C 4.724043,4.7030014 4.362659,4.7247634 4.0049,4.7734495 3.672375,4.8187015 3.3374,4.8532655 3.009691,4.9256465 2.7829219,4.9757334 2.5538695,5.0280241 2.340662,5.120205 2.0471952,5.2470861 1.7467127,5.3877744 1.5144559,5.6077633 1.3332316,5.7794152 1.2280687,5.9447368 1.0991971,6.2312747 1.378199,6.0688238 1.6828272,5.9639711 1.9835643,5.8527868 2.4018763,5.6981344 2.8264718,5.5562818 3.260159,5.4525013 3.672798,5.3537577 4.100473,5.3304929 4.515488,5.2423022 4.792792,5.1833754 5.100466,5.1830267 5.338959,5.0295224 5.528224,4.9077035 5.76389,4.5042615 5.76389,4.5042615 Z"
     sodipodi:nodetypes="sccccaaaacccsaaasccccccaaaaacaaaac" />
  <path
     id="path22556"
     style="font-weight:bold;font-size:18.6667px;font-family:'Inter V';-inkscape-font-specification:'Inter V Bold';fill:#ffffff;fill-opacity:0.3;stroke-width:0.999993;stroke-linecap:round;stroke-linejoin:round;paint-order:fill markers stroke"
     d="m 1.9419276,5.3609314 c -0.04311,0.024258 -0.084335,0.048863 -0.1257098,0.075109 C 1.5483203,5.6059869 1.335807,5.8302283 1.1803604,6.1091957 1.0249137,6.3881633 0.9479435,6.7332931 0.9479435,7.143728 c 0,0.4873917 0.1091432,0.8945332 0.3274302,1.2215987 0.221594,0.3238583 0.5215459,0.5687692 0.9018943,0.735509 0.3803482,0.1635331 0.8147651,0.2451709 1.30095,0.2451709 0.377041,0 0.709165,-0.046942 0.996907,-0.1431334 C 4.762867,9.1034702 5.008247,8.9664625 5.213305,8.793311 5.386026,8.6447629 5.527538,8.4760222 5.641595,8.2887994 5.513294,8.3613364 5.374639,8.4250834 5.223537,8.4772829 4.935795,8.5734789 4.60367,8.6204164 4.226629,8.6204164 c -0.486184,0 -0.91914,-0.081637 -1.2994879,-0.2451696 C 2.5467928,8.2085072 2.2453794,7.9635952 2.023785,7.6397368 1.8054983,7.3126714 1.696355,6.9055299 1.696355,6.4181383 c 0,-0.4104349 0.07697,-0.7555648 0.2324168,-1.0345323 0.00427,-0.00768 0.00879,-0.015078 0.013156,-0.022675 z"
     sodipodi:nodetypes="csssccsccccsccssc" />
  <path
     id="path25425"
     style="fill:none;fill-opacity:1;stroke:#002e99;stroke-width:0.999996;stroke-linecap:round;stroke-linejoin:round;stroke-opacity:0.5;paint-order:fill markers stroke;stop-color:#000000"
     d="m 11.47831,9.5 c 0.112852,-0.00681 0.227153,0.025416 0.322265,0.09375 l 3.5,2.5 c 0.277978,0.199505 0.277978,0.612995 0,0.8125 l -3.5,2.5 C 11.469808,15.642903 11.00991,15.406709 11.00956,15 V 13.5 H 1.5095598 c -0.55399902,0 -1.00000002,-0.446001 -1.00000002,-1 0,-0.553999 0.446001,-1 1.00000002,-1 H 11.00956 V 10 C 11.009351,9.8123872 11.114177,9.6404425 11.281044,9.5546875 11.343601,9.5226815 11.410598,9.5040863 11.47831,9.5 Z" />
</svg>
