<?xml version="1.0" encoding="UTF-8" standalone="no"?>
<!-- Created with Inkscape (http://www.inkscape.org/) -->

<svg
   xmlns:dc="http://purl.org/dc/elements/1.1/"
   xmlns:cc="http://creativecommons.org/ns#"
   xmlns:rdf="http://www.w3.org/1999/02/22-rdf-syntax-ns#"
   xmlns:svg="http://www.w3.org/2000/svg"
   xmlns="http://www.w3.org/2000/svg"
   xmlns:xlink="http://www.w3.org/1999/xlink"
   xmlns:sodipodi="http://sodipodi.sourceforge.net/DTD/sodipodi-0.dtd"
   xmlns:inkscape="http://www.inkscape.org/namespaces/inkscape"
   version="1.0"
   width="16"
   height="16"
   id="svg2485"
   inkscape:version="0.48.4 r9939"
   sodipodi:docname="help-faw.svg">
  <metadata
     id="metadata6055">
    <rdf:RDF>
      <cc:Work
         rdf:about="">
        <dc:format>image/svg+xml</dc:format>
        <dc:type
           rdf:resource="http://purl.org/dc/dcmitype/StillImage" />
        <dc:title></dc:title>
      </cc:Work>
    </rdf:RDF>
  </metadata>
  <sodipodi:namedview
     pagecolor="#ffffff"
     bordercolor="#666666"
     borderopacity="1"
     objecttolerance="10"
     gridtolerance="10"
     guidetolerance="10"
     inkscape:pageopacity="0"
     inkscape:pageshadow="2"
     inkscape:window-width="1671"
     inkscape:window-height="678"
     id="namedview6053"
     showgrid="true"
     inkscape:zoom="20.85965"
     inkscape:cx="23.40678"
     inkscape:cy="8"
     inkscape:window-x="0"
     inkscape:window-y="25"
     inkscape:window-maximized="0"
     inkscape:current-layer="svg2485"
     showguides="true"
     inkscape:guide-bbox="true">
    <inkscape:grid
       type="xygrid"
       id="grid3102" />
  </sodipodi:namedview>
  <defs
     id="defs2487">
    <linearGradient
       id="linearGradient3332-412-419">
      <stop
         id="stop2554"
         style="stop-color:#611358;stop-opacity:1"
         offset="0" />
      <stop
         id="stop2556"
         style="stop-color:#a1619b;stop-opacity:1"
         offset="1" />
    </linearGradient>
    <linearGradient
       x1="18.530535"
       y1="24.150793"
       x2="18.530535"
       y2="-0.079317272"
       id="linearGradient2443"
       xlink:href="#linearGradient3332-412-419"
       gradientUnits="userSpaceOnUse"
       gradientTransform="matrix(0.6813469,0,0,0.6990088,-0.1761629,-0.5792587)" />
    <linearGradient
       id="linearGradient3242-593-605">
      <stop
         id="stop2544"
         style="stop-color:#d196bf;stop-opacity:1"
         offset="0" />
      <stop
         id="stop2546"
         style="stop-color:#bb70b6;stop-opacity:1"
         offset="0.26238" />
      <stop
         id="stop2548"
         style="stop-color:#954a9a;stop-opacity:1"
         offset="0.66093999" />
      <stop
         id="stop2550"
         style="stop-color:#6c3b77;stop-opacity:1"
         offset="1" />
    </linearGradient>
    <radialGradient
       cx="10.571148"
       cy="0.7647422"
       r="11.508719"
       fx="10.571148"
       fy="0.7647422"
       id="radialGradient2441"
       xlink:href="#linearGradient3242-593-605"
       gradientUnits="userSpaceOnUse"
       gradientTransform="matrix(-1.2228254e-8,1.2285722,-1.0507743,-1.1007836e-8,7.830028,-12.337639)" />
    <linearGradient
       id="linearGradient4593">
      <stop
         id="stop12409"
         style="stop-color:#ffffff;stop-opacity:0.70200002"
         offset="0" />
      <stop
         id="stop12411"
         style="stop-color:#ffffff;stop-opacity:0"
         offset="1" />
    </linearGradient>
    <linearGradient
       x1="27.906723"
       y1="7.549542"
       x2="24.774496"
       y2="39.399513"
       id="linearGradient2447"
       xlink:href="#linearGradient4593"
       gradientUnits="userSpaceOnUse"
       gradientTransform="matrix(0.3475373,-3.2468312e-2,3.4177915e-2,0.3883404,-1.0654487,-0.7461617)" />
    <linearGradient
       y2="35.999912"
       x2="24.000347"
       y1="5.9997087"
       x1="24.000347"
       gradientTransform="matrix(0.33332851,0,0,0.33333107,0.31836269,31.682626)"
       gradientUnits="userSpaceOnUse"
       id="linearGradient3132"
       xlink:href="#linearGradient3134"
       inkscape:collect="always" />
    <linearGradient
       gradientTransform="matrix(0.33332851,0,0,0.33333107,0.31836269,31.682626)"
       y2="2.9999995"
       x2="18.138792"
       y1="45.21809"
       x1="18.138792"
       gradientUnits="userSpaceOnUse"
       id="linearGradient2899"
       xlink:href="#linearGradient3707-319-631-407-324-3-8"
       inkscape:collect="always" />
    <linearGradient
       id="linearGradient2867-449-88-871-390-598-476-591-434-148-57-177-3-8">
      <stop
         offset="0"
         style="stop-color:#90dbec;stop-opacity:1;"
         id="stop3750-8-9" />
      <stop
         offset="0.26238"
         style="stop-color:#55c1ec;stop-opacity:1;"
         id="stop3752-3-2" />
      <stop
         offset="0.704952"
         style="stop-color:#3689e6;stop-opacity:1;"
         id="stop3754-7-2" />
      <stop
         offset="1"
         style="stop-color:#2b63a0;stop-opacity:1;"
         id="stop3756-9-3" />
    </linearGradient>
    <radialGradient
       r="23"
       fy="4.9115634"
       fx="20.248743"
       cy="4.9115634"
       cx="20.248743"
       gradientTransform="matrix(0,0.59011715,-0.49605789,0,10.37372,20.729685)"
       gradientUnits="userSpaceOnUse"
       id="radialGradient2897"
       xlink:href="#linearGradient2867-449-88-871-390-598-476-591-434-148-57-177-3-8"
       inkscape:collect="always" />
    <linearGradient
       id="linearGradient3707-319-631-407-324-3-8">
      <stop
         offset="0"
         style="stop-color:#185f9a;stop-opacity:1;"
         id="stop3760-7-3" />
      <stop
         offset="1"
         style="stop-color:#599ec9;stop-opacity:1;"
         id="stop3762-8-4" />
    </linearGradient>
    <linearGradient
       id="linearGradient3134">
      <stop
         offset="0"
         style="stop-color:#ffffff;stop-opacity:1;"
         id="stop3136" />
      <stop
         id="stop3138"
         style="stop-color:#ffffff;stop-opacity:0.23529412;"
         offset="0.40000001" />
      <stop
         offset="0.65690064"
         style="stop-color:#ffffff;stop-opacity:0.15686275;"
         id="stop3140" />
      <stop
         offset="1"
         style="stop-color:#ffffff;stop-opacity:0.39215687;"
         id="stop3142" />
    </linearGradient>
    <linearGradient
       id="linearGradient2867-449-88-871-390-598-476-591-434-148-57-177-3-8-8">
      <stop
         offset="0"
         style="stop-color:#90dbec;stop-opacity:1;"
         id="stop3750-8-9-8" />
      <stop
         offset="0.26238"
         style="stop-color:#55c1ec;stop-opacity:1;"
         id="stop3752-3-2-4" />
      <stop
         offset="0.704952"
         style="stop-color:#3689e6;stop-opacity:1;"
         id="stop3754-7-2-4" />
      <stop
         offset="1"
         style="stop-color:#2b63a0;stop-opacity:1;"
         id="stop3756-9-3-7" />
    </linearGradient>
    <linearGradient
       id="linearGradient4011">
      <stop
         offset="0"
         style="stop-color:#ffffff;stop-opacity:1;"
         id="stop4013" />
      <stop
         id="stop4015"
         style="stop-color:#ffffff;stop-opacity:0.23529412;"
         offset="0.507761" />
      <stop
         offset="0.83456558"
         style="stop-color:#ffffff;stop-opacity:0.15686275;"
         id="stop4017" />
      <stop
         offset="1"
         style="stop-color:#ffffff;stop-opacity:0.39215687;"
         id="stop4019" />
    </linearGradient>
    <linearGradient
       id="linearGradient3707-319-631-407-324-3-8-0">
      <stop
         offset="0"
         style="stop-color:#185f9a;stop-opacity:1;"
         id="stop3760-7-3-7" />
      <stop
         offset="1"
         style="stop-color:#599ec9;stop-opacity:1;"
         id="stop3762-8-4-1" />
    </linearGradient>
    <linearGradient
       inkscape:collect="always"
       xlink:href="#linearGradient3707-319-631-407-324-3-8-0"
       id="linearGradient3092"
       gradientUnits="userSpaceOnUse"
       x1="7.4296298"
       y1="13.162963"
       x2="7.4296298"
       y2="0.12066602"
       gradientTransform="translate(-2.3226721e-7,-0.93220307)" />
    <radialGradient
       inkscape:collect="always"
       xlink:href="#linearGradient8838-561-565"
       id="radialGradient6953"
       gradientUnits="userSpaceOnUse"
       gradientTransform="matrix(2.1647059,0,0,0.7529402,-111.56471,34.517647)"
       cx="62.625"
       cy="4.625"
       fx="62.625"
       fy="4.625"
       r="10.625" />
    <linearGradient
       id="linearGradient8838-561-565">
      <stop
         offset="0"
         style="stop-color:#0a0a0a;stop-opacity:1"
         id="stop4621" />
      <stop
         offset="1"
         style="stop-color:#0a0a0a;stop-opacity:0"
         id="stop4623" />
    </linearGradient>
    <linearGradient
       id="linearGradient3600-8-3">
      <stop
         offset="0"
         style="stop-color:#f4f4f4;stop-opacity:1"
         id="stop3828-7-6" />
      <stop
         offset="1"
         style="stop-color:#dbdbdb;stop-opacity:1"
         id="stop3604-2-5" />
    </linearGradient>
    <linearGradient
       inkscape:collect="always"
       xlink:href="#linearGradient3600-8-3"
       id="linearGradient6654-1"
       gradientUnits="userSpaceOnUse"
       gradientTransform="matrix(0.43751048,2.65089e-4,-2.6637648e-4,0.43539595,46.160383,-6.904762)"
       x1="-60.960796"
       y1="28.233982"
       x2="-60.914154"
       y2="104.84189" />
    <linearGradient
       id="linearGradient3104-8-8-97-9">
      <stop
         id="stop3106-5-4-3-6"
         style="stop-color:#000000;stop-opacity:0.32173914;"
         offset="0" />
      <stop
         id="stop3108-4-3-7-0"
         style="stop-color:#000000;stop-opacity:0.27826086;"
         offset="1" />
    </linearGradient>
    <linearGradient
       y2="3.6336823"
       x2="-51.786404"
       y1="53.514328"
       x1="-51.786404"
       gradientTransform="matrix(0.80749834,0,0,0.83374395,59.410297,-0.3364531)"
       gradientUnits="userSpaceOnUse"
       id="linearGradient3394-3"
       xlink:href="#linearGradient3104-8-8-97-9"
       inkscape:collect="always" />
    <linearGradient
       id="linearGradient6786">
      <stop
         offset="0"
         style="stop-color:#ffffff;stop-opacity:1;"
         id="stop6788" />
      <stop
         id="stop6790"
         style="stop-color:#ffffff;stop-opacity:0.23529412;"
         offset="0.46352294" />
      <stop
         offset="0.76175833"
         style="stop-color:#ffffff;stop-opacity:0.15686275;"
         id="stop6792" />
      <stop
         offset="1"
         style="stop-color:#ffffff;stop-opacity:0.39215687;"
         id="stop6794" />
    </linearGradient>
    <linearGradient
       y2="33.33271"
       x2="132.3414"
       y1="2.2922528"
       x1="132.3414"
       gradientTransform="matrix(0.89189031,0,0,1.0580283,-94.605571,3.1181196)"
       gradientUnits="userSpaceOnUse"
       id="linearGradient6784"
       xlink:href="#linearGradient6786"
       inkscape:collect="always" />
    <linearGradient
       gradientTransform="translate(-0.2938755,2.5949995)"
       y2="30.98424"
       x2="22.642942"
       y1="26.966721"
       x1="22.642942"
       gradientUnits="userSpaceOnUse"
       id="linearGradient6886"
       xlink:href="#linearGradient3922"
       inkscape:collect="always" />
    <linearGradient
       inkscape:collect="always"
       id="linearGradient3922">
      <stop
         style="stop-color:#000000;stop-opacity:1;"
         offset="0"
         id="stop3924" />
      <stop
         style="stop-color:#000000;stop-opacity:0;"
         offset="1"
         id="stop3926-9" />
    </linearGradient>
    <linearGradient
       gradientTransform="translate(-0.2938755,2.5949995)"
       y2="30.98424"
       x2="22.642942"
       y1="26.966721"
       x1="22.642942"
       gradientUnits="userSpaceOnUse"
       id="linearGradient6883"
       xlink:href="#linearGradient3922"
       inkscape:collect="always" />
    <linearGradient
       inkscape:collect="always"
       xlink:href="#linearGradient6786"
       id="linearGradient3192"
       gradientUnits="userSpaceOnUse"
       gradientTransform="matrix(0.33332851,0,0,0.33333107,-0.00157595,0.346385)"
       x1="24.000347"
       y1="5.9997087"
       x2="24.000347"
       y2="35.999912" />
    <radialGradient
       inkscape:collect="always"
       xlink:href="#linearGradient3600-8-3"
       id="radialGradient3195"
       gradientUnits="userSpaceOnUse"
       gradientTransform="matrix(0,0.59011715,-0.49605789,0,10.053781,-10.606556)"
       cx="20.248743"
       cy="4.9115634"
       fx="20.248743"
       fy="4.9115634"
       r="23" />
    <linearGradient
       inkscape:collect="always"
       xlink:href="#linearGradient3104-8-8-97-9"
       id="linearGradient3197"
       gradientUnits="userSpaceOnUse"
       gradientTransform="matrix(0.33332851,0,0,0.33333107,-0.00157595,0.346385)"
       x1="18.138792"
       y1="45.21809"
       x2="18.138792"
       y2="2.9999995" />
    <linearGradient
       inkscape:collect="always"
       xlink:href="#linearGradient3922"
       id="linearGradient3200"
       gradientUnits="userSpaceOnUse"
       gradientTransform="translate(20.045117,-18.160624)"
       x1="22.642942"
       y1="26.966721"
       x2="22.642942"
       y2="30.98424" />
    <linearGradient
       inkscape:collect="always"
       xlink:href="#linearGradient3922"
       id="linearGradient3203"
       gradientUnits="userSpaceOnUse"
       gradientTransform="translate(20.045117,-18.160624)"
       x1="22.642942"
       y1="26.966721"
       x2="22.642942"
       y2="30.98424" />
    <linearGradient
       inkscape:collect="always"
       xlink:href="#linearGradient6786"
       id="linearGradient3208"
       gradientUnits="userSpaceOnUse"
       gradientTransform="matrix(0.89189031,0,0,1.0580283,-74.266578,-17.637504)"
       x1="132.3414"
       y1="2.2922528"
       x2="132.3414"
       y2="33.33271" />
    <linearGradient
       inkscape:collect="always"
       xlink:href="#linearGradient3104-8-8-97-9"
       id="linearGradient3211"
       gradientUnits="userSpaceOnUse"
       gradientTransform="matrix(0.80749834,0,0,0.83374395,79.74929,-21.092077)"
       x1="-51.786404"
       y1="53.514328"
       x2="-51.786404"
       y2="3.6336823" />
    <linearGradient
       inkscape:collect="always"
       xlink:href="#linearGradient3600-8-3"
       id="linearGradient3214"
       gradientUnits="userSpaceOnUse"
       gradientTransform="matrix(0.43751048,2.65089e-4,-2.6637648e-4,0.43539595,66.499376,-27.660386)"
       x1="-60.960796"
       y1="28.233982"
       x2="-60.914154"
       y2="104.84189" />
    <radialGradient
       inkscape:collect="always"
       xlink:href="#linearGradient8838-561-565"
       id="radialGradient3217"
       gradientUnits="userSpaceOnUse"
       gradientTransform="matrix(2.1647059,0,0,0.7529402,-91.225717,13.762023)"
       cx="62.625"
       cy="4.625"
       fx="62.625"
       fy="4.625"
       r="10.625" />
  </defs>
  <path
     inkscape:connector-curvature="0"
     style="fill:url(#radialGradient3195);fill-opacity:1.0;fill-rule:evenodd;stroke:url(#linearGradient3197);stroke-width:0.99525028000000004;stroke-linecap:butt;stroke-linejoin:round;stroke-miterlimit:4;stroke-opacity:1;stroke-dasharray:none;stroke-dashoffset:0;marker:none;visibility:visible;display:inline;overflow:visible"
     id="path6145"
     d="M 6.9358837,1.607491 C 3.0966124,2.173525 0.25578406,4.818788 0.51390493,7.682908 0.66366298,9.34463 1.8219858,10.742946 3.5255255,11.595185 l -0.070803,2.945136 c 0,0 -0.07314,0.250045 0.031844,0.338376 0.1049824,0.08833 0.3578334,-0.09892 0.3578334,-0.09892 l 3.2050617,-2.317991 0.025987,-0.0024 c 0.4638886,0.02217 0.9299296,0.02952 1.4135472,-0.0146 C 12.615861,12.068278 15.753516,9.322189 15.482698,6.317211 15.211884,3.312234 11.634476,1.178789 7.5076098,1.555301 7.3141633,1.572947 7.1247024,1.579626 6.9358851,1.607469 z"
     sodipodi:nodetypes="cscczcccssssc" />
  <path
     style="opacity:1;color:#000000;fill:none;stroke:url(#linearGradient3192);stroke-width:0.99525028000000004;stroke-linecap:butt;stroke-linejoin:miter;stroke-miterlimit:4;stroke-opacity:1;stroke-dasharray:none;stroke-dashoffset:0;marker:none;visibility:visible;display:inline;overflow:visible;enable-background:accumulate"
     d="M 7.5863114,2.538759 C 5.8165575,2.640405 4.0612094,3.36719 2.7764832,4.595693 1.759986,5.538432 1.1397304,7.057933 1.6750473,8.408547 c 0.4060318,1.134964 1.4235806,1.883938 2.4502415,2.423598 0.5340587,0.414893 0.3237845,1.124799 0.3488517,1.702989 0.033084,0.162427 -0.087868,0.618461 0.048188,0.584612 0.7126104,-0.508328 1.4165032,-1.032451 2.1332708,-1.532064 0.5500546,-0.232161 1.1654865,-0.01049 1.7432119,-0.111423 C 10.540611,11.271964 12.761397,10.341474 13.983374,8.495467 14.752962,7.37088 14.712349,5.775914 13.838183,4.719644 12.519679,3.083812 10.312297,2.47323 8.2808452,2.501033 c -0.2318713,0.004 -0.4635889,0.01666 -0.6945338,0.03773 z"
     id="path3127"
     inkscape:connector-curvature="0"
     sodipodi:nodetypes="cccccccccccc" />
  <path
     d="M 8.2845118,7.8883167 C 8.2638618,7.1323034 8.4290043,6.3983751 9.1254084,5.8785066 9.8609902,5.2905677 10.569414,4.5549769 10.494549,3.6878811 10.478199,2.8516461 9.5282226,2.1963648 8.5046893,2.1021468 7.353381,1.938561 5.9603064,2.3430875 5.5745104,3.265269 c -0.195667,0.4485174 -0.01422,1.2532102 0.642437,1.2532102 0.3840778,0 0.560487,-0.254466 0.5894686,-0.4872429 C 6.828341,3.8551105 6.757841,3.697831 6.716208,3.55235 6.668766,3.3865834 6.8712872,3.065309 7.0918597,2.9344107 7.2761722,2.8250274 7.4690105,2.7883496 7.4974363,2.7813432 8.1593563,2.6181876 8.8191954,2.9785757 9.0944921,3.4172132 9.3697887,3.8558498 9.0667671,4.521176 8.6310996,5.1681801 8.1954288,5.8151851 7.7278763,6.55005 7.7297446,7.3305967 c 0,0.2971551 -0.025817,0.3981051 -0.0075,0.5183267 0.014658,0.096053 0.3247584,0.084445 0.5622408,0.039392 z M 7.9824327,8.9058697 C 7.3495319,8.8706277 6.9114769,9.6065093 7.2916927,10.075365 7.6312427,10.593029 8.5832626,10.465239 8.7464385,9.8790373 8.9160826,9.4231913 8.5078318,8.8982605 7.9824327,8.9058689 l 0,8e-7 z"
     id="path3991"
     style="font-size:72px;font-style:normal;font-weight:bold;fill:#ffffff;fill-opacity:1;stroke:none;font-family:Standard Symbols L"
     inkscape:connector-curvature="0" />
  <path
     inkscape:connector-curvature="0"
     style="font-size:72px;font-style:normal;font-weight:bold;opacity:0.59905659;fill:#000000;fill-opacity:1;stroke:none;font-family:Standard Symbols L"
     id="path3298"
     d="M 8.2845118,8.4883174 C 8.2638618,7.7323041 8.4290043,6.9983758 9.1254084,6.4785073 9.8609902,5.8905684 10.569414,5.1549776 10.494549,4.2878818 10.478199,3.4516468 9.5282226,2.7963655 8.5046893,2.7021475 7.353381,2.5385617 5.9603064,2.9430882 5.5745104,3.8652697 c -0.195667,0.4485174 -0.01422,1.2532102 0.642437,1.2532102 0.3840778,0 0.560487,-0.254466 0.5894686,-0.4872429 C 6.828341,4.4551112 6.757841,4.2978317 6.716208,4.1523507 6.668766,3.9865841 6.8712872,3.6653097 7.0918597,3.5344114 7.2761722,3.4250281 7.4690105,3.3883503 7.4974363,3.3813439 c 0.66192,-0.1631556 1.3217591,0.1972325 1.5970558,0.63587 0.2752966,0.4386366 -0.027725,1.1039628 -0.4633925,1.7509669 -0.4356708,0.647005 -0.9032233,1.3818699 -0.901355,2.1624166 0,0.2971551 -0.025817,0.3981051 -0.0075,0.5183267 0.014658,0.096053 0.3247584,0.084445 0.5622408,0.039392 z M 7.9824327,9.5058704 C 7.3495319,9.4706284 6.9114769,10.20651 7.2916927,10.675366 7.6312427,11.193029 8.5832626,11.065239 8.7464385,10.479038 8.9160826,10.023192 8.5078318,9.4982612 7.9824327,9.5058696 l 0,8e-7 z" />
  <path
     inkscape:connector-curvature="0"
     style="opacity:0.2;fill:url(#radialGradient3217);fill-opacity:1;fill-rule:evenodd;stroke:none;stroke-width:0.99999988;marker:none;visibility:visible;display:inline;overflow:visible"
     id="path8836"
     d="m 67.338983,17.244376 c 0,4.418278 -10.29745,8 -23,8 -12.70255,0 -23,-3.581722 -23,-8 0,-4.418278 10.29745,-8 23,-8 12.70255,0 23,3.581722 23,8 l 0,0 z" />
  <path
     style="color:#000000;fill:url(#linearGradient3214);fill-opacity:1;fill-rule:nonzero;stroke:none;stroke-width:0.98542732;marker:none;visibility:visible;display:inline;overflow:visible;enable-background:accumulate"
     d="m 44.307888,-15.742523 c -7.376677,0.275226 -15.059923,3.637869 -18.961918,10.16026 -2.913726,4.663635 -2.613685,11.049914 0.831802,15.356816 1.244778,1.726207 2.953728,3.041003 4.644012,4.276023 0.79625,2.494722 -0.942284,4.881171 -2.402747,6.759819 0.933772,0.381889 3.536922,-0.52824 5.041101,-1.104402 1.804057,-0.683727 3.449549,-1.735641 5.100049,-2.691806 8.324488,1.587231 17.732495,-0.910817 23.282092,-7.556259 3.573759,-4.116438 4.647039,-10.373032 2.046942,-15.265413 -3.28776,-6.374818 -10.572652,-9.637624 -17.486628,-9.918009 -0.697712,-0.02875 -1.396661,-0.04169 -2.094705,-0.01703 z"
     id="path6603"
     inkscape:connector-curvature="0" />
  <path
     inkscape:connector-curvature="0"
     style="color:#000000;fill:none;stroke:url(#linearGradient3211);stroke-width:0.99992168;stroke-linecap:butt;stroke-linejoin:round;stroke-miterlimit:4;stroke-opacity:1;stroke-dasharray:none;stroke-dashoffset:0;marker:none;visibility:visible;display:inline;overflow:visible;enable-background:accumulate"
     d="m 44.282281,-16.188752 c -0.548777,0.02083 -1.089496,0.06159 -1.644714,0.11369 -11.844958,1.111356 -20.681806,9.631078 -19.736575,18.985126 0.471882,4.669741 3.306144,8.667634 7.486287,11.368337 l 0,0.113694 c 0,0 1.300746,2.200631 -3.119286,7.105211 0,0 4.786795,0.298017 11.286144,-4.035759 2.375957,0.454105 4.883383,0.585264 7.486286,0.341051 11.844976,-1.11135 20.681789,-9.574234 19.736573,-18.928286 -0.856611,-8.477105 -9.429707,-14.786741 -19.85,-15.063047 -0.538977,-0.01437 -1.095957,-0.02082 -1.644715,0 z"
     id="path4111-6"
     sodipodi:nodetypes="sssccccsscs" />
  <path
     style="color:#000000;fill:none;stroke:url(#linearGradient3208);stroke-width:1.00000012;stroke-linecap:round;stroke-linejoin:miter;stroke-miterlimit:4;stroke-opacity:1;stroke-dasharray:none;stroke-dashoffset:0;marker:none;visibility:visible;display:inline;overflow:visible;enable-background:accumulate"
     d="m 44.307743,-15.193124 c -7.197567,0.287097 -14.690113,3.520764 -18.517697,9.870373 -2.821116,4.476786 -2.544117,10.618953 0.773591,14.763293 1.225735,1.798425 3.09854,2.987858 4.711352,4.353929 0.96352,2.283505 -0.504078,4.594178 -1.779746,6.418655 3.190523,-0.439229 6.073426,-2.057483 8.771796,-3.723483 1.616151,0.02179 3.247226,0.492268 4.891123,0.427047 7.470476,0.1032 15.390909,-3.040369 19.538078,-9.497143 2.955103,-4.429899 2.834288,-10.622311 -0.407873,-14.869259 -4.072539,-5.561017 -11.286678,-7.971208 -17.980624,-7.743412 z"
     id="path6779"
     inkscape:connector-curvature="0" />
  <path
     inkscape:connector-curvature="0"
     style="font-size:62.4582634px;font-style:normal;font-variant:normal;font-weight:normal;font-stretch:normal;text-align:start;line-height:125%;writing-mode:lr-tb;text-anchor:start;fill:#ffffff;fill-opacity:1;stroke:none;font-family:Georgia"
     id="path3393-4"
     d="m 43.201367,-9.230296 c -1.080196,-0.15475 -2.188854,0.663144 -2.21875,1.53125 3.77e-4,0.01041 3.77e-4,0.02084 0,0.03125 -0.0057,0.07077 0.01443,0.167938 0.03125,0.3125 0.0017,0.01433 -0.0017,0.01593 0,0.03125 0.975774,4.60556 1.308276,9.227519 2.28125,13.750001 0.589907,-0.06306 1.506475,-0.183989 2.125,-0.25 -0.134035,-4.462899 -0.540078,-8.896519 -0.59375,-13.406251 -3.77e-4,-0.01041 -3.77e-4,-0.02084 0,-0.03125 0.08822,-0.87813 -0.502805,-1.869803 -1.59375,-1.96875 -0.01041,3.77e-4 -0.02084,3.77e-4 -0.03125,0 l 0,0 z m 2.03125,18.968751 c -0.615904,-0.06343 -1.224953,0.100268 -1.625,0.5625 3.77e-4,0.01041 3.77e-4,0.02084 0,0.03125 -0.429279,0.446165 -0.675933,1.087768 -0.59375,1.6875 3.77e-4,0.01041 3.77e-4,0.02084 0,0.03125 0.09952,1.303162 1.692621,2.164395 2.84375,1.625 0.01041,-3.77e-4 0.02084,-3.77e-4 0.03125,0 1.12122,-0.423893 1.592908,-2.036611 0.875,-3.03125 -0.01094,-0.0099 -0.02137,-0.02031 -0.03125,-0.03125 -0.329188,-0.517953 -0.889274,-0.8121 -1.5,-0.875 z" />
  <path
     inkscape:connector-curvature="0"
     style="font-size:62.4582634px;font-style:normal;font-variant:normal;font-weight:normal;font-stretch:normal;text-align:start;line-height:125%;writing-mode:lr-tb;text-anchor:start;fill:#808080;fill-opacity:1;stroke:none;font-family:Georgia"
     id="path3393"
     d="m 43.201367,-10.230295 c -1.080196,-0.15475 -2.188854,0.663144 -2.21875,1.531249 3.77e-4,0.01041 3.77e-4,0.02084 0,0.03125 -0.0057,0.07077 0.01443,0.167938 0.03125,0.3125 0.0017,0.01433 -0.0017,0.01593 0,0.03125 0.975774,4.60556 1.308276,9.227519 2.28125,13.750001 0.589907,-0.06306 1.506475,-0.183989 2.125,-0.25 -0.134035,-4.462899 -0.540078,-8.896519 -0.59375,-13.406251 -3.77e-4,-0.01041 -3.77e-4,-0.02084 0,-0.03125 0.08822,-0.87813 -0.502805,-1.869802 -1.59375,-1.968749 -0.01041,3.77e-4 -0.02084,3.77e-4 -0.03125,0 l 0,0 z m 2.03125,18.96875 c -0.615904,-0.06343 -1.224953,0.100268 -1.625,0.5625 3.77e-4,0.01041 3.77e-4,0.02084 0,0.03125 -0.429279,0.446165 -0.675933,1.087768 -0.59375,1.6875 3.77e-4,0.01041 3.77e-4,0.02084 0,0.03125 0.09952,1.303162 1.692621,2.164395 2.84375,1.625 0.01041,-3.77e-4 0.02084,-3.77e-4 0.03125,0 1.12122,-0.423893 1.592908,-2.036611 0.875,-3.03125 -0.01094,-0.0099 -0.02137,-0.02031 -0.03125,-0.03125 -0.329188,-0.517953 -0.889274,-0.8121 -1.5,-0.875 z" />
  <path
     inkscape:connector-curvature="0"
     style="font-size:62.4582634px;font-style:normal;font-variant:normal;font-weight:normal;font-stretch:normal;text-align:start;line-height:125%;writing-mode:lr-tb;text-anchor:start;opacity:0.07000002;fill:#ffffff;fill-opacity:1;stroke:url(#linearGradient3203);stroke-opacity:1;font-family:Georgia"
     d="m 43.138867,-9.785624 c -0.713132,-0.08893 -1.711975,0.385467 -1.708867,1.188291 0.474138,2.470178 0.879526,4.957373 1.225879,7.450558 0.29642,2.033158 0.598393,4.067058 1.014238,6.079901 0.645642,-0.07914 1.575337,0.09228 1.255761,-0.831952 -0.171257,-4.253631 -0.501197,-8.503791 -0.55021,-12.760297 -0.08796,-0.604773 -0.608705,-1.128815 -1.236801,-1.126501 z"
     id="path3935" />
  <path
     inkscape:connector-curvature="0"
     style="font-size:62.4582634px;font-style:normal;font-variant:normal;font-weight:normal;font-stretch:normal;text-align:start;line-height:125%;writing-mode:lr-tb;text-anchor:start;opacity:0.1;fill:#ffffff;fill-opacity:1;stroke:url(#linearGradient3200);stroke-opacity:1;font-family:Georgia"
     d="m 45.201367,9.183126 c -1.371731,-0.273035 -2.335032,1.678945 -1.373371,2.639862 0.693047,0.800556 2.21012,0.772905 2.640622,-0.283 0.528505,-0.916854 -0.05593,-2.140086 -1.084537,-2.328599 l -0.182714,-0.02826 z"
     id="path3920" />
</svg>
