<?xml version="1.0" encoding="UTF-8" standalone="no"?>
<svg
   id="svg3295"
   height="16"
   width="16"
   version="1.0"
   sodipodi:docname="insert-text.svg"
   inkscape:version="1.2.2 (b0a8486541, 2022-12-01)"
   xmlns:inkscape="http://www.inkscape.org/namespaces/inkscape"
   xmlns:sodipodi="http://sodipodi.sourceforge.net/DTD/sodipodi-0.dtd"
   xmlns:xlink="http://www.w3.org/1999/xlink"
   xmlns="http://www.w3.org/2000/svg"
   xmlns:svg="http://www.w3.org/2000/svg"
   xmlns:rdf="http://www.w3.org/1999/02/22-rdf-syntax-ns#"
   xmlns:cc="http://creativecommons.org/ns#"
   xmlns:dc="http://purl.org/dc/elements/1.1/">
  <sodipodi:namedview
     id="namedview245"
     pagecolor="#ffffff"
     bordercolor="#666666"
     borderopacity="1.0"
     inkscape:showpageshadow="2"
     inkscape:pageopacity="0.0"
     inkscape:pagecheckerboard="0"
     inkscape:deskcolor="#d1d1d1"
     showgrid="false"
     inkscape:zoom="64"
     inkscape:cx="9.9140625"
     inkscape:cy="14.203125"
     inkscape:window-width="1419"
     inkscape:window-height="923"
     inkscape:window-x="519"
     inkscape:window-y="81"
     inkscape:window-maximized="0"
     inkscape:current-layer="svg3295" />
  <metadata
     id="metadata712">
    <rdf:RDF>
      <cc:Work
         rdf:about="">
        <dc:format>image/svg+xml</dc:format>
        <dc:type
           rdf:resource="http://purl.org/dc/dcmitype/StillImage" />
      </cc:Work>
    </rdf:RDF>
  </metadata>
  <defs
     id="defs3297">
    <linearGradient
       id="linearGradient3269">
      <stop
         id="stop3271"
         offset="0"
         style="stop-color:#fecb81;stop-opacity:1" />
      <stop
         id="stop3273"
         offset="1"
         style="stop-color:#fcaf3e;stop-opacity:1" />
    </linearGradient>
    <linearGradient
       id="linearGradient3284"
       inkscape:collect="always">
      <stop
         id="stop3286"
         offset="0"
         style="stop-color:#f37329;stop-opacity:1" />
      <stop
         id="stop3288"
         offset="1"
         style="stop-color:#cc3b02;stop-opacity:0.5;" />
    </linearGradient>
    <linearGradient
       id="linearGradient3276"
       inkscape:collect="always">
      <stop
         id="stop3278"
         offset="0"
         style="stop-color:white;stop-opacity:1;" />
      <stop
         id="stop3280"
         offset="1"
         style="stop-color:white;stop-opacity:0;" />
    </linearGradient>
    <linearGradient
       gradientUnits="userSpaceOnUse"
       id="linearGradient3847"
       inkscape:collect="always"
       x1="19.080769"
       x2="19.080769"
       xlink:href="#linearGradient3284"
       y1="36.23061"
       y2="44.725254"
       gradientTransform="matrix(0.52780548,0,0,0.55885883,-2.667451,-9.35433)" />
    <linearGradient
       gradientUnits="userSpaceOnUse"
       id="linearGradient3849"
       inkscape:collect="always"
       x1="18.875"
       x2="18.875"
       xlink:href="#linearGradient3276"
       y1="36.159504"
       y2="37.916344"
       gradientTransform="matrix(0.53771131,0,0,0.61569143,-2.9197231,-10.237736)" />
  </defs>
  <rect
     height="10"
     id="rect51-0"
     rx="1.5"
     ry="1.5"
     style="fill:#fafafa;fill-opacity:1;stroke:none;stroke-width:1;stroke-linecap:round;stroke-linejoin:miter;stroke-miterlimit:4;stroke-dasharray:none;stroke-dashoffset:1.4;stroke-opacity:1"
     width="14"
     x="1"
     y="2" />
  <rect
     height="8.9889708"
     id="rect55-3"
     rx="1"
     ry="1"
     style="fill:none;fill-opacity:1;stroke:#ffffff;stroke-width:1.01103;stroke-linecap:round;stroke-linejoin:round;stroke-miterlimit:4;stroke-dasharray:none;stroke-dashoffset:1.4;stroke-opacity:1"
     width="12.98897"
     x="1.505515"
     y="2.5055151" />
  <path
     style="font-style:normal;font-weight:bold;font-size:17.5006px;font-family:'Bitstream Vera Sans';fill:#2e3436;fill-opacity:1;stroke:none;stroke-width:1px;stroke-linecap:butt;stroke-linejoin:miter;stroke-opacity:1"
     d="m 13.99976,5.2108817 2.39e-4,0.9931976 c -0.147615,-0.1133761 -0.296475,-0.197276 -0.446108,-0.2517002 -0.147616,-0.054418 -0.349785,-0.08163 -0.509524,-0.081634 -0.303315,3.9e-6 -0.567127,0.099777 -0.736983,0.2993198 -0.167835,0.1972807 -0.251751,0.4739259 -0.251751,0.8299322 0,0.3560108 0.08392,0.6337882 0.251751,0.8333322 0.169856,0.1972805 0.433668,0.2959205 0.736983,0.2959199 0.16985,6e-7 0.379098,-0.028343 0.530757,-0.085034 0.153674,-0.056688 0.295223,-0.140589 0.424636,-0.2517014 v 0.996599 c -0.169857,0.070295 -0.342747,0.1224487 -0.518663,0.1564628 -0.173902,0.036281 -0.348812,0.054424 -0.524731,0.054424 -0.612693,0 -1.091928,-0.1757375 -1.437704,-0.5272123 C 11.172887,8.1190481 11,7.6281188 11,6.9999993 11,6.3718837 11.172887,5.8820891 11.518662,5.5306117 11.864438,5.1768739 12.343673,5.0000032 12.956366,5 c 0.17794,3.2e-6 0.352852,0.018144 0.524731,0.054422 0.173894,0.034016 0.346784,0.086172 0.518663,0.1564616"
     id="path8891"
     sodipodi:nodetypes="cccccscsccccscscccc" />
  <path
     id="path8889"
     style="font-style:normal;font-weight:bold;font-size:17.5006px;font-family:'Bitstream Vera Sans';fill:#2e3436;fill-opacity:1;stroke:none;stroke-width:1px;stroke-linecap:butt;stroke-linejoin:miter;stroke-opacity:1"
     d="M 7,4 V 9.0019531 H 8.0004042 V 8.4609375 C 8.121464,8.6840082 8.3356366,8.8570225 8.5720368,8.9125766 8.9219642,8.9948097 9.3634009,8.9348726 9.6273859,8.6908985 10.060021,8.291058 10.152511,7.5933442 10.125621,6.9952644 10.107064,6.4722709 10.003122,5.915088 9.6504658,5.5094747 9.452939,5.2873804 9.2176863,5.2323128 8.9378936,5.2375501 c -0.2473202,0 -0.3962369,0.055726 -0.5732657,0.1418075 C 8.2261296,5.4467034 8.0890801,5.5749285 8.0004042,5.6636044 V 4 Z M 8.6037188,6.0309688 C 8.8695091,6.0011209 9.072761,6.2310582 9.1348062,6.4687286 9.2463821,6.8591932 9.2424921,7.2795274 9.1662938,7.6762696 9.1164539,7.9251328 8.960796,8.2171044 8.6742844,8.2274187 8.4023498,8.2512356 8.1450752,8.0534444 8.084811,7.7892397 7.9740761,7.4000233 7.9765163,6.9811332 8.0533219,6.5857665 8.1025402,6.3030584 8.2965402,6.0432007 8.6037188,6.0309688 Z"
     sodipodi:nodetypes="ccccaacccacccssccccs" />
  <path
     id="path8775"
     style="font-style:normal;font-weight:bold;font-size:17.5006px;font-family:'Bitstream Vera Sans';fill:#2e3436;fill-opacity:1;stroke:none;stroke-width:1px;stroke-linecap:butt;stroke-linejoin:miter;stroke-opacity:1"
     d="M 3.5566406,4 2,9 H 3.0898438 L 3.3574219,8 h 1.6933594 l 0.265625,1 H 6.4042969 L 4.8476563,4 Z M 4.203125,5.171875 4.7773438,7 H 3.6269532 Z"
     sodipodi:nodetypes="ccccccccccccc" />
  <rect
     height="11"
     id="rect8856"
     rx="2"
     ry="2"
     style="fill:none;fill-opacity:1;stroke:#000000;stroke-width:1;stroke-linecap:round;stroke-linejoin:miter;stroke-miterlimit:4;stroke-dasharray:none;stroke-dashoffset:1.4;stroke-opacity:0.34"
     width="15"
     x="0.5"
     y="1.5" />
  <path
     d="M 5.4999363,10.499999 H 14.500046 L 9.9998847,15.500022 Z"
     id="path3815"
     sodipodi:nodetypes="cccc"
     style="color:#000000;display:inline;overflow:visible;visibility:visible;fill:#ffa154;fill-opacity:1;fill-rule:nonzero;stroke:url(#linearGradient3847);stroke-width:0.999997;stroke-linecap:round;stroke-linejoin:round;stroke-miterlimit:4;stroke-dasharray:none;stroke-dashoffset:1.4;stroke-opacity:1;marker:none;marker-start:none;marker-mid:none;marker-end:none" />
  <path
     style="color:#000000;opacity:0.7;fill:url(#linearGradient3849);stroke-width:1;stroke-linecap:round;stroke-dasharray:none;stroke-dashoffset:1.4"
     d="M 6.6286994,11 9.9884961,14.746951 13.348292,11 Z m 2.7489248,1.338198 h 1.2217438 l -0.6108719,0.736164 z"
     id="path3817"
     sodipodi:nodetypes="cccccccc" />
</svg>
