<?xml version="1.0" encoding="UTF-8" standalone="no"?>
<svg
   version="1.1"
   width="16"
   height="16"
   id="svg4248"
   sodipodi:docname="system-switch-user.svg"
   inkscape:version="1.2.2 (b0a8486541, 2022-12-01)"
   xmlns:inkscape="http://www.inkscape.org/namespaces/inkscape"
   xmlns:sodipodi="http://sodipodi.sourceforge.net/DTD/sodipodi-0.dtd"
   xmlns:xlink="http://www.w3.org/1999/xlink"
   xmlns="http://www.w3.org/2000/svg"
   xmlns:svg="http://www.w3.org/2000/svg"
   xmlns:rdf="http://www.w3.org/1999/02/22-rdf-syntax-ns#"
   xmlns:cc="http://creativecommons.org/ns#"
   xmlns:dc="http://purl.org/dc/elements/1.1/">
  <sodipodi:namedview
     pagecolor="#ffffff"
     bordercolor="#666666"
     borderopacity="1"
     objecttolerance="10"
     gridtolerance="10"
     guidetolerance="10"
     inkscape:pageopacity="0"
     inkscape:pageshadow="2"
     inkscape:window-width="1396"
     inkscape:window-height="859"
     id="namedview29"
     showgrid="false"
     inkscape:zoom="12.390625"
     inkscape:cx="19.006305"
     inkscape:cy="21.064313"
     inkscape:window-x="756"
     inkscape:window-y="119"
     inkscape:window-maximized="0"
     inkscape:current-layer="svg4248"
     inkscape:pagecheckerboard="0"
     inkscape:showpageshadow="2"
     inkscape:deskcolor="#d1d1d1" />
  <defs
     id="defs4250">
    <linearGradient
       id="linearGradient4011-4">
      <stop
         id="stop4013-8"
         style="stop-color:#ffffff;stop-opacity:1"
         offset="0" />
      <stop
         id="stop4015-5"
         style="stop-color:#ffffff;stop-opacity:0.23529412"
         offset="0.507761" />
      <stop
         id="stop4017-6"
         style="stop-color:#ffffff;stop-opacity:0.15686275"
         offset="0.83456558" />
      <stop
         id="stop4019-1"
         style="stop-color:#ffffff;stop-opacity:0.39215687"
         offset="1" />
    </linearGradient>
    <linearGradient
       gradientTransform="matrix(0.3513514,0,0,0.35135134,-17.203671,-0.90930007)"
       gradientUnits="userSpaceOnUse"
       xlink:href="#linearGradient4011-4"
       id="linearGradient3019"
       y2="44.340794"
       x2="71.204407"
       y1="6.2375584"
       x1="71.204407" />
    <linearGradient
       gradientTransform="matrix(0,0.36585366,-0.36585366,0,16.780487,-0.78048733)"
       gradientUnits="userSpaceOnUse"
       y2="23.999998"
       x2="81.658852"
       y1="23.999998"
       x1="-1.5996079"
       id="linearGradient887"
       xlink:href="#linearGradient947-5" />
    <linearGradient
       id="linearGradient947-5">
      <stop
         offset="0"
         style="stop-color:#9bdb4d;stop-opacity:1"
         id="stop943-6" />
      <stop
         offset="1"
         style="stop-color:#3a9104;stop-opacity:1"
         id="stop945-2" />
    </linearGradient>
  </defs>
  <metadata
     id="metadata4253">
    <rdf:RDF>
      <cc:Work
         rdf:about="">
        <dc:format>image/svg+xml</dc:format>
        <dc:type
           rdf:resource="http://purl.org/dc/dcmitype/StillImage" />
      </cc:Work>
    </rdf:RDF>
  </metadata>
  <path
     style="color:#000000;display:inline;overflow:visible;visibility:visible;fill:url(#linearGradient887);fill-opacity:1;fill-rule:nonzero;stroke:none;stroke-width:1;marker:none;enable-background:accumulate;stroke-dasharray:none"
     id="path2555-3"
     d="m 15.5,8.0000013 c 0,-4.1382414 -3.361758,-7.50000173 -7.4999999,-7.50000173 -4.1382408,0 -7.50000135,3.36176033 -7.50000035,7.50000173 0,4.1382387 3.36175955,7.5000027 7.50000035,7.4999987 C 12.138242,15.5 15.5,12.13824 15.5,8.0000013 Z" />
  <path
     style="color:#000000;display:inline;overflow:visible;visibility:visible;opacity:0.5;fill:none;stroke:url(#linearGradient3019);stroke-width:0.999996;stroke-linecap:round;stroke-linejoin:round;stroke-miterlimit:4;stroke-dasharray:none;stroke-dashoffset:0;stroke-opacity:1;marker:none;enable-background:accumulate"
     id="path8655-6"
     d="M 14.500001,7.9997694 C 14.500001,11.589737 11.589637,14.5 8.0000818,14.5 4.4101998,14.5 1.499999,11.589703 1.499999,7.9997694 c 0,-3.5898004 2.9102008,-6.4997693 6.5000828,-6.4997693 3.5895552,0 6.4999192,2.9099689 6.4999192,6.4997693 z" />
  <path
     style="color:#000000;display:inline;overflow:visible;visibility:visible;opacity:0.5;fill:none;stroke:#206b00;stroke-width:0.999999;stroke-linecap:round;stroke-linejoin:round;stroke-miterlimit:4;stroke-dasharray:none;stroke-dashoffset:0;stroke-opacity:1;marker:none;enable-background:accumulate"
     id="path2555-6-1"
     d="M 8.000001,0.49999952 C 3.8617601,0.49999952 0.5,3.8617577 0.5,7.9999985 0.5,12.138241 3.8617601,15.5 8.000001,15.5 12.138241,15.5 15.500004,12.138241 15.5,7.9999985 15.5,3.8617577 12.138241,0.49999952 8.000001,0.49999952 Z" />
  <path
     id="path158364"
     style="font-variation-settings:normal;vector-effect:none;fill:#206b00;fill-opacity:0.5;stroke:none;stroke-width:0.99997;stroke-linecap:butt;stroke-linejoin:miter;stroke-miterlimit:4;stroke-dasharray:none;stroke-dashoffset:0;stroke-opacity:1;-inkscape-stroke:none;marker:none;stop-color:#000000"
     d="m 10.500448,14.250196 c -0.278577,0 -0.500204,-0.223088 -0.500204,-0.500197 V 12.000196 H 7.502846 C 7.2242675,12.000196 7,11.777108 7,11.499999 V 10.500147 C 7,10.223038 7.2242675,9.9997755 7.502846,10.000049 h 2.497398 V 8.2501955 c 0,-0.277108 0.221629,-0.5001955 0.500205,-0.5001955 0.150141,0 0.284169,0.064903 0.376153,0.168034 l 2.736072,2.739156 c 0.08502,0.08958 0.137498,0.209985 0.137498,0.342907 0,0.132924 -0.05247,0.253326 -0.137498,0.342909 l -2.736072,2.739155 c -0.09198,0.103135 -0.226012,0.168035 -0.376154,0.168035 z"
     sodipodi:nodetypes="sscsssccssccsccs" />
  <path
     id="path158366"
     style="font-variation-settings:normal;vector-effect:none;fill:#206b00;fill-opacity:0.50196081;stroke:none;stroke-width:0.99997;stroke-linecap:butt;stroke-linejoin:miter;stroke-miterlimit:4;stroke-dasharray:none;stroke-dashoffset:0;stroke-opacity:1;-inkscape-stroke:none;marker:none;stop-color:#000000"
     d="m 5.4999745,10.250196 c 0.278577,0 0.500205,-0.223088 0.500205,-0.5001967 V 8.0001963 H 8.497577 c 0.2785785,0 0.502846,-0.223088 0.502846,-0.500197 V 6.500147 c 0,-0.2771095 -0.2242675,-0.5003715 -0.502846,-0.5000985 H 6.000179 V 4.2501955 C 6.000179,3.9730875 5.7785505,3.75 5.4999745,3.75 5.3498325,3.75 5.215805,3.814903 5.123821,3.918034 L 2.3877487,6.6571898 c -0.085023,0.089581 -0.1374974,0.209986 -0.1374974,0.342908 0,0.1329235 0.05247,0.253326 0.1374974,0.3429085 L 5.123821,10.082161 c 0.091984,0.103135 0.2260115,0.168035 0.3761535,0.168035 z"
     sodipodi:nodetypes="sscsssccssccsccs" />
  <path
     id="path20223"
     style="font-variation-settings:normal;fill:none;fill-opacity:1;stroke:#206b00;stroke-width:2;stroke-linecap:butt;stroke-linejoin:miter;stroke-miterlimit:4;stroke-dasharray:none;stroke-dashoffset:0;stroke-opacity:0.15000001;marker:none;stop-color:#000000"
     d="m 5.4999745,9.2500985 c 0.278577,0 0.500205,-0.223088 0.500205,-0.500197 V 7.0000985 H 8.497577 c 0.2785785,0 0.502846,-0.223088 0.502846,-0.500197 V 5.5000492 c 0,-0.2771095 -0.2242675,-0.5003715 -0.502846,-0.5000985 H 6.000179 v -1.749853 c 0,-0.277108 -0.2216285,-0.5001955 -0.5002045,-0.5001955 -0.150142,0 -0.2841695,0.064903 -0.3761535,0.168034 L 2.3877487,5.657092 C 2.3027255,5.7466735 2.2502513,5.867078 2.2502513,6 c 0,0.1329235 0.05247,0.253326 0.1374974,0.3429085 l 2.7360723,2.739155 c 0.091984,0.103135 0.2260115,0.168035 0.3761535,0.168035 z"
     sodipodi:nodetypes="sscsssccssccsccs" />
  <path
     id="path873-5"
     style="font-variation-settings:normal;vector-effect:none;fill:#ffffff;fill-opacity:1;stroke:none;stroke-width:0.99997;stroke-linecap:butt;stroke-linejoin:miter;stroke-miterlimit:4;stroke-dasharray:none;stroke-dashoffset:0;stroke-opacity:1;-inkscape-stroke:none;marker:none;stop-color:#000000"
     d="m 5.4999745,9.2500985 c 0.278577,0 0.500205,-0.223088 0.500205,-0.500197 V 7.0000985 H 8.497577 c 0.2785785,0 0.502846,-0.223088 0.502846,-0.500197 V 5.5000492 c 0,-0.2771095 -0.2242675,-0.5003715 -0.502846,-0.5000985 H 6.000179 v -1.749853 c 0,-0.277108 -0.2216285,-0.5001955 -0.5002045,-0.5001955 -0.150142,0 -0.2841695,0.064903 -0.3761535,0.168034 L 2.3877487,5.657092 C 2.3027255,5.7466735 2.2502513,5.867078 2.2502513,6 c 0,0.1329235 0.05247,0.253326 0.1374974,0.3429085 l 2.7360723,2.739155 c 0.091984,0.103135 0.2260115,0.168035 0.3761535,0.168035 z"
     sodipodi:nodetypes="sscsssccssccsccs" />
  <path
     id="path20610"
     style="font-variation-settings:normal;fill:#ffffff;fill-opacity:1;stroke:#206b00;stroke-width:2;stroke-linecap:butt;stroke-linejoin:miter;stroke-miterlimit:4;stroke-dasharray:none;stroke-dashoffset:0;stroke-opacity:0.15000001;marker:none;stop-color:#000000"
     d="m 10.500449,13.250197 c -0.278577,0 -0.500205,-0.223089 -0.500205,-0.500197 V 11.000197 H 7.502846 C 7.2242675,11.000197 7,10.777109 7,10.5 V 9.500148 C 7,9.223038 7.2242675,8.9997755 7.502846,9.000049 h 2.497398 V 7.2501955 c 0,-0.277108 0.221629,-0.5001955 0.500205,-0.5001955 0.150142,0 0.284169,0.064903 0.376153,0.168034 l 2.736073,2.739155 c 0.08502,0.08958 0.137497,0.209987 0.137497,0.342908 0,0.132924 -0.05247,0.253326 -0.137497,0.34291 l -2.736073,2.739155 c -0.09198,0.103135 -0.226011,0.168035 -0.376153,0.168035 z"
     sodipodi:nodetypes="sscsssccssccsccs" />
  <path
     id="path159262"
     style="font-variation-settings:normal;vector-effect:none;fill:#ffffff;fill-opacity:1;stroke:none;stroke-width:0.99997;stroke-linecap:butt;stroke-linejoin:miter;stroke-miterlimit:4;stroke-dasharray:none;stroke-dashoffset:0;stroke-opacity:1;-inkscape-stroke:none;marker:none;stop-color:#000000"
     d="m 10.500449,13.250197 c -0.278577,0 -0.500205,-0.223089 -0.500205,-0.500197 V 11.000197 H 7.502846 C 7.2242675,11.000197 7,10.777109 7,10.5 V 9.500148 C 7,9.223038 7.2242675,8.9997755 7.502846,9.000049 h 2.497398 V 7.2501955 c 0,-0.277108 0.221629,-0.5001955 0.500205,-0.5001955 0.150142,0 0.284169,0.064903 0.376153,0.168034 l 2.736073,2.739155 c 0.08502,0.08958 0.137497,0.209987 0.137497,0.342908 0,0.132924 -0.05247,0.253326 -0.137497,0.34291 l -2.736073,2.739155 c -0.09198,0.103135 -0.226011,0.168035 -0.376153,0.168035 z"
     sodipodi:nodetypes="sscsssccssccsccs" />
</svg>
