<?xml version="1.0" encoding="UTF-8" standalone="no"?>
<svg
   version="1.1"
   width="16"
   height="16"
   id="svg4248"
   sodipodi:docname="system-lock-screen.svg"
   inkscape:version="1.2.2 (b0a8486541, 2022-12-01)"
   xmlns:inkscape="http://www.inkscape.org/namespaces/inkscape"
   xmlns:sodipodi="http://sodipodi.sourceforge.net/DTD/sodipodi-0.dtd"
   xmlns:xlink="http://www.w3.org/1999/xlink"
   xmlns="http://www.w3.org/2000/svg"
   xmlns:svg="http://www.w3.org/2000/svg"
   xmlns:rdf="http://www.w3.org/1999/02/22-rdf-syntax-ns#"
   xmlns:cc="http://creativecommons.org/ns#"
   xmlns:dc="http://purl.org/dc/elements/1.1/">
  <sodipodi:namedview
     pagecolor="#ffffff"
     bordercolor="#666666"
     borderopacity="1"
     objecttolerance="10"
     gridtolerance="10"
     guidetolerance="10"
     inkscape:pageopacity="0"
     inkscape:pageshadow="2"
     inkscape:window-width="1396"
     inkscape:window-height="859"
     id="namedview29"
     showgrid="false"
     inkscape:zoom="24.78125"
     inkscape:cx="6.295082"
     inkscape:cy="15.778058"
     inkscape:window-x="576"
     inkscape:window-y="151"
     inkscape:window-maximized="0"
     inkscape:current-layer="svg4248"
     inkscape:pagecheckerboard="0"
     inkscape:showpageshadow="2"
     inkscape:deskcolor="#d1d1d1" />
  <defs
     id="defs4250">
    <linearGradient
       id="linearGradient4011-4">
      <stop
         id="stop4013-8"
         style="stop-color:#ffffff;stop-opacity:1"
         offset="0" />
      <stop
         id="stop4015-5"
         style="stop-color:#ffffff;stop-opacity:0.23529412"
         offset="0.507761" />
      <stop
         id="stop4017-6"
         style="stop-color:#ffffff;stop-opacity:0.15686275"
         offset="0.83456558" />
      <stop
         id="stop4019-1"
         style="stop-color:#ffffff;stop-opacity:0.39215687"
         offset="1" />
    </linearGradient>
    <linearGradient
       gradientTransform="matrix(0.3513514,0,0,0.35135134,-17.203671,-0.90930007)"
       gradientUnits="userSpaceOnUse"
       xlink:href="#linearGradient4011-4"
       id="linearGradient3019"
       y2="44.340794"
       x2="71.204407"
       y1="6.2375584"
       x1="71.204407" />
    <linearGradient
       gradientTransform="matrix(0,0.36585366,-0.36585366,0,16.780487,-0.78048733)"
       gradientUnits="userSpaceOnUse"
       y2="23.999998"
       x2="81.658852"
       y1="23.999998"
       x1="-1.5996079"
       id="linearGradient887"
       xlink:href="#linearGradient947-5" />
    <linearGradient
       id="linearGradient947-5">
      <stop
         offset="0"
         style="stop-color:#9bdb4d;stop-opacity:1"
         id="stop943-6" />
      <stop
         offset="1"
         style="stop-color:#3a9104;stop-opacity:1"
         id="stop945-2" />
    </linearGradient>
  </defs>
  <metadata
     id="metadata4253">
    <rdf:RDF>
      <cc:Work
         rdf:about="">
        <dc:format>image/svg+xml</dc:format>
        <dc:type
           rdf:resource="http://purl.org/dc/dcmitype/StillImage" />
      </cc:Work>
    </rdf:RDF>
  </metadata>
  <path
     style="color:#000000;display:inline;overflow:visible;visibility:visible;fill:url(#linearGradient887);fill-opacity:1;fill-rule:nonzero;stroke:none;stroke-width:1;marker:none;enable-background:accumulate;stroke-dasharray:none"
     id="path2555-3"
     d="m 15.5,8.0000013 c 0,-4.1382414 -3.361758,-7.50000173 -7.4999999,-7.50000173 -4.1382408,0 -7.50000135,3.36176033 -7.50000035,7.50000173 0,4.1382387 3.36175955,7.5000027 7.50000035,7.4999987 C 12.138242,15.5 15.5,12.13824 15.5,8.0000013 Z" />
  <path
     style="color:#000000;display:inline;overflow:visible;visibility:visible;opacity:0.5;fill:none;stroke:url(#linearGradient3019);stroke-width:0.999996;stroke-linecap:round;stroke-linejoin:round;stroke-miterlimit:4;stroke-dasharray:none;stroke-dashoffset:0;stroke-opacity:1;marker:none;enable-background:accumulate"
     id="path8655-6"
     d="M 14.500001,7.9997694 C 14.500001,11.589737 11.589637,14.5 8.0000818,14.5 4.4101998,14.5 1.499999,11.589703 1.499999,7.9997694 c 0,-3.5898004 2.9102008,-6.4997693 6.5000828,-6.4997693 3.5895552,0 6.4999192,2.9099689 6.4999192,6.4997693 z" />
  <path
     style="color:#000000;display:inline;overflow:visible;visibility:visible;opacity:0.5;fill:none;stroke:#206b00;stroke-width:0.999999;stroke-linecap:round;stroke-linejoin:round;stroke-miterlimit:4;stroke-dasharray:none;stroke-dashoffset:0;stroke-opacity:1;marker:none;enable-background:accumulate"
     id="path2555-6-1"
     d="M 8.000001,0.49999952 C 3.8617601,0.49999952 0.5,3.8617577 0.5,7.9999985 0.5,12.138241 3.8617601,15.5 8.000001,15.5 12.138241,15.5 15.500004,12.138241 15.5,7.9999985 15.5,3.8617577 12.138241,0.49999952 8.000001,0.49999952 Z" />
  <path
     id="path141573"
     style="color:#000000;clip-rule:nonzero;display:inline;overflow:visible;visibility:visible;isolation:auto;mix-blend-mode:normal;color-interpolation:sRGB;color-interpolation-filters:linearRGB;solid-color:#000000;solid-opacity:1;fill:#206b00;fill-opacity:0.5;fill-rule:nonzero;stroke:none;stroke-width:1;stroke-linecap:round;stroke-linejoin:round;stroke-miterlimit:4;stroke-dasharray:none;stroke-dashoffset:0;stroke-opacity:1;marker:none;color-rendering:auto;image-rendering:auto;shape-rendering:auto;text-rendering:auto;enable-background:accumulate"
     d="M 7.500007,4 C 6.669008,4 6.000003,4.925336 6.000003,5.75 V 8 H 4.5 C 4.223001,8 4,8.223001 4,8.5 v 4 C 4,12.777 4.223001,13 4.5,13 h 7.000008 c 0.277,0 0.5,-0.223 0.5,-0.5 v -4 c 0,-0.276999 -0.223,-0.5 -0.5,-0.5 H 10.000006 V 5.75 C 10.000006,4.919001 9.331001,4 8.500002,4 Z m 0.165999,0.999598 h 0.667997 c 0.369068,0 0.665998,0.305736 0.665998,0.674804 V 8 H 7.000007 V 5.674402 c 0,-0.369068 0.29693,-0.674804 0.665999,-0.674804 z"
     sodipodi:nodetypes="sscsssssssscssssssccss" />
  <path
     id="path28609"
     style="color:#000000;clip-rule:nonzero;display:inline;overflow:visible;visibility:visible;isolation:auto;mix-blend-mode:normal;color-interpolation:sRGB;color-interpolation-filters:linearRGB;solid-color:#000000;solid-opacity:1;fill:none;fill-opacity:1;fill-rule:nonzero;stroke:#206b00;stroke-width:2;stroke-linecap:round;stroke-linejoin:round;stroke-miterlimit:4;stroke-dasharray:none;stroke-dashoffset:0;stroke-opacity:0.15000001;marker:none;color-rendering:auto;image-rendering:auto;shape-rendering:auto;text-rendering:auto;enable-background:accumulate"
     d="M 7.250004,3 C 6.419005,3 6.000003,3.675336 6.000003,4.5 V 7 H 4.5 C 4.223001,7 4,7.223001 4,7.5 v 4 C 4,11.777 4.223001,12 4.5,12 h 7.000008 c 0.277,0 0.5,-0.223 0.5,-0.5 v -4 c 0,-0.276999 -0.223,-0.5 -0.5,-0.5 H 10.000006 V 4.5 C 10.000006,3.669001 9.581003,3 8.750004,3 Z m 0.416002,0.999598 h 0.667997 c 0.369068,0 0.665998,0.305736 0.665998,0.674804 V 7 H 7.000007 V 4.674402 c 0,-0.369068 0.29693,-0.674804 0.665999,-0.674804 z"
     sodipodi:nodetypes="sscsssssssscssssssccss" />
  <path
     id="rect4382-7"
     style="color:#000000;clip-rule:nonzero;display:inline;overflow:visible;visibility:visible;isolation:auto;mix-blend-mode:normal;color-interpolation:sRGB;color-interpolation-filters:linearRGB;solid-color:#000000;solid-opacity:1;fill:#ffffff;fill-opacity:1;fill-rule:nonzero;stroke:none;stroke-width:1;stroke-linecap:round;stroke-linejoin:round;stroke-miterlimit:4;stroke-dasharray:none;stroke-dashoffset:0;stroke-opacity:1;marker:none;color-rendering:auto;image-rendering:auto;shape-rendering:auto;text-rendering:auto;enable-background:accumulate"
     d="M 7.250004,3 C 6.419005,3 6.000003,3.675336 6.000003,4.5 V 7 H 4.5 C 4.223001,7 4,7.223001 4,7.5 v 4 C 4,11.777 4.223001,12 4.5,12 h 7.000008 c 0.277,0 0.5,-0.223 0.5,-0.5 v -4 c 0,-0.276999 -0.223,-0.5 -0.5,-0.5 H 10.000006 V 4.5 C 10.000006,3.669001 9.581003,3 8.750004,3 Z m 0.416002,0.999598 h 0.667997 c 0.369068,0 0.665998,0.305736 0.665998,0.674804 V 7 H 7.000007 V 4.674402 c 0,-0.369068 0.29693,-0.674804 0.665999,-0.674804 z"
     sodipodi:nodetypes="sscsssssssscssssssccss" />
</svg>
