<?xml version="1.0" encoding="UTF-8" standalone="no"?>
<!-- Created with Inkscape (http://www.inkscape.org/) -->

<svg
   xmlns:dc="http://purl.org/dc/elements/1.1/"
   xmlns:cc="http://creativecommons.org/ns#"
   xmlns:rdf="http://www.w3.org/1999/02/22-rdf-syntax-ns#"
   xmlns:svg="http://www.w3.org/2000/svg"
   xmlns="http://www.w3.org/2000/svg"
   xmlns:xlink="http://www.w3.org/1999/xlink"
   xmlns:sodipodi="http://sodipodi.sourceforge.net/DTD/sodipodi-0.dtd"
   xmlns:inkscape="http://www.inkscape.org/namespaces/inkscape"
   version="1.1"
   width="16"
   height="16"
   id="svg4102"
   inkscape:version="0.48.4 r9939"
   sodipodi:docname="system-log-out.svg">
  <sodipodi:namedview
     pagecolor="#ffffff"
     bordercolor="#666666"
     borderopacity="1"
     objecttolerance="10"
     gridtolerance="10"
     guidetolerance="10"
     inkscape:pageopacity="0"
     inkscape:pageshadow="2"
     inkscape:window-width="1246"
     inkscape:window-height="607"
     id="namedview35"
     showgrid="true"
     inkscape:zoom="27.812867"
     inkscape:cx="13.736085"
     inkscape:cy="10.654128"
     inkscape:window-x="403"
     inkscape:window-y="96"
     inkscape:window-maximized="0"
     inkscape:current-layer="svg4102"
     showguides="true"
     inkscape:guide-bbox="true" />
  <defs
     id="defs4104">
    <linearGradient
       x1="71.204407"
       y1="6.2375584"
       x2="71.204407"
       y2="44.340794"
       id="linearGradient3178"
       xlink:href="#linearGradient4011"
       gradientUnits="userSpaceOnUse"
       gradientTransform="matrix(1.054054,0,0,1.054054,-51.611006,-1.727899)" />
    <linearGradient
       id="linearGradient4011">
      <stop
         id="stop4013"
         style="stop-color:#ffffff;stop-opacity:1"
         offset="0" />
      <stop
         id="stop4015"
         style="stop-color:#ffffff;stop-opacity:0.23529412"
         offset="0.507761" />
      <stop
         id="stop4017"
         style="stop-color:#ffffff;stop-opacity:0.15686275"
         offset="0.83456558" />
      <stop
         id="stop4019"
         style="stop-color:#ffffff;stop-opacity:0.39215687"
         offset="1" />
    </linearGradient>
    <linearGradient
       x1="38.976662"
       y1="59.967686"
       x2="38.976662"
       y2="8.0928917"
       id="linearGradient3187"
       xlink:href="#linearGradient4215"
       gradientUnits="userSpaceOnUse"
       gradientTransform="matrix(0.80392158,0,0,0.80392158,-1.72549,-2.3658945)" />
    <linearGradient
       id="linearGradient4215">
      <stop
         id="stop4217"
         style="stop-color:#dcdcdc;stop-opacity:1"
         offset="0" />
      <stop
         id="stop4219"
         style="stop-color:#f0f0f0;stop-opacity:1"
         offset="1" />
    </linearGradient>
    <linearGradient
       x1="21.346498"
       y1="59.968513"
       x2="21.346498"
       y2="7.8025136"
       id="linearGradient3189"
       xlink:href="#linearGradient4223"
       gradientUnits="userSpaceOnUse"
       gradientTransform="matrix(0.80392158,0,0,0.80392158,-1.72549,-2.3658945)" />
    <linearGradient
       id="linearGradient4223">
      <stop
         id="stop4225"
         style="stop-color:#505050;stop-opacity:1"
         offset="0" />
      <stop
         id="stop4227"
         style="stop-color:#838383;stop-opacity:1"
         offset="1" />
    </linearGradient>
    <linearGradient
       id="linearGradient8838">
      <stop
         id="stop8840"
         style="stop-color:#000000;stop-opacity:1"
         offset="0" />
      <stop
         id="stop8842"
         style="stop-color:#000000;stop-opacity:0"
         offset="1" />
    </linearGradient>
    <radialGradient
       cx="62.625"
       cy="4.625"
       r="10.625"
       fx="62.625"
       fy="4.625"
       id="radialGradient4100"
       xlink:href="#linearGradient8838"
       gradientUnits="userSpaceOnUse"
       gradientTransform="matrix(2.1647059,0,0,0.7529402,-111.56471,36.517647)" />
    <linearGradient
       inkscape:collect="always"
       xlink:href="#linearGradient4011"
       id="linearGradient3015"
       gradientUnits="userSpaceOnUse"
       gradientTransform="matrix(0.35135134,0,0,0.35135134,-17.203669,-0.87673711)"
       x1="71.204407"
       y1="6.2375584"
       x2="71.204407"
       y2="44.340794" />
    <linearGradient
       inkscape:collect="always"
       xlink:href="#linearGradient4215"
       id="linearGradient3024"
       gradientUnits="userSpaceOnUse"
       gradientTransform="matrix(0.29411765,0,0,0.29411765,-1.4117647,-1.9999995)"
       x1="38.976662"
       y1="59.967686"
       x2="38.976662"
       y2="8.0928917" />
    <linearGradient
       inkscape:collect="always"
       xlink:href="#linearGradient4223"
       id="linearGradient3026"
       gradientUnits="userSpaceOnUse"
       gradientTransform="matrix(0.29411765,0,0,0.29411765,-1.4117647,-1.9999995)"
       x1="21.346498"
       y1="59.968513"
       x2="21.346498"
       y2="7.8025136" />
    <radialGradient
       inkscape:collect="always"
       xlink:href="#linearGradient8838"
       id="radialGradient3029"
       gradientUnits="userSpaceOnUse"
       gradientTransform="matrix(1.0352941,0,0,0.36010183,-52.835298,18.50844)"
       cx="62.625"
       cy="4.625"
       fx="62.625"
       fy="4.625"
       r="10.625" />
  </defs>
  <metadata
     id="metadata4107">
    <rdf:RDF>
      <cc:Work
         rdf:about="">
        <dc:format>image/svg+xml</dc:format>
        <dc:type
           rdf:resource="http://purl.org/dc/dcmitype/StillImage" />
        <dc:title></dc:title>
      </cc:Work>
    </rdf:RDF>
  </metadata>
  <path
     style="color:#000000;fill:url(#linearGradient3024);fill-opacity:1;fill-rule:nonzero;stroke:url(#linearGradient3026);stroke-width:0.99999988;stroke-linecap:round;stroke-linejoin:round;stroke-miterlimit:4;stroke-opacity:1;stroke-dasharray:none;stroke-dashoffset:0;marker:none;visibility:visible;display:inline;overflow:visible;enable-background:accumulate"
     id="path2555-7"
     inkscape:connector-curvature="0"
     d="M 8.0000008,0.50000037 C 3.8617594,0.50000037 0.49999997,3.8617583 0.49999997,8 c 0,4.138241 3.36175943,7.500001 7.50000083,7.5 C 12.138241,15.5 15.500004,12.138241 15.5,8 15.5,3.8617583 12.138241,0.50000037 8.0000008,0.50000037 z" />
  <path
     style="opacity:0.8;color:#000000;fill:none;stroke:url(#linearGradient3015);stroke-width:1;stroke-linecap:round;stroke-linejoin:round;stroke-miterlimit:4;stroke-opacity:1;stroke-dasharray:none;stroke-dashoffset:0;marker:none;visibility:visible;display:inline;overflow:visible;enable-background:accumulate"
     id="path8655-6"
     inkscape:connector-curvature="0"
     d="M 14.5,8.0323324 C 14.5,11.6223 11.589637,14.532563 8.000082,14.532563 4.410199,14.532563 1.5,11.622267 1.5,8.0323331 1.5,4.442532 4.410199,1.5325632 8.000082,1.5325632 11.589637,1.5325632 14.5,4.442532 14.5,8.0323331 l 0,0 z" />
  <path
     style="opacity:0.5;color:#000000;fill:#ffffff;fill-opacity:1;fill-rule:nonzero;stroke:none;stroke-width:1;marker:none;visibility:visible;display:inline;overflow:visible;enable-background:accumulate"
     id="path3782-2"
     inkscape:connector-curvature="0"
     d="m 5.723214,4.7875 c -0.112453,0 -0.21716,0.0454 -0.3125,0.091667 L 5.1875,5.016667 c -1.095604,0.7419169 -1.867807,1.8884286 -2.098214,3.23125 -2.46e-4,0.00147 -0.02208,-0.0014 -0.02232,0 -0.0061,0.036982 0.0053,0.077302 0,0.1145833 C 3.033893,8.5889776 3,8.8131854 3,9.05 3,11.78381 5.238576,14 8,14 10.761424,14 13,11.78381 13,9.05 13,8.8397101 12.98151,8.6347991 12.95536,8.43125 12.94706,8.3679487 12.92143,8.3103468 12.91072,8.2479167 12.680307,6.9050953 11.908104,5.7585836 10.8125,5.0166667 L 10.589286,4.8791666 c -0.09534,-0.046266 -0.200047,-0.091667 -0.3125,-0.091667 -0.406747,0 -0.736607,0.3386563 -0.736607,0.7562501 0,0.2376601 0.123165,0.4572194 0.290178,0.5958333 0.05308,0.044059 0.11482,0.0869 0.178572,0.1145833 0.690193,0.4715172 1.201672,1.1763385 1.428571,1.99375 0.0043,0.015599 0.01818,0.030199 0.02232,0.045833 0.07424,0.2799925 0.111608,0.5670038 0.111608,0.8708333 0,1.9527214 -1.598983,3.5291674 -3.571429,3.5291674 -1.972446,0 -3.571429,-1.576446 -3.571429,-3.5291674 0,-0.3038295 0.03737,-0.5908408 0.111608,-0.8708333 0.0043,-0.016303 0.01782,-0.029627 0.02232,-0.045833 0.226899,-0.8174115 0.738378,-1.5222328 1.428571,-1.99375 0.06375,-0.027683 0.12549,-0.070525 0.178572,-0.1145833 0.167013,-0.1386139 0.290178,-0.3581732 0.290178,-0.5958333 0,-0.4175938 -0.32986,-0.7562501 -0.736607,-0.7562501 z M 8,3 c 0.395714,0 0.714286,0.3270667 0.714286,0.7333333 l 0,4.4 C 8.714286,8.5396 8.395714,8.8666667 8,8.8666667 7.604286,8.8666667 7.285714,8.5396 7.285714,8.1333333 l 0,-4.4 C 7.285714,3.3270667 7.604286,3 8,3 z" />
  <path
     style="opacity:0.65;color:#000000;fill:#000000;fill-opacity:1;fill-rule:nonzero;stroke:none;stroke-width:1px;marker:none;visibility:visible;display:inline;overflow:visible;enable-background:accumulate"
     id="path3782"
     inkscape:connector-curvature="0"
     d="m 5.723214,4.0375 c -0.112453,0 -0.21716,0.0454 -0.3125,0.091667 L 5.1875,4.266667 c -1.095604,0.7419169 -1.867807,1.8884286 -2.098214,3.23125 -2.46e-4,0.00147 -0.02208,-0.0014 -0.02232,0 -0.0061,0.036981 0.0053,0.077302 0,0.1145833 C 3.033893,7.8389776 3,8.0631854 3,8.3 c 0,2.733809 2.238576,4.95 5,4.95 2.761424,0 5,-2.216191 5,-4.95 C 13,8.0897101 12.98151,7.8847991 12.95536,7.6812499 12.94706,7.6179486 12.92143,7.5603468 12.91072,7.4979167 12.680307,6.1550953 11.908104,5.0085836 10.8125,4.2666667 l -0.223214,-0.1375 C 10.493946,4.0829002 10.389239,4.0375 10.276786,4.0375 c -0.406747,0 -0.736607,0.3386563 -0.736607,0.7562499 0,0.2376602 0.123165,0.4572195 0.290178,0.5958334 0.05308,0.044059 0.11482,0.0869 0.178572,0.1145833 0.690193,0.4715172 1.201672,1.1763386 1.428571,1.9937501 0.0043,0.015598 0.01818,0.030199 0.02232,0.045833 0.07424,0.2799925 0.111608,0.5670038 0.111608,0.8708333 0,1.952721 -1.598983,3.529167 -3.571429,3.529167 -1.972446,0 -3.571429,-1.576446 -3.571429,-3.529167 0,-0.3038295 0.03737,-0.5908408 0.111608,-0.8708333 0.0043,-0.016303 0.01782,-0.029627 0.02232,-0.045833 C 4.789397,6.6805052 5.300876,5.9756838 5.991069,5.5041666 6.054819,5.4764836 6.116559,5.4336416 6.169641,5.3895833 6.336654,5.2509694 6.459819,5.0314101 6.459819,4.7937499 6.459821,4.3761563 6.129961,4.0375 5.723214,4.0375 z M 8,2.25 c 0.395714,0 0.714286,0.3270667 0.714286,0.7333333 l 0,4.4 C 8.714286,7.7896 8.395714,8.1166667 8,8.1166667 7.604286,8.1166667 7.285714,7.7896 7.285714,7.3833333 l 0,-4.4 C 7.285714,2.5770667 7.604286,2.25 8,2.25 z" />
</svg>
