<?xml version="1.0" encoding="UTF-8" standalone="no"?>
<svg
   width="16px"
   height="16px"
   id="svg3033"
   version="1.1"
   sodipodi:docname="system-reboot.svg"
   inkscape:version="1.2.2 (b0a8486541, 2022-12-01)"
   xmlns:inkscape="http://www.inkscape.org/namespaces/inkscape"
   xmlns:sodipodi="http://sodipodi.sourceforge.net/DTD/sodipodi-0.dtd"
   xmlns:xlink="http://www.w3.org/1999/xlink"
   xmlns="http://www.w3.org/2000/svg"
   xmlns:svg="http://www.w3.org/2000/svg"
   xmlns:rdf="http://www.w3.org/1999/02/22-rdf-syntax-ns#"
   xmlns:cc="http://creativecommons.org/ns#"
   xmlns:dc="http://purl.org/dc/elements/1.1/">
  <sodipodi:namedview
     id="namedview28"
     pagecolor="#ffffff"
     bordercolor="#666666"
     borderopacity="1.0"
     inkscape:pageshadow="2"
     inkscape:pageopacity="0.0"
     inkscape:pagecheckerboard="0"
     showgrid="false"
     inkscape:zoom="45.254834"
     inkscape:cx="8.5847183"
     inkscape:cy="6.8942911"
     inkscape:window-width="1278"
     inkscape:window-height="1005"
     inkscape:window-x="684"
     inkscape:window-y="25"
     inkscape:window-maximized="0"
     inkscape:current-layer="svg3033"
     inkscape:showpageshadow="2"
     inkscape:deskcolor="#d1d1d1" />
  <defs
     id="defs3035">
    <linearGradient
       id="linearGradient4011">
      <stop
         id="stop4013"
         style="stop-color:#ffffff;stop-opacity:1;"
         offset="0" />
      <stop
         offset="0.507761"
         style="stop-color:#ffffff;stop-opacity:0.23529412;"
         id="stop4015" />
      <stop
         id="stop4017"
         style="stop-color:#ffffff;stop-opacity:0.15686275;"
         offset="0.83456558" />
      <stop
         id="stop4019"
         style="stop-color:#ffffff;stop-opacity:0.39215687;"
         offset="1" />
    </linearGradient>
    <linearGradient
       x1="71.204407"
       y1="6.2375584"
       x2="71.204407"
       y2="44.340794"
       id="linearGradient3089"
       xlink:href="#linearGradient4011"
       gradientUnits="userSpaceOnUse"
       gradientTransform="matrix(0.35135137,0,0,0.35135141,-17.203669,-0.9093021)" />
    <linearGradient
       inkscape:collect="always"
       xlink:href="#linearGradient26009"
       id="linearGradient905"
       gradientUnits="userSpaceOnUse"
       x1="12.000114"
       y1="10.18603"
       x2="12.000114"
       y2="29.734943"
       gradientTransform="matrix(0.71440716,0,0,0.71440716,-0.572886,-6.2881433)" />
    <linearGradient
       id="linearGradient26009">
      <stop
         id="stop26005"
         offset="0"
         style="stop-color:#64baff;stop-opacity:1" />
      <stop
         id="stop26007"
         offset="1"
         style="stop-color:#3689e6;stop-opacity:1" />
    </linearGradient>
  </defs>
  <metadata
     id="metadata3038">
    <rdf:RDF>
      <cc:Work
         rdf:about="">
        <dc:format>image/svg+xml</dc:format>
        <dc:type
           rdf:resource="http://purl.org/dc/dcmitype/StillImage" />
      </cc:Work>
    </rdf:RDF>
  </metadata>
  <path
     d="m 8,0.49999975 c -4.13824,0 -7.5,3.36175895 -7.5,7.49999975 C 0.5,12.138241 3.86176,15.500002 8,15.5 c 4.13824,0 7.500004,-3.361759 7.5,-7.5000005 C 15.5,3.8617587 12.13824,0.49999975 8,0.49999975 Z"
     id="path2555"
     style="fill:url(#linearGradient905);fill-opacity:1;stroke:none;stroke-width:1;stroke-linecap:round;stroke-linejoin:round;stroke-miterlimit:4;stroke-dasharray:none;stroke-dashoffset:0;stroke-opacity:1" />
  <path
     d="m 8.0000003,0.49999955 c -4.138241,0 -7.50000006,3.36175895 -7.50000006,7.50000005 0,4.1382414 3.36175906,7.5000024 7.50000006,7.5000004 C 12.13824,15.5 15.500004,12.138241 15.5,7.9999996 15.5,3.8617585 12.13824,0.49999955 8.0000003,0.49999955 Z"
     id="path2555-6"
     style="color:#000000;display:inline;overflow:visible;visibility:visible;fill:none;stroke:#002e99;stroke-width:0.999999;stroke-linecap:round;stroke-linejoin:round;stroke-miterlimit:4;stroke-dasharray:none;stroke-dashoffset:0;stroke-opacity:0.5;marker:none;enable-background:accumulate" />
  <path
     d="m 14.500001,7.999769 c 0,3.589968 -2.910364,6.500233 -6.4999183,6.500233 -3.5898839,0 -6.5000833,-2.910299 -6.5000833,-6.500233 0,-3.5898016 2.9101994,-6.4997705 6.5000833,-6.4997705 3.5895543,0 6.4999183,2.9099689 6.4999183,6.4997705 z"
     id="path8655"
     style="color:#000000;display:inline;overflow:visible;visibility:visible;opacity:0.5;fill:none;stroke:url(#linearGradient3089);stroke-width:0.999999;stroke-linecap:round;stroke-linejoin:round;stroke-miterlimit:4;stroke-dasharray:none;stroke-dashoffset:0;stroke-opacity:1;marker:none;enable-background:accumulate" />
  <path
     id="path11867"
     style="font-variation-settings:normal;fill:none;fill-opacity:0.6;stroke:#002e99;stroke-width:2;stroke-linecap:butt;stroke-linejoin:miter;stroke-miterlimit:4;stroke-dasharray:none;stroke-dashoffset:0;stroke-opacity:0.1;marker:none;stop-color:#000000"
     d="M 8.5507812,3.25 C 8.2455615,3.25 8,3.4334857 8,3.6621094 V 4.9003906 C 6.0153006,4.9470494 4.2278297,6.2887034 3.7460938,8.2597656 3.1940944,10.518316 4.5755121,12.814781 6.828125,13.46875 c 2.2526129,0.653969 4.664899,-0.50938 5.482422,-2.6875 A 0.99999499,0.99999499 0 0 0 11.726562,9.4921875 0.99999499,0.99999499 0 0 0 10.439453,10.078125 C 9.9959136,11.259844 8.6643565,11.918361 7.3847656,11.546875 6.1051747,11.175389 5.3911485,9.9549129 5.6894531,8.734375 5.9463413,7.6832962 6.8990672,6.9457431 8,6.9042969 V 8.3378906 C 8,8.566515 8.2455615,8.75 8.5507812,8.75 8.715282,8.75 8.8621024,8.6964185 8.9628906,8.6113281 L 11.984375,6.5507812 C 12.077532,6.4768722 12.2522,6.3655808 12.25,5.9941406 12.247743,5.6227005 12.077535,5.5231267 11.984375,5.4492188 L 8.9628906,3.3886719 C 8.8621094,3.3035899 8.715282,3.25 8.5507812,3.25 Z" />
  <path
     id="path9399"
     style="font-variation-settings:normal;fill:#002e99;fill-opacity:0.5;stroke:none;stroke-width:0.999995;stroke-linecap:butt;stroke-linejoin:miter;stroke-miterlimit:4;stroke-dasharray:none;stroke-dashoffset:0;stroke-opacity:1;marker:none;stop-color:#000000"
     d="M 8.5507812,3.25 C 8.2455615,3.25 8,3.4334857 8,3.6621094 V 4.9003906 C 6.0153006,4.9470494 4.2278297,6.2887034 3.7460938,8.2597656 3.1940944,10.518316 4.5755121,12.814781 6.828125,13.46875 c 2.2526129,0.653969 4.664899,-0.50938 5.482422,-2.6875 A 0.99999499,0.99999499 0 0 0 11.726562,9.4921875 0.99999499,0.99999499 0 0 0 10.439453,10.078125 C 9.9959136,11.259844 8.6643565,11.918361 7.3847656,11.546875 6.1051747,11.175389 5.3911485,9.9549129 5.6894531,8.734375 5.9463413,7.6832962 6.8990672,6.9457431 8,6.9042969 V 8.3378906 C 8,8.566515 8.2455615,8.75 8.5507812,8.75 8.715282,8.75 8.8621024,8.6964185 8.9628906,8.6113281 L 11.984375,6.5507812 C 12.077532,6.4768722 12.2522,6.3655808 12.25,5.9941406 12.247743,5.6227005 12.077535,5.5231267 11.984375,5.4492188 L 8.9628906,3.3886719 C 8.8621094,3.3035899 8.715282,3.25 8.5507812,3.25 Z" />
  <path
     id="path873-5"
     style="font-variation-settings:normal;fill:#ffffff;fill-opacity:1;stroke:none;stroke-width:0.999995;stroke-linecap:butt;stroke-linejoin:miter;stroke-miterlimit:4;stroke-dasharray:none;stroke-dashoffset:0;stroke-opacity:1;marker:none;stop-color:#000000"
     d="m 8.5509362,7.7500001 c -0.3052201,0 -0.5509367,-0.1840553 -0.5509367,-0.4126799 V 2.6626795 C 7.9999995,2.4340556 8.2457161,2.25 8.5509362,2.25 c 0.1645009,0 0.3113455,0.053552 0.4121268,0.1386341 l 3.021292,2.0613658 c 0.09316,0.073908 0.263366,0.1731877 0.265623,0.5446282 C 12.252178,5.3660686 12.077512,5.4760909 11.984355,5.55 L 8.963063,7.6113657 C 8.8622747,7.6964562 8.7154371,7.7500001 8.5509362,7.7500001 Z"
     sodipodi:nodetypes="sccscczccs" />
  <path
     style="fill:none;fill-opacity:0.5;fill-rule:evenodd;stroke:#ffffff;stroke-width:1.99999;stroke-linecap:round;stroke-dasharray:none;stroke-opacity:1;stop-color:#000000"
     id="path54251"
     sodipodi:type="arc"
     sodipodi:cx="8.1045189"
     sodipodi:cy="8.2749519"
     sodipodi:rx="3.4803777"
     sodipodi:ry="3.3750012"
     sodipodi:start="0.34906585"
     sodipodi:end="4.8869219"
     sodipodi:arc-type="arc"
     d="M 11.375004,9.4292703 A 3.4803777,3.3750012 0 0 1 7.1063353,11.508168 3.4803777,3.3750012 0 0 1 4.7179552,7.4966231 3.4803777,3.3750012 0 0 1 8.7088801,4.9512246"
     sodipodi:open="true" />
</svg>
