<?xml version="1.0" encoding="UTF-8" standalone="no"?>
<svg
   version="1.1"
   width="128"
   height="128"
   id="svg3759"
   sodipodi:docname="applications-internet.svg"
   inkscape:version="1.1.1 (3bf5ae0d25, 2021-09-20)"
   xmlns:inkscape="http://www.inkscape.org/namespaces/inkscape"
   xmlns:sodipodi="http://sodipodi.sourceforge.net/DTD/sodipodi-0.dtd"
   xmlns:xlink="http://www.w3.org/1999/xlink"
   xmlns="http://www.w3.org/2000/svg"
   xmlns:svg="http://www.w3.org/2000/svg"
   xmlns:rdf="http://www.w3.org/1999/02/22-rdf-syntax-ns#"
   xmlns:cc="http://creativecommons.org/ns#"
   xmlns:dc="http://purl.org/dc/elements/1.1/">
  <sodipodi:namedview
     id="namedview36"
     pagecolor="#ffffff"
     bordercolor="#666666"
     borderopacity="1.0"
     inkscape:pageshadow="2"
     inkscape:pageopacity="0.0"
     inkscape:pagecheckerboard="0"
     showgrid="false"
     inkscape:snap-global="false"
     inkscape:zoom="2.6640625"
     inkscape:cx="-157.84164"
     inkscape:cy="54.052786"
     inkscape:window-width="1317"
     inkscape:window-height="890"
     inkscape:window-x="601"
     inkscape:window-y="71"
     inkscape:window-maximized="0"
     inkscape:current-layer="g4093" />
  <metadata
     id="metadata100981">
    <rdf:RDF>
      <cc:Work
         rdf:about="">
        <dc:format>image/svg+xml</dc:format>
        <dc:type
           rdf:resource="http://purl.org/dc/dcmitype/StillImage" />
      </cc:Work>
    </rdf:RDF>
  </metadata>
  <defs
     id="defs3761">
    <linearGradient
       x1="62.200409"
       y1="-12.489107"
       x2="62.200409"
       y2="-1.4615115"
       id="linearGradient3697"
       xlink:href="#linearGradient4873"
       gradientUnits="userSpaceOnUse"
       gradientTransform="matrix(6.2317744,0,0,6.2316405,-323.61928,85.878331)" />
    <linearGradient
       id="linearGradient4873">
      <stop
         id="stop4875"
         style="stop-color:#ffffff;stop-opacity:1"
         offset="0" />
      <stop
         id="stop4877"
         style="stop-color:#ffffff;stop-opacity:0"
         offset="1" />
    </linearGradient>
    <linearGradient
       id="linearGradient8838">
      <stop
         id="stop8840"
         style="stop-color:#000000;stop-opacity:1"
         offset="0" />
      <stop
         id="stop8842"
         style="stop-color:#000000;stop-opacity:0"
         offset="1" />
    </linearGradient>
    <radialGradient
       cx="62.625"
       cy="4.625"
       r="10.625"
       fx="62.625"
       fy="4.625"
       id="radialGradient3757"
       xlink:href="#linearGradient8838"
       gradientUnits="userSpaceOnUse"
       gradientTransform="matrix(4.7058827,0,0,1.3176453,-230.70601,107.91335)" />
    <linearGradient
       inkscape:collect="always"
       id="linearGradient914">
      <stop
         style="stop-color:#8cd5ff;stop-opacity:1"
         offset="0"
         id="stop910" />
      <stop
         style="stop-color:#3689e6;stop-opacity:1"
         offset="1"
         id="stop912" />
    </linearGradient>
    <linearGradient
       inkscape:collect="always"
       xlink:href="#linearGradient914"
       id="linearGradient869"
       x1="42.312614"
       y1="13.816647"
       x2="42.312614"
       y2="114.34805"
       gradientUnits="userSpaceOnUse"
       gradientTransform="translate(-3.754e-4,1.0000175)" />
  </defs>
  <g
     id="g4093">
    <path
       d="m 113.99999,114.00741 a 49.999999,14 0 0 1 -99.999984,0 49.999999,14 0 1 1 99.999984,0 z"
       id="path8836"
       style="display:inline;overflow:visible;visibility:visible;opacity:0.4;fill:url(#radialGradient3757);fill-opacity:1;fill-rule:evenodd;stroke:none;stroke-width:0.999995;marker:none" />
    <path
       d="m 119.50007,63.998068 c 0,30.652795 -24.850083,55.501912 -55.499385,55.501912 -30.652112,0 -55.5007566,-24.849398 -55.5007566,-55.501912 0,-30.651393 24.8486446,-55.4980505 55.5007566,-55.4980505 30.649302,0 55.499385,24.8466575 55.499385,55.4980505 z"
       id="path6495"
       style="fill:url(#linearGradient869);fill-opacity:1;fill-rule:nonzero;stroke:#002e99;stroke-width:1;stroke-miterlimit:4;stroke-dasharray:none;stroke-opacity:0.501961" />
    <path
       d="m 118.49963,63.998138 c 0,30.100523 -24.40231,54.501872 -54.499334,54.501872 -30.099779,0 -54.500671,-24.401629 -54.500671,-54.501872 0,-30.099127 24.400892,-54.4981199 54.500671,-54.4981199 30.097024,0 54.499334,24.3989929 54.499334,54.4981199 z"
       id="path8655"
       style="opacity:0.4;fill:none;stroke:url(#linearGradient3697);stroke-width:1;stroke-miterlimit:4;stroke-dasharray:none;stroke-opacity:1" />
    <path
       style="opacity:0.5;fill:#0e141f;fill-opacity:1;fill-rule:nonzero;stroke:none;stroke-width:0.999998"
       id="path6534-7"
       d="m 65.268989,10.660018 -6.838347,0.773322 -7.522184,2.02998 c 0.640754,-0.221932 1.289875,-0.464179 1.95381,-0.676665 l -0.879213,-1.546645 -2.930724,0.483326 -1.465368,1.353323 -2.246883,0.289993 -2.051502,0.966651 -0.976907,0.483329 -0.29308,0.38666 -1.465362,0.290005 -0.879203,1.836642 -1.172305,-2.31997 -0.390747,0.966648 0.195389,2.609977 -1.856129,1.546646 -1.074595,2.803304 h 2.246896 l 0.879203,-1.836649 0.293083,-0.676658 c 0.987939,-0.691313 1.924499,-1.461212 2.930725,-2.12665 l 2.344568,0.773335 c 1.526491,1.026206 3.063716,2.068637 4.591472,3.093299 l 2.246872,-2.029981 -2.539962,-1.063318 -1.172295,-2.319981 -4.298386,-0.483323 -0.0977,-0.483326 1.856116,0.386661 1.074603,-1.063318 2.344583,-0.48333 c 0.554845,-0.267015 1.100634,-0.459328 1.660731,-0.676664 l -1.46536,1.353321 5.275308,3.576624 v 2.126646 l -2.051505,2.029979 2.735336,5.413271 1.85613,-1.063324 2.344576,-3.576621 c 3.296311,-1.008432 6.267143,-2.181869 9.378318,-3.57663 l -0.195395,1.353314 1.563044,1.063327 2.735343,-1.836652 -1.367666,-1.546648 -1.856133,1.063321 -0.586142,-0.193325 c 0.134637,-0.06084 0.25555,-0.131447 0.39076,-0.193333 l 2.735356,-6.959923 z m -26.767268,10.439877 2.246893,1.546653 h 1.856119 v -1.836652 l -2.246877,-0.966648 z m 51.873788,-1.256647 -4.005309,0.966648 -2.539956,1.643317 v 1.449978 l -4.005324,2.513308 0.78152,3.769963 2.344583,-1.643318 1.465358,1.643318 1.66075,0.966656 1.074595,-2.803306 -0.586146,-1.643317 0.586146,-1.159989 2.344581,-2.126635 h 1.074595 l -1.074595,2.31998 v 2.126629 c 0.96636,-0.260285 1.941779,-0.361655 2.930715,-0.483322 l -2.735339,1.933319 -0.195389,1.159978 -3.126102,2.609974 -3.223808,-0.773334 v -1.83664 l -1.46536,0.966652 0.683846,1.643322 h -2.344589 l -1.269972,2.126643 -1.563054,1.739973 -2.833036,0.579995 1.660742,1.643317 0.390768,1.643315 h -2.05151 l -2.735335,1.449984 v 4.253275 h 1.269973 l 1.172294,1.256658 2.63765,-1.256658 0.976912,-2.609966 1.953807,-1.159983 0.390761,-0.966662 3.126103,-0.773321 1.758442,1.933307 1.85612,0.966659 -1.074601,2.126652 1.660749,-0.483337 0.879212,-2.126646 -2.149193,-2.416635 h 0.879217 l 2.149194,1.739983 0.39077,2.319972 1.856116,2.126649 0.48845,-3.093305 0.976912,-0.483323 c 1.039864,1.068158 1.859527,2.374468 2.735336,3.576628 l 3.223803,0.193342 1.856109,1.159984 -0.879202,1.256657 -1.85613,1.643317 h -2.735335 l -3.614557,-1.159982 -1.856129,0.193338 -1.367671,1.546658 -3.907625,-3.866626 -2.735347,-0.773324 -4.005311,0.483332 -3.516872,0.966646 c -2.006228,2.25058 -4.060254,4.525943 -5.959143,6.863262 l -2.246878,5.413265 1.074597,1.159998 -1.95382,2.803294 2.149195,4.929944 c 1.788362,2.00178 3.587231,3.990053 5.372999,5.993264 l 2.637647,-2.223306 1.074597,1.353318 2.83303,-1.83664 0.976907,1.063314 h 2.833036 l 1.660742,1.836641 -0.976907,3.286633 1.953813,2.223314 -0.0977,3.86662 1.465358,2.803301 -1.074597,2.416632 c -0.104757,1.73324 -0.195396,3.38976 -0.195396,5.123282 0.861933,2.348482 1.726069,4.691199 2.53996,7.056579 l 0.586142,3.76994 v 1.93336 h 1.563049 l 2.246895,-1.45002 h 2.735343 l 4.103008,-4.54329 -0.48846,-1.54659 2.735342,-2.416688 -2.051512,-2.223307 2.442292,-1.933308 2.34453,-1.449988 1.07465,-1.15998 -0.68384,-2.609977 c 0,-2.197311 1e-5,-4.375638 0,-6.573253 l 1.85611,-4.059951 2.34457,-2.513309 2.53997,-6.186591 v -1.643314 c -1.26397,0.15755 -2.47549,0.299605 -3.71223,0.386663 l 2.53999,-2.513301 3.51683,-2.319976 1.85609,-2.126643 v -2.319971 c -0.42101,-0.78559 -0.84609,-1.631051 -1.26991,-2.41663 l -1.66076,1.933304 -1.27002,-1.449981 -1.85611,-1.449987 v -2.99663 l 2.14915,2.416645 2.44226,-0.290004 c 1.10182,0.989722 2.15976,1.869777 3.12612,2.996637 l 1.09583,-1.38269 c -0.2241,-2.573468 -1.77358,-11.255229 -6.2844,-19.276169 C 106.97463,27.921098 99.953108,22.384587 99.860228,22.284717 l -0.88793,1.328481 -2.149196,2.319977 -2.735334,-2.803307 h 2.735334 l 1.269981,-1.35331 -5.079922,-0.966662 z m -58.712139,1.256647 -0.976907,2.513303 c 0,0 -1.71032,0.279402 -2.149192,0.386665 l -0.44046,-1.663102 C 15.584442,33.365505 10.087085,46.529258 9.0616246,61.054026 c 0.104168,0.482877 1.7936264,3.255366 1.7936264,3.255366 l 4.298385,2.513312 4.298397,1.159982 1.856129,2.223313 2.833021,2.126636 1.660752,-0.289994 1.172287,0.580002 v 0.386655 l -1.563052,4.349957 -1.269987,1.836644 0.390769,0.869986 -0.976908,3.479963 3.614552,6.573253 3.712261,3.189962 1.660735,2.31998 -0.195397,4.833257 1.172297,2.70663 -1.172297,5.21999 c 0,0 -0.156424,-0.0435 0,0.48332 0.15782,0.52643 6.176761,4.06833 6.582491,3.76996 0.404331,-0.304 1.135072,-0.58001 1.135072,-0.58001 l -0.390751,-1.16001 1.660743,-1.54669 0.586134,-1.64324 2.637656,-0.87004 2.051502,-5.02662 -0.586141,-1.35329 1.36767,-2.126618 3.126106,-0.676669 1.563054,-3.673282 -0.390771,-4.543297 2.442278,-3.383278 0.39076,-3.479968 C 51.172082,80.934924 47.884465,79.24547 44.55854,77.552578 l -1.660744,-3.18996 -3.028413,-0.676654 -1.660738,-4.349957 -4.00532,0.483331 -3.516877,-2.513306 -3.712242,3.189966 v 0.48333 C 25.86231,70.661752 24.545101,70.615025 23.555048,70.012669 l -0.781521,-2.319976 v -2.51331 l -2.539956,0.290005 c 0.204397,-1.600918 0.478004,-3.23265 0.683825,-4.833277 h -1.465363 l -1.465366,1.836639 -1.367663,0.676655 -2.051503,-1.159981 -0.195394,-2.513303 0.390771,-2.706638 3.028413,-2.319973 h 2.442269 l 0.488457,-1.353314 3.028417,0.676652 2.24688,2.803305 0.390767,-4.639947 3.907622,-3.189959 1.367673,-3.383298 2.930728,-1.159984 1.563051,-2.319978 3.712244,-0.676656 1.85613,-2.706632 h -5.568374 l 3.516871,-1.643317 h 2.442259 l 3.126114,-1.063326 0.586146,2.996637 1.36766,-2.126648 -1.563057,-1.063317 0.390771,-1.25665 -1.269977,-1.159991 -1.367674,-0.386659 0.390765,-1.449979 -1.0746,-2.029973 -2.442269,0.966643 0.390766,-1.836638 -2.833037,-1.643319 -2.246881,3.86662 0.195391,1.35332 -2.24688,0.966652 -1.367673,2.996636 -0.683833,-2.803303 -3.809945,-1.546644 -0.683832,-2.126646 5.17761,-2.89996 2.24688,-2.126645 0.1954,-2.513314 -1.269985,-0.676653 -1.660743,-0.193329 z m 41.909341,4.639956 v 1.546639 l 0.879211,0.966653 v 2.319983 l -0.488459,3.093293 2.539964,-0.483331 1.856132,-1.836638 -1.660744,-1.546663 c -0.53857,-1.419104 -1.084377,-2.69883 -1.758439,-4.059936 z m -2.149208,3.093286 -1.563046,0.48334 0.39076,2.803298 2.051503,-1.063337 z m 28.623387,25.423044 2.3446,2.706634 2.83298,5.993267 1.75842,1.933305 -0.87921,2.029986 1.56307,1.836643 c -0.71731,0.04702 -1.4119,0.09668 -2.14915,0.09668 -1.33938,-2.784797 -2.39929,-5.59322 -3.41922,-8.506572 l -1.75841,-1.93331 -0.976902,-3.47996 0.683822,-0.676656 z" />
  </g>
</svg>
