<?xml version="1.0" encoding="UTF-8" standalone="no"?>
<!-- Created with Inkscape (http://www.inkscape.org/) -->

<svg
   xmlns:dc="http://purl.org/dc/elements/1.1/"
   xmlns:cc="http://creativecommons.org/ns#"
   xmlns:rdf="http://www.w3.org/1999/02/22-rdf-syntax-ns#"
   xmlns:svg="http://www.w3.org/2000/svg"
   xmlns="http://www.w3.org/2000/svg"
   xmlns:xlink="http://www.w3.org/1999/xlink"
   xmlns:sodipodi="http://sodipodi.sourceforge.net/DTD/sodipodi-0.dtd"
   xmlns:inkscape="http://www.inkscape.org/namespaces/inkscape"
   version="1.1"
   width="128"
   height="128"
   id="svg3759"
   inkscape:version="0.48+devel r"
   sodipodi:docname="applications-graphics.svg">
  <metadata
     id="metadata194365">
    <rdf:RDF>
      <cc:Work
         rdf:about="">
        <dc:format>image/svg+xml</dc:format>
        <dc:type
           rdf:resource="http://purl.org/dc/dcmitype/StillImage" />
        <dc:title></dc:title>
      </cc:Work>
    </rdf:RDF>
  </metadata>
  <sodipodi:namedview
     pagecolor="#ffffff"
     bordercolor="#666666"
     borderopacity="1"
     objecttolerance="10"
     gridtolerance="10"
     guidetolerance="10"
     inkscape:pageopacity="0"
     inkscape:pageshadow="2"
     inkscape:window-width="1535"
     inkscape:window-height="876"
     id="namedview194363"
     showgrid="false"
     inkscape:zoom="2"
     inkscape:cx="26.249998"
     inkscape:cy="58.999896"
     inkscape:window-x="65"
     inkscape:window-y="24"
     inkscape:window-maximized="1"
     inkscape:current-layer="svg3759">
    <inkscape:grid
       type="xygrid"
       id="grid4375" />
  </sodipodi:namedview>
  <defs
     id="defs3761">
    <radialGradient
       cx="10.5625"
       cy="46.0625"
       fx="10.5625"
       fy="46.0625"
       gradientTransform="matrix(1,0,0,0.5328467,0,21.518248)"
       gradientUnits="userSpaceOnUse"
       id="radialGradient3321"
       inkscape:collect="always"
       r="8.5625"
       xlink:href="#linearGradient3315" />
    <linearGradient
       id="linearGradient3315"
       inkscape:collect="always">
      <stop
         id="stop3317"
         offset="0"
         style="stop-color:#000000;stop-opacity:1;" />
      <stop
         id="stop3319"
         offset="1"
         style="stop-color:#000000;stop-opacity:0;" />
    </linearGradient>
    <radialGradient
       cx="6.5"
       cy="23.5"
       fx="6.5"
       fy="23.5"
       gradientUnits="userSpaceOnUse"
       id="radialGradient3832"
       inkscape:collect="always"
       r="4.5"
       xlink:href="#linearGradient2892" />
    <linearGradient
       id="linearGradient2892"
       inkscape:collect="always">
      <stop
         id="stop2894"
         offset="0"
         style="stop-color:black;stop-opacity:1;" />
      <stop
         id="stop2896"
         offset="1"
         style="stop-color:black;stop-opacity:0;" />
    </linearGradient>
    <radialGradient
       cx="6.5"
       cy="23.5"
       fx="6.5"
       fy="23.5"
       gradientUnits="userSpaceOnUse"
       id="radialGradient3834"
       inkscape:collect="always"
       r="4.5"
       xlink:href="#linearGradient2892" />
    <radialGradient
       cx="28.6576"
       cy="33.986694"
       fx="28.6576"
       fy="33.986694"
       gradientTransform="matrix(6.094309,0,0,5.5362497,-144.28802,-152.30749)"
       gradientUnits="userSpaceOnUse"
       id="radialGradient3297"
       inkscape:collect="always"
       r="18.572308"
       xlink:href="#linearGradient3201" />
    <linearGradient
       id="linearGradient3201"
       inkscape:collect="always">
      <stop
         id="stop3203"
         offset="0"
         style="stop-color:#e7ce79;stop-opacity:1" />
      <stop
         id="stop3205"
         offset="1"
         style="stop-color:#c17d11;stop-opacity:1" />
    </linearGradient>
    <linearGradient
       gradientTransform="matrix(1.0458832,0,0,1.0344782,-0.26265892,-0.91441868)"
       gradientUnits="userSpaceOnUse"
       id="linearGradient3238"
       inkscape:collect="always"
       x1="15.299923"
       x2="51.568203"
       xlink:href="#linearGradient3299"
       y1="9.1440983"
       y2="83.076073" />
    <linearGradient
       id="linearGradient3299"
       inkscape:collect="always">
      <stop
         id="stop3301-0"
         offset="0"
         style="stop-color:white;stop-opacity:1;" />
      <stop
         id="stop3303-5"
         offset="1"
         style="stop-color:#ffffff;stop-opacity:0.52091253" />
    </linearGradient>
    <radialGradient
       cx="28.469051"
       cy="23.21442"
       fx="28.469051"
       fy="23.21442"
       gradientTransform="matrix(0.1675436,0.1340677,-0.9393554,1.1739072,43.937672,-7.5867473)"
       gradientUnits="userSpaceOnUse"
       id="radialGradient3274"
       inkscape:collect="always"
       r="12.3671"
       xlink:href="#linearGradient3266" />
    <linearGradient
       id="linearGradient3266"
       inkscape:collect="always">
      <stop
         id="stop3268"
         offset="0"
         style="stop-color:#000000;stop-opacity:1;" />
      <stop
         id="stop3270"
         offset="1"
         style="stop-color:#000000;stop-opacity:0;" />
    </linearGradient>
    <linearGradient
       gradientTransform="matrix(0.8048011,-0.08405894,-0.2587753,0.8411918,10.723364,3.5105159)"
       gradientUnits="userSpaceOnUse"
       id="linearGradient3279"
       inkscape:collect="always"
       x1="33.175713"
       x2="31.180811"
       xlink:href="#linearGradient3310"
       y1="18.657627"
       y2="17.17729" />
    <linearGradient
       id="linearGradient3310"
       inkscape:collect="always">
      <stop
         id="stop3312"
         offset="0"
         style="stop-color:#c17d11;stop-opacity:1" />
      <stop
         id="stop3314"
         offset="1"
         style="stop-color:#e9b96e;stop-opacity:1" />
    </linearGradient>
    <linearGradient
       gradientTransform="translate(1.0640333,0.0246337)"
       gradientUnits="userSpaceOnUse"
       id="linearGradient3236"
       inkscape:collect="always"
       x1="21.424923"
       x2="16.6399"
       xlink:href="#linearGradient3088"
       y1="14.769098"
       y2="5.5" />
    <linearGradient
       id="linearGradient3088"
       inkscape:collect="always">
      <stop
         id="stop3090"
         offset="0"
         style="stop-color:white;stop-opacity:1;" />
      <stop
         id="stop3092"
         offset="1"
         style="stop-color:white;stop-opacity:0.34600762" />
    </linearGradient>
    <linearGradient
       gradientTransform="matrix(0.8048011,-0.08405894,-0.2587753,0.8411918,10.723364,3.5105159)"
       gradientUnits="userSpaceOnUse"
       id="linearGradient3276"
       inkscape:collect="always"
       x1="19.635454"
       x2="23.529133"
       xlink:href="#linearGradient3235"
       y1="29.591417"
       y2="33.485096" />
    <linearGradient
       id="linearGradient3235"
       inkscape:collect="always">
      <stop
         id="stop3237"
         offset="0"
         style="stop-color:#eeeeec;stop-opacity:1" />
      <stop
         id="stop3239"
         offset="1"
         style="stop-color:#888a85;stop-opacity:1" />
    </linearGradient>
    <linearGradient
       gradientTransform="translate(0,-1)"
       gradientUnits="userSpaceOnUse"
       id="linearGradient3308"
       inkscape:collect="always"
       x1="18.1875"
       x2="41.4375"
       xlink:href="#linearGradient3301"
       y1="28.625"
       y2="6.1875" />
    <linearGradient
       id="linearGradient3301"
       inkscape:collect="always">
      <stop
         id="stop3304"
         offset="0"
         style="stop-color:#ffffff;stop-opacity:1;" />
      <stop
         id="stop3306"
         offset="1"
         style="stop-color:#ffffff;stop-opacity:0;" />
    </linearGradient>
    <radialGradient
       cx="23.537704"
       cy="36.025131"
       fx="23.537704"
       fy="36.025131"
       gradientTransform="matrix(0.9409277,0,0,1.0482489,1.8315588,-3.1281609)"
       gradientUnits="userSpaceOnUse"
       id="radialGradient2917"
       inkscape:collect="always"
       r="4.244812"
       xlink:href="#linearGradient2911" />
    <linearGradient
       id="linearGradient2911"
       inkscape:collect="always">
      <stop
         id="stop2913"
         offset="0"
         style="stop-color:#8ae234;stop-opacity:1" />
      <stop
         id="stop2915"
         offset="1"
         style="stop-color:#73d216;stop-opacity:1" />
    </linearGradient>
    <linearGradient
       gradientTransform="matrix(1.0409543,0,0,1.3537531,-1.4197454,-18.216897)"
       gradientUnits="userSpaceOnUse"
       id="linearGradient3240"
       inkscape:collect="always"
       x1="10.593056"
       x2="10.165062"
       xlink:href="#linearGradient3126"
       y1="38.581955"
       y2="43.382187" />
    <linearGradient
       id="linearGradient3126"
       inkscape:collect="always">
      <stop
         id="stop3128"
         offset="0"
         style="stop-color:#555753;stop-opacity:1" />
      <stop
         id="stop3130"
         offset="1"
         style="stop-color:#1f2324;stop-opacity:1" />
    </linearGradient>
    <linearGradient
       gradientTransform="matrix(0.74176721,0,0,0.79934586,2.3404366,3.3754919)"
       gradientUnits="userSpaceOnUse"
       id="linearGradient3237"
       inkscape:collect="always"
       x1="9.3437004"
       x2="10.924745"
       xlink:href="#linearGradient3171"
       y1="38.811657"
       y2="46.82093" />
    <linearGradient
       id="linearGradient3171"
       inkscape:collect="always">
      <stop
         id="stop3173"
         offset="0"
         style="stop-color:white;stop-opacity:1;" />
      <stop
         id="stop3175"
         offset="1"
         style="stop-color:white;stop-opacity:0.06844106" />
    </linearGradient>
    <linearGradient
       gradientUnits="userSpaceOnUse"
       id="linearGradient3252"
       inkscape:collect="always"
       x1="12.186543"
       x2="12.186543"
       xlink:href="#linearGradient3171"
       y1="38.012455"
       y2="39.53223"
       gradientTransform="matrix(2.5140975,0,0,2.1841119,-19.622596,-49.688737)" />
    <radialGradient
       cx="32.450172"
       cy="33.609394"
       fx="32.450172"
       fy="33.609394"
       gradientTransform="matrix(0.636942,0.6968413,0.5532571,-0.5101348,-5.0012019,25.362698)"
       gradientUnits="userSpaceOnUse"
       id="radialGradient2872"
       inkscape:collect="always"
       r="5.0383153"
       xlink:href="#linearGradient2866" />
    <linearGradient
       id="linearGradient2866"
       inkscape:collect="always">
      <stop
         id="stop2868"
         offset="0"
         style="stop-color:#ef2929;stop-opacity:1" />
      <stop
         id="stop2870"
         offset="1"
         style="stop-color:#cc0000;stop-opacity:1" />
    </linearGradient>
    <linearGradient
       gradientTransform="matrix(0.8048011,-0.08405894,-0.2587753,0.8411918,10.626724,5.876157)"
       gradientUnits="userSpaceOnUse"
       id="linearGradient3270"
       inkscape:collect="always"
       x1="38.289421"
       x2="36.610626"
       xlink:href="#linearGradient3222"
       y1="5.2539482"
       y2="7.3314619" />
    <linearGradient
       id="linearGradient3222"
       inkscape:collect="always">
      <stop
         id="stop3224"
         offset="0"
         style="stop-color:#eac586;stop-opacity:1;" />
      <stop
         id="stop3226"
         offset="1"
         style="stop-color:#eac586;stop-opacity:0;" />
    </linearGradient>
    <radialGradient
       cx="33.290813"
       cy="36.070057"
       fx="33.290813"
       fy="36.070057"
       gradientTransform="matrix(-0.8570757,0.7036892,-0.6305522,-0.6305522,89.275623,19.18785)"
       gradientUnits="userSpaceOnUse"
       id="radialGradient2878"
       inkscape:collect="always"
       r="5.0383153"
       xlink:href="#linearGradient2880" />
    <linearGradient
       id="linearGradient2880"
       inkscape:collect="always">
      <stop
         id="stop2882"
         offset="0"
         style="stop-color:#729fcf;stop-opacity:1" />
      <stop
         id="stop2884"
         offset="1"
         style="stop-color:#3465a4;stop-opacity:1" />
    </linearGradient>
  </defs>
  <g
     id="g48"
     style="display:inline;enable-background:new"
     transform="matrix(2.6886685,0,0,2.7183371,-0.33276628,-1.461032)">
    <ellipse
       ry="4.5625"
       rx="8.5625"
       cy="46.0625"
       cx="10.5625"
       id="path3305"
       style="opacity:0.1;fill:url(#radialGradient3321);fill-opacity:1;stroke:none"
       transform="matrix(1.1094891,0,0,0.5479452,-1.7189781,16.635274)"
       d="M 19.125,46.0625 A 8.5625,4.5625 0 0 1 10.5625,50.625 8.5625,4.5625 0 0 1 2,46.0625 8.5625,4.5625 0 0 1 10.5625,41.5 8.5625,4.5625 0 0 1 19.125,46.0625 Z" />
    <g
       id="g3828"
       style="opacity:0.30268196"
       transform="matrix(1.2345971,0,0,1.1113159,-22.671972,-10.707451)">
      <path
         d="m 2,23.5 a 4.5,4.5 0 0 1 9,0 l -4.5,0 z"
         id="path3814"
         sodipodi:cx="6.5"
         sodipodi:cy="23.5"
         sodipodi:end="6.2831853"
         sodipodi:rx="4.5"
         sodipodi:ry="4.5"
         sodipodi:start="3.1415927"
         sodipodi:type="arc"
         style="fill:url(#radialGradient3832);fill-opacity:1;fill-rule:evenodd;stroke:none"
         transform="matrix(0,-1,5.888889,0,-94.88889,53)" />
      <path
         d="m 2,23.5 a 4.5,4.5 0 0 1 9,0 l -4.5,0 z"
         id="path3824"
         sodipodi:cx="6.5"
         sodipodi:cy="23.5"
         sodipodi:end="6.2831853"
         sodipodi:rx="4.5"
         sodipodi:ry="4.5"
         sodipodi:start="3.1415927"
         sodipodi:type="arc"
         style="fill:url(#radialGradient3834);fill-opacity:1;fill-rule:evenodd;stroke:none"
         transform="matrix(0,-1,-3,0,114,53)" />
    </g>
    <path
       inkscape:connector-curvature="0"
       d="M 22.945921,4.4075552 C 17.029328,4.484483 9.0284759,6.5654826 9.1624007,13.011173 c 0.1428639,6.875894 8.6414943,4.089173 8.9616653,7.144032 0.51746,4.93727 -10.260132,19.958043 6.113986,22.902831 C 35.169368,45.023969 46.771108,38.27434 45.60549,24.654533 44.557224,12.405942 34.335483,4.7193498 24.11199,4.4075552 c -0.373505,-0.011391 -0.77163,-0.00513 -1.166069,0 z M 20.31885,8.4404605 c 3.187394,0 5.346967,1.6079045 5.346967,3.5396165 1e-6,1.931711 -2.12591,3.848569 -5.346967,3.848569 -3.283906,0 -5.145342,-1.916858 -5.145342,-3.848569 0,-1.931712 1.861436,-3.5396165 5.145342,-3.5396165 z"
       id="path2193"
       style="fill:url(#radialGradient3297);fill-opacity:1;fill-rule:evenodd;stroke:#c17d11;stroke-width:0.369899;stroke-linecap:butt;stroke-linejoin:miter;stroke-miterlimit:4;stroke-opacity:1;stroke-dasharray:none"
       sodipodi:nodetypes="cssssscsssss" />
    <path
       inkscape:connector-curvature="0"
       d="m 22.779452,4.7752107 c -2.953868,0.038317 -6.429493,0.6482661 -8.988058,1.9531737 -2.295739,1.1708627 -4.1313959,3.0734754 -4.2581376,5.8054116 -0.082766,1.784028 0.5295426,3.01619 1.1440606,3.641908 0.68875,0.701304 1.638723,1.118246 2.689131,1.390924 1.050408,0.27268 2.527627,0.552055 3.203017,0.739248 0.516517,0.143158 0.939596,0.356494 1.326966,0.667127 0.343469,0.275428 0.540177,0.625624 0.612704,1.26189 0.134295,1.178138 -0.50124,3.32603 -1.209641,5.553155 -0.7084,2.227128 -1.434952,4.669237 -1.720122,6.982727 -0.285172,2.313494 0.145017,4.427597 1.299361,6.109886 1.154353,1.682291 3.366499,3.084334 7.436859,3.814639 5.395239,0.968014 10.928292,-0.214283 14.936519,-3.265071 4.008229,-3.050788 6.559395,-7.903588 5.981144,-14.644332 C 44.191816,12.645744 34.1782,5.0862294 23.956072,4.7752107 c -0.352456,-0.010723 -0.765603,-0.00533 -1.17662,0 z"
       id="path3230"
       sodipodi:nodetypes="cssssssssssssssc"
       style="opacity:0.67049806;fill:none;stroke:url(#linearGradient3238);stroke-width:0.36989903;stroke-linecap:butt;stroke-linejoin:miter;stroke-miterlimit:4;stroke-opacity:1" />
    <path
       d="M 35.609375,8.3183594 A 0.49390987,0.49390987 0 0 0 35.289062,8.4238281 C 26.312516,15.437283 21.689367,20.761894 19.117188,24.189453 17.405073,26.302581 15.48999,29.478264 13.9375,32.425781 a 0.49390987,0.49390987 0 0 0 -0.05273,0.175781 c -0.218609,1.997666 -0.09217,4.001724 0.765625,5.769532 a 0.49390987,0.49390987 0 0 0 0.689453,0.21289 c 4.014435,-2.30999 9.155032,-7.162221 10.53125,-8.757812 2.936442,-3.355933 7.652938,-9.29311 12.597656,-18.689453 a 0.49390987,0.49390987 0 0 0 -0.0918,-0.583985 C 37.598227,9.7899647 36.76617,9.0582771 35.884766,8.4140625 a 0.49390987,0.49390987 0 0 0 -0.275391,-0.095703 z"
       id="path3260"
       inkscape:original="M 35.59375 8.8125 C 26.637129 15.810387 22.047254 21.103661 19.5 24.5 C 17.827475 26.564266 15.917493 29.727714 14.375 32.65625 C 14.162554 34.597604 14.291968 36.50388 15.09375 38.15625 C 19.00526 35.905485 24.206667 31.000466 25.5 29.5 C 28.41897 26.164035 33.106845 20.263993 38.03125 10.90625 C 37.265184 10.155881 36.450537 9.4387222 35.59375 8.8125 z "
       inkscape:radius="0.49386048"
       sodipodi:type="inkscape:offset"
       style="opacity:0.16475094;fill:url(#radialGradient3274);fill-opacity:1;fill-rule:evenodd;stroke:none"
       transform="translate(0.4375,-0.875)" />
    <path
       inkscape:connector-curvature="0"
       d="M 24.377603,26.216886 C 28.122394,22.659661 34.668929,15.824043 42.5,4.9999999 42.815076,4.651051 42.290608,4.3510868 42,4.5 30.168297,12.786013 24.217866,18.976254 20.842673,22.51528"
       id="path3096"
       sodipodi:nodetypes="cccc"
       style="fill:url(#linearGradient3279);fill-opacity:1;fill-rule:evenodd;stroke:#8f5902;stroke-width:0.36989906px;stroke-linecap:butt;stroke-linejoin:round;stroke-opacity:1" />
    <path
       inkscape:connector-curvature="0"
       d="m 21.436423,21.92153 c 1.481476,0.593851 2.797936,1.536069 3.53493,3.701606 -1.500396,1.439227 -7.463448,6.424706 -11.18179,8.495374 l -1.092052,-1.514265 c 2.112915,-3.07026 5.97347,-7.921974 8.738912,-10.682715 l 0,0 z"
       id="path3316"
       sodipodi:nodetypes="ccccc"
       style="opacity:0.15;fill:#000000;fill-opacity:1;fill-rule:evenodd;stroke:#000000;stroke-width:0.36989909;stroke-linecap:butt;stroke-linejoin:round;stroke-miterlimit:4;stroke-opacity:1;stroke-dasharray:none" />
    <path
       inkscape:connector-curvature="0"
       d="m 20.564033,8.0669678 c 1.570976,0 3.049515,0.5151267 4.125,1.3229702 0.882022,0.662525 1.322594,1.673003 1.340493,2.634696 0.01794,0.963907 -0.468951,2.003297 -1.527522,2.832617 -1.102284,0.863567 -2.6755,1.316898 -3.937971,1.335375 -1.570976,0.02299 -2.91216,-0.332982 -4.025494,-1.088901 -0.916318,-0.622151 -1.750637,-1.723344 -1.750637,-3.079091 0,-1.252283 0.598514,-2.1960118 1.700798,-2.9676104 1.102284,-0.7715986 2.504357,-0.9900558 4.075333,-0.9900558 z"
       id="path3086"
       sodipodi:nodetypes="csssssssc"
       style="opacity:0.7356322;fill:none;stroke:url(#linearGradient3236);stroke-width:0.36989909;stroke-linecap:butt;stroke-linejoin:miter;stroke-miterlimit:4;stroke-opacity:1" />
    <path
       inkscape:connector-curvature="0"
       d="m 20.842673,22.51528 c 1.481476,0.593851 2.797936,1.536069 3.53493,3.701606 -1.500396,1.439227 -7.463448,6.424706 -11.18179,8.495374 l -1.092052,-1.514265 c 2.112915,-3.07026 5.97347,-7.921974 8.738912,-10.682715 l 0,0 z"
       id="path3098"
       sodipodi:nodetypes="ccccc"
       style="fill:url(#linearGradient3276);fill-opacity:1;fill-rule:evenodd;stroke:#888a85;stroke-width:0.36989906px;stroke-linecap:butt;stroke-linejoin:miter;stroke-opacity:1" />
    <g
       id="g3292"
       style="opacity:0.13026817"
       transform="translate(1.2209709,0.4254758)">
      <path
         inkscape:connector-curvature="0"
         d="m 26.973893,37.54584 c -0.981039,0.592836 0.07153,1.273848 0.544949,1.67058 0.375468,0.314644 -0.188397,1.835332 -0.860815,1.163308 -0.77491,-0.774458 -1.273839,-1.851888 -1.577772,-1.879501 -1.746924,-0.158722 -0.401869,2.147771 -1.807633,1.640503 -0.841208,-0.30355 0.205427,-1.577839 -0.917893,-1.968926 -0.892406,-0.310696 -0.803744,0.644057 -1.31976,0.178846 -2.429276,-2.190108 -1.152388,-4.092588 -0.02815,-5.578351 1.124252,-1.485787 3.345193,-1.645116 4.992107,-0.327618 1.646912,1.317498 2.083698,3.602818 0.974969,5.101159 l -2e-6,0 z"
         id="path3286"
         sodipodi:nodetypes="cssssssssc"
         style="fill:#000000;fill-opacity:1;fill-rule:evenodd;stroke:#000000;stroke-width:0.36989903;stroke-linecap:butt;stroke-linejoin:round;stroke-miterlimit:5;stroke-opacity:1" />
      <path
         inkscape:connector-curvature="0"
         d="m 35.474535,34.568302 c 0.894548,0 2.39583,0.150996 2.790916,0.615637 0.923827,1.086467 1.743502,-0.342638 1.040709,-0.959593 -0.809917,-0.710995 -1.886381,-1.120206 -1.939258,-1.422238 -0.303925,-1.735995 2.024552,-0.582617 1.416042,-1.947741 -0.364131,-0.81689 -1.495114,0.338088 -1.967688,-0.753954 -0.375429,-0.867558 0.547768,-0.858881 0.05686,-1.33657 -2.311049,-2.248844 -4.024394,-0.810592 -5.351418,0.439837 -1.327044,1.250445 -1.286919,3.487787 0.119448,5.026412 0.577587,0.631904 0.861404,2.150838 1.598016,2.333503 1.056967,0.262105 -0.01621,-1.995293 2.236369,-1.995293 l 4e-6,0 z"
         id="path3288"
         sodipodi:nodetypes="cssssssssss"
         style="fill:#000000;fill-opacity:1;fill-rule:evenodd;stroke:#000000;stroke-width:0.36989909;stroke-linecap:butt;stroke-linejoin:round;stroke-miterlimit:5;stroke-opacity:1" />
      <path
         inkscape:connector-curvature="0"
         d="m 37.120265,23.64763 c -0.880935,0 -1.057367,0.607951 -1.47249,0.999606 -0.329232,0.310617 -1.71697,-0.304448 -1.024872,-0.852636 0.797593,-0.631744 0.972799,-1.378012 1.024872,-1.64638 0.299301,-1.542499 -2.656061,-0.792599 -2.048119,-2.001071 0.442679,-0.879967 2.052495,-0.04213 2.048119,-0.497944 -0.0067,-0.702831 -0.4201,-1.764624 0.460645,-1.938266 1.853165,-0.365357 3.986414,0.912172 4.991236,1.93621 0.960731,0.979104 0.427845,2.691241 -0.140195,3.907468 -0.347066,0.743101 -1.142342,2.255472 -2.064528,2.073408 -1.046421,-0.206591 0.443637,-1.980395 -1.774668,-1.980395 z"
         id="path3290"
         sodipodi:nodetypes="cssssssssss"
         style="fill:#000000;fill-opacity:1;fill-rule:evenodd;stroke:#000000;stroke-width:0.36989909;stroke-linecap:butt;stroke-linejoin:round;stroke-miterlimit:5;stroke-opacity:1" />
    </g>
    <path
       inkscape:connector-curvature="0"
       d="M 12.9375,33.4375 C 18.547566,24.933929 36.615367,9.233779 40.5,6.6249999 32.235232,15.427256 21.892146,25.266733 12.9375,33.4375 Z"
       id="path3299"
       sodipodi:nodetypes="ccc"
       style="opacity:0.68000034;fill:url(#linearGradient3308);fill-opacity:1;fill-rule:evenodd;stroke:none" />
    <path
       inkscape:connector-curvature="0"
       d="m 27.973893,37.54584 c -0.981039,0.592836 0.07153,1.273848 0.544949,1.67058 0.375468,0.314644 -0.188397,1.835332 -0.860815,1.163308 -0.77491,-0.774458 -1.273839,-1.851888 -1.577772,-1.879501 -1.746924,-0.158722 -0.401869,2.147771 -1.807633,1.640503 -0.841208,-0.30355 0.205427,-1.577839 -0.917893,-1.968926 -0.892406,-0.310696 -0.803744,0.644057 -1.31976,0.178846 -2.429276,-2.190108 -1.152388,-4.092588 -0.02815,-5.578351 1.124252,-1.485787 3.345193,-1.645116 4.992107,-0.327618 1.646912,1.317498 2.083698,3.602818 0.974969,5.101159 l -2e-6,0 z"
       id="path1937"
       sodipodi:nodetypes="cssssssssc"
       style="fill:url(#radialGradient2917);fill-opacity:1;fill-rule:evenodd;stroke:#4e9a06;stroke-width:0.36989903;stroke-linecap:butt;stroke-linejoin:round;stroke-miterlimit:5;stroke-opacity:1" />
    <path
       inkscape:connector-curvature="0"
       d="m 25.868238,32.799342 c -1.333278,-0.778122 -2.840055,0.04794 -3.375,0.71875 -0.534945,0.670812 -1.261138,1.982461 -0.6875,3.21875 0.376806,-1.189309 0.918476,-1.979945 1.46875,-2.59375 0.551092,-0.614718 1.193087,-1.276611 2.59375,-1.34375 z"
       id="path2836"
       sodipodi:nodetypes="csczc"
       style="opacity:0.77011497;fill:#eeeeec;fill-opacity:1;fill-rule:evenodd;stroke:none" />
    <path
       inkscape:connector-curvature="0"
       d="m 2.2235899,39.870334 c 4.8856851,0.0018 4.3940236,-5.22486 6.7662036,-6.827109 2.7489205,-1.856714 5.1579095,0.443956 5.6388605,2.337356 0.606865,2.389102 -0.434089,5.014768 -3.556951,6.065092 -3.5014049,1.177642 -8.4426894,0.507917 -8.8481131,-1.575339 z"
       id="path3100"
       sodipodi:nodetypes="csssc"
       style="fill:url(#linearGradient3240);fill-opacity:1;fill-rule:evenodd;stroke:#000000;stroke-width:0.36989909;stroke-linecap:butt;stroke-linejoin:miter;stroke-miterlimit:4;stroke-opacity:1" />
    <path
       inkscape:connector-curvature="0"
       d="m 2.7607064,40.24939 c 2.3061109,-0.240388 3.6613701,-1.50457 5.0613621,-5.031809 1.8092847,-4.55844 7.0153755,-2.36457 6.5535895,1.946802 -0.713855,5.832923 -10.2140728,4.882832 -11.6149516,3.085007 z"
       id="path3161"
       sodipodi:nodetypes="cscc"
       style="opacity:0.29118772;fill:none;stroke:url(#linearGradient3237);stroke-width:0.36989906;stroke-linecap:butt;stroke-linejoin:round;stroke-miterlimit:5;stroke-opacity:1;stroke-dasharray:none" />
    <ellipse
       ry="2.2787533"
       rx="2.861043"
       cy="34.854248"
       cx="11.015562"
       id="path3177"
       style="opacity:0.5;fill:url(#linearGradient3252);fill-opacity:1;fill-rule:evenodd;stroke:none"
       d="m 13.876605,34.854248 a 2.861043,2.2787533 0 0 1 -2.861043,2.278753 2.861043,2.2787533 0 0 1 -2.8610429,-2.278753 2.861043,2.2787533 0 0 1 2.8610429,-2.278753 2.861043,2.2787533 0 0 1 2.861043,2.278753 z" />
    <path
       inkscape:connector-curvature="0"
       d="m 36.474535,34.557936 c 0.894548,0 2.39583,0.150996 2.790916,0.615637 0.923827,1.086467 1.743502,-0.342638 1.040709,-0.959593 -0.809917,-0.710995 -1.886381,-1.120206 -1.939258,-1.422238 -0.303925,-1.735995 2.024552,-0.582617 1.416042,-1.947741 -0.364131,-0.81689 -1.495114,0.338088 -1.967688,-0.753954 -0.375429,-0.867558 0.547768,-0.858881 0.05686,-1.33657 -2.311049,-2.248844 -4.024394,-0.810592 -5.351418,0.439837 -1.327044,1.250445 -1.286919,3.487787 0.119448,5.026412 0.577587,0.631904 0.861404,2.150838 1.598016,2.333503 1.056967,0.262105 -0.01621,-1.995293 2.236369,-1.995293 l 4e-6,0 z"
       id="path2852"
       sodipodi:nodetypes="cssssssssss"
       style="fill:url(#radialGradient2872);fill-opacity:1;fill-rule:evenodd;stroke:#a40000;stroke-width:0.36989909;stroke-linecap:butt;stroke-linejoin:round;stroke-miterlimit:5;stroke-opacity:1" />
    <path
       inkscape:connector-curvature="0"
       d="M 41.510654,5.5 38.5,8.5088128"
       id="path3212"
       sodipodi:nodetypes="cc"
       style="fill:none;stroke:url(#linearGradient3270);stroke-width:0.36989906px;stroke-linecap:round;stroke-linejoin:miter;stroke-opacity:1" />
    <path
       inkscape:connector-curvature="0"
       d="m 38.120265,23.64763 c -0.880935,0 -1.057367,0.607951 -1.47249,0.999606 -0.329232,0.310617 -1.71697,-0.304448 -1.024872,-0.852636 0.797593,-0.631744 0.972799,-1.378012 1.024872,-1.64638 0.299301,-1.542499 -2.656061,-0.792599 -2.048119,-2.001071 0.442679,-0.879967 2.052495,-0.04213 2.048119,-0.497944 -0.0067,-0.702831 -0.4201,-1.764624 0.460645,-1.938266 1.853165,-0.365357 3.986414,0.912172 4.991236,1.93621 0.960731,0.979104 0.427845,2.691241 -0.140195,3.907468 -0.347066,0.743101 -1.142342,2.255472 -2.064528,2.073408 -1.046421,-0.206591 0.443637,-1.980395 -1.774668,-1.980395 z"
       id="path2876"
       sodipodi:nodetypes="cssssssssss"
       style="fill:url(#radialGradient2878);fill-opacity:1;fill-rule:evenodd;stroke:#204a87;stroke-width:0.36989909;stroke-linecap:butt;stroke-linejoin:round;stroke-miterlimit:5;stroke-opacity:1" />
    <path
       inkscape:connector-curvature="0"
       d="m 38.099656,18.647149 c -0.855286,0.387353 -1,1.5 -0.5,2.5 0.533147,-1.446702 2,-1 3.5,-1 -0.5,-1 -2.403676,-1.699471 -3,-1.5 z"
       id="path2886"
       sodipodi:nodetypes="cccc"
       style="opacity:0.77011497;fill:#eeeeec;fill-opacity:1;fill-rule:evenodd;stroke:none" />
    <path
       inkscape:connector-curvature="0"
       d="m 36.768036,28.806537 c -1.333278,-0.778122 -2.840055,0.04794 -3.375,0.71875 -0.534945,0.670812 -1.261138,1.982461 -0.6875,3.21875 0.376806,-1.189309 0.918476,-1.979945 1.46875,-2.59375 0.551092,-0.614718 1.193087,-1.276611 2.59375,-1.34375 l 0,0 z"
       id="path3280"
       sodipodi:nodetypes="csczc"
       style="opacity:0.77011497;fill:#eeeeec;fill-opacity:1;fill-rule:evenodd;stroke:none" />
  </g>
</svg>
