<?xml version="1.0" encoding="UTF-8" standalone="no"?>
<svg
   version="1.1"
   width="128"
   height="128"
   id="svg9767"
   sodipodi:docname="applications-multimedia.svg"
   inkscape:version="1.1.2 (0a00cf5339, 2022-02-04)"
   xmlns:inkscape="http://www.inkscape.org/namespaces/inkscape"
   xmlns:sodipodi="http://sodipodi.sourceforge.net/DTD/sodipodi-0.dtd"
   xmlns:xlink="http://www.w3.org/1999/xlink"
   xmlns="http://www.w3.org/2000/svg"
   xmlns:svg="http://www.w3.org/2000/svg"
   xmlns:rdf="http://www.w3.org/1999/02/22-rdf-syntax-ns#"
   xmlns:cc="http://creativecommons.org/ns#"
   xmlns:dc="http://purl.org/dc/elements/1.1/">
  <sodipodi:namedview
     id="namedview21"
     pagecolor="#ffffff"
     bordercolor="#666666"
     borderopacity="1.0"
     inkscape:pageshadow="2"
     inkscape:pageopacity="0.0"
     inkscape:pagecheckerboard="0"
     showgrid="false"
     inkscape:zoom="2"
     inkscape:cx="79.25"
     inkscape:cy="84.5"
     inkscape:window-width="1317"
     inkscape:window-height="893"
     inkscape:window-x="601"
     inkscape:window-y="97"
     inkscape:window-maximized="0"
     inkscape:current-layer="svg9767"
     inkscape:snap-global="false" />
  <defs
     id="defs9769">
    <linearGradient
       id="linearGradient1258">
      <stop
         id="stop1250"
         style="stop-color:#ffffff;stop-opacity:1"
         offset="0" />
      <stop
         id="stop1252"
         style="stop-color:#ffffff;stop-opacity:0.23529412"
         offset="0.09999999" />
      <stop
         id="stop1254"
         style="stop-color:#ffffff;stop-opacity:0.15686275"
         offset="1" />
      <stop
         id="stop1256"
         style="stop-color:#ffffff;stop-opacity:0.39215687"
         offset="1" />
    </linearGradient>
    <linearGradient
       id="linearGradient864">
      <stop
         style="stop-color:#ffa154;stop-opacity:1"
         offset="0"
         id="stop860" />
      <stop
         style="stop-color:#f37329;stop-opacity:1"
         offset="1"
         id="stop862" />
    </linearGradient>
    <linearGradient
       xlink:href="#linearGradient864"
       id="linearGradient866-3"
       x1="23.932209"
       y1="2.4120836"
       x2="23.932209"
       y2="21.493765"
       gradientUnits="userSpaceOnUse"
       gradientTransform="matrix(5.8421045,0,0,5.8421045,-52.842093,-6.1052503)" />
    <linearGradient
       gradientTransform="matrix(2.9459461,0,0,2.9459459,-6.7027256,-6.7026811)"
       gradientUnits="userSpaceOnUse"
       xlink:href="#linearGradient1258"
       id="linearGradient5397-6"
       y2="40.078964"
       x2="30.526697"
       y1="5.7253451"
       x1="30.526697" />
  </defs>
  <metadata
     id="metadata9772">
    <rdf:RDF>
      <cc:Work
         rdf:about="">
        <dc:format>image/svg+xml</dc:format>
        <dc:type
           rdf:resource="http://purl.org/dc/dcmitype/StillImage" />
      </cc:Work>
    </rdf:RDF>
  </metadata>
  <rect
     width="111"
     height="111"
     rx="7"
     ry="7"
     x="8.5"
     y="8.5"
     id="rect5505-21-8"
     style="color:#000000;display:inline;overflow:visible;visibility:visible;fill:url(#linearGradient866-3);fill-opacity:1;fill-rule:nonzero;stroke:none;stroke-width:0.999999;marker:none;enable-background:accumulate" />
  <rect
     width="109"
     height="109"
     x="9.499999"
     y="9.499999"
     id="rect6741-9-0"
     style="opacity:0.5;fill:none;stroke:url(#linearGradient5397-6);stroke-width:0.999999;stroke-linecap:round;stroke-linejoin:round;stroke-miterlimit:4;stroke-dasharray:none;stroke-dashoffset:0;stroke-opacity:1"
     rx="6"
     ry="6" />
  <rect
     width="111"
     height="111"
     rx="7"
     ry="7"
     x="8.5"
     y="8.5"
     id="rect5505-21-8-1-7"
     style="color:#000000;display:inline;overflow:visible;visibility:visible;opacity:0.5;fill:none;stroke:#a62100;stroke-width:0.999999;stroke-linecap:round;stroke-linejoin:round;stroke-miterlimit:4;stroke-dasharray:none;stroke-dashoffset:0;stroke-opacity:1;marker:none;enable-background:accumulate" />
  <path
     style="color:#000000;clip-rule:nonzero;display:inline;overflow:visible;visibility:visible;isolation:auto;mix-blend-mode:normal;color-interpolation:sRGB;color-interpolation-filters:linearRGB;solid-color:#000000;solid-opacity:1;fill:#a62100;fill-opacity:0.5;fill-rule:nonzero;stroke:none;stroke-width:1;stroke-linecap:butt;stroke-linejoin:miter;stroke-miterlimit:4;stroke-dasharray:none;stroke-dashoffset:0;stroke-opacity:1;marker:none;color-rendering:auto;image-rendering:auto;shape-rendering:auto;text-rendering:auto;enable-background:accumulate"
     id="path835"
     d="m 93.152812,23 c 2.211252,0.372184 3.847972,2.750908 3.847972,5.39674 V 86.349188 C 96.271944,91.483884 91.509656,96.353236 84.8799,98.074168 76.569752,100.23132 68.383384,96.633956 66.602032,90.193444 64.820708,83.752936 70.028204,76.78136 78.338352,74.624212 82.943532,73.428804 87.542008,74.16038 91.000676,75.9697 V 45.119252 L 51.000394,55.451508 v 42.19938 c -0.72884,5.134692 -5.333944,10.004042 -11.9637,11.724982 -8.310148,2.15715 -15.87296,-1.83944 -17.654284,-8.27995 -1.78132,-6.440504 2.80318,-13.012856 11.113332,-15.170008 4.605176,-1.195408 9.046,-0.463832 12.504664,1.345492 V 41.996616 c 0,-3.527736 2.746524,-7.159912 6.157388,-8.072936 L 93.153032,23 h 2.2e-4"
     sodipodi:nodetypes="cscsssccccssscsccc" />
  <path
     style="color:#000000;clip-rule:nonzero;display:inline;overflow:visible;visibility:visible;isolation:auto;mix-blend-mode:normal;color-interpolation:sRGB;color-interpolation-filters:linearRGB;solid-color:#000000;solid-opacity:1;fill:#fffdfd;fill-opacity:1;fill-rule:nonzero;stroke:none;stroke-width:1;stroke-linecap:butt;stroke-linejoin:miter;stroke-miterlimit:4;stroke-dasharray:none;stroke-dashoffset:0;stroke-opacity:1;marker:none;color-rendering:auto;image-rendering:auto;shape-rendering:auto;text-rendering:auto;enable-background:accumulate"
     id="path16590-0"
     d="m 93.152812,21.999916 c 2.211252,0.372184 3.847972,2.750908 3.847972,5.39674 V 85.349104 C 96.271944,90.4838 91.509656,95.353152 84.8799,97.074084 76.569752,99.231236 68.383384,95.633872 66.602032,89.19336 c -1.781324,-6.440508 3.426172,-13.412084 11.73632,-15.569232 4.60518,-1.195408 9.203656,-0.463832 12.662324,1.345488 V 44.119168 L 51.000394,54.451424 v 42.19938 c -0.72884,5.134696 -5.333944,10.004046 -11.9637,11.724986 -8.310148,2.15715 -15.87296,-1.83944 -17.654284,-8.27995 -1.78132,-6.440508 2.80318,-13.01286 11.113332,-15.170012 4.605176,-1.195408 9.046,-0.463832 12.504664,1.345492 V 40.996532 c 0,-3.527736 2.746524,-7.159912 6.157388,-8.072936 l 41.995238,-10.92368 h 2.2e-4"
     sodipodi:nodetypes="cscsssccccssscsccc" />
</svg>
