<?xml version="1.0" encoding="UTF-8" standalone="no"?>
<svg
   xmlns:dc="http://purl.org/dc/elements/1.1/"
   xmlns:cc="http://creativecommons.org/ns#"
   xmlns:rdf="http://www.w3.org/1999/02/22-rdf-syntax-ns#"
   xmlns:svg="http://www.w3.org/2000/svg"
   xmlns="http://www.w3.org/2000/svg"
   xmlns:xlink="http://www.w3.org/1999/xlink"
   version="1.0"
   width="16"
   height="16"
   id="svg2">
  <metadata
     id="metadata48">
    <rdf:RDF>
      <cc:Work
         rdf:about="">
        <dc:format>image/svg+xml</dc:format>
        <dc:type
           rdf:resource="http://purl.org/dc/dcmitype/StillImage" />
        <dc:title />
      </cc:Work>
    </rdf:RDF>
  </metadata>
  <defs
     id="defs4">
    <linearGradient
       id="linearGradient3324">
      <stop
         id="stop3326"
         style="stop-color:#ffffff;stop-opacity:1"
         offset="0" />
      <stop
         id="stop3328"
         style="stop-color:#ffffff;stop-opacity:0"
         offset="1" />
    </linearGradient>
    <linearGradient
       xlink:href="#linearGradient4948"
       id="linearGradient4950"
       x1="16"
       y1="209"
       x2="16"
       y2="200"
       gradientUnits="userSpaceOnUse" />
    <linearGradient
       id="linearGradient4948">
      <stop
         style="stop-color:#a1a1a1;stop-opacity:1"
         offset="0"
         id="stop4944" />
      <stop
         style="stop-color:#d6d6d6;stop-opacity:1"
         offset="1"
         id="stop4946" />
    </linearGradient>
    <linearGradient
       xlink:href="#linearGradient2904"
       id="linearGradient4822"
       x1="13"
       y1="199.5"
       x2="19"
       y2="199.5"
       gradientUnits="userSpaceOnUse" />
    <linearGradient
       id="linearGradient2904">
      <stop
         id="stop2906"
         offset="0"
         style="stop-color:#b9b9b9;stop-opacity:1" />
      <stop
         id="stop2910"
         offset="0.21551724"
         style="stop-color:white;stop-opacity:1;" />
      <stop
         id="stop2912"
         offset="0.70243758"
         style="stop-color:#c3c3c3;stop-opacity:1" />
      <stop
         id="stop2908"
         offset="1"
         style="stop-color:#878787;stop-opacity:1" />
    </linearGradient>
    <linearGradient
       xlink:href="#linearGradient3324"
       id="linearGradient4905"
       x1="16"
       y1="196"
       x2="16"
       y2="203"
       gradientUnits="userSpaceOnUse" />
    <linearGradient
       xlink:href="#linearGradient11193"
       id="linearGradient4725"
       gradientUnits="userSpaceOnUse"
       gradientTransform="matrix(0.99514874,0,0,0.79639888,-5.8926,188.34141)"
       x1="16.977392"
       y1="14.011304"
       x2="32.045643"
       y2="14.011304" />
    <linearGradient
       id="linearGradient11193">
      <stop
         style="stop-color:#ffffff;stop-opacity:1"
         offset="0"
         id="stop11195" />
      <stop
         id="stop9375"
         offset="0.23791341"
         style="stop-color:#e5e5e5;stop-opacity:1;" />
      <stop
         id="stop11205"
         offset="0.5490092"
         style="stop-color:#e1e1e1;stop-opacity:1" />
      <stop
         id="stop11201"
         offset="0.69210809"
         style="stop-color:#ababab;stop-opacity:1" />
      <stop
         style="stop-color:#959595;stop-opacity:1"
         offset="0.80617243"
         id="stop11203" />
      <stop
         style="stop-color:#d3d3d3;stop-opacity:1"
         offset="1"
         id="stop11197" />
    </linearGradient>
  </defs>
  <g
     transform="translate(-8,-194)"
     style="display:inline;enable-background:new"
     id="g5681">
    <path
       id="path4767"
       d="m 9.5,199.5 v 0.5 1.5 h 1 v 0.5 c 0,2.66237 1.884174,4.88351 4.400391,5.39062 l 0.0293,0.006 0.0293,0.002 c 0,0 0.03706,0.004 0.04102,0.004 V 207.5 L 13.5,208 l 1.1e-5,1.5 h 5 L 18.5,208 17,207.5 v -0.0977 c 0.004,-3.3e-4 0.04102,-0.004 0.04102,-0.004 l 0.0293,-0.002 0.0293,-0.006 C 19.615804,206.88379 21.5,204.66237 21.5,202 v -0.5 h 1 v -2 h -3 v 2.5 c 0,1.94765 -1.552351,3.5 -3.5,3.5 -1.947649,0 -3.5,-1.55235 -3.5,-3.5 v -2.5 z"
       style="color:#bebebe;clip-rule:nonzero;display:inline;overflow:visible;visibility:visible;opacity:1;isolation:auto;mix-blend-mode:normal;color-interpolation:sRGB;color-interpolation-filters:linearRGB;solid-color:#000000;solid-opacity:1;fill:url(#linearGradient4950);fill-opacity:1;fill-rule:nonzero;stroke:#000000;stroke-width:1;stroke-linecap:butt;stroke-linejoin:round;stroke-miterlimit:4;stroke-dasharray:none;stroke-dashoffset:0;stroke-opacity:0.4;marker:none;color-rendering:auto;image-rendering:auto;shape-rendering:auto;text-rendering:auto;enable-background:accumulate" />
    <rect
       rx="2.5"
       ry="2.5"
       height="10"
       id="rect13081"
       style="display:inline;fill:url(#linearGradient4822);fill-opacity:1;stroke:#000000;stroke-width:0.99999994;stroke-linecap:square;stroke-linejoin:round;stroke-miterlimit:4;stroke-dasharray:none;stroke-dashoffset:0;stroke-opacity:0.4;enable-background:new"
       width="5"
       x="13.5"
       y="194.5" />
    <path
       d="m 17.000003,195.5 c 0,0.276 -0.224,0.5 -0.5,0.5 -0.276,0 -0.5,-0.224 -0.5,-0.5 0,-0.276 0.224,-0.5 0.5,-0.5 0.276,0 0.5,0.224 0.5,0.5 z m -2,0 c 0,0.276 -0.224,0.5 -0.5,0.5 -0.276,0 -0.5,-0.224 -0.5,-0.5 0,-0.276 0.224,-0.5 0.5,-0.5 0.276,0 0.5,0.224 0.5,0.5 z m 0,2 c 0,0.276 -0.224,0.5 -0.5,0.5 -0.276,0 -0.5,-0.224 -0.5,-0.5 0,-0.276 0.224,-0.5 0.5,-0.5 0.276,0 0.5,0.224 0.5,0.5 z m 2,0 c 0,0.276 -0.224,0.5 -0.5,0.5 -0.276,0 -0.5,-0.224 -0.5,-0.5 0,-0.276 0.224,-0.5 0.5,-0.5 0.276,0 0.5,0.224 0.5,0.5 z m -1,1 c 0,0.276 -0.224,0.5 -0.5,0.5 -0.276,0 -0.5,-0.224 -0.5,-0.5 0,-0.276 0.224,-0.5 0.5,-0.5 0.276,0 0.5,0.224 0.5,0.5 z m 0,-2 c 0,0.276 -0.224,0.5 -0.5,0.5 -0.276,0 -0.5,-0.224 -0.5,-0.5 0,-0.276 0.224,-0.5 0.5,-0.5 0.276,0 0.5,0.224 0.5,0.5 z m 2,0 c 0,0.276 -0.224,0.5 -0.5,0.5 -0.276,0 -0.5,-0.224 -0.5,-0.5 0,-0.276 0.224,-0.5 0.5,-0.5 0.276,0 0.5,0.224 0.5,0.5 z m 0,2 c 0,0.276 -0.224,0.5 -0.5,0.5 -0.276,0 -0.5,-0.224 -0.5,-0.5 0,-0.276 0.224,-0.5 0.5,-0.5 0.276,0 0.5,0.224 0.5,0.5 z m -1,1 c 0,0.276 -0.224,0.5 -0.5,0.5 -0.276,0 -0.5,-0.224 -0.5,-0.5 0,-0.276 0.224,-0.5 0.5,-0.5 0.276,0 0.5,0.224 0.5,0.5 z m -2,0 c 0,0.276 -0.224,0.5 -0.5,0.5 -0.276,0 -0.5,-0.224 -0.5,-0.5 0,-0.276 0.224,-0.5 0.5,-0.5 0.276,0 0.5,0.224 0.5,0.5 z"
       id="path13103"
       style="color:#000000;display:inline;overflow:visible;visibility:visible;opacity:0.29142857;fill:#000000;fill-opacity:1;fill-rule:nonzero;stroke:none;stroke-width:1;marker:none;enable-background:new" />
    <rect
       y="195.5"
       x="14.5"
       width="3"
       style="display:inline;opacity:0.3;fill:none;fill-opacity:1;stroke:url(#linearGradient4905);stroke-width:1;stroke-linecap:square;stroke-linejoin:round;stroke-miterlimit:4;stroke-dasharray:none;stroke-dashoffset:0;stroke-opacity:1;enable-background:new"
       id="rect4889"
       height="8"
       ry="1.5"
       rx="1.5" />
    <path
       id="path4940"
       d="m 14,208.5 h 4"
       style="opacity:0.3;fill:none;fill-rule:evenodd;stroke:#ffffff;stroke-width:1px;stroke-linecap:butt;stroke-linejoin:miter;stroke-opacity:1" />
    <path
       style="opacity:0.3;fill:none;fill-rule:evenodd;stroke:#ffffff;stroke-width:1px;stroke-linecap:butt;stroke-linejoin:miter;stroke-opacity:1"
       d="m 20,200.5 h 2"
       id="path4942" />
    <path
       style="opacity:1;fill:none;fill-opacity:1;stroke:#ffffff;stroke-width:1;stroke-linecap:round;stroke-linejoin:round;stroke-miterlimit:4;stroke-dasharray:none;stroke-dashoffset:0;stroke-opacity:0.49803922"
       d="m 20.499901,202.26502 c -4e-6,1.51301 -0.857692,2.91109 -2.249982,3.66759 -1.392289,0.75651 -3.107661,0.75651 -4.49995,0 C 12.357684,205.1761 11.500001,203.77803 11.5,202.26502"
       id="path9404" />
    <path
       style="opacity:0.2;fill:none;fill-rule:evenodd;stroke:#000000;stroke-width:1px;stroke-linecap:butt;stroke-linejoin:miter;stroke-opacity:1"
       d="m 11,201.5 h 1"
       id="path10961" />
    <path
       id="path10963"
       d="m 20,201.5 h 1"
       style="opacity:0.2;fill:none;fill-rule:evenodd;stroke:#000000;stroke-width:1px;stroke-linecap:butt;stroke-linejoin:miter;stroke-opacity:1" />
    <path
       id="path4723"
       d="m 12.5,199.5 h 7 v 2 h -7 z"
       style="color:#000000;display:inline;overflow:visible;visibility:visible;fill:url(#linearGradient4725);fill-opacity:1;fill-rule:nonzero;stroke:#000000;stroke-width:1;stroke-miterlimit:4;stroke-dasharray:none;stroke-opacity:0.25098039;marker:none;enable-background:accumulate" />
  </g>
</svg>
