<?xml version="1.0" encoding="UTF-8" standalone="no"?>
<svg
   xmlns:dc="http://purl.org/dc/elements/1.1/"
   xmlns:cc="http://creativecommons.org/ns#"
   xmlns:rdf="http://www.w3.org/1999/02/22-rdf-syntax-ns#"
   xmlns:svg="http://www.w3.org/2000/svg"
   xmlns="http://www.w3.org/2000/svg"
   xmlns:xlink="http://www.w3.org/1999/xlink"
   id="svg3123"
   height="16"
   width="16"
   version="1.0">
  <metadata
     id="metadata119800">
    <rdf:RDF>
      <cc:Work
         rdf:about="">
        <dc:format>image/svg+xml</dc:format>
        <dc:type
           rdf:resource="http://purl.org/dc/dcmitype/StillImage" />
        <dc:title />
      </cc:Work>
    </rdf:RDF>
  </metadata>
  <defs
     id="defs3125">
    <linearGradient
       id="linearGradient18344">
      <stop
         offset="0"
         style="stop-color:#2f3537;stop-opacity:1"
         id="stop18346" />
      <stop
         offset="0.30000001"
         style="stop-color:#8a8e8e;stop-opacity:1"
         id="stop18354" />
      <stop
         offset="1"
         style="stop-color:#2f3537;stop-opacity:1"
         id="stop18348" />
    </linearGradient>
    <linearGradient
       id="linearGradient5428">
      <stop
         offset="0"
         style="stop-color:#7a7c7c;stop-opacity:1"
         id="stop5430" />
      <stop
         offset="1"
         style="stop-color:#33393a;stop-opacity:1"
         id="stop5432" />
    </linearGradient>
    <linearGradient
       id="linearGradient25793">
      <stop
         offset="0"
         style="stop-color:#f0f0f4;stop-opacity:1"
         id="stop25795" />
      <stop
         offset="0.03744119"
         style="stop-color:#eeeeec;stop-opacity:1"
         id="stop25819" />
      <stop
         offset="0.39254159"
         style="stop-color:#eeeeec;stop-opacity:0.69594592"
         id="stop25817" />
      <stop
         offset="0.90799886"
         style="stop-color:#a1a29f;stop-opacity:1"
         id="stop25803" />
      <stop
         offset="1"
         style="stop-color:#555753;stop-opacity:1"
         id="stop25799" />
    </linearGradient>
    <linearGradient
       id="linearGradient18403">
      <stop
         offset="0"
         style="stop-color:#eeeeec;stop-opacity:1"
         id="stop18405" />
      <stop
         offset="1"
         style="stop-color:#eeeeec;stop-opacity:0"
         id="stop18407" />
    </linearGradient>
    <linearGradient
       id="linearGradient26128">
      <stop
         offset="0"
         style="stop-color:#eeeeec;stop-opacity:0.9527027"
         id="stop26130" />
      <stop
         offset="0.47988781"
         style="stop-color:#eeeeec;stop-opacity:0"
         id="stop26146" />
      <stop
         offset="0.5229584"
         style="stop-color:#eeeeec;stop-opacity:0.99324322"
         id="stop26148" />
      <stop
         offset="0.63153976"
         style="stop-color:#eeeeec;stop-opacity:0"
         id="stop26132" />
      <stop
         offset="0.7383545"
         style="stop-color:#eeeeec;stop-opacity:0.23529412"
         id="stop26134" />
      <stop
         offset="0.83400774"
         style="stop-color:#ffffff;stop-opacity:0.71621621"
         id="stop26136" />
      <stop
         offset="0.90514386"
         style="stop-color:#f6f6f5;stop-opacity:0.27027026"
         id="stop26142" />
      <stop
         offset="0.90514386"
         style="stop-color:#f2f2f0;stop-opacity:0.27702704"
         id="stop26144" />
      <stop
         offset="1"
         style="stop-color:#eeeeec;stop-opacity:0"
         id="stop26138" />
    </linearGradient>
    <linearGradient
       id="linearGradient26021">
      <stop
         offset="0"
         style="stop-color:#eeeeec;stop-opacity:0"
         id="stop26023" />
      <stop
         offset="0.86670214"
         style="stop-color:#eeeeec;stop-opacity:0.49803922"
         id="stop26029" />
      <stop
         offset="1"
         style="stop-color:#eeeeec;stop-opacity:0"
         id="stop26025" />
    </linearGradient>
    <linearGradient
       id="linearGradient26120">
      <stop
         offset="0"
         style="stop-color:#2e3436;stop-opacity:0"
         id="stop26122" />
      <stop
         offset="0.47336468"
         style="stop-color:#2e3436;stop-opacity:0"
         id="stop26124" />
      <stop
         offset="1"
         style="stop-color:#0f1112;stop-opacity:1"
         id="stop26126" />
    </linearGradient>
    <linearGradient
       id="linearGradient26075">
      <stop
         offset="0"
         style="stop-color:#555753;stop-opacity:0"
         id="stop26077" />
      <stop
         offset="1"
         style="stop-color:#eeeeec;stop-opacity:1"
         id="stop26079" />
    </linearGradient>
    <linearGradient
       id="linearGradient8690">
      <stop
         offset="0"
         style="stop-color:#3a3a3a;stop-opacity:1"
         id="stop8692" />
      <stop
         offset="1"
         style="stop-color:#3a3a3a;stop-opacity:0"
         id="stop8694" />
    </linearGradient>
    <linearGradient
       id="linearGradient8660">
      <stop
         offset="0"
         style="stop-color:#2e3436;stop-opacity:1"
         id="stop8662" />
      <stop
         offset="1"
         style="stop-color:#555753;stop-opacity:0"
         id="stop8664" />
    </linearGradient>
    <linearGradient
       id="linearGradient26091">
      <stop
         offset="0"
         style="stop-color:#2e3436;stop-opacity:1"
         id="stop26093" />
      <stop
         offset="1"
         style="stop-color:#ffffff;stop-opacity:1"
         id="stop26095" />
    </linearGradient>
    <linearGradient
       id="linearGradient26099">
      <stop
         offset="0"
         style="stop-color:#eeeeec;stop-opacity:1"
         id="stop26101" />
      <stop
         offset="1"
         style="stop-color:#babdb6;stop-opacity:1"
         id="stop26103" />
    </linearGradient>
    <linearGradient
       id="linearGradient9785">
      <stop
         offset="0"
         style="stop-color:#eeeeec;stop-opacity:1"
         id="stop9787" />
      <stop
         offset="1"
         style="stop-color:#090908;stop-opacity:0.96621621"
         id="stop9789" />
    </linearGradient>
    <linearGradient
       id="linearGradient9688">
      <stop
         offset="0"
         style="stop-color:#eeeeec;stop-opacity:1"
         id="stop9690" />
      <stop
         offset="1"
         style="stop-color:#ffffff;stop-opacity:0"
         id="stop9692" />
    </linearGradient>
    <linearGradient
       id="linearGradient26371">
      <stop
         offset="0"
         style="stop-color:#777777;stop-opacity:0"
         id="stop26373" />
      <stop
         offset="1"
         style="stop-color:#2b2b2b;stop-opacity:1"
         id="stop26375" />
    </linearGradient>
    <linearGradient
       id="linearGradient17941">
      <stop
         offset="0"
         style="stop-color:#e9e9e9;stop-opacity:1"
         id="stop17943" />
      <stop
         offset="0"
         style="stop-color:#a7a7a7;stop-opacity:1"
         id="stop17945" />
      <stop
         offset="0.52899867"
         style="stop-color:#bebebe;stop-opacity:1"
         id="stop17947" />
      <stop
         offset="1"
         style="stop-color:#e7e7e7;stop-opacity:1"
         id="stop17949" />
    </linearGradient>
    <linearGradient
       id="linearGradient17963">
      <stop
         offset="0"
         style="stop-color:#dee3e0;stop-opacity:1"
         id="stop17965" />
      <stop
         offset="1"
         style="stop-color:#dee3e0;stop-opacity:0"
         id="stop17967" />
    </linearGradient>
    <linearGradient
       id="linearGradient5404">
      <stop
         offset="0"
         style="stop-color:#ffffff;stop-opacity:1"
         id="stop5406" />
      <stop
         offset="1"
         style="stop-color:#ffffff;stop-opacity:0"
         id="stop5408" />
    </linearGradient>
    <linearGradient
       id="linearGradient10695">
      <stop
         offset="0"
         style="stop-color:#b100cb;stop-opacity:1"
         id="stop10697" />
      <stop
         offset="1"
         style="stop-color:#204a87;stop-opacity:0"
         id="stop10699" />
    </linearGradient>
    <linearGradient
       y2="50.618919"
       x2="15.578756"
       y1="19.011086"
       x1="15.578756"
       gradientTransform="matrix(0.3249792,0,0,0.4332791,0.20029767,-5.4371224)"
       gradientUnits="userSpaceOnUse"
       id="linearGradient3124"
       xlink:href="#linearGradient5404" />
    <radialGradient
       r="0.546875"
       fy="12.007012"
       fx="14.738829"
       cy="12.007012"
       cx="14.738829"
       gradientTransform="matrix(-1.1583133e-6,-0.91015108,1.153413,-2.1801398e-6,-10.391646,15.693302)"
       gradientUnits="userSpaceOnUse"
       id="radialGradient3127"
       xlink:href="#linearGradient17963" />
    <radialGradient
       r="2.9610097"
       fy="17.108955"
       fx="9.2365828"
       cy="17.108955"
       cx="9.2365828"
       gradientTransform="matrix(0.43256873,-1.9421155e-7,6.4498284e-8,0.18513564,-0.4735536,-1.4964317)"
       gradientUnits="userSpaceOnUse"
       id="radialGradient3130"
       xlink:href="#linearGradient17941" />
    <radialGradient
       r="3.1769876"
       fy="20.823402"
       fx="9.1189642"
       cy="20.823402"
       cx="9.1189642"
       gradientTransform="matrix(0,-0.25156172,0.93989364,0,-16.101328,4.9697325)"
       gradientUnits="userSpaceOnUse"
       id="radialGradient3133"
       xlink:href="#linearGradient17963" />
    <radialGradient
       r="77.922958"
       fy="62.526134"
       fx="442.29459"
       cy="62.526134"
       cx="442.29459"
       gradientTransform="matrix(-6.8078266e-6,-0.79280902,0.1352587,0,1.5457984,359.15507)"
       gradientUnits="userSpaceOnUse"
       id="radialGradient3136"
       xlink:href="#linearGradient26371" />
    <linearGradient
       y2="496.33771"
       x2="700.41443"
       y1="327.78354"
       x1="697.91443"
       gradientTransform="matrix(0.05387095,0,0,0.0719626,-30.763756,-20.788163)"
       gradientUnits="userSpaceOnUse"
       id="linearGradient3192"
       xlink:href="#linearGradient25793" />
    <radialGradient
       r="20.999798"
       fy="14.781876"
       fx="76.16552"
       cy="14.781876"
       cx="76.16552"
       gradientTransform="matrix(1.5383796,0,0,0.06747855,-109.11071,1.7981939)"
       gradientUnits="userSpaceOnUse"
       id="radialGradient3195"
       xlink:href="#linearGradient5428" />
    <linearGradient
       y2="45.818478"
       x2="8.5625"
       y1="4.646832"
       x1="8.5625"
       gradientTransform="matrix(0.36570258,0,0,0.48131923,-19.793162,-3.0706486)"
       gradientUnits="userSpaceOnUse"
       id="linearGradient3197"
       xlink:href="#linearGradient18344" />
    <radialGradient
       r="74.907745"
       fy="33.604549"
       fx="427.79684"
       cy="33.604549"
       cx="427.79684"
       gradientTransform="matrix(-0.2240538,0.05376216,-0.04083939,-0.1883273,141.67221,-15.918466)"
       gradientUnits="userSpaceOnUse"
       id="radialGradient3218"
       xlink:href="#linearGradient18403" />
    <radialGradient
       r="74.907745"
       fy="170.414"
       fx="459.45273"
       cy="170.414"
       cx="459.45273"
       gradientTransform="matrix(0.07544327,-1.2226476e-8,0,0.06555618,6.245761,-6.3783247)"
       gradientUnits="userSpaceOnUse"
       id="radialGradient3220"
       xlink:href="#linearGradient26128" />
    <radialGradient
       r="74.907745"
       fy="165.51567"
       fx="449.88171"
       cy="165.51567"
       cx="449.88171"
       gradientTransform="matrix(0,-0.05073858,0.05278397,0,32.20304,26.902017)"
       gradientUnits="userSpaceOnUse"
       id="radialGradient3222"
       xlink:href="#linearGradient26021" />
    <radialGradient
       r="74.907745"
       fy="95.381569"
       fx="529.39941"
       cy="95.381569"
       cx="529.39941"
       gradientTransform="matrix(0,0.05277248,-0.05046163,0,45.752721,-23.106524)"
       gradientUnits="userSpaceOnUse"
       id="radialGradient3224"
       xlink:href="#linearGradient26120" />
    <linearGradient
       y2="225.83026"
       x2="280.0184"
       y1="126.83501"
       x1="469.35895"
       gradientTransform="matrix(0.04670754,0,0,0.06854897,19.585132,-7.2367022)"
       gradientUnits="userSpaceOnUse"
       id="linearGradient3226"
       xlink:href="#linearGradient26075" />
    <radialGradient
       r="74.907745"
       fy="218.66101"
       fx="344.26065"
       cy="218.66101"
       cx="344.26065"
       gradientTransform="matrix(-0.00685942,-0.1301125,0.04680436,-0.00291791,33.066753,51.039375)"
       gradientUnits="userSpaceOnUse"
       id="radialGradient3228"
       xlink:href="#linearGradient26075" />
    <radialGradient
       r="74.907745"
       fy="131.83463"
       fx="469.91165"
       cy="131.83463"
       cx="469.91165"
       gradientTransform="matrix(-0.07022907,-0.0722737,0.06150812,-0.0685738,67.638777,43.719558)"
       gradientUnits="userSpaceOnUse"
       id="radialGradient3230"
       xlink:href="#linearGradient8660" />
    <radialGradient
       r="74.907745"
       fy="98.974625"
       fx="434.12521"
       cy="98.974625"
       cx="434.12521"
       gradientTransform="matrix(-0.07508467,0.08105827,-0.09931679,-0.1072186,83.365603,-21.856187)"
       gradientUnits="userSpaceOnUse"
       id="radialGradient3232"
       xlink:href="#linearGradient8660" />
    <radialGradient
       r="75.756241"
       fy="130.89047"
       fx="441.3573"
       cy="130.89047"
       cx="441.3573"
       gradientTransform="matrix(-0.00643105,-0.0467684,0.1457874,-0.02336381,24.695826,26.159414)"
       gradientUnits="userSpaceOnUse"
       id="radialGradient3234"
       xlink:href="#linearGradient8690" />
    <radialGradient
       r="75.752426"
       fy="111.3"
       fx="439.04871"
       cy="111.3"
       cx="439.04871"
       gradientTransform="matrix(0.03550462,-0.02981257,0.05772509,0.08077235,17.662973,8.856732)"
       gradientUnits="userSpaceOnUse"
       id="radialGradient3236"
       xlink:href="#linearGradient26099" />
    <linearGradient
       y2="114.22821"
       x2="457.19556"
       y1="289.77823"
       x1="457.19556"
       gradientTransform="matrix(0.0362164,0,0,0.05315197,24.381634,-3.0089437)"
       gradientUnits="userSpaceOnUse"
       id="linearGradient3238"
       xlink:href="#linearGradient26091" />
    <linearGradient
       y2="179.03932"
       x2="222.73204"
       y1="171.61981"
       x1="236.75015"
       gradientTransform="matrix(0.0693886,0,0,0.07028112,24.201265,-6.3438117)"
       gradientUnits="userSpaceOnUse"
       id="linearGradient3240"
       xlink:href="#linearGradient9688" />
    <radialGradient
       r="21.53125"
       fy="171.7894"
       fx="251.69016"
       cy="171.7894"
       cx="251.69016"
       gradientTransform="matrix(0.02031434,-0.08642755,0.1262225,0.03362891,15.892376,23.229393)"
       gradientUnits="userSpaceOnUse"
       id="radialGradient3242"
       xlink:href="#linearGradient9785" />
    <radialGradient
       r="18.578125"
       fy="183.6442"
       fx="258.76035"
       cy="183.6442"
       cx="258.76035"
       gradientTransform="matrix(0.08681611,-0.00123428,8.9193262e-4,0.06944268,19.590552,-5.9146122)"
       gradientUnits="userSpaceOnUse"
       id="radialGradient3244"
       xlink:href="#linearGradient9688" />
    <radialGradient
       r="19"
       fy="188.5"
       fx="171.25"
       cy="188.5"
       cx="171.25"
       gradientTransform="matrix(0.1163274,0,0,0.1223665,20.120838,-17.979468)"
       gradientUnits="userSpaceOnUse"
       id="radialGradient3246"
       xlink:href="#linearGradient10695" />
  </defs>
  <rect
     width="14.99"
     height="12.990611"
     rx="0.90506774"
     ry="1.0109795"
     x="0.50523376"
     y="1.5043889"
     id="rect5438"
     style="fill:url(#radialGradient3195);fill-opacity:1;fill-rule:nonzero;stroke:url(#linearGradient3197);stroke-width:1.00999999;stroke-linecap:round;stroke-linejoin:round;stroke-miterlimit:4;stroke-opacity:1;stroke-dasharray:none" />
  <rect
     width="14"
     height="11.266041"
     rx="0.58005613"
     ry="0.77796876"
     x="1"
     y="2.7999835"
     id="rect5445"
     style="fill:url(#linearGradient3192);fill-opacity:1;fill-rule:nonzero;stroke:none" />
  <path
     d="M 15.5,8.5000011 C 15.5,11.813709 13.037565,14.5 10,14.5 6.9624331,14.5 4.4999999,11.813709 4.4999999,8.5000011 4.4999999,5.1862916 6.9624331,2.5000009 10,2.5000009 c 3.037565,0 5.5,2.6862907 5.5,6.0000002 l 0,0 z"
     id="path5497"
     style="fill:none;stroke:url(#radialGradient3136);stroke-width:0.99999988;stroke-linecap:round;stroke-linejoin:round;stroke-miterlimit:4;stroke-opacity:1;stroke-dasharray:none" />
  <path
     d="m 4.7942044,1.9291989 c 2.59e-4,0.3713036 -0.569838,0.6723767 -1.273176,0.6723767 -0.703339,0 -1.273435,-0.3010731 -1.273177,-0.6723767 -2.58e-4,-0.3713031 0.569838,-0.6723765 1.273177,-0.6723765 0.703338,0 1.273435,0.3010734 1.273176,0.6723765 l 0,0 z"
     id="path5511"
     style="fill:#2e3436;fill-opacity:1;fill-rule:evenodd;stroke:url(#radialGradient3133);stroke-width:0.49570271;stroke-linecap:butt;stroke-linejoin:miter;stroke-miterlimit:10;stroke-opacity:0.99607843;stroke-dasharray:none;stroke-dashoffset:0;marker:none;visibility:visible;display:inline;overflow:visible;enable-background:accumulate" />
  <path
     d="m 4.5457144,1.6710442 c 2.08e-4,0.2870726 -0.458229,0.519847 -1.023811,0.519847 -0.565582,0 -1.024019,-0.2327738 -1.023811,-0.519847 -2.08e-4,-0.2870729 0.458229,-0.519847 1.023811,-0.519847 0.565582,0 1.024019,0.2327739 1.023811,0.519847 z"
     id="path5513"
     style="fill:url(#radialGradient3130);fill-opacity:1;fill-rule:evenodd;stroke:none;stroke-width:0.37656182;marker:none;visibility:visible;display:inline;overflow:visible;enable-background:accumulate" />
  <rect
     width="0.49193352"
     height="0.58952576"
     rx="0.17455707"
     ry="0.2245923"
     x="3.2391849"
     y="2.2593868"
     id="rect5515"
     style="fill:#2e3436;fill-opacity:1;fill-rule:nonzero;stroke:url(#radialGradient3127);stroke-width:0.3021751;stroke-linecap:butt;stroke-linejoin:round;stroke-miterlimit:0;stroke-opacity:1;stroke-dasharray:none" />
  <rect
     width="12.999167"
     height="10.398699"
     rx="0.2548005"
     ry="0.33461908"
     x="1.5002143"
     y="3.2284584"
     id="rect5519"
     style="opacity:0.4;fill:none;stroke:url(#linearGradient3124);stroke-width:1.00083303;stroke-linecap:round;stroke-linejoin:round;stroke-miterlimit:4;stroke-opacity:1;stroke-dasharray:none" />
  <g
     transform="translate(-30.910152,3.948929)"
     id="g3199">
    <path
       style="fill:url(#radialGradient3218);fill-opacity:1;fill-rule:nonzero;stroke:none"
       id="path5463"
       d="m 45.937836,4.563335 c 0,2.903754 -2.237782,5.25771 -4.998223,5.25771 -2.760442,0 -4.998222,-2.353956 -4.998222,-5.25771 0,-2.9037538 2.23778,-5.2577106 4.998222,-5.2577106 2.760441,0 4.998223,2.3539568 4.998223,5.2577106 l 0,0 z" />
    <path
       style="fill:#888a85;fill-opacity:1;fill-rule:nonzero;stroke:none"
       id="path5465"
       d="m 45.438015,4.563335 c 0,2.61338 -2.014002,4.73194 -4.498402,4.73194 -2.484398,0 -4.498401,-2.11856 -4.498401,-4.73194 0,-2.6133791 2.014003,-4.7319403 4.498401,-4.7319403 2.4844,0 4.498402,2.1185612 4.498402,4.7319403 l 0,0 z" />
    <path
       style="fill:url(#radialGradient3220);fill-opacity:1;fill-rule:nonzero;stroke:none"
       id="path5469"
       d="m 45.906598,4.79336 c 0,2.903752 -2.237782,5.257711 -4.998223,5.257711 -2.760443,0 -4.998223,-2.353959 -4.998223,-5.257711 0,-2.9037541 2.23778,-5.2577108 4.998223,-5.2577108 2.760441,0 4.998223,2.3539567 4.998223,5.2577108 l 0,0 z" />
    <path
       style="fill:url(#radialGradient3222);fill-opacity:1;fill-rule:nonzero;stroke:none"
       id="path5471"
       d="m 44.972748,4.385897 c 0,2.270413 -1.805695,4.110946 -4.033135,4.110946 -2.22744,0 -4.033136,-1.840533 -4.033136,-4.110946 0,-2.2704161 1.805696,-4.1109507 4.033136,-4.1109507 2.22744,0 4.033135,1.8405346 4.033135,4.1109507 l 0,0 z" />
    <path
       style="opacity:0.85148513;fill:url(#radialGradient3224);fill-opacity:1;fill-rule:nonzero;stroke:none"
       id="path5473"
       d="m 44.43837,4.563335 c 0,2.032626 -1.566448,3.680397 -3.498757,3.680397 -1.93231,0 -3.498757,-1.647771 -3.498757,-3.680397 0,-2.0326261 1.566447,-3.6803976 3.498757,-3.6803976 1.932309,0 3.498757,1.6477715 3.498757,3.6803976 z" />
    <path
       style="fill:url(#linearGradient3226);fill-opacity:1;fill-rule:nonzero;stroke:none"
       id="path5475"
       d="m 44.43837,4.563334 c 0,2.032627 -1.566448,3.680398 -3.498757,3.680398 -1.93231,0 -3.498757,-1.647771 -3.498757,-3.680398 0,-2.0326261 1.566447,-3.6803974 3.498757,-3.6803974 1.932309,0 3.498757,1.6477713 3.498757,3.6803974 z" />
    <path
       style="fill:url(#radialGradient3228);fill-opacity:1;fill-rule:nonzero;stroke:none"
       id="path5477"
       d="m 44.43837,5.089106 c 0,2.032628 -1.566448,3.680397 -3.498757,3.680397 -1.93231,0 -3.498757,-1.647769 -3.498757,-3.680397 0,-2.0326261 1.566447,-3.6803969 3.498757,-3.6803969 1.932309,0 3.498757,1.6477708 3.498757,3.6803969 z" />
    <path
       style="opacity:0.53960422;fill:url(#radialGradient3230);fill-opacity:1;fill-rule:nonzero;stroke:none"
       id="path5479"
       d="m 43.805499,5.061562 c 0,1.742251 -1.290363,3.154629 -2.882105,3.154629 -1.591745,0 -2.882106,-1.412378 -2.882106,-3.154629 0,-1.7422511 1.290361,-3.1546261 2.882106,-3.1546261 1.591742,0 2.882105,1.412375 2.882105,3.1546261 l 0,0 z" />
    <path
       style="fill:url(#radialGradient3232);fill-opacity:1;fill-rule:nonzero;stroke:url(#radialGradient3234);stroke-width:0.14849523;stroke-linecap:round;stroke-linejoin:round;stroke-miterlimit:4;stroke-opacity:1;stroke-dasharray:none"
       id="path5481"
       d="m 43.77648,5.351992 c 0,1.575503 -1.270107,2.8527 -2.836868,2.8527 -1.566759,0 -2.836867,-1.277197 -2.836867,-2.8527 0,-1.5755071 1.270108,-2.8527071 2.836867,-2.8527071 1.566761,0 2.836868,1.2772 2.836868,2.8527071 z" />
    <path
       style="fill:url(#radialGradient3236);fill-opacity:1;fill-rule:nonzero;stroke:url(#linearGradient3238);stroke-width:0.14458711;stroke-linecap:round;stroke-linejoin:round;stroke-miterlimit:4;stroke-opacity:1"
       id="path5483"
       d="m 43.652502,6.140647 c 0,1.575257 -1.215374,2.853729 -2.71289,2.853729 -1.497515,0 -2.712888,-1.278472 -2.712888,-2.853729 0,-1.575259 1.215373,-2.8537311 2.712888,-2.8537311 1.497516,0 2.71289,1.2784721 2.71289,2.8537311 z" />
    <path
       style="fill:#2e3436;fill-opacity:1;fill-rule:nonzero;stroke:none"
       id="path5485"
       d="m 43.188814,6.140646 c 0,1.306692 -1.007001,2.365971 -2.249201,2.365971 -1.242199,0 -2.2492,-1.059279 -2.2492,-2.365971 0,-1.306689 1.007001,-2.3659671 2.2492,-2.3659671 1.2422,0 2.249201,1.0592781 2.249201,2.3659671 l 0,0 z" />
    <path
       style="opacity:0.23267326;fill:url(#linearGradient3240);fill-opacity:1;fill-rule:nonzero;stroke:none"
       id="path5487"
       d="m 40.551866,4.808222 c -0.04247,0.01395 -0.08317,0.03024 -0.123599,0.04832 0.04038,-0.0182 0.08117,-0.03427 0.123599,-0.04832 z m 0.884703,0.02635 c 0.01749,0.0069 0.03493,0.01429 0.05204,0.02196 -0.01718,-0.0077 -0.03448,-0.01501 -0.05204,-0.02196 z m -1.153585,0.09884 c -0.0283,0.01718 -0.05555,0.03568 -0.0824,0.05491 0.02665,-0.01923 0.05433,-0.03768 0.0824,-0.05491 z m -0.0824,0.05491 c -0.03229,0.02312 -0.06322,0.04658 -0.09324,0.07248 0.02964,-0.02565 0.06141,-0.04951 0.09324,-0.07248 z m 1.637137,0.09883 c 0.01856,0.01703 0.03666,0.03464 0.05421,0.05271 -0.01755,-0.01799 -0.03567,-0.03575 -0.05421,-0.05271 z m -1.762903,0.0044 c -0.0238,0.02198 -0.04726,0.04441 -0.06939,0.06808 0.02218,-0.02373 0.04556,-0.04602 0.06939,-0.06808 z m -0.06939,0.06808 c -0.168625,0.180434 -0.288014,0.407551 -0.333932,0.661082 -1.29e-4,7.1e-4 1.29e-4,0.0015 0,0.0022 l 0,0.467809 c 0.06956,0.387756 0.308624,0.715411 0.637507,0.904871 l 1.298866,0 c 0.315112,-0.181526 0.546535,-0.489901 0.626668,-0.856549 l 0,-0.0044 0,-0.555659 C 42.198877,5.61324 42.133092,5.458179 42.04155,5.32216 41.97034,5.22568 41.887955,5.155734 41.798689,5.117904 l -1.743388,0 c -0.01755,0.01375 -0.03372,0.02754 -0.04987,0.04173 l -3e-6,-2e-6 z m -0.333932,1.131086 c -0.0068,-0.03764 -0.01156,-0.0753 -0.01518,-0.114205 0.0035,0.03878 0.0084,0.07647 0.01518,0.114205 z m 0,-0.467809 c -0.0068,0.03782 -0.0117,0.07535 -0.01518,0.114209 0.0036,-0.03837 0.0084,-0.07659 0.01518,-0.114209 z m 2.27898,-0.621547 c 0.01271,0.01488 0.02482,0.03068 0.03686,0.04612 -0.01221,-0.01564 -0.02397,-0.03106 -0.03686,-0.04612 z m -1.41379,2.097448 c 0.02641,0.0091 0.0531,0.01679 0.08023,0.02416 -0.02715,-0.0074 -0.05381,-0.01507 -0.08023,-0.02416 z m 0.843502,0 c -0.02655,0.0091 -0.05294,0.01676 -0.08023,0.02416 0.02713,-0.0074 0.05382,-0.01511 0.08023,-0.02416 z" />
    <path
       style="opacity:0.37556559;fill:url(#radialGradient3242);fill-opacity:1;fill-rule:nonzero;stroke:none"
       id="path5489"
       d="m 39.807214,4.563335 c -0.267574,0.202277 -0.482391,0.475041 -0.61698,0.789333 l 0,1.548928 c 0.140925,0.329311 0.3695,0.611334 0.655066,0.816365 l 2.214018,0 c 0.26953,-0.193767 0.487705,-0.456293 0.629673,-0.762301 l 0,-1.654351 C 42.553335,5.008721 42.348128,4.754373 42.094864,4.563335 l -2.28765,0 z" />
    <path
       style="fill:#2e3436;fill-opacity:1;fill-rule:nonzero;stroke:none"
       id="path5491"
       d="m 40.556634,4.775361 c -0.04195,0.01413 -0.08216,0.03064 -0.1221,0.04895 0.03989,-0.01843 0.08019,-0.03471 0.1221,-0.04895 z m 0.873985,0.0267 c 0.01728,0.007 0.0345,0.01448 0.05141,0.02225 -0.01697,-0.0078 -0.03406,-0.01521 -0.05141,-0.02225 z m -1.139608,0.100125 c -0.02795,0.01741 -0.05488,0.03615 -0.0814,0.05562 0.02632,-0.01948 0.05367,-0.03817 0.0814,-0.05562 z m -0.0814,0.05562 c -0.0319,0.02342 -0.06245,0.04718 -0.09211,0.07343 0.02928,-0.02599 0.06067,-0.05016 0.09211,-0.07343 z m 1.6173,0.100123 c 0.01833,0.01726 0.03622,0.0351 0.05356,0.0534 -0.01734,-0.01823 -0.03524,-0.03621 -0.05356,-0.0534 z m -1.741542,0.0045 c -0.02352,0.02227 -0.04669,0.04499 -0.06855,0.06897 0.02191,-0.02404 0.045,-0.04662 0.06855,-0.06897 z m -0.06855,0.06897 c -0.166583,0.182789 -0.284526,0.412875 -0.329886,0.66972 -1.28e-4,7.2e-4 1.26e-4,0.0015 0,0.0022 l 0,0.47392 c 0.06872,0.392826 0.304885,0.724762 0.629782,0.916694 l 1.283129,0 c 0.311292,-0.183897 0.539912,-0.496301 0.619073,-0.867742 l 0,-0.0045 0,-0.562921 C 42.183687,5.59086 42.118702,5.433772 42.028268,5.295973 41.957918,5.198233 41.876537,5.127371 41.788352,5.08905 l -1.722265,0 c -0.01734,0.01393 -0.03331,0.0279 -0.04927,0.04228 l 2e-6,6.9e-5 z m -0.329886,1.145865 c -0.0067,-0.03813 -0.01142,-0.07629 -0.015,-0.115699 0.0034,0.03928 0.0083,0.07747 0.015,0.115699 z m 0,-0.47392 c -0.0067,0.03831 -0.01155,0.07633 -0.015,0.1157 0.0036,-0.03887 0.0083,-0.07759 0.015,-0.1157 z m 2.251365,-0.62967 c 0.01255,0.01507 0.02452,0.03108 0.03642,0.04673 -0.01207,-0.01585 -0.02368,-0.03147 -0.03642,-0.04673 z m -1.39666,2.124856 c 0.02608,0.0092 0.05245,0.01701 0.07926,0.02448 -0.02682,-0.0075 -0.05315,-0.01527 -0.07926,-0.02448 z m 0.833284,0 c -0.02623,0.0092 -0.0523,0.01698 -0.07926,0.02448 0.02681,-0.0075 0.05317,-0.01531 0.07926,-0.02448 z" />
    <path
       style="opacity:0.23267326;fill:url(#radialGradient3244);fill-opacity:1;fill-rule:nonzero;stroke:none"
       id="path5493"
       d="m 40.556634,4.742499 c -0.04195,0.01432 -0.08216,0.03104 -0.1221,0.04958 0.03989,-0.01867 0.08019,-0.03517 0.1221,-0.04958 z m 0.873985,0.02705 c 0.01728,0.0071 0.0345,0.01466 0.05141,0.02254 -0.01697,-0.0079 -0.03406,-0.01541 -0.05141,-0.02254 z m -1.139608,0.101416 c -0.02795,0.01763 -0.05488,0.03662 -0.0814,0.05634 0.02632,-0.01973 0.05367,-0.03867 0.0814,-0.05634 z m -0.0814,0.05634 c -0.0319,0.02373 -0.06245,0.04779 -0.09211,0.07437 0.02928,-0.02632 0.06067,-0.0508 0.09211,-0.07437 z m 1.6173,0.101414 c 0.01833,0.01748 0.03622,0.03555 0.05356,0.05409 -0.01734,-0.01846 -0.03524,-0.03668 -0.05356,-0.05409 z m -1.741542,0.0045 c -0.02352,0.02255 -0.04669,0.04557 -0.06855,0.06986 0.02191,-0.02436 0.045,-0.04722 0.06855,-0.06986 z m -0.06855,0.06986 c -0.166583,0.185148 -0.284526,0.4182 -0.329886,0.678358 -1.28e-4,7.29e-4 1.26e-4,0.0015 0,0.0023 l 0,0.480032 c 0.06872,0.397891 0.304885,0.734108 0.629782,0.928516 l 1.283129,0 c 0.311292,-0.186265 0.539912,-0.5027 0.619073,-0.878934 l 0,-0.0045 0,-0.570182 C 42.183687,5.568592 42.118702,5.409477 42.028268,5.269903 41.957918,5.170903 41.876537,5.099128 41.788352,5.06031 l -1.722265,0 c -0.01734,0.01411 -0.03331,0.02826 -0.04927,0.04282 l 2e-6,-5.1e-5 z m -0.329886,1.160645 c -0.0067,-0.03862 -0.01142,-0.07727 -0.015,-0.117191 0.0034,0.03979 0.0083,0.07847 0.015,0.117191 z m 0,-0.480032 c -0.0067,0.0388 -0.01155,0.07731 -0.015,0.117191 0.0036,-0.03937 0.0083,-0.07859 0.015,-0.117191 z M 41.938298,5.1459 c 0.01255,0.01526 0.02452,0.03148 0.03642,0.04733 -0.01207,-0.01605 -0.02368,-0.03188 -0.03642,-0.04733 z m -1.39666,2.152264 c 0.02608,0.0093 0.05245,0.01723 0.07926,0.02479 -0.02682,-0.0076 -0.05315,-0.01546 -0.07926,-0.02479 z m 0.833284,0 c -0.02623,0.0093 -0.0523,0.0172 -0.07926,0.02479 0.02681,-0.0076 0.05317,-0.0155 0.07926,-0.02479 z" />
    <path
       style="fill:#000000;fill-opacity:0.50543482;fill-rule:nonzero;stroke:none"
       id="path5495"
       d="m 40.945436,5.085754 c -0.514739,-10e-7 -0.93728,0.406392 -0.992195,0.927052 -0.0023,0.02194 -0.004,0.04389 -0.005,0.06622 -7.01e-4,0.01599 -0.0025,0.03151 -0.0025,0.04768 0,0.0035 -3.5e-5,0.0071 0,0.01059 -3.5e-5,0.0035 0,0.0071 0,0.01059 3.03e-4,0.01578 0.0015,0.03208 0.0025,0.04768 9.83e-4,0.02233 0.0026,0.04427 0.005,0.06622 0.05491,0.52066 0.477456,0.927053 0.992195,0.927053 0.514739,0 0.937279,-0.406393 0.992195,-0.927053 0.0023,-0.02194 0.004,-0.04389 0.005,-0.06622 0.0012,-0.01906 0.0023,-0.03895 0.0025,-0.05827 -1.84e-4,-0.01932 -0.0013,-0.03922 -0.0025,-0.05827 -9.81e-4,-0.02233 -0.0026,-0.04428 -0.005,-0.06622 -0.05491,-0.520663 -0.477456,-0.927052 -0.992195,-0.927052 z" />
    <path
       style="opacity:0.8;fill:url(#radialGradient3246);fill-opacity:1;fill-rule:evenodd;stroke:none;stroke-width:0.94462639;marker:none;visibility:visible;display:inline;overflow:visible;enable-background:accumulate"
       id="path10013"
       d="m 42.688991,6.297295 c 0,1.016313 -0.783223,1.840199 -1.749378,1.840199 -0.966155,0 -1.749379,-0.823886 -1.749379,-1.840199 0,-1.016313 0.783224,-1.840197 1.749379,-1.840197 0.966155,0 1.749378,0.823884 1.749378,1.840197 l 0,0 z" />
  </g>
</svg>
