<?xml version="1.0" encoding="UTF-8" standalone="no"?>
<!-- Created with Inkscape (http://www.inkscape.org/) -->

<svg
   xmlns:dc="http://purl.org/dc/elements/1.1/"
   xmlns:cc="http://creativecommons.org/ns#"
   xmlns:rdf="http://www.w3.org/1999/02/22-rdf-syntax-ns#"
   xmlns:svg="http://www.w3.org/2000/svg"
   xmlns="http://www.w3.org/2000/svg"
   xmlns:xlink="http://www.w3.org/1999/xlink"
   xmlns:sodipodi="http://sodipodi.sourceforge.net/DTD/sodipodi-0.dtd"
   xmlns:inkscape="http://www.inkscape.org/namespaces/inkscape"
   version="1.0"
   width="16"
   height="16"
   id="svg3123"
   inkscape:version="0.48.3.1 r9886"
   sodipodi:docname="camera-photo.svg">
  <metadata
     id="metadata119800">
    <rdf:RDF>
      <cc:Work
         rdf:about="">
        <dc:format>image/svg+xml</dc:format>
        <dc:type
           rdf:resource="http://purl.org/dc/dcmitype/StillImage" />
        <dc:title></dc:title>
      </cc:Work>
    </rdf:RDF>
  </metadata>
  <sodipodi:namedview
     pagecolor="#ffffff"
     bordercolor="#666666"
     borderopacity="1"
     objecttolerance="10"
     gridtolerance="10"
     guidetolerance="10"
     inkscape:pageopacity="0"
     inkscape:pageshadow="2"
     inkscape:window-width="1078"
     inkscape:window-height="792"
     id="namedview119798"
     showgrid="false"
     inkscape:zoom="10.727273"
     inkscape:cx="11"
     inkscape:cy="10.813559"
     inkscape:window-x="0"
     inkscape:window-y="0"
     inkscape:window-maximized="0"
     inkscape:current-layer="svg3123" />
  <defs
     id="defs3125">
    <linearGradient
       id="linearGradient18344">
      <stop
         id="stop18346"
         style="stop-color:#2f3537;stop-opacity:1"
         offset="0" />
      <stop
         id="stop18354"
         style="stop-color:#8a8e8e;stop-opacity:1"
         offset="0.30000001" />
      <stop
         id="stop18348"
         style="stop-color:#2f3537;stop-opacity:1"
         offset="1" />
    </linearGradient>
    <linearGradient
       id="linearGradient5428">
      <stop
         id="stop5430"
         style="stop-color:#7a7c7c;stop-opacity:1"
         offset="0" />
      <stop
         id="stop5432"
         style="stop-color:#33393a;stop-opacity:1"
         offset="1" />
    </linearGradient>
    <linearGradient
       id="linearGradient25793">
      <stop
         id="stop25795"
         style="stop-color:#f0f0f4;stop-opacity:1"
         offset="0" />
      <stop
         id="stop25819"
         style="stop-color:#eeeeec;stop-opacity:1"
         offset="0.03744119" />
      <stop
         id="stop25817"
         style="stop-color:#eeeeec;stop-opacity:0.69594592"
         offset="0.39254159" />
      <stop
         id="stop25803"
         style="stop-color:#a1a29f;stop-opacity:1"
         offset="0.90799886" />
      <stop
         id="stop25799"
         style="stop-color:#555753;stop-opacity:1"
         offset="1" />
    </linearGradient>
    <linearGradient
       id="linearGradient26816">
      <stop
         id="stop26818"
         style="stop-color:#ffffff;stop-opacity:1"
         offset="0" />
      <stop
         id="stop26820"
         style="stop-color:#eeeeec;stop-opacity:0"
         offset="1" />
    </linearGradient>
    <linearGradient
       id="linearGradient26830">
      <stop
         id="stop26832"
         style="stop-color:#ffffff;stop-opacity:1"
         offset="0" />
      <stop
         id="stop26834"
         style="stop-color:#ffffff;stop-opacity:0"
         offset="1" />
    </linearGradient>
    <linearGradient
       id="linearGradient18403">
      <stop
         id="stop18405"
         style="stop-color:#eeeeec;stop-opacity:1"
         offset="0" />
      <stop
         id="stop18407"
         style="stop-color:#eeeeec;stop-opacity:0"
         offset="1" />
    </linearGradient>
    <linearGradient
       id="linearGradient26168">
      <stop
         id="stop26170"
         style="stop-color:#eeeeec;stop-opacity:1"
         offset="0" />
      <stop
         id="stop26172"
         style="stop-color:#eeeeec;stop-opacity:0"
         offset="1" />
    </linearGradient>
    <linearGradient
       id="linearGradient26128">
      <stop
         id="stop26130"
         style="stop-color:#eeeeec;stop-opacity:0.9527027"
         offset="0" />
      <stop
         id="stop26146"
         style="stop-color:#eeeeec;stop-opacity:0"
         offset="0.47988781" />
      <stop
         id="stop26148"
         style="stop-color:#eeeeec;stop-opacity:0.99324322"
         offset="0.5229584" />
      <stop
         id="stop26132"
         style="stop-color:#eeeeec;stop-opacity:0"
         offset="0.63153976" />
      <stop
         id="stop26134"
         style="stop-color:#eeeeec;stop-opacity:0.23529412"
         offset="0.7383545" />
      <stop
         id="stop26136"
         style="stop-color:#ffffff;stop-opacity:0.71621621"
         offset="0.83400774" />
      <stop
         id="stop26142"
         style="stop-color:#f6f6f5;stop-opacity:0.27027026"
         offset="0.90514386" />
      <stop
         id="stop26144"
         style="stop-color:#f2f2f0;stop-opacity:0.27702704"
         offset="0.90514386" />
      <stop
         id="stop26138"
         style="stop-color:#eeeeec;stop-opacity:0"
         offset="1" />
    </linearGradient>
    <linearGradient
       id="linearGradient26021">
      <stop
         id="stop26023"
         style="stop-color:#eeeeec;stop-opacity:0"
         offset="0" />
      <stop
         id="stop26029"
         style="stop-color:#eeeeec;stop-opacity:0.49803922"
         offset="0.86670214" />
      <stop
         id="stop26025"
         style="stop-color:#eeeeec;stop-opacity:0"
         offset="1" />
    </linearGradient>
    <linearGradient
       id="linearGradient26120">
      <stop
         id="stop26122"
         style="stop-color:#2e3436;stop-opacity:0"
         offset="0" />
      <stop
         id="stop26124"
         style="stop-color:#2e3436;stop-opacity:0"
         offset="0.47336468" />
      <stop
         id="stop26126"
         style="stop-color:#0f1112;stop-opacity:1"
         offset="1" />
    </linearGradient>
    <linearGradient
       id="linearGradient26075">
      <stop
         id="stop26077"
         style="stop-color:#555753;stop-opacity:0"
         offset="0" />
      <stop
         id="stop26079"
         style="stop-color:#eeeeec;stop-opacity:1"
         offset="1" />
    </linearGradient>
    <linearGradient
       id="linearGradient8690">
      <stop
         id="stop8692"
         style="stop-color:#3a3a3a;stop-opacity:1"
         offset="0" />
      <stop
         id="stop8694"
         style="stop-color:#3a3a3a;stop-opacity:0"
         offset="1" />
    </linearGradient>
    <linearGradient
       id="linearGradient8660">
      <stop
         id="stop8662"
         style="stop-color:#2e3436;stop-opacity:1"
         offset="0" />
      <stop
         id="stop8664"
         style="stop-color:#555753;stop-opacity:0"
         offset="1" />
    </linearGradient>
    <linearGradient
       id="linearGradient26091">
      <stop
         id="stop26093"
         style="stop-color:#2e3436;stop-opacity:1"
         offset="0" />
      <stop
         id="stop26095"
         style="stop-color:#ffffff;stop-opacity:1"
         offset="1" />
    </linearGradient>
    <linearGradient
       id="linearGradient26099">
      <stop
         id="stop26101"
         style="stop-color:#eeeeec;stop-opacity:1"
         offset="0" />
      <stop
         id="stop26103"
         style="stop-color:#babdb6;stop-opacity:1"
         offset="1" />
    </linearGradient>
    <linearGradient
       id="linearGradient9785">
      <stop
         id="stop9787"
         style="stop-color:#eeeeec;stop-opacity:1"
         offset="0" />
      <stop
         id="stop9789"
         style="stop-color:#090908;stop-opacity:0.96621621"
         offset="1" />
    </linearGradient>
    <linearGradient
       id="linearGradient9688">
      <stop
         id="stop9690"
         style="stop-color:#eeeeec;stop-opacity:1"
         offset="0" />
      <stop
         id="stop9692"
         style="stop-color:#ffffff;stop-opacity:0"
         offset="1" />
    </linearGradient>
    <linearGradient
       id="linearGradient26371">
      <stop
         id="stop26373"
         style="stop-color:#777777;stop-opacity:0"
         offset="0" />
      <stop
         id="stop26375"
         style="stop-color:#2b2b2b;stop-opacity:1"
         offset="1" />
    </linearGradient>
    <linearGradient
       id="linearGradient17941">
      <stop
         id="stop17943"
         style="stop-color:#e9e9e9;stop-opacity:1"
         offset="0" />
      <stop
         id="stop17945"
         style="stop-color:#a7a7a7;stop-opacity:1"
         offset="0" />
      <stop
         id="stop17947"
         style="stop-color:#bebebe;stop-opacity:1"
         offset="0.52899867" />
      <stop
         id="stop17949"
         style="stop-color:#e7e7e7;stop-opacity:1"
         offset="1" />
    </linearGradient>
    <linearGradient
       id="linearGradient17963">
      <stop
         id="stop17965"
         style="stop-color:#dee3e0;stop-opacity:1"
         offset="0" />
      <stop
         id="stop17967"
         style="stop-color:#dee3e0;stop-opacity:0"
         offset="1" />
    </linearGradient>
    <linearGradient
       id="linearGradient5404">
      <stop
         id="stop5406"
         style="stop-color:#ffffff;stop-opacity:1"
         offset="0" />
      <stop
         id="stop5408"
         style="stop-color:#ffffff;stop-opacity:0"
         offset="1" />
    </linearGradient>
    <linearGradient
       id="linearGradient10695">
      <stop
         id="stop10697"
         style="stop-color:#b100cb;stop-opacity:1"
         offset="0" />
      <stop
         id="stop10699"
         style="stop-color:#204a87;stop-opacity:0"
         offset="1" />
    </linearGradient>
    <radialGradient
       cx="76.16552"
       cy="14.781876"
       r="20.999798"
       fx="76.16552"
       fy="14.781876"
       id="radialGradient2647"
       xlink:href="#linearGradient5428"
       gradientUnits="userSpaceOnUse"
       gradientTransform="matrix(2.154094,0,0,0.07786419,-151.98292,4.8440247)" />
    <linearGradient
       x1="8.5625"
       y1="4.646832"
       x2="8.5625"
       y2="45.818478"
       id="linearGradient2649"
       xlink:href="#linearGradient18344"
       gradientUnits="userSpaceOnUse"
       gradientTransform="matrix(0.5120698,0,0,0.5553992,-26.917304,-0.7741826)" />
    <linearGradient
       x1="697.91443"
       y1="327.78354"
       x2="700.41443"
       y2="496.33771"
       id="linearGradient2651"
       xlink:href="#linearGradient25793"
       gradientUnits="userSpaceOnUse"
       gradientTransform="matrix(0.0769585,0,0,0.08303838,-43.376795,-21.218605)" />
    <radialGradient
       cx="400.29608"
       cy="127.65469"
       r="2.0221689"
       fx="400.29608"
       fy="127.65469"
       id="radialGradient2653"
       xlink:href="#linearGradient26816"
       gradientUnits="userSpaceOnUse"
       gradientTransform="matrix(0.5294073,1.6054926e-5,-7.0512917e-6,0.25712,-197.22792,-24.232658)" />
    <radialGradient
       cx="399.8783"
       cy="127.24747"
       r="2.0221689"
       fx="399.8783"
       fy="127.24747"
       id="radialGradient2655"
       xlink:href="#linearGradient26830"
       gradientUnits="userSpaceOnUse"
       gradientTransform="matrix(0.4708328,-0.04895889,0.06094931,0.2300824,-181.17516,-1.0708632)" />
    <radialGradient
       cx="427.79684"
       cy="33.604549"
       r="74.907745"
       fx="427.79684"
       fy="33.604549"
       id="radialGradient2657"
       xlink:href="#linearGradient18403"
       gradientUnits="userSpaceOnUse"
       gradientTransform="matrix(-0.2240538,0.05376216,-0.04083939,-0.1883273,115.73153,-7.7998216)" />
    <radialGradient
       cx="502.53064"
       cy="217.46133"
       r="74.907745"
       fx="502.53064"
       fy="217.46133"
       id="radialGradient2659"
       xlink:href="#linearGradient26168"
       gradientUnits="userSpaceOnUse"
       gradientTransform="matrix(0.05243909,-0.03829218,0.01792908,0.02997364,-12.077491,28.739844)" />
    <radialGradient
       cx="459.45273"
       cy="170.414"
       r="74.907745"
       fx="459.45273"
       fy="170.414"
       id="radialGradient2661"
       xlink:href="#linearGradient26128"
       gradientUnits="userSpaceOnUse"
       gradientTransform="matrix(0.07544327,-1.2226476e-8,0,0.06555618,-19.694917,1.7403194)" />
    <radialGradient
       cx="449.88171"
       cy="165.51567"
       r="74.907745"
       fx="449.88171"
       fy="165.51567"
       id="radialGradient2663"
       xlink:href="#linearGradient26021"
       gradientUnits="userSpaceOnUse"
       gradientTransform="matrix(0,-0.05073858,0.05278397,0,6.2623617,35.020661)" />
    <radialGradient
       cx="529.39941"
       cy="95.381569"
       r="74.907745"
       fx="529.39941"
       fy="95.381569"
       id="radialGradient2665"
       xlink:href="#linearGradient26120"
       gradientUnits="userSpaceOnUse"
       gradientTransform="matrix(0,0.05277248,-0.05046163,0,19.812043,-14.98788)" />
    <linearGradient
       x1="469.35895"
       y1="126.83501"
       x2="280.0184"
       y2="225.83026"
       id="linearGradient2667"
       xlink:href="#linearGradient26075"
       gradientUnits="userSpaceOnUse"
       gradientTransform="matrix(0.04670754,0,0,0.06854897,-6.3555464,0.8819419)" />
    <radialGradient
       cx="344.26065"
       cy="218.66101"
       r="74.907745"
       fx="344.26065"
       fy="218.66101"
       id="radialGradient2669"
       xlink:href="#linearGradient26075"
       gradientUnits="userSpaceOnUse"
       gradientTransform="matrix(-0.00685942,-0.1301125,0.04680436,-0.00291791,7.1260749,59.158019)" />
    <radialGradient
       cx="469.91165"
       cy="131.83463"
       r="74.907745"
       fx="469.91165"
       fy="131.83463"
       id="radialGradient2671"
       xlink:href="#linearGradient8660"
       gradientUnits="userSpaceOnUse"
       gradientTransform="matrix(-0.07022907,-0.0722737,0.06150812,-0.0685738,41.698099,51.838202)" />
    <radialGradient
       cx="434.12521"
       cy="98.974625"
       r="74.907745"
       fx="434.12521"
       fy="98.974625"
       id="radialGradient2673"
       xlink:href="#linearGradient8660"
       gradientUnits="userSpaceOnUse"
       gradientTransform="matrix(-0.07508467,0.08105827,-0.09931679,-0.1072186,57.424925,-13.737543)" />
    <radialGradient
       cx="441.3573"
       cy="130.89047"
       r="75.756241"
       fx="441.3573"
       fy="130.89047"
       id="radialGradient2675"
       xlink:href="#linearGradient8690"
       gradientUnits="userSpaceOnUse"
       gradientTransform="matrix(-0.00643105,-0.0467684,0.1457874,-0.02336381,-1.2448522,34.278058)" />
    <radialGradient
       cx="439.04871"
       cy="111.3"
       r="75.752426"
       fx="439.04871"
       fy="111.3"
       id="radialGradient2677"
       xlink:href="#linearGradient26099"
       gradientUnits="userSpaceOnUse"
       gradientTransform="matrix(0.03550462,-0.02981257,0.05772509,0.08077235,-8.2777048,16.975376)" />
    <linearGradient
       x1="457.19556"
       y1="289.77823"
       x2="457.19556"
       y2="114.22821"
       id="linearGradient2679"
       xlink:href="#linearGradient26091"
       gradientUnits="userSpaceOnUse"
       gradientTransform="matrix(0.0362164,0,0,0.05315197,-1.5590443,5.1097004)" />
    <linearGradient
       x1="236.75015"
       y1="171.61981"
       x2="222.73204"
       y2="179.03932"
       id="linearGradient2681"
       xlink:href="#linearGradient9688"
       gradientUnits="userSpaceOnUse"
       gradientTransform="matrix(0.0693886,0,0,0.07028112,-1.7394133,1.7748324)" />
    <radialGradient
       cx="251.69016"
       cy="171.7894"
       r="21.53125"
       fx="251.69016"
       fy="171.7894"
       id="radialGradient2683"
       xlink:href="#linearGradient9785"
       gradientUnits="userSpaceOnUse"
       gradientTransform="matrix(0.02031434,-0.08642755,0.1262225,0.03362891,-10.048302,31.348037)" />
    <radialGradient
       cx="258.76035"
       cy="183.6442"
       r="18.578125"
       fx="258.76035"
       fy="183.6442"
       id="radialGradient2685"
       xlink:href="#linearGradient9688"
       gradientUnits="userSpaceOnUse"
       gradientTransform="matrix(0.08681611,-0.00123428,8.9193262e-4,0.06944268,-6.3501255,2.2040319)" />
    <radialGradient
       cx="442.29459"
       cy="62.526134"
       r="77.922958"
       fx="442.29459"
       fy="62.526134"
       id="radialGradient2687"
       xlink:href="#linearGradient26371"
       gradientUnits="userSpaceOnUse"
       gradientTransform="matrix(-6.8078266e-6,-0.7928091,0.1352587,0,6.5457989,363.15509)" />
    <radialGradient
       cx="9.1189642"
       cy="20.823402"
       r="3.1769876"
       fx="9.1189642"
       fy="20.823402"
       id="radialGradient2689"
       xlink:href="#linearGradient17963"
       gradientUnits="userSpaceOnUse"
       gradientTransform="matrix(0,-0.4109864,1.6624229,0,-28.206988,10.328793)" />
    <radialGradient
       cx="9.2365828"
       cy="17.108955"
       r="2.9610097"
       fx="9.2365828"
       fy="17.108955"
       id="radialGradient2691"
       xlink:href="#linearGradient17941"
       gradientUnits="userSpaceOnUse"
       gradientTransform="matrix(0.7650995,-3.1729114e-7,1.1408038e-7,0.3024635,-0.565594,-0.2352367)" />
    <radialGradient
       cx="14.738829"
       cy="12.007012"
       r="0.546875"
       fx="14.738829"
       fy="12.007012"
       id="radialGradient2693"
       xlink:href="#linearGradient17963"
       gradientUnits="userSpaceOnUse"
       gradientTransform="matrix(-2.0487495e-6,-1.4869501,2.0400821,-3.5617813e-6,-18.108074,27.848316)" />
    <linearGradient
       x1="15.578756"
       y1="19.011086"
       x2="15.578756"
       y2="50.618919"
       id="linearGradient2695"
       xlink:href="#linearGradient5404"
       gradientUnits="userSpaceOnUse"
       gradientTransform="matrix(0.4749893,0,0,0.4999652,0.6002573,-3.5048813)" />
    <radialGradient
       cx="171.25"
       cy="188.5"
       r="19"
       fx="171.25"
       fy="188.5"
       id="radialGradient2697"
       xlink:href="#linearGradient10695"
       gradientUnits="userSpaceOnUse"
       gradientTransform="matrix(0.1163274,0,0,0.1223665,-5.8198402,-9.8608238)" />
    <linearGradient
       inkscape:collect="always"
       xlink:href="#linearGradient5404"
       id="linearGradient3124"
       gradientUnits="userSpaceOnUse"
       gradientTransform="matrix(0.3249792,0,0,0.4332791,0.20029767,-5.4371224)"
       x1="15.578756"
       y1="19.011086"
       x2="15.578756"
       y2="50.618919" />
    <radialGradient
       inkscape:collect="always"
       xlink:href="#linearGradient17963"
       id="radialGradient3127"
       gradientUnits="userSpaceOnUse"
       gradientTransform="matrix(-1.1583133e-6,-0.91015108,1.153413,-2.1801398e-6,-10.391646,15.693302)"
       cx="14.738829"
       cy="12.007012"
       fx="14.738829"
       fy="12.007012"
       r="0.546875" />
    <radialGradient
       inkscape:collect="always"
       xlink:href="#linearGradient17941"
       id="radialGradient3130"
       gradientUnits="userSpaceOnUse"
       gradientTransform="matrix(0.43256873,-1.9421155e-7,6.4498284e-8,0.18513564,-0.4735536,-1.4964317)"
       cx="9.2365828"
       cy="17.108955"
       fx="9.2365828"
       fy="17.108955"
       r="2.9610097" />
    <radialGradient
       inkscape:collect="always"
       xlink:href="#linearGradient17963"
       id="radialGradient3133"
       gradientUnits="userSpaceOnUse"
       gradientTransform="matrix(0,-0.25156172,0.93989364,0,-16.101328,4.9697325)"
       cx="9.1189642"
       cy="20.823402"
       fx="9.1189642"
       fy="20.823402"
       r="3.1769876" />
    <radialGradient
       inkscape:collect="always"
       xlink:href="#linearGradient26371"
       id="radialGradient3136"
       gradientUnits="userSpaceOnUse"
       gradientTransform="matrix(-6.8078266e-6,-0.79280902,0.1352587,0,1.5457984,359.15507)"
       cx="442.29459"
       cy="62.526134"
       fx="442.29459"
       fy="62.526134"
       r="77.922958" />
    <radialGradient
       inkscape:collect="always"
       xlink:href="#linearGradient26830"
       id="radialGradient3186"
       gradientUnits="userSpaceOnUse"
       gradientTransform="matrix(0.4708328,-0.04895889,0.06094931,0.2300824,-155.23448,-9.1895073)"
       cx="399.8783"
       cy="127.24747"
       fx="399.8783"
       fy="127.24747"
       r="2.0221689" />
    <radialGradient
       inkscape:collect="always"
       xlink:href="#linearGradient26816"
       id="radialGradient3189"
       gradientUnits="userSpaceOnUse"
       gradientTransform="matrix(0.5294073,1.6054926e-5,-7.0512917e-6,0.25712,-171.28724,-32.351302)"
       cx="400.29608"
       cy="127.65469"
       fx="400.29608"
       fy="127.65469"
       r="2.0221689" />
    <linearGradient
       inkscape:collect="always"
       xlink:href="#linearGradient25793"
       id="linearGradient3192"
       gradientUnits="userSpaceOnUse"
       gradientTransform="matrix(0.05387095,0,0,0.0719626,-30.763756,-20.788163)"
       x1="697.91443"
       y1="327.78354"
       x2="700.41443"
       y2="496.33771" />
    <radialGradient
       inkscape:collect="always"
       xlink:href="#linearGradient5428"
       id="radialGradient3195"
       gradientUnits="userSpaceOnUse"
       gradientTransform="matrix(1.5383796,0,0,0.06747855,-109.11071,1.7981939)"
       cx="76.16552"
       cy="14.781876"
       fx="76.16552"
       fy="14.781876"
       r="20.999798" />
    <linearGradient
       inkscape:collect="always"
       xlink:href="#linearGradient18344"
       id="linearGradient3197"
       gradientUnits="userSpaceOnUse"
       gradientTransform="matrix(0.36570258,0,0,0.48131923,-19.793162,-3.0706486)"
       x1="8.5625"
       y1="4.646832"
       x2="8.5625"
       y2="45.818478" />
    <radialGradient
       inkscape:collect="always"
       xlink:href="#linearGradient18403"
       id="radialGradient3218"
       gradientUnits="userSpaceOnUse"
       gradientTransform="matrix(-0.2240538,0.05376216,-0.04083939,-0.1883273,141.67221,-15.918466)"
       cx="427.79684"
       cy="33.604549"
       fx="427.79684"
       fy="33.604549"
       r="74.907745" />
    <radialGradient
       inkscape:collect="always"
       xlink:href="#linearGradient26128"
       id="radialGradient3220"
       gradientUnits="userSpaceOnUse"
       gradientTransform="matrix(0.07544327,-1.2226476e-8,0,0.06555618,6.245761,-6.3783247)"
       cx="459.45273"
       cy="170.414"
       fx="459.45273"
       fy="170.414"
       r="74.907745" />
    <radialGradient
       inkscape:collect="always"
       xlink:href="#linearGradient26021"
       id="radialGradient3222"
       gradientUnits="userSpaceOnUse"
       gradientTransform="matrix(0,-0.05073858,0.05278397,0,32.20304,26.902017)"
       cx="449.88171"
       cy="165.51567"
       fx="449.88171"
       fy="165.51567"
       r="74.907745" />
    <radialGradient
       inkscape:collect="always"
       xlink:href="#linearGradient26120"
       id="radialGradient3224"
       gradientUnits="userSpaceOnUse"
       gradientTransform="matrix(0,0.05277248,-0.05046163,0,45.752721,-23.106524)"
       cx="529.39941"
       cy="95.381569"
       fx="529.39941"
       fy="95.381569"
       r="74.907745" />
    <linearGradient
       inkscape:collect="always"
       xlink:href="#linearGradient26075"
       id="linearGradient3226"
       gradientUnits="userSpaceOnUse"
       gradientTransform="matrix(0.04670754,0,0,0.06854897,19.585132,-7.2367022)"
       x1="469.35895"
       y1="126.83501"
       x2="280.0184"
       y2="225.83026" />
    <radialGradient
       inkscape:collect="always"
       xlink:href="#linearGradient26075"
       id="radialGradient3228"
       gradientUnits="userSpaceOnUse"
       gradientTransform="matrix(-0.00685942,-0.1301125,0.04680436,-0.00291791,33.066753,51.039375)"
       cx="344.26065"
       cy="218.66101"
       fx="344.26065"
       fy="218.66101"
       r="74.907745" />
    <radialGradient
       inkscape:collect="always"
       xlink:href="#linearGradient8660"
       id="radialGradient3230"
       gradientUnits="userSpaceOnUse"
       gradientTransform="matrix(-0.07022907,-0.0722737,0.06150812,-0.0685738,67.638777,43.719558)"
       cx="469.91165"
       cy="131.83463"
       fx="469.91165"
       fy="131.83463"
       r="74.907745" />
    <radialGradient
       inkscape:collect="always"
       xlink:href="#linearGradient8660"
       id="radialGradient3232"
       gradientUnits="userSpaceOnUse"
       gradientTransform="matrix(-0.07508467,0.08105827,-0.09931679,-0.1072186,83.365603,-21.856187)"
       cx="434.12521"
       cy="98.974625"
       fx="434.12521"
       fy="98.974625"
       r="74.907745" />
    <radialGradient
       inkscape:collect="always"
       xlink:href="#linearGradient8690"
       id="radialGradient3234"
       gradientUnits="userSpaceOnUse"
       gradientTransform="matrix(-0.00643105,-0.0467684,0.1457874,-0.02336381,24.695826,26.159414)"
       cx="441.3573"
       cy="130.89047"
       fx="441.3573"
       fy="130.89047"
       r="75.756241" />
    <radialGradient
       inkscape:collect="always"
       xlink:href="#linearGradient26099"
       id="radialGradient3236"
       gradientUnits="userSpaceOnUse"
       gradientTransform="matrix(0.03550462,-0.02981257,0.05772509,0.08077235,17.662973,8.856732)"
       cx="439.04871"
       cy="111.3"
       fx="439.04871"
       fy="111.3"
       r="75.752426" />
    <linearGradient
       inkscape:collect="always"
       xlink:href="#linearGradient26091"
       id="linearGradient3238"
       gradientUnits="userSpaceOnUse"
       gradientTransform="matrix(0.0362164,0,0,0.05315197,24.381634,-3.0089437)"
       x1="457.19556"
       y1="289.77823"
       x2="457.19556"
       y2="114.22821" />
    <linearGradient
       inkscape:collect="always"
       xlink:href="#linearGradient9688"
       id="linearGradient3240"
       gradientUnits="userSpaceOnUse"
       gradientTransform="matrix(0.0693886,0,0,0.07028112,24.201265,-6.3438117)"
       x1="236.75015"
       y1="171.61981"
       x2="222.73204"
       y2="179.03932" />
    <radialGradient
       inkscape:collect="always"
       xlink:href="#linearGradient9785"
       id="radialGradient3242"
       gradientUnits="userSpaceOnUse"
       gradientTransform="matrix(0.02031434,-0.08642755,0.1262225,0.03362891,15.892376,23.229393)"
       cx="251.69016"
       cy="171.7894"
       fx="251.69016"
       fy="171.7894"
       r="21.53125" />
    <radialGradient
       inkscape:collect="always"
       xlink:href="#linearGradient9688"
       id="radialGradient3244"
       gradientUnits="userSpaceOnUse"
       gradientTransform="matrix(0.08681611,-0.00123428,8.9193262e-4,0.06944268,19.590552,-5.9146122)"
       cx="258.76035"
       cy="183.6442"
       fx="258.76035"
       fy="183.6442"
       r="18.578125" />
    <radialGradient
       inkscape:collect="always"
       xlink:href="#linearGradient10695"
       id="radialGradient3246"
       gradientUnits="userSpaceOnUse"
       gradientTransform="matrix(0.1163274,0,0,0.1223665,20.120838,-17.979468)"
       cx="171.25"
       cy="188.5"
       fx="171.25"
       fy="188.5"
       r="19" />
  </defs>
  <rect
     style="fill:url(#radialGradient3195);fill-opacity:1;fill-rule:nonzero;stroke:url(#linearGradient3197);stroke-width:1.00999999;stroke-linecap:round;stroke-linejoin:round;stroke-miterlimit:4;stroke-opacity:1;stroke-dasharray:none"
     id="rect5438"
     y="1.5043889"
     x="0.50523376"
     ry="1.0109795"
     rx="0.90506774"
     height="12.990611"
     width="14.99" />
  <rect
     style="fill:url(#linearGradient3192);fill-opacity:1;fill-rule:nonzero;stroke:none"
     id="rect5445"
     y="2.7999835"
     x="1"
     ry="0.77796876"
     rx="0.58005613"
     height="11.266041"
     width="14" />
  <path
     inkscape:connector-curvature="0"
     style="fill:none;stroke:url(#radialGradient3136);stroke-width:0.99999988;stroke-linecap:round;stroke-linejoin:round;stroke-miterlimit:4;stroke-opacity:1;stroke-dasharray:none"
     id="path5497"
     d="M 15.5,8.5000011 C 15.5,11.813709 13.037565,14.5 10,14.5 6.9624331,14.5 4.4999999,11.813709 4.4999999,8.5000011 4.4999999,5.1862916 6.9624331,2.5000009 10,2.5000009 c 3.037565,0 5.5,2.6862907 5.5,6.0000002 l 0,0 z" />
  <path
     inkscape:connector-curvature="0"
     style="fill:#2e3436;fill-opacity:1;fill-rule:evenodd;stroke:url(#radialGradient3133);stroke-width:0.49570271;stroke-linecap:butt;stroke-linejoin:miter;stroke-miterlimit:10;stroke-opacity:0.99607843;stroke-dasharray:none;stroke-dashoffset:0;marker:none;visibility:visible;display:inline;overflow:visible;enable-background:accumulate"
     id="path5511"
     d="m 4.7942044,1.9291989 c 2.59e-4,0.3713036 -0.569838,0.6723767 -1.273176,0.6723767 -0.703339,0 -1.273435,-0.3010731 -1.273177,-0.6723767 -2.58e-4,-0.3713031 0.569838,-0.6723765 1.273177,-0.6723765 0.703338,0 1.273435,0.3010734 1.273176,0.6723765 l 0,0 z" />
  <path
     inkscape:connector-curvature="0"
     style="fill:url(#radialGradient3130);fill-opacity:1;fill-rule:evenodd;stroke:none;stroke-width:0.37656182;marker:none;visibility:visible;display:inline;overflow:visible;enable-background:accumulate"
     id="path5513"
     d="m 4.5457144,1.6710442 c 2.08e-4,0.2870726 -0.458229,0.519847 -1.023811,0.519847 -0.565582,0 -1.024019,-0.2327738 -1.023811,-0.519847 -2.08e-4,-0.2870729 0.458229,-0.519847 1.023811,-0.519847 0.565582,0 1.024019,0.2327739 1.023811,0.519847 z" />
  <rect
     style="fill:#2e3436;fill-opacity:1;fill-rule:nonzero;stroke:url(#radialGradient3127);stroke-width:0.3021751;stroke-linecap:butt;stroke-linejoin:round;stroke-miterlimit:0;stroke-opacity:1;stroke-dasharray:none"
     id="rect5515"
     y="2.2593868"
     x="3.2391849"
     ry="0.2245923"
     rx="0.17455707"
     height="0.58952576"
     width="0.49193352" />
  <rect
     style="opacity:0.4;fill:none;stroke:url(#linearGradient3124);stroke-width:1.00083303;stroke-linecap:round;stroke-linejoin:round;stroke-miterlimit:4;stroke-opacity:1;stroke-dasharray:none"
     id="rect5519"
     y="3.2284584"
     x="1.5002143"
     ry="0.33461908"
     rx="0.2548005"
     height="10.398699"
     width="12.999167" />
  <g
     id="g3199"
     transform="translate(-30.910152,3.948929)">
    <path
       d="m 45.937836,4.563335 c 0,2.903754 -2.237782,5.25771 -4.998223,5.25771 -2.760442,0 -4.998222,-2.353956 -4.998222,-5.25771 0,-2.9037538 2.23778,-5.2577106 4.998222,-5.2577106 2.760441,0 4.998223,2.3539568 4.998223,5.2577106 l 0,0 z"
       id="path5463"
       style="fill:url(#radialGradient3218);fill-opacity:1;fill-rule:nonzero;stroke:none"
       inkscape:connector-curvature="0" />
    <path
       d="m 45.438015,4.563335 c 0,2.61338 -2.014002,4.73194 -4.498402,4.73194 -2.484398,0 -4.498401,-2.11856 -4.498401,-4.73194 0,-2.6133791 2.014003,-4.7319403 4.498401,-4.7319403 2.4844,0 4.498402,2.1185612 4.498402,4.7319403 l 0,0 z"
       id="path5465"
       style="fill:#888a85;fill-opacity:1;fill-rule:nonzero;stroke:none"
       inkscape:connector-curvature="0" />
    <path
       d="m 45.906598,4.79336 c 0,2.903752 -2.237782,5.257711 -4.998223,5.257711 -2.760443,0 -4.998223,-2.353959 -4.998223,-5.257711 0,-2.9037541 2.23778,-5.2577108 4.998223,-5.2577108 2.760441,0 4.998223,2.3539567 4.998223,5.2577108 l 0,0 z"
       id="path5469"
       style="fill:url(#radialGradient3220);fill-opacity:1;fill-rule:nonzero;stroke:none"
       inkscape:connector-curvature="0" />
    <path
       d="m 44.972748,4.385897 c 0,2.270413 -1.805695,4.110946 -4.033135,4.110946 -2.22744,0 -4.033136,-1.840533 -4.033136,-4.110946 0,-2.2704161 1.805696,-4.1109507 4.033136,-4.1109507 2.22744,0 4.033135,1.8405346 4.033135,4.1109507 l 0,0 z"
       id="path5471"
       style="fill:url(#radialGradient3222);fill-opacity:1;fill-rule:nonzero;stroke:none"
       inkscape:connector-curvature="0" />
    <path
       d="m 44.43837,4.563335 c 0,2.032626 -1.566448,3.680397 -3.498757,3.680397 -1.93231,0 -3.498757,-1.647771 -3.498757,-3.680397 0,-2.0326261 1.566447,-3.6803976 3.498757,-3.6803976 1.932309,0 3.498757,1.6477715 3.498757,3.6803976 z"
       id="path5473"
       style="opacity:0.85148513;fill:url(#radialGradient3224);fill-opacity:1;fill-rule:nonzero;stroke:none"
       inkscape:connector-curvature="0" />
    <path
       d="m 44.43837,4.563334 c 0,2.032627 -1.566448,3.680398 -3.498757,3.680398 -1.93231,0 -3.498757,-1.647771 -3.498757,-3.680398 0,-2.0326261 1.566447,-3.6803974 3.498757,-3.6803974 1.932309,0 3.498757,1.6477713 3.498757,3.6803974 z"
       id="path5475"
       style="fill:url(#linearGradient3226);fill-opacity:1;fill-rule:nonzero;stroke:none"
       inkscape:connector-curvature="0" />
    <path
       d="m 44.43837,5.089106 c 0,2.032628 -1.566448,3.680397 -3.498757,3.680397 -1.93231,0 -3.498757,-1.647769 -3.498757,-3.680397 0,-2.0326261 1.566447,-3.6803969 3.498757,-3.6803969 1.932309,0 3.498757,1.6477708 3.498757,3.6803969 z"
       id="path5477"
       style="fill:url(#radialGradient3228);fill-opacity:1;fill-rule:nonzero;stroke:none"
       inkscape:connector-curvature="0" />
    <path
       d="m 43.805499,5.061562 c 0,1.742251 -1.290363,3.154629 -2.882105,3.154629 -1.591745,0 -2.882106,-1.412378 -2.882106,-3.154629 0,-1.7422511 1.290361,-3.1546261 2.882106,-3.1546261 1.591742,0 2.882105,1.412375 2.882105,3.1546261 l 0,0 z"
       id="path5479"
       style="opacity:0.53960422;fill:url(#radialGradient3230);fill-opacity:1;fill-rule:nonzero;stroke:none"
       inkscape:connector-curvature="0" />
    <path
       d="m 43.77648,5.351992 c 0,1.575503 -1.270107,2.8527 -2.836868,2.8527 -1.566759,0 -2.836867,-1.277197 -2.836867,-2.8527 0,-1.5755071 1.270108,-2.8527071 2.836867,-2.8527071 1.566761,0 2.836868,1.2772 2.836868,2.8527071 z"
       id="path5481"
       style="fill:url(#radialGradient3232);fill-opacity:1;fill-rule:nonzero;stroke:url(#radialGradient3234);stroke-width:0.14849523;stroke-linecap:round;stroke-linejoin:round;stroke-miterlimit:4;stroke-opacity:1;stroke-dasharray:none"
       inkscape:connector-curvature="0" />
    <path
       d="m 43.652502,6.140647 c 0,1.575257 -1.215374,2.853729 -2.71289,2.853729 -1.497515,0 -2.712888,-1.278472 -2.712888,-2.853729 0,-1.575259 1.215373,-2.8537311 2.712888,-2.8537311 1.497516,0 2.71289,1.2784721 2.71289,2.8537311 z"
       id="path5483"
       style="fill:url(#radialGradient3236);fill-opacity:1;fill-rule:nonzero;stroke:url(#linearGradient3238);stroke-width:0.14458711;stroke-linecap:round;stroke-linejoin:round;stroke-miterlimit:4;stroke-opacity:1"
       inkscape:connector-curvature="0" />
    <path
       d="m 43.188814,6.140646 c 0,1.306692 -1.007001,2.365971 -2.249201,2.365971 -1.242199,0 -2.2492,-1.059279 -2.2492,-2.365971 0,-1.306689 1.007001,-2.3659671 2.2492,-2.3659671 1.2422,0 2.249201,1.0592781 2.249201,2.3659671 l 0,0 z"
       id="path5485"
       style="fill:#2e3436;fill-opacity:1;fill-rule:nonzero;stroke:none"
       inkscape:connector-curvature="0" />
    <path
       d="m 40.551866,4.808222 c -0.04247,0.01395 -0.08317,0.03024 -0.123599,0.04832 0.04038,-0.0182 0.08117,-0.03427 0.123599,-0.04832 z m 0.884703,0.02635 c 0.01749,0.0069 0.03493,0.01429 0.05204,0.02196 -0.01718,-0.0077 -0.03448,-0.01501 -0.05204,-0.02196 z m -1.153585,0.09884 c -0.0283,0.01718 -0.05555,0.03568 -0.0824,0.05491 0.02665,-0.01923 0.05433,-0.03768 0.0824,-0.05491 z m -0.0824,0.05491 c -0.03229,0.02312 -0.06322,0.04658 -0.09324,0.07248 0.02964,-0.02565 0.06141,-0.04951 0.09324,-0.07248 z m 1.637137,0.09883 c 0.01856,0.01703 0.03666,0.03464 0.05421,0.05271 -0.01755,-0.01799 -0.03567,-0.03575 -0.05421,-0.05271 z m -1.762903,0.0044 c -0.0238,0.02198 -0.04726,0.04441 -0.06939,0.06808 0.02218,-0.02373 0.04556,-0.04602 0.06939,-0.06808 z m -0.06939,0.06808 c -0.168625,0.180434 -0.288014,0.407551 -0.333932,0.661082 -1.29e-4,7.1e-4 1.29e-4,0.0015 0,0.0022 l 0,0.467809 c 0.06956,0.387756 0.308624,0.715411 0.637507,0.904871 l 1.298866,0 c 0.315112,-0.181526 0.546535,-0.489901 0.626668,-0.856549 l 0,-0.0044 0,-0.555659 C 42.198877,5.61324 42.133092,5.458179 42.04155,5.32216 41.97034,5.22568 41.887955,5.155734 41.798689,5.117904 l -1.743388,0 c -0.01755,0.01375 -0.03372,0.02754 -0.04987,0.04173 l -3e-6,-2e-6 z m -0.333932,1.131086 c -0.0068,-0.03764 -0.01156,-0.0753 -0.01518,-0.114205 0.0035,0.03878 0.0084,0.07647 0.01518,0.114205 z m 0,-0.467809 c -0.0068,0.03782 -0.0117,0.07535 -0.01518,0.114209 0.0036,-0.03837 0.0084,-0.07659 0.01518,-0.114209 z m 2.27898,-0.621547 c 0.01271,0.01488 0.02482,0.03068 0.03686,0.04612 -0.01221,-0.01564 -0.02397,-0.03106 -0.03686,-0.04612 z m -1.41379,2.097448 c 0.02641,0.0091 0.0531,0.01679 0.08023,0.02416 -0.02715,-0.0074 -0.05381,-0.01507 -0.08023,-0.02416 z m 0.843502,0 c -0.02655,0.0091 -0.05294,0.01676 -0.08023,0.02416 0.02713,-0.0074 0.05382,-0.01511 0.08023,-0.02416 z"
       id="path5487"
       style="opacity:0.23267326;fill:url(#linearGradient3240);fill-opacity:1;fill-rule:nonzero;stroke:none"
       inkscape:connector-curvature="0" />
    <path
       d="m 39.807214,4.563335 c -0.267574,0.202277 -0.482391,0.475041 -0.61698,0.789333 l 0,1.548928 c 0.140925,0.329311 0.3695,0.611334 0.655066,0.816365 l 2.214018,0 c 0.26953,-0.193767 0.487705,-0.456293 0.629673,-0.762301 l 0,-1.654351 C 42.553335,5.008721 42.348128,4.754373 42.094864,4.563335 l -2.28765,0 z"
       id="path5489"
       style="opacity:0.37556559;fill:url(#radialGradient3242);fill-opacity:1;fill-rule:nonzero;stroke:none"
       inkscape:connector-curvature="0" />
    <path
       d="m 40.556634,4.775361 c -0.04195,0.01413 -0.08216,0.03064 -0.1221,0.04895 0.03989,-0.01843 0.08019,-0.03471 0.1221,-0.04895 z m 0.873985,0.0267 c 0.01728,0.007 0.0345,0.01448 0.05141,0.02225 -0.01697,-0.0078 -0.03406,-0.01521 -0.05141,-0.02225 z m -1.139608,0.100125 c -0.02795,0.01741 -0.05488,0.03615 -0.0814,0.05562 0.02632,-0.01948 0.05367,-0.03817 0.0814,-0.05562 z m -0.0814,0.05562 c -0.0319,0.02342 -0.06245,0.04718 -0.09211,0.07343 0.02928,-0.02599 0.06067,-0.05016 0.09211,-0.07343 z m 1.6173,0.100123 c 0.01833,0.01726 0.03622,0.0351 0.05356,0.0534 -0.01734,-0.01823 -0.03524,-0.03621 -0.05356,-0.0534 z m -1.741542,0.0045 c -0.02352,0.02227 -0.04669,0.04499 -0.06855,0.06897 0.02191,-0.02404 0.045,-0.04662 0.06855,-0.06897 z m -0.06855,0.06897 c -0.166583,0.182789 -0.284526,0.412875 -0.329886,0.66972 -1.28e-4,7.2e-4 1.26e-4,0.0015 0,0.0022 l 0,0.47392 c 0.06872,0.392826 0.304885,0.724762 0.629782,0.916694 l 1.283129,0 c 0.311292,-0.183897 0.539912,-0.496301 0.619073,-0.867742 l 0,-0.0045 0,-0.562921 C 42.183687,5.59086 42.118702,5.433772 42.028268,5.295973 41.957918,5.198233 41.876537,5.127371 41.788352,5.08905 l -1.722265,0 c -0.01734,0.01393 -0.03331,0.0279 -0.04927,0.04228 l 2e-6,6.9e-5 z m -0.329886,1.145865 c -0.0067,-0.03813 -0.01142,-0.07629 -0.015,-0.115699 0.0034,0.03928 0.0083,0.07747 0.015,0.115699 z m 0,-0.47392 c -0.0067,0.03831 -0.01155,0.07633 -0.015,0.1157 0.0036,-0.03887 0.0083,-0.07759 0.015,-0.1157 z m 2.251365,-0.62967 c 0.01255,0.01507 0.02452,0.03108 0.03642,0.04673 -0.01207,-0.01585 -0.02368,-0.03147 -0.03642,-0.04673 z m -1.39666,2.124856 c 0.02608,0.0092 0.05245,0.01701 0.07926,0.02448 -0.02682,-0.0075 -0.05315,-0.01527 -0.07926,-0.02448 z m 0.833284,0 c -0.02623,0.0092 -0.0523,0.01698 -0.07926,0.02448 0.02681,-0.0075 0.05317,-0.01531 0.07926,-0.02448 z"
       id="path5491"
       style="fill:#2e3436;fill-opacity:1;fill-rule:nonzero;stroke:none"
       inkscape:connector-curvature="0" />
    <path
       d="m 40.556634,4.742499 c -0.04195,0.01432 -0.08216,0.03104 -0.1221,0.04958 0.03989,-0.01867 0.08019,-0.03517 0.1221,-0.04958 z m 0.873985,0.02705 c 0.01728,0.0071 0.0345,0.01466 0.05141,0.02254 -0.01697,-0.0079 -0.03406,-0.01541 -0.05141,-0.02254 z m -1.139608,0.101416 c -0.02795,0.01763 -0.05488,0.03662 -0.0814,0.05634 0.02632,-0.01973 0.05367,-0.03867 0.0814,-0.05634 z m -0.0814,0.05634 c -0.0319,0.02373 -0.06245,0.04779 -0.09211,0.07437 0.02928,-0.02632 0.06067,-0.0508 0.09211,-0.07437 z m 1.6173,0.101414 c 0.01833,0.01748 0.03622,0.03555 0.05356,0.05409 -0.01734,-0.01846 -0.03524,-0.03668 -0.05356,-0.05409 z m -1.741542,0.0045 c -0.02352,0.02255 -0.04669,0.04557 -0.06855,0.06986 0.02191,-0.02436 0.045,-0.04722 0.06855,-0.06986 z m -0.06855,0.06986 c -0.166583,0.185148 -0.284526,0.4182 -0.329886,0.678358 -1.28e-4,7.29e-4 1.26e-4,0.0015 0,0.0023 l 0,0.480032 c 0.06872,0.397891 0.304885,0.734108 0.629782,0.928516 l 1.283129,0 c 0.311292,-0.186265 0.539912,-0.5027 0.619073,-0.878934 l 0,-0.0045 0,-0.570182 C 42.183687,5.568592 42.118702,5.409477 42.028268,5.269903 41.957918,5.170903 41.876537,5.099128 41.788352,5.06031 l -1.722265,0 c -0.01734,0.01411 -0.03331,0.02826 -0.04927,0.04282 l 2e-6,-5.1e-5 z m -0.329886,1.160645 c -0.0067,-0.03862 -0.01142,-0.07727 -0.015,-0.117191 0.0034,0.03979 0.0083,0.07847 0.015,0.117191 z m 0,-0.480032 c -0.0067,0.0388 -0.01155,0.07731 -0.015,0.117191 0.0036,-0.03937 0.0083,-0.07859 0.015,-0.117191 z M 41.938298,5.1459 c 0.01255,0.01526 0.02452,0.03148 0.03642,0.04733 -0.01207,-0.01605 -0.02368,-0.03188 -0.03642,-0.04733 z m -1.39666,2.152264 c 0.02608,0.0093 0.05245,0.01723 0.07926,0.02479 -0.02682,-0.0076 -0.05315,-0.01546 -0.07926,-0.02479 z m 0.833284,0 c -0.02623,0.0093 -0.0523,0.0172 -0.07926,0.02479 0.02681,-0.0076 0.05317,-0.0155 0.07926,-0.02479 z"
       id="path5493"
       style="opacity:0.23267326;fill:url(#radialGradient3244);fill-opacity:1;fill-rule:nonzero;stroke:none"
       inkscape:connector-curvature="0" />
    <path
       d="m 40.945436,5.085754 c -0.514739,-10e-7 -0.93728,0.406392 -0.992195,0.927052 -0.0023,0.02194 -0.004,0.04389 -0.005,0.06622 -7.01e-4,0.01599 -0.0025,0.03151 -0.0025,0.04768 0,0.0035 -3.5e-5,0.0071 0,0.01059 -3.5e-5,0.0035 0,0.0071 0,0.01059 3.03e-4,0.01578 0.0015,0.03208 0.0025,0.04768 9.83e-4,0.02233 0.0026,0.04427 0.005,0.06622 0.05491,0.52066 0.477456,0.927053 0.992195,0.927053 0.514739,0 0.937279,-0.406393 0.992195,-0.927053 0.0023,-0.02194 0.004,-0.04389 0.005,-0.06622 0.0012,-0.01906 0.0023,-0.03895 0.0025,-0.05827 -1.84e-4,-0.01932 -0.0013,-0.03922 -0.0025,-0.05827 -9.81e-4,-0.02233 -0.0026,-0.04428 -0.005,-0.06622 -0.05491,-0.520663 -0.477456,-0.927052 -0.992195,-0.927052 z"
       id="path5495"
       style="fill:#000000;fill-opacity:0.50543482;fill-rule:nonzero;stroke:none"
       inkscape:connector-curvature="0" />
    <path
       d="m 42.688991,6.297295 c 0,1.016313 -0.783223,1.840199 -1.749378,1.840199 -0.966155,0 -1.749379,-0.823886 -1.749379,-1.840199 0,-1.016313 0.783224,-1.840197 1.749379,-1.840197 0.966155,0 1.749378,0.823884 1.749378,1.840197 l 0,0 z"
       id="path10013"
       style="opacity:0.8;fill:url(#radialGradient3246);fill-opacity:1;fill-rule:evenodd;stroke:none;stroke-width:0.94462639;marker:none;visibility:visible;display:inline;overflow:visible;enable-background:accumulate"
       inkscape:connector-curvature="0" />
  </g>
</svg>
