<?xml version="1.0" encoding="UTF-8" standalone="no"?>
<svg
   xmlns:dc="http://purl.org/dc/elements/1.1/"
   xmlns:cc="http://creativecommons.org/ns#"
   xmlns:rdf="http://www.w3.org/1999/02/22-rdf-syntax-ns#"
   xmlns:svg="http://www.w3.org/2000/svg"
   xmlns="http://www.w3.org/2000/svg"
   xmlns:xlink="http://www.w3.org/1999/xlink"
   version="1.1"
   id="svg3468"
   height="16px"
   width="16px">
  <defs
     id="defs3470">
    <radialGradient
       r="5.7384715"
       fy="37.45607"
       fx="14.68769"
       cy="41.058823"
       cx="17.058823"
       gradientTransform="matrix(0.17229922,-0.03416223,0.00604943,0.18162052,5.8195328,7.0847586)"
       gradientUnits="userSpaceOnUse"
       id="radialGradient3328"
       xlink:href="#linearGradient7067-5" />
    <linearGradient
       id="linearGradient7067-5">
      <stop
         offset="0"
         style="stop-color:white;stop-opacity:1"
         id="stop7069-9" />
      <stop
         offset="1"
         style="stop-color:white;stop-opacity:0"
         id="stop7071-3" />
    </linearGradient>
    <linearGradient
       y2="125.39074"
       x2="26.256771"
       y1="137.53885"
       x1="28.503141"
       gradientTransform="matrix(0.08571781,0,0,0.08522814,7.9176253,-4.3076115)"
       gradientUnits="userSpaceOnUse"
       id="linearGradient3340"
       xlink:href="#linearGradient2372-9" />
    <linearGradient
       id="linearGradient2372-9">
      <stop
         offset="0"
         style="stop-color:white;stop-opacity:1"
         id="stop2374-9" />
      <stop
         offset="1"
         style="stop-color:white;stop-opacity:0.34482759"
         id="stop2376-4" />
    </linearGradient>
    <radialGradient
       r="5.7384715"
       fy="37.841019"
       fx="14.757765"
       cy="41.058823"
       cx="17.058823"
       gradientTransform="matrix(0.20116938,-0.03223979,0.00439091,0.18585691,10.178365,6.1248025)"
       gradientUnits="userSpaceOnUse"
       id="radialGradient3334"
       xlink:href="#linearGradient3668-5" />
    <linearGradient
       id="linearGradient3668-5">
      <stop
         offset="0"
         style="stop-color:white;stop-opacity:1"
         id="stop3670-7" />
      <stop
         offset="1"
         style="stop-color:white;stop-opacity:0"
         id="stop3672-4" />
    </linearGradient>
    <linearGradient
       y2="125.39074"
       x2="26.256771"
       y1="144.11652"
       x1="28.739122"
       gradientTransform="matrix(0.16347277,0,0,0.08545271,11.122671,-4.958012)"
       gradientUnits="userSpaceOnUse"
       id="linearGradient3337"
       xlink:href="#linearGradient2372-9" />
    <linearGradient
       gradientTransform="matrix(0,0.4285752,-0.4285752,0,17.900088,-2.2858061)"
       gradientUnits="userSpaceOnUse"
       xlink:href="#linearGradient3263"
       id="linearGradient4083"
       y2="14.2033"
       x2="35.391201"
       y1="32.4165"
       x1="12.2744" />
    <linearGradient
       gradientUnits="userSpaceOnUse"
       id="linearGradient3263"
       y2="14.2033"
       x2="35.391201"
       y1="32.4165"
       x1="12.2744">
      <stop
         offset="0"
         style="stop-color:#dedbde;stop-opacity:1"
         id="stop3265" />
      <stop
         offset="0.5"
         style="stop-color:#e6e6e6;stop-opacity:1"
         id="stop3267" />
      <stop
         offset="1"
         style="stop-color:#d2d2d2;stop-opacity:1"
         id="stop3269" />
    </linearGradient>
    <linearGradient
       gradientTransform="matrix(0.3658536,0,0,0.3658536,17.609167,-0.78048667)"
       gradientUnits="userSpaceOnUse"
       xlink:href="#linearGradient3772"
       id="linearGradient4085"
       y2="45.032898"
       x2="-21.915663"
       y1="3"
       x1="-21.915663" />
    <linearGradient
       id="linearGradient3772">
      <stop
         offset="0"
         style="stop-color:#b4b4b4;stop-opacity:1"
         id="stop3774" />
      <stop
         offset="1"
         style="stop-color:#969696;stop-opacity:1"
         id="stop3776" />
    </linearGradient>
    <linearGradient
       spreadMethod="reflect"
       gradientUnits="userSpaceOnUse"
       xlink:href="#linearGradient3487"
       id="linearGradient3312"
       y2="9.8622112"
       x2="24.27351"
       y1="10.774516"
       x1="20.580074" />
    <linearGradient
       id="linearGradient3487">
      <stop
         offset="0"
         style="stop-color:#e6cde2;stop-opacity:1"
         id="stop3489" />
      <stop
         offset="1"
         style="stop-color:#e6cde2;stop-opacity:0"
         id="stop3491" />
    </linearGradient>
    <linearGradient
       spreadMethod="reflect"
       gradientUnits="userSpaceOnUse"
       xlink:href="#linearGradient3495"
       id="linearGradient3314"
       y2="9.7956104"
       x2="21.047453"
       y1="11.200086"
       x1="17.494959" />
    <linearGradient
       id="linearGradient3495">
      <stop
         offset="0"
         style="stop-color:#c1cbe4;stop-opacity:1"
         id="stop3497" />
      <stop
         offset="1"
         style="stop-color:#c1cbe4;stop-opacity:0"
         id="stop3499" />
    </linearGradient>
    <linearGradient
       spreadMethod="reflect"
       gradientUnits="userSpaceOnUse"
       xlink:href="#linearGradient3503"
       id="linearGradient3316"
       y2="10.732353"
       x2="16.994024"
       y1="13.045606"
       x1="14.084608" />
    <linearGradient
       id="linearGradient3503">
      <stop
         offset="0"
         style="stop-color:#c4ebdd;stop-opacity:1"
         id="stop3505" />
      <stop
         offset="1"
         style="stop-color:#c4ebdd;stop-opacity:0"
         id="stop3507" />
    </linearGradient>
    <linearGradient
       spreadMethod="reflect"
       gradientUnits="userSpaceOnUse"
       xlink:href="#linearGradient3511"
       id="linearGradient3318"
       y2="13.461712"
       x2="14.609327"
       y1="16.188046"
       x1="12.371647" />
    <linearGradient
       id="linearGradient3511">
      <stop
         offset="0"
         style="stop-color:#ebeec7;stop-opacity:1"
         id="stop3513" />
      <stop
         offset="1"
         style="stop-color:#ebeec7;stop-opacity:0"
         id="stop3515" />
    </linearGradient>
    <linearGradient
       spreadMethod="reflect"
       gradientUnits="userSpaceOnUse"
       xlink:href="#linearGradient3519"
       id="linearGradient3320"
       y2="20.612656"
       x2="9.7297754"
       y1="17.886322"
       x1="10.609375" />
    <linearGradient
       id="linearGradient3519">
      <stop
         offset="0"
         style="stop-color:#fcd9cd;stop-opacity:1"
         id="stop3521" />
      <stop
         offset="1"
         style="stop-color:#fcd9cd;stop-opacity:0"
         id="stop3523" />
    </linearGradient>
    <linearGradient
       spreadMethod="reflect"
       gradientUnits="userSpaceOnUse"
       xlink:href="#linearGradient3487"
       id="linearGradient3301"
       y2="9.8622112"
       x2="24.27351"
       y1="10.774516"
       x1="20.580074" />
    <linearGradient
       spreadMethod="reflect"
       gradientUnits="userSpaceOnUse"
       xlink:href="#linearGradient3495"
       id="linearGradient3303"
       y2="9.7956104"
       x2="21.047453"
       y1="11.200086"
       x1="17.494959" />
    <linearGradient
       spreadMethod="reflect"
       gradientUnits="userSpaceOnUse"
       xlink:href="#linearGradient3503"
       id="linearGradient3305"
       y2="10.732353"
       x2="16.994024"
       y1="13.045606"
       x1="14.084608" />
    <linearGradient
       spreadMethod="reflect"
       gradientUnits="userSpaceOnUse"
       xlink:href="#linearGradient3511"
       id="linearGradient3307"
       y2="13.461712"
       x2="14.609327"
       y1="16.188046"
       x1="12.371647" />
    <linearGradient
       spreadMethod="reflect"
       gradientUnits="userSpaceOnUse"
       xlink:href="#linearGradient3519"
       id="linearGradient3309"
       y2="20.612656"
       x2="9.7297754"
       y1="17.886322"
       x1="10.609375" />
    <linearGradient
       gradientTransform="matrix(0.1767888,0,0,-0.1767887,3.6957217,12.41972)"
       gradientUnits="userSpaceOnUse"
       xlink:href="#linearGradient6036"
       id="linearGradient3054"
       y2="45.962208"
       x2="18.203465"
       y1="4.0378027"
       x1="18.775953" />
    <linearGradient
       id="linearGradient6036">
      <stop
         offset="0"
         style="stop-color:#ffffff;stop-opacity:1"
         id="stop6038" />
      <stop
         offset="1"
         style="stop-color:#ffffff;stop-opacity:0"
         id="stop6040" />
    </linearGradient>
    <linearGradient
       id="linearGradient4011">
      <stop
         offset="0"
         style="stop-color:#ffffff;stop-opacity:1"
         id="stop4013" />
      <stop
         offset="0.507761"
         style="stop-color:#ffffff;stop-opacity:0.23529412"
         id="stop4015" />
      <stop
         offset="0.83456558"
         style="stop-color:#ffffff;stop-opacity:0.15686275"
         id="stop4017" />
      <stop
         offset="1"
         style="stop-color:#ffffff;stop-opacity:0.39215687"
         id="stop4019" />
    </linearGradient>
    <linearGradient
       xlink:href="#linearGradient4011"
       id="linearGradient3466"
       gradientUnits="userSpaceOnUse"
       gradientTransform="matrix(0.35135135,0,0,0.35135138,-17.203666,-0.9093005)"
       x1="71.204407"
       y1="6.2375584"
       x2="71.204407"
       y2="44.340794" />
  </defs>
  <metadata
     id="metadata3473">
    <rdf:RDF>
      <cc:Work
         rdf:about="">
        <dc:format>image/svg+xml</dc:format>
        <dc:type
           rdf:resource="http://purl.org/dc/dcmitype/StillImage" />
        <dc:title />
      </cc:Work>
    </rdf:RDF>
  </metadata>
  <g
     id="layer1">
    <g
       id="layer1-4">
      <path
         style="fill:url(#linearGradient4083);fill-rule:nonzero;stroke:url(#linearGradient4085);stroke-width:0.99999982;stroke-miterlimit:4;stroke-opacity:1"
         id="path2781"
         d="m 15.5,8.0000004 c 0,-4.1571805 -3.34282,-7.49999949 -7.5000007,-7.49999949 -4.1571809,0 -7.49999939,3.34281929 -7.49999939,7.49999949 C 0.49999911,12.15718 3.8428187,15.5 7.9999993,15.5 12.157179,15.499999 15.5,12.15718 15.5,8.0000004 z m -5,0 C 10.5,9.2939445 9.5060913,10.5 7.9999993,10.5 6.4939073,10.5 5.5,9.1934915 5.5,8.0000004 c 0,-1.2270178 1.0349902,-2.5 2.4999993,-2.5 1.4985143,0 2.5000007,1.2056213 2.5000007,2.5 z" />
      <g
         id="g3527"
         transform="matrix(0.3357395,0,0,0.3357395,-0.1714995,-0.39196467)">
        <path
           style="opacity:0.8;fill:url(#linearGradient3312);fill-opacity:1;fill-rule:nonzero;stroke:none"
           id="path3296"
           transform="matrix(0.9996011,0.02824295,-0.02824295,0.9996011,0.6924114,-0.6708346)"
           d="M 15.856928,5.7307748 20.625,16.34375 C 21.660403,15.885186 22.795334,15.625 24,15.625 c 0.03206,0 0.06178,-3.6e-4 0.09375,0 L 24.10801,4.0047512 c -2.94215,-0.070687 -5.543041,0.6572865 -8.251083,1.7260236 l 10e-7,0 z" />
        <path
           style="opacity:0.8;fill:url(#linearGradient3314);fill-opacity:1;fill-rule:nonzero;stroke:none"
           id="path3308"
           d="m 12.121471,7.9060109 6.931026,9.3601041 c 0.913109,-0.669755 1.965938,-1.167064 3.142629,-1.425169 0.03132,-0.0069 0.06026,-0.01359 0.09157,-0.02009 L 19.857174,4.426276 c -2.888973,0.5613244 -5.31953,1.8556038 -7.735703,3.4797349 l 0,0 z" />
        <path
           style="opacity:0.8;fill:url(#linearGradient3316);fill-opacity:1;fill-rule:nonzero;stroke:none"
           id="path3310"
           d="m 8.2523933,11.646535 9.2137237,7.155818 c 0.70865,-0.883264 1.596891,-1.636119 2.666685,-2.18998 0.02847,-0.01474 0.05469,-0.02872 0.08325,-0.0431 L 14.86585,6.2506132 C 12.220599,7.5405321 10.165881,9.452393 8.2523933,11.646535 z" />
        <path
           style="opacity:0.8;fill:url(#linearGradient3318);fill-opacity:1;fill-rule:nonzero;stroke:none"
           id="path3312"
           d="m 5.6328855,16.073974 c 7.1748065,2.242248 7.8502625,7.031463 12.7767855,1.754127 L 10.499985,9.1321388 C 8.2787249,11.062747 6.9132871,13.459349 5.6328855,16.073974 z" />
        <path
           style="opacity:0.8;fill:url(#linearGradient3320);fill-opacity:1;fill-rule:nonzero;stroke:none"
           id="path3314"
           d="M 7.155289,13.193173 C 5.9722117,14.945185 5.2475768,16.829547 4.6301929,18.837116 L 15.96875,21.8125 C 16.184264,21.049497 16.486796,20.297733 16.9375,19.59375 16.95479,19.56675 16.98246,19.52673 17,19.5 L 7.155289,13.193173 z" />
      </g>
      <g
         id="g3297"
         transform="matrix(-0.3507965,0,0,-0.3507965,16.408914,16.448702)">
        <path
           style="opacity:0.8;fill:url(#linearGradient3301);fill-opacity:1;fill-rule:nonzero;stroke:none"
           id="path3299"
           transform="matrix(0.9996011,0.02824295,-0.02824295,0.9996011,0.6924114,-0.6708346)"
           d="M 15.856928,5.7307748 20.625,16.34375 C 21.660403,15.885186 22.795334,15.625 24,15.625 c 0.03206,0 0.06178,-3.6e-4 0.09375,0 L 24.10801,4.0047512 c -2.94215,-0.070687 -5.543041,0.6572865 -8.251083,1.7260236 l 10e-7,0 z" />
        <path
           style="opacity:0.8;fill:url(#linearGradient3303);fill-opacity:1;fill-rule:nonzero;stroke:none"
           id="path3301"
           d="m 12.121471,7.9060109 6.931026,9.3601041 c 0.913109,-0.669755 1.965938,-1.167064 3.142629,-1.425169 0.03132,-0.0069 0.06026,-0.01359 0.09157,-0.02009 L 19.857174,4.426276 c -2.888973,0.5613244 -5.31953,1.8556038 -7.735703,3.4797349 l 0,0 z" />
        <path
           style="opacity:0.8;fill:url(#linearGradient3305);fill-opacity:1;fill-rule:nonzero;stroke:none"
           id="path3303"
           d="m 8.2523933,11.646535 9.2137237,7.155818 c 0.70865,-0.883264 1.596891,-1.636119 2.666685,-2.18998 0.02847,-0.01474 0.05469,-0.02872 0.08325,-0.0431 L 14.86585,6.2506132 C 12.220599,7.5405321 10.165881,9.452393 8.2523933,11.646535 z" />
        <path
           style="opacity:0.8;fill:url(#linearGradient3307);fill-opacity:1;fill-rule:nonzero;stroke:none"
           id="path3305"
           d="m 5.6328855,16.073974 c 7.1748065,2.242248 7.8502625,7.031463 12.7767855,1.754127 L 10.499985,9.1321388 C 8.2787249,11.062747 6.9132871,13.459349 5.6328855,16.073974 z" />
        <path
           style="opacity:0.8;fill:url(#linearGradient3309);fill-opacity:1;fill-rule:nonzero;stroke:none"
           id="path3307"
           d="M 7.155289,13.193173 C 5.9722117,14.945185 5.2475768,16.829547 4.6301929,18.837116 L 15.96875,21.8125 C 16.184264,21.049497 16.486796,20.297733 16.9375,19.59375 16.95479,19.56675 16.98246,19.52673 17,19.5 L 7.155289,13.193173 z" />
      </g>
      <path
         style="opacity:0.4;fill:none;stroke:url(#linearGradient3054);stroke-width:0.99999982;stroke-miterlimit:4;stroke-opacity:1"
         id="path3281"
         d="M 7.9999996,11.5 C 6.0599997,11.5 4.5,9.9400008 4.5,8.000001 4.5,6.0600013 6.0599997,4.5000015 7.9999996,4.5000015 9.9399998,4.5000015 11.5,6.0600013 11.5,8.000001 11.5,9.9400008 9.9399998,11.5 7.9999996,11.5 l 0,0 0,0 0,0 z" />
      <path
         style="opacity:0.55;color:#000000;fill:none;stroke:url(#linearGradient3466);stroke-width:1;stroke-linecap:round;stroke-linejoin:round;stroke-miterlimit:4;stroke-opacity:1;stroke-dasharray:none;stroke-dashoffset:0;marker:none;visibility:visible;display:inline;overflow:visible;enable-background:accumulate"
         id="path8655"
         d="M 14.5,7.9997706 C 14.5,11.589738 11.589638,14.5 8.0000825,14.5 4.4102002,14.5 1.5,11.589704 1.5,7.9997706 c 0,-3.5898007 2.9102002,-6.49977 6.5000825,-6.49977 3.5895555,0 6.4999175,2.9099693 6.4999175,6.49977 l 0,0 z" />
    </g>
    <path
       style="fill:#4d4d4d;fill-opacity:1;stroke:#333333;stroke-width:1.00000012;stroke-linecap:round;stroke-linejoin:round;stroke-miterlimit:4;stroke-opacity:1;stroke-dasharray:none"
       id="path3406"
       d="M 15.014621,5.506415 C 13.419752,5.7588616 11.387357,5.9855721 9.7937385,6.2444672 9.3599881,6.459916 9.527947,7.0071043 9.5,7.393093 c -3e-7,1.6700032 0,3.340006 0,5.010009 -1.1136559,-0.245674 -1.978553,0.614328 -1.9880749,1.782557 -0.050141,0.750216 0.6811556,1.371844 1.4168459,1.303138 0.9972545,-0.05062 1.678008,-1.006812 1.571229,-2.02782 -10e-7,-1.670184 0,-3.600649 0,-5.2708335 1.315246,-0.1877147 2.684807,-0.3941718 4,-0.5822413 -10e-7,1.2874907 0,2.8352618 0,4.1227528 -1.067149,-0.304301 -2.176088,0.393273 -2.352921,1.508425 -0.147859,0.657173 0.316097,1.317694 0.949833,1.505511 1.186282,0.384896 2.523393,-0.750309 2.383483,-1.964262 -0.0032,-2.277028 0.01,-4.5540619 0,-6.8310825 C 15.452519,5.7229137 15.263681,5.494971 15.014621,5.506415 z" />
    <path
       style="opacity:0.25;fill:url(#linearGradient3337);fill-opacity:1;fill-rule:evenodd;stroke:none"
       id="path3996"
       d="m 14.921691,11.92924 0.02179,-4.3530885 c 0.229606,-0.021437 0.03525,-0.00344 0.344866,-0.035557 0.0042,0.8131135 0.0058,1.3607734 0.0058,4.4316845 0,0.02285 -0.133724,-0.01147 -0.372473,-0.04304 l 2e-6,0 z" />
    <path
       style="opacity:0.6;fill:url(#radialGradient3334);fill-opacity:1;stroke:none"
       id="path2716"
       d="m 14.944768,13.011681 c 0,0.580213 -0.516845,1.137525 -1.154405,1.244791 -0.63756,0.107266 -1.154405,-0.276135 -1.154405,-0.856347 0,-0.580213 0.516845,-1.137526 1.154405,-1.244792 0.63756,-0.107265 1.154405,0.276135 1.154405,0.856348 z" />
    <path
       style="opacity:0.3;fill:url(#linearGradient3340);fill-opacity:1;fill-rule:evenodd;stroke:none"
       id="path2720"
       d="m 9.8732835,12.574598 0,-5.6854586 c 0,0 0.09148,-0.3687964 0.3724725,-0.3699258 0.02442,0.041852 4.469668,-0.7398515 4.469668,-0.7398515 0,0 0.07318,0.3761083 -1.966354,0.6660794 -2.9029735,0.412731 -2.503314,0.5170323 -2.503314,0.8136236 0,0.8748438 0,2.363452 0,5.5488869 -0.06242,-0.05272 -0.2472855,-0.201869 -0.3724725,-0.233354 z" />
    <path
       style="opacity:0.6;fill:url(#radialGradient3328);fill-opacity:1;stroke:none"
       id="path2712"
       d="m 9.9958716,13.769247 c 0,0.567226 -0.4426717,1.112062 -0.9887343,1.216927 -0.5460633,0.104865 -0.9887345,-0.269953 -0.9887345,-0.837179 0,-0.567225 0.4426712,-1.112062 0.9887345,-1.216927 0.5460626,-0.104865 0.9887343,0.269953 0.9887343,0.837179 z" />
  </g>
</svg>
