<?xml version="1.0" encoding="UTF-8" standalone="no"?>
<svg
   version="1.1"
   width="16"
   height="16"
   id="svg3810"
   sodipodi:docname="application-x-keepassxc.svg"
   inkscape:version="1.1.1 (3bf5ae0d25, 2021-09-20)"
   xmlns:inkscape="http://www.inkscape.org/namespaces/inkscape"
   xmlns:sodipodi="http://sodipodi.sourceforge.net/DTD/sodipodi-0.dtd"
   xmlns:xlink="http://www.w3.org/1999/xlink"
   xmlns="http://www.w3.org/2000/svg"
   xmlns:svg="http://www.w3.org/2000/svg"
   xmlns:rdf="http://www.w3.org/1999/02/22-rdf-syntax-ns#"
   xmlns:cc="http://creativecommons.org/ns#"
   xmlns:dc="http://purl.org/dc/elements/1.1/">
  <sodipodi:namedview
     id="namedview23"
     pagecolor="#ffffff"
     bordercolor="#666666"
     borderopacity="1.0"
     inkscape:pageshadow="2"
     inkscape:pageopacity="0.0"
     inkscape:pagecheckerboard="0"
     showgrid="false"
     inkscape:zoom="32"
     inkscape:cx="8.828125"
     inkscape:cy="5.8125"
     inkscape:window-width="1317"
     inkscape:window-height="890"
     inkscape:window-x="690"
     inkscape:window-y="241"
     inkscape:window-maximized="0"
     inkscape:current-layer="svg3810" />
  <defs
     id="defs3812">
    <linearGradient
       x1="23.99999"
       y1="6.9230647"
       x2="23.99999"
       y2="41.076912"
       id="linearGradient3988"
       xlink:href="#linearGradient3977"
       gradientUnits="userSpaceOnUse"
       gradientTransform="matrix(0.24324324,0,0,0.35135133,2.1621636,-0.43242804)" />
    <linearGradient
       id="linearGradient3977">
      <stop
         id="stop3979"
         style="stop-color:#ffffff;stop-opacity:1"
         offset="0" />
      <stop
         id="stop3981"
         style="stop-color:#ffffff;stop-opacity:0.23529412"
         offset="0" />
      <stop
         id="stop3983"
         style="stop-color:#ffffff;stop-opacity:0.15686275"
         offset="1" />
      <stop
         id="stop3985"
         style="stop-color:#ffffff;stop-opacity:0.39215687"
         offset="1" />
    </linearGradient>
    <linearGradient
       id="linearGradient3600">
      <stop
         id="stop3602"
         style="stop-color:#f4f4f4;stop-opacity:1"
         offset="0" />
      <stop
         id="stop3604"
         style="stop-color:#dbdbdb;stop-opacity:1"
         offset="1" />
    </linearGradient>
    <linearGradient
       x1="25.132275"
       y1="0.98520643"
       x2="25.132275"
       y2="47.013336"
       id="linearGradient3806"
       xlink:href="#linearGradient3600"
       gradientUnits="userSpaceOnUse"
       gradientTransform="matrix(0.28571361,0,0,0.30419701,1.1428727,0.2326048)" />
    <linearGradient
       id="linearGradient3104-9">
      <stop
         id="stop3106-5"
         style="stop-color:#000000;stop-opacity:0.33950618"
         offset="0" />
      <stop
         id="stop3108-5"
         style="stop-color:#000000;stop-opacity:0.24691358"
         offset="1" />
    </linearGradient>
    <linearGradient
       x1="-51.786404"
       y1="50.786446"
       x2="-51.786404"
       y2="2.9062471"
       id="linearGradient3019"
       xlink:href="#linearGradient3104-9"
       gradientUnits="userSpaceOnUse"
       gradientTransform="matrix(0.25378586,0,0,0.30501865,19.128979,-0.68547704)" />
  </defs>
  <metadata
     id="metadata3815">
    <rdf:RDF>
      <cc:Work
         rdf:about="">
        <dc:format>image/svg+xml</dc:format>
        <dc:type
           rdf:resource="http://purl.org/dc/dcmitype/StillImage" />
      </cc:Work>
    </rdf:RDF>
  </metadata>
  <path
     style="display:inline;fill:url(#linearGradient3806);fill-opacity:1;stroke:none"
     id="path4160"
     d="m 3,1 c 2.2915074,0 9.999988,8.904e-4 9.999988,8.904e-4 L 13,15 C 13,15 6.3333332,15 3,15 3,10.333334 3,5.6666664 3,1 Z" />
  <path
     style="fill:none;stroke:url(#linearGradient3988);stroke-width:1;stroke-linecap:round;stroke-linejoin:miter;stroke-miterlimit:4;stroke-dasharray:none;stroke-dashoffset:0;stroke-opacity:1"
     id="rect6741-1"
     d="M 12.5,14.5 H 3.4999999 V 1.5 H 12.5 Z" />
  <path
     style="display:inline;fill:none;stroke:url(#linearGradient3019);stroke-width:0.99992192;stroke-linecap:butt;stroke-linejoin:round;stroke-miterlimit:4;stroke-dasharray:none;stroke-dashoffset:0;stroke-opacity:1"
     id="path4160-8"
     d="m 2.4999621,0.49997396 c 2.5206756,0 11.0000629,9.54e-4 11.0000629,9.54e-4 l 1.3e-5,14.99909804 c 0,0 -7.3333841,0 -11.000076,0 0,-5.000017 0,-10.000035 10e-8,-15.00005204 z" />
  <circle
     style="fill:#68b723;fill-opacity:1;stroke:none;stroke-width:1;stroke-linecap:round;stroke-linejoin:round;stroke-miterlimit:4;stroke-dasharray:none;stroke-opacity:1"
     id="path3477"
     cx="8"
     cy="7.9994998"
     r="4" />
  <path
     d="m 7.9999999,4.8306836 c 0.2350696,5.26e-5 0.6221465,0.023642 0.8535752,0.067493 0.011153,0.05031 0.011811,0.927513 0.011811,0.9811835 0,0.3976401 -0.4679522,0.6755599 -0.8653846,0.6755792 -0.3974324,1.87e-5 -0.8653846,-0.2779398 -0.8653846,-0.6755792 0,-0.053889 9.692e-4,-0.9009264 0.012115,-0.9514766 0,0 1.0654907,0.00361 0.853272,-0.097198 z M 6.0248007,5.373922 c -0.025013,0.1267913 -0.038624,0.5683257 -0.038596,0.7025026 0,0.8029765 0.1898798,1.4305476 1.0139653,1.7307689 l -3.4e-4,3.6923075 1.0001761,1 0.9997919,-1 v -0.75 L 9.6921015,10.23027 8.999798,9.8841165 10.038255,9.1918089 8.999798,8.4401275 v -0.632934 c 0.6800337,-0.3235825 1.014974,-0.9276878 1.014974,-1.7307689 0,-0.1338639 -0.01387,-0.5751824 -0.03879,-0.7017667 L 9.0719698,4.8107485 6.4893127,4.9123562 Z"
     fill="#f9f9f9"
     fill-rule="evenodd"
     id="path15157"
     style="opacity:0.3;fill:#000000;fill-opacity:1;stroke-width:1.10871"
     sodipodi:nodetypes="cczsscscccccccccccccccscc" />
  <path
     d="m 7.9999999,4.9379076 c 0.1702779,0 0.507717,-0.011409 0.8232916,0.1151869 0.011153,0.05031 0.017474,0.670713 0.017474,0.7243842 0,0.3976407 -0.4433338,0.6536755 -0.8407662,0.6536935 -0.3974324,1.8e-5 -0.8404234,-0.2558222 -0.8404234,-0.653463 0,-0.053889 0.0063,-0.6743906 0.017481,-0.7249408 C 7.4774931,4.9437452 7.7986948,4.9379076 7.9999999,4.9379076 Z M 6,4.4595011 C 5.974987,4.5862917 5.986177,5.5038686 5.986205,5.6380448 c 0,0.8029772 0.3342541,1.4995812 1.0136634,1.8230592 v 3.538392 l 1.000137,1.000005 0.9997365,-0.999995 6.85e-5,-0.549669 L 9.6920543,9.9306382 8.9998104,9.5328784 10.038258,8.8921601 8.9998097,8.1998525 8.9997599,7.4608638 C 9.6797943,7.1372813 10.01477,6.4411432 10.01477,5.6380621 c 0,-0.1338639 0.01015,-1.0519774 -0.01477,-1.178561 0,0 -0.4099447,-0.2104578 -0.6272287,-0.28 C 8.9191221,4.0343098 8.4762841,3.9938858 8,3.9995011 c -0.409423,0.00483 -0.9081757,0.061155 -1.3,0.18 -0.252277,0.076519 -0.7,0.28 -0.7,0.28 z"
     fill="#f9f9f9"
     fill-rule="evenodd"
     id="path32"
     style="fill:#fefefe;fill-opacity:1;stroke-width:1.10871"
     sodipodi:nodetypes="scssscsccccccccccccccsssc" />
</svg>
