<?xml version="1.0" encoding="UTF-8" standalone="no"?>
<svg
   xmlns:dc="http://purl.org/dc/elements/1.1/"
   xmlns:cc="http://creativecommons.org/ns#"
   xmlns:rdf="http://www.w3.org/1999/02/22-rdf-syntax-ns#"
   xmlns:svg="http://www.w3.org/2000/svg"
   xmlns="http://www.w3.org/2000/svg"
   xmlns:xlink="http://www.w3.org/1999/xlink"
   xmlns:sodipodi="http://sodipodi.sourceforge.net/DTD/sodipodi-0.dtd"
   xmlns:inkscape="http://www.inkscape.org/namespaces/inkscape"
   version="1.1"
   width="16"
   height="16"
   id="svg3810"
   sodipodi:docname="application-x-php.svg"
   inkscape:version="1.0.2 (e86c870879, 2021-01-15)">
  <sodipodi:namedview
     pagecolor="#ffffff"
     bordercolor="#666666"
     borderopacity="1"
     objecttolerance="10"
     gridtolerance="10"
     guidetolerance="10"
     inkscape:pageopacity="0"
     inkscape:pageshadow="2"
     inkscape:window-width="1319"
     inkscape:window-height="980"
     id="namedview25"
     showgrid="false"
     inkscape:zoom="49.5625"
     inkscape:cx="10.201344"
     inkscape:cy="7.4243938"
     inkscape:window-x="1058"
     inkscape:window-y="76"
     inkscape:window-maximized="0"
     inkscape:current-layer="svg3810"
     inkscape:document-rotation="0" />
  <defs
     id="defs3812">
    <linearGradient
       x1="23.99999"
       y1="5.5641499"
       x2="23.99999"
       y2="43"
       id="linearGradient3988"
       xlink:href="#linearGradient3977"
       gradientUnits="userSpaceOnUse"
       gradientTransform="matrix(0.24324324,0,0,0.35135133,2.1621636,-0.43242804)" />
    <linearGradient
       id="linearGradient3977">
      <stop
         id="stop3979"
         style="stop-color:#ffffff;stop-opacity:1"
         offset="0" />
      <stop
         id="stop3981"
         style="stop-color:#ffffff;stop-opacity:0.23529412"
         offset="0.03626217" />
      <stop
         id="stop3983"
         style="stop-color:#ffffff;stop-opacity:0.15686275"
         offset="0.95056331" />
      <stop
         id="stop3985"
         style="stop-color:#ffffff;stop-opacity:0.39215687"
         offset="1" />
    </linearGradient>
    <linearGradient
       id="linearGradient3600">
      <stop
         id="stop3602"
         style="stop-color:#f4f4f4;stop-opacity:1"
         offset="0" />
      <stop
         id="stop3604"
         style="stop-color:#dbdbdb;stop-opacity:1"
         offset="1" />
    </linearGradient>
    <linearGradient
       id="linearGradient3104">
      <stop
         id="stop3106"
         style="stop-color:#a0a0a0;stop-opacity:1"
         offset="0" />
      <stop
         id="stop3108"
         style="stop-color:#bebebe;stop-opacity:1"
         offset="1" />
    </linearGradient>
    <linearGradient
       x1="25.132275"
       y1="0.98520643"
       x2="25.132275"
       y2="47.013336"
       id="linearGradient3806"
       xlink:href="#linearGradient3600"
       gradientUnits="userSpaceOnUse"
       gradientTransform="matrix(0.31428714,0,0,0.3259265,0.457108,-0.32223804)" />
    <linearGradient
       x1="-51.786404"
       y1="50.786446"
       x2="-51.786404"
       y2="2.9062471"
       id="linearGradient3808"
       xlink:href="#linearGradient3104"
       gradientUnits="userSpaceOnUse"
       gradientTransform="matrix(0.25378586,0,0,0.30501865,19.128979,-0.68547704)" />
    <radialGradient
       r="12.671875"
       fy="16.231987"
       fx="17.347919"
       cy="16.231987"
       cx="17.347919"
       gradientTransform="matrix(0,3.6449019,-4.5829516,0,82.395264,-79.052061)"
       gradientUnits="userSpaceOnUse"
       id="radialGradient3457"
       xlink:href="#linearGradient4330" />
    <linearGradient
       id="linearGradient4330">
      <stop
         offset="0"
         style="stop-color:#f0c1ff;stop-opacity:1"
         id="stop4332" />
      <stop
         offset="0.26238"
         style="stop-color:#c5a3f2;stop-opacity:1"
         id="stop4334" />
      <stop
         offset="0.704952"
         style="stop-color:#7a36b1;stop-opacity:1"
         id="stop4336" />
      <stop
         offset="1"
         style="stop-color:#4c2d81;stop-opacity:1"
         id="stop4338" />
    </linearGradient>
    <radialGradient
       inkscape:collect="always"
       xlink:href="#linearGradient4330"
       id="radialGradient939"
       gradientUnits="userSpaceOnUse"
       gradientTransform="matrix(0,3.6449019,-4.5829516,0,82.395264,-79.052061)"
       cx="17.347919"
       cy="16.231987"
       fx="17.347919"
       fy="16.231987"
       r="12.671875" />
  </defs>
  <metadata
     id="metadata3815">
    <rdf:RDF>
      <cc:Work
         rdf:about="">
        <dc:format>image/svg+xml</dc:format>
        <dc:type
           rdf:resource="http://purl.org/dc/dcmitype/StillImage" />
        <dc:title />
      </cc:Work>
    </rdf:RDF>
  </metadata>
  <g
     id="layer1">
    <path
       d="m 2.4999621,0.49997396 c 2.5206756,0 11.0000629,9.54e-4 11.0000629,9.54e-4 l 1.3e-5,14.99909804 c 0,0 -7.3333841,0 -11.0000759,0 0,-5.000017 0,-10.000035 0,-15.00005204 z"
       id="path4160"
       style="fill:url(#linearGradient3806);fill-opacity:1;stroke:url(#linearGradient3808);stroke-width:0.99992192;stroke-linecap:butt;stroke-linejoin:round;stroke-miterlimit:4;stroke-opacity:1;stroke-dasharray:none;stroke-dashoffset:0;display:inline" />
    <path
       d="m 12.5,14.5 -9.0000001,0 0,-13 L 12.5,1.5 z"
       id="rect6741-1"
       style="fill:none;stroke:url(#linearGradient3988);stroke-width:1;stroke-linecap:round;stroke-linejoin:miter;stroke-miterlimit:4;stroke-opacity:1;stroke-dasharray:none;stroke-dashoffset:0" />
  </g>
  <path
     id="path3455"
     style="color:#000000;font-style:normal;font-variant:normal;font-weight:600;font-stretch:normal;font-size:18px;line-height:125%;font-family:'Open Sans';-inkscape-font-specification:'Open Sans Semi-Bold';text-align:center;letter-spacing:0px;word-spacing:0px;writing-mode:lr-tb;text-anchor:middle;clip-rule:nonzero;display:inline;overflow:visible;visibility:visible;isolation:auto;mix-blend-mode:normal;color-interpolation:sRGB;color-interpolation-filters:linearRGB;solid-color:#000000;solid-opacity:1;fill:url(#radialGradient939);fill-opacity:1;fill-rule:nonzero;stroke:none;stroke-width:0.555556;stroke-linecap:butt;stroke-linejoin:round;stroke-miterlimit:4;stroke-dasharray:none;stroke-dashoffset:0;stroke-opacity:1;marker:none;color-rendering:auto;image-rendering:auto;shape-rendering:auto;text-rendering:auto;enable-background:accumulate"
     d="M 7.9628906 5.5625 C 7.4641613 5.5625043 6.9988858 5.6770108 6.5625 5.9199219 L 6.828125 6.4921875 C 6.9936508 6.4105037 7.169625 6.3451537 7.34375 6.2871094 C 7.5178736 6.2290674 7.7020285 6.1933634 7.90625 6.1933594 C 8.1319643 6.1933635 8.313211 6.247024 8.4335938 6.34375 C 8.553975 6.440489 8.6035127 6.5752886 8.6035156 6.7558594 C 8.6035127 6.9106401 8.5771856 7.0464222 8.5019531 7.1582031 C 8.4288631 7.2699904 8.2636233 7.4248881 8.0078125 7.6269531 C 7.7928432 7.7946318 7.6348138 7.9524513 7.5488281 8.109375 C 7.4628406 8.2663035 7.4238281 8.4686145 7.4238281 8.7050781 L 7.4238281 8.9121094 L 8.0546875 8.9121094 L 8.0546875 8.7617188 C 8.054686 8.5875952 8.0915581 8.4527966 8.1582031 8.3496094 C 8.2269956 8.2464256 8.3586708 8.1178669 8.5585938 7.9609375 C 8.7929065 7.7782167 8.9561926 7.6256552 9.0507812 7.5117188 C 9.1475112 7.3977875 9.2222363 7.2828888 9.2695312 7.1582031 C 9.3168312 7.031376 9.3398338 6.8819331 9.3398438 6.7207031 C 9.3398408 6.357411 9.2179138 6.0794211 8.9707031 5.8730469 C 8.7234839 5.6666826 8.3842248 5.5625043 7.9628906 5.5625 z M 6.09375 5.7753906 L 5.59375 6.0742188 L 2.9023438 7.6777344 L 2.9023438 8 L 2.9023438 8.3222656 L 5.59375 9.9257812 L 6.09375 10.224609 L 6.09375 9.2851562 L 4 8 L 6.09375 6.7148438 L 6.09375 5.7753906 z M 9.7109375 5.7753906 L 9.7109375 6.7148438 L 11.804688 8 L 9.7109375 9.2851562 L 9.7109375 10.224609 L 10.210938 9.9257812 L 12.902344 8.3222656 L 12.902344 8 L 12.902344 7.6777344 L 10.210938 6.0742188 L 9.7109375 5.7753906 z M 7.7675781 9.4492188 C 7.4515738 9.4492193 7.2851562 9.6187574 7.2851562 9.9433594 C 7.2851562 10.100285 7.3304119 10.222411 7.4121094 10.310547 C 7.4937954 10.396537 7.6149502 10.4375 7.7675781 10.4375 C 7.9202045 10.4375 8.0296394 10.385005 8.1113281 10.296875 C 8.1951641 10.206585 8.2382791 10.095986 8.2382812 9.9433594 C 8.238279 9.7885824 8.2047355 9.6600109 8.1230469 9.5761719 C 8.0413595 9.490186 7.9223549 9.4492194 7.7675781 9.4492188 z " />
</svg>
