<?xml version="1.0" encoding="UTF-8" standalone="no"?>
<svg
   xmlns:dc="http://purl.org/dc/elements/1.1/"
   xmlns:cc="http://creativecommons.org/ns#"
   xmlns:rdf="http://www.w3.org/1999/02/22-rdf-syntax-ns#"
   xmlns:svg="http://www.w3.org/2000/svg"
   xmlns="http://www.w3.org/2000/svg"
   xmlns:xlink="http://www.w3.org/1999/xlink"
   id="svg3810"
   height="16"
   width="16"
   version="1.1">
  <defs
     id="defs3812">
    <linearGradient
       gradientTransform="matrix(0.24324324,0,0,0.35135133,2.1621636,-0.43242804)"
       gradientUnits="userSpaceOnUse"
       xlink:href="#linearGradient3977"
       id="linearGradient3988"
       y2="43"
       x2="23.99999"
       y1="5.5641499"
       x1="23.99999" />
    <linearGradient
       id="linearGradient3977">
      <stop
         offset="0"
         style="stop-color:#ffffff;stop-opacity:1"
         id="stop3979" />
      <stop
         offset="0.03626217"
         style="stop-color:#ffffff;stop-opacity:0.23529412"
         id="stop3981" />
      <stop
         offset="0.95056331"
         style="stop-color:#ffffff;stop-opacity:0.15686275"
         id="stop3983" />
      <stop
         offset="1"
         style="stop-color:#ffffff;stop-opacity:0.39215687"
         id="stop3985" />
    </linearGradient>
    <linearGradient
       id="linearGradient3600">
      <stop
         offset="0"
         style="stop-color:#f4f4f4;stop-opacity:1"
         id="stop3602" />
      <stop
         offset="1"
         style="stop-color:#dbdbdb;stop-opacity:1"
         id="stop3604" />
    </linearGradient>
    <linearGradient
       id="linearGradient3104">
      <stop
         offset="0"
         style="stop-color:#a0a0a0;stop-opacity:1"
         id="stop3106" />
      <stop
         offset="1"
         style="stop-color:#bebebe;stop-opacity:1"
         id="stop3108" />
    </linearGradient>
    <linearGradient
       gradientTransform="matrix(0.31428714,0,0,0.3259265,0.457108,-0.32223804)"
       gradientUnits="userSpaceOnUse"
       xlink:href="#linearGradient3600"
       id="linearGradient3806"
       y2="47.013336"
       x2="25.132275"
       y1="0.98520643"
       x1="25.132275" />
    <linearGradient
       gradientTransform="matrix(0.25378586,0,0,0.30501865,19.128979,-0.68547704)"
       gradientUnits="userSpaceOnUse"
       xlink:href="#linearGradient3104"
       id="linearGradient3808"
       y2="2.9062471"
       x2="-51.786404"
       y1="50.786446"
       x1="-51.786404" />
  </defs>
  <metadata
     id="metadata3815">
    <rdf:RDF>
      <cc:Work
         rdf:about="">
        <dc:format>image/svg+xml</dc:format>
        <dc:type
           rdf:resource="http://purl.org/dc/dcmitype/StillImage" />
        <dc:title />
      </cc:Work>
    </rdf:RDF>
  </metadata>
  <g
     id="layer1">
    <path
       style="fill:url(#linearGradient3806);fill-opacity:1;stroke:url(#linearGradient3808);stroke-width:0.99992192;stroke-linecap:butt;stroke-linejoin:round;stroke-miterlimit:4;stroke-opacity:1;stroke-dasharray:none;stroke-dashoffset:0;display:inline"
       id="path4160"
       d="m 2.4999621,0.49997396 c 2.5206756,0 11.0000629,9.54e-4 11.0000629,9.54e-4 l 1.3e-5,14.99909804 c 0,0 -7.3333841,0 -11.0000759,0 0,-5.000017 0,-10.000035 0,-15.00005204 z" />
    <path
       style="fill:none;stroke:url(#linearGradient3988);stroke-width:1;stroke-linecap:round;stroke-linejoin:miter;stroke-miterlimit:4;stroke-opacity:1;stroke-dasharray:none;stroke-dashoffset:0"
       id="rect6741-1"
       d="m 12.5,14.5 -9.0000001,0 0,-13 L 12.5,1.5 z" />
    <path
       style="opacity:0.3;color:#000000;fill:#ffffff;fill-opacity:1;fill-rule:nonzero;stroke:none;stroke-width:0.98542744;marker:none;visibility:visible;display:inline;overflow:visible;enable-background:accumulate"
       id="rect3137-6-5-5-1"
       d="m -5.7807152,21.175912 4,0 0,4 -4,0 z m -7.9999998,0 3.9999998,0 0,4 -3.9999998,0 z m -8,0 4,0 0,4 -4,0 z m 11.9999998,-4 4,0 0,4 -4,0 z m -7.9999998,0 4,0 0,4 -4,0 z m -8,0 4,0 0,4 -4,0 z m 19.9999998,-3.999999 4,0 0,3.999999 -4,0 z m -7.9999998,0 3.9999998,0 0,3.999999 -3.9999998,0 z m -8,0 4,0 0,3.999999 -4,0 z m 11.9999998,-4.0000005 4,0 0,4.0000005 -4,0 z m -7.9999998,0 4,0 0,4.0000005 -4,0 z m -8,0 4,0 0,4.0000005 -4,0 z m 19.9999998,-4 4,0 0,4 -4,0 z m -7.9999998,0 3.9999998,0 0,4 -3.9999998,0 z m -8,0 4,0 0,4 -4,0 z m 11.9999998,-4.0000001 4,0 0,4.0000001 -4,0 z m -7.9999998,0 4,0 0,4.0000001 -4,0 z m -8,0 4,0 0,4.0000001 -4,0 z m 19.9999998,-4 4,0 0,4 -4,0 z m -7.9999998,0 3.9999998,0 0,4 -3.9999998,0 z m -8,0 4,0 0,4 -4,0 z m 11.9999998,-4.0000003 4,0 0,4.0000003 -4,0 z m -7.9999998,0 4,0 0,4.0000003 -4,0 z m -8,0 4,0 0,4.0000003 -4,0 z" />
    <path
       style="opacity:0.2;color:#000000;fill:#000000;fill-opacity:1;fill-rule:nonzero;stroke:none;stroke-width:0.98542744;marker:none;visibility:visible;display:inline;overflow:visible;enable-background:accumulate"
       id="rect3137-6-5-5"
       d="m -5.7807152,20.175912 4,0 0,4 -4,0 z m -7.9999998,0 3.9999998,0 0,4 -3.9999998,0 z m -8,0 4,0 0,4 -4,0 z m 11.9999998,-3.999999 4,0 0,3.999999 -4,0 z m -7.9999998,0 4,0 0,3.999999 -4,0 z m -8,0 4,0 0,3.999999 -4,0 z m 19.9999998,-4 4,0 0,4 -4,0 z m -7.9999998,0 3.9999998,0 0,4 -3.9999998,0 z m -8,0 4,0 0,4 -4,0 z m 11.9999998,-4.0000005 4,0 0,4.0000005 -4,0 z m -7.9999998,0 4,0 0,4.0000005 -4,0 z m -8,0 4,0 0,4.0000005 -4,0 z m 19.9999998,-4 4,0 0,4 -4,0 z m -7.9999998,0 3.9999998,0 0,4 -3.9999998,0 z m -8,0 4,0 0,4 -4,0 z m 11.9999998,-4.00000006 4,0 0,4.00000006 -4,0 z m -7.9999998,0 4,0 0,4.00000006 -4,0 z m -8,0 4,0 0,4.00000006 -4,0 z m 19.9999998,-4.00000034 4,0 0,4.00000034 -4,0 z m -7.9999998,0 3.9999998,0 0,4.00000034 -3.9999998,0 z m -8,0 4,0 0,4.00000034 -4,0 z m 11.9999998,-4 4,0 0,4 -4,0 z m -7.9999998,0 4,0 0,4 -4,0 z m -8,0 4,0 0,4 -4,0 z" />
    <rect
       style="opacity:0.2;fill:#000000;fill-opacity:1;stroke:none"
       id="rect3007"
       y="2"
       x="4"
       height="2"
       width="2" />
    <rect
       style="opacity:0.2;fill:#000000;fill-opacity:1;stroke:none"
       id="rect3783"
       y="4"
       x="6"
       height="2"
       width="2" />
    <rect
       style="opacity:0.2;fill:#000000;fill-opacity:1;stroke:none"
       id="rect3785"
       y="2"
       x="8"
       height="2"
       width="2" />
    <rect
       style="opacity:0.2;fill:#000000;fill-opacity:1;stroke:none"
       id="rect3789"
       y="6"
       x="4"
       height="2"
       width="2" />
    <rect
       style="opacity:0.2;fill:#000000;fill-opacity:1;stroke:none"
       id="rect3791"
       y="8"
       x="6"
       height="2"
       width="2" />
    <rect
       style="opacity:0.2;fill:#000000;fill-opacity:1;stroke:none"
       id="rect3793"
       y="8"
       x="10"
       height="2"
       width="2" />
    <rect
       style="opacity:0.2;fill:#000000;fill-opacity:1;stroke:none"
       id="rect3795"
       y="10"
       x="8"
       height="2"
       width="2" />
    <rect
       style="opacity:0.2;fill:#000000;fill-opacity:1;stroke:none"
       id="rect3797"
       y="4"
       x="10"
       height="2"
       width="2" />
    <rect
       style="opacity:0.2;fill:#000000;fill-opacity:1;stroke:none"
       id="rect3799"
       y="6"
       x="8"
       height="2"
       width="2" />
    <rect
       style="opacity:0.2;fill:#000000;fill-opacity:1;stroke:none"
       id="rect3801"
       y="10"
       x="4"
       height="2"
       width="2" />
    <rect
       style="opacity:0.2;fill:#000000;fill-opacity:1;stroke:none"
       id="rect3803"
       y="12"
       x="6"
       height="2"
       width="2" />
    <rect
       style="opacity:0.2;fill:#000000;fill-opacity:1;stroke:none"
       id="rect3805"
       y="12"
       x="10"
       height="2"
       width="2" />
  </g>
</svg>
