<?xml version="1.0" encoding="UTF-8" standalone="no"?>
<svg
   xmlns:dc="http://purl.org/dc/elements/1.1/"
   xmlns:cc="http://creativecommons.org/ns#"
   xmlns:rdf="http://www.w3.org/1999/02/22-rdf-syntax-ns#"
   xmlns:svg="http://www.w3.org/2000/svg"
   xmlns="http://www.w3.org/2000/svg"
   xmlns:xlink="http://www.w3.org/1999/xlink"
   version="1.0"
   width="22"
   height="22"
   id="svg3473">
  <metadata
     id="metadata113853">
    <rdf:RDF>
      <cc:Work
         rdf:about="">
        <dc:format>image/svg+xml</dc:format>
        <dc:type
           rdf:resource="http://purl.org/dc/dcmitype/StillImage" />
        <dc:title />
      </cc:Work>
    </rdf:RDF>
  </metadata>
  <defs
     id="defs3475">
    <linearGradient
       id="linearGradient4711-257">
      <stop
         id="stop4963"
         style="stop-color:#643340;stop-opacity:1"
         offset="0" />
      <stop
         id="stop4965"
         style="stop-color:#a77a86;stop-opacity:1"
         offset="1" />
    </linearGradient>
    <linearGradient
       id="linearGradient4145-42">
      <stop
         id="stop4953"
         style="stop-color:#e694bb;stop-opacity:1"
         offset="0" />
      <stop
         id="stop4955"
         style="stop-color:#d3819a;stop-opacity:1"
         offset="0.26238" />
      <stop
         id="stop4957"
         style="stop-color:#b25a64;stop-opacity:1"
         offset="0.704952" />
      <stop
         id="stop4959"
         style="stop-color:#98313d;stop-opacity:1"
         offset="1" />
    </linearGradient>
    <linearGradient
       id="linearGradient3211">
      <stop
         id="stop3213"
         style="stop-color:#ffffff;stop-opacity:1"
         offset="0" />
      <stop
         id="stop3215"
         style="stop-color:#ffffff;stop-opacity:0"
         offset="1" />
    </linearGradient>
    <linearGradient
       id="linearGradient8265-821-176-38-919-66-249">
      <stop
         id="stop2687"
         style="stop-color:#ffffff;stop-opacity:1"
         offset="0" />
      <stop
         id="stop2689"
         style="stop-color:#ffffff;stop-opacity:0"
         offset="1" />
    </linearGradient>
    <linearGradient
       id="linearGradient4000">
      <stop
         id="stop4002"
         style="stop-color:#000000;stop-opacity:1"
         offset="0" />
      <stop
         id="stop4004"
         style="stop-color:#000000;stop-opacity:0"
         offset="1" />
    </linearGradient>
    <linearGradient
       id="linearGradient5293">
      <stop
         id="stop5295"
         style="stop-color:#ffffff;stop-opacity:1"
         offset="0" />
      <stop
         id="stop5297"
         style="stop-color:#ffffff;stop-opacity:0"
         offset="1" />
    </linearGradient>
    <linearGradient
       id="linearGradient4106">
      <stop
         id="stop4108"
         style="stop-color:#51293c;stop-opacity:1"
         offset="0" />
      <stop
         id="stop4110"
         style="stop-color:#876374;stop-opacity:1"
         offset="1" />
    </linearGradient>
    <linearGradient
       xlink:href="#linearGradient4106"
       id="linearGradient3039"
       gradientUnits="userSpaceOnUse"
       gradientTransform="matrix(0.5042588,0,0,0.5029191,0.9071576,-1.4284743)"
       x1="24.239185"
       y1="44.110138"
       x2="24.239185"
       y2="0.19081046" />
    <linearGradient
       xlink:href="#linearGradient5293"
       id="linearGradient3043"
       gradientUnits="userSpaceOnUse"
       gradientTransform="matrix(0.5606869,0,0,0.4468189,-30.283615,1.5437302)"
       spreadMethod="reflect"
       x1="75.854454"
       y1="28"
       x2="91"
       y2="12" />
    <linearGradient
       xlink:href="#linearGradient4000"
       id="linearGradient3046"
       gradientUnits="userSpaceOnUse"
       gradientTransform="matrix(0.5606869,0,0,0.4468189,-30.283615,2.0838633)"
       spreadMethod="reflect"
       x1="75.854454"
       y1="28"
       x2="91"
       y2="12" />
    <linearGradient
       xlink:href="#linearGradient8265-821-176-38-919-66-249"
       id="linearGradient3049"
       gradientUnits="userSpaceOnUse"
       gradientTransform="matrix(0.3482993,0,0,0.6967199,2.6408152,-3.1585467)"
       x1="16.626165"
       y1="15.298182"
       x2="20.054544"
       y2="24.627615" />
    <linearGradient
       xlink:href="#linearGradient3211"
       id="linearGradient3056"
       gradientUnits="userSpaceOnUse"
       gradientTransform="matrix(0.4545444,0,0,0.44185954,0.0909337,0.39536782)"
       x1="24"
       y1="1.9999999"
       x2="24"
       y2="46.01725" />
    <radialGradient
       xlink:href="#linearGradient4145-42"
       id="radialGradient3059"
       gradientUnits="userSpaceOnUse"
       gradientTransform="matrix(0,1.5168665,-2.5735756,0,35.378535,-18.588885)"
       cx="14.239056"
       cy="11.49049"
       fx="14.239056"
       fy="11.49049"
       r="18.000002" />
    <linearGradient
       xlink:href="#linearGradient4711-257"
       id="linearGradient3061"
       gradientUnits="userSpaceOnUse"
       gradientTransform="matrix(0.3922137,0,0,0.4270262,28.199292,-1.1596691)"
       x1="-51.786404"
       y1="53.623615"
       x2="-51.786404"
       y2="2.9062471" />
  </defs>
  <path
     style="fill:url(#radialGradient3059);fill-opacity:1;fill-rule:nonzero;stroke:url(#linearGradient3061);stroke-width:0.9999218;stroke-linecap:butt;stroke-linejoin:round;stroke-miterlimit:4;stroke-opacity:1;stroke-dasharray:none;stroke-dashoffset:0;marker:none;visibility:visible;display:inline;overflow:visible;enable-background:accumulate"
     id="path4160"
     d="m 2.4999609,0.4999608 c 0.1090236,0.0377925 17.0000381,3.723e-5 17.0000381,3.723e-5 0,0 3.9e-5,15.53129797 3.9e-5,21.00004097 -5.666693,0 -11.3333843,0 -17.0000771,0 0,-7.000027 0,-14.0000535 0,-21.0000782 z" />
  <path
     style="opacity:0.4;fill:none;stroke:url(#linearGradient3056);stroke-width:0.99999988;stroke-linecap:butt;stroke-linejoin:miter;stroke-miterlimit:4;stroke-opacity:1;stroke-dasharray:none;stroke-dashoffset:0;display:inline"
     id="path2435"
     d="m 18.5,1.5 c 0,4.9478901 0,14.052108 0,19 -5,0 -9.9999996,0 -15.0000008,0 0,-6.333336 0,-12.6666675 0,-19.0000001 3.4372614,0 12.0627378,0 15.4999998,0" />
  <path
     style="opacity:0.2;fill:url(#linearGradient3049);fill-opacity:1;fill-rule:evenodd;stroke:none"
     id="path3879"
     d="m 3.7619036,1.0000001 c -0.4208419,0 -0.7619044,0.6822435 -0.7619044,1.5240734 l 0,11.1475195 c 9.65e-4,0.09378 0.021524,0.182462 0.056685,0.244523 0.035162,0.06206 0.081711,0.09183 0.1283482,0.08206 L 18.858502,9.0340491 c 0.08062,-0.025434 0.14037,-0.1633335 0.141497,-0.3265875 l 0,-7.70746197 c -5.079365,6.7e-7 -10.1587302,4.7e-7 -15.2380954,4.7e-7 z" />
  <path
     style="opacity:0.1;fill:url(#linearGradient3046);fill-opacity:1;fill-rule:nonzero;stroke:none;stroke-width:0.91176528;marker:none;visibility:visible;display:inline;overflow:visible;enable-background:accumulate"
     id="path5316"
     d="m 15.345117,7.4456911 c -0.205931,-0.0082 -0.41113,0.00111 -0.611831,0.017185 -1.766164,0.1414997 -3.293138,1.2083467 -3.880293,2.9043239 -0.361799,1.045049 -0.289498,2.152046 0.0966,3.179288 l -7.9495969,6.967391 0,0.48612 4.7026164,0 -0.101986,-1.335528 2.5922295,0.515561 0.305915,-2.388763 2.431221,0.515561 1.59398,-1.357643 c 1.627772,0.527994 3.279549,0.258262 4.476023,-0.618673 0,-1.911659 0,-3.80551 0,-5.722719 -0.197507,0.04968 -0.426701,0.03739 -0.644032,-0.05156 -0.530571,-0.217146 -0.830262,-0.7974879 -0.660133,-1.2889019 0.127596,-0.368557 0.493791,-0.6074553 0.885544,-0.6014872 0.130584,0.00199 0.269877,0.031641 0.402521,0.085927 0.0072,0.00294 0.009,0.014114 0.0161,0.017186 4e-6,-0.2987305 4e-6,-0.5953787 4e-6,-0.8936341 C 18.481648,7.7358785 17.959808,7.7926134 17.550927,8.0299926 17.439928,7.9760979 17.344504,7.9054486 17.228911,7.8581395 16.604664,7.6026558 15.96291,7.4702776 15.345117,7.4456911 z" />
  <path
     style="opacity:0.4;fill:url(#linearGradient3043);fill-opacity:1;fill-rule:nonzero;stroke:none;stroke-width:0.91176528;marker:none;visibility:visible;display:inline;overflow:visible;enable-background:accumulate"
     id="path5283"
     d="m 15.345117,6.905558 c -0.205931,-0.0082 -0.41113,0.00111 -0.611831,0.017185 -1.766164,0.1414999 -3.293138,1.2083462 -3.880293,2.9043231 -0.361799,1.0450489 -0.289498,2.1520459 0.0966,3.1792889 l -7.9495969,7.021404 c 0,0 0.021758,0.97224 0.021758,0.97224 1.5745943,0 3.1491827,0 4.7237798,0 l -0.1449069,-1.87566 2.592229,0.515561 0.305915,-2.388764 2.431221,0.515561 1.59398,-1.357643 c 1.627772,0.527994 3.279549,0.258261 4.476023,-0.618671 0,-1.911661 0,-3.805512 0,-5.722722 -0.197507,0.04968 -0.426701,0.03739 -0.644032,-0.05155 -0.530571,-0.2171469 -0.830262,-0.7974879 -0.660133,-1.2889011 0.127596,-0.3685572 0.493792,-0.607456 0.885544,-0.6014879 0.130584,0.00199 0.269877,0.031641 0.402521,0.085927 0.0072,0.00294 0.009,0.014114 0.0161,0.017185 4e-6,-0.2987391 4e-6,-0.595387 4e-6,-0.8936429 C 18.481648,7.1957448 17.959808,7.2524803 17.550927,7.4898594 17.439928,7.4359648 17.344504,7.365315 17.228911,7.3180058 16.604664,7.0625228 15.96291,6.9301446 15.345117,6.905558 z" />
  <path
     style="font-size:30.51395607px;font-style:normal;font-variant:normal;font-weight:bold;font-stretch:normal;opacity:0.4;fill:#ffffff;fill-opacity:1;fill-rule:nonzero;stroke:none;stroke-width:1px;marker:none;visibility:visible;display:inline;overflow:visible;enable-background:accumulate;font-family:Droid Sans;-inkscape-font-specification:Droid Sans Bold"
     id="path3467"
     d="m 13.648384,17 c -0.250437,-0.869209 -0.397947,-2.13079 -0.648385,-3 -1.262208,0 -2.524417,0 -3.7866268,0 -0.2529433,0.86921 -0.6088146,2.130791 -0.8617574,3 -0.7838711,0 -1.5677433,0 -2.3516156,0 1.1895817,-3.666666 2.3791645,-7.3333339 3.568746,-10.9999999 0.9491608,0 1.8983218,0 2.8474818,0 1.194591,3.666666 2.389182,7.3333339 3.583772,10.9999999 -0.783872,0 -1.567743,0 -2.351615,0 z m -1.29226,-4.555857 C 11.943408,10.991459 11.468002,9.5559591 11.10976,8.0886121 11.04055,7.8675851 11.00995,7.2797983 10.945995,7.8245966 10.596163,9.3838071 10.113791,10.908764 9.6739302,12.444143 c 0.8940618,0 1.7881288,0 2.6821938,0 z" />
  <path
     style="font-size:30.51395607px;font-style:normal;font-variant:normal;font-weight:bold;font-stretch:normal;fill:url(#linearGradient3039);fill-opacity:1;stroke:none;font-family:Droid Sans;-inkscape-font-specification:Droid Sans Bold"
     id="text3893"
     d="m 13.648384,16 c -0.250437,-0.869209 -0.397947,-2.13079 -0.648385,-3 -1.262208,0 -2.524417,0 -3.7866268,0 -0.2529433,0.86921 -0.6088146,2.130791 -0.8617574,3 -0.7838711,0 -1.5677433,0 -2.3516156,0 1.1895817,-3.666666 2.3791645,-7.3333339 3.568746,-10.9999999 0.9491608,0 1.8983218,0 2.8474818,0 1.194591,3.666666 2.389182,7.3333339 3.583772,10.9999999 -0.783872,0 -1.567743,0 -2.351615,0 z m -1.29226,-5 C 12.075507,9.8600971 11.117223,7.3417867 10.999999,7.0000001 10.650167,8.5592106 10.113791,9.4646211 9.6739302,11 c 0.8940618,0 1.7881288,0 2.6821938,0 z" />
</svg>
