<?xml version="1.0" encoding="UTF-8" standalone="no"?>
<svg
   xmlns:dc="http://purl.org/dc/elements/1.1/"
   xmlns:cc="http://creativecommons.org/ns#"
   xmlns:rdf="http://www.w3.org/1999/02/22-rdf-syntax-ns#"
   xmlns:svg="http://www.w3.org/2000/svg"
   xmlns="http://www.w3.org/2000/svg"
   xmlns:xlink="http://www.w3.org/1999/xlink"
   xmlns:sodipodi="http://sodipodi.sourceforge.net/DTD/sodipodi-0.dtd"
   xmlns:inkscape="http://www.inkscape.org/namespaces/inkscape"
   width="22"
   height="22"
   id="svg3095"
   version="1.1"
   sodipodi:docname="application-x-deb.svg"
   inkscape:version="1.0.2 (e86c870879, 2021-01-15)">
  <sodipodi:namedview
     pagecolor="#ffffff"
     bordercolor="#666666"
     borderopacity="1"
     objecttolerance="10"
     gridtolerance="10"
     guidetolerance="10"
     inkscape:pageopacity="0"
     inkscape:pageshadow="2"
     inkscape:window-width="1920"
     inkscape:window-height="1030"
     id="namedview26"
     showgrid="false"
     inkscape:zoom="18.022727"
     inkscape:cx="3.7794751"
     inkscape:cy="14.865668"
     inkscape:window-x="0"
     inkscape:window-y="0"
     inkscape:window-maximized="1"
     inkscape:current-layer="svg3095"
     inkscape:document-rotation="0" />
  <defs
     id="defs3097">
    <linearGradient
       id="linearGradient3211">
      <stop
         id="stop3213"
         style="stop-color:#ffffff;stop-opacity:1"
         offset="0" />
      <stop
         id="stop3215"
         style="stop-color:#ffffff;stop-opacity:0"
         offset="1" />
    </linearGradient>
    <linearGradient
       id="linearGradient3600">
      <stop
         id="stop3602"
         style="stop-color:#f4f4f4;stop-opacity:1"
         offset="0" />
      <stop
         id="stop3604"
         style="stop-color:#dbdbdb;stop-opacity:1"
         offset="1" />
    </linearGradient>
    <linearGradient
       id="linearGradient3104">
      <stop
         id="stop3106"
         style="stop-color:#aaaaaa;stop-opacity:1"
         offset="0" />
      <stop
         id="stop3108"
         style="stop-color:#c8c8c8;stop-opacity:1"
         offset="1" />
    </linearGradient>
    <linearGradient
       xlink:href="#linearGradient3211"
       id="linearGradient3026"
       gradientUnits="userSpaceOnUse"
       gradientTransform="matrix(0.4545444,0,0,0.44198649,0.09110501,10.389585)"
       x1="24"
       y1="1.9999999"
       x2="24"
       y2="46.01725" />
    <linearGradient
       xlink:href="#linearGradient3104"
       id="linearGradient3810"
       x1="10.714276"
       y1="30.724722"
       x2="10.714276"
       y2="9.8118286"
       gradientUnits="userSpaceOnUse" />
    <linearGradient
       xlink:href="#linearGradient3600"
       id="linearGradient3818"
       x1="13.997916"
       y1="9.6966057"
       x2="13.997916"
       y2="30.945499"
       gradientUnits="userSpaceOnUse" />
    <radialGradient
       r="12.671875"
       fy="16.231987"
       fx="18.1481"
       cy="16.231987"
       cx="18.1481"
       gradientTransform="matrix(0,3.9872273,-4.8064053,0,89.003148,-87.258045)"
       gradientUnits="userSpaceOnUse"
       id="radialGradient4873"
       xlink:href="#linearGradient2867-449-88-871-390-598-476-591-434-148-57-177-8-3-3" />
    <linearGradient
       id="linearGradient2867-449-88-871-390-598-476-591-434-148-57-177-8-3-3">
      <stop
         id="stop3750-1-0-7"
         style="stop-color:#ffcd7d;stop-opacity:1"
         offset="0" />
      <stop
         id="stop3752-3-7-4"
         style="stop-color:#fc8f36;stop-opacity:1"
         offset="0.26238" />
      <stop
         id="stop3754-1-8-5"
         style="stop-color:#e23a0e;stop-opacity:1"
         offset="0.704952" />
      <stop
         id="stop3756-1-6-2"
         style="stop-color:#ac441f;stop-opacity:1"
         offset="1" />
    </linearGradient>
  </defs>
  <metadata
     id="metadata3100">
    <rdf:RDF>
      <cc:Work
         rdf:about="">
        <dc:format>image/svg+xml</dc:format>
        <dc:type
           rdf:resource="http://purl.org/dc/dcmitype/StillImage" />
        <dc:title></dc:title>
      </cc:Work>
    </rdf:RDF>
  </metadata>
  <g
     id="layer1"
     transform="translate(0,-10)">
    <rect
       style="opacity:1;fill:url(#linearGradient3818);fill-opacity:1;fill-rule:nonzero;stroke:url(#linearGradient3810);stroke-width:0.99999987999999995;stroke-linecap:round;stroke-linejoin:round;stroke-miterlimit:4;stroke-opacity:1;stroke-dasharray:none;stroke-dashoffset:0"
       id="rect3802"
       width="17"
       height="21"
       x="2.5"
       y="10.5" />
    <path
       style="opacity:0.6;fill:none;stroke:url(#linearGradient3026);stroke-width:0.99999988;stroke-linecap:butt;stroke-linejoin:miter;stroke-miterlimit:4;stroke-opacity:1;stroke-dasharray:none;stroke-dashoffset:0;display:inline"
       d="M 3.5,11.500001 3.5,30.5 l 15,0 0,-18.999999 -15,0 z"
       id="path2435" />
  </g>
  <path
     d="m 15.309373,10.481685 c 0.01404,0.377113 -0.11004,0.560363 -0.222272,0.884406 l -0.201823,0.100367 c -0.164987,0.320609 0.01639,0.203542 -0.101772,0.458437 -0.25786,0.228984 -0.781386,0.716296 -0.949027,0.76094 -0.12253,-0.0027 0.08289,-0.144542 0.109729,-0.199953 -0.344803,0.236632 -0.276749,0.35526 -0.804177,0.499332 l -0.01529,-0.03449 c -1.30023,0.611873 -3.106504,-0.600479 -3.082779,-2.254407 -0.01374,0.104892 -0.03948,0.07867 -0.06822,0.120813 C 9.906632,9.966283 10.366776,9.1116914 11.142856,8.7622055 11.901923,8.3866534 12.791791,8.5405572 13.33514,9.0476947 13.036702,8.6565306 12.442154,8.2417997 11.738032,8.2801971 11.047958,8.2914361 10.402215,8.7298926 10.18681,9.2061236 9.8334226,9.428552 9.7922146,10.063993 9.6383096,10.180437 c -0.207443,1.523438 0.3897564,2.181357 1.4001274,2.955719 0.158588,0.107076 0.04465,0.123467 0.06588,0.204947 -0.335594,-0.157026 -0.642778,-0.394284 -0.895644,-0.684767 0.134236,0.196204 0.278932,0.386947 0.466083,0.536794 -0.316706,-0.10692 -0.7395535,-0.766871 -0.8627095,-0.793718 0.5455365,0.976812 2.2130445,1.713088 3.0866815,1.347681 -0.404273,0.01498 -0.917653,0.0084 -1.371564,-0.159523 -0.19121,-0.09818 -0.450163,-0.301254 -0.403804,-0.339185 1.191903,0.445014 2.422829,0.336843 3.45396,-0.489654 0.262542,-0.204478 0.549123,-0.552092 0.632008,-0.556773 -0.124714,0.18762 0.02137,0.09021 -0.07444,0.255832 0.260982,-0.4216 -0.113789,-0.171701 0.270036,-0.728005 l 0.141729,0.195114 c -0.05307,-0.350267 0.434712,-0.775143 0.385074,-1.328639 0.111918,-0.169201 0.124716,0.182315 0.0061,0.571602 0.164676,-0.431902 0.04355,-0.501361 0.08569,-0.85787 0.04541,0.119877 0.105828,0.24709 0.136578,0.37368 -0.107388,-0.417541 0.109729,-0.702874 0.16374,-0.945595 -0.05339,-0.0234 -0.165613,0.1845 -0.191523,-0.3084316 0.0039,-0.2141564 0.05979,-0.1122293 0.08118,-0.1649873 -0.04183,-0.024196 -0.152186,-0.1884013 -0.219149,-0.5032347 0.04824,-0.074149 0.129867,0.1918341 0.19605,0.2026048 C 16.147678,8.713809 16.074472,8.5229102 16.071349,8.330764 15.877798,7.9264906 16.002829,8.384775 15.846113,8.1571923 15.640071,7.5150376 16.016874,8.0081258 16.042472,7.71655 16.35434,8.1684302 16.532124,8.8692742 16.614076,9.1594455 16.551616,8.8055897 16.450933,8.4626603 16.327778,8.1309688 16.422838,8.1710848 16.174967,7.403121 16.451244,7.911663 16.156391,6.8276167 15.190348,5.8145928 14.301417,5.3394552 c 0.10848,0.09943 0.245686,0.224302 0.196674,0.2439687 C 14.05578,5.3204132 14.133512,5.2996532 14.07014,5.1885168 13.710353,5.0419489 13.686314,5.2005361 13.448278,5.188829 12.769286,4.8285734 12.638483,4.866815 12.013654,4.6414216 l 0.02842,0.1329886 c -0.449696,-0.1498468 -0.523995,0.056509 -1.009902,3.121e-4 -0.0295,-0.022942 0.155777,-0.083668 0.308433,-0.105673 -0.434867,0.057438 -0.414576,-0.08585 -0.840077,0.015762 C 10.605264,4.6112943 10.716401,4.5624362 10.828161,4.5 10.473681,4.52154 9.9815286,4.7063517 10.133404,4.538082 9.5550836,4.7962556 8.5278544,5.1585405 7.9514145,5.6990794 L 7.9333158,5.5779537 C 7.669212,5.8949726 6.7815284,6.5247963 6.7108201,6.9357812 L 6.640108,6.9521742 C 6.5029045,7.1849048 6.4137764,7.4485406 6.304826,7.6878264 6.1251671,7.9942316 6.0413462,7.8058313 6.066945,7.8539062 5.7134013,8.5706722 5.5374881,9.1728671 5.3859244,9.667047 c 0.1080122,0.161554 0.00268,0.972754 0.043396,1.621933 -0.1773185,3.206711 2.250506,6.319928 4.9043516,7.038565 0.388975,0.139389 0.967288,0.134394 1.459283,0.148129 -0.580341,-0.166079 -0.655264,-0.08787 -1.220935,-0.28502 -0.407862,-0.192301 -0.497146,-0.411609 -0.7862246,-0.662446 l 0.114412,0.202137 C 9.3336326,17.529767 9.5707336,17.48216 9.1096446,17.336214 l 0.122216,-0.159367 c -0.183717,-0.01404 -0.4865321,-0.309369 -0.5692597,-0.47342 l -0.2010439,0.008 C 8.2202413,16.413857 8.091467,16.198918 8.1009887,16.032371 L 8.0360497,16.14819 C 7.96253,16.021956 7.1477422,15.030939 7.5704342,15.261641 7.4919213,15.190161 7.3874965,15.145042 7.2743311,14.93916 l 0.086013,-0.09818 C 7.1572708,14.579219 6.9860405,14.243781 6.9991519,14.132022 c 0.1084803,0.146411 0.1837188,0.173883 0.2583288,0.199013 -0.513692,-1.274318 -0.5425684,-0.0701 -0.9313889,-1.297109 l 0.082101,-0.0066 c -0.062905,-0.09538 -0.1014646,-0.198245 -0.152037,-0.299547 l 0.035896,-0.356665 C 5.9224303,11.944084 6.1887207,10.553479 6.2422588,9.790978 6.2789352,9.4809857 6.5508478,9.1508544 6.7573549,8.633104 L 6.6315483,8.6115646 C 6.8722377,8.1919946 8.0054518,6.9259484 8.5305391,6.9908816 8.7848101,6.6715221 8.4799654,6.9895666 8.4301719,6.9094055 8.9888196,6.3314045 9.1644196,6.5010742 9.5413766,6.3969626 9.9476786,6.1558033 9.1925156,6.4912406 9.3851316,6.3050266 10.088006,6.1256787 9.8830586,5.8970065 10.799776,5.8060062 c 0.09679,0.05494 -0.224302,0.084913 -0.304843,0.1562463 0.585336,-0.2865814 1.85263,-0.2211794 2.676163,0.1589001 0.954802,0.4465727 2.028233,1.7660018 2.070691,3.0073858 l 0.04823,0.012957 c -0.02435,0.4935556 0.07555,1.0643776 -0.09787,1.5885276 l 0.117224,-0.24834"
     id="path3032"
     style="fill:#d70751" />
</svg>
