<?xml version="1.0" encoding="UTF-8" standalone="no"?>
<svg
   xmlns:dc="http://purl.org/dc/elements/1.1/"
   xmlns:cc="http://creativecommons.org/ns#"
   xmlns:rdf="http://www.w3.org/1999/02/22-rdf-syntax-ns#"
   xmlns:svg="http://www.w3.org/2000/svg"
   xmlns="http://www.w3.org/2000/svg"
   xmlns:xlink="http://www.w3.org/1999/xlink"
   id="svg3828"
   height="22"
   width="22"
   version="1.1">
  <defs
     id="defs3830">
    <linearGradient
       id="linearGradient3977">
      <stop
         offset="0"
         style="stop-color:#ffffff;stop-opacity:1"
         id="stop3979" />
      <stop
         offset="0"
         style="stop-color:#ffffff;stop-opacity:0.23529412"
         id="stop3981" />
      <stop
         offset="1"
         style="stop-color:#ffffff;stop-opacity:0.15686275"
         id="stop3983" />
      <stop
         offset="1"
         style="stop-color:#ffffff;stop-opacity:0.39215687"
         id="stop3985" />
    </linearGradient>
    <linearGradient
       id="linearGradient3600-4">
      <stop
         offset="0"
         style="stop-color:#f4f4f4;stop-opacity:1"
         id="stop3602-7" />
      <stop
         offset="1"
         style="stop-color:#dbdbdb;stop-opacity:1"
         id="stop3604-6" />
    </linearGradient>
    <linearGradient
       gradientTransform="matrix(0.40540511,0,0,0.51351351,1.2696871,-1.3243145)"
       gradientUnits="userSpaceOnUse"
       xlink:href="#linearGradient3977"
       id="linearGradient3013"
       y2="41.526306"
       x2="23.99999"
       y1="6.4736748"
       x1="23.99999" />
    <linearGradient
       gradientTransform="matrix(0.45714178,0,0,0.43456667,0.02859635,-0.09627215)"
       gradientUnits="userSpaceOnUse"
       xlink:href="#linearGradient3600-4"
       id="linearGradient3016"
       y2="47.013336"
       x2="25.132275"
       y1="0.98520643"
       x1="25.132275" />
    <linearGradient
       id="linearGradient2867-449-88-871-390-598-476-591-434-148-57-177-8-3">
      <stop
         id="stop3750-1-0"
         style="stop-color:#90dbec;stop-opacity:1"
         offset="0" />
      <stop
         id="stop3752-3-7"
         style="stop-color:#55c1ec;stop-opacity:1"
         offset="0.26238" />
      <stop
         id="stop3754-1-8"
         style="stop-color:#3689e6;stop-opacity:1"
         offset="0.704952" />
      <stop
         id="stop3756-1-6"
         style="stop-color:#2b63a0;stop-opacity:1"
         offset="1" />
    </linearGradient>
    <radialGradient
       xlink:href="#linearGradient2867-449-88-871-390-598-476-591-434-148-57-177-8-3"
       id="radialGradient3441"
       gradientUnits="userSpaceOnUse"
       gradientTransform="matrix(-7.6630149e-8,3.5405486,-3.8355631,-1.0627773e-7,89.48052,-34.283476)"
       cx="5.6491151"
       cy="9.9571075"
       fx="5.118885"
       fy="9.9571075"
       r="12.671875" />
    <radialGradient
       xlink:href="#linearGradient3242-7-3-8-0-4-58"
       id="radialGradient4777"
       gradientUnits="userSpaceOnUse"
       gradientTransform="matrix(-1.501195e-8,4.103576,-5.0378796,-1.8040853e-8,61.156945,-36.443683)"
       cx="5.6155143"
       cy="9.9571075"
       fx="5.0852842"
       fy="9.9571075"
       r="12.671875" />
    <linearGradient
       id="linearGradient3242-7-3-8-0-4-58">
      <stop
         offset="0"
         style="stop-color:#bdff69;stop-opacity:1;"
         id="stop3244-5-8-5-6-4-3" />
      <stop
         offset="0.26238"
         style="stop-color:#8ed451;stop-opacity:1;"
         id="stop3246-9-5-1-5-3-0" />
      <stop
         offset="0.66093999"
         style="stop-color:#58aa30;stop-opacity:1;"
         id="stop3248-7-2-0-7-5-35" />
      <stop
         offset="1"
         style="stop-color:#2a6c1f;stop-opacity:1;"
         id="stop3250-8-2-8-5-6-40" />
    </linearGradient>
  </defs>
  <metadata
     id="metadata3833">
    <rdf:RDF>
      <cc:Work
         rdf:about="">
        <dc:format>image/svg+xml</dc:format>
        <dc:type
           rdf:resource="http://purl.org/dc/dcmitype/StillImage" />
        <dc:title />
      </cc:Work>
    </rdf:RDF>
  </metadata>
  <path
     style="display:inline;fill:url(#linearGradient3016);fill-opacity:1;stroke:none"
     id="path4160-3"
     d="m 3,1.000005 c 3.6664118,0 15.99998,0.0013 15.99998,0.0013 l 2e-5,19.9987 c 0,0 -10.6666663,0 -16,0 C 3,14.333345 3,7.6666867 3,1.0000262 Z" />
  <path
     style="fill:none;stroke:url(#linearGradient3013);stroke-width:1;stroke-linecap:round;stroke-linejoin:miter;stroke-miterlimit:4;stroke-dasharray:none;stroke-dashoffset:0;stroke-opacity:1"
     id="rect6741-1"
     d="M 18.5,20.500005 H 3.4999996 v -19 H 18.5 Z" />
  <path
     style="display:inline;opacity:0.3;fill:none;stroke:#000000;stroke-width:0.99992186;stroke-linecap:butt;stroke-linejoin:round;stroke-miterlimit:4;stroke-dasharray:none;stroke-dashoffset:0;stroke-opacity:1"
     id="path4160-3-1"
     d="m 2.4999601,0.49996195 c 3.8955809,0 17.0000589,0.00136 17.0000589,0.00136 l 2.1e-5,20.99871605 c 0,0 -11.3333862,0 -17.0000799,0 0,-7.000018 0,-14.000035 0,-21.00005375 z" />
  <path
     style="color:#000000;clip-rule:nonzero;display:inline;overflow:visible;visibility:visible;opacity:1;isolation:auto;mix-blend-mode:normal;color-interpolation:sRGB;color-interpolation-filters:linearRGB;solid-color:#000000;solid-opacity:1;fill:url(#radialGradient3441);fill-opacity:1;fill-rule:nonzero;stroke:none;stroke-width:1;stroke-linecap:butt;stroke-linejoin:miter;stroke-miterlimit:4;stroke-dasharray:none;stroke-dashoffset:0;stroke-opacity:1;marker:none;color-rendering:auto;image-rendering:auto;shape-rendering:auto;text-rendering:auto;enable-background:accumulate"
     d="M 52,4.8007812 46,6 v 8.800781 L 52,16 Z M 53,6 v 1.2285156 h 3.75 V 7.6367188 H 53 V 8.455078 h 3.75 V 8.863281 H 53 v 0.81836 h 3.75 v 0.410156 H 53 v 0.816406 h 3.75 v 0.410156 H 53 v 0.81836 h 3.75 v 0.408203 H 53 v 0.818359 h 3.75 v 0.408203 H 53 V 15 h 5 V 6 Z m -2.71875,2.363281 h 0.339844 c 0.313618,0 0.332531,0.02299 0.296875,0.199219 -0.02123,0.10492 -0.198282,1.036636 -0.394531,2.074219 l -0.353516,1.888672 h -0.365235 c -0.19848,0 -0.359477,-0.01373 -0.363281,-0.02539 -0.0038,-0.01166 -0.118023,-0.628874 -0.253906,-1.375 -0.135881,-0.74613 -0.265085,-1.30823 -0.287109,-1.238281 -0.02203,0.06995 -0.13616,0.684953 -0.251954,1.351562 l -0.210937,1.212891 -0.330078,-0.02734 -0.341797,-0.02344 -0.275391,-1.664063 c -0.153855,-0.909341 -0.299516,-1.751611 -0.320312,-1.875 -0.03441,-0.204143 -0.01199,-0.22964 0.230469,-0.261719 0.337832,-0.04469 0.351567,-0.0047 0.550781,1.462891 0.0851,0.627004 0.156424,1.149027 0.167969,1.162109 0.01154,0.01309 0.129833,-0.581482 0.261718,-1.3125 0.131887,-0.731018 0.28119,-1.350122 0.332032,-1.386718 0.146324,-0.105326 0.557429,-0.07959 0.595703,0.03711 0.01911,0.05829 0.137949,0.689239 0.253906,1.400391 0.194003,1.189803 0.331444,1.621978 0.332031,1.048828 2.27e-4,-0.22891 0.154892,-1.321107 0.308594,-2.199219 l 0.07813,-0.449219 z"
     id="path3439" />
  <path
     style="color:#000000;clip-rule:nonzero;display:inline;overflow:visible;visibility:visible;opacity:1;isolation:auto;mix-blend-mode:normal;color-interpolation:sRGB;color-interpolation-filters:linearRGB;solid-color:#000000;solid-opacity:1;fill:url(#radialGradient4777);fill-opacity:1;fill-rule:nonzero;stroke:none;stroke-width:0.99999994;stroke-linecap:butt;stroke-linejoin:miter;stroke-miterlimit:4;stroke-dasharray:none;stroke-dashoffset:0;stroke-opacity:1;marker:none;color-rendering:auto;image-rendering:auto;shape-rendering:auto;text-rendering:auto;enable-background:accumulate"
     d="m 11,5.800005 -6,1.2 v 8.8 l 6,1.2 z m 1,1.2067796 v 1.0070875 h 2.004237 V 8.9776624 H 12 V 9.523117 h 2.004237 v 0.963791 H 12 v 0.520031 h 2.004237 v 0.996456 H 12 v 0.563636 h 2.004237 V 13.45455 H 12 v 0.545455 h 2.004237 v 1.014638 H 12 v 0.996148 h 5 V 7.0067846 Z m 2.700693,1.0070875 H 16 v 0.9637903 h -1.299307 z m 0,1.509245 H 16 V 10.486908 H 14.700693 Z M 9.036356,9.18581 c 0.07265,-0.0014 0.112536,-0.0031 0.1125,0 -5.6e-5,0.0061 -0.2045756,0.4710231 -0.4624996,1.025 l -0.475,1 0.475,1 c 0.257924,0.546548 0.4624996,1.014624 0.4624996,1.0375 0,0.04804 -0.3446476,0.04002 -0.6374996,-0.0125 -0.193848,-0.03476 -0.203536,-0.05652 -0.45,-0.675 -0.140452,-0.352458 -0.276348,-0.662847 -0.3,-0.6875 -0.02364,-0.02465 -0.160844,0.242429 -0.3,0.5875 -0.139156,0.345068 -0.268672,0.64176 -0.2875,0.6625 -0.01884,0.02076 -0.189936,0.02076 -0.3875,0 l -0.3625,-0.0375 0.4375,-0.925 0.4375,-0.925 -0.3875,-0.8875 c -0.212164,-0.489652 -0.3875,-0.92777 -0.3875,-0.962501 0,-0.03876 0.146492,-0.0625 0.375,-0.0625 h 0.375 l 0.2125,0.6 c 0.119432,0.328426 0.240424,0.613294 0.2625,0.6375 0.02208,0.0242 0.17074,-0.267805 0.325,-0.650001 l 0.275,-0.687499 0.4,-0.025 c 0.110264,-0.0052 0.214848,-0.01105 0.2874996,-0.0125 z m 5.664337,1.821129 H 16 v 0.996456 h -1.299307 z m 0,1.560092 H 16 v 0.887519 h -1.299307 z m 0,1.432974 H 16 v 1.014638 h -1.299307 z"
     id="path4881" />
</svg>
