<?xml version="1.0" encoding="UTF-8" standalone="no"?>
<svg
   xmlns:dc="http://purl.org/dc/elements/1.1/"
   xmlns:cc="http://creativecommons.org/ns#"
   xmlns:rdf="http://www.w3.org/1999/02/22-rdf-syntax-ns#"
   xmlns:svg="http://www.w3.org/2000/svg"
   xmlns="http://www.w3.org/2000/svg"
   xmlns:xlink="http://www.w3.org/1999/xlink"
   xmlns:sodipodi="http://sodipodi.sourceforge.net/DTD/sodipodi-0.dtd"
   xmlns:inkscape="http://www.inkscape.org/namespaces/inkscape"
   width="22"
   height="22"
   id="svg3095"
   version="1.1"
   sodipodi:docname="application-javascript.svg"
   inkscape:version="1.0.2 (e86c870879, 2021-01-15)">
  <sodipodi:namedview
     pagecolor="#ffffff"
     bordercolor="#666666"
     borderopacity="1"
     objecttolerance="10"
     gridtolerance="10"
     guidetolerance="10"
     inkscape:pageopacity="0"
     inkscape:pageshadow="2"
     inkscape:window-width="1920"
     inkscape:window-height="1030"
     id="namedview26"
     showgrid="false"
     inkscape:zoom="25.487985"
     inkscape:cx="13.23311"
     inkscape:cy="13.097185"
     inkscape:window-x="0"
     inkscape:window-y="0"
     inkscape:window-maximized="1"
     inkscape:current-layer="svg3095"
     inkscape:document-rotation="0" />
  <defs
     id="defs3097">
    <linearGradient
       id="linearGradient3211">
      <stop
         id="stop3213"
         style="stop-color:#ffffff;stop-opacity:1"
         offset="0" />
      <stop
         id="stop3215"
         style="stop-color:#ffffff;stop-opacity:0"
         offset="1" />
    </linearGradient>
    <linearGradient
       id="linearGradient3600">
      <stop
         id="stop3602"
         style="stop-color:#f4f4f4;stop-opacity:1"
         offset="0" />
      <stop
         id="stop3604"
         style="stop-color:#dbdbdb;stop-opacity:1"
         offset="1" />
    </linearGradient>
    <linearGradient
       id="linearGradient3104">
      <stop
         id="stop3106"
         style="stop-color:#aaaaaa;stop-opacity:1"
         offset="0" />
      <stop
         id="stop3108"
         style="stop-color:#c8c8c8;stop-opacity:1"
         offset="1" />
    </linearGradient>
    <linearGradient
       xlink:href="#linearGradient3211"
       id="linearGradient3026"
       gradientUnits="userSpaceOnUse"
       gradientTransform="matrix(0.4545444,0,0,0.44198649,0.09110501,10.389585)"
       x1="24"
       y1="1.9999999"
       x2="24"
       y2="46.01725" />
    <linearGradient
       xlink:href="#linearGradient3104"
       id="linearGradient3810"
       x1="10.714276"
       y1="30.724722"
       x2="10.714276"
       y2="9.8118286"
       gradientUnits="userSpaceOnUse" />
    <linearGradient
       xlink:href="#linearGradient3600"
       id="linearGradient3818"
       x1="13.997916"
       y1="9.6966057"
       x2="13.997916"
       y2="30.945499"
       gradientUnits="userSpaceOnUse" />
    <radialGradient
       xlink:href="#linearGradient5301"
       id="radialGradient4873-8"
       gradientUnits="userSpaceOnUse"
       gradientTransform="matrix(0,7.495139,-9.0931097,0,221.11829,-161.28003)"
       cx="16.219349"
       cy="16.231987"
       fx="16.219349"
       fy="16.231987"
       r="12.671875" />
    <linearGradient
       id="linearGradient5301">
      <stop
         id="stop5303"
         style="stop-color:#7ef8bd;stop-opacity:1"
         offset="0" />
      <stop
         id="stop5305"
         style="stop-color:#4fe3aa;stop-opacity:1"
         offset="0.26238" />
      <stop
         id="stop5307"
         style="stop-color:#23b78b;stop-opacity:1"
         offset="0.66093999" />
      <stop
         id="stop5309"
         style="stop-color:#0d7a7e;stop-opacity:1"
         offset="1" />
    </linearGradient>
  </defs>
  <metadata
     id="metadata3100">
    <rdf:RDF>
      <cc:Work
         rdf:about="">
        <dc:format>image/svg+xml</dc:format>
        <dc:type
           rdf:resource="http://purl.org/dc/dcmitype/StillImage" />
        <dc:title />
      </cc:Work>
    </rdf:RDF>
  </metadata>
  <g
     id="layer1"
     transform="translate(0,-10)">
    <rect
       style="opacity:1;fill:url(#linearGradient3818);fill-opacity:1;fill-rule:nonzero;stroke:url(#linearGradient3810);stroke-width:0.99999987999999995;stroke-linecap:round;stroke-linejoin:round;stroke-miterlimit:4;stroke-opacity:1;stroke-dasharray:none;stroke-dashoffset:0"
       id="rect3802"
       width="17"
       height="21"
       x="2.5"
       y="10.5" />
    <path
       style="opacity:0.6;fill:none;stroke:url(#linearGradient3026);stroke-width:0.99999988;stroke-linecap:butt;stroke-linejoin:miter;stroke-miterlimit:4;stroke-opacity:1;stroke-dasharray:none;stroke-dashoffset:0;display:inline"
       d="M 3.5,11.500001 3.5,30.5 l 15,0 0,-18.999999 -15,0 z"
       id="path2435" />
  </g>
  <g
     transform="matrix(0.86834541,0,0,0.86834541,-62.885891,-19.444667)"
     id="g4225">
    <path
       style="color:#000000;font-style:normal;font-variant:normal;font-weight:normal;font-stretch:normal;font-size:23.9337px;line-height:125%;font-family:'Open Sans';-inkscape-font-specification:'Open Sans';text-align:center;letter-spacing:0px;word-spacing:0px;text-anchor:middle;clip-rule:nonzero;display:inline;overflow:visible;visibility:visible;opacity:1;isolation:auto;mix-blend-mode:normal;color-interpolation:sRGB;color-interpolation-filters:linearRGB;solid-color:#000000;solid-opacity:1;fill:url(#radialGradient4873-8);fill-opacity:1;fill-rule:nonzero;stroke:none;stroke-width:1;stroke-linecap:butt;stroke-linejoin:round;stroke-miterlimit:4;stroke-dasharray:none;stroke-dashoffset:0;stroke-opacity:1;marker:none;color-rendering:auto;image-rendering:auto;shape-rendering:auto;text-rendering:auto;enable-background:accumulate"
       d="m 82.00269,27.18797 a 0.92188007,0.91937254 0 0 0 -0.922241,0.919531 0.92188007,0.91937254 0 0 0 0.922241,0.91953 0.92188007,0.91937254 0 0 0 0.922245,-0.91953 0.92188007,0.91937254 0 0 0 -0.922245,-0.919531 z m -0.693037,3.036619 v 10.631558 c 0,0.470666 0.0062,0.819797 -0.193942,1.047015 -0.194759,0.232629 -0.502978,0.348554 -0.924954,0.348554 -0.362469,0 -0.729336,-0.05319 -1.102622,-0.161392 v 1.094484 c 0.319188,0.135255 0.735149,0.203436 1.249095,0.203436 1.61758,0 2.361213,-0.876917 2.361213,-2.629747 V 30.224589 Z m 6.783907,0.115284 c -1.027894,0 -1.836625,0.21003 -2.426311,0.632007 -0.589687,0.416564 -0.885624,0.987992 -0.885624,1.712926 0,0.405747 0.08455,0.75488 0.252259,1.047017 0.173121,0.292138 0.432244,0.55399 0.778483,0.78662 0.351647,0.227219 0.942165,0.49588 1.76989,0.804249 0.871006,0.335418 1.454714,0.627272 1.752261,0.876131 0.302959,0.243448 0.454341,0.538029 0.454342,0.884266 0,0.459848 -0.189567,0.803525 -0.568265,1.030743 -0.378698,0.221809 -0.918765,0.332278 -1.622062,0.332278 -0.454437,0 -0.927674,-0.06139 -1.419982,-0.185804 -0.486897,-0.124435 -0.945127,-0.294905 -1.372513,-0.511302 v 1.249095 c 0.660014,0.373287 1.580573,0.560127 2.759946,0.560127 1.114453,0 1.979104,-0.225024 2.59584,-0.674051 0.616738,-0.449028 0.926311,-1.087284 0.926311,-1.915009 0,-0.589687 -0.186838,-1.079289 -0.560126,-1.468806 -0.367878,-0.389519 -1.079776,-0.775478 -2.13472,-1.159586 -0.768215,-0.286727 -1.28782,-0.506296 -1.558318,-0.657776 -0.270499,-0.151479 -0.468248,-0.311043 -0.592676,-0.478751 -0.11902,-0.167711 -0.177667,-0.370914 -0.177667,-0.608952 0,-0.351648 0.16229,-0.627137 0.486889,-0.827306 0.324597,-0.200169 0.806018,-0.301084 1.444394,-0.301084 0.724936,0 1.533668,0.184112 2.426311,0.551989 l 0.478753,-1.094485 C 89.986692,30.534892 89.051125,30.33987 88.09356,30.33987 Z"
       id="text5051" />
  </g>
</svg>
