<?xml version="1.0" encoding="UTF-8" standalone="no"?>
<svg
   xmlns:dc="http://purl.org/dc/elements/1.1/"
   xmlns:cc="http://creativecommons.org/ns#"
   xmlns:rdf="http://www.w3.org/1999/02/22-rdf-syntax-ns#"
   xmlns:svg="http://www.w3.org/2000/svg"
   xmlns="http://www.w3.org/2000/svg"
   xmlns:xlink="http://www.w3.org/1999/xlink"
   id="svg3828"
   height="22"
   width="22"
   version="1.1">
  <defs
     id="defs3830">
    <linearGradient
       id="linearGradient3977">
      <stop
         offset="0"
         style="stop-color:#ffffff;stop-opacity:1"
         id="stop3979" />
      <stop
         offset="0.03626217"
         style="stop-color:#ffffff;stop-opacity:0.23529412"
         id="stop3981" />
      <stop
         offset="0.95056331"
         style="stop-color:#ffffff;stop-opacity:0.15686275"
         id="stop3983" />
      <stop
         offset="1"
         style="stop-color:#ffffff;stop-opacity:0.39215687"
         id="stop3985" />
    </linearGradient>
    <linearGradient
       id="linearGradient3600-4">
      <stop
         offset="0"
         style="stop-color:#f4f4f4;stop-opacity:1"
         id="stop3602-7" />
      <stop
         offset="1"
         style="stop-color:#dbdbdb;stop-opacity:1"
         id="stop3604-6" />
    </linearGradient>
    <linearGradient
       id="linearGradient3104-5">
      <stop
         offset="0"
         style="stop-color:#a0a0a0;stop-opacity:1"
         id="stop3106-6" />
      <stop
         offset="1"
         style="stop-color:#bebebe;stop-opacity:1"
         id="stop3108-9" />
    </linearGradient>
    <linearGradient
       gradientTransform="matrix(1,0,0,-1,-0.99999917,31.006382)"
       y2="23.088869"
       x2="12.913282"
       y1="14.076225"
       x1="12.913282"
       gradientUnits="userSpaceOnUse"
       id="linearGradient4109"
       xlink:href="#linearGradient4097" />
    <linearGradient
       id="linearGradient4097">
      <stop
         id="stop4099"
         offset="0"
         style="stop-color:#000000;stop-opacity:1;" />
      <stop
         id="stop4101"
         offset="1"
         style="stop-color:#000000;stop-opacity:0;" />
    </linearGradient>
    <linearGradient
       gradientUnits="userSpaceOnUse"
       y2="25.962694"
       x2="12.913282"
       y1="14.076225"
       x1="12.913282"
       id="linearGradient4103"
       xlink:href="#linearGradient4097"
       gradientTransform="translate(-0.99999917,-8.9999939)" />
    <linearGradient
       gradientUnits="userSpaceOnUse"
       y2="9.9835634"
       x2="12.098314"
       y1="29.917463"
       x1="12.098314"
       id="linearGradient4119"
       xlink:href="#linearGradient3104-5"
       gradientTransform="translate(-0.99999917,-8.9999939)" />
    <linearGradient
       y2="43"
       x2="23.99999"
       y1="5.5641499"
       x1="23.99999"
       gradientTransform="matrix(0.40540511,0,0,0.51351351,1.2696879,-1.3243134)"
       gradientUnits="userSpaceOnUse"
       id="linearGradient4346"
       xlink:href="#linearGradient3977" />
    <linearGradient
       y2="47.013336"
       x2="25.132275"
       y1="0.98520643"
       x1="25.132275"
       gradientTransform="matrix(0.48571543,0,0,0.45629666,-0.65717027,-0.65113223)"
       gradientUnits="userSpaceOnUse"
       id="linearGradient4349"
       xlink:href="#linearGradient3600-4" />
    <linearGradient
       y2="2.9062471"
       x2="-51.786404"
       y1="50.786446"
       x1="-51.786404"
       gradientTransform="matrix(0.39221364,0,0,0.42702571,28.199297,-1.1596652)"
       gradientUnits="userSpaceOnUse"
       id="linearGradient4351"
       xlink:href="#linearGradient3104-5" />
  </defs>
  <metadata
     id="metadata3833">
    <rdf:RDF>
      <cc:Work
         rdf:about="">
        <dc:format>image/svg+xml</dc:format>
        <dc:type
           rdf:resource="http://purl.org/dc/dcmitype/StillImage" />
        <dc:title />
      </cc:Work>
    </rdf:RDF>
  </metadata>
  <path
     d="m 2.4999609,0.49996297 c 3.8955809,0 17.0000591,0.00136 17.0000591,0.00136 l 2.1e-5,20.99871603 c 0,0 -11.3333864,0 -17.0000801,0 0,-7.000018 0,-14.0000349 0,-21.00005373 z"
     id="path4160-3"
     style="fill:url(#linearGradient4349);fill-opacity:1;stroke:url(#linearGradient4351);stroke-width:0.99992186;stroke-linecap:butt;stroke-linejoin:round;stroke-miterlimit:4;stroke-opacity:1;stroke-dasharray:none;stroke-dashoffset:0;display:inline" />
  <path
     d="m 18.500001,20.500006 -15.0000006,0 0,-18.9999999 15.0000006,0 z"
     id="rect6741-1"
     style="fill:none;stroke:url(#linearGradient4346);stroke-width:1;stroke-linecap:round;stroke-linejoin:miter;stroke-miterlimit:4;stroke-opacity:1;stroke-dasharray:none;stroke-dashoffset:0" />
  <path
     style="opacity:0.6;fill:#ffffff;fill-opacity:1;fill-rule:nonzero;stroke:none;stroke-width:1.70000005;marker:none;visibility:visible;display:inline;overflow:visible;enable-background:accumulate"
     id="path3576"
     d="m 10.500002,6.0000081 c -0.277,0 -0.5,0.223 -0.5,0.5 l 0,1.125 C 9.4972988,7.7394771 9.0325648,7.9358171 8.609376,8.2031331 L 7.812501,7.4062581 c -0.195869,-0.195869 -0.507256,-0.195869 -0.703125,0 l -0.703125,0.703125 c -0.195869,0.195868 -0.195869,0.507255 0,0.703125 l 0.796875,0.796874 C 6.93581,10.032571 6.73947,10.497304 6.625001,11.000007 l -1.125,0 c -0.277,0 -0.5,0.223 -0.5,0.500001 l 0,1 c 0,0.276999 0.223,0.499999 0.5,0.499999 l 1.125,0 c 0.114469,0.502703 0.310809,0.967436 0.578125,1.390625 l -0.796875,0.796875 c -0.195869,0.195869 -0.195869,0.507256 0,0.703125 l 0.703125,0.703125 c 0.195868,0.195868 0.507256,0.19587 0.703125,0 l 0.796875,-0.796875 c 0.4231888,0.267316 0.8879228,0.463655 1.390626,0.578125 l 0,1.125 c 0,0.277 0.223,0.5 0.5,0.5 l 0.999999,0 c 0.277001,0 0.500001,-0.223 0.500001,-0.5 l 0,-1.125 c 0.502703,-0.11447 0.967436,-0.310809 1.390625,-0.578125 l 0.796874,0.796875 c 0.195869,0.195868 0.507257,0.195868 0.703125,0 l 0.703126,-0.703125 c 0.195867,-0.195868 0.195869,-0.507257 0,-0.703125 l -0.796876,-0.796875 c 0.267317,-0.423189 0.463656,-0.887922 0.578126,-1.390625 l 1.124999,0 c 0.277001,0 0.500001,-0.223 0.500001,-0.499999 l 0,-1 c 0,-0.277001 -0.223,-0.500001 -0.500001,-0.500001 l -1.124999,0 c -0.11447,-0.502703 -0.310809,-0.967436 -0.578126,-1.3906249 l 0.796876,-0.796874 c 0.195867,-0.195869 0.195867,-0.507256 0,-0.703125 l -0.703126,-0.703125 c -0.195868,-0.195869 -0.507256,-0.195869 -0.703125,0 l -0.796874,0.796875 c -0.423189,-0.267316 -0.887922,-0.463656 -1.390625,-0.578125 l 0,-1.125 c 0,-0.277 -0.223,-0.5 -0.500001,-0.5 l -0.999999,0 z m 0.5,3.9999989 c 1.103999,-10e-7 2,0.896001 2,2 0,1.104 -0.896001,2 -2,2 -1.1040002,10e-7 -2.0000012,-0.896 -2.0000012,-2 10e-7,-1.103999 0.896001,-2 2.0000012,-2 z" />
  <path
     style="fill:url(#linearGradient4119);fill-opacity:1;fill-rule:nonzero;stroke:none;stroke-width:1.70000005;marker:none;visibility:visible;display:inline;overflow:visible;enable-background:accumulate"
     id="rect3557"
     d="m 10.500002,5.0000081 c -0.277,0 -0.5,0.223 -0.5,0.5 l 0,1.125 c -0.5027032,0.11447 -0.9674372,0.31081 -1.390626,0.578125 L 7.812501,6.4062581 c -0.195869,-0.195868 -0.507256,-0.195868 -0.703125,0 l -0.703125,0.703125 c -0.195869,0.195869 -0.195869,0.507256 0,0.703125 l 0.796875,0.796875 C 6.93581,9.0325721 6.73947,9.4973041 6.625001,10.000008 l -1.125,0 c -0.277,0 -0.5,0.223 -0.5,0.5 l 0,1 c 0,0.276999 0.223,0.5 0.5,0.5 l 1.125,0 c 0.114469,0.502703 0.310809,0.967435 0.578125,1.390624 l -0.796875,0.796876 c -0.195869,0.195868 -0.195869,0.507255 0,0.703125 l 0.703125,0.703124 c 0.195868,0.195869 0.507256,0.195871 0.703125,0 l 0.796875,-0.796874 c 0.4231888,0.267316 0.8879228,0.463654 1.390626,0.578124 l 0,1.125001 c 0,0.276999 0.223,0.499999 0.5,0.499999 l 0.999999,0 c 0.277001,0 0.500001,-0.223 0.500001,-0.499999 l 0,-1.125001 c 0.502703,-0.11447 0.967436,-0.310808 1.390625,-0.578124 l 0.796874,0.796874 c 0.195869,0.195869 0.507257,0.195869 0.703125,0 l 0.703126,-0.703124 c 0.195867,-0.195869 0.195869,-0.507257 0,-0.703125 l -0.796876,-0.796876 c 0.267317,-0.423189 0.463656,-0.887921 0.578126,-1.390624 l 1.124999,0 c 0.277001,0 0.500001,-0.223001 0.500001,-0.5 l 0,-1 c 0,-0.277 -0.223,-0.5 -0.500001,-0.5 l -1.124999,0 C 15.260532,9.4973041 15.064193,9.0325721 14.796876,8.6093831 l 0.796876,-0.796875 c 0.195867,-0.195868 0.195867,-0.507256 0,-0.703125 l -0.703126,-0.703125 c -0.195868,-0.195868 -0.507256,-0.195868 -0.703125,0 l -0.796874,0.796875 c -0.423189,-0.267315 -0.887922,-0.463655 -1.390625,-0.578125 l 0,-1.125 c 0,-0.277 -0.223,-0.5 -0.500001,-0.5 l -0.999999,0 z m 0.5,4 c 1.103999,-1e-6 2,0.896 2,1.9999999 0,1.104 -0.896001,2 -2,2 -1.1040002,0 -2.0000012,-0.896 -2.0000012,-2 10e-7,-1.1039999 0.896001,-1.9999999 2.0000012,-1.9999999 z" />
  <path
     id="path4107"
     d="m 10.531251,5.5312561 c -0.0236,0.430806 0.05109,0.875834 -0.045,1.296521 -0.19489,0.405263 -0.7316232,0.315871 -1.0629692,0.542539 -0.347574,0.137135 -0.7188956,0.559211 -1.1073029,0.278445 -0.2925614,-0.267431 -0.5632566,-0.559249 -0.8472281,-0.836255 -0.21875,0.21875 -0.4375,0.4375 -0.65625,0.65625 0.2917144,0.323176 0.6582869,0.589968 0.894591,0.955304 0.1571967,0.436119 -0.3041711,0.756798 -0.4042006,1.150903 -0.1647198,0.332458 -0.1378275,0.8898879 -0.611331,0.9508019 -0.386269,0.01283 -0.7736241,0.0018 -1.1603094,0.0055 0,0.3125 0,0.625 0,0.9375 0.4308058,0.0236 0.8758343,-0.05109 1.2965205,0.045 0.4106808,0.200632 0.3187477,0.747538 0.5454521,1.087065 0.129944,0.352588 0.5572533,0.724336 0.2755322,1.114457 -0.2650627,0.284554 -0.5595947,0.542061 -0.8362548,0.815969 0.21875,0.21875 0.4375,0.4375 0.65625,0.65625 0.3232028,-0.281136 0.5944452,-0.633092 0.9553041,-0.863341 0.4279355,-0.156435 0.7447939,0.295284 1.1375409,0.380589 0.339715,0.153312 0.9014942,0.126845 0.9641642,0.603693 0.01283,0.386269 0.0018,0.773624 0.0055,1.160309 0.3125,0 0.625,0 0.9375,0 0.0236,-0.430806 -0.05109,-0.875834 0.045,-1.296521 0.202268,-0.414278 0.752426,-0.318559 1.100009,-0.532469 0.351829,-0.11855 0.71832,-0.536578 1.101513,-0.257265 0.282128,0.257032 0.542434,0.538403 0.815977,0.805005 0.21875,-0.21875 0.4375,-0.4375 0.65625,-0.65625 -0.281207,-0.31282 -0.637614,-0.569025 -0.863341,-0.924054 -0.155362,-0.430905 0.299606,-0.751766 0.378153,-1.151009 0.154112,-0.344536 0.123078,-0.916801 0.606129,-0.981946 0.386269,-0.01283 0.773624,-0.0018 1.160309,-0.0055 0,-0.3125 0,-0.625 0,-0.9375 -0.430806,-0.0236 -0.875834,0.05109 -1.296521,-0.045 -0.408808,-0.19652 -0.315906,-0.7362929 -0.529556,-1.0759139 -0.12573,-0.346981 -0.53854,-0.712876 -0.260178,-1.094358 0.25944,-0.290168 0.538044,-0.563604 0.804997,-0.847219 -0.21875,-0.21875 -0.4375,-0.4375 -0.65625,-0.65625 -0.296691,0.285499 -0.550423,0.622513 -0.876498,0.872941 -0.419022,0.213222 -0.75601,-0.240921 -1.132585,-0.34698 -0.340088,-0.201472 -0.919071,-0.126226 -1.037737,-0.595652 -0.03566,-0.401402 -0.0059,-0.808083 -0.01568,-1.211559 -0.3125,0 -0.625,0 -0.9375,0 z"
     style="opacity:0.1;fill:none;stroke:url(#linearGradient4103);stroke-width:1;stroke-linejoin:round;stroke-miterlimit:4;stroke-opacity:1;stroke-dasharray:none;marker:none;visibility:visible;display:inline;overflow:visible;enable-background:accumulate" />
  <path
     id="path4094"
     d="m 11.000001,13.537632 c 1.442837,0.03737 2.705177,-1.355037 2.518059,-2.788216 C 13.406055,9.3134361 11.900409,8.1943831 10.493071,8.5270161 9.0774468,8.7831211 8.1103605,10.387334 8.583508,11.754952 c 0.3139797,1.033708 1.3324218,1.795977 2.416493,1.78268 z"
     style="opacity:0.1;fill:none;stroke:url(#linearGradient4109);stroke-width:1;stroke-linejoin:round;stroke-miterlimit:4;stroke-opacity:1;stroke-dasharray:none;marker:none;visibility:visible;display:inline;overflow:visible;enable-background:accumulate" />
</svg>
