<?xml version="1.0" encoding="UTF-8" standalone="no"?>
<svg
   xmlns:dc="http://purl.org/dc/elements/1.1/"
   xmlns:cc="http://creativecommons.org/ns#"
   xmlns:rdf="http://www.w3.org/1999/02/22-rdf-syntax-ns#"
   xmlns:svg="http://www.w3.org/2000/svg"
   xmlns="http://www.w3.org/2000/svg"
   xmlns:xlink="http://www.w3.org/1999/xlink"
   xmlns:sodipodi="http://sodipodi.sourceforge.net/DTD/sodipodi-0.dtd"
   xmlns:inkscape="http://www.inkscape.org/namespaces/inkscape"
   version="1.1"
   width="22"
   height="22"
   id="svg3828"
   sodipodi:docname="application-x-desktop.svg"
   inkscape:version="1.0.2 (e86c870879, 2021-01-15)">
  <sodipodi:namedview
     pagecolor="#ffffff"
     bordercolor="#666666"
     borderopacity="1"
     objecttolerance="10"
     gridtolerance="10"
     guidetolerance="10"
     inkscape:pageopacity="0"
     inkscape:pageshadow="2"
     inkscape:window-width="1920"
     inkscape:window-height="1030"
     id="namedview31"
     showgrid="false"
     inkscape:zoom="36.045455"
     inkscape:cx="11.055485"
     inkscape:cy="11"
     inkscape:window-x="0"
     inkscape:window-y="0"
     inkscape:window-maximized="1"
     inkscape:current-layer="svg3828" />
  <defs
     id="defs3830">
    <linearGradient
       id="linearGradient3977">
      <stop
         id="stop3979"
         style="stop-color:#ffffff;stop-opacity:1"
         offset="0" />
      <stop
         id="stop3981"
         style="stop-color:#ffffff;stop-opacity:0.23529412"
         offset="0.03626217" />
      <stop
         id="stop3983"
         style="stop-color:#ffffff;stop-opacity:0.15686275"
         offset="0.95056331" />
      <stop
         id="stop3985"
         style="stop-color:#ffffff;stop-opacity:0.39215687"
         offset="1" />
    </linearGradient>
    <linearGradient
       id="linearGradient3600-4">
      <stop
         id="stop3602-7"
         style="stop-color:#f4f4f4;stop-opacity:1"
         offset="0" />
      <stop
         id="stop3604-6"
         style="stop-color:#dbdbdb;stop-opacity:1"
         offset="1" />
    </linearGradient>
    <linearGradient
       id="linearGradient3104-5">
      <stop
         id="stop3106-6"
         style="stop-color:#a0a0a0;stop-opacity:1"
         offset="0" />
      <stop
         id="stop3108-9"
         style="stop-color:#bebebe;stop-opacity:1"
         offset="1" />
    </linearGradient>
    <linearGradient
       xlink:href="#linearGradient3977"
       id="linearGradient4346"
       gradientUnits="userSpaceOnUse"
       gradientTransform="matrix(0.40540511,0,0,0.51351351,1.2696879,-1.3243134)"
       x1="23.99999"
       y1="5.5641499"
       x2="23.99999"
       y2="43" />
    <linearGradient
       xlink:href="#linearGradient3600-4"
       id="linearGradient4349"
       gradientUnits="userSpaceOnUse"
       gradientTransform="matrix(0.48571543,0,0,0.45629666,-0.65717027,-0.65113223)"
       x1="25.132275"
       y1="0.98520643"
       x2="25.132275"
       y2="47.013336" />
    <linearGradient
       xlink:href="#linearGradient3104-5"
       id="linearGradient4351"
       gradientUnits="userSpaceOnUse"
       gradientTransform="matrix(0.39221364,0,0,0.42702571,28.199297,-1.1596652)"
       x1="-51.786404"
       y1="50.786446"
       x2="-51.786404"
       y2="2.9062471" />
    <radialGradient
       inkscape:collect="always"
       xlink:href="#linearGradient2867-449-88-871-390-598-476-591-434-148-57-177-8-3-3-6-4-8-8-8-5"
       id="radialGradient880"
       gradientUnits="userSpaceOnUse"
       gradientTransform="matrix(0,5.7402804,-7.0472306,0,81.672336,-51.525894)"
       cx="6.7304144"
       cy="9.9571075"
       fx="6.2001843"
       fy="9.9571075"
       r="12.671875" />
    <linearGradient
       id="linearGradient2867-449-88-871-390-598-476-591-434-148-57-177-8-3-3-6-4-8-8-8-5">
      <stop
         offset="0"
         style="stop-color:#919caf;stop-opacity:1;"
         id="stop3750-1-0-7-6-6-1-3-9-3" />
      <stop
         offset="0.26238"
         style="stop-color:#68758e;stop-opacity:1;"
         id="stop3752-3-7-4-0-32-8-923-0-7" />
      <stop
         offset="0.704952"
         style="stop-color:#485a6c;stop-opacity:1;"
         id="stop3754-1-8-5-2-7-6-7-1-9" />
      <stop
         offset="1"
         style="stop-color:#444c5c;stop-opacity:1;"
         id="stop3756-1-6-2-6-6-1-96-6-0" />
    </linearGradient>
  </defs>
  <metadata
     id="metadata3833">
    <rdf:RDF>
      <cc:Work
         rdf:about="">
        <dc:format>image/svg+xml</dc:format>
        <dc:type
           rdf:resource="http://purl.org/dc/dcmitype/StillImage" />
        <dc:title />
      </cc:Work>
    </rdf:RDF>
  </metadata>
  <path
     style="fill:url(#linearGradient4349);fill-opacity:1;stroke:url(#linearGradient4351);stroke-width:0.99992186;stroke-linecap:butt;stroke-linejoin:round;stroke-miterlimit:4;stroke-opacity:1;stroke-dasharray:none;stroke-dashoffset:0;display:inline"
     id="path4160-3"
     d="m 2.4999609,0.49996297 c 3.8955809,0 17.0000591,0.00136 17.0000591,0.00136 l 2.1e-5,20.99871603 c 0,0 -11.3333864,0 -17.0000801,0 0,-7.000018 0,-14.0000349 0,-21.00005373 z" />
  <path
     style="fill:none;stroke:url(#linearGradient4346);stroke-width:1;stroke-linecap:round;stroke-linejoin:miter;stroke-miterlimit:4;stroke-opacity:1;stroke-dasharray:none;stroke-dashoffset:0"
     id="rect6741-1"
     d="m 18.500001,20.500006 -15.0000006,0 0,-18.9999999 15.0000006,0 z" />
  <path
     style="color:#000000;clip-rule:nonzero;display:inline;overflow:visible;visibility:visible;isolation:auto;mix-blend-mode:normal;color-interpolation:sRGB;color-interpolation-filters:linearRGB;solid-color:#000000;solid-opacity:1;fill:url(#radialGradient880);fill-opacity:1;fill-rule:nonzero;stroke:none;stroke-width:0.428571;stroke-linecap:butt;stroke-linejoin:miter;stroke-miterlimit:4;stroke-dasharray:none;stroke-dashoffset:0;stroke-opacity:1;marker:none;color-rendering:auto;image-rendering:auto;shape-rendering:auto;text-rendering:auto;enable-background:accumulate"
     d="m 10.142857,4.9999982 c -0.1542554,0 -0.2828009,0.5957929 -0.3582584,1.4472667 A 4.7142868,4.7142868 0 0 0 8.6453681,6.9260599 C 7.9872777,6.3745108 7.4732111,6.0415754 7.3638416,6.1509469 l -1.2128928,1.212891 c -0.109365,0.109365 0.2235645,0.623437 0.7751131,1.28153 a 4.7142868,4.7142868 0 0 0 -0.4746106,1.139229 c -0.8538601,0.07539 -1.4514512,0.203745 -1.4514512,0.3582601 v 1.714285 c 0,0.154256 0.5957926,0.282804 1.4472662,0.35826 a 4.7142868,4.7142868 0 0 0 0.4771201,1.141743 c -0.5502946,0.656911 -0.8826781,1.169776 -0.7734376,1.279017 l 1.2128928,1.212891 c 0.10914,0.10914 0.6213556,-0.222453 1.2773415,-0.771764 a 4.7142868,4.7142868 0 0 0 1.1434155,0.47126 c 0.07539,0.853858 0.203745,1.451453 0.3582584,1.451453 h 1.714288 c 0.154256,0 0.282803,-0.595793 0.358258,-1.447267 a 4.7142868,4.7142868 0 0 0 1.139231,-0.478795 c 0.658089,0.551548 1.172156,0.884484 1.281528,0.775113 l 1.21289,-1.212891 c 0.10938,-0.109365 -0.223565,-0.623438 -0.775113,-1.28153 a 4.7142868,4.7142868 0 0 0 0.47461,-1.13923 C 16.402409,12.140012 17,12.011656 17,11.857142 V 10.142857 C 17,9.9886009 16.404208,9.8600529 15.552737,9.7845969 a 4.7142868,4.7142868 0 0 0 -0.477123,-1.14174 c 0.550295,-0.656914 0.882678,-1.169779 0.773438,-1.279019 l -1.21289,-1.212891 c -0.10914,-0.1091397 -0.621355,0.222453 -1.277343,0.771765 A 4.7142868,4.7142868 0 0 0 12.215403,6.4514488 C 12.140019,5.597591 12.01166,4.9999982 11.857145,4.9999982 Z m 0.857144,3.8571437 A 2.1428577,2.1428577 0 0 1 13.14286,11 2.1428577,2.1428577 0 0 1 11.000001,13.142858 2.1428577,2.1428577 0 0 1 8.8571426,11 2.1428577,2.1428577 0 0 1 11.000001,8.8571419 Z"
     id="path4690" />
</svg>
