<?xml version="1.0" encoding="UTF-8" standalone="no"?>
<svg
   xmlns:dc="http://purl.org/dc/elements/1.1/"
   xmlns:cc="http://creativecommons.org/ns#"
   xmlns:rdf="http://www.w3.org/1999/02/22-rdf-syntax-ns#"
   xmlns:svg="http://www.w3.org/2000/svg"
   xmlns="http://www.w3.org/2000/svg"
   xmlns:xlink="http://www.w3.org/1999/xlink"
   version="1.0"
   width="22"
   height="22"
   id="svg3783">
  <metadata
     id="metadata43">
    <rdf:RDF>
      <cc:Work
         rdf:about="">
        <dc:format>image/svg+xml</dc:format>
        <dc:type
           rdf:resource="http://purl.org/dc/dcmitype/StillImage" />
        <dc:title />
      </cc:Work>
    </rdf:RDF>
  </metadata>
  <defs
     id="defs3785">
    <linearGradient
       id="linearGradient2490">
      <stop
         id="stop2492"
         style="stop-color:#455f0e;stop-opacity:1"
         offset="0" />
      <stop
         id="stop2494"
         style="stop-color:#84a718;stop-opacity:1"
         offset="1" />
    </linearGradient>
    <linearGradient
       id="linearGradient3242">
      <stop
         id="stop3244"
         style="stop-color:#eef87e;stop-opacity:1"
         offset="0" />
      <stop
         id="stop3246"
         style="stop-color:#cde34f;stop-opacity:1"
         offset="0.26238" />
      <stop
         id="stop3248"
         style="stop-color:#93b723;stop-opacity:1"
         offset="0.66093999" />
      <stop
         id="stop3250"
         style="stop-color:#5a7e0d;stop-opacity:1"
         offset="1" />
    </linearGradient>
    <linearGradient
       id="linearGradient4222">
      <stop
         id="stop4224"
         style="stop-color:#ffffff;stop-opacity:1"
         offset="0" />
      <stop
         id="stop4226"
         style="stop-color:#ffffff;stop-opacity:0"
         offset="1" />
    </linearGradient>
    <linearGradient
       xlink:href="#linearGradient4222"
       id="linearGradient2489"
       gradientUnits="userSpaceOnUse"
       gradientTransform="matrix(0.530541,0,0,0.53054101,-4.364747,0.37958124)"
       x1="26.95891"
       y1="-0.00034927591"
       x2="26.95891"
       y2="39.089828" />
    <radialGradient
       xlink:href="#linearGradient3242"
       id="radialGradient2492"
       gradientUnits="userSpaceOnUse"
       gradientTransform="matrix(0,1.1188263,-1.6139156,-3.6951177e-8,29.123246,-3.6861227)"
       cx="7.4404225"
       cy="15.377086"
       fx="7.4404225"
       fy="15.377086"
       r="19.99999" />
    <linearGradient
       xlink:href="#linearGradient2490"
       id="linearGradient2494"
       gradientUnits="userSpaceOnUse"
       gradientTransform="matrix(0.41093119,0,0,0.41093118,-1.29263,3.8358463)"
       x1="24"
       y1="44"
       x2="24"
       y2="3.8990016" />
  </defs>
  <path
     style="fill:url(#radialGradient2492);fill-opacity:1;stroke:url(#linearGradient2494);stroke-width:1.00000012;stroke-linecap:round;stroke-linejoin:round;stroke-miterlimit:4;stroke-opacity:1;stroke-dasharray:none;stroke-dashoffset:0"
     id="rect3558"
     d="m 8.5697161,0.49999994 c -1.3727374,0 -2.4868421,1.12726276 -2.4868421,2.49999996 0,0.8579604 0.4437249,1.8062447 1.1052624,2.2532927 l 2.843e-4,0.2467072 -5.5263149,0 c -0.6123158,0 -1.16210574,0.6779836 -1.16210574,1.2902996 l 0,5.3708876 C 0.95575576,11.589279 1.7031765,11.211352 2.4907687,11.211352 3.8635056,11.211352 5,12.325457 5,13.698194 c 0,1.372737 -1.1364944,2.486842 -2.5092313,2.486842 -0.7875922,0 -1.53501294,-0.377928 -1.99076864,-0.949835 l 0,5.370888 c 0,0.612316 0.54950564,0.893911 1.16182144,0.893911 l 5.3708885,0 C 6.4608013,21.044244 6.082874,20.564734 6.082874,19.777142 c 0,-1.372737 1.1141047,-2.486843 2.4868421,-2.486843 1.3727369,0 2.4868419,1.114106 2.4868419,2.486843 0,0.787592 -0.377928,1.267102 -0.949836,1.722858 l 5.370888,0 C 16.089926,21.5 16.5,21.218211 16.5,20.605895 l 0,-5.105992 0.514616,1.94e-4 c 0.447049,0.661538 1.197138,0.986745 2.055099,0.986745 1.372737,0 2.486843,-1.114105 2.486843,-2.486842 0,-1.372737 -1.114106,-2.486842 -2.486843,-2.486842 -0.857961,0 -1.60805,0.3254 -2.055099,0.986939 L 16.5,12.499903 l 0,-5.7097979 c 0,-0.612316 -0.410133,-1.3105959 -1.022106,-1.2901053 l -5.526315,0 -2.84e-4,-0.2467072 c 0.661538,-0.447048 1.105263,-1.3953323 1.105263,-2.2532927 0,-1.3727372 -1.114105,-2.49999996 -2.4868419,-2.49999996 z" />
  <path
     style="opacity:0.4;fill:none;stroke:url(#linearGradient2489);stroke-width:1.00000012;stroke-linecap:round;stroke-linejoin:round;stroke-miterlimit:4;stroke-opacity:1;stroke-dasharray:none;stroke-dashoffset:0"
     id="path3741"
     d="m 8.5,1.4999999 c -1.001215,0 -1.4035775,0.5310711 -1.4035775,1.5322862 0,0.6218809 0.328332,1.1650332 0.812391,1.4921464 0.156481,0.1100026 0.249338,0.2895263 0.24869,0.4808024 l 0,0.4144853 c -0.0027,0.3193443 -0.260934,1.077555 -0.580279,1.0802797 l -5.3215525,0 c -0.2737423,0 -0.755672,0.2262579 -0.755672,0.5 l 0,3.3917061 C 3.9630813,9.8328609 5.9616255,11.050084 5.9770841,13.691881 5.9925427,16.333678 4.1138285,17.598623 1.5,17.012883 l 0,3.246715 C 1.5,20.53334 2.324425,20.5 2.598168,20.5 L 5,20.5 C 5,18.445161 6.0681549,16.223662 8.4363919,16.204465 10.804629,16.185268 12.53144,17.882376 11.842495,20.5 L 15,20.5 c 0.273743,0 0.5,0.03334 0.5,-0.240402 l 0,-4.933245 c 0.0027,-0.319345 0.241738,-0.854169 0.561082,-0.856894 l 0.414484,0 c 0.191277,-6.36e-4 0.969245,-0.01003 1.079248,0.146459 0.327113,0.484059 0.665801,0.914623 1.287682,0.914623 1.001216,0 1.807155,-0.529325 1.807155,-1.530541 0,-1.001215 -0.805939,-1.530541 -1.807155,-1.530541 -0.621881,0 -0.892415,0.49872 -1.219528,0.982777 -0.110003,0.156483 -0.956125,0.07895 -1.147402,0.07831 l -0.414484,0 C 15.741738,13.527841 15.502724,12.992992 15.5,12.673648 l 0,-5.6736481 c 0,-0.2737421 -0.226257,-0.5 -0.5,-0.5 l -5.450262,0 C 9.230393,6.4972799 8.972183,5.7390645 8.969459,5.4197202 l 0,-0.4144853 C 8.968811,4.8139588 9.061669,4.6344351 9.21815,4.5244325 9.702208,4.1973193 10.030541,3.654167 10.030541,3.0322861 10.030541,2.031071 9.501215,1.4999999 8.5,1.4999999 z" />
</svg>
