<?xml version="1.0" encoding="UTF-8" standalone="no"?>
<svg
   xmlns:dc="http://purl.org/dc/elements/1.1/"
   xmlns:cc="http://creativecommons.org/ns#"
   xmlns:rdf="http://www.w3.org/1999/02/22-rdf-syntax-ns#"
   xmlns:svg="http://www.w3.org/2000/svg"
   xmlns="http://www.w3.org/2000/svg"
   xmlns:xlink="http://www.w3.org/1999/xlink"
   id="svg3828"
   height="22"
   width="22"
   version="1.1">
  <defs
     id="defs3830">
    <linearGradient
       xlink:href="#linearGradient8265-821-176-38-919-66-249-48-321"
       id="linearGradient3051"
       gradientUnits="userSpaceOnUse"
       gradientTransform="matrix(0.34829932,0,0,0.64312604,2.640816,-1.8386569)"
       x1="16.626165"
       y1="15.298182"
       x2="20.054544"
       y2="24.627615" />
    <linearGradient
       id="linearGradient8265-821-176-38-919-66-249-48-321">
      <stop
         offset="0"
         style="stop-color:#ffffff;stop-opacity:1"
         id="stop5601" />
      <stop
         offset="1"
         style="stop-color:#ffffff;stop-opacity:0"
         id="stop5603" />
    </linearGradient>
    <radialGradient
       xlink:href="#linearGradient2867-449-88-871-390-598-476-591-434-148-57-177-641-289-620-227-114-444-680-744-4"
       id="radialGradient3174"
       gradientUnits="userSpaceOnUse"
       gradientTransform="matrix(0,1.5168666,-2.5735755,0,35.382422,-18.589018)"
       cx="14.239056"
       cy="11.49049"
       fx="14.239056"
       fy="11.49049"
       r="18.000002" />
    <linearGradient
       xlink:href="#linearGradient2781"
       id="linearGradient3176"
       gradientUnits="userSpaceOnUse"
       gradientTransform="matrix(0.39221362,0,0,0.4270262,28.203178,-1.1598009)"
       x1="-51.786404"
       y1="53.623615"
       x2="-51.786404"
       y2="2.9062471" />
    <linearGradient
       y2="24.627615"
       x2="20.054544"
       y1="15.298182"
       x1="16.626165"
       gradientTransform="matrix(0.34829932,0,0,0.64312604,2.640816,-2.8386568)"
       gradientUnits="userSpaceOnUse"
       id="linearGradient3873"
       xlink:href="#linearGradient8265-821-176-38-919-66-249-48-321" />
    <linearGradient
       id="linearGradient2867-449-88-871-390-598-476-591-434-148-57-177-641-289-620-227-114-444-680-744-4">
      <stop
         offset="0"
         style="stop-color:#6b6b6b;stop-opacity:1;"
         id="stop5430-5" />
      <stop
         offset="0.26238"
         style="stop-color:#525252;stop-opacity:1;"
         id="stop5432-2" />
      <stop
         offset="0.704952"
         style="stop-color:#4b4b4b;stop-opacity:1"
         id="stop5434-9" />
      <stop
         offset="1"
         style="stop-color:#3f3f3f;stop-opacity:1"
         id="stop5436-2" />
    </linearGradient>
    <linearGradient
       id="linearGradient2781">
      <stop
         id="stop2783"
         style="stop-color:#000000;stop-opacity:1"
         offset="0" />
      <stop
         id="stop2785"
         style="stop-color:#525252;stop-opacity:1;"
         offset="1" />
    </linearGradient>
  </defs>
  <metadata
     id="metadata3833">
    <rdf:RDF>
      <cc:Work
         rdf:about="">
        <dc:format>image/svg+xml</dc:format>
        <dc:type
           rdf:resource="http://purl.org/dc/dcmitype/StillImage" />
        <dc:title />
      </cc:Work>
    </rdf:RDF>
  </metadata>
  <path
     d="m 2.4999609,0.4998306 c 3.89558,0 17.0000571,0.00134 17.0000571,0.00134 l 2.1e-5,20.9988684 c 0,0 -11.3333861,0 -17.0000781,0 0,-7.000026 0,-14.0001794 0,-21.0002084 z"
     id="path4160"
     style="color:#000000;fill:url(#radialGradient3174);fill-opacity:1;fill-rule:nonzero;stroke:url(#linearGradient3176);stroke-width:0.99992186;stroke-linecap:butt;stroke-linejoin:round;stroke-miterlimit:4;stroke-opacity:1;stroke-dasharray:none;stroke-dashoffset:0;marker:none;visibility:visible;display:inline;overflow:visible;enable-background:accumulate" />
  <path
     d="M 3,2.0000029 3,13.696857 c 9.778e-4,0.08657 0.02152,0.168428 0.056684,0.225715 0.035165,0.05729 0.081707,0.08477 0.1283485,0.07574 L 18.858503,9.416048 C 18.939123,9.392568 18.998873,9.265278 19,9.114582 l 0,-7.1145791 z"
     id="path3879"
     style="opacity:0.2;fill:url(#linearGradient3051);fill-opacity:1;fill-rule:evenodd;stroke:none" />
  <path
     id="path3102"
     d="m 4,2.0000001 9.613334,0 L 18,6.3846155 18,20 4,20 z"
     style="fill:#ffffff;fill-opacity:1;stroke:none" />
  <g
     transform="translate(-0.99999997,-0.9999999)"
     id="g3530">
    <path
       style="fill:none;stroke:#000000;stroke-width:1;stroke-linecap:round;stroke-linejoin:round;stroke-miterlimit:4;stroke-opacity:1;stroke-dasharray:none"
       d="m 6.5,12.5 1.363637,0 1.363636,4 1.363636,-7.9999994 5.909091,0"
       id="path4018" />
    <g
       style="font-size:12px;font-style:normal;font-variant:normal;font-weight:bold;font-stretch:normal;line-height:125%;letter-spacing:0px;word-spacing:0px;fill:#000000;fill-opacity:1;stroke:none;font-family:Droid Sans;-inkscape-font-specification:Sans"
       id="text4042"
       transform="matrix(0.50000472,0,0,0.49999295,0.49989616,1.0002256)">
      <path
         d="m 22.24707,22.698101 0,-0.698242 5.392578,0 0,0.698242 -1.127929,0.290039 1.471679,2.169087 1.944336,-2.190571 -1.009765,-0.268555 0,-0.698242 3.4375,0 0,0.698242 -0.891602,0.225586 -2.835937,3.232563 3.201172,4.919922 0.966796,0.225586 0,0.698242 -5.392578,0 0,-0.698242 1.12793,-0.247071 -1.761719,-2.717773 -2.341797,2.739258 L 25.4375,31.301758 25.4375,32 22,32 22,31.301758 22.902344,31.129883 26.125,27.348633 23.224609,22.966656 22.24707,22.698101"
         style="font-size:22px;font-family:Liberation Serif;-inkscape-font-specification:Liberation Serif Bold"
         id="path3142" />
    </g>
  </g>
  <path
     id="path3872"
     style="opacity:0.2;fill:#ffffff;fill-opacity:1;stroke:#000000;stroke-width:0.99999988px;stroke-linecap:butt;stroke-linejoin:miter;stroke-opacity:1"
     d="m 3.4999999,1.4999992 10.3124991,0 L 18.5,6.1341458 18.5,20.5 3.4999999,20.5 z" />
  <path
     style="opacity:0.2;fill:url(#linearGradient3873);fill-opacity:1;fill-rule:evenodd;stroke:none"
     id="path3871"
     d="m 3,1.000003 0,11.696854 c 9.778e-4,0.08657 0.02152,0.168428 0.056684,0.225715 0.035165,0.05729 0.081707,0.08477 0.1283485,0.07574 L 18.858503,8.416048 C 18.939123,8.392568 18.998873,8.265278 19,8.114582 l 0,-7.114579 z" />
</svg>
