<?xml version="1.0" encoding="UTF-8" standalone="no"?>
<svg
   xmlns:dc="http://purl.org/dc/elements/1.1/"
   xmlns:cc="http://creativecommons.org/ns#"
   xmlns:rdf="http://www.w3.org/1999/02/22-rdf-syntax-ns#"
   xmlns:svg="http://www.w3.org/2000/svg"
   xmlns="http://www.w3.org/2000/svg"
   xmlns:xlink="http://www.w3.org/1999/xlink"
   version="1.0"
   width="22"
   height="22"
   id="svg3372">
  <metadata
     id="metadata106269">
    <rdf:RDF>
      <cc:Work
         rdf:about="">
        <dc:format>image/svg+xml</dc:format>
        <dc:type
           rdf:resource="http://purl.org/dc/dcmitype/StillImage" />
        <dc:title />
      </cc:Work>
    </rdf:RDF>
  </metadata>
  <defs
     id="defs3374">
    <linearGradient
       id="linearGradient3104">
      <stop
         id="stop3106"
         style="stop-color:#aaaaaa;stop-opacity:1"
         offset="0" />
      <stop
         id="stop3108"
         style="stop-color:#c8c8c8;stop-opacity:1"
         offset="1" />
    </linearGradient>
    <linearGradient
       id="linearGradient3600">
      <stop
         id="stop3602"
         style="stop-color:#f4f4f4;stop-opacity:1"
         offset="0" />
      <stop
         id="stop3604"
         style="stop-color:#dbdbdb;stop-opacity:1"
         offset="1" />
    </linearGradient>
    <linearGradient
       id="linearGradient3211">
      <stop
         id="stop3213"
         style="stop-color:#ffffff;stop-opacity:1"
         offset="0" />
      <stop
         id="stop3215"
         style="stop-color:#ffffff;stop-opacity:0"
         offset="1" />
    </linearGradient>
    <linearGradient
       xlink:href="#linearGradient3211"
       id="linearGradient3032"
       gradientUnits="userSpaceOnUse"
       gradientTransform="matrix(0.4545444,0,0,0.44242676,0.09093361,0.36955945)"
       x1="24"
       y1="1.9999999"
       x2="24"
       y2="46.01725" />
    <linearGradient
       xlink:href="#linearGradient3600"
       id="linearGradient3038"
       gradientUnits="userSpaceOnUse"
       gradientTransform="matrix(0.4857154,0,0,0.45629716,-0.65717039,-0.65113655)"
       x1="25.132275"
       y1="0.98520643"
       x2="25.132275"
       y2="47.013336" />
    <linearGradient
       xlink:href="#linearGradient3104"
       id="linearGradient3040"
       gradientUnits="userSpaceOnUse"
       gradientTransform="matrix(0.3922135,0,0,0.42702621,28.199292,-1.1596704)"
       x1="-51.786404"
       y1="50.786446"
       x2="-51.786404"
       y2="2.9062471" />
  </defs>
  <path
     style="fill:url(#linearGradient3038);fill-opacity:1;stroke:url(#linearGradient3040);stroke-width:0.99992162;stroke-linecap:butt;stroke-linejoin:round;stroke-miterlimit:4;stroke-opacity:1;stroke-dasharray:none;stroke-dashoffset:0;display:inline"
     id="path4160"
     d="m 2.4999608,0.49996062 c 0.1660674,0.0408884 17.0000382,3.723e-5 17.0000382,3.723e-5 0,5.46874185 3.9e-5,15.53129815 3.9e-5,21.00004115 -5.666693,0 -11.3333844,0 -17.0000772,0 0,-7.000027 0,-14.0000536 0,-21.00007838 z" />
  <path
     style="opacity:0.6;fill:none;stroke:url(#linearGradient3032);stroke-width:0.99999982;stroke-linecap:butt;stroke-linejoin:miter;stroke-miterlimit:4;stroke-opacity:1;stroke-dasharray:none;stroke-dashoffset:0;display:inline"
     id="path2435"
     d="m 18.5,0.99999988 c 0,4.95424172 0,14.54575712 0,19.50000012 -5,0 -9.9999997,0 -15.0000009,0 0,-6.341467 0,-12.6829277 0,-19.0243904 3.4372614,0 12.0627379,0 15.4999999,0" />
  <path
     style="opacity:0.12000002;fill:#000000;fill-opacity:1;fill-rule:evenodd;stroke:none;stroke-width:1.21500194;marker:none;visibility:visible;display:inline;overflow:visible"
     id="rect4691"
     d="m 8.9999991,15 -2,0 0,2 2,0 0,-2 z m 2.0126259,-9.9999998 -2.0126259,0 0,2 2.0126259,0 0,-2 z m 3.987374,0 -2,0 0,2 2,0 0,-2 z m -2,2 -1.987376,0 0,2 1.987376,0 0,-2 z m -5.9999999,-2 -1.9999995,0 0,2 1.9999995,0 0,-2 z m 9.9999999,2 -2,0 0,2 2,0 0,-2 z m -2,2 -2,0 0,1.9999998 2,0 0,-1.9999998 z m -2,1.9999998 -1.987376,0 0,2 1.987376,0 0,-2 z m -1.987374,-1.9999998 -2.0126259,0 0,1.9999998 2.0126259,0 0,-1.9999998 z m -2.0126259,-2 -2,0 0,2 2,0 0,-2 z m -2,2 -1.9747515,0 0,1.9999998 1.9747515,0 0,-1.9999998 z m 2,1.9999998 -2,0 0,2 2,0 0,-2 z m -2,2 -1.9747515,0 0,2 1.9747515,0 0,-2 z m 9.9999999,-2 -2,0 0,2 2,0 0,-2 z m -2,2 -2,0 0,2 2,0 0,-2 z m 2,2 -2,0 0,2 2,0 0,-2 z m -2,2 -2,0 0,2 2,0 0,-2 z m -2,-2 -1.987376,0 0,2 1.987376,0 0,-2 z m -1.987374,-2 -2.0126259,0 0,2 2.0126259,0 0,-2 z m -0.02593,4 -1.9866929,0 0,2 1.9866929,0 0,-2 z m -3.9866929,0 -1.9747515,0 0,2 1.9747515,0 0,-2 z m 0,-13.9999998 2,0 0,2 -2,0 0,-2 z m 3.9999999,0 2,0 0,2 -2,0 0,-2 z m 3.972462,0 2,0 0,2 -2,0 0,-2 z" />
</svg>
