<?xml version="1.0" encoding="UTF-8" standalone="no"?>
<svg
   xmlns:dc="http://purl.org/dc/elements/1.1/"
   xmlns:cc="http://creativecommons.org/ns#"
   xmlns:rdf="http://www.w3.org/1999/02/22-rdf-syntax-ns#"
   xmlns:svg="http://www.w3.org/2000/svg"
   xmlns="http://www.w3.org/2000/svg"
   xmlns:xlink="http://www.w3.org/1999/xlink"
   xmlns:sodipodi="http://sodipodi.sourceforge.net/DTD/sodipodi-0.dtd"
   xmlns:inkscape="http://www.inkscape.org/namespaces/inkscape"
   version="1.1"
   width="22"
   height="22"
   id="svg3828"
   sodipodi:docname="text-x-ruby.svg"
   inkscape:version="1.0.2 (e86c870879, 2021-01-15)">
  <sodipodi:namedview
     pagecolor="#ffffff"
     bordercolor="#666666"
     borderopacity="1"
     objecttolerance="10"
     gridtolerance="10"
     guidetolerance="10"
     inkscape:pageopacity="0"
     inkscape:pageshadow="2"
     inkscape:window-width="1920"
     inkscape:window-height="1030"
     id="namedview22"
     showgrid="false"
     inkscape:zoom="12.743993"
     inkscape:cx="7.6568018"
     inkscape:cy="-2.672085"
     inkscape:window-x="0"
     inkscape:window-y="0"
     inkscape:window-maximized="1"
     inkscape:current-layer="svg3828" />
  <defs
     id="defs3830">
    <linearGradient
       id="linearGradient3977">
      <stop
         id="stop3979"
         style="stop-color:#ffffff;stop-opacity:1"
         offset="0" />
      <stop
         id="stop3981"
         style="stop-color:#ffffff;stop-opacity:0.23529412"
         offset="0.03626217" />
      <stop
         id="stop3983"
         style="stop-color:#ffffff;stop-opacity:0.15686275"
         offset="0.95056331" />
      <stop
         id="stop3985"
         style="stop-color:#ffffff;stop-opacity:0.39215687"
         offset="1" />
    </linearGradient>
    <linearGradient
       id="linearGradient3600-4">
      <stop
         id="stop3602-7"
         style="stop-color:#f4f4f4;stop-opacity:1"
         offset="0" />
      <stop
         id="stop3604-6"
         style="stop-color:#dbdbdb;stop-opacity:1"
         offset="1" />
    </linearGradient>
    <linearGradient
       id="linearGradient3104-5">
      <stop
         id="stop3106-6"
         style="stop-color:#a0a0a0;stop-opacity:1"
         offset="0" />
      <stop
         id="stop3108-9"
         style="stop-color:#bebebe;stop-opacity:1"
         offset="1" />
    </linearGradient>
    <linearGradient
       xlink:href="#linearGradient3977"
       id="linearGradient3013"
       gradientUnits="userSpaceOnUse"
       gradientTransform="matrix(0.40540511,0,0,0.48783783,1.2696879,-0.23309753)"
       x1="23.99999"
       y1="2.7872362"
       x2="23.99999"
       y2="43" />
    <linearGradient
       xlink:href="#linearGradient3600-4"
       id="linearGradient3016"
       gradientUnits="userSpaceOnUse"
       gradientTransform="matrix(0.48571543,0,0,0.43554341,-0.65717027,0.35634569)"
       x1="25.132275"
       y1="-3.7190604"
       x2="25.132275"
       y2="47.013336" />
    <linearGradient
       xlink:href="#linearGradient3104-5"
       id="linearGradient3018"
       gradientUnits="userSpaceOnUse"
       gradientTransform="matrix(0.39221364,0,0,0.40760376,28.199297,-0.12905825)"
       x1="-51.786404"
       y1="50.786446"
       x2="-51.786404"
       y2="2.9062471" />
    <linearGradient
       id="linearGradient5060">
      <stop
         id="stop5062"
         style="stop-color:#000000;stop-opacity:1"
         offset="0" />
      <stop
         id="stop5064"
         style="stop-color:#000000;stop-opacity:0"
         offset="1" />
    </linearGradient>
    <radialGradient
       r="12.289036"
       fy="63.965389"
       fx="15.115514"
       cy="63.965389"
       cx="15.115514"
       gradientTransform="matrix(0.49448315,0,0,0.22746259,5.6023551,1.352551)"
       gradientUnits="userSpaceOnUse"
       id="radialGradient3210"
       xlink:href="#linearGradient5060" />
    <linearGradient
       xlink:href="#linearGradient5134-621"
       id="linearGradient3117"
       gradientUnits="userSpaceOnUse"
       gradientTransform="matrix(0.42675751,0.01153968,-0.01153968,0.42675751,2.7825441,3.1263001)"
       x1="27.041409"
       y1="26.330421"
       x2="35"
       y2="33" />
    <linearGradient
       id="linearGradient5134-621">
      <stop
         id="stop5857"
         style="stop-color:#d63233;stop-opacity:1"
         offset="0" />
      <stop
         id="stop5859"
         style="stop-color:#fd9283;stop-opacity:1"
         offset="1" />
    </linearGradient>
    <radialGradient
       xlink:href="#linearGradient5150-349"
       id="radialGradient3111"
       gradientUnits="userSpaceOnUse"
       gradientTransform="matrix(0.34129074,0.3112149,-0.5890834,0.64815314,-0.82937587,-37.274056)"
       cx="93.541039"
       cy="31.684702"
       fx="93.541039"
       fy="31.684702"
       r="6.8495793" />
    <linearGradient
       id="linearGradient5150-349">
      <stop
         id="stop5371"
         style="stop-color:#d44228;stop-opacity:1"
         offset="0" />
      <stop
         id="stop5373"
         style="stop-color:#bc3c31;stop-opacity:1"
         offset="1" />
    </linearGradient>
    <linearGradient
       xlink:href="#linearGradient3626-304-761-759-275"
       id="linearGradient3113"
       gradientUnits="userSpaceOnUse"
       gradientTransform="matrix(0.38225318,0.35388379,-0.36713455,0.39817325,-11.693428,-33.34481)"
       x1="96.71505"
       y1="34.202248"
       x2="99.66996"
       y2="34.205513" />
    <linearGradient
       id="linearGradient3626-304-761-759-275">
      <stop
         id="stop5377"
         style="stop-color:#9c3f2f;stop-opacity:1"
         offset="0" />
      <stop
         id="stop5379"
         style="stop-color:#9a3422;stop-opacity:0"
         offset="1" />
    </linearGradient>
    <linearGradient
       xlink:href="#linearGradient13503-332-487-296"
       id="linearGradient3108"
       gradientUnits="userSpaceOnUse"
       gradientTransform="matrix(0.46403823,-0.00532734,0.00532734,0.46403823,-30.246344,-1.4259647)"
       x1="83.625"
       y1="38.322552"
       x2="83.625"
       y2="35.208294" />
    <linearGradient
       id="linearGradient13503-332-487-296">
      <stop
         id="stop4805"
         style="stop-color:#f33838;stop-opacity:1"
         offset="0" />
      <stop
         id="stop4807"
         style="stop-color:#ffffff;stop-opacity:1"
         offset="1" />
    </linearGradient>
    <linearGradient
       xlink:href="#linearGradient13503-332-487-296"
       id="linearGradient3105"
       gradientUnits="userSpaceOnUse"
       gradientTransform="matrix(0.46403823,-0.00532734,0.00532734,0.46403823,-30.246344,-1.4259647)"
       x1="92.25"
       y1="33.754673"
       x2="92.03125"
       y2="30.257521" />
    <linearGradient
       xlink:href="#linearGradient13503-332-487-296"
       id="linearGradient3101"
       gradientUnits="userSpaceOnUse"
       gradientTransform="matrix(0.46403823,-0.00532734,0.00532734,0.46403823,-30.246344,-1.4259647)"
       x1="97.28125"
       y1="27.1875"
       x2="94.15625"
       y2="24.4375" />
    <linearGradient
       xlink:href="#linearGradient13503-332-487-296"
       id="linearGradient3098"
       gradientUnits="userSpaceOnUse"
       gradientTransform="matrix(0.46403823,-0.00532734,0.00532734,0.46403823,-28.177104,17.114252)"
       x1="95.631493"
       y1="-19.533808"
       x2="90.217705"
       y2="-18.141273" />
    <linearGradient
       xlink:href="#linearGradient13503-332-487-296"
       id="linearGradient3095"
       gradientUnits="userSpaceOnUse"
       gradientTransform="matrix(0.46403823,-0.00532734,0.00532734,0.46403823,-34.714067,23.773712)"
       x1="91.25193"
       y1="-15.59241"
       x2="92.604187"
       y2="-20.792925" />
    <linearGradient
       xlink:href="#linearGradient13645-430-425-17"
       id="linearGradient3092"
       gradientUnits="userSpaceOnUse"
       gradientTransform="matrix(0.23544723,0.21201472,-0.22916913,0.24182656,-3.6177799,-16.178755)"
       x1="93.695778"
       y1="41.634907"
       x2="88.839615"
       y2="26.961405" />
    <linearGradient
       id="linearGradient13645-430-425-17">
      <stop
         id="stop4823"
         style="stop-color:#ab3227;stop-opacity:1"
         offset="0" />
      <stop
         id="stop4825"
         style="stop-color:#d54329;stop-opacity:1"
         offset="1" />
    </linearGradient>
    <linearGradient
       xlink:href="#linearGradient5142"
       id="linearGradient3089"
       gradientUnits="userSpaceOnUse"
       gradientTransform="matrix(0.35391091,0.321194,-0.34319768,0.36494009,-9.7515429,-29.216045)"
       x1="91.248039"
       y1="20.596615"
       x2="105.09795"
       y2="35.66256" />
    <linearGradient
       id="linearGradient5142">
      <stop
         id="stop5144"
         style="stop-color:#fbb6b6;stop-opacity:1"
         offset="0" />
      <stop
         id="stop5146"
         style="stop-color:#fbb6b6;stop-opacity:0"
         offset="1" />
    </linearGradient>
  </defs>
  <metadata
     id="metadata3833">
    <rdf:RDF>
      <cc:Work
         rdf:about="">
        <dc:format>image/svg+xml</dc:format>
        <dc:type
           rdf:resource="http://purl.org/dc/dcmitype/StillImage" />
        <dc:title></dc:title>
      </cc:Work>
    </rdf:RDF>
  </metadata>
  <path
     style="fill:url(#linearGradient3016);fill-opacity:1;stroke:url(#linearGradient3018);stroke-width:0.99992186;stroke-linecap:butt;stroke-linejoin:round;stroke-miterlimit:4;stroke-opacity:1;stroke-dasharray:none;stroke-dashoffset:0;display:inline"
     id="path4160-3"
     d="m 2.4999609,0.49996086 c 3.8955809,0 17.0000591,0.001298 17.0000591,0.001298 l 2.1e-5,20.99878014 c 0,0 -11.3333864,0 -17.0000801,0 0,-6.681644 0,-14.3184125 0,-21.00005699 z" />
  <path
     style="fill:none;stroke:url(#linearGradient3013);stroke-width:1;stroke-linecap:round;stroke-linejoin:miter;stroke-miterlimit:4;stroke-opacity:1;stroke-dasharray:none;stroke-dashoffset:0"
     id="rect6741-1"
     d="m 18.500001,20.500006 -15.0000006,0 0,-19 15.0000006,0 z" />
  <path
     style="fill:none;stroke:#aaaaaa;stroke-width:1px;stroke-linecap:butt;stroke-linejoin:miter;stroke-opacity:1"
     id="path2590"
     d="m 5.0000008,3.5050125 2.34375,0 -2.34375,0 z m 2.6875,0 2.1875,0 -2.1875,0 z m 2.5312502,0 1.9375,0 -1.9375,0 z m 2.25,0 0.84375,0 -0.84375,0 z m 1.1875,0 0,0 z m -8.6562502,2 3.65625,0 -3.65625,0 z m 4.0625,0 1.7500002,0 -1.7500002,0 z m 2.0625002,0 0.875,0 -0.875,0 z m 1.21875,0 1.59375,0 -1.59375,0 z m 1.9375,0 1.625,0 -1.625,0 z m -9.2812502,2.0300479 1.59375,0 -1.59375,0 z m 2.09375,0 5.9062502,0 -5.9062502,0 z m -2.09375,2.9649456 3.09375,0 -3.09375,0 z m 3.40625,0 5.0625002,0 -5.0625002,0 z m 5.3750002,0 2.46875,0 -2.46875,0 z m -8.7812502,2 2.34375,0 -2.34375,0 z m 2.6875,0 2.15625,0 -2.15625,0 z m 2.5312502,0 1.9375,0 -1.9375,0 z m 2.25,0 0.84375,0 -0.84375,0 z m 1.1875,0 1.875,0 -1.875,0 z m -8.6562502,3 3.09375,0 -3.09375,0 z m 3.40625,0 5.0625002,0 -5.0625002,0 z m 5.3750002,0 2.46875,0 -2.46875,0 z m -8.7812502,2 3.875,0 -3.875,0 z m 4.21875,0 1.7500002,0 -1.7500002,0 z m 2.0625002,0 2.75,0 -2.75,0 z" />
  <path
     style="display:inline;opacity:0.429185;fill:url(#radialGradient3210);fill-opacity:1;stroke:none;stroke-width:0.426913"
     id="path4112"
     d="m 19.153441,15.902289 c 6.78e-4,1.544017 -2.720168,2.795853 -6.07672,2.795853 -3.3565529,0 -6.0773889,-1.251836 -6.0767209,-2.795853 -6.78e-4,-1.544017 2.720168,-2.795853 6.0767209,-2.795853 3.356552,0 6.077388,1.251836 6.07672,2.795853 z" />
  <path
     style="fill:url(#linearGradient3117);fill-opacity:1;fill-rule:evenodd;stroke:#9c3f2f;stroke-width:0.426913px;stroke-linecap:butt;stroke-linejoin:round;stroke-opacity:1"
     id="path16493"
     d="M 17.38762,9.7628439 17.33824,17.613186 9.5072421,17.630296 17.387613,9.7628389 Z" />
  <path
     style="fill:#af3a28;fill-opacity:1;fill-rule:evenodd;stroke:none;stroke-width:0.426913"
     id="path16495"
     d="m 17.338247,17.613186 -1.080649,-4.837849 -1.994685,2.671853 z m 0,0 -4.920822,-1.089573 -1.480541,0.916477 z" />
  <path
     style="fill:url(#radialGradient3111);fill-opacity:1;fill-rule:nonzero;stroke:url(#linearGradient3113);stroke-width:0.410491;stroke-linecap:round;stroke-linejoin:round;stroke-miterlimit:4;stroke-dasharray:none;stroke-dashoffset:0;stroke-opacity:1"
     id="path16499"
     d="m 14.900948,14.661057 c -2.358197,2.557182 -5.3750619,3.607558 -6.7402969,2.34676 -1.365235,-1.260798 -0.562465,-4.355897 1.793554,-6.915089 2.3560189,-2.5591928 5.3741639,-3.6145081 6.7431579,-2.3577931 1.368995,1.256715 0.571039,4.3501301 -1.782796,6.9113281" />
  <path
     style="opacity:0.802575;fill:url(#linearGradient3108);fill-opacity:1;fill-rule:evenodd;stroke:none;stroke-width:0.426913"
     id="path16503"
     d="M 9.4466501,17.34946 10.764814,13.41849 8.2139351,13.563798 Z" />
  <path
     style="opacity:0.802575;fill:url(#linearGradient3105);fill-opacity:1;fill-rule:evenodd;stroke:none;stroke-width:0.426913"
     id="path16505"
     d="M 14.521104,14.680645 13.283395,10.459948 10.764814,13.41849 Z" />
  <path
     style="opacity:0.802575;fill:url(#linearGradient3101);fill-opacity:1;fill-rule:evenodd;stroke:none;stroke-width:0.426913"
     id="path16507"
     d="m 13.346429,8.3707779 3.475256,2.0485501 -3.567293,0.04095 z" />
  <path
     style="opacity:0.802575;fill:url(#linearGradient3098);fill-opacity:1;fill-rule:evenodd;stroke:none;stroke-width:0.426913"
     id="path16509"
     d="M 15.511265,7.5679658 13.967274,8.8573419 12.687603,8.1440669 Z" />
  <path
     style="opacity:0.802575;fill:url(#linearGradient3095);fill-opacity:1;fill-rule:evenodd;stroke:none;stroke-width:0.426913"
     id="path16511"
     d="m 8.5058811,14.323434 -1.076051,1.237745 0.610059,-2.538222 z" />
  <path
     style="fill:url(#linearGradient3092);fill-opacity:1;fill-rule:nonzero;stroke:#e3b9be;stroke-width:0.426913;stroke-linecap:round;stroke-linejoin:round;stroke-miterlimit:4;stroke-dasharray:none;stroke-dashoffset:0;stroke-opacity:1"
     id="path16513"
     d="m 12.364506,12.413622 c -1.471865,1.553209 -3.2108009,2.321628 -3.8851419,1.716807 -0.674341,-0.604822 -0.02903,-2.354121 1.441761,-3.908295 1.4707889,-1.5541741 3.2107549,-2.3253851 3.8874429,-1.7230431 0.676687,0.602343 0.03415,2.3504111 -1.435559,3.9055471" />
  <path
     style="opacity:0.4;fill:none;stroke:url(#linearGradient3089);stroke-width:0.410491;stroke-linecap:round;stroke-linejoin:round;stroke-miterlimit:4;stroke-dasharray:none;stroke-dashoffset:0;stroke-opacity:1"
     id="path3614"
     d="m 14.766918,14.467722 c -2.204442,2.34375 -5.0147239,3.315574 -6.2787469,2.171256 -1.264023,-1.144318 -0.503694,-3.97196 1.6987329,-6.317535 2.202426,-2.3455751 5.01392,-3.3219107 6.281457,-2.1813351 1.267537,1.140576 0.511693,3.9666591 -1.688711,6.3140541" />
</svg>
