<?xml version="1.0" encoding="UTF-8" standalone="no"?>
<svg
   xmlns:dc="http://purl.org/dc/elements/1.1/"
   xmlns:cc="http://creativecommons.org/ns#"
   xmlns:rdf="http://www.w3.org/1999/02/22-rdf-syntax-ns#"
   xmlns:svg="http://www.w3.org/2000/svg"
   xmlns="http://www.w3.org/2000/svg"
   xmlns:xlink="http://www.w3.org/1999/xlink"
   id="svg3828"
   height="22"
   width="22"
   version="1.1">
  <defs
     id="defs3830">
    <linearGradient
       id="linearGradient3977">
      <stop
         offset="0"
         style="stop-color:#ffffff;stop-opacity:1"
         id="stop3979" />
      <stop
         offset="0.03626217"
         style="stop-color:#ffffff;stop-opacity:0.23529412"
         id="stop3981" />
      <stop
         offset="0.95056331"
         style="stop-color:#ffffff;stop-opacity:0.15686275"
         id="stop3983" />
      <stop
         offset="1"
         style="stop-color:#ffffff;stop-opacity:0.39215687"
         id="stop3985" />
    </linearGradient>
    <linearGradient
       id="linearGradient3600-4">
      <stop
         offset="0"
         style="stop-color:#f4f4f4;stop-opacity:1"
         id="stop3602-7" />
      <stop
         offset="1"
         style="stop-color:#dbdbdb;stop-opacity:1"
         id="stop3604-6" />
    </linearGradient>
    <linearGradient
       y2="43"
       x2="23.99999"
       y1="5.5641499"
       x1="23.99999"
       gradientTransform="matrix(0.40540511,0,0,0.51351253,1.2696879,-1.32431)"
       gradientUnits="userSpaceOnUse"
       id="linearGradient3000"
       xlink:href="#linearGradient3977" />
    <linearGradient
       y2="47.013336"
       x2="25.132275"
       y1="0.98520643"
       x1="25.132275"
       gradientTransform="matrix(0.48571543,0,0,0.45629579,-0.65717027,-0.65113)"
       gradientUnits="userSpaceOnUse"
       id="linearGradient3003"
       xlink:href="#linearGradient3600-4" />
    <linearGradient
       y2="12.500629"
       x2="11.703956"
       y1="19.198923"
       x1="11.703956"
       gradientUnits="userSpaceOnUse"
       id="linearGradient3022"
       xlink:href="#linearGradient4299-652"
       gradientTransform="translate(-1.0001672,-1.0002473)" />
    <linearGradient
       id="linearGradient4299-652">
      <stop
         offset="0"
         style="stop-color:#ffffff;stop-opacity:1"
         id="stop3618" />
      <stop
         offset="1"
         style="stop-color:#ffffff;stop-opacity:0"
         id="stop3620" />
    </linearGradient>
  </defs>
  <metadata
     id="metadata3833">
    <rdf:RDF>
      <cc:Work
         rdf:about="">
        <dc:format>image/svg+xml</dc:format>
        <dc:type
           rdf:resource="http://purl.org/dc/dcmitype/StillImage" />
        <dc:title />
      </cc:Work>
    </rdf:RDF>
  </metadata>
  <path
     d="m 2.4999609,0.499963 c 3.8955809,0 17.0000591,0.0014 17.0000591,0.0014 l 2.1e-5,20.998676 c 0,0 -11.3333864,0 -17.0000801,0 0,-7.000005 0,-14.000008 0,-21.000014 z"
     id="path4160-3"
     style="fill:url(#linearGradient3003);fill-opacity:1;stroke:none;stroke-width:0.99992186000000005;stroke-linecap:butt;stroke-linejoin:round;stroke-miterlimit:4;stroke-opacity:1;stroke-dasharray:none;stroke-dashoffset:0;display:inline" />
  <path
     d="m 18.500001,20.499968 -15.0000006,0 0,-18.999964 15.0000006,0 z"
     id="rect6741-1"
     style="fill:none;stroke:url(#linearGradient3000);stroke-width:1;stroke-linecap:round;stroke-linejoin:miter;stroke-miterlimit:4;stroke-opacity:1;stroke-dasharray:none;stroke-dashoffset:0" />
  <path
     d="m 2.4999609,0.49996293 c 3.8955809,0 17.0000591,0.0014 17.0000591,0.0014 l 2.1e-5,20.99867607 c 0,0 -11.3333864,0 -17.0000801,0 0,-7.000005 0,-14.0000081 0,-21.00001407 z"
     id="path4160-3-5"
     style="fill:none;fill-opacity:1;stroke:#000000;stroke-width:0.99992186000000005;stroke-linecap:butt;stroke-linejoin:round;stroke-miterlimit:4;stroke-opacity:1;stroke-dasharray:none;stroke-dashoffset:0;display:inline;opacity:0.3" />
  <path
     d="m 15.499833,11.522138 -4.500001,5 -4.4999992,-5 3,0 0,-5.0223851 3.0000002,0 0,5.0223851 z"
     id="path3288-2-2"
     style="color:#000000;fill:#bebebe;fill-opacity:1;fill-rule:nonzero;stroke:#a0a0a0;stroke-width:1;stroke-linecap:round;stroke-linejoin:round;stroke-miterlimit:4;stroke-opacity:1;stroke-dasharray:none;stroke-dashoffset:0;marker:none;visibility:visible;display:inline;overflow:visible;enable-background:accumulate" />
  <path
     d="m 9.2807078,5.4681979 c -0.5966543,0.112049 -0.9162257,0.736506 -0.84375,1.30311 0,0.898964 0,2.7982318 0,3.6971951 -0.5788649,0.0367 -2.2592394,-0.146354 -2.7090233,0.328895 -0.4664666,0.45279 -0.3538552,1.232121 0.1203581,1.631199 1.4721128,1.632101 2.9372057,3.270736 4.4137234,4.898737 0.474211,0.475926 1.303176,0.33271 1.665288,-0.205327 1.48182,-1.654007 2.97913,-3.295035 4.451232,-4.957185 0.514277,-0.661155 -0.04205,-1.734972 -0.878703,-1.696319 -0.3125,0 -1.62492,0 -1.93742,0 -0.0045,-1.0149193 0.009,-3.0307161 -0.0069,-4.0452731 -0.05174,-0.634617 -0.69724,-1.035839 -1.29626,-0.955032 -1.659293,4.8e-5 -1.319779,-6.5e-5 -2.9785952,0 z"
     id="path3524"
     style="opacity:0.6;color:#000000;fill:none;stroke:url(#linearGradient3022);stroke-width:1;stroke-linecap:round;stroke-linejoin:miter;stroke-miterlimit:4;stroke-opacity:1;stroke-dasharray:none;stroke-dashoffset:0;marker:none;visibility:visible;display:inline;overflow:visible;enable-background:accumulate" />
</svg>
