<?xml version="1.0" encoding="UTF-8" standalone="no"?>
<!-- Created with Inkscape (http://www.inkscape.org/) -->

<svg
   xmlns:dc="http://purl.org/dc/elements/1.1/"
   xmlns:cc="http://creativecommons.org/ns#"
   xmlns:rdf="http://www.w3.org/1999/02/22-rdf-syntax-ns#"
   xmlns:svg="http://www.w3.org/2000/svg"
   xmlns="http://www.w3.org/2000/svg"
   xmlns:xlink="http://www.w3.org/1999/xlink"
   xmlns:sodipodi="http://sodipodi.sourceforge.net/DTD/sodipodi-0.dtd"
   xmlns:inkscape="http://www.inkscape.org/namespaces/inkscape"
   version="1.1"
   width="22"
   height="22"
   id="svg3828"
   inkscape:version="0.48.3.1 r9886"
   sodipodi:docname="text-x-script.svg">
  <sodipodi:namedview
     pagecolor="#ffffff"
     bordercolor="#666666"
     borderopacity="1"
     objecttolerance="10"
     gridtolerance="10"
     guidetolerance="10"
     inkscape:pageopacity="0"
     inkscape:pageshadow="2"
     inkscape:window-width="935"
     inkscape:window-height="669"
     id="namedview102613"
     showgrid="false"
     inkscape:zoom="9.8333333"
     inkscape:cx="12"
     inkscape:cy="12"
     inkscape:window-x="0"
     inkscape:window-y="25"
     inkscape:window-maximized="0"
     inkscape:current-layer="svg3828"
     showguides="true"
     inkscape:guide-bbox="true" />
  <defs
     id="defs3830">
    <linearGradient
       x1="23.99999"
       y1="2.7872362"
       x2="23.99999"
       y2="43"
       id="linearGradient3119"
       xlink:href="#linearGradient3977"
       gradientUnits="userSpaceOnUse"
       gradientTransform="matrix(0.40540511,0,0,0.51351351,2.2696871,7.6756805)" />
    <linearGradient
       id="linearGradient3977">
      <stop
         id="stop3979"
         style="stop-color:#ffffff;stop-opacity:1"
         offset="0" />
      <stop
         id="stop3981"
         style="stop-color:#ffffff;stop-opacity:0.23529412"
         offset="0.03626217" />
      <stop
         id="stop3983"
         style="stop-color:#ffffff;stop-opacity:0.15686275"
         offset="0.95056331" />
      <stop
         id="stop3985"
         style="stop-color:#ffffff;stop-opacity:0.39215687"
         offset="1" />
    </linearGradient>
    <linearGradient
       x1="25.132275"
       y1="-3.7190604"
       x2="25.132275"
       y2="47.013336"
       id="linearGradient3122"
       xlink:href="#linearGradient3600-4"
       gradientUnits="userSpaceOnUse"
       gradientTransform="matrix(0.48571543,0,0,0.45629666,0.3428289,8.3488617)" />
    <linearGradient
       id="linearGradient3600-4">
      <stop
         id="stop3602-7"
         style="stop-color:#f4f4f4;stop-opacity:1"
         offset="0" />
      <stop
         id="stop3604-6"
         style="stop-color:#dbdbdb;stop-opacity:1"
         offset="1" />
    </linearGradient>
    <linearGradient
       x1="-51.786404"
       y1="50.786446"
       x2="-51.786404"
       y2="2.9062471"
       id="linearGradient3124"
       xlink:href="#linearGradient3104-5"
       gradientUnits="userSpaceOnUse"
       gradientTransform="matrix(0.39221364,0,0,0.42702571,29.199296,7.8403287)" />
    <linearGradient
       id="linearGradient3104-5">
      <stop
         id="stop3106-6"
         style="stop-color:#a0a0a0;stop-opacity:1"
         offset="0" />
      <stop
         id="stop3108-9"
         style="stop-color:#bebebe;stop-opacity:1"
         offset="1" />
    </linearGradient>
    <radialGradient
       cx="605.71429"
       cy="486.64789"
       r="117.14286"
       fx="605.71429"
       fy="486.64789"
       id="radialGradient3045"
       xlink:href="#linearGradient5060"
       gradientUnits="userSpaceOnUse"
       gradientTransform="matrix(0.01204859,0,0,0.0082353,13.238793,26.980564)" />
    <linearGradient
       id="linearGradient5060">
      <stop
         id="stop5062"
         style="stop-color:#000000;stop-opacity:1"
         offset="0" />
      <stop
         id="stop5064"
         style="stop-color:#000000;stop-opacity:0"
         offset="1" />
    </linearGradient>
    <radialGradient
       cx="605.71429"
       cy="486.64789"
       r="117.14286"
       fx="605.71429"
       fy="486.64789"
       id="radialGradient3048"
       xlink:href="#linearGradient5060"
       gradientUnits="userSpaceOnUse"
       gradientTransform="matrix(-0.01204859,0,0,0.0082353,10.761206,26.980564)" />
    <linearGradient
       id="linearGradient5048">
      <stop
         id="stop5050"
         style="stop-color:#000000;stop-opacity:0"
         offset="0" />
      <stop
         id="stop5056"
         style="stop-color:#000000;stop-opacity:1"
         offset="0.5" />
      <stop
         id="stop5052"
         style="stop-color:#000000;stop-opacity:0"
         offset="1" />
    </linearGradient>
    <linearGradient
       x1="302.85715"
       y1="366.64789"
       x2="302.85715"
       y2="609.50507"
       id="linearGradient3826"
       xlink:href="#linearGradient5048"
       gradientUnits="userSpaceOnUse"
       gradientTransform="matrix(0.0352071,0,0,0.0082353,-0.724852,26.980547)" />
    <linearGradient
       inkscape:collect="always"
       xlink:href="#linearGradient3977"
       id="linearGradient3058"
       gradientUnits="userSpaceOnUse"
       gradientTransform="matrix(0.40540511,0,0,0.48783783,1.2696879,-0.23309753)"
       x1="23.99999"
       y1="2.7872362"
       x2="23.99999"
       y2="43" />
    <linearGradient
       inkscape:collect="always"
       xlink:href="#linearGradient3600-4"
       id="linearGradient3061"
       gradientUnits="userSpaceOnUse"
       gradientTransform="matrix(0.48571543,0,0,0.43554341,-0.65717027,0.35634569)"
       x1="25.132275"
       y1="-3.7190604"
       x2="25.132275"
       y2="47.013336" />
    <linearGradient
       inkscape:collect="always"
       xlink:href="#linearGradient3104-5"
       id="linearGradient3063"
       gradientUnits="userSpaceOnUse"
       gradientTransform="matrix(0.39221364,0,0,0.40760376,28.199297,-0.12905822)"
       x1="-51.786404"
       y1="50.786446"
       x2="-51.786404"
       y2="2.9062471" />
    <radialGradient
       inkscape:collect="always"
       xlink:href="#linearGradient5060"
       id="radialGradient3066"
       gradientUnits="userSpaceOnUse"
       gradientTransform="matrix(0.01204859,0,0,0.0082353,13.238793,18.980564)"
       cx="605.71429"
       cy="486.64789"
       fx="605.71429"
       fy="486.64789"
       r="117.14286" />
    <radialGradient
       inkscape:collect="always"
       xlink:href="#linearGradient5060"
       id="radialGradient3069"
       gradientUnits="userSpaceOnUse"
       gradientTransform="matrix(-0.01204859,0,0,0.0082353,10.761206,18.980564)"
       cx="605.71429"
       cy="486.64789"
       fx="605.71429"
       fy="486.64789"
       r="117.14286" />
    <linearGradient
       inkscape:collect="always"
       xlink:href="#linearGradient5048"
       id="linearGradient3072"
       gradientUnits="userSpaceOnUse"
       gradientTransform="matrix(0.0352071,0,0,0.0082353,-0.724852,18.980547)"
       x1="302.85715"
       y1="366.64789"
       x2="302.85715"
       y2="609.50507" />
  </defs>
  <metadata
     id="metadata3833">
    <rdf:RDF>
      <cc:Work
         rdf:about="">
        <dc:format>image/svg+xml</dc:format>
        <dc:type
           rdf:resource="http://purl.org/dc/dcmitype/StillImage" />
        <dc:title></dc:title>
      </cc:Work>
    </rdf:RDF>
  </metadata>
  <path
     sodipodi:nodetypes="ccccsc"
     inkscape:connector-curvature="0"
     style="fill:url(#linearGradient3061);fill-opacity:1;stroke:url(#linearGradient3063);stroke-width:0.99992186;stroke-linecap:butt;stroke-linejoin:round;stroke-miterlimit:4;stroke-opacity:1;stroke-dasharray:none;stroke-dashoffset:0;display:inline"
     id="path4160-3"
     d="m 2.4999609,0.49996086 c 3.8955809,0 17.0000591,0.001298 17.0000591,0.001298 l 2.1e-5,20.99878014 c 0,0 -11.3333864,0 -17.0000801,0 0,-6.681644 0,-14.3184126 0,-21.000057 z" />
  <path
     sodipodi:nodetypes="ccccc"
     inkscape:connector-curvature="0"
     style="fill:none;stroke:url(#linearGradient3058);stroke-width:1;stroke-linecap:round;stroke-linejoin:miter;stroke-miterlimit:4;stroke-opacity:1;stroke-dasharray:none;stroke-dashoffset:0"
     id="rect6741-1"
     d="m 18.500001,20.500006 -15.0000006,0 0,-19 15.0000006,0 z" />
  <g
     id="g2660"
     transform="translate(24.060242,-1.2771019)">
    <path
       inkscape:connector-curvature="0"
       style="fill:#89adc2;fill-opacity:1;stroke:none;display:inline"
       id="path6035"
       d="m -19.060241,4.2771084 1.124072,0 0,1 -1.124072,0 0,-1 z" />
    <path
       inkscape:connector-curvature="0"
       style="fill:#89adc2;fill-opacity:1;stroke:none;display:inline"
       id="path6033"
       d="m -17.783052,4.2771084 1.060612,0 0,1 -1.060612,0 0,-1 z" />
    <path
       inkscape:connector-curvature="0"
       style="fill:#89adc2;fill-opacity:1;stroke:none;display:inline"
       id="path6031"
       d="m -16.569323,4.2771084 0.933684,0 0,1 -0.933684,0 0,-1 z" />
    <path
       inkscape:connector-curvature="0"
       style="fill:#89adc2;fill-opacity:1;stroke:none;display:inline"
       id="path6029"
       d="m -15.482523,4.2771084 0.410114,0 0,1 -0.410114,0 0,-1 z" />
    <path
       inkscape:connector-curvature="0"
       style="fill:#89adc2;fill-opacity:1;stroke:none;display:inline"
       id="path6027"
       d="m -14.919287,4.2771084 0.917815,0 0,1 -0.917815,0 0,-1 z" />
    <path
       inkscape:connector-curvature="0"
       style="fill:#89adc2;fill-opacity:1;stroke:none;display:inline"
       id="path6025"
       d="m -13.84835,4.2771084 2.377462,0 0,1 -2.377462,0 0,-1 z" />
    <path
       inkscape:connector-curvature="0"
       style="fill:#b78ed4;fill-opacity:1;stroke:none;display:inline"
       id="path6017"
       d="m -19.060241,10.277108 1.124072,0 0,1 -1.124072,0 0,-1 z" />
    <path
       inkscape:connector-curvature="0"
       style="fill:#d48eb3;fill-opacity:1;stroke:none;display:inline"
       id="path6015"
       d="m -17.783053,10.277108 1.060612,0 0,1 -1.060612,0 0,-1 z" />
    <path
       inkscape:connector-curvature="0"
       style="fill:#d48eb3;fill-opacity:1;stroke:none;display:inline"
       id="path6013"
       d="m -16.569324,10.277108 0.933683,0 0,1 -0.933683,0 0,-1 z" />
    <path
       inkscape:connector-curvature="0"
       style="fill:#d48eb3;fill-opacity:1;stroke:none;display:inline"
       id="path6011"
       d="m -15.482525,10.277108 0.410114,0 0,1 -0.410114,0 0,-1 z" />
    <path
       inkscape:connector-curvature="0"
       style="fill:#89adc2;fill-opacity:1;stroke:none;display:inline"
       id="path6009"
       d="m -14.919289,12.277108 0.917814,0 0,1 -0.917814,0 0,-1 z" />
    <path
       inkscape:connector-curvature="0"
       style="fill:#89adc2;fill-opacity:1;stroke:none;display:inline"
       id="path6007"
       d="m -13.848353,12.277108 2.377461,0 0,1 -2.377461,0 0,-1 z" />
    <path
       inkscape:connector-curvature="0"
       style="fill:#89adc2;fill-opacity:1;stroke:none;display:inline"
       id="path6005"
       d="m -11.317775,12.277108 1.806296,0 0,1 -1.806296,0 0,-1 z" />
    <path
       inkscape:connector-curvature="0"
       style="fill:#89adc2;fill-opacity:1;stroke:none;display:inline"
       id="path6003"
       d="m -9.358357,12.277108 0.552901,0 0,1 -0.552901,0 0,-1 z" />
    <path
       inkscape:connector-curvature="0"
       style="fill:#89adc2;fill-opacity:1;stroke:none;display:inline"
       id="path5999"
       d="m -19.060241,6.2771088 1.742834,0 0,0.9999996 -1.742834,0 0,-0.9999996 z" />
    <path
       inkscape:connector-curvature="0"
       style="fill:#89adc2;fill-opacity:1;stroke:none;display:inline"
       id="path5997"
       d="m -17.158336,6.2771088 0.838487,0 0,0.9999996 -0.838487,0 0,-0.9999996 z" />
    <path
       inkscape:connector-curvature="0"
       style="fill:#89adc2;fill-opacity:1;stroke:none;display:inline"
       id="path5995"
       d="m -16.160778,6.2771088 0.394245,0 0,0.9999996 -0.394245,0 0,-0.9999996 z" />
    <path
       inkscape:connector-curvature="0"
       style="fill:#89adc2;fill-opacity:1;stroke:none;display:inline"
       id="path5993"
       d="m -15.607461,6.2771088 0.759159,0 0,0.9999996 -0.759159,0 0,-0.9999996 z" />
    <path
       inkscape:connector-curvature="0"
       style="fill:#89adc2;fill-opacity:1;stroke:none;display:inline"
       id="path5991"
       d="m -14.689236,6.2771088 0.759159,0 0,0.9999996 -0.759159,0 0,-0.9999996 z" />
    <path
       inkscape:connector-curvature="0"
       style="fill:#89adc2;fill-opacity:1;stroke:none;display:inline"
       id="path5989"
       d="m -13.771007,6.2771088 1.219264,0 0,0.9999996 -1.219264,0 0,-0.9999996 z" />
    <path
       inkscape:connector-curvature="0"
       style="fill:#89adc2;fill-opacity:1;stroke:none;display:inline"
       id="path5987"
       d="m -12.392676,6.2771088 1.600045,0 0,0.9999996 -1.600045,0 0,-0.9999996 z" />
    <path
       inkscape:connector-curvature="0"
       style="fill:#89adc2;fill-opacity:1;stroke:none;display:inline"
       id="path5985"
       d="m -10.63356,6.2771088 1.076471,0 0,0.9999996 -1.076471,0 0,-0.9999996 z" />
    <path
       inkscape:connector-curvature="0"
       style="fill:#89adc2;fill-opacity:1;stroke:none;display:inline"
       id="path5981"
       d="m -19.060241,8.2771084 1.996685,0 0,1 -1.996685,0 0,-1 z" />
    <path
       inkscape:connector-curvature="0"
       style="fill:#89adc2;fill-opacity:1;stroke:none;display:inline"
       id="path5979"
       d="m -16.907035,8.2771084 2.139471,0 0,1 -2.139471,0 0,-1 z" />
    <path
       inkscape:connector-curvature="0"
       style="fill:#89adc2;fill-opacity:1;stroke:none;display:inline"
       id="path5977"
       d="m -14.611043,8.2771084 0.854355,0 0,1 -0.854355,0 0,-1 z" />
    <path
       inkscape:connector-curvature="0"
       style="opacity:0.7;fill:#666666;fill-opacity:1;stroke:none;display:inline"
       id="path5965"
       d="m -19.060241,16.277108 1.996686,0 0,1 -1.996686,0 0,-1 z" />
    <path
       inkscape:connector-curvature="0"
       style="opacity:0.7;fill:#666666;fill-opacity:1;stroke:none;display:inline"
       id="path5963"
       d="m -16.907035,16.277108 2.139473,0 0,1 -2.139473,0 0,-1 z" />
    <path
       inkscape:connector-curvature="0"
       style="fill:#d48eb3;fill-opacity:1;stroke:none;display:inline"
       id="path5961"
       d="m -14.611041,16.277108 0.854355,0 0,1 -0.854355,0 0,-1 z" />
    <path
       inkscape:connector-curvature="0"
       style="fill:#d48eb3;fill-opacity:1;stroke:none;display:inline"
       id="path5959"
       d="m -13.600165,16.277108 2.012549,0 0,1 -2.012549,0 0,-1 z" />
    <path
       inkscape:connector-curvature="0"
       style="fill:#d48eb3;fill-opacity:1;stroke:none;display:inline"
       id="path5957"
       d="m -9.896655,16.277108 0.537037,0 0,1 -0.537037,0 0,-1 z" />
    <path
       inkscape:connector-curvature="0"
       style="fill:#d48eb3;fill-opacity:1;stroke:none;display:inline"
       id="path5955"
       d="m -11.431095,16.277108 1.377919,0 0,1 -1.377919,0 0,-1 z" />
    <path
       inkscape:connector-curvature="0"
       style="fill:#d48eb3;fill-opacity:1;stroke:none;display:inline"
       id="path5953"
       d="m -9.203097,16.277108 0.314918,0 0,1 -0.314918,0 0,-1 z" />
    <path
       inkscape:connector-curvature="0"
       style="fill:#d48eb3;fill-opacity:1;stroke:none;display:inline"
       id="path5951"
       d="m -8.731658,16.277108 0.854355,0 0,1 -0.854355,0 0,-1 z" />
    <path
       inkscape:connector-curvature="0"
       style="fill:#b78ed4;fill-opacity:1;stroke:none;display:inline"
       id="path5949"
       d="m -19.060241,12.277108 1.441384,0 0,1 -1.441384,0 0,-1 z" />
    <path
       inkscape:connector-curvature="0"
       style="fill:#d48eb3;fill-opacity:1;stroke:none;display:inline"
       id="path5947"
       d="m -17.465735,12.277108 2.393326,0 0,1 -2.393326,0 0,-1 z" />
    <path
       inkscape:connector-curvature="0"
       style="fill:#94d48e;fill-opacity:1;stroke:none;display:inline"
       id="path5935"
       d="m -19.060241,14.277108 1.806297,0 0,1 -1.806297,0 0,-1 z" />
    <path
       inkscape:connector-curvature="0"
       style="fill:#94d48e;fill-opacity:1;stroke:none;display:inline"
       id="path5933"
       d="m -17.104791,14.277108 0.56877,0 0,1 -0.56877,0 0,-1 z" />
    <path
       inkscape:connector-curvature="0"
       style="opacity:0.7;fill:#666666;fill-opacity:1;stroke:none;display:inline"
       id="path5931"
       d="m -16.386869,14.277108 1.298596,0 0,1 -1.298596,0 0,-1 z" />
    <path
       inkscape:connector-curvature="0"
       style="opacity:0.7;fill:#666666;fill-opacity:1;stroke:none;display:inline"
       id="path5929"
       d="m -14.939121,14.277108 0.886087,0 0,1 -0.886087,0 0,-1 z" />
    <path
       inkscape:connector-curvature="0"
       style="fill:#89adc2;fill-opacity:1;stroke:none;display:inline"
       id="path5921"
       d="m -11.020289,14.277108 1.663505,0 0,1 -1.663505,0 0,-1 z" />
    <path
       inkscape:connector-curvature="0"
       style="fill:#89adc2;fill-opacity:1;stroke:none;display:inline"
       id="path5919"
       d="m -9.207632,14.277108 0.886087,0 0,1 -0.886087,0 0,-1 z" />
    <path
       inkscape:connector-curvature="0"
       style="fill:#de6161;fill-opacity:1;stroke:none;display:inline"
       id="path5917"
       d="m -19.060241,18.277108 1.48749,0 0,1 -1.48749,0 0,-1 z" />
    <path
       inkscape:connector-curvature="0"
       style="opacity:0.7;fill:#666666;fill-opacity:1;stroke:none;display:inline"
       id="path5915"
       d="m -17.333827,18.277108 2.647178,0 0,1 -2.647178,0 0,-1 z" />
    <path
       inkscape:connector-curvature="0"
       style="fill:#89adc2;fill-opacity:1;stroke:none;display:inline"
       id="path6838"
       d="m -8.32353,18.277108 -0.727427,0 0,1 0.727427,0 0,-1 z" />
    <path
       inkscape:connector-curvature="0"
       style="fill:#89adc2;fill-opacity:1;stroke:none;display:inline"
       id="path6840"
       d="m -9.23921,18.277108 -2.647178,0 0,1 2.647178,0 0,-1 z" />
  </g>
</svg>
