<?xml version="1.0" encoding="UTF-8" standalone="no"?>
<svg
   xmlns:dc="http://purl.org/dc/elements/1.1/"
   xmlns:cc="http://creativecommons.org/ns#"
   xmlns:rdf="http://www.w3.org/1999/02/22-rdf-syntax-ns#"
   xmlns:svg="http://www.w3.org/2000/svg"
   xmlns="http://www.w3.org/2000/svg"
   xmlns:xlink="http://www.w3.org/1999/xlink"
   id="svg3828"
   height="22"
   width="22"
   version="1.1">
  <defs
     id="defs3830">
    <linearGradient
       gradientTransform="matrix(0.40540511,0,0,0.51351351,1.2696879,-1.3243127)"
       gradientUnits="userSpaceOnUse"
       xlink:href="#linearGradient3977"
       id="linearGradient3119"
       y2="43"
       x2="23.99999"
       y1="5.5641499"
       x1="23.99999" />
    <linearGradient
       id="linearGradient3977">
      <stop
         offset="0"
         style="stop-color:#ffffff;stop-opacity:1"
         id="stop3979" />
      <stop
         offset="0.03626217"
         style="stop-color:#ffffff;stop-opacity:0.23529412"
         id="stop3981" />
      <stop
         offset="0.95056331"
         style="stop-color:#ffffff;stop-opacity:0.15686275"
         id="stop3983" />
      <stop
         offset="1"
         style="stop-color:#ffffff;stop-opacity:0.39215687"
         id="stop3985" />
    </linearGradient>
    <linearGradient
       gradientTransform="matrix(0.48571543,0,0,0.45629666,-0.65717,-0.65113162)"
       gradientUnits="userSpaceOnUse"
       xlink:href="#linearGradient3600-4"
       id="linearGradient3122"
       y2="47.013336"
       x2="25.132275"
       y1="0.98520643"
       x1="25.132275" />
    <linearGradient
       id="linearGradient3600-4">
      <stop
         offset="0"
         style="stop-color:#f4f4f4;stop-opacity:1"
         id="stop3602-7" />
      <stop
         offset="1"
         style="stop-color:#dbdbdb;stop-opacity:1"
         id="stop3604-6" />
    </linearGradient>
    <linearGradient
       gradientTransform="matrix(0.39221364,0,0,0.42702571,28.199297,-1.1596645)"
       gradientUnits="userSpaceOnUse"
       xlink:href="#linearGradient3104-5"
       id="linearGradient3124"
       y2="2.9062471"
       x2="-51.786404"
       y1="50.786446"
       x1="-51.786404" />
    <linearGradient
       id="linearGradient3104-5">
      <stop
         offset="0"
         style="stop-color:#a0a0a0;stop-opacity:1"
         id="stop3106-6" />
      <stop
         offset="1"
         style="stop-color:#bebebe;stop-opacity:1"
         id="stop3108-9" />
    </linearGradient>
  </defs>
  <metadata
     id="metadata3833">
    <rdf:RDF>
      <cc:Work
         rdf:about="">
        <dc:format>image/svg+xml</dc:format>
        <dc:type
           rdf:resource="http://purl.org/dc/dcmitype/StillImage" />
        <dc:title />
      </cc:Work>
    </rdf:RDF>
  </metadata>
  <path
     d="m 2.4999609,0.49996346 c 3.8955809,0 17.0000591,0.00136 17.0000591,0.00136 l 2.1e-5,20.99871554 c 0,0 -11.3333864,0 -17.0000801,0 0,-7.000018 0,-14.0000342 0,-21.00005324 z"
     id="path4160-3"
     style="fill:url(#linearGradient3122);fill-opacity:1;stroke:url(#linearGradient3124);stroke-width:0.99992186;stroke-linecap:butt;stroke-linejoin:round;stroke-miterlimit:4;stroke-opacity:1;stroke-dasharray:none;stroke-dashoffset:0;display:inline" />
  <path
     d="m 18.500001,20.500006 -15.0000006,0 0,-18.9999993 15.0000006,0 z"
     id="rect6741-1"
     style="fill:none;stroke:url(#linearGradient3119);stroke-width:1;stroke-linecap:round;stroke-linejoin:miter;stroke-miterlimit:4;stroke-opacity:1;stroke-dasharray:none;stroke-dashoffset:0" />
  <path
     style="font-size:72px;font-style:normal;font-weight:bold;opacity:0.6;fill:#000000;fill-opacity:1;stroke:none;font-family:Standard Symbols L"
     id="path9053"
     d="m 11.455219,13.98178 c -0.03304,-1.179381 0.231187,-2.324308 1.345435,-3.135304 1.17693,-0.9171832 2.310408,-2.0647073 2.190623,-3.4173767 C 14.965127,6.1245718 13.445156,5.1023322 11.807503,4.9553528 9.96541,4.7001598 7.7364901,5.3312206 7.1192171,6.7698236 c -0.313067,0.6996878 -0.02275,1.9550081 1.027897,1.9550081 0.614526,0 0.8967807,-0.396967 0.9431507,-0.7600983 C 9.1253448,7.6899764 9.0125448,7.444621 8.9459331,7.2176697 8.8700331,6.9590733 9.194058,6.4578869 9.546974,6.2536838 9.841875,6.0830472 10.150417,6.0258299 10.195897,6.0148993 c 1.059073,-0.2545227 2.114816,0.3076836 2.55529,0.9919565 0.440475,0.684273 -0.04435,1.7221829 -0.741427,2.731511 -0.697074,1.0093272 -1.445158,2.1557172 -1.44217,3.3733712 0,0.463561 -0.0413,0.621043 -0.01196,0.808589 0.02345,0.149843 0.519613,0.131735 0.899585,0.06145 z m -0.483327,1.587384 c -1.012642,-0.05497 -1.713529,1.092998 -1.105185,1.824413 0.543281,0.807553 2.066513,0.608202 2.327595,-0.306271 0.27143,-0.711121 -0.381772,-1.530013 -1.22241,-1.518143 l 0,1e-6 z" />
  <path
     style="font-size:72px;font-style:normal;font-weight:bold;opacity:0.4;fill:#ffffff;fill-opacity:1;stroke:none;font-family:Standard Symbols L"
     id="path3298"
     d="m 11.455219,14.48178 c -0.03304,-1.179381 0.231187,-2.324309 1.345435,-3.135304 1.17693,-0.917184 2.310408,-2.0647062 2.190623,-3.4173781 C 14.965127,6.6245704 13.445156,5.6023318 11.807503,5.4553515 9.96541,5.2001584 7.7364901,5.8312192 7.1192171,7.2698222 c -0.313067,0.6996879 -0.02275,1.9550116 1.027897,1.9550116 0.614526,0 0.8967807,-0.3969681 0.9431507,-0.7601021 0.03508,-0.274757 -0.07772,-0.5201112 -0.1443317,-0.7470634 -0.0759,-0.2585954 0.2481249,-0.7597828 0.6010409,-0.9639849 0.294901,-0.1706376 0.603443,-0.2278539 0.648923,-0.2387846 1.059073,-0.2545226 2.114816,0.3076828 2.55529,0.9919566 0.440475,0.6842733 -0.04435,1.7221854 -0.741427,2.7315136 -0.697074,1.009325 -1.445158,2.155715 -1.44217,3.373368 0,0.463562 -0.0413,0.621044 -0.01196,0.80859 0.02345,0.149844 0.519613,0.131735 0.899585,0.06145 z m -0.483327,1.587383 c -1.012642,-0.05497 -1.713529,1.093 -1.105185,1.824413 0.543281,0.807554 2.066513,0.608204 2.327595,-0.306271 0.27143,-0.71112 -0.381772,-1.530012 -1.22241,-1.518142 l 0,0 z" />
</svg>
