<?xml version="1.0" encoding="UTF-8" standalone="no"?>
<!-- Created with Inkscape (http://www.inkscape.org/) -->

<svg
   xmlns:dc="http://purl.org/dc/elements/1.1/"
   xmlns:cc="http://creativecommons.org/ns#"
   xmlns:rdf="http://www.w3.org/1999/02/22-rdf-syntax-ns#"
   xmlns:svg="http://www.w3.org/2000/svg"
   xmlns="http://www.w3.org/2000/svg"
   xmlns:xlink="http://www.w3.org/1999/xlink"
   xmlns:sodipodi="http://sodipodi.sourceforge.net/DTD/sodipodi-0.dtd"
   xmlns:inkscape="http://www.inkscape.org/namespaces/inkscape"
   width="22"
   height="22"
   id="svg3231"
   version="1.1"
   inkscape:version="0.48.3.1 r9886"
   sodipodi:docname="video-x-generic.svg"
   inkscape:export-filename="/home/daniel/Projects/4.0/WIP/mimes/video-x-generic/48/video-x-generic.png"
   inkscape:export-xdpi="90"
   inkscape:export-ydpi="90">
  <defs
     id="defs3233">
    <linearGradient
       inkscape:collect="always"
       xlink:href="#linearGradient8265-821-176-38-919-66-249-7-7-7"
       id="linearGradient3182"
       gradientUnits="userSpaceOnUse"
       gradientTransform="matrix(0.39078016,0,0,0.54218065,2.6029956,23.90295)"
       x1="16.626165"
       y1="15.298182"
       x2="20.054544"
       y2="24.627615" />
    <linearGradient
       id="linearGradient8265-821-176-38-919-66-249-7-7-7">
      <stop
         id="stop2687-1-9-8"
         style="stop-color:#ffffff;stop-opacity:1"
         offset="0" />
      <stop
         id="stop2689-5-4-6"
         style="stop-color:#ffffff;stop-opacity:0"
         offset="1" />
    </linearGradient>
    <linearGradient
       id="linearGradient3707-319-631-407-324-616-674-812-821-107-178-392-400-7-3-5">
      <stop
         id="stop5440-9-8-4"
         style="stop-color:#272727;stop-opacity:1;"
         offset="0" />
      <stop
         id="stop5442-0-9-2"
         style="stop-color:#454545;stop-opacity:1;"
         offset="1" />
    </linearGradient>
    <linearGradient
       inkscape:collect="always"
       xlink:href="#linearGradient4640"
       id="linearGradient3185"
       gradientUnits="userSpaceOnUse"
       gradientTransform="matrix(1.1081081,0,0,1,25.140651,0.82827475)"
       x1="23.99999"
       y1="4.999989"
       x2="23.99999"
       y2="43" />
    <linearGradient
       id="linearGradient4640">
      <stop
         id="stop4642"
         style="stop-color:#ffffff;stop-opacity:1;"
         offset="0" />
      <stop
         offset="0.0310698"
         style="stop-color:#ffffff;stop-opacity:0.23529412;"
         id="stop4644" />
      <stop
         id="stop4646"
         style="stop-color:#ffffff;stop-opacity:0.15686275;"
         offset="0.97119564" />
      <stop
         id="stop4648"
         style="stop-color:#ffffff;stop-opacity:0.39215687;"
         offset="1" />
    </linearGradient>
    <radialGradient
       inkscape:collect="always"
       xlink:href="#linearGradient2867-449-88-871-390-598-476-591-434-148-57-177-641-289-620-227-114-444-680-744-921-551"
       id="radialGradient4152-74-497"
       gradientUnits="userSpaceOnUse"
       gradientTransform="matrix(0,1.1385336,-1.2044327,-2.0976134e-8,22.17723,-5.750287)"
       cx="7.4956832"
       cy="8.4497671"
       fx="7.4956832"
       fy="8.4497671"
       r="19.99999" />
    <linearGradient
       id="linearGradient2867-449-88-871-390-598-476-591-434-148-57-177-641-289-620-227-114-444-680-744-921-551">
      <stop
         id="stop4445"
         style="stop-color:#4d4d4d;stop-opacity:1;"
         offset="0" />
      <stop
         id="stop4447"
         style="stop-color:#404040;stop-opacity:1;"
         offset="0.26238" />
      <stop
         id="stop4449"
         style="stop-color:#303030;stop-opacity:1;"
         offset="0.704952" />
      <stop
         id="stop4451"
         style="stop-color:#232323;stop-opacity:1;"
         offset="1" />
    </linearGradient>
    <linearGradient
       inkscape:collect="always"
       xlink:href="#linearGradient3707-319-631-407-324-616-674-812-821-107-178-392-400-671-944"
       id="linearGradient4154-375-947"
       gradientUnits="userSpaceOnUse"
       gradientTransform="matrix(0.48717948,0,0,0.48717949,0.30769254,0.307692)"
       x1="24"
       y1="44"
       x2="24"
       y2="3.8990016" />
    <linearGradient
       id="linearGradient3707-319-631-407-324-616-674-812-821-107-178-392-400-671-944">
      <stop
         id="stop4455"
         style="stop-color:#202020;stop-opacity:1;"
         offset="0" />
      <stop
         id="stop4457"
         style="stop-color:#383838;stop-opacity:1;"
         offset="1" />
    </linearGradient>
    <radialGradient
       inkscape:collect="always"
       xlink:href="#linearGradient3688-166-749-2-324"
       id="radialGradient3209"
       gradientUnits="userSpaceOnUse"
       gradientTransform="matrix(2.003784,0,0,0.80000003,32.98813,9.1999985)"
       cx="4.9929786"
       cy="43.5"
       fx="4.9929786"
       fy="43.5"
       r="2.5" />
    <linearGradient
       id="linearGradient3688-166-749-2-324">
      <stop
         offset="0"
         style="stop-color:#181818;stop-opacity:1"
         id="stop3216" />
      <stop
         offset="1"
         style="stop-color:#181818;stop-opacity:0"
         id="stop3218" />
    </linearGradient>
    <radialGradient
       inkscape:collect="always"
       xlink:href="#linearGradient3688-464-309-8-331"
       id="radialGradient3206"
       gradientUnits="userSpaceOnUse"
       gradientTransform="matrix(2.003784,0,0,0.80000003,-15.011861,-78.800001)"
       cx="4.9929786"
       cy="43.5"
       fx="4.9929786"
       fy="43.5"
       r="2.5" />
    <linearGradient
       id="linearGradient3688-464-309-8-331">
      <stop
         offset="0"
         style="stop-color:#181818;stop-opacity:1"
         id="stop3222" />
      <stop
         offset="1"
         style="stop-color:#181818;stop-opacity:0"
         id="stop3224" />
    </linearGradient>
    <linearGradient
       id="linearGradient3702-501-757-6-946">
      <stop
         offset="0"
         style="stop-color:#181818;stop-opacity:0"
         id="stop3228" />
      <stop
         offset="0.5"
         style="stop-color:#181818;stop-opacity:1"
         id="stop3230" />
      <stop
         offset="1"
         style="stop-color:#181818;stop-opacity:0"
         id="stop3232" />
    </linearGradient>
    <linearGradient
       y2="39.999443"
       x2="25.058096"
       y1="47.027729"
       x1="25.058096"
       gradientTransform="matrix(1.3571428,0,0,0.57142859,-8.571428,19.142856)"
       gradientUnits="userSpaceOnUse"
       id="linearGradient3229"
       xlink:href="#linearGradient3702-501-757-6-946"
       inkscape:collect="always" />
    <linearGradient
       inkscape:collect="always"
       id="linearGradient3798-44-1">
      <stop
         style="stop-color:#ffffff;stop-opacity:1;"
         offset="0"
         id="stop3800-9-4" />
      <stop
         style="stop-color:#ffffff;stop-opacity:0;"
         offset="1"
         id="stop3802-93-6" />
    </linearGradient>
    <linearGradient
       y2="12.118899"
       x2="6.1911855"
       y1="13.900338"
       x1="6.1911855"
       gradientTransform="translate(35,0)"
       gradientUnits="userSpaceOnUse"
       id="linearGradient3889-9"
       xlink:href="#linearGradient3798-44-1"
       inkscape:collect="always" />
    <linearGradient
       y2="12.118899"
       x2="6.1911855"
       y1="13.900338"
       x1="6.1911855"
       gradientTransform="matrix(0.48780584,0,0,0.42857782,-4.219534,37.071338)"
       gradientUnits="userSpaceOnUse"
       id="linearGradient3889-9-8"
       xlink:href="#linearGradient3798-44-1-9"
       inkscape:collect="always" />
    <linearGradient
       inkscape:collect="always"
       id="linearGradient3798-44-1-9">
      <stop
         style="stop-color:#ffffff;stop-opacity:1;"
         offset="0"
         id="stop3800-9-4-2" />
      <stop
         style="stop-color:#ffffff;stop-opacity:0;"
         offset="1"
         id="stop3802-93-6-8" />
    </linearGradient>
    <linearGradient
       inkscape:collect="always"
       xlink:href="#linearGradient3707-319-631-407-324-616-674-812-821-107-178-392-400-7-3-5"
       id="linearGradient3044"
       gradientUnits="userSpaceOnUse"
       gradientTransform="matrix(0.42132707,0,0,0.42413289,-33.192592,77.209636)"
       x1="149.98465"
       y1="-104.23534"
       x2="149.98465"
       y2="-174.9679" />
    <linearGradient
       y2="3.8904724"
       x2="24"
       y1="44"
       x1="24"
       gradientTransform="matrix(0.48717949,0,0,0.48717947,0.30769178,0.3076912)"
       gradientUnits="userSpaceOnUse"
       id="linearGradient3105"
       xlink:href="#linearGradient3104-0-8"
       inkscape:collect="always" />
    <linearGradient
       y2="44.98436"
       x2="19.360001"
       y1="16.949547"
       x1="19.360001"
       gradientTransform="matrix(0.48717949,0,0,0.48717947,0.30769178,-0.1636246)"
       gradientUnits="userSpaceOnUse"
       id="linearGradient3103"
       xlink:href="#linearGradient3600-74-0"
       inkscape:collect="always" />
    <linearGradient
       y2="3.8990016"
       x2="24"
       y1="43.670246"
       x1="24"
       gradientTransform="matrix(0.48722277,0,0,0.45325777,0.307498,0.4597458)"
       gradientUnits="userSpaceOnUse"
       id="linearGradient3100"
       xlink:href="#linearGradient2490"
       inkscape:collect="always" />
    <radialGradient
       r="19.99999"
       fy="7.5651746"
       fx="3.3054423"
       cy="7.5651746"
       cx="3.3054423"
       gradientTransform="matrix(0,0.87438314,-1.1522965,-3.5163214e-8,20.110207,-0.8665462)"
       gradientUnits="userSpaceOnUse"
       id="radialGradient3098"
       xlink:href="#linearGradient3357"
       inkscape:collect="always" />
    <linearGradient
       y2="43"
       x2="23.99999"
       y1="4.999989"
       x1="23.99999"
       gradientTransform="matrix(0.45945947,0,0,0.43243245,0.9742203,2.120381)"
       gradientUnits="userSpaceOnUse"
       id="linearGradient3093"
       xlink:href="#linearGradient3924-742"
       inkscape:collect="always" />
    <radialGradient
       r="2"
       fy="4.9179006"
       fx="14"
       cy="4.9179006"
       cx="14"
       spreadMethod="reflect"
       gradientTransform="matrix(0.72748776,-1.3215675e-8,2.4999998e-8,1.1373416,-3.1848286,-3.9194937)"
       gradientUnits="userSpaceOnUse"
       id="radialGradient3088"
       xlink:href="#linearGradient3520"
       inkscape:collect="always" />
    <radialGradient
       r="2"
       fy="4.9179006"
       fx="14"
       cy="4.9179006"
       cx="14"
       spreadMethod="reflect"
       gradientTransform="matrix(0.72748776,-1.3215675e-8,2.4999998e-8,1.1373416,6.8151714,-3.9194937)"
       gradientUnits="userSpaceOnUse"
       id="radialGradient3083"
       xlink:href="#linearGradient3520-4"
       inkscape:collect="always" />
    <linearGradient
       y2="19.963179"
       x2="23.954144"
       y1="15.999304"
       x1="23.954144"
       gradientTransform="matrix(0.5,0,0,0.5,2.2961826e-6,-4.3e-6)"
       gradientUnits="userSpaceOnUse"
       id="linearGradient3080"
       xlink:href="#linearGradient3510"
       inkscape:collect="always" />
    <linearGradient
       id="linearGradient3520-4">
      <stop
         offset="0"
         style="stop-color:#ffffff;stop-opacity:1"
         id="stop3522-8" />
      <stop
         offset="1"
         style="stop-color:#8f8f8f;stop-opacity:1"
         id="stop3524-5" />
    </linearGradient>
    <linearGradient
       id="linearGradient3104-0-8">
      <stop
         offset="0"
         style="stop-color:#787878;stop-opacity:1"
         id="stop3106-6-1" />
      <stop
         offset="1"
         style="stop-color:#aaaaaa;stop-opacity:1"
         id="stop3108-0-6" />
    </linearGradient>
    <linearGradient
       id="linearGradient3600-74-0">
      <stop
         offset="0"
         style="stop-color:#f4f4f4;stop-opacity:1"
         id="stop3602-9-4" />
      <stop
         offset="1"
         style="stop-color:#dbdbdb;stop-opacity:1"
         id="stop3604-1-8" />
    </linearGradient>
    <linearGradient
       id="linearGradient3510">
      <stop
         offset="0"
         style="stop-color:#000000;stop-opacity:1"
         id="stop3512" />
      <stop
         offset="1"
         style="stop-color:#000000;stop-opacity:0"
         id="stop3514" />
    </linearGradient>
    <linearGradient
       id="linearGradient3520">
      <stop
         offset="0"
         style="stop-color:#ffffff;stop-opacity:1"
         id="stop3522" />
      <stop
         offset="1"
         style="stop-color:#8f8f8f;stop-opacity:1"
         id="stop3524" />
    </linearGradient>
    <linearGradient
       id="linearGradient3357">
      <stop
         offset="0"
         style="stop-color:#f89b7e;stop-opacity:1"
         id="stop3359" />
      <stop
         offset="0.39678687"
         style="stop-color:#e35d4f;stop-opacity:1"
         id="stop3361" />
      <stop
         offset="1"
         style="stop-color:#c6262e;stop-opacity:1"
         id="stop3363" />
    </linearGradient>
    <linearGradient
       id="linearGradient2490">
      <stop
         offset="0"
         style="stop-color:#791235;stop-opacity:1"
         id="stop2492" />
      <stop
         offset="1"
         style="stop-color:#dd3b27;stop-opacity:1"
         id="stop2494" />
    </linearGradient>
    <linearGradient
       id="linearGradient3702-501-757-979">
      <stop
         offset="0"
         style="stop-color:#181818;stop-opacity:0"
         id="stop3091" />
      <stop
         offset="0.5"
         style="stop-color:#181818;stop-opacity:1"
         id="stop3093" />
      <stop
         offset="1"
         style="stop-color:#181818;stop-opacity:0"
         id="stop3095" />
    </linearGradient>
    <linearGradient
       gradientUnits="userSpaceOnUse"
       xlink:href="#linearGradient3702-501-757-979"
       id="linearGradient3086-631"
       y2="39.999443"
       x2="25.058096"
       y1="47.027729"
       x1="25.058096" />
    <linearGradient
       id="linearGradient3688-464-309-276">
      <stop
         offset="0"
         style="stop-color:#181818;stop-opacity:1"
         id="stop3085" />
      <stop
         offset="1"
         style="stop-color:#181818;stop-opacity:0"
         id="stop3087" />
    </linearGradient>
    <radialGradient
       gradientTransform="matrix(2.003784,0,0,1.4,-20.01187,-104.4)"
       gradientUnits="userSpaceOnUse"
       xlink:href="#linearGradient3688-464-309-276"
       id="radialGradient3084-992"
       fy="43.5"
       fx="4.9929786"
       r="2.5"
       cy="43.5"
       cx="4.9929786" />
    <linearGradient
       id="linearGradient3688-166-749-49">
      <stop
         offset="0"
         style="stop-color:#181818;stop-opacity:1"
         id="stop3079" />
      <stop
         offset="1"
         style="stop-color:#181818;stop-opacity:0"
         id="stop3081" />
    </linearGradient>
    <radialGradient
       gradientTransform="matrix(2.003784,0,0,1.4,27.98813,-17.4)"
       gradientUnits="userSpaceOnUse"
       xlink:href="#linearGradient3688-166-749-49"
       id="radialGradient3082-993"
       fy="43.5"
       fx="4.9929786"
       r="2.5"
       cy="43.5"
       cx="4.9929786" />
    <linearGradient
       id="linearGradient3924-742">
      <stop
         offset="0"
         style="stop-color:#ffffff;stop-opacity:1"
         id="stop3115" />
      <stop
         offset="0.06316455"
         style="stop-color:#ffffff;stop-opacity:0.23529412"
         id="stop3117" />
      <stop
         offset="0.95056331"
         style="stop-color:#ffffff;stop-opacity:0.15686275"
         id="stop3119" />
      <stop
         offset="1"
         style="stop-color:#ffffff;stop-opacity:0.39215687"
         id="stop3121" />
    </linearGradient>
    <linearGradient
       inkscape:collect="always"
       xlink:href="#linearGradient3510"
       id="linearGradient3202"
       gradientUnits="userSpaceOnUse"
       gradientTransform="matrix(0.5,0,0,0.5,-24.872129,51.19366)"
       x1="23.954144"
       y1="15.999304"
       x2="23.954144"
       y2="19.963179" />
    <radialGradient
       inkscape:collect="always"
       xlink:href="#linearGradient3520-4"
       id="radialGradient3205"
       gradientUnits="userSpaceOnUse"
       gradientTransform="matrix(0.72748776,-1.3215675e-8,2.4999998e-8,1.1373416,-18.05696,47.27417)"
       spreadMethod="reflect"
       cx="14"
       cy="4.9179006"
       fx="14"
       fy="4.9179006"
       r="2" />
    <radialGradient
       inkscape:collect="always"
       xlink:href="#linearGradient3520"
       id="radialGradient3210"
       gradientUnits="userSpaceOnUse"
       gradientTransform="matrix(0.72748776,-1.3215675e-8,2.4999998e-8,1.1373416,-28.05696,47.27417)"
       spreadMethod="reflect"
       cx="14"
       cy="4.9179006"
       fx="14"
       fy="4.9179006"
       r="2" />
    <linearGradient
       inkscape:collect="always"
       xlink:href="#linearGradient3924-742"
       id="linearGradient3215"
       gradientUnits="userSpaceOnUse"
       gradientTransform="matrix(0.45945947,0,0,0.43243245,-23.897911,53.314045)"
       x1="23.99999"
       y1="4.999989"
       x2="23.99999"
       y2="43" />
    <radialGradient
       inkscape:collect="always"
       xlink:href="#linearGradient3357"
       id="radialGradient3220"
       gradientUnits="userSpaceOnUse"
       gradientTransform="matrix(0,0.87438314,-1.1522965,-3.5163214e-8,-4.761924,50.327118)"
       cx="3.3054423"
       cy="7.5651746"
       fx="3.3054423"
       fy="7.5651746"
       r="19.99999" />
    <linearGradient
       inkscape:collect="always"
       xlink:href="#linearGradient2490"
       id="linearGradient3222"
       gradientUnits="userSpaceOnUse"
       gradientTransform="matrix(0.48722277,0,0,0.45325777,-24.564633,51.65341)"
       x1="24"
       y1="43.670246"
       x2="24"
       y2="3.8990016" />
    <linearGradient
       inkscape:collect="always"
       xlink:href="#linearGradient3600-74-0"
       id="linearGradient3225"
       gradientUnits="userSpaceOnUse"
       gradientTransform="matrix(0.48717949,0,0,0.48717947,-9.1923077,55.336374)"
       x1="19.360001"
       y1="16.949547"
       x2="19.360001"
       y2="44.98436" />
    <linearGradient
       inkscape:collect="always"
       xlink:href="#linearGradient3104-0-8"
       id="linearGradient3227"
       gradientUnits="userSpaceOnUse"
       gradientTransform="matrix(0.48717949,0,0,0.48717947,-9.1923077,55.80769)"
       x1="24"
       y1="44"
       x2="24"
       y2="3.8904724" />
    <radialGradient
       inkscape:collect="always"
       xlink:href="#linearGradient3688-166-749-49"
       id="radialGradient3234"
       gradientUnits="userSpaceOnUse"
       gradientTransform="matrix(2.003784,0,0,1.4,27.98813,-17.4)"
       cx="4.9929786"
       cy="43.5"
       fx="4.9929786"
       fy="43.5"
       r="2.5" />
    <radialGradient
       inkscape:collect="always"
       xlink:href="#linearGradient3688-464-309-276"
       id="radialGradient3236"
       gradientUnits="userSpaceOnUse"
       gradientTransform="matrix(2.003784,0,0,1.4,-20.01187,-104.4)"
       cx="4.9929786"
       cy="43.5"
       fx="4.9929786"
       fy="43.5"
       r="2.5" />
    <linearGradient
       inkscape:collect="always"
       xlink:href="#linearGradient3702-501-757-979"
       id="linearGradient3238"
       gradientUnits="userSpaceOnUse"
       x1="25.058096"
       y1="47.027729"
       x2="25.058096"
       y2="39.999443" />
    <linearGradient
       inkscape:collect="always"
       xlink:href="#linearGradient3798-44-1-9"
       id="linearGradient4039"
       gradientUnits="userSpaceOnUse"
       gradientTransform="matrix(0.48717948,0,0,0.48717949,0.307693,38.307692)"
       x1="24"
       y1="44"
       x2="24"
       y2="3.8990016" />
    <linearGradient
       inkscape:collect="always"
       xlink:href="#linearGradient3798-44-1-9"
       id="linearGradient3101"
       gradientUnits="userSpaceOnUse"
       gradientTransform="matrix(0.48717948,0,0,0.48717949,0.307693,38.307692)"
       x1="24"
       y1="44"
       x2="24"
       y2="3.8990016" />
    <linearGradient
       inkscape:collect="always"
       xlink:href="#linearGradient8265-821-176-38-919-66-249-7-7-7"
       id="linearGradient3109"
       gradientUnits="userSpaceOnUse"
       gradientTransform="matrix(0.39078016,0,0,0.54218065,2.6029956,23.90295)"
       x1="16.626165"
       y1="15.298182"
       x2="20.054544"
       y2="24.627615" />
    <radialGradient
       inkscape:collect="always"
       xlink:href="#linearGradient2867-449-88-871-390-598-476-591-434-148-57-177-641-289-620-227-114-444-680-744-921-551"
       id="radialGradient3115"
       gradientUnits="userSpaceOnUse"
       gradientTransform="matrix(0,1.1385336,-1.2044327,-2.0976134e-8,22.17723,18.249713)"
       cx="7.4956832"
       cy="8.4497671"
       fx="7.4956832"
       fy="8.4497671"
       r="19.99999" />
    <linearGradient
       inkscape:collect="always"
       xlink:href="#linearGradient3707-319-631-407-324-616-674-812-821-107-178-392-400-671-944"
       id="linearGradient3117"
       gradientUnits="userSpaceOnUse"
       gradientTransform="matrix(0.48717948,0,0,0.48717949,0.30769254,24.307692)"
       x1="24"
       y1="44"
       x2="24"
       y2="3.8990016" />
    <linearGradient
       inkscape:collect="always"
       xlink:href="#linearGradient3707-319-631-407-324-616-674-812-821-107-178-392-400-7-3-5"
       id="linearGradient3119"
       gradientUnits="userSpaceOnUse"
       gradientTransform="matrix(0.42132707,0,0,0.42413289,-33.192592,77.209636)"
       x1="149.98465"
       y1="-104.23534"
       x2="149.98465"
       y2="-174.9679" />
    <linearGradient
       inkscape:collect="always"
       xlink:href="#linearGradient3798-44-1-9"
       id="linearGradient3106"
       gradientUnits="userSpaceOnUse"
       gradientTransform="matrix(0.48717948,0,0,0.48717949,-0.5870406,38.807692)"
       x1="24"
       y1="44"
       x2="24"
       y2="3.8990016" />
    <linearGradient
       inkscape:collect="always"
       xlink:href="#linearGradient8265-821-176-38-919-66-249-7-7-7"
       id="linearGradient3114"
       gradientUnits="userSpaceOnUse"
       gradientTransform="matrix(0.39078016,0,0,0.54218065,1.708262,24.40295)"
       x1="16.626165"
       y1="15.298182"
       x2="20.054544"
       y2="24.627615" />
    <radialGradient
       inkscape:collect="always"
       xlink:href="#linearGradient2867-449-88-871-390-598-476-591-434-148-57-177-641-289-620-227-114-444-680-744-921-551"
       id="radialGradient3120"
       gradientUnits="userSpaceOnUse"
       gradientTransform="matrix(0,1.1385336,-1.2044327,-2.0976134e-8,21.282496,18.749713)"
       cx="7.4956832"
       cy="8.4497671"
       fx="7.4956832"
       fy="8.4497671"
       r="19.99999" />
    <linearGradient
       inkscape:collect="always"
       xlink:href="#linearGradient3707-319-631-407-324-616-674-812-821-107-178-392-400-671-944"
       id="linearGradient3122"
       gradientUnits="userSpaceOnUse"
       gradientTransform="matrix(0.48717948,0,0,0.48717949,-0.58704106,24.807692)"
       x1="24"
       y1="44"
       x2="24"
       y2="3.8990016" />
    <radialGradient
       inkscape:collect="always"
       xlink:href="#linearGradient2867-449-88-871-390-598-476-591-434-148-57-177-641-289-620-227-114-444-680-744-921-551"
       id="radialGradient3132"
       gradientUnits="userSpaceOnUse"
       gradientTransform="matrix(0,1.1385336,-1.2044327,-2.0976134e-8,21.282496,18.749713)"
       cx="7.4956832"
       cy="8.4497671"
       fx="7.4956832"
       fy="8.4497671"
       r="19.99999" />
    <linearGradient
       inkscape:collect="always"
       xlink:href="#linearGradient3707-319-631-407-324-616-674-812-821-107-178-392-400-671-944"
       id="linearGradient3134"
       gradientUnits="userSpaceOnUse"
       gradientTransform="matrix(0.48717948,0,0,0.48717949,-0.58704106,24.807692)"
       x1="24"
       y1="44"
       x2="24"
       y2="3.8990016" />
    <linearGradient
       inkscape:collect="always"
       xlink:href="#linearGradient3707-319-631-407-324-616-674-812-821-107-178-392-400-7-3-5"
       id="linearGradient3136"
       gradientUnits="userSpaceOnUse"
       gradientTransform="matrix(0.42132707,0,0,0.42413289,-33.192592,77.209636)"
       x1="149.98465"
       y1="-104.23534"
       x2="149.98465"
       y2="-174.9679" />
    <linearGradient
       inkscape:collect="always"
       xlink:href="#linearGradient8265-821-176-38-919-66-249-7-7-7"
       id="linearGradient3138"
       gradientUnits="userSpaceOnUse"
       gradientTransform="matrix(0.39078016,0,0,0.54218065,1.708262,24.40295)"
       x1="16.626165"
       y1="15.298182"
       x2="20.054544"
       y2="24.627615" />
    <linearGradient
       inkscape:collect="always"
       xlink:href="#linearGradient3798-44-1-9"
       id="linearGradient3140"
       gradientUnits="userSpaceOnUse"
       gradientTransform="matrix(0.48717948,0,0,0.48717949,-0.5870406,38.807692)"
       x1="24"
       y1="44"
       x2="24"
       y2="3.8990016" />
  </defs>
  <sodipodi:namedview
     id="base"
     pagecolor="#ffffff"
     bordercolor="#666666"
     borderopacity="1.0"
     inkscape:pageopacity="0.0"
     inkscape:pageshadow="2"
     inkscape:zoom="11.645833"
     inkscape:cx="16.706076"
     inkscape:cy="4.3858373"
     inkscape:current-layer="layer1"
     showgrid="true"
     inkscape:grid-bbox="true"
     inkscape:document-units="px"
     inkscape:window-width="1254"
     inkscape:window-height="826"
     inkscape:window-x="296"
     inkscape:window-y="169"
     inkscape:window-maximized="0">
    <inkscape:grid
       type="xygrid"
       id="grid3038"
       empspacing="5"
       visible="true"
       enabled="true"
       snapvisiblegridlinesonly="true" />
  </sodipodi:namedview>
  <metadata
     id="metadata3236">
    <rdf:RDF>
      <cc:Work
         rdf:about="">
        <dc:format>image/svg+xml</dc:format>
        <dc:type
           rdf:resource="http://purl.org/dc/dcmitype/StillImage" />
        <dc:title></dc:title>
      </cc:Work>
    </rdf:RDF>
  </metadata>
  <g
     id="layer1"
     inkscape:label="Layer 1"
     inkscape:groupmode="layer"
     transform="translate(0,-26)">
    <g
       id="g3124"
       transform="translate(-0.1052662,0.5)">
      <path
         id="rect5505-21"
         d="m 2.0427664,27 c -0.2447907,0 -0.4375,0.230102 -0.4375,0.5 l 0,18 c 0,0.269897 0.1927093,0.5 0.4375,0.5 l 18.1249996,0 c 0.24479,0 0.4375,-0.230103 0.4375,-0.5 l 0,-18 c 0,-0.269898 -0.19271,-0.5 -0.4375,-0.5 L 2.0427664,27 z m 1.0625,1 1,0 c 0.277,0 0.5,0.16725 0.5,0.375 l 0,2.25 c 0,0.20775 -0.223,0.375 -0.5,0.375 l -1,0 c -0.277,0 -0.5,-0.16725 -0.5,-0.375 l 0,-2.25 c 0,-0.20775 0.223,-0.375 0.5,-0.375 z m 3,0 1,0 c 0.277,0 0.5,0.16725 0.5,0.375 l 0,2.25 c 0,0.20775 -0.223,0.375 -0.5,0.375 l -1,0 c -0.277,0 -0.5,-0.16725 -0.5,-0.375 l 0,-2.25 c 0,-0.20775 0.223,-0.375 0.5,-0.375 z m 3,0 0.9999996,0 c 0.277,0 0.5,0.16725 0.5,0.375 l 0,2.25 c 0,0.20775 -0.223,0.375 -0.5,0.375 l -0.9999996,0 c -0.277,0 -0.5,-0.16725 -0.5,-0.375 l 0,-2.25 c 0,-0.20775 0.223,-0.375 0.5,-0.375 z m 2.9999996,0 1,0 c 0.277,0 0.5,0.16725 0.5,0.375 l 0,2.25 c 0,0.20775 -0.223,0.375 -0.5,0.375 l -1,0 c -0.277,0 -0.5,-0.16725 -0.5,-0.375 l 0,-2.25 c 0,-0.20775 0.223,-0.375 0.5,-0.375 z m 3,0 1,0 c 0.277,0 0.5,0.16725 0.5,0.375 l 0,2.25 c 0,0.20775 -0.223,0.375 -0.5,0.375 l -1,0 c -0.277,0 -0.5,-0.16725 -0.5,-0.375 l 0,-2.25 c 0,-0.20775 0.223,-0.375 0.5,-0.375 z m 3,0 1,0 c 0.277,0 0.5,0.16725 0.5,0.375 l 0,2.25 c 0,0.20775 -0.223,0.375 -0.5,0.375 l -1,0 c -0.277,0 -0.5,-0.16725 -0.5,-0.375 l 0,-2.25 c 0,-0.20775 0.223,-0.375 0.5,-0.375 z m -14.9999996,14 1,0 c 0.277,0 0.5,0.16725 0.5,0.375 l 0,2.25 c 0,0.20775 -0.223,0.375 -0.5,0.375 l -1,0 c -0.277,0 -0.5,-0.16725 -0.5,-0.375 l 0,-2.25 c 0,-0.20775 0.223,-0.375 0.5,-0.375 z m 3,0 1,0 c 0.277,0 0.5,0.16725 0.5,0.375 l 0,2.25 c 0,0.20775 -0.223,0.375 -0.5,0.375 l -1,0 c -0.277,0 -0.5,-0.16725 -0.5,-0.375 l 0,-2.25 c 0,-0.20775 0.223,-0.375 0.5,-0.375 z m 3,0 0.9999996,0 c 0.277,0 0.5,0.16725 0.5,0.375 l 0,2.25 c 0,0.20775 -0.223,0.375 -0.5,0.375 l -0.9999996,0 c -0.277,0 -0.5,-0.16725 -0.5,-0.375 l 0,-2.25 c 0,-0.20775 0.223,-0.375 0.5,-0.375 z m 2.9999996,0 1,0 c 0.277,0 0.5,0.16725 0.5,0.375 l 0,2.25 c 0,0.20775 -0.223,0.375 -0.5,0.375 l -1,0 c -0.277,0 -0.5,-0.16725 -0.5,-0.375 l 0,-2.25 c 0,-0.20775 0.223,-0.375 0.5,-0.375 z m 3,0 1,0 c 0.277,0 0.5,0.16725 0.5,0.375 l 0,2.25 c 0,0.20775 -0.223,0.375 -0.5,0.375 l -1,0 c -0.277,0 -0.5,-0.16725 -0.5,-0.375 l 0,-2.25 c 0,-0.20775 0.223,-0.375 0.5,-0.375 z m 3,0 1,0 c 0.277,0 0.5,0.16725 0.5,0.375 l 0,2.25 c 0,0.20775 -0.223,0.375 -0.5,0.375 l -1,0 c -0.277,0 -0.5,-0.16725 -0.5,-0.375 l 0,-2.25 c 0,-0.20775 0.223,-0.375 0.5,-0.375 z"
         style="color:#000000;fill:url(#radialGradient3132);fill-opacity:1;fill-rule:nonzero;stroke:url(#linearGradient3134);stroke-width:1;stroke-linecap:round;stroke-linejoin:round;stroke-miterlimit:4;stroke-opacity:1;stroke-dasharray:none;stroke-dashoffset:0;marker:none;visibility:visible;display:inline;overflow:visible;enable-background:accumulate"
         inkscape:connector-curvature="0" />
      <g
         transform="translate(-12.894734,11.5)"
         id="g3040">
        <path
           sodipodi:nodetypes="cccc"
           inkscape:connector-curvature="0"
           id="path5201-7"
           style="color:#000000;fill:url(#linearGradient3136);fill-opacity:1;fill-rule:nonzero;stroke:none;stroke-width:1;marker:none;visibility:visible;display:inline;overflow:visible;enable-background:accumulate"
           d="m 21,20 0,8 8,-4 z" />
        <path
           sodipodi:nodetypes="cccc"
           inkscape:connector-curvature="0"
           id="path5201"
           style="color:#000000;fill:#d2d2d2;fill-opacity:1;fill-rule:nonzero;stroke:none;stroke-width:0.91666669;marker:none;visibility:visible;display:inline;overflow:visible;enable-background:accumulate"
           d="m 21,21 0,8 8,-4 z" />
      </g>
      <path
         inkscape:connector-curvature="0"
         style="opacity:0.2;fill:url(#linearGradient3138);fill-opacity:1;fill-rule:evenodd;stroke:none"
         id="path3333-3"
         d="m 2.1052664,27.5 0.00598,10 C 2.62907,37.489927 19.712231,33.813788 20.105266,33.636962 l 0,-6.136962 c 0,0 -12.0158177,0.0099 -17.9999996,0 z"
         sodipodi:nodetypes="ccccc" />
      <path
         sodipodi:nodetypes="ssssssssssssssssssssssssssssssssssssssssssssssssssssss"
         inkscape:connector-curvature="0"
         style="opacity:0.6;color:#000000;fill:none;stroke:url(#linearGradient3140);stroke-width:1;stroke-linecap:round;stroke-linejoin:round;stroke-miterlimit:4;stroke-opacity:1;stroke-dasharray:none;stroke-dashoffset:0;marker:none;visibility:visible;display:inline;overflow:visible;enable-background:accumulate"
         d="m 3.1052664,42 1,0 c 0.277,0 0.5,0.16725 0.5,0.375 l 0,2.25 c 0,0.20775 -0.223,0.375 -0.5,0.375 l -1,0 c -0.277,0 -0.5,-0.16725 -0.5,-0.375 l 0,-2.25 c 0,-0.20775 0.223,-0.375 0.5,-0.375 z m 3,0 1,0 c 0.277,0 0.5,0.16725 0.5,0.375 l 0,2.25 c 0,0.20775 -0.223,0.375 -0.5,0.375 l -1,0 c -0.277,0 -0.5,-0.16725 -0.5,-0.375 l 0,-2.25 c 0,-0.20775 0.223,-0.375 0.5,-0.375 z m 3,0 0.9999996,0 c 0.277,0 0.5,0.16725 0.5,0.375 l 0,2.25 c 0,0.20775 -0.223,0.375 -0.5,0.375 l -0.9999996,0 c -0.277,0 -0.5,-0.16725 -0.5,-0.375 l 0,-2.25 c 0,-0.20775 0.223,-0.375 0.5,-0.375 z m 2.9999996,0 1,0 c 0.277,0 0.5,0.16725 0.5,0.375 l 0,2.25 c 0,0.20775 -0.223,0.375 -0.5,0.375 l -1,0 c -0.277,0 -0.5,-0.16725 -0.5,-0.375 l 0,-2.25 c 0,-0.20775 0.223,-0.375 0.5,-0.375 z m 3,0 1,0 c 0.277,0 0.5,0.16725 0.5,0.375 l 0,2.25 c 0,0.20775 -0.223,0.375 -0.5,0.375 l -1,0 c -0.277,0 -0.5,-0.16725 -0.5,-0.375 l 0,-2.25 c 0,-0.20775 0.223,-0.375 0.5,-0.375 z m 3,0 1,0 c 0.277,0 0.5,0.16725 0.5,0.375 l 0,2.25 c 0,0.20775 -0.223,0.375 -0.5,0.375 l -1,0 c -0.277,0 -0.5,-0.16725 -0.5,-0.375 l 0,-2.25 c 0,-0.20775 0.223,-0.375 0.5,-0.375 z"
         id="path4035" />
    </g>
  </g>
</svg>
