<?xml version="1.0" encoding="UTF-8" standalone="no"?>
<svg
   xmlns:dc="http://purl.org/dc/elements/1.1/"
   xmlns:cc="http://creativecommons.org/ns#"
   xmlns:rdf="http://www.w3.org/1999/02/22-rdf-syntax-ns#"
   xmlns:svg="http://www.w3.org/2000/svg"
   xmlns="http://www.w3.org/2000/svg"
   xmlns:xlink="http://www.w3.org/1999/xlink"
   width="22"
   height="22"
   id="svg3231"
   version="1.1">
  <defs
     id="defs3233">
    <linearGradient
       id="linearGradient8265-821-176-38-919-66-249-7-7-7">
      <stop
         id="stop2687-1-9-8"
         style="stop-color:#ffffff;stop-opacity:1"
         offset="0" />
      <stop
         id="stop2689-5-4-6"
         style="stop-color:#ffffff;stop-opacity:0"
         offset="1" />
    </linearGradient>
    <linearGradient
       id="linearGradient3707-319-631-407-324-616-674-812-821-107-178-392-400-7-3-5">
      <stop
         id="stop5440-9-8-4"
         style="stop-color:#272727;stop-opacity:1;"
         offset="0" />
      <stop
         id="stop5442-0-9-2"
         style="stop-color:#454545;stop-opacity:1;"
         offset="1" />
    </linearGradient>
    <linearGradient
       id="linearGradient2867-449-88-871-390-598-476-591-434-148-57-177-641-289-620-227-114-444-680-744-921-551">
      <stop
         id="stop4445"
         style="stop-color:#4d4d4d;stop-opacity:1;"
         offset="0" />
      <stop
         id="stop4447"
         style="stop-color:#404040;stop-opacity:1;"
         offset="0.26238" />
      <stop
         id="stop4449"
         style="stop-color:#303030;stop-opacity:1;"
         offset="0.704952" />
      <stop
         id="stop4451"
         style="stop-color:#232323;stop-opacity:1;"
         offset="1" />
    </linearGradient>
    <linearGradient
       id="linearGradient3707-319-631-407-324-616-674-812-821-107-178-392-400-671-944">
      <stop
         id="stop4455"
         style="stop-color:#202020;stop-opacity:1;"
         offset="0" />
      <stop
         id="stop4457"
         style="stop-color:#383838;stop-opacity:1;"
         offset="1" />
    </linearGradient>
    <linearGradient
       id="linearGradient3798-44-1-9">
      <stop
         style="stop-color:#ffffff;stop-opacity:1;"
         offset="0"
         id="stop3800-9-4-2" />
      <stop
         style="stop-color:#ffffff;stop-opacity:0;"
         offset="1"
         id="stop3802-93-6-8" />
    </linearGradient>
    <radialGradient
       xlink:href="#linearGradient2867-449-88-871-390-598-476-591-434-148-57-177-641-289-620-227-114-444-680-744-921-551"
       id="radialGradient3132"
       gradientUnits="userSpaceOnUse"
       gradientTransform="matrix(0,1.1385336,-1.2044327,-2.0976134e-8,21.282496,18.749713)"
       cx="7.4956832"
       cy="8.4497671"
       fx="7.4956832"
       fy="8.4497671"
       r="19.99999" />
    <linearGradient
       xlink:href="#linearGradient3707-319-631-407-324-616-674-812-821-107-178-392-400-671-944"
       id="linearGradient3134"
       gradientUnits="userSpaceOnUse"
       gradientTransform="matrix(0.48717948,0,0,0.48717949,-0.58704106,24.807692)"
       x1="24"
       y1="44"
       x2="24"
       y2="3.8990016" />
    <linearGradient
       xlink:href="#linearGradient3707-319-631-407-324-616-674-812-821-107-178-392-400-7-3-5"
       id="linearGradient3136"
       gradientUnits="userSpaceOnUse"
       gradientTransform="matrix(0.42132707,0,0,0.42413289,-33.192592,77.209636)"
       x1="149.98465"
       y1="-104.23534"
       x2="149.98465"
       y2="-174.9679" />
    <linearGradient
       xlink:href="#linearGradient8265-821-176-38-919-66-249-7-7-7"
       id="linearGradient3138"
       gradientUnits="userSpaceOnUse"
       gradientTransform="matrix(0.39078016,0,0,0.54218065,1.708262,24.40295)"
       x1="16.626165"
       y1="15.298182"
       x2="20.054544"
       y2="24.627615" />
    <linearGradient
       xlink:href="#linearGradient3798-44-1-9"
       id="linearGradient3140"
       gradientUnits="userSpaceOnUse"
       gradientTransform="matrix(0.48717948,0,0,0.48717949,-0.5870406,38.807692)"
       x1="24"
       y1="44"
       x2="24"
       y2="3.8990016" />
  </defs>
  <metadata
     id="metadata3236">
    <rdf:RDF>
      <cc:Work
         rdf:about="">
        <dc:format>image/svg+xml</dc:format>
        <dc:type
           rdf:resource="http://purl.org/dc/dcmitype/StillImage" />
        <dc:title />
      </cc:Work>
    </rdf:RDF>
  </metadata>
  <g
     id="layer1"
     transform="translate(0,-26)">
    <g
       id="g3124"
       transform="translate(-0.1052662,0.5)">
      <path
         id="rect5505-21"
         d="m 2.0427664,27 c -0.2447907,0 -0.4375,0.230102 -0.4375,0.5 l 0,18 c 0,0.269897 0.1927093,0.5 0.4375,0.5 l 18.1249996,0 c 0.24479,0 0.4375,-0.230103 0.4375,-0.5 l 0,-18 c 0,-0.269898 -0.19271,-0.5 -0.4375,-0.5 L 2.0427664,27 z m 1.0625,1 1,0 c 0.277,0 0.5,0.16725 0.5,0.375 l 0,2.25 c 0,0.20775 -0.223,0.375 -0.5,0.375 l -1,0 c -0.277,0 -0.5,-0.16725 -0.5,-0.375 l 0,-2.25 c 0,-0.20775 0.223,-0.375 0.5,-0.375 z m 3,0 1,0 c 0.277,0 0.5,0.16725 0.5,0.375 l 0,2.25 c 0,0.20775 -0.223,0.375 -0.5,0.375 l -1,0 c -0.277,0 -0.5,-0.16725 -0.5,-0.375 l 0,-2.25 c 0,-0.20775 0.223,-0.375 0.5,-0.375 z m 3,0 0.9999996,0 c 0.277,0 0.5,0.16725 0.5,0.375 l 0,2.25 c 0,0.20775 -0.223,0.375 -0.5,0.375 l -0.9999996,0 c -0.277,0 -0.5,-0.16725 -0.5,-0.375 l 0,-2.25 c 0,-0.20775 0.223,-0.375 0.5,-0.375 z m 2.9999996,0 1,0 c 0.277,0 0.5,0.16725 0.5,0.375 l 0,2.25 c 0,0.20775 -0.223,0.375 -0.5,0.375 l -1,0 c -0.277,0 -0.5,-0.16725 -0.5,-0.375 l 0,-2.25 c 0,-0.20775 0.223,-0.375 0.5,-0.375 z m 3,0 1,0 c 0.277,0 0.5,0.16725 0.5,0.375 l 0,2.25 c 0,0.20775 -0.223,0.375 -0.5,0.375 l -1,0 c -0.277,0 -0.5,-0.16725 -0.5,-0.375 l 0,-2.25 c 0,-0.20775 0.223,-0.375 0.5,-0.375 z m 3,0 1,0 c 0.277,0 0.5,0.16725 0.5,0.375 l 0,2.25 c 0,0.20775 -0.223,0.375 -0.5,0.375 l -1,0 c -0.277,0 -0.5,-0.16725 -0.5,-0.375 l 0,-2.25 c 0,-0.20775 0.223,-0.375 0.5,-0.375 z m -14.9999996,14 1,0 c 0.277,0 0.5,0.16725 0.5,0.375 l 0,2.25 c 0,0.20775 -0.223,0.375 -0.5,0.375 l -1,0 c -0.277,0 -0.5,-0.16725 -0.5,-0.375 l 0,-2.25 c 0,-0.20775 0.223,-0.375 0.5,-0.375 z m 3,0 1,0 c 0.277,0 0.5,0.16725 0.5,0.375 l 0,2.25 c 0,0.20775 -0.223,0.375 -0.5,0.375 l -1,0 c -0.277,0 -0.5,-0.16725 -0.5,-0.375 l 0,-2.25 c 0,-0.20775 0.223,-0.375 0.5,-0.375 z m 3,0 0.9999996,0 c 0.277,0 0.5,0.16725 0.5,0.375 l 0,2.25 c 0,0.20775 -0.223,0.375 -0.5,0.375 l -0.9999996,0 c -0.277,0 -0.5,-0.16725 -0.5,-0.375 l 0,-2.25 c 0,-0.20775 0.223,-0.375 0.5,-0.375 z m 2.9999996,0 1,0 c 0.277,0 0.5,0.16725 0.5,0.375 l 0,2.25 c 0,0.20775 -0.223,0.375 -0.5,0.375 l -1,0 c -0.277,0 -0.5,-0.16725 -0.5,-0.375 l 0,-2.25 c 0,-0.20775 0.223,-0.375 0.5,-0.375 z m 3,0 1,0 c 0.277,0 0.5,0.16725 0.5,0.375 l 0,2.25 c 0,0.20775 -0.223,0.375 -0.5,0.375 l -1,0 c -0.277,0 -0.5,-0.16725 -0.5,-0.375 l 0,-2.25 c 0,-0.20775 0.223,-0.375 0.5,-0.375 z m 3,0 1,0 c 0.277,0 0.5,0.16725 0.5,0.375 l 0,2.25 c 0,0.20775 -0.223,0.375 -0.5,0.375 l -1,0 c -0.277,0 -0.5,-0.16725 -0.5,-0.375 l 0,-2.25 c 0,-0.20775 0.223,-0.375 0.5,-0.375 z"
         style="color:#000000;fill:url(#radialGradient3132);fill-opacity:1;fill-rule:nonzero;stroke:url(#linearGradient3134);stroke-width:1;stroke-linecap:round;stroke-linejoin:round;stroke-miterlimit:4;stroke-opacity:1;stroke-dasharray:none;stroke-dashoffset:0;marker:none;visibility:visible;display:inline;overflow:visible;enable-background:accumulate" />
      <g
         transform="translate(-12.894734,11.5)"
         id="g3040">
        <path
           id="path5201-7"
           style="color:#000000;fill:url(#linearGradient3136);fill-opacity:1;fill-rule:nonzero;stroke:none;stroke-width:1;marker:none;visibility:visible;display:inline;overflow:visible;enable-background:accumulate"
           d="m 21,20 0,8 8,-4 z" />
        <path
           id="path5201"
           style="color:#000000;fill:#d2d2d2;fill-opacity:1;fill-rule:nonzero;stroke:none;stroke-width:0.91666669;marker:none;visibility:visible;display:inline;overflow:visible;enable-background:accumulate"
           d="m 21,21 0,8 8,-4 z" />
      </g>
      <path
         style="opacity:0.2;fill:url(#linearGradient3138);fill-opacity:1;fill-rule:evenodd;stroke:none"
         id="path3333-3"
         d="m 2.1052664,27.5 0.00598,10 C 2.62907,37.489927 19.712231,33.813788 20.105266,33.636962 l 0,-6.136962 c 0,0 -12.0158177,0.0099 -17.9999996,0 z" />
      <path
         style="opacity:0.6;color:#000000;fill:none;stroke:url(#linearGradient3140);stroke-width:1;stroke-linecap:round;stroke-linejoin:round;stroke-miterlimit:4;stroke-opacity:1;stroke-dasharray:none;stroke-dashoffset:0;marker:none;visibility:visible;display:inline;overflow:visible;enable-background:accumulate"
         d="m 3.1052664,42 1,0 c 0.277,0 0.5,0.16725 0.5,0.375 l 0,2.25 c 0,0.20775 -0.223,0.375 -0.5,0.375 l -1,0 c -0.277,0 -0.5,-0.16725 -0.5,-0.375 l 0,-2.25 c 0,-0.20775 0.223,-0.375 0.5,-0.375 z m 3,0 1,0 c 0.277,0 0.5,0.16725 0.5,0.375 l 0,2.25 c 0,0.20775 -0.223,0.375 -0.5,0.375 l -1,0 c -0.277,0 -0.5,-0.16725 -0.5,-0.375 l 0,-2.25 c 0,-0.20775 0.223,-0.375 0.5,-0.375 z m 3,0 0.9999996,0 c 0.277,0 0.5,0.16725 0.5,0.375 l 0,2.25 c 0,0.20775 -0.223,0.375 -0.5,0.375 l -0.9999996,0 c -0.277,0 -0.5,-0.16725 -0.5,-0.375 l 0,-2.25 c 0,-0.20775 0.223,-0.375 0.5,-0.375 z m 2.9999996,0 1,0 c 0.277,0 0.5,0.16725 0.5,0.375 l 0,2.25 c 0,0.20775 -0.223,0.375 -0.5,0.375 l -1,0 c -0.277,0 -0.5,-0.16725 -0.5,-0.375 l 0,-2.25 c 0,-0.20775 0.223,-0.375 0.5,-0.375 z m 3,0 1,0 c 0.277,0 0.5,0.16725 0.5,0.375 l 0,2.25 c 0,0.20775 -0.223,0.375 -0.5,0.375 l -1,0 c -0.277,0 -0.5,-0.16725 -0.5,-0.375 l 0,-2.25 c 0,-0.20775 0.223,-0.375 0.5,-0.375 z m 3,0 1,0 c 0.277,0 0.5,0.16725 0.5,0.375 l 0,2.25 c 0,0.20775 -0.223,0.375 -0.5,0.375 l -1,0 c -0.277,0 -0.5,-0.16725 -0.5,-0.375 l 0,-2.25 c 0,-0.20775 0.223,-0.375 0.5,-0.375 z"
         id="path4035" />
    </g>
  </g>
</svg>
