<?xml version="1.0" encoding="UTF-8" standalone="no"?>
<svg
   xmlns:dc="http://purl.org/dc/elements/1.1/"
   xmlns:cc="http://creativecommons.org/ns#"
   xmlns:rdf="http://www.w3.org/1999/02/22-rdf-syntax-ns#"
   xmlns:svg="http://www.w3.org/2000/svg"
   xmlns="http://www.w3.org/2000/svg"
   xmlns:xlink="http://www.w3.org/1999/xlink"
   version="1.1"
   width="32"
   height="32"
   id="svg2945">
  <metadata
     id="metadata188397">
    <rdf:RDF>
      <cc:Work
         rdf:about="">
        <dc:format>image/svg+xml</dc:format>
        <dc:type
           rdf:resource="http://purl.org/dc/dcmitype/StillImage" />
        <dc:title />
      </cc:Work>
    </rdf:RDF>
  </metadata>
  <defs
     id="defs2947">
    <linearGradient
       id="linearGradient4384">
      <stop
         id="stop4386"
         style="stop-color:#8badea;stop-opacity:1"
         offset="0" />
      <stop
         id="stop4388"
         style="stop-color:#fbfbfb;stop-opacity:0"
         offset="1" />
    </linearGradient>
    <linearGradient
       id="linearGradient4376">
      <stop
         id="stop4378"
         style="stop-color:#2a648f;stop-opacity:1"
         offset="0" />
      <stop
         id="stop4380"
         style="stop-color:#8badea;stop-opacity:1"
         offset="0.37917796" />
      <stop
         id="stop4382"
         style="stop-color:#2a648f;stop-opacity:1"
         offset="1" />
    </linearGradient>
    <linearGradient
       id="linearGradient4364">
      <stop
         id="stop4366"
         style="stop-color:#4083c2;stop-opacity:1"
         offset="0" />
      <stop
         id="stop4368"
         style="stop-color:#1f4b6a;stop-opacity:1"
         offset="1" />
    </linearGradient>
    <linearGradient
       id="linearGradient3956">
      <stop
         id="stop3958"
         style="stop-color:#e08223;stop-opacity:1"
         offset="0" />
      <stop
         id="stop3960"
         style="stop-color:#edd563;stop-opacity:1"
         offset="0.37917796" />
      <stop
         id="stop3962"
         style="stop-color:#e08223;stop-opacity:1"
         offset="1" />
    </linearGradient>
    <linearGradient
       id="linearGradient3936">
      <stop
         id="stop3938"
         style="stop-color:#cd8033;stop-opacity:1"
         offset="0" />
      <stop
         id="stop3940"
         style="stop-color:#fbfbfb;stop-opacity:0"
         offset="1" />
    </linearGradient>
    <linearGradient
       id="linearGradient3926">
      <stop
         id="stop3928"
         style="stop-color:#cd8033;stop-opacity:1"
         offset="0" />
      <stop
         id="stop3930"
         style="stop-color:#bb5e12;stop-opacity:1"
         offset="1" />
    </linearGradient>
    <linearGradient
       id="linearGradient4299">
      <stop
         id="stop4301"
         style="stop-color:#d7e866;stop-opacity:1"
         offset="0" />
      <stop
         id="stop4303"
         style="stop-color:#fbfbfb;stop-opacity:0"
         offset="1" />
    </linearGradient>
    <linearGradient
       id="linearGradient4291">
      <stop
         id="stop4293"
         style="stop-color:#8cab2a;stop-opacity:1"
         offset="0" />
      <stop
         id="stop4295"
         style="stop-color:#d7e866;stop-opacity:1"
         offset="0.37917796" />
      <stop
         id="stop4297"
         style="stop-color:#8cab2a;stop-opacity:1"
         offset="1" />
    </linearGradient>
    <linearGradient
       id="linearGradient4281">
      <stop
         id="stop4283"
         style="stop-color:#69aa28;stop-opacity:1"
         offset="0" />
      <stop
         id="stop4285"
         style="stop-color:#548820;stop-opacity:1"
         offset="1" />
    </linearGradient>
    <linearGradient
       id="linearGradient4253">
      <stop
         id="stop4255"
         style="stop-color:#000000;stop-opacity:0.3508772"
         offset="0" />
      <stop
         id="stop4257"
         style="stop-color:#000000;stop-opacity:0"
         offset="0.5" />
      <stop
         id="stop4259"
         style="stop-color:#000000;stop-opacity:0.10588235"
         offset="1" />
    </linearGradient>
    <linearGradient
       id="linearGradient4241">
      <stop
         id="stop4243"
         style="stop-color:#000000;stop-opacity:0.27058825"
         offset="0" />
      <stop
         id="stop4249"
         style="stop-color:#000000;stop-opacity:0"
         offset="0.5" />
      <stop
         id="stop4245"
         style="stop-color:#000000;stop-opacity:0.27058825"
         offset="1" />
    </linearGradient>
    <linearGradient
       id="linearGradient3280">
      <stop
         id="stop3282"
         style="stop-color:#000000;stop-opacity:1"
         offset="0" />
      <stop
         id="stop3284"
         style="stop-color:#000000;stop-opacity:0"
         offset="1" />
    </linearGradient>
    <linearGradient
       id="linearGradient9421">
      <stop
         id="stop9423"
         style="stop-color:#ffffff;stop-opacity:1"
         offset="0" />
      <stop
         id="stop9425"
         style="stop-color:#ffffff;stop-opacity:0"
         offset="1" />
    </linearGradient>
    <filter
       x="-0.82964343"
       y="-0.064677492"
       width="2.6592867"
       height="1.129355"
       color-interpolation-filters="sRGB"
       id="filter9752">
      <feGaussianBlur
         stdDeviation="1.0370543"
         id="feGaussianBlur9754" />
    </filter>
    <linearGradient
       id="linearGradient3280-7">
      <stop
         id="stop3282-6"
         style="stop-color:#000000;stop-opacity:1"
         offset="0" />
      <stop
         id="stop3284-8"
         style="stop-color:#000000;stop-opacity:0"
         offset="1" />
    </linearGradient>
    <linearGradient
       id="linearGradient4241-2">
      <stop
         id="stop4243-0"
         style="stop-color:#000000;stop-opacity:0.27058825"
         offset="0" />
      <stop
         id="stop4249-3"
         style="stop-color:#000000;stop-opacity:0"
         offset="0.5" />
      <stop
         id="stop4245-2"
         style="stop-color:#000000;stop-opacity:0.27058825"
         offset="1" />
    </linearGradient>
    <linearGradient
       id="linearGradient4253-9">
      <stop
         id="stop4255-7"
         style="stop-color:#000000;stop-opacity:0.10588235"
         offset="0" />
      <stop
         id="stop4257-5"
         style="stop-color:#000000;stop-opacity:0"
         offset="0.5" />
      <stop
         id="stop4259-1"
         style="stop-color:#000000;stop-opacity:0.10588235"
         offset="1" />
    </linearGradient>
    <linearGradient
       id="linearGradient9421-2">
      <stop
         id="stop9423-1"
         style="stop-color:#ffffff;stop-opacity:1"
         offset="0" />
      <stop
         id="stop9425-3"
         style="stop-color:#ffffff;stop-opacity:0"
         offset="1" />
    </linearGradient>
    <filter
       x="-0.82964343"
       y="-0.064677492"
       width="2.6592867"
       height="1.129355"
       color-interpolation-filters="sRGB"
       id="filter9752-2">
      <feGaussianBlur
         stdDeviation="1.0370543"
         id="feGaussianBlur9754-7" />
    </filter>
    <radialGradient
       cx="21.34375"
       cy="14.125"
       r="11.96875"
       fx="21.34375"
       fy="14.125"
       id="radialGradient3918"
       xlink:href="#linearGradient3280-7"
       gradientUnits="userSpaceOnUse"
       gradientTransform="matrix(1.0897454,1.7951838e-8,0,0.51246724,-6.2008295,15.997008)" />
    <linearGradient
       x1="718.5"
       y1="56.875"
       x2="718.5"
       y2="110.92456"
       id="linearGradient3920"
       xlink:href="#linearGradient9421-2"
       gradientUnits="userSpaceOnUse"
       gradientTransform="translate(-696.9706,-70.49978)" />
    <linearGradient
       x1="18.804668"
       y1="5.8000488"
       x2="26.855783"
       y2="43.218105"
       id="linearGradient3932"
       xlink:href="#linearGradient3926"
       gradientUnits="userSpaceOnUse"
       gradientTransform="matrix(0.89449998,0,0,0.92967815,-2.6501021,-16.32325)" />
    <linearGradient
       x1="22"
       y1="27.732166"
       x2="29.624184"
       y2="61.085434"
       id="linearGradient3934"
       xlink:href="#linearGradient3926"
       gradientUnits="userSpaceOnUse"
       gradientTransform="matrix(0.89115259,0,0,0.92965233,-2.6017159,-35.871949)" />
    <linearGradient
       x1="13.775995"
       y1="44.446079"
       x2="32.696804"
       y2="43.445534"
       id="linearGradient3942"
       xlink:href="#linearGradient3936"
       gradientUnits="userSpaceOnUse"
       gradientTransform="matrix(0.69275679,0,0,0.72923145,0.8853568,-29.408168)" />
    <linearGradient
       x1="15"
       y1="23"
       x2="32"
       y2="23"
       id="linearGradient3954"
       xlink:href="#linearGradient3956"
       gradientUnits="userSpaceOnUse"
       gradientTransform="matrix(0.89449998,0,0,0.92967815,-2.6501021,-16.32325)" />
    <linearGradient
       x1="718.25085"
       y1="65.345795"
       x2="718.5"
       y2="110.92456"
       id="linearGradient3970"
       xlink:href="#linearGradient9421"
       gradientUnits="userSpaceOnUse"
       gradientTransform="translate(-679.65702,-79.585216)" />
    <linearGradient
       x1="22"
       y1="27.732166"
       x2="29.624184"
       y2="61.085434"
       id="linearGradient3972"
       xlink:href="#linearGradient4281"
       gradientUnits="userSpaceOnUse"
       gradientTransform="matrix(0.90929139,0,0,0.81103874,11.909223,-33.722346)" />
    <linearGradient
       x1="13.775995"
       y1="44.446079"
       x2="32.696804"
       y2="43.445534"
       id="linearGradient3974"
       xlink:href="#linearGradient4299"
       gradientUnits="userSpaceOnUse"
       gradientTransform="matrix(0.88301693,0,0,0.71767047,12.849189,-31.866368)" />
    <linearGradient
       x1="15"
       y1="23"
       x2="32"
       y2="23"
       id="linearGradient3976"
       xlink:href="#linearGradient4253"
       gradientUnits="userSpaceOnUse"
       gradientTransform="matrix(1.025853,0,0,0.95368651,9.243536,-24.735581)" />
    <linearGradient
       x1="15"
       y1="23"
       x2="32"
       y2="23"
       id="linearGradient3978"
       xlink:href="#linearGradient4291"
       gradientUnits="userSpaceOnUse"
       gradientTransform="matrix(0.91043141,0,0,0.84637695,11.89283,-23.209344)" />
    <linearGradient
       x1="18.804668"
       y1="5.8000488"
       x2="26.855783"
       y2="43.218105"
       id="linearGradient3980"
       xlink:href="#linearGradient4281"
       gradientUnits="userSpaceOnUse"
       gradientTransform="matrix(0.91043141,0,0,0.84637695,11.89283,-23.209344)" />
    <linearGradient
       x1="15"
       y1="23"
       x2="32"
       y2="23"
       id="linearGradient3982"
       xlink:href="#linearGradient4241"
       gradientUnits="userSpaceOnUse"
       gradientTransform="matrix(1,0,0,0.92965233,10,-26.781365)" />
    <radialGradient
       cx="21.34375"
       cy="14.125"
       r="11.96875"
       fx="21.34375"
       fy="14.125"
       id="radialGradient3984"
       xlink:href="#linearGradient3280"
       gradientUnits="userSpaceOnUse"
       gradientTransform="matrix(1.190845,0,0,0.42149514,8.082915,7.9121233)" />
    <linearGradient
       x1="15"
       y1="23"
       x2="32"
       y2="23"
       id="linearGradient3986"
       xlink:href="#linearGradient4253-9"
       gradientUnits="userSpaceOnUse"
       gradientTransform="matrix(1.0000043,0,0,0.92965233,-5.2203744,-16.321771)" />
    <linearGradient
       x1="15"
       y1="23"
       x2="32"
       y2="23"
       id="linearGradient3988"
       xlink:href="#linearGradient4241-2"
       gradientUnits="userSpaceOnUse"
       gradientTransform="matrix(1,0,0,0.92965233,-5.071312,-16.322126)" />
    <radialGradient
       cx="21.34375"
       cy="14.125"
       r="11.96875"
       fx="21.34375"
       fy="14.125"
       id="radialGradient4330"
       xlink:href="#linearGradient3280"
       gradientUnits="userSpaceOnUse"
       gradientTransform="matrix(1.2086552,-0.01802311,0.00589648,0.40342793,7.6194911,20.552004)" />
    <linearGradient
       x1="15"
       y1="23"
       x2="32"
       y2="23"
       id="linearGradient4332"
       xlink:href="#linearGradient4241"
       gradientUnits="userSpaceOnUse"
       gradientTransform="matrix(1,0,0,0.92965233,10.593789,-14.781365)" />
    <linearGradient
       x1="15"
       y1="23"
       x2="32"
       y2="23"
       id="linearGradient4334"
       xlink:href="#linearGradient4376"
       gradientUnits="userSpaceOnUse"
       gradientTransform="matrix(0.81852891,0,0,0.8241718,14.85887,-10.242562)" />
    <linearGradient
       x1="18.804668"
       y1="5.8000488"
       x2="26.855783"
       y2="43.218105"
       id="linearGradient4336"
       xlink:href="#linearGradient4364"
       gradientUnits="userSpaceOnUse"
       gradientTransform="matrix(0.81852891,0,0,0.8241718,14.85887,-10.242562)" />
    <linearGradient
       x1="15"
       y1="23"
       x2="32"
       y2="23"
       id="linearGradient4338"
       xlink:href="#linearGradient4253"
       gradientUnits="userSpaceOnUse"
       gradientTransform="matrix(0.94975283,0,0,0.92965233,11.692741,-12.881844)" />
    <linearGradient
       x1="13.775995"
       y1="44.446079"
       x2="32.696804"
       y2="43.445534"
       id="linearGradient4340"
       xlink:href="#linearGradient4384"
       gradientUnits="userSpaceOnUse"
       gradientTransform="matrix(0.6090954,0,0,0.72747118,20.022347,-12.763217)" />
    <linearGradient
       x1="20.006872"
       y1="20.094345"
       x2="23.5"
       y2="47.797733"
       id="linearGradient4342"
       xlink:href="#linearGradient4364"
       gradientUnits="userSpaceOnUse"
       gradientTransform="matrix(0.83030033,0,0,0.71232166,14.582247,-10.026694)" />
    <linearGradient
       x1="718.25085"
       y1="65.345795"
       x2="718.5"
       y2="110.92456"
       id="linearGradient4344"
       xlink:href="#linearGradient9421"
       gradientUnits="userSpaceOnUse"
       gradientTransform="translate(-629.65702,-79.585216)" />
  </defs>
  <g
     id="layer1"
     transform="matrix(0.67341422,0,0,0.66670245,-1.4585895,11.465385)">
    <path
       d="m 48.5,13.865743 c -2.077393,5.618486 -9.810954,5.962169 -15,6.134462 -5.30626,-0.234133 -12.778417,-0.503172 -15,-6.134462 2.075821,-5.619538 9.811068,-5.963155 15,-6.135464 5.306109,0.234218 12.780036,0.503043 15,6.135464 z"
       id="path3278"
       style="color:#000000;fill:url(#radialGradient3984);fill-opacity:1;fill-rule:nonzero;stroke:none;stroke-width:1;marker:none;visibility:visible;display:inline;overflow:visible" />
    <path
       d="m 22.202664,-10.000092 0,22.728952 c -0.01865,2.257987 6.493607,3.771048 11.297336,3.771048 4.893032,0 11.018646,-1.596082 11,-3.771048 l 0,-22.728952 c -0.07066,-1.759862 -7.000796,-3.420192 -11,-3.5 -6.242269,-0.124571 -19.288493,3.151963 -11.297336,3.5 z"
       id="path2957"
       style="opacity:0.6;fill:url(#linearGradient3982);fill-opacity:1;stroke:#454545;stroke-width:1.4389745px;stroke-linecap:butt;stroke-linejoin:round;stroke-opacity:1" />
    <path
       d="M 43.786433,12.9484 C 42.625765,14.731361 36.825114,15.94845 33.45,16.03528 30.108035,15.783945 24.65878,15.656684 22.900001,12.193394 24.70137,8.846492 30.074884,8.936621 33.45,8.84979 c 3.341965,0.251335 8.577654,0.6353197 10.336433,4.09861 z"
       id="path4263"
       style="fill:#fbfbfb;fill-opacity:0.49411765;stroke:none" />
    <path
       d="m 25.09409,-0.89735505 0,11.69663005 c -0.01702,2.05573 4.552155,2.808779 8.193881,2.808779 3.641724,0 8.210856,-0.936491 8.19388,-2.916637 l 0,-11.58877205 c -0.06436,-0.95507095 -4.552156,-2.02660175 -8.19388,-2.02660175 -3.641726,0 -8.210864,0.8341586 -8.193881,2.02660175 z"
       id="path4265"
       style="fill:url(#linearGradient3978);fill-opacity:1;stroke:url(#linearGradient3980);stroke-width:1.4389745px;stroke-linecap:butt;stroke-linejoin:miter;stroke-opacity:1" />
    <path
       d="m 21.55377,-9.7086207 0,22.9761687 c -0.01913,2.827364 7.693898,3.832457 11.79731,3.832457 4.103411,0 11.816435,-0.834754 11.797307,-3.832457 l 0,-22.9761687 c 0.01912,1.8568349 -8.243567,3.0154845 -12.346979,3.0154845 -4.103412,0 -11.266765,-1.0734823 -11.247638,-3.0154845 z"
       id="path4251"
       style="fill:url(#linearGradient3976);fill-opacity:1;stroke:none" />
    <path
       d="m 40.81231,-0.6867906 a 7.46049,1.5381674 0 0 1 -14.92098,0 7.46049,1.5381674 0 1 1 14.92098,0 z"
       id="path4271"
       style="fill:url(#linearGradient3974);fill-opacity:1;stroke:none" />
    <path
       d="m 26.538964,0.00264367 0,10.00111533 c -0.01576,1.901846 3.368929,2.155371 6.73786,2.155371 3.368932,0 6.753564,-0.323464 6.737861,-2.155371 l 0,-10.00111533 C 39.955175,-0.83248786 36.645756,-1.451115 33.276824,-1.451115 c -3.368931,0 -6.753562,0.60262872 -6.73786,1.45375867 z"
       id="path2883"
       style="opacity:0.2;fill:none;stroke:#fefefe;stroke-width:1.43897426px;stroke-linecap:butt;stroke-linejoin:miter;stroke-opacity:1" />
    <path
       d="m 25.093948,-0.87527647 c -0.01699,1.96989327 4.546458,2.43311537 8.183623,2.43311537 3.637166,0 8.200576,-0.5356506 8.183623,-2.43311537"
       id="path4417"
       style="fill:none;stroke:url(#linearGradient3972);stroke-width:1.43869865;stroke-linecap:butt;stroke-linejoin:miter;stroke-miterlimit:4;stroke-opacity:1;stroke-dasharray:none" />
    <path
       d="m 44.499353,-10.294794 c -0.0721,1.8070955 -7.141594,3.5939376 -11.222505,3.5939376 -4.080912,0 -11.241529,-1.7015927 -11.222506,-3.5939376"
       id="path4440"
       style="opacity:0.6;fill:none;stroke:#585858;stroke-width:1.4389745px;stroke-linecap:butt;stroke-linejoin:round;stroke-opacity:1" />
    <rect
       width="3.2468495"
       height="19.719864"
       rx="0.5645842"
       ry="0.92807764"
       x="37.096111"
       y="-5.3050733"
       id="rect9419"
       style="fill:url(#linearGradient3970);fill-opacity:1;stroke:none;display:inline;filter:url(#filter9752);enable-background:new" />
    <path
       d="M 41.969493,-10.275718 C 40.564074,-10.840013 37.5,-12.068568 33.5,-12.068568 c -4,0 -5.605143,0.323677 -9.199041,1.294568 m -0.534001,3.5047906 c 1.707548,0.9340587 5.519476,2.006789 9.519476,2.006789 4,0 8.648255,-1.3137469 9.804193,-2.0197102"
       id="path2884"
       style="opacity:0.6;fill:none;stroke:#fefefe;stroke-width:1.43869865;stroke-linecap:round;stroke-linejoin:round;stroke-miterlimit:4;stroke-opacity:1;stroke-dasharray:none" />
    <path
       d="m 30.314426,23.235609 c -1.835863,6.112375 -8.670275,6.48627 -13.256013,6.673708 -4.689324,-0.254714 -11.292725,-0.547403 -13.256014,-6.673708 1.834475,-6.113519 8.670377,-6.487342 13.256014,-6.674798 4.689189,0.254807 11.294155,0.547263 13.256013,6.674798 z"
       id="path3278-3"
       style="color:#000000;fill:url(#radialGradient3918);fill-opacity:1;fill-rule:nonzero;stroke:none;stroke-width:1;marker:none;visibility:visible;display:inline;overflow:visible" />
    <path
       d="m 7.429,-11.540853 0,34.728952 c -0.01865,2.257987 4.195959,3.771048 8.999688,3.771048 4.893032,0 10.167344,-1.596082 10.148698,-3.771048 l 0,-34.728952 c -0.07066,-1.759862 -6.148698,-3.5 -10.148698,-3.5 -4,0 -15.994282,3.027392 -8.999688,3.5 z"
       id="path2957-3"
       style="opacity:0.6;fill:url(#linearGradient3988);fill-opacity:1;stroke:#454545;stroke-width:1.4389745px;stroke-linecap:butt;stroke-linejoin:round;stroke-opacity:1" />
    <path
       d="m 25.646309,23.162259 c -6.49e-4,0.846179 -1.053317,1.363479 -2.677488,1.961733 -1.624171,0.598254 -3.799857,1.2701 -6.096458,1.2701 -2.2966,0 -4.579069,-0.348272 -6.20324,-0.946526 C 9.0449517,24.849312 8.0990664,24.008438 8.0984177,23.162259 8.0977688,22.315776 9.0430739,21.47441 10.667371,20.875771 12.291667,20.277133 14.574937,19.9286 16.872363,19.9286 c 2.297427,0 4.580697,0.348533 6.204993,0.947171 1.624297,0.598639 2.569602,1.440005 2.568953,2.286488 z"
       id="path4263-2"
       style="fill:#fbfbfb;fill-opacity:0.49411765;stroke:none" />
    <path
       d="m 10.320145,2.184537 0,19.144179 c -0.01665,2.258051 2.683507,2.789033 6.261504,2.789033 3.577998,0 7.172956,-0.614006 7.156278,-2.789033 l 0,-19.144179 c -0.0632,-0.8970462 -3.151148,-2.22606177 -6.729146,-2.22606177 -3.577997,0 -6.705307,1.38269397 -6.688636,2.22606177 z"
       id="path4265-3"
       style="fill:url(#linearGradient3954);fill-opacity:1;stroke:url(#linearGradient3932);stroke-width:1.4389745px;stroke-linecap:butt;stroke-linejoin:miter;stroke-opacity:1" />
    <path
       d="m 6.7796786,-11.673509 0,34.397137 c -0.54835,3.737005 6.2800754,5.446699 10.5923944,4.868383 3.965221,-0.531769 8.426333,-1.946225 8.407687,-4.868383 l 0,-34.397137 c 0.01864,1.81004 -4.035836,2.93949 -8.035854,2.93949 -4.000017,0 -10.9828734,-1.046429 -10.9642274,-2.93949 z"
       id="path4251-8"
       style="fill:url(#linearGradient3986);fill-opacity:1;stroke:none" />
    <path
       d="m 22.823382,2.2736791 c 0,0.8183568 -2.788381,1.5629456 -5.85301,1.5629456 -3.064629,0 -5.746227,-0.6906599 -5.746227,-1.5090166 0,-0.8183568 2.949085,-1.56190683 5.746227,-1.61687462 2.74428,-0.053929 5.85301,0.74458882 5.85301,1.56294562 z"
       id="path4271-6"
       style="fill:url(#linearGradient3942);fill-opacity:1;stroke:none" />
    <path
       d="m 11.765055,3.1302339 0,17.8994391 c -0.01508,1.404005 2.092177,1.637894 5.315487,1.637894 3.223316,0 5.175555,-0.528987 5.16053,-1.691823 l 0,-17.8455101 C 22.184131,2.148592 20.250467,1.425963 17.027151,1.425963 c -3.22331,0 -5.277122,0.7511043 -5.262096,1.7042709 z"
       id="path2883-1"
       style="opacity:0.2;fill:none;stroke:#fefefe;stroke-width:1.4389745px;stroke-linecap:butt;stroke-linejoin:miter;stroke-opacity:1" />
    <path
       d="m 10.319995,1.778971 c -0.01662,1.7186984 3.119317,2.7892064 6.683926,2.7892064 3.564611,0 6.700261,-1.3690387 6.683643,-2.789"
       id="path4417-6"
       style="fill:none;stroke:url(#linearGradient3934);stroke-width:1.43869853;stroke-linecap:butt;stroke-linejoin:miter;stroke-miterlimit:4;stroke-opacity:1;stroke-dasharray:none" />
    <path
       d="m 26.428688,-11.540853 c -0.07066,1.759862 -6,3.5 -10,3.5 -4,0 -9.018334,-1.657264 -8.999688,-3.500147"
       id="path4440-0"
       style="opacity:0.6;fill:none;stroke:#686868;stroke-width:1.4389745px;stroke-linecap:butt;stroke-linejoin:round;stroke-opacity:1" />
    <rect
       width="3.8697126"
       height="30.557491"
       rx="1.1874357"
       ry="0.92807764"
       x="19.159679"
       y="-7.0572715"
       id="rect9419-9"
       style="fill:url(#linearGradient3920);fill-opacity:1;stroke:none;display:inline;filter:url(#filter9752-2);enable-background:new" />
    <path
       d="m 24.653676,-11.498614 c -1.048427,-0.887869 -3.833239,-1.967516 -7.833239,-1.967516 -4,0 -4.516641,0.331713 -8.110539,1.302604 m -0.00943,3.8761322 c 1.2987382,0.7199304 4.1276193,1.852257 8.1276193,1.852257 3.546958,0 7.062724,-1.4644881 8.39938,-2.0734338"
       id="path3922"
       style="opacity:0.6;fill:none;stroke:#fefefe;stroke-width:1.43869865;stroke-linecap:round;stroke-linejoin:round;stroke-miterlimit:4;stroke-opacity:1;stroke-dasharray:none" />
    <path
       d="m 48.5,25.865743 c -2.077393,5.618486 -9.810954,5.962169 -15,6.134462 -5.30626,-0.234133 -12.778417,-0.503172 -15,-6.134462 2.075821,-5.619538 9.811068,-5.963155 15,-6.135464 5.306109,0.234218 12.780036,0.503043 15,6.135464 z"
       id="path4302"
       style="color:#000000;fill:url(#radialGradient4330);fill-opacity:1;fill-rule:nonzero;stroke:none;stroke-width:1;marker:none;visibility:visible;display:inline;overflow:visible" />
    <path
       d="m 31.093789,-2.000092 -0.0034,4.5988501 -7.996564,22.1301019 c -0.01865,2.257987 6.196271,3.771048 11,3.771048 4.893032,0 11.018646,-1.596082 11,-3.771048 l -7.9966,-22.1301019 -0.0034,-4.5988501 c 0.467546,-1.1370095 -0.208311,-2.4586019 -3,-2.499908 -3.642854,-0.0539 -6.417682,1.7781595 -3,2.499908 z"
       id="path4304"
       style="opacity:0.6;fill:url(#linearGradient4332);fill-opacity:1;stroke:#454545;stroke-width:1.4389745px;stroke-linecap:butt;stroke-linejoin:round;stroke-opacity:1" />
    <path
       d="m 44.379073,24.871035 c -1.487869,1.950673 -7.250147,3.079271 -10.553083,3.164245 -3.270499,-0.24596 -8.055105,-0.773835 -9.958675,-3.232223 1.762848,-3.275331 6.655733,-3.714635 9.958675,-3.79961 3.270498,0.24596 8.831911,0.478359 10.553083,3.867588 z"
       id="path4306"
       style="fill:#fbfbfb;fill-opacity:0.49411765;stroke:none" />
    <path
       d="m 28.364598,18.576356 -1.690441,5.422901 c 2.333895,1.192854 4.146034,1.609652 7.420147,1.609652 3.274115,0 6.31419,-0.760041 7.633715,-1.825368 l -1.904016,-5.207185 c -0.0579,-0.751248 -2.455584,-1.973429 -5.729699,-1.973429 -3.274113,0 -5.744965,0.771075 -5.729706,1.973429 z"
       id="path4308"
       style="fill:url(#linearGradient4334);fill-opacity:1;stroke:url(#linearGradient4336);stroke-width:1.4389745px;stroke-linecap:butt;stroke-linejoin:miter;stroke-opacity:1" />
    <path
       d="M 31.865908,2.7219738 23.769307,24.778824 c 0.72977,1.677533 5.963091,3.174534 10.242625,3.120605 3.798715,-0.04787 10.23,-1.779099 10.265681,-3.029459 L 36.263989,2.5229704 c 0,-2.16355085 -0.772124,-2.04349227 -1.990415,-2.05246045 -1.185305,-0.008725 -2.407666,0.0624047 -2.407666,2.25146385 z"
       id="path4310"
       style="fill:url(#linearGradient4338);fill-opacity:1;stroke:none" />
    <path
       d="m 39.311005,18.842158 c -1.203782,1.635167 -3.455352,1.517578 -5.146164,1.559169 -1.757584,-0.08221 -4.875091,-0.166126 -5.146164,-1.559169 0.616476,-1.419453 3.455352,-1.517589 5.146164,-1.559176 1.757584,0.08221 3.486912,0.274014 5.146164,1.559176 z"
       id="path4312"
       style="fill:url(#linearGradient4340);fill-opacity:1;stroke:none" />
    <path
       d="m 29.840627,18.977196 -1.317814,4.351761 c 2.175691,0.798587 2.795802,0.829529 5.644998,0.829529 2.849197,0 3.148882,-0.299819 5.69839,-1.045245 l -1.424597,-3.974258 c -1.278274,-0.641435 -1.424596,-1.105116 -4.273793,-1.105116 -2.849196,0 -3.486201,0.302693 -4.327184,0.943329 z"
       id="path4314"
       style="opacity:0.2;fill:none;stroke:#fefefe;stroke-width:1.43897474px;stroke-linecap:butt;stroke-linejoin:miter;stroke-opacity:1" />
    <path
       d="m 28.282201,18.822337 c -0.01545,1.196245 2.490905,2.136961 5.812102,2.136961 3.321203,0 5.827586,-1.233125 5.812102,-2.136961"
       id="path4316"
       style="fill:none;stroke:url(#linearGradient4342);stroke-width:1.43869865;stroke-linecap:butt;stroke-linejoin:miter;stroke-miterlimit:4;stroke-opacity:1;stroke-dasharray:none" />
    <path
       d="m 36.5,-2.500092 c -0.07066,1.7598616 -1.866461,1.9658969 -3,2.000092 -1.382542,0.041707 -3.018646,-0.1572094 -3,-2.000092"
       id="path4318"
       style="opacity:0.6;fill:none;stroke:#585858;stroke-width:1.4389745px;stroke-linecap:butt;stroke-linejoin:round;stroke-opacity:1" />
    <rect
       width="5.3395739"
       height="19.333988"
       rx="0.5645842"
       ry="0.92807764"
       x="85.003357"
       y="-4.9191966"
       transform="matrix(0.96840132,-0.24939705,0.24939705,0.96840132,-48.766691,34.13394)"
       id="rect4320"
       style="fill:url(#linearGradient4344);fill-opacity:1;stroke:none;display:inline;filter:url(#filter9752);enable-background:new" />
    <path
       d="m 35.601934,-2.7132596 c -0.606644,-0.1757171 -0.826538,-0.4050422 -1.503608,-0.4050422 -0.581851,0 -1.13697,0.1372958 -1.842673,0.3273979 m -0.942334,3.40790751 c 0.526814,0.34388616 1.555308,0.29836484 2.422825,0.29836484 0.962742,0 2.20039,-0.23200968 3.337632,-1.13101476"
       id="path4322"
       style="opacity:0.5;fill:none;stroke:#fefefe;stroke-width:1.43869877;stroke-linecap:round;stroke-linejoin:round;stroke-miterlimit:4;stroke-opacity:1;stroke-dasharray:none" />
  </g>
</svg>
