<?xml version="1.0" encoding="UTF-8" standalone="no"?>
<svg
   version="1.1"
   width="32"
   height="32"
   id="svg9767"
   sodipodi:docname="applications-multimedia.svg"
   inkscape:version="1.2.2 (b0a8486541, 2022-12-01)"
   xmlns:inkscape="http://www.inkscape.org/namespaces/inkscape"
   xmlns:sodipodi="http://sodipodi.sourceforge.net/DTD/sodipodi-0.dtd"
   xmlns:xlink="http://www.w3.org/1999/xlink"
   xmlns="http://www.w3.org/2000/svg"
   xmlns:svg="http://www.w3.org/2000/svg"
   xmlns:rdf="http://www.w3.org/1999/02/22-rdf-syntax-ns#"
   xmlns:cc="http://creativecommons.org/ns#"
   xmlns:dc="http://purl.org/dc/elements/1.1/">
  <sodipodi:namedview
     id="namedview21"
     pagecolor="#ffffff"
     bordercolor="#666666"
     borderopacity="1.0"
     inkscape:pageshadow="2"
     inkscape:pageopacity="0.0"
     inkscape:pagecheckerboard="0"
     showgrid="false"
     inkscape:zoom="22.627417"
     inkscape:cx="15.114407"
     inkscape:cy="17.854446"
     inkscape:window-width="1317"
     inkscape:window-height="893"
     inkscape:window-x="604"
     inkscape:window-y="755"
     inkscape:window-maximized="0"
     inkscape:current-layer="svg9767"
     inkscape:snap-global="false"
     inkscape:showpageshadow="2"
     inkscape:deskcolor="#d1d1d1" />
  <defs
     id="defs9769">
    <linearGradient
       id="linearGradient1258">
      <stop
         id="stop1250"
         style="stop-color:#ffffff;stop-opacity:1"
         offset="0" />
      <stop
         id="stop1252"
         style="stop-color:#ffffff;stop-opacity:0.23529412"
         offset="0.02015998" />
      <stop
         id="stop1254"
         style="stop-color:#ffffff;stop-opacity:0.15686275"
         offset="1" />
      <stop
         id="stop1256"
         style="stop-color:#ffffff;stop-opacity:0.39215687"
         offset="1" />
    </linearGradient>
    <linearGradient
       id="linearGradient864">
      <stop
         style="stop-color:#ffa154;stop-opacity:1"
         offset="0"
         id="stop860" />
      <stop
         style="stop-color:#f37329;stop-opacity:1"
         offset="1"
         id="stop862" />
    </linearGradient>
    <linearGradient
       xlink:href="#linearGradient864"
       id="linearGradient866-3"
       x1="23.932209"
       y1="2.4120836"
       x2="23.932209"
       y2="21.493765"
       gradientUnits="userSpaceOnUse"
       gradientTransform="matrix(1.4210525,0,0,1.4210525,-12.42105,-1.0526286)" />
    <linearGradient
       gradientTransform="matrix(0.6756758,0,0,0.6756758,-0.2162229,-0.2162123)"
       gradientUnits="userSpaceOnUse"
       xlink:href="#linearGradient1258"
       id="linearGradient5397-6"
       y2="41.665707"
       x2="30.526697"
       y1="6.3348765"
       x1="30.526697" />
    <radialGradient
       gradientTransform="matrix(2.003784,0,0,1.4,27.98813,-17.4)"
       gradientUnits="userSpaceOnUse"
       xlink:href="#linearGradient3688-166-749"
       id="radialGradient3163"
       fy="43.5"
       fx="4.9929786"
       r="2.5"
       cy="43.5"
       cx="4.9929786" />
    <linearGradient
       id="linearGradient3688-166-749">
      <stop
         offset="0"
         style="stop-color:#181818;stop-opacity:1"
         id="stop2883" />
      <stop
         offset="1"
         style="stop-color:#181818;stop-opacity:0"
         id="stop2885" />
    </linearGradient>
    <radialGradient
       gradientTransform="matrix(2.003784,0,0,1.4,-20.01187,-104.4)"
       gradientUnits="userSpaceOnUse"
       xlink:href="#linearGradient3688-166-749"
       id="radialGradient3165"
       fy="43.5"
       fx="4.9929786"
       r="2.5"
       cy="43.5"
       cx="4.9929786" />
    <linearGradient
       gradientUnits="userSpaceOnUse"
       xlink:href="#linearGradient3702-501-757"
       id="linearGradient3167"
       y2="39.999443"
       x2="25.058096"
       y1="47.027729"
       x1="25.058096" />
    <linearGradient
       id="linearGradient3702-501-757">
      <stop
         offset="0"
         style="stop-color:#181818;stop-opacity:0"
         id="stop2895" />
      <stop
         offset="0.5"
         style="stop-color:#181818;stop-opacity:1"
         id="stop2897" />
      <stop
         offset="1"
         style="stop-color:#181818;stop-opacity:0"
         id="stop2899" />
    </linearGradient>
  </defs>
  <metadata
     id="metadata9772">
    <rdf:RDF>
      <cc:Work
         rdf:about="">
        <dc:format>image/svg+xml</dc:format>
        <dc:type
           rdf:resource="http://purl.org/dc/dcmitype/StillImage" />
      </cc:Work>
    </rdf:RDF>
  </metadata>
  <g
     style="opacity:0.4"
     id="g3712"
     transform="matrix(0.73684208,0,0,0.57142853,-1.6842104,4.1428588)">
    <rect
       style="fill:url(#radialGradient3163);fill-opacity:1;stroke:none"
       id="rect2801"
       y="40"
       x="38"
       height="7"
       width="5" />
    <rect
       style="fill:url(#radialGradient3165);fill-opacity:1;stroke:none"
       id="rect3696"
       transform="scale(-1)"
       y="-47"
       x="-10"
       height="7"
       width="5" />
    <rect
       style="fill:url(#linearGradient3167);fill-opacity:1;stroke:none"
       id="rect3700"
       y="40"
       x="10"
       height="7.0000005"
       width="28" />
  </g>
  <rect
     width="27"
     height="27"
     rx="1.5"
     ry="1.5"
     x="2.5"
     y="2.5"
     id="rect5505-21-8"
     style="color:#000000;display:inline;overflow:visible;visibility:visible;fill:url(#linearGradient866-3);fill-opacity:1;fill-rule:nonzero;stroke:none;stroke-width:1;marker:none;enable-background:accumulate" />
  <path
     id="path1057"
     style="color:#000000;clip-rule:nonzero;display:inline;overflow:visible;visibility:visible;isolation:auto;mix-blend-mode:normal;color-interpolation:sRGB;color-interpolation-filters:linearRGB;solid-color:#000000;solid-opacity:1;fill:#a62100;fill-opacity:0.5;fill-rule:nonzero;stroke:none;stroke-width:1.00225;stroke-linecap:butt;stroke-linejoin:miter;stroke-miterlimit:4;stroke-dasharray:none;stroke-dashoffset:0;stroke-opacity:1;marker:none;color-rendering:auto;image-rendering:auto;shape-rendering:auto;text-rendering:auto;enable-background:accumulate"
     d="m 22.382812,7.5 c -0.123328,0 -0.254311,5.315e-4 -0.394531,0.039063 L 13.011719,10.037109 C 12.450832,10.191187 12,10.810011 12,11.425781 v 1.25 0.628907 8.496093 a 3.302484,2.5243025 0 0 0 -1.386719,-0.236328 3.302484,2.5243025 0 0 0 -3.3027341,2.525391 3.302484,2.5243025 0 0 0 3.3027341,2.523437 3.302484,2.5243025 0 0 0 2.654297,-1.027343 c 0.507761,-0.459537 0.763407,-1.040105 0.730469,-1.63086 h 0.0039 L 14,13.804688 21,11.976562 v 7.753907 a 2.45,3.2187476 86.08906 0 0 -1.449219,-0.164063 2.45,3.2187476 86.08906 0 0 -3.042969,2.664063 2.45,3.2187476 86.08906 0 0 0.109376,0.498047 c 0.01269,0.043 0.02412,0.08624 0.04102,0.128906 0.06979,0.178004 0.176517,0.339377 0.306641,0.488281 a 2.45,3.2187476 86.08906 0 0 2.921875,1.109375 2.45,3.2187476 86.08906 0 0 2.83789,-1.658203 2.45,3.2187476 86.08906 0 0 0.0039,-0.0098 c 0.176625,-0.307873 0.269365,-0.641018 0.267578,-0.980468 H 23 V 10.253906 8.3730469 C 23,7.91122 22.77039,7.5 22.400391,7.5 Z" />
  <path
     id="path4192"
     style="color:#000000;clip-rule:nonzero;display:inline;overflow:visible;visibility:visible;isolation:auto;mix-blend-mode:normal;color-interpolation:sRGB;color-interpolation-filters:linearRGB;solid-color:#000000;solid-opacity:1;fill:#fffdfd;fill-opacity:1;fill-rule:nonzero;stroke:none;stroke-width:1.00225;stroke-linecap:butt;stroke-linejoin:miter;stroke-miterlimit:4;stroke-dasharray:none;stroke-dashoffset:0;stroke-opacity:1;marker:none;color-rendering:auto;image-rendering:auto;shape-rendering:auto;text-rendering:auto;enable-background:accumulate"
     d="m 22.382812,6.5 c -0.123328,0 -0.254311,5.315e-4 -0.394531,0.039063 L 13.011719,9.0371094 C 12.450832,9.1911873 12,9.8100111 12,10.425781 v 1.25 0.628907 8.496093 c -0.434334,-0.154744 -0.907522,-0.235386 -1.386719,-0.236328 -1.8245655,-1.06e-4 -3.3035209,1.130757 -3.3027341,2.525391 6.252e-4,1.39387 1.479167,2.523543 3.3027341,2.523437 1.047895,-0.0012 2.032876,-0.382407 2.654297,-1.027343 0.507761,-0.459537 0.763407,-1.040105 0.730469,-1.63086 h 0.0039 L 14,12.804688 21,10.976562 V 18.6 c -0.455679,-0.140133 -0.951786,-0.132233 -1.449219,-0.1 -1.773199,0.121714 -3.135468,1.380761 -3.042969,2.730469 0.01361,0.169108 0.05026,0.33602 0.109376,0.498047 0.01269,0.043 0.02412,0.08624 0.04102,0.128906 0.06979,0.178004 0.176517,0.339377 0.306641,0.488281 0.609488,0.761901 1.733475,1.188655 2.921875,1.109375 1.271948,-0.08706 2.384875,-0.737351 2.83789,-1.658203 0.0013,-0.0033 0.0026,-0.0065 0.0039,-0.0098 0.176625,-0.307873 0.269365,-0.641018 0.267578,-0.980468 H 23 V 9.2539062 7.3730469 C 23,6.91122 22.77039,6.5 22.400391,6.5 Z"
     sodipodi:nodetypes="sccscccccccccccccccccccccccsss" />
  <rect
     width="25.000002"
     height="25.000002"
     x="3.4999988"
     y="3.4999988"
     id="rect6741-9-0"
     style="opacity:0.5;fill:none;stroke:url(#linearGradient5397-6);stroke-width:1;stroke-linecap:round;stroke-linejoin:round;stroke-miterlimit:4;stroke-dasharray:none;stroke-dashoffset:0;stroke-opacity:1"
     rx="0.5"
     ry="0.5" />
  <rect
     width="27"
     height="27"
     rx="1.5"
     ry="1.5"
     x="2.5"
     y="2.5"
     id="rect5505-21-8-1-7"
     style="color:#000000;display:inline;overflow:visible;visibility:visible;opacity:0.5;fill:none;stroke:#a62100;stroke-width:1;stroke-linecap:round;stroke-linejoin:round;stroke-miterlimit:4;stroke-dasharray:none;stroke-dashoffset:0;stroke-opacity:1;marker:none;enable-background:accumulate" />
</svg>
