<?xml version="1.0" encoding="UTF-8" standalone="no"?>
<svg
   xmlns:dc="http://purl.org/dc/elements/1.1/"
   xmlns:cc="http://creativecommons.org/ns#"
   xmlns:rdf="http://www.w3.org/1999/02/22-rdf-syntax-ns#"
   xmlns:svg="http://www.w3.org/2000/svg"
   xmlns="http://www.w3.org/2000/svg"
   xmlns:xlink="http://www.w3.org/1999/xlink"
   id="svg2514"
   height="32"
   width="32"
   version="1.0">
  <metadata
     id="metadata207260">
    <rdf:RDF>
      <cc:Work
         rdf:about="">
        <dc:format>image/svg+xml</dc:format>
        <dc:type
           rdf:resource="http://purl.org/dc/dcmitype/StillImage" />
        <dc:title />
      </cc:Work>
    </rdf:RDF>
  </metadata>
  <defs
     id="defs2516">
    <radialGradient
       xlink:href="#linearGradient5048"
       r="14.875"
       id="radialGradient1975"
       gradientUnits="userSpaceOnUse"
       gradientTransform="matrix(1,0,0,0.420168,0,21.88866)"
       fy="37.75"
       fx="23.25"
       cy="37.75"
       cx="23.25" />
    <linearGradient
       id="linearGradient5048">
      <stop
         style="stop-color:#000000;stop-opacity:1;"
         offset="0"
         id="stop5050" />
      <stop
         style="stop-color:#000000;stop-opacity:0;"
         offset="1"
         id="stop5052" />
    </linearGradient>
    <radialGradient
       xlink:href="#linearGradient5048"
       r="14.875"
       id="radialGradient1977"
       gradientUnits="userSpaceOnUse"
       gradientTransform="matrix(1,0,0,0.420168,0,21.88866)"
       fy="37.75"
       fx="23.25"
       cy="37.75"
       cx="23.25" />
    <linearGradient
       y2="14.1875"
       y1="14.1875"
       xlink:href="#linearGradient5068"
       x2="37.625"
       x1="11.75"
       id="linearGradient2043"
       gradientUnits="userSpaceOnUse" />
    <linearGradient
       id="linearGradient5068">
      <stop
         style="stop-color:#ffffff;stop-opacity:1;"
         offset="0"
         id="stop5070" />
      <stop
         style="stop-color:#ffffff;stop-opacity:0.69;"
         offset="0.32894737"
         id="stop5078" />
      <stop
         style="stop-color:#c2c2c2;stop-opacity:0.34;"
         offset="0.65789473"
         id="stop5076" />
      <stop
         style="stop-color:#ffffff;stop-opacity:0;"
         offset="1"
         id="stop5072" />
    </linearGradient>
    <linearGradient
       y2="22.250591"
       y1="17.376184"
       xlink:href="#linearGradient2966"
       x2="50.988335"
       x1="48.90625"
       id="linearGradient1981"
       gradientUnits="userSpaceOnUse"
       gradientTransform="matrix(0.00525957,0.999987,0.999987,-0.00525957,42.9955,-2.496241)" />
    <linearGradient
       id="linearGradient2966">
      <stop
         style="stop-color:#ffd1d1;stop-opacity:1;"
         offset="0"
         id="stop2968" />
      <stop
         style="stop-color:#ff1d1d;stop-opacity:1;"
         offset="0.5"
         id="stop3006" />
      <stop
         style="stop-color:#6f0000;stop-opacity:1;"
         offset="1"
         id="stop2970" />
    </linearGradient>
    <linearGradient
       y2="22.625"
       y1="19.8125"
       xlink:href="#linearGradient2974"
       x2="47.6875"
       x1="46"
       id="linearGradient1983"
       gradientUnits="userSpaceOnUse"
       gradientTransform="matrix(0.00525957,0.999987,0.999987,-0.00525957,42.99552,-2.496241)" />
    <linearGradient
       id="linearGradient2974">
      <stop
         style="stop-color:#c1c1c1;stop-opacity:1;"
         offset="0"
         id="stop2976" />
      <stop
         style="stop-color:#acacac;stop-opacity:1;"
         offset="1"
         id="stop2978" />
    </linearGradient>
    <radialGradient
       xlink:href="#linearGradient2984"
       r="3.2408545"
       id="radialGradient1985"
       gradientUnits="userSpaceOnUse"
       gradientTransform="matrix(0.0153767,2.923527,2.029691,-0.01067544,20.39098,-69.72665)"
       fy="27.640751"
       fx="29.053354"
       cy="27.640751"
       cx="29.053354" />
    <linearGradient
       id="linearGradient2984">
      <stop
         style="stop-color:#e7e2b8;stop-opacity:1;"
         offset="0"
         id="stop2986" />
      <stop
         style="stop-color:#e7e2b8;stop-opacity:0;"
         offset="1"
         id="stop2988" />
    </linearGradient>
    <linearGradient
       y2="30.703125"
       y1="31.046875"
       xlink:href="#linearGradient2994"
       x2="25.514589"
       x1="25.71875"
       id="linearGradient1987"
       gradientUnits="userSpaceOnUse"
       gradientTransform="matrix(0.00525957,0.999987,0.999987,-0.00525957,48.6929,-14.14491)" />
    <linearGradient
       id="linearGradient2994">
      <stop
         style="stop-color:#000000;stop-opacity:1;"
         offset="0"
         id="stop2996" />
      <stop
         style="stop-color:#c9c9c9;stop-opacity:1;"
         offset="1"
         id="stop2998" />
    </linearGradient>
    <linearGradient
       y2="68.224884"
       y1="60.445503"
       xlink:href="#linearGradient9910"
       x2="28.244684"
       x1="28.244684"
       id="linearGradient2024"
       gradientUnits="userSpaceOnUse"
       gradientTransform="matrix(-0.328869,-0.47777,0.47777,-0.328869,-6.178543,52.94616)" />
    <linearGradient
       id="linearGradient9910">
      <stop
         style="stop-color:#729fcf;stop-opacity:1;"
         offset="0"
         id="stop9912" />
      <stop
         style="stop-color:#a5bfda;stop-opacity:1;"
         offset="0.31578946"
         id="stop9918" />
      <stop
         style="stop-color:#376ca4;stop-opacity:1;"
         offset="1"
         id="stop9914" />
    </linearGradient>
    <linearGradient
       y2="68.224884"
       y1="60.445503"
       xlink:href="#linearGradient5461"
       x2="28.244684"
       x1="28.244684"
       id="linearGradient2021"
       gradientUnits="userSpaceOnUse"
       gradientTransform="matrix(-0.328869,-0.47777,0.47777,-0.328869,-6.178543,52.94616)" />
    <linearGradient
       id="linearGradient5461">
      <stop
         style="stop-color:#dfe2e3;stop-opacity:1"
         offset="0"
         id="stop5463" />
      <stop
         id="stop5475"
         offset="0.14285721"
         style="stop-color:#282a2a;stop-opacity:1;" />
      <stop
         id="stop5465"
         offset="0.46561521"
         style="stop-color:#cacaca;stop-opacity:1;" />
      <stop
         style="stop-color:#ffffff;stop-opacity:1;"
         offset="0.77618349"
         id="stop5467" />
      <stop
         id="stop5473"
         offset="0.89721245"
         style="stop-color:#a0a1a0;stop-opacity:1;" />
      <stop
         style="stop-color:#eeeeec;stop-opacity:1"
         offset="1"
         id="stop5469" />
    </linearGradient>
    <linearGradient
       y2="26.0846"
       y1="26.0846"
       xlink:href="#linearGradient5036"
       x2="34.250416"
       x1="15.375"
       id="linearGradient2010"
       gradientUnits="userSpaceOnUse"
       gradientTransform="matrix(0.666667,0,0,0.68836,1.6694802e-4,3.193292)" />
    <linearGradient
       id="linearGradient5036">
      <stop
         style="stop-color:#f5f5f5;stop-opacity:0.09;"
         offset="0"
         id="stop5038" />
      <stop
         style="stop-color:#ffffff;stop-opacity:0.89999998;"
         offset="0.2631579"
         id="stop5044" />
      <stop
         style="stop-color:#c7c7c7;stop-opacity:0.46000001;"
         offset="0.74792242"
         id="stop5088" />
      <stop
         style="stop-color:#ffffff;stop-opacity:0.78039217;"
         offset="1"
         id="stop5040" />
    </linearGradient>
    <linearGradient
       y2="19.0846"
       y1="19.4596"
       xlink:href="#linearGradient5058"
       x2="15.625"
       x1="30.875"
       id="linearGradient2012"
       gradientUnits="userSpaceOnUse"
       gradientTransform="matrix(0.666667,0,0,0.68836,1.6694802e-4,3.193292)" />
    <linearGradient
       id="linearGradient5058">
      <stop
         style="stop-color:#959791;stop-opacity:1;"
         offset="0"
         id="stop5060" />
      <stop
         style="stop-color:#f8f8f8;stop-opacity:1;"
         offset="0.5"
         id="stop5066" />
      <stop
         style="stop-color:#8c8c8c;stop-opacity:1;"
         offset="1"
         id="stop5062" />
    </linearGradient>
    <linearGradient
       y2="62.827091"
       y1="62.401989"
       xlink:href="#linearGradient9952"
       x2="38.061356"
       x1="55.876038"
       id="linearGradient2015"
       gradientUnits="userSpaceOnUse"
       gradientTransform="matrix(-0.294837,-0.429519,0.428329,-0.295656,-4.672869,48.43391)" />
    <linearGradient
       id="linearGradient9952">
      <stop
         style="stop-color:#ffffff;stop-opacity:1;"
         offset="0"
         id="stop9954" />
      <stop
         style="stop-color:#ffffff;stop-opacity:0;"
         offset="1"
         id="stop9956" />
    </linearGradient>
    <linearGradient
       y2="49.735909"
       y1="29.577847"
       xlink:href="#linearGradient6395"
       x2="20.682873"
       x1="20.682873"
       id="linearGradient2005"
       gradientUnits="userSpaceOnUse"
       gradientTransform="scale(0.666667,0.666667)" />
    <linearGradient
       id="linearGradient6395">
      <stop
         style="stop-color:#ffffff;stop-opacity:1;"
         offset="0"
         id="stop6397" />
      <stop
         style="stop-color:#ffffff;stop-opacity:0;"
         offset="1"
         id="stop6399" />
    </linearGradient>
    <linearGradient
       y2="68.224884"
       x2="28.244684"
       y1="60.445503"
       x1="28.244684"
       gradientTransform="matrix(-0.328869,-0.47777,0.47777,-0.328869,-6.178543,52.94616)"
       gradientUnits="userSpaceOnUse"
       id="linearGradient4649"
       xlink:href="#linearGradient5461" />
  </defs>
  <g
     transform="translate(0.05342135,0.0333175)"
     style="display:inline;enable-background:new"
     id="g32">
    <ellipse
       d="m 37.625,37.75 c 0,3.175637 -6.435907,5.75 -14.375,5.75 -7.939093,0 -14.375,-2.574363 -14.375,-5.75 0,-3.175637 6.435907,-5.75 14.375,-5.75 7.939093,0 14.375,2.574363 14.375,5.75 z"
       transform="matrix(0.666667,0,0,0.666667,0.666667,2.666668)"
       style="opacity:0.31868131;fill:url(#radialGradient1975);fill-opacity:1;fill-rule:evenodd;stroke:none;stroke-width:1;marker:none;visibility:visible;display:inline;overflow:visible"
       id="path118"
       cx="23.25"
       cy="37.75"
       rx="14.375"
       ry="5.75" />
    <ellipse
       d="m 33.5,36.8125 c 0,1.622336 -3.833562,2.9375 -8.5625,2.9375 -4.728938,0 -8.5625,-1.315164 -8.5625,-2.9375 0,-1.622336 3.833562,-2.9375 8.5625,-2.9375 4.728938,0 8.5625,1.315164 8.5625,2.9375 z"
       transform="matrix(0.666667,0,0,0.666667,-0.08333338,3.166668)"
       style="opacity:0.6978022;fill:#ffffff;fill-opacity:1;fill-rule:evenodd;stroke:none;stroke-width:1;marker:none;visibility:visible;display:inline;overflow:visible"
       id="path120"
       cx="24.9375"
       cy="36.8125"
       rx="8.5625"
       ry="2.9375" />
    <ellipse
       d="m 37.625,37.75 c 0,3.175637 -6.435907,5.75 -14.375,5.75 -7.939093,0 -14.375,-2.574363 -14.375,-5.75 0,-3.175637 6.435907,-5.75 14.375,-5.75 7.939093,0 14.375,2.574363 14.375,5.75 z"
       transform="matrix(0.382609,0,0,0.382609,7.271017,13.05653)"
       style="opacity:0.78571424;fill:url(#radialGradient1977);fill-opacity:1;fill-rule:evenodd;stroke:none;stroke-width:1;marker:none;visibility:visible;display:inline;overflow:visible"
       id="path122"
       cx="23.25"
       cy="37.75"
       rx="14.375"
       ry="5.75" />
    <ellipse
       d="m 37.125,14.1875 c 0,3.14112 -5.568458,5.6875 -12.4375,5.6875 -6.869042,0 -12.4375,-2.54638 -12.4375,-5.6875 0,-3.14112 5.568458,-5.6875 12.4375,-5.6875 6.869042,0 12.4375,2.54638 12.4375,5.6875 z"
       transform="matrix(0.670017,0,0,0.615385,-0.124372,4.269225)"
       style="fill:url(#linearGradient2043);fill-opacity:1;fill-rule:evenodd;stroke:#8c8c8c;stroke-width:1.55734074;stroke-linecap:butt;stroke-linejoin:miter;stroke-miterlimit:4;stroke-opacity:1;stroke-dasharray:none;stroke-dashoffset:0;marker:none;visibility:visible;display:inline;overflow:visible"
       id="path124"
       cx="24.6875"
       cy="14.1875"
       rx="12.4375"
       ry="5.6875" />
    <g
       transform="matrix(0.666667,0,0,0.666667,-26.83335,-5.000002)"
       id="g126">
      <path
         style="fill:#cb9022;fill-opacity:1;fill-rule:evenodd;stroke:none;stroke-width:1.50000119;marker:none;visibility:visible;display:inline;overflow:visible"
         id="path128"
         d="M 81.189325,8.8512115 75.593983,14.505723 60.324794,46.150492 c -1.23289,3.256532 3.40224,5.169682 5.012098,2.286172 L 80.231414,16.856367 81.189325,8.8512115 Z" />
      <path
         style="fill:url(#linearGradient1981);fill-opacity:1;fill-rule:evenodd;stroke:none;stroke-width:1;marker:none;visibility:visible;display:inline;overflow:visible"
         id="path130"
         d="m 63.226659,41.398 c 0,0 0.101309,1.436989 1.354252,1.992907 1.290792,0.572712 2.656215,-0.01397 2.656215,-0.01397 l -2.442255,5.044169 c 0,0 -0.873719,1.456649 -2.840262,0.671199 -1.93968,-0.774722 -1.17037,-2.681384 -1.17037,-2.681384 l 2.44242,-5.01292 z" />
      <path
         style="fill:url(#linearGradient1983);fill-opacity:1;fill-rule:evenodd;stroke:none;stroke-width:1;marker:none;visibility:visible;display:inline;overflow:visible"
         id="path132"
         d="m 63.226659,41.398 c 0,0 0.101309,1.436989 1.354252,1.992907 1.290792,0.572712 2.656215,-0.01397 2.656215,-0.01397 l -0.989468,2.005234 c 0,0 -1.3145,0.833957 -2.686314,0.232882 -1.409519,-0.617596 -1.324153,-2.211818 -1.324153,-2.211818 L 63.226659,41.398 Z" />
      <path
         style="fill:url(#radialGradient1985);fill-opacity:1;fill-rule:evenodd;stroke:none;stroke-width:1;marker:none;visibility:visible;display:inline;overflow:visible"
         id="path134"
         d="m 80.47809,10.282021 -4.476274,4.52361 c 0.820379,1.495707 2.168221,2.269879 3.728563,1.855416 l 0.747711,-6.379026 z" />
      <path
         style="fill:url(#linearGradient1987);fill-opacity:1;fill-rule:evenodd;stroke:none;stroke-width:1;marker:none;visibility:visible;display:inline;overflow:visible"
         id="path136"
         d="m 79.078925,11.63315 1.585183,-1.6333612 -0.300169,2.3453632 c -0.71759,0.222527 -1.063472,-0.181909 -1.285014,-0.712002 z" />
      <path
         style="fill:#ffffff;fill-opacity:0.36363639;fill-rule:evenodd;stroke:none;stroke-width:1;marker:none;visibility:visible;display:inline;overflow:visible"
         id="path138"
         d="M 75.970567,14.805795 77.228768,16.3617 64.439998,43.316362 C 63.581628,42.876439 63.348884,42.080316 63.26774,41.419121 L 75.970567,14.805795 Z" />
      <path
         style="fill:#000000;fill-opacity:0.36363639;fill-rule:evenodd;stroke:none;stroke-width:1;marker:none;visibility:visible;display:inline;overflow:visible"
         id="path140"
         d="m 79.792879,16.660719 -0.749004,0.191442 -12.549399,26.768391 c 0,0 0.61304,-0.113386 0.748205,-0.219818 L 79.792879,16.660719 Z" />
    </g>
    <path
       style="fill:none;stroke:#5c410c;stroke-width:1.00000131;stroke-linecap:butt;stroke-linejoin:miter;stroke-miterlimit:4;stroke-opacity:1;stroke-dasharray:none;stroke-dashoffset:0;marker:none;visibility:visible;display:inline;overflow:visible"
       id="path2933"
       d="M 27.292894,0.90080862 23.562664,4.6704848 13.383199,25.767008 c -0.821927,2.171022 2.268162,3.446456 3.341401,1.524115 L 26.654286,6.2375816 27.292894,0.90080862 Z" />
    <path
       style="fill:#e7e7e7;fill-opacity:1;fill-rule:evenodd;stroke:#7d7d7d;stroke-width:1;stroke-linecap:butt;stroke-linejoin:miter;stroke-miterlimit:4;stroke-opacity:1;stroke-dashoffset:0;marker:none;visibility:visible;display:inline;overflow:visible"
       id="path145"
       d="m 15.917771,19.668513 c 0.588274,-0.404935 2.253877,1.056474 3.754654,3.236749 1.500778,2.180275 1.812556,4.57358 1.682946,4.662797 -0.144452,0.09943 -2.253877,-1.056474 -3.754656,-3.23675 -1.500777,-2.180275 -2.271219,-4.257862 -1.682944,-4.662796 z" />
    <g
       transform="matrix(0.530676,0.05505374,-0.05505374,0.530676,1.020475,-0.486646)"
       id="g147">
      <path
         transform="matrix(-0.56251,-0.817194,0.825069,-0.567931,-15.22056,83.88674)"
         style="fill:none;stroke:#888a85;stroke-width:1.88025391;stroke-linecap:butt;stroke-linejoin:miter;stroke-miterlimit:4;stroke-opacity:1;stroke-dasharray:none;stroke-dashoffset:0;marker:none;visibility:visible;display:inline;overflow:visible"
         id="path149"
         d="m 32.085889,57.685642 c 5.659041,-1.883956 13.873815,-1.479601 18.348211,0.903153 1.228632,0.654285 2.087743,1.41766 2.512332,2.232366" />
      <path
         transform="matrix(-0.56251,-0.817194,0.825069,-0.567931,-14.28556,81.45324)"
         style="fill:#729fcf;fill-opacity:1;fill-rule:evenodd;stroke:#888a85;stroke-width:1.88025391;stroke-linecap:butt;stroke-linejoin:miter;stroke-miterlimit:4;stroke-opacity:1;stroke-dasharray:none;stroke-dashoffset:0;marker:none;visibility:visible;display:inline;overflow:visible"
         id="path151"
         d="m 36.364517,54.473244 c 0.492291,0.823974 -0.391117,1.699791 -1.973146,1.956192 -1.515586,0.245633 -3.136253,-0.166118 -3.69754,-0.939407 L 33.5,54.9375 z" />
    </g>
    <path
       style="fill:url(#linearGradient2024);fill-opacity:1;fill-rule:evenodd;stroke:#3465a4;stroke-width:1.00000024;stroke-linecap:butt;stroke-linejoin:miter;stroke-miterlimit:4;stroke-opacity:1;stroke-dasharray:none;stroke-dashoffset:0;marker:none;visibility:visible;display:inline;overflow:visible"
       id="path153"
       d="m 12.206337,18.030594 c 1.961207,2.769808 3.888554,5.168674 5.479041,6.892449 l 2.578343,-1.774786 C 19.089502,20.781323 17.26077,17.71838 15.043347,14.496989 11.040735,8.682141 7.0716289,4.2521961 5.5016698,3.7266765 5.4534891,3.7114075 5.3888779,3.6913079 5.3454117,3.6836868 c -0.030559,-0.00465 -0.075832,-0.00307 -0.103913,-0.00375 -0.044127,2.04e-4 -0.1007034,0.00931 -0.138291,0.019917 -0.00919,0.00298 -0.037327,0.003 -0.046097,0.00664 -0.00856,0.00397 -0.026242,0.019027 -0.034378,0.023664 -0.00396,0.00249 -0.013334,0.00918 -0.017189,0.011832 -0.00385,0.00265 -0.013453,0.00902 -0.017189,0.011832 -0.00724,0.00594 -0.027613,0.017086 -0.034378,0.023664 -0.00653,0.00689 -0.016595,0.033169 -0.022659,0.040689 -0.023323,0.031325 -0.052033,0.08092 -0.067977,0.1220659 -0.00939,0.026472 -0.027037,0.068197 -0.033599,0.098403 -0.0084,0.043322 -0.012692,0.1108516 -0.015631,0.1613084 -0.069623,1.6541149 2.6513188,6.9432259 6.6539303,12.7580739 0.249052,0.361813 0.490151,0.722114 0.738295,1.072568 z" />
    <path
       style="fill:url(#linearGradient4649);fill-opacity:1;fill-rule:evenodd;stroke:#888a85;stroke-width:1.00000024;stroke-linecap:butt;stroke-linejoin:miter;stroke-miterlimit:4;stroke-opacity:1;stroke-dasharray:none;stroke-dashoffset:0;marker:none;visibility:visible;display:inline;overflow:visible"
       id="path155"
       d="m 9.1625232,13.903078 c 0.4980316,0.69838 1.0139698,1.369408 1.5039388,2.000852 l 3.609682,-2.484701 C 13.685985,12.447554 13.030594,11.425722 12.322989,10.39774 8.9457858,5.4914617 5.4610571,1.8479533 3.9610158,1.5252736 c -0.013177,-0.00261 -0.044953,-0.00831 -0.057816,-0.010386 -0.012704,-0.00181 -0.045431,-0.00911 -0.057816,-0.010386 -0.030563,-0.00254 -0.075384,-0.00458 -0.103913,-0.00375 -0.011247,6.039e-4 -0.035183,0.00549 -0.046097,0.00664 -0.032242,0.00427 -0.080194,0.015873 -0.1093829,0.02511 -0.00956,0.00336 -0.036886,0.00272 -0.046097,0.00664 -0.013555,0.0063 -0.038803,0.027929 -0.051567,0.035496 -0.00417,0.00266 -0.013112,0.00903 -0.017189,0.011832 -0.00408,0.00281 -0.013213,0.00889 -0.017189,0.011832 -0.011625,0.00922 -0.040846,0.025082 -0.051567,0.035496 -0.00695,0.00721 -0.01611,0.032959 -0.022659,0.040689 -0.019049,0.023968 -0.04701,0.064615 -0.062507,0.093209 -0.00497,0.00979 -0.018079,0.030398 -0.022659,0.040689 -0.010961,0.026352 -0.025055,0.068949 -0.033599,0.098403 -0.00323,0.012026 -0.0081,0.045199 -0.01094,0.057713 -0.00265,0.012756 -0.00867,0.044474 -0.01094,0.057714 C 3.0049474,3.5386 5.164214,8.0944814 8.5414183,13.00076 c 0.2101367,0.305279 0.4107288,0.607313 0.6211049,0.902318 z" />
    <path
       style="opacity:0.53846154;fill:none;stroke:#ffffff;stroke-width:1.50000036;stroke-linecap:butt;stroke-linejoin:miter;stroke-miterlimit:4;stroke-opacity:1;stroke-dasharray:none;stroke-dashoffset:0;marker:none;visibility:visible;display:inline;overflow:visible"
       id="path143"
       d="M 23.711466,14.906674 22.305294,27.24993 c -0.560828,3.218206 -11.140087,3.253382 -11.777392,0 L 9.0629326,14.948292 c 1.4021464,3.521561 13.9782384,2.999782 14.6485334,-0.04162 z" />
    <path
       style="fill:url(#linearGradient2010);fill-opacity:1;fill-rule:evenodd;stroke:url(#linearGradient2012);stroke-width:1.0000006;stroke-linecap:butt;stroke-linejoin:miter;stroke-miterlimit:4;stroke-opacity:1;stroke-dasharray:none;stroke-dashoffset:0;marker:none;visibility:visible;display:inline;overflow:visible"
       id="path157"
       d="m 24.750179,13.08847 -1.916667,14.713701 c -0.611112,3.577519 -12.138895,3.616621 -12.83334,0 L 8.0245789,13.093689 c 1.074034,4.479321 15.9339891,4.838858 16.7256001,-0.0052 z" />
    <path
       style="fill:url(#linearGradient2021);fill-opacity:1;fill-rule:evenodd;stroke:#888a85;stroke-width:1.00000024;stroke-linecap:butt;stroke-linejoin:miter;stroke-miterlimit:4;stroke-opacity:1;stroke-dasharray:none;stroke-dashoffset:0;marker:none;visibility:visible;display:inline;overflow:visible"
       id="path159"
       d="M 4.133565,5.3458768 6.6775313,3.5947546 C 5.3276181,2.0849046 4.1091588,1.1523604 3.4515146,1.1899267 c -0.0042,3.226e-4 -0.020193,0.00104 -0.024342,0.00144 -0.0041,4.844e-4 -0.020286,8.747e-4 -0.024342,0.00144 -0.00401,6.465e-4 -0.020382,7.118e-4 -0.024343,0.00144 -0.023472,0.00486 -0.061345,0.018723 -0.083063,0.026543 -0.00357,0.00139 -0.013669,0.010362 -0.017189,0.011832 -0.00347,0.00155 -0.020922,-1.966e-4 -0.024342,0.00144 -0.00337,0.00172 -0.013871,0.010027 -0.017189,0.011832 -0.00327,0.00189 -0.013973,0.00986 -0.017189,0.011832 -0.00317,0.00206 -0.014076,0.00969 -0.017189,0.011832 -0.00311,0.00214 -0.014137,0.00961 -0.017189,0.011832 -0.00299,0.0023 -0.014258,0.00945 -0.017189,0.011832 -0.00287,0.00246 -0.014379,0.0093 -0.017189,0.011832 -0.00275,0.00261 -0.00735,0.019537 -0.010036,0.022224 -0.00263,0.00276 -0.014619,0.00899 -0.017189,0.011832 -0.015058,0.017494 -0.041533,0.047921 -0.05445,0.068112 -0.00209,0.00344 -0.008,0.018711 -0.010035,0.022224 -0.00198,0.00359 -0.00812,0.018565 -0.010036,0.022224 -0.00186,0.00373 -0.00824,0.018419 -0.010035,0.022224 -0.2698833,0.6008911 0.1661872,2.0719874 1.0945853,3.8719845 z" />
    <path
       style="opacity:0.35714285;fill:none;stroke:url(#linearGradient2015);stroke-width:1.00000036;stroke-linecap:round;stroke-linejoin:round;stroke-miterlimit:4;stroke-opacity:1;stroke-dasharray:none;stroke-dashoffset:0;marker:none;visibility:visible;display:inline;overflow:visible"
       id="path161"
       d="m 10.081156,13.567294 c 0.112857,0.160213 0.226002,0.309483 0.338112,0.466378 l 2.241053,-1.54871 C 12.353621,12.018473 11.921172,11.257556 11.598697,10.772556 7.8860323,5.1887432 4.2472877,2.3986293 4.0955892,2.5028139 3.9287195,2.6174179 5.3892607,6.9841274 9.17426,12.259011 c 0.222229,0.309704 0.6930598,1.004724 0.906896,1.308283 z" />
    <path
       style="opacity:0.72527472;fill:#ffffff;fill-opacity:1;fill-rule:evenodd;stroke:none;stroke-width:1;marker:none;visibility:visible;display:inline;overflow:visible"
       id="path163"
       d="M 26.987922,1.6827975 23.805941,4.9237053 18.266934,16.443659 24.071105,5.247796 26.987922,1.6827975 Z" />
    <path
       style="opacity:0.41758243;fill:#ffffff;fill-opacity:1;fill-rule:evenodd;stroke:none;stroke-width:1;marker:none;visibility:visible;display:inline;overflow:visible"
       id="path165"
       d="M 26.899534,1.6827975 26.310278,6.1611427 21.80247,15.766015 26.162964,6.1316799 25.80941,6.1906055 26.899534,1.6827975 Z" />
    <path
       style="fill:url(#linearGradient2005);fill-opacity:1;fill-rule:evenodd;stroke:none;stroke-width:1;marker:none;visibility:visible;display:inline;overflow:visible"
       id="path167"
       d="m 12.315449,16.856138 0.648182,12.610077 2.180247,0.353554 0.117851,-12.610077 -2.94628,-0.353554 z" />
  </g>
</svg>
