<?xml version="1.0" encoding="UTF-8" standalone="no"?>
<svg
   width="16"
   height="16"
   version="1.1"
   id="svg57256"
   sodipodi:docname="nm-vpn-connecting05-symbolic.svg"
   inkscape:version="1.2.2 (b0a8486541, 2022-12-01)"
   xmlns:inkscape="http://www.inkscape.org/namespaces/inkscape"
   xmlns:sodipodi="http://sodipodi.sourceforge.net/DTD/sodipodi-0.dtd"
   xmlns="http://www.w3.org/2000/svg"
   xmlns:svg="http://www.w3.org/2000/svg">
  <sodipodi:namedview
     id="namedview57258"
     pagecolor="#ffffff"
     bordercolor="#000000"
     borderopacity="0.25"
     inkscape:showpageshadow="2"
     inkscape:pageopacity="0.0"
     inkscape:pagecheckerboard="0"
     inkscape:deskcolor="#d1d1d1"
     showgrid="false"
     inkscape:zoom="36.545455"
     inkscape:cx="7.9490049"
     inkscape:cy="11.041045"
     inkscape:window-width="1920"
     inkscape:window-height="1020"
     inkscape:window-x="0"
     inkscape:window-y="0"
     inkscape:window-maximized="1"
     inkscape:current-layer="svg57256" />
  <defs
     id="defs57248">
    <linearGradient
       id="linearGradient3605"
       x1="7"
       x2="19"
       y1="12"
       y2="5"
       gradientTransform="matrix(0.97515,0.22155,0.22155,-0.97515,-6.3604237,17.042622)"
       gradientUnits="userSpaceOnUse">
      <stop
         offset="0"
         stop-color="#555761"
         stop-opacity=".5"
         id="stop57238" />
      <stop
         offset="1"
         stop-color="#555761"
         stop-opacity="0"
         id="stop57240" />
    </linearGradient>
    <linearGradient
       id="linearGradient3611"
       x1="7"
       x2="17"
       y1="12"
       y2="12"
       gradientTransform="matrix(-0.97515,-0.22155,-0.22155,0.97515,22.360776,-1.0435779)"
       gradientUnits="userSpaceOnUse">
      <stop
         offset="0"
         stop-color="#555761"
         id="stop57243" />
      <stop
         offset="1"
         stop-color="#555761"
         stop-opacity=".5"
         id="stop57245" />
    </linearGradient>
  </defs>
  <path
     style="fill:url(#linearGradient3611)"
     d="m 8.1447763,0.99962215 c -3.2558,-0.0703 -6.2217,2.15059995 -6.9712,5.44919995 l 1.9512,0.4434 c 0.6118,-2.6928 3.2924,-4.3793 5.984,-3.7676 2.3209997,0.5274 3.8719997,2.5928 3.8699997,4.877 0.007,0 0.014,-0.002 0.021,-0.002 0.75,0 1.424,0.294 1.947,0.758 0.385,-3.4893 -1.891,-6.7878 -5.3959997,-7.5842 -0.471,-0.107 -0.941,-0.1638 -1.406,-0.17379995 z"
     id="path57250" />
  <path
     style="fill:url(#linearGradient3605);opacity:0.5"
     d="m 1.1755763,6.4488221 c -0.85649999,3.7697999 1.5035,7.5207999 5.2734,8.3767999 0.8638,0.196 1.7238,0.208 2.5508,0.086 v -2.037 c -0.676,0.145 -1.388,0.163 -2.1074,0 -2.6928,-0.612 -4.3794,-3.2899999 -3.7676,-5.9823999 z"
     id="path57252" />
  <path
     fill="#555761"
     d="m 12.999776,8.9996221 c -1.108,0 -2,0.91085 -2,2.0311999 v 0.96875 H 9.9997763 v 4 h 5.9999997 v -4 h -1 v -0.96875 c 0,-1.1199999 -0.892,-2.0309999 -2,-2.0309999 z m 0,1 c 0.554,0 1,0.4423999 1,0.9999999 v 1 h -2 v -1 c 0,-0.5576 0.446,-0.9999999 1,-0.9999999 z"
     id="path57254" />
</svg>
