<?xml version="1.0" encoding="UTF-8" standalone="no"?>
<svg
   width="16"
   height="16"
   version="1.1"
   id="svg58072"
   sodipodi:docname="nm-vpn-connecting08-symbolic.svg"
   inkscape:version="1.2.2 (b0a8486541, 2022-12-01)"
   xmlns:inkscape="http://www.inkscape.org/namespaces/inkscape"
   xmlns:sodipodi="http://sodipodi.sourceforge.net/DTD/sodipodi-0.dtd"
   xmlns="http://www.w3.org/2000/svg"
   xmlns:svg="http://www.w3.org/2000/svg">
  <sodipodi:namedview
     id="namedview58074"
     pagecolor="#ffffff"
     bordercolor="#000000"
     borderopacity="0.25"
     inkscape:showpageshadow="2"
     inkscape:pageopacity="0.0"
     inkscape:pagecheckerboard="0"
     inkscape:deskcolor="#d1d1d1"
     showgrid="false"
     inkscape:zoom="36.545455"
     inkscape:cx="6.7176616"
     inkscape:cy="11.068408"
     inkscape:window-width="1920"
     inkscape:window-height="1020"
     inkscape:window-x="0"
     inkscape:window-y="0"
     inkscape:window-maximized="1"
     inkscape:current-layer="svg58072" />
  <defs
     id="defs58064">
    <linearGradient
       id="linearGradient3605"
       x1="7"
       x2="19"
       y1="12"
       y2="5"
       gradientTransform="matrix(0.0017459,1,1,-0.0017459,-4.0210893,-3.9790389)"
       gradientUnits="userSpaceOnUse">
      <stop
         offset="0"
         stop-color="#555761"
         stop-opacity=".5"
         id="stop58054" />
      <stop
         offset="1"
         stop-color="#555761"
         stop-opacity="0"
         id="stop58056" />
    </linearGradient>
    <linearGradient
       id="linearGradient3611"
       x1="7"
       x2="17"
       y1="12"
       y2="12"
       gradientTransform="matrix(-0.0017459,-1,-1,0.0017459,20.021011,19.979011)"
       gradientUnits="userSpaceOnUse">
      <stop
         offset="0"
         stop-color="#555761"
         id="stop58059" />
      <stop
         offset="1"
         stop-color="#555761"
         stop-opacity=".5"
         id="stop58061" />
    </linearGradient>
  </defs>
  <path
     style="fill:url(#linearGradient3611)"
     d="m 7.9880107,1.0000111 0.004,2 c 2.7620003,-0.0048 5.0030003,2.2294 5.0080003,4.99 v 0.01 c 0.754,0 1.431,0.296 1.955,0.764 0.028,-0.255 0.046,-0.513 0.045,-0.776 -0.007,-3.8657 -3.146,-6.99480004 -7.0120003,-6.988 z m 1.012,11.8729999 c -0.321,0.073 -0.649,0.126 -0.992,0.127 -1.3004,0.002 -1.2966,2.002 0.004,2 0.336,-0.001 0.664,-0.035 0.988,-0.082 z"
     id="path58066" />
  <path
     style="fill:url(#linearGradient3605);opacity:0.5"
     d="m 7.9880107,1.0000111 c -3.8654,0.0068 -6.99469996,3.1454 -6.988,7.012 0.0068,3.8659999 3.1454,6.9949999 7.012,6.9879999 l -0.004,-2 c -2.761,0.005 -5.0031,-2.229 -5.008,-4.9899999 -0.0048,-2.7621 2.2313,-5.0052 4.992,-5.01 z"
     id="path58068" />
  <path
     fill="#555761"
     d="m 13.000011,9.0000111 c -1.108,0 -2,0.91085 -2,2.0311999 v 0.96875 h -1 v 4 h 6 v -4 h -1 v -0.96875 c 0,-1.1199999 -0.892,-2.0309999 -2,-2.0309999 z m 0,0.9999999 c 0.554,0 1,0.4424 1,1 v 1 h -2 v -1 c 0,-0.5576 0.446,-1 1,-1 z"
     id="path58070" />
</svg>
