<?xml version="1.0" encoding="UTF-8" standalone="no"?>
<svg
   xmlns:dc="http://purl.org/dc/elements/1.1/"
   xmlns:cc="http://creativecommons.org/ns#"
   xmlns:rdf="http://www.w3.org/1999/02/22-rdf-syntax-ns#"
   xmlns:svg="http://www.w3.org/2000/svg"
   xmlns="http://www.w3.org/2000/svg"
   xmlns:xlink="http://www.w3.org/1999/xlink"
   version="1.1"
   width="24"
   height="24"
   id="svg3828">
  <defs
     id="defs3830">
    <linearGradient
       id="linearGradient5060">
      <stop
         id="stop5062"
         style="stop-color:#000000;stop-opacity:1"
         offset="0" />
      <stop
         id="stop5064"
         style="stop-color:#000000;stop-opacity:0"
         offset="1" />
    </linearGradient>
    <linearGradient
       id="linearGradient5048">
      <stop
         id="stop5050"
         style="stop-color:#000000;stop-opacity:0"
         offset="0" />
      <stop
         id="stop5056"
         style="stop-color:#000000;stop-opacity:1"
         offset="0.5" />
      <stop
         id="stop5052"
         style="stop-color:#000000;stop-opacity:0"
         offset="1" />
    </linearGradient>
    <linearGradient
       y2="24.627615"
       x2="20.054544"
       y1="15.298182"
       x1="16.626165"
       gradientTransform="matrix(0.34829932,0,0,0.64312604,3.640816,-0.83865695)"
       gradientUnits="userSpaceOnUse"
       id="linearGradient3051"
       xlink:href="#linearGradient8265-821-176-38-919-66-249-48-321" />
    <linearGradient
       id="linearGradient8265-821-176-38-919-66-249-48-321">
      <stop
         id="stop5601"
         style="stop-color:#ffffff;stop-opacity:1"
         offset="0" />
      <stop
         id="stop5603"
         style="stop-color:#ffffff;stop-opacity:0"
         offset="1" />
    </linearGradient>
    <radialGradient
       r="18.000002"
       fy="11.49049"
       fx="14.239056"
       cy="11.49049"
       cx="14.239056"
       gradientTransform="matrix(0,1.5168666,-2.5735755,0,36.382422,-17.589018)"
       gradientUnits="userSpaceOnUse"
       id="radialGradient3174"
       xlink:href="#linearGradient4145-42-322-778-541-32-432-871-622-7" />
    <linearGradient
       y2="2.9062471"
       x2="-51.786404"
       y1="53.623615"
       x1="-51.786404"
       gradientTransform="matrix(0.39221362,0,0,0.4270262,29.203178,-0.15980093)"
       gradientUnits="userSpaceOnUse"
       id="linearGradient3176"
       xlink:href="#linearGradient4711-257-850-696-320-311-361-101-393-7" />
    <radialGradient
       xlink:href="#linearGradient5060"
       id="radialGradient3095"
       gradientUnits="userSpaceOnUse"
       gradientTransform="matrix(0.01204859,0,0,0.0082353,13.238793,18.980564)"
       cx="605.71429"
       cy="486.64789"
       fx="605.71429"
       fy="486.64789"
       r="117.14286" />
    <radialGradient
       xlink:href="#linearGradient5060"
       id="radialGradient3098"
       gradientUnits="userSpaceOnUse"
       gradientTransform="matrix(-0.01204859,0,0,0.0082353,10.761206,18.980564)"
       cx="605.71429"
       cy="486.64789"
       fx="605.71429"
       fy="486.64789"
       r="117.14286" />
    <linearGradient
       xlink:href="#linearGradient5048"
       id="linearGradient3101"
       gradientUnits="userSpaceOnUse"
       gradientTransform="matrix(0.0352071,0,0,0.0082353,-0.724852,18.980547)"
       x1="302.85715"
       y1="366.64789"
       x2="302.85715"
       y2="609.50507" />
    <linearGradient
       xlink:href="#linearGradient8265-821-176-38-919-66-249-48-321"
       id="linearGradient3873"
       gradientUnits="userSpaceOnUse"
       gradientTransform="matrix(0.34829932,0,0,0.64312604,3.640816,-1.8386569)"
       x1="16.626165"
       y1="15.298182"
       x2="20.054544"
       y2="24.627615" />
    <linearGradient
       id="linearGradient4711-257-850-696-320-311-361-101-393-7">
      <stop
         offset="0"
         style="stop-color:#425a2d;stop-opacity:1"
         id="stop5651-4" />
      <stop
         offset="1"
         style="stop-color:#7f956d;stop-opacity:1"
         id="stop5653-5" />
    </linearGradient>
    <linearGradient
       id="linearGradient4145-42-322-778-541-32-432-871-622-7">
      <stop
         offset="0"
         style="stop-color:#b5cc85;stop-opacity:1"
         id="stop5641-6" />
      <stop
         offset="0.26238"
         style="stop-color:#9abe74;stop-opacity:1"
         id="stop5643-5" />
      <stop
         offset="0.704952"
         style="stop-color:#669f4d;stop-opacity:1"
         id="stop5645-6" />
      <stop
         offset="1"
         style="stop-color:#47892b;stop-opacity:1"
         id="stop5647-9" />
    </linearGradient>
    <linearGradient
       id="linearGradient3412">
      <stop
         offset="0"
         style="stop-color:#fcfcfc;stop-opacity:1"
         id="stop3414" />
      <stop
         offset="1"
         style="stop-color:#cbcdd9;stop-opacity:1"
         id="stop3416" />
    </linearGradient>
    <linearGradient
       y2="30.190546"
       x2="44.118835"
       y1="19.948324"
       x1="33.876614"
       gradientTransform="matrix(0,0.61754391,-0.65185192,0,33.209065,-5.2157614)"
       gradientUnits="userSpaceOnUse"
       id="linearGradient3089"
       xlink:href="#linearGradient3412" />
  </defs>
  <metadata
     id="metadata3833">
    <rdf:RDF>
      <cc:Work
         rdf:about="">
        <dc:format>image/svg+xml</dc:format>
        <dc:type
           rdf:resource="http://purl.org/dc/dcmitype/StillImage" />
        <dc:title />
      </cc:Work>
    </rdf:RDF>
  </metadata>
  <rect
     style="opacity:0.15;fill:url(#linearGradient3101);fill-opacity:1;fill-rule:nonzero;stroke:none;stroke-width:1;marker:none;visibility:visible;display:inline;overflow:visible"
     id="rect2879"
     y="22"
     x="3.5000007"
     height="2"
     width="16.999998" />
  <path
     style="opacity:0.15;fill:url(#radialGradient3098);fill-opacity:1;fill-rule:nonzero;stroke:none;stroke-width:1;marker:none;visibility:visible;display:inline;overflow:visible"
     id="path2881"
     d="m 3.4999999,22.000085 c 0,0 0,1.999891 0,1.999891 C 2.8795275,24.003776 2,23.551901 2,22.999901 2,22.447902 2.6924,22.000085 3.4999999,22.000085 z" />
  <path
     style="opacity:0.15;fill:url(#radialGradient3095);fill-opacity:1;fill-rule:nonzero;stroke:none;stroke-width:1;marker:none;visibility:visible;display:inline;overflow:visible"
     id="path2883"
     d="m 20.5,22.000085 c 0,0 0,1.999891 0,1.999891 0.620472,0.0038 1.5,-0.448075 1.5,-1.000075 0,-0.551999 -0.692402,-0.999816 -1.5,-0.999816 z" />
  <path
     style="color:#000000;fill:url(#radialGradient3174);fill-opacity:1.0;fill-rule:nonzero;stroke:url(#linearGradient3176);stroke-width:0.99992186000000005;stroke-linecap:butt;stroke-linejoin:round;stroke-miterlimit:4;stroke-opacity:1;stroke-dasharray:none;stroke-dashoffset:0;marker:none;visibility:visible;display:inline;overflow:visible;enable-background:accumulate"
     id="path4160"
     d="m 3.4999609,1.4998305 c 3.89558,0 17.0000571,0.00134 17.0000571,0.00134 l 2.1e-5,20.9988685 c 0,0 -11.3333861,0 -17.0000781,0 0,-7.000026 0,-14.0001795 0,-21.0002085 z" />
  <path
     style="opacity:0.2;fill:url(#linearGradient3051);fill-opacity:1;fill-rule:evenodd;stroke:none"
     id="path3879"
     d="M 4,3.0000028 4,14.696857 c 9.778e-4,0.08657 0.02152,0.168428 0.056684,0.225715 0.035165,0.05729 0.081707,0.08477 0.1283485,0.07574 L 19.858503,10.416048 c 0.08062,-0.02348 0.14037,-0.15077 0.141497,-0.301466 l 0,-7.1145792 z" />
  <path
     style="fill:#ffffff;fill-opacity:1;stroke:none"
     d="M 5,3 14.613334,3 19,7.3846154 19,21 5,21 z"
     id="path3102" />
  <path
     d="m 4.4999999,2.4999991 10.3124991,0 L 19.5,7.1341457 19.5,21.5 4.4999999,21.5 z"
     style="opacity:0.2;fill:#ffffff;fill-opacity:1;stroke:#000000;stroke-width:0.99999988px;stroke-linecap:butt;stroke-linejoin:miter;stroke-opacity:1"
     id="path3872" />
  <path
     d="M 4,2.0000029 4,13.696857 c 9.778e-4,0.08657 0.02152,0.168428 0.056684,0.225715 0.035165,0.05729 0.081707,0.08477 0.1283485,0.07574 L 19.858503,9.4160481 c 0.08062,-0.02348 0.14037,-0.15077 0.141497,-0.301466 l 0,-7.1145792 z"
     id="path3871"
     style="opacity:0.2;fill:url(#linearGradient3873);fill-opacity:1;fill-rule:evenodd;stroke:none" />
  <path
     style="fill:#89ac68;fill-opacity:1;stroke:none"
     d="m 7,18 2,0 0,1 -2,0 z"
     id="path4026" />
  <path
     id="path4465"
     d="m 11,18 2,0 0,1 -2,0 z"
     style="fill:#89ac68;fill-opacity:1;stroke:none" />
  <path
     style="fill:#89ac68;fill-opacity:1;stroke:none"
     d="m 15,18 2,0 0,1 -2,0 z"
     id="path4467" />
  <path
     id="path4469"
     d="m 15,16 2,0 0,1 -2,0 z"
     style="fill:#89ac68;fill-opacity:1;stroke:none" />
  <path
     style="fill:#89ac68;fill-opacity:1;stroke:none"
     d="m 11,16 2,0 0,1 -2,0 z"
     id="path4471" />
  <path
     id="path4473"
     d="m 7,16 2,0 0,1 -2,0 z"
     style="fill:#89ac68;fill-opacity:1;stroke:none" />
  <path
     style="fill:#89ac68;fill-opacity:1;stroke:none"
     d="m 7,14 2,0 0,1 -2,0 z"
     id="path4475" />
  <path
     id="path4477"
     d="m 11,14 2,0 0,1 -2,0 z"
     style="fill:#89ac68;fill-opacity:1;stroke:none" />
  <path
     style="fill:#89ac68;fill-opacity:1;stroke:none"
     d="m 15,14 2,0 0,1 -2,0 z"
     id="path4479" />
  <path
     id="path4481"
     d="m 15,12 2,0 0,1 -2,0 z"
     style="fill:#89ac68;fill-opacity:1;stroke:none" />
  <path
     style="fill:#89ac68;fill-opacity:1;stroke:none"
     d="m 11,12 2,0 0,1 -2,0 z"
     id="path4483" />
  <path
     id="path4485"
     d="m 7,12 2,0 0,1 -2,0 z"
     style="fill:#89ac68;fill-opacity:1;stroke:none" />
  <path
     style="fill:#89ac68;fill-opacity:1;stroke:none"
     d="m 7,10 2,0 0,1 -2,0 z"
     id="path4487" />
  <path
     id="path4489"
     d="M 7,8 9,8 9,9 7,9 z"
     style="fill:#89ac68;fill-opacity:1;stroke:none" />
  <path
     style="fill:#89ac68;fill-opacity:1;stroke:none"
     d="M 7,6 9,6 9,7 7,7 z"
     id="path4491" />
  <path
     id="path4493"
     d="m 11,6 2,0 0,1 -2,0 z"
     style="fill:#89ac68;fill-opacity:1;stroke:none" />
  <path
     style="fill:#89ac68;fill-opacity:1;stroke:none"
     d="m 11,10 2,0 0,1 -2,0 z"
     id="path4495" />
  <path
     id="path4497"
     d="m 11,8 2,0 0,1 -2,0 z"
     style="fill:#89ac68;fill-opacity:1;stroke:none" />
  <path
     style="fill:#89ac68;fill-opacity:1;stroke:none"
     d="m 15,8 2,0 0,1 -2,0 z"
     id="path4499" />
  <path
     id="path4501"
     d="m 15,10 2,0 0,1 -2,0 z"
     style="fill:#89ac68;fill-opacity:1;stroke:none" />
  <path
     style="fill:#89ac68;fill-opacity:1;stroke:none"
     d="m 15,6 0,0 1,1 -1,0 z"
     id="path4503" />
  <path
     id="path4505"
     d="m 15,6 1,0 1,1 -2,0 z"
     style="fill:#89ac68;fill-opacity:1;stroke:none" />
  <g
     transform="translate(0.35019497,0.45914403)"
     id="g4198">
    <path
       d="m 21.149804,12.540382 -10.999999,10.5 10.999999,4.74e-4 z m -1.999999,4.8 0,3.7 -3.9,0 z"
       id="path3410"
       style="opacity:0.8;fill:url(#linearGradient3089);fill-opacity:1;fill-rule:evenodd;stroke:#83899a;stroke-width:0.99999994px;stroke-linecap:butt;stroke-linejoin:miter;stroke-opacity:1" />
  </g>
</svg>
