<?xml version="1.0" encoding="UTF-8" standalone="no"?>
<!-- Created with Inkscape (http://www.inkscape.org/) -->

<svg
   xmlns:dc="http://purl.org/dc/elements/1.1/"
   xmlns:cc="http://creativecommons.org/ns#"
   xmlns:rdf="http://www.w3.org/1999/02/22-rdf-syntax-ns#"
   xmlns:svg="http://www.w3.org/2000/svg"
   xmlns="http://www.w3.org/2000/svg"
   xmlns:xlink="http://www.w3.org/1999/xlink"
   xmlns:sodipodi="http://sodipodi.sourceforge.net/DTD/sodipodi-0.dtd"
   xmlns:inkscape="http://www.inkscape.org/namespaces/inkscape"
   version="1.0"
   width="128"
   height="128"
   id="svg3695"
   inkscape:version="0.48+devel r"
   sodipodi:docname="user-trash.svg"
   inkscape:export-filename="/home/sergio/Pictures/elementary-xfce-new/user-trash__.png"
   inkscape:export-xdpi="90"
   inkscape:export-ydpi="90">
  <metadata
     id="metadata11265">
    <rdf:RDF>
      <cc:Work
         rdf:about="">
        <dc:format>image/svg+xml</dc:format>
        <dc:type
           rdf:resource="http://purl.org/dc/dcmitype/StillImage" />
        <dc:title />
      </cc:Work>
    </rdf:RDF>
  </metadata>
  <sodipodi:namedview
     pagecolor="#ffffff"
     bordercolor="#666666"
     borderopacity="1"
     objecttolerance="10"
     gridtolerance="10"
     guidetolerance="10"
     inkscape:pageopacity="0"
     inkscape:pageshadow="2"
     inkscape:window-width="1535"
     inkscape:window-height="876"
     id="namedview11263"
     showgrid="true"
     inkscape:snap-global="false"
     inkscape:zoom="4.1956312"
     inkscape:cx="66.456814"
     inkscape:cy="66.303607"
     inkscape:window-x="65"
     inkscape:window-y="24"
     inkscape:window-maximized="1"
     inkscape:current-layer="svg3695">
    <inkscape:grid
       type="xygrid"
       id="grid3062"
       empspacing="5"
       visible="true"
       enabled="true"
       snapvisiblegridlinesonly="true" />
  </sodipodi:namedview>
  <defs
     id="defs3697">
    <linearGradient
       inkscape:collect="always"
       id="linearGradient3835">
      <stop
         style="stop-color:#000000;stop-opacity:1;"
         offset="0"
         id="stop3837" />
      <stop
         style="stop-color:#000000;stop-opacity:0;"
         offset="1"
         id="stop3839" />
    </linearGradient>
    <linearGradient
       inkscape:collect="always"
       id="linearGradient3825">
      <stop
         style="stop-color:#000000;stop-opacity:1;"
         offset="0"
         id="stop3827" />
      <stop
         style="stop-color:#000000;stop-opacity:0;"
         offset="1"
         id="stop3829" />
    </linearGradient>
    <linearGradient
       inkscape:collect="always"
       id="linearGradient3815">
      <stop
         style="stop-color:#000000;stop-opacity:1;"
         offset="0"
         id="stop3817" />
      <stop
         style="stop-color:#000000;stop-opacity:0;"
         offset="1"
         id="stop3819" />
    </linearGradient>
    <linearGradient
       id="linearGradient5060">
      <stop
         id="stop5062"
         style="stop-color:#000000;stop-opacity:1"
         offset="0" />
      <stop
         id="stop5064"
         style="stop-color:#000000;stop-opacity:0"
         offset="1" />
    </linearGradient>
    <linearGradient
       id="linearGradient3384">
      <stop
         id="stop3386"
         style="stop-color:#6e6e6e;stop-opacity:1"
         offset="0" />
      <stop
         id="stop3388"
         style="stop-color:#9f9fa1;stop-opacity:1"
         offset="1" />
    </linearGradient>
    <linearGradient
       id="linearGradient2793-2-0-403">
      <stop
         id="stop4645"
         style="stop-color:#8d909a;stop-opacity:1"
         offset="0" />
      <stop
         id="stop4647"
         style="stop-color:#d9d9d9;stop-opacity:1"
         offset="1" />
    </linearGradient>
    <linearGradient
       id="linearGradient3355-273">
      <stop
         id="stop4657"
         style="stop-color:#f0f0f0;stop-opacity:1"
         offset="0" />
      <stop
         id="stop3619"
         style="stop-color:#777779;stop-opacity:1"
         offset="0.44955608" />
      <stop
         id="stop4659"
         style="stop-color:#6c6c70;stop-opacity:1"
         offset="1" />
    </linearGradient>
    <linearGradient
       id="linearGradient3320">
      <stop
         id="stop3323"
         style="stop-color:#4e4e4e;stop-opacity:1"
         offset="0" />
      <stop
         id="stop3325"
         style="stop-color:#b9bac2;stop-opacity:1"
         offset="1" />
    </linearGradient>
    <linearGradient
       id="linearGradient3627">
      <stop
         id="stop3629"
         style="stop-color:#000000;stop-opacity:0"
         offset="0" />
      <stop
         id="stop3190"
         style="stop-color:#000000;stop-opacity:0"
         offset="0.5" />
      <stop
         id="stop3631"
         style="stop-color:#000000;stop-opacity:1"
         offset="1" />
    </linearGradient>
    <linearGradient
       id="linearGradient3254-8-457">
      <stop
         id="stop4669"
         style="stop-color:#ffffff;stop-opacity:1"
         offset="0" />
      <stop
         id="stop4671"
         style="stop-color:#ffffff;stop-opacity:0"
         offset="1" />
    </linearGradient>
    <linearGradient
       id="linearGradient3254-3-182">
      <stop
         id="stop4663"
         style="stop-color:#ffffff;stop-opacity:1"
         offset="0" />
      <stop
         id="stop4665"
         style="stop-color:#ffffff;stop-opacity:0"
         offset="1" />
    </linearGradient>
    <linearGradient
       id="linearGradient3205">
      <stop
         id="stop3207"
         style="stop-color:#000000;stop-opacity:1"
         offset="0" />
      <stop
         id="stop3209"
         style="stop-color:#000000;stop-opacity:0"
         offset="1" />
    </linearGradient>
    <linearGradient
       inkscape:collect="always"
       xlink:href="#linearGradient3205"
       id="linearGradient3032"
       gradientUnits="userSpaceOnUse"
       gradientTransform="matrix(2.6893368,0.12399626,0,2.6926062,6.9899312,-4.248293)"
       x1="24"
       y1="15.502284"
       x2="24"
       y2="45" />
    <linearGradient
       inkscape:collect="always"
       xlink:href="#linearGradient3205"
       id="linearGradient3035"
       gradientUnits="userSpaceOnUse"
       gradientTransform="matrix(2.6893368,0.99197009,0,2.6926062,0.95592502,-15.097965)"
       x1="24"
       y1="13.506023"
       x2="24"
       y2="43" />
    <linearGradient
       inkscape:collect="always"
       xlink:href="#linearGradient3254-3-182"
       id="linearGradient3038"
       gradientUnits="userSpaceOnUse"
       gradientTransform="matrix(2.4109938,0,0,3.5909984,13.663528,-21.924714)"
       x1="12.25"
       y1="20.230709"
       x2="17.125"
       y2="34.173542" />
    <radialGradient
       inkscape:collect="always"
       xlink:href="#linearGradient3627"
       id="radialGradient3044"
       gradientUnits="userSpaceOnUse"
       gradientTransform="matrix(0,1.5777862,-8.4915335,3.3076402e-7,131.66601,-31.495425)"
       spreadMethod="pad"
       cx="23.816956"
       cy="7.8258715"
       fx="23.816956"
       fy="7.8258715"
       r="14.507708" />
    <linearGradient
       inkscape:collect="always"
       xlink:href="#linearGradient3320"
       id="linearGradient3047"
       gradientUnits="userSpaceOnUse"
       spreadMethod="reflect"
       x1="9.0003471"
       y1="8"
       x2="24"
       y2="8"
       gradientTransform="matrix(2.6893366,0,0,2.692606,0.95592502,-1.7063667)" />
    <linearGradient
       inkscape:collect="always"
       xlink:href="#linearGradient3355-273"
       id="linearGradient3049"
       gradientUnits="userSpaceOnUse"
       gradientTransform="matrix(3.1192696,0,0,3.700304,-9.3623974,-4.2174933)"
       x1="23.999979"
       y1="9.3726854"
       x2="23.999979"
       y2="2.0968478" />
    <radialGradient
       inkscape:collect="always"
       xlink:href="#linearGradient3254-8-457"
       id="radialGradient3052"
       gradientUnits="userSpaceOnUse"
       gradientTransform="matrix(0,4.5216477,-4.4252374,0,132.25789,-51.509063)"
       spreadMethod="pad"
       cx="19.308081"
       cy="21.029308"
       fx="19.308081"
       fy="21.029308"
       r="14.500172" />
    <linearGradient
       inkscape:collect="always"
       xlink:href="#linearGradient2793-2-0-403"
       id="linearGradient3055"
       gradientUnits="userSpaceOnUse"
       gradientTransform="matrix(3.249654,0,0,4.0924348,-4.3675574,-42.243802)"
       spreadMethod="reflect"
       x1="11.93083"
       y1="26.410894"
       x2="21.514704"
       y2="26.410894" />
    <linearGradient
       inkscape:collect="always"
       xlink:href="#linearGradient3384"
       id="linearGradient3057"
       gradientUnits="userSpaceOnUse"
       gradientTransform="matrix(2.6893366,0,0,2.692606,0.95592502,3.6788461)"
       x1="31.048019"
       y1="45"
       x2="31.048019"
       y2="5.5" />
    <radialGradient
       inkscape:collect="always"
       xlink:href="#linearGradient5060"
       id="radialGradient3060"
       gradientUnits="userSpaceOnUse"
       gradientTransform="matrix(0.90750385,0,0,0.42381025,7.588242,60.650792)"
       cx="62.71241"
       cy="108.02493"
       fx="62.71241"
       fy="108.02493"
       r="47.38271" />
    <linearGradient
       inkscape:collect="always"
       xlink:href="#linearGradient3205"
       id="linearGradient5339"
       gradientUnits="userSpaceOnUse"
       gradientTransform="matrix(2.6893368,0.12399626,0,2.6926062,-5.0100684,-4.248293)"
       x1="24"
       y1="15.502284"
       x2="24"
       y2="45" />
    <linearGradient
       inkscape:collect="always"
       xlink:href="#linearGradient3254-8-457"
       id="linearGradient5341"
       gradientUnits="userSpaceOnUse"
       gradientTransform="matrix(3.2885126,0,0,5.2395368,-11.780112,-86.154501)"
       x1="23.5"
       y1="10.996204"
       x2="23.5"
       y2="39.850574" />
    <linearGradient
       inkscape:collect="always"
       xlink:href="#linearGradient3815"
       id="linearGradient3821"
       x1="34.439655"
       y1="18.596245"
       x2="34.439655"
       y2="46.218822"
       gradientUnits="userSpaceOnUse"
       gradientTransform="matrix(2,0,0,2.0081302,-0.49999687,-2.0083272)" />
    <linearGradient
       inkscape:collect="always"
       xlink:href="#linearGradient3825"
       id="linearGradient3831"
       x1="35.094646"
       y1="19.210447"
       x2="35.094646"
       y2="42.529957"
       gradientUnits="userSpaceOnUse"
       gradientTransform="matrix(2,0,0,2.0081302,-0.49999687,-2.0083272)" />
    <linearGradient
       inkscape:collect="always"
       xlink:href="#linearGradient3835"
       id="linearGradient3841"
       x1="41.25"
       y1="19.833317"
       x2="41.25"
       y2="40.715191"
       gradientUnits="userSpaceOnUse"
       gradientTransform="matrix(2,0,0,2.0081302,-0.49999687,-2.0083272)" />
  </defs>
  <path
     inkscape:connector-curvature="0"
     style="fill:url(#radialGradient3060);fill-opacity:1;fill-rule:evenodd;stroke:none;stroke-width:1.05496335;marker:none;visibility:visible;display:inline;overflow:visible"
     id="path12941"
     d="m 107.5,106.43291 c -0.003,11.08974 -19.253608,20.07909 -43,20.07909 -23.746394,0 -42.99738,-8.98935 -43,-20.07909 -0.0026,-11.091468 19.249904,-20.083514 43,-20.083514 23.750096,0 43.00262,8.992046 43,20.083514 z" />
  <path
     inkscape:connector-curvature="0"
     style="fill:url(#linearGradient3055);fill-opacity:1;fill-rule:nonzero;stroke:url(#linearGradient3057);stroke-width:0.99999988;stroke-opacity:1;marker:none;visibility:visible;display:inline;overflow:visible"
     id="path2230"
     d="m 26.5,19.834481 0,86.163389 c 0,7.90659 11.858136,17.50194 39.000004,17.50194 27.141866,0 36.999996,-9.59535 36.999996,-17.50194 l 0,-86.163389 z"
     sodipodi:nodetypes="cssscc" />
  <path
     inkscape:connector-curvature="0"
     style="opacity:0.4;fill:url(#radialGradient3052);fill-opacity:1;fill-rule:nonzero;stroke:none;stroke-width:0.99999994;marker:none;visibility:visible;display:inline;overflow:visible"
     id="path3212"
     d="m 27.849288,22.527085 0,83.470785 c 0,7.59854 16.867522,16.15564 37.650716,16.15564 20.783194,0 37.650706,-8.5571 37.650706,-16.15564 l 0,-83.470785 c 0,0 -75.301422,0 -75.301422,0 z" />
  <path
     inkscape:connector-curvature="0"
     style="fill:url(#linearGradient3047);fill-opacity:1;fill-rule:nonzero;stroke:url(#linearGradient3049);stroke-width:0.98388952;stroke-linecap:round;stroke-linejoin:round;stroke-miterlimit:4;stroke-opacity:1;stroke-dasharray:none;stroke-dashoffset:0;marker:none;visibility:visible;display:inline;overflow:visible"
     id="path3164"
     d="m 102.5,19.834481 c 0,8.19095 -15.452,14.831023 -36.999996,14.831023 -21.548008,0 -39.016114,-6.640073 -39.016114,-14.831023 0,-8.190949 17.468106,-14.831022 39.016114,-14.831022 C 87.048,5.003459 102.5,11.643532 102.5,19.834481 Z"
     sodipodi:nodetypes="cssscc" />
  <path
     inkscape:connector-curvature="0"
     style="opacity:0.3;fill:url(#radialGradient3044);fill-opacity:1;fill-rule:nonzero;stroke:none;stroke-width:0.98388958;marker:none;visibility:visible;display:inline;overflow:visible"
     id="path3197"
     d="m 103.15071,19.97888 c 0,7.51518 -16.856798,13.607434 -37.650706,13.607434 -20.793918,0 -37.650716,-6.092254 -37.650716,-13.607434 0,-7.515176 16.856798,-13.6074315 37.650716,-13.6074315 20.793908,0 37.650706,6.0922555 37.650706,13.6074315 l 0,0 z" />
  <path
     inkscape:connector-curvature="0"
     style="opacity:0.15;fill:none;stroke:url(#linearGradient5341);stroke-width:0.99999976;stroke-linecap:round;stroke-linejoin:round;stroke-miterlimit:4;stroke-opacity:1;stroke-dasharray:none;stroke-dashoffset:0;marker:none;visibility:visible;display:inline;overflow:visible"
     id="path2206"
     d="m 28.5,19.324454 c 0,5.206326 0,82.385796 0,88.383926 0,7.23055 17.032064,13.09883 36.999934,13.09883 19.967866,0 35.000066,-5.86828 35.000066,-13.09883 0,-5.54981 -0.15418,-82.836286 0,-88.383926 C 100.64382,14.149829 87.398428,7.0282587 65.499934,7.0282587 43.60144,7.0282587 28.5,14.118127 28.5,19.324454 Z"
     sodipodi:nodetypes="zsssszz" />
  <path
     inkscape:connector-curvature="0"
     style="opacity:0.2;fill:url(#linearGradient3038);fill-opacity:1;fill-rule:nonzero;stroke:none;stroke-width:1;marker:none;visibility:visible;display:inline;overflow:visible"
     id="rect3244"
     d="m 45.006446,33.248058 12.05497,2.283212 0,87.30617 -12.05497,-2.91769 0,-86.671692 0,0 z" />
  <path
     inkscape:connector-curvature="0"
     style="opacity:0.15;fill:url(#linearGradient3035);fill-opacity:1;fill-rule:nonzero;stroke:none;stroke-width:0.99992186;marker:none;visibility:visible;display:inline;overflow:visible;enable-background:accumulate"
     id="path3287"
     d="m 36.5,34.660031 c 2.23484,0.824325 3,3.289309 3,5.526862 l 0,71.337847 c 0,2.23756 -0.76516,3.37529 -3,2.55095 -2.23484,-0.82434 -3,-3.2893 -3,-5.52686 l 0,-71.337845 c 0,-2.237557 0.76516,-3.375282 3,-2.550954 z m 56,0.482045 c -2.234838,0.82433 -3,3.184395 -3,5.421952 l 0,70.295662 c 0,2.23756 0.765162,3.37528 3,2.55097 2.234838,-0.82434 3,-3.28932 3,-5.52688 l 0,-70.331947 c 0,-2.237557 -0.765162,-3.234084 -3,-2.409757 z"
     sodipodi:nodetypes="ssssssssssssss" />
  <path
     inkscape:connector-curvature="0"
     style="opacity:0.3;fill:url(#linearGradient3032);fill-opacity:1;fill-rule:nonzero;stroke:none;stroke-width:0.99992186;marker:none;visibility:visible;display:inline;overflow:visible;enable-background:accumulate"
     id="path3293"
     d="m 78.5,40.045243 c -2.234838,0.103058 -3.034006,1.987349 -3.034006,4.224902 l 0,71.337845 c 0,2.23756 0.799168,3.95596 3.034006,3.85292 2.23484,-0.10301 3,-1.98734 3,-4.2249 l 0,-71.337853 c 0,-2.237558 -0.76516,-3.955957 -3,-3.852914 z"
     sodipodi:nodetypes="sssssss" />
  <path
     sodipodi:nodetypes="ssssssssssssss"
     d="m 50.5,40.045243 c 2.234842,0.103058 3,1.987349 3,4.224902 l 0,71.337845 c 0,2.23756 -0.765158,3.95596 -3,3.85292 -2.234838,-0.10301 -3.034006,-1.98734 -3.034006,-4.2249 l 0,-71.337853 c 0,-2.237558 0.799168,-3.955957 3.034006,-3.852914 z m 14,2.007745 c -2.234838,0.103057 -3.000006,1.987348 -3.000006,4.224901 l 0,71.337851 c 0,2.23756 0.765168,3.95596 3.000006,3.8529 2.23484,-0.10302 3.068,-1.98734 3.068,-4.22488 l 0,-71.337859 c 0,-2.237557 -0.83316,-3.955954 -3.068,-3.852913 z"
     id="path5337"
     style="opacity:0.3;fill:url(#linearGradient5339);fill-opacity:1;fill-rule:nonzero;stroke:none;stroke-width:0.99992186;marker:none;visibility:visible;display:inline;overflow:visible;enable-background:accumulate"
     inkscape:connector-curvature="0" />
  <path
     sodipodi:nodetypes="ssssssssssssss"
     d="m 36.5,35.142082 c 2.23484,0.824325 3,2.807263 3,5.044816 l 0,71.337852 c 0,2.23756 -0.76516,3.37528 -3,2.55095 -2.23484,-0.82434 -3,-3.2893 -3,-5.52686 l 0,-71.33785 c 0,-2.237557 0.76516,-2.893236 3,-2.068908 z m 56,0 c -2.234838,0.824329 -3,3.184394 -3,5.421951 l 0,70.295667 c 0,2.23755 0.765162,3.37528 3,2.55096 2.234838,-0.82433 3,-3.28931 3,-5.52687 l 0,-70.331952 c 0,-2.237557 -0.765162,-3.234084 -3,-2.409756 z"
     id="path3045"
     style="opacity:0.35064937;fill:none;stroke:url(#linearGradient3821);stroke-width:0.5;stroke-miterlimit:4;stroke-opacity:1;stroke-dasharray:none;marker:none;visibility:visible;display:inline;overflow:visible;enable-background:accumulate"
     inkscape:connector-curvature="0" />
  <path
     inkscape:connector-curvature="0"
     style="opacity:0.43290046;fill:none;stroke:url(#linearGradient3831);stroke-width:0.5;stroke-miterlimit:4;stroke-opacity:1;stroke-dasharray:none;marker:none;visibility:visible;display:inline;overflow:visible;enable-background:accumulate"
     id="path3823"
     d="m 50.5,40.045249 c 2.234842,0.103057 3,1.987348 3,4.224901 l 0,71.33785 c 0,2.23756 -0.765158,3.95596 -3,3.85292 -2.234838,-0.10302 -3.034006,-1.98735 -3.034006,-4.22491 l 0,-71.337848 c 0,-2.237557 0.799168,-3.955957 3.034006,-3.852913 z m 14,2.007744 c -2.234838,0.103058 -3.000006,1.987348 -3.000006,4.224901 l 0,71.337856 c 0,2.23756 0.765168,3.95595 3.000006,3.8529 2.23484,-0.10302 3.068,-1.98735 3.068,-4.22489 l 0,-71.337854 c 0,-2.237557 -0.83316,-3.955954 -3.068,-3.852913 z"
     sodipodi:nodetypes="ssssssssssssss" />
  <path
     sodipodi:nodetypes="sssssss"
     d="m 78.5,40.045249 c -2.234838,0.103057 -3.034006,1.987348 -3.034006,4.224901 l 0,71.33785 c 0,2.23756 0.799168,3.95596 3.034006,3.85292 2.23484,-0.10302 3,-1.98735 3,-4.22491 l 0,-71.337848 c 0,-2.237557 -0.76516,-3.955957 -3,-3.852913 z"
     id="path3833"
     style="opacity:0.46320346;fill:none;stroke:url(#linearGradient3841);stroke-width:0.5;stroke-miterlimit:4;stroke-opacity:1;stroke-dasharray:none;marker:none;visibility:visible;display:inline;overflow:visible;enable-background:accumulate"
     inkscape:connector-curvature="0" />
</svg>
