<?xml version="1.0" encoding="UTF-8" standalone="no"?>
<!-- Created with Inkscape (http://www.inkscape.org/) -->

<svg
   xmlns:dc="http://purl.org/dc/elements/1.1/"
   xmlns:cc="http://creativecommons.org/ns#"
   xmlns:rdf="http://www.w3.org/1999/02/22-rdf-syntax-ns#"
   xmlns:svg="http://www.w3.org/2000/svg"
   xmlns="http://www.w3.org/2000/svg"
   xmlns:xlink="http://www.w3.org/1999/xlink"
   xmlns:sodipodi="http://sodipodi.sourceforge.net/DTD/sodipodi-0.dtd"
   xmlns:inkscape="http://www.inkscape.org/namespaces/inkscape"
   version="1.0"
   width="128"
   height="128"
   id="svg3695"
   inkscape:version="0.48+devel r"
   sodipodi:docname="user-trash.svg">
  <metadata
     id="metadata11265">
    <rdf:RDF>
      <cc:Work
         rdf:about="">
        <dc:format>image/svg+xml</dc:format>
        <dc:type
           rdf:resource="http://purl.org/dc/dcmitype/StillImage" />
        <dc:title />
      </cc:Work>
    </rdf:RDF>
  </metadata>
  <sodipodi:namedview
     pagecolor="#ffffff"
     bordercolor="#666666"
     borderopacity="1"
     objecttolerance="10"
     gridtolerance="10"
     guidetolerance="10"
     inkscape:pageopacity="0"
     inkscape:pageshadow="2"
     inkscape:window-width="1535"
     inkscape:window-height="876"
     id="namedview11263"
     showgrid="true"
     inkscape:snap-global="false"
     inkscape:zoom="4.9166667"
     inkscape:cx="26.951622"
     inkscape:cy="59.095872"
     inkscape:window-x="65"
     inkscape:window-y="24"
     inkscape:window-maximized="1"
     inkscape:current-layer="svg3695">
    <inkscape:grid
       type="xygrid"
       id="grid3062"
       empspacing="5"
       visible="true"
       enabled="true"
       snapvisiblegridlinesonly="true" />
  </sodipodi:namedview>
  <defs
     id="defs3697">
    <linearGradient
       inkscape:collect="always"
       id="linearGradient3835">
      <stop
         style="stop-color:#000000;stop-opacity:1;"
         offset="0"
         id="stop3837" />
      <stop
         style="stop-color:#000000;stop-opacity:0;"
         offset="1"
         id="stop3839" />
    </linearGradient>
    <linearGradient
       inkscape:collect="always"
       id="linearGradient3825">
      <stop
         style="stop-color:#000000;stop-opacity:1;"
         offset="0"
         id="stop3827" />
      <stop
         style="stop-color:#000000;stop-opacity:0;"
         offset="1"
         id="stop3829" />
    </linearGradient>
    <linearGradient
       inkscape:collect="always"
       id="linearGradient3815">
      <stop
         style="stop-color:#000000;stop-opacity:1;"
         offset="0"
         id="stop3817" />
      <stop
         style="stop-color:#000000;stop-opacity:0;"
         offset="1"
         id="stop3819" />
    </linearGradient>
    <linearGradient
       id="linearGradient5060">
      <stop
         id="stop5062"
         style="stop-color:#000000;stop-opacity:1"
         offset="0" />
      <stop
         id="stop5064"
         style="stop-color:#000000;stop-opacity:0"
         offset="1" />
    </linearGradient>
    <radialGradient
       cx="62.71241"
       cy="108.02493"
       r="47.38271"
       fx="62.71241"
       fy="108.02493"
       id="radialGradient3269"
       xlink:href="#linearGradient5060"
       gradientUnits="userSpaceOnUse"
       gradientTransform="matrix(0.3587806,0,0,0.2110472,1.5000008,15.20272)" />
    <linearGradient
       id="linearGradient3384">
      <stop
         id="stop3386"
         style="stop-color:#6e6e6e;stop-opacity:1"
         offset="0" />
      <stop
         id="stop3388"
         style="stop-color:#9f9fa1;stop-opacity:1"
         offset="1" />
    </linearGradient>
    <linearGradient
       x1="31.048019"
       y1="45"
       x2="31.048019"
       y2="5.5"
       id="linearGradient3266"
       xlink:href="#linearGradient3384"
       gradientUnits="userSpaceOnUse"
       gradientTransform="translate(0,2)" />
    <linearGradient
       id="linearGradient2793-2-0-403">
      <stop
         id="stop4645"
         style="stop-color:#8d909a;stop-opacity:1"
         offset="0" />
      <stop
         id="stop4647"
         style="stop-color:#d9d9d9;stop-opacity:1"
         offset="1" />
    </linearGradient>
    <linearGradient
       x1="11.93083"
       y1="26.410894"
       x2="21.514704"
       y2="26.410894"
       id="linearGradient3264"
       xlink:href="#linearGradient2793-2-0-403"
       gradientUnits="userSpaceOnUse"
       gradientTransform="matrix(1.2083478,0,0,1.5198788,-1.979478,-15.055094)"
       spreadMethod="reflect" />
    <radialGradient
       cx="19.308081"
       cy="21.029308"
       r="14.500172"
       fx="19.308081"
       fy="21.029308"
       id="radialGradient3258"
       xlink:href="#linearGradient3254-8-457"
       gradientUnits="userSpaceOnUse"
       gradientTransform="matrix(0,1.679283,-1.6454754,0,48.823182,-18.496093)"
       spreadMethod="pad" />
    <linearGradient
       id="linearGradient3355-273">
      <stop
         id="stop4657"
         style="stop-color:#f0f0f0;stop-opacity:1"
         offset="0" />
      <stop
         id="stop3619"
         style="stop-color:#777779;stop-opacity:1"
         offset="0.44955608" />
      <stop
         id="stop4659"
         style="stop-color:#6c6c70;stop-opacity:1"
         offset="1" />
    </linearGradient>
    <linearGradient
       x1="23.999979"
       y1="9.3726854"
       x2="23.999979"
       y2="2.0968478"
       id="linearGradient3255"
       xlink:href="#linearGradient3355-273"
       gradientUnits="userSpaceOnUse"
       gradientTransform="matrix(1.1598658,0,0,1.3742464,-3.8367541,-0.9326014)" />
    <linearGradient
       id="linearGradient3320">
      <stop
         id="stop3323"
         style="stop-color:#4e4e4e;stop-opacity:1"
         offset="0" />
      <stop
         id="stop3325"
         style="stop-color:#b9bac2;stop-opacity:1"
         offset="1" />
    </linearGradient>
    <linearGradient
       x1="9.0003471"
       y1="8"
       x2="24"
       y2="8"
       id="linearGradient3253"
       xlink:href="#linearGradient3320"
       gradientUnits="userSpaceOnUse"
       spreadMethod="reflect" />
    <linearGradient
       id="linearGradient3627">
      <stop
         id="stop3629"
         style="stop-color:#000000;stop-opacity:0"
         offset="0" />
      <stop
         id="stop3190"
         style="stop-color:#000000;stop-opacity:0"
         offset="0.5" />
      <stop
         id="stop3631"
         style="stop-color:#000000;stop-opacity:1"
         offset="1" />
    </linearGradient>
    <radialGradient
       cx="24"
       cy="7.7919979"
       r="14.507708"
       fx="24"
       fy="7.7919979"
       id="radialGradient3250"
       xlink:href="#linearGradient3627"
       gradientUnits="userSpaceOnUse"
       gradientTransform="matrix(-3.2042761e-8,0.6892888,-3.1574826,0,48.603098,-13.542931)"
       spreadMethod="pad" />
    <linearGradient
       id="linearGradient3254-8-457">
      <stop
         id="stop4669"
         style="stop-color:#ffffff;stop-opacity:1"
         offset="0" />
      <stop
         id="stop4671"
         style="stop-color:#ffffff;stop-opacity:0"
         offset="1" />
    </linearGradient>
    <linearGradient
       x1="23.5"
       y1="10.996204"
       x2="23.5"
       y2="39.850574"
       id="linearGradient3247"
       xlink:href="#linearGradient3254-8-457"
       gradientUnits="userSpaceOnUse"
       gradientTransform="matrix(1.2227969,0,0,1.9458981,-4.735753,-31.362975)" />
    <linearGradient
       id="linearGradient3254-3-182">
      <stop
         id="stop4663"
         style="stop-color:#ffffff;stop-opacity:1"
         offset="0" />
      <stop
         id="stop4665"
         style="stop-color:#ffffff;stop-opacity:0"
         offset="1" />
    </linearGradient>
    <linearGradient
       x1="12.25"
       y1="20.230709"
       x2="17.125"
       y2="34.173542"
       id="linearGradient3261"
       xlink:href="#linearGradient3254-3-182"
       gradientUnits="userSpaceOnUse"
       gradientTransform="matrix(0.8965013,0,0,1.365896,4.7251825,-8.808688)" />
    <linearGradient
       x1="24"
       y1="13.506023"
       x2="24"
       y2="43"
       id="linearGradient3389"
       xlink:href="#linearGradient3205"
       gradientUnits="userSpaceOnUse"
       gradientTransform="matrix(1,0.3684052,0,1,0,-4.9734702)" />
    <linearGradient
       id="linearGradient3205">
      <stop
         id="stop3207"
         style="stop-color:#000000;stop-opacity:1"
         offset="0" />
      <stop
         id="stop3209"
         style="stop-color:#000000;stop-opacity:0"
         offset="1" />
    </linearGradient>
    <linearGradient
       x1="24"
       y1="15.502284"
       x2="24"
       y2="45"
       id="linearGradient3373"
       xlink:href="#linearGradient3205"
       gradientUnits="userSpaceOnUse"
       gradientTransform="matrix(1,0.04605065,0,1,0,-0.9440383)" />
    <linearGradient
       inkscape:collect="always"
       xlink:href="#linearGradient3205"
       id="linearGradient3032"
       gradientUnits="userSpaceOnUse"
       gradientTransform="matrix(2.6893368,0.12349424,0,2.6817048,6.4899354,-2.2308912)"
       x1="24"
       y1="15.502284"
       x2="24"
       y2="45" />
    <linearGradient
       inkscape:collect="always"
       xlink:href="#linearGradient3205"
       id="linearGradient3035"
       gradientUnits="userSpaceOnUse"
       gradientTransform="matrix(2.6893368,0.98795395,0,2.6817048,0.455929,-13.036637)"
       x1="24"
       y1="13.506023"
       x2="24"
       y2="43" />
    <linearGradient
       inkscape:collect="always"
       xlink:href="#linearGradient3254-3-182"
       id="linearGradient3038"
       gradientUnits="userSpaceOnUse"
       gradientTransform="matrix(2.4109938,0,0,3.5764598,13.163529,-19.835747)"
       x1="12.25"
       y1="20.230709"
       x2="17.125"
       y2="34.173542" />
    <linearGradient
       inkscape:collect="always"
       xlink:href="#linearGradient3254-8-457"
       id="linearGradient3041"
       gradientUnits="userSpaceOnUse"
       gradientTransform="matrix(1.6442563,0,0,2.6091619,-6.6400562,-41.902748)"
       x1="23.5"
       y1="10.996204"
       x2="23.5"
       y2="39.850574" />
    <radialGradient
       inkscape:collect="always"
       xlink:href="#linearGradient3627"
       id="radialGradient3044"
       gradientUnits="userSpaceOnUse"
       gradientTransform="matrix(0,1.5713984,-8.4915335,3.2942488e-7,131.16601,-29.367709)"
       spreadMethod="pad"
       cx="23.816956"
       cy="7.8258715"
       fx="23.816956"
       fy="7.8258715"
       r="14.507708" />
    <linearGradient
       inkscape:collect="always"
       xlink:href="#linearGradient3320"
       id="linearGradient3047"
       gradientUnits="userSpaceOnUse"
       spreadMethod="reflect"
       x1="9.0003471"
       y1="8"
       x2="24"
       y2="8"
       gradientTransform="matrix(2.6893366,0,0,2.6817046,0.455929,0.300738)" />
    <linearGradient
       inkscape:collect="always"
       xlink:href="#linearGradient3355-273"
       id="linearGradient3049"
       gradientUnits="userSpaceOnUse"
       gradientTransform="matrix(3.1192696,0,0,3.6853228,-9.8623938,-2.200222)"
       x1="23.999979"
       y1="9.3726854"
       x2="23.999979"
       y2="2.0968478" />
    <radialGradient
       inkscape:collect="always"
       xlink:href="#linearGradient3254-8-457"
       id="radialGradient3052"
       gradientUnits="userSpaceOnUse"
       gradientTransform="matrix(0,4.5033412,-4.4252374,0,131.75789,-49.300319)"
       spreadMethod="pad"
       cx="19.308081"
       cy="21.029308"
       fx="19.308081"
       fy="21.029308"
       r="14.500172" />
    <linearGradient
       inkscape:collect="always"
       xlink:href="#linearGradient2793-2-0-403"
       id="linearGradient3055"
       gradientUnits="userSpaceOnUse"
       gradientTransform="matrix(3.249654,0,0,4.075866,-4.8675535,-40.072576)"
       spreadMethod="reflect"
       x1="11.93083"
       y1="26.410894"
       x2="21.514704"
       y2="26.410894" />
    <linearGradient
       inkscape:collect="always"
       xlink:href="#linearGradient3384"
       id="linearGradient3057"
       gradientUnits="userSpaceOnUse"
       gradientTransform="matrix(2.6893366,0,0,2.6817046,0.455929,5.664148)"
       x1="31.048019"
       y1="45"
       x2="31.048019"
       y2="5.5" />
    <radialGradient
       inkscape:collect="always"
       xlink:href="#linearGradient5060"
       id="radialGradient3060"
       gradientUnits="userSpaceOnUse"
       gradientTransform="matrix(0.90750385,0,0,0.4220944,7.0882462,62.40544)"
       cx="62.71241"
       cy="108.02493"
       fx="62.71241"
       fy="108.02493"
       r="47.38271" />
    <linearGradient
       inkscape:collect="always"
       xlink:href="#linearGradient3205"
       id="linearGradient5339"
       gradientUnits="userSpaceOnUse"
       gradientTransform="matrix(2.6893368,0.12349424,0,2.6817048,-5.5100648,-2.2308912)"
       x1="24"
       y1="15.502284"
       x2="24"
       y2="45" />
    <linearGradient
       inkscape:collect="always"
       xlink:href="#linearGradient3254-8-457"
       id="linearGradient5341"
       gradientUnits="userSpaceOnUse"
       gradientTransform="matrix(3.2885126,0,0,5.2183238,-12.280112,-83.805496)"
       x1="23.5"
       y1="10.996204"
       x2="23.5"
       y2="39.850574" />
    <linearGradient
       inkscape:collect="always"
       xlink:href="#linearGradient3815"
       id="linearGradient3821"
       x1="34.439655"
       y1="18.596245"
       x2="34.439655"
       y2="46.218822"
       gradientUnits="userSpaceOnUse"
       gradientTransform="matrix(2,0,0,2,-0.99999323,0)" />
    <linearGradient
       inkscape:collect="always"
       xlink:href="#linearGradient3825"
       id="linearGradient3831"
       x1="35.094646"
       y1="19.210447"
       x2="35.094646"
       y2="42.529957"
       gradientUnits="userSpaceOnUse"
       gradientTransform="matrix(2,0,0,2,-0.99999323,0)" />
    <linearGradient
       inkscape:collect="always"
       xlink:href="#linearGradient3835"
       id="linearGradient3841"
       x1="41.25"
       y1="19.833317"
       x2="41.25"
       y2="40.715191"
       gradientUnits="userSpaceOnUse"
       gradientTransform="matrix(2,0,0,2,-0.99999323,0)" />
  </defs>
  <path
     inkscape:connector-curvature="0"
     style="fill:url(#radialGradient3060);fill-opacity:1;fill-rule:evenodd;stroke:none;stroke-width:1.05496335;marker:none;visibility:visible;display:inline;overflow:visible"
     id="path12941"
     d="M 107,108.0022 C 106.99738,119.04704 87.746392,128 64,128 40.253606,128 21.00262,119.04704 21,108.0022 20.997382,96.95564 40.249904,88 64,88 c 23.750096,0 43.00262,8.95564 43,20.0022 z" />
  <path
     inkscape:connector-curvature="0"
     style="fill:url(#linearGradient3055);fill-opacity:1;fill-rule:nonzero;stroke:url(#linearGradient3057);stroke-width:1.99999976;stroke-opacity:1;marker:none;visibility:visible;display:inline;overflow:visible"
     id="path2230"
     d="m 26,21.754375 0,85.814545 C 26,115.4435 37.858136,125 65.000004,125 92.14187,125 102,115.4435 102,107.56892 l 0,-85.814545 z"
     sodipodi:nodetypes="cssscc" />
  <path
     inkscape:connector-curvature="0"
     style="opacity:0.4;fill:url(#radialGradient3052);fill-opacity:1;fill-rule:nonzero;stroke:none;stroke-width:0.99999994;marker:none;visibility:visible;display:inline;overflow:visible"
     id="path3212"
     d="m 27.349288,24.436083 0,83.132837 c 0,7.56778 16.867522,16.09024 37.650716,16.09024 20.783194,0 37.650706,-8.52246 37.650706,-16.09024 l 0,-83.132837 c 0,0 -75.301422,0 -75.301422,0 z" />
  <path
     inkscape:connector-curvature="0"
     style="fill:url(#linearGradient3047);fill-opacity:1;fill-rule:nonzero;stroke:url(#linearGradient3049);stroke-width:1.96777904;stroke-linecap:round;stroke-linejoin:round;stroke-miterlimit:4;stroke-opacity:1;stroke-dasharray:none;stroke-dashoffset:0;marker:none;visibility:visible;display:inline;overflow:visible"
     id="path3164"
     d="m 102,21.754375 c 0,8.157788 -15.452,14.770978 -36.999996,14.770978 -21.548008,0 -39.016114,-6.61319 -39.016114,-14.770978 0,-8.157786 17.468106,-14.7709762 39.016114,-14.7709762 C 86.548,6.9833988 102,13.596589 102,21.754375 Z"
     sodipodi:nodetypes="cssscc" />
  <path
     inkscape:connector-curvature="0"
     style="opacity:0.3;fill:url(#radialGradient3044);fill-opacity:1;fill-rule:nonzero;stroke:none;stroke-width:0.98388958;marker:none;visibility:visible;display:inline;overflow:visible"
     id="path3197"
     d="m 102.65071,21.898195 c 0,7.484754 -16.856798,13.552342 -37.650706,13.552342 -20.793918,0 -37.650716,-6.067588 -37.650716,-13.552342 0,-7.48475 16.856798,-13.5523403 37.650716,-13.5523403 20.793908,0 37.650706,6.0675903 37.650706,13.5523403 l 0,0 z" />
  <path
     inkscape:connector-curvature="0"
     style="opacity:0.15;fill:none;stroke:url(#linearGradient5341);stroke-width:1.99999952;stroke-linecap:round;stroke-linejoin:round;stroke-miterlimit:4;stroke-opacity:1;stroke-dasharray:none;stroke-dashoffset:0;marker:none;visibility:visible;display:inline;overflow:visible"
     id="path2206"
     d="m 28,21.246413 c 0,5.185248 0,82.052247 0,88.026087 0,7.20128 17.032064,13.0458 36.999934,13.0458 C 84.9678,122.3183 100,116.47378 100,109.2725 100,103.74516 99.84582,26.771593 100,21.246413 100.14382,16.092739 86.898428,9.0000007 64.999934,9.0000007 43.10144,9.0000007 28,16.061165 28,21.246413 Z"
     sodipodi:nodetypes="zsssszz" />
  <path
     inkscape:connector-curvature="0"
     style="opacity:0.2;fill:url(#linearGradient3038);fill-opacity:1;fill-rule:nonzero;stroke:none;stroke-width:1;marker:none;visibility:visible;display:inline;overflow:visible"
     id="rect3244"
     d="m 44.506446,35.113651 12.05497,2.273968 0,86.952701 -12.05497,-2.90588 0,-86.320789 0,0 z" />
  <path
     inkscape:connector-curvature="0"
     style="opacity:0.15;fill:url(#linearGradient3035);fill-opacity:1;fill-rule:nonzero;stroke:none;stroke-width:0.99992186;marker:none;visibility:visible;display:inline;overflow:visible;enable-background:accumulate"
     id="path3287"
     d="m 36,36.519907 c 2.23484,0.820988 3,3.275992 3,5.504486 l 0,71.049027 c 0,2.2285 -0.76516,3.36162 -3,2.54062 -2.23484,-0.821 -3,-3.27598 -3,-5.50448 l 0,-71.049027 c 0,-2.228498 0.76516,-3.361616 3,-2.540626 z m 56,0.480094 c -2.234838,0.820992 -3,3.171502 -3,5.4 l 0,70.011059 c 0,2.2285 0.765162,3.36162 3,2.54064 2.234838,-0.821 3,-3.276 3,-5.5045 l 0,-70.047199 c 0,-2.228498 -0.765162,-3.22099 -3,-2.4 z"
     sodipodi:nodetypes="ssssssssssssss" />
  <path
     inkscape:connector-curvature="0"
     style="opacity:0.3;fill:url(#linearGradient3032);fill-opacity:1;fill-rule:nonzero;stroke:none;stroke-width:0.99992186;marker:none;visibility:visible;display:inline;overflow:visible;enable-background:accumulate"
     id="path3293"
     d="m 78,41.883317 c -2.234838,0.10264 -3.034006,1.979302 -3.034006,4.207796 l 0,71.049027 c 0,2.2285 0.799168,3.93994 3.034006,3.83732 2.23484,-0.1026 3,-1.9793 3,-4.2078 l 0,-71.049029 c 0,-2.228498 -0.76516,-3.93994 -3,-3.837314 z"
     sodipodi:nodetypes="sssssss" />
  <path
     sodipodi:nodetypes="ssssssssssssss"
     d="m 50,41.883317 c 2.234842,0.10264 3,1.979302 3,4.207796 l 0,71.049027 c 0,2.2285 -0.765158,3.93994 -3,3.83732 -2.234838,-0.1026 -3.034006,-1.9793 -3.034006,-4.2078 l 0,-71.049029 c 0,-2.228498 0.799168,-3.93994 3.034006,-3.837314 z m 14,1.999616 c -2.234838,0.10264 -3.000006,1.979302 -3.000006,4.207795 l 0,71.049032 c 0,2.2285 0.765168,3.93994 3.000006,3.8373 2.23484,-0.1026 3.068,-1.9793 3.068,-4.20778 l 0,-71.049034 c 0,-2.228497 -0.83316,-3.939937 -3.068,-3.837313 z"
     id="path5337"
     style="opacity:0.3;fill:url(#linearGradient5339);fill-opacity:1;fill-rule:nonzero;stroke:none;stroke-width:0.99992186;marker:none;visibility:visible;display:inline;overflow:visible;enable-background:accumulate"
     inkscape:connector-curvature="0" />
  <path
     sodipodi:nodetypes="ssssssssssssss"
     d="m 36,37.000001 c 2.23484,0.820988 3,2.795898 3,5.024392 l 0,71.049027 c 0,2.2285 -0.76516,3.36162 -3,2.54062 -2.23484,-0.821 -3,-3.27598 -3,-5.50448 l 0,-71.049027 c 0,-2.228498 0.76516,-2.881522 3,-2.060532 z m 56,0 c -2.234838,0.820992 -3,3.171502 -3,5.4 l 0,70.011059 c 0,2.2285 0.765162,3.36162 3,2.54064 2.234838,-0.821 3,-3.276 3,-5.5045 l 0,-70.047199 c 0,-2.228498 -0.765162,-3.22099 -3,-2.4 z"
     id="path3045"
     style="opacity:0.35064937;fill:none;stroke:url(#linearGradient3821);stroke-width:1;stroke-miterlimit:4;stroke-opacity:1;stroke-dasharray:none;marker:none;visibility:visible;display:inline;overflow:visible;enable-background:accumulate"
     inkscape:connector-curvature="0" />
  <path
     inkscape:connector-curvature="0"
     style="opacity:0.43290046;fill:none;stroke:url(#linearGradient3831);stroke-width:1;stroke-miterlimit:4;stroke-opacity:1;stroke-dasharray:none;marker:none;visibility:visible;display:inline;overflow:visible;enable-background:accumulate"
     id="path3823"
     d="m 50,41.883317 c 2.234842,0.10264 3,1.979302 3,4.207796 l 0,71.049027 c 0,2.2285 -0.765158,3.93994 -3,3.83732 -2.234838,-0.1026 -3.034006,-1.9793 -3.034006,-4.2078 l 0,-71.049029 c 0,-2.228498 0.799168,-3.93994 3.034006,-3.837314 z m 14,1.999616 c -2.234838,0.10264 -3.000006,1.979302 -3.000006,4.207795 l 0,71.049032 c 0,2.2285 0.765168,3.93994 3.000006,3.8373 2.23484,-0.1026 3.068,-1.9793 3.068,-4.20778 l 0,-71.049034 c 0,-2.228497 -0.83316,-3.939937 -3.068,-3.837313 z"
     sodipodi:nodetypes="ssssssssssssss" />
  <path
     sodipodi:nodetypes="sssssss"
     d="m 78,41.883317 c -2.234838,0.10264 -3.034006,1.979302 -3.034006,4.207796 l 0,71.049027 c 0,2.2285 0.799168,3.93994 3.034006,3.83732 2.23484,-0.1026 3,-1.9793 3,-4.2078 l 0,-71.049029 c 0,-2.228498 -0.76516,-3.93994 -3,-3.837314 z"
     id="path3833"
     style="opacity:0.46320346;fill:none;stroke:url(#linearGradient3841);stroke-width:1;stroke-miterlimit:4;stroke-opacity:1;stroke-dasharray:none;marker:none;visibility:visible;display:inline;overflow:visible;enable-background:accumulate"
     inkscape:connector-curvature="0" />
</svg>
