<?xml version="1.0" encoding="UTF-8" standalone="no"?>
<svg
   xmlns:dc="http://purl.org/dc/elements/1.1/"
   xmlns:cc="http://creativecommons.org/ns#"
   xmlns:rdf="http://www.w3.org/1999/02/22-rdf-syntax-ns#"
   xmlns:svg="http://www.w3.org/2000/svg"
   xmlns="http://www.w3.org/2000/svg"
   version="1.1"
   id="svg2"
   width="16"
   height="16">
  <metadata
     id="metadata12">
    <rdf:RDF>
      <cc:Work
         rdf:about="">
        <dc:format>image/svg+xml</dc:format>
        <dc:type
           rdf:resource="http://purl.org/dc/dcmitype/StillImage" />
      </cc:Work>
    </rdf:RDF>
  </metadata>
  <defs
     id="defs10" />
  <g
     id="g4"
     transform="translate(-1053 187)">
    <path
       id="path6"
       fill="#666"
       d="M1061-186a7 7 0 1 0 0 14 7 7 0 0 0 0-14zm-.094 1.969A1 1 0 0 1 1062-183v5a1 1 0 1 1-2 0v-5a1 1 0 0 1 .781-1 1 1 0 0 1 .125-.031zM1061-176a1 1 0 1 1 0 2 1 1 0 0 1 0-2z" />
  </g>
</svg>
