<?xml version="1.0" encoding="UTF-8" standalone="no"?>
<svg
   xmlns:dc="http://purl.org/dc/elements/1.1/"
   xmlns:cc="http://creativecommons.org/ns#"
   xmlns:rdf="http://www.w3.org/1999/02/22-rdf-syntax-ns#"
   xmlns:svg="http://www.w3.org/2000/svg"
   xmlns="http://www.w3.org/2000/svg"
   xmlns:xlink="http://www.w3.org/1999/xlink"
   id="svg3239"
   height="24"
   width="14"
   version="1.0">
  <metadata
     id="metadata17">
    <rdf:RDF>
      <cc:Work
         rdf:about="">
        <dc:format>image/svg+xml</dc:format>
        <dc:type
           rdf:resource="http://purl.org/dc/dcmitype/StillImage" />
      </cc:Work>
    </rdf:RDF>
  </metadata>
  <defs
     id="defs3241">
    <linearGradient
       id="linearGradient3587-6-5-3">
      <stop
         offset="0"
         style="stop-color:#000000;stop-opacity:1"
         id="stop3589-9-2-2" />
      <stop
         offset="1"
         style="stop-color:#363636;stop-opacity:1"
         id="stop3591-7-4-73" />
    </linearGradient>
    <linearGradient
       gradientTransform="translate(-5,0)"
       gradientUnits="userSpaceOnUse"
       xlink:href="#linearGradient3587-6-5-3"
       id="linearGradient2392"
       y2="21"
       x2="12"
       y1="1.9895233"
       x1="12" />
    <linearGradient
       gradientTransform="matrix(0.4101105,0,0,0.2096951,-13.798735,12.478122)"
       gradientUnits="userSpaceOnUse"
       xlink:href="#linearGradient3587-6-5-3"
       id="linearGradient2395"
       y2="31.112288"
       x2="51.780437"
       y1="7.2575765"
       x1="51.780437" />
  </defs>
  <rect
     style="opacity:0.6;fill:#ffffff;fill-opacity:1;fill-rule:nonzero;stroke:none;stroke-width:1;marker:none;visibility:visible;display:inline;overflow:visible;enable-background:accumulate"
     id="rect3206"
     y="15"
     x="4.0500002"
     ry="0.49999994"
     rx="0.5"
     height="5"
     width="6" />
  <rect
     style="opacity:0.3;fill:none;stroke:#000000;stroke-width:0.5;stroke-linecap:round;stroke-linejoin:miter;stroke-miterlimit:4;stroke-opacity:1;stroke-dasharray:none;stroke-dashoffset:0;marker:none;visibility:visible;display:inline;overflow:visible;enable-background:accumulate"
     id="rect3236"
     transform="matrix(0,-1,1,0,0,0)"
     y="3.25"
     x="-19.75"
     ry="0.25"
     rx="0.25"
     height="7.5"
     width="14.5" />
  <path
     style="opacity:0.6;fill:none;stroke:#ffffff;stroke-width:1;stroke-linecap:round;stroke-linejoin:miter;stroke-miterlimit:4;stroke-opacity:1;stroke-dashoffset:0;marker:none;visibility:visible;display:inline;overflow:visible;enable-background:accumulate"
     id="path3208"
     d="m 2.5,20.5 0,-14 c 0,-0.554 0.446,-1 1,-1 l 7,0 c 0.554,0 1,0.446 1,1 l 0,14 c 0,0.554 -0.446,1 -1,1 l -7,0 c -0.554,0 -1,-0.446 -1,-1 z M 5.50264,5.381549 C 5.50334,5.053509 5.50417,4.725473 5.50514,4.397441 5.545901,3.799616 6.15474,3.420708 6.717338,3.499967 7.25026,3.5234 7.894234,3.375846 8.272203,3.863162 8.622964,4.30164 8.463608,4.884362 8.5,5.400369" />
  <path
     style="opacity:0.7;fill:url(#linearGradient2395);fill-opacity:1;fill-rule:nonzero;stroke:none;stroke-width:1;marker:none;visibility:visible;display:inline;overflow:visible;enable-background:accumulate"
     id="rect3728"
     d="M 4.0500002,14 C 6.05,14 8.05,14 10.05,14 c 0,1.666666 0,3.333334 0,5 -2,0 -4,0 -5.9999998,0 0,-1.666666 0,-3.333334 0,-5 z" />
  <path
     style="opacity:0.7;fill:none;stroke:url(#linearGradient2392);stroke-width:1;stroke-linecap:round;stroke-linejoin:miter;stroke-miterlimit:4;stroke-opacity:1;stroke-dashoffset:0;marker:none;visibility:visible;display:inline;overflow:visible;enable-background:accumulate"
     id="rect2442"
     d="m 2.5,19.5 0,-14 c 0,-0.554 0.446,-1 1,-1 l 7,0 c 0.554,0 1,0.446 1,1 l 0,14 c 0,0.554 -0.446,1 -1,1 l -7,0 c -0.554,0 -1,-0.446 -1,-1 z M 5.50264,4.381549 C 5.50334,4.053509 5.50417,3.725473 5.50514,3.397441 5.545901,2.799616 6.15474,2.420708 6.717338,2.499967 7.25026,2.5234 7.894234,2.375846 8.272203,2.863162 8.622964,3.30164 8.463608,3.884362 8.5,4.400369" />
</svg>
