<?xml version="1.0" encoding="UTF-8" standalone="no"?>
<svg
   xmlns:dc="http://purl.org/dc/elements/1.1/"
   xmlns:cc="http://creativecommons.org/ns#"
   xmlns:rdf="http://www.w3.org/1999/02/22-rdf-syntax-ns#"
   xmlns:svg="http://www.w3.org/2000/svg"
   xmlns="http://www.w3.org/2000/svg"
   xmlns:xlink="http://www.w3.org/1999/xlink"
   width="24"
   height="24"
   id="svg3701"
   version="1.1">
  <defs
     id="defs3703">
    <linearGradient
       x1="12"
       y1="1.9895233"
       x2="12"
       y2="21"
       id="linearGradient2485"
       xlink:href="#linearGradient3587-6-5-3"
       gradientUnits="userSpaceOnUse"
       gradientTransform="translate(0,-8.0000003)" />
    <linearGradient
       id="linearGradient3587-6-5-3">
      <stop
         id="stop3589-9-2-2"
         style="stop-color:#000000;stop-opacity:1"
         offset="0" />
      <stop
         id="stop3591-7-4-73"
         style="stop-color:#363636;stop-opacity:1"
         offset="1" />
    </linearGradient>
    <linearGradient
       x1="51.780437"
       y1="7.2575765"
       x2="51.780437"
       y2="31.112288"
       id="linearGradient2488"
       xlink:href="#linearGradient3587-6-5-3"
       gradientUnits="userSpaceOnUse"
       gradientTransform="matrix(0.4101105,0,0,0.5452071,-8.798735,-5.9568826)" />
  </defs>
  <metadata
     id="metadata3706">
    <rdf:RDF>
      <cc:Work
         rdf:about="">
        <dc:format>image/svg+xml</dc:format>
        <dc:type
           rdf:resource="http://purl.org/dc/dcmitype/StillImage" />
        <dc:title />
      </cc:Work>
    </rdf:RDF>
  </metadata>
  <g
     id="layer1"
     transform="translate(0,8)">
    <path
       d="m 9.0625,-1.0000003 c 0,1.9999998 0,3.9999999 0,6.0000003 l 6,-6.0000003 c -2,0 -4,0 -6,0 z m 6,0 -2,5.0000003 2,0 c 0,-1.666667 0,-3.3333338 0,-5.0000003 z m 0,6.1562503 -6,6.84375 c 2,0 4,0 6,0 0,-2.28125 0,-4.5625 0,-6.84375 z m -6,6.84375 3,-6 -3,0 c 0,2 0,4 0,6 z"
       id="rect3728-9"
       style="opacity:0.6;fill:#ffffff;fill-opacity:1;fill-rule:nonzero;stroke:none;stroke-width:1;marker:none;visibility:visible;display:inline;overflow:visible;enable-background:accumulate" />
    <path
       d="m 7.5,12.5 0,-14.0000003 c 0,-0.554 0.446,-1 1,-1 l 7,0 c 0.554,0 1,0.446 1,1 L 16.5,12.5 c 0,0.554 -0.446,1 -1,1 l -7,0 c -0.554,0 -1,-0.446 -1,-1 z m 3.00264,-15.1184513 c 7e-4,-0.32804 0.0015,-0.656076 0.0025,-0.984108 0.04076,-0.597825 0.6496,-0.976733 1.212198,-0.897474 0.532922,0.023433 1.176896,-0.124121 1.554865,0.363195 0.350761,0.438478 0.191405,1.0212 0.227797,1.537207"
       id="path3208"
       style="opacity:0.6;fill:none;stroke:#ffffff;stroke-width:1;stroke-linecap:round;stroke-linejoin:miter;stroke-miterlimit:4;stroke-opacity:1;stroke-dashoffset:0;marker:none;visibility:visible;display:inline;overflow:visible;enable-background:accumulate" />
    <rect
       width="14.5"
       height="7.5"
       rx="0.25"
       ry="0.25"
       x="-11.75"
       y="8.25"
       transform="matrix(0,-1,1,0,0,0)"
       id="rect3236"
       style="opacity:0.3;fill:none;stroke:#000000;stroke-width:0.5;stroke-linecap:round;stroke-linejoin:miter;stroke-miterlimit:4;stroke-opacity:1;stroke-dasharray:none;stroke-dashoffset:0;marker:none;visibility:visible;display:inline;overflow:visible;enable-background:accumulate" />
    <path
       d="m 9.0625,-2.0000003 c 0,1.9999998 0,3.9999999 0,6.0000003 l 6,-6.0000003 c -2,0 -4,0 -6,0 z m 6,0 -2,5 2,0 c 0,-1.6666667 0,-3.3333335 0,-5 z m 0,6.1562503 -6,6.84375 c 2,0 4,0 6,0 0,-2.28125 0,-4.5625 0,-6.84375 z m -6,6.84375 3,-6 -3,0 c 0,2 0,4 0,6 z"
       id="rect3728"
       style="opacity:0.7;fill:url(#linearGradient2488);fill-opacity:1;fill-rule:nonzero;stroke:none;stroke-width:1;marker:none;visibility:visible;display:inline;overflow:visible;enable-background:accumulate" />
    <path
       d="m 7.5,11.5 0,-14.0000003 c 0,-0.554 0.446,-1 1,-1 l 7,0 c 0.554,0 1,0.446 1,1 L 16.5,11.5 c 0,0.554 -0.446,1 -1,1 l -7,0 c -0.554,0 -1,-0.446 -1,-1 z m 3.00264,-15.1184513 c 7e-4,-0.32804 0.0015,-0.656076 0.0025,-0.984108 0.04076,-0.597825 0.6496,-0.976733 1.212198,-0.897474 0.532922,0.023433 1.176896,-0.124121 1.554865,0.363195 0.350761,0.438478 0.191405,1.0212 0.227797,1.537207"
       id="rect2442"
       style="opacity:0.7;fill:none;stroke:url(#linearGradient2485);stroke-width:1;stroke-linecap:round;stroke-linejoin:miter;stroke-miterlimit:4;stroke-opacity:1;stroke-dashoffset:0;marker:none;visibility:visible;display:inline;overflow:visible;enable-background:accumulate" />
  </g>
</svg>
