<?xml version="1.0" encoding="UTF-8" standalone="no"?>
<svg
   xmlns:dc="http://purl.org/dc/elements/1.1/"
   xmlns:cc="http://creativecommons.org/ns#"
   xmlns:rdf="http://www.w3.org/1999/02/22-rdf-syntax-ns#"
   xmlns:svg="http://www.w3.org/2000/svg"
   xmlns="http://www.w3.org/2000/svg"
   xmlns:xlink="http://www.w3.org/1999/xlink"
   id="svg3718"
   height="24"
   width="14"
   version="1.1">
  <metadata
     id="metadata19">
    <rdf:RDF>
      <cc:Work
         rdf:about="">
        <dc:format>image/svg+xml</dc:format>
        <dc:type
           rdf:resource="http://purl.org/dc/dcmitype/StillImage" />
      </cc:Work>
    </rdf:RDF>
  </metadata>
  <defs
     id="defs3720">
    <linearGradient
       id="linearGradient3187">
      <stop
         offset="0"
         style="stop-color:#a60000;stop-opacity:1"
         id="stop3189" />
      <stop
         offset="1"
         style="stop-color:#ff1313;stop-opacity:1"
         id="stop3191" />
    </linearGradient>
    <linearGradient
       y2="17.01939"
       x2="11.376964"
       y1="14.98917"
       x1="11.376964"
       gradientTransform="translate(-5,-3e-7)"
       gradientUnits="userSpaceOnUse"
       id="linearGradient2997"
       xlink:href="#linearGradient3187" />
    <linearGradient
       y2="17.01939"
       x2="11.376964"
       y1="7"
       x1="11.376964"
       gradientTransform="translate(-5,-3e-7)"
       gradientUnits="userSpaceOnUse"
       id="linearGradient3000"
       xlink:href="#linearGradient3187" />
    <linearGradient
       y2="21"
       x2="12"
       y1="1.9895233"
       x1="12"
       gradientTransform="translate(-5,-3e-7)"
       gradientUnits="userSpaceOnUse"
       id="linearGradient3003"
       xlink:href="#linearGradient3187" />
  </defs>
  <path
     d="m 7,7.9999997 c -0.554,0 -1,0.446 -1,1 L 6,14 c 0,0.554 0.446,1 1,1 0.554,0 1,-0.446 1,-1 L 8,8.9999997 c 0,-0.554 -0.446,-1 -1,-1 z M 6.75,16 C 6.3345,16 6,16.3345 6,16.75 l 0,0.5 C 6,17.6655 6.3345,18 6.75,18 l 0.5,0 C 7.6655,18 8,17.6655 8,17.25 l 0,-0.5 C 8,16.3345 7.6655,16 7.25,16 l -0.5,0 z"
     id="path3471"
     style="opacity:0.6;fill:#ffffff;fill-opacity:1;fill-rule:nonzero;stroke:none;stroke-width:1;marker:none;visibility:visible;display:inline;overflow:visible;enable-background:accumulate" />
  <rect
     width="14.5"
     height="7.5"
     rx="0.25"
     ry="0.25"
     x="-19.75"
     y="3.25"
     transform="matrix(0,-1,1,0,0,0)"
     id="rect3236"
     style="opacity:0.3;fill:none;stroke:#f00000;stroke-width:0.5;stroke-linecap:round;stroke-linejoin:miter;stroke-miterlimit:4;stroke-opacity:1;stroke-dasharray:none;stroke-dashoffset:0;marker:none;visibility:visible;display:inline;overflow:visible;enable-background:accumulate" />
  <path
     d="m 2.5,20.5 0,-14.0000003 c 0,-0.554 0.446,-1 1,-1 l 7,0 c 0.554,0 1,0.446 1,1 L 11.5,20.5 c 0,0.554 -0.446,1 -1,1 l -7,0 c -0.554,0 -1,-0.446 -1,-1 z M 5.50264,5.3815487 c 7e-4,-0.32804 0.00153,-0.656076 0.0025,-0.984108 0.040761,-0.597825 0.6496,-0.976733 1.212198,-0.897474 0.532922,0.023433 1.176896,-0.124121 1.554865,0.363195 0.350761,0.438478 0.191405,1.0212 0.227797,1.537207"
     id="path3208"
     style="opacity:0.6;fill:none;stroke:#ffffff;stroke-width:1;stroke-linecap:round;stroke-linejoin:miter;stroke-miterlimit:4;stroke-opacity:1;stroke-dashoffset:0;marker:none;visibility:visible;display:inline;overflow:visible;enable-background:accumulate" />
  <path
     d="m 2.5,19.5 0,-14.0000003 c 0,-0.554 0.446,-1 1,-1 l 7,0 c 0.554,0 1,0.446 1,1 L 11.5,19.5 c 0,0.554 -0.446,1 -1,1 l -7,0 c -0.554,0 -1,-0.446 -1,-1 z M 5.50264,4.3815487 c 7e-4,-0.32804 0.00153,-0.656076 0.0025,-0.984108 0.040761,-0.597825 0.6496,-0.976733 1.212198,-0.897474 0.532922,0.023433 1.176896,-0.124121 1.554865,0.363195 0.350761,0.438478 0.191405,1.0212 0.227797,1.537207"
     id="rect2442"
     style="opacity:0.8;fill:none;stroke:url(#linearGradient3003);stroke-width:1;stroke-linecap:round;stroke-linejoin:miter;stroke-miterlimit:4;stroke-opacity:1;stroke-dashoffset:0;marker:none;visibility:visible;display:inline;overflow:visible;enable-background:accumulate" />
  <path
     d="m 7,6.9999997 c 0.554,0 1,0.446 1,1 L 8,13 C 8,13.554 7.554,14 7,14 6.446,14 6,13.554 6,13 L 6,7.9999997 c 0,-0.554 0.446,-1 1,-1 z"
     id="path3467"
     style="opacity:0.8;fill:url(#linearGradient3000);fill-opacity:1;fill-rule:nonzero;stroke:none;stroke-width:1;marker:none;visibility:visible;display:inline;overflow:visible;enable-background:accumulate" />
  <path
     d="m 6.75,15 0.5,0 C 7.6655,15 8,15.3345 8,15.75 l 0,0.5 C 8,16.6655 7.6655,17 7.25,17 l -0.5,0 C 6.3345,17 6,16.6655 6,16.25 l 0,-0.5 C 6,15.3345 6.3345,15 6.75,15 z"
     id="rect3448"
     style="opacity:0.8;fill:url(#linearGradient2997);fill-opacity:1;fill-rule:nonzero;stroke:none;stroke-width:1;marker:none;visibility:visible;display:inline;overflow:visible;enable-background:accumulate" />
</svg>
