<?xml version="1.0" encoding="UTF-8" standalone="no"?>
<!-- Created with Inkscape (http://www.inkscape.org/) -->

<svg
   xmlns:dc="http://purl.org/dc/elements/1.1/"
   xmlns:cc="http://creativecommons.org/ns#"
   xmlns:rdf="http://www.w3.org/1999/02/22-rdf-syntax-ns#"
   xmlns:svg="http://www.w3.org/2000/svg"
   xmlns="http://www.w3.org/2000/svg"
   xmlns:xlink="http://www.w3.org/1999/xlink"
   xmlns:sodipodi="http://sodipodi.sourceforge.net/DTD/sodipodi-0.dtd"
   xmlns:inkscape="http://www.inkscape.org/namespaces/inkscape"
   version="1.1"
   width="24"
   height="24"
   id="svg3887"
   inkscape:version="0.48.4 r9939"
   sodipodi:docname="gpm-battery-020-charging.svg">
  <metadata
     id="metadata25">
    <rdf:RDF>
      <cc:Work
         rdf:about="">
        <dc:format>image/svg+xml</dc:format>
        <dc:type
           rdf:resource="http://purl.org/dc/dcmitype/StillImage" />
      </cc:Work>
    </rdf:RDF>
  </metadata>
  <sodipodi:namedview
     pagecolor="#ffffff"
     bordercolor="#666666"
     borderopacity="1"
     objecttolerance="10"
     gridtolerance="10"
     guidetolerance="10"
     inkscape:pageopacity="0"
     inkscape:pageshadow="2"
     inkscape:window-width="1240"
     inkscape:window-height="753"
     id="namedview23"
     showgrid="false"
     inkscape:zoom="13.227273"
     inkscape:cx="-2.0034362"
     inkscape:cy="10.940728"
     inkscape:window-x="0"
     inkscape:window-y="25"
     inkscape:window-maximized="0"
     inkscape:current-layer="svg3887" />
  <defs
     id="defs3889">
    <linearGradient
       id="linearGradient3587-6-5-3-4-7">
      <stop
         id="stop3589-9-2-2-8-2"
         style="stop-color:#000000;stop-opacity:1"
         offset="0" />
      <stop
         id="stop3591-7-4-73-1-8"
         style="stop-color:#363636;stop-opacity:1"
         offset="1" />
    </linearGradient>
    <linearGradient
       id="linearGradient3587-6-5-3-2-7">
      <stop
         id="stop3589-9-2-2-2-7"
         style="stop-color:#000000;stop-opacity:1"
         offset="0" />
      <stop
         id="stop3591-7-4-73-6-9"
         style="stop-color:#363636;stop-opacity:1"
         offset="1" />
    </linearGradient>
    <linearGradient
       id="linearGradient3587-6-5-3-2-7-2">
      <stop
         id="stop3589-9-2-2-2-7-2"
         style="stop-color:#000000;stop-opacity:1"
         offset="0" />
      <stop
         id="stop3591-7-4-73-6-9-9"
         style="stop-color:#363636;stop-opacity:1"
         offset="1" />
    </linearGradient>
    <linearGradient
       x1="51.780437"
       y1="7.2575765"
       x2="51.780437"
       y2="31.112288"
       id="linearGradient2836"
       xlink:href="#linearGradient3587-6-5-3-4-7"
       gradientUnits="userSpaceOnUse"
       gradientTransform="matrix(0.41012004,0,0,0.5449153,-8.799218,2.0536823)" />
    <linearGradient
       x1="12"
       y1="1.9895233"
       x2="12"
       y2="21"
       id="linearGradient2843"
       xlink:href="#linearGradient3587-6-5-3-2-7"
       gradientUnits="userSpaceOnUse"
       gradientTransform="matrix(1.0000233,0,0,0.9994648,-2.7927616e-4,0.0116581)" />
    <linearGradient
       x1="51.780437"
       y1="7.2575765"
       x2="51.780437"
       y2="31.112288"
       id="linearGradient2852"
       xlink:href="#linearGradient3587-6-5-3-2-7-2"
       gradientUnits="userSpaceOnUse"
       gradientTransform="matrix(0.41012004,0,0,0.12574968,-8.799219,15.090457)" />
  </defs>
  <path
     d="m 7.4998953,20.500686 0,-13.992507 c 0,-0.5537035 0.4460104,-0.9994648 1.0000232,-0.9994648 l 7.0001625,0 c 0.554013,0 1.000024,0.4457613 1.000024,0.9994648 l 0,13.992507 c 0,0.553704 -0.446011,0.999465 -1.000024,0.999465 l -7.0001625,0 c -0.5540128,0 -1.0000232,-0.445761 -1.0000232,-0.999465 z M 10.502605,5.3903266 c 7e-4,-0.3278644 0.0015,-0.6557249 0.0025,-0.9835813 0.04076,-0.5975051 0.649615,-0.9762103 1.212226,-0.8969937 0.532935,0.02342 1.176924,-0.1240546 1.554902,0.3630006 0.350769,0.4382434 0.191409,1.0206535 0.227802,1.5363843"
     id="path3208-6"
     style="opacity:0.6;fill:none;stroke:#ffffff;stroke-width:0.999744;stroke-linecap:round;stroke-linejoin:miter;stroke-miterlimit:4;stroke-opacity:1;stroke-dashoffset:0;marker:none;visibility:visible;display:inline;overflow:visible;enable-background:accumulate"
     inkscape:connector-curvature="0" />
  <rect
     width="14.49224"
     height="7.5001745"
     rx="0.2498662"
     ry="0.25000581"
     x="-19.751087"
     y="8.2499123"
     transform="matrix(0,-1,1,0,0,0)"
     id="rect3236-1"
     style="opacity:0.2;fill:none;stroke:#000000;stroke-width:0.499872;stroke-linecap:round;stroke-linejoin:miter;stroke-miterlimit:4;stroke-opacity:1;stroke-dasharray:none;stroke-dashoffset:0;marker:none;visibility:visible;display:inline;overflow:visible;enable-background:accumulate" />
  <path
     d="m 7.4998953,19.501222 0,-13.9925078 c 0,-0.5537035 0.4460104,-0.9994648 1.0000232,-0.9994648 l 7.0001625,0 c 0.554013,0 1.000024,0.4457613 1.000024,0.9994648 l 0,13.9925078 c 0,0.553703 -0.446011,0.999464 -1.000024,0.999464 l -7.0001625,0 c -0.5540128,0 -1.0000232,-0.445761 -1.0000232,-0.999464 z M 10.502605,4.3908618 c 7e-4,-0.3278644 0.0015,-0.6557249 0.0025,-0.9835813 0.04076,-0.5975051 0.649615,-0.9762103 1.212226,-0.8969937 0.532935,0.023421 1.176924,-0.1240546 1.554902,0.3630006 0.350769,0.4382434 0.191409,1.0206535 0.227802,1.5363843"
     id="rect2442-9"
     style="opacity:0.7;fill:none;stroke:url(#linearGradient2843);stroke-width:0.999744;stroke-linecap:round;stroke-linejoin:miter;stroke-miterlimit:4;stroke-opacity:1;stroke-dashoffset:0;marker:none;visibility:visible;display:inline;overflow:visible;enable-background:accumulate"
     inkscape:connector-curvature="0" />
  <rect
     width="6.0001397"
     height="2.9983945"
     rx="0.25000581"
     ry="0"
     x="8.9999304"
     y="17.00256"
     id="rect3965-9"
     style="opacity:0.3;color:#000000;fill:#ffffff;fill-opacity:1;fill-rule:nonzero;stroke:none;stroke-width:1;marker:none;visibility:visible;display:inline;overflow:visible;enable-background:accumulate" />
  <rect
     width="6.0001397"
     height="2.9983945"
     rx="0.25000581"
     ry="0"
     x="8.9999304"
     y="16.003096"
     id="rect3965"
     style="opacity:0.35;color:#000000;fill:url(#linearGradient2852);fill-opacity:1;fill-rule:nonzero;stroke:none;stroke-width:1;marker:none;visibility:visible;display:inline;overflow:visible;enable-background:accumulate" />
  <path
     d="m 15.055456,6.9799267 -7.000163,6.9962523 4.000093,0 -3.0000697,5.99679 7.0001627,-7.995719 -3.000069,0 2.000046,-4.9973233 z"
     id="path3172-0"
     style="opacity:0.4;fill:#ffffff;fill-opacity:1;fill-rule:nonzero;stroke:none;stroke-width:1;marker:none;visibility:visible;display:inline;overflow:visible;enable-background:accumulate"
     inkscape:connector-curvature="0" />
  <path
     d="m 15.055456,5.9808057 -7.000163,6.9962523 4.000093,0 -3.0000697,5.99679 7.0001627,-7.995719 -3.000069,0 2.000046,-4.9973233 z"
     id="path3172"
     style="opacity:0.7;fill:url(#linearGradient2836);fill-opacity:1;fill-rule:nonzero;stroke:none;stroke-width:1;marker:none;visibility:visible;display:inline;overflow:visible;enable-background:accumulate"
     inkscape:connector-curvature="0" />
</svg>
