<?xml version="1.0" encoding="UTF-8" standalone="no"?>
<svg
   xmlns:dc="http://purl.org/dc/elements/1.1/"
   xmlns:cc="http://creativecommons.org/ns#"
   xmlns:rdf="http://www.w3.org/1999/02/22-rdf-syntax-ns#"
   xmlns:svg="http://www.w3.org/2000/svg"
   xmlns="http://www.w3.org/2000/svg"
   xmlns:xlink="http://www.w3.org/1999/xlink"
   width="24"
   height="24"
   id="svg3154"
   version="1.0">
  <defs
     id="defs3156">
    <linearGradient
       id="linearGradient3587">
      <stop
         style="stop-color:#000000;stop-opacity:1;"
         offset="0"
         id="stop3589" />
      <stop
         style="stop-color:#363636;stop-opacity:1;"
         offset="1"
         id="stop3591" />
    </linearGradient>
    <linearGradient
       xlink:href="#linearGradient3587"
       id="linearGradient3593"
       x1="12"
       y1="3.000001"
       x2="12"
       y2="21"
       gradientUnits="userSpaceOnUse" />
  </defs>
  <metadata
     id="metadata3159">
    <rdf:RDF>
      <cc:Work
         rdf:about="">
        <dc:format>image/svg+xml</dc:format>
        <dc:type
           rdf:resource="http://purl.org/dc/dcmitype/StillImage" />
      </cc:Work>
    </rdf:RDF>
  </metadata>
  <g
     id="layer1">
    <path
       style="fill:none;fill-opacity:1;fill-rule:nonzero;stroke:#ffffff;stroke-width:2;stroke-linecap:butt;stroke-linejoin:miter;marker:none;marker-start:none;marker-mid:none;marker-end:none;stroke-miterlimit:4;stroke-dasharray:none;stroke-dashoffset:0;stroke-opacity:1;visibility:visible;display:inline;overflow:visible;enable-background:accumulate;opacity:0.6"
       d="M 20,15.733552 C 18.900407,18.799135 15.708188,20.989585 12.364443,20.997629 C 9.0541807,21.079722 5.8255216,19.022557 4.6164005,16.026048 C 3.2994112,13.034904 4.1486488,9.3218647 6.6308619,7.1401885 C 8.9698089,4.9790362 12.652956,4.3828597 15.59005,5.6812687 C 16.748057,6.1570883 17.767829,6.9171123 18.567736,7.8559238 L 6.0149646,18.071003"
       id="path3205" />
    <path
       style="fill:none;fill-opacity:1;fill-rule:nonzero;stroke:url(#linearGradient3593);stroke-width:1.99999963999999997;stroke-linecap:butt;stroke-linejoin:miter;marker:none;marker-start:none;marker-mid:none;marker-end:none;stroke-miterlimit:4;stroke-dasharray:none;stroke-dashoffset:0;stroke-opacity:1;visibility:visible;display:inline;overflow:visible;enable-background:accumulate;opacity:0.7"
       d="M 20,14.733552 C 18.900407,17.799135 15.708188,19.989585 12.364443,19.997629 C 9.0541807,20.079722 5.8255216,18.022557 4.6164005,15.026048 C 3.2994112,12.034904 4.1486488,8.3218647 6.6308619,6.1401885 C 8.9698089,3.9790362 12.652956,3.3828597 15.59005,4.6812687 C 16.748057,5.1570883 17.767829,5.9171123 18.567736,6.8559238 L 6.0149646,17.071003"
       id="path2386" />
  </g>
</svg>
