<?xml version="1.0" encoding="UTF-8" standalone="no"?>
<svg
   xmlns:dc="http://purl.org/dc/elements/1.1/"
   xmlns:cc="http://creativecommons.org/ns#"
   xmlns:rdf="http://www.w3.org/1999/02/22-rdf-syntax-ns#"
   xmlns:svg="http://www.w3.org/2000/svg"
   xmlns="http://www.w3.org/2000/svg"
   xmlns:xlink="http://www.w3.org/1999/xlink"
   height="24"
   width="24"
   id="svg2"
   version="1.1">
  <defs
     id="defs7">
    <linearGradient
       id="linearGradient3587-6-5-3">
      <stop
         offset="0"
         style="stop-color:#000000;stop-opacity:1"
         id="stop3589-9-2-2" />
      <stop
         offset="1"
         style="stop-color:#363636;stop-opacity:1"
         id="stop3591-7-4-73" />
    </linearGradient>
    <linearGradient
       gradientTransform="matrix(1.1818182,0,0,1.125,-0.9090909,-0.375)"
       gradientUnits="userSpaceOnUse"
       y2="19"
       x2="7"
       y1="3"
       x1="7"
       id="linearGradient836"
       xlink:href="#linearGradient3587-6-5-3" />
  </defs>
  <metadata
     id="metadata12">
    <rdf:RDF>
      <cc:Work
         rdf:about="">
        <dc:format>image/svg+xml</dc:format>
        <dc:type
           rdf:resource="http://purl.org/dc/dcmitype/StillImage" />
        <dc:title />
      </cc:Work>
    </rdf:RDF>
  </metadata>
  <path
     id="path816-5-0"
     d="M 12 4 L 12 6 C 8.083799 6 5 9.2721 5 13 L 7 13 C 7 10.5147 9.3892 8 12 8 L 12 10 L 18 7 L 12 4 z M 17 13 C 17 15.4853 14.6108 18 12 18 L 12 16 L 6 19 L 12 22 L 12 20 C 15.916201 20 19 16.7279 19 13 L 17 13 z "
     style="color:#bebebe;overflow:visible;opacity:0.7;fill:#ffffff;fill-opacity:1;stroke-width:1.15305912;marker:none" />
  <path
     id="path816"
     d="M 12 3 L 12 5 C 8.0837991 5 5 8.2721 5 12 L 7 12 C 7 9.5147 9.3892 7 12 7 L 12 9 L 18 6 L 12 3 z M 17 12 C 17 14.4853 14.6108 17 12 17 L 12 15 L 6 18 L 12 21 L 12 19 C 15.916201 19 19 15.7279 19 12 L 17 12 z "
     style="color:#bebebe;overflow:visible;opacity:0.7;fill:url(#linearGradient836);fill-opacity:1;stroke-width:1.15305912;marker:none" />
</svg>
