<?xml version="1.0" encoding="UTF-8" standalone="no"?>
<!-- Created with Inkscape (http://www.inkscape.org/) -->

<svg
   xmlns:dc="http://purl.org/dc/elements/1.1/"
   xmlns:cc="http://creativecommons.org/ns#"
   xmlns:rdf="http://www.w3.org/1999/02/22-rdf-syntax-ns#"
   xmlns:svg="http://www.w3.org/2000/svg"
   xmlns="http://www.w3.org/2000/svg"
   xmlns:xlink="http://www.w3.org/1999/xlink"
   xmlns:sodipodi="http://sodipodi.sourceforge.net/DTD/sodipodi-0.dtd"
   xmlns:inkscape="http://www.inkscape.org/namespaces/inkscape"
   width="96"
   height="96"
   id="svg18157"
   version="1.1"
   inkscape:version="0.48+devel r"
   sodipodi:docname="folder-visiting.svg"
   inkscape:export-filename="/home/sergio/Pictures/elementary-xfce-new/96/folder_.png"
   inkscape:export-xdpi="90"
   inkscape:export-ydpi="90">
  <defs
     id="defs18159">
    <linearGradient
       inkscape:collect="always"
       xlink:href="#linearGradient6129-963-697-142-998-580-273-44-2-2"
       id="linearGradient12487"
       gradientUnits="userSpaceOnUse"
       gradientTransform="matrix(2.2651514,0,0,2.0354763,-6.363633,-49.531037)"
       x1="22.934725"
       y1="49.629246"
       x2="22.809399"
       y2="36.657963" />
    <linearGradient
       id="linearGradient6129-963-697-142-998-580-273-44-2-2">
      <stop
         id="stop2661-01-6-2"
         style="stop-color:#0a0a0a;stop-opacity:0.498"
         offset="0" />
      <stop
         id="stop2663-64-5-5"
         style="stop-color:#0a0a0a;stop-opacity:0"
         offset="1" />
    </linearGradient>
    <linearGradient
       inkscape:collect="always"
       xlink:href="#linearGradient4632-0-6-4"
       id="linearGradient12481"
       gradientUnits="userSpaceOnUse"
       gradientTransform="matrix(1.9997551,0,0,2.0714256,0.0113782,-52.678508)"
       x1="35.792694"
       y1="17.118193"
       x2="35.792694"
       y2="43.761127" />
    <linearGradient
       id="linearGradient4632-0-6-4">
      <stop
         style="stop-color:#e9e9e9;stop-opacity:1"
         offset="0"
         id="stop4634-4-4-7" />
      <stop
         style="stop-color:#b4b4b4;stop-opacity:1"
         offset="1"
         id="stop4636-3-1-5" />
    </linearGradient>
    <radialGradient
       inkscape:collect="always"
       xlink:href="#linearGradient5060-820-91-9-0"
       id="radialGradient12475"
       gradientUnits="userSpaceOnUse"
       gradientTransform="matrix(-0.06159637,0,0,0.04973261,46.790195,14.219719)"
       cx="605.71429"
       cy="486.64789"
       fx="605.71429"
       fy="486.64789"
       r="117.14286" />
    <linearGradient
       id="linearGradient5060-820-91-9-0">
      <stop
         id="stop2681-778-5-1"
         style="stop-color:#000000;stop-opacity:1"
         offset="0" />
      <stop
         id="stop2683-2-86-2"
         style="stop-color:#000000;stop-opacity:0"
         offset="1" />
    </linearGradient>
    <radialGradient
       inkscape:collect="always"
       xlink:href="#linearGradient5060-179-37-4-0"
       id="radialGradient12471"
       gradientUnits="userSpaceOnUse"
       gradientTransform="matrix(0.06159637,0,0,0.04973261,49.231778,14.219719)"
       cx="605.71429"
       cy="486.64789"
       fx="605.71429"
       fy="486.64789"
       r="117.14286" />
    <linearGradient
       id="linearGradient5060-179-37-4-0">
      <stop
         id="stop2675-91-9-2"
         style="stop-color:#000000;stop-opacity:1"
         offset="0" />
      <stop
         id="stop2677-09-0-9"
         style="stop-color:#000000;stop-opacity:0"
         offset="1" />
    </linearGradient>
    <linearGradient
       inkscape:collect="always"
       xlink:href="#linearGradient5048-585-73-1-5"
       id="linearGradient12467"
       gradientUnits="userSpaceOnUse"
       gradientTransform="matrix(0.15881504,0,0,0.04973261,-9.3893001,14.219719)"
       x1="302.85715"
       y1="366.64789"
       x2="302.85715"
       y2="609.50507" />
    <linearGradient
       id="linearGradient5048-585-73-1-5">
      <stop
         id="stop2667-99-4-6"
         style="stop-color:#000000;stop-opacity:0"
         offset="0" />
      <stop
         id="stop2669-5-9-4"
         style="stop-color:#000000;stop-opacity:1"
         offset="0.5" />
      <stop
         id="stop2671-56-4-2"
         style="stop-color:#000000;stop-opacity:0"
         offset="1" />
    </linearGradient>
    <linearGradient
       inkscape:collect="always"
       xlink:href="#linearGradient4507-0-4-7"
       id="linearGradient12463"
       gradientUnits="userSpaceOnUse"
       gradientTransform="matrix(1.8490408,0,0,2.2218594,4.7135631,-40.207439)"
       x1="21.37039"
       y1="4.2476678"
       x2="21.37039"
       y2="34.143417" />
    <linearGradient
       id="linearGradient4507-0-4-7">
      <stop
         id="stop4509-35-6-1"
         style="stop-color:#ffffff;stop-opacity:1"
         offset="0" />
      <stop
         id="stop4511-46-3-8"
         style="stop-color:#ffffff;stop-opacity:0.23529412"
         offset="0.07395859" />
      <stop
         id="stop4513-15-5-9"
         style="stop-color:#ffffff;stop-opacity:0.15686275"
         offset="0.99001008" />
      <stop
         id="stop4515-1-1-8"
         style="stop-color:#ffffff;stop-opacity:0.39215687"
         offset="1" />
    </linearGradient>
    <linearGradient
       inkscape:collect="always"
       xlink:href="#linearGradient4646-7-4-3"
       id="linearGradient12459"
       gradientUnits="userSpaceOnUse"
       gradientTransform="matrix(2.047619,0,0,2.0999999,-105.45041,-50.899999)"
       x1="62.988873"
       y1="13"
       x2="62.988873"
       y2="16" />
    <linearGradient
       id="linearGradient4646-7-4-3">
      <stop
         offset="0"
         style="stop-color:#f9f9f9;stop-opacity:1"
         id="stop4648-8-0-3" />
      <stop
         offset="1"
         style="stop-color:#d8d8d8;stop-opacity:1"
         id="stop4650-1-7-3" />
    </linearGradient>
    <linearGradient
       id="linearGradient3104-8-8-97-4-6-11-5-5">
      <stop
         offset="0"
         style="stop-color:#000000;stop-opacity:0.32173914"
         id="stop3106-5-4-3-5-0-2-1-0" />
      <stop
         offset="1"
         style="stop-color:#000000;stop-opacity:0.27826086"
         id="stop3108-4-3-7-8-2-0-7-9" />
    </linearGradient>
    <linearGradient
       y2="3.6336823"
       x2="-51.786404"
       y1="53.514328"
       x1="-51.786404"
       gradientTransform="matrix(1.6337756,0,0,1.7432828,215.6808,-50.418758)"
       gradientUnits="userSpaceOnUse"
       id="linearGradient18155"
       xlink:href="#linearGradient3104-8-8-97-4-6-11-5-5"
       inkscape:collect="always" />
    <linearGradient
       inkscape:collect="always"
       xlink:href="#linearGradient8272"
       id="linearGradient5891"
       gradientUnits="userSpaceOnUse"
       gradientTransform="matrix(1.9636254,0,0,2.0287677,-104.69613,-51.621911)"
       x1="97.538795"
       y1="16.962049"
       x2="97.538795"
       y2="44.260689" />
    <linearGradient
       id="linearGradient8272">
      <stop
         offset="0"
         style="stop-color:#ffffff;stop-opacity:1"
         id="stop8274" />
      <stop
         offset="0.0221225"
         style="stop-color:#ffffff;stop-opacity:0.23529412"
         id="stop8276" />
      <stop
         offset="0.97909725"
         style="stop-color:#ffffff;stop-opacity:0.15686275"
         id="stop8278" />
      <stop
         offset="1"
         style="stop-color:#ffffff;stop-opacity:0.39215687"
         id="stop8280" />
    </linearGradient>
  </defs>
  <sodipodi:namedview
     id="base"
     pagecolor="#ffffff"
     bordercolor="#666666"
     borderopacity="1.0"
     inkscape:pageopacity="0.0"
     inkscape:pageshadow="2"
     inkscape:zoom="4"
     inkscape:cx="40.952521"
     inkscape:cy="36.166564"
     inkscape:current-layer="layer1"
     showgrid="true"
     inkscape:grid-bbox="true"
     inkscape:document-units="px"
     inkscape:window-width="1535"
     inkscape:window-height="876"
     inkscape:window-x="65"
     inkscape:window-y="24"
     inkscape:window-maximized="1"
     showguides="false"
     inkscape:snap-global="false">
    <inkscape:grid
       type="xygrid"
       id="grid4112" />
  </sodipodi:namedview>
  <metadata
     id="metadata18162">
    <rdf:RDF>
      <cc:Work
         rdf:about="">
        <dc:format>image/svg+xml</dc:format>
        <dc:type
           rdf:resource="http://purl.org/dc/dcmitype/StillImage" />
        <dc:title />
      </cc:Work>
    </rdf:RDF>
  </metadata>
  <g
     id="layer1"
     inkscape:label="Layer 1"
     inkscape:groupmode="layer"
     transform="translate(0,48)">
    <g
       id="g4111">
      <path
         sodipodi:nodetypes="sscsssssssscsss"
         id="rect4251-0-0-61"
         d="m 10.5,-32.500001 c -1.1208845,0 -2.0128829,0.932618 -2,2.09091 L 8.546511,-26.5 l -2.0232557,0 C 5.402372,-26.5 4.5,-25.658364 4.5,-24.5 l 0,12.909091 c 0,1.158364 0.902372,2.0909075 2.0232558,2.0909075 l 82.9534852,0 c 1.120884,0 2.023257,-0.9325435 2.023257,-2.0909075 l 0,-12.909091 c 0,-1.158364 -0.879114,-2 -1.999998,-2 l -46.988371,0 -0.01163,-4 c -0.0034,-1.158359 -0.879116,-2.000001 -2,-2.000001 z"
         style="opacity:0.8;color:#000000;fill:none;stroke:url(#linearGradient18155);stroke-width:1;stroke-linecap:butt;stroke-linejoin:miter;stroke-miterlimit:4;stroke-opacity:1;stroke-dasharray:none;stroke-dashoffset:0;marker:none;visibility:visible;display:inline;overflow:visible;enable-background:accumulate"
         inkscape:connector-curvature="0" />
      <path
         sodipodi:nodetypes="sscsssssssscsss"
         inkscape:connector-curvature="0"
         id="rect4251-3-2"
         d="M 10.5,-32 C 9.6615793,-32 9,-31.167933 9,-30.5 l 0,4.5 -2.5,0 C 5.3441866,-26 5,-24.920401 5,-24.5 l 0,12.45 C 5,-11.4683 5.456619,-11 6.0238094,-11 L 89.97619,-11 C 90.543381,-11 91,-11.4683 91,-12.05 l 0,-12.45 c 0,-0.672063 -0.562261,-1.5 -1.5,-1.5 l -47.5,0 0,-4.5 c 0,-0.788784 -0.692749,-1.5 -1.5,-1.5 z"
         style="color:#000000;fill:url(#linearGradient12459);fill-opacity:1;fill-rule:nonzero;stroke:none;stroke-width:1;marker:none;visibility:visible;display:inline;overflow:visible;enable-background:accumulate" />
      <path
         sodipodi:nodetypes="ccccccccccccc"
         inkscape:connector-curvature="0"
         id="rect4251-9-21-7"
         d="m 10.5,-31.5 c -0.5872251,0.10637 -0.95027,0.447766 -1,1 l 0,5 -3,0 c -0.5809284,0.05823 -0.9489291,0.353042 -1,1 l -2e-7,13.999999 85.0000002,0 0,-13.999999 c -0.09353,-0.778684 -0.49653,-0.982634 -1,-1 l -48,0 0,-5 c -0.05959,-0.637493 -0.410196,-0.951634 -1,-1 z"
         style="color:#000000;fill:none;stroke:url(#linearGradient12463);stroke-width:0.99999976;stroke-linecap:round;stroke-linejoin:round;stroke-miterlimit:4;stroke-opacity:1;stroke-dasharray:none;stroke-dashoffset:0;marker:none;visibility:visible;display:inline;overflow:visible;enable-background:accumulate" />
      <rect
         width="76.684975"
         height="12.077923"
         x="9.6685123"
         y="32.454079"
         id="rect4173-8-8"
         style="opacity:0.3;fill:url(#linearGradient12467);fill-opacity:1;fill-rule:nonzero;stroke:none;stroke-width:1;marker:none;visibility:visible;display:inline;overflow:visible" />
      <path
         d="m 86.353483,32.454502 c 0,0 0,12.077258 0,12.077258 3.172057,0.02275 7.668491,-2.705897 7.668491,-6.039404 0,-3.333506 -3.539785,-6.037854 -7.668491,-6.037854 z"
         inkscape:connector-curvature="0"
         id="path5058-9-0"
         style="opacity:0.3;fill:url(#radialGradient12471);fill-opacity:1;fill-rule:nonzero;stroke:none;stroke-width:1;marker:none;visibility:visible;display:inline;overflow:visible" />
      <path
         d="m 9.6684912,32.454502 c 0,0 0,12.077258 0,12.077258 C 6.4964337,44.55451 2,41.825863 2,38.492356 2,35.15885 5.5397853,32.454502 9.6684912,32.454502 Z"
         inkscape:connector-curvature="0"
         id="path5018-6-6"
         style="opacity:0.3;fill:url(#radialGradient12475);fill-opacity:1;fill-rule:nonzero;stroke:none;stroke-width:1;marker:none;visibility:visible;display:inline;overflow:visible" />
      <path
         sodipodi:nodetypes="ccsscccsc"
         d="m 4.3360685,-18.499998 c -1.496068,0.534816 -1.3252964,1.367822 -1.33402,1.876795 l 2.008001,53.639336 C 5.0658015,38.505423 6.0096883,39.5 7.5091464,39.5 l 80.9707396,0 c 1.499457,0 2.499096,-0.993547 2.499096,-2.483867 0,0 1.896081,-52.504103 1.967112,-53.357882 C 93.062243,-17.124579 92.337713,-18.5 91,-18.5 Z"
         inkscape:connector-curvature="0"
         id="path3388-7-1"
         style="fill:url(#linearGradient12481);fill-opacity:1;stroke:none" />
      <path
         sodipodi:nodetypes="ssccccccs"
         d="m 4.568174,-18.998876 86.863656,8.14e-4 c 1.25489,0 1.99635,0.912556 1.99635,2.040218 L 91.45704,36.860712 C 91.33392,38.647843 90.48822,39.945744 88.65718,40 L 7.2,40 C 5.463056,39.87173 4.57562,38.641849 4.502864,37.046971 L 2.5,-16.963409 c 0,-1.127663 0.813279,-2.035467 2.068174,-2.035467 z"
         inkscape:connector-curvature="0"
         id="path6127-1-4"
         style="opacity:0.4;fill:url(#linearGradient12487);fill-opacity:1;stroke:none" />
      <path
         sodipodi:nodetypes="ccsscccsc"
         d="m 4.3251027,-18.498856 c -1.4498058,0.490696 -1.3251137,1.367794 -1.3416418,1.884521 l 2.014212,53.485004 c 0.055801,1.481731 0.7176742,2.629332 2.4993083,2.629339 l 81.0291138,3.01e-4 c 1.919334,0.0462 2.430691,-1.630307 2.434048,-2.9013 0,0 1.927661,-52.249247 1.99867,-53.103009 0,-0.89896 -0.832577,-1.996015 -1.958813,-1.996 z"
         inkscape:connector-curvature="0"
         id="path3388-7-1-7"
         style="opacity:0.3;fill:none;stroke:#000000;stroke-width:1;stroke-linecap:round;stroke-linejoin:round;stroke-miterlimit:4;stroke-opacity:1;stroke-dashoffset:0" />
      <path
         sodipodi:nodetypes="ccccccccc"
         inkscape:connector-curvature="0"
         id="path8263"
         d="M 5,-17.500011 C 4.1930051,-17.533981 3.9234407,-17.238473 4,-16.5 4.5788399,0.3358018 5.4366806,20.442604 6.0141504,37.27843 6.2647172,38.293686 6.5140709,38.516139 8,38.5 c 25.953775,0.01531 54.546235,-0.01531 80.5,0 0.87582,-0.01003 1.33346,-0.395498 1.5,-2 0.629524,-16.851886 1.95,-52.8 1.95,-52.8 0.0098,-0.764126 -0.447953,-1.296561 -1.45,-1.200003 z"
         style="opacity:0.5;fill:none;stroke:url(#linearGradient5891);stroke-width:1;stroke-linecap:round;stroke-linejoin:round;stroke-miterlimit:4;stroke-opacity:1;stroke-dasharray:none;stroke-dashoffset:0;marker:none;visibility:visible;display:inline;overflow:visible;enable-background:accumulate" />
    </g>
  </g>
</svg>
