<?xml version="1.0" encoding="UTF-8" standalone="no"?>
<svg
   xmlns:dc="http://purl.org/dc/elements/1.1/"
   xmlns:cc="http://creativecommons.org/ns#"
   xmlns:rdf="http://www.w3.org/1999/02/22-rdf-syntax-ns#"
   xmlns:svg="http://www.w3.org/2000/svg"
   xmlns="http://www.w3.org/2000/svg"
   xmlns:xlink="http://www.w3.org/1999/xlink"
   width="96"
   height="96"
   id="svg18157"
   version="1.1">
  <defs
     id="defs18159">
    <linearGradient
       xlink:href="#linearGradient6129-963-697-142-998-580-273-44-2-2"
       id="linearGradient12487"
       gradientUnits="userSpaceOnUse"
       gradientTransform="matrix(2.2651514,0,0,2.0354763,-6.3636329,-48.531036)"
       x1="22.934725"
       y1="49.629246"
       x2="22.809399"
       y2="36.657963" />
    <linearGradient
       id="linearGradient6129-963-697-142-998-580-273-44-2-2">
      <stop
         id="stop2661-01-6-2"
         style="stop-color:#0a0a0a;stop-opacity:0.498"
         offset="0" />
      <stop
         id="stop2663-64-5-5"
         style="stop-color:#0a0a0a;stop-opacity:0"
         offset="1" />
    </linearGradient>
    <linearGradient
       xlink:href="#linearGradient4632-0-6-4"
       id="linearGradient12481"
       gradientUnits="userSpaceOnUse"
       gradientTransform="matrix(1.9997551,0,0,2.0714256,0.0113782,-51.678507)"
       x1="35.792694"
       y1="17.118193"
       x2="35.792694"
       y2="43.761127" />
    <linearGradient
       id="linearGradient4632-0-6-4">
      <stop
         style="stop-color:#b4cee1;stop-opacity:1;"
         offset="0"
         id="stop4634-4-4-7" />
      <stop
         style="stop-color:#5d9fcd;stop-opacity:1;"
         offset="1"
         id="stop4636-3-1-5" />
    </linearGradient>
    <radialGradient
       xlink:href="#linearGradient5060-820-91-9-0"
       id="radialGradient12475"
       gradientUnits="userSpaceOnUse"
       gradientTransform="matrix(-0.06159637,0,0,0.04973261,46.790195,15.21972)"
       cx="605.71429"
       cy="486.64789"
       fx="605.71429"
       fy="486.64789"
       r="117.14286" />
    <linearGradient
       id="linearGradient5060-820-91-9-0">
      <stop
         id="stop2681-778-5-1"
         style="stop-color:#000000;stop-opacity:1"
         offset="0" />
      <stop
         id="stop2683-2-86-2"
         style="stop-color:#000000;stop-opacity:0"
         offset="1" />
    </linearGradient>
    <radialGradient
       xlink:href="#linearGradient5060-179-37-4-0"
       id="radialGradient12471"
       gradientUnits="userSpaceOnUse"
       gradientTransform="matrix(0.06159637,0,0,0.04973261,49.231778,15.21972)"
       cx="605.71429"
       cy="486.64789"
       fx="605.71429"
       fy="486.64789"
       r="117.14286" />
    <linearGradient
       id="linearGradient5060-179-37-4-0">
      <stop
         id="stop2675-91-9-2"
         style="stop-color:#000000;stop-opacity:1"
         offset="0" />
      <stop
         id="stop2677-09-0-9"
         style="stop-color:#000000;stop-opacity:0"
         offset="1" />
    </linearGradient>
    <linearGradient
       xlink:href="#linearGradient5048-585-73-1-5"
       id="linearGradient12467"
       gradientUnits="userSpaceOnUse"
       gradientTransform="matrix(0.15881504,0,0,0.04973261,-9.3893001,15.21972)"
       x1="302.85715"
       y1="366.64789"
       x2="302.85715"
       y2="609.50507" />
    <linearGradient
       id="linearGradient5048-585-73-1-5">
      <stop
         id="stop2667-99-4-6"
         style="stop-color:#000000;stop-opacity:0"
         offset="0" />
      <stop
         id="stop2669-5-9-4"
         style="stop-color:#000000;stop-opacity:1"
         offset="0.5" />
      <stop
         id="stop2671-56-4-2"
         style="stop-color:#000000;stop-opacity:0"
         offset="1" />
    </linearGradient>
    <linearGradient
       xlink:href="#linearGradient4507-0-4-7"
       id="linearGradient12463"
       gradientUnits="userSpaceOnUse"
       gradientTransform="matrix(1.8490408,0,0,2.2218594,4.7135631,-39.207438)"
       x1="21.37039"
       y1="4.2476678"
       x2="21.37039"
       y2="34.143417" />
    <linearGradient
       id="linearGradient4507-0-4-7">
      <stop
         id="stop4509-35-6-1"
         style="stop-color:#ffffff;stop-opacity:1"
         offset="0" />
      <stop
         id="stop4511-46-3-8"
         style="stop-color:#ffffff;stop-opacity:0.23529412"
         offset="0.07395859" />
      <stop
         id="stop4513-15-5-9"
         style="stop-color:#ffffff;stop-opacity:0.15686275"
         offset="0.99001008" />
      <stop
         id="stop4515-1-1-8"
         style="stop-color:#ffffff;stop-opacity:0.39215687"
         offset="1" />
    </linearGradient>
    <linearGradient
       xlink:href="#linearGradient4646-7-4-3"
       id="linearGradient12459"
       gradientUnits="userSpaceOnUse"
       gradientTransform="matrix(2.047619,0,0,2.0999999,-105.45041,-49.899998)"
       x1="62.988873"
       y1="13"
       x2="62.988873"
       y2="16" />
    <linearGradient
       id="linearGradient4646-7-4-3">
      <stop
         offset="0"
         style="stop-color:#f9f9f9;stop-opacity:1"
         id="stop4648-8-0-3" />
      <stop
         offset="1"
         style="stop-color:#d8d8d8;stop-opacity:1"
         id="stop4650-1-7-3" />
    </linearGradient>
    <linearGradient
       id="linearGradient3104-8-8-97-4-6-11-5-5">
      <stop
         offset="0"
         style="stop-color:#000000;stop-opacity:0.32173914"
         id="stop3106-5-4-3-5-0-2-1-0" />
      <stop
         offset="1"
         style="stop-color:#000000;stop-opacity:0.27826086"
         id="stop3108-4-3-7-8-2-0-7-9" />
    </linearGradient>
    <linearGradient
       y2="3.6336823"
       x2="-51.786404"
       y1="53.514328"
       x1="-51.786404"
       gradientTransform="matrix(1.6337756,0,0,1.7432828,215.6808,-49.418757)"
       gradientUnits="userSpaceOnUse"
       id="linearGradient18155"
       xlink:href="#linearGradient3104-8-8-97-4-6-11-5-5" />
    <linearGradient
       xlink:href="#linearGradient8272"
       id="linearGradient5891"
       gradientUnits="userSpaceOnUse"
       gradientTransform="matrix(1.9636254,0,0,2.0287677,-104.69613,-50.62191)"
       x1="97.538795"
       y1="16.962049"
       x2="97.538795"
       y2="44.260689" />
    <linearGradient
       id="linearGradient8272">
      <stop
         offset="0"
         style="stop-color:#ffffff;stop-opacity:1"
         id="stop8274" />
      <stop
         offset="0.0221225"
         style="stop-color:#ffffff;stop-opacity:0.23529412"
         id="stop8276" />
      <stop
         offset="0.97909725"
         style="stop-color:#ffffff;stop-opacity:0.15686275"
         id="stop8278" />
      <stop
         offset="1"
         style="stop-color:#ffffff;stop-opacity:0.39215687"
         id="stop8280" />
    </linearGradient>
  </defs>
  <metadata
     id="metadata18162">
    <rdf:RDF>
      <cc:Work
         rdf:about="">
        <dc:format>image/svg+xml</dc:format>
        <dc:type
           rdf:resource="http://purl.org/dc/dcmitype/StillImage" />
        <dc:title />
      </cc:Work>
    </rdf:RDF>
  </metadata>
  <g
     id="layer1"
     transform="translate(0,48)">
    <g
       id="g4111"
       transform="translate(0,-1.0000015)">
      <path
         id="rect4251-0-0-61"
         d="m 10.5,-31.5 c -1.1208845,0 -2.0128829,0.932618 -2,2.09091 l 0.046511,3.909091 -2.0232557,0 c -1.1208833,0 -2.0232553,0.841636 -2.0232553,2 l 0,12.909091 C 4.5,-9.4325438 5.402372,-8.5 6.5232558,-8.5 l 82.9534852,0 c 1.120884,0 2.023257,-0.9325438 2.023257,-2.090908 l 0,-12.909091 c 0,-1.158364 -0.879114,-2 -1.999998,-2 l -46.988371,0 -0.01163,-4 c -0.0034,-1.158359 -0.879116,-2.000001 -2,-2.000001 z"
         style="opacity:0.8;color:#000000;fill:none;stroke:url(#linearGradient18155);stroke-width:1;stroke-linecap:butt;stroke-linejoin:miter;stroke-miterlimit:4;stroke-opacity:1;stroke-dasharray:none;stroke-dashoffset:0;marker:none;visibility:visible;display:inline;overflow:visible;enable-background:accumulate" />
      <path
         id="rect4251-3-2"
         d="m 10.5,-30.999999 c -0.8384207,0 -1.5,0.832067 -1.5,1.5 l 0,4.5 -2.5,0 c -1.1558134,0 -1.5,1.079599 -1.5,1.5 l 0,12.45 c 0,0.5817 0.456619,1.05 1.0238094,1.05 l 83.9523806,0 c 0.567191,0 1.02381,-0.4683 1.02381,-1.05 l 0,-12.45 c 0,-0.672063 -0.562261,-1.5 -1.5,-1.5 l -47.5,0 0,-4.5 c 0,-0.788784 -0.692749,-1.5 -1.5,-1.5 z"
         style="color:#000000;fill:url(#linearGradient12459);fill-opacity:1;fill-rule:nonzero;stroke:none;stroke-width:1;marker:none;visibility:visible;display:inline;overflow:visible;enable-background:accumulate" />
      <path
         id="rect4251-9-21-7"
         d="m 10.5,-30.499999 c -0.5872251,0.10637 -0.95027,0.447766 -1,1 l 0,5 -3,0 c -0.5809284,0.05823 -0.9489291,0.353042 -1,1 l -2e-7,13.9999991 85.0000002,0 0,-13.9999991 c -0.09353,-0.778684 -0.49653,-0.982634 -1,-1 l -48,0 0,-5 c -0.05959,-0.637493 -0.410196,-0.951634 -1,-1 z"
         style="color:#000000;fill:none;stroke:url(#linearGradient12463);stroke-width:0.99999976;stroke-linecap:round;stroke-linejoin:round;stroke-miterlimit:4;stroke-opacity:1;stroke-dasharray:none;stroke-dashoffset:0;marker:none;visibility:visible;display:inline;overflow:visible;enable-background:accumulate" />
      <rect
         width="76.684975"
         height="12.077923"
         x="9.6685123"
         y="33.454079"
         id="rect4173-8-8"
         style="opacity:0.3;fill:url(#linearGradient12467);fill-opacity:1;fill-rule:nonzero;stroke:none;stroke-width:1;marker:none;visibility:visible;display:inline;overflow:visible" />
      <path
         d="m 86.353483,33.454503 c 0,0 0,12.077258 0,12.077258 3.172057,0.02275 7.668491,-2.705897 7.668491,-6.039404 0,-3.333506 -3.539785,-6.037854 -7.668491,-6.037854 z"
         id="path5058-9-0"
         style="opacity:0.3;fill:url(#radialGradient12471);fill-opacity:1;fill-rule:nonzero;stroke:none;stroke-width:1;marker:none;visibility:visible;display:inline;overflow:visible" />
      <path
         d="m 9.6684912,33.454503 c 0,0 0,12.077258 0,12.077258 C 6.4964337,45.554511 2,42.825864 2,39.492357 2,36.158851 5.5397853,33.454503 9.6684912,33.454503 Z"
         id="path5018-6-6"
         style="opacity:0.3;fill:url(#radialGradient12475);fill-opacity:1;fill-rule:nonzero;stroke:none;stroke-width:1;marker:none;visibility:visible;display:inline;overflow:visible" />
      <path
         d="m 4.3360685,-17.499997 c -1.496068,0.534816 -1.3252964,1.367822 -1.33402,1.876795 l 2.008001,53.639336 c 0.055752,1.48929 0.9996388,2.483867 2.4990969,2.483867 l 80.9707396,0 c 1.499457,0 2.499096,-0.993547 2.499096,-2.483867 0,0 1.896081,-52.504103 1.967112,-53.357882 0.116149,-0.78283 -0.608381,-2.158251 -1.946094,-2.158251 z"
         id="path3388-7-1"
         style="fill:url(#linearGradient12481);fill-opacity:1;stroke:none" />
      <path
         d="m 4.5681736,-17.998875 86.8636524,8.14e-4 c 1.254895,0 1.996358,0.912556 1.996358,2.040218 l -1.971146,53.818556 c -0.123122,1.787131 -0.968822,3.085032 -2.799854,3.139288 l -81.457184,0 C 5.4630556,40.871731 4.5756201,39.64185 4.5028636,38.046972 L 2.5,-15.963408 c 0,-1.127663 0.8132791,-2.035467 2.0681736,-2.035467 z"
         id="path6127-1-4"
         style="opacity:0.4;fill:url(#linearGradient12487);fill-opacity:1;stroke:none" />
      <path
         d="m 4.3251027,-17.498855 c -1.4498058,0.490696 -1.3251137,1.367794 -1.3416418,1.884521 l 2.014212,53.485004 c 0.055801,1.481731 0.7176742,2.629332 2.4993083,2.629339 l 81.0291138,3.01e-4 c 1.919334,0.0462 2.430691,-1.630307 2.434048,-2.9013 0,0 1.927661,-52.249247 1.99867,-53.103009 0,-0.89896 -0.832577,-1.996015 -1.958813,-1.996 z"
         id="path3388-7-1-7"
         style="opacity:0.3;fill:none;stroke:#000000;stroke-width:1;stroke-linecap:round;stroke-linejoin:round;stroke-miterlimit:4;stroke-opacity:1;stroke-dashoffset:0" />
      <path
         id="path8263"
         d="M 5,-16.50001 C 4.1930051,-16.53398 3.9234407,-16.238472 4,-15.499999 4.5788399,1.3358033 5.4366806,21.442605 6.0141504,38.278431 6.2647172,39.293687 6.5140709,39.51614 8,39.500001 c 25.953775,0.01531 54.546235,-0.01531 80.5,0 0.87582,-0.01003 1.33346,-0.395498 1.5,-2 0.629524,-16.851886 1.95,-52.8 1.95,-52.8 0.0098,-0.764126 -0.447953,-1.296561 -1.45,-1.200003 z"
         style="opacity:0.5;fill:none;stroke:url(#linearGradient5891);stroke-width:1;stroke-linecap:round;stroke-linejoin:round;stroke-miterlimit:4;stroke-opacity:1;stroke-dasharray:none;stroke-dashoffset:0;marker:none;visibility:visible;display:inline;overflow:visible;enable-background:accumulate" />
    </g>
    <g
       style="opacity:0.3;color:#000000;fill:#ffffff;fill-opacity:1;fill-rule:nonzero;stroke:none;stroke-width:1.70000005;marker:none;visibility:visible;display:inline;overflow:visible;enable-background:accumulate"
       id="layer1-9-4-1-5"
       transform="matrix(2.2882989,0,0,2.2488456,29.69841,-3.000001)">
      <path
         style="color:#000000;fill:#ffffff;fill-opacity:1;fill-rule:nonzero;stroke:none;stroke-width:1.70000005;marker:none;visibility:visible;display:inline;overflow:visible;enable-background:accumulate"
         id="rect2996-4-03-7"
         d="M 13.053978,-0.88934463 6,1.0169054 c -0.554,0.1484439 -1.0611391,0.738957 -1.0611391,1.3125 l 0,9.0937496 C 4.3770898,11.128999 3.716744,11.010053 2.96875,11.204405 c -1.3497637,0.350711 -2.19558448,1.484152 -1.90625,2.53125 0.2893345,1.047098 1.7399867,1.631961 3.0897504,1.28125 1.0768335,-0.279795 1.5422389,-1.064241 1.6606222,-1.899043 l 0,-8.6711155 6.9920934,-2.0010267 0,6.9774356 C 12.243195,9.1289994 11.541851,9.010053 10.793857,9.2044054 9.4440934,9.5551164 8.6420118,10.688557 8.9313463,11.735655 c 0.2893345,1.047098 1.5752467,1.631961 2.9250107,1.28125 1.076834,-0.279795 1.704238,-1.065268 1.822621,-1.90007 l 0,-11.19367963 c 0,-0.43015725 -0.265844,-0.75198835 -0.625,-0.8125 z" />
    </g>
    <g
       style="color:#000000;fill:#175785;fill-opacity:0.5521628;fill-rule:nonzero;stroke:none;stroke-width:1.70000005;marker:none;visibility:visible;display:inline;overflow:visible;enable-background:accumulate"
       id="layer1-9-4-1"
       transform="matrix(2.2882989,0,0,2.2488456,29.69841,-3.9999998)">
      <path
         style="color:#000000;fill:#175785;fill-opacity:0.5521628;fill-rule:nonzero;stroke:none;stroke-width:1.70000005;marker:none;visibility:visible;display:inline;overflow:visible;enable-background:accumulate"
         id="rect2996-4-03"
         d="M 13.053978,-0.88934463 6,1.0169054 c -0.554,0.1484439 -1.0611391,0.738957 -1.0611391,1.3125 l 0,9.0937496 C 4.3770898,11.128999 3.716744,11.010053 2.96875,11.204405 c -1.3497637,0.350711 -2.19558448,1.484152 -1.90625,2.53125 0.2893345,1.047098 1.7399867,1.631961 3.0897504,1.28125 1.0768335,-0.279795 1.5422389,-1.064241 1.6606222,-1.899043 l 0,-8.6711155 6.9920934,-2.0010267 0,6.9774356 C 12.243195,9.1289994 11.541851,9.010053 10.793857,9.2044054 9.4440934,9.5551164 8.6420118,10.688557 8.9313463,11.735655 c 0.2893345,1.047098 1.5752467,1.631961 2.9250107,1.28125 1.076834,-0.279795 1.704238,-1.065268 1.822621,-1.90007 l 0,-11.19367963 c 0,-0.43015725 -0.265844,-0.75198835 -0.625,-0.8125 z" />
    </g>
  </g>
</svg>
