<?xml version="1.0" encoding="UTF-8" standalone="no"?>
<svg
   id="svg3695"
   height="96"
   width="96"
   version="1.0"
   sodipodi:docname="user-trash.svg"
   inkscape:version="1.1.2 (0a00cf5339, 2022-02-04)"
   xmlns:inkscape="http://www.inkscape.org/namespaces/inkscape"
   xmlns:sodipodi="http://sodipodi.sourceforge.net/DTD/sodipodi-0.dtd"
   xmlns:xlink="http://www.w3.org/1999/xlink"
   xmlns="http://www.w3.org/2000/svg"
   xmlns:svg="http://www.w3.org/2000/svg"
   xmlns:rdf="http://www.w3.org/1999/02/22-rdf-syntax-ns#"
   xmlns:cc="http://creativecommons.org/ns#">
  <sodipodi:namedview
     id="namedview75"
     pagecolor="#ffffff"
     bordercolor="#666666"
     borderopacity="1.0"
     inkscape:pageshadow="2"
     inkscape:pageopacity="0.0"
     inkscape:pagecheckerboard="0"
     showgrid="false"
     inkscape:zoom="10.65625"
     inkscape:cx="37.958944"
     inkscape:cy="35.659824"
     inkscape:window-width="1360"
     inkscape:window-height="893"
     inkscape:window-x="360"
     inkscape:window-y="171"
     inkscape:window-maximized="0"
     inkscape:current-layer="svg3695"
     inkscape:snap-object-midpoints="true"
     inkscape:snap-center="true" />
  <metadata
     id="metadata11265">
    <rdf:RDF>
      <cc:Work
         rdf:about="" />
    </rdf:RDF>
  </metadata>
  <defs
     id="defs3697">
    <linearGradient
       id="linearGradient4335">
      <stop
         id="stop4337"
         offset="0"
         style="stop-color:#000000;stop-opacity:1;" />
      <stop
         id="stop4339"
         offset="1"
         style="stop-color:#000000;stop-opacity:0;" />
    </linearGradient>
    <linearGradient
       id="linearGradient3892">
      <stop
         id="stop3894"
         offset="0"
         style="stop-color:#424242;stop-opacity:1;" />
      <stop
         id="stop3896"
         offset="1"
         style="stop-color:#dbdbdb;stop-opacity:1;" />
    </linearGradient>
    <linearGradient
       id="linearGradient3835">
      <stop
         id="stop3837"
         offset="0"
         style="stop-color:#000000;stop-opacity:1;" />
      <stop
         id="stop3839"
         offset="1"
         style="stop-color:#000000;stop-opacity:0;" />
    </linearGradient>
    <linearGradient
       id="linearGradient3825">
      <stop
         id="stop3827"
         offset="0"
         style="stop-color:#000000;stop-opacity:1;" />
      <stop
         id="stop3829"
         offset="1"
         style="stop-color:#000000;stop-opacity:0;" />
    </linearGradient>
    <linearGradient
       id="linearGradient3815">
      <stop
         id="stop3817"
         offset="0"
         style="stop-color:#000000;stop-opacity:1;" />
      <stop
         id="stop3819"
         offset="1"
         style="stop-color:#000000;stop-opacity:0;" />
    </linearGradient>
    <linearGradient
       id="linearGradient2793-2-0-403">
      <stop
         offset="0"
         style="stop-color:#8d909a;stop-opacity:1"
         id="stop4645" />
      <stop
         offset="1"
         style="stop-color:#d9d9d9;stop-opacity:1"
         id="stop4647" />
    </linearGradient>
    <linearGradient
       id="linearGradient3254-8-457">
      <stop
         offset="0"
         style="stop-color:#ffffff;stop-opacity:1"
         id="stop4669" />
      <stop
         offset="1"
         style="stop-color:#ffffff;stop-opacity:0"
         id="stop4671" />
    </linearGradient>
    <linearGradient
       id="linearGradient3254-3-182">
      <stop
         offset="0"
         style="stop-color:#ffffff;stop-opacity:1"
         id="stop4663" />
      <stop
         offset="1"
         style="stop-color:#ffffff;stop-opacity:0"
         id="stop4665" />
    </linearGradient>
    <linearGradient
       id="linearGradient3205">
      <stop
         offset="0"
         style="stop-color:#000000;stop-opacity:1"
         id="stop3207" />
      <stop
         offset="1"
         style="stop-color:#000000;stop-opacity:0"
         id="stop3209" />
    </linearGradient>
    <linearGradient
       y2="45"
       x2="24"
       y1="15.502284"
       x1="24"
       gradientTransform="matrix(1.7990568,0.08297858,0,1.8018981,9.5281046,3.4561864)"
       gradientUnits="userSpaceOnUse"
       id="linearGradient3032"
       xlink:href="#linearGradient3205" />
    <linearGradient
       y2="43"
       x2="24"
       y1="13.506023"
       x1="24"
       gradientTransform="matrix(1.7990568,0.66382862,0,1.8018981,5.4915996,-2.306855)"
       gradientUnits="userSpaceOnUse"
       id="linearGradient3035"
       xlink:href="#linearGradient3205" />
    <linearGradient
       y2="34.173542"
       x2="17.125"
       y1="20.230709"
       x1="12.25"
       gradientTransform="matrix(1.6128566,0,0,2.4031043,13.992471,-6.8753303)"
       gradientUnits="userSpaceOnUse"
       id="linearGradient3038"
       xlink:href="#linearGradient3254-3-182" />
    <radialGradient
       r="14.500172"
       fy="21.029308"
       fx="19.308081"
       cy="21.029308"
       cx="19.308081"
       spreadMethod="pad"
       gradientTransform="matrix(0,2.9954777,-2.938349,0,92.327102,-26.047081)"
       gradientUnits="userSpaceOnUse"
       id="radialGradient3052"
       xlink:href="#linearGradient3254-8-457" />
    <linearGradient
       y2="26.410894"
       x2="21.514704"
       y1="26.410894"
       x1="11.93083"
       spreadMethod="reflect"
       gradientTransform="matrix(2.1806889,0,0,2.5791884,1.786242,-13.623798)"
       gradientUnits="userSpaceOnUse"
       id="linearGradient3055"
       xlink:href="#linearGradient2793-2-0-403" />
    <linearGradient
       y2="45"
       x2="24"
       y1="15.502284"
       x1="24"
       gradientTransform="matrix(1.7990568,0.08297858,0,1.8018981,1.500593,3.4561864)"
       gradientUnits="userSpaceOnUse"
       id="linearGradient5339"
       xlink:href="#linearGradient3205" />
    <linearGradient
       y2="39.850574"
       x2="23.5"
       y1="10.996204"
       x1="23.5"
       gradientTransform="matrix(2.2379779,0,0,3.5048524,-3.912396,-50.213083)"
       gradientUnits="userSpaceOnUse"
       id="linearGradient5341"
       xlink:href="#linearGradient3254-8-457" />
    <linearGradient
       gradientTransform="matrix(1.3379186,0,0,1.3438452,4.5176476,6.4527571)"
       gradientUnits="userSpaceOnUse"
       y2="46.218822"
       x2="34.439655"
       y1="18.596245"
       x1="34.439655"
       id="linearGradient3821"
       xlink:href="#linearGradient3815" />
    <linearGradient
       gradientTransform="matrix(1.3379186,0,0,1.3438452,4.5176476,4.9551738)"
       gradientUnits="userSpaceOnUse"
       y2="42.529957"
       x2="35.094646"
       y1="19.210447"
       x1="35.094646"
       id="linearGradient3831"
       xlink:href="#linearGradient3825" />
    <linearGradient
       gradientTransform="matrix(1.3379186,0,0,1.3438452,4.5176476,4.9551738)"
       gradientUnits="userSpaceOnUse"
       y2="40.715191"
       x2="41.25"
       y1="19.833317"
       x1="41.25"
       id="linearGradient3841"
       xlink:href="#linearGradient3835" />
    <linearGradient
       y2="28.903023"
       x2="32.180862"
       y1="13.828948"
       x1="32.180862"
       gradientTransform="matrix(2.7630109,0,0,-1.3552129,-37.129728,43.172264)"
       gradientUnits="userSpaceOnUse"
       id="linearGradient3083"
       xlink:href="#linearGradient4404-5-5-1" />
    <linearGradient
       id="linearGradient4404-5-5-1">
      <stop
         offset="0"
         style="stop-color:#ffffff;stop-opacity:1"
         id="stop4406-9-1-0" />
      <stop
         offset="0.09090912"
         style="stop-color:#ffffff;stop-opacity:0.23529412"
         id="stop4408-7-4-4" />
      <stop
         offset="0.81818187"
         style="stop-color:#ffffff;stop-opacity:0.15686275"
         id="stop4410-6-4-0" />
      <stop
         offset="1"
         style="stop-color:#ffffff;stop-opacity:0.39215687"
         id="stop4412-1-5-5" />
    </linearGradient>
    <linearGradient
       id="linearGradient4238-0">
      <stop
         id="stop4240-2"
         style="stop-color:#8d909a;stop-opacity:1"
         offset="0" />
      <stop
         id="stop4242-27"
         style="stop-color:#e5e5e5;stop-opacity:1"
         offset="1" />
    </linearGradient>
    <linearGradient
       xlink:href="#linearGradient4238-0"
       id="linearGradient3076"
       gradientUnits="userSpaceOnUse"
       gradientTransform="matrix(2.0584134,0,0,1.9000604,3.7441155,-3.7979997)"
       spreadMethod="reflect"
       x1="34.613369"
       y1="26.410894"
       x2="19.314434"
       y2="26.410894" />
    <radialGradient
       gradientUnits="userSpaceOnUse"
       gradientTransform="matrix(1.3936654,0,0,0.92282764,3.4836546,9.1913887)"
       r="7.5"
       fy="13.583334"
       fx="32"
       cy="13.583334"
       cx="32"
       id="radialGradient3910"
       xlink:href="#linearGradient3892" />
    <radialGradient
       gradientUnits="userSpaceOnUse"
       gradientTransform="matrix(4.2603529,-2.3668617,-0.77142838,-1.7142856,-61.18545,89.490504)"
       r="7"
       fy="3.1290605"
       fx="25.719536"
       cy="3.1290605"
       cx="25.719536"
       id="radialGradient3922"
       xlink:href="#linearGradient4238-0" />
    <radialGradient
       gradientUnits="userSpaceOnUse"
       gradientTransform="matrix(0.75,0,0,0.25464527,0,55.228964)"
       r="37"
       fy="105.4375"
       fx="64"
       cy="105.4375"
       cx="64"
       id="radialGradient4341"
       xlink:href="#linearGradient4335" />
  </defs>
  <ellipse
     ry="9.421875"
     rx="27.75"
     cy="82.078125"
     cx="48"
     id="path4333"
     style="opacity:1;fill:url(#radialGradient4341);fill-opacity:1;stroke:none;stroke-width:9;stroke-linecap:square;stroke-miterlimit:4;stroke-dasharray:none;stroke-opacity:0.276995" />
  <path
     d="M 22.5,25.5 V 79.803032 C 22.5,84.786035 30.457434,89.5 48.671054,89.5 66.884675,89.5 73.5,84.786035 73.5,79.803032 V 25.5 Z"
     id="path2230"
     style="display:inline;overflow:visible;visibility:visible;fill:url(#linearGradient3055);fill-opacity:1;fill-rule:nonzero;stroke:none;stroke-width:0.999996;stroke-opacity:1;marker:none" />
  <path
     style="display:inline;overflow:visible;visibility:visible;fill:none;fill-opacity:1;fill-rule:nonzero;stroke:#161b28;stroke-width:0.999996;stroke-opacity:0.498039;marker:none"
     id="path4368"
     d="m 22.499998,24.499998 v 55.151521 c 0,5.060864 7.957434,9.848484 26.171055,9.848484 18.213623,0 24.828948,-4.78762 24.828948,-9.848484 V 24.499998 Z" />
  <path
     d="M 23,23 V 78.297285 C 23,83.331129 34.200002,89 48.000002,89 61.8,89 73,83.331129 73,78.297285 V 23 c 0,0 -50,0 -50,0 z"
     id="path3212"
     style="display:inline;overflow:visible;visibility:visible;opacity:0.4;fill:url(#radialGradient3052);fill-opacity:1;fill-rule:nonzero;stroke:none;stroke-width:0.999995;marker:none" />
  <path
     d="m 23.499999,31.725217 v 48.005876 c 0,4.83669 19.421049,8.568928 25.180086,8.762126 5.75904,0.193184 23.819091,-3.925436 23.819091,-8.762126 0,-3.712396 -0.104926,-44.294925 0,-48.005876 0.09788,-3.46143 -8.916198,-8.225221 -23.819091,-8.225221 -14.902889,0 -25.180086,4.742583 -25.180086,8.225221 z"
     id="path2206"
     style="display:inline;overflow:visible;visibility:visible;opacity:0.15;fill:none;stroke:url(#linearGradient5341);stroke-width:0.999992;stroke-linecap:round;stroke-linejoin:round;stroke-miterlimit:4;stroke-dasharray:none;stroke-dashoffset:0;stroke-opacity:1;marker:none"
     sodipodi:nodetypes="sssssss" />
  <path
     d="m 35,31 8,1 v 57 l -8,-2 z"
     id="rect3244"
     style="display:inline;overflow:visible;visibility:visible;opacity:0.2;fill:url(#linearGradient3038);fill-opacity:1;fill-rule:nonzero;stroke:none;stroke-width:0.999997;marker:none"
     sodipodi:nodetypes="ccccc" />
  <path
     d="m 29.26914,30.991308 c 1.495017,0.551641 2.006878,2.201213 2.006878,3.698589 V 82.42935 c 0,1.497381 -0.511861,2.258745 -2.006878,1.707095 -1.495016,-0.551642 -2.006877,-2.201208 -2.006877,-3.69859 V 32.698412 c 0,-1.497378 0.511861,-2.258745 2.006877,-1.707104 z m 37.461719,0.322587 c -1.495015,0.551642 -2.006877,2.131003 -2.006877,3.628381 V 81.98429 c 0,1.497382 0.511862,2.258746 2.006877,1.707111 1.495015,-0.551643 2.006878,-2.201209 2.006878,-3.69859 V 32.926508 c 0,-1.497378 -0.511863,-2.164255 -2.006878,-1.612613 z"
     id="path3287"
     style="display:inline;overflow:visible;visibility:visible;opacity:0.15;fill:url(#linearGradient3035);fill-opacity:1;fill-rule:nonzero;stroke:none;stroke-width:0.999922;marker:none;enable-background:accumulate" />
  <path
     d="m 57.365429,33.097521 c -1.495015,0.06896 -2.029626,1.329938 -2.029626,2.827313 v 47.739453 c 0,1.497374 0.534611,2.647331 2.029626,2.578382 1.495018,-0.06896 2.006879,-1.329936 2.006879,-2.827318 V 35.675899 c 0,-1.497378 -0.511861,-2.647335 -2.006879,-2.578378 z"
     id="path3293"
     style="display:inline;overflow:visible;visibility:visible;opacity:0.3;fill:url(#linearGradient3032);fill-opacity:1;fill-rule:nonzero;stroke:none;stroke-width:0.999922;marker:none;enable-background:accumulate" />
  <path
     style="display:inline;overflow:visible;visibility:visible;opacity:0.3;fill:url(#linearGradient5339);fill-opacity:1;fill-rule:nonzero;stroke:none;stroke-width:0.999922;marker:none;enable-background:accumulate"
     id="path5337"
     d="m 38.63457,33.097521 c 1.495018,0.06896 2.006878,1.329938 2.006878,2.827313 v 47.739453 c 0,1.497374 -0.51186,2.647331 -2.006878,2.578382 -1.495016,-0.06896 -2.029626,-1.329936 -2.029626,-2.827318 V 35.675899 c 0,-1.497378 0.53461,-2.647335 2.029626,-2.578378 z m 9.365429,1.343588 c -1.495015,0.06897 -2.006881,1.329936 -2.006881,2.827313 v 47.739452 c 0,1.497382 0.511866,2.647331 2.006881,2.578375 1.495018,-0.06896 2.052368,-1.329944 2.052368,-2.827311 V 37.019486 c 0,-1.497378 -0.55735,-2.647334 -2.052368,-2.578377 z" />
  <path
     style="display:inline;overflow:visible;visibility:visible;opacity:0.350649;fill:none;stroke:url(#linearGradient3821);stroke-width:0.5;stroke-miterlimit:4;stroke-dasharray:none;stroke-opacity:1;marker:none;enable-background:accumulate"
     id="path3045"
     d="m 29.26914,31.313895 c 1.495017,0.55164 2.006878,1.878626 2.006878,3.376002 V 82.42935 c 0,1.497381 -0.511861,2.258745 -2.006878,1.707095 -1.495016,-0.551642 -2.006877,-2.201208 -2.006877,-3.69859 V 32.698412 c 0,-1.497378 0.511861,-1.936159 2.006877,-1.384517 z m 37.461719,0 c -1.495015,0.551642 -2.006877,2.131003 -2.006877,3.628381 V 81.98429 c 0,1.497382 0.511862,2.258746 2.006877,1.707111 1.495015,-0.551643 2.006878,-2.201209 2.006878,-3.69859 V 32.926508 c 0,-1.497378 -0.511863,-2.164255 -2.006878,-1.612613 z" />
  <path
     d="m 38.63457,33.097521 c 1.495018,0.06896 2.006878,1.329938 2.006878,2.827313 v 47.739453 c 0,1.497374 -0.51186,2.647331 -2.006878,2.578382 -1.495016,-0.06896 -2.029626,-1.329936 -2.029626,-2.827318 V 35.675899 c 0,-1.497378 0.53461,-2.647335 2.029626,-2.578378 z m 9.365429,1.343588 c -1.495015,0.06897 -2.006881,1.329936 -2.006881,2.827313 v 47.739452 c 0,1.497382 0.511866,2.647331 2.006881,2.578375 1.495018,-0.06896 2.052368,-1.329944 2.052368,-2.827311 V 37.019486 c 0,-1.497378 -0.55735,-2.647334 -2.052368,-2.578377 z"
     id="path3823"
     style="display:inline;overflow:visible;visibility:visible;opacity:0.4329;fill:none;fill-opacity:1;fill-rule:nonzero;stroke:url(#linearGradient3831);stroke-width:0.5;stroke-miterlimit:4;stroke-dasharray:none;stroke-opacity:1;marker:none;enable-background:accumulate" />
  <path
     style="display:inline;overflow:visible;visibility:visible;opacity:0.463203;fill:none;fill-opacity:1;fill-rule:nonzero;stroke:url(#linearGradient3841);stroke-width:0.5;stroke-miterlimit:4;stroke-dasharray:none;stroke-opacity:1;marker:none;enable-background:accumulate"
     id="path3833"
     d="m 57.365429,33.097521 c -1.495015,0.06896 -2.029626,1.329938 -2.029626,2.827313 v 47.739453 c 0,1.497374 0.534611,2.647331 2.029626,2.578382 1.495018,-0.06896 2.006879,-1.329936 2.006879,-2.827318 V 35.675899 c 0,-1.497378 -0.511861,-2.647335 -2.006879,-2.578378 z" />
  <path
     id="path5418"
     d="m 48,16.499998 c -7.918334,0 -15.120479,0.425297 -20.19961,1.820801 -2.54077,0.698082 -4.492508,1.638438 -5.724869,2.438965 C 20.792578,21.593148 20.5,22.554481 20.5,23.039061 v 7.371094 c 0,0.484579 0.288586,1.47701 1.575521,2.312988 1.224378,0.795342 3.178405,1.805238 5.724869,2.504883 5.059768,1.390184 12.267645,2.271973 20.19961,2.271973 7.931966,0 15.139841,-0.881789 20.19961,-2.271973 2.549311,-0.700428 4.504483,-1.744362 5.724869,-2.537109 C 75.195448,31.865311 75.5,30.994346 75.5,30.509764 v -7.378418 c 0,-0.242296 -0.06967,-0.599448 -0.300783,-1.03125 C 74.96812,21.668294 74.571388,21.181458 73.924479,20.761228 72.671329,19.947199 70.725552,19.190589 68.19961,18.49658 63.127992,17.103141 55.923624,16.499998 48,16.499998 Z"
     style="color:#000000;display:inline;overflow:visible;visibility:visible;fill:url(#linearGradient3076);fill-opacity:1;fill-rule:nonzero;stroke:none;stroke-width:1;marker:none;enable-background:accumulate;stroke-miterlimit:4;stroke-dasharray:none" />
  <path
     id="path5019-9"
     d="M 47.999999,16.5 C 32.80977,16.5 20.5,19.238729 20.5,23.191198 v 7.156574 C 20.5,34.300237 32.80977,37.5 47.999999,37.5 63.190226,37.5 75.5,34.300237 75.5,30.347772 V 23.191198 C 75.5,19.238729 63.190226,16.5 47.999999,16.5 Z"
     style="color:#000000;display:inline;overflow:visible;visibility:visible;opacity:1;fill:none;stroke:#161b28;stroke-width:1;stroke-linecap:butt;stroke-linejoin:miter;stroke-miterlimit:4;stroke-dasharray:none;stroke-dashoffset:0;stroke-opacity:0.498039;marker:none;enable-background:accumulate"
     sodipodi:nodetypes="sssssss" />
  <path
     style="color:#000000;display:inline;overflow:visible;visibility:visible;opacity:0.7;fill:url(#radialGradient3922);fill-opacity:1;stroke:none;stroke-width:1;stroke-linecap:round;stroke-linejoin:round;stroke-miterlimit:4;stroke-dasharray:none;stroke-dashoffset:0;stroke-opacity:1;marker:none;enable-background:accumulate"
     id="path3914"
     d="m 74.999999,23.251814 a 27,6.75 0 1 0 -53.999998,0 27,6.75 0 0 0 53.999998,0 z" />
  <path
     d="m 74.504438,23.502524 a 26.50444,6.5000029 0 1 0 -53.008876,0 26.50444,6.5000029 0 0 0 53.008876,0 z"
     id="path4564-1-6"
     style="color:#000000;display:inline;overflow:visible;visibility:visible;opacity:0.7;fill:none;stroke:url(#linearGradient3083);stroke-width:0.999998;stroke-linecap:round;stroke-linejoin:round;stroke-miterlimit:4;stroke-dasharray:none;stroke-dashoffset:0;stroke-opacity:1;marker:none;enable-background:accumulate" />
  <ellipse
     ry="1.5"
     rx="3"
     cy="23"
     cx="39.5"
     id="path4319"
     style="opacity:0.1;fill:#000000;fill-opacity:1;stroke:none;stroke-width:9.00003;stroke-linecap:square;stroke-miterlimit:4;stroke-dasharray:none;stroke-opacity:0.276995" />
  <ellipse
     style="opacity:0.1;fill:#000000;fill-opacity:1;stroke:none;stroke-width:9.00003;stroke-linecap:square;stroke-miterlimit:4;stroke-dasharray:none;stroke-opacity:0.276995"
     id="ellipse4329"
     cx="56.5"
     cy="23"
     rx="3"
     ry="1.5" />
  <path
     id="path3902"
     d="m 37.499998,22.432159 v -5.432088 c 0,-1.423791 1.559327,-3.500072 4.545752,-3.500072 h 12.07039 c 2.986426,0 4.383862,2.076281 4.383862,3.500072 v 5.432088 c 0,1.423791 -3.999909,1.423791 -3.999909,0 v -3.864546 c 0,-1.423791 -1.988186,-1.067226 -1.988186,-1.067226 h -8.861869 c 0,0 -2.150076,-0.35657 -2.150076,1.067226 v 3.864546 c 0,1.423791 -3.999963,1.423791 -3.999964,0 z"
     style="fill:url(#radialGradient3910);fill-opacity:1;stroke:#161b28;stroke-width:0.999997;stroke-opacity:0.498039"
     sodipodi:nodetypes="ssssssssccsss" />
  <path
     id="path4366"
     d="m 41.499998,14.499998 13.000003,3e-6"
     style="opacity:0.5;fill:none;fill-rule:evenodd;stroke:#ffffff;stroke-width:0.999996px;stroke-linecap:round;stroke-linejoin:miter;stroke-opacity:1" />
</svg>
