<?xml version="1.0" encoding="UTF-8" standalone="no"?>
<svg
   id="svg3695"
   height="96"
   width="96"
   version="1.0"
   sodipodi:docname="user-trash-full.svg"
   inkscape:version="1.1.2 (0a00cf5339, 2022-02-04)"
   xmlns:inkscape="http://www.inkscape.org/namespaces/inkscape"
   xmlns:sodipodi="http://sodipodi.sourceforge.net/DTD/sodipodi-0.dtd"
   xmlns:xlink="http://www.w3.org/1999/xlink"
   xmlns="http://www.w3.org/2000/svg"
   xmlns:svg="http://www.w3.org/2000/svg"
   xmlns:rdf="http://www.w3.org/1999/02/22-rdf-syntax-ns#"
   xmlns:cc="http://creativecommons.org/ns#">
  <sodipodi:namedview
     id="namedview75"
     pagecolor="#ffffff"
     bordercolor="#666666"
     borderopacity="1.0"
     inkscape:pageshadow="2"
     inkscape:pageopacity="0.0"
     inkscape:pagecheckerboard="0"
     showgrid="false"
     inkscape:zoom="21.3125"
     inkscape:cx="37.372434"
     inkscape:cy="40.304985"
     inkscape:window-width="1360"
     inkscape:window-height="893"
     inkscape:window-x="421"
     inkscape:window-y="82"
     inkscape:window-maximized="0"
     inkscape:current-layer="svg3695" />
  <metadata
     id="metadata11265">
    <rdf:RDF>
      <cc:Work
         rdf:about="" />
    </rdf:RDF>
  </metadata>
  <defs
     id="defs3697">
    <linearGradient
       id="linearGradient4335">
      <stop
         id="stop4337"
         offset="0"
         style="stop-color:#000000;stop-opacity:1;" />
      <stop
         id="stop4339"
         offset="1"
         style="stop-color:#000000;stop-opacity:0;" />
    </linearGradient>
    <linearGradient
       id="linearGradient3892">
      <stop
         id="stop3894"
         offset="0"
         style="stop-color:#424242;stop-opacity:1;" />
      <stop
         id="stop3896"
         offset="1"
         style="stop-color:#dbdbdb;stop-opacity:1;" />
    </linearGradient>
    <linearGradient
       id="linearGradient3835">
      <stop
         id="stop3837"
         offset="0"
         style="stop-color:#000000;stop-opacity:1;" />
      <stop
         id="stop3839"
         offset="1"
         style="stop-color:#000000;stop-opacity:0;" />
    </linearGradient>
    <linearGradient
       id="linearGradient3825">
      <stop
         id="stop3827"
         offset="0"
         style="stop-color:#000000;stop-opacity:1;" />
      <stop
         id="stop3829"
         offset="1"
         style="stop-color:#000000;stop-opacity:0;" />
    </linearGradient>
    <linearGradient
       id="linearGradient3815">
      <stop
         id="stop3817"
         offset="0"
         style="stop-color:#000000;stop-opacity:1;" />
      <stop
         id="stop3819"
         offset="1"
         style="stop-color:#000000;stop-opacity:0;" />
    </linearGradient>
    <linearGradient
       id="linearGradient2793-2-0-403">
      <stop
         offset="0"
         style="stop-color:#8d909a;stop-opacity:1"
         id="stop4645" />
      <stop
         offset="1"
         style="stop-color:#d9d9d9;stop-opacity:1"
         id="stop4647" />
    </linearGradient>
    <linearGradient
       id="linearGradient3254-8-457">
      <stop
         offset="0"
         style="stop-color:#ffffff;stop-opacity:1"
         id="stop4669" />
      <stop
         offset="1"
         style="stop-color:#ffffff;stop-opacity:0"
         id="stop4671" />
    </linearGradient>
    <linearGradient
       id="linearGradient3254-3-182">
      <stop
         offset="0"
         style="stop-color:#ffffff;stop-opacity:1"
         id="stop4663" />
      <stop
         offset="1"
         style="stop-color:#ffffff;stop-opacity:0"
         id="stop4665" />
    </linearGradient>
    <linearGradient
       id="linearGradient3205">
      <stop
         offset="0"
         style="stop-color:#000000;stop-opacity:1"
         id="stop3207" />
      <stop
         offset="1"
         style="stop-color:#000000;stop-opacity:0"
         id="stop3209" />
    </linearGradient>
    <linearGradient
       y2="45"
       x2="24"
       y1="15.502284"
       x1="24"
       gradientTransform="matrix(1.7990568,0.08297858,0,1.8018981,9.5281046,3.4561864)"
       gradientUnits="userSpaceOnUse"
       id="linearGradient3032"
       xlink:href="#linearGradient3205" />
    <linearGradient
       y2="43"
       x2="24"
       y1="13.506023"
       x1="24"
       gradientTransform="matrix(1.7990568,0.66382862,0,1.8018981,5.4915996,-2.306855)"
       gradientUnits="userSpaceOnUse"
       id="linearGradient3035"
       xlink:href="#linearGradient3205" />
    <linearGradient
       y2="34.173542"
       x2="17.125"
       y1="20.230709"
       x1="12.25"
       gradientTransform="matrix(1.6128566,0,0,2.4031043,13.992471,-6.8753303)"
       gradientUnits="userSpaceOnUse"
       id="linearGradient3038"
       xlink:href="#linearGradient3254-3-182" />
    <radialGradient
       r="14.500172"
       fy="21.029308"
       fx="19.308081"
       cy="21.029308"
       cx="19.308081"
       spreadMethod="pad"
       gradientTransform="matrix(0,2.9954777,-2.938349,0,92.327102,-26.047081)"
       gradientUnits="userSpaceOnUse"
       id="radialGradient3052"
       xlink:href="#linearGradient3254-8-457" />
    <linearGradient
       y2="26.410894"
       x2="21.514704"
       y1="26.410894"
       x1="11.93083"
       spreadMethod="reflect"
       gradientTransform="matrix(2.1806889,0,0,2.5791884,1.786242,-13.623798)"
       gradientUnits="userSpaceOnUse"
       id="linearGradient3055"
       xlink:href="#linearGradient2793-2-0-403" />
    <linearGradient
       y2="45"
       x2="24"
       y1="15.502284"
       x1="24"
       gradientTransform="matrix(1.7990568,0.08297858,0,1.8018981,1.500593,3.4561864)"
       gradientUnits="userSpaceOnUse"
       id="linearGradient5339"
       xlink:href="#linearGradient3205" />
    <linearGradient
       y2="39.850574"
       x2="23.5"
       y1="10.996204"
       x1="23.5"
       gradientTransform="matrix(2.2379779,0,0,3.5048524,-3.912396,-50.213083)"
       gradientUnits="userSpaceOnUse"
       id="linearGradient5341"
       xlink:href="#linearGradient3254-8-457" />
    <linearGradient
       gradientTransform="matrix(1.3379186,0,0,1.3438452,4.5176476,6.4527571)"
       gradientUnits="userSpaceOnUse"
       y2="46.218822"
       x2="34.439655"
       y1="18.596245"
       x1="34.439655"
       id="linearGradient3821"
       xlink:href="#linearGradient3815" />
    <linearGradient
       gradientTransform="matrix(1.3379186,0,0,1.3438452,4.5176476,4.9551738)"
       gradientUnits="userSpaceOnUse"
       y2="42.529957"
       x2="35.094646"
       y1="19.210447"
       x1="35.094646"
       id="linearGradient3831"
       xlink:href="#linearGradient3825" />
    <linearGradient
       gradientTransform="matrix(1.3379186,0,0,1.3438452,4.5176476,4.9551738)"
       gradientUnits="userSpaceOnUse"
       y2="40.715191"
       x2="41.25"
       y1="19.833317"
       x1="41.25"
       id="linearGradient3841"
       xlink:href="#linearGradient3835" />
    <linearGradient
       id="linearGradient4404-5-5-1">
      <stop
         offset="0"
         style="stop-color:#ffffff;stop-opacity:1"
         id="stop4406-9-1-0" />
      <stop
         offset="0.09090912"
         style="stop-color:#ffffff;stop-opacity:0.23529412"
         id="stop4408-7-4-4" />
      <stop
         offset="0.81818187"
         style="stop-color:#ffffff;stop-opacity:0.15686275"
         id="stop4410-6-4-0" />
      <stop
         offset="1"
         style="stop-color:#ffffff;stop-opacity:0.39215687"
         id="stop4412-1-5-5" />
    </linearGradient>
    <linearGradient
       id="linearGradient4238-0">
      <stop
         id="stop4240-2"
         style="stop-color:#8d909a;stop-opacity:1"
         offset="0" />
      <stop
         id="stop4242-27"
         style="stop-color:#e5e5e5;stop-opacity:1"
         offset="1" />
    </linearGradient>
    <radialGradient
       gradientUnits="userSpaceOnUse"
       gradientTransform="matrix(0.75,0,0,0.25464527,0,55.228964)"
       r="37"
       fy="105.4375"
       fx="64"
       cy="105.4375"
       cx="64"
       id="radialGradient4341"
       xlink:href="#linearGradient4335" />
    <linearGradient
       y2="8"
       x2="24"
       y1="8"
       x1="9.0003471"
       spreadMethod="reflect"
       gradientTransform="matrix(1.8043038,0,0,1.4524182,5.3730196,12.880654)"
       gradientUnits="userSpaceOnUse"
       id="linearGradient3410"
       xlink:href="#linearGradient3320-4" />
    <linearGradient
       id="linearGradient3320-4">
      <stop
         id="stop3323-3"
         style="stop-color:#4e4e4e;stop-opacity:1"
         offset="0" />
      <stop
         id="stop3325-5"
         style="stop-color:#b9bac2;stop-opacity:1"
         offset="1" />
    </linearGradient>
    <linearGradient
       y2="2.0968478"
       x2="23.999979"
       y1="9.3726854"
       x1="23.999979"
       gradientTransform="matrix(2.0927505,0,0,1.9959806,-1.5496513,11.526126)"
       gradientUnits="userSpaceOnUse"
       id="linearGradient3412"
       xlink:href="#linearGradient3355-273-7" />
    <linearGradient
       id="linearGradient3355-273-7">
      <stop
         id="stop4657-0"
         style="stop-color:#f0f0f0;stop-opacity:1"
         offset="0" />
      <stop
         id="stop3619-1"
         style="stop-color:#777779;stop-opacity:1"
         offset="0.44955608" />
      <stop
         id="stop4659-0"
         style="stop-color:#6c6c70;stop-opacity:1"
         offset="1" />
    </linearGradient>
    <radialGradient
       r="14.507708"
       fy="7.8258715"
       fx="23.816956"
       cy="7.8258715"
       cx="23.816956"
       spreadMethod="pad"
       gradientTransform="matrix(0,0.86962741,-5.6383616,1.8230699e-7,91.934095,-3.8710595)"
       gradientUnits="userSpaceOnUse"
       id="radialGradient3430"
       xlink:href="#linearGradient3627-4" />
    <linearGradient
       id="linearGradient3627-4">
      <stop
         id="stop3629-3"
         style="stop-color:#000000;stop-opacity:0"
         offset="0" />
      <stop
         id="stop3190-3"
         style="stop-color:#000000;stop-opacity:0"
         offset="0.5" />
      <stop
         id="stop3631-0"
         style="stop-color:#000000;stop-opacity:1"
         offset="1" />
    </linearGradient>
    <linearGradient
       xlink:href="#linearGradient4017-8"
       id="linearGradient3210"
       gradientUnits="userSpaceOnUse"
       gradientTransform="matrix(0.80855176,0,0,0.62481041,55.121458,10.490577)"
       x1="20.153708"
       y1="3.0216999"
       x2="20.153708"
       y2="26.666777" />
    <linearGradient
       id="linearGradient4017-8">
      <stop
         id="stop4019-8"
         style="stop-color:#ffffff;stop-opacity:1"
         offset="0" />
      <stop
         id="stop4021-9"
         style="stop-color:#ffffff;stop-opacity:0.23529412"
         offset="0.49550432" />
      <stop
         id="stop4023-0"
         style="stop-color:#ffffff;stop-opacity:0.15686275"
         offset="0.88038814" />
      <stop
         id="stop4025-2"
         style="stop-color:#ffffff;stop-opacity:0.39215687"
         offset="1" />
    </linearGradient>
    <linearGradient
       inkscape:collect="always"
       xlink:href="#linearGradient4017-8"
       id="linearGradient3337"
       gradientUnits="userSpaceOnUse"
       gradientTransform="matrix(0.80855176,0,0,0.62481041,55.121458,10.490577)"
       x1="20.153708"
       y1="3.0216999"
       x2="20.153708"
       y2="26.666777" />
    <linearGradient
       inkscape:collect="always"
       xlink:href="#linearGradient4017-8"
       id="linearGradient3339"
       gradientUnits="userSpaceOnUse"
       gradientTransform="matrix(0.80855176,0,0,0.62481041,55.121458,10.490577)"
       x1="20.153708"
       y1="3.0216999"
       x2="20.153708"
       y2="26.666777" />
    <linearGradient
       inkscape:collect="always"
       xlink:href="#linearGradient4017-8"
       id="linearGradient3341"
       gradientUnits="userSpaceOnUse"
       gradientTransform="matrix(0.80855176,0,0,0.62481041,55.121458,10.490577)"
       x1="20.153708"
       y1="3.0216999"
       x2="20.153708"
       y2="26.666777" />
    <linearGradient
       xlink:href="#linearGradient4238-0"
       id="linearGradient3076-3"
       gradientUnits="userSpaceOnUse"
       gradientTransform="matrix(0,2.0584134,-1.9000604,0,104.798,11.744115)"
       spreadMethod="reflect"
       x1="34.613369"
       y1="26.410894"
       x2="19.314434"
       y2="26.410894" />
    <radialGradient
       gradientUnits="userSpaceOnUse"
       gradientTransform="matrix(2.3668617,4.2603529,1.7142856,-0.77142838,11.508124,-53.18545)"
       r="7"
       fy="3.1290605"
       fx="25.719536"
       cy="3.1290605"
       cx="25.719536"
       id="radialGradient3922-2"
       xlink:href="#linearGradient4238-0" />
    <linearGradient
       y2="28.903023"
       x2="32.180862"
       y1="13.828948"
       x1="32.180862"
       gradientTransform="matrix(0,2.7625691,1.3552551,0,57.826072,-29.116115)"
       gradientUnits="userSpaceOnUse"
       id="linearGradient3083-9"
       xlink:href="#linearGradient4404-5-5-1" />
    <radialGradient
       gradientUnits="userSpaceOnUse"
       gradientTransform="matrix(0,1.3936654,-0.92282764,0,91.808612,11.483654)"
       r="7.5"
       fy="13.583334"
       fx="32"
       cy="13.583334"
       cx="32"
       id="radialGradient3910-7"
       xlink:href="#linearGradient3892" />
  </defs>
  <ellipse
     ry="9.421875"
     rx="27.75"
     cy="82.078125"
     cx="48"
     id="path4333"
     style="opacity:1;fill:url(#radialGradient4341);fill-opacity:1;stroke:none;stroke-width:9;stroke-linecap:square;stroke-miterlimit:4;stroke-dasharray:none;stroke-opacity:0.276995" />
  <path
     d="M 22.5,25.5 V 79.803032 C 22.5,84.786035 30.457434,89.5 48.671054,89.5 66.884675,89.5 73.5,84.786035 73.5,79.803032 V 25.5 Z"
     id="path2230"
     style="display:inline;overflow:visible;visibility:visible;fill:url(#linearGradient3055);fill-opacity:1;fill-rule:nonzero;stroke:none;stroke-width:0.999996;stroke-opacity:1;marker:none" />
  <path
     style="display:inline;overflow:visible;visibility:visible;fill:none;fill-opacity:1;fill-rule:nonzero;stroke:#161b28;stroke-width:0.999996;stroke-opacity:0.498039;marker:none"
     id="path4368"
     d="m 22.499998,24.499998 v 55.151521 c 0,5.060864 7.957434,9.848484 26.171055,9.848484 18.213623,0 24.828948,-4.78762 24.828948,-9.848484 V 24.499998 Z" />
  <path
     d="M 23,23 V 78.297285 C 23,83.331129 34.200002,89 48.000002,89 61.8,89 73,83.331129 73,78.297285 V 23 c 0,0 -50,0 -50,0 z"
     id="path3212"
     style="display:inline;overflow:visible;visibility:visible;opacity:0.4;fill:url(#radialGradient3052);fill-opacity:1;fill-rule:nonzero;stroke:none;stroke-width:0.999995;marker:none" />
  <path
     d="m 23.499999,28 v 51.731093 c 0,4.83669 19.421049,8.568928 25.180086,8.762126 5.75904,0.193184 23.819014,-3.925436 23.819091,-8.762126 L 72.5,28"
     id="path2206"
     style="display:inline;overflow:visible;visibility:visible;opacity:0.15;fill:none;stroke:url(#linearGradient5341);stroke-width:0.999992;stroke-linecap:round;stroke-linejoin:round;stroke-miterlimit:4;stroke-dasharray:none;stroke-dashoffset:0;stroke-opacity:1;marker:none"
     sodipodi:nodetypes="csssc" />
  <path
     d="m 35,31 8,1 v 57 l -8,-2 z"
     id="rect3244"
     style="display:inline;overflow:visible;visibility:visible;opacity:0.2;fill:url(#linearGradient3038);fill-opacity:1;fill-rule:nonzero;stroke:none;stroke-width:0.999997;marker:none"
     sodipodi:nodetypes="ccccc" />
  <path
     d="m 29.26914,30.991308 c 1.495017,0.551641 2.006878,2.201213 2.006878,3.698589 V 82.42935 c 0,1.497381 -0.511861,2.258745 -2.006878,1.707095 -1.495016,-0.551642 -2.006877,-2.201208 -2.006877,-3.69859 V 32.698412 c 0,-1.497378 0.511861,-2.258745 2.006877,-1.707104 z m 37.461719,0.322587 c -1.495015,0.551642 -2.006877,2.131003 -2.006877,3.628381 V 81.98429 c 0,1.497382 0.511862,2.258746 2.006877,1.707111 1.495015,-0.551643 2.006878,-2.201209 2.006878,-3.69859 V 32.926508 c 0,-1.497378 -0.511863,-2.164255 -2.006878,-1.612613 z"
     id="path3287"
     style="display:inline;overflow:visible;visibility:visible;opacity:0.15;fill:url(#linearGradient3035);fill-opacity:1;fill-rule:nonzero;stroke:none;stroke-width:0.999922;marker:none;enable-background:accumulate" />
  <path
     d="m 57.365429,33.097521 c -1.495015,0.06896 -2.029626,1.329938 -2.029626,2.827313 v 47.739453 c 0,1.497374 0.534611,2.647331 2.029626,2.578382 1.495018,-0.06896 2.006879,-1.329936 2.006879,-2.827318 V 35.675899 c 0,-1.497378 -0.511861,-2.647335 -2.006879,-2.578378 z"
     id="path3293"
     style="display:inline;overflow:visible;visibility:visible;opacity:0.3;fill:url(#linearGradient3032);fill-opacity:1;fill-rule:nonzero;stroke:none;stroke-width:0.999922;marker:none;enable-background:accumulate" />
  <path
     style="display:inline;overflow:visible;visibility:visible;opacity:0.3;fill:url(#linearGradient5339);fill-opacity:1;fill-rule:nonzero;stroke:none;stroke-width:0.999922;marker:none;enable-background:accumulate"
     id="path5337"
     d="m 38.63457,33.097521 c 1.495018,0.06896 2.006878,1.329938 2.006878,2.827313 v 47.739453 c 0,1.497374 -0.51186,2.647331 -2.006878,2.578382 -1.495016,-0.06896 -2.029626,-1.329936 -2.029626,-2.827318 V 35.675899 c 0,-1.497378 0.53461,-2.647335 2.029626,-2.578378 z m 9.365429,1.343588 c -1.495015,0.06897 -2.006881,1.329936 -2.006881,2.827313 v 47.739452 c 0,1.497382 0.511866,2.647331 2.006881,2.578375 1.495018,-0.06896 2.052368,-1.329944 2.052368,-2.827311 V 37.019486 c 0,-1.497378 -0.55735,-2.647334 -2.052368,-2.578377 z" />
  <path
     style="display:inline;overflow:visible;visibility:visible;opacity:0.350649;fill:none;stroke:url(#linearGradient3821);stroke-width:0.5;stroke-miterlimit:4;stroke-dasharray:none;stroke-opacity:1;marker:none;enable-background:accumulate"
     id="path3045"
     d="m 29.26914,31.313895 c 1.495017,0.55164 2.006878,1.878626 2.006878,3.376002 V 82.42935 c 0,1.497381 -0.511861,2.258745 -2.006878,1.707095 -1.495016,-0.551642 -2.006877,-2.201208 -2.006877,-3.69859 V 32.698412 c 0,-1.497378 0.511861,-1.936159 2.006877,-1.384517 z m 37.461719,0 c -1.495015,0.551642 -2.006877,2.131003 -2.006877,3.628381 V 81.98429 c 0,1.497382 0.511862,2.258746 2.006877,1.707111 1.495015,-0.551643 2.006878,-2.201209 2.006878,-3.69859 V 32.926508 c 0,-1.497378 -0.511863,-2.164255 -2.006878,-1.612613 z" />
  <path
     d="m 38.63457,33.097521 c 1.495018,0.06896 2.006878,1.329938 2.006878,2.827313 v 47.739453 c 0,1.497374 -0.51186,2.647331 -2.006878,2.578382 -1.495016,-0.06896 -2.029626,-1.329936 -2.029626,-2.827318 V 35.675899 c 0,-1.497378 0.53461,-2.647335 2.029626,-2.578378 z m 9.365429,1.343588 c -1.495015,0.06897 -2.006881,1.329936 -2.006881,2.827313 v 47.739452 c 0,1.497382 0.511866,2.647331 2.006881,2.578375 1.495018,-0.06896 2.052368,-1.329944 2.052368,-2.827311 V 37.019486 c 0,-1.497378 -0.55735,-2.647334 -2.052368,-2.578377 z"
     id="path3823"
     style="display:inline;overflow:visible;visibility:visible;opacity:0.4329;fill:none;fill-opacity:1;fill-rule:nonzero;stroke:url(#linearGradient3831);stroke-width:0.5;stroke-miterlimit:4;stroke-dasharray:none;stroke-opacity:1;marker:none;enable-background:accumulate" />
  <path
     style="display:inline;overflow:visible;visibility:visible;opacity:0.463203;fill:none;fill-opacity:1;fill-rule:nonzero;stroke:url(#linearGradient3841);stroke-width:0.5;stroke-miterlimit:4;stroke-dasharray:none;stroke-opacity:1;marker:none;enable-background:accumulate"
     id="path3833"
     d="m 57.365429,33.097521 c -1.495015,0.06896 -2.029626,1.329938 -2.029626,2.827313 v 47.739453 c 0,1.497374 0.534611,2.647331 2.029626,2.578382 1.495018,-0.06896 2.006879,-1.329936 2.006879,-2.827318 V 35.675899 c 0,-1.497378 -0.511861,-2.647335 -2.006879,-2.578378 z" />
  <path
     style="display:inline;overflow:visible;visibility:visible;fill:url(#linearGradient3410);fill-opacity:1;fill-rule:nonzero;stroke:url(#linearGradient3412);stroke-width:0.999997;stroke-linecap:round;stroke-linejoin:round;stroke-miterlimit:4;stroke-dasharray:none;stroke-dashoffset:0;stroke-opacity:1;marker:none"
     id="path3164"
     d="m 73.499999,24.499998 c 0,4.418281 -10.366908,8.000001 -24.823682,8.000001 -14.456784,0 -26.176318,-3.58172 -26.176318,-8.000001 0,-4.418278 11.719534,-7.999999 26.176318,-7.999999 14.456774,0 24.823682,3.581721 24.823682,7.999999 z" />
  <path
     style="display:inline;overflow:visible;visibility:visible;opacity:0.3;fill:url(#radialGradient3430);fill-opacity:1;fill-rule:nonzero;stroke:none;stroke-width:1;stroke-miterlimit:4;stroke-dasharray:none;marker:none"
     id="path3197"
     d="m 72.999999,24.5 c 0,4.142137 -11.192884,7.5 -24.999998,7.5 C 34.192881,32 23,28.642137 23,24.5 23,20.357865 34.192881,17 48.000001,17 c 13.807114,0 24.999998,3.357865 24.999998,7.5 z" />
  <g
     transform="matrix(1.3419604,0,0,1.3645274,-36.868117,-5.9995239)"
     id="g3202"
     style="stroke-width:0.554243;stroke-miterlimit:4;stroke-dasharray:none">
    <path
       style="color:#000000;display:inline;overflow:visible;visibility:visible;fill:#e7f0f4;fill-opacity:1;fill-rule:nonzero;stroke:none;stroke-width:0.554243;stroke-miterlimit:4;stroke-dasharray:none;marker:none;enable-background:accumulate"
       id="path3204"
       d="m 72.298172,14.259839 c -2.364264,0.61017 -5.766075,0.964388 -6.682888,2.119755 -0.643654,-0.234919 -1.463333,-0.702563 -2.250107,-0.474793 -1.355202,0.392328 -4.360456,0.184621 -4.131642,2.489548 0.02072,0.208667 0.05771,0.412519 0.146133,0.606278 -1.658167,0.642412 -2.744325,1.735307 -2.744325,2.975485 0,1.984307 3.352584,2.725381 6.388145,3.302138 2.542373,0.483051 10.049214,0.259203 11.570234,0.02542 2.083257,-0.320195 6.559207,-0.87549 6.159328,-2.819087 -0.305084,-1.482853 -1.475773,-3.428949 -3.949425,-3.903704 0.06712,-0.205939 0.08817,-0.417324 0.09744,-0.634253 0.07627,-1.784259 -2.648775,-2.494001 -2.771245,-2.620663 -0.678894,-0.702132 -1.421509,-1.343492 -1.831648,-1.066124 z" />
    <path
       style="color:#000000;display:inline;overflow:visible;visibility:visible;opacity:0.8;fill:none;stroke:url(#linearGradient3337);stroke-width:0.554243;stroke-linecap:round;stroke-linejoin:round;stroke-miterlimit:4;stroke-dasharray:none;stroke-dashoffset:0;stroke-opacity:1;marker:none;enable-background:accumulate"
       id="path3206"
       d="m 70.218651,15.930848 c -1.553936,0 -2.840479,0.255087 -3.057667,0.587993 -0.508739,0.725577 -0.612958,0.634769 -1.33861,0.500903 -0.540442,0.341435 -1.37974,0.232706 -1.942198,-0.03274 -0.357867,-0.180017 -1.177724,0.116295 -1.500909,0.116295 -0.469171,0 -1.712874,0.158018 -1.958538,0.290484 -0.01854,0.693937 -0.357069,1.936745 -0.674187,2.476378 -1.820668,1.166553 -1.853666,2.261915 -1.853666,2.261915 0,-0.290387 0.873355,1.078543 1.451651,1.528941 0.578278,0.450388 1.778588,0.792959 2.970724,0.787865 l 11.902657,-0.05085 c 1.192134,-0.0051 2.5888,0.0051 3.138024,-0.431934 0.549222,-0.437026 2.621142,-1.157026 2.621142,-0.91877 0,0.226279 -1.221065,-2.017027 -0.885748,-1.746913 1.350556,1.087933 1.912682,1.485625 -1.789652,-1.194644 l -1.344958,-1.658767 0.08696,-0.479263 h -0.08696 l -0.173885,0.359447 0.08693,-0.359447 H 75.69588 l 0.487131,-0.337824 -0.574087,0.21799 h 0.08693 v -0.119803 l -0.159126,-0.762712 c -1.218675,-1.604686 -0.874482,-0.678833 -1.491153,-0.838712 -0.293937,-0.803386 -0.147791,-0.106325 -0.557733,-0.323193 -0.507243,-0.399262 0.435155,-0.63533 -0.676017,-0.63533 z" />
    <path
       style="color:#000000;display:inline;overflow:visible;visibility:visible;opacity:0.4;fill:none;stroke:#25323f;stroke-width:0.554243;stroke-linecap:round;stroke-linejoin:round;stroke-miterlimit:4;stroke-dasharray:none;stroke-dashoffset:0;stroke-opacity:1;marker:none;enable-background:accumulate"
       id="path3208"
       d="m 67.411746,16.017784 c 0.536259,0.263258 0.525718,0.81463 0.271789,1.434355 -0.02349,0.05734 1.730592,0.903392 1.703173,0.961724 -0.0381,0.08106 -1.859426,-0.625222 -1.904002,-0.543042 -0.62332,1.149151 -0.367313,2.489305 -0.367313,2.489305 m 2.21767,-5.463313 c -1.969518,1.213618 -2.791494,0.340389 -3.784582,1.424843 -0.643654,-0.230652 -1.405597,-0.366318 -2.22468,-0.366318 -0.60128,0 -1.613663,0.332974 -1.613663,0.332974 0.516743,0.308053 0.60471,0.977386 0.513916,1.691483 -0.009,0.07068 2.115869,0.828238 2.103623,0.899488 -0.01679,0.09765 -2.171996,-0.490897 -2.193824,-0.393544 -0.09213,0.410878 -0.223617,0.812086 -0.347559,1.14423 -0.03011,0.08069 1.714638,3.149999 1.691343,3.076441 -0.754638,-2.382966 -4.556907,-2.298919 -1.887416,-2.171801 0,0 0.747861,-4.288361 -0.152542,-4.14777 0,0 -2.092985,-0.0053 -2.092985,0.667208 0,0.20587 -0.120246,1.650788 -0.03183,1.841029 -0.507164,0.192916 -0.960818,0.427211 -1.346246,0.694367 -0.265251,0.183854 -0.498191,0.383269 -0.694023,0.595472 -0.04378,0.04743 2.317834,1.916913 2.277827,1.965587 -0.06895,0.08389 -2.535752,-1.651852 -2.593095,-1.564522 -0.251479,0.382976 -0.515891,1.128118 -0.515891,1.56103 0,1.94826 3.985833,2.452805 6.354981,2.919003 1.313939,0.258554 5.622944,0.490538 5.622944,0.490538 0.336495,-0.716115 0.976727,-1.738381 1.6119,-2.691072 0.03395,-0.05092 -3.313475,-4.703331 0.101753,-0.1521 0.03816,0.05085 0.0708,-0.105292 0.106037,-0.157452 0.824882,-1.220861 0.566332,-1.565792 0.566332,-1.565792 l 0.199877,0.541622 1.488369,1.568634 -1.703202,-1.245739 -2.435116,3.659989 -2.793583,-2.884122 2.913967,2.907254 c 2.423085,-0.02936 6.034246,-0.363281 6.074339,-0.367742 3.707895,-0.412614 6.441313,-1.125608 6.059957,-2.692512 -0.316321,-1.29969 -0.93513,-3.155824 -2.876527,-3.750289 -0.07857,-0.02407 -1.113563,3.992428 -1.113563,3.992428 0,0 0.763717,-4.091841 0.70749,-4.106175 -0.191851,-0.04891 -0.388898,-0.09253 -0.590547,-0.130528 0.06712,-0.202209 0.09744,-0.409545 0.09744,-0.622728 0,-1.184448 -1.235935,-1.844821 -2.874333,-2.445839 -0.05214,-0.01913 -1.282955,2.038619 -1.909189,3.078726 -0.06448,0.107088 2.620102,1.369923 2.451573,1.162394 -1.266455,-1.559535 -3.159694,-0.447647 -3.159694,-0.447647 -0.0206,-0.03211 0.767636,-1.078913 1.209625,-1.974728 0.03174,-0.06434 -6.724417,-2.188423 0.09578,-0.19403 0.04002,0.0117 0.03696,-0.07483 0.05545,-0.11228 0.500717,-1.013851 1.002716,-2.030363 0.96101,-2.042895 -0.467411,-0.140453 0.22311,-0.424876 -0.307898,-0.491485 -0.419498,-0.05262 -3.652215,0.275557 -4.023545,0.50437 z" />
  </g>
  <g
     transform="matrix(1.3419604,0,0,1.3487535,-47.950165,-9.8982851)"
     id="g3241"
     style="stroke-width:0.55747465;stroke-miterlimit:4;stroke-dasharray:none">
    <path
       style="color:#000000;display:inline;overflow:visible;visibility:visible;fill:#e7f0f4;fill-opacity:1;fill-rule:nonzero;stroke:none;stroke-width:0.55747465;marker:none;enable-background:accumulate;stroke-miterlimit:4;stroke-dasharray:none"
       id="path3243"
       d="m 72.298172,14.259839 c -2.364264,0.61017 -5.766075,0.964388 -6.682888,2.119755 -0.643654,-0.234919 -1.463333,-0.702563 -2.250107,-0.474793 -1.355202,0.392328 -4.360456,0.184621 -4.131642,2.489548 0.02072,0.208667 0.05771,0.412519 0.146133,0.606278 -1.658167,0.642412 -2.744325,1.735307 -2.744325,2.975485 0,1.984307 3.352584,2.725381 6.388145,3.302138 2.542373,0.483051 10.049214,0.259203 11.570234,0.02542 2.083257,-0.320195 6.559207,-0.87549 6.159328,-2.819087 -0.305084,-1.482853 -1.475773,-3.428949 -3.949425,-3.903704 0.06712,-0.205939 0.08817,-0.417324 0.09744,-0.634253 0.07627,-1.784259 -2.648775,-2.494001 -2.771245,-2.620663 -0.678894,-0.702132 -1.421509,-1.343492 -1.831648,-1.066124 z" />
    <path
       style="color:#000000;display:inline;overflow:visible;visibility:visible;opacity:0.8;fill:none;stroke:url(#linearGradient3339);stroke-width:0.55747465;stroke-linecap:round;stroke-linejoin:round;stroke-miterlimit:4;stroke-dasharray:none;stroke-dashoffset:0;stroke-opacity:1;marker:none;enable-background:accumulate"
       id="path3245"
       d="m 70.218651,15.930848 c -1.553936,0 -2.840479,0.255087 -3.057667,0.587993 -0.508739,0.725577 -0.612958,0.634769 -1.33861,0.500903 -0.540442,0.341435 -1.37974,0.232706 -1.942198,-0.03274 -0.357867,-0.180017 -1.177724,0.116295 -1.500909,0.116295 -0.469171,0 -1.712874,0.158018 -1.958538,0.290484 -0.01854,0.693937 -0.357069,1.936745 -0.674187,2.476378 -1.820668,1.166553 -1.853666,2.261915 -1.853666,2.261915 0,-0.290387 0.873355,1.078543 1.451651,1.528941 0.578278,0.450388 1.778588,0.792959 2.970724,0.787865 l 11.902657,-0.05085 c 1.192134,-0.0051 2.5888,0.0051 3.138024,-0.431934 0.549222,-0.437026 2.621142,-1.157026 2.621142,-0.91877 0,0.226279 -1.221065,-2.017027 -0.885748,-1.746913 1.350556,1.087933 1.912682,1.485625 -1.789652,-1.194644 l -1.344958,-1.658767 0.08696,-0.479263 h -0.08696 l -0.173885,0.359447 0.08693,-0.359447 H 75.69588 l 0.487131,-0.337824 -0.574087,0.21799 h 0.08693 v -0.119803 l -0.159126,-0.762712 c -1.218675,-1.604686 -0.874482,-0.678833 -1.491153,-0.838712 -0.293937,-0.803386 -0.147791,-0.106325 -0.557733,-0.323193 -0.507243,-0.399262 0.435155,-0.63533 -0.676017,-0.63533 z" />
    <path
       style="color:#000000;display:inline;overflow:visible;visibility:visible;opacity:0.4;fill:none;stroke:#25323f;stroke-width:0.55747465;stroke-linecap:round;stroke-linejoin:round;stroke-miterlimit:4;stroke-dasharray:none;stroke-dashoffset:0;stroke-opacity:1;marker:none;enable-background:accumulate"
       id="path3247"
       d="m 67.411746,16.017784 c 0.536259,0.263258 0.525718,0.81463 0.271789,1.434355 -0.02349,0.05734 1.730592,0.903392 1.703173,0.961724 -0.0381,0.08106 -1.859426,-0.625222 -1.904002,-0.543042 -0.62332,1.149151 -0.367313,2.489305 -0.367313,2.489305 m 2.21767,-5.463313 c -1.969518,1.213618 -2.791494,0.340389 -3.784582,1.424843 -0.643654,-0.230652 -1.405597,-0.366318 -2.22468,-0.366318 -0.60128,0 -1.613663,0.332974 -1.613663,0.332974 0.516743,0.308053 0.60471,0.977386 0.513916,1.691483 -0.009,0.07068 2.115869,0.828238 2.103623,0.899488 -0.01679,0.09765 -2.171996,-0.490897 -2.193824,-0.393544 -0.09213,0.410878 -0.223617,0.812086 -0.347559,1.14423 -0.03011,0.08069 1.714638,3.149999 1.691343,3.076441 -0.754638,-2.382966 -4.556907,-2.298919 -1.887416,-2.171801 0,0 0.747861,-4.288361 -0.152542,-4.14777 0,0 -2.092985,-0.0053 -2.092985,0.667208 0,0.20587 -0.120246,1.650788 -0.03183,1.841029 -0.507164,0.192916 -0.960818,0.427211 -1.346246,0.694367 -0.265251,0.183854 -0.498191,0.383269 -0.694023,0.595472 -0.04378,0.04743 2.317834,1.916913 2.277827,1.965587 -0.06895,0.08389 -2.535752,-1.651852 -2.593095,-1.564522 -0.251479,0.382976 -0.515891,1.128118 -0.515891,1.56103 0,1.94826 3.985833,2.452805 6.354981,2.919003 1.313939,0.258554 5.622944,0.490538 5.622944,0.490538 0.336495,-0.716115 0.976727,-1.738381 1.6119,-2.691072 0.03395,-0.05092 -3.313475,-4.703331 0.101753,-0.1521 0.03816,0.05085 0.0708,-0.105292 0.106037,-0.157452 0.824882,-1.220861 0.566332,-1.565792 0.566332,-1.565792 l 0.199877,0.541622 1.488369,1.568634 -1.703202,-1.245739 -2.435116,3.659989 -2.793583,-2.884122 2.913967,2.907254 c 2.423085,-0.02936 6.034246,-0.363281 6.074339,-0.367742 3.707895,-0.412614 6.441313,-1.125608 6.059957,-2.692512 -0.316321,-1.29969 -0.93513,-3.155824 -2.876527,-3.750289 -0.07857,-0.02407 -1.113563,3.992428 -1.113563,3.992428 0,0 0.763717,-4.091841 0.70749,-4.106175 -0.191851,-0.04891 -0.388898,-0.09253 -0.590547,-0.130528 0.06712,-0.202209 0.09744,-0.409545 0.09744,-0.622728 0,-1.184448 -1.235935,-1.844821 -2.874333,-2.445839 -0.05214,-0.01913 -1.282955,2.038619 -1.909189,3.078726 -0.06448,0.107088 2.620102,1.369923 2.451573,1.162394 -1.266455,-1.559535 -3.159694,-0.447647 -3.159694,-0.447647 -0.0206,-0.03211 0.767636,-1.078913 1.209625,-1.974728 0.03174,-0.06434 -6.724417,-2.188423 0.09578,-0.19403 0.04002,0.0117 0.03696,-0.07483 0.05545,-0.11228 0.500717,-1.013851 1.002716,-2.030363 0.96101,-2.042895 -0.467411,-0.140453 0.22311,-0.424876 -0.307898,-0.491485 -0.419498,-0.05262 -3.652215,0.275557 -4.023545,0.50437 z" />
  </g>
  <g
     id="g3195"
     transform="matrix(1.3419604,0,0,1.3487535,-51.368118,-4.4269978)"
     style="stroke-width:0.557475;stroke-miterlimit:4;stroke-dasharray:none">
    <path
       d="m 72.298172,14.259839 c -2.364264,0.61017 -5.766075,0.964388 -6.682888,2.119755 -0.643654,-0.234919 -1.463333,-0.702563 -2.250107,-0.474793 -1.355202,0.392328 -4.360456,0.184621 -4.131642,2.489548 0.02072,0.208667 0.05771,0.412519 0.146133,0.606278 -1.658167,0.642412 -2.744325,1.735307 -2.744325,2.975485 0,1.984307 3.352584,2.725381 6.388145,3.302138 2.542373,0.483051 10.049214,0.259203 11.570234,0.02542 2.083257,-0.320195 6.559207,-0.87549 6.159328,-2.819087 -0.305084,-1.482853 -1.475773,-3.428949 -3.949425,-3.903704 0.06712,-0.205939 0.08817,-0.417324 0.09744,-0.634253 0.07627,-1.784259 -2.648775,-2.494001 -2.771245,-2.620663 -0.678894,-0.702132 -1.421509,-1.343492 -1.831648,-1.066124 z"
       id="rect4519"
       style="color:#000000;display:inline;overflow:visible;visibility:visible;fill:#e7f0f4;fill-opacity:1;fill-rule:nonzero;stroke:none;stroke-width:0.557475;stroke-miterlimit:4;stroke-dasharray:none;marker:none;enable-background:accumulate" />
    <path
       d="m 70.218651,15.930848 c -1.553936,0 -2.840479,0.255087 -3.057667,0.587993 -0.508739,0.725577 -0.612958,0.634769 -1.33861,0.500903 -0.540442,0.341435 -1.37974,0.232706 -1.942198,-0.03274 -0.357867,-0.180017 -1.177724,0.116295 -1.500909,0.116295 -0.469171,0 -1.712874,0.158018 -1.958538,0.290484 -0.01854,0.693937 -0.357069,1.936745 -0.674187,2.476378 -1.820668,1.166553 -1.853666,2.261915 -1.853666,2.261915 0,-0.290387 0.873355,1.078543 1.451651,1.528941 0.578278,0.450388 1.778588,0.792959 2.970724,0.787865 l 11.902657,-0.05085 c 1.192134,-0.0051 2.5888,0.0051 3.138024,-0.431934 0.549222,-0.437026 2.621142,-1.157026 2.621142,-0.91877 0,0.226279 -1.221065,-2.017027 -0.885748,-1.746913 1.350556,1.087933 1.912682,1.485625 -1.789652,-1.194644 l -1.344958,-1.658767 0.08696,-0.479263 h -0.08696 l -0.173885,0.359447 0.08693,-0.359447 H 75.69588 l 0.487131,-0.337824 -0.574087,0.21799 h 0.08693 v -0.119803 l -0.159126,-0.762712 c -1.218675,-1.604686 -0.874482,-0.678833 -1.491153,-0.838712 -0.293937,-0.803386 -0.147791,-0.106325 -0.557733,-0.323193 -0.507243,-0.399262 0.435155,-0.63533 -0.676017,-0.63533 z"
       id="path5952"
       style="color:#000000;display:inline;overflow:visible;visibility:visible;opacity:0.8;fill:none;stroke:url(#linearGradient3341);stroke-width:0.557475;stroke-linecap:round;stroke-linejoin:round;stroke-miterlimit:4;stroke-dasharray:none;stroke-dashoffset:0;stroke-opacity:1;marker:none;enable-background:accumulate" />
    <path
       d="m 67.411746,16.017784 c 0.536259,0.263258 0.525718,0.81463 0.271789,1.434355 -0.02349,0.05734 1.730592,0.903392 1.703173,0.961724 -0.0381,0.08106 -1.859426,-0.625222 -1.904002,-0.543042 -0.62332,1.149151 -0.367313,2.489305 -0.367313,2.489305 m 2.21767,-5.463313 c -1.969518,1.213618 -2.791494,0.340389 -3.784582,1.424843 -0.643654,-0.230652 -1.405597,-0.366318 -2.22468,-0.366318 -0.60128,0 -1.613663,0.332974 -1.613663,0.332974 0.516743,0.308053 0.60471,0.977386 0.513916,1.691483 -0.009,0.07068 2.115869,0.828238 2.103623,0.899488 -0.01679,0.09765 -2.171996,-0.490897 -2.193824,-0.393544 -0.09213,0.410878 -0.223617,0.812086 -0.347559,1.14423 -0.03011,0.08069 1.714638,3.149999 1.691343,3.076441 -0.754638,-2.382966 -4.556907,-2.298919 -1.887416,-2.171801 0,0 0.747861,-4.288361 -0.152542,-4.14777 0,0 -2.092985,-0.0053 -2.092985,0.667208 0,0.20587 -0.120246,1.650788 -0.03183,1.841029 -0.507164,0.192916 -0.960818,0.427211 -1.346246,0.694367 -0.265251,0.183854 -0.498191,0.383269 -0.694023,0.595472 -0.04378,0.04743 2.317834,1.916913 2.277827,1.965587 -0.06895,0.08389 -2.535752,-1.651852 -2.593095,-1.564522 -0.251479,0.382976 -0.515891,1.128118 -0.515891,1.56103 0,1.94826 3.985833,2.452805 6.354981,2.919003 1.313939,0.258554 5.622944,0.490538 5.622944,0.490538 0.336495,-0.716115 0.976727,-1.738381 1.6119,-2.691072 0.03395,-0.05092 -3.313475,-4.703331 0.101753,-0.1521 0.03816,0.05085 0.0708,-0.105292 0.106037,-0.157452 0.824882,-1.220861 0.566332,-1.565792 0.566332,-1.565792 l 0.199877,0.541622 1.488369,1.568634 -1.703202,-1.245739 -2.435116,3.659989 -2.793583,-2.884122 2.913967,2.907254 c 2.423085,-0.02936 6.034246,-0.363281 6.074339,-0.367742 3.707895,-0.412614 6.441313,-1.125608 6.059957,-2.692512 -0.316321,-1.29969 -0.93513,-3.155824 -2.876527,-3.750289 -0.07857,-0.02407 -1.113563,3.992428 -1.113563,3.992428 0,0 0.763717,-4.091841 0.70749,-4.106175 -0.191851,-0.04891 -0.388898,-0.09253 -0.590547,-0.130528 0.06712,-0.202209 0.09744,-0.409545 0.09744,-0.622728 0,-1.184448 -1.235935,-1.844821 -2.874333,-2.445839 -0.05214,-0.01913 -1.282955,2.038619 -1.909189,3.078726 -0.06448,0.107088 2.620102,1.369923 2.451573,1.162394 -1.266455,-1.559535 -3.159694,-0.447647 -3.159694,-0.447647 -0.0206,-0.03211 0.767636,-1.078913 1.209625,-1.974728 0.03174,-0.06434 -6.724417,-2.188423 0.09578,-0.19403 0.04002,0.0117 0.03696,-0.07483 0.05545,-0.11228 0.500717,-1.013851 1.002716,-2.030363 0.96101,-2.042895 -0.467411,-0.140453 0.22311,-0.424876 -0.307898,-0.491485 -0.419498,-0.05262 -3.652215,0.275557 -4.023545,0.50437 z"
       id="path5956"
       style="color:#000000;display:inline;overflow:visible;visibility:visible;opacity:0.4;fill:none;stroke:#25323f;stroke-width:0.557475;stroke-linecap:round;stroke-linejoin:round;stroke-miterlimit:4;stroke-dasharray:none;stroke-dashoffset:0;stroke-opacity:1;marker:none;enable-background:accumulate" />
  </g>
  <g
     transform="matrix(1.3419604,0,0,1.3487535,-42.582323,-3.0247998)"
     id="g3231"
     style="stroke-width:0.557475;stroke-miterlimit:4;stroke-dasharray:none">
    <path
       style="color:#000000;display:inline;overflow:visible;visibility:visible;fill:#e7f0f4;fill-opacity:1;fill-rule:nonzero;stroke:none;stroke-width:0.557475;stroke-miterlimit:4;stroke-dasharray:none;marker:none;enable-background:accumulate"
       id="path3233"
       d="m 72.298172,14.259839 c -2.364264,0.61017 -5.766075,0.964388 -6.682888,2.119755 -0.643654,-0.234919 -1.463333,-0.702563 -2.250107,-0.474793 -1.355202,0.392328 -4.360456,0.184621 -4.131642,2.489548 0.02072,0.208667 0.05771,0.412519 0.146133,0.606278 -1.658167,0.642412 -2.744325,1.735307 -2.744325,2.975485 0,1.984307 3.352584,2.725381 6.388145,3.302138 2.542373,0.483051 10.049214,0.259203 11.570234,0.02542 2.083257,-0.320195 6.559207,-0.87549 6.159328,-2.819087 -0.305084,-1.482853 -1.475773,-3.428949 -3.949425,-3.903704 0.06712,-0.205939 0.08817,-0.417324 0.09744,-0.634253 0.07627,-1.784259 -2.648775,-2.494001 -2.771245,-2.620663 -0.678894,-0.702132 -1.421509,-1.343492 -1.831648,-1.066124 z" />
    <path
       style="color:#000000;display:inline;overflow:visible;visibility:visible;opacity:0.8;fill:none;stroke:url(#linearGradient3210);stroke-width:0.557475;stroke-linecap:round;stroke-linejoin:round;stroke-miterlimit:4;stroke-dasharray:none;stroke-dashoffset:0;stroke-opacity:1;marker:none;enable-background:accumulate"
       id="path3235"
       d="m 70.218651,15.930848 c -1.553936,0 -2.840479,0.255087 -3.057667,0.587993 -0.508739,0.725577 -0.612958,0.634769 -1.33861,0.500903 -0.540442,0.341435 -1.37974,0.232706 -1.942198,-0.03274 -0.357867,-0.180017 -1.177724,0.116295 -1.500909,0.116295 -0.469171,0 -1.712874,0.158018 -1.958538,0.290484 -0.01854,0.693937 -0.357069,1.936745 -0.674187,2.476378 -1.820668,1.166553 -1.853666,2.261915 -1.853666,2.261915 0,-0.290387 0.873355,1.078543 1.451651,1.528941 0.578278,0.450388 1.778588,0.792959 2.970724,0.787865 l 11.902657,-0.05085 c 1.192134,-0.0051 2.5888,0.0051 3.138024,-0.431934 0.549222,-0.437026 2.621142,-1.157026 2.621142,-0.91877 0,0.226279 -1.221065,-2.017027 -0.885748,-1.746913 1.350556,1.087933 1.912682,1.485625 -1.789652,-1.194644 l -1.344958,-1.658767 0.08696,-0.479263 h -0.08696 l -0.173885,0.359447 0.08693,-0.359447 H 75.69588 l 0.487131,-0.337824 -0.574087,0.21799 h 0.08693 v -0.119803 l -0.159126,-0.762712 c -1.218675,-1.604686 -0.874482,-0.678833 -1.491153,-0.838712 -0.293937,-0.803386 -0.147791,-0.106325 -0.557733,-0.323193 -0.507243,-0.399262 0.435155,-0.63533 -0.676017,-0.63533 z" />
    <path
       style="color:#000000;display:inline;overflow:visible;visibility:visible;opacity:0.4;fill:none;stroke:#25323f;stroke-width:0.557475;stroke-linecap:round;stroke-linejoin:round;stroke-miterlimit:4;stroke-dasharray:none;stroke-dashoffset:0;stroke-opacity:1;marker:none;enable-background:accumulate"
       id="path3237"
       d="m 67.411746,16.017784 c 0.536259,0.263258 0.525718,0.81463 0.271789,1.434355 -0.02349,0.05734 1.730592,0.903392 1.703173,0.961724 -0.0381,0.08106 -1.859426,-0.625222 -1.904002,-0.543042 -0.62332,1.149151 -0.367313,2.489305 -0.367313,2.489305 m 2.21767,-5.463313 c -1.969518,1.213618 -2.791494,0.340389 -3.784582,1.424843 -0.643654,-0.230652 -1.405597,-0.366318 -2.22468,-0.366318 -0.60128,0 -1.613663,0.332974 -1.613663,0.332974 0.516743,0.308053 0.60471,0.977386 0.513916,1.691483 -0.009,0.07068 2.115869,0.828238 2.103623,0.899488 -0.01679,0.09765 -2.171996,-0.490897 -2.193824,-0.393544 -0.09213,0.410878 -0.223617,0.812086 -0.347559,1.14423 -0.03011,0.08069 1.714638,3.149999 1.691343,3.076441 -0.754638,-2.382966 -4.556907,-2.298919 -1.887416,-2.171801 0,0 0.747861,-4.288361 -0.152542,-4.14777 0,0 -2.092985,-0.0053 -2.092985,0.667208 0,0.20587 -0.120246,1.650788 -0.03183,1.841029 -0.507164,0.192916 -0.960818,0.427211 -1.346246,0.694367 -0.265251,0.183854 -0.498191,0.383269 -0.694023,0.595472 -0.04378,0.04743 2.317834,1.916913 2.277827,1.965587 -0.06895,0.08389 -2.535752,-1.651852 -2.593095,-1.564522 -0.251479,0.382976 -0.515891,1.128118 -0.515891,1.56103 0,1.94826 3.985833,2.452805 6.354981,2.919003 1.313939,0.258554 5.622944,0.490538 5.622944,0.490538 0.336495,-0.716115 0.976727,-1.738381 1.6119,-2.691072 0.03395,-0.05092 -3.313475,-4.703331 0.101753,-0.1521 0.03816,0.05085 0.0708,-0.105292 0.106037,-0.157452 0.824882,-1.220861 0.566332,-1.565792 0.566332,-1.565792 l 0.199877,0.541622 1.488369,1.568634 -1.703202,-1.245739 -2.435116,3.659989 -2.793583,-2.884122 2.913967,2.907254 c 2.423085,-0.02936 6.034246,-0.363281 6.074339,-0.367742 3.707895,-0.412614 6.441313,-1.125608 6.059957,-2.692512 -0.316321,-1.29969 -0.93513,-3.155824 -2.876527,-3.750289 -0.07857,-0.02407 -1.113563,3.992428 -1.113563,3.992428 0,0 0.763717,-4.091841 0.70749,-4.106175 -0.191851,-0.04891 -0.388898,-0.09253 -0.590547,-0.130528 0.06712,-0.202209 0.09744,-0.409545 0.09744,-0.622728 0,-1.184448 -1.235935,-1.844821 -2.874333,-2.445839 -0.05214,-0.01913 -1.282955,2.038619 -1.909189,3.078726 -0.06448,0.107088 2.620102,1.369923 2.451573,1.162394 -1.266455,-1.559535 -3.159694,-0.447647 -3.159694,-0.447647 -0.0206,-0.03211 0.767636,-1.078913 1.209625,-1.974728 0.03174,-0.06434 -6.724417,-2.188423 0.09578,-0.19403 0.04002,0.0117 0.03696,-0.07483 0.05545,-0.11228 0.500717,-1.013851 1.002716,-2.030363 0.96101,-2.042895 -0.467411,-0.140453 0.22311,-0.424876 -0.307898,-0.491485 -0.419498,-0.05262 -3.652215,0.275557 -4.023545,0.50437 z" />
  </g>
  <path
     id="path5418"
     d="m 84.500002,56 c 0,-7.918334 -0.425297,-15.120479 -1.820801,-20.19961 C 81.981119,33.25962 81.040763,31.307882 80.240236,30.075521 79.406852,28.792578 78.445519,28.5 77.960939,28.5 h -7.371094 c -0.484579,0 -1.47701,0.288586 -2.312988,1.575521 -0.795342,1.224378 -1.805238,3.178405 -2.504883,5.724869 C 64.38179,40.860158 63.500001,48.068035 63.500001,56 c 0,7.931966 0.881789,15.139841 2.271973,20.199615 0.700428,2.54931 1.744362,4.50448 2.537109,5.72486 0.825606,1.27097 1.696571,1.57553 2.181153,1.57553 h 7.378418 c 0.242296,0 0.599448,-0.0697 1.03125,-0.30079 0.431802,-0.23109 0.918638,-0.62783 1.338868,-1.27474 0.814029,-1.25315 1.570639,-3.19892 2.264648,-5.72486 C 83.896859,71.127992 84.500002,63.923624 84.500002,56 Z"
     style="color:#000000;display:inline;overflow:visible;visibility:visible;fill:url(#linearGradient3076-3);fill-opacity:1;fill-rule:nonzero;stroke:none;stroke-width:1;stroke-miterlimit:4;stroke-dasharray:none;marker:none;enable-background:accumulate" />
  <path
     id="path5019-9"
     d="M 84.5,55.999999 C 84.5,40.80977 81.761271,28.5 77.808802,28.5 H 70.652228 C 66.699763,28.5 63.5,40.80977 63.5,55.999999 c 0,15.190227 3.199763,27.500006 7.152228,27.500006 h 7.156574 C 81.761271,83.500005 84.5,71.190226 84.5,55.999999 Z"
     style="color:#000000;display:inline;overflow:visible;visibility:visible;fill:none;stroke:#161b28;stroke-width:1;stroke-linecap:butt;stroke-linejoin:miter;stroke-miterlimit:4;stroke-dasharray:none;stroke-dashoffset:0;stroke-opacity:0.498039;marker:none;enable-background:accumulate"
     sodipodi:nodetypes="sssssss" />
  <path
     style="color:#000000;display:inline;overflow:visible;visibility:visible;opacity:0.7;fill:url(#radialGradient3922-2);fill-opacity:1;stroke:none;stroke-width:0.5;stroke-linecap:round;stroke-linejoin:round;stroke-miterlimit:4;stroke-dasharray:none;stroke-dashoffset:0;stroke-opacity:1;marker:none;enable-background:accumulate"
     id="path3914"
     d="m 77.746818,82.999995 a 6.75,27 0 1 0 0,-53.999994 6.75,27 0 0 0 0,53.999994 z" />
  <path
     d="m 77.496429,82.500199 a 6.5002057,26.500203 0 1 0 0,-53.000398 6.5002057,26.500203 0 0 0 0,53.000398 z"
     id="path4564-1-6"
     style="color:#000000;display:inline;overflow:visible;visibility:visible;opacity:0.7;fill:none;stroke:url(#linearGradient3083-9);stroke-width:0.999594;stroke-linecap:round;stroke-linejoin:round;stroke-miterlimit:4;stroke-dasharray:none;stroke-dashoffset:0;stroke-opacity:1;marker:none;enable-background:accumulate" />
  <ellipse
     ry="1.5"
     rx="3"
     cy="-78"
     cx="47.500004"
     id="path4319"
     style="opacity:0.1;fill:#000000;fill-opacity:1;stroke:none;stroke-width:9.00003;stroke-linecap:square;stroke-miterlimit:4;stroke-dasharray:none;stroke-opacity:0.276995"
     transform="rotate(90)" />
  <ellipse
     style="opacity:0.1;fill:#000000;fill-opacity:1;stroke:none;stroke-width:9.00003;stroke-linecap:square;stroke-miterlimit:4;stroke-dasharray:none;stroke-opacity:0.276995"
     id="ellipse4329"
     cx="64.5"
     cy="-78"
     rx="3"
     ry="1.5"
     transform="rotate(90)" />
  <path
     id="path3902"
     d="m 78.567841,45.499998 h 5.432088 c 1.423791,0 3.500072,1.559327 3.500072,4.545752 v 12.07039 c 0,2.986426 -2.076281,4.383862 -3.500072,4.383862 h -5.432088 c -1.423791,0 -1.423791,-3.999909 0,-3.999909 h 3.864546 c 1.423791,0 1.067226,-1.988186 1.067226,-1.988186 v -8.861869 c 0,0 0.35657,-2.150076 -1.067226,-2.150076 h -3.864546 c -1.423791,0 -1.423791,-3.999963 0,-3.999964 z"
     style="fill:url(#radialGradient3910-7);fill-opacity:1;stroke:#161b28;stroke-width:0.999997;stroke-opacity:0.498039"
     sodipodi:nodetypes="ssssssssccsss" />
  <path
     id="path4366"
     d="m 86.500002,49.499998 -3e-6,13.000003"
     style="opacity:0.5;fill:none;fill-rule:evenodd;stroke:#ffffff;stroke-width:0.999996px;stroke-linecap:round;stroke-linejoin:miter;stroke-opacity:1" />
</svg>
