<?xml version="1.0" encoding="UTF-8" standalone="no"?>
<svg
   xmlns:dc="http://purl.org/dc/elements/1.1/"
   xmlns:cc="http://creativecommons.org/ns#"
   xmlns:rdf="http://www.w3.org/1999/02/22-rdf-syntax-ns#"
   xmlns:svg="http://www.w3.org/2000/svg"
   xmlns="http://www.w3.org/2000/svg"
   height="16"
   width="16"
   id="svg2"
   version="1.1">
  <metadata
     id="metadata10">
    <rdf:RDF>
      <cc:Work
         rdf:about="">
        <dc:format>image/svg+xml</dc:format>
        <dc:type
           rdf:resource="http://purl.org/dc/dcmitype/StillImage" />
      </cc:Work>
    </rdf:RDF>
  </metadata>
  <defs
     id="defs8" />
  <path
     color="#000"
     d="M2.5 2.035c-.822 0-1.5.678-1.5 1.5v9c0 .823.678 1.5 1.5 1.5h11c.822 0 1.5-.677 1.5-1.5v-9c0-.822-.678-1.5-1.5-1.5zm0 1H6V8l1-1 1 1 1-.75L10 8V3.035h3.5c.286 0 .5.215.5.5v9c0 .286-.214.5-.5.5h-11a.488.488 0 0 1-.5-.5v-9c0-.285.214-.5.5-.5zm4.5 0h2V6l-.906.68L7 5.586z"
     fill="#666"
     font-family="sans-serif"
     font-weight="400"
     overflow="visible"
     style="line-height:normal;font-variant-ligatures:normal;font-variant-position:normal;font-variant-caps:normal;font-variant-numeric:normal;font-variant-alternates:normal;font-feature-settings:normal;text-indent:0;text-align:start;text-decoration-line:none;text-decoration-style:solid;text-decoration-color:#000;text-transform:none;text-orientation:mixed;shape-padding:0;isolation:auto;mix-blend-mode:normal"
     white-space="normal"
     id="path4" />
</svg>
