<?xml version="1.0" encoding="UTF-8" standalone="no"?>
<svg
   xmlns:dc="http://purl.org/dc/elements/1.1/"
   xmlns:cc="http://creativecommons.org/ns#"
   xmlns:rdf="http://www.w3.org/1999/02/22-rdf-syntax-ns#"
   xmlns:svg="http://www.w3.org/2000/svg"
   xmlns="http://www.w3.org/2000/svg"
   xmlns:xlink="http://www.w3.org/1999/xlink"
   width="96"
   height="96"
   id="svg3598"
   version="1.1">
  <defs
     id="defs3600">
    <linearGradient
       xlink:href="#linearGradient3290-678"
       id="linearGradient3151"
       gradientUnits="userSpaceOnUse"
       gradientTransform="matrix(1.2845297,-1.2925896,1.7307203,1.7244608,-8.756553,0.89033991)"
       x1="9"
       y1="29.056757"
       x2="9"
       y2="26.02973" />
    <linearGradient
       id="linearGradient3290-678">
      <stop
         id="stop2607"
         style="stop-color:#ece5a5;stop-opacity:1"
         offset="0" />
      <stop
         id="stop2609"
         style="stop-color:#fcfbf2;stop-opacity:1"
         offset="1" />
    </linearGradient>
    <linearGradient
       xlink:href="#linearGradient3191-577"
       id="linearGradient3153"
       gradientUnits="userSpaceOnUse"
       gradientTransform="matrix(1.1282053,0.04876166,0.04863514,1.1283525,37.968821,-6.4210206)"
       x1="5.5178981"
       y1="37.371799"
       x2="9.5220556"
       y2="41.391716" />
    <linearGradient
       id="linearGradient3191-577">
      <stop
         id="stop2613"
         style="stop-color:#dbce48;stop-opacity:1"
         offset="0" />
      <stop
         id="stop2615"
         style="stop-color:#c5b625;stop-opacity:1"
         offset="1" />
    </linearGradient>
    <linearGradient
       xlink:href="#linearGradient3223-699"
       id="linearGradient3156"
       gradientUnits="userSpaceOnUse"
       gradientTransform="matrix(1.2845298,-1.292589,1.7307208,1.7244601,-6.073665,-1.8093921)"
       x1="30.037716"
       y1="24.989594"
       x2="30.037716"
       y2="30.000141" />
    <linearGradient
       id="linearGradient3223-699">
      <stop
         id="stop2599"
         style="stop-color:#b1b1b1;stop-opacity:1"
         offset="0" />
      <stop
         id="stop2601"
         style="stop-color:#ffffff;stop-opacity:1"
         offset="0.5" />
      <stop
         id="stop2603"
         style="stop-color:#8f8f8f;stop-opacity:1"
         offset="1" />
    </linearGradient>
    <linearGradient
       xlink:href="#linearGradient3240-907"
       id="linearGradient3159"
       gradientUnits="userSpaceOnUse"
       gradientTransform="matrix(1.2845298,-1.292589,1.7307208,1.7244601,-5.705791,-2.1795753)"
       x1="30.037716"
       y1="24.989594"
       x2="30.037716"
       y2="30.000141" />
    <linearGradient
       id="linearGradient3240-907">
      <stop
         id="stop2591"
         style="stop-color:#565656;stop-opacity:1"
         offset="0" />
      <stop
         id="stop2593"
         style="stop-color:#9a9a9a;stop-opacity:1"
         offset="0.5" />
      <stop
         id="stop2595"
         style="stop-color:#545454;stop-opacity:1"
         offset="1" />
    </linearGradient>
    <linearGradient
       xlink:href="#linearGradient3223-768"
       id="linearGradient3162"
       gradientUnits="userSpaceOnUse"
       gradientTransform="matrix(1.2845298,-1.292589,1.7307208,1.7244601,-7.35819,-0.51680478)"
       x1="30.037716"
       y1="24.989594"
       x2="30.037716"
       y2="30.000141" />
    <linearGradient
       id="linearGradient3223-768">
      <stop
         id="stop2583"
         style="stop-color:#b1b1b1;stop-opacity:1"
         offset="0" />
      <stop
         id="stop2585"
         style="stop-color:#ffffff;stop-opacity:1"
         offset="0.5" />
      <stop
         id="stop2587"
         style="stop-color:#8f8f8f;stop-opacity:1"
         offset="1" />
    </linearGradient>
    <linearGradient
       xlink:href="#linearGradient3240-686"
       id="linearGradient3165"
       gradientUnits="userSpaceOnUse"
       gradientTransform="matrix(1.2845298,-1.292589,1.7307208,1.7244601,-6.990323,-0.88698611)"
       x1="30.037716"
       y1="24.989594"
       x2="30.037716"
       y2="30.000141" />
    <linearGradient
       id="linearGradient3240-686">
      <stop
         id="stop2575"
         style="stop-color:#565656;stop-opacity:1"
         offset="0" />
      <stop
         id="stop2577"
         style="stop-color:#9a9a9a;stop-opacity:1"
         offset="0.5" />
      <stop
         id="stop2579"
         style="stop-color:#545454;stop-opacity:1"
         offset="1" />
    </linearGradient>
    <linearGradient
       xlink:href="#linearGradient3223-789"
       id="linearGradient3168"
       gradientUnits="userSpaceOnUse"
       gradientTransform="matrix(1.2845298,-1.292589,1.7307208,1.7244601,-8.636535,0.76956359)"
       x1="30.037716"
       y1="24.989594"
       x2="30.037716"
       y2="30.000141" />
    <linearGradient
       id="linearGradient3223-789">
      <stop
         id="stop2567"
         style="stop-color:#b1b1b1;stop-opacity:1"
         offset="0" />
      <stop
         id="stop2569"
         style="stop-color:#ffffff;stop-opacity:1"
         offset="0.5" />
      <stop
         id="stop2571"
         style="stop-color:#8f8f8f;stop-opacity:1"
         offset="1" />
    </linearGradient>
    <linearGradient
       xlink:href="#linearGradient3240-279"
       id="linearGradient3171"
       gradientUnits="userSpaceOnUse"
       gradientTransform="matrix(1.2845298,-1.292589,1.7307208,1.7244601,-8.268658,0.39938882)"
       x1="30.037716"
       y1="24.989594"
       x2="30.037716"
       y2="30.000141" />
    <linearGradient
       id="linearGradient3240-279">
      <stop
         id="stop2559"
         style="stop-color:#565656;stop-opacity:1"
         offset="0" />
      <stop
         id="stop2561"
         style="stop-color:#9a9a9a;stop-opacity:1"
         offset="0.5" />
      <stop
         id="stop2563"
         style="stop-color:#545454;stop-opacity:1"
         offset="1" />
    </linearGradient>
    <linearGradient
       xlink:href="#linearGradient3155-40"
       id="linearGradient3176"
       gradientUnits="userSpaceOnUse"
       gradientTransform="matrix(1.3218967,-1.3301921,1.4788456,1.4734965,-3.4244547,7.20589)"
       spreadMethod="pad"
       x1="23.575972"
       y1="25.356892"
       x2="23.575972"
       y2="31.210939" />
    <linearGradient
       id="linearGradient3155-40">
      <stop
         id="stop2541"
         style="stop-color:#181818;stop-opacity:1"
         offset="0" />
      <stop
         id="stop2543"
         style="stop-color:#dbdbdb;stop-opacity:1"
         offset="0.13482948" />
      <stop
         id="stop2545"
         style="stop-color:#a4a4a4;stop-opacity:1"
         offset="0.20224422" />
      <stop
         id="stop2547"
         style="stop-color:#ffffff;stop-opacity:1"
         offset="0.26965895" />
      <stop
         id="stop2549"
         style="stop-color:#8d8d8d;stop-opacity:1"
         offset="0.44650277" />
      <stop
         id="stop2551"
         style="stop-color:#959595;stop-opacity:1"
         offset="0.57114136" />
      <stop
         id="stop2553"
         style="stop-color:#cecece;stop-opacity:1"
         offset="0.72038066" />
      <stop
         id="stop2555"
         style="stop-color:#181818;stop-opacity:1"
         offset="1" />
    </linearGradient>
    <linearGradient
       xlink:href="#linearGradient3104"
       id="linearGradient3302"
       gradientUnits="userSpaceOnUse"
       gradientTransform="matrix(2.0133387,0,0,2.0160901,-0.6198015,-32.084117)"
       x1="22.004084"
       y1="44.854229"
       x2="22.004084"
       y2="3.0718794" />
    <linearGradient
       id="linearGradient3104">
      <stop
         id="stop3106"
         style="stop-color:#a0a0a0;stop-opacity:1"
         offset="0" />
      <stop
         id="stop3108"
         style="stop-color:#c8c8c8;stop-opacity:1"
         offset="1" />
    </linearGradient>
    <linearGradient
       xlink:href="#linearGradient3454"
       id="linearGradient3245-0"
       gradientUnits="userSpaceOnUse"
       gradientTransform="matrix(1.8642063,0,0,2.1974361,-91.617984,-33.837529)"
       x1="68.437271"
       y1="4.410717"
       x2="68.437271"
       y2="40.927929" />
    <linearGradient
       id="linearGradient3454">
      <stop
         id="stop3456"
         style="stop-color:#ffffff;stop-opacity:1;"
         offset="0" />
      <stop
         offset="0.0097359"
         style="stop-color:#ffffff;stop-opacity:0.23529412;"
         id="stop3458" />
      <stop
         id="stop3460"
         style="stop-color:#ffffff;stop-opacity:0.15686275;"
         offset="0.99001008" />
      <stop
         id="stop3462"
         style="stop-color:#ffffff;stop-opacity:0.39215687;"
         offset="1" />
    </linearGradient>
    <linearGradient
       id="linearGradient5048">
      <stop
         id="stop5050"
         style="stop-color:#000000;stop-opacity:0"
         offset="0" />
      <stop
         id="stop5056"
         style="stop-color:#000000;stop-opacity:1"
         offset="0.5" />
      <stop
         id="stop5052"
         style="stop-color:#000000;stop-opacity:0"
         offset="1" />
    </linearGradient>
    <linearGradient
       id="linearGradient5060">
      <stop
         id="stop5062"
         style="stop-color:#000000;stop-opacity:1"
         offset="0" />
      <stop
         id="stop5064"
         style="stop-color:#000000;stop-opacity:0"
         offset="1" />
    </linearGradient>
    <linearGradient
       id="linearGradient3600-9-2-6">
      <stop
         id="stop3602-3-2-9"
         style="stop-color:#f4f4f4;stop-opacity:1"
         offset="0" />
      <stop
         id="stop3604-7-9-5"
         style="stop-color:#dbdbdb;stop-opacity:1"
         offset="1" />
    </linearGradient>
    <linearGradient
       y2="48.545383"
       x2="25.132275"
       y1="2.3464241"
       x1="25.132275"
       gradientTransform="matrix(1.9999991,0,0,1.7817848,8.320971e-6,-29.497918)"
       gradientUnits="userSpaceOnUse"
       id="linearGradient3115"
       xlink:href="#linearGradient3600-9-2-6" />
    <linearGradient
       id="linearGradient3104-8-8-97">
      <stop
         id="stop3106-5-4-3"
         style="stop-color:#000000;stop-opacity:0.32173914;"
         offset="0" />
      <stop
         id="stop3108-4-3-7"
         style="stop-color:#000000;stop-opacity:0.27826086;"
         offset="1" />
    </linearGradient>
    <linearGradient
       y2="3.6336823"
       x2="-51.786404"
       y1="53.514328"
       x1="-51.786404"
       gradientTransform="matrix(1.6380663,0,0,1.6878211,119.83232,-32.062789)"
       gradientUnits="userSpaceOnUse"
       id="linearGradient3929"
       xlink:href="#linearGradient3104-8-8-97" />
    <radialGradient
       xlink:href="#linearGradient5060"
       id="radialGradient3949"
       gradientUnits="userSpaceOnUse"
       gradientTransform="matrix(0.04609,0,0,0.02490468,52.692275,44.720575)"
       cx="605.71429"
       cy="486.64789"
       fx="605.71429"
       fy="486.64789"
       r="117.14286" />
    <radialGradient
       xlink:href="#linearGradient5060"
       id="radialGradient3952"
       gradientUnits="userSpaceOnUse"
       gradientTransform="matrix(-0.04609,0,0,0.02490468,43.214653,44.720575)"
       cx="605.71429"
       cy="486.64789"
       fx="605.71429"
       fy="486.64789"
       r="117.14286" />
    <linearGradient
       xlink:href="#linearGradient5048"
       id="linearGradient3955"
       gradientUnits="userSpaceOnUse"
       gradientTransform="matrix(0.13467937,0,0,0.02490468,-0.7235046,44.720527)"
       x1="302.85715"
       y1="366.64789"
       x2="302.85715"
       y2="609.50507" />
  </defs>
  <metadata
     id="metadata3603">
    <rdf:RDF>
      <cc:Work
         rdf:about="">
        <dc:format>image/svg+xml</dc:format>
        <dc:type
           rdf:resource="http://purl.org/dc/dcmitype/StillImage" />
        <dc:title />
      </cc:Work>
    </rdf:RDF>
  </metadata>
  <g
     id="layer1"
     transform="translate(0,32)">
    <rect
       style="opacity:0.2;fill:url(#linearGradient3955);fill-opacity:1;fill-rule:nonzero;stroke:none;stroke-width:1.04588675;marker:none;visibility:visible;display:inline;overflow:visible"
       id="rect3706"
       y="53.851738"
       x="15.438021"
       height="6.0482645"
       width="65.030853" />
    <path
       style="opacity:0.2;fill:url(#radialGradient3952);fill-opacity:1;fill-rule:nonzero;stroke:none;stroke-width:1.04588675;marker:none;visibility:visible;display:inline;overflow:visible"
       id="path3708"
       d="m 15.438022,53.851992 c 0,0 0,6.047942 0,6.047942 C 13.064502,59.911224 9.7,58.5449 9.7,56.875582 c 0,-1.669325 2.648672,-3.023586 5.738022,-3.02359 z" />
    <path
       style="opacity:0.2;fill:url(#radialGradient3949);fill-opacity:1;fill-rule:nonzero;stroke:none;stroke-width:1.04588675;marker:none;visibility:visible;display:inline;overflow:visible"
       id="path3710"
       d="m 80.468915,53.851992 c 0,0 0,6.047942 0,6.047942 2.373521,0.01129 5.738016,-1.355034 5.738016,-3.024352 0,-1.669325 -2.64867,-3.023586 -5.738016,-3.02359 z" />
    <path
       style="color:#000000;fill:none;stroke:url(#linearGradient3929);stroke-width:0.99992204;stroke-linecap:butt;stroke-linejoin:round;stroke-miterlimit:4;stroke-opacity:1;stroke-dasharray:none;stroke-dashoffset:0;marker:none;visibility:visible;display:inline;overflow:visible;enable-background:accumulate"
       id="path2855-8"
       d="m 14.528591,-25.500039 66.944378,0 2.027068,83.000078 -71.000077,-0.04272 z" />
    <path
       style="color:#000000;fill:url(#linearGradient3115);fill-opacity:1;fill-rule:nonzero;stroke:none;stroke-width:0.99992174;marker:none;visibility:visible;display:inline;overflow:visible;enable-background:accumulate"
       id="path2855-7"
       d="M 15.000042,-25 81.001491,-25 83,57 13,56.957762 Z" />
    <path
       style="color:#000000;fill:none;stroke:url(#linearGradient3245-0);stroke-width:0.99999994;stroke-linecap:round;stroke-linejoin:miter;stroke-miterlimit:4;stroke-opacity:1;stroke-dasharray:none;stroke-dashoffset:0;marker:none;visibility:visible;display:inline;overflow:visible;enable-background:accumulate"
       id="path2855-3"
       d="m 15.483041,-24.500001 65.035671,0 1.969283,80.999693 -68.975736,-0.04174 z" />
    <path
       style="opacity:0.59069764;fill:#80b3ff;fill-rule:evenodd;stroke:#f6abab;stroke-width:0.75;stroke-linecap:round;stroke-linejoin:round;stroke-miterlimit:4;stroke-opacity:1;stroke-dasharray:none;display:inline"
       id="path5685"
       d="M 24.92461,-23.515964 24.043602,56.119785" />
    <g
       id="g4182"
       transform="matrix(0.99998074,-0.00620682,0.00620682,0.99998074,-0.12257318,0.2964509)">
      <path
         d="m 80.029445,-12.175238 -64.78986,-0.372031"
         id="path6656"
         style="opacity:0.43720931;fill:#80b3ff;fill-rule:evenodd;stroke:#80b3ff;stroke-width:0.5;stroke-linecap:round;stroke-linejoin:round;stroke-miterlimit:4;stroke-opacity:1;stroke-dasharray:none;display:inline" />
      <path
         d="M 80.178451,-8.1430631 15.22226,-8.515098"
         id="path6658"
         style="opacity:0.43720931;fill:#80b3ff;fill-rule:evenodd;stroke:#80b3ff;stroke-width:0.5;stroke-linecap:round;stroke-linejoin:round;stroke-miterlimit:4;stroke-opacity:1;stroke-dasharray:none;display:inline" />
      <path
         d="M 80.344789,-4.1108852 15.055927,-4.4829143"
         id="path6660"
         style="opacity:0.43720931;fill:#80b3ff;fill-rule:evenodd;stroke:#80b3ff;stroke-width:0.5;stroke-linecap:round;stroke-linejoin:round;stroke-miterlimit:4;stroke-opacity:1;stroke-dasharray:none;display:inline" />
      <path
         d="M 80.511122,-0.07869934 14.889587,-0.450738"
         id="path6662"
         style="opacity:0.43720931;fill:#80b3ff;fill-rule:evenodd;stroke:#80b3ff;stroke-width:0.5;stroke-linecap:round;stroke-linejoin:round;stroke-miterlimit:4;stroke-opacity:1;stroke-dasharray:none;display:inline" />
      <path
         d="M 80.511123,3.9534768 14.889587,3.5814405"
         id="path6664"
         style="opacity:0.43720931;fill:#80b3ff;fill-rule:evenodd;stroke:#80b3ff;stroke-width:0.5;stroke-linecap:round;stroke-linejoin:round;stroke-miterlimit:4;stroke-opacity:1;stroke-dasharray:none;display:inline" />
      <path
         d="M 80.677455,7.9856552 14.723251,7.6136159"
         id="path6666"
         style="opacity:0.43720931;fill:#80b3ff;fill-rule:evenodd;stroke:#80b3ff;stroke-width:0.5;stroke-linecap:round;stroke-linejoin:round;stroke-miterlimit:4;stroke-opacity:1;stroke-dasharray:none;display:inline" />
      <path
         d="M 80.677455,12.017834 14.723251,11.645802"
         id="path7637"
         style="opacity:0.43720931;fill:#80b3ff;fill-opacity:1;fill-rule:evenodd;stroke:#80b3ff;stroke-width:0.5;stroke-linecap:round;stroke-linejoin:round;stroke-miterlimit:4;stroke-opacity:1;stroke-dasharray:none;stroke-dashoffset:0;marker:none;visibility:visible;display:inline;overflow:visible;enable-background:accumulate" />
      <path
         d="M 80.84379,16.05001 14.55693,15.67797"
         id="path7639"
         style="opacity:0.43720931;fill:#80b3ff;fill-opacity:1;fill-rule:evenodd;stroke:#80b3ff;stroke-width:0.5;stroke-linecap:round;stroke-linejoin:round;stroke-miterlimit:4;stroke-opacity:1;stroke-dasharray:none;stroke-dashoffset:0;marker:none;visibility:visible;display:inline;overflow:visible;enable-background:accumulate" />
      <path
         d="M 80.843785,20.082193 14.556931,19.710156"
         id="path7641"
         style="opacity:0.43720931;fill:#80b3ff;fill-opacity:1;fill-rule:evenodd;stroke:#80b3ff;stroke-width:0.5;stroke-linecap:round;stroke-linejoin:round;stroke-miterlimit:4;stroke-opacity:1;stroke-dasharray:none;stroke-dashoffset:0;marker:none;visibility:visible;display:inline;overflow:visible;enable-background:accumulate" />
      <path
         d="M 81.176464,24.114372 14.224255,23.742343"
         id="path7645"
         style="opacity:0.43720931;fill:#80b3ff;fill-opacity:1;fill-rule:evenodd;stroke:#80b3ff;stroke-width:0.5;stroke-linecap:round;stroke-linejoin:round;stroke-miterlimit:4;stroke-opacity:1;stroke-dasharray:none;stroke-dashoffset:0;marker:none;visibility:visible;display:inline;overflow:visible;enable-background:accumulate" />
      <path
         d="M 81.176464,28.124638 14.224253,27.752594"
         id="path7647"
         style="opacity:0.43720931;fill:#80b3ff;fill-opacity:1;fill-rule:evenodd;stroke:#80b3ff;stroke-width:0.5;stroke-linecap:round;stroke-linejoin:round;stroke-miterlimit:4;stroke-opacity:1;stroke-dasharray:none;stroke-dashoffset:0;marker:none;visibility:visible;display:inline;overflow:visible;enable-background:accumulate" />
      <path
         d="M 81.675464,32.178722 13.725256,31.806692"
         id="path7649"
         style="opacity:0.43720931;fill:#80b3ff;fill-opacity:1;fill-rule:evenodd;stroke:#80b3ff;stroke-width:0.5;stroke-linecap:round;stroke-linejoin:round;stroke-miterlimit:4;stroke-opacity:1;stroke-dasharray:none;stroke-dashoffset:0;marker:none;visibility:visible;display:inline;overflow:visible;enable-background:accumulate" />
      <path
         d="M 81.675464,36.121051 13.725256,35.749007"
         id="path7651"
         style="opacity:0.43720931;fill:#80b3ff;fill-opacity:1;fill-rule:evenodd;stroke:#80b3ff;stroke-width:0.5;stroke-linecap:round;stroke-linejoin:round;stroke-miterlimit:4;stroke-opacity:1;stroke-dasharray:none;stroke-dashoffset:0;marker:none;visibility:visible;display:inline;overflow:visible;enable-background:accumulate" />
      <path
         d="M 81.675461,40.119241 13.725257,39.747218"
         id="path7653"
         style="opacity:0.43720931;fill:#80b3ff;fill-opacity:1;fill-rule:evenodd;stroke:#80b3ff;stroke-width:0.5;stroke-linecap:round;stroke-linejoin:round;stroke-miterlimit:4;stroke-opacity:1;stroke-dasharray:none;stroke-dashoffset:0;marker:none;visibility:visible;display:inline;overflow:visible;enable-background:accumulate" />
      <path
         d="M 81.675464,44.117453 13.725256,43.74541"
         id="path7655"
         style="opacity:0.43720931;fill:#80b3ff;fill-opacity:1;fill-rule:evenodd;stroke:#80b3ff;stroke-width:0.5;stroke-linecap:round;stroke-linejoin:round;stroke-miterlimit:4;stroke-opacity:1;stroke-dasharray:none;stroke-dashoffset:0;marker:none;visibility:visible;display:inline;overflow:visible;enable-background:accumulate" />
      <path
         d="M 81.675461,48.11566 13.725257,47.743632"
         id="path7657"
         style="opacity:0.43720931;fill:#80b3ff;fill-opacity:1;fill-rule:evenodd;stroke:#80b3ff;stroke-width:0.5;stroke-linecap:round;stroke-linejoin:round;stroke-miterlimit:4;stroke-opacity:1;stroke-dasharray:none;stroke-dashoffset:0;marker:none;visibility:visible;display:inline;overflow:visible;enable-background:accumulate" />
      <path
         d="M 81.675461,52.339615 13.725257,51.967588"
         id="path7659"
         style="opacity:0.43720931;fill:#80b3ff;fill-opacity:1;fill-rule:evenodd;stroke:#80b3ff;stroke-width:0.5;stroke-linecap:round;stroke-linejoin:round;stroke-miterlimit:4;stroke-opacity:1;stroke-dasharray:none;stroke-dashoffset:0;marker:none;visibility:visible;display:inline;overflow:visible;enable-background:accumulate" />
    </g>
    <path
       style="opacity:0.59069764;fill:none;stroke:#b9d5ff;stroke-width:0.75;stroke-linecap:round;stroke-linejoin:round;stroke-miterlimit:4;stroke-opacity:1;stroke-dasharray:none;display:inline"
       id="path7671"
       d="m 70.35044,-23.682526 2.113013,79.635749" />
    <path
       style="fill:none;stroke:url(#linearGradient3302);stroke-width:1;stroke-linecap:butt;stroke-linejoin:miter;stroke-opacity:1;stroke-miterlimit:4;stroke-dasharray:none"
       id="path3715"
       d="m 25.551472,-8.901786 4.727264,0 m 0.675324,0 4.389597,0 m 0.706601,0 3.91687,0 m 0.64405,0 1.688305,0 m 0.67533,0 3.781809,0 m 0.742855,0 9.927255,0 m 0.67532,0 7.563622,0 m 0.675322,0 2.296099,0 m -43.085623,4.5363906 7.329833,0 m 0.852773,0 3.502362,0 m 0.647444,0 1.728349,0 m 0.703206,0 3.226177,0 m 0.675332,0 3.308618,0 m 0.624548,0 5.195304,0 m 0.675335,0 6.853824,0 m -35.323105,4.51624729 6.203966,0 m 0.651722,0 10.217376,0 m 0.626206,0 4.955199,0 m 0.635121,0 4.635535,0 m 0.664764,0 3.948796,0 m 0.635126,0 6.210472,0.0402393 m -39.384283,4.51624651 8.625855,0 m 0.677348,0 9.322941,0 m 0.644053,0 3.663585,0 m 0.675325,0 8.720036,0 m 0.586909,0 5.976679,0 m 0.675325,0 2.365487,0 m 0.675334,0 1.308442,0 m -43.917319,4.536388 3.219808,0 m 0.989246,0 11.921989,0 m -16.131043,19.6576763 7.329833,0 m 0.852773,0 3.502362,0 m 0.647444,0 1.728349,0 m 0.703206,0 3.226177,0 m 0.675332,0 3.308618,0 m 0.624548,0 5.195304,0 m -27.793946,5.986658 6.203966,0 m 0.651722,0 10.217376,0 m 0.626206,0 4.955199,0 m 17.510618,0.123723 10.120854,0 m -50.285941,-10.64673 8.625855,0 m 0.677348,0 9.322941,0 m 0.644053,0 3.663585,0 m 0.675325,0 8.720036,0 m -32.329143,-9.072778 4.727264,0 m 0.675324,0 4.389597,0 m 0.706601,0 3.91687,0 m 0.64405,0 1.688305,0 m 0.67533,0 3.781809,0 m 0.742855,0 9.927255,0 m 0.67532,0 7.563622,0 m -40.114202,4.536383 7.96132,0 m 0.626232,0 8.453918,0 m 0.644056,0 3.30577,0 m 0.624197,0 7.953263,0 m 0.638022,0 8.685953,0 m -38.892731,19.658403 7.439699,0 m 0.798623,0 3.279963,0 m 0.768246,0 1.635952,0 m 0.520758,0 3.229472,0 m 0.428742,0 17.097442,0 m 0.804509,0 4.564006,0 m 0.613686,0 1.152373,0 m -33.857828,4.535642 2.42686,0 m -10.902503,0 7.765214,0 m 3.757956,0 5.646517,0 m 0.597297,0 8.288723,0 m 0.644056,0 5.622969,0 m 0.566036,0 1.158693,0 m 0.633565,0 7.140183,0 m 0.72998,0 3.738251,0 m -37.813797,4.536392 3.426607,0 m -11.90225,0 7.765214,0 m 4.879626,0 4.817449,0" />
    <g
       id="g4181"
       transform="translate(0.4,0.7)">
      <path
         d="m 76.366285,15.234337 c -0.34883,-0.20562 -0.618739,-0.152136 -0.797049,-0.03772 L 51.819647,30.340299 47.448591,33.135326 47.314089,33.191896 42.139,44.869165 54.964266,45.256 55.070772,45.18479 59.469948,42.4046 83.213595,27.130284 C 83.92683,26.672602 82.79878,23.639566 80.683084,20.314608 79.096304,17.820903 77.41284,15.851304 76.366348,15.234443 l 0,0 z"
         id="path2422"
         style="opacity:0.15;fill:#0c0c0c;fill-opacity:1;fill-rule:evenodd;stroke:none" />
      <path
         d="m 48.815786,29.716085 c 0.897792,-0.674622 3.416851,0.590843 5.731753,2.897384 2.30937,2.301012 3.526209,4.763216 2.867769,5.67102 -0.0016,0.0023 0.05667,0.05053 0.05411,0.05392 L 89.703039,5.9024667 C 90.521432,5.0789493 89.249878,2.4765181 86.861481,0.09676379 84.473085,-2.2829964 81.867837,-3.5433575 81.049444,-2.7198381 L 48.815791,29.716078 Z"
         id="rect2383"
         style="fill:url(#linearGradient3176);fill-opacity:1;stroke:#0c0c0c;stroke-width:0.49999994;stroke-linecap:butt;stroke-linejoin:round;stroke-miterlimit:4;stroke-opacity:1;stroke-dasharray:none;stroke-dashoffset:0" />
      <path
         d="m 77.115568,1.2387325 c 0.897799,-0.67461302 3.416852,0.5908528 5.731761,2.8973838 2.309362,2.3010115 3.526207,4.7632158 2.867755,5.6710287 -0.0016,0.00225 0.05667,0.050397 0.05411,0.053979 1.293912,-1.28361 2.901799,-2.7976255 4.006933,-4.0463316 C 90.434545,4.9069274 89.170831,2.3978492 86.861466,0.09683797 84.546565,-2.2096924 82.027512,-3.4751608 81.129722,-2.8005394 l -0.08028,0.080739 -3.933876,3.9585599 8e-6,0 z"
         id="rect3175"
         style="opacity:0.8;fill:#ffb6ed;fill-opacity:1;stroke:#e28ccd;stroke-width:0.49999994;stroke-linecap:butt;stroke-linejoin:round;stroke-miterlimit:4;stroke-opacity:1;stroke-dasharray:none;stroke-dashoffset:0" />
      <path
         d="m 48.815797,29.716056 c 0.89779,-0.674617 3.416852,0.590844 5.731754,2.897378 2.309372,2.301014 3.526208,4.76321 2.867763,5.671032 -0.0016,0.0023 0.05668,0.05053 0.05412,0.05392 l 22.198277,-22.337533 0.0803,-0.08078 c 0.0017,-0.0023 -0.0566,-0.05046 -0.0541,-0.05392 0.658406,-0.907809 -0.558428,-3.370019 -2.867793,-5.671024 C 74.51118,7.8885887 71.992117,6.6231239 71.094324,7.2977443 l -0.0803,0.08072 -22.198263,22.3375407 -8e-6,0 z"
         id="path3208"
         style="opacity:0.6;fill:#0c0c0c;fill-opacity:1;stroke:none" />
      <path
         d="m 72.706197,5.6757809 c 0.897788,-0.6746216 3.416847,0.5908476 5.73175,2.8973779 2.30937,2.3010132 3.526208,4.7632092 2.867759,5.6710272 -0.0016,0.0023 0.0567,0.05049 0.05412,0.05393 L 81.76124,13.89416 C 81.76294,13.89186 81.70459,13.8437 81.70712,13.84024 82.36557,12.932432 81.14873,10.470222 78.839357,8.1692183 76.524466,5.8626906 74.005405,4.5972197 73.107615,5.2718431 l -0.401414,0.4039334 0,3.4e-6 z"
         id="path3233"
         style="fill:url(#linearGradient3171);fill-opacity:1;stroke:none" />
      <path
         d="m 72.338325,6.0459577 c 0.897792,-0.674629 3.416851,0.5908494 5.731746,2.897381 2.309382,2.3010043 3.526213,4.7632023 2.867772,5.6710193 -0.0016,0.0023 0.05663,0.0505 0.05412,0.05392 l 0.401414,-0.403931 c 0.0017,-0.0023 -0.0566,-0.05046 -0.05412,-0.05397 C 81.997706,13.302583 80.780865,10.840389 78.47149,8.5393732 76.156591,6.2328388 73.63753,4.9673735 72.739738,5.6419895 l -0.40141,0.4039327 0,1.4e-6 z"
         id="path3216"
         style="fill:url(#linearGradient3168);fill-opacity:1;stroke:none" />
      <path
         d="m 73.98454,4.3894012 c 0.897793,-0.6746151 3.416855,0.590847 5.731764,2.8973827 2.309361,2.3010096 3.526195,4.7632121 2.867758,5.6710251 -0.0016,0.0023 0.05665,0.05048 0.05412,0.05396 l 0.401417,-0.403946 c 0.0017,-0.0023 -0.05652,-0.05044 -0.05411,-0.05397 C 83.643923,11.646048 82.42709,9.1838454 80.117712,6.8828309 77.80281,4.5763057 75.283756,3.3108415 74.385963,3.9854541 l -0.401422,0.4039366 0,0 z"
         id="path3248"
         style="fill:url(#linearGradient3165);fill-opacity:1;stroke:none" />
      <path
         d="m 73.616668,4.7595836 c 0.897791,-0.6746131 3.416856,0.5908497 5.731758,2.8973781 2.30937,2.3010149 3.52621,4.7632193 2.867763,5.6710253 -0.0016,0.0023 0.05662,0.05053 0.0541,0.05391 l 0.401408,-0.403927 c 0.0017,-0.0023 -0.05659,-0.05046 -0.0541,-0.05392 C 83.27605,12.016224 82.059221,9.5540204 79.749842,7.2530151 77.434943,4.946485 74.915882,3.6810167 74.018087,4.3556331 l -0.40142,0.4039378 z"
         id="path3250"
         style="fill:url(#linearGradient3162);fill-opacity:1;stroke:none" />
      <path
         d="m 75.26908,3.0968149 c 0.897786,-0.6746168 3.41684,0.5908559 5.73175,2.8973737 2.309363,2.3010188 3.526202,4.7632214 2.86775,5.6710284 -0.0016,0.0023 0.05666,0.05048 0.0541,0.05397 l 0.401397,-0.403939 c 0.0017,-0.0023 -0.05661,-0.05038 -0.05411,-0.05394 C 84.928404,10.353489 83.711562,7.8912796 81.402197,5.5902648 79.087292,3.2837375 76.568235,2.0182719 75.67044,2.6928893 l -0.401415,0.4039324 10e-7,0 z"
         id="path3256"
         style="fill:url(#linearGradient3159);fill-opacity:1;stroke:none" />
      <path
         d="m 74.901202,3.4669954 c 0.897781,-0.6746188 3.416853,0.5908532 5.731761,2.8973834 2.309357,2.3010036 3.526194,4.7632152 2.867754,5.6710262 -0.0016,0.0023 0.05664,0.05044 0.05411,0.05392 L 83.956245,11.6854 c 0.0017,-0.0023 -0.05658,-0.05042 -0.0541,-0.05392 C 84.560602,10.723671 83.343767,8.2614556 81.034391,5.9604488 78.71949,3.6539218 76.200433,2.3884514 75.302644,3.0630687 l -0.401419,0.403937 0,0 z"
         id="path3258"
         style="fill:url(#linearGradient3156);fill-opacity:1;stroke:none" />
      <path
         d="m 42.638657,44.397056 14.664623,-5.989478 0.125,-0.125188 c 0.658427,-0.907796 -0.574272,-3.370189 -2.883649,-5.67122 -2.314899,-2.306533 -4.83098,-3.564998 -5.72877,-2.890386 l -6.177167,14.6762 -1.2e-5,0 z"
         id="path3270"
         style="fill:url(#linearGradient3151);fill-opacity:1;fill-rule:evenodd;stroke:url(#linearGradient3153);stroke-width:0.49999994;stroke-linecap:butt;stroke-linejoin:miter;stroke-miterlimit:4;stroke-opacity:1;stroke-dasharray:none" />
      <path
         d="m 44.311884,40.422135 -1.674122,3.959213 3.999775,-1.641979 c -0.320576,-0.384505 -0.616521,-0.775064 -1.001416,-1.158568 -0.443122,-0.441513 -0.878963,-0.799757 -1.324237,-1.158666 z"
         id="path3281"
         style="fill:#0c0c0c;fill-opacity:1;fill-rule:evenodd;stroke:#0c0c0c;stroke-width:0.49999994;stroke-linecap:butt;stroke-linejoin:miter;stroke-miterlimit:4;stroke-opacity:1;stroke-dasharray:none" />
    </g>
  </g>
</svg>
