<?xml version="1.0" encoding="UTF-8" standalone="no"?>
<svg
   xmlns:dc="http://purl.org/dc/elements/1.1/"
   xmlns:cc="http://creativecommons.org/ns#"
   xmlns:rdf="http://www.w3.org/1999/02/22-rdf-syntax-ns#"
   xmlns:svg="http://www.w3.org/2000/svg"
   xmlns="http://www.w3.org/2000/svg"
   xmlns:xlink="http://www.w3.org/1999/xlink"
   version="1.1"
   id="svg4228"
   height="96"
   width="96">
  <defs
     id="defs4230">
    <linearGradient
       gradientTransform="matrix(1.8087495,0,0,1.9519653,5.5135853,-45.581671)"
       y2="6"
       x2="25"
       y1="45"
       x1="25"
       gradientUnits="userSpaceOnUse"
       id="linearGradient4019"
       xlink:href="#linearGradient3707-319-631-407-324-41-523-319-700-849-809-394-658-263" />
    <linearGradient
       id="linearGradient3707-319-631-407-324-41-523-319-700-849-809-394-658-263">
      <stop
         id="stop6695"
         style="stop-color:#13315d;stop-opacity:1;"
         offset="0" />
      <stop
         id="stop6697"
         style="stop-color:#404e90;stop-opacity:1;"
         offset="1" />
    </linearGradient>
    <linearGradient
       xlink:href="#linearGradient3924"
       id="linearGradient2959"
       gradientUnits="userSpaceOnUse"
       gradientTransform="matrix(2.1891903,0,0,2.1891876,-4.5405386,-52.540533)"
       x1="23.99999"
       y1="4.999989"
       x2="23.99999"
       y2="43" />
    <linearGradient
       id="linearGradient3924">
      <stop
         offset="0"
         style="stop-color:#ffffff;stop-opacity:1;"
         id="stop3926" />
      <stop
         id="stop3928"
         style="stop-color:#ffffff;stop-opacity:0.23529412;"
         offset="0.06316455" />
      <stop
         offset="0.95056331"
         style="stop-color:#ffffff;stop-opacity:0.15686275;"
         id="stop3930" />
      <stop
         offset="1"
         style="stop-color:#ffffff;stop-opacity:0.39215687;"
         id="stop3932" />
    </linearGradient>
    <linearGradient
       gradientTransform="matrix(1.6565513,0,0,1.8811983,9.9375274,-42.653894)"
       y2="6"
       x2="25"
       y1="45"
       x1="25"
       gradientUnits="userSpaceOnUse"
       id="linearGradient4013"
       xlink:href="#linearGradient3707-319-631-407-324-41-523-319-700-849-809-394-658-263-8" />
    <linearGradient
       id="linearGradient3707-319-631-407-324-41-523-319-700-849-809-394-658-263-8">
      <stop
         id="stop6695-4"
         style="stop-color:#13315d;stop-opacity:1;"
         offset="0" />
      <stop
         id="stop6697-2"
         style="stop-color:#404e90;stop-opacity:1;"
         offset="1" />
    </linearGradient>
    <linearGradient
       gradientTransform="matrix(1.7340165,0,0,1.9147319,7.6725815,-44.162879)"
       y2="6"
       x2="25"
       y1="45"
       x1="25"
       gradientUnits="userSpaceOnUse"
       id="linearGradient4016"
       xlink:href="#linearGradient3707-319-631-407-324-41-523-319-700-849-809-394-658-263-7" />
    <linearGradient
       id="linearGradient3707-319-631-407-324-41-523-319-700-849-809-394-658-263-7">
      <stop
         id="stop6695-0"
         style="stop-color:#13315d;stop-opacity:1;"
         offset="0" />
      <stop
         id="stop6697-6"
         style="stop-color:#404e90;stop-opacity:1;"
         offset="1" />
    </linearGradient>
    <radialGradient
       r="19.99999"
       fy="8.4497671"
       fx="7.4956832"
       cy="8.4497671"
       cx="7.4956832"
       gradientTransform="matrix(4.134777e-8,4.9735923,-5.2614714,-9.163255e-8,92.45856,-77.540313)"
       gradientUnits="userSpaceOnUse"
       id="radialGradient2874-8-294-836-962-955-927-928-503-91"
       xlink:href="#linearGradient2867-449-88-871-390-598-476-591-434-148-57-177-55-47-104-185-932-323-597-112-181" />
    <linearGradient
       id="linearGradient2867-449-88-871-390-598-476-591-434-148-57-177-55-47-104-185-932-323-597-112-181">
      <stop
         id="stop6685"
         style="stop-color:#819bd8;stop-opacity:1"
         offset="0" />
      <stop
         id="stop6687"
         style="stop-color:#6282cd;stop-opacity:1;"
         offset="0.26238" />
      <stop
         id="stop6689"
         style="stop-color:#365baf;stop-opacity:1"
         offset="0.704952" />
      <stop
         id="stop6691"
         style="stop-color:#253e79;stop-opacity:1;"
         offset="1" />
    </linearGradient>
    <linearGradient
       y2="3.8990016"
       x2="24"
       y1="44"
       x1="24"
       gradientTransform="matrix(2.1282059,0,0,2.128204,-3.0768313,-51.076529)"
       gradientUnits="userSpaceOnUse"
       id="linearGradient2876-727-161-532-369-556-351-512-535-128"
       xlink:href="#linearGradient3707-319-631-407-324-41-523-319-700-849-809-394-658-263" />
    <radialGradient
       xlink:href="#linearGradient3688-166-749"
       id="radialGradient3013"
       gradientUnits="userSpaceOnUse"
       gradientTransform="matrix(2.003784,0,0,1.4,27.98813,-17.4)"
       cx="4.9929786"
       cy="43.5"
       fx="4.9929786"
       fy="43.5"
       r="2.5" />
    <linearGradient
       id="linearGradient3688-166-749">
      <stop
         offset="0"
         style="stop-color:#181818;stop-opacity:1"
         id="stop2883" />
      <stop
         offset="1"
         style="stop-color:#181818;stop-opacity:0"
         id="stop2885" />
    </linearGradient>
    <radialGradient
       xlink:href="#linearGradient3688-464-309"
       id="radialGradient3015"
       gradientUnits="userSpaceOnUse"
       gradientTransform="matrix(2.003784,0,0,1.4,-20.01187,-104.4)"
       cx="4.9929786"
       cy="43.5"
       fx="4.9929786"
       fy="43.5"
       r="2.5" />
    <linearGradient
       id="linearGradient3688-464-309">
      <stop
         offset="0"
         style="stop-color:#181818;stop-opacity:1"
         id="stop2889" />
      <stop
         offset="1"
         style="stop-color:#181818;stop-opacity:0"
         id="stop2891" />
    </linearGradient>
    <linearGradient
       id="linearGradient3702-501-757">
      <stop
         offset="0"
         style="stop-color:#181818;stop-opacity:0"
         id="stop2895" />
      <stop
         offset="0.5"
         style="stop-color:#181818;stop-opacity:1"
         id="stop2897" />
      <stop
         offset="1"
         style="stop-color:#181818;stop-opacity:0"
         id="stop2899" />
    </linearGradient>
    <linearGradient
       xlink:href="#linearGradient3702-501-757"
       id="linearGradient4226"
       gradientUnits="userSpaceOnUse"
       x1="25.058096"
       y1="47.027729"
       x2="25.058096"
       y2="39.999443" />
  </defs>
  <metadata
     id="metadata4233">
    <rdf:RDF>
      <cc:Work
         rdf:about="">
        <dc:format>image/svg+xml</dc:format>
        <dc:type
           rdf:resource="http://purl.org/dc/dcmitype/StillImage" />
        <dc:title />
      </cc:Work>
    </rdf:RDF>
  </metadata>
  <g
     transform="translate(0,48)"
     id="layer1">
    <g
       style="opacity:0.4"
       id="g3712"
       transform="matrix(2.4645,0,0,1.2162263,-11.1435,-12.469637)">
      <rect
         style="fill:url(#radialGradient3013);fill-opacity:1;stroke:none"
         id="rect2801"
         y="40"
         x="38"
         height="7"
         width="5" />
      <rect
         style="fill:url(#radialGradient3015);fill-opacity:1;stroke:none"
         id="rect3696"
         transform="scale(-1,-1)"
         y="-47"
         x="-10"
         height="7"
         width="5" />
      <rect
         style="fill:url(#linearGradient4226);fill-opacity:1;stroke:none"
         id="rect3700"
         y="40"
         x="10"
         height="7.0000005"
         width="28" />
    </g>
    <rect
       style="color:#000000;fill:url(#radialGradient2874-8-294-836-962-955-927-928-503-91);fill-opacity:1;fill-rule:nonzero;stroke:url(#linearGradient2876-727-161-532-369-556-351-512-535-128);stroke-width:0.99999863;stroke-linecap:round;stroke-linejoin:round;stroke-miterlimit:4;stroke-opacity:1;stroke-dasharray:none;stroke-dashoffset:0;marker:none;visibility:visible;display:inline;overflow:visible;enable-background:accumulate"
       id="rect5505-21"
       y="-41.499592"
       x="6.5000906"
       ry="4.2564082"
       rx="4.2564116"
       height="83"
       width="83" />
    <path
       id="rect7275"
       d="m 7,25 0,3.000003 0,7.125023 0,2.874992 C 7,39.661993 8.4436312,41 10.236837,41 l 75.52632,0 C 87.556364,41 89,39.661993 89,38.000018 L 89,35.125026 89,28.000003 89,25 85.763157,25 10.236837,25 7,25 Z"
       style="opacity:0.3;color:#000000;fill:#ffffff;fill-opacity:1;fill-rule:nonzero;stroke:none;stroke-width:1;marker:none;visibility:visible;display:inline;overflow:visible;enable-background:accumulate" />
    <path
       id="path3957-2"
       d="m 61.968931,-30.984837 c -7.702403,0.18819 -11.53582,4.589306 -13.276036,12.132305 C 48.008556,-15.361034 48,-11.519314 48,-9 45.65569,-8.971112 45.134693,-9 41.857143,-9 40.871855,-9 40.02825,-8.4892176 40.02825,-7.2437537 40.172486,-4.8530859 40,0.6837973 40,3.5 c 0,3.3837475 0.554757,2.4586696 3,2.5 1.944177,0.032861 3.418678,0 5,0 l 0,7 c 0.06397,9.135819 -0.09889,17.172748 0,26.307418 0,2.196831 0.172908,1.982389 0.801271,2.692582 l 14.8475,0 C 64.201886,41.095686 64,39.839336 64,38 L 64,6 71.5,6 C 74.057599,6 74.642732,6.4853292 75.074,3.4525753 75.380253,0.09243356 75.79673,-3.9216469 76.1,-6.7 76.311213,-9.7191879 75.649321,-9 70,-9 l -5.735562,0 c 0.18786,-2.250399 0.343333,-7.110901 3.235562,-7 l 6.9,0 c 0.799749,0.05086 1.649581,0.18647 1.6,-1.2 0.04709,-2.373936 -0.104234,-9.269288 0,-12.5 0,-0.811507 -0.255437,-1.265056 -1.2,-1.28479 l -11.63889,0 c -0.406428,-0.01252 -0.787177,-0.02681 -1.192152,0 z"
       style="opacity:0.1;color:#000000;fill:url(#linearGradient4016);fill-opacity:1;fill-rule:nonzero;stroke:none;stroke-width:0.98542738;marker:none;visibility:visible;display:inline;overflow:visible;enable-background:accumulate" />
    <path
       id="path3957-4"
       d="m 70.764025,-31.914246 c -2.875567,0 -5.191381,-0.08237 -7.816845,-0.08237 -6.619416,0 -13.483472,2.153257 -15.56318,14.503774 C 47.020901,-15.304431 47,-13.024791 47,-10 c -7.011029,0 -7.97741,-0.461024 -7.97741,3.969 -0.0092,4.2267737 -0.0025,6.23119599 -0.02258,10.231 0,2.4905487 0.799862,2.8 2.79999,2.8 L 47,7 c 0.05502,9.196632 0,23.447601 0,33 0,1.061943 0.0028,1.202846 0.0028,2 L 65,42 65,39.399737 65,7 c 4.168709,0 9.300701,0.6689677 10.060803,-0.6385993 1.262267,-3.1545342 1.568632,-8.6108596 1.963518,-12.5400316 0.113863,-2.1948061 -0.445603,-2.8468427 -1.621882,-3.8878571 -1.477582,-0.19202 -8.607879,0.511217 -9.875943,0.06649 0.03598,-3.427914 1.04169,-4.927005 2.920833,-5 l 6.309011,0 c 2.43543,0 2.090678,-0.858723 2.24366,-2.2869 0,-3.044219 -0.0042,-9.551587 -0.0042,-12.1981 0.101023,-3.185981 -1.558886,-2.494126 -6.23207,-2.429212 z"
       style="opacity:0.05;color:#000000;fill:url(#linearGradient4013);fill-opacity:1;fill-rule:nonzero;stroke:none;stroke-width:0.98542738;marker:none;visibility:visible;display:inline;overflow:visible;enable-background:accumulate" />
    <rect
       style="opacity:0.5;fill:none;stroke:url(#linearGradient2959);stroke-width:0.99999887;stroke-linecap:round;stroke-linejoin:round;stroke-miterlimit:4;stroke-opacity:1;stroke-dasharray:none;stroke-dashoffset:0"
       id="rect6741"
       y="-40.5"
       x="7.4999995"
       ry="2.5471041"
       rx="2.6523404"
       height="81"
       width="81" />
    <path
       id="path3957"
       d="m 63,-29.965958 c -5.433767,0 -10.721093,2.005733 -12.78913,9.475658 -1.22344,3.849008 -1.198971,8.459597 -1.23078,12.4903 L 42.3,-8 c -1.895357,0.020918 -1.219029,0.8069454 -1.28221,4.8348414 0,2.43724353 0.02614,3.98781849 -0.01779,6.7301586 0,2.0410915 0.01732,1.3096976 1.985,1.483 L 49,5 c 0.06661,10.732263 -0.09116,24.268605 0,35 0,1 0,2 2,2 l 10,0 c 2,0 2,-1 2,-2 C 63.01786,29.792751 62.98164,15.207238 63,5 66,5 70.923417,5 73,4.967723 74.303046,5 73.949492,3.5454314 74.209353,1.51219 74.545431,-1.2525381 74.790099,-3.3416602 75.109518,-6.7088629 75.257069,-8.2178113 74.984876,-8.0262567 73.5,-8 L 63,-8 c 0.259492,-3.172654 0.247959,-9 4.351612,-9 3.066895,0.02314 5.645412,0 7.648388,0 0,-2.673869 -0.02712,-1.210794 0,-4.12046 L 75,-30 c -1.818275,0 -1.079175,0 -5,0 -2.1483,0.03169 -4.711218,-0.06554 -7,0.03404 z"
       style="opacity:0.25;color:#000000;fill:url(#linearGradient4019);fill-opacity:1;fill-rule:nonzero;stroke:none;stroke-width:0.98542738;marker:none;visibility:visible;display:inline;overflow:visible;enable-background:accumulate" />
    <path
       id="path7296"
       d="m 50.499933,40.507286 11,0 0,-37.007286 11.000051,0 0.999998,-9.977775 -12.000048,0 c 0,-13.581679 3.442249,-11.95738 12.000043,-11.95738 l 1.4e-5,-10.072132 -9.709951,0 c -13.237179,0 -13.290212,11.251049 -13.290212,22.029512 l -7.999894,0 0,9.977775 8,0 z"
       style="color:#000000;fill:#f7f7f7;fill-opacity:1;fill-rule:nonzero;stroke:#ffffff;stroke-width:0.98542726;stroke-linecap:butt;stroke-linejoin:miter;stroke-miterlimit:4;stroke-opacity:1;stroke-dasharray:none;stroke-dashoffset:0;marker:none;visibility:visible;display:inline;overflow:visible;enable-background:accumulate" />
  </g>
</svg>
