<?xml version="1.0" encoding="UTF-8" standalone="no"?>
<svg
   xmlns:dc="http://purl.org/dc/elements/1.1/"
   xmlns:cc="http://creativecommons.org/ns#"
   xmlns:rdf="http://www.w3.org/1999/02/22-rdf-syntax-ns#"
   xmlns:svg="http://www.w3.org/2000/svg"
   xmlns="http://www.w3.org/2000/svg"
   xmlns:xlink="http://www.w3.org/1999/xlink"
   width="96"
   height="96"
   id="svg4032"
   version="1.1">
  <defs
     id="defs4034">
    <linearGradient
       id="linearGradient3895-9-0-3">
      <stop
         offset="0"
         style="stop-color:#dc5639;stop-opacity:1;"
         id="stop3897-0-5-7" />
      <stop
         offset="1"
         style="stop-color:#9d0f0f;stop-opacity:1;"
         id="stop3899-8-7-06" />
    </linearGradient>
    <linearGradient
       xlink:href="#linearGradient3924"
       id="linearGradient2959"
       gradientUnits="userSpaceOnUse"
       gradientTransform="matrix(2.1891893,0,0,2.1891893,-4.540534,-52.540524)"
       x1="23.99999"
       y1="4.999989"
       x2="23.99999"
       y2="43" />
    <linearGradient
       id="linearGradient3924">
      <stop
         offset="0"
         style="stop-color:#ffffff;stop-opacity:1;"
         id="stop3926" />
      <stop
         id="stop3928"
         style="stop-color:#ffffff;stop-opacity:0.23529412;"
         offset="0.06316455" />
      <stop
         offset="0.95056331"
         style="stop-color:#ffffff;stop-opacity:0.15686275;"
         id="stop3930" />
      <stop
         offset="1"
         style="stop-color:#ffffff;stop-opacity:0.39215687;"
         id="stop3932" />
    </linearGradient>
    <linearGradient
       xlink:href="#linearGradient8265-821-176-38-919-66-249-7-7"
       id="linearGradient3568"
       gradientUnits="userSpaceOnUse"
       gradientTransform="matrix(1.7802207,0,0,2.8193394,5.1914247,-57.104663)"
       x1="16.626165"
       y1="15.298182"
       x2="20.054544"
       y2="24.627615" />
    <linearGradient
       id="linearGradient8265-821-176-38-919-66-249-7-7">
      <stop
         offset="0"
         style="stop-color:#e77e71;stop-opacity:1;"
         id="stop2687-1-9" />
      <stop
         offset="1"
         style="stop-color:#ffdf80;stop-opacity:0.375;"
         id="stop2689-5-4" />
    </linearGradient>
    <radialGradient
       r="19.99999"
       fy="8.4497671"
       fx="7.4956832"
       cy="8.4497671"
       cx="7.4956832"
       gradientTransform="matrix(4.1347764e-8,4.9735944,-5.2614696,-9.1632588e-8,92.458431,-77.540728)"
       gradientUnits="userSpaceOnUse"
       id="radialGradient2874"
       xlink:href="#linearGradient4644-104-3-3-6-2" />
    <linearGradient
       id="linearGradient4644-104-3-3-6-2">
      <stop
         id="stop5237-6-5-1-7"
         style="stop-color:#e44532;stop-opacity:1;"
         offset="0" />
      <stop
         id="stop5239-4-6-4-8"
         style="stop-color:#dd4b39;stop-opacity:1;"
         offset="1" />
    </linearGradient>
    <linearGradient
       y2="43.2943"
       x2="13.990655"
       y1="3.9626207"
       x1="13.990655"
       gradientTransform="matrix(2.1282052,0,0,2.1282052,-3.0769204,-51.076923)"
       gradientUnits="userSpaceOnUse"
       id="linearGradient2876"
       xlink:href="#linearGradient3895-9-0-3" />
    <radialGradient
       xlink:href="#linearGradient3688-166-749"
       id="radialGradient3013"
       gradientUnits="userSpaceOnUse"
       gradientTransform="matrix(2.003784,0,0,1.4,27.98813,-17.4)"
       cx="4.9929786"
       cy="43.5"
       fx="4.9929786"
       fy="43.5"
       r="2.5" />
    <linearGradient
       id="linearGradient3688-166-749">
      <stop
         offset="0"
         style="stop-color:#181818;stop-opacity:1"
         id="stop2883" />
      <stop
         offset="1"
         style="stop-color:#181818;stop-opacity:0"
         id="stop2885" />
    </linearGradient>
    <radialGradient
       xlink:href="#linearGradient3688-464-309"
       id="radialGradient3015"
       gradientUnits="userSpaceOnUse"
       gradientTransform="matrix(2.003784,0,0,1.4,-20.01187,-104.4)"
       cx="4.9929786"
       cy="43.5"
       fx="4.9929786"
       fy="43.5"
       r="2.5" />
    <linearGradient
       id="linearGradient3688-464-309">
      <stop
         offset="0"
         style="stop-color:#181818;stop-opacity:1"
         id="stop2889" />
      <stop
         offset="1"
         style="stop-color:#181818;stop-opacity:0"
         id="stop2891" />
    </linearGradient>
    <linearGradient
       id="linearGradient3702-501-757">
      <stop
         offset="0"
         style="stop-color:#181818;stop-opacity:0"
         id="stop2895" />
      <stop
         offset="0.5"
         style="stop-color:#181818;stop-opacity:1"
         id="stop2897" />
      <stop
         offset="1"
         style="stop-color:#181818;stop-opacity:0"
         id="stop2899" />
    </linearGradient>
    <linearGradient
       y2="39.999443"
       x2="25.058096"
       y1="47.027729"
       x1="25.058096"
       gradientUnits="userSpaceOnUse"
       id="linearGradient4030"
       xlink:href="#linearGradient3702-501-757" />
  </defs>
  <metadata
     id="metadata4037">
    <rdf:RDF>
      <cc:Work
         rdf:about="">
        <dc:format>image/svg+xml</dc:format>
        <dc:type
           rdf:resource="http://purl.org/dc/dcmitype/StillImage" />
        <dc:title />
      </cc:Work>
    </rdf:RDF>
  </metadata>
  <g
     id="layer1"
     transform="translate(0,48)">
    <g
       style="opacity:0.6"
       id="g3712"
       transform="matrix(2.3684211,0,0,1.0714285,-8.8421055,-5.85714)">
      <rect
         style="fill:url(#radialGradient3013);fill-opacity:1;stroke:none"
         id="rect2801"
         y="40"
         x="38"
         height="7"
         width="5" />
      <rect
         style="fill:url(#radialGradient3015);fill-opacity:1;stroke:none"
         id="rect3696"
         transform="scale(-1,-1)"
         y="-47"
         x="-10"
         height="7"
         width="5" />
      <rect
         style="fill:url(#linearGradient4030);fill-opacity:1;stroke:none"
         id="rect3700"
         y="40"
         x="10"
         height="7.0000005"
         width="28" />
    </g>
    <rect
       style="color:#000000;display:inline;overflow:visible;visibility:visible;fill:url(#radialGradient2874);fill-opacity:1;fill-rule:nonzero;stroke:url(#linearGradient2876);stroke-width:1;stroke-linecap:round;stroke-linejoin:round;stroke-miterlimit:4;stroke-dasharray:none;stroke-dashoffset:0;stroke-opacity:1;marker:none;enable-background:accumulate"
       id="rect5505-21"
       y="-41.5"
       x="6.5"
       ry="4.5"
       rx="4.5"
       height="83"
       width="83" />
    <path
       style="opacity:0.4;fill:url(#linearGradient3568);fill-opacity:1;fill-rule:evenodd;stroke:none"
       id="path3333"
       d="M 7,-37 7.027286,11 C 9.3862265,10.94764 87.209511,-8.1682997 89,-9.0877972 L 89,-37.1 C 89,-39 87,-41 84.985,-41 l -73.959,0 C 8.1,-41 7,-38.9 7,-37 Z" />
    <path
       id="path3873"
       d="m 41.615387,-31.923077 c -2.128206,-0.02207 -17.025642,0 -17.025642,17.025642 0,8.5128211 6.384616,12.7692319 14.897436,12.7692319 -2.128205,6.3846154 2.128206,8.51282 -1.915802,8.6347531 0,0 -19.366251,2.006273 -19.366251,14.775504 0,8.512822 9.759524,10.641026 17.025644,10.641026 11.522527,0 21.28205,-4.256411 21.28205,-14.897437 C 56.512822,6.3846169 45.871798,6.3846169 45.871798,1.5e-6 l 0,-2.0672388 c 0,0 8.760649,-3.4283213 10.641024,-12.8301977 2.128205,-10.641026 -6.384616,-12.769231 -6.384616,-12.769231 l 2.128206,0 c 4.25641,0 6.996058,-4.073509 6.996058,-4.073509 z m 4.256411,27.6666677 C 33.102565,1.5e-6 24.589745,-23.410256 35.230772,-27.666666 45.871798,-31.923077 58.641027,-8.51282 45.871798,-4.2564093 Z M 37.358976,10.641028 c 6.384614,0 17.894628,2.518437 12.76923,12.769231 -4.256408,8.512821 -25.538461,6.384617 -25.538461,-4.25641 0,-6.384617 6.384616,-8.512821 12.769231,-8.512821 z"
       style="opacity:0.25;fill:none;fill-opacity:1;stroke:#8e1a1a;stroke-width:2;stroke-miterlimit:4;stroke-dasharray:none;stroke-opacity:1" />
    <path
       style="fill:#ffffff;fill-opacity:1;stroke:none"
       d="m 41.615387,-31.923078 c -2.128204,-0.02207 -17.025643,0 -17.025643,17.025642 0,8.5128222 6.384617,12.769233 14.897439,12.769233 -2.128206,6.3846155 2.128204,8.5128201 -1.915803,8.6347532 0,0 -19.366251,2.0062718 -19.366251,14.7755058 0,8.51282 9.759524,10.641025 17.025643,10.641025 11.522529,0 21.282051,-4.25641 21.282051,-14.897438 C 56.512823,6.3846171 45.871798,6.3846171 45.871798,1.6e-6 l 0,-2.0672388 c 0,0 8.760651,-3.4283213 10.641025,-12.8301988 2.128206,-10.641026 -6.384615,-12.769231 -6.384615,-12.769231 l 2.128206,0 c 4.256409,0 6.996058,-4.073509 6.996058,-4.073509 z m 4.256411,27.6666688 C 33.102566,1.6e-6 24.589744,-23.410257 35.230772,-27.666667 45.871798,-31.923078 58.641029,-8.5128185 45.871798,-4.2564092 Z M 37.358977,10.641028 c 6.384615,0 17.894629,2.518437 12.769231,12.769232 -4.25641,8.512821 -25.538464,6.384616 -25.538464,-4.256412 0,-6.384615 6.384617,-8.51282 12.769233,-8.51282 z"
       id="path3817" />
    <rect
       style="opacity:0.5;fill:none;stroke:url(#linearGradient2959);stroke-width:1;stroke-linecap:round;stroke-linejoin:round;stroke-miterlimit:4;stroke-dasharray:none;stroke-dashoffset:0;stroke-opacity:1"
       id="rect6741"
       y="-40.5"
       x="7.5000005"
       ry="3.5"
       rx="3.5"
       height="81"
       width="81" />
    <path
       id="path3869"
       d="m 58.999862,-2 7.999862,0 2.76e-4,-8 4,0 -2.76e-4,8 8.000137,0 2.76e-4,4 L 71,2 l 0,8 -4,0 0,-8 -7.999863,0 z"
       style="opacity:0.25;fill:none;fill-opacity:1;stroke:#8e1a1a;stroke-width:1.99999988;stroke-miterlimit:4;stroke-dasharray:none;stroke-opacity:1" />
    <path
       style="fill:#ffffff;fill-opacity:1;stroke:none"
       d="M 59.000138,-2 67,-2 l 0,-8 4,0 0,8 8.000138,0 0,4 L 71,2 l 0,8 -4,0 0,-8 -7.999862,0 z"
       id="path3825" />
  </g>
</svg>
