<?xml version="1.0" encoding="UTF-8" standalone="no"?>
<svg
   width="96"
   height="96"
   id="svg3958"
   version="1.1"
   sodipodi:docname="io.github.Hexchat.svg"
   inkscape:version="1.2.2 (b0a8486541, 2022-12-01)"
   xmlns:inkscape="http://www.inkscape.org/namespaces/inkscape"
   xmlns:sodipodi="http://sodipodi.sourceforge.net/DTD/sodipodi-0.dtd"
   xmlns:xlink="http://www.w3.org/1999/xlink"
   xmlns="http://www.w3.org/2000/svg"
   xmlns:svg="http://www.w3.org/2000/svg"
   xmlns:rdf="http://www.w3.org/1999/02/22-rdf-syntax-ns#"
   xmlns:cc="http://creativecommons.org/ns#"
   xmlns:dc="http://purl.org/dc/elements/1.1/">
  <sodipodi:namedview
     id="namedview9648"
     pagecolor="#ffffff"
     bordercolor="#000000"
     borderopacity="0.25"
     inkscape:showpageshadow="2"
     inkscape:pageopacity="0.0"
     inkscape:pagecheckerboard="0"
     inkscape:deskcolor="#d1d1d1"
     showgrid="false"
     inkscape:zoom="8.375"
     inkscape:cx="43.880597"
     inkscape:cy="48.119403"
     inkscape:window-width="1278"
     inkscape:window-height="1005"
     inkscape:window-x="506"
     inkscape:window-y="20"
     inkscape:window-maximized="0"
     inkscape:current-layer="layer1" />
  <defs
     id="defs3960">
    <linearGradient
       id="linearGradient8838">
      <stop
         id="stop8840"
         style="stop-color:#000000;stop-opacity:1"
         offset="0" />
      <stop
         id="stop8842"
         style="stop-color:#000000;stop-opacity:0"
         offset="1" />
    </linearGradient>
    <radialGradient
       xlink:href="#linearGradient2867-449-88-871-390-598-476-591-434-148-905-902-285-933"
       id="radialGradient3881"
       gradientUnits="userSpaceOnUse"
       gradientTransform="matrix(0,3.5697573,-2.9430151,0,60.195034,-97.809346)"
       cx="20.248743"
       cy="4.9115634"
       fx="20.248743"
       fy="4.9115634"
       r="23" />
    <radialGradient
       xlink:href="#linearGradient3725-941-985-508-595-572-135-693"
       id="radialGradient3878"
       gradientUnits="userSpaceOnUse"
       gradientTransform="matrix(0.65227745,-0.46058458,0.24039033,0.35192904,-49.900064,77.746784)"
       cx="90.746872"
       cy="32.164093"
       fx="90.746872"
       fy="32.164093"
       r="23" />
    <linearGradient
       xlink:href="#linearGradient3882"
       id="linearGradient3875"
       gradientUnits="userSpaceOnUse"
       gradientTransform="matrix(2.0003158,0,0,2.0509916,-0.10884668,-32.174527)"
       x1="23.184526"
       y1="4.0244036"
       x2="23.184526"
       y2="42.351448" />
    <linearGradient
       id="linearGradient3882">
      <stop
         id="stop3884"
         style="stop-color:#ffffff;stop-opacity:1;"
         offset="0" />
      <stop
         offset="0.4393521"
         style="stop-color:#ffffff;stop-opacity:0.23529412;"
         id="stop3886" />
      <stop
         id="stop3888"
         style="stop-color:#ffffff;stop-opacity:0.15686275;"
         offset="0.83473867" />
      <stop
         id="stop3890"
         style="stop-color:#ffffff;stop-opacity:0.39215687;"
         offset="1" />
    </linearGradient>
    <radialGradient
       r="10.625"
       fy="4.625"
       fx="62.625"
       cy="4.625"
       cx="62.625"
       gradientTransform="matrix(4.4470591,0,0,1.5358329,-230.60157,40.453156)"
       gradientUnits="userSpaceOnUse"
       id="radialGradient3948"
       xlink:href="#linearGradient8838" />
    <linearGradient
       id="linearGradient5108">
      <stop
         offset="0"
         style="stop-color:#ffed8c;stop-opacity:1"
         id="stop5110" />
      <stop
         offset="0.60000002"
         style="stop-color:#fb9858;stop-opacity:1"
         id="stop5112" />
      <stop
         offset="1"
         style="stop-color:#dc572a;stop-opacity:1"
         id="stop5114" />
    </linearGradient>
    <linearGradient
       id="linearGradient3725-941-985-508-595-572-135-693">
      <stop
         offset="0"
         style="stop-color:#ffffff;stop-opacity:1"
         id="stop4418" />
      <stop
         offset="1"
         style="stop-color:#ededed;stop-opacity:0"
         id="stop4420" />
    </linearGradient>
    <linearGradient
       id="linearGradient2867-449-88-871-390-598-476-591-434-148-905-902-285-933">
      <stop
         offset="0"
         style="stop-color:#ffffff;stop-opacity:1"
         id="stop4146" />
      <stop
         offset="0.26238"
         style="stop-color:#ffffff;stop-opacity:1"
         id="stop4148" />
      <stop
         offset="0.704952"
         style="stop-color:#cfd3d6;stop-opacity:1"
         id="stop4150" />
      <stop
         offset="1"
         style="stop-color:#919dab;stop-opacity:1"
         id="stop4152" />
    </linearGradient>
    <radialGradient
       xlink:href="#linearGradient5108"
       id="radialGradient3120"
       gradientUnits="userSpaceOnUse"
       gradientTransform="matrix(1.5245547e-7,5.8206114,-4.9172526,1.3390136e-7,96.732342,-158.33284)"
       cx="23.187857"
       cy="10.205709"
       fx="23.187857"
       fy="10.205709"
       r="11.171996" />
  </defs>
  <metadata
     id="metadata3963">
    <rdf:RDF>
      <cc:Work
         rdf:about="">
        <dc:format>image/svg+xml</dc:format>
        <dc:type
           rdf:resource="http://purl.org/dc/dcmitype/StillImage" />
      </cc:Work>
    </rdf:RDF>
  </metadata>
  <g
     id="layer1"
     transform="translate(0,32)">
    <path
       style="opacity:0.3;fill:url(#radialGradient3948);fill-opacity:1;fill-rule:evenodd;stroke:none;stroke-width:0.99999988;marker:none;visibility:visible;display:inline;overflow:visible"
       id="path8836"
       d="m 95.145545,47.556389 c 0,9.012331 -21.154553,16.318247 -47.25,16.318247 -26.095448,0 -47.24999956,-7.305916 -47.24999956,-16.318247 0,-9.012315 21.15455156,-16.31824 47.24999956,-16.31824 26.095447,0 47.25,7.305925 47.25,16.31824 l 0,0 z" />
    <path
       style="fill:url(#radialGradient3881);fill-opacity:1;fill-rule:evenodd;stroke:#000000;stroke-width:0.99999958;stroke-linecap:butt;stroke-linejoin:round;stroke-miterlimit:4;stroke-opacity:0.2;stroke-dasharray:none;stroke-dashoffset:0;marker:none;visibility:visible;display:inline;overflow:visible"
       id="path6145"
       d="M 41.697162,-23.923656 C 18.919518,-20.499585 2.0654318,-4.4977573 3.5968095,12.827987 4.5884421,24.047104 13.033661,33.281403 25.110637,38.15356 l -4.066523,16.156529 c 0,0 -0.433945,1.512582 0.188914,2.046926 0.622847,0.534331 2.122955,-0.598384 2.122955,-0.598384 l 19.015004,-14.022074 0.154165,-0.01439 c 2.752161,0.134148 5.517095,0.1786 8.386306,-0.08833 C 75.395347,39.356311 94.01044,22.744565 92.403734,4.5667361 90.797045,-13.611098 69.572975,-26.516784 45.08909,-24.239187 c -1.14769,0.106769 -2.271721,0.14714 -3.391928,0.315541 z" />
    <path
       style="fill:url(#radialGradient3878);fill-opacity:1;fill-rule:evenodd;stroke:none;stroke-width:0.99525028;marker:none;visibility:visible;display:inline;overflow:visible"
       id="path3845"
       d="m 54.040836,-23.911309 c -2.89997,-0.168378 -5.859848,-0.09262 -8.905896,0.189967 -1.189538,0.110344 -2.300098,0.157271 -3.363057,0.316607 -11.309658,1.695299 -21.124231,6.504783 -27.900982,12.980846 C 7.0941614,-3.9478464 3.3501355,4.1796847 4.0931109,12.561683 5.0552753,23.41649 13.25975,32.741437 25.203677,37.54621 c 0.429696,0.160746 0.446322,0.689055 0.335511,1.140736 -5.744045,23.097227 -3.975213,16.873364 -3.905533,17.280913 3.094056,-1.373321 12.707093,-9.265622 20.200496,-15.038289 0.150388,-0.0907 0.323572,-0.134717 0.498246,-0.126647 l 0.124543,0 c 0.02077,-7.35e-4 0.04157,-7.35e-4 0.06234,0 2.746158,0.133449 5.507505,0.136596 8.345375,-0.12664 12.161224,-1.128096 22.849326,-5.816904 30.267543,-12.410952 7.418204,-6.59404 11.553798,-15.077479 10.774241,-23.872077 -0.682046,-7.6946843 -5.02247,-14.426344 -11.770726,-19.439602 -6.74824,-5.013234 -15.927612,-8.274605 -26.094877,-8.864961 z" />
    <path
       style="opacity:0.4;fill:none;stroke:url(#linearGradient3875);stroke-width:0.99999952;stroke-linecap:butt;stroke-linejoin:miter;stroke-miterlimit:4;stroke-opacity:1;stroke-dasharray:none;stroke-dashoffset:0;marker:none;visibility:visible;display:inline;overflow:visible"
       d="m 49.152459,-23.48823 c -1.335536,0.03994 -2.667603,0.122497 -3.997882,0.246937 -1.030791,0.09638 -2.07675,0.143922 -3.082705,0.296324 C 21.649397,-19.850959 3.3094192,-5.6426869 4.5770399,12.492723 5.40127,24.284698 14.881319,32.937177 26.498662,37.695908 L 21.93331,55.378099 42.018653,40.701986 c 2.470871,0.11008 5.870529,0.162039 8.450527,-0.0422 C 72.315723,38.93019 93.042021,23.489479 91.410353,5.040846 89.780476,-13.602502 69.190016,-24.087509 49.152459,-23.48823 Z"
       id="path6179" />
    <path
       d="M 32.214703,-10.933644 25.946016,-2.0556731 41.321071,9.2310565 30.251655,24.907959 38.958672,31.299732 50.028059,15.622818 65.403117,26.909552 71.671821,18.031588 56.296761,6.7448622 67.366182,-8.9320579 58.65916,-15.32381 47.58974,0.35309492 32.214704,-10.933644 Z"
       id="path5116"
       style="fill:#ca6006;fill-opacity:1;fill-rule:evenodd;stroke:none" />
    <path
       d="M 32.214703,-6.7603881 25.946016,2.1175762 41.321071,13.404303 30.251655,29.081216 38.958672,35.472977 50.028059,19.796074 65.403117,31.082805 71.671821,22.204843 56.296761,10.918118 67.366182,-4.7587954 58.65916,-11.150571 47.58974,4.526344 32.214704,-6.7603881 Z"
       id="path5120"
       style="opacity:0.4;fill:#ffffff;fill-opacity:1;fill-rule:evenodd;stroke:none" />
    <path
       d="M 32.214703,-8.8470214 25.946016,0.03095101 41.321071,11.317675 30.251655,26.994586 38.958672,33.386345 50.028059,17.709446 65.403117,28.99618 71.671821,20.118215 56.296761,8.8314875 67.366182,-6.8454221 58.65916,-13.237185 47.58974,2.439718 32.214704,-8.8470214 Z"
       id="path5098"
       style="fill:url(#radialGradient3120);fill-opacity:1;fill-rule:evenodd;stroke:none" />
  </g>
</svg>
