<?xml version="1.0" encoding="UTF-8" standalone="no"?>
<svg
   version="1.1"
   width="96"
   height="96"
   id="svg2981"
   sodipodi:docname="org.xfce.workspaces.svg"
   inkscape:version="1.1.2 (0a00cf5339, 2022-02-04)"
   xmlns:inkscape="http://www.inkscape.org/namespaces/inkscape"
   xmlns:sodipodi="http://sodipodi.sourceforge.net/DTD/sodipodi-0.dtd"
   xmlns:xlink="http://www.w3.org/1999/xlink"
   xmlns="http://www.w3.org/2000/svg"
   xmlns:svg="http://www.w3.org/2000/svg"
   xmlns:rdf="http://www.w3.org/1999/02/22-rdf-syntax-ns#"
   xmlns:cc="http://creativecommons.org/ns#"
   xmlns:dc="http://purl.org/dc/elements/1.1/">
  <sodipodi:namedview
     id="namedview52"
     pagecolor="#ffffff"
     bordercolor="#666666"
     borderopacity="1.0"
     inkscape:pageshadow="2"
     inkscape:pageopacity="0.0"
     inkscape:pagecheckerboard="0"
     showgrid="false"
     inkscape:zoom="5.6568546"
     inkscape:cx="56.480151"
     inkscape:cy="37.123104"
     inkscape:window-width="1317"
     inkscape:window-height="893"
     inkscape:window-x="414"
     inkscape:window-y="135"
     inkscape:window-maximized="0"
     inkscape:current-layer="layer1"
     showguides="false" />
  <metadata
     id="metadata96081">
    <rdf:RDF>
      <cc:Work
         rdf:about="">
        <dc:format>image/svg+xml</dc:format>
        <dc:type
           rdf:resource="http://purl.org/dc/dcmitype/StillImage" />
      </cc:Work>
    </rdf:RDF>
  </metadata>
  <defs
     id="defs2983">
    <linearGradient
       inkscape:collect="always"
       id="linearGradient3302">
      <stop
         style="stop-color:#3689e6;stop-opacity:1;"
         offset="0"
         id="stop3298" />
      <stop
         style="stop-color:#64baff;stop-opacity:1"
         offset="1"
         id="stop3300" />
    </linearGradient>
    <linearGradient
       x1="12.9375"
       y1="8.4375"
       x2="15.25"
       y2="19.8125"
       id="linearGradient2900"
       xlink:href="#linearGradient6592-2-7-4-6-2-3"
       gradientUnits="userSpaceOnUse"
       gradientTransform="matrix(2.1904763,0,0,2.6666647,-4.5714287,4.9741083e-6)" />
    <linearGradient
       id="linearGradient6592-2-7-4-6-2-3">
      <stop
         id="stop6594-0-2-6-7-7-8"
         style="stop-color:#ffffff;stop-opacity:0.30000001"
         offset="0" />
      <stop
         id="stop6596-2-5-9-6-0-5"
         style="stop-color:#ffffff;stop-opacity:0"
         offset="1" />
    </linearGradient>
    <linearGradient
       x1="15.573899"
       y1="46.971004"
       x2="23.593679"
       y2="46.971004"
       id="linearGradient2878"
       xlink:href="#linearGradient3342"
       gradientUnits="userSpaceOnUse"
       gradientTransform="matrix(2.3299441,0,0,2.074595,-6.9512873,-9.9458105)"
       spreadMethod="reflect" />
    <linearGradient
       id="linearGradient3342">
      <stop
         id="stop3344"
         style="stop-color:#ffffff;stop-opacity:0"
         offset="0" />
      <stop
         id="stop3346"
         style="stop-color:#ffffff;stop-opacity:1"
         offset="1" />
    </linearGradient>
    <linearGradient
       x1="318.42093"
       y1="93.290146"
       x2="318.42093"
       y2="79.201828"
       id="linearGradient2881"
       xlink:href="#linearGradient4510"
       gradientUnits="userSpaceOnUse"
       gradientTransform="matrix(3.0026614,0,0,1.4596314,-912.654,-48.919635)" />
    <linearGradient
       id="linearGradient4510">
      <stop
         id="stop4512"
         style="stop-color:#a5a6aa;stop-opacity:1"
         offset="0" />
      <stop
         id="stop4514"
         style="stop-color:#e2e2e4;stop-opacity:1"
         offset="0.23813619" />
      <stop
         id="stop4516"
         style="stop-color:#595959;stop-opacity:1"
         offset="1" />
    </linearGradient>
    <linearGradient
       x1="24.687456"
       y1="40.812702"
       x2="24.739107"
       y2="33.999802"
       id="linearGradient2883"
       xlink:href="#linearGradient4518"
       gradientUnits="userSpaceOnUse"
       gradientTransform="matrix(2.2916708,0,0,2.0605576,-7.0001746,0.9263066)" />
    <linearGradient
       id="linearGradient4518">
      <stop
         id="stop4520"
         style="stop-color:#7e7e7e;stop-opacity:0.94901961"
         offset="0" />
      <stop
         id="stop4522"
         style="stop-color:#969696;stop-opacity:1"
         offset="1" />
    </linearGradient>
    <linearGradient
       id="linearGradient10691-1">
      <stop
         id="stop10693-3"
         style="stop-color:#000000;stop-opacity:1"
         offset="0" />
      <stop
         id="stop10695-1"
         style="stop-color:#000000;stop-opacity:0"
         offset="1" />
    </linearGradient>
    <radialGradient
       cx="6.702713"
       cy="73.615715"
       r="7.228416"
       fx="6.702713"
       fy="73.615715"
       id="radialGradient2979"
       xlink:href="#linearGradient10691-1"
       gradientUnits="userSpaceOnUse"
       gradientTransform="matrix(3.8736014,0,0,0.8300574,22.036364,25.89473)" />
    <linearGradient
       inkscape:collect="always"
       xlink:href="#linearGradient3302"
       id="linearGradient3304"
       x1="23.506626"
       y1="37.059093"
       x2="23.506626"
       y2="20.199186"
       gradientUnits="userSpaceOnUse"
       gradientTransform="matrix(2.047619,0,0,2.0357142,-1.142856,-1.2142863)" />
  </defs>
  <g
     id="layer1">
    <path
       d="M 76,87 C 76,90.31371 63.463972,93 47.999998,93 32.536025,93 20,90.31371 20,87 20,83.686292 32.536025,81 47.999998,81 63.463972,81 76,83.686292 76,87 Z"
       id="path2589"
       style="display:inline;overflow:visible;visibility:visible;opacity:0.4;fill:url(#radialGradient2979);fill-opacity:1;fill-rule:nonzero;stroke:none;stroke-width:0.8;marker:none" />
    <path
       d="m 35.395736,71.5 c 0,0 0.291005,8.773379 -1.160442,10.818326 -1.451449,2.044947 -4.339566,2.0688 -4.339566,2.0688 -1.853297,0.214838 -1.868628,4.112873 0,4.112873 h 36.208399 c 1.868627,0 1.853684,-3.900775 0,-4.112873 0,0 -2.887994,-0.02385 -4.339422,-2.0688 C 60.313278,80.273383 60.604117,71.5 60.604117,71.5 Z"
       id="rect1789"
       style="display:inline;fill:url(#linearGradient2881);fill-opacity:1;stroke:url(#linearGradient2883);stroke-width:1;stroke-linecap:round;stroke-linejoin:round;stroke-miterlimit:4;stroke-dasharray:none;stroke-dashoffset:0.5;stroke-opacity:1;enable-background:new" />
    <path
       d="M 30.499999,87.499999 H 65.468631"
       id="path3340"
       style="fill:none;stroke:url(#linearGradient2878);stroke-width:0.999999px;stroke-linecap:square;stroke-linejoin:miter;stroke-opacity:1" />
    <rect
       width="94.999763"
       height="65.999763"
       rx="2.1111174"
       ry="2.0000074"
       x="0.50011581"
       y="6.5001206"
       id="rect2722"
       style="fill:#1a1a1a;fill-opacity:1;stroke:#000000;stroke-width:1.00024;stroke-linecap:round;stroke-linejoin:round;stroke-miterlimit:4;stroke-dasharray:none;stroke-dashoffset:0.5;stroke-opacity:1" />
    <path
       d="m 5,11 c 16.823032,0 69.176969,8.3e-5 86,8.3e-5 C 91,31.428033 91,48.764239 91,68 66.528426,68 29.471573,68 5,68 5,39.499987 5,39.50001 5,11 Z"
       id="path4322"
       style="display:inline;fill:url(#linearGradient3304);fill-opacity:1;stroke:none;stroke-width:0.999917;stroke-linecap:butt;stroke-linejoin:round;stroke-miterlimit:4;stroke-dasharray:none;stroke-dashoffset:0;stroke-opacity:1" />
    <path
       d="M 2,8 H 94 V 32.000001 L 2,56 Z"
       id="rect6588"
       style="fill:url(#linearGradient2900);fill-opacity:1;stroke:none;stroke-width:1"
       sodipodi:nodetypes="ccccc" />
    <rect
       style="fill:#ffffff;fill-opacity:1;stroke:none;stroke-width:0.999996;stroke-linecap:butt;stroke-linejoin:round;stroke-miterlimit:4;stroke-dasharray:none;stroke-dashoffset:0;stroke-opacity:1"
       id="rect2180"
       width="8.000001"
       height="2.0000002"
       x="19.999994"
       y="18" />
    <rect
       style="fill:#ffffff;fill-opacity:1;stroke:none;stroke-width:0.999996;stroke-linecap:butt;stroke-linejoin:round;stroke-miterlimit:4;stroke-dasharray:none;stroke-dashoffset:0;stroke-opacity:1"
       id="rect2306"
       width="8.000001"
       height="2.0000002"
       x="31.999994"
       y="18" />
    <rect
       style="fill:#ffffff;fill-opacity:1;stroke:none;stroke-width:0.999996;stroke-linecap:butt;stroke-linejoin:round;stroke-miterlimit:4;stroke-dasharray:none;stroke-dashoffset:0;stroke-opacity:1"
       id="rect2312"
       width="8.000001"
       height="2.0000002"
       x="56"
       y="18" />
    <rect
       style="fill:#ffffff;fill-opacity:1;stroke:none;stroke-width:0.999996;stroke-linecap:butt;stroke-linejoin:round;stroke-miterlimit:4;stroke-dasharray:none;stroke-dashoffset:0;stroke-opacity:1"
       id="rect2314"
       width="8.000001"
       height="2.0000002"
       x="68"
       y="18" />
    <rect
       style="fill:#ffffff;fill-opacity:1;stroke:none;stroke-width:0.999996;stroke-linecap:butt;stroke-linejoin:round;stroke-miterlimit:4;stroke-dasharray:none;stroke-dashoffset:0;stroke-opacity:1"
       id="rect2328"
       width="8.000001"
       height="2.0000002"
       x="19.999994"
       y="60" />
    <rect
       style="fill:#ffffff;fill-opacity:1;stroke:none;stroke-width:0.999996;stroke-linecap:butt;stroke-linejoin:round;stroke-miterlimit:4;stroke-dasharray:none;stroke-dashoffset:0;stroke-opacity:1"
       id="rect2330"
       width="8.000001"
       height="2.0000002"
       x="31.999994"
       y="60" />
    <rect
       style="fill:#ffffff;fill-opacity:1;stroke:none;stroke-width:0.999996;stroke-linecap:butt;stroke-linejoin:round;stroke-miterlimit:4;stroke-dasharray:none;stroke-dashoffset:0;stroke-opacity:1"
       id="rect2336"
       width="8.000001"
       height="2.0000002"
       x="56"
       y="60" />
    <rect
       style="fill:#ffffff;fill-opacity:1;stroke:none;stroke-width:0.999996;stroke-linecap:butt;stroke-linejoin:round;stroke-miterlimit:4;stroke-dasharray:none;stroke-dashoffset:0;stroke-opacity:1"
       id="rect2338"
       width="8.000001"
       height="2.0000002"
       x="68"
       y="60" />
    <rect
       style="fill:#ffffff;fill-opacity:1;stroke:none;stroke-width:0.999996;stroke-linecap:butt;stroke-linejoin:round;stroke-miterlimit:4;stroke-dasharray:none;stroke-dashoffset:0;stroke-opacity:1"
       id="rect2340"
       width="8.000001"
       height="2.0000002"
       x="18"
       y="-21.999994"
       transform="rotate(90)" />
    <rect
       style="fill:#ffffff;fill-opacity:1;stroke:none;stroke-width:0.999996;stroke-linecap:butt;stroke-linejoin:round;stroke-miterlimit:4;stroke-dasharray:none;stroke-dashoffset:0;stroke-opacity:1"
       id="rect2342"
       width="8.000001"
       height="2.0000002"
       x="29.999998"
       y="-21.999994"
       transform="rotate(90)" />
    <rect
       style="fill:#ffffff;fill-opacity:1;stroke:none;stroke-width:0.999996;stroke-linecap:butt;stroke-linejoin:round;stroke-miterlimit:4;stroke-dasharray:none;stroke-dashoffset:0;stroke-opacity:1"
       id="rect2344"
       width="8.000001"
       height="2.0000002"
       x="42"
       y="-21.999994"
       transform="rotate(90)" />
    <rect
       style="fill:#ffffff;fill-opacity:1;stroke:none;stroke-width:0.999996;stroke-linecap:butt;stroke-linejoin:round;stroke-miterlimit:4;stroke-dasharray:none;stroke-dashoffset:0;stroke-opacity:1"
       id="rect2346"
       width="8.000001"
       height="2.0000002"
       x="54"
       y="-21.999994"
       transform="rotate(90)" />
    <rect
       style="fill:#ffffff;fill-opacity:1;stroke:none;stroke-width:0.999996;stroke-linecap:butt;stroke-linejoin:round;stroke-miterlimit:4;stroke-dasharray:none;stroke-dashoffset:0;stroke-opacity:1"
       id="rect2432"
       width="8.000001"
       height="2.0000002"
       x="18"
       y="-76.000008"
       transform="rotate(90)" />
    <rect
       style="fill:#ffffff;fill-opacity:1;stroke:none;stroke-width:0.999996;stroke-linecap:butt;stroke-linejoin:round;stroke-miterlimit:4;stroke-dasharray:none;stroke-dashoffset:0;stroke-opacity:1"
       id="rect2434"
       width="8.000001"
       height="2.0000002"
       x="29.999998"
       y="-76.000008"
       transform="rotate(90)" />
    <rect
       style="fill:#ffffff;fill-opacity:1;stroke:none;stroke-width:0.999996;stroke-linecap:butt;stroke-linejoin:round;stroke-miterlimit:4;stroke-dasharray:none;stroke-dashoffset:0;stroke-opacity:1"
       id="rect2436"
       width="8.000001"
       height="2.0000002"
       x="42"
       y="-76.000008"
       transform="rotate(90)" />
    <rect
       style="fill:#ffffff;fill-opacity:1;stroke:none;stroke-width:0.999996;stroke-linecap:butt;stroke-linejoin:round;stroke-miterlimit:4;stroke-dasharray:none;stroke-dashoffset:0;stroke-opacity:1"
       id="rect2438"
       width="8.000001"
       height="2.0000002"
       x="54"
       y="-76.000008"
       transform="rotate(90)" />
    <rect
       style="fill:#ffffff;fill-opacity:1;stroke:none;stroke-width:0.999996;stroke-linecap:butt;stroke-linejoin:round;stroke-miterlimit:4;stroke-dasharray:none;stroke-dashoffset:0;stroke-opacity:1"
       id="rect6403"
       width="8.000001"
       height="2.0000002"
       x="44"
       y="18" />
    <rect
       style="fill:#ffffff;fill-opacity:1;stroke:none;stroke-width:0.999996;stroke-linecap:butt;stroke-linejoin:round;stroke-miterlimit:4;stroke-dasharray:none;stroke-dashoffset:0;stroke-opacity:1"
       id="rect6405"
       width="8.000001"
       height="2.0000002"
       x="44"
       y="60" />
    <g
       transform="matrix(2.0000002,0,0,2.0000002,-1514.0004,30.000001)"
       id="g4"
       style="fill:#ffffff;fill-opacity:1;stroke-width:0.5">
      <path
         color="#000000"
         d="m 777,-2 c -0.45,1.8 -0.527,3.317 0.5,5 l 2.604,3.445 -0.166,0.297 a 0.5,0.5 0 0 1 -0.084,0.112 l -1,1 A 0.5,0.5 0 0 1 778.5,8 H 777 c -0.81,0 -1.54,0.486 -1.85,1.234 h 0.003 c -0.31,0.75 -0.14,1.607 0.433,2.18 a 1.997,1.997 0 0 0 3.38,-1.057 C 778.972,10.318 778.984,10.037 779,10 V 9.5 a 0.5,0.5 0 0 1 0.2,-0.4 l 1.783,-1.338 1.783,1.338 a 0.5,0.5 0 0 1 0.2,0.4 V 10 c 0.015,0.036 0.027,0.318 0.034,0.357 a 1.997,1.997 0 0 0 3.379,1.057 c 0.574,-0.573 0.744,-1.43 0.434,-2.18 h 0.002 A 1.999,1.999 0 0 0 784.965,8 h -1.5 a 0.5,0.5 0 0 1 -0.353,-0.146 l -1,-1 A 0.5,0.5 0 0 1 782.028,6.742 L 781.868,6.453 784.5,3 c 1.025,-1.658 0.945,-3.22 0.5,-5 l -4.017,6.861 z m 3.967,8.226 h 0.018 a 0.25,0.25 0 1 1 -0.018,0 z M 777,9 c 0.547,0 1,0.454 1,1 0,0.546 -0.453,1 -1,1 -0.546,0 -1,-0.454 -1,-1 0,-0.546 0.454,-1 1,-1 z m 7.965,0 c 0.546,0 1,0.454 1,1 0,0.546 -0.454,1 -1,1 -0.546,0 -1,-0.454 -1,-1 0,-0.546 0.454,-1 1,-1 z"
         fill="#666666"
         font-family="sans-serif"
         font-weight="400"
         overflow="visible"
         style="line-height:normal;font-variant-ligatures:normal;font-variant-position:normal;font-variant-caps:normal;font-variant-numeric:normal;font-variant-alternates:normal;font-feature-settings:normal;text-indent:0;text-align:start;text-decoration-line:none;text-decoration-style:solid;text-decoration-color:#000000;text-transform:none;text-orientation:mixed;shape-padding:0;isolation:auto;mix-blend-mode:normal;fill:#ffffff;fill-opacity:1;stroke-width:0.25"
         white-space="normal"
         id="path2" />
    </g>
  </g>
</svg>
