<?xml version="1.0" encoding="UTF-8" standalone="no"?>
<svg
   version="1.1"
   width="96"
   height="96"
   id="svg6649"
   sodipodi:docname="org.xfce.catfish.svg"
   inkscape:version="1.2.2 (b0a8486541, 2022-12-01)"
   xmlns:inkscape="http://www.inkscape.org/namespaces/inkscape"
   xmlns:sodipodi="http://sodipodi.sourceforge.net/DTD/sodipodi-0.dtd"
   xmlns:xlink="http://www.w3.org/1999/xlink"
   xmlns="http://www.w3.org/2000/svg"
   xmlns:svg="http://www.w3.org/2000/svg"
   xmlns:rdf="http://www.w3.org/1999/02/22-rdf-syntax-ns#"
   xmlns:cc="http://creativecommons.org/ns#"
   xmlns:dc="http://purl.org/dc/elements/1.1/">
  <sodipodi:namedview
     id="namedview61"
     pagecolor="#ffffff"
     bordercolor="#000000"
     borderopacity="0.25"
     inkscape:showpageshadow="2"
     inkscape:pageopacity="0.0"
     inkscape:pagecheckerboard="0"
     inkscape:deskcolor="#d1d1d1"
     showgrid="false"
     inkscape:zoom="16.000001"
     inkscape:cx="46.781247"
     inkscape:cy="55.999997"
     inkscape:window-width="1278"
     inkscape:window-height="909"
     inkscape:window-x="632"
     inkscape:window-y="57"
     inkscape:window-maximized="0"
     inkscape:current-layer="svg6649" />
  <defs
     id="defs6651">
    <linearGradient
       id="linearGradient2511">
      <stop
         id="stop2503"
         style="stop-color:#ffffff;stop-opacity:1"
         offset="0" />
      <stop
         id="stop2505"
         style="stop-color:#ffffff;stop-opacity:0.23529412"
         offset="0.08629532" />
      <stop
         id="stop2507"
         style="stop-color:#ffffff;stop-opacity:0.15686275"
         offset="0.93042839" />
      <stop
         id="stop2509"
         style="stop-color:#ffffff;stop-opacity:0.39215687"
         offset="1" />
    </linearGradient>
    <linearGradient
       id="linearGradient2392">
      <stop
         id="stop2384"
         style="stop-color:#ffffff;stop-opacity:1"
         offset="0" />
      <stop
         id="stop2386"
         style="stop-color:#ffffff;stop-opacity:0.23529412"
         offset="0.07945278" />
      <stop
         id="stop2388"
         style="stop-color:#ffffff;stop-opacity:0.15686275"
         offset="0.94694352" />
      <stop
         id="stop2390"
         style="stop-color:#ffffff;stop-opacity:0.39215687"
         offset="1" />
    </linearGradient>
    <linearGradient
       id="linearGradient1201">
      <stop
         id="stop1193"
         style="stop-color:#ffffff;stop-opacity:1"
         offset="0" />
      <stop
         id="stop1195"
         style="stop-color:#ffffff;stop-opacity:0.23529412"
         offset="0.06781636" />
      <stop
         id="stop1197"
         style="stop-color:#ffffff;stop-opacity:0.15686275"
         offset="0.94694352" />
      <stop
         id="stop1199"
         style="stop-color:#ffffff;stop-opacity:0.39215687"
         offset="1" />
    </linearGradient>
    <linearGradient
       id="linearGradient3688-166-749">
      <stop
         id="stop2883"
         style="stop-color:#181818;stop-opacity:1"
         offset="0" />
      <stop
         id="stop2885"
         style="stop-color:#181818;stop-opacity:0"
         offset="1" />
    </linearGradient>
    <linearGradient
       id="linearGradient3702-501-757">
      <stop
         id="stop2895"
         style="stop-color:#181818;stop-opacity:0"
         offset="0" />
      <stop
         id="stop2897"
         style="stop-color:#181818;stop-opacity:1"
         offset="0.5" />
      <stop
         id="stop2899"
         style="stop-color:#181818;stop-opacity:0"
         offset="1" />
    </linearGradient>
    <linearGradient
       x1="13.320448"
       y1="5.8028727"
       x2="13.320448"
       y2="42.227989"
       id="linearGradient3058-5"
       xlink:href="#linearGradient2392"
       gradientUnits="userSpaceOnUse"
       gradientTransform="matrix(2.0577668,0,0,2.1283303,-1.8292498,-0.21879658)" />
    <linearGradient
       xlink:href="#linearGradient3702-501-757"
       id="linearGradient1191"
       gradientUnits="userSpaceOnUse"
       x1="25.058096"
       y1="47.027729"
       x2="25.058096"
       y2="39.999443"
       gradientTransform="matrix(1.1428571,0,0,0.6428571,-3.428569,16.035716)" />
    <linearGradient
       id="linearGradient3600-9-51">
      <stop
         offset="0"
         style="stop-color:#f4f4f4;stop-opacity:1"
         id="stop3602-0-0" />
      <stop
         offset="1"
         style="stop-color:#dbdbdb;stop-opacity:1"
         id="stop3604-9-04" />
    </linearGradient>
    <linearGradient
       id="linearGradient3104-6">
      <stop
         offset="0"
         style="stop-color:#000000;stop-opacity:0.31782946"
         id="stop3106-3" />
      <stop
         offset="1"
         style="stop-color:#000000;stop-opacity:0.24031007"
         id="stop3108-9" />
    </linearGradient>
    <linearGradient
       xlink:href="#linearGradient3600-9-51"
       id="linearGradient1512"
       gradientUnits="userSpaceOnUse"
       gradientTransform="matrix(1.9933657,0,0,2.0735654,-99.516413,0.99975867)"
       x1="74.838791"
       y1="4.7853589"
       x2="74.838791"
       y2="45.85183" />
    <linearGradient
       id="linearGradient909">
      <stop
         id="stop901"
         style="stop-color:#64baff;stop-opacity:1"
         offset="0" />
      <stop
         id="stop907"
         style="stop-color:#3689e6;stop-opacity:1"
         offset="1" />
    </linearGradient>
    <radialGradient
       cx="4.9929786"
       cy="43.5"
       r="2.5"
       fx="4.9929786"
       fy="43.5"
       id="radialGradient3013-6"
       xlink:href="#linearGradient3688-166-749"
       gradientUnits="userSpaceOnUse"
       gradientTransform="matrix(2.003784,0,0,0.89999994,29.98813,4.8500025)" />
    <radialGradient
       cx="4.9929786"
       cy="43.5"
       r="2.5"
       fx="4.9929786"
       fy="43.5"
       id="radialGradient3015-1"
       xlink:href="#linearGradient3688-166-749"
       gradientUnits="userSpaceOnUse"
       gradientTransform="matrix(2.003784,0,0,0.89999994,-18.01187,-83.149997)" />
    <linearGradient
       xlink:href="#linearGradient909"
       id="linearGradient930-9-2"
       x1="16.767664"
       y1="-7.643558"
       x2="16.767664"
       y2="32.286724"
       gradientUnits="userSpaceOnUse"
       gradientTransform="matrix(2.925925,0,0,2.4074066,1.1852336,18.481405)" />
    <linearGradient
       xlink:href="#linearGradient1201"
       id="linearGradient1192"
       gradientUnits="userSpaceOnUse"
       gradientTransform="matrix(2.0810811,0,0,1.7027027,-1.9459714,16.135156)"
       x1="23.976463"
       y1="4.9505701"
       x2="23.976463"
       y2="43.098244" />
    <linearGradient
       xlink:href="#linearGradient3104-6"
       id="linearGradient1978"
       gradientUnits="userSpaceOnUse"
       gradientTransform="matrix(1.6356971,0,0,1.8341666,21.333136,5.1040286)"
       x1="-51.786404"
       y1="50.786446"
       x2="-51.786404"
       y2="2.9062471" />
    <linearGradient
       x1="35.996761"
       y1="8.8111582"
       x2="35.996761"
       y2="40.922527"
       id="linearGradient3058-5-7"
       xlink:href="#linearGradient2511"
       gradientUnits="userSpaceOnUse"
       gradientTransform="matrix(2.0519043,0,0,2.205171,-1.6944068,-1.2556523)" />
  </defs>
  <metadata
     id="metadata6654">
    <rdf:RDF>
      <cc:Work
         rdf:about="">
        <dc:format>image/svg+xml</dc:format>
        <dc:type
           rdf:resource="http://purl.org/dc/dcmitype/StillImage" />
      </cc:Work>
    </rdf:RDF>
  </metadata>
  <g
     id="g1784"
     transform="scale(2)"
     style="stroke-width:0.5">
    <rect
       style="opacity:0.6;fill:url(#radialGradient3013-6);fill-opacity:1;stroke:none;stroke-width:0.431382"
       id="rect2801-3-7"
       y="41.75"
       x="40"
       height="4.4999995"
       width="5" />
    <rect
       style="opacity:0.6;fill:url(#radialGradient3015-1);fill-opacity:1;stroke:none;stroke-width:0.431382"
       id="rect3696-6-3"
       transform="scale(-1)"
       y="-46.25"
       x="-8"
       height="4.4999995"
       width="5" />
    <rect
       style="opacity:0.6;fill:url(#linearGradient1191);fill-opacity:1;stroke:none;stroke-width:0.431382"
       id="rect3700-4-6"
       y="41.75"
       x="8"
       height="4.5"
       width="32" />
  </g>
  <path
     id="rect5505-21-1-2-8-6"
     style="color:#000000;font-variation-settings:normal;display:inline;overflow:visible;visibility:visible;vector-effect:none;fill:none;fill-opacity:1;fill-rule:nonzero;stroke:url(#linearGradient1978);stroke-width:0.999923;stroke-linecap:butt;stroke-linejoin:round;stroke-miterlimit:4;stroke-dasharray:none;stroke-dashoffset:0;stroke-opacity:1;-inkscape-stroke:none;marker:none;enable-background:accumulate;stop-color:#000000"
     d="m 87.49996,32 v -7.149988 c 0,-4.542788 -3.613744,-8.199985 -8.102556,-8.199985 H 45.97436 c -2.691397,0 -6.699193,-3.173812 -7.983292,-4.257257 -1.401617,-1.182598 -3.206692,-1.892731 -5.183361,-1.892731 H 16.602595 c -4.488812,0 -8.1025562,3.657197 -8.1025562,8.199984 V 32"
     sodipodi:nodetypes="csssssssc" />
  <path
     id="rect5505-21-1-2-8-6-1"
     style="color:#000000;font-variation-settings:normal;display:inline;overflow:visible;visibility:visible;opacity:1;vector-effect:none;fill:url(#linearGradient1512);fill-opacity:1;fill-rule:nonzero;stroke:none;stroke-width:0.999994;stroke-linecap:butt;stroke-linejoin:miter;stroke-miterlimit:4;stroke-dasharray:none;stroke-dashoffset:0;stroke-opacity:1;-inkscape-stroke:none;marker:none;enable-background:accumulate;stop-color:#000000;stop-opacity:1"
     d="m 16.457795,11 c -4.002133,0 -7.4577949,3.427265 -7.4577949,7.643217 V 32 H 87.000001 V 25.031587 C 87.000001,20.703094 83.808116,17 79.805983,17 H 45.5 C 43.742447,17 41.49715,15.59526 39.949375,14.48927 38.362326,13.355215 37.922797,12.983312 37.210977,12.391794 35.922293,11.320905 34.371668,11 32.610009,11 Z"
     sodipodi:nodetypes="ssccsssssss" />
  <path
     id="rect5505-21-1-2-8-6-1-9"
     style="color:#000000;font-variation-settings:normal;display:inline;overflow:visible;visibility:visible;opacity:1;vector-effect:none;fill:none;fill-opacity:1;fill-rule:nonzero;stroke:url(#linearGradient3058-5);stroke-width:1;stroke-linecap:round;stroke-linejoin:round;stroke-miterlimit:4;stroke-dasharray:none;stroke-dashoffset:0;stroke-opacity:1;-inkscape-stroke:none;marker:none;enable-background:accumulate;stop-color:#000000;stop-opacity:1"
     d="m 46,17.5 c -2.171125,0 -3.452701,-0.669491 -5.113502,-1.720947 -1.660802,-1.051456 -3.062117,-2.203948 -3.76473,-2.809815 C 36.055719,12.049982 34.701416,11.5 33.184267,11.5 H 16.325202 C 12.876669,11.5 9.5,14.881551 9.5,18.44834 V 28.5"
     sodipodi:nodetypes="csssssc" />
  <path
     id="rect5505-21-1-2-8-6-1-9-9"
     style="color:#000000;font-variation-settings:normal;display:inline;overflow:visible;visibility:visible;vector-effect:none;fill:none;fill-opacity:1;fill-rule:nonzero;stroke:url(#linearGradient3058-5-7);stroke-width:1;stroke-linecap:round;stroke-linejoin:round;stroke-miterlimit:4;stroke-dasharray:none;stroke-dashoffset:0;stroke-opacity:1;-inkscape-stroke:none;marker:none;enable-background:accumulate;stop-color:#000000"
     d="M 86.5,28.5 V 24.410964 C 86.5,20.715399 83.051102,17.5 79.612393,17.5 H 47"
     sodipodi:nodetypes="cssc" />
  <path
     id="rect5505-21-1-9-7"
     style="color:#000000;font-variation-settings:normal;display:inline;overflow:visible;visibility:visible;opacity:0.05;vector-effect:none;fill:#002e99;fill-opacity:1;fill-rule:nonzero;stroke:none;stroke-width:1;stroke-linecap:butt;stroke-linejoin:miter;stroke-miterlimit:4;stroke-dasharray:none;stroke-dashoffset:0;stroke-opacity:1;-inkscape-stroke:none;marker:none;enable-background:accumulate;stop-color:#000000;stop-opacity:1"
     d="m 16.900094,22.019386 c 20.561967,-0.009 41.124539,-0.0013 61.686738,-0.0039 5.10968,-0.300367 9.945548,3.809133 10.346077,8.844311 0.11858,15.958144 0.01683,31.922034 0.05076,47.882385 0.318106,5.13851 -4.054971,9.998756 -9.29253,10.207564 -20.759991,0.08118 -41.524146,0.01155 -62.285736,0.03477 C 12.295725,89.284886 7.459857,85.175383 7.0593273,80.140205 6.9407513,64.05075 7.0424923,47.955548 7.0085603,31.863884 6.8719939,26.637852 11.592602,21.933116 16.900091,22.019366 l -3e-6,-2e-5"
     sodipodi:nodetypes="cccccccccc" />
  <rect
     style="color:#000000;font-variation-settings:normal;display:inline;overflow:visible;visibility:visible;opacity:0.1;vector-effect:none;fill:#002e99;fill-opacity:1;fill-rule:nonzero;stroke:none;stroke-width:1;stroke-linecap:butt;stroke-linejoin:miter;stroke-miterlimit:4;stroke-dasharray:none;stroke-dashoffset:0;stroke-opacity:1;-inkscape-stroke:none;marker:none;enable-background:accumulate;stop-color:#000000;stop-opacity:1"
     id="rect5505-21-1-9"
     y="23"
     x="8.5"
     ry="8"
     rx="8"
     height="65"
     width="79" />
  <rect
     style="color:#000000;font-variation-settings:normal;display:inline;overflow:visible;visibility:visible;vector-effect:none;fill:url(#linearGradient930-9-2);fill-opacity:1;fill-rule:nonzero;stroke:#0d52bf;stroke-width:1;stroke-linecap:butt;stroke-linejoin:miter;stroke-miterlimit:4;stroke-dasharray:none;stroke-dashoffset:0;stroke-opacity:0.5;marker:none;enable-background:accumulate;stop-color:#000000"
     id="rect5505-21-1"
     y="24.499912"
     x="8.5000305"
     ry="8"
     rx="8"
     height="65"
     width="79" />
  <path
     d="m 45.708918,42.399 c -7.453922,0 -13.548108,6.0948 -13.548108,13.549454 0,7.454682 6.094186,13.549468 13.548108,13.549468 a 13.449575,13.450925 0 0 0 7.665766,-2.401956 l 9.06737,9.070748 a 2.4632922,2.4635394 0 1 0 3.483104,-3.483434 l -9.067382,-9.07075 a 13.449575,13.450925 0 0 0 2.399248,-7.664076 C 59.257024,48.4938 53.16284,42.399 45.708918,42.399 Z m 0,3.079426 a 10.468991,10.470042 0 0 1 10.46899,10.470028 10.468991,10.470042 0 0 1 -10.46899,10.470044 10.468991,10.470042 0 0 1 -10.46899,-10.470044 10.468991,10.470042 0 0 1 10.46899,-10.470028 z"
     fill="#666666"
     font-family="sans-serif"
     font-weight="400"
     overflow="visible"
     style="color:#000000;line-height:normal;font-variant-ligatures:normal;font-variant-position:normal;font-variant-caps:normal;font-variant-numeric:normal;font-variant-alternates:normal;font-feature-settings:normal;font-variation-settings:normal;text-indent:0;text-align:start;text-decoration-line:none;text-decoration-style:solid;text-decoration-color:#000000;text-transform:none;text-orientation:mixed;shape-padding:0;isolation:auto;mix-blend-mode:normal;fill:#002e99;fill-opacity:1;stroke:none;stroke-width:1.7;stroke-linecap:butt;stroke-linejoin:miter;stroke-miterlimit:4;stroke-dasharray:none;stroke-dashoffset:0;stroke-opacity:1;marker:none;stop-color:#000000;opacity:0.15;vector-effect:none;-inkscape-stroke:none;stop-opacity:1"
     white-space="normal"
     id="path5015" />
  <path
     d="m 45.708918,42.399 c -7.453922,0 -13.548108,6.0948 -13.548108,13.549454 0,7.454682 6.094186,13.549468 13.548108,13.549468 a 13.449575,13.450925 0 0 0 7.665766,-2.401956 l 9.06737,9.070748 a 2.4632922,2.4635394 0 1 0 3.483104,-3.483434 l -9.067382,-9.07075 a 13.449575,13.450925 0 0 0 2.399248,-7.664076 C 59.257024,48.4938 53.16284,42.399 45.708918,42.399 Z m 0,3.079426 a 10.468991,10.470042 0 0 1 10.46899,10.470028 10.468991,10.470042 0 0 1 -10.46899,10.470044 10.468991,10.470042 0 0 1 -10.46899,-10.470044 10.468991,10.470042 0 0 1 10.46899,-10.470028 z"
     fill="#666666"
     font-family="sans-serif"
     font-weight="400"
     overflow="visible"
     style="color:#000000;line-height:normal;font-variant-ligatures:normal;font-variant-position:normal;font-variant-caps:normal;font-variant-numeric:normal;font-variant-alternates:normal;font-feature-settings:normal;font-variation-settings:normal;text-indent:0;text-align:start;text-decoration-line:none;text-decoration-style:solid;text-decoration-color:#000000;text-transform:none;text-orientation:mixed;shape-padding:0;isolation:auto;mix-blend-mode:normal;fill:none;fill-opacity:1;stroke:#000000;stroke-width:2;stroke-linecap:butt;stroke-linejoin:miter;stroke-miterlimit:4;stroke-dasharray:none;stroke-dashoffset:0;stroke-opacity:1;marker:none;stop-color:#000000;opacity:0.07;stop-opacity:1"
     white-space="normal"
     id="path5036" />
  <rect
     style="opacity:0.35;fill:none;stroke:url(#linearGradient1192);stroke-width:1;stroke-linecap:round;stroke-linejoin:round;stroke-miterlimit:4;stroke-dasharray:none;stroke-dashoffset:0;stroke-opacity:1"
     id="rect6741-2"
     y="25.5"
     x="9.5"
     ry="7"
     rx="7"
     height="63"
     width="77" />
  <path
     d="m 45.708918,41.398734 c -7.453922,0 -13.548108,6.0948 -13.548108,13.549454 0,7.454682 6.094186,13.549468 13.548108,13.549468 A 13.449575,13.450925 0 0 0 53.374684,66.0957 l 9.06737,9.070748 a 2.4632922,2.4635394 0 1 0 3.483104,-3.483434 l -9.067382,-9.07075 a 13.449575,13.450925 0 0 0 2.399248,-7.664076 c 0,-7.454654 -6.094184,-13.549454 -13.548106,-13.549454 z m 0,3.079426 A 10.468991,10.470042 0 0 1 56.177908,54.948188 10.468991,10.470042 0 0 1 45.708918,65.418232 10.468991,10.470042 0 0 1 35.239928,54.948188 10.468991,10.470042 0 0 1 45.708918,44.47816 Z"
     fill="#666666"
     font-family="sans-serif"
     font-weight="400"
     overflow="visible"
     style="color:#000000;line-height:normal;font-variant-ligatures:normal;font-variant-position:normal;font-variant-caps:normal;font-variant-numeric:normal;font-variant-alternates:normal;font-feature-settings:normal;font-variation-settings:normal;text-indent:0;text-align:start;text-decoration-line:none;text-decoration-style:solid;text-decoration-color:#000000;text-transform:none;text-orientation:mixed;shape-padding:0;isolation:auto;mix-blend-mode:normal;fill:#fafafa;fill-opacity:1;stroke:none;stroke-width:1.7;stroke-linecap:butt;stroke-linejoin:miter;stroke-miterlimit:4;stroke-dasharray:none;stroke-dashoffset:0;stroke-opacity:1;marker:none;stop-color:#000000"
     white-space="normal"
     id="path13635-4-7" />
  <path
     id="path12117"
     style="color:#000000;line-height:normal;font-variant-ligatures:normal;font-variant-position:normal;font-variant-caps:normal;font-variant-numeric:normal;font-variant-alternates:normal;font-feature-settings:normal;font-variation-settings:normal;text-indent:0;text-align:start;text-decoration-line:none;text-decoration-style:solid;text-decoration-color:#000000;text-transform:none;text-orientation:mixed;shape-padding:0;isolation:auto;mix-blend-mode:normal;fill:#002e99;fill-opacity:1;stroke:none;stroke-width:1.7;stroke-linecap:butt;stroke-linejoin:miter;stroke-miterlimit:4;stroke-dasharray:none;stroke-dashoffset:0;stroke-opacity:1;marker:none;stop-color:#000000;opacity:0.07"
     d="M 45.708984 42.478516 A 10.468991 10.470042 0 0 0 35.240234 52.949219 A 10.468991 10.470042 0 0 0 35.328125 53.949219 A 10.468991 10.470042 0 0 1 45.708984 44.478516 A 10.468991 10.470042 0 0 1 56.107422 54.138672 A 10.468991 10.470042 0 0 0 56.177734 52.949219 A 10.468991 10.470042 0 0 0 45.708984 42.478516 z M 59.199219 53.714844 A 13.449575 13.450925 0 0 1 56.857422 60.613281 L 57.595703 61.353516 A 13.449575 13.450925 0 0 0 59.257812 54.947266 C 59.257812 54.531139 59.236374 54.121672 59.199219 53.714844 z M 32.201172 53.949219 C 32.176773 54.279736 32.160156 54.610771 32.160156 54.947266 C 32.160156 62.40194 38.25507 68.498047 45.708984 68.498047 A 13.449575 13.450925 0 0 0 53.375 66.095703 L 62.441406 75.166016 A 2.4632922 2.4635394 0 0 0 66.453125 72.449219 A 2.4632922 2.4635394 0 0 1 62.441406 73.166016 L 53.375 64.095703 A 13.449575 13.450925 0 0 1 45.708984 66.498047 C 38.591897 66.498047 32.71782 60.940453 32.201172 53.949219 z " />
</svg>
