<?xml version="1.0" encoding="UTF-8" standalone="no"?>
<svg
   xmlns:dc="http://purl.org/dc/elements/1.1/"
   xmlns:cc="http://creativecommons.org/ns#"
   xmlns:rdf="http://www.w3.org/1999/02/22-rdf-syntax-ns#"
   xmlns:svg="http://www.w3.org/2000/svg"
   xmlns="http://www.w3.org/2000/svg"
   xmlns:xlink="http://www.w3.org/1999/xlink"
   version="1.1"
   id="svg3952"
   height="96"
   width="96">
  <defs
     id="defs3954">
    <linearGradient
       gradientTransform="matrix(2.5235949,0,0,2.9224493,-11.970587,-107.43511)"
       y2="39.173557"
       x2="24.693371"
       y1="34.39452"
       x1="24.693371"
       gradientUnits="userSpaceOnUse"
       id="linearGradient3086"
       xlink:href="#linearGradient4661" />
    <linearGradient
       id="linearGradient4661">
      <stop
         style="stop-color:#000000;stop-opacity:1;"
         offset="0"
         id="stop4663" />
      <stop
         style="stop-color:#000000;stop-opacity:0;"
         offset="1"
         id="stop4665" />
    </linearGradient>
    <linearGradient
       id="linearGradient3707-319-631-407-324-3-8">
      <stop
         offset="0"
         style="stop-color:#185f9a;stop-opacity:1;"
         id="stop3760-7-3" />
      <stop
         offset="1"
         style="stop-color:#599ec9;stop-opacity:1;"
         id="stop3762-8-4" />
    </linearGradient>
    <linearGradient
       y2="44.340794"
       x2="71.204407"
       y1="6.2375584"
       x1="71.204407"
       gradientTransform="matrix(2.027027,0,0,2.0270202,-97.405776,-33.399529)"
       gradientUnits="userSpaceOnUse"
       id="linearGradient3096"
       xlink:href="#linearGradient4011" />
    <linearGradient
       id="linearGradient4011">
      <stop
         offset="0"
         style="stop-color:#ffffff;stop-opacity:1;"
         id="stop4013" />
      <stop
         id="stop4015"
         style="stop-color:#ffffff;stop-opacity:0.23529412;"
         offset="0.507761" />
      <stop
         offset="0.83456558"
         style="stop-color:#ffffff;stop-opacity:0.15686275;"
         id="stop4017" />
      <stop
         offset="1"
         style="stop-color:#ffffff;stop-opacity:0.39215687;"
         id="stop4019" />
    </linearGradient>
    <radialGradient
       r="19.99999"
       fy="8.4497671"
       fx="5.0450659"
       cy="8.4497671"
       cx="5.0450659"
       gradientTransform="matrix(0,4.5986479,-4.8648362,-1.2516812e-7,89.106957,-53.862133)"
       gradientUnits="userSpaceOnUse"
       id="radialGradient3099"
       xlink:href="#linearGradient2867-449-88-871-390-598-476-591-434-148-57-177-3-8" />
    <linearGradient
       id="linearGradient2867-449-88-871-390-598-476-591-434-148-57-177-3-8">
      <stop
         offset="0"
         style="stop-color:#90dbec;stop-opacity:1;"
         id="stop3750-8-9" />
      <stop
         offset="0.26238"
         style="stop-color:#42baea;stop-opacity:1"
         id="stop3752-3-2" />
      <stop
         offset="0.704952"
         style="stop-color:#3689e6;stop-opacity:1;"
         id="stop3754-7-2" />
      <stop
         offset="1"
         style="stop-color:#2b63a0;stop-opacity:1;"
         id="stop3756-9-3" />
    </linearGradient>
    <linearGradient
       y2="3.8990016"
       x2="24"
       y1="44"
       x1="24"
       gradientTransform="matrix(1.9745455,0,0,1.9745394,0.6109138,-29.389)"
       gradientUnits="userSpaceOnUse"
       id="linearGradient3101"
       xlink:href="#linearGradient3707-319-631-407-324-3-8" />
    <linearGradient
       id="linearGradient8838">
      <stop
         offset="0"
         style="stop-color:#000000;stop-opacity:1"
         id="stop8840" />
      <stop
         offset="1"
         style="stop-color:#000000;stop-opacity:0"
         id="stop8842" />
    </linearGradient>
    <radialGradient
       xlink:href="#linearGradient8838"
       id="radialGradient3950"
       gradientUnits="userSpaceOnUse"
       gradientTransform="matrix(4.4050825,0,0,1.4920376,-227.86829,40.540398)"
       cx="62.625"
       cy="4.625"
       fx="62.625"
       fy="4.625"
       r="10.625" />
    <linearGradient
       gradientTransform="matrix(1.5098065,0,0,1.5098018,-0.31380645,-32.832896)"
       gradientUnits="userSpaceOnUse"
       y2="7.5589194"
       x2="30.957644"
       y1="50.736649"
       x1="30.957644"
       id="linearGradient3893-5"
       xlink:href="#linearGradient3707-319-631-407-324-3-8-2" />
    <linearGradient
       id="linearGradient3707-319-631-407-324-3-8-2">
      <stop
         offset="0"
         style="stop-color:#185f9a;stop-opacity:1;"
         id="stop3760-7-3-5" />
      <stop
         offset="1"
         style="stop-color:#599ec9;stop-opacity:1;"
         id="stop3762-8-4-4" />
    </linearGradient>
    <linearGradient
       id="linearGradient4661-8">
      <stop
         style="stop-color:#000000;stop-opacity:1;"
         offset="0"
         id="stop4663-8" />
      <stop
         style="stop-color:#000000;stop-opacity:0;"
         offset="1"
         id="stop4665-4" />
    </linearGradient>
    <linearGradient
       y2="53.700127"
       x2="25.068182"
       y1="38.638695"
       x1="25.068182"
       gradientTransform="matrix(1.5723056,0,0,1.8012335,-5.4307177,-44.170129)"
       gradientUnits="userSpaceOnUse"
       id="linearGradient3143"
       xlink:href="#linearGradient4661-8" />
  </defs>
  <metadata
     id="metadata3957">
    <rdf:RDF>
      <cc:Work
         rdf:about="">
        <dc:format>image/svg+xml</dc:format>
        <dc:type
           rdf:resource="http://purl.org/dc/dcmitype/StillImage" />
        <dc:title />
      </cc:Work>
    </rdf:RDF>
  </metadata>
  <g
     transform="translate(0,32)"
     id="layer1">
    <path
       d="M 94.804,47.44108 C 94.804,56.196405 73.849131,63.294 48,63.294 22.150869,63.294 1.196,56.196405 1.196,47.44108 1.196,38.685752 22.150869,31.58816 48,31.58816 c 25.849131,0 46.804,7.097592 46.804,15.85292 l 0,0 z"
       id="path8836"
       style="opacity:0.3;fill:url(#radialGradient3950);fill-opacity:1;fill-rule:evenodd;stroke:none;stroke-width:0.99999988;marker:none;visibility:visible;display:inline;overflow:visible" />
    <path
       d="m 48.000006,-20.5 c -21.24301,0 -38.5000699,17.2570005 -38.5000699,38.499944 0,21.242942 17.2570599,38.499951 38.5000699,38.499945 21.243,0 38.500085,-17.257003 38.500066,-38.499945 C 86.500072,-3.2429995 69.243006,-20.5 48.000006,-20.5 Z"
       id="path2555-7"
       style="color:#000000;fill:url(#radialGradient3099);fill-opacity:1;fill-rule:nonzero;stroke:url(#linearGradient3101);stroke-width:1;stroke-linecap:round;stroke-linejoin:round;stroke-miterlimit:4;stroke-opacity:1;stroke-dasharray:none;stroke-dashoffset:0;marker:none;visibility:visible;display:inline;overflow:visible;enable-background:accumulate" />
    <path
       d="M 85.5,17.998789 C 85.5,38.710071 68.709442,55.5 48.000474,55.5 27.28961,55.5 10.500001,38.709879 10.500001,17.998789 c 0,-20.710323 16.789609,-37.498551 37.500473,-37.498551 20.708968,0 37.499526,16.788228 37.499526,37.498551 l 0,0 z"
       id="path8655-6"
       style="opacity:0.5;color:#000000;fill:none;stroke:url(#linearGradient3096);stroke-width:1;stroke-linecap:round;stroke-linejoin:round;stroke-miterlimit:4;stroke-opacity:1;stroke-dasharray:none;stroke-dashoffset:0;marker:none;visibility:visible;display:inline;overflow:visible;enable-background:accumulate" />
    <path
       d="m 54.127504,-1.2882033 c 0,3.2446895 -2.621106,5.8780618 -5.850681,5.8780618 -3.229577,0 -5.850684,-2.6333723 -5.850684,-5.8780618 0,-3.244691 2.621107,-5.8780634 5.850684,-5.8780634 3.229575,0 5.850681,2.6333724 5.850681,5.8780634 z M 68.729995,4.9620821 C 68.459387,5.0061381 68.203691,5.1133645 67.984541,5.274892 L 47.999388,8.4059583 28.121877,5.2317115 C 27.608041,4.8572866 26.885613,4.7451658 26.311462,5.023149 25.73731,5.3011293 25.360917,5.9599903 25.353001,6.5869445 c -0.0072,0.6270374 0.39145,1.1677925 0.958461,1.4595601 L 41.887434,13.010769 41.7809,24.407045 36.284774,41.474992 c -0.529348,0.777201 -0.368007,1.775349 0.425982,2.293495 0.794025,0.51822 1.920024,0.360324 2.449423,-0.416967 l 8.869651,-18.423182 8.702223,18.391343 c 0.470553,0.80613 1.519478,1.086163 2.34291,0.625533 0.823433,-0.46062 1.109509,-1.487443 0.638974,-2.293579 L 54.319824,24.510262 54.106868,13.78144 69.901397,7.9854422 c 0.638162,-0.43809 0.915395,-1.267462 0.638996,-1.9807754 C 70.263966,5.2912777 69.504329,4.8756427 68.72994,4.9620821 l 5.7e-5,0 z"
       id="path6668-4"
       style="color:#000000;fill:url(#linearGradient3893-5);fill-opacity:1;fill-rule:nonzero;stroke:none;stroke-width:1px;marker:none;visibility:visible;display:inline;overflow:visible;enable-background:accumulate" />
    <path
       id="path6668"
       d="M 54.127504,-0.27882093 C 54.275734,3.5199946 50.132251,6.6080997 46.537626,5.3348308 42.886321,4.3313366 41.201103,-0.50357306 43.42578,-3.5645667 c 1.98126,-3.212789 7.084707,-3.4626657 9.365171,-0.452554 0.861484,1.0417816 1.341854,2.3864896 1.336553,3.73829977 z M 68.729995,5.9714645 C 66.823549,6.6718208 64.708688,6.7065688 62.709061,7.1107822 57.760791,7.8574624 52.812351,8.7183922 47.864184,9.393748 41.283414,8.3428651 34.702645,7.2919795 28.121876,6.241094 25.4604,4.4592393 24.283947,9.274958 27.224635,9.346928 c 4.8876,1.557741 9.775202,3.115482 14.662799,4.673221 -0.0633,3.839971 -0.01732,7.697623 -0.148505,11.526605 -1.920112,5.952494 -3.836586,11.938342 -5.761352,17.868218 -0.02212,2.095787 3.205076,2.151364 3.538954,0.205736 2.837765,-5.89433 5.675528,-11.788658 8.513295,-17.682989 2.90074,6.130447 5.80148,12.260895 8.702222,18.391343 1.243134,2.116461 4.329772,-0.173536 2.858589,-2.059857 C 57.845682,36.638275 55.998055,31.024166 54.317102,25.382754 54.24702,21.852109 54.17695,18.321467 54.106864,14.790822 59.371704,12.858821 64.636547,10.926825 69.901393,8.994825 71.377258,8.0229427 70.46544,5.7141232 68.729991,5.9714645 Z"
       style="color:#000000;fill:#ffffff;fill-opacity:1;fill-rule:nonzero;stroke:none;marker:none;visibility:visible;display:inline;overflow:visible;enable-background:accumulate" />
    <path
       id="path4669"
       d="m 48.359101,-5.6060079 c -3.606,-0.340809 -6.944234,4.2213772 -4.819808,7.8381847 2.097211,4.0492633 8.047598,3.7255178 9.760483,-0.6053796 1.364528,-3.6929047 -1.684955,-7.4382525 -4.940675,-7.2328051 z"
       style="font-size:72px;font-style:normal;font-weight:bold;opacity:0.1;fill:none;stroke:url(#linearGradient3086);stroke-width:0.99999994;stroke-opacity:1;font-family:Standard Symbols L" />
    <path
       transform="matrix(1.5098065,0,0,1.5098018,-0.31380645,-33.333318)"
       d="m 18.208984,26.289062 c -0.162769,-0.02389 -0.324901,-0.0094 -0.449218,0.05078 -0.255591,0.123746 -0.447394,0.458534 -0.451172,0.757812 -0.0033,0.28372 0.168357,0.533078 0.449218,0.681641 l 10.273438,3.300781 a 0.30879611,0.30879611 0 0 1 0.214844,0.296875 l -0.0625,7.53125 A 0.30879611,0.30879611 0 0 1 28.169922,39 l -3.625,11.3125 a 0.30879611,0.30879611 0 0 1 -0.03906,0.08008 c -0.263797,0.387316 -0.193643,0.847057 0.19336,1.09961 0.3871,0.252642 0.948901,0.16431 1.197265,-0.195313 l 5.857422,-12.181641 a 0.30879611,0.30879611 0 0 1 0.556641,0.0039 l 5.738281,12.162109 c 0.224415,0.384459 0.742655,0.517778 1.144531,0.292969 C 39.597132,51.348352 39.713143,50.89528 39.482422,50.5 a 0.30879611,0.30879611 0 0 1 -0.02734,-0.06445 l -3.5625,-11.375 a 0.30879611,0.30879611 0 0 1 -0.01367,-0.08594 l -0.15625,-7.09375 a 0.30879611,0.30879611 0 0 1 0.203125,-0.294921 l 10.410157,-3.822266 c 0.299698,-0.215167 0.439302,-0.611392 0.314453,-0.933594 -0.125067,-0.322769 -0.508723,-0.529003 -0.888672,-0.490234 -0.111117,0.01937 -0.202994,0.06597 -0.328125,0.158203 a 0.30879611,0.30879611 0 0 1 -0.136719,0.05664 l -13.25,2.0625 a 0.30879611,0.30879611 0 0 1 -0.0957,0 l -13.15625,-2.09375 a 0.30879611,0.30879611 0 0 1 -0.132813,-0.05469 c -0.126964,-0.09252 -0.290355,-0.155798 -0.453125,-0.179688 z"
       id="path3141"
       style="opacity:0.1;color:#000000;fill:none;stroke:url(#linearGradient3143);stroke-width:0.66233748;stroke-linecap:butt;stroke-linejoin:miter;stroke-miterlimit:4;stroke-opacity:1;stroke-dasharray:none;stroke-dashoffset:0;marker:none;visibility:visible;display:inline;overflow:visible;enable-background:accumulate" />
  </g>
</svg>
