<?xml version="1.0" encoding="UTF-8" standalone="no"?>
<svg
   version="1.1"
   width="96"
   height="96"
   id="svg3767"
   sodipodi:docname="preferences-desktop-accessibility.svg"
   inkscape:version="1.2.2 (b0a8486541, 2022-12-01)"
   xmlns:inkscape="http://www.inkscape.org/namespaces/inkscape"
   xmlns:sodipodi="http://sodipodi.sourceforge.net/DTD/sodipodi-0.dtd"
   xmlns:xlink="http://www.w3.org/1999/xlink"
   xmlns="http://www.w3.org/2000/svg"
   xmlns:svg="http://www.w3.org/2000/svg"
   xmlns:rdf="http://www.w3.org/1999/02/22-rdf-syntax-ns#"
   xmlns:cc="http://creativecommons.org/ns#"
   xmlns:dc="http://purl.org/dc/elements/1.1/">
  <sodipodi:namedview
     id="namedview14643"
     pagecolor="#ffffff"
     bordercolor="#666666"
     borderopacity="1.0"
     inkscape:showpageshadow="2"
     inkscape:pageopacity="0.0"
     inkscape:pagecheckerboard="0"
     inkscape:deskcolor="#d1d1d1"
     showgrid="false"
     inkscape:zoom="7.375"
     inkscape:cx="43.457627"
     inkscape:cy="58.169491"
     inkscape:window-width="1326"
     inkscape:window-height="384"
     inkscape:window-x="-134"
     inkscape:window-y="699"
     inkscape:window-maximized="0"
     inkscape:current-layer="svg3767" />
  <defs
     id="defs3769">
    <linearGradient
       id="linearGradient4011">
      <stop
         id="stop4013"
         style="stop-color:#ffffff;stop-opacity:1"
         offset="0" />
      <stop
         id="stop4015"
         style="stop-color:#ffffff;stop-opacity:0.23529412"
         offset="0.507761" />
      <stop
         id="stop4017"
         style="stop-color:#ffffff;stop-opacity:0.15686275"
         offset="0.83456558" />
      <stop
         id="stop4019"
         style="stop-color:#ffffff;stop-opacity:0.39215687"
         offset="1" />
    </linearGradient>
    <radialGradient
       xlink:href="#linearGradient3820-7-2-8-6"
       id="radialGradient3163"
       gradientUnits="userSpaceOnUse"
       gradientTransform="matrix(0.50980481,0,0,0.1592859,-2.5507229,50.343893)"
       cx="99.157013"
       cy="186.17059"
       fx="99.157013"
       fy="186.17059"
       r="62.769119" />
    <linearGradient
       id="linearGradient3820-7-2-8-6">
      <stop
         id="stop3822-2-6-5-0"
         style="stop-color:#3d3d3d;stop-opacity:1"
         offset="0" />
      <stop
         id="stop3864-8-7-4-1"
         style="stop-color:#686868;stop-opacity:0.49803922"
         offset="0.5" />
      <stop
         id="stop3824-1-2-6-7"
         style="stop-color:#686868;stop-opacity:0"
         offset="1" />
    </linearGradient>
    <linearGradient
       gradientTransform="matrix(2.027028,0,0,2.0270281,-97.405863,-3.3998039)"
       gradientUnits="userSpaceOnUse"
       xlink:href="#linearGradient4011"
       id="linearGradient12398-3"
       y2="44.340794"
       x2="71.204407"
       y1="6.2375584"
       x1="71.204407" />
    <linearGradient
       gradientTransform="matrix(2.9508949,0,0,2.2060775,-5968.34,-7065.6295)"
       gradientUnits="userSpaceOnUse"
       xlink:href="#linearGradient947-2"
       id="linearGradient11527-6-5"
       y2="3241.9966"
       x2="2035.1652"
       y1="3208.0737"
       x1="2035.1652" />
    <linearGradient
       id="linearGradient947-2">
      <stop
         id="stop943-7"
         style="stop-color:#64baff;stop-opacity:1"
         offset="0" />
      <stop
         id="stop945-0"
         style="stop-color:#3689e6;stop-opacity:1"
         offset="1" />
    </linearGradient>
  </defs>
  <metadata
     id="metadata3772">
    <rdf:RDF>
      <cc:Work
         rdf:about="">
        <dc:format>image/svg+xml</dc:format>
        <dc:type
           rdf:resource="http://purl.org/dc/dcmitype/StillImage" />
      </cc:Work>
    </rdf:RDF>
  </metadata>
  <path
     style="fill:url(#radialGradient3163);fill-opacity:1;stroke:none;stroke-width:1"
     id="path3818-0-5-0"
     d="m 80,79.998233 a 32,9.9982326 0 1 1 -64,0 32,9.9982326 0 1 1 64,0 z" />
  <path
     d="M 48.000011,9.499997 C 26.75702,9.499997 9.5,26.757019 9.5,48.000001 9.5,69.242986 26.75702,86.500003 48.000011,86.500003 69.242969,86.500003 86.50003,69.242986 86.5,48.000002 86.5,26.757019 69.242969,9.499997 48.000011,9.499997 Z"
     id="path2555-7-8-5-0-9"
     style="color:#000000;display:inline;overflow:visible;visibility:visible;opacity:0.99;fill:url(#linearGradient11527-6-5);fill-opacity:1;fill-rule:nonzero;stroke:none;stroke-width:0.999993;marker:none;enable-background:accumulate" />
  <path
     d="m 85.500002,47.998673 c 0,20.711382 -16.790585,37.501364 -37.499548,37.501364 -20.710871,0 -37.500456,-16.790179 -37.500456,-37.501364 0,-20.710394 16.789585,-37.498679 37.500456,-37.498679 20.708963,0 37.499548,16.788285 37.499548,37.498679 z"
     id="path8655-6-0-9-5-0"
     style="color:#000000;display:inline;overflow:visible;visibility:visible;opacity:0.5;fill:none;stroke:url(#linearGradient12398-3);stroke-width:0.999994;stroke-linecap:round;stroke-linejoin:round;stroke-miterlimit:4;stroke-dasharray:none;stroke-dashoffset:0;stroke-opacity:1;marker:none;enable-background:accumulate" />
  <path
     d="m 48.000007,9.499997 c -21.242973,0 -38.5000071,17.257029 -38.5000071,38.500002 0,21.242972 17.2570341,38.500004 38.5000071,38.500004 21.24297,0 38.500015,-17.257032 38.499993,-38.500004 C 86.5,26.757026 69.242977,9.499996 48.000007,9.499997 Z"
     id="path2555-4"
     style="color:#000000;clip-rule:nonzero;display:inline;overflow:visible;visibility:visible;opacity:0.5;isolation:auto;mix-blend-mode:normal;color-interpolation:sRGB;color-interpolation-filters:linearRGB;solid-color:#000000;solid-opacity:1;vector-effect:none;fill:none;fill-opacity:1;fill-rule:nonzero;stroke:#002e99;stroke-width:1;stroke-linecap:round;stroke-linejoin:round;stroke-miterlimit:4;stroke-dasharray:none;stroke-dashoffset:0;stroke-opacity:1;marker:none;color-rendering:auto;image-rendering:auto;shape-rendering:auto;text-rendering:auto;enable-background:accumulate" />
  <path
     style="opacity:0.05;vector-effect:none;fill:#002e99;fill-opacity:1;stroke:none;stroke-width:0.999997;stroke-linecap:butt;stroke-linejoin:miter;stroke-miterlimit:4;stroke-dasharray:none;stroke-dashoffset:0;stroke-opacity:1;marker:none"
     id="path2851-3-6"
     d="m 48.276856,21.999997 c -3.741791,0 -6.795411,3.045137 -6.795411,6.780762 0,3.735622 3.05362,6.780761 6.795411,6.780761 3.741791,0 6.796875,-3.044909 6.796875,-6.780761 0,-3.735854 -3.055085,-6.780762 -6.796875,-6.780762 z M 26.418457,34.725095 c -0.401647,0.0067 -0.752079,0.143445 -1.072266,0.297363 -0.758223,0.364487 -1.414686,1.113374 -1.426758,2.0625 a 0.7778946,0.7778946 0 0 0 0,0.0015 c -0.01152,0.977702 0.610408,1.784772 1.40918,2.192871 a 0.7778946,0.7778946 0 0 0 0.131836,0.05273 l 15.461426,4.628873 -0.102539,10.939454 -5.469727,17.320312 a 0.7778946,0.7778946 0 0 0 -0.0074,0.0249 c -0.314975,1.125032 -0.186578,2.198282 0.410156,3.011724 0.504503,0.687713 1.376651,0.827295 2.0625,0.679688 0.685849,-0.147615 1.313463,-0.525668 1.725586,-1.12647 a 0.7778946,0.7778946 0 0 0 0.0586,-0.09961 l 8.418479,-17.359863 8.25586,17.321779 a 0.7778946,0.7778946 0 0 0 0.03077,0.06007 c 0.700034,1.190729 2.249548,1.595782 3.458496,0.924314 0.633682,-0.351952 0.99923,-0.978449 1.108886,-1.579102 0.109656,-0.600653 0.01624,-1.189092 -0.175781,-1.710937 l 0.01319,0.03662 -5.44043,-17.400879 -0.205078,-10.281738 15.711915,-5.462402 a 0.7778946,0.7778946 0 0 0 0.183105,-0.09228 c 0.947175,-0.645594 1.367514,-1.865659 0.944824,-2.948731 -0.195697,-0.501455 -0.55913,-0.928379 -1.018066,-1.145508 -0.440562,-0.208435 -0.907385,-0.221223 -1.369629,-0.175781 -0.389685,-0.02431 -0.786669,-0.015 -1.202637,0.117187 l 0.125972,-0.02931 -20.446289,2.912109 -20.336426,-2.95459 0.09082,0.01758 c -0.555513,-0.150084 -0.926585,-0.241044 -1.328614,-0.234375 z" />
  <path
     style="opacity:0.15;vector-effect:none;fill:#002e99;fill-opacity:1;stroke:none;stroke-width:0.999997;stroke-linecap:butt;stroke-linejoin:miter;stroke-miterlimit:4;stroke-dasharray:none;stroke-dashoffset:0;stroke-opacity:1;marker:none"
     id="path2851-3"
     d="m 54.295421,29.003314 c 0,3.313829 -2.696151,6.003315 -6.018195,6.003315 -3.322044,0 -6.018195,-2.689486 -6.018195,-6.003315 0,-3.31383 2.696151,-6.003317 6.018195,-6.003317 3.322044,0 6.018195,2.689487 6.018195,6.003317 z m 14.253786,6.974527 -20.557355,2.926204 -20.446636,-2.970303 c -1.078002,-0.291247 -1.271658,-0.270522 -1.862246,0.01338 -0.590589,0.283903 -0.977761,0.730413 -0.985904,1.370725 -0.0075,0.640399 0.402658,1.192677 0.985904,1.490662 l 16.021934,4.798464 -0.109591,11.639115 -5.503813,17.43164 c -0.27292,0.974818 -0.166116,1.722658 0.2885,2.342368 0.575676,0.78474 1.974996,0.36801 2.519553,-0.42585 l 9.1236,-18.815752 8.951379,18.78324 c 0.484027,0.823312 1.562982,1.10931 2.40999,0.638865 0.847009,-0.470438 0.885432,-1.51914 0.582478,-2.342456 L 54.493241,55.35151 54.274186,44.39407 70.52093,38.74615 c 0.656434,-0.447425 0.94161,-1.29447 0.657293,-2.022983 -0.284339,-0.728592 -0.837762,-0.92625 -1.63432,-0.837968 -0.285267,-0.02305 -0.745977,0.01361 -0.994696,0.09264 z" />
  <path
     style="fill:#ffffff;fill-opacity:1;stroke:none;stroke-width:0.999997"
     id="path2851"
     d="m 54.295421,28.003314 c 0,3.313829 -2.696151,6.003315 -6.018195,6.003315 -3.322044,0 -6.018195,-2.689486 -6.018195,-6.003315 0,-3.31383 2.696151,-6.003317 6.018195,-6.003317 3.322044,0 6.018195,2.689487 6.018195,6.003317 z m 14.253786,6.974527 -20.557355,2.926204 -20.446636,-2.970303 c -1.078002,-0.291247 -1.271658,-0.270522 -1.862246,0.01338 -0.590589,0.283903 -0.977761,0.730413 -0.985904,1.370725 -0.0075,0.640399 0.402658,1.192677 0.985904,1.490662 l 16.021934,4.798464 -0.109591,11.639115 -5.503813,17.43164 c -0.27292,0.97482 -0.166116,1.722654 0.2885,2.342364 0.575676,0.78474 1.974996,0.36801 2.519553,-0.42585 l 9.1236,-18.815748 8.951379,18.783236 c 0.484027,0.823312 1.562982,1.10931 2.40999,0.638865 0.847009,-0.470438 0.885432,-1.519139 0.582478,-2.342452 L 54.493241,54.35151 54.274186,43.39407 70.52093,37.74615 c 0.656434,-0.447425 0.94161,-1.29447 0.657293,-2.022983 -0.284339,-0.728592 -0.837762,-0.92625 -1.63432,-0.837968 -0.285267,-0.02305 -0.745977,0.01361 -0.994696,0.09264 z" />
</svg>
