<?xml version="1.0" encoding="UTF-8" standalone="no"?>
<!-- Created with Inkscape (http://www.inkscape.org/) -->

<svg
   xmlns:dc="http://purl.org/dc/elements/1.1/"
   xmlns:cc="http://creativecommons.org/ns#"
   xmlns:rdf="http://www.w3.org/1999/02/22-rdf-syntax-ns#"
   xmlns:svg="http://www.w3.org/2000/svg"
   xmlns="http://www.w3.org/2000/svg"
   xmlns:xlink="http://www.w3.org/1999/xlink"
   xmlns:sodipodi="http://sodipodi.sourceforge.net/DTD/sodipodi-0.dtd"
   xmlns:inkscape="http://www.inkscape.org/namespaces/inkscape"
   version="1.0"
   width="96"
   height="96"
   id="svg6476"
   inkscape:version="0.48+devel r"
   sodipodi:docname="preferences-desktop-sound.svg.2014_01_25_22_16_25.0.svg">
  <metadata
     id="metadata91957">
    <rdf:RDF>
      <cc:Work
         rdf:about="">
        <dc:format>image/svg+xml</dc:format>
        <dc:type
           rdf:resource="http://purl.org/dc/dcmitype/StillImage" />
        <dc:title />
      </cc:Work>
    </rdf:RDF>
  </metadata>
  <sodipodi:namedview
     pagecolor="#ffffff"
     bordercolor="#666666"
     borderopacity="1"
     objecttolerance="10"
     gridtolerance="10"
     guidetolerance="10"
     inkscape:pageopacity="0"
     inkscape:pageshadow="2"
     inkscape:window-width="1535"
     inkscape:window-height="876"
     id="namedview91955"
     showgrid="true"
     inkscape:zoom="4"
     inkscape:cx="36.725344"
     inkscape:cy="62.106105"
     inkscape:window-x="65"
     inkscape:window-y="24"
     inkscape:window-maximized="1"
     inkscape:current-layer="svg6476">
    <inkscape:grid
       type="xygrid"
       id="grid3083"
       empspacing="5"
       visible="true"
       enabled="true"
       snapvisiblegridlinesonly="true" />
  </sodipodi:namedview>
  <defs
     id="defs6478">
    <linearGradient
       id="linearGradient17123">
      <stop
         id="stop17125"
         style="stop-color:#000000;stop-opacity:1"
         offset="0" />
      <stop
         id="stop17127"
         style="stop-color:#000000;stop-opacity:0"
         offset="1" />
    </linearGradient>
    <linearGradient
       id="linearGradient6700">
      <stop
         id="stop6702"
         style="stop-color:#ffffff;stop-opacity:1"
         offset="0" />
      <stop
         id="stop6704"
         style="stop-color:#ffffff;stop-opacity:0"
         offset="1" />
    </linearGradient>
    <linearGradient
       id="linearGradient6628">
      <stop
         id="stop6630"
         style="stop-color:#000000;stop-opacity:1"
         offset="0" />
      <stop
         id="stop6632"
         style="stop-color:#000000;stop-opacity:0"
         offset="1" />
    </linearGradient>
    <linearGradient
       id="linearGradient3844">
      <stop
         id="stop3846"
         style="stop-color:#e8e8e8;stop-opacity:1"
         offset="0" />
      <stop
         id="stop3848"
         style="stop-color:#a5a6a8;stop-opacity:1"
         offset="1" />
    </linearGradient>
    <linearGradient
       id="linearGradient6589-510-471-936">
      <stop
         id="stop5849"
         style="stop-color:#878a85;stop-opacity:1"
         offset="0" />
      <stop
         id="stop5851"
         style="stop-color:#3e3f3d;stop-opacity:1"
         offset="1" />
    </linearGradient>
    <linearGradient
       id="linearGradient6643">
      <stop
         id="stop6645"
         style="stop-color:#4c4c4c;stop-opacity:1"
         offset="0" />
      <stop
         id="stop6647"
         style="stop-color:#d3d7cf;stop-opacity:1"
         offset="1" />
    </linearGradient>
    <linearGradient
       id="linearGradient4718">
      <stop
         id="stop4720"
         style="stop-color:#767973;stop-opacity:1"
         offset="0" />
      <stop
         id="stop4722"
         style="stop-color:#202120;stop-opacity:1"
         offset="1" />
    </linearGradient>
    <linearGradient
       id="linearGradient6573">
      <stop
         id="stop6575"
         style="stop-color:#ffffff;stop-opacity:1"
         offset="0" />
      <stop
         id="stop6577"
         style="stop-color:#ffffff;stop-opacity:0"
         offset="1" />
    </linearGradient>
    <linearGradient
       id="linearGradient6379">
      <stop
         id="stop6381"
         style="stop-color:#ffffff;stop-opacity:0"
         offset="0" />
      <stop
         id="stop21606"
         style="stop-color:#ffffff;stop-opacity:1"
         offset="0.5" />
      <stop
         id="stop6383"
         style="stop-color:#ffffff;stop-opacity:0"
         offset="1" />
    </linearGradient>
    <linearGradient
       id="linearGradient6651">
      <stop
         id="stop6653"
         style="stop-color:#ffffff;stop-opacity:1"
         offset="0" />
      <stop
         id="stop6655"
         style="stop-color:#ffffff;stop-opacity:0"
         offset="1" />
    </linearGradient>
    <linearGradient
       id="linearGradient5292">
      <stop
         id="stop5294"
         style="stop-color:#4b4b4b;stop-opacity:1"
         offset="0" />
      <stop
         id="stop5296"
         style="stop-color:#babdb6;stop-opacity:1"
         offset="1" />
    </linearGradient>
    <linearGradient
       id="linearGradient6633">
      <stop
         id="stop6635"
         style="stop-color:#eeeeec;stop-opacity:1"
         offset="0" />
      <stop
         id="stop6637"
         style="stop-color:#61635f;stop-opacity:1"
         offset="1" />
    </linearGradient>
    <linearGradient
       id="linearGradient6546-397-668-696-989">
      <stop
         id="stop4870"
         style="stop-color:#383937;stop-opacity:1"
         offset="0" />
      <stop
         id="stop4872"
         style="stop-color:#595b57;stop-opacity:1"
         offset="1" />
    </linearGradient>
    <linearGradient
       id="linearGradient6531">
      <stop
         id="stop6533"
         style="stop-color:#ffffff;stop-opacity:1"
         offset="0" />
      <stop
         id="stop6535"
         style="stop-color:#ffffff;stop-opacity:0"
         offset="1" />
    </linearGradient>
    <linearGradient
       id="linearGradient3858">
      <stop
         id="stop3860"
         style="stop-color:#a0a0a0;stop-opacity:1"
         offset="0" />
      <stop
         id="stop3862"
         style="stop-color:#4a4a4a;stop-opacity:1"
         offset="1" />
    </linearGradient>
    <linearGradient
       id="linearGradient5262">
      <stop
         id="stop5264"
         style="stop-color:#babdb6;stop-opacity:1"
         offset="0" />
      <stop
         id="stop5266"
         style="stop-color:#eeeeec;stop-opacity:1"
         offset="0.43738842" />
      <stop
         id="stop5268"
         style="stop-color:#555753;stop-opacity:1"
         offset="1" />
    </linearGradient>
    <radialGradient
       cx="11.402097"
       cy="36.863068"
       r="10.69499"
       fx="11.402097"
       fy="36.863068"
       id="radialGradient2484"
       xlink:href="#linearGradient17123"
       gradientUnits="userSpaceOnUse"
       gradientTransform="matrix(3.4111746,0,0,1.7642642,6.6879344,10.2262)" />
    <linearGradient
       x1="16.790216"
       y1="21.270329"
       x2="29.694229"
       y2="46.259285"
       id="linearGradient2518"
       xlink:href="#linearGradient6700"
       gradientUnits="userSpaceOnUse"
       gradientTransform="matrix(2.3868426,-0.65164201,0.65133466,2.476764,-20.820991,-4.8830874)" />
    <linearGradient
       x1="23.238182"
       y1="12.158657"
       x2="29.892563"
       y2="26.354361"
       id="linearGradient2522"
       xlink:href="#linearGradient6628"
       gradientUnits="userSpaceOnUse"
       gradientTransform="matrix(1.9368086,-0.51554903,0.57240124,2.1221655,-6.1100298,2.3716159)" />
    <radialGradient
       cx="30.685316"
       cy="42.261425"
       r="8.22791"
       fx="30.685316"
       fy="42.261425"
       id="radialGradient2525"
       xlink:href="#linearGradient3844"
       gradientUnits="userSpaceOnUse"
       gradientTransform="matrix(8.6720321,-2.0430692,-1.4631602,-5.434143,-164.0589,312.48397)" />
    <radialGradient
       cx="20.8839"
       cy="20.434256"
       r="3.9999843"
       fx="20.8839"
       fy="20.434256"
       id="radialGradient2528"
       xlink:href="#linearGradient6589-510-471-936"
       gradientUnits="userSpaceOnUse"
       gradientTransform="matrix(2.8077607,-0.74738423,0.89661165,3.3241673,-27.467386,-5.5615086)" />
    <radialGradient
       cx="23.164974"
       cy="30.23279"
       r="8.1890125"
       fx="23.164974"
       fy="30.23279"
       id="radialGradient2531"
       xlink:href="#linearGradient4718"
       gradientUnits="userSpaceOnUse"
       gradientTransform="matrix(4.5958551,-1.0006731,1.7433546,8.141237,-105.44675,-162.8168)" />
    <linearGradient
       x1="33.430557"
       y1="45.052155"
       x2="33.430557"
       y2="0.31037101"
       id="linearGradient2533"
       xlink:href="#linearGradient6643"
       gradientUnits="userSpaceOnUse"
       gradientTransform="matrix(2.6562686,-0.71808402,0.68361467,2.5740081,-28.169384,-5.2797909)" />
    <linearGradient
       x1="19.240318"
       y1="4.8111696"
       x2="11.323519"
       y2="35.457581"
       id="linearGradient2536"
       xlink:href="#linearGradient6573"
       gradientUnits="userSpaceOnUse"
       gradientTransform="matrix(1.937198,-0.51565355,0.50043131,1.8553371,5.9940478,19.104964)" />
    <linearGradient
       x1="20.226221"
       y1="20.33363"
       x2="11.4375"
       y2="21.75"
       id="linearGradient2539"
       xlink:href="#linearGradient6379"
       gradientUnits="userSpaceOnUse"
       gradientTransform="matrix(1.4295475,-0.38052411,0.57456895,2.130203,1.0080575,6.3285929)" />
    <radialGradient
       cx="23.986883"
       cy="27.053167"
       r="7.75"
       fx="23.986883"
       fy="27.053167"
       id="radialGradient2542"
       xlink:href="#linearGradient6651"
       gradientUnits="userSpaceOnUse"
       gradientTransform="matrix(-0.68999203,0.18366573,-0.73972655,-2.7425217,76.036249,123.57079)" />
    <radialGradient
       cx="9.3203983"
       cy="18.817093"
       r="12.5"
       fx="9.3203983"
       fy="18.817093"
       id="radialGradient2545"
       xlink:href="#linearGradient6633"
       gradientUnits="userSpaceOnUse"
       gradientTransform="matrix(1.8294414,0.70516925,-1.3129738,3.0401583,41.559548,-17.125451)" />
    <linearGradient
       x1="7.75"
       y1="33.046577"
       x2="4.6431866"
       y2="12.063652"
       id="linearGradient2547"
       xlink:href="#linearGradient5292"
       gradientUnits="userSpaceOnUse"
       gradientTransform="matrix(1.9544622,-0.52024818,0.50492453,1.8719976,5.6020026,18.416576)" />
    <linearGradient
       x1="80.693359"
       y1="31.561478"
       x2="77.125"
       y2="14"
       id="linearGradient2550"
       xlink:href="#linearGradient6546-397-668-696-989"
       gradientUnits="userSpaceOnUse"
       gradientTransform="matrix(2.1467915,-0.57171027,0.57523078,2.1336546,-152.22987,54.903448)" />
    <linearGradient
       x1="9.883214"
       y1="14.05074"
       x2="5.1012387"
       y2="30.00112"
       id="linearGradient2553"
       xlink:href="#linearGradient6531"
       gradientUnits="userSpaceOnUse"
       gradientTransform="matrix(2.1267676,-0.54627711,0.63761142,2.2811005,-1.8883169,11.081971)" />
    <linearGradient
       x1="102.35701"
       y1="-41.092239"
       x2="82.681335"
       y2="-41.092239"
       id="linearGradient2556"
       xlink:href="#linearGradient5262"
       gradientUnits="userSpaceOnUse"
       gradientTransform="matrix(0.26305785,0.97528069,-0.92696062,0.24674299,-42.33846,-31.141152)"
       spreadMethod="reflect" />
    <linearGradient
       x1="84.425995"
       y1="8.2933674"
       x2="102.42599"
       y2="8.2933674"
       id="linearGradient2558"
       xlink:href="#linearGradient3858"
       gradientUnits="userSpaceOnUse"
       gradientTransform="matrix(0.57456935,2.1302037,-2.1443237,0.57078646,-8.071241,-146.57859)" />
  </defs>
  <path
     d="M 82.065,75.262266 C 82.065,85.683148 65.731258,94.131 45.582499,94.131 25.433764,94.131 9.0999999,85.683148 9.1,75.262266 9.0999999,64.84134 25.433764,56.393487 45.582499,56.393487 c 20.148759,0 36.482501,8.447853 36.482501,18.868779 z"
     id="path16236"
     style="opacity:0.3;fill:url(#radialGradient2484);fill-opacity:1;stroke:none;display:inline"
     inkscape:connector-curvature="0" />
  <path
     d="m 27.550777,57.751869 c 1.867041,6.922062 0.299504,13.353629 -3.501211,14.365312 -3.800696,1.011679 -8.395268,-3.779622 -10.262314,-10.701672 -1.867076,-6.922067 -0.299575,-13.353627 3.501111,-14.365317 3.800725,-1.0117 8.395356,3.779622 10.262414,10.701677 z"
     id="path5330"
     style="fill:#2e3436;fill-opacity:1;stroke:none"
     inkscape:connector-curvature="0" />
  <path
     d="m 16.314601,54.26496 c 0.238009,0.882361 -0.289094,1.789322 -1.177266,2.025731 -0.88822,0.236452 -1.801196,-0.287183 -2.039192,-1.169569 -0.237989,-0.882369 0.289119,-1.789267 1.177317,-2.025736 0.888206,-0.236442 1.801147,0.287209 2.039141,1.169574 z"
     id="path6659"
     style="fill:#babdb6;fill-opacity:1;stroke:none;display:inline"
     inkscape:connector-curvature="0" />
  <path
     d="m 19.054386,40.09961 c -4.290747,1.142142 -5.58516,10.180974 -2.889316,20.175818 2.695881,9.994882 8.366232,17.179788 12.657037,16.037642 l 7.77314,-2.069091 C 40.886054,73.101832 42.180466,64.063019 39.484591,54.068142 36.788712,44.073265 31.118378,36.888371 26.827569,38.030503 l -7.773183,2.069107 z"
     id="path2766"
     style="fill:url(#linearGradient2556);fill-opacity:1;fill-rule:nonzero;stroke:url(#linearGradient2558);stroke-width:0.99999946;stroke-linecap:butt;stroke-linejoin:miter;stroke-miterlimit:4;stroke-opacity:1;stroke-dasharray:none;stroke-dashoffset:0;marker:none;visibility:visible;display:inline;overflow:visible;enable-background:accumulate"
     inkscape:connector-curvature="0" />
  <path
     d="m 19.108073,41.158101 c -1.113203,0.307589 -2.549521,1.957561 -3.043669,5.410384 -0.494113,3.452822 -0.299874,8.335517 1.1143,13.394985 1.414269,5.059469 3.631899,9.478617 5.860777,12.232014 2.228868,2.753408 4.465707,3.482157 5.578962,3.174439 l 8.065113,-2.229303 c 1.113257,-0.307719 1.986579,-1.892687 2.480675,-5.345507 0.494105,-3.452805 0.173718,-8.297941 -1.240463,-13.357412 -1.414252,-5.059437 -2.863971,-9.409006 -5.092845,-12.162414 -2.22888,-2.753401 -4.357318,-3.639284 -5.474562,-3.346495 -3.113219,0.815861 -5.716282,1.529691 -8.248288,2.229309 z"
     id="path5556"
     style="opacity:0.4;fill:none;stroke:url(#linearGradient2553);stroke-width:0.99999964;stroke-linecap:round;stroke-linejoin:miter;stroke-miterlimit:4;stroke-opacity:1;stroke-dasharray:none;stroke-dashoffset:0;display:inline"
     inkscape:connector-curvature="0"
     sodipodi:nodetypes="sssssssssss" />
  <path
     d="m 26.915559,39.21103 c -4.380894,1.166704 -5.878867,9.745663 -3.343654,19.149428 2.535228,9.403728 8.148422,16.088963 12.529358,14.92228 l 1.368373,-0.36441 c 4.380969,-1.166678 5.87895,-9.745654 3.343663,-19.149408 -2.53522,-9.40375 -8.148412,-16.088975 -12.529348,-14.9223 l -1.368392,0.36441 z"
     id="path6556"
     style="fill:url(#linearGradient2550);fill-opacity:1;stroke:none;display:inline"
     inkscape:connector-curvature="0" />
  <path
     d="m 29.414363,56.218964 c 5.301706,19.65597 28.031087,25.644147 40.228052,22.3975 8.443261,-2.247479 11.277844,-17.833325 6.678992,-34.88346 C 71.72256,26.682851 61.423152,14.593092 52.979891,16.840557 40.782937,20.087211 24.112642,36.562998 29.414363,56.218964 Z"
     id="path1871"
     style="fill:url(#radialGradient2545);fill-opacity:1;stroke:url(#linearGradient2547);stroke-width:0.99999946;stroke-linecap:round;stroke-linejoin:miter;stroke-miterlimit:4;stroke-opacity:1;stroke-dasharray:none;stroke-dashoffset:0"
     inkscape:connector-curvature="0" />
  <path
     d="M 78.084687,43.504906 C 83.47924,63.505081 78.012025,82.337799 65.873081,85.568929 53.734239,88.800108 39.520649,75.206194 34.126073,55.206044 28.731576,35.205887 34.198853,16.373215 46.337694,13.142044 58.476576,9.910836 72.690181,23.504777 78.084687,43.504906 l 0,0 z"
     id="path6649"
     style="fill:url(#radialGradient2542);fill-opacity:1;stroke:none;display:inline"
     inkscape:connector-curvature="0" />
  <path
     d="m 38.23232,26.542152 c -4.138566,4.608245 -8.455905,14.091108 -11.648563,23.911585 5.141694,-3.939664 10.866694,-6.930843 16.36714,-7.914426 z"
     id="path6639"
     style="opacity:0.7335907;fill:url(#linearGradient2539);fill-opacity:1;fill-rule:evenodd;stroke:none;display:inline"
     inkscape:connector-curvature="0"
     sodipodi:nodetypes="cccc" />
  <path
     d="m 53.439237,19.401307 c -5.416025,1.44167 -13.331128,5.232264 -18.096312,11.738497 -4.793366,6.544711 -7.484616,15.834022 -4.933254,24.994216 2.572633,9.236564 10.051462,16.063488 17.463512,19.279399 7.422253,3.220337 15.663418,2.945093 21.079424,1.503416 3.065631,-0.816015 5.540041,-4.345609 6.65112,-10.221744 C 76.714789,60.818956 76.367469,52.928326 74.150963,44.710648 71.93444,36.49295 68.263759,29.486942 64.344007,24.949946 60.424253,20.412938 56.504866,18.585295 53.439237,19.401307 Z"
     id="path6567"
     style="opacity:0.4;fill:none;stroke:url(#linearGradient2536);stroke-width:0.99999946;stroke-linecap:round;stroke-linejoin:miter;stroke-miterlimit:4;stroke-opacity:1;stroke-dasharray:none;stroke-dashoffset:0;display:inline"
     inkscape:connector-curvature="0"
     sodipodi:nodetypes="sssssssss" />
  <path
     d="M 78.585962,42.934783 C 84.839131,66.479771 80.691624,88.058378 69.322249,91.13193 57.952879,94.205473 43.666977,77.610081 37.413803,54.065075 31.160629,30.520054 35.308148,8.941469 46.677531,5.8679266 58.046891,2.7943721 72.33279,19.38979 78.585962,42.934783 l 0,0 z"
     id="path1873"
     style="fill:url(#radialGradient2531);fill-opacity:1;stroke:url(#linearGradient2533);stroke-width:0.99999946;stroke-linecap:round;stroke-linejoin:miter;stroke-miterlimit:4;stroke-opacity:1;stroke-dasharray:none;stroke-dashoffset:0"
     inkscape:connector-curvature="0" />
  <path
     d="m 56.284038,49.280048 c 1.427229,5.291433 -2.524236,10.946041 -6.134094,11.906922 -3.609853,0.960884 -7.69793,-2.553737 -9.125154,-7.845165 -1.427227,-5.291415 0.344176,-10.365756 3.954051,-11.326656 3.609839,-0.960899 9.87797,1.973489 11.305197,7.264899 z"
     id="path3672"
     style="fill:url(#radialGradient2528);fill-opacity:1;stroke:#3e3f3d;stroke-width:1.0000006;stroke-linecap:round;stroke-linejoin:miter;stroke-miterlimit:4;stroke-opacity:1;stroke-dashoffset:0"
     inkscape:connector-curvature="0" />
  <path
     d="M 73.48773,45.336932 C 76.873511,64.978986 76.556147,81.583729 68.266217,83.790377 59.976267,85.997026 48.793409,72.266403 43.557524,52.854506 38.321628,33.442594 40.939268,15.177196 49.305427,13.276673 58.145933,11.26836 68.379579,28.273654 72.767494,42.62242 Z"
     id="path6615"
     style="opacity:0.3;fill:none;stroke:url(#linearGradient2522);stroke-width:0.99999946;stroke-linecap:round;stroke-linejoin:miter;stroke-miterlimit:4;stroke-opacity:1;stroke-dasharray:none;stroke-dashoffset:0;display:inline"
     inkscape:connector-curvature="0"
     sodipodi:nodetypes="cssscc" />
  <path
     d="m 19.351758,47.29498 c 0.31734,1.17643 -0.385491,2.385722 -1.569757,2.700952 -1.184285,0.31523 -2.401517,-0.382912 -2.718915,-1.559428 -0.317306,-1.176483 0.385502,-2.385758 1.569784,-2.70097 1.184273,-0.315223 2.401579,0.382916 2.718888,1.559446 z"
     id="path6661"
     style="fill:#ffffff;fill-opacity:1;stroke:none;display:inline"
     inkscape:connector-curvature="0" />
  <path
     d="M 47.04014,6.2224155 C 40.612862,7.81495 37.029533,15.222097 35.668961,23.902456 c -1.375649,8.085161 -0.677877,19.061289 2.285855,30.205834 3.045018,11.450205 8.06577,21.195228 13.455172,27.620318 5.416975,6.457961 12.034242,10.471279 17.715902,8.956266 5.681617,-1.51499 9.732639,-8.175111 11.153558,-16.467719 0.888081,-5.18291 0.966774,-12.864961 0.171893,-19.418257 -0.02535,-0.206619 -0.06865,-0.414524 -0.09505,-0.622069 C 80.193309,52.915152 79.99485,51.668463 79.76701,50.377326 79.560763,49.174391 79.345565,47.973418 79.078937,46.748 c -0.01449,-0.06752 -0.03921,-0.133961 -0.05434,-0.201399 -0.285304,-1.295564 -0.626968,-2.596969 -0.980744,-3.910949 -0.37264,-1.38399 -0.74176,-2.747946 -1.169849,-4.076377 -0.377702,-1.18065 -0.81141,-2.34977 -1.227632,-3.485419 -0.451349,-1.231561 -0.905881,-2.409984 -1.398655,-3.583668 -0.08421,-0.196734 -0.144776,-0.391334 -0.2301,-0.586128 C 71.413418,24.83319 68.584108,19.983324 65.210953,15.936706 59.813922,9.4621119 54.037989,4.9245236 47.04014,6.2224155 Z m 2.126053,5.9769535 c 4.148802,-1.10629 8.803368,1.93386 13.620465,7.735331 3.010737,3.625927 5.193517,7.657264 7.598331,13.222067 2.90866,7.006554 5.376918,14.686076 6.393286,21.628749 0.713321,6.015872 0.688098,13.032236 -0.09766,17.670463 C 75.423718,79.877141 72.977633,84.120002 68.82877,85.226326 64.679982,86.332582 59.648529,83.609582 54.831451,77.808145 50.014382,72.006642 45.499048,63.283755 42.7428,53.047177 39.986555,42.810591 39.514284,33.009637 40.771215,25.5885 42.02809,18.167365 45.017342,13.305676 49.166193,12.199369 Z"
     id="path6605"
     style="fill:url(#radialGradient2525);fill-opacity:1;stroke:none;display:inline"
     inkscape:connector-curvature="0"
     sodipodi:nodetypes="ccsssscscccscsccsccsccsssssc" />
  <path
     d="M 78.480035,46.366162 C 83.439018,69.566053 79.288121,86.776019 69.180188,90.161951 58.311282,92.999897 44.554654,76.286767 38.260267,53.348174 32.186692,31.214286 36.473228,8.549229 47.537493,6.6361879 58,4.5323735 72.414662,20.814593 78.088646,44.717063 Z"
     id="path6698"
     style="opacity:0.4;fill:none;stroke:url(#linearGradient2518);stroke-width:0.99999958;stroke-linecap:round;stroke-linejoin:miter;stroke-miterlimit:4;stroke-opacity:1;stroke-dasharray:none;stroke-dashoffset:0;display:inline"
     inkscape:connector-curvature="0"
     sodipodi:nodetypes="ccsccc" />
  <path
     d="m 39.709876,25.705441 c 0.317313,1.176506 -0.385491,2.385747 -1.569786,2.701034 -1.184273,0.315214 -2.401583,-0.382984 -2.718895,-1.559459 -0.317329,-1.176448 0.385479,-2.38575 1.569757,-2.700954 1.184306,-0.31528 2.401563,0.382917 2.718924,1.559379 z"
     id="path5501"
     style="opacity:0.6;fill:#ffffff;fill-opacity:1;stroke:none;display:inline"
     inkscape:connector-curvature="0" />
</svg>
