<?xml version="1.0" encoding="UTF-8" standalone="no"?>
<svg
   width="96"
   height="96"
   id="svg3658"
   version="1.1"
   sodipodi:docname="snap-store.svg"
   inkscape:version="1.2.2 (b0a8486541, 2022-12-01)"
   xmlns:inkscape="http://www.inkscape.org/namespaces/inkscape"
   xmlns:sodipodi="http://sodipodi.sourceforge.net/DTD/sodipodi-0.dtd"
   xmlns:xlink="http://www.w3.org/1999/xlink"
   xmlns="http://www.w3.org/2000/svg"
   xmlns:svg="http://www.w3.org/2000/svg">
  <sodipodi:namedview
     id="namedview56"
     pagecolor="#ffffff"
     bordercolor="#666666"
     borderopacity="1.0"
     inkscape:pageshadow="2"
     inkscape:pageopacity="0.0"
     inkscape:pagecheckerboard="0"
     showgrid="false"
     inkscape:zoom="5.0234043"
     inkscape:cx="40.510376"
     inkscape:cy="51.558661"
     inkscape:window-width="1360"
     inkscape:window-height="893"
     inkscape:window-x="888"
     inkscape:window-y="61"
     inkscape:window-maximized="0"
     inkscape:current-layer="svg3658"
     width="64px"
     showguides="false"
     inkscape:showpageshadow="2"
     inkscape:deskcolor="#d1d1d1" />
  <defs
     id="defs3660">
    <linearGradient
       id="linearGradient2368">
      <stop
         style="stop-color:#0d5d6f;stop-opacity:1"
         offset="0"
         id="stop2364" />
      <stop
         style="stop-color:#004f62;stop-opacity:1"
         offset="1"
         id="stop2366" />
    </linearGradient>
    <linearGradient
       inkscape:collect="always"
       xlink:href="#linearGradient2368"
       id="linearGradient4884"
       x1="325.00024"
       y1="107.00019"
       x2="372.25275"
       y2="51.776531"
       gradientUnits="userSpaceOnUse"
       gradientTransform="matrix(0,-1.7297002,1.75555,0,-99.466425,647.51782)" />
    <linearGradient
       inkscape:collect="always"
       xlink:href="#linearGradient927"
       id="linearGradient1004"
       x1="344"
       y1="66.000679"
       x2="344"
       y2="102.00067"
       gradientUnits="userSpaceOnUse"
       gradientTransform="rotate(-90,344,84)" />
    <linearGradient
       inkscape:collect="always"
       id="linearGradient927">
      <stop
         style="stop-color:#ffffff;stop-opacity:1;"
         offset="0"
         id="stop923" />
      <stop
         id="stop933"
         offset="0.125"
         style="stop-color:#ffffff;stop-opacity:0.09803922" />
      <stop
         id="stop931"
         offset="0.92500001"
         style="stop-color:#ffffff;stop-opacity:0.09803922" />
      <stop
         style="stop-color:#ffffff;stop-opacity:0.49803922"
         offset="1"
         id="stop925" />
    </linearGradient>
    <clipPath
       clipPathUnits="userSpaceOnUse"
       id="clipPath994-3">
      <path
         style="color:#000000;display:inline;overflow:visible;visibility:visible;fill:#cdcdcd;fill-opacity:1;fill-rule:nonzero;stroke:none;stroke-width:2;stroke-miterlimit:4;stroke-dasharray:none;stroke-opacity:1;marker:none;enable-background:accumulate"
         d="m 335.73108,62 c -8.82418,0 -9.77365,0.90635 -9.7304,9.74838 V 84 96.25162 c -0.0433,8.84203 0.90622,9.74838 9.7304,9.74838 h 16.53919 c 8.82418,0 9.7304,-0.90625 9.7304,-9.74838 V 84 71.74838 C 362.00067,62.90625 361.09445,62 352.27027,62 Z"
         id="path996-5"
         inkscape:connector-curvature="0"
         sodipodi:nodetypes="scccssscsss" />
    </clipPath>
  </defs>
  <path
     style="color:#000000;font-style:normal;font-variant:normal;font-weight:normal;font-stretch:normal;font-size:medium;line-height:normal;font-family:sans-serif;font-variant-ligatures:normal;font-variant-position:normal;font-variant-caps:normal;font-variant-numeric:normal;font-variant-alternates:normal;font-feature-settings:normal;text-indent:0;text-align:start;text-decoration:none;text-decoration-line:none;text-decoration-style:solid;text-decoration-color:#000000;letter-spacing:normal;word-spacing:normal;text-transform:none;writing-mode:lr-tb;direction:ltr;text-orientation:mixed;dominant-baseline:auto;baseline-shift:baseline;text-anchor:start;white-space:normal;shape-padding:0;clip-rule:nonzero;display:inline;overflow:visible;visibility:visible;opacity:0.1;isolation:auto;mix-blend-mode:normal;color-interpolation:sRGB;color-interpolation-filters:linearRGB;solid-color:#000000;solid-opacity:1;vector-effect:none;fill:#000000;fill-opacity:1;fill-rule:nonzero;stroke:none;stroke-width:2;stroke-linecap:butt;stroke-linejoin:miter;stroke-miterlimit:4;stroke-dasharray:none;stroke-dashoffset:0;stroke-opacity:1;marker:none;color-rendering:auto;image-rendering:auto;shape-rendering:auto;text-rendering:auto;enable-background:accumulate"
     d="m 88.5,38.660868 c 0,-3.762153 -0.08824,-6.724479 -0.504904,-9.161969 -0.416685,-2.437507 -1.198263,-4.432101 -2.682712,-5.89316 -1.484434,-1.461042 -3.514821,-2.232185 -5.998222,-2.63753 -2.483419,-0.405346 -5.506863,-0.484476 -9.347424,-0.466031 H 48.000207 26.02318 c -3.834684,-0.01827 -6.856578,0.06109 -9.337324,0.466031 -2.483419,0.405345 -4.513807,1.176488 -5.99824,2.63753 -1.4844323,1.461059 -2.2660284,3.455653 -2.6827118,5.89316 C 7.5882035,31.936406 7.5,34.898715 7.5,38.660868 v 29.680171 c 0,3.76217 0.088066,6.722921 0.5049042,9.155385 0.4168731,2.432449 1.2011059,4.420959 2.6860728,5.876611 1.484967,1.455677 3.513907,2.222252 5.994879,2.630915 2.480953,0.408663 5.498245,0.49578 9.337324,0.49578 h 21.977027 21.97663 c 3.839061,0 6.856353,-0.08715 9.337325,-0.49578 2.480954,-0.408663 4.509894,-1.175254 5.99486,-2.630923 1.484967,-1.455669 2.269217,-3.444171 2.686074,-5.876619 C 88.411968,75.063962 88.5,72.103192 88.5,68.341039 Z"
     id="path1020"
     inkscape:connector-curvature="0"
     sodipodi:nodetypes="sccsccccccsscccscsccsss" />
  <path
     style="color:#000000;display:inline;overflow:visible;visibility:visible;fill:url(#linearGradient4884);fill-opacity:1;fill-rule:nonzero;stroke:none;stroke-width:1;marker:none;enable-background:accumulate"
     d="m 8.4999999,67.667798 c 0,14.238089 1.5911431,16.905477 17.1137691,16.830668 h 22.386019 22.386441 c 15.522627,0.0749 17.11377,-2.592579 17.11377,-16.830668 v -30.33716 c 0,-14.234552 -1.590968,-16.830658 -17.11377,-16.830658 H 47.999788 25.613769 c -15.522802,0 -17.1137691,2.596106 -17.1137691,16.830674 z"
     id="path964"
     inkscape:connector-curvature="0"
     sodipodi:nodetypes="scccssscsss" />
  <path
     style="color:#000000;display:inline;overflow:visible;visibility:visible;opacity:0.05;fill:#ffffff;fill-opacity:1;fill-rule:nonzero;stroke:none;stroke-width:0.999997;marker:none;enable-background:accumulate"
     d="M 8.5006967,52 V 67.375049 C 8.4450436,84.329734 11.700886,84.5 29.276639,84.5 H 66.72407 c 17.571368,0 20.775928,-0.273914 20.775928,-17.124951 V 52 Z"
     id="path964-1"
     inkscape:connector-curvature="0"
     sodipodi:nodetypes="ccssscc" />
  <ellipse
     style="display:inline;opacity:0.25;fill:#000000;stroke:none;stroke-width:9.99998;stroke-linecap:round;stroke-dasharray:none;stroke-opacity:1;enable-background:new"
     id="path21998"
     cx="35.234081"
     cy="25.175549"
     rx="3.4042451"
     ry="3.4004283" />
  <ellipse
     style="display:inline;opacity:0.25;fill:#000000;stroke:none;stroke-width:9.99998;stroke-linecap:round;stroke-dasharray:none;stroke-opacity:1;enable-background:new"
     id="path22000"
     cx="60.765919"
     cy="25.175549"
     rx="3.4042451"
     ry="3.4004283" />
  <path
     style="color:#000000;display:inline;overflow:visible;visibility:visible;opacity:0.4;fill:none;fill-opacity:1;fill-rule:nonzero;stroke:#000000;stroke-width:0.999998;stroke-miterlimit:4;stroke-dasharray:none;stroke-opacity:1;marker:none;enable-background:accumulate"
     d="m 87.500002,37.332201 c 0,-14.23809 -1.591142,-16.905476 -17.113768,-16.830667 H 48.000213 25.613769 C 10.091142,20.426638 8.4999991,23.094111 8.4999991,37.332201 v 30.337145 c 0,14.234549 1.5909679,16.830658 17.1137699,16.830658 h 22.386444 22.386021 c 15.5228,0 17.113768,-2.596109 17.113768,-16.830675 z"
     id="path958"
     inkscape:connector-curvature="0"
     sodipodi:nodetypes="scccssscsss" />
  <path
     sodipodi:nodetypes="scccssscsss"
     inkscape:connector-curvature="0"
     id="path990"
     d="m 335.73108,62 c -8.82418,0 -9.77365,0.90635 -9.7304,9.74838 V 84 96.25162 c -0.0433,8.84203 0.90622,9.74838 9.7304,9.74838 h 16.53919 c 8.82418,0 9.7304,-0.90625 9.7304,-9.74838 V 84 71.74838 C 362.00067,62.90625 361.09445,62 352.27027,62 Z"
     style="color:#000000;display:inline;overflow:visible;visibility:visible;opacity:0.2;fill:none;fill-opacity:1;fill-rule:nonzero;stroke:url(#linearGradient1004);stroke-width:1.13553;stroke-miterlimit:4;stroke-dasharray:none;stroke-opacity:1;marker:none;enable-background:accumulate"
     clip-path="url(#clipPath994-3)"
     transform="matrix(0,1.7499348,-1.7727273,0,196.9091,-549.47756)" />
  <path
     style="display:inline;fill:none;stroke:#d3d4d5;stroke-width:4;stroke-linecap:round;stroke-linejoin:miter;stroke-miterlimit:4;stroke-dasharray:none;stroke-opacity:1;enable-background:new"
     d="M 35.000012,24.000001 V 22 c 0,0 0,-12 12.999988,-12 12.999989,0 12.999989,12 12.999989,12 v 2.000001"
     id="path24398"
     inkscape:connector-curvature="0"
     sodipodi:nodetypes="ccscc" />
  <path
     id="path16623"
     style="fill:#000000;fill-opacity:0.5;stroke-width:0.999998"
     class="cls-2"
     d="M 22.943359,32.4 50,59.292578 V 42.177344 Z m 30.939453,8.59375 20.892579,9.287109 -4.642579,-9.287109 z M 52,42.513281 v 16.566407 l 11.46875,-11.46875 z m -8.347656,13.1875 -13.41211,25.148438 19.296875,-19.298828 z" />
  <path
     id="polygon26"
     style="fill:#82bfa1;fill-opacity:1;stroke-width:0.999998"
     class="cls-2"
     d="m 22.944,31.406 27.055758,9.777566 v 17.11437 z"
     sodipodi:nodetypes="cccc" />
  <path
     id="polygon28"
     style="fill:#82bfa1;fill-opacity:1;stroke-width:0.999998"
     class="cls-2"
     d="M 49.53799,60.55595 43.652788,54.706 30.24,79.85602 Z"
     sodipodi:nodetypes="cccc" />
  <path
     id="polygon30"
     style="fill:#82bfa1;fill-opacity:1;stroke-width:0.999998"
     class="cls-2"
     d="M 63.469716,46.617694 52,41.51843 v 16.566908 z"
     sodipodi:nodetypes="cccc" />
  <path
     id="polygon32"
     style="fill:#fa6340;fill-opacity:1;stroke-width:0.999998"
     class="cls-3"
     d="m 53.88366,40.000446 20.89268,9.286098 -4.64305,-9.286098 z"
     sodipodi:nodetypes="cccc" />
</svg>
