<?xml version="1.0" encoding="UTF-8" standalone="no"?>
<svg
   width="96"
   height="96"
   id="svg3658"
   version="1.1"
   sodipodi:docname="software-properties.svg"
   inkscape:version="1.1.2 (0a00cf5339, 2022-02-04)"
   xmlns:inkscape="http://www.inkscape.org/namespaces/inkscape"
   xmlns:sodipodi="http://sodipodi.sourceforge.net/DTD/sodipodi-0.dtd"
   xmlns:xlink="http://www.w3.org/1999/xlink"
   xmlns="http://www.w3.org/2000/svg"
   xmlns:svg="http://www.w3.org/2000/svg"
   xmlns:rdf="http://www.w3.org/1999/02/22-rdf-syntax-ns#"
   xmlns:cc="http://creativecommons.org/ns#">
  <sodipodi:namedview
     id="namedview56"
     pagecolor="#ffffff"
     bordercolor="#666666"
     borderopacity="1.0"
     inkscape:pageshadow="2"
     inkscape:pageopacity="0.0"
     inkscape:pagecheckerboard="0"
     showgrid="false"
     inkscape:zoom="5.0234045"
     inkscape:cx="68.877591"
     inkscape:cy="70.868273"
     inkscape:window-width="1317"
     inkscape:window-height="893"
     inkscape:window-x="1024"
     inkscape:window-y="79"
     inkscape:window-maximized="0"
     inkscape:current-layer="layer1" />
  <defs
     id="defs3660">
    <linearGradient
       inkscape:collect="always"
       id="linearGradient933">
      <stop
         style="stop-color:#3689e6;stop-opacity:1"
         offset="0"
         id="stop929" />
      <stop
         style="stop-color:#8cd5ff;stop-opacity:1"
         offset="1"
         id="stop931" />
    </linearGradient>
    <linearGradient
       xlink:href="#linearGradient3924"
       id="linearGradient2959"
       gradientUnits="userSpaceOnUse"
       gradientTransform="matrix(2.0810811,0,0,2.0810811,-1.9459378,-1.9459246)"
       x1="23.99999"
       y1="4.999989"
       x2="23.99999"
       y2="43" />
    <linearGradient
       id="linearGradient3924">
      <stop
         offset="0"
         style="stop-color:#ffffff;stop-opacity:1;"
         id="stop3926" />
      <stop
         id="stop3928"
         style="stop-color:#ffffff;stop-opacity:0.23529412;"
         offset="0.06316455" />
      <stop
         offset="0.95056331"
         style="stop-color:#ffffff;stop-opacity:0.15686275;"
         id="stop3930" />
      <stop
         offset="1"
         style="stop-color:#ffffff;stop-opacity:0.39215687;"
         id="stop3932" />
    </linearGradient>
    <radialGradient
       xlink:href="#linearGradient3688-166-749"
       id="radialGradient3013"
       gradientUnits="userSpaceOnUse"
       gradientTransform="matrix(2.003784,0,0,1.4,27.98813,-17.4)"
       cx="4.9929786"
       cy="43.5"
       fx="4.9929786"
       fy="43.5"
       r="2.5" />
    <linearGradient
       id="linearGradient3688-166-749">
      <stop
         offset="0"
         style="stop-color:#181818;stop-opacity:1"
         id="stop2883" />
      <stop
         offset="1"
         style="stop-color:#181818;stop-opacity:0"
         id="stop2885" />
    </linearGradient>
    <radialGradient
       xlink:href="#linearGradient3688-464-309"
       id="radialGradient3015"
       gradientUnits="userSpaceOnUse"
       gradientTransform="matrix(2.003784,0,0,1.4,-20.01187,-104.4)"
       cx="4.9929786"
       cy="43.5"
       fx="4.9929786"
       fy="43.5"
       r="2.5" />
    <linearGradient
       id="linearGradient3688-464-309">
      <stop
         offset="0"
         style="stop-color:#181818;stop-opacity:1"
         id="stop2889" />
      <stop
         offset="1"
         style="stop-color:#181818;stop-opacity:0"
         id="stop2891" />
    </linearGradient>
    <linearGradient
       id="linearGradient3702-501-757">
      <stop
         offset="0"
         style="stop-color:#181818;stop-opacity:0"
         id="stop2895" />
      <stop
         offset="0.5"
         style="stop-color:#181818;stop-opacity:1"
         id="stop2897" />
      <stop
         offset="1"
         style="stop-color:#181818;stop-opacity:0"
         id="stop2899" />
    </linearGradient>
    <linearGradient
       y2="39.999443"
       x2="25.058096"
       y1="47.027729"
       x1="25.058096"
       gradientUnits="userSpaceOnUse"
       id="linearGradient3656"
       xlink:href="#linearGradient3702-501-757" />
    <linearGradient
       inkscape:collect="always"
       xlink:href="#linearGradient933"
       id="linearGradient935"
       x1="12.168998"
       y1="47.851692"
       x2="12.168998"
       y2="0.32248196"
       gradientUnits="userSpaceOnUse"
       gradientTransform="matrix(2.025641,0,0,2.025641,-0.6153847,-2.641025)" />
    <linearGradient
       x1="63.9995"
       y1="3.1001"
       x2="63.9995"
       y2="122.8994"
       id="linearGradient3309-1"
       gradientUnits="userSpaceOnUse">
      <stop
         id="stop3311-5"
         style="stop-color:#f6f6f6;stop-opacity:1"
         offset="0" />
      <stop
         id="stop3313-0"
         style="stop-color:#d2d2d2;stop-opacity:1"
         offset="1" />
    </linearGradient>
    <linearGradient
       id="linearGradient10691">
      <stop
         id="stop10693"
         style="stop-color:#000000;stop-opacity:1"
         offset="0" />
      <stop
         id="stop10695"
         style="stop-color:#000000;stop-opacity:0"
         offset="1" />
    </linearGradient>
    <linearGradient
       x1="86.132919"
       y1="105.105"
       x2="84.63858"
       y2="20.895"
       id="linearGradient2512"
       xlink:href="#linearGradient5128-3"
       gradientUnits="userSpaceOnUse"
       gradientTransform="matrix(0.27640914,0,0,0.27640914,58.309864,58.586226)" />
    <linearGradient
       id="linearGradient5128-3">
      <stop
         id="stop5130-6"
         style="stop-color:#e5e5e5;stop-opacity:1"
         offset="0" />
      <stop
         id="stop5132-7"
         style="stop-color:#ababab;stop-opacity:1"
         offset="1" />
    </linearGradient>
    <linearGradient
       x1="20.758585"
       y1="1"
       x2="20.758585"
       y2="45.017357"
       id="linearGradient2515"
       xlink:href="#linearGradient3309-1"
       gradientUnits="userSpaceOnUse"
       gradientTransform="matrix(0.90697464,0,0,0.90697464,54.232605,55.139537)" />
    <linearGradient
       x1="37.201294"
       y1="1"
       x2="37.201294"
       y2="45"
       id="linearGradient2517"
       xlink:href="#linearGradient3397"
       gradientUnits="userSpaceOnUse"
       gradientTransform="matrix(0.90697464,0,0,0.90697464,54.232605,55.139537)" />
    <linearGradient
       id="linearGradient3397">
      <stop
         id="stop3399"
         style="stop-color:#aaaaaa;stop-opacity:1"
         offset="0" />
      <stop
         id="stop3401"
         style="stop-color:#8c8c8c;stop-opacity:1"
         offset="1" />
    </linearGradient>
    <radialGradient
       cx="62.625"
       cy="4.625"
       r="10.625"
       fx="62.625"
       fy="4.625"
       id="radialGradient2436"
       xlink:href="#linearGradient10691"
       gradientUnits="userSpaceOnUse"
       gradientTransform="matrix(1.882353,0,0,0.47058774,-41.882358,88.82353)" />
    <linearGradient
       id="linearGradient8265-821-176-38-919-66-249-7-7">
      <stop
         offset="0"
         style="stop-color:#ffffff;stop-opacity:1"
         id="stop2687-1-9" />
      <stop
         offset="1"
         style="stop-color:#ffffff;stop-opacity:0"
         id="stop2689-5-4" />
    </linearGradient>
    <linearGradient
       inkscape:collect="always"
       xlink:href="#linearGradient8265-821-176-38-919-66-249-7-7"
       id="linearGradient918"
       x1="70.178734"
       y1="75.425247"
       x2="70.178734"
       y2="60.497593"
       gradientUnits="userSpaceOnUse"
       gradientTransform="matrix(0.93333357,0,0,0.93333357,12.533268,12.533311)" />
    <linearGradient
       xlink:href="#linearGradient8265-821-176-38-919-66-249-7-7"
       id="linearGradient3014"
       gradientUnits="userSpaceOnUse"
       x1="12.47939"
       y1="2"
       x2="12.47939"
       y2="22.006775"
       gradientTransform="matrix(1.9364459,0,0,1.9366989,52.765065,52.759574)" />
  </defs>
  <metadata
     id="metadata3663">
    <rdf:RDF>
      <cc:Work
         rdf:about="" />
    </rdf:RDF>
  </metadata>
  <g
     id="layer1">
    <path
       d="M 96,91.000001 C 96,93.761426 87.045695,96 76.000001,96 64.954307,96 56,93.761426 56,91.000001 56,88.238576 64.954307,86 76.000001,86 87.045695,86 96,88.238576 96,91.000001 Z"
       id="path8836"
       style="display:inline;overflow:visible;visibility:visible;opacity:0.3;fill:url(#radialGradient2436);fill-opacity:1;fill-rule:evenodd;stroke:none;stroke-width:0.999985;stroke-linecap:butt;stroke-linejoin:round;stroke-miterlimit:4;stroke-dasharray:none;stroke-dashoffset:0;stroke-opacity:1;marker:none;marker-start:none;marker-mid:none;marker-end:none" />
    <g
       style="opacity:0.4;stroke-width:0.5"
       id="g3712"
       transform="matrix(2.3157904,0,0,1.1428572,-7.578968,36.285712)">
      <rect
         style="fill:url(#radialGradient3013);fill-opacity:1;stroke:none;stroke-width:0.5"
         id="rect2801"
         y="40"
         x="38"
         height="7"
         width="5" />
      <rect
         style="fill:url(#radialGradient3015);fill-opacity:1;stroke:none;stroke-width:0.5"
         id="rect3696"
         transform="scale(-1)"
         y="-47"
         x="-10"
         height="7"
         width="5" />
      <rect
         style="fill:url(#linearGradient3656);fill-opacity:1;stroke:none;stroke-width:0.5"
         id="rect3700"
         y="40"
         x="10"
         height="7.0000005"
         width="28" />
    </g>
    <rect
       style="color:#000000;display:inline;overflow:visible;visibility:visible;fill:url(#linearGradient935);fill-opacity:1;fill-rule:nonzero;stroke:#002e99;stroke-width:1;stroke-linecap:round;stroke-linejoin:round;stroke-miterlimit:4;stroke-dasharray:none;stroke-dashoffset:0;stroke-opacity:0.501961;marker:none;enable-background:accumulate"
       id="rect5505-21"
       y="8.5"
       x="8.5"
       ry="6"
       rx="6"
       height="79"
       width="79" />
    <path
       style="color:#000000;fill:#010000;fill-opacity:0.15;stroke-linejoin:round;-inkscape-stroke:none"
       d="m 41.552367,29.000001 c -1.404454,0 -2.552734,1.14235 -2.552734,2.544922 v 17.455072 h -7.417602 c -1.547424,0.0017 -2.758287,0.939904 -3.283203,2.154297 -0.524916,1.214394 -0.378667,2.740232 0.683594,3.863281 l 16.412109,17.894532 c 0.002,0.002 0.0039,0.004 0.0059,0.0059 1.407411,1.483256 3.791807,1.483256 5.199218,0 0.002,-0.0019 0.004,-0.0039 0.0059,-0.0059 L 67.017578,55.017573 c 1.062261,-1.123048 1.20851,-2.648889 0.683594,-3.863281 -0.524916,-1.214392 -1.73578,-2.152626 -3.283203,-2.154297 H 57.000367 V 31.544923 c 0,-1.402572 -1.14828,-2.544922 -2.552734,-2.544922 z"
       id="path13703"
       sodipodi:nodetypes="ssccsccccccsccsss" />
    <rect
       style="opacity:0.5;fill:none;stroke:url(#linearGradient2959);stroke-width:0.999999;stroke-linecap:round;stroke-linejoin:round;stroke-miterlimit:4;stroke-dasharray:none;stroke-dashoffset:0;stroke-opacity:1"
       id="rect6741"
       y="9.5"
       x="9.5"
       ry="5"
       rx="5"
       height="77"
       width="77" />
    <path
       style="color:#000000;opacity:1;fill:none;fill-opacity:1;stroke:#010000;stroke-width:1;stroke-linejoin:round;stroke-opacity:0.3;-inkscape-stroke:none"
       d="m 41.552125,27.500098 c -1.136947,0 -2.052251,0.912429 -2.052251,2.045804 V 47.6 h -7.91804 c -2.697822,0.0029 -4.087422,3.575797 -2.236634,5.532496 L 45.763368,71.03268 c 1.214623,1.280078 3.258644,1.280078 4.473267,0 L 66.654803,53.132496 C 68.505591,51.175797 67.115991,47.602913 64.41817,47.6 H 56.500126 V 29.545902 c 0,-1.133375 -0.915304,-2.045804 -2.052251,-2.045804 z"
       id="path12165"
       sodipodi:nodetypes="ssccccccccsss" />
    <path
       style="color:#000000;opacity:1;fill:#ffffff;fill-opacity:1;stroke-width:1;stroke-linejoin:round;-inkscape-stroke:none"
       d="m 42,28.000001 c -1.108,0 -2,0.892 -2,2 v 18 h -8.000156 c -2.629134,0.0028 -3.983354,3.145704 -2.179688,5.058594 l 16.000156,17.499406 c 1.183698,1.251418 3.175678,1.251418 4.359376,0 L 66.179844,53.058595 c 1.803666,-1.91289 0.449446,-5.055746 -2.179688,-5.058594 H 56 v -18 c 0,-1.108 -0.892,-2 -2,-2 z"
       id="path887"
       sodipodi:nodetypes="ssccccccccsss" />
    <path
       d="m 73.307411,56.499999 c -0.767418,0 -1.388805,0.636611 -1.388805,1.417148 v 2.749266 c -1.372198,0.365607 -2.683338,0.917846 -3.882985,1.615549 l -1.955664,-1.955664 c -0.275956,-0.275961 -0.606539,-0.422118 -0.96366,-0.425144 -0.357113,-0.0029 -0.720673,0.125478 -0.992004,0.396802 l -3.8263,3.826299 c -0.542642,0.542646 -0.523578,1.40374 0.0283,1.955663 l 1.955665,1.955664 c -0.6977,1.199644 -1.249939,2.510786 -1.615549,3.882986 h -2.749267 c -0.780532,0 -1.417143,0.621385 -1.417143,1.388805 v 5.385161 c 0,0.76742 0.636611,1.388806 1.417143,1.388806 h 2.749267 c 0.36561,1.3722 0.917849,2.683341 1.615549,3.882985 l -1.955665,1.955664 c -0.551921,0.551922 -0.570986,1.413016 -0.0283,1.955664 l 3.8263,3.826299 c 0.542652,0.542646 1.403743,0.523577 1.955664,-0.02835 l 1.955664,-1.955664 c 1.199647,0.697704 2.510787,1.249942 3.882985,1.615549 v 2.749267 c 0,0.780536 0.621387,1.417148 1.388805,1.417148 h 5.385162 c 0.767418,0 1.388805,-0.636612 1.388805,-1.417148 v -2.749267 c 1.372207,-0.365607 2.683348,-0.917845 3.882985,-1.615549 l 1.955664,1.955664 c 0.551931,0.551922 1.413022,0.57099 1.955664,0.02835 l 3.8263,-3.826299 c 0.542652,-0.542647 0.523587,-1.403742 -0.0283,-1.955664 l -1.955664,-1.955664 c 0.697709,-1.199644 1.249947,-2.510785 1.615549,-3.882985 h 2.749276 c 0.780533,0 1.417148,-0.621386 1.417148,-1.388806 v -5.385161 c 0,-0.767419 -0.636615,-1.388805 -1.417148,-1.388805 h -2.749275 c -0.365602,-1.3722 -0.91784,-2.683342 -1.615549,-3.882986 l 1.955664,-1.955664 c 0.55193,-0.551922 0.570995,-1.413017 0.0283,-1.955663 l -3.826301,-3.826299 c -0.542642,-0.542647 -1.403742,-0.52358 -1.955664,0.02835 l -1.955664,1.955664 c -1.199637,-0.697711 -2.510778,-1.24995 -3.882985,-1.615557 v -2.749266 c 0,-0.780537 -0.621377,-1.417148 -1.388805,-1.417148 z m 2.692582,13.60462 c 3.254224,0 5.895335,2.64111 5.895335,5.895335 0,3.254225 -2.641111,5.895335 -5.895335,5.895335 -3.254225,0 -5.895336,-2.64111 -5.895336,-5.895335 0,-3.254225 2.641111,-5.895335 5.895336,-5.895335 z"
       id="rect3267"
       style="display:block;overflow:visible;visibility:visible;fill:url(#linearGradient2515);fill-opacity:1;fill-rule:nonzero;stroke:url(#linearGradient2517);stroke-width:0.999998;stroke-linecap:butt;stroke-linejoin:round;stroke-miterlimit:4;stroke-dasharray:none;stroke-dashoffset:0;stroke-opacity:1;marker:none;marker-start:none;marker-mid:none;marker-end:none;enable-background:accumulate" />
    <path
       d="m 76.000042,64.499999 c -6.3411,0 -11.5,5.158899 -11.5,11.5 0,6.3411 5.1589,11.5 11.5,11.5 6.341109,0 11.5,-5.1589 11.5,-11.5 0,-6.341101 -5.158891,-11.5 -11.5,-11.5 z"
       id="path28-5"
       style="fill:none;stroke:url(#linearGradient2512);stroke-width:1;stroke-miterlimit:4;stroke-dasharray:none" />
    <path
       d="m 76.000042,64.999999 c -6.065502,0 -11,4.934498 -11,11 0,6.065502 4.934498,11 11,11 6.065502,-10e-7 11,-4.934498 11,-11 0,-6.065502 -4.934498,-11 -11,-11 z m 0,5.076923 c 3.269539,0 5.923077,2.653539 5.923077,5.923077 0,3.269538 -2.653538,5.923077 -5.923077,5.923077 -3.269538,0 -5.923077,-2.653539 -5.923077,-5.923077 0,-3.269538 2.653539,-5.923077 5.923077,-5.923077 z"
       id="path3315-3"
       style="opacity:0.05;fill:#000000;fill-opacity:1;stroke:none;stroke-width:0.999561;stroke-miterlimit:4;stroke-dasharray:none" />
    <path
       d="m 75.999997,68.999996 c -3.859801,0 -7.000002,3.1402 -7.000002,7.000002 0,3.859801 3.140201,7.000002 7.000002,7.000002 3.859806,0 7.000001,-3.140201 7.000001,-7.000002 0,-3.859802 -3.140195,-7.000002 -7.000001,-7.000002 z"
       id="path874"
       style="opacity:0.4;fill:none;stroke:url(#linearGradient918);stroke-width:0.999996;stroke-miterlimit:4;stroke-dasharray:none;stroke-opacity:1" />
    <path
       style="color:#000000;display:block;overflow:visible;visibility:visible;opacity:0.8;fill:none;stroke:url(#linearGradient3014);stroke-width:0.999997;stroke-linecap:butt;stroke-linejoin:round;stroke-miterlimit:4;stroke-dasharray:none;stroke-dashoffset:0;stroke-opacity:1;marker:none;enable-background:accumulate"
       id="path3799"
       d="m 73.097747,57.540802 c -0.143637,0.752831 -0.01829,1.745176 -0.06051,2.588267 0.125276,1.506903 -1.491598,2.039061 -2.649606,2.356208 -1.059285,0.602769 -2.612257,1.301264 -3.557191,0.104982 -0.573509,-0.573576 -1.147019,-1.14716 -1.720527,-1.720747 -0.83602,0.5552 -1.519643,1.47837 -2.296691,2.17595 -0.618625,0.698378 -1.463056,1.303213 -1.939284,2.060577 0.788171,0.94924 2.030394,1.622165 2.373691,2.860451 -0.04775,1.546384 -1.04599,2.961634 -1.573143,4.390542 -0.971753,1.092976 -2.546508,0.543572 -3.823215,0.677373 -0.667236,-0.02496 -0.136194,1.135579 -0.3056,1.599148 0.0023,1.442809 -0.0047,2.885891 0.0035,4.328518 1.25009,0.12433 2.627732,-0.291629 3.767344,0.347962 1.075912,1.121762 1.308329,2.854935 1.949558,4.238983 0.08089,1.457828 -1.418082,2.181559 -2.225628,3.178385 -0.420959,0.527569 0.74607,0.976381 0.999052,1.453234 0.98314,0.983267 1.96628,1.966532 2.949416,2.949799 1.011719,-0.590439 1.626087,-1.915317 2.799002,-2.33361 1.578477,-0.206553 2.931175,1.058304 4.422512,1.421492 1.260032,0.875548 0.703953,2.537899 0.826838,3.825277 -0.171394,0.810461 1.02217,0.251521 1.489055,0.415543 1.479241,-0.0023 2.958771,0.0047 4.437837,-0.0035 0.12431,-1.250256 -0.29159,-2.628074 0.347917,-3.767833 1.121615,-1.076054 2.854564,-1.308501 4.23843,-1.949814 1.457639,-0.08091 2.181273,1.418268 3.17797,2.225918 0.5275,0.421014 0.976251,-0.746167 1.453046,-0.999185 0.983135,-0.983267 1.966273,-1.96653 2.94941,-2.949797 -0.59036,-1.011853 -1.915066,-1.626301 -2.333305,-2.799373 -0.206517,-1.578678 1.058169,-2.931557 1.421306,-4.423085 0.875433,-1.260199 2.537572,-0.704046 3.82478,-0.826947 0.810356,0.171415 0.251484,-1.022306 0.415485,-1.489248 -0.0023,-1.479438 0.0047,-2.959159 -0.0035,-4.438422 -1.250092,-0.124331 -2.627731,0.291632 -3.767346,-0.347962 -1.075893,-1.121745 -1.30831,-2.85492 -1.949539,-4.238966 -0.08089,-1.457829 1.418084,-2.181557 2.225626,-3.178387 0.420952,-0.527571 -0.746076,-0.97638 -0.999061,-1.453232 -0.983137,-0.983271 -1.966275,-1.966538 -2.949414,-2.949802 -1.011721,0.590441 -1.626087,1.915319 -2.799004,2.33361 -1.578473,0.206553 -2.931176,-1.058305 -4.422506,-1.421489 -1.260036,-0.875545 -0.703956,-2.537903 -0.826842,-3.825279 0.171394,-0.810462 -1.022172,-0.251521 -1.489052,-0.415541 -1.460265,0 -2.920535,0 -4.380798,0 z" />
  </g>
</svg>
