<?xml version="1.0" encoding="UTF-8" standalone="no"?>
<svg
   width="96"
   height="96"
   id="svg4201"
   version="1.1"
   sodipodi:docname="stock_xfburn.svg"
   inkscape:version="1.2.2 (b0a8486541, 2022-12-01)"
   xmlns:inkscape="http://www.inkscape.org/namespaces/inkscape"
   xmlns:sodipodi="http://sodipodi.sourceforge.net/DTD/sodipodi-0.dtd"
   xmlns:xlink="http://www.w3.org/1999/xlink"
   xmlns="http://www.w3.org/2000/svg"
   xmlns:svg="http://www.w3.org/2000/svg"
   xmlns:rdf="http://www.w3.org/1999/02/22-rdf-syntax-ns#"
   xmlns:cc="http://creativecommons.org/ns#"
   xmlns:dc="http://purl.org/dc/elements/1.1/">
  <sodipodi:namedview
     id="namedview76"
     pagecolor="#ffffff"
     bordercolor="#666666"
     borderopacity="1.0"
     inkscape:pageshadow="2"
     inkscape:pageopacity="0.0"
     inkscape:pagecheckerboard="0"
     showgrid="false"
     inkscape:zoom="4.5078058"
     inkscape:cx="36.825012"
     inkscape:cy="48.360558"
     inkscape:window-width="1281"
     inkscape:window-height="1005"
     inkscape:window-x="462"
     inkscape:window-y="22"
     inkscape:window-maximized="0"
     inkscape:current-layer="layer1"
     inkscape:showpageshadow="2"
     inkscape:deskcolor="#d1d1d1" />
  <defs
     id="defs4203">
    <linearGradient
       id="linearGradient30333">
      <stop
         id="stop30329"
         style="stop-color:#000000;stop-opacity:0.28;"
         offset="0" />
      <stop
         id="stop30331"
         style="stop-color:#000000;stop-opacity:0.1;"
         offset="1" />
    </linearGradient>
    <linearGradient
       x1="18.775953"
       y1="4.0378027"
       x2="18.203465"
       y2="45.962208"
       id="linearGradient2651"
       xlink:href="#linearGradient6036"
       gradientUnits="userSpaceOnUse"
       gradientTransform="matrix(0.80817772,0,0,-0.80817734,28.323288,4.2044439)" />
    <linearGradient
       id="linearGradient6036">
      <stop
         id="stop6038"
         style="stop-color:#ffffff;stop-opacity:1"
         offset="0" />
      <stop
         id="stop6040"
         style="stop-color:#ffffff;stop-opacity:0"
         offset="1" />
    </linearGradient>
    <linearGradient
       xlink:href="#linearGradient4011"
       id="linearGradient4064"
       gradientUnits="userSpaceOnUse"
       gradientTransform="matrix(2.1891893,0,0,2.1891893,-109.03824,-71.511797)"
       x1="71.204407"
       y1="6.2375584"
       x2="71.204407"
       y2="44.340794" />
    <linearGradient
       id="linearGradient4011">
      <stop
         id="stop4013"
         style="stop-color:#ffffff;stop-opacity:1;"
         offset="0" />
      <stop
         offset="0.507761"
         style="stop-color:#ffffff;stop-opacity:0.23529412;"
         id="stop4015" />
      <stop
         id="stop4017"
         style="stop-color:#ffffff;stop-opacity:0.15686275;"
         offset="0.83456558" />
      <stop
         id="stop4019"
         style="stop-color:#ffffff;stop-opacity:0.39215687;"
         offset="1" />
    </linearGradient>
    <linearGradient
       x1="20.580074"
       y1="10.774516"
       x2="24.27351"
       y2="9.8622112"
       id="linearGradient2682"
       xlink:href="#linearGradient3487"
       gradientUnits="userSpaceOnUse"
       spreadMethod="reflect" />
    <linearGradient
       id="linearGradient3487">
      <stop
         id="stop3489"
         style="stop-color:#e6cde2;stop-opacity:1"
         offset="0" />
      <stop
         id="stop3491"
         style="stop-color:#e6cde2;stop-opacity:0"
         offset="1" />
    </linearGradient>
    <linearGradient
       x1="17.494959"
       y1="11.200086"
       x2="21.047453"
       y2="9.7956104"
       id="linearGradient2684"
       xlink:href="#linearGradient3495"
       gradientUnits="userSpaceOnUse"
       spreadMethod="reflect" />
    <linearGradient
       id="linearGradient3495">
      <stop
         id="stop3497"
         style="stop-color:#c1cbe4;stop-opacity:1"
         offset="0" />
      <stop
         id="stop3499"
         style="stop-color:#c1cbe4;stop-opacity:0"
         offset="1" />
    </linearGradient>
    <linearGradient
       x1="14.084608"
       y1="13.045606"
       x2="16.994024"
       y2="10.732353"
       id="linearGradient2686"
       xlink:href="#linearGradient3503"
       gradientUnits="userSpaceOnUse"
       spreadMethod="reflect" />
    <linearGradient
       id="linearGradient3503">
      <stop
         id="stop3505"
         style="stop-color:#c4ebdd;stop-opacity:1"
         offset="0" />
      <stop
         id="stop3507"
         style="stop-color:#c4ebdd;stop-opacity:0"
         offset="1" />
    </linearGradient>
    <linearGradient
       x1="12.371647"
       y1="16.188046"
       x2="14.609327"
       y2="13.461712"
       id="linearGradient2688"
       xlink:href="#linearGradient3511"
       gradientUnits="userSpaceOnUse"
       spreadMethod="reflect" />
    <linearGradient
       id="linearGradient3511">
      <stop
         id="stop3513"
         style="stop-color:#ebeec7;stop-opacity:1"
         offset="0" />
      <stop
         id="stop3515"
         style="stop-color:#ebeec7;stop-opacity:0"
         offset="1" />
    </linearGradient>
    <linearGradient
       x1="10.609375"
       y1="17.886322"
       x2="9.7297754"
       y2="20.612656"
       id="linearGradient2690"
       xlink:href="#linearGradient3519"
       gradientUnits="userSpaceOnUse"
       spreadMethod="reflect" />
    <linearGradient
       id="linearGradient3519">
      <stop
         id="stop3521"
         style="stop-color:#fcd9cd;stop-opacity:1"
         offset="0" />
      <stop
         id="stop3523"
         style="stop-color:#fcd9cd;stop-opacity:0"
         offset="1" />
    </linearGradient>
    <linearGradient
       x1="20.580074"
       y1="10.774516"
       x2="24.27351"
       y2="9.8622112"
       id="linearGradient2672"
       xlink:href="#linearGradient3487"
       gradientUnits="userSpaceOnUse"
       spreadMethod="reflect" />
    <linearGradient
       x1="17.494959"
       y1="11.200086"
       x2="21.047453"
       y2="9.7956104"
       id="linearGradient2674"
       xlink:href="#linearGradient3495"
       gradientUnits="userSpaceOnUse"
       spreadMethod="reflect" />
    <linearGradient
       x1="14.084608"
       y1="13.045606"
       x2="16.994024"
       y2="10.732353"
       id="linearGradient2676"
       xlink:href="#linearGradient3503"
       gradientUnits="userSpaceOnUse"
       spreadMethod="reflect" />
    <linearGradient
       x1="12.371647"
       y1="16.188046"
       x2="14.609327"
       y2="13.461712"
       id="linearGradient2678"
       xlink:href="#linearGradient3511"
       gradientUnits="userSpaceOnUse"
       spreadMethod="reflect" />
    <linearGradient
       x1="10.609375"
       y1="17.886322"
       x2="9.7297754"
       y2="20.612656"
       id="linearGradient2680"
       xlink:href="#linearGradient3519"
       gradientUnits="userSpaceOnUse"
       spreadMethod="reflect" />
    <linearGradient
       x1="12.2744"
       y1="32.4165"
       x2="35.391201"
       y2="14.2033"
       id="linearGradient2658"
       xlink:href="#linearGradient3263-6"
       gradientUnits="userSpaceOnUse"
       gradientTransform="matrix(0,2.371449,-2.371449,0,102.78049,-72.91479)" />
    <linearGradient
       x1="12.2744"
       y1="32.4165"
       x2="35.391201"
       y2="14.2033"
       id="linearGradient3263-6"
       gradientUnits="userSpaceOnUse">
      <stop
         id="stop3265-8"
         style="stop-color:#dedcde;stop-opacity:1;"
         offset="0" />
      <stop
         id="stop3267-9"
         style="stop-color:#f0f0f0;stop-opacity:1;"
         offset="0.5" />
      <stop
         id="stop3269-2"
         style="stop-color:#d2d2d2;stop-opacity:1"
         offset="1" />
    </linearGradient>
    <linearGradient
       id="linearGradient23419">
      <stop
         id="stop23421"
         style="stop-color:#000000;stop-opacity:1"
         offset="0" />
      <stop
         id="stop23423"
         style="stop-color:#000000;stop-opacity:0"
         offset="1" />
    </linearGradient>
    <radialGradient
       r="22.627417"
       fy="41.63604"
       fx="23.334524"
       cy="41.63604"
       cx="23.334524"
       gradientTransform="matrix(1.5909902,0,0,0.59656582,10.874999,-9.338637)"
       gradientUnits="userSpaceOnUse"
       id="radialGradient4199"
       xlink:href="#linearGradient23419" />
    <linearGradient
       inkscape:collect="always"
       xlink:href="#linearGradient3560"
       id="linearGradient3562"
       x1="40.473587"
       y1="-12.766847"
       x2="46.090122"
       y2="-9.7346897"
       gradientUnits="userSpaceOnUse"
       gradientTransform="matrix(0.74774775,0,0,0.74774775,0.14414456,-16.000002)" />
    <linearGradient
       inkscape:collect="always"
       id="linearGradient3560">
      <stop
         style="stop-color:#000000;stop-opacity:0.30000001;"
         offset="0"
         id="stop3556" />
      <stop
         style="stop-color:#000000;stop-opacity:0.05;"
         offset="1"
         id="stop3558" />
    </linearGradient>
    <linearGradient
       x1="13.963497"
       y1="33.571308"
       x2="20.868813"
       y2="30.389938"
       id="linearGradient2651-3"
       xlink:href="#linearGradient30333"
       gradientUnits="userSpaceOnUse"
       gradientTransform="matrix(0.75766665,0,0,-0.7576663,29.553091,2.9416607)" />
    <linearGradient
       id="linearGradient6036-6">
      <stop
         id="stop6038-7"
         style="stop-color:#000000;stop-opacity:0.28;"
         offset="0" />
      <stop
         id="stop6040-5"
         style="stop-color:#000000;stop-opacity:0.23999999;"
         offset="1" />
    </linearGradient>
    <linearGradient
       inkscape:collect="always"
       xlink:href="#linearGradient6036-6"
       id="linearGradient4698"
       x1="62.497486"
       y1="-9.9999886"
       x2="62.497486"
       y2="10.000009"
       gradientUnits="userSpaceOnUse"
       gradientTransform="matrix(0.73684212,0,0,0.73684212,0.84211142,-16.000007)" />
    <radialGradient
       cx="9.0475655"
       cy="12.872128"
       r="11"
       fx="9.0475655"
       fy="12.872128"
       id="radialGradient2477"
       xlink:href="#linearGradient3839"
       gradientUnits="userSpaceOnUse"
       gradientTransform="matrix(0,8.1380469,-9.0215691,0,156.44907,-100.13534)" />
    <linearGradient
       id="linearGradient3839">
      <stop
         id="stop3841"
         style="stop-color:#fff394;stop-opacity:1"
         offset="0" />
      <stop
         id="stop3843"
         style="stop-color:#ffa154;stop-opacity:1"
         offset="0.52875197" />
      <stop
         id="stop3845"
         style="stop-color:#f37329;stop-opacity:1"
         offset="0.66093999" />
    </linearGradient>
    <linearGradient
       x1="17.301205"
       y1="23.514465"
       x2="17.301205"
       y2="42.501011"
       id="linearGradient2530"
       xlink:href="#linearGradient6036"
       gradientUnits="userSpaceOnUse"
       gradientTransform="matrix(2.0260228,0,0,2.0234353,-0.63592621,-64.55118)" />
    <linearGradient
       x1="17.301205"
       y1="4.4996829"
       x2="17.301205"
       y2="16.042885"
       id="linearGradient2532"
       xlink:href="#linearGradient6036"
       gradientUnits="userSpaceOnUse"
       gradientTransform="matrix(2.0260228,0,0,2.0234353,-0.63592621,-64.55118)" />
  </defs>
  <metadata
     id="metadata4206">
    <rdf:RDF>
      <cc:Work
         rdf:about="">
        <dc:format>image/svg+xml</dc:format>
        <dc:type
           rdf:resource="http://purl.org/dc/dcmitype/StillImage" />
      </cc:Work>
    </rdf:RDF>
  </metadata>
  <g
     id="layer1"
     transform="translate(0,64)">
    <path
       d="M 83.999999,15.499992 C 84.001848,22.955629 67.883564,28.999999 48.000001,28.999999 28.116437,28.999999 11.998146,22.955629 12,15.499992 11.998146,8.044362 28.116437,2 48.000001,2 67.883564,2 84.001854,8.044362 83.999999,15.499992 Z"
       id="path23417"
       style="display:inline;overflow:visible;visibility:visible;opacity:0.3;fill:url(#radialGradient4199);fill-opacity:1;fill-rule:evenodd;stroke:none;stroke-width:2;marker:none" />
    <path
       id="path2781"
       style="fill:url(#linearGradient2658);fill-opacity:1;fill-rule:nonzero;stroke:none;stroke-width:1;stroke-miterlimit:4;stroke-opacity:1"
       d="M 48 -57.5 C 24.996959 -57.5 6.5 -39.003038 6.5 -16 C 6.4999959 7.0030382 24.996961 25.5 48 25.5 C 71.003034 25.499992 89.5 7.0030397 89.5 -16 C 89.5 -39.003039 71.003036 -57.5 48 -57.5 z M 48 -30.5 A 14.5 14.5 0 0 1 62.5 -16 A 14.5 14.5 0 0 1 48 -1.5 A 14.5 14.5 0 0 1 33.5 -16 A 14.5 14.5 0 0 1 48 -30.5 z " />
    <path
       id="path2474"
       style="display:inline;overflow:visible;visibility:visible;opacity:0.5;fill:#ffffff;fill-opacity:1;fill-rule:nonzero;stroke:none;stroke-width:0.999994;marker:none;enable-background:accumulate"
       d="M 48 -30.5 C 39.996008 -30.5 33.5 -24.003992 33.5 -16 C 33.5 -7.9960075 39.996008 -1.5 48 -1.5 C 56.003992 -1.5 62.5 -7.9960075 62.5 -16 C 62.5 -24.003992 56.003992 -30.5 48 -30.5 z M 48 -24 A 7.9999995 7.9999995 0 0 1 56 -16 A 7.9999995 7.9999995 0 0 1 48 -8 A 7.9999995 7.9999995 0 0 1 40 -16 A 7.9999995 7.9999995 0 0 1 48 -24 z " />
    <circle
       style="fill:none;fill-rule:evenodd;stroke:url(#linearGradient4698);stroke-width:1;stroke-linecap:round;stroke-opacity:1;stop-color:#000000"
       id="path3498"
       cx="48"
       cy="-16"
       r="7" />
    <path
       d="M 47.999999,-0.99999915 C 39.685714,-0.99999915 33,-7.6857123 33,-16 33,-24.314288 39.685714,-31.000001 47.999999,-31.000001 56.314291,-31.000001 63,-24.314288 63,-16 63,-7.6857123 56.314291,-0.99999915 47.999999,-0.99999915 Z"
       id="path3281-3"
       style="fill:none;stroke:url(#linearGradient2651-3);stroke-width:0.999997;stroke-miterlimit:4;stroke-opacity:1" />
    <g
       transform="matrix(2.0490302,0,0,2.0490302,-0.8175631,-64.805692)"
       id="g3527"
       style="stroke-width:1.33333">
      <path
         d="M 15.856928,5.7307748 20.625,16.34375 C 21.660403,15.885186 22.795334,15.625 24,15.625 c 0.03206,0 0.06178,-3.6e-4 0.09375,0 L 24.10801,4.0047512 c -2.94215,-0.070687 -5.543041,0.6572865 -8.251082,1.7260236 z"
         transform="rotate(1.618417,24.093743,24.175959)"
         id="path3296"
         style="opacity:0.8;fill:url(#linearGradient2672);fill-opacity:1;fill-rule:nonzero;stroke:none;stroke-width:1.33333" />
      <path
         d="m 12.121471,7.9060109 6.931026,9.3601041 c 0.913109,-0.669755 1.965938,-1.167064 3.142629,-1.425169 0.03132,-0.0069 0.06026,-0.01359 0.09157,-0.02009 L 19.857174,4.426276 c -2.888973,0.5613244 -5.31953,1.8556038 -7.735703,3.4797349 z"
         id="path3308"
         style="opacity:0.8;fill:url(#linearGradient2674);fill-opacity:1;fill-rule:nonzero;stroke:none;stroke-width:1.33333" />
      <path
         d="m 8.2523933,11.646535 9.2137237,7.155818 c 0.70865,-0.883264 1.596891,-1.636119 2.666685,-2.18998 0.02847,-0.01474 0.05469,-0.02872 0.08325,-0.0431 L 14.86585,6.2506132 C 12.220599,7.5405321 10.165881,9.452393 8.2523933,11.646535 Z"
         id="path3310"
         style="opacity:0.8;fill:url(#linearGradient2676);fill-opacity:1;fill-rule:nonzero;stroke:none;stroke-width:1.33333" />
      <path
         d="m 5.6328855,16.073974 c 7.1748065,2.242248 7.8502625,7.031463 12.7767855,1.754127 L 10.499985,9.1321388 C 8.2787249,11.062747 6.9132871,13.459349 5.6328855,16.073974 Z"
         id="path3312"
         style="opacity:0.8;fill:url(#linearGradient2678);fill-opacity:1;fill-rule:nonzero;stroke:none;stroke-width:1.33333" />
      <path
         d="M 7.155289,13.193173 C 5.9722117,14.945185 5.2475768,16.829547 4.6301929,18.837116 L 15.96875,21.8125 C 16.184264,21.049497 16.486796,20.297733 16.9375,19.59375 16.95479,19.56675 16.98246,19.52673 17,19.5 Z"
         id="path3314"
         style="opacity:0.8;fill:url(#linearGradient2680);fill-opacity:1;fill-rule:nonzero;stroke:none;stroke-width:1.33333" />
    </g>
    <g
       transform="matrix(-2.0304874,0,0,-2.0304874,96.731685,32.713085)"
       id="g3297"
       style="stroke-width:1.33333">
      <path
         d="M 15.856928,5.7307748 20.625,16.34375 C 21.660403,15.885186 22.795334,15.625 24,15.625 c 0.03206,0 0.06178,-3.6e-4 0.09375,0 L 24.10801,4.0047512 c -2.94215,-0.070687 -5.543041,0.6572865 -8.251082,1.7260236 z"
         transform="rotate(1.618417,24.093743,24.175959)"
         id="path3299"
         style="opacity:0.8;fill:url(#linearGradient2682);fill-opacity:1;fill-rule:nonzero;stroke:none;stroke-width:1.33333" />
      <path
         d="m 12.121471,7.9060109 6.931026,9.3601041 c 0.913109,-0.669755 1.965938,-1.167064 3.142629,-1.425169 0.03132,-0.0069 0.06026,-0.01359 0.09157,-0.02009 L 19.857174,4.426276 c -2.888973,0.5613244 -5.31953,1.8556038 -7.735703,3.4797349 z"
         id="path3301"
         style="opacity:0.8;fill:url(#linearGradient2684);fill-opacity:1;fill-rule:nonzero;stroke:none;stroke-width:1.33333" />
      <path
         d="m 8.2523933,11.646535 9.2137237,7.155818 c 0.70865,-0.883264 1.596891,-1.636119 2.666685,-2.18998 0.02847,-0.01474 0.05469,-0.02872 0.08325,-0.0431 L 14.86585,6.2506132 C 12.220599,7.5405321 10.165881,9.452393 8.2523933,11.646535 Z"
         id="path3303"
         style="opacity:0.8;fill:url(#linearGradient2686);fill-opacity:1;fill-rule:nonzero;stroke:none;stroke-width:1.33333" />
      <path
         d="m 5.6328855,16.073974 c 7.1748065,2.242248 7.8502625,7.031463 12.7767855,1.754127 L 10.499985,9.1321388 C 8.2787249,11.062747 6.9132871,13.459349 5.6328855,16.073974 Z"
         id="path3305"
         style="opacity:0.8;fill:url(#linearGradient2688);fill-opacity:1;fill-rule:nonzero;stroke:none;stroke-width:1.33333" />
      <path
         d="M 7.155289,13.193173 C 5.9722117,14.945185 5.2475768,16.829547 4.6301929,18.837116 L 15.96875,21.8125 C 16.184264,21.049497 16.486796,20.297733 16.9375,19.59375 16.95479,19.56675 16.98246,19.52673 17,19.5 Z"
         id="path3307"
         style="opacity:0.8;fill:url(#linearGradient2690);fill-opacity:1;fill-rule:nonzero;stroke:none;stroke-width:1.33333" />
    </g>
    <path
       id="path2559"
       style="display:inline;overflow:visible;visibility:visible;fill:url(#radialGradient2477);fill-opacity:1;fill-rule:nonzero;stroke:#f3600c;stroke-width:1;stroke-linecap:round;stroke-linejoin:round;stroke-miterlimit:4;stroke-dasharray:none;stroke-dashoffset:0;stroke-opacity:0.5;marker:none;marker-start:none;marker-mid:none;marker-end:none;enable-background:accumulate"
       d="M 49.132812 -57.484375 C 48.253149 -57.510055 47.374981 -57.504315 46.5 -57.46875 C 46.500221 -48.70054 46.5 -39.699851 46.5 -30.931641 L 46.496094 -30.923828 C 46.990737 -30.973141 47.492445 -31 48 -31 C 56.279984 -31 63 -24.279984 63 -16 C 63 -7.7200156 56.279984 -1 48 -1 C 42.716359 -1 38.070833 -3.7391221 35.398438 -7.8710938 L 35.396484 -7.8691406 L 14.039062 7.9023438 C 18.217104 14.137548 26.118713 20.597475 34.521484 23.275391 C 49.794161 28.642007 67.931922 24.056164 78.710938 11.966797 C 91.025115 -1.1470626 93.083313 -22.614086 83.351562 -37.789062 C 75.839073 -49.888242 62.327765 -57.099179 49.132812 -57.484375 z " />
    <path
       style="color:#000000;display:inline;overflow:visible;visibility:visible;opacity:0.55;fill:none;stroke:url(#linearGradient4064);stroke-width:0.999997;stroke-linecap:round;stroke-linejoin:round;stroke-miterlimit:4;stroke-dasharray:none;stroke-dashoffset:0;stroke-opacity:1;marker:none;enable-background:accumulate"
       id="path8655"
       d="m 88.500001,-16.001438 c 0,22.3682567 -18.133799,40.50144 -40.499491,40.50144 -22.36773,0 -40.5005115,-18.1333892 -40.5005115,-40.50144 0,-22.367219 18.1327815,-40.498563 40.5005115,-40.498563 22.365692,0 40.499491,18.131344 40.499491,40.498563 z" />
    <path
       d="M 47.999992,7.0593023e-6 C 39.131418,7.0593023e-6 31.99999,-7.1314201 31.99999,-15.999993 c 0,-8.868573 7.131428,-16 16.000002,-16 8.868573,0 16,7.131427 16,16 0,8.8685729 -7.131427,16.0000000593023 -16,16.0000000593023 z"
       id="path3281"
       style="opacity:0.4;fill:none;stroke:url(#linearGradient2651);stroke-width:1;stroke-miterlimit:4;stroke-opacity:1" />
    <circle
       style="fill:none;fill-opacity:1;fill-rule:evenodd;stroke:url(#linearGradient3562);stroke-width:1;stroke-linecap:round;stroke-opacity:1;stop-color:#000000"
       id="path3554"
       cx="48"
       cy="-16"
       r="41.5" />
    <path
       d="M 35.568093,-6.7311839 15.076117,8.3993296"
       id="path2528"
       style="opacity:0.4;fill:none;fill-opacity:1;fill-rule:evenodd;stroke:url(#linearGradient2530);stroke-width:0.999999px;stroke-linecap:butt;stroke-linejoin:miter;stroke-opacity:1"
       sodipodi:nodetypes="cc" />
    <path
       d="m 47.5,-57 v 26"
       id="path2526"
       style="opacity:0.4;fill:none;fill-opacity:1;fill-rule:evenodd;stroke:url(#linearGradient2532);stroke-width:0.999999px;stroke-linecap:butt;stroke-linejoin:miter;stroke-opacity:1"
       sodipodi:nodetypes="cc" />
  </g>
</svg>
