<?xml version="1.0" encoding="UTF-8" standalone="no"?>
<!-- Created with Inkscape (http://www.inkscape.org/) -->

<svg
   width="96"
   height="96"
   viewBox="0 0 96 96"
   version="1.1"
   id="svg28287"
   inkscape:version="1.2.2 (b0a8486541, 2022-12-01)"
   sodipodi:docname="ubiquity.svg"
   xmlns:inkscape="http://www.inkscape.org/namespaces/inkscape"
   xmlns:sodipodi="http://sodipodi.sourceforge.net/DTD/sodipodi-0.dtd"
   xmlns:xlink="http://www.w3.org/1999/xlink"
   xmlns="http://www.w3.org/2000/svg"
   xmlns:svg="http://www.w3.org/2000/svg">
  <sodipodi:namedview
     id="namedview28289"
     pagecolor="#ffffff"
     bordercolor="#666666"
     borderopacity="1.0"
     inkscape:showpageshadow="2"
     inkscape:pageopacity="0.0"
     inkscape:pagecheckerboard="0"
     inkscape:deskcolor="#d1d1d1"
     inkscape:document-units="px"
     showgrid="false"
     inkscape:zoom="3.3638608"
     inkscape:cx="124.7079"
     inkscape:cy="53.361305"
     inkscape:window-width="1326"
     inkscape:window-height="688"
     inkscape:window-x="765"
     inkscape:window-y="123"
     inkscape:window-maximized="0"
     inkscape:current-layer="layer1" />
  <defs
     id="defs28284">
    <linearGradient
       id="linearGradient27962">
      <stop
         id="stop27954"
         style="stop-color:#ffffff;stop-opacity:1"
         offset="0" />
      <stop
         id="stop27956"
         style="stop-color:#ffffff;stop-opacity:0.23529412"
         offset="0.507761" />
      <stop
         id="stop27958"
         style="stop-color:#ffffff;stop-opacity:0.15686275"
         offset="0.83456558" />
      <stop
         id="stop27960"
         style="stop-color:#ffffff;stop-opacity:0.44999999;"
         offset="1" />
    </linearGradient>
    <linearGradient
       inkscape:collect="always"
       id="linearGradient27878">
      <stop
         style="stop-color:#002e99;stop-opacity:0.5;"
         offset="0"
         id="stop27874" />
      <stop
         style="stop-color:#002e99;stop-opacity:0.60000002;"
         offset="1"
         id="stop27876" />
    </linearGradient>
    <linearGradient
       inkscape:collect="always"
       id="linearGradient14470">
      <stop
         style="stop-color:#fafafa;stop-opacity:1"
         offset="0"
         id="stop14466" />
      <stop
         style="stop-color:#d4d4d4;stop-opacity:1"
         offset="1"
         id="stop14468" />
    </linearGradient>
    <linearGradient
       id="linearGradient4011">
      <stop
         id="stop4013"
         style="stop-color:#ffffff;stop-opacity:1"
         offset="0" />
      <stop
         id="stop4015-3"
         style="stop-color:#ffffff;stop-opacity:0.23529412"
         offset="0.507761" />
      <stop
         id="stop4017-2"
         style="stop-color:#ffffff;stop-opacity:0.15686275"
         offset="0.83456558" />
      <stop
         id="stop4019"
         style="stop-color:#ffffff;stop-opacity:0.39215687"
         offset="1" />
    </linearGradient>
    <linearGradient
       gradientTransform="translate(2.2664227,49.642763)"
       gradientUnits="userSpaceOnUse"
       xlink:href="#linearGradient4011"
       id="linearGradient12398-3-3"
       y2="44.340794"
       x2="71.204407"
       y1="6.2375584"
       x1="71.204407" />
    <linearGradient
       inkscape:collect="always"
       xlink:href="#linearGradient14470"
       id="linearGradient14016"
       gradientUnits="userSpaceOnUse"
       gradientTransform="matrix(2.1102502,0,0,2.1102502,122.11268,26.870133)"
       x1="-26.447308"
       y1="12.065456"
       x2="-26.447308"
       y2="35.164295" />
    <linearGradient
       gradientTransform="matrix(2.1351351,0,0,2.1351351,-107.16075,-11.141136)"
       gradientUnits="userSpaceOnUse"
       xlink:href="#linearGradient27962"
       id="linearGradient3019"
       y2="44.340794"
       x2="71.204407"
       y1="6.2375584"
       x1="71.204407" />
    <linearGradient
       inkscape:collect="always"
       xlink:href="#linearGradient1499"
       id="linearGradient1461"
       x1="21.373114"
       y1="2.9713831"
       x2="21.373114"
       y2="48.874634"
       gradientUnits="userSpaceOnUse"
       gradientTransform="matrix(1.9756097,0,0,1.9756097,39.036579,12.389676)" />
    <linearGradient
       inkscape:collect="always"
       id="linearGradient1499">
      <stop
         style="stop-color:#0066ff;stop-opacity:1;"
         offset="0"
         id="stop1497" />
      <stop
         style="stop-color:#0047b2;stop-opacity:1;"
         offset="1"
         id="stop1495" />
    </linearGradient>
    <linearGradient
       inkscape:collect="always"
       xlink:href="#linearGradient27878"
       id="linearGradient27880"
       x1="20.000648"
       y1="0.89390171"
       x2="20.000648"
       y2="41.106098"
       gradientUnits="userSpaceOnUse"
       gradientTransform="matrix(1.9756098,0,0,1.9756098,-1.4146361,1.5121941)" />
  </defs>
  <g
     inkscape:label="Layer 1"
     inkscape:groupmode="layer"
     id="layer1">
    <circle
       style="font-variation-settings:normal;opacity:1;vector-effect:none;fill:url(#linearGradient1461);fill-opacity:1;fill-rule:evenodd;stroke:none;stroke-width:2;stroke-linecap:round;stroke-linejoin:miter;stroke-miterlimit:4;stroke-dasharray:none;stroke-dashoffset:0;stroke-opacity:0.501961;-inkscape-stroke:none;stop-color:#000000;stop-opacity:1"
       id="path320"
       cx="46"
       cy="43"
       r="40.5" />
    <circle
       style="font-variation-settings:normal;opacity:1;vector-effect:none;fill:none;fill-opacity:1;fill-rule:evenodd;stroke:url(#linearGradient27880);stroke-width:0.999999;stroke-linecap:round;stroke-linejoin:round;stroke-miterlimit:3.42857;stroke-dasharray:none;stroke-dashoffset:0;stroke-opacity:1;-inkscape-stroke:none;stop-color:#000000;stop-opacity:1"
       id="circle13890"
       cx="46"
       cy="43"
       r="40.5" />
    <path
       id="path20812"
       d="m 56.140045,33.610791 c -0.03842,0.937614 0.14762,2.959408 1.312556,3.115156 1.38876,0.17308 1.834538,-1.032842 1.98592,-1.975368 0.481772,-2.99972 0.615646,-3.896362 0.856376,-6.614388 0.283728,-3.203434 1.02976,-8.607184 -0.274236,-8.1033 -1.321118,0.5105 -2.37048,4.826782 -2.714218,6.635672 -0.267784,1.409188 -1.100412,5.332212 -1.166398,6.942228 z"
       style="fill:#000000;fill-opacity:0.5;stroke:none;stroke-width:1.50002" />
    <path
       id="path20810"
       d="m 38.168043,26.804725 c -0.514844,2.694848 0.225014,5.779524 1.259268,9.509564 0.06246,0.225014 -0.05854,0.51301 -0.16786,0.54657 -0.469596,0.14414 -1.274752,-0.0094 -1.430586,-0.346718 -0.805912,-1.74525 -1.189154,-3.529994 -2.13059,-5.248118 -0.651186,-1.188424 -1.324808,-2.322378 -2.127192,-3.089138 -0.974624,-0.931362 -1.738356,-1.114392 -2.781182,-0.654882 -1.315522,0.579662 -2.110272,1.969456 -2.382872,3.215714 -0.276636,1.264726 -0.16088,2.7247 0.05552,3.99167 0.25476,1.491182 0.578832,2.66795 0.995378,4.063342 -0.317808,0.991038 -2.230532,6.430228 -2.69296,10.201004 -0.593644,4.840652 -2.263152,19.487144 13.038972,17.858746 5.64403,-0.600618 10.243176,-2.686758 14.595432,-4.827118 1.99444,-0.980822 4.49643,-2.24617 6.901646,-3.639462 2.406376,-1.39396 4.638782,-2.879732 6.345058,-4.46128 1.709036,-1.584118 2.953926,-3.3194 2.727258,-5.04829 -0.36528,-2.78618 -2.117274,-4.857436 -4.452672,-6.45711 -2.344088,-1.605612 -6.346664,-3.097614 -9.239484,-3.989028 -3.795706,-1.169616 -6.734184,-1.624244 -10.296618,-1.828678 -0.1995,-3.806526 0.28161,-8.815648 -2.00375,-11.73378 -0.529288,-0.675838 -1.30088,-1.10551 -2.226336,-1.17402 -1.48727,0.06316 -3.50855,0.609442 -3.986466,3.111012 z"
       style="fill:#0044aa;fill-opacity:0.6;stroke:none;stroke-width:1.50002" />
    <path
       style="fill:#000000;fill-opacity:0.5;stroke:none;stroke-width:1.50002"
       d="m 62.223333,34.290675 c -0.760752,1.872682 -1.120584,3.490354 -0.06926,4.03989 1.252988,0.654942 2.33593,-0.613172 2.688326,-1.493904 1.062688,-2.655998 1.650952,-4.26402 2.470822,-6.272816 1.206154,-2.955234 4.216604,-8.632056 2.229778,-8.330994 -1.392722,0.211068 -3.266036,3.942068 -4.164666,5.524884 -1.158638,2.032936 -2.05936,3.835806 -3.155018,6.53294 z"
       id="path20814" />
    <path
       id="path12949"
       d="m 38.726611,26.099309 c -0.486698,2.415486 0.212696,5.18039 1.190428,8.523752 0.05904,0.201674 -0.05536,0.45983 -0.1587,0.489908 -0.443928,0.1292 -1.205068,-0.0084 -1.352382,-0.310774 -0.761856,-1.564326 -1.124148,-3.164056 -2.01412,-4.704068 -0.615586,-1.065224 -1.252384,-2.081628 -2.010904,-2.768902 -0.921344,-0.834812 -1.643328,-0.99887 -2.629146,-0.586994 -1.243604,0.51957 -1.994906,1.765294 -2.252608,2.882356 -0.26151,1.133616 -0.1521,2.442244 0.05252,3.577872 0.240832,1.336596 0.54719,2.391376 0.940964,3.642112 -0.300434,0.888302 -2.108596,5.763636 -2.545744,9.143514 -0.561192,4.338842 -2.139432,17.467 12.326174,16.00741 5.335488,-0.538356 9.683214,-2.408236 13.797546,-4.326714 1.885412,-0.879144 4.250626,-2.013316 6.524354,-3.262176 2.27483,-1.249454 4.385198,-2.5812 5.998196,-3.998798 1.61561,-1.419898 2.792446,-2.975294 2.57817,-4.524954 -0.345312,-2.497352 -2.001532,-4.35389 -4.20926,-5.78773 -2.215942,-1.439168 -5.999712,-2.776502 -8.734392,-3.575504 -3.588206,-1.048368 -6.366046,-1.45587 -9.733738,-1.639108 -0.18858,-3.41192 0.266216,-7.901772 -1.894208,-10.517396 -0.500354,-0.605776 -1.229768,-0.990904 -2.10463,-1.052314 -1.405966,0.05662 -3.316748,0.546266 -3.76854,2.788508 z"
       style="fill:#ffffff;fill-opacity:1;stroke:none;stroke-width:1.50002" />
    <path
       id="path12953"
       d="m 55.716141,32.199825 c -0.0363,0.840414 0.13952,2.652618 1.240804,2.792222 1.312838,0.15514 1.734248,-0.925776 1.877354,-1.770594 0.45544,-2.688752 0.58199,-3.492444 0.809562,-5.928704 0.268218,-2.871346 0.973468,-7.71492 -0.259242,-7.263268 -1.248902,0.457578 -2.240896,4.326412 -2.565842,5.947782 -0.253144,1.263106 -1.040256,4.779446 -1.102636,6.222562 z"
       style="fill:#ffffff;fill-opacity:1;stroke:none;stroke-width:1.50002" />
    <path
       style="fill:#ffffff;fill-opacity:1;stroke:none;stroke-width:1.50002"
       d="m 61.466877,32.809227 c -0.719164,1.678548 -1.059324,3.128522 -0.06544,3.621092 1.184484,0.587046 2.208228,-0.549606 2.54136,-1.339038 1.004594,-2.380664 1.560698,-3.821988 2.335748,-5.622544 1.14022,-2.648876 3.986098,-7.737208 2.107886,-7.467354 -1.316586,0.18918 -3.087492,3.533412 -3.936998,4.952146 -1.095298,1.822186 -1.94678,3.438164 -2.982542,5.855698 z"
       id="path12955" />
    <path
       style="color:#000000;display:inline;overflow:visible;visibility:visible;opacity:0.3;fill:none;stroke:url(#linearGradient3019);stroke-width:1;stroke-linecap:round;stroke-linejoin:round;stroke-miterlimit:4;stroke-dasharray:none;stroke-dashoffset:0;stroke-opacity:1;marker:none;enable-background:accumulate"
       id="path8655"
       d="m 85.500005,42.998598 c 0,21.815953 -17.686055,39.5014 -39.499501,39.5014 -21.815443,0 -39.5005045,-17.685648 -39.5005045,-39.5014 0,-21.814944 17.6850615,-39.4985995 39.5005045,-39.4985995 21.813446,0 39.499501,17.6836555 39.499501,39.4985995 z" />
    <path
       style="color:#000000;font-variation-settings:normal;display:inline;overflow:visible;visibility:visible;opacity:1;vector-effect:none;fill:url(#linearGradient14016);fill-opacity:1;fill-rule:nonzero;stroke:#002e99;stroke-width:0.999997;stroke-linecap:round;stroke-linejoin:round;stroke-miterlimit:3.42857;stroke-dasharray:none;stroke-dashoffset:0;stroke-opacity:0.5;-inkscape-stroke:none;marker:none;enable-background:accumulate;stop-color:#000000;stop-opacity:1"
       id="path2555-7-8-5-0-9"
       d="m 73.999995,55.499998 c -10.75943,0 -19.499998,8.740568 -19.499998,19.499998 0,10.759432 8.740568,19.500001 19.499998,19.500001 10.759432,0 19.500022,-8.740569 19.500002,-19.500001 0,-10.75943 -8.74057,-19.499998 -19.500002,-19.499998 z" />
    <path
       style="color:#000000;display:inline;overflow:visible;visibility:visible;opacity:0.5;fill:none;stroke:url(#linearGradient12398-3-3);stroke-width:0.999995;stroke-linecap:round;stroke-linejoin:round;stroke-miterlimit:4;stroke-dasharray:none;stroke-dashoffset:0;stroke-opacity:1;marker:none;enable-background:accumulate"
       id="path8655-6-0-9-5-0"
       d="m 92.5,74.999346 c 0,10.217615 -8.283352,18.500674 -18.499778,18.500674 -10.217363,0 -18.500225,-8.283157 -18.500225,-18.500674 0,-10.217128 8.282862,-18.499349 18.500225,-18.499349 10.216426,0 18.499778,8.282221 18.499778,18.499349 z" />
    <path
       id="path32058"
       style="font-variation-settings:normal;vector-effect:none;fill:#ffffff;fill-opacity:1;stroke:none;stroke-width:1;stroke-linecap:butt;stroke-linejoin:miter;stroke-miterlimit:4;stroke-dasharray:none;stroke-dashoffset:0;stroke-opacity:1;-inkscape-stroke:none;marker:none;stop-color:#000000"
       d="m 83.999999,77.556305 c 0,-0.862436 -0.669292,-1.556744 -1.500656,-1.556744 H 77.000328 V 66.556744 C 77.000328,65.694306 76.331036,65 75.499672,65 h -2.999344 c -0.831364,0 -1.501476,0.694306 -1.500656,1.556744 v 9.442817 h -5.499021 c -0.83136,0 -1.500652,0.694308 -1.500652,1.556744 0,0.46482 0.19472,0.87975 0.504124,1.16452 l 8.44757,8.86194 c 0.268758,0.26322 0.629986,0.425674 1.02877,0.425674 0.398784,0 0.76001,-0.16244 1.02877,-0.425674 l 8.48664,-8.86194 c 0.30942,-0.28477 0.504126,-0.6997 0.504126,-1.16452 z"
       sodipodi:nodetypes="sscsssccssccsccs" />
    <path
       id="path873-5"
       style="font-variation-settings:normal;vector-effect:none;fill:#1366df;fill-opacity:1;stroke:none;stroke-width:1;stroke-linecap:butt;stroke-linejoin:miter;stroke-miterlimit:4;stroke-dasharray:none;stroke-dashoffset:0;stroke-opacity:1;-inkscape-stroke:none;marker:none;stop-color:#000000"
       d="m 83.999999,76.556305 c 0,-0.862436 -0.669292,-1.556744 -1.500656,-1.556744 H 75.999999 V 64.556744 C 75.999999,63.694306 75.330707,63 74.499343,63 h -0.998688 c -0.831364,0 -1.501476,0.694306 -1.500656,1.556744 v 10.442817 h -6.499348 c -0.83136,0 -1.500652,0.694308 -1.500652,1.556744 0,0.46482 0.19472,0.87975 0.504124,1.16452 l 8.44757,8.86194 c 0.268758,0.26322 0.629986,0.425674 1.02877,0.425674 0.398784,0 0.76001,-0.16244 1.02877,-0.425674 l 8.48664,-8.86194 c 0.30942,-0.28477 0.504126,-0.6997 0.504126,-1.16452 z"
       sodipodi:nodetypes="sscsssccssccsccs" />
  </g>
</svg>
