<?xml version="1.0" encoding="UTF-8" standalone="no"?>
<svg
   viewBox="0 0 96 96"
   version="1.0"
   width="96"
   height="96"
   id="svg11300"
   sodipodi:docname="ubiquity.svg"
   inkscape:version="1.2.2 (b0a8486541, 2022-12-01)"
   xmlns:inkscape="http://www.inkscape.org/namespaces/inkscape"
   xmlns:sodipodi="http://sodipodi.sourceforge.net/DTD/sodipodi-0.dtd"
   xmlns:xlink="http://www.w3.org/1999/xlink"
   xmlns="http://www.w3.org/2000/svg"
   xmlns:svg="http://www.w3.org/2000/svg"
   xmlns:rdf="http://www.w3.org/1999/02/22-rdf-syntax-ns#"
   xmlns:cc="http://creativecommons.org/ns#"
   xmlns:dc="http://purl.org/dc/elements/1.1/">
  <sodipodi:namedview
     pagecolor="#ffffff"
     bordercolor="#666666"
     borderopacity="1"
     objecttolerance="10"
     gridtolerance="10"
     guidetolerance="10"
     inkscape:pageopacity="0"
     inkscape:pageshadow="2"
     inkscape:window-width="1317"
     inkscape:window-height="893"
     id="namedview38"
     showgrid="false"
     inkscape:zoom="27.812868"
     inkscape:cx="67.93618"
     inkscape:cy="70.075477"
     inkscape:window-x="601"
     inkscape:window-y="55"
     inkscape:window-maximized="0"
     inkscape:current-layer="svg11300"
     inkscape:pagecheckerboard="0"
     inkscape:showpageshadow="2"
     inkscape:deskcolor="#d1d1d1" />
  <metadata
     id="metadata49">
    <rdf:RDF>
      <cc:Work
         rdf:about="">
        <dc:format>image/svg+xml</dc:format>
        <dc:type
           rdf:resource="http://purl.org/dc/dcmitype/StillImage" />
      </cc:Work>
    </rdf:RDF>
  </metadata>
  <defs
     id="defs3">
    <linearGradient
       id="linearGradient4614">
      <stop
         offset="0"
         style="stop-color:#ffffff;stop-opacity:1"
         id="stop4606" />
      <stop
         offset="0.02750255"
         style="stop-color:#ffffff;stop-opacity:0.23529412"
         id="stop4608" />
      <stop
         offset="0.9812181"
         style="stop-color:#ffffff;stop-opacity:0.15686275"
         id="stop4610" />
      <stop
         offset="1"
         style="stop-color:#ffffff;stop-opacity:0.39215687"
         id="stop4612" />
    </linearGradient>
    <linearGradient
       id="linearGradient3742">
      <stop
         id="stop3734"
         style="stop-color:#ffffff;stop-opacity:1"
         offset="0" />
      <stop
         id="stop3736"
         style="stop-color:#ffffff;stop-opacity:0.23529412"
         offset="0.01900466" />
      <stop
         id="stop3738"
         style="stop-color:#ffffff;stop-opacity:0.15686275"
         offset="0.9812181" />
      <stop
         id="stop3740"
         style="stop-color:#ffffff;stop-opacity:0.39215687"
         offset="1" />
    </linearGradient>
    <radialGradient
       r="22.627001"
       gradientTransform="matrix(0.97226462,0,0,0.2209741,10.312924,80.797776)"
       cx="23.334999"
       cy="41.636002"
       gradientUnits="userSpaceOnUse"
       id="radialGradient7374">
      <stop
         offset="0"
         id="stop23421" />
      <stop
         offset="1"
         style="stop-opacity:0"
         id="stop23423" />
    </radialGradient>
    <linearGradient
       id="linearGradient3600-8">
      <stop
         id="stop3602-2"
         style="stop-color:#f4f4f4;stop-opacity:1"
         offset="0" />
      <stop
         id="stop3604-5"
         style="stop-color:#dbdbdb;stop-opacity:1"
         offset="1" />
    </linearGradient>
    <linearGradient
       x1="11.098394"
       y1="5.9702148"
       x2="11.098394"
       y2="45.68882"
       id="linearGradient5466-8-3"
       xlink:href="#linearGradient3600-8"
       gradientUnits="userSpaceOnUse"
       gradientTransform="matrix(2.0073162,0,0,1.7107328,19.688663,-7.2203116)" />
    <linearGradient
       y2="31.67935"
       x2="118.57409"
       y1="3.7037382"
       x1="118.57409"
       gradientTransform="matrix(1.3413942,0,0,2.3201011,-108.55791,-4.0467514)"
       gradientUnits="userSpaceOnUse"
       id="linearGradient3730"
       xlink:href="#linearGradient3742" />
    <linearGradient
       y2="-26.979191"
       x2="116.7913"
       y1="-37.973656"
       x1="116.7913"
       gradientTransform="matrix(1.3866946,0,0,2.4719333,-113.33848,5.0753801)"
       gradientUnits="userSpaceOnUse"
       id="linearGradient4604"
       xlink:href="#linearGradient4614" />
    <linearGradient
       id="linearGradient7056">
      <stop
         id="stop7064"
         style="stop-color:#e6e6e6;stop-opacity:1"
         offset="0" />
      <stop
         id="stop7060"
         style="stop-color:#c8c8c8;stop-opacity:1"
         offset="1" />
    </linearGradient>
    <linearGradient
       gradientUnits="userSpaceOnUse"
       y2="-44.395805"
       x2="25"
       y1="-35"
       x1="25"
       id="linearGradient4763"
       xlink:href="#linearGradient7056"
       gradientTransform="matrix(2,0,0,2,-15,-1.0014)" />
    <radialGradient
       cx="62.625"
       cy="4.625"
       r="10.625"
       fx="62.625"
       fy="4.625"
       id="radialGradient12301"
       xlink:href="#linearGradient8838"
       gradientUnits="userSpaceOnUse"
       gradientTransform="matrix(1.8823529,0,0,0.564705,-51.88234,87.38824)" />
    <linearGradient
       id="linearGradient8838">
      <stop
         id="stop8840"
         style="stop-color:#000000;stop-opacity:1"
         offset="0" />
      <stop
         id="stop8842"
         style="stop-color:#000000;stop-opacity:0"
         offset="1" />
    </linearGradient>
    <linearGradient
       id="linearGradient4011-2">
      <stop
         id="stop4013-7"
         style="stop-color:#ffffff;stop-opacity:1"
         offset="0" />
      <stop
         id="stop4015-9"
         style="stop-color:#ffffff;stop-opacity:0.23529412"
         offset="0.507761" />
      <stop
         id="stop4017-5"
         style="stop-color:#ffffff;stop-opacity:0.15686275"
         offset="0.83456558" />
      <stop
         id="stop4019-6"
         style="stop-color:#ffffff;stop-opacity:0.39215687"
         offset="1" />
    </linearGradient>
    <linearGradient
       x1="2035.1652"
       y1="3208.0737"
       x2="2035.1652"
       y2="3241.9966"
       id="linearGradient11527-6-5-3"
       xlink:href="#linearGradient947-2"
       gradientUnits="userSpaceOnUse"
       gradientTransform="matrix(1.5712551,0,0,1.1746643,-3137.5049,-3715.7752)" />
    <linearGradient
       id="linearGradient947-2">
      <stop
         offset="0"
         style="stop-color:#64baff;stop-opacity:1"
         id="stop943-7" />
      <stop
         offset="1"
         style="stop-color:#3689e6;stop-opacity:1"
         id="stop945-0" />
    </linearGradient>
    <linearGradient
       x1="71.204407"
       y1="6.2375584"
       x2="71.204407"
       y2="44.340794"
       id="linearGradient3071"
       xlink:href="#linearGradient4011-2"
       gradientUnits="userSpaceOnUse"
       gradientTransform="matrix(1.0540539,0,0,1.0540539,-9.6110023,45.272097)" />
  </defs>
  <path
     d="m 55,89.9986 a 22,5 0 1 1 -44,0 22,5 0 1 1 44,0 z"
     style="opacity:0.3;fill:url(#radialGradient7374);fill-rule:evenodd;stroke-width:2"
     id="path23417"
     inkscape:connector-curvature="0" />
  <rect
     x="18"
     y="-90.001404"
     width="30"
     height="30"
     ry="1.5"
     rx="1.5"
     transform="scale(1,-1)"
     style="fill:url(#linearGradient4763);fill-opacity:1;stroke:none;stroke-width:2"
     id="rect3448" />
  <rect
     x="17.5"
     y="-90.5"
     width="31"
     height="30.999998"
     ry="2"
     rx="2"
     transform="scale(1,-1)"
     style="opacity:0.4;fill:none;stroke:#000000;stroke-width:1;stroke-miterlimit:4;stroke-dasharray:none;stroke-opacity:1"
     id="rect3448-9" />
  <path
     id="rect3450"
     d="m 23.5,78.5 v 5 h 7 v -5 z m 12,0 v 5 h 7 v -5 z"
     style="opacity:1;fill:#bfbfbf;fill-opacity:1;stroke:#000000;stroke-width:1;stroke-linecap:butt;stroke-linejoin:miter;stroke-miterlimit:4;stroke-dasharray:none;stroke-dashoffset:0;stroke-opacity:0.25"
     inkscape:connector-curvature="0"
     sodipodi:nodetypes="cccccccccc" />
  <rect
     x="18.5"
     y="-89.5"
     width="29"
     height="29"
     transform="scale(1,-1)"
     style="opacity:0.6;fill:none;fill-opacity:1;stroke:url(#linearGradient4604);stroke-width:1;stroke-linecap:round;stroke-linejoin:round;stroke-miterlimit:4;stroke-dasharray:none;stroke-dashoffset:0;stroke-opacity:1;marker:none"
     id="rect3458"
     rx="1.0357143"
     ry="1.0357143" />
  <rect
     x="12"
     y="3.0000002"
     width="42"
     height="68"
     ry="2.5"
     rx="2.5"
     style="opacity:1;fill:url(#linearGradient5466-8-3);fill-opacity:1;stroke:none;stroke-width:1.99984;stroke-linecap:butt;stroke-linejoin:round;stroke-miterlimit:4;stroke-dasharray:none;stroke-dashoffset:0;stroke-opacity:1;marker:none"
     id="rect5391" />
  <rect
     x="11.5"
     y="2.5"
     width="43"
     height="69"
     ry="3"
     rx="3"
     style="opacity:0.3;fill:none;fill-opacity:1;stroke:#000000;stroke-width:1;stroke-linecap:butt;stroke-linejoin:round;stroke-miterlimit:4;stroke-dasharray:none;stroke-dashoffset:0;stroke-opacity:1;marker:none"
     id="rect5391-2" />
  <path
     style="opacity:1;fill:none;fill-opacity:1;stroke:url(#linearGradient3730);stroke-width:1;stroke-linecap:round;stroke-linejoin:round;stroke-miterlimit:4;stroke-dasharray:none;stroke-dashoffset:0;stroke-opacity:1;marker:none"
     d="m 14.657896,3.5 c -1.195474,0 -2.157895,0.9338125 -2.157895,2.09375 v 62.8125 c 0,1.159937 0.962421,2.09375 2.157895,2.09375 h 36.684211 c 1.195474,0 2.157895,-0.933813 2.157895,-2.09375 V 5.59375 C 53.500002,4.4338125 52.537581,3.5 51.342107,3.5 Z"
     id="rect5391-2-0"
     inkscape:connector-curvature="0" />
  <path
     d="m 29.356342,57.63682 c 0,-2.5548 0.84912,-3.2176 1.88922,-4.1096 0.835,-0.40308 0.96842,-0.67826 0.95744,-1.9746 -0.012,-1.43256 -0.14924,-1.26892 -2.8044,-3.5738 -4.054,-3.519 -4.5992,-4.3676 -5.0752,-7.8988 -0.35112,-2.6044 -0.10484,-2.0314 -1.11276,-3.0332 -1.85518,-1.84386 -1.53734,-4.548 0.67114,-5.7102 1.98956,-1.04696 4.3464,0.06656 5.0732,2.397 0.35822,1.14854 -0.50058,3.132 -1.65376,3.8194 -1.05528,0.6291 -1.49308,-0.41974 -1.25176,1.89922 0.13356,1.28348 0.45904,2.7596 0.72328,3.2802 0.45382,0.89408 4.8978,5.103 5.3812,5.103 v -24.864 h -2.4634 c 1.14,-1.976 2.25,-3.9848 3.354,-5.974 l 3.5154,5.9748 h -2.3944 v 16.84 c 0.33302,0 3.598,-3.3136 4.6966,-4.8054 0.47468,-0.64456 0.76274,-1.55978 0.76274,-2.4234 0,-1.30248 0.42952,-1.57636 -0.56392,-1.57636 h -1.0584 v -6.1032 h 5.9976 v 6.1032 h -0.9702 c -0.86568,0.10136 -1.48442,0.5426 -1.64784,1.98682 -0.24372,2.1538 -1.16618,3.5674 -4.561,6.9894 l -2.6556,2.8638 v 10.2128 l 0.78476,0.46836 c 0.53362,0.2576 1.26852,1.08998 1.63312,1.84974 1.298,2.71 -0.508,5.622 -3.486,5.622 -2.158,-0.08 -3.742,-1.188 -3.742,-3.36 z"
     style="opacity:0.3;fill:#ffffff;stroke-width:2"
     id="path3690-6"
     inkscape:connector-curvature="0" />
  <path
     d="m 29.356342,55.63694 c 0,-2.5548 0.84912,-3.2176 1.88922,-4.1096 0.835,-0.40308 0.96842,-0.67826 0.95744,-1.9746 -0.012,-1.43256 -0.14924,-1.26892 -2.8044,-3.5738 -4.054,-3.519 -4.5992,-4.3676 -5.0752,-7.8988 -0.35112,-2.6044 -0.10484,-2.0314 -1.11276,-3.0332 -1.85518,-1.84386 -1.53734,-4.548 0.67114,-5.7102 1.98956,-1.04696 4.3464,0.06656 5.0732,2.397 0.35822,1.14854 -0.50058,3.132 -1.65376,3.8194 -1.05528,0.6291 -1.49308,-0.41974 -1.25176,1.89922 0.13356,1.28348 0.45904,2.7596 0.72328,3.2802 0.45382,0.89408 4.8978,5.103 5.3812,5.103 v -24.864 H 29.25 l 3.875,-5.974 3.875,5.9748 h -2.834458 v 16.84 c 0.33302,0 3.598,-3.3136 4.6966,-4.8054 0.47468,-0.64456 0.76274,-1.55978 0.76274,-2.4234 0,-1.30248 0.42952,-1.57636 -0.56392,-1.57636 h -1.0584 V 22.904 h 5.9976 v 6.1032 h -0.9702 c -0.86568,0.10136 -1.48442,0.5426 -1.64784,1.98682 -0.24372,2.1538 -1.16618,3.5674 -4.561,6.9894 l -2.6556,2.8638 v 10.2128 l 0.78476,0.46836 c 0.53362,0.2576 1.26852,1.08998 1.63312,1.84974 1.298,2.71 -0.508,5.622 -3.486,5.622 -2.158,-0.08 -3.742,-1.188 -3.742,-3.36 z"
     style="opacity:0.95;fill:#aaaaaa;stroke-width:2"
     id="path3690"
     inkscape:connector-curvature="0"
     sodipodi:nodetypes="cccccccccsccccccccssscccccscccccccc" />
  <path
     d="m 86,90 c 0,3.3137 -8.95429,6 -20,6 -11.04571,0 -20,-2.6863 -20,-6 0,-3.3137 8.95429,-6 20,-6 11.04571,0 20,2.6863 20,6 z"
     id="path8836"
     style="display:inline;overflow:visible;visibility:visible;opacity:0.3;fill:url(#radialGradient12301);fill-opacity:1;fill-rule:evenodd;stroke:none;stroke-width:0.999995;marker:none" />
  <rect
     y="75"
     x="26"
     height="1"
     width="2"
     id="rect4665"
     style="opacity:0.2;fill:#000000;fill-opacity:1;stroke:none;stroke-width:3;stroke-linecap:round;stroke-linejoin:round;stroke-miterlimit:4;stroke-dasharray:none;stroke-dashoffset:0;stroke-opacity:1" />
  <rect
     style="opacity:0.4;fill:#ffffff;fill-opacity:1;stroke:none;stroke-width:3;stroke-linecap:round;stroke-linejoin:round;stroke-miterlimit:4;stroke-dasharray:none;stroke-dashoffset:0;stroke-opacity:1"
     id="rect4669"
     width="2"
     height="1"
     x="26"
     y="76" />
  <rect
     y="75"
     x="38"
     height="1"
     width="2"
     id="rect2757"
     style="opacity:0.2;fill:#000000;fill-opacity:1;stroke:none;stroke-width:3;stroke-linecap:round;stroke-linejoin:round;stroke-miterlimit:4;stroke-dasharray:none;stroke-dashoffset:0;stroke-opacity:1" />
  <rect
     style="opacity:0.4;fill:#ffffff;fill-opacity:1;stroke:none;stroke-width:3;stroke-linecap:round;stroke-linejoin:round;stroke-miterlimit:4;stroke-dasharray:none;stroke-dashoffset:0;stroke-opacity:1"
     id="rect2759"
     width="2"
     height="1"
     x="38"
     y="76" />
  <path
     d="M 66.000004,51.5 C 54.688804,51.5 45.5,60.688802 45.5,71.999998 c 0,11.311195 9.188804,20.499994 20.500004,20.499994 11.311181,0 20.500017,-9.188799 20.499996,-20.499994 C 86.5,60.688802 77.311185,51.5 66.000004,51.5 Z"
     id="path2555-7-8-5-0-9-2"
     style="color:#000000;display:inline;overflow:visible;visibility:visible;opacity:0.99;fill:url(#linearGradient11527-6-5-3);fill-opacity:1;fill-rule:nonzero;stroke:none;stroke-width:1;marker:none;enable-background:accumulate" />
  <path
     style="color:#000000;clip-rule:nonzero;display:inline;overflow:visible;visibility:visible;opacity:0.5;isolation:auto;mix-blend-mode:normal;color-interpolation:sRGB;color-interpolation-filters:linearRGB;solid-color:#000000;solid-opacity:1;fill:none;fill-opacity:1;fill-rule:nonzero;stroke:#002e99;stroke-width:1;stroke-linecap:round;stroke-linejoin:round;stroke-miterlimit:4;stroke-dasharray:none;stroke-dashoffset:0;stroke-opacity:1;marker:none;color-rendering:auto;image-rendering:auto;shape-rendering:auto;text-rendering:auto;enable-background:accumulate"
     id="path2555-7"
     d="M 66.000008,51.5 C 54.688805,51.5 45.5,60.688805 45.5,72 c 0,11.311193 9.188805,20.5 20.500008,20.499998 11.311183,0 20.5,-9.188805 20.5,-20.499998 0,-11.311195 -9.188817,-20.5 -20.5,-20.5 z" />
  <path
     style="color:#000000;display:inline;overflow:visible;visibility:visible;opacity:0.5;fill:none;stroke:url(#linearGradient3071);stroke-width:0.999999;stroke-linecap:round;stroke-linejoin:round;stroke-miterlimit:4;stroke-dasharray:none;stroke-dashoffset:0;stroke-opacity:1;marker:none;enable-background:accumulate"
     id="path8655-6"
     d="m 85.500001,71.9993 c 0,10.769904 -8.731102,19.500693 -19.499758,19.500693 -10.769654,0 -19.500244,-8.730892 -19.500244,-19.500693 0,-10.769393 8.73059,-19.499301 19.500244,-19.499301 10.768656,0 19.499758,8.729908 19.499758,19.499301 z" />
  <path
     style="opacity:0.05;vector-effect:none;fill:#002e99;fill-opacity:1;stroke:none;stroke-width:1px;stroke-linecap:butt;stroke-linejoin:miter;stroke-miterlimit:4;stroke-dasharray:none;stroke-dashoffset:0;stroke-opacity:1;marker:none;paint-order:normal"
     id="rect1041-2-7"
     d="m 66.016108,86.500426 c -0.72656,0.1038 -1.4176,-0.273612 -1.91072,-0.715908 -0.043,-0.03814 -0.0834,-0.07882 -0.1208,-0.1218 l -8.2198,-9.35526 c -0.012,-0.0106 -0.0234,-0.02134 -0.0348,-0.03232 -0.45408,-0.454236 -0.72992,-1.07126 -0.72992,-1.73011 0,-1.39074 1.24658,-2.545456 2.74798,-2.545456 h 4.252397 V 62.545454 C 62.000445,61.157286 63.249805,60 64.748425,60 h 2.50376 c 1.49862,0 2.74798,1.157288 2.74798,2.545454 v 9.454118 h 4.251903 c 1.5014,0 2.748,1.154714 2.748,2.545456 0,0.659408 -0.27634,1.275958 -0.72994,1.730114 l -8.2547,9.422374 c -0.028,0.03026 -0.0576,0.0593 -0.0886,0.087 -0.49306,0.44191 -1.18366,0.612046 -1.91072,0.71591 z"
     sodipodi:nodetypes="sccccsscsssscsscccs" />
  <path
     style="opacity:0.15;vector-effect:none;fill:#002e99;fill-opacity:1;stroke:none;stroke-width:1px;stroke-linecap:butt;stroke-linejoin:miter;stroke-miterlimit:4;stroke-dasharray:none;stroke-dashoffset:0;stroke-opacity:1;marker:none;paint-order:normal"
     d="m 66.014188,85.51872 c -0.34726,0 -0.66234,-0.1365 -0.89354,-0.3583 l -7.7788,-9.023612 c -0.21218,-0.226992 -0.34184,-0.530748 -0.34184,-0.864508 0,-0.702906 0.57516,-1.272728 1.28468,-1.272728 h 5.716187 V 63.272728 C 64.000875,62.567636 64.573855,62 65.285555,62 h 1.43028 c 0.7117,0 1.28468,0.567636 1.28468,1.272728 v 10.726844 h 5.714813 c 0.7095,0 1.28468,0.56982 1.28468,1.272728 0,0.333564 -0.1296,0.637158 -0.34148,0.864108 l -7.7511,9.02433 c -0.2312,0.22161 -0.54614,0.357982 -0.89324,0.357982 z"
     id="rect1041-2"
     sodipodi:nodetypes="sccsscsssscssccs" />
  <path
     style="vector-effect:none;fill:#ffffff;fill-opacity:1;stroke:none;stroke-width:1;stroke-linecap:butt;stroke-linejoin:miter;stroke-miterlimit:4;stroke-dasharray:none;stroke-dashoffset:0;stroke-opacity:1;marker:none;paint-order:normal"
     d="M 66.014188,83.49872 C 65.43276,83.499239 64.962718,83.192726 64.490309,82.65 l -7.148461,-8.2125 c -0.204003,-0.234369 -0.34184,-0.73174 -0.34184,-1.0655 0,-0.702906 0.57516,-1.372428 1.28468,-1.372428 h 5.716187 V 61.272728 C 64.000875,60.567636 64.573855,60 65.285555,60 h 1.43028 c 0.7117,0 1.28468,0.567636 1.28468,1.272728 v 10.726844 h 5.714813 c 0.7095,0 1.28468,0.66952 1.28468,1.372428 0,0.333564 -0.137998,0.829992 -0.34148,1.0645 L 67.531692,82.65 c -0.469301,0.540858 -0.937931,0.848203 -1.517504,0.84872 z"
     id="rect1041"
     sodipodi:nodetypes="asssscsssscssssa" />
</svg>
