<?xml version="1.0" encoding="UTF-8" standalone="no"?>
<svg
   xmlns:dc="http://purl.org/dc/elements/1.1/"
   xmlns:cc="http://creativecommons.org/ns#"
   xmlns:rdf="http://www.w3.org/1999/02/22-rdf-syntax-ns#"
   xmlns:svg="http://www.w3.org/2000/svg"
   xmlns="http://www.w3.org/2000/svg"
   xmlns:xlink="http://www.w3.org/1999/xlink"
   id="svg2897"
   height="96"
   width="96"
   version="1.1">
  <metadata
     id="metadata29">
    <rdf:RDF>
      <cc:Work
         rdf:about="">
        <dc:format>image/svg+xml</dc:format>
        <dc:type
           rdf:resource="http://purl.org/dc/dcmitype/StillImage" />
        <dc:title />
      </cc:Work>
    </rdf:RDF>
  </metadata>
  <defs
     id="defs2899">
    <linearGradient
       id="linearGradient4873">
      <stop
         offset="0"
         style="stop-color:#ffffff;stop-opacity:1"
         id="stop4875" />
      <stop
         offset="1"
         style="stop-color:#ffffff;stop-opacity:0"
         id="stop4877" />
    </linearGradient>
    <linearGradient
       id="linearGradient2867-449-88-871-390-598-476-591-434-148">
      <stop
         offset="0"
         style="stop-color:#51cfee;stop-opacity:1"
         id="stop4627" />
      <stop
         offset="0.26238"
         style="stop-color:#49a3d2;stop-opacity:1"
         id="stop4629" />
      <stop
         offset="0.704952"
         style="stop-color:#3470b4;stop-opacity:1"
         id="stop4631" />
      <stop
         offset="1"
         style="stop-color:#273567;stop-opacity:1"
         id="stop4633" />
    </linearGradient>
    <linearGradient
       id="linearGradient3707-319-631">
      <stop
         offset="0"
         style="stop-color:#254b6d;stop-opacity:1"
         id="stop4637" />
      <stop
         offset="0.5"
         style="stop-color:#415b73;stop-opacity:1"
         id="stop4639" />
      <stop
         offset="1"
         style="stop-color:#6195b5;stop-opacity:1"
         id="stop4641" />
    </linearGradient>
    <linearGradient
       id="linearGradient8838">
      <stop
         offset="0"
         style="stop-color:#000000;stop-opacity:1"
         id="stop8840" />
      <stop
         offset="1"
         style="stop-color:#000000;stop-opacity:0"
         id="stop8842" />
    </linearGradient>
    <linearGradient
       y2="-1.4615115"
       x2="62.200409"
       y1="-12.489107"
       x1="62.200409"
       gradientTransform="matrix(4.6309524,0,0,4.6308478,-240.04715,64.258143)"
       gradientUnits="userSpaceOnUse"
       id="linearGradient2405"
       xlink:href="#linearGradient4873" />
    <radialGradient
       r="9.7552834"
       fy="-8.7256308"
       fx="61.240059"
       cy="-8.7256308"
       cx="61.240059"
       gradientTransform="matrix(0,7.4985434,-7.4985013,0,-17.429675,-441.05897)"
       gradientUnits="userSpaceOnUse"
       id="radialGradient2409"
       xlink:href="#linearGradient2867-449-88-871-390-598-476-591-434-148" />
    <linearGradient
       y2="2.6887112"
       x2="20"
       y1="43"
       x1="20"
       gradientTransform="matrix(2.0856618,0,0,2.085625,-2.8857789,-1.2246202)"
       gradientUnits="userSpaceOnUse"
       id="linearGradient2411"
       xlink:href="#linearGradient3707-319-631" />
    <radialGradient
       r="10.625"
       fy="4.625"
       fx="62.625"
       cy="4.625"
       cx="62.625"
       gradientTransform="matrix(4.6069179,0,0,1.861459,-240.50879,70.689715)"
       gradientUnits="userSpaceOnUse"
       id="radialGradient2414"
       xlink:href="#linearGradient8838" />
    <radialGradient
       gradientTransform="matrix(-2.643979,0,2.93653e-8,2.534421,78.72514,-37.986139)"
       gradientUnits="userSpaceOnUse"
       xlink:href="#linearGradient4845"
       id="radialGradient2418"
       fy="24.149399"
       fx="17.81411"
       r="9.125"
       cy="24.149399"
       cx="17.81411" />
    <linearGradient
       id="linearGradient4845">
      <stop
         offset="0"
         style="stop-color:#ffffff;stop-opacity:1"
         id="stop4847" />
      <stop
         offset="1"
         style="stop-color:#b6b6b6;stop-opacity:1"
         id="stop4849" />
    </linearGradient>
  </defs>
  <g
     transform="translate(0,-1)"
     id="g4106">
    <path
       style="opacity:0.3;fill:url(#radialGradient2414);fill-opacity:1;fill-rule:evenodd;stroke:none;stroke-width:0.99999988;marker:none;visibility:visible;display:inline;overflow:visible"
       id="path8836"
       d="M 96.948,79.298974 C 96.948,90.222079 75.033008,99.077 47.999501,99.077 20.965992,99.077 -0.949,90.222079 -0.949,79.298974 c 0,-10.923109 21.914992,-19.778035 48.948501,-19.778035 27.033507,0 48.948499,8.854926 48.948499,19.778035 z" />
    <path
       style="fill:url(#radialGradient2409);fill-opacity:1;fill-rule:nonzero;stroke:url(#linearGradient2411);stroke-width:1;stroke-miterlimit:4;stroke-dasharray:none"
       id="path6495"
       d="m 89.499341,47.998562 c 0,22.920576 -18.581472,41.501506 -41.499298,41.501506 -22.919924,0 -41.5003435,-18.58114 -41.5003435,-41.501506 C 6.4996995,25.079039 25.080119,6.5 48.000043,6.5 c 22.917826,0 41.499298,18.579039 41.499298,41.498562 l 0,0 z" />
    <path
       style="opacity:0.4;fill:#000000;fill-opacity:1;fill-rule:nonzero;stroke:none"
       id="path6534"
       d="m 48.68261,7.5000004 -5.086511,0.5822678 -5.595157,1.5284554 c 0.476607,-0.1671014 0.95944,-0.3494984 1.453284,-0.5094858 l -0.62781,-1.1121967 c -0.976838,0.2347087 -1.798678,0.4694176 -2.61615,0.7041265 l -0.679909,0.6264208 -1.671286,0.2183505 -1.52595,0.7278321 -0.726644,0.36392 -0.217991,0.291138 -1.089977,0.218349 -0.653972,1.382885 -0.531722,-0.952982 -0.569835,0.294149 0.08423,1.605021 -1.380624,1.164535 -0.799305,2.110717 1.671281,0 0.65398,-1.382885 0.217988,-0.509482 c 0.734866,-0.520516 1.431497,-1.100206 2.179946,-1.601235 l 1.743936,0.582268 c 1.135435,0.77267 2.278848,1.557564 3.415228,2.329065 l 1.671267,-1.528448 -1.889279,-0.800617 -0.871973,-1.746805 -3.197233,-0.363919 -0.07268,-0.363916 1.380621,0.291129 0.799316,-0.800618 1.74394,-0.363912 c 0.412702,-0.201045 0.818681,-0.345852 1.235296,-0.5094872 l -1.089969,1.0189682 3.923885,2.692992 0,1.601234 -1.525953,1.528456 2.034596,4.07588 1.380626,-0.800628 1.74395,-2.692983 c 2.451871,-0.75929 4.661638,-1.642814 6.975791,-2.692992 l -0.14536,1.018967 1.162635,0.800618 2.034603,-1.382885 -1.017303,-1.164536 -1.380626,0.800615 -0.435992,-0.145559 c 0.100097,-0.04586 0.190093,-0.09897 0.290663,-0.145567 l 2.034636,-5.2404146 z m -19.910046,7.8606176 1.671278,1.164535 1.38063,0 0,-1.382885 -1.671277,-0.727831 z m 38.584791,-0.946181 -2.979241,0.727831 -1.88926,1.237324 0,1.091746 -2.97925,1.892371 0.581319,2.838558 1.743949,-1.237317 1.08996,1.237317 1.235297,0.727842 0.799305,-2.11073 -0.435983,-1.237318 0.435983,-0.873407 1.743949,-1.601233 0.799312,0 -0.799312,1.746811 0,1.601229 c 0.718808,-0.195977 1.444345,-0.272302 2.179935,-0.363918 l -2.034599,1.455677 -0.14536,0.873394 -2.325267,1.965164 -2.397929,-0.582277 0,-1.382887 -1.08996,0.727843 0.508656,1.237321 -1.743939,0 -0.944645,1.601237 -1.162636,1.310099 -2.107264,0.436699 1.2353,1.237327 0.290652,1.237317 -1.525952,0 -2.034607,1.091755 0,3.202467 0.944641,0 0.871966,0.946191 1.961941,-0.946191 0.726645,-1.965155 1.453294,-0.873409 0.290665,-0.727823 2.325243,-0.582271 1.307969,1.45567 1.380626,0.727833 -0.799314,1.601241 1.235303,-0.363923 0.653967,-1.601235 -1.598609,-1.819586 0.653985,0 1.598614,1.310094 0.290655,1.746813 1.38062,1.601233 0.363326,-2.329064 0.726635,-0.363925 c 0.773472,0.804272 1.383167,1.787836 2.034614,2.692989 l 2.397929,0.145586 1.380625,0.873413 -0.653986,0.94618 -1.380625,1.237321 -2.034602,0 -2.688577,-0.873406 -1.380625,0.145607 -1.017304,1.164532 -2.906583,-2.911343 -2.034603,-0.582267 -2.979242,0.363914 -2.615909,0.727842 c -1.49228,1.694554 -3.020103,3.407763 -4.432528,5.167632 l -1.67129,4.07587 0.799307,0.8734 -1.453279,2.110728 1.598615,3.711961 c 1.330216,1.50722 2.668259,3.004267 3.996538,4.512572 l 1.961942,-1.674019 0.799305,1.018971 2.107271,-1.382889 0.726649,0.80062 2.107266,0 1.235297,1.382887 -0.726656,2.474635 1.453291,1.674026 -0.07263,2.911336 1.089968,2.110725 -0.799311,1.81959 c -0.07793,1.305021 -0.145355,2.552288 -0.145355,3.857519 0.641118,1.768278 1.283884,3.532206 1.88927,5.313197 l 0.435987,2.838552 0,1.455671 1.16263,0 1.67129,-1.091749 2.034604,0 3.051901,-3.420829 -0.363329,-1.164539 2.034617,-1.819588 -1.525964,-1.674009 1.816614,-1.455673 1.743951,-1.091752 0.799303,-0.87341 -0.50865,-1.965149 0,-4.949279 1.380625,-3.056911 1.743943,-1.892363 1.889278,-4.658142 0,-1.237323 c -0.940168,0.118608 -1.84132,0.225584 -2.761247,0.291132 l 1.889274,-1.892361 2.615919,-1.746809 1.380625,-1.601242 0,-1.746799 c -0.313132,-0.591522 -0.629352,-1.228098 -0.944638,-1.819603 l -1.235296,1.455668 -0.944631,-1.091753 -1.380626,-1.091747 0,-2.256292 1.59862,1.819583 1.816608,-0.218349 c 0.819533,0.745205 1.606461,1.40783 2.325254,2.256295 L 88.5,42.073407 c -0.123391,-1.85455 -1.662993,-9.202004 -4.918142,-14.304694 -3.117428,-6.111044 -9.288944,-11.3299 -9.39402,-11.316355 l -0.435998,0.800616 -1.598617,1.746809 -2.034597,-2.110727 2.034597,0 0.944632,-1.018953 -3.778549,-0.727837 z m -43.671307,0.946181 -0.726645,1.892372 c 0,0 -1.839721,-0.06104 -2.166169,0.0197 C 16.437313,21.191915 7.9400284,30.441018 7.05,45.716271 c 0.077485,0.36359 1.1585377,2.17856 1.1585377,2.17856 l 3.1972343,1.892383 3.197234,0.873392 1.38062,1.674028 2.107266,1.601234 1.235296,-0.218353 0.871984,0.436704 0,0.291123 -1.162638,3.275267 -0.944642,1.382882 0.290661,0.655055 -0.726643,2.620206 2.688578,4.949272 2.761248,2.401858 1.235293,1.746808 -0.145356,3.639168 0.871977,2.037942 -0.871977,3.930312 c 0,0 -0.116377,-0.03231 0,0.36392 0.117395,0.396428 4.857379,3.063229 5.159169,2.838556 0.300755,-0.228867 0.58131,-0.436705 0.58131,-0.436705 l -0.29065,-0.873398 1.235293,-1.164535 0.43598,-1.237318 1.961947,-0.655063 1.525946,-3.784736 -0.435977,-1.018975 1.017298,-1.601227 2.32526,-0.509486 1.162626,-2.765773 -0.290649,-3.420824 1.81661,-2.547418 0.290649,-2.620215 C 38.197023,60.412892 35.75162,59.140828 33.277732,57.866183 l -1.235297,-2.401849 -2.252592,-0.509491 -1.235293,-3.275264 -2.979241,0.36392 -2.61593,-1.892365 -2.761231,2.401858 0,0.363918 c -0.827046,-0.239116 -1.806813,-0.274305 -2.543234,-0.727838 l -0.581319,-1.746807 0,-1.892377 -1.88927,0.218358 c 0.152037,-1.205404 0.355549,-2.433992 0.508644,-3.639178 l -1.089963,0 -1.089967,1.382884 -1.017301,0.509491 -1.52595,-0.873407 -0.145333,-1.892365 0.290657,-2.037948 2.252598,-1.746806 1.816609,0 0.363323,-1.018957 2.252601,0.509478 1.671273,2.110717 0.290656,-3.493597 2.906585,-2.401865 1.017299,-2.547418 2.17993,-0.873403 1.162639,-1.746811 2.761242,-0.509474 1.380624,-2.037943 -4.141866,0 2.615914,-1.237315 1.816607,0 2.325271,-0.800617 0.435982,2.256288 1.017297,-1.601243 -1.162635,-0.80062 0.290661,-0.946185 -0.944637,-0.873396 -1.017305,-0.291134 0.29066,-1.091757 -0.799308,-1.528449 -1.81661,0.727839 0.290665,-1.382888 -2.107279,-1.237326 -1.671279,2.911341 0.145359,1.018972 -1.671275,0.727833 -1.017305,2.256284 -0.50866,-2.110715 -2.833904,-1.164538 -0.508645,-1.601234 3.851209,-2.183503 1.671276,-1.601246 0.145353,-1.892365 -0.944633,-0.509488 -1.235297,-0.145568 -2.5e-5,-3e-6 z m 31.173038,3.493614 0,1.164525 0.653977,0.727846 0,1.746802 -0.363326,2.329077 1.889285,-0.363922 1.380609,-1.382891 -1.235293,-1.164535 c -0.400589,-1.0685 -0.806568,-2.032059 -1.307953,-3.056902 z m -1.598619,2.329067 -1.162629,0.363921 0.290652,2.110722 1.525958,-0.800626 z m 21.290663,19.142069 1.743948,2.037927 2.107278,4.512579 1.307942,1.455663 -0.653964,1.528464 1.16263,1.382885 c -0.533542,0.03536 -1.050227,0.07279 -1.598622,0.07279 C 77.624131,49.21888 76.83571,47.104295 76.07709,44.910725 l -1.307952,-1.455681 -0.72665,-2.620205 0.508642,-0.509478 0,-8e-6 z" />
    <path
       style="opacity:0.4;fill:none;stroke:url(#linearGradient2405);stroke-width:1.0000006;stroke-miterlimit:4;stroke-opacity:1;stroke-dasharray:none"
       id="path8655"
       d="m 88.499996,47.998565 c 0,22.368256 -18.133801,40.501437 -40.499489,40.501437 -22.367731,0 -40.5005071,-18.133389 -40.5005071,-40.501437 0,-22.367216 18.1327761,-40.4985642 40.5005071,-40.4985642 22.365688,0 40.499489,18.1313482 40.499489,40.4985642 l 0,0 z" />
  </g>
  <g
     transform="matrix(1.9796392,-0.02720161,0.0271263,1.9851318,-1.4476247,1.8530344)"
     id="g2414">
    <path
       d="m 30.5,20.93716 17,16.500001 -7.75,0.25 c 0,0 3.25,6.75 3.25,6.75 1,3 -3.5,4.125 -4.25,1.875 0,0 -3,-6.75 -3,-6.75 l -5.5,5.875 0.25,-24.500001 z"
       id="path3970"
       style="fill:url(#radialGradient2418);fill-opacity:1;fill-rule:evenodd;stroke:#666666;stroke-width:0.50439107;stroke-linecap:butt;stroke-linejoin:round;stroke-miterlimit:4;stroke-opacity:1;stroke-dasharray:none;stroke-dashoffset:0;marker:none;visibility:visible;display:inline;overflow:visible" />
    <path
       d="m 30.980213,22.11946 15.278929,14.835992 -7.347653,0.270987 3.609321,7.404139 c 0.810018,2.160659 -2.494657,3.133175 -3.219907,1.651001 l -3.41799,-7.600042 -5.087265,5.369782 z"
       id="path4853"
       style="opacity:0.4;fill:none;stroke:#ffffff;stroke-width:0.50439107;stroke-linecap:butt;stroke-linejoin:miter;stroke-miterlimit:4;stroke-opacity:1;stroke-dasharray:none;stroke-dashoffset:0;marker:none;visibility:visible;display:inline;overflow:visible" />
  </g>
</svg>
