<?xml version="1.0" encoding="UTF-8" standalone="no"?>
<svg
   width="96"
   height="96"
   id="svg1307"
   version="1.1"
   sodipodi:docname="xfce4-notes-plugin.svg"
   inkscape:version="1.1.2 (0a00cf5339, 2022-02-04)"
   xmlns:inkscape="http://www.inkscape.org/namespaces/inkscape"
   xmlns:sodipodi="http://sodipodi.sourceforge.net/DTD/sodipodi-0.dtd"
   xmlns:xlink="http://www.w3.org/1999/xlink"
   xmlns="http://www.w3.org/2000/svg"
   xmlns:svg="http://www.w3.org/2000/svg"
   xmlns:rdf="http://www.w3.org/1999/02/22-rdf-syntax-ns#"
   xmlns:cc="http://creativecommons.org/ns#"
   xmlns:dc="http://purl.org/dc/elements/1.1/">
  <sodipodi:namedview
     id="namedview143"
     pagecolor="#ffffff"
     bordercolor="#666666"
     borderopacity="1.0"
     inkscape:pageshadow="2"
     inkscape:pageopacity="0.0"
     inkscape:pagecheckerboard="0"
     showgrid="false"
     inkscape:zoom="7.1041667"
     inkscape:cx="48.211143"
     inkscape:cy="48.070381"
     inkscape:window-width="1317"
     inkscape:window-height="890"
     inkscape:window-x="248"
     inkscape:window-y="107"
     inkscape:window-maximized="0"
     inkscape:current-layer="layer1" />
  <defs
     id="defs1309">
    <linearGradient
       id="linearGradient2832">
      <stop
         style="stop-color:black;stop-opacity:1;"
         offset="0"
         id="stop2834" />
      <stop
         style="stop-color:black;stop-opacity:0;"
         offset="1"
         id="stop2836" />
    </linearGradient>
    <linearGradient
       id="linearGradient2822">
      <stop
         style="stop-color:black;stop-opacity:0;"
         offset="0"
         id="stop2824" />
      <stop
         id="stop2830"
         offset="0.5"
         style="stop-color:black;stop-opacity:1;" />
      <stop
         style="stop-color:black;stop-opacity:0;"
         offset="1"
         id="stop2826" />
    </linearGradient>
    <linearGradient
       id="linearGradient2934">
      <stop
         style="stop-color:#fce94f;stop-opacity:1;"
         offset="0"
         id="stop2936" />
      <stop
         style="stop-color:#edd400;stop-opacity:1"
         offset="1"
         id="stop2938" />
    </linearGradient>
    <linearGradient
       id="linearGradient2910">
      <stop
         style="stop-color:#fce94f;stop-opacity:1"
         offset="0"
         id="stop2912" />
      <stop
         style="stop-color:#fce94f;stop-opacity:1"
         offset="1"
         id="stop2914" />
    </linearGradient>
    <linearGradient
       id="linearGradient2898">
      <stop
         style="stop-color:white;stop-opacity:1;"
         offset="0"
         id="stop2900" />
      <stop
         style="stop-color:white;stop-opacity:0;"
         offset="1"
         id="stop2902" />
    </linearGradient>
    <linearGradient
       id="linearGradient2837">
      <stop
         style="stop-color:white;stop-opacity:1;"
         offset="0"
         id="stop2839" />
      <stop
         style="stop-color:white;stop-opacity:0;"
         offset="1"
         id="stop2841" />
    </linearGradient>
    <linearGradient
       id="linearGradient2825">
      <stop
         style="stop-color:white;stop-opacity:1;"
         offset="0"
         id="stop2827" />
      <stop
         style="stop-color:white;stop-opacity:0;"
         offset="1"
         id="stop2829" />
    </linearGradient>
    <linearGradient
       id="linearGradient2807">
      <stop
         id="stop2809"
         offset="0"
         style="stop-color:#ad5f00;stop-opacity:0.50196081" />
      <stop
         id="stop2811"
         offset="1"
         style="stop-color:#ad5f00;stop-opacity:0.30000001" />
    </linearGradient>
    <linearGradient
       id="linearGradient2214">
      <stop
         id="stop2216"
         offset="0"
         style="stop-color:#edd400;stop-opacity:1" />
      <stop
         id="stop2218"
         offset="1"
         style="stop-color:#c4a000;stop-opacity:1" />
    </linearGradient>
    <linearGradient
       id="linearGradient2281">
      <stop
         style="stop-color:#000000;stop-opacity:1"
         offset="0"
         id="stop2283" />
      <stop
         style="stop-color:#000000;stop-opacity:0;"
         offset="1"
         id="stop2285" />
    </linearGradient>
    <linearGradient
       id="linearGradient2207">
      <stop
         style="stop-color:#fef8c1;stop-opacity:1"
         offset="0"
         id="stop2209" />
      <stop
         style="stop-color:#edd400;stop-opacity:1"
         offset="1"
         id="stop2211" />
    </linearGradient>
    <linearGradient
       xlink:href="#linearGradient2207"
       id="linearGradient2213"
       x1="21"
       y1="23.833796"
       x2="23.139471"
       y2="29.708212"
       gradientUnits="userSpaceOnUse"
       gradientTransform="matrix(2.2571219,0,0,1.8154301,-4.6342913,-53.491328)" />
    <linearGradient
       xlink:href="#linearGradient2281"
       id="linearGradient2287"
       x1="6.3131518"
       y1="27.126162"
       x2="6.8376656"
       y2="31"
       gradientUnits="userSpaceOnUse"
       gradientTransform="matrix(2.1553859,0,0,1.5104414,-3.3051186,-39.222054)" />
    <linearGradient
       xlink:href="#linearGradient2214"
       id="linearGradient2295"
       x1="28.870058"
       y1="22.477673"
       x2="29.495005"
       y2="25.004829"
       gradientUnits="userSpaceOnUse"
       gradientTransform="matrix(2.2571219,0,0,1.8154301,-4.6342913,-48.044974)" />
    <linearGradient
       xlink:href="#linearGradient2807"
       id="linearGradient2226"
       x1="27.534513"
       y1="36.90781"
       x2="27.534513"
       y2="28.79846"
       gradientUnits="userSpaceOnUse"
       gradientTransform="matrix(2.2051282,0,0,2.208333,-4.4230772,-50.312495)" />
    <linearGradient
       xlink:href="#linearGradient2825"
       id="linearGradient2831"
       x1="39.875"
       y1="19.0625"
       x2="40.167702"
       y2="21.125"
       gradientUnits="userSpaceOnUse" />
    <linearGradient
       xlink:href="#linearGradient2898"
       id="linearGradient2904"
       x1="16.357021"
       y1="23.864025"
       x2="16.632799"
       y2="45.10363"
       gradientUnits="userSpaceOnUse"
       gradientTransform="matrix(2.2702703,0,0,2.3181816,-5.986487,-53.113628)" />
    <linearGradient
       xlink:href="#linearGradient2910"
       id="linearGradient2916"
       x1="33.1875"
       y1="25.5"
       x2="33.25"
       y2="30.0625"
       gradientUnits="userSpaceOnUse"
       gradientTransform="matrix(2.2051282,0,0,2.208333,-4.4230772,-50.312495)" />
    <linearGradient
       xlink:href="#linearGradient2934"
       id="linearGradient2940"
       x1="24"
       y1="35.625"
       x2="24"
       y2="30.762564"
       gradientUnits="userSpaceOnUse"
       gradientTransform="matrix(2.1842117,0,0,2.0000006,-3.9210556,-43.000004)" />
    <linearGradient
       xlink:href="#linearGradient2822"
       id="linearGradient2828"
       x1="20"
       y1="39.5"
       x2="20"
       y2="33.982628"
       gradientUnits="userSpaceOnUse" />
    <radialGradient
       xlink:href="#linearGradient2832"
       id="radialGradient2838"
       cx="40"
       cy="36.75"
       fx="40"
       fy="36.75"
       r="3"
       gradientTransform="matrix(2,0,0,0.916667,-40,3.0625)"
       gradientUnits="userSpaceOnUse" />
    <radialGradient
       xlink:href="#linearGradient2832"
       id="radialGradient2850"
       gradientUnits="userSpaceOnUse"
       gradientTransform="matrix(-2,0,0,-0.916667,88,70.4375)"
       cx="40"
       cy="36.75"
       fx="40"
       fy="36.75"
       r="3" />
    <linearGradient
       xlink:href="#linearGradient2837"
       id="linearGradient4120"
       gradientUnits="userSpaceOnUse"
       x1="-6.3561172"
       y1="-7.5830092"
       x2="6.6739359"
       y2="27.933392"
       gradientTransform="matrix(2.3734527,0,0,1.5104414,-8.140187,-39.498796)" />
    <linearGradient
       id="linearGradient954">
      <stop
         id="stop938"
         style="stop-color:#ad5f00;stop-opacity:1"
         offset="0" />
      <stop
         id="stop940"
         style="stop-color:#ffe16b;stop-opacity:1"
         offset="0.13482948" />
      <stop
         id="stop942"
         style="stop-color:#f9c440;stop-opacity:1"
         offset="0.20224422" />
      <stop
         id="stop944"
         style="stop-color:#fff394;stop-opacity:1"
         offset="0.26965895" />
      <stop
         id="stop946"
         style="stop-color:#f9c440;stop-opacity:1"
         offset="0.44650277" />
      <stop
         id="stop948"
         style="stop-color:#f9c440;stop-opacity:1"
         offset="0.57114136" />
      <stop
         id="stop950"
         style="stop-color:#ffe16b;stop-opacity:1"
         offset="0.72038066" />
      <stop
         id="stop952"
         style="stop-color:#ad5f00;stop-opacity:1"
         offset="1" />
    </linearGradient>
    <linearGradient
       id="linearGradient3240-279-1">
      <stop
         offset="0"
         style="stop-color:#555761;stop-opacity:1"
         id="stop2559-2" />
      <stop
         offset="0.5"
         style="stop-color:#abacae;stop-opacity:1"
         id="stop2561-7" />
      <stop
         offset="1"
         style="stop-color:#555761;stop-opacity:1"
         id="stop2563-0" />
    </linearGradient>
    <linearGradient
       id="linearGradient3223-789-9">
      <stop
         offset="0"
         style="stop-color:#abacae;stop-opacity:1"
         id="stop2567-3" />
      <stop
         offset="0.5"
         style="stop-color:#fafafa;stop-opacity:1"
         id="stop2569-6" />
      <stop
         offset="1"
         style="stop-color:#abacae;stop-opacity:1"
         id="stop2571-0" />
    </linearGradient>
    <linearGradient
       id="linearGradient3290-678-8">
      <stop
         offset="0"
         style="stop-color:#fff394;stop-opacity:1"
         id="stop2607-9" />
      <stop
         offset="1"
         style="stop-color:#fafafa;stop-opacity:1"
         id="stop2609-7" />
    </linearGradient>
    <linearGradient
       id="linearGradient3191-577-3">
      <stop
         offset="0"
         style="stop-color:#d48e15;stop-opacity:1"
         id="stop2613-6" />
      <stop
         offset="1"
         style="stop-color:#ad5f00;stop-opacity:1"
         id="stop2615-1" />
    </linearGradient>
    <linearGradient
       spreadMethod="pad"
       gradientTransform="matrix(1.3219292,-1.3264484,1.4788812,1.469351,1.7379338,-19.972192)"
       gradientUnits="userSpaceOnUse"
       xlink:href="#linearGradient954"
       id="linearGradient3432-6"
       y2="31.210939"
       x2="23.575972"
       y1="25.356892"
       x1="23.575972" />
    <linearGradient
       gradientTransform="matrix(1.2845599,-1.2889515,1.7307611,1.7196078,-3.1063922,-26.75953)"
       gradientUnits="userSpaceOnUse"
       xlink:href="#linearGradient3240-279-1"
       id="linearGradient3427-7"
       y2="30.000141"
       x2="30.037716"
       y1="24.989594"
       x1="30.037716" />
    <linearGradient
       gradientTransform="matrix(1.2845599,-1.2889515,1.7307611,1.7196078,-3.4742722,-26.390391)"
       gradientUnits="userSpaceOnUse"
       xlink:href="#linearGradient3223-789-9"
       id="linearGradient3424-5"
       y2="30.000141"
       x2="30.037716"
       y1="24.989594"
       x1="30.037716" />
    <linearGradient
       gradientTransform="matrix(1.2845599,-1.2889515,1.7307611,1.7196078,-1.8280112,-28.042282)"
       gradientUnits="userSpaceOnUse"
       xlink:href="#linearGradient3240-279-1"
       id="linearGradient3421-4"
       y2="30.000141"
       x2="30.037716"
       y1="24.989594"
       x1="30.037716" />
    <linearGradient
       gradientTransform="matrix(1.2845599,-1.2889515,1.7307611,1.7196078,-2.1958942,-27.673145)"
       gradientUnits="userSpaceOnUse"
       xlink:href="#linearGradient3223-789-9"
       id="linearGradient3418-3"
       y2="30.000141"
       x2="30.037716"
       y1="24.989594"
       x1="30.037716" />
    <linearGradient
       gradientTransform="matrix(1.2845599,-1.2889515,1.7307611,1.7196078,-0.5434522,-29.331234)"
       gradientUnits="userSpaceOnUse"
       xlink:href="#linearGradient3240-279-1"
       id="linearGradient3415-0"
       y2="30.000141"
       x2="30.037716"
       y1="24.989594"
       x1="30.037716" />
    <linearGradient
       gradientTransform="matrix(1.2845599,-1.2889515,1.7307611,1.7196078,-0.9113322,-28.962093)"
       gradientUnits="userSpaceOnUse"
       xlink:href="#linearGradient3223-789-9"
       id="linearGradient3412-7"
       y2="30.000141"
       x2="30.037716"
       y1="24.989594"
       x1="30.037716" />
    <linearGradient
       gradientTransform="matrix(1.2845599,-1.2889515,1.7307613,1.719608,-3.5942882,-26.269971)"
       gradientUnits="userSpaceOnUse"
       xlink:href="#linearGradient3290-678-8"
       id="linearGradient3407-8"
       y2="26.02973"
       x2="9"
       y1="29.056757"
       x1="9" />
    <linearGradient
       gradientTransform="matrix(1.1282316,0.04862437,0.04863633,1.1251768,43.132202,-33.560757)"
       gradientUnits="userSpaceOnUse"
       xlink:href="#linearGradient3191-577-3"
       id="linearGradient3409-8"
       y2="41.391716"
       x2="9.5220556"
       y1="37.371799"
       x1="5.5178981" />
    <linearGradient
       inkscape:collect="always"
       xlink:href="#linearGradient954"
       id="linearGradient1287"
       gradientUnits="userSpaceOnUse"
       gradientTransform="matrix(1.3219292,-1.3264484,1.4788812,1.469351,1.7379338,-19.972192)"
       x1="23.575972"
       y1="25.356892"
       x2="23.575972"
       y2="31.210939"
       spreadMethod="pad" />
  </defs>
  <metadata
     id="metadata1312">
    <rdf:RDF>
      <cc:Work
         rdf:about="">
        <dc:format>image/svg+xml</dc:format>
        <dc:type
           rdf:resource="http://purl.org/dc/dcmitype/StillImage" />
        <dc:creator>
          <cc:Agent>
            <dc:title>Ulisse Perusin</dc:title>
          </cc:Agent>
        </dc:creator>
        <dc:contributor>
          <cc:Agent>
            <dc:title>Lapo Calamandrei</dc:title>
          </cc:Agent>
        </dc:contributor>
        <cc:license
           rdf:resource="http://creativecommons.org/licenses/GPL/2.0/" />
      </cc:Work>
      <cc:License
         rdf:about="http://creativecommons.org/licenses/GPL/2.0/">
        <cc:permits
           rdf:resource="http://web.resource.org/cc/Reproduction" />
        <cc:permits
           rdf:resource="http://web.resource.org/cc/Distribution" />
        <cc:requires
           rdf:resource="http://web.resource.org/cc/Notice" />
        <cc:permits
           rdf:resource="http://web.resource.org/cc/DerivativeWorks" />
        <cc:requires
           rdf:resource="http://web.resource.org/cc/ShareAlike" />
        <cc:requires
           rdf:resource="http://web.resource.org/cc/SourceCode" />
      </cc:License>
    </rdf:RDF>
  </metadata>
  <g
     id="layer1"
     transform="translate(0,48)">
    <g
       id="g2852"
       style="opacity:0.2745098"
       transform="matrix(2.1251888,0,0,2.0596916,-2.4877654,-45.057818)">
      <rect
         y="34"
         x="8"
         height="5.5"
         width="32"
         id="rect2815"
         style="color:#000000;fill:url(#linearGradient2828);fill-opacity:1;fill-rule:nonzero;stroke:none;stroke-width:1;marker:none;visibility:visible;display:inline;overflow:visible" />
      <path
         id="path2820"
         d="m 40,39.5 c 3.312,0 6,-1.232 6,-2.75 C 46,35.232 43.312,34 40,34 l 0,5.5 z"
         style="color:#000000;fill:url(#radialGradient2838);fill-opacity:1;fill-rule:nonzero;stroke:none;stroke-width:1;marker:none;visibility:visible;display:inline;overflow:visible" />
      <path
         id="path2848"
         d="m 8,34 c -3.312,0 -6,1.232 -6,2.75 0,1.518 2.688,2.75 6,2.75 L 8,34 Z"
         style="color:#000000;fill:url(#radialGradient2850);fill-opacity:1;fill-rule:nonzero;stroke:none;stroke-width:1;marker:none;visibility:visible;display:inline;overflow:visible" />
    </g>
    <path
       style="color:#000000;fill:url(#linearGradient2916);fill-opacity:1;fill-rule:evenodd;stroke:url(#linearGradient2226);stroke-width:1.00000012;stroke-linecap:round;stroke-linejoin:miter;stroke-miterlimit:4;stroke-opacity:1;stroke-dasharray:none;stroke-dashoffset:0;marker:none;visibility:visible;display:inline;overflow:visible"
       d="m 13.217951,-20.499999 -7.7179511,40.85416 0,12.145838 85.9999961,0 0,-12.145838 -6.615376,-40.85416 -71.666669,0 z"
       id="path2191" />
    <g
       transform="matrix(-1.3818504,0,0,1.3753889,63.886878,-28.949526)"
       style="fill:#424242;fill-opacity:1"
       id="g3680">
      <path
         style="fill:#424242;fill-opacity:1;fill-rule:nonzero;stroke:none"
         id="path3674"
         d="m 14.628268,29.924566 c 0.113601,0.965157 -0.746583,1.292888 -0.596518,2.253099 l -1.927453,1.478078 c -0.132972,-0.943369 1.197608,-4.069827 0.991079,-5.00031 z" />
      <path
         style="fill:#424242;fill-opacity:1;fill-rule:nonzero;stroke:none"
         id="path3676"
         d="m 17.665061,28.673198 c -0.02417,2.079247 0.678,1.192783 -1.910963,2.589105 0.815412,-1.303562 2.191632,-2.618366 3.548625,-1.445006 2.591189,0.421672 -1.433848,2.481989 0.355171,0.314327 2.600013,-2.269865 2.222306,-0.997521 4.404319,-0.868565 1.780222,0.430207 1.796194,0.05633 -0.570253,1.416663 0.03203,-0.02793 0.06406,-0.05585 0.09609,-0.08377 l 2.238621,-0.946961 c -0.02529,0.03869 -0.05058,0.07738 -0.07587,0.116068 -2.811349,1.677475 -1.668398,1.183753 -3.647289,0.92631 -1.86635,-0.327685 -2.87539,-0.553295 -0.220839,-1.484714 -1.139443,1.293919 -2.981215,3.299891 -4.618598,1.882935 -1.588509,-1.170545 2.132535,-2.413333 0.764613,-0.73098 -2.682553,1.478611 -2.400461,1.55186 -2.560742,-0.565921 l 2.197119,-1.119488 z" />
      <path
         style="fill:#424242;fill-opacity:1;fill-rule:nonzero;stroke:none"
         id="path3678"
         d="m 29.174994,26.230789 c 0.14593,1.507956 0.225786,3.019542 0.405142,4.524683 1.423472,1.850746 -1.826977,4.633968 -1.347225,1.808834 0.342081,-3.243811 0.650319,-3.84417 3.528747,-4.879984 0.547689,0.983343 0.847731,2.137946 1.704024,2.727959 -4.840075,2.551671 1.693745,-1.481215 2.420946,-1.867341 0.464921,-0.109143 0.939853,-0.165325 1.412287,-0.230751 l -1.920756,1.437314 c -0.464844,0.06807 -0.935057,0.1189 -1.384984,0.261165 2.998581,-1.911568 -0.568404,0.841891 -2.506019,1.817551 -0.923746,-0.724224 -1.143464,-1.894425 -1.783232,-2.880314 3.14599,-2.218804 0.63263,-0.141231 0.637903,2.577332 -0.28354,2.350093 -3.320174,3.549885 -2.814981,0.306459 -0.172764,-1.481806 -0.250004,-2.982368 -0.530099,-4.447333 l 2.178247,-1.155574 z" />
    </g>
    <path
       style="opacity:0.18431373;fill:url(#linearGradient2287);fill-opacity:1;fill-rule:evenodd;stroke:none"
       d="m 8.5495039,7.6016196 79.9345081,0 L 85.82973,-5.9980743 8.5495039,4.5807371 l 0,3.0208825 z"
       id="path2271" />
    <rect
       style="color:#000000;fill:url(#linearGradient2940);fill-opacity:1;fill-rule:nonzero;stroke:none;stroke-width:1;marker:none;visibility:visible;display:inline;overflow:visible"
       id="rect2845"
       width="83"
       height="10"
       x="7"
       y="21" />
    <path
       style="opacity:0.53333285;color:#000000;fill:none;stroke:url(#linearGradient2904);stroke-width:1.00000048;stroke-linecap:round;stroke-linejoin:miter;stroke-miterlimit:4;stroke-opacity:1;stroke-dashoffset:0;marker:none;visibility:visible;display:inline;overflow:visible"
       d="m 14.020269,-19.5 -7.5202687,40.568176 0,10.431822 84.0000027,0 0,-10.431822 L 83.972979,-19.5 l -69.95271,0 z"
       id="path2799" />
    <path
       style="opacity:0.67058824;color:#000000;fill:none;stroke:url(#linearGradient2831);stroke-width:0.64872718;stroke-linecap:round;stroke-linejoin:miter;stroke-miterlimit:4;stroke-opacity:1;stroke-dashoffset:0;marker:none;visibility:visible;display:inline;overflow:visible"
       id="path2815"
       d="M 8.828125,14.494141 6.5449219,26.810547 38.853516,22.015625 A 0.99446835,0.99446835 0 0 1 39,22.005859 c 0.461157,0 0.707442,-0.05645 0.759766,-0.08594 0.05232,-0.02949 0.118574,-0.03593 0.220703,-0.498047 0.181626,-0.821826 0.01479,-3.345348 -0.416016,-6.927734 l -30.736328,0 z"
       transform="matrix(1.5481908,0,0,1.5347691,0.48600818,-41.745261)" />
    <path
       style="color:#000000;fill:url(#linearGradient2213);fill-opacity:1;fill-rule:evenodd;stroke:url(#linearGradient2295);stroke-width:0.99999982;stroke-linecap:round;stroke-linejoin:miter;stroke-miterlimit:4;stroke-opacity:1;stroke-dasharray:none;stroke-dashoffset:0;marker:none;visibility:visible;display:inline;overflow:visible"
       d="M 1.0085126,0.0638478 76.110003,-28.894828 c -2.343369,8.608001 4.251802,23.6980038 8.412009,22.6046695 L 6.4462286,5.3359627 c -3.3856832,0 -5.4377161,-2.5489729 -5.4377161,-5.2721149 z"
       id="rect2195" />
    <path
       style="font-style:normal;font-variant:normal;font-weight:normal;font-stretch:normal;text-indent:0;text-align:start;text-decoration:none;line-height:normal;letter-spacing:normal;word-spacing:normal;text-transform:none;direction:ltr;block-progression:tb;writing-mode:lr-tb;text-anchor:start;baseline-shift:baseline;color:#000000;color-interpolation:sRGB;color-interpolation-filters:linearRGB;fill:url(#linearGradient4120);fill-opacity:1;stroke:none;stroke-width:0.79714775;marker:none;visibility:visible;display:inline;overflow:visible;enable-background:accumulate;clip-rule:nonzero;color-rendering:auto;image-rendering:auto;shape-rendering:auto;text-rendering:auto;font-family:sans-serif;-inkscape-font-specification:sans-serif"
       d="M 74.319807,-27.684473 -1.094,0.8110928 -1.019829,1.2359102 c 0.15891667,0.6248644 0.27672685,1.398609 1.03838552,2.0296485 C 0.85060965,3.9549182 2.070405,4.3511849 3.504565,4.3511849 l 0.074162,0 C 7.059831,-37.419602 114.73105,24.994024 81.721435,-6.4224579 c -1.364239,-1.2373695 -2.495771,-2.8084272 -3.583974,-4.8162361 -1.938182,-3.27923 -3.8861,-8.989495 -3.817654,-16.445779 z m -0.994319,1.685784 c -0.115378,3.385056 0.83273,10.751853 4.028267,15.886004 1.136829,1.8265106 1.22206,2.6742821 2.575698,4.0037633 L 3.5045645,3.1239543 c -0.029741,0 -0.045409,2.794e-4 -0.074165,0 C 2.5024816,3.1151314 2.0469574,2.9618694 1.5019649,2.510338 1.3103208,2.3515585 1.1903317,1.8960402 1.0569419,1.4719079 Z"
       id="path2835" />
    <path
       style="opacity:0.1;fill:#000000;fill-opacity:1;stroke:none"
       d="m 6,26 85,0 0,1 -84.9999999,0 z"
       id="path4122" />
    <path
       id="path4124"
       d="m 6,28 85,0 0,1 -84.9999999,0 z"
       style="opacity:0.1;fill:#000000;fill-opacity:1;stroke:none" />
    <path
       style="opacity:0.1;fill:#000000;fill-opacity:1;stroke:none"
       d="m 6,30 85,0 0,1 -84.9999999,0 z"
       id="path4126" />
    <path
       id="path4128"
       d="m 6,24 85,0 0,1 -84.9999999,0 z"
       style="opacity:0.1;fill:#000000;fill-opacity:1;stroke:none" />
    <path
       id="path4128-7"
       d="m 6,22 85,0 0,1 -84.9999999,0 z"
       style="opacity:0.1;fill:#000000;fill-opacity:1;stroke:none" />
    <path
       id="path4128-9"
       d="m 6,20 85,0 0,1 -84.9999999,0 z"
       style="opacity:0.1;fill:#000000;fill-opacity:1;stroke:none" />
    <path
       style="opacity:0.15;fill:#0c0c0c;fill-opacity:1;fill-rule:evenodd;stroke:none;stroke-width:1"
       id="path2422-1"
       d="m 81.230548,-11.767053 c -0.348833,-0.20504 -0.618748,-0.151706 -0.797066,-0.03762 L 56.68334,3.2964146 l -4.371166,2.78715 -0.134575,0.05639 -5.175209,11.6444284 12.825568,0.385737 0.106468,-0.07115 4.399273,-2.772378 23.744225,-15.23132644 c 0.713285,-0.456342 -0.414795,-3.48085396 -2.530537,-6.79645396 -1.586814,-2.486688 -3.270332,-4.4507476 -4.316839,-5.0658646 z" />
    <path
       style="fill:url(#linearGradient1287);fill-opacity:1;stroke:none;stroke-width:0.5;stroke-linecap:butt;stroke-linejoin:round;stroke-miterlimit:4;stroke-dasharray:none;stroke-dashoffset:0;stroke-opacity:1"
       id="rect2383-4"
       d="m 53.979422,2.4746576 c 0.897812,-0.672717 3.416929,0.589187 5.73189,2.88923 2.309425,2.29454 3.526288,4.7498134 2.86783,5.6550754 -0.0024,0.0034 0.05666,0.05034 0.05408,0.05374 L 94.867654,-21.27193 c 0.818406,-0.821205 -0.45318,-3.416312 -2.841634,-5.789371 -2.388445,-2.373059 -4.993763,-3.629879 -5.812176,-2.80867 z" />
    <path
       style="opacity:0.6;fill:#f9c440;fill-opacity:1;stroke:none;stroke-width:1"
       id="path3208-9"
       d="m 53.979422,2.4746536 c 0.897812,-0.672717 3.416931,0.589189 5.731888,2.88923 2.309425,2.29454 3.52629,4.7498134 2.86783,5.6550754 -0.0024,0.0034 0.05666,0.05034 0.0541,0.05374 l 22.198794,-22.274692 0.08029,-0.08056 c 0.0026,-0.0034 -0.0566,-0.0503 -0.05408,-0.05374 0.658447,-0.905268 -0.558419,-3.360539 -2.867841,-5.655079 -2.31496,-2.300041 -4.83408,-3.561947 -5.731892,-2.889228 l -0.08029,0.08056 -22.198789,22.2746936 z" />
    <path
       d="m 53.979422,2.4746576 c 0.897812,-0.672717 3.416929,0.589187 5.73189,2.88923 2.309425,2.29454 3.526288,4.7498134 2.86783,5.6550754 -0.0024,0.0034 0.05666,0.05034 0.05408,0.05374 L 94.867654,-21.27193 c 0.818406,-0.821205 -0.45318,-3.416312 -2.841634,-5.789371 -2.388445,-2.373059 -4.993763,-3.629879 -5.812176,-2.80867 z"
       id="path936"
       style="fill:none;fill-opacity:1;stroke:#ad5f00;stroke-width:0.5;stroke-linecap:butt;stroke-linejoin:round;stroke-miterlimit:4;stroke-dasharray:none;stroke-dashoffset:0;stroke-opacity:1" />
    <path
       id="path929"
       d="m 87.132465,-30.110465 c -0.396658,-0.03943 -0.715578,0.03422 -0.920183,0.239523 l -9.9529,9.989255 c 0.897812,-0.67272 3.414545,0.589932 5.729505,2.889973 2.309422,2.29454 3.529096,4.749027 2.87065,5.654295 -0.0024,0.0034 0.05374,0.05155 0.05112,0.05496 l 9.956834,-9.989255 c 0.818404,-0.821205 -0.454672,-3.41474 -2.843126,-5.787799 -1.791333,-1.779795 -3.701931,-2.932695 -4.891902,-3.050965 z"
       style="fill:url(#linearGradient3432-6);fill-opacity:1;stroke:#555761;stroke-width:0.5;stroke-linecap:butt;stroke-linejoin:round;stroke-miterlimit:4;stroke-dasharray:none;stroke-dashoffset:0;stroke-opacity:1" />
    <path
       style="opacity:0.9;fill:#fe9ab8;fill-opacity:1;stroke:#de3e80;stroke-width:0.5;stroke-linecap:butt;stroke-linejoin:round;stroke-miterlimit:4;stroke-dasharray:none;stroke-dashoffset:0;stroke-opacity:1"
       id="rect3175-2"
       d="m 82.279884,-25.922557 c 0.897812,-0.672718 3.41693,0.589188 5.73189,2.889229 2.309422,2.294538 3.526288,4.749813 2.867827,5.655073 -0.0024,0.0034 0.05666,0.05034 0.05408,0.05374 l 3.933965,-3.947416 0.08029,-0.08056 c 0.0026,-0.0034 -0.0566,-0.0503 -0.05408,-0.05374 0.658451,-0.90526 -0.558417,-3.360533 -2.86784,-5.655071 -2.314957,-2.300041 -4.834074,-3.561949 -5.731888,-2.88923 l -0.08029,0.08056 -3.93396,3.947414 z" />
    <path
       style="fill:url(#linearGradient3427-7);fill-opacity:1;stroke:none;stroke-width:1"
       id="path3233-0"
       d="m 77.870385,-21.497987 c 0.89781,-0.67272 3.416933,0.589188 5.73189,2.889229 2.309422,2.294538 3.52629,4.749811 2.867827,5.655075 -0.0024,0.0034 0.05666,0.05034 0.05408,0.05374 l 0.401425,-0.402803 c 0.0026,-0.0034 -0.0566,-0.0503 -0.05408,-0.05374 0.658462,-0.905262 -0.558405,-3.360537 -2.86783,-5.655071 -2.314957,-2.300043 -4.834078,-3.561949 -5.731888,-2.889231 z" />
    <path
       style="fill:url(#linearGradient3424-5);fill-opacity:1;stroke:none;stroke-width:1"
       id="path3216-6"
       d="m 77.502503,-21.128849 c 0.897814,-0.672719 3.416934,0.589187 5.73189,2.889227 2.309426,2.294541 3.526292,4.749811 2.867829,5.655074 -0.0024,0.0034 0.05664,0.05034 0.05408,0.05374 l 0.401423,-0.402801 c 0.0026,-0.0034 -0.0566,-0.0503 -0.05408,-0.05374 0.658466,-0.90526 -0.558402,-3.360533 -2.867828,-5.655072 -2.314957,-2.30004 -4.834076,-3.561948 -5.731892,-2.889229 l -0.401422,0.402799 z" />
    <path
       style="fill:url(#linearGradient3421-4);fill-opacity:1;stroke:none;stroke-width:1"
       id="path3248-8"
       d="m 79.148765,-22.780739 c 0.897812,-0.67272 3.416931,0.589186 5.73189,2.889229 2.309423,2.294538 3.52629,4.749809 2.86783,5.655073 -0.0024,0.0034 0.05664,0.05034 0.05408,0.05374 l 0.401425,-0.402797 c 0.0026,-0.0034 -0.0566,-0.0503 -0.05408,-0.05374 0.658461,-0.905262 -0.558405,-3.360537 -2.867831,-5.655073 -2.314958,-2.300043 -4.834072,-3.561949 -5.73189,-2.889229 z" />
    <path
       style="fill:url(#linearGradient3418-3);fill-opacity:1;stroke:none;stroke-width:1"
       id="path3250-9"
       d="m 78.780883,-22.411601 c 0.897816,-0.672719 3.416935,0.589187 5.73189,2.889227 2.309427,2.294541 3.526292,4.749811 2.867832,5.655074 -0.0024,0.0034 0.05666,0.05034 0.05408,0.05374 l 0.401423,-0.402801 c 0.0026,-0.0034 -0.0566,-0.0503 -0.05408,-0.05374 0.658463,-0.905262 -0.558403,-3.360537 -2.867827,-5.655072 -2.314956,-2.300042 -4.834077,-3.56195 -5.731893,-2.889229 z" />
    <path
       style="fill:url(#linearGradient3415-0);fill-opacity:1;stroke:none;stroke-width:1"
       id="path3256-2"
       d="m 80.433327,-24.069692 c 0.89781,-0.672717 3.416929,0.589189 5.731888,2.88923 2.309423,2.294538 3.52629,4.749811 2.86783,5.655073 -0.0024,0.0034 0.05664,0.05034 0.05408,0.05374 l 0.401422,-0.402799 c 0.0026,-0.0034 -0.0566,-0.0503 -0.05408,-0.05374 0.658462,-0.90526 -0.558405,-3.360535 -2.86783,-5.655073 -2.314954,-2.300041 -4.834075,-3.561949 -5.731889,-2.889228 z" />
    <path
       style="fill:url(#linearGradient3412-7);fill-opacity:1;stroke:none;stroke-width:1"
       id="path3258-6"
       d="m 80.065447,-23.700553 c 0.897808,-0.672719 3.416931,0.589187 5.731888,2.889231 2.309422,2.294536 3.526292,4.749809 2.867827,5.65507 -0.0024,0.0034 0.05666,0.05034 0.05408,0.05374 l 0.401425,-0.402795 c 0.0026,-0.0034 -0.0566,-0.0503 -0.05408,-0.05374 0.658462,-0.905265 -0.558405,-3.360538 -2.867828,-5.655074 -2.314957,-2.300042 -4.834078,-3.56195 -5.73189,-2.889229 z" />
    <path
       style="fill:url(#linearGradient3407-8);fill-opacity:1;fill-rule:evenodd;stroke:url(#linearGradient3409-8);stroke-width:0.5;stroke-linecap:butt;stroke-linejoin:miter;stroke-miterlimit:4;stroke-dasharray:none;stroke-opacity:1"
       id="path3270-6"
       d="m 47.802144,17.11432 14.664983,-5.972621 0.124951,-0.124746 c 0.65846,-0.905269 -0.574275,-3.3607334 -2.883699,-5.6552774 -2.31496,-2.30004 -4.831101,-3.554972 -5.728913,-2.882253 L 47.802154,17.11432 Z" />
    <path
       style="fill:#333333;fill-opacity:1;fill-rule:evenodd;stroke:#1a1a1a;stroke-width:0.5;stroke-linecap:butt;stroke-linejoin:miter;stroke-miterlimit:4;stroke-dasharray:none;stroke-opacity:1"
       id="path3281-4"
       d="m 49.475409,13.150581 -1.674165,3.948075 3.999875,-1.637351 c -0.320583,-0.383434 -0.616535,-0.77289 -1.001441,-1.155314 -0.443128,-0.440275 -0.878986,-0.797506 -1.324269,-1.15541 z" />
  </g>
</svg>
