<?xml version="1.0" encoding="UTF-8" standalone="no"?>
<svg
   xmlns:dc="http://purl.org/dc/elements/1.1/"
   xmlns:cc="http://creativecommons.org/ns#"
   xmlns:rdf="http://www.w3.org/1999/02/22-rdf-syntax-ns#"
   xmlns:svg="http://www.w3.org/2000/svg"
   xmlns="http://www.w3.org/2000/svg"
   version="1.1"
   width="24"
   height="24"
   id="svg4524">
  <defs
     id="defs4526" />
  <metadata
     id="metadata4529">
    <rdf:RDF>
      <cc:Work
         rdf:about="">
        <dc:format>image/svg+xml</dc:format>
        <dc:type
           rdf:resource="http://purl.org/dc/dcmitype/StillImage" />
        <dc:title />
      </cc:Work>
    </rdf:RDF>
  </metadata>
  <path
     d="m 20.014825,13.141867 c 0.0098,-0.245789 -0.100449,-0.475448 -0.28125,-0.65625 L 12.764826,5.3606163 c -0.146903,-0.146902 -0.316938,-0.238675 -0.5,-0.281248 -0.09402,-0.02187 -0.187362,-0.03729 -0.28125,-0.03125 -0.03029,-0.0017 -0.06324,-0.0012 -0.09375,0 -0.05498,0.0095 -0.103995,0.01176 -0.156252,0.03125 -0.188771,0.04065 -0.38004,0.13004 -0.531253,0.28125 L 4.233574,12.48562 c -0.361604,0.361604 -0.329238,0.952012 0.0625,1.343749 l 1.406251,1.40625 c 0.391737,0.391737 1.013395,0.424102 1.374999,0.0625 l 2.906252,-2.906248 -2e-6,6.562498 c 10e-7,0.554 0.446001,1 1.000001,1 l 1.999998,-1e-6 c 0.554,-10e-7 1,-0.445999 1,-0.999999 l 0,-6.593749 2.9375,2.937498 c 0.361603,0.361603 0.952012,0.329238 1.343749,-0.0625 l 1.437504,-1.406251 c 0.19587,-0.195867 0.302667,-0.441711 0.3125,-0.6875 z"
     id="rect3811-1"
     style="color:#000000;fill:#666666;fill-opacity:1;fill-rule:nonzero;stroke:none;stroke-width:1;marker:none;visibility:visible;display:inline;overflow:visible;enable-background:accumulate" />
</svg>
