<?xml version="1.0" encoding="UTF-8" standalone="no"?>
<svg
   xmlns:dc="http://purl.org/dc/elements/1.1/"
   xmlns:cc="http://creativecommons.org/ns#"
   xmlns:rdf="http://www.w3.org/1999/02/22-rdf-syntax-ns#"
   xmlns:svg="http://www.w3.org/2000/svg"
   xmlns="http://www.w3.org/2000/svg"
   xmlns:xlink="http://www.w3.org/1999/xlink"
   version="1.0"
   width="24"
   height="24"
   id="svg2536">
  <metadata
     id="metadata40454">
    <rdf:RDF>
      <cc:Work
         rdf:about="">
        <dc:format>image/svg+xml</dc:format>
        <dc:type
           rdf:resource="http://purl.org/dc/dcmitype/StillImage" />
      </cc:Work>
    </rdf:RDF>
  </metadata>
  <defs
     id="defs2538">
    <linearGradient
       id="linearGradient5060-6-986-342-61">
      <stop
         id="stop4080"
         style="stop-color:#1e1e1e;stop-opacity:1"
         offset="0" />
      <stop
         id="stop4082"
         style="stop-color:#1e1e1e;stop-opacity:0"
         offset="1" />
    </linearGradient>
    <radialGradient
       cx="605.71429"
       cy="486.64789"
       r="117.14286"
       fx="605.71429"
       fy="486.64789"
       id="radialGradient2724-226-535-494"
       xlink:href="#linearGradient5060-6-986-342-61"
       gradientUnits="userSpaceOnUse"
       gradientTransform="matrix(-0.06553443,0,0,0.02470588,-21.829255,10.577352)" />
    <linearGradient
       id="linearGradient5060-6-252-476-367">
      <stop
         id="stop4074"
         style="stop-color:#1e1e1e;stop-opacity:1"
         offset="0" />
      <stop
         id="stop4076"
         style="stop-color:#1e1e1e;stop-opacity:0"
         offset="1" />
    </linearGradient>
    <radialGradient
       cx="605.71429"
       cy="486.64789"
       r="117.14286"
       fx="605.71429"
       fy="486.64789"
       id="radialGradient2722-303-187-273"
       xlink:href="#linearGradient5060-6-252-476-367"
       gradientUnits="userSpaceOnUse"
       gradientTransform="matrix(0.06553443,0,0,0.02470588,-69.175497,10.577352)" />
    <linearGradient
       id="linearGradient5048-7-668-934-892">
      <stop
         id="stop4066"
         style="stop-color:#1e1e1e;stop-opacity:0"
         offset="0" />
      <stop
         id="stop4068"
         style="stop-color:#1e1e1e;stop-opacity:1"
         offset="0.5" />
      <stop
         id="stop4070"
         style="stop-color:#1e1e1e;stop-opacity:0"
         offset="1" />
    </linearGradient>
    <linearGradient
       x1="302.85715"
       y1="366.64789"
       x2="302.85715"
       y2="609.50507"
       id="linearGradient2720-766-26-906"
       xlink:href="#linearGradient5048-7-668-934-892"
       gradientUnits="userSpaceOnUse"
       gradientTransform="matrix(0.06553443,0,0,0.02470588,-69.188394,10.577352)" />
    <linearGradient
       id="linearGradient2490-495-150-777">
      <stop
         id="stop4108"
         style="stop-color:#787878;stop-opacity:1"
         offset="0" />
      <stop
         id="stop4110"
         style="stop-color:#b4b4b4;stop-opacity:1"
         offset="1" />
    </linearGradient>
    <linearGradient
       x1="28.103424"
       y1="45.000065"
       x2="28.103424"
       y2="14.038458"
       id="linearGradient2451"
       xlink:href="#linearGradient2490-495-150-777"
       gradientUnits="userSpaceOnUse"
       gradientTransform="matrix(0.4666666,0,0,0.5006418,0.7999998,-4.7785529)" />
    <linearGradient
       id="linearGradient3242-967-12-570-862-307">
      <stop
         id="stop4498"
         style="stop-color:#f2f2f2;stop-opacity:1"
         offset="0" />
      <stop
         id="stop4502"
         style="stop-color:#dbdbdb;stop-opacity:1"
         offset="0.87426931" />
      <stop
         id="stop4504"
         style="stop-color:#999999;stop-opacity:1"
         offset="1" />
    </linearGradient>
    <linearGradient
       x1="19.875452"
       y1="10.389797"
       x2="19.875452"
       y2="45.60001"
       id="linearGradient2449"
       xlink:href="#linearGradient3242-967-12-570-862-307"
       gradientUnits="userSpaceOnUse"
       gradientTransform="matrix(0.4666666,0,0,0.4545454,0.7999999,-2.7272752)" />
    <linearGradient
       id="linearGradient3333-314-917-262">
      <stop
         id="stop4102"
         style="stop-color:#ffffff;stop-opacity:1"
         offset="0" />
      <stop
         id="stop4104"
         style="stop-color:#ffffff;stop-opacity:0"
         offset="1" />
    </linearGradient>
    <linearGradient
       x1="25.57654"
       y1="15.000002"
       x2="25.57654"
       y2="44.00053"
       id="linearGradient2446"
       xlink:href="#linearGradient3333-314-917-262"
       gradientUnits="userSpaceOnUse"
       gradientTransform="matrix(0.4418603,0,0,0.4642857,1.3953491,-3.696433)" />
    <linearGradient
       x1="23.928667"
       y1="30.773148"
       x2="23.928667"
       y2="45.530704"
       id="linearGradient2443"
       xlink:href="#linearGradient3495-841-851-719"
       gradientUnits="userSpaceOnUse"
       gradientTransform="matrix(0.4657385,0,0,0.4850945,0.8223378,-4.102232)" />
    <linearGradient
       id="linearGradient3495-841-851-719">
      <stop
         id="stop4120"
         style="stop-color:#1e1e1e;stop-opacity:1"
         offset="0" />
      <stop
         id="stop4122"
         style="stop-color:#1e1e1e;stop-opacity:0"
         offset="1" />
    </linearGradient>
    <linearGradient
       x1="23.903786"
       y1="35.75"
       x2="23.903786"
       y2="16.00676"
       id="linearGradient2440"
       xlink:href="#linearGradient3495-841-851-719"
       gradientUnits="userSpaceOnUse"
       gradientTransform="matrix(0.4657385,0,0,0.4850945,0.8223379,-3.5686279)" />
    <linearGradient
       id="linearGradient3400">
      <stop
         id="stop3402"
         style="stop-color:#ffffff;stop-opacity:1"
         offset="0" />
      <stop
         id="stop3404"
         style="stop-color:#ffffff;stop-opacity:0"
         offset="1" />
    </linearGradient>
    <linearGradient
       x1="20.494444"
       y1="18.736097"
       x2="20.494444"
       y2="39.780327"
       id="linearGradient2431"
       xlink:href="#linearGradient3400"
       gradientUnits="userSpaceOnUse"
       gradientTransform="matrix(0.4138818,0,0,0.416294,6.7777587,5.2224074)" />
    <linearGradient
       id="linearGradient2264">
      <stop
         id="stop3244-gr"
         style="stop-color:#cdf87e;stop-opacity:1"
         offset="0" />
      <stop
         id="stop3246-gr"
         style="stop-color:#a2e34f;stop-opacity:1"
         offset="0.26238" />
      <stop
         id="stop3248-gr"
         style="stop-color:#68b723;stop-opacity:1"
         offset="0.66093999" />
      <stop
         id="stop3250-gr"
         style="stop-color:#1d7e0d;stop-opacity:1"
         offset="1" />
    </linearGradient>
    <linearGradient
       x1="-84.086426"
       y1="-6.4617958"
       x2="-92.26722"
       y2="27.70787"
       id="linearGradient2427"
       xlink:href="#linearGradient2264"
       gradientUnits="userSpaceOnUse"
       gradientTransform="matrix(0.4210425,-0.1013922,0.1008047,0.4234963,52.555331,1.9106431)" />
  </defs>
  <g
     style="stroke-width:1.03041875;stroke-miterlimit:4;stroke-dasharray:none"
     id="g3511"
     transform="matrix(0.5004043,0,0,0.5,34.769587,6.182143)">
    <rect
       style="display:inline;overflow:visible;visibility:visible;opacity:0.40206185;fill:url(#linearGradient2720-766-26-906);fill-opacity:1;fill-rule:nonzero;stroke:none;stroke-width:1.03041875;stroke-miterlimit:4;stroke-dasharray:none;marker:none"
       id="rect2512"
       y="19.635714"
       x="-61.324265"
       height="6.0000005"
       width="31.643764" />
    <path
       style="display:inline;overflow:visible;visibility:visible;opacity:0.40206185;fill:url(#radialGradient2722-303-187-273);fill-opacity:1;fill-rule:nonzero;stroke:none;stroke-width:1.03041875;stroke-miterlimit:4;stroke-dasharray:none;marker:none"
       id="path2514"
       d="m -29.680498,19.635919 c 0,0 0,5.999669 0,5.999669 3.374861,0.01129 8.158771,-1.344221 8.158769,-3.000221 0,-1.655999 -3.76609,-2.999448 -8.158769,-2.999448 z" />
    <path
       style="display:inline;overflow:visible;visibility:visible;opacity:0.40206185;fill:url(#radialGradient2724-226-535-494);fill-opacity:1;fill-rule:nonzero;stroke:none;stroke-width:1.03041875;stroke-miterlimit:4;stroke-dasharray:none;marker:none"
       id="path2516"
       d="m -61.324263,19.635919 c 0,0 0,5.999669 0,5.999669 -3.374861,0.01129 -8.158771,-1.344221 -8.158771,-3.000221 0,-1.655999 3.766091,-2.999448 8.158771,-2.999448 z" />
  </g>
  <rect
     style="display:inline;overflow:visible;visibility:visible;fill:url(#linearGradient2449);fill-opacity:1;fill-rule:evenodd;stroke:url(#linearGradient2451);stroke-width:1;stroke-linecap:square;stroke-linejoin:round;stroke-miterlimit:4;stroke-dasharray:none;stroke-dashoffset:0;stroke-opacity:1;marker:none;marker-start:none;marker-mid:none;marker-end:none;enable-background:accumulate"
     id="rect2396"
     y="2.5"
     x="1.5"
     ry="0.45454553"
     rx="0.46666664"
     height="15"
     width="21" />
  <rect
     style="display:inline;overflow:visible;visibility:visible;opacity:0.4;fill:none;fill-opacity:1;fill-rule:evenodd;stroke:url(#linearGradient2446);stroke-width:0.99999994;stroke-linecap:square;stroke-linejoin:miter;stroke-miterlimit:4;stroke-dasharray:none;stroke-dashoffset:0;stroke-opacity:1;marker:none;marker-start:none;marker-mid:none;marker-end:none;enable-background:accumulate"
     id="rect3331"
     y="3.5"
     x="2.5"
     ry="0.035004593"
     rx="0.036476243"
     height="13"
     width="19" />
  <path
     style="display:inline;overflow:visible;visibility:visible;opacity:0.5;fill:none;fill-opacity:1;fill-rule:evenodd;stroke:url(#linearGradient2443);stroke-width:1;stroke-linecap:butt;stroke-linejoin:miter;stroke-miterlimit:4;stroke-dasharray:none;stroke-dashoffset:0;stroke-opacity:1;marker:none;marker-start:none;marker-mid:none;marker-end:none;enable-background:accumulate"
     id="path3341"
     d="m 9.2139564,11.336975 -7.0917532,6.131654 m 12.5873058,-6.142976 7.101967,6.142976" />
  <path
     style="opacity:0.5;fill:none;fill-rule:evenodd;stroke:url(#linearGradient2440);stroke-width:1.00000012;stroke-linecap:butt;stroke-linejoin:miter;stroke-miterlimit:4;stroke-dasharray:none;stroke-opacity:1"
     id="path3493"
     d="M 1.8491563,4.0457658 12.000062,13.181817 21.937208,4.0457658" />
  <path
     d="m 20.761653,7.5044595 c -0.231665,-0.023648 -0.461984,0.090476 -0.581013,0.3095758 l -5.07143,9.3331417 -3.260601,-2.607696 c -0.29044,-0.159632 -0.65281,-0.05694 -0.811515,0.235195 l -1.4621917,1.888203 c -0.1587018,0.292127 -0.051938,0.656502 0.2385007,0.816131 0,0 5.95345,4.94569 5.960795,4.949348 0.06807,0.03741 0.139256,0.05624 0.211616,0.06544 0.236378,0.03004 0.478281,-0.08166 0.599787,-0.305324 L 23.425097,9.6015694 c 0.158702,-0.2921318 0.05194,-0.6565034 -0.2385,-0.816132 L 20.992045,7.5741459 c -0.07261,-0.039908 -0.153171,-0.061804 -0.230392,-0.069686 z"
     id="path1542"
     style="display:inline;overflow:visible;visibility:visible;fill:url(#linearGradient2427);fill-opacity:1;fill-rule:nonzero;stroke:none;stroke-width:1.00278986;stroke-linecap:round;stroke-linejoin:round;stroke-miterlimit:4;stroke-dasharray:none;stroke-dashoffset:0;stroke-opacity:1;marker:none;marker-start:none;marker-mid:none;marker-end:none" />
  <path
     d="M 20.8125,8.6562496 15.5,18.46875 c 0.0011,0.01039 0.0011,0.02086 0,0.03125 -0.0088,0.0119 -0.01935,0.02243 -0.03125,0.03125 -0.01039,0.0011 -0.02086,0.0011 -0.03125,0 -0.0088,0.0119 -0.01935,0.02243 -0.03125,0.03125 -0.01039,0.0011 -0.02086,0.0011 -0.03125,0 -0.01039,0.0011 -0.02086,0.0011 -0.03125,0 -0.0119,-0.0088 -0.02243,-0.01935 -0.03125,-0.03125 -0.01039,0.0011 -0.02086,0.0011 -0.03125,0 L 11.625,15.625 c -0.323876,0.402465 -0.600919,0.777918 -0.96875,1.25 0.112299,0.09308 1.302978,1.090043 2.625,2.1875 0.691201,0.57379 1.381541,1.156788 1.90625,1.59375 0.262354,0.218481 0.499396,0.399828 0.65625,0.53125 0.05014,0.04201 0.08845,0.06296 0.125,0.09375 0.05256,-0.09355 0.109013,-0.180551 0.25,-0.4375 0.191964,-0.349857 0.439706,-0.836982 0.75,-1.40625 0.620588,-1.138535 1.444478,-2.610323 2.25,-4.09375 0.805522,-1.483428 1.58119,-2.975096 2.1875,-4.09375 0.303155,-0.559327 0.568682,-1.008692 0.75,-1.3437504 0.141975,-0.2623568 0.21072,-0.3644899 0.25,-0.4375 -0.05507,-0.031347 -0.09995,-0.061486 -0.21875,-0.125 -0.171886,-0.091893 -0.378882,-0.1998798 -0.59375,-0.3125 C 21.378882,8.9186294 21.161819,8.8041015 21,8.7187496 c -0.06696,-0.035318 -0.140907,-0.037474 -0.1875,-0.0625 z"
     id="path2429"
     style="display:inline;overflow:visible;visibility:visible;opacity:0.4;fill:none;fill-opacity:1;fill-rule:nonzero;stroke:url(#linearGradient2431);stroke-width:1.00278986;stroke-linecap:round;stroke-linejoin:miter;stroke-miterlimit:4;stroke-dasharray:none;stroke-dashoffset:0;stroke-opacity:1;marker:none;marker-start:none;marker-mid:none;marker-end:none" />
  <path
     style="display:inline;overflow:visible;visibility:visible;fill:none;fill-opacity:1;fill-rule:nonzero;stroke:#0f5a00;stroke-width:1.00278986;stroke-linecap:round;stroke-linejoin:round;stroke-miterlimit:4;stroke-dasharray:none;stroke-dashoffset:0;stroke-opacity:1;marker:none;marker-start:none;marker-mid:none;marker-end:none;opacity:0.5"
     id="path881"
     d="m 20.761653,7.5044595 c -0.231665,-0.023648 -0.461984,0.090476 -0.581013,0.3095758 l -5.07143,9.3331417 -3.260601,-2.607696 c -0.29044,-0.159632 -0.65281,-0.05694 -0.811515,0.235195 l -1.4621917,1.888203 c -0.1587018,0.292127 -0.051938,0.656502 0.2385007,0.816131 0,0 5.95345,4.94569 5.960795,4.949348 0.06807,0.03741 0.139256,0.05624 0.211616,0.06544 0.236378,0.03004 0.478281,-0.08166 0.599787,-0.305324 L 23.425097,9.6015694 c 0.158702,-0.2921318 0.05194,-0.6565034 -0.2385,-0.816132 L 20.992045,7.5741459 c -0.07261,-0.039908 -0.153171,-0.061804 -0.230392,-0.069686 z" />
</svg>
