<?xml version="1.0" encoding="UTF-8" standalone="no"?>
<svg
   version="1.1"
   width="16"
   height="16"
   id="svg8860"
   sodipodi:docname="catfish.svg"
   inkscape:version="1.1.2 (0a00cf5339, 2022-02-04)"
   inkscape:export-xdpi="96"
   inkscape:export-ydpi="96"
   xmlns:inkscape="http://www.inkscape.org/namespaces/inkscape"
   xmlns:sodipodi="http://sodipodi.sourceforge.net/DTD/sodipodi-0.dtd"
   xmlns:xlink="http://www.w3.org/1999/xlink"
   xmlns="http://www.w3.org/2000/svg"
   xmlns:svg="http://www.w3.org/2000/svg"
   xmlns:rdf="http://www.w3.org/1999/02/22-rdf-syntax-ns#"
   xmlns:cc="http://creativecommons.org/ns#"
   xmlns:dc="http://purl.org/dc/elements/1.1/">
  <sodipodi:namedview
     id="namedview35"
     pagecolor="#ffffff"
     bordercolor="#666666"
     borderopacity="1.0"
     inkscape:pageshadow="2"
     inkscape:pageopacity="0.0"
     inkscape:pagecheckerboard="0"
     showgrid="false"
     inkscape:zoom="30.140428"
     inkscape:cx="7.0503312"
     inkscape:cy="8.0788501"
     inkscape:window-width="1664"
     inkscape:window-height="890"
     inkscape:window-x="188"
     inkscape:window-y="950"
     inkscape:window-maximized="0"
     inkscape:current-layer="svg8860"
     inkscape:snap-global="false" />
  <defs
     id="defs8862">
    <linearGradient
       id="linearGradient3454-2-5-0-3-8">
      <stop
         id="stop3456-4-9-38-1-9"
         style="stop-color:#ffffff;stop-opacity:1"
         offset="0" />
      <stop
         id="stop3458-39-80-3-5-6"
         style="stop-color:#ffffff;stop-opacity:0.23529412"
         offset="0.0097359" />
      <stop
         id="stop3460-7-0-2-4-4"
         style="stop-color:#ffffff;stop-opacity:0.15686275"
         offset="0.99001008" />
      <stop
         id="stop3462-0-9-8-7-8"
         style="stop-color:#ffffff;stop-opacity:0.39215687"
         offset="1" />
    </linearGradient>
    <linearGradient
       id="linearGradient6129-963-697-142-998-580-273-44-2-2-2">
      <stop
         id="stop2661-01-6-2-4"
         style="stop-color:#0a0a0a;stop-opacity:0.498"
         offset="0" />
      <stop
         id="stop2663-64-5-5-3"
         style="stop-color:#0a0a0a;stop-opacity:0"
         offset="1" />
    </linearGradient>
    <linearGradient
       id="linearGradient4632-0-6-4-4">
      <stop
         id="stop4634-4-4-7-5"
         style="stop-color:#e9e9e9;stop-opacity:1"
         offset="0" />
      <stop
         id="stop4636-3-1-5-4"
         style="stop-color:#b4b4b4;stop-opacity:1"
         offset="1" />
    </linearGradient>
    <linearGradient
       id="linearGradient3104-8-8-97-4-6-11-5-5-4-4">
      <stop
         id="stop3106-5-4-3-5-0-2-1-0-7-7"
         style="stop-color:#000000;stop-opacity:0.32173914"
         offset="0" />
      <stop
         id="stop3108-4-3-7-8-2-0-7-9-0-6"
         style="stop-color:#000000;stop-opacity:0.27826086"
         offset="1" />
    </linearGradient>
    <linearGradient
       id="linearGradient4346">
      <stop
         id="stop4348"
         style="stop-color:#ffffff;stop-opacity:1"
         offset="0" />
      <stop
         id="stop4350"
         style="stop-color:#d8d8d8;stop-opacity:1"
         offset="1" />
    </linearGradient>
    <linearGradient
       xlink:href="#linearGradient3454-2-5-0-3-8"
       id="linearGradient3013"
       gradientUnits="userSpaceOnUse"
       gradientTransform="matrix(0.89189031,0,0,0.94046961,3.14398,4.346537)"
       x1="11.350123"
       y1="0.66696572"
       x2="11.350123"
       y2="8.1721792" />
    <linearGradient
       xlink:href="#linearGradient6129-963-697-142-998-580-273-44-2-2-2"
       id="linearGradient3016"
       gradientUnits="userSpaceOnUse"
       gradientTransform="matrix(0.38156409,0,0,0.32896952,-18.24159,-0.71783269)"
       x1="76.041"
       y1="49.372032"
       x2="76.041"
       y2="35.430561" />
    <linearGradient
       xlink:href="#linearGradient4632-0-6-4-4"
       id="linearGradient3019"
       gradientUnits="userSpaceOnUse"
       gradientTransform="matrix(0.33333327,0,0,0.34148555,-17.08621,-1.6040727)"
       x1="84.30883"
       y1="16.110577"
       x2="84.30883"
       y2="42.923553" />
    <linearGradient
       xlink:href="#linearGradient4346"
       id="linearGradient3025"
       gradientUnits="userSpaceOnUse"
       gradientTransform="matrix(0.33333327,0,0,0.32971018,-17.44063,-1.6478427)"
       x1="62.988873"
       y1="11.645091"
       x2="62.988873"
       y2="15.385052" />
    <linearGradient
       xlink:href="#linearGradient3104-8-8-97-4-6-11-5-5-4-4"
       id="linearGradient3031"
       gradientUnits="userSpaceOnUse"
       gradientTransform="matrix(0.31070043,0,0,0.27489387,20.17717,-1.1031627)"
       x1="-51.786404"
       y1="53.514328"
       x2="-51.786404"
       y2="2.0612748" />
  </defs>
  <metadata
     id="metadata8865">
    <rdf:RDF>
      <cc:Work
         rdf:about="">
        <dc:format>image/svg+xml</dc:format>
        <dc:type
           rdf:resource="http://purl.org/dc/dcmitype/StillImage" />
      </cc:Work>
    </rdf:RDF>
  </metadata>
  <path
     style="color:#000000;display:inline;overflow:visible;visibility:visible;fill:url(#linearGradient3025);fill-opacity:1;fill-rule:nonzero;stroke:none;stroke-width:0.999922;marker:none;enable-background:accumulate"
     id="rect4170-0"
     d="m 2.02332,0.976667 v 1 h -1 v 4 h 14 v -4 h -7 v -1 z" />
  <path
     style="color:#000000;font-style:normal;font-variant:normal;font-weight:normal;font-stretch:normal;font-size:medium;line-height:normal;font-family:Sans;-inkscape-font-specification:Sans;text-indent:0;text-align:start;text-decoration:none;text-decoration-line:none;letter-spacing:normal;word-spacing:normal;text-transform:none;writing-mode:lr-tb;direction:ltr;baseline-shift:baseline;text-anchor:start;display:inline;overflow:visible;visibility:visible;opacity:0.8;fill:url(#linearGradient3031);fill-opacity:1;stroke:none;stroke-width:1;marker:none;enable-background:accumulate"
     d="m 1.78125,0 c -0.4068514,0 -0.75,0.3431486 -0.75,0.75 v 0.21875 h -0.25 c -0.40685138,0 -0.75,0.3431486 -0.75,0.75 V 3 h 1 V 1.96875 h 0.5 0.5 v -0.5 V 1 h 6 v 0.46875 0.5 h 0.5 6.5 V 3 h 1 V 1.71875 c 0,-0.4068514 -0.343149,-0.75 -0.75,-0.75 h -6.25 V 0.75 C 9.03125,0.3431486 8.6881014,0 8.28125,0 Z"
     id="rect4170" />
  <path
     style="color:#000000;display:inline;overflow:visible;visibility:visible;fill:url(#linearGradient3019);fill-opacity:1;fill-rule:nonzero;stroke:none;stroke-width:1;marker:none;enable-background:accumulate"
     id="rect3086"
     d="m 0.55988,3.453367 c 0.75732,0 14.39951,0.0316 14.98675,0.0316 0,0.6186 -0.0285,10.00962 -0.0624,10.00962 -5.26001,0.0178 -13.45265,-0.014 -14.98423,-0.014 0,-1.16748 0.0599,-7.62459 0.0599,-10.02721 z" />
  <path
     style="color:#000000;display:inline;overflow:visible;visibility:visible;opacity:0.4;fill:url(#linearGradient3016);fill-opacity:1;fill-rule:nonzero;stroke:none;stroke-width:1;marker:none;enable-background:accumulate"
     id="rect3086-1"
     d="m 0.08698,2.976647 c 0.8053,0 15.31189,0.0341 15.93634,0.0341 0,0.67729 -0.0303,10.95971 -0.0663,10.95971 -5.5933,0.02 -14.30504,-0.0148 -15.93366,-0.0148 0,-1.2783 0.0636,-8.34831 0.0636,-10.97898 z" />
  <path
     style="color:#000000;display:inline;overflow:visible;visibility:visible;opacity:0.5;fill:none;stroke:url(#linearGradient3013);stroke-width:1;stroke-linecap:round;stroke-linejoin:miter;stroke-miterlimit:4;stroke-dasharray:none;stroke-dashoffset:0;stroke-opacity:1;marker:none;enable-background:accumulate"
     id="rect3086-9"
     d="m 1.57504,4.476667 c 0.65431,0 12.44092,0.0251 12.94828,0.0251 0,0.49259 -0.0246,7.97055 -0.0539,7.97055 -4.54455,0.0142 -11.62285,-0.0111 -12.9461,-0.0111 0,-0.92965 0.0517,-6.07138 0.0517,-7.98455 z" />
  <path
     style="color:#000000;font-style:normal;font-variant:normal;font-weight:normal;font-stretch:normal;font-size:medium;line-height:normal;font-family:Sans;-inkscape-font-specification:Sans;text-indent:0;text-align:start;text-decoration:none;text-decoration-line:none;letter-spacing:normal;word-spacing:normal;text-transform:none;writing-mode:lr-tb;direction:ltr;baseline-shift:baseline;text-anchor:start;display:inline;overflow:visible;visibility:visible;opacity:0.3;fill:#000000;fill-opacity:1;stroke:none;stroke-width:1;marker:none;enable-background:accumulate"
     d="m 0.40625,2.96875 a 0.50005,0.50005 0 0 0 -0.34375,0.5 0.50005,0.50005 0 0 0 0,0.09375 C 0.06139788,6.0088498 0,12.295273 0,13.46875 a 0.50005,0.50005 0 0 0 0.5,0.5 c 1.5214827,0 9.703777,0.04882 14.96875,0.03125 0.01099,-3.7e-5 0.02028,3.7e-5 0.03125,0 0.0012,-7.95e-4 -0.0019,-0.03002 0,-0.03125 0.06056,-0.03863 0.437378,-0.249737 0.4375,-0.25 1.32e-4,-2.86e-4 0.02699,-0.106637 0.03125,-0.125 0.0085,-0.03673 -0.0014,-0.05081 0,-0.0625 C 15.97145,13.50787 15.99919,13.51368 16,13.5 c 0.0016,-0.02736 -0.0011,-0.05688 0,-0.09375 0.0022,-0.07374 -0.002,-0.182299 0,-0.3125 0.0041,-0.260402 -0.0037,-0.616858 0,-1.0625 0.0074,-0.891284 0.02557,-2.099644 0.03125,-3.3125 0.01137,-2.4257122 0,-4.9017714 0,-5.21875 a 0.50005,0.50005 0 0 0 -0.5,-0.5 C 14.961947,3 1.3337287,2.96875 0.5625,2.96875 a 0.50005,0.50005 0 0 0 -0.15625,0 z m 0.65625,1 C 2.5331431,3.97065 13.680989,3.998096 15.03125,4 c -0.0012,0.6360494 0.01027,2.5265847 0,4.71875 C 15.02557,9.930974 15.007429,11.111137 15,12 c -0.0034,0.406338 0.0036,0.748851 0,1 -5.0789999,0.01381 -12.1556038,-0.02935 -14,-0.03125 0.00512,-1.492643 0.057379,-6.4863005 0.0625,-9 z"
     id="rect3086-0" />
  <path
     style="display:inline;fill:#ffd734;fill-opacity:1;fill-rule:evenodd;stroke:#2f2721;stroke-width:1.99999;stroke-linecap:round;stroke-linejoin:round;stroke-miterlimit:4;stroke-dasharray:none;stroke-opacity:0.499355;paint-order:stroke fill markers"
     id="path3220"
     d="m 11.346879,10.25035 c -0.05248,0.0249 -0.101377,0.05787 -0.14479,0.09764 l -0.534444,0.640943 c -0.132749,0.09603 -0.220818,0.243742 -0.239766,0.402184 -0.01894,0.158441 0.03324,0.310744 0.142069,0.414648 l 2.837458,2.561115 c 0.101339,0.09952 0.243734,0.146881 0.391713,0.13021 0.147981,-0.01668 0.287558,-0.0958 0.383875,-0.217611 l 0.701402,-0.905067 c 0.178967,-0.231112 0.158211,-0.547971 -0.04715,-0.719181 L 11.83286,10.358243 C 11.708025,10.237348 11.524015,10.196479 11.34685,10.25035 Z"
     sodipodi:nodetypes="cccsccccccccc" />
  <path
     style="fill:#ffffff;fill-opacity:0.5;fill-rule:evenodd;stroke:#008dc8;stroke-width:1.5;stroke-linecap:butt;stroke-linejoin:miter;stroke-miterlimit:4;stroke-dasharray:none;stroke-opacity:1"
     id="path2447"
     d="M 11.25,8.5000001 C 11.25,10.294925 9.794926,11.75 8.0000004,11.75 6.2050748,11.75 4.75,10.294925 4.75,8.5000001 4.75,6.7050743 6.2050748,5.25 8.0000004,5.25 9.794926,5.25 11.25,6.7050743 11.25,8.5000001 Z"
     inkscape:export-filename="/home/darin/.local/share/icons/elementary-xfce/apps/16/path2447.png"
     inkscape:export-xdpi="96"
     inkscape:export-ydpi="96" />
</svg>
