<?xml version="1.0" encoding="UTF-8" standalone="no"?>
<!-- Created with Inkscape (http://www.inkscape.org/) -->

<svg
   xmlns:dc="http://purl.org/dc/elements/1.1/"
   xmlns:cc="http://creativecommons.org/ns#"
   xmlns:rdf="http://www.w3.org/1999/02/22-rdf-syntax-ns#"
   xmlns:svg="http://www.w3.org/2000/svg"
   xmlns="http://www.w3.org/2000/svg"
   xmlns:xlink="http://www.w3.org/1999/xlink"
   xmlns:sodipodi="http://sodipodi.sourceforge.net/DTD/sodipodi-0.dtd"
   xmlns:inkscape="http://www.inkscape.org/namespaces/inkscape"
   width="16"
   height="16"
   id="svg4101"
   version="1.1"
   inkscape:version="0.48.4 r9939"
   sodipodi:docname="chromium-browser.svg">
  <defs
     id="defs4103">
    <linearGradient
       inkscape:collect="always"
       xlink:href="#linearGradient4191-4-0-0-4-8"
       id="linearGradient5825-4"
       gradientUnits="userSpaceOnUse"
       gradientTransform="matrix(0.13006279,0,0,0.12553496,145.87589,224.05961)"
       x1="62.392857"
       y1="155.375"
       x2="62.004467"
       y2="68.946434" />
    <linearGradient
       inkscape:collect="always"
       id="linearGradient4191-4-0-0-4-8">
      <stop
         style="stop-color:#000000;stop-opacity:1;"
         offset="0"
         id="stop4193-4-7-7-3-9" />
      <stop
         style="stop-color:#000000;stop-opacity:0;"
         offset="1"
         id="stop4195-7-9-3-1-7" />
    </linearGradient>
    <radialGradient
       inkscape:collect="always"
       xlink:href="#linearGradient4057"
       id="radialGradient6519"
       gradientUnits="userSpaceOnUse"
       gradientTransform="matrix(-0.47176133,-0.07225912,0.06172485,-0.38518423,221.54529,413.63169)"
       cx="211.65784"
       cy="435.55545"
       fx="211.65784"
       fy="435.55545"
       r="37.57291" />
    <linearGradient
       id="linearGradient4057">
      <stop
         id="stop4059"
         offset="0"
         style="stop-color:#93badf;stop-opacity:1" />
      <stop
         id="stop4061"
         offset="1"
         style="stop-color:#4d8bcb;stop-opacity:1" />
    </linearGradient>
    <radialGradient
       inkscape:collect="always"
       xlink:href="#linearGradient4051"
       id="radialGradient6513"
       gradientUnits="userSpaceOnUse"
       gradientTransform="matrix(0.13751789,0.44306231,-0.54409782,0.15189019,372.59964,61.830533)"
       cx="226.45587"
       cy="450.74283"
       fx="226.45587"
       fy="450.74283"
       r="30.253544" />
    <linearGradient
       id="linearGradient4051">
      <stop
         id="stop4053"
         offset="0"
         style="stop-color:#d0e2f1;stop-opacity:1" />
      <stop
         id="stop4055"
         offset="1"
         style="stop-color:#9ac1e2;stop-opacity:1" />
    </linearGradient>
    <radialGradient
       inkscape:collect="always"
       xlink:href="#linearGradient3277"
       id="radialGradient6516"
       gradientUnits="userSpaceOnUse"
       gradientTransform="matrix(-0.06585596,0.08643429,-0.10412495,-0.07873061,157.42902,220.67599)"
       cx="51.798981"
       cy="-0.038070802"
       fx="51.798981"
       fy="-0.038070802"
       r="48.6875" />
    <linearGradient
       id="linearGradient3277">
      <stop
         id="stop3279"
         offset="0"
         style="stop-color:#6d95bf;stop-opacity:1;" />
      <stop
         id="stop3281"
         offset="1"
         style="stop-color:#4674a0;stop-opacity:1;" />
    </linearGradient>
    <radialGradient
       inkscape:collect="always"
       xlink:href="#linearGradient4029-0-2-6-1"
       id="radialGradient4058-9-2-8-0-2"
       cx="47.917099"
       cy="37.30619"
       fx="47.917099"
       fy="37.30619"
       r="53.035713"
       gradientUnits="userSpaceOnUse"
       gradientTransform="matrix(-1.3414675,1.4686295,-1.4846702,-1.3561193,172.34521,-1.1127437)" />
    <linearGradient
       id="linearGradient4029-0-2-6-1">
      <stop
         style="stop-color:#87accd;stop-opacity:1;"
         offset="0"
         id="stop4031-7-8-6-8" />
      <stop
         id="stop4062-3-8-5-3-2"
         offset="0.28728491"
         style="stop-color:#6b96c1;stop-opacity:1;" />
      <stop
         id="stop4060-0-2-4-7-4"
         offset="0.59072286"
         style="stop-color:#477ba9;stop-opacity:1;" />
      <stop
         style="stop-color:#325978;stop-opacity:1;"
         offset="1"
         id="stop4033-0-3-1-0" />
    </linearGradient>
    <linearGradient
       y2="44.340794"
       x2="71.204407"
       y1="6.2375584"
       x1="71.204407"
       gradientTransform="matrix(0.35135136,0,0,0.35135136,214.7996,209.16716)"
       gradientUnits="userSpaceOnUse"
       id="linearGradient3023"
       xlink:href="#linearGradient4011"
       inkscape:collect="always" />
    <linearGradient
       id="linearGradient4011">
      <stop
         id="stop4013"
         style="stop-color:#ffffff;stop-opacity:1;"
         offset="0" />
      <stop
         offset="0.507761"
         style="stop-color:#ffffff;stop-opacity:0.23529412;"
         id="stop4015" />
      <stop
         id="stop4017"
         style="stop-color:#ffffff;stop-opacity:0.15686275;"
         offset="0.83456558" />
      <stop
         id="stop4019"
         style="stop-color:#ffffff;stop-opacity:0.39215687;"
         offset="1" />
    </linearGradient>
    <linearGradient
       y2="44.340794"
       x2="71.204407"
       y1="6.2375584"
       x1="71.204407"
       gradientTransform="matrix(0.35135136,0,0,0.35135136,129.0853,223.45288)"
       gradientUnits="userSpaceOnUse"
       id="linearGradient3051"
       xlink:href="#linearGradient4011"
       inkscape:collect="always" />
  </defs>
  <sodipodi:namedview
     id="base"
     pagecolor="#ffffff"
     bordercolor="#666666"
     borderopacity="1.0"
     inkscape:pageopacity="0.0"
     inkscape:pageshadow="2"
     inkscape:zoom="43.249993"
     inkscape:cx="8.0429849"
     inkscape:cy="7.9537585"
     inkscape:document-units="px"
     inkscape:current-layer="layer1"
     showgrid="false"
     fit-margin-top="0"
     fit-margin-left="0"
     fit-margin-right="0"
     fit-margin-bottom="0"
     inkscape:window-width="1087"
     inkscape:window-height="937"
     inkscape:window-x="487"
     inkscape:window-y="27"
     inkscape:window-maximized="0" />
  <metadata
     id="metadata4106">
    <rdf:RDF>
      <cc:Work
         rdf:about="">
        <dc:format>image/svg+xml</dc:format>
        <dc:type
           rdf:resource="http://purl.org/dc/dcmitype/StillImage" />
        <dc:title />
      </cc:Work>
    </rdf:RDF>
  </metadata>
  <g
     inkscape:label="Capa 1"
     inkscape:groupmode="layer"
     id="layer1"
     transform="translate(-146.28897,-224.36218)">
    <path
       sodipodi:type="arc"
       style="color:#000000;fill:#ffffff;fill-opacity:1;fill-rule:nonzero;stroke:none;stroke-width:2.01817131;marker:none;visibility:visible;display:inline;overflow:visible;enable-background:accumulate"
       id="path3094-9-6-6-7-7-7-5"
       sodipodi:cx="52.67857"
       sodipodi:cy="65.678574"
       sodipodi:rx="53.035713"
       sodipodi:ry="53.035713"
       d="m 105.71428,65.678574 c 0,29.290815 -23.744895,53.035716 -53.03571,53.035716 -29.290816,0 -53.0357134,-23.744901 -53.0357134,-53.035716 0,-29.290816 23.7448974,-53.035714 53.0357134,-53.035714 29.290815,0 53.03571,23.744898 53.03571,53.035714 z"
       transform="matrix(0.06877772,0,0,0.06874073,150.57679,228.20167)" />
    <path
       sodipodi:type="arc"
       style="color:#000000;fill:url(#radialGradient4058-9-2-8-0-2);fill-opacity:1;fill-rule:nonzero;stroke:#325778;stroke-width:35.35712051;stroke-miterlimit:4;stroke-opacity:1;stroke-dasharray:none;marker:none;visibility:visible;display:inline;overflow:visible;enable-background:accumulate"
       id="path3094-9-1-9-7-8-0"
       sodipodi:cx="52.67857"
       sodipodi:cy="65.678574"
       sodipodi:rx="53.035713"
       sodipodi:ry="53.035713"
       d="m 105.71428,65.678574 c 0,29.290815 -23.744895,53.035716 -53.03571,53.035716 -29.290816,0 -53.0357134,-23.744901 -53.0357134,-53.035716 0,-29.290816 23.7448974,-53.035714 53.0357134,-53.035714 29.290815,0 53.03571,23.744898 53.03571,53.035714 z"
       transform="matrix(0.02828286,0,0,0.02828285,152.79908,230.5046)" />
    <path
       style="color:#000000;fill:url(#radialGradient6516);fill-opacity:1;fill-rule:nonzero;stroke:#345676;stroke-width:0.99999994;stroke-linejoin:round;stroke-miterlimit:4;stroke-opacity:1;stroke-dasharray:none;marker:none;visibility:visible;display:inline;overflow:visible;enable-background:accumulate"
       d="m 154.16398,224.86218 c -2.58374,0 -5.02985,1.579 -6.375,3.5625 l 3.03125,5.4375 0.0312,-0.0312 c -0.0879,-0.25611 -0.0334,-0.7536 0,-1.15625 -0.003,-0.0316 0.002,-0.0619 0,-0.0937 -4.9e-4,-0.0254 0,-0.0371 0,-0.0625 -0.003,-0.0543 -0.0312,-0.10128 -0.0312,-0.15625 0,-0.36614 -0.22698,0.7143 0.077,-1.03125 0.19834,-1.76738 1.56906,-2.5 3.23549,-2.5 0.23913,-0.0113 0.50955,0.0708 0.71875,0.0937 0.0144,0.002 0.0178,-0.002 0.0312,0 l 6.03125,-0.0312 c -1.20881,-2.49936 -3.77862,-4.03135 -6.74994,-4.03135 z"
       id="path3094-0-7-3-1-3-8"
       inkscape:connector-curvature="0"
       sodipodi:nodetypes="sccccccscccccs" />
    <path
       style="color:#000000;fill:url(#radialGradient6513);fill-opacity:1;fill-rule:nonzero;stroke:#7cacd8;stroke-width:1.00000012;stroke-linejoin:round;stroke-miterlimit:4;stroke-opacity:1;stroke-dasharray:none;marker:none;visibility:visible;display:inline;overflow:visible;enable-background:accumulate"
       d="m 154.66398,228.86218 0.0312,0.0625 c 1.75215,0 3.0625,0.92733 3.0625,3.4375 0,0.9895 -0.39801,1.89917 -1.0625,2.53125 l -2.9375,4.78125 c 2.79809,0.19827 5.59691,-1.07247 7.09375,-3.53125 1.30172,-2.13808 1.15344,-5.15435 0.0937,-7.21875 z"
       id="path3094-0-5-59-3-3-8-5"
       inkscape:connector-curvature="0"
       sodipodi:nodetypes="ccsccccc" />
    <path
       style="color:#000000;fill:url(#radialGradient6519);fill-opacity:1;fill-rule:nonzero;stroke:#3d84c7;stroke-width:1.00000012;stroke-linejoin:round;stroke-miterlimit:4;stroke-opacity:1;stroke-dasharray:none;marker:none;visibility:visible;display:inline;overflow:visible;enable-background:accumulate"
       d="m 148.10148,228.17468 c -1.5801,2.2669 -1.80937,5.34026 -0.3125,7.875 1.30161,2.20411 3.61625,3.48939 6.03125,3.65625 l 2.8125,-4.78125 c -0.61708,0.56439 -1.44159,0.90625 -2.34375,0.90625 -1.77488,0 -3.4375,-0.60268 -3.4375,-3.0625 z"
       id="path3094-0-5-5-6-6-3-1-4"
       inkscape:connector-curvature="0"
       sodipodi:nodetypes="csccscc" />
    <path
       style="opacity:0.05;color:#000000;fill:#000000;fill-opacity:1;fill-rule:nonzero;stroke:none;stroke-width:0.5;marker:none;visibility:visible;display:inline;overflow:visible;enable-background:accumulate"
       d="m 148.67738,227.76249 c -0.0317,0.0447 -0.0628,0.0886 -0.0935,0.13405 l 2.98738,5.1266 0.008,-0.0609 c -0.0988,-0.30918 -0.15445,-0.63693 -0.15445,-0.97901 0,-0.42863 0.084,-0.83648 0.23574,-1.21055 l -2.98332,-3.01015 z"
       id="path3094-0-1-2-4-7-1-8"
       inkscape:connector-curvature="0" />
    <path
       inkscape:connector-curvature="0"
       style="opacity:0.05;color:#000000;fill:#000000;fill-opacity:1;fill-rule:nonzero;stroke:none;stroke-width:0.5;marker:none;visibility:visible;display:inline;overflow:visible;enable-background:accumulate"
       d="m 160.79653,229.43873 c -0.0209,-0.0498 -0.0416,-0.0987 -0.0636,-0.14794 l -5.4439,0.0225 0.0447,0.0375 c 0.29102,0.0691 0.57699,0.18478 0.84883,0.35582 0.34062,0.21431 0.6262,0.49095 0.85391,0.80932 l 3.76013,-1.07716 z"
       id="path3094-0-1-3-1-9-6-6-6" />
    <path
       inkscape:connector-curvature="0"
       style="opacity:0.05;color:#000000;fill:#000000;fill-opacity:1;fill-rule:nonzero;stroke:none;stroke-width:0.5;marker:none;visibility:visible;display:inline;overflow:visible;enable-background:accumulate"
       d="m 152.77988,240.34828 c 0.0545,0.005 0.10819,0.01 0.16289,0.0139 l 2.94846,-5.14904 -0.0568,0.0234 c -0.2185,0.24012 -0.47467,0.45214 -0.77108,0.62318 -0.37141,0.21432 -0.76681,0.34552 -1.1668,0.40124 l -1.11661,4.08731 z"
       id="path3094-0-1-9-7-8-3-4-2" />
    <path
       style="opacity:0.1;color:#000000;fill:url(#linearGradient5825-4);fill-opacity:1;fill-rule:nonzero;stroke:none;stroke-width:0.5;marker:none;visibility:visible;display:inline;overflow:visible;enable-background:accumulate"
       d="m 146.88388,232.28215 c 0.0276,1.14464 0.34508,2.29741 0.97953,3.35805 1.26267,2.11087 3.48978,3.35518 5.83251,3.51498 l 0.008,-0.0157 c 2.69524,0.17367 5.39054,-1.10855 6.83235,-3.51891 0.6309,-1.05468 0.94577,-2.20038 0.97548,-3.33844 l -0.0163,0 c -0.0694,0.98375 -0.37884,1.96837 -0.95921,2.87946 -1.44182,2.26342 -4.13712,3.47014 -6.83237,3.30706 l -0.008,0.0157 c -2.34273,-0.15006 -4.56984,-1.32096 -5.83251,-3.30314 -0.58423,-0.91715 -0.89941,-1.90863 -0.96734,-2.89907 l -0.0122,0 z"
       id="path3094-0-5-0-8-4-9-9-9"
       inkscape:connector-curvature="0" />
    <path
       inkscape:connector-curvature="0"
       style="opacity:0.5;color:#000000;fill:none;stroke:url(#linearGradient3051);stroke-width:0.99999994;stroke-linecap:round;stroke-linejoin:round;stroke-miterlimit:4;stroke-opacity:1;stroke-dasharray:none;stroke-dashoffset:0;marker:none;visibility:visible;display:inline;overflow:visible;enable-background:accumulate"
       id="path8655-6"
       d="m 160.78897,232.36195 c 0,3.58997 -2.91036,6.50023 -6.49992,6.50023 -3.58988,0 -6.50008,-2.9103 -6.50008,-6.50023 0,-3.5898 2.9102,-6.49977 6.50008,-6.49977 3.58956,0 6.49992,2.90997 6.49992,6.49977 l 0,0 z" />
  </g>
</svg>
