<?xml version="1.0" encoding="UTF-8" standalone="no"?>
<svg
   height="16"
   width="16"
   id="svg2"
   version="1.1"
   sodipodi:docname="element-desktop.svg"
   inkscape:version="1.2.2 (b0a8486541, 2022-12-01)"
   xmlns:inkscape="http://www.inkscape.org/namespaces/inkscape"
   xmlns:sodipodi="http://sodipodi.sourceforge.net/DTD/sodipodi-0.dtd"
   xmlns:xlink="http://www.w3.org/1999/xlink"
   xmlns="http://www.w3.org/2000/svg"
   xmlns:svg="http://www.w3.org/2000/svg"
   xmlns:rdf="http://www.w3.org/1999/02/22-rdf-syntax-ns#"
   xmlns:cc="http://creativecommons.org/ns#"
   xmlns:dc="http://purl.org/dc/elements/1.1/">
  <sodipodi:namedview
     id="namedview8"
     pagecolor="#ffffff"
     bordercolor="#000000"
     borderopacity="0.25"
     inkscape:showpageshadow="2"
     inkscape:pageopacity="0.0"
     inkscape:pagecheckerboard="0"
     inkscape:deskcolor="#d1d1d1"
     showgrid="false"
     showguides="true"
     inkscape:zoom="64"
     inkscape:cx="2.0234375"
     inkscape:cy="5.1953125"
     inkscape:window-width="1278"
     inkscape:window-height="794"
     inkscape:window-x="320"
     inkscape:window-y="451"
     inkscape:window-maximized="0"
     inkscape:current-layer="svg2" />
  <metadata
     id="metadata14">
    <rdf:RDF>
      <cc:Work
         rdf:about="">
        <dc:format>image/svg+xml</dc:format>
        <dc:type
           rdf:resource="http://purl.org/dc/dcmitype/StillImage" />
      </cc:Work>
    </rdf:RDF>
  </metadata>
  <defs
     id="defs12">
    <linearGradient
       xlink:href="#linearGradient3924-1"
       id="linearGradient3901"
       gradientUnits="userSpaceOnUse"
       gradientTransform="matrix(0.35135141,0,0,0.35135135,-0.4324372,-0.43242862)"
       x1="23.99999"
       y1="4.999989"
       x2="23.99999"
       y2="43" />
    <linearGradient
       id="linearGradient3924-1">
      <stop
         id="stop3926-3"
         style="stop-color:#ffffff;stop-opacity:1"
         offset="0" />
      <stop
         id="stop3928-91"
         style="stop-color:#ffffff;stop-opacity:0.23529412"
         offset="0.06316455" />
      <stop
         id="stop3930-6"
         style="stop-color:#ffffff;stop-opacity:0.15686275"
         offset="0.95056331" />
      <stop
         id="stop3932-6"
         style="stop-color:#ffffff;stop-opacity:0.39215687"
         offset="1" />
    </linearGradient>
    <linearGradient
       inkscape:collect="always"
       xlink:href="#linearGradient2575-6"
       id="linearGradient4706-3"
       gradientUnits="userSpaceOnUse"
       gradientTransform="matrix(0.36585366,0,0,0.36585366,-0.7804879,-0.78048773)"
       x1="8.5073395"
       y1="-1.2307693"
       x2="8.5073395"
       y2="94.47197" />
    <linearGradient
       inkscape:collect="always"
       id="linearGradient2575-6">
      <stop
         style="stop-color:#43d6b5;stop-opacity:1"
         offset="0"
         id="stop2571-7" />
      <stop
         style="stop-color:#0e9a83;stop-opacity:1"
         offset="1"
         id="stop2573-5" />
    </linearGradient>
  </defs>
  <rect
     style="fill:url(#linearGradient4706-3);fill-opacity:1;stroke:none;stroke-width:0.999994;stroke-linecap:round;stroke-opacity:0.5;paint-order:markers fill stroke;stop-color:#000000"
     id="rect4686-3"
     width="15"
     height="15"
     x="0.5"
     y="0.5"
     rx="2.5"
     ry="2.5" />
  <path
     id="path301"
     style="color:#000000;clip-rule:evenodd;fill:#007367;fill-opacity:0.05;fill-rule:evenodd;-inkscape-stroke:none"
     d="m 7.0976562,2.5 c -0.8724226,0 -1.6035156,0.7275877 -1.6035156,1.6015625 0,0.1638703 0.024748,0.32291 0.072266,0.4726563 C 3.5059719,5.2235545 2,7.1542583 2,9.4199219 c 0,0.8740011 0.7311243,1.6015621 1.6035156,1.6015621 0.1593016,0 0.3146483,-0.02338 0.4609375,-0.06836 C 4.7200657,13.003674 6.6497078,14.5 8.9121094,14.5 c 0.8723838,0 1.6035156,-0.727611 1.6035156,-1.601562 0,-0.165393 -0.02585,-0.325597 -0.07422,-0.476563 C 12.497596,11.769987 14,9.842701 14,7.5800781 14,6.706101 13.268903,5.9785156 12.396484,5.9785156 c -0.155858,0 -0.307697,0.023277 -0.451172,0.066406 C 11.289165,3.9952871 9.3594367,2.5 7.0976562,2.5 Z m 1.5078126,3.953125 c 0.2334567,0.3128146 0.3730468,0.7012638 0.3730468,1.1269531 0,0.6852694 0.4498147,1.2787955 1.0644534,1.5039063 -0.313392,0.2332929 -0.7026433,0.3710937 -1.1308596,0.3710937 -0.6919917,0 -1.2938355,0.4584579 -1.5136719,1.0839839 C 7.1685507,10.2276 7.03125,9.842073 7.03125,9.4199219 7.03125,8.7324638 6.578545,8.1375326 5.9609375,7.9140625 6.2737448,7.6823295 6.6612193,7.5449219 7.0878906,7.5449219 c 0.6950524,0 1.300164,-0.4620694 1.5175782,-1.0917969 z" />
  <path
     fill-rule="evenodd"
     clip-rule="evenodd"
     d="M 6.494336,4.6018953 C 6.494336,4.2694765 6.764372,4 7.0974819,4 c 2.2577306,0 4.0880301,1.8264541 4.0880301,4.0794979 0,0.3324183 -0.270119,0.6018948 -0.603156,0.6018948 -0.333118,0 -0.6031542,-0.2694765 -0.6031542,-0.6018948 0,-1.5882062 -1.2902278,-2.8757078 -2.8817199,-2.8757078 -0.3331099,0 -0.6031459,-0.2694764 -0.6031459,-0.6018948 z"
     fill="#ffffff"
     id="path4690"
     style="fill:#007367;fill-opacity:0.5;stroke-width:1" />
  <path
     fill-rule="evenodd"
     clip-rule="evenodd"
     d="m 6.494336,3.6018989 c 0,-0.3324188 0.270036,-0.6018949 0.6031459,-0.6018949 2.2577306,0 4.0880301,1.8264534 4.0880301,4.0794975 0,0.3324183 -0.270119,0.6018947 -0.603156,0.6018947 -0.333118,0 -0.6031542,-0.2694764 -0.6031542,-0.6018947 0,-1.5882061 -1.2902278,-2.8757078 -2.8817199,-2.8757078 -0.3331099,0 -0.6031459,-0.2694764 -0.6031459,-0.6018948 z"
     fill="#ffffff"
     id="path4692"
     style="stroke-width:1" />
  <path
     fill-rule="evenodd"
     clip-rule="evenodd"
     d="M 12.396845,7.4775948 C 12.729963,7.4775948 13,7.7470713 13,8.0794896 c 0,2.2530684 -1.830217,4.0794984 -4.0879315,4.0794984 -0.3331182,0 -0.6031542,-0.26946 -0.6031542,-0.601919 0,-0.332379 0.270036,-0.601838 0.6031542,-0.601838 1.5914765,0 2.8816215,-1.2875108 2.8816215,-2.8757414 0,-0.3324183 0.270036,-0.6018948 0.603155,-0.6018948 z"
     fill="#ffffff"
     id="path4694"
     style="fill:#007367;fill-opacity:0.5;stroke-width:1" />
  <path
     fill-rule="evenodd"
     clip-rule="evenodd"
     d="M 12.396845,6.4775984 C 12.729963,6.4775984 13,6.7470738 13,7.0794932 13,9.3325614 11.169783,11.15899 8.9120685,11.15899 c -0.3331182,0 -0.6031542,-0.269459 -0.6031542,-0.601918 0,-0.332378 0.270036,-0.6018379 0.6031542,-0.6018379 1.5914765,0 2.8816215,-1.2875103 2.8816215,-2.875741 0,-0.3324194 0.270036,-0.6018948 0.603155,-0.6018947 z"
     fill="#ffffff"
     id="path4696"
     style="stroke-width:1" />
  <path
     fill-rule="evenodd"
     clip-rule="evenodd"
     d="m 9.5151426,13.398075 c 0,0.332459 -0.270037,0.601919 -0.6031562,0.601919 -2.2576963,0 -4.0879537,-1.82643 -4.0879537,-4.0795309 0,-0.3323777 0.2700444,-0.6018375 0.6031553,-0.6018375 0.3331008,0 0.6031448,0.2694598 0.6031448,0.6018375 0,1.5882629 1.2901708,2.8757739 2.8816546,2.8757739 0.3331182,0 0.6031552,0.26946 0.6031552,0.601838 z"
     fill="#ffffff"
     id="path4698"
     style="fill:#007367;fill-opacity:0.5;stroke-width:1" />
  <path
     fill-rule="evenodd"
     clip-rule="evenodd"
     d="m 9.5151426,12.398078 c 0,0.332458 -0.270037,0.601918 -0.6031562,0.601918 -2.2576963,0 -4.0879537,-1.826429 -4.0879537,-4.0795305 0,-0.3323777 0.2700444,-0.6018364 0.6031553,-0.6018364 0.3331008,0 0.6031448,0.2694588 0.6031448,0.6018364 0,1.5882635 1.2901708,2.8757745 2.8816546,2.8757745 0.3331182,0 0.6031552,0.26946 0.6031552,0.601838 z"
     fill="#ffffff"
     id="path4700"
     style="stroke-width:1" />
  <path
     fill-rule="evenodd"
     clip-rule="evenodd"
     d="m 3.6031467,10.522383 c -0.3331104,0 -0.6031465,-0.269461 -0.6031465,-0.6018377 0,-2.2530766 1.8302498,-4.0795392 4.0879875,-4.0795392 0.3331099,0 0.6031459,0.2694844 0.6031459,0.6019032 0,0.3324183 -0.270036,0.6018948 -0.6031459,0.6018948 -1.5915173,0 -2.8816866,1.2874928 -2.8816866,2.8757412 0,0.3323767 -0.270044,0.6018377 -0.6031544,0.6018377 z"
     fill="#ffffff"
     id="path4702"
     style="fill:#007367;fill-opacity:0.5;stroke-width:1" />
  <path
     fill-rule="evenodd"
     clip-rule="evenodd"
     d="m 3.6031467,9.5223853 c -0.3331104,0 -0.6031465,-0.2694598 -0.6031465,-0.6018375 0,-2.2530756 1.8302498,-4.0795385 4.0879875,-4.0795385 0.3331099,0 0.6031459,0.2694844 0.6031459,0.6019032 0,0.3324185 -0.270036,0.6018952 -0.6031459,0.6018952 -1.5915173,0 -2.8816866,1.2874928 -2.8816866,2.8757401 0,0.3323777 -0.270044,0.6018375 -0.6031544,0.6018375 z"
     fill="#ffffff"
     id="path4704"
     style="stroke-width:1" />
  <rect
     style="opacity:0.5;fill:none;stroke:url(#linearGradient3901);stroke-width:1;stroke-linecap:round;stroke-linejoin:round;stroke-miterlimit:4;stroke-dasharray:none;stroke-dashoffset:0;stroke-opacity:1"
     id="rect6741-3"
     y="1.5"
     x="1.499999"
     ry="1.5"
     rx="1.5"
     height="13"
     width="13.000002" />
  <rect
     style="opacity:1;fill:none;fill-opacity:1;stroke:#007367;stroke-width:0.999996;stroke-linecap:round;stroke-opacity:0.5;paint-order:markers fill stroke;stop-color:#000000"
     id="rect4688"
     width="15.000002"
     height="15.000002"
     x="0.49999905"
     y="0.49999905"
     rx="2.5"
     ry="2.5" />
</svg>
