<?xml version="1.0" encoding="UTF-8" standalone="no"?>
<svg
   xmlns:dc="http://purl.org/dc/elements/1.1/"
   xmlns:cc="http://creativecommons.org/ns#"
   xmlns:rdf="http://www.w3.org/1999/02/22-rdf-syntax-ns#"
   xmlns:svg="http://www.w3.org/2000/svg"
   xmlns="http://www.w3.org/2000/svg"
   xmlns:xlink="http://www.w3.org/1999/xlink"
   width="16"
   height="16"
   id="svg4032"
   version="1.1">
  <defs
     id="defs4034">
    <linearGradient
       id="linearGradient3895-9-0-3">
      <stop
         offset="0"
         style="stop-color:#dc5639;stop-opacity:1;"
         id="stop3897-0-5-7" />
      <stop
         offset="1"
         style="stop-color:#9d0f0f;stop-opacity:1;"
         id="stop3899-8-7-06" />
    </linearGradient>
    <linearGradient
       xlink:href="#linearGradient3924"
       id="linearGradient2959"
       gradientUnits="userSpaceOnUse"
       gradientTransform="matrix(0.2972973,0,0,0.2972973,0.86486593,32.864866)"
       x1="23.99999"
       y1="4.999989"
       x2="23.99999"
       y2="43" />
    <linearGradient
       id="linearGradient3924">
      <stop
         offset="0"
         style="stop-color:#ffffff;stop-opacity:1;"
         id="stop3926" />
      <stop
         id="stop3928"
         style="stop-color:#ffffff;stop-opacity:0.23529412;"
         offset="0.06316455" />
      <stop
         offset="0.95056331"
         style="stop-color:#ffffff;stop-opacity:0.15686275;"
         id="stop3930" />
      <stop
         offset="1"
         style="stop-color:#ffffff;stop-opacity:0.39215687;"
         id="stop3932" />
    </linearGradient>
    <linearGradient
       xlink:href="#linearGradient8265-821-176-38-919-66-249-7-7"
       id="linearGradient3568"
       gradientUnits="userSpaceOnUse"
       gradientTransform="matrix(0.26052004,0,0,0.43374456,1.7353304,31.52236)"
       x1="16.626165"
       y1="15.298182"
       x2="20.054544"
       y2="24.627615" />
    <linearGradient
       id="linearGradient8265-821-176-38-919-66-249-7-7">
      <stop
         offset="0"
         style="stop-color:#e77e71;stop-opacity:1;"
         id="stop2687-1-9" />
      <stop
         offset="1"
         style="stop-color:#ffdf80;stop-opacity:0.375;"
         id="stop2689-5-4" />
    </linearGradient>
    <radialGradient
       r="19.99999"
       fy="8.4497671"
       fx="7.4956832"
       cy="8.4497671"
       cx="7.4956832"
       gradientTransform="matrix(0,0.77899668,-0.82408554,-1.4352092e-8,14.963367,27.855066)"
       gradientUnits="userSpaceOnUse"
       id="radialGradient2874"
       xlink:href="#linearGradient4644-104-3-3-6-2" />
    <linearGradient
       id="linearGradient4644-104-3-3-6-2">
      <stop
         id="stop5237-6-5-1-7"
         style="stop-color:#e44532;stop-opacity:1;"
         offset="0" />
      <stop
         id="stop5239-4-6-4-8"
         style="stop-color:#dd4b39;stop-opacity:1;"
         offset="1" />
    </linearGradient>
    <linearGradient
       y2="43.2943"
       x2="13.990655"
       y1="3.9626207"
       x1="13.990655"
       gradientTransform="matrix(0.33333333,0,0,0.33333333,3.4744939e-7,31.999999)"
       gradientUnits="userSpaceOnUse"
       id="linearGradient2876"
       xlink:href="#linearGradient3895-9-0-3" />
  </defs>
  <metadata
     id="metadata4037">
    <rdf:RDF>
      <cc:Work
         rdf:about="">
        <dc:format>image/svg+xml</dc:format>
        <dc:type
           rdf:resource="http://purl.org/dc/dcmitype/StillImage" />
        <dc:title />
      </cc:Work>
    </rdf:RDF>
  </metadata>
  <g
     id="layer1"
     transform="translate(0,-32)">
    <rect
       style="color:#000000;display:inline;overflow:visible;visibility:visible;fill:url(#radialGradient2874);fill-opacity:1;fill-rule:nonzero;stroke:url(#linearGradient2876);stroke-width:0.99999988;stroke-linecap:round;stroke-linejoin:round;stroke-miterlimit:4;stroke-dasharray:none;stroke-dashoffset:0;stroke-opacity:1;marker:none;enable-background:accumulate"
       id="rect5505-21"
       y="33.5"
       x="1.5"
       ry="0.66666669"
       rx="0.66666669"
       height="13"
       width="13" />
    <path
       style="opacity:0.4;fill:url(#linearGradient3568);fill-opacity:1;fill-rule:evenodd;stroke:none"
       id="path3333"
       d="M 2.3842893,34 C 2.176852,34 2,34.232735 2,34.449999 L 2.00399,42 C 2.3492054,41.991922 13.737977,39.051031 14,38.90957 l 0,-4.459571 C 14,34.223864 13.786024,34 13.600308,34 Z" />
    <path
       id="path3873"
       d="m 6.6671143,35.000564 c -0.3333753,-0.0029 -2.6669924,0 -2.6669924,2.666518 0,1.333258 1.0001229,1.999885 2.3336188,1.999885 -0.3333732,0.999946 0.3333736,1.333259 -0.3001019,1.352356 0,0 -3.0336389,0.314218 -3.0336389,2.314105 0,1.333259 1.5287864,1.666572 2.6669931,1.666572 1.8049527,0 3.33374,-0.666627 3.33374,-2.333201 0,-1.666573 -1.6668709,-1.666573 -1.6668709,-2.666516 l 0,-0.323767 c 0,0 1.3723176,-0.536935 1.6668709,-2.009434 C 9.3341069,36.000509 8.5003124,35.867 8.5003124,35.867 l 0.3333753,0 C 9.5004349,35.867 9.93,35.029009 9.93,35.029009 Z M 7.24053,39.086997 C 5.426659,39.691514 4.1090095,36.549649 5.7758806,35.883019 7.4427496,35.216388 9.0544008,38.48248 7.24053,39.086997 Z M 6.0003675,41.75935 c 1.0001208,0 2.4802333,0.404201 1.782468,1.799481 -0.6667491,1.333257 -3.5804938,1.107856 -3.5804938,-0.558716 0,-0.999944 0.7979031,-1.240765 1.7980258,-1.240765 z"
       style="opacity:0.25;fill:none;fill-opacity:1;stroke:#8e1a1a;stroke-width:1.99999976;stroke-miterlimit:4;stroke-dasharray:none;stroke-opacity:1" />
    <path
       style="fill:#ffffff;fill-opacity:1;stroke:none"
       d="m 6.6671145,35.000567 c -0.3333753,-0.0028 -2.6669923,0 -2.6669923,2.666517 0,1.333258 1.0001225,1.999886 2.3336193,1.999886 -0.3333744,0.999944 0.333373,1.333258 -0.300103,1.352356 0,0 -3.0336384,0.314217 -3.0336384,2.314104 0,1.333258 1.5287865,1.666573 2.6669925,1.666573 1.8049533,0 3.3337407,-0.666629 3.3337407,-2.333201 0,-1.666574 -1.6668703,-1.666574 -1.6668703,-2.666516 l 0,-0.323767 c 0,0 1.3723184,-0.536935 1.6668703,-2.009435 C 9.1674202,36.833796 8.91739,36.333775 8.625688,36.042076 8.4129467,35.915372 8.5205452,36.026437 8.501,35.967 l 0.433049,0 c 0.6667478,0 1.095902,-0.937788 1.095902,-0.937788 z m 0.557861,4.071015 C 5.3366559,39.700913 4.2218259,36.498309 5.760325,35.88302 c 1.5384987,-0.61529 3.35297,2.559233 1.4646505,3.188562 z m -1.2246084,2.811099 c 0.8134581,0 2.4834095,0.274522 1.7824702,1.676151 -0.5710064,1.141809 -3.56494,0.845784 -3.56494,-0.558715 0,-0.892032 0.9223456,-1.117436 1.7824698,-1.117436 z"
       id="path3817" />
    <rect
       style="opacity:0.5;fill:none;stroke:url(#linearGradient2959);stroke-width:0.99999988;stroke-linecap:round;stroke-linejoin:round;stroke-miterlimit:4;stroke-dasharray:none;stroke-dashoffset:0;stroke-opacity:1"
       id="rect6741"
       y="34.5"
       x="2.5"
       ry="0"
       rx="0"
       height="11"
       width="11" />
    <path
       id="path3869"
       d="m 10,40 1,0 0,-1 1,0 0,1 1,0 0,1 -1,0 0,1 -1,0 0,-1 -1,0 z"
       style="opacity:0.25;fill:none;fill-opacity:1;stroke:#8e1a1a;stroke-width:2;stroke-miterlimit:4;stroke-dasharray:none;stroke-opacity:1" />
    <path
       style="fill:#ffffff;fill-opacity:1;stroke:none"
       d="m 10,40.000046 1,0 0,-0.999954 1,-9.2e-5 0,0.999954 1,9.2e-5 0,1 -1,-9.2e-5 0,0.999954 -1,9.2e-5 0,-0.999954 -1,0 z"
       id="path3825" />
  </g>
</svg>
