<?xml version="1.0" encoding="UTF-8" standalone="no"?>
<!-- Created with Inkscape (http://www.inkscape.org/) -->

<svg
   xmlns:dc="http://purl.org/dc/elements/1.1/"
   xmlns:cc="http://creativecommons.org/ns#"
   xmlns:rdf="http://www.w3.org/1999/02/22-rdf-syntax-ns#"
   xmlns:svg="http://www.w3.org/2000/svg"
   xmlns="http://www.w3.org/2000/svg"
   xmlns:xlink="http://www.w3.org/1999/xlink"
   xmlns:sodipodi="http://sodipodi.sourceforge.net/DTD/sodipodi-0.dtd"
   xmlns:inkscape="http://www.inkscape.org/namespaces/inkscape"
   version="1.1"
   width="16"
   height="16"
   id="svg3767"
   inkscape:version="0.48+devel r"
   sodipodi:docname="google-hangout.svg">
  <metadata
     id="metadata109508">
    <rdf:RDF>
      <cc:Work
         rdf:about="">
        <dc:format>image/svg+xml</dc:format>
        <dc:type
           rdf:resource="http://purl.org/dc/dcmitype/StillImage" />
        <dc:title />
      </cc:Work>
    </rdf:RDF>
  </metadata>
  <sodipodi:namedview
     pagecolor="#ffffff"
     bordercolor="#666666"
     borderopacity="1"
     objecttolerance="10"
     gridtolerance="10"
     guidetolerance="10"
     inkscape:pageopacity="0"
     inkscape:pageshadow="2"
     inkscape:window-width="1535"
     inkscape:window-height="876"
     id="namedview109506"
     showgrid="false"
     inkscape:zoom="19.666666"
     inkscape:cx="2.3953402"
     inkscape:cy="9.8119781"
     inkscape:window-x="65"
     inkscape:window-y="24"
     inkscape:window-maximized="1"
     inkscape:current-layer="svg3767">
    <inkscape:grid
       type="xygrid"
       id="grid3884" />
  </sodipodi:namedview>
  <defs
     id="defs3769">
    <linearGradient
       id="linearGradient3718">
      <stop
         id="stop3720"
         style="stop-color:#55da19;stop-opacity:1;"
         offset="0" />
      <stop
         id="stop3722"
         style="stop-color:#9c4694;stop-opacity:0"
         offset="1" />
    </linearGradient>
    <linearGradient
       id="linearGradient4593">
      <stop
         id="stop12409"
         style="stop-color:#ffffff;stop-opacity:0.70200002"
         offset="0" />
      <stop
         id="stop12411"
         style="stop-color:#ffffff;stop-opacity:0"
         offset="1" />
    </linearGradient>
    <linearGradient
       id="linearGradient2264">
      <stop
         offset="0"
         style="stop-color:#20d74e;stop-opacity:1;"
         id="stop2266" />
      <stop
         offset="1"
         style="stop-color:#1f802a;stop-opacity:1;"
         id="stop2268" />
    </linearGradient>
    <radialGradient
       inkscape:collect="always"
       xlink:href="#linearGradient3718"
       id="radialGradient3076"
       gradientUnits="userSpaceOnUse"
       gradientTransform="matrix(0.10377147,-0.07498692,0.03824393,0.0572969,-7.5750163,18.565204)"
       cx="90.746872"
       cy="32.164093"
       fx="90.746872"
       fy="32.164093"
       r="23" />
    <radialGradient
       inkscape:collect="always"
       xlink:href="#linearGradient4593"
       id="radialGradient3082"
       gradientUnits="userSpaceOnUse"
       gradientTransform="matrix(0,0.42681951,-0.37108457,0,8.8333528,-7.6429975)"
       cx="24.016491"
       cy="2.2461414"
       fx="24.016491"
       fy="2.2461414"
       r="21.995602" />
    <radialGradient
       inkscape:collect="always"
       xlink:href="#linearGradient2264"
       id="radialGradient3085"
       gradientUnits="userSpaceOnUse"
       gradientTransform="matrix(0,0.60464332,-0.49617498,0,10.05596,-10.919282)"
       cx="20.248743"
       cy="4.9115634"
       fx="20.248743"
       fy="4.9115634"
       r="23" />
  </defs>
  <path
     inkscape:connector-curvature="0"
     style="display:inline;overflow:visible;visibility:visible;fill:url(#radialGradient3085);fill-opacity:1;fill-rule:evenodd;stroke:#2c7941;stroke-width:0.99525023;stroke-linecap:butt;stroke-linejoin:round;stroke-miterlimit:4;stroke-dasharray:none;stroke-dashoffset:0;stroke-opacity:1;marker:none"
     id="path6145"
     d="M 6.9373262,1.5954236 C 3.0971475,2.1753904 0.25564917,4.8857699 0.51383028,7.8203925 0.68101363,9.7206801 2.1048263,11.284779 4.1409342,12.110019 l -0.8498995,3.392429 3.7598943,-2.785542 0.025988,-0.0026 c 0.4639986,0.02274 0.9301505,0.03024 1.413882,-0.01494 C 12.61864,12.313711 15.757035,9.5000229 15.486153,6.4210759 15.215278,3.3421693 11.637022,1.156209 7.5091828,1.5419892 7.3156904,1.5600746 7.1261852,1.56691 6.9373235,1.5954343 Z" />
  <path
     inkscape:connector-curvature="0"
     style="display:inline;overflow:visible;visibility:visible;opacity:0.4;fill:none;stroke:url(#radialGradient3082);stroke-width:0.99525034;stroke-linecap:butt;stroke-linejoin:miter;stroke-miterlimit:4;stroke-dasharray:none;stroke-dashoffset:0;stroke-opacity:1;marker:none"
     id="path6179"
     d="M 7.1160768,2.5669973 C 4.0221521,3.0169232 1.2941134,5.0194309 1.5092907,7.7309124 1.6538187,9.5521287 3.0768033,10.787973 4.8413768,11.362497 l -0.5929292,2.433536 2.7698928,-1.988416 c 0.3736235,0.01625 0.9484767,0.04511 1.3381424,0.0096 C 11.302798,11.548842 14.736482,9.3638656 14.489758,6.6472543 14.226872,3.7183453 10.795174,2.1955092 7.5767337,2.52504 7.4210518,2.54098 7.2682358,2.5448759 7.1160768,2.5670049 Z"
     sodipodi:nodetypes="cscccccscc" />
  <path
     inkscape:connector-curvature="0"
     style="fill:#209433;fill-opacity:1;stroke-width:1px"
     id="path3705"
     d="M 4.1165218,14.272323 4.7635936,11.824346 6.852881,12.218931 Z"
     sodipodi:nodetypes="cccc" />
  <path
     inkscape:connector-curvature="0"
     style="display:inline;overflow:visible;visibility:visible;fill:url(#radialGradient3076);fill-opacity:1;fill-rule:evenodd;stroke:none;stroke-width:0.99525028;marker:none"
     id="path3845"
     d="m 8.9610462,2.0144384 c -0.461357,-0.027414 -0.932245,-0.015073 -1.416846,0.030927 -0.189246,0.017966 -0.365925,0.025602 -0.535033,0.051546 -1.799264,0.2760088 -3.360676,1.0590324 -4.438795,2.1133863 -1.078119,1.0543532 -1.67376002,2.3775822 -1.555559,3.7422406 0.153072,1.7672482 1.619566,3.0411537 3.519736,3.8234097 0.06836,0.02615 0.106802,0.101716 0.08917,0.175255 l -0.5102314,2.36566 2.7168264,-2.041569 c 0.02392,-0.01478 0.05148,-0.02192 0.07926,-0.02063 l 0.01981,0 c 0.0033,-1.21e-4 0.0066,-1.21e-4 0.0099,0 0.436891,0.02172 0.876198,0.02222 1.327676,-0.0206 1.9347478,-0.183668 3.6081638,-0.795096 4.7883358,-1.86866 1.180178,-1.0735657 2.05384,-2.3109188 1.929819,-3.74275 C 14.876616,5.3698938 14.186094,4.2739239 13.112508,3.4577269 12.038922,2.6415295 10.578567,2.1105532 8.9610462,2.0144384 Z"
     sodipodi:nodetypes="sscssccccccccssss" />
  <path
     sodipodi:nodetypes="cccszccc"
     inkscape:connector-curvature="0"
     id="path3030"
     d="m 9,4 0,2.9504445 2.142859,0 c 0,0.8492376 -0.42857,1.3998801 -0.857147,1.3998801 -0.8571417,0 -0.4285715,0.849231 0,0.849231 C 10.714289,9.1995545 12,8.6489112 12,6.9504445 L 12,4 Z"
     style="opacity:0.3;fill:#333333;fill-opacity:1;stroke:none" />
  <path
     style="fill:#ffffff;fill-opacity:1;stroke:none"
     d="m 9,4.999934 0,2.8191902 2.142859,0 c 0,0.8501251 -0.42857,1.330686 -0.857147,1.330686 -0.8571417,0 -0.4285715,0.8501238 0,0.8501238 C 10.714289,9.999934 12,9.5193662 12,7.8191242 L 12,4.999934 Z"
     id="path3886"
     inkscape:connector-curvature="0"
     sodipodi:nodetypes="cccszccc" />
  <path
     style="opacity:0.3;fill:#333333;fill-opacity:1;stroke:none"
     d="m 4,4 0,2.9504444 2.1428585,0 c 0,0.8492372 -0.4285695,1.3998805 -0.8571476,1.3998805 -0.8571398,0 -0.4285705,0.8492294 0,0.8492294 C 5.714289,9.1995543 7,8.6489109 7,6.9504444 L 7,4 Z"
     id="path3800"
     inkscape:connector-curvature="0"
     sodipodi:nodetypes="cccszccc" />
  <path
     sodipodi:nodetypes="cccszccc"
     inkscape:connector-curvature="0"
     id="path3802"
     d="m 4,5 0,2.8191904 2.1428585,0 c 0,0.8501246 -0.4285695,1.3306855 -0.8571476,1.3306855 C 4.4285711,9.1498759 4.8571404,10 5.2857109,10 5.714289,10 7,9.5194321 7,7.8191904 L 7,5 Z"
     style="fill:#ffffff;fill-opacity:1;stroke:none" />
</svg>
