<?xml version="1.0" encoding="UTF-8" standalone="no"?>
<svg
   xmlns:dc="http://purl.org/dc/elements/1.1/"
   xmlns:cc="http://creativecommons.org/ns#"
   xmlns:rdf="http://www.w3.org/1999/02/22-rdf-syntax-ns#"
   xmlns:svg="http://www.w3.org/2000/svg"
   xmlns="http://www.w3.org/2000/svg"
   xmlns:xlink="http://www.w3.org/1999/xlink"
   version="1.1"
   id="svg3810"
   height="16px"
   width="16px">
  <defs
     id="defs3812">
    <linearGradient
       y2="43"
       x2="23.99999"
       y1="5.5641499"
       x1="23.99999"
       gradientTransform="matrix(0.24324324,0,0,0.35135133,1.1621625,-0.43242804)"
       gradientUnits="userSpaceOnUse"
       id="linearGradient3988"
       xlink:href="#linearGradient3977" />
    <linearGradient
       id="linearGradient3977">
      <stop
         id="stop3979"
         style="stop-color:#ffffff;stop-opacity:1;"
         offset="0" />
      <stop
         offset="0.03626217"
         style="stop-color:#ffffff;stop-opacity:0.23529412;"
         id="stop3981" />
      <stop
         id="stop3983"
         style="stop-color:#ffffff;stop-opacity:0.15686275;"
         offset="0.95056331" />
      <stop
         id="stop3985"
         style="stop-color:#ffffff;stop-opacity:0.39215687;"
         offset="1" />
    </linearGradient>
    <linearGradient
       id="linearGradient3600">
      <stop
         offset="0"
         style="stop-color:#f4f4f4;stop-opacity:1"
         id="stop3602" />
      <stop
         offset="1"
         style="stop-color:#dbdbdb;stop-opacity:1"
         id="stop3604" />
    </linearGradient>
    <linearGradient
       id="linearGradient3104">
      <stop
         offset="0"
         style="stop-color:#a0a0a0;stop-opacity:1;"
         id="stop3106" />
      <stop
         offset="1"
         style="stop-color:#bebebe;stop-opacity:1;"
         id="stop3108" />
    </linearGradient>
    <linearGradient
       xlink:href="#linearGradient3600"
       id="linearGradient3806"
       gradientUnits="userSpaceOnUse"
       gradientTransform="matrix(0.34285858,0,0,0.3259265,-0.72860628,-0.32223804)"
       x1="25.132275"
       y1="0.98520643"
       x2="25.132275"
       y2="47.013336" />
    <linearGradient
       xlink:href="#linearGradient3104"
       id="linearGradient3808"
       gradientUnits="userSpaceOnUse"
       gradientTransform="matrix(0.2768572,0,0,0.30501865,19.6407,-0.68547704)"
       x1="-51.786404"
       y1="50.786446"
       x2="-51.786404"
       y2="2.9062471" />
    <linearGradient
       id="linearGradient3155-40">
      <stop
         style="stop-color:#181818;stop-opacity:1;"
         offset="0"
         id="stop2541" />
      <stop
         id="stop2543"
         offset="0.13482948"
         style="stop-color:#dbdbdb;stop-opacity:1;" />
      <stop
         style="stop-color:#a4a4a4;stop-opacity:1;"
         offset="0.20224422"
         id="stop2545" />
      <stop
         id="stop2547"
         offset="0.26965895"
         style="stop-color:#ffffff;stop-opacity:1;" />
      <stop
         style="stop-color:#8d8d8d;stop-opacity:1;"
         offset="0.44650277"
         id="stop2549" />
      <stop
         id="stop2551"
         offset="0.57114136"
         style="stop-color:#959595;stop-opacity:1;" />
      <stop
         style="stop-color:#cecece;stop-opacity:1;"
         offset="0.72038066"
         id="stop2553" />
      <stop
         style="stop-color:#181818;stop-opacity:1;"
         offset="1"
         id="stop2555" />
    </linearGradient>
    <linearGradient
       id="linearGradient3155-40-33">
      <stop
         style="stop-color:#1b1b1b;stop-opacity:1;"
         offset="0"
         id="stop2847" />
      <stop
         id="stop2849"
         offset="0.13482948"
         style="stop-color:#f3f3f3;stop-opacity:1;" />
      <stop
         style="stop-color:#b6b6b6;stop-opacity:1;"
         offset="0.20224422"
         id="stop2851" />
      <stop
         id="stop2853"
         offset="0.26965895"
         style="stop-color:#ffffff;stop-opacity:1;" />
      <stop
         style="stop-color:#9d9d9d;stop-opacity:1;"
         offset="0.44650277"
         id="stop2855" />
      <stop
         id="stop2857"
         offset="0.57114136"
         style="stop-color:#a6a6a6;stop-opacity:1;" />
      <stop
         style="stop-color:#e5e5e5;stop-opacity:1;"
         offset="0.72038066"
         id="stop2859" />
      <stop
         style="stop-color:#1b1b1b;stop-opacity:1;"
         offset="1"
         id="stop2861" />
    </linearGradient>
    <linearGradient
       id="linearGradient3191-577-747-672">
      <stop
         style="stop-color:#a1a1a1;stop-opacity:1;"
         offset="0"
         id="stop2865" />
      <stop
         style="stop-color:#828282;stop-opacity:1;"
         offset="1"
         id="stop2867" />
    </linearGradient>
    <linearGradient
       y2="31.210939"
       x2="23.575972"
       y1="25.356892"
       x1="23.575972"
       spreadMethod="pad"
       gradientTransform="matrix(0.42396562,-0.43984661,0.38444827,0.37610652,10.937791,-1.5108156)"
       gradientUnits="userSpaceOnUse"
       id="linearGradient3102"
       xlink:href="#linearGradient3155-40" />
    <linearGradient
       y2="30.467169"
       x2="11.083416"
       y1="25.077497"
       x1="10.86941"
       gradientTransform="matrix(0.41198075,-0.4274127,0.44992677,0.44016428,9.5820548,-3.1608429)"
       gradientUnits="userSpaceOnUse"
       id="linearGradient3105"
       xlink:href="#linearGradient3155-40-33" />
    <linearGradient
       y2="41.391716"
       x2="9.5220556"
       y1="37.817223"
       x1="5.7117834"
       gradientTransform="matrix(0.32592001,-0.02830409,-0.02012014,0.32893107,23.363349,-7.0683418)"
       gradientUnits="userSpaceOnUse"
       id="linearGradient3107"
       xlink:href="#linearGradient3191-577-747-672" />
    <linearGradient
       xlink:href="#linearGradient4102"
       id="linearGradient3065"
       gradientUnits="userSpaceOnUse"
       gradientTransform="matrix(0.6594275,0,0,0.6465221,-17.068806,-9.3298259)"
       x1="38.016014"
       y1="31.444904"
       x2="25.884279"
       y2="22.16448" />
    <linearGradient
       id="linearGradient4102">
      <stop
         offset="0"
         style="stop-color:#fda852;stop-opacity:1"
         id="stop4104" />
      <stop
         offset="1"
         style="stop-color:#ffffff;stop-opacity:0"
         id="stop4106" />
    </linearGradient>
  </defs>
  <metadata
     id="metadata3815">
    <rdf:RDF>
      <cc:Work
         rdf:about="">
        <dc:format>image/svg+xml</dc:format>
        <dc:type
           rdf:resource="http://purl.org/dc/dcmitype/StillImage" />
        <dc:title />
      </cc:Work>
    </rdf:RDF>
  </metadata>
  <g
     id="layer1">
    <path
       d="m 1.4999611,0.49997396 c 2.7498269,0 12.0000649,9.54e-4 12.0000649,9.54e-4 l 1.4e-5,14.99909804 c 0,0 -8.0000529,0 -12.0000789,0 0,-5.000017 0,-10.000035 0,-15.00005204 z"
       id="path4160"
       style="fill:url(#linearGradient3806);fill-opacity:1;stroke:url(#linearGradient3808);stroke-width:0.99992192;stroke-linecap:butt;stroke-linejoin:round;stroke-miterlimit:4;stroke-opacity:1;stroke-dasharray:none;stroke-dashoffset:0;display:inline" />
    <path
       id="rect6741-1"
       d="m 11.499999,14.5 -9.0000002,0 0,-13 9.0000002,0 z"
       style="fill:none;stroke:url(#linearGradient3988);stroke-width:1;stroke-linecap:round;stroke-linejoin:miter;stroke-miterlimit:4;stroke-opacity:1;stroke-dasharray:none;stroke-dashoffset:0" />
    <g
       transform="translate(-1,0)"
       id="g3011">
      <path
         style="fill:url(#linearGradient3065);fill-opacity:1;fill-rule:evenodd;stroke:#ea541a;stroke-width:1px;stroke-linecap:butt;stroke-linejoin:miter;stroke-opacity:1"
         id="path2783"
         d="M 5,11 C 7,14 10,11 8,8 6,5 10,2 11,6" />
      <rect
         style="fill:#ea541a;fill-opacity:1;stroke:none"
         id="rect3565"
         y="10"
         x="4"
         height="2"
         width="2" />
      <rect
         style="fill:#ea541a;fill-opacity:1;stroke:none"
         id="rect3567"
         y="5"
         x="10"
         height="2"
         width="2" />
      <path
         style="fill:none;stroke:#ea541a;stroke-width:1.00000012px;stroke-linecap:butt;stroke-linejoin:miter;stroke-opacity:1"
         id="path3571"
         d="m 6,4 5,9" />
      <path
         style="fill:#e6e6e6;fill-opacity:1;stroke:#ea541a;stroke-width:1.00000012;stroke-linecap:butt;stroke-miterlimit:4;stroke-opacity:1;stroke-dasharray:none"
         id="path3573"
         d="M 6.4999997,3.5 C 6.5003717,4.0521763 6.0525468,4.4999999 5.5,4.4999999 4.9474531,4.4999999 4.4996283,4.0521763 4.5000003,3.5 4.4996283,2.9478236 4.9474531,2.5 5.5,2.5 c 0.5525468,0 1.0003717,0.4478236 0.9999997,1 l 0,0 z" />
      <path
         style="fill:#e6e6e6;fill-opacity:1;stroke:#ea541a;stroke-width:1.00000012;stroke-linecap:butt;stroke-miterlimit:4;stroke-opacity:1;stroke-dasharray:none"
         id="path3575"
         d="m 11.5,12.5 c 3.73e-4,0.552177 -0.447452,1 -1,1 -0.5525471,0 -1.0003717,-0.447823 -0.9999997,-1 -3.72e-4,-0.552175 0.4474526,-1 0.9999997,-1 0.552548,0 1.000373,0.447825 1,1 l 0,0 z" />
      <rect
         style="fill:#ea541a;fill-opacity:1;stroke:none"
         id="rect3569"
         y="7"
         x="7"
         height="2"
         width="2" />
    </g>
    <g
       transform="matrix(0.67439783,0,0,0.67439783,-11.17786,10.79546)"
       id="g3096">
      <path
         id="rect2383"
         d="m 25.797275,3.0303914 c 0.281002,-0.2316567 0.591046,0.1292086 1.192841,0.7179458 0.277997,0.3988725 0.580092,0.8037333 0.716721,1.270331 l 7.163476,-7.1783454 3.731564,-4.5015811 c 0.262476,-0.2723097 1.95037,-2.4745525 1.329469,-3.0819797 -0.620897,-0.607426 -2.984406,1.4042739 -3.246884,1.6765841 l -3.994931,3.6347246 -6.892256,7.4623207 z"
         style="fill:url(#linearGradient3102);fill-opacity:1;stroke:#0c0c0c;stroke-width:0.74140215;stroke-linecap:butt;stroke-linejoin:round;stroke-miterlimit:4;stroke-opacity:1;stroke-dasharray:none;stroke-dashoffset:0" />
      <path
         id="path3208"
         d="m 25.839785,2.9878794 c 0.281001,-0.2316562 0.548536,0.1717191 1.15033,0.7604552 0.600356,0.5873294 0.921281,0.8380693 0.702661,1.1290494 l 7.091093,-6.9473808 0.02575,-0.026715 c 8.23e-4,-0.00108 -0.01489,-0.012647 -0.01406,-0.013753 0.21862,-0.2909806 -0.0598,-0.9668107 -0.660151,-1.5541391 -0.601794,-0.5887361 -1.294419,-0.8645842 -1.575421,-0.632927 l -0.02575,0.026714 -6.69445,7.2586974 z"
         style="opacity:0.6;fill:#0c0c0c;fill-opacity:1;stroke:none" />
      <path
         style="fill:url(#linearGradient3105);fill-opacity:1;fill-rule:evenodd;stroke:url(#linearGradient3107);stroke-width:0.74140215;stroke-linecap:round;stroke-linejoin:round;stroke-miterlimit:4;stroke-opacity:1;stroke-dasharray:none"
         d="M 27.58033,5.1620888 C 27.798951,4.8711092 27.67982,4.1958215 27.079468,3.6084921 26.477674,3.019756 26.015148,2.9261244 25.734144,3.1577811 c -0.746396,1.4758587 -1.077983,1.3548044 -2.233302,3.8897675 0.04289,0.088658 0.12607,0.17363 0.251056,0.299065 L 27.58033,5.1620888 z"
         id="path3270" />
      <path
         id="path2786"
         d="m 33.039098,-4.8949819 c 0.281002,-0.2316568 0.973626,0.044191 1.575419,0.632928 0.600356,0.5873284 0.878773,1.263159 0.660153,1.5541386 -8.23e-4,0.00111 0.01491,0.012659 0.01406,0.013754 0.7717,-1.1627787 2.811012,-2.8978706 3.408571,-4.03501 0.21862,-0.2909812 1.735393,-2.2906308 1.135038,-2.8779591 -0.601794,-0.5887366 -2.677901,1.0206789 -2.958903,1.2523356 L 33.0391,-4.8949819 z"
         style="opacity:0.6;fill:#0c0c0c;fill-opacity:1;stroke:none" />
    </g>
  </g>
</svg>
