<?xml version="1.0" encoding="UTF-8" standalone="no"?>
<svg
   id="svg3928"
   height="16"
   width="16"
   version="1.1"
   sodipodi:docname="org.xfce.about.svg"
   inkscape:version="1.1.2 (0a00cf5339, 2022-02-04)"
   xmlns:inkscape="http://www.inkscape.org/namespaces/inkscape"
   xmlns:sodipodi="http://sodipodi.sourceforge.net/DTD/sodipodi-0.dtd"
   xmlns:xlink="http://www.w3.org/1999/xlink"
   xmlns="http://www.w3.org/2000/svg"
   xmlns:svg="http://www.w3.org/2000/svg"
   xmlns:rdf="http://www.w3.org/1999/02/22-rdf-syntax-ns#"
   xmlns:cc="http://creativecommons.org/ns#"
   xmlns:dc="http://purl.org/dc/elements/1.1/">
  <sodipodi:namedview
     id="namedview23"
     pagecolor="#ffffff"
     bordercolor="#666666"
     borderopacity="1.0"
     inkscape:pageshadow="2"
     inkscape:pageopacity="0.0"
     inkscape:pagecheckerboard="0"
     showgrid="false"
     inkscape:zoom="31.289475"
     inkscape:cx="6.9831788"
     inkscape:cy="7.4785531"
     inkscape:window-width="1317"
     inkscape:window-height="893"
     inkscape:window-x="509"
     inkscape:window-y="338"
     inkscape:window-maximized="0"
     inkscape:current-layer="svg3928" />
  <defs
     id="defs3930">
    <linearGradient
       id="linearGradient840">
      <stop
         id="stop836"
         offset="0"
         style="stop-color:#ffe16b;stop-opacity:1" />
      <stop
         id="stop838"
         offset="1"
         style="stop-color:#f9c440;stop-opacity:1" />
    </linearGradient>
    <linearGradient
       gradientTransform="matrix(0.55048262,0,0,0.57815823,-3.8262247,-5.2762276)"
       gradientUnits="userSpaceOnUse"
       xlink:href="#linearGradient3881"
       id="linearGradient3677"
       y2="34.713669"
       x2="24.046366"
       y1="11.673002"
       x1="24.046366" />
    <linearGradient
       id="linearGradient3881">
      <stop
         offset="0"
         style="stop-color:#ffffff;stop-opacity:1"
         id="stop3883" />
      <stop
         offset="0.33380178"
         style="stop-color:#ffffff;stop-opacity:0.23529412"
         id="stop3885" />
      <stop
         offset="0.67927718"
         style="stop-color:#ffffff;stop-opacity:0.15686275"
         id="stop3887" />
      <stop
         offset="1"
         style="stop-color:#ffffff;stop-opacity:0.39215687"
         id="stop3889" />
    </linearGradient>
    <linearGradient
       gradientTransform="matrix(0.4893617,0,0,0.4893617,1.7131795,22.728095)"
       gradientUnits="userSpaceOnUse"
       xlink:href="#linearGradient8265-821-176-38-919-66-249"
       id="linearGradient3674"
       y2="33.95525"
       x2="15.214532"
       y1="22.292103"
       x1="11.566265" />
    <linearGradient
       id="linearGradient8265-821-176-38-919-66-249">
      <stop
         offset="0"
         style="stop-color:#ffffff;stop-opacity:0.27450982"
         id="stop2687" />
      <stop
         offset="1"
         style="stop-color:#ffffff;stop-opacity:0"
         id="stop2689" />
    </linearGradient>
    <linearGradient
       gradientUnits="userSpaceOnUse"
       y2="15.977216"
       x2="8.000001"
       y1="0.49613568"
       x1="8.000001"
       id="linearGradient842"
       xlink:href="#linearGradient840" />
  </defs>
  <metadata
     id="metadata3933">
    <rdf:RDF>
      <cc:Work
         rdf:about="">
        <dc:format>image/svg+xml</dc:format>
        <dc:type
           rdf:resource="http://purl.org/dc/dcmitype/StillImage" />
      </cc:Work>
    </rdf:RDF>
  </metadata>
  <g
     id="layer1">
    <path
       style="fill:url(#linearGradient842);fill-opacity:1;fill-rule:nonzero;stroke:#ad5f00;stroke-width:0.99227136;stroke-linecap:butt;stroke-linejoin:round;stroke-miterlimit:4;stroke-opacity:0.49803922;stroke-dasharray:none;stroke-dashoffset:0;marker:none;visibility:visible;display:inline;overflow:visible"
       id="path1307"
       d="m 8.0000006,0.49613568 c 0.5064396,0 2.1391894,4.28357812 2.5489094,4.59622212 0.409717,0.3126432 4.793178,0.6198528 4.949676,1.125721 C 15.655085,6.7239468 12.28072,9.6785531 12.124222,10.18442 11.967724,10.690288 13.409718,15.163733 13,15.476376 12.590282,15.789021 8.5064402,13.33149 7.9999999,13.33149 7.4935604,13.33149 3.4097187,15.789021 3,15.476376 2.5902818,15.163733 4.0322763,10.690287 3.8757779,10.18442 3.7192794,9.6785531 0.34491544,6.7239461 0.50141397,6.218078 0.65791242,5.7122106 5.0413721,5.405001 5.4510908,5.0923578 5.8608088,4.7797138 7.4935611,0.49613568 8.0000006,0.49613568 z" />
    <path
       style="opacity:0.8;fill:url(#linearGradient3674);fill-opacity:1;fill-rule:nonzero;stroke:none;stroke-width:1;marker:none;visibility:visible;display:inline;overflow:visible;enable-background:accumulate"
       id="path3672"
       transform="matrix(0.71439082,0,0,0.70011588,-0.57240798,-16.954765)"
       d="m 11.96875,26.375 c -0.506596,0.779667 -1.63252,2.593568 -2.90625,5.59375 A 0.14192008,0.14192008 0 0 1 9.03125,32 0.14192008,0.14192008 0 0 1 9,32.03125 a 0.14192008,0.14192008 0 0 1 -0.03125,0 0.14192008,0.14192008 0 0 1 -0.03125,0.03125 0.14192008,0.14192008 0 0 1 -0.03125,-0.03125 0.14192008,0.14192008 0 0 1 -0.03125,0 A 0.14192008,0.14192008 0 0 1 8.84375,32 0.14192008,0.14192008 0 0 1 8.8125,31.96875 a 0.14192008,0.14192008 0 0 1 0,-0.03125 0.14192008,0.14192008 0 0 1 -0.03125,0 c 0.00461,-0.0064 -0.035912,0.0063 -0.03125,0 0.00522,-0.0059 -0.00527,0.03708 0,0.03125 0.00556,-0.0056 -0.036852,0.0055 -0.03125,0 0.00608,-0.005 -0.00612,0.03618 0,0.03125 0.00629,-0.0047 -0.037574,0.0047 -0.03125,0 0.00682,-0.0039 -0.038107,0.0038 -0.03125,0 0.00692,-0.0037 -0.00695,0.03492 0,0.03125 0.00726,-0.003 -0.038533,0.003 -0.03125,0 a 0.14192008,0.14192008 0 0 1 0,0.03125 0.14192008,0.14192008 0 0 1 0.03125,0 0.14192008,0.14192008 0 0 1 0.03125,0.03125 0.14192008,0.14192008 0 0 1 0.03125,0.03125 0.14192008,0.14192008 0 0 1 0,0.03125 0.14192008,0.14192008 0 0 1 0,0.03125 0.14192008,0.14192008 0 0 1 0,0.03125 0.14192008,0.14192008 0 0 1 0,0.03125 0.14192008,0.14192008 0 0 1 -0.03125,0.03125 0.14192008,0.14192008 0 0 1 -0.03125,0.03125 0.14192008,0.14192008 0 0 1 -0.03125,0 C 6.5674679,32.648003 4.0200464,32.991828 2.28125,33.40625 3.3338095,34.641661 4.546242,35.810257 5.71875,37 L 20.75,34.28125 c 0.0052,-0.0052 0.02606,0.0052 0.03125,0 0.28516,-0.285558 0.552815,-0.584263 0.84375,-0.875 -1.985656,-0.473093 -4.21957,-0.75757 -6.28125,-1.09375 a 0.14192008,0.14192008 0 0 1 -0.03125,0 A 0.14192008,0.14192008 0 0 1 15.28125,32.28125 0.14192008,0.14192008 0 0 1 15.25,32.25 a 0.14192008,0.14192008 0 0 1 0,-0.03125 0.14192008,0.14192008 0 0 1 0,-0.03125 0.14192008,0.14192008 0 0 1 0,-0.03125 0.14192008,0.14192008 0 0 1 0,-0.03125 0.14192008,0.14192008 0 0 1 0.03125,-0.03125 0.14192008,0.14192008 0 0 1 0.03125,-0.03125 0.14192008,0.14192008 0 0 1 0.03125,0 0.14192008,0.14192008 0 0 1 0,-0.03125 c 0.0075,0.0027 -0.0387,-0.0027 -0.03125,0 0.0071,0.0035 -0.03835,-0.0035 -0.03125,0 0.007,0.0037 -0.007,-0.03496 0,-0.03125 0.0066,0.0044 -0.03785,-0.0044 -0.03125,0 0.0062,0.0049 -0.0062,-0.03622 0,-0.03125 0.006,0.0052 -0.03724,-0.0052 -0.03125,0 0.0054,0.0058 -0.0053,-0.03713 0,-0.03125 0.0052,0.006 -0.03638,-0.006 -0.03125,0 0.0045,0.0065 -0.0045,-0.0378 0,-0.03125 0.004,0.0069 -0.0352,-0.0069 -0.03125,0 0.0037,0.007 -0.0037,-0.03828 0,-0.03125 l -0.125,0.0625 -0.125,0.0625 c -0.985076,-2.286983 -2.388794,-4.698127 -2.9375,-5.625 z" />
    <path
       style="opacity:0.8;fill:none;stroke:url(#linearGradient3677);stroke-width:0.992;stroke-linecap:square;stroke-linejoin:miter;stroke-miterlimit:4;stroke-opacity:1;stroke-dasharray:none;stroke-dashoffset:0;marker:none;visibility:visible;display:inline;overflow:visible"
       id="path2894"
       d="M 8,2.3125003 C 7.4204974,3.4092238 6.9588891,4.5689462 6.3425158,5.6446934 5.906923,6.2233231 5.14082,6.208774 4.4979816,6.3453057 3.6988865,6.4940441 2.8938979,6.607737 2.09375,6.7500003 c 0.8321477,1.0057613 1.9042251,1.803058 2.6553809,2.8730975 0.2931609,0.5612752 0.086735,1.1940262 0.048954,1.7875722 -0.1300362,0.873671 -0.7822554,2.011403 -0.8721349,2.890749 1.1003565,-0.559851 2.6237664,-1.531888 3.7910708,-1.94011 0.6246409,-0.12796 1.1682081,0.254232 1.7115393,0.49593 0.7264099,0.38268 1.7399469,0.939694 2.4653779,1.324105 -0.123973,-1.302273 -0.773372,-2.733611 -0.799425,-4.042542 0.09173,-0.7298892 0.734153,-1.1887208 1.185876,-1.7078873 C 12.836872,7.884812 13.396785,7.3411772 13.90625,6.7500003 12.695236,6.5344179 11.470554,6.3762266 10.271483,6.1040109 9.5203883,5.8103558 9.33382,4.9605762 8.9786043,4.3239545 8.6518684,3.653685 8.3459188,2.9733088 8,2.3125003 z" />
  </g>
  <path
     id="path1881"
     d="m 5.5167341,10.735097 c -0.00817,-0.02334 0.011923,-0.131875 0.044651,-0.241183 0.064711,-0.21612 0.074836,-0.296387 0.040262,-0.319207 -0.012293,-0.0081 -0.087351,0.0078 -0.1667984,0.03538 -0.1657251,0.05752 -0.217424,0.04675 -0.2147397,-0.04471 C 5.222079,10.098227 5.283,10.009681 5.428718,9.862161 L 5.514023,9.775801 5.526826,9.3520594 C 5.538223,8.9748 5.547373,8.9078146 5.610226,8.7413992 5.649055,8.6385941 5.7168593,8.4995232 5.760903,8.4323528 5.804947,8.3651828 5.841343,8.2979368 5.841784,8.2829176 5.8422106,8.2679086 5.757006,8.1693227 5.6524101,8.0638502 5.3124341,7.7210295 4.7624906,7.3500676 4.1352442,7.0404543 3.7282573,6.8395626 3.4457405,6.6796941 3.4205045,6.6360021 c -0.02548,-0.044114 0.03175,-0.025461 0.245376,0.079973 0.1151557,0.056835 0.4026699,0.173509 0.6389203,0.2592754 0.6323957,0.2295792 0.9609098,0.4243648 1.4453196,0.856972 0.1361107,0.1215557 0.2607208,0.2297525 0.2769104,0.2404381 0.016192,0.010685 0.1078827,-0.017296 0.2037619,-0.062184 0.2198032,-0.1029024 0.3163045,-0.099539 1.0102536,0.035211 0.3571472,0.06935 0.581133,0.099179 0.7380541,0.098292 L 8.2043948,8.1426994 8.326666,7.9350956 C 8.4391172,7.7441636 8.4469604,7.7194567 8.424322,7.6274759 8.365853,7.3899127 8.4237087,7.1213047 8.5464924,7.0600925 c 0.1393123,-0.069442 0.2349582,0.013667 0.402507,0.3497498 0.061248,0.1228555 0.1262226,0.2184805 0.148905,0.2191475 0.047643,0.00141 0.04718,-0.027533 -0.00388,-0.2424811 -0.05283,-0.222408 -0.022024,-0.4061168 0.085045,-0.5071743 0.066182,-0.062466 0.094646,-0.072102 0.1659048,-0.056164 0.1657824,0.037078 0.2346291,0.1961935 0.2588952,0.5983431 0.00697,0.1155037 0.023557,0.2171909 0.03686,0.2259717 0.013301,0.00878 0.1656026,0.049041 0.3384406,0.089467 0.859696,0.201077 1.206564,0.4328709 1.195817,0.7991016 -0.0024,0.082671 -0.02515,0.1164208 -0.155383,0.2307861 -0.152866,0.13424 -0.521067,0.3420421 -0.993452,0.5606749 -0.3572581,0.1653485 -0.3710432,0.2400312 -0.10444,0.5658192 0.15741,0.192355 0.202294,0.286414 0.16424,0.344183 -0.02504,0.03801 -0.122561,0.02191 -0.4212672,-0.0695 -0.3032834,-0.09282 -0.3347133,-0.06918 -0.1788167,0.134472 0.2019026,0.263754 0.2397199,0.410173 0.1151312,0.445758 -0.060271,0.01722 -0.2823963,-0.06442 -0.6949371,-0.255405 l -0.3057518,-0.141554 -0.1629133,0.02715 c -0.089602,0.01493 -0.4549053,0.02454 -0.8117845,0.02135 -0.6203133,-0.0055 -0.6645296,-0.0094 -1.0046557,-0.08718 -0.3420507,-0.07825 -0.3581883,-0.07962 -0.4180584,-0.03552 -0.03425,0.02523 -0.1915053,0.148264 -0.3494544,0.273418 -0.1579496,0.125153 -0.2949818,0.227433 -0.3045168,0.227289 -0.00953,-1.25e-4 -0.024024,-0.01936 -0.032193,-0.0427 z M 10.195203,9.0058433 c 0.06954,-0.06984 0.05384,-0.1582795 -0.02133,-0.1201277 -0.08645,0.043878 -0.235548,0.2070021 -0.217602,0.2380709 0.02057,0.035619 0.149297,-0.027924 0.238932,-0.1179432 z M 10.008362,8.826906 C 10.082442,8.797557 10.14354,8.756829 10.14414,8.736401 10.14564,8.685838 10.11164,8.688566 9.969484,8.750417 9.7195014,8.8591852 9.754265,8.9275783 10.008364,8.826906 Z M 9.7496296,8.3927807 C 9.75003,8.3791247 9.7143586,8.3589167 9.6703576,8.3478777 9.6263566,8.3368407 9.5681033,8.2977117 9.5409065,8.2609287 9.4512425,8.1396641 9.4288134,8.1826627 9.5086325,8.3228007 c 0.041826,0.073435 0.067607,0.089736 0.1455495,0.092027 0.052096,0.00155 0.095047,-0.00839 0.095448,-0.022048 z M 9.860339,8.1189145 C 9.874389,7.9942711 9.804949,7.9392364 9.7113568,8.0008361 c -0.1126421,0.074137 -0.062269,0.2346918 0.07001,0.2231478 0.05684,-0.00496 0.0696,-0.021939 0.07897,-0.1050694 z m 1.119508,-0.2657677 c 0.001,-0.063048 0.163117,-0.3792189 0.215319,-0.4200552 0.08065,-0.063091 0.07184,0.00336 -0.02318,0.1747533 -0.123405,0.2225952 -0.193244,0.3117579 -0.192139,0.2453019 z M 10.79477,7.7180364 c 0.0034,-0.097623 0.03464,-0.1866261 0.06518,-0.185728 0.01631,4.533e-4 0.01837,0.040181 0.0053,0.1014019 -0.02613,0.1220701 -0.07375,0.1790728 -0.07044,0.084326 z M 3.250012,6.525569 C 3.2509986,6.491002 3.270108,6.491563 3.290437,6.526769 3.299167,6.541873 3.293467,6.553858 3.27776,6.553396 3.262064,6.5529427 3.249577,6.540417 3.250011,6.525583 Z"
     style="fill:#ad5f00;fill-opacity:0.7;stroke:none;stroke-width:0.999995" />
</svg>
