<?xml version="1.0" encoding="UTF-8" standalone="no"?>
<!-- Created with Inkscape (http://www.inkscape.org/) -->

<svg
   xmlns:dc="http://purl.org/dc/elements/1.1/"
   xmlns:cc="http://creativecommons.org/ns#"
   xmlns:rdf="http://www.w3.org/1999/02/22-rdf-syntax-ns#"
   xmlns:svg="http://www.w3.org/2000/svg"
   xmlns="http://www.w3.org/2000/svg"
   xmlns:xlink="http://www.w3.org/1999/xlink"
   xmlns:sodipodi="http://sodipodi.sourceforge.net/DTD/sodipodi-0.dtd"
   xmlns:inkscape="http://www.inkscape.org/namespaces/inkscape"
   version="1.0"
   width="16"
   height="16"
   id="svg3239"
   inkscape:version="0.48.3.1 r9886"
   sodipodi:docname="pithos.svg">
  <metadata
     id="metadata13">
    <rdf:RDF>
      <cc:Work
         rdf:about="">
        <dc:format>image/svg+xml</dc:format>
        <dc:type
           rdf:resource="http://purl.org/dc/dcmitype/StillImage" />
        <dc:title />
      </cc:Work>
    </rdf:RDF>
  </metadata>
  <sodipodi:namedview
     pagecolor="#ffffff"
     bordercolor="#666666"
     borderopacity="1"
     objecttolerance="10"
     gridtolerance="10"
     guidetolerance="10"
     inkscape:pageopacity="0"
     inkscape:pageshadow="2"
     inkscape:window-width="1440"
     inkscape:window-height="851"
     id="namedview11"
     showgrid="true"
     inkscape:zoom="32"
     inkscape:cx="6.2410639"
     inkscape:cy="9.637125"
     inkscape:window-x="0"
     inkscape:window-y="25"
     inkscape:window-maximized="1"
     inkscape:current-layer="g3005"
     inkscape:snap-global="true">
    <inkscape:grid
       type="xygrid"
       id="grid3189" />
  </sodipodi:namedview>
  <defs
     id="defs3241">
    <linearGradient
       id="linearGradient3587-6-5">
      <stop
         id="stop3589-9-2"
         style="stop-color:#000000;stop-opacity:1"
         offset="0" />
      <stop
         id="stop3591-7-4"
         style="stop-color:#363636;stop-opacity:1"
         offset="1" />
    </linearGradient>
    <linearGradient
       inkscape:collect="always"
       xlink:href="#linearGradient3587-6-5"
       id="linearGradient2993"
       gradientUnits="userSpaceOnUse"
       gradientTransform="matrix(0.87499997,0,0,0.99999996,-20.316099,-3.5613048)"
       x1="32.361256"
       y1="4.561305"
       x2="32.361256"
       y2="18.561304" />
  </defs>
  <g
     id="g3005">
    <g
       id="g3002">
      <rect
         y="2"
         x="3"
         height="12"
         width="10"
         id="rect2999"
         style="fill:#ffffff" />
      <path
         d="M 3,1 C 2.0305,1 1.0000001,1.8919999 1.0000001,2.9999999 l 0,10.0000001 c 0,1.107998 1.0304999,1.999999 1.9999999,1.999999 l 10,0 c 0.9695,0 2,-0.892001 2,-1.999999 L 15,2.9999999 C 15,1.8919999 13.9695,1 13,1 L 3,1 z m 3.8749999,1.9999999 c 2.7400359,0 3.3930591,0.1250926 4.1875001,0.75 0.93473,0.73526 1.217011,2.0453017 0.71875,3.3437499 -0.331356,0.8634989 -2.0563483,1.625 -3.6875002,1.625 l -1.4374999,0 0,1.5937492 c 0,1.23379 0.164117,1.692744 0.7812499,2.125001 0.752795,0.527278 0.683018,0.5625 -1.5,0.5625 -2.1830183,0 -2.2527948,-0.03522 -1.4999999,-0.5625 0.736874,-0.516126 0.78125,-0.828041 0.78125,-4.4375003 0,-3.6094612 -0.044375,-3.9213733 -0.78125,-4.4374998 -0.7425929,-0.5201327 -0.5989034,-0.5625 2.4375,-0.5625 z m -0.25,0.9375 c -0.02247,1.3895794 -0.0093,2.766647 0,4.1562499 l 1.3124999,-0.21875 c 0.729569,-0.1183921 1.443524,-0.314452 1.5937499,-0.46875 0.150229,-0.154304 0.3792451,-0.6969037 0.5000003,-1.1875 C 10.34271,4.9533832 9.5404838,4.0413564 8.0624998,3.9687499 l -1.4374999,-0.03125 z"
         style="opacity:0.7;fill:url(#linearGradient2993);fill-opacity:1;fill-rule:nonzero;stroke:none;stroke-width:1;marker:none;visibility:visible;display:inline;overflow:visible;enable-background:accumulate"
         id="rect2386" />
    </g>
  </g>
</svg>
