<?xml version="1.0" encoding="UTF-8" standalone="no"?>
<svg
   version="1.1"
   width="16"
   height="16"
   id="svg4372"
   xml:space="preserve"
   sodipodi:docname="preferences-desktop-font.svg"
   inkscape:version="1.2.2 (b0a8486541, 2022-12-01)"
   xmlns:inkscape="http://www.inkscape.org/namespaces/inkscape"
   xmlns:sodipodi="http://sodipodi.sourceforge.net/DTD/sodipodi-0.dtd"
   xmlns:xlink="http://www.w3.org/1999/xlink"
   xmlns="http://www.w3.org/2000/svg"
   xmlns:svg="http://www.w3.org/2000/svg"
   xmlns:rdf="http://www.w3.org/1999/02/22-rdf-syntax-ns#"
   xmlns:cc="http://creativecommons.org/ns#"
   xmlns:dc="http://purl.org/dc/elements/1.1/"><sodipodi:namedview
     id="namedview66"
     pagecolor="#ffffff"
     bordercolor="#000000"
     borderopacity="0.25"
     inkscape:showpageshadow="2"
     inkscape:pageopacity="0.0"
     inkscape:pagecheckerboard="0"
     inkscape:deskcolor="#d1d1d1"
     showgrid="false"
     inkscape:zoom="50.25"
     inkscape:cx="7.1243781"
     inkscape:cy="8.0099502"
     inkscape:window-width="1920"
     inkscape:window-height="1020"
     inkscape:window-x="0"
     inkscape:window-y="0"
     inkscape:window-maximized="1"
     inkscape:current-layer="svg4372" /><defs
     id="defs4374"><linearGradient
       x1="23.99999"
       y1="7.5572624"
       x2="23.99999"
       y2="40.752987"
       id="linearGradient3304"
       xlink:href="#linearGradient3924-4-8"
       gradientUnits="userSpaceOnUse"
       gradientTransform="matrix(0.2972973,0,0,0.2972973,0.86486906,0.8648672)" /><linearGradient
       id="linearGradient3924-4-8"><stop
         id="stop3926-0-4"
         style="stop-color:#ffffff;stop-opacity:1"
         offset="0" /><stop
         id="stop3928-6-8"
         style="stop-color:#ffffff;stop-opacity:0.23529412"
         offset="0.06316455" /><stop
         id="stop3930-2-1"
         style="stop-color:#ffffff;stop-opacity:0.15686275"
         offset="0.95056331" /><stop
         id="stop3932-9-0"
         style="stop-color:#ffffff;stop-opacity:0.39215687"
         offset="1" /></linearGradient><linearGradient
       id="linearGradient3600-9-51"><stop
         offset="0"
         style="stop-color:#f4f4f4;stop-opacity:1"
         id="stop3602-0-0" /><stop
         offset="1"
         style="stop-color:#dbdbdb;stop-opacity:1"
         id="stop3604-9-04" /></linearGradient><linearGradient
       id="linearGradient3104-6"><stop
         offset="0"
         style="stop-color:#000000;stop-opacity:0.31782946"
         id="stop3106-3" /><stop
         offset="1"
         style="stop-color:#000000;stop-opacity:0.24031007"
         id="stop3108-9" /></linearGradient><linearGradient
       xlink:href="#linearGradient3104-6"
       id="linearGradient2140"
       gradientUnits="userSpaceOnUse"
       gradientTransform="matrix(0.80749686,0,0,0.89471714,-36.453698,-22.660761)"
       x1="56.408016"
       y1="42.392338"
       x2="56.408016"
       y2="26.595999" /><linearGradient
       xlink:href="#linearGradient3600-9-51"
       id="linearGradient2184"
       gradientUnits="userSpaceOnUse"
       gradientTransform="matrix(0.3067662,0,0,0.29504822,-14.701832,0.57521328)"
       x1="74.838791"
       y1="4.535933"
       x2="74.838791"
       y2="49.779099" /><linearGradient
       gradientTransform="matrix(0.26398086,0,0,0.26010927,11.766914,0.7076502)"
       gradientUnits="userSpaceOnUse"
       y2="39.569332"
       x2="-17.375"
       y1="-2.720588"
       x1="-17.375"
       id="linearGradient1063"
       xlink:href="#linearGradient1061" /><linearGradient
       id="linearGradient1061"><stop
         id="stop1057"
         offset="0"
         style="stop-color:#4d4d4d;stop-opacity:1" /><stop
         id="stop1059"
         offset="1"
         style="stop-color:#333333;stop-opacity:1" /></linearGradient><linearGradient
       gradientTransform="matrix(0.26248216,0,0,0.26248216,-0.25251211,-0.29926013)"
       gradientUnits="userSpaceOnUse"
       y2="44.5"
       x2="44"
       y1="0"
       x1="44"
       id="linearGradient1071"
       xlink:href="#linearGradient1069" /><linearGradient
       id="linearGradient1069"><stop
         id="stop1065"
         offset="0"
         style="stop-color:#ed5353;stop-opacity:1" /><stop
         id="stop1067"
         offset="1"
         style="stop-color:#c6262e;stop-opacity:1" /></linearGradient></defs><metadata
     id="metadata4377"><rdf:RDF><cc:Work
         rdf:about=""><dc:format>image/svg+xml</dc:format><dc:type
           rdf:resource="http://purl.org/dc/dcmitype/StillImage" /></cc:Work></rdf:RDF></metadata><rect
     style="color:#000000;font-variation-settings:normal;display:inline;overflow:visible;visibility:visible;vector-effect:none;fill:url(#linearGradient2184);fill-opacity:1;fill-rule:nonzero;stroke:none;stroke-width:1;stroke-linecap:butt;stroke-linejoin:miter;stroke-miterlimit:4;stroke-dasharray:none;stroke-dashoffset:0;stroke-opacity:1;-inkscape-stroke:none;marker:none;enable-background:accumulate;stop-color:#000000"
     id="rect5505-21-1-7-2-9-5"
     y="2.000001"
     x="2"
     ry="1.5"
     rx="1.5"
     height="12"
     width="12" /><rect
     width="11"
     height="11"
     x="2.5"
     y="2.4999969"
     id="rect6741-0-3-5"
     style="opacity:1;fill:none;stroke:url(#linearGradient3304);stroke-width:1;stroke-linecap:round;stroke-linejoin:round;stroke-miterlimit:4;stroke-dasharray:none;stroke-dashoffset:0;stroke-opacity:1"
     rx="1"
     ry="1" /><rect
     width="13.000003"
     height="13.000003"
     rx="2"
     ry="2"
     x="1.5"
     y="1.499997"
     id="rect5505-21-2-8"
     style="color:#000000;display:inline;overflow:visible;visibility:visible;opacity:1;fill:none;stroke:url(#linearGradient2140);stroke-width:0.999922;stroke-linecap:butt;stroke-linejoin:round;stroke-miterlimit:4;stroke-dasharray:none;stroke-dashoffset:0;stroke-opacity:1;marker:none;enable-background:accumulate;font-variation-settings:normal;vector-effect:none;fill-opacity:1;-inkscape-stroke:none;stop-color:#000000;stop-opacity:1" /><path
     id="text942"
     d="M 10.387244,5.9490459 C 9.8130635,5.9490456 9.3226184,6.1455654 8.9159078,6.5386052 8.5091969,6.9316449 8.1964742,7.4289255 7.9777392,8.0304472 7.8786248,8.3038662 7.8051434,8.578994 7.757295,8.8558306 7.7094471,9.12925 7.6855231,9.404377 7.6855231,9.681215 c 0,0.273419 0.039303,0.517786 0.1179117,0.733104 0.2187353,0.598103 0.6391168,0.897156 1.2611449,0.897156 0.6220279,0 1.1500673,-0.324685 1.5841203,-0.974056 0.04101,0.311015 0.150381,0.551965 0.328103,0.722852 0.177722,0.167469 0.405002,0.251204 0.681839,0.251204 0.280253,0 0.510951,-0.09912 0.69209,-0.297343 0.102533,-0.116203 0.22728,-0.370825 0.374243,-0.763865 -0.06152,0.03076 -0.138419,0.04614 -0.230698,0.04614 -0.287089,0 -0.430634,-0.119621 -0.430634,-0.358862 0,-0.126457 0.01538,-0.249495 0.04614,-0.369116 l 0.753611,-3.5681173 h -1.512348 l -0.112785,0.5587999 v -0.076898 c 0,-0.1537983 -0.06665,-0.2802546 -0.199937,-0.3793689 -0.133293,-0.102533 -0.35032,-0.1537988 -0.65108,-0.1537988 z m 0.281963,0.6510785 c 0.194811,0 0.321267,0.051266 0.379369,0.1537983 0.06152,0.099114 0.09228,0.18114 0.09228,0.246077 L 10.638449,9.368491 c -0.06494,0.28709 -0.182849,0.51437 -0.353736,0.681839 -0.170886,0.164051 -0.3605711,0.246077 -0.5690531,0.246077 -0.1127851,0 -0.206773,-0.03759 -0.2819631,-0.112786 -0.129874,-0.123039 -0.1948111,-0.340064 -0.1948111,-0.651079 0,-0.160633 0.00854,-0.312723 0.025633,-0.456268 C 9.3773067,8.1363971 9.6558522,7.4152546 10.100158,6.9128473 10.284716,6.7043656 10.474401,6.6001244 10.66921,6.6001244 Z"
     style="font-style:normal;font-weight:normal;font-size:40px;line-height:1.25;font-family:sans-serif;letter-spacing:0px;word-spacing:0px;fill:url(#linearGradient1071);fill-opacity:1;stroke:none;stroke-width:1" /><path
     id="text68"
     d="M 5.8222656,4 3.3027344,11 H 4.9335938 L 5.6111719,9 h 2.2472768 l 0.7118638,2 H 10.201172 L 7.671875,4 Z M 6.7539062,5.0820312 7.6914062,8 h -1.859375 z"
     style="font-style:normal;font-variant:normal;font-weight:bold;font-stretch:normal;font-size:9.88214px;line-height:1.25;font-family:'Open Sans';-inkscape-font-specification:'Open Sans Bold';letter-spacing:0px;word-spacing:0px;vector-effect:none;fill:url(#linearGradient1063);fill-opacity:1;stroke:none;stroke-width:1;stroke-linecap:butt;stroke-linejoin:miter;stroke-miterlimit:4;stroke-dasharray:none;stroke-dashoffset:0;stroke-opacity:1" /></svg>
