<?xml version="1.0" encoding="UTF-8" standalone="no"?>
<svg
   width="16"
   height="16"
   id="svg2"
   version="1.0"
   sodipodi:docname="software-properties.svg"
   inkscape:version="1.2.2 (b0a8486541, 2022-12-01)"
   xmlns:inkscape="http://www.inkscape.org/namespaces/inkscape"
   xmlns:sodipodi="http://sodipodi.sourceforge.net/DTD/sodipodi-0.dtd"
   xmlns:xlink="http://www.w3.org/1999/xlink"
   xmlns="http://www.w3.org/2000/svg"
   xmlns:svg="http://www.w3.org/2000/svg"
   xmlns:rdf="http://www.w3.org/1999/02/22-rdf-syntax-ns#"
   xmlns:cc="http://creativecommons.org/ns#"
   xmlns:dc="http://purl.org/dc/elements/1.1/">
  <sodipodi:namedview
     id="namedview61"
     pagecolor="#ffffff"
     bordercolor="#666666"
     borderopacity="1.0"
     inkscape:pageshadow="2"
     inkscape:pageopacity="0.0"
     inkscape:pagecheckerboard="0"
     showgrid="false"
     inkscape:zoom="30.140427"
     inkscape:cx="7.0669205"
     inkscape:cy="17.584356"
     inkscape:window-width="1317"
     inkscape:window-height="893"
     inkscape:window-x="412"
     inkscape:window-y="134"
     inkscape:window-maximized="0"
     inkscape:current-layer="layer1-3"
     inkscape:showpageshadow="2"
     inkscape:deskcolor="#d1d1d1" />
  <defs
     id="defs4">
    <linearGradient
       id="g">
      <stop
         offset="0"
         id="stop13" />
      <stop
         offset="1"
         stop-opacity="0"
         id="stop15" />
    </linearGradient>
    <linearGradient
       xlink:href="#linearGradient121303"
       id="linearGradient121764"
       gradientUnits="userSpaceOnUse"
       gradientTransform="matrix(0.30606746,0,0,0.25986915,0.65850526,10.987071)"
       x1="25.086039"
       y1="0.049753502"
       x2="25.086039"
       y2="18.299334" />
    <linearGradient
       id="linearGradient121303">
      <stop
         id="stop121295"
         style="stop-color:#ffffff;stop-opacity:1"
         offset="0" />
      <stop
         id="stop121297"
         style="stop-color:#ffffff;stop-opacity:0.23529412"
         offset="0" />
      <stop
         id="stop121299"
         style="stop-color:#ffffff;stop-opacity:0.15686275"
         offset="0.93896598" />
      <stop
         id="stop121301"
         style="stop-color:#ffffff;stop-opacity:0.39215687"
         offset="1" />
    </linearGradient>
    <linearGradient
       xlink:href="#c"
       id="linearGradient121762"
       gradientUnits="userSpaceOnUse"
       gradientTransform="matrix(0.49691652,0,0,0.49380475,-3.9199061,4.1363249)"
       x1="24.537001"
       y1="21.915001"
       x2="24.537001"
       y2="7.9130001" />
    <linearGradient
       id="c">
      <stop
         offset="0"
         stop-color="#fff"
         id="stop36" />
      <stop
         offset="0.28147671"
         stop-color="#fff"
         id="stop38" />
      <stop
         offset="0.42782003"
         stop-color="#fff"
         stop-opacity=".643"
         id="stop40" />
      <stop
         offset="1"
         stop-color="#fff"
         stop-opacity=".391"
         id="stop42" />
    </linearGradient>
    <linearGradient
       xlink:href="#linearGradient3924-2-2-5-8"
       id="linearGradient121760"
       gradientUnits="userSpaceOnUse"
       gradientTransform="matrix(0.29729766,0,0,0.24324357,0.86485512,11.162154)"
       x1="23.99999"
       y1="7.5555792"
       x2="23.99999"
       y2="40.444424" />
    <linearGradient
       id="linearGradient3924-2-2-5-8">
      <stop
         id="stop3926-9-4-9-6"
         style="stop-color:#ffffff;stop-opacity:1"
         offset="0" />
      <stop
         id="stop3928-9-8-6-5"
         style="stop-color:#ffffff;stop-opacity:0.23529412"
         offset="0" />
      <stop
         id="stop3930-3-5-1-7"
         style="stop-color:#ffffff;stop-opacity:0.15686275"
         offset="1" />
      <stop
         id="stop3932-8-0-4-8"
         style="stop-color:#ffffff;stop-opacity:0.39215687"
         offset="1" />
    </linearGradient>
    <linearGradient
       xlink:href="#linearGradient106305"
       id="linearGradient121756"
       gradientUnits="userSpaceOnUse"
       gradientTransform="matrix(0.40654575,0,0,0.42658187,13.595314,3.8136258)"
       x1="-5.8870335"
       y1="19.190628"
       x2="-5.8870335"
       y2="42.632786" />
    <linearGradient
       id="linearGradient106305">
      <stop
         offset="0"
         stop-color="#dac197"
         id="stop106301"
         style="stop-color:#e7c591;stop-opacity:1" />
      <stop
         offset="1"
         stop-color="#b19974"
         id="stop106303"
         style="stop-color:#cfa25e;stop-opacity:1" />
    </linearGradient>
    <linearGradient
       xlink:href="#linearGradient106305"
       id="linearGradient1703"
       gradientUnits="userSpaceOnUse"
       gradientTransform="matrix(0.40654575,0,0,0.43692415,13.600113,3.3606092)"
       x1="-5.8870335"
       y1="11.482978"
       x2="-5.8870335"
       y2="22.148865" />
    <radialGradient
       cx="5"
       cy="41.5"
       fx="5"
       fy="41.5"
       gradientTransform="matrix(0.27196938,0,0,0.6,-5.2159268,-73.9)"
       gradientUnits="userSpaceOnUse"
       xlink:href="#g"
       id="i-6-9-7-8-9"
       r="5" />
    <linearGradient
       xlink:href="#h"
       id="linearGradient121754"
       gradientUnits="userSpaceOnUse"
       gradientTransform="matrix(0.5777446,0,0,0.54545625,-3.0769464,26.90875)"
       x1="17.554001"
       y1="46"
       x2="17.554001"
       y2="35" />
    <linearGradient
       id="h">
      <stop
         offset="0"
         stop-opacity="0"
         id="stop54" />
      <stop
         offset=".5"
         id="stop56" />
      <stop
         offset="1"
         stop-opacity="0"
         id="stop58" />
    </linearGradient>
    <radialGradient
       cx="5"
       cy="41.5"
       fx="5"
       fy="41.5"
       gradientTransform="matrix(0.27196938,0,0,0.6,15.78458,-73.9)"
       gradientUnits="userSpaceOnUse"
       xlink:href="#g"
       id="k-0-7-3-9-3"
       r="5" />
    <linearGradient
       inkscape:collect="always"
       xlink:href="#linearGradient914"
       id="linearGradient979"
       x1="5.2689443"
       y1="3.4043436"
       x2="5.2689443"
       y2="16.224289"
       gradientUnits="userSpaceOnUse"
       gradientTransform="translate(0.09049776,0.08140326)" />
    <linearGradient
       inkscape:collect="always"
       id="linearGradient914">
      <stop
         style="stop-color:#8cd5ff;stop-opacity:1"
         offset="0"
         id="stop910" />
      <stop
         style="stop-color:#3689e6;stop-opacity:1"
         offset="1"
         id="stop912" />
    </linearGradient>
    <linearGradient
       y2="5.4675598"
       x2="63.397362"
       y1="-12.489107"
       x1="63.397362"
       gradientTransform="matrix(0.68606728,0,0,0.68605159,-34.583161,10.490019)"
       gradientUnits="userSpaceOnUse"
       id="linearGradient3029"
       xlink:href="#linearGradient4873" />
    <linearGradient
       id="linearGradient4873">
      <stop
         id="stop4875"
         style="stop-color:#ffffff;stop-opacity:1"
         offset="0" />
      <stop
         id="stop4877"
         style="stop-color:#ffffff;stop-opacity:0"
         offset="1" />
    </linearGradient>
  </defs>
  <metadata
     id="metadata7">
    <rdf:RDF>
      <cc:Work
         rdf:about="">
        <dc:format>image/svg+xml</dc:format>
        <dc:type
           rdf:resource="http://purl.org/dc/dcmitype/StillImage" />
      </cc:Work>
    </rdf:RDF>
  </metadata>
  <g
     id="layer1"
     transform="translate(0,-8)">
    <g
       id="g2827"
       transform="translate(-2.5,-28)">
      <rect
         fill="url(#i)"
         height="6"
         opacity="0.4"
         transform="scale(-1)"
         width="1.3559322"
         x="-3.8559322"
         y="-52"
         id="rect77-9-90-2-7-8"
         style="fill:url(#i-6-9-7-8-9);stroke-width:0.999999;opacity:0.3" />
      <rect
         fill="url(#j)"
         height="6"
         opacity="0.4"
         width="13.288136"
         x="3.8559322"
         y="46"
         id="rect79-7-2-0-1-4"
         style="fill:url(#linearGradient121754);stroke-width:0.999995;opacity:0.3" />
      <rect
         fill="url(#k)"
         height="6"
         opacity="0.4"
         transform="scale(1,-1)"
         width="1.3559322"
         x="17.144068"
         y="-52"
         id="rect81-3-8-6-7-8"
         style="fill:url(#k-0-7-3-9-3);stroke-width:0.999999;opacity:0.3" />
    </g>
    <path
       id="rect5505-21-1-5-0-6-5-1-2-5-10"
       style="color:#000000;font-variation-settings:normal;display:inline;overflow:visible;visibility:visible;vector-effect:none;fill:url(#linearGradient1703);fill-opacity:1;fill-rule:nonzero;stroke:none;stroke-width:0.999996;stroke-linecap:butt;stroke-linejoin:miter;stroke-miterlimit:4;stroke-dasharray:none;stroke-dashoffset:0;stroke-opacity:0.3;-inkscape-stroke:none;marker:none;enable-background:accumulate;stop-color:#000000"
       d="m 3.8636361,9.499998 c -0.7856733,0 -1.0990917,0.4638626 -1.4181828,1.181821 -0.2445846,0.548866 -0.5291595,1.116756 -0.7552557,1.65455 -0.1202477,0.208506 -0.1901996,0.450154 -0.1901996,0.709093 h 13.000009 c 0,-0.258939 -0.06996,-0.500587 -0.1902,-0.709093 -0.232224,-0.535071 -0.503832,-1.108761 -0.755256,-1.65455 C 13.225793,9.9682349 12.922041,9.499998 12.13637,9.499998 Z" />
    <path
       id="rect5505-21-1-5-0-6-5-1-2-3"
       style="color:#000000;font-variation-settings:normal;display:inline;overflow:visible;visibility:visible;vector-effect:none;fill:url(#linearGradient121756);fill-opacity:1;fill-rule:nonzero;stroke:none;stroke-width:1;stroke-linecap:butt;stroke-linejoin:miter;stroke-miterlimit:4;stroke-dasharray:none;stroke-dashoffset:0;stroke-opacity:0.3;-inkscape-stroke:none;marker:none;enable-background:accumulate;stop-color:#000000"
       d="M 2.9181829,12 C 2.3272734,12 1.5,12.502856 1.5,13.73077 v 7.384621 c 0,0.05816 0.00484,0.115092 0.012008,0.171272 0.00166,0.01302 0.004,0.02585 0.006,0.03876 0.00714,0.04538 0.016168,0.0901 0.027699,0.133865 0.00296,0.01131 0.00555,0.02262 0.00877,0.0338 0.032375,0.111086 0.077924,0.216752 0.1357249,0.314605 1.702e-4,3e-4 2.363e-4,5.99e-4 4.727e-4,8.99e-4 C 1.9353915,22.222215 2.3918147,22.5 2.9181804,22.5 H 13.081826 c 0.526366,0 0.982789,-0.277785 1.227522,-0.691406 1.32e-4,-3e-4 2.37e-4,-6e-4 4.73e-4,-9e-4 0.0578,-0.09785 0.10335,-0.203519 0.135724,-0.314605 0.0032,-0.01118 0.0058,-0.02249 0.0088,-0.0338 0.01154,-0.04378 0.02057,-0.08848 0.0277,-0.133865 0.0019,-0.01292 0.0044,-0.02573 0.006,-0.03876 0.0072,-0.05619 0.01199,-0.11312 0.01199,-0.171274 V 13.846155 C 14.500035,12.98177 14.145491,12 13.081854,12 Z" />
    <rect
       style="opacity:0.3;fill:none;stroke:url(#linearGradient121760);stroke-width:0.999986;stroke-linecap:round;stroke-linejoin:round;stroke-miterlimit:4;stroke-dasharray:none;stroke-dashoffset:0;stroke-opacity:1"
       id="rect6741-5-0-2-3-4-2-4"
       y="12.499993"
       x="2.4999931"
       ry="0.49882391"
       height="9.0000143"
       width="11.000014"
       rx="0.49882391" />
    <path
       d="m 7,9 h 2 l 2e-7,6 C 8.8045458,15 8.6087607,14.619406 8.4129756,14.619406 8.2128836,14.619406 8.0124607,15 7.8120377,15 7.6510365,15 7.4897045,14.666708 7.3283712,14.666708 7.22303,14.666708 7.1176791,15 7.0123338,15 Z"
       fill="url(#n)"
       opacity="0.3"
       overflow="visible"
       style="fill:url(#linearGradient121762);stroke-width:0.999996;marker:none"
       id="path87-0-9-7-6-4" />
    <path
       id="rect5505-21-1-5-0-6-5-1-2-5-1-4"
       style="color:#000000;font-variation-settings:normal;display:inline;overflow:visible;visibility:visible;vector-effect:none;fill:none;fill-opacity:1;fill-rule:nonzero;stroke:#804b00;stroke-width:0.999996;stroke-linecap:butt;stroke-linejoin:miter;stroke-miterlimit:4;stroke-dasharray:none;stroke-dashoffset:0;stroke-opacity:0.5;-inkscape-stroke:none;marker:none;enable-background:accumulate;stop-color:#000000"
       d="m 3.8636361,9.499998 c -0.7856733,0 -1.0990917,0.4638626 -1.4181828,1.181821 -0.2445846,0.548866 -0.5291595,1.116756 -0.7552557,1.65455 -0.1202477,0.208506 -0.1901996,0.450154 -0.1901996,0.709093 v 8.036385 c 0,0.785674 0.6325096,1.418184 1.4181828,1.418184 H 13.081826 c 0.785671,0 1.418183,-0.63251 1.418183,-1.418184 v -8.036385 c 0,-0.258939 -0.06996,-0.500587 -0.190202,-0.709093 -0.232224,-0.535071 -0.503833,-1.108761 -0.755256,-1.65455 C 13.225793,9.9682349 12.922041,9.499998 12.13637,9.499998 Z" />
    <path
       id="rect5505-21-1-5-0-6-5-1-2-5-1-7-7"
       style="color:#000000;font-variation-settings:normal;display:inline;overflow:visible;visibility:visible;opacity:0.15;vector-effect:none;fill:none;fill-opacity:1;fill-rule:nonzero;stroke:url(#linearGradient121764);stroke-width:0.999995;stroke-linecap:round;stroke-linejoin:round;stroke-miterlimit:4;stroke-dasharray:none;stroke-dashoffset:0;stroke-opacity:1;-inkscape-stroke:none;marker:none;enable-background:accumulate;stop-color:#000000"
       d="M 13.373251,12.636699 12.821286,11.44023 C 12.675822,11.124478 12.516893,10.77688 12.359261,10.625826 12.201625,10.474772 12.050553,10.499998 11.739173,10.499998 H 4.2607314 c -0.3117911,0 -0.4595937,-1.78e-4 -0.6177692,0.15015 -0.1581754,0.150326 -0.3225935,0.471014 -0.4630985,0.787161 v 4.27e-4 l -0.5576865,1.198963" />
    <g
       id="layer1-3"
       transform="matrix(0.6666665,0,0,0.66666651,5.1063348,13.112398)"
       style="stroke-width:1.5">
      <path
         d="m 15.590498,8.0811383 c 0,4.1422677 -3.358112,7.5002647 -7.4999062,7.5002647 -4.142172,0 -7.50009404,-3.358035 -7.50009404,-7.5002647 0,-4.1420798 3.35792204,-7.49973534 7.50009404,-7.49973534 4.1417942,0 7.4999062,3.35765554 7.4999062,7.49973534 z"
         id="path6495"
         style="fill:url(#linearGradient979);fill-opacity:1;fill-rule:nonzero;stroke:#002e99;stroke-width:1.5;stroke-miterlimit:4;stroke-dasharray:none;stroke-opacity:0.501961" />
      <path
         d="M 8.237702,1.7064034 7.4450736,1.7985216 6.5731803,2.0403334 c 0.07427,-0.026436 0.1495093,-0.055292 0.2264663,-0.080604 L 6.6977368,1.7754923 6.3580398,1.8330666 6.1881899,1.9942744 5.9277542,2.0288188 5.6899661,2.1439674 5.5767334,2.2015415 5.5427628,2.2476009 5.3729148,2.2821453 5.2710059,2.5009273 5.1351257,2.2245711 5.089832,2.3397197 5.1124807,2.6506203 4.8973393,2.8348577 4.7727828,3.1687881 h 0.2604357 l 0.1019089,-0.218782 0.033971,-0.080603 C 5.2836086,2.7870526 5.3921657,2.6953422 5.5087959,2.6160758 l 0.2717587,0.092118 C 5.957489,2.8304366 6.1356667,2.9546121 6.3127481,3.0766689 L 6.5731803,2.8348577 6.2787758,2.7081944 6.1428975,2.4318382 5.6446734,2.3742642 5.6333497,2.31669 5.8484903,2.3627494 5.9730476,2.236086 6.2448053,2.1785117 c 0.064311,-0.031807 0.1275749,-0.054715 0.1924958,-0.080604 L 6.267452,2.2591158 6.8789086,2.6851648 V 2.9384913 L 6.6411196,3.1803029 6.9581716,3.8251345 7.1733141,3.6984704 7.4450727,3.2724218 C 7.8271449,3.1522978 8.1714934,3.0125172 8.5321083,2.8463725 L 8.5094597,3.0075802 8.6906307,3.1342435 9.0076828,2.9154616 8.8491576,2.7312241 8.6340144,2.8578874 8.5660752,2.8348581 c 0.015607,-0.00725 0.029619,-0.015658 0.045294,-0.02303 L 8.9284216,1.9827596 Z M 5.1351257,2.9500061 5.3955606,3.1342435 H 5.6107029 V 2.9154616 L 5.350268,2.8003133 Z M 11.147784,2.8003133 10.683528,2.9154616 10.389126,3.111214 v 0.1727223 l -0.4642568,0.2993855 0.090581,0.4490798 0.271759,-0.195753 0.16985,0.195753 0.192499,0.1151484 0.124554,-0.3339311 -0.06793,-0.195752 0.06793,-0.1381786 0.271758,-0.2533259 h 0.124557 L 11.04587,3.5027193 V 3.756045 C 11.157881,3.72504 11.270941,3.712964 11.385567,3.69847 l -0.317046,0.2302976 -0.02264,0.1381776 -0.362345,0.3109013 -0.373668,-0.092119 V 4.0669453 l -0.16985,0.1151485 0.07926,0.1957528 H 9.9475208 L 9.800319,4.631173 9.619147,4.8384402 9.2907719,4.9075284 9.4832676,5.1032808 9.5285604,5.2990332 H 9.2907722 L 8.9737201,5.4717555 V 5.9784078 H 9.1209215 L 9.2568018,6.1281011 9.5625312,5.9784078 9.6757632,5.667507 9.902228,5.5293291 9.947524,5.414181 l 0.362345,-0.092118 0.203818,0.2302968 0.215144,0.1151479 -0.124559,0.253327 0.192496,-0.057574 0.101909,-0.2533269 -0.24911,-0.2878707 h 0.101909 l 0.249112,0.2072668 0.0453,0.2763569 0.215141,0.2533265 0.05661,-0.3684749 0.113232,-0.057575 c 0.120528,0.1272415 0.215536,0.2828483 0.317051,0.4260498 l 0.373668,0.023032 0.215142,0.1381785 -0.101909,0.1496923 -0.21514,0.1957529 H 11.702631 L 11.283661,6.4274912 11.06852,6.4505225 10.909993,6.6347601 10.457062,6.1741661 10.14001,6.0820471 9.6757567,6.1396216 9.2681186,6.2547699 C 9.035577,6.5228594 8.7974966,6.7939023 8.577399,7.0723242 L 8.3169633,7.7171553 8.4415204,7.8553329 8.2150544,8.1892637 8.4641664,8.7765205 C 8.6714542,9.0149736 8.879961,9.2518173 9.0869459,9.4904394 L 9.3926751,9.2255987 9.5172306,9.3868079 9.8456066,9.1680255 9.9588371,9.2946878 h 0.3283749 l 0.192498,0.2187817 -0.113233,0.391505 0.226465,0.2648415 -0.01132,0.460593 0.16985,0.333932 -0.124555,0.28787 c -0.01215,0.206464 -0.02265,0.403791 -0.02265,0.610286 0.0999,0.279753 0.200065,0.558819 0.294404,0.840584 l 0.06793,0.449077 v 0.230299 h 0.181171 l 0.260434,-0.172724 h 0.317054 l 0.475577,-0.541196 -0.05661,-0.18424 0.317053,-0.287868 -0.237791,-0.264842 0.283081,-0.230297 0.271759,-0.172723 0.124556,-0.138178 -0.07926,-0.310901 c 0,-0.261746 1e-6,-0.521229 0,-0.78301 l 0.21514,-0.4836219 0.27176,-0.2993866 0.294404,-0.736949 V 8.5807678 c -0.146506,0.018767 -0.286931,0.03569 -0.430284,0.04606 L 13.469046,8.3274417 13.876683,8.051085 14.091825,7.7977593 V 7.5214034 c -0.0488,-0.09358 -0.09807,-0.1942924 -0.147198,-0.2878712 L 13.752131,7.4638277 13.604929,7.2911062 13.389786,7.118385 V 6.7614242 l 0.249113,0.28787 0.283083,-0.034545 c 0.127705,0.117897 0.250333,0.2227286 0.362343,0.3569615 l 0.181176,-0.2072729 c 0,-0.2231406 -0.247139,-1.3247185 -0.781304,-2.2569087 C 13.150029,3.9756457 12.212171,3.1227287 12.212172,3.1227287 L 12.144242,3.249392 11.895129,3.5257482 11.578077,3.1918177 h 0.317052 L 12.042322,3.0306101 11.453513,2.9154616 Z M 4.3424965,2.9500061 4.2292638,3.249392 c 0,0 -0.1982423,0.033282 -0.2491119,0.046059 C 3.3305043,3.9042276 2.020453,5.22469 1.7154982,7.7056354 c 0.012075,0.057521 0.2151415,0.3915042 0.2151415,0.3915042 l 0.4982248,0.2993848 0.4982231,0.1381785 0.2151422,0.2648416 0.3283751,0.2533266 0.1924957,-0.034545 0.1358802,0.069089 v 0.046058 l -0.1811736,0.5181676 -0.1472023,0.2187825 0.045293,0.1036334 -0.1132317,0.4145344 0.4189607,0.783007 0.430284,0.37999 0.1924947,0.276357 -0.022648,0.575741 0.1358792,0.322417 -0.1358792,0.621804 c 0,0 -0.018131,-0.0051 0,0.05757 0.018293,0.06272 0.7569247,0.484624 0.8039522,0.449077 0.046867,-0.03621 0.090586,-0.06909 0.090586,-0.06909 l -0.045293,-0.13818 0.1924949,-0.184235 0.06794,-0.195753 0.3057274,-0.103634 0.237789,-0.598773 -0.067939,-0.161208 0.1585259,-0.253326 0.3623447,-0.0806 0.181173,-0.437558 -0.045295,-0.541198 0.2830824,-0.403019 0.045293,-0.414534 C 6.6037389,10.07758 6.2226721,9.8763297 5.8371665,9.6746725 L 5.6446717,9.2946833 5.29365,9.2140801 5.1011543,8.6959118 4.6368999,8.7534859 4.2292628,8.4541 3.7989782,8.8340891 v 0.057575 C 3.6700984,8.8538354 3.5174228,8.8482682 3.4026658,8.7765159 L 3.3120801,8.5001602 V 8.2007734 l -0.2944045,0.034545 c 0.023692,-0.190702 0.055407,-0.3850731 0.079262,-0.5757418 H 2.9270875 L 2.7572386,7.8783588 2.5987135,7.9589631 2.3609242,7.820784 2.3382774,7.5213972 2.3835712,7.1989827 2.734592,6.9226259 H 3.0176743 L 3.074292,6.7614187 3.4253128,6.8420221 3.6857473,7.1759521 3.7310398,6.6232398 4.1839713,6.2432513 4.3424965,5.8402311 4.6821951,5.7020534 4.863367,5.4256969 5.2936517,5.3450928 5.5087941,5.0226771 c -0.2129475,0 -0.4324787,0 -0.6454271,0 L 5.2710059,4.8269249 H 5.5540866 L 5.9164312,4.700262 5.9843715,5.0572219 6.1428975,4.8038952 5.9617247,4.677232 6.007019,4.5275397 5.8598159,4.3893608 5.7012889,4.3433017 5.7465832,4.1705793 5.6220267,3.9287679 5.3389442,4.0439161 5.3842377,3.8251345 5.0558628,3.6293818 4.7954287,4.0899754 4.8180763,4.2511832 4.5576414,4.3663316 4.3991154,4.7232918 4.3198524,4.3893608 3.8782447,4.2051236 3.7989817,3.9517973 4.3991154,3.6063523 4.6595503,3.3530255 4.6821987,3.0536399 4.5349956,2.9730357 4.3425,2.9500065 Z M 9.2001802,3.5027193 V 3.6869555 L 9.3020909,3.8021042 V 4.0784606 L 9.2454738,4.4469352 9.5398791,4.3893608 9.7550205,4.1705793 9.5625258,3.9863413 C 9.5001001,3.8172969 9.4368364,3.664855 9.3587063,3.5027193 Z M 8.9510675,3.871193 8.7698964,3.928768 8.8151894,4.2626983 9.0529784,4.1360339 Z m 3.3177195,3.0284039 0.271759,0.3224139 0.328376,0.7139219 0.203816,0.2302957 -0.101908,0.2418134 0.181173,0.2187808 c -0.08314,0.0056 -0.163658,0.011517 -0.249113,0.011517 C 12.747651,8.3066137 12.624791,7.972072 12.506577,7.6250326 l -0.20382,-0.2302966 -0.113233,-0.4145343 0.07927,-0.080603 v -1.2e-6 z"
         id="path6534"
         style="opacity:0.6;fill:#002e99;fill-opacity:1;fill-rule:nonzero;stroke:none;stroke-width:1.5" />
      <path
         d="m 14.090501,8.0811918 c 0,3.3138152 -2.686491,6.0002132 -5.9999262,6.0002132 -3.3137392,0 -6.0000767,-2.686427 -6.0000767,-6.0002132 0,-3.3136628 2.6863375,-5.9997885 6.0000767,-5.9997885 3.3134352,0 5.9999262,2.6861257 5.9999262,5.9997885 z"
         id="path2451"
         style="opacity:0.4;fill:none;stroke:url(#linearGradient3029);stroke-width:1.5;stroke-miterlimit:4;stroke-dasharray:none;stroke-opacity:1" />
    </g>
  </g>
</svg>
