<?xml version="1.0" encoding="UTF-8" standalone="no"?>
<svg
   width="16"
   height="16"
   id="svg3658"
   version="1.1"
   sodipodi:docname="software-properties.svg"
   inkscape:version="1.1.2 (0a00cf5339, 2022-02-04)"
   xmlns:inkscape="http://www.inkscape.org/namespaces/inkscape"
   xmlns:sodipodi="http://sodipodi.sourceforge.net/DTD/sodipodi-0.dtd"
   xmlns:xlink="http://www.w3.org/1999/xlink"
   xmlns="http://www.w3.org/2000/svg"
   xmlns:svg="http://www.w3.org/2000/svg"
   xmlns:rdf="http://www.w3.org/1999/02/22-rdf-syntax-ns#"
   xmlns:cc="http://creativecommons.org/ns#">
  <sodipodi:namedview
     id="namedview56"
     pagecolor="#ffffff"
     bordercolor="#666666"
     borderopacity="1.0"
     inkscape:pageshadow="2"
     inkscape:pageopacity="0.0"
     inkscape:pagecheckerboard="0"
     showgrid="false"
     inkscape:zoom="28.416667"
     inkscape:cx="7.8826979"
     inkscape:cy="5.7008797"
     inkscape:window-width="1317"
     inkscape:window-height="893"
     inkscape:window-x="773"
     inkscape:window-y="189"
     inkscape:window-maximized="0"
     inkscape:current-layer="svg3658"
     width="24px" />
  <defs
     id="defs3660">
    <linearGradient
       inkscape:collect="always"
       id="linearGradient933">
      <stop
         style="stop-color:#3689e6;stop-opacity:1"
         offset="0"
         id="stop929" />
      <stop
         style="stop-color:#8cd5ff;stop-opacity:1"
         offset="1"
         id="stop931" />
    </linearGradient>
    <linearGradient
       xlink:href="#linearGradient3924"
       id="linearGradient2959"
       gradientUnits="userSpaceOnUse"
       gradientTransform="matrix(0.2972973,0,0,0.2972973,0.86486583,0.8648677)"
       x1="23.99999"
       y1="4.999989"
       x2="23.99999"
       y2="43" />
    <linearGradient
       id="linearGradient3924">
      <stop
         offset="0"
         style="stop-color:#ffffff;stop-opacity:1;"
         id="stop3926" />
      <stop
         id="stop3928"
         style="stop-color:#ffffff;stop-opacity:0.23529412;"
         offset="0.06316455" />
      <stop
         offset="0.95056331"
         style="stop-color:#ffffff;stop-opacity:0.15686275;"
         id="stop3930" />
      <stop
         offset="1"
         style="stop-color:#ffffff;stop-opacity:0.39215687;"
         id="stop3932" />
    </linearGradient>
    <linearGradient
       inkscape:collect="always"
       xlink:href="#linearGradient933"
       id="linearGradient935"
       x1="12.168998"
       y1="49.078144"
       x2="12.168998"
       y2="0.98788178"
       gradientUnits="userSpaceOnUse"
       gradientTransform="matrix(0.33333332,0,0,0.3333334,9.220459e-8,-0.33333512)" />
    <linearGradient
       x1="25"
       y1="0"
       x2="25"
       y2="16.000105"
       id="linearGradient3262"
       xlink:href="#linearGradient3309"
       gradientUnits="userSpaceOnUse"
       gradientTransform="matrix(0.75,0,0,0.75,-9.8676593,4.15625)" />
    <linearGradient
       x1="63.9995"
       y1="3.1001"
       x2="63.9995"
       y2="122.8994"
       id="linearGradient3309"
       gradientUnits="userSpaceOnUse">
      <stop
         id="stop3311"
         style="stop-color:#f6f6f6;stop-opacity:1"
         offset="0" />
      <stop
         id="stop3313"
         style="stop-color:#cccccc;stop-opacity:1"
         offset="1" />
    </linearGradient>
  </defs>
  <metadata
     id="metadata3663">
    <rdf:RDF>
      <cc:Work
         rdf:about="" />
    </rdf:RDF>
  </metadata>
  <g
     id="layer1">
    <rect
       style="color:#000000;display:inline;overflow:visible;visibility:visible;fill:url(#linearGradient935);fill-opacity:1;fill-rule:nonzero;stroke:#002e99;stroke-width:0.999997;stroke-linecap:round;stroke-linejoin:round;stroke-miterlimit:4;stroke-dasharray:none;stroke-dashoffset:0;stroke-opacity:0.501961;marker:none;enable-background:accumulate"
       id="rect5505-21"
       y="1.4999986"
       x="1.5"
       ry="2"
       rx="2"
       height="13.000003"
       width="13" />
    <rect
       style="opacity:0.5;fill:none;stroke:url(#linearGradient2959);stroke-width:1;stroke-linecap:round;stroke-linejoin:round;stroke-miterlimit:4;stroke-dasharray:none;stroke-dashoffset:0;stroke-opacity:1"
       id="rect6741"
       y="2.5"
       x="2.5"
       ry="1"
       rx="1"
       height="11"
       width="11" />
    <path
       style="color:#000000;fill:none;fill-opacity:1;stroke:#010000;stroke-width:0.999999;stroke-linejoin:round;stroke-opacity:0.15;-inkscape-stroke:none"
       d="m 6.5788897,4.4999996 c -0.262527,0 -0.473875,0.2127855 -0.473875,0.4770976 v 3.542611 H 4.4592149 c -0.6229398,6.68e-4 -0.943805,0.750404 -0.5164493,1.206721 L 7.4840637,13.15158 c 0.280462,0.298525 0.752436,0.298525 1.032898,0 L 12.057737,9.7264292 c 0.427355,-0.456317 0.10649,-1.206042 -0.51645,-1.206721 H 9.896011 v -3.542611 c 0,-0.2643121 -0.211348,-0.4770976 -0.473874,-0.4770976 z"
       id="path13703"
       sodipodi:nodetypes="ssccccccccsss" />
    <path
       style="color:#000000;fill:none;fill-opacity:1;stroke:#010000;stroke-width:0.999999;stroke-linejoin:round;stroke-opacity:0.3;-inkscape-stroke:none"
       d="m 6.5788897,3.7499995 c -0.262527,0 -0.473875,0.2127856 -0.473875,0.4770978 V 7.7745802 H 4.750251 c -1.1035033,0 -1.6820007,0.9976447 -0.8074854,1.9314247 l 3.5412981,3.4251501 c 0.280462,0.298525 0.752436,0.298525 1.032898,0 L 12.057737,9.7060049 C 12.932275,8.8314672 12.257082,7.7745802 11.250251,7.7745802 H 9.896011 V 4.2270973 c 0,-0.2643122 -0.211348,-0.4770977 -0.473874,-0.4770977 z"
       id="path12165"
       sodipodi:nodetypes="ssccccccccsss" />
    <path
       style="color:#000000;fill:#ffffff;stroke-width:0.999998;stroke-linejoin:round;-inkscape-stroke:none"
       d="M 4.9191952,7.9995799 C 3.8798672,7.9999866 3.3593397,9.0532001 4.094,9.7865802 l 3.181251,3.1221768 c 0.4557289,0.45443 0.9942711,0.45443 1.45,0 l 3.181125,-3.1221768 c 0.734661,-0.7333801 0.214258,-1.7865936 -0.82507,-1.7870003 z"
       id="path906"
       sodipodi:nodetypes="ccccccc" />
    <rect
       style="fill:#ffffff;stroke-width:2.99999;stroke-linejoin:round"
       id="rect902"
       height="5"
       x="6.0002513"
       y="3.9995799"
       rx="0.5"
       ry="0.35714287"
       width="4" />
  </g>
  <g
     id="g2479"
     transform="matrix(0.64444446,0,0,0.64444446,6.2476987,5.45486)"
     style="stroke-width:1.55172">
    <path
       d="m 8.1291082,4.53125 c -0.1863127,0 -0.328125,0.1418116 -0.328125,0.328125 v 0.9375 C 7.385556,5.9035254 7.0126102,6.0757837 6.6525457,6.2890625 L 5.9728582,5.609375 c -0.1317427,-0.1317434 -0.3370065,-0.1317434 -0.46875,0 l -1.125,1.125 c -0.1317427,0.1317434 -0.1317427,0.3370066 0,0.46875 L 5.0587957,7.8828125 C 4.8455174,8.2428767 4.673259,8.6158226 4.5666082,9.03125 h -0.9375 c -0.1863127,0 -0.328125,0.1418116 -0.328125,0.328125 v 1.593751 c 0,0.186313 0.1418122,0.328125 0.328125,0.328125 h 0.9375 c 0.1066507,0.415427 0.2789093,0.788373 0.4921875,1.148437 l -0.6796875,0.679688 c -0.1317427,0.131743 -0.1317427,0.337006 0,0.46875 l 1.125,1.125 c 0.1317434,0.131743 0.3370065,0.131743 0.46875,0 l 0.6796875,-0.679688 c 0.3600646,0.213279 0.7330103,0.385538 1.1484375,0.492188 v 0.9375 c 1e-7,0.186313 0.1418123,0.328125 0.328125,0.328125 h 1.59375 c 0.1863132,0 0.3281248,-0.141812 0.3281248,-0.328125 v -0.9375 c 0.415428,-0.10665 0.788373,-0.278908 1.148438,-0.492188 l 0.679687,0.679688 c 0.131744,0.131743 0.337007,0.131743 0.46875,0 l 1.125,-1.125 c 0.131744,-0.131744 0.131744,-0.337007 0,-0.46875 l -0.679687,-0.679688 c 0.213279,-0.360064 0.385537,-0.73301 0.492187,-1.148437 h 0.9375 c 0.186314,0 0.328125,-0.141812 0.328125,-0.328125 V 9.359375 c 0,-0.1863134 -0.141812,-0.328125 -0.328125,-0.328125 h -0.9375 C 13.178708,8.6158226 13.00645,8.2428767 12.793171,7.8828125 L 13.472858,7.203125 c 0.131744,-0.1317434 0.131744,-0.3370065 0,-0.46875 l -1.125,-1.125 c -0.131743,-0.1317434 -0.337006,-0.1317434 -0.46875,0 L 11.199421,6.2890625 C 10.839356,6.0757837 10.466411,5.9035254 10.050983,5.796875 v -0.9375 c 0,-0.1863134 -0.1418113,-0.328125 -0.3281248,-0.328125 z m 0.796875,4.125 c 0.828,0 1.4999998,0.672 1.4999998,1.5 0,0.828 -0.6719998,1.500001 -1.4999998,1.500001 -0.828,0 -1.5,-0.672001 -1.5,-1.500001 0,-0.828 0.672,-1.5 1.5,-1.5 z"
       id="path2426"
       style="display:block;overflow:visible;visibility:visible;opacity:1;fill:url(#linearGradient3262);fill-opacity:1;fill-rule:nonzero;stroke:#010101;stroke-width:1.16379;stroke-linecap:butt;stroke-linejoin:round;stroke-miterlimit:4;stroke-dasharray:none;stroke-dashoffset:0;stroke-opacity:0.3;marker:none;marker-start:none;marker-mid:none;marker-end:none;enable-background:accumulate" />
  </g>
</svg>
