<?xml version="1.0" encoding="UTF-8" standalone="no"?>
<svg
   xmlns:dc="http://purl.org/dc/elements/1.1/"
   xmlns:cc="http://creativecommons.org/ns#"
   xmlns:rdf="http://www.w3.org/1999/02/22-rdf-syntax-ns#"
   xmlns:svg="http://www.w3.org/2000/svg"
   xmlns="http://www.w3.org/2000/svg"
   xmlns:xlink="http://www.w3.org/1999/xlink"
   id="svg3816"
   height="16"
   width="16"
   version="1.1">
  <defs
     id="defs3818">
    <linearGradient
       id="linearGradient4806-2-9-2">
      <stop
         offset="0"
         style="stop-color:#ffffff;stop-opacity:1"
         id="stop4808-4-6-7" />
      <stop
         offset="0.42447853"
         style="stop-color:#ffffff;stop-opacity:0.23529412"
         id="stop4810-0-9-3" />
      <stop
         offset="0.82089913"
         style="stop-color:#ffffff;stop-opacity:0.15686275"
         id="stop4812-8-7-9" />
      <stop
         offset="1"
         style="stop-color:#ffffff;stop-opacity:0.39215687"
         id="stop4814-0-7-4" />
    </linearGradient>
    <linearGradient
       y2="40.495617"
       x2="71.204407"
       y1="15.369057"
       x1="71.204407"
       gradientTransform="matrix(0.53899369,0,0,0.53899369,-30.902467,-7.020086)"
       gradientUnits="userSpaceOnUse"
       id="linearGradient3268"
       xlink:href="#linearGradient4806-2-9-2" />
    <radialGradient
       r="20.396999"
       fy="3.9899998"
       fx="24.401789"
       cy="3.9899998"
       cx="24.401789"
       gradientTransform="matrix(0,0.66138163,-0.49830779,0,9.9883774,-14.785278)"
       gradientUnits="userSpaceOnUse"
       id="radialGradient3271"
       xlink:href="#linearGradient2867-449-88-871-390-598-476-591-434-148-57-177-3-8" />
    <linearGradient
       id="linearGradient2867-449-88-871-390-598-476-591-434-148-57-177-3-8">
      <stop
         offset="0"
         style="stop-color:#8de53e;stop-opacity:1;"
         id="stop3750-8-9" />
      <stop
         offset="0.26238"
         style="stop-color:#95de55;stop-opacity:1;"
         id="stop3752-3-2" />
      <stop
         offset="0.704952"
         style="stop-color:#82de31;stop-opacity:1;"
         id="stop3754-7-2" />
      <stop
         offset="1"
         style="stop-color:#60cc00;stop-opacity:1;"
         id="stop3756-9-3" />
    </linearGradient>
  </defs>
  <metadata
     id="metadata3821">
    <rdf:RDF>
      <cc:Work
         rdf:about="">
        <dc:format>image/svg+xml</dc:format>
        <dc:type
           rdf:resource="http://purl.org/dc/dcmitype/StillImage" />
        <dc:title />
      </cc:Work>
    </rdf:RDF>
  </metadata>
  <g
     id="g4447">
    <g
       id="g4410">
      <path
         d="m 7.9999999,0.99999865 c -3.8623577,0 -6.99999993,3.13764035 -6.99999993,7.00000085 0,3.8623615 3.13764223,7.0000015 6.99999993,7.0000015 3.8623581,0 7.0000061,-3.13764 7.0000001,-7.0000015 C 15,4.137639 11.862358,0.99999865 7.9999999,0.99999865 Z"
         id="path2555-7-2-5"
         style="color:#000000;display:inline;overflow:visible;visibility:visible;fill:url(#radialGradient3271);fill-opacity:1.0;fill-rule:nonzero;stroke:none;stroke-width:0.99999994;marker:none;enable-background:accumulate" />
      <path
         d="M 14.5,8.0000001 C 14.5,11.589853 11.589854,14.5 7.9999934,14.5 4.4101457,14.5 1.5,11.589853 1.5,8.0000001 1.5,4.4101466 4.4101457,1.5 7.9999934,1.5 11.589854,1.5 14.5,4.4101466 14.5,8.0000001 z"
         id="path4176-3"
         style="opacity:0.3;color:#000000;fill:none;stroke:url(#linearGradient3268);stroke-width:0.99999982;stroke-linecap:round;stroke-linejoin:round;stroke-miterlimit:4;stroke-opacity:1;stroke-dasharray:none;stroke-dashoffset:0;marker:none;visibility:visible;display:inline;overflow:visible;enable-background:accumulate" />
      <path
         d="m 7.9998579,0.500281 c -4.138162,0 -7.49985796,3.361693 -7.49985796,7.499859 0,4.138166 3.36169596,7.49986 7.49985796,7.49986 4.1381621,0 7.4998651,-3.361694 7.4998581,-7.49986 0,-4.138166 -3.361696,-7.499859 -7.4998581,-7.499859 z"
         id="path3871-0"
         style="opacity:0.4;color:#000000;fill:none;stroke:#000000;stroke-width:1;stroke-opacity:1;marker:none;visibility:visible;display:inline;overflow:visible;enable-background:accumulate;stroke-linecap:butt;stroke-linejoin:miter;stroke-miterlimit:4;stroke-dasharray:none;stroke-dashoffset:0" />
    </g>
    <g
       id="g3882"
       transform="matrix(0.25348362,0,0,0.25348362,-0.12724226,-0.17156588)">
      <g
         id="g3869">
        <path
           style="opacity:0.9;fill:#1a1a1a;fill-opacity:1;stroke:none"
           d="m 17.298088,40.902181 c 0.5927,-2.211986 2.511307,-2.908051 4.505133,-2.908051 3.046229,0 6.075666,0.293311 8.946667,1.062595 2.871,0.769281 5.750306,2.092963 8.279337,3.553099 1.726704,0.996913 2.991573,2.740627 2.412776,4.900726 -0.44672,1.667187 -2.298784,2.114913 -4.025488,1.117998 -2.504852,-1.446176 -5.408337,-2.783817 -8.279338,-3.553099 -2.871001,-0.769284 -5.985761,-1.062595 -8.946666,-1.062595 -1.993826,0 -3.339143,-1.443486 -2.892421,-3.110673 z"
           id="rect3883" />
        <path
           id="path3895"
           d="m 14.48274,30.10568 c 0.592699,-2.211984 2.511306,-2.90805 4.505132,-2.908051 3.046229,1e-6 8.414615,0.369513 14.734347,2.06288 5.80609,1.555737 10.715029,3.816484 13.24406,5.276623 1.726704,0.996912 2.991575,2.740624 2.412777,4.900724 -0.446721,1.667187 -2.298785,2.114913 -4.025488,1.118 C 42.848715,39.10968 38.062352,36.874294 32.109506,35.279234 26.523547,33.78248 20.336065,33.216355 17.37516,33.216355 c -1.993826,0 -3.339141,-1.443488 -2.89242,-3.110675 z"
           style="opacity:0.9;fill:#1a1a1a;fill-opacity:1;stroke:none" />
        <path
           style="opacity:0.9;fill:#1a1a1a;fill-opacity:1;stroke:none"
           d="m 12.346123,19.69258 c 0.592699,-2.211986 2.511306,-2.908051 4.505132,-2.908051 3.046229,0 11.800505,0.647594 19.147517,2.61622 9.3282,2.499482 14.192548,5.220155 16.72158,6.680294 1.726704,0.996912 2.991572,2.740624 2.412776,4.900724 -0.446721,1.667186 -2.298785,2.114913 -4.02549,1.117999 C 48.602789,30.653589 40.045396,26.935888 34.38606,25.419475 27.99295,23.706446 18.199449,22.803253 15.238543,22.803253 c -1.993826,0 -3.339141,-1.443488 -2.89242,-3.110673 z"
           id="path3897" />
      </g>
      <g
         transform="translate(0,1.4142136)"
         style="opacity:0.2;fill:#ffffff"
         id="g3874">
        <path
           id="path3876"
           d="m 17.298088,40.902181 c 0.5927,-2.211986 2.511307,-2.908051 4.505133,-2.908051 3.046229,0 6.075666,0.293311 8.946667,1.062595 2.871,0.769281 5.750306,2.092963 8.279337,3.553099 1.726704,0.996913 2.991573,2.740627 2.412776,4.900726 -0.44672,1.667187 -2.298784,2.114913 -4.025488,1.117998 -2.504852,-1.446176 -5.408337,-2.783817 -8.279338,-3.553099 -2.871001,-0.769284 -5.985761,-1.062595 -8.946666,-1.062595 -1.993826,0 -3.339143,-1.443486 -2.892421,-3.110673 z"
           style="opacity:0.9;fill:#ffffff;fill-opacity:1;stroke:none" />
        <path
           style="opacity:0.9;fill:#ffffff;fill-opacity:1;stroke:none"
           d="m 14.48274,30.10568 c 0.592699,-2.211984 2.511306,-2.90805 4.505132,-2.908051 3.046229,1e-6 8.414615,0.369513 14.734347,2.06288 5.80609,1.555737 10.715029,3.816484 13.24406,5.276623 1.726704,0.996912 2.991575,2.740624 2.412777,4.900724 -0.446721,1.667187 -2.298785,2.114913 -4.025488,1.118 C 42.848715,39.10968 38.062352,36.874294 32.109506,35.279234 26.523547,33.78248 20.336065,33.216355 17.37516,33.216355 c -1.993826,0 -3.339141,-1.443488 -2.89242,-3.110675 z"
           id="path3878" />
        <path
           id="path3880"
           d="m 12.346123,19.69258 c 0.592699,-2.211986 2.511306,-2.908051 4.505132,-2.908051 3.046229,0 11.800505,0.647594 19.147517,2.61622 9.3282,2.499482 14.192548,5.220155 16.72158,6.680294 1.726704,0.996912 2.991572,2.740624 2.412776,4.900724 -0.446721,1.667186 -2.298785,2.114913 -4.02549,1.117999 C 48.602789,30.653589 40.045396,26.935888 34.38606,25.419475 27.99295,23.706446 18.199449,22.803253 15.238543,22.803253 c -1.993826,0 -3.339141,-1.443488 -2.89242,-3.110673 z"
           style="opacity:0.9;fill:#ffffff;fill-opacity:1;stroke:none" />
      </g>
    </g>
  </g>
</svg>
