<?xml version="1.0" encoding="UTF-8" standalone="no"?>
<svg
   version="1.0"
   width="16"
   height="16"
   id="svg3328"
   sodipodi:docname="stock_keyring.svg"
   inkscape:version="1.2.2 (b0a8486541, 2022-12-01)"
   xmlns:inkscape="http://www.inkscape.org/namespaces/inkscape"
   xmlns:sodipodi="http://sodipodi.sourceforge.net/DTD/sodipodi-0.dtd"
   xmlns:xlink="http://www.w3.org/1999/xlink"
   xmlns="http://www.w3.org/2000/svg"
   xmlns:svg="http://www.w3.org/2000/svg"
   xmlns:rdf="http://www.w3.org/1999/02/22-rdf-syntax-ns#"
   xmlns:cc="http://creativecommons.org/ns#"
   xmlns:dc="http://purl.org/dc/elements/1.1/">
  <sodipodi:namedview
     id="namedview14889"
     pagecolor="#ffffff"
     bordercolor="#000000"
     borderopacity="0.25"
     inkscape:showpageshadow="2"
     inkscape:pageopacity="0.0"
     inkscape:pagecheckerboard="0"
     inkscape:deskcolor="#d1d1d1"
     showgrid="false"
     inkscape:zoom="16"
     inkscape:cx="-4.125"
     inkscape:cy="3.1875"
     inkscape:window-width="1278"
     inkscape:window-height="851"
     inkscape:window-x="660"
     inkscape:window-y="136"
     inkscape:window-maximized="0"
     inkscape:current-layer="layer1" />
  <metadata
     id="metadata78175">
    <rdf:RDF>
      <cc:Work
         rdf:about="">
        <dc:format>image/svg+xml</dc:format>
        <dc:type
           rdf:resource="http://purl.org/dc/dcmitype/StillImage" />
      </cc:Work>
    </rdf:RDF>
  </metadata>
  <defs
     id="defs3330">
    <linearGradient
       inkscape:collect="always"
       id="linearGradient55017">
      <stop
         style="stop-color:#ffffff;stop-opacity:1;"
         offset="0"
         id="stop55013" />
      <stop
         style="stop-color:#ffffff;stop-opacity:0;"
         offset="1"
         id="stop55015" />
    </linearGradient>
    <linearGradient
       inkscape:collect="always"
       id="linearGradient53470">
      <stop
         style="stop-color:#000000;stop-opacity:0.5;"
         offset="0"
         id="stop53466" />
      <stop
         style="stop-color:#000000;stop-opacity:0.34999999;"
         offset="1"
         id="stop53468" />
    </linearGradient>
    <linearGradient
       inkscape:collect="always"
       id="linearGradient53464">
      <stop
         style="stop-color:#000000;stop-opacity:0.40000001;"
         offset="0"
         id="stop53460" />
      <stop
         style="stop-color:#000000;stop-opacity:0.44;"
         offset="1"
         id="stop53462" />
    </linearGradient>
    <linearGradient
       id="linearGradient13498">
      <stop
         id="stop13494"
         style="stop-color:#e5e5e5;stop-opacity:1;"
         offset="0" />
      <stop
         id="stop13496"
         style="stop-color:#dcdcdc;stop-opacity:1;"
         offset="1" />
    </linearGradient>
    <linearGradient
       id="linearGradient4542">
      <stop
         id="stop4544"
         style="stop-color:#888a85;stop-opacity:1"
         offset="0" />
      <stop
         id="stop4546"
         style="stop-color:#888a85;stop-opacity:0"
         offset="1" />
    </linearGradient>
    <linearGradient
       inkscape:collect="always"
       xlink:href="#linearGradient13498"
       id="linearGradient5257"
       gradientUnits="userSpaceOnUse"
       gradientTransform="matrix(0.28868365,0.28470647,-0.28754819,0.28361789,11.727951,-7.3879577)"
       x1="10.936142"
       y1="34.081249"
       x2="25.975197"
       y2="36.901684" />
    <linearGradient
       inkscape:collect="always"
       xlink:href="#linearGradient53464"
       id="linearGradient10815"
       x1="21.063217"
       y1="16.8948"
       x2="11.543458"
       y2="5.3534346"
       gradientUnits="userSpaceOnUse"
       gradientTransform="matrix(0.92530238,0,0,0.92504788,-6.244606,-0.6971126)" />
    <linearGradient
       inkscape:collect="always"
       xlink:href="#linearGradient4542"
       id="linearGradient20247"
       gradientUnits="userSpaceOnUse"
       gradientTransform="matrix(0.2318357,0.17200301,-0.51690067,0.67133414,14.363288,-9.4334266)"
       x1="33.120464"
       y1="20.5"
       x2="22.328388"
       y2="20.5" />
    <linearGradient
       inkscape:collect="always"
       xlink:href="#linearGradient53470"
       id="linearGradient52283"
       gradientUnits="userSpaceOnUse"
       gradientTransform="matrix(0.7654998,0,0,0.77548023,-4.6497394,-0.44302315)"
       x1="13.357662"
       y1="7.2274294"
       x2="11.600693"
       y2="5.9378109" />
    <linearGradient
       inkscape:collect="always"
       xlink:href="#linearGradient55017"
       id="linearGradient55019"
       x1="1.0004728"
       y1="13.656636"
       x2="4.5408096"
       y2="2.6841993"
       gradientUnits="userSpaceOnUse"
       gradientTransform="matrix(1.2144742,0,0,1.2144742,-12.528876,-12.414947)" />
  </defs>
  <g
     id="layer1">
    <path
       id="path4066"
       style="font-variation-settings:normal;opacity:1;vector-effect:none;fill:url(#linearGradient5257);fill-opacity:1;fill-rule:evenodd;stroke:none;stroke-width:0.999994;stroke-linecap:round;stroke-linejoin:miter;stroke-miterlimit:4;stroke-dasharray:none;stroke-dashoffset:0;stroke-opacity:0.3;-inkscape-stroke:none;stop-color:#000000;stop-opacity:1"
       d="M 5.75,1 C 3.1207334,1.0000015 1.0000015,3.1207334 1,5.75 c 1.5e-6,2.627934 2.1186755,4.74785 4.7460938,4.75 0.7448655,-0.01039 1.5403233,-0.204443 2.0234374,-0.447266 L 7.875,10 H 10 v 2 h 2 v 2 h 3 V 11.058594 C 13.145225,9.5482184 10.527344,7.3945312 10.527344,7.3945312 L 10.263672,7.1777344 10.371094,6.8535156 C 10.41852,6.7086248 10.5063,6.0066922 10.5,5.7636719 V 5.7558594 5.75 C 10.499998,3.1207333 8.3792666,1.0000015 5.75,1 Z M 4.5264495,3.4750731 C 4.9934098,3.469937 5.4726727,3.7819922 5.549887,4.2836669 5.7339323,5.0326213 4.8810732,5.7152394 4.1983245,5.3930419 3.5537551,5.1559952 3.3544258,4.2387608 3.862387,3.7621825 4.0407289,3.5675473 4.2818512,3.4777634 4.5264495,3.4750731 Z"
       sodipodi:nodetypes="ccccccccccccccccscscccs" />
    <path
       id="circle4167"
       style="opacity:1;vector-effect:none;fill-opacity:1;stroke-width:0.999998;stroke-linecap:round;stop-color:#000000;stop-opacity:1;fill:#f0f0f0"
       transform="scale(-1)"
       d="m -9.4407336,-6.4140676 c 0.2642367,-1.4685661 1.3739965,-2.6407374 2.825924,-2.9848506 1.4519275,-0.3441132 2.9697145,0.205318 3.8649364,1.3990873 0.8952219,1.1937693 0.9975139,2.8046972 0.2604792,4.1021129 0,0 -1.4968301,-2.4408038 -2.7448093,-2.9114041 -1.3177686,-0.4969171 -4.2065303,0.3950545 -4.2065303,0.3950545 z"
       sodipodi:nodetypes="csscac" />
    <path
       d="M 8.4253343,4.4731812 C 8.375405,4.3893163 8.3091608,4.2999444 8.2494408,4.2206634 7.9973293,3.8860751 7.6471578,3.6548378 7.2953893,3.4703195 8.1990202,7.2040611 6.1766266,7.3832354 4.4219747,7.997187 5.2745345,8.6696573 6.4117218,8.8351438 7.4468641,8.2282516 8.4374318,7.6032432 8.9518268,6.6552106 8.8027448,5.4708216 8.7401342,5.1556918 8.5777465,4.7291898 8.4253362,4.4731802 Z"
       id="path4734"
       style="opacity:1;fill:#000000;fill-opacity:0.08;fill-rule:evenodd;stroke:none;stroke-width:1;stroke-linecap:round;stroke-linejoin:miter;stroke-miterlimit:4;stroke-dasharray:none;stroke-opacity:1"
       sodipodi:nodetypes="cccccccc" />
    <path
       id="path4738"
       style="fill:none;fill-opacity:1;fill-rule:evenodd;stroke:url(#linearGradient10815);stroke-width:1;stroke-linecap:round;stroke-linejoin:miter;stroke-miterlimit:4;stroke-dasharray:none;stroke-opacity:1"
       d="m 5.75,0.5 c -2.8994943,1.6e-6 -5.2499984,2.3505057 -5.25,5.25 1.6e-6,2.8994943 2.3505057,5.249998 5.25,5.25 0.8215547,-0.01109 1.667374,-0.210111 2.2441406,-0.5 H 9.5 v 2 h 2 v 2 h 4 V 10.820312 C 13.638867,9.3067015 10.845386,7.0082491 10.845386,7.0082491 10.938933,6.7224554 11.008506,6.0799532 11,5.75 10.999998,2.8505057 8.6494943,0.5000016 5.75,0.5 Z"
       sodipodi:nodetypes="ccccccccccccc" />
    <circle
       style="font-variation-settings:normal;opacity:1;vector-effect:none;fill:none;fill-opacity:1;stroke:url(#linearGradient55019);stroke-width:0.999994;stroke-linecap:round;stroke-linejoin:miter;stroke-miterlimit:4;stroke-dasharray:none;stroke-dashoffset:0;stroke-opacity:1;-inkscape-stroke:none;stop-color:#000000;stop-opacity:1"
       id="path54853"
       cx="-5.75"
       cy="-5.75"
       transform="scale(-1)"
       r="4.2500029" />
    <path
       id="path20245"
       style="opacity:0.3;fill:url(#linearGradient20247);fill-rule:evenodd;stroke-width:0.999994;stroke-linecap:round"
       d="m 9.414433,7.8748954 5.14282,3.9322396 -0.564178,0.733212 -5.1428192,-3.9322396 z"
       sodipodi:nodetypes="ccccc" />
    <path
       d="M 3.7795851,3.6773766 C 4.3608896,3.0430196 5.5385827,3.4047961 5.6704149,4.2612576 5.8766287,5.1003512 4.9214076,5.8659021 4.1564208,5.5049269 3.4342123,5.2393509 3.2104393,4.2113127 3.7795851,3.6773766 Z"
       id="path54127"
       style="opacity:1;fill:none;fill-opacity:1;fill-rule:evenodd;stroke:url(#linearGradient52283);stroke-width:0.999996;stroke-linecap:round;stroke-linejoin:miter;stroke-miterlimit:4;stroke-dasharray:none;stroke-opacity:1"
       sodipodi:nodetypes="ssss" />
    <rect
       style="font-variation-settings:normal;opacity:1;vector-effect:none;fill:#ffffff;fill-opacity:0.34999999;stroke:none;stroke-width:0.999997;stroke-linecap:round;stroke-linejoin:miter;stroke-miterlimit:4;stroke-dasharray:none;stroke-dashoffset:0;stroke-opacity:1;-inkscape-stroke:none;stop-color:#000000;stop-opacity:1"
       id="rect55487"
       width="2"
       height="1"
       x="8"
       y="9" />
    <rect
       style="font-variation-settings:normal;opacity:1;vector-effect:none;fill:#ffffff;fill-opacity:0.34999999;stroke:none;stroke-width:0.999997;stroke-linecap:round;stroke-linejoin:miter;stroke-miterlimit:4;stroke-dasharray:none;stroke-dashoffset:0;stroke-opacity:1;-inkscape-stroke:none;stop-color:#000000;stop-opacity:1"
       id="rect55489"
       width="2"
       height="1"
       x="10"
       y="11" />
    <rect
       style="font-variation-settings:normal;opacity:1;vector-effect:none;fill:#ffffff;fill-opacity:0.34999999;stroke:none;stroke-width:0.999997;stroke-linecap:round;stroke-linejoin:miter;stroke-miterlimit:4;stroke-dasharray:none;stroke-dashoffset:0;stroke-opacity:1;-inkscape-stroke:none;stop-color:#000000;stop-opacity:1"
       id="rect55491"
       width="3"
       height="1"
       x="12"
       y="13" />
    <path
       id="path66447"
       style="opacity:1;fill:#ffffff;fill-opacity:0.2;fill-rule:evenodd;stroke-width:0.999994;stroke-linecap:round"
       d="M 10.047053,7.0131129 14.995625,11.050688 14.431447,11.7839 9.4828755,7.7463249 Z"
       sodipodi:nodetypes="ccccc" />
  </g>
</svg>
