<?xml version="1.0" encoding="UTF-8" standalone="no"?>
<svg
   version="1.1"
   width="16"
   height="16"
   id="svg4372"
   xml:space="preserve"
   sodipodi:docname="system-file-manager.svg"
   inkscape:version="1.2.2 (b0a8486541, 2022-12-01)"
   xmlns:inkscape="http://www.inkscape.org/namespaces/inkscape"
   xmlns:sodipodi="http://sodipodi.sourceforge.net/DTD/sodipodi-0.dtd"
   xmlns:xlink="http://www.w3.org/1999/xlink"
   xmlns="http://www.w3.org/2000/svg"
   xmlns:svg="http://www.w3.org/2000/svg"
   xmlns:rdf="http://www.w3.org/1999/02/22-rdf-syntax-ns#"
   xmlns:cc="http://creativecommons.org/ns#"
   xmlns:dc="http://purl.org/dc/elements/1.1/"><sodipodi:namedview
     id="namedview2674"
     pagecolor="#ffffff"
     bordercolor="#000000"
     borderopacity="0.25"
     inkscape:showpageshadow="2"
     inkscape:pageopacity="0.0"
     inkscape:pagecheckerboard="0"
     inkscape:deskcolor="#d1d1d1"
     showgrid="false"
     inkscape:zoom="8"
     inkscape:cx="38.1875"
     inkscape:cy="-1.625"
     inkscape:window-width="1278"
     inkscape:window-height="1005"
     inkscape:window-x="426"
     inkscape:window-y="12"
     inkscape:window-maximized="0"
     inkscape:current-layer="svg4372" /><defs
     id="defs4374"><linearGradient
       id="linearGradient1236"><stop
         id="stop1228"
         style="stop-color:#ffffff;stop-opacity:1"
         offset="0" /><stop
         id="stop1230"
         style="stop-color:#ffffff;stop-opacity:0.23529412"
         offset="0.11146981" /><stop
         id="stop1232"
         style="stop-color:#ffffff;stop-opacity:0.15686275"
         offset="0.88937205" /><stop
         id="stop1234"
         style="stop-color:#ffffff;stop-opacity:0.39215687"
         offset="1" /></linearGradient><linearGradient
       x1="12.295501"
       y1="7.2729368"
       x2="12.295501"
       y2="40.591042"
       id="linearGradient3304"
       xlink:href="#linearGradient3924-4-8"
       gradientUnits="userSpaceOnUse"
       gradientTransform="matrix(0.29751073,0,0,0.2972973,0.85974673,-0.139118)" /><linearGradient
       id="linearGradient3924-4-8"><stop
         id="stop3926-0-4"
         style="stop-color:#ffffff;stop-opacity:1"
         offset="0" /><stop
         id="stop3928-6-8"
         style="stop-color:#ffffff;stop-opacity:0.23529412"
         offset="0.05749262" /><stop
         id="stop3930-2-1"
         style="stop-color:#ffffff;stop-opacity:0.15686275"
         offset="0.95056331" /><stop
         id="stop3932-9-0"
         style="stop-color:#ffffff;stop-opacity:0.39215687"
         offset="1" /></linearGradient><linearGradient
       id="linearGradient3600-9-51"><stop
         offset="0"
         style="stop-color:#f4f4f4;stop-opacity:1"
         id="stop3602-0-0" /><stop
         offset="1"
         style="stop-color:#dbdbdb;stop-opacity:1"
         id="stop3604-9-04" /></linearGradient><linearGradient
       id="linearGradient3104-6"><stop
         offset="0"
         style="stop-color:#000000;stop-opacity:0.31782946"
         id="stop3106-3" /><stop
         offset="1"
         style="stop-color:#000000;stop-opacity:0.24031007"
         id="stop3108-9" /></linearGradient><linearGradient
       xlink:href="#linearGradient3104-6"
       id="linearGradient2140"
       gradientUnits="userSpaceOnUse"
       gradientTransform="matrix(0.3726957,0,0,0.89471714,-16.017319,-23.6608)"
       x1="56.408016"
       y1="42.392338"
       x2="56.408016"
       y2="26.595999" /><linearGradient
       xlink:href="#linearGradient3600-9-51"
       id="linearGradient2184"
       gradientUnits="userSpaceOnUse"
       gradientTransform="matrix(0.35789391,0,0,0.31963556,-18.485471,0.45648095)"
       x1="74.838791"
       y1="4.535933"
       x2="74.838791"
       y2="49.779099" /><linearGradient
       x1="23.99999"
       y1="7.3570666"
       x2="23.99999"
       y2="40.649975"
       id="linearGradient3304-3"
       xlink:href="#linearGradient1236"
       gradientUnits="userSpaceOnUse"
       gradientTransform="matrix(0.35135145,0,0,0.27027036,-0.4324296,3.0135165)" /><linearGradient
       id="linearGradient909"><stop
         id="stop901"
         style="stop-color:#64baff;stop-opacity:1"
         offset="0" /><stop
         id="stop907"
         style="stop-color:#3689e6;stop-opacity:1"
         offset="1" /></linearGradient><linearGradient
       xlink:href="#linearGradient909"
       id="linearGradient1111"
       gradientUnits="userSpaceOnUse"
       gradientTransform="matrix(0.27272723,0,0,0.20826451,-0.7272708,2.8355355)"
       x1="31.781376"
       y1="-11.234498"
       x2="31.781376"
       y2="67.800774" /><linearGradient
       x1="33.010906"
       y1="10.566592"
       x2="33.010906"
       y2="40.907867"
       id="linearGradient3304-5"
       xlink:href="#linearGradient3924-4-8"
       gradientUnits="userSpaceOnUse"
       gradientTransform="matrix(0.29751073,0,0,0.2972973,0.85974673,-0.13911798)" /></defs><metadata
     id="metadata4377"><rdf:RDF><cc:Work
         rdf:about=""><dc:format>image/svg+xml</dc:format><dc:type
           rdf:resource="http://purl.org/dc/dcmitype/StillImage" /></cc:Work></rdf:RDF></metadata><rect
     style="color:#000000;font-variation-settings:normal;display:inline;overflow:visible;visibility:visible;vector-effect:none;fill:url(#linearGradient2184);fill-opacity:1;fill-rule:nonzero;stroke:none;stroke-width:1;stroke-linecap:butt;stroke-linejoin:miter;stroke-miterlimit:4;stroke-dasharray:none;stroke-dashoffset:0;stroke-opacity:1;-inkscape-stroke:none;marker:none;enable-background:accumulate;stop-color:#000000"
     id="rect5505-21-1-7-2-9-5"
     y="2.000001"
     x="1"
     ry="1.5"
     rx="1.5"
     height="13"
     width="14" /><path
     id="rect5505-21-2-8-2-9"
     style="color:#000000;font-variation-settings:normal;display:inline;overflow:visible;visibility:visible;vector-effect:none;fill:none;fill-opacity:1;stroke:url(#linearGradient3304-5);stroke-width:1;stroke-linecap:round;stroke-linejoin:round;stroke-miterlimit:4;stroke-dasharray:none;stroke-dashoffset:0;stroke-opacity:1;-inkscape-stroke:none;marker:none;enable-background:accumulate;stop-color:#000000"
     d="M 14.49169,3.9901949 V 3.4960542 c 0,-0.5694177 -0.425962,-0.9960937 -0.995379,-0.9960937 H 8.382404"
     sodipodi:nodetypes="cssc" /><path
     id="rect5505-21-2-8"
     style="color:#000000;font-variation-settings:normal;display:inline;overflow:visible;visibility:visible;opacity:1;vector-effect:none;fill:none;fill-opacity:1;stroke:url(#linearGradient2140);stroke-width:0.999921;stroke-linecap:butt;stroke-linejoin:round;stroke-miterlimit:4;stroke-dasharray:none;stroke-dashoffset:0;stroke-opacity:1;-inkscape-stroke:none;marker:none;enable-background:accumulate;stop-color:#000000;stop-opacity:1"
     d="M 15.5,4.9980074 V 3.4999605 c 0,-1.1079978 -0.892002,-2 -2,-2 H 7.3862679 C 6.7020624,1.4999605 6.6121791,1.1894057 6.169471,0.87691361 5.8388729,0.64355611 5.4369449,0.49996051 4.9995491,0.49996051 H 2.4996406 c -1.1079977,0 -2,0.89200219 -2,1.99999999 v 2.5019531"
     sodipodi:nodetypes="csssssssc" /><path
     id="rect5505-21-2-8-2"
     style="color:#000000;font-variation-settings:normal;display:inline;overflow:visible;visibility:visible;opacity:1;vector-effect:none;fill:none;fill-opacity:1;stroke:url(#linearGradient3304);stroke-width:1;stroke-linecap:round;stroke-linejoin:round;stroke-miterlimit:4;stroke-dasharray:none;stroke-dashoffset:0;stroke-opacity:1;-inkscape-stroke:none;marker:none;enable-background:accumulate;stop-color:#000000;stop-opacity:1"
     d="m 7.3862678,2.4999605 c -0.4942824,0 -0.9878396,-0.168584 -1.2851562,-0.3808594 C 5.8037951,1.9068256 5.7090226,1.7777018 5.5893929,1.6933199 5.4132727,1.5690921 5.215519,1.4999605 4.997596,1.4999605 H 2.4957343 c -0.5698261,0 -0.9960937,0.4266762 -0.9960937,0.9960937 v 1.4980469"
     sodipodi:nodetypes="csssssc" /><rect
     width="15"
     height="12"
     rx="2"
     ry="2"
     x="0.5"
     y="3.5"
     id="rect5505-21-2"
     style="color:#000000;font-variation-settings:normal;display:inline;overflow:visible;visibility:visible;opacity:1;vector-effect:none;fill:url(#linearGradient1111);fill-opacity:1;fill-rule:nonzero;stroke:#0d52bf;stroke-width:1;stroke-linecap:butt;stroke-linejoin:miter;stroke-miterlimit:4;stroke-dasharray:none;stroke-dashoffset:0;stroke-opacity:0.5;-inkscape-stroke:none;marker:none;enable-background:accumulate;stop-color:#000000;stop-opacity:1" /><path
     style="color:#000000;fill:#0d52bf;fill-opacity:0.15;stroke-linejoin:round;-inkscape-stroke:none"
     d="m 9.999999,4 c -0.552262,5.52e-5 -0.999945,0.4477381 -1,1 V 5.046875 L 8.658202,4.7480469 c -0.376945,-0.3295022 -0.939461,-0.3295022 -1.316406,0 L 2.3417959,9.123047 C 1.924244,9.488414 1.8839264,10.123853 2.2519519,10.539063 l 1,1.125 c 0.1919806,0.209416 0.4639661,0.327299 0.7480471,0.324218 V 14 c 5.52e-5,0.552262 0.4477381,0.999945 1,1 h 2 c 0.552262,-5.5e-5 0.999945,-0.447738 1,-1 5.5e-5,0.552262 0.447738,0.999945 1,1 h 2 c 0.552262,-5.5e-5 0.999945,-0.447738 1,-1 v -2.011719 c 0.284081,0.0031 0.556066,-0.114802 0.748047,-0.324218 l 1,-1.125 c 0.368027,-0.415209 0.327711,-1.050648 -0.08984,-1.416016 L 12.77539,8.349609 C 12.873911,8.250084 12.950433,8.130977 12.999999,8 V 5 c -5.5e-5,-0.5522619 -0.447738,-0.9999448 -1,-1 z"
     id="path5347-6"
     sodipodi:nodetypes="ccccccccccccccccccccccccc" /><path
     d="m 7.999999,4.5 -5,4.375 1,1.125 1.0000001,-1 v 4 H 6.999999 v -2.239364 c 0,-0.277 0.309277,-0.760636 1,-0.760636 0.690723,0 1,0.495588 1,0.760636 V 13 h 2 V 9 l 1,1 1,-1.125 z"
     id="path4814-7"
     style="color:#000000;display:inline;overflow:visible;visibility:visible;fill:#002e99;fill-opacity:0.2;fill-rule:nonzero;stroke:none;stroke-width:1;stroke-dasharray:none;marker:none;enable-background:accumulate"
     sodipodi:nodetypes="ccccccszscccccc" /><path
     d="m 7.999999,6.5 -5,4.375 1,1.125 1.0000001,-1 v 4 H 6.999999 v -2.239364 c 0,-0.277 0.309277,-0.760636 1,-0.760636 0.690723,0 1,0.495588 1,0.760636 V 15 h 2 v -4 l 1,1 1,-1.125 z m 2,-0.5 v 1.25 l 2,1.75 V 6 Z"
     id="path4754-5"
     style="color:#000000;display:inline;overflow:visible;visibility:visible;fill:#002e99;fill-opacity:0.35;fill-rule:nonzero;stroke:none;stroke-width:1.7;marker:none;enable-background:accumulate"
     sodipodi:nodetypes="ccccccszsccccccccccc" /><path
     d="m 7.999999,5.5 -5,4.375 1,1.125 1.0000001,-1 v 4 H 6.999999 v -2.239364 c 0,-0.277 0.309277,-0.760636 1,-0.760636 0.690723,0 1,0.495588 1,0.760636 V 14 h 2 v -4 l 1,1 1,-1.125 z m 2,-0.5 v 1.25 l 2,1.75 V 5 Z"
     id="path2998-4-8-35"
     style="color:#000000;display:inline;overflow:visible;visibility:visible;fill:#ffffff;fill-opacity:1;fill-rule:nonzero;stroke:none;stroke-width:1.7;marker:none;enable-background:accumulate"
     sodipodi:nodetypes="ccccccszsccccccccccc" /><rect
     width="13.000004"
     height="10.000003"
     x="1.4999986"
     y="4.4999986"
     id="rect6741-0-3-5-5"
     style="opacity:0.3;fill:none;stroke:url(#linearGradient3304-3);stroke-width:0.999996;stroke-linecap:round;stroke-linejoin:round;stroke-miterlimit:4;stroke-dasharray:none;stroke-dashoffset:0;stroke-opacity:1"
     rx="1"
     ry="1" /></svg>
