<?xml version="1.0" encoding="UTF-8" standalone="no"?>
<!-- Created with Inkscape (http://www.inkscape.org/) -->

<svg
   width="16"
   height="16"
   viewBox="0 0 16 16"
   version="1.1"
   id="svg28287"
   inkscape:version="1.2.2 (b0a8486541, 2022-12-01)"
   sodipodi:docname="ubiquity.svg"
   xmlns:inkscape="http://www.inkscape.org/namespaces/inkscape"
   xmlns:sodipodi="http://sodipodi.sourceforge.net/DTD/sodipodi-0.dtd"
   xmlns:xlink="http://www.w3.org/1999/xlink"
   xmlns="http://www.w3.org/2000/svg"
   xmlns:svg="http://www.w3.org/2000/svg">
  <sodipodi:namedview
     id="namedview28289"
     pagecolor="#ffffff"
     bordercolor="#666666"
     borderopacity="1.0"
     inkscape:showpageshadow="2"
     inkscape:pageopacity="0.0"
     inkscape:pagecheckerboard="0"
     inkscape:deskcolor="#d1d1d1"
     inkscape:document-units="px"
     showgrid="false"
     inkscape:zoom="38.05774"
     inkscape:cx="8.4871041"
     inkscape:cy="8.4345524"
     inkscape:window-width="1589"
     inkscape:window-height="863"
     inkscape:window-x="95"
     inkscape:window-y="266"
     inkscape:window-maximized="0"
     inkscape:current-layer="layer1" />
  <defs
     id="defs28284">
    <linearGradient
       id="linearGradient27962">
      <stop
         id="stop27954"
         style="stop-color:#ffffff;stop-opacity:1"
         offset="0" />
      <stop
         id="stop27956"
         style="stop-color:#ffffff;stop-opacity:0.23529412"
         offset="0.507761" />
      <stop
         id="stop27958"
         style="stop-color:#ffffff;stop-opacity:0.15686275"
         offset="0.83456558" />
      <stop
         id="stop27960"
         style="stop-color:#ffffff;stop-opacity:0.44999999;"
         offset="1" />
    </linearGradient>
    <linearGradient
       inkscape:collect="always"
       id="linearGradient27878">
      <stop
         style="stop-color:#002e99;stop-opacity:0.5;"
         offset="0"
         id="stop27874" />
      <stop
         style="stop-color:#002e99;stop-opacity:0.60000002;"
         offset="1"
         id="stop27876" />
    </linearGradient>
    <linearGradient
       inkscape:collect="always"
       id="linearGradient14470">
      <stop
         style="stop-color:#fafafa;stop-opacity:1"
         offset="0"
         id="stop14466" />
      <stop
         style="stop-color:#d4d4d4;stop-opacity:1"
         offset="1"
         id="stop14468" />
    </linearGradient>
    <linearGradient
       id="linearGradient4011">
      <stop
         id="stop4013"
         style="stop-color:#ffffff;stop-opacity:1"
         offset="0" />
      <stop
         id="stop4015-3"
         style="stop-color:#ffffff;stop-opacity:0.23529412"
         offset="0.507761" />
      <stop
         id="stop4017-2"
         style="stop-color:#ffffff;stop-opacity:0.15686275"
         offset="0.83456558" />
      <stop
         id="stop4019"
         style="stop-color:#ffffff;stop-opacity:0.39215687"
         offset="1" />
    </linearGradient>
    <linearGradient
       gradientTransform="matrix(0.18918932,0,0,0.18918915,-2.5712171,6.2026872)"
       gradientUnits="userSpaceOnUse"
       xlink:href="#linearGradient4011"
       id="linearGradient12398-3-3"
       y2="44.340794"
       x2="71.204407"
       y1="6.2375584"
       x1="71.204407" />
    <linearGradient
       inkscape:collect="always"
       xlink:href="#linearGradient14470"
       id="linearGradient14016"
       gradientUnits="userSpaceOnUse"
       gradientTransform="matrix(0.48698086,0,0,0.48698081,22.102927,-0.1068919)"
       x1="-26.447308"
       y1="12.065456"
       x2="-26.447308"
       y2="35.164295" />
    <linearGradient
       gradientTransform="matrix(0.27027044,0,0,0.2702705,-12.88745,-0.35331355)"
       gradientUnits="userSpaceOnUse"
       xlink:href="#linearGradient27962"
       id="linearGradient3019"
       y2="44.340794"
       x2="71.204407"
       y1="6.2375584"
       x1="71.204407" />
    <linearGradient
       inkscape:collect="always"
       xlink:href="#linearGradient1499"
       id="linearGradient1461"
       x1="21.373114"
       y1="2.9713831"
       x2="21.373114"
       y2="48.874634"
       gradientUnits="userSpaceOnUse"
       gradientTransform="matrix(0.29268292,0,0,0.29268293,5.4683825,1.9651376)" />
    <linearGradient
       inkscape:collect="always"
       id="linearGradient1499">
      <stop
         style="stop-color:#0066ff;stop-opacity:1;"
         offset="0"
         id="stop1497" />
      <stop
         style="stop-color:#0047b2;stop-opacity:1;"
         offset="1"
         id="stop1495" />
    </linearGradient>
    <linearGradient
       inkscape:collect="always"
       xlink:href="#linearGradient27878"
       id="linearGradient27880"
       x1="20.000648"
       y1="0.89390171"
       x2="20.000648"
       y2="41.106098"
       gradientUnits="userSpaceOnUse"
       gradientTransform="matrix(0.29268307,0,0,0.29268305,-0.52439298,0.35365697)" />
  </defs>
  <g
     inkscape:label="Layer 1"
     inkscape:groupmode="layer"
     id="layer1">
    <circle
       style="font-variation-settings:normal;opacity:1;vector-effect:none;fill:url(#linearGradient1461);fill-opacity:1;fill-rule:evenodd;stroke:none;stroke-width:2;stroke-linecap:round;stroke-linejoin:miter;stroke-miterlimit:4;stroke-dasharray:none;stroke-dashoffset:0;stroke-opacity:0.501961;-inkscape-stroke:none;stop-color:#000000;stop-opacity:1"
       id="path320"
       cx="6.5"
       cy="6.5"
       r="6" />
    <ellipse
       style="font-variation-settings:normal;opacity:1;vector-effect:none;fill:none;fill-opacity:1;fill-rule:evenodd;stroke:url(#linearGradient27880);stroke-width:0.999997;stroke-linecap:round;stroke-linejoin:round;stroke-miterlimit:3.42857;stroke-dasharray:none;stroke-dashoffset:0;stroke-opacity:1;-inkscape-stroke:none;stop-color:#000000;stop-opacity:1"
       id="circle13890"
       cx="6.5"
       cy="6.5000005"
       rx="6.0000029"
       ry="6.0000019" />
    <path
       style="color:#000000;display:inline;overflow:visible;visibility:visible;opacity:0.3;fill:none;stroke:url(#linearGradient3019);stroke-width:0.999991;stroke-linecap:round;stroke-linejoin:round;stroke-miterlimit:4;stroke-dasharray:none;stroke-dashoffset:0;stroke-opacity:1;marker:none;enable-background:accumulate"
       id="path8655"
       d="m 11.500004,6.4998229 c 0,2.7615161 -2.2387432,5.0001811 -4.9999412,5.0001811 -2.7614502,0 -5.0000669,-2.2386913 -5.0000669,-5.0001811 0,-2.7613875 2.2386167,-4.9998269 5.0000669,-4.9998269 2.761198,0 4.9999412,2.2384394 4.9999412,4.9998269 z" />
    <path
       style="color:#000000;font-variation-settings:normal;display:inline;overflow:visible;visibility:visible;opacity:1;vector-effect:none;fill:url(#linearGradient14016);fill-opacity:1;fill-rule:nonzero;stroke:#002e99;stroke-width:1;stroke-linecap:round;stroke-linejoin:round;stroke-miterlimit:3.42857;stroke-dasharray:none;stroke-dashoffset:0;stroke-opacity:0.5;-inkscape-stroke:none;marker:none;enable-background:accumulate;stop-color:#000000;stop-opacity:1"
       id="path2555-7-8-5-0-9"
       d="M 10.999999,6.5 C 8.5170539,6.5 6.5,8.5170529 6.5,10.999999 6.5,13.482945 8.5170539,15.5 10.999999,15.5 13.482945,15.5 15.500003,13.482945 15.5,10.999999 15.5,8.5170529 13.482945,6.5 10.999999,6.5 Z" />
    <path
       style="color:#000000;display:inline;overflow:visible;visibility:visible;opacity:0.5;fill:none;stroke:url(#linearGradient12398-3-3);stroke-width:1;stroke-linecap:round;stroke-linejoin:round;stroke-miterlimit:4;stroke-dasharray:none;stroke-dashoffset:0;stroke-opacity:1;marker:none;enable-background:accumulate"
       id="path8655-6-0-9-5-0"
       d="M 14.5,10.999871 C 14.5,12.932934 12.932881,14.5 11.000046,14.5 9.067027,14.5 7.5,12.932916 7.5,10.999871 7.5,9.0669072 9.067027,7.5 11.000046,7.5 12.932881,7.5 14.5,9.0669072 14.5,10.999871 Z" />
    <path
       id="path32058"
       style="font-variation-settings:normal;vector-effect:none;fill:#ffffff;fill-opacity:1;stroke:none;stroke-width:0.999997;stroke-linecap:butt;stroke-linejoin:miter;stroke-miterlimit:4;stroke-dasharray:none;stroke-dashoffset:0;stroke-opacity:1;-inkscape-stroke:none;marker:none;stop-color:#000000"
       d="m 13.355202,11.663634 c 0,-0.229369 -0.160202,-0.414023 -0.359199,-0.414023 H 11.99984 V 9.414025 C 11.99984,9.184654 11.839641,9 11.640646,9 H 10.359035 C 10.16004,9 9.9996425,9.184654 9.9998405,9.414025 v 1.835586 H 8.9271961 c -0.1989942,0 -0.3591961,0.184654 -0.3591961,0.414023 0,0.123625 0.046606,0.233974 0.1206692,0.309712 l 1.8111708,2.356883 c 0.06433,0.07 0.361638,0.113218 0.457089,0.113218 0.09545,0 0.478581,-0.04319 0.542911,-0.113218 l 1.734698,-2.356883 c 0.07406,-0.07574 0.12067,-0.186091 0.12067,-0.309712 z"
       sodipodi:nodetypes="sscsssccssccsccss" />
    <path
       id="path873-5"
       style="font-variation-settings:normal;vector-effect:none;fill:#1366df;fill-opacity:1;stroke:none;stroke-width:0.999998;stroke-linecap:butt;stroke-linejoin:miter;stroke-miterlimit:4;stroke-dasharray:none;stroke-dashoffset:0;stroke-opacity:1;-inkscape-stroke:none;marker:none;stop-color:#000000"
       d="M 12.999836,11.388899 C 12.999836,11.173449 12.865976,11 12.699704,11 H 9.2999705 c -0.166271,0 -0.30013,0.173449 -0.30013,0.388899 0,0.116115 0.03895,0.219775 0.100827,0.290915 l 1.6895135,2.213851 C 10.84393,13.959425 10.91618,14 10.995934,14 c 0.07976,0 0.152001,-0.04058 0.205755,-0.106335 l 1.697324,-2.213851 c 0.06188,-0.07114 0.100827,-0.174797 0.100827,-0.290915 z"
       sodipodi:nodetypes="sccsccsccs" />
    <rect
       style="font-variation-settings:normal;opacity:1;vector-effect:none;fill:#1366df;fill-opacity:1;stroke:none;stroke-width:0.999999;stroke-linecap:butt;stroke-linejoin:miter;stroke-miterlimit:4;stroke-dasharray:none;stroke-dashoffset:0;stroke-opacity:1;-inkscape-stroke:none;marker:none;stop-color:#000000;stop-opacity:1"
       id="rect1116"
       width="2"
       height="4"
       x="9.9998407"
       y="9"
       rx="0.25"
       ry="0.25" />
    <path
       id="path20812"
       d="m 8.1763466,4.9623328 c -0.00633,0.1546065 0.024325,0.4879875 0.2162735,0.5136695 0.2288296,0.02854 0.3022816,-0.170309 0.3272256,-0.3257255 0.079382,-0.494635 0.1014415,-0.6424855 0.141107,-1.0906705 0.04675,-0.5282258 0.1696769,-1.41927 -0.045185,-1.3361824 -0.217684,0.084178 -0.3905906,0.7959055 -0.4472291,1.0941799 -0.044125,0.2323661 -0.181318,0.879248 -0.1921905,1.144729 z"
       style="fill:#000000;fill-opacity:0.5;stroke:none;stroke-width:1.50002" />
    <path
       id="path8239"
       d="m 5.4808698,4.1825865 c -0.075274,0.3734964 0.032894,0.801022 0.1841132,1.3179917 0.00913,0.031184 -0.00856,0.071102 -0.024545,0.075753 C 5.57178,5.5963092 5.4540609,5.5750212 5.431277,5.5282772 5.3134478,5.2863917 5.2574152,5.0390325 5.1197714,4.8009069 5.0245646,4.6361958 4.9260767,4.4790335 4.8087632,4.3727632 4.6662671,4.2436799 4.5546047,4.2183122 4.402137,4.2819988 4.2098004,4.3623377 4.0936029,4.5549587 4.0537467,4.7276854 c -0.040446,0.1752863 -0.023522,0.3776338 0.00813,0.5532314 0.03725,0.206672 0.084629,0.3697683 0.1455302,0.5631644 -0.046467,0.1373541 -0.3261173,0.8912066 -0.393727,1.413823 -0.0868,0.6708969 -0.3308913,2.7008484 1.9063732,2.4751583 C 6.545243,9.649819 7.2176667,9.360687 7.8539931,9.0640411 8.1455927,8.9281025 8.5113992,8.7527305 8.8630563,8.5596246 9.2148836,8.3664268 9.5412755,8.1605045 9.7907432,7.9413072 10.040615,7.7217545 10.222626,7.48125 10.189485,7.2416327 10.136079,6.8554776 9.8799273,6.5684091 9.5384774,6.3467001 9.1957571,6.1241676 8.6105558,5.9173812 8.1876073,5.7938353 7.6326519,5.6317302 7.2030288,5.5687199 6.6821781,5.5403868 6.6530101,5.012816 6.7233512,4.3185691 6.3892179,3.9141262 6.3118327,3.8204576 6.1990209,3.7609068 6.0637138,3.7514114 5.8462657,3.7601665 5.5507424,3.8358782 5.480868,4.1825865 Z"
       style="fill:none;fill-opacity:1;stroke:#002e99;stroke-width:2;stroke-dasharray:none;stroke-opacity:0.15" />
    <path
       id="path20810"
       d="m 5.2150506,3.840056 c -0.084833,0.4443633 0.037075,0.9530068 0.2074931,1.5680668 0.01029,0.037105 -0.00965,0.084592 -0.02766,0.090126 -0.077377,0.02377 -0.210044,-0.00155 -0.2357215,-0.057171 C 5.0263711,5.1532963 4.9632231,4.8590033 4.8081002,4.5756958 4.7008026,4.3797321 4.5898076,4.1927503 4.4575966,4.0663165 4.2970056,3.9127408 4.1711631,3.8825603 3.9993344,3.9583306 3.7825719,4.0539132 3.6516189,4.2830813 3.6067019,4.4885813 c -0.04558,0.2085455 -0.02651,0.4492855 0.00915,0.658201 0.041975,0.2458865 0.095376,0.439928 0.1640115,0.670019 C 3.7274969,5.9802173 3.4123324,6.8771054 3.3361369,7.4988824 3.2383204,8.2970749 2.963231,10.712188 5.4846036,10.443676 6.4145863,10.344638 7.1723998,10.000647 7.8895333,9.647715 8.2181623,9.4859834 8.6304223,9.2773354 9.0267366,9.0475904 9.4232416,8.8177354 9.791081,8.5727409 10.072229,8.3119539 10.353832,8.0507429 10.558956,7.7646059 10.521607,7.4795229 10.461417,7.0200999 10.172736,6.6785629 9.787926,6.4147869 9.4016836,6.1500313 8.7421683,5.9040098 8.2655103,5.7570213 7.6400818,5.5641593 7.1559008,5.4891938 6.5689088,5.4554838 6.5360363,4.8278123 6.6153103,4.0018398 6.2387453,3.5206584 6.1515328,3.4092171 6.0243956,3.3383668 5.8719056,3.32707 5.6268441,3.3374847 5.2937922,3.4275631 5.2150446,3.840056 Z"
       style="fill:#0044aa;fill-opacity:0.6;stroke:none;stroke-width:1.50002" />
    <path
       style="fill:#000000;fill-opacity:0.5;stroke:none;stroke-width:1.50002"
       d="M 9.1787066,5.0744413 C 9.0533546,5.3832348 8.9940645,5.6499788 9.1672966,5.7405938 9.3737546,5.8485893 9.5521947,5.6394853 9.61026,5.4942583 9.785362,5.0563013 9.882292,4.7911488 10.017384,4.4599109 10.216125,3.9726117 10.712165,3.0365399 10.384791,3.0861831 10.155308,3.1209871 9.846637,3.736205 9.698567,3.9972012 9.5076547,4.3324194 9.3592406,4.6297012 9.1787066,5.0744413 Z"
       id="path20814" />
    <path
       id="path12949"
       d="m 5.3070871,3.7237375 c -0.080195,0.3982982 0.035045,0.8542134 0.1961505,1.4055123 0.00973,0.033255 -0.00912,0.075823 -0.02615,0.080783 -0.073147,0.021305 -0.1985625,-0.0014 -0.222836,-0.051245 C 5.128719,4.9008403 5.069023,4.6370553 4.92238,4.3831171 4.8209485,4.2074685 4.7160215,4.0398699 4.591038,3.9265428 4.4392255,3.7888877 4.3202625,3.7618355 4.1578265,3.8297512 3.9529148,3.915425 3.8291203,4.1208369 3.7866583,4.3050334 c -0.04309,0.1869261 -0.02506,0.4027104 0.00866,0.5899684 0.039685,0.220396 0.090162,0.3943226 0.155045,0.6005611 -0.049505,0.146475 -0.347439,0.9503867 -0.419469,1.5077072 C 3.4384198,7.7187176 3.1783693,9.883467 5.5619066,9.64279 6.4410492,9.5540188 7.1574362,9.2456871 7.8353657,8.9293426 8.1460302,8.7843771 8.5357532,8.5973596 8.9104017,8.3914306 9.2852316,8.1854036 9.632963,7.9658071 9.898741,7.7320541 10.16495,7.4979221 10.35886,7.2414471 10.323553,6.9859181 10.266655,6.5741206 9.993756,6.2679894 9.629982,6.0315579 9.2648546,5.7942483 8.6413927,5.5737303 8.1907917,5.4419804 7.5995532,5.2691108 7.1418412,5.2019164 6.5869372,5.1717018 6.5558622,4.6090979 6.6308022,3.8687499 6.2748232,3.4374502 6.1923785,3.3375616 6.072191,3.2740564 5.9280375,3.2639304 5.6963726,3.2732669 5.381528,3.3540062 5.3070851,3.7237375 Z"
       style="fill:#ffffff;fill-opacity:1;stroke:none;stroke-width:1.50002" />
    <path
       id="path12953"
       d="m 8.1064986,4.7296737 c -0.00598,0.138579 0.02299,0.4373996 0.2044505,0.4604195 C 8.5272691,5.2156732 8.596706,5.0374387 8.620286,4.8981338 8.69533,4.4547755 8.716182,4.3222518 8.7536795,3.9205281 8.7978745,3.4470614 8.9140805,2.648387 8.7109645,2.7228615 8.5051796,2.7983132 8.3417261,3.4362592 8.2881841,3.7036128 8.2464741,3.9118909 8.1167781,4.4917129 8.1064986,4.7296737 Z"
       style="fill:#ffffff;fill-opacity:1;stroke:none;stroke-width:1.50002" />
    <path
       style="fill:#ffffff;fill-opacity:1;stroke:none;stroke-width:1.50002"
       d="m 9.0540626,4.8301602 c -0.118498,0.2767815 -0.174547,0.515873 -0.01078,0.597095 0.195171,0.0968 0.363856,-0.090626 0.418747,-0.220799 C 9.62756,4.8138997 9.71919,4.5762347 9.846898,4.2793346 10.034775,3.8425518 10.503698,3.0035183 10.19422,3.0480155 9.977282,3.0792095 9.685485,3.6306526 9.5455097,3.8645928 9.3650336,4.1650597 9.2247326,4.4315241 9.0540676,4.8301602 Z"
       id="path12955" />
  </g>
</svg>
