<?xml version="1.0" encoding="UTF-8" standalone="no"?>
<svg
   version="1.0"
   width="16"
   height="16"
   id="svg3540"
   sodipodi:docname="ubiquity.svg"
   inkscape:version="1.2.2 (b0a8486541, 2022-12-01)"
   xmlns:inkscape="http://www.inkscape.org/namespaces/inkscape"
   xmlns:sodipodi="http://sodipodi.sourceforge.net/DTD/sodipodi-0.dtd"
   xmlns:xlink="http://www.w3.org/1999/xlink"
   xmlns="http://www.w3.org/2000/svg"
   xmlns:svg="http://www.w3.org/2000/svg"
   xmlns:rdf="http://www.w3.org/1999/02/22-rdf-syntax-ns#"
   xmlns:cc="http://creativecommons.org/ns#"
   xmlns:dc="http://purl.org/dc/elements/1.1/">
  <sodipodi:namedview
     id="namedview84"
     pagecolor="#ffffff"
     bordercolor="#666666"
     borderopacity="1.0"
     inkscape:pageshadow="2"
     inkscape:pageopacity="0.0"
     inkscape:pagecheckerboard="0"
     showgrid="false"
     inkscape:zoom="64"
     inkscape:cx="12.6875"
     inkscape:cy="10.46875"
     inkscape:window-width="1317"
     inkscape:window-height="893"
     inkscape:window-x="601"
     inkscape:window-y="108"
     inkscape:window-maximized="0"
     inkscape:current-layer="svg3540"
     inkscape:showpageshadow="2"
     inkscape:deskcolor="#d1d1d1" />
  <metadata
     id="metadata4201">
    <rdf:RDF>
      <cc:Work
         rdf:about="">
        <dc:format>image/svg+xml</dc:format>
        <dc:type
           rdf:resource="http://purl.org/dc/dcmitype/StillImage" />
      </cc:Work>
    </rdf:RDF>
  </metadata>
  <defs
     id="defs3542">
    <linearGradient
       id="linearGradient4011">
      <stop
         offset="0"
         style="stop-color:#ffffff;stop-opacity:1"
         id="stop4013" />
      <stop
         offset="0.507761"
         style="stop-color:#ffffff;stop-opacity:0.23529412"
         id="stop4015" />
      <stop
         offset="0.83456558"
         style="stop-color:#ffffff;stop-opacity:0.15686275"
         id="stop4017" />
      <stop
         offset="1"
         style="stop-color:#ffffff;stop-opacity:0.39215687"
         id="stop4019" />
    </linearGradient>
    <linearGradient
       xlink:href="#linearGradient3742"
       id="linearGradient3730-2"
       gradientUnits="userSpaceOnUse"
       gradientTransform="matrix(0.163584,0,0,0.34628289,-12.263087,0.37367311)"
       x1="118.57409"
       y1="4.5651455"
       x2="118.57409"
       y2="30.817942" />
    <linearGradient
       id="linearGradient3742">
      <stop
         offset="0"
         style="stop-color:#ffffff;stop-opacity:1"
         id="stop3734" />
      <stop
         offset="0.00000001"
         style="stop-color:#ffffff;stop-opacity:0.23529412"
         id="stop3736" />
      <stop
         offset="1"
         style="stop-color:#ffffff;stop-opacity:0.15686275"
         id="stop3738" />
      <stop
         offset="1"
         style="stop-color:#ffffff;stop-opacity:0.39215687"
         id="stop3740" />
    </linearGradient>
    <linearGradient
       gradientTransform="matrix(0.28675946,0,0,0.27673617,3.098382,-0.65332472)"
       gradientUnits="userSpaceOnUse"
       xlink:href="#linearGradient3600-8"
       id="linearGradient5466-8-3-0"
       y2="45.68882"
       x2="11.098394"
       y1="5.9702148"
       x1="11.098394" />
    <linearGradient
       id="linearGradient3600-8">
      <stop
         offset="0"
         style="stop-color:#f4f4f4;stop-opacity:1"
         id="stop3602-2" />
      <stop
         offset="1"
         style="stop-color:#dbdbdb;stop-opacity:1"
         id="stop3604-5" />
    </linearGradient>
    <linearGradient
       xlink:href="#linearGradient4614"
       id="linearGradient4604-6"
       gradientUnits="userSpaceOnUse"
       gradientTransform="matrix(0.14345115,0,0,0.17047815,-10.138461,19.022438)"
       x1="116.7913"
       y1="-35.32711"
       x2="116.7913"
       y2="-28.483252" />
    <linearGradient
       id="linearGradient4614">
      <stop
         id="stop4606"
         style="stop-color:#ffffff;stop-opacity:1"
         offset="0" />
      <stop
         id="stop4608"
         style="stop-color:#ffffff;stop-opacity:0.23529412"
         offset="0.09812192" />
      <stop
         id="stop4610"
         style="stop-color:#ffffff;stop-opacity:0.15686275"
         offset="0.9812181" />
      <stop
         id="stop4612"
         style="stop-color:#ffffff;stop-opacity:0.39215687"
         offset="1" />
    </linearGradient>
    <linearGradient
       xlink:href="#linearGradient7056"
       id="linearGradient4763-1"
       x1="25"
       y1="-35"
       x2="25"
       y2="-44.395805"
       gradientUnits="userSpaceOnUse"
       gradientTransform="matrix(0.33333333,0,0,0.33333333,-2.999999,25.333294)" />
    <linearGradient
       id="linearGradient7056">
      <stop
         offset="0"
         style="stop-color:#e6e6e6;stop-opacity:1"
         id="stop7064" />
      <stop
         offset="1"
         style="stop-color:#c8c8c8;stop-opacity:1"
         id="stop7060" />
    </linearGradient>
    <linearGradient
       x1="2035.1652"
       y1="3197.085"
       x2="2035.1652"
       y2="3233.1128"
       id="linearGradient11527-6-5-3-8"
       xlink:href="#linearGradient947-5"
       gradientUnits="userSpaceOnUse"
       gradientTransform="matrix(0.30658642,0,0,0.22920283,-613.57423,-727.57825)" />
    <linearGradient
       id="linearGradient947-5">
      <stop
         id="stop943-6"
         style="stop-color:#64baff;stop-opacity:1"
         offset="0" />
      <stop
         id="stop945-2"
         style="stop-color:#3689e6;stop-opacity:1"
         offset="1" />
    </linearGradient>
    <linearGradient
       x1="71.204407"
       y1="6.2375584"
       x2="71.204407"
       y2="44.340794"
       id="linearGradient3071-0"
       xlink:href="#linearGradient4011"
       gradientUnits="userSpaceOnUse"
       gradientTransform="matrix(0.16216217,0,0,0.16216217,-0.132464,7.3880153)" />
  </defs>
  <rect
     x="2.500001"
     y="10.499961"
     width="5"
     height="5"
     ry="0.5"
     rx="0.5"
     style="fill:url(#linearGradient4763-1);fill-opacity:1;stroke:none;stroke-width:1"
     id="rect3448-7-9" />
  <rect
     x="2.500001"
     y="10.499961"
     width="5"
     height="5"
     ry="0.5"
     rx="0.5"
     style="opacity:0.4;fill:none;stroke:#000000;stroke-width:1;stroke-opacity:1"
     id="rect3448-9-2" />
  <path
     id="rect3450-0"
     d="m 3.500001,12.49996 v -1 h 1 v 1 z m 2,0 v -1 h 1 v 1 z"
     style="opacity:0.35;fill:#000000;fill-opacity:0.335988;stroke:#000000;stroke-width:1;stroke-linecap:butt;stroke-linejoin:miter;stroke-miterlimit:4;stroke-dasharray:none;stroke-dashoffset:0;stroke-opacity:1" />
  <rect
     x="3.500001"
     y="12.5"
     width="3"
     height="2"
     style="opacity:0.6;fill:none;fill-opacity:1;stroke:url(#linearGradient4604-6);stroke-width:1;stroke-linecap:round;stroke-linejoin:round;stroke-miterlimit:4;stroke-dasharray:none;stroke-dashoffset:0;stroke-opacity:1;marker:none"
     id="rect3458-2" />
  <rect
     id="rect5391-3"
     style="opacity:0.3;vector-effect:none;fill:none;fill-opacity:1;stroke:#000000;stroke-width:0.999924;stroke-linecap:butt;stroke-linejoin:round;stroke-miterlimit:4;stroke-dasharray:none;stroke-dashoffset:0;stroke-opacity:1;marker:none"
     rx="0.99999994"
     ry="1"
     height="12.000078"
     width="7.0000782"
     y="0.49996099"
     x="1.499962" />
  <rect
     x="2.000001"
     y="0.99996102"
     width="6"
     height="11"
     rx="0.5"
     style="fill:url(#linearGradient5466-8-3-0);fill-opacity:1;stroke:none;stroke-width:0.999918;stroke-linecap:butt;stroke-linejoin:round;stroke-miterlimit:4;stroke-dasharray:none;stroke-dashoffset:0;stroke-opacity:1;marker:none"
     id="rect5391-5-7"
     ry="0.5" />
  <rect
     x="2.500001"
     y="1.499952"
     width="5"
     height="10"
     style="fill:none;fill-opacity:1;stroke:url(#linearGradient3730-2);stroke-width:1;stroke-linecap:round;stroke-linejoin:round;stroke-miterlimit:4;stroke-dasharray:none;stroke-dashoffset:0;stroke-opacity:1;marker:none"
     id="rect5391-2-0-5" />
  <path
     d="m 11.499999,7.4999991 c -2.2070629,0 -4,1.7929372 -4,3.9999999 0,2.207062 1.7929371,4 4,4 2.207062,0 4.000004,-1.792938 4,-4 0,-2.2070627 -1.792938,-3.9999998 -4,-3.9999999 z"
     id="path2555-7-8-5-0-9-2"
     style="color:#000000;display:inline;overflow:visible;visibility:visible;opacity:0.99;fill:url(#linearGradient11527-6-5-3-8);fill-opacity:1;fill-rule:nonzero;stroke:none;stroke-width:1;marker:none;enable-background:accumulate" />
  <path
     style="color:#000000;clip-rule:nonzero;display:inline;overflow:visible;visibility:visible;opacity:0.5;isolation:auto;mix-blend-mode:normal;color-interpolation:sRGB;color-interpolation-filters:linearRGB;solid-color:#000000;solid-opacity:1;fill:none;fill-opacity:1;fill-rule:nonzero;stroke:#002e99;stroke-width:1;stroke-linecap:round;stroke-linejoin:round;stroke-miterlimit:4;stroke-dasharray:none;stroke-dashoffset:0;stroke-opacity:1;marker:none;color-rendering:auto;image-rendering:auto;shape-rendering:auto;text-rendering:auto;enable-background:accumulate"
     id="path2555-7"
     d="M 11.500002,7.5 C 9.2929391,7.5 7.5,9.2929384 7.5,11.500001 c 0,2.207063 1.7929391,4.000002 4.000002,4.000001 2.207061,0 4.000002,-1.792938 4,-4.000001 0,-2.2070627 -1.792939,-4.000001 -4,-4.000001 z" />
  <path
     style="color:#000000;display:inline;overflow:visible;visibility:visible;opacity:0.5;fill:none;stroke:url(#linearGradient3071-0);stroke-width:1;stroke-linecap:round;stroke-linejoin:round;stroke-miterlimit:4;stroke-dasharray:none;stroke-dashoffset:0;stroke-opacity:1;marker:none;enable-background:accumulate"
     id="path8655-6"
     d="M 14.5,11.499894 C 14.5,13.156801 13.156755,14.5 11.500038,14.5 c -1.6568687,0 -3.0000379,-1.343214 -3.0000379,-3.000106 0,-1.656831 1.3431692,-2.9998938 3.0000379,-2.9998938 1.656717,0 2.999962,1.3430628 2.999962,2.9998938 z" />
  <path
     style="color:#000000;opacity:0.15;fill:#002e99;-inkscape-stroke:none"
     d="M 11.25,8 C 10.793956,8.037903 10.337285,8.3085004 10.117188,8.7148438 9.9292115,9.0918723 10.021277,9.5170898 10,9.9208504 10.03434,10.073851 9.8115584,9.9697295 9.7231685,10 c -0.406169,-0.017196 -0.8413544,0.01442 -1.1663728,0.289033 -0.6349247,0.458246 -0.7452508,1.483868 -0.1785153,2.039559 0.7095334,0.76188 1.4163506,1.526379 2.1275766,2.286627 0.5823,0.564398 1.622705,0.493858 2.123328,-0.143186 0.691062,-0.746669 1.38883,-1.487463 2.075706,-2.237798 0.499827,-0.598651 0.316427,-1.588291 -0.336555,-1.999404 C 13.970373,9.9387104 13.463651,10.007125 13,10 12.978638,9.5554563 13.073822,9.0821896 12.855469,8.671875 12.594243,8.2288126 12.061702,7.9599754 11.550063,8 11.450042,8 11.350021,8 11.25,8 Z"
     id="path27141"
     sodipodi:nodetypes="sscccccsccccsccccccccccsccs" />
  <path
     id="path27078"
     d="m 11.500005,14.999794 c 0.114795,0 0.229604,-0.04081 0.316043,-0.120495 l 2.106942,-2.268104 c 0.194681,-0.217434 -0.0051,-0.603022 -0.316042,-0.611298 H 11.999695 V 10.373092 C 11.991029,10.168617 11.979046,10.007727 11.75,10 h -0.5 c -0.249254,0 -0.248241,0.191843 -0.250188,0.373092 v 1.626805 H 9.3930612 c -0.3109851,0.0083 -0.510724,0.393864 -0.316042,0.611298 l 2.1069428,2.268104 c 0.08643,0.07969 0.201241,0.120495 0.316043,0.120495 z"
     style="vector-effect:none;fill:#002e99;fill-opacity:1;stroke:none;stroke-width:1px;stroke-linecap:butt;stroke-linejoin:miter;stroke-miterlimit:4;stroke-dasharray:none;stroke-dashoffset:0;stroke-opacity:1;marker:none;paint-order:normal;opacity:0.15"
     sodipodi:nodetypes="sccccccccccccs" />
  <path
     id="path818-1"
     d="m 11.500005,14.000248 c 0.114795,0 0.229604,-0.04081 0.316043,-0.120495 l 2.106942,-2.268104 c 0.194681,-0.217434 -0.0051,-0.603022 -0.316042,-0.611298 H 11.999695 V 9.3735458 C 11.991029,9.1690707 11.979046,9.008181 11.75,9.0004542 h -0.5 c -0.249254,0 -0.248241,0.1918428 -0.250188,0.3730916 V 11.000351 H 9.3930612 c -0.3109851,0.0083 -0.510724,0.393864 -0.316042,0.611298 l 2.1069428,2.268104 c 0.08643,0.07969 0.201241,0.120495 0.316043,0.120495 z"
     style="vector-effect:none;fill:#ffffff;fill-opacity:1;stroke:none;stroke-width:1px;stroke-linecap:butt;stroke-linejoin:miter;stroke-miterlimit:4;stroke-dasharray:none;stroke-dashoffset:0;stroke-opacity:1;marker:none;paint-order:normal"
     sodipodi:nodetypes="sccccccccccccs" />
</svg>
