<?xml version="1.0" encoding="UTF-8" standalone="no"?>
<svg
   xmlns:dc="http://purl.org/dc/elements/1.1/"
   xmlns:cc="http://creativecommons.org/ns#"
   xmlns:rdf="http://www.w3.org/1999/02/22-rdf-syntax-ns#"
   xmlns:svg="http://www.w3.org/2000/svg"
   xmlns="http://www.w3.org/2000/svg"
   xmlns:xlink="http://www.w3.org/1999/xlink"
   id="svg5954"
   height="128"
   width="128"
   version="1.0">
  <metadata
     id="metadata98032">
    <rdf:RDF>
      <cc:Work
         rdf:about="">
        <dc:format>image/svg+xml</dc:format>
        <dc:type
           rdf:resource="http://purl.org/dc/dcmitype/StillImage" />
        <dc:title />
      </cc:Work>
    </rdf:RDF>
  </metadata>
  <defs
     id="defs5956">
    <radialGradient
       gradientTransform="matrix(0.0628545,0,0,0.02058823,1.294955,34.451367)"
       gradientUnits="userSpaceOnUse"
       xlink:href="#linearGradient5060"
       id="radialGradient5928"
       fy="486.64789"
       fx="605.71429"
       r="117.14286"
       cy="486.64789"
       cx="605.71429" />
    <linearGradient
       id="linearGradient5048">
      <stop
         offset="0"
         style="stop-color:#000000;stop-opacity:0"
         id="stop5050" />
      <stop
         offset="0.5"
         style="stop-color:#000000;stop-opacity:1"
         id="stop5056" />
      <stop
         offset="1"
         style="stop-color:#000000;stop-opacity:0"
         id="stop5052" />
    </linearGradient>
    <linearGradient
       gradientTransform="matrix(0.0628545,0,0,0.02058823,1.2825853,34.451367)"
       gradientUnits="userSpaceOnUse"
       xlink:href="#linearGradient5048"
       id="linearGradient5931"
       y2="609.50507"
       x2="302.85715"
       y1="366.64789"
       x1="302.85715" />
    <linearGradient
       id="linearGradient5060">
      <stop
         offset="0"
         style="stop-color:#000000;stop-opacity:1"
         id="stop5062" />
      <stop
         offset="1"
         style="stop-color:#000000;stop-opacity:0"
         id="stop5064" />
    </linearGradient>
    <radialGradient
       gradientTransform="matrix(-0.0628545,0,0,0.02058823,46.705044,34.451367)"
       gradientUnits="userSpaceOnUse"
       xlink:href="#linearGradient5060"
       id="radialGradient5934"
       fy="486.64789"
       fx="605.71429"
       r="117.14286"
       cy="486.64789"
       cx="605.71429" />
    <linearGradient
       id="linearGradient18344">
      <stop
         offset="0"
         style="stop-color:#2f3537;stop-opacity:1"
         id="stop18346" />
      <stop
         offset="0.30000001"
         style="stop-color:#8a8e8e;stop-opacity:1"
         id="stop18354" />
      <stop
         offset="1"
         style="stop-color:#2f3537;stop-opacity:1"
         id="stop18348" />
    </linearGradient>
    <linearGradient
       gradientTransform="matrix(2.6592114,0,0,2.6676947,-139.10053,14.143479)"
       gradientUnits="userSpaceOnUse"
       xlink:href="#linearGradient18344"
       id="linearGradient5809"
       y2="45.818478"
       x2="8.5625"
       y1="4.646832"
       x1="8.5625" />
    <linearGradient
       id="linearGradient5428">
      <stop
         offset="0"
         style="stop-color:#7a7c7c;stop-opacity:1"
         id="stop5430" />
      <stop
         offset="1"
         style="stop-color:#33393a;stop-opacity:1"
         id="stop5432" />
    </linearGradient>
    <radialGradient
       gradientTransform="matrix(11.186348,5.1697152e-8,0,0.37399746,-788.57437,41.128866)"
       gradientUnits="userSpaceOnUse"
       xlink:href="#linearGradient5428"
       id="radialGradient5807"
       fy="14.781876"
       fx="76.16552"
       r="20.999798"
       cy="14.781876"
       cx="76.16552" />
    <linearGradient
       id="linearGradient25793">
      <stop
         offset="0"
         style="stop-color:#f0f0f4;stop-opacity:1"
         id="stop25795" />
      <stop
         offset="0.03744119"
         style="stop-color:#eeeeec;stop-opacity:1"
         id="stop25819" />
      <stop
         offset="0.39254159"
         style="stop-color:#eeeeec;stop-opacity:0.69594592"
         id="stop25817" />
      <stop
         offset="0.90799886"
         style="stop-color:#a1a29f;stop-opacity:1"
         id="stop25803" />
      <stop
         offset="1"
         style="stop-color:#555753;stop-opacity:1"
         id="stop25799" />
    </linearGradient>
    <linearGradient
       gradientTransform="matrix(0.41557588,0,0,0.40880427,-236.03469,-86.99928)"
       gradientUnits="userSpaceOnUse"
       xlink:href="#linearGradient25793"
       id="linearGradient5925"
       y2="496.33771"
       x2="700.41443"
       y1="327.78354"
       x1="697.91443" />
    <linearGradient
       id="linearGradient26816">
      <stop
         offset="0"
         style="stop-color:#ffffff;stop-opacity:1"
         id="stop26818" />
      <stop
         offset="1"
         style="stop-color:#eeeeec;stop-opacity:0"
         id="stop26820" />
    </linearGradient>
    <radialGradient
       gradientTransform="matrix(2.8978112,8.5080945e-5,-3.8596587e-5,1.3625737,-1082.0964,-116.64462)"
       gradientUnits="userSpaceOnUse"
       xlink:href="#linearGradient26816"
       id="radialGradient5813"
       fy="127.65469"
       fx="400.29608"
       r="2.0221689"
       cy="127.65469"
       cx="400.29608" />
    <linearGradient
       id="linearGradient26830">
      <stop
         offset="0"
         style="stop-color:#ffffff;stop-opacity:1"
         id="stop26832" />
      <stop
         offset="1"
         style="stop-color:#ffffff;stop-opacity:0"
         id="stop26834" />
    </linearGradient>
    <radialGradient
       gradientTransform="matrix(2.5120004,-0.24831536,0.32517849,1.1669588,-967.48113,9.358596)"
       gradientUnits="userSpaceOnUse"
       xlink:href="#linearGradient26830"
       id="radialGradient5815"
       fy="127.24747"
       fx="399.8783"
       r="2.0221689"
       cy="127.24747"
       cx="399.8783" />
    <linearGradient
       id="linearGradient18403">
      <stop
         offset="0"
         style="stop-color:#eeeeec;stop-opacity:1"
         id="stop18405" />
      <stop
         offset="1"
         style="stop-color:#eeeeec;stop-opacity:0"
         id="stop18407" />
    </linearGradient>
    <radialGradient
       gradientTransform="matrix(-1.1953783,0.2726772,-0.21788747,-0.95518015,616.58377,-24.601364)"
       gradientUnits="userSpaceOnUse"
       xlink:href="#linearGradient18403"
       id="radialGradient5821"
       fy="33.604549"
       fx="427.79684"
       r="74.907745"
       cy="33.604549"
       cx="427.79684" />
    <linearGradient
       id="linearGradient26168">
      <stop
         offset="0"
         style="stop-color:#eeeeec;stop-opacity:1"
         id="stop26170" />
      <stop
         offset="1"
         style="stop-color:#eeeeec;stop-opacity:0"
         id="stop26172" />
    </linearGradient>
    <radialGradient
       gradientTransform="matrix(0.27977451,-0.19421475,0.09565573,0.15202379,-65.306508,160.72477)"
       gradientUnits="userSpaceOnUse"
       xlink:href="#linearGradient26168"
       id="radialGradient5823"
       fy="217.46133"
       fx="502.53064"
       r="74.907745"
       cy="217.46133"
       cx="502.53064" />
    <linearGradient
       id="linearGradient26128">
      <stop
         offset="0"
         style="stop-color:#eeeeec;stop-opacity:0.9527027"
         id="stop26130" />
      <stop
         offset="0.47988781"
         style="stop-color:#eeeeec;stop-opacity:0"
         id="stop26146" />
      <stop
         offset="0.5229584"
         style="stop-color:#eeeeec;stop-opacity:0.99324322"
         id="stop26148" />
      <stop
         offset="0.63153976"
         style="stop-color:#eeeeec;stop-opacity:0"
         id="stop26132" />
      <stop
         offset="0.7383545"
         style="stop-color:#eeeeec;stop-opacity:0.23529412"
         id="stop26134" />
      <stop
         offset="0.83400774"
         style="stop-color:#ffffff;stop-opacity:0.71621621"
         id="stop26136" />
      <stop
         offset="0.90514386"
         style="stop-color:#f6f6f5;stop-opacity:0.27027026"
         id="stop26142" />
      <stop
         offset="0.90514386"
         style="stop-color:#f2f2f0;stop-opacity:0.27702704"
         id="stop26144" />
      <stop
         offset="1"
         style="stop-color:#eeeeec;stop-opacity:0"
         id="stop26138" />
    </linearGradient>
    <radialGradient
       gradientTransform="matrix(0.40250707,-6.2011662e-8,3.4701033e-8,0.33249547,-105.94722,23.785437)"
       gradientUnits="userSpaceOnUse"
       xlink:href="#linearGradient26128"
       id="radialGradient5825"
       fy="170.414"
       fx="459.45273"
       r="74.907745"
       cy="170.414"
       cx="459.45273" />
    <linearGradient
       id="linearGradient26021">
      <stop
         offset="0"
         style="stop-color:#eeeeec;stop-opacity:0"
         id="stop26023" />
      <stop
         offset="0.86670214"
         style="stop-color:#eeeeec;stop-opacity:0.49803922"
         id="stop26029" />
      <stop
         offset="1"
         style="stop-color:#eeeeec;stop-opacity:0"
         id="stop26025" />
    </linearGradient>
    <radialGradient
       gradientTransform="matrix(0,-0.25734184,0.28161448,0,32.540787,192.58056)"
       gradientUnits="userSpaceOnUse"
       xlink:href="#linearGradient26021"
       id="radialGradient5827"
       fy="165.51567"
       fx="449.88171"
       r="74.907745"
       cy="165.51567"
       cx="449.88171" />
    <linearGradient
       id="linearGradient26120">
      <stop
         offset="0"
         style="stop-color:#2e3436;stop-opacity:0"
         id="stop26122" />
      <stop
         offset="0.47336468"
         style="stop-color:#2e3436;stop-opacity:0"
         id="stop26124" />
      <stop
         offset="1"
         style="stop-color:#0f1112;stop-opacity:1"
         id="stop26126" />
    </linearGradient>
    <radialGradient
       gradientTransform="matrix(0,0.26765763,-0.26922432,0,104.83143,-61.058605)"
       gradientUnits="userSpaceOnUse"
       xlink:href="#linearGradient26120"
       id="radialGradient5829"
       fy="95.381569"
       fx="529.39941"
       r="74.907745"
       cy="95.381569"
       cx="529.39941" />
    <linearGradient
       gradientTransform="matrix(0.24919542,0,0,0.34767467,-34.778633,19.431818)"
       gradientUnits="userSpaceOnUse"
       xlink:href="#linearGradient26075"
       id="linearGradient5831"
       y2="225.83026"
       x2="280.0184"
       y1="126.83501"
       x1="469.35895" />
    <linearGradient
       id="linearGradient26075">
      <stop
         offset="0"
         style="stop-color:#555753;stop-opacity:0"
         id="stop26077" />
      <stop
         offset="1"
         style="stop-color:#eeeeec;stop-opacity:1"
         id="stop26079" />
    </linearGradient>
    <radialGradient
       gradientTransform="matrix(-0.03659656,-0.65991982,0.24971195,-0.01479939,37.148896,315.00323)"
       gradientUnits="userSpaceOnUse"
       xlink:href="#linearGradient26075"
       id="radialGradient5833"
       fy="218.66101"
       fx="344.26065"
       r="74.907745"
       cy="218.66101"
       cx="344.26065" />
    <radialGradient
       gradientTransform="matrix(-0.37468811,-0.36656619,0.32815985,-0.34780059,221.59854,277.87771)"
       gradientUnits="userSpaceOnUse"
       xlink:href="#linearGradient8660"
       id="radialGradient5835"
       fy="131.83463"
       fx="469.91165"
       r="74.907745"
       cy="131.83463"
       cx="469.91165" />
    <linearGradient
       id="linearGradient8690">
      <stop
         offset="0"
         style="stop-color:#3a3a3a;stop-opacity:1"
         id="stop8692" />
      <stop
         offset="1"
         style="stop-color:#3a3a3a;stop-opacity:0"
         id="stop8694" />
    </linearGradient>
    <radialGradient
       gradientTransform="matrix(-0.03431109,-0.23720544,0.77780886,-0.11849931,-7.5119127,188.81413)"
       gradientUnits="userSpaceOnUse"
       xlink:href="#linearGradient8690"
       id="radialGradient5839"
       fy="130.89047"
       fx="441.3573"
       r="75.756241"
       cy="130.89047"
       cx="441.3573" />
    <linearGradient
       id="linearGradient8660">
      <stop
         offset="0"
         style="stop-color:#2e3436;stop-opacity:1"
         id="stop8662" />
      <stop
         offset="1"
         style="stop-color:#555753;stop-opacity:0"
         id="stop8664" />
    </linearGradient>
    <radialGradient
       gradientTransform="matrix(-0.40059385,0.41112081,-0.52987793,-0.54380401,305.50478,-54.717001)"
       gradientUnits="userSpaceOnUse"
       xlink:href="#linearGradient8660"
       id="radialGradient5837"
       fy="98.974625"
       fx="434.12521"
       r="74.907745"
       cy="98.974625"
       cx="434.12521" />
    <linearGradient
       id="linearGradient26091">
      <stop
         offset="0"
         style="stop-color:#2e3436;stop-opacity:1"
         id="stop26093" />
      <stop
         offset="1"
         style="stop-color:#ffffff;stop-opacity:1"
         id="stop26095" />
    </linearGradient>
    <linearGradient
       gradientTransform="matrix(0.1932228,0,0,0.2695824,-9.1882,40.874656)"
       gradientUnits="userSpaceOnUse"
       xlink:href="#linearGradient26091"
       id="linearGradient5904"
       y2="114.22821"
       x2="457.19556"
       y1="289.77823"
       x1="457.19556" />
    <linearGradient
       id="linearGradient26099">
      <stop
         offset="0"
         style="stop-color:#eeeeec;stop-opacity:1"
         id="stop26101" />
      <stop
         offset="1"
         style="stop-color:#babdb6;stop-opacity:1"
         id="stop26103" />
    </linearGradient>
    <radialGradient
       gradientTransform="matrix(0.18942526,-0.15120688,0.30797654,0.40967067,-45.03379,101.05637)"
       gradientUnits="userSpaceOnUse"
       xlink:href="#linearGradient26099"
       id="radialGradient5902"
       fy="111.3"
       fx="439.04871"
       r="75.752426"
       cy="111.3"
       cx="439.04871" />
    <linearGradient
       gradientTransform="matrix(0.37020401,0,0,0.35646001,-10.15051,23.960482)"
       gradientUnits="userSpaceOnUse"
       xlink:href="#linearGradient9688"
       id="linearGradient5898"
       y2="179.03932"
       x2="222.73204"
       y1="171.61981"
       x1="236.75015" />
    <linearGradient
       id="linearGradient9785">
      <stop
         offset="0"
         style="stop-color:#eeeeec;stop-opacity:1"
         id="stop9787" />
      <stop
         offset="1"
         style="stop-color:#090908;stop-opacity:0.96621621"
         id="stop9789" />
    </linearGradient>
    <radialGradient
       gradientTransform="matrix(0.10838166,-0.43835334,0.67342588,0.17056302,-54.480324,173.9533)"
       gradientUnits="userSpaceOnUse"
       xlink:href="#linearGradient9785"
       id="radialGradient5895"
       fy="171.7894"
       fx="251.69016"
       r="21.53125"
       cy="171.7894"
       cx="251.69016" />
    <linearGradient
       id="linearGradient9688">
      <stop
         offset="0"
         style="stop-color:#eeeeec;stop-opacity:1"
         id="stop9690" />
      <stop
         offset="1"
         style="stop-color:#ffffff;stop-opacity:0"
         id="stop9692" />
    </linearGradient>
    <radialGradient
       gradientTransform="matrix(0.46318374,-0.00626019,0.00475867,0.35220747,-34.74971,26.137346)"
       gradientUnits="userSpaceOnUse"
       xlink:href="#linearGradient9688"
       id="radialGradient5891"
       fy="183.6442"
       fx="258.76035"
       r="18.578125"
       cy="183.6442"
       cx="258.76035" />
    <linearGradient
       id="linearGradient26371">
      <stop
         offset="0"
         style="stop-color:#777777;stop-opacity:0"
         id="stop26373" />
      <stop
         offset="1"
         style="stop-color:#2b2b2b;stop-opacity:1"
         id="stop26375" />
    </linearGradient>
    <radialGradient
       gradientTransform="matrix(-3.471175e-5,-3.7055094,0.68965702,0,36.046117,1718.2074)"
       gradientUnits="userSpaceOnUse"
       xlink:href="#linearGradient26371"
       id="radialGradient5851"
       fy="62.526134"
       fx="442.29459"
       r="77.922958"
       cy="62.526134"
       cx="442.29459" />
    <linearGradient
       gradientTransform="matrix(2.8617888,0,0,2.8686568,10.42702,-11.934378)"
       gradientUnits="userSpaceOnUse"
       xlink:href="#linearGradient5895"
       id="linearGradient5853"
       y2="26.86837"
       x2="24.082361"
       y1="21.015778"
       x1="21.568329" />
    <filter
       style="color-interpolation-filters:sRGB"
       id="filter9094"
       height="1.6823529"
       width="1.6823529"
       y="-0.34117648"
       x="-0.34117648">
      <feGaussianBlur
         id="feGaussianBlur9096"
         stdDeviation="0.28648224" />
    </filter>
    <linearGradient
       id="linearGradient5895">
      <stop
         offset="0"
         style="stop-color:#888a85;stop-opacity:1"
         id="stop5897" />
      <stop
         offset="1"
         style="stop-color:#ffffff;stop-opacity:1"
         id="stop5899" />
    </linearGradient>
    <linearGradient
       gradientTransform="matrix(1.7964912,0,0,1.7964912,20.838954,15.404594)"
       gradientUnits="userSpaceOnUse"
       xlink:href="#linearGradient5895"
       id="linearGradient5855"
       y2="24.9375"
       x2="24"
       y1="22.125"
       x1="22.0625" />
    <linearGradient
       id="linearGradient2230">
      <stop
         offset="0"
         style="stop-color:#eeeeee;stop-opacity:1"
         id="stop2232" />
      <stop
         offset="1"
         style="stop-color:#a2a2a2;stop-opacity:1"
         id="stop2234" />
    </linearGradient>
    <linearGradient
       gradientTransform="matrix(3.1057104,0,0,1.0077725,77.236977,26.382072)"
       gradientUnits="userSpaceOnUse"
       xlink:href="#linearGradient2230"
       id="linearGradient5882"
       y2="22.712967"
       x2="8.5602255"
       y1="29.179651"
       x1="5.334765" />
    <linearGradient
       id="linearGradient3301">
      <stop
         offset="0"
         style="stop-color:#ffffff;stop-opacity:1"
         id="stop3303" />
      <stop
         offset="1"
         style="stop-color:#d7dbc7;stop-opacity:1"
         id="stop3305" />
    </linearGradient>
    <linearGradient
       gradientTransform="matrix(3.4811075,0,0,2.5835624,76.907449,-22.3485)"
       gradientUnits="userSpaceOnUse"
       xlink:href="#linearGradient3301"
       id="linearGradient5880"
       y2="30.191154"
       x2="6.5595827"
       y1="28.780806"
       x1="6.5595827" />
    <radialGradient
       gradientTransform="matrix(0,-1.6136435,7.3442734,0,-114.22942,61.54076)"
       gradientUnits="userSpaceOnUse"
       xlink:href="#linearGradient17963"
       id="radialGradient5861"
       fy="20.823402"
       fx="9.1189642"
       r="3.1769876"
       cy="20.823402"
       cx="9.1189642" />
    <linearGradient
       id="linearGradient17941">
      <stop
         offset="0"
         style="stop-color:#e9e9e9;stop-opacity:1"
         id="stop17943" />
      <stop
         offset="0"
         style="stop-color:#a7a7a7;stop-opacity:1"
         id="stop17945" />
      <stop
         offset="0.52899867"
         style="stop-color:#bebebe;stop-opacity:1"
         id="stop17947" />
      <stop
         offset="1"
         style="stop-color:#e7e7e7;stop-opacity:1"
         id="stop17949" />
    </linearGradient>
    <radialGradient
       gradientTransform="matrix(3.3800662,-1.2457701e-6,5.0398582e-7,1.187553,7.8850979,20.063546)"
       gradientUnits="userSpaceOnUse"
       xlink:href="#linearGradient17941"
       id="radialGradient5863"
       fy="17.108955"
       fx="9.2365828"
       r="2.9610097"
       cy="17.108955"
       cx="9.2365828" />
    <linearGradient
       id="linearGradient17963">
      <stop
         offset="0"
         style="stop-color:#dee3e0;stop-opacity:1"
         id="stop17965" />
      <stop
         offset="1"
         style="stop-color:#dee3e0;stop-opacity:0"
         id="stop17967" />
    </linearGradient>
    <radialGradient
       gradientTransform="matrix(-9.0601457e-6,-6.0138361,9.0218158,-1.4405304e-5,-69.748509,131.03935)"
       gradientUnits="userSpaceOnUse"
       xlink:href="#linearGradient17963"
       id="radialGradient5874"
       fy="12.007012"
       fx="14.738829"
       r="0.546875"
       cy="12.007012"
       cx="14.738829" />
    <linearGradient
       id="linearGradient5404">
      <stop
         offset="0"
         style="stop-color:#ffffff;stop-opacity:1"
         id="stop5406" />
      <stop
         offset="1"
         style="stop-color:#ffffff;stop-opacity:0"
         id="stop5408" />
    </linearGradient>
    <linearGradient
       gradientTransform="matrix(2.6749998,0,0,2.625,-1.1999983,-4.9999858)"
       gradientUnits="userSpaceOnUse"
       xlink:href="#linearGradient5404"
       id="linearGradient5870"
       y2="53.913837"
       x2="11.692044"
       y1="20.521324"
       x1="10.666382" />
    <linearGradient
       id="linearGradient10695">
      <stop
         offset="0"
         style="stop-color:#b100cb;stop-opacity:1"
         id="stop10697" />
      <stop
         offset="1"
         style="stop-color:#204a87;stop-opacity:0"
         id="stop10699" />
    </linearGradient>
    <radialGradient
       gradientTransform="matrix(0.62063334,0,0,0.62063334,-31.920518,-35.054604)"
       gradientUnits="userSpaceOnUse"
       xlink:href="#linearGradient10695"
       id="radialGradient5947"
       fy="188.5"
       fx="171.25"
       r="19"
       cy="188.5"
       cx="171.25" />
  </defs>
  <g
     transform="matrix(2.6666667,0,0,2.6666667,-0.8476667,-7.1523336)"
     id="g5936"
     style="opacity:0.3">
    <path
       d="m 8.8251297,42.000171 c 0,0 0,4.999724 0,4.999724 C 5.5882785,47.009307 0.99999808,45.879711 1,44.499712 c 0,-1.38 3.6120828,-2.49954 7.8251297,-2.499541 l 0,0 z"
       id="path5387"
       style="fill:url(#radialGradient5934);fill-opacity:1;fill-rule:nonzero;stroke:none;stroke-width:1;marker:none;visibility:visible;display:inline;overflow:visible" />
    <rect
       width="30.349743"
       height="4.9999995"
       x="8.8251247"
       y="42"
       id="rect5373"
       style="fill:url(#linearGradient5931);fill-opacity:1;fill-rule:nonzero;stroke:none;stroke-width:1;marker:none;visibility:visible;display:inline;overflow:visible" />
    <path
       d="m 39.174869,42.000171 c 0,0 0,4.999724 0,4.999724 3.236851,0.0094 7.825131,-1.120184 7.825129,-2.500183 0,-1.38 -3.612082,-2.49954 -7.825129,-2.499541 l 0,0 z"
       id="path5375"
       style="fill:url(#radialGradient5928);fill-opacity:1;fill-rule:nonzero;stroke:none;stroke-width:1;marker:none;visibility:visible;display:inline;overflow:visible" />
  </g>
  <rect
     width="109"
     height="72"
     rx="6"
     ry="6.0023131"
     x="8.4995413"
     y="39.500462"
     id="rect5438"
     style="fill:url(#radialGradient5807);fill-opacity:1;fill-rule:nonzero;stroke:url(#linearGradient5809);stroke-width:1;stroke-linecap:round;stroke-linejoin:round;stroke-miterlimit:4;stroke-opacity:1;stroke-dasharray:none" />
  <rect
     width="108"
     height="64"
     rx="5.5"
     ry="5.5"
     x="9"
     y="47"
     id="rect5445"
     style="fill:url(#linearGradient5925);fill-opacity:1;fill-rule:nonzero;stroke:none" />
  <path
     d="m 85.125166,53.467335 a 7.2440255,7.0325447 0 0 1 -14.488051,0 7.2440255,7.0325447 0 1 1 14.488051,0 z"
     id="path5451"
     style="opacity:0.27227723;fill:url(#radialGradient5813);fill-opacity:1;fill-rule:nonzero;stroke:none" />
  <path
     d="m 85.092145,56.873351 a 7.2110044,4.8250422 0 1 1 -14.422008,0 7.2110044,4.8250422 0 1 1 14.422008,0 z"
     id="path5453"
     style="fill:url(#radialGradient5815);fill-opacity:1;fill-rule:nonzero;stroke:none" />
  <path
     d="m 105.81906,79.280616 a 26.666658,26.666667 0 0 1 -53.333316,0 26.666658,26.666667 0 1 1 53.333316,0 z"
     id="path5463"
     style="fill:url(#radialGradient5821);fill-opacity:1;fill-rule:nonzero;stroke:none" />
  <path
     d="m 103.15241,79.280616 a 24.000005,24.000008 0 0 1 -48.000009,0 24.000005,24.000008 0 1 1 48.000009,0 z"
     id="path5465"
     style="fill:#888a85;fill-opacity:1;fill-rule:nonzero;stroke:none" />
  <path
     d="m 108.48574,79.280616 a 29.333335,29.333332 0 0 1 -58.66667,0 29.333335,29.333332 0 1 1 58.66667,0 z"
     id="path5467"
     style="fill:url(#radialGradient5823);fill-opacity:1;fill-rule:nonzero;stroke:none" />
  <path
     d="m 105.65239,80.447283 a 26.666658,26.666667 0 0 1 -53.333312,0 26.666658,26.666667 0 1 1 53.333312,0 z"
     id="path5469"
     style="fill:url(#radialGradient5825);fill-opacity:1;fill-rule:nonzero;stroke:none" />
  <path
     d="m 100.6701,78.380669 a 21.5177,20.850391 0 0 1 -43.035398,0 21.5177,20.850391 0 1 1 43.035398,0 z"
     id="path5471"
     style="fill:url(#radialGradient5827);fill-opacity:1;fill-rule:nonzero;stroke:none" />
  <path
     d="m 97.819071,79.280616 a 18.666667,18.666666 0 0 1 -37.333334,0 18.666667,18.666666 0 1 1 37.333334,0 z"
     id="path5473"
     style="opacity:0.85148513;fill:url(#radialGradient5829);fill-opacity:1;fill-rule:nonzero;stroke:none" />
  <path
     d="m 97.819071,79.280616 a 18.666667,18.666666 0 0 1 -37.333334,0 18.666667,18.666666 0 1 1 37.333334,0 z"
     id="path5475"
     style="fill:url(#linearGradient5831);fill-opacity:1;fill-rule:nonzero;stroke:none" />
  <path
     d="m 97.819071,81.947283 a 18.666667,18.666666 0 0 1 -37.333334,0 18.666667,18.666666 0 1 1 37.333334,0 z"
     id="path5477"
     style="fill:url(#radialGradient5833);fill-opacity:1;fill-rule:nonzero;stroke:none" />
  <path
     d="m 94.442561,81.807603 a 15.376693,16.000003 0 0 1 -30.753384,0 15.376693,16.000003 0 1 1 30.753384,0 z"
     id="path5479"
     style="opacity:0.53960422;fill:url(#radialGradient5835);fill-opacity:1;fill-rule:nonzero;stroke:none" />
  <path
     d="m 94.287742,83.280616 a 15.13534,14.468678 0 0 1 -30.270678,0 15.13534,14.468678 0 1 1 30.270678,0 z"
     id="path5481"
     style="fill:url(#radialGradient5837);fill-opacity:1;fill-rule:nonzero;stroke:url(#radialGradient5839);stroke-width:0.1484952;stroke-linecap:round;stroke-linejoin:round;stroke-miterlimit:4;stroke-opacity:1;stroke-dasharray:none" />
  <path
     d="m 93.626289,87.280616 c 0,7.989574 -6.484299,14.473884 -14.473883,14.473884 -7.989587,0 -14.473886,-6.48431 -14.473886,-14.473884 0,-7.989573 6.484299,-14.473893 14.473886,-14.473893 7.989584,0 14.473883,6.48432 14.473883,14.473893 z"
     id="path5483"
     style="fill:url(#radialGradient5902);fill-opacity:1;fill-rule:nonzero;stroke:url(#linearGradient5904);stroke-width:0.14458714;stroke-linecap:round;stroke-linejoin:round;stroke-miterlimit:4;stroke-opacity:1" />
  <path
     d="m 91.152412,87.280616 a 12.000002,12 0 0 1 -24.000003,0 12.000002,12 0 1 1 24.000003,0 z"
     id="path5485"
     style="fill:#2e3436;fill-opacity:1;fill-rule:nonzero;stroke:none" />
  <path
     d="m 77.083681,80.52267 c -0.22656,0.07067 -0.443717,0.153333 -0.659424,0.245066 0.21544,-0.09227 0.433072,-0.173866 0.659424,-0.245066 z m 4.720099,0.1336 c 0.09333,0.0352 0.186346,0.07253 0.27765,0.111466 -0.09165,-0.03893 -0.183946,-0.07627 -0.27765,-0.111466 z m -6.15464,0.50128 c -0.150987,0.0872 -0.296387,0.181066 -0.439617,0.27848 0.142161,-0.0976 0.289843,-0.1912 0.439617,-0.27848 z m -0.439617,0.27848 c -0.172293,0.117333 -0.337288,0.236266 -0.497461,0.3676 0.158107,-0.130134 0.327653,-0.2512 0.497461,-0.3676 z m 8.734494,0.501253 c 0.09899,0.0864 0.195573,0.175733 0.289227,0.26736 -0.09363,-0.0912 -0.190294,-0.181333 -0.289227,-0.26736 z m -9.405488,0.02133 c -0.126987,0.111467 -0.25216,0.225334 -0.370203,0.345334 0.11832,-0.120267 0.24304,-0.233334 0.370203,-0.345334 z m -0.370203,0.345334 c -0.899656,0.91512 -1.536621,2.06704 -1.781608,3.35296 -6.83e-4,0.0027 6.85e-4,0.008 0,0.01067 l 0,2.372667 c 0.371136,1.966667 1.646589,3.628507 3.401246,4.589413 l 6.929754,0 c 1.681184,-0.920666 2.91588,-2.48472 3.343403,-4.344346 l 0,-0.02133 0,-2.818266 c -0.19024,-0.840648 -0.541227,-1.627102 -1.029627,-2.316995 -0.379922,-0.489333 -0.819458,-0.844107 -1.295712,-1.035947 l -9.301373,0 c -0.09365,0.0696 -0.179894,0.139734 -0.26608,0.211734 z m -1.781608,5.736773 c -0.03605,-0.190933 -0.06168,-0.381947 -0.08099,-0.579253 0.01867,0.196533 0.04488,0.387866 0.08099,0.579253 z m 0,-2.372693 c -0.03619,0.191733 -0.0624,0.38216 -0.08099,0.579253 0.0192,-0.194667 0.04493,-0.388453 0.08099,-0.579253 z M 84.545596,82.5156 c 0.06779,0.07547 0.132426,0.155733 0.196666,0.233867 -0.06517,-0.0792 -0.127893,-0.1576 -0.196666,-0.233867 z m -7.542899,10.63808 c 0.14088,0.04587 0.28328,0.08507 0.428051,0.1224 -0.144854,-0.0376 -0.287075,-0.07653 -0.428051,-0.1224 z m 4.500288,0 c -0.141653,0.04613 -0.282461,0.08507 -0.428048,0.1224 0.144773,-0.03733 0.287165,-0.07653 0.428048,-0.1224 z"
     id="path5487"
     style="opacity:0.23267326;fill:url(#linearGradient5898);fill-opacity:1;fill-rule:nonzero;stroke:none" />
  <path
     d="m 73.110795,79.280616 c -1.42757,1.025947 -2.573669,2.40936 -3.291725,4.00344 l 0,7.856027 c 0.751861,1.67024 1.97136,3.100637 3.49492,4.140527 l 11.812291,0 c 1.438005,-0.98277 2.602016,-2.31426 3.359456,-3.866314 l 0,-8.390746 c -0.72376,-1.483974 -1.818592,-2.774 -3.169813,-3.742934 l -12.205129,0 z"
     id="path5489"
     style="opacity:0.37556559;fill:url(#radialGradient5895);fill-opacity:1;fill-rule:nonzero;stroke:none" />
  <path
     d="m 77.109124,80.356003 c -0.223814,0.07173 -0.438342,0.155467 -0.651438,0.248267 0.212827,-0.0936 0.427827,-0.176 0.651438,-0.248267 z m 4.662906,0.135467 c 0.09219,0.03573 0.18408,0.07333 0.274286,0.1128 -0.09056,-0.03947 -0.181734,-0.07707 -0.274286,-0.1128 z m -6.080066,0.507813 c -0.149147,0.08827 -0.292798,0.183467 -0.434291,0.282133 0.140427,-0.09893 0.286331,-0.1936 0.434291,-0.282133 z m -0.434291,0.282133 c -0.170214,0.118934 -0.3332,0.2392 -0.491435,0.3724 0.156213,-0.131733 0.323685,-0.2544 0.491435,-0.3724 z m 8.628661,0.507814 c 0.09779,0.08747 0.1932,0.177866 0.285723,0.270853 -0.09248,-0.09253 -0.187973,-0.183733 -0.285723,-0.270853 z m -9.291525,0.02133 c -0.125467,0.113067 -0.249094,0.228267 -0.365718,0.34984 0.116907,-0.121867 0.240107,-0.236533 0.365718,-0.34984 z m -0.365718,0.34984 c -0.888754,0.927093 -1.518002,2.094053 -1.760021,3.396747 -6.75e-4,0.0027 6.77e-4,0.008 0,0.01067 l 0,2.403707 c 0.36664,1.992347 1.626637,3.675893 3.360035,4.649387 l 6.845789,0 c 1.660814,-0.93272 2.880552,-2.5172 3.302894,-4.40112 l 0,-0.02133 0,-2.855093 c -0.18792,-0.851627 -0.53467,-1.648373 -1.017152,-2.34728 -0.375318,-0.495733 -0.809528,-0.85512 -1.280014,-1.049493 l -9.188672,0 c -0.09251,0.07067 -0.177733,0.1416 -0.262853,0.2144 z m -1.760021,5.811733 c -0.0356,-0.193333 -0.06093,-0.386933 -0.08,-0.586826 0.0184,0.1992 0.04432,0.392933 0.08,0.586826 z m 0,-2.403706 c -0.03576,0.1944 -0.06165,0.387146 -0.08,0.586826 0.01893,-0.197066 0.0444,-0.39352 0.08,-0.586826 z M 84.480625,82.3748 c 0.06696,0.07653 0.1308,0.1576 0.194293,0.237067 -0.06437,-0.08027 -0.126346,-0.159467 -0.194293,-0.237067 z m -7.451504,10.777096 c 0.139173,0.0464 0.279848,0.0864 0.422861,0.124267 -0.14312,-0.03813 -0.283594,-0.07733 -0.422861,-0.124267 z m 4.44576,0 c -0.139947,0.04667 -0.27904,0.08613 -0.422864,0.124267 0.143013,-0.03787 0.283688,-0.0776 0.422864,-0.124267 z"
     id="path5491"
     style="fill:#2e3436;fill-opacity:1;fill-rule:nonzero;stroke:none" />
  <path
     d="m 77.109124,80.189336 c -0.223814,0.07253 -0.438342,0.157334 -0.651438,0.251467 0.212827,-0.09467 0.427827,-0.1784 0.651438,-0.251467 z m 4.662906,0.137067 c 0.09219,0.036 0.18408,0.0744 0.274286,0.1144 -0.09056,-0.04 -0.181734,-0.07813 -0.274286,-0.1144 z m -6.080066,0.514373 c -0.149147,0.08933 -0.292798,0.185867 -0.434291,0.28576 0.140427,-0.1 0.286331,-0.196 0.434291,-0.28576 z m -0.434291,0.28576 c -0.170214,0.120267 -0.3332,0.2424 -0.491435,0.3772 0.156213,-0.1336 0.323685,-0.2576 0.491435,-0.3772 z m 8.628661,0.514374 c 0.09779,0.0888 0.1932,0.180266 0.285723,0.27432 -0.09248,-0.0936 -0.187973,-0.186134 -0.285723,-0.27432 z m -9.291525,0.024 c -0.125467,0.1144 -0.249094,0.2312 -0.365718,0.354346 0.116907,-0.123466 0.240107,-0.239466 0.365718,-0.354346 z m -0.365718,0.354346 c -0.888754,0.93904 -1.518002,2.121067 -1.760021,3.44056 -6.75e-4,0.0027 6.77e-4,0.008 0,0.01067 l 0,2.434693 c 0.36664,2.01808 1.626637,3.723334 3.360035,4.70936 l 6.845789,0 c 1.660814,-0.94472 2.880552,-2.549653 3.302894,-4.457866 l 0,-0.024 0,-2.89192 c -0.18792,-0.862614 -0.53467,-1.669627 -1.017152,-2.377547 -0.375318,-0.502133 -0.809528,-0.86616 -1.280014,-1.06304 l -9.188672,0 c -0.09251,0.07147 -0.177733,0.1432 -0.262853,0.217067 z M 72.46907,87.90587 c -0.0356,-0.196 -0.06093,-0.39192 -0.08,-0.594374 0.0184,0.201867 0.04432,0.398 0.08,0.594374 z m 0,-2.434694 c -0.03576,0.1968 -0.06165,0.392134 -0.08,0.5944 0.01893,-0.199733 0.0444,-0.398613 0.08,-0.5944 z M 84.480625,82.23635 c 0.06696,0.07733 0.1308,0.159733 0.194293,0.24 -0.06437,-0.08133 -0.126346,-0.1616 -0.194293,-0.24 z m -7.451504,10.916106 c 0.139173,0.0472 0.279848,0.08747 0.422861,0.1256 -0.14312,-0.0384 -0.283594,-0.0784 -0.422861,-0.1256 z m 4.44576,0 c -0.139947,0.0472 -0.27904,0.0872 -0.422864,0.1256 0.143013,-0.0384 0.283688,-0.07867 0.422864,-0.1256 z"
     id="path5493"
     style="opacity:0.23267326;fill:url(#radialGradient5891);fill-opacity:1;fill-rule:nonzero;stroke:none" />
  <path
     d="m 79.183468,81.930296 c -2.746254,-2.6e-5 -5.000603,2.061174 -5.293593,4.70192 -0.01227,0.1112 -0.02133,0.222667 -0.0264,0.335867 -0.0037,0.08107 -0.01333,0.159733 -0.01333,0.241867 0,0.01867 -1.79e-4,0.036 0,0.05387 -1.79e-4,0.01867 0,0.036 0,0.05387 0.0016,0.08 0.008,0.162667 0.01333,0.241867 0.0053,0.113333 0.01413,0.224533 0.0264,0.33584 0.292982,2.640746 2.547339,4.701946 5.293593,4.701946 2.74625,0 5.000602,-2.0612 5.293586,-4.701946 0.01227,-0.1112 0.02133,-0.222667 0.0264,-0.33584 0.0064,-0.09653 0.01227,-0.1976 0.01333,-0.295574 -9.87e-4,-0.09813 -0.0069,-0.198933 -0.01333,-0.29552 -0.0053,-0.113333 -0.01413,-0.224533 -0.0264,-0.335866 -0.292981,-2.640747 -2.547338,-4.70192 -5.293586,-4.70192 z"
     id="path5495"
     style="fill:#000000;fill-opacity:0.50543482;fill-rule:nonzero;stroke:none" />
  <path
     d="m 107.19581,79.280616 a 28.043405,28.043396 0 0 1 -56.08681,0 28.043405,28.043396 0 1 1 56.08681,0 z"
     id="path5497"
     style="fill:none;stroke:url(#radialGradient5851);stroke-width:2.5999999;stroke-linecap:round;stroke-linejoin:round;stroke-miterlimit:4;stroke-opacity:1;stroke-dasharray:none" />
  <g
     id="g4228">
    <path
       style="fill:#2e3436;fill-opacity:1;fill-rule:evenodd;stroke:url(#linearGradient5853);stroke-width:2;stroke-linecap:butt;stroke-linejoin:miter;stroke-miterlimit:10;stroke-opacity:1;stroke-dasharray:none;stroke-dashoffset:0;marker:none;visibility:visible;display:inline;overflow:visible;enable-background:accumulate"
       id="path5499"
       d="m 80.719708,54.224018 a 5.3658542,5.3787315 0 0 1 -10.731707,0 5.3658542,5.3787315 0 1 1 10.731707,0 z" />
    <path
       style="opacity:0.34705882;fill:#000000;fill-opacity:1;fill-rule:evenodd;stroke:none;stroke-width:0.1;marker:none;visibility:visible;display:inline;overflow:visible;enable-background:accumulate"
       id="path5501"
       d="m 77.576561,54.244519 a 2.1845587,2.1898015 0 0 1 -4.369117,0 2.1845587,2.1898015 0 1 1 4.369117,0 z" />
    <path
       style="opacity:0.30588235;fill:#ffffff;fill-opacity:1;fill-rule:evenodd;stroke:none;stroke-width:0.1;marker:none;visibility:visible;display:inline;overflow:visible;filter:url(#filter9094);enable-background:accumulate"
       id="path5503"
       transform="matrix(1.8485238,0,0,1.85296,25.392261,25.634041)"
       d="m 28.416853,16.44536 a 0.8396895,0.8396895 0 1 1 -1.679379,0 0.8396895,0.8396895 0 1 1 1.679379,0 z" />
  </g>
  <path
     d="m 64.96527,56.836163 a 3.3684215,3.3684215 0 0 1 -6.736843,0 3.3684215,3.3684215 0 1 1 6.736843,0 z"
     id="path5505"
     style="fill:#2e3436;fill-opacity:1;fill-rule:evenodd;stroke:url(#linearGradient5855);stroke-width:1.26400006;stroke-linecap:butt;stroke-linejoin:miter;stroke-miterlimit:10;stroke-opacity:1;stroke-dasharray:none;stroke-dashoffset:0;marker:none;visibility:visible;display:inline;overflow:visible;enable-background:accumulate" />
  <rect
     width="21.974487"
     height="5.9744873"
     rx="2.4811268"
     ry="2.1213205"
     x="90.831825"
     y="50.960026"
     id="rect5507"
     style="fill:url(#linearGradient5880);fill-opacity:1;fill-rule:nonzero;stroke:url(#linearGradient5882);stroke-width:1.6;stroke-linecap:butt;stroke-linejoin:miter;stroke-miterlimit:4;stroke-opacity:1;stroke-dasharray:none;stroke-dashoffset:0;marker:none;visibility:visible;display:inline;overflow:visible;font-family:Bitstream Vera Sans" />
  <rect
     width="107"
     height="62.999996"
     rx="5.1443295"
     ry="5.1360555"
     x="9.5"
     y="47.5"
     id="rect5519"
     style="opacity:0.4;fill:none;stroke:url(#linearGradient5870);stroke-width:1;stroke-linecap:round;stroke-linejoin:round;stroke-miterlimit:4;stroke-opacity:1;stroke-dasharray:none" />
  <g
     id="g4233">
    <path
       style="fill:#2e3436;fill-opacity:1;fill-rule:evenodd;stroke:url(#radialGradient5861);stroke-width:1.29999995;stroke-linecap:butt;stroke-linejoin:miter;stroke-miterlimit:10;stroke-opacity:0.99607843;stroke-dasharray:none;stroke-dashoffset:0;marker:none;visibility:visible;display:inline;overflow:visible;enable-background:accumulate"
       id="path5511"
       d="m 49.047052,42.037259 a 9.948526,4.3113758 0 1 1 -19.897051,0 9.948526,4.3113758 0 1 1 19.897051,0 z" />
    <path
       style="fill:url(#radialGradient5863);fill-opacity:1;fill-rule:evenodd;stroke:#828282;stroke-width:1;marker:none;visibility:visible;display:inline;overflow:visible;enable-background:accumulate;stroke-miterlimit:0;stroke-dasharray:none;stroke-opacity:1"
       id="path5513"
       d="m 47.105367,40.38132 a 8.0000001,3.3333334 0 0 1 -16,0 8.0000001,3.3333334 0 1 1 16,0 z" />
    <rect
       style="fill:#2e3436;fill-opacity:1;fill-rule:nonzero;stroke:url(#radialGradient5874);stroke-width:0.30217507;stroke-linecap:butt;stroke-linejoin:round;stroke-miterlimit:0;stroke-opacity:1;stroke-dasharray:none"
       id="rect5515"
       y="42.274563"
       x="36.869717"
       ry="1.4839965"
       rx="1.365358"
       height="3.8952997"
       width="3.847827" />
  </g>
  <path
     d="m 88.485737,88.075123 c 0,5.154667 -4.178677,9.333327 -9.333333,9.333327 -5.154657,0 -9.333334,-4.17866 -9.333334,-9.333327 0,-5.154667 4.178677,-9.333334 9.333334,-9.333334 5.154656,0 9.333333,4.178667 9.333333,9.333334 z"
     id="path10013"
     style="opacity:0.8;fill:url(#radialGradient5947);fill-opacity:1;fill-rule:evenodd;stroke:none;stroke-width:0.94462639;marker:none;visibility:visible;display:inline;overflow:visible;enable-background:accumulate" />
  <rect
     width="5"
     height="27"
     rx="2.5"
     ry="2.6999998"
     x="26"
     y="67"
     id="rect5950"
     style="opacity:0.5;fill:#eeeeec;fill-opacity:1;fill-rule:nonzero;stroke:none;stroke-width:1;marker:none;visibility:visible;display:inline;overflow:visible;enable-background:accumulate" />
  <rect
     width="5.3333335"
     height="21.333334"
     rx="2.6666667"
     ry="2.6666667"
     x="37.000008"
     y="69.666664"
     id="rect5952"
     style="opacity:0.2;fill:#555753;fill-opacity:1;fill-rule:nonzero;stroke:none;stroke-width:1;marker:none;visibility:visible;display:inline;overflow:visible;enable-background:accumulate" />
</svg>
