<?xml version="1.0" encoding="UTF-8" standalone="no"?>
<svg
   version="1.1"
   id="svg4220"
   viewBox="0 0 120 120"
   height="128"
   width="128"
   sodipodi:docname="input-keyboard.svg"
   inkscape:version="1.1.2 (0a00cf5339, 2022-02-04)"
   xmlns:inkscape="http://www.inkscape.org/namespaces/inkscape"
   xmlns:sodipodi="http://sodipodi.sourceforge.net/DTD/sodipodi-0.dtd"
   xmlns:xlink="http://www.w3.org/1999/xlink"
   xmlns="http://www.w3.org/2000/svg"
   xmlns:svg="http://www.w3.org/2000/svg"
   xmlns:rdf="http://www.w3.org/1999/02/22-rdf-syntax-ns#"
   xmlns:cc="http://creativecommons.org/ns#"
   xmlns:dc="http://purl.org/dc/elements/1.1/">
  <sodipodi:namedview
     id="namedview40"
     pagecolor="#ffffff"
     bordercolor="#666666"
     borderopacity="1.0"
     inkscape:pageshadow="2"
     inkscape:pageopacity="0.0"
     inkscape:pagecheckerboard="0"
     showgrid="false"
     inkscape:zoom="2.6640625"
     inkscape:cx="105.85337"
     inkscape:cy="91.214076"
     inkscape:window-width="1920"
     inkscape:window-height="1029"
     inkscape:window-x="0"
     inkscape:window-y="0"
     inkscape:window-maximized="1"
     inkscape:current-layer="svg4220" />
  <defs
     id="defs4222">
    <linearGradient
       id="linearGradient5171">
      <stop
         id="stop5173"
         offset="0"
         style="stop-color:#f8f8f8;stop-opacity:1" />
      <stop
         id="stop5175"
         offset="1"
         style="stop-color:#efeff0;stop-opacity:1" />
    </linearGradient>
    <linearGradient
       y2="41.941765"
       x2="40.290417"
       y1="6.0581441"
       x1="40.290417"
       gradientTransform="matrix(3.0152025,0,0,1.5962837,-12.36487,19.814251)"
       gradientUnits="userSpaceOnUse"
       id="linearGradient4088"
       xlink:href="#linearGradient3462" />
    <linearGradient
       id="linearGradient3462">
      <stop
         offset="0"
         style="stop-color:#ffffff;stop-opacity:1"
         id="stop3464" />
      <stop
         offset="0.03457849"
         style="stop-color:#ffffff;stop-opacity:0.23529412"
         id="stop3466" />
      <stop
         offset="0.96375686"
         style="stop-color:#ffffff;stop-opacity:0.15686275"
         id="stop3468" />
      <stop
         offset="1"
         style="stop-color:#ffffff;stop-opacity:0.39215687"
         id="stop3470" />
    </linearGradient>
    <linearGradient
       gradientTransform="matrix(2.5208334,0,0,1.6927083,-0.49999898,13.268303)"
       gradientUnits="userSpaceOnUse"
       y2="61.171558"
       x2="24.725653"
       y1="7.8793106"
       x1="24.725653"
       id="linearGradient4534"
       xlink:href="#radialGradient4536" />
    <radialGradient
       gradientTransform="matrix(0,1.2316483,-1.625754,0,18.486966,-28.721977)"
       gradientUnits="userSpaceOnUse"
       id="radialGradient4536"
       r="20.396999"
       cy="3.99"
       cx="23.896">
      <stop
         offset="0"
         style="stop-color:#ffffff;stop-opacity:1"
         id="stop4538" />
      <stop
         offset="0.06562372"
         style="stop-color:#dddddd;stop-opacity:1"
         id="stop4540" />
      <stop
         offset="0.66093999"
         style="stop-color:#abacae;stop-opacity:1"
         id="stop4542" />
      <stop
         offset="1"
         style="stop-color:#89898b;stop-opacity:1"
         id="stop4544" />
    </radialGradient>
    <linearGradient
       x1="302.85715"
       y1="366.64789"
       x2="302.85715"
       y2="609.50507"
       id="linearGradient19619"
       xlink:href="#linearGradient5048"
       gradientUnits="userSpaceOnUse"
       gradientTransform="matrix(0.08449704,0,0,0.01235294,-6.5396456,38.470822)" />
    <linearGradient
       id="linearGradient5048">
      <stop
         id="stop5050"
         style="stop-color:#000000;stop-opacity:0"
         offset="0" />
      <stop
         id="stop5056"
         style="stop-color:#000000;stop-opacity:1"
         offset="0.5" />
      <stop
         id="stop5052"
         style="stop-color:#000000;stop-opacity:0"
         offset="1" />
    </linearGradient>
    <radialGradient
       cx="605.71429"
       cy="486.64789"
       r="117.14286"
       fx="605.71429"
       fy="486.64789"
       id="radialGradient19616"
       xlink:href="#linearGradient5060"
       gradientUnits="userSpaceOnUse"
       gradientTransform="matrix(-0.0289166,0,0,0.01235294,21.026894,38.470848)" />
    <linearGradient
       id="linearGradient5060">
      <stop
         id="stop5062"
         style="stop-color:#000000;stop-opacity:1"
         offset="0" />
      <stop
         id="stop5064"
         style="stop-color:#000000;stop-opacity:0"
         offset="1" />
    </linearGradient>
    <radialGradient
       cx="605.71429"
       cy="486.64789"
       r="117.14286"
       fx="605.71429"
       fy="486.64789"
       id="radialGradient19613"
       xlink:href="#linearGradient5060"
       gradientUnits="userSpaceOnUse"
       gradientTransform="matrix(0.02891661,0,0,0.01235294,26.973101,38.470848)" />
    <linearGradient
       xlink:href="#linearGradient5171"
       id="linearGradient3154"
       gradientUnits="userSpaceOnUse"
       gradientTransform="matrix(1.8752772,0,0,1.8743735,108.04976,0.01579706)"
       x1="-19"
       y1="20"
       x2="-19"
       y2="42" />
  </defs>
  <metadata
     id="metadata4225">
    <rdf:RDF>
      <cc:Work
         rdf:about="">
        <dc:format>image/svg+xml</dc:format>
        <dc:type
           rdf:resource="http://purl.org/dc/dcmitype/StillImage" />
      </cc:Work>
    </rdf:RDF>
  </metadata>
  <g
     style="opacity:0.4;stroke-width:0.5"
     id="g3257"
     transform="matrix(2.5,0,0,2,0,-0.62500294)">
    <rect
       style="display:inline;overflow:visible;visibility:visible;fill:url(#linearGradient19619);fill-opacity:1;fill-rule:nonzero;stroke:none;stroke-width:0.5;marker:none"
       id="rect2879"
       y="43"
       x="3.5999999"
       height="2.9999998"
       width="40.799999" />
    <path
       style="display:inline;overflow:visible;visibility:visible;fill:url(#radialGradient19616);fill-opacity:1;fill-rule:nonzero;stroke:none;stroke-width:0.5;marker:none"
       id="path2881"
       d="m 3.6,43.00013 c 0,0 0,2.999835 0,2.999835 C 2.1108662,46.005612 0,45.327854 0,44.499854 0,43.671856 1.6617608,43.000131 3.6,43.00013 Z" />
    <path
       style="display:inline;overflow:visible;visibility:visible;fill:url(#radialGradient19613);fill-opacity:1;fill-rule:nonzero;stroke:none;stroke-width:0.5;marker:none"
       id="path2883"
       d="m 44.4,43.00013 c 0,0 0,2.999835 0,2.999835 1.489133,0.0056 3.6,-0.672111 3.6,-1.500111 0,-0.827998 -1.661761,-1.499723 -3.6,-1.499724 z" />
  </g>
  <rect
     style="color:#000000;display:inline;overflow:visible;visibility:visible;fill:url(#linearGradient4534);fill-opacity:1;fill-rule:nonzero;stroke:#000000;stroke-width:0.9375;stroke-miterlimit:4;stroke-dasharray:none;stroke-opacity:0.3;marker:none;enable-background:accumulate"
     id="rect5505-21-3-8-5-2"
     y="27.65625"
     x="3.28125"
     ry="3.75"
     rx="3.75"
     height="60.9375"
     width="113.4375" />
  <rect
     style="opacity:0.6;fill:none;stroke:url(#linearGradient4088);stroke-width:0.9375;stroke-linecap:round;stroke-linejoin:round;stroke-miterlimit:4;stroke-dasharray:none;stroke-dashoffset:0;stroke-opacity:1"
     id="rect6741-5-0-2-3"
     y="28.59375"
     x="4.21875"
     ry="2.8125"
     rx="2.8125"
     height="59.0625"
     width="111.5625" />
  <path
     id="path1810-89-6-6"
     style="color:#000000;font-variation-settings:normal;clip-rule:nonzero;display:inline;overflow:visible;visibility:visible;opacity:0.07;isolation:auto;mix-blend-mode:normal;color-interpolation:sRGB;color-interpolation-filters:linearRGB;solid-color:#000000;solid-opacity:1;vector-effect:none;fill:#000000;fill-opacity:1;fill-rule:nonzero;stroke:none;stroke-width:1;stroke-linecap:butt;stroke-linejoin:miter;stroke-miterlimit:4;stroke-dasharray:none;stroke-dashoffset:0;stroke-opacity:1;-inkscape-stroke:none;marker:none;color-rendering:auto;image-rendering:auto;shape-rendering:auto;text-rendering:auto;enable-background:accumulate;stop-color:#000000;stop-opacity:1"
     d="m 10.308594,37.499999 c -1.0222674,0 -1.871094,0.857248 -1.871094,1.875 v 1.875 c 0,1.017744 0.848586,1.875 1.871094,1.875 -1.0208158,0.0022 -1.871094,0.85375 -1.871094,1.875 v 5.625 c 0,1.022536 0.8524706,1.875 1.875,1.875 -1.0225294,0 -1.875,0.852464 -1.875,1.875 v 5.625 c 0,1.022536 0.8524706,1.875 1.875,1.875 -1.0225294,0 -1.875,0.852464 -1.875,1.875 v 5.625 c 0,1.022536 0.8524706,1.875 1.875,1.875 -1.0225294,0 -1.875,0.852464 -1.875,1.875 v 5.625 c 0,1.022536 0.8524706,1.875 1.875,1.875 h 5.625 c 1.022529,0 1.875,-0.852464 1.875,-1.875 0,1.017736 0.848345,1.875 1.871094,1.875 H 25.3125 c 1.022748,0 1.875,-0.852562 1.875,-1.875 0,1.017736 0.848346,1.875 1.871094,1.875 H 34.6875 c 1.022748,0 1.875,-0.852562 1.875,-1.875 0,1.022536 0.85247,1.875 1.875,1.875 h 43.125 c 1.02253,0 1.875,-0.852464 1.875,-1.875 0,1.022534 0.85247,1.875 1.875,1.875 h 5.625 c 1.02253,0 1.875,-0.852464 1.875,-1.875 0,1.017736 0.848346,1.875 1.871094,1.875 h 5.628906 c 1.02275,0 1.875,-0.852562 1.875,-1.875 0,1.017736 0.84835,1.875 1.87109,1.875 h 5.62891 c 1.02275,0 1.875,-0.852562 1.875,-1.875 v -5.625 c 0,-1.022438 -0.85225,-1.875 -1.875,-1.875 1.02253,0 1.875,-0.852466 1.875,-1.875 v -5.625 c 0,-1.022534 -0.85247,-1.875 -1.875,-1.875 1.02253,0 1.875,-0.852466 1.875,-1.875 v -5.625 c 0,-1.022534 -0.85247,-1.875 -1.875,-1.875 1.02253,0 1.875,-0.852466 1.875,-1.875 v -5.625 c 0,-1.022534 -0.85247,-1.875 -1.875,-1.875 1.02251,0 1.875,-0.852556 1.875,-1.875 v -1.875 c 0,-1.02245 -0.85273,-1.875 -1.875,-1.875 h -5.62891 c -1.02226,0 -1.87109,0.857248 -1.87109,1.875 0,-1.02245 -0.85273,-1.875 -1.875,-1.875 h -5.628906 c -1.022268,0 -1.871094,0.857248 -1.871094,1.875 0,-1.022452 -0.852732,-1.875 -1.875,-1.875 h -5.628906 c -1.022268,0 -1.871094,0.857248 -1.871094,1.875 0,-1.02245 -0.852732,-1.875 -1.875,-1.875 h -5.628906 c -1.022268,0 -1.871094,0.857248 -1.871094,1.875 0,-1.02245 -0.852732,-1.875 -1.875,-1.875 h -5.628906 c -1.022268,0 -1.871094,0.857248 -1.871094,1.875 0,-1.02245 -0.852732,-1.875 -1.875,-1.875 h -5.628906 c -1.022268,0 -1.871094,0.857248 -1.871094,1.875 0,-1.02245 -0.852732,-1.875 -1.875,-1.875 h -5.628906 c -1.022268,0 -1.871094,0.857248 -1.871094,1.875 0,-1.02245 -0.852732,-1.875 -1.875,-1.875 h -5.628906 c -1.022268,0 -1.871094,0.857246 -1.871094,1.875 0,-1.02245 -0.852732,-1.875 -1.875,-1.875 h -5.628906 c -1.022268,0 -1.871094,0.857248 -1.871094,1.875 0,-1.02245 -0.852732,-1.875 -1.875,-1.875 h -5.628906 c -1.022267,0 -1.871094,0.857248 -1.871094,1.875 0,-1.02245 -0.852733,-1.875 -1.875,-1.875 z m 7.503906,3.75 c 0,1.017744 0.848586,1.875 1.871094,1.875 -1.022749,0 -1.871094,0.857264 -1.871094,1.875 0,-1.022536 -0.852471,-1.875 -1.875,-1.875 1.022508,0 1.875,-0.852556 1.875,-1.875 z m 9.375,0 c 0,1.017744 0.848586,1.875 1.871094,1.875 -1.022748,0 -1.871094,0.857264 -1.871094,1.875 0,-1.022438 -0.852252,-1.875 -1.875,-1.875 1.022508,0 1.875,-0.852556 1.875,-1.875 z m 9.375,0 c 0,1.017746 0.848586,1.875 1.871094,1.875 -1.022748,0 -1.871094,0.857262 -1.871094,1.875 0,-1.022438 -0.852252,-1.875 -1.875,-1.875 1.022508,0 1.875,-0.852556 1.875,-1.875 z m 9.375,0 c 0,1.017744 0.848586,1.875 1.871094,1.875 -1.022748,0 -1.871094,0.857264 -1.871094,1.875 0,-1.022438 -0.852252,-1.875 -1.875,-1.875 1.022508,0 1.875,-0.852556 1.875,-1.875 z m 9.375,0 c 0,1.017744 0.848586,1.875 1.871094,1.875 -1.022748,0 -1.871094,0.857264 -1.871094,1.875 0,-1.022438 -0.852252,-1.875 -1.875,-1.875 1.022508,0 1.875,-0.852556 1.875,-1.875 z m 9.375,0 c 0,1.017744 0.848586,1.875 1.871094,1.875 -1.022748,0 -1.871094,0.857264 -1.871094,1.875 0,-1.022438 -0.852252,-1.875 -1.875,-1.875 1.022508,0 1.875,-0.852556 1.875,-1.875 z m 9.375,0 c 0,1.017744 0.848586,1.875 1.871094,1.875 -1.022748,0 -1.871094,0.857264 -1.871094,1.875 0,-1.022438 -0.852252,-1.875 -1.875,-1.875 1.022508,0 1.875,-0.852556 1.875,-1.875 z m 9.375,0 c 0,1.017744 0.848586,1.875 1.871094,1.875 -1.020816,0.0022 -1.871094,0.853752 -1.871094,1.875 0,-1.022438 -0.852252,-1.875 -1.875,-1.875 1.022508,0 1.875,-0.852556 1.875,-1.875 z m 9.375,0 c 0,1.017744 0.848586,1.875 1.871094,1.875 H 96.5625 c -1.02253,0 -1.875,0.852464 -1.875,1.875 0,-1.022536 -0.85247,-1.875 -1.875,-1.875 h -1.875 c 1.022508,0 1.875,-0.852554 1.875,-1.875 z m 9.375,0 c 0,1.017744 0.84859,1.875 1.87109,1.875 h -3.74609 c 1.02251,0 1.875,-0.852556 1.875,-1.875 z m -84.375,9.375 c 0,1.017736 0.848345,1.875 1.871094,1.875 H 15.9375 c 1.022529,0 1.875,-0.852464 1.875,-1.875 z m 9.375,0 c 0,1.017736 0.848346,1.875 1.871094,1.875 H 25.3125 c 1.022748,0 1.875,-0.852562 1.875,-1.875 z m 9.375,0 c 0,1.017738 0.848346,1.875 1.871094,1.875 H 34.6875 c 1.022748,0 1.875,-0.852562 1.875,-1.875 z m 9.375,0 c 0,1.017736 0.848346,1.875 1.871094,1.875 H 44.0625 c 1.022748,0 1.875,-0.852562 1.875,-1.875 z m 9.375,0 c 0,1.017736 0.848346,1.875 1.871094,1.875 H 53.4375 c 1.022748,0 1.875,-0.852562 1.875,-1.875 z m 9.375,0 c 0,1.017736 0.848346,1.875 1.871094,1.875 H 62.8125 c 1.022748,0 1.875,-0.852562 1.875,-1.875 z m 9.375,0 c 0,1.017736 0.848346,1.875 1.871094,1.875 H 72.1875 c 1.022748,0 1.875,-0.852562 1.875,-1.875 z m 9.375,0 c 0,1.022534 0.85247,1.875 1.875,1.875 h 3.746094 c -1.022748,0 -1.871094,0.857264 -1.871094,1.875 0,-1.022438 -0.852252,-1.875 -1.875,-1.875 h -3.75 c 1.022748,0 1.875,-0.852562 1.875,-1.875 z m 11.25,0 c 0,1.022536 0.85247,1.875 1.875,1.875 h 1.875 c -1.02253,0 -1.875,0.852464 -1.875,1.875 0,-1.022438 -0.852252,-1.875 -1.875,-1.875 h -1.875 c 1.02253,0 1.875,-0.852464 1.875,-1.875 z m -75,1.875 h 3.75 c -1.02253,0 -1.875,0.852466 -1.875,1.875 0,-1.022536 -0.85247,-1.875 -1.875,-1.875 z m 9.375,0 h 3.746094 c -1.022748,0 -1.871094,0.857264 -1.871094,1.875 0,-1.022536 -0.85247,-1.875 -1.875,-1.875 z m 9.375,0 h 3.746094 c -1.022748,0 -1.871094,0.857264 -1.871094,1.875 0,-1.022438 -0.852252,-1.875 -1.875,-1.875 z m 9.375,0 h 3.746094 c -1.022748,0 -1.871094,0.857264 -1.871094,1.875 0,-1.022438 -0.852252,-1.875 -1.875,-1.875 z m 9.375,0 h 3.746094 c -1.022748,0 -1.871094,0.857264 -1.871094,1.875 0,-1.022438 -0.852252,-1.875 -1.875,-1.875 z m 9.375,0 h 3.746094 c -1.022748,0 -1.871094,0.857264 -1.871094,1.875 0,-1.022438 -0.852252,-1.875 -1.875,-1.875 z m 9.375,0 h 3.746094 c -1.022748,0 -1.871094,0.857264 -1.871094,1.875 0,-1.022438 -0.852252,-1.875 -1.875,-1.875 z m -54.375,7.5 c 0,1.022534 0.85247,1.875 1.875,1.875 h -3.75 c 1.02253,0 1.875,-0.852464 1.875,-1.875 z m 9.375,0 c 0,1.017736 0.848346,1.875 1.871094,1.875 H 29.0625 c -1.022748,0 -1.875,0.852562 -1.875,1.875 0,-1.022536 -0.85247,-1.875 -1.875,-1.875 h 3.75 c 1.02253,0 1.875,-0.852464 1.875,-1.875 z m 9.375,0 c 0,1.017736 0.848346,1.875 1.871094,1.875 H 38.4375 c -1.022748,0 -1.875,0.852562 -1.875,1.875 0,-1.017736 -0.848346,-1.875 -1.871094,-1.875 H 38.4375 c 1.022748,0 1.875,-0.852562 1.875,-1.875 z m 9.375,0 c 0,1.017736 0.848346,1.875 1.871094,1.875 H 47.8125 c -1.022748,0 -1.875,0.852562 -1.875,1.875 0,-1.017736 -0.848346,-1.875 -1.871094,-1.875 H 47.8125 c 1.022748,0 1.875,-0.852562 1.875,-1.875 z m 9.375,0 c 0,1.017736 0.848346,1.875 1.871094,1.875 H 57.1875 c -1.022748,0 -1.875,0.852562 -1.875,1.875 0,-1.017736 -0.848346,-1.875 -1.871094,-1.875 H 57.1875 c 1.022748,0 1.875,-0.852562 1.875,-1.875 z m 9.375,0 c 0,1.017736 0.848346,1.875 1.871094,1.875 H 66.5625 c -1.022748,0 -1.875,0.852562 -1.875,1.875 0,-1.017736 -0.848346,-1.875 -1.871094,-1.875 H 66.5625 c 1.022748,0 1.875,-0.852562 1.875,-1.875 z m 9.375,0 c 0,1.017736 0.848346,1.875 1.871094,1.875 H 75.9375 c -1.022748,0 -1.875,0.852562 -1.875,1.875 0,-1.017736 -0.848346,-1.875 -1.871094,-1.875 H 75.9375 c 1.022748,0 1.875,-0.852562 1.875,-1.875 z m 9.375,0 c 0,1.017736 0.848346,1.875 1.871094,1.875 H 85.3125 c -1.022748,0 -1.875,0.852562 -1.875,1.875 0,-1.017736 -0.848346,-1.875 -1.871094,-1.875 H 85.3125 c 1.022748,0 1.875,-0.852562 1.875,-1.875 z m 9.375,0 c 0,1.022536 0.85247,1.875 1.875,1.875 h -3.75 c -1.02253,0 -1.875,0.852464 -1.875,1.875 0,-1.017736 -0.848346,-1.875 -1.871094,-1.875 H 94.6875 c 1.022748,0 1.875,-0.852562 1.875,-1.875 z m -69.375,9.375 c 0,1.021152 0.85006,1.87286 1.871094,1.875 -1.022748,0 -1.871094,0.857264 -1.871094,1.875 0,-1.022438 -0.852252,-1.875 -1.875,-1.875 1.02253,0 1.875,-0.852464 1.875,-1.875 z m 9.375,0 c 0,1.022438 0.852252,1.875 1.875,1.875 -1.02253,0 -1.875,0.852464 -1.875,1.875 0,-1.021152 -0.85006,-1.87286 -1.871094,-1.875 1.022748,0 1.871094,-0.857264 1.871094,-1.875 z m 9.375,0 c 0,1.022438 0.852252,1.875 1.875,1.875 h -3.746094 c 1.022748,0 1.871094,-0.857264 1.871094,-1.875 z m 9.375,0 c 0,1.022438 0.852252,1.875 1.875,1.875 h -3.746094 c 1.022748,0 1.871094,-0.857264 1.871094,-1.875 z m 9.375,0 c 0,1.022438 0.852252,1.875 1.875,1.875 h -3.746094 c 1.022748,0 1.871094,-0.857264 1.871094,-1.875 z m 9.375,0 c 0,1.022438 0.852252,1.875 1.875,1.875 h -3.746094 c 1.022748,0 1.871094,-0.857264 1.871094,-1.875 z m 9.375,0 c 0,1.022438 0.852252,1.875 1.875,1.875 -1.02253,0 -1.875,0.852466 -1.875,1.875 0,-1.021252 -0.850278,-1.87286 -1.871094,-1.875 1.022748,0 1.871094,-0.857264 1.871094,-1.875 z m 9.375,0 c 0,1.021252 0.850278,1.87286 1.871094,1.875 -1.022748,0 -1.871094,0.857264 -1.871094,1.875 0,-1.021252 -0.850278,-1.87286 -1.871094,-1.875 1.022748,0 1.871094,-0.857264 1.871094,-1.875 z m -76.875,1.875 h 3.746094 c -1.022749,0 -1.871094,0.857264 -1.871094,1.875 0,-1.022536 -0.852471,-1.875 -1.875,-1.875 z m 84.375,0 h 3.74609 c -1.02274,0 -1.87109,0.857264 -1.87109,1.875 0,-1.022438 -0.85225,-1.875 -1.875,-1.875 z" />
  <path
     id="path1810-89-6"
     style="color:#000000;font-variation-settings:normal;clip-rule:nonzero;display:inline;overflow:visible;visibility:visible;opacity:0.15;isolation:auto;mix-blend-mode:normal;color-interpolation:sRGB;color-interpolation-filters:linearRGB;solid-color:#000000;solid-opacity:1;vector-effect:none;fill:#000000;fill-opacity:1;fill-rule:nonzero;stroke:none;stroke-width:1;stroke-linecap:butt;stroke-linejoin:miter;stroke-miterlimit:4;stroke-dasharray:none;stroke-dashoffset:0;stroke-opacity:1;-inkscape-stroke:none;marker:none;color-rendering:auto;image-rendering:auto;shape-rendering:auto;text-rendering:auto;enable-background:accumulate;stop-color:#000000;stop-opacity:1"
     d="m 10.308838,38.437499 c -0.5194522,0 -0.9338384,0.4179 -0.9338384,0.9375 v 1.875 c 0,0.5194 0.4143862,0.9375 0.9338384,0.9375 h 5.628661 c 0.519453,0 0.9375,-0.4181 0.9375,-0.9375 v -1.875 c 0,-0.5196 -0.418047,-0.9375 -0.9375,-0.9375 z m 9.374999,0 c -0.519451,0 -0.933838,0.4179 -0.933838,0.9375 v 1.875 c 0,0.5194 0.414387,0.9375 0.933838,0.9375 H 25.3125 c 0.519452,0 0.9375,-0.4181 0.9375,-0.9375 v -1.875 c 0,-0.5196 -0.418048,-0.9375 -0.9375,-0.9375 z m 9.375001,0 c -0.519452,0 -0.933838,0.4179 -0.933838,0.9375 v 1.875 c 0,0.5194 0.414386,0.9375 0.933838,0.9375 h 5.62866 c 0.519452,0 0.9375,-0.4181 0.9375,-0.9375 v -1.875 c 0,-0.5196 -0.418048,-0.9375 -0.9375,-0.9375 z m 9.374998,0 c -0.51945,0 -0.933838,0.4179 -0.933838,0.9375 v 1.875 c 0,0.5194 0.414388,0.9375 0.933838,0.9375 h 5.628662 c 0.519452,0 0.9375,-0.4181 0.9375,-0.9375 v -1.875 c 0,-0.5196 -0.418048,-0.9375 -0.9375,-0.9375 z m 9.375,0 c -0.519452,0 -0.933838,0.4179 -0.933838,0.9375 v 1.875 c 0,0.5194 0.414386,0.9375 0.933838,0.9375 h 5.628662 c 0.519452,0 0.9375,-0.4181 0.9375,-0.9375 v -1.875 c 0,-0.5196 -0.418048,-0.9375 -0.9375,-0.9375 z m 9.375,0 c -0.519452,0 -0.933838,0.4179 -0.933838,0.9375 v 1.875 c 0,0.5194 0.414386,0.9375 0.933838,0.9375 h 5.628662 c 0.519452,0 0.9375,-0.4181 0.9375,-0.9375 v -1.875 c 0,-0.5196 -0.418048,-0.9375 -0.9375,-0.9375 z m 9.375,0 c -0.519452,0 -0.933838,0.4179 -0.933838,0.9375 v 1.875 c 0,0.5194 0.414386,0.9375 0.933838,0.9375 h 5.628662 c 0.519452,0 0.9375,-0.4181 0.9375,-0.9375 v -1.875 c 0,-0.5196 -0.418048,-0.9375 -0.9375,-0.9375 z m 9.375,0 c -0.519452,0 -0.933838,0.4179 -0.933838,0.9375 v 1.875 c 0,0.5194 0.414386,0.9375 0.933838,0.9375 h 5.628662 c 0.519452,0 0.9375,-0.4181 0.9375,-0.9375 v -1.875 c 0,-0.5196 -0.418048,-0.9375 -0.9375,-0.9375 z m 9.375,0 c -0.519452,0 -0.933838,0.4179 -0.933838,0.9375 v 1.875 c 0,0.5194 0.414386,0.9375 0.933838,0.9375 h 5.628662 c 0.51945,0 0.9375,-0.4181 0.9375,-0.9375 v -1.875 c 0,-0.5196 -0.41805,-0.9375 -0.9375,-0.9375 z m 9.375,0 c -0.519452,0 -0.93384,0.4179 -0.93384,0.9375 v 1.875 c 0,0.5194 0.414388,0.9375 0.93384,0.9375 h 5.628664 c 0.51945,0 0.9375,-0.4181 0.9375,-0.9375 v -1.875 c 0,-0.5196 -0.41805,-0.9375 -0.9375,-0.9375 z m 9.374994,0 c -0.51945,0 -0.93383,0.4179 -0.93383,0.9375 v 1.875 c 0,0.5194 0.41438,0.9375 0.93383,0.9375 h 5.62867 c 0.51945,0 0.9375,-0.4181 0.9375,-0.9375 v -1.875 c 0,-0.5196 -0.41805,-0.9375 -0.9375,-0.9375 z m -93.74633,5.625 c -0.5193754,0 -0.9375004,0.41812 -0.9375004,0.9375 v 5.625 c 0,0.51938 0.418125,0.9375 0.9375004,0.9375 h 5.624999 c 0.519375,0 0.9375,-0.41812 0.9375,-0.9375 v -5.625 c 0,-0.51938 -0.418125,-0.9375 -0.9375,-0.9375 z m 9.371337,0 c -0.519451,0 -0.933838,0.4183 -0.933838,0.9375 v 5.625 c 0,0.5192 0.414387,0.9375 0.933838,0.9375 H 25.3125 c 0.519452,0 0.9375,-0.4183 0.9375,-0.9375 v -5.625 c 0,-0.5192 -0.418048,-0.9375 -0.9375,-0.9375 z m 9.375001,0 c -0.519452,0 -0.933838,0.4183 -0.933838,0.9375 v 5.625 c 0,0.5192 0.414386,0.9375 0.933838,0.9375 h 5.62866 c 0.519452,0 0.9375,-0.4183 0.9375,-0.9375 v -5.625 c 0,-0.5192 -0.418048,-0.9375 -0.9375,-0.9375 z m 9.374998,0 c -0.51945,0 -0.933838,0.4183 -0.933838,0.9375 v 5.625 c 0,0.5192 0.414388,0.9375 0.933838,0.9375 h 5.628662 c 0.519452,0 0.9375,-0.4183 0.9375,-0.9375 v -5.625 c 0,-0.5192 -0.418048,-0.9375 -0.9375,-0.9375 z m 9.375,0 c -0.519452,0 -0.933838,0.4183 -0.933838,0.9375 v 5.625 c 0,0.5192 0.414386,0.9375 0.933838,0.9375 h 5.628662 c 0.519452,0 0.9375,-0.4183 0.9375,-0.9375 v -5.625 c 0,-0.5192 -0.418048,-0.9375 -0.9375,-0.9375 z m 9.375,0 c -0.519452,0 -0.933838,0.4183 -0.933838,0.9375 v 5.625 c 0,0.5192 0.414386,0.9375 0.933838,0.9375 h 5.628662 c 0.519452,0 0.9375,-0.4183 0.9375,-0.9375 v -5.625 c 0,-0.5192 -0.418048,-0.9375 -0.9375,-0.9375 z m 9.375,0 c -0.519452,0 -0.933838,0.4183 -0.933838,0.9375 v 5.625 c 0,0.5192 0.414386,0.9375 0.933838,0.9375 h 5.628662 c 0.519452,0 0.9375,-0.4183 0.9375,-0.9375 v -5.625 c 0,-0.5192 -0.418048,-0.9375 -0.9375,-0.9375 z m 9.375,0 c -0.519452,0 -0.933838,0.4183 -0.933838,0.9375 v 5.625 c 0,0.5192 0.414386,0.9375 0.933838,0.9375 h 5.628662 c 0.519452,0 0.9375,-0.4183 0.9375,-0.9375 v -5.625 c 0,-0.5192 -0.418048,-0.9375 -0.9375,-0.9375 z m 9.378662,0 c -0.519376,0 -0.9375,0.41812 -0.9375,0.9375 v 5.625 c 0,0.51938 0.418124,0.9375 0.9375,0.9375 h 7.5 c 0.519374,0 0.937498,-0.41812 0.937498,-0.9375 v -5.625 c 0,-0.51938 -0.418124,-0.9375 -0.937498,-0.9375 z m 11.249998,0 c -0.519374,0 -0.9375,0.41812 -0.9375,0.9375 v 5.625 c 0,0.51938 0.418126,0.9375 0.9375,0.9375 H 109.6875 c 0.51937,0 0.9375,-0.41812 0.9375,-0.9375 v -5.625 c 0,-0.51938 -0.41813,-0.9375 -0.9375,-0.9375 z m -86.249996,9.375 c -0.5193754,0 -0.9375004,0.41812 -0.9375004,0.9375 v 5.625 c 0,0.51938 0.418125,0.9375 0.9375004,0.9375 h 9.374999 c 0.519375,0 0.937501,-0.41812 0.937501,-0.9375 v -5.625 c 0,-0.51938 -0.418126,-0.9375 -0.937501,-0.9375 z m 13.125,0 c -0.519376,0 -0.9375,0.41812 -0.9375,0.9375 v 5.625 c 0,0.51938 0.418124,0.9375 0.9375,0.9375 h 5.625 c 0.519374,0 0.9375,-0.41812 0.9375,-0.9375 v -5.625 c 0,-0.51938 -0.418126,-0.9375 -0.9375,-0.9375 z m 9.371338,0 c -0.519452,0 -0.93384,0.4183 -0.93384,0.9375 v 5.625 c 0,0.5192 0.414388,0.9375 0.93384,0.9375 h 5.62866 c 0.519452,0 0.9375,-0.4183 0.9375,-0.9375 v -5.625 c 0,-0.5192 -0.418048,-0.9375 -0.9375,-0.9375 z m 9.374998,0 c -0.519452,0 -0.933838,0.4183 -0.933838,0.9375 v 5.625 c 0,0.5192 0.414386,0.9375 0.933838,0.9375 h 5.628662 c 0.519452,0 0.9375,-0.4183 0.9375,-0.9375 v -5.625 c 0,-0.5192 -0.418048,-0.9375 -0.9375,-0.9375 z m 9.375,0 c -0.519452,0 -0.933838,0.4183 -0.933838,0.9375 v 5.625 c 0,0.5192 0.414386,0.9375 0.933838,0.9375 h 5.628662 c 0.519452,0 0.9375,-0.4183 0.9375,-0.9375 v -5.625 c 0,-0.5192 -0.418048,-0.9375 -0.9375,-0.9375 z m 9.375,0 c -0.519452,0 -0.933838,0.4183 -0.933838,0.9375 v 5.625 c 0,0.5192 0.414386,0.9375 0.933838,0.9375 h 5.628662 c 0.519452,0 0.9375,-0.4183 0.9375,-0.9375 v -5.625 c 0,-0.5192 -0.418048,-0.9375 -0.9375,-0.9375 z m 9.375,0 c -0.519452,0 -0.933838,0.4183 -0.933838,0.9375 v 5.625 c 0,0.5192 0.414386,0.9375 0.933838,0.9375 h 5.628662 c 0.519452,0 0.9375,-0.4183 0.9375,-0.9375 v -5.625 c 0,-0.5192 -0.418048,-0.9375 -0.9375,-0.9375 z m 9.375,0 c -0.519452,0 -0.933838,0.4183 -0.933838,0.9375 v 5.625 c 0,0.5192 0.414386,0.9375 0.933838,0.9375 h 5.628662 c 0.519452,0 0.9375,-0.4183 0.9375,-0.9375 v -5.625 c 0,-0.5192 -0.418048,-0.9375 -0.9375,-0.9375 z m 9.375,0 c -0.519452,0 -0.933838,0.4183 -0.933838,0.9375 v 5.625 c 0,0.5192 0.414386,0.9375 0.933838,0.9375 h 5.62866 c 0.519452,0 0.9375,-0.4183 0.9375,-0.9375 v -5.625 c 0,-0.5192 -0.418048,-0.9375 -0.9375,-0.9375 z m 9.37866,0 c -0.519374,0 -0.9375,0.41812 -0.9375,0.9375 v 5.625 c 0,0.51938 0.418126,0.9375 0.9375,0.9375 H 109.6875 c 0.51937,0 0.9375,-0.41812 0.9375,-0.9375 v -5.625 c 0,-0.51938 -0.41813,-0.9375 -0.9375,-0.9375 z m -88.124996,9.375 c -0.5193754,0 -0.9375004,0.41812 -0.9375004,0.9375 v 5.625 c 0,0.51938 0.418125,0.9375 0.9375004,0.9375 h 15 c 0.519374,0 0.9375,-0.41812 0.9375,-0.9375 v -5.625 c 0,-0.51938 -0.418126,-0.9375 -0.9375,-0.9375 z m 18.75,0 c -0.519452,0 -0.9375,0.4183 -0.9375,0.9375 v 5.625 c 0,0.5192 0.418048,0.9375 0.9375,0.9375 h 5.62866 c 0.519452,0 0.933838,-0.4183 0.933838,-0.9375 v -5.625 c 0,-0.5192 -0.414386,-0.9375 -0.933838,-0.9375 z m 9.374998,0 c -0.519452,0 -0.9375,0.4183 -0.9375,0.9375 v 5.625 c 0,0.5192 0.418048,0.9375 0.9375,0.9375 h 5.628662 c 0.519452,0 0.933838,-0.4183 0.933838,-0.9375 v -5.625 c 0,-0.5192 -0.414386,-0.9375 -0.933838,-0.9375 z m 9.375,0 c -0.519452,0 -0.9375,0.4183 -0.9375,0.9375 v 5.625 c 0,0.5192 0.418048,0.9375 0.9375,0.9375 h 5.628662 c 0.519452,0 0.933838,-0.4183 0.933838,-0.9375 v -5.625 c 0,-0.5192 -0.414386,-0.9375 -0.933838,-0.9375 z m 9.375,0 c -0.519452,0 -0.9375,0.4183 -0.9375,0.9375 v 5.625 c 0,0.5192 0.418048,0.9375 0.9375,0.9375 h 5.628662 c 0.519452,0 0.933838,-0.4183 0.933838,-0.9375 v -5.625 c 0,-0.5192 -0.414386,-0.9375 -0.933838,-0.9375 z m 9.375,0 c -0.519452,0 -0.9375,0.4183 -0.9375,0.9375 v 5.625 c 0,0.5192 0.418048,0.9375 0.9375,0.9375 h 5.628662 c 0.519452,0 0.933838,-0.4183 0.933838,-0.9375 v -5.625 c 0,-0.5192 -0.414386,-0.9375 -0.933838,-0.9375 z m 9.375,0 c -0.519452,0 -0.9375,0.4183 -0.9375,0.9375 v 5.625 c 0,0.5192 0.418048,0.9375 0.9375,0.9375 h 5.628662 c 0.519452,0 0.933838,-0.4183 0.933838,-0.9375 v -5.625 c 0,-0.5192 -0.414386,-0.9375 -0.933838,-0.9375 z m 9.375,0 c -0.519452,0 -0.9375,0.4183 -0.9375,0.9375 v 5.625 c 0,0.5192 0.418048,0.9375 0.9375,0.9375 h 5.62866 c 0.519452,0 0.93384,-0.4183 0.93384,-0.9375 v -5.625 c 0,-0.5192 -0.414388,-0.9375 -0.93384,-0.9375 z m 9.374998,0 c -0.519374,0 -0.9375,0.41812 -0.9375,0.9375 v 5.625 c 0,0.51938 0.418126,0.9375 0.9375,0.9375 H 109.6875 c 0.51937,0 0.9375,-0.41812 0.9375,-0.9375 v -5.625 c 0,-0.51938 -0.41813,-0.9375 -0.9375,-0.9375 z m -84.374996,9.375 c -0.5193754,0 -0.9375004,0.41812 -0.9375004,0.9375 v 5.625002 c 0,0.51938 0.418125,0.937498 0.9375004,0.937498 h 5.624999 c 0.519375,0 0.9375,-0.418118 0.9375,-0.937498 v -5.625002 c 0,-0.51938 -0.418125,-0.9375 -0.9375,-0.9375 z m 9.371337,0 c -0.519451,0 -0.933838,0.4183 -0.933838,0.9375 v 5.625002 c 0,0.5192 0.414387,0.937498 0.933838,0.937498 H 25.3125 c 0.519452,0 0.9375,-0.418298 0.9375,-0.937498 v -5.625002 c 0,-0.5192 -0.418048,-0.9375 -0.9375,-0.9375 z m 9.375001,0 c -0.519452,0 -0.933838,0.4183 -0.933838,0.9375 v 5.625002 c 0,0.5192 0.414386,0.937498 0.933838,0.937498 h 5.62866 c 0.519452,0 0.9375,-0.418298 0.9375,-0.937498 v -5.625002 c 0,-0.5192 -0.418048,-0.9375 -0.9375,-0.9375 z m 9.37866,0 c -0.519374,0 -0.9375,0.41812 -0.9375,0.9375 v 5.625002 c 0,0.51938 0.418126,0.937498 0.9375,0.937498 h 43.125 c 0.519374,0 0.9375,-0.418118 0.9375,-0.937498 v -5.625002 c 0,-0.51938 -0.418126,-0.9375 -0.9375,-0.9375 z m 46.875,0 c -0.519376,0 -0.9375,0.41812 -0.9375,0.9375 v 5.625002 c 0,0.51938 0.418124,0.937498 0.9375,0.937498 h 5.625 c 0.519374,0 0.9375,-0.418118 0.9375,-0.937498 v -5.625002 c 0,-0.51938 -0.418126,-0.9375 -0.9375,-0.9375 z m 9.371338,0 c -0.519452,0 -0.93384,0.4183 -0.93384,0.9375 v 5.625002 c 0,0.5192 0.414388,0.937498 0.93384,0.937498 h 5.628664 c 0.51945,0 0.9375,-0.418298 0.9375,-0.937498 v -5.625002 c 0,-0.5192 -0.41805,-0.9375 -0.9375,-0.9375 z m 9.374994,0 c -0.51945,0 -0.93383,0.4183 -0.93383,0.9375 v 5.625002 c 0,0.5192 0.41438,0.937498 0.93383,0.937498 h 5.62867 c 0.51945,0 0.9375,-0.418298 0.9375,-0.937498 v -5.625002 c 0,-0.5192 -0.41805,-0.9375 -0.9375,-0.9375 z" />
  <path
     id="path1810-89"
     style="color:#000000;clip-rule:nonzero;display:inline;overflow:visible;visibility:visible;isolation:auto;mix-blend-mode:normal;color-interpolation:sRGB;color-interpolation-filters:linearRGB;solid-color:#000000;solid-opacity:1;fill:url(#linearGradient3154);fill-opacity:1;fill-rule:nonzero;stroke:none;stroke-width:0.999994;stroke-linecap:butt;stroke-linejoin:miter;stroke-miterlimit:4;stroke-dasharray:none;stroke-dashoffset:0;stroke-opacity:1;marker:none;color-rendering:auto;image-rendering:auto;shape-rendering:auto;text-rendering:auto;enable-background:accumulate"
     d="m 10.308837,37.499996 c -0.5194515,0 -0.9338375,0.4179 -0.9338375,0.9375 v 1.875 c 0,0.519399 0.414386,0.9375 0.9338375,0.9375 h 5.628662 c 0.519452,0 0.9375,-0.418101 0.9375,-0.9375 v -1.875 c 0,-0.5196 -0.418048,-0.9375 -0.9375,-0.9375 z m 9.375,0 c -0.519452,0 -0.933838,0.4179 -0.933838,0.9375 v 1.875 c 0,0.519399 0.414386,0.9375 0.933838,0.9375 h 5.628662 c 0.519451,0 0.9375,-0.418101 0.9375,-0.9375 v -1.875 c 0,-0.5196 -0.418049,-0.9375 -0.9375,-0.9375 z m 9.375,0 c -0.519452,0 -0.933839,0.4179 -0.933839,0.9375 v 1.875 c 0,0.519399 0.414387,0.9375 0.933839,0.9375 h 5.628661 c 0.519452,0 0.9375,-0.418101 0.9375,-0.9375 v -1.875 c 0,-0.5196 -0.418048,-0.9375 -0.9375,-0.9375 z m 9.374999,0 c -0.519452,0 -0.933838,0.4179 -0.933838,0.9375 v 1.875 c 0,0.519399 0.414386,0.9375 0.933838,0.9375 h 5.628662 c 0.519451,0 0.9375,-0.418101 0.9375,-0.9375 v -1.875 c 0,-0.5196 -0.418049,-0.9375 -0.9375,-0.9375 z m 9.375,0 c -0.519452,0 -0.933839,0.4179 -0.933839,0.9375 v 1.875 c 0,0.519399 0.414387,0.9375 0.933839,0.9375 h 5.628661 c 0.519452,0 0.9375,-0.418101 0.9375,-0.9375 v -1.875 c 0,-0.5196 -0.418048,-0.9375 -0.9375,-0.9375 z m 9.374999,0 c -0.519452,0 -0.933838,0.4179 -0.933838,0.9375 v 1.875 c 0,0.519399 0.414386,0.9375 0.933838,0.9375 h 5.628662 c 0.519451,0 0.9375,-0.418101 0.9375,-0.9375 v -1.875 c 0,-0.5196 -0.418049,-0.9375 -0.9375,-0.9375 z m 9.375,0 c -0.519452,0 -0.933839,0.4179 -0.933839,0.9375 v 1.875 c 0,0.519399 0.414387,0.9375 0.933839,0.9375 h 5.628661 c 0.519452,0 0.9375,-0.418101 0.9375,-0.9375 v -1.875 c 0,-0.5196 -0.418048,-0.9375 -0.9375,-0.9375 z m 9.374999,0 c -0.519452,0 -0.933838,0.4179 -0.933838,0.9375 v 1.875 c 0,0.519399 0.414386,0.9375 0.933838,0.9375 h 5.628662 c 0.519451,0 0.9375,-0.418101 0.9375,-0.9375 v -1.875 c 0,-0.5196 -0.418049,-0.9375 -0.9375,-0.9375 z m 9.375,0 c -0.519452,0 -0.933839,0.4179 -0.933839,0.9375 v 1.875 c 0,0.519399 0.414387,0.9375 0.933839,0.9375 h 5.628661 c 0.519452,0 0.9375,-0.418101 0.9375,-0.9375 v -1.875 c 0,-0.5196 -0.418048,-0.9375 -0.9375,-0.9375 z m 9.374999,0 c -0.519452,0 -0.933838,0.4179 -0.933838,0.9375 v 1.875 c 0,0.519399 0.414386,0.9375 0.933838,0.9375 h 5.628657 c 0.51946,0 0.9375,-0.418101 0.9375,-0.9375 v -1.875 c 0,-0.5196 -0.41804,-0.9375 -0.9375,-0.9375 z m 9.374997,0 c -0.51945,0 -0.93384,0.4179 -0.93384,0.9375 v 1.875 c 0,0.519399 0.41439,0.9375 0.93384,0.9375 h 5.62866 c 0.51946,0 0.9375,-0.418101 0.9375,-0.9375 v -1.875 c 0,-0.5196 -0.41804,-0.9375 -0.9375,-0.9375 z m -93.746331,5.625 c -0.5193745,0 -0.9374995,0.418125 -0.9374995,0.9375 v 5.624999 c 0,0.519375 0.418125,0.9375 0.9374995,0.9375 h 5.625 c 0.519375,0 0.9375,-0.418125 0.9375,-0.9375 v -5.624999 c 0,-0.519375 -0.418125,-0.9375 -0.9375,-0.9375 z m 9.371338,0 c -0.519452,0 -0.933838,0.418299 -0.933838,0.9375 v 5.624999 c 0,0.519201 0.414386,0.9375 0.933838,0.9375 h 5.628662 c 0.519451,0 0.9375,-0.418299 0.9375,-0.9375 v -5.624999 c 0,-0.519201 -0.418049,-0.9375 -0.9375,-0.9375 z m 9.375,0 c -0.519452,0 -0.933839,0.418299 -0.933839,0.9375 v 5.624999 c 0,0.519201 0.414387,0.9375 0.933839,0.9375 h 5.628661 c 0.519452,0 0.9375,-0.418299 0.9375,-0.9375 v -5.624999 c 0,-0.519201 -0.418048,-0.9375 -0.9375,-0.9375 z m 9.374999,0 c -0.519452,0 -0.933838,0.418299 -0.933838,0.9375 v 5.624999 c 0,0.519201 0.414386,0.9375 0.933838,0.9375 h 5.628662 c 0.519451,0 0.9375,-0.418299 0.9375,-0.9375 v -5.624999 c 0,-0.519201 -0.418049,-0.9375 -0.9375,-0.9375 z m 9.375,0 c -0.519452,0 -0.933839,0.418299 -0.933839,0.9375 v 5.624999 c 0,0.519201 0.414387,0.9375 0.933839,0.9375 h 5.628661 c 0.519452,0 0.9375,-0.418299 0.9375,-0.9375 v -5.624999 c 0,-0.519201 -0.418048,-0.9375 -0.9375,-0.9375 z m 9.374999,0 c -0.519452,0 -0.933838,0.418299 -0.933838,0.9375 v 5.624999 c 0,0.519201 0.414386,0.9375 0.933838,0.9375 h 5.628662 c 0.519451,0 0.9375,-0.418299 0.9375,-0.9375 v -5.624999 c 0,-0.519201 -0.418049,-0.9375 -0.9375,-0.9375 z m 9.375,0 c -0.519452,0 -0.933839,0.418299 -0.933839,0.9375 v 5.624999 c 0,0.519201 0.414387,0.9375 0.933839,0.9375 h 5.628661 c 0.519452,0 0.9375,-0.418299 0.9375,-0.9375 v -5.624999 c 0,-0.519201 -0.418048,-0.9375 -0.9375,-0.9375 z m 9.374999,0 c -0.519452,0 -0.933838,0.418299 -0.933838,0.9375 v 5.624999 c 0,0.519201 0.414386,0.9375 0.933838,0.9375 h 5.628662 c 0.519451,0 0.9375,-0.418299 0.9375,-0.9375 v -5.624999 c 0,-0.519201 -0.418049,-0.9375 -0.9375,-0.9375 z m 9.378661,0 c -0.519375,0 -0.9375,0.418125 -0.9375,0.9375 v 5.624999 c 0,0.519375 0.418125,0.9375 0.9375,0.9375 h 7.5 c 0.519375,0 0.9375,-0.418125 0.9375,-0.9375 v -5.624999 c 0,-0.519375 -0.418125,-0.9375 -0.9375,-0.9375 z m 11.25,0 c -0.519375,0 -0.9375,0.418125 -0.9375,0.9375 v 5.624999 c 0,0.519375 0.418125,0.9375 0.9375,0.9375 h 13.124995 c 0.51938,0 0.9375,-0.418125 0.9375,-0.9375 v -5.624999 c 0,-0.519375 -0.41812,-0.9375 -0.9375,-0.9375 z m -86.249996,9.374999 c -0.5193745,0 -0.9374995,0.418125 -0.9374995,0.9375 v 5.625 c 0,0.519375 0.418125,0.9375 0.9374995,0.9375 h 9.375 c 0.519375,0 0.9375,-0.418125 0.9375,-0.9375 v -5.625 c 0,-0.519375 -0.418125,-0.9375 -0.9375,-0.9375 z m 13.125,0 c -0.519375,0 -0.9375,0.418125 -0.9375,0.9375 v 5.625 c 0,0.519375 0.418125,0.9375 0.9375,0.9375 h 5.624999 c 0.519375,0 0.9375,-0.418125 0.9375,-0.9375 v -5.625 c 0,-0.519375 -0.418125,-0.9375 -0.9375,-0.9375 z m 9.371337,0 c -0.519451,0 -0.933838,0.418299 -0.933838,0.9375 v 5.625 c 0,0.5192 0.414387,0.9375 0.933838,0.9375 h 5.628662 c 0.519452,0 0.9375,-0.4183 0.9375,-0.9375 v -5.625 c 0,-0.519201 -0.418048,-0.9375 -0.9375,-0.9375 z m 9.375,0 c -0.519452,0 -0.933838,0.418299 -0.933838,0.9375 v 5.625 c 0,0.5192 0.414386,0.9375 0.933838,0.9375 h 5.628661 c 0.519452,0 0.9375,-0.4183 0.9375,-0.9375 v -5.625 c 0,-0.519201 -0.418048,-0.9375 -0.9375,-0.9375 z m 9.374999,0 c -0.519451,0 -0.933838,0.418299 -0.933838,0.9375 v 5.625 c 0,0.5192 0.414387,0.9375 0.933838,0.9375 h 5.628662 c 0.519452,0 0.9375,-0.4183 0.9375,-0.9375 v -5.625 c 0,-0.519201 -0.418048,-0.9375 -0.9375,-0.9375 z m 9.375,0 c -0.519452,0 -0.933838,0.418299 -0.933838,0.9375 v 5.625 c 0,0.5192 0.414386,0.9375 0.933838,0.9375 h 5.628661 c 0.519452,0 0.9375,-0.4183 0.9375,-0.9375 v -5.625 c 0,-0.519201 -0.418048,-0.9375 -0.9375,-0.9375 z m 9.374999,0 c -0.519451,0 -0.933838,0.418299 -0.933838,0.9375 v 5.625 c 0,0.5192 0.414387,0.9375 0.933838,0.9375 h 5.628662 c 0.519452,0 0.9375,-0.4183 0.9375,-0.9375 v -5.625 c 0,-0.519201 -0.418048,-0.9375 -0.9375,-0.9375 z m 9.375,0 c -0.519452,0 -0.933838,0.418299 -0.933838,0.9375 v 5.625 c 0,0.5192 0.414386,0.9375 0.933838,0.9375 h 5.628661 c 0.519452,0 0.9375,-0.4183 0.9375,-0.9375 v -5.625 c 0,-0.519201 -0.418048,-0.9375 -0.9375,-0.9375 z m 9.374999,0 c -0.519451,0 -0.933838,0.418299 -0.933838,0.9375 v 5.625 c 0,0.5192 0.414387,0.9375 0.933838,0.9375 h 5.628662 c 0.519452,0 0.9375,-0.4183 0.9375,-0.9375 v -5.625 c 0,-0.519201 -0.418048,-0.9375 -0.9375,-0.9375 z m 9.378662,0 c -0.519375,0 -0.9375,0.418125 -0.9375,0.9375 v 5.625 c 0,0.519375 0.418125,0.9375 0.9375,0.9375 h 11.249995 c 0.51938,0 0.9375,-0.418125 0.9375,-0.9375 v -5.625 c 0,-0.519375 -0.41812,-0.9375 -0.9375,-0.9375 z m -88.124996,9.375 c -0.5193745,0 -0.9374995,0.418125 -0.9374995,0.9375 v 5.624999 c 0,0.519375 0.418125,0.9375 0.9374995,0.9375 h 15 c 0.519375,0 0.9375,-0.418125 0.9375,-0.9375 v -5.624999 c 0,-0.519375 -0.418125,-0.9375 -0.9375,-0.9375 z m 18.749999,0 c -0.519451,0 -0.9375,0.418299 -0.9375,0.9375 v 5.624999 c 0,0.519201 0.418049,0.9375 0.9375,0.9375 h 5.628662 c 0.519452,0 0.933838,-0.418299 0.933838,-0.9375 v -5.624999 c 0,-0.519201 -0.414386,-0.9375 -0.933838,-0.9375 z m 9.375,0 c -0.519452,0 -0.9375,0.418299 -0.9375,0.9375 v 5.624999 c 0,0.519201 0.418048,0.9375 0.9375,0.9375 h 5.628662 c 0.519451,0 0.933838,-0.418299 0.933838,-0.9375 v -5.624999 c 0,-0.519201 -0.414387,-0.9375 -0.933838,-0.9375 z m 9.374999,0 c -0.519451,0 -0.9375,0.418299 -0.9375,0.9375 v 5.624999 c 0,0.519201 0.418049,0.9375 0.9375,0.9375 h 5.628662 c 0.519452,0 0.933838,-0.418299 0.933838,-0.9375 v -5.624999 c 0,-0.519201 -0.414386,-0.9375 -0.933838,-0.9375 z m 9.375,0 c -0.519452,0 -0.9375,0.418299 -0.9375,0.9375 v 5.624999 c 0,0.519201 0.418048,0.9375 0.9375,0.9375 h 5.628662 c 0.519451,0 0.933838,-0.418299 0.933838,-0.9375 v -5.624999 c 0,-0.519201 -0.414387,-0.9375 -0.933838,-0.9375 z m 9.374999,0 c -0.519451,0 -0.9375,0.418299 -0.9375,0.9375 v 5.624999 c 0,0.519201 0.418049,0.9375 0.9375,0.9375 h 5.628662 c 0.519452,0 0.933838,-0.418299 0.933838,-0.9375 v -5.624999 c 0,-0.519201 -0.414386,-0.9375 -0.933838,-0.9375 z m 9.375,0 c -0.519452,0 -0.9375,0.418299 -0.9375,0.9375 v 5.624999 c 0,0.519201 0.418048,0.9375 0.9375,0.9375 h 5.628662 c 0.519451,0 0.933838,-0.418299 0.933838,-0.9375 v -5.624999 c 0,-0.519201 -0.414387,-0.9375 -0.933838,-0.9375 z m 9.374999,0 c -0.519451,0 -0.9375,0.418299 -0.9375,0.9375 v 5.624999 c 0,0.519201 0.418049,0.9375 0.9375,0.9375 h 5.628662 c 0.519452,0 0.933838,-0.418299 0.933838,-0.9375 v -5.624999 c 0,-0.519201 -0.414386,-0.9375 -0.933838,-0.9375 z m 9.375,0 c -0.519375,0 -0.9375,0.418125 -0.9375,0.9375 v 5.624999 c 0,0.519375 0.418125,0.9375 0.9375,0.9375 h 14.999995 c 0.51938,0 0.9375,-0.418125 0.9375,-0.9375 v -5.624999 c 0,-0.519375 -0.41812,-0.9375 -0.9375,-0.9375 z m -84.374996,9.374999 c -0.5193745,0 -0.9374995,0.418125 -0.9374995,0.9375 v 5.625 c 0,0.519375 0.418125,0.9375 0.9374995,0.9375 h 5.625 c 0.519375,0 0.9375,-0.418125 0.9375,-0.9375 v -5.625 c 0,-0.519375 -0.418125,-0.9375 -0.9375,-0.9375 z m 9.371338,0 c -0.519452,0 -0.933838,0.418298 -0.933838,0.9375 v 5.625 c 0,0.5192 0.414386,0.9375 0.933838,0.9375 h 5.628662 c 0.519451,0 0.9375,-0.4183 0.9375,-0.9375 v -5.625 c 0,-0.519202 -0.418049,-0.9375 -0.9375,-0.9375 z m 9.375,0 c -0.519452,0 -0.933839,0.418298 -0.933839,0.9375 v 5.625 c 0,0.5192 0.414387,0.9375 0.933839,0.9375 h 5.628661 c 0.519452,0 0.9375,-0.4183 0.9375,-0.9375 v -5.625 c 0,-0.519202 -0.418048,-0.9375 -0.9375,-0.9375 z m 9.378661,0 c -0.519375,0 -0.9375,0.418125 -0.9375,0.9375 v 5.625 c 0,0.519375 0.418125,0.9375 0.9375,0.9375 h 43.124998 c 0.519375,0 0.9375,-0.418125 0.9375,-0.9375 v -5.625 c 0,-0.519375 -0.418125,-0.9375 -0.9375,-0.9375 z m 46.874997,0 c -0.519375,0 -0.9375,0.418125 -0.9375,0.9375 v 5.625 c 0,0.519375 0.418125,0.9375 0.9375,0.9375 h 5.625 c 0.519375,0 0.9375,-0.418125 0.9375,-0.9375 v -5.625 c 0,-0.519375 -0.418125,-0.9375 -0.9375,-0.9375 z m 9.371338,0 c -0.519452,0 -0.933838,0.418298 -0.933838,0.9375 v 5.625 c 0,0.5192 0.414386,0.9375 0.933838,0.9375 h 5.628657 c 0.51946,0 0.9375,-0.4183 0.9375,-0.9375 v -5.625 c 0,-0.519202 -0.41804,-0.9375 -0.9375,-0.9375 z m 9.374997,0 c -0.51945,0 -0.93384,0.418298 -0.93384,0.9375 v 5.625 c 0,0.5192 0.41439,0.9375 0.93384,0.9375 h 5.62866 c 0.51946,0 0.9375,-0.4183 0.9375,-0.9375 v -5.625 c 0,-0.519202 -0.41804,-0.9375 -0.9375,-0.9375 z" />
</svg>
