<?xml version="1.0" encoding="UTF-8" standalone="no"?>
<svg
   xmlns:dc="http://purl.org/dc/elements/1.1/"
   xmlns:cc="http://creativecommons.org/ns#"
   xmlns:rdf="http://www.w3.org/1999/02/22-rdf-syntax-ns#"
   xmlns:svg="http://www.w3.org/2000/svg"
   xmlns="http://www.w3.org/2000/svg"
   xmlns:xlink="http://www.w3.org/1999/xlink"
   id="svg3759"
   height="48"
   width="48"
   version="1.1">
  <metadata
     id="metadata194365">
    <rdf:RDF>
      <cc:Work
         rdf:about="">
        <dc:format>image/svg+xml</dc:format>
        <dc:type
           rdf:resource="http://purl.org/dc/dcmitype/StillImage" />
        <dc:title />
      </cc:Work>
    </rdf:RDF>
  </metadata>
  <defs
     id="defs3761">
    <radialGradient
       xlink:href="#linearGradient3315"
       r="8.5625"
       id="radialGradient3321"
       gradientUnits="userSpaceOnUse"
       gradientTransform="matrix(1,0,0,0.5328467,0,21.518248)"
       fy="46.0625"
       fx="10.5625"
       cy="46.0625"
       cx="10.5625" />
    <linearGradient
       id="linearGradient3315">
      <stop
         style="stop-color:#000000;stop-opacity:1;"
         offset="0"
         id="stop3317" />
      <stop
         style="stop-color:#000000;stop-opacity:0;"
         offset="1"
         id="stop3319" />
    </linearGradient>
    <radialGradient
       xlink:href="#linearGradient2892"
       r="4.5"
       id="radialGradient3832"
       gradientUnits="userSpaceOnUse"
       fy="23.5"
       fx="6.5"
       cy="23.5"
       cx="6.5" />
    <linearGradient
       id="linearGradient2892">
      <stop
         style="stop-color:black;stop-opacity:1;"
         offset="0"
         id="stop2894" />
      <stop
         style="stop-color:black;stop-opacity:0;"
         offset="1"
         id="stop2896" />
    </linearGradient>
    <radialGradient
       xlink:href="#linearGradient2892"
       r="4.5"
       id="radialGradient3834"
       gradientUnits="userSpaceOnUse"
       fy="23.5"
       fx="6.5"
       cy="23.5"
       cx="6.5" />
    <radialGradient
       xlink:href="#linearGradient3201"
       r="18.572308"
       id="radialGradient3297"
       gradientUnits="userSpaceOnUse"
       gradientTransform="matrix(6.0429881,0,0,5.537076,-142.79439,-152.23844)"
       fy="33.986694"
       fx="28.6576"
       cy="33.986694"
       cx="28.6576" />
    <linearGradient
       id="linearGradient3201">
      <stop
         style="stop-color:#e7ce79;stop-opacity:1"
         offset="0"
         id="stop3203" />
      <stop
         style="stop-color:#c17d11;stop-opacity:1"
         offset="1"
         id="stop3205" />
    </linearGradient>
    <linearGradient
       y2="83.076073"
       y1="9.1440983"
       xlink:href="#linearGradient3299"
       x2="51.568203"
       x1="15.299923"
       id="linearGradient3238"
       gradientUnits="userSpaceOnUse"
       gradientTransform="translate(1.0640333,0.0246337)" />
    <linearGradient
       id="linearGradient3299">
      <stop
         style="stop-color:white;stop-opacity:1;"
         offset="0"
         id="stop3301-0" />
      <stop
         style="stop-color:#ffffff;stop-opacity:0.52091253"
         offset="1"
         id="stop3303-5" />
    </linearGradient>
    <radialGradient
       xlink:href="#linearGradient3266"
       r="12.3671"
       id="radialGradient3274"
       gradientUnits="userSpaceOnUse"
       gradientTransform="matrix(0.1675436,0.1340677,-0.9393554,1.1739072,43.937672,-7.5867473)"
       fy="23.21442"
       fx="28.469051"
       cy="23.21442"
       cx="28.469051" />
    <linearGradient
       id="linearGradient3266">
      <stop
         style="stop-color:#000000;stop-opacity:1;"
         offset="0"
         id="stop3268" />
      <stop
         style="stop-color:#000000;stop-opacity:0;"
         offset="1"
         id="stop3270" />
    </linearGradient>
    <linearGradient
       y2="17.17729"
       y1="18.657627"
       xlink:href="#linearGradient3310"
       x2="31.180811"
       x1="33.175713"
       id="linearGradient3279"
       gradientUnits="userSpaceOnUse"
       gradientTransform="matrix(0.8048011,-0.08405894,-0.2587753,0.8411918,10.723364,3.5105159)" />
    <linearGradient
       id="linearGradient3310">
      <stop
         style="stop-color:#c17d11;stop-opacity:1"
         offset="0"
         id="stop3312" />
      <stop
         style="stop-color:#e9b96e;stop-opacity:1"
         offset="1"
         id="stop3314" />
    </linearGradient>
    <linearGradient
       y2="5.5"
       y1="14.769098"
       xlink:href="#linearGradient3088"
       x2="16.6399"
       x1="21.424923"
       id="linearGradient3236"
       gradientUnits="userSpaceOnUse"
       gradientTransform="translate(1.0640333,0.0246337)" />
    <linearGradient
       id="linearGradient3088">
      <stop
         style="stop-color:white;stop-opacity:1;"
         offset="0"
         id="stop3090" />
      <stop
         style="stop-color:white;stop-opacity:0.34600762"
         offset="1"
         id="stop3092" />
    </linearGradient>
    <linearGradient
       y2="33.485096"
       y1="29.591417"
       xlink:href="#linearGradient3235"
       x2="23.529133"
       x1="19.635454"
       id="linearGradient3276"
       gradientUnits="userSpaceOnUse"
       gradientTransform="matrix(0.8048011,-0.08405894,-0.2587753,0.8411918,10.723364,3.5105159)" />
    <linearGradient
       id="linearGradient3235">
      <stop
         style="stop-color:#eeeeec;stop-opacity:1"
         offset="0"
         id="stop3237" />
      <stop
         style="stop-color:#888a85;stop-opacity:1"
         offset="1"
         id="stop3239" />
    </linearGradient>
    <linearGradient
       y2="6.1875"
       y1="28.625"
       xlink:href="#linearGradient3301"
       x2="41.4375"
       x1="18.1875"
       id="linearGradient3308"
       gradientUnits="userSpaceOnUse"
       gradientTransform="translate(0,-1)" />
    <linearGradient
       id="linearGradient3301">
      <stop
         style="stop-color:#ffffff;stop-opacity:1;"
         offset="0"
         id="stop3304" />
      <stop
         style="stop-color:#ffffff;stop-opacity:0;"
         offset="1"
         id="stop3306" />
    </linearGradient>
    <radialGradient
       xlink:href="#linearGradient2911"
       r="4.244812"
       id="radialGradient2917"
       gradientUnits="userSpaceOnUse"
       gradientTransform="matrix(0.9409277,0,0,1.0482489,1.6820709,-3.1775018)"
       fy="36.025131"
       fx="23.537704"
       cy="36.025131"
       cx="23.537704" />
    <linearGradient
       id="linearGradient2911">
      <stop
         style="stop-color:#8ae234;stop-opacity:1"
         offset="0"
         id="stop2913" />
      <stop
         style="stop-color:#73d216;stop-opacity:1"
         offset="1"
         id="stop2915" />
    </linearGradient>
    <linearGradient
       y2="43.382187"
       y1="38.581955"
       xlink:href="#linearGradient3126"
       x2="10.165062"
       x1="10.593056"
       id="linearGradient3240"
       gradientUnits="userSpaceOnUse"
       gradientTransform="matrix(1,0,0,1.2675301,-0.999995,-14.85358)" />
    <linearGradient
       id="linearGradient3126">
      <stop
         style="stop-color:#555753;stop-opacity:1"
         offset="0"
         id="stop3128" />
      <stop
         style="stop-color:#1f2324;stop-opacity:1"
         offset="1"
         id="stop3130" />
    </linearGradient>
    <linearGradient
       y2="46.82093"
       y1="38.811657"
       xlink:href="#linearGradient3171"
       x2="10.924745"
       x1="9.3437004"
       id="linearGradient3237"
       gradientUnits="userSpaceOnUse"
       gradientTransform="matrix(0.6424152,0,0,0.7146281,3.445805,6.787435)" />
    <linearGradient
       id="linearGradient3171">
      <stop
         style="stop-color:white;stop-opacity:1;"
         offset="0"
         id="stop3173" />
      <stop
         style="stop-color:white;stop-opacity:0.06844106"
         offset="1"
         id="stop3175" />
    </linearGradient>
    <linearGradient
       y2="39.53223"
       y1="38.012455"
       xlink:href="#linearGradient3171"
       x2="12.186543"
       x1="12.186543"
       id="linearGradient3252"
       gradientUnits="userSpaceOnUse" />
    <radialGradient
       xlink:href="#linearGradient2866"
       r="5.0383153"
       id="radialGradient2872"
       gradientUnits="userSpaceOnUse"
       gradientTransform="matrix(0.636942,0.6968413,0.5532571,-0.5101348,-5.0012019,25.28829)"
       fy="33.609394"
       fx="32.450172"
       cy="33.609394"
       cx="32.450172" />
    <linearGradient
       id="linearGradient2866">
      <stop
         style="stop-color:#ef2929;stop-opacity:1"
         offset="0"
         id="stop2868" />
      <stop
         style="stop-color:#cc0000;stop-opacity:1"
         offset="1"
         id="stop2870" />
    </linearGradient>
    <linearGradient
       y2="7.3314619"
       y1="5.2539482"
       xlink:href="#linearGradient3222"
       x2="36.610626"
       x1="38.289421"
       id="linearGradient3270"
       gradientUnits="userSpaceOnUse"
       gradientTransform="matrix(0.8048011,-0.08405894,-0.2587753,0.8411918,10.626724,5.876157)" />
    <linearGradient
       id="linearGradient3222">
      <stop
         style="stop-color:#eac586;stop-opacity:1;"
         offset="0"
         id="stop3224" />
      <stop
         style="stop-color:#eac586;stop-opacity:0;"
         offset="1"
         id="stop3226" />
    </linearGradient>
    <radialGradient
       xlink:href="#linearGradient2880"
       r="5.0383153"
       id="radialGradient2878"
       gradientUnits="userSpaceOnUse"
       gradientTransform="matrix(-0.8570757,0.7036892,-0.6305522,-0.6305522,89.175967,19.040701)"
       fy="36.070057"
       fx="33.290813"
       cy="36.070057"
       cx="33.290813" />
    <linearGradient
       id="linearGradient2880">
      <stop
         style="stop-color:#729fcf;stop-opacity:1"
         offset="0"
         id="stop2882" />
      <stop
         style="stop-color:#3465a4;stop-opacity:1"
         offset="1"
         id="stop2884" />
    </linearGradient>
  </defs>
  <g
     transform="translate(-0.07617955,-0.0796599)"
     style="display:inline;enable-background:new"
     id="g48">
    <ellipse
       d="M 19.125,46.0625 A 8.5625,4.5625 0 0 1 10.5625,50.625 8.5625,4.5625 0 0 1 2,46.0625 8.5625,4.5625 0 0 1 10.5625,41.5 8.5625,4.5625 0 0 1 19.125,46.0625 Z"
       transform="matrix(1.1094891,0,0,0.5479452,-1.7189781,16.635274)"
       style="opacity:0.1;fill:url(#radialGradient3321);fill-opacity:1;stroke:none"
       id="path3305"
       cx="10.5625"
       cy="46.0625"
       rx="8.5625"
       ry="4.5625" />
    <g
       transform="matrix(1.2345971,0,0,1.1113159,-22.671972,-10.707451)"
       style="opacity:0.30268196"
       id="g3828">
      <path
         transform="matrix(0,-1,5.888889,0,-94.88889,53)"
         style="fill:url(#radialGradient3832);fill-opacity:1;fill-rule:evenodd;stroke:none"
         id="path3814"
         d="m 2,23.5 a 4.5,4.5 0 0 1 9,0 l -4.5,0 z" />
      <path
         transform="matrix(0,-1,-3,0,114,53)"
         style="fill:url(#radialGradient3834);fill-opacity:1;fill-rule:evenodd;stroke:none"
         id="path3824"
         d="m 2,23.5 a 4.5,4.5 0 0 1 9,0 l -4.5,0 z" />
    </g>
    <path
       style="fill:url(#radialGradient3297);fill-opacity:1;fill-rule:evenodd;stroke:#c17d11;stroke-width:0.99999988;stroke-linecap:butt;stroke-linejoin:miter;stroke-miterlimit:4;stroke-opacity:1;stroke-dasharray:none"
       id="path2193"
       d="M 23.03125,4.5 C 17.164481,4.5769393 9.304703,6.5845978 9.4375,13.03125 9.5791607,19.90817 17.932526,17.194685 18.25,20.25 18.763103,25.188007 8.0762698,40.211023 24.3125,43.15625 35.151762,45.122476 46.655802,38.37184 45.5,24.75 44.460562,12.499581 34.3249,4.8118411 24.1875,4.5 23.81714,4.488607 23.422368,4.49487 23.03125,4.5 l 0,0 z M 20.5,8.5 c 2.76,0 5,1.568 5,3.5 1e-6,1.932 -2.24,3.5 -5,3.5 -2.76,0 -5,-1.568 -5,-3.5 0,-1.932 2.24,-3.5 5,-3.5 z" />
    <path
       style="opacity:0.67049806;fill:none;stroke:url(#linearGradient3238);stroke-width:1;stroke-linecap:butt;stroke-linejoin:miter;stroke-miterlimit:4;stroke-opacity:1"
       id="path3230"
       d="m 23.095283,5.5246337 c -2.824283,0.037039 -6.123175,0.567596 -8.59375,1.78125 -2.470575,1.213654 -4.057917,2.9071623 -4,5.7187503 0.03118,1.51383 0.479666,2.328336 1.09375,2.90625 0.614084,0.577914 1.495673,0.923909 2.5,1.1875 1.004327,0.263591 2.091554,0.419269 3.0625,0.75 0.485473,0.165365 0.96108,0.379912 1.375,0.75 0.41392,0.370088 0.717279,0.946859 0.78125,1.5625 0.170902,1.644729 -0.478927,3.503351 -1.15625,5.65625 -0.677323,2.152899 -1.44609,4.513614 -1.71875,6.75 -0.27266,2.236386 -0.04121,4.280029 1.0625,5.90625 1.103712,1.626221 3.170707,2.981535 7.0625,3.6875 5.158548,0.935753 10.448864,-0.207142 14.28125,-3.15625 3.832386,-2.949108 6.271634,-7.64017 5.71875,-14.15625 C 43.568283,13.13285 33.869202,5.8214484 24.220283,5.5246337 c -0.336993,-0.010366 -0.732015,-0.00515 -1.125,0 z" />
    <path
       transform="translate(0.4375,-0.875)"
       style="opacity:0.16475094;fill:url(#radialGradient3274);fill-opacity:1;fill-rule:evenodd;stroke:none"
       id="path3260"
       d="M 35.609375,8.3183594 A 0.49390987,0.49390987 0 0 0 35.289062,8.4238281 C 26.312516,15.437283 21.689367,20.761894 19.117188,24.189453 17.405073,26.302581 15.48999,29.478264 13.9375,32.425781 a 0.49390987,0.49390987 0 0 0 -0.05273,0.175781 c -0.218609,1.997666 -0.09217,4.001724 0.765625,5.769532 a 0.49390987,0.49390987 0 0 0 0.689453,0.21289 c 4.014435,-2.30999 9.155032,-7.162221 10.53125,-8.757812 2.936442,-3.355933 7.652938,-9.29311 12.597656,-18.689453 a 0.49390987,0.49390987 0 0 0 -0.0918,-0.583985 C 37.598227,9.7899647 36.76617,9.0582771 35.884766,8.4140625 a 0.49390987,0.49390987 0 0 0 -0.275391,-0.095703 z" />
    <path
       style="fill:url(#linearGradient3279);fill-opacity:1;fill-rule:evenodd;stroke:#8f5902;stroke-width:0.99999994px;stroke-linecap:butt;stroke-linejoin:round;stroke-opacity:1"
       id="path3096"
       d="M 24.377603,26.216886 C 28.122394,22.659661 34.668929,15.824043 42.5,4.9999999 42.815076,4.651051 42.290608,4.3510868 42,4.5 30.168297,12.786013 24.217866,18.976254 20.842673,22.51528" />
    <path
       style="opacity:0.15;fill:#000000;fill-opacity:1;fill-rule:evenodd;stroke:#000000;stroke-width:1;stroke-linecap:butt;stroke-linejoin:round;stroke-miterlimit:4;stroke-opacity:1;stroke-dasharray:none"
       id="path3316"
       d="m 21.436423,21.92153 c 1.481476,0.593851 2.797936,1.536069 3.53493,3.701606 -1.500396,1.439227 -7.463448,6.424706 -11.18179,8.495374 l -1.092052,-1.514265 c 2.112915,-3.07026 5.97347,-7.921974 8.738912,-10.682715 l 0,0 z" />
    <path
       style="opacity:0.7356322;fill:none;stroke:url(#linearGradient3236);stroke-width:1;stroke-linecap:butt;stroke-linejoin:miter;stroke-miterlimit:4;stroke-opacity:1"
       id="path3086"
       d="m 20.564033,7.5246337 c 1.570976,0 3.022716,0.4159014 4.125,1.1875 1.102284,0.7715986 1.875,1.9567533 1.875,3.3125003 1e-6,1.355748 -0.772716,2.540901 -1.875,3.3125 -1.102284,0.771599 -2.554024,1.1875 -4.125,1.1875 -1.570976,0 -3.022716,-0.415901 -4.125,-1.1875 -1.102284,-0.771599 -1.875,-1.956753 -1.875,-3.3125 0,-1.355747 0.772716,-2.5409017 1.875,-3.3125003 1.102284,-0.7715986 2.554024,-1.1875 4.125,-1.1875 l 0,0 z" />
    <path
       style="fill:url(#linearGradient3276);fill-opacity:1;fill-rule:evenodd;stroke:#888a85;stroke-width:0.99999994px;stroke-linecap:butt;stroke-linejoin:miter;stroke-opacity:1"
       id="path3098"
       d="m 20.842673,22.51528 c 1.481476,0.593851 2.797936,1.536069 3.53493,3.701606 -1.500396,1.439227 -7.463448,6.424706 -11.18179,8.495374 l -1.092052,-1.514265 c 2.112915,-3.07026 5.97347,-7.921974 8.738912,-10.682715 l 0,0 z" />
    <g
       transform="translate(1.2209709,0.4254758)"
       style="opacity:0.13026817"
       id="g3292">
      <path
         style="fill:#000000;fill-opacity:1;fill-rule:evenodd;stroke:#000000;stroke-width:0.99999982;stroke-linecap:butt;stroke-linejoin:round;stroke-miterlimit:5;stroke-opacity:1"
         id="path3286"
         d="m 26.824405,37.496498 c -0.981039,0.592836 0.07153,1.273848 0.544949,1.67058 0.375468,0.314644 -0.188397,1.835332 -0.860815,1.163308 -0.77491,-0.774458 -1.273839,-1.851888 -1.577772,-1.879501 -1.746924,-0.158722 -0.401869,2.147771 -1.807633,1.640503 -0.841208,-0.30355 0.205427,-1.577839 -0.917893,-1.968926 -0.892406,-0.310696 -0.803744,0.644057 -1.31976,0.178846 -2.429276,-2.190108 -1.152388,-4.092588 -0.02815,-5.578351 1.124252,-1.485787 3.345193,-1.645116 4.992107,-0.327618 1.646912,1.317498 2.083698,3.602818 0.974969,5.101159 l -2e-6,0 z" />
      <path
         style="fill:#000000;fill-opacity:1;fill-rule:evenodd;stroke:#000000;stroke-width:1;stroke-linecap:butt;stroke-linejoin:round;stroke-miterlimit:5;stroke-opacity:1"
         id="path3288"
         d="m 35.474535,34.483528 c 0.894548,0 2.39583,0.150996 2.790916,0.615637 0.923827,1.086467 1.743502,-0.342638 1.040709,-0.959593 -0.809917,-0.710995 -1.886381,-1.120206 -1.939258,-1.422238 -0.303925,-1.735995 2.024552,-0.582617 1.416042,-1.947741 -0.364131,-0.81689 -1.495114,0.338088 -1.967688,-0.753954 -0.375429,-0.867558 0.547768,-0.858881 0.05686,-1.33657 -2.311049,-2.248844 -4.024394,-0.810592 -5.351418,0.439837 -1.327044,1.250445 -1.286919,3.487787 0.119448,5.026412 0.577587,0.631904 0.861404,2.150838 1.598016,2.333503 1.056967,0.262105 -0.01621,-1.995293 2.236369,-1.995293 l 4e-6,0 z" />
      <path
         style="fill:#000000;fill-opacity:1;fill-rule:evenodd;stroke:#000000;stroke-width:1;stroke-linecap:butt;stroke-linejoin:round;stroke-miterlimit:5;stroke-opacity:1"
         id="path3290"
         d="m 37.020609,23.500481 c -0.880935,0 -1.057367,0.607951 -1.47249,0.999606 -0.329232,0.310617 -1.71697,-0.304448 -1.024872,-0.852636 0.797593,-0.631744 0.972799,-1.378012 1.024872,-1.64638 C 35.84742,20.458572 32.892058,21.208472 33.5,20 c 0.442679,-0.879967 2.052495,-0.04213 2.048119,-0.497944 -0.0067,-0.702831 -0.4201,-1.764624 0.460645,-1.938266 C 37.861929,17.198433 39.995178,18.475962 41,19.5 c 0.960731,0.979104 0.427845,2.691241 -0.140195,3.907468 -0.347066,0.743101 -1.142342,2.255472 -2.064528,2.073408 -1.046421,-0.206591 0.443637,-1.980395 -1.774668,-1.980395 z" />
    </g>
    <path
       style="opacity:0.68000034;fill:url(#linearGradient3308);fill-opacity:1;fill-rule:evenodd;stroke:none"
       id="path3299"
       d="M 12.9375,33.4375 C 18.547566,24.933929 36.615367,9.233779 40.5,6.6249999 32.235232,15.427256 21.892146,25.266733 12.9375,33.4375 Z" />
    <path
       style="fill:url(#radialGradient2917);fill-opacity:1;fill-rule:evenodd;stroke:#4e9a06;stroke-width:0.99999982;stroke-linecap:butt;stroke-linejoin:round;stroke-miterlimit:5;stroke-opacity:1"
       id="path1937"
       d="m 27.824405,37.496498 c -0.981039,0.592836 0.07153,1.273848 0.544949,1.67058 0.375468,0.314644 -0.188397,1.835332 -0.860815,1.163308 -0.77491,-0.774458 -1.273839,-1.851888 -1.577772,-1.879501 -1.746924,-0.158722 -0.401869,2.147771 -1.807633,1.640503 -0.841208,-0.30355 0.205427,-1.577839 -0.917893,-1.968926 -0.892406,-0.310696 -0.803744,0.644057 -1.31976,0.178846 -2.429276,-2.190108 -1.152388,-4.092588 -0.02815,-5.578351 1.124252,-1.485787 3.345193,-1.645116 4.992107,-0.327618 1.646912,1.317498 2.083698,3.602818 0.974969,5.101159 l -2e-6,0 z" />
    <path
       style="opacity:0.77011497;fill:#eeeeec;fill-opacity:1;fill-rule:evenodd;stroke:none"
       id="path2836"
       d="m 25.71875,32.75 c -1.333278,-0.778122 -2.840055,0.04794 -3.375,0.71875 -0.534945,0.670812 -1.261138,1.982461 -0.6875,3.21875 0.376806,-1.189309 0.918476,-1.979945 1.46875,-2.59375 0.551092,-0.614718 1.193087,-1.276611 2.59375,-1.34375 z" />
    <path
       style="fill:url(#linearGradient3240);fill-opacity:1;fill-rule:evenodd;stroke:#000000;stroke-width:0.99999988;stroke-linecap:butt;stroke-linejoin:miter;stroke-miterlimit:4;stroke-opacity:1"
       id="path3100"
       d="m 2.5,39.533975 c 4.693467,0.0018 4.221149,-4.892079 6.5,-6.392279 2.640769,-1.738454 4.954982,0.415683 5.41701,2.188487 C 15,37.56712 14,40.025689 11,41.009116 7.636352,42.111751 2.889473,41.484545 2.5,39.533975 Z" />
    <path
       style="opacity:0.29118772;fill:none;stroke:url(#linearGradient3237);stroke-width:1;stroke-linecap:butt;stroke-linejoin:round;stroke-miterlimit:5;stroke-opacity:1;stroke-dasharray:none"
       id="path3161"
       d="M 4,40.11888 C 6.035358,40.093247 7.435893,37.673955 7.966235,36.139832 9.56545,31.513773 14.380709,33.712896 13.5,36.932714 12.451529,42.114231 7.044828,40.127047 4,40.11888 Z" />
    <ellipse
       d="m 13.324543,38.708176 a 1.138,0.91702908 0 0 1 -1.138,0.917029 1.138,0.91702908 0 0 1 -1.138,-0.917029 1.138,0.91702908 0 0 1 1.138,-0.917029 1.138,0.91702908 0 0 1 1.138,0.917029 z"
       transform="matrix(2.6362041,0,0,2.180959,-21.126216,-49.420941)"
       style="opacity:0.5;fill:url(#linearGradient3252);fill-opacity:1;fill-rule:evenodd;stroke:none"
       id="path3177"
       cx="12.186543"
       cy="38.708176"
       rx="1.138"
       ry="0.91702908" />
    <path
       style="fill:url(#radialGradient2872);fill-opacity:1;fill-rule:evenodd;stroke:#a40000;stroke-width:1;stroke-linecap:butt;stroke-linejoin:round;stroke-miterlimit:5;stroke-opacity:1"
       id="path2852"
       d="m 36.474535,34.483528 c 0.894548,0 2.39583,0.150996 2.790916,0.615637 0.923827,1.086467 1.743502,-0.342638 1.040709,-0.959593 -0.809917,-0.710995 -1.886381,-1.120206 -1.939258,-1.422238 -0.303925,-1.735995 2.024552,-0.582617 1.416042,-1.947741 -0.364131,-0.81689 -1.495114,0.338088 -1.967688,-0.753954 -0.375429,-0.867558 0.547768,-0.858881 0.05686,-1.33657 -2.311049,-2.248844 -4.024394,-0.810592 -5.351418,0.439837 -1.327044,1.250445 -1.286919,3.487787 0.119448,5.026412 0.577587,0.631904 0.861404,2.150838 1.598016,2.333503 1.056967,0.262105 -0.01621,-1.995293 2.236369,-1.995293 l 4e-6,0 z" />
    <path
       style="fill:none;stroke:url(#linearGradient3270);stroke-width:0.99999994px;stroke-linecap:round;stroke-linejoin:miter;stroke-opacity:1"
       id="path3212"
       d="M 41.510654,5.5 38.5,8.5088128" />
    <path
       style="fill:url(#radialGradient2878);fill-opacity:1;fill-rule:evenodd;stroke:#204a87;stroke-width:1;stroke-linecap:butt;stroke-linejoin:round;stroke-miterlimit:5;stroke-opacity:1"
       id="path2876"
       d="m 38.020609,23.500481 c -0.880935,0 -1.057367,0.607951 -1.47249,0.999606 -0.329232,0.310617 -1.71697,-0.304448 -1.024872,-0.852636 0.797593,-0.631744 0.972799,-1.378012 1.024872,-1.64638 C 36.84742,20.458572 33.892058,21.208472 34.5,20 c 0.442679,-0.879967 2.052495,-0.04213 2.048119,-0.497944 -0.0067,-0.702831 -0.4201,-1.764624 0.460645,-1.938266 C 38.861929,17.198433 40.995178,18.475962 42,19.5 c 0.960731,0.979104 0.427845,2.691241 -0.140195,3.907468 -0.347066,0.743101 -1.142342,2.255472 -2.064528,2.073408 -1.046421,-0.206591 0.443637,-1.980395 -1.774668,-1.980395 z" />
    <path
       style="opacity:0.77011497;fill:#eeeeec;fill-opacity:1;fill-rule:evenodd;stroke:none"
       id="path2886"
       d="m 38,18.5 c -0.855286,0.387353 -1,1.5 -0.5,2.5 0.533147,-1.446702 2,-1 3.5,-1 -0.5,-1 -2.403676,-1.699471 -3,-1.5 z" />
    <path
       style="opacity:0.77011497;fill:#eeeeec;fill-opacity:1;fill-rule:evenodd;stroke:none"
       id="path3280"
       d="m 36.768036,28.732129 c -1.333278,-0.778122 -2.840055,0.04794 -3.375,0.71875 -0.534945,0.670812 -1.261138,1.982461 -0.6875,3.21875 0.376806,-1.189309 0.918476,-1.979945 1.46875,-2.59375 0.551092,-0.614718 1.193087,-1.276611 2.59375,-1.34375 l 0,0 z" />
  </g>
</svg>
