<?xml version="1.0" encoding="UTF-8" standalone="no"?>
<svg
   xmlns:dc="http://purl.org/dc/elements/1.1/"
   xmlns:cc="http://creativecommons.org/ns#"
   xmlns:rdf="http://www.w3.org/1999/02/22-rdf-syntax-ns#"
   xmlns:svg="http://www.w3.org/2000/svg"
   xmlns="http://www.w3.org/2000/svg"
   xmlns:xlink="http://www.w3.org/1999/xlink"
   id="svg1"
   height="48"
   width="48"
   version="1.0">
  <metadata
     id="metadata187706">
    <rdf:RDF>
      <cc:Work
         rdf:about="">
        <dc:format>image/svg+xml</dc:format>
        <dc:type
           rdf:resource="http://purl.org/dc/dcmitype/StillImage" />
      </cc:Work>
    </rdf:RDF>
  </metadata>
  <defs
     id="defs3">
    <linearGradient
       id="linearGradient2790">
      <stop
         offset="0"
         style="stop-color:black;stop-opacity:1"
         id="stop2792" />
      <stop
         offset="1"
         style="stop-color:black;stop-opacity:0"
         id="stop2794" />
    </linearGradient>
    <linearGradient
       id="linearGradient2780">
      <stop
         offset="0"
         style="stop-color:white;stop-opacity:1"
         id="stop2782" />
      <stop
         offset="1"
         style="stop-color:white;stop-opacity:0"
         id="stop2784" />
    </linearGradient>
    <linearGradient
       id="linearGradient6621">
      <stop
         offset="0"
         style="stop-color:#f5a108;stop-opacity:0"
         id="stop6622" />
      <stop
         offset="1"
         style="stop-color:#fefdc3;stop-opacity:0.74251497"
         id="stop6623" />
    </linearGradient>
    <linearGradient
       gradientTransform="matrix(1.059395,0,0,0.544945,1.249822,4.6593951)"
       gradientUnits="userSpaceOnUse"
       xlink:href="#linearGradient6621"
       id="linearGradient7881"
       y2="12.239423"
       x2="12.849945"
       y1="28.829224"
       x1="22.819513" />
    <linearGradient
       gradientTransform="translate(0,1.9206991)"
       gradientUnits="userSpaceOnUse"
       xlink:href="#linearGradient2780"
       id="linearGradient2786"
       y2="41.0793"
       x2="24"
       y1="5.0793009"
       x1="24" />
    <radialGradient
       gradientTransform="matrix(1,0,0,0.44244605,0,21.610168)"
       gradientUnits="userSpaceOnUse"
       xlink:href="#linearGradient2790"
       id="radialGradient2796"
       fy="37.75"
       fx="24.375"
       r="17.375"
       cy="37.75"
       cx="24.375" />
    <linearGradient
       id="linearGradient3242">
      <stop
         offset="0"
         style="stop-color:#f8b17e;stop-opacity:1"
         id="stop3244" />
      <stop
         offset="0.31209752"
         style="stop-color:#e35d4f;stop-opacity:1"
         id="stop3246" />
      <stop
         offset="0.57054454"
         style="stop-color:#c6262e;stop-opacity:1"
         id="stop3248" />
      <stop
         offset="1"
         style="stop-color:#690b54;stop-opacity:1"
         id="stop3250" />
    </linearGradient>
    <linearGradient
       id="linearGradient2490">
      <stop
         offset="0"
         style="stop-color:#791235;stop-opacity:1"
         id="stop2492" />
      <stop
         offset="1"
         style="stop-color:#dd3b27;stop-opacity:1"
         id="stop2494" />
    </linearGradient>
    <linearGradient
       gradientUnits="userSpaceOnUse"
       xlink:href="#linearGradient3242"
       id="linearGradient3853"
       y2="51"
       x2="24"
       y1="6"
       x1="24" />
    <linearGradient
       gradientUnits="userSpaceOnUse"
       xlink:href="#linearGradient2490"
       id="linearGradient3861"
       y2="6"
       x2="17"
       y1="45"
       x1="17" />
  </defs>
  <path
     style="opacity:0.3;color:black;fill:url(#radialGradient2796);fill-opacity:1;fill-rule:nonzero;stroke:none;stroke-width:1;marker:none;visibility:visible;display:inline;overflow:visible"
     id="path2788"
     d="m 41.75,38.3125 a 17.375,7.6874997 0 0 1 -34.75,0 17.375,7.6874997 0 1 1 34.75,0 z" />
  <path
     style="fill:url(#linearGradient7881);fill-opacity:1;fill-rule:evenodd;stroke:none"
     id="path7876"
     d="M 14.037441,8.5002091 C 8.6695505,8.2361025 6.1688035,11.682995 4.8160932,14.961987 c -1.3423953,4.318005 0.5551864,12.4737 9.8542348,11.853249 5.30413,0 7.412333,-5.437188 10.203869,-6.848651 2.536984,-0.95885 2.736655,-1.044667 5.417018,-1.044667 3.72487,0 10.460854,-2.694587 10.460856,-5.368246 C 39.607133,11.408223 36.567476,7.5875107 30.981913,8.2387066 27.426476,8.6523392 24.06282,11.192735 23.184185,12.456844 21.031824,10.559228 18.283585,8.5002091 14.037441,8.5002091 z" />
  <path
     style="fill:url(#linearGradient3853);fill-opacity:1;fill-rule:evenodd;stroke:url(#linearGradient3861);stroke-width:0.99999988;stroke-linecap:butt;stroke-linejoin:miter;stroke-miterlimit:4;stroke-opacity:1;stroke-dasharray:none"
     id="path920"
     d="M 23.836561,10.198612 C 33.125234,0.91380956 45.890047,9.4716508 45.806082,18.277113 45.729323,26.326837 39.591726,30.18195 24.172423,44.5 8.0330559,31.180116 2.346578,28.108501 2.4305434,18.557773 2.5145087,8.6713208 13.442265,1.2514924 23.836561,10.198612 z" />
  <path
     style="opacity:0.4;fill:none;stroke:url(#linearGradient2786);stroke-width:1;stroke-linecap:butt;stroke-linejoin:miter;stroke-miterlimit:4;stroke-opacity:1;stroke-dasharray:none"
     id="path2778"
     d="m 15.125,7.3269491 c -0.832541,-0.07127 -1.6625,-0.05326 -2.4375,0.0625 -5.1712094,0.7724128 -9.0768889,5.4914319 -9.125,11.1562499 -0.040014,4.551443 1.1564029,7.304355 4.46875,10.8125 3.192273,3.380973 8.514501,7.431399 16.125,13.6875 7.282897,-6.733492 12.522022,-11.242733 15.78125,-14.78125 3.382222,-3.672051 4.714318,-6.25799 4.75,-10 0.03678,-3.857494 -2.858932,-7.90752 -6.84375,-9.8124999 C 33.858932,6.5469691 28.96608,6.6439279 24.625,10.983199 a 1.1215297,1.1215297 0 0 1 -1.5,0.0625 c -2.776333,-2.38979 -5.502378,-3.5049404 -8,-3.7187499 z" />
</svg>
