<?xml version="1.0" encoding="UTF-8" standalone="no"?>
<svg
   xmlns:dc="http://purl.org/dc/elements/1.1/"
   xmlns:cc="http://creativecommons.org/ns#"
   xmlns:rdf="http://www.w3.org/1999/02/22-rdf-syntax-ns#"
   xmlns:svg="http://www.w3.org/2000/svg"
   xmlns="http://www.w3.org/2000/svg"
   xmlns:xlink="http://www.w3.org/1999/xlink"
   id="svg2945"
   height="48"
   width="48"
   version="1.1">
  <metadata
     id="metadata188397">
    <rdf:RDF>
      <cc:Work
         rdf:about="">
        <dc:format>image/svg+xml</dc:format>
        <dc:type
           rdf:resource="http://purl.org/dc/dcmitype/StillImage" />
      </cc:Work>
    </rdf:RDF>
  </metadata>
  <defs
     id="defs2947">
    <linearGradient
       id="linearGradient4384">
      <stop
         offset="0"
         style="stop-color:#8badea;stop-opacity:1"
         id="stop4386" />
      <stop
         offset="1"
         style="stop-color:#fbfbfb;stop-opacity:0"
         id="stop4388" />
    </linearGradient>
    <linearGradient
       id="linearGradient4376">
      <stop
         offset="0"
         style="stop-color:#2a648f;stop-opacity:1"
         id="stop4378" />
      <stop
         offset="0.37917796"
         style="stop-color:#8badea;stop-opacity:1"
         id="stop4380" />
      <stop
         offset="1"
         style="stop-color:#2a648f;stop-opacity:1"
         id="stop4382" />
    </linearGradient>
    <linearGradient
       id="linearGradient4364">
      <stop
         offset="0"
         style="stop-color:#4083c2;stop-opacity:1"
         id="stop4366" />
      <stop
         offset="1"
         style="stop-color:#1f4b6a;stop-opacity:1"
         id="stop4368" />
    </linearGradient>
    <linearGradient
       id="linearGradient3956">
      <stop
         offset="0"
         style="stop-color:#e08223;stop-opacity:1"
         id="stop3958" />
      <stop
         offset="0.37917796"
         style="stop-color:#edd563;stop-opacity:1"
         id="stop3960" />
      <stop
         offset="1"
         style="stop-color:#e08223;stop-opacity:1"
         id="stop3962" />
    </linearGradient>
    <linearGradient
       id="linearGradient3936">
      <stop
         offset="0"
         style="stop-color:#cd8033;stop-opacity:1"
         id="stop3938" />
      <stop
         offset="1"
         style="stop-color:#fbfbfb;stop-opacity:0"
         id="stop3940" />
    </linearGradient>
    <linearGradient
       id="linearGradient3926">
      <stop
         offset="0"
         style="stop-color:#cd8033;stop-opacity:1"
         id="stop3928" />
      <stop
         offset="1"
         style="stop-color:#bb5e12;stop-opacity:1"
         id="stop3930" />
    </linearGradient>
    <linearGradient
       id="linearGradient4299">
      <stop
         offset="0"
         style="stop-color:#d7e866;stop-opacity:1"
         id="stop4301" />
      <stop
         offset="1"
         style="stop-color:#fbfbfb;stop-opacity:0"
         id="stop4303" />
    </linearGradient>
    <linearGradient
       id="linearGradient4291">
      <stop
         offset="0"
         style="stop-color:#8cab2a;stop-opacity:1"
         id="stop4293" />
      <stop
         offset="0.37917796"
         style="stop-color:#d7e866;stop-opacity:1"
         id="stop4295" />
      <stop
         offset="1"
         style="stop-color:#8cab2a;stop-opacity:1"
         id="stop4297" />
    </linearGradient>
    <linearGradient
       id="linearGradient4281">
      <stop
         offset="0"
         style="stop-color:#69aa28;stop-opacity:1"
         id="stop4283" />
      <stop
         offset="1"
         style="stop-color:#548820;stop-opacity:1"
         id="stop4285" />
    </linearGradient>
    <linearGradient
       id="linearGradient4253">
      <stop
         offset="0"
         style="stop-color:#000000;stop-opacity:0.3508772"
         id="stop4255" />
      <stop
         offset="0.5"
         style="stop-color:#000000;stop-opacity:0"
         id="stop4257" />
      <stop
         offset="1"
         style="stop-color:#000000;stop-opacity:0.10588235"
         id="stop4259" />
    </linearGradient>
    <linearGradient
       id="linearGradient4241">
      <stop
         offset="0"
         style="stop-color:#000000;stop-opacity:0.27058825"
         id="stop4243" />
      <stop
         offset="0.5"
         style="stop-color:#000000;stop-opacity:0"
         id="stop4249" />
      <stop
         offset="1"
         style="stop-color:#000000;stop-opacity:0.27058825"
         id="stop4245" />
    </linearGradient>
    <linearGradient
       id="linearGradient3280">
      <stop
         offset="0"
         style="stop-color:#000000;stop-opacity:1"
         id="stop3282" />
      <stop
         offset="1"
         style="stop-color:#000000;stop-opacity:0"
         id="stop3284" />
    </linearGradient>
    <linearGradient
       id="linearGradient9421">
      <stop
         offset="0"
         style="stop-color:#ffffff;stop-opacity:1"
         id="stop9423" />
      <stop
         offset="1"
         style="stop-color:#ffffff;stop-opacity:0"
         id="stop9425" />
    </linearGradient>
    <filter
       id="filter9752"
       color-interpolation-filters="sRGB"
       height="1.129355"
       width="2.6592867"
       y="-0.064677492"
       x="-0.82964343">
      <feGaussianBlur
         id="feGaussianBlur9754"
         stdDeviation="1.0370543" />
    </filter>
    <linearGradient
       id="linearGradient3280-7">
      <stop
         offset="0"
         style="stop-color:#000000;stop-opacity:1"
         id="stop3282-6" />
      <stop
         offset="1"
         style="stop-color:#000000;stop-opacity:0"
         id="stop3284-8" />
    </linearGradient>
    <linearGradient
       id="linearGradient4241-2">
      <stop
         offset="0"
         style="stop-color:#000000;stop-opacity:0.27058825"
         id="stop4243-0" />
      <stop
         offset="0.5"
         style="stop-color:#000000;stop-opacity:0"
         id="stop4249-3" />
      <stop
         offset="1"
         style="stop-color:#000000;stop-opacity:0.27058825"
         id="stop4245-2" />
    </linearGradient>
    <linearGradient
       id="linearGradient4253-9">
      <stop
         offset="0"
         style="stop-color:#000000;stop-opacity:0.10588235"
         id="stop4255-7" />
      <stop
         offset="0.5"
         style="stop-color:#000000;stop-opacity:0"
         id="stop4257-5" />
      <stop
         offset="1"
         style="stop-color:#000000;stop-opacity:0.10588235"
         id="stop4259-1" />
    </linearGradient>
    <linearGradient
       id="linearGradient9421-2">
      <stop
         offset="0"
         style="stop-color:#ffffff;stop-opacity:1"
         id="stop9423-1" />
      <stop
         offset="1"
         style="stop-color:#ffffff;stop-opacity:0"
         id="stop9425-3" />
    </linearGradient>
    <filter
       id="filter9752-2"
       color-interpolation-filters="sRGB"
       height="1.129355"
       width="2.6592867"
       y="-0.064677492"
       x="-0.82964343">
      <feGaussianBlur
         id="feGaussianBlur9754-7"
         stdDeviation="1.0370543" />
    </filter>
    <radialGradient
       gradientTransform="matrix(1.1075525,0,0,0.43050677,-6.5809,17.243981)"
       gradientUnits="userSpaceOnUse"
       xlink:href="#linearGradient3280-7"
       id="radialGradient3918"
       fy="14.125"
       fx="21.34375"
       r="11.96875"
       cy="14.125"
       cx="21.34375" />
    <linearGradient
       gradientTransform="translate(-696.9706,-70.49978)"
       gradientUnits="userSpaceOnUse"
       xlink:href="#linearGradient9421-2"
       id="linearGradient3920"
       y2="110.92456"
       x2="718.5"
       y1="56.875"
       x1="718.5" />
    <linearGradient
       gradientTransform="matrix(1,0,0,0.92965233,-5.071312,-16.322126)"
       gradientUnits="userSpaceOnUse"
       xlink:href="#linearGradient3926"
       id="linearGradient3932"
       y2="43.218105"
       x2="26.855783"
       y1="5.8000488"
       x1="18.804668" />
    <linearGradient
       gradientTransform="matrix(1,0,0,0.92965233,-5.071312,-36.322126)"
       gradientUnits="userSpaceOnUse"
       xlink:href="#linearGradient3926"
       id="linearGradient3934"
       y2="61.085434"
       x2="29.624184"
       y1="27.732166"
       x1="22" />
    <linearGradient
       gradientTransform="matrix(0.80700778,0,0,0.93743291,-1.9907998,-38.426227)"
       gradientUnits="userSpaceOnUse"
       xlink:href="#linearGradient3936"
       id="linearGradient3942"
       y2="43.445534"
       x2="32.696804"
       y1="44.446079"
       x1="13.775995" />
    <linearGradient
       gradientTransform="matrix(1,0,0,0.92965233,-5.071312,-16.322126)"
       gradientUnits="userSpaceOnUse"
       xlink:href="#linearGradient3956"
       id="linearGradient3954"
       y2="23"
       x2="32"
       y1="23"
       x1="15" />
    <linearGradient
       gradientTransform="translate(-679.65702,-79.585216)"
       gradientUnits="userSpaceOnUse"
       xlink:href="#linearGradient9421"
       id="linearGradient3970"
       y2="110.92456"
       x2="718.5"
       y1="65.345795"
       x1="718.25085" />
    <linearGradient
       gradientTransform="matrix(1,0,0,0.92965233,10,-39.781273)"
       gradientUnits="userSpaceOnUse"
       xlink:href="#linearGradient4281"
       id="linearGradient3972"
       y2="61.085434"
       x2="29.624184"
       y1="27.732166"
       x1="22" />
    <linearGradient
       gradientTransform="matrix(1.0060525,0,0,0.93743291,10.140626,-41.885374)"
       gradientUnits="userSpaceOnUse"
       xlink:href="#linearGradient4299"
       id="linearGradient3974"
       y2="43.445534"
       x2="32.696804"
       y1="44.446079"
       x1="13.775995" />
    <linearGradient
       gradientTransform="matrix(1,0,0,0.92965233,10,-25.781273)"
       gradientUnits="userSpaceOnUse"
       xlink:href="#linearGradient4253"
       id="linearGradient3976"
       y2="23"
       x2="32"
       y1="23"
       x1="15" />
    <linearGradient
       gradientTransform="matrix(1,0,0,0.92965233,10,-25.781273)"
       gradientUnits="userSpaceOnUse"
       xlink:href="#linearGradient4291"
       id="linearGradient3978"
       y2="23"
       x2="32"
       y1="23"
       x1="15" />
    <linearGradient
       gradientTransform="matrix(1,0,0,0.92965233,10,-25.781273)"
       gradientUnits="userSpaceOnUse"
       xlink:href="#linearGradient4281"
       id="linearGradient3980"
       y2="43.218105"
       x2="26.855783"
       y1="5.8000488"
       x1="18.804668" />
    <linearGradient
       gradientTransform="matrix(1,0,0,0.92965233,10,-26.781365)"
       gradientUnits="userSpaceOnUse"
       xlink:href="#linearGradient4241"
       id="linearGradient3982"
       y2="23"
       x2="32"
       y1="23"
       x1="15" />
    <radialGradient
       gradientTransform="matrix(1.2532643,0,0,0.43050677,6.7506536,7.784834)"
       gradientUnits="userSpaceOnUse"
       xlink:href="#linearGradient3280"
       id="radialGradient3984"
       fy="14.125"
       fx="21.34375"
       r="11.96875"
       cy="14.125"
       cx="21.34375" />
    <linearGradient
       gradientTransform="matrix(1,0,0,0.92965233,-5.071312,-16.322126)"
       gradientUnits="userSpaceOnUse"
       xlink:href="#linearGradient4253-9"
       id="linearGradient3986"
       y2="23"
       x2="32"
       y1="23"
       x1="15" />
    <linearGradient
       gradientTransform="matrix(1,0,0,0.92965233,-5.071312,-16.322126)"
       gradientUnits="userSpaceOnUse"
       xlink:href="#linearGradient4241-2"
       id="linearGradient3988"
       y2="23"
       x2="32"
       y1="23"
       x1="15" />
    <linearGradient
       id="linearGradient10367">
      <stop
         offset="0"
         style="stop-color:#ffffff;stop-opacity:1"
         id="stop10369" />
      <stop
         offset="1"
         style="stop-color:#204a87;stop-opacity:1"
         id="stop10371" />
    </linearGradient>
    <radialGradient
       gradientTransform="matrix(0.57024786,0,0,0.57024786,-296.99465,-118.03761)"
       gradientUnits="userSpaceOnUse"
       xlink:href="#linearGradient10367"
       id="radialGradient5084"
       fy="221.125"
       fx="550.625"
       r="2.75"
       cy="221.125"
       cx="550.625" />
    <radialGradient
       gradientTransform="matrix(1.0454545,0,0,1.0454545,-25.028413,-10.051136)"
       gradientUnits="userSpaceOnUse"
       xlink:href="#linearGradient10367"
       id="radialGradient4224"
       fy="221.125"
       fx="550.625"
       r="2.75"
       cy="221.125"
       cx="550.625" />
    <radialGradient
       gradientTransform="matrix(1.0454545,0,0,1.0454545,-25.028413,-10.051136)"
       gradientUnits="userSpaceOnUse"
       xlink:href="#linearGradient10367"
       id="radialGradient4226"
       fy="221.125"
       fx="550.625"
       r="2.75"
       cy="221.125"
       cx="550.625" />
    <radialGradient
       gradientTransform="matrix(1.2532643,0,0,0.43050677,6.750654,19.784834)"
       gradientUnits="userSpaceOnUse"
       xlink:href="#linearGradient3280"
       id="radialGradient4330"
       fy="14.125"
       fx="21.34375"
       r="11.96875"
       cy="14.125"
       cx="21.34375" />
    <linearGradient
       gradientTransform="matrix(1,0,0,0.92965233,10,-14.781365)"
       gradientUnits="userSpaceOnUse"
       xlink:href="#linearGradient4241"
       id="linearGradient4332"
       y2="23"
       x2="32"
       y1="23"
       x1="15" />
    <linearGradient
       gradientTransform="matrix(1,0,0,0.92965233,10,-13.781273)"
       gradientUnits="userSpaceOnUse"
       xlink:href="#linearGradient4376"
       id="linearGradient4334"
       y2="23"
       x2="32"
       y1="23"
       x1="15" />
    <linearGradient
       gradientTransform="matrix(1,0,0,0.92965233,10,-13.781273)"
       gradientUnits="userSpaceOnUse"
       xlink:href="#linearGradient4364"
       id="linearGradient4336"
       y2="43.218105"
       x2="26.855783"
       y1="5.8000488"
       x1="18.804668" />
    <linearGradient
       gradientTransform="matrix(1,0,0,0.92965233,10,-13.781273)"
       gradientUnits="userSpaceOnUse"
       xlink:href="#linearGradient4253"
       id="linearGradient4338"
       y2="23"
       x2="32"
       y1="23"
       x1="15" />
    <linearGradient
       gradientTransform="matrix(0.7848917,0,0,0.93743291,14.902012,-21.885374)"
       gradientUnits="userSpaceOnUse"
       xlink:href="#linearGradient4384"
       id="linearGradient4340"
       y2="43.445534"
       x2="32.696804"
       y1="44.446079"
       x1="13.775995" />
    <linearGradient
       gradientTransform="matrix(1,0,0,0.92965233,10,-19.781273)"
       gradientUnits="userSpaceOnUse"
       xlink:href="#linearGradient4364"
       id="linearGradient4342"
       y2="47.797733"
       x2="23.5"
       y1="20.094345"
       x1="20.006872" />
    <linearGradient
       gradientTransform="translate(-629.65702,-79.585216)"
       gradientUnits="userSpaceOnUse"
       xlink:href="#linearGradient9421"
       id="linearGradient4344"
       y2="110.92456"
       x2="718.5"
       y1="65.345795"
       x1="718.25085" />
    <radialGradient
       gradientTransform="matrix(1.0454545,0,0,1.0454545,-25.028413,-10.051136)"
       gradientUnits="userSpaceOnUse"
       xlink:href="#linearGradient10367"
       id="radialGradient4348"
       fy="221.125"
       fx="550.625"
       r="2.75"
       cy="221.125"
       cx="550.625" />
    <radialGradient
       gradientTransform="matrix(1.0454545,0,0,1.0454545,-25.028413,-10.051136)"
       gradientUnits="userSpaceOnUse"
       xlink:href="#linearGradient10367"
       id="radialGradient4350"
       fy="221.125"
       fx="550.625"
       r="2.75"
       cy="221.125"
       cx="550.625" />
    <radialGradient
       gradientTransform="matrix(0.28512398,0,0,0.28512398,-144.22823,-51.212602)"
       gradientUnits="userSpaceOnUse"
       xlink:href="#linearGradient10367"
       id="radialGradient4362"
       fy="221.125"
       fx="550.625"
       r="2.75"
       cy="221.125"
       cx="550.625" />
    <radialGradient
       gradientTransform="matrix(1.0454545,0,0,1.0454545,-25.028413,-10.051136)"
       gradientUnits="userSpaceOnUse"
       xlink:href="#linearGradient10367"
       id="radialGradient4392"
       fy="221.125"
       fx="550.625"
       r="2.75"
       cy="221.125"
       cx="550.625" />
    <radialGradient
       gradientTransform="matrix(1.0454545,0,0,1.0454545,-25.028413,-10.051136)"
       gradientUnits="userSpaceOnUse"
       xlink:href="#linearGradient10367"
       id="radialGradient4398"
       fy="221.125"
       fx="550.625"
       r="2.75"
       cy="221.125"
       cx="550.625" />
    <radialGradient
       gradientTransform="matrix(1.0454545,0,0,1.0454545,-25.028413,-10.051136)"
       gradientUnits="userSpaceOnUse"
       xlink:href="#linearGradient10367"
       id="radialGradient4400"
       fy="221.125"
       fx="550.625"
       r="2.75"
       cy="221.125"
       cx="550.625" />
    <radialGradient
       gradientTransform="matrix(0.28512398,0,0,0.28512398,-139.17785,-50.337602)"
       gradientUnits="userSpaceOnUse"
       xlink:href="#linearGradient10367"
       id="radialGradient2965"
       fy="221.125"
       fx="550.625"
       r="2.75"
       cy="221.125"
       cx="550.625" />
    <radialGradient
       gradientTransform="matrix(0.28512398,0,0,0.28512398,-139.42785,-47.212602)"
       gradientUnits="userSpaceOnUse"
       xlink:href="#linearGradient10367"
       id="radialGradient2967"
       fy="221.125"
       fx="550.625"
       r="2.75"
       cy="221.125"
       cx="550.625" />
  </defs>
  <g
     id="layer1"
     transform="translate(0,16)">
    <path
       style="color:#000000;fill:url(#radialGradient3984);fill-opacity:1;fill-rule:nonzero;stroke:none;stroke-width:1;marker:none;visibility:visible;display:inline;overflow:visible"
       id="path3278"
       d="m 48.5,13.865743 c -2.077393,5.618486 -9.810954,5.962169 -15,6.134462 -5.30626,-0.234133 -12.778417,-0.503172 -15,-6.134462 2.075821,-5.619538 9.811068,-5.963155 15,-6.135464 5.306109,0.234218 12.780036,0.503043 15,6.135464 z" />
    <path
       style="opacity:0.6;fill:url(#linearGradient3982);fill-opacity:1;stroke:#454545;stroke-width:0.96418482px;stroke-linecap:butt;stroke-linejoin:round;stroke-opacity:1"
       id="path2957"
       d="m 22.5,-10.000092 0,22.728952 c -0.01865,2.257987 6.196271,3.771048 11,3.771048 4.893032,0 11.018646,-1.596082 11,-3.771048 l 0,-22.728952 c -0.07066,-1.759862 -7.000796,-3.420192 -11,-3.5 -6.242269,-0.124571 -18.991157,3.151963 -11,3.5 z" />
    <path
       style="fill:#fbfbfb;fill-opacity:0.49411765;stroke:none"
       id="path4263"
       d="M 43.999999,12.193394 C 42.198633,15.540296 36.825114,15.94845 33.45,16.03528 30.108035,15.783945 24.65878,15.656684 22.900001,12.193394 24.70137,8.846492 30.074884,8.936621 33.45,8.84979 c 3.341965,0.251335 8.79122,-0.119686 10.549999,3.343604 z" />
    <path
       style="fill:url(#linearGradient3978);fill-opacity:1;stroke:url(#linearGradient3980);stroke-width:0.96418482px;stroke-linecap:butt;stroke-linejoin:miter;stroke-opacity:1"
       id="path4265"
       d="m 24.5,-1.274 0,13.143647 c -0.01865,2.257988 5,2.788956 9,2.788956 4,0 9.018646,-0.613989 9,-2.788956 L 42.5,-1.274 c -0.07066,-1.7598615 -5,-2.226 -9,-2.226 -4,0 -9.018646,0.3831165 -9,2.226 z" />
    <path
       style="fill:url(#linearGradient3976);fill-opacity:1;stroke:none"
       id="path4251"
       d="m 22,-11.133011 0,22.397137 C 21.98135,14.020238 29.5,15 33.5,15 c 4,0 11.518646,-0.813716 11.5,-3.735874 l 0,-22.397137 c 0.01864,1.8100389 -8.035819,2.9394891 -12.035819,2.9394891 -4,0 -10.982827,-1.0464292 -10.964181,-2.9394891 z" />
    <path
       style="fill:url(#linearGradient3974);fill-opacity:1;stroke:none"
       id="path4271"
       d="m 42,-1.1581011 a 8.5,2.009179 0 0 1 -17,0 8.5,2.009179 0 1 1 17,0 z" />
    <path
       style="opacity:0.2;fill:none;stroke:#fefefe;stroke-width:0.96418482px;stroke-linecap:butt;stroke-linejoin:miter;stroke-opacity:1"
       id="path2883"
       d="m 25.5,-0.774 0,11.874 c -0.01865,2.257988 4,2.559 8,2.559 4,0 8.018646,-0.384033 8,-2.559 l 0,-11.874 c -0.07066,-1.7598615 -4,-1.726 -8,-1.726 -4,0 -8.018646,-0.1168835 -8,1.726 z" />
    <path
       style="fill:none;stroke:url(#linearGradient3972);stroke-width:0.96399999;stroke-linecap:butt;stroke-linejoin:miter;stroke-miterlimit:4;stroke-opacity:1;stroke-dasharray:none"
       id="path4417"
       d="m 24.5,-2.130353 c -0.01865,2.257988 5,2.788956 9,2.788956 4,0 9.018646,-0.613989 9,-2.788956" />
    <path
       style="opacity:0.6;fill:none;stroke:#585858;stroke-width:0.96418482px;stroke-linecap:butt;stroke-linejoin:round;stroke-opacity:1"
       id="path4440"
       d="m 44.5,-10.500092 c -0.07066,1.7598616 -7,3.4999996 -11,3.4999996 -4,0 -11.018646,-1.657117 -11,-3.4999996" />
    <rect
       style="fill:url(#linearGradient3970);fill-opacity:1;stroke:none;display:inline;filter:url(#filter9752);enable-background:new"
       id="rect9419"
       y="-5.3050733"
       x="37.096111"
       ry="0.92807764"
       rx="0.5645842"
       height="19.719864"
       width="3.2468495" />
    <path
       style="opacity:0.6;fill:none;stroke:#fefefe;stroke-width:0.96399999;stroke-linecap:round;stroke-linejoin:round;stroke-miterlimit:4;stroke-opacity:1;stroke-dasharray:none"
       id="path2884"
       d="M 42.877148,-10.275718 C 42.432776,-11.163587 37.5,-12.5 33.5,-12.5 c -4,0 -7.527236,0.755109 -11.121134,1.726 M 23.5,-8.401718 c 1.600766,1.6351355 6,2.060718 10,2.060718 4,0 10.143216,-0.882315 10.498282,-2.559" />
    <path
       style="color:#000000;fill:url(#radialGradient3918);fill-opacity:1;fill-rule:nonzero;stroke:none;stroke-width:1;marker:none;visibility:visible;display:inline;overflow:visible"
       id="path3278-3"
       d="M 30.314426,23.32489 C 28.478563,28.943376 21.644151,29.287059 17.058413,29.459352 12.369089,29.225219 5.765688,28.95618 3.802399,23.32489 c 1.834475,-5.619538 8.670377,-5.963155 13.256014,-6.135464 4.689189,0.234218 11.294155,0.503043 13.256013,6.135464 z" />
    <path
       style="opacity:0.6;fill:url(#linearGradient3988);fill-opacity:1;stroke:#454545;stroke-width:0.96418482px;stroke-linecap:butt;stroke-linejoin:round;stroke-opacity:1"
       id="path2957-3"
       d="m 7.429,-11.540853 0,34.728952 c -0.01865,2.257987 4.195959,3.771048 8.999688,3.771048 4.893032,0 10.018646,-1.596082 10,-3.771048 l 0,-34.728952 c -0.07066,-1.759862 -6,-3.5 -10,-3.5 -4,0 -15.994282,3.027392 -8.999688,3.5 z" />
    <path
       style="fill:#fbfbfb;fill-opacity:0.49411765;stroke:none"
       id="path4263-2"
       d="m 25.942432,23.052887 a 9.0708755,3.3421507 0 0 1 -18.141751,0 9.0708755,3.3421507 0 1 1 18.141751,0 z" />
    <path
       style="fill:url(#linearGradient3954);fill-opacity:1;stroke:url(#linearGradient3932);stroke-width:0.96418482px;stroke-linecap:butt;stroke-linejoin:miter;stroke-opacity:1"
       id="path4265-3"
       d="m 9.428688,2.1851468 0,19.1436472 c -0.01865,2.257988 3,2.788956 7,2.788956 4,0 8.018958,-0.613989 8.000312,-2.788956 l 0,-19.1436472 c -0.07066,-1.759861 -4.000312,-2.226 -8.000312,-2.226 -4,0 -7.018646,0.383117 -7,2.226 z" />
    <path
       style="opacity:0.6;fill:url(#radialGradient5084);fill-opacity:1;stroke:none;display:inline;enable-background:new"
       id="path10450"
       d="m 18.089,7.513 a 1.5,1.5 0 0 1 -3,0 1.5,1.5 0 1 1 3,0 z" />
    <path
       style="fill:url(#linearGradient3986);fill-opacity:1;stroke:none"
       id="path4251-8"
       d="m 6.928688,-11.673864 0,34.397137 c -0.01865,2.756112 7.5,3.735874 11.5,3.735874 4,0 7.518646,-0.813716 7.5,-3.735874 l 0,-34.397137 c 0.01864,1.810039 -4.035819,2.939489 -8.035819,2.939489 -4,0 -10.982827,-1.046429 -10.964181,-2.939489 z" />
    <path
       style="fill:url(#linearGradient3942);fill-opacity:1;stroke:none"
       id="path4271-6"
       d="m 23.565285,2.3010458 a 6.8182985,2.009179 0 0 1 -13.636597,0 6.8182985,2.009179 0 1 1 13.636597,0 z" />
    <path
       style="opacity:0.2;fill:none;stroke:#fefefe;stroke-width:0.96418482px;stroke-linecap:butt;stroke-linejoin:miter;stroke-opacity:1"
       id="path2883-1"
       d="m 10.428688,2.6851468 0,17.8740002 c -0.01865,2.257988 2,2.559 6,2.559 4,0 7.018958,-0.384033 7.000312,-2.559 l 0,-17.8740002 c -0.07066,-1.759861 -3.000312,-1.726 -7.000312,-1.726 -4,0 -6.018646,-0.116883 -6,1.726 z" />
    <path
       style="fill:none;stroke:url(#linearGradient3934);stroke-width:0.96399999;stroke-linecap:butt;stroke-linejoin:miter;stroke-miterlimit:4;stroke-opacity:1;stroke-dasharray:none"
       id="path4417-6"
       d="M 9.428688,1.3287937 C 9.410038,3.5867818 12.929,4.118 16.929,4.118 c 4,0 7.518646,-0.614033 7.5,-2.789" />
    <path
       style="opacity:0.6;fill:none;stroke:#686868;stroke-width:0.96418482px;stroke-linecap:butt;stroke-linejoin:round;stroke-opacity:1"
       id="path4440-0"
       d="m 26.428688,-11.540853 c -0.07066,1.759862 -6,3.5 -10,3.5 -4,0 -9.018334,-1.657264 -8.999688,-3.500147" />
    <rect
       style="fill:url(#linearGradient3920);fill-opacity:1;stroke:none;display:inline;filter:url(#filter9752-2);enable-background:new"
       id="rect9419-9"
       y="-7.0572715"
       x="19.159679"
       ry="0.92807764"
       rx="1.1874357"
       height="30.557491"
       width="3.8697126" />
    <path
       style="opacity:0.7;fill:url(#radialGradient4224);fill-opacity:1;stroke:none;display:inline;enable-background:new"
       id="path10456"
       transform="matrix(0.2727273,0,0,0.2727273,-136.35192,-43.596383)"
       d="m 552.625,220.125 a 2.75,2.75 0 1 1 -5.5,0 2.75,2.75 0 1 1 5.5,0 z" />
    <path
       style="opacity:0.6;fill:none;stroke:#fefefe;stroke-width:0.96399999;stroke-linecap:round;stroke-linejoin:round;stroke-miterlimit:4;stroke-opacity:1;stroke-dasharray:none"
       id="path3922"
       d="M 25.257732,-11.651148 C 24.81336,-12.539017 21.5,-14 17.5,-14 c -4,0 -6.655243,0.505968 -10.249141,1.476859 m 0.996564,3.244275 c 1.600766,1.6351355 4.505154,2.3098595 8.505154,2.3098595 4,0 8.64837,-1.0068855 9.003436,-2.6835705" />
    <path
       style="opacity:0.7;fill:url(#radialGradient4226);fill-opacity:1;stroke:none;display:inline;enable-background:new"
       id="path10458"
       transform="matrix(0.2727273,0,0,0.2727273,-136.60192,-40.471383)"
       d="m 552.625,220.125 a 2.75,2.75 0 1 1 -5.5,0 2.75,2.75 0 1 1 5.5,0 z" />
    <path
       style="color:#000000;fill:url(#radialGradient4330);fill-opacity:1;fill-rule:nonzero;stroke:none;stroke-width:1;marker:none;visibility:visible;display:inline;overflow:visible"
       id="path4302"
       d="m 48.5,25.865743 c -2.077393,5.618486 -9.810954,5.962169 -15,6.134462 -5.30626,-0.234133 -12.778417,-0.503172 -15,-6.134462 2.075821,-5.619538 9.811068,-5.963155 15,-6.135464 5.306109,0.234218 12.780036,0.503043 15,6.135464 z" />
    <path
       style="opacity:0.6;fill:url(#linearGradient4332);fill-opacity:1;stroke:#454545;stroke-width:0.96418482px;stroke-linecap:butt;stroke-linejoin:round;stroke-opacity:1"
       id="path4304"
       d="M 30.5,-2.000092 30.496564,2.5987581 22.5,24.72886 c -0.01865,2.257987 6.196271,3.771048 11,3.771048 4.893032,0 11.018646,-1.596082 11,-3.771048 L 36.503436,2.5987581 36.5,-2.000092 C 36.967546,-3.1371015 36.291413,-4.44276 33.5,-4.5 c -2.628416,-0.0539 -5.883767,1.7781595 -3,2.499908 z" />
    <path
       style="fill:#fbfbfb;fill-opacity:0.49411765;stroke:none"
       id="path4306"
       d="M 44.124569,24.691676 C 41.949492,27.291155 36.825114,27.94845 33.45,28.03528 30.108035,27.783945 25.655344,27.905825 23.273712,24.567105 25.075081,21.220203 30.074884,20.936621 33.45,20.84979 c 3.341965,0.251335 8.91579,0.378596 10.674569,3.841886 z" />
    <path
       style="fill:url(#linearGradient4334);fill-opacity:1;stroke:url(#linearGradient4336);stroke-width:0.96418482px;stroke-linecap:butt;stroke-linejoin:miter;stroke-opacity:1"
       id="path4308"
       d="m 26.5,18.726 -2,5.143647 c -0.01865,2.257988 5,2.788956 9,2.788956 4,0 9.018646,-0.613989 9,-2.788956 L 40.5,18.726 c -0.07066,-1.759861 -3,-2.226 -7,-2.226 -4,0 -7.018646,0.383117 -7,2.226 z" />
    <path
       style="fill:url(#linearGradient4338);fill-opacity:1;stroke:none"
       id="path4310"
       d="M 31.128007,2.3618349 22.996564,24.634401 C 22.977914,27.390513 29.5,27 33.5,27 c 4,0 10.771223,0.431989 10.752577,-2.490169 L 36.377148,2.4864054 C 36.520358,0.43475902 35.817419,-0.0626775 33.213322,-0.42891866 32.327584,-0.55348915 30.86022,0.26863903 31.128007,2.3618349 z" />
    <path
       style="fill:url(#linearGradient4340);fill-opacity:1;stroke:none"
       id="path4312"
       d="m 39.757731,18.841899 c -1.551214,2.107107 -4.452635,1.955584 -6.631442,2.009178 -2.26486,-0.105948 -4.974913,0.06392 -6.631443,-2.009178 1.551214,-2.107107 4.452635,-1.955585 6.631443,-2.009178 2.264859,0.105948 4.974912,-0.06392 6.631442,2.009178 z" />
    <path
       style="opacity:0.2;fill:none;stroke:#fefefe;stroke-width:0.96418482px;stroke-linecap:butt;stroke-linejoin:miter;stroke-opacity:1"
       id="path4314"
       d="m 27.5,19.226 -2,3.874 c -0.01865,2.257988 4,2.559 8,2.559 4,0 8.018646,-0.384033 8,-2.559 l -2,-3.874 c -0.07066,-1.759861 -2,-1.726 -6,-1.726 -4,0 -6.018646,-0.116883 -6,1.726 z" />
    <path
       style="fill:none;stroke:url(#linearGradient4342);stroke-width:0.96399999;stroke-linecap:butt;stroke-linejoin:miter;stroke-miterlimit:4;stroke-opacity:1;stroke-dasharray:none"
       id="path4316"
       d="m 26.5,17.869647 c -0.01865,2.257988 3,2.788956 7,2.788956 4,0 7.018646,-0.613989 7,-2.788956" />
    <path
       style="opacity:0.6;fill:none;stroke:#585858;stroke-width:0.96418482px;stroke-linecap:butt;stroke-linejoin:round;stroke-opacity:1"
       id="path4318"
       d="m 36.5,-2.500092 c -0.07066,1.7598616 -1.866461,1.9658969 -3,2.000092 -1.382542,0.041707 -3.018646,-0.1572094 -3,-2.000092" />
    <rect
       style="fill:url(#linearGradient4344);fill-opacity:1;stroke:none;display:inline;filter:url(#filter9752);enable-background:new"
       id="rect4320"
       transform="matrix(0.96840132,-0.24939705,0.24939705,0.96840132,-49.36048,34.13394)"
       y="-4.9191966"
       x="85.003357"
       ry="0.92807764"
       rx="0.5645842"
       height="19.333988"
       width="5.3395739" />
    <path
       style="opacity:0.5;fill:none;stroke:#fefefe;stroke-width:0.96399999;stroke-linecap:round;stroke-linejoin:round;stroke-miterlimit:4;stroke-opacity:1;stroke-dasharray:none"
       id="path4322"
       d="M 36.025771,-2.524859 C 35.581399,-3.412728 34.385738,-3.503436 33.5,-3.503436 c -0.761167,0 -2.046134,0.256827 -2.899481,0.729436 m 0.373711,2.621423 c 0.479632,0.3894306 1.266321,0.6904426 2.401199,0.6904426 1.25945,0 2.668986,-0.3840335 2.899482,-0.9395836" />
    <path
       style="opacity:0.7;fill:url(#radialGradient4348);fill-opacity:1;stroke:none;display:inline;enable-background:new"
       id="path4326"
       transform="matrix(0.2727273,0,0,0.2727273,-121.1523,-37.596383)"
       d="m 552.625,220.125 a 2.75,2.75 0 1 1 -5.5,0 2.75,2.75 0 1 1 5.5,0 z" />
    <path
       style="opacity:0.7;fill:url(#radialGradient4350);fill-opacity:1;stroke:none;display:inline;enable-background:new"
       id="path4328"
       transform="matrix(0.2727273,0,0,0.2727273,-115.4023,-36.471383)"
       d="m 552.625,220.125 a 2.75,2.75 0 1 1 -5.5,0 2.75,2.75 0 1 1 5.5,0 z" />
    <path
       style="opacity:0.7;fill:url(#radialGradient4362);fill-opacity:1;stroke:none;display:inline;enable-background:new"
       id="path4360"
       d="m 13.313624,11.562714 a 0.75000007,0.75000007 0 0 1 -1.5,0 0.75000007,0.75000007 0 1 1 1.5,0 z" />
    <path
       style="opacity:0.7;fill:url(#radialGradient4392);fill-opacity:1;stroke:none;display:inline;enable-background:new"
       id="path4390"
       transform="matrix(0.2727273,0,0,0.2727273,-120.60192,-36.471383)"
       d="m 552.625,220.125 a 2.75,2.75 0 1 1 -5.5,0 2.75,2.75 0 1 1 5.5,0 z" />
    <path
       style="opacity:0.7;fill:url(#radialGradient4398);fill-opacity:1;stroke:none;display:inline;enable-background:new"
       id="path4394"
       transform="matrix(0.2727273,0,0,0.2727273,-111.1523,-37.596383)"
       d="m 552.625,220.125 a 2.75,2.75 0 1 1 -5.5,0 2.75,2.75 0 1 1 5.5,0 z" />
    <path
       style="opacity:0.7;fill:url(#radialGradient4400);fill-opacity:1;stroke:none;display:inline;enable-background:new"
       id="path4396"
       transform="matrix(0.2727273,0,0,0.2727273,-112.60192,-36.471383)"
       d="m 552.625,220.125 a 2.75,2.75 0 1 1 -5.5,0 2.75,2.75 0 1 1 5.5,0 z" />
    <path
       style="opacity:0.7;fill:url(#radialGradient2965);fill-opacity:1;stroke:none;display:inline;enable-background:new"
       id="path2961"
       d="m 18.364004,12.437714 a 0.75000007,0.75000007 0 0 1 -1.5,0 0.75000007,0.75000007 0 1 1 1.5,0 z" />
    <path
       style="opacity:0.7;fill:url(#radialGradient2967);fill-opacity:1;stroke:none;display:inline;enable-background:new"
       id="path2963"
       d="m 18.114004,15.562714 a 0.75000007,0.75000007 0 0 1 -1.5,0 0.75000007,0.75000007 0 1 1 1.5,0 z" />
  </g>
</svg>
