<?xml version="1.0" encoding="UTF-8" standalone="no"?>
<svg
   xmlns:dc="http://purl.org/dc/elements/1.1/"
   xmlns:cc="http://creativecommons.org/ns#"
   xmlns:rdf="http://www.w3.org/1999/02/22-rdf-syntax-ns#"
   xmlns:svg="http://www.w3.org/2000/svg"
   xmlns="http://www.w3.org/2000/svg"
   xmlns:xlink="http://www.w3.org/1999/xlink"
   id="svg2527"
   height="48"
   width="48"
   version="1.0">
  <metadata
     id="metadata194749">
    <rdf:RDF>
      <cc:Work
         rdf:about="">
        <dc:format>image/svg+xml</dc:format>
        <dc:type
           rdf:resource="http://purl.org/dc/dcmitype/StillImage" />
      </cc:Work>
    </rdf:RDF>
  </metadata>
  <defs
     id="defs2529">
    <linearGradient
       id="linearGradient4044">
      <stop
         offset="0"
         style="stop-color:#ffffff;stop-opacity:1"
         id="stop4046" />
      <stop
         offset="1"
         style="stop-color:#ffffff;stop-opacity:0"
         id="stop4048" />
    </linearGradient>
    <linearGradient
       id="linearGradient6939">
      <stop
         offset="0"
         style="stop-color:#babdb6;stop-opacity:1"
         id="stop6941" />
      <stop
         offset="0.24743238"
         style="stop-color:#ededed;stop-opacity:1"
         id="stop7051" />
      <stop
         offset="0.53371018"
         style="stop-color:#b6b9b1;stop-opacity:1"
         id="stop7053" />
      <stop
         offset="0.83191627"
         style="stop-color:#e9eae8;stop-opacity:1"
         id="stop7049" />
      <stop
         offset="1"
         style="stop-color:#b5b9b2;stop-opacity:1"
         id="stop6943" />
    </linearGradient>
    <linearGradient
       id="linearGradient6970">
      <stop
         offset="0"
         style="stop-color:#ffffff;stop-opacity:1"
         id="stop6972" />
      <stop
         offset="1"
         style="stop-color:#eeeeec;stop-opacity:0"
         id="stop6974" />
    </linearGradient>
    <linearGradient
       id="linearGradient7033">
      <stop
         offset="0"
         style="stop-color:#000000;stop-opacity:1"
         id="stop7035" />
      <stop
         offset="1"
         style="stop-color:#000000;stop-opacity:0"
         id="stop7037" />
    </linearGradient>
    <linearGradient
       id="linearGradient7065">
      <stop
         offset="0"
         style="stop-color:#888a85;stop-opacity:1"
         id="stop7067" />
      <stop
         offset="0.70408165"
         style="stop-color:#cfd0ce;stop-opacity:1"
         id="stop7073" />
      <stop
         offset="1"
         style="stop-color:#888a85;stop-opacity:1"
         id="stop7069" />
    </linearGradient>
    <linearGradient
       id="linearGradient6967">
      <stop
         offset="0"
         style="stop-color:#ffffff;stop-opacity:1"
         id="stop6969" />
      <stop
         offset="1"
         style="stop-color:#ffffff;stop-opacity:0"
         id="stop6971" />
    </linearGradient>
    <linearGradient
       id="linearGradient6969">
      <stop
         offset="0"
         style="stop-color:#000000;stop-opacity:1"
         id="stop6973" />
      <stop
         offset="1"
         style="stop-color:#000000;stop-opacity:0"
         id="stop6975" />
    </linearGradient>
    <linearGradient
       id="linearGradient6979">
      <stop
         offset="0"
         style="stop-color:#ffffff;stop-opacity:1"
         id="stop6981" />
      <stop
         offset="1"
         style="stop-color:#ffffff;stop-opacity:0"
         id="stop6983" />
    </linearGradient>
    <linearGradient
       id="linearGradient7010">
      <stop
         offset="0"
         style="stop-color:#848782;stop-opacity:1"
         id="stop7012" />
      <stop
         offset="1"
         style="stop-color:#babdb6;stop-opacity:1"
         id="stop7014" />
    </linearGradient>
    <linearGradient
       id="linearGradient7207">
      <stop
         offset="0"
         style="stop-color:#ffffff;stop-opacity:1"
         id="stop7209" />
      <stop
         offset="1"
         style="stop-color:#ffffff;stop-opacity:0"
         id="stop7211" />
    </linearGradient>
    <linearGradient
       id="linearGradient7215">
      <stop
         offset="0"
         style="stop-color:#ffffff;stop-opacity:1"
         id="stop7217" />
      <stop
         offset="1"
         style="stop-color:#ffffff;stop-opacity:0"
         id="stop7219" />
    </linearGradient>
    <linearGradient
       id="linearGradient7002">
      <stop
         offset="0"
         style="stop-color:#eeeeec;stop-opacity:1"
         id="stop7004" />
      <stop
         offset="1"
         style="stop-color:#babdb6;stop-opacity:1"
         id="stop7006" />
    </linearGradient>
    <linearGradient
       id="linearGradient5128-0">
      <stop
         offset="0"
         style="stop-color:#eeeeee;stop-opacity:1"
         id="stop5130-2" />
      <stop
         offset="1"
         style="stop-color:#a2a2a2;stop-opacity:1"
         id="stop5132-1" />
    </linearGradient>
    <linearGradient
       id="linearGradient3390-178-986-453">
      <stop
         offset="0"
         style="stop-color:#bb5e12;stop-opacity:1"
         id="stop3624" />
      <stop
         offset="1"
         style="stop-color:#cd8033;stop-opacity:1"
         id="stop3626" />
    </linearGradient>
    <linearGradient
       id="linearGradient7012-661-145-733-759-865-745-661-970-94">
      <stop
         offset="0"
         style="stop-color:#edd563;stop-opacity:1"
         id="stop3618" />
      <stop
         offset="1"
         style="stop-color:#e08223;stop-opacity:1"
         id="stop3620" />
    </linearGradient>
    <radialGradient
       gradientTransform="matrix(1,0,0,0.2982456,0,30.830973)"
       gradientUnits="userSpaceOnUse"
       xlink:href="#linearGradient6969"
       id="radialGradient4159"
       fy="43.934135"
       fx="28.637825"
       r="10.076272"
       cy="43.934135"
       cx="28.637825" />
    <linearGradient
       gradientTransform="matrix(0,-1,1,0,-22.968749,49.03125)"
       gradientUnits="userSpaceOnUse"
       xlink:href="#linearGradient7012-661-145-733-759-865-745-661-970-94"
       id="linearGradient4161"
       y2="32.406776"
       x2="1.6791928"
       y1="24.898306"
       x1="25.207626" />
    <linearGradient
       gradientUnits="userSpaceOnUse"
       xlink:href="#linearGradient3390-178-986-453"
       id="linearGradient4163"
       y2="15.467621"
       x2="-5.2875023"
       y1="49.696384"
       x1="-4.3261957" />
    <linearGradient
       gradientTransform="matrix(0,-1,1,0,-22.968749,49.03125)"
       gradientUnits="userSpaceOnUse"
       xlink:href="#linearGradient7207"
       id="linearGradient4165"
       y2="27.016951"
       x2="11.40625"
       y1="23.661016"
       x1="37.086864" />
    <radialGradient
       gradientTransform="matrix(1.450655,0,0,1.2623489,-1.3660485,-18.001669)"
       gradientUnits="userSpaceOnUse"
       xlink:href="#linearGradient3390-178-986-453"
       id="radialGradient4167"
       fy="42.638996"
       fx="2.6106343"
       r="13"
       cy="42.638996"
       cx="2.6106343" />
    <linearGradient
       gradientTransform="matrix(0,-1,1,0,-22.968749,49.03125)"
       gradientUnits="userSpaceOnUse"
       xlink:href="#linearGradient7215"
       id="linearGradient4169"
       y2="20.28178"
       x2="11.999924"
       y1="17.536016"
       x1="33.726696" />
    <linearGradient
       gradientTransform="matrix(0,-1,1,0,-22.968749,49.03125)"
       gradientUnits="userSpaceOnUse"
       xlink:href="#linearGradient3390-178-986-453"
       id="linearGradient4171"
       y2="26.521631"
       x2="8.9998951"
       y1="26.521631"
       x1="11.22532" />
    <radialGradient
       gradientTransform="matrix(1,0,0,0.2982456,0,30.830973)"
       gradientUnits="userSpaceOnUse"
       xlink:href="#linearGradient6969"
       id="radialGradient4173"
       fy="43.934135"
       fx="28.637825"
       r="10.076272"
       cy="43.934135"
       cx="28.637825" />
    <radialGradient
       gradientTransform="matrix(1,0,0,0.2982456,0,30.830973)"
       gradientUnits="userSpaceOnUse"
       xlink:href="#linearGradient6969"
       id="radialGradient4175"
       fy="43.934135"
       fx="28.637825"
       r="10.076272"
       cy="43.934135"
       cx="28.637825" />
    <linearGradient
       gradientTransform="translate(23.006098,0.01797557)"
       gradientUnits="userSpaceOnUse"
       xlink:href="#linearGradient6939"
       id="linearGradient4177"
       y2="33.136932"
       x2="22"
       y1="8.048214"
       x1="-5.837441" />
    <linearGradient
       gradientTransform="translate(9.006098,0.01797557)"
       gradientUnits="userSpaceOnUse"
       xlink:href="#linearGradient7010"
       id="linearGradient4179"
       y2="-14.304715"
       x2="24"
       y1="42"
       x1="37" />
    <linearGradient
       gradientUnits="userSpaceOnUse"
       xlink:href="#linearGradient5128-0"
       id="linearGradient4181"
       y2="41.049225"
       x2="46.881378"
       y1="7.8993325"
       x1="35.376331" />
    <linearGradient
       gradientTransform="translate(9.006098,0.01797557)"
       gradientUnits="userSpaceOnUse"
       xlink:href="#linearGradient6979"
       id="linearGradient4183"
       y2="78.125"
       x2="29.625"
       y1="1.4999999"
       x1="23.125" />
    <linearGradient
       gradientTransform="translate(19.006098,0.01797557)"
       gradientUnits="userSpaceOnUse"
       xlink:href="#linearGradient6970"
       id="linearGradient4185"
       y2="7.9975319"
       x2="3.800699"
       y1="9.5814371"
       x1="3.800699" />
    <linearGradient
       gradientTransform="translate(24.006098,0.01797557)"
       gradientUnits="userSpaceOnUse"
       xlink:href="#linearGradient7065"
       id="linearGradient4187"
       y2="11.746678"
       x2="20.461903"
       y1="15.32668"
       x1="20.461903" />
    <linearGradient
       gradientTransform="matrix(0.5,0,0,1,27.506098,1.0179756)"
       gradientUnits="userSpaceOnUse"
       xlink:href="#linearGradient7033"
       id="linearGradient4189"
       y2="21.500893"
       x2="12.6875"
       y1="17.550121"
       x1="12.6875" />
    <linearGradient
       gradientTransform="matrix(0.5,0,0,1,33.506098,1.0179756)"
       gradientUnits="userSpaceOnUse"
       xlink:href="#linearGradient7033"
       id="linearGradient4191"
       y2="21.500893"
       x2="12.6875"
       y1="17.550121"
       x1="12.6875" />
    <linearGradient
       gradientTransform="translate(22.006098,2.0179756)"
       gradientUnits="userSpaceOnUse"
       xlink:href="#linearGradient6967"
       id="linearGradient4193"
       y2="17.5625"
       x2="11.467819"
       y1="17.5625"
       x1="9.53125" />
    <linearGradient
       gradientTransform="translate(9.006098,0.01797557)"
       gradientUnits="userSpaceOnUse"
       xlink:href="#linearGradient6979"
       id="linearGradient4195"
       y2="78.125"
       x2="29.625"
       y1="1.4999999"
       x1="23.125" />
    <radialGradient
       gradientTransform="matrix(1,0,0,0.6666667,5.9167408,4.7466938)"
       gradientUnits="userSpaceOnUse"
       xlink:href="#linearGradient7002"
       id="radialGradient4197"
       fy="14"
       fx="24.5"
       r="10.5"
       cy="14"
       cx="24.5" />
    <linearGradient
       gradientUnits="userSpaceOnUse"
       xlink:href="#linearGradient4044"
       id="linearGradient4199"
       y2="11"
       x2="11"
       y1="8"
       x1="-1.984375" />
  </defs>
  <g
     id="g4114"
     transform="translate(-5.0561395,-0.03595458)">
    <path
       style="fill:#babdb6;fill-rule:evenodd;stroke:#888a85;stroke-width:1px;stroke-linecap:butt;stroke-linejoin:miter;stroke-opacity:1"
       id="path5940"
       d="m 40.506098,6.5179756 5,0 c 0,-1.309637 -3.222373,-2.6533694 -5,-3 l 0,3 z" />
    <rect
       style="fill:#eeeeec;fill-opacity:1;fill-rule:evenodd;stroke:#babdb6;stroke-width:0.99999994;stroke-linecap:round;stroke-linejoin:miter;stroke-miterlimit:10;stroke-opacity:1;stroke-dasharray:none"
       id="rect6988"
       y="12.517976"
       x="39.5061"
       ry="0"
       rx="0"
       height="2"
       width="4" />
    <path
       style="opacity:0.1;fill:url(#radialGradient4159);fill-opacity:1;fill-rule:evenodd;stroke:none"
       id="path7455"
       transform="matrix(2.2997063,0,0,0.8336219,-37.159207,7.3883131)"
       d="m 38.714097,43.934135 a 10.076272,3.0052037 0 1 1 -20.152544,0 10.076272,3.0052037 0 1 1 20.152544,0 z" />
    <g
       id="g7015"
       transform="translate(26.006098,3.0179756)">
      <path
         style="fill:url(#linearGradient4161);fill-opacity:1;fill-rule:evenodd;stroke:url(#linearGradient4163);stroke-width:0.99999994;stroke-linecap:round;stroke-linejoin:round;stroke-miterlimit:4;stroke-opacity:1;stroke-dasharray:none"
         id="rect7157"
         d="m -14.46875,40.53125 35.000001,0 0,-5 -4,0 c 0.0062,-0.166339 0,-0.394238 0,-0.5625 0,-7.452 -6.048001,-13.500001 -13.500001,-13.500001 -7.452,0 -13.5,6.048001 -13.500001,13.500001 10e-7,0.168262 0.02504,0.396161 0.03125,0.5625 l -4.03125,0 -1e-6,5 z m 9,-5.5625 c 0,-4.692 3.808,-8.500001 8.5,-8.500001 4.692001,1e-6 8.500001,3.808001 8.500001,8.500001 0,0.167099 0.0096,0.397687 0,0.5625 l -17,0 c -0.00963,-0.164813 -1e-6,-0.395401 -1e-6,-0.5625 z" />
      <path
         style="fill:none;stroke:url(#linearGradient4165);stroke-width:1;stroke-linecap:round;stroke-linejoin:miter;stroke-miterlimit:4;stroke-opacity:1"
         id="path7176"
         d="m -13.468749,39.53125 33,0 0,-3 -3,0 C 16.260539,36.531354 16.001349,36.42171 15.812894,36.227366 15.624439,36.033021 15.522819,35.770581 15.531251,35.5 c 0.004,-0.107473 0,-0.338384 0,-0.53125 0,-6.910937 -5.589063,-12.5 -12.5,-12.5 -6.910936,1e-6 -12.499999,5.589063 -12.5,12.5 0,0.06907 0.022571,0.298806 0.03125,0.53125 0.00843,0.270581 -0.093188,0.533021 -0.281643,0.727366 -0.188455,0.194344 -0.447645,0.303988 -0.718357,0.303884 l -3.03125,0 0,3 z" />
      <path
         style="fill:url(#radialGradient4167);fill-opacity:1;fill-rule:evenodd;stroke:none"
         id="path7243"
         d="m -9.968749,32.875 1.40625,0.40625 c 0.076241,-0.328066 0.178664,-0.651544 0.28125,-0.96875 l -1.4375,-0.40625 -0.25,0.96875 z m 1.21875,-3.4375 1.34375,0.8125 c 0.156459,-0.285004 0.321705,-0.573425 0.5,-0.84375 l -1.375,-0.84375 -0.46875,0.875 z m 2,-3 1.21875,1.28125 c 0.231076,-0.241677 0.468432,-0.46588 0.71875,-0.6875 l -1.25,-1.3125 -0.6875,0.71875 z m 2.71875,-2.34375 0.90625,1.6875 c 0.271456,-0.166107 0.558722,-0.324429 0.84375,-0.46875 l -0.9375,-1.71875 -0.8125,0.5 z m 3.15625,-1.53125 0.5,1.96875 c 0.300767,-0.09073 0.596123,-0.151902 0.90625,-0.21875 l -0.5,-2 -0.90625,0.25 z m 3.4375,1.5 c 0.156311,-0.0062 0.31098,-0.03125 0.46875,-0.03125 0.15777,0 0.312439,0.02509 0.46875,0.03125 l 0,-2.09375 -0.9375,0 0,2.09375 z m 2.96875,0.25 c 0.310127,0.06685 0.605483,0.128022 0.90625,0.21875 l 0.5,-1.96875 -0.90625,-0.25 -0.5,2 z m 2.8125,1 c 0.285028,0.144321 0.572294,0.302643 0.84375,0.46875 l 0.90625,-1.6875 -0.8125,-0.5 -0.9375,1.71875 z m 2.53125,1.71875 c 0.250318,0.22162 0.487674,0.445823 0.71875,0.6875 l 1.21875,-1.28125 -0.6875,-0.71875 -1.25,1.3125 z m 2.09375,2.375 c 0.178295,0.270325 0.343541,0.558746 0.5,0.84375 l 1.34375,-0.8125 -0.46875,-0.875 -1.375,0.84375 z m 1.375,2.90625 c 0.102586,0.317206 0.205009,0.640684 0.28125,0.96875 l 1.40625,-0.40625 -0.25,-0.96875 -1.4375,0.40625 z" />
      <path
         style="fill:none;stroke:url(#linearGradient4169);stroke-width:1;stroke-linecap:round;stroke-linejoin:miter;stroke-miterlimit:4;stroke-opacity:1"
         id="path7194"
         d="m -6.468749,35.6875 c -0.00147,-0.03123 -0.00147,-0.06252 0,-0.09375 -0.01506,-0.257779 0,-0.496317 0,-0.625 1e-6,-5.233063 4.266937,-9.5 9.5,-9.5 5.233064,2e-6 9.5,4.266937 9.5,9.5 0,0.128679 0.01506,0.367211 0,0.625 -0.0331,0.527714 -0.47125,0.938484 -1,0.9375 l -17,0 c -0.496592,0.0061 -0.922397,-0.353222 -1,-0.84375 l 0,0 z" />
      <path
         style="fill:url(#linearGradient4171);fill-opacity:1;fill-rule:evenodd;stroke:none"
         id="path7231"
         d="m -10.968749,40.03125 1,0 0,-2 -1,0 0,2 z m 2,0 1,0 0,-3 -1,0 0,3 z m 2,0 1,0 0,-2 -1,0 0,2 z m 2,0 1,0 0,-3 -1,0 0,3 z m 2,0 1,0 0,-2 -1,0 0,2 z m 2,0 1,0 0,-3 -1,0 0,3 z m 2,0 1,0 0,-2 -1,0 0,2 z m 2,0 1,0 0,-3 -1,0 0,3 z m 2,0 1,0 0,-2 -1,0 0,2 z m 2,0 1,0 0,-3 -1,0 0,3 z m 2,0 1,0 0,-2 -1,0 0,2 z m 2,0 1,0 0,-3 -1,0 0,3 z m 2,0 1,0 0,-2 -1,0 0,2 z m 2,0 1,0 0,-3 -1,0 0,3 z m 2,0 1,0 0,-2 -1,0 0,2 z" />
    </g>
    <path
       style="opacity:0.1;fill:#000000;fill-opacity:1;fill-rule:evenodd;stroke:#000000;stroke-width:1;stroke-linecap:round;stroke-linejoin:miter;stroke-miterlimit:4;stroke-opacity:1;stroke-dasharray:none"
       id="rect7003"
       d="m 34.506098,25.642976 0,5.84375 c 1.850354,1.55962 3.03125,3.89243 3.03125,6.5 -1e-6,0.167099 0.0096,0.397687 0,0.5625 l -3.03125,0 0,3.96875 2,0 0,1.03125 2.0625,0 0,-1.03125 1.9375,0 0,-11.625 c -1.424464,-2.294707 -3.510931,-4.144223 -6,-5.25 z" />
    <path
       style="opacity:0.07000002;fill:url(#radialGradient4173);fill-opacity:1;fill-rule:evenodd;stroke:none"
       id="path6959"
       transform="matrix(1.4561403,0,0,0.6672439,-6.001313,16.69799)"
       d="m 38.714097,43.934135 a 10.076272,3.0052037 0 1 1 -20.152544,0 10.076272,3.0052037 0 1 1 20.152544,0 z" />
    <path
       style="opacity:0.20641785;fill:url(#radialGradient4175);fill-opacity:1;fill-rule:evenodd;stroke:none"
       id="path6999"
       transform="matrix(0.4298246,0,0,0.4907733,24.097244,24.981403)"
       d="m 38.714097,43.934135 a 10.076272,3.0052037 0 1 1 -20.152544,0 10.076272,3.0052037 0 1 1 20.152544,0 z" />
    <rect
       style="fill:#d3d7cf;fill-opacity:1;fill-rule:evenodd;stroke:#888a85;stroke-width:1;stroke-linecap:round;stroke-linejoin:round;stroke-miterlimit:4;stroke-opacity:1;stroke-dasharray:none"
       id="rect5983"
       y="40.517975"
       x="35.5061"
       height="6"
       width="2.0580583" />
    <path
       style="fill:url(#linearGradient4177);fill-opacity:1;fill-rule:evenodd;stroke:url(#linearGradient4179);stroke-width:1px;stroke-linecap:butt;stroke-linejoin:miter;stroke-opacity:1"
       id="path5931"
       d="m 39.506098,0.51797557 -7,0 c -2.034853,0 -11.027728,2.02772823 -11.027728,2.02772823 -0.868802,0.501603 -0.972272,1.4130689 -0.972272,2.9722718 l 11,0 c 0,-1.2057618 0.771356,-1 2,-1 l 0,37.0000004 6,0 0,-35.9687504 c 2.257372,0 6,-1.4980165 6,-3.03125 l -6,0 0,-2.00000003 z" />
    <path
       style="opacity:0.77985074;fill:url(#linearGradient4181);fill-opacity:1;stroke:url(#linearGradient4183);stroke-width:1px;stroke-linecap:butt;stroke-linejoin:miter;stroke-opacity:1"
       id="path5947"
       d="m 32.506098,1.4867256 c -1.965757,0.2058833 -8.765548,1.073224 -10.53125,1.90625 -0.478786,0.2498717 -0.403901,0.6087677 -0.4375,1.15625 l 9.194432,-0.044194 c 0.287372,-0.8822551 1.014066,-1.0220971 2.310279,-1.0220971 1.321033,0 1.432789,0.4124481 1.432789,1.0350413 l 0,36.0312502 4.0625,0 0,-35.0000002 c 0.002,-0.5342019 0.434548,-0.9667656 0.96875,-0.9687502 1.262466,0.056725 3.632816,-0.8181105 3.926126,-1.09375 l -3.926126,0 c -0.534202,-0.00198 -0.966765,-0.4345483 -0.96875,-0.96875 l 0,-1.03125 -6.03125,0 z" />
    <path
       style="fill:url(#linearGradient4185);fill-opacity:1;fill-rule:evenodd;stroke:none"
       id="rect6965"
       d="m 25.006098,8.0179756 0,1.03125 c 0,0.5366875 -0.432063,0.9687504 -0.96875,0.9687504 l -2.389515,0 c 0,0 -0.641735,-0.4600373 -0.641735,-0.9687504 l 0,-1.03125 4,0 z" />
    <rect
       style="fill:#eeeeec;fill-opacity:1;fill-rule:evenodd;stroke:url(#linearGradient4187);stroke-width:1;stroke-linecap:round;stroke-linejoin:miter;stroke-miterlimit:10;stroke-opacity:1;stroke-dasharray:none"
       id="rect6986"
       y="11.517976"
       x="42.5061"
       ry="0.4826141"
       rx="0.4826141"
       height="4"
       width="2" />
    <path
       style="opacity:0.15671644;fill:url(#linearGradient4189);fill-opacity:1;fill-rule:evenodd;stroke:none"
       id="path7041"
       d="m 33.006098,12.017976 0,1 1,0 0,-1 -1,0 z m 0,2 0,1 1,0 0,-1 -1,0 z m 0,2 0,1 1,0 0,-1 -1,0 z m 0,2 0,1 1,0 0,-1 -1,0 z" />
    <path
       style="opacity:0.1;fill:url(#linearGradient4191);fill-opacity:1;fill-rule:evenodd;stroke:none"
       id="path7045"
       d="m 39.006098,12.017976 0,1 1,0 0,-1 -1,0 z m 0,2 0,1 1,0 0,-1 -1,0 z m 0,2 0,1 1,0 0,-1 -1,0 z m 0,2 0,1 1,0 0,-1 -1,0 z" />
    <path
       style="opacity:0.53731342;fill:none;stroke:url(#linearGradient4193);stroke-width:1px;stroke-linecap:round;stroke-linejoin:miter;stroke-opacity:1"
       id="path6965"
       d="m 31.506098,19.517976 2,0" />
    <path
       style="fill:none;stroke:url(#linearGradient4195);stroke-width:1px;stroke-linecap:round;stroke-linejoin:miter;stroke-opacity:1"
       id="path7135"
       d="m 43.432224,3.4867256 -3.926126,0 c -0.534202,-0.00198 -0.966765,-0.4345483 -0.96875,-0.96875 l 0,-1.03125 -6.03125,0 c -1.965757,0.2058833 -8.765548,1.073224 -10.53125,1.90625" />
    <rect
       style="opacity:0.53358208;fill:#ffffff;fill-opacity:1;fill-rule:evenodd;stroke:none"
       id="rect7011"
       y="9.0179758"
       x="39.0061"
       height="1"
       width="1" />
    <path
       style="fill:#727272;fill-opacity:1;fill-rule:evenodd;stroke:none"
       id="rect6994"
       d="m 34.006098,8.0179756 0,1 3,0 0,-1 -3,0 z m 0,2.0000004 0,1 2,0 0,-1 -2,0 z m 0,2 0,1 3,0 0,-1 -3,0 z m 0,2 0,1 2,0 0,-1 -2,0 z m 0,2 0,1 3,0 0,-1 -3,0 z m 0,2 0,1 2,0 0,-1 -2,0 z m 0,2 0,1 3,0 0,-1 -3,0 z m 0,2 0,1 2,0 0,-1 -2,0 z m 0,2 0,1 3,0 0,-1 -3,0 z m 0,2 0,1 2,0 0,-1 -2,0 z m 0,2 0,1 3,0 0,-1 -3,0 z m 0,2 0,1 2,0 0,-1 -2,0 z m 0,2 0,1 3,0 0,-1 -3,0 z m 0,2 0,1 2,0 0,-1 -2,0 z m 0,2 0,1 3,0 0,-1 -3,0 z m 0,2 0,1 2,0 0,-1 -2,0 z" />
    <path
       style="fill:url(#radialGradient4197);fill-opacity:1;fill-rule:evenodd;stroke:#a0a19e;stroke-width:1;stroke-linecap:round;stroke-linejoin:miter;stroke-miterlimit:10;stroke-opacity:1;stroke-dasharray:none"
       id="rect6990"
       d="m 20.41674,7.5800278 c 0,1.559203 0.09995,2.4671472 0.96875,2.9687502 l 10.53125,2.03125 c 0.373164,0.185835 0.5,0.5 0.5,1 l 0,5 -1,0 c -0.554,0 -1,0.446 -1,1 0,0.554 0.446,1 1,1 l 1,0 2,0 0,-12.0000002 -2,0 c -1.016528,0.0013 -1,-0.09568 -1,-1 l -11,0 z m 18,1 0,12.0000002 2,0 0,-12.0000002 -2,0 z" />
    <path
       style="opacity:0.53358208;fill:none;stroke:#ffffff;stroke-width:1px;stroke-linecap:round;stroke-linejoin:miter;stroke-opacity:1"
       id="path6989"
       d="m 33.506098,9.5179756 -1.5,0 c -0.5,0 -1.312175,-0.5110485 -1.389515,-1 l -9.166769,-0.071909" />
    <g
       style="opacity:0.36194033"
       id="g6926"
       transform="translate(23.006098,0.01797557)">
      <path
         style="fill:none;stroke:#ffffff;stroke-width:1px;stroke-linecap:butt;stroke-linejoin:miter;stroke-opacity:1"
         id="path6922"
         d="m 10.5,20 0,-7.5" />
      <path
         style="fill:none;stroke:#ffffff;stroke-width:1px;stroke-linecap:butt;stroke-linejoin:miter;stroke-opacity:1"
         id="path6924"
         d="m 16.5,20 0,-11" />
      <path
         style="fill:none;stroke:url(#linearGradient4199);stroke-width:1px;stroke-linecap:butt;stroke-linejoin:miter;stroke-opacity:1"
         id="path6920"
         d="m -1.484375,8.5 c 0,0.5073099 0.071245,0.89605 0.453125,1.09375 l 10.375,1.96875 c 0.031746,0.0089 0.063034,0.01929 0.09375,0.03125 0.3473985,0.173004 0.672341,0.48439 0.84375,0.84375 C 10.452659,12.79686 10.5,13.165442 10.5,13.5 l 0,-4 -1,0 c -1,0 -1.6574952,-0.2320194 -1.9005631,-1 l -9.0838119,0 z" />
    </g>
  </g>
</svg>
