<?xml version="1.0" encoding="UTF-8" standalone="no"?>
<svg
   xmlns:dc="http://purl.org/dc/elements/1.1/"
   xmlns:cc="http://creativecommons.org/ns#"
   xmlns:rdf="http://www.w3.org/1999/02/22-rdf-syntax-ns#"
   xmlns:svg="http://www.w3.org/2000/svg"
   xmlns="http://www.w3.org/2000/svg"
   xmlns:xlink="http://www.w3.org/1999/xlink"
   id="svg6056"
   height="48"
   width="48"
   version="1.1">
  <metadata
     id="metadata196424">
    <rdf:RDF>
      <cc:Work
         rdf:about="">
        <dc:format>image/svg+xml</dc:format>
        <dc:type
           rdf:resource="http://purl.org/dc/dcmitype/StillImage" />
      </cc:Work>
    </rdf:RDF>
  </metadata>
  <defs
     id="defs6058">
    <radialGradient
       gradientTransform="matrix(0.02409717,0,0,0.01537476,26.477584,38.629039)"
       gradientUnits="userSpaceOnUse"
       xlink:href="#linearGradient5060"
       id="radialGradient6510"
       fy="486.64789"
       fx="605.71429"
       r="117.14286"
       cy="486.64789"
       cx="605.71429" />
    <linearGradient
       id="linearGradient5060">
      <stop
         offset="0"
         style="stop-color:#000000;stop-opacity:1"
         id="stop5062" />
      <stop
         offset="1"
         style="stop-color:#000000;stop-opacity:0"
         id="stop5064" />
    </linearGradient>
    <radialGradient
       gradientTransform="matrix(-0.02409717,0,0,0.01537476,21.522412,38.629039)"
       gradientUnits="userSpaceOnUse"
       xlink:href="#linearGradient5060"
       id="radialGradient6508"
       fy="486.64789"
       fx="605.71429"
       r="117.14286"
       cy="486.64789"
       cx="605.71429" />
    <linearGradient
       id="linearGradient5048">
      <stop
         offset="0"
         style="stop-color:#000000;stop-opacity:0"
         id="stop5050" />
      <stop
         offset="0.5"
         style="stop-color:#000000;stop-opacity:1"
         id="stop5056" />
      <stop
         offset="1"
         style="stop-color:#000000;stop-opacity:0"
         id="stop5052" />
    </linearGradient>
    <linearGradient
       gradientTransform="matrix(0.0704142,0,0,0.01537476,-1.4497047,38.629007)"
       gradientUnits="userSpaceOnUse"
       xlink:href="#linearGradient5048"
       id="linearGradient6506"
       y2="609.50507"
       x2="302.85715"
       y1="366.64789"
       x1="302.85715" />
    <linearGradient
       id="linearGradient3104">
      <stop
         offset="0"
         style="stop-color:#aaaaaa;stop-opacity:1"
         id="stop3106" />
      <stop
         offset="1"
         style="stop-color:#d2d2d2;stop-opacity:1"
         id="stop3108" />
    </linearGradient>
    <linearGradient
       gradientTransform="matrix(0.8074968,0,0,0.9358511,59.41023,-2.1144791)"
       gradientUnits="userSpaceOnUse"
       xlink:href="#linearGradient3104"
       id="linearGradient6546"
       y2="2.9062471"
       x2="-51.786404"
       y1="50.786446"
       x1="-51.786404" />
    <linearGradient
       id="linearGradient3600">
      <stop
         offset="0"
         style="stop-color:#f4f4f4;stop-opacity:1"
         id="stop3602" />
      <stop
         offset="1"
         style="stop-color:#dbdbdb;stop-opacity:1"
         id="stop3604" />
    </linearGradient>
    <linearGradient
       gradientTransform="translate(-1e-5,-0.99999972)"
       gradientUnits="userSpaceOnUse"
       xlink:href="#linearGradient3600"
       id="linearGradient6544"
       y2="47.013336"
       x2="25.132275"
       y1="6.7287393"
       x1="25.132275" />
    <linearGradient
       id="linearGradient4042">
      <stop
         offset="0"
         style="stop-color:#7a7a7a;stop-opacity:1"
         id="stop4044" />
      <stop
         offset="1"
         style="stop-color:#5d5d5d;stop-opacity:1"
         id="stop4046" />
    </linearGradient>
    <linearGradient
       gradientTransform="matrix(0.9660653,0,0,0.9014227,-2.1500001,3.5833345)"
       gradientUnits="userSpaceOnUse"
       xlink:href="#linearGradient4042"
       id="linearGradient3762"
       y2="19.321308"
       x2="22.953798"
       y1="7.6358142"
       x1="22.953798" />
    <linearGradient
       gradientTransform="matrix(1.0675585,0,0,1.5499184,1.7897063,4.6799716)"
       gradientUnits="userSpaceOnUse"
       xlink:href="#linearGradient4338"
       id="linearGradient8668"
       y2="11.817068"
       x2="22.104254"
       y1="43.199211"
       x1="22.104254" />
    <linearGradient
       gradientTransform="matrix(1.0675585,0,0,1.5499184,1.7897063,4.6799716)"
       gradientUnits="userSpaceOnUse"
       xlink:href="#linearGradient4338"
       id="linearGradient8666"
       y2="11.817068"
       x2="22.104254"
       y1="43.199211"
       x1="22.104254" />
    <linearGradient
       gradientTransform="matrix(1.0675585,0,0,1.5499184,1.7897063,4.6799716)"
       gradientUnits="userSpaceOnUse"
       xlink:href="#linearGradient4338"
       id="linearGradient8664"
       y2="11.817068"
       x2="22.104254"
       y1="43.199211"
       x1="22.104254" />
    <linearGradient
       gradientTransform="matrix(1.0675585,0,0,1.5499184,1.7897063,4.6799716)"
       gradientUnits="userSpaceOnUse"
       xlink:href="#linearGradient4338"
       id="linearGradient8662"
       y2="11.817068"
       x2="22.104254"
       y1="43.199211"
       x1="22.104254" />
    <linearGradient
       gradientTransform="matrix(1.0675585,0,0,1.5499184,1.7897063,4.6799716)"
       gradientUnits="userSpaceOnUse"
       xlink:href="#linearGradient4338"
       id="linearGradient8660"
       y2="11.817068"
       x2="22.104254"
       y1="43.199211"
       x1="22.104254" />
    <linearGradient
       gradientTransform="matrix(1.0675585,0,0,1.5499184,1.7897063,4.6799716)"
       gradientUnits="userSpaceOnUse"
       xlink:href="#linearGradient4338"
       id="linearGradient8658"
       y2="11.817068"
       x2="22.104254"
       y1="43.199211"
       x1="22.104254" />
    <linearGradient
       gradientTransform="matrix(1.0675585,0,0,1.5499163,1.7897063,5.9078126)"
       gradientUnits="userSpaceOnUse"
       xlink:href="#linearGradient4338"
       id="linearGradient8656"
       y2="11.817068"
       x2="22.104254"
       y1="43.199211"
       x1="22.104254" />
    <linearGradient
       gradientTransform="matrix(1.0675585,0,0,1.5499163,1.7897063,5.9078126)"
       gradientUnits="userSpaceOnUse"
       xlink:href="#linearGradient4338"
       id="linearGradient8654"
       y2="11.817068"
       x2="22.104254"
       y1="43.199211"
       x1="22.104254" />
    <linearGradient
       gradientTransform="matrix(1.0675585,0,0,1.5499163,1.7897063,5.9078126)"
       gradientUnits="userSpaceOnUse"
       xlink:href="#linearGradient4338"
       id="linearGradient8652"
       y2="11.817068"
       x2="22.104254"
       y1="43.199211"
       x1="22.104254" />
    <linearGradient
       gradientTransform="matrix(1.0675585,0,0,1.5499163,1.7897063,5.9078126)"
       gradientUnits="userSpaceOnUse"
       xlink:href="#linearGradient4338"
       id="linearGradient8650"
       y2="11.817068"
       x2="22.104254"
       y1="43.199211"
       x1="22.104254" />
    <linearGradient
       gradientTransform="matrix(1.0675585,0,0,1.5499163,1.7897063,5.9078126)"
       gradientUnits="userSpaceOnUse"
       xlink:href="#linearGradient4338"
       id="linearGradient8648"
       y2="11.817068"
       x2="22.104254"
       y1="43.199211"
       x1="22.104254" />
    <linearGradient
       gradientTransform="matrix(1.0675585,0,0,1.5499163,1.7897063,5.9078126)"
       gradientUnits="userSpaceOnUse"
       xlink:href="#linearGradient4338"
       id="linearGradient8646"
       y2="11.817068"
       x2="22.104254"
       y1="43.199211"
       x1="22.104254" />
    <linearGradient
       gradientTransform="matrix(1.0376241,0,0,1.5499163,2.1320828,5.0892594)"
       gradientUnits="userSpaceOnUse"
       xlink:href="#linearGradient4338"
       id="linearGradient8644"
       y2="11.817068"
       x2="22.104254"
       y1="43.199211"
       x1="22.104254" />
    <linearGradient
       gradientTransform="matrix(1.0376241,0,0,1.5499163,2.1320828,5.0892594)"
       gradientUnits="userSpaceOnUse"
       xlink:href="#linearGradient4338"
       id="linearGradient8642"
       y2="11.817068"
       x2="22.104254"
       y1="43.199211"
       x1="22.104254" />
    <linearGradient
       gradientTransform="matrix(1.0376241,0,0,1.5499163,2.1320828,5.0892594)"
       gradientUnits="userSpaceOnUse"
       xlink:href="#linearGradient4338"
       id="linearGradient8640"
       y2="11.817068"
       x2="22.104254"
       y1="43.199211"
       x1="22.104254" />
    <linearGradient
       gradientTransform="matrix(1.0376241,0,0,1.5499163,2.1320828,5.0892594)"
       gradientUnits="userSpaceOnUse"
       xlink:href="#linearGradient4338"
       id="linearGradient8638"
       y2="11.817068"
       x2="22.104254"
       y1="43.199211"
       x1="22.104254" />
    <linearGradient
       gradientTransform="matrix(1.0376241,0,0,1.5499163,2.1320828,5.0892594)"
       gradientUnits="userSpaceOnUse"
       xlink:href="#linearGradient4338"
       id="linearGradient8636"
       y2="11.817068"
       x2="22.104254"
       y1="43.199211"
       x1="22.104254" />
    <linearGradient
       gradientTransform="matrix(1.0376241,0,0,1.5499163,2.1320828,5.0892594)"
       gradientUnits="userSpaceOnUse"
       xlink:href="#linearGradient4338"
       id="linearGradient8634"
       y2="11.817068"
       x2="22.104254"
       y1="43.199211"
       x1="22.104254" />
    <linearGradient
       gradientTransform="matrix(1.0376241,0,0,1.5499163,2.1320828,5.0892594)"
       gradientUnits="userSpaceOnUse"
       xlink:href="#linearGradient4338"
       id="linearGradient8632"
       y2="11.817068"
       x2="22.104254"
       y1="43.199211"
       x1="22.104254" />
    <linearGradient
       gradientTransform="matrix(1.0582642,0,0,1.5499163,1.8960099,5.498536)"
       gradientUnits="userSpaceOnUse"
       xlink:href="#linearGradient4338"
       id="linearGradient8630"
       y2="11.817068"
       x2="22.104254"
       y1="43.199211"
       x1="22.104254" />
    <linearGradient
       gradientTransform="matrix(1.0582642,0,0,1.5499163,1.8960099,5.498536)"
       gradientUnits="userSpaceOnUse"
       xlink:href="#linearGradient4338"
       id="linearGradient8628"
       y2="11.817068"
       x2="22.104254"
       y1="43.199211"
       x1="22.104254" />
    <linearGradient
       gradientTransform="matrix(1.0582642,0,0,1.5499163,1.8960099,5.498536)"
       gradientUnits="userSpaceOnUse"
       xlink:href="#linearGradient4338"
       id="linearGradient8626"
       y2="11.817068"
       x2="22.104254"
       y1="43.199211"
       x1="22.104254" />
    <linearGradient
       gradientTransform="matrix(1.0582642,0,0,1.5499163,1.8960099,5.498536)"
       gradientUnits="userSpaceOnUse"
       xlink:href="#linearGradient4338"
       id="linearGradient8624"
       y2="11.817068"
       x2="22.104254"
       y1="43.199211"
       x1="22.104254" />
    <linearGradient
       gradientTransform="matrix(1.0582642,0,0,1.5499163,1.8960099,5.498536)"
       gradientUnits="userSpaceOnUse"
       xlink:href="#linearGradient4338"
       id="linearGradient8622"
       y2="11.817068"
       x2="22.104254"
       y1="43.199211"
       x1="22.104254" />
    <linearGradient
       gradientTransform="matrix(1.0582642,0,0,1.5499163,1.8960099,7.1356153)"
       gradientUnits="userSpaceOnUse"
       xlink:href="#linearGradient4338"
       id="linearGradient8620"
       y2="11.817068"
       x2="22.104254"
       y1="43.199211"
       x1="22.104254" />
    <linearGradient
       gradientTransform="matrix(1.0582642,0,0,1.5499163,1.8960099,7.1356153)"
       gradientUnits="userSpaceOnUse"
       xlink:href="#linearGradient4338"
       id="linearGradient8618"
       y2="11.817068"
       x2="22.104254"
       y1="43.199211"
       x1="22.104254" />
    <linearGradient
       gradientTransform="matrix(1.0582642,0,0,1.5499163,1.8960099,7.1356153)"
       gradientUnits="userSpaceOnUse"
       xlink:href="#linearGradient4338"
       id="linearGradient8616"
       y2="11.817068"
       x2="22.104254"
       y1="43.199211"
       x1="22.104254" />
    <linearGradient
       gradientTransform="matrix(1.0582642,0,0,1.5499163,1.8960099,7.1356153)"
       gradientUnits="userSpaceOnUse"
       xlink:href="#linearGradient4338"
       id="linearGradient8614"
       y2="11.817068"
       x2="22.104254"
       y1="43.199211"
       x1="22.104254" />
    <linearGradient
       gradientTransform="matrix(1.0582642,0,0,1.5499163,1.8960099,7.1356153)"
       gradientUnits="userSpaceOnUse"
       xlink:href="#linearGradient4338"
       id="linearGradient8612"
       y2="11.817068"
       x2="22.104254"
       y1="43.199211"
       x1="22.104254" />
    <linearGradient
       gradientTransform="matrix(1.0334293,0,0,1.5499163,2.1800615,6.3170757)"
       gradientUnits="userSpaceOnUse"
       xlink:href="#linearGradient4338"
       id="linearGradient8610"
       y2="11.817068"
       x2="22.104254"
       y1="43.199211"
       x1="22.104254" />
    <linearGradient
       gradientTransform="matrix(1.0334293,0,0,1.5499163,2.1800615,6.3170757)"
       gradientUnits="userSpaceOnUse"
       xlink:href="#linearGradient4338"
       id="linearGradient8608"
       y2="11.817068"
       x2="22.104254"
       y1="43.199211"
       x1="22.104254" />
    <linearGradient
       gradientTransform="matrix(1.0334293,0,0,1.5499163,2.1800615,6.3170757)"
       gradientUnits="userSpaceOnUse"
       xlink:href="#linearGradient4338"
       id="linearGradient8606"
       y2="11.817068"
       x2="22.104254"
       y1="43.199211"
       x1="22.104254" />
    <linearGradient
       gradientTransform="matrix(1.0334293,0,0,1.5499163,2.1800615,6.3170757)"
       gradientUnits="userSpaceOnUse"
       xlink:href="#linearGradient4338"
       id="linearGradient8604"
       y2="11.817068"
       x2="22.104254"
       y1="43.199211"
       x1="22.104254" />
    <linearGradient
       gradientTransform="matrix(1.0334293,0,0,1.5499163,2.1800615,6.3170757)"
       gradientUnits="userSpaceOnUse"
       xlink:href="#linearGradient4338"
       id="linearGradient8602"
       y2="11.817068"
       x2="22.104254"
       y1="43.199211"
       x1="22.104254" />
    <linearGradient
       gradientTransform="matrix(1.0334293,0,0,1.5499163,2.1800615,6.3170757)"
       gradientUnits="userSpaceOnUse"
       xlink:href="#linearGradient4338"
       id="linearGradient8600"
       y2="11.817068"
       x2="22.104254"
       y1="43.199211"
       x1="22.104254" />
    <linearGradient
       gradientTransform="matrix(1.0871735,0,0,1.5499184,1.565357,6.7263169)"
       gradientUnits="userSpaceOnUse"
       xlink:href="#linearGradient4338"
       id="linearGradient8598"
       y2="11.817068"
       x2="22.104254"
       y1="43.199211"
       x1="22.104254" />
    <linearGradient
       gradientTransform="matrix(1.0871735,0,0,1.5499184,1.565357,6.7263169)"
       gradientUnits="userSpaceOnUse"
       xlink:href="#linearGradient4338"
       id="linearGradient8596"
       y2="11.817068"
       x2="22.104254"
       y1="43.199211"
       x1="22.104254" />
    <linearGradient
       gradientTransform="matrix(1.0871735,0,0,1.5499184,1.565357,6.7263169)"
       gradientUnits="userSpaceOnUse"
       xlink:href="#linearGradient4338"
       id="linearGradient8594"
       y2="11.817068"
       x2="22.104254"
       y1="43.199211"
       x1="22.104254" />
    <linearGradient
       gradientTransform="matrix(1.0871735,0,0,1.5499184,1.565357,6.7263169)"
       gradientUnits="userSpaceOnUse"
       xlink:href="#linearGradient4338"
       id="linearGradient8592"
       y2="11.817068"
       x2="22.104254"
       y1="43.199211"
       x1="22.104254" />
    <linearGradient
       gradientTransform="matrix(1.0871735,0,0,1.5499184,1.565357,6.7263169)"
       gradientUnits="userSpaceOnUse"
       xlink:href="#linearGradient4338"
       id="linearGradient8590"
       y2="11.817068"
       x2="22.104254"
       y1="43.199211"
       x1="22.104254" />
    <linearGradient
       gradientTransform="matrix(1.0871735,0,0,1.5499184,1.565357,6.7263169)"
       gradientUnits="userSpaceOnUse"
       xlink:href="#linearGradient4338"
       id="linearGradient8587"
       y2="11.817068"
       x2="22.104254"
       y1="43.199211"
       x1="22.104254" />
    <linearGradient
       gradientTransform="matrix(1.0871735,0,0,1.5499184,1.565357,6.7263169)"
       gradientUnits="userSpaceOnUse"
       xlink:href="#linearGradient4338"
       id="linearGradient8585"
       y2="11.817068"
       x2="22.104254"
       y1="43.199211"
       x1="22.104254" />
    <linearGradient
       gradientTransform="matrix(1.0701359,0,0,1.5499163,1.7602266,7.5448923)"
       gradientUnits="userSpaceOnUse"
       xlink:href="#linearGradient4338"
       id="linearGradient8583"
       y2="11.817068"
       x2="22.104254"
       y1="43.199211"
       x1="22.104254" />
    <linearGradient
       id="linearGradient4338">
      <stop
         offset="0"
         style="stop-color:#8e8e8e;stop-opacity:1"
         id="stop4340" />
      <stop
         offset="1"
         style="stop-color:#b5b5b5;stop-opacity:1"
         id="stop4342" />
    </linearGradient>
    <linearGradient
       gradientTransform="matrix(1.0701359,0,0,1.5499163,1.7602266,7.5448923)"
       gradientUnits="userSpaceOnUse"
       xlink:href="#linearGradient4338"
       id="linearGradient8581"
       y2="11.817068"
       x2="22.104254"
       y1="43.199211"
       x1="22.104254" />
    <linearGradient
       id="linearGradient3211">
      <stop
         offset="0"
         style="stop-color:#ffffff;stop-opacity:1"
         id="stop3213" />
      <stop
         offset="1"
         style="stop-color:#ffffff;stop-opacity:0"
         id="stop3215" />
    </linearGradient>
    <linearGradient
       gradientTransform="matrix(1,0,0,0.9777778,-3e-7,-0.988888)"
       gradientUnits="userSpaceOnUse"
       xlink:href="#linearGradient3211"
       id="linearGradient3159"
       y2="46.01725"
       x2="24"
       y1="1.9999999"
       x1="24" />
    <linearGradient
       gradientUnits="userSpaceOnUse"
       xlink:href="#linearGradient3993"
       id="linearGradient4079"
       y2="55.099998"
       x2="20.196226"
       y1="-14.171699"
       x1="10.943398" />
    <linearGradient
       id="linearGradient3993">
      <stop
         offset="0"
         style="stop-color:#a3c0d0;stop-opacity:1"
         id="stop3995" />
      <stop
         offset="1"
         style="stop-color:#427da1;stop-opacity:1"
         id="stop4001" />
    </linearGradient>
  </defs>
  <g
     id="layer1">
    <g
       style="display:inline"
       id="g3800"
       transform="matrix(0.9561265,0,0,0.9561265,1.05296,1.1059287)">
      <rect
         style="opacity:0.40206185;fill:url(#linearGradient6506);fill-opacity:1;fill-rule:nonzero;stroke:none;stroke-width:1;marker:none;visibility:visible;display:inline;overflow:visible"
         id="rect3802"
         y="44.266129"
         x="7"
         height="3.7338707"
         width="34" />
      <path
         style="opacity:0.40206185;fill:url(#radialGradient6508);fill-opacity:1;fill-rule:nonzero;stroke:none;stroke-width:1;marker:none;visibility:visible;display:inline;overflow:visible"
         id="path3804"
         d="m 7,44.266291 c 0,0 0,3.733665 0,3.733665 -1.2409448,0.007 -3,-0.836525 -3,-1.867073 0,-1.030547 1.3848007,-1.866591 3,-1.866592 z" />
      <path
         style="opacity:0.40206185;fill:url(#radialGradient6510);fill-opacity:1;fill-rule:nonzero;stroke:none;stroke-width:1;marker:none;visibility:visible;display:inline;overflow:visible"
         id="path3806"
         d="m 41,44.266291 c 0,0 0,3.733665 0,3.733665 1.240944,0.007 3,-0.836525 3,-1.867073 0,-1.030547 -1.384801,-1.866591 -3,-1.866592 z" />
    </g>
    <path
       style="fill:url(#linearGradient6544);fill-opacity:1;stroke:url(#linearGradient6546);stroke-width:0.9999218;stroke-linecap:butt;stroke-linejoin:round;stroke-miterlimit:4;stroke-opacity:1;stroke-dasharray:none;stroke-dashoffset:0;display:inline"
       id="path3808"
       d="m 6.49996,0.5 35.00008,0 0,45.000042 -35.00008,0 0,-45.000042 z" />
    <path
       style="font-size:15.32311249px;font-style:normal;font-weight:normal;fill:url(#linearGradient3762);fill-opacity:1;stroke:none;display:inline;font-family:Bitstream Vera Sans"
       id="text4036"
       d="m 19.298,11.438237 c -0.707433,1.789969 -1.414866,3.579938 -2.1223,5.369907 1.417449,0 2.834897,0 4.252345,0 C 20.71803,15.018175 20.008015,13.228206 19.298,11.438237 z M 18.414999,9.9999983 c 0.591249,0 1.182498,0 1.773746,0 1.469086,3.5968017 2.938171,7.1936037 4.407257,10.7904067 -0.542193,0 -1.084386,0 -1.626578,0 -0.351135,-0.92269 -0.70227,-1.845379 -1.053405,-2.768069 -1.7376,0 -3.4752,0 -5.212799,0 -0.351136,0.92269 -0.702271,1.845379 -1.053406,2.768069 -0.549939,0 -1.099878,0 -1.649817,0 1.471668,-3.596803 2.943335,-7.193605 4.415002,-10.7904067 z m 11.742356,6.7214177 c -0.908531,0.03519 -1.969295,-0.02527 -2.684826,0.585417 -0.737127,0.785942 -0.371972,2.285318 0.800158,2.501304 1.14437,0.302445 2.480955,-0.201851 2.961638,-1.244172 0.265046,-0.538479 0.440809,-1.325416 0.29502,-1.842549 -0.457329,0 -0.914659,0 -1.37199,0 z m 2.84264,-0.549276 c 0,1.539421 0,3.078843 0,4.618265 -0.475064,0 -0.950128,0 -1.425194,0 0,-0.409549 0,-0.819098 0,-1.228647 -0.588372,0.990543 -1.816175,1.488111 -2.997552,1.43824 -1.255755,0.06807 -2.592409,-0.671501 -2.828209,-1.879812 -0.299982,-1.16469 0.177545,-2.587003 1.451424,-3.049226 1.381221,-0.559021 2.912301,-0.347614 4.374337,-0.390279 0.0996,-0.863506 -0.509927,-1.722978 -1.425195,-1.926079 -1.288976,-0.299903 -2.684715,-0.04413 -3.841822,0.538432 -1e-6,-0.40955 -1e-6,-0.819098 -1e-6,-1.228648 1.600686,-0.563934 3.495746,-0.872192 5.088777,-0.133305 1.262247,0.612957 1.617925,2.020452 1.603437,3.241059 l -2e-6,0 z" />
    <path
       style="opacity:0.7;fill:url(#linearGradient8668);fill-opacity:1;stroke:none;display:inline"
       id="path8479"
       d="m 14,23 2.517899,0 0,1 L 14,24 14,23 z" />
    <path
       style="opacity:0.7;fill:url(#linearGradient8666);fill-opacity:1;stroke:none;display:inline"
       id="path8477"
       d="m 16.860877,23 2.375751,0 0,1 -2.375751,0 0,-1 z" />
    <path
       style="opacity:0.7;fill:url(#linearGradient8664);fill-opacity:1;stroke:none;display:inline"
       id="path8475"
       d="m 19.579606,23 2.091433,0 0,1 -2.091433,0 0,-1 z" />
    <path
       style="opacity:0.7;fill:url(#linearGradient8662);fill-opacity:1;stroke:none;display:inline"
       id="path8473"
       d="m 22.014018,23 0.918647,0 0,1 -0.918647,0 0,-1 z" />
    <path
       style="opacity:0.7;fill:url(#linearGradient8660);fill-opacity:1;stroke:none;display:inline"
       id="path8471"
       d="m 23.275655,23 2.055887,0 0,1 -2.055887,0 0,-1 z" />
    <path
       style="opacity:0.7;fill:url(#linearGradient8658);fill-opacity:1;stroke:none;display:inline"
       id="path8469"
       d="M 25.674531,23 31,23 l 0,1 -5.325469,0 0,-1 z" />
    <path
       style="opacity:0.7;fill:url(#linearGradient8656);fill-opacity:1;stroke:none;display:inline"
       id="path8461"
       d="m 14,29 2.517899,0 0,1 L 14,30 14,29 z" />
    <path
       style="opacity:0.7;fill:url(#linearGradient8654);fill-opacity:1;stroke:none;display:inline"
       id="path8459"
       d="m 16.860877,29 2.375751,0 0,1 -2.375751,0 0,-1 z" />
    <path
       style="opacity:0.7;fill:url(#linearGradient8652);fill-opacity:1;stroke:none;display:inline"
       id="path8457"
       d="m 19.579606,29 2.091433,0 0,1 -2.091433,0 0,-1 z" />
    <path
       style="opacity:0.7;fill:url(#linearGradient8650);fill-opacity:1;stroke:none;display:inline"
       id="path8455"
       d="m 22.014018,29 0.918647,0 0,1 -0.918647,0 0,-1 z" />
    <path
       style="opacity:0.7;fill:url(#linearGradient8648);fill-opacity:1;stroke:none;display:inline"
       id="path8453"
       d="m 23.275655,29 2.055887,0 0,1 -2.055887,0 0,-1 z" />
    <path
       style="opacity:0.7;fill:url(#linearGradient8646);fill-opacity:1;stroke:none;display:inline"
       id="path8451"
       d="M 25.674531,29 31,29 l 0,1 -5.325469,0 0,-1 z" />
    <path
       style="opacity:0.7;fill:url(#linearGradient8644);fill-opacity:1;stroke:none;display:inline"
       id="path8443"
       d="m 14,25 3.794446,0 0,1 L 14,26 14,25 z" />
    <path
       style="opacity:0.7;fill:url(#linearGradient8642);fill-opacity:1;stroke:none;display:inline"
       id="path8441"
       d="m 18.140771,25 1.825529,0 0,1 -1.825529,0 0,-1 z" />
    <path
       style="opacity:0.7;fill:url(#linearGradient8640);fill-opacity:1;stroke:none;display:inline"
       id="path8439"
       d="m 20.312625,25 0.85834,0 0,1 -0.85834,0 0,-1 z" />
    <path
       style="opacity:0.7;fill:url(#linearGradient8638);fill-opacity:1;stroke:none;display:inline"
       id="path8437"
       d="m 21.51729,25 1.652819,0 0,1 -1.652819,0 0,-1 z" />
    <path
       style="opacity:0.7;fill:url(#linearGradient8636);fill-opacity:1;stroke:none;display:inline"
       id="path8435"
       d="m 23.516423,25 1.652819,0 0,1 -1.652819,0 0,-1 z" />
    <path
       style="opacity:0.7;fill:url(#linearGradient8634);fill-opacity:1;stroke:none;display:inline"
       id="path8433"
       d="m 25.515567,25 2.654546,0 0,1 -2.654546,0 0,-1 z" />
    <path
       style="opacity:0.7;fill:url(#linearGradient8632);fill-opacity:1;stroke:none;display:inline"
       id="path8431"
       d="M 28.516428,25 32,25 l 0,1 -3.483572,0 0,-1 z" />
    <path
       style="opacity:0.7;fill:url(#linearGradient8630);fill-opacity:1;stroke:none;display:inline"
       id="path8425"
       d="m 14,27 4.433598,0 0,1 L 14,28 14,27 z" />
    <path
       style="opacity:0.7;fill:url(#linearGradient8628);fill-opacity:1;stroke:none;display:inline"
       id="path8423"
       d="m 18.781149,27 4.750656,0 0,1 -4.750656,0 0,-1 z" />
    <path
       style="opacity:0.7;fill:url(#linearGradient8626);fill-opacity:1;stroke:none;display:inline"
       id="path8421"
       d="m 23.879356,27 1.897077,0 0,1 -1.897077,0 0,-1 z" />
    <path
       style="opacity:0.7;fill:url(#linearGradient8624);fill-opacity:1;stroke:none;display:inline"
       id="path8419"
       d="m 26.123984,27 4.468823,0 0,1 -4.468823,0 0,-1 z" />
    <path
       style="opacity:0.7;fill:url(#linearGradient8622);fill-opacity:1;stroke:none;display:inline"
       id="path8415"
       d="M 30.940358,27 34,27 l 0,1 -3.059642,0 0,-1 z" />
    <path
       style="opacity:0.7;fill:url(#linearGradient8620);fill-opacity:1;stroke:none;display:inline"
       id="path8409"
       d="m 14,35 4.433598,0 0,1 L 14,36 14,35 z" />
    <path
       style="opacity:0.7;fill:url(#linearGradient8618);fill-opacity:1;stroke:none;display:inline"
       id="path8407"
       d="m 18.781149,35 4.750656,0 0,1 -4.750656,0 0,-1 z" />
    <path
       style="opacity:0.7;fill:url(#linearGradient8616);fill-opacity:1;stroke:none;display:inline"
       id="path8405"
       d="m 23.879356,35 1.897077,0 0,1 -1.897077,0 0,-1 z" />
    <path
       style="opacity:0.7;fill:url(#linearGradient8614);fill-opacity:1;stroke:none;display:inline"
       id="path8403"
       d="m 26.123984,35 4.468823,0 0,1 -4.468823,0 0,-1 z" />
    <path
       style="opacity:0.7;fill:url(#linearGradient8612);fill-opacity:1;stroke:none;display:inline"
       id="path8399"
       d="M 30.940358,35 34,35 l 0,1 -3.059642,0 0,-1 z" />
    <path
       style="opacity:0.7;fill:url(#linearGradient8610);fill-opacity:1;stroke:none;display:inline"
       id="path8393"
       d="m 14,31 3.125454,0 0,1 L 14,32 14,31 z" />
    <path
       style="opacity:0.7;fill:url(#linearGradient8608);fill-opacity:1;stroke:none;display:inline"
       id="path8391"
       d="m 17.457478,31 5.189615,0 0,1 -5.189615,0 0,-1 z" />
    <path
       style="opacity:0.7;fill:url(#linearGradient8606);fill-opacity:1;stroke:none;display:inline"
       id="path8389"
       d="m 22.979118,31 2.5062,0 0,1 -2.5062,0 0,-1 z" />
    <path
       style="opacity:0.7;fill:url(#linearGradient8604);fill-opacity:1;stroke:none;display:inline"
       id="path8387"
       d="m 28.483553,31 1.990162,0 0,1 -1.990162,0 0,-1 z" />
    <path
       style="opacity:0.7;fill:url(#linearGradient8602);fill-opacity:1;stroke:none;display:inline"
       id="path8385"
       d="M 30.805739,31 34,31 l 0,1 -3.194261,0 0,-1 z" />
    <path
       style="opacity:0.7;fill:url(#linearGradient8600);fill-opacity:1;stroke:none;display:inline"
       id="path8381"
       d="m 25.817342,31 2.334197,0 0,1 -2.334197,0 0,-1 z" />
    <path
       style="opacity:0.7;fill:url(#linearGradient8598);fill-opacity:1;stroke:none;display:inline"
       id="path8379"
       d="m 14,33 4.120412,0 0,1 L 14,34 14,33 z" />
    <path
       style="opacity:0.7;fill:url(#linearGradient8596);fill-opacity:1;stroke:none;display:inline"
       id="path8377"
       d="m 18.460648,33 1.297443,0 0,1 -1.297443,0 0,-1 z" />
    <path
       style="opacity:0.7;fill:url(#linearGradient8594);fill-opacity:1;stroke:none;display:inline"
       id="path8375"
       d="m 20.098328,33 2.962276,0 0,1 -2.962276,0 0,-1 z" />
    <path
       style="opacity:0.7;fill:url(#linearGradient8592);fill-opacity:1;stroke:none;display:inline"
       id="path8373"
       d="m 23.400841,33 2.021287,0 0,1 -2.021287,0 0,-1 z" />
    <path
       style="opacity:0.7;fill:url(#linearGradient8590);fill-opacity:1;stroke:none;display:inline"
       id="path8371"
       d="m 25.762365,33 2.021276,0 0,1 -2.021276,0 0,-1 z" />
    <path
       style="opacity:0.7;fill:url(#linearGradient8587);fill-opacity:1;stroke:none;display:inline"
       id="path8369"
       d="m 28.123888,33 2.926078,0 0,1 -2.926078,0 0,-1 z" />
    <path
       style="opacity:0.7;fill:url(#linearGradient8585);fill-opacity:1;stroke:none;display:inline"
       id="path8367"
       d="M 31.390192,33 32,33 l 0,1 -0.609808,0 0,-1 z" />
    <path
       style="opacity:0.7;fill:url(#linearGradient8583);fill-opacity:1;stroke:none;display:inline"
       id="path8361"
       d="m 14,37 1.633356,0 0,1 L 14,38 14,37 z" />
    <path
       style="opacity:0.7;fill:url(#linearGradient8581);fill-opacity:1;stroke:none;display:inline"
       id="path8359"
       d="M 16.056056,37 22,37 l 0,1 -5.943944,0 0,-1 z" />
    <path
       style="opacity:0.6;fill:none;stroke:url(#linearGradient4079);stroke-width:1px;stroke-linecap:butt;stroke-linejoin:miter;stroke-opacity:1"
       id="path3821"
       d="m 7,40.5 34,0 M 12.660905,1.2358095 12.5,45 m 24,-44 0,44 M 7,7.5 l 34,0" />
    <path
       style="opacity:0.6;fill:none;stroke:url(#linearGradient3159);stroke-width:0.9999218;stroke-linecap:butt;stroke-linejoin:round;stroke-miterlimit:4;stroke-opacity:1;stroke-dasharray:none;stroke-dashoffset:0;display:inline"
       id="path2435"
       d="m 40.500039,2.236593 c 0,10.949036 0,30.314409 0,41.263446 -11.000026,0 -22.000052,0 -33.0000781,0 0,-14.014841 0,-28.029681 0,-42.044521 7.5619931,0 25.3043341,0 32.8663281,0" />
  </g>
</svg>
