<?xml version="1.0" encoding="UTF-8" standalone="no"?>
<svg
   height="16"
   width="16"
   id="svg2"
   version="1.1"
   sodipodi:docname="face-tired-symbolic.svg"
   xmlns:inkscape="http://www.inkscape.org/namespaces/inkscape"
   xmlns:sodipodi="http://sodipodi.sourceforge.net/DTD/sodipodi-0.dtd"
   xmlns="http://www.w3.org/2000/svg"
   xmlns:svg="http://www.w3.org/2000/svg"
   xmlns:rdf="http://www.w3.org/1999/02/22-rdf-syntax-ns#"
   xmlns:cc="http://creativecommons.org/ns#"
   xmlns:dc="http://purl.org/dc/elements/1.1/">
  <sodipodi:namedview
     id="namedview1"
     pagecolor="#ffffff"
     bordercolor="#000000"
     borderopacity="0.25"
     inkscape:showpageshadow="2"
     inkscape:pageopacity="0.0"
     inkscape:pagecheckerboard="0"
     inkscape:deskcolor="#d1d1d1" />
  <metadata
     id="metadata12">
    <rdf:RDF>
      <cc:Work
         rdf:about="">
        <dc:format>image/svg+xml</dc:format>
        <dc:type
           rdf:resource="http://purl.org/dc/dcmitype/StillImage" />
      </cc:Work>
    </rdf:RDF>
  </metadata>
  <defs
     id="defs10" />
  <path
     d="M 8,0 C 3.588,0 0,3.588 0,8 c 0,4.412 3.588,8 8,8 4.412,0 8,-3.588 8,-8 C 16,7.309 15.904,6.64 15.738,6 H 14.707 A 6.992,6.992 0 0 1 8,15 C 4.128,15 1,11.872 1,8 A 6.992,6.992 0 0 1 11,1.68 V 0.588 A 7.952,7.952 0 0 0 8,0 Z m 4,1 v 1 h 1.7 L 12,4 v 1 h 3 V 4 H 13.3 L 15,2 V 1 Z M 6.523,6.934 a 0.47,0.47 0 0 0 -0.46,0.328 c 0,0 -0.191,0.675 -1.083,0.675 C 4.535,7.937 4.336,7.777 4.193,7.611 4.051,7.446 4.013,7.305 4.013,7.305 3.837,6.661 2.872,6.927 3.049,7.57 c 0,0 0.1,0.359 0.389,0.694 C 3.726,8.599 4.251,8.938 4.98,8.938 6.44,8.938 7,7.613 7,7.613 7.147,7.223 6.835,6.939 6.523,6.933 Z m 6,0 a 0.47,0.47 0 0 0 -0.46,0.328 c 0,0 -0.191,0.675 -1.083,0.675 -0.445,0 -0.644,-0.16 -0.787,-0.326 C 10.051,7.446 10.013,7.305 10.013,7.305 9.837,6.661 8.872,6.927 9.049,7.57 c 0,0 0.1,0.359 0.389,0.694 0.288,0.335 0.813,0.674 1.542,0.674 1.46,0 2.02,-1.325 2.02,-1.325 0.147,-0.39 -0.165,-0.674 -0.477,-0.68 z M 5.5,11 a 0.5,0.5 0 1 0 0,1 h 5 a 0.5,0.5 0 1 0 0,-1 z"
     fill="#666666"
     overflow="visible"
     style="color:#bebebe;marker:none"
     id="path6" />
</svg>
