<?xml version="1.0" encoding="UTF-8" standalone="no"?>
<svg
   height="16"
   width="16"
   id="svg2"
   version="1.1"
   sodipodi:docname="face-yawn-symbolic.svg"
   xmlns:inkscape="http://www.inkscape.org/namespaces/inkscape"
   xmlns:sodipodi="http://sodipodi.sourceforge.net/DTD/sodipodi-0.dtd"
   xmlns="http://www.w3.org/2000/svg"
   xmlns:svg="http://www.w3.org/2000/svg"
   xmlns:rdf="http://www.w3.org/1999/02/22-rdf-syntax-ns#"
   xmlns:cc="http://creativecommons.org/ns#"
   xmlns:dc="http://purl.org/dc/elements/1.1/">
  <sodipodi:namedview
     id="namedview1"
     pagecolor="#ffffff"
     bordercolor="#000000"
     borderopacity="0.25"
     inkscape:showpageshadow="2"
     inkscape:pageopacity="0.0"
     inkscape:pagecheckerboard="0"
     inkscape:deskcolor="#d1d1d1" />
  <metadata
     id="metadata12">
    <rdf:RDF>
      <cc:Work
         rdf:about="">
        <dc:format>image/svg+xml</dc:format>
        <dc:type
           rdf:resource="http://purl.org/dc/dcmitype/StillImage" />
      </cc:Work>
    </rdf:RDF>
  </metadata>
  <defs
     id="defs10" />
  <path
     d="M 8,0 C 3.588,0 0,3.588 0,8 c 0,4.412 3.588,8 8,8 4.412,0 8,-3.588 8,-8 C 16,3.588 12.412,0 8,0 Z m 0,1 c 3.872,0 7,3.128 7,7 0,3.872 -3.128,7 -7,7 C 4.128,15 1,11.872 1,8 1,4.128 4.128,1 8,1 Z M 4.434,3.059 4.057,3.984 5.385,4.525 3.742,5.51 4.258,6.37 7.615,4.354 Z m 7.132,0 -3.181,1.295 3.357,2.015 0.516,-0.86 -1.643,-0.984 1.328,-0.54 z M 8,5.94 c -2.212,0 -4,2.015 -4,4.5 0,1.933 1.79,3.5 4,3.5 2.21,0 4,-1.567 4,-3.5 0,-2.485 -1.788,-4.5 -4,-4.5 z m -2.49,5.059 h 4.98 c 0,0.028 0.01,0.053 0.01,0.082 0,1.026 -1.12,1.86 -2.5,1.86 -1.38,0 -2.5,-0.834 -2.5,-1.86 0,-0.029 0.01,-0.055 0.01,-0.082 z"
     fill="#666666"
     overflow="visible"
     style="color:#bebebe;marker:none"
     id="path6" />
</svg>
