<?xml version="1.0" encoding="UTF-8" standalone="no"?>
<svg
   xmlns:dc="http://purl.org/dc/elements/1.1/"
   xmlns:cc="http://creativecommons.org/ns#"
   xmlns:rdf="http://www.w3.org/1999/02/22-rdf-syntax-ns#"
   xmlns:svg="http://www.w3.org/2000/svg"
   xmlns="http://www.w3.org/2000/svg"
   version="1.1"
   id="svg2"
   width="16"
   height="16">
  <metadata
     id="metadata12">
    <rdf:RDF>
      <cc:Work
         rdf:about="">
        <dc:format>image/svg+xml</dc:format>
        <dc:type
           rdf:resource="http://purl.org/dc/dcmitype/StillImage" />
      </cc:Work>
    </rdf:RDF>
  </metadata>
  <defs
     id="defs10" />
  <g
     id="g4"
     transform="translate(-1128 -114)"
     color="#bebebe">
    <path
       id="path6"
       style="marker:none"
       overflow="visible"
       fill="#666"
       d="M1136 114c-4.412 0-8 3.588-8 8s3.588 8 8 8 8-3.588 8-8-3.588-8-8-8zm0 1c3.872 0 7 3.128 7 7s-3.128 7-7 7-7-3.128-7-7 3.128-7 7-7zm-2.022 3.496c-.406.031-.729.919-.728 2.002 0 2.67 1.5 2.67 1.5 0 0-1.128-.349-2.034-.771-2.002zm4 0c-.406.031-.729.919-.728 2.002 0 2.67 1.5 2.67 1.5 0 0-1.128-.349-2.034-.771-2.002zM1140 124c-2.608 0-4.317.516-5.383 1.055a5.42 5.42 0 0 0-1.148.757 2.794 2.794 0 0 0-.377.399l.816.578s.042-.066.223-.227c.18-.16.481-.386.937-.617.913-.46 2.455-.945 4.932-.945z" />
  </g>
</svg>
