<?xml version="1.0" encoding="UTF-8" standalone="no"?>
<svg
   xmlns:dc="http://purl.org/dc/elements/1.1/"
   xmlns:cc="http://creativecommons.org/ns#"
   xmlns:rdf="http://www.w3.org/1999/02/22-rdf-syntax-ns#"
   xmlns:svg="http://www.w3.org/2000/svg"
   xmlns="http://www.w3.org/2000/svg"
   height="16"
   width="16"
   id="svg2"
   version="1.1">
  <metadata
     id="metadata12">
    <rdf:RDF>
      <cc:Work
         rdf:about="">
        <dc:format>image/svg+xml</dc:format>
        <dc:type
           rdf:resource="http://purl.org/dc/dcmitype/StillImage" />
      </cc:Work>
    </rdf:RDF>
  </metadata>
  <defs
     id="defs10" />
  <g
     color="#bebebe"
     transform="translate(-1068 -34)"
     id="g4">
    <path
       d="M1076 34c-4.412 0-8 3.588-8 8s3.588 8 8 8 8-3.588 8-8-3.588-8-8-8zm0 1c3.872 0 7 3.128 7 7s-3.128 7-7 7-7-3.128-7-7 3.128-7 7-7zm-3.992 3.475l-.516.859 1.783 1.07-1.783 1.07.516.86 3.215-1.93zm7.984 0l-3.215 1.93 3.215 1.929.516-.86-1.783-1.07 1.783-1.07zM1076 44.004a5 5 0 0 0-3.533 1.467l.707.707a4 4 0 0 1 2.826-1.174 4 4 0 0 1 2.826 1.174l.707-.707a4.999 4.999 0 0 0-3.533-1.467z"
       fill="#666"
       overflow="visible"
       style="marker:none"
       id="path6" />
  </g>
</svg>
