<?xml version="1.0" encoding="UTF-8" standalone="no"?>
<svg
   xmlns:dc="http://purl.org/dc/elements/1.1/"
   xmlns:cc="http://creativecommons.org/ns#"
   xmlns:rdf="http://www.w3.org/1999/02/22-rdf-syntax-ns#"
   xmlns:svg="http://www.w3.org/2000/svg"
   xmlns="http://www.w3.org/2000/svg"
   version="1.1"
   id="svg2"
   width="16"
   height="16">
  <metadata
     id="metadata12">
    <rdf:RDF>
      <cc:Work
         rdf:about="">
        <dc:format>image/svg+xml</dc:format>
        <dc:type
           rdf:resource="http://purl.org/dc/dcmitype/StillImage" />
      </cc:Work>
    </rdf:RDF>
  </metadata>
  <defs
     id="defs10" />
  <g
     id="g4"
     transform="translate(-1108 -34)"
     color="#bebebe">
    <path
       id="path6"
       style="marker:none"
       overflow="visible"
       fill="#666"
       d="M1116 34c-4.412 0-8 3.588-8 8s3.588 8 8 8 8-3.588 8-8-3.588-8-8-8zm0 1c3.872 0 7 3.128 7 7s-3.128 7-7 7-7-3.128-7-7 3.128-7 7-7zm-2.022 3.496c-.406.031-.729.919-.728 2.002 0 2.67 1.5 2.67 1.5 0 0-1.128-.349-2.034-.771-2.002zm4 0c-.406.031-.729.919-.728 2.002 0 2.67 1.5 2.67 1.5 0 0-1.128-.349-2.034-.771-2.002zm-3.916 5.004c-.754.1-1.355.531-1.843.938-.892.455.135 1.697.75.906.42-.35.87-.606 1.25-.657.38-.05.753.035 1.344.626.775.775 1.65 1.044 2.406.937.755-.106 1.343-.521 1.812-.906.893-.456-.135-1.698-.75-.907-.402.33-.83.57-1.218.626-.39.054-.79-.009-1.375-.594-.772-.772-1.62-1.07-2.375-.969z" />
  </g>
</svg>
