<?xml version="1.0" encoding="UTF-8" standalone="no"?>
<svg
   xmlns:dc="http://purl.org/dc/elements/1.1/"
   xmlns:cc="http://creativecommons.org/ns#"
   xmlns:rdf="http://www.w3.org/1999/02/22-rdf-syntax-ns#"
   xmlns:svg="http://www.w3.org/2000/svg"
   xmlns="http://www.w3.org/2000/svg"
   height="16"
   width="16"
   id="svg2"
   version="1.1">
  <metadata
     id="metadata12">
    <rdf:RDF>
      <cc:Work
         rdf:about="">
        <dc:format>image/svg+xml</dc:format>
        <dc:type
           rdf:resource="http://purl.org/dc/dcmitype/StillImage" />
      </cc:Work>
    </rdf:RDF>
  </metadata>
  <defs
     id="defs10" />
  <g
     color="#bebebe"
     transform="translate(-1048 -114)"
     id="g4">
    <path
       d="M1056 114c-4.412 0-8 3.588-8 8s3.588 8 8 8 8-3.588 8-8-3.588-8-8-8zm0 1c3.872 0 7 3.128 7 7s-3.128 7-7 7-7-3.128-7-7 3.128-7 7-7zm-3.273 2.602l-.516.859 1.783 1.07-1.783 1.07.516.86 3.214-1.93zm6.984 0l-3.215 1.93 3.215 1.929.516-.86-1.784-1.07 1.784-1.07zm-8.711 4.43c-.01.143-.031.312-.031.458 0 3.077 2.239 5.573 5 5.573s5-2.496 5-5.573c0-.146-.022-.315-.031-.459zm.938 1h8s.026.51-.2 1l-7.57.03c-.17-.188-.23-1.03-.23-1.03z"
       fill="#666"
       overflow="visible"
       style="marker:none"
       id="path6" />
  </g>
</svg>
