<?xml version="1.0" encoding="UTF-8" standalone="no"?>
<svg
   xmlns:dc="http://purl.org/dc/elements/1.1/"
   xmlns:cc="http://creativecommons.org/ns#"
   xmlns:rdf="http://www.w3.org/1999/02/22-rdf-syntax-ns#"
   xmlns:svg="http://www.w3.org/2000/svg"
   xmlns="http://www.w3.org/2000/svg"
   xmlns:xlink="http://www.w3.org/1999/xlink"
   version="1.1"
   width="24"
   height="24"
   id="svg3792">
  <defs
     id="defs3794">
    <linearGradient
       id="linearGradient2867-449-88-871-390-598-476-591-434-148-57-177-641-289-620-227-114-444-680-744-4">
      <stop
         id="stop5430-5"
         style="stop-color:#737373;stop-opacity:1"
         offset="0" />
      <stop
         id="stop5432-2"
         style="stop-color:#636363;stop-opacity:1"
         offset="0.26238" />
      <stop
         id="stop5434-9"
         style="stop-color:#4b4b4b;stop-opacity:1"
         offset="0.704952" />
      <stop
         id="stop5436-2"
         style="stop-color:#3f3f3f;stop-opacity:1"
         offset="1" />
    </linearGradient>
    <radialGradient
       xlink:href="#linearGradient2867-449-88-871-390-598-476-591-434-148-57-177-641-289-620-227-114-444-680-744-4"
       id="radialGradient3062"
       gradientUnits="userSpaceOnUse"
       gradientTransform="matrix(0,1.4235516,-1.524069,0,-16.958544,-28.441851)"
       cx="21.385109"
       cy="-19.005346"
       fx="21.385109"
       fy="-19.005346"
       r="19.99999" />
  </defs>
  <metadata
     id="metadata3797">
    <rdf:RDF>
      <cc:Work
         rdf:about="">
        <dc:format>image/svg+xml</dc:format>
        <dc:type
           rdf:resource="http://purl.org/dc/dcmitype/StillImage" />
        <dc:title />
      </cc:Work>
    </rdf:RDF>
  </metadata>
  <path
     d="m 21.499876,3.0009541 c 0.263615,-0.00656 0.506881,0.2243277 0.499981,0.474517 l 0,18.9806789 c 0.0069,0.250189 -0.238345,0.505807 -0.499981,0.474517 -0.423518,-0.08764 -18.8019723,0.193024 -18.999298,0 -0.2636156,0.0066 -0.5068913,-0.224328 -0.4999815,-0.474517 l 0,-18.980679 C 1.9887245,3.2611371 2.1554561,3.0501514 2.3755826,3.000954 c 0.020804,-0.00127 0.041694,-0.00127 0.062498,10e-8 0.020804,-0.00127 0.041694,-0.00127 0.062498,0"
     id="path3845"
     style="opacity:0.35;color:#000000;fill:#ffffff;fill-opacity:1;fill-rule:nonzero;stroke:none;stroke-width:1;marker:none;visibility:visible;display:inline;overflow:visible;enable-background:accumulate" />
  <path
     style="color:#000000;fill:url(#radialGradient3062);fill-opacity:1;fill-rule:nonzero;stroke:none;stroke-width:1;marker:none;visibility:visible;display:inline;overflow:visible;enable-background:accumulate"
     id="path3797"
     d="m 21.499876,2.0009537 c 0.263615,-0.00656 0.506881,0.2243277 0.499981,0.474517 l 0,18.9806793 c 0.0069,0.250189 -0.238345,0.505807 -0.499981,0.474517 -0.423518,-0.08764 -18.8019723,0.193024 -18.999298,0 -0.2636156,0.0066 -0.5068913,-0.224328 -0.4999815,-0.474517 l 0,-18.9806794 C 1.9887245,2.2611367 2.1554561,2.050151 2.3755826,2.0009536 c 0.020804,-0.00127 0.041694,-0.00127 0.062498,1e-7 0.020804,-0.00127 0.041694,-0.00127 0.062498,0" />
  <path
     style="opacity:0.1;color:#000000;fill:none;stroke:#000000;stroke-width:1.00365424;stroke-linecap:round;stroke-linejoin:round;stroke-miterlimit:4;stroke-opacity:1;stroke-dasharray:none;stroke-dashoffset:0;marker:none;visibility:visible;display:inline;overflow:visible;enable-background:accumulate"
     id="path2645"
     d="m 21.498173,2.5018272 -18.9963459,0 0,18.9963458 18.9963459,0 z" />
  <path
     style="opacity:0.02999998;fill:none;stroke:#000000;stroke-width:0.99427688;stroke-linecap:round;stroke-linejoin:miter;stroke-miterlimit:4;stroke-opacity:1;stroke-dasharray:none;stroke-dashoffset:0;marker:none;visibility:visible;display:inline;overflow:visible"
     id="path2647"
     d="m 20.502862,3.4971385 -17.0057236,0 0,17.0057235 17.0057236,0 z" />
</svg>
