<?xml version="1.0" encoding="UTF-8" standalone="no"?>
<svg
   xmlns:dc="http://purl.org/dc/elements/1.1/"
   xmlns:cc="http://creativecommons.org/ns#"
   xmlns:rdf="http://www.w3.org/1999/02/22-rdf-syntax-ns#"
   xmlns:svg="http://www.w3.org/2000/svg"
   xmlns="http://www.w3.org/2000/svg"
   xmlns:xlink="http://www.w3.org/1999/xlink"
   id="svg4524"
   height="24"
   width="24"
   version="1.1">
  <defs
     id="defs4526">
    <linearGradient
       id="linearGradient2867-449-88-871-390-598-476-591-434-148-57-177-641-289-620-227-114-444-680-744-4-1-5">
      <stop
         offset="0"
         style="stop-color:#737373;stop-opacity:1"
         id="stop5430-5-0-9" />
      <stop
         offset="0.26238"
         style="stop-color:#636363;stop-opacity:1"
         id="stop5432-2-0-0" />
      <stop
         offset="0.704952"
         style="stop-color:#4b4b4b;stop-opacity:1"
         id="stop5434-9-6-8" />
      <stop
         offset="1"
         style="stop-color:#3f3f3f;stop-opacity:1"
         id="stop5436-2-7-0" />
    </linearGradient>
    <radialGradient
       gradientUnits="userSpaceOnUse"
       gradientTransform="matrix(-2.8793761,6.3348616e-8,-7.4365763e-8,-3.380137,46.552513,13.180536)"
       r="7.9878416"
       fy="3.0118711"
       fx="12"
       cy="3.0118711"
       cx="12"
       id="radialGradient3798"
       xlink:href="#linearGradient2867-449-88-871-390-598-476-591-434-148-57-177-641-289-620-227-114-444-680-744-4-1-5" />
  </defs>
  <metadata
     id="metadata4529">
    <rdf:RDF>
      <cc:Work
         rdf:about="">
        <dc:format>image/svg+xml</dc:format>
        <dc:type
           rdf:resource="http://purl.org/dc/dcmitype/StillImage" />
        <dc:title />
      </cc:Work>
    </rdf:RDF>
  </metadata>
  <path
     style="font-size:medium;font-style:normal;font-variant:normal;font-weight:normal;font-stretch:normal;text-indent:0;text-align:start;text-decoration:none;line-height:normal;letter-spacing:normal;word-spacing:normal;text-transform:none;direction:ltr;block-progression:tb;writing-mode:lr-tb;text-anchor:start;baseline-shift:baseline;color:#000000;fill:#ffffff;fill-opacity:1;stroke:none;stroke-width:1px;marker:none;visibility:visible;display:inline;overflow:visible;enable-background:accumulate;font-family:Sans;-inkscape-font-specification:Sans;opacity:0.35"
     d="m 6.53125,5.0121585 c -0.096416,0.025584 -0.1847536,0.080795 -0.25,0.15625 l -2.125,2.125 c -0.1921217,0.1858836 -0.1921217,0.5328664 0,0.71875 l 5,4.9999995 -5,5 c -0.1921217,0.185884 -0.1921217,0.532866 0,0.71875 l 2.125,2.125 c 0.1858836,0.192122 0.5328664,0.192122 0.71875,0 l 5,-5 5,5 c 0.185884,0.192122 0.532866,0.192122 0.71875,0 l 2.125,-2.125 c 0.192122,-0.185884 0.192122,-0.532866 0,-0.71875 l -5,-5 5,-4.9999995 c 0.192122,-0.1858836 0.192122,-0.5328664 0,-0.71875 l -2.125,-2.125 C 17.532866,4.9762868 17.185884,4.9762868 17,5.1684085 L 12,10.168408 7,5.1684085 C 6.8848259,5.0403037 6.7002522,4.9787791 6.53125,5.0121585 z"
     id="path3800" />
  <path
     id="path3786"
     d="m 6.53125,4 c -0.096416,0.025584 -0.1847536,0.080795 -0.25,0.15625 l -2.125,2.125 C 3.9641283,6.4671336 3.9641283,6.8141164 4.15625,7 l 5,5 -5,5 c -0.1921217,0.185884 -0.1921217,0.532866 0,0.71875 l 2.125,2.125 c 0.1858836,0.192122 0.5328664,0.192122 0.71875,0 l 5,-5 5,5 c 0.185884,0.192122 0.532866,0.192122 0.71875,0 l 2.125,-2.125 c 0.192122,-0.185884 0.192122,-0.532866 0,-0.71875 l -5,-5 5,-5 c 0.192122,-0.1858836 0.192122,-0.5328664 0,-0.71875 l -2.125,-2.125 C 17.532866,3.9641283 17.185884,3.9641283 17,4.15625 l -5,5 -5,-5 C 6.8848259,4.0281452 6.7002522,3.9666206 6.53125,4 z"
     style="font-size:medium;font-style:normal;font-variant:normal;font-weight:normal;font-stretch:normal;text-indent:0;text-align:start;text-decoration:none;line-height:normal;letter-spacing:normal;word-spacing:normal;text-transform:none;direction:ltr;block-progression:tb;writing-mode:lr-tb;text-anchor:start;baseline-shift:baseline;opacity:1;color:#000000;fill:url(#radialGradient3798);fill-opacity:1;stroke:none;stroke-width:1px;marker:none;visibility:visible;display:inline;overflow:visible;enable-background:accumulate;font-family:Sans;-inkscape-font-specification:Sans" />
  <path
     id="path3058"
     d="M 19.500001,17.357142 17.357143,19.5 11.999998,14.142855 6.642858,19.5 4.5,17.357142 9.8571398,11.999993 4.5,6.6428471 l 2.1428581,-2.142858 5.3571399,5.357145 5.357145,-5.357145 2.142858,2.142858 -5.357145,5.3571539 z"
     style="opacity:0.1;fill:none;stroke:#000000;stroke-width:1px;stroke-linecap:butt;stroke-linejoin:round;stroke-opacity:1" />
</svg>
