<?xml version="1.0" encoding="UTF-8" standalone="no"?>
<svg
   version="1.1"
   width="128"
   height="128"
   id="svg3049"
   sodipodi:docname="application-x-par2.svg"
   inkscape:version="1.1.2 (0a00cf5339, 2022-02-04)"
   xmlns:inkscape="http://www.inkscape.org/namespaces/inkscape"
   xmlns:sodipodi="http://sodipodi.sourceforge.net/DTD/sodipodi-0.dtd"
   xmlns:xlink="http://www.w3.org/1999/xlink"
   xmlns="http://www.w3.org/2000/svg"
   xmlns:svg="http://www.w3.org/2000/svg"
   xmlns:rdf="http://www.w3.org/1999/02/22-rdf-syntax-ns#"
   xmlns:cc="http://creativecommons.org/ns#"
   xmlns:dc="http://purl.org/dc/elements/1.1/">
  <sodipodi:namedview
     id="namedview54"
     pagecolor="#ffffff"
     bordercolor="#666666"
     borderopacity="1.0"
     inkscape:pageshadow="2"
     inkscape:pageopacity="0.0"
     inkscape:pagecheckerboard="0"
     showgrid="false"
     inkscape:zoom="21.3125"
     inkscape:cx="42.791789"
     inkscape:cy="106.22874"
     inkscape:window-width="1317"
     inkscape:window-height="893"
     inkscape:window-x="427"
     inkscape:window-y="135"
     inkscape:window-maximized="0"
     inkscape:current-layer="svg3049"
     inkscape:snap-global="false" />
  <defs
     id="defs3051">
    <linearGradient
       id="linearGradient3811">
      <stop
         id="stop3813"
         style="stop-color:#000000;stop-opacity:1"
         offset="0" />
      <stop
         id="stop3815"
         style="stop-color:#000000;stop-opacity:0"
         offset="1" />
    </linearGradient>
    <linearGradient
       xlink:href="#linearGradient121303"
       id="linearGradient121764"
       gradientUnits="userSpaceOnUse"
       gradientTransform="matrix(2.7165335,0,0,2.2968754,-1.1399118,20.805026)"
       x1="25.086039"
       y1="-1.3623691"
       x2="25.086039"
       y2="18.299334" />
    <linearGradient
       id="linearGradient121303">
      <stop
         id="stop121295"
         style="stop-color:#ffffff;stop-opacity:1"
         offset="0" />
      <stop
         id="stop121297"
         style="stop-color:#ffffff;stop-opacity:0.23529412"
         offset="0.11419468" />
      <stop
         id="stop121299"
         style="stop-color:#ffffff;stop-opacity:0.15686275"
         offset="0.93896598" />
      <stop
         id="stop121301"
         style="stop-color:#ffffff;stop-opacity:0.39215687"
         offset="1" />
    </linearGradient>
    <linearGradient
       xlink:href="#c"
       id="linearGradient121762"
       gradientUnits="userSpaceOnUse"
       gradientTransform="matrix(2.9816134,0,0,2.4690237,-7.5219489,-9.3183754)"
       x1="24.537001"
       y1="21.915001"
       x2="24.537001"
       y2="9.9296083" />
    <linearGradient
       id="c">
      <stop
         offset="0"
         stop-color="#fff"
         id="stop36" />
      <stop
         offset="0.3312453"
         stop-color="#fff"
         id="stop38" />
      <stop
         offset="0.36582196"
         stop-color="#fff"
         stop-opacity=".643"
         id="stop40" />
      <stop
         offset="1"
         stop-color="#fff"
         stop-opacity=".391"
         id="stop42" />
    </linearGradient>
    <linearGradient
       xlink:href="#linearGradient3924-2-2-5-8"
       id="linearGradient121760"
       gradientUnits="userSpaceOnUse"
       gradientTransform="matrix(2.7297301,0,0,2.2432431,-1.5135233,22.162164)"
       x1="23.99999"
       y1="5.9204559"
       x2="23.99999"
       y2="42.079544" />
    <linearGradient
       id="linearGradient3924-2-2-5-8">
      <stop
         id="stop3926-9-4-9-6"
         style="stop-color:#ffffff;stop-opacity:1"
         offset="0" />
      <stop
         id="stop3928-9-8-6-5"
         style="stop-color:#ffffff;stop-opacity:0.23529412"
         offset="0.09302325" />
      <stop
         id="stop3930-3-5-1-7"
         style="stop-color:#ffffff;stop-opacity:0.15686275"
         offset="0.9069767" />
      <stop
         id="stop3932-8-0-4-8"
         style="stop-color:#ffffff;stop-opacity:0.39215687"
         offset="1" />
    </linearGradient>
    <linearGradient
       xlink:href="#d"
       id="linearGradient121758"
       gradientUnits="userSpaceOnUse"
       gradientTransform="matrix(3.2016266,0,0,2.9208732,-11.267548,-5.3533744)"
       x1="23.452"
       y1="30.555"
       x2="43.007"
       y2="45.933998" />
    <linearGradient
       id="d">
      <stop
         offset="0"
         stop-color="#fff"
         stop-opacity="0"
         id="stop65" />
      <stop
         offset="1"
         stop-color="#fff"
         stop-opacity="0"
         id="stop67" />
    </linearGradient>
    <linearGradient
       xlink:href="#linearGradient106305"
       id="linearGradient121756"
       gradientUnits="userSpaceOnUse"
       gradientTransform="matrix(3.2210845,0,0,3.4472746,108.33183,-32.504713)"
       x1="-5.8870335"
       y1="19.72085"
       x2="-5.8870335"
       y2="43.375748" />
    <linearGradient
       id="linearGradient106305">
      <stop
         offset="0"
         stop-color="#dac197"
         id="stop106301"
         style="stop-color:#e7c591;stop-opacity:1" />
      <stop
         offset="1"
         stop-color="#b19974"
         id="stop106303"
         style="stop-color:#cfa25e;stop-opacity:1" />
    </linearGradient>
    <linearGradient
       xlink:href="#linearGradient106305"
       id="linearGradient1703"
       gradientUnits="userSpaceOnUse"
       gradientTransform="matrix(3.2210912,0,0,3.4505716,108.37008,-32.985306)"
       x1="-5.8870335"
       y1="11.482978"
       x2="-5.8870335"
       y2="22.148865" />
    <radialGradient
       cx="5"
       cy="41.5"
       fx="5"
       fy="41.5"
       gradientTransform="matrix(2.0057742,0,0,3.2,245.82223,-194.8)"
       gradientUnits="userSpaceOnUse"
       xlink:href="#linearGradient3811"
       id="k-0-7-3-9-3"
       r="5" />
    <linearGradient
       xlink:href="#h"
       id="linearGradient121754"
       gradientUnits="userSpaceOnUse"
       gradientTransform="matrix(4.2608664,0,0,2.9091,106.71847,-55.82)"
       x1="17.554001"
       y1="46"
       x2="17.554001"
       y2="35" />
    <linearGradient
       id="h">
      <stop
         offset="0"
         stop-opacity="0"
         id="stop54" />
      <stop
         offset=".5"
         id="stop56" />
      <stop
         offset="1"
         stop-opacity="0"
         id="stop58" />
    </linearGradient>
    <radialGradient
       cx="5"
       cy="41.5"
       fx="5"
       fy="41.5"
       gradientTransform="matrix(2.0057742,0,0,3.2,-167.87841,-194.8)"
       gradientUnits="userSpaceOnUse"
       xlink:href="#linearGradient3811"
       id="i-6-9-7-8-9"
       r="5" />
  </defs>
  <metadata
     id="metadata3054">
    <rdf:RDF>
      <cc:Work
         rdf:about="">
        <dc:format>image/svg+xml</dc:format>
        <dc:type
           rdf:resource="http://purl.org/dc/dcmitype/StillImage" />
      </cc:Work>
    </rdf:RDF>
  </metadata>
  <rect
     style="color:#000000;display:inline;overflow:visible;visibility:visible;opacity:0.5;fill:none;stroke:none;stroke-width:1;stroke-linecap:round;stroke-linejoin:round;stroke-miterlimit:4;stroke-dasharray:none;stroke-dashoffset:0;stroke-opacity:1;marker:none;enable-background:accumulate"
     id="rect5505-21-3-1"
     y="15.501808"
     x="12.499989"
     ry="10"
     rx="10"
     height="103"
     width="103" />
  <g
     id="g3005"
     transform="matrix(0.93412651,0,0,1,-129.22262,45)"
     style="stroke-width:1.03466">
    <rect
       fill="url(#i)"
       height="32"
       opacity="0.4"
       transform="scale(-1)"
       width="10"
       x="-157.84845"
       y="-78"
       id="rect77-9-90-2-7-8"
       style="fill:url(#i-6-9-7-8-9);stroke-width:1.03466" />
    <rect
       fill="url(#j)"
       height="32"
       opacity="0.4"
       width="98"
       x="157.84845"
       y="46"
       id="rect79-7-2-0-1-4"
       style="fill:url(#linearGradient121754);stroke-width:1.03466" />
    <rect
       fill="url(#k)"
       height="32"
       opacity="0.4"
       transform="scale(1,-1)"
       width="10"
       x="255.84845"
       y="-78"
       id="rect81-3-8-6-7-8"
       style="fill:url(#k-0-7-3-9-3);stroke-width:1.03466" />
  </g>
  <path
     id="rect5505-21-1-5-0-6-5-1-2-5-10"
     style="color:#000000;font-variation-settings:normal;display:inline;overflow:visible;visibility:visible;vector-effect:none;fill:url(#linearGradient1703);fill-opacity:1;fill-rule:nonzero;stroke:none;stroke-width:0.999997;stroke-linecap:butt;stroke-linejoin:miter;stroke-miterlimit:4;stroke-dasharray:none;stroke-dashoffset:0;stroke-opacity:0.3;-inkscape-stroke:none;marker:none;enable-background:accumulate;stop-color:#000000"
     d="m 31.227272,15.5 c -6.224946,0 -8.708182,3.663317 -11.236364,9.333334 -1.937861,4.334622 -4.192569,8.819483 -5.983945,13.066666 -0.952732,1.646659 -1.506965,3.555052 -1.506965,5.600001 H 115.5 C 115.5,41.455052 114.94577,39.546659 113.99304,37.9 112.1531,33.674327 110.00113,29.143654 108.00909,24.833334 105.40432,19.197863 102.99767,15.5 96.772731,15.5 Z" />
  <path
     id="rect5505-21-1-5-0-6-5-1-2-3"
     style="color:#000000;font-variation-settings:normal;display:inline;overflow:visible;visibility:visible;vector-effect:none;fill:url(#linearGradient121756);fill-opacity:1;fill-rule:nonzero;stroke:none;stroke-width:0.999999;stroke-linecap:butt;stroke-linejoin:miter;stroke-miterlimit:4;stroke-dasharray:none;stroke-dashoffset:0;stroke-opacity:0.3;-inkscape-stroke:none;marker:none;enable-background:accumulate;stop-color:#000000"
     d="M 23.736328,34 C 19.054519,34 12.5,36.483752 12.5,46.406719 v 62.095231 c 0,5.54 4.46,10 10,10 H 23.736328 104.26367 105.5 c 5.54,0 10,-4.46 10,-10 V 47.090695 C 115.5,40.105465 112.69092,34 104.26367,34 Z" />
  <path
     d="m 28.729376,31.487391 h 69.046098 c 4.031906,0 6.526326,1.383743 8.215496,5.188105 l 5.8147,15.963399 v 57.548425 c 0,3.63093 -2.04498,5.46038 -6.07501,5.46038 H 21.50079 c -4.03003,0 -5.674252,-2.01221 -5.674252,-5.64314 V 52.635166 l 5.627435,-16.304673 c 1.123614,-2.946516 3.245373,-4.844967 7.275403,-4.844967 z"
     display="block"
     fill="none"
     opacity="0.505"
     overflow="visible"
     stroke="url(#m)"
     stroke-width="0.742"
     style="stroke:url(#linearGradient121758);marker:none"
     id="path85-1-8-5-7-0" />
  <rect
     style="opacity:0.3;fill:none;stroke:url(#linearGradient121760);stroke-width:0.999989;stroke-linecap:round;stroke-linejoin:round;stroke-miterlimit:4;stroke-dasharray:none;stroke-dashoffset:0;stroke-opacity:1"
     id="rect6741-5-0-2-3-4-2-4"
     y="34.499996"
     x="13.499995"
     ry="9.3244143"
     height="83.000008"
     width="101.00002"
     rx="9.3634529" />
  <path
     d="m 59,15 h 10 l 0.926451,19 0.07355,11 C 68.827233,45 67.652477,43.097028 66.477722,43.097028 65.277125,43.097028 64.074541,45 62.871957,45 61.905915,45 60.937884,43.333535 59.969853,43.333535 59.337752,43.333535 58.705649,45 58.073548,45 l -0.07355,-11 z"
     fill="url(#n)"
     opacity="0.3"
     overflow="visible"
     style="fill:url(#linearGradient121762);stroke-width:0.535152;marker:none"
     id="path87-0-9-7-6-4" />
  <path
     id="rect5505-21-1-5-0-6-5-1-2-5-1-4"
     style="color:#000000;font-variation-settings:normal;display:inline;overflow:visible;visibility:visible;vector-effect:none;fill:none;fill-opacity:1;fill-rule:nonzero;stroke:#804b00;stroke-width:0.999999;stroke-linecap:butt;stroke-linejoin:miter;stroke-miterlimit:4;stroke-dasharray:none;stroke-dashoffset:0;stroke-opacity:0.5;-inkscape-stroke:none;marker:none;enable-background:accumulate;stop-color:#000000"
     d="m 31.226562,15.499999 c -6.224947,0 -8.708146,3.674854 -11.236328,9.363281 -1.937862,4.348694 -4.191046,8.848403 -5.982422,13.109375 C 13.055081,39.62466 12.5,41.538255 12.5,43.589843 V 74.785155 107.26367 108.5 c 0,5.54 4.46,10 10,10 H 23.736328 104.26367 105.5 c 5.54,0 10,-4.46 10,-10 V 107.26367 74.785155 43.589843 c 0,-2.051588 -0.55508,-3.965183 -1.50781,-5.617188 -1.83994,-4.239393 -3.99038,-8.785062 -5.98242,-13.109375 -2.60477,-5.653769 -5.01138,-9.363281 -11.236332,-9.363281 z" />
  <path
     id="rect5505-21-1-5-0-6-5-1-2-5-1-7-7"
     style="color:#000000;font-variation-settings:normal;display:inline;overflow:visible;visibility:visible;opacity:0.15;vector-effect:none;fill:none;fill-opacity:1;fill-rule:nonzero;stroke:url(#linearGradient121764);stroke-width:0.999991;stroke-linecap:round;stroke-linejoin:round;stroke-miterlimit:4;stroke-dasharray:none;stroke-dashoffset:0;stroke-opacity:1;-inkscape-stroke:none;marker:none;enable-background:accumulate;stop-color:#000000"
     d="M 112.68494,37.405659 106.81213,24.81031 c -1.2911,-2.7908 -2.49377,-4.93544 -3.89286,-6.270543 -1.3991,-1.335104 -3.642888,-2.039772 -6.40658,-2.039772 l -65.213205,0 c -2.767335,0 -4.81217,0.703721 -6.216072,2.032395 -1.403902,1.328674 -2.597679,3.457821 -3.844745,6.252106 v 0.0037 l -6.090267,12.765866" />
  <path
     id="path5748"
     style="font-style:normal;font-variant:normal;font-weight:bold;font-stretch:normal;font-size:12px;line-height:100%;font-family:'URW Gothic L';-inkscape-font-specification:'URW Gothic L Semi-Bold';text-align:start;writing-mode:lr-tb;text-anchor:start;display:inline;opacity:1;fill:#ffffff;fill-opacity:0.6;stroke:none;stroke-width:1"
     d="m 91.972656,84.547223 c -0.326424,-0.0083 -0.657337,0.0065 -0.992187,0.04687 -4.436931,0.06601 -7.898863,4.06114 -7.435547,8.406255 h 4.253906 c -1.052567,-5.577552 8.141935,-6.026861 7.171875,-0.115234 -0.9739,3.601369 -4.504329,5.575635 -6.912109,8.195316 -1.395739,1.47411 -3.234825,2.75739 -4.351563,4.35156 v 3.56836 H 99 v -4.05859 h -9.220703 c 3.191808,-3.24717 7.53698,-5.731116 9.1875,-10.166021 1.704323,-4.704344 -2.09778,-10.104602 -6.994141,-10.228516 z m -11.427734,6.005859 c -1.479995,0.0525 -2.855949,0.874532 -3.583984,2.201172 V 91.000348 H 73 v 18.000002 h 4.320312 c 0.0348,-3.66102 -0.07361,-7.33517 0.05859,-10.99219 0.0696,-1.969499 1.897678,-3.393117 3.804688,-3.273437 v -4.15625 c -0.214124,-0.02469 -0.427244,-0.03289 -0.638672,-0.02539 z m -21.205078,0.01172 c -0.548777,0.01643 -1.093906,0.08237 -1.623047,0.195313 -3.876622,0.64761 -6.856459,4.176188 -7.167969,8.042968 -0.537194,3.912637 1.399328,8.249517 5.152344,9.826177 3.100162,1.36286 7.179217,1.07013 9.492187,-1.62305 l 0.324219,-0.56445 c -0.009,0.53844 -0.0564,2.32649 0,2.55859 h 3.960938 V 91.000348 h -3.960938 v 2.404297 c -1.366276,-2.046363 -3.799701,-2.911049 -6.177734,-2.839843 z m -19.373047,0.02148 c -2.258491,-0.01506 -4.507918,0.789678 -6,2.541015 -0.07902,-0.664556 0.157999,-1.659989 -0.119141,-2.126949 H 30 v 24.000002 h 4.324219 v -7.66797 c 3.948648,3.82716 11.274437,2.20627 13.488281,-2.75781 2.254412,-4.4835 0.84632,-10.894319 -3.933594,-13.103519 -1.198999,-0.570907 -2.557015,-0.875727 -3.912109,-0.884765 z M 60.09375,94.54136 c 2.760632,-0.1322 5.173688,2.258881 5.267578,4.982422 0.28364,2.556228 -1.291182,5.462978 -4.013672,5.822258 -2.586686,0.5843 -5.640183,-0.82945 -6.292968,-3.52929 -0.851599,-2.826017 0.609668,-6.428415 3.664062,-7.109375 0.44889,-0.113 0.912342,-0.166015 1.375,-0.166015 z m -20.763672,0.01563 c 3.24628,-0.1182 5.684579,3.259438 5.109375,6.33398 -0.277574,3.01352 -3.47716,5.31012 -6.414062,4.42188 -3.588036,-0.77208 -5.066533,-5.481579 -3.083985,-8.402345 0.932064,-1.47876 2.646732,-2.375995 4.388672,-2.353515 z"
     sodipodi:nodetypes="scccccccccccssccccccccssccccccccccssccccccccsccccccccccc" />
  <path
     id="text3329"
     style="font-style:normal;font-variant:normal;font-weight:bold;font-stretch:normal;font-size:12px;line-height:100%;font-family:'URW Gothic L';-inkscape-font-specification:'URW Gothic L Semi-Bold';text-align:start;writing-mode:lr-tb;text-anchor:start;display:inline;opacity:1;fill:#3d211b;fill-opacity:0.698039;stroke:none;stroke-width:1"
     d="m 91.972656,83.546875 c -0.326424,-0.0083 -0.657337,0.0065 -0.992187,0.04687 C 86.543538,83.65976 83.081606,87.654885 83.544922,92 h 4.253906 c -1.052567,-5.577552 8.141935,-6.026861 7.171875,-0.115234 -0.9739,3.601369 -4.504329,5.575635 -6.912109,8.195314 -1.395739,1.47411 -3.234825,2.75739 -4.351563,4.35156 V 108 H 99 v -4.05859 h -9.220703 c 3.191808,-3.24717 7.53698,-5.731114 9.1875,-10.166019 1.704323,-4.704344 -2.09778,-10.104602 -6.994141,-10.228516 z m -11.427734,6.005859 c -1.479995,0.0525 -2.855949,0.874532 -3.583984,2.201172 V 90 H 73 v 18 h 4.320312 c 0.0348,-3.66102 -0.07361,-7.33517 0.05859,-10.992188 0.0696,-1.969499 1.897678,-3.393117 3.804688,-3.273437 v -4.15625 c -0.214124,-0.02469 -0.427244,-0.03289 -0.638672,-0.02539 z m -21.205078,0.01172 c -0.548777,0.01643 -1.093906,0.08237 -1.623047,0.195313 -3.876622,0.64761 -6.856459,4.176188 -7.167969,8.042968 -0.537194,3.912635 1.399328,8.249515 5.152344,9.826175 3.100162,1.36286 7.179217,1.07013 9.492187,-1.62305 l 0.324219,-0.56445 c -0.009,0.53844 -0.0564,2.32649 0,2.55859 h 3.960938 V 90 h -3.960938 v 2.404297 c -1.366276,-2.046363 -3.799701,-2.911049 -6.177734,-2.839843 z m -19.373047,0.02148 c -2.258491,-0.01506 -4.507918,0.789678 -6,2.541015 C 33.887777,91.462393 34.124796,90.46696 33.847656,90 H 30 v 24 h 4.324219 v -7.66797 c 3.948648,3.82716 11.274437,2.20627 13.488281,-2.75781 2.254412,-4.483501 0.84632,-10.894317 -3.933594,-13.103517 -1.198999,-0.570907 -2.557015,-0.875727 -3.912109,-0.884765 z m 20.126953,3.955078 c 2.760632,-0.1322 5.173688,2.258881 5.267578,4.982422 0.28364,2.556236 -1.291182,5.462986 -4.013672,5.822266 -2.586686,0.5843 -5.640183,-0.82945 -6.292968,-3.52929 -0.851599,-2.826025 0.609668,-6.428423 3.664062,-7.109383 0.44889,-0.113 0.912342,-0.166015 1.375,-0.166015 z m -20.763672,0.01563 c 3.24628,-0.1182 5.684579,3.259438 5.109375,6.333984 -0.277574,3.013514 -3.47716,5.310114 -6.414062,4.421874 -3.588036,-0.77208 -5.066533,-5.481577 -3.083985,-8.402343 0.932064,-1.47876 2.646732,-2.375995 4.388672,-2.353515 z"
     sodipodi:nodetypes="scccccccccccssccccccccssccccccccccssccccccccsccccccccccc" />
</svg>
