<?xml version="1.0" encoding="UTF-8" standalone="no"?>
<svg
   version="1.1"
   width="128"
   height="128"
   id="svg3172"
   sodipodi:docname="application-x-perl.svg"
   inkscape:version="1.1.2 (0a00cf5339, 2022-02-04)"
   xmlns:inkscape="http://www.inkscape.org/namespaces/inkscape"
   xmlns:sodipodi="http://sodipodi.sourceforge.net/DTD/sodipodi-0.dtd"
   xmlns:xlink="http://www.w3.org/1999/xlink"
   xmlns="http://www.w3.org/2000/svg"
   xmlns:svg="http://www.w3.org/2000/svg"
   xmlns:rdf="http://www.w3.org/1999/02/22-rdf-syntax-ns#"
   xmlns:cc="http://creativecommons.org/ns#"
   xmlns:dc="http://purl.org/dc/elements/1.1/">
  <sodipodi:namedview
     id="namedview48"
     pagecolor="#ffffff"
     bordercolor="#666666"
     borderopacity="1.0"
     inkscape:pageshadow="2"
     inkscape:pageopacity="0.0"
     inkscape:pagecheckerboard="0"
     showgrid="false"
     inkscape:zoom="5.328125"
     inkscape:cx="73.571848"
     inkscape:cy="70.944282"
     inkscape:window-width="1317"
     inkscape:window-height="893"
     inkscape:window-x="598"
     inkscape:window-y="122"
     inkscape:window-maximized="0"
     inkscape:current-layer="svg3172" />
  <defs
     id="defs3174">
    <linearGradient
       id="linearGradient3600">
      <stop
         id="stop3602"
         style="stop-color:#f4f4f4;stop-opacity:1"
         offset="0" />
      <stop
         id="stop3604"
         style="stop-color:#dbdbdb;stop-opacity:1"
         offset="1" />
    </linearGradient>
    <linearGradient
       id="linearGradient3702-501-757-486">
      <stop
         id="stop3100"
         style="stop-color:#181818;stop-opacity:0"
         offset="0" />
      <stop
         id="stop3102"
         style="stop-color:#181818;stop-opacity:1"
         offset="0.5" />
      <stop
         id="stop3104"
         style="stop-color:#181818;stop-opacity:0"
         offset="1" />
    </linearGradient>
    <linearGradient
       id="linearGradient3688-464-309-255">
      <stop
         id="stop3094"
         style="stop-color:#181818;stop-opacity:1"
         offset="0" />
      <stop
         id="stop3096"
         style="stop-color:#181818;stop-opacity:0"
         offset="1" />
    </linearGradient>
    <linearGradient
       x1="25.132275"
       y1="0.98520643"
       x2="25.132275"
       y2="47.013336"
       id="linearGradient3019-2"
       xlink:href="#linearGradient3600"
       gradientUnits="userSpaceOnUse"
       gradientTransform="matrix(2.6285655,0,0,2.5204893,0.914429,-4.3579715)" />
    <linearGradient
       x1="23.99999"
       y1="5.5641499"
       x2="23.99999"
       y2="42.194839"
       id="linearGradient3016-9"
       xlink:href="#linearGradient3977-3"
       gradientUnits="userSpaceOnUse"
       gradientTransform="matrix(2.4594595,0,0,3.1081081,4.9729852,-14.594554)" />
    <linearGradient
       id="linearGradient3977-3">
      <stop
         id="stop3979-6"
         style="stop-color:#ffffff;stop-opacity:1"
         offset="0" />
      <stop
         id="stop3981-0"
         style="stop-color:#ffffff;stop-opacity:0.23529412"
         offset="0.00648027" />
      <stop
         id="stop3983-6"
         style="stop-color:#ffffff;stop-opacity:0.15686275"
         offset="0.99423188" />
      <stop
         id="stop3985-2"
         style="stop-color:#ffffff;stop-opacity:0.39215687"
         offset="1" />
    </linearGradient>
    <linearGradient
       x1="-51.786404"
       y1="50.786446"
       x2="-51.786404"
       y2="2.9062471"
       id="linearGradient3148"
       xlink:href="#linearGradient3104-6"
       gradientUnits="userSpaceOnUse"
       gradientTransform="matrix(2.1456297,0,0,2.3791292,158.08983,-7.746462)" />
    <linearGradient
       id="linearGradient3104-6">
      <stop
         id="stop3106-3"
         style="stop-color:#000000;stop-opacity:0.31782946"
         offset="0" />
      <stop
         id="stop3108-9"
         style="stop-color:#000000;stop-opacity:0.24031007"
         offset="1" />
    </linearGradient>
    <linearGradient
       gradientUnits="userSpaceOnUse"
       xlink:href="#linearGradient3702-501-757-486"
       id="linearGradient4097"
       y2="39.999443"
       x2="25.058096"
       y1="47.027729"
       x1="25.058096"
       gradientTransform="matrix(2.8421052,0,0,0.71428566,-4.2105336,87.430066)" />
    <radialGradient
       gradientTransform="matrix(5.6949649,0,0,0.99999992,-52.665305,-162.00149)"
       gradientUnits="userSpaceOnUse"
       xlink:href="#linearGradient3688-464-309-255"
       id="radialGradient4095"
       fy="43.5"
       fx="4.9929786"
       r="2.5"
       cy="43.5"
       cx="4.9929786" />
    <radialGradient
       gradientTransform="matrix(5.6949649,0,0,0.99999992,75.334676,75.001496)"
       gradientUnits="userSpaceOnUse"
       xlink:href="#linearGradient3688-464-309-255"
       id="radialGradient4093"
       fy="43.5"
       fx="4.9929786"
       r="2.5"
       cy="43.5"
       cx="4.9929786" />
  </defs>
  <metadata
     id="metadata3177">
    <rdf:RDF>
      <cc:Work
         rdf:about="">
        <dc:format>image/svg+xml</dc:format>
        <dc:type
           rdf:resource="http://purl.org/dc/dcmitype/StillImage" />
      </cc:Work>
    </rdf:RDF>
  </metadata>
  <g
     id="g978"
     style="opacity:0.2;stroke-width:1.03923047"
     transform="matrix(0.92592591,0,0,1,4.7407489,0)">
    <rect
       style="fill:url(#radialGradient4093);fill-opacity:1;stroke:none;stroke-width:1.48070288"
       id="rect2801"
       y="116.00149"
       x="103.78947"
       height="4.9999995"
       width="14.210526" />
    <rect
       style="fill:url(#radialGradient4095);fill-opacity:1;stroke:none;stroke-width:1.48070288"
       id="rect3696"
       transform="scale(-1)"
       y="-121.00149"
       x="-24.210518"
       height="4.9999995"
       width="14.210526" />
    <rect
       style="fill:url(#linearGradient4097);fill-opacity:1;stroke:none;stroke-width:1.48070288"
       id="rect3700"
       y="116.00149"
       x="24.210518"
       height="5"
       width="79.578949" />
  </g>
  <path
     d="m 18,2.0004521 c 21.081878,0 91.99989,0.00694 91.99989,0.00694 L 110,118 c 0,0 -61.333339,0 -91.999999,0 0,-38.666664 0,-77.33333 0,-115.999995 z"
     id="path4160"
     style="display:inline;fill:url(#linearGradient3019-2);fill-opacity:1;stroke:none" />
  <path
     id="path925-6"
     style="display:inline;fill:#8cd5ff;fill-opacity:0.2;fill-rule:evenodd;stroke:none;stroke-width:2;stroke-linecap:round;stroke-linejoin:round;stroke-miterlimit:4;stroke-dasharray:none;stroke-opacity:1;enable-background:new"
     d="m 36.812244,30.352602 c -2.119792,0.02376 -3.554688,0.453125 -3.554688,0.453125 0,0 3.934403,12.538372 11.3125,11.296875 l 0.710938,-2.589844 c -0.06941,6.003855 2.045264,13.369182 2.75,15.65039 -2.356995,5.996397 -5.63782,15.668217 -4.640625,20.970704 0.779214,4.143389 2.358756,7.322383 5.253906,9.544922 H 48.25951 c -1.967492,7.945584 3.935278,9.931775 15.740234,5.958984 11.804956,3.972791 17.707727,1.986601 15.740234,-5.958984 h -0.384765 c 2.89515,-2.222539 4.474692,-5.401533 5.253906,-9.544922 0.997194,-5.302487 -2.283629,-14.974307 -4.640625,-20.970704 0.704736,-2.281208 2.819406,-9.646535 2.75,-15.65039 l 0.710938,2.589844 c 7.378096,1.241497 11.3125,-11.296875 11.3125,-11.296875 0,0 -7.226564,-2.149522 -13.191407,2.9375 -1.132983,-1.998987 -3.868388,-3.390625 -5.746093,-3.390625 -3.989263,0 -5.90221,1.693359 -11.804688,1.693359 -5.902479,0 -7.815424,-1.693359 -11.804688,-1.693359 -1.877707,0 -4.613111,1.391638 -5.746093,3.390625 -3.306266,-2.819696 -7.000499,-3.420178 -9.636719,-3.390625 z"
     sodipodi:nodetypes="sccccscccccscccccssscs" />
  <path
     d="m 109.5,117.5 h -91 V 2.500002 h 91 z"
     id="rect6741-1"
     style="fill:none;stroke:url(#linearGradient3016-9);stroke-width:1;stroke-linecap:round;stroke-linejoin:round;stroke-miterlimit:4;stroke-dasharray:none;stroke-dashoffset:0;stroke-opacity:1" />
  <path
     d="m 17.500001,1.49999 c 21.311001,0 92.999899,0.008 92.999899,0.008 l 1e-4,116.99202 c 0,0 -61.999997,0 -92.999999,0 0,-39.000096 0,-77.999807 0,-116.999456 z"
     id="path4160-6-1"
     style="display:inline;fill:none;stroke:url(#linearGradient3148);stroke-width:0.99999994;stroke-linecap:butt;stroke-linejoin:round;stroke-miterlimit:4;stroke-dasharray:none;stroke-dashoffset:0;stroke-opacity:1" />
  <path
     style="display:inline;fill:none;fill-rule:evenodd;stroke:#3689e6;stroke-width:2;stroke-linecap:round;stroke-linejoin:round;stroke-miterlimit:4;stroke-dasharray:none;stroke-opacity:1;enable-background:new"
     d="m 50.227386,49.925018 c 0,0 -8.349623,18.164165 -6.836391,26.210629 1.05239,5.595969 3.557491,9.436731 8.803908,11.531346 3.109807,1.241582 11.805099,-1.98642 11.805099,-1.98642 v -13.904938 0 0 c 0,0 -7.870066,-2.607177 -9.468673,-12.663427 0,0 0.845869,8.593978 2.444477,8.84228"
     id="path925"
     inkscape:connector-curvature="0"
     sodipodi:nodetypes="csscccccc" />
  <path
     style="display:inline;fill:none;fill-rule:evenodd;stroke:#3689e6;stroke-width:2;stroke-linecap:butt;stroke-linejoin:miter;stroke-miterlimit:4;stroke-dasharray:none;stroke-opacity:1;enable-background:new"
     d="m 46.784233,34.033659 c -6.025519,-5.462655 -13.526677,-3.227932 -13.526677,-3.227932 0,0 3.935034,12.539274 11.313221,11.297762"
     id="path927"
     inkscape:connector-curvature="0"
     sodipodi:nodetypes="ccc" />
  <path
     style="display:inline;fill:none;fill-rule:evenodd;stroke:#3689e6;stroke-width:2;stroke-linecap:round;stroke-linejoin:miter;stroke-miterlimit:4;stroke-dasharray:none;stroke-opacity:1;enable-background:new"
     d="m 48.25987,85.680573 c -1.967516,7.94568 3.935033,9.932099 15.740132,5.95926 11.805098,3.972839 17.707647,1.98642 15.740131,-5.95926"
     id="path932"
     inkscape:connector-curvature="0"
     sodipodi:nodetypes="ccc" />
  <path
     style="display:inline;fill:none;fill-rule:evenodd;stroke:#3689e6;stroke-width:2;stroke-linecap:butt;stroke-linejoin:round;stroke-miterlimit:4;stroke-dasharray:none;stroke-opacity:1;enable-background:new"
     d="m 52.614776,40.62014 c 3.728449,-1.748824 7.690874,0.395189 7.557103,0.61449 0,0 -1.287464,5.390482 -4.330494,4.925451 -2.850548,-0.435617 -3.224218,-4.317562 -3.226609,-5.539941 z"
     id="path938-7"
     inkscape:connector-curvature="0"
     sodipodi:nodetypes="ccsc" />
  <path
     sodipodi:nodetypes="ccsscsscc"
     inkscape:connector-curvature="0"
     id="path947"
     d="m 79.740133,55.884276 v 0 c 0,0 5.092719,-15.25267 1.967516,-21.850617 C 80.687487,31.879884 77.772616,30.354 75.8051,30.354 c -3.989311,0 -5.902549,1.693239 -11.805098,1.693239 -5.90255,0 -7.815787,-1.693239 -11.805099,-1.693239 -1.967517,0 -4.882387,1.525884 -5.902549,3.679659 -3.125203,6.597947 1.967516,21.850617 1.967516,21.850617 v 0"
     style="display:inline;fill:none;fill-rule:evenodd;stroke:#3689e6;stroke-width:2;stroke-linecap:butt;stroke-linejoin:miter;stroke-miterlimit:4;stroke-dasharray:none;stroke-opacity:1;enable-background:new" />
  <path
     sodipodi:nodetypes="csscccccc"
     inkscape:connector-curvature="0"
     id="path949"
     d="m 77.772616,49.925018 c 0,0 8.349624,18.164165 6.836392,26.210629 -1.052389,5.595969 -3.557491,9.436731 -8.803908,11.531346 -3.109806,1.241582 -11.805098,-1.98642 -11.805098,-1.98642 v -13.904938 0 0 c 0,0 7.870065,-2.607177 9.468673,-12.663427 0,0 -0.932824,8.769552 -2.531432,9.017855"
     style="display:inline;fill:none;fill-rule:evenodd;stroke:#3689e6;stroke-width:2;stroke-linecap:round;stroke-linejoin:round;stroke-miterlimit:4;stroke-dasharray:none;stroke-opacity:1;enable-background:new" />
  <path
     sodipodi:nodetypes="ccc"
     inkscape:connector-curvature="0"
     id="path951"
     d="m 81.215771,34.033659 c 6.025518,-5.462655 13.526674,-3.227932 13.526674,-3.227932 0,0 -3.935033,12.539274 -11.313219,11.297762"
     style="display:inline;fill:none;fill-rule:evenodd;stroke:#3689e6;stroke-width:2;stroke-linecap:butt;stroke-linejoin:miter;stroke-miterlimit:4;stroke-dasharray:none;stroke-opacity:1;enable-background:new" />
  <path
     sodipodi:nodetypes="ccsc"
     inkscape:connector-curvature="0"
     id="path955"
     d="m 75.385227,40.62014 c -3.728448,-1.748824 -7.690874,0.395189 -7.557102,0.61449 0,0 1.287464,5.390482 4.330494,4.925451 2.850548,-0.435617 3.224218,-4.317562 3.226608,-5.539941 z"
     style="display:inline;fill:none;fill-rule:evenodd;stroke:#3689e6;stroke-width:2;stroke-linecap:butt;stroke-linejoin:round;stroke-miterlimit:4;stroke-dasharray:none;stroke-opacity:1;enable-background:new" />
</svg>
