<?xml version="1.0" encoding="UTF-8" standalone="no"?>
<svg
   version="1.1"
   width="128"
   height="128"
   id="svg3172"
   sodipodi:docname="application-vnd.oasis.opendocument.formula.svg"
   inkscape:version="1.1.1 (3bf5ae0d25, 2021-09-20)"
   xmlns:inkscape="http://www.inkscape.org/namespaces/inkscape"
   xmlns:sodipodi="http://sodipodi.sourceforge.net/DTD/sodipodi-0.dtd"
   xmlns:xlink="http://www.w3.org/1999/xlink"
   xmlns="http://www.w3.org/2000/svg"
   xmlns:svg="http://www.w3.org/2000/svg"
   xmlns:rdf="http://www.w3.org/1999/02/22-rdf-syntax-ns#"
   xmlns:cc="http://creativecommons.org/ns#"
   xmlns:dc="http://purl.org/dc/elements/1.1/">
  <sodipodi:namedview
     pagecolor="#ffffff"
     bordercolor="#666666"
     borderopacity="1"
     objecttolerance="10"
     gridtolerance="10"
     guidetolerance="10"
     inkscape:pageopacity="0"
     inkscape:pageshadow="2"
     inkscape:window-width="1317"
     inkscape:window-height="986"
     id="namedview55"
     showgrid="false"
     showborder="false"
     inkscape:zoom="5.46875"
     inkscape:cx="-9.2342857"
     inkscape:cy="74.24"
     inkscape:window-x="601"
     inkscape:window-y="32"
     inkscape:window-maximized="0"
     inkscape:current-layer="svg3172"
     inkscape:pagecheckerboard="0" />
  <defs
     id="defs3174">
    <linearGradient
       inkscape:collect="always"
       id="linearGradient866">
      <stop
         style="stop-color:#667885;stop-opacity:1"
         offset="0"
         id="stop862" />
      <stop
         style="stop-color:#485a6c;stop-opacity:1"
         offset="1"
         id="stop864" />
    </linearGradient>
    <linearGradient
       id="linearGradient3600">
      <stop
         id="stop3602"
         style="stop-color:#f4f4f4;stop-opacity:1"
         offset="0" />
      <stop
         id="stop3604"
         style="stop-color:#dbdbdb;stop-opacity:1"
         offset="1" />
    </linearGradient>
    <linearGradient
       id="linearGradient3702-501-757-486">
      <stop
         id="stop3100"
         style="stop-color:#181818;stop-opacity:0"
         offset="0" />
      <stop
         id="stop3102"
         style="stop-color:#181818;stop-opacity:1"
         offset="0.5" />
      <stop
         id="stop3104"
         style="stop-color:#181818;stop-opacity:0"
         offset="1" />
    </linearGradient>
    <linearGradient
       id="linearGradient3688-464-309-255">
      <stop
         id="stop3094"
         style="stop-color:#181818;stop-opacity:1"
         offset="0" />
      <stop
         id="stop3096"
         style="stop-color:#181818;stop-opacity:0"
         offset="1" />
    </linearGradient>
    <linearGradient
       x1="25.132275"
       y1="0.98520643"
       x2="25.132275"
       y2="47.013336"
       id="linearGradient3019-2"
       xlink:href="#linearGradient3600"
       gradientUnits="userSpaceOnUse"
       gradientTransform="matrix(2.6285655,0,0,2.5204893,0.914429,-4.3579715)" />
    <linearGradient
       x1="23.99999"
       y1="5.5641499"
       x2="23.99999"
       y2="42.194839"
       id="linearGradient3016-9"
       xlink:href="#linearGradient3977-3"
       gradientUnits="userSpaceOnUse"
       gradientTransform="matrix(2.4594595,0,0,3.1081081,4.9729852,-14.594554)" />
    <linearGradient
       id="linearGradient3977-3">
      <stop
         id="stop3979-6"
         style="stop-color:#ffffff;stop-opacity:1"
         offset="0" />
      <stop
         id="stop3981-0"
         style="stop-color:#ffffff;stop-opacity:0.23529412"
         offset="0.00648027" />
      <stop
         id="stop3983-6"
         style="stop-color:#ffffff;stop-opacity:0.15686275"
         offset="0.99423188" />
      <stop
         id="stop3985-2"
         style="stop-color:#ffffff;stop-opacity:0.39215687"
         offset="1" />
    </linearGradient>
    <linearGradient
       x1="-51.786404"
       y1="50.786446"
       x2="-51.786404"
       y2="2.9062471"
       id="linearGradient3148"
       xlink:href="#linearGradient3104-6"
       gradientUnits="userSpaceOnUse"
       gradientTransform="matrix(2.1456297,0,0,2.3791292,158.08983,-7.746462)" />
    <linearGradient
       id="linearGradient3104-6">
      <stop
         id="stop3106-3"
         style="stop-color:#000000;stop-opacity:0.31782946"
         offset="0" />
      <stop
         id="stop3108-9"
         style="stop-color:#000000;stop-opacity:0.24031007"
         offset="1" />
    </linearGradient>
    <linearGradient
       gradientUnits="userSpaceOnUse"
       xlink:href="#linearGradient3702-501-757-486"
       id="linearGradient4097"
       y2="39.999443"
       x2="25.058096"
       y1="47.027729"
       x1="25.058096"
       gradientTransform="matrix(2.8421052,0,0,0.71428566,-4.2105336,87.430066)" />
    <radialGradient
       gradientTransform="matrix(5.6949649,0,0,0.99999992,-52.665305,-162.00149)"
       gradientUnits="userSpaceOnUse"
       xlink:href="#linearGradient3688-464-309-255"
       id="radialGradient4095"
       fy="43.5"
       fx="4.9929786"
       r="2.5"
       cy="43.5"
       cx="4.9929786" />
    <radialGradient
       gradientTransform="matrix(5.6949649,0,0,0.99999992,75.334676,75.001496)"
       gradientUnits="userSpaceOnUse"
       xlink:href="#linearGradient3688-464-309-255"
       id="radialGradient4093"
       fy="43.5"
       fx="4.9929786"
       r="2.5"
       cy="43.5"
       cx="4.9929786" />
    <linearGradient
       x1="8.3773117"
       y1="5.6389141"
       x2="8.3773117"
       y2="42.349087"
       id="linearGradient3144"
       xlink:href="#linearGradient3977-6"
       gradientUnits="userSpaceOnUse"
       gradientTransform="matrix(2.3699578,0,0,3.108108,5.46525,-14.594568)" />
    <linearGradient
       id="linearGradient3977-6">
      <stop
         id="stop3979-9"
         style="stop-color:#ffffff;stop-opacity:1"
         offset="0" />
      <stop
         id="stop3981-3"
         style="stop-color:#ffffff;stop-opacity:0.23529412"
         offset="0.0048102" />
      <stop
         id="stop3983-7"
         style="stop-color:#ffffff;stop-opacity:0.15686275"
         offset="0.99380541" />
      <stop
         id="stop3985-4"
         style="stop-color:#ffffff;stop-opacity:0.39215687"
         offset="1" />
    </linearGradient>
    <linearGradient
       inkscape:collect="always"
       xlink:href="#linearGradient866"
       id="linearGradient868"
       x1="32"
       y1="2.4999981"
       x2="32"
       y2="117.5"
       gradientUnits="userSpaceOnUse" />
  </defs>
  <metadata
     id="metadata3177">
    <rdf:RDF>
      <cc:Work
         rdf:about="">
        <dc:format>image/svg+xml</dc:format>
        <dc:type
           rdf:resource="http://purl.org/dc/dcmitype/StillImage" />
      </cc:Work>
    </rdf:RDF>
  </metadata>
  <g
     id="g978"
     style="opacity:0.2;stroke-width:1.03923047"
     transform="matrix(0.92592591,0,0,1,4.7407489,0)">
    <rect
       style="fill:url(#radialGradient4093);fill-opacity:1;stroke:none;stroke-width:1.48070288"
       id="rect2801"
       y="116.00149"
       x="103.78947"
       height="4.9999995"
       width="14.210526" />
    <rect
       style="fill:url(#radialGradient4095);fill-opacity:1;stroke:none;stroke-width:1.48070288"
       id="rect3696"
       transform="scale(-1)"
       y="-121.00149"
       x="-24.210518"
       height="4.9999995"
       width="14.210526" />
    <rect
       style="fill:url(#linearGradient4097);fill-opacity:1;stroke:none;stroke-width:1.48070288"
       id="rect3700"
       y="116.00149"
       x="24.210518"
       height="5"
       width="79.578949" />
  </g>
  <path
     d="m 18,2.0004521 c 21.081878,0 91.99989,0.00694 91.99989,0.00694 L 110,118 c 0,0 -61.333339,0 -91.999999,0 0,-38.666664 0,-77.33333 0,-115.999995 z"
     id="path4160"
     style="display:inline;fill:url(#linearGradient3019-2);fill-opacity:1;stroke:none" />
  <path
     d="m 109.5,117.5 h -91 V 2.500002 h 91 z"
     id="rect6741-1"
     style="fill:none;stroke:url(#linearGradient3016-9);stroke-width:1;stroke-linecap:round;stroke-linejoin:round;stroke-miterlimit:4;stroke-dasharray:none;stroke-dashoffset:0;stroke-opacity:1" />
  <path
     style="color:#000000;display:inline;overflow:visible;visibility:visible;fill:url(#linearGradient868);fill-opacity:1;fill-rule:nonzero;stroke:none;stroke-width:1;marker:none;enable-background:accumulate"
     id="path4530"
     d="M 32,118.50004 H 18.106257 c -0.365697,0 -0.543005,-0.10522 -0.543005,-0.62692 V 2.172391 L 17.721955,1.69658 18.106257,1.50012 v 0 H 32"
     inkscape:connector-curvature="0"
     sodipodi:nodetypes="cssccccc" />
  <path
     style="opacity:0.5;fill:none;stroke:url(#linearGradient3144);stroke-width:1;stroke-linecap:butt;stroke-linejoin:miter;stroke-miterlimit:4;stroke-dasharray:none;stroke-dashoffset:0;stroke-opacity:1"
     id="rect6741-1-5"
     d="M 32,117.5 H 18.5 V 2.499998 H 32" />
  <path
     d="m 32,1.49999 78.4999,0.008 1e-4,116.99202 H 32"
     id="path4160-6-1"
     style="display:inline;fill:none;stroke:url(#linearGradient3148);stroke-width:0.99999994;stroke-linecap:butt;stroke-linejoin:round;stroke-miterlimit:4;stroke-dasharray:none;stroke-dashoffset:0;stroke-opacity:1"
     inkscape:connector-curvature="0"
     sodipodi:nodetypes="cccc" />
  <path
     inkscape:connector-curvature="0"
     d="M 32,118.50001 H 17.500001 V 1.500554 1.49999 L 32,1.50799"
     id="path4160-6-1-5"
     style="display:inline;opacity:0.5;fill:none;stroke:#1a1a1a;stroke-width:0.99999994;stroke-linecap:butt;stroke-linejoin:round;stroke-miterlimit:4;stroke-dasharray:none;stroke-dashoffset:0;stroke-opacity:1"
     sodipodi:nodetypes="ccccc" />
  <path
     d="m 44,39 v 1 h -1 v 1 h 1 v 1 h 1.09961 V 41 H 46 v -1 h -0.90039 v -1 z m 26,0 v 1 h -3 v 1 h 3 v 1 h 1.099611 V 41 H 74 v -1 h -2.900389 v -1 z m 26,0 v 1 h -1 v 1 h 1 v 1 h 1.099611 V 41 H 98 v -1 h -0.900389 v -1 z m -49,1 v 1 h 3 v -1 z m 4,0 v 1 h 3 v -1 z m 4,0 v 1 h 3 v -1 z m 4,0 v 1 h 3 v -1 z m 4,0 v 1 h 3 v -1 z m 12,0 v 1 h 3 v -1 z m 4,0 v 1 h 3 v -1 z m 4,0 v 1 h 3 v -1 z m 4,0 v 1 h 3 v -1 z m 4,0 v 1 h 3 v -1 z m -47,3 v 3 h 1.09961 v -3 z m 26,0 v 3 h 1.099611 v -3 z m 26,0 v 3 h 1.099611 v -3 z m -52,4 v 3 h 1.09961 v -3 z m 26,0 v 3 h 1.099611 v -3 z m 26,0 v 3 h 1.099611 v -3 z m -53,4 v 1 h 1 v 2 h 1.09961 V 52 H 46 V 51 H 45.09961 44 Z m 4,0 v 1 h 3 v -1 z m 4,0 v 1 h 3 v -1 z m 4,0 v 1 h 3 v -1 z m 4,0 v 1 h 3 v -1 z m 4,0 v 1 h 3 v -1 z m 4,0 v 1 h 3 v 2 h 1.099611 V 52 H 74 v -1 h -2.900389 -0.0996 -1 -3 z m 8,0 v 1 h 3 v -1 z m 4,0 v 1 h 3 v -1 z m 4,0 v 1 h 3 v -1 z m 4,0 v 1 h 3 v -1 z m 4,0 v 1 h 3 v -1 z m 4,0 v 1 h 1 v 2 h 1.099611 V 52 H 98 V 51 H 97.099611 96 Z m -51,4 v 3 h 1.09961 v -3 z m 26,0 v 3 h 1.099611 v -3 z m 26,0 v 3 h 1.099611 v -3 z m -52,4 v 3 h 1.09961 v -3 z m 26,0 v 3 h 1.099611 v -3 z m 26,0 v 3 h 1.099611 v -3 z m -52,4 v 3 h 1.09961 v -3 z m 26,0 v 3 h 1.099611 v -3 z m 26,0 v 3 h 1.099611 v -3 z m -52,4 v 3 h 1.09961 v -3 z m 26,0 v 3 h 1.099611 v -3 z m 26,0 v 3 h 1.099611 v -3 z m -52,4 v 1 h -1 v 1 h 1 v 1 h 1.09961 V 73 H 46 v -1 h -0.90039 v -1 z m 26,0 v 1 h -3 v 1 h 3 v 1 h 1.099611 V 73 H 74 v -1 h -2.900389 v -1 z m 26,0 v 1 h -1 v 1 h 1 v 1 h 1.099611 V 73 H 98 v -1 h -0.900389 v -1 z m -49,1 v 1 h 3 v -1 z m 4,0 v 1 h 3 v -1 z m 4,0 v 1 h 3 v -1 z m 4,0 v 1 h 3 v -1 z m 4,0 v 1 h 3 v -1 z m 12,0 v 1 h 3 v -1 z m 4,0 v 1 h 3 v -1 z m 4,0 v 1 h 3 v -1 z m 4,0 v 1 h 3 v -1 z m 4,0 v 1 h 3 v -1 z"
     fill="#f09e6f"
     id="path23"
     sodipodi:nodetypes="ccccccccccccccccccccccccccccccccccccccccccccccccccccccccccccccccccccccccccccccccccccccccccccccccccccccccccccccccccccccccccccccccccccccccccccccccccccccccccccccccccccccccccccccccccccccccccccccccccccccccccccccccccccccccccccccccccccccccccccccccccccccccccccccccccccccccccccccccccccccccccccccccccccccccccccccccccccccccccccccccccccccccccccccccccccccccccccccccc"
     style="fill:#f37329;fill-opacity:1" />
  <path
     d="m 78.89648,78.900391 c -0.71051,0 -1.18523,0.105306 -1.42773,0.316406 -0.23971,0.2083 -0.361429,0.627312 -0.361328,1.257812 v 1.027344 c -1.01e-4,0.428 -0.0754,0.724017 -0.226561,0.886717 -0.151201,0.1629 -0.726803,-0.144677 -0.83008,0.24414 h -0.265619 v 0.61133 h 0.265619 c 0.399501,0 0.67497,0.0825 0.826171,0.24805 0.1542,0.1655 0.230369,0.46373 0.23047,0.89453 v 1.02344 c -1.01e-4,0.6306 0.121618,1.0506 0.361328,1.26172 0.242501,0.21119 0.71722,0.3164 1.42773,0.3164 h 0.275401 v -0.61523 h -0.30079 c -0.399511,0 -0.660601,-0.0609 -0.7832,-0.1836 -0.119799,-0.1227 -0.179689,-0.38887 -0.179689,-0.79687 v -1.06055 c 0,-0.4451 -0.063,-0.77005 -0.191401,-0.97265 -0.1284,-0.20261 -0.35127,-0.34293 -0.66797,-0.41993 0.313901,-0.0713 0.533711,-0.20755 0.662111,-0.41015 0.1309,-0.2026 0.19726,-0.52857 0.19726,-0.976566 v -1.060546 c 0,-0.4052 0.0598,-0.668316 0.179689,-0.791016 0.122601,-0.1254 0.383701,-0.189353 0.7832,-0.189453 h 0.30079 v -0.611328 z m 6.966801,0 v 0.611328 h 0.29102 c 0.40241,1e-4 0.66441,0.06385 0.787111,0.189453 0.122999,0.1255 0.183588,0.388615 0.183588,0.791016 v 1.060546 c 0,0.447996 0.065,0.773966 0.193361,0.976566 0.131201,0.2026 0.354069,0.33915 0.66797,0.41015 -0.3167,0.077 -0.53957,0.21732 -0.66797,0.41993 C 87.18976,83.56197 87.125,83.88693 87.125,84.33203 v 1.06055 c 0,0.4023 -0.0609,0.66551 -0.183588,0.79101 -0.122701,0.1253 -0.384701,0.18946 -0.787111,0.18946 h -0.29102 v 0.61523 h 0.265631 c 0.710409,0 1.184119,-0.1052 1.42382,-0.3164 0.23971,-0.21111 0.35938,-0.63112 0.35938,-1.26172 v -1.02344 c 0,-0.4308 0.0772,-0.72903 0.22851,-0.89453 0.153999,-0.1652 0.727881,-0.636104 0.83399,-0.24805 h 0.273439 v -0.61133 h -0.273439 c -0.4023,0 -0.67998,-0.0815 -0.83399,-0.24414 -0.150891,-0.1627 -0.22851,-0.458717 -0.22851,-0.886717 v -1.027344 c 0,-0.6305 -0.11967,-1.049512 -0.35938,-1.257812 -0.2397,-0.2111 -1.241438,-1.003006 -1.42382,-0.316406 z m -14.76758,0.878906 v 1.361328 h -1.28125 v 0.613281 h 1.28125 v 2.601564 c 0,0.5792 0.120771,0.98781 0.363281,1.22461 0.242599,0.2368 0.65939,0.35547 1.25,0.35547 h 0.9629 v -0.63086 h -0.88672 c -0.33381,0 -0.56708,-0.0692 -0.70118,-0.20899 -0.134101,-0.1399 -0.201171,-0.38643 -0.201171,-0.74023 v -2.601564 h 1.789071 v -0.613281 h -1.789071 v -1.361328 z m -15.27734,1.119141 c -0.57641,0 -1.01898,0.125853 -1.33008,0.376953 -0.311011,0.2482 -0.4668,0.601144 -0.4668,1.060549 0,0.3624 0.1042,0.65013 0.3125,0.86133 0.208309,0.2082 0.53849,0.35631 0.99219,0.44531 l 0.29492,0.0586 0.0352,0.0117 c 0.699,0.1399 1.04883,0.39066 1.04883,0.75586 0,0.2539 -0.0959,0.4531 -0.28711,0.5957 -0.1912,0.1397 -0.4605,0.20899 -0.80859,0.20899 -0.23972,0 -0.49548,-0.0373 -0.76368,-0.11133 -0.2682,-0.0771 -0.54789,-0.1906 -0.84179,-0.3418 v 0.81446 c 0.3025,0.0998 0.58209,0.1717 0.84179,0.2207 0.2596,0.051 0.50919,0.0781 0.7461,0.0781 0.5992,0 1.06759,-0.13303 1.40429,-0.39843 0.3367,-0.2682 0.50391,-0.6396 0.50391,-1.11328 0,-0.35661 -0.10023,-0.64665 -0.30273,-0.86915 -0.1998,-0.2226 -0.49581,-0.36937 -0.886719,-0.44335 l -0.31641,-0.0606 c -0.52221,-0.0999 -0.84927,-0.203 -0.98047,-0.3086 -0.1309,-0.1056 -0.19726,-0.26451 -0.19726,-0.47851 0,-0.2368 0.0876,-0.413245 0.26171,-0.527345 0.17691,-0.1165 0.44419,-0.175781 0.80079,-0.175781 0.2369,0 0.46895,0.03361 0.69726,0.09961 0.2282,0.0656 0.45429,0.163622 0.67969,0.294922 v -0.769531 -0.002 c -0.2283,-0.0942 -0.46037,-0.164938 -0.69727,-0.210938 -0.23681,-0.049 -0.48343,-0.07227 -0.74023,-0.07227 z m 5.02148,0.01953 c -0.576411,0 -1.03031,0.223875 -1.36132,0.671875 -0.331001,0.447997 -0.4961,1.068127 -0.4961,1.861327 0,0.7789 0.1651,1.39084 0.4961,1.83594 0.33381,0.4422 0.78781,0.66406 1.36132,0.66406 0.2882,0 0.54101,-0.0639 0.75782,-0.18945 0.2198,-0.1283 0.39308,-0.31008 0.521479,-0.54688 v 2.43555 h 0.79297 v -6.617188 h -0.79297 v 0.611328 c -0.1313,-0.2368 -0.305689,-0.416462 -0.52539,-0.539062 -0.21691,-0.1254 -0.468609,-0.1875 -0.753909,-0.1875 z m 6.683599,0.07617 c -0.04128,0.371514 -0.698749,0.09084 -0.972659,0.273437 -0.2711,0.1797 -0.47231,0.439792 -0.60351,0.779305 V 81.109372 H 65.15625 v 4.792968 h 0.791022 v -2.38281 c 0,-0.582 0.13092,-1.02774 0.390619,-1.33594 0.259611,-0.308195 0.634189,-0.460937 1.125,-0.460937 0.2083,0 0.400219,0.02984 0.574219,0.08984 0.174101,0.06 0.34536,0.153852 0.51367,0.285157 v -0.802735 c -0.1541,-0.1028 -0.31607,-0.179516 -0.48437,-0.228516 -0.1684,-0.049 -0.521544,-0.265092 -0.542969,-0.07227 z m 12.70703,0.02148 1.716801,2.294922 -1.884771,2.5 h 0.912111 l 1.400389,-1.92188 1.402341,1.92188 h 0.912109 l -1.88281,-2.5 1.7168,-2.294922 H 83.63672 L 82.375,82.74999 81.103521,81.015618 Z m -19.265629,0.570313 c 0.3795,-10e-7 0.665379,0.156804 0.85938,0.470699 0.1973,0.311 0.294919,0.76915 0.294919,1.37695 0,0.6077 -0.098,1.06892 -0.294919,1.38282 -0.194001,0.311 -0.47988,0.46679 -0.85938,0.46679 -0.3795,0 -0.66722,-0.15579 -0.86132,-0.46679 -0.1907,-0.311 -0.28711,-0.77222 -0.28711,-1.38282 0,-0.6107 0.096,-1.06986 0.28711,-1.38086 0.1941,-0.310989 0.48182,-0.466789 0.86132,-0.466789 z"
     fill="url(#a)"
     id="path25"
     style="fill:#485a6c;fill-opacity:1"
     sodipodi:nodetypes="sccccsccsccccsccscsssccssccccsccccsscccsscsccscsscsccscsscsccccccscsccscsccccccccsccccscsccccscsccccscscccccccssscsccccccccssccccccscsccccsscccccccccccccscscscscs" />
  <path
     style="fill:#667885;fill-opacity:1"
     d="m 70.451179,51.007812 9.669919,10.726562 v 0.136719 l -9.98047,11.136719 h 4.96094 l 7.74219,-8.287109 h 0.15429 l 8.51172,8.287109 h 5.373051 L 85.927739,61.689453 v -0.136719 l 10.23242,-10.544922 h -4.96094 l -8.097649,7.650391 h -0.154301 l -7.121091,-7.650391 z"
     id="path2159" />
  <path
     style="fill:#667885;fill-opacity:1"
     d="M 66.980469,40 56.34961,65.035156 50.05274,53.117187 44,55.349609 45.07618,58.984374 47.99219,57.501953 55.48243,73 h 1.77539 L 69.48829,44 h 24.50976 v 2 h 3.001949 v -6 h -30.01757 z"
     id="path25-3" />
</svg>
