<?xml version="1.0" encoding="UTF-8" standalone="no"?>
<svg
   version="1.1"
   width="128"
   height="128"
   id="svg4134"
   sodipodi:docname="application-vnd.comicbook+zip.svg"
   inkscape:version="1.1.2 (0a00cf5339, 2022-02-04)"
   xmlns:inkscape="http://www.inkscape.org/namespaces/inkscape"
   xmlns:sodipodi="http://sodipodi.sourceforge.net/DTD/sodipodi-0.dtd"
   xmlns:xlink="http://www.w3.org/1999/xlink"
   xmlns="http://www.w3.org/2000/svg"
   xmlns:svg="http://www.w3.org/2000/svg"
   xmlns:rdf="http://www.w3.org/1999/02/22-rdf-syntax-ns#"
   xmlns:cc="http://creativecommons.org/ns#"
   xmlns:dc="http://purl.org/dc/elements/1.1/">
  <sodipodi:namedview
     id="namedview71"
     pagecolor="#ffffff"
     bordercolor="#666666"
     borderopacity="1.0"
     inkscape:pageshadow="2"
     inkscape:pageopacity="0.0"
     inkscape:pagecheckerboard="0"
     showgrid="false"
     inkscape:zoom="30.140427"
     inkscape:cx="75.762033"
     inkscape:cy="77.022799"
     inkscape:window-width="1317"
     inkscape:window-height="890"
     inkscape:window-x="652"
     inkscape:window-y="78"
     inkscape:window-maximized="0"
     inkscape:current-layer="svg4134" />
  <defs
     id="defs4136">
    <radialGradient
       cx="64.388718"
       cy="114.8309"
       r="52.5"
       fx="64.388718"
       fy="114.8309"
       id="radialGradient3231"
       xlink:href="#linearGradient3287"
       gradientUnits="userSpaceOnUse"
       gradientTransform="matrix(1.3333434,0,0,0.08199654,-20.35227,-3.924137)" />
    <linearGradient
       id="linearGradient3287">
      <stop
         id="stop3289"
         style="stop-color:#000000;stop-opacity:1"
         offset="0" />
      <stop
         id="stop3291"
         style="stop-color:#000000;stop-opacity:0"
         offset="1" />
    </linearGradient>
    <linearGradient
       x1="23.99999"
       y1="4.999989"
       x2="23.99999"
       y2="43"
       id="linearGradient3142"
       xlink:href="#linearGradient3731"
       gradientUnits="userSpaceOnUse"
       gradientTransform="matrix(2.4594594,0,0,2.8918915,4.9729783,-5.405372)" />
    <linearGradient
       id="linearGradient3731">
      <stop
         id="stop3733"
         style="stop-color:#ffffff;stop-opacity:1"
         offset="0" />
      <stop
         id="stop3735"
         style="stop-color:#ffffff;stop-opacity:0.23529412"
         offset="0.02706478" />
      <stop
         id="stop3737"
         style="stop-color:#ffffff;stop-opacity:0.15686275"
         offset="0.97377032" />
      <stop
         id="stop3739"
         style="stop-color:#ffffff;stop-opacity:0.39215687"
         offset="1" />
    </linearGradient>
    <radialGradient
       cx="7.4956832"
       cy="8.4497671"
       r="19.99999"
       fx="7.4956832"
       fy="8.4497671"
       id="radialGradient3145"
       xlink:href="#linearGradient2867-449-88-871-390-598-476-591-434-148-57-177-641-289-620-227-114-444-680-744-8"
       gradientUnits="userSpaceOnUse"
       gradientTransform="matrix(5.0514012e-8,6.5315873,-6.427867,-1.2033678e-7,122.51425,-37.8306)" />
    <linearGradient
       id="linearGradient2867-449-88-871-390-598-476-591-434-148-57-177-641-289-620-227-114-444-680-744-8">
      <stop
         id="stop5430-8"
         style="stop-color:#5f5f5f;stop-opacity:1"
         offset="0" />
      <stop
         id="stop5432-3"
         style="stop-color:#4f4f4f;stop-opacity:1"
         offset="0.26238" />
      <stop
         id="stop5434-1"
         style="stop-color:#3b3b3b;stop-opacity:1"
         offset="0.704952" />
      <stop
         id="stop5436-8"
         style="stop-color:#2b2b2b;stop-opacity:1"
         offset="1" />
    </linearGradient>
    <linearGradient
       x1="24"
       y1="44"
       x2="24"
       y2="3.8990016"
       id="linearGradient3147"
       xlink:href="#linearGradient3707-319-631-407-324-616-674-812-821-107-178-392-400-6"
       gradientUnits="userSpaceOnUse"
       gradientTransform="matrix(2.5999999,0,0,2.7948717,5.8000043,-3.076929)" />
    <linearGradient
       id="linearGradient3707-319-631-407-324-616-674-812-821-107-178-392-400-6">
      <stop
         id="stop5440-4"
         style="stop-color:#272727;stop-opacity:1"
         offset="0" />
      <stop
         id="stop5442-3"
         style="stop-color:#454545;stop-opacity:1"
         offset="1" />
    </linearGradient>
    <linearGradient
       x1="10.654308"
       y1="1"
       x2="10.654308"
       y2="3"
       id="linearGradient3156"
       xlink:href="#linearGradient2346"
       gradientUnits="userSpaceOnUse"
       gradientTransform="matrix(2.6000003,0,0,2.7500175,0.5993211,0.124924)" />
    <linearGradient
       id="linearGradient2346">
      <stop
         id="stop2348"
         style="stop-color:#f5f5f5;stop-opacity:1"
         offset="0" />
      <stop
         id="stop2350"
         style="stop-color:#e1e1e1;stop-opacity:1"
         offset="1" />
    </linearGradient>
    <linearGradient
       x1="24"
       y1="44"
       x2="24"
       y2="3.8990016"
       id="linearGradient3158"
       xlink:href="#linearGradient3707-319-631-407-324-616-674-812-821-107-178-392-400-6-2"
       gradientUnits="userSpaceOnUse"
       gradientTransform="matrix(2.6000003,0,0,0.28205131,5.8000003,0.230768)" />
    <linearGradient
       id="linearGradient3707-319-631-407-324-616-674-812-821-107-178-392-400-6-2">
      <stop
         id="stop5440-4-8"
         style="stop-color:#272727;stop-opacity:1"
         offset="0" />
      <stop
         id="stop5442-3-8"
         style="stop-color:#454545;stop-opacity:1"
         offset="1" />
    </linearGradient>
    <linearGradient
       x1="24.62738"
       y1="3.1234391"
       x2="24.640038"
       y2="4.882647"
       id="linearGradient4333"
       xlink:href="#linearGradient2346"
       gradientUnits="userSpaceOnUse"
       gradientTransform="matrix(2.6646671,0,0,4.0925893,4.3539233,-10.571687)" />
    <linearGradient
       x1="5.2122574"
       y1="0.065301567"
       x2="54.887218"
       y2="0.065301567"
       id="linearGradient4335"
       xlink:href="#linearGradient4652"
       gradientUnits="userSpaceOnUse"
       gradientTransform="matrix(1.9009526,0,0,1.9880919,6.8243933,0.040828)" />
    <linearGradient
       id="linearGradient4652">
      <stop
         id="stop4654"
         style="stop-color:#769a28;stop-opacity:1"
         offset="0" />
      <stop
         id="stop4656"
         style="stop-color:#709325;stop-opacity:1"
         offset="0.95970964" />
      <stop
         id="stop4658"
         style="stop-color:#c2c2c2;stop-opacity:1"
         offset="0.96326458" />
      <stop
         id="stop4660"
         style="stop-color:#c2c2c2;stop-opacity:1"
         offset="1" />
    </linearGradient>
    <radialGradient
       cx="4.9929786"
       cy="43.5"
       r="2.5"
       fx="4.9929786"
       fy="43.5"
       id="radialGradient2455"
       xlink:href="#linearGradient3688-166-749"
       gradientUnits="userSpaceOnUse"
       gradientTransform="matrix(2.003784,0,0,1.4,27.98813,-17.4)" />
    <linearGradient
       id="linearGradient3688-166-749">
      <stop
         id="stop2883"
         style="stop-color:#181818;stop-opacity:1"
         offset="0" />
      <stop
         id="stop2885"
         style="stop-color:#181818;stop-opacity:0"
         offset="1" />
    </linearGradient>
    <radialGradient
       cx="4.9929786"
       cy="43.5"
       r="2.5"
       fx="4.9929786"
       fy="43.5"
       id="radialGradient2457"
       xlink:href="#linearGradient3688-464-309"
       gradientUnits="userSpaceOnUse"
       gradientTransform="matrix(2.003784,0,0,1.4,-20.01187,-104.4)" />
    <linearGradient
       id="linearGradient3688-464-309">
      <stop
         id="stop2889"
         style="stop-color:#181818;stop-opacity:1"
         offset="0" />
      <stop
         id="stop2891"
         style="stop-color:#181818;stop-opacity:0"
         offset="1" />
    </linearGradient>
    <linearGradient
       x1="25.058096"
       y1="47.027729"
       x2="25.058096"
       y2="39.999443"
       id="linearGradient2459"
       xlink:href="#linearGradient3702-501-757"
       gradientUnits="userSpaceOnUse" />
    <linearGradient
       id="linearGradient3702-501-757">
      <stop
         id="stop2895"
         style="stop-color:#181818;stop-opacity:0"
         offset="0" />
      <stop
         id="stop2897"
         style="stop-color:#181818;stop-opacity:1"
         offset="0.5" />
      <stop
         id="stop2899"
         style="stop-color:#181818;stop-opacity:0"
         offset="1" />
    </linearGradient>
    <linearGradient
       id="linearGradient4280">
      <stop
         id="stop4282"
         style="stop-color:#9bdb4d;stop-opacity:1"
         offset="0" />
      <stop
         id="stop4284"
         style="stop-color:#68b723;stop-opacity:1"
         offset="1" />
    </linearGradient>
    <linearGradient
       y2="92.240685"
       x2="112.42694"
       y1="-17.604584"
       x1="112.42694"
       gradientTransform="translate(-47.770775,26.673377)"
       gradientUnits="userSpaceOnUse"
       id="linearGradient4318"
       xlink:href="#linearGradient4280" />
  </defs>
  <metadata
     id="metadata4139">
    <rdf:RDF>
      <cc:Work
         rdf:about="">
        <dc:format>image/svg+xml</dc:format>
        <dc:type
           rdf:resource="http://purl.org/dc/dcmitype/StillImage" />
      </cc:Work>
    </rdf:RDF>
  </metadata>
  <g
     style="display:inline"
     id="g2036"
     transform="matrix(2.6499989,0,0,1.4444458,0.4000001,55.111094)">
    <g
       style="opacity:0.4"
       id="g3712"
       transform="matrix(1.052632,0,0,1.285713,-1.263158,-13.42854)">
      <rect
         style="fill:url(#radialGradient2455);fill-opacity:1;stroke:none"
         id="rect2801"
         y="40"
         x="38"
         height="7"
         width="5" />
      <rect
         style="fill:url(#radialGradient2457);fill-opacity:1;stroke:none"
         id="rect3696"
         transform="scale(-1,-1)"
         y="-47"
         x="-10"
         height="7"
         width="5" />
      <rect
         style="fill:url(#linearGradient2459);fill-opacity:1;stroke:none"
         id="rect3700"
         y="40"
         x="10"
         height="7.0000005"
         width="28" />
    </g>
  </g>
  <path
     style="display:inline;fill:url(#linearGradient4333);fill-opacity:1;stroke:url(#linearGradient4335);stroke-width:1.01739764;stroke-linecap:butt;stroke-linejoin:round;stroke-miterlimit:0;stroke-dasharray:none;stroke-dashoffset:0;stroke-opacity:1"
     id="path2723"
     d="M 109.4913,10.364818 C 108.70732,7.727317 109.19596,4.02414 108.76296,1.508699 l -80.254261,0 0.473668,7.982602" />
  <path
     style="color:#000000;display:inline;overflow:visible;visibility:visible;fill:url(#linearGradient3156);fill-opacity:1;fill-rule:nonzero;stroke:url(#linearGradient3158);stroke-width:0.99999994;stroke-linecap:round;stroke-linejoin:round;stroke-miterlimit:4;stroke-dasharray:none;stroke-dashoffset:0;stroke-opacity:1;marker:none;enable-background:accumulate"
     id="rect5505-21-3-9"
     d="m 30.5,12.5 -10.4,0 c -1.484206,0 -2.6,-0.116416 -2.6,-0.268291 l 0,-8.145539 C 17.5,2.150302 18.144001,1.5 20.046842,1.5 L 30.5,1.5" />
  <rect
     width="91.302383"
     height="108.98096"
     rx="2"
     ry="2"
     x="19.188095"
     y="9.4937019"
     id="rect2719-1"
     style="display:inline;fill:url(#linearGradient4318);fill-opacity:1;stroke:#206b00;stroke-width:1.01904094;stroke-linecap:round;stroke-linejoin:round;stroke-miterlimit:0;stroke-dasharray:none;stroke-dashoffset:0;stroke-opacity:0.49803922;color:#000000;clip-rule:nonzero;overflow:visible;visibility:visible;opacity:1;isolation:auto;mix-blend-mode:normal;color-interpolation:sRGB;color-interpolation-filters:linearRGB;solid-color:#000000;solid-opacity:1;fill-rule:nonzero;filter-blend-mode:normal;filter-gaussianBlur-deviation:0;color-rendering:auto;image-rendering:auto;shape-rendering:auto;text-rendering:auto;enable-background:accumulate" />
  <path
     style="color:#000000;display:inline;overflow:visible;visibility:visible;fill:url(#radialGradient3145);fill-opacity:1;fill-rule:nonzero;stroke:url(#linearGradient3147);stroke-width:1;stroke-linecap:round;stroke-linejoin:round;stroke-miterlimit:4;stroke-dasharray:none;stroke-dashoffset:0;stroke-opacity:1;marker:none;enable-background:accumulate"
     id="rect5505-21-3"
     d="m 30.5,9.499994 c 0,0 0,75.792524 0,108.999996 l -10.728851,0 c -1.484205,0 -2.271149,-0.87542 -2.271149,-2.38027 l 0,-106.619726 z" />
  <rect
     style="opacity:0.5;fill:none;stroke:url(#linearGradient3142);stroke-width:1;stroke-linecap:round;stroke-linejoin:round;stroke-miterlimit:4;stroke-dasharray:none;stroke-dashoffset:0;stroke-opacity:1"
     id="rect6741-0"
     y="10.5"
     x="18.5"
     ry="1"
     rx="1"
     height="107"
     width="91" />
  <path
     style="opacity:0.1;fill:none;stroke:url(#radialGradient3231);stroke-width:0.99999994px;stroke-linecap:butt;stroke-linejoin:miter;stroke-opacity:1"
     id="path3262"
     d="m 18,3.500003 91.44276,0 m -91.44276,2 91.4946,0 m -91.4946,2 91.4298,0" />
  <path
     id="path920"
     style="opacity:0.05;fill:#206b00;fill-opacity:1;stroke-width:0.999992"
     d="m 73.160318,40.938905 c -1.081984,0.01445 -2.177208,0.06529 -3.283203,0.152344 -17.695917,1.392827 -31.21081,11.727075 -30.302734,23.171875 l 0.0293,0.371094 c 0.386219,4.86766 3.324739,9.123684 7.927734,12.30664 -0.540264,6.158732 -3.244195,12.123036 -5.986328,17.830079 -0.05826,0.169692 0.09139,0.184767 0.199219,0.148437 7.324352,-3.791717 14.522202,-7.617932 21.0625,-12.425781 3.28382,0.451882 6.773346,0.568946 10.378906,0.285156 17.695914,-1.392827 31.210808,-11.729028 30.302728,-23.173828 l -0.0293,-0.369141 C 102.60782,48.50628 89.390077,40.722219 73.160318,40.938905 Z" />
  <path
     id="rect915"
     style="opacity:0.15;fill:#206b00;fill-opacity:1;stroke-width:0.999992"
     d="m 73.160318,38.938905 c -1.081984,0.01445 -2.177208,0.06529 -3.283203,0.152344 -17.695917,1.392827 -31.21081,11.727075 -30.302734,23.171875 l 0.0293,0.371094 c 0.386219,4.86766 3.324739,9.123684 7.927734,12.30664 -0.540264,6.158732 -3.244195,12.123036 -5.986328,17.830079 -0.05826,0.169692 0.09139,0.184767 0.199219,0.148437 7.324352,-3.791717 14.522202,-7.617932 21.0625,-12.425781 3.28382,0.451882 6.773346,0.568946 10.378906,0.285156 17.695914,-1.392827 31.210808,-11.729028 30.302728,-23.173828 l -0.0293,-0.369141 C 102.60782,46.50628 89.390077,38.722219 73.160318,38.938905 Z" />
  <path
     id="rect1003"
     style="fill:#ffffff;stroke-width:0.999992"
     d="m 73.160156,36.938228 c -1.081984,0.01445 -2.177208,0.06529 -3.283203,0.152344 -17.695917,1.392827 -31.21081,11.727075 -30.302734,23.171875 l 0.0293,0.371094 c 0.361997,4.562385 2.965515,8.588902 7.080078,11.697265 0.03148,0.03236 0.0909,0.07902 0.1875,0.146485 0.0042,0.0029 0.01138,0.0068 0.01563,0.0098 0.372675,0.275386 0.758034,0.542492 1.154297,0.802735 -0.685363,6.069866 -2.988708,11.50834 -5.304688,16.148437 -0.01408,0.04102 -0.07077,0.132555 -0.11914,0.220703 -0.04837,0.08815 -0.08938,0.172032 -0.07031,0.201172 0.01019,0.01557 0.03308,0.01555 0.0625,0.0059 0.08827,-0.02907 0.235569,-0.14022 0.277344,-0.154297 0.621042,-0.321505 1.241345,-0.645285 1.859375,-0.970703 6.185909,-3.211458 11.371556,-5.997419 17.107422,-10.25586 0.312674,-0.232136 2.934995,0.283203 3.421875,0.283203 2.545719,0.21063 5.195499,0.223434 7.910156,0.0098 17.695917,-1.392827 31.210812,-11.729028 30.302732,-23.173828 l -0.0293,-0.369141 C 102.60766,44.505603 89.389915,36.721542 73.160156,36.938228 Z"
     sodipodi:nodetypes="sscccscccsssccscssss" />
  <path
     id="path1162"
     style="color:#000000;opacity:0.5;fill:#206b00;stroke-width:1;-inkscape-stroke:none"
     d="m 73.121094,36.004634 c -1.108871,0.01503 -2.230144,0.06643 -3.363282,0.15625 -9.065091,0.71862 -17.069514,3.739753 -22.720703,8.091797 -5.651189,4.352046 -8.969511,10.078241 -8.492187,16.136719 l 0.0293,0.378906 c 0.408916,5.190547 3.536435,9.695371 8.361328,13.023438 -0.700239,5.730972 -3.238462,11.343548 -5.841797,16.761719 l -0.01367,0.02734 -0.0078,0.02734 c -0.03658,0.106562 -0.06488,0.246719 -0.01563,0.408203 0.04925,0.161484 0.191625,0.302419 0.314453,0.359375 0.245656,0.113913 0.392471,0.06239 0.53125,0.01563 l 0.03711,-0.01172 0.0332,-0.01758 c 7.045815,-3.647521 13.998022,-7.330246 20.371094,-11.908203 3.429548,0.492326 7.078778,0.621165 10.849609,0.322266 9.065094,-0.71862 17.069513,-3.737799 22.720703,-8.089844 5.651188,-4.352045 8.967558,-10.078242 8.490238,-16.136719 L 104.375,55.172603 C 103.89768,49.114125 99.725438,43.980683 93.462891,40.572994 87.98316,37.591266 80.883189,35.899403 73.121094,36.004634 Z m 0.03906,0.933594 c 16.229759,-0.216686 29.447496,7.567266 30.298826,18.296875 l 0.0293,0.369141 c 0.90808,11.4448 -12.606818,21.781001 -30.302735,23.173828 -2.714657,0.213634 -5.364437,0.200864 -7.910156,-0.0098 -0.08806,0 -0.311143,-0.03005 -0.53711,-0.06055 -0.7302,-0.06791 -1.445098,-0.161202 -2.15625,-0.261719 -0.355114,-0.02436 -0.641092,-0.02584 -0.728515,0.03906 -0.340551,0.252833 -0.674723,0.483714 -1.011719,0.726563 0.0033,5.3e-4 0.0065,0.0014 0.0098,0.002 -0.154698,0.111574 -0.306942,0.212688 -0.460937,0.322265 -0.369536,0.26277 -0.739064,0.525238 -1.105469,0.777344 -0.316831,0.21824 -0.632344,0.429677 -0.947265,0.640625 -0.323721,0.216532 -0.648218,0.436853 -0.970703,0.646485 -0.482383,0.314083 -0.964227,0.61736 -1.445313,0.917968 -0.142339,0.08878 -0.285374,0.181778 -0.427734,0.269532 -0.650264,0.401559 -1.301383,0.793985 -1.955079,1.177734 -0.02333,0.01367 -0.04697,0.02736 -0.07031,0.04102 -1.013596,0.59297 -2.040316,1.16657 -3.078125,1.736328 -0.347473,0.191008 -0.700982,0.386015 -1.052734,0.576172 -0.168125,0.09078 -0.346441,0.184665 -0.515625,0.27539 -0.93633,0.502606 -1.869442,1.002996 -2.847657,1.513672 -0.03324,0.01766 -0.06635,0.03509 -0.09961,0.05273 -0.136367,0.07115 -0.266945,0.139433 -0.404297,0.210938 -1.005539,0.53177 -2.013617,1.061672 -3.027344,1.587891 2.372178,-4.982362 4.640317,-10.173327 5.390625,-15.576172 0.01475,0.0093 0.02871,0.01949 0.04297,0.0293 0.05508,-0.374347 0.121233,-0.743728 0.164063,-1.123047 -0.04429,-0.02908 -0.0849,-0.06059 -0.128907,-0.08984 -0.290529,-0.193289 -0.577483,-0.388412 -0.855468,-0.589844 l -0.002,0.01953 c -4.366644,-3.151548 -7.10098,-7.2736 -7.468738,-11.941419 l -0.0293,-0.378906 c -0.113038,-1.434632 0.0036,-2.853825 0.328125,-4.242188 2.202379,-9.677151 14.492672,-17.756611 29.992187,-18.976562 1.105995,-0.08705 2.201219,-0.137894 3.283203,-0.152344 z" />
  <path
     id="path956"
     style="color:#000000;font-style:italic;font-variant:normal;font-weight:bold;font-stretch:normal;font-size:29.3333px;line-height:1.25;font-family:'noto sans';-inkscape-font-specification:'noto sans Bold Italic';font-variant-ligatures:normal;font-variant-position:normal;font-variant-caps:normal;font-variant-numeric:normal;font-variant-alternates:normal;font-variant-east-asian:normal;font-feature-settings:normal;font-variation-settings:normal;text-indent:0;text-align:start;text-decoration:none;text-decoration-line:none;text-decoration-style:solid;text-decoration-color:#000000;letter-spacing:2px;word-spacing:0px;text-transform:none;writing-mode:lr-tb;direction:ltr;text-orientation:mixed;dominant-baseline:auto;baseline-shift:baseline;text-anchor:start;white-space:normal;shape-padding:0;shape-margin:0;inline-size:0;clip-rule:nonzero;display:inline;overflow:visible;visibility:visible;isolation:auto;mix-blend-mode:normal;color-interpolation:sRGB;color-interpolation-filters:linearRGB;solid-color:#000000;solid-opacity:1;vector-effect:none;fill:#64a927;fill-opacity:1;fill-rule:nonzero;stroke:none;stroke-width:0.5;stroke-linecap:butt;stroke-linejoin:miter;stroke-miterlimit:4;stroke-dasharray:none;stroke-dashoffset:0;stroke-opacity:1;color-rendering:auto;image-rendering:auto;shape-rendering:auto;text-rendering:auto;enable-background:accumulate;stop-color:#000000"
     d="m 67.484538,46.684492 c -1.401924,0 -2.709894,0.195495 -3.927734,0.585938 -1.131719,0.369652 -2.155824,0.819861 -3.107422,1.322265 l 1.330078,3.128906 c 0.894501,-0.413371 1.729419,-0.779341 2.457031,-1.064453 l 0.002,-0.002 h 0.002 c 0.839616,-0.319863 1.673588,-0.482422 2.498047,-0.482422 0.827309,0 1.466409,0.184639 1.873047,0.607422 0.390855,0.384729 0.582031,0.928302 0.582031,1.572266 0,0.747389 -0.281431,1.418855 -0.818359,1.96875 l -0.002,0.002 -0.002,0.002 c -0.519349,0.508715 -1.329825,1.123391 -2.445313,1.859328 h -0.002 c -1.335021,0.871873 -2.287769,1.800526 -2.873047,2.777344 l -0.002,0.002 c -0.543183,0.886853 -0.931231,2.063393 -1.220703,3.410156 h 3.751953 c 0.15054,-0.559749 0.319209,-1.067889 0.53125,-1.462891 0,0 0,-0.002 0,-0.002 0.23972,-0.467807 0.563782,-0.89014 0.966797,-1.261718 0.421797,-0.390098 0.963357,-0.796657 1.626953,-1.222657 0.943323,-0.616062 1.783518,-1.230358 2.521484,-1.84375 l 0.002,-0.002 h 0.002 c 0.746503,-0.602237 1.32157,-1.27536 1.734375,-2.019531 0.406913,-0.755282 0.615234,-1.664463 0.615234,-2.740234 0,-1.62834 -0.531775,-2.857469 -1.607422,-3.763672 l -0.002,-0.002 c -1.052377,-0.90464 -2.535344,-1.369047 -4.48628,-1.369047 z m -4.310547,18.982422 c -1.196863,0 -1.982674,0.320504 -2.445312,0.929687 l -0.002,0.002 c -0.467817,0.625792 -0.695266,1.297934 -0.695266,2.042922 0,0.519113 0.168611,0.986744 0.521484,1.435547 0.320384,0.386768 0.898175,0.607422 1.806641,0.607422 0.945318,0 1.658491,-0.274172 2.197266,-0.822266 l 0.002,-0.002 0.002,-0.002 c 0.565633,-0.554104 0.841797,-1.229412 0.841797,-2.082031 0,-0.703466 -0.19986,-1.19374 -0.59375,-1.541016 l -0.0039,-0.002 -0.002,-0.002 c -0.402262,-0.37436 -0.929348,-0.564453 -1.628906,-0.564453 z" />
  <path
     id="path962"
     style="color:#000000;font-style:italic;font-variant:normal;font-weight:bold;font-stretch:normal;font-size:29.3333px;line-height:1.25;font-family:'noto sans';-inkscape-font-specification:'noto sans Bold Italic';font-variant-ligatures:normal;font-variant-position:normal;font-variant-caps:normal;font-variant-numeric:normal;font-variant-alternates:normal;font-variant-east-asian:normal;font-feature-settings:normal;font-variation-settings:normal;text-indent:0;text-align:start;text-decoration:none;text-decoration-line:none;text-decoration-style:solid;text-decoration-color:#000000;letter-spacing:2px;word-spacing:0px;text-transform:none;writing-mode:lr-tb;direction:ltr;text-orientation:mixed;dominant-baseline:auto;baseline-shift:baseline;text-anchor:start;white-space:normal;shape-padding:0;shape-margin:0;inline-size:0;clip-rule:nonzero;display:inline;overflow:visible;visibility:visible;isolation:auto;mix-blend-mode:normal;color-interpolation:sRGB;color-interpolation-filters:linearRGB;solid-color:#000000;solid-opacity:1;vector-effect:none;fill:#64a927;fill-opacity:1;fill-rule:nonzero;stroke:none;stroke-width:0.5;stroke-linecap:butt;stroke-linejoin:miter;stroke-miterlimit:4;stroke-dasharray:none;stroke-dashoffset:0;stroke-opacity:1;color-rendering:auto;image-rendering:auto;shape-rendering:auto;text-rendering:auto;enable-background:accumulate;stop-color:#000000"
     d="m 78.673991,47.016523 -2.662109,15.357422 h 3.785156 l 3.978516,-15.357422 z m -1.5,18.650391 c -1.196864,0 -1.982675,0.320505 -2.445312,0.929687 l -0.002,0.002 c -0.467821,0.625792 -0.695267,1.297934 -0.695267,2.042922 0,0.519113 0.168611,0.986744 0.521484,1.435547 0.320386,0.386769 0.898175,0.607422 1.806641,0.607422 0.945319,0 1.65849,-0.274172 2.197266,-0.822266 l 0.002,-0.002 0.002,-0.002 c 0.565633,-0.554104 0.841797,-1.229412 0.841797,-2.082031 0,-0.703466 -0.19986,-1.19374 -0.59375,-1.541016 l -0.0039,-0.002 -0.002,-0.002 c -0.402262,-0.37436 -0.929349,-0.564453 -1.628906,-0.564453 z" />
  <g
     id="path905"
     style="opacity:0.5"
     transform="translate(1.531412,2.0001689)" />
</svg>
