<?xml version="1.0" encoding="UTF-8" standalone="no"?>
<svg
   version="1.0"
   width="128"
   height="128"
   id="svg2453"
   sodipodi:docname="image-x-ico.svg"
   inkscape:version="1.1.2 (0a00cf5339, 2022-02-04)"
   xmlns:inkscape="http://www.inkscape.org/namespaces/inkscape"
   xmlns:sodipodi="http://sodipodi.sourceforge.net/DTD/sodipodi-0.dtd"
   xmlns:xlink="http://www.w3.org/1999/xlink"
   xmlns="http://www.w3.org/2000/svg"
   xmlns:svg="http://www.w3.org/2000/svg"
   xmlns:rdf="http://www.w3.org/1999/02/22-rdf-syntax-ns#"
   xmlns:cc="http://creativecommons.org/ns#"
   xmlns:dc="http://purl.org/dc/elements/1.1/">
  <sodipodi:namedview
     pagecolor="#ffffff"
     bordercolor="#666666"
     borderopacity="1"
     objecttolerance="10"
     gridtolerance="10"
     guidetolerance="10"
     inkscape:pageopacity="0"
     inkscape:pageshadow="2"
     inkscape:window-width="1317"
     inkscape:window-height="890"
     id="namedview47"
     showgrid="false"
     inkscape:zoom="6.1953127"
     inkscape:cx="46.970995"
     inkscape:cy="90.310212"
     inkscape:window-x="218"
     inkscape:window-y="525"
     inkscape:window-maximized="0"
     inkscape:current-layer="svg2453"
     inkscape:pagecheckerboard="0" />
  <metadata
     id="metadata35">
    <rdf:RDF>
      <cc:Work
         rdf:about="">
        <dc:format>image/svg+xml</dc:format>
        <dc:type
           rdf:resource="http://purl.org/dc/dcmitype/StillImage" />
      </cc:Work>
    </rdf:RDF>
  </metadata>
  <defs
     id="defs2455">
    <linearGradient
       id="linearGradient3104-6">
      <stop
         id="stop3106-3"
         style="stop-color:#000000;stop-opacity:0.31782946"
         offset="0" />
      <stop
         id="stop3108-9"
         style="stop-color:#000000;stop-opacity:0.24031007"
         offset="1" />
    </linearGradient>
    <linearGradient
       id="linearGradient3977-4">
      <stop
         id="stop3979-7"
         style="stop-color:#ffffff;stop-opacity:1"
         offset="0" />
      <stop
         id="stop3981-6"
         style="stop-color:#ffffff;stop-opacity:0.23529412"
         offset="0.01214366" />
      <stop
         id="stop3983-5"
         style="stop-color:#ffffff;stop-opacity:0.15686275"
         offset="0.98781353" />
      <stop
         id="stop3985-6"
         style="stop-color:#ffffff;stop-opacity:0.39215687"
         offset="1" />
    </linearGradient>
    <linearGradient
       id="linearGradient3600-9">
      <stop
         id="stop3602-3"
         style="stop-color:#f4f4f4;stop-opacity:1"
         offset="0" />
      <stop
         id="stop3604-7"
         style="stop-color:#dbdbdb;stop-opacity:1"
         offset="1" />
    </linearGradient>
    <linearGradient
       x1="-51.786404"
       y1="50.786446"
       x2="-51.786404"
       y2="2.9062471"
       id="linearGradient3163"
       xlink:href="#linearGradient3104-6"
       gradientUnits="userSpaceOnUse"
       gradientTransform="matrix(2.7454832,0,0,1.891103,184.39451,16.150254)" />
    <linearGradient
       x1="23.99999"
       y1="5.8641062"
       x2="23.99999"
       y2="42.100208"
       id="linearGradient3166"
       xlink:href="#linearGradient3977-4"
       gradientUnits="userSpaceOnUse"
       gradientTransform="matrix(3.1621625,0,0,2.4594528,-11.891872,10.973089)" />
    <linearGradient
       x1="25.132275"
       y1="0.98520643"
       x2="25.132275"
       y2="47.013336"
       id="linearGradient3169"
       xlink:href="#linearGradient3600-9"
       gradientUnits="userSpaceOnUse"
       gradientTransform="matrix(3.3714209,0,0,1.9989951,-16.914104,18.957182)" />
    <linearGradient
       x1="164.28023"
       y1="241.65149"
       x2="164.28023"
       y2="156.78416"
       id="linearGradient3077-9"
       xlink:href="#linearGradient4785-3-8"
       gradientUnits="userSpaceOnUse"
       gradientTransform="matrix(1.2569307,0,0,0.94782755,-146.4808,-118.67047)" />
    <linearGradient
       id="linearGradient4785-3-8">
      <stop
         id="stop4787-5-5"
         style="stop-color:#262626;stop-opacity:1"
         offset="0" />
      <stop
         id="stop4789-1-1"
         style="stop-color:#4d4d4d;stop-opacity:1"
         offset="1" />
    </linearGradient>
    <linearGradient
       x1="30.305618"
       y1="6.9420786"
       x2="30.305618"
       y2="36.268814"
       id="linearGradient3079-1"
       xlink:href="#linearGradient3610-302-9-7-6"
       gradientUnits="userSpaceOnUse"
       gradientTransform="matrix(2.8534369,0,0,2.7689842,7.4439672,10.540985)" />
    <linearGradient
       id="linearGradient3610-302-9-7-6">
      <stop
         id="stop3796-3-8-6"
         style="stop-color:#1d1d1d;stop-opacity:1"
         offset="0" />
      <stop
         id="stop3798-1-9-9"
         style="stop-color:#000000;stop-opacity:1"
         offset="1" />
    </linearGradient>
    <radialGradient
       gradientTransform="matrix(2.003784,0,0,1.4,27.98813,-17.4)"
       gradientUnits="userSpaceOnUse"
       xlink:href="#linearGradient3688-464-309-8"
       id="radialGradient4093-8"
       fy="43.5"
       fx="4.9929786"
       r="2.5"
       cy="43.5"
       cx="4.9929786" />
    <linearGradient
       id="linearGradient3688-464-309-8">
      <stop
         offset="0"
         style="stop-color:#181818;stop-opacity:1"
         id="stop2889-9" />
      <stop
         offset="1"
         style="stop-color:#181818;stop-opacity:0"
         id="stop2891-4" />
    </linearGradient>
    <radialGradient
       gradientTransform="matrix(2.003784,0,0,1.4,-20.01187,-104.4)"
       gradientUnits="userSpaceOnUse"
       xlink:href="#linearGradient3688-464-309-8"
       id="radialGradient4095-5"
       fy="43.5"
       fx="4.9929786"
       r="2.5"
       cy="43.5"
       cx="4.9929786" />
    <linearGradient
       gradientUnits="userSpaceOnUse"
       xlink:href="#linearGradient3702-501-757-0"
       id="linearGradient4097-9"
       y2="39.999443"
       x2="25.058096"
       y1="47.027729"
       x1="25.058096" />
    <linearGradient
       id="linearGradient3702-501-757-0">
      <stop
         offset="0"
         style="stop-color:#181818;stop-opacity:0"
         id="stop2895-0" />
      <stop
         offset="0.5"
         style="stop-color:#181818;stop-opacity:1"
         id="stop2897-2" />
      <stop
         offset="1"
         style="stop-color:#181818;stop-opacity:0"
         id="stop2899-6" />
    </linearGradient>
    <linearGradient
       id="linearGradient3654-601">
      <stop
         id="stop3808"
         style="stop-color:#ffffff;stop-opacity:1"
         offset="0" />
      <stop
         id="stop3810"
         style="stop-color:#ffffff;stop-opacity:0"
         offset="1" />
    </linearGradient>
    <linearGradient
       x1="19.565496"
       y1="33.997028"
       x2="19.565496"
       y2="38.449821"
       id="linearGradient3219"
       xlink:href="#linearGradient3654-601"
       gradientUnits="userSpaceOnUse"
       gradientTransform="matrix(2.4831658,0,0,2.4974538,5.0907454,1.0634419)" />
  </defs>
  <g
     style="display:inline"
     id="g2036"
     transform="matrix(3.0249988,0,0,0.55555607,-8.6000014,92.88888)">
    <g
       style="opacity:0.4"
       id="g3712"
       transform="matrix(1.052632,0,0,1.285713,-1.263158,-13.42854)">
      <rect
         style="fill:url(#radialGradient4093-8);fill-opacity:1;stroke:none"
         id="rect2801-5"
         y="40"
         x="38"
         height="7"
         width="5" />
      <rect
         style="fill:url(#radialGradient4095-5);fill-opacity:1;stroke:none"
         id="rect3696-7"
         transform="scale(-1)"
         y="-47"
         x="-10"
         height="7"
         width="5" />
      <rect
         style="fill:url(#linearGradient4097-9);fill-opacity:1;stroke:none"
         id="rect3700-7"
         y="40"
         x="10"
         height="7.0000005"
         width="28" />
    </g>
  </g>
  <path
     d="m 5,24.000038 c 27.039789,0 117.99986,0.0064 117.99986,0.0064 L 123,116.00004 c 0,0 -78.666665,0 -118,0 C 5,85.333359 5,54.667141 5,24.00057 Z"
     id="path4160-6"
     style="display:inline;fill:url(#linearGradient3169);fill-opacity:1;stroke:none;stroke-width:0.999999" />
  <rect
     width="107.00001"
     height="81"
     x="10.500001"
     y="29.500036"
     id="rect3180"
     style="color:#000000;display:inline;overflow:visible;visibility:visible;fill:url(#linearGradient3077-9);fill-opacity:1;fill-rule:nonzero;stroke:url(#linearGradient3079-1);stroke-width:1;stroke-linecap:round;stroke-linejoin:miter;stroke-miterlimit:4;stroke-dasharray:none;stroke-dashoffset:0;stroke-opacity:1;marker:none;enable-background:accumulate" />
  <path
     d="M 122.5,115.50004 H 5.5000003 V 24.500039 H 122.5 Z"
     id="rect6741-1-8"
     style="fill:none;stroke:url(#linearGradient3166);stroke-width:1;stroke-linecap:round;stroke-linejoin:miter;stroke-miterlimit:4;stroke-dasharray:none;stroke-dashoffset:0;stroke-opacity:1" />
  <path
     d="m 4.4999987,23.499999 c 27.2689163,0 118.9998713,0.0064 118.9998713,0.0064 L 123.5,116.5 c 0,0 -79.333331,0 -119.0000015,0 0,-31.000079 0,-61.999855 0,-92.99958 z"
     id="path4160-6-1"
     style="display:inline;fill:none;stroke:url(#linearGradient3163);stroke-width:0.999995;stroke-linecap:butt;stroke-linejoin:round;stroke-miterlimit:4;stroke-dasharray:none;stroke-dashoffset:0;stroke-opacity:1" />
  <path
     d="m 30,56.053682 c 0,9.989817 0,19.979632 0,29.969445 0.94505,0 1.92611,0 2.87116,0 0,-9.989813 0,-19.979628 0,-29.969445 -0.94505,0 -1.92611,0 -2.87116,0 z m 23.20208,0 c -4.071722,0.325018 -7.951603,2.14285 -10.553453,5.385135 -5.683013,6.563166 -3.949884,17.993702 3.56955,22.399038 6.565061,3.78813 16.038182,2.681664 20.796512,-3.512046 -0.74575,-0.568998 -1.50462,-1.147998 -2.25037,-1.716997 -4.078334,5.222199 -12.218699,6.248789 -17.537358,2.419407 -5.988318,-4.036241 -6.672368,-13.631068 -1.474378,-18.574812 5.129017,-5.213765 14.716574,-4.666685 19.011736,1.326772 0.74576,-0.575466 1.50462,-1.14153 2.25037,-1.716998 -3.09651,-4.403853 -8.57754,-6.427377 -13.812609,-6.009499 z m 31.660359,0 c -2.91406,-0.02174 -5.81178,0.860906 -8.22548,2.497456 -7.11002,4.567363 -8.7406,15.596032 -3.18156,22.008809 4.74593,6.130062 14.38609,7.280818 20.48611,2.5755 4.56978,-3.293816 6.832701,-9.217039 5.81992,-14.750586 -1.02008,-7.090052 -7.81663,-12.622363 -14.89899,-12.331179 z m -1.00878,2.809635 c 0.38863,-0.03652 0.76906,-0.0072 1.16398,0 1.44435,-0.0024 2.91854,0.261568 4.26794,0.780454 5.24061,1.829134 8.54205,7.544012 7.68229,13.033587 -0.54156,5.936392 -6.05355,10.712169 -11.95023,10.536135 -6.58461,0.250504 -12.44382,-5.895333 -11.95023,-12.487269 -0.0556,-5.965335 4.95677,-11.315239 10.78625,-11.862907 z"
     id="path2435"
     style="font-style:normal;font-variant:normal;font-weight:normal;font-stretch:normal;font-size:15.9068px;font-family:'Century Gothic';-inkscape-font-specification:'Century Gothic';fill:#ffffff;fill-opacity:1;stroke:none;stroke-width:1px;stroke-linecap:butt;stroke-linejoin:miter;stroke-opacity:1" />
  <path
     d="m 30,115.94632 c 0,-9.98982 0,-19.979638 0,-29.969453 0.94505,0 1.92611,0 2.87116,0 0,9.989815 0,19.979633 0,29.969453 -0.94505,0 -1.92611,0 -2.87116,0 z m 23.20208,0 c -4.071722,-0.32502 -7.951603,-2.14286 -10.553453,-5.38514 -5.683013,-6.56316 -3.949884,-17.993704 3.56955,-22.399041 6.565061,-3.788128 16.038182,-2.681662 20.796512,3.512045 -0.74575,0.569 -1.50462,1.148 -2.25037,1.717 -4.078334,-5.222203 -12.218699,-6.248789 -17.537358,-2.41941 -5.988318,4.036242 -6.672368,13.631066 -1.474378,18.574806 5.129017,5.21378 14.716574,4.6667 19.011736,-1.32676 0.74576,0.57546 1.50462,1.14152 2.25037,1.717 -3.09651,4.40384 -8.57754,6.42738 -13.812609,6.0095 z m 31.660359,0 c -2.91406,0.0218 -5.81178,-0.86092 -8.22548,-2.49746 -7.11002,-4.56736 -8.7406,-15.596036 -3.18156,-22.008814 4.74593,-6.130061 14.38609,-7.280817 20.48611,-2.575498 4.56978,3.293814 6.832701,9.217042 5.81992,14.750592 -1.02008,7.09004 -7.81663,12.62236 -14.89899,12.33118 z m -1.00878,-2.80964 c 0.38863,0.0366 0.76906,0.008 1.16398,0 1.44435,0.002 2.91854,-0.26156 4.26794,-0.78046 5.24061,-1.82912 8.54205,-7.544 7.68229,-13.03358 -0.54156,-5.936394 -6.05355,-10.712173 -11.95023,-10.53614 -6.58461,-0.250501 -12.44382,5.895334 -11.95023,12.48728 -0.0556,5.96532 4.95677,11.31524 10.78625,11.8629 z"
     id="path2441"
     style="font-style:normal;font-variant:normal;font-weight:normal;font-stretch:normal;font-size:15.9068px;font-family:'Century Gothic';-inkscape-font-specification:'Century Gothic';opacity:0.15;fill:url(#linearGradient3219);fill-opacity:1;stroke:none;stroke-width:1px;stroke-linecap:butt;stroke-linejoin:miter;stroke-opacity:1" />
</svg>
