<?xml version="1.0" encoding="UTF-8" standalone="no"?>
<svg
   version="1.0"
   width="128"
   height="128"
   id="svg2453"
   sodipodi:docname="image-jpeg.svg"
   inkscape:version="1.1.1 (3bf5ae0d25, 2021-09-20)"
   xmlns:inkscape="http://www.inkscape.org/namespaces/inkscape"
   xmlns:sodipodi="http://sodipodi.sourceforge.net/DTD/sodipodi-0.dtd"
   xmlns:xlink="http://www.w3.org/1999/xlink"
   xmlns="http://www.w3.org/2000/svg"
   xmlns:svg="http://www.w3.org/2000/svg"
   xmlns:rdf="http://www.w3.org/1999/02/22-rdf-syntax-ns#"
   xmlns:cc="http://creativecommons.org/ns#"
   xmlns:dc="http://purl.org/dc/elements/1.1/">
  <sodipodi:namedview
     pagecolor="#ffffff"
     bordercolor="#666666"
     borderopacity="1"
     objecttolerance="10"
     gridtolerance="10"
     guidetolerance="10"
     inkscape:pageopacity="0"
     inkscape:pageshadow="2"
     inkscape:window-width="1317"
     inkscape:window-height="890"
     id="namedview47"
     showgrid="false"
     inkscape:zoom="3.0976563"
     inkscape:cx="72.474148"
     inkscape:cy="79.092054"
     inkscape:window-x="601"
     inkscape:window-y="85"
     inkscape:window-maximized="0"
     inkscape:current-layer="svg2453"
     inkscape:pagecheckerboard="0" />
  <metadata
     id="metadata35">
    <rdf:RDF>
      <cc:Work
         rdf:about="">
        <dc:format>image/svg+xml</dc:format>
        <dc:type
           rdf:resource="http://purl.org/dc/dcmitype/StillImage" />
      </cc:Work>
    </rdf:RDF>
  </metadata>
  <defs
     id="defs2455">
    <linearGradient
       id="linearGradient3104-6">
      <stop
         id="stop3106-3"
         style="stop-color:#000000;stop-opacity:0.31782946"
         offset="0" />
      <stop
         id="stop3108-9"
         style="stop-color:#000000;stop-opacity:0.24031007"
         offset="1" />
    </linearGradient>
    <linearGradient
       id="linearGradient3977-4">
      <stop
         id="stop3979-7"
         style="stop-color:#ffffff;stop-opacity:1"
         offset="0" />
      <stop
         id="stop3981-6"
         style="stop-color:#ffffff;stop-opacity:0.23529412"
         offset="0.01214366" />
      <stop
         id="stop3983-5"
         style="stop-color:#ffffff;stop-opacity:0.15686275"
         offset="0.98781353" />
      <stop
         id="stop3985-6"
         style="stop-color:#ffffff;stop-opacity:0.39215687"
         offset="1" />
    </linearGradient>
    <linearGradient
       id="linearGradient3600-9">
      <stop
         id="stop3602-3"
         style="stop-color:#f4f4f4;stop-opacity:1"
         offset="0" />
      <stop
         id="stop3604-7"
         style="stop-color:#dbdbdb;stop-opacity:1"
         offset="1" />
    </linearGradient>
    <linearGradient
       x1="-51.786404"
       y1="50.786446"
       x2="-51.786404"
       y2="2.9062471"
       id="linearGradient3163"
       xlink:href="#linearGradient3104-6"
       gradientUnits="userSpaceOnUse"
       gradientTransform="matrix(2.7454832,0,0,1.891103,184.39451,16.150254)" />
    <linearGradient
       x1="23.99999"
       y1="5.8641062"
       x2="23.99999"
       y2="42.100208"
       id="linearGradient3166"
       xlink:href="#linearGradient3977-4"
       gradientUnits="userSpaceOnUse"
       gradientTransform="matrix(3.1621625,0,0,2.4594528,-11.891872,10.973089)" />
    <linearGradient
       x1="25.132275"
       y1="0.98520643"
       x2="25.132275"
       y2="47.013336"
       id="linearGradient3169"
       xlink:href="#linearGradient3600-9"
       gradientUnits="userSpaceOnUse"
       gradientTransform="matrix(3.3714209,0,0,1.9989951,-16.914104,18.957182)" />
    <linearGradient
       x1="164.28023"
       y1="241.65149"
       x2="164.28023"
       y2="156.78416"
       id="linearGradient3077-9"
       xlink:href="#linearGradient4785-3-8"
       gradientUnits="userSpaceOnUse"
       gradientTransform="matrix(1.2569307,0,0,0.94782755,-146.4808,-118.67047)" />
    <linearGradient
       id="linearGradient4785-3-8">
      <stop
         id="stop4787-5-5"
         style="stop-color:#262626;stop-opacity:1"
         offset="0" />
      <stop
         id="stop4789-1-1"
         style="stop-color:#4d4d4d;stop-opacity:1"
         offset="1" />
    </linearGradient>
    <linearGradient
       x1="30.305618"
       y1="6.9420786"
       x2="30.305618"
       y2="36.268814"
       id="linearGradient3079-1"
       xlink:href="#linearGradient3610-302-9-7-6"
       gradientUnits="userSpaceOnUse"
       gradientTransform="matrix(2.8534369,0,0,2.7689842,7.4439672,10.540985)" />
    <linearGradient
       id="linearGradient3610-302-9-7-6">
      <stop
         id="stop3796-3-8-6"
         style="stop-color:#1d1d1d;stop-opacity:1"
         offset="0" />
      <stop
         id="stop3798-1-9-9"
         style="stop-color:#000000;stop-opacity:1"
         offset="1" />
    </linearGradient>
    <radialGradient
       gradientTransform="matrix(2.003784,0,0,1.4,27.98813,-17.4)"
       gradientUnits="userSpaceOnUse"
       xlink:href="#linearGradient3688-464-309-8"
       id="radialGradient4093-8"
       fy="43.5"
       fx="4.9929786"
       r="2.5"
       cy="43.5"
       cx="4.9929786" />
    <linearGradient
       id="linearGradient3688-464-309-8">
      <stop
         offset="0"
         style="stop-color:#181818;stop-opacity:1"
         id="stop2889-9" />
      <stop
         offset="1"
         style="stop-color:#181818;stop-opacity:0"
         id="stop2891-4" />
    </linearGradient>
    <radialGradient
       gradientTransform="matrix(2.003784,0,0,1.4,-20.01187,-104.4)"
       gradientUnits="userSpaceOnUse"
       xlink:href="#linearGradient3688-464-309-8"
       id="radialGradient4095-5"
       fy="43.5"
       fx="4.9929786"
       r="2.5"
       cy="43.5"
       cx="4.9929786" />
    <linearGradient
       gradientUnits="userSpaceOnUse"
       xlink:href="#linearGradient3702-501-757-0"
       id="linearGradient4097-9"
       y2="39.999443"
       x2="25.058096"
       y1="47.027729"
       x1="25.058096" />
    <linearGradient
       id="linearGradient3702-501-757-0">
      <stop
         offset="0"
         style="stop-color:#181818;stop-opacity:0"
         id="stop2895-0" />
      <stop
         offset="0.5"
         style="stop-color:#181818;stop-opacity:1"
         id="stop2897-2" />
      <stop
         offset="1"
         style="stop-color:#181818;stop-opacity:0"
         id="stop2899-6" />
    </linearGradient>
    <linearGradient
       x1="19.561541"
       y1="-30.555109"
       x2="19.561541"
       y2="-35.125931"
       id="linearGradient2618"
       xlink:href="#linearGradient3654-601"
       gradientUnits="userSpaceOnUse"
       gradientTransform="matrix(1.9726584,0,0,-2.0277206,15.996363,17.52759)" />
    <linearGradient
       id="linearGradient3654-601">
      <stop
         id="stop3808"
         style="stop-color:#ffffff;stop-opacity:1"
         offset="0" />
      <stop
         id="stop3810"
         style="stop-color:#ffffff;stop-opacity:0"
         offset="1" />
    </linearGradient>
    <linearGradient
       x1="19.561541"
       y1="-30.555109"
       x2="19.561541"
       y2="-35.125931"
       id="linearGradient2615"
       xlink:href="#linearGradient3654-601"
       gradientUnits="userSpaceOnUse"
       gradientTransform="matrix(2.0343036,0,0,-2.0277206,14.576891,17.52759)" />
    <linearGradient
       x1="19.561541"
       y1="-30.555109"
       x2="19.561541"
       y2="-35.125931"
       id="linearGradient2612"
       xlink:href="#linearGradient3654-601"
       gradientUnits="userSpaceOnUse"
       gradientTransform="matrix(1.9726584,0,0,-2.0277206,15.996363,18.0119)" />
    <linearGradient
       x1="24.285715"
       y1="34"
       x2="24.285715"
       y2="38.449261"
       id="linearGradient20256"
       xlink:href="#linearGradient3654-601"
       gradientUnits="userSpaceOnUse"
       gradientTransform="matrix(2.5,0,0,2.5,5.2499996,1.0000077)" />
    <linearGradient
       x1="19.857143"
       y1="33.986282"
       x2="19.857143"
       y2="38.430866"
       id="linearGradient20332"
       xlink:href="#linearGradient3654-601"
       gradientUnits="userSpaceOnUse"
       gradientTransform="matrix(2.5,0,0,2.5,4,1.0782509)" />
    <linearGradient
       x1="22.726027"
       y1="34"
       x2="22.726027"
       y2="38.431622"
       id="linearGradient3217"
       xlink:href="#linearGradient3654-601"
       gradientUnits="userSpaceOnUse"
       gradientTransform="matrix(2.4999985,0,0,2.4999985,4.0000144,1.0000773)" />
  </defs>
  <g
     style="display:inline"
     id="g2036"
     transform="matrix(3.0249988,0,0,0.55555607,-8.6000014,92.88888)">
    <g
       style="opacity:0.4"
       id="g3712"
       transform="matrix(1.052632,0,0,1.285713,-1.263158,-13.42854)">
      <rect
         style="fill:url(#radialGradient4093-8);fill-opacity:1;stroke:none"
         id="rect2801-5"
         y="40"
         x="38"
         height="7"
         width="5" />
      <rect
         style="fill:url(#radialGradient4095-5);fill-opacity:1;stroke:none"
         id="rect3696-7"
         transform="scale(-1)"
         y="-47"
         x="-10"
         height="7"
         width="5" />
      <rect
         style="fill:url(#linearGradient4097-9);fill-opacity:1;stroke:none"
         id="rect3700-7"
         y="40"
         x="10"
         height="7.0000005"
         width="28" />
    </g>
  </g>
  <path
     d="m 5,24.000038 c 27.039789,0 117.99986,0.0064 117.99986,0.0064 L 123,116.00004 c 0,0 -78.666665,0 -118,0 C 5,85.333359 5,54.667141 5,24.00057 Z"
     id="path4160-6"
     style="display:inline;fill:url(#linearGradient3169);fill-opacity:1;stroke:none;stroke-width:0.999999" />
  <rect
     width="107.00001"
     height="81"
     x="10.500001"
     y="29.500036"
     id="rect3180"
     style="color:#000000;display:inline;overflow:visible;visibility:visible;fill:url(#linearGradient3077-9);fill-opacity:1;fill-rule:nonzero;stroke:url(#linearGradient3079-1);stroke-width:1;stroke-linecap:round;stroke-linejoin:miter;stroke-miterlimit:4;stroke-dasharray:none;stroke-dashoffset:0;stroke-opacity:1;marker:none;enable-background:accumulate" />
  <path
     d="M 122.5,115.50004 H 5.5000003 V 24.500039 H 122.5 Z"
     id="rect6741-1-8"
     style="fill:none;stroke:url(#linearGradient3166);stroke-width:1;stroke-linecap:round;stroke-linejoin:miter;stroke-miterlimit:4;stroke-dasharray:none;stroke-dashoffset:0;stroke-opacity:1" />
  <path
     d="m 4.4999987,23.499999 c 27.2689163,0 118.9998713,0.0064 118.9998713,0.0064 L 123.5,116.5 c 0,0 -79.333331,0 -119.0000015,0 0,-31.000079 0,-61.999855 0,-92.99958 z"
     id="path4160-6-1"
     style="display:inline;fill:none;stroke:url(#linearGradient3163);stroke-width:0.999995;stroke-linecap:butt;stroke-linejoin:round;stroke-miterlimit:4;stroke-dasharray:none;stroke-dashoffset:0;stroke-opacity:1" />
  <path
     d="m 38.415109,56.000045 c 1.024059,0 2.048124,0 3.072185,0 -0.05367,7.5905 0.1172,15.18615 -0.1051,22.77285 0.03805,3.02596 -1.688888,6.27402 -4.996193,6.95087 -3.55614,0.92184 -7.245162,-0.57471 -9.885999,-2.83863 0.665931,-0.56844 1.090311,-2.36343 1.914359,-2.12899 2.521562,2.0363 7.297872,4.11811 9.315723,0.33805 1.12376,-3.26589 0.539378,-6.78748 0.685025,-10.17744 0,-4.97224 0,-9.94447 0,-14.91671 z m 10.584879,0.01 c 0,9.92036 0,19.87599 0,29.79635 0.621149,0.38817 1.950764,0.0534 2.83173,0.16372 0,-4.1381 0,-8.30433 0,-12.44243 -0.321634,-1.38985 0.317668,-1.72499 1.530663,-1.47344 3.963375,-0.16138 8.765512,0.53579 11.633062,-3.11061 2.954238,-3.95412 1.415288,-10.88378 -3.367462,-12.27873 -4.1299,-1.01679 -8.420813,-0.52941 -12.627993,-0.65486 z m 2.83173,2.94689 c 2.88935,0.0918 5.807413,-0.26298 8.648263,0.4093 3.659425,1.0494 4.23145,7.04311 0.9184,8.92252 -3.000113,1.42359 -6.378875,0.69551 -9.566663,0.81859 0,-3.39089 0,-6.75953 0,-10.15041 z m 47.995875,2.55807 c -0.727175,0.69816 -1.454325,1.39633 -2.181475,2.09448 -4.168,-4.3434 -11.09405,-6.31723 -16.558225,-3.32193 -5.4683,2.55115 -8.273775,9.70306 -5.695212,15.28756 2.967062,7.53294 13.725987,10.27633 19.749087,4.88135 1.43665,-1.24307 4.045225,-5.07026 2.565425,-6.12251 -2.78225,0 -5.5645,0 -8.34675,0 0.11325,-0.85627 -0.22125,-2.16619 0.157,-2.75385 3.99165,0 7.983325,0 11.974967,0 0.1695,5.28674 -2.506167,10.82499 -7.423567,13.02243 -6.51615,2.83641 -15.104662,1.37187 -19.503212,-4.5478 -4.938375,-6.04405 -3.747363,-15.94938 2.399637,-20.69547 6.40015,-5.15647 16.291925,-4.14695 22.108875,1.4582 l 0.37735,0.34257 0.376125,0.35497 z"
     id="path2435"
     style="font-style:normal;font-variant:normal;font-weight:normal;font-stretch:normal;font-size:15.9068px;font-family:'Century Gothic';-inkscape-font-specification:'Century Gothic';fill:#ffffff;fill-opacity:1;stroke:none;stroke-width:0.999999px;stroke-linecap:butt;stroke-linejoin:miter;stroke-opacity:1" />
  <path
     d="m 38.415109,116.00001 c 1.024059,0 2.048124,0 3.072185,0 -0.05367,-7.5905 0.1172,-15.18615 -0.1051,-22.772845 0.03805,-3.02597 -1.688888,-6.27402 -4.996193,-6.95088 -3.55614,-0.92184 -7.245162,0.57471 -9.885999,2.83865 0.665931,0.56843 1.090311,2.36341 1.914359,2.12897 2.521562,-2.0363 7.297872,-4.11811 9.315723,-0.33805 1.12376,3.2659 0.539378,6.78748 0.685025,10.177445 0,4.97224 0,9.94447 0,14.91671 z m 10.584879,-0.01 c 0,-9.92036 0,-19.875975 0,-29.796355 0.621149,-0.38817 1.950764,-0.0534 2.83173,-0.16372 0,4.1381 0,8.30433 0,12.44243 -0.321634,1.38985 0.317668,1.725005 1.530663,1.47345 3.963375,0.161385 8.765512,-0.53578 11.633062,3.110605 2.954238,3.95412 1.415288,10.88378 -3.367462,12.27873 -4.1299,1.01679 -8.420813,0.52942 -12.627993,0.65486 z m 2.83173,-2.94689 c 2.88935,-0.0918 5.807413,0.26299 8.648263,-0.40928 3.659425,-1.0494 4.23145,-7.04313 0.9184,-8.92254 -3.000113,-1.42358 -6.378875,-0.6955 -9.566663,-0.81858 0,3.39089 0,6.75952 0,10.1504 z m 47.995875,-2.55807 c -0.727175,-0.69816 -1.454325,-1.39631 -2.181475,-2.09448 -4.168,4.3434 -11.09405,6.31723 -16.558225,3.32193 -5.4683,-2.55115 -8.273775,-9.70306 -5.695212,-15.287565 2.967062,-7.53294 13.725987,-10.27633 19.749087,-4.88134 1.43665,1.24307 4.045225,5.07026 2.565425,6.12251 -2.78225,0 -5.5645,0 -8.34675,0 0.11325,0.85626 -0.22125,2.16619 0.157,2.753845 3.99165,0 7.983325,0 11.974967,0 0.1695,-5.286745 -2.506167,-10.824995 -7.423567,-13.022435 -6.51615,-2.83641 -15.104662,-1.37187 -19.503212,4.5478 -4.938375,6.04405 -3.747363,15.949385 2.399637,20.695475 6.40015,5.15647 16.291925,4.14695 22.108875,-1.45819 l 0.37735,-0.34256 0.376125,-0.35499 z"
     id="path2439"
     style="font-style:normal;font-variant:normal;font-weight:normal;font-stretch:normal;font-size:15.9068px;font-family:'Century Gothic';-inkscape-font-specification:'Century Gothic';opacity:0.15;fill:url(#linearGradient3217);fill-opacity:1;stroke:none;stroke-width:0.999999px;stroke-linecap:butt;stroke-linejoin:miter;stroke-opacity:1" />
</svg>
