<?xml version="1.0" encoding="UTF-8" standalone="no"?>
<svg
   version="1.0"
   width="128"
   height="128"
   id="svg2453"
   sodipodi:docname="image-bmp.svg"
   inkscape:version="1.1.1 (3bf5ae0d25, 2021-09-20)"
   xmlns:inkscape="http://www.inkscape.org/namespaces/inkscape"
   xmlns:sodipodi="http://sodipodi.sourceforge.net/DTD/sodipodi-0.dtd"
   xmlns:xlink="http://www.w3.org/1999/xlink"
   xmlns="http://www.w3.org/2000/svg"
   xmlns:svg="http://www.w3.org/2000/svg"
   xmlns:rdf="http://www.w3.org/1999/02/22-rdf-syntax-ns#"
   xmlns:cc="http://creativecommons.org/ns#"
   xmlns:dc="http://purl.org/dc/elements/1.1/">
  <sodipodi:namedview
     pagecolor="#ffffff"
     bordercolor="#666666"
     borderopacity="1"
     objecttolerance="10"
     gridtolerance="10"
     guidetolerance="10"
     inkscape:pageopacity="0"
     inkscape:pageshadow="2"
     inkscape:window-width="1317"
     inkscape:window-height="890"
     id="namedview47"
     showgrid="false"
     inkscape:zoom="3.0976563"
     inkscape:cx="56.010087"
     inkscape:cy="79.092054"
     inkscape:window-x="601"
     inkscape:window-y="81"
     inkscape:window-maximized="0"
     inkscape:current-layer="svg2453"
     inkscape:pagecheckerboard="0" />
  <metadata
     id="metadata35">
    <rdf:RDF>
      <cc:Work
         rdf:about="">
        <dc:format>image/svg+xml</dc:format>
        <dc:type
           rdf:resource="http://purl.org/dc/dcmitype/StillImage" />
      </cc:Work>
    </rdf:RDF>
  </metadata>
  <defs
     id="defs2455">
    <linearGradient
       id="linearGradient3104-6">
      <stop
         id="stop3106-3"
         style="stop-color:#000000;stop-opacity:0.31782946"
         offset="0" />
      <stop
         id="stop3108-9"
         style="stop-color:#000000;stop-opacity:0.24031007"
         offset="1" />
    </linearGradient>
    <linearGradient
       id="linearGradient3977-4">
      <stop
         id="stop3979-7"
         style="stop-color:#ffffff;stop-opacity:1"
         offset="0" />
      <stop
         id="stop3981-6"
         style="stop-color:#ffffff;stop-opacity:0.23529412"
         offset="0.01214366" />
      <stop
         id="stop3983-5"
         style="stop-color:#ffffff;stop-opacity:0.15686275"
         offset="0.98781353" />
      <stop
         id="stop3985-6"
         style="stop-color:#ffffff;stop-opacity:0.39215687"
         offset="1" />
    </linearGradient>
    <linearGradient
       id="linearGradient3600-9">
      <stop
         id="stop3602-3"
         style="stop-color:#f4f4f4;stop-opacity:1"
         offset="0" />
      <stop
         id="stop3604-7"
         style="stop-color:#dbdbdb;stop-opacity:1"
         offset="1" />
    </linearGradient>
    <linearGradient
       x1="-51.786404"
       y1="50.786446"
       x2="-51.786404"
       y2="2.9062471"
       id="linearGradient3163"
       xlink:href="#linearGradient3104-6"
       gradientUnits="userSpaceOnUse"
       gradientTransform="matrix(2.7454832,0,0,1.891103,184.39451,16.150254)" />
    <linearGradient
       x1="23.99999"
       y1="5.8641062"
       x2="23.99999"
       y2="42.100208"
       id="linearGradient3166"
       xlink:href="#linearGradient3977-4"
       gradientUnits="userSpaceOnUse"
       gradientTransform="matrix(3.1621625,0,0,2.4594528,-11.891872,10.973089)" />
    <linearGradient
       x1="25.132275"
       y1="0.98520643"
       x2="25.132275"
       y2="47.013336"
       id="linearGradient3169"
       xlink:href="#linearGradient3600-9"
       gradientUnits="userSpaceOnUse"
       gradientTransform="matrix(3.3714209,0,0,1.9989951,-16.914104,18.957182)" />
    <linearGradient
       x1="164.28023"
       y1="241.65149"
       x2="164.28023"
       y2="156.78416"
       id="linearGradient3077-9"
       xlink:href="#linearGradient4785-3-8"
       gradientUnits="userSpaceOnUse"
       gradientTransform="matrix(1.2569307,0,0,0.94782755,-146.4808,-118.67047)" />
    <linearGradient
       id="linearGradient4785-3-8">
      <stop
         id="stop4787-5-5"
         style="stop-color:#262626;stop-opacity:1"
         offset="0" />
      <stop
         id="stop4789-1-1"
         style="stop-color:#4d4d4d;stop-opacity:1"
         offset="1" />
    </linearGradient>
    <linearGradient
       x1="30.305618"
       y1="6.9420786"
       x2="30.305618"
       y2="36.268814"
       id="linearGradient3079-1"
       xlink:href="#linearGradient3610-302-9-7-6"
       gradientUnits="userSpaceOnUse"
       gradientTransform="matrix(2.8534369,0,0,2.7689842,7.4439672,10.540985)" />
    <linearGradient
       id="linearGradient3610-302-9-7-6">
      <stop
         id="stop3796-3-8-6"
         style="stop-color:#1d1d1d;stop-opacity:1"
         offset="0" />
      <stop
         id="stop3798-1-9-9"
         style="stop-color:#000000;stop-opacity:1"
         offset="1" />
    </linearGradient>
    <radialGradient
       gradientTransform="matrix(2.003784,0,0,1.4,27.98813,-17.4)"
       gradientUnits="userSpaceOnUse"
       xlink:href="#linearGradient3688-464-309-8"
       id="radialGradient4093-8"
       fy="43.5"
       fx="4.9929786"
       r="2.5"
       cy="43.5"
       cx="4.9929786" />
    <linearGradient
       id="linearGradient3688-464-309-8">
      <stop
         offset="0"
         style="stop-color:#181818;stop-opacity:1"
         id="stop2889-9" />
      <stop
         offset="1"
         style="stop-color:#181818;stop-opacity:0"
         id="stop2891-4" />
    </linearGradient>
    <radialGradient
       gradientTransform="matrix(2.003784,0,0,1.4,-20.01187,-104.4)"
       gradientUnits="userSpaceOnUse"
       xlink:href="#linearGradient3688-464-309-8"
       id="radialGradient4095-5"
       fy="43.5"
       fx="4.9929786"
       r="2.5"
       cy="43.5"
       cx="4.9929786" />
    <linearGradient
       gradientUnits="userSpaceOnUse"
       xlink:href="#linearGradient3702-501-757-0"
       id="linearGradient4097-9"
       y2="39.999443"
       x2="25.058096"
       y1="47.027729"
       x1="25.058096" />
    <linearGradient
       id="linearGradient3702-501-757-0">
      <stop
         offset="0"
         style="stop-color:#181818;stop-opacity:0"
         id="stop2895-0" />
      <stop
         offset="0.5"
         style="stop-color:#181818;stop-opacity:1"
         id="stop2897-2" />
      <stop
         offset="1"
         style="stop-color:#181818;stop-opacity:0"
         id="stop2899-6" />
    </linearGradient>
    <linearGradient
       x1="19.561541"
       y1="-30.555109"
       x2="19.561541"
       y2="-35.125931"
       id="linearGradient2618"
       xlink:href="#linearGradient3654-601"
       gradientUnits="userSpaceOnUse"
       gradientTransform="matrix(1.9726584,0,0,-2.0277206,15.996363,17.52759)" />
    <linearGradient
       id="linearGradient3654-601">
      <stop
         id="stop3808"
         style="stop-color:#ffffff;stop-opacity:1"
         offset="0" />
      <stop
         id="stop3810"
         style="stop-color:#ffffff;stop-opacity:0"
         offset="1" />
    </linearGradient>
    <linearGradient
       x1="19.561541"
       y1="-30.555109"
       x2="19.561541"
       y2="-35.125931"
       id="linearGradient2615"
       xlink:href="#linearGradient3654-601"
       gradientUnits="userSpaceOnUse"
       gradientTransform="matrix(2.0343036,0,0,-2.0277206,14.576891,17.52759)" />
    <linearGradient
       x1="19.561541"
       y1="-30.555109"
       x2="19.561541"
       y2="-35.125931"
       id="linearGradient2612"
       xlink:href="#linearGradient3654-601"
       gradientUnits="userSpaceOnUse"
       gradientTransform="matrix(1.9726584,0,0,-2.0277206,15.996363,18.0119)" />
    <linearGradient
       x1="24.285715"
       y1="34"
       x2="24.285715"
       y2="38.449261"
       id="linearGradient20256"
       xlink:href="#linearGradient3654-601"
       gradientUnits="userSpaceOnUse"
       gradientTransform="matrix(2.5,0,0,2.5,5.2499996,1.0000077)" />
    <linearGradient
       x1="19.857143"
       y1="33.986282"
       x2="19.857143"
       y2="38.430866"
       id="linearGradient20332"
       xlink:href="#linearGradient3654-601"
       gradientUnits="userSpaceOnUse"
       gradientTransform="matrix(2.5,0,0,2.5,5.0000001,1.0782509)" />
  </defs>
  <g
     style="display:inline"
     id="g2036"
     transform="matrix(3.0249988,0,0,0.55555607,-8.6000014,92.88888)">
    <g
       style="opacity:0.4"
       id="g3712"
       transform="matrix(1.052632,0,0,1.285713,-1.263158,-13.42854)">
      <rect
         style="fill:url(#radialGradient4093-8);fill-opacity:1;stroke:none"
         id="rect2801-5"
         y="40"
         x="38"
         height="7"
         width="5" />
      <rect
         style="fill:url(#radialGradient4095-5);fill-opacity:1;stroke:none"
         id="rect3696-7"
         transform="scale(-1)"
         y="-47"
         x="-10"
         height="7"
         width="5" />
      <rect
         style="fill:url(#linearGradient4097-9);fill-opacity:1;stroke:none"
         id="rect3700-7"
         y="40"
         x="10"
         height="7.0000005"
         width="28" />
    </g>
  </g>
  <path
     d="m 5,24.000038 c 27.039789,0 117.99986,0.0064 117.99986,0.0064 L 123,116.00004 c 0,0 -78.666665,0 -118,0 C 5,85.333359 5,54.667141 5,24.00057 Z"
     id="path4160-6"
     style="display:inline;fill:url(#linearGradient3169);fill-opacity:1;stroke:none;stroke-width:0.999999" />
  <rect
     width="107.00001"
     height="81"
     x="10.500001"
     y="29.500036"
     id="rect3180"
     style="color:#000000;display:inline;overflow:visible;visibility:visible;fill:url(#linearGradient3077-9);fill-opacity:1;fill-rule:nonzero;stroke:url(#linearGradient3079-1);stroke-width:1;stroke-linecap:round;stroke-linejoin:miter;stroke-miterlimit:4;stroke-dasharray:none;stroke-dashoffset:0;stroke-opacity:1;marker:none;enable-background:accumulate" />
  <path
     d="M 122.5,115.50004 H 5.5000003 V 24.500039 H 122.5 Z"
     id="rect6741-1-8"
     style="fill:none;stroke:url(#linearGradient3166);stroke-width:1;stroke-linecap:round;stroke-linejoin:miter;stroke-miterlimit:4;stroke-dasharray:none;stroke-dashoffset:0;stroke-opacity:1" />
  <path
     d="m 4.4999987,23.499999 c 27.2689163,0 118.9998713,0.0064 118.9998713,0.0064 L 123.5,116.5 c 0,0 -79.333331,0 -119.0000015,0 0,-31.000079 0,-61.999855 0,-92.99958 z"
     id="path4160-6-1"
     style="display:inline;fill:none;stroke:url(#linearGradient3163);stroke-width:0.999995;stroke-linecap:butt;stroke-linejoin:round;stroke-miterlimit:4;stroke-dasharray:none;stroke-dashoffset:0;stroke-opacity:1" />
  <path
     d="m 25.084728,56.019993 c 0,9.45057 0,18.89427 0,28.34485 -0.338605,1.4204 0.362105,1.826 1.66562,1.55742 3.692075,-0.18325 7.558535,0.53105 11.05366,-1.01232 4.463555,-1.93621 6.212027,-8.26241 3.17982,-12.22566 -0.483163,-1.95497 -5.42432,-2.55012 -3.70979,-3.65993 4.114292,-2.68716 3.685332,-9.73054 -0.68139,-11.91417 -3.614618,-1.66243 -7.668905,-0.91299 -11.50792,-1.09019 z m 2.87698,2.8812 c 1.994425,0.0569 4.02092,-0.16045 5.98109,0.31149 2.891882,0.46701 4.058867,4.15687 2.57414,6.54112 -1.732463,3.08616 -5.562523,2.70068 -8.55523,2.72546 0,-3.19147 0,-6.3866 0,-9.57807 z m 0,12.61502 c 2.776595,0.0696 5.719862,-0.237 8.3281,0.93445 3.407157,1.33247 4.292677,6.34527 1.5142,8.79937 -2.71427,2.43412 -6.52571,1.53392 -9.8423,1.71315 0,-3.82164 0,-7.62533 0,-11.44697 z M 47.5,86.043963 c 1.365603,-9.98857 2.731203,-19.97715 4.096803,-29.96571 1.01633,0.0444 1.05401,1.72765 1.650462,2.47518 3.51398,7.37086 7.02796,14.74173 10.54194,22.11258 3.868116,-8.19591 7.736229,-16.39183 11.604341,-24.58776 1.001938,0.049 0.4938,1.90854 0.84785,2.73433 1.252863,9.07712 2.505738,18.15425 3.7586,27.23138 -0.89665,-0.1265 -2.211587,0.2455 -2.8648,-0.171 -0.933387,-7.08641 -1.866775,-14.17282 -2.80015,-21.25922 -3.397675,7.14342 -6.795337,14.28685 -10.193006,21.43027 -1.195457,0.2993 -1.176067,-1.43903 -1.760672,-2.1643 -3.098273,-6.47631 -6.196545,-12.95262 -9.294815,-19.42893 -0.93436,7.19773 -1.86872,14.39548 -2.803078,21.59323 -0.927825,0 -1.85565,0 -2.783475,0 z m 39.999996,-29.94206 c 0,9.92026 0,19.8571 0,29.77736 0.599,0.41485 1.902025,0.032 2.773513,0.156 0,-3.77726 0,-7.60361 0,-11.38087 0.251225,-0.78881 -0.534163,-2.70938 0.5839,-2.5724 3.98135,-0.18635 8.4744,0.65105 11.823911,-2.18263 3.98225,-3.60942 2.64438,-11.68473 -2.55455,-13.17376 -4.136561,-1.0177 -8.412849,-0.4973 -12.626774,-0.6236 z m 2.773513,2.88419 c 2.890912,0.0906 5.8452,-0.28004 8.685462,0.38976 3.665429,1.04959 4.267329,7.08464 0.948838,8.96439 -3.0045,1.42536 -6.441663,0.73339 -9.6343,0.85746 0,-3.39149 0,-6.82012 0,-10.21161 z"
     id="path20306"
     style="font-style:normal;font-variant:normal;font-weight:normal;font-stretch:normal;font-size:16.707px;font-family:'Century Gothic';-inkscape-font-specification:'Century Gothic';fill:#ffffff;fill-opacity:1;stroke:none;stroke-width:1" />
  <path
     d="m 25.084728,116.10224 c 0,-9.4506 0,-18.894277 0,-28.344877 -0.338605,-1.42037 0.362105,-1.826 1.66562,-1.5574 3.692075,0.18325 7.558535,-0.53107 11.05366,1.0123 4.463555,1.93623 6.212027,8.26243 3.17982,12.22568 -0.483163,1.954947 -5.42432,2.550117 -3.70979,3.659917 4.114292,2.68715 3.685332,9.73055 -0.68139,11.91418 -3.614618,1.66242 -7.668905,0.91297 -11.50792,1.0902 z m 2.87698,-2.88123 c 1.994425,-0.057 4.02092,0.1605 5.98109,-0.31147 2.891882,-0.46703 4.058867,-4.15688 2.57414,-6.54113 -1.732463,-3.08615 -5.562523,-2.70067 -8.55523,-2.72547 0,3.19147 0,6.3866 0,9.57807 z m 0,-12.61502 c 2.776595,-0.0697 5.719862,0.237 8.3281,-0.934427 3.407157,-1.33247 4.292677,-6.34527 1.5142,-8.79937 -2.71427,-2.43413 -6.52571,-1.53393 -9.8423,-1.71315 0,3.82165 0,7.62532 0,11.446947 z M 47.5,86.078263 c 1.365603,9.98855 2.731203,19.977127 4.096803,29.965697 1.01633,-0.0445 1.05401,-1.72765 1.650462,-2.47517 3.51398,-7.37088 7.02796,-14.741727 10.54194,-22.112597 3.868116,8.19592 7.736229,16.391847 11.604341,24.587767 1.001938,-0.049 0.4938,-1.90855 0.84785,-2.73432 1.252863,-9.07713 2.505738,-18.154247 3.7586,-27.231377 -0.89665,0.1265 -2.211587,-0.24525 -2.8648,0.171 -0.933387,7.0864 -1.866775,14.172797 -2.80015,21.259197 -3.397675,-7.1434 -6.795337,-14.286847 -10.193006,-21.430247 -1.195457,-0.2993 -1.176067,1.43903 -1.760672,2.16428 -3.098273,6.47632 -6.196545,12.952647 -9.294815,19.428947 -0.93436,-7.19775 -1.86872,-14.395497 -2.803078,-21.593227 -0.927825,0 -1.85565,0 -2.783475,0 z m 39.999996,29.942047 c 0,-9.92027 0,-19.857097 0,-29.777347 0.599,-0.41485 1.902025,-0.032 2.773513,-0.156 0,3.77725 0,7.6036 0,11.38088 0.251225,0.7888 -0.534163,2.709347 0.5839,2.572367 3.98135,0.18625 8.4744,-0.651047 11.823911,2.18265 3.98225,3.6094 2.64438,11.68473 -2.55455,13.17375 -4.136561,1.0177 -8.412849,0.4973 -12.626774,0.6236 z m 2.773513,-2.8842 c 2.890912,-0.0907 5.8452,0.28005 8.685462,-0.38975 3.665429,-1.0496 4.267329,-7.08465 0.948838,-8.9644 -3.0045,-1.42535 -6.441663,-0.73337 -9.6343,-0.85745 0,3.39148 0,6.82013 0,10.2116 z"
     id="path20311"
     style="font-style:normal;font-variant:normal;font-weight:normal;font-stretch:normal;font-size:16.707px;font-family:'Century Gothic';-inkscape-font-specification:'Century Gothic';opacity:0.15;fill:url(#linearGradient20332);fill-opacity:1;stroke:none;stroke-width:1" />
</svg>
