<?xml version="1.0" encoding="UTF-8" standalone="no"?>
<svg
   version="1.1"
   width="128"
   height="128"
   id="svg3172"
   sodipodi:docname="text-rust.svg"
   inkscape:version="1.1.2 (0a00cf5339, 2022-02-04)"
   xmlns:inkscape="http://www.inkscape.org/namespaces/inkscape"
   xmlns:sodipodi="http://sodipodi.sourceforge.net/DTD/sodipodi-0.dtd"
   xmlns:xlink="http://www.w3.org/1999/xlink"
   xmlns="http://www.w3.org/2000/svg"
   xmlns:svg="http://www.w3.org/2000/svg"
   xmlns:rdf="http://www.w3.org/1999/02/22-rdf-syntax-ns#"
   xmlns:cc="http://creativecommons.org/ns#"
   xmlns:dc="http://purl.org/dc/elements/1.1/">
  <sodipodi:namedview
     id="namedview48"
     pagecolor="#ffffff"
     bordercolor="#666666"
     borderopacity="1.0"
     inkscape:pageshadow="2"
     inkscape:pageopacity="0.0"
     inkscape:pagecheckerboard="0"
     showgrid="false"
     inkscape:zoom="5.3281249"
     inkscape:cx="30.123168"
     inkscape:cy="71.882699"
     inkscape:window-width="1317"
     inkscape:window-height="893"
     inkscape:window-x="601"
     inkscape:window-y="63"
     inkscape:window-maximized="0"
     inkscape:current-layer="svg3172" />
  <defs
     id="defs3174">
    <linearGradient
       id="linearGradient3600">
      <stop
         id="stop3602"
         style="stop-color:#f4f4f4;stop-opacity:1"
         offset="0" />
      <stop
         id="stop3604"
         style="stop-color:#dbdbdb;stop-opacity:1"
         offset="1" />
    </linearGradient>
    <linearGradient
       id="linearGradient3702-501-757-486">
      <stop
         id="stop3100"
         style="stop-color:#181818;stop-opacity:0"
         offset="0" />
      <stop
         id="stop3102"
         style="stop-color:#181818;stop-opacity:1"
         offset="0.5" />
      <stop
         id="stop3104"
         style="stop-color:#181818;stop-opacity:0"
         offset="1" />
    </linearGradient>
    <linearGradient
       id="linearGradient3688-464-309-255">
      <stop
         id="stop3094"
         style="stop-color:#181818;stop-opacity:1"
         offset="0" />
      <stop
         id="stop3096"
         style="stop-color:#181818;stop-opacity:0"
         offset="1" />
    </linearGradient>
    <linearGradient
       x1="25.132275"
       y1="0.98520643"
       x2="25.132275"
       y2="47.013336"
       id="linearGradient3019-2"
       xlink:href="#linearGradient3600"
       gradientUnits="userSpaceOnUse"
       gradientTransform="matrix(2.6285655,0,0,2.5204893,0.914429,-4.3579715)" />
    <linearGradient
       x1="23.99999"
       y1="5.5641499"
       x2="23.99999"
       y2="42.194839"
       id="linearGradient3016-9"
       xlink:href="#linearGradient3977-3"
       gradientUnits="userSpaceOnUse"
       gradientTransform="matrix(2.4594595,0,0,3.1081081,4.9729852,-14.594554)" />
    <linearGradient
       id="linearGradient3977-3">
      <stop
         id="stop3979-6"
         style="stop-color:#ffffff;stop-opacity:1"
         offset="0" />
      <stop
         id="stop3981-0"
         style="stop-color:#ffffff;stop-opacity:0.23529412"
         offset="0.00648027" />
      <stop
         id="stop3983-6"
         style="stop-color:#ffffff;stop-opacity:0.15686275"
         offset="0.99423188" />
      <stop
         id="stop3985-2"
         style="stop-color:#ffffff;stop-opacity:0.39215687"
         offset="1" />
    </linearGradient>
    <linearGradient
       x1="-51.786404"
       y1="50.786446"
       x2="-51.786404"
       y2="2.9062471"
       id="linearGradient3148"
       xlink:href="#linearGradient3104-6"
       gradientUnits="userSpaceOnUse"
       gradientTransform="matrix(2.1456297,0,0,2.3791292,158.08983,-7.746462)" />
    <linearGradient
       id="linearGradient3104-6">
      <stop
         id="stop3106-3"
         style="stop-color:#000000;stop-opacity:0.31782946"
         offset="0" />
      <stop
         id="stop3108-9"
         style="stop-color:#000000;stop-opacity:0.24031007"
         offset="1" />
    </linearGradient>
    <linearGradient
       gradientUnits="userSpaceOnUse"
       xlink:href="#linearGradient3702-501-757-486"
       id="linearGradient4097"
       y2="39.999443"
       x2="25.058096"
       y1="47.027729"
       x1="25.058096"
       gradientTransform="matrix(2.8421052,0,0,0.71428566,-4.2105336,87.430066)" />
    <radialGradient
       gradientTransform="matrix(5.6949649,0,0,0.99999992,-52.665305,-162.00149)"
       gradientUnits="userSpaceOnUse"
       xlink:href="#linearGradient3688-464-309-255"
       id="radialGradient4095"
       fy="43.5"
       fx="4.9929786"
       r="2.5"
       cy="43.5"
       cx="4.9929786" />
    <radialGradient
       gradientTransform="matrix(5.6949649,0,0,0.99999992,75.334676,75.001496)"
       gradientUnits="userSpaceOnUse"
       xlink:href="#linearGradient3688-464-309-255"
       id="radialGradient4093"
       fy="43.5"
       fx="4.9929786"
       r="2.5"
       cy="43.5"
       cx="4.9929786" />
  </defs>
  <metadata
     id="metadata3177">
    <rdf:RDF>
      <cc:Work
         rdf:about="">
        <dc:format>image/svg+xml</dc:format>
        <dc:type
           rdf:resource="http://purl.org/dc/dcmitype/StillImage" />
      </cc:Work>
    </rdf:RDF>
  </metadata>
  <g
     id="g978"
     style="opacity:0.2;stroke-width:1.03923047"
     transform="matrix(0.92592591,0,0,1,4.7407489,0)">
    <rect
       style="fill:url(#radialGradient4093);fill-opacity:1;stroke:none;stroke-width:1.48070288"
       id="rect2801"
       y="116.00149"
       x="103.78947"
       height="4.9999995"
       width="14.210526" />
    <rect
       style="fill:url(#radialGradient4095);fill-opacity:1;stroke:none;stroke-width:1.48070288"
       id="rect3696"
       transform="scale(-1)"
       y="-121.00149"
       x="-24.210518"
       height="4.9999995"
       width="14.210526" />
    <rect
       style="fill:url(#linearGradient4097);fill-opacity:1;stroke:none;stroke-width:1.48070288"
       id="rect3700"
       y="116.00149"
       x="24.210518"
       height="5"
       width="79.578949" />
  </g>
  <path
     d="m 18,2.0004521 c 21.081878,0 91.99989,0.00694 91.99989,0.00694 L 110,118 c 0,0 -61.333339,0 -91.999999,0 0,-38.666664 0,-77.33333 0,-115.999995 z"
     id="path4160"
     style="display:inline;fill:url(#linearGradient3019-2);fill-opacity:1;stroke:none" />
  <path
     d="m 109.5,117.5 h -91 V 2.500002 h 91 z"
     id="rect6741-1"
     style="fill:none;stroke:url(#linearGradient3016-9);stroke-width:1;stroke-linecap:round;stroke-linejoin:round;stroke-miterlimit:4;stroke-dasharray:none;stroke-dashoffset:0;stroke-opacity:1" />
  <path
     d="m 17.500001,1.49999 c 21.311001,0 92.999899,0.008 92.999899,0.008 l 1e-4,116.99202 c 0,0 -61.999997,0 -92.999999,0 0,-39.000096 0,-77.999807 0,-116.999456 z"
     id="path4160-6-1"
     style="display:inline;fill:none;stroke:url(#linearGradient3148);stroke-width:0.99999994;stroke-linecap:butt;stroke-linejoin:round;stroke-miterlimit:4;stroke-dasharray:none;stroke-dashoffset:0;stroke-opacity:1" />
  <path
     id="path25893"
     style="fill:#384759;fill-opacity:1;stroke-width:0.999996"
     d="m 64,26.000001 a 0.50005,0.50005 0 0 0 -0.425781,0.236328 l -2.41211,3.896484 c -0.199429,0.01763 -0.399282,0.0334 -0.597656,0.05469 l -3.125,-3.34375 a 0.50005,0.50005 0 0 0 -0.832031,0.166016 L 55,31.298829 c -0.192513,0.05658 -0.387125,0.107877 -0.578125,0.167969 l -3.714844,-2.671875 a 0.50005,0.50005 0 0 0 -0.785156,0.324219 l -0.740234,4.535156 c -0.174629,0.09171 -0.350718,0.180563 -0.523438,0.275391 l -4.177734,-1.904297 a 0.50005,0.50005 0 0 0 -0.707031,0.472656 l 0.162109,4.603515 c -0.148395,0.119841 -0.297157,0.238914 -0.443359,0.361329 l -4.482422,-1.054688 a 0.50005,0.50005 0 0 0 -0.601563,0.601563 l 1.054688,4.482422 c -0.122379,0.146173 -0.241524,0.294994 -0.361329,0.443359 l -4.603515,-0.162109 a 0.50005,0.50005 0 0 0 -0.472656,0.707031 l 1.904297,4.177734 c -0.09479,0.17268 -0.18371,0.348851 -0.275391,0.523438 l -4.535156,0.740234 a 0.50005,0.50005 0 0 0 -0.324219,0.785156 l 2.671875,3.716797 c -0.05988,0.190376 -0.111577,0.384295 -0.167969,0.576172 l -4.289062,1.607422 a 0.50005,0.50005 0 0 0 -0.166016,0.832031 l 3.34375,3.125 c -0.02129,0.198247 -0.03706,0.398358 -0.05469,0.597656 l -3.896484,2.41211 a 0.50005,0.50005 0 0 0 0,0.851562 l 3.896484,2.41211 c 0.01764,0.199298 0.03339,0.399409 0.05469,0.597656 l -3.34375,3.125 a 0.50005,0.50005 0 0 0 0.166016,0.832031 l 4.289062,1.607422 c 0.05641,0.191877 0.108065,0.385796 0.167969,0.576172 l -2.671875,3.716797 a 0.50005,0.50005 0 0 0 0.324219,0.785156 l 4.535156,0.740234 c 0.09174,0.174645 0.180539,0.350701 0.275391,0.523438 l -1.904297,4.177734 a 0.50005,0.50005 0 0 0 0.472656,0.707031 l 4.605469,-0.162109 c 0.119519,0.147982 0.239249,0.295605 0.361328,0.441406 l -1.056641,4.484375 a 0.50005,0.50005 0 0 0 0.601563,0.601563 l 4.484375,-1.056641 c 0.145801,0.122079 0.293424,0.241809 0.441406,0.361328 l -0.162109,4.605469 a 0.50005,0.50005 0 0 0 0.707031,0.472656 l 4.177734,-1.904297 c 0.172737,0.09485 0.348793,0.183655 0.523438,0.275391 l 0.740234,4.535156 a 0.50005,0.50005 0 0 0 0.785156,0.324219 l 3.716797,-2.671875 c 0.190376,0.0599 0.384295,0.111556 0.576172,0.167969 l 1.607422,4.289062 a 0.50005,0.50005 0 0 0 0.832031,0.166016 l 3.125,-3.34375 c 0.198247,0.0213 0.398358,0.03705 0.597656,0.05469 l 2.41211,3.896484 a 0.50005,0.50005 0 0 0 0.851562,0 l 2.41211,-3.896484 c 0.199298,-0.01764 0.399409,-0.03339 0.597656,-0.05469 l 3.125,3.34375 a 0.50005,0.50005 0 0 0 0.832031,-0.166016 L 73,92.701173 c 0.191877,-0.05641 0.385796,-0.108065 0.576172,-0.167969 l 3.716797,2.671875 a 0.50005,0.50005 0 0 0 0.785156,-0.324219 l 0.740234,-4.535156 c 0.174645,-0.09174 0.350701,-0.180539 0.523438,-0.275391 l 4.177734,1.904297 a 0.50005,0.50005 0 0 0 0.707031,-0.472656 l -0.162109,-4.605469 c 0.147982,-0.119519 0.295605,-0.239249 0.441406,-0.361328 l 4.484375,1.056641 a 0.50005,0.50005 0 0 0 0.601563,-0.601563 L 88.535156,82.50586 c 0.122079,-0.145801 0.241809,-0.293424 0.361328,-0.441406 l 4.605469,0.162109 a 0.50005,0.50005 0 0 0 0.472656,-0.707031 l -1.904297,-4.177734 c 0.09485,-0.172737 0.183655,-0.348793 0.275391,-0.523438 l 4.535156,-0.740234 a 0.50005,0.50005 0 0 0 0.324219,-0.785156 l -2.671875,-3.716797 c 0.0599,-0.190376 0.111556,-0.384295 0.167969,-0.576172 l 4.289062,-1.607422 a 0.50005,0.50005 0 0 0 0.166016,-0.832031 l -3.34375,-3.125 c 0.0213,-0.198247 0.03705,-0.398358 0.05469,-0.597656 l 3.896484,-2.41211 a 0.50005,0.50005 0 0 0 0,-0.851562 L 95.86719,59.16211 C 95.84955,58.962812 95.8338,58.762701 95.8125,58.564454 l 3.34375,-3.125 a 0.50005,0.50005 0 0 0 -0.166016,-0.832031 l -4.289062,-1.607422 c -0.05641,-0.191877 -0.108065,-0.385796 -0.167969,-0.576172 l 2.671875,-3.716797 a 0.50005,0.50005 0 0 0 -0.324219,-0.785156 l -4.535156,-0.740234 c -0.09174,-0.174645 -0.180539,-0.350701 -0.275391,-0.523438 l 1.904297,-4.177734 a 0.50005,0.50005 0 0 0 -0.472656,-0.707031 l -4.605469,0.162109 c -0.119519,-0.147982 -0.239249,-0.295605 -0.361328,-0.441406 l 1.056641,-4.484375 a 0.50005,0.50005 0 0 0 -0.601563,-0.601563 l -4.484375,1.056641 c -0.145801,-0.122079 -0.293424,-0.241809 -0.441406,-0.361328 l 0.162109,-4.605469 a 0.50005,0.50005 0 0 0 -0.707031,-0.472656 l -4.177734,1.904297 c -0.172737,-0.09485 -0.348793,-0.183655 -0.523438,-0.275391 l -0.740234,-4.535156 a 0.50005,0.50005 0 0 0 -0.785156,-0.324219 l -3.716797,2.671875 C 73.385796,31.406894 73.191877,31.355242 73,31.298829 l -1.607422,-4.289062 a 0.50005,0.50005 0 0 0 -0.832031,-0.166016 l -3.125,3.34375 c -0.198247,-0.0213 -0.398358,-0.03705 -0.597656,-0.05469 l -2.41211,-3.896484 A 0.50005,0.50005 0 0 0 64,26.000001 Z m -0.04687,6.84375 c 1.137287,0.03024 2.04343,0.964115 2.042969,2.105469 0,2.80729 -4.210938,2.80729 -4.210938,0 -5.9e-4,-1.187698 0.980798,-2.140793 2.167969,-2.105469 z m -4.757813,3.464844 3.242188,3.398437 c 0.731118,0.764966 1.942062,0.800374 2.707031,0.0625 l 3.628907,-3.460937 c 7.479956,1.401851 13.965258,6.021554 17.734374,12.632812 l -2.484374,5.605469 C 83.596949,55.51493 84.038839,56.652681 85,57.085939 l 4.777344,2.117187 c 0.1485,1.494281 0.213683,2.998644 0.101562,4.496094 -0.338177,4.853251 -2.031245,9.514259 -4.886718,13.453125 -0.73172,0.979836 -1.660804,1.906631 -2.523438,2.773437 l -4.449219,-0.953125 c -1.035751,-0.223396 -2.057851,0.436904 -2.28125,1.472656 l -1.054687,4.929688 c -6.87187,3.112877 -14.759266,3.075788 -21.601563,-0.101562 L 52.023438,80.343751 C 51.800038,79.308001 50.785752,78.647697 49.75,78.871095 l -4.351562,0.933594 c -0.808569,-0.832713 -1.759481,-1.718826 -2.449219,-2.652344 -1.803786,-2.503076 -3.14766,-5.307222 -3.96875,-8.28125 -0.914822,-3.211928 -1.098443,-6.570435 -0.738281,-9.890625 l 4.535156,-2.015625 c 0.968054,-0.433255 1.409816,-1.567099 0.976562,-2.535156 l -0.9375,-2.101563 h 0.02344 l -1.40625,-3.152344 c 1.007124,-1.615864 0.976173,-2.0635 3.265625,-4.6875 3.80079,-4.246808 8.895891,-7.121811 14.496093,-8.179687 z m -20.34375,15.585937 c 1.138366,0.03374 2.043531,0.966602 2.042969,2.105469 0,2.80729 -4.210937,2.80729 -4.210937,0 -5.9e-4,-1.187698 0.980796,-2.140793 2.167968,-2.105469 z m 50.195313,0.09375 c 1.139901,0.03168 2.047377,0.965128 2.046875,2.105469 0,2.80729 -4.210938,2.80729 -4.210938,0 -5.24e-4,-1.186121 0.978405,-2.138547 2.164063,-2.105469 z M 48.363281,81.539063 c 1.136852,0.0337 2.041421,0.964213 2.042969,2.101563 0,2.80729 -4.210938,2.80729 -4.210938,0 0.0016,-1.186164 0.982329,-2.136843 2.167969,-2.101563 z m 31.171875,0.09375 c 1.139903,0.03168 2.047379,0.965129 2.046875,2.105469 0,2.80729 -4.210937,2.80729 -4.210937,0 -5.28e-4,-1.18612 0.978405,-2.138545 2.164062,-2.105469 z" />
  <path
     id="path25467"
     style="fill:#384759;fill-opacity:1;stroke-width:1"
     d="M 43,45 40.042581,50.175651 41.442546,53 H 47 v 18.000491 h -8.275353 -0.101558 c 0.82107,2.973953 1.134939,4.496307 2.93868,6.999319 h 0.199215 21.836849 c 0.236935,0 0.402334,-0.04224 0.402334,-0.265619 v -6.471843 c 0,-0.216635 -0.165396,-0.261709 -0.402334,-0.261714 L 57,71.000491 V 65 h 7.5 c 0.609253,0 3.237175,1.566454 4.083357,4.964727 0.264009,1.042498 0.854475,3.289035 1.253875,4.378919 0.399393,1.2185 2.015881,3.656164 3.742093,3.656164 H 84.5 85.167958 c 4.864895,0 4.014193,-7.146983 4.352363,-12.000111 h -0.04688 -2.101898 c -0.264009,0 -0.371085,0.176336 -0.371085,0.433584 v 1.206831 c 0,2.870247 -2.948729,3.360377 -4.500458,3.360377 -1.362814,0 -3.946238,-0.561446 -4.135783,-1.387316 C 77.565425,65.125028 76.09853,63.65851 74,61.999996 c 2.606235,-1.651744 4.779848,-4.88852 4.641601,-9 C 78.503365,48.888517 74.484789,45 71.641779,45 Z m 14,7.999797 h 9 c 1.750345,0 4,0.166036 4,2.999924 0,2.83389 -1.890054,2.999924 -4,2.999924 h -9 z"
     sodipodi:nodetypes="cccccccccccssssccsccsccccsssczsccczccc" />
  <g
     id="path26944" />
</svg>
