<?xml version="1.0" encoding="UTF-8" standalone="no"?>
<svg
   version="1.1"
   width="128"
   height="128"
   id="svg3172"
   sodipodi:docname="text-x-groovy.svg"
   inkscape:version="1.1.2 (0a00cf5339, 2022-02-04)"
   xmlns:inkscape="http://www.inkscape.org/namespaces/inkscape"
   xmlns:sodipodi="http://sodipodi.sourceforge.net/DTD/sodipodi-0.dtd"
   xmlns:xlink="http://www.w3.org/1999/xlink"
   xmlns="http://www.w3.org/2000/svg"
   xmlns:svg="http://www.w3.org/2000/svg"
   xmlns:rdf="http://www.w3.org/1999/02/22-rdf-syntax-ns#"
   xmlns:cc="http://creativecommons.org/ns#"
   xmlns:dc="http://purl.org/dc/elements/1.1/">
  <sodipodi:namedview
     id="namedview48"
     pagecolor="#ffffff"
     bordercolor="#666666"
     borderopacity="1.0"
     inkscape:pageshadow="2"
     inkscape:pageopacity="0.0"
     inkscape:pagecheckerboard="0"
     showgrid="false"
     inkscape:zoom="2.6640625"
     inkscape:cx="74.322581"
     inkscape:cy="85.958944"
     inkscape:window-width="1317"
     inkscape:window-height="893"
     inkscape:window-x="619"
     inkscape:window-y="320"
     inkscape:window-maximized="0"
     inkscape:current-layer="svg3172" />
  <defs
     id="defs3174">
    <linearGradient
       id="linearGradient3600">
      <stop
         id="stop3602"
         style="stop-color:#f4f4f4;stop-opacity:1"
         offset="0" />
      <stop
         id="stop3604"
         style="stop-color:#dbdbdb;stop-opacity:1"
         offset="1" />
    </linearGradient>
    <linearGradient
       id="linearGradient3702-501-757-486">
      <stop
         id="stop3100"
         style="stop-color:#181818;stop-opacity:0"
         offset="0" />
      <stop
         id="stop3102"
         style="stop-color:#181818;stop-opacity:1"
         offset="0.5" />
      <stop
         id="stop3104"
         style="stop-color:#181818;stop-opacity:0"
         offset="1" />
    </linearGradient>
    <linearGradient
       id="linearGradient3688-464-309-255">
      <stop
         id="stop3094"
         style="stop-color:#181818;stop-opacity:1"
         offset="0" />
      <stop
         id="stop3096"
         style="stop-color:#181818;stop-opacity:0"
         offset="1" />
    </linearGradient>
    <linearGradient
       x1="25.132275"
       y1="0.98520643"
       x2="25.132275"
       y2="47.013336"
       id="linearGradient3019-2"
       xlink:href="#linearGradient3600"
       gradientUnits="userSpaceOnUse"
       gradientTransform="matrix(2.6285655,0,0,2.5204893,0.914429,-4.3579715)" />
    <linearGradient
       x1="23.99999"
       y1="5.5641499"
       x2="23.99999"
       y2="42.194839"
       id="linearGradient3016-9"
       xlink:href="#linearGradient3977-3"
       gradientUnits="userSpaceOnUse"
       gradientTransform="matrix(2.4594595,0,0,3.1081081,4.9729852,-14.594554)" />
    <linearGradient
       id="linearGradient3977-3">
      <stop
         id="stop3979-6"
         style="stop-color:#ffffff;stop-opacity:1"
         offset="0" />
      <stop
         id="stop3981-0"
         style="stop-color:#ffffff;stop-opacity:0.23529412"
         offset="0.00648027" />
      <stop
         id="stop3983-6"
         style="stop-color:#ffffff;stop-opacity:0.15686275"
         offset="0.99423188" />
      <stop
         id="stop3985-2"
         style="stop-color:#ffffff;stop-opacity:0.39215687"
         offset="1" />
    </linearGradient>
    <linearGradient
       x1="-51.786404"
       y1="50.786446"
       x2="-51.786404"
       y2="2.9062471"
       id="linearGradient3148"
       xlink:href="#linearGradient3104-6"
       gradientUnits="userSpaceOnUse"
       gradientTransform="matrix(2.1456297,0,0,2.3791292,158.08983,-7.746462)" />
    <linearGradient
       id="linearGradient3104-6">
      <stop
         id="stop3106-3"
         style="stop-color:#000000;stop-opacity:0.31782946"
         offset="0" />
      <stop
         id="stop3108-9"
         style="stop-color:#000000;stop-opacity:0.24031007"
         offset="1" />
    </linearGradient>
    <linearGradient
       gradientUnits="userSpaceOnUse"
       xlink:href="#linearGradient3702-501-757-486"
       id="linearGradient4097"
       y2="39.999443"
       x2="25.058096"
       y1="47.027729"
       x1="25.058096"
       gradientTransform="matrix(2.8421052,0,0,0.71428566,-4.2105336,87.430066)" />
    <radialGradient
       gradientTransform="matrix(5.6949649,0,0,0.99999992,-52.665305,-162.00149)"
       gradientUnits="userSpaceOnUse"
       xlink:href="#linearGradient3688-464-309-255"
       id="radialGradient4095"
       fy="43.5"
       fx="4.9929786"
       r="2.5"
       cy="43.5"
       cx="4.9929786" />
    <radialGradient
       gradientTransform="matrix(5.6949649,0,0,0.99999992,75.334676,75.001496)"
       gradientUnits="userSpaceOnUse"
       xlink:href="#linearGradient3688-464-309-255"
       id="radialGradient4093"
       fy="43.5"
       fx="4.9929786"
       r="2.5"
       cy="43.5"
       cx="4.9929786" />
  </defs>
  <metadata
     id="metadata3177">
    <rdf:RDF>
      <cc:Work
         rdf:about="">
        <dc:format>image/svg+xml</dc:format>
        <dc:type
           rdf:resource="http://purl.org/dc/dcmitype/StillImage" />
      </cc:Work>
    </rdf:RDF>
  </metadata>
  <g
     id="g978"
     style="opacity:0.2;stroke-width:1.03923047"
     transform="matrix(0.92592591,0,0,1,4.7407489,0)">
    <rect
       style="fill:url(#radialGradient4093);fill-opacity:1;stroke:none;stroke-width:1.48070288"
       id="rect2801"
       y="116.00149"
       x="103.78947"
       height="4.9999995"
       width="14.210526" />
    <rect
       style="fill:url(#radialGradient4095);fill-opacity:1;stroke:none;stroke-width:1.48070288"
       id="rect3696"
       transform="scale(-1)"
       y="-121.00149"
       x="-24.210518"
       height="4.9999995"
       width="14.210526" />
    <rect
       style="fill:url(#linearGradient4097);fill-opacity:1;stroke:none;stroke-width:1.48070288"
       id="rect3700"
       y="116.00149"
       x="24.210518"
       height="5"
       width="79.578949" />
  </g>
  <path
     d="m 18,2.0004521 c 21.081878,0 91.99989,0.00694 91.99989,0.00694 L 110,118 c 0,0 -61.333339,0 -91.999999,0 0,-38.666664 0,-77.33333 0,-115.999995 z"
     id="path4160"
     style="display:inline;fill:url(#linearGradient3019-2);fill-opacity:1;stroke:none" />
  <path
     d="m 109.5,117.5 h -91 V 2.500002 h 91 z"
     id="rect6741-1"
     style="fill:none;stroke:url(#linearGradient3016-9);stroke-width:1;stroke-linecap:round;stroke-linejoin:round;stroke-miterlimit:4;stroke-dasharray:none;stroke-dashoffset:0;stroke-opacity:1" />
  <path
     d="m 17.500001,1.49999 c 21.311001,0 92.999899,0.008 92.999899,0.008 l 1e-4,116.99202 c 0,0 -61.999997,0 -92.999999,0 0,-39.000096 0,-77.999807 0,-116.999456 z"
     id="path4160-6-1"
     style="display:inline;fill:none;stroke:url(#linearGradient3148);stroke-width:0.99999994;stroke-linecap:butt;stroke-linejoin:round;stroke-miterlimit:4;stroke-dasharray:none;stroke-dashoffset:0;stroke-opacity:1" />
  <path
     sodipodi:type="star"
     style="fill:#3689e6;fill-opacity:1;stroke:none;stroke-width:0.453986;stroke-linecap:round;stroke-linejoin:round;stroke-miterlimit:4;stroke-dasharray:none;stroke-opacity:1"
     id="path25763"
     inkscape:flatsided="false"
     sodipodi:sides="5"
     sodipodi:cx="29.08725"
     sodipodi:cy="23.919403"
     sodipodi:r1="17.185425"
     sodipodi:r2="8.5927124"
     sodipodi:arg1="-1.5707963"
     sodipodi:arg2="-0.9424778"
     inkscape:rounded="0"
     inkscape:randomized="0"
     inkscape:transform-center-y="-3.6149694"
     transform="matrix(2.2026014,0,0,2.202821,-0.06761636,8.9242516)"
     d="M 29.08725,6.7339783 34.137919,16.967753 45.43156,18.608815 37.259405,26.574697 39.188589,37.822704 29.08725,32.512115 18.98591,37.822704 20.915095,26.574697 12.74294,18.608814 24.03658,16.967753 Z" />
  <path
     d="m 68.69023,56.594286 q -0.16216,-0.661122 -0.511434,-1.160082 -0.349272,-0.511436 -0.873182,-0.86071 -0.511434,-0.361744 -1.197504,-0.536382 -0.673596,-0.18712 -1.484408,-0.18712 -1.746362,0 -2.98129,0.83576 -1.222452,0.835758 -1.8711,2.407484 -0.636176,1.571726 -0.636176,3.7921 0,2.245322 0.611226,3.841996 0.611228,1.596674 1.821206,2.444906 1.20998,0.848234 3.006238,0.848234 1.5842,0 2.632016,-0.46154 1.060294,-0.461536 1.5842,-1.30977 0.523908,-0.848232 0.523908,-1.995842 l 1.197508,0.12474 h -5.83784 v -4.93971 h 11.326404 v 3.542618 q 0,3.492726 -1.484404,5.975054 -1.471936,2.469854 -4.06653,3.792098 -2.582122,1.309772 -5.925156,1.309772 -3.729732,0 -6.548856,-1.584198 -2.819128,-1.584202 -4.40333,-4.515594 -1.571724,-2.931394 -1.571724,-6.972974 0,-3.168398 0.960498,-5.613306 0.972974,-2.444906 2.694388,-4.128898 1.721414,-1.696464 3.979212,-2.557172 2.257792,-0.873182 4.839914,-0.873182 2.27027,0 4.216216,0.64865 1.958422,0.636174 3.455304,1.821204 1.509354,1.172558 2.432432,2.781706 0.923076,1.609146 1.122662,3.530146 z"
     style="font-weight:900;font-size:17.2332px;line-height:1.25;font-family:'Inter V';-inkscape-font-specification:'Inter V Heavy';fill:#ffffff;fill-opacity:1;stroke-width:1"
     id="path28917" />
</svg>
