<?xml version="1.0" encoding="UTF-8" standalone="no"?>
<!-- Created with Inkscape (http://www.inkscape.org/) -->

<svg
   xmlns:dc="http://purl.org/dc/elements/1.1/"
   xmlns:cc="http://creativecommons.org/ns#"
   xmlns:rdf="http://www.w3.org/1999/02/22-rdf-syntax-ns#"
   xmlns:svg="http://www.w3.org/2000/svg"
   xmlns="http://www.w3.org/2000/svg"
   xmlns:xlink="http://www.w3.org/1999/xlink"
   xmlns:sodipodi="http://sodipodi.sourceforge.net/DTD/sodipodi-0.dtd"
   xmlns:inkscape="http://www.inkscape.org/namespaces/inkscape"
   width="32px"
   height="32px"
   id="svg3182"
   version="1.1"
   inkscape:version="0.48+devel r"
   sodipodi:docname="text-x-lua_32.svg">
  <defs
     id="defs3184">
    <linearGradient
       inkscape:collect="always"
       xlink:href="#linearGradient3977"
       id="linearGradient3119"
       gradientUnits="userSpaceOnUse"
       gradientTransform="matrix(0.56756757,0,0,0.72972971,2.378382,-2.5135063)"
       x1="23.99999"
       y1="5.5641499"
       x2="23.99999"
       y2="43" />
    <linearGradient
       id="linearGradient3977">
      <stop
         id="stop3979"
         style="stop-color:#ffffff;stop-opacity:1;"
         offset="0" />
      <stop
         offset="0.03626217"
         style="stop-color:#ffffff;stop-opacity:0.23529412;"
         id="stop3981" />
      <stop
         id="stop3983"
         style="stop-color:#ffffff;stop-opacity:0.15686275;"
         offset="0.95056331" />
      <stop
         id="stop3985"
         style="stop-color:#ffffff;stop-opacity:0.39215687;"
         offset="1" />
    </linearGradient>
    <linearGradient
       inkscape:collect="always"
       xlink:href="#linearGradient3600-4"
       id="linearGradient3122"
       gradientUnits="userSpaceOnUse"
       gradientTransform="matrix(0.65714319,0,0,0.63012397,0.228556,-1.0896478)"
       x1="25.132275"
       y1="0.98520643"
       x2="25.132275"
       y2="47.013336" />
    <linearGradient
       id="linearGradient3600-4">
      <stop
         offset="0"
         style="stop-color:#f4f4f4;stop-opacity:1"
         id="stop3602-7" />
      <stop
         offset="1"
         style="stop-color:#dbdbdb;stop-opacity:1"
         id="stop3604-6" />
    </linearGradient>
    <linearGradient
       inkscape:collect="always"
       xlink:href="#linearGradient3104-5"
       id="linearGradient3124"
       gradientUnits="userSpaceOnUse"
       gradientTransform="matrix(0.53064102,0,0,0.58970216,39.269585,-1.7919079)"
       x1="-51.786404"
       y1="50.786446"
       x2="-51.786404"
       y2="2.9062471" />
    <linearGradient
       id="linearGradient3104-5">
      <stop
         offset="0"
         style="stop-color:#a0a0a0;stop-opacity:1;"
         id="stop3106-6" />
      <stop
         offset="1"
         style="stop-color:#bebebe;stop-opacity:1;"
         id="stop3108-9" />
    </linearGradient>
    <radialGradient
       inkscape:collect="always"
       xlink:href="#linearGradient5060"
       id="radialGradient3045"
       gradientUnits="userSpaceOnUse"
       gradientTransform="matrix(0.01566318,0,0,0.00823529,17.610433,25.980565)"
       cx="605.71429"
       cy="486.64789"
       fx="605.71429"
       fy="486.64789"
       r="117.14286" />
    <linearGradient
       id="linearGradient5060">
      <stop
         id="stop5062"
         style="stop-color:#000000;stop-opacity:1"
         offset="0" />
      <stop
         id="stop5064"
         style="stop-color:#000000;stop-opacity:0"
         offset="1" />
    </linearGradient>
    <radialGradient
       inkscape:collect="always"
       xlink:href="#linearGradient5060"
       id="radialGradient3048"
       gradientUnits="userSpaceOnUse"
       gradientTransform="matrix(-0.01566318,0,0,0.00823529,14.389566,25.980565)"
       cx="605.71429"
       cy="486.64789"
       fx="605.71429"
       fy="486.64789"
       r="117.14286" />
    <linearGradient
       id="linearGradient5048">
      <stop
         id="stop5050"
         style="stop-color:#000000;stop-opacity:0"
         offset="0" />
      <stop
         id="stop5056"
         style="stop-color:#000000;stop-opacity:1"
         offset="0.5" />
      <stop
         id="stop5052"
         style="stop-color:#000000;stop-opacity:0"
         offset="1" />
    </linearGradient>
    <linearGradient
       y2="609.50507"
       x2="302.85715"
       y1="366.64789"
       x1="302.85715"
       gradientTransform="matrix(0.04576928,0,0,0.00823529,-0.5423243,25.980548)"
       gradientUnits="userSpaceOnUse"
       id="linearGradient3180"
       xlink:href="#linearGradient5048"
       inkscape:collect="always" />
    <linearGradient
       y2="6.0420675"
       x2="21.982096"
       y1="36.042068"
       x1="21.982096"
       gradientTransform="translate(-4.982096,-6.042067)"
       gradientUnits="userSpaceOnUse"
       id="linearGradient3071"
       xlink:href="#linearGradient3104-6"
       inkscape:collect="always" />
    <linearGradient
       id="linearGradient3104-6">
      <stop
         id="stop3106-66"
         style="stop-color:#aaaaaa;stop-opacity:1"
         offset="0" />
      <stop
         id="stop3108-5"
         style="stop-color:#c8c8c8;stop-opacity:1"
         offset="1" />
    </linearGradient>
    <radialGradient
       inkscape:collect="always"
       xlink:href="#linearGradient4114-3-2"
       id="radialGradient3172"
       gradientUnits="userSpaceOnUse"
       gradientTransform="matrix(0.95600859,0,0,0.31831544,8.0437962,15.10823)"
       cx="15.115514"
       cy="63.965389"
       fx="15.115514"
       fy="63.965389"
       r="12.289036" />
    <linearGradient
       id="linearGradient4114-3-2">
      <stop
         id="stop4116-7-9"
         style="stop-color:#000000;stop-opacity:1"
         offset="0" />
      <stop
         id="stop4118-4-1"
         style="stop-color:#000000;stop-opacity:0"
         offset="1" />
    </linearGradient>
    <radialGradient
       inkscape:collect="always"
       xlink:href="#linearGradient4172"
       id="radialGradient4178"
       cx="20.138643"
       cy="12.122985"
       fx="20.138643"
       fy="12.122985"
       r="11"
       gradientUnits="userSpaceOnUse"
       gradientTransform="matrix(-0.89783615,0.77642245,-0.77708748,-0.89684551,55.059905,14.902597)" />
    <linearGradient
       inkscape:collect="always"
       id="linearGradient4172">
      <stop
         style="stop-color:#8282bf;stop-opacity:1"
         offset="0"
         id="stop4174" />
      <stop
         style="stop-color:#000080;stop-opacity:1"
         offset="1"
         id="stop4176" />
    </linearGradient>
    <linearGradient
       inkscape:collect="always"
       xlink:href="#linearGradient4156"
       id="linearGradient4162"
       x1="14.070047"
       y1="31.767511"
       x2="29.828938"
       y2="17.828428"
       gradientUnits="userSpaceOnUse"
       gradientTransform="matrix(1.0443395,0,0,1.0433164,-0.48110317,-1.5686797)" />
    <linearGradient
       inkscape:collect="always"
       id="linearGradient4156">
      <stop
         style="stop-color:#000058;stop-opacity:1"
         offset="0"
         id="stop4158" />
      <stop
         style="stop-color:#000078;stop-opacity:1"
         offset="1"
         id="stop4160" />
    </linearGradient>
    <radialGradient
       inkscape:collect="always"
       xlink:href="#linearGradient4165"
       id="radialGradient4171"
       cx="32.802898"
       cy="13.760531"
       fx="32.802898"
       fy="13.760531"
       r="3.4999998"
       gradientTransform="matrix(-0.59560048,4.0910844e-8,-3.9259039e-8,-0.5703734,55.030985,19.375512)"
       gradientUnits="userSpaceOnUse" />
    <linearGradient
       inkscape:collect="always"
       id="linearGradient4165">
      <stop
         style="stop-color:#5858a9;stop-opacity:1"
         offset="0"
         id="stop4167" />
      <stop
         style="stop-color:#000080;stop-opacity:1"
         offset="1"
         id="stop4169" />
    </linearGradient>
    <linearGradient
       inkscape:collect="always"
       xlink:href="#linearGradient4164"
       id="linearGradient4170"
       x1="30.651611"
       y1="16.348345"
       x2="35.248386"
       y2="11.751223"
       gradientUnits="userSpaceOnUse"
       gradientTransform="matrix(0.9069846,0,0,0.90597964,4.3576588,0.0475248)" />
    <linearGradient
       inkscape:collect="always"
       id="linearGradient4164">
      <stop
         style="stop-color:#000058;stop-opacity:1"
         offset="0"
         id="stop4166" />
      <stop
         style="stop-color:#000078;stop-opacity:1"
         offset="1"
         id="stop4168" />
    </linearGradient>
    <linearGradient
       inkscape:collect="always"
       xlink:href="#linearGradient4155"
       id="linearGradient4163"
       x1="28.798479"
       y1="18.222336"
       x2="21.484772"
       y2="26.383757"
       gradientUnits="userSpaceOnUse"
       gradientTransform="matrix(0.98466824,0,0,0.98369305,0.8316639,-0.07809873)" />
    <linearGradient
       inkscape:collect="always"
       id="linearGradient4155">
      <stop
         style="stop-color:#ffffff;stop-opacity:0.78"
         offset="0"
         id="stop4157" />
      <stop
         style="stop-color:#ffffff;stop-opacity:0.314"
         offset="1"
         id="stop4159" />
    </linearGradient>
    <linearGradient
       inkscape:collect="always"
       xlink:href="#linearGradient4167"
       id="linearGradient4174"
       x1="35.94286"
       y1="10.928572"
       x2="32.485714"
       y2="14.535714"
       gradientUnits="userSpaceOnUse"
       gradientTransform="matrix(0.68117658,0,0,0.68033607,10.742207,4.2723352)" />
    <linearGradient
       inkscape:collect="always"
       id="linearGradient4167">
      <stop
         style="stop-color:#ffffff;stop-opacity:1;"
         offset="0"
         id="stop4170" />
      <stop
         style="stop-color:#ffffff;stop-opacity:0;"
         offset="1"
         id="stop4172" />
    </linearGradient>
  </defs>
  <sodipodi:namedview
     id="base"
     pagecolor="#ffffff"
     bordercolor="#666666"
     borderopacity="1.0"
     inkscape:pageopacity="0.0"
     inkscape:pageshadow="2"
     inkscape:zoom="11.197802"
     inkscape:cx="5.436263"
     inkscape:cy="19.674102"
     inkscape:current-layer="layer1"
     showgrid="false"
     inkscape:grid-bbox="true"
     inkscape:document-units="px"
     inkscape:window-width="1535"
     inkscape:window-height="876"
     inkscape:window-x="65"
     inkscape:window-y="24"
     inkscape:window-maximized="1"
     showguides="true">
    <inkscape:grid
       type="xygrid"
       id="grid4291" />
  </sodipodi:namedview>
  <metadata
     id="metadata3187">
    <rdf:RDF>
      <cc:Work
         rdf:about="">
        <dc:format>image/svg+xml</dc:format>
        <dc:type
           rdf:resource="http://purl.org/dc/dcmitype/StillImage" />
        <dc:title />
      </cc:Work>
    </rdf:RDF>
  </metadata>
  <g
     id="layer1"
     inkscape:label="Layer 1"
     inkscape:groupmode="layer">
    <rect
       style="opacity:0.15;fill:url(#linearGradient3180);fill-opacity:1;fill-rule:nonzero;stroke:none;stroke-width:1;marker:none;visibility:visible;display:inline;overflow:visible"
       id="rect2879"
       y="29"
       x="4.9499893"
       height="2"
       width="22.100021" />
    <path
       inkscape:connector-curvature="0"
       style="opacity:0.15;fill:url(#radialGradient3048);fill-opacity:1;fill-rule:nonzero;stroke:none;stroke-width:1;marker:none;visibility:visible;display:inline;overflow:visible"
       id="path2881"
       d="m 4.9499887,29.000086 c 0,0 0,1.99989 0,1.99989 -0.806615,0.0038 -1.950002,-0.448074 -1.950002,-1.000074 0,-0.552 0.900121,-0.999816 1.950002,-0.999816 z" />
    <path
       inkscape:connector-curvature="0"
       style="opacity:0.15;fill:url(#radialGradient3045);fill-opacity:1;fill-rule:nonzero;stroke:none;stroke-width:1;marker:none;visibility:visible;display:inline;overflow:visible"
       id="path2883"
       d="m 27.050011,29.000086 c 0,0 0,1.99989 0,1.99989 0.806614,0.0038 1.950002,-0.448074 1.950002,-1.000074 0,-0.552 -0.900122,-0.999816 -1.950002,-0.999816 z" />
    <path
       inkscape:connector-curvature="0"
       style="fill:url(#linearGradient3122);fill-opacity:1;stroke:url(#linearGradient3124);stroke-width:0.99992186;stroke-linecap:butt;stroke-linejoin:round;stroke-miterlimit:4;stroke-opacity:1;stroke-dasharray:none;stroke-dashoffset:0;display:inline"
       id="path4160-3"
       d="m 4.499961,0.49996093 c 5.270482,0 23.000037,0.00185 23.000037,0.00185 l 2.8e-5,28.99822807 c 0,0 -15.333376,0 -23.000065,0 0,-9.666692 0,-19.333383 0,-29.00007387 z"
       sodipodi:nodetypes="ccccc" />
    <path
       inkscape:connector-curvature="0"
       style="fill:none;stroke:url(#linearGradient3071);stroke-width:1px;stroke-linecap:butt;stroke-linejoin:miter;stroke-opacity:1"
       id="path2609-4"
       d="m 8,5.5 2.044,0 z m 2.988,0 1.887,0 z m 2.23075,0 1.9375,0 z m 2.25,0 0.84375,0 z M 8,7.5 l 3.256,0 z m 3.962,0 1.8505,0 z m 2.163,0 0.875,0 z m 1.819,0 0.9935,0 z m 1.33725,0 1.72475,0 z M 8,12.5 l 3.094,0 z m 3.994,0 6.006,0 z M 8,14.500122 l 3.09375,0 z m 4.006,0 4.963,-2.43e-4 z M 8,17.5 l 2.544,0 z m 3.488,0 1.556,0 z m 3.481,0 1.143,0 z m 1.987,0 2.075,0 z m -8.956,2 2.081,0 z m 2.925,0 2.225,0 z m 4.037125,0 1.84375,0 z M 8,21.5 l 3.094,0 z m 0,2 2.075,0 z m 2.819,0 2.219,0 z m 3.031,0 2.281,0 z m 3.094,0 3.194,0 z m -8.944,2 1.175,0 z m 1.919,0 2.15,0 z m 4.124625,0 2.96875,0 z m 3.912625,0 1.04375,0 z"
       sodipodi:nodetypes="ccccccccccccccccccccccccccccccccccccccccccccccccccccccccccccccccccccccccccccccccccccccc" />
    <path
       style="fill:none;stroke:url(#linearGradient3119);stroke-width:0.99999994;stroke-linecap:round;stroke-linejoin:round;stroke-miterlimit:4;stroke-opacity:1;stroke-dasharray:none;stroke-dashoffset:0"
       d="m 26.5,28.5 -21,0 0,-27 21,0 z"
       id="rect6741-1"
       inkscape:connector-curvature="0"
       sodipodi:nodetypes="ccccc" />
    <g
       transform="matrix(0.63838303,0,0,0.63896708,1.1399782,0.83621351)"
       id="g4271">
      <path
         d="m 34.242799,35.469395 c 0.0015,2.160732 -5.259037,3.912581 -11.748432,3.912581 -6.489398,0 -11.749726,-1.751849 -11.748433,-3.912581 -0.0012,-2.160719 5.259035,-3.912548 11.748433,-3.912548 6.489395,0 11.749725,1.751829 11.748432,3.912548 z"
         id="path2917"
         style="opacity:0.3;fill:url(#radialGradient3172);fill-opacity:1;stroke:none;display:inline"
         inkscape:connector-curvature="0" />
      <g
         id="g4204">
        <ellipse
           style="fill:url(#radialGradient4178);fill-opacity:1;stroke:url(#linearGradient4162);stroke-width:1.56574094;stroke-opacity:1"
           id="circle10"
           cy="24.514231"
           cx="22.494368"
           rx="10.965562"
           ry="10.954823"
           d="M 33.459929,24.514231 A 10.965562,10.954823 0 0 1 22.494368,35.469053 10.965562,10.954823 0 0 1 11.528806,24.514231 10.965562,10.954823 0 0 1 22.494368,13.559408 10.965562,10.954823 0 0 1 33.459929,24.514231 Z" />
        <ellipse
           cx="26.410511"
           cy="20.601665"
           style="fill:#ffffff"
           id="circle12"
           rx="3.1329153"
           ry="3.1300516"
           d="m 29.543426,20.601665 a 3.1329153,3.1300516 0 0 1 -3.132915,3.130052 3.1329153,3.1300516 0 0 1 -3.132915,-3.130052 3.1329153,3.1300516 0 0 1 3.132915,-3.130051 3.1329153,3.1300516 0 0 1 3.132915,3.130051 z" />
        <ellipse
           style="fill:url(#radialGradient4171);fill-opacity:1;stroke:url(#linearGradient4170);stroke-width:1.09601915;stroke-miterlimit:4;stroke-opacity:1;stroke-dasharray:none"
           cx="34.242798"
           cy="12.776537"
           id="circle14"
           rx="2.5849056"
           ry="2.5820422"
           d="m 36.827703,12.776537 a 2.5849056,2.5820422 0 0 1 -2.584905,2.582042 2.5849056,2.5820422 0 0 1 -2.584906,-2.582042 2.5849056,2.5820422 0 0 1 2.584906,-2.582042 2.5849056,2.5820422 0 0 1 2.584905,2.582042 z" />
        <path
           inkscape:connector-curvature="0"
           d="m 31.893472,24.514232 c 0,5.183168 -4.210795,9.389796 -9.399108,9.389796 -5.188305,0 -9.399102,-4.206628 -9.399102,-9.389796 0,-5.183169 4.210797,-9.389799 9.399102,-9.389799 5.188313,0 9.399108,4.20663 9.399108,9.389799 z"
           id="path3164"
           style="opacity:0.4;fill:none;stroke:url(#linearGradient4163);stroke-width:1.56574118;stroke-linecap:round;stroke-linejoin:round;stroke-miterlimit:4;stroke-opacity:1;stroke-dasharray:none;stroke-dashoffset:0" />
        <path
           inkscape:connector-curvature="0"
           d="m 32.676165,12.791558 c -0.0084,-0.863715 0.686812,-1.57143 1.551597,-1.579723 0.864777,-0.0084 1.573368,0.68596 1.58167,1.549674 0.0084,0.863718 -0.68681,1.571434 -1.55159,1.579729 -0.864783,0.0084 -1.573374,-0.685961 -1.581677,-1.54968 z"
           id="path3164-2"
           style="opacity:0.26000001;fill:none;stroke:url(#linearGradient4174);stroke-width:1.09601915;stroke-linecap:round;stroke-linejoin:round;stroke-miterlimit:4;stroke-opacity:1;stroke-dasharray:none;stroke-dashoffset:0" />
      </g>
    </g>
  </g>
</svg>
