<?xml version="1.0" encoding="UTF-8" standalone="no"?>
<svg
   xmlns:dc="http://purl.org/dc/elements/1.1/"
   xmlns:cc="http://creativecommons.org/ns#"
   xmlns:rdf="http://www.w3.org/1999/02/22-rdf-syntax-ns#"
   xmlns:svg="http://www.w3.org/2000/svg"
   xmlns="http://www.w3.org/2000/svg"
   xmlns:xlink="http://www.w3.org/1999/xlink"
   xmlns:sodipodi="http://sodipodi.sourceforge.net/DTD/sodipodi-0.dtd"
   xmlns:inkscape="http://www.inkscape.org/namespaces/inkscape"
   version="1.1"
   width="32"
   height="32"
   id="svg3182"
   sodipodi:docname="text-x-java-source.svg"
   inkscape:version="1.0.2 (e86c870879, 2021-01-15)">
  <sodipodi:namedview
     pagecolor="#ffffff"
     bordercolor="#666666"
     borderopacity="1"
     objecttolerance="10"
     gridtolerance="10"
     guidetolerance="10"
     inkscape:pageopacity="0"
     inkscape:pageshadow="2"
     inkscape:window-width="1352"
     inkscape:window-height="942"
     id="namedview39"
     showgrid="false"
     inkscape:zoom="24.78125"
     inkscape:cx="18.200186"
     inkscape:cy="12.015005"
     inkscape:window-x="679"
     inkscape:window-y="19"
     inkscape:window-maximized="0"
     inkscape:current-layer="svg3182"
     inkscape:document-rotation="0" />
  <defs
     id="defs3184">
    <linearGradient
       id="linearGradient3977">
      <stop
         id="stop3979"
         style="stop-color:#ffffff;stop-opacity:1"
         offset="0" />
      <stop
         id="stop3981"
         style="stop-color:#ffffff;stop-opacity:0.23529412"
         offset="0" />
      <stop
         id="stop3983"
         style="stop-color:#ffffff;stop-opacity:0.15686275"
         offset="0.99999994" />
      <stop
         id="stop3985"
         style="stop-color:#ffffff;stop-opacity:0.39215687"
         offset="1" />
    </linearGradient>
    <linearGradient
       id="linearGradient3600-4">
      <stop
         id="stop3602-7"
         style="stop-color:#f4f4f4;stop-opacity:1"
         offset="0" />
      <stop
         id="stop3604-6"
         style="stop-color:#dbdbdb;stop-opacity:1"
         offset="1" />
    </linearGradient>
    <linearGradient
       id="linearGradient5060">
      <stop
         id="stop5062"
         style="stop-color:#000000;stop-opacity:1"
         offset="0" />
      <stop
         id="stop5064"
         style="stop-color:#000000;stop-opacity:0"
         offset="1" />
    </linearGradient>
    <linearGradient
       id="linearGradient5048">
      <stop
         id="stop5050"
         style="stop-color:#000000;stop-opacity:0"
         offset="0" />
      <stop
         id="stop5056"
         style="stop-color:#000000;stop-opacity:1"
         offset="0.5" />
      <stop
         id="stop5052"
         style="stop-color:#000000;stop-opacity:0"
         offset="1" />
    </linearGradient>
    <linearGradient
       x1="23.99999"
       y1="6.1851754"
       x2="23.99999"
       y2="41.814808"
       id="linearGradient3013"
       xlink:href="#linearGradient3977"
       gradientUnits="userSpaceOnUse"
       gradientTransform="matrix(0.56756757,0,0,0.72972971,2.378382,-2.5135063)" />
    <linearGradient
       x1="25.132275"
       y1="0.98520643"
       x2="25.132275"
       y2="47.013336"
       id="linearGradient3016"
       xlink:href="#linearGradient3600-4"
       gradientUnits="userSpaceOnUse"
       gradientTransform="matrix(0.62856997,0,0,0.60839392,0.91431981,-0.5347905)" />
    <radialGradient
       cx="605.71429"
       cy="486.64789"
       r="117.14286"
       fx="605.71429"
       fy="486.64789"
       id="radialGradient3021"
       xlink:href="#linearGradient5060"
       gradientUnits="userSpaceOnUse"
       gradientTransform="matrix(0.01566318,0,0,0.00823529,17.610433,25.980565)" />
    <radialGradient
       cx="605.71429"
       cy="486.64789"
       r="117.14286"
       fx="605.71429"
       fy="486.64789"
       id="radialGradient3024"
       xlink:href="#linearGradient5060"
       gradientUnits="userSpaceOnUse"
       gradientTransform="matrix(-0.01566318,0,0,0.00823529,14.389566,25.980565)" />
    <linearGradient
       x1="302.85715"
       y1="366.64789"
       x2="302.85715"
       y2="609.50507"
       id="linearGradient3027"
       xlink:href="#linearGradient5048"
       gradientUnits="userSpaceOnUse"
       gradientTransform="matrix(0.04576928,0,0,0.00823529,-0.5423243,25.980548)" />
    <linearGradient
       id="linearGradient3104-6">
      <stop
         offset="0"
         style="stop-color:#000000;stop-opacity:0.31782946"
         id="stop3106-3" />
      <stop
         offset="1"
         style="stop-color:#000000;stop-opacity:0.24031007"
         id="stop3108-9" />
    </linearGradient>
    <linearGradient
       xlink:href="#linearGradient3104-6"
       id="linearGradient3148"
       gradientUnits="userSpaceOnUse"
       gradientTransform="matrix(0.53064141,0,0,0.58970049,39.269607,-1.791918)"
       x1="-51.786404"
       y1="50.786446"
       x2="-51.786404"
       y2="2.9062471" />
    <linearGradient
       x1="25.132275"
       y1="0.98520643"
       x2="25.132275"
       y2="47.013336"
       id="linearGradient3096"
       xlink:href="#linearGradient3600-4"
       gradientUnits="userSpaceOnUse"
       gradientTransform="matrix(0.65714134,0,0,0.63011964,1.7286071,-31.5896)" />
  </defs>
  <metadata
     id="metadata3187">
    <rdf:RDF>
      <cc:Work
         rdf:about="">
        <dc:format>image/svg+xml</dc:format>
        <dc:type
           rdf:resource="http://purl.org/dc/dcmitype/StillImage" />
        <dc:title />
      </cc:Work>
    </rdf:RDF>
  </metadata>
  <rect
     width="22.100021"
     height="2"
     x="4.9499893"
     y="29"
     id="rect2879"
     style="opacity:0.15;fill:url(#linearGradient3027);fill-opacity:1;fill-rule:nonzero;stroke:none;stroke-width:1;marker:none;visibility:visible;display:inline;overflow:visible" />
  <path
     d="m 4.9499887,29.000086 c 0,0 0,1.99989 0,1.99989 -0.806615,0.0038 -1.950002,-0.448074 -1.950002,-1.000074 0,-0.552 0.900121,-0.999816 1.950002,-0.999816 z"
     id="path2881"
     style="opacity:0.15;fill:url(#radialGradient3024);fill-opacity:1;fill-rule:nonzero;stroke:none;stroke-width:1;marker:none;visibility:visible;display:inline;overflow:visible" />
  <path
     d="m 27.050011,29.000086 c 0,0 0,1.99989 0,1.99989 0.806614,0.0038 1.950002,-0.448074 1.950002,-1.000074 0,-0.552 -0.900122,-0.999816 -1.950002,-0.999816 z"
     id="path2883"
     style="opacity:0.15;fill:url(#radialGradient3021);fill-opacity:1;fill-rule:nonzero;stroke:none;stroke-width:1;marker:none;visibility:visible;display:inline;overflow:visible" />
  <path
     d="m 5,1 c 5.041316,0 21.999973,0.00179 21.999973,0.00179 L 27,29 C 27,29 12.333334,29 5,29 5,19.666667 5,10.333336 5,1.0000041 z"
     id="path4160-3"
     style="fill:url(#linearGradient3016);fill-opacity:1;stroke:none;display:inline" />
  <path
     d="m 26.5,28.5 -21,0 0,-27 21,0 z"
     id="rect6741-1"
     style="fill:none;stroke:url(#linearGradient3013);stroke-width:1;stroke-linecap:round;stroke-linejoin:miter;stroke-miterlimit:4;stroke-opacity:1;stroke-dasharray:none;stroke-dashoffset:0" />
  <path
     style="fill:none;stroke:url(#linearGradient3148);stroke-width:0.9999218;stroke-linecap:butt;stroke-linejoin:round;stroke-miterlimit:4;stroke-opacity:1;stroke-dasharray:none;stroke-dashoffset:0;display:inline"
     id="path4160-6-1"
     d="m 4.499961,0.499944 c 5.27048,0 23.000054,0.002 23.000054,0.002 l 2.4e-5,28.998112 c 0,0 -15.333385,0 -23.000078,0 0,-9.666722 0,-19.333346 0,-28.999956 z" />
  <path
     sodipodi:nodetypes="ccccc"
     inkscape:connector-curvature="0"
     id="path918"
     d="M 8.9999995,22 H 23 v 1 H 8.9999995 Z"
     style="fill:#a38342;fill-opacity:1;stroke:none;stroke-width:0.887405;stroke-linecap:round;stroke-miterlimit:4;stroke-dasharray:none;stroke-opacity:1" />
  <path
     style="fill:#a38342;fill-opacity:1;stroke:none;stroke-width:1.06066;stroke-linecap:round;stroke-miterlimit:4;stroke-dasharray:none;stroke-opacity:1"
     d="m 11,19 h 10 v 2 H 11 Z"
     id="path916"
     inkscape:connector-curvature="0"
     sodipodi:nodetypes="ccccc" />
  <path
     inkscape:connector-curvature="0"
     style="fill:#7b6332;fill-opacity:1;stroke:none;stroke-width:1.10568;stroke-linecap:round;stroke-miterlimit:4;stroke-dasharray:none;stroke-opacity:1"
     d="M 16.037415,4.86062 15.168118,6.735738 14.38434,8.426376 a 1.8029892,1.6407356 0 0 0 -0.01364,0.02985 l -0.07193,0.154689 h 0.01145 a 1.8029892,1.6407356 0 0 0 -0.07595,0.468792 1.8029892,1.6407356 0 0 0 1.80299,1.640728 1.8029892,1.6407356 0 0 0 1.802987,-1.640728 1.8029892,1.6407356 0 0 0 -0.07696,-0.468792 h 0.0124 l -0.05836,-0.125662 a 1.8029892,1.6407356 0 0 0 0,-4.72e-4 L 16.906386,6.736026 16.037088,4.860894 Z"
     id="path852" />
  <path
     id="path16458"
     d="M 16.037415,4.5 15.168118,6.375118 14.38434,8.065755 a 1.8029892,1.6407356 0 0 0 -0.01364,0.02984 l -0.07193,0.154688 h 0.01145 a 1.8029892,1.6407356 0 0 0 -0.07595,0.468793 1.8029892,1.6407356 0 0 0 1.80299,1.640728 1.8029892,1.6407356 0 0 0 1.802987,-1.640728 1.8029892,1.6407356 0 0 0 -0.07696,-0.468793 h 0.0124 l -0.05836,-0.125658 a 1.8029892,1.6407356 0 0 0 0,-4.72e-4 L 16.906392,6.375396 16.037094,4.500265 Z"
     style="fill:#cbb17e;fill-opacity:1;stroke:none;stroke-width:1.10568;stroke-linecap:round;stroke-miterlimit:4;stroke-dasharray:none;stroke-opacity:1"
     inkscape:connector-curvature="0" />
  <path
     inkscape:connector-curvature="0"
     id="path854"
     d="m 23.859309,14.430297 -0.294239,0.744495 c 0.60339,0.199009 0.997621,0.992023 1.032804,1.631171 0.04612,0.856483 -0.60506,1.588507 -1.454476,1.63503 -0.190576,0.0099 -0.535726,-0.01605 -0.716908,-0.07646 L 22,19.443179 c 0.302194,0.09981 0.806507,0.139974 1.124038,0.122671 1.415705,-0.07754 2.576079,-1.38854 2.499181,-2.816026 -0.05737,-1.065949 -0.757847,-1.987055 -1.76391,-2.319501 z"
     style="fill:#7b6332;fill-opacity:1;stroke:none;stroke-width:1.16001;stroke-linecap:round;stroke-miterlimit:4;stroke-dasharray:none;stroke-opacity:1"
     sodipodi:nodetypes="cccccccccc" />
  <path
     style="fill:#cbb17e;fill-opacity:1;stroke:none;stroke-width:1.16001;stroke-linecap:round;stroke-miterlimit:4;stroke-dasharray:none;stroke-opacity:1"
     d="m 23.67901,14.25 -0.320493,0.985601 a 1.540283,1.5530998 0 0 1 1.059058,1.390065 1.540283,1.5530998 0 0 1 -1.454476,1.63503 1.540283,1.5530998 0 0 1 -0.562494,-0.07646 l -0.319492,0.985533 a 2.5671383,2.5884997 0 0 0 0.937681,0.12484 2.5671383,2.5884997 0 0 0 2.424125,-2.725083 2.5671383,2.5884997 0 0 0 -1.763909,-2.319501 z"
     id="path16430"
     inkscape:connector-curvature="0" />
  <path
     style="fill:#cbb17e;fill-opacity:1;stroke:none;stroke-width:0.743355;stroke-linecap:round;stroke-linejoin:miter;stroke-miterlimit:4;stroke-dasharray:none;stroke-opacity:1;paint-order:normal"
     d="M 8.8855484,12 H 23.114454 c 0.207442,0 0.439331,0.17438 0.374444,0.368032 l -2.433892,7.263936 c -0.06489,0.193654 -0.167002,0.368031 -0.374446,0.368031 h -9.361121 c -0.207443,0 -0.309559,-0.174378 -0.374445,-0.368031 L 8.5111024,12.368032 C 8.4462144,12.174378 8.6781059,12 8.8855484,12 Z"
     id="rect1392"
     inkscape:connector-curvature="0"
     sodipodi:nodetypes="sssssssss" />
</svg>
