<?xml version="1.0" encoding="UTF-8" standalone="no"?>
<svg
   xmlns:dc="http://purl.org/dc/elements/1.1/"
   xmlns:cc="http://creativecommons.org/ns#"
   xmlns:rdf="http://www.w3.org/1999/02/22-rdf-syntax-ns#"
   xmlns:svg="http://www.w3.org/2000/svg"
   xmlns="http://www.w3.org/2000/svg"
   xmlns:xlink="http://www.w3.org/1999/xlink"
   version="1.1"
   id="svg5014"
   height="48"
   width="48"
   viewBox="0 0 48 48">
  <defs
     id="defs5016">
    <linearGradient
       id="linearGradient3973">
      <stop
         id="stop3975"
         offset="0"
         style="stop-color:#151515;stop-opacity:1" />
      <stop
         id="stop3977"
         offset="1"
         style="stop-color:#1f1f1f;stop-opacity:0.12598425" />
    </linearGradient>
    <linearGradient
       id="linearGradient3925">
      <stop
         style="stop-color:#ebebeb;stop-opacity:1;"
         offset="0"
         id="stop3927" />
      <stop
         style="stop-color:#787878;stop-opacity:1;"
         offset="1"
         id="stop3929" />
    </linearGradient>
    <linearGradient
       id="linearGradient3913">
      <stop
         id="stop3915"
         offset="0"
         style="stop-color:#1c1c1c;stop-opacity:1" />
      <stop
         id="stop3917"
         offset="1"
         style="stop-color:#3f3f3f;stop-opacity:1" />
    </linearGradient>
    <linearGradient
       id="linearGradient3119">
      <stop
         id="stop3121"
         offset="0"
         style="stop-color:#414141;stop-opacity:1" />
      <stop
         style="stop-color:#535353;stop-opacity:1;"
         offset="0.87162644"
         id="stop3123" />
      <stop
         style="stop-color:#676767;stop-opacity:1;"
         offset="0.87162644"
         id="stop3125" />
      <stop
         id="stop3127"
         offset="1"
         style="stop-color:#676767;stop-opacity:1;" />
    </linearGradient>
    <linearGradient
       id="linearGradient3100">
      <stop
         id="stop3102"
         offset="0"
         style="stop-color:#ffffff;stop-opacity:1" />
      <stop
         id="stop3104"
         offset="1"
         style="stop-color:#a7a7a7;stop-opacity:1" />
    </linearGradient>
    <linearGradient
       id="linearGradient3944-0">
      <stop
         id="stop3946-4"
         offset="0"
         style="stop-color:#000000;stop-opacity:1;" />
      <stop
         id="stop3948-8"
         offset="1"
         style="stop-color:#000000;stop-opacity:0;" />
    </linearGradient>
    <linearGradient
       y2="-6.533123"
       x2="10.994606"
       y1="19"
       x1="11"
       gradientTransform="matrix(1.5254237,0,0,1.5254237,2.2285675,15.965781)"
       gradientUnits="userSpaceOnUse"
       id="linearGradient3129"
       xlink:href="#linearGradient3119" />
    <radialGradient
       r="6"
       fy="19.999395"
       fx="13.652077"
       cy="19.999395"
       cx="13.652077"
       gradientUnits="userSpaceOnUse"
       id="radialGradient3943"
       xlink:href="#linearGradient3913"
       gradientTransform="matrix(0,1.3176933,-1.3331989,0,50.663172,10.01075)" />
    <radialGradient
       gradientUnits="userSpaceOnUse"
       r="2"
       fy="19"
       fx="16"
       cy="19"
       cx="16"
       id="radialGradient3961"
       xlink:href="#linearGradient3100"
       gradientTransform="matrix(1.4999999,0,0,1.5000001,-1.4979709,0.50380853)" />
    <linearGradient
       y2="20"
       x2="22"
       y1="20"
       x1="10"
       gradientUnits="userSpaceOnUse"
       id="linearGradient4001"
       xlink:href="#linearGradient3925"
       gradientTransform="matrix(0,1.645946,-1.6653142,0,57.306285,4.5405404)" />
    <linearGradient
       y2="20"
       x2="22"
       y1="20"
       x1="10"
       gradientUnits="userSpaceOnUse"
       id="linearGradient4049"
       xlink:href="#linearGradient3973"
       gradientTransform="matrix(0,0.08236414,0.08333335,0,28.807058,23.187989)" />
    <radialGradient
       r="6"
       fy="22"
       fx="14"
       cy="22"
       cx="14"
       gradientTransform="rotate(90,25.999998,28.000002)"
       gradientUnits="userSpaceOnUse"
       id="radialGradient4091"
       xlink:href="#linearGradient3973" />
    <linearGradient
       xlink:href="#linearGradient3973"
       id="linearGradient4748"
       gradientUnits="userSpaceOnUse"
       gradientTransform="matrix(0,0.08236414,0.08333335,0,15.807058,23.187989)"
       x1="10"
       y1="20"
       x2="22"
       y2="20" />
    <linearGradient
       xlink:href="#linearGradient3973"
       id="linearGradient4767"
       gradientUnits="userSpaceOnUse"
       gradientTransform="matrix(0,0.08236414,0.08333335,0,28.807058,36.187989)"
       x1="10"
       y1="20"
       x2="22"
       y2="20" />
    <linearGradient
       xlink:href="#linearGradient3973"
       id="linearGradient4769"
       gradientUnits="userSpaceOnUse"
       gradientTransform="matrix(0,0.08236414,0.08333335,0,15.807058,36.187989)"
       x1="10"
       y1="20"
       x2="22"
       y2="20" />
    <radialGradient
       gradientTransform="matrix(2.3518294,0,0,0.4150287,8.2363639,13.447365)"
       gradientUnits="userSpaceOnUse"
       xlink:href="#linearGradient3944-0"
       id="radialGradient3001"
       fy="73.615715"
       fx="6.702713"
       r="7.228416"
       cy="73.615715"
       cx="6.702713" />
  </defs>
  <metadata
     id="metadata5019">
    <rdf:RDF>
      <cc:Work
         rdf:about="">
        <dc:format>image/svg+xml</dc:format>
        <dc:type
           rdf:resource="http://purl.org/dc/dcmitype/StillImage" />
        <dc:title />
      </cc:Work>
    </rdf:RDF>
  </metadata>
  <path
     style="display:inline;fill:url(#linearGradient3129);fill-opacity:1;stroke:#181818;stroke-opacity:0.71875"
     d="M 9.5,10.955878 V 43 c 0,1.59375 1.5,1.5 1.5,1.5 h 26 c 0,0 1.5,0.0468 1.5,-1.5 V 11.044122 L 36,5.5 H 11.996576 Z"
     id="rect3145" />
  <path
     style="display:inline;opacity:0.1;fill:#ffffff;fill-opacity:1;stroke:none"
     d="M 9.9997524,11 H 37.999354 V 10.000001 H 9.9997524 Z"
     id="rect3937" />
  <path
     style="display:inline;opacity:0.4;fill:#000000;fill-opacity:1;stroke:none"
     d="M 9.9997524,12.000002 H 37.999354 V 11.000003 H 9.9997524 Z"
     id="rect4753" />
  <path
     style="opacity:0.2;fill:none;fill-opacity:1;fill-rule:evenodd;stroke:#000000;stroke-width:2;stroke-miterlimit:4;stroke-dasharray:none;stroke-opacity:1"
     id="path3938"
     d="m 24,40.751352 c -5.51837,0 -9.991881,-4.421491 -9.991881,-9.875676 C 14.008119,25.421491 18.48163,21 24,21 c 5.51837,0 9.991881,4.421491 9.991881,9.875676 0,5.454185 -4.473511,9.875676 -9.991881,9.875676 z" />
  <path
     d="m 24,40.751352 c -5.51837,0 -9.991881,-4.421491 -9.991881,-9.875676 C 14.008119,25.421491 18.48163,21 24,21 c 5.51837,0 9.991881,4.421491 9.991881,9.875676 0,5.454185 -4.473511,9.875676 -9.991881,9.875676 z"
     id="path3921"
     style="fill:url(#linearGradient4001);fill-opacity:1;fill-rule:evenodd;stroke:none;stroke-width:1.33333325" />
  <path
     style="fill:url(#radialGradient3943);fill-opacity:1;fill-rule:evenodd;stroke:none;stroke-width:1"
     id="path3143"
     d="m 23.999194,39.000002 c -4.417836,0 -7.99919,-3.539709 -7.99919,-7.90616 0,-4.366451 3.581354,-7.90616 7.99919,-7.90616 4.417836,0 7.99919,3.539709 7.99919,7.90616 0,4.366451 -3.581354,7.90616 -7.99919,7.90616 z" />
  <path
     style="opacity:0.2;fill:#000000;fill-opacity:1;fill-rule:evenodd;stroke:none;stroke-width:1"
     d="m 24.000809,23.187682 c -4.417832,0 -7.999195,3.539708 -7.999195,7.906159 0,4.366451 3.581363,7.906161 7.999195,7.906161 4.417832,0 7.999192,-3.53971 7.999192,-7.906161 0,-4.366451 -3.58136,-7.906159 -7.999192,-7.906159 z m 0,1.317693 c 3.681527,0 6.665993,2.949757 6.665993,6.588466 0,3.63871 -2.984466,6.588467 -6.665993,6.588467 -3.681528,0 -6.665995,-2.949757 -6.665995,-6.588467 0,-3.638709 2.984467,-6.588466 6.665995,-6.588466 z"
     id="path3945" />
  <path
     style="opacity:0.5;fill:url(#linearGradient4049);fill-opacity:1;fill-rule:evenodd;stroke:none;stroke-width:0.08333333"
     id="path4027"
     d="m 30.473725,25 c 0.666667,0 0.666667,-0.98837 0,-0.98837 -0.666666,0 -0.666666,0.98837 0,0.98837 z" />
  <g
     id="g4707"
     transform="translate(1.497971,0.4961901)">
    <path
       d="m 25.502029,30.50381 a 3,3.0000002 0 1 1 -6,0 3,3.0000002 0 1 1 6,0 z"
       id="path3952"
       style="opacity:1;fill:url(#radialGradient3961);fill-opacity:1;stroke:none;stroke-width:1.99999988;stroke-miterlimit:4;stroke-dasharray:none;stroke-opacity:1" />
  </g>
  <path
     style="opacity:0.8;fill:url(#radialGradient4091);fill-opacity:1;fill-rule:evenodd;stroke:none;stroke-width:0.25"
     id="path4089"
     d="m 33.000001,20 c -4,0 -4,-6.000001 0,-6.000001 4,0 4,6.000001 0,6.000001 z" />
  <path
     id="path4737"
     d="M 30.041016,17.5 C 29.793191,19.146504 30.777033,21 33,21 35.222967,21 36.206809,19.146504 35.958984,17.5 35.760273,18.815522 34.776259,20 33,20 31.223741,20 30.239727,18.815522 30.041016,17.5 Z"
     style="opacity:0.1;fill:#ffffff;fill-opacity:1;fill-rule:evenodd;stroke:none;stroke-width:0.25" />
  <path
     d="m 17.473725,25 c 0.666667,0 0.666667,-0.98837 0,-0.98837 -0.666666,0 -0.666666,0.98837 0,0.98837 z"
     id="path4744"
     style="opacity:0.5;fill:url(#linearGradient4748);fill-opacity:1;fill-rule:evenodd;stroke:none;stroke-width:0.08333333" />
  <path
     d="m 30.473725,38 c 0.666667,0 0.666667,-0.98837 0,-0.98837 -0.666666,0 -0.666666,0.98837 0,0.98837 z"
     id="path4763"
     style="opacity:0.5;fill:url(#linearGradient4767);fill-opacity:1;fill-rule:evenodd;stroke:none;stroke-width:0.08333333" />
  <path
     style="opacity:0.5;fill:url(#linearGradient4769);fill-opacity:1;fill-rule:evenodd;stroke:none;stroke-width:0.08333333"
     id="path4765"
     d="m 17.473725,38 c 0.666667,0 0.666667,-0.98837 0,-0.98837 -0.666666,0 -0.666666,0.98837 0,0.98837 z" />
  <path
     style="display:inline;overflow:visible;visibility:visible;opacity:0.4;fill:url(#radialGradient3001);fill-opacity:1;fill-rule:nonzero;stroke:none;stroke-width:0.80000007;marker:none"
     id="path2589"
     d="m 40.999999,44 c 0,1.656855 -7.611159,3 -17,3 C 14.611158,47 7,45.656855 7,44 c 0,-1.656854 7.611158,-3 16.999999,-3 9.388841,0 17,1.343146 17,3 z" />
</svg>
