<?xml version="1.0" encoding="UTF-8" standalone="no"?>
<svg
   xmlns:dc="http://purl.org/dc/elements/1.1/"
   xmlns:cc="http://creativecommons.org/ns#"
   xmlns:rdf="http://www.w3.org/1999/02/22-rdf-syntax-ns#"
   xmlns:svg="http://www.w3.org/2000/svg"
   xmlns="http://www.w3.org/2000/svg"
   xmlns:xlink="http://www.w3.org/1999/xlink"
   version="1.0"
   width="48"
   height="48"
   id="svg11300">
  <metadata
     id="metadata49">
    <rdf:RDF>
      <cc:Work
         rdf:about="">
        <dc:format>image/svg+xml</dc:format>
        <dc:type
           rdf:resource="http://purl.org/dc/dcmitype/StillImage" />
      </cc:Work>
    </rdf:RDF>
  </metadata>
  <defs
     id="defs3">
    <linearGradient
       id="linearGradient3506">
      <stop
         offset="0"
         style="stop-color:#3c3c3c"
         id="stop3508" />
      <stop
         offset="1"
         style="stop-color:#3c3c3c;stop-opacity:.22745"
         id="stop3510" />
    </linearGradient>
    <linearGradient
       id="linearGradient3494">
      <stop
         offset="0"
         style="stop-color:#282828;stop-opacity:.82353"
         id="stop3496" />
      <stop
         offset="1"
         style="stop-color:#282828;stop-opacity:0"
         id="stop3498" />
    </linearGradient>
    <radialGradient
       r="22.627"
       gradientTransform="matrix(.57452 0 0 .15462 10.594 37.062)"
       cx="23.335"
       cy="41.636"
       gradientUnits="userSpaceOnUse"
       id="radialGradient7374">
      <stop
         offset="0"
         id="stop23421" />
      <stop
         offset="1"
         style="stop-opacity:0"
         id="stop23423" />
    </radialGradient>
    <linearGradient
       x1="20.405"
       y1="6.9878"
       gradientTransform="matrix(1.3252 0 0 1.3105 -.0052421 -50.962)"
       x2="20.405"
       gradientUnits="userSpaceOnUse"
       xlink:href="#linearGradient3494"
       y2="9.1187"
       id="linearGradient7469" />
    <linearGradient
       x1="21.718"
       y1="6.1797"
       gradientTransform="matrix(1.3252 0 0 1.3105 -.0052421 -50.962)"
       x2="21.718"
       gradientUnits="userSpaceOnUse"
       xlink:href="#linearGradient3506"
       y2="10.01"
       id="linearGradient7471" />
    <linearGradient
       x1="20.405"
       y1="6.9878"
       gradientTransform="matrix(1.3252 0 0 1.3105 -6.0052 -50.962)"
       x2="20.405"
       gradientUnits="userSpaceOnUse"
       xlink:href="#linearGradient3494"
       y2="9.1187"
       id="linearGradient7475" />
    <linearGradient
       x1="21.718"
       y1="6.1797"
       gradientTransform="matrix(1.3252 0 0 1.3105 -6.0052 -50.962)"
       x2="21.718"
       gradientUnits="userSpaceOnUse"
       xlink:href="#linearGradient3506"
       y2="10.01"
       id="linearGradient7477" />
    <linearGradient
       x1="15"
       y1="36"
       x2="15"
       gradientUnits="userSpaceOnUse"
       y2="1.25"
       id="linearGradient8579">
      <stop
         offset="0"
         style="stop-color:gray"
         id="stop3823" />
      <stop
         offset="1"
         style="stop-color:#999"
         id="stop3825" />
    </linearGradient>
    <linearGradient
       x1="25"
       y1="1.125"
       x2="25"
       gradientUnits="userSpaceOnUse"
       y2="35.875"
       id="linearGradient8838">
      <stop
         offset="0"
         style="stop-color:#e6e6e6"
         id="stop3145" />
      <stop
         offset="1"
         style="stop-color:#afafaf"
         id="stop3147" />
    </linearGradient>
    <radialGradient
       r="8"
       gradientTransform="matrix(1.625 -2.2661e-7 1.9175e-7 1.375 -12.667 13.679)"
       cx="21.333"
       cy="-36.857"
       gradientUnits="userSpaceOnUse"
       id="radialGradient9547">
      <stop
         offset="0"
         style="stop-color:#f0f0f0"
         id="stop9129" />
      <stop
         offset="1"
         style="stop-color:#a9a9a9"
         id="stop9131" />
    </radialGradient>
    <linearGradient
       x1="24"
       y1="-35"
       x2="24"
       gradientUnits="userSpaceOnUse"
       y2="-44"
       id="linearGradient9563">
      <stop
         offset="0"
         style="stop-color:#eeeeec"
         id="stop9559" />
      <stop
         offset="1"
         style="stop-color:#eeeeec;stop-opacity:0"
         id="stop9561" />
    </linearGradient>
    <linearGradient
       x1="16"
       y1="-40"
       x2="32"
       gradientUnits="userSpaceOnUse"
       y2="-40"
       id="linearGradient9571">
      <stop
         offset="0"
         style="stop-color:#8f8f8f"
         id="stop9575" />
      <stop
         offset=".12709"
         style="stop-color:#5f5f5f"
         id="stop9577" />
      <stop
         offset=".87578"
         style="stop-color:#616161"
         id="stop9579" />
      <stop
         offset="1"
         style="stop-color:#9e9e9e"
         id="stop9581" />
    </linearGradient>
    <filter
       color-interpolation-filters="sRGB"
       id="filter10041">
      <feGaussianBlur
         stdDeviation="0.51"
         id="feGaussianBlur10043" />
    </filter>
  </defs>
  <path
     d="m37 43.5a13 3.4986 0 1 1 -26 0 13 3.4986 0 1 1 26 0z"
     style="opacity:.4;fill-rule:evenodd;fill:url(#radialGradient7374)"
     id="path23417" />
  <rect
     x="18.027"
     y="33.072"
     width="12.167"
     height="9.5716"
     ry=".625"
     rx="0.625"
     style="fill:#fff"
     id="rect4383" />
  <rect
     x="16.5"
     y="-44.5"
     width="15"
     height="15"
     ry=".56471"
     rx=".56471"
     transform="scale(1,-1)"
     style="stroke:url(#linearGradient9571);fill:url(#radialGradient9547)"
     id="rect3448" />
  <rect
     x="19.46"
     y="-41.54"
     width="3.08"
     height="3.08"
     transform="scale(1,-1)"
     style="opacity:.88172;stroke:url(#linearGradient7477);stroke-width:0.92;fill:url(#linearGradient7475)"
     id="rect3450" />
  <rect
     x="17.5"
     y="-43.5"
     width="13"
     height="13"
     transform="scale(1,-1)"
     style="opacity:.71505;stroke:url(#linearGradient9563);fill:none"
     id="rect3458" />
  <rect
     x="25.46"
     y="-41.54"
     width="3.08"
     height="3.08"
     transform="scale(1,-1)"
     style="opacity:.88172;stroke:url(#linearGradient7471);stroke-width:0.92;fill:url(#linearGradient7469)"
     id="rect2874" />
  <rect
     x="13.5"
     y="1.5"
     width="21"
     height="34"
     ry="1.6208"
     rx="1.625"
     style="stroke-linejoin:round;stroke:url(#linearGradient8579);stroke-linecap:round;fill:url(#linearGradient8838)"
     id="rect5391" />
  <rect
     x="15"
     y="2"
     width="18"
     height="33"
     ry="1.6208"
     rx="1.625"
     style="opacity:.3;filter:url(#filter10041);fill:#fff"
     id="rect8840" />
  <path
     d="m22.678 28.32c0-1.2774 0.42456-1.6088 0.94461-2.0548 0.4175-0.20154 0.48421-0.33913 0.47872-0.9873-0.006-0.71628-0.07462-0.63446-1.4022-1.7869-2.027-1.7595-2.2996-2.1838-2.5376-3.9494-0.17556-1.3022-0.05242-1.0157-0.55638-1.5166-0.92759-0.92193-0.76867-2.274 0.33557-2.8551 0.99478-0.52348 2.1732 0.03328 2.5366 1.1985 0.17911 0.57427-0.25029 1.566-0.82688 1.9097-0.52764 0.31455-0.74654-0.20987-0.62588 0.94961 0.06678 0.64174 0.22952 1.3798 0.36164 1.6401 0.22691 0.44704 2.4489 2.5515 2.6906 2.5515v-12.432h-1.2317c0.57-0.9882 1.125-1.9924 1.677-2.987l1.7577 2.9874h-1.1972v8.42c0.16651 0 1.799-1.6568 2.3483-2.4027 0.23734-0.32228 0.38137-0.77989 0.38137-1.2117 0-0.65124 0.21476-0.78818-0.28196-0.78818h-0.5292v-3.0516h2.9988v3.0516h-0.4851c-0.43284 0.05068-0.74221 0.2713-0.82392 0.99341-0.12186 1.0769-0.58309 1.7837-2.2805 3.4947l-1.3278 1.4319v5.1064l0.39238 0.23418c0.26681 0.1288 0.63426 0.54499 0.81656 0.92487 0.649 1.355-0.254 2.811-1.743 2.811-1.079-0.04-1.871-0.594-1.871-1.68z"
     style="opacity:.95;fill:#fff"
     id="path8593" />
  <path
     d="m22.678 29.32c0-1.2774 0.42456-1.6088 0.94461-2.0548 0.4175-0.20154 0.48421-0.33913 0.47872-0.9873-0.006-0.71628-0.07462-0.63446-1.4022-1.7869-2.027-1.7595-2.2996-2.1838-2.5376-3.9494-0.17556-1.3022-0.05242-1.0157-0.55638-1.5166-0.92759-0.92193-0.76867-2.274 0.33557-2.8551 0.99478-0.52348 2.1732 0.03328 2.5366 1.1985 0.17911 0.57427-0.25029 1.566-0.82688 1.9097-0.52764 0.31455-0.74654-0.20987-0.62588 0.94961 0.06678 0.64174 0.22952 1.3798 0.36164 1.6401 0.22691 0.44704 2.4489 2.5515 2.6906 2.5515v-12.432h-1.2317c0.57-0.988 1.125-1.9924 1.677-2.987l1.7577 2.9874h-1.1972v8.42c0.16651 0 1.799-1.6568 2.3483-2.4027 0.23734-0.32228 0.38137-0.77989 0.38137-1.2117 0-0.65124 0.21476-0.78818-0.28196-0.78818h-0.5292v-3.0516h2.9988v3.0516h-0.4851c-0.43284 0.05068-0.74221 0.2713-0.82392 0.99341-0.12186 1.0769-0.58309 1.7837-2.2805 3.4947l-1.3278 1.4319v5.1064l0.39238 0.23418c0.26681 0.1288 0.63426 0.54499 0.81656 0.92487 0.649 1.355-0.254 2.811-1.743 2.811-1.079-0.04-1.871-0.594-1.871-1.68z"
     style="opacity:.95;fill:#464646"
     id="path8591" />
  <path
     d="m22.678 28.82c0-1.2774 0.42456-1.6088 0.94461-2.0548 0.4175-0.20154 0.48421-0.33913 0.47872-0.9873-0.006-0.71628-0.07462-0.63446-1.4022-1.7869-2.027-1.7595-2.2996-2.1838-2.5376-3.9494-0.17556-1.3022-0.05242-1.0157-0.55638-1.5166-0.92759-0.92193-0.76867-2.274 0.33557-2.8551 0.99478-0.52348 2.1732 0.03328 2.5366 1.1985 0.17911 0.57427-0.25029 1.566-0.82688 1.9097-0.52764 0.31455-0.74654-0.20987-0.62588 0.94961 0.06678 0.64174 0.22952 1.3798 0.36164 1.6401 0.22691 0.44704 2.4489 2.5515 2.6906 2.5515v-12.432h-1.2317c0.57-0.988 1.125-1.9924 1.677-2.987l1.7577 2.9874h-1.1972v8.42c0.16651 0 1.799-1.6568 2.3483-2.4027 0.23734-0.32228 0.38137-0.77989 0.38137-1.2117 0-0.65124 0.21476-0.78818-0.28196-0.78818h-0.5292v-3.0516h2.9988v3.0516h-0.4851c-0.43284 0.05068-0.74221 0.2713-0.82392 0.99341-0.12186 1.0769-0.58309 1.7837-2.2805 3.4947l-1.3278 1.4319v5.1064l0.39238 0.23418c0.26681 0.1288 0.63426 0.54499 0.81656 0.92487 0.649 1.355-0.254 2.811-1.743 2.811-1.079-0.04-1.871-0.594-1.871-1.68z"
     style="opacity:.95;fill:#aaa"
     id="path3690" />
</svg>
