<?xml version="1.0" encoding="UTF-8" standalone="no"?>
<svg
   version="1.1"
   width="48"
   height="48"
   id="svg4033"
   sodipodi:docname="media-optical-data.svg"
   inkscape:version="1.2.2 (b0a8486541, 2022-12-01)"
   xmlns:inkscape="http://www.inkscape.org/namespaces/inkscape"
   xmlns:sodipodi="http://sodipodi.sourceforge.net/DTD/sodipodi-0.dtd"
   xmlns:xlink="http://www.w3.org/1999/xlink"
   xmlns="http://www.w3.org/2000/svg"
   xmlns:svg="http://www.w3.org/2000/svg"
   xmlns:rdf="http://www.w3.org/1999/02/22-rdf-syntax-ns#"
   xmlns:cc="http://creativecommons.org/ns#"
   xmlns:dc="http://purl.org/dc/elements/1.1/">
  <sodipodi:namedview
     id="namedview14513"
     pagecolor="#ffffff"
     bordercolor="#666666"
     borderopacity="1.0"
     inkscape:showpageshadow="2"
     inkscape:pageopacity="0.0"
     inkscape:pagecheckerboard="0"
     inkscape:deskcolor="#d1d1d1"
     showgrid="false"
     inkscape:zoom="19.666667"
     inkscape:cx="45.737288"
     inkscape:cy="25.423729"
     inkscape:window-width="1278"
     inkscape:window-height="1005"
     inkscape:window-x="662"
     inkscape:window-y="0"
     inkscape:window-maximized="0"
     inkscape:current-layer="svg4033" />
  <defs
     id="defs4035">
    <linearGradient
       inkscape:collect="always"
       id="linearGradient17759">
      <stop
         style="stop-color:#000000;stop-opacity:0.23999999;"
         offset="0"
         id="stop17755" />
      <stop
         style="stop-color:#000000;stop-opacity:0.30000001;"
         offset="1"
         id="stop17757" />
    </linearGradient>
    <linearGradient
       id="linearGradient6036">
      <stop
         id="stop6038"
         style="stop-color:#ffffff;stop-opacity:1"
         offset="0" />
      <stop
         id="stop6040"
         style="stop-color:#ffffff;stop-opacity:0"
         offset="1" />
    </linearGradient>
    <linearGradient
       id="linearGradient4011">
      <stop
         id="stop4013"
         style="stop-color:#ffffff;stop-opacity:1"
         offset="0" />
      <stop
         id="stop4015"
         style="stop-color:#ffffff;stop-opacity:0.23529412"
         offset="0.507761" />
      <stop
         id="stop4017"
         style="stop-color:#ffffff;stop-opacity:0.15686275"
         offset="0.83456558" />
      <stop
         id="stop4019"
         style="stop-color:#ffffff;stop-opacity:0.39215687"
         offset="1" />
    </linearGradient>
    <linearGradient
       x1="20.580074"
       y1="10.774516"
       x2="24.27351"
       y2="9.8622112"
       id="linearGradient3311"
       xlink:href="#linearGradient3487"
       gradientUnits="userSpaceOnUse"
       spreadMethod="reflect" />
    <linearGradient
       id="linearGradient3487">
      <stop
         id="stop3489"
         style="stop-color:#e6cde2;stop-opacity:1"
         offset="0" />
      <stop
         id="stop3491"
         style="stop-color:#e6cde2;stop-opacity:0"
         offset="1" />
    </linearGradient>
    <linearGradient
       x1="17.494959"
       y1="11.200086"
       x2="21.047453"
       y2="9.7956104"
       id="linearGradient3313"
       xlink:href="#linearGradient3495"
       gradientUnits="userSpaceOnUse"
       spreadMethod="reflect" />
    <linearGradient
       id="linearGradient3495">
      <stop
         id="stop3497"
         style="stop-color:#c1cbe4;stop-opacity:1"
         offset="0" />
      <stop
         id="stop3499"
         style="stop-color:#c1cbe4;stop-opacity:0"
         offset="1" />
    </linearGradient>
    <linearGradient
       x1="14.084608"
       y1="13.045606"
       x2="16.994024"
       y2="10.732353"
       id="linearGradient3315"
       xlink:href="#linearGradient3503"
       gradientUnits="userSpaceOnUse"
       spreadMethod="reflect" />
    <linearGradient
       id="linearGradient3503">
      <stop
         id="stop3505"
         style="stop-color:#c4ebdd;stop-opacity:1"
         offset="0" />
      <stop
         id="stop3507"
         style="stop-color:#c4ebdd;stop-opacity:0"
         offset="1" />
    </linearGradient>
    <linearGradient
       x1="12.371647"
       y1="16.188046"
       x2="14.609327"
       y2="13.461712"
       id="linearGradient3317"
       xlink:href="#linearGradient3511"
       gradientUnits="userSpaceOnUse"
       spreadMethod="reflect" />
    <linearGradient
       id="linearGradient3511">
      <stop
         id="stop3513"
         style="stop-color:#ebeec7;stop-opacity:1"
         offset="0" />
      <stop
         id="stop3515"
         style="stop-color:#ebeec7;stop-opacity:0"
         offset="1" />
    </linearGradient>
    <linearGradient
       x1="10.609375"
       y1="17.886322"
       x2="9.7297754"
       y2="20.612656"
       id="linearGradient3319"
       xlink:href="#linearGradient3519"
       gradientUnits="userSpaceOnUse"
       spreadMethod="reflect" />
    <linearGradient
       id="linearGradient3519">
      <stop
         id="stop3521"
         style="stop-color:#fcd9cd;stop-opacity:1"
         offset="0" />
      <stop
         id="stop3523"
         style="stop-color:#fcd9cd;stop-opacity:0"
         offset="1" />
    </linearGradient>
    <linearGradient
       x1="20.580074"
       y1="10.774516"
       x2="24.27351"
       y2="9.8622112"
       id="linearGradient3346"
       xlink:href="#linearGradient3487"
       gradientUnits="userSpaceOnUse"
       spreadMethod="reflect" />
    <linearGradient
       x1="17.494959"
       y1="11.200086"
       x2="21.047453"
       y2="9.7956104"
       id="linearGradient3348"
       xlink:href="#linearGradient3495"
       gradientUnits="userSpaceOnUse"
       spreadMethod="reflect" />
    <linearGradient
       x1="14.084608"
       y1="13.045606"
       x2="16.994024"
       y2="10.732353"
       id="linearGradient3350"
       xlink:href="#linearGradient3503"
       gradientUnits="userSpaceOnUse"
       spreadMethod="reflect" />
    <linearGradient
       x1="12.371647"
       y1="16.188046"
       x2="14.609327"
       y2="13.461712"
       id="linearGradient3352"
       xlink:href="#linearGradient3511"
       gradientUnits="userSpaceOnUse"
       spreadMethod="reflect" />
    <linearGradient
       x1="10.609375"
       y1="17.886322"
       x2="9.7297754"
       y2="20.612656"
       id="linearGradient3354"
       xlink:href="#linearGradient3519"
       gradientUnits="userSpaceOnUse"
       spreadMethod="reflect" />
    <linearGradient
       x1="12.2744"
       y1="32.4165"
       x2="35.391201"
       y2="14.2033"
       id="linearGradient3263"
       gradientUnits="userSpaceOnUse">
      <stop
         id="stop3265"
         style="stop-color:#dedcde;stop-opacity:1"
         offset="0" />
      <stop
         id="stop3267"
         style="stop-color:#f0f0f0;stop-opacity:1"
         offset="0.5" />
      <stop
         id="stop3269"
         style="stop-color:#d2d2d2;stop-opacity:1"
         offset="1" />
    </linearGradient>
    <linearGradient
       id="linearGradient23419">
      <stop
         id="stop23421"
         style="stop-color:#000000;stop-opacity:1"
         offset="0" />
      <stop
         id="stop23423"
         style="stop-color:#000000;stop-opacity:0"
         offset="1" />
    </linearGradient>
    <linearGradient
       xlink:href="#linearGradient6036"
       id="linearGradient3054"
       gradientUnits="userSpaceOnUse"
       gradientTransform="matrix(0.4293444,0,0,-0.4293442,13.546752,34.733607)"
       x1="18.775953"
       y1="4.0378027"
       x2="18.203465"
       y2="45.962208" />
    <linearGradient
       xlink:href="#linearGradient4011"
       id="linearGradient3057"
       gradientUnits="userSpaceOnUse"
       gradientTransform="matrix(1.054054,0,0,1.054054,-51.611003,-2.7278988)"
       x1="71.204407"
       y1="6.2375584"
       x2="71.204407"
       y2="44.340794" />
    <linearGradient
       xlink:href="#linearGradient3263"
       id="linearGradient3076"
       gradientUnits="userSpaceOnUse"
       gradientTransform="matrix(0,1.1714389,-1.1714389,0,51.060244,-4.11454)"
       x1="12.2744"
       y1="32.4165"
       x2="35.391201"
       y2="14.2033" />
    <radialGradient
       xlink:href="#linearGradient23419"
       id="radialGradient3081"
       gradientUnits="userSpaceOnUse"
       gradientTransform="matrix(0.9722718,0,0,0.2872354,1.3124992,27.540524)"
       cx="23.334524"
       cy="41.63604"
       fx="23.334524"
       fy="41.63604"
       r="22.627417" />
    <linearGradient
       x1="22.004084"
       y1="47.813133"
       x2="22.004084"
       y2="3.3638515"
       id="linearGradient3031"
       xlink:href="#linearGradient3104-5"
       gradientUnits="userSpaceOnUse"
       gradientTransform="matrix(0.48571482,0,0,0.477213,23.694404,23.673206)" />
    <linearGradient
       id="linearGradient3104-5">
      <stop
         id="stop3106-2"
         style="stop-color:#aaaaaa;stop-opacity:1"
         offset="0" />
      <stop
         id="stop3108-5"
         style="stop-color:#c8c8c8;stop-opacity:1"
         offset="1" />
    </linearGradient>
    <linearGradient
       x1="23.99999"
       y1="6.4736748"
       x2="23.99999"
       y2="41.526306"
       id="linearGradient3013"
       xlink:href="#linearGradient3977"
       gradientUnits="userSpaceOnUse"
       gradientTransform="matrix(0.40540511,0,0,0.51351351,26.269687,23.675684)" />
    <linearGradient
       id="linearGradient3977">
      <stop
         id="stop3979"
         style="stop-color:#ffffff;stop-opacity:1"
         offset="0" />
      <stop
         id="stop3981"
         style="stop-color:#ffffff;stop-opacity:0.23529412"
         offset="0" />
      <stop
         id="stop3983"
         style="stop-color:#ffffff;stop-opacity:0.15686275"
         offset="1" />
      <stop
         id="stop3985"
         style="stop-color:#ffffff;stop-opacity:0.39215687"
         offset="1" />
    </linearGradient>
    <linearGradient
       x1="25.132275"
       y1="0.98520643"
       x2="25.132275"
       y2="47.013336"
       id="linearGradient3016"
       xlink:href="#linearGradient3600-4"
       gradientUnits="userSpaceOnUse"
       gradientTransform="matrix(0.45714178,0,0,0.43456667,25.028596,24.903727)" />
    <linearGradient
       id="linearGradient3600-4">
      <stop
         id="stop3602-7"
         style="stop-color:#f4f4f4;stop-opacity:1"
         offset="0" />
      <stop
         id="stop3604-6"
         style="stop-color:#dbdbdb;stop-opacity:1"
         offset="1" />
    </linearGradient>
    <radialGradient
       cx="605.71429"
       cy="486.64789"
       r="117.14286"
       fx="605.71429"
       fy="486.64789"
       id="radialGradient3021"
       xlink:href="#linearGradient23419"
       gradientUnits="userSpaceOnUse"
       gradientTransform="matrix(0.01204859,0,0,0.01235295,37.238793,40.47084)" />
    <radialGradient
       cx="605.71429"
       cy="486.64789"
       r="117.14286"
       fx="605.71429"
       fy="486.64789"
       id="radialGradient3024"
       xlink:href="#linearGradient23419"
       gradientUnits="userSpaceOnUse"
       gradientTransform="matrix(-0.01204859,0,0,0.01235295,34.761206,40.47084)" />
    <linearGradient
       x1="302.85715"
       y1="366.64789"
       x2="302.85715"
       y2="609.50507"
       id="linearGradient3027"
       xlink:href="#linearGradient5048"
       gradientUnits="userSpaceOnUse"
       gradientTransform="matrix(0.0352071,0,0,0.01235295,23.275148,40.470814)" />
    <linearGradient
       id="linearGradient5048">
      <stop
         id="stop5050"
         style="stop-color:#000000;stop-opacity:0"
         offset="0" />
      <stop
         id="stop5056"
         style="stop-color:#000000;stop-opacity:1"
         offset="0.5" />
      <stop
         id="stop5052"
         style="stop-color:#000000;stop-opacity:0"
         offset="1" />
    </linearGradient>
    <linearGradient
       inkscape:collect="always"
       xlink:href="#linearGradient17759"
       id="linearGradient17761"
       x1="35.540184"
       y1="37.5"
       x2="40.655651"
       y2="45.999866"
       gradientUnits="userSpaceOnUse" />
  </defs>
  <metadata
     id="metadata4038">
    <rdf:RDF>
      <cc:Work
         rdf:about="">
        <dc:format>image/svg+xml</dc:format>
        <dc:type
           rdf:resource="http://purl.org/dc/dcmitype/StillImage" />
      </cc:Work>
    </rdf:RDF>
  </metadata>
  <path
     style="opacity:0.3;fill:url(#radialGradient3081);fill-opacity:1;fill-rule:evenodd;stroke:none;stroke-width:2;marker:none;visibility:visible;display:inline;overflow:visible"
     id="path23417"
     d="m 46,39.499867 c 0.0011,3.589753 -9.848934,6.500001 -22,6.500001 -12.151066,0 -22.001133,-2.910248 -21.9999999,-6.500001 C 1.998867,35.910116 11.848934,32.999868 24,32.999868 c 12.151066,0 22.001133,2.910248 22,6.499999 l 0,0 z" />
  <path
     style="fill:url(#linearGradient3076);fill-rule:nonzero;stroke:none;stroke-width:1;stroke-miterlimit:4;stroke-opacity:1"
     id="path2781"
     d="M 44.5,24 C 44.5,12.637039 35.362959,3.5 24,3.5 12.637038,3.5 3.5000001,12.63704 3.5000001,24 3.4999981,35.36296 12.637039,44.5 24,44.5 35.362958,44.499998 44.5,35.362961 44.5,24 z m -13,0 c 0,4.12813 -3.28927,7.5 -7.5,7.5 -4.29333,0 -7.5,-3.455313 -7.5,-7.5 0,-4.127303 3.041467,-7.5 7.5,-7.5 4.458533,0 7.5,3.45447 7.5,7.5 z" />
  <path
     style="opacity:0.5;fill:#ffffff;fill-opacity:1;fill-rule:nonzero;stroke:none;stroke-width:1;marker:none;visibility:visible;display:inline;overflow:visible;enable-background:accumulate"
     id="path2474"
     d="m 24,16 c -4.416,0 -8,3.584 -8,8 0,4.416 3.584,8 8,8 4.416,0 8,-3.584 8,-8 0,-4.416 -3.584,-8 -8,-8 z m 0,4 c 2.208,0 4,1.792 4,4 0,2.208 -1.792,4 -4,4 -2.208,0 -4,-1.792 -4,-4 0,-2.208 1.792,-4 4,-4 z" />
  <path
     style="fill:none;stroke:#000000;stroke-width:1;stroke-linecap:butt;stroke-linejoin:round;stroke-miterlimit:4;stroke-opacity:1;stroke-dasharray:none;stroke-dashoffset:0;marker:none;visibility:visible;display:inline;overflow:visible;enable-background:accumulate;opacity:0.29999999999999999"
     id="path3418"
     d="m 24,20.25 c 2.07,0 3.75,1.68 3.75,3.75 0,2.07 -1.68,3.75 -3.75,3.75 -2.07,0 -3.75,-1.68 -3.75,-3.75 0,-2.07 1.68,-3.75 3.75,-3.75 z" />
  <g
     id="g3527">
    <path
       style="opacity:0.8;fill:url(#linearGradient3346);fill-opacity:1;fill-rule:nonzero;stroke:none"
       id="path3296"
       transform="matrix(0.9996011,0.02824295,-0.02824295,0.9996011,0.6924114,-0.6708346)"
       d="M 15.856928,5.7307748 20.625,16.34375 C 21.660403,15.885186 22.795334,15.625 24,15.625 c 0.03206,0 0.06178,-3.6e-4 0.09375,0 L 24.10801,4.0047512 c -2.94215,-0.070687 -5.543041,0.6572865 -8.251083,1.7260236 l 10e-7,0 z" />
    <path
       style="opacity:0.8;fill:url(#linearGradient3348);fill-opacity:1;fill-rule:nonzero;stroke:none"
       id="path3308"
       d="m 12.121471,7.9060109 6.931026,9.3601041 c 0.913109,-0.669755 1.965938,-1.167064 3.142629,-1.425169 0.03132,-0.0069 0.06026,-0.01359 0.09157,-0.02009 L 19.857174,4.426276 c -2.888973,0.5613244 -5.31953,1.8556038 -7.735703,3.4797349 l 0,0 z" />
    <path
       style="opacity:0.8;fill:url(#linearGradient3350);fill-opacity:1;fill-rule:nonzero;stroke:none"
       id="path3310"
       d="m 8.2523933,11.646535 9.2137237,7.155818 c 0.70865,-0.883264 1.596891,-1.636119 2.666685,-2.18998 0.02847,-0.01474 0.05469,-0.02872 0.08325,-0.0431 L 14.86585,6.2506132 C 12.220599,7.5405321 10.165881,9.452393 8.2523933,11.646535 z" />
    <path
       style="opacity:0.8;fill:url(#linearGradient3352);fill-opacity:1;fill-rule:nonzero;stroke:none"
       id="path3312"
       d="m 5.6328855,16.073974 c 7.1748065,2.242248 7.8502625,7.031463 12.7767855,1.754127 L 10.499985,9.1321388 C 8.2787249,11.062747 6.9132871,13.459349 5.6328855,16.073974 z" />
    <path
       style="opacity:0.8;fill:url(#linearGradient3354);fill-opacity:1;fill-rule:nonzero;stroke:none"
       id="path3314"
       d="M 7.155289,13.193173 C 5.9722117,14.945185 5.2475768,16.829547 4.6301929,18.837116 L 15.96875,21.8125 C 16.184264,21.049497 16.486796,20.297733 16.9375,19.59375 16.95479,19.56675 16.98246,19.52673 17,19.5 L 7.155289,13.193173 z" />
  </g>
  <g
     id="g3297"
     transform="matrix(-1,0,0,-1,47.999999,47.990833)">
    <path
       style="opacity:0.8;fill:url(#linearGradient3311);fill-opacity:1;fill-rule:nonzero;stroke:none"
       id="path3299"
       transform="matrix(0.9996011,0.02824295,-0.02824295,0.9996011,0.6924114,-0.6708346)"
       d="M 15.856928,5.7307748 20.625,16.34375 C 21.660403,15.885186 22.795334,15.625 24,15.625 c 0.03206,0 0.06178,-3.6e-4 0.09375,0 L 24.10801,4.0047512 c -2.94215,-0.070687 -5.543041,0.6572865 -8.251083,1.7260236 l 10e-7,0 z" />
    <path
       style="opacity:0.8;fill:url(#linearGradient3313);fill-opacity:1;fill-rule:nonzero;stroke:none"
       id="path3301"
       d="m 12.121471,7.9060109 6.931026,9.3601041 c 0.913109,-0.669755 1.965938,-1.167064 3.142629,-1.425169 0.03132,-0.0069 0.06026,-0.01359 0.09157,-0.02009 L 19.857174,4.426276 c -2.888973,0.5613244 -5.31953,1.8556038 -7.735703,3.4797349 l 0,0 z" />
    <path
       style="opacity:0.8;fill:url(#linearGradient3315);fill-opacity:1;fill-rule:nonzero;stroke:none"
       id="path3303"
       d="m 8.2523933,11.646535 9.2137237,7.155818 c 0.70865,-0.883264 1.596891,-1.636119 2.666685,-2.18998 0.02847,-0.01474 0.05469,-0.02872 0.08325,-0.0431 L 14.86585,6.2506132 C 12.220599,7.5405321 10.165881,9.452393 8.2523933,11.646535 z" />
    <path
       style="opacity:0.8;fill:url(#linearGradient3317);fill-opacity:1;fill-rule:nonzero;stroke:none"
       id="path3305"
       d="m 5.6328855,16.073974 c 7.1748065,2.242248 7.8502625,7.031463 12.7767855,1.754127 L 10.499985,9.1321388 C 8.2787249,11.062747 6.9132871,13.459349 5.6328855,16.073974 z" />
    <path
       style="opacity:0.8;fill:url(#linearGradient3319);fill-opacity:1;fill-rule:nonzero;stroke:none"
       id="path3307"
       d="M 7.155289,13.193173 C 5.9722117,14.945185 5.2475768,16.829547 4.6301929,18.837116 L 15.96875,21.8125 C 16.184264,21.049497 16.486796,20.297733 16.9375,19.59375 16.95479,19.56675 16.98246,19.52673 17,19.5 L 7.155289,13.193173 z" />
  </g>
  <path
     style="opacity:0.55;color:#000000;fill:none;stroke:url(#linearGradient3057);stroke-width:1;stroke-linecap:round;stroke-linejoin:round;stroke-miterlimit:4;stroke-opacity:1;stroke-dasharray:none;stroke-dashoffset:0;marker:none;visibility:visible;display:inline;overflow:visible;enable-background:accumulate"
     id="path8655"
     d="M 43.5,23.99931 C 43.5,34.76921 34.76891,43.5 24.000247,43.5 13.230598,43.5 4.5,34.769111 4.5,23.99931 4.5,13.229908 13.230598,4.5000024 24.000247,4.5000024 34.76891,4.5000024 43.5,13.229908 43.5,23.99931 l 0,0 z" />
  <path
     style="opacity:0.4;fill:none;stroke:url(#linearGradient3054);stroke-width:0.99999982;stroke-miterlimit:4;stroke-opacity:1"
     id="path3281"
     d="m 24,32.5 c -4.711429,0 -8.5,-3.788571 -8.5,-8.5 0,-4.711429 3.788571,-8.500001 8.5,-8.500001 4.711431,0 8.5,3.788572 8.5,8.500001 0,4.711429 -3.788569,8.5 -8.5,8.5 l 0,0 0,0 0,0 z" />
  <path
     style="fill:none;fill-rule:nonzero;stroke:#000000;stroke-width:1;stroke-miterlimit:4;stroke-opacity:1;opacity:0.3"
     id="path2781-3"
     d="M 44.5,24 C 44.5,12.637039 35.362959,3.5 24,3.5 12.637038,3.5 3.5000001,12.63704 3.5000001,24 3.4999981,35.36296 12.637039,44.5 24,44.5 35.362958,44.499998 44.5,35.362961 44.5,24 z m -13,0 c 0,4.12813 -3.28927,7.5 -7.5,7.5 -4.29333,0 -7.5,-3.455313 -7.5,-7.5 0,-4.127303 3.041467,-7.5 7.5,-7.5 4.458533,0 7.5,3.45447 7.5,7.5 z" />
  <rect
     width="16.999998"
     height="3"
     x="27.5"
     y="45"
     id="rect2879"
     style="display:inline;overflow:visible;visibility:visible;opacity:0.15;fill:url(#linearGradient3027);fill-opacity:1;fill-rule:nonzero;stroke:none;stroke-width:1;marker:none" />
  <path
     d="m 27.5,45.000122 c 0,0 0,2.999836 0,2.999836 -0.620472,0.0057 -1.5,-0.672113 -1.5,-1.500113 0,-0.827998 0.6924,-1.499724 1.5,-1.499723 z"
     id="path2881"
     style="display:inline;overflow:visible;visibility:visible;opacity:0.15;fill:url(#radialGradient3024);fill-opacity:1;fill-rule:nonzero;stroke:none;stroke-width:1;marker:none" />
  <path
     d="m 44.5,45.000122 c 0,0 0,2.999836 0,2.999836 0.620472,0.0057 1.5,-0.672113 1.5,-1.500113 0,-0.827998 -0.692402,-1.499724 -1.5,-1.499723 z"
     id="path2883"
     style="display:inline;overflow:visible;visibility:visible;opacity:0.15;fill:url(#radialGradient3021);fill-opacity:1;fill-rule:nonzero;stroke:none;stroke-width:1;marker:none" />
  <rect
     style="font-variation-settings:normal;opacity:1;vector-effect:none;fill:url(#linearGradient3016);fill-opacity:1;stroke:none;stroke-width:1;stroke-linecap:butt;stroke-linejoin:miter;stroke-miterlimit:4;stroke-dasharray:none;stroke-dashoffset:0;stroke-opacity:1;-inkscape-stroke:none;stop-color:#000000;stop-opacity:1"
     id="rect18517"
     width="16"
     height="20"
     x="28"
     y="26.000002"
     rx="0.5"
     ry="0.5" />
  <path
     d="m 43.5,45.500004 h -15 v -19 h 15 z"
     id="rect6741-1"
     style="fill:none;stroke:url(#linearGradient3013);stroke-width:1;stroke-linecap:round;stroke-linejoin:miter;stroke-miterlimit:4;stroke-dasharray:none;stroke-dashoffset:0;stroke-opacity:1" />
  <path
     style="fill:none;stroke:url(#linearGradient3031);stroke-width:1px;stroke-linecap:butt;stroke-linejoin:miter;stroke-opacity:1;opacity:0.6"
     id="path3475"
     d="m 30,29.500004 h 1.138394 z m 1.305359,0 h 1.062501 z m 1.229466,0 h 0.941072 z m 1.092858,0 h 0.409822 z m 0.576786,0 h 0.910715 z m 1.092859,0 h 2.398216 z m 2.550002,0 h 1.83661 z m 1.988395,0 h 0.561608 z M 30,31.492548 h 1.502681 z m 1.654466,0 h 2.458932 z m 2.610718,0 h 1.199108 z m 1.350894,0 h 1.123215 z m 1.275001,0 h 0.956251 z m 1.108037,0 1.50268,0.01491 z m 1.639288,0.01491 H 42 Z M 30,33.500001 h 0.774108 z m 1.016966,0 h 2.868753 z M 30,35.492546 h 1.502681 z m 1.654466,0 h 2.458932 z m 2.610718,0 h 1.199108 z m 1.350894,0 h 1.123215 z m 1.275001,0 h 0.956251 z m 1.108037,0 1.50268,0.01491 z m 1.639288,0.01491 h 2.443752 z M 30,37.500001 h 2.079467 z m 2.246431,0 h 2.246431 z m 2.398217,0 h 0.895537 z m 1.047323,0 h 2.109824 z m 2.246431,0 h 1.441966 z m 1.60893,0 h 0.576787 z m 0.728572,0 h 0.318751 z m 0.485715,0 h 0.895537 z M 30,40.492546 h 1.502681 z m 1.654466,0 h 2.458932 z m 2.610718,0 h 1.199108 z m 1.350894,0 h 1.123215 z m 1.275001,0 h 0.956251 z m 1.108037,0 1.50268,0.01491 z m 1.639288,0.01491 h 2.443752 z M 30,42.500001 h 1.882145 z m 2.04911,0 h 0.591965 z m 0.743751,0 h 1.350894 z m 1.50268,0 h 1.988395 z m 2.155359,0 h 1.350895 z m 1.487502,0 h 0.288393 z m 0.440179,0 h 1.71518 z m 1.897323,0 h 0.895537 z"
     sodipodi:nodetypes="ccccccccccccccccccccccccccccccccccccccccccccccccccccccccccccccccccccccccccccccccccccccccccccccccccccccccccccccccccccccccccccccccccccccccccccc" />
  <rect
     style="font-variation-settings:normal;opacity:1;vector-effect:none;fill:none;fill-opacity:1;stroke:url(#linearGradient17761);stroke-width:0.999922;stroke-linecap:butt;stroke-linejoin:round;stroke-miterlimit:4;stroke-dasharray:none;stroke-dashoffset:0;stroke-opacity:1;-inkscape-stroke:none;stop-color:#000000;stop-opacity:1"
     id="rect18211"
     width="17"
     height="21"
     x="27.5"
     y="25.5"
     rx="1"
     ry="1" />
</svg>
