<?xml version="1.0" encoding="UTF-8" standalone="no"?>
<svg
   xmlns:dc="http://purl.org/dc/elements/1.1/"
   xmlns:cc="http://creativecommons.org/ns#"
   xmlns:rdf="http://www.w3.org/1999/02/22-rdf-syntax-ns#"
   xmlns:svg="http://www.w3.org/2000/svg"
   xmlns="http://www.w3.org/2000/svg"
   xmlns:xlink="http://www.w3.org/1999/xlink"
   id="svg3367"
   height="48"
   width="48"
   version="1.0">
  <metadata
     id="metadata76">
    <rdf:RDF>
      <cc:Work
         rdf:about="">
        <dc:format>image/svg+xml</dc:format>
        <dc:type
           rdf:resource="http://purl.org/dc/dcmitype/StillImage" />
      </cc:Work>
    </rdf:RDF>
  </metadata>
  <defs
     id="defs3369">
    <linearGradient
       id="linearGradient3221">
      <stop
         id="stop3223"
         offset="0"
         style="stop-color:#ffffff;stop-opacity:1;" />
      <stop
         id="stop3225"
         offset="1"
         style="stop-color:#ffffff;stop-opacity:0;" />
    </linearGradient>
    <linearGradient
       id="linearGradient3839">
      <stop
         offset="0"
         style="stop-color:#ffed8c;stop-opacity:1"
         id="stop3841" />
      <stop
         offset="0.26238"
         style="stop-color:#fb9858;stop-opacity:1"
         id="stop3843" />
      <stop
         offset="0.66093999"
         style="stop-color:#dc572a;stop-opacity:1"
         id="stop3845" />
      <stop
         offset="1"
         style="stop-color:#9f3110;stop-opacity:1"
         id="stop3847" />
    </linearGradient>
    <radialGradient
       gradientTransform="matrix(0,3.4076715,-4.4528468,0,77.533666,-12.124767)"
       gradientUnits="userSpaceOnUse"
       xlink:href="#linearGradient3839"
       id="radialGradient2710"
       fy="12.12289"
       fx="8.8912868"
       r="11"
       cy="12.12289"
       cx="8.8912868" />
    <linearGradient
       id="linearGradient23419">
      <stop
         offset="0"
         style="stop-color:#000000;stop-opacity:1"
         id="stop23421" />
      <stop
         offset="1"
         style="stop-color:#000000;stop-opacity:0"
         id="stop23423" />
    </linearGradient>
    <linearGradient
       id="linearGradient3772">
      <stop
         offset="0"
         style="stop-color:#b4b4b4;stop-opacity:1"
         id="stop3774" />
      <stop
         offset="1"
         style="stop-color:#969696;stop-opacity:1"
         id="stop3776" />
    </linearGradient>
    <linearGradient
       gradientUnits="userSpaceOnUse"
       id="linearGradient3263"
       y2="14.2033"
       x2="35.391201"
       y1="32.4165"
       x1="12.2744">
      <stop
         offset="0"
         style="stop-color:#dedbde;stop-opacity:1"
         id="stop3265" />
      <stop
         offset="0.5"
         style="stop-color:#e6e6e6;stop-opacity:1"
         id="stop3267" />
      <stop
         offset="1"
         style="stop-color:#d2d2d2;stop-opacity:1"
         id="stop3269" />
    </linearGradient>
    <linearGradient
       id="linearGradient3428">
      <stop
         offset="0"
         style="stop-color:#aaaaaa;stop-opacity:1"
         id="stop3430" />
      <stop
         offset="1"
         style="stop-color:#d4d4d4;stop-opacity:1"
         id="stop3432" />
    </linearGradient>
    <linearGradient
       spreadMethod="reflect"
       gradientUnits="userSpaceOnUse"
       xlink:href="#linearGradient3519"
       id="linearGradient3354"
       y2="20.612656"
       x2="9.7297754"
       y1="17.886322"
       x1="10.609375" />
    <linearGradient
       spreadMethod="reflect"
       gradientUnits="userSpaceOnUse"
       xlink:href="#linearGradient3511"
       id="linearGradient3352"
       y2="13.461712"
       x2="14.609327"
       y1="16.188046"
       x1="12.371647" />
    <linearGradient
       spreadMethod="reflect"
       gradientUnits="userSpaceOnUse"
       xlink:href="#linearGradient3503"
       id="linearGradient3350"
       y2="10.732353"
       x2="16.994024"
       y1="13.045606"
       x1="14.084608" />
    <linearGradient
       spreadMethod="reflect"
       gradientUnits="userSpaceOnUse"
       xlink:href="#linearGradient3495"
       id="linearGradient3348"
       y2="9.7956104"
       x2="21.047453"
       y1="11.200086"
       x1="17.494959" />
    <linearGradient
       spreadMethod="reflect"
       gradientUnits="userSpaceOnUse"
       xlink:href="#linearGradient3487"
       id="linearGradient3346"
       y2="9.8622112"
       x2="24.27351"
       y1="10.774516"
       x1="20.580074" />
    <linearGradient
       id="linearGradient6036">
      <stop
         offset="0"
         style="stop-color:#ffffff;stop-opacity:1"
         id="stop6038" />
      <stop
         offset="1"
         style="stop-color:#ffffff;stop-opacity:0"
         id="stop6040" />
    </linearGradient>
    <linearGradient
       id="linearGradient3519">
      <stop
         offset="0"
         style="stop-color:#fcd9cd;stop-opacity:1"
         id="stop3521" />
      <stop
         offset="1"
         style="stop-color:#fcd9cd;stop-opacity:0"
         id="stop3523" />
    </linearGradient>
    <linearGradient
       spreadMethod="reflect"
       gradientUnits="userSpaceOnUse"
       xlink:href="#linearGradient3519"
       id="linearGradient3319"
       y2="20.612656"
       x2="9.7297754"
       y1="17.886322"
       x1="10.609375" />
    <linearGradient
       id="linearGradient3511">
      <stop
         offset="0"
         style="stop-color:#ebeec7;stop-opacity:1"
         id="stop3513" />
      <stop
         offset="1"
         style="stop-color:#ebeec7;stop-opacity:0"
         id="stop3515" />
    </linearGradient>
    <linearGradient
       spreadMethod="reflect"
       gradientUnits="userSpaceOnUse"
       xlink:href="#linearGradient3511"
       id="linearGradient3317"
       y2="13.461712"
       x2="14.609327"
       y1="16.188046"
       x1="12.371647" />
    <linearGradient
       id="linearGradient3503">
      <stop
         offset="0"
         style="stop-color:#c4ebdd;stop-opacity:1"
         id="stop3505" />
      <stop
         offset="1"
         style="stop-color:#c4ebdd;stop-opacity:0"
         id="stop3507" />
    </linearGradient>
    <linearGradient
       spreadMethod="reflect"
       gradientUnits="userSpaceOnUse"
       xlink:href="#linearGradient3503"
       id="linearGradient3315"
       y2="10.732353"
       x2="16.994024"
       y1="13.045606"
       x1="14.084608" />
    <linearGradient
       id="linearGradient3495">
      <stop
         offset="0"
         style="stop-color:#c1cbe4;stop-opacity:1"
         id="stop3497" />
      <stop
         offset="1"
         style="stop-color:#c1cbe4;stop-opacity:0"
         id="stop3499" />
    </linearGradient>
    <linearGradient
       spreadMethod="reflect"
       gradientUnits="userSpaceOnUse"
       xlink:href="#linearGradient3495"
       id="linearGradient3313"
       y2="9.7956104"
       x2="21.047453"
       y1="11.200086"
       x1="17.494959" />
    <linearGradient
       id="linearGradient3487">
      <stop
         offset="0"
         style="stop-color:#e6cde2;stop-opacity:1"
         id="stop3489" />
      <stop
         offset="1"
         style="stop-color:#e6cde2;stop-opacity:0"
         id="stop3491" />
    </linearGradient>
    <linearGradient
       spreadMethod="reflect"
       gradientUnits="userSpaceOnUse"
       xlink:href="#linearGradient3487"
       id="linearGradient3311"
       y2="9.8622112"
       x2="24.27351"
       y1="10.774516"
       x1="20.580074" />
    <linearGradient
       gradientTransform="matrix(0.4293444,0,0,0.4293442,13.546752,13.266392)"
       gradientUnits="userSpaceOnUse"
       xlink:href="#linearGradient6036"
       id="linearGradient2755"
       y2="45.962208"
       x2="18.203465"
       y1="4.0378027"
       x1="18.775953" />
    <linearGradient
       gradientTransform="matrix(0.9375,0,0,0.9375,1.5,1.5)"
       gradientUnits="userSpaceOnUse"
       xlink:href="#linearGradient3428"
       id="linearGradient2758"
       y2="32.509201"
       x2="21.448364"
       y1="15.5"
       x1="21.448364" />
    <linearGradient
       gradientTransform="matrix(0,1.1714389,-1.1714389,0,51.060244,-4.11454)"
       gradientUnits="userSpaceOnUse"
       xlink:href="#linearGradient3263"
       id="linearGradient2762"
       y2="14.2033"
       x2="35.391201"
       y1="32.4165"
       x1="12.2744" />
    <linearGradient
       gradientTransform="translate(50.26506,0)"
       gradientUnits="userSpaceOnUse"
       xlink:href="#linearGradient3772"
       id="linearGradient2764"
       y2="45.032898"
       x2="-21.915663"
       y1="3"
       x1="-21.915663" />
    <radialGradient
       gradientTransform="matrix(0.9722718,0,0,0.2872354,1.3124992,27.540524)"
       gradientUnits="userSpaceOnUse"
       xlink:href="#linearGradient23419"
       id="radialGradient2767"
       fy="41.63604"
       fx="23.334524"
       r="22.627417"
       cy="41.63604"
       cx="23.334524" />
    <linearGradient
       gradientUnits="userSpaceOnUse"
       y2="48.290028"
       x2="17.301205"
       y1="0.28915665"
       x1="17.301205"
       id="linearGradient3227"
       xlink:href="#linearGradient3221" />
    <linearGradient
       y2="3.9521437"
       x2="30.538485"
       y1="46.123856"
       x1="30.538485"
       gradientTransform="matrix(0.4293444,0,0,0.4293442,13.546752,13.266392)"
       gradientUnits="userSpaceOnUse"
       id="linearGradient2462"
       xlink:href="#linearGradient6036" />
  </defs>
  <path
     style="opacity:0.3;fill:url(#radialGradient2767);fill-opacity:1;fill-rule:evenodd;stroke:none;stroke-width:2;marker:none;visibility:visible;display:inline;overflow:visible"
     id="path23417"
     d="M 46,39.499867 C 46.0011,43.08962 36.151066,45.999868 24,45.999868 C 11.848934,45.999868 1.998867,43.08962 2.0000001,39.499867 C 1.998867,35.910116 11.848934,32.999868 24,32.999868 C 36.151066,32.999868 46.001133,35.910116 46,39.499867 L 46,39.499867 z" />
  <path
     style="fill:url(#linearGradient2762);fill-rule:nonzero;stroke:url(#linearGradient2764);stroke-width:1;stroke-miterlimit:4;stroke-opacity:1"
     id="path2781"
     d="M 44.5,24 C 44.5,12.637039 35.362959,3.5 24,3.5 C 12.637038,3.5 3.5000001,12.63704 3.5000001,24 C 3.4999981,35.36296 12.637039,44.5 24,44.5 C 35.362958,44.499998 44.5,35.362961 44.5,24 z M 31.5,24 C 31.5,28.12813 28.21073,31.5 24,31.5 C 19.70667,31.5 16.5,28.044687 16.5,24 C 16.5,19.872697 19.541467,16.5 24,16.5 C 28.458533,16.5 31.5,19.95447 31.5,24 z" />
  <path
     style="opacity:0.5;fill:#ffffff;fill-opacity:1;fill-rule:nonzero;stroke:none;stroke-width:1;marker:none;visibility:visible;display:inline;overflow:visible;enable-background:accumulate"
     id="path2474"
     d="M 24,16 C 19.584,16 16,19.584 16,24 C 16,28.416 19.584,32 24,32 C 28.416,32 32,28.416 32,24 C 32,19.584 28.416,16 24,16 z M 24,20 C 26.208,20 28,21.792 28,24 C 28,26.208 26.208,28 24,28 C 21.792,28 20,26.208 20,24 C 20,21.792 21.792,20 24,20 z" />
  <path
     style="fill:none;stroke:url(#linearGradient2758);stroke-width:1;stroke-linecap:butt;stroke-linejoin:round;marker:none;stroke-miterlimit:4;stroke-dasharray:none;stroke-dashoffset:0;stroke-opacity:1;visibility:visible;display:inline;overflow:visible;enable-background:accumulate"
     id="path3418"
     d="M 24,16.5 C 19.86,16.5 16.5,19.86 16.5,24 C 16.5,28.14 19.86,31.5 24,31.5 C 28.14,31.5 31.5,28.14 31.5,24 C 31.5,19.86 28.14,16.5 24,16.5 z M 24,20.25 C 26.07,20.25 27.75,21.93 27.75,24 C 27.75,26.07 26.07,27.75 24,27.75 C 21.93,27.75 20.25,26.07 20.25,24 C 20.25,21.93 21.93,20.25 24,20.25 z" />
  <g
     id="g3527">
    <path
       style="opacity:0.8;fill:url(#linearGradient3346);fill-opacity:1;fill-rule:nonzero;stroke:none"
       id="path3296"
       transform="matrix(0.9996011,2.824295e-2,-2.824295e-2,0.9996011,0.6924114,-0.6708346)"
       d="M 15.856928,5.7307748 L 20.625,16.34375 C 21.660403,15.885186 22.795334,15.625 24,15.625 C 24.03206,15.625 24.06178,15.62464 24.09375,15.625 L 24.10801,4.0047512 C 21.16586,3.9340642 18.564969,4.6620377 15.856927,5.7307748 L 15.856928,5.7307748 z" />
    <path
       style="opacity:0.8;fill:url(#linearGradient3348);fill-opacity:1;fill-rule:nonzero;stroke:none"
       id="path3308"
       d="M 12.121471,7.9060109 L 19.052497,17.266115 C 19.965606,16.59636 21.018435,16.099051 22.195126,15.840946 C 22.226446,15.834046 22.255386,15.827356 22.286696,15.820856 L 19.857174,4.426276 C 16.968201,4.9876004 14.537644,6.2818798 12.121471,7.9060109 L 12.121471,7.9060109 z" />
    <path
       style="opacity:0.8;fill:url(#linearGradient3350);fill-opacity:1;fill-rule:nonzero;stroke:none"
       id="path3310"
       d="M 8.2523933,11.646535 L 17.466117,18.802353 C 18.174767,17.919089 19.063008,17.166234 20.132802,16.612373 C 20.161272,16.597633 20.187492,16.583653 20.216052,16.569273 L 14.86585,6.2506132 C 12.220599,7.5405321 10.165881,9.452393 8.2523933,11.646535 z" />
    <path
       style="opacity:0.8;fill:url(#linearGradient3352);fill-opacity:1;fill-rule:nonzero;stroke:none"
       id="path3312"
       d="M 5.6328855,16.073974 C 12.807692,18.316222 13.483148,23.105437 18.409671,17.828101 L 10.499985,9.1321388 C 8.2787249,11.062747 6.9132871,13.459349 5.6328855,16.073974 z" />
    <path
       style="opacity:0.8;fill:url(#linearGradient3354);fill-opacity:1;fill-rule:nonzero;stroke:none"
       id="path3314"
       d="M 7.155289,13.193173 C 5.9722117,14.945185 5.2475768,16.829547 4.6301929,18.837116 L 15.96875,21.8125 C 16.184264,21.049497 16.486796,20.297733 16.9375,19.59375 C 16.95479,19.56675 16.98246,19.52673 17,19.5 L 7.155289,13.193173 z" />
  </g>
  <g
     id="g3297"
     transform="matrix(-1,0,0,-1,47.999999,47.990833)">
    <path
       style="opacity:0.8;fill:url(#linearGradient3311);fill-opacity:1;fill-rule:nonzero;stroke:none"
       id="path3299"
       transform="matrix(0.9996011,2.824295e-2,-2.824295e-2,0.9996011,0.6924114,-0.6708346)"
       d="M 15.856928,5.7307748 L 20.625,16.34375 C 21.660403,15.885186 22.795334,15.625 24,15.625 C 24.03206,15.625 24.06178,15.62464 24.09375,15.625 L 24.10801,4.0047512 C 21.16586,3.9340642 18.564969,4.6620377 15.856927,5.7307748 L 15.856928,5.7307748 z" />
    <path
       style="opacity:0.8;fill:url(#linearGradient3313);fill-opacity:1;fill-rule:nonzero;stroke:none"
       id="path3301"
       d="M 12.121471,7.9060109 L 19.052497,17.266115 C 19.965606,16.59636 21.018435,16.099051 22.195126,15.840946 C 22.226446,15.834046 22.255386,15.827356 22.286696,15.820856 L 19.857174,4.426276 C 16.968201,4.9876004 14.537644,6.2818798 12.121471,7.9060109 L 12.121471,7.9060109 z" />
    <path
       style="opacity:0.8;fill:url(#linearGradient3315);fill-opacity:1;fill-rule:nonzero;stroke:none"
       id="path3303"
       d="M 8.2523933,11.646535 L 17.466117,18.802353 C 18.174767,17.919089 19.063008,17.166234 20.132802,16.612373 C 20.161272,16.597633 20.187492,16.583653 20.216052,16.569273 L 14.86585,6.2506132 C 12.220599,7.5405321 10.165881,9.452393 8.2523933,11.646535 z" />
    <path
       style="opacity:0.8;fill:url(#linearGradient3317);fill-opacity:1;fill-rule:nonzero;stroke:none"
       id="path3305"
       d="M 5.6328855,16.073974 C 12.807692,18.316222 13.483148,23.105437 18.409671,17.828101 L 10.499985,9.1321388 C 8.2787249,11.062747 6.9132871,13.459349 5.6328855,16.073974 z" />
    <path
       style="opacity:0.8;fill:url(#linearGradient3319);fill-opacity:1;fill-rule:nonzero;stroke:none"
       id="path3307"
       d="M 7.155289,13.193173 C 5.9722117,14.945185 5.2475768,16.829547 4.6301929,18.837116 L 15.96875,21.8125 C 16.184264,21.049497 16.486796,20.297733 16.9375,19.59375 C 16.95479,19.56675 16.98246,19.52673 17,19.5 L 7.155289,13.193173 z" />
  </g>
  <path
     id="path3281"
     d="M 23.36766,15.522911 C 18.954142,15.844035 15.5,19.50132 15.5,23.999999 C 15.5,28.711428 19.288571,32.5 24,32.5 C 26.051712,32.5 27.928414,31.78154 29.393446,30.581279"
     style="opacity:0.4;fill:none;stroke:url(#linearGradient2755);stroke-width:0.99999982;stroke-miterlimit:4;stroke-opacity:1" />
  <path
     style="fill:url(#radialGradient2710);fill-opacity:1;fill-rule:nonzero;stroke:#ce5c00;stroke-width:1;stroke-linecap:round;stroke-linejoin:round;marker:none;marker-start:none;marker-mid:none;marker-end:none;stroke-miterlimit:4;stroke-dasharray:none;stroke-dashoffset:0;stroke-opacity:1;visibility:visible;display:inline;overflow:visible;enable-background:accumulate"
     id="path2559"
     d="M 37.15625,39.75 C 41.649456,35.996376 44.5,30.343842 44.5,24 C 44.500001,20.47408 43.615547,17.172035 42.0625,14.28125 C 42.051486,14.260749 42.042332,14.239209 42.03125,14.21875 C 41.785506,13.7923 41.524879,13.376295 41.25,12.96875 C 37.686705,7.685693 31.751694,4.022002 25.0625,3.53125 C 24.709216,3.505331 23.857177,3.508147 23.5,3.5 C 23.500109,7.766261 23.5,12.175186 23.5,16.5 C 27.79333,16.5 31.5,19.955313 31.5,24 C 31.5,26.37816 30.490082,28.498763 28.78125,29.875 L 37.15625,39.75 z" />
  <path
     id="path2456"
     d="M 30.14265,29.888229 C 31.604431,28.36321 32.5,26.29068 32.5,23.999999 C 32.5,19.28857 28.711431,15.499999 24,15.499999 L 24,15.499999 L 24,15.499999 L 24,15.499999"
     style="opacity:0.40000000000000002;fill:none;stroke:url(#linearGradient2462);stroke-width:0.99999981999999998;stroke-miterlimit:4;stroke-opacity:1" />
  <path
     style="opacity:0.40000000000000002;fill:none;fill-opacity:1;fill-rule:evenodd;stroke:url(#linearGradient3227);stroke-width:1px;stroke-linecap:butt;stroke-linejoin:miter;stroke-opacity:1"
     id="path2561"
     d="M 37,38 L 30.447551,30.300701 M 24.5,5 L 24.5,15 M 24.000001,4.5000009 C 13.191429,4.5000009 4.4999995,13.191431 4.4999995,24.000001 C 4.4999995,34.808572 13.191429,43.499999 24.000001,43.499999 C 34.808573,43.499999 43.5,34.808572 43.5,24.000001 C 43.5,13.191431 34.808573,4.5000009 24.000001,4.5000009 L 24.000001,4.5000009 L 24.000001,4.5000009 z" />
</svg>
