<?xml version="1.0" encoding="UTF-8" standalone="no"?>
<svg
   xmlns:dc="http://purl.org/dc/elements/1.1/"
   xmlns:cc="http://creativecommons.org/ns#"
   xmlns:rdf="http://www.w3.org/1999/02/22-rdf-syntax-ns#"
   xmlns:svg="http://www.w3.org/2000/svg"
   xmlns="http://www.w3.org/2000/svg"
   xmlns:xlink="http://www.w3.org/1999/xlink"
   width="16px"
   height="16px"
   id="svg7278"
   version="1.1">
  <defs
     id="defs7280">
    <linearGradient
       xlink:href="#linearGradient3454-2-5-0-3-8-8"
       id="linearGradient10270-0-8"
       gradientUnits="userSpaceOnUse"
       gradientTransform="matrix(0.89189031,0,0,0.94046961,3.14398,5.346537)"
       x1="11.350123"
       y1="2.7604795"
       x2="11.350123"
       y2="8.1721792" />
    <linearGradient
       id="linearGradient3454-2-5-0-3-8-8">
      <stop
         offset="0"
         style="stop-color:#ffffff;stop-opacity:1"
         id="stop3456-4-9-38-1-9-2" />
      <stop
         offset="0.0097359"
         style="stop-color:#ffffff;stop-opacity:0.23529412"
         id="stop3458-39-80-3-5-6-3" />
      <stop
         offset="0.99001008"
         style="stop-color:#ffffff;stop-opacity:0.15686275"
         id="stop3460-7-0-2-4-4-6" />
      <stop
         offset="1"
         style="stop-color:#ffffff;stop-opacity:0.39215687"
         id="stop3462-0-9-8-7-8-8" />
    </linearGradient>
    <linearGradient
       xlink:href="#linearGradient6129-963-697-142-998-580-273-44-2-2-2-4"
       id="linearGradient10268-4-3"
       gradientUnits="userSpaceOnUse"
       gradientTransform="matrix(0.38156409,0,0,0.32896952,-18.2416,0.28216731)"
       x1="76.041"
       y1="49.372032"
       x2="76.041"
       y2="35.430561" />
    <linearGradient
       id="linearGradient6129-963-697-142-998-580-273-44-2-2-2-4">
      <stop
         id="stop2661-01-6-2-4-3"
         style="stop-color:#0a0a0a;stop-opacity:0.498"
         offset="0" />
      <stop
         id="stop2663-64-5-5-3-9"
         style="stop-color:#0a0a0a;stop-opacity:0"
         offset="1" />
    </linearGradient>
    <linearGradient
       id="linearGradient4632-0-6-4-4-6">
      <stop
         style="stop-color:#b4cee1;stop-opacity:1;"
         offset="0"
         id="stop4634-4-4-7-5-7" />
      <stop
         style="stop-color:#5d9fcd;stop-opacity:1;"
         offset="1"
         id="stop4636-3-1-5-4-0" />
    </linearGradient>
    <linearGradient
       id="linearGradient4640-4-4-9-4-9">
      <stop
         offset="0"
         style="stop-color:#567991;stop-opacity:1;"
         id="stop4642-36-1-8-1-0" />
      <stop
         offset="1"
         style="stop-color:#7a9ab1;stop-opacity:1;"
         id="stop4644-9-1-3-1-9" />
    </linearGradient>
    <linearGradient
       id="linearGradient3104-8-8-97-4-6-11-5-5-4-4-7">
      <stop
         offset="0"
         style="stop-color:#000000;stop-opacity:0.32173914"
         id="stop3106-5-4-3-5-0-2-1-0-7-7-6" />
      <stop
         offset="1"
         style="stop-color:#000000;stop-opacity:0.27826086"
         id="stop3108-4-3-7-8-2-0-7-9-0-6-9" />
    </linearGradient>
    <linearGradient
       xlink:href="#linearGradient3104-8-8-97-4-6-11-5-5-4-4-7"
       id="linearGradient3013"
       gradientUnits="userSpaceOnUse"
       gradientTransform="matrix(0.31070043,0,0,0.27489387,20.17717,-0.10316269)"
       x1="-51.786404"
       y1="53.514328"
       x2="-51.786404"
       y2="2.0612748" />
    <linearGradient
       xlink:href="#linearGradient4640-4-4-9-4-9"
       id="linearGradient3028"
       gradientUnits="userSpaceOnUse"
       gradientTransform="matrix(0.3332073,0,0,0.34194813,-35.00106,-0.65937269)"
       x1="124.44785"
       y1="45.466164"
       x2="124.44785"
       y2="21.175106" />
    <linearGradient
       xlink:href="#linearGradient4632-0-6-4-4-6"
       id="linearGradient3806"
       x1="9.5300379"
       y1="6.4292703"
       x2="9.5300379"
       y2="13.901032"
       gradientUnits="userSpaceOnUse" />
  </defs>
  <metadata
     id="metadata7283">
    <rdf:RDF>
      <cc:Work
         rdf:about="">
        <dc:format>image/svg+xml</dc:format>
        <dc:type
           rdf:resource="http://purl.org/dc/dcmitype/StillImage" />
        <dc:title />
      </cc:Work>
    </rdf:RDF>
  </metadata>
  <g
     id="layer1">
    <path
       style="color:#000000;fill:#f9f9f9;fill-opacity:1;fill-rule:nonzero;stroke:none;stroke-width:0.99992168;marker:none;visibility:visible;display:inline;overflow:visible;enable-background:accumulate"
       d="m 2.02331,1.976667 0,1 -1,0 0,4 14,0 0,-4 -7,0 0,-1 -6,0 z"
       id="rect4170-0-9" />
    <path
       style="font-size:medium;font-style:normal;font-variant:normal;font-weight:normal;font-stretch:normal;text-indent:0;text-align:start;text-decoration:none;line-height:normal;letter-spacing:normal;word-spacing:normal;text-transform:none;direction:ltr;block-progression:tb;writing-mode:lr-tb;text-anchor:start;baseline-shift:baseline;opacity:0.8;color:#000000;fill:url(#linearGradient3013);fill-opacity:1;stroke:none;stroke-width:1;marker:none;visibility:visible;display:inline;overflow:visible;enable-background:accumulate;font-family:Sans;-inkscape-font-specification:Sans"
       d="m 1.78125,1 c -0.4068514,0 -0.75,0.3431486 -0.75,0.75 l 0,0.21875 -0.25,0 c -0.40685138,0 -0.75,0.3431486 -0.75,0.75 l 0,3.5 c 0,0.4068514 0.34314862,0.75 0.75,0.75 l 14.5,0 c 0.406851,0 0.75,-0.3431486 0.75,-0.75 l 0,-3.5 c 0,-0.4068514 -0.343149,-0.75 -0.75,-0.75 l -6.25,0 0,-0.21875 C 9.03125,1.3431486 8.6881014,1 8.28125,1 l -6.5,0 z m 0.25,1 6,0 0,0.46875 0,0.5 0.5,0 6.5,0 0,3 -14,0 0,-3 0.5,0 0.5,0 0,-0.5 0,-0.46875 z"
       id="rect4170-91" />
    <path
       style="color:#000000;fill:url(#linearGradient3806);fill-opacity:1;stroke:none;stroke-width:1.00000011999999994;marker:none;visibility:visible;display:inline;overflow:visible;enable-background:accumulate"
       id="path3030"
       d="m 1,7 14,0 0,7 -14,0 z" />
    <path
       style="font-size:medium;font-style:normal;font-variant:normal;font-weight:normal;font-stretch:normal;text-indent:0;text-align:start;text-decoration:none;line-height:normal;letter-spacing:normal;word-spacing:normal;text-transform:none;direction:ltr;block-progression:tb;writing-mode:lr-tb;text-anchor:start;baseline-shift:baseline;color:#000000;fill:url(#linearGradient3028);fill-opacity:1;fill-rule:nonzero;stroke:none;stroke-width:1;marker:none;visibility:visible;display:inline;overflow:visible;enable-background:accumulate;font-family:Sans;-inkscape-font-specification:Sans"
       d="m 0.40625,5.96875 a 0.50005,0.50005 0 0 0 -0.34375,0.5 0.50005,0.50005 0 0 0 0,0.09375 C 0.06112889,8.9756052 0,13.298049 0,14.46875 a 0.50005,0.50005 0 0 0 0.5,0.5 c 1.5214827,0 9.703777,0.04882 14.96875,0.03125 0.01099,-3.7e-5 0.02028,3.7e-5 0.03125,0 0.0014,-7.73e-4 -0.0021,-0.03008 0,-0.03125 0.06123,-0.03496 0.406129,-0.218544 0.40625,-0.21875 1.32e-4,-2.25e-4 0.056,-0.102968 0.0625,-0.125 0.013,-0.04406 -0.002,-0.04888 0,-0.0625 0.004,-0.02723 0.03027,-0.04943 0.03125,-0.0625 0.002,-0.02613 -0.0012,-0.03231 0,-0.0625 0.0023,-0.06039 -0.002,-0.146817 0,-0.25 0.0041,-0.206367 -0.0037,-0.491693 0,-0.84375 0.0075,-0.704114 0.02557,-1.662054 0.03125,-2.625 0.01137,-1.9258927 0,-3.9017714 0,-4.21875 a 0.50005,0.50005 0 0 0 -0.5,-0.5 C 14.967879,6 1.7451122,5.969396 0.71875,5.96875 c -0.0108266,-6.8e-6 -0.14819963,0 -0.15625,0 a 0.50005,0.50005 0 0 0 -0.15625,0 z m 0.65625,1 c 1.4706431,0.0019 12.61848,0.029346 13.96875,0.03125 -0.0015,0.6002358 0.01001,2.022544 0,3.71875 -0.0057,0.962134 -0.02383,1.892716 -0.03125,2.59375 -0.003,0.285606 0.0032,0.497979 0,0.6875 -5.0789999,0.01381 -12.1556038,-0.02935 -14,-0.03125 0.00614,-1.350852 0.056358,-4.6840209 0.0625,-7 z"
       id="path43" />
    <path
       d="m 0.08698,5.976647 c 0.80529,0 15.31188,0.0341 15.93633,0.0341 0,0.67729 -0.0303,8.95971 -0.0663,8.95971 -5.5933,0.02 -14.30504,-0.0148 -15.93366,-0.0148 0,-1.2783 0.0636,-6.34831 0.0636,-8.97898 z"
       id="rect3086-1-2"
       style="opacity:0.4;color:#000000;fill:url(#linearGradient10268-4-3);fill-opacity:1;fill-rule:nonzero;stroke:none;stroke-width:1;marker:none;visibility:visible;display:inline;overflow:visible;enable-background:accumulate" />
    <path
       d="m 1.57503,7.476667 c 0.65431,0 12.44092,0.0251 12.94828,0.0251 0,0.49259 -0.0246,5.97055 -0.0539,5.97055 -4.54455,0.0142 -11.62284,-0.0111 -12.9461,-0.0111 0,-0.92965 0.0517,-4.07138 0.0517,-5.98455 z"
       id="rect3086-9-2"
       style="opacity:0.5;color:#000000;fill:none;stroke:url(#linearGradient10270-0-8);stroke-width:1.00000012;stroke-linecap:round;stroke-linejoin:miter;stroke-miterlimit:4;stroke-opacity:1;stroke-dasharray:none;stroke-dashoffset:0;marker:none;visibility:visible;display:inline;overflow:visible;enable-background:accumulate" />
  </g>
</svg>
