<?xml version="1.0" encoding="UTF-8" standalone="no"?>
<svg
   xmlns:dc="http://purl.org/dc/elements/1.1/"
   xmlns:cc="http://creativecommons.org/ns#"
   xmlns:rdf="http://www.w3.org/1999/02/22-rdf-syntax-ns#"
   xmlns:svg="http://www.w3.org/2000/svg"
   xmlns="http://www.w3.org/2000/svg"
   xmlns:xlink="http://www.w3.org/1999/xlink"
   id="svg3085"
   height="24"
   width="24"
   version="1.1">
  <defs
     id="defs3087">
    <linearGradient
       id="linearGradient17627">
      <stop
         id="stop17629"
         offset="0"
         style="stop-color:#000000;stop-opacity:1;" />
      <stop
         id="stop17631"
         offset="1"
         style="stop-color:#000000;stop-opacity:0;" />
    </linearGradient>
    <linearGradient
       id="linearGradient17596">
      <stop
         id="stop17598"
         offset="0"
         style="stop-color:#fce94f;stop-opacity:1;" />
      <stop
         id="stop17600"
         offset="1"
         style="stop-color:#d7b031;stop-opacity:1" />
    </linearGradient>
    <linearGradient
       gradientTransform="matrix(0.48571482,0,0,0.477213,-1.305596,-0.326798)"
       gradientUnits="userSpaceOnUse"
       xlink:href="#linearGradient3104-5"
       id="linearGradient3031"
       y2="3.3638515"
       x2="22.004084"
       y1="47.813133"
       x1="22.004084" />
    <linearGradient
       id="linearGradient3104-5">
      <stop
         offset="0"
         style="stop-color:#aaaaaa;stop-opacity:1"
         id="stop3106-2" />
      <stop
         offset="1"
         style="stop-color:#c8c8c8;stop-opacity:1"
         id="stop3108-5" />
    </linearGradient>
    <linearGradient
       gradientTransform="matrix(0.40540511,0,0,0.51351351,1.2696871,-0.3243195)"
       gradientUnits="userSpaceOnUse"
       xlink:href="#linearGradient3977"
       id="linearGradient3013"
       y2="43"
       x2="23.99999"
       y1="5.5641499"
       x1="23.99999" />
    <linearGradient
       id="linearGradient3977">
      <stop
         offset="0"
         style="stop-color:#ffffff;stop-opacity:1"
         id="stop3979" />
      <stop
         offset="0.03626217"
         style="stop-color:#ffffff;stop-opacity:0.23529412"
         id="stop3981" />
      <stop
         offset="0.95056331"
         style="stop-color:#ffffff;stop-opacity:0.15686275"
         id="stop3983" />
      <stop
         offset="1"
         style="stop-color:#ffffff;stop-opacity:0.39215687"
         id="stop3985" />
    </linearGradient>
    <linearGradient
       gradientTransform="matrix(0.48571543,0,0,0.45629666,-0.6571711,0.3488617)"
       gradientUnits="userSpaceOnUse"
       xlink:href="#linearGradient3600-4"
       id="linearGradient3016"
       y2="47.013336"
       x2="25.132275"
       y1="0.98520643"
       x1="25.132275" />
    <linearGradient
       id="linearGradient3600-4">
      <stop
         offset="0"
         style="stop-color:#f4f4f4;stop-opacity:1"
         id="stop3602-7" />
      <stop
         offset="1"
         style="stop-color:#dbdbdb;stop-opacity:1"
         id="stop3604-6" />
    </linearGradient>
    <radialGradient
       gradientTransform="matrix(0.01204859,0,0,0.0082353,12.238793,18.980564)"
       gradientUnits="userSpaceOnUse"
       xlink:href="#linearGradient5060"
       id="radialGradient3021"
       fy="486.64789"
       fx="605.71429"
       r="117.14286"
       cy="486.64789"
       cx="605.71429" />
    <linearGradient
       id="linearGradient5060">
      <stop
         offset="0"
         style="stop-color:#000000;stop-opacity:1"
         id="stop5062" />
      <stop
         offset="1"
         style="stop-color:#000000;stop-opacity:0"
         id="stop5064" />
    </linearGradient>
    <radialGradient
       gradientTransform="matrix(-0.01204859,0,0,0.0082353,9.761206,18.980564)"
       gradientUnits="userSpaceOnUse"
       xlink:href="#linearGradient5060"
       id="radialGradient3024"
       fy="486.64789"
       fx="605.71429"
       r="117.14286"
       cy="486.64789"
       cx="605.71429" />
    <linearGradient
       id="linearGradient5048">
      <stop
         offset="0"
         style="stop-color:#000000;stop-opacity:0"
         id="stop5050" />
      <stop
         offset="0.5"
         style="stop-color:#000000;stop-opacity:1"
         id="stop5056" />
      <stop
         offset="1"
         style="stop-color:#000000;stop-opacity:0"
         id="stop5052" />
    </linearGradient>
    <linearGradient
       gradientTransform="matrix(0.0352071,0,0,0.0082353,-1.724852,18.980547)"
       gradientUnits="userSpaceOnUse"
       xlink:href="#linearGradient5048"
       id="linearGradient3083"
       y2="609.50507"
       x2="302.85715"
       y1="366.64789"
       x1="302.85715" />
    <linearGradient
       gradientUnits="userSpaceOnUse"
       y2="14.771616"
       x2="19.998526"
       y1="11.108873"
       x1="16.049862"
       id="linearGradient17602"
       xlink:href="#linearGradient17596" />
    <radialGradient
       gradientUnits="userSpaceOnUse"
       gradientTransform="matrix(1,0,0,0.17346939,0,17.305485)"
       r="6.125"
       fy="20.9375"
       fx="16.3125"
       cy="20.9375"
       cx="16.3125"
       id="radialGradient17633"
       xlink:href="#linearGradient17627" />
  </defs>
  <metadata
     id="metadata3090">
    <rdf:RDF>
      <cc:Work
         rdf:about="">
        <dc:format>image/svg+xml</dc:format>
        <dc:type
           rdf:resource="http://purl.org/dc/dcmitype/StillImage" />
        <dc:title />
      </cc:Work>
    </rdf:RDF>
  </metadata>
  <g
     id="g17650">
    <rect
       style="display:inline;overflow:visible;visibility:visible;opacity:0.15;fill:url(#linearGradient3083);fill-opacity:1;fill-rule:nonzero;stroke:none;stroke-width:1;marker:none"
       id="rect2879"
       y="22"
       x="2.5000007"
       height="2"
       width="16.999998" />
    <path
       style="display:inline;overflow:visible;visibility:visible;opacity:0.15;fill:url(#radialGradient3024);fill-opacity:1;fill-rule:nonzero;stroke:none;stroke-width:1;marker:none"
       id="path2881"
       d="m 2.4999999,22.000085 c 0,0 0,1.999891 0,1.999891 C 1.8795275,24.003776 1,23.551901 1,22.999901 1,22.447902 1.6924,22.000085 2.4999999,22.000085 Z" />
    <path
       style="display:inline;overflow:visible;visibility:visible;opacity:0.15;fill:url(#radialGradient3021);fill-opacity:1;fill-rule:nonzero;stroke:none;stroke-width:1;marker:none"
       id="path2883"
       d="m 19.5,22.000085 c 0,0 0,1.999891 0,1.999891 0.620472,0.0038 1.5,-0.448075 1.5,-1.000075 0,-0.551999 -0.692402,-0.999816 -1.5,-0.999816 z" />
    <path
       style="display:inline;fill:url(#linearGradient3016);fill-opacity:1;stroke:none"
       id="path4160-3"
       d="m 2.4999601,1.4999569 c 3.8955809,0 17.0000589,0.00136 17.0000589,0.00136 l 2.1e-5,20.9987161 c 0,0 -11.3333862,0 -17.0000799,0 0,-7.000018 0,-14.000035 0,-21.0000538 z" />
    <path
       style="fill:none;stroke:url(#linearGradient3013);stroke-width:1;stroke-linecap:round;stroke-linejoin:miter;stroke-miterlimit:4;stroke-dasharray:none;stroke-dashoffset:0;stroke-opacity:1"
       id="rect6741-1"
       d="m 18.5,21.5 -15.0000004,0 0,-19 L 18.5,2.5 Z" />
    <path
       style="display:inline;opacity:0.3;fill:none;stroke:#000000;stroke-width:0.99992186;stroke-linecap:butt;stroke-linejoin:round;stroke-miterlimit:4;stroke-dasharray:none;stroke-dashoffset:0;stroke-opacity:1"
       id="path4160-3-1"
       d="m 2.4999601,1.4999569 c 3.8955809,0 17.0000589,0.00136 17.0000589,0.00136 l 2.1e-5,20.9987161 c 0,0 -11.3333862,0 -17.0000799,0 0,-7.000018 0,-14.000035 0,-21.0000538 z" />
    <path
       style="fill:none;stroke:url(#linearGradient3031);stroke-width:1px;stroke-linecap:butt;stroke-linejoin:miter;stroke-opacity:1"
       id="path3475"
       d="m 5,5.5 1.138394,0 z m 1.305359,0 1.062501,0 z m 1.229466,0 0.941072,0 z m 1.092858,0 0.409822,0 z m 0.576786,0 0.910715,0 z m 1.092859,0 2.398216,0 z m 2.550002,0 1.83661,0 z m 1.988395,0 0.561608,0 z M 5,6.5 l 1.775895,0 z m 1.973217,0 0.850001,0 z m 1.001787,0 0.425,0 z m 0.591965,0 0.774108,0 z m 0.941072,0 0.789287,0 z m 0.941072,0 1.259823,0 z m 1.426788,0 1.639287,0 z m 1.791073,0 1.092858,0 z m 1.244644,0 0.273215,0 z M 5,7.4925436 l 1.502681,0 z m 1.654466,0 2.458932,0 z m 2.610718,0 1.199108,0 z m 1.350894,0 1.123215,0 z m 1.275001,0 0.956251,0 z m 1.108037,0 1.50268,0.014913 z m 1.639288,0.014913 2.443752,0 z M 5,8.5 l 2.079467,0 z m 2.246431,0 2.246431,0 z m 2.398217,0 0.895537,0 z m 1.047323,0 2.109824,0 z m 2.246431,0 1.441966,0 z m 1.60893,0 0.576787,0 z m 0.728572,0 0.318751,0 z m 0.485715,0 0.895537,0 z M 5,9.5 l 0.774108,0 z m 1.016966,0 2.868753,0 z M 5,11.492545 l 1.502681,0 z m 1.654466,0 2.458932,0 z m 2.610718,0 1.199108,0 z m 1.350894,0 1.123215,0 z m 1.275001,0 0.956251,0 z m 1.108037,0 1.50268,0.01491 z m 1.639288,0.01491 2.443752,0 z M 5,12.5 l 1.912502,0 z m 2.064288,0 2.04911,0 z m 2.200896,0 0.789286,0 z m 0.941072,0 1.927681,0 z m 2.079467,0 2.428574,0 z m 2.595538,0 0.895537,0 z M 5,13.5 l 2.079467,0 z m 2.246431,0 2.246431,0 z m 2.398217,0 0.895537,0 z m 1.047323,0 2.109824,0 z m 2.246431,0 1.441966,0 z m 1.60893,0 0.576787,0 z m 0.728572,0 0.318751,0 z m 0.485715,0 0.895537,0 z M 5,14.5 l 1.775895,0 z m 1.973217,0 0.850001,0 z m 1.001787,0 0.425,0 z m 0.591965,0 0.774108,0 z m 0.941072,0 0.789287,0 z m 0.941072,0 1.259823,0 z m 1.426788,0 1.639287,0 z m 1.791073,0 1.092858,0 z m 1.244644,0 0.273215,0 z M 5,16.492545 l 1.502681,0 z m 1.654466,0 2.458932,0 z m 2.610718,0 1.199108,0 z m 1.350894,0 1.123215,0 z m 1.275001,0 0.956251,0 z m 1.108037,0 1.50268,0.01491 z m 1.639288,0.01491 2.443752,0 z M 5,17.5 l 1.775895,0 z m 1.973217,0 0.850001,0 z m 1.001787,0 0.425,0 z m 0.591965,0 0.774108,0 z m 0.941072,0 0.789287,0 z m 0.941072,0 1.259823,0 z m 1.426788,0 1.639287,0 z m 1.791073,0 1.092858,0 z m 1.244644,0 0.273215,0 z M 5,18.5 l 1.882145,0 z m 2.04911,0 0.591965,0 z m 0.743751,0 1.350894,0 z m 1.50268,0 1.988395,0 z m 2.155359,0 1.350895,0 z m 1.487502,0 0.288393,0 z m 0.440179,0 1.71518,0 z m 1.897323,0 0.895537,0 z M 5,19.5 l 1.882145,0 z m 2.04911,0 0.850001,0 z m 1.001787,0 1.335715,0 z m 1.487501,0 1.441966,0 z m 1.60893,0 0.576787,0 z m 0.728573,0 0.31875,0 z m 0.485715,0 0.895536,0 z" />
    <rect
       style="opacity:0.6;fill:#fce94f;fill-opacity:1;stroke:none;stroke-width:2;stroke-linecap:square;stroke-linejoin:round;stroke-miterlimit:4;stroke-dasharray:none;stroke-opacity:0.42000002"
       id="rect17489"
       width="7"
       height="6"
       x="4"
       y="15" />
    <rect
       y="4"
       x="4"
       height="11"
       width="14"
       id="rect17660"
       style="opacity:0.6;fill:#fce94f;fill-opacity:1;stroke:none;stroke-width:2;stroke-linecap:square;stroke-linejoin:round;stroke-miterlimit:4;stroke-dasharray:none;stroke-opacity:0.42000002" />
  </g>
  <g
     transform="translate(0,-1)"
     id="g17635">
    <path
       style="fill:none;fill-rule:evenodd;stroke:#bf830a;stroke-width:2;stroke-linecap:butt;stroke-linejoin:round;stroke-miterlimit:4;stroke-dasharray:none;stroke-opacity:1"
       d="m 12,15 4,4 7,-7 c 0.611853,-0.503879 0,-1 0,-1 L 20,8 c 0,0 -0.460129,-0.5398707 -1,0 z"
       id="path17572" />
    <path
       id="path17574"
       d="m 12,15 4,4 7,-7 c 0.683836,-0.503879 0,-1 0,-1 L 20,8 c 0,0 -0.496121,-0.5758621 -1,0 z"
       style="fill:url(#linearGradient17602);fill-opacity:1;fill-rule:evenodd;stroke:none;stroke-width:2;stroke-linecap:butt;stroke-linejoin:round;stroke-miterlimit:4;stroke-dasharray:none;stroke-opacity:1" />
    <path
       style="fill:none;fill-rule:evenodd;stroke:#838383;stroke-width:2;stroke-linecap:butt;stroke-linejoin:round;stroke-miterlimit:4;stroke-dasharray:none;stroke-opacity:1"
       d="m 12,15 0,2 2,2 2,0 z"
       id="path17576" />
    <path
       id="path17578"
       d="m 12,15 0,2 2,2 2,0 z"
       style="fill:#cecece;fill-opacity:1;fill-rule:evenodd;stroke:none;stroke-width:2;stroke-linecap:butt;stroke-linejoin:round;stroke-miterlimit:4;stroke-dasharray:none;stroke-opacity:1" />
    <path
       id="path17584"
       d="m 9,21 2,0 1,-1 -1,-1 z"
       style="fill:none;fill-rule:evenodd;stroke:#bf830a;stroke-width:2;stroke-linecap:butt;stroke-linejoin:round;stroke-miterlimit:4;stroke-dasharray:none;stroke-opacity:1" />
    <path
       id="path17580"
       d="M 11.75,18.09375 11,19 l 1,1 0.84375,-0.65625 z"
       style="fill:none;fill-rule:evenodd;stroke:#838383;stroke-width:2;stroke-linecap:butt;stroke-linejoin:miter;stroke-miterlimit:4;stroke-dasharray:none;stroke-opacity:1" />
    <ellipse
       style="opacity:0.1;fill:url(#radialGradient17633);fill-opacity:1;stroke:none;stroke-width:2;stroke-linecap:round;stroke-linejoin:miter;stroke-miterlimit:4;stroke-dasharray:none;stroke-opacity:1"
       id="path17625"
       cx="16.3125"
       cy="20.9375"
       rx="6.125"
       ry="1.0625" />
    <path
       style="fill:#cecece;fill-opacity:1;fill-rule:evenodd;stroke:none;stroke-width:2;stroke-linecap:butt;stroke-linejoin:miter;stroke-miterlimit:4;stroke-dasharray:none;stroke-opacity:1"
       d="M 11.75,18.09375 11,19 l 1,1 0.84375,-0.65625 z"
       id="path17582" />
    <path
       style="fill:#fce94f;fill-opacity:1;fill-rule:evenodd;stroke:none;stroke-width:2;stroke-linecap:butt;stroke-linejoin:round;stroke-miterlimit:4;stroke-dasharray:none;stroke-opacity:1"
       d="m 9,21 2,0 1,-1 -1,-1 z"
       id="path17586" />
    <path
       style="opacity:0.5;fill:none;fill-rule:evenodd;stroke:#ffffff;stroke-width:1px;stroke-linecap:round;stroke-linejoin:miter;stroke-opacity:1"
       d="M 13.36056,14.418534 19.57931,8.1997844"
       id="path17588" />
    <path
       id="path17590"
       d="m 12.298707,16.85 -0.0056,-1.129095"
       style="opacity:0.5;fill:none;fill-rule:evenodd;stroke:#ffffff;stroke-width:1px;stroke-linecap:round;stroke-linejoin:miter;stroke-opacity:1" />
    <path
       id="path17592"
       d="m 16.548276,17.678232 6.21875,-6.21875"
       style="opacity:0.1;fill:none;fill-rule:evenodd;stroke:#000000;stroke-width:1px;stroke-linecap:round;stroke-linejoin:miter;stroke-opacity:1" />
    <path
       style="opacity:0.1;fill:none;fill-rule:evenodd;stroke:#000000;stroke-width:1px;stroke-linecap:round;stroke-linejoin:miter;stroke-opacity:1"
       d="m 14.309052,18.477801 0.871552,0.316164"
       id="path17594" />
  </g>
</svg>
