<?xml version="1.0" encoding="UTF-8" standalone="no"?>
<svg
   xmlns:dc="http://purl.org/dc/elements/1.1/"
   xmlns:cc="http://creativecommons.org/ns#"
   xmlns:rdf="http://www.w3.org/1999/02/22-rdf-syntax-ns#"
   xmlns:svg="http://www.w3.org/2000/svg"
   xmlns="http://www.w3.org/2000/svg"
   xmlns:xlink="http://www.w3.org/1999/xlink"
   id="svg4101"
   height="24"
   width="24"
   version="1.1">
  <defs
     id="defs4103">
    <linearGradient
       gradientUnits="userSpaceOnUse"
       xlink:href="#linearGradient3707-319-631-407-324-3-8"
       id="linearGradient4055"
       y2="7.9332342"
       x2="11.61343"
       y1="30.760435"
       x1="11.61343" />
    <linearGradient
       id="linearGradient3707-319-631-407-324-3-8">
      <stop
         offset="0"
         style="stop-color:#185f9a;stop-opacity:1"
         id="stop3760-7-3" />
      <stop
         offset="1"
         style="stop-color:#599ec9;stop-opacity:1"
         id="stop3762-8-4" />
    </linearGradient>
    <linearGradient
       gradientTransform="matrix(0.5135135,0,0,0.5135135,-24.836132,6.978716)"
       gradientUnits="userSpaceOnUse"
       xlink:href="#linearGradient4011"
       id="linearGradient3090"
       y2="44.340794"
       x2="71.204407"
       y1="6.2375584"
       x1="71.204407" />
    <linearGradient
       id="linearGradient4011">
      <stop
         offset="0"
         style="stop-color:#ffffff;stop-opacity:1"
         id="stop4013" />
      <stop
         offset="0.507761"
         style="stop-color:#ffffff;stop-opacity:0.23529412"
         id="stop4015" />
      <stop
         offset="0.83456558"
         style="stop-color:#ffffff;stop-opacity:0.15686275"
         id="stop4017" />
      <stop
         offset="1"
         style="stop-color:#ffffff;stop-opacity:0.39215687"
         id="stop4019" />
    </linearGradient>
    <radialGradient
       gradientTransform="matrix(0,1.1468756,-1.2132576,-3.1216191e-8,22.251804,1.0569109)"
       gradientUnits="userSpaceOnUse"
       xlink:href="#linearGradient2867-449-88-871-390-598-476-591-434-148-57-177-3-8"
       id="radialGradient3093"
       fy="8.4497671"
       fx="6.0693989"
       r="19.99999"
       cy="8.4497671"
       cx="6.0693989" />
    <linearGradient
       id="linearGradient2867-449-88-871-390-598-476-591-434-148-57-177-3-8">
      <stop
         offset="0"
         style="stop-color:#90dbec;stop-opacity:1"
         id="stop3750-8-9" />
      <stop
         offset="0.26238"
         style="stop-color:#42baea;stop-opacity:1"
         id="stop3752-3-2" />
      <stop
         offset="0.704952"
         style="stop-color:#3689e6;stop-opacity:1"
         id="stop3754-7-2" />
      <stop
         offset="1"
         style="stop-color:#2b63a0;stop-opacity:1"
         id="stop3756-9-3" />
    </linearGradient>
    <linearGradient
       gradientTransform="matrix(0.53851149,0,0,0.53851149,-0.924275,7.0757243)"
       gradientUnits="userSpaceOnUse"
       xlink:href="#linearGradient3707-319-631-407-324-3-8"
       id="linearGradient3095"
       y2="3.8990016"
       x2="24"
       y1="44"
       x1="24" />
    <linearGradient
       id="linearGradient8838">
      <stop
         offset="0"
         style="stop-color:#000000;stop-opacity:1"
         id="stop8840" />
      <stop
         offset="1"
         style="stop-color:#000000;stop-opacity:0"
         id="stop8842" />
    </linearGradient>
    <radialGradient
       gradientTransform="matrix(1.1294118,0,0,0.2823525,-58.729414,27.694118)"
       gradientUnits="userSpaceOnUse"
       xlink:href="#linearGradient8838"
       id="radialGradient4099"
       fy="4.625"
       fx="62.625"
       r="10.625"
       cy="4.625"
       cx="62.625" />
  </defs>
  <metadata
     id="metadata4106">
    <rdf:RDF>
      <cc:Work
         rdf:about="">
        <dc:format>image/svg+xml</dc:format>
        <dc:type
           rdf:resource="http://purl.org/dc/dcmitype/StillImage" />
        <dc:title />
      </cc:Work>
    </rdf:RDF>
  </metadata>
  <g
     id="layer1"
     transform="translate(0,-8)">
    <path
       style="opacity:0.3;fill:url(#radialGradient4099);fill-opacity:1;fill-rule:evenodd;stroke:none;stroke-width:0.99999988;marker:none;visibility:visible;display:inline;overflow:visible"
       id="path8836"
       d="m 24,29 c 0,1.656854 -5.372583,3 -12,3 C 5.3725826,32 -2.5e-7,30.656854 -2.5e-7,29 -2.5e-7,27.343146 5.3725826,26 12,26 c 6.627417,0 12,1.343146 12,3 l 0,0 z" />
    <path
       style="color:#000000;fill:url(#radialGradient3093);fill-opacity:1;fill-rule:nonzero;stroke:url(#linearGradient3095);stroke-width:1;stroke-linecap:round;stroke-linejoin:round;stroke-miterlimit:4;stroke-opacity:1;stroke-dasharray:none;stroke-dashoffset:0;marker:none;visibility:visible;display:inline;overflow:visible;enable-background:accumulate"
       id="path2555-7"
       d="M 12.000001,9.5 C 6.206464,9.5 1.4999998,14.206462 1.4999998,20 c 0,5.793538 4.7064641,10.500001 10.5000012,10.5 C 17.793536,30.5 22.500005,25.793538 22.5,20 22.5,14.206462 17.793536,9.5 12.000001,9.5 z" />
    <path
       style="opacity:0.5;color:#000000;fill:none;stroke:url(#linearGradient3090);stroke-width:0.99999988;stroke-linecap:round;stroke-linejoin:round;stroke-miterlimit:4;stroke-opacity:1;stroke-dasharray:none;stroke-dashoffset:0;marker:none;visibility:visible;display:inline;overflow:visible;enable-background:accumulate"
       id="path8655-6"
       d="M 21.5,19.999663 C 21.5,25.246537 17.246391,29.5 12.000121,29.5 6.7533684,29.5 2.5,25.246489 2.5,19.999663 c 0,-5.24663 4.2533684,-9.499662 9.500121,-9.499662 5.24627,0 9.499879,4.253032 9.499879,9.499662 l 0,0 z" />
    <path
       style="font-size:40px;font-style:normal;font-variant:normal;font-weight:bold;font-stretch:normal;text-align:start;line-height:100%;writing-mode:lr-tb;text-anchor:start;fill:url(#linearGradient4055);fill-opacity:1;stroke:none;font-family:URW Palladio L;-inkscape-font-specification:URW Palladio L Bold"
       id="text3482"
       d="m 9,18.851312 c 0.133856,0.363882 0.284521,0.658836 0.605452,0.255527 0.397883,-0.236731 1.731043,-1.274394 1.597644,-0.257979 -0.426877,1.880812 -0.946481,3.741845 -1.3437772,5.628452 -0.4154287,1.033002 0.5279302,1.967395 1.5128652,1.295629 1.046924,-0.431584 1.947798,-1.134561 2.868143,-1.779436 -0.125575,-0.307965 -0.209273,-0.750354 -0.556249,-0.347606 -0.455597,0.20679 -1.450673,1.181728 -1.635539,0.377622 0.382698,-2.03658 1.09175,-3.99777 1.544989,-6.018111 0.417097,-0.928949 -0.264105,-2.102709 -1.283786,-1.334271 C 11.088138,17.203187 10.066557,18.07231 9,18.851312 z m 4.533765,-6.849716 c -1.246397,-0.06614 -1.898056,1.943081 -0.713613,2.492896 0.96093,0.394087 2.00721,-0.59147 1.772459,-1.576267 -0.07285,-0.512793 -0.533242,-0.933879 -1.058845,-0.916629 l -10e-7,0 z" />
    <path
       style="font-size:40px;font-style:normal;font-variant:normal;font-weight:bold;font-stretch:normal;text-align:start;line-height:100%;writing-mode:lr-tb;text-anchor:start;fill:#ffffff;fill-opacity:1;stroke:none;font-family:URW Palladio L;-inkscape-font-specification:URW Palladio L Bold"
       id="path3536"
       d="m 9,19.851312 c 0.133856,0.363882 0.284521,0.658836 0.605452,0.255527 0.397883,-0.236731 1.731043,-1.274393 1.597644,-0.257979 -0.426877,1.880812 -0.946481,3.741845 -1.3437772,5.628452 -0.4154287,1.033002 0.5279302,1.967395 1.5128652,1.295629 1.046924,-0.431584 1.947798,-1.134561 2.868143,-1.779436 -0.125575,-0.307965 -0.209273,-0.750354 -0.556249,-0.347606 -0.455597,0.20679 -1.450673,1.181728 -1.635539,0.377622 0.382698,-2.03658 1.09175,-3.99777 1.544989,-6.018111 0.417097,-0.928948 -0.264105,-2.102709 -1.283786,-1.334271 C 11.088138,18.203188 10.066557,19.07231 9,19.851312 z m 4.533765,-6.849716 c -1.246397,-0.06614 -1.898056,1.943081 -0.713613,2.492896 0.96093,0.394086 2.00721,-0.59147 1.772459,-1.576267 -0.07285,-0.512793 -0.533242,-0.933879 -1.058845,-0.916629 l -10e-7,0 z" />
  </g>
</svg>
