<?xml version="1.0" encoding="UTF-8" standalone="no"?>
<svg
   id="svg3295"
   height="24"
   width="24"
   version="1.0"
   sodipodi:docname="insert-text.svg"
   inkscape:version="1.2.2 (b0a8486541, 2022-12-01)"
   xmlns:inkscape="http://www.inkscape.org/namespaces/inkscape"
   xmlns:sodipodi="http://sodipodi.sourceforge.net/DTD/sodipodi-0.dtd"
   xmlns:xlink="http://www.w3.org/1999/xlink"
   xmlns="http://www.w3.org/2000/svg"
   xmlns:svg="http://www.w3.org/2000/svg"
   xmlns:rdf="http://www.w3.org/1999/02/22-rdf-syntax-ns#"
   xmlns:cc="http://creativecommons.org/ns#"
   xmlns:dc="http://purl.org/dc/elements/1.1/">
  <sodipodi:namedview
     id="namedview245"
     pagecolor="#ffffff"
     bordercolor="#666666"
     borderopacity="1.0"
     inkscape:showpageshadow="2"
     inkscape:pageopacity="0.0"
     inkscape:pagecheckerboard="0"
     inkscape:deskcolor="#d1d1d1"
     showgrid="false"
     inkscape:zoom="64"
     inkscape:cx="2.328125"
     inkscape:cy="4.296875"
     inkscape:window-width="1920"
     inkscape:window-height="1027"
     inkscape:window-x="0"
     inkscape:window-y="0"
     inkscape:window-maximized="1"
     inkscape:current-layer="svg3295" />
  <metadata
     id="metadata712">
    <rdf:RDF>
      <cc:Work
         rdf:about="">
        <dc:format>image/svg+xml</dc:format>
        <dc:type
           rdf:resource="http://purl.org/dc/dcmitype/StillImage" />
      </cc:Work>
    </rdf:RDF>
  </metadata>
  <defs
     id="defs3297">
    <linearGradient
       id="linearGradient3269">
      <stop
         id="stop3271"
         offset="0"
         style="stop-color:#fecb81;stop-opacity:1" />
      <stop
         id="stop3273"
         offset="1"
         style="stop-color:#fcaf3e;stop-opacity:1" />
    </linearGradient>
    <linearGradient
       id="linearGradient3284"
       inkscape:collect="always">
      <stop
         id="stop3286"
         offset="0"
         style="stop-color:#ce5c00;stop-opacity:1;" />
      <stop
         id="stop3288"
         offset="1"
         style="stop-color:#f57900;stop-opacity:1" />
    </linearGradient>
    <linearGradient
       gradientUnits="userSpaceOnUse"
       id="linearGradient3374"
       inkscape:collect="always"
       x1="18.875"
       x2="18.875"
       xlink:href="#linearGradient3276"
       y1="35.183414"
       y2="43.978611" />
    <linearGradient
       id="linearGradient3276"
       inkscape:collect="always">
      <stop
         id="stop3278"
         offset="0"
         style="stop-color:white;stop-opacity:1;" />
      <stop
         id="stop3280"
         offset="1"
         style="stop-color:white;stop-opacity:0;" />
    </linearGradient>
    <radialGradient
       cx="24.842901"
       cy="30.77803"
       fx="24.842901"
       fy="30.77803"
       gradientTransform="matrix(1.0281285,0,0,0.53202276,-8.0161238,3.3819663)"
       gradientUnits="userSpaceOnUse"
       id="radialGradient3390"
       inkscape:collect="always"
       r="22.999998"
       xlink:href="#linearGradient3384" />
    <linearGradient
       id="linearGradient3384">
      <stop
         id="stop3386"
         offset="0"
         style="stop-color:white;stop-opacity:1" />
      <stop
         id="stop3388"
         offset="1"
         style="stop-color:#eeeeec;stop-opacity:1" />
    </linearGradient>
    <linearGradient
       gradientTransform="matrix(0.52941836,0,0,0.55555901,-0.70604449,-2.2223467)"
       gradientUnits="userSpaceOnUse"
       id="linearGradient3328"
       inkscape:collect="always"
       x1="22.750002"
       x2="22.750002"
       xlink:href="#linearGradient3269"
       y1="40.000755"
       y2="37.409679" />
    <linearGradient
       gradientTransform="matrix(0.52941836,0,0,0.55555901,-0.70604449,-2.2223467)"
       gradientUnits="userSpaceOnUse"
       id="linearGradient3330"
       inkscape:collect="always"
       x1="17.25"
       x2="17.25"
       xlink:href="#linearGradient3284"
       y1="41.147343"
       y2="36.103439" />
  </defs>
  <rect
     height="13"
     id="rect51"
     rx="1.5"
     ry="1.5"
     style="fill:url(#radialGradient3390);fill-opacity:1;stroke:none;stroke-width:0.999991;stroke-linecap:round;stroke-linejoin:miter;stroke-miterlimit:4;stroke-dasharray:none;stroke-dashoffset:1.4;stroke-opacity:0.34"
     width="20"
     x="2"
     y="2" />
  <path
     style="font-style:normal;font-weight:bold;font-size:17.5006px;font-family:'Bitstream Vera Sans';fill:#2e3436;fill-opacity:1;stroke:none;stroke-width:0.999994px;stroke-linecap:butt;stroke-linejoin:miter;stroke-opacity:1"
     d="M 21,6.7899778 V 8.2551671 C 20.768715,8.0992749 20.535858,7.9839122 20.301415,7.9090791 20.070133,7.8342544 19.829352,7.7968386 19.579073,7.7968334 c -0.47523,5e-6 -0.845909,0.1371926 -1.112034,0.4115649 -0.262964,0.2712607 -0.394443,0.5521055 -0.394443,1.0416139 0,0.489515 0.131476,0.7712328 0.394443,1.0456048 0.266125,0.271262 0.636804,0.406893 1.112034,0.40689 0.266118,3e-6 0.517991,-0.03899 0.755611,-0.11692 C 20.575458,10.507627 20.797235,10.392275 21,10.239494 v 1.47055 c -0.266131,0.09665 -0.537015,0.168368 -0.812637,0.215138 -0.272469,0.04989 -0.546516,0.07482 -0.822145,0.07482 -0.959958,0 -1.710821,-0.241639 -2.25258,-0.724917 C 16.570881,10.788691 16.3,10.113664 16.3,9.2499992 c 0,-0.8636586 0.270881,-1.5371263 0.812638,-2.0204078 0.541759,-0.4863894 1.292622,-0.7295868 2.25258,-0.7295912 0.278797,4.4e-6 0.552847,0.024948 0.822145,0.074831 C 20.45982,6.6216032 20.730702,6.6933167 21,6.7899653"
     id="path38300"
     sodipodi:nodetypes="cccccsccccccscscccc" />
  <path
     id="path38298"
     style="font-style:normal;font-weight:bold;font-size:17.5006px;font-family:'Bitstream Vera Sans';fill:#2e3436;fill-opacity:1;stroke:none;stroke-width:0.999997px;stroke-linecap:butt;stroke-linejoin:miter;stroke-opacity:1"
     d="M 9.9999998,5.0000002 V 12 H 12 v -0.887944 c 0.241733,0.303632 0.374446,0.527458 0.668455,0.673079 0.294003,0.14251 0.632545,0.214866 1.014767,0.214866 0.676217,0 1.229936,-0.255567 1.664427,-0.763684 C 15.782123,10.725105 15.999993,10.068728 16,9.2662722 15.999993,8.4638241 15.782123,7.8095265 15.347649,7.301406 14.913158,6.7901954 14.359439,6.5351381 13.683222,6.5351338 13.301,6.5351381 12.962458,6.6069738 12.668455,6.7525894 12.374445,6.8951137 12.241733,6.9174134 12,7.2210392 v -2.221039 z m 3.1312862,2.94196 c 0.375681,4.4e-6 0.560745,0.1306516 0.756755,0.3909024 0.199274,0.2602583 0.300665,0.4376902 0.300673,0.9334096 -8e-6,0.495727 -0.101413,0.67402 -0.300673,0.9342768 -0.19601,0.260248 -0.381074,0.390903 -0.756755,0.390902 -0.375679,1e-6 -0.57472,-0.130649 -0.777255,-0.390902 -0.199286,-0.2633558 -0.297993,-0.4416488 -0.297987,-0.9342768 -6e-6,-0.4926205 0.09871,-0.6679728 0.297987,-0.9282321 0.202535,-0.2633506 0.401576,-0.3960755 0.777255,-0.3960799 z"
     sodipodi:nodetypes="cccccsccccccccccccscccc" />
  <path
     id="path53"
     style="font-style:normal;font-weight:bold;font-size:17.5006px;font-family:'Bitstream Vera Sans';fill:#2e3436;fill-opacity:1;stroke:none;stroke-width:0.999998px;stroke-linecap:butt;stroke-linejoin:miter;stroke-opacity:1"
     d="M 5.4,5 3,12 H 4.8 L 5.450122,10 H 7.4 l 0.65,2 H 9.839891 L 7.5,5 Z m 1.0211424,1.6422977 0.792925,2.3577025 H 5.7258781 Z"
     sodipodi:nodetypes="ccccccccccccc" />
  <rect
     height="11.988971"
     id="rect55"
     rx="1"
     ry="1"
     style="fill:none;fill-opacity:1;stroke:#ffffff;stroke-width:1.01103;stroke-linecap:round;stroke-linejoin:round;stroke-miterlimit:4;stroke-dasharray:none;stroke-dashoffset:1.4;stroke-opacity:1"
     width="18.988972"
     x="2.5055144"
     y="2.5055153" />
  <path
     d="M 7.4999409,17.5 H 16.500059 L 12,22.500026 Z"
     id="path3323"
     sodipodi:nodetypes="cccc"
     style="color:#000000;display:inline;overflow:visible;visibility:visible;fill:url(#linearGradient3328);fill-opacity:1;fill-rule:nonzero;stroke:url(#linearGradient3330);stroke-width:1;stroke-linecap:round;stroke-linejoin:round;stroke-miterlimit:4;stroke-dasharray:none;stroke-dashoffset:1.4;stroke-opacity:1;marker:none;marker-start:none;marker-mid:none;marker-end:none" />
  <path
     d="M 17.820312,34.5 24,41.042969 30.179688,34.5 Z"
     id="path3325"
     inkscape:original="M 15.5 33.5 L 24 42.5 L 32.5 33.5 L 15.5 33.5 z "
     inkscape:radius="-1"
     sodipodi:type="inkscape:offset"
     style="color:#000000;display:inline;overflow:visible;visibility:visible;opacity:0.7;fill:none;fill-opacity:1;fill-rule:nonzero;stroke:url(#linearGradient3374);stroke-width:2.69119;stroke-linecap:round;stroke-linejoin:miter;stroke-miterlimit:4;stroke-dasharray:none;stroke-dashoffset:1.4;stroke-opacity:1;marker:none;marker-start:none;marker-mid:none;marker-end:none"
     transform="matrix(0.36310143,0,0,0.3802654,3.282897,5.3912134)" />
  <rect
     height="14.000003"
     id="rect1147"
     rx="2"
     ry="2"
     style="fill:none;fill-opacity:1;stroke:#000000;stroke-width:0.999997;stroke-linecap:round;stroke-linejoin:miter;stroke-miterlimit:4;stroke-dasharray:none;stroke-dashoffset:1.4;stroke-opacity:0.34"
     width="21.000002"
     x="1.499999"
     y="1.4999986" />
</svg>
