<?xml version="1.0" encoding="UTF-8" standalone="no"?>
<svg
   id="svg6"
   version="1.1"
   width="24"
   height="24"
   sodipodi:docname="media-skip-backward-symbolic.svg"
   inkscape:version="1.1.2 (0a00cf5339, 2022-02-04)"
   xmlns:inkscape="http://www.inkscape.org/namespaces/inkscape"
   xmlns:sodipodi="http://sodipodi.sourceforge.net/DTD/sodipodi-0.dtd"
   xmlns="http://www.w3.org/2000/svg"
   xmlns:svg="http://www.w3.org/2000/svg"
   xmlns:rdf="http://www.w3.org/1999/02/22-rdf-syntax-ns#"
   xmlns:cc="http://creativecommons.org/ns#"
   xmlns:dc="http://purl.org/dc/elements/1.1/">
  <sodipodi:namedview
     id="namedview6"
     pagecolor="#ffffff"
     bordercolor="#666666"
     borderopacity="1.0"
     inkscape:pageshadow="2"
     inkscape:pageopacity="0.0"
     inkscape:pagecheckerboard="0"
     showgrid="false"
     inkscape:zoom="28.416667"
     inkscape:cx="12"
     inkscape:cy="11.982405"
     inkscape:window-width="1920"
     inkscape:window-height="1032"
     inkscape:window-x="0"
     inkscape:window-y="0"
     inkscape:window-maximized="1"
     inkscape:current-layer="svg6" />
  <metadata
     id="metadata12">
    <rdf:RDF>
      <cc:Work
         rdf:about="">
        <dc:format>image/svg+xml</dc:format>
        <dc:type
           rdf:resource="http://purl.org/dc/dcmitype/StillImage" />
      </cc:Work>
    </rdf:RDF>
  </metadata>
  <defs
     id="defs10" />
  <path
     d="M 2,6 C 1.446,6 1,6.446 1,7 v 10 c 0,0.554 0.446,1 1,1 h 1 c 0.554,0 1,-0.446 1,-1 V 13.162109 L 11.541016,17.875 C 11.680273,17.94856 11.83155,18 12,18 c 0.552285,0 1,-0.447715 1,-1 V 13.128906 L 20.541016,17.875 C 20.680273,17.94856 20.83155,18 21,18 c 0.552285,0 1,-0.447715 1,-1 V 7 C 22,6.4477153 21.552285,6 21,6 20.83155,6 20.680273,6.051436 20.541016,6.125 L 13,10.871094 V 7 C 13,6.4477153 12.552285,6 12,6 11.83155,6 11.680273,6.051436 11.541016,6.125 L 4,10.837891 V 7 C 4,6.446 3.554,6 3,6 Z"
     style="font-variation-settings:normal;opacity:1;vector-effect:none;fill:#666666;fill-opacity:1;stroke:none;stroke-width:4;stroke-linecap:round;stroke-linejoin:round;stroke-miterlimit:4;stroke-dasharray:none;stroke-dashoffset:0;stroke-opacity:1;stop-color:#000000;stop-opacity:1"
     id="path980-3" />
</svg>
