<?xml version="1.0" encoding="UTF-8" standalone="no"?>
<svg
   xmlns:dc="http://purl.org/dc/elements/1.1/"
   xmlns:cc="http://creativecommons.org/ns#"
   xmlns:rdf="http://www.w3.org/1999/02/22-rdf-syntax-ns#"
   xmlns:svg="http://www.w3.org/2000/svg"
   xmlns="http://www.w3.org/2000/svg"
   xmlns:xlink="http://www.w3.org/1999/xlink"
   id="svg4102"
   height="24"
   width="24"
   version="1.1">
  <defs
     id="defs4104">
    <linearGradient
       id="linearGradient4011">
      <stop
         offset="0"
         style="stop-color:#ffffff;stop-opacity:1"
         id="stop4013" />
      <stop
         offset="0.507761"
         style="stop-color:#ffffff;stop-opacity:0.23529412"
         id="stop4015" />
      <stop
         offset="0.83456558"
         style="stop-color:#ffffff;stop-opacity:0.15686275"
         id="stop4017" />
      <stop
         offset="1"
         style="stop-color:#ffffff;stop-opacity:0.39215687"
         id="stop4019" />
    </linearGradient>
    <linearGradient
       id="linearGradient4215">
      <stop
         offset="0"
         style="stop-color:#dcdcdc;stop-opacity:1"
         id="stop4217" />
      <stop
         offset="1"
         style="stop-color:#f0f0f0;stop-opacity:1"
         id="stop4219" />
    </linearGradient>
    <linearGradient
       id="linearGradient4223">
      <stop
         offset="0"
         style="stop-color:#505050;stop-opacity:1"
         id="stop4225" />
      <stop
         offset="1"
         style="stop-color:#838383;stop-opacity:1"
         id="stop4227" />
    </linearGradient>
    <linearGradient
       id="linearGradient8838">
      <stop
         offset="0"
         style="stop-color:#000000;stop-opacity:1"
         id="stop8840" />
      <stop
         offset="1"
         style="stop-color:#000000;stop-opacity:0"
         id="stop8842" />
    </linearGradient>
    <linearGradient
       y2="44.340794"
       x2="71.204407"
       y1="6.2375584"
       x1="71.204407"
       gradientTransform="matrix(0.51351349,0,0,0.51351349,-24.836131,-0.98872167)"
       gradientUnits="userSpaceOnUse"
       id="linearGradient3015"
       xlink:href="#linearGradient4011" />
    <linearGradient
       y2="8.0928917"
       x2="38.976662"
       y1="59.967686"
       x1="38.976662"
       gradientTransform="matrix(0.41176471,0,0,0.41176471,-1.1764705,-1.9999992)"
       gradientUnits="userSpaceOnUse"
       id="linearGradient3024"
       xlink:href="#linearGradient4215" />
    <linearGradient
       y2="7.8025136"
       x2="21.346498"
       y1="59.968513"
       x1="21.346498"
       gradientTransform="matrix(0.41176471,0,0,0.41176471,-1.1764705,-1.9999992)"
       gradientUnits="userSpaceOnUse"
       id="linearGradient3026"
       xlink:href="#linearGradient4223" />
    <radialGradient
       r="10.625"
       fy="4.625"
       fx="62.625"
       cy="4.625"
       cx="62.625"
       gradientTransform="matrix(1.0352941,0,0,0.36010183,-52.835298,18.50844)"
       gradientUnits="userSpaceOnUse"
       id="radialGradient3029"
       xlink:href="#linearGradient8838" />
  </defs>
  <metadata
     id="metadata4107">
    <rdf:RDF>
      <cc:Work
         rdf:about="">
        <dc:format>image/svg+xml</dc:format>
        <dc:type
           rdf:resource="http://purl.org/dc/dcmitype/StillImage" />
        <dc:title />
      </cc:Work>
    </rdf:RDF>
  </metadata>
  <path
     d="m 22.999997,20.173913 c 0,2.11309 -4.924869,3.826087 -11,3.826087 -6.0751318,0 -11.0000002,-1.712997 -11.0000002,-3.826087 0,-2.113089 4.9248684,-3.826087 11.0000002,-3.826087 6.075131,0 11,1.712998 11,3.826087 l 0,0 z"
     id="path8836"
     style="opacity:0.3;fill:url(#radialGradient3029);fill-opacity:1;fill-rule:evenodd;stroke:none;stroke-width:0.99999988;marker:none;visibility:visible;display:inline;overflow:visible" />
  <path
     d="M 12.000001,1.5000006 C 6.2064631,1.5000006 1.5,6.2064617 1.5,12 1.5,17.793538 6.2064631,22.500002 12.000001,22.5 17.793537,22.5 22.500005,17.793538 22.5,12 22.5,6.2064617 17.793537,1.5000006 12.000001,1.5000006 z"
     id="path2555-7"
     style="color:#000000;fill:url(#linearGradient3024);fill-opacity:1;fill-rule:nonzero;stroke:url(#linearGradient3026);stroke-width:0.99999994;stroke-linecap:round;stroke-linejoin:round;stroke-miterlimit:4;stroke-opacity:1;stroke-dasharray:none;stroke-dashoffset:0;marker:none;visibility:visible;display:inline;overflow:visible;enable-background:accumulate" />
  <path
     d="m 11.901961,2.098045 c -1.551841,0 -3.026136,0.3550664 -4.3374999,0.9874997 L 11.314461,11.035544 4.7644611,5.0855446 C 2.9909075,6.8906155 1.901961,9.3711034 1.901961,12.098044 c 0,0.721028 0.079608,1.422023 0.2250001,2.099999 l 9.8749999,-2.549999 -0.1625,-0.1375 6.375,-7.1624992 C 16.492457,2.9441031 14.293946,2.098045 11.901961,2.098045 z m 9.6375,7.3249993 -9.825,2.3499997 0.0375,0.025 -8.5375003,5.249999 c 1.7231168,3.016011 4.9693573,5.050001 8.6875003,5.05 0.2818,0 0.56156,-0.01457 0.8375,-0.0375 -0.359443,-4.118066 -0.887683,-10.062152 -0.9,-10.2 l 7.9375,6.3875 c 1.328508,-1.697637 2.125001,-3.830149 2.124999,-6.15 0,-0.925596 -0.1265,-1.823946 -0.3625,-2.6750002 z"
     id="path4004"
     style="fill:#000000;fill-opacity:0.04255317;stroke:none" />
  <path
     d="m 11.90196,2.0997349 c -1.202838,0 -2.356274,0.222171 -3.424999,0.6124742 l 2.8375,8.3246489 L 4.0269607,5.9370729 C 2.6948522,7.635862 1.901961,9.7760816 1.901961,12.099313 c 0,0.47853 0.034814,0.951735 0.1,1.412441 l 10,-1.862422 -0.1625,-0.137494 5.562499,-7.7496732 c -1.579413,-1.0444395 -3.46713,-1.6624299 -5.5,-1.6624299 z m 9.8125,8.0871591 -10,1.587433 0.0375,0.025 -7.8625003,6.274736 c 1.8245998,2.438768 4.7363923,4.024832 8.0124993,4.024831 0.07986,0 0.158087,0.0019 0.237501,0 -0.119123,-4.152332 -0.287735,-10.099807 -0.3,-10.237069 l 8.299999,5.887252 c 1.106714,-1.609123 1.762501,-3.551733 1.7625,-5.649762 0,-0.654645 -0.06705,-1.292681 -0.1875,-1.912419 z"
     id="path4004-0"
     style="fill:#000000;fill-opacity:0.04787233;stroke:none" />
  <path
     d="m 11.901961,2.072918 c -0.907637,0 -1.788736,0.1228425 -2.625,0.3502187 l 2.525,9.1807383 4.7125,-8.3927456 C 15.133237,2.4897734 13.566111,2.072918 11.901961,2.072918 z M 3.3894608,6.8258888 C 2.446545,8.3523832 1.901961,10.155029 1.901961,12.079172 c 0,0.231441 0.0095,0.460383 0.024998,0.68793 L 11.851958,11.666413 3.3894583,6.8258883 z m 18.4500002,4.1150712 -9.975,0.600375 8.6125,5.691057 c 0.905084,-1.504616 1.425001,-3.271263 1.425,-5.15322 0,-0.383823 -0.02033,-0.765561 -0.0625,-1.138212 z m -9.925,0.675422 -7.0750001,7.554722 c 1.7429128,1.73787 4.1297891,2.823484 6.7625001,2.901814 l 0.3125,-10.456536 z"
     id="path3893-7"
     style="fill:#000000;fill-opacity:0.05851063;stroke:none" />
  <path
     d="m 11.983642,1.846815 c -0.253003,0 -0.504018,0.00664 -0.752351,0.02516 L 11.883329,11.43172 14.416244,2.1487017 C 13.637351,1.9536849 12.822242,1.846815 11.983642,1.846815 z M 2.5917928,8.3876957 C 2.2958127,9.1807741 2.0899189,10.017779 2.002451,10.89084 l 9.931034,0.603773 -9.3416922,-3.1069178 z m 9.3542322,2.9811323 9.291536,4.427672 c 0.444168,-1.060713 0.7097,-2.213423 0.76489,-3.421383 L 11.946025,11.368828 z m 0.05016,0.07547 -4.3761762,9.522013 c 0.8661242,0.420855 1.8011482,0.724369 2.7836992,0.880503 l 1.592474,-10.402516 z"
     id="path3893"
     style="fill:#000000;fill-opacity:0.10106381;stroke:none" />
  <path
     d="m 21.5,12.032226 c 0,5.246875 -4.253608,9.500337 -9.49988,9.500337 -5.246752,0 -9.50012,-4.25351 -9.50012,-9.500336 0,-5.2466324 4.253368,-9.4996636 9.50012,-9.4996636 5.246272,0 9.49988,4.2530312 9.49988,9.4996636 l 0,0 z"
     id="path8655-6"
     style="opacity:0.8;color:#000000;fill:none;stroke:url(#linearGradient3015);stroke-width:1;stroke-linecap:round;stroke-linejoin:round;stroke-miterlimit:4;stroke-opacity:1;stroke-dasharray:none;stroke-dashoffset:0;marker:none;visibility:visible;display:inline;overflow:visible;enable-background:accumulate" />
  <path
     d="m 8.8125,7.4375 c -0.157435,0 -0.304024,0.06191 -0.4375,0.125 L 8.0625,7.75 c -1.533846,1.011705 -2.61493,2.57513 -2.9375,4.40625 -3.44e-4,0.002 -0.03091,-0.0019 -0.03125,0 -0.0085,0.05043 0.0074,0.105412 0,0.15625 C 5.04745,12.621333 5,12.927071 5,13.25 5,16.977922 8.134007,20 12,20 c 3.865993,0 7,-3.022078 7,-6.75 0,-0.286759 -0.02588,-0.566183 -0.0625,-0.84375 C 18.92594,12.31993 18.89,12.241382 18.875,12.15625 18.55243,10.32513 17.471346,8.761705 15.9375,7.75 L 15.625,7.5625 c -0.133476,-0.06309 -0.280065,-0.125 -0.4375,-0.125 -0.569446,0 -1.03125,0.461804 -1.03125,1.03125 0,0.324082 0.172432,0.623481 0.40625,0.8125 0.07431,0.06008 0.160748,0.1185 0.25,0.15625 0.966271,0.642978 1.682341,1.604098 2,2.71875 0.006,0.02127 0.02545,0.04118 0.03125,0.0625 C 16.947681,12.600558 17,12.991937 17,13.40625 c 0,2.662802 -2.238576,4.8125 -5,4.8125 -2.761424,0 -5,-2.149698 -5,-4.8125 0,-0.414313 0.05232,-0.805692 0.15625,-1.1875 0.006,-0.02223 0.02495,-0.0404 0.03125,-0.0625 0.317659,-1.114652 1.033729,-2.075772 2,-2.71875 C 9.27675,9.39975 9.363185,9.34133 9.4375,9.28125 9.671318,9.092231 9.84375,8.792832 9.84375,8.46875 9.84375,7.899304 9.381946,7.4375 8.8125,7.4375 z M 12,5 c 0.554,0 1,0.446 1,1 l 0,6 c 0,0.554 -0.446,1 -1,1 -0.554,0 -1,-0.446 -1,-1 l 0,-6 c 0,-0.554 0.446,-1 1,-1 z"
     id="path3782-2"
     style="opacity:0.5;color:#000000;fill:#ffffff;fill-opacity:1;fill-rule:nonzero;stroke:none;stroke-width:1;marker:none;visibility:visible;display:inline;overflow:visible;enable-background:accumulate" />
  <path
     d="m 8.8125,6.4375 c -0.157435,0 -0.304024,0.06191 -0.4375,0.125 L 8.0625,6.75 C 6.528654,7.761705 5.44757,9.32513 5.125,11.15625 c -3.44e-4,0.002 -0.03091,-0.0019 -0.03125,0 -0.0085,0.05043 0.0074,0.105412 0,0.15625 C 5.04745,11.621333 5,11.927071 5,12.25 5,15.977922 8.134007,19 12,19 c 3.865993,0 7,-3.022078 7,-6.75 0,-0.286759 -0.02588,-0.566183 -0.0625,-0.84375 C 18.92594,11.31993 18.89,11.241382 18.875,11.15625 18.55243,9.32513 17.471346,7.761705 15.9375,6.75 L 15.625,6.5625 c -0.133476,-0.06309 -0.280065,-0.125 -0.4375,-0.125 -0.569446,0 -1.03125,0.461804 -1.03125,1.03125 0,0.324082 0.172432,0.623481 0.40625,0.8125 0.07431,0.06008 0.160748,0.1185 0.25,0.15625 0.966271,0.642978 1.682341,1.604098 2,2.71875 0.006,0.02127 0.02545,0.04118 0.03125,0.0625 C 16.947681,11.600558 17,11.991937 17,12.40625 c 0,2.662802 -2.238576,4.8125 -5,4.8125 -2.761424,0 -5,-2.149698 -5,-4.8125 0,-0.414313 0.05232,-0.805692 0.15625,-1.1875 0.006,-0.02223 0.02495,-0.0404 0.03125,-0.0625 0.317659,-1.114652 1.033729,-2.075772 2,-2.71875 C 9.27675,8.39975 9.363185,8.34133 9.4375,8.28125 9.671318,8.092231 9.84375,7.792832 9.84375,7.46875 9.84375,6.899304 9.381946,6.4375 8.8125,6.4375 z M 12,4 c 0.554,0 1,0.446 1,1 l 0,6 c 0,0.554 -0.446,1 -1,1 -0.554,0 -1,-0.446 -1,-1 l 0,-6 c 0,-0.554 0.446,-1 1,-1 z"
     id="path3782"
     style="opacity:0.65;color:#000000;fill:#000000;fill-opacity:1;fill-rule:nonzero;stroke:none;stroke-width:1px;marker:none;visibility:visible;display:inline;overflow:visible;enable-background:accumulate" />
</svg>
