<?xml version="1.0" encoding="UTF-8" standalone="no"?>
<svg
   height="24"
   width="24"
   id="svg2"
   version="1.1"
   sodipodi:docname="view-dual-symbolic.svg"
   inkscape:version="1.1.2 (0a00cf5339, 2022-02-04)"
   xmlns:inkscape="http://www.inkscape.org/namespaces/inkscape"
   xmlns:sodipodi="http://sodipodi.sourceforge.net/DTD/sodipodi-0.dtd"
   xmlns="http://www.w3.org/2000/svg"
   xmlns:svg="http://www.w3.org/2000/svg"
   xmlns:rdf="http://www.w3.org/1999/02/22-rdf-syntax-ns#"
   xmlns:cc="http://creativecommons.org/ns#"
   xmlns:dc="http://purl.org/dc/elements/1.1/">
  <sodipodi:namedview
     id="namedview7"
     pagecolor="#ffffff"
     bordercolor="#666666"
     borderopacity="1.0"
     inkscape:pageshadow="2"
     inkscape:pageopacity="0.0"
     inkscape:pagecheckerboard="0"
     showgrid="false"
     inkscape:zoom="15.070213"
     inkscape:cx="11.081462"
     inkscape:cy="10.882394"
     inkscape:window-width="1317"
     inkscape:window-height="893"
     inkscape:window-x="587"
     inkscape:window-y="56"
     inkscape:window-maximized="0"
     inkscape:current-layer="g4" />
  <metadata
     id="metadata12">
    <rdf:RDF>
      <cc:Work
         rdf:about="">
        <dc:format>image/svg+xml</dc:format>
        <dc:type
           rdf:resource="http://purl.org/dc/dcmitype/StillImage" />
      </cc:Work>
    </rdf:RDF>
  </metadata>
  <defs
     id="defs10" />
  <g
     color="#bebebe"
     transform="translate(-833,-57)"
     id="g4">
    <path
       style="color:#bebebe;fill:#666666;stroke-width:1;stroke-linecap:round;stroke-linejoin:round;-inkscape-stroke:none;paint-order:markers fill stroke"
       d="m 836.5,62 c -0.79078,0 -1.5,0.589835 -1.5,1.382759 v 11.234043 c 0,0.792924 0.70922,1.382761 1.5,1.382761 h 17 c 0.79078,0 1.5,-0.589837 1.5,-1.382761 V 63.382759 C 855,62.589836 854.29078,62 853.5,62 Z m 0,1.000367 h 17 c 0.31722,0 0.5,0.198113 0.5,0.382797 v 11.233638 c 0,0.184686 -0.18278,0.3828 -0.5,0.3828 h -17 c -0.31722,0 -0.5,-0.198114 -0.5,-0.3828 V 63.383164 c 0,-0.184684 0.18278,-0.382797 0.5,-0.382797 z"
       id="path2755"
       sodipodi:nodetypes="ssssssssssssssssss" />
    <rect
       style="fill:#666666;fill-opacity:1;stroke:none;stroke-width:1.99999;stroke-linecap:round;stroke-linejoin:round;stroke-miterlimit:4;stroke-dasharray:none;stroke-opacity:1;paint-order:markers fill stroke"
       id="rect2757"
       height="14"
       x="844"
       y="62"
       width="1" />
  </g>
</svg>
