<?xml version="1.0" encoding="UTF-8" standalone="no"?>
<svg
   xmlns:dc="http://purl.org/dc/elements/1.1/"
   xmlns:cc="http://creativecommons.org/ns#"
   xmlns:rdf="http://www.w3.org/1999/02/22-rdf-syntax-ns#"
   xmlns:svg="http://www.w3.org/2000/svg"
   xmlns="http://www.w3.org/2000/svg"
   width="16"
   height="16"
   id="svg2"
   version="1.0">
  <defs
     id="defs4" />
  <metadata
     id="metadata7">
    <rdf:RDF>
      <cc:Work
         rdf:about="">
        <dc:format>image/svg+xml</dc:format>
        <dc:type
           rdf:resource="http://purl.org/dc/dcmitype/StillImage" />
      </cc:Work>
    </rdf:RDF>
  </metadata>
  <g
     id="layer1">
    <path
       id="path3375"
       d="M 9.615522,11.867123 C 9.5446004,11.928375 7.979232,13.593336 7.979232,13.593336 C 7.979232,13.593336 6.4287699,11.914305 6.3705975,11.867123 C 6.4745566,11.788915 6.8988618,11.481361 7.9826121,11.485747 C 9.0489996,11.490064 9.5342996,11.791316 9.615522,11.867123 z"
       style="opacity:0.98000003999999996;fill:#4479be;fill-opacity:1;fill-rule:evenodd;stroke:none;stroke-width:5.33333349000000023;stroke-linecap:round;stroke-linejoin:miter;stroke-miterlimit:4;stroke-dasharray:none;stroke-opacity:1;overflow:visible" />
    <path
       id="path2513"
       d="M 0.62500002,5.616726 C 0.62500002,5.616726 2.9606212,3.0316637 7.9854572,3.0316637 C 12.985591,3.0316637 15.375,5.6211136 15.375,5.6211136"
       style="fill:none;fill-rule:evenodd;stroke:#9c9c9c;stroke-width:1.25000000000000000;stroke-linecap:butt;stroke-linejoin:miter;stroke-miterlimit:4;stroke-dasharray:none;stroke-opacity:1;overflow:visible;opacity:0.4" />
    <path
       id="path2511"
       d="M 2.775213,7.9065041 C 2.775213,7.9065041 4.4572939,6.0812586 7.9854572,6.1461981 C 11.542886,6.2116765 13.1957,7.9358195 13.1957,7.9358195"
       style="fill:none;fill-rule:evenodd;stroke:#4479be;stroke-width:1.25000000000000000;stroke-linecap:butt;stroke-linejoin:miter;stroke-miterlimit:4;stroke-dasharray:none;stroke-opacity:1;overflow:visible" />
    <path
       id="path3209"
       d="M 4.8175881,10.164536 C 4.8175881,10.164536 5.5839958,9.1917776 7.9321008,9.1669832 C 10.250932,9.1424978 11.138186,10.164536 11.138186,10.164536"
       style="fill:none;fill-rule:evenodd;stroke:#4479be;stroke-width:1.25000000000000000;stroke-linecap:butt;stroke-linejoin:miter;stroke-miterlimit:4;stroke-dasharray:none;stroke-opacity:1;overflow:visible" />
  </g>
</svg>
