<?xml version="1.0" encoding="UTF-8" standalone="no"?>
<svg
   xmlns:dc="http://purl.org/dc/elements/1.1/"
   xmlns:cc="http://creativecommons.org/ns#"
   xmlns:rdf="http://www.w3.org/1999/02/22-rdf-syntax-ns#"
   xmlns:svg="http://www.w3.org/2000/svg"
   xmlns="http://www.w3.org/2000/svg"
   xmlns:xlink="http://www.w3.org/1999/xlink"
   width="16px"
   height="16px"
   id="svg3810"
   version="1.1">
  <defs
     id="defs3812">
    <linearGradient
       xlink:href="#linearGradient3977"
       id="linearGradient3988"
       gradientUnits="userSpaceOnUse"
       gradientTransform="matrix(0.24324324,0,0,0.35135133,2.1621636,-0.43242804)"
       x1="23.99999"
       y1="5.5641499"
       x2="23.99999"
       y2="43" />
    <linearGradient
       id="linearGradient3977">
      <stop
         offset="0"
         style="stop-color:#ffffff;stop-opacity:1;"
         id="stop3979" />
      <stop
         id="stop3981"
         style="stop-color:#ffffff;stop-opacity:0.23529412;"
         offset="0.03626217" />
      <stop
         offset="0.95056331"
         style="stop-color:#ffffff;stop-opacity:0.15686275;"
         id="stop3983" />
      <stop
         offset="1"
         style="stop-color:#ffffff;stop-opacity:0.39215687;"
         id="stop3985" />
    </linearGradient>
    <linearGradient
       y2="47.013336"
       x2="25.132275"
       y1="0.98520643"
       x1="25.132275"
       gradientTransform="matrix(0.31428714,0,0,0.3259265,0.457108,-0.32223804)"
       gradientUnits="userSpaceOnUse"
       id="linearGradient3806"
       xlink:href="#linearGradient4145-42-322-778-541-32-432-871-622-7-6" />
    <linearGradient
       y2="2.9062471"
       x2="-51.786404"
       y1="50.786446"
       x1="-51.786404"
       gradientTransform="matrix(0.25378586,0,0,0.30501865,19.128979,-0.68547704)"
       gradientUnits="userSpaceOnUse"
       id="linearGradient3808"
       xlink:href="#linearGradient4711-257-850-696-320-311-361-101-393-7" />
    <linearGradient
       id="linearGradient4711-257-850-696-320-311-361-101-393-7">
      <stop
         offset="0"
         style="stop-color:#425a2d;stop-opacity:1"
         id="stop5651-4" />
      <stop
         offset="1"
         style="stop-color:#7f956d;stop-opacity:1"
         id="stop5653-5" />
    </linearGradient>
    <linearGradient
       id="linearGradient4145-42-322-778-541-32-432-871-622-7-6">
      <stop
         offset="0"
         style="stop-color:#b5cc85;stop-opacity:1"
         id="stop5641-6-9" />
      <stop
         offset="0.26238"
         style="stop-color:#9abe74;stop-opacity:1"
         id="stop5643-5-3" />
      <stop
         offset="0.704952"
         style="stop-color:#669f4d;stop-opacity:1"
         id="stop5645-6-2" />
      <stop
         offset="1"
         style="stop-color:#47892b;stop-opacity:1"
         id="stop5647-9-3" />
    </linearGradient>
    <linearGradient
       id="linearGradient3412">
      <stop
         id="stop3414"
         style="stop-color:#fcfcfc;stop-opacity:1"
         offset="0" />
      <stop
         id="stop3416"
         style="stop-color:#cbcdd9;stop-opacity:1"
         offset="1" />
    </linearGradient>
    <linearGradient
       y2="30.190546"
       x2="44.118835"
       y1="19.948324"
       x1="33.876614"
       gradientTransform="matrix(0,0.6,0.6,0,5.8976269,-12.49769)"
       gradientUnits="userSpaceOnUse"
       id="linearGradient3032"
       xlink:href="#linearGradient3412" />
  </defs>
  <metadata
     id="metadata3815">
    <rdf:RDF>
      <cc:Work
         rdf:about="">
        <dc:format>image/svg+xml</dc:format>
        <dc:type
           rdf:resource="http://purl.org/dc/dcmitype/StillImage" />
        <dc:title />
      </cc:Work>
    </rdf:RDF>
  </metadata>
  <g
     id="layer1">
    <path
       style="fill:url(#linearGradient3806);fill-opacity:1.0;stroke:url(#linearGradient3808);stroke-width:0.99992192000000002;stroke-linecap:butt;stroke-linejoin:round;stroke-miterlimit:4;stroke-opacity:1;stroke-dasharray:none;stroke-dashoffset:0;display:inline"
       id="path4160"
       d="m 2.4999621,0.49997396 c 2.5206756,0 11.0000629,9.54e-4 11.0000629,9.54e-4 l 1.3e-5,14.99909804 c 0,0 -7.3333841,0 -11.0000759,0 0,-5.000017 0,-10.000035 0,-15.00005204 z" />
    <path
       style="fill:none;stroke:url(#linearGradient3988);stroke-width:1;stroke-linecap:round;stroke-linejoin:miter;stroke-miterlimit:4;stroke-opacity:1;stroke-dasharray:none;stroke-dashoffset:0;opacity:0.5"
       d="m 12.5,14.5 -9.0000001,0 0,-13 L 12.5,1.5 z"
       id="rect6741-1" />
    <path
       d="m 3.4999999,1.5000004 5.994643,0 L 12.5,4.771 l 0,9.729 -9.0000001,0 z"
       style="opacity:0.2;fill:#ffffff;fill-opacity:1;stroke:#000000;stroke-width:0.99999988px;stroke-linecap:butt;stroke-linejoin:miter;stroke-opacity:1"
       id="path3872" />
    <path
       style="fill:#ffffff;fill-opacity:1;stroke:none"
       d="m 4,1.9999987 5.317647,0 L 12,5 l 0,9 -8,0 z"
       id="path3102" />
    <path
       id="path4729"
       d="m 5,9.9999998 2,0 L 7,11 5,11 z"
       style="fill:#89ac68;fill-opacity:1;stroke:none" />
    <path
       style="fill:#89ac68;fill-opacity:1;stroke:none"
       d="m 8,9.9999998 2,0 L 10,11 8,11 z"
       id="path4731" />
    <path
       style="fill:#89ac68;fill-opacity:1;stroke:none"
       d="m 5,7.9999998 2,0 0,1 -2,0 z"
       id="path4735" />
    <path
       id="path4737"
       d="m 8,7.9999998 2,0 0,1 -2,0 z"
       style="fill:#89ac68;fill-opacity:1;stroke:none" />
    <path
       id="path4741"
       d="m 5,5.9999998 2,0 0,1 -2,0 z"
       style="fill:#89ac68;fill-opacity:1;stroke:none" />
    <path
       style="fill:#89ac68;fill-opacity:1;stroke:none"
       d="m 8,5.9999998 2,0 0,1 -2,0 z"
       id="path4743" />
    <path
       style="fill:#89ac68;fill-opacity:1;stroke:none"
       d="m 5,3.9999998 2,0 0,1 -2,0 z"
       id="path4747" />
    <path
       id="path4749"
       d="m 8,3.9999998 1,0 1,1 -2,0 z"
       style="fill:#89ac68;fill-opacity:1;stroke:none" />
    <path
       style="fill:#89ac68;fill-opacity:1;stroke:none"
       d="m 5,12 2,0 0,1 -2,0 z"
       id="path4545" />
    <path
       id="path4547"
       d="m 8,12 2,0 0,1 -2,0 z"
       style="fill:#89ac68;fill-opacity:1;stroke:none" />
    <g
       id="g3082"
       transform="matrix(-1,0,0,1,31.497627,0.69769)">
      <path
         style="opacity:0.8;fill:url(#linearGradient3032);fill-opacity:1;fill-rule:evenodd;stroke:#83899a;stroke-width:1px;stroke-linecap:butt;stroke-linejoin:miter;stroke-opacity:1"
         id="path3410"
         d="m 16.997627,5.8023097 9,9.0000003 -9,0 0,-9.0000003 z m 2,5.0000003 0,2 2,0 -2,-2 z" />
    </g>
  </g>
</svg>
