<?xml version="1.0" encoding="UTF-8" standalone="no"?>
<svg
   xmlns:dc="http://purl.org/dc/elements/1.1/"
   xmlns:cc="http://creativecommons.org/ns#"
   xmlns:rdf="http://www.w3.org/1999/02/22-rdf-syntax-ns#"
   xmlns:svg="http://www.w3.org/2000/svg"
   xmlns="http://www.w3.org/2000/svg"
   xmlns:xlink="http://www.w3.org/1999/xlink"
   id="svg3999"
   height="16"
   width="16"
   version="1.1">
  <defs
     id="defs4001">
    <linearGradient
       spreadMethod="reflect"
       gradientTransform="translate(7.0000038,4.8614497e-7)"
       gradientUnits="userSpaceOnUse"
       xlink:href="#linearGradient3866-9"
       id="linearGradient3892"
       y2="5.6722498"
       x2="4.7011395"
       y1="3.9248669"
       x1="2.9537566" />
    <linearGradient
       id="linearGradient3866-9">
      <stop
         offset="0"
         style="stop-color:#93a0ab;stop-opacity:1"
         id="stop3868-5" />
      <stop
         offset="0.52813274"
         style="stop-color:#79848c;stop-opacity:1"
         id="stop3874-3" />
      <stop
         offset="1"
         style="stop-color:#000000;stop-opacity:0"
         id="stop3870-7" />
    </linearGradient>
    <linearGradient
       spreadMethod="reflect"
       gradientTransform="translate(3.8190246e-6,4.8614497e-7)"
       gradientUnits="userSpaceOnUse"
       xlink:href="#linearGradient3866"
       id="linearGradient3872"
       y2="5.6722498"
       x2="4.7011395"
       y1="3.9248669"
       x1="2.9537566" />
    <linearGradient
       id="linearGradient3866">
      <stop
         offset="0"
         style="stop-color:#93a0ab;stop-opacity:1"
         id="stop3868" />
      <stop
         offset="0.52813274"
         style="stop-color:#79848c;stop-opacity:1"
         id="stop3874" />
      <stop
         offset="1"
         style="stop-color:#000000;stop-opacity:0"
         id="stop3870" />
    </linearGradient>
    <linearGradient
       gradientTransform="matrix(0.35135133,0,0,0.35135133,-17.203657,-0.90927496)"
       gradientUnits="userSpaceOnUse"
       xlink:href="#linearGradient4011"
       id="linearGradient5150"
       y2="44.340794"
       x2="71.204407"
       y1="6.2375584"
       x1="71.204407" />
    <linearGradient
       id="linearGradient4011">
      <stop
         offset="0"
         style="stop-color:#ffffff;stop-opacity:1"
         id="stop4013" />
      <stop
         offset="0.507761"
         style="stop-color:#ffffff;stop-opacity:0.23529412"
         id="stop4015" />
      <stop
         offset="0.83456558"
         style="stop-color:#ffffff;stop-opacity:0.15686275"
         id="stop4017" />
      <stop
         offset="1"
         style="stop-color:#ffffff;stop-opacity:0.39215687"
         id="stop4019" />
    </linearGradient>
    <linearGradient
       id="linearGradient4044">
      <stop
         offset="0"
         style="stop-color:#fff3cb;stop-opacity:1"
         id="stop4046" />
      <stop
         offset="0.4334898"
         style="stop-color:#fdde76;stop-opacity:1"
         id="stop4048" />
      <stop
         offset="0.69222504"
         style="stop-color:#f9c440;stop-opacity:1"
         id="stop4050" />
      <stop
         offset="1"
         style="stop-color:#e48b20;stop-opacity:1"
         id="stop4052" />
    </linearGradient>
    <radialGradient
       gradientTransform="matrix(0,0.91915984,-0.99587439,0,814.28776,272.60038)"
       gradientUnits="userSpaceOnUse"
       xlink:href="#linearGradient4044"
       id="radialGradient3997"
       fy="533.11218"
       fx="277.66473"
       r="6.8303571"
       cy="533.11218"
       cx="282.78751" />
  </defs>
  <metadata
     id="metadata4004">
    <rdf:RDF>
      <cc:Work
         rdf:about="">
        <dc:format>image/svg+xml</dc:format>
        <dc:type
           rdf:resource="http://purl.org/dc/dcmitype/StillImage" />
        <dc:title />
      </cc:Work>
    </rdf:RDF>
  </metadata>
  <g
     id="layer1">
    <path
       style="color:#000000;fill:url(#radialGradient3997);fill-opacity:1;fill-rule:nonzero;stroke:none;stroke-width:0.91071427;marker:none;visibility:visible;display:inline;overflow:visible;enable-background:accumulate"
       id="path3009"
       transform="matrix(1.1764706,0,0,1.1764706,-325.38236,-619.19081)"
       d="m 289.75,533.11218 a 6.375,6.375 0 1 1 -12.75,0 6.375,6.375 0 1 1 12.75,0 z" />
    <path
       style="opacity:0.5;color:#000000;fill:none;stroke:#a53400;stroke-width:0.85000002;stroke-miterlimit:4;stroke-opacity:1;stroke-dasharray:none;marker:none;visibility:visible;display:inline;overflow:visible;enable-background:accumulate"
       id="path3009-5"
       transform="matrix(1.1764706,0,0,1.1764706,-325.38236,-619.19081)"
       d="m 289.75,533.11218 a 6.375,6.375 0 1 1 -12.75,0 6.375,6.375 0 1 1 12.75,0 z" />
    <path
       style="opacity:0.3;color:#000000;fill:none;stroke:#ffffff;stroke-width:0.99999994px;stroke-linecap:butt;stroke-linejoin:miter;stroke-miterlimit:4;stroke-opacity:1;stroke-dasharray:none;stroke-dashoffset:0;marker:none;visibility:visible;display:inline;overflow:visible;enable-background:accumulate"
       id="path3972-9-3"
       d="m 9.4498436,3.4264004 c 2.2578474,-0.2154 2.5151694,1.8236 2.5151694,1.8236" />
    <path
       style="color:#000000;fill:none;stroke:url(#linearGradient5150);stroke-width:0.99999988;stroke-linecap:round;stroke-linejoin:round;stroke-miterlimit:4;stroke-opacity:1;stroke-dasharray:none;stroke-dashoffset:0;marker:none;visibility:visible;display:inline;overflow:visible;enable-background:accumulate"
       id="path8655-6"
       d="m 14.500013,7.9997249 c 0,3.5900011 -2.91036,6.5003011 -6.4999101,6.5003011 -3.58989,0 -6.50009,-2.9103 -6.50009,-6.5003011 0,-3.5898 2.9102,-6.4997 6.50009,-6.4997 3.5895501,0 6.4999101,2.9099 6.4999101,6.4997 l 0,0 z" />
    <path
       style="opacity:0.3;color:#000000;fill:none;stroke:#ffffff;stroke-width:1px;stroke-linecap:butt;stroke-linejoin:miter;stroke-miterlimit:4;stroke-opacity:1;stroke-dasharray:none;stroke-dashoffset:0;marker:none;visibility:visible;display:inline;overflow:visible;enable-background:accumulate"
       id="path5609"
       d="m 11.042683,10.000026 c 0,0 0.39756,2.634 -2.4161801,2.5" />
    <path
       style="opacity:0.3;color:#000000;fill:none;stroke:#ffffff;stroke-width:1px;stroke-linecap:butt;stroke-linejoin:miter;stroke-miterlimit:4;stroke-opacity:1;stroke-dasharray:none;stroke-dashoffset:0;marker:none;visibility:visible;display:inline;overflow:visible;enable-background:accumulate"
       id="path3972-9"
       d="m 6.9652629,3.4264004 c -2.25792,-0.2154 -2.51525,1.8236 -2.51525,1.8236" />
    <path
       style="color:#000000;fill:none;stroke:#5e4506;stroke-width:1px;stroke-linecap:butt;stroke-linejoin:miter;stroke-miterlimit:4;stroke-opacity:1;stroke-dasharray:none;stroke-dashoffset:0;marker:none;visibility:visible;display:inline;overflow:visible;enable-background:accumulate"
       id="path3968"
       d="m 11.042683,9.0000249 c 0,0 0.39756,2.6340011 -2.4161801,2.5000011" />
    <path
       style="color:#000000;fill:none;stroke:#5e4506;stroke-width:0.99999994px;stroke-linecap:butt;stroke-linejoin:miter;stroke-miterlimit:4;stroke-opacity:1;stroke-dasharray:none;stroke-dashoffset:0;marker:none;visibility:visible;display:inline;overflow:visible;enable-background:accumulate"
       id="path3966"
       d="M 6.9651823,2.4267 C 4.7073347,2.2113 4.4500129,4.2503 4.4500129,4.2503" />
    <path
       style="color:#000000;fill:none;stroke:#5e4506;stroke-width:0.99999994px;stroke-linecap:butt;stroke-linejoin:miter;stroke-miterlimit:4;stroke-opacity:1;stroke-dasharray:none;stroke-dashoffset:0;marker:none;visibility:visible;display:inline;overflow:visible;enable-background:accumulate"
       id="path3966-0"
       d="m 9.4498436,2.4267004 c 2.2578474,-0.2154 2.5151694,1.8236 2.5151694,1.8236" />
    <path
       style="color:#000000;fill:#000000;fill-opacity:1;fill-rule:nonzero;stroke:none;stroke-width:1.07142854;marker:none;visibility:visible;display:inline;overflow:visible;enable-background:accumulate"
       id="rect3021"
       d="m 2.9687538,3.0000004 c -1.0636535,0.049152 -1.90625,0.9237735 -1.90625,2 l 0.9375,0 0,2 c 0,0.554 0.446,1 1,1 l 3,0 c 0.554,0 1,-0.446 1,-1 l 0,-1 2,0 0,1 c 0,0.554 0.446,1 1.0000002,1 l 3,0 c 0.554,0 1,-0.446 1,-1 l 0,-2 1,0 c 0,-1.108 -0.892,-2 -2,-2 l -1.9375,0 -1.0625,0 c -0.5540002,0 -1.0000002,0.446 -1.0000002,1 l -2,0 c 0,-0.554 -0.446,-1 -1,-1 l -3,0 c -0.010863,0 -0.020473,-3.404e-4 -0.03125,0 z" />
    <rect
       style="color:#000000;fill:url(#linearGradient3872);fill-opacity:1;fill-rule:nonzero;stroke:none;stroke-width:1.07142854;marker:none;visibility:visible;display:inline;overflow:visible;enable-background:accumulate"
       id="rect3096"
       y="4.0000005"
       x="3.0000038"
       ry="0.5"
       rx="0.5"
       height="3"
       width="3" />
    <rect
       style="color:#000000;fill:url(#linearGradient3892);fill-opacity:1;fill-rule:nonzero;stroke:none;stroke-width:1.07142854;marker:none;visibility:visible;display:inline;overflow:visible;enable-background:accumulate"
       id="rect3096-1"
       y="4.0000005"
       x="10.000004"
       ry="0.5"
       rx="0.5"
       height="3"
       width="3" />
  </g>
</svg>
