<?xml version="1.0" encoding="UTF-8" standalone="no"?>
<svg
   xmlns:dc="http://purl.org/dc/elements/1.1/"
   xmlns:cc="http://creativecommons.org/ns#"
   xmlns:rdf="http://www.w3.org/1999/02/22-rdf-syntax-ns#"
   xmlns:svg="http://www.w3.org/2000/svg"
   xmlns="http://www.w3.org/2000/svg"
   xmlns:xlink="http://www.w3.org/1999/xlink"
   id="svg4767"
   height="16"
   width="16"
   version="1.1">
  <defs
     id="defs4769">
    <linearGradient
       id="linearGradient3816">
      <stop
         offset="0"
         style="stop-color:#ff7a26;stop-opacity:1"
         id="stop3818" />
      <stop
         offset="1"
         style="stop-color:#ff8056;stop-opacity:0"
         id="stop3820" />
    </linearGradient>
    <linearGradient
       gradientTransform="matrix(0.35135133,0,0,0.35135133,-17.203648,-0.90927944)"
       gradientUnits="userSpaceOnUse"
       xlink:href="#linearGradient4011-7-3-1"
       id="linearGradient10680-9"
       y2="44.340794"
       x2="71.204407"
       y1="6.2375584"
       x1="71.204407" />
    <linearGradient
       id="linearGradient4011-7-3-1">
      <stop
         offset="0"
         style="stop-color:#ffffff;stop-opacity:1"
         id="stop4013-1-4-2" />
      <stop
         offset="0.507761"
         style="stop-color:#ffffff;stop-opacity:0.23529412"
         id="stop4015-6-5-3" />
      <stop
         offset="0.83456558"
         style="stop-color:#ffffff;stop-opacity:0.15686275"
         id="stop4017-5-3-6" />
      <stop
         offset="1"
         style="stop-color:#ffffff;stop-opacity:0.39215687"
         id="stop4019-1-06-7" />
    </linearGradient>
    <linearGradient
       id="linearGradient4044-1-8-1">
      <stop
         offset="0"
         style="stop-color:#fff3cb;stop-opacity:1"
         id="stop4046-5-1-1" />
      <stop
         offset="0.4334898"
         style="stop-color:#fdde76;stop-opacity:1"
         id="stop4048-7-6-8" />
      <stop
         offset="0.69222504"
         style="stop-color:#f9c440;stop-opacity:1"
         id="stop4050-0-8-2" />
      <stop
         offset="1"
         style="stop-color:#e48b20;stop-opacity:1"
         id="stop4052-2-0-3" />
    </linearGradient>
    <radialGradient
       gradientTransform="matrix(0,0.91915984,-0.99587439,0,814.28776,272.60038)"
       gradientUnits="userSpaceOnUse"
       xlink:href="#linearGradient4044-1-8-1"
       id="radialGradient4765"
       fy="533.11218"
       fx="277.66473"
       r="6.8303571"
       cy="533.11218"
       cx="282.78751" />
    <radialGradient
       gradientTransform="matrix(0.8,1.8000014e-8,-1.5360009e-8,0.59999991,0.60000016,4.2000008)"
       gradientUnits="userSpaceOnUse"
       xlink:href="#linearGradient3816"
       id="radialGradient3822"
       fy="10.5"
       fx="3"
       r="2.5"
       cy="10.5"
       cx="3" />
    <radialGradient
       gradientTransform="matrix(0.8,1.8000014e-8,-1.5360009e-8,0.59999991,0.60000016,4.2000008)"
       gradientUnits="userSpaceOnUse"
       xlink:href="#linearGradient3816"
       id="radialGradient3856"
       fy="10.5"
       fx="3"
       r="2.5"
       cy="10.5"
       cx="3" />
  </defs>
  <metadata
     id="metadata4772">
    <rdf:RDF>
      <cc:Work
         rdf:about="">
        <dc:format>image/svg+xml</dc:format>
        <dc:type
           rdf:resource="http://purl.org/dc/dcmitype/StillImage" />
        <dc:title />
      </cc:Work>
    </rdf:RDF>
  </metadata>
  <g
     id="layer1">
    <path
       style="color:#000000;fill:url(#radialGradient4765);fill-opacity:1;fill-rule:nonzero;stroke:none;stroke-width:0.91071427;marker:none;visibility:visible;display:inline;overflow:visible;enable-background:accumulate"
       id="path3009-1-6-3"
       transform="matrix(1.1764706,0,0,1.1764706,-325.38236,-619.19081)"
       d="m 289.75,533.11218 a 6.375,6.375 0 1 1 -12.75,0 6.375,6.375 0 1 1 12.75,0 z" />
    <path
       style="color:#000000;fill:url(#radialGradient3856);fill-opacity:1;fill-rule:nonzero;stroke:none;stroke-width:1px;marker:none;visibility:visible;display:inline;overflow:visible;enable-background:accumulate"
       id="path3814-8"
       transform="matrix(-1.0466017,1.0466017,1.1163752,1.1163752,4.0924283,-5.0424517)"
       d="m 5,10.5 a 2,1.5 0 1 1 -4,0 2,1.5 0 1 1 4,0 z" />
    <path
       style="opacity:0.5;color:#000000;fill:none;stroke:#a53400;stroke-width:0.85000002;stroke-miterlimit:4;stroke-opacity:1;stroke-dasharray:none;marker:none;visibility:visible;display:inline;overflow:visible;enable-background:accumulate"
       id="path3009-5-8-6-1"
       transform="matrix(1.1764706,0,0,1.1764706,-325.38236,-619.19081)"
       d="m 289.75,533.11218 a 6.375,6.375 0 1 1 -12.75,0 6.375,6.375 0 1 1 12.75,0 z" />
    <path
       style="color:#000000;fill:none;stroke:url(#linearGradient10680-9);stroke-width:0.99999988;stroke-linecap:round;stroke-linejoin:round;stroke-miterlimit:4;stroke-opacity:1;stroke-dasharray:none;stroke-dashoffset:0;marker:none;visibility:visible;display:inline;overflow:visible;enable-background:accumulate"
       id="path8655-6-3-2-5"
       d="m 14.500024,7.9997206 c 0,3.5900004 -2.91036,6.5003004 -6.4999102,6.5003004 -3.58989,0 -6.50009,-2.9103 -6.50009,-6.5003004 0,-3.5898 2.9102,-6.4997 6.50009,-6.4997 3.5895502,0 6.4999102,2.9099 6.4999102,6.4997 l 0,0 z" />
    <path
       style="opacity:0.3;fill:none;stroke:#ffffff;stroke-width:1px;stroke-linecap:butt;stroke-linejoin:miter;stroke-opacity:1"
       id="path3417"
       d="m 5.0000138,13.000001 c 0,0 1.26448,-1.45879 3,-1.5 1.73553,-0.0412 3.0000002,1.5 3.0000002,1.5" />
    <path
       style="fill:none;stroke:#5e4506;stroke-width:1px;stroke-linecap:butt;stroke-linejoin:miter;stroke-opacity:1"
       id="path3417-7"
       d="m 5.0000138,12.000001 c 0,0 1.26448,-1.45879 3,-1.5 1.73553,-0.0412 3.0000002,1.5 3.0000002,1.5" />
    <path
       style="color:#000000;fill:url(#radialGradient3822);fill-opacity:1;fill-rule:nonzero;stroke:none;stroke-width:1px;marker:none;visibility:visible;display:inline;overflow:visible;enable-background:accumulate"
       id="path3814"
       transform="matrix(1.0466017,1.0466017,-1.1163752,1.1163752,11.907571,-5.0424517)"
       d="m 5,10.5 a 2,1.5 0 1 1 -4,0 2,1.5 0 1 1 4,0 z" />
  </g>
  <path
     d="m 6.7500012,7.2625365 a 0.75000062,2.0000016 0 1 1 -1.5000012,0 0.75000062,2.0000016 0 1 1 1.5000012,0 z"
     id="path4747"
     style="color:#000000;display:inline;overflow:visible;visibility:visible;fill:#ffffff;fill-opacity:1;stroke:none;stroke-width:1;marker:none;enable-background:accumulate;opacity:0.3" />
  <path
     style="color:#000000;display:inline;overflow:visible;visibility:visible;fill:#43340d;fill-opacity:1;stroke:none;stroke-width:1;marker:none;enable-background:accumulate"
     id="path3964-7-71-6-4"
     d="m 6.7500012,6.2625365 a 0.75000062,2.0000016 0 1 1 -1.5000012,0 0.75000062,2.0000016 0 1 1 1.5000012,0 z" />
  <path
     d="m 9.2499817,7.2625365 a 0.75000065,2.0000017 0 0 0 1.5000013,0 0.75000065,2.0000017 0 1 0 -1.5000013,0 z"
     id="path4749"
     style="color:#000000;display:inline;overflow:visible;visibility:visible;fill:#ffffff;fill-opacity:1;stroke:none;stroke-width:1;marker:none;enable-background:accumulate;opacity:0.3" />
  <path
     style="color:#000000;display:inline;overflow:visible;visibility:visible;fill:#43340d;fill-opacity:1;stroke:none;stroke-width:1;marker:none;enable-background:accumulate"
     id="path3964-7-7-2-8-7"
     d="m 9.2499817,6.2625365 a 0.75000065,2.0000017 0 0 0 1.5000013,0 0.75000065,2.0000017 0 1 0 -1.5000013,0 z" />
</svg>
