<?xml version="1.0" encoding="UTF-8" standalone="no"?>
<svg
   xmlns:dc="http://purl.org/dc/elements/1.1/"
   xmlns:cc="http://creativecommons.org/ns#"
   xmlns:rdf="http://www.w3.org/1999/02/22-rdf-syntax-ns#"
   xmlns:svg="http://www.w3.org/2000/svg"
   xmlns="http://www.w3.org/2000/svg"
   xmlns:xlink="http://www.w3.org/1999/xlink"
   xmlns:sodipodi="http://sodipodi.sourceforge.net/DTD/sodipodi-0.dtd"
   xmlns:inkscape="http://www.inkscape.org/namespaces/inkscape"
   width="16"
   height="16"
   id="svg3330"
   version="1.1"
   sodipodi:docname="audio-input-microphone-none-panel.svg"
   inkscape:version="0.92.4 (5da689c313, 2019-01-14)">
  <sodipodi:namedview
     pagecolor="#ffffff"
     bordercolor="#666666"
     borderopacity="1"
     objecttolerance="10"
     gridtolerance="10"
     guidetolerance="10"
     inkscape:pageopacity="0"
     inkscape:pageshadow="2"
     inkscape:window-width="1920"
     inkscape:window-height="1031"
     id="namedview14"
     showgrid="false"
     inkscape:zoom="14.75"
     inkscape:cx="8"
     inkscape:cy="8"
     inkscape:window-x="0"
     inkscape:window-y="25"
     inkscape:window-maximized="1"
     inkscape:current-layer="layer1" />
  <defs
     id="defs3332">
    <linearGradient
       xlink:href="#linearGradient4149"
       id="linearGradient3300"
       gradientUnits="userSpaceOnUse"
       gradientTransform="matrix(0.4101105,0,0,0.5452071,-30.798735,-3.9568823)"
       x1="97.04393"
       y1="12.760073"
       x2="97.04393"
       y2="34.770058" />
    <linearGradient
       id="linearGradient3587-6-5-3-0">
      <stop
         id="stop3589-9-2-2-7"
         style="stop-color:#000000;stop-opacity:1"
         offset="0" />
      <stop
         id="stop3591-7-4-73-6"
         style="stop-color:#363636;stop-opacity:1"
         offset="1" />
    </linearGradient>
    <linearGradient
       xlink:href="#linearGradient4149"
       id="linearGradient3298"
       gradientUnits="userSpaceOnUse"
       gradientTransform="matrix(0.4101105,0,0,0.5452071,-30.798735,-3.9568823)"
       x1="97.04393"
       y1="-0.079084992"
       x2="97.04393"
       y2="34.770058" />
    <linearGradient
       gradientTransform="translate(-35.677966,-13.940678)"
       gradientUnits="userSpaceOnUse"
       y2="19"
       x2="14"
       y1="4"
       x1="14"
       id="linearGradient4150"
       xlink:href="#linearGradient4149" />
    <linearGradient
       id="linearGradient4149">
      <stop
         style="stop-color:#ffffff;stop-opacity:1"
         offset="0"
         id="stop4151" />
      <stop
         style="stop-color:#e6e6e6;stop-opacity:1"
         offset="1"
         id="stop4153" />
    </linearGradient>
  </defs>
  <metadata
     id="metadata3335">
    <rdf:RDF>
      <cc:Work
         rdf:about="">
        <dc:format>image/svg+xml</dc:format>
        <dc:type
           rdf:resource="http://purl.org/dc/dcmitype/StillImage" />
        <dc:title></dc:title>
      </cc:Work>
    </rdf:RDF>
  </metadata>
  <g
     id="layer1">
    <path
       style="color:#000000;display:inline;overflow:visible;visibility:visible;opacity:0.2;fill:#000000;fill-opacity:1;fill-rule:nonzero;stroke:none;stroke-width:1;marker:none;enable-background:accumulate"
       d="M 8,1 C 6.338,1 5,2.338 5,4 v 4 c 0,1.662 1.338,2 3,2 1.662,0 3,-0.338 3,-2 V 4 C 11,2.338 9.662,1 8,1 Z M 2,7 v 1 h 1 v 1 c 0,1.786654 1.717481,3.441543 4,3.90625 V 15 H 6 v 1 h 4 V 15 H 9 V 12.90625 C 11.28252,12.441543 13,10.977782 13,9 V 8 h 1 V 7 h -1 -1 v 2 c 0,1.324065 -1.784,3 -4,3 C 5.784,12 4,10.260356 4,9 V 7 H 3 Z"
       id="path3122-6"
       inkscape:connector-curvature="0" />
    <path
       style="color:#000000;display:inline;overflow:visible;visibility:visible;opacity:0.4;fill:url(#linearGradient3298);fill-opacity:1;fill-rule:nonzero;stroke:none;stroke-width:1;marker:none;enable-background:accumulate"
       d="M 8,0 C 6.338,0 5,1.338 5,3 v 4 c 0,1.662 1.338,3 3,3 1.662,0 3,-1.338 3,-3 V 3 C 11,1.338 9.662,0 8,0 Z"
       id="path3122"
       inkscape:connector-curvature="0" />
    <path
       style="color:#000000;display:inline;overflow:visible;visibility:visible;opacity:0.4;fill:url(#linearGradient3300);fill-opacity:1;fill-rule:nonzero;stroke:none;stroke-width:1;marker:none;enable-background:accumulate"
       d="m 2,6 v 1 h 1 v 1 c 0,2.168912 1.717481,3.441543 4,3.90625 V 14 H 6 v 1 h 4 V 14 H 9 V 11.90625 C 11.28252,11.441543 13,9.977783 13,8 V 7 h 1 V 6 H 13 12 V 8 C 12,9.387775 10.216,11 8,11 5.784,11 4,9.387775 4,8 V 6 H 3 Z"
       id="rect3004"
       inkscape:connector-curvature="0" />
  </g>
</svg>
