<?xml version="1.0" encoding="UTF-8" standalone="no"?>
<svg
   xmlns:dc="http://purl.org/dc/elements/1.1/"
   xmlns:cc="http://creativecommons.org/ns#"
   xmlns:rdf="http://www.w3.org/1999/02/22-rdf-syntax-ns#"
   xmlns:svg="http://www.w3.org/2000/svg"
   xmlns="http://www.w3.org/2000/svg"
   xmlns:xlink="http://www.w3.org/1999/xlink"
   xmlns:sodipodi="http://sodipodi.sourceforge.net/DTD/sodipodi-0.dtd"
   xmlns:inkscape="http://www.inkscape.org/namespaces/inkscape"
   version="1.1"
   width="16"
   height="16"
   id="svg6495"
   sodipodi:docname="audio-volume-muted.svg"
   inkscape:version="0.92.4 (5da689c313, 2019-01-14)">
  <sodipodi:namedview
     pagecolor="#ffffff"
     bordercolor="#666666"
     borderopacity="1"
     objecttolerance="10"
     gridtolerance="10"
     guidetolerance="10"
     inkscape:pageopacity="0"
     inkscape:pageshadow="2"
     inkscape:window-width="1920"
     inkscape:window-height="1031"
     id="namedview22"
     showgrid="true"
     inkscape:zoom="5.22"
     inkscape:cx="7.4776222"
     inkscape:cy="6.426315"
     inkscape:window-x="0"
     inkscape:window-y="25"
     inkscape:window-maximized="1"
     inkscape:current-layer="layer1">
    <inkscape:grid
       type="xygrid"
       id="grid843" />
  </sodipodi:namedview>
  <defs
     id="defs6497">
    <linearGradient
       id="linearGradient3587-8-5-3-2">
      <stop
         id="stop3589-2-7-0-1"
         style="stop-color:#000000;stop-opacity:1"
         offset="0" />
      <stop
         id="stop3591-3-5-2-8"
         style="stop-color:#363636;stop-opacity:1"
         offset="1" />
    </linearGradient>
    <linearGradient
       x1="4.9554448"
       y1="2.6841583"
       x2="4.9554448"
       y2="13.496136"
       id="linearGradient7390"
       xlink:href="#linearGradient3678"
       gradientUnits="userSpaceOnUse" />
    <linearGradient
       x1="7.9109159"
       y1="4.5762329"
       x2="7.9109159"
       y2="11.649005"
       id="linearGradient7392"
       xlink:href="#linearGradient3678"
       gradientUnits="userSpaceOnUse" />
    <linearGradient
       x1="10.186814"
       y1="2.7742527"
       x2="10.186814"
       y2="13.317288"
       id="linearGradient7394"
       xlink:href="#linearGradient3678"
       gradientUnits="userSpaceOnUse" />
    <linearGradient
       x1="13.917011"
       y1="0.88217813"
       x2="13.917011"
       y2="15.183488"
       id="linearGradient7396"
       xlink:href="#linearGradient3678"
       gradientUnits="userSpaceOnUse" />
    <linearGradient
       xlink:href="#linearGradient3678"
       id="linearGradient2393"
       gradientUnits="userSpaceOnUse"
       gradientTransform="translate(-24.627119,-23.686441)"
       x1="9"
       y1="3"
       x2="9"
       y2="21" />
    <linearGradient
       id="linearGradient3678">
      <stop
         id="stop3680"
         offset="0"
         style="stop-color:#ffffff;stop-opacity:1;" />
      <stop
         id="stop3682"
         offset="1"
         style="stop-color:#e6e6e6;stop-opacity:1;" />
    </linearGradient>
    <linearGradient
       gradientTransform="translate(33,-5)"
       xlink:href="#linearGradient3678"
       id="linearGradient3841"
       x1="1"
       y1="20"
       x2="1"
       y2="4"
       gradientUnits="userSpaceOnUse" />
  </defs>
  <metadata
     id="metadata6500">
    <rdf:RDF>
      <cc:Work
         rdf:about="">
        <dc:format>image/svg+xml</dc:format>
        <dc:type
           rdf:resource="http://purl.org/dc/dcmitype/StillImage" />
        <dc:title></dc:title>
      </cc:Work>
    </rdf:RDF>
  </metadata>
  <g
     id="layer1">
    <path
       d="M 14.999999,7.5015102 C 14.999999,4.27684 13.795284,1.51965 12.053994,0.25202 l -1.1553,1.03977 c 1.49941,1.06176 2.541655,3.45264 2.541655,6.2097202 0,2.7570698 -1.042245,5.1479698 -2.541655,6.2097198 l 1.1553,1.03977 c 1.74129,-1.26764 2.946005,-4.02483 2.946005,-7.2494898 z"
       id="path6945-2-5"
       style="color:#bebebe;display:inline;overflow:visible;visibility:visible;opacity:0.2;fill:#000000;fill-opacity:1;fill-rule:nonzero;stroke:none;stroke-width:1.82310748;marker:none;enable-background:accumulate"
       inkscape:connector-curvature="0" />
    <path
       d="m 11.938464,7.5015202 c 0,-2.18076 -0.828765,-4.0846302 -2.079535,-5.2854902 l -1.06865,0.95312 c 0.965365,1.02666 1.588535,2.5827502 1.588535,4.3323702 0,1.7496198 -0.62317,3.3056998 -1.588535,4.3323598 l 1.06865,0.95312 c 1.25077,-1.20085 2.079535,-3.10473 2.079535,-5.2854798 z"
       id="path6943-6-8"
       style="color:#bebebe;display:inline;overflow:visible;visibility:visible;opacity:0.2;fill:#000000;fill-opacity:1;fill-rule:nonzero;stroke:none;stroke-width:1.82310748;marker:none;enable-background:accumulate"
       inkscape:connector-curvature="0" />
    <path
       d="m 8.992459,7.5012302 c 0,-1.32571 -0.439375,-2.5419702 -1.1553,-3.4947802 l -1.09753,0.98201 c 0.432325,0.7227202 0.693175,1.5881502 0.693175,2.5127702 0,0.92461 -0.26085,1.7900398 -0.693175,2.5127698 l 1.09753,0.982 c 0.715925,-0.95281 1.1553,-2.1690598 1.1553,-3.4947698 z"
       id="path6941-5-4"
       style="color:#bebebe;display:inline;overflow:visible;visibility:visible;opacity:0.2;fill:#000000;fill-opacity:1;fill-rule:nonzero;stroke:none;stroke-width:1.82310748;marker:none;enable-background:accumulate"
       inkscape:connector-curvature="0" />
    <path
       d="M -1e-6,5.5017602 V 9.50176 H 1.652074 L 4.999999,12.871 V 2.13252 L 1.652074,5.5017602 Z"
       id="path3375-3-3-6-8-2"
       style="color:#bebebe;display:inline;overflow:visible;visibility:visible;opacity:0.2;fill:#000000;fill-opacity:1;fill-rule:nonzero;stroke:none;stroke-width:1.82310748;marker:none;enable-background:accumulate"
       inkscape:connector-curvature="0" />
    <path
       d="m 14.999999,8 c 0,-3.22467 -1.204715,-5.98186 -2.946005,-7.24949 l -1.1553,1.03977 c 1.49941,1.06176 2.541655,3.45264 2.541655,6.20972 0,2.75707 -1.042245,5.14797 -2.541655,6.20972 l 1.1553,1.03977 C 13.795284,13.98185 14.999999,11.22466 14.999999,8 Z"
       id="path6945-2"
       style="color:#bebebe;display:inline;overflow:visible;visibility:visible;opacity:0.4;fill:url(#linearGradient7396);fill-opacity:1;fill-rule:nonzero;stroke:none;stroke-width:1.82310748;marker:none;enable-background:accumulate"
       inkscape:connector-curvature="0" />
    <path
       d="m 11.938464,8 c 0,-2.18076 -0.828765,-4.08463 -2.079535,-5.28549 L 8.790279,3.66763 C 9.755644,4.69429 10.378814,6.25038 10.378814,8 c 0,1.74962 -0.62317,3.3057 -1.588535,4.33236 l 1.06865,0.95312 C 11.109699,12.08463 11.938464,10.18075 11.938464,8 Z"
       id="path6943-6"
       style="color:#bebebe;display:inline;overflow:visible;visibility:visible;opacity:0.4;fill:url(#linearGradient7394);fill-opacity:1;fill-rule:nonzero;stroke:none;stroke-width:1.82310748;marker:none;enable-background:accumulate"
       inkscape:connector-curvature="0" />
    <path
       d="m 8.992459,8 c 0,-1.32571 -0.439375,-2.54197 -1.1553,-3.49478 L 6.739629,5.48723 C 7.171954,6.20995 7.432804,7.07538 7.432804,8 c 0,0.92461 -0.26085,1.79004 -0.693175,2.51277 l 1.09753,0.982 C 8.553084,10.54196 8.992459,9.32571 8.992459,8 Z"
       id="path6941-5"
       style="color:#bebebe;display:inline;overflow:visible;visibility:visible;opacity:0.4;fill:url(#linearGradient7392);fill-opacity:1;fill-rule:nonzero;stroke:none;stroke-width:1.82310748;marker:none;enable-background:accumulate"
       inkscape:connector-curvature="0" />
    <path
       d="m -1e-6,6 v 4 h 1.652075 l 3.347925,3.36924 V 2.63076 L 1.652074,6 Z"
       id="path3375-3-3-6-8"
       style="color:#bebebe;display:inline;overflow:visible;visibility:visible;opacity:0.4;fill:url(#linearGradient7390);fill-opacity:1;fill-rule:nonzero;stroke:none;stroke-width:1.82310748;marker:none;enable-background:accumulate"
       inkscape:connector-curvature="0" />
    <g
       transform="translate(-23.568689,-1.8670029)"
       id="g7293" />
    <path
       inkscape:connector-curvature="0"
       d="m 35,5 v 5 h 2 l 4,4 V 1 l -4,4 z"
       id="path2387-4"
       style="opacity:0.4;fill:url(#linearGradient3841);fill-opacity:1;fill-rule:evenodd;stroke:none" />
  </g>
</svg>
