<?xml version="1.0" encoding="UTF-8" standalone="no"?>
<svg
   xmlns:dc="http://purl.org/dc/elements/1.1/"
   xmlns:cc="http://creativecommons.org/ns#"
   xmlns:rdf="http://www.w3.org/1999/02/22-rdf-syntax-ns#"
   xmlns:svg="http://www.w3.org/2000/svg"
   xmlns="http://www.w3.org/2000/svg"
   xmlns:xlink="http://www.w3.org/1999/xlink"
   height="16"
   width="16"
   id="svg2"
   version="1.1">
  <defs
     id="defs7">
    <linearGradient
       id="linearGradient3678">
      <stop
         id="stop3680"
         offset="0"
         style="stop-color:#ffffff;stop-opacity:1;" />
      <stop
         id="stop3682"
         offset="1"
         style="stop-color:#e6e6e6;stop-opacity:1;" />
    </linearGradient>
    <linearGradient
       gradientUnits="userSpaceOnUse"
       y2="15"
       x2="4.3718801"
       y1="1"
       x1="4.3718801"
       id="linearGradient839"
       xlink:href="#linearGradient3678" />
  </defs>
  <metadata
     id="metadata12">
    <rdf:RDF>
      <cc:Work
         rdf:about="">
        <dc:format>image/svg+xml</dc:format>
        <dc:type
           rdf:resource="http://purl.org/dc/dcmitype/StillImage" />
        <dc:title />
      </cc:Work>
    </rdf:RDF>
  </metadata>
  <circle
     style="opacity:0.5;fill:#000000;fill-opacity:1;stroke:none;stroke-width:6.44160223;stroke-linecap:round;stroke-miterlimit:4;stroke-dasharray:none;stroke-dashoffset:0;stroke-opacity:0"
     id="circle853"
     cx="12.5"
     cy="4.5"
     r="2.5" />
  <g
     transform="translate(0,1)"
     id="g845"
     style="fill:#000000;fill-opacity:1;opacity:0.5">
    <path
       id="path841"
       d="M 8,1 V 3 C 4.6862919,3 2,5.1005051 2,8 H 4 C 4,6.0667369 5.790556,4.999623 8,5 V 7 L 10.240234,5.65625 A 2.5,2.5 0 0 1 9,3.5 2.5,2.5 0 0 1 9.5546875,1.9335938 Z"
       style="color:#bebebe;overflow:visible;fill:#000000;fill-opacity:1;stroke-width:0.93541437;marker:none" />
    <path
       id="path843"
       d="m 12.000781,8 c 0,1.9332633 -1.791337,3.000377 -4.000781,3 V 9 l -5,3 5,3 v -2 c 3.313708,0 6,-2.100505 6,-5 z"
       style="color:#bebebe;overflow:visible;fill:#000000;fill-opacity:1;stroke-width:0.93541437;marker:none" />
  </g>
  <g
     style="fill-opacity:1;fill:url(#linearGradient839)"
     id="g831">
    <path
       style="color:#bebebe;overflow:visible;fill:url(#linearGradient839);fill-opacity:1.0;stroke-width:0.93541437;marker:none"
       d="M 8 1 L 8 3 C 4.6862919 3 2 5.1005051 2 8 L 4 8 C 4 6.0667369 5.790556 4.999623 8 5 L 8 7 L 10.240234 5.65625 A 2.5 2.5 0 0 1 9 3.5 A 2.5 2.5 0 0 1 9.5546875 1.9335938 L 8 1 z "
       id="path816-3" />
    <path
       style="color:#bebebe;overflow:visible;fill:url(#linearGradient839);fill-opacity:1.0;stroke-width:0.93541437;marker:none"
       d="m 12.000781,8 c 0,1.9332633 -1.791337,3.000377 -4.000781,3 V 9 l -5,3 5,3 v -2 c 3.313708,0 6,-2.100505 6,-5 z"
       id="path816" />
  </g>
  <circle
     r="2.5"
     cy="3.5"
     cx="12.5"
     id="path879-5"
     style="opacity:1;fill:#f57900;fill-opacity:1;stroke:none;stroke-width:6.44160223;stroke-linecap:round;stroke-miterlimit:4;stroke-dasharray:none;stroke-dashoffset:0;stroke-opacity:0" />
</svg>
