<?xml version="1.0" encoding="UTF-8" standalone="no"?>
<!-- Created with Inkscape (http://www.inkscape.org/) -->

<svg
   xmlns:dc="http://purl.org/dc/elements/1.1/"
   xmlns:cc="http://creativecommons.org/ns#"
   xmlns:rdf="http://www.w3.org/1999/02/22-rdf-syntax-ns#"
   xmlns:svg="http://www.w3.org/2000/svg"
   xmlns="http://www.w3.org/2000/svg"
   xmlns:xlink="http://www.w3.org/1999/xlink"
   xmlns:sodipodi="http://sodipodi.sourceforge.net/DTD/sodipodi-0.dtd"
   xmlns:inkscape="http://www.inkscape.org/namespaces/inkscape"
   version="1.0"
   width="16"
   height="16"
   id="svg3201"
   inkscape:version="0.48+devel r"
   sodipodi:docname="tomboy-panel.svg">
  <metadata
     id="metadata19">
    <rdf:RDF>
      <cc:Work
         rdf:about="">
        <dc:format>image/svg+xml</dc:format>
        <dc:type
           rdf:resource="http://purl.org/dc/dcmitype/StillImage" />
        <dc:title />
      </cc:Work>
    </rdf:RDF>
  </metadata>
  <sodipodi:namedview
     pagecolor="#ffffff"
     bordercolor="#666666"
     borderopacity="1"
     objecttolerance="10"
     gridtolerance="10"
     guidetolerance="10"
     inkscape:pageopacity="0"
     inkscape:pageshadow="2"
     inkscape:window-width="1535"
     inkscape:window-height="876"
     id="namedview17"
     showgrid="false"
     inkscape:zoom="37.926637"
     inkscape:cx="8.3776709"
     inkscape:cy="7.7366717"
     inkscape:window-x="65"
     inkscape:window-y="24"
     inkscape:window-maximized="1"
     inkscape:current-layer="svg3201"
     showguides="true">
    <inkscape:grid
       type="xygrid"
       id="grid4112" />
  </sodipodi:namedview>
  <defs
     id="defs3203">
    <linearGradient
       id="linearGradient3678">
      <stop
         style="stop-color:#ffffff;stop-opacity:1;"
         offset="0"
         id="stop3680" />
      <stop
         style="stop-color:#e6e6e6;stop-opacity:1;"
         offset="1"
         id="stop3682" />
    </linearGradient>
    <linearGradient
       inkscape:collect="always"
       xlink:href="#linearGradient3678"
       id="linearGradient2857"
       gradientUnits="userSpaceOnUse"
       gradientTransform="matrix(0.87523954,0,0,0.85822383,-2.4875775,-2.0355737)"
       x1="11.888327"
       y1="2.3846951"
       x2="11.888327"
       y2="11.988697" />
    <linearGradient
       inkscape:collect="always"
       xlink:href="#linearGradient3678"
       id="linearGradient2860"
       gradientUnits="userSpaceOnUse"
       gradientTransform="matrix(0.87523954,0,0,0.85822383,-2.487958,-2.0355737)"
       x1="11.888327"
       y1="2.3846951"
       x2="11.888327"
       y2="20.015596" />
    <linearGradient
       inkscape:collect="always"
       xlink:href="#linearGradient3678"
       id="linearGradient2863"
       gradientUnits="userSpaceOnUse"
       gradientTransform="matrix(0.87523954,0,0,0.85822383,-2.4875775,-2.0355737)"
       x1="11.888327"
       y1="16.498461"
       x2="11.888327"
       y2="20.015596" />
  </defs>
  <path
     style="opacity:0.5;fill:#000000;fill-opacity:1;fill-rule:nonzero;stroke:none;stroke-width:3;marker:none;visibility:visible;display:inline;overflow:visible;enable-background:accumulate"
     id="path3197"
     d="m 2.0409264,4.0193413 c -0.00628,0.035045 -0.024379,0.071451 -0.02735,0.1072778 -0.013258,3.0912786 -1.05e-5,4.4694834 0,7.5610879 0.00382,-3.1316456 0.020363,-4.536797 0.02735,-7.6683657 z M 14.016863,4.8110685 c -2.9e-5,3.0959492 -0.01411,4.1833084 -0.02736,7.2789325 0.09589,0.857869 -0.139109,1.923404 -1.58637,1.923404 -3.7379813,-0.0043 -5.4757684,-0.01138 -9.213464,-0.02681 -1.0824737,-0.159984 -1.2267631,-1.023883 -1.1761032,-2.003866 -7.67e-5,0.4825 5.904e-4,1.966139 0,2.448623 -0.1027474,0.722103 0.3954867,1.503216 1.1761032,1.555533 3.7448138,0.01548 5.4957156,-0.0044 9.240812,0 0.736414,0.100754 1.53302,-0.387795 1.586374,-1.15324 0.01576,-3.672004 -0.0044,-6.3502842 8e-6,-10.0225765 z M 3.3264342,2.973381 C 2.6716192,2.962298 2.0940079,3.3916459 2.0409264,3.9120631 c -0.015718,2.9804291 -0.022865,4.8322383 -0.02735,7.8128939 -0.1025521,0.586096 0.3969701,1.218055 1.1761032,1.260516 3.7376957,0.01253 5.4754826,0.02326 9.2134614,0.02682 0.735012,0.08179 1.533121,-0.317405 1.586367,-0.938684 0.01358,-2.578877 0.02694,-3.7715357 0.02736,-6.3506775 L 10.613672,9.0406309 C 10.284525,9.3615085 9.8814757,9.477974 9.4649128,9.4965624 9.2630376,9.6585667 9.0630904,9.8156353 8.8084831,9.8988548 8.4632066,10.01171 7.9288025,10.055418 7.4956238,9.6306598 7.0624442,9.2059016 7.1070198,8.6818883 7.2221117,8.3433241 7.3069831,8.0936667 7.4671646,7.8976071 7.63238,7.6996562 7.6513375,7.2911903 7.7685474,6.8944581 8.0973511,6.5732371 L 11.801,2.955 C 8.4166873,2.94826 6.7108583,2.976551 3.3264342,2.973381 Z M 8.7471909,7.189713 C 8.5204218,7.4116845 8.4615688,7.7222454 8.5344487,8.005176 L 8.4377454,8.099999 C 8.0948824,8.4361963 7.95687,8.8421824 8.1283027,9.010282 8.299735,9.1783813 8.7137707,9.043049 9.056634,8.7068543 l 0.096702,-0.094821 c 0.28854,0.071464 0.604863,0.013362 0.8316289,-0.2086068 L 15.673884,2.8348559 c 0.34316,-0.335901 0.342869,-0.8775136 0,-1.2137118 -0.342863,-0.336198 -0.894611,-0.335897 -1.237768,0 z"
     inkscape:connector-curvature="0"
     sodipodi:nodetypes="cccccccccccccccccccccscssscsccscssscsssss" />
  <path
     style="fill:url(#linearGradient2863);fill-opacity:1;fill-rule:nonzero;stroke:none;stroke-width:3;marker:none;visibility:visible;display:inline;overflow:visible;enable-background:accumulate"
     id="path3221"
     d="m 13.989505,11.832608 c -0.05326,0.76465 -0.851355,1.280707 -1.586366,1.180057 -3.7379791,-0.0044 -5.4763917,-0.0114 -9.2140874,-0.02682 -0.6817415,-0.04574 -1.1385579,-0.627756 -1.1761032,-1.260511 -7.68e-5,0.4825 5.905e-4,1.365548 0,1.848039 C 1.9102009,14.29547 2.408435,14.947686 3.1890516,15 c 3.7448137,0.01548 5.4963413,-0.0044 9.2414364,0 0.736414,0.100748 1.53302,-0.25889 1.586374,-1.024334 z"
     inkscape:connector-curvature="0"
     sodipodi:nodetypes="ccccccccc" />
  <path
     style="fill:url(#linearGradient2860);fill-opacity:1;fill-rule:nonzero;stroke:none;stroke-width:3;marker:none;visibility:visible;display:inline;overflow:visible;enable-background:accumulate"
     id="path3219"
     d="m 3.3258112,2 c -0.840244,-0.014222 -1.285,0.562661 -1.285,1.319 -0.01572,2.980429 -0.02313,4.3003441 -0.02762,7.281 0,0.962712 0.698182,1.327521 1.3756176,1.327521 3.7376957,0.01255 5.4757209,0.02326 9.2136992,0.02681 0.773271,0 1.38686,-0.370331 1.38686,-1.354331 0.01358,-2.5788806 0.02694,-3.1558589 0.02736,-5.735 L 10.613282,8.1826515 C 10.284125,8.5035106 9.8810957,8.6199974 9.4645328,8.6385857 9.2626576,8.8005899 9.0627104,8.9576588 8.8081031,9.0408781 8.4628266,9.1537328 7.9284225,9.1974413 7.4952438,8.7726832 7.0620642,8.3479251 7.1066398,7.8239115 7.2217317,7.4853475 7.3066031,7.2356898 7.4667846,7.0396302 7.632,6.8416793 7.6509575,6.4332142 7.7681382,6.036452 8.0969711,5.7152604 L 11.90062,2 C 8.5163073,1.99326 6.7102353,2.00316 3.3258112,2 Z"
     inkscape:connector-curvature="0"
     sodipodi:nodetypes="cccccccscssscscc" />
  <path
     style="fill:url(#linearGradient2857);fill-opacity:1;fill-rule:nonzero;stroke:none;stroke-width:3;marker:none;visibility:visible;display:inline;overflow:visible;enable-background:accumulate"
     id="rect3226"
     d="M 8.7471909,6.3317365 C 8.5204225,6.5537082 8.4615688,6.8642686 8.5344487,7.1471992 l -0.096704,0.094822 C 8.0948827,7.5782192 7.9568703,7.9842055 8.128303,8.1523048 8.2997353,8.3204044 8.713771,8.1850718 9.0566343,7.8488773 l 0.096701,-0.094821 c 0.2885399,0.071468 0.6048638,0.013362 0.8316287,-0.2086065 l 5.68892,-5.5685939 c 0.34316,-0.3359019 0.34287,-0.8775136 0,-1.21371182 -0.342863,-0.33619812 -0.894611,-0.33589827 -1.237768,0 z"
     inkscape:connector-curvature="0"
     sodipodi:nodetypes="scssscsssss" />
</svg>
