<?xml version="1.0" encoding="UTF-8" standalone="no"?>
<svg
   xmlns:dc="http://purl.org/dc/elements/1.1/"
   xmlns:cc="http://creativecommons.org/ns#"
   xmlns:rdf="http://www.w3.org/1999/02/22-rdf-syntax-ns#"
   xmlns:svg="http://www.w3.org/2000/svg"
   xmlns="http://www.w3.org/2000/svg"
   xmlns:xlink="http://www.w3.org/1999/xlink"
   id="svg3480"
   height="32"
   width="32"
   version="1.0">
  <metadata
     id="metadata41287">
    <rdf:RDF>
      <cc:Work
         rdf:about="">
        <dc:format>image/svg+xml</dc:format>
        <dc:type
           rdf:resource="http://purl.org/dc/dcmitype/StillImage" />
        <dc:title />
      </cc:Work>
    </rdf:RDF>
  </metadata>
  <defs
     id="defs3482">
    <linearGradient
       id="linearGradient5048">
      <stop
         offset="0"
         style="stop-color:#000000;stop-opacity:0"
         id="stop5050" />
      <stop
         offset="0.5"
         style="stop-color:#000000;stop-opacity:1"
         id="stop5056" />
      <stop
         offset="1"
         style="stop-color:#000000;stop-opacity:0"
         id="stop5052" />
    </linearGradient>
    <linearGradient
       id="linearGradient5060">
      <stop
         offset="0"
         style="stop-color:#000000;stop-opacity:1"
         id="stop5062" />
      <stop
         offset="1"
         style="stop-color:#000000;stop-opacity:0"
         id="stop5064" />
    </linearGradient>
    <linearGradient
       id="linearGradient3104">
      <stop
         offset="0"
         style="stop-color:#aaaaaa;stop-opacity:1"
         id="stop3106" />
      <stop
         offset="1"
         style="stop-color:#c8c8c8;stop-opacity:1"
         id="stop3108" />
    </linearGradient>
    <linearGradient
       id="linearGradient3600">
      <stop
         offset="0"
         style="stop-color:#f4f4f4;stop-opacity:1"
         id="stop3602" />
      <stop
         offset="1"
         style="stop-color:#dbdbdb;stop-opacity:1"
         id="stop3604" />
    </linearGradient>
    <linearGradient
       id="linearGradient3211">
      <stop
         offset="0"
         style="stop-color:#ffffff;stop-opacity:1"
         id="stop3213" />
      <stop
         offset="1"
         style="stop-color:#ffffff;stop-opacity:0"
         id="stop3215" />
    </linearGradient>
    <linearGradient
       id="linearGradient8589">
      <stop
         offset="0"
         style="stop-color:#fefefe;stop-opacity:1"
         id="stop8591" />
      <stop
         offset="1"
         style="stop-color:#cbcbcb;stop-opacity:1"
         id="stop8593" />
    </linearGradient>
    <linearGradient
       y2="5.4565363"
       x2="36.358372"
       y1="8.0590115"
       x1="32.892288"
       gradientTransform="matrix(0.63712883,0,0,0.73664444,0.82967194,-0.29774475)"
       gradientUnits="userSpaceOnUse"
       id="linearGradient3028"
       xlink:href="#linearGradient8589" />
    <linearGradient
       y2="46.01725"
       x2="24"
       y1="1.9999999"
       x1="24"
       gradientTransform="matrix(0.63636213,0,0,0.62790562,0.72730847,-0.06973931)"
       gradientUnits="userSpaceOnUse"
       id="linearGradient3044"
       xlink:href="#linearGradient3211" />
    <linearGradient
       y2="47.013336"
       x2="25.132275"
       y1="0.98520643"
       x1="25.132275"
       gradientTransform="matrix(0.65714358,0,0,0.630124,0.2285538,-1.0896479)"
       gradientUnits="userSpaceOnUse"
       id="linearGradient3047"
       xlink:href="#linearGradient3600" />
    <linearGradient
       y2="2.9062471"
       x2="-51.786404"
       y1="50.786446"
       x1="-51.786404"
       gradientTransform="matrix(0.53064116,0,0,0.58970224,39.269603,-1.7919081)"
       gradientUnits="userSpaceOnUse"
       id="linearGradient3049"
       xlink:href="#linearGradient3104" />
    <radialGradient
       r="117.14286"
       fy="486.64789"
       fx="605.71429"
       cy="486.64789"
       cx="605.71429"
       gradientTransform="matrix(0.01606479,0,0,0.01098039,17.651725,24.307425)"
       gradientUnits="userSpaceOnUse"
       id="radialGradient3052"
       xlink:href="#linearGradient5060" />
    <radialGradient
       r="117.14286"
       fy="486.64789"
       fx="605.71429"
       cy="486.64789"
       cx="605.71429"
       gradientTransform="matrix(-0.01606479,0,0,0.01098039,14.348275,24.307425)"
       gradientUnits="userSpaceOnUse"
       id="radialGradient3055"
       xlink:href="#linearGradient5060" />
    <linearGradient
       y2="609.50507"
       x2="302.85715"
       y1="366.64789"
       x1="302.85715"
       gradientTransform="matrix(0.0469428,0,0,0.01098039,-0.9664702,24.307402)"
       gradientUnits="userSpaceOnUse"
       id="linearGradient3058"
       xlink:href="#linearGradient5048" />
  </defs>
  <rect
     width="22.666668"
     height="2.6666644"
     x="4.666667"
     y="28.33333"
     id="rect2879"
     style="opacity:0.15;fill:url(#linearGradient3058);fill-opacity:1;fill-rule:nonzero;stroke:none;stroke-width:1;marker:none;visibility:visible;display:inline;overflow:visible" />
  <path
     d="m 4.6666661,28.333449 c 0,0 0,2.666519 0,2.666519 -0.8272967,0.005 -2.0000001,-0.597432 -2.0000001,-1.333432 0,-0.735999 0.9232,-1.333087 2.0000001,-1.333087 z"
     id="path2881"
     style="opacity:0.15;fill:url(#radialGradient3055);fill-opacity:1;fill-rule:nonzero;stroke:none;stroke-width:1;marker:none;visibility:visible;display:inline;overflow:visible" />
  <path
     d="m 27.333334,28.333449 c 0,0 0,2.666519 0,2.666519 0.827296,0.0051 2,-0.597432 2,-1.333432 0,-0.735999 -0.923201,-1.333087 -2,-1.333087 z"
     id="path2883"
     style="opacity:0.15;fill:url(#radialGradient3052);fill-opacity:1;fill-rule:nonzero;stroke:none;stroke-width:1;marker:none;visibility:visible;display:inline;overflow:visible" />
  <path
     d="m 4.4999614,0.49996081 c 5.2704842,0 10.2883686,0 15.5588566,0 0.924557,0.31280018 6.144139,4.12349339 7.441168,6.59095499 0,7.5520642 5.3e-5,14.8570572 5.3e-5,22.4091232 -7.666693,0 -15.333384,0 -23.0000776,0 0,-9.666694 0,-19.333388 0,-29.00007819 z"
     id="path4160"
     style="fill:url(#linearGradient3047);fill-opacity:1;stroke:url(#linearGradient3049);stroke-width:0.99992162;stroke-linecap:butt;stroke-linejoin:round;stroke-miterlimit:4;stroke-opacity:1;stroke-dasharray:none;stroke-dashoffset:0;display:inline" />
  <path
     d="m 26.5,7.138999 c 0,7.031211 0,14.329787 0,21.361001 -7,0 -13.999999,0 -21.0000001,0 0,-9.000004 0,-18 0,-26.9999991 4.8121651,0 9.7390981,0 14.5512641,0"
     id="path2435"
     style="opacity:0.6;fill:none;stroke:url(#linearGradient3044);stroke-width:0.99999988;stroke-linecap:butt;stroke-linejoin:miter;stroke-miterlimit:4;stroke-opacity:1;stroke-dasharray:none;stroke-dashoffset:0;display:inline" />
  <rect
     width="5"
     height="4"
     x="7"
     y="7"
     id="rect2887"
     style="opacity:0.8;fill:#babdb6;fill-opacity:1;stroke:none;display:inline" />
  <path
     d="m 14.000001,7.447107 10,0.052893"
     id="path3446"
     style="fill:none;stroke:#babdb6;stroke-width:1;stroke-linecap:butt;stroke-linejoin:miter;stroke-miterlimit:4;stroke-opacity:1;stroke-dasharray:none" />
  <path
     d="m 14.000001,10.447107 10,0.05289"
     id="path3452"
     style="fill:none;stroke:#babdb6;stroke-width:1;stroke-linecap:butt;stroke-linejoin:miter;stroke-miterlimit:4;stroke-opacity:1;stroke-dasharray:none" />
  <path
     d="M 7,13.44711 24,13.5"
     id="path3456"
     style="fill:none;stroke:#babdb6;stroke-width:1;stroke-linecap:butt;stroke-linejoin:miter;stroke-miterlimit:4;stroke-opacity:1;stroke-dasharray:none" />
  <path
     d="M 6.9999998,16.44711 23.999999,16.5"
     id="path3460"
     style="fill:none;stroke:#babdb6;stroke-width:1;stroke-linecap:butt;stroke-linejoin:miter;stroke-miterlimit:4;stroke-opacity:1;stroke-dasharray:none" />
  <path
     d="M 7,19.44977 24,19.5"
     id="path3462"
     style="fill:none;stroke:#babdb6;stroke-width:1;stroke-linecap:butt;stroke-linejoin:miter;stroke-miterlimit:4;stroke-opacity:1;stroke-dasharray:none" />
  <path
     d="M 6.9999998,22.452172 24,22.5"
     id="path3466"
     style="fill:none;stroke:#babdb6;stroke-width:1;stroke-linecap:butt;stroke-linejoin:miter;stroke-miterlimit:4;stroke-opacity:1;stroke-dasharray:none" />
  <path
     d="M 7,25.44976 16.333335,25.5"
     id="path3468"
     style="fill:none;stroke:#babdb6;stroke-width:1;stroke-linecap:butt;stroke-linejoin:miter;stroke-miterlimit:4;stroke-opacity:1;stroke-dasharray:none" />
  <path
     d="m 6.0000002,6 0,21 12.2991068,0 0,-1.923976 6.700893,0 L 25,6 6.0000002,6 z"
     id="rect1990"
     style="opacity:0.3;fill:#729fcf;fill-opacity:1;stroke:none;display:inline" />
  <g
     transform="matrix(1.3333333,0,0,1.25,-5.0000008,-7.2916663)"
     id="g3832">
    <path
       style="fill:#ffffff;fill-opacity:1;stroke:none;display:inline"
       id="rect3782"
       d="m 16.875001,23.833333 0,1.599999 0.75,0 0,0.800001 -0.75,0 0,1.6 3,0 0,-1.6 -0.75,0 0,-0.8 0.75,0 0,-1.599999 z" />
    <path
       style="fill:#000000;fill-opacity:1;stroke:none;display:inline"
       id="rect3789"
       d="m 17.375001,24.333333 0,0.584416 0.666666,0 0,1.831168 -0.666666,0 0,0.584416 2,0 0,-0.584416 -0.666667,0 0,-1.831168 0.666667,0 0,-0.584416 -2,0 z" />
  </g>
  <path
     d="m 19.100632,1.1370931 c 1.541737,0.4383561 0.452078,6.1525055 0.452078,6.1525055 0,0 6.020518,-0.570315 7.476948,1.5933282 1.985537,2.9496752 -0.09097,-0.8468962 -0.231263,-1.0955963 -1.007904,-1.7867274 -5.15512,-6.0627817 -6.727212,-6.588277 -0.117643,-0.039323 -0.378502,-0.06196 -0.970551,-0.06196 z"
     id="path3370"
     style="fill:#000000;fill-opacity:0.1372549;fill-rule:evenodd;stroke:none;display:inline" />
  <path
     d="m 19,1.1370931 c 2.034888,0 1.333333,5.3333336 1.333333,5.3333336 0,0 6.656099,-0.6043467 6.656099,2.6666668 0,-0.7969893 0.07433,-1.9712452 -0.08543,-2.2079103 C 25.785196,5.2718421 21.912319,1.7800002 20.50658,1.1990535 20.391943,1.1516776 19.592049,1.1370931 19,1.1370931 z"
     id="path4474"
     style="fill:url(#linearGradient3028);fill-opacity:1;fill-rule:evenodd;stroke:none;display:inline" />
</svg>
