<?xml version="1.0" encoding="UTF-8" standalone="no"?>
<svg
   version="1.2"
   width="32"
   height="32"
   id="svg2"
   sodipodi:docname="system-log-out.svg"
   inkscape:version="1.2.2 (b0a8486541, 2022-12-01)"
   xmlns:inkscape="http://www.inkscape.org/namespaces/inkscape"
   xmlns:sodipodi="http://sodipodi.sourceforge.net/DTD/sodipodi-0.dtd"
   xmlns:xlink="http://www.w3.org/1999/xlink"
   xmlns="http://www.w3.org/2000/svg"
   xmlns:svg="http://www.w3.org/2000/svg"
   xmlns:rdf="http://www.w3.org/1999/02/22-rdf-syntax-ns#"
   xmlns:cc="http://creativecommons.org/ns#"
   xmlns:dc="http://purl.org/dc/elements/1.1/">
  <sodipodi:namedview
     pagecolor="#ffffff"
     bordercolor="#666666"
     borderopacity="1"
     objecttolerance="10"
     gridtolerance="10"
     guidetolerance="10"
     inkscape:pageopacity="0"
     inkscape:pageshadow="2"
     inkscape:window-width="1273"
     inkscape:window-height="871"
     id="namedview27"
     showgrid="false"
     inkscape:zoom="23.363986"
     inkscape:cx="9.1807965"
     inkscape:cy="13.610691"
     inkscape:window-x="377"
     inkscape:window-y="101"
     inkscape:window-maximized="0"
     inkscape:current-layer="svg2"
     inkscape:document-rotation="0"
     inkscape:pagecheckerboard="0"
     inkscape:showpageshadow="2"
     inkscape:deskcolor="#d1d1d1" />
  <defs
     id="defs4">
    <linearGradient
       id="linearGradient4011">
      <stop
         id="stop4013"
         style="stop-color:#ffffff;stop-opacity:1"
         offset="0" />
      <stop
         id="stop4015-3"
         style="stop-color:#ffffff;stop-opacity:0.23529412"
         offset="0.507761" />
      <stop
         id="stop4017-2"
         style="stop-color:#ffffff;stop-opacity:0.15686275"
         offset="0.83456558" />
      <stop
         id="stop4019"
         style="stop-color:#ffffff;stop-opacity:0.39215687"
         offset="1" />
    </linearGradient>
    <linearGradient
       gradientTransform="matrix(0,0.70731705,-0.70731705,0,32.975609,-0.97560825)"
       gradientUnits="userSpaceOnUse"
       y2="23.999998"
       x2="43.523811"
       y1="23.999998"
       x1="4.6204333"
       id="linearGradient887"
       xlink:href="#linearGradient885" />
    <linearGradient
       id="linearGradient885">
      <stop
         id="stop881"
         offset="0"
         style="stop-color:#ffa154;stop-opacity:1" />
      <stop
         id="stop883"
         offset="1"
         style="stop-color:#f37329;stop-opacity:1" />
    </linearGradient>
    <linearGradient
       gradientTransform="matrix(0.72972976,0,0,0.72972962,-36.34608,-2.5039287)"
       gradientUnits="userSpaceOnUse"
       xlink:href="#linearGradient4011"
       id="linearGradient3019"
       y2="44.340794"
       x2="71.204407"
       y1="6.2375584"
       x1="71.204407" />
    <radialGradient
       gradientTransform="matrix(0.17524541,0,0,0.05574929,-1.3768111,18.121125)"
       gradientUnits="userSpaceOnUse"
       xlink:href="#linearGradient3820-7-2-2"
       id="radialGradient4277"
       fy="186.17059"
       fx="99.157013"
       r="62.769119"
       cy="186.17059"
       cx="99.157013" />
    <linearGradient
       id="linearGradient3820-7-2-2">
      <stop
         offset="0"
         style="stop-color:#3d3d3d;stop-opacity:1"
         id="stop3822-2-6-36" />
      <stop
         offset="0.5"
         style="stop-color:#686868;stop-opacity:0.49803922"
         id="stop3864-8-7-6" />
      <stop
         offset="1"
         style="stop-color:#686868;stop-opacity:0"
         id="stop3824-1-2-4" />
    </linearGradient>
  </defs>
  <metadata
     id="metadata7">
    <rdf:RDF>
      <cc:Work
         rdf:about="">
        <dc:format>image/svg+xml</dc:format>
        <dc:type
           rdf:resource="http://purl.org/dc/dcmitype/StillImage" />
      </cc:Work>
    </rdf:RDF>
  </metadata>
  <path
     d="M 27,28.5 A 11,3.4993327 0 1 1 5.0000004,28.5 11,3.4993327 0 1 1 27,28.5 Z"
     id="path3818-0-2"
     style="fill:url(#radialGradient4277);fill-opacity:1;stroke:none;stroke-width:1" />
  <path
     style="color:#000000;display:inline;overflow:visible;visibility:visible;fill:url(#linearGradient887);fill-opacity:1;fill-rule:nonzero;stroke:none;stroke-width:0.999998;marker:none;enable-background:accumulate"
     id="path2555"
     d="M 30.5,16.000002 C 30.5,7.9994035 24.000602,1.5000008 16,1.5000008 c -8.0005982,0 -14.5000025,6.4994027 -14.4999996,14.5000012 0,8.000596 6.4994014,14.500005 14.4999996,14.499997 8.000602,0 14.5,-6.499401 14.5,-14.499997 z" />
  <path
     style="color:#000000;display:inline;overflow:visible;visibility:visible;opacity:0.5;fill:none;stroke:url(#linearGradient3019);stroke-width:0.999998;stroke-linecap:round;stroke-linejoin:round;stroke-miterlimit:4;stroke-dasharray:none;stroke-dashoffset:0;stroke-opacity:1;marker:none;enable-background:accumulate"
     id="path8655"
     d="m 29.500001,15.999521 c 0,7.456084 -6.044602,13.500477 -13.499831,13.500477 -7.4559094,0 -13.5001709,-6.044462 -13.5001709,-13.500477 0,-7.4557386 6.0442615,-13.4995188 13.5001709,-13.4995188 7.455229,0 13.499831,6.0437802 13.499831,13.4995188 z" />
  <path
     style="color:#000000;display:inline;overflow:visible;visibility:visible;opacity:0.5;fill:none;stroke:#a62100;stroke-width:1;stroke-linecap:round;stroke-linejoin:round;stroke-miterlimit:4;stroke-dasharray:none;stroke-dashoffset:0;stroke-opacity:1;marker:none;enable-background:accumulate"
     id="path2555-6"
     d="m 16.000002,1.4999993 c -8.000599,0 -14.5000018,6.4993997 -14.5000018,14.4999967 0,8.000604 6.4994028,14.500005 14.5000018,14.500005 C 24.0006,30.500001 30.500007,24.0006 30.5,15.999996 30.5,7.999399 24.0006,1.4999993 16.000002,1.4999993 Z" />
  <path
     id="path114055"
     style="font-variation-settings:normal;fill:#7a0000;fill-opacity:0.5;stroke:none;stroke-width:1;stroke-linecap:butt;stroke-linejoin:miter;stroke-miterlimit:4;stroke-dasharray:none;stroke-dashoffset:0;stroke-opacity:1;marker:none;stop-color:#000000"
     d="m 14.962259,23.75 c 0.574957,0 1.037829,-0.451772 1.037829,-1.012942 V 19.000472 H 22.96217 C 23.537129,19.000472 24,18.548699 24,17.987528 V 16.012471 C 24,15.4513 23.537129,14.998975 22.96217,14.999529 H 16.000088 V 11.26294 c 0,-0.561168 -0.462872,-1.01294 -1.037829,-1.01294 -0.30988,0 -0.5865,0.131436 -0.776347,0.340284 L 8.2837828,16.292393 C 8.108303,16.473805 8,16.717635 8,16.986813 c 0,0.26918 0.1082929,0.513008 0.2837828,0.69442 l 5.9021292,5.728482 C 14.375759,23.618574 14.652379,23.75 14.962259,23.75 Z"
     sodipodi:nodetypes="sscsssccssccsccs" />
  <path
     id="path873-5"
     style="font-variation-settings:normal;fill:#ffffff;fill-opacity:1;stroke:none;stroke-width:1;stroke-linecap:butt;stroke-linejoin:miter;stroke-miterlimit:4;stroke-dasharray:none;stroke-dashoffset:0;stroke-opacity:1;marker:none;stop-color:#000000"
     d="m 14.962259,22.75 c 0.574957,0 1.037829,-0.451772 1.037829,-1.012942 V 18.000472 H 22.96217 C 23.537129,18.000472 24,17.548699 24,16.987528 V 15.012471 C 24,14.4513 23.537129,13.998975 22.96217,13.999529 H 16.000088 V 10.26294 c 0,-0.5611677 -0.462872,-1.01294 -1.037829,-1.01294 -0.30988,0 -0.5865,0.1314358 -0.776347,0.3402838 L 8.2837828,15.292393 C 8.108303,15.473805 8,15.717635 8,15.986813 c 0,0.26918 0.1082929,0.513008 0.2837828,0.69442 l 5.9021292,5.728482 C 14.375759,22.618574 14.652379,22.75 14.962259,22.75 Z"
     sodipodi:nodetypes="sscsssccssccsccs" />
</svg>
