<?xml version="1.0" encoding="UTF-8" standalone="no"?>
<svg
   version="1.1"
   width="32"
   height="32"
   id="svg4248"
   sodipodi:docname="system-suspend.svg"
   inkscape:version="1.1.1 (3bf5ae0d25, 2021-09-20)"
   xmlns:inkscape="http://www.inkscape.org/namespaces/inkscape"
   xmlns:sodipodi="http://sodipodi.sourceforge.net/DTD/sodipodi-0.dtd"
   xmlns:xlink="http://www.w3.org/1999/xlink"
   xmlns="http://www.w3.org/2000/svg"
   xmlns:svg="http://www.w3.org/2000/svg"
   xmlns:rdf="http://www.w3.org/1999/02/22-rdf-syntax-ns#"
   xmlns:cc="http://creativecommons.org/ns#"
   xmlns:dc="http://purl.org/dc/elements/1.1/">
  <sodipodi:namedview
     pagecolor="#ffffff"
     bordercolor="#666666"
     borderopacity="1"
     objecttolerance="10"
     gridtolerance="10"
     guidetolerance="10"
     inkscape:pageopacity="0"
     inkscape:pageshadow="2"
     inkscape:window-width="1317"
     inkscape:window-height="890"
     id="namedview29"
     showgrid="false"
     inkscape:zoom="12.390625"
     inkscape:cx="5.5283732"
     inkscape:cy="33.896595"
     inkscape:window-x="164"
     inkscape:window-y="522"
     inkscape:window-maximized="0"
     inkscape:current-layer="svg4248"
     inkscape:document-rotation="0"
     inkscape:pagecheckerboard="0" />
  <defs
     id="defs4250">
    <linearGradient
       id="linearGradient4011-4">
      <stop
         id="stop4013-8"
         style="stop-color:#ffffff;stop-opacity:1"
         offset="0" />
      <stop
         id="stop4015-5"
         style="stop-color:#ffffff;stop-opacity:0.23529412"
         offset="0.507761" />
      <stop
         id="stop4017-6"
         style="stop-color:#ffffff;stop-opacity:0.15686275"
         offset="0.83456558" />
      <stop
         id="stop4019-1"
         style="stop-color:#ffffff;stop-opacity:0.39215687"
         offset="1" />
    </linearGradient>
    <linearGradient
       id="linearGradient3820-7-2-2">
      <stop
         id="stop3822-2-6-36"
         style="stop-color:#3d3d3d;stop-opacity:1"
         offset="0" />
      <stop
         id="stop3864-8-7-6"
         style="stop-color:#686868;stop-opacity:0.49803922"
         offset="0.5" />
      <stop
         id="stop3824-1-2-4"
         style="stop-color:#686868;stop-opacity:0"
         offset="1" />
    </linearGradient>
    <radialGradient
       cx="99.157013"
       cy="186.17059"
       r="62.769119"
       fx="99.157013"
       fy="186.17059"
       id="radialGradient3315"
       xlink:href="#linearGradient3820-7-2-2"
       gradientUnits="userSpaceOnUse"
       gradientTransform="matrix(0.17524541,0,0,0.05575992,-1.3768101,18.118568)" />
    <linearGradient
       y2="44.340794"
       x2="71.204407"
       y1="6.2375584"
       x1="71.204407"
       gradientTransform="matrix(0.7297297,0,0,0.72972954,-36.346081,-2.5039311)"
       gradientUnits="userSpaceOnUse"
       id="linearGradient3540"
       xlink:href="#linearGradient4011-4" />
    <linearGradient
       inkscape:collect="always"
       id="linearGradient902">
      <stop
         style="stop-color:#2cc5d8;stop-opacity:1"
         offset="0"
         id="stop898" />
      <stop
         style="stop-color:#2da4c3;stop-opacity:1"
         offset="1"
         id="stop900" />
    </linearGradient>
    <linearGradient
       inkscape:collect="always"
       xlink:href="#linearGradient902"
       id="linearGradient2451"
       x1="19.134897"
       y1="2.5925367"
       x2="19.134897"
       y2="29.509588"
       gradientUnits="userSpaceOnUse" />
  </defs>
  <metadata
     id="metadata4253">
    <rdf:RDF>
      <cc:Work
         rdf:about="">
        <dc:format>image/svg+xml</dc:format>
        <dc:type
           rdf:resource="http://purl.org/dc/dcmitype/StillImage" />
      </cc:Work>
    </rdf:RDF>
  </metadata>
  <path
     d="m 27.000001,28.499422 a 11,3.4999999 0 1 1 -21.9999997,0 11,3.4999999 0 1 1 21.9999997,0 z"
     id="path3818-0-2"
     style="fill:url(#radialGradient3315);fill-opacity:1;stroke:none" />
  <path
     style="color:#000000;display:inline;overflow:visible;visibility:visible;fill:url(#linearGradient2451);fill-opacity:1;fill-rule:nonzero;stroke:none;stroke-width:1;marker:none;enable-background:accumulate"
     id="path2555-3"
     d="M 16.000002,1.5 C 7.999402,1.5 1.5,7.999399 1.5,15.999997 1.5,24.0006 7.999402,30.500001 16.000002,30.5 24.0006,30.5 30.500008,24.0006 30.5,15.999997 30.5,7.999399 24.0006,1.5 16.000002,1.5 Z" />
  <path
     style="color:#000000;display:inline;overflow:visible;visibility:visible;opacity:0.3;fill:none;stroke:url(#linearGradient3540);stroke-width:0.999999;stroke-linecap:round;stroke-linejoin:round;stroke-miterlimit:4;stroke-dasharray:none;stroke-dashoffset:0;stroke-opacity:1;marker:none;enable-background:accumulate"
     id="path8655-4"
     d="m 29.500001,15.999517 c 0,7.456083 -6.044601,13.500475 -13.499829,13.500475 -7.4559114,0 -13.500173,-6.04446 -13.500173,-13.500475 0,-7.4557374 6.0442616,-13.4995175 13.500173,-13.4995175 7.455228,0 13.499829,6.0437801 13.499829,13.4995175 z" />
  <path
     style="color:#000000;clip-rule:nonzero;display:inline;overflow:visible;visibility:visible;opacity:0.5;isolation:auto;mix-blend-mode:normal;color-interpolation:sRGB;color-interpolation-filters:linearRGB;solid-color:#000000;solid-opacity:1;fill:none;fill-opacity:1;fill-rule:nonzero;stroke:#007293;stroke-width:1;stroke-linecap:round;stroke-linejoin:round;stroke-miterlimit:4;stroke-dasharray:none;stroke-dashoffset:0;stroke-opacity:1;marker:none;color-rendering:auto;image-rendering:auto;shape-rendering:auto;text-rendering:auto;enable-background:accumulate"
     id="path2555-6-0"
     d="M 16.000002,1.5 C 7.999402,1.5 1.5,7.9993994 1.5,16.000001 c 0,8.000599 6.499402,14.500002 14.500002,14.5 8.000597,0 14.500006,-6.499401 14.499998,-14.5 C 30.5,7.9993994 24.000599,1.5 16.000002,1.5 Z" />
  <path
     inkscape:connector-curvature="0"
     id="path1542"
     d="m 18.99547,8.999834 c 1.115462,1.351588 1.791868,3.079078 1.791868,4.968312 0,4.3183 -3.500691,7.81903 -7.819038,7.81903 -1.889235,0 -3.6166838,-0.676403 -4.9683,-1.791864 0.9454252,4.029959 4.559559,7.004523 8.877818,7.004523 5.038077,0 9.122181,-4.084101 9.122181,-9.122174 0,-4.318299 -2.974552,-7.9323875 -7.004529,-8.877827 z"
     style="color:#bebebe;display:inline;overflow:visible;visibility:visible;fill:#192636;fill-opacity:1;fill-rule:nonzero;stroke:none;stroke-width:2.4;marker:none;enable-background:accumulate;opacity:0.3" />
  <path
     inkscape:connector-curvature="0"
     id="path5549"
     d="m 18.99547,8 c 1.115462,1.3515877 1.791868,3.079078 1.791868,4.968312 0,4.3183 -3.500691,7.81903 -7.819038,7.81903 -1.889235,0 -3.6166838,-0.676403 -4.9683,-1.791864 0.9454252,4.029959 4.559559,7.004523 8.877818,7.004523 5.038077,0 9.122181,-4.084101 9.122181,-9.122174 0,-4.318299 -2.974552,-7.9323875 -7.004529,-8.877827 z"
     style="color:#bebebe;display:inline;overflow:visible;visibility:visible;fill:#ffffff;fill-opacity:1;fill-rule:nonzero;stroke:none;stroke-width:2.4;marker:none;enable-background:accumulate" />
  <path
     style="fill:none;stroke:#192636;stroke-width:0.99966;stroke-linecap:round;stroke-linejoin:round;stroke-miterlimit:4;stroke-dasharray:none;stroke-opacity:1;opacity:0.3"
     d="m 7,12.999834 h 2 l -2,4 h 2"
     id="path1544"
     sodipodi:nodetypes="cccc" />
  <path
     style="fill:none;stroke:#ffffff;stroke-width:0.99966;stroke-linecap:round;stroke-linejoin:round;stroke-miterlimit:4;stroke-dasharray:none;stroke-opacity:1"
     d="M 7,12 H 9 L 7,16 H 9"
     id="path948-2-0-9"
     sodipodi:nodetypes="cccc" />
  <path
     sodipodi:nodetypes="cccc"
     id="path1546"
     d="m 12,7.999834 h 3 l -3,6 h 3"
     style="fill:none;stroke:#192636;stroke-width:0.999668;stroke-linecap:round;stroke-linejoin:round;stroke-miterlimit:4;stroke-dasharray:none;stroke-opacity:1;opacity:0.3" />
  <path
     sodipodi:nodetypes="cccc"
     id="path948-2-0-9-2"
     d="m 12,7 h 3 l -3,6 h 3"
     style="fill:none;stroke:#ffffff;stroke-width:0.999668;stroke-linecap:round;stroke-linejoin:round;stroke-miterlimit:4;stroke-dasharray:none;stroke-opacity:1" />
</svg>
