<?xml version="1.0" encoding="UTF-8" standalone="no"?>
<svg
   xmlns:dc="http://purl.org/dc/elements/1.1/"
   xmlns:cc="http://creativecommons.org/ns#"
   xmlns:rdf="http://www.w3.org/1999/02/22-rdf-syntax-ns#"
   xmlns:svg="http://www.w3.org/2000/svg"
   xmlns="http://www.w3.org/2000/svg"
   xmlns:xlink="http://www.w3.org/1999/xlink"
   xmlns:sodipodi="http://sodipodi.sourceforge.net/DTD/sodipodi-0.dtd"
   xmlns:inkscape="http://www.inkscape.org/namespaces/inkscape"
   version="1.1"
   width="32"
   height="32"
   id="svg4248"
   sodipodi:docname="system-shutdown.svg"
   inkscape:version="1.0.2 (e86c870879, 2021-01-15)">
  <sodipodi:namedview
     pagecolor="#ffffff"
     bordercolor="#666666"
     borderopacity="1"
     objecttolerance="10"
     gridtolerance="10"
     guidetolerance="10"
     inkscape:pageopacity="0"
     inkscape:pageshadow="2"
     inkscape:window-width="1920"
     inkscape:window-height="1030"
     id="namedview53"
     showgrid="false"
     inkscape:zoom="12.390625"
     inkscape:cx="6.9393542"
     inkscape:cy="11.954728"
     inkscape:window-x="0"
     inkscape:window-y="0"
     inkscape:window-maximized="1"
     inkscape:current-layer="svg4248" />
  <defs
     id="defs4250">
    <linearGradient
       id="linearGradient4011-4">
      <stop
         id="stop4013-8"
         style="stop-color:#ffffff;stop-opacity:1"
         offset="0" />
      <stop
         id="stop4015-5"
         style="stop-color:#ffffff;stop-opacity:0.23529412"
         offset="0.507761" />
      <stop
         id="stop4017-6"
         style="stop-color:#ffffff;stop-opacity:0.15686275"
         offset="0.83456558" />
      <stop
         id="stop4019-1"
         style="stop-color:#ffffff;stop-opacity:0.39215687"
         offset="1" />
    </linearGradient>
    <linearGradient
       x1="71.204407"
       y1="6.2375584"
       x2="71.204407"
       y2="44.340794"
       id="linearGradient3089"
       xlink:href="#linearGradient4011-4"
       gradientUnits="userSpaceOnUse"
       gradientTransform="matrix(0.72972969,0,0,0.72972969,-36.346075,-2.5039314)" />
    <radialGradient
       cx="0.96534902"
       cy="8.4497671"
       r="19.99999"
       fx="0.96534902"
       fy="8.4497671"
       id="radialGradient3092"
       xlink:href="#linearGradient885"
       gradientUnits="userSpaceOnUse"
       gradientTransform="matrix(0.02218834,3.1295839,-2.7046658,0.0191757,38.832459,-16.183171)" />
    <linearGradient
       id="linearGradient3820-7-2-2">
      <stop
         id="stop3822-2-6-36"
         style="stop-color:#3d3d3d;stop-opacity:1"
         offset="0" />
      <stop
         id="stop3864-8-7-6"
         style="stop-color:#686868;stop-opacity:0.49803922"
         offset="0.5" />
      <stop
         id="stop3824-1-2-4"
         style="stop-color:#686868;stop-opacity:0"
         offset="1" />
    </linearGradient>
    <radialGradient
       cx="99.157013"
       cy="186.17059"
       r="62.769119"
       fx="99.157013"
       fy="186.17059"
       id="radialGradient3315"
       xlink:href="#linearGradient3820-7-2-2"
       gradientUnits="userSpaceOnUse"
       gradientTransform="matrix(0.17524541,0,0,0.05575992,-1.3768101,18.118568)" />
    <linearGradient
       id="linearGradient3242">
      <stop
         id="stop3244"
         style="stop-color:#f8b17e;stop-opacity:1"
         offset="0" />
      <stop
         id="stop3246"
         style="stop-color:#e35d4f;stop-opacity:1"
         offset="0.26238" />
      <stop
         id="stop3248"
         style="stop-color:#c6262e;stop-opacity:1"
         offset="0.66093999" />
      <stop
         id="stop3250"
         style="stop-color:#690b54;stop-opacity:1"
         offset="1" />
    </linearGradient>
    <linearGradient
       gradientTransform="rotate(90,36.267338,26.713746)"
       gradientUnits="userSpaceOnUse"
       y2="23.999998"
       x2="44.5"
       y1="23.999998"
       x1="3.4999995"
       id="linearGradient887"
       xlink:href="#linearGradient885" />
    <linearGradient
       id="linearGradient885">
      <stop
         id="stop881"
         offset="0"
         style="stop-color:#ef6555;stop-opacity:1" />
      <stop
         id="stop883"
         offset="1"
         style="stop-color:#c6272e;stop-opacity:1" />
    </linearGradient>
    <linearGradient
       inkscape:collect="always"
       xlink:href="#linearGradient885"
       id="linearGradient895"
       x1="16.000002"
       y1="1.4999989"
       x2="16.000002"
       y2="29.896309"
       gradientUnits="userSpaceOnUse" />
  </defs>
  <metadata
     id="metadata4253">
    <rdf:RDF>
      <cc:Work
         rdf:about="">
        <dc:format>image/svg+xml</dc:format>
        <dc:type
           rdf:resource="http://purl.org/dc/dcmitype/StillImage" />
        <dc:title />
      </cc:Work>
    </rdf:RDF>
  </metadata>
  <path
     d="m 27.000001,28.499422 a 11,3.4999999 0 1 1 -21.9999997,0 11,3.4999999 0 1 1 21.9999997,0 z"
     id="path3818-0-2"
     style="fill:url(#radialGradient3315);fill-opacity:1;stroke:none" />
  <path
     d="M 16.000002,1.4999989 C 7.9994024,1.4999989 1.5,7.9993978 1.5,15.999998 1.5,24.0006 7.9994024,30.500002 16.000002,30.5 24.000599,30.5 30.500007,24.0006 30.5,15.999998 30.5,7.9993978 24.000599,1.4999989 16.000002,1.4999989 z"
     id="path2555"
     style="color:#000000;fill:url(#linearGradient895);fill-opacity:1;fill-rule:nonzero;stroke:none;stroke-width:1;marker:none;visibility:visible;display:inline;overflow:visible;enable-background:accumulate" />
  <path
     d="M 16.000002,1.4999989 C 7.999402,1.4999989 1.5,7.9993981 1.5,15.999999 1.5,24.000599 7.999402,30.500002 16.000002,30.5 24.000598,30.5 30.500008,24.000599 30.5,15.999999 30.5,7.9993981 24.000598,1.4999989 16.000002,1.4999989 z"
     id="path2555-6"
     style="opacity:0.4;color:#000000;fill:none;stroke:#510606;stroke-width:1;stroke-linecap:round;stroke-linejoin:round;stroke-miterlimit:4;stroke-opacity:1;stroke-dasharray:none;stroke-dashoffset:0;marker:none;visibility:visible;display:inline;overflow:visible;enable-background:accumulate" />
  <path
     d="m 29.5,15.999521 c 0,7.456085 -6.044601,13.500478 -13.499829,13.500478 C 8.54426,29.499999 2.5,23.455537 2.5,15.999521 2.5,8.5437808 8.54426,2.5000002 16.000171,2.5000002 23.455399,2.5000002 29.5,8.5437808 29.5,15.999521 l 0,0 z"
     id="path8655"
     style="opacity:0.5;color:#000000;fill:none;stroke:url(#linearGradient3089);stroke-width:1;stroke-linecap:round;stroke-linejoin:round;stroke-miterlimit:4;stroke-opacity:1;stroke-dasharray:none;stroke-dashoffset:0;marker:none;visibility:visible;display:inline;overflow:visible;enable-background:accumulate" />
  <g
     id="g4659"
     transform="matrix(1.3076923,0,0,1.3076923,5.5384616,7.6923078)"
     style="opacity:0.15;fill:#910909;fill-opacity:1">
    <g
       transform="translate(-333.0004,-28)"
       style="display:inline;fill:#910909;fill-opacity:1"
       label="status"
       id="g4661" />
    <g
       transform="translate(-333.0004,-28)"
       style="display:inline;fill:#910909;fill-opacity:1"
       id="g4663" />
    <g
       transform="translate(-333.0004,-28)"
       style="display:inline;fill:#910909;fill-opacity:1"
       id="g4665" />
    <g
       transform="translate(-333.0004,-28)"
       id="g4667"
       style="fill:#910909;fill-opacity:1" />
    <g
       transform="translate(-333.0004,-28)"
       style="display:inline;fill:#910909;fill-opacity:1"
       id="g4669" />
    <g
       transform="translate(-333.0004,-28)"
       style="display:inline;fill:#910909;fill-opacity:1"
       id="g4671" />
    <g
       transform="translate(-333.0004,-28)"
       style="display:inline;fill:#910909;fill-opacity:1"
       id="g4673">
      <path
         style="color:#000000;display:inline;overflow:visible;visibility:visible;fill:#910909;fill-opacity:1;fill-rule:nonzero;stroke:none;stroke-width:1;marker:none;enable-background:accumulate"
         id="path4675"
         d="m 341.0004,29 c -0.554,0 -1,0.446 -1,1 l 0,4 c 0,0.554 0.446,1 1,1 0.554,0 1,-0.446 1,-1 l 0,-4 c 0,-0.554 -0.446,-1 -1,-1 z m -3,2 c -0.23384,0 -0.45573,0.084 -0.625,0.21875 -0.16288,0.13731 -0.21487,0.18641 -0.28125,0.25 -1.27878,1.0966 -2.09375,2.71205 -2.09375,4.53125 0,3.31371 2.68629,6 6,6 3.31371,0 6,-2.68629 6,-6 0,-1.8192 -0.81497,-3.43465 -2.09375,-4.53125 -0.0664,-0.0636 -0.11837,-0.11269 -0.28125,-0.25 C 344.45613,31.08404 344.23424,31 344.0004,31 c -0.55229,0 -1,0.44772 -1,1 0,0.31104 0.14829,0.57085 0.375,0.75 0.0403,0.0378 0.0534,0.0594 0.125,0.125 0.9241,0.72905 1.5,1.85348 1.5,3.125 0,2.20914 -1.79086,4 -4,4 -2.20914,0 -4,-1.79086 -4,-4 0,-1.27152 0.5759,-2.39595 1.5,-3.125 0.0716,-0.0656 0.0847,-0.0872 0.125,-0.125 0.22671,-0.17915 0.375,-0.43896 0.375,-0.75 0,-0.55228 -0.44772,-1 -1,-1 z" />
    </g>
  </g>
  <g
     style="opacity:0.3;fill:#910909;fill-opacity:1"
     transform="matrix(1.3076923,0,0,1.3076923,5.5384616,6.6923078)"
     id="g4641">
    <g
       id="g4643"
       label="status"
       style="display:inline;fill:#910909;fill-opacity:1"
       transform="translate(-333.0004,-28)" />
    <g
       id="g4645"
       style="display:inline;fill:#910909;fill-opacity:1"
       transform="translate(-333.0004,-28)" />
    <g
       id="g4647"
       style="display:inline;fill:#910909;fill-opacity:1"
       transform="translate(-333.0004,-28)" />
    <g
       style="fill:#910909;fill-opacity:1"
       id="g4649"
       transform="translate(-333.0004,-28)" />
    <g
       id="g4651"
       style="display:inline;fill:#910909;fill-opacity:1"
       transform="translate(-333.0004,-28)" />
    <g
       id="g4653"
       style="display:inline;fill:#910909;fill-opacity:1"
       transform="translate(-333.0004,-28)" />
    <g
       id="g4655"
       style="display:inline;fill:#910909;fill-opacity:1"
       transform="translate(-333.0004,-28)">
      <path
         d="m 341.0004,29 c -0.554,0 -1,0.446 -1,1 l 0,4 c 0,0.554 0.446,1 1,1 0.554,0 1,-0.446 1,-1 l 0,-4 c 0,-0.554 -0.446,-1 -1,-1 z m -3,2 c -0.23384,0 -0.45573,0.084 -0.625,0.21875 -0.16288,0.13731 -0.21487,0.18641 -0.28125,0.25 -1.27878,1.0966 -2.09375,2.71205 -2.09375,4.53125 0,3.31371 2.68629,6 6,6 3.31371,0 6,-2.68629 6,-6 0,-1.8192 -0.81497,-3.43465 -2.09375,-4.53125 -0.0664,-0.0636 -0.11837,-0.11269 -0.28125,-0.25 C 344.45613,31.08404 344.23424,31 344.0004,31 c -0.55229,0 -1,0.44772 -1,1 0,0.31104 0.14829,0.57085 0.375,0.75 0.0403,0.0378 0.0534,0.0594 0.125,0.125 0.9241,0.72905 1.5,1.85348 1.5,3.125 0,2.20914 -1.79086,4 -4,4 -2.20914,0 -4,-1.79086 -4,-4 0,-1.27152 0.5759,-2.39595 1.5,-3.125 0.0716,-0.0656 0.0847,-0.0872 0.125,-0.125 0.22671,-0.17915 0.375,-0.43896 0.375,-0.75 0,-0.55228 -0.44772,-1 -1,-1 z"
         id="path4657"
         style="color:#000000;display:inline;overflow:visible;visibility:visible;fill:#910909;fill-opacity:1;fill-rule:nonzero;stroke:none;stroke-width:1;marker:none;enable-background:accumulate" />
    </g>
  </g>
  <g
     id="g4631"
     transform="matrix(1.3076923,0,0,1.3076923,5.5384616,5.6923077)"
     style="fill:#ffffff;fill-opacity:1">
    <g
       transform="translate(-333.0004,-28)"
       style="display:inline;fill:#ffffff;fill-opacity:1"
       label="status"
       id="layer9" />
    <g
       transform="translate(-333.0004,-28)"
       style="display:inline;fill:#ffffff;fill-opacity:1"
       id="layer10" />
    <g
       transform="translate(-333.0004,-28)"
       style="display:inline;fill:#ffffff;fill-opacity:1"
       id="layer13" />
    <g
       transform="translate(-333.0004,-28)"
       id="layer14"
       style="fill:#ffffff;fill-opacity:1" />
    <g
       transform="translate(-333.0004,-28)"
       style="display:inline;fill:#ffffff;fill-opacity:1"
       id="layer15" />
    <g
       transform="translate(-333.0004,-28)"
       style="display:inline;fill:#ffffff;fill-opacity:1"
       id="g71291" />
    <g
       transform="translate(-333.0004,-28)"
       style="display:inline;fill:#ffffff;fill-opacity:1"
       id="layer12">
      <path
         style="color:#000000;display:inline;overflow:visible;visibility:visible;fill:#ffffff;fill-opacity:1;fill-rule:nonzero;stroke:none;stroke-width:1;marker:none;enable-background:accumulate"
         id="path40326"
         d="m 341.0004,29 c -0.554,0 -1,0.446 -1,1 l 0,4 c 0,0.554 0.446,1 1,1 0.554,0 1,-0.446 1,-1 l 0,-4 c 0,-0.554 -0.446,-1 -1,-1 z m -3,2 c -0.23384,0 -0.45573,0.084 -0.625,0.21875 -0.16288,0.13731 -0.21487,0.18641 -0.28125,0.25 -1.27878,1.0966 -2.09375,2.71205 -2.09375,4.53125 0,3.31371 2.68629,6 6,6 3.31371,0 6,-2.68629 6,-6 0,-1.8192 -0.81497,-3.43465 -2.09375,-4.53125 -0.0664,-0.0636 -0.11837,-0.11269 -0.28125,-0.25 C 344.45613,31.08404 344.23424,31 344.0004,31 c -0.55229,0 -1,0.44772 -1,1 0,0.31104 0.14829,0.57085 0.375,0.75 0.0403,0.0378 0.0534,0.0594 0.125,0.125 0.9241,0.72905 1.5,1.85348 1.5,3.125 0,2.20914 -1.79086,4 -4,4 -2.20914,0 -4,-1.79086 -4,-4 0,-1.27152 0.5759,-2.39595 1.5,-3.125 0.0716,-0.0656 0.0847,-0.0872 0.125,-0.125 0.22671,-0.17915 0.375,-0.43896 0.375,-0.75 0,-0.55228 -0.44772,-1 -1,-1 z" />
    </g>
  </g>
</svg>
