<?xml version="1.0" encoding="UTF-8" standalone="no"?>
<svg
   version="1.1"
   id="svg4223"
   height="64px"
   width="64px"
   sodipodi:docname="application-vnd.comicbook+zip.svg"
   inkscape:version="1.1.2 (0a00cf5339, 2022-02-04)"
   xmlns:inkscape="http://www.inkscape.org/namespaces/inkscape"
   xmlns:sodipodi="http://sodipodi.sourceforge.net/DTD/sodipodi-0.dtd"
   xmlns:xlink="http://www.w3.org/1999/xlink"
   xmlns="http://www.w3.org/2000/svg"
   xmlns:svg="http://www.w3.org/2000/svg"
   xmlns:rdf="http://www.w3.org/1999/02/22-rdf-syntax-ns#"
   xmlns:cc="http://creativecommons.org/ns#"
   xmlns:dc="http://purl.org/dc/elements/1.1/">
  <sodipodi:namedview
     id="namedview63"
     pagecolor="#ffffff"
     bordercolor="#666666"
     borderopacity="1.0"
     inkscape:pageshadow="2"
     inkscape:pageopacity="0.0"
     inkscape:pagecheckerboard="0"
     showgrid="false"
     inkscape:zoom="10.65625"
     inkscape:cx="36.410557"
     inkscape:cy="39.131965"
     inkscape:window-width="1317"
     inkscape:window-height="893"
     inkscape:window-x="633"
     inkscape:window-y="100"
     inkscape:window-maximized="0"
     inkscape:current-layer="svg4223" />
  <defs
     id="defs4225">
    <linearGradient
       id="linearGradient4323">
      <stop
         id="stop4325"
         style="stop-color:#fafafa;stop-opacity:1"
         offset="0" />
      <stop
         id="stop4327"
         style="stop-color:#d4d4d4;stop-opacity:1"
         offset="1" />
    </linearGradient>
    <linearGradient
       id="linearGradient4280">
      <stop
         id="stop4282"
         style="stop-color:#9bdb4d;stop-opacity:1"
         offset="0" />
      <stop
         id="stop4284"
         style="stop-color:#68b723;stop-opacity:1"
         offset="1" />
    </linearGradient>
    <linearGradient
       gradientTransform="matrix(1.2162161,0,0,1.4324324,2.8108132,-2.3783632)"
       gradientUnits="userSpaceOnUse"
       xlink:href="#linearGradient3731"
       id="linearGradient3142"
       y2="42.150932"
       x2="23.99999"
       y1="5.8490462"
       x1="23.99999" />
    <linearGradient
       id="linearGradient3731">
      <stop
         offset="0"
         style="stop-color:#ffffff;stop-opacity:1"
         id="stop3733" />
      <stop
         offset="0"
         style="stop-color:#ffffff;stop-opacity:0.23529412"
         id="stop3735" />
      <stop
         offset="1"
         style="stop-color:#ffffff;stop-opacity:0.15686275"
         id="stop3737" />
      <stop
         offset="1"
         style="stop-color:#ffffff;stop-opacity:0.39215687"
         id="stop3739" />
    </linearGradient>
    <radialGradient
       gradientTransform="matrix(2.7199858e-8,3.295755,-3.4611599,-6.0720387e-8,65.046151,-19.38243)"
       gradientUnits="userSpaceOnUse"
       xlink:href="#linearGradient2867-449-88-871-390-598-476-591-434-148-57-177-641-289-620-227-114-444-680-744-8"
       id="radialGradient3145"
       fy="8.4497671"
       fx="7.4956832"
       r="19.99999"
       cy="8.4497671"
       cx="7.4956832" />
    <linearGradient
       id="linearGradient2867-449-88-871-390-598-476-591-434-148-57-177-641-289-620-227-114-444-680-744-8">
      <stop
         offset="0"
         style="stop-color:#5f5f5f;stop-opacity:1"
         id="stop5430-8" />
      <stop
         offset="0.26238"
         style="stop-color:#4f4f4f;stop-opacity:1"
         id="stop5432-3" />
      <stop
         offset="0.704952"
         style="stop-color:#3b3b3b;stop-opacity:1"
         id="stop5434-1" />
      <stop
         offset="1"
         style="stop-color:#2b2b2b;stop-opacity:1"
         id="stop5436-8" />
    </linearGradient>
    <linearGradient
       gradientTransform="matrix(1.4000002,0,0,1.4102564,2.200001,-1.8461739)"
       gradientUnits="userSpaceOnUse"
       xlink:href="#linearGradient3707-319-631-407-324-616-674-812-821-107-178-392-400-6"
       id="linearGradient3147"
       y2="3.8990016"
       x2="24"
       y1="44"
       x1="24" />
    <linearGradient
       id="linearGradient3707-319-631-407-324-616-674-812-821-107-178-392-400-6">
      <stop
         offset="0"
         style="stop-color:#272727;stop-opacity:1"
         id="stop5440-4" />
      <stop
         offset="1"
         style="stop-color:#454545;stop-opacity:1"
         id="stop5442-3" />
    </linearGradient>
    <linearGradient
       gradientTransform="matrix(1.3999998,0,0,1.2500081,-0.6000138,-0.12503612)"
       gradientUnits="userSpaceOnUse"
       xlink:href="#linearGradient4323"
       id="linearGradient3156"
       y2="3.1833799"
       x2="10.654308"
       y1="0.92664802"
       x1="10.654308" />
    <linearGradient
       id="linearGradient2346">
      <stop
         offset="0"
         style="stop-color:#fafafa;stop-opacity:1"
         id="stop2348" />
      <stop
         offset="1"
         style="stop-color:#d4d4d4;stop-opacity:1"
         id="stop2350" />
    </linearGradient>
    <linearGradient
       gradientTransform="matrix(1.3999998,0,0,0.12820517,2.2003515,-0.07692425)"
       gradientUnits="userSpaceOnUse"
       xlink:href="#linearGradient3707-319-631-407-324-616-674-812-821-107-178-392-400-6-2"
       id="linearGradient3158"
       y2="3.8990016"
       x2="24"
       y1="44"
       x1="24" />
    <linearGradient
       id="linearGradient3707-319-631-407-324-616-674-812-821-107-178-392-400-6-2">
      <stop
         offset="0"
         style="stop-color:#272727;stop-opacity:1"
         id="stop5440-4-8" />
      <stop
         offset="1"
         style="stop-color:#454545;stop-opacity:1"
         id="stop5442-3-8" />
    </linearGradient>
    <linearGradient
       xlink:href="#linearGradient2346"
       id="linearGradient4219"
       gradientUnits="userSpaceOnUse"
       gradientTransform="matrix(1.3484995,0,0,2.0418357,1.2847687,-5.5183332)"
       x1="24.640038"
       y1="3.2132509"
       x2="24.640038"
       y2="4.6356645" />
    <radialGradient
       gradientTransform="matrix(2.003784,0,0,1.4,27.98813,-17.4)"
       gradientUnits="userSpaceOnUse"
       xlink:href="#linearGradient3688-166-749"
       id="radialGradient2873-966-168"
       fy="43.5"
       fx="4.9929786"
       r="2.5"
       cy="43.5"
       cx="4.9929786" />
    <linearGradient
       id="linearGradient3688-166-749">
      <stop
         offset="0"
         style="stop-color:#181818;stop-opacity:1"
         id="stop2883" />
      <stop
         offset="1"
         style="stop-color:#181818;stop-opacity:0"
         id="stop2885" />
    </linearGradient>
    <radialGradient
       gradientTransform="matrix(2.003784,0,0,1.4,-20.01187,-104.4)"
       gradientUnits="userSpaceOnUse"
       xlink:href="#linearGradient3688-464-309"
       id="radialGradient2875-742-326"
       fy="43.5"
       fx="4.9929786"
       r="2.5"
       cy="43.5"
       cx="4.9929786" />
    <linearGradient
       id="linearGradient3688-464-309">
      <stop
         offset="0"
         style="stop-color:#181818;stop-opacity:1"
         id="stop2889" />
      <stop
         offset="1"
         style="stop-color:#181818;stop-opacity:0"
         id="stop2891" />
    </linearGradient>
    <linearGradient
       gradientUnits="userSpaceOnUse"
       xlink:href="#linearGradient3702-501-757"
       id="linearGradient2877-634-617"
       y2="39.999443"
       x2="25.058096"
       y1="47.027729"
       x1="25.058096" />
    <linearGradient
       id="linearGradient3702-501-757">
      <stop
         offset="0"
         style="stop-color:#181818;stop-opacity:0"
         id="stop2895" />
      <stop
         offset="0.5"
         style="stop-color:#181818;stop-opacity:1"
         id="stop2897" />
      <stop
         offset="1"
         style="stop-color:#181818;stop-opacity:0"
         id="stop2899" />
    </linearGradient>
    <linearGradient
       gradientUnits="userSpaceOnUse"
       y2="59.598854"
       x2="40.35817"
       y1="4.3094559"
       x1="40.35817"
       id="linearGradient4278"
       xlink:href="#linearGradient4280" />
  </defs>
  <metadata
     id="metadata4228">
    <rdf:RDF>
      <cc:Work
         rdf:about="">
        <dc:format>image/svg+xml</dc:format>
        <dc:type
           rdf:resource="http://purl.org/dc/dcmitype/StillImage" />
      </cc:Work>
    </rdf:RDF>
  </metadata>
  <g
     style="display:inline"
     id="g2036"
     transform="matrix(1.3499995,0,0,0.5555561,-0.40000054,35.888881)">
    <g
       style="opacity:0.4"
       id="g3712"
       transform="matrix(1.052632,0,0,1.285713,-1.263158,-13.42854)">
      <rect
         style="fill:url(#radialGradient2873-966-168);fill-opacity:1;stroke:none"
         id="rect2801"
         y="40"
         x="38"
         height="7"
         width="5" />
      <rect
         style="fill:url(#radialGradient2875-742-326);fill-opacity:1;stroke:none"
         id="rect3696"
         transform="scale(-1,-1)"
         y="-47"
         x="-10"
         height="7"
         width="5" />
      <rect
         style="fill:url(#linearGradient2877-634-617);fill-opacity:1;stroke:none"
         id="rect3700"
         y="40"
         x="10"
         height="7.0000005"
         width="28" />
    </g>
  </g>
  <path
     d="M 54.491301,4.1158135 C 54.094555,2.7999377 54.341836,1.7636774 54.122709,0.5086987 l -40.61401,0 0.239708,3.9826026"
     id="path2723"
     style="display:inline;fill:url(#linearGradient4219);fill-opacity:1;stroke:#206b00;stroke-width:1.0173974;stroke-linecap:butt;stroke-linejoin:round;stroke-miterlimit:0;stroke-dasharray:none;stroke-dashoffset:0;stroke-opacity:0.49803922" />
  <path
     d="m 15.500349,5.5000001 -5.6000012,0 c -0.7991864,0 -1.3999989,-0.05292 -1.3999989,-0.1219503 l 0,-3.4955487 c 0,-1.10990737 0.7826448,-1.38250119 1.8072521,-1.38250119 l 5.192748,0"
     id="rect5505-21-3-9"
     style="color:#000000;display:inline;overflow:visible;visibility:visible;fill:url(#linearGradient3156);fill-opacity:1;fill-rule:nonzero;stroke:url(#linearGradient3158);stroke-width:0.99999976;stroke-linecap:round;stroke-linejoin:round;stroke-miterlimit:4;stroke-dasharray:none;stroke-dashoffset:0;stroke-opacity:1;marker:none;enable-background:accumulate" />
  <rect
     width="45.980957"
     height="54.980961"
     rx="0.99999994"
     ry="0.99999958"
     x="9.5095205"
     y="4.5095205"
     id="rect2719"
     style="display:inline;fill:url(#linearGradient4278);fill-opacity:1;stroke:#206b00;stroke-width:1.01904094;stroke-linecap:round;stroke-linejoin:round;stroke-miterlimit:0;stroke-dasharray:none;stroke-dashoffset:0;stroke-opacity:0.49803922" />
  <path
     d="m 15.5,4.4999787 c 0,0 0,38.2439353 0,54.9999983 l -5.5999998,0 C 9.1008127,59.499977 8.5,58.917847 8.5,58.158512 l 0,-53.6585333 z"
     id="rect5505-21-3"
     style="color:#000000;display:inline;overflow:visible;visibility:visible;fill:url(#radialGradient3145);fill-opacity:1;fill-rule:nonzero;stroke:url(#linearGradient3147);stroke-width:0.99999982;stroke-linecap:round;stroke-linejoin:round;stroke-miterlimit:4;stroke-dasharray:none;stroke-dashoffset:0;stroke-opacity:1;marker:none;enable-background:accumulate" />
  <rect
     width="45"
     height="53"
     x="9.5"
     y="5.5"
     id="rect6741-0"
     style="opacity:0.3;fill:none;stroke:url(#linearGradient3142);stroke-width:0.99999982;stroke-linecap:round;stroke-linejoin:round;stroke-miterlimit:4;stroke-dasharray:none;stroke-dashoffset:0;stroke-opacity:1" />
  <path
     id="rect1003"
     style="fill:#ffffff;stroke:#206b00;stroke-width:1.5;stroke-miterlimit:4;stroke-dasharray:none;stroke-opacity:0.501961;paint-order:stroke fill markers"
     d="m 36.577196,18.252258 c -0.549443,0.0073 -1.10561,0.03316 -1.667247,0.07736 -8.986179,0.707329 -15.849188,5.955448 -15.388058,11.767546 l 0.01488,0.188455 c 0.183826,2.316951 1.505921,4.361767 3.595341,5.94031 0.01598,0.01643 0.04616,0.04013 0.09521,0.07438 0.0022,0.0014 0.0058,0.0034 0.0079,0.005 0.189249,0.139852 0.384938,0.275498 0.586164,0.40766 -0.348035,3.082505 -1.517698,5.844367 -2.693778,8.200781 -0.0071,0.02084 -0.03593,0.06732 -0.0605,0.112082 -0.02456,0.04476 -0.04539,0.08736 -0.0357,0.102163 0.0052,0.0079 0.0168,0.0079 0.03174,0.003 0.04483,-0.01477 0.119623,-0.0712 0.140838,-0.07836 0.315372,-0.163271 0.630368,-0.327698 0.94421,-0.492958 3.141273,-1.630899 5.774601,-3.045715 8.687336,-5.20831 0.15878,-0.117887 1.490423,0.14382 1.737665,0.14382 1.292744,0.106966 2.638332,0.113468 4.016864,0.005 8.986181,-0.707329 15.849192,-5.956439 15.388059,-11.768538 L 51.96324,27.544186 C 51.530974,22.095256 44.818859,18.142219 36.57721,18.25226 Z"
     sodipodi:nodetypes="sscccscccsssccscssss" />
  <path
     id="path956"
     style="color:#000000;font-style:italic;font-variant:normal;font-weight:bold;font-stretch:normal;font-size:29.3333px;line-height:1.25;font-family:'noto sans';-inkscape-font-specification:'noto sans Bold Italic';font-variant-ligatures:normal;font-variant-position:normal;font-variant-caps:normal;font-variant-numeric:normal;font-variant-alternates:normal;font-variant-east-asian:normal;font-feature-settings:normal;font-variation-settings:normal;text-indent:0;text-align:start;text-decoration:none;text-decoration-line:none;text-decoration-style:solid;text-decoration-color:#000000;letter-spacing:2px;word-spacing:0px;text-transform:none;writing-mode:lr-tb;direction:ltr;text-orientation:mixed;dominant-baseline:auto;baseline-shift:baseline;text-anchor:start;white-space:normal;shape-padding:0;shape-margin:0;inline-size:0;clip-rule:nonzero;display:inline;overflow:visible;visibility:visible;isolation:auto;mix-blend-mode:normal;color-interpolation:sRGB;color-interpolation-filters:linearRGB;solid-color:#000000;solid-opacity:1;vector-effect:none;fill:#64a927;fill-opacity:1;fill-rule:nonzero;stroke:none;stroke-width:0.5;stroke-linecap:butt;stroke-linejoin:miter;stroke-miterlimit:4;stroke-dasharray:none;stroke-dashoffset:0;stroke-opacity:1;color-rendering:auto;image-rendering:auto;shape-rendering:auto;text-rendering:auto;enable-background:accumulate;stop-color:#000000"
     d="m 33.830621,23 c -0.767558,0 -1.483677,0.107034 -2.15045,0.320804 -0.61962,0.202386 -1.180322,0.448877 -1.701325,0.723944 l 0.728222,1.713089 c 0.489743,-0.226322 0.946864,-0.426692 1.345234,-0.582792 l 0.0011,-0.0011 h 0.0011 c 0.459693,-0.175126 0.916295,-0.264128 1.36769,-0.264128 0.452955,0 0.802864,0.101097 1.0255,0.332567 0.213994,0.21064 0.318664,0.508248 0.318664,0.860821 0,0.409198 -0.154084,0.776829 -0.448054,1.077898 l -0.0011,0.0011 -0.0011,0.0011 c -0.284346,0.278523 -0.728084,0.61506 -1.338818,1.017989 h -0.0011 c -0.730929,0.477354 -1.252563,0.985795 -1.573005,1.520607 l -0.0011,0.0011 c -0.297395,0.485555 -0.509852,1.129715 -0.668339,1.867074 h 2.054208 c 0.08242,-0.306466 0.174769,-0.584674 0.290861,-0.800939 v -0.0011 c 0.131249,-0.256126 0.308673,-0.487355 0.529326,-0.690796 0.230935,-0.21358 0.527441,-0.436172 0.890763,-0.669409 0.516473,-0.337296 0.976483,-0.673626 1.380522,-1.00946 l 0.0011,-0.0011 h 0.0011 c 0.408714,-0.329728 0.723567,-0.698264 0.949578,-1.105702 0.222787,-0.41352 0.336844,-0.9113 0.336844,-1.500289 0,-0.891523 -0.29115,-1.564475 -0.880071,-2.060625 l -0.0011,-0.0011 C 35.710708,23.254276 34.898778,23.000011 33.830633,23.000011 Z M 31.47058,33.276485 c -0.655288,0 -1.085522,0.175477 -1.338819,0.509006 l -0.0011,0.0011 C 29.874531,34.129214 29.75,34.497215 29.75,34.905098 c 0,0.284217 0.09232,0.540248 0.285515,0.78597 0.175411,0.211756 0.491755,0.332566 0.989144,0.332566 0.517565,0 0.908029,-0.150112 1.203011,-0.450195 l 0.0011,-0.0011 0.0011,-0.0011 c 0.309685,-0.303373 0.460886,-0.673108 0.460886,-1.139921 0,-0.38515 -0.109424,-0.653576 -0.32508,-0.843711 l -0.0022,-0.0011 -0.0011,-0.0011 c -0.220241,-0.204964 -0.508822,-0.30904 -0.891833,-0.30904 z"
     sodipodi:nodetypes="cccccccscscccccccccccccccccscccccccscscccsccccc" />
  <path
     id="path962"
     style="color:#000000;font-style:italic;font-variant:normal;font-weight:bold;font-stretch:normal;font-size:29.3333px;line-height:1.25;font-family:'noto sans';-inkscape-font-specification:'noto sans Bold Italic';font-variant-ligatures:normal;font-variant-position:normal;font-variant-caps:normal;font-variant-numeric:normal;font-variant-alternates:normal;font-variant-east-asian:normal;font-feature-settings:normal;font-variation-settings:normal;text-indent:0;text-align:start;text-decoration:none;text-decoration-line:none;text-decoration-style:solid;text-decoration-color:#000000;letter-spacing:2px;word-spacing:0px;text-transform:none;writing-mode:lr-tb;direction:ltr;text-orientation:mixed;dominant-baseline:auto;baseline-shift:baseline;text-anchor:start;white-space:normal;shape-padding:0;shape-margin:0;inline-size:0;clip-rule:nonzero;display:inline;overflow:visible;visibility:visible;isolation:auto;mix-blend-mode:normal;color-interpolation:sRGB;color-interpolation-filters:linearRGB;solid-color:#000000;solid-opacity:1;vector-effect:none;fill:#64a927;fill-opacity:1;fill-rule:nonzero;stroke:none;stroke-width:0.5;stroke-linecap:butt;stroke-linejoin:miter;stroke-miterlimit:4;stroke-dasharray:none;stroke-dashoffset:0;stroke-opacity:1;color-rendering:auto;image-rendering:auto;shape-rendering:auto;text-rendering:auto;enable-background:accumulate;stop-color:#000000"
     d="m 39.541836,23.181788 -1.457515,8.40825 h 2.072387 l 2.178254,-8.40825 z m -0.821257,10.094697 c -0.655286,0 -1.085521,0.175477 -1.338818,0.509006 l -0.0011,0.0011 C 37.124528,34.129214 37,34.497215 37,34.905098 c 0,0.284217 0.09232,0.540248 0.285515,0.78597 0.175412,0.211756 0.491754,0.332566 0.989143,0.332566 0.517566,0 0.908029,-0.150112 1.203011,-0.450195 l 0.0011,-0.0011 0.0011,-0.0011 c 0.309685,-0.303373 0.460886,-0.673108 0.460886,-1.139921 0,-0.38515 -0.109424,-0.653576 -0.325081,-0.843711 l -0.0022,-0.0011 -0.0011,-0.0011 c -0.220239,-0.204964 -0.508822,-0.30904 -0.891832,-0.30904 z"
     sodipodi:nodetypes="ccccccccscscccsccccc" />
</svg>
