<?xml version="1.0" encoding="UTF-8" standalone="no"?>
<svg
   version="1.1"
   width="64"
   height="64"
   id="svg3844"
   sodipodi:docname="application-x-perl.svg"
   inkscape:version="1.1.2 (0a00cf5339, 2022-02-04)"
   xmlns:inkscape="http://www.inkscape.org/namespaces/inkscape"
   xmlns:sodipodi="http://sodipodi.sourceforge.net/DTD/sodipodi-0.dtd"
   xmlns:xlink="http://www.w3.org/1999/xlink"
   xmlns="http://www.w3.org/2000/svg"
   xmlns:svg="http://www.w3.org/2000/svg"
   xmlns:rdf="http://www.w3.org/1999/02/22-rdf-syntax-ns#"
   xmlns:cc="http://creativecommons.org/ns#">
  <sodipodi:namedview
     id="namedview40"
     pagecolor="#ffffff"
     bordercolor="#666666"
     borderopacity="1.0"
     inkscape:pageshadow="2"
     inkscape:pageopacity="0.0"
     inkscape:pagecheckerboard="0"
     showgrid="false"
     inkscape:zoom="45.254835"
     inkscape:cx="44.967571"
     inkscape:cy="18.406873"
     inkscape:window-width="1317"
     inkscape:window-height="893"
     inkscape:window-x="27"
     inkscape:window-y="673"
     inkscape:window-maximized="0"
     inkscape:current-layer="svg3844" />
  <defs
     id="defs3846">
    <linearGradient
       x1="-51.786404"
       y1="50.786446"
       x2="-51.786404"
       y2="2.9062471"
       id="linearGradient3033"
       xlink:href="#linearGradient3104-6"
       gradientUnits="userSpaceOnUse"
       gradientTransform="matrix(1.0843523,0,0,1.1997367,79.550862,-4.1628601)" />
    <linearGradient
       id="linearGradient3104-6">
      <stop
         id="stop3106-3"
         style="stop-color:#000000;stop-opacity:0.31782946"
         offset="0" />
      <stop
         id="stop3108-9"
         style="stop-color:#000000;stop-opacity:0.24031007"
         offset="1" />
    </linearGradient>
    <linearGradient
       x1="23.99999"
       y1="5.8641062"
       x2="23.99999"
       y2="42.175503"
       id="linearGradient3093"
       xlink:href="#linearGradient3977-4"
       gradientUnits="userSpaceOnUse"
       gradientTransform="matrix(1.2162162,0,0,1.5405376,2.8108184,-6.9729501)" />
    <linearGradient
       id="linearGradient3977-4">
      <stop
         id="stop3979-7"
         style="stop-color:#ffffff;stop-opacity:1"
         offset="0" />
      <stop
         id="stop3981-6"
         style="stop-color:#ffffff;stop-opacity:0.23529412"
         offset="0" />
      <stop
         id="stop3983-5"
         style="stop-color:#ffffff;stop-opacity:0.15686275"
         offset="1" />
      <stop
         id="stop3985-6"
         style="stop-color:#ffffff;stop-opacity:0.39215687"
         offset="1" />
    </linearGradient>
    <linearGradient
       x1="25.132275"
       y1="0.98520643"
       x2="25.132275"
       y2="47.013336"
       id="linearGradient3096"
       xlink:href="#linearGradient3600-9"
       gradientUnits="userSpaceOnUse"
       gradientTransform="matrix(1.3142827,0,0,1.2602393,0.4572141,-2.1793201)" />
    <linearGradient
       id="linearGradient3600-9">
      <stop
         id="stop3602-3"
         style="stop-color:#f4f4f4;stop-opacity:1"
         offset="0" />
      <stop
         id="stop3604-7"
         style="stop-color:#dbdbdb;stop-opacity:1"
         offset="1" />
    </linearGradient>
    <radialGradient
       cx="605.71429"
       cy="486.64789"
       r="117.14286"
       fx="605.71429"
       fy="486.64789"
       id="radialGradient3153"
       xlink:href="#linearGradient5060"
       gradientUnits="userSpaceOnUse"
       gradientTransform="matrix(0.03132633,0,0,0.02058823,35.220859,49.45142)" />
    <linearGradient
       id="linearGradient5060">
      <stop
         id="stop5062"
         style="stop-color:#000000;stop-opacity:1"
         offset="0" />
      <stop
         id="stop5064"
         style="stop-color:#000000;stop-opacity:0"
         offset="1" />
    </linearGradient>
    <radialGradient
       cx="605.71429"
       cy="486.64789"
       r="117.14286"
       fx="605.71429"
       fy="486.64789"
       id="radialGradient3156"
       xlink:href="#linearGradient5060"
       gradientUnits="userSpaceOnUse"
       gradientTransform="matrix(-0.03132632,0,0,0.02058823,28.779136,49.45142)" />
    <linearGradient
       id="linearGradient5048">
      <stop
         id="stop5050"
         style="stop-color:#000000;stop-opacity:0"
         offset="0" />
      <stop
         id="stop5056"
         style="stop-color:#000000;stop-opacity:1"
         offset="0.5" />
      <stop
         id="stop5052"
         style="stop-color:#000000;stop-opacity:0"
         offset="1" />
    </linearGradient>
    <linearGradient
       x1="302.85715"
       y1="366.64789"
       x2="302.85715"
       y2="609.50507"
       id="linearGradient3842"
       xlink:href="#linearGradient5048"
       gradientUnits="userSpaceOnUse"
       gradientTransform="matrix(0.09153846,0,0,0.02058823,-1.084616,49.45142)" />
    <mask
       id="holes">
      <rect
         x="-60"
         y="-60"
         width="120"
         height="120"
         fill="#ffffff"
         id="rect80" />
      <circle
         id="hole"
         cy="-40"
         r="3"
         cx="0" />
      <use
         xlink:href="#hole"
         transform="rotate(72)"
         id="use83"
         x="0"
         y="0"
         width="100%"
         height="100%" />
      <use
         xlink:href="#hole"
         transform="rotate(144)"
         id="use85"
         x="0"
         y="0"
         width="100%"
         height="100%" />
      <use
         xlink:href="#hole"
         transform="rotate(-144)"
         id="use87"
         x="0"
         y="0"
         width="100%"
         height="100%" />
      <use
         xlink:href="#hole"
         transform="rotate(-72)"
         id="use89"
         x="0"
         y="0"
         width="100%"
         height="100%" />
    </mask>
    <mask
       id="holes-6">
      <rect
         x="-60"
         y="-60"
         width="120"
         height="120"
         fill="#ffffff"
         id="rect23997" />
      <circle
         id="hole-7"
         cy="-40"
         r="3"
         cx="0" />
      <use
         xlink:href="#hole-7"
         transform="rotate(72)"
         id="use24000"
         x="0"
         y="0"
         width="100%"
         height="100%" />
      <use
         xlink:href="#hole-7"
         transform="rotate(144)"
         id="use24002"
         x="0"
         y="0"
         width="100%"
         height="100%" />
      <use
         xlink:href="#hole-7"
         transform="rotate(-144)"
         id="use24004"
         x="0"
         y="0"
         width="100%"
         height="100%" />
      <use
         xlink:href="#hole-7"
         transform="rotate(-72)"
         id="use24006"
         x="0"
         y="0"
         width="100%"
         height="100%" />
    </mask>
    <mask
       id="holes-5">
      <rect
         x="-60"
         y="-60"
         width="120"
         height="120"
         fill="#ffffff"
         id="rect23997-3" />
      <circle
         id="hole-5"
         cy="-40"
         r="3"
         cx="0" />
      <use
         xlink:href="#hole-5"
         transform="rotate(72)"
         id="use24000-6"
         x="0"
         y="0"
         width="100%"
         height="100%" />
      <use
         xlink:href="#hole-5"
         transform="rotate(144)"
         id="use24002-2"
         x="0"
         y="0"
         width="100%"
         height="100%" />
      <use
         xlink:href="#hole-5"
         transform="rotate(-144)"
         id="use24004-9"
         x="0"
         y="0"
         width="100%"
         height="100%" />
      <use
         xlink:href="#hole-5"
         transform="rotate(-72)"
         id="use24006-1"
         x="0"
         y="0"
         width="100%"
         height="100%" />
    </mask>
    <mask
       id="holes-2">
      <rect
         x="-60"
         y="-60"
         width="120"
         height="120"
         fill="#ffffff"
         id="rect23997-7" />
      <circle
         id="hole-0"
         cy="-40"
         r="3"
         cx="0" />
      <use
         xlink:href="#hole-0"
         transform="rotate(72)"
         id="use24000-9"
         x="0"
         y="0"
         width="100%"
         height="100%" />
      <use
         xlink:href="#hole-0"
         transform="rotate(144)"
         id="use24002-3"
         x="0"
         y="0"
         width="100%"
         height="100%" />
      <use
         xlink:href="#hole-0"
         transform="rotate(-144)"
         id="use24004-6"
         x="0"
         y="0"
         width="100%"
         height="100%" />
      <use
         xlink:href="#hole-0"
         transform="rotate(-72)"
         id="use24006-0"
         x="0"
         y="0"
         width="100%"
         height="100%" />
    </mask>
  </defs>
  <metadata
     id="metadata3849">
    <rdf:RDF>
      <cc:Work
         rdf:about="" />
    </rdf:RDF>
  </metadata>
  <rect
     style="display:inline;overflow:visible;visibility:visible;opacity:0.15;fill:url(#linearGradient3842);fill-opacity:1;fill-rule:nonzero;stroke:none;stroke-width:1;marker:none"
     id="rect2879"
     y="57.000004"
     x="9.8999996"
     height="5"
     width="44.199997" />
  <path
     style="display:inline;overflow:visible;visibility:visible;opacity:0.15;fill:url(#radialGradient3156);fill-opacity:1;fill-rule:nonzero;stroke:none;stroke-width:1;marker:none"
     id="path2881"
     d="m 9.9,57.00022 c 0,0 0,4.9997 0,4.9997 -1.6132281,0.01 -3.9,-1.1202 -3.9,-2.5002 0,-1.38 1.8002408,-2.4995 3.9,-2.4995 z" />
  <path
     style="display:inline;overflow:visible;visibility:visible;opacity:0.15;fill:url(#radialGradient3153);fill-opacity:1;fill-rule:nonzero;stroke:none;stroke-width:1;marker:none"
     id="path2883"
     d="m 54.099999,57.00022 c 0,0 0,4.9997 0,4.9997 C 55.713227,62.00992 58,60.87972 58,59.49972 c 0,-1.38 -1.800241,-2.4995 -3.900001,-2.4995 z" />
  <path
     style="display:inline;fill:url(#linearGradient3096);fill-opacity:1;stroke:none"
     id="path4160-6"
     d="m 9,0.9998799 c 10.540935,0 45.999945,0.004 45.999945,0.004 L 55,59.00002 c 0,0 -30.666666,0 -46,0 0,-19.3334 0,-38.6665 0,-57.9998201 z" />
  <path
     style="fill:none;stroke:url(#linearGradient3093);stroke-width:1;stroke-linecap:round;stroke-linejoin:miter;stroke-miterlimit:4;stroke-dasharray:none;stroke-dashoffset:0;stroke-opacity:1"
     id="rect6741-1-8"
     d="m 54.499999,58.50002 -44.9999992,0 0,-57.0000401 44.9999992,0 z" />
  <path
     style="display:inline;fill:none;stroke:url(#linearGradient3033);stroke-width:0.9999218;stroke-linecap:butt;stroke-linejoin:round;stroke-miterlimit:4;stroke-dasharray:none;stroke-dashoffset:0;stroke-opacity:1"
     id="path4160-6-1"
     d="m 8.4999684,0.4998999 c 10.7700936,0 47.0000286,0.004 47.0000286,0.004 l 4.9e-5,58.9962201 c 0,0 -31.333384,0 -47.0000776,0 0,-19.6668 0,-39.3334 0,-58.9999701 z" />
  <path
     id="path925-6"
     style="display:inline;fill:#8cd5ff;fill-opacity:0.2;fill-rule:evenodd;stroke:none;stroke-width:2;stroke-linecap:round;stroke-linejoin:round;stroke-miterlimit:4;stroke-dasharray:none;stroke-opacity:1;enable-background:new"
     d="m 16.636052,13.299204 c -1.197906,0.01353 -2.008773,0.258117 -2.008773,0.258117 0,0 2.223352,7.142359 6.392755,6.435153 l 0.401755,-1.47528 c -0.03922,3.420036 1.15579,7.615621 1.55404,8.915089 -1.331951,3.415787 -3.185963,8.925242 -2.622443,11.945751 0.440338,2.360239 1.332946,4.171121 2.969011,5.437169 h -0.217433 c -1.111839,4.526121 2.223847,5.657535 8.894892,3.394474 6.671044,2.263061 10.006732,1.131648 8.894891,-3.394474 h -0.217433 c 1.636065,-1.266048 2.528673,-3.07693 2.969011,-5.437169 0.563521,-3.020509 -1.29049,-8.529964 -2.622442,-11.945751 0.398251,-1.299468 1.593261,-5.495053 1.55404,-8.915089 l 0.401755,1.47528 c 4.169402,0.707206 6.392755,-6.435153 6.392755,-6.435153 0,0 -4.083771,-1.224453 -7.454536,1.673318 -0.640254,-1.138703 -2.186047,-1.931435 -3.247148,-1.931435 -2.254354,0 -3.33537,0.964605 -6.670893,0.964605 -3.335523,0 -4.416538,-0.964605 -6.670893,-0.964605 -1.061103,0 -2.606894,0.792732 -3.247149,1.931435 -1.868389,-1.606212 -3.956019,-1.94827 -5.445762,-1.931435 z"
     sodipodi:nodetypes="sccccscccccscccccssscs" />
  <path
     style="display:inline;fill:none;fill-rule:evenodd;stroke:#3689e6;stroke-width:1.2;stroke-linecap:round;stroke-linejoin:round;stroke-miterlimit:4;stroke-dasharray:none;stroke-opacity:1;enable-background:new"
     d="m 24.217021,24.448434 c 0,0 -4.718416,10.347034 -3.863281,14.930622 0.594711,3.187687 2.010358,5.375539 4.975136,6.568715 1.757369,0.707256 6.671126,-1.131543 6.671126,-1.131543 v -7.92081 0 0 c 0,0 -4.447418,-1.485152 -5.350799,-7.213593 0,0 0.478006,4.895473 1.381388,5.036915"
     id="path925"
     inkscape:connector-curvature="0"
     sodipodi:nodetypes="csscccccc" />
  <path
     style="display:inline;fill:none;fill-rule:evenodd;stroke:#3689e6;stroke-width:1.2;stroke-linecap:butt;stroke-linejoin:miter;stroke-miterlimit:4;stroke-dasharray:none;stroke-opacity:1;enable-background:new"
     d="m 22.271278,15.39608 c -3.405054,-3.111746 -7.643999,-1.838759 -7.643999,-1.838759 0,0 2.223709,7.142872 6.393162,6.435657"
     id="path927"
     inkscape:connector-curvature="0"
     sodipodi:nodetypes="ccc" />
  <path
     style="display:inline;fill:none;fill-rule:evenodd;stroke:#3689e6;stroke-width:1.2;stroke-linecap:round;stroke-linejoin:miter;stroke-miterlimit:4;stroke-dasharray:none;stroke-opacity:1;enable-background:new"
     d="m 23.105168,45.1 c -1.111854,4.526177 2.223708,5.65772 8.894834,3.394632 6.671124,2.263088 10.006687,1.131545 8.894833,-3.394632"
     id="path932"
     inkscape:connector-curvature="0"
     sodipodi:nodetypes="ccc" />
  <path
     style="display:inline;fill:none;fill-rule:evenodd;stroke:#3689e6;stroke-width:1.2;stroke-linecap:butt;stroke-linejoin:round;stroke-miterlimit:4;stroke-dasharray:none;stroke-opacity:1;enable-background:new"
     d="m 25.566149,19.148004 c 2.106966,-0.9962 4.346154,0.225115 4.270559,0.350037 0,0 -0.727552,3.070634 -2.447185,2.805734 -1.61086,-0.248144 -1.822023,-2.459456 -1.823374,-3.155771 z"
     id="path938-7"
     inkscape:connector-curvature="0"
     sodipodi:nodetypes="ccsc" />
  <path
     sodipodi:nodetypes="ccsscsscc"
     inkscape:connector-curvature="0"
     id="path947"
     d="m 40.894835,27.843066 v 0 c 0,0 2.877923,-8.688531 1.111854,-12.446986 C 41.43019,14.169205 39.782981,13.3 38.671126,13.3 c -2.254381,0 -3.335561,0.964536 -6.671124,0.964536 -3.335563,0 -4.416744,-0.964536 -6.671126,-0.964536 -1.111855,0 -2.759063,0.869205 -3.335562,2.09608 -1.766069,3.758455 1.111854,12.446986 1.111854,12.446986 v 0"
     style="display:inline;fill:none;fill-rule:evenodd;stroke:#3689e6;stroke-width:1.2;stroke-linecap:butt;stroke-linejoin:miter;stroke-miterlimit:4;stroke-dasharray:none;stroke-opacity:1;enable-background:new" />
  <path
     sodipodi:nodetypes="csscccccc"
     inkscape:connector-curvature="0"
     id="path949"
     d="m 39.782981,24.448434 c 0,0 4.718418,10.347034 3.863282,14.930622 -0.594711,3.187687 -2.010357,5.375539 -4.975137,6.568715 -1.757368,0.707256 -6.671124,-1.131543 -6.671124,-1.131543 v -7.92081 0 0 c 0,0 4.447416,-1.485152 5.350798,-7.213593 0,0 -0.527143,4.995487 -1.430525,5.13693"
     style="display:inline;fill:none;fill-rule:evenodd;stroke:#3689e6;stroke-width:1.2;stroke-linecap:round;stroke-linejoin:round;stroke-miterlimit:4;stroke-dasharray:none;stroke-opacity:1;enable-background:new" />
  <path
     sodipodi:nodetypes="ccc"
     inkscape:connector-curvature="0"
     id="path951"
     d="m 41.728726,15.39608 c 3.405053,-3.111746 7.643996,-1.838759 7.643996,-1.838759 0,0 -2.223708,7.142872 -6.393161,6.435657"
     style="display:inline;fill:none;fill-rule:evenodd;stroke:#3689e6;stroke-width:1.2;stroke-linecap:butt;stroke-linejoin:miter;stroke-miterlimit:4;stroke-dasharray:none;stroke-opacity:1;enable-background:new" />
  <path
     sodipodi:nodetypes="ccsc"
     inkscape:connector-curvature="0"
     id="path955"
     d="m 38.433854,19.148004 c -2.106966,-0.9962 -4.346155,0.225115 -4.27056,0.350037 0,0 0.727554,3.070634 2.447186,2.805734 1.610861,-0.248144 1.822024,-2.459456 1.823374,-3.155771 z"
     style="display:inline;fill:none;fill-rule:evenodd;stroke:#3689e6;stroke-width:1.2;stroke-linecap:butt;stroke-linejoin:round;stroke-miterlimit:4;stroke-dasharray:none;stroke-opacity:1;enable-background:new" />
</svg>
