<?xml version="1.0" encoding="UTF-8" standalone="no"?>
<svg
   version="1.0"
   width="64"
   height="64"
   id="svg2453"
   sodipodi:docname="image-gif.svg"
   inkscape:version="1.1.2 (0a00cf5339, 2022-02-04)"
   xmlns:inkscape="http://www.inkscape.org/namespaces/inkscape"
   xmlns:sodipodi="http://sodipodi.sourceforge.net/DTD/sodipodi-0.dtd"
   xmlns:xlink="http://www.w3.org/1999/xlink"
   xmlns="http://www.w3.org/2000/svg"
   xmlns:svg="http://www.w3.org/2000/svg"
   xmlns:rdf="http://www.w3.org/1999/02/22-rdf-syntax-ns#"
   xmlns:cc="http://creativecommons.org/ns#"
   xmlns:dc="http://purl.org/dc/elements/1.1/">
  <sodipodi:namedview
     id="namedview47"
     pagecolor="#ffffff"
     bordercolor="#666666"
     borderopacity="1.0"
     inkscape:pageshadow="2"
     inkscape:pageopacity="0.0"
     inkscape:pagecheckerboard="0"
     showgrid="false"
     inkscape:snap-center="true"
     inkscape:snap-object-midpoints="true"
     inkscape:zoom="10.65625"
     inkscape:cx="40.398827"
     inkscape:cy="40.02346"
     inkscape:window-width="1317"
     inkscape:window-height="890"
     inkscape:window-x="61"
     inkscape:window-y="316"
     inkscape:window-maximized="0"
     inkscape:current-layer="svg2453" />
  <metadata
     id="metadata35">
    <rdf:RDF>
      <cc:Work
         rdf:about="">
        <dc:format>image/svg+xml</dc:format>
        <dc:type
           rdf:resource="http://purl.org/dc/dcmitype/StillImage" />
      </cc:Work>
    </rdf:RDF>
  </metadata>
  <defs
     id="defs2455">
    <linearGradient
       id="linearGradient3104-6">
      <stop
         id="stop3106-3"
         style="stop-color:#000000;stop-opacity:0.31782946"
         offset="0" />
      <stop
         id="stop3108-9"
         style="stop-color:#000000;stop-opacity:0.24031007"
         offset="1" />
    </linearGradient>
    <linearGradient
       id="linearGradient3977-4">
      <stop
         id="stop3979-7"
         style="stop-color:#ffffff;stop-opacity:1"
         offset="0" />
      <stop
         id="stop3981-6"
         style="stop-color:#ffffff;stop-opacity:0.23529412"
         offset="0.01214366" />
      <stop
         id="stop3983-5"
         style="stop-color:#ffffff;stop-opacity:0.15686275"
         offset="0.98781353" />
      <stop
         id="stop3985-6"
         style="stop-color:#ffffff;stop-opacity:0.39215687"
         offset="1" />
    </linearGradient>
    <linearGradient
       id="linearGradient3600-9">
      <stop
         id="stop3602-3"
         style="stop-color:#f4f4f4;stop-opacity:1"
         offset="0" />
      <stop
         id="stop3604-7"
         style="stop-color:#dbdbdb;stop-opacity:1"
         offset="1" />
    </linearGradient>
    <linearGradient
       x1="-51.786404"
       y1="50.786446"
       x2="-51.786404"
       y2="2.9062471"
       id="linearGradient3163"
       xlink:href="#linearGradient3104-6"
       gradientUnits="userSpaceOnUse"
       gradientTransform="matrix(1.3612077,0,0,0.95572049,91.691477,7.7856436)" />
    <linearGradient
       x1="23.99999"
       y1="5.8641062"
       x2="23.99999"
       y2="42.100208"
       id="linearGradient3166"
       xlink:href="#linearGradient3977-4"
       gradientUnits="userSpaceOnUse"
       gradientTransform="matrix(1.5405406,0,0,1.216213,-4.9729707,5.8108651)" />
    <linearGradient
       x1="25.132275"
       y1="0.98520643"
       x2="25.132275"
       y2="47.013336"
       id="linearGradient3169"
       xlink:href="#linearGradient3600-9"
       gradientUnits="userSpaceOnUse"
       gradientTransform="matrix(1.6571391,0,0,0.99949772,-7.7713459,9.4785876)" />
    <linearGradient
       x1="164.28023"
       y1="241.65149"
       x2="164.28023"
       y2="156.78416"
       id="linearGradient3077-9"
       xlink:href="#linearGradient4785-3-8"
       gradientUnits="userSpaceOnUse"
       gradientTransform="matrix(0.59909774,0,0,0.45636141,-68.322625,-55.841327)" />
    <linearGradient
       id="linearGradient4785-3-8">
      <stop
         id="stop4787-5-5"
         style="stop-color:#262626;stop-opacity:1"
         offset="0" />
      <stop
         id="stop4789-1-1"
         style="stop-color:#4d4d4d;stop-opacity:1"
         offset="1" />
    </linearGradient>
    <linearGradient
       x1="30.305618"
       y1="6.9420786"
       x2="30.305618"
       y2="36.268814"
       id="linearGradient3079-1"
       xlink:href="#linearGradient3610-302-9-7-6"
       gradientUnits="userSpaceOnUse"
       gradientTransform="matrix(1.3600493,0,0,1.3332146,5.0433787,6.3715953)" />
    <linearGradient
       id="linearGradient3610-302-9-7-6">
      <stop
         id="stop3796-3-8-6"
         style="stop-color:#1d1d1d;stop-opacity:1"
         offset="0" />
      <stop
         id="stop3798-1-9-9"
         style="stop-color:#000000;stop-opacity:1"
         offset="1" />
    </linearGradient>
    <radialGradient
       gradientTransform="matrix(2.003784,0,0,1.4,27.98813,-17.4)"
       gradientUnits="userSpaceOnUse"
       xlink:href="#linearGradient3688-464-309-8"
       id="radialGradient4093-8"
       fy="43.5"
       fx="4.9929786"
       r="2.5"
       cy="43.5"
       cx="4.9929786" />
    <linearGradient
       id="linearGradient3688-464-309-8">
      <stop
         offset="0"
         style="stop-color:#181818;stop-opacity:1"
         id="stop2889-9" />
      <stop
         offset="1"
         style="stop-color:#181818;stop-opacity:0"
         id="stop2891-4" />
    </linearGradient>
    <radialGradient
       gradientTransform="matrix(2.003784,0,0,1.4,-20.01187,-104.4)"
       gradientUnits="userSpaceOnUse"
       xlink:href="#linearGradient3688-464-309-8"
       id="radialGradient4095-5"
       fy="43.5"
       fx="4.9929786"
       r="2.5"
       cy="43.5"
       cx="4.9929786" />
    <linearGradient
       gradientUnits="userSpaceOnUse"
       xlink:href="#linearGradient3702-501-757-0"
       id="linearGradient4097-9"
       y2="39.999443"
       x2="25.058096"
       y1="47.027729"
       x1="25.058096" />
    <linearGradient
       id="linearGradient3702-501-757-0">
      <stop
         offset="0"
         style="stop-color:#181818;stop-opacity:0"
         id="stop2895-0" />
      <stop
         offset="0.5"
         style="stop-color:#181818;stop-opacity:1"
         id="stop2897-2" />
      <stop
         offset="1"
         style="stop-color:#181818;stop-opacity:0"
         id="stop2899-6" />
    </linearGradient>
    <linearGradient
       id="linearGradient3654-601">
      <stop
         id="stop3808"
         style="stop-color:#ffffff;stop-opacity:1"
         offset="0" />
      <stop
         id="stop3810"
         style="stop-color:#ffffff;stop-opacity:0"
         offset="1" />
    </linearGradient>
    <linearGradient
       x1="24.285715"
       y1="34"
       x2="24.285715"
       y2="38.449261"
       id="linearGradient20256"
       xlink:href="#linearGradient3654-601"
       gradientUnits="userSpaceOnUse"
       gradientTransform="matrix(1.24,0,0,1.2499997,2.8599999,0.50000929)" />
  </defs>
  <g
     style="display:inline;stroke-width:2"
     id="g2036"
     transform="matrix(1.5124994,0,0,0.27777804,-4.3000007,46.94444)">
    <g
       style="opacity:0.4;stroke-width:2"
       id="g3712"
       transform="matrix(1.052632,0,0,1.285713,-1.263158,-13.42854)">
      <rect
         style="fill:url(#radialGradient4093-8);fill-opacity:1;stroke:none;stroke-width:2"
         id="rect2801-5"
         y="40"
         x="38"
         height="7"
         width="5" />
      <rect
         style="fill:url(#radialGradient4095-5);fill-opacity:1;stroke:none;stroke-width:2"
         id="rect3696-7"
         transform="scale(-1)"
         y="-47"
         x="-10"
         height="7"
         width="5" />
      <rect
         style="fill:url(#linearGradient4097-9);fill-opacity:1;stroke:none;stroke-width:2"
         id="rect3700-7"
         y="40"
         x="10"
         height="7.0000005"
         width="28" />
    </g>
  </g>
  <path
     d="m 2.9999928,12.000016 c 13.2907442,0 57.9999312,0.0032 57.9999312,0.0032 l 6.9e-5,45.996828 c 0,0 -38.666666,0 -58.0000002,0 0,-15.333349 0,-30.666461 0,-45.999746 z"
     id="path4160-6"
     style="fill:url(#linearGradient3169);fill-opacity:1;stroke:none;display:inline" />
  <rect
     width="51"
     height="39"
     x="6.4999928"
     y="15.50003"
     id="rect3180"
     style="color:#000000;display:inline;overflow:visible;visibility:visible;fill:url(#linearGradient3077-9);fill-opacity:1;fill-rule:nonzero;stroke:url(#linearGradient3079-1);stroke-width:1;stroke-linecap:round;stroke-linejoin:miter;stroke-miterlimit:4;stroke-dasharray:none;stroke-dashoffset:0;stroke-opacity:1;marker:none;enable-background:accumulate" />
  <path
     d="m 60.499993,57.500016 -57.0000004,0 0,-45 57.0000004,0 z"
     id="rect6741-1-8"
     style="fill:none;stroke:url(#linearGradient3166);stroke-width:1;stroke-linecap:round;stroke-linejoin:miter;stroke-miterlimit:4;stroke-opacity:1;stroke-dasharray:none;stroke-dashoffset:0" />
  <path
     d="m 2.499962,11.500038 c 13.5199,0 59.000015,0.0032 59.000015,0.0032 l 6.1e-5,46.996892 c 0,0 -39.333383,0 -59.0000761,0 0,-15.66674 0,-31.333322 0,-46.999879 z"
     id="path4160-6-1"
     style="fill:none;stroke:url(#linearGradient3163);stroke-width:0.9999218;stroke-linecap:butt;stroke-linejoin:round;stroke-miterlimit:4;stroke-opacity:1;stroke-dasharray:none;stroke-dashoffset:0;display:inline" />
  <path
     d="m 30.552512,30.762136 c -0.360164,0.348943 -0.72033,0.697886 -1.080494,1.046831 -2.019583,-2.112822 -5.330143,-3.123617 -8.013662,-1.753649 -2.681637,1.161833 -4.210065,4.546494 -3.15366,7.358558 0.933219,2.86409 4.025105,4.565707 6.889549,4.170355 2.275948,-0.189935 4.368655,-2.04908 4.618981,-4.415105 -1.481729,0 -2.963459,0 -4.445187,0 0,-0.458795 0,-0.91759 0,-1.376387 2.00302,0 4.006039,0 6.00906,0 0.06956,2.527514 -1.113143,5.177854 -3.379587,6.357238 -2.362352,1.202618 -5.310965,1.097456 -7.648733,-0.115088 -2.693461,-1.444833 -4.301171,-4.709022 -3.736017,-7.781309 0.473857,-3.309365 3.373288,-5.95806 6.615464,-6.196908 2.702788,-0.321546 5.415183,0.744582 7.324286,2.70546 z"
     id="path19698"
     style="font-style:normal;font-variant:normal;font-weight:normal;font-stretch:normal;font-size:15.9068px;font-family:'Century Gothic';-inkscape-font-specification:'Century Gothic';fill:#ffffff;fill-opacity:1;stroke:none;stroke-width:0.999996" />
  <path
     d="m 35.099999,28.000005 c 0.413335,0 0.826667,0 1.240001,0 0,4.999997 0,9.999996 0,14.999995 -0.413334,0 -0.826666,0 -1.240001,0 0,-4.999999 0,-9.999998 0,-14.999995 z"
     id="path19696"
     style="font-style:normal;font-variant:normal;font-weight:normal;font-stretch:normal;font-size:15.9068px;font-family:'Century Gothic';-inkscape-font-specification:'Century Gothic';fill:#ffffff;fill-opacity:1;stroke:none;stroke-width:0.999996" />
  <path
     d="m 40.059999,28.000005 c 2.480001,0 4.960002,0 7.440001,0 0,0.492862 0,0.985723 0,1.478584 -1.988709,0 -3.977421,0 -5.966131,0 0,1.563563 0,3.127125 0,4.690685 1.98871,0 3.977422,0 5.966131,0 0,0.492862 0,0.985723 0,1.478584 -1.988709,0 -3.977421,0 -5.966131,0 0,2.450715 0,4.901428 0,7.352142 -0.491289,0 -0.98258,0 -1.47387,0 0,-4.999999 0,-9.999998 0,-14.999995 z"
     id="text19687"
     style="font-style:normal;font-variant:normal;font-weight:normal;font-stretch:normal;font-size:15.9068px;font-family:'Century Gothic';-inkscape-font-specification:'Century Gothic';fill:#ffffff;fill-opacity:1;stroke:none;stroke-width:0.999996" />
  <path
     d="m 30.552512,55.237864 c -0.360164,-0.34894 -0.72033,-0.697885 -1.080494,-1.04683 -2.019583,2.11282 -5.330143,3.123615 -8.013662,1.75365 -2.681637,-1.161835 -4.210065,-4.546494 -3.15366,-7.358558 0.933219,-2.864091 4.025105,-4.565708 6.889549,-4.170356 2.275948,0.189935 4.368655,2.04908 4.618981,4.415105 -1.481729,0 -2.963459,0 -4.445187,0 0,0.458795 0,0.91759 0,1.376385 2.00302,0 4.006039,0 6.00906,0 0.06956,-2.527512 -1.113143,-5.177853 -3.379587,-6.357236 -2.362352,-1.202619 -5.310965,-1.097456 -7.648733,0.115088 -2.693461,1.444833 -4.301171,4.709022 -3.736017,7.781308 0.473857,3.309364 3.373288,5.958064 6.615464,6.196908 2.702788,0.321545 5.415183,-0.744579 7.324286,-2.705459 z m 4.547487,2.762134 c 0.413335,0 0.826667,0 1.240001,0 0,-4.999998 0,-9.999999 0,-14.999998 -0.413334,0 -0.826666,0 -1.240001,0 0,4.999999 0,10 0,14.999998 z m 4.96,0 c 2.480001,0 4.960002,0 7.440001,0 0,-0.492864 0,-0.985724 0,-1.478584 -1.988709,0 -3.977421,0 -5.966131,0 0,-1.563565 0,-3.127125 0,-4.690689 1.98871,0 3.977422,0 5.966131,0 0,-0.49286 0,-0.98572 0,-1.478585 -1.988709,0 -3.977421,0 -5.966131,0 0,-2.450712 0,-4.901425 0,-7.35214 -0.491289,0 -0.98258,0 -1.47387,0 0,4.999999 0,10 0,14.999998 z"
     id="path19707"
     style="font-style:normal;font-variant:normal;font-weight:normal;font-stretch:normal;font-size:15.9068px;font-family:'Century Gothic';-inkscape-font-specification:'Century Gothic';opacity:0.25;fill:url(#linearGradient20256);fill-opacity:1;stroke:none;stroke-width:0.999996" />
</svg>
