<?xml version="1.0" encoding="UTF-8" standalone="no"?>
<svg
   version="1.0"
   width="64"
   height="64"
   id="svg2453"
   sodipodi:docname="image-png.svg"
   inkscape:version="1.1.2 (0a00cf5339, 2022-02-04)"
   xmlns:inkscape="http://www.inkscape.org/namespaces/inkscape"
   xmlns:sodipodi="http://sodipodi.sourceforge.net/DTD/sodipodi-0.dtd"
   xmlns:xlink="http://www.w3.org/1999/xlink"
   xmlns="http://www.w3.org/2000/svg"
   xmlns:svg="http://www.w3.org/2000/svg"
   xmlns:rdf="http://www.w3.org/1999/02/22-rdf-syntax-ns#"
   xmlns:cc="http://creativecommons.org/ns#"
   xmlns:dc="http://purl.org/dc/elements/1.1/">
  <sodipodi:namedview
     id="namedview47"
     pagecolor="#ffffff"
     bordercolor="#666666"
     borderopacity="1.0"
     inkscape:pageshadow="2"
     inkscape:pageopacity="0.0"
     inkscape:pagecheckerboard="0"
     showgrid="false"
     inkscape:snap-center="true"
     inkscape:snap-object-midpoints="true"
     inkscape:zoom="10.65625"
     inkscape:cx="33.1261"
     inkscape:cy="40.02346"
     inkscape:window-width="1317"
     inkscape:window-height="890"
     inkscape:window-x="601"
     inkscape:window-y="138"
     inkscape:window-maximized="0"
     inkscape:current-layer="svg2453" />
  <metadata
     id="metadata35">
    <rdf:RDF>
      <cc:Work
         rdf:about="">
        <dc:format>image/svg+xml</dc:format>
        <dc:type
           rdf:resource="http://purl.org/dc/dcmitype/StillImage" />
      </cc:Work>
    </rdf:RDF>
  </metadata>
  <defs
     id="defs2455">
    <linearGradient
       id="linearGradient3104-6">
      <stop
         id="stop3106-3"
         style="stop-color:#000000;stop-opacity:0.31782946"
         offset="0" />
      <stop
         id="stop3108-9"
         style="stop-color:#000000;stop-opacity:0.24031007"
         offset="1" />
    </linearGradient>
    <linearGradient
       id="linearGradient3977-4">
      <stop
         id="stop3979-7"
         style="stop-color:#ffffff;stop-opacity:1"
         offset="0" />
      <stop
         id="stop3981-6"
         style="stop-color:#ffffff;stop-opacity:0.23529412"
         offset="0.01214366" />
      <stop
         id="stop3983-5"
         style="stop-color:#ffffff;stop-opacity:0.15686275"
         offset="0.98781353" />
      <stop
         id="stop3985-6"
         style="stop-color:#ffffff;stop-opacity:0.39215687"
         offset="1" />
    </linearGradient>
    <linearGradient
       id="linearGradient3600-9">
      <stop
         id="stop3602-3"
         style="stop-color:#f4f4f4;stop-opacity:1"
         offset="0" />
      <stop
         id="stop3604-7"
         style="stop-color:#dbdbdb;stop-opacity:1"
         offset="1" />
    </linearGradient>
    <linearGradient
       x1="-51.786404"
       y1="50.786446"
       x2="-51.786404"
       y2="2.9062471"
       id="linearGradient3163"
       xlink:href="#linearGradient3104-6"
       gradientUnits="userSpaceOnUse"
       gradientTransform="matrix(1.3612077,0,0,0.95572049,91.691477,7.7856436)" />
    <linearGradient
       x1="23.99999"
       y1="5.8641062"
       x2="23.99999"
       y2="42.100208"
       id="linearGradient3166"
       xlink:href="#linearGradient3977-4"
       gradientUnits="userSpaceOnUse"
       gradientTransform="matrix(1.5405406,0,0,1.216213,-4.9729707,5.8108651)" />
    <linearGradient
       x1="25.132275"
       y1="0.98520643"
       x2="25.132275"
       y2="47.013336"
       id="linearGradient3169"
       xlink:href="#linearGradient3600-9"
       gradientUnits="userSpaceOnUse"
       gradientTransform="matrix(1.6571391,0,0,0.99949772,-7.7713459,9.4785876)" />
    <linearGradient
       x1="164.28023"
       y1="241.65149"
       x2="164.28023"
       y2="156.78416"
       id="linearGradient3077-9"
       xlink:href="#linearGradient4785-3-8"
       gradientUnits="userSpaceOnUse"
       gradientTransform="matrix(0.59909774,0,0,0.45636141,-68.322625,-55.841327)" />
    <linearGradient
       id="linearGradient4785-3-8">
      <stop
         id="stop4787-5-5"
         style="stop-color:#262626;stop-opacity:1"
         offset="0" />
      <stop
         id="stop4789-1-1"
         style="stop-color:#4d4d4d;stop-opacity:1"
         offset="1" />
    </linearGradient>
    <linearGradient
       x1="30.305618"
       y1="6.9420786"
       x2="30.305618"
       y2="36.268814"
       id="linearGradient3079-1"
       xlink:href="#linearGradient3610-302-9-7-6"
       gradientUnits="userSpaceOnUse"
       gradientTransform="matrix(1.3600493,0,0,1.3332146,5.0433787,6.3715953)" />
    <linearGradient
       id="linearGradient3610-302-9-7-6">
      <stop
         id="stop3796-3-8-6"
         style="stop-color:#1d1d1d;stop-opacity:1"
         offset="0" />
      <stop
         id="stop3798-1-9-9"
         style="stop-color:#000000;stop-opacity:1"
         offset="1" />
    </linearGradient>
    <radialGradient
       gradientTransform="matrix(2.003784,0,0,1.4,27.98813,-17.4)"
       gradientUnits="userSpaceOnUse"
       xlink:href="#linearGradient3688-464-309-8"
       id="radialGradient4093-8"
       fy="43.5"
       fx="4.9929786"
       r="2.5"
       cy="43.5"
       cx="4.9929786" />
    <linearGradient
       id="linearGradient3688-464-309-8">
      <stop
         offset="0"
         style="stop-color:#181818;stop-opacity:1"
         id="stop2889-9" />
      <stop
         offset="1"
         style="stop-color:#181818;stop-opacity:0"
         id="stop2891-4" />
    </linearGradient>
    <radialGradient
       gradientTransform="matrix(2.003784,0,0,1.4,-20.01187,-104.4)"
       gradientUnits="userSpaceOnUse"
       xlink:href="#linearGradient3688-464-309-8"
       id="radialGradient4095-5"
       fy="43.5"
       fx="4.9929786"
       r="2.5"
       cy="43.5"
       cx="4.9929786" />
    <linearGradient
       gradientUnits="userSpaceOnUse"
       xlink:href="#linearGradient3702-501-757-0"
       id="linearGradient4097-9"
       y2="39.999443"
       x2="25.058096"
       y1="47.027729"
       x1="25.058096" />
    <linearGradient
       id="linearGradient3702-501-757-0">
      <stop
         offset="0"
         style="stop-color:#181818;stop-opacity:0"
         id="stop2895-0" />
      <stop
         offset="0.5"
         style="stop-color:#181818;stop-opacity:1"
         id="stop2897-2" />
      <stop
         offset="1"
         style="stop-color:#181818;stop-opacity:0"
         id="stop2899-6" />
    </linearGradient>
    <linearGradient
       x1="19.561541"
       y1="-30.555109"
       x2="19.561541"
       y2="-35.125931"
       id="linearGradient2618"
       xlink:href="#linearGradient3654-601"
       gradientUnits="userSpaceOnUse"
       gradientTransform="matrix(1.2327712,0,0,-1.2678265,3.0011404,3.9452407)" />
    <linearGradient
       id="linearGradient3654-601">
      <stop
         id="stop3808"
         style="stop-color:#ffffff;stop-opacity:1"
         offset="0" />
      <stop
         id="stop3810"
         style="stop-color:#ffffff;stop-opacity:0"
         offset="1" />
    </linearGradient>
    <linearGradient
       x1="19.561541"
       y1="-30.555109"
       x2="19.561541"
       y2="-35.125931"
       id="linearGradient2615"
       xlink:href="#linearGradient3654-601"
       gradientUnits="userSpaceOnUse"
       gradientTransform="matrix(1.2712952,0,0,-1.2678265,2.1140714,3.9452407)" />
    <linearGradient
       x1="19.561541"
       y1="-30.555109"
       x2="19.561541"
       y2="-35.125931"
       id="linearGradient2612"
       xlink:href="#linearGradient3654-601"
       gradientUnits="userSpaceOnUse"
       gradientTransform="matrix(1.2327712,0,0,-1.2678265,3.0011404,4.2480536)" />
  </defs>
  <g
     style="display:inline;stroke-width:2"
     id="g2036"
     transform="matrix(1.5124994,0,0,0.27777804,-4.3000007,46.94444)">
    <g
       style="opacity:0.4;stroke-width:2"
       id="g3712"
       transform="matrix(1.052632,0,0,1.285713,-1.263158,-13.42854)">
      <rect
         style="fill:url(#radialGradient4093-8);fill-opacity:1;stroke:none;stroke-width:2"
         id="rect2801-5"
         y="40"
         x="38"
         height="7"
         width="5" />
      <rect
         style="fill:url(#radialGradient4095-5);fill-opacity:1;stroke:none;stroke-width:2"
         id="rect3696-7"
         transform="scale(-1)"
         y="-47"
         x="-10"
         height="7"
         width="5" />
      <rect
         style="fill:url(#linearGradient4097-9);fill-opacity:1;stroke:none;stroke-width:2"
         id="rect3700-7"
         y="40"
         x="10"
         height="7.0000005"
         width="28" />
    </g>
  </g>
  <path
     d="m 2.9999928,12.000016 c 13.2907442,0 57.9999312,0.0032 57.9999312,0.0032 l 6.9e-5,45.996828 c 0,0 -38.666666,0 -58.0000002,0 0,-15.333349 0,-30.666461 0,-45.999746 z"
     id="path4160-6"
     style="fill:url(#linearGradient3169);fill-opacity:1;stroke:none;display:inline" />
  <rect
     width="51"
     height="39"
     x="6.4999928"
     y="15.50003"
     id="rect3180"
     style="color:#000000;display:inline;overflow:visible;visibility:visible;fill:url(#linearGradient3077-9);fill-opacity:1;fill-rule:nonzero;stroke:url(#linearGradient3079-1);stroke-width:1;stroke-linecap:round;stroke-linejoin:miter;stroke-miterlimit:4;stroke-dasharray:none;stroke-dashoffset:0;stroke-opacity:1;marker:none;enable-background:accumulate" />
  <path
     d="m 60.499993,57.500016 -57.0000004,0 0,-45 57.0000004,0 z"
     id="rect6741-1-8"
     style="fill:none;stroke:url(#linearGradient3166);stroke-width:1;stroke-linecap:round;stroke-linejoin:miter;stroke-miterlimit:4;stroke-opacity:1;stroke-dasharray:none;stroke-dashoffset:0" />
  <path
     d="m 2.499962,11.500038 c 13.5199,0 59.000015,0.0032 59.000015,0.0032 l 6.1e-5,46.996892 c 0,0 -39.333383,0 -59.0000761,0 0,-15.66674 0,-31.333322 0,-46.999879 z"
     id="path4160-6-1"
     style="fill:none;stroke:url(#linearGradient3163);stroke-width:0.9999218;stroke-linecap:butt;stroke-linejoin:round;stroke-miterlimit:4;stroke-opacity:1;stroke-dasharray:none;stroke-dashoffset:0;display:inline" />
  <path
     d="m 13,28.011948 c 0,4.929929 0,9.852791 0,14.782719 0.134729,0.414056 0.992442,0.09125 1.406091,0.204747 0,-2.320519 0,-4.640875 0,-6.961393 1.985675,-0.08295 4.138975,0.307082 5.897768,-0.900884 2.234738,-1.67161 1.629573,-6.02977 -1.054568,-6.797596 C 17.198067,27.834645 15.089146,28.072965 13,28.011948 Z m 1.406091,1.474174 c 1.371838,0.03504 2.743297,-0.126382 4.101096,0.12285 1.958566,0.356752 2.343902,3.565963 0.62493,4.545379 -1.487257,0.716696 -3.144228,0.346091 -4.726026,0.409495 0,-1.696283 0,-3.381438 0,-5.077724 z"
     id="path3672"
     style="font-style:normal;font-variant:normal;font-weight:normal;font-stretch:normal;font-size:15.6893px;font-family:'Century Gothic';-inkscape-font-specification:'Century Gothic';fill:#ffffff;fill-opacity:1;stroke:none;stroke-width:1px;stroke-linecap:butt;stroke-linejoin:miter;stroke-opacity:1" />
  <path
     d="m 24.248721,43.008644 c 0,-4.990466 0,-9.980937 0,-14.971406 0.567166,-0.06601 0.767434,0.708854 1.166377,1.028381 2.890055,3.477238 5.780111,6.954477 8.670167,10.431717 0,-3.820033 0,-7.640064 0,-11.460098 0.416777,0.116922 1.284516,-0.237439 1.412176,0.181617 0,4.929933 0,9.859862 0,14.789789 -0.573071,0.07231 -0.776861,-0.704097 -1.178204,-1.026476 -2.863389,-3.430378 -5.726776,-6.860757 -8.590163,-10.291132 0,3.772538 0,7.545073 0,11.317608 -0.493449,0 -0.986902,0 -1.480353,0 z"
     id="path3668"
     style="font-style:normal;font-variant:normal;font-weight:normal;font-stretch:normal;font-size:15.6893px;font-family:'Century Gothic';-inkscape-font-specification:'Century Gothic';fill:#ffffff;fill-opacity:1;stroke:none;stroke-width:1px;stroke-linecap:butt;stroke-linejoin:miter;stroke-opacity:1" />
  <path
     d="m 52.173816,30.765816 c -0.407311,0.237315 -0.817233,1.135781 -1.222709,0.904296 -2.105735,-2.137209 -5.563066,-3.004767 -8.211863,-1.419065 -2.722803,1.398713 -3.94889,5.16777 -2.454123,7.927894 1.733065,3.738413 7.385724,4.783215 10.061271,1.563728 0.409113,-0.560091 1.819766,-2.700009 0.500954,-2.55684 -1.279806,0 -2.559608,0 -3.839413,0 0.12361,-0.419244 -0.274272,-1.37485 0.252791,-1.379189 1.911572,0 3.823141,0 5.734724,0 0.101871,2.881728 -1.513251,5.889024 -4.286483,6.779912 -3.222511,1.076908 -7.222107,0.184871 -9.198555,-2.803062 -2.455108,-3.325145 -1.356497,-8.623463 2.175151,-10.659743 3.329669,-2.046065 7.83735,-1.180208 10.488255,1.642069 z"
     id="text3634"
     style="font-style:normal;font-variant:normal;font-weight:normal;font-stretch:normal;font-size:15.6893px;font-family:'Century Gothic';-inkscape-font-specification:'Century Gothic';fill:#ffffff;fill-opacity:1;stroke:none;stroke-width:1px;stroke-linecap:butt;stroke-linejoin:miter;stroke-opacity:1" />
  <path
     d="m 13,57.330372 c 2.089144,-0.05817 4.217544,0.182859 6.268766,-0.298965 2.68414,-0.732743 3.277564,-4.880643 1.042824,-6.475862 -1.758794,-1.152766 -3.937639,-0.789837 -5.923316,-0.868965 0,-2.21447 0,-4.428937 0,-6.643405 -0.413652,0.108256 -1.253545,-0.221812 -1.388274,0.17332 0,4.704624 0,9.409252 0,14.113877 z"
     id="path3681"
     style="font-style:normal;font-variant:normal;font-weight:normal;font-stretch:normal;font-size:15.6893px;font-family:'Century Gothic';-inkscape-font-specification:'Century Gothic';opacity:0.25;fill:url(#linearGradient2618);fill-opacity:1;stroke:none;stroke-width:1px;stroke-linecap:butt;stroke-linejoin:miter;stroke-opacity:1" />
  <path
     d="m 24.248721,43.043175 c 0,4.762403 0,9.524804 0,14.287197 0.567166,0.06299 0.767434,-0.676453 1.166377,-0.981379 2.890055,-3.31832 5.780111,-6.636652 8.670167,-9.954977 0,3.645454 0,7.290906 0,10.936356 0.416777,-0.111549 1.284516,0.226591 1.412176,-0.173308 0,-4.70463 0,-9.409256 0,-14.113889 -0.573071,-0.06902 -0.776861,0.67192 -1.178204,0.979572 -2.863389,3.273602 -5.726776,6.547215 -8.590163,9.820823 0,-3.600133 0,-7.20026 0,-10.800395 -0.493449,0 -0.986902,0 -1.480353,0 z"
     id="path3677"
     style="font-style:normal;font-variant:normal;font-weight:normal;font-stretch:normal;font-size:15.6893px;font-family:'Century Gothic';-inkscape-font-specification:'Century Gothic';opacity:0.25;fill:url(#linearGradient2615);fill-opacity:1;stroke:none;stroke-width:1px;stroke-linecap:butt;stroke-linejoin:miter;stroke-opacity:1" />
  <path
     d="m 52.173816,55.234183 c -0.407311,-0.237313 -0.817233,-1.135778 -1.222709,-0.904291 -2.105735,2.137199 -5.563066,3.004758 -8.211863,1.419055 -2.722803,-1.398706 -3.94889,-5.167762 -2.454123,-7.927884 1.733065,-3.738418 7.385724,-4.783216 10.061271,-1.563733 0.409113,0.560097 1.819766,2.700012 0.500954,2.556841 -1.279806,0 -2.559608,0 -3.839413,-6e-6 0.12361,0.419248 -0.274272,1.374854 0.252791,1.37919 1.911572,0 3.823141,0 5.734724,0 0.101871,-2.881726 -1.513251,-5.889016 -4.286483,-6.779905 -3.222511,-1.076911 -7.222107,-0.184874 -9.198555,2.803058 -2.45512,3.325151 -1.356497,8.623466 2.175151,10.659742 3.329669,2.046068 7.83735,1.180206 10.488255,-1.642067 z"
     id="text3650"
     style="font-style:normal;font-variant:normal;font-weight:normal;font-stretch:normal;font-size:15.6893px;font-family:'Century Gothic';-inkscape-font-specification:'Century Gothic';opacity:0.25;fill:url(#linearGradient2612);fill-opacity:1;stroke:none;stroke-width:1px;stroke-linecap:butt;stroke-linejoin:miter;stroke-opacity:1" />
</svg>
