<?xml version="1.0" encoding="UTF-8" standalone="no"?>
<svg
   height="48"
   width="48"
   id="svg2"
   version="1.1"
   sodipodi:docname="audio-volume-muted-blocking.svg"
   inkscape:version="1.2.2 (b0a8486541, 2022-12-01)"
   xmlns:inkscape="http://www.inkscape.org/namespaces/inkscape"
   xmlns:sodipodi="http://sodipodi.sourceforge.net/DTD/sodipodi-0.dtd"
   xmlns:xlink="http://www.w3.org/1999/xlink"
   xmlns="http://www.w3.org/2000/svg"
   xmlns:svg="http://www.w3.org/2000/svg"
   xmlns:rdf="http://www.w3.org/1999/02/22-rdf-syntax-ns#"
   xmlns:cc="http://creativecommons.org/ns#"
   xmlns:dc="http://purl.org/dc/elements/1.1/">
  <sodipodi:namedview
     id="namedview49079"
     pagecolor="#ffffff"
     bordercolor="#000000"
     borderopacity="0.25"
     inkscape:showpageshadow="2"
     inkscape:pageopacity="0.0"
     inkscape:pagecheckerboard="0"
     inkscape:deskcolor="#d1d1d1"
     showgrid="false"
     inkscape:zoom="8"
     inkscape:cx="15.8125"
     inkscape:cy="31.875"
     inkscape:window-width="1493"
     inkscape:window-height="755"
     inkscape:window-x="905"
     inkscape:window-y="173"
     inkscape:window-maximized="0"
     inkscape:current-layer="svg2"
     showguides="true" />
  <metadata
     id="metadata16">
    <rdf:RDF>
      <cc:Work
         rdf:about="">
        <dc:format>image/svg+xml</dc:format>
        <dc:type
           rdf:resource="http://purl.org/dc/dcmitype/StillImage" />
      </cc:Work>
    </rdf:RDF>
  </metadata>
  <defs
     id="defs14">
    <linearGradient
       inkscape:collect="always"
       id="linearGradient10540">
      <stop
         style="stop-color:#ffffff;stop-opacity:0.502"
         offset="0"
         id="stop10536" />
      <stop
         style="stop-color:#ffffff;stop-opacity:0;"
         offset="1"
         id="stop10538" />
    </linearGradient>
    <linearGradient
       id="linearGradient5662">
      <stop
         id="stop5654"
         style="stop-color:#ffffff;stop-opacity:1"
         offset="0" />
      <stop
         id="stop5656"
         style="stop-color:#ffffff;stop-opacity:0.23529412"
         offset="0.02474486" />
      <stop
         id="stop5658"
         style="stop-color:#ffffff;stop-opacity:0.15686275"
         offset="0.31732139" />
      <stop
         id="stop5660"
         style="stop-color:#ffffff;stop-opacity:0.5;"
         offset="1" />
    </linearGradient>
    <linearGradient
       inkscape:collect="always"
       xlink:href="#linearGradient10540"
       id="linearGradient10595"
       gradientUnits="userSpaceOnUse"
       x1="34.361912"
       y1="11.33008"
       x2="34.361912"
       y2="48" />
    <linearGradient
       inkscape:collect="always"
       xlink:href="#linearGradient964"
       id="linearGradient966"
       x1="4.9075637"
       y1="1.0908769"
       x2="4.9075637"
       y2="21.155916"
       gradientUnits="userSpaceOnUse"
       gradientTransform="matrix(2.6665598,0,0,2.4606588,3.6667144,4.3157242)" />
    <linearGradient
       inkscape:collect="always"
       id="linearGradient964">
      <stop
         style="stop-color:#fafafa;stop-opacity:1"
         offset="0"
         id="stop960" />
      <stop
         style="stop-color:#95a3ab;stop-opacity:1"
         offset="1"
         id="stop962" />
    </linearGradient>
    <linearGradient
       inkscape:collect="always"
       xlink:href="#linearGradient5662"
       id="linearGradient5652"
       x1="2.9071088"
       y1="5.0097084"
       x2="5.0378942"
       y2="11.163724"
       gradientUnits="userSpaceOnUse"
       gradientTransform="matrix(3.1394399,0,0,2.8018281,2.011958,1.5761231)" />
  </defs>
  <path
     id="path6405"
     style="color:#000000;font-variation-settings:normal;vector-effect:none;fill:url(#linearGradient966);fill-opacity:1;stroke:none;stroke-width:0.999996;stroke-linecap:butt;stroke-linejoin:round;stroke-miterlimit:4;stroke-dasharray:none;stroke-dashoffset:0;stroke-opacity:1;-inkscape-stroke:none;paint-order:markers fill stroke;stop-color:#000000"
     d="M 19.492188 8 C 19.138532 8.00106 18.789241 8.1268364 18.511719 8.3691406 L 14.078125 12.25 L 21 19.171875 L 21 9.5 C 20.999646 8.9103776 20.65607 8.378361 20.119141 8.1347656 C 19.917876 8.0433613 19.70438 7.999364 19.492188 8 z M 11.056641 14.884766 A 0.50004699 0.50004699 0 0 1 10.748047 15 L 6.5 15 C 5.6656678 15.000082 5.0000834 15.665637 5 16.5 L 5 31.5 C 5.0000834 32.334363 5.6656673 32.999917 6.5 33 L 10.748047 33 A 0.50004699 0.50004699 0 0 1 11.078125 33.123047 L 18.511719 39.628906 L 18.513672 39.628906 C 19.012343 40.063708 19.614167 40.094529 20.119141 39.865234 C 20.624574 39.635711 20.999913 39.162667 21 38.5 L 21 24.828125 L 11.056641 14.884766 z " />
  <path
     id="path7025"
     style="color:#000000;fill:#0e141f;fill-opacity:0.46;stroke-linejoin:round;-inkscape-stroke:none;paint-order:stroke fill markers"
     d="M 19.488281 7 C 19.370343 7.0007094 19.253199 7.0102484 19.136719 7.0273438 C 18.670798 7.0957257 18.224231 7.2952228 17.855469 7.6171875 A 0.50004699 0.50004699 0 0 0 17.853516 7.6171875 L 13.369141 11.541016 L 14.078125 12.25 L 18.511719 8.3691406 C 18.955756 7.9814533 19.582434 7.8910204 20.119141 8.1347656 C 20.656071 8.3783612 20.999646 8.910377 21 9.5 L 21 19.171875 L 22 20.171875 L 22 9.4980469 C 21.999412 8.518734 21.425022 7.627258 20.533203 7.2226562 C 20.19891 7.070837 19.842095 6.9978719 19.488281 7 z M 6.5 14 C 5.1252898 14.000136 4.0001374 15.12528 4 16.5 L 4 31.5 C 4.0001374 32.87472 5.1252903 33.999863 6.5 34 L 10.560547 34 L 17.853516 40.380859 A 0.50004699 0.50004699 0 0 0 17.855469 40.382812 C 18.649964 41.077139 19.703907 41.15195 20.533203 40.775391 C 21.362452 40.398783 21.999862 39.555141 22 38.5 L 22 25.828125 L 21 24.828125 L 21 38.5 C 20.999913 39.162668 20.624622 39.63571 20.119141 39.865234 C 19.614167 40.094529 19.012344 40.063708 18.513672 39.628906 L 18.511719 39.628906 L 11.078125 33.123047 A 0.50004699 0.50004699 0 0 0 10.748047 33 L 6.5 33 C 5.6656665 32.999917 5.0000834 32.334364 5 31.5 L 5 16.5 C 5.0000834 15.665636 5.665667 15.000082 6.5 15 L 10.748047 15 A 0.50004699 0.50004699 0 0 0 11.056641 14.884766 L 10.171875 14 L 6.5 14 z " />
  <path
     id="path7059"
     style="color:#000000;font-variation-settings:normal;opacity:0.5;vector-effect:none;fill:url(#linearGradient5652);fill-opacity:1;stroke-width:0.999998;stroke-linecap:butt;stroke-linejoin:round;stroke-miterlimit:4;stroke-dasharray:none;stroke-dashoffset:0;stroke-opacity:1;-inkscape-stroke:none;paint-order:markers fill stroke;stop-color:#000000"
     d="M 19.492188 8.0019531 C 19.138532 8.0030231 18.789238 8.1288203 18.511719 8.3710938 L 14.080078 12.251953 L 14.789062 12.960938 L 19.169922 9.125 C 19.245192 9.0592931 19.333558 9.0192941 19.425781 9.0058594 C 19.518001 8.9924244 19.614083 9.0055539 19.705078 9.046875 L 19.707031 9.046875 C 19.88901 9.1294669 19.99988 9.302182 20 9.5019531 L 20 18.171875 L 21 19.171875 L 21 9.5019531 C 20.999646 8.9124439 20.65608 8.3802905 20.119141 8.1367188 C 19.917872 8.0453232 19.70438 8.0013118 19.492188 8.0019531 z M 11.060547 14.888672 C 10.971539 14.960085 10.862565 15.002312 10.748047 15.001953 L 6.5 15.001953 C 5.6656365 15.002035 5.0000834 15.667749 5 16.501953 L 5 31.501953 C 5.0000834 32.336158 5.6656359 33.00187 6.5 33.001953 L 10.748047 33.001953 C 10.869356 33.001573 10.986667 33.045303 11.078125 33.125 L 18.511719 39.626953 L 18.513672 39.626953 C 19.012338 40.061702 19.614157 40.092554 20.119141 39.863281 C 20.624583 39.633778 20.999913 39.160592 21 38.498047 L 21 24.828125 L 20 23.828125 L 20 38.498047 C 19.999965 38.768071 19.888723 38.870633 19.707031 38.953125 C 19.525986 39.035325 19.374197 39.05076 19.171875 38.875 L 19.169922 38.875 L 11.736328 32.373047 C 11.462742 32.133697 11.111554 32.001828 10.748047 32.001953 L 6.5 32.001953 C 6.2059538 32.001924 6.0000294 31.795737 6 31.501953 L 6 16.501953 C 6.0000294 16.208171 6.2059554 16.001982 6.5 16.001953 L 10.748047 16.001953 C 11.111554 16.002078 11.462742 15.870209 11.736328 15.630859 L 11.771484 15.599609 L 11.060547 14.888672 z " />
  <path
     id="circle4163"
     style="color:#000000;fill:#95a3ab;stroke:none;stroke-width:1;stroke-linecap:round;stroke-linejoin:round;stroke-opacity:1;-inkscape-stroke:none;paint-order:markers fill stroke;font-variation-settings:normal;opacity:1;vector-effect:none;fill-opacity:0.301961;stroke-miterlimit:4;stroke-dasharray:none;stroke-dashoffset:0;stop-color:#000000;stop-opacity:1"
     d="M 36.482422 6.5917969 A 1.5 1.5 0 0 0 35.419922 7.0332031 A 1.5 1.5 0 0 0 35.419922 9.1542969 C 39.358582 13.092958 41.572266 18.431847 41.572266 24.001953 C 41.572266 28.316439 40.239729 32.488657 37.810547 35.982422 L 39.962891 38.134766 C 42.936973 34.055139 44.572266 29.113516 44.572266 24.001953 C 44.572266 17.637351 42.041468 11.533658 37.541016 7.0332031 A 1.5 1.5 0 0 0 36.482422 6.5917969 z M 32.005859 10.851562 A 1.5 1.5 0 0 0 31.177734 11.275391 A 1.5 1.5 0 0 0 31.177734 13.396484 C 33.991182 16.20993 35.572266 20.023141 35.572266 24.001953 C 35.572266 26.715465 34.834753 29.351619 33.474609 31.646484 L 35.654297 33.826172 C 37.543591 30.925315 38.572266 27.516888 38.572266 24.001953 C 38.572266 19.228647 36.677974 14.650627 33.302734 11.275391 A 1.5 1.5 0 0 0 32.005859 10.851562 z M 27.998047 15.076172 A 1.5 1.5 0 0 0 26.935547 15.517578 A 1.5 1.5 0 0 0 26.935547 17.638672 C 28.623775 19.3269 29.572266 21.614437 29.572266 24.001953 C 29.572266 25.092808 29.364378 26.158673 28.988281 27.160156 L 31.265625 29.4375 C 32.114443 27.768269 32.572266 25.909205 32.572266 24.001953 C 32.572266 20.819941 31.306661 17.7676 29.056641 15.517578 A 1.5 1.5 0 0 0 27.998047 15.076172 z M 26.789062 30.617188 A 1.5 1.5 0 0 0 26.935547 32.486328 A 1.5 1.5 0 0 0 28.804688 32.632812 L 26.789062 30.617188 z M 31.03125 34.859375 A 1.5 1.5 0 0 0 31.177734 36.728516 A 1.5 1.5 0 0 0 33.048828 36.876953 L 31.03125 34.859375 z M 35.273438 39.101562 A 1.5 1.5 0 0 0 35.419922 40.970703 A 1.5 1.5 0 0 0 37.289062 41.117188 L 35.273438 39.101562 z " />
  <path
     id="path10667"
     style="color:#000000;fill:#555761;fill-opacity:0.15;stroke-linecap:round;stroke-linejoin:round;-inkscape-stroke:none;paint-order:markers fill stroke"
     d="M 36.482422 6.0917969 C 35.950938 6.0918757 35.44149 6.303141 35.066406 6.6796875 C 34.289745 7.4565146 34.289745 8.7309854 35.066406 9.5078125 C 38.911552 13.352959 41.072266 18.564326 41.072266 24.001953 C 41.072266 28.183339 39.789942 32.227598 37.451172 35.623047 L 38.169922 36.341797 C 40.689247 32.750119 42.072266 28.449106 42.072266 24.001953 C 42.072266 18.299379 39.805604 12.832949 35.773438 8.8007812 C 35.378831 8.4060896 35.378831 7.7814104 35.773438 7.3867188 C 35.960744 7.1986816 36.215114 7.0923315 36.480469 7.0917969 L 36.482422 7.0917969 C 36.746871 7.0930169 37.000832 7.1993212 37.1875 7.3867188 C 41.594387 11.793608 44.072266 17.769902 44.072266 24.001953 C 44.072266 28.980248 42.486077 33.793125 39.603516 37.775391 L 40.322266 38.494141 C 43.388029 34.317277 45.072266 29.246806 45.072266 24.001953 C 45.072266 17.504814 42.488541 11.273698 37.894531 6.6796875 C 37.520721 6.3044146 37.014056 6.0932568 36.484375 6.0917969 A 0.50005 0.50005 0 0 0 36.482422 6.0917969 z M 32.166016 10.333984 C 32.086946 10.336908 32.006883 10.344952 31.927734 10.357422 C 31.510043 10.423862 31.122778 10.622367 30.824219 10.921875 C 30.047558 11.698702 30.047558 12.973173 30.824219 13.75 C 33.544163 16.469942 35.072266 20.155603 35.072266 24.001953 C 35.072266 26.582194 34.383188 29.088659 33.109375 31.28125 L 33.839844 32.011719 C 35.287688 29.614578 36.072266 26.849557 36.072266 24.001953 C 36.072266 19.890687 34.438194 15.949911 31.53125 13.042969 C 31.136643 12.648277 31.136643 12.023598 31.53125 11.628906 A 0.50005 0.50005 0 0 0 31.533203 11.626953 C 31.682682 11.476596 31.874601 11.37901 32.083984 11.345703 C 32.401289 11.295713 32.722676 11.401183 32.949219 11.628906 C 36.230749 14.910434 38.072266 19.360935 38.072266 24.001953 C 38.072266 27.383827 37.091323 30.66194 35.291016 33.462891 L 36.015625 34.1875 C 37.994215 31.187034 39.072266 27.649928 39.072266 24.001953 C 39.072266 19.096369 37.125192 14.390814 33.65625 10.921875 C 33.260688 10.524247 32.719505 10.313518 32.166016 10.333984 z M 27.998047 14.576172 C 27.466563 14.576251 26.957115 14.787516 26.582031 15.164062 C 25.80537 15.940889 25.80537 17.215361 26.582031 17.992188 C 28.176783 19.58694 29.072266 21.746862 29.072266 24.001953 C 29.072266 24.954891 28.90461 25.888001 28.599609 26.771484 L 29.380859 27.552734 C 29.831959 26.434551 30.072266 25.231424 30.072266 24.001953 C 30.072266 21.482016 29.070765 19.066858 27.289062 17.285156 C 26.894456 16.890465 26.894456 16.265785 27.289062 15.871094 C 27.476369 15.683056 27.730739 15.576706 27.996094 15.576172 L 27.998047 15.576172 C 28.262496 15.577372 28.516457 15.683696 28.703125 15.871094 C 30.859559 18.027529 32.072266 20.952523 32.072266 24.001953 C 32.072266 25.774049 31.658864 27.502813 30.892578 29.064453 L 31.638672 29.810547 C 32.571374 28.034544 33.072266 26.044484 33.072266 24.001953 C 33.072266 20.687366 31.75376 17.507666 29.410156 15.164062 C 29.036393 14.788789 28.529681 14.577632 28 14.576172 A 0.50005 0.50005 0 0 0 27.998047 14.576172 z M 26.402344 30.230469 C 25.8179 31.011825 25.873417 32.131078 26.582031 32.839844 C 27.290521 33.548182 28.408135 33.60129 29.189453 33.017578 L 28.472656 32.300781 C 28.092679 32.510584 27.613897 32.457577 27.289062 32.132812 C 26.964298 31.807979 26.911291 31.329196 27.121094 30.949219 L 26.402344 30.230469 z M 30.644531 34.472656 C 30.060087 35.254012 30.115605 36.373266 30.824219 37.082031 C 31.532826 37.793104 32.653449 37.848934 33.435547 37.263672 L 32.716797 36.544922 C 32.336137 36.754464 31.855832 36.700711 31.53125 36.375 C 31.206485 36.050166 31.153478 35.571384 31.363281 35.191406 L 30.644531 34.472656 z M 34.888672 38.716797 C 34.30496 39.498115 34.358068 40.615729 35.066406 41.324219 C 35.774896 42.032557 36.89251 42.085665 37.673828 41.501953 L 36.957031 40.785156 C 36.577054 40.994959 36.098272 40.941952 35.773438 40.617188 C 35.448673 40.292354 35.395666 39.813571 35.605469 39.433594 L 34.888672 38.716797 z " />
  <path
     id="path2243"
     style="color:#000000;font-variation-settings:normal;opacity:1;vector-effect:none;fill:url(#linearGradient10595);fill-opacity:1;stroke-width:1;stroke-linecap:round;stroke-linejoin:round;stroke-miterlimit:4;stroke-dasharray:none;stroke-dashoffset:0;stroke-opacity:1;-inkscape-stroke:none;paint-order:markers fill stroke;stop-color:#000000;stop-opacity:1"
     d="M 36.480469 7.0917969 C 36.215116 7.0923319 35.960742 7.196727 35.773438 7.3847656 L 35.773438 7.3867188 C 35.37883 7.78141 35.37883 8.40609 35.773438 8.8007812 C 39.805599 12.832948 42.072266 18.299386 42.072266 24.001953 C 42.072266 28.449101 40.689246 32.750119 38.169922 36.341797 L 38.527344 36.699219 C 41.137043 33.009782 42.572266 28.581824 42.572266 24.001953 C 42.572266 18.166912 40.252626 12.57294 36.126953 8.4472656 C 35.923373 8.243642 35.923373 7.943858 36.126953 7.7402344 L 36.128906 7.7382812 C 36.222546 7.6442814 36.347851 7.5923099 36.480469 7.5917969 L 36.482422 7.5917969 C 36.614581 7.5926529 36.738718 7.6446074 36.832031 7.7382812 L 36.833984 7.7402344 C 41.147165 12.053564 43.572266 17.902453 43.572266 24.001953 C 43.572266 28.847531 42.036203 33.531224 39.244141 37.416016 L 39.603516 37.775391 C 42.486077 33.793124 44.072266 28.980243 44.072266 24.001953 C 44.072266 17.769908 41.594385 11.793607 37.1875 7.3867188 L 37.1875 7.3847656 C 37.000835 7.19737 36.74687 7.0930169 36.482422 7.0917969 L 36.480469 7.0917969 z M 32.240234 11.330078 C 31.984828 11.330078 31.730718 11.428748 31.533203 11.626953 L 31.53125 11.628906 C 31.136642 12.023598 31.136642 12.648277 31.53125 13.042969 C 34.43819 15.949907 36.072266 19.890691 36.072266 24.001953 C 36.072266 26.849554 35.287687 29.614577 33.839844 32.011719 L 34.201172 32.373047 C 35.736024 29.874798 36.572266 26.982411 36.572266 24.001953 C 36.572266 19.758233 34.885206 15.689891 31.884766 12.689453 C 31.681185 12.485829 31.681185 12.186046 31.884766 11.982422 L 31.886719 11.980469 C 31.988645 11.878187 32.115905 11.826172 32.242188 11.826172 C 32.368468 11.826172 32.493777 11.878192 32.595703 11.980469 L 32.595703 11.982422 C 35.783526 15.170243 37.572266 19.493223 37.572266 24.001953 C 37.572266 27.250501 36.639139 30.399027 34.927734 33.099609 L 35.291016 33.462891 C 37.091323 30.66194 38.072266 27.383824 38.072266 24.001953 C 38.072266 19.36094 36.230744 14.910432 32.949219 11.628906 L 32.949219 11.626953 C 32.751704 11.428748 32.495643 11.330078 32.240234 11.330078 z M 27.998047 15.576172 C 27.732013 15.576211 27.47876 15.680661 27.291016 15.869141 L 27.289062 15.871094 C 26.894458 16.265783 26.894458 16.890467 27.289062 17.285156 C 29.070765 19.066855 30.072266 21.48202 30.072266 24.001953 C 30.072266 25.231423 29.831959 26.43455 29.380859 27.552734 L 29.761719 27.933594 C 30.288916 26.702204 30.572266 25.367614 30.572266 24.001953 C 30.572266 21.349597 29.517752 18.806815 27.642578 16.931641 C 27.438998 16.728017 27.438998 16.428233 27.642578 16.224609 L 27.644531 16.222656 C 27.738171 16.128656 27.863476 16.076685 27.996094 16.076172 L 27.998047 16.076172 C 28.130208 16.077027 28.256295 16.128972 28.349609 16.222656 L 28.349609 16.224609 C 30.412458 18.287458 31.572266 21.085103 31.572266 24.001953 C 31.572266 25.637766 31.194349 27.229609 30.509766 28.681641 L 30.892578 29.064453 C 31.658864 27.502812 32.072266 25.774048 32.072266 24.001953 C 32.072266 20.952525 30.859558 18.027527 28.703125 15.871094 L 28.703125 15.869141 C 28.516017 15.681301 28.263174 15.576903 27.998047 15.576172 z M 27.121094 30.949219 C 26.911293 31.329197 26.964301 31.807981 27.289062 32.132812 C 27.613897 32.457577 28.092679 32.510584 28.472656 32.300781 L 28.083984 31.912109 C 27.929994 31.941927 27.768503 31.903242 27.642578 31.777344 C 27.51753 31.651246 27.47802 31.489605 27.507812 31.335938 L 27.121094 30.949219 z M 31.363281 35.191406 C 31.153478 35.571383 31.206485 36.050166 31.53125 36.375 L 31.533203 36.375 C 31.857786 36.700711 32.336607 36.754464 32.716797 36.544922 L 32.330078 36.158203 C 32.175632 36.188089 32.012734 36.147939 31.886719 36.021484 L 31.884766 36.021484 C 31.758352 35.895045 31.71942 35.732674 31.75 35.578125 L 31.363281 35.191406 z M 35.605469 39.433594 C 35.395666 39.813572 35.448673 40.292354 35.773438 40.617188 C 36.09827 40.941951 36.577054 40.994958 36.957031 40.785156 L 36.568359 40.396484 C 36.414369 40.426302 36.252878 40.387617 36.126953 40.261719 C 36.001905 40.135621 35.962395 39.97398 35.992188 39.820312 L 35.605469 39.433594 z " />
  <rect
     style="font-variation-settings:normal;opacity:1;vector-effect:none;fill:#f9c440;fill-opacity:1;stroke:none;stroke-width:0.999995;stroke-linecap:round;stroke-linejoin:round;stroke-miterlimit:4;stroke-dasharray:none;stroke-dashoffset:0;stroke-opacity:1;-inkscape-stroke:none;paint-order:markers fill stroke;stop-color:#000000;stop-opacity:1"
     id="rect2004"
     width="4"
     height="53.999996"
     x="-2"
     y="6.9411273"
     rx="2"
     ry="2"
     transform="rotate(-45)" />
</svg>
