<?xml version="1.0" encoding="UTF-8" standalone="no"?>
<svg
   version="1.0"
   width="48"
   height="48"
   id="svg4431"
   sodipodi:docname="audio-volume-off.svg"
   inkscape:version="1.2.2 (b0a8486541, 2022-12-01)"
   xmlns:inkscape="http://www.inkscape.org/namespaces/inkscape"
   xmlns:sodipodi="http://sodipodi.sourceforge.net/DTD/sodipodi-0.dtd"
   xmlns="http://www.w3.org/2000/svg"
   xmlns:svg="http://www.w3.org/2000/svg"
   xmlns:rdf="http://www.w3.org/1999/02/22-rdf-syntax-ns#"
   xmlns:cc="http://creativecommons.org/ns#"
   xmlns:dc="http://purl.org/dc/elements/1.1/">
  <sodipodi:namedview
     id="namedview18"
     pagecolor="#ffffff"
     bordercolor="#666666"
     borderopacity="1.0"
     inkscape:showpageshadow="2"
     inkscape:pageopacity="0.0"
     inkscape:pagecheckerboard="0"
     inkscape:deskcolor="#d1d1d1"
     showgrid="false"
     inkscape:zoom="4.9166667"
     inkscape:cx="11.59322"
     inkscape:cy="24.101695"
     inkscape:window-width="1920"
     inkscape:window-height="1030"
     inkscape:window-x="0"
     inkscape:window-y="0"
     inkscape:window-maximized="1"
     inkscape:current-layer="svg4431" />
  <metadata
     id="metadata16">
    <rdf:RDF>
      <cc:Work
         rdf:about="">
        <dc:format>image/svg+xml</dc:format>
        <dc:type
           rdf:resource="http://purl.org/dc/dcmitype/StillImage" />
      </cc:Work>
    </rdf:RDF>
  </metadata>
  <defs
     id="defs4433" />
  <path
     style="opacity:0.4;color:#bebebe;fill:#efefef;fill-opacity:1;fill-rule:nonzero;stroke:none;stroke-width:1.82310748000000000;marker:none;visibility:visible;display:inline;overflow:visible;enable-background:accumulate"
     id="path6945-2-3"
     d="M 43,24 C 43,15.99336 39.948057,9.1474409 35.53679,6 L 32.61003,8.5816794 C 36.408535,11.217959 39.048888,17.154354 39.048888,24 c 0,6.84562 -2.640353,12.782067 -6.438858,15.418321 L 35.53679,42 C 39.948057,38.852535 43,32.006616 43,24 z" />
  <path
     style="color:#bebebe;fill:#efefef;fill-opacity:1;fill-rule:nonzero;stroke:none;stroke-width:1.82310748000000000;marker:none;visibility:visible;display:inline;overflow:visible;enable-background:accumulate"
     d="m 17.666662,10.654234 -8.4708301,8.379899 -4.1958319,0 0,9.931733 4.1958319,0 8.4708301,8.379901 0,-26.691533 z"
     id="path4080" />
  <path
     style="color:#bebebe;fill:#efefef;fill-opacity:1;fill-rule:nonzero;stroke:none;stroke-width:1.82310748000000000;marker:none;visibility:visible;display:inline;overflow:visible;enable-background:accumulate;opacity:0.4"
     d="M 29.977075,10.887009 27.28541,13.253554 C 29.730999,15.802683 31.283324,19.65581 31.283324,24 c 0,4.34419 -1.552325,8.197317 -3.997914,10.746445 l 2.691665,2.366547 C 33.145691,34.131361 35.241657,29.414657 35.241657,24 c 0,-5.414682 -2.095966,-10.131336 -5.264582,-13.112991 z"
     id="path4078" />
  <path
     style="color:#bebebe;fill:#efefef;fill-opacity:1;fill-rule:nonzero;stroke:none;stroke-width:1.82310748000000000;marker:none;visibility:visible;display:inline;overflow:visible;enable-background:accumulate;opacity:0.4"
     d="m 24.870827,15.309734 -2.810416,2.444137 c 1.095223,1.794466 1.78125,3.950359 1.78125,6.246129 0,2.295745 -0.686027,4.451639 -1.78125,6.246129 l 2.810416,2.444137 C 26.684502,30.324503 27.799992,27.291649 27.799992,24 c 0,-3.29165 -1.11549,-6.324503 -2.929165,-8.690267 z"
     id="path6943-6" />
</svg>
