<?xml version="1.0" encoding="UTF-8" standalone="no"?>
<svg
   version="1.0"
   width="48"
   height="48"
   id="svg2485"
   sodipodi:docname="krb-expiring-ticket.svg"
   inkscape:version="1.2.2 (b0a8486541, 2022-12-01)"
   xmlns:inkscape="http://www.inkscape.org/namespaces/inkscape"
   xmlns:sodipodi="http://sodipodi.sourceforge.net/DTD/sodipodi-0.dtd"
   xmlns:xlink="http://www.w3.org/1999/xlink"
   xmlns="http://www.w3.org/2000/svg"
   xmlns:svg="http://www.w3.org/2000/svg"
   xmlns:rdf="http://www.w3.org/1999/02/22-rdf-syntax-ns#"
   xmlns:cc="http://creativecommons.org/ns#"
   xmlns:dc="http://purl.org/dc/elements/1.1/">
  <sodipodi:namedview
     id="namedview9087"
     pagecolor="#ffffff"
     bordercolor="#666666"
     borderopacity="1.0"
     inkscape:showpageshadow="2"
     inkscape:pageopacity="0.0"
     inkscape:pagecheckerboard="0"
     inkscape:deskcolor="#d1d1d1"
     showgrid="false"
     inkscape:zoom="19.666667"
     inkscape:cx="29.237288"
     inkscape:cy="42.635593"
     inkscape:window-width="1920"
     inkscape:window-height="1030"
     inkscape:window-x="0"
     inkscape:window-y="0"
     inkscape:window-maximized="1"
     inkscape:current-layer="svg2485" />
  <metadata
     id="metadata71">
    <rdf:RDF>
      <cc:Work
         rdf:about="">
        <dc:format>image/svg+xml</dc:format>
        <dc:type
           rdf:resource="http://purl.org/dc/dcmitype/StillImage" />
      </cc:Work>
    </rdf:RDF>
  </metadata>
  <defs
     id="defs2487">
    <linearGradient
       id="linearGradient5126">
      <stop
         id="stop5128"
         style="stop-color:#ffffff;stop-opacity:1"
         offset="0" />
      <stop
         id="stop5130"
         style="stop-color:#ffffff;stop-opacity:0"
         offset="1" />
    </linearGradient>
    <linearGradient
       id="linearGradient3117-8">
      <stop
         offset="0"
         style="stop-color:#ffffff;stop-opacity:1"
         id="stop3119-9" />
      <stop
         offset="0.56911701"
         style="stop-color:#ffffff;stop-opacity:0.23529412"
         id="stop3121-9" />
      <stop
         offset="0.93297637"
         style="stop-color:#ffffff;stop-opacity:0.15686275"
         id="stop3123-6" />
      <stop
         offset="1"
         style="stop-color:#ffffff;stop-opacity:0.39215687"
         id="stop3125-3" />
    </linearGradient>
    <linearGradient
       id="linearGradient8838">
      <stop
         offset="0"
         style="stop-color:#000000;stop-opacity:1"
         id="stop8840" />
      <stop
         offset="1"
         style="stop-color:#000000;stop-opacity:0"
         id="stop8842" />
    </linearGradient>
    <radialGradient
       cx="20"
       cy="46"
       r="8"
       fx="20"
       fy="46"
       id="radialGradient7612"
       xlink:href="#linearGradient8838"
       gradientUnits="userSpaceOnUse"
       gradientTransform="matrix(1,0,0,0.25,0,34.5)" />
    <radialGradient
       cx="20"
       cy="46"
       r="8"
       fx="20"
       fy="46"
       id="radialGradient7610"
       xlink:href="#linearGradient8838"
       gradientUnits="userSpaceOnUse"
       gradientTransform="matrix(1,0,0,0.25,0,34.5)" />
    <radialGradient
       cx="17.812502"
       cy="14.729167"
       r="9.500001"
       fx="17.812502"
       fy="14.729167"
       id="radialGradient6179"
       xlink:href="#linearGradient7557"
       gradientUnits="userSpaceOnUse"
       gradientTransform="matrix(1,0,0,0.6315789,0,2.947369)" />
    <linearGradient
       id="linearGradient7557">
      <stop
         id="stop7559"
         style="stop-color:#eeeeec;stop-opacity:1"
         offset="0" />
      <stop
         id="stop7561"
         style="stop-color:#eeeeec;stop-opacity:1"
         offset="1" />
    </linearGradient>
    <radialGradient
       cx="11.15625"
       cy="2.0625"
       r="0.90625"
       fx="11.15625"
       fy="2.0625"
       id="radialGradient6201"
       xlink:href="#linearGradient5126"
       gradientUnits="userSpaceOnUse"
       gradientTransform="matrix(1,0,0,0.6206897,0,0.7823276)" />
    <linearGradient
       x1="13.819278"
       y1="30.029789"
       x2="36.227631"
       y2="45.194965"
       id="linearGradient7425"
       xlink:href="#linearGradient6826"
       gradientUnits="userSpaceOnUse"
       gradientTransform="matrix(0,0.673693,-0.676136,0,37.10227,14.81577)" />
    <linearGradient
       id="linearGradient6826">
      <stop
         id="stop6828"
         style="stop-color:#babdb6;stop-opacity:1"
         offset="0" />
      <stop
         id="stop6830"
         style="stop-color:#eeeeec;stop-opacity:1"
         offset="1" />
    </linearGradient>
    <linearGradient
       x1="17"
       y1="45.248375"
       x2="17"
       y2="30.759407"
       id="linearGradient7427"
       xlink:href="#linearGradient6958"
       gradientUnits="userSpaceOnUse"
       gradientTransform="matrix(0,0.625,-0.676136,0,37.10227,15.875)" />
    <linearGradient
       id="linearGradient6958">
      <stop
         id="stop6960"
         style="stop-color:#000000;stop-opacity:1"
         offset="0" />
      <stop
         id="stop6962"
         style="stop-color:#888a85;stop-opacity:0"
         offset="1" />
    </linearGradient>
    <linearGradient
       x1="11.161089"
       y1="17.254425"
       x2="18.391479"
       y2="44.238609"
       id="linearGradient3326"
       xlink:href="#linearGradient5126"
       gradientUnits="userSpaceOnUse" />
    <linearGradient
       x1="15.406166"
       y1="37.34367"
       x2="16.864777"
       y2="24.249567"
       id="linearGradient7431"
       xlink:href="#linearGradient5126"
       gradientUnits="userSpaceOnUse"
       gradientTransform="matrix(0,0.673693,-0.676136,0,37.10227,14.81577)" />
    <linearGradient
       x1="33.120464"
       y1="20.5"
       x2="22.328388"
       y2="20.5"
       id="linearGradient7433"
       xlink:href="#linearGradient4542"
       gradientUnits="userSpaceOnUse"
       gradientTransform="matrix(0.727273,0,0,0.999999,12.27273,-34.84375)" />
    <linearGradient
       id="linearGradient4542">
      <stop
         id="stop4544"
         style="stop-color:#888a85;stop-opacity:1"
         offset="0" />
      <stop
         id="stop4546"
         style="stop-color:#888a85;stop-opacity:0"
         offset="1" />
    </linearGradient>
    <linearGradient
       x1="28.032116"
       y1="32.947376"
       x2="5.545897"
       y2="20.01186"
       id="linearGradient2538"
       xlink:href="#linearGradient7491"
       gradientUnits="userSpaceOnUse"
       gradientTransform="matrix(0.2206728,0.8235621,-0.8265485,0.221473,52.273811,-1.6455845)"
       spreadMethod="reflect" />
    <linearGradient
       id="linearGradient7491">
      <stop
         id="stop7493"
         style="stop-color:#eeeeec;stop-opacity:1"
         offset="0" />
      <stop
         id="stop7495"
         style="stop-color:#babdb6;stop-opacity:1"
         offset="1" />
    </linearGradient>
    <linearGradient
       x1="17"
       y1="45.248375"
       x2="17"
       y2="30.759407"
       id="linearGradient2535"
       xlink:href="#linearGradient6958"
       gradientUnits="userSpaceOnUse"
       gradientTransform="matrix(0.2047231,0.7640369,-0.8265485,0.221473,52.620769,-0.3507192)" />
    <linearGradient
       x1="17.092846"
       y1="17.620552"
       x2="9.9427681"
       y2="44.305004"
       id="linearGradient3318"
       xlink:href="#linearGradient5126"
       gradientUnits="userSpaceOnUse" />
    <linearGradient
       x1="15.406166"
       y1="37.34367"
       x2="16.864777"
       y2="24.249567"
       id="linearGradient6834"
       xlink:href="#linearGradient5126"
       gradientUnits="userSpaceOnUse"
       gradientTransform="matrix(0,0.673693,-0.676136,0,37.10227,14.81577)" />
    <linearGradient
       x1="33.120464"
       y1="20.5"
       x2="22.328388"
       y2="20.5"
       id="linearGradient2530"
       xlink:href="#linearGradient4542"
       gradientUnits="userSpaceOnUse"
       gradientTransform="matrix(0.9204241,0,0,1.2655814,8.7215177,-48.060188)" />
    <radialGradient
       cx="23.681061"
       cy="5.3414755"
       r="5.055244"
       fx="23.681061"
       fy="5.3414755"
       id="radialGradient6183"
       xlink:href="#linearGradient7491"
       gradientUnits="userSpaceOnUse"
       gradientTransform="matrix(-1.5922835,-0.1907818,-1.1802872,-1.4345654,57.810344,15.557175)" />
    <radialGradient
       cx="11.15625"
       cy="2.0625"
       r="0.90625"
       fx="11.15625"
       fy="2.0625"
       id="radialGradient6187"
       xlink:href="#linearGradient5126"
       gradientUnits="userSpaceOnUse"
       gradientTransform="matrix(1,0,0,0.6206897,0,0.7823276)" />
    <radialGradient
       cx="24.090876"
       cy="5.052979"
       r="4.4921517"
       fx="24.090876"
       fy="5.052979"
       id="radialGradient6191"
       xlink:href="#linearGradient7549"
       gradientUnits="userSpaceOnUse"
       gradientTransform="matrix(1.6372128,-0.3629926,2.1525103,1.8500902,-36.53018,2.08716)" />
    <linearGradient
       id="linearGradient7549">
      <stop
         id="stop7551"
         style="stop-color:#ffffff;stop-opacity:1"
         offset="0" />
      <stop
         id="stop7553"
         style="stop-color:#eeeeec;stop-opacity:1"
         offset="1" />
    </linearGradient>
    <linearGradient
       x1="20.722668"
       y1="16.830494"
       x2="22.697027"
       y2="15.894469"
       id="linearGradient6195"
       xlink:href="#linearGradient8838"
       gradientUnits="userSpaceOnUse"
       gradientTransform="matrix(1.1304264,-0.235981,0.915432,0.6373638,-15.020125,7.538008)" />
    <linearGradient
       x1="24"
       y1="2.0112092"
       x2="24"
       y2="44.532082"
       id="linearGradient3094-7"
       xlink:href="#linearGradient4171"
       gradientUnits="userSpaceOnUse"
       gradientTransform="matrix(0.48890916,0,0,0.48839827,24.266182,24.742322)" />
    <linearGradient
       id="linearGradient4171">
      <stop
         style="stop-color:#ffe16b;stop-opacity:1"
         offset="0"
         id="stop4173" />
      <stop
         style="stop-color:#f9c440;stop-opacity:1"
         offset="1"
         id="stop4175" />
    </linearGradient>
    <linearGradient
       x1="29.126724"
       y1="19.787613"
       x2="29.291178"
       y2="57.567127"
       id="linearGradient3091-5"
       xlink:href="#linearGradient3117-8"
       gradientUnits="userSpaceOnUse"
       gradientTransform="matrix(0.49373581,0,-0.00214922,0.51518426,21.661617,16.574027)" />
    <radialGradient
       gradientTransform="matrix(1.1294118,0,0,0.12941156,-34.729414,46.026471)"
       gradientUnits="userSpaceOnUse"
       xlink:href="#linearGradient8838"
       id="radialGradient2415-3"
       fy="4.625"
       fx="62.625"
       r="10.625"
       cy="4.625"
       cx="62.625" />
  </defs>
  <g
     transform="translate(0.00615088,0)"
     id="layer1">
    <path
       d="m 28,46 a 8,2 0 1 1 -16,0 8,2 0 1 1 16,0 z"
       transform="matrix(1.1875,0,0,1.75,9.75,-37.5)"
       id="path7600"
       style="display:inline;overflow:visible;visibility:visible;opacity:0.16289595;fill:url(#radialGradient7612);fill-opacity:1;fill-rule:evenodd;stroke:none;stroke-width:1;stroke-linecap:round;stroke-linejoin:miter;stroke-miterlimit:4;stroke-dasharray:none;stroke-dashoffset:0.67741674;stroke-opacity:1;marker:none;marker-start:none;marker-mid:none;marker-end:none;enable-background:accumulate" />
    <path
       d="m 28,46 a 8,2 0 1 1 -16,0 8,2 0 1 1 16,0 z"
       transform="matrix(1.25,0,0,1.75,-8,-37.5)"
       id="path7602"
       style="display:inline;overflow:visible;visibility:visible;opacity:0.16289595;fill:url(#radialGradient7610);fill-opacity:1;fill-rule:evenodd;stroke:none;stroke-width:1;stroke-linecap:round;stroke-linejoin:miter;stroke-miterlimit:4;stroke-dasharray:none;stroke-dashoffset:0.67741674;stroke-opacity:1;marker:none;marker-start:none;marker-mid:none;marker-end:none;enable-background:accumulate" />
    <path
       d="M 24.281173,13.417592 C 21.785192,13.938638 16.273503,11.934434 11.978296,8.943923 7.683089,5.953412 6.222848,3.103453 8.718829,2.582407"
       id="use6159"
       style="fill:none;fill-opacity:1;fill-rule:evenodd;stroke:#babdb6;stroke-width:3;stroke-linecap:round;stroke-linejoin:miter;stroke-miterlimit:4;stroke-dashoffset:0.69999993;stroke-opacity:1" />
    <path
       d="m 21.021707,7.056075 c 4.295207,2.990511 5.755448,5.840471 3.259466,6.361517 C 21.785192,13.938638 16.273503,11.934434 11.978296,8.943923 7.683089,5.953412 6.222848,3.103453 8.718829,2.582407 11.214811,2.061361 16.7265,4.065564 21.021707,7.056075 Z"
       id="use6161"
       style="fill:none;fill-opacity:1;fill-rule:evenodd;stroke:url(#radialGradient6179);stroke-width:1;stroke-linecap:round;stroke-linejoin:miter;stroke-miterlimit:4;stroke-dashoffset:0.69999993;stroke-opacity:1" />
    <path
       d="m 12.0625,2.0625 a 0.90625,0.5625 0 1 1 -1.8125,0 0.90625,0.5625 0 1 1 1.8125,0 z"
       transform="matrix(1.1034483,0,0,1.7777778,2.636801,7.009256)"
       id="use6173"
       style="display:inline;overflow:visible;visibility:visible;fill:url(#radialGradient6201);fill-opacity:1;fill-rule:evenodd;stroke:none;stroke-width:1;stroke-linecap:round;stroke-linejoin:miter;stroke-miterlimit:4;stroke-dasharray:none;stroke-dashoffset:0.67741674;stroke-opacity:1;marker:none;marker-start:none;marker-mid:none;marker-end:none;enable-background:accumulate" />
    <g
       transform="matrix(1.222459,0.3275569,-0.3275569,1.222459,15.102844,-16.514282)"
       id="g7413">
      <path
         d="m 13.4375,16.5 c -3.9188838,-1e-6 -7.09375,3.157775 -7.09375,7.0625 2e-7,2.818198 1.6046259,5.300595 4,6.4375 l 0,1.5 1.5,1.5 -1.5,1.5 0,1 2,1 0,1 -2,1 0,1 1.5,1.5 -1.5,1.5 0,1 2.5,2 2.5,0 1,-1.5 0,-14 c 2.372429,-1.145434 4,-3.698516 4,-6.5 0,-3.904724 -2.987366,-7 -6.90625,-7 z m -0.09375,2 c 1.104,0 2,0.896 2,2 0,1.104 -0.896,2 -2,2 -1.104,0 -2,-0.896 -2,-2 0,-1.104 0.896,-2 2,-2 z"
         id="path7415"
         style="fill:url(#linearGradient7425);fill-opacity:1;fill-rule:evenodd;stroke:#888a85;stroke-width:0.79014969;stroke-linecap:round;stroke-linejoin:miter;stroke-miterlimit:4;stroke-dasharray:none;stroke-opacity:1" />
      <path
         d="M 18.846598,24 8.028422,24 c 0,2.76 2.423271,5 5.409088,5 2.985817,0 5.409088,-2.24 5.409088,-5 z"
         id="path7417"
         style="opacity:0.3;fill:url(#linearGradient7427);fill-opacity:1;fill-rule:evenodd;stroke:none;stroke-width:1.0274241;stroke-linecap:round;stroke-linejoin:miter;stroke-miterlimit:4;stroke-dasharray:none;stroke-opacity:1" />
      <path
         d="m 13.4375,17.28125 c -3.5016836,-1e-6 -6.3125,2.797504 -6.3125,6.28125 2e-7,2.523398 1.4413689,4.743258 3.5625,5.75 0.263994,0.128124 0.433244,0.394089 0.4375,0.6875 l 0,1.15625 1.28125,1.28125 c 0.153963,0.146602 0.241104,0.349905 0.241104,0.5625 0,0.212595 -0.08714,0.415898 -0.241104,0.5625 l -1.28125,1.28125 0,0.1875 1.5625,0.78125 c 0.263994,0.128124 0.433244,0.394089 0.4375,0.6875 l 0,1 c -0.0043,0.293411 -0.173506,0.559376 -0.4375,0.6875 l -1.5625,0.78125 0,0.1875 1.28125,1.28125 c 0.153963,0.146602 0.241104,0.349905 0.241104,0.5625 0,0.212595 -0.08714,0.415898 -0.241104,0.5625 l -1.28125,1.28125 0,0.28125 2,1.59375 1.78125,0 0.65625,-0.96875 0,-13.75 c 0.0043,-0.293411 0.173506,-0.559376 0.4375,-0.6875 2.090762,-1.009442 3.5625,-3.311816 3.5625,-5.8125 0,-3.508607 -2.615059,-6.21875 -6.125,-6.21875 z m -0.09375,0.4375 c 1.524208,0 2.78125,1.257042 2.78125,2.78125 0,1.524208 -1.257042,2.78125 -2.78125,2.78125 -1.524208,0 -2.78125,-1.257042 -2.78125,-2.78125 0,-1.524208 1.257042,-2.78125 2.78125,-2.78125 z"
         id="path7419"
         style="opacity:0.4;fill:none;fill-opacity:1;fill-rule:evenodd;stroke:url(#linearGradient3326);stroke-width:0.79014969;stroke-linecap:round;stroke-linejoin:miter;stroke-miterlimit:4;stroke-dasharray:none;stroke-opacity:1" />
      <path
         d="m 13.40625,17.625 c -0.218712,0.0043 -0.466555,0.03416 -0.6875,0.0625 -0.93254,0.119629 -1.775868,0.460272 -2.53125,0.9375 0.173643,0.634817 0.42464,1.158079 0.71875,1.625 0.125954,-1.319354 1.241853,-2.34375 2.59375,-2.34375 1.436081,0 2.59375,1.157668 2.59375,2.59375 0,1.436083 -1.157669,2.59375 -2.59375,2.59375 -0.07717,0 -0.14697,-0.02119 -0.21875,-0.03125 1.059311,1.270254 2.021943,2.944267 2.28125,6.09375 2.266237,-0.909044 3.875,-2.925566 3.875,-5.59375 -0.08555,-2.601924 -1.541462,-4.611423 -4,-5.625 -0.680148,-0.225329 -1.363612,-0.325754 -2.03125,-0.3125 z M 15.375,34.6875 c -0.279435,2.585586 -0.854558,5.742004 -1.8125,9.6875 l 1.15625,0 0.65625,-1.3125 0,-8.375 z"
         id="path7421"
         style="opacity:0.6;fill:url(#linearGradient7431);fill-opacity:1;fill-rule:evenodd;stroke:none;stroke-width:1;stroke-linecap:round;stroke-linejoin:miter;stroke-miterlimit:4;stroke-dasharray:none;stroke-opacity:1" />
      <rect
         width="16.311773"
         height="0.98128641"
         x="29"
         y="-14.84375"
         transform="matrix(0,1,-1,0,0,0)"
         id="rect7423"
         style="opacity:0.61538463;fill:url(#linearGradient7433);fill-opacity:1;fill-rule:evenodd;stroke:none;stroke-width:1;stroke-linecap:round;stroke-linejoin:miter;stroke-miterlimit:4;stroke-dasharray:none;stroke-opacity:1" />
    </g>
    <path
       d="m 25.6875,8.875 c -0.588561,0.036819 -1.182416,0.1207928 -1.78125,0.28125 -4.790674,1.283657 -7.65402,6.195384 -6.375,10.96875 0.923121,3.44513 3.699353,5.957302 7,6.5625 l 0.1875,0.75 L 25.25,25.5 c 3.275392,-0.623141 6.113605,-3.200301 7.03125,-6.625 1.018029,-3.799341 -0.444599,-7.588204 -3.5,-9.625 C 27.800972,8.9441375 26.762022,8.8077801 25.6875,8.875 Z m -0.84375,1.5 c 0.167842,0.01005 0.331301,0.04855 0.5,0.09375 1.075458,0.288168 1.806766,1.228158 1.875,2.28125 0.129462,0.207411 0.245957,0.439157 0.3125,0.6875 0.361623,1.349595 -0.431656,2.732127 -1.78125,3.09375 -1.349595,0.361624 -2.732127,-0.431656 -3.09375,-1.78125 -0.04247,-0.158514 -0.08238,-0.310882 -0.09375,-0.46875 -0.0047,-0.0073 0.0046,-0.02393 0,-0.03125 -0.359793,-0.574923 -0.501749,-1.293712 -0.3125,-2 0.316419,-1.180896 1.418855,-1.945332 2.59375,-1.875 z"
       id="path7441"
       style="opacity:0.15;fill:#000000;fill-opacity:1;fill-rule:evenodd;stroke:#000000;stroke-width:0.99999976;stroke-linecap:round;stroke-linejoin:miter;stroke-miterlimit:4;stroke-dasharray:none;stroke-opacity:1" />
    <path
       d="M 23.896281,8.1648764 C 19.105606,9.4485326 16.258813,14.348734 17.537833,19.1221 c 0.92312,3.445131 3.697836,5.954154 6.998483,6.559352 l 0.491336,1.833689 2.325023,1.342353 -1.342353,2.325024 0.327557,1.222459 2.772475,0.567345 0.327557,1.222459 -2.117361,1.877573 0.327557,1.222459 2.325024,1.342353 -1.342353,2.325024 0.327556,1.222459 3.711262,1.626025 3.056147,-0.818892 0.731124,-2.161245 L 31.87107,23.716111 C 34.396073,21.538759 35.549432,17.884599 34.631786,14.4599 33.352767,9.6865345 28.686956,6.8812189 23.896281,8.1648764 Z m 0.540508,2.4756266 c 1.349595,-0.361623 2.738409,0.440209 3.100032,1.789804 0.361623,1.349595 -0.44021,2.738409 -1.789804,3.100032 -1.349595,0.361623 -2.738409,-0.44021 -3.100032,-1.789804 -0.361623,-1.349595 0.440209,-2.738409 1.789804,-3.100032 z"
       id="path6767"
       style="fill:url(#linearGradient2538);fill-opacity:1;fill-rule:evenodd;stroke:#88888a;stroke-width:0.99999976;stroke-linecap:round;stroke-linejoin:miter;stroke-miterlimit:4;stroke-dasharray:none;stroke-opacity:1" />
    <path
       d="M 32.965358,15.561531 19.740581,19.1051 c 0.904057,3.373987 4.600134,5.318536 8.250173,4.340511 3.650039,-0.978025 5.878661,-4.510093 4.974604,-7.88408 z"
       id="path6769"
       style="opacity:0.3;fill:url(#linearGradient2535);fill-opacity:1;fill-rule:evenodd;stroke:none;stroke-width:1.0274241;stroke-linecap:round;stroke-linejoin:miter;stroke-miterlimit:4;stroke-dasharray:none;stroke-opacity:1" />
    <path
       d="m 13.4375,17.28125 c -3.5016836,-1e-6 -6.3125,2.797504 -6.3125,6.28125 2e-7,2.523398 1.4413689,4.743258 3.5625,5.75 0.263994,0.128124 0.433244,0.394089 0.4375,0.6875 l 0,1.15625 1.28125,1.28125 c 0.153963,0.146602 0.241104,0.349905 0.241104,0.5625 0,0.212595 -0.08714,0.415898 -0.241104,0.5625 l -1.28125,1.28125 0,0.1875 1.5625,0.78125 c 0.263994,0.128124 0.433244,0.394089 0.4375,0.6875 l 0,1 c -0.0043,0.293411 -0.173506,0.559376 -0.4375,0.6875 l -1.5625,0.78125 0,0.1875 1.28125,1.28125 c 0.153963,0.146602 0.241104,0.349905 0.241104,0.5625 0,0.212595 -0.08714,0.415898 -0.241104,0.5625 l -1.28125,1.28125 0,0.28125 2,1.59375 1.78125,0 0.65625,-0.96875 0,-13.75 c 0.0043,-0.293411 0.173506,-0.559376 0.4375,-0.6875 2.090762,-1.009442 3.5625,-3.311816 3.5625,-5.8125 0,-3.508607 -2.615059,-6.21875 -6.125,-6.21875 z m -0.09375,0.4375 c 1.524208,0 2.78125,1.257042 2.78125,2.78125 0,1.524208 -1.257042,2.78125 -2.78125,2.78125 -1.524208,0 -2.78125,-1.257042 -2.78125,-2.78125 0,-1.524208 1.257042,-2.78125 2.78125,-2.78125 z"
       transform="matrix(1.222459,-0.3275569,0.3275569,1.222459,2.064799,-7.6041513)"
       id="path6771"
       style="opacity:0.4;fill:none;fill-opacity:1;fill-rule:evenodd;stroke:url(#linearGradient3318);stroke-width:0.79014969;stroke-linecap:round;stroke-linejoin:miter;stroke-miterlimit:4;stroke-dasharray:none;stroke-opacity:1" />
    <path
       d="m 13.40625,17.625 c -0.218712,0.0043 -0.466555,0.03416 -0.6875,0.0625 -0.93254,0.119629 -1.775868,0.460272 -2.53125,0.9375 0.173643,0.634817 0.42464,1.158079 0.71875,1.625 0.125954,-1.319354 1.241853,-2.34375 2.59375,-2.34375 1.436081,0 2.59375,1.157668 2.59375,2.59375 0,1.436083 -1.157669,2.59375 -2.59375,2.59375 -0.07717,0 -0.14697,-0.02119 -0.21875,-0.03125 1.059311,1.270254 2.021943,2.944267 2.28125,6.09375 2.266237,-0.909044 3.875,-2.925566 3.875,-5.59375 -0.08555,-2.601924 -1.541462,-4.611423 -4,-5.625 -0.680148,-0.225329 -1.363612,-0.325754 -2.03125,-0.3125 z M 15.375,34.6875 c -0.279435,2.585586 -0.854558,5.742004 -1.8125,9.6875 l 1.15625,0 0.65625,-1.3125 0,-8.375 z"
       transform="matrix(1.222459,-0.3275569,0.3275569,1.222459,2.064799,-7.6041513)"
       id="path6832"
       style="opacity:0.6;fill:url(#linearGradient6834);fill-opacity:1;fill-rule:evenodd;stroke:none;stroke-width:1;stroke-linecap:round;stroke-linejoin:miter;stroke-miterlimit:4;stroke-dasharray:none;stroke-opacity:1" />
    <rect
       width="20.643898"
       height="1.2418991"
       x="29.89126"
       y="-22.748535"
       transform="matrix(0.258819,0.9659258,-0.9659258,0.258819,0,0)"
       id="rect6776"
       style="opacity:0.61538463;fill:url(#linearGradient2530);fill-opacity:1;fill-rule:evenodd;stroke:none;stroke-width:1;stroke-linecap:round;stroke-linejoin:miter;stroke-miterlimit:4;stroke-dasharray:none;stroke-opacity:1" />
    <path
       d="M 7.973909,5.14413 C 6.383785,2.550006 8.912938,1.724058 13.619341,3.300498 c 4.706403,1.57644 9.816629,4.961246 11.406753,7.555371 0.789043,1.287243 0.643566,2.112963 -0.43671,2.478739"
       id="use6163"
       style="fill:none;fill-opacity:1;fill-rule:evenodd;stroke:url(#radialGradient6183);stroke-width:3;stroke-linecap:round;stroke-linejoin:miter;stroke-miterlimit:4;stroke-dashoffset:0.69999993;stroke-opacity:1" />
    <path
       d="m 12.0625,2.0625 a 0.90625,0.5625 0 1 1 -1.8125,0 0.90625,0.5625 0 1 1 1.8125,0 z"
       transform="matrix(1.5911082,0,0,2.563452,-6.228703,-2.588246)"
       id="use6165"
       style="display:inline;overflow:visible;visibility:visible;fill:url(#radialGradient6187);fill-opacity:1;fill-rule:evenodd;stroke:none;stroke-width:1;stroke-linecap:round;stroke-linejoin:miter;stroke-miterlimit:4;stroke-dasharray:none;stroke-dashoffset:0.67741674;stroke-opacity:1;marker:none;marker-start:none;marker-mid:none;marker-end:none;enable-background:accumulate" />
    <path
       d="M 10.813348,8.082144 C 6.962997,5.046919 6.385696,2.546748 9.524729,2.501404 12.663762,2.45606 18.336305,4.88263 22.186655,7.917855 c 3.791641,2.988943 4.422284,5.460973 1.422808,5.577195"
       id="use6167"
       style="fill:none;fill-opacity:1;fill-rule:evenodd;stroke:url(#radialGradient6191);stroke-width:1;stroke-linecap:round;stroke-linejoin:miter;stroke-miterlimit:4;stroke-dashoffset:0.69999993;stroke-opacity:1" />
    <path
       d="m 22.186054,7.917381 c 3.792118,2.989106 4.423052,5.46144 1.423409,5.577669"
       id="use6169"
       style="opacity:0.10407242;fill:none;fill-opacity:1;fill-rule:evenodd;stroke:url(#linearGradient6195);stroke-width:1;stroke-linecap:round;stroke-linejoin:miter;stroke-miterlimit:4;stroke-dashoffset:0.69999993;stroke-opacity:1" />
    <path
       d="m 12.0625,2.0625 a 0.90625,0.5625 0 1 1 -1.8125,0 0.90625,0.5625 0 1 1 1.8125,0 z"
       transform="matrix(1.1034483,0,0,1.7777778,-0.69986,-0.945696)"
       id="use6171"
       style="display:inline;overflow:visible;visibility:visible;fill:#ffffff;fill-opacity:1;fill-rule:evenodd;stroke:none;stroke-width:1;stroke-linecap:round;stroke-linejoin:miter;stroke-miterlimit:4;stroke-dasharray:none;stroke-dashoffset:0.67741674;stroke-opacity:1;marker:none;marker-start:none;marker-mid:none;marker-end:none;enable-background:accumulate" />
  </g>
  <path
     style="display:inline;overflow:visible;visibility:visible;opacity:0.3;fill:url(#radialGradient2415-3);fill-opacity:1;fill-rule:evenodd;stroke:none;stroke-width:1;marker:none"
     id="path8836"
     d="M 48,46.625 C 48,47.384391 42.627417,48 36,48 29.372583,48 24,47.384391 24,46.625 c 0,-0.759391 5.372583,-1.375 12,-1.375 6.627417,0 12,0.615609 12,1.375 z" />
  <path
     style="fill:url(#linearGradient3094-7);fill-opacity:1;fill-rule:nonzero;stroke:none"
     id="path11155-5"
     d="M 46.843441,44.277765 37.294944,26.277682 c -0.274455,-0.5 -0.771065,-0.77778 -1.324145,-0.77778 -0.553075,0 -1.052235,0.33333 -1.330855,0.833335 l -9.477397,18.000088 c -0.223085,0.444445 -0.225635,1.05556 0.04905,1.500005 0.27468,0.44445 0.716215,0.66667 1.269296,0.66667 h 19.025888 c 0.55308,0 1.052005,-0.27778 1.275095,-0.722225 0.278385,-0.444445 0.280705,-1.000005 0.06156,-1.50001 z" />
  <path
     style="opacity:0.6;fill:none;stroke:url(#linearGradient3091-5);stroke-width:1;stroke-miterlimit:4;stroke-dasharray:none;stroke-opacity:1"
     id="path11159-4"
     d="M 45.554469,43.506436 37.009293,27.915852 C 36.64536,27.222466 36.514831,26.5 35.961755,26.5 c -0.475681,0 -0.724576,0.823993 -1.068333,1.478495 l -8.450324,15.57762 c -0.490695,0.902951 -0.543267,1.138323 -0.307081,1.535746 0.236181,0.397428 0.539433,0.375782 1.659914,0.401703 h 16.60861 c 1.043148,0.01297 1.278124,-0.06692 1.470057,-0.464346 0.2395,-0.397427 0.137629,-0.712731 -0.320129,-1.522782 z" />
  <path
     style="color:#000000;clip-rule:nonzero;display:inline;overflow:visible;visibility:visible;opacity:0.5;isolation:auto;mix-blend-mode:normal;color-interpolation:sRGB;color-interpolation-filters:linearRGB;solid-color:#000000;solid-opacity:1;fill:none;fill-opacity:1;fill-rule:nonzero;stroke:#ad5f00;stroke-width:1;stroke-linecap:butt;stroke-linejoin:miter;stroke-miterlimit:4;stroke-dasharray:none;stroke-dashoffset:0;stroke-opacity:1;marker:none;color-rendering:auto;image-rendering:auto;shape-rendering:auto;text-rendering:auto;enable-background:accumulate"
     id="path11155-8"
     d="M 46.843441,44.277775 37.294944,26.277777 C 37.020489,25.777779 36.523879,25.5 35.970799,25.5 c -0.553075,0 -1.052235,0.333329 -1.330855,0.833332 l -9.477397,18.000003 c -0.223085,0.444443 -0.225635,1.055555 0.04905,1.499998 C 25.486277,46.277781 25.927812,46.5 26.480892,46.5 h 19.025889 c 0.55308,0 1.052005,-0.277779 1.275095,-0.722222 0.278385,-0.444443 0.280705,-1 0.06156,-1.500003 z" />
  <path
     style="opacity:0.3;fill:#ffffff;fill-opacity:1;stroke:none;stroke-width:1;stroke-linejoin:round;stroke-miterlimit:4;stroke-dasharray:none;stroke-opacity:0.498039"
     d="m 36,33 c -0.717969,0 -1.3,0.596955 -1.3,1.333333 0,1.333334 0.433332,3.111111 0.866667,6.666667 h 0.866665 C 36.866667,37.444444 37.3,35.666667 37.3,34.333333 37.3,33.596955 36.717969,33 36,33 Z m 0,9.333333 c -0.717969,0 -1.3,0.596955 -1.3,1.333334 C 34.7,44.403045 35.282031,45 36,45 c 0.717969,0 1.3,-0.596955 1.3,-1.333333 0,-0.736379 -0.582031,-1.333334 -1.3,-1.333334 z"
     id="path4159-3-3" />
  <path
     style="fill:#7a0000;fill-opacity:1;stroke:none;stroke-width:1;stroke-linejoin:round;stroke-miterlimit:4;stroke-dasharray:none;stroke-opacity:0.498039"
     d="m 36,32 c -0.717969,0 -1.3,0.596955 -1.3,1.333333 0,1.333334 0.433332,3.111111 0.866667,6.666667 h 0.866665 C 36.866667,36.444444 37.3,34.666667 37.3,33.333333 37.3,32.596955 36.717969,32 36,32 Z m 0,9.333333 c -0.717969,0 -1.3,0.596955 -1.3,1.333334 C 34.7,43.403045 35.282031,44 36,44 c 0.717969,0 1.3,-0.596955 1.3,-1.333333 0,-0.736379 -0.582031,-1.333334 -1.3,-1.333334 z"
     id="path4159-3" />
</svg>
