<?xml version="1.0" encoding="UTF-8" standalone="no"?>
<svg
   version="1.1"
   width="64"
   height="64"
   id="svg2925"
   sodipodi:docname="input-mouse.svg"
   inkscape:version="1.2.2 (b0a8486541, 2022-12-01)"
   xmlns:inkscape="http://www.inkscape.org/namespaces/inkscape"
   xmlns:sodipodi="http://sodipodi.sourceforge.net/DTD/sodipodi-0.dtd"
   xmlns:xlink="http://www.w3.org/1999/xlink"
   xmlns="http://www.w3.org/2000/svg"
   xmlns:svg="http://www.w3.org/2000/svg"
   xmlns:rdf="http://www.w3.org/1999/02/22-rdf-syntax-ns#"
   xmlns:cc="http://creativecommons.org/ns#"
   xmlns:dc="http://purl.org/dc/elements/1.1/">
  <sodipodi:namedview
     id="namedview728"
     pagecolor="#ffffff"
     bordercolor="#666666"
     borderopacity="1.0"
     inkscape:showpageshadow="2"
     inkscape:pageopacity="0.0"
     inkscape:pagecheckerboard="0"
     inkscape:deskcolor="#d1d1d1"
     showgrid="false"
     inkscape:zoom="14.75"
     inkscape:cx="48.169492"
     inkscape:cy="23.830508"
     inkscape:window-width="1483"
     inkscape:window-height="779"
     inkscape:window-x="908"
     inkscape:window-y="133"
     inkscape:window-maximized="0"
     inkscape:current-layer="svg2925" />
  <defs
     id="defs2927">
    <linearGradient
       id="linearGradient3208">
      <stop
         id="stop3210"
         style="stop-color:#ffffff;stop-opacity:1"
         offset="0" />
      <stop
         id="stop3212"
         style="stop-color:#ffffff;stop-opacity:0"
         offset="1" />
    </linearGradient>
    <linearGradient
       x1="24.117819"
       y1="33.657772"
       x2="-32.011677"
       y2="33.657784"
       id="linearGradient2875"
       xlink:href="#linearGradient3775"
       gradientUnits="userSpaceOnUse"
       gradientTransform="matrix(2.2653959e-7,-0.96727559,1.0679179,4.7877698e-7,-3.943739,28.182207)" />
    <linearGradient
       id="linearGradient3775">
      <stop
         id="stop3777"
         style="stop-color:#ffffff;stop-opacity:1"
         offset="0" />
      <stop
         id="stop3779"
         style="stop-color:#ffffff;stop-opacity:0"
         offset="1" />
    </linearGradient>
    <linearGradient
       x1="18.601307"
       y1="0.85446119"
       x2="18.601307"
       y2="49.956139"
       id="linearGradient2878"
       xlink:href="#linearGradient3600-8"
       gradientUnits="userSpaceOnUse"
       gradientTransform="matrix(1.3527629,0,0,1.1474484,23.01074,2.8486952)" />
    <linearGradient
       id="linearGradient3600-8">
      <stop
         id="stop3602-2"
         style="stop-color:#f4f4f4;stop-opacity:1"
         offset="0" />
      <stop
         id="stop3604-5"
         style="stop-color:#dbdbdb;stop-opacity:1"
         offset="1" />
    </linearGradient>
    <linearGradient
       id="linearGradient23419-5">
      <stop
         id="stop23421-7"
         style="stop-color:#000000;stop-opacity:1"
         offset="0" />
      <stop
         id="stop23423-0"
         style="stop-color:#000000;stop-opacity:0"
         offset="1" />
    </linearGradient>
    <radialGradient
       cx="23.334524"
       cy="41.63604"
       r="22.627417"
       fx="23.334524"
       fy="41.63604"
       id="radialGradient2923"
       xlink:href="#linearGradient23419-5"
       gradientUnits="userSpaceOnUse"
       gradientTransform="matrix(0.83968921,0,0,0.24304524,12.40625,47.380549)" />
    <linearGradient
       xlink:href="#linearGradient3208"
       id="linearGradient2877-3"
       gradientUnits="userSpaceOnUse"
       gradientTransform="matrix(2.9720752,0,0,1.4190803,-32.879834,-7.2101611)"
       x1="15.105815"
       y1="3.2121496"
       x2="23.162539"
       y2="26.269735" />
  </defs>
  <metadata
     id="metadata2930">
    <rdf:RDF>
      <cc:Work
         rdf:about="">
        <dc:format>image/svg+xml</dc:format>
        <dc:type
           rdf:resource="http://purl.org/dc/dcmitype/StillImage" />
      </cc:Work>
    </rdf:RDF>
  </metadata>
  <path
     d="M 51,57.5 C 51.000855,60.537485 42.494107,63 32,63 21.505892,63 12.999023,60.537485 13,57.5 12.999145,54.462529 21.505892,52 32,52 c 10.494107,0 19.000964,2.462529 19,5.5 z"
     id="path23417-6"
     style="display:inline;overflow:visible;visibility:visible;opacity:0.3;fill:url(#radialGradient2923);fill-opacity:1;fill-rule:evenodd;stroke:none;stroke-width:2;marker:none" />
  <path
     d="m 31.94137,4.5004814 c -3.660766,0.082317 -7.783893,0.2942507 -11.244842,2.5643877 -0.09308,0.056187 -0.17855,0.1236943 -0.253643,0.2003428 -3.223115,3.8311641 -3.05439,8.6976591 -3.550929,13.3829021 -0.650246,10.37273 -0.61429,20.890451 1.056846,31.253475 -2.29e-4,0.01333 -2.29e-4,0.02667 0,0.04 0.543568,2.743677 2.34584,5.65586 5.664695,6.41097 0.03233,0.0076 0.05195,0.03308 0.08455,0.04 v -0.04 c 5.035633,1.463303 10.47336,1.463701 15.514499,0.360617 2.610981,-0.57218 5.31625,-2.105196 6.256529,-4.888365 0.004,-0.01154 -0.004,-0.02808 0,-0.04 1.227253,-3.325076 1.203485,-6.748071 1.564132,-9.856866 0.01439,-0.01302 0.02846,-0.02636 0.0422,-0.04 C 47.747419,33.915663 47.701438,23.847941 46.356752,13.876589 46.170584,12.462469 45.868621,10.90595 45.13081,9.4690468 44.400994,8.047722 43.207357,6.7620662 41.452986,6.0632193 c -0.0081,-0.00257 0.0081,-0.036927 0,-0.040005 -0.01217,-0.00513 -0.02949,0.00513 -0.0422,0 -3.067219,-1.3050167 -6.41793,-1.410785 -9.384797,-1.522605 -0.02817,-8.711e-4 -0.05638,-8.711e-4 -0.08455,0 z"
     id="path4487"
     style="color:#000000;display:inline;overflow:visible;visibility:visible;fill:url(#linearGradient2878);fill-opacity:1;fill-rule:nonzero;stroke:#000000;stroke-width:0.999922;stroke-linecap:butt;stroke-linejoin:round;stroke-miterlimit:4;stroke-dasharray:none;stroke-dashoffset:0;stroke-opacity:0.2;marker:none;enable-background:accumulate" />
  <path
     d="m 32.001588,5.4999998 c -3.702445,0.082218 -7.661926,0.3282467 -10.806756,2.365458 -3.223778,3.5228692 -2.674159,8.4430502 -3.2832,12.7431162 -0.66062,10.407597 -0.663286,20.921697 1.022553,31.246314 0.493829,2.461713 2.134028,4.962417 4.905696,5.54467 4.898502,1.422451 10.237582,1.396264 15.212423,0.321193 2.373609,-0.513719 4.672094,-1.851535 5.437584,-4.135074 1.168203,-3.10103 1.187232,-6.452179 1.567533,-9.689718 C 46.739763,33.895973 46.723427,23.807695 45.364804,13.857924 45.005107,11.15953 44.041078,8.0520994 41.090769,6.9222617 38.268917,5.7263098 35.047886,5.6133927 32.001588,5.4999998 Z"
     id="rect1320-6-9-3"
     style="display:inline;overflow:visible;visibility:visible;fill:none;stroke:url(#linearGradient2875);stroke-width:1;stroke-linecap:round;stroke-linejoin:round;stroke-miterlimit:4;stroke-dasharray:none;stroke-dashoffset:0;stroke-opacity:1;marker:none" />
  <path
     style="display:inline;overflow:visible;visibility:visible;opacity:0.4;fill:url(#linearGradient2877-3);fill-opacity:1;fill-rule:nonzero;stroke:none;stroke-width:0.999918;marker:none;enable-background:accumulate"
     d="m 31.130248,5.0027268 c -3.272184,0.0407 -6.694821,0.3562795 -8.968144,2.493358 -1.751142,1.6461942 -2.472803,3.8532992 -2.796996,6.2856552 -0.324192,2.432357 -0.244407,5.059811 -0.429169,7.480079 -0.525519,6.883988 -0.645167,13.863539 0.02959,20.73818 L 45.500001,24.821421 C 45.407877,24.079957 45.309701,12.819402 45.204023,12.079686 44.754516,8.9332859 42.264259,6.3763421 39.21046,5.7492412 36.999468,5.2952104 34.753806,5.0058454 32.521349,5.0027268 c -0.457438,-6.251e-4 -0.923644,-0.00581 -1.391099,0 z"
     id="rect3238"
     sodipodi:nodetypes="ssssccsscss" />
  <rect
     style="fill:none;fill-opacity:1;stroke:#ffffff;stroke-width:0.999991;stroke-linecap:round;stroke-linejoin:round;stroke-dasharray:none;stroke-opacity:0.905813;paint-order:markers fill stroke"
     id="rect11066"
     width="7.0000038"
     height="14.50001"
     x="28.499998"
     y="5.9999957"
     ry="3"
     rx="3" />
  <rect
     style="fill:none;fill-opacity:1;stroke:#ffffff;stroke-width:0.999997;stroke-linecap:round;stroke-linejoin:round;stroke-dasharray:none;stroke-opacity:0.6;paint-order:markers fill stroke"
     id="rect11618"
     width="3"
     height="11.000003"
     x="30.5"
     y="20.5"
     ry="1"
     rx="1" />
  <rect
     style="fill:#dbdbdb;fill-opacity:1;stroke:none;stroke-width:0.0999997;stroke-linecap:round;stroke-linejoin:round;paint-order:markers fill stroke"
     id="rect316"
     width="2"
     height="11"
     x="31"
     y="20"
     ry="0.5"
     rx="0.5" />
  <rect
     style="fill:#cccccc;fill-opacity:1;stroke:none;stroke-width:0.0999998;stroke-linecap:round;stroke-linejoin:round;paint-order:markers fill stroke"
     id="rect870"
     width="6"
     height="15.5"
     x="28.999998"
     y="4.5"
     ry="2.5"
     rx="2.5" />
  <rect
     style="fill:#ebebec;fill-opacity:1;stroke:none;stroke-width:0.099999;stroke-linecap:round;stroke-linejoin:round;paint-order:markers fill stroke"
     id="rect974"
     width="4"
     height="13.5"
     x="29.999998"
     y="5.5"
     ry="2"
     rx="2" />
  <rect
     style="fill:#d6d6d6;fill-opacity:1;stroke:none;stroke-width:0.999997;stroke-linejoin:round;stroke-miterlimit:3.42857;paint-order:stroke markers fill"
     id="rect32349"
     width="4"
     height="1"
     x="29.999998"
     y="12" />
  <rect
     style="fill:#d6d6d6;fill-opacity:1;stroke:none;stroke-width:0.999997;stroke-linejoin:round;stroke-miterlimit:3.42857;paint-order:stroke markers fill"
     id="rect2136"
     width="4"
     height="1"
     x="29.999998"
     y="5.9999995" />
  <rect
     style="fill:#d6d6d6;fill-opacity:1;stroke:none;stroke-width:0.999997;stroke-linejoin:round;stroke-miterlimit:3.42857;paint-order:stroke markers fill"
     id="rect2140"
     width="4"
     height="1"
     x="29.999998"
     y="10" />
  <rect
     style="fill:#d6d6d6;fill-opacity:1;stroke:none;stroke-width:0.999997;stroke-linejoin:round;stroke-miterlimit:3.42857;paint-order:stroke markers fill"
     id="rect2144"
     width="4"
     height="1"
     x="29.999998"
     y="8" />
  <rect
     style="fill:#f2f2f2;fill-opacity:1;stroke:none;stroke-width:0.999997;stroke-linejoin:round;stroke-miterlimit:3.42857;paint-order:stroke markers fill"
     id="rect2136-3"
     width="4"
     height="1"
     x="29.999998"
     y="6.9999995" />
  <rect
     style="fill:#f2f2f2;fill-opacity:1;stroke:none;stroke-width:0.999997;stroke-linejoin:round;stroke-miterlimit:3.42857;paint-order:stroke markers fill"
     id="rect2140-6"
     width="4"
     height="1"
     x="29.999998"
     y="11" />
  <rect
     style="fill:#f2f2f2;fill-opacity:1;stroke:none;stroke-width:0.999997;stroke-linejoin:round;stroke-miterlimit:3.42857;paint-order:stroke markers fill"
     id="rect2144-7"
     width="4"
     height="1"
     x="29.999998"
     y="9" />
  <path
     style="display:inline;overflow:visible;visibility:visible;opacity:0.2;fill:#000000;fill-opacity:1;fill-rule:nonzero;stroke:none;stroke-width:1.7;marker:none;enable-background:accumulate"
     id="path3576"
     d="m 31.583333,42 c -0.230833,0 -0.416666,0.185834 -0.416666,0.416667 v 0.9375 c -0.418917,0.09534 -0.806183,0.259 -1.15885,0.481766 L 29.34375,43.171867 c -0.163167,-0.163167 -0.422717,-0.163167 -0.585933,0 l -0.585933,0.58595 c -0.163167,0.163167 -0.163167,0.4227 0,0.585933 l 0.664049,0.664067 c -0.22275,0.35265 -0.386366,0.739933 -0.481766,1.15885 h -0.9375 C 27.185833,46.166667 27,46.3525 27,46.583333 v 0.833334 c 0,0.230833 0.185833,0.416666 0.416667,0.416666 h 0.9375 c 0.09534,0.418917 0.259016,0.8062 0.481766,1.15885 l -0.664049,0.664067 c -0.163167,0.163166 -0.163167,0.422717 0,0.585933 l 0.585933,0.585933 c 0.163166,0.163167 0.422717,0.163167 0.585933,0 l 0.664067,-0.664049 c 0.352667,0.22275 0.739933,0.386367 1.15885,0.481766 v 0.9375 C 31.166667,51.814166 31.3525,52 31.583333,52 h 0.833334 c 0.230833,0 0.416667,-0.185834 0.416667,-0.416667 v -0.9375 c 0.418916,-0.09534 0.8062,-0.259 1.158849,-0.481766 l 0.664067,0.664049 c 0.163166,0.163167 0.422716,0.163167 0.585933,0 l 0.585951,-0.585933 c 0.163166,-0.163167 0.163166,-0.4227 0,-0.585933 l -0.664067,-0.664067 c 0.222767,-0.35265 0.386367,-0.739933 0.481767,-1.15885 h 0.9375 C 36.814166,47.833333 37,47.6475 37,47.416667 V 46.583333 C 37,46.3525 36.814166,46.166667 36.583333,46.166667 h -0.9375 c -0.09534,-0.418917 -0.259,-0.8062 -0.481766,-1.15885 l 0.664066,-0.664067 c 0.163167,-0.163166 0.163167,-0.422717 0,-0.585933 l -0.58595,-0.58595 c -0.163167,-0.163167 -0.4227,-0.163167 -0.585933,0 l -0.664067,0.664066 c -0.35265,-0.222766 -0.739933,-0.386366 -1.15885,-0.481766 v -0.9375 C 32.833333,42.185834 32.6475,42 32.416667,42 Z M 32,45.333333 C 32.92,45.333333 33.666667,46.08 33.666667,47 33.666667,47.92 32.92,48.666667 32,48.666667 31.08,48.666667 30.333333,47.92 30.333333,47 30.333333,46.08 31.08,45.333333 32,45.333333 Z" />
  <path
     style="display:inline;overflow:visible;visibility:visible;opacity:0.3;fill:#ffffff;fill-opacity:1;fill-rule:nonzero;stroke:none;stroke-width:1.7;marker:none;enable-background:accumulate"
     id="path3576-2"
     d="m 31.583333,42.999996 c -0.230833,0 -0.416666,0.185832 -0.416666,0.416667 v 0.9375 c -0.418917,0.09534 -0.806183,0.259 -1.15885,0.481765 L 29.34375,44.171863 c -0.163167,-0.163167 -0.422717,-0.163167 -0.585933,0 l -0.585933,0.58595 c -0.163167,0.163165 -0.163167,0.4227 0,0.585932 l 0.664049,0.664068 c -0.22275,0.35265 -0.386366,0.739932 -0.481766,1.15885 h -0.9375 C 27.185833,47.166663 27,47.352495 27,47.583328 v 0.833335 c 0,0.230832 0.185833,0.416665 0.416667,0.416665 h 0.9375 c 0.09534,0.418917 0.259016,0.8062 0.481766,1.15885 l -0.664049,0.664067 c -0.163167,0.163168 -0.163167,0.422718 0,0.585933 l 0.585933,0.585935 c 0.163166,0.163165 0.422717,0.163165 0.585933,0 l 0.664067,-0.66405 c 0.352667,0.22275 0.739933,0.386365 1.15885,0.481765 v 0.9375 c 0,0.230835 0.185833,0.416667 0.416666,0.416667 h 0.833334 c 0.230833,0 0.416667,-0.185832 0.416667,-0.416667 v -0.9375 c 0.418916,-0.09534 0.8062,-0.259 1.158849,-0.481765 l 0.664067,0.66405 c 0.163166,0.163165 0.422716,0.163165 0.585933,0 l 0.585951,-0.585935 c 0.163166,-0.163165 0.163166,-0.4227 0,-0.585933 l -0.664067,-0.664067 c 0.222767,-0.35265 0.386367,-0.739933 0.481767,-1.15885 h 0.9375 C 36.814166,48.833328 37,48.647495 37,48.416663 v -0.833335 c 0,-0.230833 -0.185834,-0.416665 -0.416667,-0.416665 h -0.9375 c -0.09534,-0.418918 -0.259,-0.8062 -0.481766,-1.15885 l 0.664066,-0.664068 c 0.163167,-0.163166 0.163167,-0.422716 0,-0.585932 l -0.58595,-0.58595 c -0.163167,-0.163167 -0.4227,-0.163167 -0.585933,0 l -0.664067,0.664065 c -0.352649,-0.222765 -0.739933,-0.386365 -1.15885,-0.481765 v -0.9375 c 0,-0.230835 -0.185833,-0.416667 -0.416666,-0.416667 z M 32,46.333328 c 0.92,0 1.666667,0.746667 1.666667,1.666667 0,0.92 -0.746667,1.666668 -1.666667,1.666668 -0.92,0 -1.666667,-0.746668 -1.666667,-1.666668 0,-0.92 0.746667,-1.666667 1.666667,-1.666667 z" />
  <rect
     style="fill:#d6d6d6;fill-opacity:1;stroke:none;stroke-width:0.999997;stroke-linejoin:round;stroke-miterlimit:3.42857;paint-order:stroke markers fill"
     id="rect13189"
     width="4"
     height="1"
     x="29.999998"
     y="14" />
  <rect
     style="fill:#f2f2f2;fill-opacity:1;stroke:none;stroke-width:0.999997;stroke-linejoin:round;stroke-miterlimit:3.42857;paint-order:stroke markers fill"
     id="rect13191"
     width="4"
     height="1"
     x="29.999998"
     y="15" />
  <rect
     style="fill:#f2f2f2;fill-opacity:1;stroke:none;stroke-width:0.999997;stroke-linejoin:round;stroke-miterlimit:3.42857;paint-order:stroke markers fill"
     id="rect13193"
     width="4"
     height="1"
     x="29.999998"
     y="13" />
  <rect
     style="fill:#d6d6d6;fill-opacity:1;stroke:none;stroke-width:0.999997;stroke-linejoin:round;stroke-miterlimit:3.42857;paint-order:stroke markers fill"
     id="rect13195"
     width="4"
     height="1"
     x="29.999998"
     y="16" />
  <rect
     style="fill:none;fill-opacity:1;stroke:#ffffff;stroke-width:0.999994;stroke-linecap:round;stroke-linejoin:round;stroke-dasharray:none;stroke-opacity:0.5;paint-order:markers fill stroke"
     id="rect6879"
     width="3.0000081"
     height="12.500006"
     x="30.499998"
     y="5.9999971"
     ry="1.5"
     rx="1.5" />
</svg>
