<?xml version="1.0" encoding="UTF-8" standalone="no"?>
<svg
   xmlns:dc="http://purl.org/dc/elements/1.1/"
   xmlns:cc="http://creativecommons.org/ns#"
   xmlns:rdf="http://www.w3.org/1999/02/22-rdf-syntax-ns#"
   xmlns:svg="http://www.w3.org/2000/svg"
   xmlns="http://www.w3.org/2000/svg"
   xmlns:xlink="http://www.w3.org/1999/xlink"
   width="64"
   height="64"
   viewBox="0 0 64.000001 64.000001"
   id="svg4220"
   version="1.1">
  <defs
     id="defs4222">
    <linearGradient
       xlink:href="#linearGradient5171"
       id="linearGradient5177"
       x1="-19"
       y1="20"
       x2="-19"
       y2="42"
       gradientUnits="userSpaceOnUse"
       gradientTransform="translate(49.620739,10.999812)" />
    <linearGradient
       id="linearGradient5171">
      <stop
         style="stop-color:#f8f8f8;stop-opacity:1"
         offset="0"
         id="stop5173" />
      <stop
         style="stop-color:#efeff0;stop-opacity:1"
         offset="1"
         id="stop5175" />
    </linearGradient>
    <linearGradient
       xlink:href="#linearGradient3462"
       id="linearGradient4088"
       gradientUnits="userSpaceOnUse"
       gradientTransform="matrix(1.4864864,0,0,0.75675676,-3.6756786,23.337847)"
       x1="40.290417"
       y1="5.524776"
       x2="40.290417"
       y2="42.437775" />
    <linearGradient
       id="linearGradient3462">
      <stop
         id="stop3464"
         style="stop-color:#ffffff;stop-opacity:1"
         offset="0" />
      <stop
         id="stop3466"
         style="stop-color:#ffffff;stop-opacity:0.23529412"
         offset="0.03457849" />
      <stop
         id="stop3468"
         style="stop-color:#ffffff;stop-opacity:0.15686275"
         offset="0.96375686" />
      <stop
         id="stop3470"
         style="stop-color:#ffffff;stop-opacity:0.39215687"
         offset="1" />
    </linearGradient>
    <linearGradient
       xlink:href="#radialGradient4536"
       id="linearGradient4534"
       x1="24.725653"
       y1="7.8793106"
       x2="24.725653"
       y2="61.171558"
       gradientUnits="userSpaceOnUse"
       gradientTransform="matrix(1.2666667,0,0,0.83333334,1.6,19.41669)" />
    <radialGradient
       cx="23.896"
       cy="3.99"
       r="20.396999"
       id="radialGradient4536"
       gradientUnits="userSpaceOnUse"
       gradientTransform="matrix(0,1.2316483,-1.625754,0,18.486966,-28.721977)">
      <stop
         id="stop4538"
         style="stop-color:#ffffff;stop-opacity:1"
         offset="0" />
      <stop
         id="stop4540"
         style="stop-color:#dddddd;stop-opacity:1"
         offset="0.06562372" />
      <stop
         id="stop4542"
         style="stop-color:#abacae;stop-opacity:1"
         offset="0.66093999" />
      <stop
         id="stop4544"
         style="stop-color:#89898b;stop-opacity:1"
         offset="1" />
    </radialGradient>
    <linearGradient
       gradientTransform="matrix(0.08449704,0,0,0.01235294,-6.5396456,38.470822)"
       gradientUnits="userSpaceOnUse"
       xlink:href="#linearGradient5048"
       id="linearGradient19619"
       y2="609.50507"
       x2="302.85715"
       y1="366.64789"
       x1="302.85715" />
    <linearGradient
       id="linearGradient5048">
      <stop
         offset="0"
         style="stop-color:#000000;stop-opacity:0"
         id="stop5050" />
      <stop
         offset="0.5"
         style="stop-color:#000000;stop-opacity:1"
         id="stop5056" />
      <stop
         offset="1"
         style="stop-color:#000000;stop-opacity:0"
         id="stop5052" />
    </linearGradient>
    <radialGradient
       gradientTransform="matrix(-0.0289166,0,0,0.01235294,21.026894,38.470848)"
       gradientUnits="userSpaceOnUse"
       xlink:href="#linearGradient5060"
       id="radialGradient19616"
       fy="486.64789"
       fx="605.71429"
       r="117.14286"
       cy="486.64789"
       cx="605.71429" />
    <linearGradient
       id="linearGradient5060">
      <stop
         offset="0"
         style="stop-color:#000000;stop-opacity:1"
         id="stop5062" />
      <stop
         offset="1"
         style="stop-color:#000000;stop-opacity:0"
         id="stop5064" />
    </linearGradient>
    <radialGradient
       gradientTransform="matrix(0.02891661,0,0,0.01235294,26.973101,38.470848)"
       gradientUnits="userSpaceOnUse"
       xlink:href="#linearGradient5060"
       id="radialGradient19613"
       fy="486.64789"
       fx="605.71429"
       r="117.14286"
       cy="486.64789"
       cx="605.71429" />
    <linearGradient
       xlink:href="#linearGradient5171"
       id="linearGradient5177-3"
       x1="-19"
       y1="20"
       x2="-19"
       y2="42"
       gradientUnits="userSpaceOnUse"
       gradientTransform="translate(54.620552,10.999812)" />
    <linearGradient
       y2="42"
       x2="-19"
       y1="20"
       x1="-19"
       gradientTransform="translate(59.620552,10.999812)"
       gradientUnits="userSpaceOnUse"
       id="linearGradient4172"
       xlink:href="#linearGradient5171" />
  </defs>
  <metadata
     id="metadata4225">
    <rdf:RDF>
      <cc:Work
         rdf:about="">
        <dc:format>image/svg+xml</dc:format>
        <dc:type
           rdf:resource="http://purl.org/dc/dcmitype/StillImage" />
        <dc:title />
      </cc:Work>
    </rdf:RDF>
  </metadata>
  <g
     style="opacity:0.4"
     id="g3257"
     transform="matrix(1.25,0,0,1,2,12)">
    <rect
       style="display:inline;overflow:visible;visibility:visible;fill:url(#linearGradient19619);fill-opacity:1;fill-rule:nonzero;stroke:none;stroke-width:1;marker:none"
       id="rect2879"
       y="43"
       x="3.5999999"
       height="2.9999998"
       width="40.799999" />
    <path
       style="display:inline;overflow:visible;visibility:visible;fill:url(#radialGradient19616);fill-opacity:1;fill-rule:nonzero;stroke:none;stroke-width:1;marker:none"
       id="path2881"
       d="m 3.6,43.00013 c 0,0 0,2.999835 0,2.999835 C 2.1108662,46.005612 0,45.327854 0,44.499854 0,43.671856 1.6617608,43.000131 3.6,43.00013 Z" />
    <path
       style="display:inline;overflow:visible;visibility:visible;fill:url(#radialGradient19613);fill-opacity:1;fill-rule:nonzero;stroke:none;stroke-width:1;marker:none"
       id="path2883"
       d="m 44.4,43.00013 c 0,0 0,2.999835 0,2.999835 1.489133,0.0056 3.6,-0.672111 3.6,-1.500111 0,-0.827998 -1.661761,-1.499723 -3.6,-1.499724 z" />
  </g>
  <rect
     style="color:#000000;display:inline;overflow:visible;visibility:visible;opacity:1;fill:url(#linearGradient4534);fill-opacity:1;fill-rule:nonzero;stroke:none;stroke-width:0.99999994;marker:none;enable-background:accumulate"
     id="rect5505-21-3-8-5-2"
     y="26.499983"
     x="3.4999995"
     ry="1.5517241"
     rx="1.9"
     height="30"
     width="57" />
  <rect
     style="opacity:0.6;fill:none;stroke:url(#linearGradient4088);stroke-width:1;stroke-linecap:round;stroke-linejoin:round;stroke-miterlimit:4;stroke-dasharray:none;stroke-dashoffset:0;stroke-opacity:1"
     id="rect6741-5-0-2-3"
     y="27.499975"
     x="4.5"
     ry="0.77777779"
     rx="0.95930237"
     height="28"
     width="55" />
  <rect
     style="color:#000000;clip-rule:nonzero;display:inline;overflow:visible;visibility:visible;opacity:0.3;isolation:auto;mix-blend-mode:normal;color-interpolation:sRGB;color-interpolation-filters:linearRGB;solid-color:#000000;solid-opacity:1;fill:none;fill-opacity:1;fill-rule:nonzero;stroke:#000000;stroke-width:1;stroke-linecap:butt;stroke-linejoin:miter;stroke-miterlimit:4;stroke-dasharray:none;stroke-dashoffset:0;stroke-opacity:1;marker:none;color-rendering:auto;image-rendering:auto;shape-rendering:auto;text-rendering:auto;enable-background:accumulate"
     id="rect5505-21-3-8-9-1-1"
     y="26.499983"
     x="3.5"
     ry="1.5517242"
     rx="1.9"
     height="30"
     width="57.000004" />
  <path
     d="m 7.5001874,31.007624 c -0.809969,0 -1.4921875,0.682219 -1.4921875,1.492188 l 0,1 c 0,0.385392 0.1705443,0.731978 0.4199219,1 -0.2493776,0.268022 -0.4199219,0.614608 -0.4199219,1 l 0,3 c 0,0.385392 0.1705443,0.731978 0.4199219,1 -0.2493776,0.268022 -0.4199219,0.614608 -0.4199219,1 l 0,3 c 0,0.385392 0.1705443,0.731978 0.4199219,1 -0.2493776,0.268022 -0.4199219,0.614608 -0.4199219,1 l 0,3 c 0,0.385392 0.1705443,0.731978 0.4199219,1 -0.2493776,0.268022 -0.4199219,0.614608 -0.4199219,1 l 0,3 c 0,0.809969 0.6822185,1.492188 1.4921875,1.492188 l 3.9999996,0 c 0.385392,0 0.731978,-0.170545 1,-0.419922 0.268023,0.249377 0.614609,0.419922 1,0.419922 l 4,0 c 0.385392,0 0.731978,-0.170545 1,-0.419922 0.268022,0.249377 0.614608,0.419922 1,0.419922 l 19.999813,0 c 0.385393,0 0.731978,-0.170545 1,-0.419922 0.268022,0.249377 0.614608,0.419922 1,0.419922 l 4,0 c 0.385393,0 0.731978,-0.170623 1,-0.42 0.268022,0.249377 0.614608,0.42 1,0.42 l 4,0 c 0.413478,0.03596 0.640454,-0.07843 1,-0.42 0.305614,0.305614 0.496636,0.42 1,0.42 l 3.000187,0 c 0.80997,0 1.492188,-0.682219 1.492188,-1.492188 l 0,-3 c 0,-0.385392 -0.170544,-0.731978 -0.419922,-1 0.249378,-0.268022 0.419922,-0.614608 0.419922,-1 l 0,-3 c 0,-0.385392 -0.170544,-0.731978 -0.419922,-1 0.249378,-0.268022 0.419922,-0.614608 0.419922,-1 l 0,-3 c 0,-0.385392 -0.170544,-0.731978 -0.419922,-1 0.249378,-0.268022 0.419922,-0.614608 0.419922,-1 l 0,-3 c 0,-0.385392 -0.170544,-0.731978 -0.419922,-1 0.249378,-0.268022 0.419922,-0.614608 0.419922,-1 l 0,-1 c 0,-0.809969 -0.682219,-1.492188 -1.492188,-1.492188 0,0 -3.753551,-0.03595 -3.250187,0 0,0 -0.597193,0.249592 -0.75,0.420376 -0.188762,-0.19775 -0.649443,-0.402399 -1,-0.420376 l -4,0 c -0.449432,0 -0.883148,0.240603 -1,0.420376 -0.152807,-0.206739 -0.568545,-0.402399 -1,-0.420376 l -2.999813,0 c -0.385392,0 -0.731978,0.170999 -1,0.420376 -0.268022,-0.249377 -0.614607,-0.420376 -1,-0.420376 l -3,0 c -0.385392,0 -0.731978,0.170545 -1,0.419922 -0.268022,-0.249377 -0.614607,-0.419922 -1,-0.419922 l -3,0 c -0.385392,0 -0.731978,0.170545 -1,0.419922 -0.268022,-0.249377 -0.614607,-0.419922 -1,-0.419922 l -3,0 c -0.385392,0 -0.731978,0.170545 -1,0.419922 -0.268022,-0.249377 -0.614608,-0.419922 -1,-0.419922 l -3,0 c -0.385392,0 -0.731978,0.170545 -1,0.419922 -0.268022,-0.249377 -0.614608,-0.419922 -1,-0.419922 l -3,0 c -0.385392,0 -0.731978,0.170545 -1,0.419922 -0.268022,-0.249377 -0.614608,-0.419922 -1,-0.419922 l -3,0 c -0.385391,0 -0.731977,0.170545 -1,0.419922 -0.268022,-0.249377 -0.614608,-0.419922 -1,-0.419922 z"
     id="path5222"
     style="color:#000000;clip-rule:nonzero;display:inline;overflow:visible;visibility:visible;opacity:0.07000002;isolation:auto;mix-blend-mode:normal;color-interpolation:sRGB;color-interpolation-filters:linearRGB;solid-color:#000000;solid-opacity:1;fill:#000000;fill-opacity:1;fill-rule:nonzero;stroke:none;stroke-width:1;stroke-linecap:butt;stroke-linejoin:miter;stroke-miterlimit:4;stroke-dasharray:none;stroke-dashoffset:0;stroke-opacity:1;marker:none;color-rendering:auto;image-rendering:auto;shape-rendering:auto;text-rendering:auto;enable-background:accumulate" />
  <path
     id="rect4562"
     d="m 7.5001874,31.999812 c -0.277,0 -0.5,0.223 -0.5,0.5 l 0,1 c 0,0.277 0.223,0.5 0.5,0.5 l 2.9999996,0 c 0.277,0 0.5,-0.223 0.5,-0.5 l 0,-1 c 0,-0.277 -0.223,-0.5 -0.5,-0.5 z m 4.9999996,0 c -0.276999,0 -0.5,0.223 -0.5,0.5 l 0,1 c 0,0.277 0.223001,0.5 0.5,0.5 l 3,0 c 0.277,0 0.5,-0.223 0.5,-0.5 l 0,-1 c 0,-0.277 -0.223,-0.5 -0.5,-0.5 z m 5,0 c -0.277,0 -0.5,0.223 -0.5,0.5 l 0,1 c 0,0.277 0.223,0.5 0.5,0.5 l 3,0 c 0.277,0 0.5,-0.223 0.5,-0.5 l 0,-1 c 0,-0.277 -0.223,-0.5 -0.5,-0.5 z m 5,0 c -0.277,0 -0.5,0.223 -0.5,0.5 l 0,1 c 0,0.277 0.223,0.5 0.5,0.5 l 3,0 c 0.277,0 0.5,-0.223 0.5,-0.5 l 0,-1 c 0,-0.277 -0.223,-0.5 -0.5,-0.5 z m 5,0 c -0.277,0 -0.5,0.223 -0.5,0.5 l 0,1 c 0,0.277 0.223,0.5 0.5,0.5 l 3,0 c 0.277,0 0.5,-0.223 0.5,-0.5 l 0,-1 c 0,-0.277 -0.223,-0.5 -0.5,-0.5 z m 5,0 c -0.277,0 -0.5,0.223 -0.5,0.5 l 0,1 c 0,0.277 0.223,0.5 0.5,0.5 l 3,0 c 0.277,0 0.5,-0.223 0.5,-0.5 l 0,-1 c 0,-0.277 -0.223,-0.5 -0.5,-0.5 z m 5,0 c -0.277,0 -0.5,0.223 -0.5,0.5 l 0,1 c 0,0.277 0.223,0.5 0.5,0.5 l 3,0 c 0.277,0 0.5,-0.223 0.5,-0.5 l 0,-1 c 0,-0.277 -0.223,-0.5 -0.5,-0.5 z m 5,0 c -0.277,0 -0.5,0.223 -0.5,0.5 l 0,1 c 0,0.277 0.223,0.5 0.5,0.5 l 2.999813,0 c 0.277,0 0.5,-0.223 0.5,-0.5 l 0,-1 c 0,-0.277 -0.223,-0.5 -0.5,-0.5 z m -34.9999996,3 c -0.277,0 -0.5,0.223 -0.5,0.5 l 0,3 c 0,0.277 0.223,0.5 0.5,0.5 l 2.9999996,0 c 0.277,0 0.5,-0.223 0.5,-0.5 l 0,-3 c 0,-0.277 -0.223,-0.5 -0.5,-0.5 z m 4.9999996,0 c -0.276999,0 -0.5,0.223 -0.5,0.5 l 0,3 c 0,0.277 0.223001,0.5 0.5,0.5 l 3,0 c 0.277,0 0.5,-0.223 0.5,-0.5 l 0,-3 c 0,-0.277 -0.223,-0.5 -0.5,-0.5 z m 5,0 c -0.277,0 -0.5,0.223 -0.5,0.5 l 0,3 c 0,0.277 0.223,0.5 0.5,0.5 l 3,0 c 0.277,0 0.5,-0.223 0.5,-0.5 l 0,-3 c 0,-0.277 -0.223,-0.5 -0.5,-0.5 z m 5,0 c -0.277,0 -0.5,0.223 -0.5,0.5 l 0,3 c 0,0.277 0.223,0.5 0.5,0.5 l 3,0 c 0.277,0 0.5,-0.223 0.5,-0.5 l 0,-3 c 0,-0.277 -0.223,-0.5 -0.5,-0.5 z m 5,0 c -0.277,0 -0.5,0.223 -0.5,0.5 l 0,3 c 0,0.277 0.223,0.5 0.5,0.5 l 3,0 c 0.277,0 0.5,-0.223 0.5,-0.5 l 0,-3 c 0,-0.277 -0.223,-0.5 -0.5,-0.5 z m 5,0 c -0.277,0 -0.5,0.223 -0.5,0.5 l 0,3 c 0,0.277 0.223,0.5 0.5,0.5 l 3,0 c 0.277,0 0.5,-0.223 0.5,-0.5 l 0,-3 c 0,-0.277 -0.223,-0.5 -0.5,-0.5 z m 5,0 c -0.277,0 -0.5,0.223 -0.5,0.5 l 0,3 c 0,0.277 0.223,0.5 0.5,0.5 l 3,0 c 0.277,0 0.5,-0.223 0.5,-0.5 l 0,-3 c 0,-0.277 -0.223,-0.5 -0.5,-0.5 z m 5,0 c -0.277,0 -0.5,0.223 -0.5,0.5 l 0,3 c 0,0.277 0.223,0.5 0.5,0.5 l 2.999813,0 c 0.277,0 0.5,-0.223 0.5,-0.5 l 0,-3 c 0,-0.277 -0.223,-0.5 -0.5,-0.5 z m -34.9999996,5 c -0.277,0 -0.5,0.223 -0.5,0.5 l 0,3 c 0,0.277 0.223,0.5 0.5,0.5 l 3.9999996,0 c 0.277,0 0.5,-0.223 0.5,-0.5 l 0,-3 c 0,-0.277 -0.223,-0.5 -0.5,-0.5 z m 5.9999996,0 c -0.277,0 -0.5,0.223 -0.5,0.5 l 0,3 c 0,0.277 0.223,0.5 0.5,0.5 l 3,0 c 0.277,0 0.5,-0.223 0.5,-0.5 l 0,-3 c 0,-0.277 -0.223,-0.5 -0.5,-0.5 z m 5,0 c -0.277,0 -0.5,0.223 -0.5,0.5 l 0,3 c 0,0.277 0.223,0.5 0.5,0.5 l 3,0 c 0.277,0 0.5,-0.223 0.5,-0.5 l 0,-3 c 0,-0.277 -0.223,-0.5 -0.5,-0.5 z m 5,0 c -0.277,0 -0.5,0.223 -0.5,0.5 l 0,3 c 0,0.277 0.223,0.5 0.5,0.5 l 3,0 c 0.277,0 0.5,-0.223 0.5,-0.5 l 0,-3 c 0,-0.277 -0.223,-0.5 -0.5,-0.5 z m 5,0 c -0.277,0 -0.5,0.223 -0.5,0.5 l 0,3 c 0,0.277 0.223,0.5 0.5,0.5 l 3,0 c 0.277,0 0.5,-0.223 0.5,-0.5 l 0,-3 c 0,-0.277 -0.223,-0.5 -0.5,-0.5 z m 5,0 c -0.277,0 -0.5,0.223 -0.5,0.5 l 0,3 c 0,0.277 0.223,0.5 0.5,0.5 l 3,0 c 0.277,0 0.5,-0.223 0.5,-0.5 l 0,-3 c 0,-0.277 -0.223,-0.5 -0.5,-0.5 z m 5,0 c -0.277,0 -0.5,0.223 -0.5,0.5 l 0,3 c 0,0.277 0.223,0.5 0.5,0.5 l 3,0 c 0.277,0 0.5,-0.223 0.5,-0.5 l 0,-3 c 0,-0.277 -0.223,-0.5 -0.5,-0.5 z m 5,0 c -0.277,0 -0.5,0.223 -0.5,0.5 l 0,3 c 0,0.277 0.223,0.5 0.5,0.5 l 3,0 c 0.277,0 0.5,-0.223 0.5,-0.5 l 0,-3 c 0,-0.277 -0.223,-0.5 -0.5,-0.5 z m -35.9999996,5 c -0.277,0 -0.5,0.223 -0.5,0.5 l 0,3 c 0,0.277 0.223,0.5 0.5,0.5 l 3.9999996,0 c 0.277,0 0.5,-0.223 0.5,-0.5 l 0,-3 c 0,-0.277 -0.223,-0.5 -0.5,-0.5 z m 5.9999996,0 c -0.277,0 -0.5,0.223 -0.5,0.5 l 0,3 c 0,0.277 0.223,0.5 0.5,0.5 l 3,0 c 0.277,0 0.5,-0.223 0.5,-0.5 l 0,-3 c 0,-0.277 -0.223,-0.5 -0.5,-0.5 z m 5,0 c -0.277,0 -0.5,0.223 -0.5,0.5 l 0,3 c 0,0.277 0.223,0.5 0.5,0.5 l 3,0 c 0.277,0 0.5,-0.223 0.5,-0.5 l 0,-3 c 0,-0.277 -0.223,-0.5 -0.5,-0.5 z m 5,0 c -0.277,0 -0.5,0.223 -0.5,0.5 l 0,3 c 0,0.277 0.223,0.5 0.5,0.5 l 3,0 c 0.277,0 0.5,-0.223 0.5,-0.5 l 0,-3 c 0,-0.277 -0.223,-0.5 -0.5,-0.5 z m 5,0 c -0.277,0 -0.5,0.223 -0.5,0.5 l 0,3 c 0,0.277 0.223,0.5 0.5,0.5 l 3,0 c 0.277,0 0.5,-0.223 0.5,-0.5 l 0,-3 c 0,-0.277 -0.223,-0.5 -0.5,-0.5 z m 5,0 c -0.277,0 -0.5,0.223 -0.5,0.5 l 0,3 c 0,0.277 0.223,0.5 0.5,0.5 l 3,0 c 0.277,0 0.5,-0.223 0.5,-0.5 l 0,-3 c 0,-0.277 -0.223,-0.5 -0.5,-0.5 z m 5,0 c -0.277,0 -0.5,0.223 -0.5,0.5 l 0,3 c 0,0.277 0.223,0.5 0.5,0.5 l 3,0 c 0.277,0 0.5,-0.223 0.5,-0.5 l 0,-3 c 0,-0.277 -0.223,-0.5 -0.5,-0.5 z m 5,0 c -0.277,0 -0.5,0.223 -0.5,0.5 l 0,3 c 0,0.277 0.223,0.5 0.5,0.5 l 3,0 c 0.277,0 0.5,-0.223 0.5,-0.5 l 0,-3 c 0,-0.277 -0.223,-0.5 -0.5,-0.5 z m -35.9999996,5 c -0.277,0 -0.5,0.223 -0.5,0.5 l 0,3 c 0,0.277 0.223,0.5 0.5,0.5 l 3.9999996,0 c 0.277,0 0.5,-0.223 0.5,-0.5 l 0,-3 c 0,-0.277 -0.223,-0.5 -0.5,-0.5 z m 5.9999996,0 c -0.277,0 -0.5,0.223 -0.5,0.5 l 0,3 c 0,0.277 0.223,0.5 0.5,0.5 l 4,0 c 0.277,0 0.5,-0.223 0.5,-0.5 l 0,-3 c 0,-0.277 -0.223,-0.5 -0.5,-0.5 z m 6,0 c -0.277,0 -0.5,0.223 -0.5,0.5 l 0,3 c 0,0.277 0.223,0.5 0.5,0.5 l 19.999813,0 c 0.277,0 0.5,-0.223 0.5,-0.5 l 0,-3 c 0,-0.277 -0.223,-0.5 -0.5,-0.5 z m 21.999813,0 c -0.277,0 -0.5,0.223 -0.5,0.5 l 0,3 c 0,0.277 0.223,0.5 0.5,0.5 l 4,0 c 0.277,0 0.5,-0.223 0.5,-0.5 l 0,-3 c 0,-0.277 -0.223,-0.5 -0.5,-0.5 z"
     style="color:#000000;clip-rule:nonzero;display:inline;overflow:visible;visibility:visible;opacity:0.15;isolation:auto;mix-blend-mode:normal;color-interpolation:sRGB;color-interpolation-filters:linearRGB;solid-color:#000000;solid-opacity:1;fill:#000000;fill-opacity:1;fill-rule:nonzero;stroke:none;stroke-width:1;stroke-linecap:butt;stroke-linejoin:miter;stroke-miterlimit:4;stroke-dasharray:none;stroke-dashoffset:0;stroke-opacity:1;marker:none;color-rendering:auto;image-rendering:auto;shape-rendering:auto;text-rendering:auto;enable-background:accumulate" />
  <path
     id="rect4562-8"
     d="m 7.5001874,30.999812 c -0.277,0 -0.5,0.223 -0.5,0.5 l 0,1 c 0,0.277 0.223,0.5 0.5,0.5 l 2.9999996,0 c 0.277,0 0.5,-0.223 0.5,-0.5 l 0,-1 c 0,-0.277 -0.223,-0.5 -0.5,-0.5 z m 4.9999996,0 c -0.276999,0 -0.5,0.223 -0.5,0.5 l 0,1 c 0,0.277 0.223001,0.5 0.5,0.5 l 3,0 c 0.277,0 0.5,-0.223 0.5,-0.5 l 0,-1 c 0,-0.277 -0.223,-0.5 -0.5,-0.5 z m 5,0 c -0.277,0 -0.5,0.223 -0.5,0.5 l 0,1 c 0,0.277 0.223,0.5 0.5,0.5 l 3,0 c 0.277,0 0.5,-0.223 0.5,-0.5 l 0,-1 c 0,-0.277 -0.223,-0.5 -0.5,-0.5 z m 5,0 c -0.277,0 -0.5,0.223 -0.5,0.5 l 0,1 c 0,0.277 0.223,0.5 0.5,0.5 l 3,0 c 0.277,0 0.5,-0.223 0.5,-0.5 l 0,-1 c 0,-0.277 -0.223,-0.5 -0.5,-0.5 z m 5,0 c -0.277,0 -0.5,0.223 -0.5,0.5 l 0,1 c 0,0.277 0.223,0.5 0.5,0.5 l 3,0 c 0.277,0 0.5,-0.223 0.5,-0.5 l 0,-1 c 0,-0.277 -0.223,-0.5 -0.5,-0.5 z m 5,0 c -0.277,0 -0.5,0.223 -0.5,0.5 l 0,1 c 0,0.277 0.223,0.5 0.5,0.5 l 3,0 c 0.277,0 0.5,-0.223 0.5,-0.5 l 0,-1 c 0,-0.277 -0.223,-0.5 -0.5,-0.5 z m 5,0 c -0.277,0 -0.5,0.223 -0.5,0.5 l 0,1 c 0,0.277 0.223,0.5 0.5,0.5 l 3,0 c 0.277,0 0.5,-0.223 0.5,-0.5 l 0,-1 c 0,-0.277 -0.223,-0.5 -0.5,-0.5 z m -29.9999996,3 c -0.277,0 -0.5,0.223 -0.5,0.5 l 0,3 c 0,0.277 0.223,0.5 0.5,0.5 l 2.9999996,0 c 0.277,0 0.5,-0.223 0.5,-0.5 l 0,-3 c 0,-0.277 -0.223,-0.5 -0.5,-0.5 z m 4.9999996,0 c -0.276999,0 -0.5,0.223 -0.5,0.5 l 0,3 c 0,0.277 0.223001,0.5 0.5,0.5 l 3,0 c 0.277,0 0.5,-0.223 0.5,-0.5 l 0,-3 c 0,-0.277 -0.223,-0.5 -0.5,-0.5 z m 5,0 c -0.277,0 -0.5,0.223 -0.5,0.5 l 0,3 c 0,0.277 0.223,0.5 0.5,0.5 l 3,0 c 0.277,0 0.5,-0.223 0.5,-0.5 l 0,-3 c 0,-0.277 -0.223,-0.5 -0.5,-0.5 z m 5,0 c -0.277,0 -0.5,0.223 -0.5,0.5 l 0,3 c 0,0.277 0.223,0.5 0.5,0.5 l 3,0 c 0.277,0 0.5,-0.223 0.5,-0.5 l 0,-3 c 0,-0.277 -0.223,-0.5 -0.5,-0.5 z m 5,0 c -0.277,0 -0.5,0.223 -0.5,0.5 l 0,3 c 0,0.277 0.223,0.5 0.5,0.5 l 3,0 c 0.277,0 0.5,-0.223 0.5,-0.5 l 0,-3 c 0,-0.277 -0.223,-0.5 -0.5,-0.5 z m 5,0 c -0.277,0 -0.5,0.223 -0.5,0.5 l 0,3 c 0,0.277 0.223,0.5 0.5,0.5 l 3,0 c 0.277,0 0.5,-0.223 0.5,-0.5 l 0,-3 c 0,-0.277 -0.223,-0.5 -0.5,-0.5 z m 5,0 c -0.277,0 -0.5,0.223 -0.5,0.5 l 0,3 c 0,0.277 0.223,0.5 0.5,0.5 l 3,0 c 0.277,0 0.5,-0.223 0.5,-0.5 l 0,-3 c 0,-0.277 -0.223,-0.5 -0.5,-0.5 z m -29.9999996,5 c -0.277,0 -0.5,0.223 -0.5,0.5 l 0,3 c 0,0.277 0.223,0.5 0.5,0.5 l 3.9999996,0 c 0.277,0 0.5,-0.223 0.5,-0.5 l 0,-3 c 0,-0.277 -0.223,-0.5 -0.5,-0.5 z m 5.9999996,0 c -0.277,0 -0.5,0.223 -0.5,0.5 l 0,3 c 0,0.277 0.223,0.5 0.5,0.5 l 3,0 c 0.277,0 0.5,-0.223 0.5,-0.5 l 0,-3 c 0,-0.277 -0.223,-0.5 -0.5,-0.5 z m 5,0 c -0.277,0 -0.5,0.223 -0.5,0.5 l 0,3 c 0,0.277 0.223,0.5 0.5,0.5 l 3,0 c 0.277,0 0.5,-0.223 0.5,-0.5 l 0,-3 c 0,-0.277 -0.223,-0.5 -0.5,-0.5 z m 5,0 c -0.277,0 -0.5,0.223 -0.5,0.5 l 0,3 c 0,0.277 0.223,0.5 0.5,0.5 l 3,0 c 0.277,0 0.5,-0.223 0.5,-0.5 l 0,-3 c 0,-0.277 -0.223,-0.5 -0.5,-0.5 z m 5,0 c -0.277,0 -0.5,0.223 -0.5,0.5 l 0,3 c 0,0.277 0.223,0.5 0.5,0.5 l 3,0 c 0.277,0 0.5,-0.223 0.5,-0.5 l 0,-3 c 0,-0.277 -0.223,-0.5 -0.5,-0.5 z m 5,0 c -0.277,0 -0.5,0.223 -0.5,0.5 l 0,3 c 0,0.277 0.223,0.5 0.5,0.5 l 3,0 c 0.277,0 0.5,-0.223 0.5,-0.5 l 0,-3 c 0,-0.277 -0.223,-0.5 -0.5,-0.5 z m 5,0 c -0.277,0 -0.5,0.223 -0.5,0.5 l 0,3 c 0,0.277 0.223,0.5 0.5,0.5 l 3,0 c 0.277,0 0.5,-0.223 0.5,-0.5 l 0,-3 c 0,-0.277 -0.223,-0.5 -0.5,-0.5 z m -30.9999996,5 c -0.277,0 -0.5,0.223 -0.5,0.5 l 0,3 c 0,0.277 0.223,0.5 0.5,0.5 l 3.9999996,0 c 0.277,0 0.5,-0.223 0.5,-0.5 l 0,-3 c 0,-0.277 -0.223,-0.5 -0.5,-0.5 z m 5.9999996,0 c -0.277,0 -0.5,0.223 -0.5,0.5 l 0,3 c 0,0.277 0.223,0.5 0.5,0.5 l 3,0 c 0.277,0 0.5,-0.223 0.5,-0.5 l 0,-3 c 0,-0.277 -0.223,-0.5 -0.5,-0.5 z m 5,0 c -0.277,0 -0.5,0.223 -0.5,0.5 l 0,3 c 0,0.277 0.223,0.5 0.5,0.5 l 3,0 c 0.277,0 0.5,-0.223 0.5,-0.5 l 0,-3 c 0,-0.277 -0.223,-0.5 -0.5,-0.5 z m 5,0 c -0.277,0 -0.5,0.223 -0.5,0.5 l 0,3 c 0,0.277 0.223,0.5 0.5,0.5 l 3,0 c 0.277,0 0.5,-0.223 0.5,-0.5 l 0,-3 c 0,-0.277 -0.223,-0.5 -0.5,-0.5 z m 5,0 c -0.277,0 -0.5,0.223 -0.5,0.5 l 0,3 c 0,0.277 0.223,0.5 0.5,0.5 l 3,0 c 0.277,0 0.5,-0.223 0.5,-0.5 l 0,-3 c 0,-0.277 -0.223,-0.5 -0.5,-0.5 z m 5,0 c -0.277,0 -0.5,0.223 -0.5,0.5 l 0,3 c 0,0.277 0.223,0.5 0.5,0.5 l 3,0 c 0.277,0 0.5,-0.223 0.5,-0.5 l 0,-3 c 0,-0.277 -0.223,-0.5 -0.5,-0.5 z m 5,0 c -0.277,0 -0.5,0.223 -0.5,0.5 l 0,3 c 0,0.277 0.223,0.5 0.5,0.5 l 3,0 c 0.277,0 0.5,-0.223 0.5,-0.5 l 0,-3 c 0,-0.277 -0.223,-0.5 -0.5,-0.5 z m -30.9999996,5 c -0.277,0 -0.5,0.223 -0.5,0.5 l 0,3 c 0,0.277 0.223,0.5 0.5,0.5 l 3.9999996,0 c 0.277,0 0.5,-0.223 0.5,-0.5 l 0,-3 c 0,-0.277 -0.223,-0.5 -0.5,-0.5 z m 5.9999996,0 c -0.277,0 -0.5,0.223 -0.5,0.5 l 0,3 c 0,0.277 0.223,0.5 0.5,0.5 l 4,0 c 0.277,0 0.5,-0.223 0.5,-0.5 l 0,-3 c 0,-0.277 -0.223,-0.5 -0.5,-0.5 z m 6,0 c -0.277,0 -0.5,0.223 -0.5,0.5 l 0,3 c 0,0.277 0.223,0.5 0.5,0.5 l 19.999813,0 c 0.277,0 0.5,-0.223 0.5,-0.5 l 0,-3 c 0,-0.277 -0.223,-0.5 -0.5,-0.5 z"
     style="color:#000000;clip-rule:nonzero;display:inline;overflow:visible;visibility:visible;opacity:1;isolation:auto;mix-blend-mode:normal;color-interpolation:sRGB;color-interpolation-filters:linearRGB;solid-color:#000000;solid-opacity:1;fill:url(#linearGradient5177);fill-opacity:1;fill-rule:nonzero;stroke:none;stroke-width:1;stroke-linecap:butt;stroke-linejoin:miter;stroke-miterlimit:4;stroke-dasharray:none;stroke-dashoffset:0;stroke-opacity:1;marker:none;color-rendering:auto;image-rendering:auto;shape-rendering:auto;text-rendering:auto;enable-background:accumulate" />
  <path
     style="color:#000000;clip-rule:nonzero;display:inline;overflow:visible;visibility:visible;opacity:0.15;isolation:auto;mix-blend-mode:normal;color-interpolation:sRGB;color-interpolation-filters:linearRGB;solid-color:#000000;solid-opacity:1;fill:#000000;fill-opacity:1;fill-rule:nonzero;stroke:none;stroke-width:1;stroke-linecap:butt;stroke-linejoin:miter;stroke-miterlimit:4;stroke-dasharray:none;stroke-dashoffset:0;stroke-opacity:1;marker:none;color-rendering:auto;image-rendering:auto;shape-rendering:auto;text-rendering:auto;enable-background:accumulate"
     d="m 47.500187,31.999812 c -0.277,0 -0.5,0.223 -0.5,0.5 l 0,1 c 0,0.277 0.223,0.5 0.5,0.5 l 3.999813,0 c 0.277,0 0.5,-0.223 0.5,-0.5 l 0,-1 c 0,-0.277 -0.223,-0.5 -0.5,-0.5 z m 5.999903,0 c -0.277,0 -0.5,0.223 -0.5,0.5 l 0,1 c 0,0.277 0.223,0.5 0.5,0.5 l 2.99981,0 c 0.277,0 0.5,-0.223 0.5,-0.5 l 0,-1 c 0,-0.277 -0.223,-0.5 -0.5,-0.5 z m -5.999903,3 c -0.277,0 -0.5,0.223 -0.5,0.5 l 0,3 c 0,0.277 0.223,0.5 0.5,0.5 l 3.999813,0 c 0.277,0 0.5,-0.223 0.5,-0.5 l 0,-3 c 0,-0.277 -0.223,-0.5 -0.5,-0.5 z m 5.999913,0 c -0.277,0 -0.5,0.223 -0.5,0.5 l 0,3 c 0,0.277 0.223,0.5 0.5,0.5 l 2.9998,0 c 0.27701,0 0.5,-0.223 0.5,-0.5 l 0,-3 c 0,-0.277 -0.22299,-0.5 -0.5,-0.5 z m -4.999913,5 c -0.277,0 -0.5,0.223 -0.5,0.5 l 0,3 c 0,0.277 0.223,0.5 0.5,0.5 l 3.000003,0 c 0.277,0 0.5,-0.223 0.5,-0.5 l 0,-3 c 0,-0.277 -0.223,-0.5 -0.5,-0.5 z m 5.000003,0 c -0.277,0 -0.5,0.223 -0.5,0.5 l 0,3 c 0,0.277 0.223,0.5 0.5,0.5 l 3,0 c 0.277,0 0.5,-0.223 0.5,-0.5 l 0,-3 c 0,-0.277 -0.223,-0.5 -0.5,-0.5 z m -5.000003,5 c -0.277,0 -0.5,0.223 -0.5,0.5 l 0,3 c 0,0.277 0.223,0.5 0.5,0.5 l 3.000003,0 c 0.277,0 0.5,-0.223 0.5,-0.5 l 0,-3 c 0,-0.277 -0.223,-0.5 -0.5,-0.5 z m 5.000003,0 c -0.277,0 -0.5,0.223 -0.5,0.5 l 0,3 c 0,0.277 0.223,0.5 0.5,0.5 l 3,0 c 0.277,0 0.5,-0.223 0.5,-0.5 l 0,-3 c 0,-0.277 -0.223,-0.5 -0.5,-0.5 z m -6.00019,5 c -0.277,0 -0.5,0.223 -0.5,0.5 l 0,3 c 0,0.277 0.223,0.5 0.5,0.5 l 3.99991,0 c 0.277,0 0.5,-0.223 0.5,-0.5 l 0,-3 c 0,-0.277 -0.223,-0.5 -0.5,-0.5 z m 6,0 c -0.277,0 -0.5,0.223 -0.5,0.5 l 0,3 c 0,0.277 0.223,0.5 0.5,0.5 l 3,0 c 0.277,0 0.5,-0.223 0.5,-0.5 l 0,-3 c 0,-0.277 -0.223,-0.5 -0.5,-0.5 z"
     id="path4176" />
  <path
     id="rect4562-8-8"
     d="m 42.5,30.999812 c -0.277,0 -0.5,0.223 -0.5,0.5 l 0,1 c 0,0.277 0.223,0.5 0.5,0.5 l 3,0 c 0.277,0 0.5,-0.223 0.5,-0.5 l 0,-1 c 0,-0.277 -0.223,-0.5 -0.5,-0.5 z m 5,0 c -0.277,0 -0.5,0.223 -0.5,0.5 l 0,1 c 0,0.277 0.223,0.5 0.5,0.5 l 4,0 c 0.277,0 0.5,-0.223 0.5,-0.5 l 0,-1 c 0,-0.277 -0.223,-0.5 -0.5,-0.5 z m -5,3 c -0.277,0 -0.5,0.223 -0.5,0.5 l 0,3 c 0,0.277 0.223,0.5 0.5,0.5 l 3,0 c 0.277,0 0.5,-0.223 0.5,-0.5 l 0,-3 c 0,-0.277 -0.223,-0.5 -0.5,-0.5 z m 5,0 c -0.277,0 -0.5,0.223 -0.5,0.5 l 0,3 c 0,0.277 0.223,0.5 0.5,0.5 l 4,0 c 0.277,0 0.5,-0.223 0.5,-0.5 l 0,-3 c 0,-0.277 -0.223,-0.5 -0.5,-0.5 z m -4,5 c -0.277,0 -0.5,0.223 -0.5,0.5 l 0,3 c 0,0.277 0.223,0.5 0.5,0.5 l 3,0 c 0.277,0 0.5,-0.223 0.5,-0.5 l 0,-3 c 0,-0.277 -0.223,-0.5 -0.5,-0.5 z m 5,0 c -0.277,0 -0.5,0.223 -0.5,0.5 l 0,3 c 0,0.277 0.223,0.5 0.5,0.5 l 3,0 c 0.277,0 0.5,-0.223 0.5,-0.5 l 0,-3 c 0,-0.277 -0.223,-0.5 -0.5,-0.5 z m -5,5 c -0.277,0 -0.5,0.223 -0.5,0.5 l 0,3 c 0,0.277 0.223,0.5 0.5,0.5 l 3,0 c 0.277,0 0.5,-0.223 0.5,-0.5 l 0,-3 c 0,-0.277 -0.223,-0.5 -0.5,-0.5 z m 5,0 c -0.277,0 -0.5,0.223 -0.5,0.5 l 0,3 c 0,0.277 0.223,0.5 0.5,0.5 l 3,0 c 0.277,0 0.5,-0.223 0.5,-0.5 l 0,-3 c 0,-0.277 -0.223,-0.5 -0.5,-0.5 z m -7,5 c -0.277,0 -0.5,0.223 -0.5,0.5 l 0,3 c 0,0.277 0.223,0.5 0.5,0.5 l 4,0 c 0.277,0 0.5,-0.223 0.5,-0.5 l 0,-3 c 0,-0.277 -0.223,-0.5 -0.5,-0.5 z m 6,0 c -0.277,0 -0.5,0.223 -0.5,0.5 l 0,3 c 0,0.277 0.223,0.5 0.5,0.5 l 4,0 c 0.277,0 0.5,-0.223 0.5,-0.5 l 0,-3 c 0,-0.277 -0.223,-0.5 -0.5,-0.5 z"
     style="color:#000000;clip-rule:nonzero;display:inline;overflow:visible;visibility:visible;opacity:1;isolation:auto;mix-blend-mode:normal;color-interpolation:sRGB;color-interpolation-filters:linearRGB;solid-color:#000000;solid-opacity:1;fill:url(#linearGradient5177-3);fill-opacity:1;fill-rule:nonzero;stroke:none;stroke-width:1;stroke-linecap:butt;stroke-linejoin:miter;stroke-miterlimit:4;stroke-dasharray:none;stroke-dashoffset:0;stroke-opacity:1;marker:none;color-rendering:auto;image-rendering:auto;shape-rendering:auto;text-rendering:auto;enable-background:accumulate" />
  <path
     style="color:#000000;clip-rule:nonzero;display:inline;overflow:visible;visibility:visible;opacity:1;isolation:auto;mix-blend-mode:normal;color-interpolation:sRGB;color-interpolation-filters:linearRGB;solid-color:#000000;solid-opacity:1;fill:url(#linearGradient4172);fill-opacity:1;fill-rule:nonzero;stroke:none;stroke-width:1;stroke-linecap:butt;stroke-linejoin:miter;stroke-miterlimit:4;stroke-dasharray:none;stroke-dashoffset:0;stroke-opacity:1;marker:none;color-rendering:auto;image-rendering:auto;shape-rendering:auto;text-rendering:auto;enable-background:accumulate"
     d="m 53.5,30.999812 c -0.277,0 -0.5,0.223 -0.5,0.5 l 0,1 c 0,0.277 0.223,0.5 0.5,0.5 l 3,0 c 0.277,0 0.5,-0.223 0.5,-0.5 l 0,-1 c 0,-0.277 -0.223,-0.5 -0.5,-0.5 z m 0,3 c -0.277,0 -0.5,0.223 -0.5,0.5 l 0,3 c 0,0.277 0.223,0.5 0.5,0.5 l 3,0 c 0.277,0 0.5,-0.223 0.5,-0.5 l 0,-3 c 0,-0.277 -0.223,-0.5 -0.5,-0.5 z m 0,5 c -0.277,0 -0.5,0.223 -0.5,0.5 l 0,3 c 0,0.277 0.223,0.5 0.5,0.5 l 3,0 c 0.277,0 0.5,-0.223 0.5,-0.5 l 0,-3 c 0,-0.277 -0.223,-0.5 -0.5,-0.5 z m 0,5 c -0.277,0 -0.5,0.223 -0.5,0.5 l 0,3 c 0,0.277 0.223,0.5 0.5,0.5 l 3,0 c 0.277,0 0.5,-0.223 0.5,-0.5 l 0,-3 c 0,-0.277 -0.223,-0.5 -0.5,-0.5 z m 0,5 c -0.277,0 -0.5,0.223 -0.5,0.5 l 0,3 c 0,0.277 0.223,0.5 0.5,0.5 l 3,0 c 0.277,0 0.5,-0.223 0.5,-0.5 l 0,-3 c 0,-0.277 -0.223,-0.5 -0.5,-0.5 z"
     id="path4170" />
</svg>
