<?xml version="1.0" encoding="UTF-8" standalone="no"?>
<!-- Created with Inkscape (http://www.inkscape.org/) -->

<svg
   xmlns:dc="http://purl.org/dc/elements/1.1/"
   xmlns:cc="http://creativecommons.org/ns#"
   xmlns:rdf="http://www.w3.org/1999/02/22-rdf-syntax-ns#"
   xmlns:svg="http://www.w3.org/2000/svg"
   xmlns="http://www.w3.org/2000/svg"
   xmlns:sodipodi="http://sodipodi.sourceforge.net/DTD/sodipodi-0.dtd"
   xmlns:inkscape="http://www.inkscape.org/namespaces/inkscape"
   width="16px"
   height="16px"
   id="svg10078"
   version="1.1"
   inkscape:version="0.48.4 r9939"
   sodipodi:docname="stock_shared-by-me.svg">
  <defs
     id="defs10080">
    <linearGradient
       id="linearGradient2867-449-88-871-390-598-476-591-434-148-57-177-8-2">
      <stop
         offset="0"
         style="stop-color:#90dbec;stop-opacity:1"
         id="stop3750-5-2" />
      <stop
         offset="0.26238"
         style="stop-color:#55c1ec;stop-opacity:1"
         id="stop3752-7-4" />
      <stop
         offset="0.704952"
         style="stop-color:#3689e6;stop-opacity:1"
         id="stop3754-4-7" />
      <stop
         offset="1"
         style="stop-color:#2b63a0;stop-opacity:1"
         id="stop3756-1-7" />
    </linearGradient>
    <linearGradient
       id="linearGradient3707-319-631-407-324-5-4">
      <stop
         offset="0"
         style="stop-color:#185f9a;stop-opacity:1"
         id="stop3760-9-8" />
      <stop
         offset="1"
         style="stop-color:#599ec9;stop-opacity:1"
         id="stop3762-7-1" />
    </linearGradient>
    <linearGradient
       id="linearGradient4181">
      <stop
         offset="0"
         style="stop-color:#ffffff;stop-opacity:1"
         id="stop4183" />
      <stop
         offset="1"
         style="stop-color:#ffffff;stop-opacity:0"
         id="stop4185" />
    </linearGradient>
  </defs>
  <sodipodi:namedview
     id="base"
     pagecolor="#ffffff"
     bordercolor="#666666"
     borderopacity="1.0"
     inkscape:pageopacity="0.0"
     inkscape:pageshadow="2"
     inkscape:zoom="22.197802"
     inkscape:cx="2.6397562"
     inkscape:cy="8"
     inkscape:current-layer="layer1"
     showgrid="true"
     inkscape:grid-bbox="true"
     inkscape:document-units="px"
     showguides="true"
     inkscape:guide-bbox="true"
     inkscape:window-width="1280"
     inkscape:window-height="751"
     inkscape:window-x="0"
     inkscape:window-y="25"
     inkscape:window-maximized="1">
    <inkscape:grid
       type="xygrid"
       id="grid10129" />
  </sodipodi:namedview>
  <metadata
     id="metadata10083">
    <rdf:RDF>
      <cc:Work
         rdf:about="">
        <dc:format>image/svg+xml</dc:format>
        <dc:type
           rdf:resource="http://purl.org/dc/dcmitype/StillImage" />
        <dc:title></dc:title>
      </cc:Work>
    </rdf:RDF>
  </metadata>
  <g
     id="layer1"
     inkscape:label="Layer 1"
     inkscape:groupmode="layer">
    <path
       style="font-size:medium;font-style:normal;font-variant:normal;font-weight:normal;font-stretch:normal;text-indent:0;text-align:start;text-decoration:none;line-height:normal;letter-spacing:normal;word-spacing:normal;text-transform:none;direction:ltr;block-progression:tb;writing-mode:lr-tb;text-anchor:start;baseline-shift:baseline;color:#000000;fill:#bebebe;fill-opacity:1;fill-rule:nonzero;stroke:none;stroke-width:1;marker:none;visibility:visible;display:inline;overflow:visible;enable-background:accumulate;font-family:Sans;-inkscape-font-specification:Sans"
       d="M 8,2 C 5.0185068,2 2.2725754,3.1287155 0.15625,5.03125 L -0.21875,5.375 0.125,5.75 1.4375,7.1875 1.75,7.5625 2.125,7.25 C 3.8680836,5.7217195 5.6199833,5 8,5 c 2.386209,0 4.072961,0.6716953 5.90625,2.28125 l 0.375,0.34375 0.34375,-0.40625 1.25,-1.5 L 16.1875,5.375 15.84375,5.03125 C 13.727425,3.1287155 10.981493,2 8,2 z M 8,6 C 6.0192594,6 4.2442511,6.7854387 2.8125,7.96875 l -0.40625,0.34375 0.375,0.375 1.3125,1.40625 0.3125,0.34375 L 4.75,10.15625 C 5.5803835,9.5614947 6.9456354,9 7.9375,9 8.9579523,9 10.415864,9.6033041 11.25,10.21875 l 0.34375,0.25 0.3125,-0.3125 1.375,-1.5 L 13.625,8.28125 13.21875,7.9375 C 11.780826,6.7490872 9.9769994,6 8,6 z m 0,4 C 6.9415385,10 6.0008475,10.447024 5.5,11 L 5.21875,11.34375 5.5,11.6875 7.625,14 8,14.375 8.375,14 10.5,11.71875 10.8125,11.375 10.53125,11.03125 C 10.022882,10.440953 9.0584615,10 8,10 z"
       id="path4112-19-69-3"
       inkscape:connector-curvature="0"
       sodipodi:nodetypes="sccccccsccccccssccccccsccccccsscccccccccs" />
  </g>
</svg>
