<?xml version="1.0" encoding="UTF-8" standalone="no"?>
<svg
   xmlns:dc="http://purl.org/dc/elements/1.1/"
   xmlns:cc="http://creativecommons.org/ns#"
   xmlns:rdf="http://www.w3.org/1999/02/22-rdf-syntax-ns#"
   xmlns:svg="http://www.w3.org/2000/svg"
   xmlns="http://www.w3.org/2000/svg"
   xmlns:xlink="http://www.w3.org/1999/xlink"
   id="svg4045"
   height="48"
   width="48"
   version="1.1">
  <defs
     id="defs4047">
    <linearGradient
       id="linearGradient3731">
      <stop
         offset="0"
         style="stop-color:#ffffff;stop-opacity:1"
         id="stop3733" />
      <stop
         offset="0.02706478"
         style="stop-color:#ffffff;stop-opacity:0.23529412"
         id="stop3735" />
      <stop
         offset="0.97377032"
         style="stop-color:#ffffff;stop-opacity:0.15686275"
         id="stop3737" />
      <stop
         offset="1"
         style="stop-color:#ffffff;stop-opacity:0.39215687"
         id="stop3739" />
    </linearGradient>
    <linearGradient
       id="linearGradient2867-449-88-871-390-598-476-591-434-148-57-177-641-289-620-227-114-444-680-744-8">
      <stop
         offset="0"
         style="stop-color:#5f5f5f;stop-opacity:1"
         id="stop5430-8" />
      <stop
         offset="0.26238"
         style="stop-color:#4f4f4f;stop-opacity:1"
         id="stop5432-3" />
      <stop
         offset="0.704952"
         style="stop-color:#3b3b3b;stop-opacity:1"
         id="stop5434-1" />
      <stop
         offset="1"
         style="stop-color:#2b2b2b;stop-opacity:1"
         id="stop5436-8" />
    </linearGradient>
    <linearGradient
       id="linearGradient3707-319-631-407-324-616-674-812-821-107-178-392-400-6">
      <stop
         offset="0"
         style="stop-color:#272727;stop-opacity:1"
         id="stop5440-4" />
      <stop
         offset="1"
         style="stop-color:#454545;stop-opacity:1"
         id="stop5442-3" />
    </linearGradient>
    <linearGradient
       id="linearGradient8967">
      <stop
         offset="0"
         style="stop-color:#ffbd5d;stop-opacity:1"
         id="stop8969" />
      <stop
         offset="1"
         style="stop-color:#d17b01;stop-opacity:1"
         id="stop8971" />
    </linearGradient>
    <linearGradient
       id="linearGradient3319">
      <stop
         offset="0"
         style="stop-color:#fc9501;stop-opacity:1"
         id="stop3321" />
      <stop
         offset="1"
         style="stop-color:#6b440d;stop-opacity:1"
         id="stop3323" />
    </linearGradient>
    <linearGradient
       id="linearGradient2346">
      <stop
         offset="0"
         style="stop-color:#eeeeee;stop-opacity:1"
         id="stop2348" />
      <stop
         offset="1"
         style="stop-color:#d9d9da;stop-opacity:1"
         id="stop2350" />
    </linearGradient>
    <linearGradient
       id="linearGradient3707-319-631-407-324-616-674-812-821-107-178-392-400-6-2">
      <stop
         offset="0"
         style="stop-color:#272727;stop-opacity:1"
         id="stop5440-4-8" />
      <stop
         offset="1"
         style="stop-color:#454545;stop-opacity:1"
         id="stop5442-3-8" />
    </linearGradient>
    <radialGradient
       gradientTransform="matrix(2.003784,0,0,1.4,27.98813,-17.4)"
       gradientUnits="userSpaceOnUse"
       xlink:href="#linearGradient3688-166-749"
       id="radialGradient3013"
       fy="43.5"
       fx="4.9929786"
       r="2.5"
       cy="43.5"
       cx="4.9929786" />
    <linearGradient
       id="linearGradient3688-166-749">
      <stop
         offset="0"
         style="stop-color:#181818;stop-opacity:1"
         id="stop2883" />
      <stop
         offset="1"
         style="stop-color:#181818;stop-opacity:0"
         id="stop2885" />
    </linearGradient>
    <radialGradient
       gradientTransform="matrix(2.003784,0,0,1.4,-20.01187,-104.4)"
       gradientUnits="userSpaceOnUse"
       xlink:href="#linearGradient3688-464-309"
       id="radialGradient3015"
       fy="43.5"
       fx="4.9929786"
       r="2.5"
       cy="43.5"
       cx="4.9929786" />
    <linearGradient
       id="linearGradient3688-464-309">
      <stop
         offset="0"
         style="stop-color:#181818;stop-opacity:1"
         id="stop2889" />
      <stop
         offset="1"
         style="stop-color:#181818;stop-opacity:0"
         id="stop2891" />
    </linearGradient>
    <linearGradient
       id="linearGradient3702-501-757">
      <stop
         offset="0"
         style="stop-color:#181818;stop-opacity:0"
         id="stop2895" />
      <stop
         offset="0.5"
         style="stop-color:#181818;stop-opacity:1"
         id="stop2897" />
      <stop
         offset="1"
         style="stop-color:#181818;stop-opacity:0"
         id="stop2899" />
    </linearGradient>
    <linearGradient
       gradientUnits="userSpaceOnUse"
       xlink:href="#linearGradient3702-501-757"
       id="linearGradient4043"
       y2="39.999443"
       x2="25.058096"
       y1="47.027729"
       x1="25.058096" />
    <linearGradient
       gradientTransform="matrix(0.89189189,0,0,1.0540541,2.5945964,-1.2972859)"
       gradientUnits="userSpaceOnUse"
       xlink:href="#linearGradient3731"
       id="linearGradient3072"
       y2="43"
       x2="23.99999"
       y1="4.999989"
       x1="23.99999" />
    <radialGradient
       gradientTransform="matrix(1.9428467e-8,2.4568358,-2.4722567,-4.5264291e-8,46.890103,-14.303252)"
       gradientUnits="userSpaceOnUse"
       xlink:href="#linearGradient2867-449-88-871-390-598-476-591-434-148-57-177-641-289-620-227-114-444-680-744-8"
       id="radialGradient3075"
       fy="8.4497671"
       fx="7.4956832"
       r="19.99999"
       cy="8.4497671"
       cx="7.4956832" />
    <linearGradient
       gradientTransform="matrix(1,0,0,1.0512821,2.0000013,-1.2307699)"
       gradientUnits="userSpaceOnUse"
       xlink:href="#linearGradient3707-319-631-407-324-616-674-812-821-107-178-392-400-6"
       id="linearGradient3077"
       y2="3.8990016"
       x2="24"
       y1="44"
       x1="24" />
    <radialGradient
       gradientTransform="matrix(0,2.744544,-3.1834145,0,45.663735,-64.070829)"
       gradientUnits="userSpaceOnUse"
       xlink:href="#linearGradient8967"
       id="radialGradient3080"
       fy="6.6475959"
       fx="24.501682"
       r="17.49832"
       cy="6.6475959"
       cx="24.501682" />
    <linearGradient
       gradientTransform="matrix(0.7007108,0,0,0.73712869,2.0789348,-0.12442511)"
       gradientUnits="userSpaceOnUse"
       xlink:href="#linearGradient3319"
       id="linearGradient3082"
       y2="61.481758"
       x2="32.901409"
       y1="4.6481781"
       x1="32.901409" />
    <linearGradient
       gradientUnits="userSpaceOnUse"
       xlink:href="#linearGradient2346"
       id="linearGradient3085"
       y2="3"
       x2="10.654308"
       y1="1"
       x1="10.654308" />
    <linearGradient
       gradientTransform="matrix(1,0,0,0.10256346,2.0002611,0.03848905)"
       gradientUnits="userSpaceOnUse"
       xlink:href="#linearGradient3707-319-631-407-324-616-674-812-821-107-178-392-400-6-2"
       id="linearGradient3087"
       y2="3.8990016"
       x2="24"
       y1="44"
       x1="24" />
    <linearGradient
       gradientTransform="matrix(1.0040453,0,0,1.5380658,1.2232785,-4.0400179)"
       gradientUnits="userSpaceOnUse"
       xlink:href="#linearGradient2346"
       id="linearGradient3090"
       y2="4.882647"
       x2="24.640038"
       y1="3.1234391"
       x1="24.62738" />
    <linearGradient
       gradientTransform="matrix(0.7162781,0,0,0.7471593,2.1541503,-0.05165168)"
       gradientUnits="userSpaceOnUse"
       xlink:href="#linearGradient3319"
       id="linearGradient3092"
       y2="0.065301567"
       x2="54.887218"
       y1="0.065301567"
       x1="5.2122574" />
  </defs>
  <metadata
     id="metadata4050">
    <rdf:RDF>
      <cc:Work
         rdf:about="">
        <dc:format>image/svg+xml</dc:format>
        <dc:type
           rdf:resource="http://purl.org/dc/dcmitype/StillImage" />
        <dc:title />
      </cc:Work>
    </rdf:RDF>
  </metadata>
  <g
     style="opacity:0.4"
     id="g3712"
     transform="matrix(1.0526316,0,0,0.57142859,-1.2631579,19.142856)">
    <rect
       style="fill:url(#radialGradient3013);fill-opacity:1;stroke:none"
       id="rect2801"
       y="40"
       x="38"
       height="7"
       width="5" />
    <rect
       style="fill:url(#radialGradient3015);fill-opacity:1;stroke:none"
       id="rect3696"
       transform="scale(-1,-1)"
       y="-47"
       x="-10"
       height="7"
       width="5" />
    <rect
       style="fill:url(#linearGradient4043);fill-opacity:1;stroke:none"
       id="rect3700"
       y="40"
       x="10"
       height="7.0000005"
       width="28" />
  </g>
  <path
     style="fill:url(#linearGradient3090);fill-opacity:1;stroke:url(#linearGradient3092);stroke-width:1.01739752;stroke-linecap:butt;stroke-linejoin:round;stroke-miterlimit:0;stroke-opacity:1;stroke-dasharray:none;stroke-dashoffset:0;display:inline"
     id="path2723"
     d="M 40.838991,3.217154 C 40.543588,2.2259354 40.727705,1.4453462 40.56455,0.49999976 l -30.239763,0 0.178478,3.00000004" />
  <path
     style="color:#000000;fill:url(#linearGradient3085);fill-opacity:1;fill-rule:nonzero;stroke:url(#linearGradient3087);stroke-width:0.99999994;stroke-linecap:round;stroke-linejoin:round;stroke-miterlimit:4;stroke-opacity:1;stroke-dasharray:none;stroke-dashoffset:0;marker:none;visibility:visible;display:inline;overflow:visible;enable-background:accumulate"
     id="rect5505-21-3-9"
     d="m 11.50026,4.4999996 -4.0000002,0 c -0.5708481,0 -1,-0.042333 -1,-0.09756 l 0,-2.7964211 c 0,-0.88791952 0.5590322,-1.10599346 1.2908943,-1.10599346 l 3.7091059,0" />
  <rect
     style="fill:url(#radialGradient3080);fill-opacity:1;stroke:url(#linearGradient3082);stroke-width:1.01904118;stroke-linecap:round;stroke-linejoin:round;stroke-miterlimit:0;stroke-opacity:1;stroke-dasharray:none;stroke-dashoffset:0;display:inline"
     id="rect2719"
     y="3.5095215"
     x="7.5128837"
     ry="1"
     rx="1"
     height="40.980957"
     width="33.977596" />
  <path
     style="color:#000000;fill:url(#radialGradient3075);fill-opacity:1;fill-rule:nonzero;stroke:url(#linearGradient3077);stroke-width:1;stroke-linecap:round;stroke-linejoin:round;stroke-miterlimit:4;stroke-opacity:1;stroke-dasharray:none;stroke-dashoffset:0;marker:none;visibility:visible;display:inline;overflow:visible;enable-background:accumulate"
     id="rect5505-21-3"
     d="m 11.5,3.4999998 c 0,0 0,28.5091172 0,41.0000002 l -4,0 c -0.5708481,0 -1,-0.43395 -1,-1 l 0,-40.0000002 z" />
  <rect
     style="opacity:0.5;fill:none;stroke:url(#linearGradient3072);stroke-width:1;stroke-linecap:round;stroke-linejoin:round;stroke-miterlimit:4;stroke-opacity:1;stroke-dasharray:none;stroke-dashoffset:0"
     id="rect6741-0"
     y="4.5000005"
     x="7.5"
     height="39"
     width="33" />
  <path
     style="opacity:0.2;fill:#000000;fill-opacity:1;stroke:none"
     id="path4095-2"
     d="m 25.391456,11.031048 c -0.261334,0.0093 -0.328272,0.03447 -0.358057,0.06349 -0.06148,0.05995 -0.03256,0.843454 -0.03256,13.309456 0,10.657239 -0.0075,13.502352 0.03256,13.541492 0.0746,0.07276 3.966601,0.05417 3.966601,0.05417 0,0 0,-0.324815 0,-0.70471 0,-0.442621 0,-0.57093 0,-0.57093 0,0 0.105518,0.158526 0.232438,0.300842 0.479551,0.537721 1.381798,0.945172 2.00903,1.111105 C 32.71838,38.363108 34.622925,37.620778 35,36.35819 c 0.07192,-0.258086 0.09766,-0.457016 0.09766,-9.192307 0,-8.735293 -0.02572,-9.297421 -0.09766,-9.555508 -0.881818,-1.705941 -2.246085,-1.918367 -3.986386,-1.746025 -0.598257,0.208556 -1.362732,0.615782 -1.813727,1.142852 -0.149554,0.17478 -0.149595,0.317459 -0.167954,0.317459 -0.01836,0 -0.0651,-1.054237 -0.0651,-2.896809 0,-3.269028 0.01638,-3.322479 -0.0651,-3.365063 -0.05378,-0.02808 -0.859165,-0.03175 -2.012932,-0.03175 -0.786493,0 -1.23599,-0.0093 -1.497325,0 z m 4.680556,8.176422 c 0.498571,-0.002 0.829531,0.305542 0.911415,0.920631 0.0554,0.416218 0.05559,13.728234 0,14.144663 -0.0228,0.17131 -0.0735,0.418868 -0.130202,0.53968 -0.378018,0.393169 -0.816245,0.252066 -1.3604,0.18068 -0.299027,-0.17045 -0.45306,-0.372551 -0.499981,-0.666664 l 0.0052,-7.065333 c -0.0081,-5.086552 -0.02947,-7.116557 0.002,-7.261473 0.0965,-0.444539 0.626265,-0.790286 1.072012,-0.792184 z" />
  <path
     style="fill:#ffffff;fill-opacity:1;stroke:none"
     id="path4095"
     d="m 25.391456,10.031394 c -0.261334,0.0093 -0.328272,0.03447 -0.358057,0.06349 -0.06148,0.05995 -0.03256,0.843454 -0.03256,13.309456 0,10.657239 -0.0075,13.502352 0.03256,13.541492 C 25.107999,37.018592 29,37 29,37 c 0,0 0,-0.324815 0,-0.70471 0,-0.442621 0,-0.57093 0,-0.57093 0,0 0.105518,0.158526 0.232438,0.300842 0.479551,0.537721 1.381798,0.945172 2.00903,1.111105 1.476912,0.227145 3.381457,-0.515185 3.758532,-1.777773 0.07192,-0.258086 0.09766,-0.457016 0.09766,-9.192307 0,-8.735293 -0.02572,-9.297421 -0.09766,-9.555508 -0.881818,-1.705941 -2.260318,-2.027162 -3.986386,-1.746025 -0.625327,0.101851 -1.362732,0.615782 -1.813727,1.142852 -0.149554,0.17478 -0.149595,0.317459 -0.167954,0.317459 -0.01836,0 -0.0651,-1.054237 -0.0651,-2.896809 0,-3.269028 0.01638,-3.322479 -0.0651,-3.365063 -0.05378,-0.02808 -0.859165,-0.03175 -2.012932,-0.03175 -0.786493,0 -1.23599,-0.0093 -1.497325,0 z m 4.680556,8.176422 c 0.498571,-0.002 0.829531,0.305542 0.911415,0.920631 0.0554,0.416218 0.05559,13.728234 0,14.144663 -0.0228,0.17131 -0.0735,0.418868 -0.130202,0.53968 -0.378018,0.393169 -0.816245,0.252066 -1.3604,0.18068 -0.299027,-0.17045 -0.45306,-0.372551 -0.499981,-0.666664 l 0.0052,-7.065333 C 28.989957,21.174921 28.96857,19.144916 29,19 c 0.0965,-0.444539 0.626265,-0.790286 1.072012,-0.792184 z" />
  <path
     style="opacity:0.2;fill:#000000;fill-opacity:1;stroke:none"
     id="path4071-2"
     d="m 22.029121,11.021821 c -1.121421,3.8e-5 -1.817739,0.03923 -2.227836,0.142476 -0.83833,0.211058 -1.494917,0.72072 -1.728245,1.496001 C 18.00767,12.877492 18,13.136501 18,14.690586 l 0,1.309068 -0.990213,0.0075 -0.0098,2.9925 1,0 0,9.632297 c 0.006,5.275101 0,9.367703 0,9.367703 l 4,0 0,-9.347709 0,-9.65277 0.503936,0 C 22.896041,18.990775 23,18.999654 23,18.999654 c 0,0 0.008,-0.530994 0,-1.532101 l 0,-1.467899 -0.459542,0.0075 L 22,15.999654 l 0,-0.248 c -0.01282,-0.772388 -0.04687,-1.284549 0.102194,-1.452893 0.129137,-0.145835 0.300514,-0.256373 0.693917,-0.284953 L 23,13.978178 23.03654,12.553415 C 23.04464,11.534377 23.03514,11.134199 23,11.093033 c -0.03908,-0.04593 -0.140943,-0.07127 -0.97085,-0.07124 z" />
  <path
     style="fill:#ffffff;fill-opacity:1;stroke:none"
     id="path4071"
     d="m 22.029121,10.022167 c -1.121421,3.8e-5 -1.817739,0.03923 -2.227836,0.142476 -0.83833,0.211058 -1.494917,0.72072 -1.728245,1.496001 C 18.00767,11.877838 18,12.136847 18,13.690932 L 18,15 17.009787,15.0075 17,18 l 1,0 0,9.632297 C 18.006,32.907398 18,37 18,37 l 4,0 0,-9.347709 0,-9.65277 0.503936,0 C 22.896041,17.991121 23,18 23,18 c 0,0 0.008,-0.530994 0,-1.532101 L 23,15 22.540458,15.0075 22,15 22,14.752 c -0.01282,-0.772388 -0.04687,-1.284549 0.102194,-1.452893 0.129137,-0.145835 0.175706,-0.256373 0.569109,-0.284953 L 23,12.978524 23.03654,11.553761 C 23.04464,10.534723 23.03514,10.134545 23,10.093379 c -0.03908,-0.04593 -0.140943,-0.07127 -0.97085,-0.07124 z" />
</svg>
