<?xml version="1.0" encoding="UTF-8" standalone="no"?>
<svg
   version="1.0"
   width="48"
   height="48"
   id="svg2453"
   sodipodi:docname="image-x-ico.svg"
   inkscape:version="1.1.1 (3bf5ae0d25, 2021-09-20)"
   xmlns:inkscape="http://www.inkscape.org/namespaces/inkscape"
   xmlns:sodipodi="http://sodipodi.sourceforge.net/DTD/sodipodi-0.dtd"
   xmlns:xlink="http://www.w3.org/1999/xlink"
   xmlns="http://www.w3.org/2000/svg"
   xmlns:svg="http://www.w3.org/2000/svg"
   xmlns:rdf="http://www.w3.org/1999/02/22-rdf-syntax-ns#"
   xmlns:cc="http://creativecommons.org/ns#"
   xmlns:dc="http://purl.org/dc/elements/1.1/">
  <sodipodi:namedview
     id="namedview48"
     pagecolor="#ffffff"
     bordercolor="#666666"
     borderopacity="1.0"
     inkscape:pageshadow="2"
     inkscape:pageopacity="0.0"
     inkscape:pagecheckerboard="0"
     showgrid="false"
     inkscape:zoom="7.1041667"
     inkscape:cx="-5.9824047"
     inkscape:cy="23.085044"
     inkscape:window-width="1317"
     inkscape:window-height="890"
     inkscape:window-x="601"
     inkscape:window-y="36"
     inkscape:window-maximized="0"
     inkscape:current-layer="svg2453" />
  <metadata
     id="metadata35">
    <rdf:RDF>
      <cc:Work
         rdf:about="">
        <dc:format>image/svg+xml</dc:format>
        <dc:type
           rdf:resource="http://purl.org/dc/dcmitype/StillImage" />
      </cc:Work>
    </rdf:RDF>
  </metadata>
  <defs
     id="defs2455">
    <radialGradient
       cx="605.71429"
       cy="486.64789"
       r="117.14286"
       fx="605.71429"
       fy="486.64789"
       id="radialGradient19613"
       xlink:href="#linearGradient5060"
       gradientUnits="userSpaceOnUse"
       gradientTransform="matrix(0.02891661,0,0,0.01235294,26.973101,38.470848)" />
    <linearGradient
       id="linearGradient5060">
      <stop
         id="stop5062"
         style="stop-color:#000000;stop-opacity:1"
         offset="0" />
      <stop
         id="stop5064"
         style="stop-color:#000000;stop-opacity:0"
         offset="1" />
    </linearGradient>
    <radialGradient
       cx="605.71429"
       cy="486.64789"
       r="117.14286"
       fx="605.71429"
       fy="486.64789"
       id="radialGradient19616"
       xlink:href="#linearGradient5060"
       gradientUnits="userSpaceOnUse"
       gradientTransform="matrix(-0.0289166,0,0,0.01235294,21.026894,38.470848)" />
    <linearGradient
       id="linearGradient5048">
      <stop
         id="stop5050"
         style="stop-color:#000000;stop-opacity:0"
         offset="0" />
      <stop
         id="stop5056"
         style="stop-color:#000000;stop-opacity:1"
         offset="0.5" />
      <stop
         id="stop5052"
         style="stop-color:#000000;stop-opacity:0"
         offset="1" />
    </linearGradient>
    <linearGradient
       x1="302.85715"
       y1="366.64789"
       x2="302.85715"
       y2="609.50507"
       id="linearGradient19619"
       xlink:href="#linearGradient5048"
       gradientUnits="userSpaceOnUse"
       gradientTransform="matrix(0.08449704,0,0,0.01235294,-6.5396456,38.470822)" />
    <linearGradient
       id="linearGradient3600">
      <stop
         id="stop3602"
         style="stop-color:#f4f4f4;stop-opacity:1"
         offset="0" />
      <stop
         id="stop3604"
         style="stop-color:#dbdbdb;stop-opacity:1"
         offset="1" />
    </linearGradient>
    <linearGradient
       id="linearGradient3977">
      <stop
         id="stop3979"
         style="stop-color:#ffffff;stop-opacity:1"
         offset="0" />
      <stop
         id="stop3981"
         style="stop-color:#ffffff;stop-opacity:0.23529412"
         offset="0.03626217" />
      <stop
         id="stop3983"
         style="stop-color:#ffffff;stop-opacity:0.15686275"
         offset="0.95056331" />
      <stop
         id="stop3985"
         style="stop-color:#ffffff;stop-opacity:0.39215687"
         offset="1" />
    </linearGradient>
    <linearGradient
       x1="23.99999"
       y1="5.5641499"
       x2="23.99999"
       y2="43"
       id="linearGradient3138"
       xlink:href="#linearGradient3977"
       gradientUnits="userSpaceOnUse"
       gradientTransform="matrix(1.1621622,0,0,0.91891889,-3.8918883,4.4459543)" />
    <linearGradient
       x1="25.132275"
       y1="0.98520643"
       x2="25.132275"
       y2="47.013336"
       id="linearGradient3141"
       xlink:href="#linearGradient3600"
       gradientUnits="userSpaceOnUse"
       gradientTransform="matrix(1.2571399,0,0,0.76049252,-6.1713598,7.0815133)" />
    <linearGradient
       id="linearGradient4785-3">
      <stop
         id="stop4787-5"
         style="stop-color:#262626;stop-opacity:1"
         offset="0" />
      <stop
         id="stop4789-1"
         style="stop-color:#4d4d4d;stop-opacity:1"
         offset="1" />
    </linearGradient>
    <linearGradient
       id="linearGradient3610-302-9-7">
      <stop
         id="stop3796-3-8"
         style="stop-color:#1d1d1d;stop-opacity:1"
         offset="0" />
      <stop
         id="stop3798-1-9"
         style="stop-color:#000000;stop-opacity:1"
         offset="1" />
    </linearGradient>
    <linearGradient
       id="linearGradient3104-6">
      <stop
         offset="0"
         style="stop-color:#000000;stop-opacity:0.31782946"
         id="stop3106-3" />
      <stop
         offset="1"
         style="stop-color:#000000;stop-opacity:0.24031007"
         id="stop3108-9" />
    </linearGradient>
    <linearGradient
       xlink:href="#linearGradient3104-6"
       id="linearGradient3144"
       gradientUnits="userSpaceOnUse"
       gradientTransform="matrix(1.0382097,0,0,0.73204138,69.527413,5.6548677)"
       x1="-51.786404"
       y1="50.786446"
       x2="-51.786404"
       y2="2.9062471" />
    <linearGradient
       xlink:href="#linearGradient4785-3"
       id="linearGradient4002"
       gradientUnits="userSpaceOnUse"
       gradientTransform="matrix(-0.48995989,6.9868352e-4,0.00181362,-0.38149037,57.128707,48.266601)"
       x1="45.414135"
       y1="15.270427"
       x2="45.567307"
       y2="96.25267" />
    <linearGradient
       xlink:href="#linearGradient3610-302-9-7"
       id="linearGradient4004"
       gradientUnits="userSpaceOnUse"
       gradientTransform="matrix(-1.1122886,0.00158613,0.00529831,-1.1144864,-2.6249379,-3.6540545)"
       x1="-24.032034"
       y1="-13.090545"
       x2="-24.097931"
       y2="-40.163883" />
    <linearGradient
       id="linearGradient3211">
      <stop
         id="stop3213"
         style="stop-color:#ffffff;stop-opacity:1"
         offset="0" />
      <stop
         id="stop3215"
         style="stop-color:#ffffff;stop-opacity:0"
         offset="1" />
    </linearGradient>
    <linearGradient
       x1="19.565496"
       y1="33.997028"
       x2="19.565496"
       y2="38.449821"
       id="linearGradient3219"
       xlink:href="#linearGradient3211"
       gradientUnits="userSpaceOnUse"
       gradientTransform="matrix(0.99326637,0,0,0.99898159,0.0362966,-0.97462625)" />
  </defs>
  <g
     id="g3257"
     style="opacity:0.4">
    <rect
       width="40.799999"
       height="2.9999998"
       x="3.5999999"
       y="43"
       id="rect2879"
       style="fill:url(#linearGradient19619);fill-opacity:1;fill-rule:nonzero;stroke:none;stroke-width:1;marker:none;visibility:visible;display:inline;overflow:visible" />
    <path
       d="m 3.6,43.00013 c 0,0 0,2.999835 0,2.999835 C 2.1108662,46.005612 0,45.327854 0,44.499854 0,43.671856 1.6617608,43.000131 3.6,43.00013 z"
       id="path2881"
       style="fill:url(#radialGradient19616);fill-opacity:1;fill-rule:nonzero;stroke:none;stroke-width:1;marker:none;visibility:visible;display:inline;overflow:visible" />
    <path
       d="m 44.4,43.00013 c 0,0 0,2.999835 0,2.999835 1.489133,0.0056 3.6,-0.672111 3.6,-1.500111 0,-0.827998 -1.661761,-1.499723 -3.6,-1.499724 z"
       id="path2883"
       style="fill:url(#radialGradient19613);fill-opacity:1;fill-rule:nonzero;stroke:none;stroke-width:1;marker:none;visibility:visible;display:inline;overflow:visible" />
  </g>
  <path
     d="m 2,9.0000015 c 10.082633,0 43.999947,0.00223 43.999947,0.00223 L 46,44 C 46,44 16.666668,44 2,44 2,32.333334 2,20.666667 2,9 z"
     id="path4160"
     style="fill:url(#linearGradient3141);fill-opacity:1;stroke:none;display:inline" />
  <path
     d="m 45.499997,43.499999 -43.0000003,0 0,-34.0000001 43.0000003,0 z"
     id="rect6741-1"
     style="fill:none;stroke:url(#linearGradient3138);stroke-width:1;stroke-linecap:round;stroke-linejoin:round;stroke-miterlimit:4;stroke-opacity:1;stroke-dasharray:none;stroke-dashoffset:0" />
  <path
     style="fill:url(#linearGradient4002);fill-opacity:1;stroke:url(#linearGradient4004);stroke-width:1.0000006;stroke-linecap:round;stroke-linejoin:miter;stroke-miterlimit:4;stroke-opacity:1;stroke-dasharray:none"
     d="m 43.5,41.5 -39.0000023,0 2.3e-6,-30 38.999997,3e-6 z"
     id="rect3582-50-4" />
  <path
     d="m 1.4999552,8.4999357 c 10.3117928,0 45.0000318,0.0025 45.0000318,0.0025 l 4.7e-5,35.9976273 c 0,0 -30.000052,0 -45.0000788,0 0,-12.000058 0,-23.999996 0,-35.9999143 z"
     id="path4160-6-1"
     style="fill:none;stroke:url(#linearGradient3144);stroke-width:0.9999218;stroke-linecap:butt;stroke-linejoin:round;stroke-miterlimit:4;stroke-opacity:1;stroke-dasharray:none;stroke-dashoffset:0;display:inline" />
  <path
     d="m 10,21.021473 c 0,3.995927 0,7.991853 0,11.987779 0.37802,0 0.770444,0 1.148464,0 0,-3.995926 0,-7.991852 0,-11.987779 -0.37802,0 -0.770444,0 -1.148464,0 z m 9.280833,0 c -1.628689,0.130007 -3.180642,0.85714 -4.221382,2.154054 -2.273205,2.625267 -1.579953,7.197482 1.42782,8.959616 2.626025,1.515252 6.415274,1.072666 8.318606,-1.404818 -0.298302,-0.227599 -0.601848,-0.459199 -0.900148,-0.686799 -1.631334,2.08888 -4.88748,2.499516 -7.014944,0.967763 -2.395327,-1.614497 -2.668947,-5.452428 -0.589751,-7.429926 2.051607,-2.085506 5.88663,-1.866674 7.604695,0.530709 0.298302,-0.230186 0.601846,-0.456612 0.900148,-0.686799 -1.238606,-1.761542 -3.431016,-2.570951 -5.525044,-2.4038 z m 12.664146,0 c -1.165626,-0.0087 -2.324713,0.344362 -3.290195,0.998982 -2.844006,1.826946 -3.496241,6.238414 -1.272623,8.803525 1.898373,2.452025 5.754438,2.912327 8.194448,1.0302 1.827914,-1.317526 2.733081,-3.686816 2.327968,-5.900235 -0.408031,-2.836021 -3.126654,-5.048946 -5.959598,-4.932472 z m -0.403515,1.123854 c 0.155454,-0.01461 0.307627,-0.0029 0.465594,0 0.57774,-9.74e-4 1.167417,0.104627 1.707177,0.312182 2.096242,0.731653 3.416823,3.017605 3.072917,5.213435 -0.216623,2.374557 -2.421421,4.284868 -4.780094,4.214454 -2.633843,0.100202 -4.977529,-2.358133 -4.780094,-4.994908 -0.02225,-2.386134 1.982711,-4.526096 4.3145,-4.745163 z"
     id="path2435"
     style="font-style:normal;font-variant:normal;font-weight:normal;font-stretch:normal;font-size:15.9068px;font-family:'Century Gothic';-inkscape-font-specification:'Century Gothic';fill:#ffffff;fill-opacity:1;stroke:none;stroke-width:1px;stroke-linecap:butt;stroke-linejoin:miter;stroke-opacity:1" />
  <path
     d="m 10,44.978527 c 0,-3.995926 0,-7.991853 0,-11.987779 0.37802,0 0.770444,0 1.148464,0 0,3.995926 0,7.991853 0,11.987779 -0.37802,0 -0.770444,0 -1.148464,0 z m 9.280833,0 c -1.628689,-0.130006 -3.180642,-0.85714 -4.221382,-2.154054 -2.273205,-2.625267 -1.579953,-7.197481 1.42782,-8.959616 2.626025,-1.515251 6.415274,-1.072665 8.318606,1.404818 -0.298302,0.2276 -0.601848,0.4592 -0.900148,0.6868 -1.631334,-2.088881 -4.88748,-2.499516 -7.014944,-0.967764 -2.395327,1.614497 -2.668947,5.452429 -0.589751,7.429926 2.051607,2.085507 5.88663,1.866674 7.604695,-0.530709 0.298302,0.230186 0.601846,0.456612 0.900148,0.6868 -1.238606,1.761541 -3.431016,2.570951 -5.525044,2.403799 z m 12.664146,0 c -1.165626,0.0087 -2.324713,-0.344362 -3.290195,-0.998981 -2.844006,-1.826947 -3.496241,-6.238415 -1.272623,-8.803526 1.898373,-2.452025 5.754438,-2.912327 8.194448,-1.030199 1.827914,1.317525 2.733081,3.686815 2.327968,5.900235 -0.408031,2.83602 -3.126654,5.048945 -5.959598,4.932471 z m -0.403515,-1.123854 c 0.155454,0.01461 0.307627,0.0029 0.465594,0 0.57774,9.74e-4 1.167417,-0.104626 1.707177,-0.312182 2.096242,-0.731653 3.416823,-3.017605 3.072917,-5.213435 -0.216623,-2.374556 -2.421421,-4.284868 -4.780094,-4.214454 -2.633843,-0.100201 -4.977529,2.358133 -4.780094,4.994908 -0.02225,2.386135 1.982711,4.526096 4.3145,4.745163 z"
     id="path2441"
     style="font-style:normal;font-variant:normal;font-weight:normal;font-stretch:normal;font-size:15.9068px;font-family:'Century Gothic';-inkscape-font-specification:'Century Gothic';opacity:0.3;fill:url(#linearGradient3219);fill-opacity:1;stroke:none;stroke-width:1px;stroke-linecap:butt;stroke-linejoin:miter;stroke-opacity:1" />
</svg>
