<?xml version="1.0" encoding="UTF-8" standalone="no"?>
<!-- Created with Inkscape (http://www.inkscape.org/) -->

<svg
   xmlns:dc="http://purl.org/dc/elements/1.1/"
   xmlns:cc="http://creativecommons.org/ns#"
   xmlns:rdf="http://www.w3.org/1999/02/22-rdf-syntax-ns#"
   xmlns:svg="http://www.w3.org/2000/svg"
   xmlns="http://www.w3.org/2000/svg"
   xmlns:xlink="http://www.w3.org/1999/xlink"
   xmlns:sodipodi="http://sodipodi.sourceforge.net/DTD/sodipodi-0.dtd"
   xmlns:inkscape="http://www.inkscape.org/namespaces/inkscape"
   width="48px"
   height="48px"
   id="svg4112"
   version="1.1"
   inkscape:version="0.48.3.1 r9886"
   sodipodi:docname="gtk-file.svg">
  <defs
     id="defs4114">
    <linearGradient
       inkscape:collect="always"
       xlink:href="#linearGradient3977"
       id="linearGradient3988"
       gradientUnits="userSpaceOnUse"
       gradientTransform="matrix(0.89189189,0,0,1.1351351,2.5945999,-4.7432315)"
       x1="23.99999"
       y1="5.5641499"
       x2="23.99999"
       y2="43" />
    <linearGradient
       id="linearGradient3977">
      <stop
         offset="0"
         style="stop-color:#ffffff;stop-opacity:1;"
         id="stop3979" />
      <stop
         id="stop3981"
         style="stop-color:#ffffff;stop-opacity:0.23529412;"
         offset="0.03626217" />
      <stop
         offset="0.95056331"
         style="stop-color:#ffffff;stop-opacity:0.15686275;"
         id="stop3983" />
      <stop
         offset="1"
         style="stop-color:#ffffff;stop-opacity:0.39215687;"
         id="stop3985" />
    </linearGradient>
    <linearGradient
       inkscape:collect="always"
       xlink:href="#linearGradient3600"
       id="linearGradient3322"
       gradientUnits="userSpaceOnUse"
       gradientTransform="matrix(1,0,0,0.9561695,-9.9999999e-8,-1.9149219)"
       x1="25.132275"
       y1="0.98520643"
       x2="25.132275"
       y2="47.013336" />
    <linearGradient
       id="linearGradient3600">
      <stop
         id="stop3602"
         style="stop-color:#f4f4f4;stop-opacity:1"
         offset="0" />
      <stop
         id="stop3604"
         style="stop-color:#dbdbdb;stop-opacity:1"
         offset="1" />
    </linearGradient>
    <linearGradient
       inkscape:collect="always"
       xlink:href="#linearGradient3104"
       id="linearGradient3324"
       gradientUnits="userSpaceOnUse"
       gradientTransform="matrix(0.8074968,0,0,0.8948322,59.410232,-2.9805532)"
       x1="-51.786404"
       y1="50.786446"
       x2="-51.786404"
       y2="2.9062471" />
    <linearGradient
       id="linearGradient3104">
      <stop
         id="stop3106"
         style="stop-color:#a0a0a0;stop-opacity:1;"
         offset="0" />
      <stop
         id="stop3108"
         style="stop-color:#bebebe;stop-opacity:1;"
         offset="1" />
    </linearGradient>
    <radialGradient
       inkscape:collect="always"
       xlink:href="#linearGradient5060"
       id="radialGradient3327"
       gradientUnits="userSpaceOnUse"
       gradientTransform="matrix(0.02303995,0,0,0.01470022,26.360882,37.040176)"
       cx="605.71429"
       cy="486.64789"
       fx="605.71429"
       fy="486.64789"
       r="117.14286" />
    <linearGradient
       id="linearGradient5060">
      <stop
         id="stop5062"
         style="stop-color:#000000;stop-opacity:1"
         offset="0" />
      <stop
         id="stop5064"
         style="stop-color:#000000;stop-opacity:0"
         offset="1" />
    </linearGradient>
    <radialGradient
       inkscape:collect="always"
       xlink:href="#linearGradient5060"
       id="radialGradient3330"
       gradientUnits="userSpaceOnUse"
       gradientTransform="matrix(-0.02303994,0,0,0.01470022,21.62311,37.040176)"
       cx="605.71429"
       cy="486.64789"
       fx="605.71429"
       fy="486.64789"
       r="117.14286" />
    <linearGradient
       id="linearGradient5048">
      <stop
         id="stop5050"
         style="stop-color:#000000;stop-opacity:0"
         offset="0" />
      <stop
         id="stop5056"
         style="stop-color:#000000;stop-opacity:1"
         offset="0.5" />
      <stop
         id="stop5052"
         style="stop-color:#000000;stop-opacity:0"
         offset="1" />
    </linearGradient>
    <linearGradient
       y2="609.50507"
       x2="302.85715"
       y1="366.64789"
       x1="302.85715"
       gradientTransform="matrix(0.06732488,0,0,0.01470022,-0.3411391,37.040146)"
       gradientUnits="userSpaceOnUse"
       id="linearGradient4110"
       xlink:href="#linearGradient5048"
       inkscape:collect="always" />
    <linearGradient
       inkscape:collect="always"
       xlink:href="#linearGradient7176"
       id="linearGradient3064"
       gradientUnits="userSpaceOnUse"
       gradientTransform="matrix(0.2297578,-0.0383763,0.0383763,0.2297578,-83.017091,-50.807841)"
       x1="375.62509"
       y1="311.79102"
       x2="393.43311"
       y2="374.92462" />
    <linearGradient
       id="linearGradient7176">
      <stop
         id="stop7178"
         style="stop-color:#204a87;stop-opacity:1"
         offset="0" />
      <stop
         id="stop7180"
         style="stop-color:#97bcd4;stop-opacity:1"
         offset="1" />
    </linearGradient>
    <linearGradient
       inkscape:collect="always"
       xlink:href="#linearGradient7613"
       id="linearGradient3066"
       gradientUnits="userSpaceOnUse"
       gradientTransform="translate(-0.330535,-0.9841289)"
       x1="13.112816"
       y1="7.2513928"
       x2="20.403833"
       y2="21.766705" />
    <linearGradient
       id="linearGradient7613">
      <stop
         id="stop7615"
         style="stop-color:#304456;stop-opacity:1"
         offset="0" />
      <stop
         id="stop7617"
         style="stop-color:#6394be;stop-opacity:1"
         offset="1" />
    </linearGradient>
    <radialGradient
       inkscape:collect="always"
       xlink:href="#linearGradient7192"
       id="radialGradient3069"
       gradientUnits="userSpaceOnUse"
       gradientTransform="matrix(0.2619729,-0.285608,0.2957879,0.2713093,-196.5256,38.756766)"
       cx="416.65488"
       cy="392.0784"
       fx="416.65488"
       fy="392.0784"
       r="27.076788" />
    <linearGradient
       id="linearGradient7192">
      <stop
         id="stop7210"
         style="stop-color:#fce94f;stop-opacity:1"
         offset="0" />
      <stop
         id="stop8189"
         style="stop-color:#66d09a;stop-opacity:1"
         offset="0.5" />
      <stop
         id="stop8187"
         style="stop-color:#66c6d0;stop-opacity:1"
         offset="1" />
    </linearGradient>
    <linearGradient
       inkscape:collect="always"
       xlink:href="#linearGradient7605"
       id="linearGradient3071"
       gradientUnits="userSpaceOnUse"
       gradientTransform="translate(-0.330535,-0.9841289)"
       x1="32.027035"
       y1="21.986458"
       x2="27.560297"
       y2="15.298627" />
    <linearGradient
       id="linearGradient7605">
      <stop
         id="stop7607"
         style="stop-color:#bcae3e;stop-opacity:1"
         offset="0" />
      <stop
         id="stop7609"
         style="stop-color:#3b9a6a;stop-opacity:1"
         offset="0.5" />
      <stop
         id="stop7611"
         style="stop-color:#3d8891;stop-opacity:1"
         offset="1" />
    </linearGradient>
    <radialGradient
       inkscape:collect="always"
       xlink:href="#linearGradient9162"
       id="radialGradient3074"
       gradientUnits="userSpaceOnUse"
       gradientTransform="matrix(-0.3550367,-0.06113843,0.0269881,-0.1567226,167.77602,116.06118)"
       cx="416.80206"
       cy="399.14209"
       fx="416.80206"
       fy="399.14209"
       r="20.131355" />
    <linearGradient
       id="linearGradient9162">
      <stop
         id="stop9170"
         style="stop-color:#8ae234;stop-opacity:1"
         offset="0" />
      <stop
         id="stop9166"
         style="stop-color:#4db07d;stop-opacity:0.88235295"
         offset="1" />
    </linearGradient>
  </defs>
  <sodipodi:namedview
     id="base"
     pagecolor="#ffffff"
     bordercolor="#666666"
     borderopacity="1.0"
     inkscape:pageopacity="0.0"
     inkscape:pageshadow="2"
     inkscape:zoom="7.9991455"
     inkscape:cx="31.729406"
     inkscape:cy="23.571022"
     inkscape:current-layer="layer1"
     showgrid="true"
     inkscape:grid-bbox="true"
     inkscape:document-units="px"
     inkscape:window-width="630"
     inkscape:window-height="630"
     inkscape:window-x="700"
     inkscape:window-y="143"
     inkscape:window-maximized="0"
     showguides="true"
     inkscape:guide-bbox="true">
    <inkscape:grid
       type="xygrid"
       id="grid3820" />
  </sodipodi:namedview>
  <metadata
     id="metadata4117">
    <rdf:RDF>
      <cc:Work
         rdf:about="">
        <dc:format>image/svg+xml</dc:format>
        <dc:type
           rdf:resource="http://purl.org/dc/dcmitype/StillImage" />
        <dc:title></dc:title>
      </cc:Work>
    </rdf:RDF>
  </metadata>
  <g
     id="layer1"
     inkscape:label="Layer 1"
     inkscape:groupmode="layer">
    <rect
       style="opacity:0.3;fill:url(#linearGradient4110);fill-opacity:1;fill-rule:nonzero;stroke:none;stroke-width:1;marker:none;visibility:visible;display:inline;overflow:visible"
       id="rect2879"
       y="42.429947"
       x="7.7378473"
       height="3.5700529"
       width="32.508301" />
    <path
       inkscape:connector-curvature="0"
       style="opacity:0.3;fill:url(#radialGradient3330);fill-opacity:1;fill-rule:nonzero;stroke:none;stroke-width:1;marker:none;visibility:visible;display:inline;overflow:visible"
       id="path2881"
       d="m 7.7378475,42.430102 c 0,0 0,3.569856 0,3.569856 -1.1865002,0.0067 -2.8683795,-0.799823 -2.8683795,-1.785158 0,-0.985333 1.3240446,-1.784697 2.8683795,-1.784698 z" />
    <path
       inkscape:connector-curvature="0"
       style="opacity:0.3;fill:url(#radialGradient3327);fill-opacity:1;fill-rule:nonzero;stroke:none;stroke-width:1;marker:none;visibility:visible;display:inline;overflow:visible"
       id="path2883"
       d="m 40.246148,42.430102 c 0,0 0,3.569856 0,3.569856 1.1865,0.0067 2.86838,-0.799823 2.86838,-1.785158 0,-0.985333 -1.324045,-1.784697 -2.86838,-1.784698 z" />
    <path
       inkscape:connector-curvature="0"
       style="fill:url(#linearGradient3322);fill-opacity:1;stroke:url(#linearGradient3324);stroke-width:0.99992186;stroke-linecap:butt;stroke-linejoin:round;stroke-miterlimit:4;stroke-opacity:1;stroke-dasharray:none;stroke-dashoffset:0;display:inline"
       id="path4160"
       d="M 6.4999609,0.49719893 C 14.520256,0.49719893 41.5,0.5 41.5,0.5 l 4.2e-5,44.002803 c 0,0 -23.333387,0 -35.0000811,0 0,-14.668535 0,-29.33707 0,-44.00560407 z"
       sodipodi:nodetypes="ccccc" />
    <path
       style="fill:none;stroke:url(#linearGradient3988);stroke-width:1;stroke-linecap:round;stroke-linejoin:round;stroke-miterlimit:4;stroke-opacity:1;stroke-dasharray:none;stroke-dashoffset:0"
       d="m 40.5,43.5 -33,0 0,-41.9999999 33,0 z"
       id="rect6741-1"
       inkscape:connector-curvature="0"
       sodipodi:nodetypes="ccccc" />
    <path
       inkscape:connector-curvature="0"
       style="font-size:11.69507122px;font-style:normal;font-weight:normal;line-height:125%;fill:#808080;fill-opacity:1;stroke:none;display:inline;font-family:Bitstream Vera Sans"
       id="text2019"
       d="m 16.70362,39.99486 c 0,0.93271 0,1.86543 0,2.79814 -0.56787,0 -1.13575,0 -1.70362,0 0,-2.45234 0,-4.90467 0,-7.35701 0.56787,0 1.13575,0 1.70362,0 0,0.26015 0,0.52029 0,0.78044 0.7308,-1.13977 2.5831,-1.23167 3.38347,-0.12373 0.80156,1.04098 0.83031,2.5841 0.21508,3.72047 -0.56324,1.11531 -2.16099,1.4478 -3.12862,0.66983 -0.17809,-0.14021 -0.33354,-0.30754 -0.46993,-0.48814 l 0,0 z m 1.13258,-3.45008 c -0.8685,-0.04447 -1.20045,0.93634 -1.13144,1.65407 -0.07898,0.77908 0.52088,1.68412 1.38871,1.44267 0.85387,-0.20203 0.92991,-1.25579 0.83744,-1.97643 -0.04748,-0.57902 -0.45656,-1.16278 -1.09471,-1.12031 l 0,0 z m 8.31352,-0.94223 c 0,0.43145 0,0.86291 0,1.29437 -0.8531,-0.32936 -1.83916,-0.64051 -2.74104,-0.33311 -0.67278,0.52034 0.28871,0.92636 0.78765,0.87596 0.78705,0.13346 1.85102,0.18667 2.19727,1.05014 0.29066,0.77122 0.05678,1.80761 -0.77244,2.13113 -1.23267,0.49298 -2.62065,0.27141 -3.86852,-0.05037 0,-0.43146 0,-0.86292 0,-1.29438 0.84159,0.394 1.82088,0.62441 2.74222,0.41728 0.91075,-0.38239 0.0053,-1.14719 -0.6345,-1.00417 -0.80336,-0.10136 -1.88454,-0.25419 -2.12437,-1.18365 -0.21485,-0.7451 0.05056,-1.69823 0.84527,-1.96804 1.14108,-0.41397 2.4198,-0.20756 3.56846,0.06484 l 0,0 z m 5.26792,0.61388 c 0,-0.95175 0,-1.9035 0,-2.85525 0.57105,0 1.1421,0 1.71314,0 0,2.4682 0,4.9364 0,7.4046 -0.57104,0 -1.14209,0 -1.71314,0 0,-0.25698 0,-0.51395 0,-0.77092 -0.72144,1.14658 -2.57369,1.22637 -3.37395,0.12849 -0.79883,-1.04255 -0.83258,-2.58546 -0.21509,-3.7221 0.54485,-1.07078 2.03989,-1.43491 3.01799,-0.74516 0.22119,0.15174 0.40987,0.34688 0.57105,0.56033 l 0,1e-5 z m -1.12306,3.45008 c 0.82722,0.0485 1.17062,-0.86947 1.12306,-1.56087 0.04756,-0.69139 -0.29584,-1.60936 -1.12306,-1.56086 -0.8279,-0.04762 -1.16668,0.86992 -1.11831,1.56086 -0.03176,0.69659 0.26856,1.60612 1.11831,1.56087 l 0,0 z" />
    <path
       inkscape:connector-curvature="0"
       style="fill:url(#radialGradient3074);fill-opacity:1;fill-rule:evenodd;stroke:#4b8748;stroke-width:0.75;stroke-linecap:butt;stroke-linejoin:miter;stroke-miterlimit:4;stroke-opacity:1;stroke-dasharray:none;display:inline"
       id="path8191"
       d="m 22.438552,25.519407 c 1.490765,1.913587 3.406608,2.20814 5.734418,2.179895 -0.159682,0.368602 -0.319362,0.737202 -0.479043,1.105804 0.446093,-0.532851 0.778633,-1.111828 1.516212,-1.037679 -0.45631,0.656609 -0.531242,1.081481 -0.703923,1.56575 0.882679,-0.796538 2.266515,-1.069984 3.382759,-1.389335 -0.296953,-0.453239 -0.748263,-0.780467 -1.045216,-1.233706 0.51655,-0.880837 0.736895,-2.074322 0.779404,-3.131368 -0.199831,0.550713 -0.493151,0.991749 -0.770238,1.379962 0.56501,-1.403227 0.136239,-2.331688 -0.343689,-3.502689 0.05238,0.554429 0.104757,1.10886 0.157136,1.663288 -0.445391,1.633045 -0.956351,1.826857 -1.940103,2.819481 -1.623569,0.403516 -4.111506,0.767958 -6.287717,-0.419403 z" />
    <path
       inkscape:connector-curvature="0"
       style="fill:url(#radialGradient3069);fill-opacity:1;fill-rule:evenodd;stroke:url(#linearGradient3071);stroke-width:0.75;stroke-linecap:butt;stroke-linejoin:miter;stroke-miterlimit:4;stroke-opacity:1;stroke-dasharray:none;display:inline"
       id="path27337"
       d="m 16.027188,16.877412 c 0.107938,4.33908 3.816028,6.908865 7.252821,8.906909 1.943192,0.728948 3.695033,0.52947 5.694913,0.284164 1.235524,-2.527198 0.719072,-4.618429 -0.364996,-7.116001 -0.67554,-0.974332 -0.844216,-1.987415 -0.993165,-3.128459 -0.779439,0.727002 -0.371674,1.921205 -0.39006,2.947705 -0.466098,-1.743826 -1.547289,-3.188825 -2.491351,-4.701873 -0.701689,-2.635743 -3.307593,-4.248348 -5.382073,-5.807381 3.403989,5.318941 4.212841,5.590593 2.761002,11.951453 -3.128514,1.134923 -5.124683,-0.446259 -6.087091,-3.336517 z" />
    <path
       inkscape:connector-curvature="0"
       style="fill:url(#linearGradient3064);fill-opacity:1;fill-rule:evenodd;stroke:url(#linearGradient3066);stroke-width:0.75;stroke-linecap:butt;stroke-linejoin:miter;stroke-miterlimit:4;stroke-opacity:1;stroke-dasharray:none;display:inline"
       id="path24402"
       d="m 12.859,13.406314 c 0.776784,2.957732 2.890643,5.366451 5.735267,6.513148 1.273654,0.269885 2.542932,0.529718 3.567683,0.227678 -0.242747,-1.880937 0.165015,-3.676631 0.327252,-5.733818 0.08384,-1.773225 0.17475,-3.345992 -0.867792,-4.799984 -1.605379,-2.16599 -3.684481,-2.981368 -6.103353,-2.828062 -0.589018,0.822162 -1.17918,1.509061 -1.626606,2.216006 -0.744911,1.176984 -1.320522,3.146092 -0.383794,4.414344 0.921654,0.861731 2.129325,1.772433 2.843301,1.878187 -1.082879,0.07372 -1.815803,-0.477379 -2.699912,-1.019725 C 13.38703,13.984831 13.123016,13.695571 12.859,13.406314 z" />
    <path
       inkscape:connector-curvature="0"
       style="fill:#2a6a28;display:inline"
       id="path24368"
       d="m 35.947479,29.926122 c -1.578727,-0.648216 -5.226572,-2.45115 -6.243142,-3.085651 -0.759762,-0.474208 -1.21733,-0.587733 -1.971022,-0.489015 -0.689714,0.09034 -0.798449,0.06873 -0.365713,-0.07269 0.338716,-0.110688 0.606696,-0.256037 0.595512,-0.322998 -0.01119,-0.06696 -0.683049,-0.66504 -1.493034,-1.329066 C 21.223348,20.325431 17.268631,14.584735 16.161333,9.662448 15.950117,8.723535 15.876672,8.257563 15.998119,8.626954 c 1.73131,5.265912 3.616163,8.489644 7.146532,12.222987 2.083019,2.202781 5.355786,4.726836 5.79433,4.468761 0.208337,-0.122603 0.28557,-0.06399 0.236055,0.17915 -0.09005,0.44215 2.347092,1.922687 5.305137,3.222821 1.141034,0.501513 2.160535,1.057855 2.265556,1.236319 0.238275,0.404893 0.26562,0.405951 -0.79825,-0.03087 z" />
  </g>
</svg>
