<?xml version="1.0" encoding="UTF-8" standalone="no"?>
<!-- Created with Inkscape (http://www.inkscape.org/) -->

<svg
   xmlns:dc="http://purl.org/dc/elements/1.1/"
   xmlns:cc="http://creativecommons.org/ns#"
   xmlns:rdf="http://www.w3.org/1999/02/22-rdf-syntax-ns#"
   xmlns:svg="http://www.w3.org/2000/svg"
   xmlns="http://www.w3.org/2000/svg"
   xmlns:xlink="http://www.w3.org/1999/xlink"
   xmlns:sodipodi="http://sodipodi.sourceforge.net/DTD/sodipodi-0.dtd"
   xmlns:inkscape="http://www.inkscape.org/namespaces/inkscape"
   width="48px"
   height="48px"
   id="svg4112"
   version="1.1"
   inkscape:version="0.48.3.1 r9886"
   sodipodi:docname="text-x-java-source1.svg">
  <defs
     id="defs4114">
    <linearGradient
       inkscape:collect="always"
       xlink:href="#linearGradient3977"
       id="linearGradient3988"
       gradientUnits="userSpaceOnUse"
       gradientTransform="matrix(0.89189189,0,0,1.1351351,2.5945999,-4.7432315)"
       x1="23.99999"
       y1="5.5641499"
       x2="23.99999"
       y2="43" />
    <linearGradient
       id="linearGradient3977">
      <stop
         offset="0"
         style="stop-color:#ffffff;stop-opacity:1;"
         id="stop3979" />
      <stop
         id="stop3981"
         style="stop-color:#ffffff;stop-opacity:0.23529412;"
         offset="0.03626217" />
      <stop
         offset="0.95056331"
         style="stop-color:#ffffff;stop-opacity:0.15686275;"
         id="stop3983" />
      <stop
         offset="1"
         style="stop-color:#ffffff;stop-opacity:0.39215687;"
         id="stop3985" />
    </linearGradient>
    <linearGradient
       inkscape:collect="always"
       xlink:href="#linearGradient3600"
       id="linearGradient3322"
       gradientUnits="userSpaceOnUse"
       gradientTransform="matrix(1,0,0,0.9561695,-9.9999999e-8,-1.9149219)"
       x1="25.132275"
       y1="0.98520643"
       x2="25.132275"
       y2="47.013336" />
    <linearGradient
       id="linearGradient3600">
      <stop
         id="stop3602"
         style="stop-color:#f4f4f4;stop-opacity:1"
         offset="0" />
      <stop
         id="stop3604"
         style="stop-color:#dbdbdb;stop-opacity:1"
         offset="1" />
    </linearGradient>
    <linearGradient
       inkscape:collect="always"
       xlink:href="#linearGradient3104"
       id="linearGradient3324"
       gradientUnits="userSpaceOnUse"
       gradientTransform="matrix(0.8074968,0,0,0.8948322,59.410232,-2.9805532)"
       x1="-51.786404"
       y1="50.786446"
       x2="-51.786404"
       y2="2.9062471" />
    <linearGradient
       id="linearGradient3104">
      <stop
         id="stop3106"
         style="stop-color:#a0a0a0;stop-opacity:1;"
         offset="0" />
      <stop
         id="stop3108"
         style="stop-color:#bebebe;stop-opacity:1;"
         offset="1" />
    </linearGradient>
    <radialGradient
       inkscape:collect="always"
       xlink:href="#linearGradient5060"
       id="radialGradient3327"
       gradientUnits="userSpaceOnUse"
       gradientTransform="matrix(0.02303995,0,0,0.01470022,26.360882,37.040176)"
       cx="605.71429"
       cy="486.64789"
       fx="605.71429"
       fy="486.64789"
       r="117.14286" />
    <linearGradient
       id="linearGradient5060">
      <stop
         id="stop5062"
         style="stop-color:#000000;stop-opacity:1"
         offset="0" />
      <stop
         id="stop5064"
         style="stop-color:#000000;stop-opacity:0"
         offset="1" />
    </linearGradient>
    <radialGradient
       inkscape:collect="always"
       xlink:href="#linearGradient5060"
       id="radialGradient3330"
       gradientUnits="userSpaceOnUse"
       gradientTransform="matrix(-0.02303994,0,0,0.01470022,21.62311,37.040176)"
       cx="605.71429"
       cy="486.64789"
       fx="605.71429"
       fy="486.64789"
       r="117.14286" />
    <linearGradient
       id="linearGradient5048">
      <stop
         id="stop5050"
         style="stop-color:#000000;stop-opacity:0"
         offset="0" />
      <stop
         id="stop5056"
         style="stop-color:#000000;stop-opacity:1"
         offset="0.5" />
      <stop
         id="stop5052"
         style="stop-color:#000000;stop-opacity:0"
         offset="1" />
    </linearGradient>
    <linearGradient
       y2="609.50507"
       x2="302.85715"
       y1="366.64789"
       x1="302.85715"
       gradientTransform="matrix(0.06732488,0,0,0.01470022,-0.3411391,37.040146)"
       gradientUnits="userSpaceOnUse"
       id="linearGradient4110"
       xlink:href="#linearGradient5048"
       inkscape:collect="always" />
    <linearGradient
       inkscape:collect="always"
       xlink:href="#linearGradient3666"
       id="linearGradient3070"
       gradientUnits="userSpaceOnUse"
       x1="-1.937054"
       y1="-0.72359675"
       x2="-1.937054"
       y2="31.826666"
       gradientTransform="matrix(0.3244846,0,0,0.2091035,21.13367,15.24799)" />
    <linearGradient
       id="linearGradient3666">
      <stop
         id="stop3668"
         style="stop-color:#ffffff;stop-opacity:1"
         offset="0" />
      <stop
         id="stop3670"
         style="stop-color:#ffffff;stop-opacity:0"
         offset="1" />
    </linearGradient>
    <linearGradient
       inkscape:collect="always"
       xlink:href="#linearGradient3595"
       id="linearGradient3073"
       gradientUnits="userSpaceOnUse"
       gradientTransform="matrix(0.3333289,0,0,0.3378597,-5.4339327,13.704061)"
       x1="87.050232"
       y1="53.75"
       x2="87.050232"
       y2="41.729839" />
    <linearGradient
       id="linearGradient3595">
      <stop
         id="stop3597"
         style="stop-color:#ffffff;stop-opacity:1"
         offset="0" />
      <stop
         id="stop3599"
         style="stop-color:#ffffff;stop-opacity:0"
         offset="1" />
    </linearGradient>
    <radialGradient
       inkscape:collect="always"
       xlink:href="#linearGradient3738"
       id="radialGradient3076"
       gradientUnits="userSpaceOnUse"
       gradientTransform="matrix(0.3779082,0,0,0.1182073,19.790537,16.657874)"
       cx="8.4375"
       cy="32.535023"
       fx="8.4375"
       fy="32.535023"
       r="26.40625" />
    <linearGradient
       id="linearGradient3738">
      <stop
         id="stop3740"
         style="stop-color:#8b6a35;stop-opacity:1"
         offset="0" />
      <stop
         id="stop3742"
         style="stop-color:#754d0d;stop-opacity:1"
         offset="0.60331488" />
      <stop
         id="stop3744"
         style="stop-color:#483816;stop-opacity:1"
         offset="1" />
    </linearGradient>
    <linearGradient
       inkscape:collect="always"
       xlink:href="#linearGradient3526"
       id="linearGradient3079"
       gradientUnits="userSpaceOnUse"
       spreadMethod="reflect"
       x1="5.6835618"
       y1="16.365782"
       x2="35.032936"
       y2="16.365782"
       gradientTransform="matrix(0.3062941,0,0,0.1699856,21.21814,15.868031)" />
    <linearGradient
       id="linearGradient3526">
      <stop
         id="stop3528"
         style="stop-color:#d1d1d1;stop-opacity:1"
         offset="0" />
      <stop
         id="stop3530"
         style="stop-color:#959594;stop-opacity:1"
         offset="1" />
    </linearGradient>
    <radialGradient
       inkscape:collect="always"
       xlink:href="#linearGradient3489"
       id="radialGradient3082"
       gradientUnits="userSpaceOnUse"
       gradientTransform="matrix(0,0.4761889,-0.4940015,0,32.286364,25.954876)"
       cx="-6.453712"
       cy="29.206287"
       fx="-6.453712"
       fy="29.206287"
       r="32.000408" />
    <linearGradient
       id="linearGradient3489">
      <stop
         id="stop3491"
         style="stop-color:#eeeeec;stop-opacity:1"
         offset="0" />
      <stop
         id="stop3497"
         style="stop-color:#cacac9;stop-opacity:1"
         offset="0.5" />
      <stop
         id="stop3493"
         style="stop-color:#6b6b6b;stop-opacity:1"
         offset="1" />
    </linearGradient>
    <linearGradient
       inkscape:collect="always"
       xlink:href="#linearGradient3584"
       id="linearGradient3084"
       gradientUnits="userSpaceOnUse"
       gradientTransform="matrix(0.333329,0,0,0.3378597,-5.4339407,14.066322)"
       x1="117.30334"
       y1="55.03125"
       x2="53.302517"
       y2="2.3599293" />
    <linearGradient
       id="linearGradient3584">
      <stop
         id="stop3586"
         style="stop-color:#5f5f5f;stop-opacity:1"
         offset="0" />
      <stop
         id="stop3588"
         style="stop-color:#c6c6c6;stop-opacity:1"
         offset="1" />
    </linearGradient>
    <linearGradient
       inkscape:collect="always"
       xlink:href="#linearGradient4088"
       id="linearGradient3087"
       gradientUnits="userSpaceOnUse"
       gradientTransform="translate(-1.0000024,-1.9999994)"
       x1="34.876202"
       y1="22.977568"
       x2="38.154778"
       y2="23.94458" />
    <linearGradient
       id="linearGradient4088">
      <stop
         id="stop4090"
         style="stop-color:#7f7f7f;stop-opacity:1"
         offset="0" />
      <stop
         id="stop4092"
         style="stop-color:#eaeae8;stop-opacity:0"
         offset="1" />
    </linearGradient>
    <linearGradient
       inkscape:collect="always"
       xlink:href="#linearGradient3584"
       id="linearGradient3089"
       gradientUnits="userSpaceOnUse"
       gradientTransform="translate(-1.0000024,-1.9999994)"
       x1="34.462547"
       y1="24.867638"
       x2="39.781116"
       y2="27.548901" />
    <linearGradient
       id="linearGradient3159">
      <stop
         id="stop3161"
         style="stop-color:#5f5f5f;stop-opacity:1"
         offset="0" />
      <stop
         id="stop3163"
         style="stop-color:#c6c6c6;stop-opacity:1"
         offset="1" />
    </linearGradient>
    <radialGradient
       inkscape:collect="always"
       xlink:href="#linearGradient8838"
       id="radialGradient3099"
       gradientUnits="userSpaceOnUse"
       gradientTransform="matrix(1.1294118,0,0,0.37647008,-47.729414,30.258824)"
       cx="62.625"
       cy="4.625"
       fx="62.625"
       fy="4.625"
       r="10.625" />
    <linearGradient
       id="linearGradient8838">
      <stop
         id="stop8840"
         style="stop-color:#000000;stop-opacity:1"
         offset="0" />
      <stop
         id="stop8842"
         style="stop-color:#000000;stop-opacity:0"
         offset="1" />
    </linearGradient>
    <radialGradient
       r="10.625"
       fy="4.625"
       fx="62.625"
       cy="4.625"
       cx="62.625"
       gradientTransform="matrix(1.1294118,0,0,0.37647008,-47.729414,29.258824)"
       gradientUnits="userSpaceOnUse"
       id="radialGradient3176"
       xlink:href="#linearGradient8838"
       inkscape:collect="always" />
    <linearGradient
       inkscape:collect="always"
       xlink:href="#linearGradient3735"
       id="linearGradient3092"
       gradientUnits="userSpaceOnUse"
       gradientTransform="matrix(1.0526316,0,0,1,-1.2631581,-4.4998348)"
       x1="24.949999"
       y1="13.5"
       x2="24.949999"
       y2="17.5" />
    <linearGradient
       id="linearGradient3735">
      <stop
         id="stop3737"
         style="stop-color:#c1c1c1;stop-opacity:1"
         offset="0" />
      <stop
         id="stop3739"
         style="stop-color:#cecece;stop-opacity:1"
         offset="1" />
    </linearGradient>
  </defs>
  <sodipodi:namedview
     id="base"
     pagecolor="#ffffff"
     bordercolor="#666666"
     borderopacity="1.0"
     inkscape:pageopacity="0.0"
     inkscape:pageshadow="2"
     inkscape:zoom="7.9991455"
     inkscape:cx="8.7483709"
     inkscape:cy="26.071289"
     inkscape:current-layer="layer1"
     showgrid="false"
     inkscape:grid-bbox="true"
     inkscape:document-units="px"
     inkscape:window-width="1920"
     inkscape:window-height="1151"
     inkscape:window-x="0"
     inkscape:window-y="25"
     inkscape:window-maximized="1"
     showguides="true"
     inkscape:guide-bbox="true">
    <inkscape:grid
       type="xygrid"
       id="grid3820" />
  </sodipodi:namedview>
  <metadata
     id="metadata4117">
    <rdf:RDF>
      <cc:Work
         rdf:about="">
        <dc:format>image/svg+xml</dc:format>
        <dc:type
           rdf:resource="http://purl.org/dc/dcmitype/StillImage" />
        <dc:title></dc:title>
      </cc:Work>
    </rdf:RDF>
  </metadata>
  <g
     id="layer1"
     inkscape:label="Layer 1"
     inkscape:groupmode="layer">
    <rect
       style="opacity:0.3;fill:url(#linearGradient4110);fill-opacity:1;fill-rule:nonzero;stroke:none;stroke-width:1;marker:none;visibility:visible;display:inline;overflow:visible"
       id="rect2879"
       y="42.429947"
       x="7.7378473"
       height="3.5700529"
       width="32.508301" />
    <path
       inkscape:connector-curvature="0"
       style="opacity:0.3;fill:url(#radialGradient3330);fill-opacity:1;fill-rule:nonzero;stroke:none;stroke-width:1;marker:none;visibility:visible;display:inline;overflow:visible"
       id="path2881"
       d="m 7.7378475,42.430102 c 0,0 0,3.569856 0,3.569856 -1.1865002,0.0067 -2.8683795,-0.799823 -2.8683795,-1.785158 0,-0.985333 1.3240446,-1.784697 2.8683795,-1.784698 z" />
    <path
       inkscape:connector-curvature="0"
       style="opacity:0.3;fill:url(#radialGradient3327);fill-opacity:1;fill-rule:nonzero;stroke:none;stroke-width:1;marker:none;visibility:visible;display:inline;overflow:visible"
       id="path2883"
       d="m 40.246148,42.430102 c 0,0 0,3.569856 0,3.569856 1.1865,0.0067 2.86838,-0.799823 2.86838,-1.785158 0,-0.985333 -1.324045,-1.784697 -2.86838,-1.784698 z" />
    <path
       inkscape:connector-curvature="0"
       style="fill:url(#linearGradient3322);fill-opacity:1;stroke:url(#linearGradient3324);stroke-width:0.99992186;stroke-linecap:butt;stroke-linejoin:round;stroke-miterlimit:4;stroke-opacity:1;stroke-dasharray:none;stroke-dashoffset:0;display:inline"
       id="path4160"
       d="M 6.4999609,0.49719893 C 14.520256,0.49719893 41.5,0.5 41.5,0.5 l 4.2e-5,44.002803 c 0,0 -23.333387,0 -35.0000811,0 0,-14.668535 0,-29.33707 0,-44.00560407 z"
       sodipodi:nodetypes="ccccc" />
    <path
       style="fill:none;stroke:url(#linearGradient3988);stroke-width:1;stroke-linecap:round;stroke-linejoin:round;stroke-miterlimit:4;stroke-opacity:1;stroke-dasharray:none;stroke-dashoffset:0"
       d="m 40.5,43.5 -33,0 0,-41.9999999 33,0 z"
       id="rect6741-1"
       inkscape:connector-curvature="0"
       sodipodi:nodetypes="ccccc" />
    <path
       inkscape:connector-curvature="0"
       style="fill:none;stroke:#b3b3b3;stroke-width:1px;stroke-linecap:butt;stroke-linejoin:miter;stroke-opacity:1"
       id="path2503"
       d="m 11.5,4.0001653 0,30.9999997" />
    <path
       inkscape:connector-curvature="0"
       style="fill:none;stroke:#b3b3b3;stroke-width:0.99999994px;stroke-linecap:butt;stroke-linejoin:miter;stroke-opacity:1"
       id="path2505"
       d="m 36.5,5.9745241 0,29.0256409" />
    <path
       inkscape:connector-curvature="0"
       style="fill:none;stroke:#b3b3b3;stroke-width:0.99999994px;stroke-linecap:butt;stroke-linejoin:miter;stroke-opacity:1"
       id="path2509"
       d="m 9.9655179,6.5001653 26.0689651,0" />
    <path
       inkscape:connector-curvature="0"
       style="fill:none;stroke:#b3b3b3;stroke-width:0.99999988px;stroke-linecap:butt;stroke-linejoin:miter;stroke-opacity:1"
       id="path2513"
       d="m 8.9999999,32.500165 28.9999581,0" />
    <path
       inkscape:connector-curvature="0"
       style="opacity:0.6;fill:#b3b3b3;fill-opacity:1;stroke:none;display:inline"
       id="path3406"
       d="m 14,15.001886 2.345838,0 0,1 -2.345838,0 0,-1 z" />
    <path
       inkscape:connector-curvature="0"
       style="opacity:0.6;fill:#b3b3b3;fill-opacity:1;stroke:none;display:inline"
       id="path3404"
       d="m 16.665379,15.001886 2.213403,0 0,1 -2.213403,0 0,-1 z" />
    <path
       inkscape:connector-curvature="0"
       style="opacity:0.6;fill:#b3b3b3;fill-opacity:1;stroke:none;display:inline"
       id="path3402"
       d="m 19.198323,15.001886 1.948514,0 0,1 -1.948514,0 0,-1 z" />
    <path
       inkscape:connector-curvature="0"
       style="opacity:0.6;fill:#b3b3b3;fill-opacity:1;stroke:none;display:inline"
       id="path3397"
       d="m 22.641801,15.001886 1.915398,0 0,1 -1.915398,0 0,-1 z" />
    <path
       inkscape:connector-curvature="0"
       style="opacity:0.6;fill:#b3b3b3;fill-opacity:1;stroke:none;display:inline"
       id="path3395"
       d="m 24.87675,15.001886 4.961553,0 0,1 -4.961553,0 0,-1 z" />
    <path
       inkscape:connector-curvature="0"
       style="opacity:0.6;fill:#b3b3b3;fill-opacity:1;stroke:none;display:inline"
       id="path3392"
       d="m 30.157844,15.001886 3.769581,0 0,1 -3.769581,0 0,-1 z" />
    <path
       inkscape:connector-curvature="0"
       style="opacity:0.6;fill:#b3b3b3;fill-opacity:1;stroke:none;display:inline"
       id="path3385"
       d="m 14,21.001886 3.691817,0 0,1 -3.691817,0 0,-1 z" />
    <path
       inkscape:connector-curvature="0"
       style="opacity:0.6;fill:#b3b3b3;fill-opacity:1;stroke:none;display:inline"
       id="path3383"
       d="m 17.965761,21.001886 1.776154,0 0,1 -1.776154,0 0,-1 z" />
    <path
       inkscape:connector-curvature="0"
       style="opacity:0.6;fill:#b3b3b3;fill-opacity:1;stroke:none;display:inline"
       id="path3381"
       d="m 20.116681,21.001886 0.835125,0 0,1 -0.835125,0 0,-1 z" />
    <path
       inkscape:connector-curvature="0"
       style="opacity:0.6;fill:#b3b3b3;fill-opacity:1;stroke:none;display:inline"
       id="path3379"
       d="m 21.158533,21.001886 1.608114,0 0,1 -1.608114,0 0,-1 z" />
    <path
       inkscape:connector-curvature="0"
       style="opacity:0.6;fill:#b3b3b3;fill-opacity:1;stroke:none;display:inline"
       id="path3373"
       d="m 23.040581,21.001886 1.608115,0 0,1 -1.608115,0 0,-1 z" />
    <path
       inkscape:connector-curvature="0"
       style="opacity:0.6;fill:#b3b3b3;fill-opacity:1;stroke:none;display:inline"
       id="path3363"
       d="m 14,17.001886 3.928045,0 0,1 -3.928045,0 0,-1 z" />
    <path
       inkscape:connector-curvature="0"
       style="opacity:0.6;fill:#b3b3b3;fill-opacity:1;stroke:none;display:inline"
       id="path3361"
       d="m 18.235965,17.001886 4.208949,0 0,1 -4.208949,0 0,-1 z" />
    <path
       inkscape:connector-curvature="0"
       style="opacity:0.6;fill:#b3b3b3;fill-opacity:1;stroke:none;display:inline"
       id="path3359"
       d="m 22.752834,17.001886 1.680758,0 0,1 -1.680758,0 0,-1 z" />
    <path
       inkscape:connector-curvature="0"
       style="opacity:0.6;fill:#b3b3b3;fill-opacity:1;stroke:none;display:inline"
       id="path3347"
       d="m 14,19.001886 4.28514,0 0,1 -4.28514,0 0,-1 z" />
    <path
       inkscape:connector-curvature="0"
       style="opacity:0.6;fill:#b3b3b3;fill-opacity:1;stroke:none;display:inline"
       id="path3345"
       d="m 18.621053,19.001886 4.59158,0 0,1 -4.59158,0 0,-1 z" />
    <path
       inkscape:connector-curvature="0"
       style="opacity:0.6;fill:#b3b3b3;fill-opacity:1;stroke:none;display:inline"
       id="path3343"
       d="m 23.548546,19.001886 1.833555,0 0,1 -1.833555,0 0,-1 z" />
    <path
       inkscape:connector-curvature="0"
       style="opacity:0.6;fill:#b3b3b3;fill-opacity:1;stroke:none;display:inline"
       id="path3176"
       d="m 14,27.001885 3.691817,0 0,1 -3.691817,0 0,-1 z" />
    <path
       inkscape:connector-curvature="0"
       style="opacity:0.6;fill:#b3b3b3;fill-opacity:1;stroke:none;display:inline"
       id="path3174"
       d="m 17.965761,27.001885 1.776154,0 0,1 -1.776154,0 0,-1 z" />
    <path
       inkscape:connector-curvature="0"
       style="opacity:0.6;fill:#b3b3b3;fill-opacity:1;stroke:none;display:inline"
       id="path3172"
       d="m 20.116681,27.001885 0.835125,0 0,1 -0.835125,0 0,-1 z" />
    <path
       inkscape:connector-curvature="0"
       style="opacity:0.6;fill:#b3b3b3;fill-opacity:1;stroke:none;display:inline"
       id="path3170"
       d="m 21.158533,27.001885 1.608114,0 0,1 -1.608114,0 0,-1 z" />
    <path
       inkscape:connector-curvature="0"
       style="opacity:0.6;fill:#b3b3b3;fill-opacity:1;stroke:none;display:inline"
       id="path3168"
       d="m 23.040581,27.001885 1.608115,0 0,1 -1.608115,0 0,-1 z" />
    <path
       inkscape:connector-curvature="0"
       style="opacity:0.6;fill:#b3b3b3;fill-opacity:1;stroke:none;display:inline"
       id="path3166"
       d="m 25.157898,27.001885 2.582748,0 0,1 -2.582748,0 0,-1 z" />
    <path
       inkscape:connector-curvature="0"
       style="opacity:0.6;fill:#b3b3b3;fill-opacity:1;stroke:none;display:inline"
       id="path3164"
       d="m 28.048194,27.001885 3.389342,0 0,1 -3.389342,0 0,-1 z" />
    <path
       inkscape:connector-curvature="0"
       style="opacity:0.6;fill:#b3b3b3;fill-opacity:1;stroke:none;display:inline"
       id="path3162"
       d="m 31.913123,27.001885 2.280283,0 0,1 -2.280283,0 0,-1 z" />
    <path
       inkscape:connector-curvature="0"
       style="opacity:0.6;fill:#b3b3b3;fill-opacity:1;stroke:none;display:inline"
       id="path3158"
       d="m 14,25.001885 3.061572,0 0,1 -3.061572,0 0,-1 z" />
    <path
       inkscape:connector-curvature="0"
       style="opacity:0.6;fill:#b3b3b3;fill-opacity:1;stroke:none;display:inline"
       id="path3156"
       d="m 17.38681,25.001885 5.083544,0 0,1 -5.083544,0 0,-1 z" />
    <path
       inkscape:connector-curvature="0"
       style="opacity:0.6;fill:#b3b3b3;fill-opacity:1;stroke:none;display:inline"
       id="path3154"
       d="m 22.795592,25.001885 2.454976,0 0,1 -2.454976,0 0,-1 z" />
    <path
       inkscape:connector-curvature="0"
       style="opacity:0.6;fill:#b3b3b3;fill-opacity:1;stroke:none;display:inline"
       id="path3152"
       d="m 28.187522,25.001885 1.949485,0 0,1 -1.949485,0 0,-1 z" />
    <path
       inkscape:connector-curvature="0"
       style="opacity:0.6;fill:#b3b3b3;fill-opacity:1;stroke:none;display:inline"
       id="path3150"
       d="m 30.462245,25.001885 3.128973,0 0,1 -3.128973,0 0,-1 z" />
    <path
       inkscape:connector-curvature="0"
       style="opacity:0.6;fill:#b3b3b3;fill-opacity:1;stroke:none;display:inline"
       id="path3146"
       d="m 25.575806,25.001885 2.286488,0 0,1 -2.286488,0 0,-1 z" />
    <path
       inkscape:connector-curvature="0"
       style="opacity:0.6;fill:#b3b3b3;fill-opacity:1;stroke:none;display:inline"
       id="path35069"
       d="m 14,29.000165 3.868703,0 0,1 -3.868703,0 0,-1 z" />
    <path
       inkscape:connector-curvature="0"
       style="opacity:0.6;fill:#b3b3b3;fill-opacity:1;stroke:none;display:inline"
       id="path35067"
       d="m 18.188155,29.000165 1.218185,0 0,1 -1.218185,0 0,-1 0,0 z" />
    <path
       inkscape:connector-curvature="0"
       style="opacity:0.6;fill:#b3b3b3;fill-opacity:1;stroke:none;display:inline"
       id="path35065"
       d="m 19.725792,29.000165 2.781317,0 0,1 -2.781317,0 0,-1 z" />
    <path
       inkscape:connector-curvature="0"
       style="opacity:0.6;fill:#b3b3b3;fill-opacity:1;stroke:none;display:inline"
       id="path35063"
       d="m 22.826561,29.000165 1.89781,0 0,1 -1.89781,0 0,-1 z" />
    <path
       inkscape:connector-curvature="0"
       style="opacity:0.6;fill:#b3b3b3;fill-opacity:1;stroke:none;display:inline"
       id="path35061"
       d="m 25.043823,29.000165 1.8978,0 0,1 -1.8978,0 0,-1 z" />
    <path
       inkscape:connector-curvature="0"
       style="opacity:0.6;fill:#b3b3b3;fill-opacity:1;stroke:none;display:inline"
       id="path35059"
       d="m 27.261086,29.000165 2.747329,0 0,1 -2.747329,0 0,-1 z" />
    <path
       inkscape:connector-curvature="0"
       style="opacity:0.6;fill:#b3b3b3;fill-opacity:1;stroke:none;display:inline"
       id="path35057"
       d="m 30.327857,29.000165 0.572556,0 0,1 -0.572556,0 0,-1 z" />
    <path
       inkscape:connector-curvature="0"
       style="opacity:0.6;fill:#b3b3b3;fill-opacity:1;stroke:none;display:inline"
       id="path35055"
       d="m 31.219865,29.000165 3,0 0,1 -3,0 0,-1 z" />
    <rect
       style="fill:url(#linearGradient3092);fill-opacity:1;stroke:none"
       id="rect2963"
       y="9.0001659"
       x="14.000001"
       ry="0.91034484"
       rx="0.91034484"
       height="4"
       width="20" />
    <path
       inkscape:connector-curvature="0"
       style="opacity:0.6;fill:#797979;fill-opacity:1;stroke:none;display:inline"
       id="path3743"
       d="m 15,11.000165 2.345838,0 0,1 -2.345838,0 0,-1 z" />
    <path
       inkscape:connector-curvature="0"
       style="opacity:0.6;fill:#797979;fill-opacity:1;stroke:none;display:inline"
       id="path3747"
       d="m 19,11.000165 1.948514,0 0,1 -1.948514,0 0,-1 z" />
    <path
       inkscape:connector-curvature="0"
       style="opacity:0.6;fill:#797979;fill-opacity:1;stroke:none;display:inline"
       id="path3751"
       d="m 23,11.000165 1.915398,0 0,1 -1.915398,0 0,-1 z" />
    <rect
       style="fill:none;stroke:#c1c1c1;stroke-width:1;stroke-linecap:butt;stroke-miterlimit:4;stroke-opacity:1;stroke-dasharray:none"
       id="rect3757"
       y="17.500166"
       x="26.500002"
       ry="0"
       rx="0"
       height="5"
       width="7" />
    <path
       inkscape:connector-curvature="0"
       style="opacity:0.6;fill:#b3b3b3;fill-opacity:1;stroke:none;display:inline"
       id="path3759"
       d="m 14,23.000165 4.28514,0 0,1 -4.28514,0 0,-1 z" />
    <path
       inkscape:connector-curvature="0"
       style="opacity:0.6;fill:#b3b3b3;fill-opacity:1;stroke:none;display:inline"
       id="path3761"
       d="m 18.621053,23.000165 4.59158,0 0,1 -4.59158,0 0,-1 z" />
    <path
       inkscape:connector-curvature="0"
       style="opacity:0.6;fill:#b3b3b3;fill-opacity:1;stroke:none;display:inline"
       id="path3763"
       d="m 23.548546,23.000165 1.833555,0 0,1 -1.833555,0 0,-1 z" />
    <path
       inkscape:connector-curvature="0"
       style="font-size:11.69507122px;font-style:normal;font-weight:normal;line-height:125%;fill:#808080;fill-opacity:1;stroke:none;display:inline;font-family:Bitstream Vera Sans"
       id="text2019"
       d="m 20.448819,35.809222 c 0,0.463184 0,0.926367 0,1.389553 -0.714572,-0.511023 -1.853531,-0.71517 -2.536411,-0.04759 -0.519729,0.595819 -0.524641,1.572146 -0.09257,2.217199 0.589248,0.73706 1.74661,0.620571 2.473124,0.162169 0.27775,-0.271923 0.11059,0.308357 0.15586,0.48335 0,0.267169 0,0.534338 0,0.801508 -1.217438,0.426969 -2.721962,0.467832 -3.788479,-0.353243 -0.998529,-0.810896 -1.13506,-2.318849 -0.660442,-3.449095 0.491881,-1.110917 1.779003,-1.55375 2.91638,-1.497703 0.522091,0.01309 1.041921,0.115724 1.532541,0.29385 l 0,-1e-6 z m 5.64386,0 c 0,0.431458 0,0.862917 0,1.294376 -0.83726,-0.332873 -1.78343,-0.609257 -2.67768,-0.362107 -0.74172,0.3898 0.09789,0.996313 0.62553,0.890847 0.72857,0.120722 1.57994,0.155366 2.11061,0.733276 0.52682,0.742915 0.3831,2.000389 -0.49641,2.416935 -1.12567,0.510567 -2.41882,0.346727 -3.5906,0.09053 -0.41497,0.03375 -0.39154,-0.277771 -0.36852,-0.583921 0,-0.268728 0,-0.537457 0,-0.806186 0.86282,0.397377 1.88126,0.652539 2.81687,0.389249 0.78661,-0.417848 -0.07035,-1.091535 -0.65074,-0.968718 -0.73627,-0.105497 -1.65699,-0.184383 -2.06858,-0.898416 -0.39039,-0.780691 -0.1705,-1.950017 0.73106,-2.260696 1.14563,-0.410726 2.41438,-0.21095 3.56846,0.06484 l 0,-10e-7 z m 5.80566,0 c 0,0.431458 0,0.862917 0,1.294376 -0.83727,-0.332873 -1.78343,-0.609257 -2.67769,-0.362107 -0.74171,0.3898 0.0979,0.996313 0.62554,0.890847 0.72857,0.120722 1.57994,0.155366 2.11061,0.733276 0.52681,0.742915 0.3831,2.00039 -0.49642,2.416935 -1.12566,0.510567 -2.41882,0.346727 -3.59059,0.09053 -0.41497,0.03375 -0.39154,-0.277771 -0.36853,-0.583921 0,-0.268728 0,-0.537457 0,-0.806186 0.86283,0.397377 1.88126,0.652539 2.81688,0.389249 0.7866,-0.417848 -0.07035,-1.091535 -0.65074,-0.968718 -0.73628,-0.105496 -1.65699,-0.184383 -2.06858,-0.898416 -0.39039,-0.780691 -0.1705,-1.950017 0.73106,-2.260696 1.14563,-0.410726 2.41437,-0.21095 3.56846,0.06484 l 0,-10e-7 z" />
  </g>
</svg>
