<?xml version="1.0" encoding="UTF-8" standalone="no"?>
<svg
   xmlns:dc="http://purl.org/dc/elements/1.1/"
   xmlns:cc="http://creativecommons.org/ns#"
   xmlns:rdf="http://www.w3.org/1999/02/22-rdf-syntax-ns#"
   xmlns:svg="http://www.w3.org/2000/svg"
   xmlns="http://www.w3.org/2000/svg"
   xmlns:xlink="http://www.w3.org/1999/xlink"
   version="1.1"
   id="svg4093"
   height="48px"
   width="48px">
  <defs
     id="defs4095">
    <linearGradient
       id="linearGradient4167">
      <stop
         id="stop4170"
         offset="0"
         style="stop-color:#ffffff;stop-opacity:1;" />
      <stop
         id="stop4172"
         offset="1"
         style="stop-color:#ffffff;stop-opacity:0;" />
    </linearGradient>
    <linearGradient
       id="linearGradient4165">
      <stop
         id="stop4167"
         offset="0"
         style="stop-color:#5858a9;stop-opacity:1" />
      <stop
         id="stop4169"
         offset="1"
         style="stop-color:#000080;stop-opacity:1" />
    </linearGradient>
    <linearGradient
       id="linearGradient4172">
      <stop
         id="stop4174"
         offset="0"
         style="stop-color:#8282bf;stop-opacity:1" />
      <stop
         id="stop4176"
         offset="1"
         style="stop-color:#000080;stop-opacity:1" />
    </linearGradient>
    <linearGradient
       id="linearGradient4164">
      <stop
         id="stop4166"
         offset="0"
         style="stop-color:#000058;stop-opacity:1" />
      <stop
         id="stop4168"
         offset="1"
         style="stop-color:#000078;stop-opacity:1" />
    </linearGradient>
    <linearGradient
       id="linearGradient4156">
      <stop
         id="stop4158"
         offset="0"
         style="stop-color:#000058;stop-opacity:1" />
      <stop
         id="stop4160"
         offset="1"
         style="stop-color:#000078;stop-opacity:1" />
    </linearGradient>
    <linearGradient
       id="linearGradient4155">
      <stop
         id="stop4157"
         offset="0"
         style="stop-color:#ffffff;stop-opacity:0.78" />
      <stop
         id="stop4159"
         offset="1"
         style="stop-color:#ffffff;stop-opacity:0.314" />
    </linearGradient>
    <linearGradient
       gradientTransform="translate(0,0.99953907)"
       xlink:href="#linearGradient3104-5"
       id="linearGradient3243"
       gradientUnits="userSpaceOnUse"
       x1="21.253012"
       y1="44.301422"
       x2="21.253012"
       y2="0.50542921" />
    <linearGradient
       id="linearGradient3104-5">
      <stop
         offset="0"
         style="stop-color:#aaaaaa;stop-opacity:1"
         id="stop3106-2" />
      <stop
         offset="1"
         style="stop-color:#c8c8c8;stop-opacity:1"
         id="stop3108-5" />
    </linearGradient>
    <linearGradient
       y2="43"
       x2="23.99999"
       y1="5.5641499"
       x1="23.99999"
       gradientTransform="matrix(0.89189189,0,0,1.1351351,2.5945999,-4.7432314)"
       gradientUnits="userSpaceOnUse"
       id="linearGradient3988"
       xlink:href="#linearGradient3977" />
    <linearGradient
       id="linearGradient3977">
      <stop
         id="stop3979"
         style="stop-color:#ffffff;stop-opacity:1;"
         offset="0" />
      <stop
         offset="0.03626217"
         style="stop-color:#ffffff;stop-opacity:0.23529412;"
         id="stop3981" />
      <stop
         id="stop3983"
         style="stop-color:#ffffff;stop-opacity:0.15686275;"
         offset="0.95056331" />
      <stop
         id="stop3985"
         style="stop-color:#ffffff;stop-opacity:0.39215687;"
         offset="1" />
    </linearGradient>
    <linearGradient
       y2="47.013336"
       x2="25.132275"
       y1="0.98520643"
       x1="25.132275"
       gradientTransform="matrix(1,0,0,0.9561695,-9.9999999e-8,-1.9149218)"
       gradientUnits="userSpaceOnUse"
       id="linearGradient3322"
       xlink:href="#linearGradient3600" />
    <linearGradient
       id="linearGradient3600">
      <stop
         offset="0"
         style="stop-color:#f4f4f4;stop-opacity:1"
         id="stop3602" />
      <stop
         offset="1"
         style="stop-color:#dbdbdb;stop-opacity:1"
         id="stop3604" />
    </linearGradient>
    <linearGradient
       y2="2.9062471"
       x2="-51.786404"
       y1="50.786446"
       x1="-51.786404"
       gradientTransform="matrix(0.8074968,0,0,0.8948322,59.410232,-2.9805531)"
       gradientUnits="userSpaceOnUse"
       id="linearGradient3324"
       xlink:href="#linearGradient3104" />
    <linearGradient
       id="linearGradient3104">
      <stop
         offset="0"
         style="stop-color:#a0a0a0;stop-opacity:1;"
         id="stop3106" />
      <stop
         offset="1"
         style="stop-color:#bebebe;stop-opacity:1;"
         id="stop3108" />
    </linearGradient>
    <radialGradient
       r="117.14286"
       fy="486.64789"
       fx="605.71429"
       cy="486.64789"
       cx="605.71429"
       gradientTransform="matrix(0.02303995,0,0,0.01470022,26.360882,37.040176)"
       gradientUnits="userSpaceOnUse"
       id="radialGradient3327"
       xlink:href="#linearGradient5060" />
    <linearGradient
       id="linearGradient5060">
      <stop
         offset="0"
         style="stop-color:#000000;stop-opacity:1"
         id="stop5062" />
      <stop
         offset="1"
         style="stop-color:#000000;stop-opacity:0"
         id="stop5064" />
    </linearGradient>
    <radialGradient
       r="117.14286"
       fy="486.64789"
       fx="605.71429"
       cy="486.64789"
       cx="605.71429"
       gradientTransform="matrix(-0.02303994,0,0,0.01470022,21.62311,37.040176)"
       gradientUnits="userSpaceOnUse"
       id="radialGradient3330"
       xlink:href="#linearGradient5060" />
    <linearGradient
       id="linearGradient5048">
      <stop
         offset="0"
         style="stop-color:#000000;stop-opacity:0"
         id="stop5050" />
      <stop
         offset="0.5"
         style="stop-color:#000000;stop-opacity:1"
         id="stop5056" />
      <stop
         offset="1"
         style="stop-color:#000000;stop-opacity:0"
         id="stop5052" />
    </linearGradient>
    <linearGradient
       xlink:href="#linearGradient5048"
       id="linearGradient4091"
       gradientUnits="userSpaceOnUse"
       gradientTransform="matrix(0.06732488,0,0,0.01470022,-0.3411391,37.040146)"
       x1="302.85715"
       y1="366.64789"
       x2="302.85715"
       y2="609.50507" />
    <radialGradient
       r="12.289036"
       fy="63.965389"
       fx="15.115514"
       cy="63.965389"
       cx="15.115514"
       gradientTransform="matrix(0.97732361,0,0,0.33984565,7.737616,13.984427)"
       gradientUnits="userSpaceOnUse"
       id="radialGradient3172"
       xlink:href="#linearGradient4114-3-2" />
    <linearGradient
       id="linearGradient4114-3-2">
      <stop
         offset="0"
         style="stop-color:#000000;stop-opacity:1"
         id="stop4116-7-9" />
      <stop
         offset="1"
         style="stop-color:#000000;stop-opacity:0"
         id="stop4118-4-1" />
    </linearGradient>
    <linearGradient
       gradientTransform="matrix(1.0476193,0,0,1.0476192,-0.54762285,-1.6904813)"
       gradientUnits="userSpaceOnUse"
       y2="26.383757"
       x2="21.484772"
       y1="18.222336"
       x1="28.798479"
       id="linearGradient4163"
       xlink:href="#linearGradient4155" />
    <linearGradient
       gradientTransform="matrix(1.0476193,0,0,1.0476189,-0.54762488,-1.6904729)"
       gradientUnits="userSpaceOnUse"
       y2="17.828428"
       x2="29.828938"
       y1="31.767511"
       x1="14.070047"
       id="linearGradient4162"
       xlink:href="#linearGradient4156" />
    <linearGradient
       gradientTransform="matrix(1.0877195,0,0,1.0876369,-1.3403563,-2.7810631)"
       gradientUnits="userSpaceOnUse"
       y2="11.751223"
       x2="35.248386"
       y1="16.348345"
       x1="30.651611"
       id="linearGradient4170"
       xlink:href="#linearGradient4164" />
    <radialGradient
       gradientTransform="matrix(-0.90065585,0.77962433,-0.77952796,-0.90054399,55.167813,14.84873)"
       gradientUnits="userSpaceOnUse"
       r="11"
       fy="12.122985"
       fx="20.138643"
       cy="12.122985"
       cx="20.138643"
       id="radialGradient4178"
       xlink:href="#linearGradient4172" />
    <radialGradient
       gradientUnits="userSpaceOnUse"
       gradientTransform="matrix(-0.71428584,4.9113847e-8,-4.7082193e-8,-0.68473854,59.430647,20.422365)"
       r="3.4999998"
       fy="13.760531"
       fx="32.802898"
       cy="13.760531"
       cx="32.802898"
       id="radialGradient4171"
       xlink:href="#linearGradient4165" />
    <linearGradient
       gradientUnits="userSpaceOnUse"
       y2="14.535714"
       x2="32.485714"
       y1="10.928572"
       x1="35.94286"
       id="linearGradient4174"
       xlink:href="#linearGradient4167" />
  </defs>
  <metadata
     id="metadata4098">
    <rdf:RDF>
      <cc:Work
         rdf:about="">
        <dc:format>image/svg+xml</dc:format>
        <dc:type
           rdf:resource="http://purl.org/dc/dcmitype/StillImage" />
        <dc:title />
      </cc:Work>
    </rdf:RDF>
  </metadata>
  <g
     id="layer1">
    <rect
       width="32.508301"
       height="3.5700529"
       x="7.7378473"
       y="42.429947"
       id="rect2879"
       style="opacity:0.3;fill:url(#linearGradient4091);fill-opacity:1;fill-rule:nonzero;stroke:none;stroke-width:1;marker:none;visibility:visible;display:inline;overflow:visible" />
    <path
       d="m 7.7378475,42.430102 c 0,0 0,3.569856 0,3.569856 -1.1865002,0.0067 -2.8683795,-0.799823 -2.8683795,-1.785158 0,-0.985333 1.3240446,-1.784697 2.8683795,-1.784698 z"
       id="path2881"
       style="opacity:0.3;fill:url(#radialGradient3330);fill-opacity:1;fill-rule:nonzero;stroke:none;stroke-width:1;marker:none;visibility:visible;display:inline;overflow:visible" />
    <path
       d="m 40.246148,42.430102 c 0,0 0,3.569856 0,3.569856 1.1865,0.0067 2.86838,-0.799823 2.86838,-1.785158 0,-0.985333 -1.324045,-1.784697 -2.86838,-1.784698 z"
       id="path2883"
       style="opacity:0.3;fill:url(#radialGradient3327);fill-opacity:1;fill-rule:nonzero;stroke:none;stroke-width:1;marker:none;visibility:visible;display:inline;overflow:visible" />
    <path
       d="M 6.4999609,0.497199 C 14.520256,0.497199 41.5,0.5 41.5,0.5 l 4.2e-5,44.002803 c 0,0 -23.333387,0 -35.0000811,0 0,-14.668535 0,-29.33707 0,-44.00560407 z"
       id="path4160"
       style="fill:url(#linearGradient3322);fill-opacity:1;stroke:url(#linearGradient3324);stroke-width:0.99992186;stroke-linecap:butt;stroke-linejoin:round;stroke-miterlimit:4;stroke-opacity:1;stroke-dasharray:none;stroke-dashoffset:0;display:inline" />
    <path
       id="rect6741-1"
       d="m 40.5,43.5 -33,0 0,-41.9999998 33,0 z"
       style="fill:none;stroke:url(#linearGradient3988);stroke-width:1;stroke-linecap:round;stroke-linejoin:round;stroke-miterlimit:4;stroke-opacity:1;stroke-dasharray:none;stroke-dashoffset:0" />
    <path
       d="m 11,6.9995391 0,1 2.375,0 0,-1 z m 2.6875,0 0,1 2.25,0 0,-1 z m 2.5625,0 0,1 1.96875,0 0,-1 z m 2.28125,0 0,1 0.875,0 0,-1 z m 1.1875,0 0,1 1.9375,0 0,-1 z m 2.28125,0 0,1 5,0 0,-1 z m -11,2 0,1 3.78125,0 0,-1 z m 4.15625,0 0,1 1.8125,0 0,-1 z m 2.15625,0 0,1 0.84375,0 0,-1 z m 1.21875,0 0,1 1.625,0 0,-1 z m 2,0 0,1 1.625,0 0,-1 z m 1.96875,0 0,1 2.65625,0 0,-1 z m 3.03125,0 0,1 3.46875,0 0,-1 z M 11,10.999539 l 0,1 4.1875,0 0,-1 z m 4.5,0 0,1 4.5,0 0,-1 z m -4.5,2 0,1 2.3125,0 0,-1 z m 2.625,0 0,1 2.15625,0 0,-1 z m 2.46875,0 0,1 1.90625,0 0,-1 z m -5.09375,3 0,1 3.0625,0 0,-1 z m 3.40625,0 0,1 5.59375,0 0,-1 z m -3.40625,2 0,1 3.09375,0 0,-1 z m 3.4375,0 0,1 5.09375,0 0,-1 z m 5.46875,0 0,1 1.90625,0 0,-1 z m 2.21875,0 0,1 1.90625,0 0,-1 z m 2.21875,0 0,1 2.75,0 0,-1 z m 3.09375,0 0,1 0.5625,0 0,-1 z m -16.4375,3 0,1 2.34375,0 0,-1 z m 0,2 0,1 1,0 0,-1 z m 0,2 0,1 2.75,0 0,-1 z m 9,0 0,1 2.34375,0 0,-1 z m 2.65625,0 0,1 2.1875,0 0,-1 z m 2.5,0 0,1 1.84375,0 0,-1 z m -14.15625,2 0,1 2.9375,0 0,-1 z m 9,0 0,1 1.875,0 0,-1 z m 2.1875,0 0,1 4.8125,0 0,-1 z m 5.125,0 0,1 3.6875,0 0,-1 z m -16.3125,2 0,1 2.53125,0 0,-1 z m 9,0 0,1 2.4375,0 0,-1 z m 2.78125,0 0,1 4.28125,0 0,-1 z m 4.59375,0 0,1 2.9375,0 0,-1 z M 11,31.155789 l 0,0.96875 2.21875,0 0,-0.96875 z m 2.5625,0 0,0.96875 2.125,0 0,-0.96875 z M 11,33.999539 l 0,1 4.28125,0 0,-1 z m 4.625,0 0,1 4.59375,0 0,-1 z m 11.75,0 0,1 2.96875,0 0,-1 z m 3.28125,0 0,1 1.15625,0 0,-1 z m 1.5,0 0,1 0.6875,0 0,-1 z m 1,0 0,1 1.84375,0 0,-1 z m -22.15625,2 0,1 3.6875,0 0,-1 z m 3.96875,0 0,1 1.78125,0 0,-1 z m 2.15625,0 0,1 0.8125,0 0,-1 z m 1.03125,0 0,1 1.625,0 0,-1 z m 1.875,0 0,1 1.625,0 0,-1 z m 2.125,0 0,1 2.59375,0 0,-1 z m 2.90625,0 0,1 3.375,0 0,-1 z m 3.84375,0 0,1 2.28125,0 0,-1 z m 2.5625,0 0,1 0.53125,0 0,-1 z m -20.46875,2 0,1 3.03125,0 0,-1 z m 3.34375,0 0,1 3.34375,0 0,-1 z m 5.59375,0 0,1 2.4375,0 0,-1 z m 2.75,0 0,1 2.25,0 0,-1 z m 2.59375,0 0,1 1.9375,0 0,-1 z m 2.25,0 0,1 3.09375,0 0,-1 z m 3.4375,0 0,1 5.03125,0 0,-1 z"
       id="path4149"
       style="fill:url(#linearGradient3243);fill-opacity:1;stroke:none;display:inline" />
    <g
       id="g4271">
      <path
         style="opacity:0.3;fill:url(#radialGradient3172);fill-opacity:1;stroke:none;display:inline"
         id="path2917"
         d="M 34.520747,35.72278 C 34.522308,38.029659 29.144456,39.9 22.510374,39.9 15.87629,39.9 10.498678,38.029659 10.5,35.72278 c -0.0012,-2.306866 5.37629,-4.177185 12.010374,-4.177185 6.634082,0 12.011695,1.870319 12.010373,4.177185 z" />
      <g
         id="g4204">
        <circle
           r="11"
           cx="22.5"
           cy="24.5"
           id="circle10"
           style="fill:url(#radialGradient4178);fill-opacity:1;stroke:url(#linearGradient4162);stroke-width:0.99999976;stroke-opacity:1"
           d="m 33.5,24.5 a 11,11 0 0 1 -11,11 11,11 0 0 1 -11,-11 11,11 0 0 1 11,-11 11,11 0 0 1 11,11 z" />
        <circle
           r="3.5"
           id="circle12"
           style="fill:#ffffff"
           cy="20.5"
           cx="26.5"
           d="M 30,20.5 A 3.5,3.5 0 0 1 26.5,24 3.5,3.5 0 0 1 23,20.5 3.5,3.5 0 0 1 26.5,17 3.5,3.5 0 0 1 30,20.5 Z" />
        <ellipse
           ry="3.0997655"
           rx="3.0999999"
           id="circle14"
           cy="12.500235"
           cx="34.5"
           style="fill:url(#radialGradient4171);fill-opacity:1;stroke:url(#linearGradient4170);stroke-width:0.79999983;stroke-miterlimit:4;stroke-opacity:1;stroke-dasharray:none"
           d="M 37.6,12.500235 A 3.0999999,3.0997655 0 0 1 34.5,15.6 3.0999999,3.0997655 0 0 1 31.4,12.500235 3.0999999,3.0997655 0 0 1 34.5,9.4004691 3.0999999,3.0997655 0 0 1 37.6,12.500235 Z" />
        <path
           style="opacity:0.4;fill:none;stroke:url(#linearGradient4163);stroke-width:0.99999976;stroke-linecap:round;stroke-linejoin:round;stroke-miterlimit:4;stroke-opacity:1;stroke-dasharray:none;stroke-dashoffset:0"
           id="path3164"
           d="m 32.500002,24.5 c 0,5.52 -4.479997,10 -10.000003,10 -5.519999,0 -9.999998,-4.48 -9.999998,-10 0,-5.520001 4.479999,-10.000001 9.999998,-10.000001 5.520006,0 10.000003,4.48 10.000003,10.000001 z" />
        <path
           style="opacity:0.26000001;fill:none;stroke:url(#linearGradient4174);stroke-width:0.79999983;stroke-linecap:round;stroke-linejoin:round;stroke-miterlimit:4;stroke-opacity:1;stroke-dasharray:none;stroke-dashoffset:0"
           id="path3164-2"
           d="m 32.200108,12.522081 c -0.01219,-1.269543 1.008272,-2.309784 2.277815,-2.321974 1.269536,-0.01219 2.309782,1.008264 2.32197,2.277807 0.0122,1.269543 -1.008273,2.309788 -2.277811,2.321978 -1.269542,0.0122 -2.309786,-1.008268 -2.321974,-2.277811 z" />
      </g>
    </g>
  </g>
</svg>
