<?xml version="1.0" encoding="UTF-8" standalone="no"?>
<svg
   id="svg3901"
   height="48"
   width="48"
   version="1.1"
   sodipodi:docname="text-x-sass.svg"
   inkscape:version="1.1.2 (0a00cf5339, 2022-02-04)"
   xmlns:inkscape="http://www.inkscape.org/namespaces/inkscape"
   xmlns:sodipodi="http://sodipodi.sourceforge.net/DTD/sodipodi-0.dtd"
   xmlns:xlink="http://www.w3.org/1999/xlink"
   xmlns="http://www.w3.org/2000/svg"
   xmlns:svg="http://www.w3.org/2000/svg"
   xmlns:rdf="http://www.w3.org/1999/02/22-rdf-syntax-ns#"
   xmlns:cc="http://creativecommons.org/ns#"
   xmlns:dc="http://purl.org/dc/elements/1.1/">
  <sodipodi:namedview
     id="namedview41"
     pagecolor="#ffffff"
     bordercolor="#666666"
     borderopacity="1.0"
     inkscape:pageshadow="2"
     inkscape:pageopacity="0.0"
     inkscape:pagecheckerboard="0"
     showgrid="false"
     inkscape:zoom="10.046809"
     inkscape:cx="34.986233"
     inkscape:cy="27.570943"
     inkscape:window-width="1317"
     inkscape:window-height="893"
     inkscape:window-x="505"
     inkscape:window-y="347"
     inkscape:window-maximized="0"
     inkscape:current-layer="svg3901" />
  <defs
     id="defs3903">
    <linearGradient
       id="linearGradient3403">
      <stop
         id="stop3405"
         style="stop-color:#ffffff;stop-opacity:1"
         offset="0" />
      <stop
         id="stop3407"
         style="stop-color:#ffffff;stop-opacity:0.23529412"
         offset="0" />
      <stop
         id="stop3409"
         style="stop-color:#ffffff;stop-opacity:0.15686275"
         offset="1" />
      <stop
         id="stop3411"
         style="stop-color:#ffffff;stop-opacity:0.39215687"
         offset="1" />
    </linearGradient>
    <linearGradient
       id="linearGradient3600">
      <stop
         offset="0"
         style="stop-color:#f4f4f4;stop-opacity:1"
         id="stop3602" />
      <stop
         offset="1"
         style="stop-color:#dbdbdb;stop-opacity:1"
         id="stop3604" />
    </linearGradient>
    <linearGradient
       id="linearGradient5060">
      <stop
         offset="0"
         style="stop-color:#000000;stop-opacity:1"
         id="stop5062" />
      <stop
         offset="1"
         style="stop-color:#000000;stop-opacity:0"
         id="stop5064" />
    </linearGradient>
    <linearGradient
       id="linearGradient5048">
      <stop
         offset="0"
         style="stop-color:#000000;stop-opacity:0"
         id="stop5050" />
      <stop
         offset="0.5"
         style="stop-color:#000000;stop-opacity:1"
         id="stop5056" />
      <stop
         offset="1"
         style="stop-color:#000000;stop-opacity:0"
         id="stop5052" />
    </linearGradient>
    <linearGradient
       id="linearGradient3104-6">
      <stop
         id="stop3106-3"
         style="stop-color:#000000;stop-opacity:0.31782946"
         offset="0" />
      <stop
         id="stop3108-9"
         style="stop-color:#000000;stop-opacity:0.24031007"
         offset="1" />
    </linearGradient>
    <linearGradient
       y2="42.110645"
       x2="23.99999"
       y1="5.9404659"
       x1="23.99999"
       gradientTransform="matrix(0.89189189,0,0,1.1351351,2.5945999,-4.7432314)"
       gradientUnits="userSpaceOnUse"
       id="linearGradient3106"
       xlink:href="#linearGradient3403" />
    <linearGradient
       y2="47.013336"
       x2="25.132275"
       y1="0.98520643"
       x1="25.132275"
       gradientTransform="matrix(0.97142632,0,0,0.93431938,0.68576678,-1.3569996)"
       gradientUnits="userSpaceOnUse"
       id="linearGradient3109"
       xlink:href="#linearGradient3600" />
    <radialGradient
       r="117.14286"
       fy="486.64789"
       fx="605.71429"
       cy="486.64789"
       cx="605.71429"
       gradientTransform="matrix(0.02303995,0,0,0.01470022,26.360882,37.040176)"
       gradientUnits="userSpaceOnUse"
       id="radialGradient3112"
       xlink:href="#linearGradient5060" />
    <radialGradient
       r="117.14286"
       fy="486.64789"
       fx="605.71429"
       cy="486.64789"
       cx="605.71429"
       gradientTransform="matrix(-0.02303994,0,0,0.01470022,21.62311,37.040176)"
       gradientUnits="userSpaceOnUse"
       id="radialGradient3115"
       xlink:href="#linearGradient5060" />
    <linearGradient
       y2="609.50507"
       x2="302.85715"
       y1="366.64789"
       x1="302.85715"
       gradientTransform="matrix(0.06732488,0,0,0.01470022,-0.3411391,37.040146)"
       gradientUnits="userSpaceOnUse"
       id="linearGradient3118"
       xlink:href="#linearGradient5048" />
    <linearGradient
       y2="2.9062471"
       x2="-51.786404"
       y1="50.786446"
       x1="-51.786404"
       gradientTransform="matrix(0.80749686,0,0,0.89471714,59.410232,-2.9773433)"
       gradientUnits="userSpaceOnUse"
       id="linearGradient3170"
       xlink:href="#linearGradient3104-6" />
  </defs>
  <metadata
     id="metadata3906">
    <rdf:RDF>
      <cc:Work
         rdf:about="">
        <dc:format>image/svg+xml</dc:format>
        <dc:type
           rdf:resource="http://purl.org/dc/dcmitype/StillImage" />
      </cc:Work>
    </rdf:RDF>
  </metadata>
  <rect
     width="32.508301"
     height="3.5700529"
     x="7.7378473"
     y="42.429947"
     id="rect2879"
     style="opacity:0.3;fill:url(#linearGradient3118);fill-opacity:1;fill-rule:nonzero;stroke:none;stroke-width:1;marker:none;visibility:visible;display:inline;overflow:visible" />
  <path
     d="m 7.7378475,42.430102 c 0,0 0,3.569856 0,3.569856 -1.1865002,0.0067 -2.8683795,-0.799823 -2.8683795,-1.785158 0,-0.985333 1.3240446,-1.784697 2.8683795,-1.784698 z"
     id="path2881"
     style="opacity:0.3;fill:url(#radialGradient3115);fill-opacity:1;fill-rule:nonzero;stroke:none;stroke-width:1;marker:none;visibility:visible;display:inline;overflow:visible" />
  <path
     d="m 40.246148,42.430102 c 0,0 0,3.569856 0,3.569856 1.1865,0.0067 2.86838,-0.799823 2.86838,-1.785158 0,-0.985333 -1.324045,-1.784697 -2.86838,-1.784698 z"
     id="path2883"
     style="opacity:0.3;fill:url(#radialGradient3112);fill-opacity:1;fill-rule:nonzero;stroke:none;stroke-width:1;marker:none;visibility:visible;display:inline;overflow:visible" />
  <path
     d="m 7,1.0000001 c 7.791126,0 33.999959,0.00274 33.999959,0.00274 L 41,44 C 41,44 18.333334,44 7,44 7,29.666666 7,15.333333 7,1 z"
     id="path4160"
     style="fill:url(#linearGradient3109);fill-opacity:1;stroke:none;display:inline" />
  <path
     d="m 40.5,43.5 -33,0 0,-41.9999998 33,0 z"
     id="rect6741-1"
     style="fill:none;stroke:url(#linearGradient3106);stroke-width:1;stroke-linecap:round;stroke-linejoin:miter;stroke-miterlimit:4;stroke-opacity:1;stroke-dasharray:none;stroke-dashoffset:0" />
  <path
     d="m 6.4999605,0.4999623 c 8.0202885,0 35.0000415,0.00298 35.0000415,0.00298 l 3.7e-5,43.9970957 c 0,0 -23.333385,0 -35.0000785,0 0,-14.666738 0,-29.333326 0,-43.9998923 z"
     id="path4160-6-1"
     style="fill:none;stroke:url(#linearGradient3170);stroke-width:0.99992192;stroke-linecap:butt;stroke-linejoin:round;stroke-miterlimit:4;stroke-opacity:1;stroke-dasharray:none;stroke-dashoffset:0;display:inline" />
  <path
     fill="#cd6799"
     d="m 34.790732,23.786568 c -0.994275,0.0053 -1.85841,0.244665 -2.581995,0.59865 -0.265485,-0.525773 -0.530978,-0.994275 -0.577822,-1.33785 -0.05205,-0.400838 -0.114526,-0.645503 -0.05205,-1.124415 0.06247,-0.47892 0.343567,-1.160858 0.338362,-1.212915 -0.0053,-0.05205 -0.06247,-0.296723 -0.635085,-0.301928 -0.572618,-0.0053 -1.067153,0.10932 -1.124415,0.26028 -0.05723,0.150968 -0.166583,0.494535 -0.23946,0.84852 -0.09891,0.520568 -1.145243,2.378978 -1.743893,3.352433 -0.192607,-0.380018 -0.35919,-0.713175 -0.395625,-0.97866 -0.05205,-0.400838 -0.114525,-0.645503 -0.05205,-1.124423 0.06247,-0.478912 0.343575,-1.160857 0.338363,-1.212907 -0.0053,-0.05205 -0.06248,-0.296723 -0.635085,-0.301928 -0.572618,-0.0053 -1.067153,0.10932 -1.124415,0.26028 -0.05722,0.15096 -0.11973,0.504945 -0.23946,0.84852 -0.11973,0.343568 -1.509638,3.44613 -1.874033,4.247798 -0.187402,0.411247 -0.348772,0.7392 -0.463297,0.963045 0,0 0,0 0,0 0,0 -0.0053,0.0156 -0.02085,0.04163 -0.09891,0.192607 -0.156173,0.296722 -0.156173,0.296722 0,0 0,0 0,0.0053 -0.07808,0.140558 -0.161377,0.270698 -0.203017,0.270698 -0.03127,0 -0.0885,-0.374805 0.01043,-0.884963 0.208222,-1.077562 0.702757,-2.753782 0.697552,-2.811045 0,-0.0312 0.0937,-0.322747 -0.322747,-0.473707 -0.406043,-0.150968 -0.551798,0.0989 -0.58824,0.0989 -0.03645,0 -0.06247,0.0885 -0.06247,0.0885 0,0 0.452895,-1.884442 -0.864135,-1.884442 -0.822488,0 -1.95732,0.900577 -2.519528,1.712655 -0.353985,0.192607 -1.1088,0.603855 -1.915672,1.046332 -0.307133,0.171788 -0.624675,0.343575 -0.921398,0.504945 -0.02085,-0.02085 -0.04162,-0.04687 -0.06247,-0.06765 -1.592925,-1.702245 -4.539315,-2.904742 -4.41438,-5.190015 0.04687,-0.832905 0.333165,-3.019275 5.658525,-5.674147 4.38315,-2.160338 7.87092,-1.561688 8.474775,-0.234255 0.864135,1.894852 -1.86882,5.413867 -6.397725,5.924017 -1.72827,0.192608 -2.634052,-0.473715 -2.863102,-0.723585 -0.239453,-0.26028 -0.275895,-0.275895 -0.364388,-0.223845 -0.145762,0.07809 -0.05205,0.312345 0,0.44769 0.135345,0.353985 0.692348,0.97866 1.634565,1.285793 0.832905,0.27069 2.857898,0.421657 5.309753,-0.525773 2.743365,-1.061947 4.888087,-4.013542 4.258207,-6.486225 -0.62988,-2.50911 -4.79439,-3.33681 -8.735055,-1.936492 -2.342535,0.832897 -4.88289,2.144722 -6.71007,3.852172 -2.170747,2.030198 -2.514322,3.794903 -2.373764,4.53411 0.504944,2.623635 4.122862,4.331085 5.570024,5.596058 -0.0729,0.04162 -0.14055,0.07808 -0.197812,0.109312 -0.723585,0.35919 -3.482565,1.801155 -4.169715,3.326408 -0.78084,1.72827 0.124935,2.96721 0.723585,3.133792 1.85841,0.515355 3.768885,-0.411247 4.79439,-1.941705 1.025512,-1.530457 0.900577,-3.519007 0.426862,-4.429995 -0.0053,-0.01042 -0.01042,-0.02085 -0.02085,-0.03128 0.187403,-0.109312 0.38001,-0.223837 0.567413,-0.333157 0.3696,-0.21864 0.733995,-0.421658 1.046332,-0.58824 -0.176992,0.484125 -0.307132,1.061955 -0.3696,1.894852 -0.07808,0.97866 0.322748,2.248838 0.84852,2.748578 0.234255,0.21864 0.51015,0.223845 0.687143,0.223845 0.614265,0 0.890167,-0.510158 1.1973,-1.114005 0.374805,-0.7392 0.713167,-1.59813 0.713167,-1.59813 0,0 -0.421657,2.321707 0.723585,2.321707 0.416453,0 0.83811,-0.54138 1.025513,-0.817282 0,0.0053 0,0.0053 0,0.0053 0,0 0.01043,-0.0156 0.0312,-0.05205 0.04162,-0.06765 0.06765,-0.10932 0.06765,-0.10932 0,0 0,-0.0053 0,-0.01042 0.166582,-0.29151 0.541387,-0.952628 1.09839,-2.051018 0.71838,-1.415932 1.410727,-3.18585 1.410727,-3.18585 0,0 0.06247,0.432068 0.275903,1.150448 0.124935,0.421657 0.385215,0.884955 0.593437,1.332637 -0.166575,0.234255 -0.27069,0.364395 -0.27069,0.364395 0,0 0,0 0.0053,0.0053 -0.135345,0.176993 -0.281107,0.3696 -0.442477,0.55701 -0.567413,0.676733 -1.244145,1.452368 -1.33785,1.676213 -0.10932,0.265485 -0.08329,0.458092 0.124935,0.614265 0.150967,0.114525 0.421657,0.13014 0.697552,0.114525 0.510158,-0.03645 0.869348,-0.161378 1.046333,-0.23946 0.275902,-0.09891 0.59865,-0.24987 0.900577,-0.473715 0.557003,-0.411248 0.895373,-0.99948 0.864135,-1.775123 -0.0156,-0.426862 -0.156165,-0.853725 -0.327952,-1.254555 0.05205,-0.0729 0.09891,-0.145762 0.15096,-0.21864 0.879757,-1.285792 1.561695,-2.69652 1.561695,-2.69652 0,0 0.06247,0.432068 0.275895,1.150448 0.104115,0.364395 0.317542,0.76002 0.504952,1.145242 -0.8277,0.671528 -1.33785,1.452368 -1.520047,1.962525 -0.32796,0.947423 -0.0729,1.374285 0.41124,1.473195 0.21864,0.04687 0.530977,-0.05722 0.760027,-0.156172 0.291518,-0.0937 0.635085,-0.255075 0.963045,-0.494535 0.557003,-0.411248 1.093178,-0.983865 1.061948,-1.759508 -0.0156,-0.353977 -0.10932,-0.702757 -0.23946,-1.041127 0.702757,-0.29151 1.60854,-0.452888 2.764192,-0.317543 2.47788,0.291518 2.96721,1.83759 2.873513,2.488298 -0.0937,0.6507 -0.614265,1.004685 -0.786053,1.114005 -0.171787,0.10932 -0.22905,0.145755 -0.213435,0.223845 0.02085,0.114517 0.104115,0.109312 0.249878,0.08849 0.203017,-0.03645 1.301407,-0.525772 1.34826,-1.723065 0.07808,-1.530457 -1.379498,-3.201465 -3.956288,-3.18585 z m -19.115093,6.444577 c -0.822495,0.895373 -1.96773,1.233735 -2.462265,0.947423 -0.530977,-0.307133 -0.322755,-1.62936 0.687143,-2.57679 0.614265,-0.577823 1.405522,-1.114005 1.931287,-1.441958 0.119731,-0.0729 0.296723,-0.176992 0.510158,-0.307132 0.03645,-0.02085 0.05722,-0.03127 0.05722,-0.03127 v 0 c 0.04162,-0.02603 0.08329,-0.05205 0.124935,-0.07808 0.369608,1.353465 0.0156,2.54556 -0.848513,3.487778 z m 5.986478,-4.070805 c -0.286305,0.697553 -0.884955,2.483085 -1.24935,2.384183 -0.312337,-0.08329 -0.504945,-1.43676 -0.06248,-2.77461 0.223838,-0.671528 0.697553,-1.473195 0.973455,-1.785533 0.447683,-0.49974 0.942218,-0.666322 1.061947,-0.463297 0.15096,0.265485 -0.546592,2.201985 -0.723584,2.639257 z m 4.940153,2.363355 c -0.11973,0.06247 -0.234255,0.104115 -0.286313,0.0729 -0.03645,-0.02085 0.05205,-0.104107 0.05205,-0.104107 0,0 0.61947,-0.666323 0.864135,-0.96825 0.14055,-0.176993 0.307133,-0.385215 0.484125,-0.61947 0,0.02085 0,0.04687 0,0.06765 0,0.796462 -0.770437,1.332645 -1.114005,1.551277 z m 3.810525,-0.86934 c -0.0885,-0.06247 -0.0729,-0.27069 0.223837,-0.921397 0.114525,-0.255075 0.385223,-0.681938 0.84852,-1.093185 0.05205,0.166582 0.0885,0.32796 0.08329,0.47892 -0.0053,1.004685 -0.723585,1.37949 -1.155652,1.535662 z"
     id="path2"
     style="fill:#f4679d;fill-opacity:1;stroke-width:0.999997" />
</svg>
