<?xml version="1.0" encoding="UTF-8" standalone="no"?>
<svg
   height="24"
   width="24"
   id="svg2"
   version="1.1"
   sodipodi:docname="audio-volume-medium.svg"
   inkscape:version="1.2.2 (b0a8486541, 2022-12-01)"
   xmlns:inkscape="http://www.inkscape.org/namespaces/inkscape"
   xmlns:sodipodi="http://sodipodi.sourceforge.net/DTD/sodipodi-0.dtd"
   xmlns:xlink="http://www.w3.org/1999/xlink"
   xmlns="http://www.w3.org/2000/svg"
   xmlns:svg="http://www.w3.org/2000/svg"
   xmlns:rdf="http://www.w3.org/1999/02/22-rdf-syntax-ns#"
   xmlns:cc="http://creativecommons.org/ns#"
   xmlns:dc="http://purl.org/dc/elements/1.1/">
  <sodipodi:namedview
     id="namedview49079"
     pagecolor="#ffffff"
     bordercolor="#000000"
     borderopacity="0.25"
     inkscape:showpageshadow="2"
     inkscape:pageopacity="0.0"
     inkscape:pagecheckerboard="0"
     inkscape:deskcolor="#d1d1d1"
     showgrid="false"
     inkscape:zoom="8"
     inkscape:cx="34.4375"
     inkscape:cy="22.1875"
     inkscape:window-width="1507"
     inkscape:window-height="898"
     inkscape:window-x="520"
     inkscape:window-y="72"
     inkscape:window-maximized="0"
     inkscape:current-layer="svg2"
     showguides="true" />
  <metadata
     id="metadata16">
    <rdf:RDF>
      <cc:Work
         rdf:about="">
        <dc:format>image/svg+xml</dc:format>
        <dc:type
           rdf:resource="http://purl.org/dc/dcmitype/StillImage" />
      </cc:Work>
    </rdf:RDF>
  </metadata>
  <defs
     id="defs14">
    <linearGradient
       id="linearGradient5662">
      <stop
         id="stop5654"
         style="stop-color:#ffffff;stop-opacity:1"
         offset="0" />
      <stop
         id="stop5656"
         style="stop-color:#ffffff;stop-opacity:0.23529412"
         offset="0.00000003" />
      <stop
         id="stop5658"
         style="stop-color:#ffffff;stop-opacity:0.15686275"
         offset="0.53919154" />
      <stop
         id="stop5660"
         style="stop-color:#ffffff;stop-opacity:0.39215687"
         offset="1" />
    </linearGradient>
    <linearGradient
       inkscape:collect="always"
       xlink:href="#linearGradient964"
       id="linearGradient966"
       x1="4.9075637"
       y1="-0.13711601"
       x2="4.9075637"
       y2="16.600239"
       gradientUnits="userSpaceOnUse"
       gradientTransform="matrix(1.3332799,0,0,1.2303294,1.8333587,2.1571255)" />
    <linearGradient
       inkscape:collect="always"
       id="linearGradient964">
      <stop
         style="stop-color:#fafafa;stop-opacity:1"
         offset="0"
         id="stop960" />
      <stop
         style="stop-color:#667885;stop-opacity:1"
         offset="1"
         id="stop962" />
    </linearGradient>
    <linearGradient
       inkscape:collect="always"
       xlink:href="#linearGradient5662"
       id="linearGradient5652"
       x1="3.039969"
       y1="5.3313737"
       x2="5.0378942"
       y2="11.163724"
       gradientUnits="userSpaceOnUse"
       gradientTransform="matrix(1.3999998,0,0,1.2494454,1.6000011,2.0000251)" />
  </defs>
  <path
     style="color:#000000;font-variation-settings:normal;opacity:1;vector-effect:none;fill:url(#linearGradient966);fill-opacity:1;stroke:none;stroke-width:0.999996;stroke-linecap:butt;stroke-linejoin:round;stroke-miterlimit:4;stroke-dasharray:none;stroke-dashoffset:0;stroke-opacity:1;-inkscape-stroke:none;paint-order:markers fill stroke;stop-color:#000000;stop-opacity:1"
     d="M 9.8984375,4.0821735 C 9.5331724,3.9242245 9.1090152,3.9978535 8.8183594,4.2696645 L 5.3554687,7.4999785 H 3.5 c -0.5522619,5.5e-5 -0.9999448,0.447716 -1,0.999952 v 6.9996625 c 5.52e-5,0.552236 0.4477381,0.999897 1,0.999952 h 1.8554687 l 3.4628907,3.230314 C 9.4574249,20.324912 10.498737,19.87261 10.5,18.999425 V 5.0000985 c 2.82e-4,-0.398495 -0.236058,-0.759126 -0.6015625,-0.917925 z"
     id="path1125"
     sodipodi:nodetypes="cccccccccccc" />
  <path
     style="color:#000000;font-variation-settings:normal;opacity:1;vector-effect:none;fill:none;fill-opacity:1;stroke:#0e141f;stroke-width:0.999994;stroke-linecap:butt;stroke-linejoin:round;stroke-miterlimit:4;stroke-dasharray:none;stroke-dashoffset:0;stroke-opacity:0.5;-inkscape-stroke:none;paint-order:stroke fill markers;stop-color:#000000;stop-opacity:1"
     d="M 9.8984375,4.0817515 C 9.5331724,3.9237625 9.1090152,3.9974105 8.8183594,4.2692885 L 5.3554687,7.5003975 H 3.5 c -0.5522619,5.5e-5 -0.9999448,0.447827 -1,1.000198 v 6.9993055 c 5.52e-5,0.552372 0.4477381,1.000143 1,1.000198 h 1.8554687 l 3.4628907,3.233192 C 9.4574249,20.328491 10.498737,19.876077 10.5,19.002677 V 4.9999015 c 2.82e-4,-0.398593 -0.236058,-0.759312 -0.6015625,-0.91815 z"
     id="path1779"
     sodipodi:nodetypes="cccccccccccc" />
  <path
     id="path2241"
     style="color:#000000;fill:url(#linearGradient5652);fill-opacity:1;stroke-linejoin:round;-inkscape-stroke:none;paint-order:markers fill stroke;font-variation-settings:normal;opacity:0.5;vector-effect:none;stroke-width:0.999998;stroke-linecap:butt;stroke-miterlimit:4;stroke-dasharray:none;stroke-dashoffset:0;stroke-opacity:1;stop-color:#000000;stop-opacity:1"
     d="M 9.4863281,4.5 C 9.3673854,4.5032791 9.2516103,4.54922 9.1601562,4.6347656 L 5.6972656,7.8652344 C 5.6045619,7.9519006 5.4823742,8.0000774 5.3554688,8 H 3.5 C 3.2179756,8.0000281 3.0000282,8.2177593 3,8.5 v 7 c 2.82e-5,0.282242 0.217975,0.499972 0.5,0.5 h 1.8554688 c 0.1269055,-7.7e-5 0.2490932,0.0481 0.3417968,0.134766 l 3.4609375,3.232422 h 0.00195 c 0.1736859,0.160569 0.3641877,0.169729 0.5390626,0.09375 C 9.8747085,19.384694 9.9996557,19.240071 10,19.001953 V 5 C 10.000142,4.7992647 9.8831999,4.6209686 9.6992188,4.5410156 9.6302737,4.5111946 9.5576938,4.4980326 9.4863281,4.5 Z M 9,6.1503906 V 17.851562 L 6.3789062,15.404297 C 6.1012875,15.14476 5.7355105,15.000264 5.3554688,15 H 4 V 9 H 5.3554688 C 5.7352446,9.0002663 6.1009872,8.8564819 6.3789062,8.5976562 Z"
     sodipodi:nodetypes="scccccccccccscccsccccccccc" />
  <path
     style="color:#000000;fill:#95a3ab;stroke-linecap:round;stroke-linejoin:round;-inkscape-stroke:none;paint-order:markers fill stroke;fill-opacity:0.30000001"
     d="m 17.955078,3.2949219 a 0.75,0.75 0 0 0 -0.53125,0.2207031 0.75,0.75 0 0 0 0,1.0605469 C 19.393162,6.5455057 20.5,9.2149413 20.5,12 c 0,2.785058 -1.106838,5.454494 -3.076172,7.423828 a 0.75,0.75 0 0 0 0,1.060547 0.75,0.75 0 0 0 1.060547,0 C 20.734606,18.234144 22,15.182307 22,12 22,8.8176933 20.734606,5.7658556 18.484375,3.515625 A 0.75,0.75 0 0 0 17.955078,3.2949219 Z"
     id="circle4163" />
  <path
     style="color:#000000;fill:#33a4ff;stroke-linecap:round;stroke-linejoin:round;-inkscape-stroke:none;paint-order:markers fill stroke;fill-opacity:1;font-variation-settings:normal;opacity:1;vector-effect:none;stroke-width:1;stroke-miterlimit:4;stroke-dasharray:none;stroke-dashoffset:0;stroke-opacity:1;stop-color:#000000;stop-opacity:1"
     d="m 15.052734,5.6367187 a 0.75,0.75 0 0 0 0,1.0605469 C 16.45946,8.1039908 17.25,10.01059 17.25,12 c 0,1.98941 -0.79054,3.896009 -2.197266,5.302734 a 0.75,0.75 0 0 0 0,1.060547 0.75,0.75 0 0 0 1.0625,0 C 17.802856,16.675659 18.75,14.386658 18.75,12 18.75,9.613342 17.802857,7.3243407 16.115234,5.6367187 a 0.75,0.75 0 0 0 -1.0625,0 z"
     id="circle4167" />
  <path
     style="color:#000000;fill:#33a4ff;stroke-linecap:round;stroke-linejoin:round;-inkscape-stroke:none;paint-order:markers fill stroke"
     d="m 13.212891,7.5371094 a 0.75,0.75 0 0 0 -0.53125,0.2207031 0.75,0.75 0 0 0 0,1.0605469 C 13.525757,9.662476 14,10.806239 14,12 c 0,1.193761 -0.474243,2.337524 -1.318359,3.181641 a 0.75,0.75 0 0 0 0,1.060546 0.75,0.75 0 0 0 1.060547,0 C 14.867201,15.117174 15.5,13.591009 15.5,12 15.5,10.408991 14.867201,8.8828259 13.742188,7.7578125 A 0.75,0.75 0 0 0 13.212891,7.5371094 Z"
     id="circle4171" />
</svg>
