<?xml version="1.0" encoding="UTF-8" standalone="no"?>
<svg
   height="24"
   width="24"
   version="1.1"
   id="svg6"
   sodipodi:docname="media-playlist-shuffle-symbolic.svg"
   inkscape:version="1.1.2 (0a00cf5339, 2022-02-04)"
   xmlns:inkscape="http://www.inkscape.org/namespaces/inkscape"
   xmlns:sodipodi="http://sodipodi.sourceforge.net/DTD/sodipodi-0.dtd"
   xmlns="http://www.w3.org/2000/svg"
   xmlns:svg="http://www.w3.org/2000/svg">
  <sodipodi:namedview
     id="namedview5"
     pagecolor="#ffffff"
     bordercolor="#666666"
     borderopacity="1.0"
     inkscape:pageshadow="2"
     inkscape:pageopacity="0.0"
     inkscape:pagecheckerboard="0"
     showgrid="false"
     inkscape:zoom="32"
     inkscape:cx="10.109375"
     inkscape:cy="10.15625"
     inkscape:window-width="1317"
     inkscape:window-height="893"
     inkscape:window-x="386"
     inkscape:window-y="48"
     inkscape:window-maximized="0"
     inkscape:current-layer="svg6" />
  <defs
     id="defs10" />
  <path
     id="rect955-6-7-2-1"
     style="font-variation-settings:normal;vector-effect:none;fill:#666666;fill-opacity:1;stroke:none;stroke-width:4;stroke-linecap:round;stroke-linejoin:round;stroke-miterlimit:4;stroke-dasharray:none;stroke-dashoffset:0;stroke-opacity:1;-inkscape-stroke:none;stop-color:#000000"
     d="M 16.99975,5.999922 C 11.004622,6.003462 10.999114,16 7,16 H 3.5133047 c -0.28748,-2.41e-4 -0.5136719,0.313878 -0.5136719,0.558594 v 0.882812 C 2.9996328,17.686122 3.2648892,18 3.5523672,18 H 7 c 5.998007,0 6.00506,-9.9947678 9.99975,-10.0000779 z m -13.4473828,8.6e-5 c -0.287478,0 -0.5527344,0.3138777 -0.5527344,0.5585938 v 0.8828124 c 0,0.2447161 0.2261919,0.5588348 0.5136719,0.5585939 H 7 c 0.92276,0 1.9446713,0.57773 2.964691,2.3444569 0.259371,-0.66371 0.688612,-1.3811887 1.143671,-2.0487728 C 10.474563,7.6618928 9.2017074,6.000008 7,6.000008 Z M 16.99968,15.999922 c -1.521391,-0.002 -2.79355,-1.515736 -3.248954,-2.170075 -0.25937,0.66371 -0.626653,1.131411 -1.081712,1.798995 0.700424,0.635666 2.972079,2.370277 4.330666,2.37108 z"
     sodipodi:nodetypes="cscssssccssscsccssccccc" />
  <path
     style="font-variation-settings:normal;vector-effect:none;fill:#666666;fill-opacity:1;stroke:none;stroke-width:4.00001;stroke-linecap:round;stroke-linejoin:round;stroke-miterlimit:4;stroke-dasharray:none;stroke-dashoffset:0;stroke-opacity:1;-inkscape-stroke:none;stop-color:#000000"
     d="m 17.648781,3.5 c -0.359,0 -0.649325,0.2353914 -0.64878,0.5263674 V 9.973633 c 0,0.290977 0.28978,0.526367 0.64878,0.526367 0.193484,0 0.366824,-0.06716 0.485366,-0.175456 L 21.821951,7.3531898 C 21.931519,7.2591248 22,7.1327388 22,6.9931646 22,6.8535893 21.93152,6.7272066 21.821951,6.6331383 L 18.134147,3.6754562 C 18.015609,3.5671697 17.842265,3.5 17.648781,3.5 Z"
     id="path1107"
     sodipodi:nodetypes="sccsccsccs" />
  <path
     style="font-variation-settings:normal;vector-effect:none;fill:#666666;fill-opacity:1;stroke:none;stroke-width:4.00001;stroke-linecap:round;stroke-linejoin:round;stroke-miterlimit:4;stroke-dasharray:none;stroke-dashoffset:0;stroke-opacity:1;-inkscape-stroke:none;stop-color:#000000"
     d="m 17.648781,13.5 c -0.359,0 -0.649325,0.235392 -0.64878,0.526368 v 5.947265 c 0,0.290977 0.28978,0.526367 0.64878,0.526367 0.193484,0 0.366824,-0.06716 0.485366,-0.175456 L 21.821951,17.35319 C 21.931519,17.259125 22,17.132739 22,16.993165 22,16.85359 21.93152,16.727207 21.821951,16.633139 L 18.134147,13.675457 C 18.015609,13.56717 17.842265,13.5 17.648781,13.5 Z"
     id="path3147"
     sodipodi:nodetypes="sccsccsccs" />
</svg>
