<?xml version="1.0" encoding="UTF-8" standalone="no"?>
<svg
   height="24"
   viewBox="0 0 24 24"
   width="24"
   version="1.1"
   id="svg18"
   sodipodi:docname="network-wired.svg"
   inkscape:version="1.2.2 (b0a8486541, 2022-12-01)"
   xmlns:inkscape="http://www.inkscape.org/namespaces/inkscape"
   xmlns:sodipodi="http://sodipodi.sourceforge.net/DTD/sodipodi-0.dtd"
   xmlns="http://www.w3.org/2000/svg"
   xmlns:svg="http://www.w3.org/2000/svg">
  <defs
     id="defs22" />
  <sodipodi:namedview
     id="namedview20"
     pagecolor="#ffffff"
     bordercolor="#666666"
     borderopacity="1.0"
     inkscape:pageshadow="2"
     inkscape:pageopacity="0.0"
     inkscape:pagecheckerboard="0"
     showgrid="false"
     inkscape:zoom="21.3125"
     inkscape:cx="-2.1583578"
     inkscape:cy="6.2404692"
     inkscape:window-width="1317"
     inkscape:window-height="893"
     inkscape:window-x="599"
     inkscape:window-y="122"
     inkscape:window-maximized="0"
     inkscape:current-layer="svg18"
     inkscape:showpageshadow="2"
     inkscape:deskcolor="#d1d1d1" />
  <path
     d="m 4,11 h 16 v 2 H 4 Z m 0,0"
     id="path2"
     style="fill:#33a4ff;fill-opacity:1" />
  <path
     d="m 11,7.5 h 2 V 13 h -2 z m 0,0"
     id="path4"
     style="fill:#33a4ff;fill-opacity:1" />
  <path
     d="m 16,11 h 2 v 6 h -2 z m 0,0"
     id="path6"
     style="fill:#33a4ff;fill-opacity:1" />
  <path
     d="m 6,11 h 2 v 6 H 6 Z m 0,0"
     id="path8"
     style="fill:#33a4ff;fill-opacity:1" />
  <path
     d="m 5,15 h 4 c 0.550781,0 1,0.449219 1,1 v 3 c 0,0.550781 -0.449219,1 -1,1 H 5 C 4.449219,20 4,19.550781 4,19 v -3 c 0,-0.550781 0.449219,-1 1,-1 z m 0,0"
     id="path10"
     style="fill:#33a4ff;fill-opacity:1" />
  <path
     d="m 15,15 h 4 c 0.550781,0 1,0.449219 1,1 v 3 c 0,0.550781 -0.449219,1 -1,1 h -4 c -0.550781,0 -1,-0.449219 -1,-1 v -3 c 0,-0.550781 0.449219,-1 1,-1 z m 0,0"
     id="path12"
     style="fill:#33a4ff;fill-opacity:1" />
  <path
     d="m 10,4 h 4 c 0.550781,0 1,0.449219 1,1 v 3 c 0,0.550781 -0.449219,1 -1,1 H 10 C 9.449219,9 9,8.550781 9,8 V 5 C 9,4.449219 9.449219,4 10,4 Z m 0,0"
     id="path14"
     style="fill:#33a4ff;fill-opacity:1" />
</svg>
