<?xml version="1.0" encoding="UTF-8" standalone="no"?>
<svg
   height="24"
   viewBox="0 0 24 24"
   width="24"
   version="1.1"
   id="svg8"
   sodipodi:docname="nm-no-connection.svg"
   inkscape:version="1.2.2 (b0a8486541, 2022-12-01)"
   xmlns:inkscape="http://www.inkscape.org/namespaces/inkscape"
   xmlns:sodipodi="http://sodipodi.sourceforge.net/DTD/sodipodi-0.dtd"
   xmlns="http://www.w3.org/2000/svg"
   xmlns:svg="http://www.w3.org/2000/svg">
  <defs
     id="defs12" />
  <sodipodi:namedview
     id="namedview10"
     pagecolor="#ffffff"
     bordercolor="#666666"
     borderopacity="1.0"
     inkscape:pageshadow="2"
     inkscape:pageopacity="0.0"
     inkscape:pagecheckerboard="0"
     showgrid="false"
     inkscape:zoom="15.070213"
     inkscape:cx="4.7444584"
     inkscape:cy="14.465621"
     inkscape:window-width="1844"
     inkscape:window-height="1005"
     inkscape:window-x="0"
     inkscape:window-y="10"
     inkscape:window-maximized="0"
     inkscape:current-layer="svg8"
     inkscape:showpageshadow="2"
     inkscape:deskcolor="#d1d1d1" />
  <path
     d="m 19,14 c 0.265625,0 0.519531,0.105469 0.707031,0.292969 0.390625,0.390625 0.390625,1.023437 0,1.414062 L 18.414062,17 l 1.292969,1.292969 c 0.390625,0.390625 0.390625,1.023437 0,1.414062 -0.390625,0.390625 -1.023437,0.390625 -1.414062,0 L 17,18.414062 15.707031,19.707031 c -0.390625,0.390625 -1.023437,0.390625 -1.414062,0 -0.390625,-0.390625 -0.390625,-1.023437 0,-1.414062 L 15.585938,17 14.292969,15.707031 c -0.390625,-0.390625 -0.390625,-1.023437 0,-1.414062 C 14.480469,14.105469 14.734375,14 15,14 c 0.265625,0 0.519531,0.105469 0.707031,0.292969 L 17,15.585938 18.292969,14.292969 C 18.480469,14.105469 18.734375,14 19,14 Z m 0,0"
     id="path2"
     style="fill:#ed5353;fill-opacity:1" />
  <path
     d="M 10,4 C 9.445312,4 9,4.445312 9,5 v 3 c 0,0.554688 0.445312,1 1,1 h 1 v 2 H 4 v 2 h 2 v 2 H 5 c -0.554688,0 -1,0.445312 -1,1 v 3 c 0,0.554688 0.445312,1 1,1 h 4 c 0.554688,0 1,-0.445312 1,-1 V 16 C 10,15.445312 9.554688,15 9,15 H 8 V 13 H 20 V 11 H 13 V 9 h 1 c 0.554688,0 1,-0.445312 1,-1 V 5 C 15,4.445312 14.554688,4 14,4 Z m 0,0"
     fill-opacity="0.34902"
     id="path4"
     style="fill:#33a4ff;fill-opacity:0.6" />
</svg>
