<?xml version="1.0" encoding="UTF-8" standalone="no"?>
<svg
   version="1.0"
   width="16"
   height="16"
   id="svg2485"
   viewBox="0 0 16 16"
   sodipodi:docname="battery-good-charging.svg"
   inkscape:version="1.2.2 (b0a8486541, 2022-12-01)"
   xmlns:inkscape="http://www.inkscape.org/namespaces/inkscape"
   xmlns:sodipodi="http://sodipodi.sourceforge.net/DTD/sodipodi-0.dtd"
   xmlns:xlink="http://www.w3.org/1999/xlink"
   xmlns="http://www.w3.org/2000/svg"
   xmlns:svg="http://www.w3.org/2000/svg"
   xmlns:rdf="http://www.w3.org/1999/02/22-rdf-syntax-ns#"
   xmlns:cc="http://creativecommons.org/ns#"
   xmlns:dc="http://purl.org/dc/elements/1.1/">
  <sodipodi:namedview
     id="namedview63"
     pagecolor="#ffffff"
     bordercolor="#000000"
     borderopacity="0.25"
     inkscape:showpageshadow="2"
     inkscape:pageopacity="0.0"
     inkscape:pagecheckerboard="0"
     inkscape:deskcolor="#d1d1d1"
     showgrid="false"
     inkscape:zoom="45.254834"
     inkscape:cx="5.4800776"
     inkscape:cy="10.595553"
     inkscape:window-width="1427"
     inkscape:window-height="1052"
     inkscape:window-x="409"
     inkscape:window-y="507"
     inkscape:window-maximized="0"
     inkscape:current-layer="svg2485" />
  <metadata
     id="metadata71">
    <rdf:RDF>
      <cc:Work
         rdf:about="">
        <dc:format>image/svg+xml</dc:format>
        <dc:type
           rdf:resource="http://purl.org/dc/dcmitype/StillImage" />
      </cc:Work>
    </rdf:RDF>
  </metadata>
  <defs
     id="defs2487">
    <linearGradient
       inkscape:collect="always"
       id="linearGradient4592">
      <stop
         style="stop-color:#0e141f;stop-opacity:0.2;"
         offset="0"
         id="stop4588" />
      <stop
         style="stop-color:#0e141f;stop-opacity:0;"
         offset="1"
         id="stop4590" />
    </linearGradient>
    <linearGradient
       id="linearGradient4762">
      <stop
         id="stop4764"
         style="stop-color:#ffffff;stop-opacity:1"
         offset="0" />
      <stop
         id="stop4766"
         style="stop-color:#ffffff;stop-opacity:0.23529412"
         offset="0.05034721" />
      <stop
         id="stop4768"
         style="stop-color:#ffffff;stop-opacity:0.15686275"
         offset="0.94965279" />
      <stop
         id="stop4770"
         style="stop-color:#ffffff;stop-opacity:0.39215687"
         offset="1" />
    </linearGradient>
    <linearGradient
       id="linearGradient3254-3-182-8-5">
      <stop
         id="stop4663-8-7"
         style="stop-color:#ffffff;stop-opacity:1"
         offset="0" />
      <stop
         id="stop4665-7-6"
         style="stop-color:#ffffff;stop-opacity:0"
         offset="1" />
    </linearGradient>
    <linearGradient
       x1="30"
       y1="7"
       x2="30"
       y2="41.940895"
       id="linearGradient4760"
       xlink:href="#linearGradient4762"
       gradientUnits="userSpaceOnUse"
       gradientTransform="matrix(0.19999999,0,0,0.2972973,3.2000001,0.57472552)" />
    <linearGradient
       x1="-20.446733"
       y1="-93.091553"
       x2="-48.479328"
       y2="-93.091553"
       id="linearGradient3457-7-6"
       xlink:href="#linearGradient2793-2-0-669-94-2"
       gradientUnits="userSpaceOnUse"
       gradientTransform="matrix(0.06370135,0,0,0.07556936,9.6596275,8.262142)"
       spreadMethod="reflect" />
    <linearGradient
       id="linearGradient2793-2-0-669-94-2">
      <stop
         id="stop4681-3-1"
         style="stop-color:#b4b4b4;stop-opacity:1"
         offset="0" />
      <stop
         id="stop4683-67-4"
         style="stop-color:#ffffff;stop-opacity:1"
         offset="1" />
    </linearGradient>
    <linearGradient
       id="linearGradient3820-7-2-1-2-6">
      <stop
         id="stop3822-2-6-3-3-7"
         style="stop-color:#3d3d3d;stop-opacity:1"
         offset="0" />
      <stop
         id="stop3864-8-7-7-9-1"
         style="stop-color:#686868;stop-opacity:0.49803922"
         offset="0.5" />
      <stop
         id="stop3824-1-2-5-0-3"
         style="stop-color:#686868;stop-opacity:0"
         offset="1" />
    </linearGradient>
    <radialGradient
       cx="99.157013"
       cy="186.17059"
       r="62.769119"
       fx="99.157013"
       fy="186.17059"
       id="radialGradient5362"
       xlink:href="#linearGradient3820-7-2-1-2-6"
       gradientUnits="userSpaceOnUse"
       gradientTransform="matrix(0.07965699,0,0,0.01991426,0.1014499,10.542677)" />
    <linearGradient
       x1="13.681819"
       y1="17.458462"
       x2="17.77273"
       y2="35.717499"
       id="linearGradient5508"
       xlink:href="#linearGradient3254-3-182-8-5"
       gradientUnits="userSpaceOnUse"
       gradientTransform="matrix(0.2444443,0,0,0.6434508,3.6555575,-9.1080584)" />
    <linearGradient
       x1="25.272734"
       y1="17.458462"
       x2="27.31819"
       y2="35.717499"
       id="linearGradient5510"
       xlink:href="#linearGradient3254-3-182-8-5"
       gradientUnits="userSpaceOnUse"
       gradientTransform="matrix(0.4888886,0,0,0.65291336,-3.355552,-9.3596476)" />
    <linearGradient
       gradientUnits="userSpaceOnUse"
       y2="33.5"
       x2="43.473835"
       y1="33.5"
       x1="28.593813"
       id="linearGradient901"
       xlink:href="#linearGradient899"
       gradientTransform="matrix(0.5,0,0,0.5,-10,-6.25)" />
    <linearGradient
       id="linearGradient899">
      <stop
         id="stop895"
         offset="0"
         style="stop-color:#64baff;stop-opacity:1" />
      <stop
         id="stop897"
         offset="1"
         style="stop-color:#3689e6;stop-opacity:1" />
    </linearGradient>
    <linearGradient
       inkscape:collect="always"
       xlink:href="#linearGradient4592"
       id="linearGradient4594"
       x1="7.9514265"
       y1="1.7569213"
       x2="7.9514265"
       y2="3"
       gradientUnits="userSpaceOnUse" />
    <linearGradient
       inkscape:collect="always"
       xlink:href="#linearGradient2793-2-0-669-94-2"
       id="linearGradient5525"
       gradientUnits="userSpaceOnUse"
       gradientTransform="matrix(0.04246757,0,0,0.07556936,9.1064183,8.762142)"
       x1="-20.446733"
       y1="-93.091553"
       x2="-48.479328"
       y2="-93.091553"
       spreadMethod="reflect" />
    <linearGradient
       inkscape:collect="always"
       xlink:href="#linearGradient2793-2-0-669-94-2"
       id="linearGradient13863"
       gradientUnits="userSpaceOnUse"
       gradientTransform="matrix(0.12740271,0,0,0.07556936,11.319255,9.762142)"
       x1="-20.446733"
       y1="-93.091553"
       x2="-48.479328"
       y2="-93.091553"
       spreadMethod="reflect" />
  </defs>
  <rect
     width="6"
     height="7"
     x="-11"
     y="2"
     id="rect3268-4"
     style="color:#000000;font-variation-settings:normal;display:block;overflow:visible;visibility:visible;opacity:1;vector-effect:none;fill:#fafafa;fill-opacity:0.30000001;stroke:none;stroke-width:0.999997;stroke-linecap:butt;stroke-linejoin:miter;stroke-miterlimit:4;stroke-dasharray:none;stroke-dashoffset:0;stroke-opacity:1;marker:none;enable-background:accumulate;stop-color:#000000;stop-opacity:1"
     transform="scale(-1,1)"
     ry="0.27500001"
     rx="3" />
  <path
     d="m 13,14.250125 a 5,1.25 0 0 1 -9.9999999,0 5,1.25 0 1 1 9.9999999,0 z"
     id="path3818-0-5"
     style="fill:url(#radialGradient5362);fill-opacity:1;stroke:none;stroke-width:1" />
  <path
     style="color:#000000;font-variation-settings:normal;display:inline;overflow:visible;visibility:visible;opacity:1;vector-effect:none;fill:url(#linearGradient901);fill-opacity:1;fill-rule:nonzero;stroke:none;stroke-width:1;stroke-linecap:butt;stroke-linejoin:miter;stroke-miterlimit:4;stroke-dasharray:none;stroke-dashoffset:0;stroke-opacity:1;marker:none;enable-background:accumulate;stop-color:#000000;stop-opacity:1"
     id="rect3268-0-1-2"
     d="m 4.5,6 v 8 c 0,0.277 1.4225,0.5 3.5,0.5 2.0775,0 3.5,-0.223 3.5,-0.5 V 6 Z"
     sodipodi:nodetypes="cssscc" />
  <path
     style="color:#000000;display:block;overflow:visible;visibility:visible;opacity:0.2;fill:none;stroke:#ffffff;stroke-width:0.999997;stroke-linecap:butt;stroke-linejoin:miter;stroke-miterlimit:7;stroke-dasharray:none;stroke-dashoffset:0;stroke-opacity:1;marker:none;enable-background:accumulate"
     id="path3077-3"
     d="m 5,6.4999985 h 6" />
  <path
     d="M 7.9999995,1.5 C 6.0609995,1.5 4.5,1.6438571 4.5,2 V 3 C 4.5,2.6438571 6.0609995,2.3571428 7.9999995,2.3571428 9.939,2.3571428 11.5,2.6438571 11.5,3 V 2 C 11.5,1.6438571 9.939,1.5 7.9999995,1.5 Z"
     id="rect3268-6-4"
     style="color:#000000;display:inline;overflow:visible;visibility:visible;fill:url(#linearGradient4594);fill-opacity:1;fill-rule:nonzero;stroke:none;stroke-width:1;marker:none;enable-background:accumulate"
     sodipodi:nodetypes="sscscss" />
  <path
     d="M 9.5,1.5 V 0.90909089 c 0,-0.22732 -0.8075,-0.4090909 -1.5,-0.4090909 -0.6925,0 -1.5,0.1817709 -1.5,0.4090909 V 1.5"
     id="rect3268-3-9"
     style="color:#000000;display:inline;overflow:visible;visibility:visible;fill:url(#linearGradient3457-7-6);fill-opacity:1;fill-rule:nonzero;stroke:none;stroke-width:1;marker:none;enable-background:accumulate"
     sodipodi:nodetypes="csssc" />
  <path
     d="M 8.500004,1.5 V 0.75 C 8.500004,0.63634 8.1846695,0.49999949 8.0000019,0.49999949 7.8153346,0.49999949 7.5,0.6363396 7.5,0.75 V 1.5"
     id="rect3268-3"
     style="color:#000000;display:block;overflow:visible;visibility:visible;opacity:0.3;fill:none;stroke:#000000;stroke-width:0.999999;stroke-linecap:butt;stroke-linejoin:miter;stroke-miterlimit:7;stroke-dasharray:none;stroke-dashoffset:0;stroke-opacity:1;marker:none;enable-background:accumulate"
     sodipodi:nodetypes="csssc" />
  <path
     id="rect3268"
     style="color:#000000;display:block;overflow:visible;visibility:visible;opacity:0.3;fill:none;stroke:#000000;stroke-width:1;stroke-linecap:butt;stroke-linejoin:miter;stroke-miterlimit:7;stroke-dasharray:none;stroke-dashoffset:0;stroke-opacity:1;marker:none;enable-background:accumulate"
     d="M 11.5,3 V 2 C 11.5,1.7784 9.9390001,1.5 8,1.5 6.061,1.5 4.5,1.7784 4.5,2 v 1"
     sodipodi:nodetypes="csssc" />
  <path
     d="M 8,2 C 7.4645527,2.0374585 7.248789,2.1114309 7,2.2222219 V 13.777777 C 7.248789,13.888569 7.4645527,13.962541 8,14 Z"
     id="path5194"
     style="display:inline;overflow:visible;visibility:visible;opacity:0.3;fill:url(#linearGradient5508);fill-opacity:1;fill-rule:nonzero;stroke:none;stroke-width:0.999997;marker:none" />
  <path
     d="m 9,2 v 12 c 0.378891,-0.0388 0.768096,-0.08486 1,-0.137255 V 2.1372546 C 9.768096,2.0848597 9.378891,2.0387934 9,2 Z"
     id="rect3244"
     style="display:inline;overflow:visible;visibility:visible;opacity:0.1;fill:url(#linearGradient5510);fill-opacity:1;fill-rule:nonzero;stroke:none;stroke-width:0.999997;marker:none" />
  <g
     transform="scale(0.66666667)"
     style="opacity:0.4;stroke-width:1.5"
     id="g5672" />
  <path
     id="rect928"
     style="color:#000000;display:block;overflow:visible;visibility:visible;opacity:0.5;fill:none;stroke:#0d52bf;stroke-width:1;stroke-linecap:butt;stroke-linejoin:miter;stroke-miterlimit:7;stroke-dasharray:none;stroke-dashoffset:0;stroke-opacity:1;marker:none;enable-background:accumulate"
     d="m 4.5,3 v 11 c 0,0.271107 1.561,0.5 3.5,0.5 1.9390001,0 3.5,-0.228893 3.5,-0.5 V 3"
     sodipodi:nodetypes="csssc" />
  <path
     style="color:#000000;display:inline;overflow:visible;visibility:visible;opacity:0.5;fill:none;fill-opacity:0;fill-rule:nonzero;stroke:#0d52bf;stroke-width:1;stroke-linecap:butt;stroke-linejoin:round;stroke-miterlimit:4;stroke-dasharray:none;stroke-dashoffset:0;stroke-opacity:1;marker:none;enable-background:accumulate"
     id="path3077"
     d="m 4.5,5.5 h 7" />
  <path
     d="m 8,2.5 c -0.8234436,0 -1.7072925,0.00716 -2.5,0.1320115 V 13.332158 c 0.5,0.07998 1.4939585,0.175 2.5,0.175 1.0060415,0 2.051254,-0.09649 2.5,-0.175 V 2.627499 C 10,2.5395199 8.8234436,2.5 8,2.5 Z"
     id="path4752"
     style="color:#000000;display:block;overflow:visible;visibility:visible;opacity:0.8;fill:none;stroke:url(#linearGradient4760);stroke-width:0.999995;stroke-linecap:butt;stroke-linejoin:miter;stroke-miterlimit:7;stroke-dasharray:none;stroke-dashoffset:0;stroke-opacity:1;marker:none;enable-background:accumulate"
     sodipodi:nodetypes="zcczccz" />
  <path
     d="M 9,2 V 1.4090909 C 9,1.1817709 8.4616666,1 8,1 7.5383333,1 7,1.1817709 7,1.4090909 V 2"
     id="path5523"
     style="color:#000000;display:inline;overflow:visible;visibility:visible;fill:url(#linearGradient5525);fill-opacity:1;fill-rule:nonzero;stroke:none;stroke-width:0.999996;marker:none;enable-background:accumulate"
     sodipodi:nodetypes="csssc" />
  <path
     d="M 11,3 V 2.4090909 C 11,2.1817709 9.3849998,2 8,2 6.6149999,2 5,2.1817709 5,2.4090909 V 3"
     id="path13861"
     style="color:#000000;display:inline;overflow:visible;visibility:visible;fill:url(#linearGradient13863);fill-opacity:1;fill-rule:nonzero;stroke:none;stroke-width:0.999996;marker:none;enable-background:accumulate"
     sodipodi:nodetypes="csssc" />
  <path
     id="path54-3"
     style="font-variation-settings:normal;opacity:0.4;vector-effect:none;fill:#ffffff;fill-opacity:1;stroke:none;stroke-width:1;stroke-linecap:butt;stroke-linejoin:miter;stroke-miterlimit:4;stroke-dasharray:none;stroke-dashoffset:0;stroke-opacity:1;marker:none;stop-color:#000000"
     d="m 8.1666705,4.8339921 c -0.099479,0 -0.188924,0.043525 -0.249999,0.1126305 L 5.046875,8.9974736 C 5.01727,9.0472636 5,9.1052536 5,9.1673956 c 0,0.184095 0.149238,0.333333 0.3333335,0.333333 h 2.666669 l -0.472006,2.1999384 c -0.01785,0.04083 -0.028,0.08604 -0.028,0.133463 0,0.184096 0.1492385,0.333334 0.3333335,0.333334 0.09948,0 0.188926,-0.04352 0.25,-0.11263 l 2.869795,-4.0508516 c 0.02961,-0.049794 0.04687,-0.1077815 0.04687,-0.1699215 0,-0.184096 -0.149238,-0.333335 -0.333334,-0.333335 H 7.999999 L 8.472005,5.3007891 c 0.01785,-0.040835 0.028,-0.086043 0.028,-0.1334635 0,-0.184095 -0.149239,-0.3333335 -0.3333345,-0.3333335 z" />
  <path
     id="path10824"
     style="color:#000000;fill:#0e141f;fill-opacity:0.8;stroke-linejoin:round;-inkscape-stroke:none;paint-order:fill markers stroke"
     d="m 8.4785156,4.0004994 c -0.1645254,0.00711 -0.3150038,0.094765 -0.4023437,0.234375 l -2.3535157,3.765625 h 4.5546878 l 0.146484,-0.234375 C 10.632606,7.4330413 10.393106,7.0003971 9.9999998,7.0004994 H 8.1933594 l 0.78125,-2.3417969 C 9.0858925,4.3260274 8.8289743,3.9851555 8.4785156,4.0004994 Z"
     sodipodi:nodetypes="ccccccccc" />
  <path
     id="path10830"
     style="color:#000000;fill:#0e141f;fill-opacity:0.8;stroke-linejoin:round;-inkscape-stroke:none;paint-order:fill markers stroke"
     d="M 5.7226562,8.0004994 5.5761719,8.2348744 C 5.3673945,8.5679576 5.606894,9.0006016 6,9.0004996 h 1.8066406 l -0.78125,2.3417974 c -0.1894663,0.562553 0.5847838,0.927797 0.8984375,0.423828 L 10.277344,8.0004994 Z"
     sodipodi:nodetypes="cccccccc" />
</svg>
