<?xml version="1.0" encoding="UTF-8" standalone="no"?>
<svg
   height="16"
   width="16"
   version="1.1"
   id="svg16296"
   sodipodi:docname="mail-attachment.svg"
   inkscape:version="1.2.2 (b0a8486541, 2022-12-01)"
   xmlns:inkscape="http://www.inkscape.org/namespaces/inkscape"
   xmlns:sodipodi="http://sodipodi.sourceforge.net/DTD/sodipodi-0.dtd"
   xmlns="http://www.w3.org/2000/svg"
   xmlns:svg="http://www.w3.org/2000/svg">
  <defs
     id="defs16300" />
  <sodipodi:namedview
     id="namedview16298"
     pagecolor="#ffffff"
     bordercolor="#000000"
     borderopacity="0.25"
     inkscape:showpageshadow="2"
     inkscape:pageopacity="0.0"
     inkscape:pagecheckerboard="0"
     inkscape:deskcolor="#d1d1d1"
     showgrid="false"
     inkscape:zoom="50.25"
     inkscape:cx="5.3930348"
     inkscape:cy="8"
     inkscape:window-width="1920"
     inkscape:window-height="1029"
     inkscape:window-x="0"
     inkscape:window-y="0"
     inkscape:window-maximized="1"
     inkscape:current-layer="svg16296" />
  <g
     transform="translate(-733 111)"
     id="g16294"
     style="fill:#de3e80">
    <path
       color="#000"
       d="M734.99-101.94a3.492 3.492 0 0 0 0 4.95 3.492 3.492 0 0 0 4.95 0l.353-.353-.707-.707-.354.353c-.979.98-2.556.98-3.535 0a2.495 2.495 0 0 1 0-3.535l7.07-7.071c.98-.98 2.557-.98 3.536 0 .98.979.98 2.556 0 3.535l-.712.713-2.47 2.47-.207.206-.853.854a1.497 1.497 0 0 1-2.122 0 1.497 1.497 0 0 1 0-2.121l1.061-1.061.707-.707-.707-.707-1.768 1.767c-.979.98-.979 2.557 0 3.536.98.98 2.557.98 3.536 0l.853-.854 1.268-1.267 2.122-2.122a3.492 3.492 0 0 0 0-4.95 3.492 3.492 0 0 0-4.95 0z"
       fill="#666"
       overflow="visible"
       style="isolation:auto;mix-blend-mode:normal;marker:none;fill:#de3e80"
       id="path16292" />
  </g>
</svg>
