<?xml version="1.0" encoding="UTF-8" standalone="no"?>
<svg
   xmlns:dc="http://purl.org/dc/elements/1.1/"
   xmlns:cc="http://creativecommons.org/ns#"
   xmlns:rdf="http://www.w3.org/1999/02/22-rdf-syntax-ns#"
   xmlns:svg="http://www.w3.org/2000/svg"
   xmlns="http://www.w3.org/2000/svg"
   xmlns:xlink="http://www.w3.org/1999/xlink"
   version="1.1"
   id="svg3979"
   height="16px"
   width="16px">
  <defs
     id="defs3981">
    <linearGradient
       y2="28.208714"
       x2="210.2438"
       y1="41.161266"
       x1="210.2438"
       gradientTransform="matrix(-0.4100229,0,0,0.5447147,95.555769,-7.2582748)"
       gradientUnits="userSpaceOnUse"
       id="linearGradient3945"
       xlink:href="#linearGradient2867-449-88-871-390-598-476-591-434-148-69" />
    <linearGradient
       y2="16.912945"
       x2="219.1192"
       y1="26.09388"
       x1="219.00932"
       gradientTransform="matrix(-0.4100229,0,0,0.5447147,95.555769,-7.2582748)"
       gradientUnits="userSpaceOnUse"
       id="linearGradient3943"
       xlink:href="#linearGradient2867-449-88-871-390-598-476-591-434-148-69" />
    <linearGradient
       y2="13.487591"
       x2="212.70323"
       y1="37.143356"
       x1="212.48347"
       gradientTransform="matrix(-0.4100229,0,0,0.5447147,95.555769,-7.2582748)"
       gradientUnits="userSpaceOnUse"
       id="linearGradient3024-5"
       xlink:href="#linearGradient2867-449-88-871-390-598-476-591-434-148-69" />
    <linearGradient
       id="linearGradient2867-449-88-871-390-598-476-591-434-148-69">
      <stop
         offset="0"
         style="stop-color:#49a3d2;stop-opacity:1"
         id="stop4629-22" />
      <stop
         offset="0.704952"
         style="stop-color:#3470b4;stop-opacity:1"
         id="stop4631-4" />
      <stop
         offset="1"
         style="stop-color:#1b5699;stop-opacity:1"
         id="stop4633-7" />
    </linearGradient>
  </defs>
  <metadata
     id="metadata3984">
    <rdf:RDF>
      <cc:Work
         rdf:about="">
        <dc:format>image/svg+xml</dc:format>
        <dc:type
           rdf:resource="http://purl.org/dc/dcmitype/StillImage" />
        <dc:title />
      </cc:Work>
    </rdf:RDF>
  </metadata>
  <g
     id="layer1">
    <path
       id="path3826-1"
       d="m 12,1 0,2 -2,0 -6,8 -4,0 0,3 4,0 6,-8 2,0 0,2 L 16,4.5 12,1 z M 0,3 0,6 4,6 5.21875,7.625 6.34375,6.125 4,3 0,3 z M 12,9.03125 12,11 10,11 8.78125,9.375 7.65625,10.875 10,14 l 2,0 0,2 4,-3.5 -3.96875,-3.46875 -0.03125,0 z"
       style="opacity:0.6;color:#000000;fill:#ffffff;fill-opacity:1;fill-rule:nonzero;stroke:none;stroke-width:1;marker:none;visibility:visible;display:inline;overflow:visible;enable-background:accumulate" />
    <path
       id="path3941"
       d="m 12,0 0,2 -2,0 -6,8 -4,0 0,3 4,0 6,-8 2,0 0,2 L 16,3.5 12,0 z"
       style="opacity:1;color:#000000;fill:url(#linearGradient3024-5);fill-opacity:1;fill-rule:nonzero;stroke:none;stroke-width:1;marker:none;visibility:visible;display:inline;overflow:visible;enable-background:accumulate" />
    <path
       id="path3939"
       d="m 0,2 0,3 4,0 1.21875,1.625 1.125,-1.5 L 4,2 0,2 z"
       style="opacity:1;color:#000000;fill:url(#linearGradient3943);fill-opacity:1;fill-rule:nonzero;stroke:none;stroke-width:1;marker:none;visibility:visible;display:inline;overflow:visible;enable-background:accumulate" />
    <path
       id="path3826"
       d="M 12,8.03125 12,10 10,10 8.78125,8.375 7.65625,9.875 10,13 l 2,0 0,2 4,-3.5 -3.96875,-3.46875 -0.03125,0 z"
       style="opacity:1;color:#000000;fill:url(#linearGradient3945);fill-opacity:1;fill-rule:nonzero;stroke:none;stroke-width:1;marker:none;visibility:visible;display:inline;overflow:visible;enable-background:accumulate" />
  </g>
</svg>
