<?xml version="1.0" encoding="UTF-8" standalone="no"?>
<svg
   height="16"
   width="16"
   id="svg2"
   version="1.1"
   sodipodi:docname="network-wireless-signal-excellent-secure.svg"
   inkscape:version="1.2.2 (b0a8486541, 2022-12-01)"
   xmlns:inkscape="http://www.inkscape.org/namespaces/inkscape"
   xmlns:sodipodi="http://sodipodi.sourceforge.net/DTD/sodipodi-0.dtd"
   xmlns="http://www.w3.org/2000/svg"
   xmlns:svg="http://www.w3.org/2000/svg"
   xmlns:rdf="http://www.w3.org/1999/02/22-rdf-syntax-ns#"
   xmlns:cc="http://creativecommons.org/ns#"
   xmlns:dc="http://purl.org/dc/elements/1.1/">
  <sodipodi:namedview
     id="namedview245"
     pagecolor="#ffffff"
     bordercolor="#000000"
     borderopacity="0.25"
     inkscape:showpageshadow="2"
     inkscape:pageopacity="0.0"
     inkscape:pagecheckerboard="0"
     inkscape:deskcolor="#d1d1d1"
     showgrid="false"
     inkscape:zoom="22.627417"
     inkscape:cx="9.2586794"
     inkscape:cy="8.131728"
     inkscape:window-width="1278"
     inkscape:window-height="1005"
     inkscape:window-x="78"
     inkscape:window-y="214"
     inkscape:window-maximized="0"
     inkscape:current-layer="svg2"
     showguides="true" />
  <metadata
     id="metadata14">
    <rdf:RDF>
      <cc:Work
         rdf:about="">
        <dc:format>image/svg+xml</dc:format>
        <dc:type
           rdf:resource="http://purl.org/dc/dcmitype/StillImage" />
      </cc:Work>
    </rdf:RDF>
  </metadata>
  <defs
     id="defs12" />
  <path
     id="path7820-3"
     style="color:#000000;fill:#33a4ff;stroke-width:1;-inkscape-stroke:none;paint-order:markers fill stroke;fill-opacity:1"
     d="M 8 10.375 C 6.7061323 10.375 5.625 11.150391 5.625 11.150391 L 8 14.5 L 9 13.089844 L 9 12.5 C 9 11.916668 9.4392211 11.349735 9.8027344 11.167969 C 9.9055009 11.116599 9.9088651 11.145964 10 11.121094 L 10 11.03125 C 10 10.995979 10.000737 10.960793 10.001953 10.925781 C 9.5773179 10.696887 8.8340857 10.375 8 10.375 z " />
  <path
     style="color:#000000;fill:#33a4ff;stroke-linejoin:round;-inkscape-stroke:none;paint-order:markers fill stroke;fill-opacity:1"
     d="m 8,1.375 c -4.7547454,0 -8,2.765625 -8,2.765625 l 1.4550781,1.71875 c 0,0 2.6580656,-2.234375 6.5449219,-2.234375 3.886855,0 6.544922,2.234375 6.544922,2.234375 L 16,4.140625 C 16,4.140625 12.754744,1.375 8,1.375 Z"
     id="path38238" />
  <path
     id="path38244"
     style="color:#000000;fill:#33a4ff;stroke-linejoin:round;-inkscape-stroke:none;paint-order:markers fill stroke;fill-opacity:1"
     d="M 8 5.875 C 5.0080969 5.875 2.8964844 7.5839844 2.8964844 7.5839844 L 4.2988281 9.34375 C 4.2988281 9.34375 5.8642327 8.125 8 8.125 C 9.2095147 8.125 10.243859 8.5199795 10.914062 8.8613281 C 11.406357 8.3774181 12.061565 8.0601331 12.787109 8.0078125 L 13.121094 7.5839844 C 13.121094 7.5839844 10.993243 5.875 8 5.875 z " />
  <path
     d="m 13,9 c -1.108,0 -2,0.91 -2,2.031 V 12 h -0.5 c 0,0 -0.5,0 -0.5,0.5 v 3 c 0,0 0,0.5 0.5,0.5 h 5 c 0,0 0.5,0 0.5,-0.5 v -3 C 16,12 15.5,12 15.5,12 H 15 V 11.031 C 15,9.911 14.108,9 13,9 Z m 0,1 c 0.554,0 1,0.442 1,1 v 1 h -2 v -1 c 0,-0.558 0.446,-1 1,-1 z"
     fill="#666666"
     id="path6"
     style="fill:#f9c440" />
</svg>
