<?xml version="1.0" encoding="UTF-8" standalone="no"?>
<svg
   xmlns:dc="http://purl.org/dc/elements/1.1/"
   xmlns:cc="http://creativecommons.org/ns#"
   xmlns:rdf="http://www.w3.org/1999/02/22-rdf-syntax-ns#"
   xmlns:svg="http://www.w3.org/2000/svg"
   xmlns="http://www.w3.org/2000/svg"
   xmlns:xlink="http://www.w3.org/1999/xlink"
   version="1.1"
   width="16"
   height="16"
   id="svg3745">
  <metadata
     id="metadata73761">
    <rdf:RDF>
      <cc:Work
         rdf:about="">
        <dc:format>image/svg+xml</dc:format>
        <dc:type
           rdf:resource="http://purl.org/dc/dcmitype/StillImage" />
        <dc:title />
      </cc:Work>
    </rdf:RDF>
  </metadata>
  <defs
     id="defs3747">
    <linearGradient
       id="linearGradient3587-6-5">
      <stop
         id="stop3589-9-2"
         style="stop-color:#000000;stop-opacity:1"
         offset="0" />
      <stop
         id="stop3591-7-4"
         style="stop-color:#363636;stop-opacity:1"
         offset="1" />
    </linearGradient>
    <linearGradient
       xlink:href="#linearGradient3587-6-5"
       id="linearGradient3810"
       x1="17.940849"
       y1="-0.06466876"
       x2="17.940849"
       y2="15.528593"
       gradientUnits="userSpaceOnUse" />
    <linearGradient
       xlink:href="#linearGradient3587-6-5"
       id="linearGradient3818"
       x1="17.940849"
       y1="-0.06466876"
       x2="17.940849"
       y2="15.528593"
       gradientUnits="userSpaceOnUse" />
  </defs>
  <path
     d="m 10.539751,12.228477 c -1.568432,1.555736 -4.3239123,1.656865 -5.8796483,0.08843 -1.555737,-1.568432 -1.545445,-4.1010714 0.02299,-5.6568074 0.05945,-0.058968 0.2878639,-0.060343 0.3508959,-0.1154635 L 6.3784148,7.96661 7.7228409,9.38858 10.539751,12.228477 z M 1.6272897,14.889972 2.348738,15.5 5.791635,12.057103 5.0701867,11.447075 1.6272897,14.889972 z M 6.5,4.8161631 c 1.568432,-1.555737 4.101071,-1.7125759 5.656807,-0.1441439 1.555737,1.568432 1.545445,4.101071 -0.02299,5.6568068 -0.05945,0.05897 -0.232154,0.171764 -0.295186,0.226884 L 9.31691,7.6560601 6.5,4.8161631 z M 15.442897,2.2228412 14.721449,1.5571031 11.278552,5 12,5.6657382 15.442897,2.2228412 z"
     style="opacity:0.6;fill:#ffffff;fill-opacity:1;stroke:#ffffff;stroke-width:1;stroke-linecap:round;stroke-linejoin:round;stroke-miterlimit:4;stroke-opacity:1;stroke-dasharray:none"
     id="path3820" />
  <path
     id="path3607"
     style="fill:url(#linearGradient3818);fill-opacity:1;stroke:url(#linearGradient3810);stroke-width:1;stroke-linecap:round;stroke-linejoin:round;stroke-miterlimit:4;stroke-opacity:1;stroke-dasharray:none;opacity:0.7"
     d="m 10.539751,11.228477 c -1.568432,1.555736 -4.3239123,1.656865 -5.8796483,0.08843 -1.555737,-1.5684324 -1.545445,-4.1010714 0.02299,-5.6568074 0.05945,-0.058968 0.2878639,-0.060343 0.3508959,-0.1154635 L 6.3784148,6.96661 7.7228409,8.38858 10.539751,11.228477 z M 1.6272897,13.889972 2.348738,14.5 5.791635,11.057103 5.0701867,10.447075 1.6272897,13.889972 z M 6.5,3.8161631 c 1.568432,-1.555737 4.101071,-1.7125759 5.656807,-0.1441439 1.555737,1.568432 1.545445,4.101071 -0.02299,5.656807 -0.05945,0.058968 -0.232154,0.1717633 -0.295186,0.2268841 L 9.31691,6.6560601 6.5,3.8161631 z M 15.442897,1.2228412 14.721449,0.5571031 11.278552,4 12,4.6657382 15.442897,1.2228412 z" />
</svg>
