<?xml version="1.0" encoding="UTF-8" standalone="no"?>
<svg
   height="16px"
   viewBox="0 0 16 16"
   width="16px"
   version="1.1"
   id="svg8"
   sodipodi:docname="nm-no-connection.svg"
   inkscape:version="1.2.2 (b0a8486541, 2022-12-01)"
   xmlns:inkscape="http://www.inkscape.org/namespaces/inkscape"
   xmlns:sodipodi="http://sodipodi.sourceforge.net/DTD/sodipodi-0.dtd"
   xmlns="http://www.w3.org/2000/svg"
   xmlns:svg="http://www.w3.org/2000/svg">
  <defs
     id="defs12" />
  <sodipodi:namedview
     id="namedview10"
     pagecolor="#ffffff"
     bordercolor="#666666"
     borderopacity="1.0"
     inkscape:pageshadow="2"
     inkscape:pageopacity="0.0"
     inkscape:pagecheckerboard="0"
     showgrid="false"
     inkscape:zoom="42.625"
     inkscape:cx="2.5571848"
     inkscape:cy="8"
     inkscape:window-width="1844"
     inkscape:window-height="1005"
     inkscape:window-x="-109"
     inkscape:window-y="785"
     inkscape:window-maximized="0"
     inkscape:current-layer="svg8"
     inkscape:showpageshadow="2"
     inkscape:deskcolor="#d1d1d1" />
  <path
     d="m 15,10 c 0.265625,0 0.519531,0.105469 0.707031,0.292969 0.390625,0.390625 0.390625,1.023437 0,1.414062 L 14.414062,13 l 1.292969,1.292969 c 0.390625,0.390625 0.390625,1.023437 0,1.414062 -0.390625,0.390625 -1.023437,0.390625 -1.414062,0 L 13,14.414062 11.707031,15.707031 c -0.390625,0.390625 -1.023437,0.390625 -1.414062,0 -0.390625,-0.390625 -0.390625,-1.023437 0,-1.414062 L 11.585938,13 10.292969,11.707031 c -0.390625,-0.390625 -0.390625,-1.023437 0,-1.414062 C 10.480469,10.105469 10.734375,10 11,10 c 0.265625,0 0.519531,0.105469 0.707031,0.292969 L 13,11.585938 14.292969,10.292969 C 14.480469,10.105469 14.734375,10 15,10 Z m 0,0"
     id="path2"
     style="fill:#ed5353;fill-opacity:1" />
  <path
     d="M 6,0 C 5.445312,0 5,0.445312 5,1 V 4 C 5,4.554688 5.445312,5 6,5 H 7 V 7 H 0 v 2 h 2 v 2 H 1 c -0.554688,0 -1,0.445312 -1,1 v 3 c 0,0.554688 0.445312,1 1,1 h 4 c 0.554688,0 1,-0.445312 1,-1 V 12 C 6,11.445312 5.554688,11 5,11 H 4 V 9 H 16 V 7 H 9 V 5 h 1 c 0.554688,0 1,-0.445312 1,-1 V 1 C 11,0.445312 10.554688,0 10,0 Z m 0,0"
     fill-opacity="0.34902"
     id="path4"
     style="fill:#33a4ff;fill-opacity:0.60000002" />
</svg>
