<?xml version="1.0" encoding="UTF-8" standalone="no"?>
<svg
   version="1.0"
   width="16"
   height="16"
   id="svg11300"
   sodipodi:docname="printer-error.svg"
   inkscape:version="1.2.2 (b0a8486541, 2022-12-01)"
   xmlns:inkscape="http://www.inkscape.org/namespaces/inkscape"
   xmlns:sodipodi="http://sodipodi.sourceforge.net/DTD/sodipodi-0.dtd"
   xmlns:xlink="http://www.w3.org/1999/xlink"
   xmlns="http://www.w3.org/2000/svg"
   xmlns:svg="http://www.w3.org/2000/svg"
   xmlns:rdf="http://www.w3.org/1999/02/22-rdf-syntax-ns#"
   xmlns:cc="http://creativecommons.org/ns#"
   xmlns:dc="http://purl.org/dc/elements/1.1/">
  <sodipodi:namedview
     id="namedview38557"
     pagecolor="#ffffff"
     bordercolor="#666666"
     borderopacity="1.0"
     inkscape:showpageshadow="2"
     inkscape:pageopacity="0.0"
     inkscape:pagecheckerboard="0"
     inkscape:deskcolor="#d1d1d1"
     showgrid="false"
     inkscape:zoom="20.85965"
     inkscape:cx="8.4373419"
     inkscape:cy="12.560134"
     inkscape:window-width="1326"
     inkscape:window-height="414"
     inkscape:window-x="562"
     inkscape:window-y="68"
     inkscape:window-maximized="0"
     inkscape:current-layer="svg11300" />
  <metadata
     id="metadata24649">
    <rdf:RDF>
      <cc:Work
         rdf:about="">
        <dc:format>image/svg+xml</dc:format>
        <dc:type
           rdf:resource="http://purl.org/dc/dcmitype/StillImage" />
      </cc:Work>
    </rdf:RDF>
  </metadata>
  <defs
     id="defs3">
    <linearGradient
       id="linearGradient6842">
      <stop
         id="stop6844"
         style="stop-color:white;stop-opacity:1"
         offset="0" />
      <stop
         id="stop6846"
         style="stop-color:white;stop-opacity:0"
         offset="1" />
    </linearGradient>
    <linearGradient
       id="linearGradient6828">
      <stop
         id="stop6830"
         style="stop-color:#6e6e6e;stop-opacity:1"
         offset="0" />
      <stop
         id="stop6832"
         style="stop-color:#1e1e1e;stop-opacity:1"
         offset="1" />
    </linearGradient>
    <linearGradient
       id="linearGradient2366">
      <stop
         id="stop2368"
         style="stop-color:#2e3436;stop-opacity:1"
         offset="0" />
      <stop
         id="stop2370"
         style="stop-color:#555753;stop-opacity:1"
         offset="1" />
    </linearGradient>
    <linearGradient
       id="linearGradient8589">
      <stop
         id="stop8591"
         style="stop-color:#fefefe;stop-opacity:1"
         offset="0" />
      <stop
         id="stop8593"
         style="stop-color:#bebebe;stop-opacity:1"
         offset="1" />
    </linearGradient>
    <linearGradient
       x1="21.919418"
       y1="21"
       x2="22.007805"
       y2="33"
       id="linearGradient2867"
       xlink:href="#linearGradient6828"
       gradientUnits="userSpaceOnUse"
       gradientTransform="matrix(0.33544392,0,0,0.36881684,-0.05065306,-0.458053)" />
    <linearGradient
       x1="15.600636"
       y1="33"
       x2="15.335471"
       y2="21"
       id="linearGradient2869"
       xlink:href="#linearGradient2366"
       gradientUnits="userSpaceOnUse"
       gradientTransform="matrix(0.33544392,0,0,0.36881684,-0.05065306,-0.458053)" />
    <radialGradient
       cx="3.7590685"
       cy="11.918329"
       r="21"
       fx="3.7590685"
       fy="11.918329"
       id="radialGradient2872"
       xlink:href="#linearGradient6842"
       gradientUnits="userSpaceOnUse"
       gradientTransform="matrix(0.3170197,0.00536125,-0.00400368,0.19223751,0.43811555,6.4966532)" />
    <linearGradient
       x1="11.519291"
       y1="20"
       x2="11.50602"
       y2="37"
       id="linearGradient2875"
       xlink:href="#linearGradient8589"
       gradientUnits="userSpaceOnUse"
       gradientTransform="matrix(0.34883886,0,0,0.37500427,-0.37213199,-0.1876208)" />
  </defs>
  <rect
     width="10.999916"
     height="7.9999166"
     rx="0.29157397"
     ry="0.36184996"
     x="2.500042"
     y="3.5000422"
     id="rect2315"
     style="fill:#505050;fill-opacity:1;stroke:#000000;stroke-width:1.00008368;stroke-linecap:round;stroke-linejoin:round;stroke-miterlimit:4;stroke-opacity:0.69999999;stroke-dasharray:none;display:inline" />
  <g
     transform="matrix(0.69407228,0,0,0.73253891,2.4439816,0.13360126)"
     id="layer1">
    <path
       d="m 1.4976268,0.49762721 13.0047472,0.002374 c 0,3.90746299 0,11.09490679 0,15.00237279 -4.334914,0 -8.6698338,0 -13.0047472,0 0,-5.001584 0,-10.0031634 0,-15.00474638 z"
       id="rect2594"
       style="fill:#fafafa;fill-opacity:1;stroke:#000000;stroke-width:1.39577675;stroke-linecap:butt;stroke-linejoin:round;stroke-miterlimit:4;stroke-opacity:0.34999999;stroke-dasharray:none;stroke-dashoffset:0;display:inline" />
  </g>
  <path
     d="m 1.5050189,12.499854 c 0.025372,0.518058 -0.0657,1.075536 0.080353,1.555513 0.2739839,0.609191 0.8786674,0.408878 1.2830134,0.44374 0.0073,0.359613 0.029665,0.914771 0.3421077,0.991264 3.3005711,0.01952 6.2780675,0.0028 9.579015,0.0084 0.340644,0.01588 0.35312,-0.580789 0.342108,-0.959421 0.11125,-0.09326 0.427435,-0.01386 0.581072,-0.04021 0.38015,0.0815 0.844967,-0.329793 0.78162,-1.013691 0,-0.328519 0,-0.657045 0,-0.985562 -4.329764,0 -8.6595258,0 -12.9892892,0 z"
     id="rect6333"
     style="fill:#505050;fill-opacity:1;stroke:#000000;stroke-width:0.99970883;stroke-linecap:square;stroke-linejoin:miter;stroke-miterlimit:4;stroke-opacity:0.69999999;stroke-dasharray:none" />
  <path
     d="m 1.2251892,7.4999662 13.5496198,0 c 0.401775,0 0.725226,0.3477098 0.725226,0.7796206 l 0,5.2204472 -15.00006986,0 0,-5.2204472 c 0,-0.4319108 0.32345002,-0.7796206 0.72522406,-0.7796206 z"
     id="rect2313"
     style="fill:url(#linearGradient2875);fill-opacity:1;stroke:#000000;stroke-width:0.99993199;stroke-linecap:round;stroke-linejoin:round;stroke-miterlimit:4;stroke-opacity:0.30000001;stroke-dasharray:none" />
  <path
     d="m 1.8170282,8.4999529 12.3659448,0 c 0.164502,0 0.317074,0.1374829 0.317074,0.2857221 l 0,3.714372 -13.0000942,0 0,-3.714372 c 0,-0.1482392 0.1525713,-0.2857221 0.3170754,-0.2857221 z"
     id="rect2374"
     style="opacity:0.9;fill:none;stroke:url(#radialGradient2872);stroke-width:0.99990565;stroke-linecap:round;stroke-linejoin:miter;stroke-miterlimit:4;stroke-opacity:1;stroke-dasharray:none;display:inline" />
  <rect
     width="9.0569839"
     height="4.0569844"
     x="3.471508"
     y="7.471508"
     id="rect2319"
     style="fill:url(#linearGradient2867);fill-opacity:1;stroke:url(#linearGradient2869);stroke-width:0.94301587;stroke-linecap:round;stroke-linejoin:miter;stroke-miterlimit:4;stroke-opacity:1;stroke-dasharray:none" />
  <path
     d="m 13,14 0,0.875 C 13,14.94425 12.93031,15 12.843749,15 l -9.687506,0 c -0.086562,0 -0.15625,-0.05575 -0.15625,-0.125 l 0,-0.875 L 13,14 z"
     id="rect6331"
     style="fill:#e6e6e6;fill-opacity:1;stroke:none" />
  <rect
     style="opacity:1;fill:#ffffff;fill-opacity:1;fill-rule:evenodd;stroke:none;stroke-width:1;stroke-linejoin:round;stroke-opacity:0.7;stop-color:#000000"
     id="rect40418"
     width="8"
     height="1"
     x="4"
     y="1" />
  <circle
     style="fill:#ffffff;fill-opacity:1;fill-rule:evenodd;stroke:none;stroke-width:0.999997;stroke-linejoin:round;stroke-opacity:0.75;stop-color:#000000"
     id="path93713"
     cx="11.5"
     cy="11.5"
     r="3" />
  <path
     class="error"
     color="#bebebe"
     d="m 11.500957,7.5000002 c -5.3346092,-0.00128 -5.3346092,7.9987288 0,8.0000038 5.332058,-0.0013 5.332058,-8.0012784 0,-8.0000038 z M 11,9 h 1 v 3 h -1 z m 0,4 h 1 v 1 h -1 z"
     fill="#ef2929"
     overflow="visible"
     style="stroke-width:1;marker:none"
     id="path10"
     sodipodi:nodetypes="ccccccccccccc" />
  <circle
     style="fill:none;fill-rule:evenodd;stroke:#7a0000;stroke-width:1;stroke-linejoin:round;stroke-opacity:0.75;stop-color:#000000"
     id="path93296"
     cx="11.5"
     cy="11.5"
     r="3.9999998" />
</svg>
