<?xml version="1.0" encoding="UTF-8" standalone="no"?>
<svg
   version="1.1"
   width="16"
   height="16"
   id="svg7357"
   sodipodi:docname="software-update-urgent.svg"
   inkscape:version="1.2.2 (b0a8486541, 2022-12-01)"
   xmlns:inkscape="http://www.inkscape.org/namespaces/inkscape"
   xmlns:sodipodi="http://sodipodi.sourceforge.net/DTD/sodipodi-0.dtd"
   xmlns:xlink="http://www.w3.org/1999/xlink"
   xmlns="http://www.w3.org/2000/svg"
   xmlns:svg="http://www.w3.org/2000/svg"
   xmlns:rdf="http://www.w3.org/1999/02/22-rdf-syntax-ns#"
   xmlns:cc="http://creativecommons.org/ns#"
   xmlns:dc="http://purl.org/dc/elements/1.1/">
  <sodipodi:namedview
     id="namedview21"
     pagecolor="#ffffff"
     bordercolor="#000000"
     borderopacity="0.25"
     inkscape:showpageshadow="2"
     inkscape:pageopacity="0.0"
     inkscape:pagecheckerboard="0"
     inkscape:deskcolor="#d1d1d1"
     showgrid="false"
     inkscape:zoom="32"
     inkscape:cx="0.484375"
     inkscape:cy="12.09375"
     inkscape:window-width="1426"
     inkscape:window-height="1050"
     inkscape:window-x="430"
     inkscape:window-y="0"
     inkscape:window-maximized="0"
     inkscape:current-layer="svg7357" />
  <defs
     id="defs7359">
    <linearGradient
       id="linearGradient839">
      <stop
         style="stop-color:#ed5353;stop-opacity:1"
         offset="0"
         id="stop835" />
      <stop
         style="stop-color:#c6262e;stop-opacity:1"
         offset="1"
         id="stop837" />
    </linearGradient>
    <linearGradient
       x1="2065.6956"
       y1="3219.6023"
       x2="2065.6956"
       y2="3245.6455"
       id="linearGradient11527-6-5-3"
       xlink:href="#linearGradient839"
       gradientUnits="userSpaceOnUse"
       gradientTransform="matrix(0.81996151,0,0,0.61300006,-1684.8015,-1973.6141)" />
  </defs>
  <metadata
     id="metadata7362">
    <rdf:RDF>
      <cc:Work
         rdf:about="">
        <dc:format>image/svg+xml</dc:format>
        <dc:type
           rdf:resource="http://purl.org/dc/dcmitype/StillImage" />
      </cc:Work>
    </rdf:RDF>
  </metadata>
  <path
     id="path833"
     style="opacity:0.98999999;vector-effect:none;fill:url(#linearGradient11527-6-5-3);fill-opacity:1;stroke:none;stroke-width:0.99999996;stroke-linecap:butt;stroke-linejoin:miter;stroke-miterlimit:4;stroke-dasharray:none;stroke-dashoffset:0;stroke-opacity:1;marker:none;paint-order:normal;font-variant-east_asian:normal"
     d="M 8 0 A 0.50004997 0.50004997 0 0 0 7.6015625 0.19726562 L 5.7695312 2.6152344 L 2.765625 2.2011719 A 0.50004997 0.50004997 0 0 0 2.2011719 2.765625 L 2.6152344 5.7695312 L 0.19726562 7.6015625 A 0.50004997 0.50004997 0 0 0 0.19726562 8.3984375 L 2.6152344 10.230469 L 2.2011719 13.234375 A 0.50004997 0.50004997 0 0 0 2.765625 13.798828 L 5.7695312 13.384766 L 7.6015625 15.802734 A 0.50004997 0.50004997 0 0 0 8.3984375 15.802734 L 10.230469 13.384766 L 13.234375 13.798828 A 0.50004997 0.50004997 0 0 0 13.798828 13.234375 L 13.384766 10.230469 L 15.802734 8.3984375 A 0.50004997 0.50004997 0 0 0 15.802734 7.6015625 L 13.384766 5.7695312 L 13.798828 2.765625 A 0.50004997 0.50004997 0 0 0 13.234375 2.2011719 L 10.230469 2.6152344 L 8.3984375 0.19726562 A 0.50004997 0.50004997 0 0 0 8 0 z " />
  <path
     d="m 8,14.000624 c -0.4016709,0 -0.8020585,-0.163613 -1.09375,-0.464844 L 4.34375,10.437937 C 3.9441082,9.9379501 3.976531,9.323088 4.1796875,8.8832474 4.382844,8.4434069 4.8302303,8.0195275 5.4707031,8.0004349 H 6 V 4.5181995 C 6.00673,3.8161765 6.506517,3.150524 7.1914062,3 H 8.537109 C 9.3222229,3.029668 9.9703399,3.7057635 10,4.4908905 v 3.5095444 h 0.5293 c 0.640473,0.019093 1.087859,0.4429719 1.291015,0.8828125 0.203157,0.4398406 0.23558,1.0547027 -0.164062,1.5546876 L 9.0937501,13.535778 C 8.8020601,13.837007 8.4016744,14.000624 8,14.000624 Z"
     id="path818-1-1-2"
     style="opacity:0.2;vector-effect:none;fill:#7a0000;fill-opacity:1;stroke:none;stroke-width:1px;stroke-linecap:butt;stroke-linejoin:miter;stroke-miterlimit:4;stroke-dasharray:none;stroke-dashoffset:0;stroke-opacity:1;marker:none;paint-order:normal"
     sodipodi:nodetypes="sccsccccccccsccs" />
  <path
     id="path818-1-1"
     d="m 8,13 c 0.1362185,0 0.272437,-0.05424 0.375,-0.160156 L 11.6255,8.81225 c 0.231,-0.289 -0.006,-0.8015 -0.375,-0.8125 H 9.5 V 4.5 C 9.489733,4.228224 9.2717763,4.01027 9,4 H 6.906125 C 6.6708248,4.051714 6.502185,4.259095 6.499875,4.5 V 7.99975 H 4.7495 c -0.369,0.011 -0.606,0.5235 -0.375,0.8125 L 7.625,12.839844 C 7.727563,12.945761 7.8637815,13 8,13 Z"
     style="opacity:0.3;vector-effect:none;fill:#7a0000;fill-opacity:1;stroke:none;stroke-width:1px;stroke-linecap:butt;stroke-linejoin:miter;stroke-miterlimit:4;stroke-dasharray:none;stroke-dashoffset:0;stroke-opacity:1;marker:none;paint-order:normal"
     sodipodi:nodetypes="sccccccccccccs" />
  <path
     id="path818-1"
     d="m 8,12.000222 c -0.1362185,0 -0.272437,-0.05424 -0.375,-0.160156 L 5.125,8.81225 C 4.894,8.52325 5.131,8.01075 5.5,7.99975 H 7 V 4.5275656 C 7.010267,4.2557896 7.2296589,4.0102158 7.5,4 h 1 C 8.7535789,4 9,4.2665857 9,4.5275656 V 7.99975 h 1.5 c 0.369,0.011 0.606,0.5235 0.375,0.8125 l -2.5,3.027816 C 8.272437,11.945983 8.1362185,12.000222 8,12.000222 Z"
     style="opacity:1;vector-effect:none;fill:#ffffff;fill-opacity:1;stroke:none;stroke-width:1px;stroke-linecap:butt;stroke-linejoin:miter;stroke-miterlimit:4;stroke-dasharray:none;stroke-dashoffset:0;stroke-opacity:1;marker:none;paint-order:normal"
     sodipodi:nodetypes="sccccccccccccs" />
  <path
     style="color:#000000;opacity:0.5;fill:#7a0000;stroke-width:0.999996;stroke-linecap:round;stroke-linejoin:round;-inkscape-stroke:none"
     d="m 7.9999994,-0.99964483 a 0.56251193,0.56251193 0 0 0 -0.448207,0.2219062 L 5.4909195,1.9422621 2.111791,1.4764786 A 0.56251193,0.56251193 0 0 0 1.4768314,2.1114384 l 0.4657836,3.3791282 -2.72000068,2.060873 a 0.56251193,0.56251193 0 0 0 0,0.8964138 L 1.942615,10.508727 1.4768314,13.887855 a 0.56251193,0.56251193 0 0 0 0.6349596,0.63496 l 3.3791285,-0.465784 2.0608729,2.72 a 0.56251193,0.56251193 0 0 0 0.8964138,0 l 2.0608748,-2.72 3.379128,0.465784 a 0.56251193,0.56251193 0 0 0 0.634959,-0.63496 l -0.465782,-3.379128 2.72,-2.0608736 a 0.56251193,0.56251193 0 0 0 0,-0.8964138 l -2.72,-2.060873 0.465782,-3.3791282 A 0.56251193,0.56251193 0 0 0 13.888209,1.4764786 L 10.509081,1.9422621 8.4482062,-0.77773863 a 0.56251193,0.56251193 0 0 0 -0.4482068,-0.2219062 z m 0,1.49402294 1.8104042,2.38823969 A 0.56251193,0.56251193 0 0 0 10.33551,3.10013 L 13.305979,2.6936677 12.899518,5.664137 a 0.56251193,0.56251193 0 0 0 0.217512,0.5251052 l 2.388239,1.8104043 -2.388239,1.8104044 a 0.56251193,0.56251193 0 0 0 -0.217512,0.5251051 l 0.406461,2.97047 -2.970469,-0.406462 a 0.56251193,0.56251193 0 0 0 -0.5251064,0.217511 l -1.8104042,2.38824 -1.8104043,-2.38824 A 0.56251193,0.56251193 0 0 0 5.6644899,12.899164 l -2.9704693,0.406462 0.4064623,-2.97047 A 0.56251193,0.56251193 0 0 0 2.8829707,9.8100509 L 0.49473097,7.9996465 2.8829707,6.1892422 A 0.56251193,0.56251193 0 0 0 3.1004829,5.664137 L 2.6940206,2.6936679 5.6644899,3.1001301 A 0.56251193,0.56251193 0 0 0 6.1895951,2.8826178 Z"
     id="path841" />
</svg>
