<?xml version="1.0" encoding="UTF-8" standalone="no"?>
<svg
   id="svg7357"
   height="16"
   width="16"
   version="1.1"
   sodipodi:docname="software-update-urgent.svg"
   inkscape:version="1.2.2 (b0a8486541, 2022-12-01)"
   xmlns:inkscape="http://www.inkscape.org/namespaces/inkscape"
   xmlns:sodipodi="http://sodipodi.sourceforge.net/DTD/sodipodi-0.dtd"
   xmlns:xlink="http://www.w3.org/1999/xlink"
   xmlns="http://www.w3.org/2000/svg"
   xmlns:svg="http://www.w3.org/2000/svg"
   xmlns:rdf="http://www.w3.org/1999/02/22-rdf-syntax-ns#"
   xmlns:cc="http://creativecommons.org/ns#"
   xmlns:dc="http://purl.org/dc/elements/1.1/">
  <sodipodi:namedview
     id="namedview21"
     pagecolor="#ffffff"
     bordercolor="#666666"
     borderopacity="1.0"
     inkscape:pageshadow="2"
     inkscape:pageopacity="0.0"
     inkscape:pagecheckerboard="0"
     showgrid="false"
     inkscape:zoom="77.163027"
     inkscape:cx="4.6524873"
     inkscape:cy="10.076069"
     inkscape:window-width="1920"
     inkscape:window-height="1030"
     inkscape:window-x="0"
     inkscape:window-y="0"
     inkscape:window-maximized="1"
     inkscape:current-layer="svg7357"
     inkscape:showpageshadow="2"
     inkscape:deskcolor="#d1d1d1" />
  <defs
     id="defs7359">
    <linearGradient
       xlink:href="#linearGradient4806"
       id="linearGradient3293"
       gradientUnits="userSpaceOnUse"
       gradientTransform="matrix(2.3268746,0,0,2.3268746,-135.94475,-32.842783)"
       x1="61.219437"
       y1="15.833592"
       x2="61.219437"
       y2="19.271681" />
    <linearGradient
       id="linearGradient4806">
      <stop
         id="stop4808"
         style="stop-color:#ffffff;stop-opacity:1"
         offset="0" />
      <stop
         id="stop4810"
         style="stop-color:#ffffff;stop-opacity:0.23529412"
         offset="0.12499987" />
      <stop
         id="stop4812"
         style="stop-color:#ffffff;stop-opacity:0.15686275"
         offset="0.87499982" />
      <stop
         id="stop4814"
         style="stop-color:#ffffff;stop-opacity:0.39215687"
         offset="1" />
    </linearGradient>
    <linearGradient
       gradientTransform="matrix(0.81996151,0,0,0.61300006,-1684.8015,-1973.6141)"
       gradientUnits="userSpaceOnUse"
       xlink:href="#linearGradient947"
       id="linearGradient11527-6-5-3"
       y2="3244.8506"
       x2="2065.6956"
       y1="3220.5276"
       x1="2065.6956" />
    <linearGradient
       id="linearGradient947">
      <stop
         offset="0"
         style="stop-color:#ed5353;stop-opacity:1"
         id="stop943" />
      <stop
         offset="1"
         style="stop-color:#c6262e;stop-opacity:1"
         id="stop945" />
    </linearGradient>
  </defs>
  <metadata
     id="metadata7362">
    <rdf:RDF>
      <cc:Work
         rdf:about="">
        <dc:format>image/svg+xml</dc:format>
        <dc:type
           rdf:resource="http://purl.org/dc/dcmitype/StillImage" />
      </cc:Work>
    </rdf:RDF>
  </metadata>
  <path
     id="path833"
     d="M 8,0.49996722 5.9913242,3.149515 2.6972424,2.6972425 3.1495149,5.9913243 0.49996721,8 3.1495149,10.008676 2.6972424,13.302758 5.9913242,12.850485 8,15.500033 10.008676,12.850485 13.302757,13.302758 12.850485,10.008676 15.500033,8 12.850485,5.9913243 13.302757,2.6972425 10.008676,3.149515 Z"
     style="opacity:0.98999999;vector-effect:none;fill:url(#linearGradient11527-6-5-3);fill-opacity:1.0;stroke:none;stroke-width:0.99999996;stroke-linecap:butt;stroke-linejoin:miter;stroke-miterlimit:4;stroke-dasharray:none;stroke-dashoffset:0;stroke-opacity:1;marker:none;paint-order:normal;font-variant-east_asian:normal" />
  <path
     style="opacity:0.5;vector-effect:none;fill:none;fill-opacity:1;stroke:#7a0000;stroke-width:0.99999988;stroke-linecap:round;stroke-linejoin:round;stroke-miterlimit:4;stroke-dasharray:none;stroke-dashoffset:0;stroke-opacity:1;marker:none;paint-order:normal;font-variant-east_asian:normal"
     d="M 8,0.49996722 5.9913242,3.149515 2.6972424,2.6972425 3.1495149,5.9913243 0.49996721,8 3.1495149,10.008676 2.6972424,13.302758 5.9913242,12.850485 8,15.500033 10.008676,12.850485 13.302757,13.302758 12.850485,10.008676 15.500033,8 12.850485,5.9913243 13.302757,2.6972425 10.008676,3.149515 Z"
     id="path841" />
  <path
     style="opacity:0.3;vector-effect:none;fill:none;fill-opacity:1;stroke:url(#linearGradient3293);stroke-width:0.99999996;stroke-linecap:round;stroke-linejoin:miter;stroke-miterlimit:4;stroke-dasharray:none;stroke-dashoffset:0;stroke-opacity:1;marker:none;paint-order:normal;font-variant-east_asian:normal"
     id="path841-5"
     d="M 8,2.15625 6.7890625,3.7539062 A 1.0004397,1.0004397 0 0 1 5.8554688,4.140625 L 3.8671875,3.8671875 4.140625,5.8554688 A 1.0004397,1.0004397 0 0 1 3.7539062,6.7890625 L 2.15625,8 3.7539062,9.2109375 A 1.0004397,1.0004397 0 0 1 4.140625,10.144531 l -0.2734375,1.988281 1.9882813,-0.273437 a 1.0004397,1.0004397 0 0 1 0.9335937,0.386719 L 8,13.84375 9.2109375,12.246094 a 1.0004397,1.0004397 0 0 1 0.9335935,-0.386719 l 1.988281,0.273437 -0.273437,-1.988281 A 1.0004397,1.0004397 0 0 1 12.246094,9.2109375 L 13.84375,8 12.246094,6.7890625 A 1.0004397,1.0004397 0 0 1 11.859375,5.8554688 L 12.132812,3.8671875 10.144531,4.140625 A 1.0004397,1.0004397 0 0 1 9.2109375,3.7539062 Z" />
  <path
     style="opacity:0.05;vector-effect:none;fill:#7a0000;fill-opacity:1;stroke:none;stroke-width:0.843237;stroke-linecap:butt;stroke-linejoin:miter;stroke-miterlimit:4;stroke-dasharray:none;stroke-dashoffset:0;stroke-opacity:1;marker:none;paint-order:normal"
     id="path818-1-1-2"
     d="m 8,12.972328 c -0.4016709,0 -0.8020585,-0.163613 -1.09375,-0.464844 -0.016939,-0.01763 -0.033226,-0.03587 -0.048828,-0.05469 l -2.5,-3 C 4.3528107,9.4476341 4.3482532,9.4424264 4.34375,9.437172 3.9441082,8.9371873 3.976531,8.3223252 4.1796875,7.8824846 4.382844,7.4426441 4.8302303,7.0187648 5.4707031,6.9996721 c 0.00977,-1.431e-4 0.019532,-1.431e-4 0.029297,0 H 6 V 4.502577 c -1.6e-5,-0.00327 -1.6e-5,-0.00653 0,-0.0098 0.00673,-0.702023 0.506517,-1.316273 1.1914062,-1.466797 0.04057,-0.00906 0.081665,-0.015584 0.1230469,-0.01953 0.092225,-0.0086 0.1851192,-0.0086 0.2773438,0 L 7.5,3.002577 h 1 c 0.012369,-2.295e-4 0.02474,-2.295e-4 0.037109,0 C 9.3222229,3.032245 9.9703399,3.680341 10,4.465468 c 2.3e-4,0.012369 2.3e-4,0.024741 0,0.03711 v 2.4970941 h 0.5 c 0.0098,-1.431e-4 0.01953,-1.431e-4 0.0293,0 0.640473,0.019093 1.087859,0.442972 1.291015,0.8828125 0.203157,0.4398406 0.23558,1.0547027 -0.164062,1.5546874 -0.0045,0.00526 -0.0091,0.010467 -0.01367,0.01563 l -2.4999999,3 C 9.1269792,12.47162 9.1106905,12.48986 9.09375,12.507484 8.8020601,12.808711 8.4016744,12.972328 8,12.972328 Z"
     sodipodi:nodetypes="sccccsccccccccccccccccsccccs" />
  <path
     style="opacity:0.15;vector-effect:none;fill:#7a0000;fill-opacity:1;stroke:none;stroke-width:0.843237;stroke-linecap:butt;stroke-linejoin:miter;stroke-miterlimit:4;stroke-dasharray:none;stroke-dashoffset:0;stroke-opacity:1;marker:none;paint-order:normal"
     d="m 8,12.973328 c 0.1362185,0 0.272437,-0.05424 0.375,-0.160156 l 2.5,-3.0000001 c 0.231,-0.289 -0.006,-0.8015001 -0.375,-0.8125 H 9 V 5.502175 c -0.010267,-0.271776 -0.2282237,-0.48973 -0.5,-0.5 h -1 c -0.031265,-0.0029 -0.062485,-0.0029 -0.09375,0 C 7.1709498,5.053889 7.00231,5.26127 7,5.502175 V 9.0006719 H 5.5 c -0.369,0.011 -0.606,0.5235 -0.375,0.8125 l 2.5,3.0000001 C 7.727563,12.919089 7.8637815,12.973328 8,12.973328 Z"
     id="path818-1-1"
     sodipodi:nodetypes="scccccccccccccs" />
  <path
     style="opacity:1;vector-effect:none;fill:#fafafa;fill-opacity:1;stroke:none;stroke-width:1px;stroke-linecap:butt;stroke-linejoin:miter;stroke-miterlimit:4;stroke-dasharray:none;stroke-dashoffset:0;stroke-opacity:1;marker:none;paint-order:normal"
     d="m 8,11.973328 c 0.1362185,0 0.272437,-0.05424 0.375,-0.160156 l 2.5,-2.9999998 c 0.231,-0.289 -0.006,-0.8015 -0.375,-0.8125 H 9 V 4.502175 c -0.010267,-0.271776 -0.2282237,-0.48973 -0.5,-0.5 h -1 c -0.031265,-0.0029 -0.062485,-0.0029 -0.09375,0 C 7.1709498,4.053889 7.00231,4.26127 7,4.502175 V 8.0006722 H 5.5 c -0.369,0.011 -0.606,0.5235 -0.375,0.8125 l 2.5,2.9999998 C 7.727563,11.919089 7.8637815,11.973328 8,11.973328 Z"
     id="path818-1"
     sodipodi:nodetypes="scccccccccccccs" />
</svg>
