<?xml version="1.0" encoding="UTF-8" standalone="no"?>
<svg
   height="16"
   width="16"
   id="svg2"
   version="1.1"
   sodipodi:docname="weather-clear.svg"
   inkscape:version="1.2.2 (b0a8486541, 2022-12-01)"
   xmlns:inkscape="http://www.inkscape.org/namespaces/inkscape"
   xmlns:sodipodi="http://sodipodi.sourceforge.net/DTD/sodipodi-0.dtd"
   xmlns="http://www.w3.org/2000/svg"
   xmlns:svg="http://www.w3.org/2000/svg"
   xmlns:rdf="http://www.w3.org/1999/02/22-rdf-syntax-ns#"
   xmlns:cc="http://creativecommons.org/ns#"
   xmlns:dc="http://purl.org/dc/elements/1.1/">
  <sodipodi:namedview
     id="namedview7"
     pagecolor="#ffffff"
     bordercolor="#000000"
     borderopacity="0.25"
     inkscape:showpageshadow="2"
     inkscape:pageopacity="0.0"
     inkscape:pagecheckerboard="0"
     inkscape:deskcolor="#d1d1d1"
     showgrid="false"
     inkscape:zoom="50.25"
     inkscape:cx="5.3930348"
     inkscape:cy="8"
     inkscape:window-width="1920"
     inkscape:window-height="1029"
     inkscape:window-x="0"
     inkscape:window-y="0"
     inkscape:window-maximized="1"
     inkscape:current-layer="svg2" />
  <metadata
     id="metadata12">
    <rdf:RDF>
      <cc:Work
         rdf:about="">
        <dc:format>image/svg+xml</dc:format>
        <dc:type
           rdf:resource="http://purl.org/dc/dcmitype/StillImage" />
      </cc:Work>
    </rdf:RDF>
  </metadata>
  <defs
     id="defs10" />
  <g
     transform="translate(-473 191)"
     id="g4">
    <path
       class="warning"
       d="M480.5-190c-.277 0-.5.223-.5.5v1a.499.499 0 1 0 1 0v-1c0-.277-.223-.5-.5-.5zm-4.949 2.049a.502.502 0 0 0-.354.855l.707.707a.499.499 0 1 0 .708-.707l-.708-.707a.5.5 0 0 0-.353-.148zm9.898 0a.502.502 0 0 0-.353.148l-.707.707a.499.499 0 1 0 .707.707l.707-.707a.499.499 0 0 0 0-.707.5.5 0 0 0-.354-.148zm-4.935.949a4.5 4.5 0 1 0 0 9 4.5 4.5 0 0 0 0-9zM473.5-183a.499.499 0 1 0 0 1h1a.499.499 0 1 0 0-1zm13 0a.499.499 0 1 0 0 1h1a.499.499 0 1 0 0-1zm-10.242 4.242a.5.5 0 0 0-.353.147l-.708.707a.499.499 0 1 0 .707.707l.708-.707a.499.499 0 0 0-.354-.854zm8.484 0a.5.5 0 0 0-.353.854l.707.707a.499.499 0 1 0 .707-.707l-.707-.707a.498.498 0 0 0-.354-.147zM480.5-177c-.277 0-.5.223-.5.5v1a.499.499 0 1 0 1 0v-1c0-.277-.223-.5-.5-.5z"
       fill="#f9c440"
       id="path6" />
  </g>
</svg>
