<?xml version="1.0" encoding="UTF-8" standalone="no"?>
<svg
   height="16"
   width="16"
   id="svg2"
   version="1.1"
   sodipodi:docname="weather-few-clouds.svg"
   inkscape:version="1.2.2 (b0a8486541, 2022-12-01)"
   xmlns:inkscape="http://www.inkscape.org/namespaces/inkscape"
   xmlns:sodipodi="http://sodipodi.sourceforge.net/DTD/sodipodi-0.dtd"
   xmlns:xlink="http://www.w3.org/1999/xlink"
   xmlns="http://www.w3.org/2000/svg"
   xmlns:svg="http://www.w3.org/2000/svg"
   xmlns:rdf="http://www.w3.org/1999/02/22-rdf-syntax-ns#"
   xmlns:cc="http://creativecommons.org/ns#"
   xmlns:dc="http://purl.org/dc/elements/1.1/">
  <sodipodi:namedview
     id="namedview8"
     pagecolor="#ffffff"
     bordercolor="#000000"
     borderopacity="0.25"
     inkscape:showpageshadow="2"
     inkscape:pageopacity="0.0"
     inkscape:pagecheckerboard="0"
     inkscape:deskcolor="#d1d1d1"
     showgrid="false"
     inkscape:zoom="25.125"
     inkscape:cx="5.4726368"
     inkscape:cy="6.9054726"
     inkscape:window-width="1390"
     inkscape:window-height="804"
     inkscape:window-x="326"
     inkscape:window-y="242"
     inkscape:window-maximized="0"
     inkscape:current-layer="g4" />
  <metadata
     id="metadata14">
    <rdf:RDF>
      <cc:Work
         rdf:about="">
        <dc:format>image/svg+xml</dc:format>
        <dc:type
           rdf:resource="http://purl.org/dc/dcmitype/StillImage" />
      </cc:Work>
    </rdf:RDF>
  </metadata>
  <defs
     id="defs12">
    <linearGradient
       gradientUnits="userSpaceOnUse"
       y2="16.065437"
       x2="10"
       y1="2"
       x1="10"
       id="linearGradient1052"
       xlink:href="#linearGradient1050"
       gradientTransform="matrix(0.5687657,0,0,0.53626499,294.44984,-184.18038)" />
    <linearGradient
       id="linearGradient1050">
      <stop
         id="stop1046"
         offset="0"
         style="stop-color:#fafafa;stop-opacity:1" />
      <stop
         id="stop1048"
         offset="1"
         style="stop-color:#d4d4d4;stop-opacity:1" />
    </linearGradient>
  </defs>
  <g
     transform="translate(-293 191)"
     id="g4">
    <path
       class="warning"
       color="#000000"
       d="m 302.5,-190 c -0.277,0 -0.5,0.223 -0.5,0.5 v 1 c 0,0.66667 1,0.66667 1,0 v -1 c 0,-0.277 -0.223,-0.5 -0.5,-0.5 z m -4.242,1.758 c -0.44454,9.8e-4 -0.66685,0.53817 -0.353,0.853 l 0.707,0.707 c 0.47133,0.47133 1.17833,-0.23567 0.707,-0.707 l -0.707,-0.707 c -0.0938,-0.0939 -0.22126,-0.14646 -0.354,-0.146 z m 8.484,0 c -0.13235,3e-5 -0.25929,0.0525 -0.353,0.146 l -0.707,0.707 c -0.47133,0.47133 0.23567,1.17833 0.707,0.707 l 0.707,-0.707 c 0.31674,-0.31466 0.0925,-0.85507 -0.354,-0.853 z M 302.5,-187 c -1.36,0 -2.597,0.792 -3.17,2.025 0.179,0.013 0.355,0.03 0.528,0.061 0.042,0.007 0.081,0.021 0.123,0.03 0.13,0.025 0.26,0.05 0.386,0.087 v 0.002 c 1.39,0.417 2.529,1.446 3.131,2.795 h 0.006 c 0.309,0 0.603,0.055 0.889,0.131 l 0.002,-0.002 c 0.027,0.007 0.051,0.02 0.078,0.027 0.266,0.078 0.518,0.185 0.754,0.32 0.038,0.022 0.078,0.038 0.115,0.061 0.42669,-0.59362 0.65679,-1.30594 0.658,-2.037 0,-1.933 -1.567,-3.5 -3.5,-3.5 z m 5,3 c -0.66667,0 -0.66667,1 0,1 h 1 c 0.66667,0 0.66667,-1 0,-1 z"
       fill="#f9c440"
       fill-rule="evenodd"
       overflow="visible"
       style="isolation:auto;mix-blend-mode:normal"
       id="path6"
       sodipodi:nodetypes="ssssssccssccccssccsccccccsccccccssssss" />
    <path
       color="#000000"
       d="m 298.61396,-183 c -1.51214,0 -2.67939,1.14328 -2.91073,2.59069 -0.9708,0.06 -1.70211,0.67123 -1.70323,1.80203 0,0.85183 0.61656,1.60728 1.73738,1.60728 h 6.64703 c 2.08855,0 2.24211,-3.37352 -0.0854,-3.37352 h -0.8401 c -0.37246,-1.69763 -1.44484,-2.62387 -2.8449,-2.62648 z"
       fill="#666"
       fill-rule="evenodd"
       overflow="visible"
       style="font-variation-settings:normal;opacity:1;isolation:auto;mix-blend-mode:normal;vector-effect:none;fill:url(#linearGradient1052);fill-opacity:1;stroke:none;stroke-width:1.125;stroke-linecap:round;stroke-linejoin:round;stroke-miterlimit:4;stroke-dasharray:none;stroke-dashoffset:0;stroke-opacity:1;-inkscape-stroke:none;marker:none;stop-color:#000000;stop-opacity:1"
       id="path8"
       sodipodi:nodetypes="ccccsscc" />
    <path
       color="#000000"
       d="m 298.57536,-183.5 a 3.3818825,3.49825 0 0 0 -3.27953,2.65213 2.1147339,2.1875 0 0 0 -1.79583,2.16037 2.1147339,2.1875 0 0 0 2.11473,2.1875 h 6.77054 a 2.1147339,2.1875 0 0 0 0,-4.375 h -0.54222 a 3.3810366,3.497375 0 0 0 -3.26769,-2.625 z"
       fill="#666"
       fill-rule="evenodd"
       overflow="visible"
       style="isolation:auto;mix-blend-mode:normal;fill:none;stroke-width:0.999998;stroke:#555761;stroke-opacity:0.5"
       id="path337" />
  </g>
</svg>
