<?xml version="1.0" encoding="UTF-8" standalone="no"?>
<svg
   height="16"
   width="16"
   id="svg2"
   version="1.1"
   sodipodi:docname="weather-overcast.svg"
   inkscape:version="1.2.2 (b0a8486541, 2022-12-01)"
   xmlns:inkscape="http://www.inkscape.org/namespaces/inkscape"
   xmlns:sodipodi="http://sodipodi.sourceforge.net/DTD/sodipodi-0.dtd"
   xmlns:xlink="http://www.w3.org/1999/xlink"
   xmlns="http://www.w3.org/2000/svg"
   xmlns:svg="http://www.w3.org/2000/svg"
   xmlns:rdf="http://www.w3.org/1999/02/22-rdf-syntax-ns#"
   xmlns:cc="http://creativecommons.org/ns#"
   xmlns:dc="http://purl.org/dc/elements/1.1/">
  <sodipodi:namedview
     id="namedview8"
     pagecolor="#ffffff"
     bordercolor="#000000"
     borderopacity="0.25"
     inkscape:showpageshadow="2"
     inkscape:pageopacity="0.0"
     inkscape:pagecheckerboard="0"
     inkscape:deskcolor="#d1d1d1"
     showgrid="false"
     inkscape:zoom="16"
     inkscape:cx="9.40625"
     inkscape:cy="7.3125"
     inkscape:window-width="1316"
     inkscape:window-height="949"
     inkscape:window-x="652"
     inkscape:window-y="141"
     inkscape:window-maximized="0"
     inkscape:current-layer="svg2" />
  <metadata
     id="metadata14">
    <rdf:RDF>
      <cc:Work
         rdf:about="">
        <dc:format>image/svg+xml</dc:format>
        <dc:type
           rdf:resource="http://purl.org/dc/dcmitype/StillImage" />
      </cc:Work>
    </rdf:RDF>
  </metadata>
  <defs
     id="defs12">
    <linearGradient
       id="linearGradient1050">
      <stop
         id="stop1046"
         offset="0"
         style="stop-color:#fafafa;stop-opacity:1" />
      <stop
         id="stop1048"
         offset="1"
         style="stop-color:#d4d4d4;stop-opacity:1" />
    </linearGradient>
    <linearGradient
       gradientUnits="userSpaceOnUse"
       y2="16.065437"
       x2="10"
       y1="2"
       x1="10"
       id="linearGradient1052"
       xlink:href="#linearGradient1050"
       gradientTransform="matrix(0.5687657,0,0,0.53626499,2.449839,1.8196193)" />
    <linearGradient
       inkscape:collect="always"
       xlink:href="#linearGradient1050"
       id="linearGradient9979"
       gradientUnits="userSpaceOnUse"
       gradientTransform="matrix(0.5687657,0,0,0.53626499,4.449839,5.8196193)"
       x1="10"
       y1="2"
       x2="10"
       y2="16.065437" />
  </defs>
  <path
     color="#000000"
     d="m 6.613959,2.9999993 c -1.51214,0 -2.67939,1.14328 -2.91073,2.59069 -0.9708,0.06 -1.70211,0.67123 -1.70323,1.80203 0,0.85183 0.61656,1.60728 1.73738,1.60728 h 6.64703 c 2.08855,0 2.24211,-3.37352 -0.0854,-3.37352 h -0.8401 c -0.37246,-1.69763 -1.44484,-2.62387 -2.8449,-2.62648 z"
     fill="#666"
     fill-rule="evenodd"
     overflow="visible"
     style="font-variation-settings:normal;isolation:auto;mix-blend-mode:normal;vector-effect:none;fill:url(#linearGradient1052);fill-opacity:1;stroke:none;stroke-width:1.125;stroke-linecap:round;stroke-linejoin:round;stroke-miterlimit:4;stroke-dasharray:none;stroke-dashoffset:0;stroke-opacity:1;-inkscape-stroke:none;marker:none;stop-color:#000000"
     id="path8"
     sodipodi:nodetypes="ccccsscc" />
  <path
     color="#000000"
     d="m 6.575359,2.4999993 a 3.3818825,3.49825 0 0 0 -3.27953,2.65213 2.1147339,2.1875 0 0 0 -1.79583,2.16037 2.1147339,2.1875 0 0 0 2.11473,2.1875 h 6.77054 a 2.1147339,2.1875 0 0 0 0,-4.375 H 9.8430494 a 3.3810366,3.497375 0 0 0 -3.2676904,-2.625 z"
     fill="#666"
     fill-rule="evenodd"
     overflow="visible"
     style="isolation:auto;mix-blend-mode:normal;fill:none;stroke:#555761;stroke-width:0.999998;stroke-opacity:0.5"
     id="path337" />
  <path
     color="#000000"
     d="m 8.613959,6.9999993 c -1.51214,0 -2.67939,1.14328 -2.91073,2.59069 -0.9708,0.06 -1.70211,0.6712297 -1.70323,1.8020297 0,0.85183 0.61656,1.60728 1.73738,1.60728 h 6.64703 c 2.08855,0 2.24211,-3.3735197 -0.0854,-3.3735197 h -0.8401 c -0.37246,-1.69763 -1.44484,-2.62387 -2.8449,-2.62648 z"
     fill="#666"
     fill-rule="evenodd"
     overflow="visible"
     style="font-variation-settings:normal;isolation:auto;mix-blend-mode:normal;vector-effect:none;fill:url(#linearGradient9979);fill-opacity:1;stroke:none;stroke-width:1.125;stroke-linecap:round;stroke-linejoin:round;stroke-miterlimit:4;stroke-dasharray:none;stroke-dashoffset:0;stroke-opacity:1;-inkscape-stroke:none;marker:none;stop-color:#000000"
     id="path9975"
     sodipodi:nodetypes="ccccsscc" />
  <path
     color="#000000"
     d="m 8.575359,6.4999993 a 3.3818825,3.49825 0 0 0 -3.27953,2.65213 2.1147339,2.1875 0 0 0 -1.79583,2.1603697 2.1147339,2.1875 0 0 0 2.11473,2.1875 h 6.77054 a 2.1147339,2.1875 0 0 0 0,-4.3749997 H 11.84305 a 3.3810366,3.497375 0 0 0 -3.267691,-2.625 z"
     fill="#666"
     fill-rule="evenodd"
     overflow="visible"
     style="isolation:auto;mix-blend-mode:normal;fill:none;stroke:#555761;stroke-width:0.999998;stroke-opacity:0.5"
     id="path9977" />
</svg>
