<?xml version="1.0" encoding="UTF-8" standalone="no"?>
<svg
   version="1.1"
   id="svg4220"
   viewBox="0 0 90 90"
   height="96"
   width="96"
   sodipodi:docname="input-keyboard.svg"
   inkscape:version="1.1.2 (0a00cf5339, 2022-02-04)"
   xmlns:inkscape="http://www.inkscape.org/namespaces/inkscape"
   xmlns:sodipodi="http://sodipodi.sourceforge.net/DTD/sodipodi-0.dtd"
   xmlns:xlink="http://www.w3.org/1999/xlink"
   xmlns="http://www.w3.org/2000/svg"
   xmlns:svg="http://www.w3.org/2000/svg"
   xmlns:rdf="http://www.w3.org/1999/02/22-rdf-syntax-ns#"
   xmlns:cc="http://creativecommons.org/ns#"
   xmlns:dc="http://purl.org/dc/elements/1.1/">
  <sodipodi:namedview
     id="namedview40"
     pagecolor="#ffffff"
     bordercolor="#666666"
     borderopacity="1.0"
     inkscape:pageshadow="2"
     inkscape:pageopacity="0.0"
     inkscape:pagecheckerboard="0"
     showgrid="false"
     inkscape:zoom="1.8837767"
     inkscape:cx="84.935759"
     inkscape:cy="22.561061"
     inkscape:window-width="1437"
     inkscape:window-height="882"
     inkscape:window-x="558"
     inkscape:window-y="105"
     inkscape:window-maximized="0"
     inkscape:current-layer="svg4220" />
  <defs
     id="defs4222">
    <linearGradient
       id="linearGradient5171">
      <stop
         id="stop5173"
         offset="0"
         style="stop-color:#f8f8f8;stop-opacity:1" />
      <stop
         id="stop5175"
         offset="1"
         style="stop-color:#efeff0;stop-opacity:1" />
    </linearGradient>
    <linearGradient
       y2="41.941765"
       x2="40.290417"
       y1="6.0581441"
       x1="40.290417"
       gradientTransform="matrix(2.305743,0,0,1.2922297,-10.337841,13.986538)"
       gradientUnits="userSpaceOnUse"
       id="linearGradient4088"
       xlink:href="#linearGradient3462" />
    <linearGradient
       id="linearGradient3462">
      <stop
         offset="0"
         style="stop-color:#ffffff;stop-opacity:1"
         id="stop3464" />
      <stop
         offset="0.03457849"
         style="stop-color:#ffffff;stop-opacity:0.23529412"
         id="stop3466" />
      <stop
         offset="0.96375686"
         style="stop-color:#ffffff;stop-opacity:0.15686275"
         id="stop3468" />
      <stop
         offset="1"
         style="stop-color:#ffffff;stop-opacity:0.39215687"
         id="stop3470" />
    </linearGradient>
    <linearGradient
       gradientTransform="matrix(1.9375001,0,0,1.3802082,-1.4999993,8.4245386)"
       gradientUnits="userSpaceOnUse"
       y2="61.171558"
       x2="24.725653"
       y1="7.8793106"
       x1="24.725653"
       id="linearGradient4534"
       xlink:href="#radialGradient4536" />
    <radialGradient
       gradientTransform="matrix(0,1.2316483,-1.625754,0,18.486966,-28.721977)"
       gradientUnits="userSpaceOnUse"
       id="radialGradient4536"
       r="20.396999"
       cy="3.99"
       cx="23.896">
      <stop
         offset="0"
         style="stop-color:#ffffff;stop-opacity:1"
         id="stop4538" />
      <stop
         offset="0.06562372"
         style="stop-color:#dddddd;stop-opacity:1"
         id="stop4540" />
      <stop
         offset="0.66093999"
         style="stop-color:#abacae;stop-opacity:1"
         id="stop4542" />
      <stop
         offset="1"
         style="stop-color:#89898b;stop-opacity:1"
         id="stop4544" />
    </radialGradient>
    <linearGradient
       x1="302.85715"
       y1="366.64789"
       x2="302.85715"
       y2="609.50507"
       id="linearGradient19619"
       xlink:href="#linearGradient5048"
       gradientUnits="userSpaceOnUse"
       gradientTransform="matrix(0.08449704,0,0,0.01235294,-6.5396456,38.470822)" />
    <linearGradient
       id="linearGradient5048">
      <stop
         id="stop5050"
         style="stop-color:#000000;stop-opacity:0"
         offset="0" />
      <stop
         id="stop5056"
         style="stop-color:#000000;stop-opacity:1"
         offset="0.5" />
      <stop
         id="stop5052"
         style="stop-color:#000000;stop-opacity:0"
         offset="1" />
    </linearGradient>
    <radialGradient
       cx="605.71429"
       cy="486.64789"
       r="117.14286"
       fx="605.71429"
       fy="486.64789"
       id="radialGradient19616"
       xlink:href="#linearGradient5060"
       gradientUnits="userSpaceOnUse"
       gradientTransform="matrix(-0.0289166,0,0,0.01235294,21.026894,38.470848)" />
    <linearGradient
       id="linearGradient5060">
      <stop
         id="stop5062"
         style="stop-color:#000000;stop-opacity:1"
         offset="0" />
      <stop
         id="stop5064"
         style="stop-color:#000000;stop-opacity:0"
         offset="1" />
    </linearGradient>
    <radialGradient
       cx="605.71429"
       cy="486.64789"
       r="117.14286"
       fx="605.71429"
       fy="486.64789"
       id="radialGradient19613"
       xlink:href="#linearGradient5060"
       gradientUnits="userSpaceOnUse"
       gradientTransform="matrix(0.02891661,0,0,0.01235294,26.973101,38.470848)" />
    <linearGradient
       inkscape:collect="always"
       xlink:href="#linearGradient5171"
       id="linearGradient4166"
       gradientUnits="userSpaceOnUse"
       gradientTransform="matrix(2.0002957,0,0,1.9993317,100.25308,-14.983574)"
       x1="-19"
       y1="21.974247"
       x2="-19"
       y2="42" />
  </defs>
  <metadata
     id="metadata4225">
    <rdf:RDF>
      <cc:Work
         rdf:about="">
        <dc:format>image/svg+xml</dc:format>
        <dc:type
           rdf:resource="http://purl.org/dc/dcmitype/StillImage" />
      </cc:Work>
    </rdf:RDF>
  </metadata>
  <g
     style="opacity:0.4;stroke-width:0.653198"
     id="g3257"
     transform="matrix(1.875,0,0,1.5625,0,0.3125)">
    <rect
       style="display:inline;overflow:visible;visibility:visible;fill:url(#linearGradient19619);fill-opacity:1;fill-rule:nonzero;stroke:none;stroke-width:0.653198;marker:none"
       id="rect2879"
       y="43"
       x="3.5999999"
       height="2.9999998"
       width="40.799999" />
    <path
       style="display:inline;overflow:visible;visibility:visible;fill:url(#radialGradient19616);fill-opacity:1;fill-rule:nonzero;stroke:none;stroke-width:0.653198;marker:none"
       id="path2881"
       d="m 3.6,43.00013 c 0,0 0,2.999835 0,2.999835 C 2.1108662,46.005612 0,45.327854 0,44.499854 0,43.671856 1.6617608,43.000131 3.6,43.00013 Z" />
    <path
       style="display:inline;overflow:visible;visibility:visible;fill:url(#radialGradient19613);fill-opacity:1;fill-rule:nonzero;stroke:none;stroke-width:0.653198;marker:none"
       id="path2883"
       d="m 44.4,43.00013 c 0,0 0,2.999835 0,2.999835 1.489133,0.0056 3.6,-0.672111 3.6,-1.500111 0,-0.827998 -1.661761,-1.499723 -3.6,-1.499724 z" />
  </g>
  <rect
     style="color:#000000;display:inline;overflow:visible;visibility:visible;fill:url(#linearGradient4534);fill-opacity:1;fill-rule:nonzero;stroke:#000000;stroke-width:0.937502;stroke-miterlimit:4;stroke-dasharray:none;stroke-opacity:0.3;marker:none;enable-background:accumulate"
     id="rect5505-21-3-8-5-2"
     y="20.156252"
     x="1.40625"
     ry="3.0576923"
     rx="2.8822315"
     height="49.687496"
     width="87.1875" />
  <path
     id="path10862"
     style="color:#000000;clip-rule:nonzero;display:inline;overflow:visible;visibility:visible;opacity:0.15;isolation:auto;mix-blend-mode:normal;color-interpolation:sRGB;color-interpolation-filters:linearRGB;solid-color:#000000;solid-opacity:1;fill:none;fill-opacity:1;fill-rule:nonzero;stroke:#000000;stroke-width:0.999994;stroke-linecap:butt;stroke-linejoin:miter;stroke-miterlimit:4;stroke-dasharray:none;stroke-dashoffset:0;stroke-opacity:1;marker:none;color-rendering:auto;image-rendering:auto;shape-rendering:auto;text-rendering:auto;enable-background:accumulate"
     d="m 5.6213379,27.187809 c -0.5194515,0 -0.9338379,0.4179 -0.9338379,0.9375 v 1.875 c 0,0.519399 0.4143864,0.9375 0.9338379,0.9375 H 10.3125 c 0.519452,0 0.9375,-0.418101 0.9375,-0.9375 v -1.875 c 0,-0.5196 -0.418048,-0.9375 -0.9375,-0.9375 z m 8.4375001,0 c -0.519451,0 -0.933838,0.4179 -0.933838,0.9375 v 1.875 c 0,0.519399 0.414387,0.9375 0.933838,0.9375 H 18.75 c 0.519452,0 0.9375,-0.418101 0.9375,-0.9375 v -1.875 c 0,-0.5196 -0.418048,-0.9375 -0.9375,-0.9375 z m 8.4375,0 c -0.519451,0 -0.933838,0.4179 -0.933838,0.9375 v 1.875 c 0,0.519399 0.414387,0.9375 0.933838,0.9375 H 27.1875 c 0.519452,0 0.9375,-0.418101 0.9375,-0.9375 v -1.875 c 0,-0.5196 -0.418048,-0.9375 -0.9375,-0.9375 z m 8.4375,0 c -0.519451,0 -0.933838,0.4179 -0.933838,0.9375 v 1.875 c 0,0.519399 0.414387,0.9375 0.933838,0.9375 H 35.625 c 0.519452,0 0.9375,-0.418101 0.9375,-0.9375 v -1.875 c 0,-0.5196 -0.418048,-0.9375 -0.9375,-0.9375 z m 8.4375,0 c -0.519451,0 -0.933838,0.4179 -0.933838,0.9375 v 1.875 c 0,0.519399 0.414387,0.9375 0.933838,0.9375 H 44.0625 c 0.519452,0 0.9375,-0.418101 0.9375,-0.9375 v -1.875 c 0,-0.5196 -0.418048,-0.9375 -0.9375,-0.9375 z m 8.4375,0 c -0.519451,0 -0.933838,0.4179 -0.933838,0.9375 v 1.875 c 0,0.519399 0.414387,0.9375 0.933838,0.9375 H 52.5 c 0.519452,0 0.9375,-0.418101 0.9375,-0.9375 v -1.875 c 0,-0.5196 -0.418048,-0.9375 -0.9375,-0.9375 z m 8.4375,0 c -0.519451,0 -0.933838,0.4179 -0.933838,0.9375 v 1.875 c 0,0.519399 0.414387,0.9375 0.933838,0.9375 H 60.9375 c 0.519452,0 0.9375,-0.418101 0.9375,-0.9375 v -1.875 c 0,-0.5196 -0.418048,-0.9375 -0.9375,-0.9375 z m 8.4375,0 c -0.519451,0 -0.933838,0.4179 -0.933838,0.9375 v 1.875 c 0,0.519399 0.414387,0.9375 0.933838,0.9375 H 69.375 c 0.519452,0 0.9375,-0.418101 0.9375,-0.9375 v -1.875 c 0,-0.5196 -0.418048,-0.9375 -0.9375,-0.9375 z m 8.4375,0 c -0.519451,0 -0.933838,0.4179 -0.933838,0.9375 v 1.875 c 0,0.519399 0.414387,0.9375 0.933838,0.9375 H 76.875 c 0.519452,0 0.9375,-0.418101 0.9375,-0.9375 v -1.875 c 0,-0.5196 -0.418048,-0.9375 -0.9375,-0.9375 z m 7.5,0 c -0.519451,0 -0.933838,0.4179 -0.933838,0.9375 v 1.875 c 0,0.519399 0.414387,0.9375 0.933838,0.9375 H 84.375 c 0.519452,0 0.9375,-0.418101 0.9375,-0.9375 v -1.875 c 0,-0.5196 -0.418048,-0.9375 -0.9375,-0.9375 z M 5.625,32.812809 c -0.5193745,0 -0.9375,0.418125 -0.9375,0.9375 v 4.6875 c 0,0.519375 0.4181255,0.9375 0.9375,0.9375 h 4.6875 c 0.519375,0 0.9375,-0.418125 0.9375,-0.9375 v -4.6875 c 0,-0.519375 -0.418125,-0.9375 -0.9375,-0.9375 z m 8.4375,0 c -0.519374,0 -0.9375,0.418125 -0.9375,0.9375 v 4.6875 c 0,0.519375 0.418126,0.9375 0.9375,0.9375 H 18.75 c 0.519375,0 0.9375,-0.418125 0.9375,-0.9375 v -4.6875 c 0,-0.519375 -0.418125,-0.9375 -0.9375,-0.9375 z m 8.4375,0 c -0.519374,0 -0.9375,0.418125 -0.9375,0.9375 v 4.6875 c 0,0.519375 0.418126,0.9375 0.9375,0.9375 h 4.6875 c 0.519375,0 0.9375,-0.418125 0.9375,-0.9375 v -4.6875 c 0,-0.519375 -0.418125,-0.9375 -0.9375,-0.9375 z m 8.4375,0 c -0.519374,0 -0.9375,0.418125 -0.9375,0.9375 v 4.6875 c 0,0.519375 0.418126,0.9375 0.9375,0.9375 h 4.6875 c 0.519375,0 0.9375,-0.418125 0.9375,-0.9375 v -4.6875 c 0,-0.519375 -0.418125,-0.9375 -0.9375,-0.9375 z m 8.4375,0 c -0.519374,0 -0.9375,0.418125 -0.9375,0.9375 v 4.6875 c 0,0.519375 0.418126,0.9375 0.9375,0.9375 h 4.6875 c 0.519375,0 0.9375,-0.418125 0.9375,-0.9375 v -4.6875 c 0,-0.519375 -0.418125,-0.9375 -0.9375,-0.9375 z m 8.4375,0 c -0.519374,0 -0.9375,0.418125 -0.9375,0.9375 v 4.6875 c 0,0.519375 0.418126,0.9375 0.9375,0.9375 H 52.5 c 0.519375,0 0.9375,-0.418125 0.9375,-0.9375 v -4.6875 c 0,-0.519375 -0.418125,-0.9375 -0.9375,-0.9375 z m 8.4375,0 c -0.519374,0 -0.9375,0.418125 -0.9375,0.9375 v 4.6875 c 0,0.519375 0.418126,0.9375 0.9375,0.9375 h 4.6875 c 0.519375,0 0.9375,-0.418125 0.9375,-0.9375 v -4.6875 c 0,-0.519375 -0.418125,-0.9375 -0.9375,-0.9375 z m 8.4375,0 c -0.519374,0 -0.9375,0.418125 -0.9375,0.9375 v 4.6875 c 0,0.519375 0.418126,0.9375 0.9375,0.9375 h 4.6875 c 0.519375,0 0.9375,-0.418125 0.9375,-0.9375 v -4.6875 c 0,-0.519375 -0.418125,-0.9375 -0.9375,-0.9375 z m 8.4375,0 c -0.51938,0 -0.9375,0.418125 -0.9375,0.9375 v 4.6875 c 0,0.519375 0.41812,0.9375 0.9375,0.9375 h 11.25 c 0.51938,0 0.9375,-0.418125 0.9375,-0.9375 v -4.6875 c 0,-0.519375 -0.41812,-0.9375 -0.9375,-0.9375 z m -67.5,8.4375 c -0.5193745,0 -0.9375,0.418125 -0.9375,0.9375 v 4.6875 c 0,0.519375 0.4181255,0.9375 0.9375,0.9375 h 8.4375 c 0.519375,0 0.9375,-0.418125 0.9375,-0.9375 v -4.6875 c 0,-0.519375 -0.418125,-0.9375 -0.9375,-0.9375 z m 12.1875,0 c -0.519374,0 -0.9375,0.418125 -0.9375,0.9375 v 4.6875 c 0,0.519375 0.418126,0.9375 0.9375,0.9375 H 22.5 c 0.519375,0 0.9375,-0.418125 0.9375,-0.9375 v -4.6875 c 0,-0.519375 -0.418125,-0.9375 -0.9375,-0.9375 z m 8.4375,0 c -0.519374,0 -0.9375,0.418125 -0.9375,0.9375 v 4.6875 c 0,0.519375 0.418126,0.9375 0.9375,0.9375 h 4.6875 c 0.519375,0 0.9375,-0.418125 0.9375,-0.9375 v -4.6875 c 0,-0.519375 -0.418125,-0.9375 -0.9375,-0.9375 z m 8.4375,0 c -0.519374,0 -0.9375,0.418125 -0.9375,0.9375 v 4.6875 c 0,0.519375 0.418126,0.9375 0.9375,0.9375 h 4.6875 c 0.519375,0 0.9375,-0.418125 0.9375,-0.9375 v -4.6875 c 0,-0.519375 -0.418125,-0.9375 -0.9375,-0.9375 z m 8.4375,0 c -0.519374,0 -0.9375,0.418125 -0.9375,0.9375 v 4.6875 c 0,0.519375 0.418126,0.9375 0.9375,0.9375 h 4.6875 c 0.519375,0 0.9375,-0.418125 0.9375,-0.9375 v -4.6875 c 0,-0.519375 -0.418125,-0.9375 -0.9375,-0.9375 z m 8.4375,0 c -0.519374,0 -0.9375,0.418125 -0.9375,0.9375 v 4.6875 c 0,0.519375 0.418126,0.9375 0.9375,0.9375 H 56.25 c 0.519375,0 0.9375,-0.418125 0.9375,-0.9375 v -4.6875 c 0,-0.519375 -0.418125,-0.9375 -0.9375,-0.9375 z m 8.4375,0 c -0.519374,0 -0.9375,0.418125 -0.9375,0.9375 v 4.6875 c 0,0.519375 0.418126,0.9375 0.9375,0.9375 h 4.6875 c 0.519375,0 0.9375,-0.418125 0.9375,-0.9375 v -4.6875 c 0,-0.519375 -0.418125,-0.9375 -0.9375,-0.9375 z m 8.4375,0 c -0.519374,0 -0.9375,0.418125 -0.9375,0.9375 v 4.6875 c 0,0.519375 0.418126,0.9375 0.9375,0.9375 h 4.6875 c 0.519375,0 0.9375,-0.418125 0.9375,-0.9375 v -4.6875 c 0,-0.519375 -0.418125,-0.9375 -0.9375,-0.9375 z m 8.4375,0 c -0.51938,0 -0.9375,0.418125 -0.9375,0.9375 v 4.6875 c 0,0.519375 0.41812,0.9375 0.9375,0.9375 h 7.5 c 0.51938,0 0.9375,-0.418125 0.9375,-0.9375 v -4.6875 c 0,-0.519375 -0.41812,-0.9375 -0.9375,-0.9375 z m -71.25,8.4375 c -0.5193745,0 -0.9375,0.418125 -0.9375,0.9375 v 4.6875 c 0,0.519375 0.4181255,0.9375 0.9375,0.9375 H 18.75 c 0.519375,0 0.9375,-0.418125 0.9375,-0.9375 v -4.6875 c 0,-0.519375 -0.418125,-0.9375 -0.9375,-0.9375 z m 16.875,0 c -0.519374,0 -0.9375,0.418125 -0.9375,0.9375 v 4.6875 c 0,0.519375 0.418126,0.9375 0.9375,0.9375 h 4.6875 c 0.519375,0 0.9375,-0.418125 0.9375,-0.9375 v -4.6875 c 0,-0.519375 -0.418125,-0.9375 -0.9375,-0.9375 z m 8.4375,0 c -0.519374,0 -0.9375,0.418125 -0.9375,0.9375 v 4.6875 c 0,0.519375 0.418126,0.9375 0.9375,0.9375 h 4.6875 c 0.519375,0 0.9375,-0.418125 0.9375,-0.9375 v -4.6875 c 0,-0.519375 -0.418125,-0.9375 -0.9375,-0.9375 z m 8.4375,0 c -0.519374,0 -0.9375,0.418125 -0.9375,0.9375 v 4.6875 c 0,0.519375 0.418126,0.9375 0.9375,0.9375 h 4.6875 c 0.519375,0 0.9375,-0.418125 0.9375,-0.9375 v -4.6875 c 0,-0.519375 -0.418125,-0.9375 -0.9375,-0.9375 z m 8.4375,0 c -0.519374,0 -0.9375,0.418125 -0.9375,0.9375 v 4.6875 c 0,0.519375 0.418126,0.9375 0.9375,0.9375 H 52.5 c 0.519375,0 0.9375,-0.418125 0.9375,-0.9375 v -4.6875 c 0,-0.519375 -0.418125,-0.9375 -0.9375,-0.9375 z m 8.4375,0 c -0.519374,0 -0.9375,0.418125 -0.9375,0.9375 v 4.6875 c 0,0.519375 0.418126,0.9375 0.9375,0.9375 h 4.6875 c 0.519375,0 0.9375,-0.418125 0.9375,-0.9375 v -4.6875 c 0,-0.519375 -0.418125,-0.9375 -0.9375,-0.9375 z m 8.4375,0 c -0.519374,0 -0.9375,0.418125 -0.9375,0.9375 v 4.6875 c 0,0.519375 0.418126,0.9375 0.9375,0.9375 h 4.6875 c 0.519375,0 0.9375,-0.418125 0.9375,-0.9375 v -4.6875 c 0,-0.519375 -0.418125,-0.9375 -0.9375,-0.9375 z m 8.4375,0 c -0.51938,0 -0.9375,0.418125 -0.9375,0.9375 v 4.6875 c 0,0.519375 0.41812,0.9375 0.9375,0.9375 h 11.25 c 0.51938,0 0.9375,-0.418125 0.9375,-0.9375 v -4.6875 c 0,-0.519375 -0.41812,-0.9375 -0.9375,-0.9375 z m -67.5,8.4375 c -0.5193745,0 -0.9375,0.418125 -0.9375,0.9375 v 4.6875 c 0,0.519375 0.4181255,0.9375 0.9375,0.9375 h 5.625 c 0.519375,0 0.9375,-0.418125 0.9375,-0.9375 v -4.6875 c 0,-0.519375 -0.418125,-0.9375 -0.9375,-0.9375 z m 9.375,0 c -0.519375,0 -0.9375,0.418125 -0.9375,0.9375 v 4.6875 c 0,0.519375 0.418125,0.9375 0.9375,0.9375 h 5.625 c 0.519375,0 0.9375,-0.418125 0.9375,-0.9375 v -4.6875 c 0,-0.519375 -0.418125,-0.9375 -0.9375,-0.9375 z m 9.375,0 c -0.51937,0 -0.9375,0.418126 -0.9375,0.9375 v 4.6875 c 0,0.519375 0.41813,0.9375 0.9375,0.9375 h 41.25 c 0.51938,0 0.9375,-0.418125 0.9375,-0.9375 v -4.6875 c 0,-0.519374 -0.41812,-0.9375 -0.9375,-0.9375 z m 45,0 c -0.519374,0 -0.9375,0.418125 -0.9375,0.9375 v 4.6875 c 0,0.519375 0.418126,0.9375 0.9375,0.9375 H 75 c 0.519375,0 0.9375,-0.418125 0.9375,-0.9375 v -4.6875 c 0,-0.519375 -0.418125,-0.9375 -0.9375,-0.9375 z m 9.375,0 c -0.519375,0 -0.9375,0.418125 -0.9375,0.9375 v 4.6875 c 0,0.519375 0.418125,0.9375 0.9375,0.9375 h 5.625 c 0.519375,0 0.9375,-0.418125 0.9375,-0.9375 v -4.6875 c 0,-0.519375 -0.418125,-0.9375 -0.9375,-0.9375 z" />
  <path
     id="path10475"
     style="color:#000000;clip-rule:nonzero;display:inline;overflow:visible;visibility:visible;opacity:0.2;isolation:auto;mix-blend-mode:normal;color-interpolation:sRGB;color-interpolation-filters:linearRGB;solid-color:#000000;solid-opacity:1;fill:#020202;fill-opacity:1;fill-rule:nonzero;stroke:none;stroke-width:0.999994;stroke-linecap:butt;stroke-linejoin:miter;stroke-miterlimit:4;stroke-dasharray:none;stroke-dashoffset:0;stroke-opacity:1;marker:none;color-rendering:auto;image-rendering:auto;shape-rendering:auto;text-rendering:auto;enable-background:accumulate"
     d="M 5.6213379,28.125 C 5.1018864,28.125 4.6875,28.5429 4.6875,29.0625 v 1.875 c 0,0.519399 0.4143864,0.9375 0.9338379,0.9375 H 10.3125 c 0.519452,0 0.9375,-0.418101 0.9375,-0.9375 v -1.875 c 0,-0.5196 -0.418048,-0.9375 -0.9375,-0.9375 z m 8.4375001,0 c -0.519451,0 -0.933838,0.4179 -0.933838,0.9375 v 1.875 c 0,0.519399 0.414387,0.9375 0.933838,0.9375 H 18.75 c 0.519452,0 0.9375,-0.418101 0.9375,-0.9375 v -1.875 c 0,-0.5196 -0.418048,-0.9375 -0.9375,-0.9375 z m 8.4375,0 c -0.519451,0 -0.933838,0.4179 -0.933838,0.9375 v 1.875 c 0,0.519399 0.414387,0.9375 0.933838,0.9375 H 27.1875 c 0.519452,0 0.9375,-0.418101 0.9375,-0.9375 v -1.875 c 0,-0.5196 -0.418048,-0.9375 -0.9375,-0.9375 z m 8.4375,0 C 30.414387,28.125 30,28.5429 30,29.0625 v 1.875 c 0,0.519399 0.414387,0.9375 0.933838,0.9375 H 35.625 c 0.519452,0 0.9375,-0.418101 0.9375,-0.9375 v -1.875 c 0,-0.5196 -0.418048,-0.9375 -0.9375,-0.9375 z m 8.4375,0 c -0.519451,0 -0.933838,0.4179 -0.933838,0.9375 v 1.875 c 0,0.519399 0.414387,0.9375 0.933838,0.9375 H 44.0625 C 44.581952,31.875 45,31.456899 45,30.9375 v -1.875 C 45,28.5429 44.581952,28.125 44.0625,28.125 Z m 8.4375,0 c -0.519451,0 -0.933838,0.4179 -0.933838,0.9375 v 1.875 c 0,0.519399 0.414387,0.9375 0.933838,0.9375 H 52.5 c 0.519452,0 0.9375,-0.418101 0.9375,-0.9375 v -1.875 c 0,-0.5196 -0.418048,-0.9375 -0.9375,-0.9375 z m 8.4375,0 c -0.519451,0 -0.933838,0.4179 -0.933838,0.9375 v 1.875 c 0,0.519399 0.414387,0.9375 0.933838,0.9375 H 60.9375 c 0.519452,0 0.9375,-0.418101 0.9375,-0.9375 v -1.875 c 0,-0.5196 -0.418048,-0.9375 -0.9375,-0.9375 z m 8.4375,0 C 64.164387,28.125 63.75,28.5429 63.75,29.0625 v 1.875 c 0,0.519399 0.414387,0.9375 0.933838,0.9375 H 69.375 c 0.519452,0 0.9375,-0.418101 0.9375,-0.9375 v -1.875 c 0,-0.5196 -0.418048,-0.9375 -0.9375,-0.9375 z m 8.4375,0 c -0.519451,0 -0.933838,0.4179 -0.933838,0.9375 v 1.875 c 0,0.519399 0.414387,0.9375 0.933838,0.9375 H 76.875 c 0.519452,0 0.9375,-0.418101 0.9375,-0.9375 v -1.875 c 0,-0.5196 -0.418048,-0.9375 -0.9375,-0.9375 z m 7.5,0 c -0.519451,0 -0.933838,0.4179 -0.933838,0.9375 v 1.875 c 0,0.519399 0.414387,0.9375 0.933838,0.9375 H 84.375 c 0.519452,0 0.9375,-0.418101 0.9375,-0.9375 v -1.875 c 0,-0.5196 -0.418048,-0.9375 -0.9375,-0.9375 z M 5.625,33.75 c -0.5193745,0 -0.9375,0.418125 -0.9375,0.9375 v 4.6875 c 0,0.519375 0.4181255,0.9375 0.9375,0.9375 h 4.6875 c 0.519375,0 0.9375,-0.418125 0.9375,-0.9375 v -4.6875 c 0,-0.519375 -0.418125,-0.9375 -0.9375,-0.9375 z m 8.4375,0 c -0.519374,0 -0.9375,0.418125 -0.9375,0.9375 v 4.6875 c 0,0.519375 0.418126,0.9375 0.9375,0.9375 H 18.75 c 0.519375,0 0.9375,-0.418125 0.9375,-0.9375 v -4.6875 c 0,-0.519375 -0.418125,-0.9375 -0.9375,-0.9375 z m 8.4375,0 c -0.519374,0 -0.9375,0.418125 -0.9375,0.9375 v 4.6875 c 0,0.519375 0.418126,0.9375 0.9375,0.9375 h 4.6875 c 0.519375,0 0.9375,-0.418125 0.9375,-0.9375 v -4.6875 c 0,-0.519375 -0.418125,-0.9375 -0.9375,-0.9375 z m 8.4375,0 C 30.418126,33.75 30,34.168125 30,34.6875 v 4.6875 c 0,0.519375 0.418126,0.9375 0.9375,0.9375 h 4.6875 c 0.519375,0 0.9375,-0.418125 0.9375,-0.9375 v -4.6875 c 0,-0.519375 -0.418125,-0.9375 -0.9375,-0.9375 z m 8.4375,0 c -0.519374,0 -0.9375,0.418125 -0.9375,0.9375 v 4.6875 c 0,0.519375 0.418126,0.9375 0.9375,0.9375 h 4.6875 C 44.581875,40.3125 45,39.894375 45,39.375 V 34.6875 C 45,34.168125 44.581875,33.75 44.0625,33.75 Z m 8.4375,0 c -0.519374,0 -0.9375,0.418125 -0.9375,0.9375 v 4.6875 c 0,0.519375 0.418126,0.9375 0.9375,0.9375 H 52.5 c 0.519375,0 0.9375,-0.418125 0.9375,-0.9375 V 34.6875 C 53.4375,34.168125 53.019375,33.75 52.5,33.75 Z m 8.4375,0 c -0.519374,0 -0.9375,0.418125 -0.9375,0.9375 v 4.6875 c 0,0.519375 0.418126,0.9375 0.9375,0.9375 h 4.6875 c 0.519375,0 0.9375,-0.418125 0.9375,-0.9375 v -4.6875 c 0,-0.519375 -0.418125,-0.9375 -0.9375,-0.9375 z m 8.4375,0 c -0.519374,0 -0.9375,0.418125 -0.9375,0.9375 v 4.6875 c 0,0.519375 0.418126,0.9375 0.9375,0.9375 h 4.6875 c 0.519375,0 0.9375,-0.418125 0.9375,-0.9375 v -4.6875 c 0,-0.519375 -0.418125,-0.9375 -0.9375,-0.9375 z m 8.4375,0 c -0.51938,0 -0.9375,0.418125 -0.9375,0.9375 v 4.6875 c 0,0.519375 0.41812,0.9375 0.9375,0.9375 h 11.25 c 0.51938,0 0.9375,-0.418125 0.9375,-0.9375 v -4.6875 c 0,-0.519375 -0.41812,-0.9375 -0.9375,-0.9375 z m -67.5,8.4375 c -0.5193745,0 -0.9375,0.418125 -0.9375,0.9375 v 4.6875 c 0,0.519375 0.4181255,0.9375 0.9375,0.9375 h 8.4375 C 14.581875,48.75 15,48.331875 15,47.8125 V 43.125 c 0,-0.519375 -0.418125,-0.9375 -0.9375,-0.9375 z m 12.1875,0 c -0.519374,0 -0.9375,0.418125 -0.9375,0.9375 v 4.6875 c 0,0.519375 0.418126,0.9375 0.9375,0.9375 H 22.5 c 0.519375,0 0.9375,-0.418125 0.9375,-0.9375 V 43.125 c 0,-0.519375 -0.418125,-0.9375 -0.9375,-0.9375 z m 8.4375,0 c -0.519374,0 -0.9375,0.418125 -0.9375,0.9375 v 4.6875 c 0,0.519375 0.418126,0.9375 0.9375,0.9375 h 4.6875 c 0.519375,0 0.9375,-0.418125 0.9375,-0.9375 V 43.125 c 0,-0.519375 -0.418125,-0.9375 -0.9375,-0.9375 z m 8.4375,0 c -0.519374,0 -0.9375,0.418125 -0.9375,0.9375 v 4.6875 c 0,0.519375 0.418126,0.9375 0.9375,0.9375 h 4.6875 c 0.519375,0 0.9375,-0.418125 0.9375,-0.9375 V 43.125 c 0,-0.519375 -0.418125,-0.9375 -0.9375,-0.9375 z m 8.4375,0 c -0.519374,0 -0.9375,0.418125 -0.9375,0.9375 v 4.6875 c 0,0.519375 0.418126,0.9375 0.9375,0.9375 h 4.6875 c 0.519375,0 0.9375,-0.418125 0.9375,-0.9375 V 43.125 c 0,-0.519375 -0.418125,-0.9375 -0.9375,-0.9375 z m 8.4375,0 c -0.519374,0 -0.9375,0.418125 -0.9375,0.9375 v 4.6875 c 0,0.519375 0.418126,0.9375 0.9375,0.9375 H 56.25 c 0.519375,0 0.9375,-0.418125 0.9375,-0.9375 V 43.125 c 0,-0.519375 -0.418125,-0.9375 -0.9375,-0.9375 z m 8.4375,0 c -0.519374,0 -0.9375,0.418125 -0.9375,0.9375 v 4.6875 c 0,0.519375 0.418126,0.9375 0.9375,0.9375 h 4.6875 c 0.519375,0 0.9375,-0.418125 0.9375,-0.9375 V 43.125 c 0,-0.519375 -0.418125,-0.9375 -0.9375,-0.9375 z m 8.4375,0 c -0.519374,0 -0.9375,0.418125 -0.9375,0.9375 v 4.6875 c 0,0.519375 0.418126,0.9375 0.9375,0.9375 h 4.6875 c 0.519375,0 0.9375,-0.418125 0.9375,-0.9375 V 43.125 c 0,-0.519375 -0.418125,-0.9375 -0.9375,-0.9375 z m 8.4375,0 c -0.51938,0 -0.9375,0.418125 -0.9375,0.9375 v 4.6875 c 0,0.519375 0.41812,0.9375 0.9375,0.9375 h 7.5 c 0.51938,0 0.9375,-0.418125 0.9375,-0.9375 V 43.125 c 0,-0.519375 -0.41812,-0.9375 -0.9375,-0.9375 z M 5.625,50.625 c -0.5193745,0 -0.9375,0.418125 -0.9375,0.9375 V 56.25 c 0,0.519375 0.4181255,0.9375 0.9375,0.9375 H 18.75 c 0.519375,0 0.9375,-0.418125 0.9375,-0.9375 v -4.6875 c 0,-0.519375 -0.418125,-0.9375 -0.9375,-0.9375 z m 16.875,0 c -0.519374,0 -0.9375,0.418125 -0.9375,0.9375 V 56.25 c 0,0.519375 0.418126,0.9375 0.9375,0.9375 h 4.6875 c 0.519375,0 0.9375,-0.418125 0.9375,-0.9375 v -4.6875 c 0,-0.519375 -0.418125,-0.9375 -0.9375,-0.9375 z m 8.4375,0 C 30.418126,50.625 30,51.043125 30,51.5625 V 56.25 c 0,0.519375 0.418126,0.9375 0.9375,0.9375 h 4.6875 c 0.519375,0 0.9375,-0.418125 0.9375,-0.9375 v -4.6875 c 0,-0.519375 -0.418125,-0.9375 -0.9375,-0.9375 z m 8.4375,0 c -0.519374,0 -0.9375,0.418125 -0.9375,0.9375 V 56.25 c 0,0.519375 0.418126,0.9375 0.9375,0.9375 h 4.6875 C 44.581875,57.1875 45,56.769375 45,56.25 V 51.5625 C 45,51.043125 44.581875,50.625 44.0625,50.625 Z m 8.4375,0 c -0.519374,0 -0.9375,0.418125 -0.9375,0.9375 V 56.25 c 0,0.519375 0.418126,0.9375 0.9375,0.9375 H 52.5 c 0.519375,0 0.9375,-0.418125 0.9375,-0.9375 v -4.6875 c 0,-0.519375 -0.418125,-0.9375 -0.9375,-0.9375 z m 8.4375,0 c -0.519374,0 -0.9375,0.418125 -0.9375,0.9375 V 56.25 c 0,0.519375 0.418126,0.9375 0.9375,0.9375 h 4.6875 c 0.519375,0 0.9375,-0.418125 0.9375,-0.9375 v -4.6875 c 0,-0.519375 -0.418125,-0.9375 -0.9375,-0.9375 z m 8.4375,0 c -0.519374,0 -0.9375,0.418125 -0.9375,0.9375 V 56.25 c 0,0.519375 0.418126,0.9375 0.9375,0.9375 h 4.6875 c 0.519375,0 0.9375,-0.418125 0.9375,-0.9375 v -4.6875 c 0,-0.519375 -0.418125,-0.9375 -0.9375,-0.9375 z m 8.4375,0 c -0.51938,0 -0.9375,0.418125 -0.9375,0.9375 V 56.25 c 0,0.519375 0.41812,0.9375 0.9375,0.9375 h 11.25 c 0.51938,0 0.9375,-0.418125 0.9375,-0.9375 v -4.6875 c 0,-0.519375 -0.41812,-0.9375 -0.9375,-0.9375 z m -67.5,8.4375 c -0.5193745,0 -0.9375,0.418125 -0.9375,0.9375 v 4.6875 c 0,0.519375 0.4181255,0.9375 0.9375,0.9375 h 5.625 c 0.519375,0 0.9375,-0.418125 0.9375,-0.9375 V 60 c 0,-0.519375 -0.418125,-0.9375 -0.9375,-0.9375 z m 9.375,0 c -0.519375,0 -0.9375,0.418125 -0.9375,0.9375 v 4.6875 c 0,0.519375 0.418125,0.9375 0.9375,0.9375 h 5.625 c 0.519375,0 0.9375,-0.418125 0.9375,-0.9375 V 60 c 0,-0.519375 -0.418125,-0.9375 -0.9375,-0.9375 z m 9.375,0 c -0.51937,0 -0.9375,0.418126 -0.9375,0.9375 v 4.6875 c 0,0.519375 0.41813,0.9375 0.9375,0.9375 h 41.25 c 0.51938,0 0.9375,-0.418125 0.9375,-0.9375 V 60 c 0,-0.519374 -0.41812,-0.9375 -0.9375,-0.9375 z m 45,0 c -0.519374,0 -0.9375,0.418125 -0.9375,0.9375 v 4.6875 c 0,0.519375 0.418126,0.9375 0.9375,0.9375 H 75 c 0.519375,0 0.9375,-0.418125 0.9375,-0.9375 V 60 c 0,-0.519375 -0.418125,-0.9375 -0.9375,-0.9375 z m 9.375,0 c -0.519375,0 -0.9375,0.418125 -0.9375,0.9375 v 4.6875 c 0,0.519375 0.418125,0.9375 0.9375,0.9375 h 5.625 c 0.519375,0 0.9375,-0.418125 0.9375,-0.9375 V 60 c 0,-0.519375 -0.418125,-0.9375 -0.9375,-0.9375 z" />
  <rect
     style="opacity:0.6;fill:none;stroke:url(#linearGradient4088);stroke-width:0.937501;stroke-linecap:round;stroke-linejoin:round;stroke-miterlimit:4;stroke-dasharray:none;stroke-dashoffset:0;stroke-opacity:1"
     id="rect6741-5-0-2-3"
     y="21.09375"
     x="2.3437505"
     ry="2.2767859"
     rx="2.1507351"
     height="47.8125"
     width="85.3125" />
  <path
     id="path3637"
     style="color:#000000;clip-rule:nonzero;display:inline;overflow:visible;visibility:visible;isolation:auto;mix-blend-mode:normal;color-interpolation:sRGB;color-interpolation-filters:linearRGB;solid-color:#000000;solid-opacity:1;fill:url(#linearGradient4166);fill-opacity:1;fill-rule:nonzero;stroke:none;stroke-width:1.06666;stroke-linecap:butt;stroke-linejoin:miter;stroke-miterlimit:4;stroke-dasharray:none;stroke-dashoffset:0;stroke-opacity:1;marker:none;color-rendering:auto;image-rendering:auto;shape-rendering:auto;text-rendering:auto;enable-background:accumulate"
     d="M 5.9960938 29 C 5.4420122 29 5 29.44576 5 30 L 5 32 C 5 32.554026 5.4420122 33 5.9960938 33 L 11 33 C 11.554082 33 12 32.554026 12 32 L 12 30 C 12 29.44576 11.554082 29 11 29 L 5.9960938 29 z M 14.996094 29 C 14.442013 29 14 29.44576 14 30 L 14 32 C 14 32.554026 14.442013 33 14.996094 33 L 20 33 C 20.554082 33 21 32.554026 21 32 L 21 30 C 21 29.44576 20.554082 29 20 29 L 14.996094 29 z M 23.996094 29 C 23.442013 29 23 29.44576 23 30 L 23 32 C 23 32.554026 23.442013 33 23.996094 33 L 29 33 C 29.554082 33 30 32.554026 30 32 L 30 30 C 30 29.44576 29.554082 29 29 29 L 23.996094 29 z M 32.996094 29 C 32.442013 29 32 29.44576 32 30 L 32 32 C 32 32.554026 32.442013 33 32.996094 33 L 38 33 C 38.554082 33 39 32.554026 39 32 L 39 30 C 39 29.44576 38.554082 29 38 29 L 32.996094 29 z M 41.996094 29 C 41.442013 29 41 29.44576 41 30 L 41 32 C 41 32.554026 41.442013 33 41.996094 33 L 47 33 C 47.554082 33 48 32.554026 48 32 L 48 30 C 48 29.44576 47.554082 29 47 29 L 41.996094 29 z M 50.996094 29 C 50.442013 29 50 29.44576 50 30 L 50 32 C 50 32.554026 50.442013 33 50.996094 33 L 56 33 C 56.554082 33 57 32.554026 57 32 L 57 30 C 57 29.44576 56.554082 29 56 29 L 50.996094 29 z M 59.996094 29 C 59.442013 29 59 29.44576 59 30 L 59 32 C 59 32.554026 59.442013 33 59.996094 33 L 65 33 C 65.554082 33 66 32.554026 66 32 L 66 30 C 66 29.44576 65.554082 29 65 29 L 59.996094 29 z M 68.996094 29 C 68.442013 29 68 29.44576 68 30 L 68 32 C 68 32.554026 68.442013 33 68.996094 33 L 74 33 C 74.554082 33 75 32.554026 75 32 L 75 30 C 75 29.44576 74.554082 29 74 29 L 68.996094 29 z M 77.996094 29 C 77.442013 29 77 29.44576 77 30 L 77 32 C 77 32.554026 77.442013 33 77.996094 33 L 82 33 C 82.554082 33 83 32.554026 83 32 L 83 30 C 83 29.44576 82.554082 29 82 29 L 77.996094 29 z M 85.996094 29 C 85.442013 29 85 29.44576 85 30 L 85 32 C 85 32.554026 85.442013 33 85.996094 33 L 90 33 C 90.554082 33 91 32.554026 91 32 L 91 30 C 91 29.44576 90.554082 29 90 29 L 85.996094 29 z M 6 35 C 5.4460005 35 5 35.446 5 36 L 5 41 C 5 41.554 5.4460005 42 6 42 L 11 42 C 11.554 42 12 41.554 12 41 L 12 36 C 12 35.446 11.554 35 11 35 L 6 35 z M 15 35 C 14.446001 35 14 35.446 14 36 L 14 41 C 14 41.554 14.446001 42 15 42 L 20 42 C 20.554 42 21 41.554 21 41 L 21 36 C 21 35.446 20.554 35 20 35 L 15 35 z M 24 35 C 23.446001 35 23 35.446 23 36 L 23 41 C 23 41.554 23.446001 42 24 42 L 29 42 C 29.554 42 30 41.554 30 41 L 30 36 C 30 35.446 29.554 35 29 35 L 24 35 z M 33 35 C 32.446001 35 32 35.446 32 36 L 32 41 C 32 41.554 32.446001 42 33 42 L 38 42 C 38.554 42 39 41.554 39 41 L 39 36 C 39 35.446 38.554 35 38 35 L 33 35 z M 42 35 C 41.446001 35 41 35.446 41 36 L 41 41 C 41 41.554 41.446001 42 42 42 L 47 42 C 47.554 42 48 41.554 48 41 L 48 36 C 48 35.446 47.554 35 47 35 L 42 35 z M 51 35 C 50.446001 35 50 35.446 50 36 L 50 41 C 50 41.554 50.446001 42 51 42 L 56 42 C 56.554 42 57 41.554 57 41 L 57 36 C 57 35.446 56.554 35 56 35 L 51 35 z M 60 35 C 59.446001 35 59 35.446 59 36 L 59 41 C 59 41.554 59.446001 42 60 42 L 65 42 C 65.554 42 66 41.554 66 41 L 66 36 C 66 35.446 65.554 35 65 35 L 60 35 z M 69 35 C 68.446001 35 68 35.446 68 36 L 68 41 C 68 41.554 68.446001 42 69 42 L 74 42 C 74.554 42 75 41.554 75 41 L 75 36 C 75 35.446 74.554 35 74 35 L 69 35 z M 78 35 C 77.445995 35 77 35.446 77 36 L 77 41 C 77 41.554 77.445995 42 78 42 L 90 42 C 90.554005 42 91 41.554 91 41 L 91 36 C 91 35.446 90.554005 35 90 35 L 78 35 z M 6 44 C 5.4460005 44 5 44.446 5 45 L 5 50 C 5 50.554 5.4460005 51 6 51 L 15 51 C 15.554 51 16 50.554 16 50 L 16 45 C 16 44.446 15.554 44 15 44 L 6 44 z M 19 44 C 18.446001 44 18 44.446 18 45 L 18 50 C 18 50.554 18.446001 51 19 51 L 24 51 C 24.554 51 25 50.554 25 50 L 25 45 C 25 44.446 24.554 44 24 44 L 19 44 z M 28 44 C 27.446001 44 27 44.446 27 45 L 27 50 C 27 50.554 27.446001 51 28 51 L 33 51 C 33.554 51 34 50.554 34 50 L 34 45 C 34 44.446 33.554 44 33 44 L 28 44 z M 37 44 C 36.446001 44 36 44.446 36 45 L 36 50 C 36 50.554 36.446001 51 37 51 L 42 51 C 42.554 51 43 50.554 43 50 L 43 45 C 43 44.446 42.554 44 42 44 L 37 44 z M 46 44 C 45.446001 44 45 44.446 45 45 L 45 50 C 45 50.554 45.446001 51 46 51 L 51 51 C 51.554 51 52 50.554 52 50 L 52 45 C 52 44.446 51.554 44 51 44 L 46 44 z M 55 44 C 54.446001 44 54 44.446 54 45 L 54 50 C 54 50.554 54.446001 51 55 51 L 60 51 C 60.554 51 61 50.554 61 50 L 61 45 C 61 44.446 60.554 44 60 44 L 55 44 z M 64 44 C 63.446001 44 63 44.446 63 45 L 63 50 C 63 50.554 63.446001 51 64 51 L 69 51 C 69.554 51 70 50.554 70 50 L 70 45 C 70 44.446 69.554 44 69 44 L 64 44 z M 73 44 C 72.446001 44 72 44.446 72 45 L 72 50 C 72 50.554 72.446001 51 73 51 L 78 51 C 78.554 51 79 50.554 79 50 L 79 45 C 79 44.446 78.554 44 78 44 L 73 44 z M 82 44 C 81.445995 44 81 44.446 81 45 L 81 50 C 81 50.554 81.445995 51 82 51 L 90 51 C 90.554005 51 91 50.554 91 50 L 91 45 C 91 44.446 90.554005 44 90 44 L 82 44 z M 6 53 C 5.4460005 53 5 53.446 5 54 L 5 59 C 5 59.554 5.4460005 60 6 60 L 20 60 C 20.554 60 21 59.554 21 59 L 21 54 C 21 53.446 20.554 53 20 53 L 6 53 z M 24 53 C 23.446001 53 23 53.446 23 54 L 23 59 C 23 59.554 23.446001 60 24 60 L 29 60 C 29.554 60 30 59.554 30 59 L 30 54 C 30 53.446 29.554 53 29 53 L 24 53 z M 33 53 C 32.446001 53 32 53.446 32 54 L 32 59 C 32 59.554 32.446001 60 33 60 L 38 60 C 38.554 60 39 59.554 39 59 L 39 54 C 39 53.446 38.554 53 38 53 L 33 53 z M 42 53 C 41.446001 53 41 53.446 41 54 L 41 59 C 41 59.554 41.446001 60 42 60 L 47 60 C 47.554 60 48 59.554 48 59 L 48 54 C 48 53.446 47.554 53 47 53 L 42 53 z M 51 53 C 50.446001 53 50 53.446 50 54 L 50 59 C 50 59.554 50.446001 60 51 60 L 56 60 C 56.554 60 57 59.554 57 59 L 57 54 C 57 53.446 56.554 53 56 53 L 51 53 z M 60 53 C 59.446001 53 59 53.446 59 54 L 59 59 C 59 59.554 59.446001 60 60 60 L 65 60 C 65.554 60 66 59.554 66 59 L 66 54 C 66 53.446 65.554 53 65 53 L 60 53 z M 69 53 C 68.446001 53 68 53.446 68 54 L 68 59 C 68 59.554 68.446001 60 69 60 L 74 60 C 74.554 60 75 59.554 75 59 L 75 54 C 75 53.446 74.554 53 74 53 L 69 53 z M 78 53 C 77.445995 53 77 53.446 77 54 L 77 59 C 77 59.554 77.445995 60 78 60 L 90 60 C 90.554005 60 91 59.554 91 59 L 91 54 C 91 53.446 90.554005 53 90 53 L 78 53 z M 6 62 C 5.4460005 62 5 62.446 5 63 L 5 68 C 5 68.554 5.4460005 69 6 69 L 12 69 C 12.554 69 13 68.554 13 68 L 13 63 C 13 62.446 12.554 62 12 62 L 6 62 z M 16 62 C 15.446 62 15 62.446 15 63 L 15 68 C 15 68.554 15.446 69 16 69 L 22 69 C 22.554 69 23 68.554 23 68 L 23 63 C 23 62.446 22.554 62 22 62 L 16 62 z M 26 62 C 25.446005 62 25 62.446001 25 63 L 25 68 C 25 68.554 25.446005 69 26 69 L 70 69 C 70.554005 69 71 68.554 71 68 L 71 63 C 71 62.446001 70.554005 62 70 62 L 26 62 z M 74 62 C 73.446001 62 73 62.446 73 63 L 73 68 C 73 68.554 73.446001 69 74 69 L 80 69 C 80.554 69 81 68.554 81 68 L 81 63 C 81 62.446 80.554 62 80 62 L 74 62 z M 84 62 C 83.446 62 83 62.446 83 63 L 83 68 C 83 68.554 83.446 69 84 69 L 90 69 C 90.554 69 91 68.554 91 68 L 91 63 C 91 62.446 90.554 62 90 62 L 84 62 z "
     transform="scale(0.9375)" />
</svg>
