<?xml version="1.0" encoding="UTF-8" standalone="no"?>
<svg
   id="svg3810"
   height="16"
   width="16"
   version="1.1"
   sodipodi:docname="application-x-shellscript.svg"
   inkscape:version="1.1.2 (0a00cf5339, 2022-02-04)"
   xmlns:inkscape="http://www.inkscape.org/namespaces/inkscape"
   xmlns:sodipodi="http://sodipodi.sourceforge.net/DTD/sodipodi-0.dtd"
   xmlns:xlink="http://www.w3.org/1999/xlink"
   xmlns="http://www.w3.org/2000/svg"
   xmlns:svg="http://www.w3.org/2000/svg"
   xmlns:rdf="http://www.w3.org/1999/02/22-rdf-syntax-ns#"
   xmlns:cc="http://creativecommons.org/ns#"
   xmlns:dc="http://purl.org/dc/elements/1.1/">
  <sodipodi:namedview
     id="namedview24"
     pagecolor="#ffffff"
     bordercolor="#666666"
     borderopacity="1.0"
     inkscape:pageshadow="2"
     inkscape:pageopacity="0.0"
     inkscape:pagecheckerboard="0"
     showgrid="false"
     inkscape:zoom="32"
     inkscape:cx="10.875"
     inkscape:cy="11.78125"
     inkscape:window-width="1396"
     inkscape:window-height="955"
     inkscape:window-x="417"
     inkscape:window-y="73"
     inkscape:window-maximized="0"
     inkscape:current-layer="svg3810" />
  <defs
     id="defs3812">
    <linearGradient
       gradientTransform="matrix(0.24324324,0,0,0.35135133,2.1621636,-0.43242804)"
       gradientUnits="userSpaceOnUse"
       xlink:href="#linearGradient3977"
       id="linearGradient3988"
       y2="41.076912"
       x2="23.99999"
       y1="6.9230647"
       x1="23.99999" />
    <linearGradient
       id="linearGradient3977">
      <stop
         offset="0"
         style="stop-color:#ffffff;stop-opacity:1"
         id="stop3979" />
      <stop
         offset="0"
         style="stop-color:#ffffff;stop-opacity:0.23529412"
         id="stop3981" />
      <stop
         offset="1"
         style="stop-color:#ffffff;stop-opacity:0.15686275"
         id="stop3983" />
      <stop
         offset="1"
         style="stop-color:#ffffff;stop-opacity:0.39215687"
         id="stop3985" />
    </linearGradient>
    <linearGradient
       id="linearGradient3600">
      <stop
         offset="0"
         style="stop-color:#f4f4f4;stop-opacity:1"
         id="stop3602" />
      <stop
         offset="1"
         style="stop-color:#dbdbdb;stop-opacity:1"
         id="stop3604" />
    </linearGradient>
    <linearGradient
       gradientTransform="matrix(0.28571361,0,0,0.30419701,1.1428727,0.2326048)"
       gradientUnits="userSpaceOnUse"
       xlink:href="#linearGradient3600"
       id="linearGradient3806"
       y2="47.013336"
       x2="25.132275"
       y1="0.98520643"
       x1="25.132275" />
    <linearGradient
       id="linearGradient3104-9">
      <stop
         offset="0"
         style="stop-color:#000000;stop-opacity:0.33950618"
         id="stop3106-5" />
      <stop
         offset="1"
         style="stop-color:#000000;stop-opacity:0.24691358"
         id="stop3108-5" />
    </linearGradient>
    <linearGradient
       gradientTransform="matrix(0.25378586,0,0,0.30501865,19.128979,-0.68547704)"
       gradientUnits="userSpaceOnUse"
       xlink:href="#linearGradient3104-9"
       id="linearGradient3019"
       y2="2.9062471"
       x2="-51.786404"
       y1="50.786446"
       x1="-51.786404" />
    <linearGradient
       xlink:href="#linearGradient3680-6-6-6-3-7"
       id="linearGradient3018-5"
       gradientUnits="userSpaceOnUse"
       gradientTransform="matrix(0.49807674,0,0,0.49807674,0.02425194,-0.949622)"
       x1="20"
       y1="26.000008"
       x2="20"
       y2="13.000008" />
    <linearGradient
       id="linearGradient3680-6-6-6-3-7">
      <stop
         id="stop3682-4-6-1-3-7"
         style="stop-color:#dcdcdc;stop-opacity:1"
         offset="0" />
      <stop
         id="stop3684-8-5-8-0-2"
         style="stop-color:#ffffff;stop-opacity:1"
         offset="1" />
    </linearGradient>
  </defs>
  <metadata
     id="metadata3815">
    <rdf:RDF>
      <cc:Work
         rdf:about="">
        <dc:format>image/svg+xml</dc:format>
        <dc:type
           rdf:resource="http://purl.org/dc/dcmitype/StillImage" />
      </cc:Work>
    </rdf:RDF>
  </metadata>
  <g
     id="layer1">
    <path
       style="fill:url(#linearGradient3806);fill-opacity:1;stroke:none;display:inline"
       id="path4160"
       d="m 3,1 c 2.2915074,0 9.999988,8.904e-4 9.999988,8.904e-4 L 13,15 C 13,15 6.3333332,15 3,15 3,10.333334 3,5.6666664 3,1 z" />
    <path
       style="fill:none;stroke:url(#linearGradient3988);stroke-width:1;stroke-linecap:round;stroke-linejoin:miter;stroke-miterlimit:4;stroke-opacity:1;stroke-dasharray:none;stroke-dashoffset:0"
       id="rect6741-1"
       d="m 12.5,14.5 -9.0000001,0 0,-13 L 12.5,1.5 z" />
    <path
       style="fill:none;stroke:url(#linearGradient3019);stroke-width:0.99992192;stroke-linecap:butt;stroke-linejoin:round;stroke-miterlimit:4;stroke-opacity:1;stroke-dasharray:none;stroke-dashoffset:0;display:inline"
       id="path4160-8"
       d="m 2.4999621,0.49997396 c 2.5206756,0 11.0000629,9.54e-4 11.0000629,9.54e-4 l 1.3e-5,14.99909804 c 0,0 -7.3333841,0 -11.000076,0 0,-5.000017 0,-10.000035 0,-15.00005204 z" />
  </g>
  <g
     style="fill:#999999;stroke-width:2.66666"
     id="g12"
     transform="matrix(0.075,0,0,0.075,0,3)" />
  <rect
     style="fill:#4d4d4d;fill-opacity:1;stroke-width:0.0999996;stroke-linecap:round;stroke-linejoin:round;paint-order:markers fill stroke"
     id="rect880"
     width="8"
     height="8"
     x="4"
     y="4"
     rx="1"
     ry="1" />
  <path
     style="color:#000000;font-style:normal;font-variant:normal;font-weight:bold;font-stretch:normal;font-size:14.3117px;line-height:125%;font-family:'Open Sans';-inkscape-font-specification:'Open Sans Bold';letter-spacing:0px;word-spacing:0px;display:inline;overflow:visible;visibility:visible;fill:url(#linearGradient3018-5);fill-opacity:1;fill-rule:nonzero;stroke:none;marker:none;enable-background:accumulate"
     d="M 6.4992495,5.252 V 5.7656416 C 6.0904775,5.8046956 5.6960775,5.9067124 5.3785769,6.170329 4.9228806,6.5225235 4.8881144,7.2261739 5.2229279,7.6645592 5.5466625,8.0573525 6.0294025,8.2342225 6.4992495,8.4116743 V 9.4700875 C 5.9753635,9.4272925 5.4810552,9.2957535 5.0050193,9.0809645 v 0.8872 c 0.4764752,0.2021825 0.9762662,0.2856025 1.4942302,0.2957335 v 0.684855 h 0.498077 v -0.70042 c 0.317055,-0.02849 0.65316,-0.08376 0.933894,-0.233474 0.389994,-0.1914695 0.655504,-0.6034455 0.63816,-1.0272835 0.0016,-0.2049207 -0.06506,-0.4061223 -0.186778,-0.5759012 C 8.0570085,7.9772 7.4885585,7.8003483 6.9973265,7.6022996 V 6.5905812 c 0.389481,0.031678 0.790462,0.121335 1.151802,0.2646033 L 8.4759915,6.0613747 C 8.0145825,5.8637055 7.5003675,5.7707469 6.9973265,5.7500767 V 5.252 Z m 0,1.3541461 v 0.8093747 c -0.198306,-0.087216 -0.429272,-0.2022729 -0.420252,-0.451382 -0.0093,-0.235146 0.2195,-0.33538 0.420252,-0.3579927 z m 0.498077,1.992307 c 0.196674,0.095979 0.493644,0.1856994 0.498077,0.4358174 0.011301,0.255227 -0.275429,0.375017 -0.498077,0.404687 z M 8,10 v 1 h 3 v -1 z"
     id="text3905-9"
     sodipodi:nodetypes="ccccccccccccccccccccccccccccccccccc" />
</svg>
