<?xml version="1.0" encoding="UTF-8" standalone="no"?>
<svg
   id="svg3810"
   height="16"
   width="16"
   version="1.1"
   sodipodi:docname="application-x-perl.svg"
   inkscape:version="1.1.2 (0a00cf5339, 2022-02-04)"
   xmlns:inkscape="http://www.inkscape.org/namespaces/inkscape"
   xmlns:sodipodi="http://sodipodi.sourceforge.net/DTD/sodipodi-0.dtd"
   xmlns:xlink="http://www.w3.org/1999/xlink"
   xmlns="http://www.w3.org/2000/svg"
   xmlns:svg="http://www.w3.org/2000/svg"
   xmlns:rdf="http://www.w3.org/1999/02/22-rdf-syntax-ns#"
   xmlns:cc="http://creativecommons.org/ns#"
   xmlns:dc="http://purl.org/dc/elements/1.1/">
  <sodipodi:namedview
     id="namedview24"
     pagecolor="#ffffff"
     bordercolor="#666666"
     borderopacity="1.0"
     inkscape:pageshadow="2"
     inkscape:pageopacity="0.0"
     inkscape:pagecheckerboard="0"
     showgrid="false"
     inkscape:zoom="32"
     inkscape:cx="8.296875"
     inkscape:cy="6.78125"
     inkscape:window-width="1396"
     inkscape:window-height="955"
     inkscape:window-x="552"
     inkscape:window-y="61"
     inkscape:window-maximized="0"
     inkscape:current-layer="svg3810" />
  <defs
     id="defs3812">
    <linearGradient
       gradientTransform="matrix(0.24324324,0,0,0.35135133,2.1621636,-0.43242804)"
       gradientUnits="userSpaceOnUse"
       xlink:href="#linearGradient3977"
       id="linearGradient3988"
       y2="41.076912"
       x2="23.99999"
       y1="6.9230647"
       x1="23.99999" />
    <linearGradient
       id="linearGradient3977">
      <stop
         offset="0"
         style="stop-color:#ffffff;stop-opacity:1"
         id="stop3979" />
      <stop
         offset="0"
         style="stop-color:#ffffff;stop-opacity:0.23529412"
         id="stop3981" />
      <stop
         offset="1"
         style="stop-color:#ffffff;stop-opacity:0.15686275"
         id="stop3983" />
      <stop
         offset="1"
         style="stop-color:#ffffff;stop-opacity:0.39215687"
         id="stop3985" />
    </linearGradient>
    <linearGradient
       id="linearGradient3600">
      <stop
         offset="0"
         style="stop-color:#f4f4f4;stop-opacity:1"
         id="stop3602" />
      <stop
         offset="1"
         style="stop-color:#dbdbdb;stop-opacity:1"
         id="stop3604" />
    </linearGradient>
    <linearGradient
       gradientTransform="matrix(0.28571361,0,0,0.30419701,1.1428727,0.2326048)"
       gradientUnits="userSpaceOnUse"
       xlink:href="#linearGradient3600"
       id="linearGradient3806"
       y2="47.013336"
       x2="25.132275"
       y1="0.98520643"
       x1="25.132275" />
    <linearGradient
       id="linearGradient3104-9">
      <stop
         offset="0"
         style="stop-color:#000000;stop-opacity:0.33950618"
         id="stop3106-5" />
      <stop
         offset="1"
         style="stop-color:#000000;stop-opacity:0.24691358"
         id="stop3108-5" />
    </linearGradient>
    <linearGradient
       gradientTransform="matrix(0.25378586,0,0,0.30501865,19.128979,-0.68547704)"
       gradientUnits="userSpaceOnUse"
       xlink:href="#linearGradient3104-9"
       id="linearGradient3019"
       y2="2.9062471"
       x2="-51.786404"
       y1="50.786446"
       x1="-51.786404" />
  </defs>
  <metadata
     id="metadata3815">
    <rdf:RDF>
      <cc:Work
         rdf:about="">
        <dc:format>image/svg+xml</dc:format>
        <dc:type
           rdf:resource="http://purl.org/dc/dcmitype/StillImage" />
      </cc:Work>
    </rdf:RDF>
  </metadata>
  <g
     id="layer1">
    <path
       style="fill:url(#linearGradient3806);fill-opacity:1;stroke:none;display:inline"
       id="path4160"
       d="m 3,1 c 2.2915074,0 9.999988,8.904e-4 9.999988,8.904e-4 L 13,15 C 13,15 6.3333332,15 3,15 3,10.333334 3,5.6666664 3,1 z" />
    <path
       style="fill:none;stroke:url(#linearGradient3988);stroke-width:1;stroke-linecap:round;stroke-linejoin:miter;stroke-miterlimit:4;stroke-opacity:1;stroke-dasharray:none;stroke-dashoffset:0"
       id="rect6741-1"
       d="m 12.5,14.5 -9.0000001,0 0,-13 L 12.5,1.5 z" />
    <path
       style="fill:none;stroke:url(#linearGradient3019);stroke-width:0.99992192;stroke-linecap:butt;stroke-linejoin:round;stroke-miterlimit:4;stroke-opacity:1;stroke-dasharray:none;stroke-dashoffset:0;display:inline"
       id="path4160-8"
       d="m 2.4999621,0.49997396 c 2.5206756,0 11.0000629,9.54e-4 11.0000629,9.54e-4 l 1.3e-5,14.99909804 c 0,0 -7.3333841,0 -11.000076,0 0,-5.000017 0,-10.000035 0,-15.00005204 z" />
  </g>
  <g
     style="fill:#999999;stroke-width:2.66666"
     id="g12"
     transform="matrix(0.075,0,0,0.075,0,3)" />
  <path
     id="path925-6"
     style="display:inline;fill:#8cd5ff;fill-opacity:0.2;fill-rule:evenodd;stroke:none;stroke-width:2;stroke-linecap:round;stroke-linejoin:round;stroke-miterlimit:4;stroke-dasharray:none;stroke-opacity:1;enable-background:new"
     d="M 3.7206308,3.3049 C 3.3869637,3.30873 3.1611029,3.378137 3.1611029,3.378137 c 0,0 0.6192976,2.0265289 1.7806509,1.8258693 L 5.0536595,4.7854214 C 5.0427325,5.7558009 5.3755956,6.9462298 5.4865252,7.3149322 5.1155211,8.2841081 4.5991003,9.8473257 4.756065,10.704348 c 0.1226522,0.669679 0.3712815,1.183487 0.8269938,1.542708 h -0.060564 c 0,0.801233 0.6873817,0.963129 2.4776019,0.963129 1.8811454,0 2.4776013,-0.03803 2.4776013,-0.963129 h -0.06056 c 0.455708,-0.359221 0.704337,-0.873029 0.826992,-1.542708 0.156961,-0.8570223 -0.359461,-2.4202399 -0.730465,-3.3894158 0.110929,-0.3687024 0.44379,-1.5591313 0.432865,-2.5295108 l 0.111906,0.418585 c 1.161353,0.2006596 1.780652,-1.8258694 1.780652,-1.8258694 0,0 -1.137502,-0.3474189 -2.076402,0.4747767 C 10.584348,3.5298252 10.15378,3.3049 9.8582209,3.3049 H 6.1419713 C 5.8464098,3.3049 5.4158419,3.5298252 5.2375042,3.8529137 4.7170797,3.397177 4.1355867,3.3001238 3.7206308,3.3049 Z"
     sodipodi:nodetypes="sccccscccccsccccccccs" />
  <path
     sodipodi:nodetypes="csscccccc"
     inkscape:connector-curvature="0"
     id="path1039"
     d="m 5.9509123,6.3314888 c 0,0 -1.4995046,2.9761722 -1.2646864,4.2237912 0.1633083,0.86766 0.6879263,1.303379 1.5020549,1.628156 0.4825712,0.192505 1.8998539,-0.308005 1.8998539,-0.308005 L 7.9069663,9.7194564 h 0.1811535 v 0 c 0,0 -0.9119802,-0.4042479 -1.160052,-1.9634845 0,0 0.1717436,1.4822391 0.4198084,1.5207332"
     style="display:inline;fill:none;fill-rule:evenodd;stroke:#3689e6;stroke-width:0.5;stroke-linecap:round;stroke-linejoin:round;stroke-miterlimit:4;stroke-dasharray:none;stroke-opacity:1;enable-background:new" />
  <path
     sodipodi:nodetypes="ccc"
     inkscape:connector-curvature="0"
     id="path1041"
     d="M 5.5410311,3.9681739 C 4.6059991,3.121182 3.3175675,3.4676807 3.3175675,3.4676807 c 0,0 0.6106306,1.9442303 1.7555631,1.7517336"
     style="display:inline;fill:none;fill-rule:evenodd;stroke:#3689e6;stroke-width:0.5;stroke-linecap:butt;stroke-linejoin:miter;stroke-miterlimit:4;stroke-dasharray:none;stroke-opacity:1;enable-background:new" />
  <path
     sodipodi:nodetypes="csc"
     inkscape:connector-curvature="0"
     id="path1043"
     d="m 5.5776501,11.875431 c -0.3053154,1.231994 0.5772548,1.245183 2.5104697,1.245183 1.9332152,0 2.8157842,-0.01321 2.5104692,-1.245183"
     style="display:inline;fill:none;fill-rule:evenodd;stroke:#3689e6;stroke-width:0.5;stroke-linecap:round;stroke-linejoin:round;stroke-miterlimit:4;stroke-dasharray:none;stroke-opacity:1;enable-background:new" />
  <path
     sodipodi:nodetypes="ccsc"
     inkscape:connector-curvature="0"
     id="path1045"
     d="m 6.2444812,4.6564151 c 0.856777,-0.4014823 1.7673306,0.090723 1.7365872,0.1410749 0,0 -0.295848,1.0963001 -0.9951302,0.9895355 C 6.3309059,5.6869723 6.2450331,4.9370469 6.2444812,4.6564151 Z"
     style="display:inline;fill:#3689e6;fill-opacity:1;fill-rule:evenodd;stroke:none;stroke-width:0.5;stroke-linecap:butt;stroke-linejoin:round;stroke-miterlimit:4;stroke-dasharray:none;stroke-opacity:1;enable-background:new" />
  <path
     style="display:inline;fill:none;fill-rule:evenodd;stroke:#3689e6;stroke-width:0.5;stroke-linecap:butt;stroke-linejoin:miter;stroke-miterlimit:4;stroke-dasharray:none;stroke-opacity:1;enable-background:new"
     d="m 10.356455,7.2554778 v 0 c 0,0 0.790277,-2.3649473 0.305315,-3.3879675 C 10.503463,3.5335622 10.051139,3.25151 9.745824,3.25151 9.1267734,3.25151 9.0040658,3.25 8.0881198,3.25 c -0.9159459,0 -1.0884202,0.00151 -1.7074715,0.00151 -0.3053153,0 -0.7576394,0.2820522 -0.915946,0.6160003 -0.4849614,1.0230202 0.1808946,3.3879675 0.1808946,3.3879675 v 0"
     id="path1049"
     inkscape:connector-curvature="0"
     sodipodi:nodetypes="ccsscsscc" />
  <path
     style="display:inline;fill:none;fill-rule:evenodd;stroke:#3689e6;stroke-width:0.5;stroke-linecap:round;stroke-linejoin:round;stroke-miterlimit:4;stroke-dasharray:none;stroke-opacity:1;enable-background:new"
     d="m 10.051139,6.3314888 c 0,0 1.651043,2.9305177 1.416226,4.1781292 -0.163308,0.867666 -0.665278,1.349041 -1.4794062,1.673818 -0.482571,0.192505 -1.8998241,-0.308005 -1.8998241,-0.308005 L 8.2693114,9.7194564 H 8.0881198 v 0 c 0,0 0.8881889,-0.4042479 1.1362537,-1.9634845 0,0 -0.1717365,1.4822391 -0.4198091,1.5207332"
     id="path1051"
     inkscape:connector-curvature="0"
     sodipodi:nodetypes="csscccccc" />
  <path
     style="display:inline;fill:none;fill-rule:evenodd;stroke:#3689e6;stroke-width:0.5;stroke-linecap:butt;stroke-linejoin:miter;stroke-miterlimit:4;stroke-dasharray:none;stroke-opacity:1;enable-background:new"
     d="m 10.585441,3.9681663 c 0.935025,-0.8469919 2.099043,-0.5005008 2.099043,-0.5005008 0,0 -0.61063,1.944238 -1.755563,1.7517336"
     id="path1053"
     inkscape:connector-curvature="0"
     sodipodi:nodetypes="ccc" />
  <path
     sodipodi:nodetypes="ccsc"
     inkscape:connector-curvature="0"
     id="path1359"
     d="M 9.724475,4.6564151 C 8.867698,4.2549328 7.9571444,4.7471381 7.9878878,4.79749 c 0,0 0.295848,1.0963001 0.9951302,0.9895355 C 9.6380503,5.6869723 9.7239231,4.9370469 9.724475,4.6564151 Z"
     style="display:inline;fill:#3689e6;fill-opacity:1;fill-rule:evenodd;stroke:none;stroke-width:0.5;stroke-linecap:butt;stroke-linejoin:round;stroke-miterlimit:4;stroke-dasharray:none;stroke-opacity:1;enable-background:new" />
</svg>
