<?xml version="1.0" encoding="UTF-8" standalone="no"?>
<svg
   height="16"
   version="1"
   viewBox="0 0 16 16"
   width="16"
   id="svg97"
   sodipodi:docname="application-vnd.appimage1.svg"
   inkscape:version="1.1.1 (3bf5ae0d25, 2021-09-20)"
   xmlns:inkscape="http://www.inkscape.org/namespaces/inkscape"
   xmlns:sodipodi="http://sodipodi.sourceforge.net/DTD/sodipodi-0.dtd"
   xmlns:xlink="http://www.w3.org/1999/xlink"
   xmlns="http://www.w3.org/2000/svg"
   xmlns:svg="http://www.w3.org/2000/svg"
   xmlns:rdf="http://www.w3.org/1999/02/22-rdf-syntax-ns#"
   xmlns:cc="http://creativecommons.org/ns#"
   xmlns:dc="http://purl.org/dc/elements/1.1/">
  <sodipodi:namedview
     id="namedview50"
     pagecolor="#ffffff"
     bordercolor="#666666"
     borderopacity="1.0"
     inkscape:pageshadow="2"
     inkscape:pageopacity="0.0"
     inkscape:pagecheckerboard="0"
     showgrid="false"
     inkscape:zoom="60.280854"
     inkscape:cx="5.6153816"
     inkscape:cy="9.4723277"
     inkscape:window-width="1317"
     inkscape:window-height="890"
     inkscape:window-x="140"
     inkscape:window-y="275"
     inkscape:window-maximized="0"
     inkscape:current-layer="svg97" />
  <metadata
     id="metadata101">
    <rdf:RDF>
      <cc:Work
         rdf:about="">
        <dc:format>image/svg+xml</dc:format>
        <dc:type
           rdf:resource="http://purl.org/dc/dcmitype/StillImage" />
        <dc:title>
        elementary Icon Template
    </dc:title>
      </cc:Work>
    </rdf:RDF>
  </metadata>
  <title
     id="title2">
        elementary Icon Template
    </title>
  <defs
     id="defs75">
    <linearGradient
       id="linearGradient121303">
      <stop
         id="stop121295"
         style="stop-color:#ffffff;stop-opacity:1"
         offset="0" />
      <stop
         id="stop121297"
         style="stop-color:#ffffff;stop-opacity:0.23529412"
         offset="0" />
      <stop
         id="stop121299"
         style="stop-color:#ffffff;stop-opacity:0.15686275"
         offset="0.93896598" />
      <stop
         id="stop121301"
         style="stop-color:#ffffff;stop-opacity:0.39215687"
         offset="1" />
    </linearGradient>
    <linearGradient
       id="g">
      <stop
         offset="0"
         id="stop13" />
      <stop
         offset="1"
         stop-opacity="0"
         id="stop15" />
    </linearGradient>
    <linearGradient
       id="c">
      <stop
         offset="0"
         stop-color="#fff"
         id="stop36" />
      <stop
         offset="0.28147671"
         stop-color="#fff"
         id="stop38" />
      <stop
         offset="0.42782003"
         stop-color="#fff"
         stop-opacity=".643"
         id="stop40" />
      <stop
         offset="1"
         stop-color="#fff"
         stop-opacity=".391"
         id="stop42" />
    </linearGradient>
    <linearGradient
       id="h">
      <stop
         offset="0"
         stop-opacity="0"
         id="stop54" />
      <stop
         offset=".5"
         id="stop56" />
      <stop
         offset="1"
         stop-opacity="0"
         id="stop58" />
    </linearGradient>
    <linearGradient
       id="linearGradient3924-2-2-5-8">
      <stop
         id="stop3926-9-4-9-6"
         style="stop-color:#ffffff;stop-opacity:1"
         offset="0" />
      <stop
         id="stop3928-9-8-6-5"
         style="stop-color:#ffffff;stop-opacity:0.23529412"
         offset="0" />
      <stop
         id="stop3930-3-5-1-7"
         style="stop-color:#ffffff;stop-opacity:0.15686275"
         offset="1" />
      <stop
         id="stop3932-8-0-4-8"
         style="stop-color:#ffffff;stop-opacity:0.39215687"
         offset="1" />
    </linearGradient>
    <radialGradient
       cx="5"
       cy="41.5"
       fx="5"
       fy="41.5"
       gradientTransform="matrix(0.27196938,0,0,0.6,-5.2159268,-73.9)"
       gradientUnits="userSpaceOnUse"
       xlink:href="#g"
       id="i-6-9-7-8-9"
       r="5" />
    <radialGradient
       cx="5"
       cy="41.5"
       fx="5"
       fy="41.5"
       gradientTransform="matrix(0.27196938,0,0,0.6,15.78458,-73.9)"
       gradientUnits="userSpaceOnUse"
       xlink:href="#g"
       id="k-0-7-3-9-3"
       r="5" />
    <linearGradient
       xlink:href="#h"
       id="linearGradient121754"
       gradientUnits="userSpaceOnUse"
       gradientTransform="matrix(0.5777446,0,0,0.54545625,-3.0769464,26.90875)"
       x1="17.554001"
       y1="46"
       x2="17.554001"
       y2="35" />
    <linearGradient
       xlink:href="#linearGradient855"
       id="linearGradient121756"
       gradientUnits="userSpaceOnUse"
       gradientTransform="matrix(0.40654575,0,0,0.42658187,13.595313,-4.1863742)"
       x1="-5.8870335"
       y1="19.190628"
       x2="-5.8870335"
       y2="42.632786" />
    <linearGradient
       xlink:href="#linearGradient3924-2-2-5-8"
       id="linearGradient121760"
       gradientUnits="userSpaceOnUse"
       gradientTransform="matrix(0.29729766,0,0,0.24324357,0.86485512,3.1621539)"
       x1="23.99999"
       y1="7.5555792"
       x2="23.99999"
       y2="40.444424" />
    <linearGradient
       xlink:href="#c"
       id="linearGradient121762"
       gradientUnits="userSpaceOnUse"
       gradientTransform="matrix(0.49691652,0,0,0.49380475,-3.9199061,-3.8636751)"
       x1="24.537001"
       y1="21.915001"
       x2="24.537001"
       y2="7.9130001" />
    <linearGradient
       xlink:href="#linearGradient121303"
       id="linearGradient121764"
       gradientUnits="userSpaceOnUse"
       gradientTransform="matrix(0.30606746,0,0,0.25986915,0.65850526,2.9870706)"
       x1="25.086039"
       y1="0.049753502"
       x2="25.086039"
       y2="18.299334" />
    <linearGradient
       xlink:href="#linearGradient855"
       id="linearGradient1703"
       gradientUnits="userSpaceOnUse"
       gradientTransform="matrix(0.40654575,0,0,0.43692415,13.600114,-4.6393908)"
       x1="-5.8870335"
       y1="11.482978"
       x2="-5.8870335"
       y2="22.148865" />
    <linearGradient
       id="linearGradient855">
      <stop
         id="stop851"
         offset="0"
         style="stop-color:#fafafa;stop-opacity:1" />
      <stop
         id="stop853"
         offset="1"
         style="stop-color:#d4d4d4;stop-opacity:1" />
    </linearGradient>
  </defs>
  <g
     id="g2827"
     transform="translate(-2.5,-36)">
    <rect
       fill="url(#i)"
       height="6"
       opacity="0.4"
       transform="scale(-1)"
       width="1.3559322"
       x="-3.8559322"
       y="-52"
       id="rect77-9-90-2-7-8"
       style="fill:url(#i-6-9-7-8-9);stroke-width:0.999999" />
    <rect
       fill="url(#j)"
       height="6"
       opacity="0.4"
       width="13.288136"
       x="3.8559322"
       y="46"
       id="rect79-7-2-0-1-4"
       style="fill:url(#linearGradient121754);stroke-width:0.999995" />
    <rect
       fill="url(#k)"
       height="6"
       opacity="0.4"
       transform="scale(1,-1)"
       width="1.3559322"
       x="17.144068"
       y="-52"
       id="rect81-3-8-6-7-8"
       style="fill:url(#k-0-7-3-9-3);stroke-width:0.999999" />
  </g>
  <path
     id="rect5505-21-1-5-0-6-5-1-2-5-10"
     style="color:#000000;font-variation-settings:normal;display:inline;overflow:visible;visibility:visible;opacity:1;vector-effect:none;fill:url(#linearGradient1703);fill-opacity:1.0;fill-rule:nonzero;stroke:none;stroke-width:0.999996;stroke-linecap:butt;stroke-linejoin:miter;stroke-miterlimit:4;stroke-dasharray:none;stroke-dashoffset:0;stroke-opacity:0.3;-inkscape-stroke:none;marker:none;enable-background:accumulate;stop-color:#000000;stop-opacity:1"
     d="m 3.8636361,1.499998 c -0.7856733,0 -1.0990917,0.4638626 -1.4181828,1.1818212 C 2.2008687,3.2306851 1.9162938,3.7985747 1.6901976,4.336369 1.5699499,4.5448747 1.499998,4.7865227 1.499998,5.0454617 h 13.00001 c 0,-0.258939 -0.06996,-0.500587 -0.190201,-0.7090927 C 14.077583,3.8012983 13.805974,3.2276078 13.554552,2.6818192 13.225793,1.9682349 12.922042,1.499998 12.136369,1.499998 Z" />
  <path
     id="rect5505-21-1-5-0-6-5-1-2-3"
     style="color:#000000;font-variation-settings:normal;display:inline;overflow:visible;visibility:visible;vector-effect:none;fill:url(#linearGradient121756);fill-opacity:1.0;fill-rule:nonzero;stroke:none;stroke-width:1;stroke-linecap:butt;stroke-linejoin:miter;stroke-miterlimit:4;stroke-dasharray:none;stroke-dashoffset:0;stroke-opacity:0.3;-inkscape-stroke:none;marker:none;enable-background:accumulate;stop-color:#000000"
     d="M 2.9181829,4 C 2.3272734,4 1.5,4.502856 1.5,5.73077 v 7.384621 c 0,0.05816 0.00484,0.115092 0.012008,0.171272 0.00166,0.01302 0.004,0.02585 0.006,0.03876 0.00714,0.04538 0.016168,0.0901 0.027699,0.133865 0.00296,0.01131 0.00555,0.02262 0.00877,0.0338 0.032375,0.111086 0.077924,0.216752 0.1357249,0.314605 1.702e-4,3e-4 2.363e-4,5.99e-4 4.727e-4,8.99e-4 C 1.9353915,14.222215 2.3918147,14.5 2.9181804,14.5 H 13.081826 c 0.526366,0 0.98279,-0.277785 1.227523,-0.691406 1.32e-4,-3e-4 2.36e-4,-6e-4 4.73e-4,-9e-4 0.0578,-0.09785 0.103349,-0.203519 0.135724,-0.314605 0.0032,-0.01118 0.0058,-0.02249 0.0088,-0.0338 0.01154,-0.04378 0.02057,-0.08848 0.0277,-0.133865 0.0019,-0.01292 0.0044,-0.02573 0.006,-0.03876 0.0072,-0.05619 0.01199,-0.11312 0.01199,-0.171274 V 5.8461548 C 14.500036,4.9817696 14.14549,4 13.081853,4 Z" />
  <rect
     style="opacity:1;fill:none;stroke:url(#linearGradient121760);stroke-width:0.999986;stroke-linecap:round;stroke-linejoin:round;stroke-miterlimit:4;stroke-dasharray:none;stroke-dashoffset:0;stroke-opacity:1"
     id="rect6741-5-0-2-3-4-2-4"
     y="4.4999928"
     x="2.4999931"
     ry="0.49882391"
     height="9.0000143"
     width="11.000014"
     rx="0.49882391" />
  <path
     d="m 7,1 h 2 l 2e-7,6.0000001 c -0.1954544,0 -0.3912395,-0.3805942 -0.5870246,-0.3805942 -0.200092,0 -0.4005149,0.3805942 -0.6009379,0.3805942 -0.1610012,0 -0.3223332,-0.3332926 -0.4836665,-0.3332926 -0.1053412,0 -0.2106921,0.3332926 -0.3160374,0.3332926 z"
     fill="url(#n)"
     opacity="0.3"
     overflow="visible"
     style="fill:url(#linearGradient121762);stroke-width:0.999996;marker:none;opacity:0.6"
     id="path87-0-9-7-6-4" />
  <path
     id="rect5505-21-1-5-0-6-5-1-2-5-1-4"
     style="color:#000000;font-variation-settings:normal;display:inline;overflow:visible;visibility:visible;vector-effect:none;fill:none;fill-opacity:1;fill-rule:nonzero;stroke:#555761;stroke-width:1;stroke-linecap:round;stroke-linejoin:round;stroke-miterlimit:4;stroke-dasharray:none;stroke-dashoffset:0;stroke-opacity:1;-inkscape-stroke:none;marker:none;enable-background:accumulate;stop-color:#000000;opacity:0.5;stop-opacity:1"
     d="m 3.8636361,1.499998 c -0.7856733,0 -1.0990917,0.4638626 -1.4181828,1.1818212 C 2.2008687,3.2306851 1.9162938,3.7985747 1.6901976,4.336369 1.5699499,4.5448747 1.499998,4.7865227 1.499998,5.0454617 v 8.0363853 c 0,0.785674 0.6325096,1.418184 1.4181828,1.418184 H 13.081825 c 0.785673,0 1.418183,-0.63251 1.418183,-1.418184 V 5.0454617 c 0,-0.258939 -0.06996,-0.500587 -0.190201,-0.7090927 C 14.077583,3.8012983 13.805974,3.2276078 13.554552,2.6818192 13.225793,1.9682349 12.922042,1.499998 12.136369,1.499998 Z" />
  <path
     id="rect5505-21-1-5-0-6-5-1-2-5-1-7-7"
     style="color:#000000;font-variation-settings:normal;display:inline;overflow:visible;visibility:visible;opacity:0.5;vector-effect:none;fill:none;fill-opacity:1;fill-rule:nonzero;stroke:url(#linearGradient121764);stroke-width:0.999995;stroke-linecap:round;stroke-linejoin:round;stroke-miterlimit:4;stroke-dasharray:none;stroke-dashoffset:0;stroke-opacity:1;-inkscape-stroke:none;marker:none;enable-background:accumulate;stop-color:#000000"
     d="M 13.37325,4.6366994 12.821287,3.4402295 C 12.675822,3.1244775 12.516893,2.7768804 12.35926,2.6258263 12.201625,2.4747724 12.050553,2.499998 11.739173,2.499998 H 4.2607314 c -0.3117911,0 -0.4595937,-1.781e-4 -0.6177692,0.1501498 C 3.4847868,2.8004742 3.3203687,3.1211625 3.1798637,3.4373089 v 4.273e-4 L 2.6221772,4.6366994" />
  <path
     id="rect907"
     style="opacity:1;fill:#557181;stroke:none;stroke-width:3;stroke-linecap:round;stroke-linejoin:round;paint-order:stroke fill markers;fill-opacity:1"
     d="M 7.25 5 C 7.1115 5 7 5.1115 7 5.25 L 7 6.5859375 L 6.0546875 5.640625 C 5.9567532 5.5426907 5.7991062 5.5426907 5.7011719 5.640625 L 4.640625 6.7011719 C 4.5426907 6.7991062 4.5426907 6.9567532 4.640625 7.0546875 L 5.5859375 8 L 4.25 8 C 4.1115 8 4 8.1115 4 8.25 L 4 9.75 C 4 9.8885 4.1115 10 4.25 10 L 5.5859375 10 L 4.640625 10.945312 C 4.5426907 11.043247 4.5426907 11.200894 4.640625 11.298828 L 5.7011719 12.359375 C 5.7991062 12.457309 5.9567532 12.457309 6.0546875 12.359375 L 7 11.414062 L 7 12.75 C 7 12.8885 7.1115 13 7.25 13 L 8.75 13 C 8.8885 13 9 12.8885 9 12.75 L 9 11.414062 L 9.9453125 12.359375 C 10.043247 12.457309 10.200894 12.457309 10.298828 12.359375 L 11.359375 11.298828 C 11.457309 11.200894 11.457309 11.043248 11.359375 10.945312 L 10.414062 10 L 11.75 10 C 11.8885 10 12 9.8885 12 9.75 L 12 8.25 C 12 8.1115 11.8885 8 11.75 8 L 10.414062 8 L 11.359375 7.0546875 C 11.457309 6.9567532 11.457309 6.7991062 11.359375 6.7011719 L 10.298828 5.640625 C 10.200894 5.5426907 10.043247 5.5426907 9.9453125 5.640625 L 9 6.5859375 L 9 5.25 C 9 5.1115 8.8885 5 8.75 5 L 7.25 5 z M 8 7.5 A 1.5 1.5 0 0 1 9.5 9 A 1.5 1.5 0 0 1 8 10.5 A 1.5 1.5 0 0 1 6.5 9 A 1.5 1.5 0 0 1 8 7.5 z " />
</svg>
