<?xml version="1.0" encoding="UTF-8" standalone="no"?>
<svg
   height="16"
   version="1"
   viewBox="0 0 16 16"
   width="16"
   id="svg97"
   sodipodi:docname="application-x-rpm.svg"
   inkscape:version="1.2.2 (b0a8486541, 2022-12-01)"
   xmlns:inkscape="http://www.inkscape.org/namespaces/inkscape"
   xmlns:sodipodi="http://sodipodi.sourceforge.net/DTD/sodipodi-0.dtd"
   xmlns:xlink="http://www.w3.org/1999/xlink"
   xmlns="http://www.w3.org/2000/svg"
   xmlns:svg="http://www.w3.org/2000/svg"
   xmlns:rdf="http://www.w3.org/1999/02/22-rdf-syntax-ns#"
   xmlns:cc="http://creativecommons.org/ns#"
   xmlns:dc="http://purl.org/dc/elements/1.1/">
  <sodipodi:namedview
     id="namedview50"
     pagecolor="#ffffff"
     bordercolor="#666666"
     borderopacity="1.0"
     inkscape:pageshadow="2"
     inkscape:pageopacity="0.0"
     inkscape:pagecheckerboard="0"
     showgrid="false"
     inkscape:zoom="60.280854"
     inkscape:cx="7.4318788"
     inkscape:cy="9.5303892"
     inkscape:window-width="1343"
     inkscape:window-height="798"
     inkscape:window-x="453"
     inkscape:window-y="197"
     inkscape:window-maximized="0"
     inkscape:current-layer="svg97"
     inkscape:showpageshadow="2"
     inkscape:deskcolor="#d1d1d1" />
  <metadata
     id="metadata101">
    <rdf:RDF>
      <cc:Work
         rdf:about="">
        <dc:format>image/svg+xml</dc:format>
        <dc:type
           rdf:resource="http://purl.org/dc/dcmitype/StillImage" />
        <dc:title>
        elementary Icon Template
    </dc:title>
      </cc:Work>
    </rdf:RDF>
  </metadata>
  <title
     id="title2">
        elementary Icon Template
    </title>
  <defs
     id="defs75">
    <linearGradient
       id="linearGradient121303">
      <stop
         id="stop121295"
         style="stop-color:#ffffff;stop-opacity:1"
         offset="0" />
      <stop
         id="stop121297"
         style="stop-color:#ffffff;stop-opacity:0.23529412"
         offset="0" />
      <stop
         id="stop121299"
         style="stop-color:#ffffff;stop-opacity:0.15686275"
         offset="0.93896598" />
      <stop
         id="stop121301"
         style="stop-color:#ffffff;stop-opacity:0.39215687"
         offset="1" />
    </linearGradient>
    <linearGradient
       id="g">
      <stop
         offset="0"
         id="stop13" />
      <stop
         offset="1"
         stop-opacity="0"
         id="stop15" />
    </linearGradient>
    <linearGradient
       id="c">
      <stop
         offset="0"
         stop-color="#fff"
         id="stop36" />
      <stop
         offset="0.28147671"
         stop-color="#fff"
         id="stop38" />
      <stop
         offset="0.42782003"
         stop-color="#fff"
         stop-opacity=".643"
         id="stop40" />
      <stop
         offset="1"
         stop-color="#fff"
         stop-opacity=".391"
         id="stop42" />
    </linearGradient>
    <linearGradient
       id="h">
      <stop
         offset="0"
         stop-opacity="0"
         id="stop54" />
      <stop
         offset=".5"
         id="stop56" />
      <stop
         offset="1"
         stop-opacity="0"
         id="stop58" />
    </linearGradient>
    <linearGradient
       id="linearGradient3924-2-2-5-8">
      <stop
         id="stop3926-9-4-9-6"
         style="stop-color:#ffffff;stop-opacity:1"
         offset="0" />
      <stop
         id="stop3928-9-8-6-5"
         style="stop-color:#ffffff;stop-opacity:0.23529412"
         offset="0" />
      <stop
         id="stop3930-3-5-1-7"
         style="stop-color:#ffffff;stop-opacity:0.15686275"
         offset="1" />
      <stop
         id="stop3932-8-0-4-8"
         style="stop-color:#ffffff;stop-opacity:0.39215687"
         offset="1" />
    </linearGradient>
    <radialGradient
       cx="5"
       cy="41.5"
       fx="5"
       fy="41.5"
       gradientTransform="matrix(0.27196938,0,0,0.6,-5.2159268,-73.9)"
       gradientUnits="userSpaceOnUse"
       xlink:href="#g"
       id="i-6-9-7-8-9"
       r="5" />
    <radialGradient
       cx="5"
       cy="41.5"
       fx="5"
       fy="41.5"
       gradientTransform="matrix(0.27196938,0,0,0.6,15.78458,-73.9)"
       gradientUnits="userSpaceOnUse"
       xlink:href="#g"
       id="k-0-7-3-9-3"
       r="5" />
    <linearGradient
       xlink:href="#h"
       id="linearGradient121754"
       gradientUnits="userSpaceOnUse"
       gradientTransform="matrix(0.5777446,0,0,0.54545625,-3.0769464,26.90875)"
       x1="17.554001"
       y1="46"
       x2="17.554001"
       y2="35" />
    <linearGradient
       xlink:href="#linearGradient855"
       id="linearGradient121756"
       gradientUnits="userSpaceOnUse"
       gradientTransform="matrix(0.40654575,0,0,0.42658187,13.595313,-4.1863742)"
       x1="-5.8870335"
       y1="19.190628"
       x2="-5.8870335"
       y2="42.632786" />
    <linearGradient
       xlink:href="#linearGradient3924-2-2-5-8"
       id="linearGradient121760"
       gradientUnits="userSpaceOnUse"
       gradientTransform="matrix(0.29729766,0,0,0.24324357,0.86485512,3.1621539)"
       x1="23.99999"
       y1="7.5555792"
       x2="23.99999"
       y2="40.444424" />
    <linearGradient
       xlink:href="#c"
       id="linearGradient121762"
       gradientUnits="userSpaceOnUse"
       gradientTransform="matrix(0.49691652,0,0,0.49380475,-3.9199061,-3.8636751)"
       x1="24.537001"
       y1="21.915001"
       x2="24.537001"
       y2="7.9130001" />
    <linearGradient
       xlink:href="#linearGradient121303"
       id="linearGradient121764"
       gradientUnits="userSpaceOnUse"
       gradientTransform="matrix(0.30606746,0,0,0.25986915,0.65850526,2.9870706)"
       x1="25.086039"
       y1="0.049753502"
       x2="25.086039"
       y2="18.299334" />
    <linearGradient
       xlink:href="#linearGradient855"
       id="linearGradient1703"
       gradientUnits="userSpaceOnUse"
       gradientTransform="matrix(0.40654575,0,0,0.43692415,13.600114,-4.6393908)"
       x1="-5.8870335"
       y1="11.482978"
       x2="-5.8870335"
       y2="22.148865" />
    <linearGradient
       id="linearGradient855">
      <stop
         id="stop851"
         offset="0"
         style="stop-color:#fafafa;stop-opacity:1" />
      <stop
         id="stop853"
         offset="1"
         style="stop-color:#d4d4d4;stop-opacity:1" />
    </linearGradient>
  </defs>
  <g
     id="g2827"
     transform="translate(-2.5,-36)">
    <rect
       fill="url(#i)"
       height="6"
       opacity="0.4"
       transform="scale(-1)"
       width="1.3559322"
       x="-3.8559322"
       y="-52"
       id="rect77-9-90-2-7-8"
       style="fill:url(#i-6-9-7-8-9);stroke-width:0.999999" />
    <rect
       fill="url(#j)"
       height="6"
       opacity="0.4"
       width="13.288136"
       x="3.8559322"
       y="46"
       id="rect79-7-2-0-1-4"
       style="fill:url(#linearGradient121754);stroke-width:0.999995" />
    <rect
       fill="url(#k)"
       height="6"
       opacity="0.4"
       transform="scale(1,-1)"
       width="1.3559322"
       x="17.144068"
       y="-52"
       id="rect81-3-8-6-7-8"
       style="fill:url(#k-0-7-3-9-3);stroke-width:0.999999" />
  </g>
  <path
     id="rect5505-21-1-5-0-6-5-1-2-5-10"
     style="color:#000000;font-variation-settings:normal;display:inline;overflow:visible;visibility:visible;opacity:1;vector-effect:none;fill:url(#linearGradient1703);fill-opacity:1.0;fill-rule:nonzero;stroke:none;stroke-width:0.999996;stroke-linecap:butt;stroke-linejoin:miter;stroke-miterlimit:4;stroke-dasharray:none;stroke-dashoffset:0;stroke-opacity:0.3;-inkscape-stroke:none;marker:none;enable-background:accumulate;stop-color:#000000;stop-opacity:1"
     d="m 3.8636361,1.499998 c -0.7856733,0 -1.0990917,0.4638626 -1.4181828,1.1818212 C 2.2008687,3.2306851 1.9162938,3.7985747 1.6901976,4.336369 1.5699499,4.5448747 1.499998,4.7865227 1.499998,5.0454617 h 13.00001 c 0,-0.258939 -0.06996,-0.500587 -0.190201,-0.7090927 C 14.077583,3.8012983 13.805974,3.2276078 13.554552,2.6818192 13.225793,1.9682349 12.922042,1.499998 12.136369,1.499998 Z" />
  <path
     id="rect5505-21-1-5-0-6-5-1-2-3"
     style="color:#000000;font-variation-settings:normal;display:inline;overflow:visible;visibility:visible;vector-effect:none;fill:url(#linearGradient121756);fill-opacity:1.0;fill-rule:nonzero;stroke:none;stroke-width:1;stroke-linecap:butt;stroke-linejoin:miter;stroke-miterlimit:4;stroke-dasharray:none;stroke-dashoffset:0;stroke-opacity:0.3;-inkscape-stroke:none;marker:none;enable-background:accumulate;stop-color:#000000"
     d="M 2.9181829,4 C 2.3272734,4 1.5,4.502856 1.5,5.73077 v 7.384621 c 0,0.05816 0.00484,0.115092 0.012008,0.171272 0.00166,0.01302 0.004,0.02585 0.006,0.03876 0.00714,0.04538 0.016168,0.0901 0.027699,0.133865 0.00296,0.01131 0.00555,0.02262 0.00877,0.0338 0.032375,0.111086 0.077924,0.216752 0.1357249,0.314605 1.702e-4,3e-4 2.363e-4,5.99e-4 4.727e-4,8.99e-4 C 1.9353915,14.222215 2.3918147,14.5 2.9181804,14.5 H 13.081826 c 0.526366,0 0.98279,-0.277785 1.227523,-0.691406 1.32e-4,-3e-4 2.36e-4,-6e-4 4.73e-4,-9e-4 0.0578,-0.09785 0.103349,-0.203519 0.135724,-0.314605 0.0032,-0.01118 0.0058,-0.02249 0.0088,-0.0338 0.01154,-0.04378 0.02057,-0.08848 0.0277,-0.133865 0.0019,-0.01292 0.0044,-0.02573 0.006,-0.03876 0.0072,-0.05619 0.01199,-0.11312 0.01199,-0.171274 V 5.8461548 C 14.500036,4.9817696 14.14549,4 13.081853,4 Z" />
  <rect
     style="opacity:1;fill:none;stroke:url(#linearGradient121760);stroke-width:0.999986;stroke-linecap:round;stroke-linejoin:round;stroke-miterlimit:4;stroke-dasharray:none;stroke-dashoffset:0;stroke-opacity:1"
     id="rect6741-5-0-2-3-4-2-4"
     y="4.4999928"
     x="2.4999931"
     ry="0.49882391"
     height="9.0000143"
     width="11.000014"
     rx="0.49882391" />
  <path
     d="m 7,1 h 2 l 2e-7,6.0000001 c -0.1954544,0 -0.3912395,-0.3805942 -0.5870246,-0.3805942 -0.200092,0 -0.4005149,0.3805942 -0.6009379,0.3805942 -0.1610012,0 -0.3223332,-0.3332926 -0.4836665,-0.3332926 -0.1053412,0 -0.2106921,0.3332926 -0.3160374,0.3332926 z"
     fill="url(#n)"
     opacity="0.3"
     overflow="visible"
     style="fill:url(#linearGradient121762);stroke-width:0.999996;marker:none;opacity:0.6"
     id="path87-0-9-7-6-4" />
  <path
     id="rect5505-21-1-5-0-6-5-1-2-5-1-4"
     style="color:#000000;font-variation-settings:normal;display:inline;overflow:visible;visibility:visible;vector-effect:none;fill:none;fill-opacity:1;fill-rule:nonzero;stroke:#555761;stroke-width:1;stroke-linecap:round;stroke-linejoin:round;stroke-miterlimit:4;stroke-dasharray:none;stroke-dashoffset:0;stroke-opacity:1;-inkscape-stroke:none;marker:none;enable-background:accumulate;stop-color:#000000;opacity:0.5;stop-opacity:1"
     d="m 3.8636361,1.499998 c -0.7856733,0 -1.0990917,0.4638626 -1.4181828,1.1818212 C 2.2008687,3.2306851 1.9162938,3.7985747 1.6901976,4.336369 1.5699499,4.5448747 1.499998,4.7865227 1.499998,5.0454617 v 8.0363853 c 0,0.785674 0.6325096,1.418184 1.4181828,1.418184 H 13.081825 c 0.785673,0 1.418183,-0.63251 1.418183,-1.418184 V 5.0454617 c 0,-0.258939 -0.06996,-0.500587 -0.190201,-0.7090927 C 14.077583,3.8012983 13.805974,3.2276078 13.554552,2.6818192 13.225793,1.9682349 12.922042,1.499998 12.136369,1.499998 Z" />
  <path
     id="rect5505-21-1-5-0-6-5-1-2-5-1-7-7"
     style="color:#000000;font-variation-settings:normal;display:inline;overflow:visible;visibility:visible;opacity:0.5;vector-effect:none;fill:none;fill-opacity:1;fill-rule:nonzero;stroke:url(#linearGradient121764);stroke-width:0.999995;stroke-linecap:round;stroke-linejoin:round;stroke-miterlimit:4;stroke-dasharray:none;stroke-dashoffset:0;stroke-opacity:1;-inkscape-stroke:none;marker:none;enable-background:accumulate;stop-color:#000000"
     d="M 13.37325,4.6366994 12.821287,3.4402295 C 12.675822,3.1244775 12.516893,2.7768804 12.35926,2.6258263 12.201625,2.4747724 12.050553,2.499998 11.739173,2.499998 H 4.2607314 c -0.3117911,0 -0.4595937,-1.781e-4 -0.6177692,0.1501498 C 3.4847868,2.8004742 3.3203687,3.1211625 3.1798637,3.4373089 v 4.273e-4 L 2.6221772,4.6366994" />
  <path
     d="m 6.8398402,4.4020664 c 0.2117458,-0.035557 0.4255129,-0.061545 0.6396167,-0.073878 0.03804,-0.00991 0.077387,-0.00787 0.1162495,-0.0094 0.3038897,-0.01059 0.6081155,-0.010109 0.9118361,0.00487 0.5481457,0.042358 1.0935962,0.1418558 1.6223715,0.3077505 l -0.0022,0.00328 c -0.07753,0.1145672 -0.1552842,0.7294496 -0.2312902,0.8452243 -0.02278,0.00458 -0.04272,-0.01115 -0.063,-0.01907 C 9.4321742,5.2799588 9.005146,5.1749879 8.575422,5.1181136 7.8684247,5.0390043 7.1445822,5.1025639 6.4663906,5.3402753 5.967096,5.5167528 5.4848147,5.7888323 5.1123651,6.1992878 4.8483994,6.4941542 4.6459187,6.8755283 4.6182924,7.2935318 4.5927017,7.4926863 4.6363482,7.8063216 4.6749598,7.9997699 H 3.0002002 C 2.9961466,7.6768498 3.0536594,7.0493169 3.1763437,6.7572117 3.4204322,6.1884633 3.8633498,5.749358 4.3348497,5.4014818 4.6537312,5.1675402 4.9983861,4.9766692 5.3565174,4.8253708 5.8335763,4.621615 6.3332078,4.4824654 6.8399143,4.4022148 Z"
     style="fill:#666666;fill-opacity:1;stroke-width:1.45978"
     sodipodi:nodetypes="ccccccccccccccccccc"
     id="path9634" />
  <path
     d="m 9.8972638,5.479753 c 0.07602,-0.1157379 0.1537642,-0.7305467 0.2312862,-0.8452168 0.71003,0.2271313 1.395633,0.5860504 1.95574,1.1205642 0.228927,0.2240024 0.436124,0.477454 0.595143,0.7658781 C 12.867764,6.860387 12.987197,7.6016467 13,7.9997699 H 11.329621 C 11.398141,7.761594 11.398736,7.3301198 11.351806,7.0869748 11.264833,6.6669483 11.018437,6.3063712 10.721116,6.0326726 10.473322,5.8048052 10.190657,5.6222161 9.8911488,5.4885882 Z"
     style="fill:#ed5353;fill-opacity:1;stroke-width:1.45978"
     id="path9636"
     sodipodi:nodetypes="cccccccccc" />
  <path
     d="m 5.3927987,10.658233 0.00294,-1.6543206 0.5543353,0.00134 c 0.5843277,0.00147 0.7153559,0.012051 0.9744949,0.079094 0.6353722,0.1643562 1.0571059,0.5508193 1.1398347,1.0447086 0.08389,0.500732 -0.2284753,0.958045 -0.8599798,1.259429 -0.2271261,0.108381 -0.5352962,0.193385 -0.7802818,0.215395 l -0.1049873,0.0094 -0.00313,0.265874 -0.00313,0.265874 -0.037268,0.0085 c -0.020507,0.0047 -0.2108939,0.03859 -0.4236976,0.07543 -0.2128049,0.03683 -0.4037048,0.07073 -0.4244291,0.0754 l -0.037574,0.0084 z m 1.0107195,0.638272 c 0.029807,-0.0089 0.1061498,-0.04778 0.1696703,-0.08644 0.2389203,-0.145342 0.4133084,-0.351861 0.5071584,-0.600839 0.072602,-0.192315 0.077994,-0.372823 0.017304,-0.578807 C 7.0281473,9.7944895 6.8295822,9.5380271 6.6058268,9.3947151 6.5321286,9.3475248 6.3854394,9.2894213 6.3396108,9.2897347 h -0.026216 v 1.0115223 c 0,0.905858 0.00188,1.011524 0.017979,1.011524 0.00989,0 0.042362,-0.0073 0.072164,-0.01617 z M 3.0000006,10.293965 V 8.9968545 H 3.999706 v 0.031139 c 0,0.027378 0.00453,0.029973 0.037523,0.021351 0.2168479,-0.056617 0.5437205,-0.082205 0.6839049,-0.053476 0.048677,0.00997 0.1238576,0.033388 0.1670759,0.052051 0.091507,0.039507 0.2542527,0.1286506 0.2540842,0.1393238 -5.04e-5,0.00406 -0.042814,0.039787 -0.095045,0.079441 C 4.995016,9.3063383 4.8835592,9.3941025 4.7995666,9.4616942 L 4.6468471,9.584579 4.6036122,9.5472687 C 4.5166203,9.4722285 4.423495,9.4437586 4.2652818,9.4437586 c -0.083522,0 -0.1698389,0.00829 -0.204885,0.01978 l -0.060622,0.019787 V 11.591291 H 3.0000685 Z m 5.6815172,-9.99e-4 V 8.9947853 l 1.8095932,0.00632 c 1.836552,0.00639 1.892153,0.00812 2.126357,0.062629 0.175397,0.040806 0.278514,0.090065 0.333441,0.1597943 l 0.04909,0.062264 V 11.591624 H 12.076153 V 9.3221667 l -0.04908,-0.026778 c -0.04295,-0.023449 -0.09127,-0.027444 -0.386854,-0.032063 l -0.337825,-0.00533 V 11.59162 h -0.923673 l -0.006,-2.2758731 -0.04619,-0.022564 c -0.03661,-0.017925 -0.115708,-0.02373 -0.3839286,-0.028291 L 9.6047781,9.2591623 V 11.592791 H 8.6809663 Z"
     style="fill:#666666;fill-opacity:1;stroke-width:1.00039"
     id="path9640"
     sodipodi:nodetypes="ccccccccccccccccccccscsscccccsccccscccscccccccccccccccccccccccccc" />
</svg>
