<?xml version="1.0" encoding="UTF-8" standalone="no"?>
<!-- Created with Inkscape (http://www.inkscape.org/) -->

<svg
   xmlns:dc="http://purl.org/dc/elements/1.1/"
   xmlns:cc="http://creativecommons.org/ns#"
   xmlns:rdf="http://www.w3.org/1999/02/22-rdf-syntax-ns#"
   xmlns:svg="http://www.w3.org/2000/svg"
   xmlns="http://www.w3.org/2000/svg"
   xmlns:xlink="http://www.w3.org/1999/xlink"
   xmlns:sodipodi="http://sodipodi.sourceforge.net/DTD/sodipodi-0.dtd"
   xmlns:inkscape="http://www.inkscape.org/namespaces/inkscape"
   version="1.1"
   width="48"
   height="48"
   id="svg4461"
   inkscape:version="0.48.3.1 r9886"
   sodipodi:docname="accessories-character-map.svg">
  <metadata
     id="metadata44">
    <rdf:RDF>
      <cc:Work
         rdf:about="">
        <dc:format>image/svg+xml</dc:format>
        <dc:type
           rdf:resource="http://purl.org/dc/dcmitype/StillImage" />
        <dc:title></dc:title>
      </cc:Work>
    </rdf:RDF>
  </metadata>
  <sodipodi:namedview
     pagecolor="#ffffff"
     bordercolor="#666666"
     borderopacity="1"
     objecttolerance="10"
     gridtolerance="10"
     guidetolerance="10"
     inkscape:pageopacity="0"
     inkscape:pageshadow="2"
     inkscape:window-width="1145"
     inkscape:window-height="879"
     id="namedview42"
     showgrid="true"
     inkscape:zoom="2.2916666"
     inkscape:cx="24.150123"
     inkscape:cy="19.661368"
     inkscape:window-x="285"
     inkscape:window-y="24"
     inkscape:window-maximized="0"
     inkscape:current-layer="svg4461">
    <inkscape:grid
       type="xygrid"
       id="grid3031" />
  </sodipodi:namedview>
  <defs
     id="defs4463">
    <linearGradient
       id="linearGradient4529-4-3-6">
      <stop
         id="stop4531-8-6-6"
         style="stop-color:#ffffff;stop-opacity:1"
         offset="0" />
      <stop
         id="stop4533-5-7-7"
         style="stop-color:#ffffff;stop-opacity:0"
         offset="1" />
    </linearGradient>
    <linearGradient
       id="linearGradient2821-2-2-4">
      <stop
         id="stop2823-9-2-0"
         style="stop-color:#ffffff;stop-opacity:1"
         offset="0" />
      <stop
         id="stop2825-7-1-8"
         style="stop-color:#ffffff;stop-opacity:0"
         offset="1" />
    </linearGradient>
    <linearGradient
       id="linearGradient2813-8-3-8">
      <stop
         id="stop2815-0-3-1"
         style="stop-color:#ffffff;stop-opacity:1"
         offset="0" />
      <stop
         id="stop2817-9-8-5"
         style="stop-color:#ffffff;stop-opacity:0"
         offset="1" />
    </linearGradient>
    <linearGradient
       id="linearGradient2867-8-8-1">
      <stop
         id="stop2869-7-0-4"
         style="stop-color:#ffffff;stop-opacity:1"
         offset="0" />
      <stop
         id="stop2871-4-8-0"
         style="stop-color:#ffffff;stop-opacity:0"
         offset="1" />
    </linearGradient>
    <linearGradient
       inkscape:collect="always"
       xlink:href="#linearGradient2813-8-3-8"
       id="linearGradient3034"
       gradientUnits="userSpaceOnUse"
       gradientTransform="matrix(1.874971,0,0,1.8749711,-38.93632,-6.562169)"
       x1="38.244816"
       y1="7.2332683"
       x2="40.93327"
       y2="11.500001" />
    <radialGradient
       inkscape:collect="always"
       xlink:href="#linearGradient4529-4-3-6"
       id="radialGradient3036"
       gradientUnits="userSpaceOnUse"
       gradientTransform="matrix(4.3912411,0,0,2.837326,-21.880907,-51.596876)"
       cx="13.892615"
       cy="24.270937"
       fx="13.892615"
       fy="24.270937"
       r="4.5000043" />
    <linearGradient
       inkscape:collect="always"
       xlink:href="#linearGradient2821-2-2-4"
       id="linearGradient3038"
       gradientUnits="userSpaceOnUse"
       gradientTransform="matrix(1.9999304,0,0,1.9999294,-43.497173,-7.499255)"
       x1="37.520855"
       y1="11.523975"
       x2="37.520855"
       y2="4.0999546" />
    <linearGradient
       inkscape:collect="always"
       xlink:href="#linearGradient2813-8-3-8"
       id="linearGradient3050"
       gradientUnits="userSpaceOnUse"
       gradientTransform="matrix(1.874971,0,0,1.8749711,-38.93632,-6.562169)"
       x1="38.244816"
       y1="7.2332683"
       x2="40.93327"
       y2="11.500001" />
    <radialGradient
       inkscape:collect="always"
       xlink:href="#linearGradient4529-4-3-6"
       id="radialGradient3052"
       gradientUnits="userSpaceOnUse"
       gradientTransform="matrix(4.3912411,0,0,2.837326,-21.880907,-51.596876)"
       cx="13.892615"
       cy="24.270937"
       fx="13.892615"
       fy="24.270937"
       r="4.5000043" />
    <linearGradient
       inkscape:collect="always"
       xlink:href="#linearGradient2821-2-2-4"
       id="linearGradient3054"
       gradientUnits="userSpaceOnUse"
       gradientTransform="matrix(1.9999304,0,0,1.9999294,-43.497173,-7.499255)"
       x1="37.520855"
       y1="11.523975"
       x2="37.520855"
       y2="4.0999546" />
    <linearGradient
       inkscape:collect="always"
       xlink:href="#linearGradient2813-8-3-8"
       id="linearGradient3066"
       gradientUnits="userSpaceOnUse"
       gradientTransform="matrix(1.874971,0,0,1.8749711,-38.93632,-6.562169)"
       x1="38.244816"
       y1="7.2332683"
       x2="40.93327"
       y2="11.500001" />
    <radialGradient
       inkscape:collect="always"
       xlink:href="#linearGradient4529-4-3-6"
       id="radialGradient3068"
       gradientUnits="userSpaceOnUse"
       gradientTransform="matrix(4.3912411,0,0,2.837326,-21.880907,-51.596876)"
       cx="13.892615"
       cy="24.270937"
       fx="13.892615"
       fy="24.270937"
       r="4.5000043" />
    <linearGradient
       inkscape:collect="always"
       xlink:href="#linearGradient2821-2-2-4"
       id="linearGradient3070"
       gradientUnits="userSpaceOnUse"
       gradientTransform="matrix(1.9999304,0,0,1.9999294,-43.497173,-7.499255)"
       x1="37.520855"
       y1="11.523975"
       x2="37.520855"
       y2="4.0999546" />
    <radialGradient
       inkscape:collect="always"
       xlink:href="#linearGradient4529-4-3-6"
       id="radialGradient3051"
       gradientUnits="userSpaceOnUse"
       gradientTransform="matrix(10.612383,0,0,6.857012,-119.5068,-136.32068)"
       cx="13.892615"
       cy="24.270937"
       fx="13.892615"
       fy="24.270937"
       r="4.5000043" />
    <linearGradient
       inkscape:collect="always"
       xlink:href="#linearGradient2821-2-2-4"
       id="linearGradient3053"
       gradientUnits="userSpaceOnUse"
       gradientTransform="matrix(4.8332641,0,0,4.8332619,-171.74718,-29.749242)"
       x1="37.520855"
       y1="11.523975"
       x2="37.520855"
       y2="4.0999546" />
    <linearGradient
       inkscape:collect="always"
       xlink:href="#linearGradient2813-8-3-8"
       id="linearGradient3056"
       gradientUnits="userSpaceOnUse"
       gradientTransform="matrix(4.1249712,0,0,4.1249713,-143.06132,-24.437171)"
       x1="38.244816"
       y1="7.2332683"
       x2="40.93327"
       y2="11.500001" />
    <linearGradient
       y2="4.0999546"
       x2="37.520855"
       y1="11.523975"
       x1="37.520855"
       gradientTransform="matrix(2.3332638,0,0,2.3332626,-55.997176,-12.999253)"
       gradientUnits="userSpaceOnUse"
       id="linearGradient3079-9"
       xlink:href="#linearGradient2821-2-2-4-9"
       inkscape:collect="always" />
    <radialGradient
       r="4.5000043"
       fy="24.270937"
       fx="13.892615"
       cy="24.270937"
       cx="13.892615"
       gradientTransform="matrix(5.1231402,0,0,3.3102302,-30.778073,-64.446735)"
       gradientUnits="userSpaceOnUse"
       id="radialGradient3077-7"
       xlink:href="#linearGradient4529-4-3-6-9"
       inkscape:collect="always" />
    <linearGradient
       y2="11.500001"
       x2="40.93327"
       y1="7.2332683"
       x1="38.244816"
       gradientTransform="matrix(2.1249712,0,0,2.1249713,-48.061327,-11.437171)"
       gradientUnits="userSpaceOnUse"
       id="linearGradient3075-2"
       xlink:href="#linearGradient2813-8-3-8-6"
       inkscape:collect="always" />
    <linearGradient
       y2="4.0999546"
       x2="37.520855"
       y1="11.523975"
       x1="37.520855"
       gradientTransform="matrix(2.3332638,0,0,2.3332626,-55.997176,-12.999253)"
       gradientUnits="userSpaceOnUse"
       id="linearGradient3063-3"
       xlink:href="#linearGradient2821-2-2-4-9"
       inkscape:collect="always" />
    <radialGradient
       r="4.5000043"
       fy="24.270937"
       fx="13.892615"
       cy="24.270937"
       cx="13.892615"
       gradientTransform="matrix(5.1231402,0,0,3.3102302,-30.778073,-64.446735)"
       gradientUnits="userSpaceOnUse"
       id="radialGradient3061-8"
       xlink:href="#linearGradient4529-4-3-6-9"
       inkscape:collect="always" />
    <linearGradient
       y2="11.500001"
       x2="40.93327"
       y1="7.2332683"
       x1="38.244816"
       gradientTransform="matrix(2.1249712,0,0,2.1249713,-48.061327,-11.437171)"
       gradientUnits="userSpaceOnUse"
       id="linearGradient3059-6"
       xlink:href="#linearGradient2813-8-3-8-6"
       inkscape:collect="always" />
    <linearGradient
       y2="4.0999546"
       x2="37.520855"
       y1="11.523975"
       x1="37.520855"
       gradientTransform="matrix(2.3332638,0,0,2.3332626,-55.997176,-12.999253)"
       gradientUnits="userSpaceOnUse"
       id="linearGradient3047-9"
       xlink:href="#linearGradient2821-2-2-4-9"
       inkscape:collect="always" />
    <radialGradient
       r="4.5000043"
       fy="24.270937"
       fx="13.892615"
       cy="24.270937"
       cx="13.892615"
       gradientTransform="matrix(5.1231402,0,0,3.3102302,-30.778073,-64.446735)"
       gradientUnits="userSpaceOnUse"
       id="radialGradient3045-8"
       xlink:href="#linearGradient4529-4-3-6-9"
       inkscape:collect="always" />
    <linearGradient
       y2="11.500001"
       x2="40.93327"
       y1="7.2332683"
       x1="38.244816"
       gradientTransform="matrix(2.1249712,0,0,2.1249713,-48.061327,-11.437171)"
       gradientUnits="userSpaceOnUse"
       id="linearGradient3043-3"
       xlink:href="#linearGradient2813-8-3-8-6"
       inkscape:collect="always" />
    <linearGradient
       y2="4.0999546"
       x2="37.520855"
       y1="11.523975"
       x1="37.520855"
       gradientTransform="matrix(2.3332638,0,0,2.3332626,-55.997176,-12.999253)"
       gradientUnits="userSpaceOnUse"
       id="linearGradient3076-0"
       xlink:href="#linearGradient2821-2-2-4-9"
       inkscape:collect="always" />
    <radialGradient
       r="4.5000043"
       fy="24.270937"
       fx="13.892615"
       cy="24.270937"
       cx="13.892615"
       gradientTransform="matrix(5.1231402,0,0,3.3102302,-30.778073,-64.446735)"
       gradientUnits="userSpaceOnUse"
       id="radialGradient3074-4"
       xlink:href="#linearGradient4529-4-3-6-9"
       inkscape:collect="always" />
    <linearGradient
       y2="11.500001"
       x2="40.93327"
       y1="7.2332683"
       x1="38.244816"
       gradientTransform="matrix(2.1249712,0,0,2.1249713,-48.061327,-11.437171)"
       gradientUnits="userSpaceOnUse"
       id="linearGradient3072-4"
       xlink:href="#linearGradient2813-8-3-8-6"
       inkscape:collect="always" />
    <linearGradient
       y2="4.0999546"
       x2="37.520855"
       y1="11.523975"
       x1="37.520855"
       gradientTransform="matrix(1.9999304,0,0,1.9999294,-43.497173,-7.499255)"
       gradientUnits="userSpaceOnUse"
       id="linearGradient3070-6"
       xlink:href="#linearGradient2821-2-2-4-9"
       inkscape:collect="always" />
    <radialGradient
       r="4.5000043"
       fy="24.270937"
       fx="13.892615"
       cy="24.270937"
       cx="13.892615"
       gradientTransform="matrix(4.3912411,0,0,2.837326,-21.880907,-51.596876)"
       gradientUnits="userSpaceOnUse"
       id="radialGradient3068-1"
       xlink:href="#linearGradient4529-4-3-6-9"
       inkscape:collect="always" />
    <linearGradient
       y2="11.500001"
       x2="40.93327"
       y1="7.2332683"
       x1="38.244816"
       gradientTransform="matrix(1.874971,0,0,1.8749711,-38.93632,-6.562169)"
       gradientUnits="userSpaceOnUse"
       id="linearGradient3066-1"
       xlink:href="#linearGradient2813-8-3-8-6"
       inkscape:collect="always" />
    <linearGradient
       y2="4.0999546"
       x2="37.520855"
       y1="11.523975"
       x1="37.520855"
       gradientTransform="matrix(1.9999304,0,0,1.9999294,-43.497173,-7.499255)"
       gradientUnits="userSpaceOnUse"
       id="linearGradient3054-6"
       xlink:href="#linearGradient2821-2-2-4-9"
       inkscape:collect="always" />
    <radialGradient
       r="4.5000043"
       fy="24.270937"
       fx="13.892615"
       cy="24.270937"
       cx="13.892615"
       gradientTransform="matrix(4.3912411,0,0,2.837326,-21.880907,-51.596876)"
       gradientUnits="userSpaceOnUse"
       id="radialGradient3052-0"
       xlink:href="#linearGradient4529-4-3-6-9"
       inkscape:collect="always" />
    <linearGradient
       y2="11.500001"
       x2="40.93327"
       y1="7.2332683"
       x1="38.244816"
       gradientTransform="matrix(1.874971,0,0,1.8749711,-38.93632,-6.562169)"
       gradientUnits="userSpaceOnUse"
       id="linearGradient3050-7"
       xlink:href="#linearGradient2813-8-3-8-6"
       inkscape:collect="always" />
    <linearGradient
       y2="4.0999546"
       x2="37.520855"
       y1="11.523975"
       x1="37.520855"
       gradientTransform="matrix(1.9999304,0,0,1.9999294,-43.497173,-7.499255)"
       gradientUnits="userSpaceOnUse"
       id="linearGradient3038-8"
       xlink:href="#linearGradient2821-2-2-4-9"
       inkscape:collect="always" />
    <radialGradient
       r="4.5000043"
       fy="24.270937"
       fx="13.892615"
       cy="24.270937"
       cx="13.892615"
       gradientTransform="matrix(4.3912411,0,0,2.837326,-21.880907,-51.596876)"
       gradientUnits="userSpaceOnUse"
       id="radialGradient3036-6"
       xlink:href="#linearGradient4529-4-3-6-9"
       inkscape:collect="always" />
    <linearGradient
       y2="11.500001"
       x2="40.93327"
       y1="7.2332683"
       x1="38.244816"
       gradientTransform="matrix(1.874971,0,0,1.8749711,-38.93632,-6.562169)"
       gradientUnits="userSpaceOnUse"
       id="linearGradient3034-2"
       xlink:href="#linearGradient2813-8-3-8-6"
       inkscape:collect="always" />
    <linearGradient
       id="linearGradient2867-8-8-1-5">
      <stop
         offset="0"
         style="stop-color:#ffffff;stop-opacity:1"
         id="stop2869-7-0-4-0" />
      <stop
         offset="1"
         style="stop-color:#ffffff;stop-opacity:0"
         id="stop2871-4-8-0-6" />
    </linearGradient>
    <linearGradient
       id="linearGradient2813-8-3-8-6">
      <stop
         offset="0"
         style="stop-color:#ffffff;stop-opacity:1"
         id="stop2815-0-3-1-3" />
      <stop
         offset="1"
         style="stop-color:#ffffff;stop-opacity:0"
         id="stop2817-9-8-5-0" />
    </linearGradient>
    <linearGradient
       id="linearGradient2821-2-2-4-9">
      <stop
         offset="0"
         style="stop-color:#ffffff;stop-opacity:1"
         id="stop2823-9-2-0-2" />
      <stop
         offset="1"
         style="stop-color:#ffffff;stop-opacity:0"
         id="stop2825-7-1-8-3" />
    </linearGradient>
    <linearGradient
       id="linearGradient4529-4-3-6-9">
      <stop
         offset="0"
         style="stop-color:#ffffff;stop-opacity:1"
         id="stop4531-8-6-6-5" />
      <stop
         offset="1"
         style="stop-color:#ffffff;stop-opacity:0"
         id="stop4533-5-7-7-1" />
    </linearGradient>
    <filter
       inkscape:collect="always"
       id="filter4406"
       x="-0.65569218"
       width="2.3113844"
       y="-0.37856407"
       height="1.7571281">
      <feGaussianBlur
         inkscape:collect="always"
         stdDeviation="1.1041452"
         id="feGaussianBlur4408" />
    </filter>
    <filter
       inkscape:collect="always"
       id="filter4414">
      <feGaussianBlur
         inkscape:collect="always"
         stdDeviation="0.82499418"
         id="feGaussianBlur4416" />
    </filter>
    <filter
       inkscape:collect="always"
       id="filter4426"
       x="-0.49176914"
       width="1.9835383"
       y="-0.28392305"
       height="1.5678461">
      <feGaussianBlur
         inkscape:collect="always"
         stdDeviation="1.0245191"
         id="feGaussianBlur4428" />
    </filter>
  </defs>
  <rect
     width="36"
     height="32"
     rx="3"
     ry="3"
     x="4"
     y="14"
     id="rect3035"
     style="opacity:0.1;fill:#000000;fill-opacity:1;fill-rule:nonzero;stroke:none;stroke-width:1.62657523;marker:none;visibility:visible;display:inline;overflow:visible" />
  <rect
     width="38.999886"
     height="40.999886"
     rx="4.4999428"
     ry="4.4999428"
     x="4.5000572"
     y="3.5000572"
     id="rect3037"
     style="fill:#3c3c3c;fill-opacity:1;fill-rule:nonzero;stroke:#323232;stroke-width:1.00011349;stroke-linecap:square;stroke-linejoin:round;stroke-miterlimit:4;stroke-opacity:1;stroke-dasharray:none;stroke-dashoffset:1.20000057;marker:none;visibility:visible;display:inline;overflow:visible" />
  <rect
     width="32.999767"
     height="32.999767"
     rx="3.2932255"
     ry="3.2932255"
     x="7.5001159"
     y="6.5001168"
     id="rect3039"
     style="opacity:0.20000000000000001;fill:none;stroke:url(#linearGradient3056);stroke-width:1.00023174000000004;stroke-linecap:square;stroke-linejoin:round;stroke-miterlimit:4;stroke-opacity:1;stroke-dasharray:none;stroke-dashoffset:1.20000057000000004;marker:none;visibility:visible;display:inline;overflow:visible;filter:url(#filter4414)" />
  <rect
     width="28.99958"
     height="28.99958"
     rx="3.3864524"
     ry="3.3864524"
     x="9.5002098"
     y="6.5002098"
     id="rect3041"
     style="opacity:0.3;fill:url(#radialGradient3051);fill-opacity:1;fill-rule:nonzero;stroke:url(#linearGradient3053);stroke-width:1.00041997;stroke-linecap:square;stroke-linejoin:round;stroke-miterlimit:4;stroke-opacity:1;stroke-dasharray:none;stroke-dashoffset:1.20000057;marker:none;visibility:visible;display:inline;overflow:visible" />
  <g
     id="g4382"
     style="font-size:20px;font-style:normal;font-variant:normal;font-weight:normal;font-stretch:normal;line-height:125%;letter-spacing:0px;word-spacing:0px;opacity:0.7;fill:#000000;fill-opacity:1;stroke:none;font-family:Samarkan;-inkscape-font-specification:Samarkan"
     transform="translate(0,1.000156)">
    <path
       id="path4384"
       style="font-size:22px;font-weight:bold;fill:#000000;fill-opacity:1;font-family:Droid Sans;-inkscape-font-specification:Droid Sans Bold"
       d="m 30.69043,30 -0.633789,-1.632813 -0.09668,0 c -0.236336,0.322267 -0.472664,0.601564 -0.708984,0.837891 -0.236336,0.229167 -0.494148,0.418946 -0.773438,0.569336 -0.279303,0.150391 -0.594407,0.261393 -0.945312,0.333008 -0.343756,0.07161 -0.744797,0.107422 -1.203125,0.107422 -0.486983,0 -0.938155,-0.0752 -1.353516,-0.225586 -0.415367,-0.157552 -0.77702,-0.390299 -1.084961,-0.698242 -0.300783,-0.315104 -0.537111,-0.708983 -0.708984,-1.181641 -0.171876,-0.479815 -0.257814,-1.04557 -0.257813,-1.697266 -1e-6,-1.274734 0.408202,-2.212884 1.224609,-2.814453 0.816404,-0.608717 2.037431,-0.945305 3.663086,-1.009765 l 1.91211,-0.06445 0,-0.902343 c -8e-6,-0.494132 -0.143237,-0.859366 -0.429688,-1.095703 -0.286465,-0.236319 -0.687506,-0.354483 -1.203125,-0.354493 -0.51563,10e-6 -1.020513,0.07521 -1.514648,0.225586 -0.486983,0.1504 -0.977543,0.350921 -1.47168,0.601563 l -1.063476,-2.169922 c 0.601559,-0.336577 1.267574,-0.601551 1.998046,-0.794922 0.730464,-0.193347 1.49674,-0.290027 2.298829,-0.290039 1.496737,1.2e-5 2.642569,0.350923 3.4375,1.052734 0.802072,0.701834 1.203114,1.76889 1.203125,3.201172 l 0,8.00293 -2.288086,0 m -0.966797,-5.564453 -1.084961,0.04297 c -0.436855,0.01433 -0.80567,0.07162 -1.106445,0.171875 -0.300787,0.100265 -0.544276,0.236333 -0.730469,0.408203 -0.179041,0.164718 -0.311528,0.365239 -0.397461,0.601562 -0.07878,0.229171 -0.118168,0.486983 -0.118164,0.773438 -4e-6,0.501305 0.12174,0.859377 0.365234,1.074218 0.243485,0.207685 0.562169,0.311526 0.956055,0.311524 0.300775,2e-6 0.580072,-0.05013 0.83789,-0.150391 0.257806,-0.107419 0.479811,-0.26139 0.666016,-0.461914 0.193352,-0.207679 0.343743,-0.45833 0.451172,-0.751953 0.107414,-0.300777 0.161125,-0.644527 0.161133,-1.03125 l 0,-0.988281 M 27.929687,16.66895 c -0.243495,-0.200507 -0.537114,-0.447577 -0.880859,-0.741211 -0.336593,-0.300767 -0.669601,-0.608709 -0.999023,-0.923828 -0.329431,-0.315089 -0.630212,-0.61587 -0.902344,-0.902343 -0.272138,-0.293604 -0.465498,-0.537093 -0.580078,-0.730469 l 0,-0.225586 3.673828,0 c 0.114577,0.243506 0.247064,0.51206 0.397461,0.805664 0.157545,0.286474 0.318678,0.576513 0.483398,0.870117 0.164707,0.286473 0.333001,0.56577 0.504883,0.837891 0.171867,0.272149 0.333,0.512058 0.483399,0.719726 l 0,0.290039 -2.180665,0"
       inkscape:connector-curvature="0" />
  </g>
  <g
     style="font-size:20px;font-style:normal;font-variant:normal;font-weight:normal;font-stretch:normal;line-height:125%;letter-spacing:0px;word-spacing:0px;fill:#ffffff;fill-opacity:1;stroke:none;font-family:Samarkan;-inkscape-font-specification:Samarkan"
     id="text3607">
    <path
       d="m 30.69043,30 -0.633789,-1.632813 -0.09668,0 c -0.236336,0.322267 -0.472664,0.601564 -0.708984,0.837891 -0.236336,0.229167 -0.494148,0.418946 -0.773438,0.569336 -0.279303,0.150391 -0.594407,0.261393 -0.945312,0.333008 -0.343756,0.07161 -0.744797,0.107422 -1.203125,0.107422 -0.486983,0 -0.938155,-0.0752 -1.353516,-0.225586 -0.415367,-0.157552 -0.77702,-0.390299 -1.084961,-0.698242 -0.300783,-0.315104 -0.537111,-0.708983 -0.708984,-1.181641 -0.171876,-0.479815 -0.257814,-1.04557 -0.257813,-1.697266 -1e-6,-1.274734 0.408202,-2.212884 1.224609,-2.814453 0.816404,-0.608717 2.037431,-0.945305 3.663086,-1.009765 l 1.91211,-0.06445 0,-0.902343 c -8e-6,-0.494132 -0.143237,-0.859366 -0.429688,-1.095703 -0.286465,-0.236319 -0.687506,-0.354483 -1.203125,-0.354493 -0.51563,10e-6 -1.020513,0.07521 -1.514648,0.225586 -0.486983,0.1504 -0.977543,0.350921 -1.47168,0.601563 l -1.063476,-2.169922 c 0.601559,-0.336577 1.267574,-0.601551 1.998046,-0.794922 0.730464,-0.193347 1.49674,-0.290027 2.298829,-0.290039 1.496737,1.2e-5 2.642569,0.350923 3.4375,1.052734 0.802072,0.701834 1.203114,1.76889 1.203125,3.201172 l 0,8.00293 -2.288086,0 m -0.966797,-5.564453 -1.084961,0.04297 c -0.436855,0.01433 -0.80567,0.07162 -1.106445,0.171875 -0.300787,0.100265 -0.544276,0.236333 -0.730469,0.408203 -0.179041,0.164718 -0.311528,0.365239 -0.397461,0.601562 -0.07878,0.229171 -0.118168,0.486983 -0.118164,0.773438 -4e-6,0.501305 0.12174,0.859377 0.365234,1.074218 0.243485,0.207685 0.562169,0.311526 0.956055,0.311524 0.300775,2e-6 0.580072,-0.05013 0.83789,-0.150391 0.257806,-0.107419 0.479811,-0.26139 0.666016,-0.461914 0.193352,-0.207679 0.343743,-0.45833 0.451172,-0.751953 0.107414,-0.300777 0.161125,-0.644527 0.161133,-1.03125 l 0,-0.988281 m -1.793946,-7.766602 c -0.243495,-0.200507 -0.537114,-0.447577 -0.880859,-0.741211 -0.336593,-0.300767 -0.669601,-0.608709 -0.999023,-0.923828 -0.329431,-0.315089 -0.630212,-0.61587 -0.902344,-0.902343 -0.272138,-0.293604 -0.465498,-0.537093 -0.580078,-0.730469 l 0,-0.225586 3.673828,0 c 0.114577,0.243506 0.247064,0.51206 0.397461,0.805664 0.157545,0.286474 0.318678,0.576513 0.483398,0.870117 0.164707,0.286473 0.333001,0.56577 0.504883,0.837891 0.171867,0.272149 0.333,0.512058 0.483399,0.719726 l 0,0.290039 -2.180665,0"
       style="font-size:22px;font-weight:bold;fill:#ffffff;font-family:Droid Sans;-inkscape-font-specification:Droid Sans Bold"
       id="path4380" />
  </g>
  <path
     style="fill:none;stroke:#ffffff;stroke-width:1px;stroke-linecap:butt;stroke-linejoin:miter;stroke-opacity:1;opacity:0.10000000000000001;filter:url(#filter4426)"
     d="M 10,34 5,42.660254"
     id="path4386"
     inkscape:connector-curvature="0" />
  <path
     style="fill:none;stroke:#ffffff;stroke-width:1px;stroke-linecap:butt;stroke-linejoin:miter;stroke-opacity:1;filter:url(#filter4406);opacity:0.05"
     d="m 38,35 4.041452,7"
     id="path4392"
     inkscape:connector-curvature="0" />
</svg>
