<?xml version="1.0" encoding="UTF-8" standalone="no"?>
<svg
   xmlns:dc="http://purl.org/dc/elements/1.1/"
   xmlns:cc="http://creativecommons.org/ns#"
   xmlns:rdf="http://www.w3.org/1999/02/22-rdf-syntax-ns#"
   xmlns:svg="http://www.w3.org/2000/svg"
   xmlns="http://www.w3.org/2000/svg"
   xmlns:xlink="http://www.w3.org/1999/xlink"
   id="svg3757"
   height="48"
   width="48"
   version="1.1">
  <metadata
     id="metadata93109">
    <rdf:RDF>
      <cc:Work
         rdf:about="">
        <dc:format>image/svg+xml</dc:format>
        <dc:type
           rdf:resource="http://purl.org/dc/dcmitype/StillImage" />
      </cc:Work>
    </rdf:RDF>
  </metadata>
  <defs
     id="defs3759">
    <linearGradient
       gradientTransform="matrix(2.1725458,0,0,2.1724962,-111.63324,32.127275)"
       gradientUnits="userSpaceOnUse"
       xlink:href="#linearGradient4873"
       id="linearGradient3678"
       y2="7.4434662"
       x2="63.397362"
       y1="-12.486685"
       x1="63.397362" />
    <linearGradient
       id="linearGradient4873">
      <stop
         offset="0"
         style="stop-color:#ffffff;stop-opacity:1"
         id="stop4875" />
      <stop
         offset="1"
         style="stop-color:#ffffff;stop-opacity:0"
         id="stop4877" />
    </linearGradient>
    <radialGradient
       gradientTransform="matrix(0,4.523581,-4.3653221,0,-4.1595525,-273.48419)"
       gradientUnits="userSpaceOnUse"
       xlink:href="#linearGradient2867-449-88-871-390-598-476-591-434-148"
       id="radialGradient3681"
       fy="-6.1398492"
       fx="61.341709"
       r="9.7552834"
       cy="-6.1398492"
       cx="61.341709" />
    <linearGradient
       id="linearGradient2867-449-88-871-390-598-476-591-434-148">
      <stop
         offset="0"
         style="stop-color:#51cfee;stop-opacity:1"
         id="stop4627" />
      <stop
         offset="0.26238"
         style="stop-color:#49a3d2;stop-opacity:1"
         id="stop4629" />
      <stop
         offset="0.704952"
         style="stop-color:#3470b4;stop-opacity:1"
         id="stop4631" />
      <stop
         offset="1"
         style="stop-color:#1b5699;stop-opacity:1"
         id="stop4633" />
    </linearGradient>
    <linearGradient
       gradientTransform="matrix(1.0051426,0,0,1.0051197,-0.2286603,-0.0123579)"
       gradientUnits="userSpaceOnUse"
       xlink:href="#linearGradient3707-319-631"
       id="linearGradient3683"
       y2="3.8851264"
       x2="15.046636"
       y1="44.787998"
       x1="15.046636" />
    <linearGradient
       id="linearGradient3707-319-631">
      <stop
         offset="0"
         style="stop-color:#254b6d;stop-opacity:1"
         id="stop4637" />
      <stop
         offset="0.5"
         style="stop-color:#415b73;stop-opacity:1"
         id="stop4639" />
      <stop
         offset="1"
         style="stop-color:#6195b5;stop-opacity:1"
         id="stop4641" />
    </linearGradient>
    <linearGradient
       id="linearGradient8838">
      <stop
         offset="0"
         style="stop-color:#000000;stop-opacity:1"
         id="stop8840" />
      <stop
         offset="1"
         style="stop-color:#000000;stop-opacity:0"
         id="stop8842" />
    </linearGradient>
    <radialGradient
       gradientTransform="matrix(2.149872,0,0,0.87466073,-111.38573,34.661405)"
       gradientUnits="userSpaceOnUse"
       xlink:href="#linearGradient8838"
       id="radialGradient3755"
       fy="4.625"
       fx="62.625"
       r="10.625"
       cy="4.625"
       cx="62.625" />
  </defs>
  <g
     id="layer1">
    <path
       style="opacity:0.4;fill:url(#radialGradient3755);fill-opacity:1;fill-rule:evenodd;stroke:none;stroke-width:0.99999988;marker:none;visibility:visible;display:inline;overflow:visible"
       id="path8836"
       d="m 46.092394,38.706716 a 22.84239,9.2932831 0 0 1 -45.68478,0 22.84239,9.2932831 0 1 1 45.68478,0 z" />
    <path
       style="fill:url(#radialGradient3681);fill-opacity:1;fill-rule:nonzero;stroke:url(#linearGradient3683);stroke-width:1;stroke-miterlimit:4;stroke-dasharray:none"
       id="path6495"
       d="m 43.500002,24.499292 c 0,11.046051 -8.954965,20.000709 -19.99975,20.000709 -11.045794,0 -20.0002519,-8.95476 -20.0002519,-20.000709 C 3.5000001,13.453749 12.454458,4.5 23.500252,4.5 c 11.044785,0 19.99975,8.953749 19.99975,19.999292 l 0,0 z" />
    <path
       style="opacity:0.4;fill:none;stroke:url(#linearGradient3678);stroke-width:1;stroke-miterlimit:4;stroke-opacity:1;stroke-dasharray:none"
       id="path8655"
       d="m 42.500001,24.499325 c 0,10.493749 -8.507216,19.000673 -18.99976,19.000673 -10.493505,0 -19.0002409,-8.507021 -19.0002409,-19.000673 0,-10.493264 8.5067359,-18.9993255 19.0002409,-18.9993255 10.492544,0 18.99976,8.5060615 18.99976,18.9993255 l 0,0 z" />
    <path
       style="opacity:0.25;fill:#000000;fill-opacity:1;stroke:none"
       id="path3199"
       d="m 36,24.499999 a 12.5,12.5 0 1 1 -24.999999,0 12.5,12.5 0 1 1 24.999999,0 z" />
    <path
       style="opacity:0.4;fill:#000000;fill-opacity:1;stroke:none"
       id="path3218-0"
       d="m 30.999991,25.000021 c 0.0011,0.129364 -5.329099,3.184841 -5.438039,3.249517 -0.109997,0.0653 -5.397785,3.31388 -5.508297,3.249518 -0.109457,-0.06375 -0.01756,-6.338391 -0.01756,-6.467746 2.4e-5,-0.130597 -0.0919,-6.464078 0.01756,-6.53032 0.108395,-0.06561 5.346672,3.153553 5.455609,3.218231 0.109989,0.0653 5.489679,3.150199 5.490728,3.2808 z" />
    <path
       style="fill:#ffffff;fill-opacity:1;stroke:none"
       id="path3218"
       d="m 30.999991,24.000025 c 0.0011,0.129364 -5.329099,3.184841 -5.438039,3.249517 -0.109997,0.0653 -5.397785,3.31388 -5.508297,3.249518 -0.109457,-0.06375 -0.01756,-6.338391 -0.01756,-6.467746 2.4e-5,-0.130597 -0.0919,-6.464078 0.01756,-6.53032 0.108395,-0.06561 5.346672,3.153553 5.455609,3.218231 0.109989,0.0653 5.489679,3.150199 5.490728,3.2808 z" />
  </g>
</svg>
