<?xml version="1.0" encoding="UTF-8" standalone="no"?>
<svg
   viewBox="0 0 48 48"
   version="1.0"
   width="48"
   height="48"
   id="svg11300"
   sodipodi:docname="blueman-device.svg"
   inkscape:version="1.1.2 (0a00cf5339, 2022-02-04)"
   xmlns:inkscape="http://www.inkscape.org/namespaces/inkscape"
   xmlns:sodipodi="http://sodipodi.sourceforge.net/DTD/sodipodi-0.dtd"
   xmlns:xlink="http://www.w3.org/1999/xlink"
   xmlns="http://www.w3.org/2000/svg"
   xmlns:svg="http://www.w3.org/2000/svg"
   xmlns:rdf="http://www.w3.org/1999/02/22-rdf-syntax-ns#"
   xmlns:cc="http://creativecommons.org/ns#"
   xmlns:dc="http://purl.org/dc/elements/1.1/">
  <sodipodi:namedview
     pagecolor="#ffffff"
     bordercolor="#666666"
     borderopacity="1"
     objecttolerance="10"
     gridtolerance="10"
     guidetolerance="10"
     inkscape:pageopacity="0"
     inkscape:pageshadow="2"
     inkscape:window-width="1317"
     inkscape:window-height="890"
     id="namedview38"
     showgrid="false"
     inkscape:zoom="13.906434"
     inkscape:cx="25.132252"
     inkscape:cy="28.296255"
     inkscape:window-x="601"
     inkscape:window-y="93"
     inkscape:window-maximized="0"
     inkscape:current-layer="svg11300"
     inkscape:pagecheckerboard="0" />
  <metadata
     id="metadata49">
    <rdf:RDF>
      <cc:Work
         rdf:about="">
        <dc:format>image/svg+xml</dc:format>
        <dc:type
           rdf:resource="http://purl.org/dc/dcmitype/StillImage" />
      </cc:Work>
    </rdf:RDF>
  </metadata>
  <defs
     id="defs3">
    <linearGradient
       id="linearGradient4614">
      <stop
         offset="0"
         style="stop-color:#ffffff;stop-opacity:1"
         id="stop4606" />
      <stop
         offset="0"
         style="stop-color:#ffffff;stop-opacity:0.23529412"
         id="stop4608" />
      <stop
         offset="0.9812181"
         style="stop-color:#ffffff;stop-opacity:0.15686275"
         id="stop4610" />
      <stop
         offset="1"
         style="stop-color:#ffffff;stop-opacity:0.39215687"
         id="stop4612" />
    </linearGradient>
    <linearGradient
       id="linearGradient3742">
      <stop
         id="stop3734"
         style="stop-color:#ffffff;stop-opacity:0.30000001"
         offset="0" />
      <stop
         id="stop3736"
         style="stop-color:#ffffff;stop-opacity:0.23529412"
         offset="0.01900466" />
      <stop
         id="stop3738"
         style="stop-color:#ffffff;stop-opacity:0.15686275"
         offset="0.9812181" />
      <stop
         id="stop3740"
         style="stop-color:#ffffff;stop-opacity:0.1"
         offset="1" />
    </linearGradient>
    <radialGradient
       r="22.627001"
       gradientTransform="matrix(0.48613231,0,0,0.11048705,12.656462,40.898188)"
       cx="23.334999"
       cy="41.636002"
       gradientUnits="userSpaceOnUse"
       id="radialGradient7374">
      <stop
         offset="0"
         id="stop23421" />
      <stop
         offset="1"
         style="stop-opacity:0"
         id="stop23423" />
    </radialGradient>
    <linearGradient
       id="linearGradient3600-8">
      <stop
         id="stop3602-2"
         style="stop-color:#64baff;stop-opacity:1"
         offset="0" />
      <stop
         id="stop3604-5"
         style="stop-color:#3689e6;stop-opacity:1"
         offset="1" />
    </linearGradient>
    <linearGradient
       x1="11.098394"
       y1="5.9702148"
       x2="11.098394"
       y2="45.68882"
       id="linearGradient5466-8-3"
       xlink:href="#linearGradient3600-8"
       gradientUnits="userSpaceOnUse"
       gradientTransform="matrix(1.0036581,0,0,0.88052421,17.344331,-3.7604544)" />
    <linearGradient
       y2="31.67935"
       x2="118.57409"
       y1="3.7037382"
       x1="118.57409"
       gradientTransform="matrix(0.62162171,0,0,1.1427336,-41.600004,-1.2167222)"
       gradientUnits="userSpaceOnUse"
       id="linearGradient3730"
       xlink:href="#linearGradient3742" />
    <linearGradient
       y2="-26.979191"
       x2="116.7913"
       y1="-37.80846"
       x1="116.7913"
       gradientTransform="matrix(0.62162171,0,0,1.108108,-41.600004,-2.104142)"
       gradientUnits="userSpaceOnUse"
       id="linearGradient4604"
       xlink:href="#linearGradient4614" />
    <linearGradient
       id="linearGradient7056">
      <stop
         id="stop7064"
         style="stop-color:#e6e6e6;stop-opacity:1"
         offset="0" />
      <stop
         id="stop7060"
         style="stop-color:#c8c8c8;stop-opacity:1"
         offset="1" />
    </linearGradient>
    <linearGradient
       gradientUnits="userSpaceOnUse"
       y2="-44.395805"
       x2="25"
       y1="-35"
       x1="25"
       id="linearGradient4763"
       xlink:href="#linearGradient7056"
       gradientTransform="translate(0,-1)" />
  </defs>
  <path
     d="m 35,45.4986 a 11,2.5 0 1 1 -22,0 11,2.5 0 1 1 22,0 z"
     style="opacity:0.3;fill:url(#radialGradient7374);fill-rule:evenodd;stroke-width:1"
     id="path23417" />
  <rect
     x="16.5"
     y="-45.5"
     width="15"
     height="15"
     ry="1"
     rx="1"
     transform="scale(1,-1)"
     style="fill:url(#linearGradient4763);fill-opacity:1;stroke:none"
     id="rect3448" />
  <rect
     x="16.5"
     y="-45.5"
     width="15"
     height="15"
     ry="1"
     rx="1"
     transform="scale(1,-1)"
     style="opacity:0.4;fill:none;stroke:#000000;stroke-opacity:1"
     id="rect3448-9" />
  <path
     id="rect3450"
     d="m 19.5,39.5 v 3 h 3 v -3 z m 6,0 v 3 h 3 v -3 z"
     style="opacity:0.4;fill:#000000;fill-opacity:0.335988;stroke:#000000;stroke-width:1;stroke-linecap:butt;stroke-linejoin:miter;stroke-miterlimit:4;stroke-dasharray:none;stroke-dashoffset:0;stroke-opacity:1" />
  <rect
     x="17.5"
     y="-44.5"
     width="13"
     height="13"
     transform="scale(1,-1)"
     style="opacity:0.6;fill:none;fill-opacity:1;stroke:url(#linearGradient4604);stroke-width:1;stroke-linecap:round;stroke-linejoin:round;stroke-miterlimit:4;stroke-dasharray:none;stroke-dashoffset:0;stroke-opacity:1;marker:none"
     id="rect3458" />
  <rect
     x="13.5"
     y="1.5"
     width="21"
     height="35"
     ry="2"
     rx="2"
     style="opacity:1;fill:url(#linearGradient5466-8-3);fill-opacity:1;stroke:none;stroke-width:0.999921;stroke-linecap:butt;stroke-linejoin:round;stroke-miterlimit:4;stroke-dasharray:none;stroke-dashoffset:0;stroke-opacity:1;marker:none"
     id="rect5391" />
  <rect
     x="13.5"
     y="1.5"
     width="21"
     height="35"
     ry="2"
     rx="2"
     style="opacity:0.3;fill:none;fill-opacity:1;stroke:#000000;stroke-width:1;stroke-linecap:butt;stroke-linejoin:round;stroke-miterlimit:4;stroke-dasharray:none;stroke-dashoffset:0;stroke-opacity:1;marker:none;paint-order:normal"
     id="rect5391-2" />
  <rect
     x="14.499961"
     y="2.5"
     width="19"
     height="33"
     ry="1"
     rx="1"
     style="opacity:1;fill:none;fill-opacity:1;stroke:url(#linearGradient3730);stroke-width:1;stroke-linecap:round;stroke-linejoin:round;stroke-miterlimit:4;stroke-dasharray:none;stroke-dashoffset:0;stroke-opacity:1;marker:none"
     id="rect5391-2-0" />
  <path
     style="color:#bebebe;display:inline;overflow:visible;visibility:visible;fill:#002e99;fill-opacity:0.5;fill-rule:nonzero;stroke:none;stroke-width:2.344;marker:none;enable-background:accumulate"
     id="path1327"
     d="m 23.57224,11 c -0.356143,0 -0.568573,0.286737 -0.572567,0.642857 v 6.267858 l -2.430785,-1.928572 c -0.402274,-0.351578 -0.974378,-0.281726 -1.325892,0.120536 -0.351515,0.402274 -0.321918,1.014544 0.08036,1.366071 L 22.366886,20 l -3.04353,2.53125 c -0.402275,0.351516 -0.431872,0.9638 -0.08036,1.366072 0.351514,0.402272 0.923618,0.472051 1.325892,0.120536 l 2.430785,-1.928572 v 6.267857 c 0,0.356143 0.216424,0.642857 0.572567,0.642857 0.363112,0 0.5625,-0.02511 0.84375,-0.241071 l 4.389505,-4.058036 c 0.144399,-0.128455 0.233293,-0.309497 0.28125,-0.482143 0.01826,-0.06598 0.03639,-0.132878 0.04012,-0.200892 0.0051,-0.054 0.0039,-0.106715 0,-0.160715 -0.0077,-0.06893 -0.01749,-0.134421 -0.04012,-0.200893 -0.0495,-0.172234 -0.13572,-0.354985 -0.28125,-0.482142 L 25.103114,20 28.805495,16.825893 c 0.14553,-0.127166 0.231789,-0.30992 0.28125,-0.482143 0.02263,-0.06653 0.03266,-0.131972 0.04012,-0.200893 0.0039,-0.05399 0.0051,-0.106725 0,-0.160714 -0.0039,-0.06803 -0.02186,-0.134919 -0.04012,-0.200893 -0.04796,-0.172653 -0.136851,-0.353694 -0.28125,-0.482143 L 24.41599,11.241072 C 24.159759,11.034094 23.866412,11 23.57224,11 Z m 0.427433,2.499999 2.756715,2.562501 -2.756715,2.437499 z m 0,8 2.756715,2.437501 -2.756715,2.562498 z"
     sodipodi:nodetypes="scccccccsccsscccccccccccccccscccccccc" />
  <path
     style="color:#bebebe;display:inline;overflow:visible;visibility:visible;fill:#ffffff;fill-opacity:1;fill-rule:nonzero;stroke:none;stroke-width:2.344;marker:none;enable-background:accumulate"
     id="rect6885-0"
     d="m 23.57224,10 c -0.356143,0 -0.568573,0.286737 -0.572567,0.642857 v 6.267858 l -2.430785,-1.928572 c -0.402274,-0.351578 -0.974378,-0.281726 -1.325892,0.120536 -0.351515,0.402274 -0.321918,1.014544 0.08036,1.366071 L 22.366886,19 l -3.04353,2.53125 c -0.402275,0.351516 -0.431872,0.9638 -0.08036,1.366072 0.351514,0.402272 0.923618,0.472051 1.325892,0.120536 l 2.430785,-1.928572 v 6.267857 c 0,0.356143 0.216424,0.642857 0.572567,0.642857 0.363112,0 0.5625,-0.02511 0.84375,-0.241071 l 4.389505,-4.058036 c 0.144399,-0.128455 0.233293,-0.309497 0.28125,-0.482143 0.01826,-0.06598 0.03639,-0.132878 0.04012,-0.200892 0.0051,-0.054 0.0039,-0.106715 0,-0.160715 -0.0077,-0.06893 -0.01749,-0.134421 -0.04012,-0.200893 -0.0495,-0.172234 -0.13572,-0.354985 -0.28125,-0.482142 L 25.103114,19 28.805495,15.825893 c 0.14553,-0.127166 0.231789,-0.30992 0.28125,-0.482143 0.02263,-0.06653 0.03266,-0.131972 0.04012,-0.200893 0.0039,-0.05399 0.0051,-0.106725 0,-0.160714 -0.0039,-0.06803 -0.02186,-0.134919 -0.04012,-0.200893 -0.04796,-0.172653 -0.136851,-0.353694 -0.28125,-0.482143 L 24.41599,10.241072 C 24.159759,10.034094 23.866412,10 23.57224,10 Z m 0.427433,2.499999 2.756715,2.562501 -2.756715,2.437499 z m 0,8 2.756715,2.437501 -2.756715,2.562498 z"
     sodipodi:nodetypes="scccccccsccsscccccccccccccccscccccccc" />
</svg>
