<?xml version="1.0" encoding="UTF-8" standalone="no"?>
<svg
   version="1.1"
   width="48"
   height="48"
   id="svg20096"
   sodipodi:docname="catfish.svg"
   inkscape:version="1.1.1 (3bf5ae0d25, 2021-09-20)"
   xmlns:inkscape="http://www.inkscape.org/namespaces/inkscape"
   xmlns:sodipodi="http://sodipodi.sourceforge.net/DTD/sodipodi-0.dtd"
   xmlns:xlink="http://www.w3.org/1999/xlink"
   xmlns="http://www.w3.org/2000/svg"
   xmlns:svg="http://www.w3.org/2000/svg"
   xmlns:rdf="http://www.w3.org/1999/02/22-rdf-syntax-ns#"
   xmlns:cc="http://creativecommons.org/ns#">
  <sodipodi:namedview
     id="namedview97"
     pagecolor="#ffffff"
     bordercolor="#666666"
     borderopacity="1.0"
     inkscape:pageshadow="2"
     inkscape:pageopacity="0.0"
     inkscape:pagecheckerboard="0"
     showgrid="false"
     inkscape:zoom="10.046809"
     inkscape:cx="3.6329943"
     inkscape:cy="55.24142"
     inkscape:window-width="1317"
     inkscape:window-height="890"
     inkscape:window-x="297"
     inkscape:window-y="140"
     inkscape:window-maximized="0"
     inkscape:current-layer="svg20096" />
  <defs
     id="defs20098">
    <linearGradient
       id="linearGradient3454-2-8-6-1-1-8-0-6">
      <stop
         id="stop3456-4-7-9-4-0-3-6-2"
         style="stop-color:#ffffff;stop-opacity:1"
         offset="0" />
      <stop
         id="stop3458-39-0-8-61-3-8-9-0"
         style="stop-color:#ffffff;stop-opacity:0.23529412"
         offset="0.0097359" />
      <stop
         id="stop3460-7-5-4-1-6-6-6-2"
         style="stop-color:#ffffff;stop-opacity:0.15686275"
         offset="0.99001008" />
      <stop
         id="stop3462-0-5-6-6-2-1-6-0"
         style="stop-color:#ffffff;stop-opacity:0.39215687"
         offset="1" />
    </linearGradient>
    <linearGradient
       id="linearGradient6129-963-697-142-998-580-273-0-8-4-9-0-0-0">
      <stop
         id="stop2661-3-02-4-8-0-4-3"
         style="stop-color:#0a0a0a;stop-opacity:0.498"
         offset="0" />
      <stop
         id="stop2663-2-8-06-2-4-6-4"
         style="stop-color:#0a0a0a;stop-opacity:0"
         offset="1" />
    </linearGradient>
    <linearGradient
       id="linearGradient4632-0-6-4">
      <stop
         id="stop4634-4-4-7"
         style="stop-color:#e9e9e9;stop-opacity:1"
         offset="0" />
      <stop
         id="stop4636-3-1-5"
         style="stop-color:#b4b4b4;stop-opacity:1"
         offset="1" />
    </linearGradient>
    <linearGradient
       id="linearGradient5060-820-9-0-7-1-7-7-1">
      <stop
         id="stop2681-5-4-3-6-3-8-2"
         style="stop-color:#000000;stop-opacity:1"
         offset="0" />
      <stop
         id="stop2683-8-6-9-4-6-6-2"
         style="stop-color:#000000;stop-opacity:0"
         offset="1" />
    </linearGradient>
    <linearGradient
       id="linearGradient5060-179-2-0-3-6-2-2-8">
      <stop
         id="stop2675-9-9-4-1-4-4-9"
         style="stop-color:#000000;stop-opacity:1"
         offset="0" />
      <stop
         id="stop2677-1-7-2-6-1-8-3"
         style="stop-color:#000000;stop-opacity:0"
         offset="1" />
    </linearGradient>
    <linearGradient
       id="linearGradient5048-585-4-0-56-2-5-2-1">
      <stop
         id="stop2667-5-0-7-4-7-7-2"
         style="stop-color:#000000;stop-opacity:0"
         offset="0" />
      <stop
         id="stop2669-4-1-8-0-6-9-3"
         style="stop-color:#000000;stop-opacity:1"
         offset="0.5" />
      <stop
         id="stop2671-2-6-3-2-0-6-0"
         style="stop-color:#000000;stop-opacity:0"
         offset="1" />
    </linearGradient>
    <linearGradient
       id="linearGradient4507-9-2-2-3-6-9-9">
      <stop
         id="stop4509-9-8-4-2-3-4-5"
         style="stop-color:#ffffff;stop-opacity:1"
         offset="0" />
      <stop
         id="stop4511-7-50-2-1-3-9-4"
         style="stop-color:#ffffff;stop-opacity:0.23529412"
         offset="0.07395859" />
      <stop
         id="stop4513-2-0-2-9-2-6-2"
         style="stop-color:#ffffff;stop-opacity:0.15686275"
         offset="0.99001008" />
      <stop
         id="stop4515-3-9-8-6-6-0-7"
         style="stop-color:#ffffff;stop-opacity:0.39215687"
         offset="1" />
    </linearGradient>
    <linearGradient
       id="linearGradient4646-6-91-5-0-5-8-4">
      <stop
         id="stop4648-2-4-6-6-8-7-1"
         style="stop-color:#f9f9f9;stop-opacity:1"
         offset="0" />
      <stop
         id="stop4650-3-8-5-3-4-5-7"
         style="stop-color:#d8d8d8;stop-opacity:1"
         offset="1" />
    </linearGradient>
    <linearGradient
       id="linearGradient3104-8-8-97-4-6-2-0-1-4-0-5-8">
      <stop
         id="stop3106-5-4-3-5-0-1-61-9-2-7-3-3"
         style="stop-color:#000000;stop-opacity:0.32173914"
         offset="0" />
      <stop
         id="stop3108-4-3-7-8-2-4-01-9-9-0-6-4"
         style="stop-color:#000000;stop-opacity:0.27826086"
         offset="1" />
    </linearGradient>
    <linearGradient
       xlink:href="#linearGradient3104-8-8-97-4-6-2-0-1-4-0-5-8"
       id="linearGradient3078"
       gradientUnits="userSpaceOnUse"
       gradientTransform="matrix(0.80749834,0,0,0.83374395,106.87671,-0.0698511)"
       x1="-51.786404"
       y1="53.514328"
       x2="-51.786404"
       y2="3.6336823" />
    <linearGradient
       xlink:href="#linearGradient4646-6-91-5-0-5-8-4"
       id="linearGradient3080"
       gradientUnits="userSpaceOnUse"
       gradientTransform="translate(-50.940885,-1.1095734e-5)"
       x1="62.988873"
       y1="13"
       x2="62.988873"
       y2="16" />
    <linearGradient
       xlink:href="#linearGradient4507-9-2-2-3-6-9-9"
       id="linearGradient3082"
       gradientUnits="userSpaceOnUse"
       gradientTransform="matrix(0.89189031,0,0,1.0580283,3.1207247,5.3535889)"
       x1="21.37039"
       y1="4.2476678"
       x2="21.37039"
       y2="34.143417" />
    <linearGradient
       xlink:href="#linearGradient5048-585-4-0-56-2-5-2-1"
       id="linearGradient3084"
       gradientUnits="userSpaceOnUse"
       gradientTransform="matrix(0.07938856,0,0,0.02470588,-4.6932851,31.941629)"
       x1="302.85715"
       y1="366.64789"
       x2="302.85715"
       y2="609.50507" />
    <radialGradient
       xlink:href="#linearGradient5060-179-2-0-3-6-2-2-8"
       id="radialGradient3086"
       gradientUnits="userSpaceOnUse"
       gradientTransform="matrix(0.03079083,0,0,0.02470588,24.610215,31.941629)"
       cx="605.71429"
       cy="486.64789"
       fx="605.71429"
       fy="486.64789"
       r="117.14286" />
    <radialGradient
       xlink:href="#linearGradient5060-820-9-0-7-1-7-7-1"
       id="radialGradient3088"
       gradientUnits="userSpaceOnUse"
       gradientTransform="matrix(-0.03079083,0,0,0.02470588,23.389815,31.941629)"
       cx="605.71429"
       cy="486.64789"
       fx="605.71429"
       fy="486.64789"
       r="117.14286" />
    <linearGradient
       xlink:href="#linearGradient4632-0-6-4"
       id="linearGradient3090"
       gradientUnits="userSpaceOnUse"
       gradientTransform="matrix(1,0,0,1.0357143,1.4880025e-5,-1.5891011)"
       x1="35.792694"
       y1="17.118193"
       x2="35.792694"
       y2="43.761127" />
    <linearGradient
       xlink:href="#linearGradient6129-963-697-142-998-580-273-0-8-4-9-0-0-0"
       id="linearGradient3092"
       gradientUnits="userSpaceOnUse"
       gradientTransform="matrix(1.1446925,0,0,0.9977536,-3.4660851,1.0988289)"
       x1="22.934725"
       y1="49.629246"
       x2="22.809399"
       y2="36.657963" />
    <linearGradient
       xlink:href="#linearGradient3454-2-8-6-1-1-8-0-6"
       id="linearGradient3094"
       gradientUnits="userSpaceOnUse"
       gradientTransform="matrix(0.89189031,0,0,1.0986542,3.1206758,3.8887972)"
       x1="42.470848"
       y1="11.952797"
       x2="42.470848"
       y2="35.581654" />
    <linearGradient
       inkscape:collect="always"
       xlink:href="#linearGradient5415"
       id="linearGradient20446-3"
       gradientUnits="userSpaceOnUse"
       gradientTransform="matrix(2.3571429,0,0,2.3571455,12.008512,14.996771)"
       x1="3.6063595"
       y1="2.4648578"
       x2="4.8660984"
       y2="7.1662626" />
    <linearGradient
       inkscape:collect="always"
       id="linearGradient5415">
      <stop
         style="stop-color:#ffffff;stop-opacity:0.30000001"
         offset="0"
         id="stop5411" />
      <stop
         style="stop-color:#ffffff;stop-opacity:0.05"
         offset="1"
         id="stop5413" />
    </linearGradient>
    <linearGradient
       inkscape:collect="always"
       xlink:href="#linearGradient917"
       id="linearGradient919"
       x1="0.69086045"
       y1="5.025197"
       x2="-1.8397607"
       y2="5.7032747"
       gradientUnits="userSpaceOnUse"
       gradientTransform="matrix(2.0615604,0,0,2.0615604,-36.769509,-14.231536)" />
    <linearGradient
       inkscape:collect="always"
       id="linearGradient917">
      <stop
         style="stop-color:#f6fafd;stop-opacity:1;"
         offset="0"
         id="stop913" />
      <stop
         style="stop-color:#f6fafd;stop-opacity:0;"
         offset="1"
         id="stop915" />
    </linearGradient>
    <linearGradient
       inkscape:collect="always"
       xlink:href="#linearGradient15780"
       id="linearGradient15782"
       x1="10.554169"
       y1="10.18988"
       x2="8.150795"
       y2="12.593252"
       gradientUnits="userSpaceOnUse"
       gradientTransform="matrix(2.8209296,7.8213081e-4,7.8213081e-4,2.8209326,12.689808,15.603717)" />
    <linearGradient
       inkscape:collect="always"
       id="linearGradient15780">
      <stop
         style="stop-color:#f9c440;stop-opacity:1"
         offset="0"
         id="stop15776" />
      <stop
         style="stop-color:#8a715e;stop-opacity:1"
         offset="1"
         id="stop15778" />
    </linearGradient>
  </defs>
  <metadata
     id="metadata20101">
    <rdf:RDF>
      <cc:Work
         rdf:about="" />
    </rdf:RDF>
  </metadata>
  <g
     id="g3066"
     transform="translate(0,-2.0000005)">
    <path
       d="m 5.5000147,8.4999887 c -0.554,0 -1,0.446 -1,1 l 0,2.0000003 -1,0 c -0.554,0 -1,0.446 -1,1 l 0,6 c 0,0.554 0.446,1 1,1 l 40.9999903,0 c 0.554,0 1,-0.446 1,-1 l 0,-6 c 0,-0.554 -0.446,-1 -1,-1 l -22.99999,0 0,-2.0000003 c 0,-0.554 -0.446,-1 -1,-1 l -15.0000003,0 z"
       id="rect4251-0-0-1-1-9-5-2-3"
       style="opacity:0.8;color:#000000;fill:none;stroke:url(#linearGradient3078);stroke-width:1;stroke-linecap:butt;stroke-linejoin:miter;stroke-miterlimit:4;stroke-opacity:1;stroke-dasharray:none;stroke-dashoffset:0;marker:none;visibility:visible;display:inline;overflow:visible;enable-background:accumulate" />
    <path
       d="m 5.5000147,8.9999887 c -0.277,0 -0.5,0.223 -0.5,0.5 l 0,2.5000003 -1.5,0 c -0.277,0 -0.5,0.223 -0.5,0.5 l 0,6 c 0,0.277 0.223,0.5 0.5,0.5 l 40.9999903,0 c 0.277,0 0.5,-0.223 0.5,-0.5 l 0,-6 c 0,-0.277 -0.223,-0.5 -0.5,-0.5 l -23.49999,0 0,-2.5000003 c 0,-0.277 -0.223,-0.5 -0.5,-0.5 l -15.0000003,0 z"
       id="rect4251-4-7-62-4-4-9-2"
       style="color:#000000;fill:url(#linearGradient3080);fill-opacity:1;fill-rule:nonzero;stroke:none;stroke-width:0.99992168;marker:none;visibility:visible;display:inline;overflow:visible;enable-background:accumulate" />
    <path
       d="m 5.5000147,9.4999887 0,3.0000003 -2,0 0,7 40.9999903,0 0,-7 -23.99999,0 0,-3.0000003 -15.0000003,0 z"
       id="rect4251-9-9-0-05-2-0-5-9"
       style="color:#000000;fill:none;stroke:url(#linearGradient3082);stroke-width:1;stroke-linecap:round;stroke-linejoin:round;stroke-miterlimit:4;stroke-opacity:1;stroke-dasharray:none;stroke-dashoffset:0;marker:none;visibility:visible;display:inline;overflow:visible;enable-background:accumulate" />
    <rect
       width="38.333332"
       height="6.0000005"
       x="4.8333788"
       y="41"
       id="rect4173-6-7-7-3-5-1-4"
       style="opacity:0.3;fill:url(#linearGradient3084);fill-opacity:1;fill-rule:nonzero;stroke:none;stroke-width:1;marker:none;visibility:visible;display:inline;overflow:visible" />
    <path
       d="m 43.166705,41.000199 c 0,0 0,5.99967 0,5.99967 1.5856,0.0113 3.8333,-1.34422 3.8333,-3.00022 0,-1.656 -1.7695,-2.99945 -3.8333,-2.99945 z"
       id="path5058-7-9-1-3-0-3-4"
       style="opacity:0.3;fill:url(#radialGradient3086);fill-opacity:1;fill-rule:nonzero;stroke:none;stroke-width:1;marker:none;visibility:visible;display:inline;overflow:visible" />
    <path
       d="m 4.8333147,41.000199 c 0,0 0,5.99967 0,5.99967 -1.5856,0.0113 -3.8333,-1.34422 -3.8333,-3.00022 0,-1.656 1.7695,-2.99945 3.8333,-2.99945 z"
       id="path5018-8-1-1-6-9-4-9"
       style="opacity:0.3;fill:url(#radialGradient3088);fill-opacity:1;fill-rule:nonzero;stroke:none;stroke-width:1;marker:none;visibility:visible;display:inline;overflow:visible" />
    <path
       d="m 2.1626147,15.500179 c -1.0723,0.12829 -0.4996,1.45416 -0.5851,2.19974 0.1245,0.48182 0.9275,26.17643 0.9275,26.17643 0,0.7414 0.3517,0.61579 1.2429,0.61579 13.1886003,0 27.7726003,0 40.9610903,0 0.9601,0.0231 0.7572,0.0121 0.7572,-0.62748 0,0 0.993,-27.35421 1.0285,-27.7811 0,-0.44949 0.09,-0.58338 -0.4732,-0.58338 -14.08399,0 -29.77479,0 -43.8588903,0 z"
       id="path3388-1-43-0-7-6-2-7"
       style="fill:url(#linearGradient3090);fill-opacity:1;stroke:none" />
    <path
       d="m 2.0582147,16.065139 43.8964903,4e-4 c 0.6342,0 1.0452,0.44461 1.0452,0.99737 l -1.0324,26.96037 c 0.015,0.6994 -0.2091,0.97671 -0.9459,0.96204 l -41.7807903,-0.0176 c -0.6341,0 -1.2736,-0.41276 -1.2736,-0.96551 l -0.9541,-26.93932 c 0,-0.55276 0.411,-0.99775 1.0451,-0.99775 z"
       id="path6127-7-1-6-4-8-5-0"
       style="opacity:0.4;fill:url(#linearGradient3092);fill-opacity:1;stroke:none" />
    <path
       d="m 2.5000149,16.501589 c 0.016793,0.183201 0.022163,0.537822 0.03125,0.908598 0.023112,0.08973 0.025524,0.0615 0.03125,0.09735 0.011058,0.06921 0.027034,0.143566 0.03125,0.1947 0.0064,0.07761 -0.00668,0.179686 0,0.292049 0.013352,0.224726 0.045306,0.53046 0.0625,0.908598 0.034388,0.756279 0.078083,1.774501 0.125,3.017844 0.093834,2.486686 0.2030642,5.769015 0.3125,9.02108 0.2122959,6.308724 0.3945663,12.188202 0.40625,12.558122 0.1225025,0.0037 0.071108,0 0.25,0 l 40.7187501,0 c 0.0124,-0.341463 0.253182,-6.673492 0.5,-13.40182 0.126691,-3.453636 0.245386,-6.941969 0.34375,-9.572729 0.04918,-1.31538 0.09434,-2.421026 0.125,-3.212543 0.01322,-0.341236 0.02246,-0.594976 0.03125,-0.811248 l -42.9687501,0 z"
       id="path4587-4-6-3-0-1-2-6"
       style="opacity:0.5;color:#000000;fill:none;stroke:url(#linearGradient3094);stroke-width:1.00000012;stroke-linecap:round;stroke-linejoin:miter;stroke-miterlimit:4;stroke-opacity:1;stroke-dasharray:none;stroke-dashoffset:0;marker:none;visibility:visible;display:inline;overflow:visible;enable-background:accumulate" />
    <path
       d="m 2.1626147,15.500179 c -1.0723,0.12829 -0.4996,1.45416 -0.5851,2.19974 0.1245,0.48182 0.9275,26.17643 0.9275,26.17643 0,0.7414 0.3517,0.61579 1.2429,0.61579 13.1886003,0 27.7726003,0 40.9610903,0 0.9601,0.0231 0.7572,0.0121 0.7572,-0.62748 0,0 0.993,-27.35421 1.0285,-27.7811 0,-0.44949 0.09,-0.58338 -0.4732,-0.58338 -14.08399,0 -29.77479,0 -43.8588903,0 z"
       id="path3388-1-43-0-7-6-2-7-0"
       style="opacity:0.3;fill:none;stroke:#000000;stroke-width:1;stroke-linecap:round;stroke-linejoin:round;stroke-miterlimit:4;stroke-opacity:1;stroke-dashoffset:0" />
  </g>
  <circle
     style="fill:none;fill-opacity:0.4;stroke:#8cd5ff;stroke-width:2.99999;stroke-linejoin:round;stroke-miterlimit:4;stroke-dasharray:none;stroke-opacity:1;paint-order:stroke markers fill"
     id="path945"
     cx="-2.1213212"
     cy="36.769543"
     r="8.5094252"
     transform="rotate(-45)" />
  <path
     style="color:#000000;fill:url(#linearGradient15782);fill-opacity:1;stroke-width:0.999997;stroke-linejoin:round;stroke-miterlimit:4;stroke-dasharray:none;paint-order:fill markers stroke"
     d="m 30.802882,35.396643 c -0.576294,0.576294 -0.615812,0.618923 -0.0029,1.231786 l 9.206043,10.071176 c 0.685827,0.685828 0.730698,0.685161 1.234781,0.179454 l 2.638368,-2.638379 c 0.471223,-0.471223 0.537382,-0.517965 -0.179422,-1.23477 L 33.628278,33.79992 c -0.644422,-0.579439 -0.676347,-0.552489 -1.231785,0.0029 z"
     id="path44716-2"
     sodipodi:nodetypes="ccccccccc" />
  <path
     style="opacity:0.5;fill:none;stroke:#57392d;stroke-width:1;stroke-linecap:butt;stroke-linejoin:round;stroke-miterlimit:4;stroke-dasharray:none;stroke-opacity:1;paint-order:normal"
     d="M 44.40768,43.712019 33.013868,33.185509 30.185508,36.014003 40.712314,47.40761 Z"
     id="path44171-9"
     sodipodi:nodetypes="ccccc" />
  <path
     style="opacity:0.3;fill:none;fill-opacity:1;stroke:#ffffff;stroke-width:2;stroke-linecap:butt;stroke-linejoin:miter;stroke-miterlimit:4;stroke-dasharray:none;stroke-opacity:1"
     d="m 32.334993,34.644629 10.519915,9.796134"
     id="path5321-1"
     sodipodi:nodetypes="cc" />
  <circle
     style="opacity:0.5;fill:none;stroke:#002e99;stroke-width:0.999992;stroke-linecap:round;stroke-linejoin:round;stroke-miterlimit:4;stroke-dasharray:none;stroke-opacity:1"
     id="path1020-2"
     cx="-2.1213212"
     cy="36.76955"
     r="10.003148"
     transform="rotate(-45)" />
  <circle
     style="opacity:0.15;fill:url(#linearGradient919);fill-opacity:1;stroke-width:0.999998;stroke-linecap:round;stroke-linejoin:round;stroke-miterlimit:4;stroke-dasharray:none"
     id="circle1932-0"
     cx="-36.76955"
     cy="-2.1213212"
     transform="rotate(-135)"
     r="6" />
  <ellipse
     style="fill:none;fill-opacity:1;stroke:url(#linearGradient20446-3);stroke-width:2.49999;stroke-linecap:round;stroke-linejoin:round;stroke-miterlimit:4;stroke-dasharray:none;stroke-opacity:1;paint-order:normal"
     id="circle20444-5"
     cx="24.499996"
     cy="27.500006"
     rx="8.25"
     ry="8.2500086" />
  <circle
     style="opacity:0.5;fill:none;stroke:#002e99;stroke-width:0.999998;stroke-linecap:round;stroke-linejoin:round;stroke-miterlimit:4;stroke-dasharray:none;stroke-opacity:1"
     id="circle1582-7"
     cx="-2.1213212"
     cy="36.769539"
     r="7.0031438"
     transform="rotate(-45)" />
</svg>
