<?xml version="1.0" encoding="UTF-8" standalone="no"?>
<svg
   height="48"
   width="48"
   id="svg2"
   version="1.1"
   sodipodi:docname="element-desktop.svg"
   inkscape:version="1.2.2 (b0a8486541, 2022-12-01)"
   xmlns:inkscape="http://www.inkscape.org/namespaces/inkscape"
   xmlns:sodipodi="http://sodipodi.sourceforge.net/DTD/sodipodi-0.dtd"
   xmlns:xlink="http://www.w3.org/1999/xlink"
   xmlns="http://www.w3.org/2000/svg"
   xmlns:svg="http://www.w3.org/2000/svg"
   xmlns:rdf="http://www.w3.org/1999/02/22-rdf-syntax-ns#"
   xmlns:cc="http://creativecommons.org/ns#"
   xmlns:dc="http://purl.org/dc/elements/1.1/">
  <sodipodi:namedview
     id="namedview8"
     pagecolor="#ffffff"
     bordercolor="#000000"
     borderopacity="0.25"
     inkscape:showpageshadow="2"
     inkscape:pageopacity="0.0"
     inkscape:pagecheckerboard="0"
     inkscape:deskcolor="#d1d1d1"
     showgrid="false"
     showguides="true"
     inkscape:zoom="11.313709"
     inkscape:cx="25.500037"
     inkscape:cy="30.273008"
     inkscape:window-width="1278"
     inkscape:window-height="794"
     inkscape:window-x="640"
     inkscape:window-y="71"
     inkscape:window-maximized="0"
     inkscape:current-layer="svg2" />
  <metadata
     id="metadata14">
    <rdf:RDF>
      <cc:Work
         rdf:about="">
        <dc:format>image/svg+xml</dc:format>
        <dc:type
           rdf:resource="http://purl.org/dc/dcmitype/StillImage" />
      </cc:Work>
    </rdf:RDF>
  </metadata>
  <defs
     id="defs12">
    <linearGradient
       inkscape:collect="always"
       id="linearGradient2575">
      <stop
         style="stop-color:#43d6b5;stop-opacity:1"
         offset="0"
         id="stop2571" />
      <stop
         style="stop-color:#0e9a83;stop-opacity:1"
         offset="1"
         id="stop2573" />
    </linearGradient>
    <linearGradient
       inkscape:collect="always"
       xlink:href="#linearGradient2575"
       id="linearGradient4706"
       gradientUnits="userSpaceOnUse"
       gradientTransform="matrix(0.95121952,0,0,0.95121952,1.1707319,1.1707318)"
       x1="8.5073395"
       y1="-1.2307693"
       x2="8.5073395"
       y2="94.47197" />
    <linearGradient
       x1="23.99999"
       y1="4.999989"
       x2="23.99999"
       y2="43"
       id="linearGradient3058"
       xlink:href="#linearGradient3924-1"
       gradientUnits="userSpaceOnUse"
       gradientTransform="translate(-25.205838,1.1e-5)" />
    <linearGradient
       id="linearGradient3924-1">
      <stop
         id="stop3926-3"
         style="stop-color:#ffffff;stop-opacity:1"
         offset="0" />
      <stop
         id="stop3928-91"
         style="stop-color:#ffffff;stop-opacity:0.23529412"
         offset="0.06316455" />
      <stop
         id="stop3930-6"
         style="stop-color:#ffffff;stop-opacity:0.15686275"
         offset="0.95056331" />
      <stop
         id="stop3932-6"
         style="stop-color:#ffffff;stop-opacity:0.39215687"
         offset="1" />
    </linearGradient>
    <linearGradient
       xlink:href="#linearGradient3924-1"
       id="linearGradient3901"
       gradientUnits="userSpaceOnUse"
       gradientTransform="translate(-1.0379639e-5,1.0851951e-5)"
       x1="23.99999"
       y1="4.999989"
       x2="23.99999"
       y2="43" />
    <linearGradient
       y2="609.50507"
       x2="302.85715"
       y1="366.64789"
       x1="302.85715"
       gradientTransform="matrix(0.05384616,0,0,0.02470588,4.5384612,30.941636)"
       gradientUnits="userSpaceOnUse"
       id="linearGradient4826"
       xlink:href="#linearGradient5048-7" />
    <linearGradient
       id="linearGradient5048-7">
      <stop
         id="stop5050-5"
         style="stop-color:#000000;stop-opacity:0"
         offset="0" />
      <stop
         id="stop5056-9"
         style="stop-color:#000000;stop-opacity:1"
         offset="0.5" />
      <stop
         id="stop5052-6"
         style="stop-color:#000000;stop-opacity:0"
         offset="1" />
    </linearGradient>
    <radialGradient
       xlink:href="#linearGradient5060-6"
       id="radialGradient3160"
       gradientUnits="userSpaceOnUse"
       gradientTransform="matrix(0.05622675,0,0,0.02470588,3.1143697,30.941636)"
       cx="605.71429"
       cy="486.64789"
       fx="605.71429"
       fy="486.64789"
       r="117.14286" />
    <linearGradient
       id="linearGradient5060-6">
      <stop
         id="stop5062-3"
         style="stop-color:#000000;stop-opacity:1"
         offset="0" />
      <stop
         id="stop5064-1"
         style="stop-color:#000000;stop-opacity:0"
         offset="1" />
    </linearGradient>
    <radialGradient
       xlink:href="#linearGradient5060-6"
       id="radialGradient3157"
       gradientUnits="userSpaceOnUse"
       gradientTransform="matrix(-0.05622673,0,0,0.02470588,44.885625,30.941636)"
       cx="605.71429"
       cy="486.64789"
       fx="605.71429"
       fy="486.64789"
       r="117.14286" />
  </defs>
  <rect
     style="display:inline;overflow:visible;visibility:visible;opacity:0.3;fill:url(#linearGradient4826);fill-opacity:1;fill-rule:nonzero;stroke:none;stroke-width:0.999999;marker:none"
     id="rect2512"
     y="40"
     x="11"
     height="6.0000005"
     width="26" />
  <path
     style="display:inline;overflow:visible;visibility:visible;opacity:0.3;fill:url(#radialGradient3160);fill-opacity:1;fill-rule:nonzero;stroke:none;stroke-width:0.999999;marker:none"
     id="path2514"
     d="m 37,40.000203 c 0,0 0,5.999669 0,5.999669 2.895538,0.01129 7,-1.344221 7,-3.000221 0,-1.655999 -3.231202,-2.999448 -7,-2.999448 z" />
  <path
     style="display:inline;overflow:visible;visibility:visible;opacity:0.3;fill:url(#radialGradient3157);fill-opacity:1;fill-rule:nonzero;stroke:none;stroke-width:0.999995;marker:none"
     id="path2516"
     d="m 11,40.000203 c 0,0 0,5.999669 0,5.999669 -2.8955378,0.01129 -7,-1.344221 -7,-3.000221 0,-1.655999 3.2312017,-2.999448 7,-2.999448 z" />
  <rect
     style="opacity:1;fill:url(#linearGradient4706);fill-opacity:1;stroke:none;stroke-width:1;stroke-linecap:round;stroke-opacity:0.5;paint-order:markers fill stroke;stop-color:#000000"
     id="rect4686"
     width="39"
     height="39"
     x="4.5"
     y="4.5"
     rx="6"
     ry="6" />
  <path
     id="path10085"
     style="color:#000000;clip-rule:evenodd;fill:#007367;fill-opacity:0.15000001;fill-rule:evenodd;-inkscape-stroke:none"
     d="M 21.654297 10 C 19.709588 10 18.085937 11.61705 18.085938 13.564453 C 18.085938 14.145356 18.231956 14.695634 18.486328 15.183594 C 13.045708 16.584679 9 21.533902 9 27.392578 C 9 29.340005 10.623715 30.958984 12.568359 30.958984 C 13.134629 30.958984 13.672668 30.818863 14.152344 30.576172 C 15.573602 35.985269 20.523077 40 26.371094 40 C 28.315729 40 29.939453 38.382922 29.939453 36.435547 C 29.939453 35.851562 29.792049 35.298459 29.535156 34.808594 C 34.963716 33.399194 39 28.457499 39 22.607422 C 39 20.660019 37.376346 19.041016 35.431641 19.041016 C 34.873643 19.041016 34.343503 19.177966 33.869141 19.414062 C 32.444382 14.010126 27.498732 10 21.654297 10 z M 25.195312 18.404297 C 26.391768 19.405885 27.146484 20.911511 27.146484 22.607422 C 27.146484 24.503514 28.686385 26.081967 30.5625 26.164062 C 29.559318 27.341645 28.061159 28.083984 26.371094 28.083984 C 24.451419 28.083984 22.84758 29.660375 22.806641 31.574219 C 21.624264 30.572686 20.878906 29.077123 20.878906 27.392578 C 20.878906 25.488555 19.326095 23.905837 17.439453 23.835938 C 18.442607 22.658921 19.939222 21.916016 21.628906 21.916016 C 23.555895 21.916016 25.166096 20.32788 25.195312 18.404297 z " />
  <path
     fill-rule="evenodd"
     clip-rule="evenodd"
     d="M 20.085271,13.564927 C 20.085271,12.700638 20.787366,12 21.653452,12 c 5.870099,0 10.628876,4.74878 10.628876,10.606692 0,0.864289 -0.702308,1.564928 -1.568203,1.564928 -0.866108,0 -1.568202,-0.700639 -1.568202,-1.564928 0,-4.129335 -3.354592,-7.476838 -7.492471,-7.476838 -0.866087,0 -1.568181,-0.700639 -1.568181,-1.564927 z"
     fill="#ffffff"
     id="path4690"
     style="fill:#007367;fill-opacity:0.5;stroke-width:0.999999" />
  <path
     fill-rule="evenodd"
     clip-rule="evenodd"
     d="m 35.431795,21.041745 c 0.866109,0 1.568204,0.700639 1.568204,1.564926 0,5.857978 -4.758566,10.606694 -10.628621,10.606694 -0.866107,0 -1.568202,-0.700595 -1.568202,-1.56499 0,-0.864181 0.702093,-1.564776 1.568202,-1.564776 4.137836,0 7.492213,-3.347526 7.492213,-7.476927 0,-0.864288 0.702095,-1.564926 1.568204,-1.564927 z"
     fill="#ffffff"
     id="path4694"
     style="fill:#007367;fill-opacity:0.5;stroke-width:0.999999" />
  <path
     fill-rule="evenodd"
     clip-rule="evenodd"
     d="m 27.939369,36.43499 c 0,0.864396 -0.702095,1.56499 -1.568205,1.56499 -5.870011,0 -10.628679,-4.748716 -10.628679,-10.606779 0,-0.864182 0.702115,-1.564777 1.568203,-1.564777 0.866062,0 1.568178,0.700595 1.568178,1.564777 0,4.129485 3.354442,7.477011 7.492299,7.477011 0.866109,0 1.568204,0.700596 1.568204,1.564778 z"
     fill="#ffffff"
     id="path4698"
     style="fill:#007367;fill-opacity:0.5;stroke-width:0.999999" />
  <path
     fill-rule="evenodd"
     clip-rule="evenodd"
     d="m 12.568181,28.958193 c -0.866087,0 -1.56818,-0.700596 -1.56818,-1.564777 0,-5.858 4.758647,-10.606801 10.628765,-10.606801 0.866087,0 1.568181,0.700659 1.568181,1.564948 0,0.864288 -0.702094,1.564927 -1.568181,1.564927 -4.137943,0 -7.492383,3.347482 -7.492383,7.476926 0,0.864181 -0.702115,1.564777 -1.568202,1.564777 z"
     fill="#ffffff"
     id="path4702"
     style="fill:#007367;fill-opacity:0.5;stroke-width:0.999999" />
  <rect
     style="opacity:0.5;fill:none;stroke:url(#linearGradient3901);stroke-width:1;stroke-linecap:round;stroke-linejoin:round;stroke-miterlimit:4;stroke-dasharray:none;stroke-dashoffset:0;stroke-opacity:1"
     id="rect6741-3"
     y="5.5"
     x="5.5"
     ry="5"
     rx="5"
     height="37"
     width="37" />
  <rect
     style="opacity:1;fill:none;fill-opacity:1;stroke:#007367;stroke-width:0.999998;stroke-linecap:round;stroke-opacity:0.5;paint-order:markers fill stroke;stop-color:#000000"
     id="rect4688"
     width="39"
     height="39"
     x="4.5"
     y="4.5"
     rx="6"
     ry="6" />
  <path
     id="path15194"
     style="stroke-width:0.2;stroke:none;stroke-opacity:1;stroke-dasharray:none;fill:#ffffff;fill-opacity:1"
     d="M 21.654297 10.900391 C 20.734282 10.900391 19.984375 11.64601 19.984375 12.564453 C 19.984375 13.482896 20.73428 14.230469 21.654297 14.230469 C 25.738235 14.230469 29.046875 17.532255 29.046875 21.607422 C 29.046875 22.525865 29.794808 23.271484 30.714844 23.271484 C 31.63468 23.271484 32.382813 22.525882 32.382812 21.607422 C 32.382812 15.695363 27.578315 10.900391 21.654297 10.900391 z M 21.628906 15.6875 C 15.704869 15.6875 10.900391 20.480435 10.900391 26.392578 C 10.900391 27.310921 11.648346 28.058594 12.568359 28.058594 C 13.488372 28.058594 14.236328 27.310922 14.236328 26.392578 C 14.236328 22.317297 17.544903 19.015625 21.628906 19.015625 C 22.548923 19.015625 23.296875 18.270005 23.296875 17.351562 C 23.296875 16.43312 22.548924 15.6875 21.628906 15.6875 z M 35.431641 19.941406 C 34.511605 19.941407 33.763672 20.688979 33.763672 21.607422 C 33.763672 25.682658 30.454989 28.984375 26.371094 28.984375 C 25.451062 28.984375 24.703125 29.730095 24.703125 30.648438 C 24.703125 31.566981 25.451062 32.3125 26.371094 32.3125 C 32.295068 32.3125 37.099609 27.519543 37.099609 21.607422 C 37.099609 20.68898 36.351678 19.941406 35.431641 19.941406 z M 17.310547 24.728516 C 16.390533 24.728516 15.642578 25.474234 15.642578 26.392578 C 15.642578 32.304784 20.447163 37.099609 26.371094 37.099609 C 27.291128 37.099609 28.039063 36.354089 28.039062 35.435547 C 28.039062 34.517204 27.291127 33.769531 26.371094 33.769531 C 22.287178 33.769531 18.978516 30.467901 18.978516 26.392578 C 18.978516 25.474234 18.230537 24.728516 17.310547 24.728516 z " />
</svg>
