<?xml version="1.0" encoding="UTF-8" standalone="no"?>
<!-- Created with Inkscape (http://www.inkscape.org/) -->

<svg
   xmlns:dc="http://purl.org/dc/elements/1.1/"
   xmlns:cc="http://creativecommons.org/ns#"
   xmlns:rdf="http://www.w3.org/1999/02/22-rdf-syntax-ns#"
   xmlns:svg="http://www.w3.org/2000/svg"
   xmlns="http://www.w3.org/2000/svg"
   xmlns:xlink="http://www.w3.org/1999/xlink"
   xmlns:sodipodi="http://sodipodi.sourceforge.net/DTD/sodipodi-0.dtd"
   xmlns:inkscape="http://www.inkscape.org/namespaces/inkscape"
   width="48px"
   height="48px"
   id="svg4032"
   version="1.1"
   inkscape:version="0.48.4 r9939"
   sodipodi:docname="google-calendar.svg">
  <defs
     id="defs4034">
    <linearGradient
       inkscape:collect="always"
       xlink:href="#linearGradient3940"
       id="linearGradient3946"
       x1="25.287861"
       y1="10.84078"
       x2="25.287861"
       y2="38.98481"
       gradientUnits="userSpaceOnUse"
       gradientTransform="translate(-60,0)" />
    <linearGradient
       id="linearGradient3940">
      <stop
         style="stop-color:#f7f7f7;stop-opacity:1;"
         offset="0"
         id="stop3942" />
      <stop
         style="stop-color:#fef2cc;stop-opacity:1;"
         offset="1"
         id="stop3944" />
    </linearGradient>
    <linearGradient
       y2="39.798145"
       x2="26.939138"
       y1="10.156249"
       x1="26.939138"
       gradientUnits="userSpaceOnUse"
       id="linearGradient3118"
       xlink:href="#linearGradient3895-9-0-3"
       inkscape:collect="always"
       gradientTransform="translate(-60,0)" />
    <linearGradient
       id="linearGradient3895-9-0-3">
      <stop
         offset="0"
         style="stop-color:#dc5639;stop-opacity:1;"
         id="stop3897-0-5-7" />
      <stop
         offset="1"
         style="stop-color:#9d0f0f;stop-opacity:1;"
         id="stop3899-8-7-06" />
    </linearGradient>
    <linearGradient
       inkscape:collect="always"
       xlink:href="#linearGradient3895-9-0-3"
       id="linearGradient4018-8"
       x1="28.383904"
       y1="9.0511551"
       x2="28.383904"
       y2="40.814419"
       gradientUnits="userSpaceOnUse"
       gradientTransform="translate(-60,0)" />
    <linearGradient
       inkscape:collect="always"
       xlink:href="#linearGradient3895-9-0-3"
       id="linearGradient4010-3"
       x1="21.507429"
       y1="7.8855376"
       x2="21.507429"
       y2="42.121353"
       gradientUnits="userSpaceOnUse"
       gradientTransform="translate(-60,0)" />
    <linearGradient
       id="linearGradient4067-0-2">
      <stop
         id="stop4069-2-9"
         offset="0"
         style="stop-color:#ff8d52;stop-opacity:1;" />
      <stop
         id="stop4071-8-9"
         offset="1"
         style="stop-color:#ffeb41;stop-opacity:0;" />
    </linearGradient>
    <linearGradient
       inkscape:collect="always"
       xlink:href="#linearGradient3924"
       id="linearGradient2959"
       gradientUnits="userSpaceOnUse"
       gradientTransform="translate(3.7e-6,1.00001)"
       x1="23.99999"
       y1="4.999989"
       x2="23.99999"
       y2="43" />
    <linearGradient
       id="linearGradient3924">
      <stop
         offset="0"
         style="stop-color:#ffffff;stop-opacity:1;"
         id="stop3926" />
      <stop
         id="stop3928"
         style="stop-color:#ffffff;stop-opacity:0.23529412;"
         offset="0.06316455" />
      <stop
         offset="0.95056331"
         style="stop-color:#ffffff;stop-opacity:0.15686275;"
         id="stop3930" />
      <stop
         offset="1"
         style="stop-color:#ffffff;stop-opacity:0.39215687;"
         id="stop3932" />
    </linearGradient>
    <linearGradient
       inkscape:collect="always"
       xlink:href="#linearGradient4011"
       id="linearGradient3568"
       gradientUnits="userSpaceOnUse"
       gradientTransform="matrix(0.82498024,0,0,1.3012336,4.1618797,-1.4329212)"
       x1="13.13743"
       y1="18.776737"
       x2="25.258932"
       y2="34.146767" />
    <linearGradient
       id="linearGradient8265-821-176-38-919-66-249-7-7">
      <stop
         offset="0"
         style="stop-color:#e77e71;stop-opacity:1;"
         id="stop2687-1-9" />
      <stop
         offset="1"
         style="stop-color:#ffdf80;stop-opacity:0.375;"
         id="stop2689-5-4" />
    </linearGradient>
    <radialGradient
       r="19.99999"
       fy="8.4497671"
       fx="7.4956832"
       cy="8.4497671"
       cx="7.4956832"
       gradientTransform="matrix(1.9428467e-8,2.33699,-2.4722567,-4.3056275e-8,44.890104,-11.434799)"
       gradientUnits="userSpaceOnUse"
       id="radialGradient2874"
       xlink:href="#linearGradient2867-449-88-871-390-598-476-591-434-148-57-177-3-8"
       inkscape:collect="always" />
    <linearGradient
       id="linearGradient4644-104-3-3-6-2">
      <stop
         id="stop5237-6-5-1-7"
         style="stop-color:#e44532;stop-opacity:1;"
         offset="0" />
      <stop
         id="stop5239-4-6-4-8"
         style="stop-color:#dd4b39;stop-opacity:1;"
         offset="1" />
    </linearGradient>
    <linearGradient
       y2="5"
       x2="-4.0000014"
       y1="41"
       x1="-4.0000014"
       gradientTransform="translate(1.2e-6,1)"
       gradientUnits="userSpaceOnUse"
       id="linearGradient2876"
       xlink:href="#linearGradient3707-319-631-407-324-3-8"
       inkscape:collect="always" />
    <radialGradient
       inkscape:collect="always"
       xlink:href="#linearGradient3688-166-749"
       id="radialGradient3013"
       gradientUnits="userSpaceOnUse"
       gradientTransform="matrix(2.003784,0,0,1.4,27.98813,-17.4)"
       cx="4.9929786"
       cy="43.5"
       fx="4.9929786"
       fy="43.5"
       r="2.5" />
    <linearGradient
       id="linearGradient3688-166-749">
      <stop
         offset="0"
         style="stop-color:#181818;stop-opacity:1"
         id="stop2883" />
      <stop
         offset="1"
         style="stop-color:#181818;stop-opacity:0"
         id="stop2885" />
    </linearGradient>
    <radialGradient
       inkscape:collect="always"
       xlink:href="#linearGradient3688-464-309"
       id="radialGradient3015"
       gradientUnits="userSpaceOnUse"
       gradientTransform="matrix(2.003784,0,0,1.4,-20.01187,-104.4)"
       cx="4.9929786"
       cy="43.5"
       fx="4.9929786"
       fy="43.5"
       r="2.5" />
    <linearGradient
       id="linearGradient3688-464-309">
      <stop
         offset="0"
         style="stop-color:#181818;stop-opacity:1"
         id="stop2889" />
      <stop
         offset="1"
         style="stop-color:#181818;stop-opacity:0"
         id="stop2891" />
    </linearGradient>
    <linearGradient
       id="linearGradient3702-501-757">
      <stop
         offset="0"
         style="stop-color:#181818;stop-opacity:0"
         id="stop2895" />
      <stop
         offset="0.5"
         style="stop-color:#181818;stop-opacity:1"
         id="stop2897" />
      <stop
         offset="1"
         style="stop-color:#181818;stop-opacity:0"
         id="stop2899" />
    </linearGradient>
    <linearGradient
       y2="39.999443"
       x2="25.058096"
       y1="47.027729"
       x1="25.058096"
       gradientUnits="userSpaceOnUse"
       id="linearGradient4030"
       xlink:href="#linearGradient3702-501-757"
       inkscape:collect="always" />
    <radialGradient
       inkscape:collect="always"
       xlink:href="#linearGradient8838"
       id="radialGradient4267"
       gradientUnits="userSpaceOnUse"
       gradientTransform="matrix(2.1647059,0,0,0.7529402,-111.56471,36.517647)"
       cx="62.625"
       cy="4.625"
       fx="62.625"
       fy="4.625"
       r="10.625" />
    <linearGradient
       id="linearGradient8838">
      <stop
         offset="0"
         style="stop-color:#000000;stop-opacity:1"
         id="stop8840" />
      <stop
         offset="1"
         style="stop-color:#000000;stop-opacity:0"
         id="stop8842" />
    </linearGradient>
    <linearGradient
       y2="3.8990016"
       x2="24"
       y1="44"
       x1="24"
       gradientTransform="translate(2.39e-6,1.0000002)"
       gradientUnits="userSpaceOnUse"
       id="linearGradient3911-1"
       xlink:href="#linearGradient3707-319-631-407-324-3-8"
       inkscape:collect="always" />
    <linearGradient
       id="linearGradient2867-449-88-871-390-598-476-591-434-148-57-177-3-8">
      <stop
         id="stop3750-8-9"
         style="stop-color:#90dbec;stop-opacity:1;"
         offset="0" />
      <stop
         id="stop3752-3-2"
         style="stop-color:#42baea;stop-opacity:1;"
         offset="0.26238" />
      <stop
         id="stop3754-7-2"
         style="stop-color:#3689e6;stop-opacity:1;"
         offset="0.704952" />
      <stop
         id="stop3756-9-3"
         style="stop-color:#2b63a0;stop-opacity:1;"
         offset="1" />
    </linearGradient>
    <radialGradient
       r="19.99999"
       fy="8.4497671"
       fx="3.9722471"
       cy="8.4497671"
       cx="3.9722471"
       gradientTransform="matrix(0,2.3767198,-2.5142859,-6.4690655e-8,45.245242,-9.412373)"
       gradientUnits="userSpaceOnUse"
       id="radialGradient3909-0"
       xlink:href="#linearGradient2867-449-88-871-390-598-476-591-434-148-57-177-3-8"
       inkscape:collect="always" />
    <linearGradient
       id="linearGradient4011">
      <stop
         id="stop4013"
         style="stop-color:#ffffff;stop-opacity:1;"
         offset="0" />
      <stop
         offset="0.507761"
         style="stop-color:#ffffff;stop-opacity:0.23529412;"
         id="stop4015" />
      <stop
         id="stop4017"
         style="stop-color:#ffffff;stop-opacity:0.15686275;"
         offset="0.83456558" />
      <stop
         id="stop4019"
         style="stop-color:#ffffff;stop-opacity:0.39215687;"
         offset="1" />
    </linearGradient>
    <linearGradient
       y2="44.340794"
       x2="71.204407"
       y1="6.2375584"
       x1="71.204407"
       gradientTransform="translate(-47.733515,-0.3572397)"
       gradientUnits="userSpaceOnUse"
       id="linearGradient3906-0"
       xlink:href="#linearGradient4011"
       inkscape:collect="always" />
    <linearGradient
       id="linearGradient3707-319-631-407-324-3-8">
      <stop
         id="stop3760-7-3"
         style="stop-color:#185f9a;stop-opacity:1;"
         offset="0" />
      <stop
         id="stop3762-8-4"
         style="stop-color:#599ec9;stop-opacity:1;"
         offset="1" />
    </linearGradient>
    <linearGradient
       gradientUnits="userSpaceOnUse"
       y2="0.088140324"
       x2="22.950275"
       y1="45.185081"
       x1="22.950275"
       id="linearGradient4079"
       xlink:href="#linearGradient3707-319-631-407-324-3-8"
       inkscape:collect="always" />
    <linearGradient
       y2="34.548019"
       x2="60.948738"
       y1="-5.801291"
       x1="60.948738"
       gradientTransform="matrix(0.35010764,0,0,0.36130751,1.5259338,26.093427)"
       gradientUnits="userSpaceOnUse"
       id="linearGradient4183"
       xlink:href="#linearGradient4072"
       inkscape:collect="always" />
    <linearGradient
       id="linearGradient4072"
       inkscape:collect="always">
      <stop
         id="stop4074"
         offset="0"
         style="stop-color:#000000;stop-opacity:1;" />
      <stop
         id="stop4076"
         offset="1"
         style="stop-color:#000000;stop-opacity:0;" />
    </linearGradient>
    <linearGradient
       y2="33.986996"
       x2="69.311714"
       y1="-15.790401"
       x1="69.311714"
       gradientTransform="matrix(0.34365524,0,0,0.33978679,1.6032383,26.290608)"
       gradientUnits="userSpaceOnUse"
       id="linearGradient4180"
       xlink:href="#linearGradient4072"
       inkscape:collect="always" />
    <linearGradient
       id="linearGradient4062"
       inkscape:collect="always">
      <stop
         id="stop4064"
         offset="0"
         style="stop-color:#000000;stop-opacity:1;" />
      <stop
         id="stop4066"
         offset="1"
         style="stop-color:#000000;stop-opacity:0;" />
    </linearGradient>
    <linearGradient
       y2="-24.791594"
       x2="72.458694"
       y1="-37.888779"
       x1="72.458694"
       gradientTransform="matrix(0.32209081,0,0,0.33064419,3.4344155,24.890793)"
       gradientUnits="userSpaceOnUse"
       id="linearGradient4177"
       xlink:href="#linearGradient4062"
       inkscape:collect="always" />
    <linearGradient
       id="linearGradient4072-8"
       inkscape:collect="always">
      <stop
         id="stop4074-2"
         offset="0"
         style="stop-color:#000000;stop-opacity:1;" />
      <stop
         id="stop4076-2"
         offset="1"
         style="stop-color:#000000;stop-opacity:0;" />
    </linearGradient>
    <linearGradient
       y2="27.727411"
       x2="69.311714"
       y1="21.319286"
       x1="69.311714"
       gradientTransform="matrix(0.35010764,0,0,0.36130751,1.3499354,26.906196)"
       gradientUnits="userSpaceOnUse"
       id="linearGradient4174"
       xlink:href="#linearGradient4072-8"
       inkscape:collect="always" />
    <linearGradient
       inkscape:collect="always"
       xlink:href="#linearGradient4072-8"
       id="linearGradient3964"
       gradientUnits="userSpaceOnUse"
       gradientTransform="matrix(0.35010764,0,0,0.36130751,-44.870511,-10.442272)"
       x1="69.311714"
       y1="21.319286"
       x2="69.311714"
       y2="27.727411" />
    <linearGradient
       inkscape:collect="always"
       xlink:href="#linearGradient4062"
       id="linearGradient3967"
       gradientUnits="userSpaceOnUse"
       gradientTransform="matrix(0.32209081,0,0,0.33064419,-42.786031,-12.457675)"
       x1="72.458694"
       y1="-37.888779"
       x2="72.458694"
       y2="-24.791594" />
    <linearGradient
       inkscape:collect="always"
       xlink:href="#linearGradient4072"
       id="linearGradient3970"
       gradientUnits="userSpaceOnUse"
       gradientTransform="matrix(0.34365524,0,0,0.33978679,-44.617208,-11.05786)"
       x1="69.311714"
       y1="-15.790401"
       x2="69.311714"
       y2="33.986996" />
    <linearGradient
       inkscape:collect="always"
       xlink:href="#linearGradient4072"
       id="linearGradient3973"
       gradientUnits="userSpaceOnUse"
       gradientTransform="matrix(0.35010764,0,0,0.36130751,-44.694512,-11.255041)"
       x1="60.948738"
       y1="-5.801291"
       x2="60.948738"
       y2="34.548019" />
    <linearGradient
       inkscape:collect="always"
       xlink:href="#linearGradient3707-319-631-407-324-3-8"
       id="linearGradient3977"
       gradientUnits="userSpaceOnUse"
       x1="22.950275"
       y1="45.185081"
       x2="22.950275"
       y2="0.088140324"
       gradientTransform="translate(-46.220446,-37.348468)" />
    <linearGradient
       inkscape:collect="always"
       xlink:href="#linearGradient4011"
       id="linearGradient3980"
       gradientUnits="userSpaceOnUse"
       gradientTransform="translate(-93.953961,-37.705708)"
       x1="71.204407"
       y1="6.2375584"
       x2="71.204407"
       y2="44.340794" />
    <radialGradient
       inkscape:collect="always"
       xlink:href="#linearGradient2867-449-88-871-390-598-476-591-434-148-57-177-3-8"
       id="radialGradient3983"
       gradientUnits="userSpaceOnUse"
       gradientTransform="matrix(0,2.3767198,-2.5142859,-6.4690655e-8,-0.975204,-46.760841)"
       cx="3.9722471"
       cy="8.4497671"
       fx="3.9722471"
       fy="8.4497671"
       r="19.99999" />
    <linearGradient
       inkscape:collect="always"
       xlink:href="#linearGradient3707-319-631-407-324-3-8"
       id="linearGradient3985"
       gradientUnits="userSpaceOnUse"
       gradientTransform="translate(-46.220444,-36.348468)"
       x1="24"
       y1="44"
       x2="24"
       y2="3.8990016" />
    <radialGradient
       inkscape:collect="always"
       xlink:href="#linearGradient8838"
       id="radialGradient3988"
       gradientUnits="userSpaceOnUse"
       gradientTransform="matrix(2.1647059,0,0,0.7529402,-157.78516,-0.830821)"
       cx="62.625"
       cy="4.625"
       fx="62.625"
       fy="4.625"
       r="10.625" />
    <linearGradient
       gradientTransform="matrix(1,0,0,0.9777778,9.9353024e-8,-0.9888879)"
       gradientUnits="userSpaceOnUse"
       xlink:href="#linearGradient3211"
       id="linearGradient2946"
       y2="46.01725"
       x2="24"
       y1="1.9999999"
       x1="24" />
    <linearGradient
       id="linearGradient3211">
      <stop
         offset="0"
         style="stop-color:#ffffff;stop-opacity:1"
         id="stop3213" />
      <stop
         offset="1"
         style="stop-color:#ffffff;stop-opacity:0"
         id="stop3215" />
    </linearGradient>
    <radialGradient
       gradientTransform="matrix(0.36170675,0,0,-0.3907784,0.8509869,47.517004)"
       gradientUnits="userSpaceOnUse"
       xlink:href="#XMLID_8_"
       id="radialGradient2997"
       r="139.55859"
       cy="112.3047"
       cx="102" />
    <linearGradient
       id="linearGradient8589-8">
      <stop
         offset="0"
         style="stop-color:#fefefe;stop-opacity:1"
         id="stop8591-1" />
      <stop
         offset="1"
         style="stop-color:#cbcbcb;stop-opacity:1"
         id="stop8593-2" />
    </linearGradient>
    <linearGradient
       gradientTransform="matrix(0.99771106,0,0,1.0406866,0.1637173,-1.1057947)"
       gradientUnits="userSpaceOnUse"
       xlink:href="#linearGradient8589-8"
       id="linearGradient2633"
       y2="5.4565363"
       x2="36.358372"
       y1="8.0590115"
       x1="32.892288" />
    <filter
       id="filter3248"
       color-interpolation-filters="sRGB"
       height="1.3286875"
       width="1.2969251"
       y="-0.16434373"
       x="-0.14846256">
      <feGaussianBlur
         id="feGaussianBlur3250"
         stdDeviation="0.77391625" />
    </filter>
    <radialGradient
       gradientUnits="userSpaceOnUse"
       id="XMLID_8_"
       r="139.55859"
       cy="112.3047"
       cx="102">
      <stop
         offset="0"
         style="stop-color:#b7b8b9;stop-opacity:1"
         id="stop41" />
      <stop
         offset="0.18851049"
         style="stop-color:#ececec;stop-opacity:1"
         id="stop47" />
      <stop
         offset="0.25718147"
         style="stop-color:#fafafa;stop-opacity:0"
         id="stop49" />
      <stop
         offset="0.30111277"
         style="stop-color:#ffffff;stop-opacity:0"
         id="stop51" />
      <stop
         offset="0.53130001"
         style="stop-color:#fafafa;stop-opacity:0"
         id="stop53" />
      <stop
         offset="0.84490001"
         style="stop-color:#ebecec;stop-opacity:0"
         id="stop55" />
      <stop
         offset="1"
         style="stop-color:#e1e2e3;stop-opacity:0"
         id="stop57" />
    </radialGradient>
    <linearGradient
       gradientTransform="matrix(0.4063605,0,0,1.4407893,8.3143938,-4.5939912)"
       gradientUnits="userSpaceOnUse"
       xlink:href="#linearGradient5031"
       id="linearGradient6143"
       y2="10.035408"
       x2="22.104254"
       y1="40.124432"
       x1="22.104254" />
    <linearGradient
       gradientTransform="matrix(0.3814643,0,0,1.4009103,8.4789307,6.2584122)"
       gradientUnits="userSpaceOnUse"
       xlink:href="#linearGradient5031"
       id="linearGradient6073"
       y2="10.035408"
       x2="22.104254"
       y1="40.124432"
       x1="22.104254" />
    <linearGradient
       gradientTransform="matrix(1.7828362,0,0,1.4407913,-37.938893,-27.441342)"
       gradientUnits="userSpaceOnUse"
       xlink:href="#linearGradient5031"
       id="linearGradient6065"
       y2="10.035408"
       x2="22.104254"
       y1="40.124432"
       x1="22.104254" />
    <linearGradient
       gradientTransform="matrix(0.3342091,0,0,1.4207463,9.6790122,-0.23795132)"
       gradientUnits="userSpaceOnUse"
       xlink:href="#linearGradient5031"
       id="linearGradient5988"
       y2="10.035408"
       x2="22.104254"
       y1="40.124432"
       x1="22.104254" />
    <linearGradient
       gradientTransform="matrix(0.4876325,0,0,1.4406684,7.777273,1.4082398)"
       gradientUnits="userSpaceOnUse"
       xlink:href="#linearGradient5031"
       id="linearGradient5984"
       y2="10.035408"
       x2="22.104254"
       y1="40.124432"
       x1="22.104254" />
    <linearGradient
       gradientTransform="matrix(0.369496,0,0,1.4205132,9.0116197,3.7802626)"
       gradientUnits="userSpaceOnUse"
       xlink:href="#linearGradient5031"
       id="linearGradient5980"
       y2="10.035408"
       x2="22.104254"
       y1="40.124432"
       x1="22.104254" />
    <linearGradient
       id="linearGradient5031">
      <stop
         offset="0"
         style="stop-color:#a3a3a3;stop-opacity:1"
         id="stop5033" />
      <stop
         offset="1"
         style="stop-color:#bababa;stop-opacity:1"
         id="stop5035" />
    </linearGradient>
    <linearGradient
       gradientTransform="matrix(0.8074968,0,0,0.9358511,59.410236,-2.1144791)"
       gradientUnits="userSpaceOnUse"
       xlink:href="#linearGradient3104"
       id="linearGradient3603"
       y2="2.9062471"
       x2="-51.786404"
       y1="50.786446"
       x1="-51.786404" />
    <linearGradient
       gradientTransform="translate(0,-0.99999972)"
       gradientUnits="userSpaceOnUse"
       xlink:href="#linearGradient3600"
       id="linearGradient3601"
       y2="47.013336"
       x2="25.132275"
       y1="6.7287393"
       x1="25.132275" />
    <radialGradient
       gradientTransform="matrix(0.02409717,0,0,0.01537476,26.477584,38.629039)"
       gradientUnits="userSpaceOnUse"
       xlink:href="#linearGradient5060"
       id="radialGradient3588"
       fy="486.64789"
       fx="605.71429"
       r="117.14286"
       cy="486.64789"
       cx="605.71429" />
    <radialGradient
       gradientTransform="matrix(-0.02409717,0,0,0.01537476,21.522412,38.629039)"
       gradientUnits="userSpaceOnUse"
       xlink:href="#linearGradient5060"
       id="radialGradient3586"
       fy="486.64789"
       fx="605.71429"
       r="117.14286"
       cy="486.64789"
       cx="605.71429" />
    <linearGradient
       gradientTransform="matrix(0.0704142,0,0,0.01537476,-1.4497047,38.629007)"
       gradientUnits="userSpaceOnUse"
       xlink:href="#linearGradient5048"
       id="linearGradient3584"
       y2="609.50507"
       x2="302.85715"
       y1="366.64789"
       x1="302.85715" />
    <linearGradient
       id="linearGradient5060">
      <stop
         offset="0"
         style="stop-color:#000000;stop-opacity:1"
         id="stop5062" />
      <stop
         offset="1"
         style="stop-color:#000000;stop-opacity:0"
         id="stop5064" />
    </linearGradient>
    <linearGradient
       id="linearGradient5048">
      <stop
         offset="0"
         style="stop-color:#000000;stop-opacity:0"
         id="stop5050" />
      <stop
         offset="0.5"
         style="stop-color:#000000;stop-opacity:1"
         id="stop5056" />
      <stop
         offset="1"
         style="stop-color:#000000;stop-opacity:0"
         id="stop5052" />
    </linearGradient>
    <linearGradient
       id="linearGradient3600">
      <stop
         offset="0"
         style="stop-color:#f4f4f4;stop-opacity:1"
         id="stop3602" />
      <stop
         offset="1"
         style="stop-color:#dbdbdb;stop-opacity:1"
         id="stop3604" />
    </linearGradient>
    <linearGradient
       id="linearGradient3104">
      <stop
         offset="0"
         style="stop-color:#aaaaaa;stop-opacity:1"
         id="stop3106" />
      <stop
         offset="1"
         style="stop-color:#d2d2d2;stop-opacity:1"
         id="stop3108" />
    </linearGradient>
    <linearGradient
       inkscape:collect="always"
       xlink:href="#linearGradient5048"
       id="linearGradient3366"
       gradientUnits="userSpaceOnUse"
       gradientTransform="matrix(0.0704142,0,0,0.01537476,-1.4497047,38.629007)"
       x1="302.85715"
       y1="366.64789"
       x2="302.85715"
       y2="609.50507" />
    <radialGradient
       inkscape:collect="always"
       xlink:href="#linearGradient5060"
       id="radialGradient3368"
       gradientUnits="userSpaceOnUse"
       gradientTransform="matrix(-0.02409717,0,0,0.01537476,21.522412,38.629039)"
       cx="605.71429"
       cy="486.64789"
       fx="605.71429"
       fy="486.64789"
       r="117.14286" />
    <radialGradient
       inkscape:collect="always"
       xlink:href="#linearGradient5060"
       id="radialGradient3370"
       gradientUnits="userSpaceOnUse"
       gradientTransform="matrix(0.02409717,0,0,0.01537476,26.477584,38.629039)"
       cx="605.71429"
       cy="486.64789"
       fx="605.71429"
       fy="486.64789"
       r="117.14286" />
    <linearGradient
       inkscape:collect="always"
       xlink:href="#linearGradient3600"
       id="linearGradient3372"
       gradientUnits="userSpaceOnUse"
       gradientTransform="translate(0,-0.99999972)"
       x1="25.132275"
       y1="6.7287393"
       x2="25.132275"
       y2="47.013336" />
    <linearGradient
       inkscape:collect="always"
       xlink:href="#linearGradient3104"
       id="linearGradient3374"
       gradientUnits="userSpaceOnUse"
       gradientTransform="matrix(0.8074968,0,0,0.9358511,59.410236,-2.1144791)"
       x1="-51.786404"
       y1="50.786446"
       x2="-51.786404"
       y2="2.9062471" />
    <linearGradient
       inkscape:collect="always"
       xlink:href="#linearGradient3211"
       id="linearGradient3376"
       gradientUnits="userSpaceOnUse"
       gradientTransform="matrix(1,0,0,0.9777778,9.9353024e-8,-0.9888879)"
       x1="24"
       y1="1.9999999"
       x2="24"
       y2="46.01725" />
    <linearGradient
       inkscape:collect="always"
       xlink:href="#linearGradient5031"
       id="linearGradient3378"
       gradientUnits="userSpaceOnUse"
       gradientTransform="matrix(0.3342091,0,0,1.4207463,9.6790122,-0.23795132)"
       x1="22.104254"
       y1="40.124432"
       x2="22.104254"
       y2="10.035408" />
    <linearGradient
       inkscape:collect="always"
       xlink:href="#linearGradient5031"
       id="linearGradient3380"
       gradientUnits="userSpaceOnUse"
       gradientTransform="matrix(0.4876325,0,0,1.4406684,7.777273,1.4082398)"
       x1="22.104254"
       y1="40.124432"
       x2="22.104254"
       y2="10.035408" />
    <linearGradient
       inkscape:collect="always"
       xlink:href="#linearGradient5031"
       id="linearGradient3382"
       gradientUnits="userSpaceOnUse"
       gradientTransform="matrix(0.369496,0,0,1.4205132,9.0116197,3.7802626)"
       x1="22.104254"
       y1="40.124432"
       x2="22.104254"
       y2="10.035408" />
    <linearGradient
       inkscape:collect="always"
       xlink:href="#linearGradient5031"
       id="linearGradient3384"
       gradientUnits="userSpaceOnUse"
       gradientTransform="matrix(0.3814643,0,0,1.4009103,8.4789307,6.2584122)"
       x1="22.104254"
       y1="40.124432"
       x2="22.104254"
       y2="10.035408" />
    <linearGradient
       inkscape:collect="always"
       xlink:href="#linearGradient5031"
       id="linearGradient3386"
       gradientUnits="userSpaceOnUse"
       gradientTransform="matrix(0.4063605,0,0,1.4407893,8.3143938,-4.5939912)"
       x1="22.104254"
       y1="40.124432"
       x2="22.104254"
       y2="10.035408" />
    <linearGradient
       inkscape:collect="always"
       xlink:href="#linearGradient5031"
       id="linearGradient3388"
       gradientUnits="userSpaceOnUse"
       gradientTransform="matrix(1.7828362,0,0,1.4407913,-37.938893,-27.441342)"
       x1="22.104254"
       y1="40.124432"
       x2="22.104254"
       y2="10.035408" />
    <radialGradient
       inkscape:collect="always"
       xlink:href="#XMLID_8_"
       id="radialGradient3390"
       gradientUnits="userSpaceOnUse"
       gradientTransform="matrix(0.36170675,0,0,-0.3907784,0.8509869,47.517004)"
       cx="102"
       cy="112.3047"
       r="139.55859" />
    <linearGradient
       inkscape:collect="always"
       xlink:href="#linearGradient8589-8"
       id="linearGradient3392"
       gradientUnits="userSpaceOnUse"
       gradientTransform="matrix(0.99771106,0,0,1.0406866,0.1637173,-1.1057947)"
       x1="32.892288"
       y1="8.0590115"
       x2="36.358372"
       y2="5.4565363" />
    <linearGradient
       inkscape:collect="always"
       xlink:href="#linearGradient8589-8"
       id="linearGradient3395"
       gradientUnits="userSpaceOnUse"
       gradientTransform="matrix(0,0.99771106,-1.0406866,0,45.194664,3.1694664)"
       x1="32.892288"
       y1="8.0590115"
       x2="36.358372"
       y2="5.4565363" />
    <radialGradient
       inkscape:collect="always"
       xlink:href="#XMLID_8_"
       id="radialGradient3399"
       gradientUnits="userSpaceOnUse"
       gradientTransform="matrix(0.36170675,0,0,-0.3907784,-60.637874,48.88791)"
       cx="102"
       cy="112.3047"
       r="139.55859" />
    <linearGradient
       inkscape:collect="always"
       xlink:href="#linearGradient5031"
       id="linearGradient3403"
       gradientUnits="userSpaceOnUse"
       gradientTransform="matrix(1.7828362,0,0,1.4407913,-99.427754,-26.070436)"
       x1="22.104254"
       y1="40.124432"
       x2="22.104254"
       y2="10.035408" />
    <linearGradient
       inkscape:collect="always"
       xlink:href="#linearGradient5031"
       id="linearGradient3406"
       gradientUnits="userSpaceOnUse"
       gradientTransform="matrix(0.4063605,0,0,1.4407893,-53.174467,-3.2230849)"
       x1="22.104254"
       y1="40.124432"
       x2="22.104254"
       y2="10.035408" />
    <linearGradient
       inkscape:collect="always"
       xlink:href="#linearGradient5031"
       id="linearGradient3410"
       gradientUnits="userSpaceOnUse"
       gradientTransform="matrix(0.3814643,0,0,1.4009103,-53.00993,7.6293185)"
       x1="22.104254"
       y1="40.124432"
       x2="22.104254"
       y2="10.035408" />
    <linearGradient
       inkscape:collect="always"
       xlink:href="#linearGradient5031"
       id="linearGradient3414"
       gradientUnits="userSpaceOnUse"
       gradientTransform="matrix(0.369496,0,0,1.4205132,-52.477241,5.1511689)"
       x1="22.104254"
       y1="40.124432"
       x2="22.104254"
       y2="10.035408" />
    <linearGradient
       inkscape:collect="always"
       xlink:href="#linearGradient5031"
       id="linearGradient3418"
       gradientUnits="userSpaceOnUse"
       gradientTransform="matrix(0.4876325,0,0,1.4406684,-53.711588,2.7791461)"
       x1="22.104254"
       y1="40.124432"
       x2="22.104254"
       y2="10.035408" />
    <linearGradient
       inkscape:collect="always"
       xlink:href="#linearGradient5031"
       id="linearGradient3422"
       gradientUnits="userSpaceOnUse"
       gradientTransform="matrix(0.3342091,0,0,1.4207463,-51.809849,1.132955)"
       x1="22.104254"
       y1="40.124432"
       x2="22.104254"
       y2="10.035408" />
    <linearGradient
       inkscape:collect="always"
       xlink:href="#linearGradient3211"
       id="linearGradient3466"
       gradientUnits="userSpaceOnUse"
       gradientTransform="matrix(1,0,0,0.9777778,-61.488861,0.3820184)"
       x1="24"
       y1="1.9999999"
       x2="24"
       y2="46.01725" />
    <linearGradient
       inkscape:collect="always"
       xlink:href="#linearGradient3600"
       id="linearGradient3469"
       gradientUnits="userSpaceOnUse"
       gradientTransform="translate(-61.488861,0.37090658)"
       x1="25.132275"
       y1="6.7287393"
       x2="25.132275"
       y2="47.013336" />
    <linearGradient
       inkscape:collect="always"
       xlink:href="#linearGradient3104"
       id="linearGradient3471"
       gradientUnits="userSpaceOnUse"
       gradientTransform="matrix(0.8074968,0,0,0.9358511,-2.078625,-0.7435728)"
       x1="-51.786404"
       y1="50.786446"
       x2="-51.786404"
       y2="2.9062471" />
  </defs>
  <sodipodi:namedview
     id="base"
     pagecolor="#ffffff"
     bordercolor="#666666"
     borderopacity="1.0"
     inkscape:pageopacity="0.0"
     inkscape:pageshadow="2"
     inkscape:zoom="13.125"
     inkscape:cx="11.272844"
     inkscape:cy="23.597144"
     inkscape:current-layer="layer1"
     showgrid="true"
     inkscape:grid-bbox="true"
     inkscape:document-units="px"
     inkscape:window-width="1244"
     inkscape:window-height="795"
     inkscape:window-x="34"
     inkscape:window-y="25"
     inkscape:window-maximized="0">
    <inkscape:grid
       type="xygrid"
       id="grid3827" />
  </sodipodi:namedview>
  <metadata
     id="metadata4037">
    <rdf:RDF>
      <cc:Work
         rdf:about="">
        <dc:format>image/svg+xml</dc:format>
        <dc:type
           rdf:resource="http://purl.org/dc/dcmitype/StillImage" />
        <dc:title />
      </cc:Work>
    </rdf:RDF>
  </metadata>
  <g
     id="layer1"
     inkscape:label="Layer 1"
     inkscape:groupmode="layer">
    <g
       style="opacity:0.6"
       id="g3712"
       transform="matrix(1.1578952,0,0,0.6428571,-3.789484,16.035716)">
      <rect
         style="fill:url(#radialGradient3013);fill-opacity:1;stroke:none"
         id="rect2801"
         y="40"
         x="38"
         height="7"
         width="5" />
      <rect
         style="fill:url(#radialGradient3015);fill-opacity:1;stroke:none"
         id="rect3696"
         transform="scale(-1,-1)"
         y="-47"
         x="-10"
         height="7"
         width="5" />
      <rect
         style="fill:url(#linearGradient4030);fill-opacity:1;stroke:none"
         id="rect3700"
         y="40"
         x="10"
         height="7.0000005"
         width="28" />
    </g>
    <rect
       style="color:#000000;fill:url(#radialGradient2874);fill-opacity:1;fill-rule:nonzero;stroke:url(#linearGradient2876);stroke-width:1;stroke-linecap:round;stroke-linejoin:round;stroke-miterlimit:4;stroke-opacity:1;stroke-dasharray:none;stroke-dashoffset:0;marker:none;visibility:visible;display:inline;overflow:visible;enable-background:accumulate"
       id="rect5505-21"
       y="5.5"
       x="4.5"
       ry="2"
       rx="2"
       height="39"
       width="39" />
    <path
       inkscape:connector-curvature="0"
       style="opacity:0.10000000000000001;fill:url(#linearGradient3568);fill-opacity:1;fill-rule:evenodd;stroke:none"
       id="path3333"
       d="M 6.2169167,6 C 5.5377266,6 5,6.9124652 5,7.8 L 5.0126445,30 C 6.1058123,29.975834 42.170261,21.153092 43,20.728709 L 43,7.8 C 43,7.1215957 42.468817,6 41.88071,6 L 6.2169214,6 z"
       sodipodi:nodetypes="ccccccc" />
    <rect
       style="opacity:0.5;fill:none;stroke:url(#linearGradient2959);stroke-width:1;stroke-linecap:round;stroke-linejoin:round;stroke-miterlimit:4;stroke-opacity:1;stroke-dasharray:none;stroke-dashoffset:0"
       id="rect6741"
       y="6.5"
       x="5.5"
       ry="1"
       rx="1"
       height="37"
       width="37" />
    <path
       transform="translate(1,-1)"
       sodipodi:type="arc"
       style="fill:#ffffff;fill-opacity:1;fill-rule:nonzero;stroke:#000000;stroke-opacity:1;stroke-width:2;stroke-miterlimit:4;stroke-dasharray:none;opacity:0.2"
       id="path3920"
       sodipodi:cx="36.5"
       sodipodi:cy="12.5"
       sodipodi:rx="1.5"
       sodipodi:ry="1.5"
       d="m 38,12.5 a 1.5,1.5 0 1 1 -3,0 1.5,1.5 0 1 1 3,0 z" />
    <path
       d="m 38,12.5 a 1.5,1.5 0 1 1 -3,0 1.5,1.5 0 1 1 3,0 z"
       sodipodi:ry="1.5"
       sodipodi:rx="1.5"
       sodipodi:cy="12.5"
       sodipodi:cx="36.5"
       id="path3897"
       style="fill:#ffffff;fill-opacity:1;fill-rule:nonzero;stroke:none"
       sodipodi:type="arc"
       transform="translate(1,-1)" />
    <path
       d="m 38,12.5 a 1.5,1.5 0 1 1 -3,0 1.5,1.5 0 1 1 3,0 z"
       sodipodi:ry="1.5"
       sodipodi:rx="1.5"
       sodipodi:cy="12.5"
       sodipodi:cx="36.5"
       id="path3922"
       style="opacity:0.2;fill:#ffffff;fill-opacity:1;fill-rule:nonzero;stroke:#000000;stroke-width:2;stroke-miterlimit:4;stroke-opacity:1;stroke-dasharray:none"
       sodipodi:type="arc"
       transform="translate(-26,-1)" />
    <path
       sodipodi:type="arc"
       style="fill:#ffffff;fill-opacity:1;fill-rule:nonzero;stroke:none"
       id="path3899"
       sodipodi:cx="36.5"
       sodipodi:cy="12.5"
       sodipodi:rx="1.5"
       sodipodi:ry="1.5"
       d="m 38,12.5 a 1.5,1.5 0 1 1 -3,0 1.5,1.5 0 1 1 3,0 z"
       transform="translate(-26,-1)" />
    <g
       style="font-size:12px;font-style:normal;font-variant:normal;font-weight:normal;font-stretch:normal;line-height:125%;letter-spacing:0px;word-spacing:0px;opacity:0.3;fill:#000000;fill-opacity:1;stroke:none;font-family:Droid Sans;-inkscape-font-specification:Sans"
       id="text3990">
      <path
         d="m 23.542383,20.753906 c -10e-6,0.522798 -0.08237,0.999035 -0.24707,1.428711 -0.164724,0.429698 -0.397471,0.802093 -0.698242,1.117188 -0.293629,0.315113 -0.648121,0.576506 -1.063477,0.784179 -0.415372,0.20053 -0.877286,0.343759 -1.385742,0.429688 l 0,0.06445 c 1.26757,0.15756 2.230785,0.562182 2.889648,1.213867 0.658844,0.644538 0.988271,1.486008 0.988282,2.524414 -1.1e-5,0.687504 -0.118175,1.317712 -0.354493,1.890625 -0.229176,0.572919 -0.580088,1.067059 -1.052734,1.482422 C 22.14589,32.104818 21.547909,32.427084 20.82461,32.65625 20.101296,32.885417 19.245502,33 18.257227,33 17.476624,33 16.738994,32.939127 16.044336,32.817383 15.356834,32.695638 14.708723,32.473633 14.1,32.151367 l 0,-1.826172 c 0.623046,0.32943 1.296222,0.583661 2.019532,0.762696 0.730465,0.179038 1.428706,0.268556 2.094726,0.268554 0.658849,2e-6 1.228184,-0.07161 1.708008,-0.214843 0.479811,-0.143228 0.87369,-0.347329 1.181641,-0.612305 0.315096,-0.264972 0.544262,-0.590818 0.6875,-0.977539 0.150382,-0.386715 0.225577,-0.819983 0.225586,-1.299805 -9e-6,-0.486974 -0.09669,-0.902338 -0.290039,-1.246094 -0.186207,-0.350905 -0.454761,-0.637363 -0.805665,-0.859375 -0.350918,-0.229159 -0.780605,-0.397454 -1.289062,-0.504882 -0.501308,-0.107415 -1.070643,-0.161126 -1.708008,-0.161133 l -1.428711,0 0,-1.622071 1.428711,0 c 0.580073,9e-6 1.095697,-0.07161 1.546875,-0.214843 0.451165,-0.14322 0.827141,-0.347322 1.12793,-0.612305 0.307935,-0.264964 0.540682,-0.580068 0.698242,-0.945313 0.157544,-0.365223 0.23632,-0.766264 0.236328,-1.203125 -8e-6,-0.372383 -0.06446,-0.705391 -0.193359,-0.999023 -0.128914,-0.293607 -0.311531,-0.540677 -0.547852,-0.741211 -0.236335,-0.207668 -0.519213,-0.36522 -0.848633,-0.472656 -0.329433,-0.107408 -0.694667,-0.161119 -1.095703,-0.161133 -0.766281,1.4e-5 -1.443038,0.121759 -2.030273,0.365234 -0.580081,0.236342 -1.135094,0.547865 -1.665039,0.934571 L 14.164454,18.46582 c 0.272134,-0.22199 0.572915,-0.429672 0.902343,-0.623047 0.336587,-0.193344 0.701821,-0.361638 1.095703,-0.504882 0.393877,-0.150375 0.812822,-0.268539 1.256836,-0.354493 0.451168,-0.08592 0.927404,-0.12889 1.428711,-0.128906 0.773431,1.6e-5 1.450188,0.0967 2.030274,0.290039 0.587231,0.193375 1.07779,0.46551 1.471679,0.816406 0.393871,0.343765 0.691071,0.755548 0.891602,1.235352 0.200511,0.472669 0.300771,0.991875 0.300781,1.557617"
         style="font-size:22px;fill:#000000"
         id="path3930" />
      <path
         d="m 32.974024,32.785156 -1.890625,0 0,-9.807617 c -6e-6,-0.307933 -6e-6,-0.637359 0,-0.988281 0.0072,-0.3509 0.01432,-0.698231 0.02148,-1.041992 0.01432,-0.3509 0.02506,-0.683907 0.03223,-0.999024 0.01432,-0.322252 0.02506,-0.60513 0.03223,-0.848633 -0.12175,0.12892 -0.229172,0.239923 -0.322265,0.333008 -0.09311,0.09311 -0.189784,0.182631 -0.290039,0.268555 -0.0931,0.08595 -0.193365,0.179049 -0.300782,0.279297 -0.107426,0.09311 -0.236332,0.204114 -0.386718,0.333008 l -1.589844,1.299804 -1.03125,-1.321289 4.114258,-3.211914 1.611328,0 0,15.705078"
         style="font-size:22px;fill:#000000"
         id="path3932" />
    </g>
    <g
       style="font-size:12px;font-style:normal;font-variant:normal;font-weight:normal;font-stretch:normal;line-height:125%;letter-spacing:0px;word-spacing:0px;fill:#ffffff;fill-opacity:1;stroke:none;font-family:Droid Sans;-inkscape-font-specification:Sans"
       id="text3955">
      <path
         d="m 23.542383,21.753906 c -10e-6,0.522798 -0.08237,0.999035 -0.24707,1.428711 -0.164724,0.429698 -0.397471,0.802093 -0.698242,1.117188 -0.293629,0.315113 -0.648121,0.576506 -1.063477,0.784179 -0.415372,0.20053 -0.877286,0.343759 -1.385742,0.429688 l 0,0.06445 c 1.26757,0.15756 2.230785,0.562182 2.889648,1.213867 0.658844,0.644538 0.988271,1.486008 0.988282,2.524414 -1.1e-5,0.687504 -0.118175,1.317712 -0.354493,1.890625 -0.229176,0.572919 -0.580088,1.067059 -1.052734,1.482422 C 22.14589,33.104818 21.547909,33.427084 20.82461,33.65625 20.101296,33.885417 19.245502,34 18.257227,34 17.476624,34 16.738994,33.939127 16.044336,33.817383 15.356834,33.695638 14.708723,33.473633 14.1,33.151367 l 0,-1.826172 c 0.623046,0.32943 1.296222,0.583661 2.019532,0.762696 0.730465,0.179038 1.428706,0.268556 2.094726,0.268554 0.658849,2e-6 1.228184,-0.07161 1.708008,-0.214843 0.479811,-0.143228 0.87369,-0.347329 1.181641,-0.612305 0.315096,-0.264972 0.544262,-0.590818 0.6875,-0.977539 0.150382,-0.386715 0.225577,-0.819983 0.225586,-1.299805 -9e-6,-0.486974 -0.09669,-0.902338 -0.290039,-1.246094 -0.186207,-0.350905 -0.454761,-0.637363 -0.805665,-0.859375 -0.350918,-0.229159 -0.780605,-0.397454 -1.289062,-0.504882 -0.501308,-0.107415 -1.070643,-0.161126 -1.708008,-0.161133 l -1.428711,0 0,-1.622071 1.428711,0 c 0.580073,9e-6 1.095697,-0.07161 1.546875,-0.214843 0.451165,-0.14322 0.827141,-0.347322 1.12793,-0.612305 0.307935,-0.264964 0.540682,-0.580068 0.698242,-0.945313 0.157544,-0.365223 0.23632,-0.766264 0.236328,-1.203125 -8e-6,-0.372383 -0.06446,-0.705391 -0.193359,-0.999023 -0.128914,-0.293607 -0.311531,-0.540677 -0.547852,-0.741211 -0.236335,-0.207668 -0.519213,-0.36522 -0.848633,-0.472656 -0.329433,-0.107408 -0.694667,-0.161119 -1.095703,-0.161133 -0.766281,1.4e-5 -1.443038,0.121759 -2.030273,0.365234 -0.580081,0.236342 -1.135094,0.547865 -1.665039,0.934571 L 14.164454,19.46582 c 0.272134,-0.22199 0.572915,-0.429672 0.902343,-0.623047 0.336587,-0.193344 0.701821,-0.361638 1.095703,-0.504882 0.393877,-0.150375 0.812822,-0.268539 1.256836,-0.354493 0.451168,-0.08592 0.927404,-0.12889 1.428711,-0.128906 0.773431,1.6e-5 1.450188,0.0967 2.030274,0.290039 0.587231,0.193375 1.07779,0.46551 1.471679,0.816406 0.393871,0.343765 0.691071,0.755548 0.891602,1.235352 0.200511,0.472669 0.300771,0.991875 0.300781,1.557617"
         style="font-size:22px;fill:#ffffff;fill-opacity:1"
         id="path3157" />
      <path
         d="m 32.974024,33.785156 -1.890625,0 0,-9.807617 c -6e-6,-0.307933 -6e-6,-0.637359 0,-0.988281 0.0072,-0.3509 0.01432,-0.698231 0.02148,-1.041992 0.01432,-0.3509 0.02506,-0.683907 0.03223,-0.999024 0.01432,-0.322252 0.02506,-0.60513 0.03223,-0.848633 -0.12175,0.12892 -0.229172,0.239923 -0.322265,0.333008 -0.09311,0.09311 -0.189784,0.182631 -0.290039,0.268555 -0.0931,0.08595 -0.193365,0.179049 -0.300782,0.279297 -0.107426,0.09311 -0.236332,0.204114 -0.386718,0.333008 l -1.589844,1.299804 -1.03125,-1.321289 4.114258,-3.211914 1.611328,0 0,15.705078"
         style="font-size:22px;fill:#ffffff;fill-opacity:1"
         id="path3159" />
    </g>
    <path
       style="opacity:0.4;fill:#000000;fill-opacity:1;fill-rule:evenodd;stroke:none;display:inline;filter:url(#filter3248)"
       id="path12038"
       transform="matrix(0,1.0000126,-1,0,44.080596,3.0139348)"
       d="m 28.617256,0.9212581 c 4.282522,0 2.15325,8.4831709 2.15325,8.4831709 0,0 10.357642,-1.8023467 10.357642,2.818745 0,-2.609724 -11.302304,-10.7285959 -12.510892,-11.3019159 z"
       inkscape:connector-curvature="0" />
    <path
       style="fill:#000000;stroke:none;stroke-width:1px;stroke-linecap:butt;stroke-linejoin:miter;stroke-opacity:1;fill-opacity:1;opacity:0.1"
       d="m 34,44 9,-11 0,10 -1,1 z"
       id="path3477"
       inkscape:connector-curvature="0" />
    <path
       style="fill:url(#linearGradient3395);fill-opacity:1;fill-rule:evenodd;stroke:none;display:inline"
       id="path4474"
       d="m 43.167611,31.623277 c 0,3.186533 -7.661878,2.33579 -7.661878,2.33579 0,0 0.981054,10.17526 -3.640037,10.17526 1.125939,0 1.932245,0.08591 2.283592,-0.133779 2.524179,-1.578333 8.188401,-8.395622 8.930789,-10.857437 0.05555,-0.184224 0.08753,-0.592711 0.08753,-1.519834 z"
       inkscape:connector-curvature="0" />
  </g>
</svg>
