<?xml version="1.0" encoding="UTF-8" standalone="no"?>
<svg
   version="1.1"
   width="48"
   height="48"
   id="svg11300"
   sodipodi:docname="hardinfo.svg"
   inkscape:version="1.2.2 (b0a8486541, 2022-12-01)"
   xmlns:inkscape="http://www.inkscape.org/namespaces/inkscape"
   xmlns:sodipodi="http://sodipodi.sourceforge.net/DTD/sodipodi-0.dtd"
   xmlns:xlink="http://www.w3.org/1999/xlink"
   xmlns="http://www.w3.org/2000/svg"
   xmlns:svg="http://www.w3.org/2000/svg"
   xmlns:rdf="http://www.w3.org/1999/02/22-rdf-syntax-ns#"
   xmlns:cc="http://creativecommons.org/ns#"
   xmlns:dc="http://purl.org/dc/elements/1.1/">
  <sodipodi:namedview
     id="namedview106"
     pagecolor="#ffffff"
     bordercolor="#000000"
     borderopacity="0.25"
     inkscape:showpageshadow="2"
     inkscape:pageopacity="0.0"
     inkscape:pagecheckerboard="0"
     inkscape:deskcolor="#d1d1d1"
     showgrid="false"
     inkscape:zoom="22.627417"
     inkscape:cx="22.008699"
     inkscape:cy="27.665553"
     inkscape:window-width="1278"
     inkscape:window-height="1005"
     inkscape:window-x="529"
     inkscape:window-y="13"
     inkscape:window-maximized="0"
     inkscape:current-layer="svg11300" />
  <metadata
     id="metadata97111">
    <rdf:RDF>
      <cc:Work
         rdf:about="">
        <dc:format>image/svg+xml</dc:format>
        <dc:type
           rdf:resource="http://purl.org/dc/dcmitype/StillImage" />
      </cc:Work>
    </rdf:RDF>
  </metadata>
  <defs
     id="defs3">
    <linearGradient
       inkscape:collect="always"
       id="linearGradient995">
      <stop
         style="stop-color:#f9c440;stop-opacity:0;"
         offset="0"
         id="stop991" />
      <stop
         style="stop-color:#f9c440;stop-opacity:1"
         offset="1"
         id="stop993" />
    </linearGradient>
    <linearGradient
       id="linearGradient4877">
      <stop
         id="stop4879"
         style="stop-color:#747474;stop-opacity:1"
         offset="0" />
      <stop
         id="stop4881"
         style="stop-color:white;stop-opacity:1"
         offset="0.45348784" />
      <stop
         id="stop4883"
         style="stop-color:#3f3f3f;stop-opacity:1"
         offset="1" />
    </linearGradient>
    <linearGradient
       id="linearGradient3437">
      <stop
         id="stop3439"
         style="stop-color:black;stop-opacity:1"
         offset="0" />
      <stop
         id="stop3441"
         style="stop-color:black;stop-opacity:0"
         offset="1" />
    </linearGradient>
    <linearGradient
       id="linearGradient14981-4">
      <stop
         id="stop14983-1"
         style="stop-color:#3a9104;stop-opacity:1"
         offset="0" />
      <stop
         id="stop14985-7"
         style="stop-color:#206b00;stop-opacity:1"
         offset="1" />
    </linearGradient>
    <linearGradient
       x1="7.9242415"
       y1="11.5"
       x2="6.2468581"
       y2="11.5"
       id="linearGradient3956"
       xlink:href="#linearGradient995"
       gradientUnits="userSpaceOnUse"
       gradientTransform="matrix(0,0.66666668,-1,0,29,17.666189)" />
    <linearGradient
       x1="5.0994196"
       y1="19.440414"
       x2="6.4199843"
       y2="19.440414"
       id="linearGradient4002"
       xlink:href="#linearGradient995"
       gradientUnits="userSpaceOnUse"
       gradientTransform="matrix(0.66666668,0,0,1,2.6666666,-4.000475)" />
    <linearGradient
       x1="6.5088186"
       y1="38.401527"
       x2="6.5088186"
       y2="42.27755"
       id="linearGradient4022"
       xlink:href="#linearGradient995"
       gradientUnits="userSpaceOnUse"
       gradientTransform="matrix(1.984375,0,0,1,3.09375,-4.01407)" />
    <radialGradient
       cx="9"
       cy="15.407109"
       r="19.999861"
       fx="9"
       fy="15.407109"
       id="radialGradient4820"
       xlink:href="#linearGradient14981-4"
       gradientUnits="userSpaceOnUse"
       gradientTransform="matrix(2.3160736,0.01430413,-0.01016957,1.6466216,-11.68798,-7.4988916)" />
    <linearGradient
       x1="24"
       y1="19.5"
       x2="25.508558"
       y2="19.5"
       id="linearGradient4859"
       xlink:href="#linearGradient995"
       gradientUnits="userSpaceOnUse"
       gradientTransform="matrix(-0.66666668,0,0,1,41,-4.000475)" />
    <linearGradient
       x1="35.933823"
       y1="22.75"
       x2="51.449436"
       y2="22.75"
       id="linearGradient4867"
       xlink:href="#linearGradient4877"
       gradientUnits="userSpaceOnUse" />
    <linearGradient
       x1="42.365673"
       y1="15.04982"
       x2="42.4007"
       y2="20.018223"
       id="linearGradient4899"
       xlink:href="#linearGradient4877"
       gradientUnits="userSpaceOnUse"
       gradientTransform="matrix(1.2668711,0,0,1.2599528,-10.710343,-5.0925134)" />
    <linearGradient
       x1="42.365673"
       y1="15.04982"
       x2="42.4007"
       y2="20.018223"
       id="linearGradient4925"
       xlink:href="#linearGradient4877"
       gradientUnits="userSpaceOnUse"
       gradientTransform="matrix(1.2668711,0,0,1.2599535,-10.710343,1.9074749)" />
    <radialGradient
       cx="24.45439"
       cy="46.869949"
       r="19.61445"
       fx="24.45439"
       fy="46.869949"
       id="radialGradient3018"
       xlink:href="#linearGradient3437"
       gradientUnits="userSpaceOnUse"
       gradientTransform="matrix(0.81572503,0,0,0.12745709,3.051938,33.52562)" />
    <radialGradient
       gradientTransform="matrix(0.11151981,0,0,0.03548359,25.942029,39.166729)"
       gradientUnits="userSpaceOnUse"
       xlink:href="#linearGradient3820-7-2-2"
       id="radialGradient3108"
       fy="186.17059"
       fx="99.157013"
       r="62.769119"
       cy="186.17059"
       cx="99.157013" />
    <linearGradient
       id="linearGradient3820-7-2-2">
      <stop
         id="stop3822-2-6-36"
         style="stop-color:#3d3d3d;stop-opacity:1"
         offset="0" />
      <stop
         id="stop3864-8-7-6"
         style="stop-color:#686868;stop-opacity:0.49803922"
         offset="0.5" />
      <stop
         id="stop3824-1-2-4"
         style="stop-color:#686868;stop-opacity:0"
         offset="1" />
    </linearGradient>
    <linearGradient
       x1="2035.1652"
       y1="3208.0737"
       x2="2035.1652"
       y2="3241.9966"
       id="linearGradient11527-6-5"
       xlink:href="#linearGradient947-5"
       gradientUnits="userSpaceOnUse"
       gradientTransform="matrix(0.8047894,0,0,0.60165743,-1603.8199,-1904.0804)" />
    <linearGradient
       id="linearGradient947-5">
      <stop
         id="stop943-6"
         style="stop-color:#64baff;stop-opacity:1"
         offset="0" />
      <stop
         id="stop945-2"
         style="stop-color:#3689e6;stop-opacity:1"
         offset="1" />
    </linearGradient>
    <linearGradient
       x1="71.204407"
       y1="6.2375584"
       x2="71.204407"
       y2="44.340794"
       id="linearGradient12398-3"
       xlink:href="#linearGradient4011"
       gradientUnits="userSpaceOnUse"
       gradientTransform="matrix(0.5135135,0,0,0.5135135,0.16386,22.97872)" />
    <linearGradient
       id="linearGradient4011">
      <stop
         id="stop4013"
         style="stop-color:#ffffff;stop-opacity:1"
         offset="0" />
      <stop
         id="stop4015-3"
         style="stop-color:#ffffff;stop-opacity:0.23529412"
         offset="0.507761" />
      <stop
         id="stop4017-2"
         style="stop-color:#ffffff;stop-opacity:0.15686275"
         offset="0.83456558" />
      <stop
         id="stop4019"
         style="stop-color:#ffffff;stop-opacity:0.39215687"
         offset="1" />
    </linearGradient>
    <linearGradient
       x1="71.204407"
       y1="6.2375584"
       x2="71.204407"
       y2="44.340794"
       id="linearGradient3019"
       xlink:href="#linearGradient4011"
       gradientUnits="userSpaceOnUse"
       gradientTransform="matrix(0.98526698,0,0,0.75557564,-49.8792,5.2272725)" />
    <linearGradient
       inkscape:collect="always"
       xlink:href="#linearGradient995"
       id="linearGradient997"
       x1="9.4971371"
       y1="12.000606"
       x2="9.4971371"
       y2="13.012724"
       gradientUnits="userSpaceOnUse" />
    <linearGradient
       x1="71.204407"
       y1="6.2375584"
       x2="71.204407"
       y2="44.340794"
       id="linearGradient3019-9"
       xlink:href="#linearGradient4011"
       gradientUnits="userSpaceOnUse"
       gradientTransform="matrix(0.37837836,0,0,0.16216216,-11.64241,13.388015)" />
  </defs>
  <path
     d="m 39,39.499524 c 0,1.380714 -7.163442,2.500001 -16,2.500001 -8.836561,0 -16,-1.119287 -16,-2.500001 0,-1.380712 7.163439,-2.499999 16,-2.499999 8.836558,0 16,1.119287 16,2.499999 z"
     id="path2983"
     style="opacity:0.45;fill:url(#radialGradient3018);fill-opacity:1;stroke:none" />
  <rect
     width="6"
     height="5.0000029"
     rx="1"
     ry="1"
     x="38.5"
     y="21.499525"
     id="rect4923"
     style="color:#000000;display:block;overflow:visible;visibility:visible;fill:url(#linearGradient4925);fill-opacity:1;fill-rule:nonzero;stroke:#485a6c;stroke-width:1;stroke-linecap:round;stroke-linejoin:round;stroke-miterlimit:4;stroke-dasharray:none;stroke-dashoffset:0;stroke-opacity:0.5;marker:none" />
  <rect
     width="6"
     height="5"
     rx="1"
     ry="1"
     x="38.5"
     y="14.499525"
     id="rect15011"
     style="color:#000000;display:block;overflow:visible;visibility:visible;fill:url(#linearGradient4899);fill-opacity:1;fill-rule:nonzero;stroke:#485a6c;stroke-width:1;stroke-linecap:round;stroke-linejoin:round;stroke-miterlimit:4;stroke-dasharray:none;stroke-dashoffset:0;stroke-opacity:0.5;marker:none" />
  <path
     d="m 1.5010327,9.999525 0.00391,26 c 0,0.330019 0.1122292,0.500087 0.4950573,0.500087 l 10.503324,0.01563 -0.0039,2.852798 c 0,0.07127 0.0224,0.126335 0.124282,0.12677 l 18.755678,-0.0078 c 0.09242,-0.0037 0.124281,-0.06374 0.124281,-0.12677 l 0.0039,-2.868423 8.992438,0.0078 V 9.503 H 2 c -0.4015202,0 -0.4989673,0.2044174 -0.4989673,0.496525 z"
     id="rect14772"
     style="color:#000000;display:block;overflow:visible;visibility:visible;fill:url(#radialGradient4820);fill-opacity:1;fill-rule:nonzero;stroke:#0e141f;stroke-width:1;stroke-linecap:butt;stroke-linejoin:miter;stroke-miterlimit:4;stroke-dasharray:none;stroke-dashoffset:0;stroke-opacity:0.5;marker:none"
     sodipodi:nodetypes="ccccccccccccc" />
  <path
     d="m 25,19.471758 0.06435,0.530944 2.43565,1.892154 v 4.604669 h -17 v 3.932389"
     id="path14957"
     style="color:#000000;display:block;overflow:visible;visibility:visible;fill:none;stroke:#305526;stroke-width:0.5;stroke-linecap:butt;stroke-linejoin:miter;stroke-miterlimit:4;stroke-dasharray:none;stroke-dashoffset:0;stroke-opacity:1;marker:none"
     sodipodi:nodetypes="cccccc" />
  <path
     d="m 15.5,38.499525 v -4.932147 l 2,-3.067853 h 13.969674 l 2.044194,-1.999822 0.04419,-3.033634 -8.043116,-5.966544 H 33.5 v -4 h -9"
     id="path14826"
     style="color:#000000;display:block;overflow:visible;visibility:visible;fill:none;stroke:#305526;stroke-width:0.5;stroke-linecap:butt;stroke-linejoin:miter;stroke-miterlimit:4;stroke-dasharray:none;stroke-dashoffset:0;stroke-opacity:1;marker:none"
     sodipodi:nodetypes="cccccccccc" />
  <path
     d="m 19.5,38.499524 v -5.067852 l 2,-2.932147"
     id="path14842"
     style="color:#000000;display:block;overflow:visible;visibility:visible;fill:none;stroke:#305526;stroke-width:0.5;stroke-linecap:butt;stroke-linejoin:miter;stroke-miterlimit:4;stroke-dasharray:none;stroke-dashoffset:0;stroke-opacity:1;marker:none"
     sodipodi:nodetypes="ccc" />
  <path
     d="m 22.5,38.499524 v -5.067852 l 2,-2.932147"
     id="path14844"
     style="color:#000000;display:block;overflow:visible;visibility:visible;fill:none;stroke:#305526;stroke-width:0.5;stroke-linecap:butt;stroke-linejoin:miter;stroke-miterlimit:4;stroke-dasharray:none;stroke-dashoffset:0;stroke-opacity:1;marker:none"
     sodipodi:nodetypes="ccc" />
  <path
     d="m 25.5,38.499525 v -5.067853 l 2,-2.932147"
     id="path14846"
     style="color:#000000;display:block;overflow:visible;visibility:visible;fill:none;stroke:#305526;stroke-width:0.5;stroke-linecap:butt;stroke-linejoin:miter;stroke-miterlimit:4;stroke-dasharray:none;stroke-dashoffset:0;stroke-opacity:1;marker:none"
     sodipodi:nodetypes="ccc" />
  <path
     d="m 6.5,15.499525 -3,1 v 2 10 h 7"
     id="path15029"
     style="color:#000000;display:block;overflow:visible;visibility:visible;fill:none;stroke:#305526;stroke-width:0.5;stroke-linecap:butt;stroke-linejoin:miter;stroke-miterlimit:4;stroke-dasharray:none;stroke-dashoffset:0;stroke-opacity:1;marker:none"
     sodipodi:nodetypes="ccccc" />
  <rect
     width="16"
     height="8.0000038"
     rx="1"
     ry="1"
     x="7.5"
     y="13.499525"
     id="rect14857"
     style="color:#000000;display:block;overflow:visible;visibility:visible;fill:#555753;fill-opacity:1;fill-rule:nonzero;stroke:#0e141f;stroke-width:0.999996;stroke-linecap:butt;stroke-linejoin:miter;stroke-miterlimit:4;stroke-dasharray:none;stroke-dashoffset:0;stroke-opacity:1;marker:none" />
  <path
     d="m 6.5,17.499525 -2.984375,1.0625"
     id="path15031"
     style="color:#000000;display:block;overflow:visible;visibility:visible;fill:none;stroke:#305526;stroke-width:0.5;stroke-linecap:butt;stroke-linejoin:miter;stroke-miterlimit:4;stroke-dasharray:none;stroke-dashoffset:0;stroke-opacity:1;marker:none" />
  <path
     d="m 6.5,19.499525 -3,1"
     id="path15033"
     style="color:#000000;display:block;overflow:visible;visibility:visible;fill:#98a332;fill-opacity:1;stroke:#305526;stroke-width:0.5;stroke-linecap:butt;stroke-linejoin:miter;stroke-miterlimit:4;stroke-dasharray:none;stroke-dashoffset:0;stroke-opacity:1;marker:none"
     sodipodi:nodetypes="cc" />
  <path
     d="m 23,14.999525 v 1 h 2 v -1 z m 0,2 v 1 h 2 v -1 z m 0,2 v 1 h 2 v -1 z"
     id="rect14875"
     style="color:#000000;display:block;overflow:visible;visibility:visible;fill:url(#linearGradient4859);fill-opacity:1;fill-rule:nonzero;stroke:none;stroke-width:1;marker:none" />
  <path
     d="m 9,11.999525 v 2 h 1 v -2 z m 2,0 v 2 h 1 v -2 z m 2,0 v 2 h 1 v -2 z m 2,0 v 2 h 1 v -2 z m 2,0 v 2 h 1 v -2 z m 2,0 v 2 h 1 v -2 z m 2,0 v 2 h 1 v -2 z"
     id="rect14901"
     style="color:#000000;display:block;overflow:visible;visibility:visible;fill:url(#linearGradient997);fill-opacity:1;fill-rule:nonzero;stroke:none;stroke-width:1;marker:none" />
  <path
     d="m 9.4575532,22.859525 1.0424468,3.64 h 1.962757 l -1.06066,-3.64"
     id="path14959"
     style="color:#000000;display:block;overflow:visible;visibility:visible;fill:none;stroke:#305526;stroke-width:0.5;stroke-linecap:butt;stroke-linejoin:miter;stroke-miterlimit:4;stroke-dasharray:none;stroke-dashoffset:0;stroke-opacity:1;marker:none"
     sodipodi:nodetypes="cccc" />
  <path
     d="m 13.457553,22.859525 1.042447,3.64 h 1.962757 l -1.06066,-3.64"
     id="path14961"
     style="color:#000000;display:block;overflow:visible;visibility:visible;fill:none;stroke:#305526;stroke-width:0.5;stroke-linecap:butt;stroke-linejoin:miter;stroke-miterlimit:4;stroke-dasharray:none;stroke-dashoffset:0;stroke-opacity:1;marker:none"
     sodipodi:nodetypes="cccc" />
  <path
     d="m 17.457553,22.759525 1.042447,3.74 h 1.962757 l -1.06066,-3.74"
     id="path14963"
     style="color:#000000;display:block;overflow:visible;visibility:visible;fill:none;stroke:#305526;stroke-width:0.5;stroke-linecap:butt;stroke-linejoin:miter;stroke-miterlimit:4;stroke-dasharray:none;stroke-dashoffset:0;stroke-opacity:1;marker:none"
     sodipodi:nodetypes="cccc" />
  <path
     d="M 21.457553,22.781525 22.5,26.499525"
     id="path14965"
     style="color:#000000;display:block;overflow:visible;visibility:visible;fill:none;stroke:#305526;stroke-width:0.5;stroke-linecap:butt;stroke-linejoin:miter;stroke-miterlimit:4;stroke-dasharray:none;stroke-dashoffset:0;stroke-opacity:1;marker:none"
     sodipodi:nodetypes="cc" />
  <path
     d="m 9,20.999525 v 2 h 1 v -2 z m 2,0 v 2 h 1 v -2 z m 2,0 v 2 h 1 v -2 z m 2,0 v 2 h 1 v -2 z m 2,0 v 2 h 1 v -2 z m 2,0 v 2 h 1 v -2 z m 2,0 v 2 h 1 v -2 z"
     id="rect14929"
     style="color:#000000;display:block;overflow:visible;visibility:visible;fill:url(#linearGradient3956);fill-opacity:1;fill-rule:nonzero;stroke:none;stroke-width:1;marker:none" />
  <path
     d="M 2.5000369,35.49952 13.5,35.499525 V 38.5 h 17 v -3.000475 l 9,-0.0023 c 0.004,-4.09e-4 0,-24.994109 0,-24.994109 l -37,-0.0036 c 0.00404,8.338625 -3.7e-5,25.000005 -3.7e-5,25.000005 z"
     id="path14989"
     style="color:#000000;font-variation-settings:normal;display:block;overflow:visible;visibility:visible;opacity:0.5;vector-effect:none;fill:none;fill-opacity:1;stroke:url(#linearGradient3019);stroke-width:1;stroke-linecap:round;stroke-linejoin:round;stroke-miterlimit:4;stroke-dasharray:none;stroke-dashoffset:0;stroke-opacity:1;-inkscape-stroke:none;marker:none;stop-color:#000000;stop-opacity:1"
     sodipodi:nodetypes="cccccccccc" />
  <path
     d="M 15.71875,35.593275 C 15.153661,35.717504 15,36.25715 15,36.499525 v 2.5 h 2 v -2.5 c 0,-0.277 -0.200328,-0.90625 -1,-0.90625 -0.09801,0 -0.200523,-0.01775 -0.28125,0 z m 3,0 C 18.153661,35.717504 18,36.25715 18,36.499525 v 2.5 h 2 v -2.5 c 0,-0.277 -0.200328,-0.90625 -1,-0.90625 -0.09801,0 -0.200523,-0.01775 -0.28125,0 z m 3.03125,0 C 21.184911,35.717504 21,36.25715 21,36.499525 v 2.5 h 2 v -2.5 c 0,-0.277 -0.200328,-0.90625 -1,-0.90625 -0.09801,0 -0.169273,-0.01775 -0.25,0 z m 3,0 C 24.184911,35.717504 24,36.25715 24,36.499525 v 2.5 h 2 v -2.5 c 0,-0.277 -0.200328,-0.90625 -1,-0.90625 -0.09801,0 -0.169273,-0.01775 -0.25,0 z m 3,0 C 27.184911,35.717504 27,36.25715 27,36.499525 v 2.5 h 2 v -2.5 c 0,-0.277 -0.200328,-0.90625 -1,-0.90625 -0.09801,0 -0.169273,-0.01775 -0.25,0 z"
     id="path14796"
     style="color:#000000;display:block;overflow:visible;visibility:visible;fill:url(#linearGradient4022);fill-opacity:1;fill-rule:nonzero;stroke:none;stroke-width:1;marker:none"
     sodipodi:nodetypes="csccssccsccssccsccssccsccssccsccssc" />
  <path
     style="color:#000000;display:block;fill:url(#linearGradient4867);stroke:#0e141f;stroke-width:1;stroke-linecap:round;stroke-linejoin:round;stroke-dasharray:none;stroke-opacity:0.3"
     d="m 40.5,2.5 c -0.552262,5.52e-5 -0.999945,0.4477381 -1,1 v 39 h 2 v -38 h 4 1 v -2 h -1 z"
     id="path15003"
     sodipodi:nodetypes="cccccccccc" />
  <path
     d="m 35.485699,14.999532 a 1.4856964,1.4856964 0 1 1 -2.971392,0 1.4856964,1.4856964 0 1 1 2.971392,0 z"
     id="path15005"
     style="color:#000000;display:block;overflow:visible;visibility:visible;fill:#3689e6;fill-opacity:1;fill-rule:nonzero;stroke:#334560;stroke-width:0.5;stroke-linecap:round;stroke-linejoin:round;stroke-miterlimit:4;stroke-dasharray:none;stroke-dashoffset:0;stroke-opacity:1;marker:none" />
  <path
     d="m 35.485699,19.985222 a 1.4856964,1.4856964 0 1 1 -2.971392,0 1.4856964,1.4856964 0 1 1 2.971392,0 z"
     id="path15007"
     style="color:#000000;display:block;overflow:visible;visibility:visible;fill:#3689e6;fill-opacity:1;fill-rule:nonzero;stroke:#334560;stroke-width:0.5;stroke-linecap:round;stroke-linejoin:round;stroke-miterlimit:4;stroke-dasharray:none;stroke-dashoffset:0;stroke-opacity:1;marker:none" />
  <path
     d="m 35.485699,25.013829 a 1.4856964,1.4856964 0 1 1 -2.971392,0 1.4856964,1.4856964 0 1 1 2.971392,0 z"
     id="path15009"
     style="color:#000000;display:block;overflow:visible;visibility:visible;fill:#3689e6;fill-opacity:1;fill-rule:nonzero;stroke:#334560;stroke-width:0.5;stroke-linecap:round;stroke-linejoin:round;stroke-miterlimit:4;stroke-dasharray:none;stroke-dashoffset:0;stroke-opacity:1;marker:none" />
  <path
     d="m 28.5,38.960535 0.05485,-5.780683 1.900958,-2.666463"
     id="path14848"
     style="color:#000000;display:block;overflow:visible;visibility:visible;fill:none;stroke:#305526;stroke-width:0.5;stroke-linecap:butt;stroke-linejoin:miter;stroke-miterlimit:4;stroke-dasharray:none;stroke-dashoffset:0;stroke-opacity:1;marker:none" />
  <path
     d="m 6,14.999525 v 1 h 2 v -1 z m 0,2 v 1 h 2 v -1 z m 0,2 v 1 h 2 v -1 z"
     id="rect14869"
     style="color:#000000;display:block;overflow:visible;visibility:visible;fill:url(#linearGradient4002);fill-opacity:1;fill-rule:nonzero;stroke:none;stroke-width:1;marker:none" />
  <path
     style="fill:url(#radialGradient3108);fill-opacity:1;stroke:none"
     id="path3818-0-2-5"
     d="m 44,45.772727 a 7,2.2272727 0 0 1 -14,0 7,2.2272727 0 1 1 14,0 z" />
  <path
     d="m 37,25.5 c -5.79354,0 -10.5,4.70646 -10.5,10.5 0,5.79354 4.70646,10.5 10.5,10.5 5.79354,0 10.50001,-4.70646 10.5,-10.5 0,-5.79354 -4.70646,-10.5 -10.5,-10.5 z"
     id="path2555-7-8-5-0-9"
     style="color:#000000;display:inline;overflow:visible;visibility:visible;opacity:0.99;fill:url(#linearGradient11527-6-5);fill-opacity:1;fill-rule:nonzero;stroke:none;stroke-width:1;marker:none;enable-background:accumulate" />
  <path
     d="m 37,25.5 c -5.79354,0 -10.5,4.70646 -10.5,10.5 0,5.79354 4.70646,10.5 10.5,10.5 5.79354,0 10.50001,-4.70646 10.5,-10.5 0,-5.79354 -4.70646,-10.5 -10.5,-10.5 z"
     id="path2555-7-8-5-1"
     style="color:#000000;clip-rule:nonzero;display:inline;overflow:visible;visibility:visible;opacity:0.5;isolation:auto;mix-blend-mode:normal;color-interpolation:sRGB;color-interpolation-filters:linearRGB;solid-color:#000000;solid-opacity:1;fill:none;fill-opacity:1;fill-rule:nonzero;stroke:#002e99;stroke-width:1;stroke-linecap:round;stroke-linejoin:round;stroke-miterlimit:4;stroke-dasharray:none;stroke-dashoffset:0;stroke-opacity:1;marker:none;color-rendering:auto;image-rendering:auto;shape-rendering:auto;text-rendering:auto;enable-background:accumulate" />
  <path
     d="M 46.49999,35.99966 C 46.49999,41.24654 42.24638,45.5 37.00011,45.5 31.75336,45.5 27.5,41.24649 27.5,35.99966 27.5,30.75303 31.75336,26.5 37.00011,26.5 c 5.24627,0 9.49988,4.25303 9.49988,9.49966 z"
     id="path8655-6-0-9-5-0"
     style="color:#000000;display:inline;overflow:visible;visibility:visible;opacity:0.5;fill:none;stroke:url(#linearGradient12398-3);stroke-width:1;stroke-linecap:round;stroke-linejoin:round;stroke-miterlimit:4;stroke-dasharray:none;stroke-dashoffset:0;stroke-opacity:1;marker:none;enable-background:accumulate" />
  <path
     style="color:#000000;font-style:normal;font-variant:normal;font-weight:bold;font-stretch:normal;font-size:40px;line-height:100%;font-family:'URW Palladio L';-inkscape-font-specification:'URW Palladio L Bold';text-align:start;writing-mode:lr-tb;text-anchor:start;clip-rule:nonzero;display:inline;overflow:visible;visibility:visible;opacity:0.05;isolation:auto;mix-blend-mode:normal;color-interpolation:sRGB;color-interpolation-filters:linearRGB;solid-color:#000000;solid-opacity:1;fill:#002e99;fill-opacity:1;fill-rule:nonzero;stroke:none;stroke-width:1;stroke-linecap:butt;stroke-linejoin:miter;stroke-miterlimit:4;stroke-dasharray:none;stroke-dashoffset:0;stroke-opacity:1;marker:none;color-rendering:auto;image-rendering:auto;shape-rendering:auto;text-rendering:auto;enable-background:accumulate"
     id="path3366"
     d="m 38.59375,29.03125 c -0.02588,-0.0014 -0.03695,0.0317 -0.0625,0.03125 -0.01069,1.3e-4 -0.02052,-2.96e-4 -0.03125,0 -1.102468,-0.0025 -1.922988,0.787779 -2.1875,1.65625 -0.136606,0.448519 -0.159065,0.943979 0,1.4375 0.159065,0.49352 0.558121,1.001362 1.09375,1.25 a 0.98277543,0.98277543 0 0 0 0.03125,0 c 0.222264,0.09115 0.436765,0.04453 0.65625,0.0625 1.463686,0.119857 2.761869,-1.174349 2.46875,-2.6875 -0.0063,-0.03234 0.0077,-0.06132 0,-0.09375 h -0.03125 c -0.179186,-0.931232 -0.965615,-1.606928 -1.9375,-1.625 z m -0.5,4.4375 C 37.755844,33.44099 37.319575,33.593542 36.9375,33.8125 L 36.90625,33.75 c -0.07517,0.03274 -0.114153,0.09045 -0.1875,0.125 -1.292053,0.608618 -2.342502,1.479024 -3.3125,2.1875 a 0.98277543,0.98277543 0 0 0 -0.34375,1.125 c 0.07582,0.206122 0.07962,0.496495 0.59375,0.875 0.257065,0.189252 0.769565,0.253575 1.09375,0.125 0.06484,-0.02571 0.07252,-0.06423 0.125,-0.09375 -0.323517,1.314135 -0.645189,2.640375 -0.9375,4 -0.01401,0.06515 -0.04875,0.122199 -0.0625,0.1875 h 0.03125 c -0.246803,0.806905 -0.0525,1.688674 0.53125,2.21875 0.58349,0.529838 1.540966,0.576816 2.3125,0.15625 v 0.03125 c 0.04693,-0.01935 0.07881,-0.04239 0.125,-0.0625 0.0231,-0.01006 0.03958,-0.02101 0.0625,-0.03125 1.1132,-0.497288 2.033505,-1.191624 2.875,-1.78125 a 0.98277543,0.98277543 0 0 0 0.34375,-1.1875 c -0.03219,-0.07894 -0.0046,-0.280916 -0.34375,-0.6875 -0.169552,-0.203292 -0.662128,-0.484366 -1.09375,-0.40625 -0.172649,0.03125 -0.202512,0.12159 -0.3125,0.1875 0.354067,-1.40624 0.746203,-2.812296 1.09375,-4.3125 0.0154,-0.06647 0.04753,-0.120762 0.0625,-0.1875 H 39.5 c 0.18977,-0.532321 0.251292,-1.0937 0.0625,-1.59375 -0.210972,-0.558799 -0.741557,-1.096502 -1.46875,-1.15625 z" />
  <path
     d="m 34,36.851312 c 0.133856,0.363882 0.284521,0.658836 0.605452,0.255527 0.397883,-0.236731 1.731043,-1.274394 1.597644,-0.257979 -0.426877,1.880812 -0.946481,3.741845 -1.343777,5.628452 -0.415429,1.033002 0.52793,1.967395 1.512865,1.295629 1.046924,-0.431584 1.947798,-1.134561 2.868143,-1.779436 -0.125575,-0.307965 -0.209273,-0.750354 -0.556249,-0.347606 -0.455597,0.20679 -1.450673,1.181728 -1.635539,0.377622 0.382698,-2.03658 1.09175,-3.99777 1.544989,-6.018111 0.417097,-0.928949 -0.264105,-2.102709 -1.283786,-1.334271 C 36.088138,35.203187 35.066557,36.07231 34,36.851312 Z m 4.533765,-6.849716 c -1.246397,-0.06614 -1.898056,1.94308 -0.713613,2.492895 0.96093,0.394088 2.00721,-0.59147 1.772459,-1.576266 -0.07285,-0.512794 -0.533242,-0.93388 -1.058846,-0.916629 z"
     id="text3482"
     style="color:#000000;font-style:normal;font-variant:normal;font-weight:bold;font-stretch:normal;font-size:40px;line-height:100%;font-family:'URW Palladio L';-inkscape-font-specification:'URW Palladio L Bold';text-align:start;writing-mode:lr-tb;text-anchor:start;clip-rule:nonzero;display:inline;overflow:visible;visibility:visible;opacity:0.15;isolation:auto;mix-blend-mode:normal;color-interpolation:sRGB;color-interpolation-filters:linearRGB;solid-color:#000000;solid-opacity:1;fill:#002e99;fill-opacity:1;fill-rule:nonzero;stroke:none;stroke-width:1;stroke-linecap:butt;stroke-linejoin:miter;stroke-miterlimit:4;stroke-dasharray:none;stroke-dashoffset:0;stroke-opacity:1;marker:none;color-rendering:auto;image-rendering:auto;shape-rendering:auto;text-rendering:auto;enable-background:accumulate" />
  <path
     d="m 34,35.851312 c 0.133856,0.363882 0.284521,0.658836 0.605452,0.255527 0.397883,-0.236731 1.731043,-1.274393 1.597644,-0.257979 -0.426877,1.880812 -0.946481,3.741845 -1.343777,5.628452 -0.415429,1.033002 0.52793,1.967395 1.512865,1.295629 1.046924,-0.431584 1.947798,-1.134561 2.868143,-1.779436 -0.125575,-0.307965 -0.209273,-0.750354 -0.556249,-0.347606 -0.455597,0.20679 -1.450673,1.181728 -1.635539,0.377622 0.382698,-2.03658 1.09175,-3.99777 1.544989,-6.018111 0.417097,-0.928948 -0.264105,-2.102709 -1.283786,-1.334271 C 36.088138,34.203188 35.066557,35.07231 34,35.851312 Z m 4.533765,-6.849716 c -1.246397,-0.06614 -1.898056,1.94308 -0.713613,2.492895 0.96093,0.394086 2.00721,-0.591469 1.772459,-1.576266 -0.07285,-0.512794 -0.533242,-0.93388 -1.058846,-0.916629 z"
     id="path3536"
     style="font-style:normal;font-variant:normal;font-weight:bold;font-stretch:normal;font-size:40px;line-height:100%;font-family:'URW Palladio L';-inkscape-font-specification:'URW Palladio L Bold';text-align:start;writing-mode:lr-tb;text-anchor:start;fill:#ffffff;fill-opacity:1;stroke:none" />
  <rect
     x="8.5"
     y="14.5"
     width="14"
     height="6"
     ry="0.18749955"
     rx="0.73683906"
     style="font-variation-settings:normal;opacity:0.3;vector-effect:none;fill:none;fill-opacity:1;stroke:url(#linearGradient3019-9);stroke-width:1;stroke-linecap:round;stroke-linejoin:round;stroke-miterlimit:4;stroke-dasharray:none;stroke-dashoffset:0;stroke-opacity:1;-inkscape-stroke:none;marker:none;stop-color:#000000"
     id="rect5391-2-0" />
</svg>
