<?xml version="1.0" encoding="UTF-8" standalone="no"?>
<svg
   xmlns:dc="http://purl.org/dc/elements/1.1/"
   xmlns:cc="http://creativecommons.org/ns#"
   xmlns:rdf="http://www.w3.org/1999/02/22-rdf-syntax-ns#"
   xmlns:svg="http://www.w3.org/2000/svg"
   xmlns="http://www.w3.org/2000/svg"
   xmlns:xlink="http://www.w3.org/1999/xlink"
   version="1.1"
   id="svg3658"
   height="48px"
   width="48px">
  <defs
     id="defs3660">
    <linearGradient
       y2="24.627615"
       x2="20.054544"
       y1="15.298182"
       x1="16.626165"
       gradientTransform="matrix(0.82498024,0,0,1.3012336,4.1618797,-1.4329212)"
       gradientUnits="userSpaceOnUse"
       id="linearGradient3568"
       xlink:href="#linearGradient8265-821-176-38-919-66-249-7-7" />
    <linearGradient
       id="linearGradient8265-821-176-38-919-66-249-7-7">
      <stop
         id="stop2687-1-9"
         style="stop-color:#ffffff;stop-opacity:1"
         offset="0" />
      <stop
         id="stop2689-5-4"
         style="stop-color:#ffffff;stop-opacity:0"
         offset="1" />
    </linearGradient>
    <linearGradient
       y2="43"
       x2="23.99999"
       y1="4.999989"
       x1="23.99999"
       gradientTransform="translate(3.7e-6,1.00001)"
       gradientUnits="userSpaceOnUse"
       id="linearGradient2959"
       xlink:href="#linearGradient3924" />
    <linearGradient
       id="linearGradient3924">
      <stop
         id="stop3926"
         style="stop-color:#ffffff;stop-opacity:1;"
         offset="0" />
      <stop
         offset="0.06316455"
         style="stop-color:#ffffff;stop-opacity:0.23529412;"
         id="stop3928" />
      <stop
         id="stop3930"
         style="stop-color:#ffffff;stop-opacity:0.15686275;"
         offset="0.95056331" />
      <stop
         id="stop3932"
         style="stop-color:#ffffff;stop-opacity:0.39215687;"
         offset="1" />
    </linearGradient>
    <radialGradient
       xlink:href="#linearGradient3242-593-605-251-305"
       id="radialGradient2874"
       gradientUnits="userSpaceOnUse"
       gradientTransform="matrix(1.9428467e-8,2.33699,-2.4722567,-4.3056275e-8,44.890104,-11.434799)"
       cx="7.4956832"
       cy="8.4497671"
       fx="7.4956832"
       fy="8.4497671"
       r="19.99999" />
    <linearGradient
       xlink:href="#linearGradient3332-412-419-652-471"
       id="linearGradient2876"
       gradientUnits="userSpaceOnUse"
       gradientTransform="translate(1.2e-6,1)"
       x1="24"
       y1="44"
       x2="24"
       y2="3.8990016" />
    <radialGradient
       r="2.5"
       fy="43.5"
       fx="4.9929786"
       cy="43.5"
       cx="4.9929786"
       gradientTransform="matrix(2.003784,0,0,1.4,27.98813,-17.4)"
       gradientUnits="userSpaceOnUse"
       id="radialGradient3013"
       xlink:href="#linearGradient3688-166-749" />
    <linearGradient
       id="linearGradient3688-166-749">
      <stop
         id="stop2883"
         style="stop-color:#181818;stop-opacity:1"
         offset="0" />
      <stop
         id="stop2885"
         style="stop-color:#181818;stop-opacity:0"
         offset="1" />
    </linearGradient>
    <radialGradient
       r="2.5"
       fy="43.5"
       fx="4.9929786"
       cy="43.5"
       cx="4.9929786"
       gradientTransform="matrix(2.003784,0,0,1.4,-20.01187,-104.4)"
       gradientUnits="userSpaceOnUse"
       id="radialGradient3015"
       xlink:href="#linearGradient3688-464-309" />
    <linearGradient
       id="linearGradient3688-464-309">
      <stop
         id="stop2889"
         style="stop-color:#181818;stop-opacity:1"
         offset="0" />
      <stop
         id="stop2891"
         style="stop-color:#181818;stop-opacity:0"
         offset="1" />
    </linearGradient>
    <linearGradient
       id="linearGradient3702-501-757">
      <stop
         id="stop2895"
         style="stop-color:#181818;stop-opacity:0"
         offset="0" />
      <stop
         id="stop2897"
         style="stop-color:#181818;stop-opacity:1"
         offset="0.5" />
      <stop
         id="stop2899"
         style="stop-color:#181818;stop-opacity:0"
         offset="1" />
    </linearGradient>
    <linearGradient
       xlink:href="#linearGradient3702-501-757"
       id="linearGradient3656"
       gradientUnits="userSpaceOnUse"
       x1="25.058096"
       y1="47.027729"
       x2="25.058096"
       y2="39.999443" />
    <linearGradient
       id="linearGradient3332-412-419-652-471">
      <stop
         offset="0"
         style="stop-color:#650d5c;stop-opacity:1"
         id="stop2759" />
      <stop
         offset="1"
         style="stop-color:#ad53a5;stop-opacity:1"
         id="stop2761" />
    </linearGradient>
    <linearGradient
       id="linearGradient3242-593-605-251-305">
      <stop
         offset="0"
         style="stop-color:#d78ec1;stop-opacity:1"
         id="stop2749" />
      <stop
         offset="0.26238"
         style="stop-color:#c564be;stop-opacity:1"
         id="stop2751" />
      <stop
         offset="0.66093999"
         style="stop-color:#9d3ea4;stop-opacity:1"
         id="stop2753" />
      <stop
         offset="1"
         style="stop-color:#5e2c73;stop-opacity:1"
         id="stop2755" />
    </linearGradient>
  </defs>
  <metadata
     id="metadata3663">
    <rdf:RDF>
      <cc:Work
         rdf:about="">
        <dc:format>image/svg+xml</dc:format>
        <dc:type
           rdf:resource="http://purl.org/dc/dcmitype/StillImage" />
        <dc:title />
      </cc:Work>
    </rdf:RDF>
  </metadata>
  <g
     id="layer1">
    <g
       transform="matrix(1.1578952,0,0,0.57142859,-3.789484,19.142856)"
       id="g3712"
       style="opacity:0.4">
      <rect
         width="5"
         height="7"
         x="38"
         y="40"
         id="rect2801"
         style="fill:url(#radialGradient3013);fill-opacity:1;stroke:none" />
      <rect
         width="5"
         height="7"
         x="-10"
         y="-47"
         transform="scale(-1,-1)"
         id="rect3696"
         style="fill:url(#radialGradient3015);fill-opacity:1;stroke:none" />
      <rect
         width="28"
         height="7.0000005"
         x="10"
         y="40"
         id="rect3700"
         style="fill:url(#linearGradient3656);fill-opacity:1;stroke:none" />
    </g>
    <rect
       width="39"
       height="39"
       rx="2"
       ry="2"
       x="4.5"
       y="5.5"
       id="rect5505-21"
       style="color:#000000;fill:url(#radialGradient2874);fill-opacity:1.0;fill-rule:nonzero;stroke:url(#linearGradient2876);stroke-width:1;stroke-linecap:round;stroke-linejoin:round;stroke-miterlimit:4;stroke-opacity:1;stroke-dasharray:none;stroke-dashoffset:0;marker:none;visibility:visible;display:inline;overflow:visible;enable-background:accumulate" />
    <rect
       width="37"
       height="37"
       rx="1"
       ry="1"
       x="5.5"
       y="6.5"
       id="rect6741"
       style="opacity:0.5;fill:none;stroke:url(#linearGradient2959);stroke-width:1;stroke-linecap:round;stroke-linejoin:round;stroke-miterlimit:4;stroke-opacity:1;stroke-dasharray:none;stroke-dashoffset:0" />
    <path
       id="path3872"
       style="opacity:0.2;fill:#ffffff;fill-opacity:1;stroke:#000000;stroke-width:0.99999994px;stroke-linecap:butt;stroke-linejoin:miter;stroke-opacity:1"
       d="M 6.4999999,7.5 29.812499,7.5 41.5,19 l 0,23.5 -34.9999999,0 z" />
    <path
       id="path3102"
       d="M 7,8 29.599999,8 41,19 41,42 7,42 z"
       style="fill:#ffffff;fill-opacity:1;stroke:none" />
    <g
       transform="matrix(1.049997,0,0,1,-0.64996086,-4.8000634e-7)"
       id="g4739">
      <path
         style="opacity:0.86046543;fill:#ffffff;fill-opacity:1;fill-rule:nonzero;stroke:none"
         id="path4255"
         d="M 36,18.5 C 36,22.089851 30.627417,25 24,25 17.372583,25 12,22.089851 12,18.5 12,14.910149 17.372583,12 24,12 c 6.627417,0 12,2.910149 12,6.5 z"
         transform="matrix(0.875,0,0,0.96296108,2.0000001,7.462921)" />
      <path
         style="fill:#951fa6;fill-opacity:0.33519556;stroke:none"
         d="m 14,22.999968 0,2.999968 c 0,0 3,3 9,3 6,0 9,-3 9,-3 l 0,-2.999968 c 0,0 -4,3 -9,3 -5,0 -9,-3 -9,-3 z"
         id="path3988" />
      <path
         style="fill:none;stroke:#813384;stroke-width:1.95180285;stroke-linecap:butt;stroke-linejoin:miter;stroke-miterlimit:4;stroke-opacity:1;stroke-dasharray:none"
         d="m 13,19.999935 c 0,0.649456 0,4.405036 0,5.000033 0,2 4.986707,4.009355 10,4 4.986635,-0.0093 10,-2 10,-4 0,-0.704335 0,-4.375803 0,-5.000033"
         id="path4358" />
      <path
         style="fill:#951fa6;fill-opacity:0.5977654;fill-rule:nonzero;stroke:#813384;stroke-width:2.4378016;stroke-miterlimit:4;stroke-opacity:1;stroke-dasharray:none"
         id="path4247"
         d="M 36,18.5 C 36,22.089851 30.627417,25 24,25 17.372583,25 12,22.089851 12,18.5 12,14.910149 17.372583,12 24,12 c 6.627417,0 12,2.910149 12,6.5 z"
         transform="matrix(0.83333333,0,0,-0.76923076,3.0000001,34.230737)" />
      <path
         id="path3990"
         d="m 14,27.199968 0,2.8 c 0,0 3,2.2 9,2.2 6,0 9,-2.2 9,-2.2 l 0,-2.8 c 0,0 -4,2.8 -9,2.8 -5,0 -9,-2.8 -9,-2.8 z"
         style="fill:#951fa6;fill-opacity:0.27374303;stroke:none" />
      <path
         d="m 13,23.999935 c 0,0.649456 0,4.405036 0,5.000033 0,2 4.986707,4.009355 10,4 4.986635,-0.0093 10,-2 10,-4 0,-0.704335 0,-4.375803 0,-5.000033"
         style="fill:none;stroke:#813384;stroke-width:1.95180285;stroke-linecap:butt;stroke-linejoin:miter;stroke-miterlimit:4;stroke-opacity:1;stroke-dasharray:none"
         id="path3992" />
      <path
         id="path3994"
         style="fill:none;stroke:#813384;stroke-width:1.95180285;stroke-linecap:butt;stroke-linejoin:miter;stroke-miterlimit:4;stroke-opacity:1;stroke-dasharray:none"
         d="m 13,27.999935 c 0,0.649456 0,4.405036 0,5.000033 0,2 4.986707,4.009355 10,4 4.986635,-0.0093 10,-2 10,-4 0,-0.704335 0,-4.375803 0,-5.000033" />
      <path
         style="fill:#951fa6;fill-opacity:0.27374303;stroke:none"
         d="m 14,31.199968 0,2.8 c 0,0 3,2.2 9,2.2 6,0 9,-2.2 9,-2.2 l 0,-2.8 c 0,0 -4,2.8 -9,2.8 -5,0 -9,-2.8 -9,-2.8 z"
         id="path3996" />
    </g>
    <path
       d="M 6.2169167,6 C 5.5377266,6 5,6.9124652 5,7.8 L 5.0126445,30 C 6.1058123,29.975834 42.170261,21.153092 43,20.728709 L 43,7.8 C 43,7.1215957 42.468817,6 41.88071,6 L 6.2169214,6 z"
       id="path3333"
       style="opacity:0.2;fill:url(#linearGradient3568);fill-opacity:1;fill-rule:evenodd;stroke:none" />
  </g>
</svg>
