<?xml version="1.0" encoding="UTF-8" standalone="no"?>
<svg
   xmlns:dc="http://purl.org/dc/elements/1.1/"
   xmlns:cc="http://creativecommons.org/ns#"
   xmlns:rdf="http://www.w3.org/1999/02/22-rdf-syntax-ns#"
   xmlns:svg="http://www.w3.org/2000/svg"
   xmlns="http://www.w3.org/2000/svg"
   xmlns:xlink="http://www.w3.org/1999/xlink"
   style="display:inline;enable-background:new"
   id="svg11300"
   height="48"
   width="48"
   version="1.0">
  <metadata
     id="metadata94531">
    <rdf:RDF>
      <cc:Work
         rdf:about="">
        <dc:format>image/svg+xml</dc:format>
        <dc:type
           rdf:resource="http://purl.org/dc/dcmitype/StillImage" />
      </cc:Work>
    </rdf:RDF>
  </metadata>
  <defs
     id="defs3">
    <linearGradient
       id="linearGradient11114-516">
      <stop
         offset="0"
         style="stop-color:#242424;stop-opacity:0.99215686"
         id="stop3372" />
      <stop
         offset="1"
         style="stop-color:#656565;stop-opacity:1"
         id="stop3374" />
    </linearGradient>
    <linearGradient
       id="linearGradient3277-442">
      <stop
         offset="0"
         style="stop-color:#575757;stop-opacity:1"
         id="stop3378" />
      <stop
         offset="1"
         style="stop-color:#333;stop-opacity:1"
         id="stop3380" />
    </linearGradient>
    <linearGradient
       id="linearGradient12093-170">
      <stop
         offset="0"
         style="stop-color:white;stop-opacity:1"
         id="stop3384" />
      <stop
         offset="1"
         style="stop-color:white;stop-opacity:0"
         id="stop3386" />
    </linearGradient>
    <linearGradient
       id="linearGradient4454-600">
      <stop
         offset="0"
         style="stop-color:#a1a1a1;stop-opacity:0.20784314"
         id="stop3408" />
      <stop
         offset="1"
         style="stop-color:#a1a1a1;stop-opacity:0.67843139"
         id="stop3410" />
    </linearGradient>
    <linearGradient
       id="linearGradient4467-402">
      <stop
         offset="0"
         style="stop-color:white;stop-opacity:1"
         id="stop3390" />
      <stop
         offset="1"
         style="stop-color:white;stop-opacity:0.24761905"
         id="stop3392" />
    </linearGradient>
    <linearGradient
       id="linearGradient2300-465">
      <stop
         offset="0"
         style="stop-color:#343434;stop-opacity:0.97647059"
         id="stop3396" />
      <stop
         offset="1"
         style="stop-color:#929292;stop-opacity:1"
         id="stop3398" />
    </linearGradient>
    <linearGradient
       id="linearGradient11104-770">
      <stop
         offset="0"
         style="stop-color:#333;stop-opacity:1"
         id="stop3402" />
      <stop
         offset="1"
         style="stop-color:#333;stop-opacity:0.6122449"
         id="stop3404" />
    </linearGradient>
    <linearGradient
       id="linearGradient6209-717">
      <stop
         offset="0"
         style="stop-color:#979797;stop-opacity:1"
         id="stop3366" />
      <stop
         offset="1"
         style="stop-color:black;stop-opacity:0.34117648"
         id="stop3368" />
    </linearGradient>
    <linearGradient
       id="linearGradient3600">
      <stop
         offset="0"
         style="stop-color:#f4f4f4;stop-opacity:1"
         id="stop3602" />
      <stop
         offset="1"
         style="stop-color:#dbdbdb;stop-opacity:1"
         id="stop3604" />
    </linearGradient>
    <linearGradient
       id="linearGradient3931">
      <stop
         offset="0"
         style="stop-color:#8d8f8a;stop-opacity:1"
         id="stop3933" />
      <stop
         offset="1"
         style="stop-color:#cbcbcb;stop-opacity:1"
         id="stop3935" />
    </linearGradient>
    <linearGradient
       id="linearGradient5048">
      <stop
         offset="0"
         style="stop-color:black;stop-opacity:0"
         id="stop5050" />
      <stop
         offset="0.5"
         style="stop-color:black;stop-opacity:1"
         id="stop5056" />
      <stop
         offset="1"
         style="stop-color:black;stop-opacity:0"
         id="stop5052" />
    </linearGradient>
    <linearGradient
       id="linearGradient5060">
      <stop
         offset="0"
         style="stop-color:black;stop-opacity:1"
         id="stop5062" />
      <stop
         offset="1"
         style="stop-color:black;stop-opacity:0"
         id="stop5064" />
    </linearGradient>
    <linearGradient
       gradientTransform="matrix(0.0704142,0,0,0.01537476,-1.4497047,38.629007)"
       gradientUnits="userSpaceOnUse"
       xlink:href="#linearGradient5048"
       id="linearGradient5239"
       y2="609.50507"
       x2="302.85715"
       y1="366.64789"
       x1="302.85715" />
    <radialGradient
       gradientTransform="matrix(-0.02409717,0,0,0.01537476,21.522412,38.629039)"
       gradientUnits="userSpaceOnUse"
       xlink:href="#linearGradient5060"
       id="radialGradient5241"
       fy="486.64789"
       fx="605.71429"
       r="117.14286"
       cy="486.64789"
       cx="605.71429" />
    <radialGradient
       gradientTransform="matrix(0.02409717,0,0,0.01537476,26.477584,38.629039)"
       gradientUnits="userSpaceOnUse"
       xlink:href="#linearGradient5060"
       id="radialGradient5243"
       fy="486.64789"
       fx="605.71429"
       r="117.14286"
       cy="486.64789"
       cx="605.71429" />
    <linearGradient
       gradientTransform="matrix(0.3936567,0,0,0.38976,148.37527,-5.4329178)"
       gradientUnits="userSpaceOnUse"
       xlink:href="#linearGradient11114-516"
       id="linearGradient5257"
       y2="91.972626"
       x2="-164.71831"
       y1="99.667191"
       x1="-172.65306" />
    <linearGradient
       gradientTransform="matrix(1.0113456,0,0,1.0013346,46.849579,0.6207219)"
       gradientUnits="userSpaceOnUse"
       xlink:href="#linearGradient3277-442"
       id="linearGradient5259"
       y2="29.484051"
       x2="31.364458"
       y1="27.988184"
       x1="32.892574" />
    <linearGradient
       gradientTransform="matrix(0.3936567,0,0,0.38976,-3.211595,-1.6662606)"
       gradientUnits="userSpaceOnUse"
       xlink:href="#linearGradient12093-170"
       id="linearGradient5261"
       y2="67.350082"
       x2="201.87128"
       y1="146.1507"
       x1="277.573" />
    <radialGradient
       gradientUnits="userSpaceOnUse"
       xlink:href="#linearGradient4454-600"
       id="radialGradient5263"
       fy="21.817987"
       fx="18.240929"
       r="8.3085051"
       cy="21.817987"
       cx="18.240929" />
    <radialGradient
       gradientTransform="matrix(3.0710057,0,0,2.3628614,13.986567,-22.539066)"
       gradientUnits="userSpaceOnUse"
       xlink:href="#linearGradient4467-402"
       id="radialGradient5265"
       fy="13.078408"
       fx="15.414371"
       r="6.65625"
       cy="13.078408"
       cx="15.414371" />
    <linearGradient
       gradientTransform="matrix(0.4037708,0,0,0.399774,-4.836512,-1.5263508)"
       gradientUnits="userSpaceOnUse"
       xlink:href="#linearGradient2300-465"
       id="linearGradient5267"
       y2="11.949074"
       x2="173.09576"
       y1="75.31868"
       x1="173.09576" />
    <linearGradient
       gradientTransform="matrix(0.4037708,0,0,0.399774,47.537071,1.4823095)"
       gradientUnits="userSpaceOnUse"
       xlink:href="#linearGradient11104-770"
       id="linearGradient5269"
       y2="4.5362983"
       x2="41.485142"
       y1="68.291702"
       x1="41.541653" />
    <linearGradient
       gradientTransform="matrix(0.3845313,0,0,0.3807249,-1.399825,-0.9351299)"
       gradientUnits="userSpaceOnUse"
       xlink:href="#linearGradient6209-717"
       id="linearGradient5271"
       y2="11.949074"
       x2="173.09576"
       y1="75.31868"
       x1="173.09576" />
    <linearGradient
       gradientTransform="matrix(1.005094,0,0,1,-1.1273366,0.99999938)"
       gradientUnits="userSpaceOnUse"
       xlink:href="#linearGradient12093-170"
       id="linearGradient5283"
       y2="40.500179"
       x2="13.682637"
       y1="38"
       x1="13.682637" />
    <linearGradient
       gradientTransform="translate(-0.9999996,0.99999938)"
       gradientUnits="userSpaceOnUse"
       xlink:href="#linearGradient3600"
       id="linearGradient5286"
       y2="41.436737"
       x2="16.550699"
       y1="37"
       x1="16.550699" />
    <linearGradient
       gradientUnits="userSpaceOnUse"
       xlink:href="#linearGradient3931"
       id="linearGradient5288"
       y2="38"
       x2="18.986097"
       y1="45"
       x1="19.291185" />
    <linearGradient
       gradientTransform="translate(-0.9999996,0.99999938)"
       gradientUnits="userSpaceOnUse"
       xlink:href="#linearGradient12093-170"
       id="linearGradient5291"
       y2="34.33094"
       x2="21"
       y1="5"
       x1="20.625" />
    <linearGradient
       gradientTransform="translate(-0.9999996,0.99999938)"
       gradientUnits="userSpaceOnUse"
       xlink:href="#linearGradient3600"
       id="linearGradient5295"
       y2="44"
       x2="17.411612"
       y1="3.9999998"
       x1="17.5" />
    <linearGradient
       gradientUnits="userSpaceOnUse"
       xlink:href="#linearGradient3931"
       id="linearGradient5297"
       y2="2.2841947"
       x2="24"
       y1="45"
       x1="23.05895" />
  </defs>
  <g
     style="display:inline"
     id="g2877"
     transform="matrix(1.05,0,0,1.6069115,-1.2,-30.131754)">
    <rect
       style="opacity:0.40206185;fill:url(#linearGradient5239);fill-opacity:1;fill-rule:nonzero;stroke:none;stroke-width:1;marker:none;visibility:visible;display:inline;overflow:visible"
       id="rect2879"
       y="44.266129"
       x="7"
       height="3.7338707"
       width="34" />
    <path
       style="opacity:0.40206185;fill:url(#radialGradient5241);fill-opacity:1;fill-rule:nonzero;stroke:none;stroke-width:1;marker:none;visibility:visible;display:inline;overflow:visible"
       id="path2881"
       d="m 7,44.266291 c 0,0 0,3.733665 0,3.733665 -1.2409448,0.007 -3,-0.836525 -3,-1.867073 0,-1.030547 1.3848007,-1.866591 3,-1.866592 z" />
    <path
       style="opacity:0.40206185;fill:url(#radialGradient5243);fill-opacity:1;fill-rule:nonzero;stroke:none;stroke-width:1;marker:none;visibility:visible;display:inline;overflow:visible"
       id="path2883"
       d="m 41,44.266291 c 0,0 0,3.733665 0,3.733665 1.240944,0.007 3,-0.836525 3,-1.867073 0,-1.030547 -1.384801,-1.866591 -3,-1.866592 z" />
  </g>
  <path
     style="fill:url(#linearGradient5295);fill-opacity:1;stroke:url(#linearGradient5297);stroke-width:1.00000048;stroke-linecap:round;stroke-linejoin:round;stroke-miterlimit:4;stroke-opacity:1;stroke-dashoffset:0"
     id="rect1869"
     d="m 8.0000004,5.4999994 c -0.835363,0 -1.5,3.5730562 -1.5,8.0000006 l 0,31 35.0000006,0 0,-31 c 0,-4.4269434 -0.664636,-8.0000006 -1.5,-8.0000006 l -1.6875,0 0.4375,1 -2,0 -0.4375,-1 -24.65625,0 -0.4375,1 -2.0000003,0 0.4375,-1 -1.6562503,0 z m 0.7500003,3 2.0000003,0 -0.1875,2.0000006 -2.0000003,0 0.1875,-2.0000006 z m 28.4375003,0 2,0 0.21875,2.0000006 -2,0 -0.21875,-2.0000006 z M 8.5000007,12.5 l 2.0000003,0 0,2 -2.0000003,0 0,-2 z m 29.0000003,0 2,0 0,2 -2,0 0,-2 z m -29.0000003,4 2.0000003,0 0,2 -2.0000003,0 0,-2 z m 29.0000003,0 2,0 0,2 -2,0 0,-2 z m -29.0000003,4 2.0000003,0 0,2 -2.0000003,0 0,-2 z m 29.0000003,0 2,0 0,2 -2,0 0,-2 z m -29.0000003,4 2.0000003,0 0,2 -2.0000003,0 0,-2 z m 29.0000003,0 2,0 0,2 -2,0 0,-2 z m -29.0000003,4 2.0000003,0 0,2 -2.0000003,0 0,-2 z m 29.0000003,0 2,0 0,2 -2,0 0,-2 z m -29.0000003,4 2.0000003,0 0,2 -2.0000003,0 0,-2 z m 29.0000003,0 2,0 0,2 -2,0 0,-2 z m -29.0000003,4 2.0000003,0 0,2 -2.0000003,0 0,-2 z m 29.0000003,0 2,0 0,2 -2,0 0,-2 z" />
  <path
     style="opacity:0.02999998;fill:black;fill-opacity:1;stroke:none"
     id="rect2981"
     d="m 8.0625004,5.9999994 c -0.040437,0.043827 -0.111437,0.1727639 -0.1875,0.34375 -0.076063,0.170986 -0.14477,0.3881297 -0.21875,0.65625 l 1.5625003,0 c -0.167172,0.00173 -0.312071,-0.08062 -0.40625,-0.21875 -0.09418,-0.1381297 -0.125179,-0.3137632 -0.0625,-0.46875 l 0.125,-0.3125 -0.8125003,0 z m 3.9375006,0 -0.3125,0.6875 c -0.07712,0.1906475 -0.263105,0.3146357 -0.46875,0.3125 l 25.53125,0 c -0.205645,0.00214 -0.391627,-0.1218525 -0.46875,-0.3125 l -0.3125,-0.6875 -23.96875,0 z m 27.09375,0 0.125,0.3125 c 0.06268,0.1549868 0.03168,0.3306204 -0.0625,0.46875 -0.09418,0.1381296 -0.239078,0.2204799 -0.40625,0.21875 l 1.59375,0 c -0.07398,-0.2681203 -0.142688,-0.485264 -0.21875,-0.65625 -0.07606,-0.1709861 -0.147063,-0.2999229 -0.1875,-0.34375 l -0.84375,0 z M 7.2500004,8.9999996 C 7.1705284,9.6013586 7.1402864,10.285213 7.0937504,11 l 1.4687503,0 c -0.1382003,2.55e-4 -0.2802833,-0.05561 -0.3750003,-0.15625 -0.094717,-0.100638 -0.133623,-0.237069 -0.125,-0.375 l 0.125,-1.4687504 -0.9375,0 z m 3.9687506,0 -0.15625,1.5312504 c -0.01655,0.263857 -0.235625,0.469242 -0.5,0.46875 l 26.84375,0 c -0.25346,0.002 -0.468302,-0.186022 -0.5,-0.4375 l -0.15625,-1.5625004 -25.53125,0 z m 28.53125,0 0.15625,1.4375004 c 0.01801,0.143052 -0.02921,0.298487 -0.125,0.40625 -0.09579,0.107763 -0.230822,0.157365 -0.375,0.15625 l 1.5,0 c -0.04654,-0.714787 -0.07678,-1.3986414 -0.15625,-2.0000004 l -1,0 z M 7.0000004,13 c -0.00211,0.168756 0,0.328423 0,0.5 l 0,1.5 1.5000003,0 C 8.2238694,14.999972 8.0000284,14.776131 8.0000004,14.5 l 0,-1.5 -1,0 z m 4.0000006,0 0,1.5 c -2.8e-5,0.276131 -0.223869,0.499972 -0.5,0.5 l 27,0 c -0.276131,-2.8e-5 -0.499972,-0.223869 -0.5,-0.5 l 0,-1.5 -26,0 z m 29,0 0,1.5 c -2.8e-5,0.276131 -0.223869,0.499972 -0.5,0.5 l 1.5,0 0,-1.5 c 0,-0.171577 0.0021,-0.331244 0,-0.5 l -1,0 z m -33.0000006,4 0,2 1.5000003,0 C 8.2238694,18.999972 8.0000284,18.776131 8.0000004,18.5 l 0,-1.5 -1,0 z m 4.0000006,0 0,1.5 c -2.8e-5,0.276131 -0.223869,0.499972 -0.5,0.5 l 27,0 c -0.276131,-2.8e-5 -0.499972,-0.223869 -0.5,-0.5 l 0,-1.5 -26,0 z m 29,0 0,1.5 c -2.8e-5,0.276131 -0.223869,0.499972 -0.5,0.5 l 1.5,0 0,-2 -1,0 z m -33.0000006,4 0,2 1.5000003,0 C 8.2238694,22.999972 8.0000284,22.776131 8.0000004,22.5 l 0,-1.5 -1,0 z m 4.0000006,0 0,1.5 c -2.8e-5,0.276131 -0.223869,0.499972 -0.5,0.5 l 27,0 c -0.276131,-2.8e-5 -0.499972,-0.223869 -0.5,-0.5 l 0,-1.5 -26,0 z m 29,0 0,1.5 c -2.8e-5,0.276131 -0.223869,0.499972 -0.5,0.5 l 1.5,0 0,-2 -1,0 z m -33.0000006,4 0,2 1.5000003,0 C 8.2238694,26.999972 8.0000284,26.776131 8.0000004,26.5 l 0,-1.5 -1,0 z m 4.0000006,0 0,1.5 c -2.8e-5,0.276131 -0.223869,0.499972 -0.5,0.5 l 27,0 c -0.276131,-2.8e-5 -0.499972,-0.223869 -0.5,-0.5 l 0,-1.5 -26,0 z m 29,0 0,1.5 c -2.8e-5,0.276131 -0.223869,0.499972 -0.5,0.5 l 1.5,0 0,-2 -1,0 z m -33.0000006,4 0,2 1.5000003,0 C 8.2238694,30.999972 8.0000284,30.776131 8.0000004,30.5 l 0,-1.5 -1,0 z m 4.0000006,0 0,1.5 c -2.8e-5,0.276131 -0.223869,0.499972 -0.5,0.5 l 27,0 c -0.276131,-2.8e-5 -0.499972,-0.223869 -0.5,-0.5 l 0,-1.5 -26,0 z m 29,0 0,1.5 c -2.8e-5,0.276131 -0.223869,0.499972 -0.5,0.5 l 1.5,0 0,-2 -1,0 z m -33.0000006,4 0,2 1.5000003,0 C 8.2238694,34.999972 8.0000284,34.776131 8.0000004,34.5 l 0,-1.5 -1,0 z m 4.0000006,0 0,1.5 c -2.8e-5,0.276131 -0.223869,0.499972 -0.5,0.5 l 27,0 c -0.276131,-2.8e-5 -0.499972,-0.223869 -0.5,-0.5 l 0,-1.5 -26,0 z m 29,0 0,1.5 c -2.8e-5,0.276131 -0.223869,0.499972 -0.5,0.5 l 1.5,0 0,-2 -1,0 z m -33.0000006,4 0,2 1.5000003,0 C 8.2238694,38.999972 8.0000284,38.776131 8.0000004,38.5 l 0,-1.5 -1,0 z m 4.0000006,0 0,1.5 c -2.8e-5,0.276131 -0.223869,0.499972 -0.5,0.5 l 27,0 c -0.276131,-2.8e-5 -0.499972,-0.223869 -0.5,-0.5 l 0,-1.5 -26,0 z m 29,0 0,1.5 c -2.8e-5,0.276131 -0.223869,0.499972 -0.5,0.5 l 1.5,0 0,-2 -1,0 z" />
  <path
     style="opacity:0.5;fill:none;stroke:url(#linearGradient5291);stroke-width:1;stroke-linecap:round;stroke-linejoin:round;stroke-miterlimit:4;stroke-opacity:1;stroke-dasharray:none;stroke-dashoffset:0"
     id="path3026"
     d="m 12.312501,6.4999994 c -0.169402,0.735888 -0.874203,1.1502235 -1.603652,1 -0.8305829,-0.081708 -2.1086597,0.3354544 -2.4588486,-0.71875 -1.0794859,3.6983796 -0.6638732,7.6033906 -0.75,11.4098486 0,8.436301 0,16.872601 0,25.308902 11.0000006,0 22.0000006,0 33.0000006,0 -0.0175,-10.525421 0.03568,-21.051668 -0.02782,-31.576553 -0.09494,-1.548816 -0.169492,-4.2184851 -0.810264,-5.0445195 -0.459515,0.9801784 -1.698083,0.5125604 -2.543602,0.6210719 -0.69438,0.1406267 -1.296281,-0.341209 -1.462064,-1 -7.78125,0 -15.5625,0 -23.34375,0 z" />
  <path
     style="fill:url(#linearGradient5286);fill-opacity:1;stroke:url(#linearGradient5288);stroke-width:1.00000083;stroke-linecap:round;stroke-linejoin:round;stroke-miterlimit:4;stroke-opacity:1;stroke-dashoffset:0"
     id="rect1871"
     d="m 4.5000004,38.5 c 0,3.324012 0.5,6.000001 2,6 l 35.0000006,0 c 1.5,0 2,-2.675986 2,-6 l -39.0000006,0 z m 2,2 2.0000003,0 c -0.02747,1.03082 0.08505,1.600183 0.25,2 l -2.0000003,0 c -0.1813189,-0.372712 -0.2143654,-0.98711 -0.25,-2 z m 33.0000006,0 2,0 c -0.03563,1.01289 -0.06868,1.627287 -0.25,2 l -2,0 c 0.164952,-0.399817 0.277474,-0.969181 0.25,-2 z" />
  <path
     style="opacity:0.5;fill:none;stroke:url(#linearGradient5283);stroke-width:1.00000036;stroke-linecap:round;stroke-linejoin:miter;stroke-miterlimit:4;stroke-opacity:1;stroke-dasharray:none;stroke-dashoffset:0"
     id="path3030"
     d="m 5.5000019,39.5 c 0.1262556,1.336207 -0.038535,2.869749 0.8311549,3.98941 11.7512662,0.02471 23.5055682,0.0035 35.2580022,0.01059 0.883248,-0.804202 0.752444,-2.247128 0.880132,-3.367067 0.36591,-0.938616 -0.652793,-0.559874 -1.195749,-0.632933 -11.924514,0 -23.849027,0 -35.7735401,0 z" />
  <g
     style="display:inline;enable-background:new"
     id="g5931"
     transform="matrix(0.7441316,0,0,0.7441316,-24.648622,5.1049332)">
    <path
       style="fill:url(#linearGradient5257);fill-opacity:1;fill-rule:evenodd;stroke:url(#linearGradient5259);stroke-width:1.25790954;stroke-linecap:round;stroke-linejoin:round;stroke-miterlimit:4;stroke-opacity:1;stroke-dasharray:none;display:inline"
       id="path11112"
       d="M 75.181079,23.578196 92.78254,39.797596 90.342732,43.07598 72.805018,25.530927 75.181079,23.578196 z" />
    <path
       style="fill:url(#linearGradient5261);fill-opacity:1;fill-rule:evenodd;stroke:none;display:inline"
       id="path11122"
       d="M 90.372398,42.011331 76.256378,24.584105 93.335023,39.42313 90.372398,42.011331 z" />
    <path
       style="fill:#3e3e3e;fill-opacity:1;stroke:none;display:inline"
       id="path13082"
       transform="matrix(0.3701926,-0.4150383,0.4745098,0.3092893,-50.505453,108.38199)"
       d="m 247.90924,110.29199 a 4.86685,2.6562012 0 1 1 -9.7337,0 4.86685,2.6562012 0 1 1 9.7337,0 z" />
    <path
       style="fill:url(#radialGradient5263);fill-opacity:1;fill-rule:evenodd;stroke:none;stroke-width:0.88163906;marker:none;visibility:visible;display:inline"
       id="path4340"
       transform="matrix(1.4889549,0,0,1.4383688,39.490682,-11.196808)"
       d="m 25.897786,18.478292 a 8.3085051,8.3085051 0 1 1 -16.61701,0 8.3085051,8.3085051 0 1 1 16.61701,0 z" />
    <path
       style="opacity:0.83422457;fill:url(#radialGradient5265);fill-opacity:1;fill-rule:evenodd;stroke:none;stroke-width:1;marker:none;visibility:visible;display:inline;overflow:visible"
       id="path4342"
       d="m 65.170725,5.0939033 c -6.167668,0 -11.162072,4.4243448 -11.162072,9.8880427 0,1.577938 0.138292,3.207765 0.880721,4.531967 1.483271,0.484315 3.418429,0.635856 5.090758,0.635856 7.308643,0 13.594949,-5.367693 14.045982,-11.7419734 C 71.976026,6.2616657 68.590521,5.0939033 65.170725,5.0939033 z" />
    <path
       style="fill:url(#linearGradient5267);fill-opacity:1;stroke:url(#linearGradient5269);stroke-width:1.29022872;stroke-linecap:round;stroke-linejoin:round;stroke-miterlimit:4;stroke-opacity:1;stroke-dasharray:none;display:inline"
       id="path2298"
       d="m 65.408367,3.447878 c -7.597567,0 -13.766065,5.6316951 -13.766061,12.567895 0,6.9362 6.168494,12.567893 13.766061,12.567894 7.59756,0 13.766059,-5.631694 13.766059,-12.567894 0,-6.9361999 -6.168495,-12.567895 -13.766059,-12.567895 z m 0.16403,0.824534 c 6.799869,0 12.327628,5.0356991 12.327628,11.243643 0,6.207944 -5.527759,11.243643 -12.327628,11.243643 -6.799871,1e-6 -12.315008,-5.035698 -12.315008,-11.243643 0,-6.2079439 5.515137,-11.243643 12.315008,-11.243643 z" />
    <path
       style="fill:url(#linearGradient5271);fill-opacity:1;stroke:none;display:inline"
       id="path4267"
       d="m 65.496691,3.8101732 c -7.235544,0 -13.097315,5.3625389 -13.097315,11.9682338 0,6.605694 5.861767,11.968234 13.097315,11.968233 7.235544,0 13.109932,-5.36254 13.109932,-11.968233 0,-6.6056949 -5.874392,-11.9682338 -13.109932,-11.9682338 z m 0.07571,0.4622387 c 6.799867,0 11.788366,5.0356992 11.788366,11.2436431 0,6.207944 -4.988499,10.70972 -11.788366,10.70972 -6.799872,1e-6 -11.865624,-4.501775 -11.865624,-10.70972 0,-6.2079439 5.065752,-11.2436431 11.865624,-11.2436431 z" />
  </g>
</svg>
