<?xml version="1.0" encoding="UTF-8" standalone="no"?>
<svg
   xmlns:dc="http://purl.org/dc/elements/1.1/"
   xmlns:cc="http://creativecommons.org/ns#"
   xmlns:rdf="http://www.w3.org/1999/02/22-rdf-syntax-ns#"
   xmlns:svg="http://www.w3.org/2000/svg"
   xmlns="http://www.w3.org/2000/svg"
   xmlns:xlink="http://www.w3.org/1999/xlink"
   id="svg3247"
   height="48"
   width="48"
   version="1.0">
  <metadata
     id="metadata95874">
    <rdf:RDF>
      <cc:Work
         rdf:about="">
        <dc:format>image/svg+xml</dc:format>
        <dc:type
           rdf:resource="http://purl.org/dc/dcmitype/StillImage" />
        <dc:title />
      </cc:Work>
    </rdf:RDF>
  </metadata>
  <defs
     id="defs3249">
    <linearGradient
       id="linearGradient3155-40">
      <stop
         offset="0"
         style="stop-color:#181818;stop-opacity:1"
         id="stop2541" />
      <stop
         offset="0.13482948"
         style="stop-color:#dbdbdb;stop-opacity:1"
         id="stop2543" />
      <stop
         offset="0.20224422"
         style="stop-color:#a4a4a4;stop-opacity:1"
         id="stop2545" />
      <stop
         offset="0.26965895"
         style="stop-color:#ffffff;stop-opacity:1"
         id="stop2547" />
      <stop
         offset="0.44650277"
         style="stop-color:#8d8d8d;stop-opacity:1"
         id="stop2549" />
      <stop
         offset="0.57114136"
         style="stop-color:#959595;stop-opacity:1"
         id="stop2551" />
      <stop
         offset="0.72038066"
         style="stop-color:#cecece;stop-opacity:1"
         id="stop2553" />
      <stop
         offset="1"
         style="stop-color:#181818;stop-opacity:1"
         id="stop2555" />
    </linearGradient>
    <linearGradient
       id="linearGradient3240-279">
      <stop
         offset="0"
         style="stop-color:#565656;stop-opacity:1"
         id="stop2559" />
      <stop
         offset="0.5"
         style="stop-color:#9a9a9a;stop-opacity:1"
         id="stop2561" />
      <stop
         offset="1"
         style="stop-color:#545454;stop-opacity:1"
         id="stop2563" />
    </linearGradient>
    <linearGradient
       id="linearGradient3223-789">
      <stop
         offset="0"
         style="stop-color:#b1b1b1;stop-opacity:1"
         id="stop2567" />
      <stop
         offset="0.5"
         style="stop-color:#ffffff;stop-opacity:1"
         id="stop2569" />
      <stop
         offset="1"
         style="stop-color:#8f8f8f;stop-opacity:1"
         id="stop2571" />
    </linearGradient>
    <linearGradient
       id="linearGradient3240-686">
      <stop
         offset="0"
         style="stop-color:#565656;stop-opacity:1"
         id="stop2575" />
      <stop
         offset="0.5"
         style="stop-color:#9a9a9a;stop-opacity:1"
         id="stop2577" />
      <stop
         offset="1"
         style="stop-color:#545454;stop-opacity:1"
         id="stop2579" />
    </linearGradient>
    <linearGradient
       id="linearGradient3223-768">
      <stop
         offset="0"
         style="stop-color:#b1b1b1;stop-opacity:1"
         id="stop2583" />
      <stop
         offset="0.5"
         style="stop-color:#ffffff;stop-opacity:1"
         id="stop2585" />
      <stop
         offset="1"
         style="stop-color:#8f8f8f;stop-opacity:1"
         id="stop2587" />
    </linearGradient>
    <linearGradient
       id="linearGradient3240-907">
      <stop
         offset="0"
         style="stop-color:#565656;stop-opacity:1"
         id="stop2591" />
      <stop
         offset="0.5"
         style="stop-color:#9a9a9a;stop-opacity:1"
         id="stop2593" />
      <stop
         offset="1"
         style="stop-color:#545454;stop-opacity:1"
         id="stop2595" />
    </linearGradient>
    <linearGradient
       id="linearGradient3223-699">
      <stop
         offset="0"
         style="stop-color:#b1b1b1;stop-opacity:1"
         id="stop2599" />
      <stop
         offset="0.5"
         style="stop-color:#ffffff;stop-opacity:1"
         id="stop2601" />
      <stop
         offset="1"
         style="stop-color:#8f8f8f;stop-opacity:1"
         id="stop2603" />
    </linearGradient>
    <linearGradient
       id="linearGradient3191-577">
      <stop
         offset="0"
         style="stop-color:#dbce48;stop-opacity:1"
         id="stop2613" />
      <stop
         offset="1"
         style="stop-color:#c5b625;stop-opacity:1"
         id="stop2615" />
    </linearGradient>
    <linearGradient
       id="linearGradient3290-678">
      <stop
         offset="0"
         style="stop-color:#ece5a5;stop-opacity:1"
         id="stop2607" />
      <stop
         offset="1"
         style="stop-color:#fcfbf2;stop-opacity:1"
         id="stop2609" />
    </linearGradient>
    <linearGradient
       y2="26.02973"
       x2="9"
       y1="29.056757"
       x1="9"
       gradientTransform="matrix(0.6380091,-0.6411367,0.8596263,0.8553493,32.135268,16.32383)"
       gradientUnits="userSpaceOnUse"
       id="linearGradient3087"
       xlink:href="#linearGradient3290-678" />
    <linearGradient
       y2="41.391716"
       x2="9.5220556"
       y1="37.371799"
       x1="5.5178981"
       gradientTransform="matrix(0.5603647,0.02418622,0.02415646,0.5596736,55.343159,12.697324)"
       gradientUnits="userSpaceOnUse"
       id="linearGradient3089"
       xlink:href="#linearGradient3191-577" />
    <linearGradient
       y2="30.000141"
       x2="30.037716"
       y1="24.989594"
       x1="30.037716"
       gradientTransform="matrix(0.6380091,-0.6411367,0.8596262,0.8553492,33.467826,14.984743)"
       gradientUnits="userSpaceOnUse"
       id="linearGradient3092"
       xlink:href="#linearGradient3223-699" />
    <linearGradient
       y2="30.000141"
       x2="30.037716"
       y1="24.989594"
       x1="30.037716"
       gradientTransform="matrix(0.6380091,-0.6411367,0.8596262,0.8553492,33.650543,14.801129)"
       gradientUnits="userSpaceOnUse"
       id="linearGradient3095"
       xlink:href="#linearGradient3240-907" />
    <linearGradient
       y2="30.000141"
       x2="30.037716"
       y1="24.989594"
       x1="30.037716"
       gradientTransform="matrix(0.6380091,-0.6411367,0.8596262,0.8553492,32.829816,15.625878)"
       gradientUnits="userSpaceOnUse"
       id="linearGradient3098"
       xlink:href="#linearGradient3223-768" />
    <linearGradient
       y2="30.000141"
       x2="30.037716"
       y1="24.989594"
       x1="30.037716"
       gradientTransform="matrix(0.6380091,-0.6411367,0.8596262,0.8553492,33.012534,15.442266)"
       gradientUnits="userSpaceOnUse"
       id="linearGradient3101"
       xlink:href="#linearGradient3240-686" />
    <linearGradient
       y2="30.000141"
       x2="30.037716"
       y1="24.989594"
       x1="30.037716"
       gradientTransform="matrix(0.6380091,-0.6411367,0.8596262,0.8553492,32.194877,16.263932)"
       gradientUnits="userSpaceOnUse"
       id="linearGradient3105"
       xlink:href="#linearGradient3223-789" />
    <linearGradient
       y2="30.000141"
       x2="30.037716"
       y1="24.989594"
       x1="30.037716"
       gradientTransform="matrix(0.6380091,-0.6411367,0.8596262,0.8553492,32.377594,16.080319)"
       gradientUnits="userSpaceOnUse"
       id="linearGradient3108"
       xlink:href="#linearGradient3240-279" />
    <linearGradient
       y2="31.210939"
       x2="23.575972"
       y1="25.356892"
       x1="23.575972"
       spreadMethod="pad"
       gradientTransform="matrix(0.6565695,-0.659788,0.7345237,0.7308691,34.783651,19.456405)"
       gradientUnits="userSpaceOnUse"
       id="linearGradient3113"
       xlink:href="#linearGradient3155-40" />
    <linearGradient
       y2="37.999992"
       x2="23.910248"
       y1="37.999992"
       x1="18.993803"
       gradientTransform="matrix(0.88235296,0,0,0.5,2.6470971,10.99999)"
       gradientUnits="userSpaceOnUse"
       id="linearGradient13148"
       xlink:href="#linearGradient3524" />
    <linearGradient
       id="linearGradient3524">
      <stop
         style="stop-color:#000000;stop-opacity:1;"
         offset="0"
         id="stop3526" />
      <stop
         style="stop-color:#000000;stop-opacity:0;"
         offset="1"
         id="stop3528" />
    </linearGradient>
    <linearGradient
       y2="13.408723"
       x2="9.5"
       y1="16.26436"
       x1="9.5"
       gradientTransform="matrix(0.92273816,0,0,1.2886112,-2.255533,-6.1221836)"
       gradientUnits="userSpaceOnUse"
       id="linearGradient13153"
       xlink:href="#linearGradient3690" />
    <linearGradient
       id="linearGradient3690">
      <stop
         style="stop-color:white;stop-opacity:1;"
         offset="0"
         id="stop3692" />
      <stop
         style="stop-color:white;stop-opacity:0.46875"
         offset="1"
         id="stop3694" />
    </linearGradient>
    <linearGradient
       id="linearGradient3600-5">
      <stop
         id="stop3602"
         offset="0"
         style="stop-color:#f4f4f4;stop-opacity:1" />
      <stop
         id="stop3604-5"
         offset="1"
         style="stop-color:#dbdbdb;stop-opacity:1" />
    </linearGradient>
    <linearGradient
       id="linearGradient3104-9">
      <stop
         style="stop-color:#9c9c9c;stop-opacity:1;"
         offset="0"
         id="stop3106-3" />
      <stop
         style="stop-color:#afafaf;stop-opacity:1;"
         offset="1"
         id="stop3108-4" />
    </linearGradient>
    <linearGradient
       xlink:href="#linearGradient3600-5"
       id="linearGradient3106"
       gradientUnits="userSpaceOnUse"
       gradientTransform="matrix(0.9343959,0,0,1.3203616,-2.1906009,-7.6848427)"
       x1="27.066463"
       y1="11.286958"
       x2="27.066463"
       y2="40.240307" />
    <linearGradient
       xlink:href="#linearGradient3104-9"
       id="linearGradient3108-1"
       gradientUnits="userSpaceOnUse"
       x1="277.05368"
       y1="294.66794"
       x2="277.05368"
       y2="274.76862"
       gradientTransform="matrix(1.9333406,0,0,1.87359,-519.73384,-507.68278)" />
  </defs>
  <path
     id="rect1915"
     d="m 32.153687,7.5244785 c 1.437323,0 2.502759,-0.026028 2.346313,2.1824848 0,5.9126747 0,21.5462657 0,32.9341527 0.0346,1.622978 -1.532764,2.003524 -2.843878,1.858884 -8.634782,0 -15.389488,0 -24.0242892,0 C 5.9628958,44.53354 5.3512681,42.777793 5.5,41.502797 5.5,29.677446 5.5,17.852077 5.5,6.0267079 6.1293024,4.7343425 17.096927,6.4584526 25.303842,7.5 c 1.949097,0 4.969884,-0.061013 6.849845,0.024423 z"
     style="fill:url(#linearGradient3106);fill-opacity:1;stroke:url(#linearGradient3108-1);stroke-width:1.00144136;stroke-miterlimit:4;stroke-opacity:1;stroke-dasharray:none" />
  <path
     id="path1917"
     d="m 5.5,8 0,-2.6668825 c 0,-1.015407 1.0195604,-1.832895 2.0121218,-1.832895 l 15.2284802,0 c 0.992561,0 1.759398,0.817488 1.759398,1.832895 L 24.5,8"
     style="fill:#6392c4;fill-opacity:1;stroke:#49759f;stroke-width:0.99999988;stroke-miterlimit:4;stroke-opacity:1;stroke-dasharray:none" />
  <path
     id="rect1919"
     d="m 7.4350607,4.500259 c 8.9185383,0 5.9738753,0 14.8924563,0 1.528665,-0.023514 1.095701,1.1691455 1.163138,1.9960678 0,0.6914734 -0.0042,1.6490943 0.01869,2.025053 2.108222,0 3.963166,0.024334 7.518672,0.024334 3.555485,0 2.230263,0.367296 2.230263,1.4681512 0,5.697411 0,21.983002 0,32.598046 -0.126692,1.19817 -1.560289,0.81349 -2.431579,0.877516 -8.416235,0 -14.974724,0 -23.3909373,0 C 6.173286,43.369123 6.5674585,42.008601 6.5,41.18168 6.5,29.78684 6.5,16.772633 6.5,5.3777756 6.4875405,4.907287 6.9400051,4.4876452 7.4357668,4.5002789 z"
     style="opacity:0.6;fill:none;stroke:url(#linearGradient13153);stroke-width:0.99999964;stroke-miterlimit:4;stroke-opacity:1;stroke-dasharray:none" />
  <rect
     ry="0.30555126"
     rx="0.28561631"
     y="22"
     x="15"
     height="1"
     width="15"
     id="rect2574"
     style="fill:#a2a2a1;fill-opacity:1;stroke:none" />
  <rect
     ry="0.39721662"
     rx="0.37130117"
     y="30"
     x="15"
     height="1"
     width="15"
     id="rect3634"
     style="opacity:0.4;fill:url(#linearGradient13148);fill-opacity:1;stroke:none" />
  <g
     transform="translate(-34.576271,-2.8474576)"
     id="g3152">
    <path
       style="opacity:0.15;fill:#0c0c0c;fill-opacity:1;fill-rule:evenodd;stroke:none"
       id="path2422"
       d="m 74.265665,23.537719 c -0.173257,-0.101989 -0.307317,-0.07546 -0.395883,-0.01871 l -11.796108,7.511424 -2.17105,1.386355 -0.06684,0.02805 -2.570398,5.792049 6.370142,0.191869 0.05288,-0.03539 2.18501,-1.379007 11.793169,-7.576206 c 0.354271,-0.226993 -0.206018,-1.731414 -1.256855,-3.380625 -0.788131,-1.236902 -1.624293,-2.213844 -2.144067,-2.519809 l 0,0 z" />
    <path
       style="fill:url(#linearGradient3113);fill-opacity:1;stroke:#0c0c0c;stroke-width:0.5;stroke-linecap:butt;stroke-linejoin:round;stroke-miterlimit:4;stroke-opacity:1;stroke-dasharray:none;stroke-dashoffset:0"
       id="rect2383"
       d="m 60.730705,30.621681 c 0.445921,-0.334616 1.697104,0.293067 2.846888,1.43713 1.147034,1.141326 1.75142,2.362602 1.42438,2.812888 -0.0012,0.0017 0.02814,0.02504 0.02686,0.02673 L 81.038878,18.809903 C 81.44536,18.401428 80.813795,17.110597 79.627509,15.930215 78.441227,14.749833 77.14723,14.124679 76.740745,14.533156 l -16.01004,16.088525 z" />
    <path
       style="opacity:0.8;fill:#ffb6ed;fill-opacity:1;stroke:#e28ccd;stroke-width:0.5;stroke-linecap:butt;stroke-linejoin:round;stroke-miterlimit:4;stroke-opacity:1;stroke-dasharray:none;stroke-dashoffset:0"
       id="rect3175"
       d="m 74.786844,16.496637 c 0.445921,-0.334616 1.697105,0.293068 2.846888,1.43713 1.147033,1.141325 1.75142,2.362602 1.424379,2.812887 -0.0012,0.0017 0.02814,0.02504 0.02686,0.02673 l 1.953903,-1.963482 0.03988,-0.04007 c 0.0013,-0.0017 -0.02811,-0.02502 -0.02686,-0.02673 0.327036,-0.450285 -0.277352,-1.671561 -1.424385,-2.812886 -1.149782,-1.144062 -2.400965,-1.771747 -2.846887,-1.43713 l -0.03988,0.04007 -1.953901,1.963481 3e-6,0 z" />
    <path
       style="opacity:0.6;fill:#0c0c0c;fill-opacity:1;stroke:none"
       id="path3208"
       d="m 60.730705,30.621679 c 0.445921,-0.334616 1.697105,0.293068 2.846887,1.43713 1.147034,1.141326 1.751421,2.362602 1.42438,2.812888 -0.0012,0.0017 0.02814,0.02504 0.02687,0.02673 l 11.025592,-11.079643 0.03988,-0.04007 c 0.0013,-0.0017 -0.02811,-0.02502 -0.02686,-0.02673 0.327034,-0.450289 -0.277353,-1.671564 -1.424386,-2.81289 -1.149783,-1.144062 -2.400968,-1.771746 -2.846889,-1.437129 l -0.03988,0.04007 -11.025589,11.079644 -5e-6,0 z" />
    <path
       style="fill:url(#linearGradient3108);fill-opacity:1;stroke:none"
       id="path3233"
       d="m 72.596755,18.69746 c 0.44592,-0.334617 1.697106,0.293068 2.846888,1.43713 1.147033,1.141325 1.751421,2.362601 1.424379,2.812888 -0.0012,0.0017 0.02814,0.02504 0.02686,0.02673 L 77.09426,22.77385 c 0.0013,-0.0017 -0.02811,-0.02502 -0.02686,-0.02673 0.327042,-0.450286 -0.277346,-1.671563 -1.42438,-2.812886 -1.149782,-1.144063 -2.400967,-1.771747 -2.846887,-1.437131 l -0.199378,0.200356 0,1e-6 z" />
    <path
       style="fill:url(#linearGradient3105);fill-opacity:1;stroke:none"
       id="path3216"
       d="m 72.414037,18.881073 c 0.445922,-0.334617 1.697107,0.293067 2.846888,1.437129 1.147035,1.141326 1.751422,2.362601 1.42438,2.812887 -0.0012,0.0017 0.02813,0.02504 0.02686,0.02673 l 0.199377,-0.200357 c 0.0013,-0.0017 -0.02811,-0.02502 -0.02686,-0.02673 0.327044,-0.450285 -0.277344,-1.671561 -1.424379,-2.812886 -1.149782,-1.144062 -2.400966,-1.771747 -2.846889,-1.43713 l -0.199377,0.200356 0,1e-6 z" />
    <path
       style="fill:url(#linearGradient3101);fill-opacity:1;stroke:none"
       id="path3248"
       d="m 73.231695,18.059407 c 0.445921,-0.334617 1.697105,0.293067 2.846888,1.43713 1.147033,1.141325 1.751421,2.3626 1.42438,2.812887 -0.0012,0.0017 0.02813,0.02504 0.02686,0.02673 l 0.199378,-0.200355 c 0.0013,-0.0017 -0.02811,-0.02502 -0.02686,-0.02673 0.327041,-0.450286 -0.277346,-1.671563 -1.424381,-2.812887 -1.149782,-1.144063 -2.400964,-1.771747 -2.846888,-1.43713 l -0.199377,0.200355 0,0 z" />
    <path
       style="fill:url(#linearGradient3098);fill-opacity:1;stroke:none"
       id="path3250"
       d="m 73.048977,18.24302 c 0.445923,-0.334617 1.697107,0.293067 2.846888,1.437129 1.147035,1.141326 1.751422,2.362601 1.424381,2.812887 -0.0012,0.0017 0.02814,0.02504 0.02686,0.02673 l 0.199377,-0.200356 c 0.0013,-0.0017 -0.02811,-0.02502 -0.02686,-0.02673 0.327042,-0.450286 -0.277345,-1.671563 -1.424379,-2.812886 -1.149781,-1.144063 -2.400966,-1.771748 -2.846889,-1.43713 l -0.199378,0.200356 z" />
    <path
       style="fill:url(#linearGradient3095);fill-opacity:1;stroke:none"
       id="path3256"
       d="m 73.869705,17.41827 c 0.44592,-0.334616 1.697104,0.293068 2.846887,1.43713 1.147033,1.141325 1.751421,2.362601 1.42438,2.812887 -0.0012,0.0017 0.02813,0.02504 0.02686,0.02673 l 0.199376,-0.200356 c 0.0013,-0.0017 -0.02811,-0.02502 -0.02686,-0.02673 0.327042,-0.450285 -0.277346,-1.671562 -1.42438,-2.812887 -1.14978,-1.144062 -2.400965,-1.771747 -2.846887,-1.437129 l -0.199377,0.200355 10e-7,0 z" />
    <path
       style="fill:url(#linearGradient3092);fill-opacity:1;stroke:none"
       id="path3258"
       d="m 73.686988,17.601883 c 0.445919,-0.334617 1.697105,0.293067 2.846887,1.437131 1.147033,1.141324 1.751422,2.3626 1.424379,2.812885 -0.0012,0.0017 0.02814,0.02504 0.02686,0.02673 l 0.199378,-0.200354 c 0.0013,-0.0017 -0.02811,-0.02502 -0.02686,-0.02673 0.327042,-0.450287 -0.277346,-1.671563 -1.424379,-2.812887 -1.149782,-1.144063 -2.400967,-1.771748 -2.846888,-1.43713 l -0.199377,0.200355 0,0 z" />
    <path
       style="fill:url(#linearGradient3087);fill-opacity:1;fill-rule:evenodd;stroke:url(#linearGradient3089);stroke-width:0.5;stroke-linecap:butt;stroke-linejoin:miter;stroke-miterlimit:4;stroke-opacity:1;stroke-dasharray:none"
       id="path3270"
       d="m 57.662604,37.903587 7.283734,-2.970838 0.06206,-0.06205 c 0.327041,-0.450289 -0.285228,-1.67166 -1.432262,-2.812988 -1.149783,-1.144062 -2.399488,-1.768277 -2.845409,-1.43366 l -3.068118,7.279536 -5e-6,0 z" />
    <path
       style="fill:#0c0c0c;fill-opacity:1;fill-rule:evenodd;stroke:#0c0c0c;stroke-width:0.5;stroke-linecap:butt;stroke-linejoin:miter;stroke-miterlimit:4;stroke-opacity:1;stroke-dasharray:none"
       id="path3281"
       d="m 58.493673,35.931986 -0.831516,1.96381 1.986639,-0.814434 C 59.48957,36.890638 59.342578,36.696919 59.151405,36.506698 58.931314,36.287701 58.714834,36.110011 58.493673,35.931986 z" />
  </g>
  <rect
     ry="0.30555126"
     rx="0.28561631"
     y="38"
     x="15"
     height="1"
     width="15"
     id="rect2582"
     style="fill:#878885;fill-opacity:1;stroke:none" />
  <rect
     ry="0.30555126"
     rx="0.28561631"
     y="14"
     x="15"
     height="1"
     width="15"
     id="rect16160"
     style="opacity:0.4;fill:#333333;fill-opacity:1;stroke:none" />
  <rect
     ry="0.42131186"
     rx="0.41699046"
     y="13.5"
     x="9.5"
     height="2"
     width="2"
     id="rect16162"
     style="opacity:0.3;fill:#888a85;fill-opacity:1;stroke:#2e3436;stroke-width:0.99999994;stroke-linecap:round;stroke-linejoin:miter;stroke-miterlimit:4;stroke-opacity:1;stroke-dasharray:none;stroke-dashoffset:0" />
  <rect
     style="opacity:0.3;fill:#888a85;fill-opacity:1;stroke:#2e3436;stroke-width:0.99999994;stroke-linecap:round;stroke-linejoin:miter;stroke-miterlimit:4;stroke-opacity:1;stroke-dasharray:none;stroke-dashoffset:0"
     id="rect4018"
     width="2"
     height="2"
     x="9.5"
     y="21.5"
     rx="0.41699046"
     ry="0.42131186" />
  <rect
     ry="0.42131186"
     rx="0.41699046"
     y="29.5"
     x="9.5"
     height="2"
     width="2"
     id="rect4020"
     style="opacity:0.3;fill:#888a85;fill-opacity:1;stroke:#2e3436;stroke-width:0.99999994;stroke-linecap:round;stroke-linejoin:miter;stroke-miterlimit:4;stroke-opacity:1;stroke-dasharray:none;stroke-dashoffset:0" />
  <rect
     style="opacity:0.3;fill:#888a85;fill-opacity:1;stroke:#2e3436;stroke-width:0.99999994;stroke-linecap:round;stroke-linejoin:miter;stroke-miterlimit:4;stroke-opacity:1;stroke-dasharray:none;stroke-dashoffset:0"
     id="rect4022"
     width="2"
     height="2"
     x="9.5"
     y="37.5"
     rx="0.41699046"
     ry="0.42131186" />
</svg>
