<?xml version="1.0" encoding="UTF-8" standalone="no"?>
<svg
   xmlns:dc="http://purl.org/dc/elements/1.1/"
   xmlns:cc="http://creativecommons.org/ns#"
   xmlns:rdf="http://www.w3.org/1999/02/22-rdf-syntax-ns#"
   xmlns:svg="http://www.w3.org/2000/svg"
   xmlns="http://www.w3.org/2000/svg"
   xmlns:xlink="http://www.w3.org/1999/xlink"
   id="svg3033"
   height="48"
   width="48"
   version="1.1">
  <metadata
     id="metadata103852">
    <rdf:RDF>
      <cc:Work
         rdf:about="">
        <dc:format>image/svg+xml</dc:format>
        <dc:type
           rdf:resource="http://purl.org/dc/dcmitype/StillImage" />
      </cc:Work>
    </rdf:RDF>
  </metadata>
  <defs
     id="defs3035">
    <linearGradient
       gradientTransform="matrix(1.0395395,0,0,0.9504295,-44.269588,47.458983)"
       gradientUnits="userSpaceOnUse"
       xlink:href="#linearGradient3202"
       id="linearGradient2967"
       y2="30.889549"
       x2="22.885227"
       y1="17.628952"
       x1="22.885227" />
    <linearGradient
       id="linearGradient3202">
      <stop
         offset="0"
         style="stop-color:#ffffff;stop-opacity:1"
         id="stop3204" />
      <stop
         offset="1"
         style="stop-color:#d3eefc;stop-opacity:1"
         id="stop3206" />
    </linearGradient>
    <linearGradient
       gradientTransform="matrix(0.96423685,0,0,0.97292031,-0.65526887,1.99877)"
       gradientUnits="userSpaceOnUse"
       xlink:href="#linearGradient3211"
       id="linearGradient2922"
       y2="41.953453"
       x2="25.579119"
       y1="-25.736307"
       x1="25.579119" />
    <linearGradient
       id="linearGradient3211">
      <stop
         offset="0"
         style="stop-color:#ffffff;stop-opacity:1"
         id="stop3213" />
      <stop
         offset="1"
         style="stop-color:#ffffff;stop-opacity:0"
         id="stop3215" />
    </linearGradient>
    <radialGradient
       gradientTransform="matrix(0.04588502,2.9168208,-4.3002473,3.3179656e-7,75.324517,-119.13082)"
       gradientUnits="userSpaceOnUse"
       xlink:href="#linearGradient3242-2"
       id="radialGradient2926"
       fy="18.618757"
       fx="39.651478"
       r="20.714195"
       cy="18.618757"
       cx="39.651478" />
    <linearGradient
       id="linearGradient3242-2">
      <stop
         offset="0"
         style="stop-color:#f8b17e;stop-opacity:1"
         id="stop3244" />
      <stop
         offset="0.31209752"
         style="stop-color:#e35d4f;stop-opacity:1"
         id="stop3246-9" />
      <stop
         offset="0.57054454"
         style="stop-color:#c6262e;stop-opacity:1"
         id="stop3248-3" />
      <stop
         offset="1"
         style="stop-color:#690b54;stop-opacity:1"
         id="stop3250-9" />
    </linearGradient>
    <linearGradient
       gradientUnits="userSpaceOnUse"
       xlink:href="#linearGradient2490"
       id="linearGradient2928"
       y2="0.99999988"
       x2="24.008854"
       y1="38.246284"
       x1="24.008854" />
    <linearGradient
       id="linearGradient2490">
      <stop
         offset="0"
         style="stop-color:#791235;stop-opacity:1"
         id="stop2492" />
      <stop
         offset="1"
         style="stop-color:#dd3b27;stop-opacity:1"
         id="stop2494" />
    </linearGradient>
    <linearGradient
       gradientTransform="matrix(0.89432531,0,0,0.71689518,3.0387027,11.694937)"
       gradientUnits="userSpaceOnUse"
       xlink:href="#linearGradient2346"
       id="linearGradient2932"
       y2="35.298134"
       x2="21.13592"
       y1="40.884956"
       x1="21.13592" />
    <linearGradient
       id="linearGradient2346">
      <stop
         offset="0"
         style="stop-color:#eeeeee;stop-opacity:1"
         id="stop2348" />
      <stop
         offset="1"
         style="stop-color:#d9d9da;stop-opacity:1"
         id="stop2350" />
    </linearGradient>
    <linearGradient
       gradientTransform="matrix(2.774389,0,0,1.969706,-1892.179,-872.8854)"
       gradientUnits="userSpaceOnUse"
       xlink:href="#linearGradient5048"
       id="linearGradient3012"
       y2="609.50507"
       x2="302.85715"
       y1="366.64789"
       x1="302.85715" />
    <linearGradient
       id="linearGradient5048">
      <stop
         offset="0"
         style="stop-color:#000000;stop-opacity:0"
         id="stop5050" />
      <stop
         offset="0.5"
         style="stop-color:#000000;stop-opacity:1"
         id="stop5056" />
      <stop
         offset="1"
         style="stop-color:#000000;stop-opacity:0"
         id="stop5052" />
    </linearGradient>
    <radialGradient
       gradientTransform="matrix(2.774389,0,0,1.969706,-1891.633,-872.8854)"
       gradientUnits="userSpaceOnUse"
       xlink:href="#linearGradient5060"
       id="radialGradient3014"
       fy="486.64789"
       fx="605.71429"
       r="117.14286"
       cy="486.64789"
       cx="605.71429" />
    <linearGradient
       id="linearGradient5060">
      <stop
         offset="0"
         style="stop-color:#000000;stop-opacity:1"
         id="stop5062" />
      <stop
         offset="1"
         style="stop-color:#000000;stop-opacity:0"
         id="stop5064" />
    </linearGradient>
    <radialGradient
       gradientTransform="matrix(-2.774389,0,0,1.969706,112.7623,-872.8854)"
       gradientUnits="userSpaceOnUse"
       xlink:href="#linearGradient5060"
       id="radialGradient3031"
       fy="486.64789"
       fx="605.71429"
       r="117.14286"
       cy="486.64789"
       cx="605.71429" />
  </defs>
  <g
     id="layer1">
    <g
       id="g8875"
       transform="matrix(0.02146165,0,0,0.01463898,43.088761,43.203389)">
      <rect
         style="opacity:0.40206185;fill:url(#linearGradient3012);fill-opacity:1;fill-rule:nonzero;stroke:none;stroke-width:1;marker:none;visibility:visible;display:inline;overflow:visible"
         id="rect8877"
         y="-150.69685"
         x="-1559.2523"
         height="478.35718"
         width="1339.6335" />
      <path
         style="opacity:0.40206185;fill:url(#radialGradient3014);fill-opacity:1;fill-rule:nonzero;stroke:none;stroke-width:1;marker:none;visibility:visible;display:inline;overflow:visible"
         id="path8879"
         d="m -219.61876,-150.68038 c 0,0 0,478.33079 0,478.33079 142.874166,0.90045 345.40022,-107.16966 345.40014,-239.196175 0,-132.026537 -159.436816,-239.134595 -345.40014,-239.134615 z" />
      <path
         style="opacity:0.40206185;fill:url(#radialGradient3031);fill-opacity:1;fill-rule:nonzero;stroke:none;stroke-width:1;marker:none;visibility:visible;display:inline;overflow:visible"
         id="path8881"
         d="m -1559.2523,-150.68038 c 0,0 0,478.33079 0,478.33079 -142.8742,0.90045 -345.4002,-107.16966 -345.4002,-239.196175 0,-132.026537 159.4368,-239.134595 345.4002,-239.134615 z" />
    </g>
    <path
       style="fill:url(#linearGradient2932);fill-opacity:1;fill-rule:nonzero;stroke:#7a1235;stroke-width:0.99974567;stroke-linecap:round;stroke-linejoin:round;stroke-miterlimit:4;stroke-opacity:1;stroke-dasharray:none;stroke-dashoffset:0.06;marker:none;visibility:visible;display:inline;overflow:visible;enable-background:accumulate"
       id="rect8840"
       d="m 43.271179,44.500125 -37.4219627,0 c -0.347147,0 -0.6266189,-0.317795 -0.6266189,-0.712548 L 4.4998733,38.285815 c 0,-0.394753 0.2794721,-0.712547 0.6266191,-0.712547 l 38.1037726,0" />
    <path
       style="fill:none;stroke:#666666;stroke-width:0.99974567;stroke-linecap:round;stroke-linejoin:miter;stroke-miterlimit:4;stroke-opacity:1;stroke-dasharray:none"
       id="path9017"
       d="m 42.811302,43.623944 c -0.444161,-0.581595 -0.26312,-3.849289 0.601434,-5.306799" />
    <path
       style="fill:url(#radialGradient2926);fill-opacity:1;fill-rule:nonzero;stroke:url(#linearGradient2928);stroke-width:0.99974567;stroke-linecap:round;stroke-linejoin:round;stroke-miterlimit:4;stroke-opacity:1;stroke-dasharray:none;stroke-dashoffset:0.06;marker:none;visibility:visible;display:inline;overflow:visible;enable-background:accumulate"
       id="rect8064"
       d="m 7.0900094,1.4998728 c -0.3552903,0 -0.6318528,0.4060416 -0.6318524,0.9204463 L 4.5175814,36.825966 c 0,0.514406 0.3040344,0.920448 0.6593242,0.920447 l 37.6638974,0 c 0.355288,1e-6 0.659324,-0.406041 0.659324,-0.920447 l -2.1702,-34.4056469 c 1e-6,-0.5144047 -0.276562,-0.9204463 -0.631853,-0.9204463 l -33.6080646,0 z" />
    <path
       style="opacity:0.2;fill:none;stroke:#000000;stroke-width:0.99974567px;stroke-linecap:square;stroke-linejoin:miter;stroke-opacity:1"
       id="path3267"
       d="M 6.2186139,43.454184 5.5983146,38.823012" />
    <path
       style="opacity:0.4;fill:none;stroke:url(#linearGradient2922);stroke-width:0.99974567;stroke-linecap:round;stroke-linejoin:round;stroke-miterlimit:4;stroke-opacity:1;stroke-dasharray:none;stroke-dashoffset:0.06;marker:none;visibility:visible;display:inline;overflow:visible;enable-background:accumulate"
       id="path2868"
       d="m 8.0546969,2.4733527 c -0.3552905,0 -0.6318528,0.4060416 -0.6318524,0.9204463 L 5.4822687,35.85311 c 0,0.514405 0.3040346,0.920448 0.6593244,0.920447 l 35.7349339,0 c 0.355288,1e-6 0.659323,-0.406042 0.659323,-0.920447 L 40.36565,3.393799 c 10e-7,-0.5144047 -0.276561,-0.9204463 -0.631852,-0.9204463 l -31.6791011,0 z" />
    <g
       id="g2963"
       transform="translate(43.198023,-50.872728)">
      <path
         style="font-size:26.70637703px;font-style:normal;font-variant:normal;font-weight:bold;font-stretch:normal;text-align:start;line-height:125%;writing-mode:lr-tb;text-anchor:start;fill:#a1ceef;fill-opacity:1;stroke:none;font-family:URW Gothic L;-inkscape-font-specification:URW Gothic L Book"
         id="path2438"
         d="m -30.690913,76.872727 c 1.225378,0 3.774622,0 5,0 0.02003,-2.69044 -0.08349,-5.382579 0,-8.07176 0,-1.434446 0.209448,-2.71704 1.896799,-2.71704 1.935845,0 2.089684,0.969817 2.089684,2.817071 0,1.688236 0,6.283493 0,7.971729 1.225377,0 3.78814,10e-7 5.013517,10e-7 0.01437,-2.645706 -0.05881,-5.292395 0,-7.937385 0.0089,-1.27218 -0.113326,-2.851416 1.992422,-2.851416 1.894438,0 2.006642,1.246514 2.006642,2.872766 0,1.66967 -1e-6,6.246363 0,7.916035 1.225376,0 3.775558,0 5.000936,0 -0.01422,-2.951874 0.02968,-5.904782 -0.02429,-8.855952 -0.07686,-1.784335 -0.762887,-3.755827 -2.587981,-4.659627 -1.044123,-0.342811 -1.342666,-0.472622 -2.644984,-0.472622 -2.682008,0 -13.090101,-0.0118 -17.742745,-0.0118 0,4.666666 0,9.333334 0,13.999999 z" />
      <path
         style="font-size:26.70637703px;font-style:normal;font-variant:normal;font-weight:bold;font-stretch:normal;text-align:start;line-height:125%;writing-mode:lr-tb;text-anchor:start;fill:url(#linearGradient2967);fill-opacity:1;stroke:none;font-family:URW Gothic L;-inkscape-font-specification:URW Gothic L Book"
         id="text3190"
         d="m -30.690913,77.872727 c 1.225378,0 3.774622,0 5,0 0.02003,-2.69044 -0.08349,-5.382579 0,-8.07176 0,-1.434446 0.209448,-2.71704 1.896799,-2.71704 1.935845,0 2.089684,0.969817 2.089684,2.817071 0,1.688236 0,6.283493 0,7.971729 1.225377,0 3.78814,10e-7 5.013517,10e-7 0.01437,-2.645706 -0.05881,-5.292395 0,-7.937385 0.0089,-1.27218 -0.113326,-2.851416 1.992422,-2.851416 1.894438,0 2.006642,1.246514 2.006642,2.872766 0,1.66967 -1e-6,6.246363 0,7.916035 1.225376,0 3.775558,0 5.000936,0 -0.01422,-2.951874 0.02968,-5.904782 -0.02429,-8.855952 -0.07686,-1.784335 -0.762887,-3.755827 -2.587981,-4.659627 -1.044123,-0.342811 -1.342666,-0.472622 -2.644984,-0.472622 -2.682008,0 -13.090101,-0.0118 -17.742745,-0.0118 0,4.666666 0,9.333334 0,13.999999 z" />
    </g>
  </g>
</svg>
