<?xml version="1.0" encoding="UTF-8" standalone="no"?>
<svg
   xmlns:dc="http://purl.org/dc/elements/1.1/"
   xmlns:cc="http://creativecommons.org/ns#"
   xmlns:rdf="http://www.w3.org/1999/02/22-rdf-syntax-ns#"
   xmlns:svg="http://www.w3.org/2000/svg"
   xmlns="http://www.w3.org/2000/svg"
   xmlns:xlink="http://www.w3.org/1999/xlink"
   version="1.0"
   width="48"
   height="48"
   id="svg2988">
  <metadata
     id="metadata102034">
    <rdf:RDF>
      <cc:Work
         rdf:about="">
        <dc:format>image/svg+xml</dc:format>
        <dc:type
           rdf:resource="http://purl.org/dc/dcmitype/StillImage" />
      </cc:Work>
    </rdf:RDF>
  </metadata>
  <defs
     id="defs2990">
    <linearGradient
       id="linearGradient5048">
      <stop
         id="stop5050"
         style="stop-color:#000000;stop-opacity:0"
         offset="0" />
      <stop
         id="stop5056"
         style="stop-color:#000000;stop-opacity:1"
         offset="0.5" />
      <stop
         id="stop5052"
         style="stop-color:#000000;stop-opacity:0"
         offset="1" />
    </linearGradient>
    <linearGradient
       id="linearGradient5060">
      <stop
         id="stop5062"
         style="stop-color:#000000;stop-opacity:1"
         offset="0" />
      <stop
         id="stop5064"
         style="stop-color:#000000;stop-opacity:0"
         offset="1" />
    </linearGradient>
    <linearGradient
       id="linearGradient3600">
      <stop
         id="stop3602"
         style="stop-color:#f4f4f4;stop-opacity:1"
         offset="0" />
      <stop
         id="stop3604"
         style="stop-color:#dbdbdb;stop-opacity:1"
         offset="1" />
    </linearGradient>
    <linearGradient
       id="linearGradient3448-138-327-514">
      <stop
         id="stop4005"
         style="stop-color:#59bc52;stop-opacity:1"
         offset="0" />
      <stop
         id="stop4007"
         style="stop-color:#8cd982;stop-opacity:1"
         offset="1" />
    </linearGradient>
    <linearGradient
       id="linearGradient3780">
      <stop
         id="stop3782"
         style="stop-color:#ffffff;stop-opacity:1"
         offset="0" />
      <stop
         id="stop3784"
         style="stop-color:#ffffff;stop-opacity:0"
         offset="1" />
    </linearGradient>
    <linearGradient
       id="linearGradient3269">
      <stop
         id="stop3271"
         style="stop-color:#ffffff;stop-opacity:1"
         offset="0" />
      <stop
         id="stop3273"
         style="stop-color:#ffffff;stop-opacity:0"
         offset="1" />
    </linearGradient>
    <linearGradient
       id="linearGradient3104">
      <stop
         id="stop3106"
         style="stop-color:#a0a0a0;stop-opacity:1"
         offset="0" />
      <stop
         id="stop3108"
         style="stop-color:#c8c8c8;stop-opacity:1"
         offset="1" />
    </linearGradient>
    <linearGradient
       id="linearGradient3155-40">
      <stop
         id="stop2541"
         style="stop-color:#181818;stop-opacity:1"
         offset="0" />
      <stop
         id="stop2543"
         style="stop-color:#dbdbdb;stop-opacity:1"
         offset="0.13482948" />
      <stop
         id="stop2545"
         style="stop-color:#a4a4a4;stop-opacity:1"
         offset="0.20224422" />
      <stop
         id="stop2547"
         style="stop-color:#ffffff;stop-opacity:1"
         offset="0.26965895" />
      <stop
         id="stop2549"
         style="stop-color:#8d8d8d;stop-opacity:1"
         offset="0.44650277" />
      <stop
         id="stop2551"
         style="stop-color:#959595;stop-opacity:1"
         offset="0.57114136" />
      <stop
         id="stop2553"
         style="stop-color:#cecece;stop-opacity:1"
         offset="0.72038066" />
      <stop
         id="stop2555"
         style="stop-color:#181818;stop-opacity:1"
         offset="1" />
    </linearGradient>
    <linearGradient
       id="linearGradient3191-577-747-672">
      <stop
         id="stop2865"
         style="stop-color:#a1a1a1;stop-opacity:1"
         offset="0" />
      <stop
         id="stop2867"
         style="stop-color:#828282;stop-opacity:1"
         offset="1" />
    </linearGradient>
    <linearGradient
       id="linearGradient3155-40-33">
      <stop
         id="stop2847"
         style="stop-color:#1b1b1b;stop-opacity:1"
         offset="0" />
      <stop
         id="stop2849"
         style="stop-color:#f3f3f3;stop-opacity:1"
         offset="0.13482948" />
      <stop
         id="stop2851"
         style="stop-color:#b6b6b6;stop-opacity:1"
         offset="0.20224422" />
      <stop
         id="stop2853"
         style="stop-color:#ffffff;stop-opacity:1"
         offset="0.26965895" />
      <stop
         id="stop2855"
         style="stop-color:#9d9d9d;stop-opacity:1"
         offset="0.44650277" />
      <stop
         id="stop2857"
         style="stop-color:#a6a6a6;stop-opacity:1"
         offset="0.57114136" />
      <stop
         id="stop2859"
         style="stop-color:#e5e5e5;stop-opacity:1"
         offset="0.72038066" />
      <stop
         id="stop2861"
         style="stop-color:#1b1b1b;stop-opacity:1"
         offset="1" />
    </linearGradient>
    <radialGradient
       xlink:href="#linearGradient5060"
       id="radialGradient3139"
       gradientUnits="userSpaceOnUse"
       gradientTransform="matrix(0.02289232,0,0,0.01235294,26.353705,40.47085)"
       cx="605.71429"
       cy="486.64789"
       fx="605.71429"
       fy="486.64789"
       r="117.14286" />
    <linearGradient
       xlink:href="#linearGradient5048"
       id="linearGradient3141"
       gradientUnits="userSpaceOnUse"
       gradientTransform="matrix(0.06689349,0,0,0.01235294,-0.1772195,40.470824)"
       x1="302.85715"
       y1="366.64789"
       x2="302.85715"
       y2="609.50507" />
    <radialGradient
       xlink:href="#linearGradient5060"
       id="radialGradient3143"
       gradientUnits="userSpaceOnUse"
       gradientTransform="matrix(-0.02289231,0,0,0.01235294,21.646291,40.47085)"
       cx="605.71429"
       cy="486.64789"
       fx="605.71429"
       fy="486.64789"
       r="117.14286" />
    <linearGradient
       xlink:href="#linearGradient3600"
       id="linearGradient3145"
       gradientUnits="userSpaceOnUse"
       gradientTransform="matrix(0.4503686,2.7172606e-4,-2.742051e-4,0.446297,46.807779,-4.9909035)"
       x1="-60.969666"
       y1="13.668072"
       x2="-60.908253"
       y2="114.5354" />
    <linearGradient
       xlink:href="#linearGradient3104"
       id="linearGradient3147"
       gradientUnits="userSpaceOnUse"
       gradientTransform="translate(4.7019768e-7,2.047616)"
       x1="11.536495"
       y1="44.952385"
       x2="11.536495"
       y2="-1.0040783" />
    <linearGradient
       xlink:href="#linearGradient3448-138-327-514"
       id="linearGradient3149"
       gradientUnits="userSpaceOnUse"
       gradientTransform="matrix(1.2704924,0,0,1.2704925,-2.6156774,-11.821334)"
       x1="17.696638"
       y1="29.965809"
       x2="14.499061"
       y2="20.717426" />
    <linearGradient
       xlink:href="#linearGradient3780"
       id="linearGradient3151"
       gradientUnits="userSpaceOnUse"
       gradientTransform="matrix(1.2704924,0,0,1.2704925,-2.6156774,-11.821334)"
       x1="16.550491"
       y1="17.803926"
       x2="16.550491"
       y2="26.641962" />
    <linearGradient
       xlink:href="#linearGradient3269"
       id="linearGradient3153"
       gradientUnits="userSpaceOnUse"
       gradientTransform="matrix(-1.2704924,0,0,-1.2704925,41.351218,42.821274)"
       x1="13.392033"
       y1="26.59115"
       x2="13.392033"
       y2="22.686895" />
    <linearGradient
       xlink:href="#linearGradient3104"
       id="linearGradient3155"
       gradientUnits="userSpaceOnUse"
       gradientTransform="translate(0,2)"
       x1="22.004084"
       y1="44.854229"
       x2="22.004084"
       y2="3.0718794" />
    <linearGradient
       xlink:href="#linearGradient3155-40"
       id="linearGradient3157"
       gradientUnits="userSpaceOnUse"
       gradientTransform="matrix(0.8239774,-0.8548421,0.7471754,0.7309632,-8.863747,30.535582)"
       spreadMethod="pad"
       x1="23.575972"
       y1="25.356892"
       x2="23.575972"
       y2="31.210939" />
    <linearGradient
       xlink:href="#linearGradient3155-40-33"
       id="linearGradient3159"
       gradientUnits="userSpaceOnUse"
       gradientTransform="matrix(0.8006848,-0.8306768,0.8744329,0.8554595,-11.498627,27.328753)"
       x1="10.86941"
       y1="25.077497"
       x2="11.083416"
       y2="30.467169" />
    <linearGradient
       xlink:href="#linearGradient3191-577-747-672"
       id="linearGradient3161"
       gradientUnits="userSpaceOnUse"
       gradientTransform="matrix(0.6334257,-0.05500901,-0.03910351,0.6392777,15.285328,19.734527)"
       x1="5.7117834"
       y1="37.817223"
       x2="9.5220556"
       y2="41.391716" />
  </defs>
  <g
     id="g3107"
     transform="translate(0,-2.000001)">
    <g
       id="g3095">
      <path
         style="opacity:0.40206185;fill:url(#radialGradient3139);fill-opacity:1;fill-rule:nonzero;stroke:none;stroke-width:1.04588675;marker:none;visibility:visible;display:inline;overflow:visible"
         id="path3710"
         d="m 40.15,45.000132 c 0,0 0,2.999834 0,2.999834 1.178897,0.0056 2.85,-0.67211 2.85,-1.50011 0,-0.827999 -1.315561,-1.499723 -2.85,-1.499724 z" />
      <rect
         style="opacity:0.40206185;fill:url(#linearGradient3141);fill-opacity:1;fill-rule:nonzero;stroke:none;stroke-width:1.04588675;marker:none;visibility:visible;display:inline;overflow:visible"
         id="rect3706"
         y="45"
         x="7.8499999"
         height="2.9999998"
         width="32.299999" />
      <path
         style="opacity:0.40206185;fill:url(#radialGradient3143);fill-opacity:1;fill-rule:nonzero;stroke:none;stroke-width:1.04588675;marker:none;visibility:visible;display:inline;overflow:visible"
         id="path3708"
         d="m 7.85,45.000132 c 0,0 0,2.999834 0,2.999834 C 6.6711024,48.005614 5,47.327856 5,46.499856 5,45.671857 6.3155607,45.000133 7.85,45.000132 z" />
    </g>
    <path
       d="m 7.5,5.5 c 8.522149,0.00514 24.477853,-0.00514 33,0 0.07503,1.6057907 0.92418,38.198379 0.999236,41 C 29.832825,46.492965 18.166414,46.485918 6.5,46.478879 6.59181,43.331779 7.4081898,6.9121606 7.5,5.5 z"
       id="path2855"
       style="fill:url(#linearGradient3145);fill-opacity:1;stroke:url(#linearGradient3147);stroke-width:0.99999994;stroke-linecap:round;stroke-linejoin:round;stroke-miterlimit:4;stroke-opacity:1;stroke-dasharray:none;display:inline" />
    <path
       d="m 25.335541,17.499999 c 0,2.418211 -1.459324,4.597384 -3.695362,5.518192 -2.236036,0.920807 -4.806724,0.401205 -6.5096,-1.315757 -1.702877,-1.716961 -2.201286,-4.291843 -1.262092,-6.520219 0.939194,-2.228377 3.130313,-3.669701 5.548442,-3.649782 l -0.04916,5.967566 5.967768,0 z"
       id="path3110"
       style="opacity:0.12108112;fill:#000000;fill-opacity:1;stroke:#000000;stroke-width:1.06446183;stroke-linejoin:round;stroke-miterlimit:4;stroke-opacity:1;stroke-dasharray:none" />
    <path
       d="m 21.394858,9.5322328 c 3.544174,-0.29755 6.236823,2.3412432 5.940621,5.9947932 l -5.967707,-0.02708 0.02709,-5.9677082 z"
       id="path3112"
       style="opacity:0.12108112;fill:#000000;fill-opacity:1;stroke:#000000;stroke-width:1.06400001;stroke-linejoin:round;stroke-miterlimit:4;stroke-opacity:1" />
    <path
       d="m 24.335537,16.499999 c 0,2.418211 -1.459324,4.597384 -3.695362,5.518192 -2.236036,0.920807 -4.806724,0.401205 -6.5096,-1.315757 -1.702877,-1.716961 -2.201286,-4.291843 -1.262092,-6.520219 0.939194,-2.228377 3.130313,-3.669701 5.548442,-3.649782 l -0.04916,5.967566 5.967768,0 z"
       id="path3114"
       style="fill:url(#linearGradient3149);fill-opacity:1;stroke:#3c853a;stroke-width:0.80000001;stroke-linejoin:round;stroke-miterlimit:4;stroke-opacity:1;stroke-dasharray:none" />
    <path
       d="m 20.394858,8.5322331 c 3.544174,-0.29755 6.236823,2.3412429 5.940621,5.9947929 l -5.967707,-0.02708 0.02709,-5.9677079 z"
       id="path3116"
       style="fill:#729fcf;fill-opacity:1;stroke:#3465a4;stroke-width:0.80000001;stroke-linejoin:round;stroke-miterlimit:4;stroke-opacity:1;stroke-dasharray:none" />
    <path
       d="m 17.394578,11.762183 c -2.251727,0.464517 -3.970289,2.341599 -3.970289,4.724644 0,2.731124 2.231737,4.962863 4.962861,4.962861 2.369668,0 4.245915,-1.697756 4.724644,-3.930586 l -4.724644,0 c -0.273941,5.36e-4 -0.536816,-0.108049 -0.730522,-0.301753 -0.193704,-0.193706 -0.302289,-0.456581 -0.301753,-0.730522 l 0.0397,-4.724644 z"
       id="path3118"
       style="opacity:0.4;fill:none;stroke:url(#linearGradient3151);stroke-width:1.06446183;stroke-miterlimit:4;stroke-opacity:1;stroke-dasharray:none" />
    <path
       d="M 25.331487,13.497743 C 25.175409,11.568714 23.614275,9.7781261 21.420368,9.5612661 l -0.0397,3.9195719 3.950821,0.0169 z"
       id="path3120"
       style="opacity:0.4;fill:none;stroke:url(#linearGradient3153);stroke-width:1;stroke-miterlimit:4;stroke-opacity:1;stroke-dasharray:none" />
    <path
       d="m 29.166388,13.546347 3.756752,0 m 0.335425,0 1.140442,0 M 29.015833,15.5 l 3.345607,0 m 0.436303,0 1.130367,0 m 0.335426,0 0.6932,0 m -6.937967,1.980028 3.033115,0 m 0.441548,0 5.102157,0.01997 m -7.520091,2 2.881053,0 m 0.354558,0 1.014088,0 m 0.46152,0 0.670535,0 m -5.969246,0 -1.556742,0 m -0.881662,2 2.481889,0 m 0.428298,0 5.164938,0 m -21.125793,10 3.640632,0 m 0.423562,0 1.739577,0 m 0.321577,0 0.85845,0 m 0.349272,0 1.602406,0 m 0.335425,0 1.643346,0 m 0.31021,0 2.580441,0 m -13.804898,3.980028 3.081427,0 m 0.323704,0 5.074837,0 m 0.31103,0 2.461186,0 m 8.697299,0.06136 5.026898,0 M 12.998934,29.5 l 4.284352,0 m 0.336433,0 4.630578,0 m 0.319893,0 1.81966,0 m 0.335425,0 4.331127,0 m -16.057468,-4 2.34797,0 m 0.335425,0 2.180258,0 m 0.350956,0 1.945461,0 m 0.319893,0 0.83856,0 m 0.335425,0 1.878376,0 m 0.368967,0 4.930737,0 m 0.335426,0 3.756752,0 m -19.924206,2 3.954284,0 m 0.311043,0 4.198951,0 m 0.319893,0 1.641931,0 m 0.310036,0 3.950279,0 m 0.316902,0 4.314197,0 m -19.317516,10 3.695207,0 m 0.396663,0 1.629116,0 m 0.381575,0 0.812557,0 m 0.258655,0 1.604035,0 m 0.212949,0 8.492084,0 m 0.399586,0 2.266883,0 m 0.304807,0 0.572374,0 m -16.81675,2 1.20539,0 m -5.415131,0 3.856881,0 m 1.866532,0 2.804548,0 m 0.29667,0 4.116902,0 m 0.319893,0 2.792858,0 m 0.281139,0 0.575511,0 m 0.314681,0 3.546443,0 m 0.362569,0 1.85674,0 m -18.781626,2 1.701949,0 m -5.91169,0 3.856881,0 m 2.423647,0 2.392767,0"
       id="path3715"
       style="fill:none;stroke:url(#linearGradient3155);stroke-width:1px;stroke-linecap:butt;stroke-linejoin:miter;stroke-opacity:1" />
  </g>
  <g
     id="g3100"
     transform="translate(0,-1)">
    <path
       d="m 39.843133,33.67157 c -0.16099,-0.07329 -0.324292,-0.04024 -0.446586,0.01499 l -16.271002,7.315568 -2.996075,1.349729 -0.08686,0.0291 -5.071935,5.131349 7.226102,-0.334205 0.07358,-0.03426 3.009364,-1.344566 16.291433,-7.370485 c 0.489178,-0.220903 0.400051,-1.457808 -0.197775,-2.779654 -0.448378,-0.99138 -1.047268,-1.757712 -1.530239,-1.977572 z"
       id="path2675"
       style="opacity:0.15;fill:#0c0c0c;fill-opacity:1;fill-rule:evenodd;stroke:none" />
    <path
       d="m 20.015664,39.36142 c 0.546127,-0.450225 1.148697,0.251117 2.318286,1.395328 0.540287,0.775209 1.127409,1.562056 1.392949,2.468889 l 13.922219,-13.951118 7.252295,-8.748825 c 0.510123,-0.529234 3.790545,-4.809294 2.583825,-5.989829 -1.206714,-1.180533 -5.800195,2.729207 -6.310321,3.258442 l -7.76415,7.064089 -13.395103,14.503024 z"
       id="path2677"
       style="fill:url(#linearGradient3157);fill-opacity:1;stroke:#0c0c0c;stroke-width:0.5;stroke-linecap:butt;stroke-linejoin:round;stroke-miterlimit:4;stroke-opacity:1;stroke-dasharray:none;stroke-dashoffset:0" />
    <path
       d="m 20.098282,39.278798 c 0.546126,-0.450224 1.06608,0.333736 2.235667,1.477945 1.166791,1.141475 1.79051,1.628788 1.365621,2.194308 l 13.781544,-13.502238 0.05004,-0.05192 c 0.0016,-0.0021 -0.02894,-0.02458 -0.02733,-0.02673 0.424887,-0.565521 -0.116215,-1.878997 -1.283005,-3.02047 -1.169587,-1.144209 -2.515704,-1.68032 -3.061832,-1.230094 l -0.05004,0.05192 -13.010668,14.107282 z"
       id="path2679"
       style="opacity:0.6;fill:#0c0c0c;fill-opacity:1;stroke:none" />
    <path
       d="m 23.481031,43.504375 c 0.42489,-0.565519 0.193365,-1.877941 -0.973425,-3.019416 -1.169586,-1.144209 -2.068506,-1.326182 -2.614637,-0.875957 -1.450621,2.868332 -2.095062,2.633063 -4.340424,7.559765 0.08336,0.172306 0.245016,0.33745 0.487928,0.581233 l 7.440558,-4.245625 z"
       id="path2681"
       style="fill:url(#linearGradient3159);fill-opacity:1;fill-rule:evenodd;stroke:url(#linearGradient3161);stroke-width:0.5;stroke-linecap:round;stroke-linejoin:round;stroke-miterlimit:4;stroke-opacity:1;stroke-dasharray:none" />
    <path
       d="m 34.090151,23.958453 c 0.546126,-0.450225 1.892241,0.08589 3.061827,1.230096 1.166791,1.141473 1.707895,2.45495 1.283007,3.020469 -0.0016,0.0021 0.02897,0.0246 0.02733,0.02673 1.499799,-2.259861 5.463204,-5.632013 6.62456,-7.842044 0.424887,-0.565522 3.372736,-4.451842 2.205946,-5.593315 -1.169587,-1.14421 -5.204501,1.98369 -5.750629,2.433915 l -7.452038,6.724148 z"
       id="path3413"
       style="opacity:0.6;fill:#0c0c0c;fill-opacity:1;stroke:none" />
  </g>
</svg>
