<?xml version="1.0" encoding="UTF-8" standalone="no"?>
<svg
   id="svg3880"
   height="48"
   width="48"
   version="1.1"
   sodipodi:docname="org.xfce.about.svg"
   inkscape:version="1.1.2 (0a00cf5339, 2022-02-04)"
   xmlns:inkscape="http://www.inkscape.org/namespaces/inkscape"
   xmlns:sodipodi="http://sodipodi.sourceforge.net/DTD/sodipodi-0.dtd"
   xmlns:xlink="http://www.w3.org/1999/xlink"
   xmlns="http://www.w3.org/2000/svg"
   xmlns:svg="http://www.w3.org/2000/svg"
   xmlns:rdf="http://www.w3.org/1999/02/22-rdf-syntax-ns#"
   xmlns:cc="http://creativecommons.org/ns#"
   xmlns:dc="http://purl.org/dc/elements/1.1/">
  <sodipodi:namedview
     id="namedview27"
     pagecolor="#ffffff"
     bordercolor="#666666"
     borderopacity="1.0"
     inkscape:pageshadow="2"
     inkscape:pageopacity="0.0"
     inkscape:pagecheckerboard="0"
     showgrid="false"
     inkscape:zoom="14.75"
     inkscape:cx="24.033898"
     inkscape:cy="24"
     inkscape:window-width="1317"
     inkscape:window-height="893"
     inkscape:window-x="629"
     inkscape:window-y="66"
     inkscape:window-maximized="0"
     inkscape:current-layer="svg3880" />
  <defs
     id="defs3882">
    <linearGradient
       id="linearGradient849">
      <stop
         id="stop845"
         offset="0"
         style="stop-color:#ffe16b;stop-opacity:1" />
      <stop
         id="stop847"
         offset="1"
         style="stop-color:#f9c440;stop-opacity:1" />
    </linearGradient>
    <linearGradient
       gradientTransform="translate(2.9799125,-3.1216548)"
       gradientUnits="userSpaceOnUse"
       xlink:href="#linearGradient8265-821-176-38-919-66-249"
       id="linearGradient3619"
       y2="33.95525"
       x2="15.214532"
       y1="22.292103"
       x1="11.566265" />
    <linearGradient
       id="linearGradient8265-821-176-38-919-66-249">
      <stop
         offset="0"
         style="stop-color:#ffffff;stop-opacity:0.27450982"
         id="stop2687" />
      <stop
         offset="1"
         style="stop-color:#ffffff;stop-opacity:0"
         id="stop2689" />
    </linearGradient>
    <linearGradient
       gradientUnits="userSpaceOnUse"
       xlink:href="#linearGradient3881"
       id="linearGradient3648"
       y2="43.443626"
       x2="29.646643"
       y1="2"
       x1="29.646643" />
    <linearGradient
       id="linearGradient3881">
      <stop
         offset="0"
         style="stop-color:#ffffff;stop-opacity:1"
         id="stop3883" />
      <stop
         offset="0.33380178"
         style="stop-color:#ffffff;stop-opacity:0.23529412"
         id="stop3885" />
      <stop
         offset="0.67927718"
         style="stop-color:#ffffff;stop-opacity:0.15686275"
         id="stop3887" />
      <stop
         offset="1"
         style="stop-color:#ffffff;stop-opacity:0.39215687"
         id="stop3889" />
    </linearGradient>
    <linearGradient
       id="linearGradient8838">
      <stop
         offset="0"
         style="stop-color:#000000;stop-opacity:1"
         id="stop8840" />
      <stop
         offset="1"
         style="stop-color:#000000;stop-opacity:0"
         id="stop8842" />
    </linearGradient>
    <radialGradient
       gradientTransform="matrix(2.1647059,0,0,0.84705771,-111.56471,35.082353)"
       gradientUnits="userSpaceOnUse"
       xlink:href="#linearGradient8838"
       id="radialGradient3878"
       fy="4.625"
       fx="62.625"
       r="10.625"
       cy="4.625"
       cx="62.625" />
    <linearGradient
       gradientUnits="userSpaceOnUse"
       y2="45.013279"
       x2="23.999998"
       y1="1.4961348"
       x1="23.999998"
       id="linearGradient851"
       xlink:href="#linearGradient849" />
  </defs>
  <metadata
     id="metadata3885">
    <rdf:RDF>
      <cc:Work
         rdf:about="">
        <dc:format>image/svg+xml</dc:format>
        <dc:type
           rdf:resource="http://purl.org/dc/dcmitype/StillImage" />
      </cc:Work>
    </rdf:RDF>
  </metadata>
  <path
     d="m 47,39 c 0,4.970563 -10.297453,9 -23,9 -12.702548,0 -23,-4.029437 -23,-9 0,-4.970563 10.297452,-9 23,-9 12.702547,0 23,4.029437 23,9 z"
     id="path8836"
     style="display:inline;overflow:visible;visibility:visible;opacity:0.3;fill:url(#radialGradient3878);fill-opacity:1;fill-rule:evenodd;stroke:none;stroke-width:0.99999988;marker:none" />
  <path
     d="m 23.999999,1.4961347 c 1.518797,0 6.415369,12.2754723 7.644103,13.1714173 1.228732,0.895944 14.374596,1.776317 14.843931,3.225986 0.469334,1.449669 -9.650283,9.916699 -10.119617,11.366368 -0.469334,1.449669 2.758685,14.269241 1.529951,15.165186 -1.228733,0.895944 -12.379571,-6.146615 -13.89837,-6.146615 -1.518797,0 -12.669635,7.042559 -13.898369,6.146615 C 8.8728956,43.529147 12.100914,30.709574 11.63158,29.259906 11.162246,27.810237 1.0426298,19.343205 1.5119642,17.893536 1.9812985,16.443869 15.127162,15.563496 16.355896,14.667552 17.584628,13.771607 22.481202,1.4961347 23.999999,1.4961347 Z"
     id="path1307"
     style="display:inline;overflow:visible;visibility:visible;fill:url(#linearGradient851);fill-opacity:1;fill-rule:nonzero;stroke:#ad5f00;stroke-width:0.9922713;stroke-linecap:butt;stroke-linejoin:round;stroke-miterlimit:4;stroke-dasharray:none;stroke-dashoffset:0;stroke-opacity:0.49803922;marker:none" />
  <path
     d="m 24,2.5 c 2.255601,4.3171106 4.478429,8.952433 6.73403,13.269542 4.843973,0.789864 10.26201,1.380836 14.771263,2.50542 -3.449934,3.457984 -6.875961,7.131147 -10.325895,10.589132 0.738138,4.805274 1.300453,9.696699 2.038592,14.501973 C 32.830213,41.18611 28.355003,39.093584 23.967226,36.913625 19.579447,39.093584 15.19167,41.273542 10.803892,43.453499 11.542029,38.648225 11.929163,33.581617 12.6673,28.776343 9.2173666,25.318358 5.9355586,21.692246 2.4856257,18.234262 7.329597,17.444398 12.356449,16.559406 17.20042,15.769542 19.456021,11.452433 21.744398,6.8171106 24,2.5 Z"
     id="path1309"
     style="display:inline;overflow:visible;visibility:visible;opacity:0.8;fill:none;stroke:url(#linearGradient3648);stroke-width:0.99999994;stroke-linecap:butt;stroke-linejoin:round;stroke-miterlimit:4;stroke-dasharray:none;stroke-dashoffset:0;stroke-opacity:1;marker:none" />
  <path
     d="m 24.023909,2.0218291 c 0,0 4.502337,7.4701031 7.020932,13.3173589 4.843973,0.789864 10.309827,1.404745 14.914715,2.720597 0,0 -2.463879,2.468624 -3.480641,3.487759 0,0 -31.782299,5.712288 -31.782299,5.712288 C 7.7999341,24.283482 4.5120994,21.39468 1.9615429,18.048297 5.5144527,16.97153 12.093455,16.105144 16.937426,15.31528 20.29282,7.4118887 24.023909,2.0218291 24.023909,2.0218291 Z"
     id="path3382"
     style="display:inline;overflow:visible;visibility:visible;opacity:0.8;fill:url(#linearGradient3619);fill-opacity:1;fill-rule:nonzero;stroke:none;stroke-width:1;marker:none;enable-background:accumulate" />
  <path
     id="path1881"
     d="m 15.93357,32.822838 c -0.0286,-0.0817 0.04173,-0.461561 0.156278,-0.844141 0.226491,-0.756418 0.261926,-1.037355 0.140919,-1.117222 -0.04303,-0.02839 -0.305727,0.02734 -0.583795,0.123841 -0.580037,0.201309 -0.760983,0.163639 -0.751589,-0.156473 0.0069,-0.235012 0.220121,-0.544939 0.730132,-1.061258 l 0.298566,-0.302256 0.04481,-1.483094 c 0.03989,-1.320408 0.07191,-1.554857 0.291901,-2.137311 0.1359,-0.359818 0.373217,-0.846566 0.52737,-1.081662 0.154153,-0.235097 0.28154,-0.470456 0.283082,-0.523023 0.0015,-0.05256 -0.296722,-0.397607 -0.662809,-0.766761 -1.189914,-1.199874 -3.114716,-2.498241 -5.310078,-3.581888 -1.4244545,-0.703121 -2.4132635,-1.262661 -2.5015895,-1.415583 -0.08918,-0.1544 0.111124,-0.08911 0.858816,0.279905 0.403045,0.198923 1.4093445,0.607282 2.2362215,0.907464 2.213385,0.803528 3.363184,1.485277 5.058619,2.999402 0.476387,0.425445 0.912522,0.804134 0.969186,0.841534 0.05667,0.0374 0.377589,-0.06054 0.713167,-0.217642 0.769311,-0.360159 1.107065,-0.348386 3.535887,0.123238 1.250015,0.242724 2.033966,0.347128 2.58319,0.344022 l 0.78853,-0.0045 0.427949,-0.726613 c 0.393579,-0.668262 0.42103,-0.754736 0.341797,-1.076669 -0.204642,-0.831471 -0.0021,-1.771599 0.427596,-1.985842 0.487593,-0.243049 0.822354,0.04783 1.408775,1.224124 0.214367,0.429994 0.441779,0.764682 0.521167,0.767016 0.166751,0.0049 0.165131,-0.09636 -0.01357,-0.848683 -0.184906,-0.778428 -0.07708,-1.421409 0.297657,-1.775111 0.231636,-0.21863 0.331263,-0.252355 0.580667,-0.196576 0.580239,0.129773 0.821202,0.686678 0.906133,2.094202 0.0244,0.404263 0.08245,0.760168 0.129011,0.790901 0.04655,0.03074 0.579606,0.171642 1.184539,0.313133 3.008937,0.70377 4.222976,1.515048 4.18536,2.796856 -0.0085,0.289349 -0.08802,0.407472 -0.543841,0.807751 -0.535031,0.46984 -1.823734,1.197147 -3.477082,1.962362 -1.2504,0.57872 -1.298648,0.84011 -0.365539,1.980367 0.550936,0.673243 0.70803,1.00245 0.574839,1.204641 -0.08763,0.133021 -0.428961,0.0767 -1.474432,-0.24326 -1.061492,-0.324867 -1.171496,-0.242143 -0.625858,0.470653 0.706659,0.923138 0.83902,1.435604 0.402959,1.560155 -0.210947,0.06026 -0.988387,-0.225472 -2.43228,-0.893918 l -1.070143,-0.495428 -0.570197,0.09502 c -0.313608,0.05227 -1.592168,0.0859 -2.841245,0.07474 -2.171097,-0.0194 -2.325854,-0.03284 -3.516295,-0.305143 -1.197178,-0.273862 -1.253659,-0.278662 -1.463205,-0.124329 -0.119876,0.08829 -0.670269,0.518923 -1.22309,0.956961 -0.552824,0.438037 -1.032437,0.796017 -1.065809,0.795512 -0.03337,-4.38e-4 -0.08408,-0.06775 -0.112677,-0.149458 z m 16.37464,-6.052386 c 0.243394,-0.244438 0.188432,-0.553978 -0.07465,-0.420447 -0.302566,0.153573 -0.824417,0.724507 -0.761608,0.833248 0.07201,0.124666 0.52254,-0.09774 0.83626,-0.412801 z m -0.653942,-0.626281 c 0.259274,-0.102719 0.473123,-0.245268 0.475222,-0.316766 0.0051,-0.17697 -0.113762,-0.167424 -0.611296,0.04906 -0.874938,0.380689 -0.753265,0.620064 0.136074,0.26771 z m -0.905563,-1.519438 c 0.0014,-0.0478 -0.123449,-0.118525 -0.277452,-0.157161 -0.154003,-0.03863 -0.35789,-0.175579 -0.453079,-0.304321 -0.313823,-0.424426 -0.392326,-0.273932 -0.112958,0.216553 0.146393,0.257023 0.236624,0.314075 0.509424,0.322094 0.182336,0.0054 0.332665,-0.02936 0.334069,-0.07717 z m 0.387481,-0.958532 c 0.04917,-0.436252 -0.193863,-0.628873 -0.521436,-0.413274 -0.394247,0.259479 -0.217942,0.821421 0.245036,0.781017 0.19894,-0.01737 0.243603,-0.07678 0.2764,-0.367743 z m 3.918278,-0.930187 c 0.0036,-0.220668 0.57091,-1.327266 0.753618,-1.470193 0.282288,-0.220819 0.251436,0.01177 -0.08113,0.611637 -0.431921,0.779083 -0.676356,1.091152 -0.672488,0.858556 z m -0.64777,-0.472886 c 0.01194,-0.34168 0.121247,-0.653192 0.228117,-0.650048 0.05709,0.0016 0.06431,0.140634 0.01843,0.354906 -0.09147,0.427246 -0.258125,0.626755 -0.246547,0.295142 z M 8.0000425,18.089492 c 0.0035,-0.120984 0.07034,-0.119022 0.141486,0.0042 0.03054,0.05286 0.01062,0.09481 -0.04437,0.09319 -0.05494,-0.0016 -0.09864,-0.04543 -0.09712,-0.09735 z"
     style="fill:#ad5f00;fill-opacity:0.7;stroke:none;stroke-width:0.999992" />
</svg>
