<?xml version="1.0" encoding="UTF-8" standalone="no"?>
<svg
   version="1.0"
   width="48"
   height="48"
   id="svg3386"
   sodipodi:docname="org.xfce.screenshooter.svg"
   inkscape:version="1.1.2 (0a00cf5339, 2022-02-04)"
   xmlns:inkscape="http://www.inkscape.org/namespaces/inkscape"
   xmlns:sodipodi="http://sodipodi.sourceforge.net/DTD/sodipodi-0.dtd"
   xmlns:xlink="http://www.w3.org/1999/xlink"
   xmlns="http://www.w3.org/2000/svg"
   xmlns:svg="http://www.w3.org/2000/svg"
   xmlns:rdf="http://www.w3.org/1999/02/22-rdf-syntax-ns#"
   xmlns:cc="http://creativecommons.org/ns#"
   xmlns:dc="http://purl.org/dc/elements/1.1/">
  <sodipodi:namedview
     id="namedview52"
     pagecolor="#ffffff"
     bordercolor="#666666"
     borderopacity="1.0"
     inkscape:pageshadow="2"
     inkscape:pageopacity="0.0"
     inkscape:pagecheckerboard="0"
     showgrid="false"
     inkscape:zoom="14.208334"
     inkscape:cx="25.302052"
     inkscape:cy="18.791789"
     inkscape:window-width="1317"
     inkscape:window-height="893"
     inkscape:window-x="624"
     inkscape:window-y="86"
     inkscape:window-maximized="0"
     inkscape:current-layer="svg3386"
     inkscape:snap-object-midpoints="true"
     inkscape:snap-center="true" />
  <metadata
     id="metadata98980">
    <rdf:RDF>
      <cc:Work
         rdf:about="">
        <dc:format>image/svg+xml</dc:format>
        <dc:type
           rdf:resource="http://purl.org/dc/dcmitype/StillImage" />
      </cc:Work>
    </rdf:RDF>
  </metadata>
  <defs
     id="defs3388">
    <linearGradient
       id="linearGradient10691-1">
      <stop
         id="stop10693-3"
         style="stop-color:#000000;stop-opacity:1"
         offset="0" />
      <stop
         id="stop10695-1"
         style="stop-color:#000000;stop-opacity:0"
         offset="1" />
    </linearGradient>
    <radialGradient
       cx="6.702713"
       cy="73.615715"
       r="7.228416"
       fx="6.702713"
       fy="73.615715"
       id="radialGradient2452"
       xlink:href="#linearGradient10691-1"
       gradientUnits="userSpaceOnUse"
       gradientTransform="matrix(1.9368007,0,0,0.4150287,11.018182,13.447365)" />
    <linearGradient
       id="linearGradient4518">
      <stop
         id="stop4520"
         style="stop-color:#7e7e7e;stop-opacity:0.94901961"
         offset="0" />
      <stop
         id="stop4522"
         style="stop-color:#969696;stop-opacity:1"
         offset="1" />
    </linearGradient>
    <linearGradient
       x1="24.687456"
       y1="40.812702"
       x2="24.739107"
       y2="33.999802"
       id="linearGradient2449"
       xlink:href="#linearGradient4518"
       gradientUnits="userSpaceOnUse"
       gradientTransform="matrix(1.116455,0,0,1,-2.7949567,2.000003)" />
    <linearGradient
       id="linearGradient4510">
      <stop
         id="stop4512"
         style="stop-color:#a5a6aa;stop-opacity:1"
         offset="0" />
      <stop
         id="stop4514"
         style="stop-color:#e2e2e4;stop-opacity:1"
         offset="0.22134377" />
      <stop
         id="stop4516"
         style="stop-color:#595959;stop-opacity:1"
         offset="1" />
    </linearGradient>
    <linearGradient
       x1="318.42093"
       y1="93.29171"
       x2="318.42093"
       y2="78.342476"
       id="linearGradient2447"
       xlink:href="#linearGradient4510"
       gradientUnits="userSpaceOnUse"
       gradientTransform="matrix(1.4628351,0,0,0.7083672,-444.01094,-22.190508)" />
    <linearGradient
       id="linearGradient3342">
      <stop
         id="stop3344"
         style="stop-color:#ffffff;stop-opacity:0"
         offset="0" />
      <stop
         id="stop3346"
         style="stop-color:#ffffff;stop-opacity:1"
         offset="1" />
    </linearGradient>
    <linearGradient
       x1="15.573899"
       y1="46.971004"
       x2="23.593679"
       y2="46.971004"
       id="linearGradient2444"
       xlink:href="#linearGradient3342"
       gradientUnits="userSpaceOnUse"
       gradientTransform="matrix(1.1176471,0,0,1,-2.3519696,-3.4710029)"
       spreadMethod="reflect" />
    <linearGradient
       id="linearGradient9936">
      <stop
         id="stop9938"
         style="stop-color:#575757;stop-opacity:1"
         offset="0" />
      <stop
         id="stop9940"
         style="stop-color:#333333;stop-opacity:1"
         offset="1" />
    </linearGradient>
    <radialGradient
       cx="12.244348"
       cy="4.8630676"
       r="20.999998"
       fx="12.244348"
       fy="4.8630676"
       id="radialGradient2440"
       xlink:href="#linearGradient9936"
       gradientUnits="userSpaceOnUse"
       gradientTransform="matrix(1.4167634,1.999111e-2,-1.319114e-2,1.1175011,-5.3255699,6.599117)" />
    <linearGradient
       id="linearGradient2867-449-88-871-390-598-476-591-434-148">
      <stop
         id="stop4627"
         style="stop-color:#51cfee;stop-opacity:1"
         offset="0" />
      <stop
         id="stop4629"
         style="stop-color:#49a3d2;stop-opacity:1"
         offset="0.26238" />
      <stop
         id="stop4631"
         style="stop-color:#3470b4;stop-opacity:1"
         offset="0.704952" />
      <stop
         id="stop4633"
         style="stop-color:#1b5699;stop-opacity:1"
         offset="1" />
    </linearGradient>
    <radialGradient
       cx="2.6082575"
       cy="-16.638557"
       r="23"
       fx="2.6082575"
       fy="-16.638557"
       id="radialGradient3382"
       xlink:href="#linearGradient3302"
       gradientUnits="userSpaceOnUse"
       gradientTransform="matrix(9.2228424e-8,1.4278012,-2.2908757,6.4501052e-8,-14.116869,4.9248736)" />
    <linearGradient
       id="linearGradient6592-2-7-4-6">
      <stop
         id="stop6594-0-2-6-7"
         style="stop-color:#ffffff;stop-opacity:0.275"
         offset="0" />
      <stop
         id="stop6596-2-5-9-6"
         style="stop-color:#ffffff;stop-opacity:0"
         offset="1" />
    </linearGradient>
    <linearGradient
       x1="12.9375"
       y1="8.4375"
       x2="15.25"
       y2="19.8125"
       id="linearGradient2432"
       xlink:href="#linearGradient6592-2-7-4-6"
       gradientUnits="userSpaceOnUse"
       gradientTransform="matrix(1.0952382,0,0,1.3333324,-2.2857144,2.4e-6)" />
    <filter
       height="1.2152719"
       y="-0.10763596"
       width="1.173617"
       x="-0.086808516"
       id="filter3198">
      <feGaussianBlur
         id="feGaussianBlur3200"
         stdDeviation="0.71790553" />
    </filter>
    <linearGradient
       id="linearGradient8589-4-3">
      <stop
         id="stop8591-7-2"
         style="stop-color:#fefefe;stop-opacity:1"
         offset="0" />
      <stop
         id="stop8593-2-4"
         style="stop-color:#d4d4d4;stop-opacity:1"
         offset="1" />
    </linearGradient>
    <linearGradient
       x1="32.892288"
       y1="8.0590115"
       x2="37.294369"
       y2="3.9418173"
       id="linearGradient3225"
       xlink:href="#linearGradient8589-4-3"
       gradientUnits="userSpaceOnUse"
       gradientTransform="matrix(1.4357745,0,0,1.5351225,-14.50942,3.632103)" />
    <linearGradient
       inkscape:collect="always"
       id="linearGradient3302">
      <stop
         style="stop-color:#3689e6;stop-opacity:1;"
         offset="0"
         id="stop3298" />
      <stop
         style="stop-color:#64baff;stop-opacity:1"
         offset="1"
         id="stop3300" />
    </linearGradient>
    <linearGradient
       inkscape:collect="always"
       xlink:href="#linearGradient3302"
       id="linearGradient1238"
       x1="22.252474"
       y1="34.39389"
       x2="22.252474"
       y2="5.8828321"
       gradientUnits="userSpaceOnUse" />
    <radialGradient
       xlink:href="#linearGradient3810"
       id="radialGradient3816"
       cx="12"
       cy="15.166395"
       fx="12"
       fy="15.166395"
       r="4.0006957"
       gradientTransform="matrix(-0.55698928,1.3924728,-2.4995652,-0.99982634,71.030765,26.5791)"
       gradientUnits="userSpaceOnUse" />
    <linearGradient
       id="linearGradient3810">
      <stop
         style="stop-color:#a60101;stop-opacity:1;"
         offset="0"
         id="stop3812" />
      <stop
         style="stop-color:#5f0101;stop-opacity:1;"
         offset="1"
         id="stop3814" />
    </linearGradient>
    <radialGradient
       xlink:href="#linearGradient3810"
       id="radialGradient3824"
       cx="9"
       cy="1035.5266"
       fx="9"
       fy="1035.5266"
       r="4.0006957"
       gradientTransform="matrix(-1.9795548,0.28278205,-0.24994327,-1.749674,285.6389,2844.6513)"
       gradientUnits="userSpaceOnUse" />
    <radialGradient
       xlink:href="#linearGradient3764"
       id="radialGradient3784"
       gradientUnits="userSpaceOnUse"
       gradientTransform="matrix(-0.56710644,-1.1342033,-1.7012993,0.85065685,1798.8381,-843.2899)"
       cx="14.999991"
       cy="1039.7"
       fx="14.999991"
       fy="1039.7"
       r="3.5266583" />
    <linearGradient
       id="linearGradient3764">
      <stop
         style="stop-color:#d1d1d1;stop-opacity:1;"
         offset="0"
         id="stop3766" />
      <stop
         style="stop-color:#eaeaea;stop-opacity:1;"
         offset="1"
         id="stop3768" />
    </linearGradient>
    <linearGradient
       xlink:href="#linearGradient3774"
       id="linearGradient3786"
       gradientUnits="userSpaceOnUse"
       x1="17"
       y1="1042.3622"
       x2="15"
       y2="1038.3622"
       gradientTransform="matrix(-1,0,0,1,36.490816,-1017.2372)" />
    <linearGradient
       id="linearGradient3774">
      <stop
         style="stop-color:#444444;stop-opacity:1;"
         offset="0"
         id="stop3776" />
      <stop
         style="stop-color:#9e9e9e;stop-opacity:1;"
         offset="1"
         id="stop3778" />
    </linearGradient>
    <radialGradient
       xlink:href="#linearGradient3764"
       id="radialGradient3772"
       cx="14.999991"
       cy="1039.7"
       fx="14.999991"
       fy="1039.7"
       r="3.5266583"
       gradientTransform="matrix(0.56710644,-1.1342033,1.7012993,0.85065685,-1747.9098,-843.2899)"
       gradientUnits="userSpaceOnUse" />
    <linearGradient
       xlink:href="#linearGradient3774"
       id="linearGradient3780"
       x1="17"
       y1="1042.3622"
       x2="15"
       y2="1038.3622"
       gradientUnits="userSpaceOnUse"
       gradientTransform="translate(14.4375,-1017.2372)" />
  </defs>
  <g
     id="layer1">
    <path
       d="M 38,44 C 38,45.656855 31.731986,47 23.999999,47 C 16.268013,47 10,45.656855 10,44 C 10,42.343146 16.268013,41 23.999999,41 C 31.731986,41 38,42.343146 38,44 L 38,44 z"
       id="path2589"
       style="opacity:0.3;fill:url(#radialGradient2452);fill-opacity:1;fill-rule:nonzero;stroke:none;stroke-width:0.80000001;marker:none;visibility:visible;display:inline;overflow:visible" />
    <path
       d="M 17.859462,36.249806 C 17.859462,36.249806 18.001234,40.507576 17.294118,41.5 C 16.587002,42.492424 15.17997,42.504 15.17997,42.504 C 14.277082,42.608262 14.269613,44.5 15.17997,44.5 L 32.81996,44.5 C 33.730317,44.5 33.723037,42.606932 32.81996,42.504 C 32.81996,42.504 31.412989,42.49242 30.705883,41.5 C 29.998777,40.507578 30.140468,36.249806 30.140468,36.249806 L 17.859462,36.249806 L 17.859462,36.249806 z"
       id="rect1789"
       style="fill:url(#linearGradient2447);fill-opacity:1;stroke:url(#linearGradient2449);stroke-width:1;stroke-linecap:round;stroke-linejoin:round;stroke-miterlimit:4;stroke-dasharray:none;stroke-dashoffset:0.50000001;stroke-opacity:1;display:inline;enable-background:new" />
    <path
       d="M 15.612977,43.5 L 32.387023,43.5"
       id="path3340"
       style="fill:none;stroke:url(#linearGradient2444);stroke-width:1px;stroke-linecap:square;stroke-linejoin:miter;stroke-opacity:1" />
    <rect
       width="46.999763"
       height="32.99976"
       rx="1.0444448"
       ry="1"
       x="0.5001179"
       y="3.5001206"
       id="rect2722"
       style="fill:#1a1a1a;fill-opacity:1;stroke:#000000;stroke-width:1.00023937;stroke-linecap:round;stroke-linejoin:round;stroke-miterlimit:4;stroke-dasharray:none;stroke-dashoffset:0.50000001;stroke-opacity:1" />
    <rect
       width="42"
       height="28"
       x="3.0000002"
       y="6"
       id="rect2716"
       style="fill:url(#linearGradient1238);fill-opacity:1;fill-rule:evenodd;stroke:none;display:inline;enable-background:new" />
    <path
       d="M 1,4 H 47 V 16 L 1,28 Z"
       id="rect6588"
       style="fill:url(#linearGradient2432);fill-opacity:1;stroke:none"
       sodipodi:nodetypes="ccccc" />
    <rect
       style="fill:#ffffff;fill-opacity:1;stroke:none;stroke-width:0.999996;stroke-linecap:butt;stroke-linejoin:round;stroke-miterlimit:4;stroke-dasharray:none;stroke-dashoffset:0;stroke-opacity:1"
       id="rect2180"
       width="4"
       height="1"
       x="10"
       y="9" />
    <rect
       style="fill:#ffffff;fill-opacity:1;stroke:none;stroke-width:0.999996;stroke-linecap:butt;stroke-linejoin:round;stroke-miterlimit:4;stroke-dasharray:none;stroke-dashoffset:0;stroke-opacity:1"
       id="rect2306"
       width="4"
       height="1"
       x="16"
       y="9" />
    <rect
       style="fill:#ffffff;fill-opacity:1;stroke:none;stroke-width:0.999996;stroke-linecap:butt;stroke-linejoin:round;stroke-miterlimit:4;stroke-dasharray:none;stroke-dashoffset:0;stroke-opacity:1"
       id="rect2312"
       width="4"
       height="1"
       x="28"
       y="9" />
    <rect
       style="fill:#ffffff;fill-opacity:1;stroke:none;stroke-width:0.999996;stroke-linecap:butt;stroke-linejoin:round;stroke-miterlimit:4;stroke-dasharray:none;stroke-dashoffset:0;stroke-opacity:1"
       id="rect2314"
       width="4"
       height="1"
       x="34"
       y="9" />
    <rect
       style="fill:#ffffff;fill-opacity:1;stroke:none;stroke-width:0.999996;stroke-linecap:butt;stroke-linejoin:round;stroke-miterlimit:4;stroke-dasharray:none;stroke-dashoffset:0;stroke-opacity:1"
       id="rect2328"
       width="4"
       height="1"
       x="10"
       y="30" />
    <rect
       style="fill:#ffffff;fill-opacity:1;stroke:none;stroke-width:0.999996;stroke-linecap:butt;stroke-linejoin:round;stroke-miterlimit:4;stroke-dasharray:none;stroke-dashoffset:0;stroke-opacity:1"
       id="rect2330"
       width="4"
       height="1"
       x="16"
       y="30" />
    <rect
       style="fill:#ffffff;fill-opacity:1;stroke:none;stroke-width:0.999996;stroke-linecap:butt;stroke-linejoin:round;stroke-miterlimit:4;stroke-dasharray:none;stroke-dashoffset:0;stroke-opacity:1"
       id="rect2336"
       width="4"
       height="1"
       x="28"
       y="30" />
    <rect
       style="fill:#ffffff;fill-opacity:1;stroke:none;stroke-width:0.999996;stroke-linecap:butt;stroke-linejoin:round;stroke-miterlimit:4;stroke-dasharray:none;stroke-dashoffset:0;stroke-opacity:1"
       id="rect2338"
       width="4"
       height="1"
       x="34"
       y="30" />
    <rect
       style="fill:#ffffff;fill-opacity:1;stroke:none;stroke-width:0.999996;stroke-linecap:butt;stroke-linejoin:round;stroke-miterlimit:4;stroke-dasharray:none;stroke-dashoffset:0;stroke-opacity:1"
       id="rect2340"
       width="4"
       height="1"
       x="9"
       y="-11"
       transform="rotate(90)" />
    <rect
       style="fill:#ffffff;fill-opacity:1;stroke:none;stroke-width:0.999996;stroke-linecap:butt;stroke-linejoin:round;stroke-miterlimit:4;stroke-dasharray:none;stroke-dashoffset:0;stroke-opacity:1"
       id="rect2342"
       width="4"
       height="1"
       x="14.999999"
       y="-11"
       transform="rotate(90)" />
    <rect
       style="fill:#ffffff;fill-opacity:1;stroke:none;stroke-width:0.999996;stroke-linecap:butt;stroke-linejoin:round;stroke-miterlimit:4;stroke-dasharray:none;stroke-dashoffset:0;stroke-opacity:1"
       id="rect2344"
       width="4"
       height="1"
       x="21"
       y="-11"
       transform="rotate(90)" />
    <rect
       style="fill:#ffffff;fill-opacity:1;stroke:none;stroke-width:0.999996;stroke-linecap:butt;stroke-linejoin:round;stroke-miterlimit:4;stroke-dasharray:none;stroke-dashoffset:0;stroke-opacity:1"
       id="rect2346"
       width="4"
       height="1"
       x="27"
       y="-11"
       transform="rotate(90)" />
    <rect
       style="fill:#ffffff;fill-opacity:1;stroke:none;stroke-width:0.999996;stroke-linecap:butt;stroke-linejoin:round;stroke-miterlimit:4;stroke-dasharray:none;stroke-dashoffset:0;stroke-opacity:1"
       id="rect2432"
       width="4"
       height="1"
       x="9"
       y="-38"
       transform="rotate(90)" />
    <rect
       style="fill:#ffffff;fill-opacity:1;stroke:none;stroke-width:0.999996;stroke-linecap:butt;stroke-linejoin:round;stroke-miterlimit:4;stroke-dasharray:none;stroke-dashoffset:0;stroke-opacity:1"
       id="rect2434"
       width="4"
       height="1"
       x="14.999999"
       y="-38"
       transform="rotate(90)" />
    <rect
       style="fill:#ffffff;fill-opacity:1;stroke:none;stroke-width:0.999996;stroke-linecap:butt;stroke-linejoin:round;stroke-miterlimit:4;stroke-dasharray:none;stroke-dashoffset:0;stroke-opacity:1"
       id="rect2436"
       width="4"
       height="1"
       x="21"
       y="-38"
       transform="rotate(90)" />
    <rect
       style="fill:#ffffff;fill-opacity:1;stroke:none;stroke-width:0.999996;stroke-linecap:butt;stroke-linejoin:round;stroke-miterlimit:4;stroke-dasharray:none;stroke-dashoffset:0;stroke-opacity:1"
       id="rect2438"
       width="4"
       height="1"
       x="27"
       y="-38"
       transform="rotate(90)" />
    <rect
       style="fill:#ffffff;fill-opacity:1;stroke:none;stroke-width:0.999996;stroke-linecap:butt;stroke-linejoin:round;stroke-miterlimit:4;stroke-dasharray:none;stroke-dashoffset:0;stroke-opacity:1"
       id="rect6403"
       width="4"
       height="1"
       x="22"
       y="9" />
    <rect
       style="fill:#ffffff;fill-opacity:1;stroke:none;stroke-width:0.999996;stroke-linecap:butt;stroke-linejoin:round;stroke-miterlimit:4;stroke-dasharray:none;stroke-dashoffset:0;stroke-opacity:1"
       id="rect6405"
       width="4"
       height="1"
       x="22"
       y="30" />
  </g>
  <path
     id="path3871"
     style="line-height:normal;font-variant-ligatures:normal;font-variant-position:normal;font-variant-caps:normal;font-variant-numeric:normal;font-variant-alternates:normal;font-feature-settings:normal;text-indent:0;text-align:start;text-decoration-line:none;text-decoration-style:solid;text-decoration-color:#000000;text-transform:none;text-orientation:mixed;shape-padding:0;isolation:auto;mix-blend-mode:normal;fill:#000000;fill-opacity:0.1;stroke-width:1"
     d="m 19.466671,11.566666 c -0.51,2.04 -0.597267,3.759267 0.566666,5.666667 l 2.950652,3.904687 -0.188152,0.336459 c -0.02561,0.04657 -0.05766,0.08854 -0.09518,0.126172 l -1.060287,1.060285 a 2.8333333,2.8333333 0 0 0 -1.323702,-0.327603 2.8333333,2.8333333 0 0 0 -2.833334,2.833333 2.8333333,2.8333333 0 0 0 2.833334,2.833333 2.8333333,2.8333333 0 0 0 2.833333,-2.833333 2.8333333,2.8333333 0 0 0 -0.46927,-1.560547 l 1.299347,-0.976172 1.325912,0.996094 a 2.8333333,2.8333333 0 0 0 -0.45599,1.540625 2.8333333,2.8333333 0 0 0 2.833333,2.833333 2.8333333,2.8333333 0 0 0 2.833333,-2.833333 2.8333333,2.8333333 0 0 0 -2.833333,-2.833333 2.8333333,2.8333333 0 0 0 -1.34362,0.347526 l -1.080208,-1.080208 c -0.03751,-0.03764 -0.06956,-0.07961 -0.09518,-0.126172 l -0.181515,-0.327605 2.983853,-3.913541 c 1.161667,-1.879067 1.071,-3.649333 0.566667,-5.666667 l -4.553255,7.776172 z m 4.495703,9.323437 h 0.01992 c 0.379067,0.01366 0.353892,0.564453 -0.0088,0.564453 -0.362746,0 -0.390132,-0.550796 -0.01111,-0.564453 z m -3.645704,2.859896 a 1.4166666,1.4166666 0 0 1 1.416666,1.416667 1.4166666,1.4166666 0 0 1 -1.416666,1.416666 1.4166666,1.4166666 0 0 1 -1.416667,-1.416666 1.4166666,1.4166666 0 0 1 1.416667,-1.416667 z m 7.366667,0 a 1.4166666,1.4166666 0 0 1 1.416667,1.416667 1.4166666,1.4166666 0 0 1 -1.416667,1.416666 1.4166666,1.4166666 0 0 1 -1.416667,-1.416666 1.4166666,1.4166666 0 0 1 1.416667,-1.416667 z" />
  <path
     id="path2"
     style="line-height:normal;font-variant-ligatures:normal;font-variant-position:normal;font-variant-caps:normal;font-variant-numeric:normal;font-variant-alternates:normal;font-feature-settings:normal;text-indent:0;text-align:start;text-decoration-line:none;text-decoration-style:solid;text-decoration-color:#000000;text-transform:none;text-orientation:mixed;shape-padding:0;isolation:auto;mix-blend-mode:normal;fill:#ffffff;fill-opacity:1;stroke-width:1"
     d="m 19.466671,11 c -0.51,2.04 -0.597267,3.759266 0.566666,5.666666 l 2.950652,3.904687 -0.188152,0.336459 c -0.02561,0.04657 -0.05766,0.08854 -0.09518,0.126172 L 21.64037,22.09427 a 2.8333333,2.8333333 0 0 0 -1.323702,-0.327604 2.8333333,2.8333333 0 0 0 -2.833334,2.833333 2.8333333,2.8333333 0 0 0 2.833334,2.833333 2.8333333,2.8333333 0 0 0 2.833333,-2.833333 2.8333333,2.8333333 0 0 0 -0.46927,-1.560546 l 1.299347,-0.976172 1.325912,0.996093 a 2.8333333,2.8333333 0 0 0 -0.45599,1.540625 2.8333333,2.8333333 0 0 0 2.833333,2.833333 2.8333333,2.8333333 0 0 0 2.833333,-2.833333 2.8333333,2.8333333 0 0 0 -2.833333,-2.833333 2.8333333,2.8333333 0 0 0 -1.34362,0.347526 l -1.080208,-1.080208 c -0.03751,-0.03764 -0.06956,-0.07961 -0.09518,-0.126172 L 24.98281,20.580208 27.966663,16.666666 C 29.128337,14.787599 29.03767,13.017333 28.533337,11 l -4.553255,7.776171 z m 4.495703,9.323436 h 0.01992 c 0.379067,0.01366 0.353892,0.564454 -0.0088,0.564454 -0.362746,0 -0.390132,-0.550797 -0.01111,-0.564454 z m -3.645704,2.859897 a 1.4166666,1.4166666 0 0 1 1.416666,1.416666 1.4166666,1.4166666 0 0 1 -1.416666,1.416667 1.4166666,1.4166666 0 0 1 -1.416667,-1.416667 1.4166666,1.4166666 0 0 1 1.416667,-1.416666 z m 7.366667,0 a 1.4166666,1.4166666 0 0 1 1.416667,1.416666 1.4166666,1.4166666 0 0 1 -1.416667,1.416667 1.4166666,1.4166666 0 0 1 -1.416667,-1.416667 1.4166666,1.4166666 0 0 1 1.416667,-1.416666 z" />
</svg>
