<?xml version="1.0" encoding="UTF-8" standalone="no"?>
<svg
   xmlns:dc="http://purl.org/dc/elements/1.1/"
   xmlns:cc="http://creativecommons.org/ns#"
   xmlns:rdf="http://www.w3.org/1999/02/22-rdf-syntax-ns#"
   xmlns:svg="http://www.w3.org/2000/svg"
   xmlns="http://www.w3.org/2000/svg"
   xmlns:xlink="http://www.w3.org/1999/xlink"
   width="48px"
   height="48px"
   id="svg4112"
   version="1.1">
  <defs
     id="defs4114">
    <linearGradient
       xlink:href="#linearGradient3977"
       id="linearGradient3988"
       gradientUnits="userSpaceOnUse"
       gradientTransform="matrix(0.89189189,0,0,1.1351351,2.5945999,-4.7432315)"
       x1="23.99999"
       y1="5.5641499"
       x2="23.99999"
       y2="43" />
    <linearGradient
       id="linearGradient3977">
      <stop
         offset="0"
         style="stop-color:#ffffff;stop-opacity:1;"
         id="stop3979" />
      <stop
         id="stop3981"
         style="stop-color:#ffffff;stop-opacity:0.23529412;"
         offset="0.03626217" />
      <stop
         offset="0.95056331"
         style="stop-color:#ffffff;stop-opacity:0.15686275;"
         id="stop3983" />
      <stop
         offset="1"
         style="stop-color:#ffffff;stop-opacity:0.39215687;"
         id="stop3985" />
    </linearGradient>
    <radialGradient
       xlink:href="#linearGradient5060"
       id="radialGradient3327"
       gradientUnits="userSpaceOnUse"
       gradientTransform="matrix(0.02303995,0,0,0.01470022,26.360882,37.040176)"
       cx="605.71429"
       cy="486.64789"
       fx="605.71429"
       fy="486.64789"
       r="117.14286" />
    <linearGradient
       id="linearGradient5060">
      <stop
         id="stop5062"
         style="stop-color:#000000;stop-opacity:1"
         offset="0" />
      <stop
         id="stop5064"
         style="stop-color:#000000;stop-opacity:0"
         offset="1" />
    </linearGradient>
    <radialGradient
       xlink:href="#linearGradient5060"
       id="radialGradient3330"
       gradientUnits="userSpaceOnUse"
       gradientTransform="matrix(-0.02303994,0,0,0.01470022,21.62311,37.040176)"
       cx="605.71429"
       cy="486.64789"
       fx="605.71429"
       fy="486.64789"
       r="117.14286" />
    <linearGradient
       id="linearGradient5048">
      <stop
         id="stop5050"
         style="stop-color:#000000;stop-opacity:0"
         offset="0" />
      <stop
         id="stop5056"
         style="stop-color:#000000;stop-opacity:1"
         offset="0.5" />
      <stop
         id="stop5052"
         style="stop-color:#000000;stop-opacity:0"
         offset="1" />
    </linearGradient>
    <linearGradient
       y2="609.50507"
       x2="302.85715"
       y1="366.64789"
       x1="302.85715"
       gradientTransform="matrix(0.06732488,0,0,0.01470022,-0.3411391,37.040146)"
       gradientUnits="userSpaceOnUse"
       id="linearGradient4110"
       xlink:href="#linearGradient5048" />
    <radialGradient
       r="18.000002"
       fy="11.49049"
       fx="14.239056"
       cy="11.49049"
       cx="14.239056"
       gradientTransform="matrix(0,3.1785897,-5.2985257,0,74.19899,-39.503429)"
       gradientUnits="userSpaceOnUse"
       id="radialGradient3144-4"
       xlink:href="#linearGradient4145-42-322-778-541-32-432-871-622-7" />
    <linearGradient
       id="linearGradient4145-42-322-778-541-32-432-871-622-7">
      <stop
         id="stop5641-6"
         style="stop-color:#b5cc85;stop-opacity:1"
         offset="0" />
      <stop
         id="stop5643-5"
         style="stop-color:#9abe74;stop-opacity:1"
         offset="0.26238" />
      <stop
         id="stop5645-6"
         style="stop-color:#669f4d;stop-opacity:1"
         offset="0.704952" />
      <stop
         id="stop5647-9"
         style="stop-color:#47892b;stop-opacity:1"
         offset="1" />
    </linearGradient>
    <linearGradient
       y2="2.9062471"
       x2="-51.786404"
       y1="53.623615"
       x1="-51.786404"
       gradientTransform="matrix(0.8074968,0,0,0.8948322,59.41823,-2.9805541)"
       gradientUnits="userSpaceOnUse"
       id="linearGradient3146-3"
       xlink:href="#linearGradient4711-257-850-696-320-311-361-101-393-7" />
    <linearGradient
       id="linearGradient4711-257-850-696-320-311-361-101-393-7">
      <stop
         id="stop5651-4"
         style="stop-color:#425a2d;stop-opacity:1"
         offset="0" />
      <stop
         id="stop5653-5"
         style="stop-color:#7f956d;stop-opacity:1"
         offset="1" />
    </linearGradient>
    <linearGradient
       id="linearGradient8265-821-176-38-919-66-249-48-321">
      <stop
         id="stop5601"
         style="stop-color:#ffffff;stop-opacity:1"
         offset="0" />
      <stop
         id="stop5603"
         style="stop-color:#ffffff;stop-opacity:0"
         offset="1" />
    </linearGradient>
    <linearGradient
       y2="24.627615"
       x2="20.054544"
       y1="15.298182"
       x1="16.626165"
       gradientTransform="matrix(0.740136,0,0,1.3934396,6.244736,-7.3170934)"
       gradientUnits="userSpaceOnUse"
       id="linearGradient3051"
       xlink:href="#linearGradient8265-821-176-38-919-66-249-48-321" />
    <radialGradient
       xlink:href="#linearGradient5060-3"
       id="radialGradient3907"
       gradientUnits="userSpaceOnUse"
       gradientTransform="matrix(0.02303995,0,0,0.01470022,26.360882,36.963253)"
       cx="605.71429"
       cy="486.64789"
       fx="605.71429"
       fy="486.64789"
       r="117.14286" />
    <linearGradient
       id="linearGradient5060-3">
      <stop
         id="stop5062-5"
         style="stop-color:#000000;stop-opacity:1"
         offset="0" />
      <stop
         id="stop5064-2"
         style="stop-color:#000000;stop-opacity:0"
         offset="1" />
    </linearGradient>
    <linearGradient
       xlink:href="#linearGradient3412"
       id="linearGradient3909"
       gradientUnits="userSpaceOnUse"
       gradientTransform="matrix(1.3333334,0,0,-1.3333334,-16.166666,70.166667)"
       x1="42.783993"
       y1="32.537422"
       x2="38.972309"
       y2="18.12406" />
    <linearGradient
       id="linearGradient3412">
      <stop
         id="stop3414"
         style="stop-color:#fcfcfc;stop-opacity:1"
         offset="0" />
      <stop
         id="stop3416"
         style="stop-color:#cbcdd9;stop-opacity:1"
         offset="1" />
    </linearGradient>
    <linearGradient
       xlink:href="#linearGradient3428"
       id="linearGradient3911"
       gradientUnits="userSpaceOnUse"
       gradientTransform="matrix(1.33,0,0,-1.33,-16.064999,70.028077)"
       x1="40.105618"
       y1="31.65719"
       x2="33.811069"
       y2="18.353575" />
    <linearGradient
       id="linearGradient3428">
      <stop
         id="stop3430"
         style="stop-color:#ffffff;stop-opacity:1"
         offset="0" />
      <stop
         id="stop3432"
         style="stop-color:#ffffff;stop-opacity:0"
         offset="1" />
    </linearGradient>
  </defs>
  <metadata
     id="metadata4117">
    <rdf:RDF>
      <cc:Work
         rdf:about="">
        <dc:format>image/svg+xml</dc:format>
        <dc:type
           rdf:resource="http://purl.org/dc/dcmitype/StillImage" />
        <dc:title />
      </cc:Work>
    </rdf:RDF>
  </metadata>
  <g
     id="layer1">
    <rect
       style="opacity:0.3;fill:url(#linearGradient4110);fill-opacity:1;fill-rule:nonzero;stroke:none;stroke-width:1;marker:none;visibility:visible;display:inline;overflow:visible"
       id="rect2879"
       y="42.429947"
       x="7.7378473"
       height="3.5700529"
       width="32.508301" />
    <path
       style="opacity:0.3;fill:url(#radialGradient3330);fill-opacity:1;fill-rule:nonzero;stroke:none;stroke-width:1;marker:none;visibility:visible;display:inline;overflow:visible"
       id="path2881"
       d="m 7.7378475,42.430102 c 0,0 0,3.569856 0,3.569856 -1.1865002,0.0067 -2.8683795,-0.799823 -2.8683795,-1.785158 0,-0.985333 1.3240446,-1.784697 2.8683795,-1.784698 z" />
    <path
       style="opacity:0.3;fill:url(#radialGradient3327);fill-opacity:1;fill-rule:nonzero;stroke:none;stroke-width:1;marker:none;visibility:visible;display:inline;overflow:visible"
       id="path2883"
       d="m 40.246148,42.430102 c 0,0 0,3.569856 0,3.569856 1.1865,0.0067 2.86838,-0.799823 2.86838,-1.785158 0,-0.985333 -1.324045,-1.784697 -2.86838,-1.784698 z" />
    <path
       style="fill:url(#radialGradient3144-4);fill-opacity:1;stroke:url(#linearGradient3146-3);stroke-width:0.99992186000000005;stroke-linecap:butt;stroke-linejoin:round;stroke-miterlimit:4;stroke-opacity:1;stroke-dasharray:none;stroke-dashoffset:0;display:inline;color:#000000;fill-rule:nonzero;marker:none;visibility:visible;overflow:visible;enable-background:accumulate"
       id="path4160"
       d="M 6.4999609,0.49719893 C 14.520256,0.49719893 41.5,0.5 41.5,0.5 l 4.2e-5,44.002803 c 0,0 -23.333387,0 -35.0000811,0 0,-14.668535 0,-29.33707 0,-44.00560407 z" />
    <path
       style="fill:none;stroke:url(#linearGradient3988);stroke-width:1;stroke-linecap:round;stroke-linejoin:round;stroke-miterlimit:4;stroke-opacity:1;stroke-dasharray:none;stroke-dashoffset:0;opacity:0.5"
       d="m 40.5,43.5 -33,0 0,-41.9999999 33,0 z"
       id="rect6741-1" />
    <path
       style="fill:#ffffff;fill-opacity:1;stroke:none"
       d="M 9,3 29.6,3 39,12.5 39,42 9,42 z"
       id="path3102" />
    <path
       d="m 8.5,2.5 21.3125,0 9.6875,9.756098 0,30.243902 -31,0 z"
       style="fill:#ffffff;fill-opacity:1;stroke:#000000;stroke-width:0.99999994000000003px;stroke-linecap:butt;stroke-linejoin:miter;stroke-opacity:1;opacity:0.2"
       id="path3872" />
    <path
       style="fill:#89ac68;fill-opacity:1;stroke:none"
       d="m 12,8 6,0 0,2 -6,0 z"
       id="path3976" />
    <path
       id="path3978"
       d="m 12,12 6,0 0,2 -6,0 z"
       style="fill:#89ac68;fill-opacity:1;stroke:none" />
    <path
       style="fill:#89ac68;fill-opacity:1;stroke:none"
       d="m 12,16 6,0 0,2 -6,0 z"
       id="path3980" />
    <path
       id="path3982"
       d="m 12,20 6,0 0,2 -6,0 z"
       style="fill:#89ac68;fill-opacity:1;stroke:none" />
    <path
       style="fill:#89ac68;fill-opacity:1;stroke:none"
       d="m 12,24 6,0 0,2 -6,0 z"
       id="path3984" />
    <path
       id="path3986"
       d="m 12,28 6,0 0,2 -6,0 z"
       style="fill:#89ac68;fill-opacity:1;stroke:none" />
    <path
       style="fill:#89ac68;fill-opacity:1;stroke:none"
       d="m 12,32 6,0 0,2 -6,0 z"
       id="path3988" />
    <path
       id="path3990"
       d="m 12,36 6,0 0,2 -6,0 z"
       style="fill:#89ac68;fill-opacity:1;stroke:none" />
    <path
       id="path4012"
       d="m 21,8 6,0 0,2 -6,0 z"
       style="fill:#89ac68;fill-opacity:1;stroke:none" />
    <path
       style="fill:#89ac68;fill-opacity:1;stroke:none"
       d="m 21,12 6,0 0,2 -6,0 z"
       id="path4014" />
    <path
       id="path4016"
       d="m 21,16 6,0 0,2 -6,0 z"
       style="fill:#89ac68;fill-opacity:1;stroke:none" />
    <path
       style="fill:#89ac68;fill-opacity:1;stroke:none"
       d="m 21,20 6,0 0,2 -6,0 z"
       id="path4018" />
    <path
       id="path4020"
       d="m 21,24 6,0 0,2 -6,0 z"
       style="fill:#89ac68;fill-opacity:1;stroke:none" />
    <path
       style="fill:#89ac68;fill-opacity:1;stroke:none"
       d="m 21,28 6,0 0,2 -6,0 z"
       id="path4022" />
    <path
       id="path4024"
       d="m 21,32 6,0 0,2 -6,0 z"
       style="fill:#89ac68;fill-opacity:1;stroke:none" />
    <path
       style="fill:#89ac68;fill-opacity:1;stroke:none"
       d="m 21,36 6,0 0,2 -6,0 z"
       id="path4026" />
    <path
       style="fill:#89ac68;fill-opacity:1;stroke:none"
       d="m 30,16 6,0 0,2 -6,0 z"
       id="path4028" />
    <path
       id="path4030"
       d="m 30,20 6,0 0,2 -6,0 z"
       style="fill:#89ac68;fill-opacity:1;stroke:none" />
    <path
       style="fill:#89ac68;fill-opacity:1;stroke:none"
       d="m 30,24 6,0 0,2 -6,0 z"
       id="path4032" />
    <path
       id="path4034"
       d="m 30,28 6,0 0,2 -6,0 z"
       style="fill:#89ac68;fill-opacity:1;stroke:none" />
    <path
       style="fill:#89ac68;fill-opacity:1;stroke:none"
       d="m 30,32 6,0 0,2 -6,0 z"
       id="path4036" />
    <path
       id="path4038"
       d="m 30,36 6,0 0,2 -6,0 z"
       style="fill:#89ac68;fill-opacity:1;stroke:none" />
    <path
       id="path4040"
       d="m 30,12 6,0 0,2 -6,0 z"
       style="fill:#89ac68;fill-opacity:1;stroke:none" />
    <path
       style="fill:#89ac68;fill-opacity:1;stroke:none"
       d="m 30,8 2,0 2,2 -4,0 z"
       id="path4042" />
    <path
       style="opacity:0.2;fill:url(#linearGradient3051);fill-opacity:1;fill-rule:evenodd;stroke:none"
       id="path3879"
       d="m 7.008002,1 0,25.343182 c 0.00205,0.187559 0.045738,0.364927 0.120456,0.489049 0.074718,0.124122 0.173636,0.183649 0.27274,0.164124 l 33.306123,-9.928258 c 0.171327,-0.05087 0.298285,-0.326667 0.300681,-0.653175 L 41.008002,1 z" />
    <g
       id="g3896"
       transform="translate(-2.000001,0)">
      <path
         d="m 40.246148,42.353179 c 0,0 0,3.569856 0,3.569856 1.1865,0.0067 2.86838,-0.799823 2.86838,-1.785158 0,-0.985333 -1.324045,-1.784697 -2.86838,-1.784698 z"
         id="path2883-9"
         style="opacity:0.3;fill:url(#radialGradient3907);fill-opacity:1;fill-rule:nonzero;stroke:none;stroke-width:1;marker:none;visibility:visible;display:inline;overflow:visible" />
      <path
         style="opacity:0.8;fill:url(#linearGradient3909);fill-opacity:1;fill-rule:evenodd;stroke:#83899a;stroke-width:1;stroke-linecap:butt;stroke-linejoin:miter;stroke-miterlimit:4;stroke-opacity:1;stroke-dasharray:none"
         id="path3410"
         d="m 24.500001,45.5 20.000001,-20.000001 0,20.000001 -20.000001,0 z m 9.333333,-4.000001 6.666667,0 0,-6.666666 -6.666667,6.666666 z" />
      <path
         style="opacity:0.4;fill:none;stroke:url(#linearGradient3911);stroke-width:1;stroke-linecap:butt;stroke-linejoin:miter;stroke-miterlimit:4;stroke-opacity:1;stroke-dasharray:none"
         id="path3424"
         d="m 27.450938,44.217765 15.79375,-15.793751 0,15.793751 -15.79375,0 z" />
      <path
         id="path3082"
         d="M 29.5,44.346154 29.5,45.5"
         style="opacity:0.6;fill:none;stroke:#83899a;stroke-width:1px;stroke-linecap:square;stroke-linejoin:miter;stroke-opacity:1" />
      <path
         style="opacity:0.6;fill:none;stroke:#83899a;stroke-width:1px;stroke-linecap:square;stroke-linejoin:miter;stroke-opacity:1"
         d="M 34.5,44.346154 34.5,45.5"
         id="path3854" />
      <path
         id="path3856"
         d="M 39.5,44.346154 39.5,45.5"
         style="opacity:0.6;fill:none;stroke:#83899a;stroke-width:1px;stroke-linecap:square;stroke-linejoin:miter;stroke-opacity:1" />
      <path
         style="opacity:0.6;fill:none;stroke:#83899a;stroke-width:1px;stroke-linecap:square;stroke-linejoin:miter;stroke-opacity:1"
         d="m 44.50049,35.423077 -1.00049,0"
         id="path3858" />
      <path
         id="path3860"
         d="m 44.50049,40.423077 -1.00049,0"
         style="opacity:0.6;fill:none;stroke:#83899a;stroke-width:1px;stroke-linecap:square;stroke-linejoin:miter;stroke-opacity:1" />
      <path
         style="opacity:0.6;fill:none;stroke:#83899a;stroke-width:1px;stroke-linecap:square;stroke-linejoin:miter;stroke-opacity:1"
         d="m 44.50049,30.423077 -1.00049,0"
         id="path3862" />
    </g>
  </g>
</svg>
