<?xml version="1.0" encoding="UTF-8" standalone="no"?>
<svg
   xmlns:dc="http://purl.org/dc/elements/1.1/"
   xmlns:cc="http://creativecommons.org/ns#"
   xmlns:rdf="http://www.w3.org/1999/02/22-rdf-syntax-ns#"
   xmlns:svg="http://www.w3.org/2000/svg"
   xmlns="http://www.w3.org/2000/svg"
   xmlns:xlink="http://www.w3.org/1999/xlink"
   id="svg13752"
   height="24"
   width="24"
   version="1.1">
  <defs
     id="defs13754">
    <linearGradient
       gradientTransform="matrix(0.13513515,0,0,0.13477461,-3.6937101,7.5824871)"
       gradientUnits="userSpaceOnUse"
       xlink:href="#linearGradient4011-8-0"
       id="linearGradient6224-7"
       y2="44.340794"
       x2="71.204407"
       y1="6.2375584"
       x1="71.204407" />
    <linearGradient
       id="linearGradient4011-8-0">
      <stop
         offset="0"
         style="stop-color:#ffffff;stop-opacity:1"
         id="stop4013-1-1" />
      <stop
         offset="0.507761"
         style="stop-color:#ffffff;stop-opacity:0.23529412"
         id="stop4015-5-4" />
      <stop
         offset="0.83456558"
         style="stop-color:#ffffff;stop-opacity:0.15686275"
         id="stop4017-3-2" />
      <stop
         offset="1"
         style="stop-color:#ffffff;stop-opacity:0.39215687"
         id="stop4019-2-2" />
    </linearGradient>
    <radialGradient
       gradientTransform="matrix(0,0.41949873,-0.44377998,0,9.7498599,4.4598141)"
       gradientUnits="userSpaceOnUse"
       xlink:href="#linearGradient2867-449-88-871-390-598-476-591-434-148-57-177-3-8-4-3"
       id="radialGradient6227-3"
       fy="8.4497671"
       fx="5.7800279"
       r="19.99999"
       cy="8.4497671"
       cx="5.7800279" />
    <linearGradient
       id="linearGradient2867-449-88-871-390-598-476-591-434-148-57-177-3-8-4-3">
      <stop
         offset="0"
         style="stop-color:#90dbec;stop-opacity:1"
         id="stop3750-8-9-3-9" />
      <stop
         offset="0.26238"
         style="stop-color:#55c1ec;stop-opacity:1"
         id="stop3752-3-2-7-2" />
      <stop
         offset="0.704952"
         style="stop-color:#3689e6;stop-opacity:1"
         id="stop3754-7-2-0-5" />
      <stop
         offset="1"
         style="stop-color:#2b63a0;stop-opacity:1"
         id="stop3756-9-3-1-0" />
    </linearGradient>
    <linearGradient
       gradientTransform="matrix(0.17950401,0,0,0.17950385,1.6919,6.6919071)"
       gradientUnits="userSpaceOnUse"
       xlink:href="#linearGradient3707-319-631-407-324-3-8-8-3"
       id="linearGradient6229-3"
       y2="3.8990016"
       x2="24"
       y1="44"
       x1="24" />
    <linearGradient
       id="linearGradient3707-319-631-407-324-3-8-8-3">
      <stop
         offset="0"
         style="stop-color:#185f9a;stop-opacity:1"
         id="stop3760-7-3-5-1" />
      <stop
         offset="1"
         style="stop-color:#599ec9;stop-opacity:1"
         id="stop3762-8-4-7-4" />
    </linearGradient>
  </defs>
  <metadata
     id="metadata13757">
    <rdf:RDF>
      <cc:Work
         rdf:about="">
        <dc:format>image/svg+xml</dc:format>
        <dc:type
           rdf:resource="http://purl.org/dc/dcmitype/StillImage" />
        <dc:title />
      </cc:Work>
    </rdf:RDF>
  </metadata>
  <g
     id="layer1"
     transform="translate(0,8)">
    <path
       style="color:#000000;fill:#52bcec;fill-opacity:1;fill-rule:nonzero;stroke:#408dbe;stroke-width:1;stroke-linecap:round;stroke-linejoin:miter;stroke-miterlimit:4;stroke-opacity:1;stroke-dasharray:none;stroke-dashoffset:0;marker:none;visibility:visible;display:inline;overflow:visible;enable-background:accumulate"
       id="path6403-5"
       d="m 10.14122,-6.4999986 -3.6873401,2.348101 1.59933,0.265823 a 0.68504726,0.68316707 0 0 1 0.57754,0.886075 l -2.53227,7.3544307 c 2.71792,-0.09041 5.1330801,1.361059 6.1751801,4.075949 l 5.90862,-5.803797 a 0.68504726,0.68316707 0 0 1 1.06621,0.08861 l 0.66639,1.018988 0.93294,-4.78481 -4.62027,0.17721496 0.97736,1.196202 a 0.68504726,0.68316707 0 0 1 -0.1777,1.01898804 l -6.35288,3.85443 A 0.68504726,0.68316707 0 0 1 9.6525399,4.5316491 l 0.8885101,-7.044304 a 0.68504726,0.68316707 0 0 1 0.79966,-0.5759487 l 1.42163,0.310126 -2.62112,-3.721521 z" />
    <path
       style="color:#000000;fill:url(#radialGradient6227-3);fill-opacity:1;fill-rule:nonzero;stroke:url(#linearGradient6229-3);stroke-width:0.99999988;stroke-linecap:round;stroke-linejoin:miter;stroke-miterlimit:4;stroke-opacity:1;stroke-dasharray:none;stroke-dashoffset:0;marker:none;visibility:visible;display:inline;overflow:visible;enable-background:accumulate"
       id="path2555-7-6-4"
       d="m 5.9999999,7.5000001 c -1.93118,0 -3.5,1.568821 -3.5,3.5000009 0,1.931179 1.56882,3.500001 3.5,3.499999 1.93117,0 3.5,-1.56882 3.5,-3.499999 0,-1.9311799 -1.56883,-3.5000009 -3.5,-3.5000009 z" />
    <path
       style="opacity:0.5;color:#000000;fill:none;stroke:url(#linearGradient6224-7);stroke-width:0.99999988;stroke-linecap:round;stroke-linejoin:round;stroke-miterlimit:4;stroke-opacity:1;stroke-dasharray:none;stroke-dashoffset:0;marker:none;visibility:visible;display:inline;overflow:visible;enable-background:accumulate"
       id="path8655-6-0-0"
       d="m 8.4999999,10.999911 c 0,1.377072 -1.11937,2.49342 -2.49997,2.49342 -1.38071,0 -2.50003,-1.116359 -2.50003,-2.49342 0,-1.3770089 1.11932,-2.4932409 2.50003,-2.4932409 1.3806,0 2.49997,1.116232 2.49997,2.4932409 l 0,0 z" />
  </g>
</svg>
