<?xml version="1.0" encoding="UTF-8" standalone="no"?>
<svg
   xmlns:dc="http://purl.org/dc/elements/1.1/"
   xmlns:cc="http://creativecommons.org/ns#"
   xmlns:rdf="http://www.w3.org/1999/02/22-rdf-syntax-ns#"
   xmlns:svg="http://www.w3.org/2000/svg"
   xmlns="http://www.w3.org/2000/svg"
   xmlns:xlink="http://www.w3.org/1999/xlink"
   id="svg12515"
   height="24"
   width="24"
   version="1.1">
  <defs
     id="defs12517">
    <linearGradient
       gradientTransform="translate(-170.04371,-287.05849)"
       gradientUnits="userSpaceOnUse"
       xlink:href="#linearGradient5888"
       id="linearGradient5885"
       y2="283.76028"
       x2="185.27325"
       y1="282.71155"
       x1="184.98166" />
    <linearGradient
       id="linearGradient5888">
      <stop
         offset="0"
         style="stop-color:#ffffff;stop-opacity:1"
         id="stop5890" />
      <stop
         offset="0.07603955"
         style="stop-color:#ffffff;stop-opacity:0.23529412"
         id="stop5892" />
      <stop
         offset="0.99001008"
         style="stop-color:#ffffff;stop-opacity:0.15686275"
         id="stop5894" />
      <stop
         offset="1"
         style="stop-color:#ffffff;stop-opacity:0.39215687"
         id="stop5897" />
    </linearGradient>
    <radialGradient
       gradientTransform="matrix(0.44896884,0.0818304,-0.15626825,0.39379539,14.263269,-8.5820152)"
       gradientUnits="userSpaceOnUse"
       xlink:href="#linearGradient7067-814-120-245-8-2"
       id="radialGradient5481-3-3"
       fy="39.027378"
       fx="15.544384"
       r="5.7384715"
       cy="41.058823"
       cx="17.058823" />
    <linearGradient
       id="linearGradient7067-814-120-245-8-2">
      <stop
         offset="0"
         style="stop-color:#7fbdf5;stop-opacity:1"
         id="stop3877-8-3" />
      <stop
         offset="1"
         style="stop-color:#3379ae;stop-opacity:1"
         id="stop3879-6-7" />
    </linearGradient>
    <radialGradient
       gradientTransform="matrix(0.44896884,0.0818304,-0.15626825,0.39379539,3.2357628,-5.5651976)"
       gradientUnits="userSpaceOnUse"
       xlink:href="#linearGradient7067-814-120-245-8-2"
       id="radialGradient5481-3-3-2"
       fy="39.027378"
       fx="15.544384"
       r="5.7384715"
       cy="41.058823"
       cx="17.058823" />
  </defs>
  <metadata
     id="metadata12520">
    <rdf:RDF>
      <cc:Work
         rdf:about="">
        <dc:format>image/svg+xml</dc:format>
        <dc:type
           rdf:resource="http://purl.org/dc/dcmitype/StillImage" />
        <dc:title />
      </cc:Work>
    </rdf:RDF>
  </metadata>
  <g
     id="layer1"
     transform="translate(0,8)">
    <rect
       style="opacity:0.1;color:#000000;fill:none;stroke:#ffffff;stroke-width:1.00000393;stroke-linecap:butt;stroke-linejoin:round;stroke-miterlimit:4;stroke-opacity:1;stroke-dasharray:none;stroke-dashoffset:0;marker:none;visibility:visible;display:inline;overflow:visible;enable-background:accumulate"
       id="rect5543-1"
       transform="matrix(0.96643236,-0.25692119,0.26072891,0.96541206,0,0)"
       y="-0.37419358"
       x="8.5718422"
       height="0.04550834"
       width="9.8978233" />
    <path
       style="color:#000000;fill:#5fadf2;fill-opacity:1;fill-rule:nonzero;stroke:#3379ae;stroke-width:1;stroke-linecap:butt;stroke-linejoin:miter;stroke-miterlimit:4;stroke-opacity:1;stroke-dashoffset:0;marker:none;visibility:visible;display:inline;overflow:visible;enable-background:accumulate"
       id="path5025"
       d="m 7.4406251,11.159131 c 0.32638,1.29987 -0.72561,2.7301 -2.34967,3.19449 -1.62407,0.4644 -3.20521,-0.21288 -3.53158,-1.51275 -0.32638,-1.29987 0.7256,-2.73009 2.34967,-3.1944901 1.62407,-0.4644 3.20521,0.21289 3.53158,1.5127501 z m 11.0156599,-2.2176201 0,-11.9999997 M 7.4562851,11.941511 l 0,-11.50147989 m 1,-4.44741991 c -0.55408,0.1544 -1,0.74422 -1,1.3217099 l 0,2.08479001 0,1.0424 1.0001,-0.27892 8.9999999,-2.51380001 1.00009,-0.27891 10e-6,-1.0423999 -10e-6,-2.08479 c 10e-6,-0.57749 -0.446,-0.91782 -0.99999,-0.76309 l -8.9999999,2.5138 z M 18.396915,8.1006409 c 0.32637,1.29987 -0.72561,2.7300901 -2.34968,3.1944901 -1.62406,0.4644 -3.2052,-0.21289 -3.53158,-1.5127601 -0.32637,-1.29986 0.72561,-2.73009 2.34967,-3.19449 1.62407,-0.4644 3.20521,0.21289 3.53159,1.51276 z" />
    <path
       style="fill:url(#radialGradient5481-3-3);fill-opacity:1;stroke:none"
       id="path2937-9-5"
       d="m 17.882829,9.4159247 a 1.9750092,2.5197909 78.380078 1 1 -4.75381,-0.86644 1.9750092,2.5197909 78.380078 0 1 4.75381,0.86644 z" />
    <path
       style="opacity:0.2;color:#000000;fill:none;stroke:url(#linearGradient5885);stroke-width:1;stroke-linecap:butt;stroke-linejoin:round;stroke-miterlimit:4;stroke-opacity:1;stroke-dasharray:none;stroke-dashoffset:0;marker:none;visibility:visible;display:inline;overflow:visible;enable-background:accumulate"
       id="rect5876"
       d="m 8.4562751,-2.9536088 9.0000099,-2.60487 0,2.1619 -9.0000099,2.50848991 z" />
    <path
       style="fill:url(#radialGradient5481-3-3-2);fill-opacity:1;stroke:none"
       id="path2937-9-5-9"
       d="m 6.8553228,12.432742 a 1.9750092,2.5197909 78.380078 1 1 -4.75381,-0.86644 1.9750092,2.5197909 78.380078 0 1 4.75381,0.86644 z" />
  </g>
</svg>
