<?xml version="1.0" encoding="UTF-8" standalone="no"?>
<svg
   xmlns:dc="http://purl.org/dc/elements/1.1/"
   xmlns:cc="http://creativecommons.org/ns#"
   xmlns:rdf="http://www.w3.org/1999/02/22-rdf-syntax-ns#"
   xmlns:svg="http://www.w3.org/2000/svg"
   xmlns="http://www.w3.org/2000/svg"
   xmlns:xlink="http://www.w3.org/1999/xlink"
   id="svg3303"
   height="24"
   width="24"
   version="1.1">
  <metadata
     id="metadata173977">
    <rdf:RDF>
      <cc:Work
         rdf:about="">
        <dc:format>image/svg+xml</dc:format>
        <dc:type
           rdf:resource="http://purl.org/dc/dcmitype/StillImage" />
      </cc:Work>
    </rdf:RDF>
  </metadata>
  <defs
     id="defs3305">
    <linearGradient
       id="linearGradient6028">
      <stop
         offset="0"
         style="stop-color:#ffffff;stop-opacity:1"
         id="stop6030" />
      <stop
         offset="1"
         style="stop-color:#ffffff;stop-opacity:0"
         id="stop6032" />
    </linearGradient>
    <linearGradient
       id="linearGradient6036">
      <stop
         offset="0"
         style="stop-color:#ffffff;stop-opacity:1"
         id="stop6038" />
      <stop
         offset="1"
         style="stop-color:#ffffff;stop-opacity:0"
         id="stop6040" />
    </linearGradient>
    <linearGradient
       gradientUnits="userSpaceOnUse"
       id="aigrd2"
       y2="14.2033"
       x2="35.391201"
       y1="32.4165"
       x1="12.2744">
      <stop
         offset="0"
         style="stop-color:#fbfbfb;stop-opacity:1"
         id="stop3043" />
      <stop
         offset="0.5"
         style="stop-color:#b6b6b6;stop-opacity:1"
         id="stop3045" />
      <stop
         offset="1"
         style="stop-color:#e4e4e4;stop-opacity:1"
         id="stop3047" />
    </linearGradient>
    <linearGradient
       gradientUnits="userSpaceOnUse"
       id="aigrd1"
       y2="34.307499"
       x2="32.511002"
       y1="11.1885"
       x1="14.9966">
      <stop
         offset="0"
         style="stop-color:#ebebeb;stop-opacity:1"
         id="stop3034" />
      <stop
         offset="0.5"
         style="stop-color:#ffffff;stop-opacity:1"
         id="stop3036" />
      <stop
         offset="1"
         style="stop-color:#ebebeb;stop-opacity:1"
         id="stop3038" />
    </linearGradient>
    <linearGradient
       id="linearGradient3487">
      <stop
         offset="0"
         style="stop-color:#e6cde2;stop-opacity:1"
         id="stop3489" />
      <stop
         offset="1"
         style="stop-color:#e6cde2;stop-opacity:0"
         id="stop3491" />
    </linearGradient>
    <linearGradient
       id="linearGradient3495">
      <stop
         offset="0"
         style="stop-color:#c1cbe4;stop-opacity:1"
         id="stop3497" />
      <stop
         offset="1"
         style="stop-color:#c1cbe4;stop-opacity:0"
         id="stop3499" />
    </linearGradient>
    <linearGradient
       id="linearGradient3503">
      <stop
         offset="0"
         style="stop-color:#c4ebdd;stop-opacity:1"
         id="stop3505" />
      <stop
         offset="1"
         style="stop-color:#c4ebdd;stop-opacity:0"
         id="stop3507" />
    </linearGradient>
    <linearGradient
       id="linearGradient3511">
      <stop
         offset="0"
         style="stop-color:#ebeec7;stop-opacity:1"
         id="stop3513" />
      <stop
         offset="1"
         style="stop-color:#ebeec7;stop-opacity:0"
         id="stop3515" />
    </linearGradient>
    <linearGradient
       id="linearGradient3519">
      <stop
         offset="0"
         style="stop-color:#fcd9cd;stop-opacity:1"
         id="stop3521" />
      <stop
         offset="1"
         style="stop-color:#fcd9cd;stop-opacity:0"
         id="stop3523" />
    </linearGradient>
    <linearGradient
       spreadMethod="reflect"
       gradientUnits="userSpaceOnUse"
       xlink:href="#linearGradient3487"
       id="linearGradient3896"
       y2="9.8622112"
       x2="24.27351"
       y1="10.774516"
       x1="20.580074" />
    <linearGradient
       spreadMethod="reflect"
       gradientUnits="userSpaceOnUse"
       xlink:href="#linearGradient3495"
       id="linearGradient3898"
       y2="9.7956104"
       x2="21.047453"
       y1="11.200086"
       x1="17.494959" />
    <linearGradient
       spreadMethod="reflect"
       gradientUnits="userSpaceOnUse"
       xlink:href="#linearGradient3503"
       id="linearGradient3900"
       y2="10.732353"
       x2="16.994024"
       y1="13.045606"
       x1="14.084608" />
    <linearGradient
       spreadMethod="reflect"
       gradientUnits="userSpaceOnUse"
       xlink:href="#linearGradient3511"
       id="linearGradient3902"
       y2="13.461712"
       x2="14.609327"
       y1="16.188046"
       x1="12.371647" />
    <linearGradient
       spreadMethod="reflect"
       gradientUnits="userSpaceOnUse"
       xlink:href="#linearGradient3519"
       id="linearGradient3904"
       y2="20.612656"
       x2="9.7297754"
       y1="17.886322"
       x1="10.609375" />
    <linearGradient
       spreadMethod="reflect"
       gradientUnits="userSpaceOnUse"
       xlink:href="#linearGradient3487"
       id="linearGradient3906"
       y2="9.8622112"
       x2="24.27351"
       y1="10.774516"
       x1="20.580074" />
    <linearGradient
       spreadMethod="reflect"
       gradientUnits="userSpaceOnUse"
       xlink:href="#linearGradient3495"
       id="linearGradient3908"
       y2="9.7956104"
       x2="21.047453"
       y1="11.200086"
       x1="17.494959" />
    <linearGradient
       spreadMethod="reflect"
       gradientUnits="userSpaceOnUse"
       xlink:href="#linearGradient3503"
       id="linearGradient3910"
       y2="10.732353"
       x2="16.994024"
       y1="13.045606"
       x1="14.084608" />
    <linearGradient
       spreadMethod="reflect"
       gradientUnits="userSpaceOnUse"
       xlink:href="#linearGradient3511"
       id="linearGradient3912"
       y2="13.461712"
       x2="14.609327"
       y1="16.188046"
       x1="12.371647" />
    <linearGradient
       spreadMethod="reflect"
       gradientUnits="userSpaceOnUse"
       xlink:href="#linearGradient3519"
       id="linearGradient3914"
       y2="20.612656"
       x2="9.7297754"
       y1="17.886322"
       x1="10.609375" />
    <linearGradient
       gradientTransform="matrix(0.3999892,0,0,0.3999891,2.397699,3.7628089)"
       gradientUnits="userSpaceOnUse"
       xlink:href="#aigrd1"
       id="linearGradient3918"
       y2="34.307499"
       x2="32.511002"
       y1="11.1885"
       x1="14.9966" />
    <linearGradient
       gradientTransform="matrix(0.4285714,0,0,0.4285712,1.7147125,3.0995762)"
       gradientUnits="userSpaceOnUse"
       xlink:href="#aigrd2"
       id="linearGradient3920"
       y2="14.2033"
       x2="35.391201"
       y1="32.4165"
       x1="12.2744" />
    <linearGradient
       gradientTransform="matrix(0.328322,0,0,0.3283219,4.0067991,4.7914954)"
       gradientUnits="userSpaceOnUse"
       xlink:href="#linearGradient6036"
       id="linearGradient3922"
       y2="54.698483"
       x2="48.798885"
       y1="3.6100161"
       x1="10.50172" />
    <linearGradient
       gradientUnits="userSpaceOnUse"
       xlink:href="#linearGradient6028"
       id="linearGradient3924"
       y2="18.366575"
       x2="17.742729"
       y1="31.494707"
       x1="28.702885" />
    <linearGradient
       gradientTransform="matrix(0.3999892,0,0,0.3999891,2.397699,3.7628089)"
       gradientUnits="userSpaceOnUse"
       xlink:href="#aigrd1"
       id="linearGradient2916"
       y2="34.307499"
       x2="32.511002"
       y1="11.1885"
       x1="14.9966" />
    <linearGradient
       gradientTransform="matrix(0.4285714,0,0,0.4285712,1.7147125,3.0995762)"
       gradientUnits="userSpaceOnUse"
       xlink:href="#aigrd2"
       id="linearGradient2918"
       y2="14.2033"
       x2="35.391201"
       y1="32.4165"
       x1="12.2744" />
    <linearGradient
       gradientTransform="matrix(0.328322,0,0,0.3283219,4.0067991,4.7914954)"
       gradientUnits="userSpaceOnUse"
       xlink:href="#linearGradient6036"
       id="linearGradient2920"
       y2="54.698483"
       x2="48.798885"
       y1="3.6100161"
       x1="10.50172" />
    <linearGradient
       gradientUnits="userSpaceOnUse"
       xlink:href="#linearGradient6028"
       id="linearGradient2922"
       y2="18.366575"
       x2="17.742729"
       y1="31.494707"
       x1="28.702885" />
    <linearGradient
       spreadMethod="reflect"
       gradientUnits="userSpaceOnUse"
       xlink:href="#linearGradient3487"
       id="linearGradient2924"
       y2="9.8622112"
       x2="24.27351"
       y1="10.774516"
       x1="20.580074" />
    <linearGradient
       spreadMethod="reflect"
       gradientUnits="userSpaceOnUse"
       xlink:href="#linearGradient3495"
       id="linearGradient2926"
       y2="9.7956104"
       x2="21.047453"
       y1="11.200086"
       x1="17.494959" />
    <linearGradient
       spreadMethod="reflect"
       gradientUnits="userSpaceOnUse"
       xlink:href="#linearGradient3503"
       id="linearGradient2928"
       y2="10.732353"
       x2="16.994024"
       y1="13.045606"
       x1="14.084608" />
    <linearGradient
       spreadMethod="reflect"
       gradientUnits="userSpaceOnUse"
       xlink:href="#linearGradient3511"
       id="linearGradient2930"
       y2="13.461712"
       x2="14.609327"
       y1="16.188046"
       x1="12.371647" />
    <linearGradient
       spreadMethod="reflect"
       gradientUnits="userSpaceOnUse"
       xlink:href="#linearGradient3519"
       id="linearGradient2932"
       y2="20.612656"
       x2="9.7297754"
       y1="17.886322"
       x1="10.609375" />
    <linearGradient
       spreadMethod="reflect"
       gradientUnits="userSpaceOnUse"
       xlink:href="#linearGradient3487"
       id="linearGradient2934"
       y2="9.8622112"
       x2="24.27351"
       y1="10.774516"
       x1="20.580074" />
    <linearGradient
       spreadMethod="reflect"
       gradientUnits="userSpaceOnUse"
       xlink:href="#linearGradient3495"
       id="linearGradient2936"
       y2="9.7956104"
       x2="21.047453"
       y1="11.200086"
       x1="17.494959" />
    <linearGradient
       spreadMethod="reflect"
       gradientUnits="userSpaceOnUse"
       xlink:href="#linearGradient3503"
       id="linearGradient2938"
       y2="10.732353"
       x2="16.994024"
       y1="13.045606"
       x1="14.084608" />
    <linearGradient
       spreadMethod="reflect"
       gradientUnits="userSpaceOnUse"
       xlink:href="#linearGradient3511"
       id="linearGradient2940"
       y2="13.461712"
       x2="14.609327"
       y1="16.188046"
       x1="12.371647" />
    <linearGradient
       spreadMethod="reflect"
       gradientUnits="userSpaceOnUse"
       xlink:href="#linearGradient3519"
       id="linearGradient2942"
       y2="20.612656"
       x2="9.7297754"
       y1="17.886322"
       x1="10.609375" />
    <linearGradient
       gradientTransform="matrix(0.3999892,0,0,0.3999891,2.397699,3.7628089)"
       gradientUnits="userSpaceOnUse"
       xlink:href="#aigrd1"
       id="linearGradient2982"
       y2="34.307499"
       x2="32.511002"
       y1="11.1885"
       x1="14.9966" />
    <linearGradient
       gradientTransform="matrix(0.4285714,0,0,0.4285712,1.7147125,3.0995762)"
       gradientUnits="userSpaceOnUse"
       xlink:href="#aigrd2"
       id="linearGradient2984"
       y2="14.2033"
       x2="35.391201"
       y1="32.4165"
       x1="12.2744" />
    <linearGradient
       gradientTransform="matrix(0.328322,0,0,0.3283219,4.0067991,4.7914954)"
       gradientUnits="userSpaceOnUse"
       xlink:href="#linearGradient6036"
       id="linearGradient2986"
       y2="54.698483"
       x2="48.798885"
       y1="3.6100161"
       x1="10.50172" />
    <linearGradient
       gradientUnits="userSpaceOnUse"
       xlink:href="#linearGradient6028"
       id="linearGradient2988"
       y2="18.366575"
       x2="17.742729"
       y1="31.494707"
       x1="28.702885" />
    <linearGradient
       spreadMethod="reflect"
       gradientUnits="userSpaceOnUse"
       xlink:href="#linearGradient3487"
       id="linearGradient2990"
       y2="9.8622112"
       x2="24.27351"
       y1="10.774516"
       x1="20.580074" />
    <linearGradient
       spreadMethod="reflect"
       gradientUnits="userSpaceOnUse"
       xlink:href="#linearGradient3495"
       id="linearGradient2992"
       y2="9.7956104"
       x2="21.047453"
       y1="11.200086"
       x1="17.494959" />
    <linearGradient
       spreadMethod="reflect"
       gradientUnits="userSpaceOnUse"
       xlink:href="#linearGradient3503"
       id="linearGradient2994"
       y2="10.732353"
       x2="16.994024"
       y1="13.045606"
       x1="14.084608" />
    <linearGradient
       spreadMethod="reflect"
       gradientUnits="userSpaceOnUse"
       xlink:href="#linearGradient3511"
       id="linearGradient2996"
       y2="13.461712"
       x2="14.609327"
       y1="16.188046"
       x1="12.371647" />
    <linearGradient
       spreadMethod="reflect"
       gradientUnits="userSpaceOnUse"
       xlink:href="#linearGradient3519"
       id="linearGradient2998"
       y2="20.612656"
       x2="9.7297754"
       y1="17.886322"
       x1="10.609375" />
    <linearGradient
       spreadMethod="reflect"
       gradientUnits="userSpaceOnUse"
       xlink:href="#linearGradient3487"
       id="linearGradient3000"
       y2="9.8622112"
       x2="24.27351"
       y1="10.774516"
       x1="20.580074" />
    <linearGradient
       spreadMethod="reflect"
       gradientUnits="userSpaceOnUse"
       xlink:href="#linearGradient3495"
       id="linearGradient3002"
       y2="9.7956104"
       x2="21.047453"
       y1="11.200086"
       x1="17.494959" />
    <linearGradient
       spreadMethod="reflect"
       gradientUnits="userSpaceOnUse"
       xlink:href="#linearGradient3503"
       id="linearGradient3004"
       y2="10.732353"
       x2="16.994024"
       y1="13.045606"
       x1="14.084608" />
    <linearGradient
       spreadMethod="reflect"
       gradientUnits="userSpaceOnUse"
       xlink:href="#linearGradient3511"
       id="linearGradient3006"
       y2="13.461712"
       x2="14.609327"
       y1="16.188046"
       x1="12.371647" />
    <linearGradient
       spreadMethod="reflect"
       gradientUnits="userSpaceOnUse"
       xlink:href="#linearGradient3519"
       id="linearGradient3008"
       y2="20.612656"
       x2="9.7297754"
       y1="17.886322"
       x1="10.609375" />
    <linearGradient
       id="linearGradient23419">
      <stop
         offset="0"
         style="stop-color:#000000;stop-opacity:1"
         id="stop23421" />
      <stop
         offset="1"
         style="stop-color:#000000;stop-opacity:0"
         id="stop23423" />
    </linearGradient>
    <radialGradient
       gradientTransform="matrix(0.40725347,0,0,0.1546652,0.24410347,14.060353)"
       gradientUnits="userSpaceOnUse"
       xlink:href="#linearGradient23419"
       id="radialGradient2953"
       fy="41.63604"
       fx="23.334524"
       r="22.627417"
       cy="41.63604"
       cx="23.334524" />
    <linearGradient
       id="linearGradient23419-7">
      <stop
         offset="0"
         style="stop-color:#000000;stop-opacity:1"
         id="stop23421-6" />
      <stop
         offset="1"
         style="stop-color:#000000;stop-opacity:0"
         id="stop23423-4" />
    </linearGradient>
    <radialGradient
       gradientTransform="matrix(0.36300759,-0.32334749,0.10287371,0.11549166,4.0989661,18.93277)"
       gradientUnits="userSpaceOnUse"
       xlink:href="#linearGradient23419-7"
       id="radialGradient2953-3"
       fy="41.63604"
       fx="23.334524"
       r="22.627417"
       cy="41.63604"
       cx="23.334524" />
  </defs>
  <path
     style="opacity:0.3;fill:url(#radialGradient2953-3);fill-opacity:1;fill-rule:evenodd;stroke:none;stroke-width:2;marker:none;visibility:visible;display:inline;overflow:visible"
     id="path2448-0"
     d="m 25.066754,8.879707 c 1.286097,1.442992 -1.349217,5.888972 -5.885941,9.93004 -4.536724,4.041068 -9.2566565,6.146743 -10.541908,4.702997 -1.2860969,-1.442991 1.3492173,-5.888971 5.885942,-9.930039 4.536725,-4.0410683 9.256655,-6.1467425 10.541907,-4.702998 z" />
  <path
     style="opacity:0.3;fill:url(#radialGradient2953);fill-opacity:1;fill-rule:evenodd;stroke:none;stroke-width:2;marker:none;visibility:visible;display:inline;overflow:visible"
     id="path2448"
     d="M 18.962264,20.499999 C 18.962739,22.432943 14.836862,24 9.7471702,24 4.657478,24 0.53160093,22.432943 0.5320755,20.499999 0.53160093,18.567056 4.657478,17 9.7471702,17 c 5.0896918,0 9.2155688,1.567056 9.2150938,3.499999 z" />
  <g
     id="g2944"
     transform="translate(6.9999984,1.0000028)">
    <g
       style="display:inline"
       id="g2946"
       transform="translate(-4.0004258,-4.9995745)">
      <path
         style="fill:url(#linearGradient2982);fill-rule:nonzero;stroke:none"
         id="path2948"
         d="m 11.997441,6.0027482 c -3.8798961,0 -6.9998116,3.1199161 -6.9998116,6.9998118 0,3.879895 3.1199155,6.99981 6.9998116,6.99981 3.879895,0 6.999809,-3.119915 6.999809,-6.99981 0,-3.8798957 -3.119914,-6.9998118 -6.999809,-6.9998118 l 0,0 z m 0,8.6797658 c -0.919976,0 -1.679956,-0.759979 -1.679956,-1.679954 0,-0.919976 0.75998,-1.679956 1.679956,-1.679956 0.919976,0 1.679955,0.75998 1.679955,1.679956 0,0.919975 -0.759979,1.679954 -1.679955,1.679954 z" />
      <path
         style="fill:url(#linearGradient2984);fill-rule:nonzero;stroke:#808080;stroke-width:1.00000024;stroke-miterlimit:4;stroke-opacity:1"
         id="path2950"
         d="m 12.000426,5.4995761 c -4.1571429,0 -7.4999993,3.342857 -7.4999993,7.4999989 0,4.157142 3.3428564,7.499998 7.4999993,7.499998 4.157142,0 7.499999,-3.342856 7.499999,-7.499998 0,-4.1571419 -3.342857,-7.4999989 -7.499999,-7.4999989 l 0,0 z m 0,9.2999999 c -0.985715,0 -1.8,-0.814286 -1.8,-1.800001 0,-0.985714 0.814285,-1.8 1.8,-1.8 0.985714,0 1.799998,0.814286 1.799998,1.8 0,0.985715 -0.814284,1.800001 -1.799998,1.800001 z" />
      <path
         style="opacity:0.51098902;fill:#eeeeec;fill-rule:nonzero;stroke:none"
         id="path2952"
         d="m 12.00064,9.084399 c -2.1862784,0 -3.9149638,1.779529 -3.9149638,3.914962 0,2.186278 1.7795295,3.914964 3.9149638,3.914964 2.186274,0 3.914962,-1.779529 3.914962,-3.914964 0,-2.186277 -1.779531,-3.914962 -3.914962,-3.914962 l 0,0 z m 0,6.050397 c -1.169405,0 -2.1354343,-0.966031 -2.1354343,-2.135435 0,-1.169403 0.9660293,-2.135433 2.1354343,-2.135433 1.169401,0 2.135431,0.96603 2.135431,2.135433 0,1.169404 -0.96603,2.135435 -2.135431,2.135435 z" />
      <path
         style="opacity:0.54644811;fill:none;stroke:url(#linearGradient2986);stroke-width:1.00000024;stroke-miterlimit:4;stroke-opacity:1"
         id="path2954"
         d="m 12.000453,6.4995459 c -3.6028529,0 -6.4999954,2.8971428 -6.4999954,6.5000001 0,3.602856 2.8971425,6.499997 6.4999954,6.499997 3.602859,0 6.500002,-2.897141 6.500002,-6.499997 0,-3.6028573 -2.897143,-6.5000001 -6.500002,-6.5000001 l 0,0 z" />
      <path
         style="opacity:0.67213111;fill:none;stroke:url(#linearGradient2988);stroke-width:2.29176831;stroke-linecap:butt;stroke-linejoin:miter;stroke-miterlimit:4;stroke-opacity:1;stroke-dashoffset:0;marker:none;visibility:visible;display:inline;overflow:visible"
         id="path2956"
         transform="matrix(0.4060353,0,0,0.4060353,2.1478352,2.8832018)"
         d="m 30.405591,24.930641 a 6.098796,6.098796 0 1 1 -12.197592,0 6.098796,6.098796 0 1 1 12.197592,0 z" />
    </g>
  </g>
  <g
     id="g2958"
     transform="matrix(0.34867079,0,0,0.34867079,6.8130318,0.51274708)">
    <path
       style="fill:url(#linearGradient2990);fill-opacity:1;fill-rule:nonzero;stroke:none"
       id="path2960"
       transform="matrix(0.9996011,0.02824295,-0.02824295,0.9996011,0.6924114,-0.6708346)"
       d="M 15.856928,5.7307748 20.625,16.34375 C 21.660403,15.885186 22.795334,15.625 24,15.625 c 0.03206,0 0.06178,-3.6e-4 0.09375,0 L 24.10801,4.0047512 c -2.94215,-0.070687 -5.543041,0.6572865 -8.251083,1.7260236 l 10e-7,0 z" />
    <path
       style="fill:url(#linearGradient2992);fill-opacity:1;fill-rule:nonzero;stroke:none"
       id="path2962"
       d="m 12.121471,7.9060109 6.931026,9.3601041 c 0.913109,-0.669755 1.965938,-1.167064 3.142629,-1.425169 0.03132,-0.0069 0.06026,-0.01359 0.09157,-0.02009 L 19.857174,4.426276 c -2.888973,0.5613244 -5.31953,1.8556038 -7.735703,3.4797349 l 0,0 z" />
    <path
       style="fill:url(#linearGradient2994);fill-opacity:1;fill-rule:nonzero;stroke:none"
       id="path2964"
       d="m 8.2523933,11.646535 9.2137237,7.155818 c 0.70865,-0.883264 1.596891,-1.636119 2.666685,-2.18998 0.02847,-0.01474 0.05469,-0.02872 0.08325,-0.0431 L 14.86585,6.2506132 C 12.220599,7.5405321 10.165881,9.452393 8.2523933,11.646535 z" />
    <path
       style="fill:url(#linearGradient2996);fill-opacity:1;fill-rule:nonzero;stroke:none"
       id="path2966"
       d="m 5.6328855,16.073974 c 7.1748065,2.242248 7.8502625,7.031463 12.7767855,1.754127 L 10.499985,9.1321388 C 8.2787249,11.062747 6.9132871,13.459349 5.6328855,16.073974 z" />
    <path
       style="fill:url(#linearGradient2998);fill-opacity:1;fill-rule:nonzero;stroke:none"
       id="path2968"
       d="M 7.155289,13.193173 C 5.9722117,14.945185 5.2475768,16.829547 4.6301929,18.837116 L 15.96875,21.8125 C 16.184264,21.049497 16.486796,20.297733 16.9375,19.59375 16.95479,19.56675 16.98246,19.52673 17,19.5 L 7.155289,13.193173 z" />
  </g>
  <g
     id="g2970"
     transform="matrix(-0.34867079,0,0,-0.34867079,23.549229,17.245748)">
    <path
       style="fill:url(#linearGradient3000);fill-opacity:1;fill-rule:nonzero;stroke:none"
       id="path2972"
       transform="matrix(0.9996011,0.02824295,-0.02824295,0.9996011,0.6924114,-0.6708346)"
       d="M 15.856928,5.7307748 20.625,16.34375 C 21.660403,15.885186 22.795334,15.625 24,15.625 c 0.03206,0 0.06178,-3.6e-4 0.09375,0 L 24.10801,4.0047512 c -2.94215,-0.070687 -5.543041,0.6572865 -8.251083,1.7260236 l 10e-7,0 z" />
    <path
       style="fill:url(#linearGradient3002);fill-opacity:1;fill-rule:nonzero;stroke:none"
       id="path2974"
       d="m 12.121471,7.9060109 6.931026,9.3601041 c 0.913109,-0.669755 1.965938,-1.167064 3.142629,-1.425169 0.03132,-0.0069 0.06026,-0.01359 0.09157,-0.02009 L 19.857174,4.426276 c -2.888973,0.5613244 -5.31953,1.8556038 -7.735703,3.4797349 l 0,0 z" />
    <path
       style="fill:url(#linearGradient3004);fill-opacity:1;fill-rule:nonzero;stroke:none"
       id="path2976"
       d="m 8.2523933,11.646535 9.2137237,7.155818 c 0.70865,-0.883264 1.596891,-1.636119 2.666685,-2.18998 0.02847,-0.01474 0.05469,-0.02872 0.08325,-0.0431 L 14.86585,6.2506132 C 12.220599,7.5405321 10.165881,9.452393 8.2523933,11.646535 z" />
    <path
       style="fill:url(#linearGradient3006);fill-opacity:1;fill-rule:nonzero;stroke:none"
       id="path2978"
       d="m 5.6328855,16.073974 c 7.1748065,2.242248 7.8502625,7.031463 12.7767855,1.754127 L 10.499985,9.1321388 C 8.2787249,11.062747 6.9132871,13.459349 5.6328855,16.073974 z" />
    <path
       style="fill:url(#linearGradient3008);fill-opacity:1;fill-rule:nonzero;stroke:none"
       id="path2980"
       d="M 7.155289,13.193173 C 5.9722117,14.945185 5.2475768,16.829547 4.6301929,18.837116 L 15.96875,21.8125 C 16.184264,21.049497 16.486796,20.297733 16.9375,19.59375 16.95479,19.56675 16.98246,19.52673 17,19.5 L 7.155289,13.193173 z" />
  </g>
  <g
     id="g2878"
     transform="translate(3.9999984,4.0000028)">
    <g
       style="display:inline"
       id="g2880"
       transform="translate(-4.0004258,-4.9995745)">
      <path
         style="fill:url(#linearGradient2916);fill-rule:nonzero;stroke:none"
         id="path2882"
         d="m 11.997441,6.0027482 c -3.8798961,0 -6.9998116,3.1199161 -6.9998116,6.9998118 0,3.879895 3.1199155,6.99981 6.9998116,6.99981 3.879895,0 6.999809,-3.119915 6.999809,-6.99981 0,-3.8798957 -3.119914,-6.9998118 -6.999809,-6.9998118 l 0,0 z m 0,8.6797658 c -0.919976,0 -1.679956,-0.759979 -1.679956,-1.679954 0,-0.919976 0.75998,-1.679956 1.679956,-1.679956 0.919976,0 1.679955,0.75998 1.679955,1.679956 0,0.919975 -0.759979,1.679954 -1.679955,1.679954 z" />
      <path
         style="fill:url(#linearGradient2918);fill-rule:nonzero;stroke:#808080;stroke-width:1.00000024;stroke-miterlimit:4;stroke-opacity:1"
         id="path2884"
         d="m 12.000426,5.4995761 c -4.1571429,0 -7.4999993,3.342857 -7.4999993,7.4999989 0,4.157142 3.3428564,7.499998 7.4999993,7.499998 4.157142,0 7.499999,-3.342856 7.499999,-7.499998 0,-4.1571419 -3.342857,-7.4999989 -7.499999,-7.4999989 l 0,0 z m 0,9.2999999 c -0.985715,0 -1.8,-0.814286 -1.8,-1.800001 0,-0.985714 0.814285,-1.8 1.8,-1.8 0.985714,0 1.799998,0.814286 1.799998,1.8 0,0.985715 -0.814284,1.800001 -1.799998,1.800001 z" />
      <path
         style="opacity:0.51098902;fill:#eeeeec;fill-rule:nonzero;stroke:none"
         id="path2886"
         d="m 12.00064,9.084399 c -2.1862784,0 -3.9149638,1.779529 -3.9149638,3.914962 0,2.186278 1.7795295,3.914964 3.9149638,3.914964 2.186274,0 3.914962,-1.779529 3.914962,-3.914964 0,-2.186277 -1.779531,-3.914962 -3.914962,-3.914962 l 0,0 z m 0,6.050397 c -1.169405,0 -2.1354343,-0.966031 -2.1354343,-2.135435 0,-1.169403 0.9660293,-2.135433 2.1354343,-2.135433 1.169401,0 2.135431,0.96603 2.135431,2.135433 0,1.169404 -0.96603,2.135435 -2.135431,2.135435 z" />
      <path
         style="opacity:0.54644811;fill:none;stroke:url(#linearGradient2920);stroke-width:1.00000024;stroke-miterlimit:4;stroke-opacity:1"
         id="path2888"
         d="m 12.000453,6.4995459 c -3.6028529,0 -6.4999954,2.8971428 -6.4999954,6.5000001 0,3.602856 2.8971425,6.499997 6.4999954,6.499997 3.602859,0 6.500002,-2.897141 6.500002,-6.499997 0,-3.6028573 -2.897143,-6.5000001 -6.500002,-6.5000001 l 0,0 z" />
      <path
         style="opacity:0.67213111;fill:none;stroke:url(#linearGradient2922);stroke-width:2.29176831;stroke-linecap:butt;stroke-linejoin:miter;stroke-miterlimit:4;stroke-opacity:1;stroke-dashoffset:0;marker:none;visibility:visible;display:inline;overflow:visible"
         id="path2890"
         transform="matrix(0.4060353,0,0,0.4060353,2.1478352,2.8832018)"
         d="m 30.405591,24.930641 a 6.098796,6.098796 0 1 1 -12.197592,0 6.098796,6.098796 0 1 1 12.197592,0 z" />
    </g>
  </g>
  <g
     id="g2892"
     transform="matrix(0.34867079,0,0,0.34867079,3.8130318,3.5127471)">
    <path
       style="fill:url(#linearGradient2924);fill-opacity:1;fill-rule:nonzero;stroke:none"
       id="path2894"
       transform="matrix(0.9996011,0.02824295,-0.02824295,0.9996011,0.6924114,-0.6708346)"
       d="M 15.856928,5.7307748 20.625,16.34375 C 21.660403,15.885186 22.795334,15.625 24,15.625 c 0.03206,0 0.06178,-3.6e-4 0.09375,0 L 24.10801,4.0047512 c -2.94215,-0.070687 -5.543041,0.6572865 -8.251083,1.7260236 l 10e-7,0 z" />
    <path
       style="fill:url(#linearGradient2926);fill-opacity:1;fill-rule:nonzero;stroke:none"
       id="path2896"
       d="m 12.121471,7.9060109 6.931026,9.3601041 c 0.913109,-0.669755 1.965938,-1.167064 3.142629,-1.425169 0.03132,-0.0069 0.06026,-0.01359 0.09157,-0.02009 L 19.857174,4.426276 c -2.888973,0.5613244 -5.31953,1.8556038 -7.735703,3.4797349 l 0,0 z" />
    <path
       style="fill:url(#linearGradient2928);fill-opacity:1;fill-rule:nonzero;stroke:none"
       id="path2898"
       d="m 8.2523933,11.646535 9.2137237,7.155818 c 0.70865,-0.883264 1.596891,-1.636119 2.666685,-2.18998 0.02847,-0.01474 0.05469,-0.02872 0.08325,-0.0431 L 14.86585,6.2506132 C 12.220599,7.5405321 10.165881,9.452393 8.2523933,11.646535 z" />
    <path
       style="fill:url(#linearGradient2930);fill-opacity:1;fill-rule:nonzero;stroke:none"
       id="path2900"
       d="m 5.6328855,16.073974 c 7.1748065,2.242248 7.8502625,7.031463 12.7767855,1.754127 L 10.499985,9.1321388 C 8.2787249,11.062747 6.9132871,13.459349 5.6328855,16.073974 z" />
    <path
       style="fill:url(#linearGradient2932);fill-opacity:1;fill-rule:nonzero;stroke:none"
       id="path2902"
       d="M 7.155289,13.193173 C 5.9722117,14.945185 5.2475768,16.829547 4.6301929,18.837116 L 15.96875,21.8125 C 16.184264,21.049497 16.486796,20.297733 16.9375,19.59375 16.95479,19.56675 16.98246,19.52673 17,19.5 L 7.155289,13.193173 z" />
  </g>
  <g
     id="g2904"
     transform="matrix(-0.34867079,0,0,-0.34867079,20.549229,20.245748)">
    <path
       style="fill:url(#linearGradient2934);fill-opacity:1;fill-rule:nonzero;stroke:none"
       id="path2906"
       transform="matrix(0.9996011,0.02824295,-0.02824295,0.9996011,0.6924114,-0.6708346)"
       d="M 15.856928,5.7307748 20.625,16.34375 C 21.660403,15.885186 22.795334,15.625 24,15.625 c 0.03206,0 0.06178,-3.6e-4 0.09375,0 L 24.10801,4.0047512 c -2.94215,-0.070687 -5.543041,0.6572865 -8.251083,1.7260236 l 10e-7,0 z" />
    <path
       style="fill:url(#linearGradient2936);fill-opacity:1;fill-rule:nonzero;stroke:none"
       id="path2908"
       d="m 12.121471,7.9060109 6.931026,9.3601041 c 0.913109,-0.669755 1.965938,-1.167064 3.142629,-1.425169 0.03132,-0.0069 0.06026,-0.01359 0.09157,-0.02009 L 19.857174,4.426276 c -2.888973,0.5613244 -5.31953,1.8556038 -7.735703,3.4797349 l 0,0 z" />
    <path
       style="fill:url(#linearGradient2938);fill-opacity:1;fill-rule:nonzero;stroke:none"
       id="path2910"
       d="m 8.2523933,11.646535 9.2137237,7.155818 c 0.70865,-0.883264 1.596891,-1.636119 2.666685,-2.18998 0.02847,-0.01474 0.05469,-0.02872 0.08325,-0.0431 L 14.86585,6.2506132 C 12.220599,7.5405321 10.165881,9.452393 8.2523933,11.646535 z" />
    <path
       style="fill:url(#linearGradient2940);fill-opacity:1;fill-rule:nonzero;stroke:none"
       id="path2912"
       d="m 5.6328855,16.073974 c 7.1748065,2.242248 7.8502625,7.031463 12.7767855,1.754127 L 10.499985,9.1321388 C 8.2787249,11.062747 6.9132871,13.459349 5.6328855,16.073974 z" />
    <path
       style="fill:url(#linearGradient2942);fill-opacity:1;fill-rule:nonzero;stroke:none"
       id="path2914"
       d="M 7.155289,13.193173 C 5.9722117,14.945185 5.2475768,16.829547 4.6301929,18.837116 L 15.96875,21.8125 C 16.184264,21.049497 16.486796,20.297733 16.9375,19.59375 16.95479,19.56675 16.98246,19.52673 17,19.5 L 7.155289,13.193173 z" />
  </g>
  <g
     id="layer1"
     transform="translate(0.99999922,7.0000014)">
    <g
       style="display:inline"
       id="g3325"
       transform="translate(-4.0004258,-4.9995745)">
      <path
         style="fill:url(#linearGradient3918);fill-rule:nonzero;stroke:none"
         id="path3040"
         d="m 11.997441,6.0027482 c -3.8798961,0 -6.9998116,3.1199161 -6.9998116,6.9998118 0,3.879895 3.1199155,6.99981 6.9998116,6.99981 3.879895,0 6.999809,-3.119915 6.999809,-6.99981 0,-3.8798957 -3.119914,-6.9998118 -6.999809,-6.9998118 l 0,0 z m 0,8.6797658 c -0.919976,0 -1.679956,-0.759979 -1.679956,-1.679954 0,-0.919976 0.75998,-1.679956 1.679956,-1.679956 0.919976,0 1.679955,0.75998 1.679955,1.679956 0,0.919975 -0.759979,1.679954 -1.679955,1.679954 z" />
      <path
         style="fill:url(#linearGradient3920);fill-rule:nonzero;stroke:#808080;stroke-width:1.00000024;stroke-miterlimit:4;stroke-opacity:1"
         id="path3049"
         d="m 12.000426,5.4995761 c -4.1571429,0 -7.4999993,3.342857 -7.4999993,7.4999989 0,4.157142 3.3428564,7.499998 7.4999993,7.499998 4.157142,0 7.499999,-3.342856 7.499999,-7.499998 0,-4.1571419 -3.342857,-7.4999989 -7.499999,-7.4999989 l 0,0 z m 0,9.2999999 c -0.985715,0 -1.8,-0.814286 -1.8,-1.800001 0,-0.985714 0.814285,-1.8 1.8,-1.8 0.985714,0 1.799998,0.814286 1.799998,1.8 0,0.985715 -0.814284,1.800001 -1.799998,1.800001 z" />
      <path
         style="opacity:0.51098902;fill:#eeeeec;fill-rule:nonzero;stroke:none"
         id="path3051"
         d="m 12.00064,9.084399 c -2.1862784,0 -3.9149638,1.779529 -3.9149638,3.914962 0,2.186278 1.7795295,3.914964 3.9149638,3.914964 2.186274,0 3.914962,-1.779529 3.914962,-3.914964 0,-2.186277 -1.779531,-3.914962 -3.914962,-3.914962 l 0,0 z m 0,6.050397 c -1.169405,0 -2.1354343,-0.966031 -2.1354343,-2.135435 0,-1.169403 0.9660293,-2.135433 2.1354343,-2.135433 1.169401,0 2.135431,0.96603 2.135431,2.135433 0,1.169404 -0.96603,2.135435 -2.135431,2.135435 z" />
      <path
         style="opacity:0.54644811;fill:none;stroke:url(#linearGradient3922);stroke-width:1.00000024;stroke-miterlimit:4;stroke-opacity:1"
         id="path5264"
         d="m 12.000453,6.4995459 c -3.6028529,0 -6.4999954,2.8971428 -6.4999954,6.5000001 0,3.602856 2.8971425,6.499997 6.4999954,6.499997 3.602859,0 6.500002,-2.897141 6.500002,-6.499997 0,-3.6028573 -2.897143,-6.5000001 -6.500002,-6.5000001 l 0,0 z" />
      <path
         style="opacity:0.67213111;fill:none;stroke:url(#linearGradient3924);stroke-width:2.29176831;stroke-linecap:butt;stroke-linejoin:miter;stroke-miterlimit:4;stroke-opacity:1;stroke-dashoffset:0;marker:none;visibility:visible;display:inline;overflow:visible"
         id="path6026"
         transform="matrix(0.4060353,0,0,0.4060353,2.1478352,2.8832018)"
         d="m 30.405591,24.930641 a 6.098796,6.098796 0 1 1 -12.197592,0 6.098796,6.098796 0 1 1 12.197592,0 z" />
    </g>
  </g>
  <g
     id="g2458"
     transform="matrix(0.34867079,0,0,0.34867079,0.81303264,6.5127457)">
    <path
       style="fill:url(#linearGradient3896);fill-opacity:1;fill-rule:nonzero;stroke:none"
       id="path2460"
       transform="matrix(0.9996011,0.02824295,-0.02824295,0.9996011,0.6924114,-0.6708346)"
       d="M 15.856928,5.7307748 20.625,16.34375 C 21.660403,15.885186 22.795334,15.625 24,15.625 c 0.03206,0 0.06178,-3.6e-4 0.09375,0 L 24.10801,4.0047512 c -2.94215,-0.070687 -5.543041,0.6572865 -8.251083,1.7260236 l 10e-7,0 z" />
    <path
       style="fill:url(#linearGradient3898);fill-opacity:1;fill-rule:nonzero;stroke:none"
       id="path2462"
       d="m 12.121471,7.9060109 6.931026,9.3601041 c 0.913109,-0.669755 1.965938,-1.167064 3.142629,-1.425169 0.03132,-0.0069 0.06026,-0.01359 0.09157,-0.02009 L 19.857174,4.426276 c -2.888973,0.5613244 -5.31953,1.8556038 -7.735703,3.4797349 l 0,0 z" />
    <path
       style="fill:url(#linearGradient3900);fill-opacity:1;fill-rule:nonzero;stroke:none"
       id="path2464"
       d="m 8.2523933,11.646535 9.2137237,7.155818 c 0.70865,-0.883264 1.596891,-1.636119 2.666685,-2.18998 0.02847,-0.01474 0.05469,-0.02872 0.08325,-0.0431 L 14.86585,6.2506132 C 12.220599,7.5405321 10.165881,9.452393 8.2523933,11.646535 z" />
    <path
       style="fill:url(#linearGradient3902);fill-opacity:1;fill-rule:nonzero;stroke:none"
       id="path2466"
       d="m 5.6328855,16.073974 c 7.1748065,2.242248 7.8502625,7.031463 12.7767855,1.754127 L 10.499985,9.1321388 C 8.2787249,11.062747 6.9132871,13.459349 5.6328855,16.073974 z" />
    <path
       style="fill:url(#linearGradient3904);fill-opacity:1;fill-rule:nonzero;stroke:none"
       id="path2468"
       d="M 7.155289,13.193173 C 5.9722117,14.945185 5.2475768,16.829547 4.6301929,18.837116 L 15.96875,21.8125 C 16.184264,21.049497 16.486796,20.297733 16.9375,19.59375 16.95479,19.56675 16.98246,19.52673 17,19.5 L 7.155289,13.193173 z" />
  </g>
  <g
     id="g2472"
     transform="matrix(-0.34867079,0,0,-0.34867079,17.54923,23.245747)">
    <path
       style="fill:url(#linearGradient3906);fill-opacity:1;fill-rule:nonzero;stroke:none"
       id="path2475"
       transform="matrix(0.9996011,0.02824295,-0.02824295,0.9996011,0.6924114,-0.6708346)"
       d="M 15.856928,5.7307748 20.625,16.34375 C 21.660403,15.885186 22.795334,15.625 24,15.625 c 0.03206,0 0.06178,-3.6e-4 0.09375,0 L 24.10801,4.0047512 c -2.94215,-0.070687 -5.543041,0.6572865 -8.251083,1.7260236 l 10e-7,0 z" />
    <path
       style="fill:url(#linearGradient3908);fill-opacity:1;fill-rule:nonzero;stroke:none"
       id="path2477"
       d="m 12.121471,7.9060109 6.931026,9.3601041 c 0.913109,-0.669755 1.965938,-1.167064 3.142629,-1.425169 0.03132,-0.0069 0.06026,-0.01359 0.09157,-0.02009 L 19.857174,4.426276 c -2.888973,0.5613244 -5.31953,1.8556038 -7.735703,3.4797349 l 0,0 z" />
    <path
       style="fill:url(#linearGradient3910);fill-opacity:1;fill-rule:nonzero;stroke:none"
       id="path2479"
       d="m 8.2523933,11.646535 9.2137237,7.155818 c 0.70865,-0.883264 1.596891,-1.636119 2.666685,-2.18998 0.02847,-0.01474 0.05469,-0.02872 0.08325,-0.0431 L 14.86585,6.2506132 C 12.220599,7.5405321 10.165881,9.452393 8.2523933,11.646535 z" />
    <path
       style="fill:url(#linearGradient3912);fill-opacity:1;fill-rule:nonzero;stroke:none"
       id="path2481"
       d="m 5.6328855,16.073974 c 7.1748065,2.242248 7.8502625,7.031463 12.7767855,1.754127 L 10.499985,9.1321388 C 8.2787249,11.062747 6.9132871,13.459349 5.6328855,16.073974 z" />
    <path
       style="fill:url(#linearGradient3914);fill-opacity:1;fill-rule:nonzero;stroke:none"
       id="path2483"
       d="M 7.155289,13.193173 C 5.9722117,14.945185 5.2475768,16.829547 4.6301929,18.837116 L 15.96875,21.8125 C 16.184264,21.049497 16.486796,20.297733 16.9375,19.59375 16.95479,19.56675 16.98246,19.52673 17,19.5 L 7.155289,13.193173 z" />
  </g>
</svg>
