<?xml version="1.0" encoding="UTF-8" standalone="no"?>
<svg
   xmlns:dc="http://purl.org/dc/elements/1.1/"
   xmlns:cc="http://creativecommons.org/ns#"
   xmlns:rdf="http://www.w3.org/1999/02/22-rdf-syntax-ns#"
   xmlns:svg="http://www.w3.org/2000/svg"
   xmlns="http://www.w3.org/2000/svg"
   xmlns:xlink="http://www.w3.org/1999/xlink"
   id="svg3162"
   height="24"
   width="24"
   version="1.1">
  <defs
     id="defs3164">
    <linearGradient
       id="linearGradient4404-56-1-1">
      <stop
         offset="0"
         style="stop-color:#ffffff;stop-opacity:1"
         id="stop4406-5-6-9" />
      <stop
         offset="0.09090912"
         style="stop-color:#ffffff;stop-opacity:0.23529412"
         id="stop4408-9-5-4" />
      <stop
         offset="0.81818187"
         style="stop-color:#ffffff;stop-opacity:0.15686275"
         id="stop4410-63-5-2" />
      <stop
         offset="1"
         style="stop-color:#ffffff;stop-opacity:0.39215687"
         id="stop4412-0-6-0" />
    </linearGradient>
    <linearGradient
       id="linearGradient4404-5-5-1">
      <stop
         offset="0"
         style="stop-color:#ffffff;stop-opacity:1"
         id="stop4406-9-1-0" />
      <stop
         offset="0.09090912"
         style="stop-color:#ffffff;stop-opacity:0.23529412"
         id="stop4408-7-4-4" />
      <stop
         offset="0.81818187"
         style="stop-color:#ffffff;stop-opacity:0.15686275"
         id="stop4410-6-4-0" />
      <stop
         offset="1"
         style="stop-color:#ffffff;stop-opacity:0.39215687"
         id="stop4412-1-5-5" />
    </linearGradient>
    <linearGradient
       id="linearGradient4238-0">
      <stop
         id="stop4240-2"
         style="stop-color:#8d909a;stop-opacity:1"
         offset="0" />
      <stop
         id="stop4242-27"
         style="stop-color:#e5e5e5;stop-opacity:1"
         offset="1" />
    </linearGradient>
    <linearGradient
       y2="26.410894"
       x2="19.314434"
       y1="26.410894"
       x1="34.613369"
       spreadMethod="reflect"
       gradientTransform="matrix(0.45754817,0,0,0.47298439,-1.837284,-3.6558699)"
       gradientUnits="userSpaceOnUse"
       id="linearGradient5420"
       xlink:href="#linearGradient4238-0" />
    <linearGradient
       id="linearGradient3205">
      <stop
         id="stop3207"
         style="stop-color:#000000;stop-opacity:1"
         offset="0" />
      <stop
         id="stop3209"
         style="stop-color:#000000;stop-opacity:0"
         offset="1" />
    </linearGradient>
    <linearGradient
       id="linearGradient3254-3-182">
      <stop
         id="stop4663"
         style="stop-color:#ffffff;stop-opacity:1"
         offset="0" />
      <stop
         id="stop4665"
         style="stop-color:#ffffff;stop-opacity:0"
         offset="1" />
    </linearGradient>
    <linearGradient
       id="linearGradient3254-8-457">
      <stop
         id="stop4669"
         style="stop-color:#ffffff;stop-opacity:1"
         offset="0" />
      <stop
         id="stop4671"
         style="stop-color:#ffffff;stop-opacity:0"
         offset="1" />
    </linearGradient>
    <linearGradient
       id="linearGradient2793-2-0-403">
      <stop
         id="stop4645"
         style="stop-color:#8d909a;stop-opacity:1"
         offset="0" />
      <stop
         id="stop4647"
         style="stop-color:#d9d9d9;stop-opacity:1"
         offset="1" />
    </linearGradient>
    <linearGradient
       id="linearGradient3384">
      <stop
         id="stop3386"
         style="stop-color:#6e6e6e;stop-opacity:1"
         offset="0" />
      <stop
         id="stop3388"
         style="stop-color:#9f9fa1;stop-opacity:1"
         offset="1" />
    </linearGradient>
    <linearGradient
       id="linearGradient5060">
      <stop
         id="stop5062"
         style="stop-color:#000000;stop-opacity:1"
         offset="0" />
      <stop
         id="stop5064"
         style="stop-color:#000000;stop-opacity:0"
         offset="1" />
    </linearGradient>
    <linearGradient
       y2="45"
       x2="24"
       y1="15.502284"
       x1="24"
       gradientTransform="matrix(0.33333342,0.02029539,0,0.4407191,4.3333316,-6.2961247)"
       gradientUnits="userSpaceOnUse"
       id="linearGradient3138"
       xlink:href="#linearGradient3205" />
    <linearGradient
       y2="45"
       x2="24"
       y1="15.502284"
       x1="24"
       gradientTransform="matrix(0.33333342,0.02029539,0,0.4407191,3.6666653,-6.2961247)"
       gradientUnits="userSpaceOnUse"
       id="linearGradient3141"
       xlink:href="#linearGradient3205" />
    <linearGradient
       y2="43"
       x2="24"
       y1="13.506023"
       x1="24"
       gradientTransform="matrix(0.33333342,0.16129118,0,0.43780918,4.9999973,-8.0571429)"
       gradientUnits="userSpaceOnUse"
       id="linearGradient3144"
       xlink:href="#linearGradient3205" />
    <linearGradient
       y2="43"
       x2="24"
       y1="13.506023"
       x1="24"
       gradientTransform="matrix(0.33333337,0.16129118,0,0.43780917,2.9999998,-8.1652762)"
       gradientUnits="userSpaceOnUse"
       id="linearGradient3147"
       xlink:href="#linearGradient3205" />
    <linearGradient
       y2="34.173542"
       x2="17.125"
       y1="20.230709"
       x1="12.25"
       gradientTransform="matrix(0.40188699,0,0,0.65202925,3.359604,-11.949352)"
       gradientUnits="userSpaceOnUse"
       id="linearGradient3150"
       xlink:href="#linearGradient3254-3-182" />
    <linearGradient
       y2="43.886456"
       x2="23.500021"
       y1="19.153051"
       x1="23.500021"
       gradientTransform="matrix(0.49817653,0,0,0.80862302,0.2928412,-18.487599)"
       gradientUnits="userSpaceOnUse"
       id="linearGradient3153"
       xlink:href="#linearGradient4404-56-1-1" />
    <radialGradient
       r="14.500172"
       fy="21.029308"
       fx="19.308081"
       cy="21.029308"
       cx="19.308081"
       spreadMethod="pad"
       gradientTransform="matrix(0,0.82667606,-0.72143311,0,23.02142,-17.535753)"
       gradientUnits="userSpaceOnUse"
       id="radialGradient3164"
       xlink:href="#linearGradient3254-8-457" />
    <linearGradient
       y2="26.410894"
       x2="21.514704"
       y1="26.410894"
       x1="11.93083"
       spreadMethod="reflect"
       gradientTransform="matrix(0.54168272,0,0,0.67111533,0.35401353,-12.72716)"
       gradientUnits="userSpaceOnUse"
       id="linearGradient3167"
       xlink:href="#linearGradient2793-2-0-403" />
    <linearGradient
       y2="5.5"
       x2="31.048019"
       y1="45"
       x1="31.048019"
       gradientTransform="matrix(0.44828379,0,0,0.44155846,1.2413813,-5.1963399)"
       gradientUnits="userSpaceOnUse"
       id="linearGradient3169"
       xlink:href="#linearGradient3384" />
    <radialGradient
       r="47.38271"
       fy="108.02493"
       fx="62.71241"
       cy="108.02493"
       cx="62.71241"
       gradientTransform="matrix(0.1793903,0,0,0.08392304,0.75000045,2.9111546)"
       gradientUnits="userSpaceOnUse"
       id="radialGradient3172"
       xlink:href="#linearGradient5060" />
    <linearGradient
       y2="28.903023"
       x2="32.180862"
       y1="13.828948"
       x1="32.180862"
       gradientTransform="matrix(0.72972969,0,0,0.72972969,3.516668,-7.0913942)"
       gradientUnits="userSpaceOnUse"
       id="linearGradient3092"
       xlink:href="#linearGradient4404-5-5-1" />
  </defs>
  <metadata
     id="metadata3167">
    <rdf:RDF>
      <cc:Work
         rdf:about="">
        <dc:format>image/svg+xml</dc:format>
        <dc:type
           rdf:resource="http://purl.org/dc/dcmitype/StillImage" />
        <dc:title />
      </cc:Work>
    </rdf:RDF>
  </metadata>
  <g
     transform="translate(0,8)"
     style="display:inline"
     id="layer2" />
  <g
     transform="translate(0,8)"
     id="layer3">
    <path
       style="fill:url(#radialGradient3172);fill-opacity:1;fill-rule:evenodd;stroke:none;stroke-width:1.05496335;marker:none;visibility:visible;display:inline;overflow:visible"
       id="path12941"
       d="m 20.5,11.976943 c -5.18e-4,2.195993 -3.805946,3.976068 -8.5,3.976068 -4.6940544,0 -8.499482,-1.780075 -8.4999999,-3.976068 C 3.4994823,9.7806084 7.3052136,8 12,8 c 4.694786,0 8.500518,1.7806084 8.5,3.976943 z" />
    <path
       style="fill:url(#linearGradient3167);fill-opacity:1;fill-rule:nonzero;stroke:url(#linearGradient3169);stroke-width:0.99999982;stroke-opacity:1;marker:none;visibility:visible;display:inline;overflow:visible"
       id="path2230"
       d="m 5.5000001,-2.5469891 0,15.0742671 c 0,0.553445 1.975932,1.925733 6.5001929,1.925733 4.52426,0 6.50019,-1.372288 6.50019,-1.925733 l 0,-15.0742671 z" />
    <path
       style="opacity:0.4;fill:url(#radialGradient3164);fill-opacity:1;fill-rule:nonzero;stroke:none;stroke-width:0.99999994;marker:none;visibility:visible;display:inline;overflow:visible"
       id="path3212"
       d="m 6,-4 0,15.260654 c 0,1.389214 2.7498611,2.953676 6.138082,2.953675 3.388222,0 6.138082,-1.564461 6.138082,-2.953675 L 18.276164,-4 C 18.276164,-4 6,-4 6,-4 z" />
    <path
       style="opacity:0.8;fill:none;stroke:url(#linearGradient3153);stroke-width:0.99999964;stroke-linecap:round;stroke-linejoin:round;stroke-miterlimit:4;stroke-opacity:1;stroke-dasharray:none;stroke-dashoffset:0;marker:none;visibility:visible;display:inline;overflow:visible"
       id="path2206"
       d="m 6.5000001,-2.5 0,14.5 c 0,0 0.4999799,1.435416 5.4999899,1.453011 C 17,13.470606 17.5,12 17.5,12 l 0,-14.5 z" />
    <path
       transform="matrix(1.1606218,0,0,0.98765432,2.7150258,-6.4506173)"
       d="m 8,1.46875 c -1.7572026,0 -3.3544793,0.2196475 -4.46875,0.5625 -0.5571353,0.1714263 -0.9846671,0.3694792 -1.25,0.5625 C 2.0159171,2.7867708 1.96875,2.9230812 1.96875,3 l 0,2 c 0,0.076919 0.047167,0.2132292 0.3125,0.40625 0.2653329,0.1930208 0.6928647,0.3910737 1.25,0.5625 1.1142707,0.3428525 2.7115474,0.5625 4.46875,0.5625 1.7572027,0 3.354479,-0.2196475 4.46875,-0.5625 0.557135,-0.1714263 0.984667,-0.3694792 1.25,-0.5625 C 13.984083,5.2132292 14.03125,5.0769189 14.03125,5 l 0,-2 c 0,-0.076919 -0.04717,-0.2132292 -0.3125,-0.40625 -0.265333,-0.1930208 -0.692865,-0.3910737 -1.25,-0.5625 C 11.354479,1.6883975 9.7572027,1.46875 8,1.46875 z"
       id="path5418"
       style="color:#000000;fill:url(#linearGradient5420);fill-opacity:1;fill-rule:nonzero;stroke:none;stroke-width:1.03944016;marker:none;visibility:visible;display:inline;overflow:visible;enable-background:accumulate" />
    <path
       style="opacity:0.2;fill:url(#linearGradient3150);fill-opacity:1;fill-rule:nonzero;stroke:none;stroke-width:1;marker:none;visibility:visible;display:inline;overflow:visible"
       id="rect3244"
       d="m 8.5841351,-1.9314525 2.0094339,0.4145704 0,15.8524641 -2.0094339,-0.529775 0,-15.7372595 0,0 z" />
    <path
       style="opacity:0.15;fill:url(#linearGradient3147);fill-opacity:1;fill-rule:nonzero;stroke:none;stroke-width:0.99992186;marker:none;visibility:visible;display:inline;overflow:visible;enable-background:accumulate"
       id="path3772"
       d="m 7.5000002,-0.07478452 c 0.277,0.13403311 0.5,0.53483109 0.5,0.89865057 l 0,11.59930595 c 0,0.36382 -0.223,0.548811 -0.5,0.414778 -0.277,-0.134034 -0.5,-0.534833 -0.5,-0.898652 l 0,-11.5993056 c 0,-0.36381947 0.223,-0.54881012 0.5,-0.41477692 z" />
    <path
       style="opacity:0.15;fill:url(#linearGradient3144);fill-opacity:1;fill-rule:nonzero;stroke:none;stroke-width:0.99992186;marker:none;visibility:visible;display:inline;overflow:visible;enable-background:accumulate"
       id="path3287"
       d="M 16.499999,-0.07478458 C 16.222999,0.05924847 16,0.46004663 16,0.82386592 L 16,12.423172 c 0,0.363819 0.222999,0.548812 0.499999,0.414777 C 16.776999,12.703916 17,12.303117 17,11.939298 L 17,0.33999228 c 0,-0.36381947 -0.223001,-0.54881006 -0.500001,-0.41477686 z" />
    <path
       style="opacity:0.3;fill:url(#linearGradient3141);fill-opacity:1;fill-rule:nonzero;stroke:none;stroke-width:0.99992186;marker:none;visibility:visible;display:inline;overflow:visible;enable-background:accumulate"
       id="path3778"
       d="M 10.5,0.95373147 C 10.777,0.97059803 11,1.2790156 11,1.6452532 l 0,11.6764028 c 0,0.366237 -0.223,0.647501 -0.5,0.630634 C 10.223,13.935428 10,13.627006 10,13.260769 L 10,1.584367 c 0,-0.3662375 0.223,-0.64750089 0.5,-0.63063553 z" />
    <path
       style="opacity:0.3;fill:url(#linearGradient3138);fill-opacity:1;fill-rule:nonzero;stroke:none;stroke-width:0.99992186;marker:none;visibility:visible;display:inline;overflow:visible;enable-background:accumulate"
       id="path3293"
       d="M 13.5,0.95373147 C 13.222999,0.97059803 13,1.2790156 13,1.6452532 l 0,11.6764028 c 0,0.366237 0.222999,0.647501 0.5,0.630634 0.277,-0.01686 0.5,-0.325284 0.5,-0.691521 L 14,1.584367 C 14,1.2181295 13.777,0.93686611 13.5,0.95373147 z" />
    <path
       id="path5019-9"
       d="m 12,-5.5000003 c -4.1421356,0 -7.5,0.8954305 -7.5,1.9999997 l 0,2.0000007 C 4.5,-0.3954306 7.8578644,0.5 12,0.5 c 4.142135,0 7.5,-0.8954306 7.5,-1.9999999 l 0,-2.0000007 c 0,-1.1045692 -3.357865,-1.9999997 -7.5,-1.9999997 z"
       style="opacity:0.5;color:#000000;fill:none;stroke:#161b28;stroke-width:1;stroke-linecap:butt;stroke-linejoin:miter;stroke-miterlimit:4;stroke-opacity:1;stroke-dasharray:none;stroke-dashoffset:0;marker:none;visibility:visible;display:inline;overflow:visible;enable-background:accumulate" />
    <path
       transform="matrix(0.92857143,0,0,-0.42857144,-12.142857,-1.5)"
       d="M 33,3.5 C 33,5.4329966 29.865993,7 26,7 22.134007,7 19,5.4329966 19,3.5 19,1.5670034 22.134007,0 26,0 c 3.865993,0 7,1.5670034 7,3.5 z"
       id="path4564-1-6"
       style="opacity:0.7;color:#000000;fill:none;stroke:url(#linearGradient3092);stroke-width:1.58518767;stroke-linecap:round;stroke-linejoin:round;stroke-miterlimit:4;stroke-opacity:1;stroke-dasharray:none;stroke-dashoffset:0;marker:none;visibility:visible;display:inline;overflow:visible;enable-background:accumulate" />
    <path
       id="rect4605-2-4-3"
       d="m 10,-5.5 c -0.277,0 -0.5,0.223 -0.5,0.5 l 0,2 c 0,0.277 0.223,0.5 0.5,0.5 l 2,0 c -0.277,0 -0.5,-0.223 -0.5,-0.5 0,-0.277 0.223,-0.5 0.5,-0.5 0.277,0 0.5,0.223 0.5,0.5 0,0.277 -0.223,0.5 -0.5,0.5 l 2,0 c 0.277,0 0.5,-0.223 0.5,-0.5 l 0,-2 c 0,-0.277 -0.223,-0.5 -0.5,-0.5 l -4,0 z"
       style="color:#000000;fill:#dcdcdd;fill-opacity:1;fill-rule:nonzero;stroke:none;stroke-width:1.01884639;marker:none;visibility:visible;display:inline;overflow:visible;enable-background:accumulate" />
    <path
       id="rect4605-3-9"
       d="m 10,-5.5 c -0.277,0 -0.5,0.223 -0.5,0.5 l 0,2 c 0,0.277 0.223,0.5 0.5,0.5 l 2,0 c -0.277,0 -0.5,-0.223 -0.5,-0.5 0,-0.50095 -9.51e-4,-0.5 0.5,-0.5 0.476067,0 0.5,0.02393 0.5,0.5 0,0.277 -0.223,0.5 -0.5,0.5 l 2,0 c 0.277,0 0.5,-0.223 0.5,-0.5 l 0,-2 c 0,-0.277 -0.223,-0.5 -0.5,-0.5 z"
       style="opacity:0.4;color:#000000;fill:none;stroke:#161b28;stroke-width:1;stroke-linecap:butt;stroke-linejoin:miter;stroke-miterlimit:4;stroke-opacity:1;stroke-dasharray:none;stroke-dashoffset:0;marker:none;visibility:visible;display:inline;overflow:visible;enable-background:accumulate" />
  </g>
</svg>
