<?xml version="1.0" encoding="UTF-8" standalone="no"?>
<svg
   xmlns:dc="http://purl.org/dc/elements/1.1/"
   xmlns:cc="http://creativecommons.org/ns#"
   xmlns:rdf="http://www.w3.org/1999/02/22-rdf-syntax-ns#"
   xmlns:svg="http://www.w3.org/2000/svg"
   xmlns="http://www.w3.org/2000/svg"
   xmlns:xlink="http://www.w3.org/1999/xlink"
   width="16"
   height="16"
   id="svg3330"
   version="1.1">
  <defs
     id="defs3332">
    <linearGradient
       xlink:href="#linearGradient3587-6-5-3-0"
       id="linearGradient3300"
       gradientUnits="userSpaceOnUse"
       gradientTransform="matrix(0.4101105,0,0,0.5452071,-30.798735,-3.9568823)"
       x1="97.04393"
       y1="12.760073"
       x2="97.04393"
       y2="34.770058" />
    <linearGradient
       id="linearGradient3587-6-5-3-0">
      <stop
         id="stop3589-9-2-2-7"
         style="stop-color:#000000;stop-opacity:1"
         offset="0" />
      <stop
         id="stop3591-7-4-73-6"
         style="stop-color:#363636;stop-opacity:1"
         offset="1" />
    </linearGradient>
    <linearGradient
       xlink:href="#linearGradient3587-6-5-3-0"
       id="linearGradient3298"
       gradientUnits="userSpaceOnUse"
       gradientTransform="matrix(0.4101105,0,0,0.5452071,-30.798735,-3.9568823)"
       x1="97.04393"
       y1="-0.079084992"
       x2="97.04393"
       y2="34.770058" />
  </defs>
  <metadata
     id="metadata3335">
    <rdf:RDF>
      <cc:Work
         rdf:about="">
        <dc:format>image/svg+xml</dc:format>
        <dc:type
           rdf:resource="http://purl.org/dc/dcmitype/StillImage" />
        <dc:title />
      </cc:Work>
    </rdf:RDF>
  </metadata>
  <g
     id="layer1">
    <path
       style="opacity:0.6;color:#000000;fill:#ffffff;fill-opacity:1;fill-rule:nonzero;stroke:none;stroke-width:1;marker:none;visibility:visible;display:inline;overflow:visible;enable-background:accumulate"
       d="M 8,1 C 6.338,1 5,2.338 5,4 l 0,4 c 0,1.662 1.338,2 3,2 1.662,0 3,-0.338 3,-2 L 11,4 C 11,2.338 9.662,1 8,1 z M 2,7 2,8 3,8 3,9 c 0,1.786654 1.717481,3.441543 4,3.90625 L 7,15 l -1,0 0,1 4,0 0,-1 -1,0 0,-2.09375 C 11.28252,12.441543 13,10.977782 13,9 l 0,-1 1,0 0,-1 -1,0 -1,0 0,2 c 0,1.324065 -1.784,3 -4,3 C 5.784,12 4,10.260356 4,9 L 4,7 3,7 z"
       id="path3122-6" />
    <path
       style="opacity:0.7;color:#000000;fill:url(#linearGradient3298);fill-opacity:1;fill-rule:nonzero;stroke:none;stroke-width:1;marker:none;visibility:visible;display:inline;overflow:visible;enable-background:accumulate"
       d="M 8,0 C 6.338,0 5,1.338 5,3 l 0,4 c 0,1.662 1.338,3 3,3 1.662,0 3,-1.338 3,-3 L 11,3 C 11,1.338 9.662,0 8,0 z"
       id="path3122" />
    <path
       style="opacity:0.7;color:#000000;fill:url(#linearGradient3300);fill-opacity:1;fill-rule:nonzero;stroke:none;stroke-width:1;marker:none;visibility:visible;display:inline;overflow:visible;enable-background:accumulate"
       d="m 2,6 0,1 1,0 0,1 c 0,2.168912 1.717481,3.441543 4,3.90625 L 7,14 l -1,0 0,1 4,0 0,-1 -1,0 0,-2.09375 C 11.28252,11.441543 13,9.977783 13,8 l 0,-1 1,0 0,-1 -1,0 -1,0 0,2 C 12,9.387775 10.216,11 8,11 5.784,11 4,9.387775 4,8 L 4,6 3,6 z"
       id="rect3004" />
  </g>
</svg>
