<?xml version="1.0" encoding="UTF-8" standalone="no"?>
<svg
   xmlns:dc="http://purl.org/dc/elements/1.1/"
   xmlns:cc="http://creativecommons.org/ns#"
   xmlns:rdf="http://www.w3.org/1999/02/22-rdf-syntax-ns#"
   xmlns:svg="http://www.w3.org/2000/svg"
   xmlns="http://www.w3.org/2000/svg"
   height="16"
   id="svg7384"
   version="1.1"
   width="16.000196">
  <metadata
     id="metadata90">
    <rdf:RDF>
      <cc:Work
         rdf:about="">
        <dc:format>image/svg+xml</dc:format>
        <dc:type
           rdf:resource="http://purl.org/dc/dcmitype/StillImage" />
        <dc:title>elementary Symbolic Icon Theme</dc:title>
      </cc:Work>
    </rdf:RDF>
  </metadata>
  <title
     id="title9167">elementary Symbolic Icon Theme</title>
  <defs
     id="defs7386" />
  <g
     id="layer9"
     style="display:inline"
     transform="translate(-373.0002,562)">
    <path
       class="error"
       d="m 376.0002,-547 c 0,0.554 0.446,1 1,1 l 8,0 c 0.554,0 1,-0.446 1,-1 l 0,-12 c 0,-0.554 -0.446,-1 -1,-1 l -2,0 0,-1 c 0,-0.554 -0.446,-1 -1,-1 l -2,0 c -0.554,0 -1,0.446 -1,1 l 0,1 -2,0 c -0.554,0 -1,0.446 -1,1 z m 1,-0.5 0,-11 c 0,-0.277 0.223,-0.5 0.5,-0.5 l 7,0 c 0.277,0 0.5,0.223 0.5,0.5 l 0,11 c 0,0.277 -0.223,0.5 -0.5,0.5 l -7,0 c -0.277,0 -0.5,-0.223 -0.5,-0.5 z m 3,-12.5 0,-0.5 c 0,-0.277 0.223,-0.5 0.5,-0.5 l 1,0 c 0.277,0 0.5,0.223 0.5,0.5 l 0,0.5 z"
       id="path13474"
       style="color:#bebebe;display:inline;overflow:visible;visibility:visible;fill:#c6262e;fill-opacity:1;fill-rule:nonzero;stroke:none;stroke-width:1;marker:none;enable-background:accumulate" />
    <path
       class="error"
       style="opacity:0.25;fill:#c6262e;fill-opacity:1;stroke:none;stroke-width:1;stroke-linejoin:bevel;stroke-miterlimit:4;stroke-dasharray:none;stroke-dashoffset:0;stroke-opacity:1"
       d="m 378.00021,-558 h 6 v 10 h -6 z"
       id="rect824" />
  </g>
  <g
     id="layer10"
     style="display:inline"
     transform="translate(-373.0002,562)" />
  <g
     id="layer11"
     transform="translate(-373.0002,562)" />
  <g
     id="layer13"
     style="display:inline"
     transform="translate(-373.0002,562)" />
  <g
     id="layer14"
     transform="translate(-373.0002,562)" />
  <g
     id="layer15"
     style="display:inline"
     transform="translate(-373.0002,562)" />
  <g
     id="g71291"
     style="display:inline"
     transform="translate(-373.0002,562)" />
  <g
     id="g4953"
     style="display:inline"
     transform="translate(-373.0002,562)" />
  <g
     id="layer12"
     style="display:inline"
     transform="translate(-373.0002,562)" />
</svg>
