<?xml version="1.0" encoding="UTF-8" standalone="no"?>
<svg
   xmlns:dc="http://purl.org/dc/elements/1.1/"
   xmlns:cc="http://creativecommons.org/ns#"
   xmlns:rdf="http://www.w3.org/1999/02/22-rdf-syntax-ns#"
   xmlns:svg="http://www.w3.org/2000/svg"
   xmlns="http://www.w3.org/2000/svg"
   xmlns:xlink="http://www.w3.org/1999/xlink"
   xmlns:sodipodi="http://sodipodi.sourceforge.net/DTD/sodipodi-0.dtd"
   xmlns:inkscape="http://www.inkscape.org/namespaces/inkscape"
   version="1.0"
   width="16"
   height="16"
   id="svg3201"
   sodipodi:docname="blueberry-tray-disabled.svg"
   inkscape:version="0.92.4 (5da689c313, 2019-01-14)">
  <sodipodi:namedview
     pagecolor="#ffffff"
     bordercolor="#666666"
     borderopacity="1"
     objecttolerance="10"
     gridtolerance="10"
     guidetolerance="10"
     inkscape:pageopacity="0"
     inkscape:pageshadow="2"
     inkscape:window-width="1920"
     inkscape:window-height="1031"
     id="namedview15"
     showgrid="true"
     inkscape:zoom="14.75"
     inkscape:cx="-4.2033892"
     inkscape:cy="-2.8474576"
     inkscape:window-x="0"
     inkscape:window-y="25"
     inkscape:window-maximized="1"
     inkscape:current-layer="g4">
    <inkscape:grid
       type="xygrid"
       id="grid833" />
  </sodipodi:namedview>
  <metadata
     id="metadata19">
    <rdf:RDF>
      <cc:Work
         rdf:about="">
        <dc:format>image/svg+xml</dc:format>
        <dc:type
           rdf:resource="http://purl.org/dc/dcmitype/StillImage" />
        <dc:title></dc:title>
      </cc:Work>
    </rdf:RDF>
  </metadata>
  <defs
     id="defs3203">
    <linearGradient
       id="linearGradient950">
      <stop
         id="stop946"
         offset="0"
         style="stop-color:#ffffff;stop-opacity:1;" />
      <stop
         id="stop948"
         offset="1"
         style="stop-color:#363636;stop-opacity:1" />
    </linearGradient>
    <linearGradient
       id="linearGradient3678">
      <stop
         style="stop-color:#ffffff;stop-opacity:1;"
         offset="0"
         id="stop3680" />
      <stop
         style="stop-color:#e6e6e6;stop-opacity:1;"
         offset="1"
         id="stop3682" />
    </linearGradient>
    <linearGradient
       xlink:href="#linearGradient3678"
       id="linearGradient2857"
       gradientUnits="userSpaceOnUse"
       gradientTransform="matrix(0.87523954,0,0,0.85822383,-2.4875775,-2.0355737)"
       x1="11.888327"
       y1="2.3846951"
       x2="11.888327"
       y2="11.988697" />
    <linearGradient
       xlink:href="#linearGradient3678"
       id="linearGradient2860"
       gradientUnits="userSpaceOnUse"
       gradientTransform="matrix(0.87523954,0,0,0.85822383,-2.487958,-2.0355737)"
       x1="11.888327"
       y1="2.3846951"
       x2="11.888327"
       y2="20.015596" />
    <linearGradient
       xlink:href="#linearGradient3678"
       id="linearGradient2863"
       gradientUnits="userSpaceOnUse"
       gradientTransform="matrix(0.87523954,0,0,0.85822383,-2.4875775,-2.0355737)"
       x1="11.888327"
       y1="16.498461"
       x2="11.888327"
       y2="20.015596" />
    <linearGradient
       inkscape:collect="always"
       xlink:href="#linearGradient3678"
       id="linearGradient877"
       x1="277.06052"
       y1="-243"
       x2="284.94037"
       y2="-243"
       gradientUnits="userSpaceOnUse" />
    <linearGradient
       inkscape:collect="always"
       xlink:href="#linearGradient3587-6-5"
       id="linearGradient879"
       gradientUnits="userSpaceOnUse"
       x1="282.9704"
       y1="-250"
       x2="282.9704"
       y2="-236" />
    <linearGradient
       x1="14.313253"
       y1="4.0000005"
       x2="14.313253"
       y2="20.001163"
       id="linearGradient3209"
       xlink:href="#linearGradient3587-6-5"
       gradientUnits="userSpaceOnUse" />
    <linearGradient
       id="linearGradient3587-6-5">
      <stop
         id="stop3589-9-2"
         style="stop-color:#000000;stop-opacity:1"
         offset="0" />
      <stop
         id="stop3591-7-4"
         style="stop-color:#363636;stop-opacity:1"
         offset="1" />
    </linearGradient>
    <linearGradient
       x1="12.095703"
       y1="4.0491958"
       x2="12.095703"
       y2="19.954636"
       id="linearGradient3201"
       xlink:href="#linearGradient3587-6-5"
       gradientUnits="userSpaceOnUse" />
  </defs>
  <g
     style="color:#bebebe;opacity:1;fill:url(#linearGradient877);fill-opacity:1"
     transform="matrix(1.0152513,0,0,1,-277.28607,251)"
     id="g4">
    <path
       inkscape:connector-curvature="0"
       d="m 280.5,-250 c -0.277,0 -0.5,0.223 -0.5,0.5 v 4.875 l -1.719,-1.5 c -0.312,-0.273 -0.757,-0.22 -1.03,0.094 a 0.753,0.753 0 0 0 0.062,1.062 l 2.25,1.969 -2.25,1.969 a 0.753,0.753 0 0 0 -0.063,1.062 c 0.274,0.313 0.719,0.367 1.031,0.094 l 1.72,-1.5 v 4.875 c 0,0.277 0.222,0.5 0.5,0.5 0.282,0 0.437,-0.02 0.655,-0.188 l 3.532,-3.156 a 0.78,0.78 0 0 0 0.218,-0.375 0.745,0.745 0 0 0 0.032,-0.281 0.723,0.723 0 0 0 -0.032,-0.156 0.78,0.78 0 0 0 -0.218,-0.375 l -2.813,-2.47 2.813,-2.468 a 0.78,0.78 0 0 0 0.218,-0.375 0.712,0.712 0 0 0 0,-0.437 0.78,0.78 0 0 0 -0.218,-0.375 l -3.532,-3.157 c -0.199,-0.16 -0.427,-0.187 -0.656,-0.187 z m 0.5,2.063 2.094,1.875 -2.094,1.812 z m 0,6.187 2.094,1.813 -2.094,1.875 z"
       overflow="visible"
       style="overflow:visible;opacity:0.3;fill:url(#linearGradient879);fill-opacity:1;marker:none"
       id="path6" />
  </g>
</svg>
