<?xml version="1.0" encoding="UTF-8" standalone="no"?>
<svg
   height="16"
   width="16"
   id="svg2"
   version="1.1"
   sodipodi:docname="bluetooth-disabled.svg"
   inkscape:version="1.2.2 (b0a8486541, 2022-12-01)"
   xmlns:inkscape="http://www.inkscape.org/namespaces/inkscape"
   xmlns:sodipodi="http://sodipodi.sourceforge.net/DTD/sodipodi-0.dtd"
   xmlns="http://www.w3.org/2000/svg"
   xmlns:svg="http://www.w3.org/2000/svg"
   xmlns:rdf="http://www.w3.org/1999/02/22-rdf-syntax-ns#"
   xmlns:cc="http://creativecommons.org/ns#"
   xmlns:dc="http://purl.org/dc/elements/1.1/">
  <sodipodi:namedview
     id="namedview488"
     pagecolor="#ffffff"
     bordercolor="#000000"
     borderopacity="0.25"
     inkscape:showpageshadow="2"
     inkscape:pageopacity="0.0"
     inkscape:pagecheckerboard="0"
     inkscape:deskcolor="#d1d1d1"
     showgrid="false"
     inkscape:zoom="35.532116"
     inkscape:cx="7.880195"
     inkscape:cy="5.6005671"
     inkscape:window-width="1278"
     inkscape:window-height="1005"
     inkscape:window-x="443"
     inkscape:window-y="6"
     inkscape:window-maximized="0"
     inkscape:current-layer="svg2" />
  <metadata
     id="metadata12">
    <rdf:RDF>
      <cc:Work
         rdf:about="">
        <dc:format>image/svg+xml</dc:format>
        <dc:type
           rdf:resource="http://purl.org/dc/dcmitype/StillImage" />
      </cc:Work>
    </rdf:RDF>
  </metadata>
  <defs
     id="defs10" />
  <path
     id="path2"
     d="M 2.3516873,0.7362031 1.4122342,1.6776094 14.955203,15.220578 15.894656,14.279172 9.2677033,7.652219 11.687625,5.531125 c 0.106935,-0.1017801 0.18279,-0.2318176 0.21875,-0.375 0.04605,-0.1421978 0.04605,-0.2953022 0,-0.4375 -0.03596,-0.1431824 -0.111815,-0.2732199 -0.21875,-0.375 L 8.1563748,1.187375 c -0.199,-0.16 -0.42725,-0.1875 -0.65625,-0.1875 -0.277,0 -0.5,0.223 -0.5,0.5 v 3.8847656 z m 5.6484375,2.3261719 2.0937502,1.875 -1.8984382,1.642578 -0.195312,-0.195312 z m -1.515625,5.005859 -2.171875,1.900391 c -0.310445,0.276247 -0.3384165,0.751761 -0.0625,1.0625 0.273,0.313 0.71825,0.36675 1.03125,0.09375 l 1.720703,-1.5 v 4.875 c 0,0.277 0.222,0.5 0.5,0.5 0.282,0 0.436297,-0.0195 0.654297,-0.1875 L 10.834108,12.417844 9.7696563,11.353391 8.0001248,12.937375 V 9.583859 Z"
     style="color:#bebebe;overflow:visible;opacity:0.5;fill:#000000;marker:none;fill-opacity:1" />
  <path
     id="path10892"
     d="M 2.3516873,0.7362031 1.4122342,1.6776094 14.955203,15.220578 15.894656,14.279172 Z"
     style="color:#bebebe;overflow:visible;opacity:1;fill:#666666;marker:none"
     sodipodi:nodetypes="ccccc" />
</svg>
