<?xml version="1.0" encoding="UTF-8" standalone="no"?>
<svg
   xmlns:dc="http://purl.org/dc/elements/1.1/"
   xmlns:cc="http://creativecommons.org/ns#"
   xmlns:rdf="http://www.w3.org/1999/02/22-rdf-syntax-ns#"
   xmlns:svg="http://www.w3.org/2000/svg"
   xmlns="http://www.w3.org/2000/svg"
   height="16"
   width="16"
   id="svg2"
   version="1.1">
  <metadata
     id="metadata12">
    <rdf:RDF>
      <cc:Work
         rdf:about="">
        <dc:format>image/svg+xml</dc:format>
        <dc:type
           rdf:resource="http://purl.org/dc/dcmitype/StillImage" />
        <dc:title />
      </cc:Work>
    </rdf:RDF>
  </metadata>
  <defs
     id="defs10" />
  <g
     transform="translate(-1213 -81)"
     id="g4">
    <path
       id="path6"
       transform="translate(1213,81)"
       style="color:#000000;overflow:visible;fill:#666666;marker:none;fill-opacity:1"
       d="M 2,1 C 0.892,1 0,1.892 0,3 v 10 c 0,1.108 0.892,2 2,2 h 9 c 0.441001,0 0.843886,-0.144774 1.173828,-0.384766 a 2.5,2.5 0 0 1 -1.123047,-1.625 C 11.033042,12.991162 11.017978,13 11,13 H 2 C 1.446,13 1,12.554 1,12 V 3 C 1,2.446 1.446,2 2,2 h 9 c 0.01761,0 0.03349,0.00482 0.05078,0.00586 A 2.5,2.5 0 0 1 11.458984,1.0585938 C 11.311247,1.0232117 11.15928,1 11,1 Z m 6.65625,4.9941406 c -0.79,0 -1.5472969,0.257 -2.2792969,0.75 L 6.75,7.59375 C 7.062,7.38375 7.36625,7.234 7.65625,7.125 c 0.298,-0.116 0.57,-0.15625 0.875,-0.15625 0.449,0 0.79225,0.10375 1.03125,0.34375 C 9.8025,7.5445 10,7.86125 10,8.28125 v 0.3066406 c -0.21,-0.08 -0.52025,-0.1435 -0.78125,-0.1875 -0.2577,-0.04608 -0.51955,-0.06734 -0.78125,-0.0625 -0.356,0 -0.67175,0.038 -0.96875,0.125 -0.29,0.087 -0.56425,0.215 -0.78125,0.375 -0.21,0.16 -0.35275,0.3455 -0.46875,0.5625 -0.116,0.218 -0.1875,0.5493594 -0.1875,0.8183594 0,0.254 0.06225,0.50075 0.15625,0.71875 0.101,0.217 0.208,0.4025 0.375,0.5625 0.174,0.16 0.393,0.28 0.625,0.375 0.239,0.087 0.50525,0.125 0.78125,0.125 0.428,0 0.8175,-0.076 1.1875,-0.25 0.377,-0.181 0.6835,-0.44825 0.9375,-0.78125 L 10.125,11.3125 c 0.022,0.166197 0.09875,0.320702 0.21875,0.4375 0.123,0.109 0.29925,0.1725 0.53125,0.1875 0.05444,0 0.124486,1.16e-4 0.191406,0 A 2.5,2.5 0 0 1 11.46875,11.046875 V 10.875 C 11.34475,10.868 11.165234,10.83925 11.115234,10.78125 11.042234,10.69354 11.0014,10.582869 11,10.46875 V 8.5 8.3378906 c 0,-0.747 -0.09625,-1.31975 -0.53125,-1.71875 -0.435,-0.399 -1.0295,-0.625 -1.8125,-0.625 z m -0.089844,3.0703125 c 0.2180003,0 0.6070313,0.04975 0.8320313,0.09375 C 9.6304375,9.2022031 9.797,9.26375 10,9.34375 v 0.75 c 0,0.145 -0.12925,0.3075 -0.28125,0.4375 C 9.29175,10.91125 8.77925,10.961 8.28125,11 7.95525,11 7.5478906,11.01713 7.3378906,10.828125 7.1278906,10.632125 7,10.408 7,10.125 7,9.82 7.2945,9.556 7.5625,9.375 7.8551,9.166329 8.2071068,9.0570651 8.5664062,9.0644531 Z M 12,10.496094 v 0.0059 A 2.5,2.5 0 0 1 12.003906,10.5 2.5,2.5 0 0 1 12,10.496094 Z" />
    <circle
       r="2"
       cx="1227"
       cy="84"
       overflow="visible"
       style="color:#000000;overflow:visible;fill:#666666;fill-opacity:1;marker:none"
       id="ellipse8" />
    <path
       id="ellipse8-7"
       transform="translate(1213,81)"
       style="color:#000000;overflow:visible;fill:#666666;fill-opacity:1;marker:none"
       d="m 14.099609,6.0507812 a 2,2 0 0 0 -2,2 2,2 0 0 0 2,1.9999998 2,2 0 0 0 2,-1.9999998 2,2 0 0 0 -2,-2 z" />
    <circle
       r="2"
       cx="1227"
       cy="94"
       overflow="visible"
       style="color:#000000;overflow:visible;fill:#666666;fill-opacity:1;marker:none"
       id="ellipse8-7-3" />
  </g>
</svg>
