<?xml version="1.0" encoding="UTF-8" standalone="no"?>
<svg
   xmlns:dc="http://purl.org/dc/elements/1.1/"
   xmlns:cc="http://creativecommons.org/ns#"
   xmlns:rdf="http://www.w3.org/1999/02/22-rdf-syntax-ns#"
   xmlns:svg="http://www.w3.org/2000/svg"
   xmlns="http://www.w3.org/2000/svg"
   xmlns:xlink="http://www.w3.org/1999/xlink"
   id="svg3887"
   height="16"
   width="16"
   version="1.1">
  <metadata
     id="metadata23">
    <rdf:RDF>
      <cc:Work
         rdf:about="">
        <dc:format>image/svg+xml</dc:format>
        <dc:type
           rdf:resource="http://purl.org/dc/dcmitype/StillImage" />
        <dc:title />
      </cc:Work>
    </rdf:RDF>
  </metadata>
  <defs
     id="defs3889">
    <linearGradient
       id="linearGradient3587-6-5-3-2-7">
      <stop
         offset="0"
         style="stop-color:#000000;stop-opacity:1"
         id="stop3589-9-2-2-2-7" />
      <stop
         offset="1"
         style="stop-color:#363636;stop-opacity:1"
         id="stop3591-7-4-73-6-9" />
    </linearGradient>
    <linearGradient
       gradientTransform="matrix(0.77777778,0,0,1,-1.3333333,-6.0000003)"
       gradientUnits="userSpaceOnUse"
       xlink:href="#linearGradient3587-6-5-3-2-7"
       id="linearGradient2843"
       y2="21"
       x2="12"
       y1="1.9895233"
       x1="12" />
    <linearGradient
       id="linearGradient3587-6-5-3-7">
      <stop
         id="stop3589-9-2-2-6"
         style="stop-color:#000000;stop-opacity:1"
         offset="0" />
      <stop
         id="stop3591-7-4-73-2"
         style="stop-color:#363636;stop-opacity:1"
         offset="1" />
    </linearGradient>
    <linearGradient
       y2="31.112288"
       x2="51.780437"
       y1="7.2575765"
       x1="51.780437"
       gradientTransform="matrix(0.273407,0,0,0.29357314,-5.8991567,3.8693707)"
       gradientUnits="userSpaceOnUse"
       id="linearGradient4598"
       xlink:href="#linearGradient3587-6-5-3-7" />
  </defs>
  <path
     style="opacity:0.6;fill:none;stroke:#ffffff;stroke-width:0.99999994;stroke-linecap:round;stroke-linejoin:miter;stroke-miterlimit:4;stroke-opacity:1;stroke-dashoffset:0;marker:none;visibility:visible;display:inline;overflow:visible;enable-background:accumulate"
     id="path3208-6"
     d="m 4.5,14.5 0,-9.9999835 c 0,-0.554 0.3468889,-1 0.7777778,-1 l 5.4444442,0 c 0.430889,0 0.777778,0.446 0.777778,1 L 11.5,14.5 c 0,0.554 -0.346889,1 -0.777778,1 l -5.4444442,0 C 4.8468889,15.5 4.5,15.054 4.5,14.5 z M 6.8353867,3.3815655 c 5.444e-4,-0.32804 0.00119,-0.656076 0.00194,-0.984108 0.031703,-0.597825 0.5052445,-0.976733 0.9428207,-0.897474 0.4144949,0.023433 0.9153636,-0.124121 1.2093394,0.363195 0.2728142,0.438478 0.1488706,1.0212 0.1771755,1.537207" />
  <rect
     style="opacity:0.2;fill:none;stroke:#000000;stroke-width:0.5;stroke-linecap:round;stroke-linejoin:miter;stroke-miterlimit:4;stroke-opacity:1;stroke-dasharray:none;stroke-dashoffset:0;marker:none;visibility:visible;display:inline;overflow:visible;enable-background:accumulate"
     id="rect3236-1"
     transform="matrix(0,-1,1,0,0,0)"
     y="5.25"
     x="-13.75"
     ry="0.18333334"
     rx="0.18103448"
     height="5.5"
     width="10.5" />
  <path
     style="opacity:0.7;fill:none;stroke:url(#linearGradient2843);stroke-width:0.99999994;stroke-linecap:round;stroke-linejoin:miter;stroke-miterlimit:4;stroke-opacity:1;stroke-dashoffset:0;marker:none;visibility:visible;display:inline;overflow:visible;enable-background:accumulate"
     id="rect2442-9"
     d="m 4.5,13.5 0,-9.9999835 c 0,-0.554 0.3468889,-1 0.7777778,-1 l 5.4444442,0 c 0.430889,0 0.777778,0.446 0.777778,1 L 11.5,13.5 c 0,0.554 -0.346889,1 -0.777778,1 l -5.4444442,0 C 4.8468889,14.5 4.5,14.054 4.5,13.5 z M 6.49903,2.3815655 C 6.4995744,2.0535255 6.50022,1.7254895 6.50097,1.3974575 6.4948723,0.57282838 7.5355486,0.4999835 8,0.4999835 c 0.4644514,0 1.4328283,0.0346936 1.5,0.9000165 0,0 -0.028305,0.4843785 0,1.0003855" />
  <path
     style="opacity:0.7;fill:url(#linearGradient4598);fill-opacity:1;fill-rule:nonzero;stroke:none;stroke-width:1;marker:none;visibility:visible;display:inline;overflow:visible;enable-background:accumulate"
     id="rect3728-1"
     d="m 6,6 c 1.3333333,0 2.6666667,0 4,0 0,2.3333325 0,4.666668 0,7 -1.3333333,0 -2.6666667,0 -4,0 0,-2.333332 0,-4.6666675 0,-7 z" />
</svg>
