<?xml version="1.0" encoding="UTF-8" standalone="no"?>
<!-- Created with Inkscape (http://www.inkscape.org/) -->

<svg
   xmlns:dc="http://purl.org/dc/elements/1.1/"
   xmlns:cc="http://creativecommons.org/ns#"
   xmlns:rdf="http://www.w3.org/1999/02/22-rdf-syntax-ns#"
   xmlns:svg="http://www.w3.org/2000/svg"
   xmlns="http://www.w3.org/2000/svg"
   xmlns:xlink="http://www.w3.org/1999/xlink"
   xmlns:sodipodi="http://sodipodi.sourceforge.net/DTD/sodipodi-0.dtd"
   xmlns:inkscape="http://www.inkscape.org/namespaces/inkscape"
   version="1.1"
   width="9.3299999"
   height="16"
   id="svg3718"
   inkscape:version="0.48.4 r9939"
   sodipodi:docname="gpm-battery-000.svg">
  <metadata
     id="metadata19">
    <rdf:RDF>
      <cc:Work
         rdf:about="">
        <dc:format>image/svg+xml</dc:format>
        <dc:type
           rdf:resource="http://purl.org/dc/dcmitype/StillImage" />
        <dc:title></dc:title>
      </cc:Work>
    </rdf:RDF>
  </metadata>
  <sodipodi:namedview
     pagecolor="#ffffff"
     bordercolor="#666666"
     borderopacity="1"
     objecttolerance="10"
     gridtolerance="10"
     guidetolerance="10"
     inkscape:pageopacity="0"
     inkscape:pageshadow="2"
     inkscape:window-width="1280"
     inkscape:window-height="751"
     id="namedview17"
     showgrid="false"
     inkscape:zoom="17.535506"
     inkscape:cx="-6.1661631"
     inkscape:cy="8.0216422"
     inkscape:window-x="0"
     inkscape:window-y="25"
     inkscape:window-maximized="1"
     inkscape:current-layer="svg3718" />
  <defs
     id="defs3720">
    <linearGradient
       id="linearGradient3187">
      <stop
         id="stop3189"
         style="stop-color:#a60000;stop-opacity:1"
         offset="0" />
      <stop
         id="stop3191"
         style="stop-color:#ff1313;stop-opacity:1"
         offset="1" />
    </linearGradient>
    <linearGradient
       inkscape:collect="always"
       xlink:href="#linearGradient3187"
       id="linearGradient2997"
       gradientUnits="userSpaceOnUse"
       gradientTransform="matrix(0.666666,0,0,0.666666,-3.333662,3.4781436e-4)"
       x1="11.376964"
       y1="14.98917"
       x2="11.376964"
       y2="17.01939" />
    <linearGradient
       inkscape:collect="always"
       xlink:href="#linearGradient3187"
       id="linearGradient3000"
       gradientUnits="userSpaceOnUse"
       gradientTransform="matrix(0.666666,0,0,0.666666,-3.333662,3.4781436e-4)"
       x1="11.376964"
       y1="7"
       x2="11.376964"
       y2="17.01939" />
    <linearGradient
       inkscape:collect="always"
       xlink:href="#linearGradient3187"
       id="linearGradient3003"
       gradientUnits="userSpaceOnUse"
       gradientTransform="matrix(0.666666,0,0,0.666666,-3.333662,3.4781436e-4)"
       x1="12"
       y1="1.9895233"
       x2="12"
       y2="21" />
  </defs>
  <path
     inkscape:connector-curvature="0"
     style="opacity:0.6;fill:#ffffff;fill-opacity:1;fill-rule:nonzero;stroke:none;stroke-width:1;marker:none;visibility:visible;display:inline;overflow:visible;enable-background:accumulate"
     id="path3471"
     d="m 4.66633,5.333676 c -0.369333,0 -0.666666,0.297333 -0.666666,0.666666 l 0,3.33333 c 0,0.369333 0.297333,0.666666 0.666666,0.666666 0.369333,0 0.666666,-0.297333 0.666666,-0.666666 l 0,-3.33333 c 0,-0.369333 -0.297333,-0.666666 -0.666666,-0.666666 z m -0.1666665,5.333328 c -0.2769997,0 -0.4999995,0.223 -0.4999995,0.499999 l 0,0.333334 c 0,0.276999 0.2229998,0.499999 0.4999995,0.499999 l 0.333333,0 c 0.2769997,0 0.4999995,-0.223 0.4999995,-0.499999 l 0,-0.333334 c 0,-0.276999 -0.2229998,-0.499999 -0.4999995,-0.499999 l -0.333333,0 z" />
  <rect
     style="opacity:0.3;fill:none;stroke:#f00000;stroke-width:0.33333299;stroke-linecap:round;stroke-linejoin:miter;stroke-miterlimit:4;stroke-opacity:1;stroke-dasharray:none;stroke-dashoffset:0;marker:none;visibility:visible;display:inline;overflow:visible;enable-background:accumulate"
     id="rect3236"
     transform="matrix(0,-1,1,0,0,0)"
     y="2.1663325"
     x="-13.167002"
     ry="0.16666649"
     rx="0.16666649"
     height="4.9999952"
     width="9.6666574" />
  <path
     inkscape:connector-curvature="0"
     style="opacity:0.6;fill:none;stroke:#ffffff;stroke-width:0.66666597;stroke-linecap:round;stroke-linejoin:miter;stroke-miterlimit:4;stroke-opacity:1;stroke-dashoffset:0;marker:none;visibility:visible;display:inline;overflow:visible;enable-background:accumulate"
     id="path3208"
     d="m 1.666333,13.667001 0,-9.333324 c 0,-0.369333 0.297333,-0.666666 0.666666,-0.666666 l 4.666662,0 c 0.369333,0 0.666666,0.297333 0.666666,0.666666 l 0,9.333324 c 0,0.369333 -0.297333,0.666666 -0.666666,0.666666 l -4.666662,0 c -0.369333,0 -0.666666,-0.297333 -0.666666,-0.666666 z M 3.668091,3.588044 C 3.6685577,3.36935 3.669111,3.15066 3.669761,2.931972 3.696935,2.533423 4.1028272,2.2808175 4.4778922,2.3336568 4.8331731,2.3492788 5.2624887,2.2509098 5.5144678,2.575787 5.7483082,2.868105 5.642071,3.256586 5.6663323,3.60059" />
  <path
     inkscape:connector-curvature="0"
     style="opacity:0.8;fill:none;stroke:url(#linearGradient3003);stroke-width:0.66666597;stroke-linecap:round;stroke-linejoin:miter;stroke-miterlimit:4;stroke-opacity:1;stroke-dashoffset:0;marker:none;visibility:visible;display:inline;overflow:visible;enable-background:accumulate"
     id="rect2442"
     d="m 1.666333,13.000335 0,-9.333324 c 0,-0.369333 0.297333,-0.666666 0.666666,-0.666666 l 4.666662,0 c 0.369333,0 0.666666,0.297333 0.666666,0.666666 l 0,9.333324 c 0,0.369333 -0.297333,0.666666 -0.666666,0.666666 l -4.666662,0 c -0.369333,0 -0.666666,-0.297333 -0.666666,-0.666666 z M 3.668091,2.921378 C 3.6685577,2.702684 3.669111,2.483994 3.669761,2.2653062 3.696935,1.8667566 4.1028272,1.6141515 4.4778922,1.6669908 4.8331731,1.6826128 5.2624887,1.5842438 5.5144678,1.9091206 5.7483082,2.2014389 5.642071,2.58992 5.6663323,2.933924" />
  <path
     inkscape:connector-curvature="0"
     style="opacity:0.8;fill:url(#linearGradient3000);fill-opacity:1;fill-rule:nonzero;stroke:none;stroke-width:1;marker:none;visibility:visible;display:inline;overflow:visible;enable-background:accumulate"
     id="path3467"
     d="m 4.66633,4.66701 c 0.369333,0 0.666666,0.297333 0.666666,0.666666 l 0,3.33333 c 0,0.369333 -0.297333,0.666666 -0.666666,0.666666 -0.369333,0 -0.666666,-0.297333 -0.666666,-0.666666 l 0,-3.33333 c 0,-0.369333 0.297333,-0.666666 0.666666,-0.666666 z" />
  <path
     inkscape:connector-curvature="0"
     style="opacity:0.8;fill:url(#linearGradient2997);fill-opacity:1;fill-rule:nonzero;stroke:none;stroke-width:1;marker:none;visibility:visible;display:inline;overflow:visible;enable-background:accumulate"
     id="rect3448"
     d="m 4.4996635,10.000338 0.333333,0 c 0.2769997,0 0.4999995,0.223 0.4999995,0.499999 l 0,0.333334 c 0,0.276999 -0.2229998,0.499999 -0.4999995,0.499999 l -0.333333,0 c -0.2769997,0 -0.4999995,-0.223 -0.4999995,-0.499999 l 0,-0.333334 c 0,-0.276999 0.2229998,-0.499999 0.4999995,-0.499999 z" />
</svg>
