<?xml version="1.0" encoding="UTF-8" standalone="no"?>
<!-- Created with Inkscape (http://www.inkscape.org/) -->

<svg
   xmlns:dc="http://purl.org/dc/elements/1.1/"
   xmlns:cc="http://creativecommons.org/ns#"
   xmlns:rdf="http://www.w3.org/1999/02/22-rdf-syntax-ns#"
   xmlns:svg="http://www.w3.org/2000/svg"
   xmlns="http://www.w3.org/2000/svg"
   xmlns:xlink="http://www.w3.org/1999/xlink"
   xmlns:sodipodi="http://sodipodi.sourceforge.net/DTD/sodipodi-0.dtd"
   xmlns:inkscape="http://www.inkscape.org/namespaces/inkscape"
   version="1.1"
   width="9.3299999"
   height="16"
   id="svg3887"
   inkscape:version="0.48.4 r9939"
   sodipodi:docname="gpm-battery-000-charging.svg">
  <metadata
     id="metadata23">
    <rdf:RDF>
      <cc:Work
         rdf:about="">
        <dc:format>image/svg+xml</dc:format>
        <dc:type
           rdf:resource="http://purl.org/dc/dcmitype/StillImage" />
        <dc:title></dc:title>
      </cc:Work>
    </rdf:RDF>
  </metadata>
  <sodipodi:namedview
     pagecolor="#ffffff"
     bordercolor="#666666"
     borderopacity="1"
     objecttolerance="10"
     gridtolerance="10"
     guidetolerance="10"
     inkscape:pageopacity="0"
     inkscape:pageshadow="2"
     inkscape:window-width="1193"
     inkscape:window-height="654"
     id="namedview21"
     showgrid="false"
     inkscape:zoom="13.227273"
     inkscape:cx="-15.309278"
     inkscape:cy="13.381442"
     inkscape:window-x="0"
     inkscape:window-y="25"
     inkscape:window-maximized="0"
     inkscape:current-layer="svg3887" />
  <defs
     id="defs3889">
    <linearGradient
       id="linearGradient3587-6-5-3-4-7">
      <stop
         id="stop3589-9-2-2-8-2"
         style="stop-color:#000000;stop-opacity:1"
         offset="0" />
      <stop
         id="stop3591-7-4-73-1-8"
         style="stop-color:#363636;stop-opacity:1"
         offset="1" />
    </linearGradient>
    <linearGradient
       id="linearGradient3587-6-5-3-2-7">
      <stop
         id="stop3589-9-2-2-2-7"
         style="stop-color:#000000;stop-opacity:1"
         offset="0" />
      <stop
         id="stop3591-7-4-73-6-9"
         style="stop-color:#363636;stop-opacity:1"
         offset="1" />
    </linearGradient>
    <linearGradient
       x1="51.780437"
       y1="7.2575765"
       x2="51.780437"
       y2="31.112288"
       id="linearGradient2836"
       xlink:href="#linearGradient3587-6-5-3-4-7"
       gradientUnits="userSpaceOnUse"
       gradientTransform="matrix(0.27340673,0,0,0.36347104,-9.1994788,1.3621251)" />
    <linearGradient
       x1="12"
       y1="1.9895233"
       x2="12"
       y2="21"
       id="linearGradient2843"
       xlink:href="#linearGradient3587-6-5-3-2-7"
       gradientUnits="userSpaceOnUse"
       gradientTransform="matrix(0.666666,0,0,0.666666,-3.333662,4.78e-5)" />
  </defs>
  <path
     d="m 1.666333,13.666701 0,-9.333324 c 0,-0.369333 0.297333,-0.666666 0.666666,-0.666666 l 4.666662,0 c 0.369333,0 0.666666,0.297333 0.666666,0.666666 l 0,9.333324 c 0,0.369333 -0.297333,0.666666 -0.666666,0.666666 l -4.666662,0 c -0.369333,0 -0.666666,-0.297333 -0.666666,-0.666666 z M 3.668091,3.587744 C 3.6685577,3.36905 3.669111,3.15036 3.669761,2.931672 3.696935,2.533123 4.1028272,2.280518 4.4778922,2.333357 4.8331731,2.348977 5.2624887,2.250607 5.5144678,2.575487 5.7483082,2.867805 5.642071,3.256286 5.6663323,3.60029"
     id="path3208-6"
     style="opacity:0.6;fill:none;stroke:#ffffff;stroke-width:0.66666597;stroke-linecap:round;stroke-linejoin:miter;stroke-miterlimit:4;stroke-opacity:1;stroke-dashoffset:0;marker:none;visibility:visible;display:inline;overflow:visible;enable-background:accumulate"
     inkscape:connector-curvature="0" />
  <rect
     width="9.6666574"
     height="4.9999952"
     rx="0.16666649"
     ry="0.16666649"
     x="-13.166702"
     y="2.1663325"
     transform="matrix(0,-1,1,0,0,0)"
     id="rect3236-1"
     style="opacity:0.2;fill:none;stroke:#000000;stroke-width:0.33333299;stroke-linecap:round;stroke-linejoin:miter;stroke-miterlimit:4;stroke-opacity:1;stroke-dasharray:none;stroke-dashoffset:0;marker:none;visibility:visible;display:inline;overflow:visible;enable-background:accumulate" />
  <path
     d="m 1.666333,13.000035 0,-9.333324 c 0,-0.369333 0.297333,-0.666666 0.666666,-0.666666 l 4.666662,0 c 0.369333,0 0.666666,0.297333 0.666666,0.666666 l 0,9.333324 c 0,0.369333 -0.297333,0.666666 -0.666666,0.666666 l -4.666662,0 c -0.369333,0 -0.666666,-0.297333 -0.666666,-0.666666 z M 3.668091,2.921078 C 3.6685577,2.702384 3.669111,2.483694 3.669761,2.265006 3.6969316,1.8664566 4.1028239,1.6138515 4.4778889,1.6666908 4.8331698,1.6823128 5.2624854,1.5839435 5.5144645,1.9088206 5.7483049,2.201139 5.6420677,2.58962 5.666329,2.933624"
     id="rect2442-9"
     style="opacity:0.7;fill:none;stroke:url(#linearGradient2843);stroke-width:0.66666597;stroke-linecap:round;stroke-linejoin:miter;stroke-miterlimit:4;stroke-opacity:1;stroke-dashoffset:0;marker:none;visibility:visible;display:inline;overflow:visible;enable-background:accumulate"
     inkscape:connector-curvature="0" />
  <path
     d="m 6.7032513,4.648043 -4.6666621,4.666662 2.6666641,0 -1.9999981,3.999996 4.6666621,-5.333328 -1.999998,0 1.333332,-3.33333 z"
     id="path3172-0"
     style="opacity:0.4;fill:#ffffff;fill-opacity:1;fill-rule:nonzero;stroke:none;stroke-width:1;marker:none;visibility:visible;display:inline;overflow:visible;enable-background:accumulate"
     inkscape:connector-curvature="0" />
  <path
     d="m 6.7032513,3.981607 -4.6666621,4.666661 2.6666641,0 -1.9999981,3.999997 4.6666621,-5.333329 -1.999998,0 1.333332,-3.333329 z"
     id="path3172"
     style="opacity:0.7;fill:url(#linearGradient2836);fill-opacity:1;fill-rule:nonzero;stroke:none;stroke-width:1;marker:none;visibility:visible;display:inline;overflow:visible;enable-background:accumulate"
     inkscape:connector-curvature="0" />
</svg>
