<?xml version="1.0" encoding="UTF-8" standalone="no"?>
<!-- Created with Inkscape (http://www.inkscape.org/) -->

<svg
   xmlns:dc="http://purl.org/dc/elements/1.1/"
   xmlns:cc="http://creativecommons.org/ns#"
   xmlns:rdf="http://www.w3.org/1999/02/22-rdf-syntax-ns#"
   xmlns:svg="http://www.w3.org/2000/svg"
   xmlns="http://www.w3.org/2000/svg"
   xmlns:xlink="http://www.w3.org/1999/xlink"
   xmlns:sodipodi="http://sodipodi.sourceforge.net/DTD/sodipodi-0.dtd"
   xmlns:inkscape="http://www.inkscape.org/namespaces/inkscape"
   version="1.0"
   width="16"
   height="16"
   id="svg3205"
   sodipodi:version="0.32"
   inkscape:version="0.48.4 r9939"
   sodipodi:docname="gpm-mouse-000.svg"
   inkscape:output_extension="org.inkscape.output.svg.inkscape">
  <metadata
     id="metadata13">
    <rdf:RDF>
      <cc:Work
         rdf:about="">
        <dc:format>image/svg+xml</dc:format>
        <dc:type
           rdf:resource="http://purl.org/dc/dcmitype/StillImage" />
        <dc:title />
      </cc:Work>
    </rdf:RDF>
  </metadata>
  <sodipodi:namedview
     inkscape:window-height="803"
     inkscape:window-width="1144"
     inkscape:pageshadow="2"
     inkscape:pageopacity="0.0"
     guidetolerance="10.0"
     gridtolerance="10.0"
     objecttolerance="10.0"
     borderopacity="1.0"
     bordercolor="#666666"
     pagecolor="#ffffff"
     id="base"
     showgrid="true"
     inkscape:zoom="20.75"
     inkscape:cx="12.289157"
     inkscape:cy="6.8578206"
     inkscape:window-x="399"
     inkscape:window-y="51"
     inkscape:current-layer="svg3205"
     inkscape:window-maximized="0">
    <inkscape:grid
       type="xygrid"
       id="grid2988"
       empspacing="5"
       visible="true"
       enabled="true"
       snapvisiblegridlinesonly="true" />
  </sodipodi:namedview>
  <defs
     id="defs3207">
    <linearGradient
       id="linearGradient3187">
      <stop
         id="stop3189"
         style="stop-color:#a60000;stop-opacity:1"
         offset="0" />
      <stop
         id="stop3191"
         style="stop-color:#ff1313;stop-opacity:1"
         offset="1" />
    </linearGradient>
    <linearGradient
       inkscape:collect="always"
       xlink:href="#linearGradient3187"
       id="linearGradient2991"
       gradientUnits="userSpaceOnUse"
       gradientTransform="translate(-5,-4)"
       x1="14"
       y1="4"
       x2="14"
       y2="20" />
  </defs>
  <path
     inkscape:connector-curvature="0"
     style="opacity:0.3;fill:none;stroke:#000000;stroke-width:0.49999994;stroke-linecap:round;stroke-linejoin:miter;stroke-miterlimit:4;stroke-opacity:1;stroke-dasharray:none;stroke-dashoffset:0;marker:none;visibility:visible;display:inline;overflow:visible;enable-background:accumulate"
     id="rect3236"
     d="M 3.25,11.450001 C 3.25284,8.4437905 3.24431,6.437377 3.25428,3.4312954 3.3659042,2.2690397 4.5191419,1.5697646 5.566644,1.3530655 6.038101,1.2632531 6.75,1.2452071 6.75,1.2452071 L 6.75,4.5 c 0,0 0.058301,0.75 0.798532,0.75 C 8.271982,5.25 8.25,4.5 8.25,4.5 l 0,-3.2452163 C 9.812167,1.1767747 11,1.7723812 11.60212,2.8645854 11.846484,3.473714 11.717337,4.1417097 11.75,4.7816055 11.7472,7.37728 11.7557,8.9731585 11.7457,11.568704 11.634076,12.730961 10.480838,13.430234 9.433336,13.646934 8.506212,13.823555 7.557192,13.723572 6.619145,13.75 5.387631,13.764193 3.9779253,13.310667 3.3978805,12.135415 3.3019013,11.920455 3.2495712,11.685646 3.25,11.450001 z"
     sodipodi:nodetypes="cccccsccccccccc" />
  <path
     inkscape:connector-curvature="0"
     style="opacity:0.6;fill:none;stroke:#ffffff;stroke-width:0.99999994;stroke-linecap:round;stroke-linejoin:miter;stroke-miterlimit:4;stroke-opacity:1;stroke-dashoffset:0;marker:none;visibility:visible;display:inline;overflow:visible;enable-background:accumulate"
     id="path3212"
     d="m 6.5,1.4999991 2,0 c 2.216,0 4,1.3379999 4,2.9999999 L 12.5,12.5 c 0,1.662 -1.784,3 -4,3 l -2,0 c -2.2160001,0 -4,-1.338 -4,-3 l 0,-8.000001 c 0,-1.662 1.7839999,-2.9999999 4,-2.9999999 z m 1.041885,1e-6 0,3.9999999"
     sodipodi:nodetypes="ssssssssscc" />
  <path
     inkscape:connector-curvature="0"
     style="opacity:0.8;fill:none;stroke:url(#linearGradient2991);stroke-width:0.99999994;stroke-linecap:round;stroke-linejoin:miter;stroke-miterlimit:4;stroke-opacity:1;stroke-dashoffset:0;marker:none;visibility:visible;display:inline;overflow:visible;enable-background:accumulate"
     id="path3231"
     d="m 6.5,0.49999906 2,0 c 2.216,0 4,1.33800004 4,2.99999994 L 12.5,11.5 c 0,1.662 -1.784,3 -4,3 l -2,0 c -2.2160001,0 -4,-1.338 -4,-3 l 0,-8.000001 c 0,-1.6619999 1.7839999,-2.99999994 4,-2.99999994 z m 1,10e-7 L 7.5,4.5"
     sodipodi:nodetypes="ssssssssscc" />
</svg>
