<?xml version="1.0" encoding="UTF-8" standalone="no"?>
<!-- Created with Inkscape (http://www.inkscape.org/) -->

<svg
   xmlns:dc="http://purl.org/dc/elements/1.1/"
   xmlns:cc="http://creativecommons.org/ns#"
   xmlns:rdf="http://www.w3.org/1999/02/22-rdf-syntax-ns#"
   xmlns:svg="http://www.w3.org/2000/svg"
   xmlns="http://www.w3.org/2000/svg"
   xmlns:xlink="http://www.w3.org/1999/xlink"
   xmlns:sodipodi="http://sodipodi.sourceforge.net/DTD/sodipodi-0.dtd"
   xmlns:inkscape="http://www.inkscape.org/namespaces/inkscape"
   version="1.1"
   width="9.3299999"
   height="16"
   id="svg3887"
   inkscape:version="0.48.4 r9939"
   sodipodi:docname="gpm-battery-020-charging.svg">
  <metadata
     id="metadata25">
    <rdf:RDF>
      <cc:Work
         rdf:about="">
        <dc:format>image/svg+xml</dc:format>
        <dc:type
           rdf:resource="http://purl.org/dc/dcmitype/StillImage" />
        <dc:title></dc:title>
      </cc:Work>
    </rdf:RDF>
  </metadata>
  <sodipodi:namedview
     pagecolor="#ffffff"
     bordercolor="#666666"
     borderopacity="1"
     objecttolerance="10"
     gridtolerance="10"
     guidetolerance="10"
     inkscape:pageopacity="0"
     inkscape:pageshadow="2"
     inkscape:window-width="1240"
     inkscape:window-height="753"
     id="namedview23"
     showgrid="false"
     inkscape:zoom="13.227273"
     inkscape:cx="-2.0034362"
     inkscape:cy="13.381442"
     inkscape:window-x="0"
     inkscape:window-y="25"
     inkscape:window-maximized="0"
     inkscape:current-layer="svg3887" />
  <defs
     id="defs3889">
    <linearGradient
       id="linearGradient3587-6-5-3-4-7">
      <stop
         id="stop3589-9-2-2-8-2"
         style="stop-color:#000000;stop-opacity:1"
         offset="0" />
      <stop
         id="stop3591-7-4-73-1-8"
         style="stop-color:#363636;stop-opacity:1"
         offset="1" />
    </linearGradient>
    <linearGradient
       id="linearGradient3587-6-5-3-2-7">
      <stop
         id="stop3589-9-2-2-2-7"
         style="stop-color:#000000;stop-opacity:1"
         offset="0" />
      <stop
         id="stop3591-7-4-73-6-9"
         style="stop-color:#363636;stop-opacity:1"
         offset="1" />
    </linearGradient>
    <linearGradient
       id="linearGradient3587-6-5-3-2-7-2">
      <stop
         id="stop3589-9-2-2-2-7-2"
         style="stop-color:#000000;stop-opacity:1"
         offset="0" />
      <stop
         id="stop3591-7-4-73-6-9-9"
         style="stop-color:#363636;stop-opacity:1"
         offset="1" />
    </linearGradient>
    <linearGradient
       x1="51.780437"
       y1="7.2575765"
       x2="51.780437"
       y2="31.112288"
       id="linearGradient2836"
       xlink:href="#linearGradient3587-6-5-3-4-7"
       gradientUnits="userSpaceOnUse"
       gradientTransform="matrix(0.27340673,0,0,0.36347104,-9.1991788,1.3620951)" />
    <linearGradient
       x1="12"
       y1="1.9895233"
       x2="12"
       y2="21"
       id="linearGradient2843"
       xlink:href="#linearGradient3587-6-5-3-2-7"
       gradientUnits="userSpaceOnUse"
       gradientTransform="matrix(0.666666,0,0,0.666666,-3.333362,1.78e-5)" />
    <linearGradient
       x1="51.780437"
       y1="7.2575765"
       x2="51.780437"
       y2="31.112288"
       id="linearGradient2852"
       xlink:href="#linearGradient3587-6-5-3-2-7-2"
       gradientUnits="userSpaceOnUse"
       gradientTransform="matrix(0.27340673,0,0,0.08387793,-9.1991795,10.057923)" />
  </defs>
  <path
     d="m 1.666633,13.666671 0,-9.333324 c 0,-0.369333 0.297333,-0.666666 0.666666,-0.666666 l 4.666662,0 c 0.369333,0 0.666666,0.297333 0.666666,0.666666 l 0,9.333324 c 0,0.369333 -0.297333,0.666666 -0.666666,0.666666 l -4.666662,0 c -0.369333,0 -0.666666,-0.297333 -0.666666,-0.666666 z M 3.668391,3.587714 C 3.6688577,3.36902 3.669411,3.15033 3.670061,2.931642 3.697235,2.533093 4.1031272,2.280488 4.4781922,2.333327 4.8334731,2.348947 5.2627887,2.250577 5.5147678,2.575457 5.7486082,2.867775 5.642371,3.256256 5.6666323,3.60026"
     id="path3208-6"
     style="opacity:0.6;fill:none;stroke:#ffffff;stroke-width:0.66666597;stroke-linecap:round;stroke-linejoin:miter;stroke-miterlimit:4;stroke-opacity:1;stroke-dashoffset:0;marker:none;visibility:visible;display:inline;overflow:visible;enable-background:accumulate"
     inkscape:connector-curvature="0" />
  <rect
     width="9.6666574"
     height="4.9999952"
     rx="0.16666649"
     ry="0.16666649"
     x="-13.166672"
     y="2.1666327"
     transform="matrix(0,-1,1,0,0,0)"
     id="rect3236-1"
     style="opacity:0.2;fill:none;stroke:#000000;stroke-width:0.33333299;stroke-linecap:round;stroke-linejoin:miter;stroke-miterlimit:4;stroke-opacity:1;stroke-dasharray:none;stroke-dashoffset:0;marker:none;visibility:visible;display:inline;overflow:visible;enable-background:accumulate" />
  <path
     d="m 1.666633,13.000005 0,-9.333324 c 0,-0.369333 0.297333,-0.666666 0.666666,-0.666666 l 4.666662,0 c 0.369333,0 0.666666,0.297333 0.666666,0.666666 l 0,9.333324 c 0,0.369333 -0.297333,0.666666 -0.666666,0.666666 l -4.666662,0 c -0.369333,0 -0.666666,-0.297333 -0.666666,-0.666666 z M 3.668391,2.921048 C 3.6688577,2.702354 3.669411,2.483664 3.670061,2.264976 3.6972316,1.8664266 4.1031239,1.6138215 4.4781889,1.6666608 4.8334698,1.6822828 5.2627854,1.5839135 5.5147645,1.9087906 5.7486049,2.201109 5.6423677,2.58959 5.666629,2.933594"
     id="rect2442-9"
     style="opacity:0.7;fill:none;stroke:url(#linearGradient2843);stroke-width:0.66666597;stroke-linecap:round;stroke-linejoin:miter;stroke-miterlimit:4;stroke-opacity:1;stroke-dashoffset:0;marker:none;visibility:visible;display:inline;overflow:visible;enable-background:accumulate"
     inkscape:connector-curvature="0" />
  <rect
     width="3.9999959"
     height="1.999998"
     rx="0.16666649"
     ry="0"
     x="2.6666322"
     y="11.33334"
     id="rect3965-9"
     style="opacity:0.3;color:#000000;fill:#ffffff;fill-opacity:1;fill-rule:nonzero;stroke:none;stroke-width:1;marker:none;visibility:visible;display:inline;overflow:visible;enable-background:accumulate" />
  <rect
     width="3.9999959"
     height="1.999998"
     rx="0.16666649"
     ry="0"
     x="2.6666322"
     y="10.666674"
     id="rect3965"
     style="opacity:0.35;color:#000000;fill:url(#linearGradient2852);fill-opacity:1;fill-rule:nonzero;stroke:none;stroke-width:1;marker:none;visibility:visible;display:inline;overflow:visible;enable-background:accumulate" />
  <path
     d="m 6.7035513,4.648013 -4.6666621,4.666662 2.6666641,0 -1.9999981,3.999996 4.6666621,-5.333328 -1.999998,0 1.333332,-3.33333 z"
     id="path3172-0"
     style="opacity:0.4;fill:#ffffff;fill-opacity:1;fill-rule:nonzero;stroke:none;stroke-width:1;marker:none;visibility:visible;display:inline;overflow:visible;enable-background:accumulate"
     inkscape:connector-curvature="0" />
  <path
     d="m 6.7035513,3.981577 -4.6666621,4.666661 2.6666641,0 -1.9999981,3.999997 4.6666621,-5.333329 -1.999998,0 1.333332,-3.333329 z"
     id="path3172"
     style="opacity:0.7;fill:url(#linearGradient2836);fill-opacity:1;fill-rule:nonzero;stroke:none;stroke-width:1;marker:none;visibility:visible;display:inline;overflow:visible;enable-background:accumulate"
     inkscape:connector-curvature="0" />
</svg>
