<?xml version="1.0" encoding="UTF-8" standalone="no"?>
<svg
   xmlns:dc="http://purl.org/dc/elements/1.1/"
   xmlns:cc="http://creativecommons.org/ns#"
   xmlns:rdf="http://www.w3.org/1999/02/22-rdf-syntax-ns#"
   xmlns:svg="http://www.w3.org/2000/svg"
   xmlns="http://www.w3.org/2000/svg"
   height="16"
   width="16"
   version="1.1"
   id="svg6">
  <metadata
     id="metadata12">
    <rdf:RDF>
      <cc:Work
         rdf:about="">
        <dc:format>image/svg+xml</dc:format>
        <dc:type
           rdf:resource="http://purl.org/dc/dcmitype/StillImage" />
        <dc:title />
      </cc:Work>
    </rdf:RDF>
  </metadata>
  <defs
     id="defs10" />
  <path
     style="color:#bebebe;overflow:visible;fill:#666666;fill-opacity:1;marker:none"
     d="M 5.0371094 2 C 2.2671094 2 0.037109375 4.23 0.037109375 7 C 0.037109375 9.77 2.2671094 12 5.0371094 12 L 8.3808594 12 L 11.037109 15 L 11.037109 12 C 13.807109 12 16.037109 9.77 16.037109 7 C 16.037109 6.8341581 16.027343 6.6713736 16.011719 6.5097656 A 4.6264534 4.6264534 0 0 1 12.5 8.1269531 A 4.6264534 4.6264534 0 0 1 7.8730469 3.5 A 4.6264534 4.6264534 0 0 1 8.1289062 2 L 5.0371094 2 z "
     id="path2" />
  <circle
     class="warning"
     style="opacity:1;fill:#f9c440;fill-opacity:1;stroke:none;stroke-width:9.01824379;stroke-linecap:round;stroke-miterlimit:4;stroke-dasharray:none;stroke-dashoffset:0;stroke-opacity:0"
     id="path879-5"
     cx="12.5"
     cy="3.5"
     r="3.5" />
</svg>
