<?xml version="1.0" encoding="UTF-8" standalone="no"?>
<svg
   xmlns:dc="http://purl.org/dc/elements/1.1/"
   xmlns:cc="http://creativecommons.org/ns#"
   xmlns:rdf="http://www.w3.org/1999/02/22-rdf-syntax-ns#"
   xmlns:svg="http://www.w3.org/2000/svg"
   xmlns="http://www.w3.org/2000/svg"
   height="16"
   width="16"
   version="1.1"
   id="svg6">
  <metadata
     id="metadata12">
    <rdf:RDF>
      <cc:Work
         rdf:about="">
        <dc:format>image/svg+xml</dc:format>
        <dc:type
           rdf:resource="http://purl.org/dc/dcmitype/StillImage" />
        <dc:title />
      </cc:Work>
    </rdf:RDF>
  </metadata>
  <defs
     id="defs10" />
  <g
     color="#000"
     transform="translate(-912.002 -523.948)"
     id="g4">
    <path
       style="isolation:auto;mix-blend-mode:normal;marker:none;fill:#666666;fill-opacity:1"
       d="M 2.4980469 3.0527344 C 1.6670469 3.0527344 0.99804688 3.7217344 0.99804688 4.5527344 L 0.99804688 11.552734 C 0.99804688 12.383734 1.6670469 13.052734 2.4980469 13.052734 L 13.498047 13.052734 C 14.329047 13.052734 14.998047 12.383734 14.998047 11.552734 L 14.998047 7.2597656 A 4.5169492 4.5169492 0 0 1 13.998047 7.7558594 L 13.998047 11.552734 C 13.998047 11.829734 13.775047 12.052734 13.498047 12.052734 L 2.4980469 12.052734 A 0.499 0.499 0 0 1 1.9980469 11.552734 L 1.9980469 4.5664062 L 7.6894531 8.9472656 C 7.7054531 8.9602656 7.7242344 8.9646094 7.7402344 8.9746094 C 7.7582344 8.9846094 7.7759219 8.9939531 7.7949219 9.0019531 C 7.8329219 9.0189531 7.8701563 9.0301094 7.9101562 9.0371094 C 7.9401562 9.0431094 7.9680469 9.0449219 7.9980469 9.0449219 C 8.0280469 9.0449219 8.0569375 9.0431094 8.0859375 9.0371094 A 0.49 0.49 0 0 0 8.2011719 9.0019531 C 8.2201719 8.9929531 8.2378594 8.9856094 8.2558594 8.9746094 C 8.2718594 8.9646094 8.2916406 8.9602656 8.3066406 8.9472656 L 10.277344 7.4296875 A 4.5169492 4.5169492 0 0 1 9.4394531 6.8144531 L 7.9980469 7.9238281 L 2.9726562 4.0527344 L 8.0234375 4.0527344 A 4.5169492 4.5169492 0 0 1 7.9824219 3.5 A 4.5169492 4.5169492 0 0 1 8.0058594 3.0527344 L 2.4980469 3.0527344 z "
       transform="translate(912.002,523.948)"
       id="path2" />
    <circle
       class="warning"
       style="opacity:1;fill:#f9c440;fill-opacity:1;stroke:none;stroke-width:9.01824379;stroke-linecap:round;stroke-miterlimit:4;stroke-dasharray:none;stroke-dashoffset:0;stroke-opacity:0"
       id="path879-5"
       cx="924.50201"
       cy="527.448"
       r="3.5" />
  </g>
</svg>
