<?xml version="1.0" encoding="UTF-8" standalone="no"?>
<svg
   xmlns:dc="http://purl.org/dc/elements/1.1/"
   xmlns:cc="http://creativecommons.org/ns#"
   xmlns:rdf="http://www.w3.org/1999/02/22-rdf-syntax-ns#"
   xmlns:svg="http://www.w3.org/2000/svg"
   xmlns="http://www.w3.org/2000/svg"
   xmlns:sodipodi="http://sodipodi.sourceforge.net/DTD/sodipodi-0.dtd"
   xmlns:inkscape="http://www.inkscape.org/namespaces/inkscape"
   height="16"
   width="16"
   version="1.1"
   id="svg6"
   sodipodi:docname="indicator-messages.svg"
   inkscape:version="0.92.4 (5da689c313, 2019-01-14)">
  <metadata
     id="metadata12">
    <rdf:RDF>
      <cc:Work
         rdf:about="">
        <dc:format>image/svg+xml</dc:format>
        <dc:type
           rdf:resource="http://purl.org/dc/dcmitype/StillImage" />
      </cc:Work>
    </rdf:RDF>
  </metadata>
  <defs
     id="defs10" />
  <sodipodi:namedview
     pagecolor="#ffffff"
     bordercolor="#666666"
     borderopacity="1"
     objecttolerance="10"
     gridtolerance="10"
     guidetolerance="10"
     inkscape:pageopacity="0"
     inkscape:pageshadow="2"
     inkscape:window-width="1920"
     inkscape:window-height="1021"
     id="namedview8"
     showgrid="false"
     inkscape:zoom="14.75"
     inkscape:cx="-12.949153"
     inkscape:cy="6.9152542"
     inkscape:window-x="0"
     inkscape:window-y="0"
     inkscape:window-maximized="1"
     inkscape:current-layer="g4" />
  <g
     color="#000"
     transform="translate(-912.002 -523.948)"
     id="g4">
    <path
       d="M914.5 527c-.831 0-1.5.669-1.5 1.5v7c0 .831.669 1.5 1.5 1.5h11c.831 0 1.5-.669 1.5-1.5v-7c0-.831-.669-1.5-1.5-1.5zm.475 1h10.048L920 531.871zm11.025.512v6.988c0 .277-.223.5-.5.5h-11a.499.499 0 0 1-.5-.5v-6.986l5.691 4.382c.016.013.035.016.051.026.018.01.036.019.055.027.038.017.075.03.115.037.03.006.058.006.088.006.03 0 .059 0 .088-.006a.49.49 0 0 0 .115-.037c.019-.009.037-.016.055-.027.016-.01.035-.013.05-.026z"
       fill="#666"
       overflow="visible"
       style="isolation:auto;mix-blend-mode:normal;marker:none;fill:#666666;fill-opacity:1"
       id="path2" />
  </g>
</svg>
