<?xml version="1.0" encoding="UTF-8" standalone="no"?>
<svg
   xmlns:dc="http://purl.org/dc/elements/1.1/"
   xmlns:cc="http://creativecommons.org/ns#"
   xmlns:rdf="http://www.w3.org/1999/02/22-rdf-syntax-ns#"
   xmlns:svg="http://www.w3.org/2000/svg"
   xmlns="http://www.w3.org/2000/svg"
   xmlns:xlink="http://www.w3.org/1999/xlink"
   version="1.0"
   width="16"
   height="16"
   id="svg3167">
  <metadata
     id="metadata20">
    <rdf:RDF>
      <cc:Work
         rdf:about="">
        <dc:format>image/svg+xml</dc:format>
        <dc:type
           rdf:resource="http://purl.org/dc/dcmitype/StillImage" />
        <dc:title />
      </cc:Work>
    </rdf:RDF>
  </metadata>
  <defs
     id="defs3169">
    <linearGradient
       id="linearGradient3587-6-5-3">
      <stop
         id="stop3589-9-2-0"
         style="stop-color:#000000;stop-opacity:1"
         offset="0" />
      <stop
         id="stop3591-7-4-7"
         style="stop-color:#363636;stop-opacity:1"
         offset="1" />
    </linearGradient>
    <linearGradient
       id="linearGradient3587-8-5-3-2">
      <stop
         id="stop3589-2-7-0-1"
         style="stop-color:#000000;stop-opacity:1"
         offset="0" />
      <stop
         id="stop3591-3-5-2-8"
         style="stop-color:#363636;stop-opacity:1"
         offset="1" />
    </linearGradient>
    <linearGradient
       x1="66.09668"
       y1="9.3638258"
       x2="66.09668"
       y2="27.363825"
       id="linearGradient2395"
       xlink:href="#linearGradient3587-8-5-3-2"
       gradientUnits="userSpaceOnUse"
       gradientTransform="matrix(0.73005023,0,0,1,-38.063746,-11.363826)" />
    <linearGradient
       x1="14"
       y1="3"
       x2="14"
       y2="21"
       id="linearGradient2398"
       xlink:href="#linearGradient3587-6-5-3"
       gradientUnits="userSpaceOnUse"
       gradientTransform="matrix(0.73005023,0,0,1,-0.76060291,-5)" />
    <linearGradient
       x1="66.09668"
       y1="9.3638258"
       x2="66.09668"
       y2="27.363825"
       id="linearGradient3904"
       xlink:href="#linearGradient3587-8-5-3-2"
       gradientUnits="userSpaceOnUse"
       gradientTransform="matrix(0.73005023,0,0,1,-38.063746,-11.363826)" />
    <linearGradient
       id="linearGradient3587-6-5-3-3">
      <stop
         id="stop3589-9-2-2"
         style="stop-color:#000000;stop-opacity:1"
         offset="0" />
      <stop
         id="stop3591-7-4-73"
         style="stop-color:#363636;stop-opacity:1"
         offset="1" />
    </linearGradient>
    <linearGradient
       y2="38.389946"
       x2="31.261829"
       y1="23.638462"
       x1="31.261829"
       gradientTransform="matrix(0.4101105,0,0,0.5452071,0.1791955,-4.898516)"
       gradientUnits="userSpaceOnUse"
       id="linearGradient3004"
       xlink:href="#linearGradient3587-6-5-3-3" />
  </defs>
  <path
     d="m 5.8417175,11.541611 c 0,0 0.4104379,-0.852868 2.0977915,-0.879246 1.7271473,-0.027 2.338657,1.042882 2.338657,1.042882 M 3.8230432,8.563637 c 0,0 1.4004344,-1.960491 4.1640016,-1.885192 2.7635672,0.0753 4.1640002,1.978399 4.1640002,1.978399"
     id="path2412"
     style="opacity:0.6;fill:none;stroke:#ffffff;stroke-width:1.62394822;stroke-linecap:butt;stroke-linejoin:miter;stroke-miterlimit:4;stroke-opacity:1;stroke-dasharray:none;stroke-dashoffset:0;marker:none;visibility:visible;display:inline;overflow:visible;enable-background:accumulate" />
  <path
     d="M 9.4392841,14.223407 C 9.376099,14.304188 7.9814986,16.5 7.9814986,16.5 c 0,0 -1.3813211,-2.214367 -1.4331474,-2.276593 0.092619,-0.103143 0.4706357,-0.508757 1.4361589,-0.502973 0.9500538,0.0057 1.3824121,0.402995 1.454774,0.502973 l 0,0 z"
     id="path3375-2"
     style="opacity:0.6;fill:#ffffff;fill-opacity:1;fill-rule:evenodd;stroke:none;overflow:visible" />
  <path
     d="M 9.5673604,12.709046 C 9.4985532,12.790336 7.9798523,15 7.9798523,15 c 0,0 -1.5042401,-2.228336 -1.5606782,-2.290954 0.1008599,-0.103794 0.5125155,-0.511967 1.5639575,-0.506146 1.0345958,0.0057 1.505428,0.405537 1.5842288,0.506146 l 0,0 z"
     id="path3375"
     style="opacity:0.7;fill:url(#linearGradient2398);fill-opacity:1;fill-rule:evenodd;stroke:none;overflow:visible" />
  <path
     d="m 4.912464,10.449448 c 0,0 0.7435592,-1.291002 3.0216624,-1.323908 2.2497016,-0.0325 3.1105036,1.323908 3.1105036,1.323908 M 2.9309772,7.452688 c 0,0 1.6319336,-2.422385 5.0549148,-2.3362 3.451373,0.0869 5.054913,2.375106 5.054913,2.375106"
     id="path2406"
     style="opacity:0.7;fill:none;stroke:url(#linearGradient2395);stroke-width:1.70000005;stroke-linecap:butt;stroke-linejoin:miter;stroke-miterlimit:4;stroke-opacity:1;stroke-dasharray:none;stroke-dashoffset:0;marker:none;visibility:visible;display:inline;overflow:visible;enable-background:accumulate" />
  <path
     d="m 1.7481152,5.563637 c 0,0 1.8910838,-2.9927524 6.2389296,-2.9927524 4.3478452,0 6.2648392,2.9786954 6.2648392,2.9786954"
     id="path3209-4"
     style="opacity:0.6;fill:none;stroke:#ffffff;stroke-width:1.62394822;stroke-linecap:butt;stroke-linejoin:miter;stroke-miterlimit:4;stroke-opacity:1;stroke-dasharray:none;stroke-dashoffset:0;marker:none;visibility:visible;display:inline;overflow:visible;enable-background:accumulate" />
  <path
     d="m 0.84486775,4.4137962 c 0,0 2.26599025,-3.4307802 7.14102425,-3.4307802 4.851067,0 7.16924,3.4366024 7.16924,3.4366024"
     id="path3209"
     style="opacity:0.7;fill:none;stroke:url(#linearGradient3904);stroke-width:1.70000005;stroke-linecap:butt;stroke-linejoin:miter;stroke-miterlimit:4;stroke-opacity:1;stroke-dasharray:none;stroke-dashoffset:0;marker:none;visibility:visible;display:inline;overflow:visible;enable-background:accumulate" />
  <path
     style="opacity:0.7;fill:url(#linearGradient3004);fill-opacity:1;fill-rule:nonzero;stroke:none;stroke-width:1;marker:none;visibility:visible;display:inline;overflow:visible;enable-background:accumulate"
     id="rect2822"
     d="m 13,8 c -1.108,0 -2,0.910763 -2,2.03125 L 11,11 c -0.554,0 -1,0.446 -1,1 l 0,3 c 0,0.554 0.446,1 1,1 l 4,0 c 0.554,0 1,-0.446 1,-1 l 0,-3 c 0,-0.554 -0.446,-1 -1,-1 l 0,-0.96875 C 15,8.910764 14.108,8 13,8 z m 0,1 c 0.554,0 1,0.442363 1,1 l 0,1 -2,0 0,-1 c 0,-0.557637 0.446,-1 1,-1 z" />
</svg>
