<?xml version="1.0" encoding="UTF-8" standalone="no"?>
<svg
   xmlns:dc="http://purl.org/dc/elements/1.1/"
   xmlns:cc="http://creativecommons.org/ns#"
   xmlns:rdf="http://www.w3.org/1999/02/22-rdf-syntax-ns#"
   xmlns:svg="http://www.w3.org/2000/svg"
   xmlns="http://www.w3.org/2000/svg"
   version="1.0"
   width="16"
   height="16"
   id="svg3239">
  <metadata
     id="metadata13">
    <rdf:RDF>
      <cc:Work
         rdf:about="">
        <dc:format>image/svg+xml</dc:format>
        <dc:type
           rdf:resource="http://purl.org/dc/dcmitype/StillImage" />
        <dc:title />
      </cc:Work>
    </rdf:RDF>
  </metadata>
  <defs
     id="defs3241" />
  <g
     id="g3005">
    <g
       id="g3002"
       transform="translate(-18.915254,-7.457626)"
       style="fill:#000000;fill-opacity:1">
      <path
         d="m 21.915254,8.4576271 c -0.9695,0 -2,0.8919999 -2,1.9999999 v 10 c 0,1.107998 1.0305,1.999999 2,1.999999 h 10 c 0.9695,0 2,-0.892001 2,-1.999999 v -10 c 0,-1.108 -1.0305,-1.9999999 -2,-1.9999999 z m 3.875,1.9999999 c 2.740036,0 3.393059,0.125093 4.1875,0.75 0.93473,0.73526 1.217011,2.045302 0.71875,3.34375 -0.331356,0.863499 -2.056348,1.625 -3.6875,1.625 h -1.4375 v 1.593749 c 0,1.23379 0.164117,1.692744 0.78125,2.125001 0.752795,0.527278 0.683018,0.5625 -1.5,0.5625 -2.183018,0 -2.252795,-0.03522 -1.5,-0.5625 0.736874,-0.516126 0.78125,-0.828041 0.78125,-4.4375 0,-3.609461 -0.04438,-3.921373 -0.78125,-4.4375 -0.742593,-0.520133 -0.598903,-0.5625 2.4375,-0.5625 z m -0.25,0.9375 c -0.02247,1.389579 -0.0093,2.766647 0,4.15625 l 1.3125,-0.21875 c 0.729569,-0.118392 1.443524,-0.314452 1.59375,-0.46875 0.150229,-0.154304 0.379245,-0.696904 0.5,-1.1875 0.31146,-1.265367 -0.490766,-2.177393 -1.96875,-2.25 z"
         style="display:inline;overflow:visible;visibility:visible;opacity:0.99999999;fill:#666666;fill-opacity:1;fill-rule:nonzero;stroke:none;stroke-width:1;marker:none;enable-background:accumulate"
         id="rect2386" />
    </g>
  </g>
</svg>
