<?xml version="1.0" encoding="UTF-8" standalone="no"?>
<svg
   xmlns:dc="http://purl.org/dc/elements/1.1/"
   xmlns:cc="http://creativecommons.org/ns#"
   xmlns:rdf="http://www.w3.org/1999/02/22-rdf-syntax-ns#"
   xmlns:svg="http://www.w3.org/2000/svg"
   xmlns="http://www.w3.org/2000/svg"
   xmlns:xlink="http://www.w3.org/1999/xlink"
   height="16"
   width="16"
   id="svg2"
   version="1.1">
  <defs
     id="defs7">
    <linearGradient
       id="linearGradient3587-6-5-3">
      <stop
         offset="0"
         style="stop-color:#000000;stop-opacity:1"
         id="stop3589-9-2-2" />
      <stop
         offset="1"
         style="stop-color:#363636;stop-opacity:1"
         id="stop3591-7-4-73" />
    </linearGradient>
    <linearGradient
       gradientUnits="userSpaceOnUse"
       y2="15"
       x2="4"
       y1="1"
       x1="4"
       id="linearGradient834"
       xlink:href="#linearGradient3587-6-5-3" />
  </defs>
  <metadata
     id="metadata12">
    <rdf:RDF>
      <cc:Work
         rdf:about="">
        <dc:format>image/svg+xml</dc:format>
        <dc:type
           rdf:resource="http://purl.org/dc/dcmitype/StillImage" />
        <dc:title />
      </cc:Work>
    </rdf:RDF>
  </metadata>
  <path
     style="color:#bebebe;overflow:visible;opacity:0.6;fill:#ffffff;fill-opacity:1;stroke-width:0.93541437;marker:none"
     d="M 8,2 V 4 C 4.6862919,4 2,6.1005051 2,9 H 4 C 4,7.0667369 5.790556,5.999623 8,6 V 8 L 10.240234,6.65625 A 2.5,2.5 0 0 1 9,4.5 2.5,2.5 0 0 1 9.5546875,2.9335938 Z m 4,7 c 0,1.933263 -1.790556,3.000377 -4,3 v -2 l -5,3 5,3 v -2 c 3.313708,0 6,-2.100505 6,-5 z"
     id="path836" />
  <circle
     style="opacity:0.6;fill:#ffffff;fill-opacity:1;stroke:none;stroke-width:6.44160223;stroke-linecap:round;stroke-miterlimit:4;stroke-dasharray:none;stroke-dashoffset:0;stroke-opacity:0"
     id="circle840"
     cx="12.5"
     cy="4.5"
     r="2.5" />
  <path
     id="path816-3"
     d="M 8 1 L 8 3 C 4.6862919 3 2 5.1005051 2 8 L 4 8 C 4 6.0667369 5.790556 4.999623 8 5 L 8 7 L 10.240234 5.65625 A 2.5 2.5 0 0 1 9 3.5 A 2.5 2.5 0 0 1 9.5546875 1.9335938 L 8 1 z M 12 8 C 12 9.9332633 10.209444 11.000377 8 11 L 8 9 L 3 12 L 8 15 L 8 13 C 11.313708 13 14 10.899495 14 8 L 12 8 z "
     style="color:#bebebe;overflow:visible;fill:url(#linearGradient834);fill-opacity:1;stroke-width:0.93541437;marker:none;opacity:0.7" />
  <circle
     r="2.5"
     cy="3.5"
     cx="12.5"
     id="path879-5"
     style="opacity:1;fill:#f57900;fill-opacity:1;stroke:none;stroke-width:6.44160223;stroke-linecap:round;stroke-miterlimit:4;stroke-dasharray:none;stroke-dashoffset:0;stroke-opacity:0" />
</svg>
