<?xml version="1.0" encoding="UTF-8" standalone="no"?>
<svg
   xmlns:dc="http://purl.org/dc/elements/1.1/"
   xmlns:cc="http://creativecommons.org/ns#"
   xmlns:rdf="http://www.w3.org/1999/02/22-rdf-syntax-ns#"
   xmlns:svg="http://www.w3.org/2000/svg"
   xmlns="http://www.w3.org/2000/svg"
   xmlns:sodipodi="http://sodipodi.sourceforge.net/DTD/sodipodi-0.dtd"
   xmlns:inkscape="http://www.inkscape.org/namespaces/inkscape"
   version="1.1"
   width="16"
   height="16"
   id="svg3738"
   sodipodi:docname="transmission-tray-icon.svg"
   inkscape:version="0.92.4 (5da689c313, 2019-01-14)">
  <sodipodi:namedview
     pagecolor="#ffffff"
     bordercolor="#666666"
     borderopacity="1"
     objecttolerance="10"
     gridtolerance="10"
     guidetolerance="10"
     inkscape:pageopacity="0"
     inkscape:pageshadow="2"
     inkscape:window-width="1920"
     inkscape:window-height="1021"
     id="namedview11"
     showgrid="true"
     inkscape:zoom="30.379554"
     inkscape:cx="-1.344795"
     inkscape:cy="6.5168985"
     inkscape:window-x="0"
     inkscape:window-y="0"
     inkscape:window-maximized="1"
     inkscape:current-layer="svg3738">
    <inkscape:grid
       type="xygrid"
       id="grid837" />
  </sodipodi:namedview>
  <metadata
     id="metadata13">
    <rdf:RDF>
      <cc:Work
         rdf:about="">
        <dc:format>image/svg+xml</dc:format>
        <dc:type
           rdf:resource="http://purl.org/dc/dcmitype/StillImage" />
        <dc:title />
      </cc:Work>
    </rdf:RDF>
  </metadata>
  <defs
     id="defs3740" />
  <path
     style="opacity:1;fill:#666666;fill-opacity:1;stroke:none;stroke-width:0.00960769;stroke-miterlimit:4;stroke-dasharray:none;stroke-opacity:1"
     d="M 2.6425781 1 C 2.286975 1 2 1.286975 2 1.6425781 L 2 2.3574219 C 2 2.713025 2.286975 3 2.6425781 3 L 6 3 L 6 6 L 10 6 L 10 3 L 13.357422 3 C 13.713025 3 14 2.713025 14 2.3574219 L 14 1.6425781 C 14 1.286975 13.713025 1 13.357422 1 L 2.6425781 1 z M 10 6 L 10 9 L 12 9 L 8 13 L 4 9 L 6 9 L 6 6 L 3.0292969 6 C 2.4695893 6 2.0221544 6.4443789 2.0058594 7 L 2 7 L 1 13 L 1.0195312 13 C 1.0112253 13.063249 1 13.125818 1 13.191406 L 1 13.541016 C 1 14.349273 1.6507267 15 2.4589844 15 L 13.541016 15 C 14.349273 15 15 14.349273 15 13.541016 L 15 13.191406 C 15 13.125818 14.988775 13.063249 14.980469 13 L 15 13 L 14 7 L 13.994141 7 C 13.977846 6.4443789 13.530411 6 12.970703 6 L 10 6 z "
     id="rect819" />
</svg>
