<?xml version="1.0" encoding="UTF-8" standalone="no"?>
<!-- Created with Inkscape (http://www.inkscape.org/) -->

<svg
   xmlns:dc="http://purl.org/dc/elements/1.1/"
   xmlns:cc="http://creativecommons.org/ns#"
   xmlns:rdf="http://www.w3.org/1999/02/22-rdf-syntax-ns#"
   xmlns:svg="http://www.w3.org/2000/svg"
   xmlns="http://www.w3.org/2000/svg"
   xmlns:xlink="http://www.w3.org/1999/xlink"
   xmlns:sodipodi="http://sodipodi.sourceforge.net/DTD/sodipodi-0.dtd"
   xmlns:inkscape="http://www.inkscape.org/namespaces/inkscape"
   version="1.0"
   width="16"
   height="16"
   id="svg3184"
   inkscape:version="0.48.3.1 r9886"
   sodipodi:docname="user-offline-panel.svg">
  <metadata
     id="metadata12">
    <rdf:RDF>
      <cc:Work
         rdf:about="">
        <dc:format>image/svg+xml</dc:format>
        <dc:type
           rdf:resource="http://purl.org/dc/dcmitype/StillImage" />
        <dc:title></dc:title>
      </cc:Work>
    </rdf:RDF>
  </metadata>
  <sodipodi:namedview
     pagecolor="#ffffff"
     bordercolor="#666666"
     borderopacity="1"
     objecttolerance="10"
     gridtolerance="10"
     guidetolerance="10"
     inkscape:pageopacity="0"
     inkscape:pageshadow="2"
     inkscape:window-width="1153"
     inkscape:window-height="722"
     id="namedview10"
     showgrid="true"
     inkscape:zoom="13.227273"
     inkscape:cx="1.7606385"
     inkscape:cy="9.5635731"
     inkscape:window-x="274"
     inkscape:window-y="93"
     inkscape:window-maximized="0"
     inkscape:current-layer="svg3184"
     showguides="true"
     inkscape:guide-bbox="true">
    <inkscape:grid
       type="xygrid"
       id="grid3772"
       empspacing="5"
       visible="true"
       enabled="true"
       snapvisiblegridlinesonly="true" />
  </sodipodi:namedview>
  <defs
     id="defs3186">
    <linearGradient
       id="linearGradient3587-6-5-3">
      <stop
         id="stop3589-9-2-2"
         style="stop-color:#000000;stop-opacity:1"
         offset="0" />
      <stop
         id="stop3591-7-4-73"
         style="stop-color:#363636;stop-opacity:1"
         offset="1" />
    </linearGradient>
    <linearGradient
       x1="159.68553"
       y1="14.403693"
       x2="159.68553"
       y2="38.279892"
       id="linearGradient2388"
       xlink:href="#linearGradient3587-6-5-3"
       gradientUnits="userSpaceOnUse"
       gradientTransform="matrix(-0.32801832,0,0,0.5447147,60.823996,-6.8459034)" />
    <linearGradient
       y2="38.983089"
       x2="222.33264"
       y1="15.111481"
       x1="222.33264"
       gradientTransform="matrix(-0.4100229,0,0,0.5447147,96.68234,-21.540776)"
       gradientUnits="userSpaceOnUse"
       id="linearGradient3003"
       xlink:href="#linearGradient3587-6-5-3-8"
       inkscape:collect="always" />
    <linearGradient
       id="linearGradient3587-6-5-3-8">
      <stop
         id="stop3589-9-2-2-4"
         style="stop-color:#000000;stop-opacity:1"
         offset="0" />
      <stop
         id="stop3591-7-4-73-7"
         style="stop-color:#363636;stop-opacity:1"
         offset="1" />
    </linearGradient>
    <linearGradient
       x1="222.84993"
       y1="13.784379"
       x2="222.84993"
       y2="37.82296"
       id="linearGradient3158"
       xlink:href="#linearGradient3587-6-5-3-6"
       gradientUnits="userSpaceOnUse"
       gradientTransform="matrix(-0.4100229,0,0,0.5447147,101.0059,-6.508554)" />
    <linearGradient
       id="linearGradient3587-6-5-3-6">
      <stop
         id="stop3589-9-2-2-8"
         style="stop-color:#000000;stop-opacity:1"
         offset="0" />
      <stop
         id="stop3591-7-4-73-9"
         style="stop-color:#363636;stop-opacity:1"
         offset="1" />
    </linearGradient>
    <linearGradient
       y2="37.82296"
       x2="222.84993"
       y1="13.784379"
       x1="222.84993"
       gradientTransform="matrix(-0.4100229,0,0,0.5447147,99.0059,-6.508554)"
       gradientUnits="userSpaceOnUse"
       id="linearGradient3019"
       xlink:href="#linearGradient3587-6-5-3-6"
       inkscape:collect="always" />
    <linearGradient
       inkscape:collect="always"
       xlink:href="#linearGradient3587-6-5-3-6"
       id="linearGradient3892"
       gradientUnits="userSpaceOnUse"
       gradientTransform="matrix(-0.4100229,0,0,0.5447147,99.0059,-5.508554)"
       x1="222.84993"
       y1="13.784379"
       x2="222.84993"
       y2="37.82296" />
  </defs>
  <path
     style="opacity:0.6;fill:#ffffff;fill-opacity:1;fill-rule:nonzero;stroke:none;stroke-width:1;marker:none;visibility:visible;display:inline;overflow:visible;enable-background:accumulate"
     d="M 6.8125 2 C 3.0589 1.9999999 0 4.9120001 0 8.5 C -7.9999988e-07 12.088 3.0589 15 6.8125 15 C 8.7392968 15 10.44979 14.23217 11.6875 13 L 16 12.90625 L 13.375 10.09375 C 13.5099 9.583288 13.59375 9.050338 13.59375 8.5 C 13.59375 4.9120003 10.5661 2 6.8125 2 z M 6.5 4.25 C 8.84721 4.25 10.75 6.15279 10.75 8.5 C 10.75 10.84721 8.84721 12.75 6.5 12.75 C 4.15279 12.75 2.25 10.84721 2.25 8.5 C 2.25 6.15279 4.15279 4.25 6.5 4.25 z "
     id="path2410" />
  <path
     style="opacity:0.69999999999999996;fill:url(#linearGradient2388);fill-opacity:1;fill-rule:nonzero;stroke:none;stroke-width:1;marker:none;visibility:visible;display:inline;overflow:visible;enable-background:accumulate"
     d="M 6.8125 1 C 3.0589 0.9999999 0 3.9120001 0 7.5 C -7.9999988e-07 11.088 3.0589 14 6.8125 14 C 8.7392968 14 10.44979 13.23217 11.6875 12 L 16 11.90625 L 13.375 9.09375 C 13.5099 8.583288 13.59375 8.050338 13.59375 7.5 C 13.59375 3.9120003 10.5661 1 6.8125 1 z M 6.5 3.25 C 8.84721 3.25 10.75 5.15279 10.75 7.5 C 10.75 9.84721 8.84721 11.75 6.5 11.75 C 4.15279 11.75 2.25 9.84721 2.25 7.5 C 2.25 5.15279 4.15279 3.25 6.5 3.25 z "
     id="path2396" />
  <path
     d="m 2.25,7.5 c 0,2.34721 1.90279,4.25 4.25,4.25 2.34721,0 4.25,-1.90279 4.25,-4.25 C 10.75,5.15279 8.84721,3.2499998 6.5,3.2499998 4.15279,3.2499998 2.25,5.15279 2.25,7.5 z"
     id="path3260"
     style="opacity:0.3;fill:none;stroke:#000000;stroke-width:0.5;stroke-linecap:butt;stroke-linejoin:miter;stroke-miterlimit:4;stroke-opacity:1;stroke-dasharray:none;stroke-dashoffset:0;marker:none;visibility:visible;display:inline;overflow:visible;enable-background:accumulate"
     inkscape:connector-curvature="0" />
  <path
     d="M 8.262048,8.5 6.5,8.5 6.5,6"
     id="path3258"
     style="opacity:0.6;fill:none;stroke:#ffffff;stroke-width:1px;stroke-linecap:round;stroke-linejoin:round;stroke-opacity:1;display:inline"
     inkscape:connector-curvature="0" />
  <path
     d="M 8.262048,7.5 6.5,7.5 6.5,5"
     id="path2817"
     style="opacity:0.7;fill:none;stroke:#282828;stroke-width:1px;stroke-linecap:round;stroke-linejoin:round;stroke-opacity:1;display:inline"
     inkscape:connector-curvature="0" />
</svg>
