<?xml version="1.0" encoding="UTF-8" standalone="no"?>
<svg
   xmlns:dc="http://purl.org/dc/elements/1.1/"
   xmlns:cc="http://creativecommons.org/ns#"
   xmlns:rdf="http://www.w3.org/1999/02/22-rdf-syntax-ns#"
   xmlns:svg="http://www.w3.org/2000/svg"
   xmlns="http://www.w3.org/2000/svg"
   height="16.004"
   width="16"
   id="svg2"
   version="1.1">
  <metadata
     id="metadata12">
    <rdf:RDF>
      <cc:Work
         rdf:about="">
        <dc:format>image/svg+xml</dc:format>
        <dc:type
           rdf:resource="http://purl.org/dc/dcmitype/StillImage" />
        <dc:title />
      </cc:Work>
    </rdf:RDF>
  </metadata>
  <defs
     id="defs10" />
  <g
     transform="translate(-1233 -81)"
     id="g4">
    <path
       d="m 1237.5,82.004 a 4.501,4.501 0 0 0 -4.5,4.5 v 6 c 0,2.484 2.016,4.5 4.5,4.5 h 2 c 2.484,0 4.5,-2.016 4.5,-4.5 v -6 c 0,-2.484 -2.016,-4.5 -4.5,-4.5 z m 0,1 h 0.5 v 4 h -4 v -0.5 c 0,-1.948 1.553,-3.5 3.5,-3.5 z m 1.5,0 h 0.5 c 1.948,0 3.5,1.552 3.5,3.5 v 0.5 h -4 z m -5,5 h 9 v 4.5 c 0,1.948 -1.552,3.5 -3.5,3.5 h -2 a 3.481,3.481 0 0 1 -3.5,-3.5 z"
       font-weight="400"
       overflow="visible"
       style="color:#000000;font-weight:400;line-height:normal;font-family:sans-serif;font-variant-ligatures:normal;font-variant-position:normal;font-variant-caps:normal;font-variant-numeric:normal;font-variant-alternates:normal;font-feature-settings:normal;text-indent:0;text-align:start;text-decoration:none;text-decoration-line:none;text-decoration-style:solid;text-decoration-color:#000000;text-transform:none;text-orientation:mixed;white-space:normal;shape-padding:0;overflow:visible;isolation:auto;mix-blend-mode:normal;fill:#666666;fill-opacity:1"
       id="path6" />
    <circle
       r="2"
       cx="1246.8431"
       cy="94.087013"
       overflow="visible"
       style="color:#000000;overflow:visible;fill:#666666;fill-opacity:1;marker:none"
       id="ellipse8" />
    <circle
       r="2"
       cx="1246.8431"
       cy="89.087013"
       overflow="visible"
       style="color:#000000;overflow:visible;fill:#666666;fill-opacity:1;marker:none"
       id="ellipse10" />
    <circle
       r="2"
       cx="1246.8431"
       cy="84.087013"
       overflow="visible"
       style="color:#000000;overflow:visible;fill:#666666;fill-opacity:1;marker:none"
       id="ellipse12" />
  </g>
</svg>
