<?xml version="1.0" encoding="UTF-8" standalone="no"?>
<!-- Created with Inkscape (http://www.inkscape.org/) -->

<svg
   xmlns:dc="http://purl.org/dc/elements/1.1/"
   xmlns:cc="http://creativecommons.org/ns#"
   xmlns:rdf="http://www.w3.org/1999/02/22-rdf-syntax-ns#"
   xmlns:svg="http://www.w3.org/2000/svg"
   xmlns="http://www.w3.org/2000/svg"
   xmlns:xlink="http://www.w3.org/1999/xlink"
   xmlns:sodipodi="http://sodipodi.sourceforge.net/DTD/sodipodi-0.dtd"
   xmlns:inkscape="http://www.inkscape.org/namespaces/inkscape"
   width="128"
   height="128"
   id="svg3598"
   version="1.1"
   inkscape:version="0.48+devel r"
   sodipodi:docname="accessories-text-editor.svg">
  <defs
     id="defs3600">
    <linearGradient
       inkscape:collect="always"
       xlink:href="#linearGradient3290-678"
       id="linearGradient3151"
       gradientUnits="userSpaceOnUse"
       gradientTransform="matrix(1.7179998,-1.7299437,2.3147598,2.3079417,-17.77096,-18.439975)"
       x1="9"
       y1="29.056757"
       x2="9"
       y2="26.02973" />
    <linearGradient
       id="linearGradient3290-678">
      <stop
         id="stop2607"
         style="stop-color:#ece5a5;stop-opacity:1"
         offset="0" />
      <stop
         id="stop2609"
         style="stop-color:#fcfbf2;stop-opacity:1"
         offset="1" />
    </linearGradient>
    <linearGradient
       inkscape:collect="always"
       xlink:href="#linearGradient3191-577"
       id="linearGradient3153"
       gradientUnits="userSpaceOnUse"
       gradientTransform="matrix(1.5089227,0.06526034,0.06504733,1.5101363,44.722117,-28.225176)"
       x1="5.5178981"
       y1="37.371799"
       x2="9.5220556"
       y2="41.391716" />
    <linearGradient
       id="linearGradient3191-577">
      <stop
         id="stop2613"
         style="stop-color:#dbce48;stop-opacity:1"
         offset="0" />
      <stop
         id="stop2615"
         style="stop-color:#c5b625;stop-opacity:1"
         offset="1" />
    </linearGradient>
    <linearGradient
       inkscape:collect="always"
       xlink:href="#linearGradient3223-699"
       id="linearGradient3156"
       gradientUnits="userSpaceOnUse"
       gradientTransform="matrix(1.7179998,-1.7299437,2.3147596,2.3079415,-14.182713,-22.053159)"
       x1="30.037716"
       y1="24.989594"
       x2="30.037716"
       y2="30.000141" />
    <linearGradient
       id="linearGradient3223-699">
      <stop
         id="stop2599"
         style="stop-color:#b1b1b1;stop-opacity:1"
         offset="0" />
      <stop
         id="stop2601"
         style="stop-color:#ffffff;stop-opacity:1"
         offset="0.5" />
      <stop
         id="stop2603"
         style="stop-color:#8f8f8f;stop-opacity:1"
         offset="1" />
    </linearGradient>
    <linearGradient
       inkscape:collect="always"
       xlink:href="#linearGradient3240-907"
       id="linearGradient3159"
       gradientUnits="userSpaceOnUse"
       gradientTransform="matrix(1.7179998,-1.7299437,2.3147596,2.3079415,-13.690701,-22.548596)"
       x1="30.037716"
       y1="24.989594"
       x2="30.037716"
       y2="30.000141" />
    <linearGradient
       id="linearGradient3240-907">
      <stop
         id="stop2591"
         style="stop-color:#565656;stop-opacity:1"
         offset="0" />
      <stop
         id="stop2593"
         style="stop-color:#9a9a9a;stop-opacity:1"
         offset="0.5" />
      <stop
         id="stop2595"
         style="stop-color:#545454;stop-opacity:1"
         offset="1" />
    </linearGradient>
    <linearGradient
       inkscape:collect="always"
       xlink:href="#linearGradient3223-768"
       id="linearGradient3162"
       gradientUnits="userSpaceOnUse"
       gradientTransform="matrix(1.7179998,-1.7299437,2.3147596,2.3079415,-15.900717,-20.32322)"
       x1="30.037716"
       y1="24.989594"
       x2="30.037716"
       y2="30.000141" />
    <linearGradient
       id="linearGradient3223-768">
      <stop
         id="stop2583"
         style="stop-color:#b1b1b1;stop-opacity:1"
         offset="0" />
      <stop
         id="stop2585"
         style="stop-color:#ffffff;stop-opacity:1"
         offset="0.5" />
      <stop
         id="stop2587"
         style="stop-color:#8f8f8f;stop-opacity:1"
         offset="1" />
    </linearGradient>
    <linearGradient
       inkscape:collect="always"
       xlink:href="#linearGradient3240-686"
       id="linearGradient3165"
       gradientUnits="userSpaceOnUse"
       gradientTransform="matrix(1.7179998,-1.7299437,2.3147596,2.3079415,-15.408703,-20.818651)"
       x1="30.037716"
       y1="24.989594"
       x2="30.037716"
       y2="30.000141" />
    <linearGradient
       id="linearGradient3240-686">
      <stop
         id="stop2575"
         style="stop-color:#565656;stop-opacity:1"
         offset="0" />
      <stop
         id="stop2577"
         style="stop-color:#9a9a9a;stop-opacity:1"
         offset="0.5" />
      <stop
         id="stop2579"
         style="stop-color:#545454;stop-opacity:1"
         offset="1" />
    </linearGradient>
    <linearGradient
       inkscape:collect="always"
       xlink:href="#linearGradient3223-789"
       id="linearGradient3168"
       gradientUnits="userSpaceOnUse"
       gradientTransform="matrix(1.7179998,-1.7299437,2.3147596,2.3079415,-17.610449,-18.601594)"
       x1="30.037716"
       y1="24.989594"
       x2="30.037716"
       y2="30.000141" />
    <linearGradient
       id="linearGradient3223-789">
      <stop
         id="stop2567"
         style="stop-color:#b1b1b1;stop-opacity:1"
         offset="0" />
      <stop
         id="stop2569"
         style="stop-color:#ffffff;stop-opacity:1"
         offset="0.5" />
      <stop
         id="stop2571"
         style="stop-color:#8f8f8f;stop-opacity:1"
         offset="1" />
    </linearGradient>
    <linearGradient
       inkscape:collect="always"
       xlink:href="#linearGradient3240-279"
       id="linearGradient3171"
       gradientUnits="userSpaceOnUse"
       gradientTransform="matrix(1.7179998,-1.7299437,2.3147596,2.3079415,-17.118437,-19.097027)"
       x1="30.037716"
       y1="24.989594"
       x2="30.037716"
       y2="30.000141" />
    <linearGradient
       id="linearGradient3240-279">
      <stop
         id="stop2559"
         style="stop-color:#565656;stop-opacity:1"
         offset="0" />
      <stop
         id="stop2561"
         style="stop-color:#9a9a9a;stop-opacity:1"
         offset="0.5" />
      <stop
         id="stop2563"
         style="stop-color:#545454;stop-opacity:1"
         offset="1" />
    </linearGradient>
    <linearGradient
       inkscape:collect="always"
       xlink:href="#linearGradient3155-40"
       id="linearGradient3176"
       gradientUnits="userSpaceOnUse"
       gradientTransform="matrix(1.7679783,-1.7802695,1.9778897,1.9720637,-10.639524,-9.9875213)"
       spreadMethod="pad"
       x1="23.575972"
       y1="25.356892"
       x2="23.575972"
       y2="31.210939" />
    <linearGradient
       id="linearGradient3155-40">
      <stop
         id="stop2541"
         style="stop-color:#181818;stop-opacity:1"
         offset="0" />
      <stop
         id="stop2543"
         style="stop-color:#dbdbdb;stop-opacity:1"
         offset="0.13482948" />
      <stop
         id="stop2545"
         style="stop-color:#a4a4a4;stop-opacity:1"
         offset="0.20224422" />
      <stop
         id="stop2547"
         style="stop-color:#ffffff;stop-opacity:1"
         offset="0.26965895" />
      <stop
         id="stop2549"
         style="stop-color:#8d8d8d;stop-opacity:1"
         offset="0.44650277" />
      <stop
         id="stop2551"
         style="stop-color:#959595;stop-opacity:1"
         offset="0.57114136" />
      <stop
         id="stop2553"
         style="stop-color:#cecece;stop-opacity:1"
         offset="0.72038066" />
      <stop
         id="stop2555"
         style="stop-color:#181818;stop-opacity:1"
         offset="1" />
    </linearGradient>
    <linearGradient
       inkscape:collect="always"
       xlink:href="#linearGradient3104"
       id="linearGradient3302"
       gradientUnits="userSpaceOnUse"
       gradientTransform="matrix(2.6665193,0,0,2.7016454,-3.6619108,-62.565319)"
       x1="22.004084"
       y1="44.854229"
       x2="22.004084"
       y2="3.0718794" />
    <linearGradient
       id="linearGradient3104">
      <stop
         id="stop3106"
         style="stop-color:#a0a0a0;stop-opacity:1"
         offset="0" />
      <stop
         id="stop3108"
         style="stop-color:#c8c8c8;stop-opacity:1"
         offset="1" />
    </linearGradient>
    <linearGradient
       inkscape:collect="always"
       xlink:href="#linearGradient3454"
       id="linearGradient3245-0"
       gradientUnits="userSpaceOnUse"
       gradientTransform="matrix(2.5128311,0,0,2.9570453,-128.19662,-65.065313)"
       x1="68.437271"
       y1="4.410717"
       x2="68.437271"
       y2="40.927929" />
    <linearGradient
       id="linearGradient3454">
      <stop
         id="stop3456"
         style="stop-color:#ffffff;stop-opacity:1;"
         offset="0" />
      <stop
         offset="0.0097359"
         style="stop-color:#ffffff;stop-opacity:0.23529412;"
         id="stop3458" />
      <stop
         id="stop3460"
         style="stop-color:#ffffff;stop-opacity:0.15686275;"
         offset="0.99001008" />
      <stop
         id="stop3462"
         style="stop-color:#ffffff;stop-opacity:0.39215687;"
         offset="1" />
    </linearGradient>
    <linearGradient
       inkscape:collect="always"
       xlink:href="#linearGradient3104-8-8"
       id="linearGradient3250-3"
       gradientUnits="userSpaceOnUse"
       gradientTransform="matrix(1.0843525,0,0,1.1183944,79.550865,1.1533356)"
       x1="-51.786404"
       y1="53.514328"
       x2="-51.786404"
       y2="3.6336823" />
    <linearGradient
       id="linearGradient3104-8-8">
      <stop
         id="stop3106-5-4"
         style="stop-color:#a0a0a0;stop-opacity:1;"
         offset="0" />
      <stop
         id="stop3108-4-3"
         style="stop-color:#bebebe;stop-opacity:1;"
         offset="1" />
    </linearGradient>
    <linearGradient
       inkscape:collect="always"
       xlink:href="#linearGradient5048"
       id="linearGradient3359"
       gradientUnits="userSpaceOnUse"
       gradientTransform="matrix(0.08918772,0,0,0.01646992,-1.9026808,51.961501)"
       x1="302.85715"
       y1="366.64789"
       x2="302.85715"
       y2="609.50507" />
    <linearGradient
       id="linearGradient5048">
      <stop
         id="stop5050"
         style="stop-color:#000000;stop-opacity:0"
         offset="0" />
      <stop
         id="stop5056"
         style="stop-color:#000000;stop-opacity:1"
         offset="0.5" />
      <stop
         id="stop5052"
         style="stop-color:#000000;stop-opacity:0"
         offset="1" />
    </linearGradient>
    <radialGradient
       inkscape:collect="always"
       xlink:href="#linearGradient5060"
       id="radialGradient3361"
       gradientUnits="userSpaceOnUse"
       gradientTransform="matrix(-0.03052185,0,0,0.01646992,27.194158,51.961535)"
       cx="605.71429"
       cy="486.64789"
       fx="605.71429"
       fy="486.64789"
       r="117.14286" />
    <linearGradient
       id="linearGradient5060">
      <stop
         id="stop5062"
         style="stop-color:#000000;stop-opacity:1"
         offset="0" />
      <stop
         id="stop5064"
         style="stop-color:#000000;stop-opacity:0"
         offset="1" />
    </linearGradient>
    <radialGradient
       r="117.14286"
       fy="486.64789"
       fx="605.71429"
       cy="486.64789"
       cx="605.71429"
       gradientTransform="matrix(0.03052185,0,0,0.01646992,33.470457,51.961535)"
       gradientUnits="userSpaceOnUse"
       id="radialGradient3596"
       xlink:href="#linearGradient5060"
       inkscape:collect="always" />
    <linearGradient
       id="linearGradient3600-9-2-6">
      <stop
         id="stop3602-3-2-9"
         style="stop-color:#f4f4f4;stop-opacity:1"
         offset="0" />
      <stop
         id="stop3604-7-9-5"
         style="stop-color:#dbdbdb;stop-opacity:1"
         offset="1" />
    </linearGradient>
    <linearGradient
       y2="48.545383"
       x2="25.132275"
       y1="2.3464241"
       x1="25.132275"
       gradientTransform="matrix(2.6857124,0,0,2.3901982,-4.4571251,-59.033785)"
       gradientUnits="userSpaceOnUse"
       id="linearGradient3115"
       xlink:href="#linearGradient3600-9-2-6"
       inkscape:collect="always" />
    <linearGradient
       id="linearGradient3104-8-8-97">
      <stop
         id="stop3106-5-4-3"
         style="stop-color:#000000;stop-opacity:0.32173914;"
         offset="0" />
      <stop
         id="stop3108-4-3-7"
         style="stop-color:#000000;stop-opacity:0.27826086;"
         offset="1" />
    </linearGradient>
    <linearGradient
       y2="3.6336823"
       x2="-51.786404"
       y1="53.514328"
       x1="-51.786404"
       gradientTransform="matrix(2.1917779,0,0,2.2572066,156.1131,-62.276418)"
       gradientUnits="userSpaceOnUse"
       id="linearGradient3929"
       xlink:href="#linearGradient3104-8-8-97"
       inkscape:collect="always" />
    <radialGradient
       inkscape:collect="always"
       xlink:href="#linearGradient5060"
       id="radialGradient3949"
       gradientUnits="userSpaceOnUse"
       gradientTransform="matrix(0.0616433,0,0,0.03333125,66.50022,39.68451)"
       cx="605.71429"
       cy="486.64789"
       fx="605.71429"
       fy="486.64789"
       r="117.14286" />
    <radialGradient
       inkscape:collect="always"
       xlink:href="#linearGradient5060"
       id="radialGradient3952"
       gradientUnits="userSpaceOnUse"
       gradientTransform="matrix(-0.0616433,0,0,0.03333125,53.824323,39.68451)"
       cx="605.71429"
       cy="486.64789"
       fx="605.71429"
       fy="486.64789"
       r="117.14286" />
    <linearGradient
       inkscape:collect="always"
       xlink:href="#linearGradient5048"
       id="linearGradient3955"
       gradientUnits="userSpaceOnUse"
       gradientTransform="matrix(0.18012754,0,0,0.03333125,-4.9409648,39.684441)"
       x1="302.85715"
       y1="366.64789"
       x2="302.85715"
       y2="609.50507" />
  </defs>
  <sodipodi:namedview
     id="base"
     pagecolor="#c57a38"
     bordercolor="#666666"
     borderopacity="1.0"
     inkscape:pageopacity="0"
     inkscape:pageshadow="2"
     inkscape:zoom="5.6568543"
     inkscape:cx="66.233983"
     inkscape:cy="68.497904"
     inkscape:current-layer="layer1"
     showgrid="true"
     inkscape:document-units="px"
     inkscape:grid-bbox="true"
     inkscape:window-width="1535"
     inkscape:window-height="876"
     inkscape:window-x="65"
     inkscape:window-y="24"
     inkscape:window-maximized="1" />
  <metadata
     id="metadata3603">
    <rdf:RDF>
      <cc:Work
         rdf:about="">
        <dc:format>image/svg+xml</dc:format>
        <dc:type
           rdf:resource="http://purl.org/dc/dcmitype/StillImage" />
        <dc:title></dc:title>
      </cc:Work>
    </rdf:RDF>
  </metadata>
  <g
     id="layer1"
     inkscape:label="Layer 1"
     inkscape:groupmode="layer"
     transform="translate(0,64)">
    <rect
       style="opacity:0.2;fill:url(#linearGradient3955);fill-opacity:1;fill-rule:nonzero;stroke:none;stroke-width:1.04588675;marker:none;visibility:visible;display:inline;overflow:visible"
       id="rect3706"
       y="51.905266"
       x="16.674341"
       height="8.0947332"
       width="86.975868" />
    <path
       inkscape:connector-curvature="0"
       style="opacity:0.2;fill:url(#radialGradient3952);fill-opacity:1;fill-rule:nonzero;stroke:none;stroke-width:1.04588675;marker:none;visibility:visible;display:inline;overflow:visible"
       id="path3708"
       d="m 16.674342,51.905621 c 0,0 0,8.094285 0,8.094285 C 13.499864,60.015089 9,58.186388 9,55.952242 c 0,-2.234144 3.542479,-4.046619 7.674342,-4.046621 z" />
    <path
       inkscape:connector-curvature="0"
       style="opacity:0.2;fill:url(#radialGradient3949);fill-opacity:1;fill-rule:nonzero;stroke:none;stroke-width:1.04588675;marker:none;visibility:visible;display:inline;overflow:visible"
       id="path3710"
       d="m 103.65021,51.905621 c 0,0 0,8.094285 0,8.094285 3.17448,0.01519 7.67434,-1.813518 7.67434,-4.047664 0,-2.234144 -3.54248,-4.046619 -7.67434,-4.046621 z" />
    <path
       inkscape:connector-curvature="0"
       style="color:#000000;fill:none;stroke:url(#linearGradient3929);stroke-width:0.99992168;stroke-linecap:butt;stroke-linejoin:round;stroke-miterlimit:4;stroke-opacity:1;stroke-dasharray:none;stroke-dashoffset:0;marker:none;visibility:visible;display:inline;overflow:visible;enable-background:accumulate"
       id="path2855-8"
       d="m 15.213886,-53.499719 89.573444,0 2.71228,111.000078 -95.000072,-0.05718 z"
       sodipodi:nodetypes="ccccc" />
    <path
       inkscape:connector-curvature="0"
       style="color:#000000;fill:url(#linearGradient3115);fill-opacity:1;fill-rule:nonzero;stroke:none;stroke-width:0.99992174;marker:none;visibility:visible;display:inline;overflow:visible;enable-background:accumulate"
       id="path2855-7"
       d="M 15.685767,-53 104.31617,-53 107,57 13,56.943324 Z"
       sodipodi:nodetypes="ccccc" />
    <path
       inkscape:connector-curvature="0"
       style="color:#000000;fill:none;stroke:url(#linearGradient3245-0);stroke-width:1;stroke-linecap:round;stroke-linejoin:miter;stroke-miterlimit:4;stroke-opacity:1;stroke-dasharray:none;stroke-dashoffset:0;marker:none;visibility:visible;display:inline;overflow:visible;enable-background:accumulate"
       id="path2855-3"
       d="m 16.168779,-52.499997 87.663971,0 2.65444,108.999693 -92.974898,-0.05612 z"
       sodipodi:nodetypes="ccccc" />
    <path
       inkscape:connector-curvature="0"
       style="opacity:0.59069764;fill:#80b3ff;fill-rule:evenodd;stroke:#f6abab;stroke-width:0.49999979;stroke-linecap:round;stroke-linejoin:round;stroke-miterlimit:4;stroke-opacity:1;stroke-dasharray:none;display:inline"
       id="path5685"
       d="M 29.749913,-51.74644 28.250075,55.74644" />
    <path
       inkscape:connector-curvature="0"
       style="opacity:0.43720931;fill:#80b3ff;fill-rule:evenodd;stroke:#80b3ff;stroke-width:0.24999991;stroke-linecap:round;stroke-linejoin:round;stroke-miterlimit:4;stroke-opacity:1;stroke-dasharray:none;display:inline"
       id="path6656"
       d="M 102.67498,-35.87759 16.149151,-36.374975" />
    <path
       inkscape:connector-curvature="0"
       style="opacity:0.43720931;fill:#80b3ff;fill-rule:evenodd;stroke:#80b3ff;stroke-width:0.24999991;stroke-linecap:round;stroke-linejoin:round;stroke-miterlimit:4;stroke-opacity:1;stroke-dasharray:none;display:inline"
       id="path6658"
       d="M 102.87399,-30.486802 16.126014,-30.984198" />
    <path
       inkscape:connector-curvature="0"
       style="opacity:0.43720931;fill:#80b3ff;fill-rule:evenodd;stroke:#80b3ff;stroke-width:0.24999991;stroke-linecap:round;stroke-linejoin:round;stroke-miterlimit:4;stroke-opacity:1;stroke-dasharray:none;display:inline"
       id="path6660"
       d="M 103.09613,-25.096017 15.903874,-25.593402" />
    <path
       inkscape:connector-curvature="0"
       style="opacity:0.43720931;fill:#80b3ff;fill-rule:evenodd;stroke:#80b3ff;stroke-width:0.24999991;stroke-linecap:round;stroke-linejoin:round;stroke-miterlimit:4;stroke-opacity:1;stroke-dasharray:none;display:inline"
       id="path6662"
       d="M 103.31827,-19.705231 15.68174,-20.20262" />
    <path
       inkscape:connector-curvature="0"
       style="opacity:0.43720931;fill:#80b3ff;fill-rule:evenodd;stroke:#80b3ff;stroke-width:0.24999991;stroke-linecap:round;stroke-linejoin:round;stroke-miterlimit:4;stroke-opacity:1;stroke-dasharray:none;display:inline"
       id="path6664"
       d="M 103.31827,-14.314446 15.68174,-14.811834" />
    <path
       inkscape:connector-curvature="0"
       style="opacity:0.43720931;fill:#80b3ff;fill-rule:evenodd;stroke:#80b3ff;stroke-width:0.24999991;stroke-linecap:round;stroke-linejoin:round;stroke-miterlimit:4;stroke-opacity:1;stroke-dasharray:none;display:inline"
       id="path6666"
       d="M 103.54042,-8.9236606 15.4596,-9.4210534" />
    <path
       inkscape:connector-curvature="0"
       style="opacity:0.43720931;fill:#80b3ff;fill-opacity:1;fill-rule:evenodd;stroke:#80b3ff;stroke-width:0.24999991;stroke-linecap:round;stroke-linejoin:round;stroke-miterlimit:4;stroke-opacity:1;stroke-dasharray:none;stroke-dashoffset:0;marker:none;visibility:visible;display:inline;overflow:visible;enable-background:accumulate"
       id="path7637"
       d="M 103.54042,-3.5328751 15.459601,-4.0302618" />
    <path
       inkscape:connector-curvature="0"
       style="opacity:0.43720931;fill:#80b3ff;fill-opacity:1;fill-rule:evenodd;stroke:#80b3ff;stroke-width:0.24999994;stroke-linecap:round;stroke-linejoin:round;stroke-miterlimit:4;stroke-opacity:1;stroke-dasharray:none;stroke-dashoffset:0;marker:none;visibility:visible;display:inline;overflow:visible;enable-background:accumulate"
       id="path7639"
       d="M 103.76254,1.8579104 15.237463,1.3605217" />
    <path
       inkscape:connector-curvature="0"
       style="opacity:0.43720931;fill:#80b3ff;fill-opacity:1;fill-rule:evenodd;stroke:#80b3ff;stroke-width:0.24999994;stroke-linecap:round;stroke-linejoin:round;stroke-miterlimit:4;stroke-opacity:1;stroke-dasharray:none;stroke-dashoffset:0;marker:none;visibility:visible;display:inline;overflow:visible;enable-background:accumulate"
       id="path7641"
       d="M 103.76254,7.2486961 15.237466,6.7513072" />
    <path
       inkscape:connector-curvature="0"
       style="opacity:0.43720931;fill:#80b3ff;fill-opacity:1;fill-rule:evenodd;stroke:#80b3ff;stroke-width:0.24999994;stroke-linecap:round;stroke-linejoin:round;stroke-miterlimit:4;stroke-opacity:1;stroke-dasharray:none;stroke-dashoffset:0;marker:none;visibility:visible;display:inline;overflow:visible;enable-background:accumulate"
       id="path7645"
       d="M 104.20682,12.639482 14.793194,12.142101" />
    <path
       inkscape:connector-curvature="0"
       style="opacity:0.43720931;fill:#80b3ff;fill-opacity:1;fill-rule:evenodd;stroke:#80b3ff;stroke-width:0.24999994;stroke-linecap:round;stroke-linejoin:round;stroke-miterlimit:4;stroke-opacity:1;stroke-dasharray:none;stroke-dashoffset:0;marker:none;visibility:visible;display:inline;overflow:visible;enable-background:accumulate"
       id="path7647"
       d="M 104.20682,18.000973 14.793193,17.503581" />
    <path
       inkscape:connector-curvature="0"
       style="opacity:0.43720931;fill:#80b3ff;fill-opacity:1;fill-rule:evenodd;stroke:#80b3ff;stroke-width:0.24999991;stroke-linecap:round;stroke-linejoin:round;stroke-miterlimit:4;stroke-opacity:1;stroke-dasharray:none;stroke-dashoffset:0;marker:none;visibility:visible;display:inline;overflow:visible;enable-background:accumulate"
       id="path7649"
       d="M 104.87322,23.421052 14.126781,22.923663" />
    <path
       inkscape:connector-curvature="0"
       style="opacity:0.43720931;fill:#80b3ff;fill-opacity:1;fill-rule:evenodd;stroke:#80b3ff;stroke-width:0.24999991;stroke-linecap:round;stroke-linejoin:round;stroke-miterlimit:4;stroke-opacity:1;stroke-dasharray:none;stroke-dashoffset:0;marker:none;visibility:visible;display:inline;overflow:visible;enable-background:accumulate"
       id="path7651"
       d="M 104.87322,28.691701 14.126781,28.19431" />
    <path
       inkscape:connector-curvature="0"
       style="opacity:0.43720931;fill:#80b3ff;fill-opacity:1;fill-rule:evenodd;stroke:#80b3ff;stroke-width:0.24999991;stroke-linecap:round;stroke-linejoin:round;stroke-miterlimit:4;stroke-opacity:1;stroke-dasharray:none;stroke-dashoffset:0;marker:none;visibility:visible;display:inline;overflow:visible;enable-background:accumulate"
       id="path7653"
       d="M 104.87322,34.037064 14.126783,33.539678" />
    <path
       inkscape:connector-curvature="0"
       style="opacity:0.43720931;fill:#80b3ff;fill-opacity:1;fill-rule:evenodd;stroke:#80b3ff;stroke-width:0.24999991;stroke-linecap:round;stroke-linejoin:round;stroke-miterlimit:4;stroke-opacity:1;stroke-dasharray:none;stroke-dashoffset:0;marker:none;visibility:visible;display:inline;overflow:visible;enable-background:accumulate"
       id="path7655"
       d="M 104.87322,39.382426 14.12678,38.885029" />
    <path
       inkscape:connector-curvature="0"
       style="opacity:0.43720931;fill:#80b3ff;fill-opacity:1;fill-rule:evenodd;stroke:#80b3ff;stroke-width:0.24999991;stroke-linecap:round;stroke-linejoin:round;stroke-miterlimit:4;stroke-opacity:1;stroke-dasharray:none;stroke-dashoffset:0;marker:none;visibility:visible;display:inline;overflow:visible;enable-background:accumulate"
       id="path7657"
       d="M 104.87322,44.727791 14.126783,44.230401" />
    <path
       inkscape:connector-curvature="0"
       style="opacity:0.43720931;fill:#80b3ff;fill-opacity:1;fill-rule:evenodd;stroke:#80b3ff;stroke-width:0.24999991;stroke-linecap:round;stroke-linejoin:round;stroke-miterlimit:4;stroke-opacity:1;stroke-dasharray:none;stroke-dashoffset:0;marker:none;visibility:visible;display:inline;overflow:visible;enable-background:accumulate"
       id="path7659"
       d="M 104.87322,50.37498 14.126782,49.877591" />
    <path
       inkscape:connector-curvature="0"
       style="opacity:0.59069764;fill:none;stroke:#b9d5ff;stroke-width:0.49999985;stroke-linecap:round;stroke-linejoin:round;stroke-miterlimit:4;stroke-opacity:1;stroke-dasharray:none;display:inline"
       id="path7671"
       d="M 89.916217,-51.746439 93.01598,55.746441" />
    <path
       inkscape:connector-curvature="0"
       style="fill:none;stroke:url(#linearGradient3302);stroke-width:0.99999994px;stroke-linecap:butt;stroke-linejoin:miter;stroke-opacity:1"
       id="path3715"
       d="m 31,-31.500002 6.260906,0 m 0.894416,0 5.8137,0 m 0.935832,0 5.187609,0 m 0.853,0 2.236038,0 m 0.894416,0 5.008726,0 m 0.983856,0 13.147908,0 m 0.89442,0 10.017451,0 m 0.894417,0 3.041011,0 M 31,-25.421054 l 9.707815,0 m 1.129435,0 4.638615,0 m 0.857491,0 2.289074,0 m 0.93134,0 4.272846,0 m 0.894419,0 4.382013,0 m 0.827181,0 6.880797,0 m 0.89442,0 9.077385,0 M 31,-19.369086 l 8.216683,0 m 0.863163,0 13.53215,0 m 0.829367,0 6.562802,0 m 0.841162,0 6.139419,0 m 0.880433,0 5.229902,0 m 0.841165,0 8.225313,0.05397 M 31,-13.26315 l 11.424306,0 m 0.897104,0 12.347526,0 m 0.853002,0 4.852157,0 m 0.894418,0 11.549033,0 m 0.777323,0 7.915658,0 m 0.89442,0 3.132917,0 m 0.894419,0 1.732949,0 M 31,-7.1842014 l 4.264389,0 m 1.31018,0 15.78979,0 M 31,19.157904 l 9.707815,0 m 1.129435,0 4.638615,0 m 0.857491,0 2.289074,0 m 0.93134,0 4.272846,0 m 0.894419,0 4.382013,0 m 0.827181,0 6.880797,0 M 31,27.180281 l 8.216683,0 m 0.863163,0 13.53215,0 m 0.829367,0 6.562802,0 m 23.191514,0.165773 13.404321,0 M 31,13.078956 l 11.424306,0 m 0.897104,0 12.347526,0 m 0.853002,0 4.852157,0 m 0.894418,0 11.549033,0 M 31,0.92105219 l 6.260906,0 m 0.894416,0 5.8137,0 m 0.935832,0 5.187609,0 m 0.853,0 2.236038,0 m 0.894416,0 5.008726,0 m 0.983856,0 13.147908,0 m 0.89442,0 10.017451,0 M 31,6.9999993 l 10.544173,0 m 0.829403,0 11.196583,0 m 0.853002,0 4.378241,0 m 0.826715,0 10.533496,0 m 0.845025,0 11.503889,0 M 31,33.343093 l 9.853338,0 m 1.057711,0 4.344069,0 m 1.017477,0 2.166699,0 m 0.689708,0 4.27719,0 m 0.567835,0 22.644304,0 m 1.065506,0 6.044684,0 m 0.812774,0 1.526247,0 m -44.842187,6.077959 3.214195,0 m -14.43955,0 10.284447,0 m 4.977143,0 7.478382,0 m 0.791075,0 10.977799,0 m 0.853,0 7.447209,0 m 0.749664,0 1.534611,0 m 0.839103,0 9.45666,0 m 0.966795,0 4.951035,0 M 42.225355,45.5 l 4.538279,0 M 31,45.5 l 10.284447,0 m 6.462701,0 6.380359,0"
       sodipodi:nodetypes="cccccccccccccccccccccccccccccccccccccccccccccccccccccccccccccccccccccccccccccccccccccccccccccccccccccccccccccccccccccccccccccccccccccccccccccccccccc" />
    <path
       inkscape:connector-curvature="0"
       style="opacity:0.15;fill:#0c0c0c;fill-opacity:1;fill-rule:evenodd;stroke:none"
       id="path2422"
       d="M 96.277552,0.5703444 C 95.811013,0.29515286 95.450022,0.36673336 95.211536,0.51985136 L 63.44755,20.787512 57.601454,24.528236 57.421463,24.603926 50.50002,40.23229 67.653229,40.75 67.795614,40.65451 73.679302,36.933611 105.43537,16.491154 c 0.95397,-0.612474 -0.55475,-4.671769 -3.38439,-9.1217456 -2.12225,-3.3374642 -4.373821,-5.9734912 -5.773443,-6.79906 l 0,0 z" />
    <path
       inkscape:connector-curvature="0"
       style="fill:url(#linearGradient3176);fill-opacity:1;stroke:#0c0c0c;stroke-width:0.49999997;stroke-linecap:butt;stroke-linejoin:round;stroke-miterlimit:4;stroke-opacity:1;stroke-dasharray:none;stroke-dashoffset:0"
       id="rect2383"
       d="m 59.229439,20.139127 c 1.200755,-0.902877 4.56988,0.790765 7.665961,3.877729 3.088677,3.079574 4.71614,6.374878 3.835501,7.58986 -0.0032,0.0046 0.07577,0.06757 0.07232,0.07212 L 113.9143,-11.731945 c 1.09455,-1.102164 -0.6061,-4.585142 -3.80047,-7.770101 -3.19436,-3.18496 -6.67878,-4.871779 -7.77334,-3.769609 L 59.229439,20.139127 Z" />
    <path
       inkscape:connector-curvature="0"
       style="opacity:0.8;fill:#ffb6ed;fill-opacity:1;stroke:#e28ccd;stroke-width:0.49999997;stroke-linecap:butt;stroke-linejoin:round;stroke-miterlimit:4;stroke-opacity:1;stroke-dasharray:none;stroke-dashoffset:0"
       id="rect3175"
       d="m 97.079126,-17.9737 c 1.200753,-0.902874 4.569884,0.79077 7.665954,3.877728 3.08868,3.079576 4.80208,6.4373796 3.92144,7.6523592 -0.003,0.00466 -0.0101,0.00505 -0.0135,0.00963 l 5.26138,-5.2979552 c 0,0 0.15033,-0.159551 0.15653,-0.191279 0.74064,-1.348435 -0.87994,-4.498564 -3.96486,-7.590523 -3.088,-3.095043 -6.4574,-4.768887 -7.65815,-3.866009 l -0.10739,0.10811 z"
       sodipodi:nodetypes="csccccsccc" />
    <path
       inkscape:connector-curvature="0"
       style="opacity:0.6;fill:#0c0c0c;fill-opacity:1;stroke:none"
       id="path3208"
       d="m 59.229441,20.139119 c 1.200754,-0.902875 4.569881,0.79077 7.665959,3.877729 3.088678,3.079577 4.716142,6.374878 3.835502,7.58986 -0.0032,0.0046 0.07578,0.06757 0.07236,0.07213 L 100.49244,1.7832472 100.59983,1.6751175 c 0.003,-0.00466 -0.0757,-0.067513 -0.0723,-0.072128 0.88062,-1.21498954 -0.746845,-4.5102885 -3.835521,-7.5898662 -3.09608,-3.0869584 -6.465209,-4.7806033 -7.665963,-3.8777244 l -0.107383,0.1081096 -29.689168,29.8955905 -1.4e-5,0 z" />
    <path
       inkscape:connector-curvature="0"
       style="fill:url(#linearGradient3171);fill-opacity:1;stroke:none"
       id="path3233"
       d="m 91.181762,-12.035339 c 1.200752,-0.902879 4.569886,0.790767 7.665963,3.877728 3.088675,3.0795736 4.716135,6.3748745 3.835495,7.58985807 -0.003,0.004654 0.0758,0.0675739 0.0723,0.0721274 l 0.53687,-0.54061697 c 0.003,-0.00465 -0.0757,-0.067513 -0.0724,-0.072127 0.88064,-1.2149816 -0.74682,-4.5102845 -3.835501,-7.5898541 -3.096077,-3.0869634 -6.465207,-4.7806074 -7.665958,-3.8777304 l -0.536877,0.540608 0,4e-6 z" />
    <path
       inkscape:connector-curvature="0"
       style="fill:url(#linearGradient3168);fill-opacity:1;stroke:none"
       id="path3216"
       d="m 90.689748,-11.539908 c 1.200759,-0.902878 4.569888,0.790766 7.665961,3.8777269 3.088681,3.0795756 4.716141,6.3748744 3.835511,7.5898561 -0.003,0.004654 0.0758,0.0675739 0.0723,0.0721273956 l 0.53687,-0.5406124856 c 0.003,-0.004654 -0.0757,-0.0675124 -0.0723,-0.0721274 0.88065,-1.21497761 -0.74681,-4.51028041 -3.835492,-7.58985401 -3.096077,-3.0869585 -6.465206,-4.7806075 -7.665965,-3.8777285 l -0.536873,0.54061 0,2e-6 z" />
    <path
       inkscape:connector-curvature="0"
       style="fill:url(#linearGradient3165);fill-opacity:1;stroke:none"
       id="path3248"
       d="m 92.891499,-13.756962 c 1.200753,-0.902879 4.569881,0.790765 7.665961,3.8777278 3.08868,3.0795736 4.71614,6.3748726 3.8355,7.5898562 -0.003,0.00466 0.0758,0.067554 0.0723,0.072126 l 0.53686,-0.5406083 c 0.003,-0.00466 -0.0757,-0.067513 -0.0723,-0.072128 0.88063,-1.2149795 -0.74683,-4.5102846 -3.83551,-7.5898557 -3.096074,-3.086961 -6.465197,-4.780608 -7.665959,-3.877729 l -0.536872,0.540608 0,0 z" />
    <path
       inkscape:connector-curvature="0"
       style="fill:url(#linearGradient3162);fill-opacity:1;stroke:none"
       id="path3250"
       d="m 92.399486,-13.261531 c 1.200759,-0.902878 4.569886,0.790766 7.665964,3.8777267 3.08868,3.0795756 4.71614,6.3748746 3.8355,7.5898561 -0.003,0.00465 0.0758,0.067574 0.0724,0.072127 l 0.53688,-0.5406103 c 0.003,-0.00466 -0.0757,-0.067513 -0.0724,-0.072127 0.88065,-1.2149816 -0.74682,-4.5102866 -3.83549,-7.5898561 -3.096081,-3.0869614 -6.465211,-4.7806094 -7.665971,-3.8777294 l -0.536873,0.54061 z" />
    <path
       inkscape:connector-curvature="0"
       style="fill:url(#linearGradient3159);fill-opacity:1;stroke:none"
       id="path3256"
       d="m 94.6095,-15.486907 c 1.200752,-0.902877 4.569879,0.790767 7.66596,3.877728 3.08867,3.0795736 4.71614,6.3748746 3.8355,7.5898562 -0.003,0.00466 0.0758,0.067574 0.0724,0.072128 l 0.53686,-0.5406104 c 0.003,-0.00466 -0.0757,-0.067513 -0.0724,-0.072127 0.88064,-1.2149795 -0.74683,-4.5102846 -3.83551,-7.5898578 -3.096063,-3.086959 -6.465192,-4.780608 -7.665949,-3.877726 l -0.536873,0.540608 2e-6,0 z" />
    <path
       inkscape:connector-curvature="0"
       style="fill:url(#linearGradient3156);fill-opacity:1;stroke:none"
       id="path3258"
       d="m 94.11749,-14.991476 c 1.200748,-0.902878 4.569881,0.790766 7.66596,3.877731 3.08867,3.0795715 4.71614,6.3748745 3.83549,7.5898521 -0.003,0.00466 0.0758,0.067573 0.0724,0.072128 l 0.53688,-0.5406044 c 0.003,-0.00466 -0.0757,-0.067512 -0.0724,-0.072127 0.88064,-1.2149856 -0.74683,-4.5102865 -3.83549,-7.5898577 -3.096086,-3.086964 -6.465216,-4.78061 -7.665969,-3.877729 l -0.536873,0.540606 0,0 z" />
    <path
       inkscape:connector-curvature="0"
       style="fill:url(#linearGradient3151);fill-opacity:1;fill-rule:evenodd;stroke:url(#linearGradient3153);stroke-width:0.49999997;stroke-linecap:butt;stroke-linejoin:miter;stroke-miterlimit:4;stroke-opacity:1;stroke-dasharray:none"
       id="path3270"
       d="m 50.967807,39.787492 19.613284,-8.016048 0.167104,-0.167426 c 0.880641,-1.214991 -0.768046,-4.510548 -3.856723,-7.590132 -3.096079,-3.086958 -6.461224,-4.771243 -7.66198,-3.868364 l -8.261677,19.64197 -1.4e-5,0 z" />
    <path
       inkscape:connector-curvature="0"
       style="fill:#0c0c0c;fill-opacity:1;fill-rule:evenodd;stroke:#0c0c0c;stroke-width:0.49999997;stroke-linecap:butt;stroke-linejoin:miter;stroke-miterlimit:4;stroke-opacity:1;stroke-dasharray:none"
       id="path3281"
       d="m 53.205668,34.46763 -2.239065,5.298838 5.349525,-2.197542 c -0.428757,-0.514618 -0.824569,-1.037321 -1.33935,-1.550585 -0.59265,-0.590907 -1.175577,-1.070356 -1.77111,-1.550711 z" />
  </g>
</svg>
