<?xml version="1.0" encoding="UTF-8" standalone="no"?>
<!-- Created with Inkscape (http://www.inkscape.org/) -->

<svg
   xmlns:dc="http://purl.org/dc/elements/1.1/"
   xmlns:cc="http://creativecommons.org/ns#"
   xmlns:rdf="http://www.w3.org/1999/02/22-rdf-syntax-ns#"
   xmlns:svg="http://www.w3.org/2000/svg"
   xmlns="http://www.w3.org/2000/svg"
   xmlns:xlink="http://www.w3.org/1999/xlink"
   xmlns:sodipodi="http://sodipodi.sourceforge.net/DTD/sodipodi-0.dtd"
   xmlns:inkscape="http://www.inkscape.org/namespaces/inkscape"
   version="1.1"
   width="128"
   height="128"
   id="svg4000"
   inkscape:version="0.48+devel r"
   sodipodi:docname="catfish.svg">
  <sodipodi:namedview
     pagecolor="#ffffff"
     bordercolor="#666666"
     borderopacity="1"
     objecttolerance="10"
     gridtolerance="10"
     guidetolerance="10"
     inkscape:pageopacity="0"
     inkscape:pageshadow="2"
     inkscape:window-width="1535"
     inkscape:window-height="876"
     id="namedview60"
     showgrid="true"
     inkscape:zoom="3.6875"
     inkscape:cx="71.717379"
     inkscape:cy="67.893761"
     inkscape:window-x="65"
     inkscape:window-y="24"
     inkscape:window-maximized="1"
     inkscape:current-layer="g3062">
    <inkscape:grid
       type="xygrid"
       id="grid3415" />
  </sodipodi:namedview>
  <defs
     id="defs4002">
    <linearGradient
       id="linearGradient8272">
      <stop
         id="stop8274"
         style="stop-color:#ffffff;stop-opacity:1"
         offset="0" />
      <stop
         id="stop8276"
         style="stop-color:#ffffff;stop-opacity:0.23529412"
         offset="0.0221225" />
      <stop
         id="stop8278"
         style="stop-color:#ffffff;stop-opacity:0.15686275"
         offset="0.97909725" />
      <stop
         id="stop8280"
         style="stop-color:#ffffff;stop-opacity:0.39215687"
         offset="1" />
    </linearGradient>
    <linearGradient
       id="linearGradient6129-963-697-142-998-580-273">
      <stop
         id="stop2661"
         style="stop-color:#0a0a0a;stop-opacity:0.498"
         offset="0" />
      <stop
         id="stop2663"
         style="stop-color:#0a0a0a;stop-opacity:0"
         offset="1" />
    </linearGradient>
    <linearGradient
       id="linearGradient4632-0-6-4">
      <stop
         id="stop4634-4-4-7"
         style="stop-color:#e9e9e9;stop-opacity:1"
         offset="0" />
      <stop
         id="stop4636-3-1-5"
         style="stop-color:#b4b4b4;stop-opacity:1"
         offset="1" />
    </linearGradient>
    <linearGradient
       x1="302.85715"
       y1="366.64789"
       x2="302.85715"
       y2="609.50507"
       id="linearGradient22388"
       xlink:href="#linearGradient5048-585"
       gradientUnits="userSpaceOnUse"
       gradientTransform="matrix(0.2134205,0,0,0.06641689,-13.147881,75.518568)" />
    <linearGradient
       id="linearGradient5048-585">
      <stop
         id="stop2667"
         style="stop-color:#000000;stop-opacity:0"
         offset="0" />
      <stop
         id="stop2669"
         style="stop-color:#000000;stop-opacity:1"
         offset="0.5" />
      <stop
         id="stop2671"
         style="stop-color:#000000;stop-opacity:0"
         offset="1" />
    </linearGradient>
    <radialGradient
       cx="605.71429"
       cy="486.64789"
       r="117.14286"
       fx="605.71429"
       fy="486.64789"
       id="radialGradient22390"
       xlink:href="#linearGradient5060-179"
       gradientUnits="userSpaceOnUse"
       gradientTransform="matrix(0.08277507,0,0,0.06641689,65.628912,75.518568)" />
    <linearGradient
       id="linearGradient5060-179">
      <stop
         id="stop2675"
         style="stop-color:#000000;stop-opacity:1"
         offset="0" />
      <stop
         id="stop2677"
         style="stop-color:#000000;stop-opacity:0"
         offset="1" />
    </linearGradient>
    <radialGradient
       cx="605.71429"
       cy="486.64789"
       r="117.14286"
       fx="605.71429"
       fy="486.64789"
       id="radialGradient22392"
       xlink:href="#linearGradient5060-820"
       gradientUnits="userSpaceOnUse"
       gradientTransform="matrix(-0.08277505,0,0,0.06641689,62.347829,75.518568)" />
    <linearGradient
       id="linearGradient5060-820">
      <stop
         id="stop2681"
         style="stop-color:#000000;stop-opacity:1"
         offset="0" />
      <stop
         id="stop2683"
         style="stop-color:#000000;stop-opacity:0"
         offset="1" />
    </linearGradient>
    <linearGradient
       id="linearGradient9235">
      <stop
         id="stop9237"
         style="stop-color:#ffffff;stop-opacity:1"
         offset="0" />
      <stop
         id="stop9239"
         style="stop-color:#ffffff;stop-opacity:0.23529412"
         offset="0.1088333" />
      <stop
         id="stop9241"
         style="stop-color:#ffffff;stop-opacity:0.15686275"
         offset="0.97909725" />
      <stop
         id="stop9243"
         style="stop-color:#ffffff;stop-opacity:0.39215687"
         offset="1" />
    </linearGradient>
    <linearGradient
       id="linearGradient3104-8-8-97-4-6-11-5-5-1-0">
      <stop
         id="stop3106-5-4-3-5-0-2-1-0-1-2"
         style="stop-color:#000000;stop-opacity:0.32173914"
         offset="0" />
      <stop
         id="stop3108-4-3-7-8-2-0-7-9-4-9"
         style="stop-color:#000000;stop-opacity:0.27826086"
         offset="1" />
    </linearGradient>
    <linearGradient
       id="linearGradient6404-7-5">
      <stop
         id="stop6406-1-8"
         style="stop-color:#f9f9f9;stop-opacity:1"
         offset="0" />
      <stop
         id="stop6408-9-6"
         style="stop-color:#c9c9c9;stop-opacity:1"
         offset="1" />
    </linearGradient>
    <linearGradient
       inkscape:collect="always"
       xlink:href="#linearGradient8272"
       id="linearGradient3041"
       gradientUnits="userSpaceOnUse"
       gradientTransform="matrix(2.6658408,0,0,2.7170994,-143.33284,-5.19882)"
       x1="97.538795"
       y1="16.962049"
       x2="97.538795"
       y2="44.260689" />
    <linearGradient
       inkscape:collect="always"
       xlink:href="#linearGradient6129-963-697-142-998-580-273"
       id="linearGradient3044"
       gradientUnits="userSpaceOnUse"
       gradientTransform="matrix(3.036796,0,0,2.6909701,-8.883113,-1.36461)"
       x1="22.934725"
       y1="49.629246"
       x2="22.934725"
       y2="36.599415" />
    <linearGradient
       inkscape:collect="always"
       xlink:href="#linearGradient4632-0-6-4"
       id="linearGradient3047"
       gradientUnits="userSpaceOnUse"
       gradientTransform="matrix(1,0,0,1.0266674,147,-6.18659)"
       x1="-91"
       y1="43.999817"
       x2="-91"
       y2="119.05979" />
    <linearGradient
       inkscape:collect="always"
       xlink:href="#linearGradient9235"
       id="linearGradient3054"
       gradientUnits="userSpaceOnUse"
       gradientTransform="matrix(2.6658408,0,0,2.6469079,-143.33284,-2.04951)"
       x1="97.538795"
       y1="8.8103228"
       x2="97.538795"
       y2="44.260689" />
    <linearGradient
       inkscape:collect="always"
       xlink:href="#linearGradient3104-8-8-97-4-6-11-5-5-1-0"
       id="linearGradient3057"
       gradientUnits="userSpaceOnUse"
       gradientTransform="matrix(2.1683519,0,0,2.2464645,141.9485,-4.59047)"
       x1="-51.786404"
       y1="53.514328"
       x2="-51.786404"
       y2="3.6336823" />
    <linearGradient
       inkscape:collect="always"
       xlink:href="#linearGradient6404-7-5"
       id="linearGradient3060"
       gradientUnits="userSpaceOnUse"
       gradientTransform="matrix(2.7209303,0,0,2.6722576,-117.22021,-2.21387)"
       x1="62.988873"
       y1="13.481661"
       x2="62.988873"
       y2="15.577045" />
    <linearGradient
       inkscape:collect="always"
       xlink:href="#linearGradient11114-516"
       id="linearGradient3125"
       gradientUnits="userSpaceOnUse"
       gradientTransform="matrix(0.3936567,0,0,0.38976,115.22051,12.760688)"
       x1="-172.65306"
       y1="99.667191"
       x2="-164.71831"
       y2="91.972626" />
    <linearGradient
       id="linearGradient11114-516">
      <stop
         style="stop-color:#242424;stop-opacity:0.99215686;"
         offset="0"
         id="stop3372" />
      <stop
         style="stop-color:#656565;stop-opacity:1;"
         offset="1"
         id="stop3374" />
    </linearGradient>
    <linearGradient
       inkscape:collect="always"
       xlink:href="#linearGradient3277-442"
       id="linearGradient3127"
       gradientUnits="userSpaceOnUse"
       gradientTransform="matrix(1.0113456,0,0,1.0013346,13.694814,18.814328)"
       x1="32.892574"
       y1="27.988184"
       x2="31.364458"
       y2="29.484051" />
    <linearGradient
       id="linearGradient3277-442">
      <stop
         style="stop-color:#575757;stop-opacity:1;"
         offset="0"
         id="stop3378" />
      <stop
         style="stop-color:#333333;stop-opacity:1;"
         offset="1"
         id="stop3380" />
    </linearGradient>
    <linearGradient
       inkscape:collect="always"
       xlink:href="#linearGradient12093-170"
       id="linearGradient3129"
       gradientUnits="userSpaceOnUse"
       gradientTransform="matrix(0.3936567,0,0,0.38976,-36.36636,16.527345)"
       x1="277.573"
       y1="146.1507"
       x2="201.87128"
       y2="67.350082" />
    <linearGradient
       inkscape:collect="always"
       id="linearGradient12093-170">
      <stop
         style="stop-color:#ffffff;stop-opacity:1;"
         offset="0"
         id="stop3384" />
      <stop
         style="stop-color:#ffffff;stop-opacity:0;"
         offset="1"
         id="stop3386" />
    </linearGradient>
    <radialGradient
       inkscape:collect="always"
       xlink:href="#linearGradient4454-600"
       id="radialGradient3131"
       gradientUnits="userSpaceOnUse"
       cx="18.240929"
       cy="21.817987"
       fx="18.240929"
       fy="21.817987"
       r="8.3085051" />
    <linearGradient
       id="linearGradient4454-600">
      <stop
         id="stop3408"
         offset="0"
         style="stop-color:#a1a1a1;stop-opacity:0.20784314;" />
      <stop
         id="stop3410"
         offset="1"
         style="stop-color:#a1a1a1;stop-opacity:0.67843139;" />
    </linearGradient>
    <radialGradient
       inkscape:collect="always"
       xlink:href="#linearGradient4467-402"
       id="radialGradient3133"
       gradientUnits="userSpaceOnUse"
       gradientTransform="matrix(3.0710057,0,0,2.3628614,-19.168198,-4.34546)"
       cx="15.414371"
       cy="13.078408"
       fx="15.414371"
       fy="13.078408"
       r="6.65625" />
    <linearGradient
       id="linearGradient4467-402">
      <stop
         id="stop3390"
         offset="0"
         style="stop-color:#ffffff;stop-opacity:1;" />
      <stop
         id="stop3392"
         offset="1.0000000"
         style="stop-color:#ffffff;stop-opacity:0.24761905;" />
    </linearGradient>
    <linearGradient
       inkscape:collect="always"
       xlink:href="#linearGradient2300-465"
       id="linearGradient3135"
       gradientUnits="userSpaceOnUse"
       gradientTransform="matrix(0.4037708,0,0,0.399774,-37.991277,16.667255)"
       x1="173.09576"
       y1="75.31868"
       x2="173.09576"
       y2="11.949074" />
    <linearGradient
       id="linearGradient2300-465">
      <stop
         style="stop-color:#343434;stop-opacity:0.97647059"
         offset="0"
         id="stop3396" />
      <stop
         style="stop-color:#929292;stop-opacity:1"
         offset="1"
         id="stop3398" />
    </linearGradient>
    <linearGradient
       inkscape:collect="always"
       xlink:href="#linearGradient11104-770"
       id="linearGradient3138"
       gradientUnits="userSpaceOnUse"
       gradientTransform="matrix(0.4037708,0,0,0.399774,14.382306,19.675915)"
       x1="41.541653"
       y1="68.291702"
       x2="41.485142"
       y2="4.5362983" />
    <linearGradient
       id="linearGradient11104-770">
      <stop
         style="stop-color:#333333;stop-opacity:1;"
         offset="0"
         id="stop3402" />
      <stop
         style="stop-color:#333333;stop-opacity:0.6122449;"
         offset="1"
         id="stop3404" />
    </linearGradient>
    <linearGradient
       inkscape:collect="always"
       xlink:href="#linearGradient6209-717"
       id="linearGradient3140"
       gradientUnits="userSpaceOnUse"
       gradientTransform="matrix(0.3845313,0,0,0.3807249,-34.55459,17.258476)"
       x1="173.09576"
       y1="75.31868"
       x2="173.09576"
       y2="11.949074" />
    <linearGradient
       id="linearGradient6209-717">
      <stop
         id="stop3366"
         offset="0"
         style="stop-color:#979797;stop-opacity:1" />
      <stop
         id="stop3368"
         offset="1"
         style="stop-color:#000000;stop-opacity:0.34117648" />
    </linearGradient>
  </defs>
  <metadata
     id="metadata4005">
    <rdf:RDF>
      <cc:Work
         rdf:about="">
        <dc:format>image/svg+xml</dc:format>
        <dc:type
           rdf:resource="http://purl.org/dc/dcmitype/StillImage" />
        <dc:title></dc:title>
      </cc:Work>
    </rdf:RDF>
  </metadata>
  <g
     id="g3062"
     transform="translate(0,-4.0000031)">
    <path
       d="m 12.999997,21.03141 c -1.108,0 -2,0.892 -2,2 l 0,5.96875 -3.0000004,0 c -1.108,0 -2,0.892 -2,2 l 0,11 c 0,1.108 0.892,2 2,2 L 120,44.00016 c 1.108,0 2,-0.892 2,-2 l 0,-11 c 0,-1.108 -0.892,-2 -2,-2 l -63.000005,0 0,-5.96875 c 0,-1.108 -0.892,-2 -2,-2 l -41.999998,0 z"
       id="use13971"
       style="color:#000000;fill:url(#linearGradient3060);fill-opacity:1;fill-rule:nonzero;stroke:none;stroke-width:1.00000012;marker:none;visibility:visible;display:inline;overflow:visible;enable-background:accumulate"
       inkscape:connector-curvature="0" />
    <path
       d="m 13.662787,20.50032 c -1.87818,0.0205 -3.16279,0.9143 -3.16279,2.67225 l 0,5.32743 c -0.9606004,0 -1.4771004,-0.003 -2.1044004,0 -1.67856,0.008 -2.87762,0.94491 -2.87762,2.83298 0.0936,27.49765 -0.018,28.92194 -0.018,31.25655 3.90581,0 117.0000034,-9.88664 117.0000034,-14.1423 l 0,-17.14209 c 0,-1.75796 -1.15786,-2.82564 -3.03605,-2.80514 l -61.963955,0 0,-5.19887 c 0,-1.75795 -1.18743,-2.80081 -2.94827,-2.80081 l -40.888938,0 z"
       id="use13973"
       style="opacity:0.8;color:#000000;fill:none;stroke:url(#linearGradient3057);stroke-width:1;stroke-linecap:butt;stroke-linejoin:miter;stroke-miterlimit:4;stroke-opacity:1;stroke-dasharray:none;stroke-dashoffset:0;marker:none;visibility:visible;display:inline;overflow:visible;enable-background:accumulate"
       inkscape:connector-curvature="0" />
    <path
       d="m 13.499997,21.50016 c -1.108,0 -2,0.892 -2,2 l 0,6 -3.0000004,0 c -1.108,0 -2,0.892 -2,2 l 0,11 c 0,1.108 0.892,2 2,2 l 111.0000034,0 c 1.108,0 2,-0.892 2,-2 l 0,-11 c 0,-1.108 -0.892,-2 -2,-2 l -63.000005,0 0,-6 c 0,-1.108 -0.892,-2 -2,-2 l -40.999998,0 z"
       id="use13975"
       style="color:#000000;fill:none;stroke:url(#linearGradient3054);stroke-width:0.99999982;stroke-linecap:round;stroke-linejoin:round;stroke-miterlimit:4;stroke-opacity:1;stroke-dasharray:none;stroke-dashoffset:0;marker:none;visibility:visible;display:inline;overflow:visible;enable-background:accumulate"
       inkscape:connector-curvature="0" />
    <g
       transform="matrix(1.0027339,0,0,0.9919518,-0.16331336,6.9336)"
       id="use13977">
      <rect
         width="103.05159"
         height="16.129816"
         x="12.462574"
         y="99.870178"
         id="rect22382"
         style="opacity:0.3;fill:url(#linearGradient22388);fill-opacity:1;fill-rule:nonzero;stroke:none;stroke-width:1;marker:none;visibility:visible;display:inline;overflow:visible" />
      <path
         d="m 115.51417,99.870734 c 0,0 0,16.128926 0,16.128926 4.26271,0.0304 10.30516,-3.61367 10.30516,-8.0655 0,-4.45183 -4.75687,-8.063426 -10.30516,-8.063426 z"
         id="path22384"
         style="opacity:0.3;fill:url(#radialGradient22390);fill-opacity:1;fill-rule:nonzero;stroke:none;stroke-width:1;marker:none;visibility:visible;display:inline;overflow:visible"
         inkscape:connector-curvature="0" />
      <path
         d="m 12.462574,99.870734 c 0,0 0,16.128926 0,16.128926 -4.2627113,0.0304 -10.3051588,-3.61367 -10.3051588,-8.0655 0,-4.45183 4.7568636,-8.063426 10.3051588,-8.063426 z"
         id="path22386"
         style="opacity:0.3;fill:url(#radialGradient22392);fill-opacity:1;fill-rule:nonzero;stroke:none;stroke-width:1;marker:none;visibility:visible;display:inline;overflow:visible"
         inkscape:connector-curvature="0" />
    </g>
    <path
       d="m 6.2499966,39.49995 115.4999934,0.001 c 1.66861,0 2.75001,1.18375 2.75001,2.65543 l -2.71648,71.78068 c 0.0386,1.86211 -0.55015,2.60044 -2.48884,2.56139 L 9.3616366,116.45175 c -1.66859,0 -3.35116,-1.09895 -3.35116,-2.57064 l -2.51048,-71.72469 c 0,-1.47169 1.0814,-2.65647 2.75,-2.65647 z"
       id="use13979"
       style="fill:url(#linearGradient3047);fill-opacity:1;fill-rule:nonzero;stroke:none;stroke-width:0.99999982;marker:none;visibility:visible;display:inline;overflow:visible;enable-background:accumulate"
       inkscape:connector-curvature="0" />
    <path
       d="m 5.7727166,38.99994 116.4545434,10e-4 c 1.6824,0 2.77274,1.19912 2.77274,2.68993 l -2.73893,72.7129 c 0.0389,1.88629 -0.5547,2.63421 -2.50941,2.59465 L 8.9100766,116.95102 c -1.68238,0 -3.37885,-1.11323 -3.37885,-2.60404 l -2.53123,-72.65607 c 0,-1.4908 1.09034,-2.69097 2.77272,-2.69097 z"
       id="use13981"
       style="opacity:0.4;fill:url(#linearGradient3044);fill-opacity:1;stroke:none"
       inkscape:connector-curvature="0" />
    <path
       d="m 6.2499966,40.50015 c -2.84882,0.29656 -1.40933,3.76689 -1.63989,5.72017 0.78584,22.54795 1.57466,45.09583 2.35864,67.64381 1.18868,2.48974 4.4300904,1.28205 6.6383204,1.57433 35.235138,0.0205 70.470288,0.0412 105.705433,0.0617 2.566,-0.16531 1.15721,-3.81803 1.65357,-5.65555 0.85465,-22.56949 2.54292,-67.57135 2.54292,-67.57135 0,-1.16209 -0.77992,-1.7731 -2.20738,-1.7731 -37.089315,0 -77.962305,0 -115.0516134,0 z"
       id="use13983"
       style="opacity:0.8;fill:none;stroke:url(#linearGradient3041);stroke-width:0.99999988;stroke-linecap:round;stroke-linejoin:round;stroke-miterlimit:4;stroke-opacity:1;stroke-dasharray:none;stroke-dashoffset:0;marker:none;visibility:visible;display:inline;overflow:visible;enable-background:accumulate"
       inkscape:connector-curvature="0" />
    <path
       d="m 6.2499966,39.49994 115.4999934,10e-4 c 1.66861,0 2.75001,1.18375 2.75001,2.65543 l -2.71648,71.78068 c 0.0386,1.86211 -0.55015,2.60044 -2.48884,2.56139 L 9.3616366,116.45174 c -1.66859,0 -3.35116,-1.09895 -3.35116,-2.57064 l -2.51048,-71.72469 c 0,-1.47169 1.0814,-2.65647 2.75,-2.65647 z"
       id="path3369-7-0"
       style="opacity:0.3;fill:none;stroke:#000000;stroke-width:0.99999982;stroke-linecap:round;stroke-linejoin:round;stroke-miterlimit:4;stroke-opacity:1;stroke-dasharray:none;stroke-dashoffset:0;marker:none;visibility:visible;display:inline;overflow:visible;enable-background:accumulate"
       inkscape:connector-curvature="0" />
  </g>
  <g
     id="g3116"
     transform="matrix(2.000022,0,0,2.000022,7.541911e-4,0.00376275)">
    <path
       style="fill:url(#linearGradient3125);fill-opacity:1;fill-rule:evenodd;stroke:url(#linearGradient3127);stroke-width:1.25790954;stroke-linecap:round;stroke-linejoin:round;stroke-miterlimit:4;stroke-opacity:1;stroke-dasharray:none;display:inline"
       d="m 42.026314,41.771802 17.601461,16.2194 -2.439808,3.278384 -17.537714,-17.545053 2.376061,-1.952731 z"
       id="path11112"
       sodipodi:nodetypes="ccccc"
       inkscape:connector-curvature="0" />
    <path
       style="fill:url(#linearGradient3129);fill-opacity:1;fill-rule:evenodd;stroke:none;display:inline"
       d="M 57.217633,60.204937 43.101613,42.777711 60.180258,57.616736 57.217633,60.204937 Z"
       id="path11122"
       inkscape:connector-curvature="0" />
    <ellipse
       style="fill:#3e3e3e;fill-opacity:1;stroke:none;display:inline"
       id="path13082"
       transform="matrix(0.3701926,-0.4150383,0.4745098,0.3092893,-83.660218,126.5756)"
       cx="243.04239"
       cy="110.29199"
       rx="4.8668494"
       ry="2.6562009"
       d="m 247.90924,110.29199 a 4.8668494,2.6562009 0 0 1 -4.86685,2.6562 4.8668494,2.6562009 0 0 1 -4.86685,-2.6562 4.8668494,2.6562009 0 0 1 4.86685,-2.6562 4.8668494,2.6562009 0 0 1 4.86685,2.6562 z" />
    <circle
       transform="matrix(1.4889549,0,0,1.4383688,6.335917,6.996798)"
       id="path4452"
       style="fill:url(#radialGradient3131);fill-opacity:1;fill-rule:evenodd;stroke:none;stroke-width:0.88163906;marker:none;visibility:visible;display:inline"
       cx="17.589281"
       cy="18.478292"
       r="8.3085051"
       d="m 25.897786,18.478292 a 8.3085051,8.3085051 0 0 1 -8.308505,8.308506 8.3085051,8.3085051 0 0 1 -8.308505,-8.308506 8.3085051,8.3085051 0 0 1 8.308505,-8.308505 8.3085051,8.3085051 0 0 1 8.308505,8.308505 z" />
    <path
       id="path4462"
       d="m 32.01596,23.287509 c -6.167668,0 -11.162072,4.424345 -11.162072,9.888043 0,1.577938 0.138291,3.207765 0.880721,4.531967 1.483271,0.484315 3.418429,0.635856 5.090758,0.635856 7.308643,0 13.594949,-5.367693 14.045982,-11.741974 -2.050088,-2.146129 -5.435593,-3.313892 -8.855389,-3.313892 z"
       style="opacity:0.83422457;fill:url(#radialGradient3133);fill-opacity:1;fill-rule:evenodd;stroke:none;stroke-width:1;marker:none;visibility:visible;display:inline;overflow:visible"
       sodipodi:nodetypes="cscscc"
       inkscape:connector-curvature="0" />
    <path
       style="fill:url(#linearGradient3135);fill-opacity:1;stroke:url(#linearGradient3138);stroke-width:1.29022872;stroke-linecap:round;stroke-linejoin:round;stroke-miterlimit:4;stroke-opacity:1;stroke-dasharray:none;display:inline"
       d="m 32.253602,21.641484 c -7.597567,0 -13.766065,5.631695 -13.766061,12.567895 0,6.9362 6.168494,12.567893 13.766061,12.567894 7.59756,0 13.766059,-5.631694 13.766059,-12.567894 0,-6.9362 -6.168495,-12.567895 -13.766059,-12.567895 z m 0.16403,0.824534 c 6.799869,0 12.327628,5.035699 12.327628,11.243643 0,6.207944 -5.527759,11.243643 -12.327628,11.243643 -6.799871,10e-7 -12.315008,-5.035698 -12.315008,-11.243643 0,-6.207944 5.515137,-11.243643 12.315008,-11.243643 z"
       id="path2298"
       inkscape:connector-curvature="0" />
    <path
       style="fill:url(#linearGradient3140);fill-opacity:1;stroke:none;display:inline"
       d="m 32.341926,22.003779 c -7.235544,0 -13.097315,5.362539 -13.097315,11.968234 0,6.605694 5.861767,11.968234 13.097315,11.968233 7.235544,0 13.109932,-5.36254 13.109932,-11.968233 0,-6.605695 -5.874392,-11.968234 -13.109932,-11.968234 z m 0.07571,0.462239 c 6.799867,0 11.788366,5.035699 11.788366,11.243643 0,6.207944 -4.988499,10.70972 -11.788366,10.70972 -6.799872,10e-7 -11.865624,-4.501775 -11.865624,-10.70972 0,-6.207944 5.065752,-11.243643 11.865624,-11.243643 z"
       id="path4267"
       sodipodi:nodetypes="csssccsssc"
       inkscape:connector-curvature="0" />
  </g>
</svg>
