<?xml version="1.0" encoding="UTF-8" standalone="no"?>
<svg
   height="128"
   width="128"
   id="svg2"
   version="1.1"
   sodipodi:docname="element-desktop.svg"
   inkscape:version="1.2.2 (b0a8486541, 2022-12-01)"
   xmlns:inkscape="http://www.inkscape.org/namespaces/inkscape"
   xmlns:sodipodi="http://sodipodi.sourceforge.net/DTD/sodipodi-0.dtd"
   xmlns:xlink="http://www.w3.org/1999/xlink"
   xmlns="http://www.w3.org/2000/svg"
   xmlns:svg="http://www.w3.org/2000/svg"
   xmlns:rdf="http://www.w3.org/1999/02/22-rdf-syntax-ns#"
   xmlns:cc="http://creativecommons.org/ns#"
   xmlns:dc="http://purl.org/dc/elements/1.1/">
  <sodipodi:namedview
     id="namedview8"
     pagecolor="#ffffff"
     bordercolor="#000000"
     borderopacity="0.25"
     inkscape:showpageshadow="2"
     inkscape:pageopacity="0.0"
     inkscape:pagecheckerboard="0"
     inkscape:deskcolor="#d1d1d1"
     showgrid="false"
     showguides="true"
     inkscape:zoom="2.8284271"
     inkscape:cx="7.9549513"
     inkscape:cy="105.88924"
     inkscape:window-width="1278"
     inkscape:window-height="794"
     inkscape:window-x="417"
     inkscape:window-y="333"
     inkscape:window-maximized="0"
     inkscape:current-layer="svg2" />
  <metadata
     id="metadata14">
    <rdf:RDF>
      <cc:Work
         rdf:about="">
        <dc:format>image/svg+xml</dc:format>
        <dc:type
           rdf:resource="http://purl.org/dc/dcmitype/StillImage" />
      </cc:Work>
    </rdf:RDF>
  </metadata>
  <defs
     id="defs12">
    <linearGradient
       x1="23.99999"
       y1="4.999989"
       x2="23.99999"
       y2="43"
       id="linearGradient3058"
       xlink:href="#linearGradient3924-1"
       gradientUnits="userSpaceOnUse"
       gradientTransform="matrix(2.7297297,0,0,2.7297297,-1.5135356,-1.5134839)" />
    <linearGradient
       id="linearGradient3924-1">
      <stop
         id="stop3926-3"
         style="stop-color:#ffffff;stop-opacity:1"
         offset="0" />
      <stop
         id="stop3928-91"
         style="stop-color:#ffffff;stop-opacity:0.23529412"
         offset="0.06316455" />
      <stop
         id="stop3930-6"
         style="stop-color:#ffffff;stop-opacity:0.15686275"
         offset="0.95056331" />
      <stop
         id="stop3932-6"
         style="stop-color:#ffffff;stop-opacity:0.39215687"
         offset="1" />
    </linearGradient>
    <radialGradient
       cx="4.9929786"
       cy="43.5"
       r="2.5"
       fx="4.9929786"
       fy="43.5"
       id="radialGradient4093"
       xlink:href="#linearGradient3688-166-749-5"
       gradientUnits="userSpaceOnUse"
       gradientTransform="matrix(2.003784,0,0,1.4,27.98813,-17.4)" />
    <linearGradient
       id="linearGradient3688-166-749-5">
      <stop
         id="stop2883-0"
         style="stop-color:#181818;stop-opacity:1"
         offset="0" />
      <stop
         id="stop2885-5"
         style="stop-color:#181818;stop-opacity:0"
         offset="1" />
    </linearGradient>
    <radialGradient
       cx="4.9929786"
       cy="43.5"
       r="2.5"
       fx="4.9929786"
       fy="43.5"
       id="radialGradient4095"
       xlink:href="#linearGradient3688-166-749-5"
       gradientUnits="userSpaceOnUse"
       gradientTransform="matrix(2.003784,0,0,1.4,-20.01187,-104.4)" />
    <linearGradient
       x1="25.058096"
       y1="47.027729"
       x2="25.058096"
       y2="39.999443"
       id="linearGradient4097"
       xlink:href="#linearGradient3702-501-757-0"
       gradientUnits="userSpaceOnUse" />
    <linearGradient
       id="linearGradient3702-501-757-0">
      <stop
         id="stop2895-0"
         style="stop-color:#181818;stop-opacity:0"
         offset="0" />
      <stop
         id="stop2897-2"
         style="stop-color:#181818;stop-opacity:1"
         offset="0.5" />
      <stop
         id="stop2899-6"
         style="stop-color:#181818;stop-opacity:0"
         offset="1" />
    </linearGradient>
    <linearGradient
       inkscape:collect="always"
       xlink:href="#linearGradient2575-6"
       id="linearGradient4706-3"
       gradientUnits="userSpaceOnUse"
       gradientTransform="matrix(2.5121951,0,0,2.5121951,3.7073161,3.707317)"
       x1="8.5073395"
       y1="-1.2307693"
       x2="8.5073395"
       y2="94.47197" />
    <linearGradient
       inkscape:collect="always"
       id="linearGradient2575-6">
      <stop
         style="stop-color:#43d6b5;stop-opacity:1"
         offset="0"
         id="stop2571-7" />
      <stop
         style="stop-color:#0e9a83;stop-opacity:1"
         offset="1"
         id="stop2573-5" />
    </linearGradient>
  </defs>
  <g
     transform="matrix(2.6999989,0,0,0.55555607,-0.8000006,91.88888)"
     id="g2036"
     style="display:inline">
    <g
       transform="matrix(1.052632,0,0,1.285713,-1.263158,-13.42854)"
       id="g3712"
       style="opacity:0.4">
      <rect
         width="5"
         height="7"
         x="38"
         y="40"
         id="rect2801"
         style="fill:url(#radialGradient4093);fill-opacity:1;stroke:none" />
      <rect
         width="5"
         height="7"
         x="-10"
         y="-47"
         transform="scale(-1)"
         id="rect3696"
         style="fill:url(#radialGradient4095);fill-opacity:1;stroke:none" />
      <rect
         width="28"
         height="7.0000005"
         x="10"
         y="40"
         id="rect3700"
         style="fill:url(#linearGradient4097);fill-opacity:1;stroke:none" />
    </g>
  </g>
  <rect
     style="fill:url(#linearGradient4706-3);fill-opacity:1;stroke:none;stroke-width:0.999998;stroke-linecap:round;stroke-opacity:0.5;paint-order:markers fill stroke;stop-color:#000000"
     id="rect4686-3"
     width="103"
     height="103"
     x="12.5"
     y="12.5"
     rx="12"
     ry="12" />
  <path
     id="path301"
     style="color:#000000;clip-rule:evenodd;fill:#007367;fill-opacity:0.05;fill-rule:evenodd;stroke-width:0.999999;-inkscape-stroke:none"
     d="m 58.134755,26.000001 c -5.670746,0 -10.422849,4.729319 -10.422849,10.410153 0,1.065158 0.160884,2.098916 0.46973,3.072267 -13.392824,4.220678 -23.181638,16.770247 -23.181638,31.497057 0,5.681005 4.752305,10.410155 10.422849,10.410155 1.03546,0 2.045215,-0.151988 2.996093,-0.444342 4.261481,13.328574 16.804151,23.054689 31.509764,23.054689 5.670492,0 10.422847,-4.729468 10.422847,-10.410149 0,-1.075057 -0.167978,-2.116383 -0.482418,-3.097655 C 93.234372,86.254904 103,73.727541 103,59.020495 103,53.339647 98.247868,48.610344 92.577147,48.610344 c -1.013087,0 -2.000038,0.151302 -2.93262,0.431639 C 85.379566,35.719364 72.836339,26 58.134766,26 Z m 9.800781,25.695305 c 1.517468,2.033293 2.424803,4.558212 2.424803,7.325189 0,4.454251 2.923796,8.312175 6.918948,9.775393 -2.03705,1.516404 -4.567184,2.412107 -7.350583,2.412107 -4.497951,0 -8.409931,2.979977 -9.838868,7.045895 -1.494265,-2.024504 -2.386716,-4.530426 -2.386716,-7.274413 0,-4.468475 -2.942586,-8.335528 -6.957036,-9.788084 2.033248,-1.506259 4.551833,-2.399412 7.3252,-2.399412 4.517833,0 8.451062,-3.003452 9.864252,-7.096675 z" />
  <path
     fill-rule="evenodd"
     clip-rule="evenodd"
     d="M 53.76149,35.092889 C 53.76149,32.832437 55.597731,31 57.862879,31 c 15.35257,0 27.798608,12.419884 27.798608,27.740584 0,2.260445 -1.836808,4.092887 -4.101457,4.092887 -2.265209,0 -4.101459,-1.832442 -4.101459,-4.092887 0,-10.799802 -8.773545,-19.554808 -19.59569,-19.554808 -2.265145,0 -4.101388,-1.832446 -4.101391,-4.092887 z"
     fill="#ffffff"
     id="path4690"
     style="fill:#007367;fill-opacity:0.5;stroke-width:1" />
  <path
     fill-rule="evenodd"
     clip-rule="evenodd"
     d="m 53.761482,34.092914 c 0,-2.260449 1.836254,-4.092886 4.101397,-4.092886 15.352575,0 27.798611,12.419883 27.798611,27.740576 0,2.260453 -1.836816,4.092892 -4.101466,4.092892 -2.26521,0 -4.101451,-1.832439 -4.101451,-4.092892 0,-10.799795 -8.773544,-19.554805 -19.595695,-19.554805 -2.265143,0 -4.101396,-1.83244 -4.101396,-4.092885 z"
     fill="#ffffff"
     id="path4692"
     style="fill:#ffffff;fill-opacity:1;stroke-width:1" />
  <path
     fill-rule="evenodd"
     clip-rule="evenodd"
     d="m 93.898555,54.647639 c 2.265199,0 4.101445,1.832446 4.101445,4.092887 0,15.320865 -12.445474,27.740587 -27.797932,27.740587 -2.265202,0 -4.101442,-1.832327 -4.101442,-4.09305 0,-2.260174 1.83624,-4.092495 4.101442,-4.092495 10.822046,0 19.595035,-8.75507 19.595035,-19.555042 0,-2.260445 1.836242,-4.092887 4.101452,-4.092887 z"
     fill="#ffffff"
     id="path4694"
     style="fill:#007367;fill-opacity:0.5;stroke-width:1" />
  <path
     fill-rule="evenodd"
     clip-rule="evenodd"
     d="m 93.898555,53.647671 c 2.265199,0 4.101445,1.832435 4.101445,4.09288 0,15.320863 -12.445474,27.740582 -27.797937,27.740582 -2.265203,0 -4.101443,-1.832324 -4.101443,-4.093052 0,-2.260165 1.83624,-4.092491 4.101443,-4.092491 10.822051,0 19.595027,-8.755068 19.595027,-19.555038 0,-2.260445 1.836254,-4.09288 4.101465,-4.092881 z"
     fill="#ffffff"
     id="path4696"
     style="fill:#ffffff;fill-opacity:1;stroke-width:1" />
  <path
     fill-rule="evenodd"
     clip-rule="evenodd"
     d="m 74.302975,94.906912 c 0,2.260714 -1.836257,4.093044 -4.101471,4.093044 -15.352332,0 -27.798083,-12.419728 -27.798083,-27.740812 0,-2.260167 1.836303,-4.092491 4.101456,-4.092491 2.265087,0 4.101384,1.832324 4.101384,4.092491 0,10.800192 8.773165,19.555265 19.595253,19.555265 2.265204,0 4.101461,1.832325 4.101461,4.092503 z"
     fill="#ffffff"
     id="path4698"
     style="fill:#007367;fill-opacity:0.5;stroke-width:1" />
  <path
     fill-rule="evenodd"
     clip-rule="evenodd"
     d="m 74.302975,93.906932 c 0,2.260711 -1.836252,4.093039 -4.101466,4.093039 -15.352338,0 -27.798089,-12.419713 -27.798089,-27.740808 0,-2.260158 1.836302,-4.092483 4.101459,-4.092483 2.265087,0 4.101385,1.832325 4.101385,4.092483 0,10.800199 8.773165,19.555268 19.595245,19.555268 2.265214,0 4.101466,1.832326 4.101466,4.092501 z"
     fill="#ffffff"
     id="path4700"
     style="fill:#ffffff;fill-opacity:1;stroke-width:1" />
  <path
     fill-rule="evenodd"
     clip-rule="evenodd"
     d="M 34.101397,75.352201 C 31.836249,75.352201 30,73.519865 30,71.259703 30,55.938781 42.445699,43.518844 57.798323,43.518844 c 2.265146,0 4.101392,1.832493 4.101392,4.092941 0,2.260441 -1.836246,4.092887 -4.101392,4.092887 -10.822323,0 -19.595475,8.754944 -19.595475,19.555031 0,2.260162 -1.836301,4.092498 -4.101451,4.092498 z"
     fill="#ffffff"
     id="path4702"
     style="fill:#007367;fill-opacity:0.5;stroke-width:1" />
  <path
     fill-rule="evenodd"
     clip-rule="evenodd"
     d="M 34.101399,74.352219 C 31.836249,74.352219 30,72.519891 30,70.259734 30,54.938814 42.445704,42.518863 57.798322,42.518863 c 2.265146,0 4.101389,1.832496 4.101389,4.092945 0,2.260444 -1.836243,4.092886 -4.101389,4.092886 -10.822318,0 -19.595474,8.754942 -19.595474,19.55504 0,2.260157 -1.836301,4.092485 -4.101449,4.092485 z"
     fill="#ffffff"
     id="path4704"
     style="fill:#ffffff;fill-opacity:1;stroke-width:1" />
  <rect
     width="101"
     height="101"
     rx="11"
     ry="11"
     x="13.5"
     y="13.5"
     id="rect6741"
     style="opacity:0.5;fill:none;stroke:url(#linearGradient3058);stroke-width:1;stroke-linecap:round;stroke-linejoin:round;stroke-miterlimit:4;stroke-dasharray:none;stroke-dashoffset:0;stroke-opacity:1" />
  <rect
     style="opacity:1;fill:none;fill-opacity:1;stroke:#007367;stroke-width:0.999996;stroke-linecap:round;stroke-opacity:0.5;paint-order:markers fill stroke;stop-color:#000000"
     id="rect4688"
     width="103"
     height="103"
     x="12.5"
     y="12.5"
     rx="12"
     ry="12" />
</svg>
