<?xml version="1.0" encoding="UTF-8" standalone="no"?>
<svg
   version="1.0"
   width="128"
   height="128"
   id="svg3331"
   sodipodi:docname="libreoffice-math.svg"
   inkscape:version="1.1.2 (0a00cf5339, 2022-02-04)"
   xmlns:inkscape="http://www.inkscape.org/namespaces/inkscape"
   xmlns:sodipodi="http://sodipodi.sourceforge.net/DTD/sodipodi-0.dtd"
   xmlns:xlink="http://www.w3.org/1999/xlink"
   xmlns="http://www.w3.org/2000/svg"
   xmlns:svg="http://www.w3.org/2000/svg"
   xmlns:rdf="http://www.w3.org/1999/02/22-rdf-syntax-ns#"
   xmlns:cc="http://creativecommons.org/ns#"
   xmlns:dc="http://purl.org/dc/elements/1.1/">
  <sodipodi:namedview
     id="namedview53"
     pagecolor="#ffffff"
     bordercolor="#666666"
     borderopacity="1.0"
     inkscape:pageshadow="2"
     inkscape:pageopacity="0.0"
     inkscape:pagecheckerboard="0"
     showgrid="false"
     inkscape:zoom="3.7675533"
     inkscape:cx="47.643652"
     inkscape:cy="80.290835"
     inkscape:window-width="1317"
     inkscape:window-height="890"
     inkscape:window-x="601"
     inkscape:window-y="47"
     inkscape:window-maximized="0"
     inkscape:current-layer="svg3331" />
  <metadata
     id="metadata143580">
    <rdf:RDF>
      <cc:Work
         rdf:about="">
        <dc:format>image/svg+xml</dc:format>
        <dc:type
           rdf:resource="http://purl.org/dc/dcmitype/StillImage" />
      </cc:Work>
    </rdf:RDF>
  </metadata>
  <defs
     id="defs3333">
    <linearGradient
       id="linearGradient3702-501-757">
      <stop
         id="stop2895"
         style="stop-color:#181818;stop-opacity:0"
         offset="0" />
      <stop
         id="stop2897"
         style="stop-color:#181818;stop-opacity:1"
         offset="0.5" />
      <stop
         id="stop2899"
         style="stop-color:#181818;stop-opacity:0"
         offset="1" />
    </linearGradient>
    <linearGradient
       id="linearGradient3688-464-309">
      <stop
         id="stop2889"
         style="stop-color:#181818;stop-opacity:1"
         offset="0" />
      <stop
         id="stop2891"
         style="stop-color:#181818;stop-opacity:0"
         offset="1" />
    </linearGradient>
    <linearGradient
       id="linearGradient3308-4-6-931-761">
      <stop
         id="stop2919"
         style="stop-color:#ffffff;stop-opacity:1"
         offset="0" />
      <stop
         id="stop2921"
         style="stop-color:#ffffff;stop-opacity:0"
         offset="1" />
    </linearGradient>
    <linearGradient
       xlink:href="#linearGradient3308-4-6-931-761"
       id="linearGradient3039"
       gradientUnits="userSpaceOnUse"
       gradientTransform="matrix(2.729731,0,0,2.7297285,-1.513514,1.4865182)"
       x1="23.99999"
       y1="4.999989"
       x2="23.99999"
       y2="43" />
    <linearGradient
       inkscape:collect="always"
       id="linearGradient36984">
      <stop
         style="stop-color:#485a6c;stop-opacity:1"
         offset="0"
         id="stop36980" />
      <stop
         style="stop-color:#667885;stop-opacity:1"
         offset="1"
         id="stop36982" />
    </linearGradient>
    <linearGradient
       inkscape:collect="always"
       xlink:href="#linearGradient36984"
       id="linearGradient1136"
       x1="16.476357"
       y1="63.728039"
       x2="16.476357"
       y2="6.6716003"
       gradientUnits="userSpaceOnUse"
       gradientTransform="matrix(1.8727273,0,0,1.8727273,4.0727275,7.0727249)" />
    <linearGradient
       inkscape:collect="always"
       id="linearGradient22029">
      <stop
         style="stop-color:#dedede;stop-opacity:1"
         offset="0"
         id="stop22025" />
      <stop
         style="stop-color:#fafafa;stop-opacity:1"
         offset="1"
         id="stop22027" />
    </linearGradient>
    <linearGradient
       inkscape:collect="always"
       xlink:href="#linearGradient22029"
       id="linearGradient1850"
       x1="19.924658"
       y1="60.550831"
       x2="19.924658"
       y2="11.291978"
       gradientUnits="userSpaceOnUse"
       gradientTransform="matrix(1.9999964,0,0,2.008692,7.0000024e-6,2.4608829)" />
    <radialGradient
       xlink:href="#linearGradient3688-464-309"
       id="radialGradient4093"
       gradientUnits="userSpaceOnUse"
       gradientTransform="matrix(2.003784,0,0,1.4,27.98813,-17.4)"
       cx="4.9929786"
       cy="43.5"
       fx="4.9929786"
       fy="43.5"
       r="2.5" />
    <radialGradient
       xlink:href="#linearGradient3688-464-309"
       id="radialGradient4095"
       gradientUnits="userSpaceOnUse"
       gradientTransform="matrix(2.003784,0,0,1.4,-20.01187,-104.4)"
       cx="4.9929786"
       cy="43.5"
       fx="4.9929786"
       fy="43.5"
       r="2.5" />
    <linearGradient
       xlink:href="#linearGradient3702-501-757"
       id="linearGradient4097"
       gradientUnits="userSpaceOnUse"
       x1="25.058096"
       y1="47.027729"
       x2="25.058096"
       y2="39.999443" />
  </defs>
  <g
     transform="matrix(2.6999989,0,0,0.55555607,-0.800001,94.88888)"
     id="g2036"
     style="display:inline">
    <g
       transform="matrix(1.052632,0,0,1.285713,-1.263158,-13.42854)"
       id="g3712"
       style="opacity:0.4">
      <rect
         width="5"
         height="7"
         x="38"
         y="40"
         id="rect2801"
         style="fill:url(#radialGradient4093);fill-opacity:1;stroke:none" />
      <rect
         width="5"
         height="7"
         x="-10"
         y="-47"
         transform="scale(-1)"
         id="rect3696"
         style="fill:url(#radialGradient4095);fill-opacity:1;stroke:none" />
      <rect
         width="28"
         height="7.0000005"
         x="10"
         y="40"
         id="rect3700"
         style="fill:url(#linearGradient4097);fill-opacity:1;stroke:none" />
    </g>
  </g>
  <rect
     style="color:#000000;display:inline;overflow:visible;visibility:visible;fill:url(#linearGradient1136);fill-opacity:1;fill-rule:nonzero;stroke:#0e141f;stroke-width:0.999995;stroke-linecap:round;stroke-linejoin:round;stroke-miterlimit:4;stroke-dasharray:none;stroke-dashoffset:0;stroke-opacity:0.50196081;marker:none;enable-background:accumulate"
     id="rect5505-21"
     y="15.499997"
     x="12.5"
     ry="5.2820516"
     rx="5.2820516"
     height="103"
     width="103" />
  <rect
     style="opacity:0.4;fill:none;stroke:url(#linearGradient3039);stroke-width:0.999993;stroke-linecap:round;stroke-linejoin:round;stroke-miterlimit:4;stroke-dasharray:none;stroke-dashoffset:0;stroke-opacity:1"
     id="rect6741"
     y="16.499998"
     x="13.5"
     ry="3.8113203"
     rx="3.8113208"
     height="101"
     width="101" />
  <path
     d="M 18.5,21.499997 H 83.999856 L 109.5,46.652106 V 112.5 h -91 z"
     style="opacity:1;fill:url(#linearGradient1850);fill-opacity:1;stroke:#0e141f;stroke-width:0.999999px;stroke-linecap:butt;stroke-linejoin:miter;stroke-opacity:0.50196081;paint-order:normal"
     id="path3872"
     sodipodi:nodetypes="cccccc" />
  <path
     d="m 37,50 v 1 h -1 v 1 h 1 v 1 h 1.09961 V 52 H 39 v -1 h -0.90039 v -1 z m 26,0 v 1 h -3 v 1 h 3 v 1 h 1.099611 V 52 H 67 v -1 h -2.900389 v -1 z m 26,0 v 1 h -1 v 1 h 1 v 1 h 1.099611 V 52 H 91 v -1 h -0.900389 v -1 z m -49,1 v 1 h 3 v -1 z m 4,0 v 1 h 3 v -1 z m 4,0 v 1 h 3 v -1 z m 4,0 v 1 h 3 v -1 z m 4,0 v 1 h 3 v -1 z m 12,0 v 1 h 3 v -1 z m 4,0 v 1 h 3 v -1 z m 4,0 v 1 h 3 v -1 z m 4,0 v 1 h 3 v -1 z m 4,0 v 1 h 3 v -1 z m -47,3 v 3 h 1.09961 v -3 z m 26,0 v 3 h 1.099611 v -3 z m 26,0 v 3 h 1.099611 v -3 z m -52,4 v 3 h 1.09961 v -3 z m 26,0 v 3 h 1.099611 v -3 z m 26,0 v 3 h 1.099611 v -3 z m -53,4 v 1 h 1 v 2 h 1.09961 V 63 H 39 V 62 H 38.09961 37 Z m 4,0 v 1 h 3 v -1 z m 4,0 v 1 h 3 v -1 z m 4,0 v 1 h 3 v -1 z m 4,0 v 1 h 3 v -1 z m 4,0 v 1 h 3 v -1 z m 4,0 v 1 h 3 v 2 h 1.099611 V 63 H 67 v -1 h -2.900389 -0.0996 -1 -3 z m 8,0 v 1 h 3 v -1 z m 4,0 v 1 h 3 v -1 z m 4,0 v 1 h 3 v -1 z m 4,0 v 1 h 3 v -1 z m 4,0 v 1 h 3 v -1 z m 4,0 v 1 h 1 v 2 h 1.099611 V 63 H 91 V 62 H 90.099611 89 Z m -51,4 v 3 h 1.09961 v -3 z m 26,0 v 3 h 1.099611 v -3 z m 26,0 v 3 h 1.099611 v -3 z m -52,4 v 3 h 1.09961 v -3 z m 26,0 v 3 h 1.099611 v -3 z m 26,0 v 3 h 1.099611 v -3 z m -52,4 v 3 h 1.09961 v -3 z m 26,0 v 3 h 1.099611 v -3 z m 26,0 v 3 h 1.099611 v -3 z m -52,4 v 3 h 1.09961 v -3 z m 26,0 v 3 h 1.099611 v -3 z m 26,0 v 3 h 1.099611 v -3 z m -52,4 v 1 h -1 v 1 h 1 v 1 h 1.09961 V 84 H 39 v -1 h -0.90039 v -1 z m 26,0 v 1 h -3 v 1 h 3 v 1 h 1.099611 V 84 H 67 v -1 h -2.900389 v -1 z m 26,0 v 1 h -1 v 1 h 1 v 1 h 1.099611 V 84 H 91 v -1 h -0.900389 v -1 z m -49,1 v 1 h 3 v -1 z m 4,0 v 1 h 3 v -1 z m 4,0 v 1 h 3 v -1 z m 4,0 v 1 h 3 v -1 z m 4,0 v 1 h 3 v -1 z m 12,0 v 1 h 3 v -1 z m 4,0 v 1 h 3 v -1 z m 4,0 v 1 h 3 v -1 z m 4,0 v 1 h 3 v -1 z m 4,0 v 1 h 3 v -1 z"
     fill="#f09e6f"
     id="path23"
     sodipodi:nodetypes="ccccccccccccccccccccccccccccccccccccccccccccccccccccccccccccccccccccccccccccccccccccccccccccccccccccccccccccccccccccccccccccccccccccccccccccccccccccccccccccccccccccccccccccccccccccccccccccccccccccccccccccccccccccccccccccccccccccccccccccccccccccccccccccccccccccccccccccccccccccccccccccccccccccccccccccccccccccccccccccccccccccccccccccccccccccccccccccccccc"
     style="fill:#f37329;fill-opacity:1" />
  <path
     d="m 71.89648,89.900391 c -0.71051,0 -1.18523,0.105306 -1.42773,0.316406 -0.23971,0.2083 -0.361429,0.627312 -0.361328,1.257812 v 1.027344 c -1.01e-4,0.428 -0.0754,0.724017 -0.226561,0.886717 -0.151201,0.1629 -0.726803,-0.144677 -0.83008,0.24414 h -0.265619 v 0.61133 h 0.265619 c 0.399501,0 0.67497,0.0825 0.826171,0.248046 0.1542,0.1655 0.230369,0.46373 0.23047,0.89453 v 1.02344 c -1.01e-4,0.6306 0.121618,1.0506 0.361328,1.26172 0.242501,0.21119 0.71722,0.3164 1.42773,0.3164 h 0.275401 v -0.61523 h -0.30079 c -0.399511,0 -0.660601,-0.0609 -0.7832,-0.1836 -0.119799,-0.1227 -0.179689,-0.38887 -0.179689,-0.79687 v -1.06055 c 0,-0.4451 -0.063,-0.77005 -0.191401,-0.972646 -0.1284,-0.20261 -0.35127,-0.34293 -0.66797,-0.41993 0.313901,-0.0713 0.533711,-0.20755 0.662111,-0.41015 0.1309,-0.2026 0.19726,-0.52857 0.19726,-0.976566 v -1.060546 c 0,-0.4052 0.0598,-0.668316 0.179689,-0.791016 0.122601,-0.1254 0.383701,-0.189353 0.7832,-0.189453 h 0.30079 v -0.611328 z m 6.966801,0 v 0.611328 h 0.29102 c 0.40241,1e-4 0.66441,0.06385 0.787111,0.189453 0.122999,0.1255 0.183588,0.388615 0.183588,0.791016 v 1.060546 c 0,0.447996 0.065,0.773966 0.193361,0.976566 0.131201,0.2026 0.354069,0.33915 0.66797,0.41015 -0.3167,0.077 -0.53957,0.21732 -0.66797,0.41993 C 80.18976,94.561966 80.125,94.886926 80.125,95.332026 v 1.06055 c 0,0.4023 -0.0609,0.66551 -0.183588,0.79101 -0.122701,0.1253 -0.384701,0.18946 -0.787111,0.18946 h -0.29102 v 0.61523 h 0.265631 c 0.710409,0 1.184119,-0.1052 1.42382,-0.3164 0.23971,-0.21111 0.35938,-0.63112 0.35938,-1.26172 v -1.02344 c 0,-0.4308 0.0772,-0.72903 0.22851,-0.89453 0.153999,-0.165196 0.727881,-0.6361 0.83399,-0.248046 h 0.273439 v -0.61133 h -0.273439 c -0.4023,0 -0.67998,-0.0815 -0.83399,-0.24414 -0.150891,-0.1627 -0.22851,-0.458717 -0.22851,-0.886717 v -1.027344 c 0,-0.6305 -0.11967,-1.049512 -0.35938,-1.257812 -0.2397,-0.2111 -1.241438,-1.003006 -1.42382,-0.316406 z m -14.76758,0.878906 v 1.361328 h -1.28125 v 0.613281 h 1.28125 v 2.60156 c 0,0.5792 0.120771,0.98781 0.363281,1.22461 0.242599,0.2368 0.65939,0.35547 1.25,0.35547 h 0.9629 v -0.63086 h -0.88672 c -0.33381,0 -0.56708,-0.0692 -0.70118,-0.20899 -0.134101,-0.1399 -0.201171,-0.38643 -0.201171,-0.74023 v -2.60156 h 1.789071 v -0.613281 h -1.789071 v -1.361328 z m -15.27734,1.119141 c -0.57641,0 -1.01898,0.125853 -1.33008,0.376953 -0.311011,0.2482 -0.4668,0.601144 -0.4668,1.060549 0,0.3624 0.1042,0.65013 0.3125,0.86133 0.208309,0.2082 0.53849,0.356306 0.99219,0.445306 l 0.29492,0.0586 0.0352,0.0117 c 0.699,0.1399 1.04883,0.39066 1.04883,0.75586 0,0.2539 -0.0959,0.4531 -0.28711,0.5957 -0.1912,0.1397 -0.4605,0.20899 -0.80859,0.20899 -0.23972,0 -0.49548,-0.0373 -0.76368,-0.11133 -0.2682,-0.0771 -0.54789,-0.1906 -0.84179,-0.3418 v 0.81446 c 0.3025,0.0998 0.58209,0.1717 0.84179,0.2207 0.2596,0.051 0.50919,0.0781 0.7461,0.0781 0.5992,0 1.06759,-0.13303 1.40429,-0.39843 0.3367,-0.2682 0.50391,-0.6396 0.50391,-1.11328 0,-0.35661 -0.10023,-0.64665 -0.30273,-0.86915 -0.1998,-0.222596 -0.49581,-0.369366 -0.886719,-0.443346 l -0.31641,-0.0606 c -0.52221,-0.0999 -0.84927,-0.203 -0.98047,-0.3086 -0.1309,-0.1056 -0.19726,-0.26451 -0.19726,-0.47851 0,-0.2368 0.0876,-0.413245 0.26171,-0.527345 0.17691,-0.1165 0.44419,-0.175781 0.80079,-0.175781 0.2369,0 0.46895,0.03361 0.69726,0.09961 0.2282,0.0656 0.45429,0.163622 0.67969,0.294922 v -0.769531 -0.002 c -0.2283,-0.0942 -0.46037,-0.164938 -0.69727,-0.210938 -0.23681,-0.049 -0.48343,-0.07227 -0.74023,-0.07227 z m 5.02148,0.01953 c -0.576411,0 -1.03031,0.223875 -1.36132,0.671875 -0.331001,0.447997 -0.4961,1.068127 -0.4961,1.861323 0,0.7789 0.1651,1.39084 0.4961,1.83594 0.33381,0.4422 0.78781,0.66406 1.36132,0.66406 0.2882,0 0.54101,-0.0639 0.75782,-0.18945 0.2198,-0.1283 0.39308,-0.31008 0.521479,-0.54688 v 2.43555 h 0.79297 v -6.617184 h -0.79297 v 0.611328 c -0.1313,-0.2368 -0.305689,-0.416462 -0.52539,-0.539062 -0.21691,-0.1254 -0.468609,-0.1875 -0.753909,-0.1875 z m 6.683599,0.07617 c -0.04128,0.371514 -0.698749,0.09084 -0.972659,0.273437 -0.2711,0.1797 -0.47231,0.439792 -0.60351,0.779305 V 92.109372 H 58.15625 v 4.792964 h 0.791022 v -2.38281 c 0,-0.581996 0.13092,-1.027736 0.390619,-1.335936 0.259611,-0.308195 0.634189,-0.460937 1.125,-0.460937 0.2083,0 0.400219,0.02984 0.574219,0.08984 0.174101,0.06 0.34536,0.153852 0.51367,0.285157 v -0.802735 c -0.1541,-0.1028 -0.31607,-0.179516 -0.48437,-0.228516 -0.1684,-0.049 -0.521544,-0.265092 -0.542969,-0.07227 z m 12.70703,0.02148 1.716801,2.294922 -1.884771,2.499996 h 0.912111 l 1.400389,-1.92188 1.402341,1.92188 h 0.912109 l -1.88281,-2.499996 1.7168,-2.294922 H 76.63672 L 75.375,93.74999 74.103521,92.015618 Z m -19.265629,0.570313 c 0.3795,-10e-7 0.665379,0.156804 0.85938,0.470699 0.1973,0.311 0.294919,0.76915 0.294919,1.376946 0,0.6077 -0.098,1.06892 -0.294919,1.38282 -0.194001,0.311 -0.47988,0.46679 -0.85938,0.46679 -0.3795,0 -0.66722,-0.15579 -0.86132,-0.46679 -0.1907,-0.311 -0.28711,-0.77222 -0.28711,-1.38282 0,-0.610696 0.096,-1.069856 0.28711,-1.380856 0.1941,-0.310989 0.48182,-0.466789 0.86132,-0.466789 z"
     fill="url(#a)"
     id="path25"
     style="fill:#273445;fill-opacity:1"
     sodipodi:nodetypes="sccccsccsccccsccscsssccssccccsccccsscccsscsccscsscsccscsscsccccccscsccscsccccccccsccccscsccccscsccccscscccccccssscsccccccccssccccccscsccccsscccccccccccccscscscscs" />
  <path
     style="fill:#4e6174;fill-opacity:1"
     d="m 63.451179,62.007812 9.669919,10.726562 v 0.136719 l -9.98047,11.136719 h 4.96094 l 7.74219,-8.287109 h 0.15429 l 8.51172,8.287109 h 5.373051 L 78.927739,72.689453 v -0.136719 l 10.23242,-10.544922 h -4.96094 l -8.097649,7.650391 h -0.154301 l -7.121091,-7.650391 z"
     id="path2159" />
  <path
     style="fill:#4e6174;fill-opacity:1"
     d="M 59.980469,51 49.34961,76.035156 43.05274,64.117187 37,66.349609 38.07618,69.984374 40.99219,68.501953 48.48243,84 h 1.77539 L 62.48829,55 h 24.50976 v 2 h 3.001949 v -6 h -30.01757 z"
     id="path25-3" />
</svg>
