<?xml version="1.0" encoding="UTF-8" standalone="no"?>
<svg
   xmlns:dc="http://purl.org/dc/elements/1.1/"
   xmlns:cc="http://creativecommons.org/ns#"
   xmlns:rdf="http://www.w3.org/1999/02/22-rdf-syntax-ns#"
   xmlns:svg="http://www.w3.org/2000/svg"
   xmlns="http://www.w3.org/2000/svg"
   xmlns:xlink="http://www.w3.org/1999/xlink"
   id="svg3726"
   height="128"
   width="128"
   version="1.1">
  <defs
     id="defs3728">
    <linearGradient
       id="linearGradient5747">
      <stop
         offset="0"
         style="stop-color:#000000;stop-opacity:1"
         id="stop5749" />
      <stop
         offset="1"
         style="stop-color:#000000;stop-opacity:0"
         id="stop5751" />
    </linearGradient>
    <radialGradient
       gradientTransform="matrix(1.273594e-7,3.2957553,-5.3809239,0,77.467708,-19.382411)"
       gradientUnits="userSpaceOnUse"
       id="radialGradient3164"
       r="20"
       cy="8.4497995"
       cx="7.4956999">
      <stop
         offset="0"
         style="stop-color:#f8b17e;stop-opacity:1"
         id="stop3244" />
      <stop
         offset="0.26238"
         style="stop-color:#e35d4f;stop-opacity:1"
         id="stop3246" />
      <stop
         offset="0.66093999"
         style="stop-color:#c6262e;stop-opacity:1"
         id="stop3248" />
      <stop
         offset="1"
         style="stop-color:#690b54;stop-opacity:1"
         id="stop3250" />
    </radialGradient>
    <linearGradient
       gradientTransform="matrix(2.641026,0,0,2.641026,0.6153903,-60.384616)"
       gradientUnits="userSpaceOnUse"
       id="linearGradient3173"
       y2="3.8989999"
       x2="24"
       y1="44"
       x1="24">
      <stop
         offset="0"
         style="stop-color:#791235;stop-opacity:1"
         id="stop2492" />
      <stop
         offset="1"
         style="stop-color:#bf1d09;stop-opacity:1"
         id="stop2494" />
    </linearGradient>
    <linearGradient
       gradientTransform="matrix(2.7297298,0,0,2.7297298,-1.5135111,-62.513486)"
       gradientUnits="userSpaceOnUse"
       id="linearGradient3128"
       y2="43"
       x2="24"
       y1="5.3301001"
       x1="24">
      <stop
         offset="0"
         style="stop-color:#ffffff;stop-opacity:1"
         id="stop3926" />
      <stop
         offset="0.02982479"
         style="stop-color:#ffffff;stop-opacity:0.23529412"
         id="stop3952" />
      <stop
         offset="0.9614116"
         style="stop-color:#ffffff;stop-opacity:0.15686275"
         id="stop3954" />
      <stop
         offset="1"
         style="stop-color:#ffffff;stop-opacity:0.39215687"
         id="stop3956" />
    </linearGradient>
    <linearGradient
       id="linearGradient5761">
      <stop
         offset="0"
         style="stop-color:#ffffff;stop-opacity:1"
         id="stop5763" />
      <stop
         offset="1"
         style="stop-color:#ffffff;stop-opacity:0"
         id="stop5765" />
    </linearGradient>
    <linearGradient
       id="linearGradient5648">
      <stop
         offset="0"
         style="stop-color:#000000;stop-opacity:0.78431374"
         id="stop5650" />
      <stop
         offset="0.28472006"
         style="stop-color:#000000;stop-opacity:0"
         id="stop5785" />
      <stop
         offset="0.71527565"
         style="stop-color:#000000;stop-opacity:0"
         id="stop5783" />
      <stop
         offset="1"
         style="stop-color:#000000;stop-opacity:0.54509807"
         id="stop5652" />
    </linearGradient>
    <linearGradient
       gradientUnits="userSpaceOnUse"
       xlink:href="#linearGradient3173"
       id="linearGradient5371"
       y2="448.88541"
       x2="599.3125"
       y1="475.11456"
       x1="599.3125" />
    <linearGradient
       gradientUnits="userSpaceOnUse"
       xlink:href="#linearGradient3173"
       id="linearGradient5373"
       y2="448.88541"
       x2="599.3125"
       y1="475.11456"
       x1="599.3125" />
    <linearGradient
       gradientUnits="userSpaceOnUse"
       xlink:href="#linearGradient3173"
       id="linearGradient5375"
       y2="448.88541"
       x2="599.3125"
       y1="475.11456"
       x1="599.3125" />
    <linearGradient
       gradientUnits="userSpaceOnUse"
       xlink:href="#linearGradient3173"
       id="linearGradient5377"
       y2="448.88541"
       x2="599.3125"
       y1="475.11456"
       x1="599.3125" />
    <linearGradient
       gradientUnits="userSpaceOnUse"
       xlink:href="#linearGradient3173"
       id="linearGradient5379"
       y2="448.88541"
       x2="599.3125"
       y1="475.11456"
       x1="599.3125" />
    <linearGradient
       gradientUnits="userSpaceOnUse"
       xlink:href="#linearGradient3173"
       id="linearGradient5381"
       y2="448.88541"
       x2="599.3125"
       y1="475.11456"
       x1="599.3125" />
    <linearGradient
       gradientTransform="matrix(0.28125,0,0,0.28125,992.89343,-10.87498)"
       gradientUnits="userSpaceOnUse"
       xlink:href="#linearGradient5648"
       id="linearGradient4126"
       y2="412"
       x2="135.51613"
       y1="412"
       x1="102.48387" />
    <linearGradient
       gradientTransform="matrix(0.28125,0,0,0.28125,970.89343,-10.87498)"
       gradientUnits="userSpaceOnUse"
       xlink:href="#linearGradient5648"
       id="linearGradient4129"
       y2="412"
       x2="135.51613"
       y1="412"
       x1="102.48387" />
    <linearGradient
       gradientTransform="matrix(0.28125,0,0,0.28125,948.8934,-10.87498)"
       gradientUnits="userSpaceOnUse"
       xlink:href="#linearGradient5648"
       id="linearGradient4132"
       y2="412"
       x2="135.51613"
       y1="412"
       x1="102.48387" />
    <linearGradient
       gradientTransform="matrix(0.28125,0,0,0.28125,926.89343,-10.87498)"
       gradientUnits="userSpaceOnUse"
       xlink:href="#linearGradient5648"
       id="linearGradient4135"
       y2="412"
       x2="135.51613"
       y1="412"
       x1="102.48387" />
    <linearGradient
       gradientTransform="matrix(0.84615385,0,0,0.84615385,-1530.6699,-762.6142)"
       gradientUnits="userSpaceOnUse"
       xlink:href="#linearGradient5761"
       id="linearGradient4142"
       y2="1025.3622"
       x2="681"
       y1="1025.3622"
       x1="667" />
    <linearGradient
       gradientTransform="matrix(0.84615385,0,0,0.84615385,-1552.6699,-762.6142)"
       gradientUnits="userSpaceOnUse"
       xlink:href="#linearGradient5761"
       id="linearGradient4146"
       y2="1025.3622"
       x2="681"
       y1="1025.3622"
       x1="667" />
    <linearGradient
       gradientTransform="matrix(0.84615385,0,0,0.84615385,-1574.6699,-762.6142)"
       gradientUnits="userSpaceOnUse"
       xlink:href="#linearGradient5761"
       id="linearGradient4150"
       y2="1025.3622"
       x2="681"
       y1="1025.3622"
       x1="667" />
    <linearGradient
       gradientTransform="matrix(0.84615385,0,0,0.84615385,-1596.6699,-762.6142)"
       gradientUnits="userSpaceOnUse"
       xlink:href="#linearGradient5761"
       id="linearGradient4154"
       y2="1025.3622"
       x2="681"
       y1="1025.3622"
       x1="667" />
    <linearGradient
       gradientTransform="matrix(-0.51351353,0,0,2.6216217,117.32433,930.44327)"
       gradientUnits="userSpaceOnUse"
       xlink:href="#linearGradient3128"
       id="linearGradient4157"
       y2="43"
       x2="24"
       y1="5.3301001"
       x1="24" />
    <linearGradient
       gradientTransform="matrix(0.28125,0,0,0.28125,992.89343,-138.87498)"
       gradientUnits="userSpaceOnUse"
       xlink:href="#linearGradient5648"
       id="linearGradient4162"
       y2="412"
       x2="135.51613"
       y1="412"
       x1="102.48387" />
    <linearGradient
       gradientTransform="matrix(0.28125,0,0,0.28125,970.89343,-138.87498)"
       gradientUnits="userSpaceOnUse"
       xlink:href="#linearGradient5648"
       id="linearGradient4165"
       y2="412"
       x2="135.51613"
       y1="412"
       x1="102.48387" />
    <linearGradient
       gradientTransform="matrix(0.28125,0,0,0.28125,948.8934,-138.87498)"
       gradientUnits="userSpaceOnUse"
       xlink:href="#linearGradient5648"
       id="linearGradient4168"
       y2="412"
       x2="135.51613"
       y1="412"
       x1="102.48387" />
    <linearGradient
       gradientTransform="matrix(0.28125,0,0,0.28125,926.89343,-138.87498)"
       gradientUnits="userSpaceOnUse"
       xlink:href="#linearGradient5648"
       id="linearGradient4171"
       y2="412"
       x2="135.51613"
       y1="412"
       x1="102.48387" />
    <linearGradient
       gradientTransform="matrix(0.84615385,0,0,0.84615385,-1530.6699,-890.6142)"
       gradientUnits="userSpaceOnUse"
       xlink:href="#linearGradient5761"
       id="linearGradient4178"
       y2="1025.3622"
       x2="681"
       y1="1025.3622"
       x1="667" />
    <linearGradient
       gradientTransform="matrix(0.84615385,0,0,0.84615385,-1552.6699,-890.6142)"
       gradientUnits="userSpaceOnUse"
       xlink:href="#linearGradient5761"
       id="linearGradient4182"
       y2="1025.3622"
       x2="681"
       y1="1025.3622"
       x1="667" />
    <linearGradient
       gradientTransform="matrix(0.84615385,0,0,0.84615385,-1574.6699,-890.6142)"
       gradientUnits="userSpaceOnUse"
       xlink:href="#linearGradient5761"
       id="linearGradient4186"
       y2="1025.3622"
       x2="681"
       y1="1025.3622"
       x1="667" />
    <linearGradient
       gradientTransform="matrix(0.84615385,0,0,0.84615385,-1596.6699,-890.6142)"
       gradientUnits="userSpaceOnUse"
       xlink:href="#linearGradient5761"
       id="linearGradient4190"
       y2="1025.3622"
       x2="681"
       y1="1025.3622"
       x1="667" />
    <linearGradient
       gradientTransform="matrix(0.51351353,0,0,2.6216217,10.67567,930.44327)"
       gradientUnits="userSpaceOnUse"
       xlink:href="#linearGradient3128"
       id="linearGradient4193"
       y2="43"
       x2="24"
       y1="5.3301001"
       x1="24" />
    <linearGradient
       gradientTransform="matrix(1.5945947,0,0,2.6216217,25.72974,930.44327)"
       gradientUnits="userSpaceOnUse"
       xlink:href="#linearGradient3128"
       id="linearGradient4198"
       y2="43"
       x2="24"
       y1="5.3301001"
       x1="24" />
    <radialGradient
       gradientTransform="matrix(1.431898e-7,5.93236,-5.8873778,0,113.74717,900.87381)"
       gradientUnits="userSpaceOnUse"
       xlink:href="#radialGradient3164"
       id="radialGradient4201"
       r="20"
       cy="8.4497995"
       cx="7.4956999" />
    <linearGradient
       gradientTransform="matrix(1.5641028,0,0,2.5384619,26.46157,932.43907)"
       gradientUnits="userSpaceOnUse"
       xlink:href="#linearGradient3173"
       id="linearGradient4203"
       y2="3.8989999"
       x2="24"
       y1="44"
       x1="24" />
    <linearGradient
       spreadMethod="reflect"
       gradientTransform="matrix(3.0714286,0,0,1.5714285,-9.71428,973.50502)"
       gradientUnits="userSpaceOnUse"
       xlink:href="#linearGradient5747"
       id="linearGradient4206"
       y2="40"
       x2="24.976742"
       y1="43.5"
       x1="24.976742" />
    <radialGradient
       gradientTransform="matrix(6.4121087,0,0,2.1999999,-53.03799,-1137.5622)"
       gradientUnits="userSpaceOnUse"
       xlink:href="#linearGradient5747"
       id="radialGradient4209"
       r="2.5"
       cy="43.5"
       cx="4.993" />
    <radialGradient
       gradientTransform="matrix(6.4121087,0,0,2.1999999,74.96202,946.16216)"
       gradientUnits="userSpaceOnUse"
       xlink:href="#linearGradient5747"
       id="radialGradient4212"
       r="2.5"
       cy="43.5"
       cx="4.993" />
  </defs>
  <metadata
     id="metadata3731">
    <rdf:RDF>
      <cc:Work
         rdf:about="">
        <dc:format>image/svg+xml</dc:format>
        <dc:type
           rdf:resource="http://purl.org/dc/dcmitype/StillImage" />
        <dc:title />
      </cc:Work>
    </rdf:RDF>
  </metadata>
  <g
     id="layer1"
     transform="translate(0,-924.36218)">
    <g
       id="g4982">
      <rect
         style="opacity:0.4;fill:url(#radialGradient4212);fill-opacity:1"
         id="rect2801-1"
         y="1036.3622"
         x="107"
         height="10.999999"
         width="16" />
      <rect
         style="opacity:0.4;fill:url(#radialGradient4209);fill-opacity:1"
         id="rect3696-2"
         transform="scale(-1,-1)"
         y="-1047.3622"
         x="-21"
         height="10.999999"
         width="16" />
      <rect
         style="opacity:0.4;fill:url(#linearGradient4206);fill-opacity:1"
         id="rect3700-3"
         y="1036.3622"
         x="21"
         height="10.999999"
         width="86" />
      <rect
         style="color:#000000;fill:url(#radialGradient4201);fill-opacity:1;fill-rule:nonzero;stroke:url(#linearGradient4203);stroke-width:1;stroke-linecap:round;stroke-linejoin:round;stroke-miterlimit:4;stroke-dasharray:none;stroke-dashoffset:0;enable-background:accumulate"
         id="rect5505-21-3"
         y="943.86218"
         x="33.500061"
         height="99"
         width="61" />
      <rect
         style="opacity:0.5;fill:none;stroke:url(#linearGradient4198);stroke-width:0.99999988;stroke-linecap:round;stroke-linejoin:miter;stroke-miterlimit:4;stroke-dasharray:none;stroke-dashoffset:0"
         id="rect6741-7"
         y="944.86218"
         x="34.5"
         height="97"
         width="59" />
      <path
         style="color:#000000;fill:#000000;fill-opacity:0.78431373;fill-rule:nonzero;stroke:#000000;stroke-width:1;stroke-linecap:round;stroke-linejoin:miter;stroke-miterlimit:4;stroke-opacity:1;stroke-dasharray:none;stroke-dashoffset:0;enable-background:accumulate"
         id="rect4058"
         d="m 14.5,943.86216 c -1.108,0 -2,0.892 -2,2 l 0,95.00004 c 0,1.108 0.892,2 2,2 l 12,0 5,0 2,0 0,-2 0,-5 0,-85.00004 0,-5 0,-2 -2,0 -5,0 -12,0 z m 6,12 5,0 c 1.108,0 2,0.892 2,2 l 0,5 c 0,1.108 -0.892,2 -2,2 l -5,0 c -1.108,0 -2,-0.892 -2,-2 l 0,-5 c 0,-1.108 0.892,-2 2,-2 z m 0,22 5,0 c 1.108,0 2,0.892 2,2 l 0,5 c 0,1.108 -0.892,2 -2,2 l -5,0 c -1.108,0 -2,-0.892 -2,-2 l 0,-5 c 0,-1.108 0.892,-2 2,-2 z m 0,22 5,0 c 1.108,0 2,0.89204 2,2.00004 l 0,5 c 0,1.108 -0.892,2 -2,2 l -5,0 c -1.108,0 -2,-0.892 -2,-2 l 0,-5 c 0,-1.108 0.892,-2.00004 2,-2.00004 z m 0,22.00004 5,0 c 1.108,0 2,0.892 2,2 l 0,5 c 0,1.108 -0.892,2 -2,2 l -5,0 c -1.108,0 -2,-0.892 -2,-2 l 0,-5 c 0,-1.108 0.892,-2 2,-2 z" />
      <rect
         style="fill:none;stroke:#000000;stroke-width:1;stroke-linecap:butt;stroke-linejoin:round;stroke-miterlimit:4;stroke-opacity:1;stroke-dasharray:none;stroke-dashoffset:0"
         id="rect4828"
         y="1021.8622"
         x="18.5"
         ry="2"
         rx="2"
         height="9"
         width="9" />
      <path
         style="opacity:0.3;fill:none;stroke:url(#linearGradient4193);stroke-width:0.99999994;stroke-linecap:round;stroke-linejoin:miter;stroke-miterlimit:4;stroke-dasharray:none;stroke-dashoffset:0"
         id="rect4889"
         d="m 14.5,944.86216 c -0.554,0 -1,0.446 -1,1 l 0,95.00004 c 0,0.554 0.446,1 1,1 l 11,0 6,0 1,0 0,-1 0,-6 0,-83.00004 0,-6 0,-1 -1,0 -6,0 -11,0 z" />
      <rect
         style="opacity:0.12000002;fill:none;stroke:url(#linearGradient4190);stroke-width:0.99999994;stroke-linecap:butt;stroke-linejoin:round;stroke-miterlimit:4;stroke-opacity:1;stroke-dasharray:none;stroke-dashoffset:0"
         id="rect4893"
         transform="matrix(0,-1,-1,0,0,0)"
         y="-28.5"
         x="-1031.8622"
         ry="3"
         rx="3"
         height="11"
         width="11" />
      <rect
         style="fill:none;stroke:#000000;stroke-width:1;stroke-linecap:butt;stroke-linejoin:round;stroke-miterlimit:4;stroke-opacity:1;stroke-dasharray:none;stroke-dashoffset:0"
         id="rect4921"
         y="999.86218"
         x="18.5"
         ry="2"
         rx="2"
         height="9"
         width="9" />
      <rect
         style="opacity:0.12000002;fill:none;stroke:url(#linearGradient4186);stroke-width:0.99999994;stroke-linecap:butt;stroke-linejoin:round;stroke-miterlimit:4;stroke-opacity:1;stroke-dasharray:none;stroke-dashoffset:0"
         id="rect4923"
         transform="matrix(0,-1,-1,0,0,0)"
         y="-28.5"
         x="-1009.8622"
         ry="3"
         rx="3"
         height="11"
         width="11" />
      <rect
         style="fill:none;stroke:#000000;stroke-width:1;stroke-linecap:butt;stroke-linejoin:round;stroke-miterlimit:4;stroke-opacity:1;stroke-dasharray:none;stroke-dashoffset:0"
         id="rect4927"
         y="977.86218"
         x="18.5"
         ry="2"
         rx="2"
         height="9"
         width="9" />
      <rect
         style="opacity:0.12000002;fill:none;stroke:url(#linearGradient4182);stroke-width:0.99999994;stroke-linecap:butt;stroke-linejoin:round;stroke-miterlimit:4;stroke-opacity:1;stroke-dasharray:none;stroke-dashoffset:0"
         id="rect4929"
         transform="matrix(0,-1,-1,0,0,0)"
         y="-28.5"
         x="-987.86218"
         ry="3"
         rx="3"
         height="11"
         width="11" />
      <rect
         style="fill:none;stroke:#000000;stroke-width:1;stroke-linecap:butt;stroke-linejoin:round;stroke-miterlimit:4;stroke-opacity:1;stroke-dasharray:none;stroke-dashoffset:0"
         id="rect4933"
         y="955.86218"
         x="18.5"
         ry="2"
         rx="2"
         height="9"
         width="9" />
      <rect
         style="opacity:0.12000002;fill:none;stroke:url(#linearGradient4178);stroke-width:0.99999994;stroke-linecap:butt;stroke-linejoin:round;stroke-miterlimit:4;stroke-opacity:1;stroke-dasharray:none;stroke-dashoffset:0"
         id="rect4935"
         transform="matrix(0,-1,-1,0,0,0)"
         y="-28.5"
         x="-965.86218"
         ry="3"
         rx="3"
         height="11"
         width="11" />
      <rect
         style="opacity:0.4;fill:#000000;fill-opacity:1;stroke:none"
         id="rect4959"
         y="1021.3622"
         x="18"
         ry="2.5"
         rx="2.5"
         height="10"
         width="10" />
      <rect
         style="opacity:0.4;fill:#000000;fill-opacity:1;stroke:none"
         id="rect4961"
         y="999.36218"
         x="18"
         ry="2.5"
         rx="2.5"
         height="10"
         width="10" />
      <rect
         style="opacity:0.4;fill:#000000;fill-opacity:1;stroke:none"
         id="rect4963"
         y="977.36218"
         x="18"
         ry="2.5"
         rx="2.5"
         height="10"
         width="10" />
      <rect
         style="opacity:0.4;fill:#000000;fill-opacity:1;stroke:none"
         id="rect4965"
         y="955.36218"
         x="18"
         ry="2.5"
         rx="2.5"
         height="10"
         width="10" />
      <rect
         style="opacity:0.31999996;fill:url(#linearGradient4171);fill-opacity:1;stroke:#000000;stroke-width:1;stroke-opacity:1;display:inline;enable-background:new"
         id="rect5077"
         transform="matrix(0,1,-1,0,0,0)"
         y="-27.5"
         x="955.86218"
         ry="2"
         rx="2"
         height="9"
         width="9" />
      <rect
         style="opacity:0.63999999;fill:url(#linearGradient4168);fill-opacity:1;stroke:#000000;stroke-width:1;stroke-opacity:1;display:inline;enable-background:new"
         id="rect5095"
         transform="matrix(0,1,-1,0,0,0)"
         y="-27.5"
         x="977.86218"
         ry="2"
         rx="2"
         height="9"
         width="9" />
      <rect
         style="opacity:0.31999996;fill:url(#linearGradient4165);fill-opacity:1;stroke:#000000;stroke-width:1;stroke-opacity:1;display:inline;enable-background:new"
         id="rect5099"
         transform="matrix(0,1,-1,0,0,0)"
         y="-27.5"
         x="999.86218"
         ry="2"
         rx="2"
         height="9"
         width="9" />
      <rect
         style="opacity:0.31999996;fill:url(#linearGradient4162);fill-opacity:1;stroke:#000000;stroke-width:1;stroke-opacity:1;display:inline;enable-background:new"
         id="rect5103"
         transform="matrix(0,1,-1,0,0,0)"
         y="-27.5"
         x="1021.8622"
         ry="2"
         rx="2"
         height="9"
         width="9" />
      <path
         style="color:#000000;fill:#000000;fill-opacity:0.78431373;fill-rule:nonzero;stroke:#000000;stroke-width:1;stroke-linecap:round;stroke-linejoin:miter;stroke-miterlimit:4;stroke-opacity:1;stroke-dasharray:none;stroke-dashoffset:0;enable-background:accumulate"
         id="path5165"
         d="m 113.5,943.86216 c 1.108,0 2,0.892 2,2 l 0,95.00004 c 0,1.108 -0.892,2 -2,2 l -12,0 -5,0 -2,0 0,-2 0,-5 0,-85.00004 0,-5 0,-2 2,0 5,0 12,0 z m -6,12 -5,0 c -1.108,0 -2,0.892 -2,2 l 0,5 c 0,1.108 0.892,2 2,2 l 5,0 c 1.108,0 2,-0.892 2,-2 l 0,-5 c 0,-1.108 -0.892,-2 -2,-2 z m 0,22 -5,0 c -1.108,0 -2,0.892 -2,2 l 0,5 c 0,1.108 0.892,2 2,2 l 5,0 c 1.108,0 2,-0.892 2,-2 l 0,-5 c 0,-1.108 -0.892,-2 -2,-2 z m 0,22 -5,0 c -1.108,0 -2,0.89204 -2,2.00004 l 0,5 c 0,1.108 0.892,2 2,2 l 5,0 c 1.108,0 2,-0.892 2,-2 l 0,-5 c 0,-1.108 -0.892,-2.00004 -2,-2.00004 z m 0,22.00004 -5,0 c -1.108,0 -2,0.892 -2,2 l 0,5 c 0,1.108 0.892,2 2,2 l 5,0 c 1.108,0 2,-0.892 2,-2 l 0,-5 c 0,-1.108 -0.892,-2 -2,-2 z" />
      <rect
         style="fill:none;stroke:#000000;stroke-width:1;stroke-linecap:butt;stroke-linejoin:round;stroke-miterlimit:4;stroke-opacity:1;stroke-dasharray:none;stroke-dashoffset:0"
         id="rect5167"
         transform="scale(-1,1)"
         y="1021.8622"
         x="-109.5"
         ry="2"
         rx="2"
         height="9"
         width="9" />
      <path
         style="opacity:0.3;fill:none;stroke:url(#linearGradient4157);stroke-width:0.99999994;stroke-linecap:round;stroke-linejoin:miter;stroke-miterlimit:4;stroke-dasharray:none;stroke-dashoffset:0"
         id="path5169"
         d="m 113.5,944.86216 c 0.554,0 1,0.446 1,1 l 0,95.00004 c 0,0.554 -0.446,1 -1,1 l -11,0 -6,0 -1,0 0,-1 0,-6 0,-83.00004 0,-6 0,-1 1,0 6,0 11,0 z" />
      <rect
         style="opacity:0.12000002;fill:none;stroke:url(#linearGradient4154);stroke-width:0.99999994;stroke-linecap:butt;stroke-linejoin:round;stroke-miterlimit:4;stroke-opacity:1;stroke-dasharray:none;stroke-dashoffset:0"
         id="rect5171"
         transform="matrix(0,-1,1,0,0,0)"
         y="99.5"
         x="-1031.8622"
         ry="3"
         rx="3"
         height="11"
         width="11" />
      <rect
         style="fill:none;stroke:#000000;stroke-width:1;stroke-linecap:butt;stroke-linejoin:round;stroke-miterlimit:4;stroke-opacity:1;stroke-dasharray:none;stroke-dashoffset:0"
         id="rect5173"
         transform="scale(-1,1)"
         y="999.86218"
         x="-109.5"
         ry="2"
         rx="2"
         height="9"
         width="9" />
      <rect
         style="opacity:0.12000002;fill:none;stroke:url(#linearGradient4150);stroke-width:0.99999994;stroke-linecap:butt;stroke-linejoin:round;stroke-miterlimit:4;stroke-opacity:1;stroke-dasharray:none;stroke-dashoffset:0"
         id="rect5175"
         transform="matrix(0,-1,1,0,0,0)"
         y="99.5"
         x="-1009.8622"
         ry="3"
         rx="3"
         height="11"
         width="11" />
      <rect
         style="fill:none;stroke:#000000;stroke-width:1;stroke-linecap:butt;stroke-linejoin:round;stroke-miterlimit:4;stroke-opacity:1;stroke-dasharray:none;stroke-dashoffset:0"
         id="rect5177"
         transform="scale(-1,1)"
         y="977.86218"
         x="-109.5"
         ry="2"
         rx="2"
         height="9"
         width="9" />
      <rect
         style="opacity:0.12000002;fill:none;stroke:url(#linearGradient4146);stroke-width:0.99999994;stroke-linecap:butt;stroke-linejoin:round;stroke-miterlimit:4;stroke-opacity:1;stroke-dasharray:none;stroke-dashoffset:0"
         id="rect5179"
         transform="matrix(0,-1,1,0,0,0)"
         y="99.5"
         x="-987.86218"
         ry="3"
         rx="3"
         height="11"
         width="11" />
      <rect
         style="fill:none;stroke:#000000;stroke-width:1;stroke-linecap:butt;stroke-linejoin:round;stroke-miterlimit:4;stroke-opacity:1;stroke-dasharray:none;stroke-dashoffset:0"
         id="rect5181"
         transform="scale(-1,1)"
         y="955.86218"
         x="-109.5"
         ry="2"
         rx="2"
         height="9"
         width="9" />
      <rect
         style="opacity:0.12000002;fill:none;stroke:url(#linearGradient4142);stroke-width:0.99999994;stroke-linecap:butt;stroke-linejoin:round;stroke-miterlimit:4;stroke-opacity:1;stroke-dasharray:none;stroke-dashoffset:0"
         id="rect5183"
         transform="matrix(0,-1,1,0,0,0)"
         y="99.5"
         x="-965.86218"
         ry="3"
         rx="3"
         height="11"
         width="11" />
      <rect
         style="opacity:0.4;fill:#000000;fill-opacity:1;stroke:none"
         id="rect5185"
         transform="scale(-1,1)"
         y="1021.3622"
         x="-110"
         ry="2.5"
         rx="2.5"
         height="10"
         width="10" />
      <rect
         style="opacity:0.4;fill:#000000;fill-opacity:1;stroke:none"
         id="rect5187"
         transform="scale(-1,1)"
         y="999.36218"
         x="-110"
         ry="2.5"
         rx="2.5"
         height="10"
         width="10" />
      <rect
         style="opacity:0.4;fill:#000000;fill-opacity:1;stroke:none"
         id="rect5189"
         transform="scale(-1,1)"
         y="977.36218"
         x="-110"
         ry="2.5"
         rx="2.5"
         height="10"
         width="10" />
      <rect
         style="opacity:0.4;fill:#000000;fill-opacity:1;stroke:none"
         id="rect5191"
         transform="scale(-1,1)"
         y="955.36218"
         x="-110"
         ry="2.5"
         rx="2.5"
         height="10"
         width="10" />
      <rect
         style="opacity:0.31999996;fill:url(#linearGradient4135);fill-opacity:1;stroke:#000000;stroke-width:1;stroke-opacity:1;display:inline;enable-background:new"
         id="rect5193"
         transform="matrix(0,1,1,0,0,0)"
         y="100.5"
         x="955.86218"
         ry="2"
         rx="2"
         height="9"
         width="9" />
      <rect
         style="opacity:0.31999996;fill:url(#linearGradient4132);fill-opacity:1;stroke:#000000;stroke-width:1;stroke-opacity:1;display:inline;enable-background:new"
         id="rect5195"
         transform="matrix(0,1,1,0,0,0)"
         y="100.5"
         x="977.86218"
         ry="2"
         rx="2"
         height="9"
         width="9" />
      <rect
         style="opacity:0.31999996;fill:url(#linearGradient4129);fill-opacity:1;stroke:#000000;stroke-width:1;stroke-opacity:1;display:inline;enable-background:new"
         id="rect5197"
         transform="matrix(0,1,1,0,0,0)"
         y="100.5"
         x="999.86218"
         ry="2"
         rx="2"
         height="9"
         width="9" />
      <rect
         style="opacity:0.31999996;fill:url(#linearGradient4126);fill-opacity:1;stroke:#000000;stroke-width:1;stroke-opacity:1;display:inline;enable-background:new"
         id="rect5199"
         transform="matrix(0,1,1,0,0,0)"
         y="100.5"
         x="1021.8622"
         ry="2"
         rx="2"
         height="9"
         width="9" />
      <path
         style="opacity:0.06000001;fill:url(#linearGradient5371);fill-opacity:1;fill-rule:evenodd;stroke:url(#linearGradient5373);stroke-width:0.55586964;stroke-linejoin:round;stroke-miterlimit:4;stroke-opacity:1;stroke-dasharray:none"
         id="path5235"
         transform="matrix(2.1221611,0,0,1.5250207,-1230.9851,291.8026)"
         d="m 599.61759,474.78671 0,-25.57342 L 621.76482,462 z" />
      <path
         style="opacity:0.12000002;fill:url(#linearGradient5375);fill-opacity:1;fill-rule:evenodd;stroke:url(#linearGradient5377);stroke-width:0.58114922;stroke-linejoin:round;stroke-miterlimit:4;stroke-opacity:1;stroke-dasharray:none"
         id="path5229"
         transform="matrix(1.9415517,0,0,1.5250207,-1120.6885,290.8026)"
         d="m 599.61759,474.78671 0,-25.57342 L 621.76482,462 z" />
      <path
         style="opacity:0.25;fill:url(#linearGradient5379);fill-opacity:1;fill-rule:evenodd;stroke:url(#linearGradient5381);stroke-width:0.61022443;stroke-linejoin:round;stroke-miterlimit:4;stroke-opacity:1;stroke-dasharray:none"
         id="path5221"
         transform="matrix(1.7609422,0,0,1.5250207,-1010.3919,289.8026)"
         d="m 599.61759,474.78671 0,-25.57342 L 621.76482,462 z" />
      <path
         style="fill:#fafafa;fill-opacity:1;fill-rule:evenodd;stroke:#ffffff;stroke-width:0.64415127;stroke-linejoin:round;stroke-miterlimit:4;stroke-opacity:1;stroke-dasharray:none"
         id="path5219"
         transform="matrix(1.5803327,0,0,1.5250207,-901.09522,288.8026)"
         d="m 599.61759,474.78671 0,-25.57342 L 621.76482,462 z" />
    </g>
  </g>
</svg>
