<?xml version="1.0" encoding="UTF-8" standalone="no"?>
<svg
   id="svg11300"
   width="128"
   height="128"
   style="enable-background:new"
   version="1.0"
   viewBox="0 0 128 128"
   sodipodi:docname="org.gnome.DiskUtility.svg"
   inkscape:version="1.2.2 (b0a8486541, 2022-12-01)"
   xmlns:inkscape="http://www.inkscape.org/namespaces/inkscape"
   xmlns:sodipodi="http://sodipodi.sourceforge.net/DTD/sodipodi-0.dtd"
   xmlns:xlink="http://www.w3.org/1999/xlink"
   xmlns="http://www.w3.org/2000/svg"
   xmlns:svg="http://www.w3.org/2000/svg"
   xmlns:rdf="http://www.w3.org/1999/02/22-rdf-syntax-ns#"
   xmlns:cc="http://creativecommons.org/ns#"
   xmlns:dc="http://purl.org/dc/elements/1.1/">
  <sodipodi:namedview
     id="namedview64"
     pagecolor="#ffffff"
     bordercolor="#000000"
     borderopacity="0.25"
     inkscape:showpageshadow="2"
     inkscape:pageopacity="0.0"
     inkscape:pagecheckerboard="0"
     inkscape:deskcolor="#d1d1d1"
     showgrid="false"
     inkscape:zoom="4.4415145"
     inkscape:cx="31.971077"
     inkscape:cy="104.46887"
     inkscape:window-width="1278"
     inkscape:window-height="1005"
     inkscape:window-x="-338"
     inkscape:window-y="556"
     inkscape:window-maximized="0"
     inkscape:current-layer="svg11300" />
  <title
     id="title4162">Adwaita Icon Template</title>
  <defs
     id="defs3">
    <linearGradient
       id="linearGradient2155"
       x1="301.62"
       x2="318.91"
       y1="113.77"
       y2="59.234"
       gradientTransform="matrix(0.25,0,0,0.25,-1e-5,53)"
       gradientUnits="userSpaceOnUse">
      <stop
         id="stop1190"
         style="stop-color:#5e5c64"
         offset="0" />
      <stop
         id="stop1192"
         style="stop-color:#77767b"
         offset="1" />
    </linearGradient>
    <linearGradient
       id="linearGradient1057"
       x1="249"
       x2="249"
       y1="125"
       y2="-112.15"
       gradientTransform="matrix(0.25,0,0,0.25,-1e-5,53)"
       gradientUnits="userSpaceOnUse">
      <stop
         id="stop1184"
         style="stop-color:#c0bfbc"
         offset="0" />
      <stop
         id="stop1186"
         style="stop-color:#f6f5f4"
         offset="1" />
    </linearGradient>
    <linearGradient
       id="linearGradient1284"
       x1="347"
       x2="323"
       y1="217"
       y2="-172"
       gradientTransform="matrix(0.253125,0,0,0.25240385,-0.80001013,52.932693)"
       gradientUnits="userSpaceOnUse">
      <stop
         id="stop1278"
         style="stop-color:#f6f5f4"
         offset="0" />
      <stop
         id="stop1280"
         style="stop-color:#fff"
         offset="1" />
    </linearGradient>
    <linearGradient
       id="linearGradient1444-3-9"
       x1="177"
       x2="496"
       y1="619.96"
       y2="619.96"
       gradientTransform="matrix(0.25,0,0,0.24306,-20,-80.436)"
       gradientUnits="userSpaceOnUse">
      <stop
         id="stop1366"
         style="stop-color:#424048"
         offset="0" />
      <stop
         id="stop1368"
         style="stop-color:#f6f5f4"
         offset=".047022" />
      <stop
         id="stop1370"
         style="stop-color:#949390"
         offset=".097179" />
      <stop
         id="stop1372"
         style="stop-color:#d5d3cf"
         offset=".89969" />
      <stop
         id="stop1374"
         style="stop-color:#f6f5f4"
         offset=".94984" />
      <stop
         id="stop1376"
         style="stop-color:#424048"
         offset="1" />
    </linearGradient>
    <linearGradient
       id="linearGradient1121"
       x1="176"
       x2="495"
       y1="799.96"
       y2="799.96"
       gradientTransform="matrix(0.25312501,0,0,0.24653229,-21.050001,-82.799371)"
       gradientUnits="userSpaceOnUse">
      <stop
         id="stop1352"
         offset="0" />
      <stop
         id="stop1354"
         style="stop-color:#424048"
         offset=".047022" />
      <stop
         id="stop1356"
         style="stop-color:#241f31"
         offset=".097179" />
      <stop
         id="stop1358"
         style="stop-color:#241f31"
         offset=".89969" />
      <stop
         id="stop1360"
         style="stop-color:#424048"
         offset=".94984" />
      <stop
         id="stop1362"
         offset="1" />
    </linearGradient>
    <radialGradient
       id="radialGradient1131"
       cx="128"
       cy="199.58"
       r="16"
       gradientUnits="userSpaceOnUse">
      <stop
         id="stop979"
         style="stop-opacity:.25098"
         offset="0" />
      <stop
         id="stop981"
         style="stop-opacity:.031373"
         offset="1" />
    </radialGradient>
    <radialGradient
       id="radialGradient1133"
       cx="127.94"
       cy="200.07"
       r="8"
       gradientTransform="matrix(1.3757,0,0,1.3757,-47.997,-75.472)"
       gradientUnits="userSpaceOnUse">
      <stop
         id="stop1231"
         style="stop-color:#949390"
         offset="0" />
      <stop
         id="stop1233"
         style="stop-color:#424048"
         offset="1" />
    </radialGradient>
    <linearGradient
       id="linearGradient9681"
       x1="298.66"
       x2="328.1"
       y1="125.79"
       y2="70.897"
       gradientTransform="matrix(0.25,0,0,0.25,-1e-5,53)"
       gradientUnits="userSpaceOnUse">
      <stop
         id="stop10228"
         style="stop-color:#47454b"
         offset="0" />
      <stop
         id="stop10230"
         style="stop-color:#dfdee0"
         offset="1" />
    </linearGradient>
    <radialGradient
       id="radialGradient10249"
       cx="62.562"
       cy="221.95"
       r="36.044"
       gradientTransform="matrix(0.59826,0.63515,-0.11523,0.10854,50.709,-13.83)"
       gradientUnits="userSpaceOnUse">
      <stop
         id="stop10243"
         style="stop-color:#010101"
         offset="0" />
      <stop
         id="stop10245"
         style="stop-color:#010101;stop-opacity:0"
         offset="1" />
    </radialGradient>
  </defs>
  <metadata
     id="metadata4">
    <rdf:RDF>
      <cc:Work
         rdf:about="">
        <dc:title>Adwaita Icon Template</dc:title>
      </cc:Work>
    </rdf:RDF>
  </metadata>
  <circle
     id="path907"
     cx="32.5"
     cy="0"
     r="0"
     style="opacity:0.05;fill:#ac1d2e;paint-order:normal" />
  <rect
     id="rect1480-3-7-1-2"
     x="23.500002"
     y="49.5"
     width="81"
     height="71"
     rx="8"
     ry="8"
     style="fill:url(#linearGradient1121);stroke-width:1;paint-order:normal;enable-background:new" />
  <path
     id="rect3193"
     style="color:#000000;fill:#0e141f;fill-opacity:0.5;-inkscape-stroke:none"
     d="M 31.599609 49 C 28.298958 49 25.442025 50.856652 24 53.583984 L 24 57.615234 C 24 53.387808 27.381043 50 31.599609 50 L 96.400391 50 C 100.61896 50 104 53.387808 104 57.615234 L 104 53.583984 C 102.55798 50.856652 99.701041 49 96.400391 49 L 31.599609 49 z M 23 104.5 L 23 112.38477 C 23 117.14794 26.843394 121 31.599609 121 L 96.400391 121 C 101.1566 121 105 117.14794 105 112.38477 L 105 104.5 C 105 105.94803 104.63646 107.30965 104 108.50195 L 104 112.38477 C 104 116.61219 100.61896 120 96.400391 120 L 31.599609 120 C 27.381043 120 24 116.61219 24 112.38477 L 24 108.50195 C 23.363537 107.30965 23 105.94803 23 104.5 z " />
  <rect
     id="rect1480-3-7-1"
     x="24"
     y="44"
     width="80"
     height="70"
     rx="8"
     ry="8"
     style="fill:url(#linearGradient1444-3-9);paint-order:normal;enable-background:new" />
  <rect
     id="rect1480-6-7"
     x="23.5"
     y="7.5"
     width="81"
     height="105"
     rx="8"
     ry="8"
     style="fill:url(#linearGradient1284);stroke-width:1;paint-order:normal;enable-background:new" />
  <g
     id="g1036"
     transform="matrix(0.25,0,0,0.25,-1e-5,53)"
     style="enable-background:new">
    <circle
       id="path1137-3"
       cx="128"
       cy="204"
       r="16"
       style="fill:url(#radialGradient1131);paint-order:normal;enable-background:new" />
    <circle
       id="path1137"
       cx="128"
       cy="204"
       r="8"
       style="fill:url(#radialGradient1133);paint-order:normal" />
  </g>
  <path
     id="path905"
     d="m 42,12 c -2.216,0 -4,1.784 -4,4 0,3.3137 -2.6863,6 -6,6 -2.216,0 -4,1.784 -4,4 v 8 c 0,2.216 1.784,4 4,4 3.3137,0 6,2.6863 6,6 -0.003,1.4772 -0.55015,2.9014 -1.5376,4 -5.9222,6.5926 -8.4482,15.138 -8.4624,24 0,19.882 16.118,36 36,36 19.882,0 36,-16.118 36,-36 C 99.9841,63.1372 97.4611,54.592 91.5366,48 90.54951,46.9012 90.0024,45.477 90,44 c 0,-3.3137 2.6863,-6 6,-6 2.216,0 4,-1.784 4,-4 v -8 c 0,-2.216 -1.784,-4 -4,-4 -3.3137,0 -6,-2.6863 -6,-6 0,-2.216 -1.784,-4 -4,-4 z m 22,56 a 6,6 0 0 1 6,6 6,6 0 0 1 -6,6 6,6 0 0 1 -6,-6 6,6 0 0 1 6,-6 z"
     style="fill:#9a9996;paint-order:normal;enable-background:new" />
  <path
     id="path905-2"
     d="m 42,10 c -2.216,0 -4,1.784 -4,4 0,3.3137 -2.6863,6 -6,6 -2.216,0 -4,1.784 -4,4 v 8 c 0,2.216 1.784,4 4,4 3.3137,0 6,2.6863 6,6 -0.003,1.4772 -0.55015,2.9014 -1.5376,4 -5.9222,6.5926 -8.4482,15.138 -8.4624,24 0,19.882 16.118,36 36,36 19.882,0 36,-16.118 36,-36 C 99.9841,61.1372 97.4611,52.592 91.5366,46 90.54951,44.9012 90.0024,43.477 90,42 c 0,-3.3137 2.6863,-6 6,-6 2.216,0 4,-1.784 4,-4 v -8 c 0,-2.216 -1.784,-4 -4,-4 -3.3137,0 -6,-2.6863 -6,-6 0,-2.216 -1.784,-4 -4,-4 z m 22,56 a 6,6 0 0 1 6,6 6,6 0 0 1 -6,6 6,6 0 0 1 -6,-6 6,6 0 0 1 6,-6 z"
     style="fill:url(#linearGradient1057);paint-order:normal;enable-background:new" />
  <use
     id="use1038-7"
     transform="translate(64,-88)"
     width="100%"
     height="100%"
     style="enable-background:new"
     xlink:href="#g1036"
     x="0"
     y="0" />
  <use
     id="use1038-2"
     transform="translate(0,-88)"
     width="100%"
     height="100%"
     style="enable-background:new"
     xlink:href="#g1036"
     x="0"
     y="0" />
  <use
     id="use1038-3"
     transform="translate(0,-60)"
     width="100%"
     height="100%"
     style="enable-background:new"
     xlink:href="#g1036"
     x="0"
     y="0" />
  <use
     id="use1038"
     transform="translate(64)"
     width="100%"
     height="100%"
     style="enable-background:new"
     xlink:href="#g1036"
     x="0"
     y="0" />
  <use
     id="use1038-9"
     transform="translate(64,-60)"
     width="100%"
     height="100%"
     style="enable-background:new"
     xlink:href="#g1036"
     x="0"
     y="0" />
  <rect
     id="rect3005"
     x="23.5"
     y="7.5"
     width="81"
     height="105"
     rx="8"
     ry="8"
     style="fill:none;stroke-width:1;paint-order:normal;enable-background:new;stroke:#95a3ab;stroke-opacity:0.5" />
  <path
     id="path10234"
     d="m 61.398,42.943 c -2.3977,0 -4.683,0.54876 -6.7617,1.2715 a 0.92705,0.92705 0 0 0 -0.34961,1.5312 l 10.646,10.619 c 1.8405,1.8355 1.8406,4.6839 0,6.5195 l -4.0137,4.0039 c -1.8404,1.8353 -4.7065,1.8353 -6.5469,0 l -10.648,-10.619 a 0.92705,0.92705 0 0 0 -1.5293,0.34961 c -0.72494,2.0734 -1.2754,4.3555 -1.2754,6.748 0,11.27 9.1813,20.426 20.479,20.426 2.1853,0 4.258,-0.48367 6.1855,-1.1113 l 28.621,28.605 c 0.23462,0.23462 0.4741,0.44444 0.71289,0.6543 3.996,-0.47904 7.082,-4.0419 7.082,-8.3984 v -10.789 l -23.234,-23.219 c 0.62901,-1.9221 1.1113,-3.9891 1.1113,-6.168 0,-11.27 -9.1814,-20.424 -20.479,-20.424 z"
     style="color:#000000;text-indent:0;text-decoration-line:none;text-transform:none;opacity:0.1;enable-background:accumulate" />
  <path
     id="path9673"
     d="m 61.398,37.95 c -2.55,0 -4.9421,0.58013 -7.0879,1.3262 a 1.9221,1.9221 0 0 0 -0.72656,3.1758 l 10.646,10.619 c 1.4674,1.4633 1.4674,3.6459 0,5.1094 l -4.0137,4.0039 c -1.467,1.4629 -3.6736,1.4629 -5.1406,0 l -10.648,-10.619 a 1.9221,1.9221 0 0 0 -3.1719,0.72657 c -0.74851,2.1408 -1.3301,4.5304 -1.3301,7.0762 0,11.81 9.6391,21.42 21.473,21.42 2.0986,0 4.0527,-0.43747 5.8887,-0.99219 l 28.215,28.195 c 5.2373,5.2373 11.93,4.6845 15.596,1.0254 3.6657,-3.6591 4.2486,-10.328 -0.83204,-15.408 l -28.387,-28.367 c 0.55573,-1.8313 0.99219,-3.7804 0.99219,-5.873 0,-11.81 -9.6393,-21.418 -21.473,-21.418 z"
     style="color:#000000;text-indent:0;text-decoration-line:none;text-transform:none;fill:url(#linearGradient9681);enable-background:accumulate" />
  <path
     id="path10241"
     d="m 61.398,37.85 c -2.5653,0 -4.9686,0.58169 -7.1211,1.3301 a 2.0223,2.0223 0 0 0 -0.76367,3.3418 l 10.646,10.619 c 1.4298,1.4259 1.4299,3.5428 0,4.9688 l -4.0137,4.0039 c -1.4294,1.4255 -3.5706,1.4255 -5,0 l -10.648,-10.619 a 2.0223,2.0223 0 0 0 -3.3359,0.76367 c -0.75088,2.1476 -1.3359,4.5482 -1.3359,7.1094 0,11.864 9.6848,21.52 21.572,21.52 2.0903,0 4.0337,-0.4324 5.8613,-0.98047 l 28.172,28.154 c 5.2673,5.2673 12.036,4.7228 15.738,1.0273 3.702,-3.6955 4.2779,-10.439 -0.83398,-15.551 l -28.346,-28.326 c 0.54872,-1.8224 0.98047,-3.7602 0.98047,-5.8438 0,-11.864 -9.685,-21.518 -21.572,-21.518 z"
     style="color:#000000;text-indent:0;text-decoration-line:none;text-transform:none;opacity:0.58;fill:url(#radialGradient10249);enable-background:accumulate" />
  <path
     id="path2141"
     d="m 61.399,39.87 c -2.2559,0 -4.4425,0.51766 -6.4587,1.2187 l 10.648,10.619 c 2.1882,2.1822 2.1882,5.6514 0,7.8336 l -4.0149,4.0039 c -2.1882,2.1822 -5.667,2.1822 -7.8552,0 l -10.648,-10.619 c -0.70299,2.0106 -1.2219,4.1912 -1.2219,6.441 0,10.768 8.7532,19.497 19.551,19.497 2.2559,0 4.4425,-0.51766 6.4588,-1.2186 l 29.003,28.985 c 9.3224,9.3224 21.008,-2.7004 12.045,-11.663 l -29.177,-29.159 c 0.70298,-2.0106 1.2219,-4.1912 1.2219,-6.441 0,-10.768 -8.7532,-19.497 -19.551,-19.497 z"
     style="color:#000000;text-indent:0;text-decoration-line:none;text-transform:none;fill:url(#linearGradient2155);enable-background:accumulate" />
</svg>
