<?xml version="1.0" encoding="UTF-8" standalone="no"?>
<svg
   version="1.1"
   width="128"
   height="128"
   id="svg2434"
   sodipodi:docname="org.inkscape.Inkscape.svg"
   inkscape:version="1.2.2 (b0a8486541, 2022-12-01)"
   xmlns:inkscape="http://www.inkscape.org/namespaces/inkscape"
   xmlns:sodipodi="http://sodipodi.sourceforge.net/DTD/sodipodi-0.dtd"
   xmlns:xlink="http://www.w3.org/1999/xlink"
   xmlns="http://www.w3.org/2000/svg"
   xmlns:svg="http://www.w3.org/2000/svg"
   xmlns:rdf="http://www.w3.org/1999/02/22-rdf-syntax-ns#"
   xmlns:cc="http://creativecommons.org/ns#"
   xmlns:dc="http://purl.org/dc/elements/1.1/">
  <sodipodi:namedview
     id="namedview13577"
     pagecolor="#ffffff"
     bordercolor="#000000"
     borderopacity="0.25"
     inkscape:showpageshadow="2"
     inkscape:pageopacity="0.0"
     inkscape:pagecheckerboard="0"
     inkscape:deskcolor="#d1d1d1"
     showgrid="false"
     inkscape:zoom="6.28125"
     inkscape:cx="58.507463"
     inkscape:cy="64"
     inkscape:window-width="1278"
     inkscape:window-height="1005"
     inkscape:window-x="345"
     inkscape:window-y="298"
     inkscape:window-maximized="0"
     inkscape:current-layer="g8923" />
  <metadata
     id="metadata112005">
    <rdf:RDF>
      <cc:Work
         rdf:about="">
        <dc:format>image/svg+xml</dc:format>
        <dc:type
           rdf:resource="http://purl.org/dc/dcmitype/StillImage" />
      </cc:Work>
    </rdf:RDF>
  </metadata>
  <defs
     id="defs2436">
    <radialGradient
       cx="26.78167"
       cy="42.343147"
       r="14.407301"
       fx="26.78167"
       fy="42.343147"
       id="radialGradient2417"
       xlink:href="#linearGradient6975"
       gradientUnits="userSpaceOnUse"
       gradientTransform="matrix(1,0,0,0.282209,0,30.39355)" />
    <radialGradient
       cx="26.78167"
       cy="42.343147"
       r="14.407301"
       fx="26.78167"
       fy="42.343147"
       id="radialGradient1687"
       xlink:href="#linearGradient6975"
       gradientUnits="userSpaceOnUse"
       gradientTransform="matrix(1,0,0,0.282209,0,30.39355)" />
    <linearGradient
       id="linearGradient6528">
      <stop
         id="stop6530"
         style="stop-color:#2e3436;stop-opacity:1"
         offset="0" />
      <stop
         id="stop6532"
         style="stop-color:black;stop-opacity:1"
         offset="1" />
    </linearGradient>
    <linearGradient
       x1="24.5"
       y1="23.614397"
       x2="24.722954"
       y2="36.878933"
       id="linearGradient6534"
       xlink:href="#linearGradient6528"
       gradientUnits="userSpaceOnUse"
       gradientTransform="matrix(1.125413,0,0,1.125413,-2.601383,-5.668855)" />
    <linearGradient
       id="linearGradient6543">
      <stop
         id="stop6545"
         style="stop-color:#d3d7cf;stop-opacity:1"
         offset="0" />
      <stop
         id="stop6547"
         style="stop-color:white;stop-opacity:1"
         offset="1" />
    </linearGradient>
    <linearGradient
       x1="23.142857"
       y1="16.714287"
       x2="23.142857"
       y2="12.642857"
       id="linearGradient6549"
       xlink:href="#linearGradient6543"
       gradientUnits="userSpaceOnUse"
       gradientTransform="matrix(1.3404226,0,0,1.3334367,-8.26869,-11.114969)" />
    <linearGradient
       id="linearGradient8942">
      <stop
         id="stop8944"
         style="stop-color:white;stop-opacity:1"
         offset="0" />
      <stop
         id="stop8946"
         style="stop-color:white;stop-opacity:0"
         offset="1" />
    </linearGradient>
    <linearGradient
       x1="23.849895"
       y1="10.528904"
       x2="24.565037"
       y2="35.243187"
       id="linearGradient8948"
       xlink:href="#linearGradient8942"
       gradientUnits="userSpaceOnUse"
       gradientTransform="matrix(1.1736445,0,0,1.1736988,-3.7900141,-6.6549543)" />
    <linearGradient
       id="linearGradient6975">
      <stop
         id="stop6977"
         style="stop-color:black;stop-opacity:1"
         offset="0" />
      <stop
         id="stop6979"
         style="stop-color:black;stop-opacity:0"
         offset="1" />
    </linearGradient>
    <radialGradient
       cx="26.78167"
       cy="42.343147"
       r="14.407301"
       fx="26.78167"
       fy="42.343147"
       id="radialGradient6981"
       xlink:href="#linearGradient6975"
       gradientUnits="userSpaceOnUse"
       gradientTransform="matrix(1,0,0,0.282209,0,30.39355)" />
    <linearGradient
       id="linearGradient2446">
      <stop
         id="stop2448"
         style="stop-color:white;stop-opacity:1"
         offset="0" />
      <stop
         id="stop2450"
         style="stop-color:white;stop-opacity:0"
         offset="1" />
    </linearGradient>
    <linearGradient
       x1="13.236155"
       y1="37.752247"
       x2="7.7521091"
       y2="42.282146"
       id="linearGradient8938"
       xlink:href="#linearGradient2446"
       gradientUnits="userSpaceOnUse"
       gradientTransform="matrix(0.608217,-0.10171,0.04414374,0.689789,16.62085,13.35659)" />
    <linearGradient
       id="linearGradient6963">
      <stop
         id="stop6965"
         style="stop-color:#696969;stop-opacity:1"
         offset="0" />
      <stop
         id="stop6967"
         style="stop-color:black;stop-opacity:1"
         offset="1" />
    </linearGradient>
    <radialGradient
       cx="15.415101"
       cy="35.356506"
       r="7.5791559"
       fx="15.415101"
       fy="35.356506"
       id="radialGradient8936"
       xlink:href="#linearGradient6963"
       gradientUnits="userSpaceOnUse"
       gradientTransform="matrix(0.709807,-0.118699,0.05020504,0.7845,14.35988,10.7997)" />
    <linearGradient
       id="linearGradient6939">
      <stop
         id="stop6941"
         style="stop-color:#bdbdbd;stop-opacity:1"
         offset="0" />
      <stop
         id="stop6947"
         style="stop-color:#e2e2e2;stop-opacity:1"
         offset="0.33333334" />
      <stop
         id="stop6949"
         style="stop-color:#a3a3a3;stop-opacity:1"
         offset="0.66666669" />
      <stop
         id="stop6943"
         style="stop-color:#ddd;stop-opacity:1"
         offset="1" />
    </linearGradient>
    <linearGradient
       x1="19.394735"
       y1="30.001331"
       x2="23.109331"
       y2="33.438831"
       id="linearGradient8934"
       xlink:href="#linearGradient6939"
       gradientUnits="userSpaceOnUse"
       gradientTransform="matrix(0.71362,-0.119336,0.05179406,0.809329,14.74036,9.12562)" />
    <linearGradient
       id="linearGradient6951">
      <stop
         id="stop6953"
         style="stop-color:#6e3d09;stop-opacity:1"
         offset="0" />
      <stop
         id="stop6959"
         style="stop-color:#ea8113;stop-opacity:1"
         offset="0.24242425" />
      <stop
         id="stop6961"
         style="stop-color:#5c3307;stop-opacity:1"
         offset="0.62121212" />
      <stop
         id="stop6955"
         style="stop-color:#e07c12;stop-opacity:1"
         offset="1" />
    </linearGradient>
    <linearGradient
       x1="28.058632"
       y1="18.867767"
       x2="33.436985"
       y2="23.742767"
       id="linearGradient8932"
       xlink:href="#linearGradient6951"
       gradientUnits="userSpaceOnUse"
       gradientTransform="matrix(0.71362,-0.119336,0.05179406,0.809329,14.74036,9.12562)" />
  </defs>
  <g
     id="g3317"
     transform="matrix(2.6666565,0,0,2.7066638,-1.01938e-5,-0.33719248)">
    <path
       d="m 41.188971,42.343147 a 14.407301,4.0658641 0 1 1 -28.814602,0 14.407301,4.0658641 0 1 1 28.814602,0 z"
       transform="matrix(1.318776,0,0,1.475702,-13.31902,-30.48586)"
       id="path2415"
       style="color:#000000;display:inline;overflow:visible;visibility:visible;opacity:0.672043;fill:url(#radialGradient2417);fill-opacity:1;fill-rule:nonzero;stroke:none;stroke-width:1;marker:none" />
    <path
       d="m 41.188971,42.343147 a 14.407301,4.0658641 0 1 1 -28.814602,0 14.407301,4.0658641 0 1 1 28.814602,0 z"
       transform="matrix(1.665822,0,0,1.475702,-20.61349,-35.48588)"
       id="path1685"
       style="color:#000000;display:inline;overflow:visible;visibility:visible;opacity:0.672043;fill:url(#radialGradient1687);fill-opacity:1;fill-rule:nonzero;stroke:none;stroke-width:1;marker:none" />
    <path
       d="M 11.606956,27.837074 C 10.146599,27.942661 2.7376298,25.797421 2.7644254,24.415855 2.7712315,21.670185 19.211692,4.0761002 20.222734,3.522179 c 1.371402,-1.3642066 5.41428,-1.3073646 6.671997,0 1.40106,0.7078583 17.707386,20.338166 17.630555,22.473657 -0.08384,1.841238 -11.081334,5.615101 -12.017803,5.523712 0.0201,1.066718 3.416433,2.856917 3.91885,3.682475 0.133977,1.212818 -9.458829,3.390275 -9.485625,4.844253 l 2.311116,2.279537 c -0.06364,1.926727 -6.07589,3.049589 -8.551129,1.76085 0.257907,-1.227491 0.274655,-1.651117 -0.110531,-2.315902 -0.703383,-1.308059 -5.345712,-0.767226 -5.325616,-1.834127 -0.308149,-0.723298 3.563809,-1.36621 3.657593,-2.893374 C 18.982228,35.713601 7.0486657,32.451314 7.1655949,31.519548 7.0544743,30.689949 11.547551,29.974036 11.606956,27.837074 Z"
       id="path5072"
       style="fill:url(#linearGradient6534);fill-opacity:1;fill-rule:evenodd;stroke:#000000;stroke-width:0.37222px;stroke-linecap:butt;stroke-linejoin:miter;stroke-opacity:1" />
    <rect
       width="20.356747"
       height="22.817247"
       x="7.7115307"
       y="17.324108"
       transform="matrix(0.914302,-0.405034,0.310037,0.950724,0,0)"
       id="rect2363"
       style="fill:none;stroke:none" />
    <path
       d="m 10.140826,14.552961 c 2.273659,-2.594355 8.27728,-9.2559636 10.333024,-11.000124 1.525434,-1.2115077 5.026251,-1.0071892 6.088503,-0.00417 0.675299,0.5159456 1.51211,1.2047029 5.178772,5.5001839 l 0.0046,3.8862161 -4.720157,-2.113113 v 6.667177 l -3.87087,-5.333732 -2.15571,3.501469 -1.865551,-6.1683453 -2.117631,5.0644473 c -2.234177,-1.2e-5 -4.640862,1.9e-5 -6.875038,-7e-6 z"
       id="path5074"
       style="fill:url(#linearGradient6549);fill-opacity:1;fill-rule:evenodd;stroke:none" />
    <path
       d="M 12.038937,27.43547 C 10.044144,27.666779 3.4738332,25.451834 3.1524632,24.373521 3.0702534,22.074454 18.975598,4.8442089 20.511523,3.7517696 22.070119,2.4685853 25.58199,2.7240802 26.509758,3.7252016 28.030847,4.4312261 44.548711,24.372046 44.209523,26.259602 c -2.517874,1.676196 -5.873058,3.373543 -12.325957,5.149146 0.817529,1.694314 2.746444,2.508124 4.059971,3.80262 l -9.872252,4.67636 2.779401,2.593656 -7.865038,1.491565 -0.05494,-2.600316 -5.114856,-1.515444 4.082273,-3.180137 C 20.192995,35.968274 8.6975531,32.433996 7.7671833,31.532887 7.2390568,31.030329 12.166129,30.363414 12.038937,27.43547 Z"
       id="path6536"
       style="opacity:0.4;fill:none;stroke:url(#linearGradient8948);stroke-width:0.37222px;stroke-linecap:butt;stroke-linejoin:miter;stroke-opacity:1" />
    <path
       d="m 41.188971,42.343147 a 14.407301,4.0658641 0 1 1 -28.814602,0 14.407301,4.0658641 0 1 1 28.814602,0 z"
       transform="matrix(1.33837,0,0,1,-6.951893,-3.169211)"
       id="path6973"
       style="color:#000000;display:inline;overflow:visible;visibility:visible;opacity:0.3;fill:url(#radialGradient6981);fill-opacity:1;fill-rule:nonzero;stroke:none;stroke-width:1;marker:none" />
    <g
       transform="translate(4.4829737e-5,0.101015)"
       id="g8923">
      <path
         d="m 32.815491,26.053448 3.098333,2.590809 C 40.677173,22.070645 47.362292,7.1165887 47.362292,7.1165887 47.605366,6.0743564 46.483038,5.6310026 45.984075,6.3896101 c 0,0 -9.039365,13.0428949 -13.168584,19.6638379 z"
         id="path6937"
         style="color:#000000;display:inline;overflow:visible;visibility:visible;fill:url(#linearGradient8932);fill-opacity:1;fill-rule:nonzero;stroke:#3d211b;stroke-width:0.37222;stroke-linecap:round;stroke-linejoin:miter;stroke-miterlimit:4;stroke-dasharray:none;stroke-dashoffset:0;stroke-opacity:0.80000001;marker:none" />
      <path
         d="m 27.920688,35.2377 1.703179,1.29703 5.679038,-6.975843 0.159732,-0.604072 0.780067,-0.145018 c -0.393138,-1.212368 -2.32616,-3.196629 -3.664197,-2.972874 l 0.114989,0.872442 -0.458436,0.387521 z"
         id="path6935"
         style="color:#000000;display:inline;overflow:visible;visibility:visible;fill:url(#linearGradient8934);fill-opacity:1;fill-rule:nonzero;stroke:#0e141f;stroke-width:0.37222;stroke-linecap:round;stroke-linejoin:miter;stroke-miterlimit:4;stroke-dasharray:none;stroke-dashoffset:0;stroke-opacity:0.5;marker:none" />
      <path
         d="m 20.985414,42.86777 c 4.713683,-0.788252 8.331712,-0.74985 8.760057,-4.752472 0.345188,-3.225562 -3.551035,-4.091914 -5.255072,-0.978912 -1.641523,2.998804 -3.504985,5.731384 -3.504985,5.731384 z"
         id="path6933"
         style="color:#000000;display:inline;overflow:visible;visibility:visible;fill:url(#radialGradient8936);fill-opacity:1;fill-rule:nonzero;stroke:none;stroke-width:0.2;marker:none" />
      <path
         d="m 8.8749989,37.75 a 1.2499999,1.2499999 0 1 1 -2.4999997,0 1.2499999,1.2499999 0 1 1 2.4999997,0 z"
         transform="matrix(0.608217,-0.10171,0.04414374,0.689789,20.41956,11.75746)"
         id="path6971"
         style="color:#000000;display:inline;overflow:visible;visibility:visible;opacity:0.527778;fill:#ffffff;fill-opacity:1;fill-rule:nonzero;stroke:none;stroke-width:1;marker:none" />
      <path
         d="m 8.8749989,37.75 a 1.2499999,1.2499999 0 1 1 -2.4999997,0 1.2499999,1.2499999 0 1 1 2.4999997,0 z"
         transform="matrix(0.562239,-0.09402052,0.04080659,0.637644,27.55723,4.593379)"
         id="path6983"
         style="color:#000000;display:inline;overflow:visible;visibility:visible;fill:#ffffff;fill-opacity:1;fill-rule:nonzero;stroke:none;stroke-width:1;marker:none" />
      <path
         d="m 32.506055,29.222896 -3.466373,5.604573"
         id="path6985"
         style="color:#000000;display:inline;overflow:visible;visibility:visible;fill:none;stroke:#ffffff;stroke-width:0.37222;stroke-linecap:round;stroke-linejoin:round;stroke-miterlimit:4;stroke-dasharray:none;stroke-dashoffset:0;stroke-opacity:1;marker:none" />
      <path
         d="m 21.888602,42.180999 c 0,0 2.299247,-1.727487 3.188602,-3.876203 0.314651,-0.760209 1.166888,-0.298884 0.710034,0.482077 -0.986792,1.686854 -3.898636,3.394126 -3.898636,3.394126 z"
         id="path1571"
         style="color:#000000;display:inline;overflow:visible;visibility:visible;opacity:0.427778;fill:url(#linearGradient8938);fill-opacity:1;fill-rule:nonzero;stroke:none;stroke-width:1;marker:none" />
    </g>
    <path
       d="m 23.245645,29.822748 c -2.717353,0.182215 -5.150788,-0.428111 -7.495581,-1.28588 l 0.03863,1.276894 c 1.616714,0.92894 4.311963,1.381546 7.739654,1.510669 l -0.282611,-1.501683 z"
       id="path8968"
       style="fill:#dde0da;fill-opacity:1;fill-rule:evenodd;stroke:none" />
  </g>
</svg>
