<?xml version="1.0" encoding="UTF-8" standalone="no"?>
<svg
   xmlns:dc="http://purl.org/dc/elements/1.1/"
   xmlns:cc="http://creativecommons.org/ns#"
   xmlns:rdf="http://www.w3.org/1999/02/22-rdf-syntax-ns#"
   xmlns:svg="http://www.w3.org/2000/svg"
   xmlns="http://www.w3.org/2000/svg"
   xmlns:xlink="http://www.w3.org/1999/xlink"
   version="1.0"
   width="128"
   height="128"
   id="svg6476">
  <metadata
     id="metadata91957">
    <rdf:RDF>
      <cc:Work
         rdf:about="">
        <dc:format>image/svg+xml</dc:format>
        <dc:type
           rdf:resource="http://purl.org/dc/dcmitype/StillImage" />
        <dc:title />
      </cc:Work>
    </rdf:RDF>
  </metadata>
  <defs
     id="defs6478">
    <linearGradient
       id="linearGradient17123">
      <stop
         id="stop17125"
         style="stop-color:#000000;stop-opacity:1"
         offset="0" />
      <stop
         id="stop17127"
         style="stop-color:#000000;stop-opacity:0"
         offset="1" />
    </linearGradient>
    <linearGradient
       id="linearGradient6700">
      <stop
         id="stop6702"
         style="stop-color:#ffffff;stop-opacity:1"
         offset="0" />
      <stop
         id="stop6704"
         style="stop-color:#ffffff;stop-opacity:0"
         offset="1" />
    </linearGradient>
    <linearGradient
       id="linearGradient6628">
      <stop
         id="stop6630"
         style="stop-color:#000000;stop-opacity:1"
         offset="0" />
      <stop
         id="stop6632"
         style="stop-color:#000000;stop-opacity:0"
         offset="1" />
    </linearGradient>
    <linearGradient
       id="linearGradient3844">
      <stop
         id="stop3846"
         style="stop-color:#e8e8e8;stop-opacity:1"
         offset="0" />
      <stop
         id="stop3848"
         style="stop-color:#a5a6a8;stop-opacity:1"
         offset="1" />
    </linearGradient>
    <linearGradient
       id="linearGradient6589-510-471-936">
      <stop
         id="stop5849"
         style="stop-color:#878a85;stop-opacity:1"
         offset="0" />
      <stop
         id="stop5851"
         style="stop-color:#3e3f3d;stop-opacity:1"
         offset="1" />
    </linearGradient>
    <linearGradient
       id="linearGradient6643">
      <stop
         id="stop6645"
         style="stop-color:#4c4c4c;stop-opacity:1"
         offset="0" />
      <stop
         id="stop6647"
         style="stop-color:#d3d7cf;stop-opacity:1"
         offset="1" />
    </linearGradient>
    <linearGradient
       id="linearGradient4718">
      <stop
         id="stop4720"
         style="stop-color:#767973;stop-opacity:1"
         offset="0" />
      <stop
         id="stop4722"
         style="stop-color:#202120;stop-opacity:1"
         offset="1" />
    </linearGradient>
    <linearGradient
       id="linearGradient6573">
      <stop
         id="stop6575"
         style="stop-color:#ffffff;stop-opacity:1"
         offset="0" />
      <stop
         id="stop6577"
         style="stop-color:#ffffff;stop-opacity:0"
         offset="1" />
    </linearGradient>
    <linearGradient
       id="linearGradient6379">
      <stop
         id="stop6381"
         style="stop-color:#ffffff;stop-opacity:0"
         offset="0" />
      <stop
         id="stop21606"
         style="stop-color:#ffffff;stop-opacity:1"
         offset="0.5" />
      <stop
         id="stop6383"
         style="stop-color:#ffffff;stop-opacity:0"
         offset="1" />
    </linearGradient>
    <linearGradient
       id="linearGradient6651">
      <stop
         id="stop6653"
         style="stop-color:#ffffff;stop-opacity:1"
         offset="0" />
      <stop
         id="stop6655"
         style="stop-color:#ffffff;stop-opacity:0"
         offset="1" />
    </linearGradient>
    <linearGradient
       id="linearGradient5292">
      <stop
         id="stop5294"
         style="stop-color:#4b4b4b;stop-opacity:1"
         offset="0" />
      <stop
         id="stop5296"
         style="stop-color:#babdb6;stop-opacity:1"
         offset="1" />
    </linearGradient>
    <linearGradient
       id="linearGradient6633">
      <stop
         id="stop6635"
         style="stop-color:#eeeeec;stop-opacity:1"
         offset="0" />
      <stop
         id="stop6637"
         style="stop-color:#61635f;stop-opacity:1"
         offset="1" />
    </linearGradient>
    <linearGradient
       id="linearGradient6546-397-668-696-989">
      <stop
         id="stop4870"
         style="stop-color:#383937;stop-opacity:1"
         offset="0" />
      <stop
         id="stop4872"
         style="stop-color:#595b57;stop-opacity:1"
         offset="1" />
    </linearGradient>
    <linearGradient
       id="linearGradient6531">
      <stop
         id="stop6533"
         style="stop-color:#ffffff;stop-opacity:1"
         offset="0" />
      <stop
         id="stop6535"
         style="stop-color:#ffffff;stop-opacity:0"
         offset="1" />
    </linearGradient>
    <linearGradient
       id="linearGradient3858">
      <stop
         id="stop3860"
         style="stop-color:#a0a0a0;stop-opacity:1"
         offset="0" />
      <stop
         id="stop3862"
         style="stop-color:#4a4a4a;stop-opacity:1"
         offset="1" />
    </linearGradient>
    <linearGradient
       id="linearGradient5262">
      <stop
         id="stop5264"
         style="stop-color:#babdb6;stop-opacity:1"
         offset="0" />
      <stop
         id="stop5266"
         style="stop-color:#eeeeec;stop-opacity:1"
         offset="0.43738842" />
      <stop
         id="stop5268"
         style="stop-color:#555753;stop-opacity:1"
         offset="1" />
    </linearGradient>
    <radialGradient
       cx="11.402097"
       cy="36.863068"
       r="10.69499"
       fx="11.402097"
       fy="36.863068"
       id="radialGradient2484"
       xlink:href="#linearGradient17123"
       gradientUnits="userSpaceOnUse"
       gradientTransform="matrix(4.5249731,0,0,2.3591969,9.6523617,12.791343)" />
    <linearGradient
       x1="16.790216"
       y1="21.270329"
       x2="29.694229"
       y2="46.259285"
       id="linearGradient2518"
       xlink:href="#linearGradient6700"
       gradientUnits="userSpaceOnUse"
       gradientTransform="matrix(3.1304256,-0.86165379,0.85424814,3.27498,-26.629643,-5.6233074)" />
    <linearGradient
       x1="23.238182"
       y1="12.158657"
       x2="29.892563"
       y2="26.354361"
       id="linearGradient2522"
       xlink:href="#linearGradient6628"
       gradientUnits="userSpaceOnUse"
       gradientTransform="matrix(2.7145002,-0.70685512,0.80223944,2.9096428,-11.548096,1.0203353)" />
    <radialGradient
       cx="30.685316"
       cy="42.261425"
       r="8.22791"
       fx="30.685316"
       fy="42.261425"
       id="radialGradient2525"
       xlink:href="#linearGradient3844"
       gradientUnits="userSpaceOnUse"
       gradientTransform="matrix(11.556424,-2.7401182,-1.9498214,-7.2881404,-218.26796,418.04881)" />
    <radialGradient
       cx="20.8839"
       cy="20.434256"
       r="3.9999843"
       fx="20.8839"
       fy="20.434256"
       id="radialGradient2528"
       xlink:href="#linearGradient6589-510-471-936"
       gradientUnits="userSpaceOnUse"
       gradientTransform="matrix(3.7245335,-0.99941254,1.1893669,4.4451251,-35.655098,-8.3202118)" />
    <radialGradient
       cx="23.164974"
       cy="30.23279"
       r="8.1890125"
       fx="23.164974"
       fy="30.23279"
       id="radialGradient2531"
       xlink:href="#linearGradient4718"
       gradientUnits="userSpaceOnUse"
       gradientTransform="matrix(6.0964625,-1.3381134,2.312583,10.886575,-139.14164,-218.57572)" />
    <linearGradient
       x1="33.430557"
       y1="45.052155"
       x2="33.430557"
       y2="0.31037101"
       id="linearGradient2533"
       xlink:href="#linearGradient6643"
       gradientUnits="userSpaceOnUse"
       gradientTransform="matrix(3.5235741,-0.96023191,0.90682349,3.4419985,-36.632088,-7.9151983)" />
    <linearGradient
       x1="19.240318"
       y1="4.8111696"
       x2="11.323519"
       y2="35.457581"
       id="linearGradient2536"
       xlink:href="#linearGradient6573"
       gradientUnits="userSpaceOnUse"
       gradientTransform="matrix(2.5697214,-0.68953909,0.66382875,2.4809856,8.7319094,24.664129)" />
    <linearGradient
       x1="20.226221"
       y1="20.33363"
       x2="11.4375"
       y2="21.75"
       id="linearGradient2539"
       xlink:href="#linearGradient6379"
       gradientUnits="userSpaceOnUse"
       gradientTransform="matrix(1.8963146,-0.50884232,0.76217378,2.8485387,2.1179316,7.5793922)" />
    <radialGradient
       cx="23.986883"
       cy="27.053167"
       r="7.75"
       fx="23.986883"
       fy="27.053167"
       id="radialGradient2542"
       xlink:href="#linearGradient6651"
       gradientUnits="userSpaceOnUse"
       gradientTransform="matrix(-0.91528319,0.24560001,-0.98125732,-3.6673381,101.64381,164.35751)" />
    <radialGradient
       cx="9.3203983"
       cy="18.817093"
       r="12.5"
       fx="9.3203983"
       fy="18.817093"
       id="radialGradient2545"
       xlink:href="#linearGradient6633"
       gradientUnits="userSpaceOnUse"
       gradientTransform="matrix(2.4267802,0.94296203,-1.741677,4.0653409,55.909983,-23.783666)" />
    <linearGradient
       x1="7.75"
       y1="33.046577"
       x2="4.6431866"
       y2="12.063652"
       id="linearGradient2547"
       xlink:href="#linearGradient5292"
       gradientUnits="userSpaceOnUse"
       gradientTransform="matrix(2.5926177,-0.69568311,0.66978903,2.5032614,8.2118561,23.743635)" />
    <linearGradient
       x1="80.693359"
       y1="31.561478"
       x2="77.125"
       y2="14"
       id="linearGradient2550"
       xlink:href="#linearGradient6546-397-668-696-989"
       gradientUnits="userSpaceOnUse"
       gradientTransform="matrix(2.962807,-0.79538788,0.79388155,2.9684287,-210.51102,72.333969)" />
    <linearGradient
       x1="9.883214"
       y1="14.05074"
       x2="5.1012387"
       y2="30.00112"
       id="linearGradient2553"
       xlink:href="#linearGradient6531"
       gradientUnits="userSpaceOnUse"
       gradientTransform="matrix(2.8088653,-0.73990243,0.84210697,3.0896265,-1.6660555,13.151444)" />
    <linearGradient
       x1="102.35701"
       y1="-41.092239"
       x2="82.681335"
       y2="-41.092239"
       id="linearGradient2556"
       xlink:href="#linearGradient5262"
       gradientUnits="userSpaceOnUse"
       gradientTransform="matrix(0.34894952,1.3041593,-1.2296253,0.32994805,-55.38177,-42.525667)"
       spreadMethod="reflect" />
    <linearGradient
       x1="84.425995"
       y1="8.2933674"
       x2="102.42599"
       y2="8.2933674"
       id="linearGradient2558"
       xlink:href="#linearGradient3858"
       gradientUnits="userSpaceOnUse"
       gradientTransform="matrix(0.76217374,2.8485387,-2.8444714,0.76326353,-9.9258564,-196.88997)" />
  </defs>
  <g
     id="g4142">
    <path
       style="opacity:0.3;fill:url(#radialGradient2484);fill-opacity:1;stroke:none;display:inline"
       id="path16236"
       d="m 109.64108,99.75847 c 0,13.935 -21.666964,25.23153 -48.394534,25.23153 C 34.518973,124.99 12.852,113.69347 12.852,99.75847 c 0,-13.935023 21.666973,-25.231567 48.394546,-25.231567 26.72757,0 48.394534,11.296544 48.394534,25.231567 z" />
    <path
       style="fill:#2e3436;fill-opacity:1;stroke:#555753;stroke-width:4;stroke-linecap:round;stroke-linejoin:miter;stroke-miterlimit:4;stroke-opacity:1;stroke-dasharray:none;stroke-dashoffset:0"
       id="path5330"
       d="m 37.689382,76.136735 c 2.315155,8.652614 0.371415,16.692136 -4.341457,17.956754 -4.712874,1.26462 -10.410216,-4.724558 -12.725369,-13.377173 -2.315155,-8.652627 -0.371417,-16.692142 4.341457,-17.95676 4.712876,-1.264613 10.410218,4.72455 12.725369,13.377179 z" />
    <path
       style="fill:#babdb6;fill-opacity:1;stroke:none;display:inline"
       id="path6659"
       d="m 22.235776,71.995912 c 0.279961,1.046301 -0.340076,2.121757 -1.384878,2.402114 -1.044795,0.280343 -2.118722,-0.340568 -2.39868,-1.38687 -0.279946,-1.046293 0.340079,-2.121748 1.384883,-2.402104 1.044799,-0.280353 2.118726,0.340561 2.398675,1.38686 z" />
    <path
       style="fill:url(#linearGradient2556);fill-opacity:1;fill-rule:nonzero;stroke:url(#linearGradient2558);stroke-width:0.99999994;stroke-linecap:butt;stroke-linejoin:miter;stroke-miterlimit:4;stroke-opacity:1;stroke-dasharray:none;stroke-dashoffset:0;marker:none;visibility:visible;display:inline;overflow:visible;enable-background:accumulate"
       id="path2766"
       d="m 26.056655,52.738463 c -5.691776,1.527287 -7.40883,13.614126 -3.832731,26.979404 3.5761,13.36529 11.09791,22.973033 16.789685,21.445733 L 49.324818,98.396797 C 55.016597,96.869504 56.733653,84.782651 53.157553,71.417378 49.58145,58.052103 42.059641,48.444344 36.367864,49.971632 l -10.311209,2.766831 z" />
    <path
       style="opacity:0.4;fill:none;stroke:url(#linearGradient2553);stroke-width:1;stroke-linecap:round;stroke-linejoin:miter;stroke-miterlimit:4;stroke-opacity:1;stroke-dasharray:none;stroke-dashoffset:0;display:inline"
       id="path5556"
       d="m 25.830848,53.82807 c -1.498355,0.398533 -3.367232,2.890869 -4.01981,7.567522 -0.652579,4.67665 -0.535466,10.901025 1.332317,17.753769 1.867783,6.852771 5.051682,13.122338 7.995388,16.851683 2.943707,3.729327 6.008658,4.614136 7.486116,4.224966 L 49.86032,97.266352 c 1.477466,-0.389193 3.096557,-2.623384 3.749136,-7.300038 0.65258,-4.676653 0.229448,-11.23911 -1.638341,-18.091867 -1.867782,-6.852757 -4.839026,-12.743999 -7.78273,-16.473329 -2.943711,-3.729332 -5.753843,-4.92538 -7.230348,-4.532659 z" />
    <path
       style="fill:url(#linearGradient2550);fill-opacity:1;stroke:none;display:inline"
       id="path6556"
       d="m 36.729932,50.50199 c -6.046202,1.623152 -8.113552,13.558618 -4.614637,26.641542 3.498927,13.082912 11.245733,22.383697 17.291924,20.760542 l 1.888495,-0.50697 C 57.341915,95.773947 59.409259,83.838488 55.910346,70.755566 52.411425,57.672655 44.664613,48.371864 38.618423,49.995013 l -1.888491,0.506977 z" />
    <path
       style="fill:url(#radialGradient2545);fill-opacity:1;stroke:url(#linearGradient2547);stroke-width:0.99999994;stroke-linecap:round;stroke-linejoin:miter;stroke-miterlimit:4;stroke-opacity:1;stroke-dasharray:none;stroke-dashoffset:0"
       id="path1871"
       d="M 39.799245,74.293483 C 46.832034,100.57772 76.982851,108.58521 93.162284,104.24374 104.36239,101.23841 108.12249,80.396788 102.02207,57.597091 95.921627,34.797396 82.259346,18.630773 71.059237,21.636127 54.879823,25.977587 32.766456,48.009241 39.799245,74.293483 Z" />
    <path
       style="fill:url(#radialGradient2542);fill-opacity:1;stroke:none;display:inline"
       id="path6649"
       d="m 104.36113,57.292096 c 7.15593,26.744467 -0.0965,51.927814 -16.198889,56.248614 -16.10232,4.32074 -34.95686,-13.85726 -42.112787,-40.601706 -7.155927,-26.744475 0.09655,-51.927829 16.198882,-56.248602 16.102326,-4.320774 34.95686,13.857227 42.112794,40.601694 l 0,0 z" />
    <path
       style="opacity:0.7335907;fill:url(#linearGradient2539);fill-opacity:1;fill-rule:evenodd;stroke:none;display:inline"
       id="path6639"
       d="M 51.49638,34.609263 C 40.616688,47.635836 40.889673,53.401223 36.654614,66.533315 43.475161,61.265134 50.459272,57.316142 57.75564,56.000874 Z" />
    <path
       style="opacity:0.4;fill:none;stroke:url(#linearGradient2536);stroke-width:0.99999994;stroke-linecap:round;stroke-linejoin:miter;stroke-miterlimit:4;stroke-opacity:1;stroke-dasharray:none;stroke-dashoffset:0;display:inline"
       id="path6567"
       d="m 71.66857,25.060428 c -7.184424,1.927812 -18.265664,7.472247 -24.505693,16.231608 -6.487313,9.106482 -9.809305,21.227194 -6.235059,32.993083 3.677465,12.105671 13.130018,21.456721 22.912951,25.906051 9.782926,4.44933 21.222068,3.70761 28.406493,1.7798 4.066582,-1.0912 7.348929,-5.810995 8.822778,-13.66866 1.47385,-7.857649 1.01313,-18.409083 -1.927112,-29.397902 C 96.202689,47.915594 91.333504,38.547092 86.133893,32.480141 80.934285,26.413189 75.735153,23.969231 71.66857,25.060428 Z" />
    <path
       style="fill:url(#radialGradient2531);fill-opacity:1;stroke:url(#linearGradient2533);stroke-width:1;stroke-linecap:round;stroke-linejoin:miter;stroke-miterlimit:4;stroke-opacity:1;stroke-dasharray:none;stroke-dashoffset:0"
       id="path1873"
       d="m 104.98024,56.55799 c 8.2949,31.48471 2.79319,60.33991 -12.288437,64.4499 C 77.610176,125.11787 58.659747,102.92628 50.36484,71.441583 42.069926,39.956875 47.571648,11.101674 62.653276,6.991684 77.7349,2.8816908 96.685329,25.073287 104.98024,56.55799 l 0,0 z" />
    <path
       style="fill:url(#radialGradient2528);fill-opacity:1;stroke:#3e3f3d;stroke-width:1.00000048;stroke-linecap:round;stroke-linejoin:miter;stroke-miterlimit:4;stroke-opacity:1;stroke-dashoffset:0"
       id="path3672"
       d="M 75.442224,65.014686 C 77.335458,72.090452 72.09381,79.651873 67.30528,80.936788 62.516749,82.2217 57.093863,77.521876 55.200625,70.446118 c -1.893238,-7.07576 0.456563,-13.86124 5.2451,-15.146157 4.788529,-1.284917 13.103261,2.63896 14.996499,9.714725 z" />
    <path
       style="opacity:0.3;fill:none;stroke:url(#linearGradient2522);stroke-width:0.99999952;stroke-linecap:round;stroke-linejoin:miter;stroke-miterlimit:4;stroke-opacity:1;stroke-dasharray:none;stroke-dashoffset:0;display:inline"
       id="path6615"
       d="m 99.654898,60.284834 c 4.745312,26.930672 4.529312,49.417216 -7.089319,52.442786 -11.618624,3.02547 -27.266377,-15.723926 -34.604631,-42.339058 -7.338249,-26.61513 -3.33908,-52.01425 8.386377,-54.62002 12.390264,-2.753498 25.944929,20.892491 32.094746,40.565665 z" />
    <path
       style="fill:#ffffff;fill-opacity:1;stroke:none;display:inline"
       id="path6661"
       d="m 26.451087,62.360166 c 0.42094,1.5732 -0.511338,3.190259 -2.0823,3.611802 -1.570956,0.421537 -3.185707,-0.512071 -3.606644,-2.085278 -0.420937,-1.573207 0.511337,-3.190263 2.082297,-3.6118 1.570961,-0.421541 3.185708,0.512067 3.606647,2.085276 z" />
    <path
       style="fill:url(#radialGradient2525);fill-opacity:1;stroke:none;display:inline"
       id="path6605"
       d="M 63.350383,7.3342461 C 55.060838,8.858238 49.6045,19.503364 47.901733,30.99824 c -1.784793,11.163495 -0.94955,25.552897 3.031074,40.494119 3.951762,14.83289 10.594226,28.431053 18.002987,37.114561 7.31835,8.57753 15.81612,13.58887 23.464367,11.86875 7.509694,-1.68896 12.393329,-10.85764 14.787069,-21.984448 1.36029,-6.323024 1.53017,-16.963238 0.38159,-26.043294 -0.0334,-0.277144 -0.091,-0.555937 -0.12684,-0.834296 -0.2172,-1.692162 -0.48161,-3.364198 -0.78532,-5.09584 -0.27478,-1.613302 -0.56154,-3.224029 -0.9169,-4.867555 -0.0195,-0.09033 -0.0524,-0.179686 -0.0721,-0.27008 -0.38019,-1.737625 -0.83548,-3.48304 -1.30694,-5.245286 -0.49659,-1.856178 -0.98852,-3.685507 -1.55898,-5.467116 -0.50331,-1.583482 -1.0813,-3.151466 -1.63595,-4.674586 -0.6016,-1.651725 -1.207311,-3.232191 -1.864,-4.806391 C 99.189624,40.922997 99.108877,40.661997 98.995159,40.400722 95.524804,32.25865 91.645478,25.842583 87.25938,20.326885 80.573971,11.919709 71.920508,5.5026693 63.350383,7.3342461 Z m 2.527589,7.9801979 c 5.5288,-1.483737 11.731461,2.593657 18.150816,10.374467 4.012102,4.863002 6.920857,10.269711 10.125585,17.733127 3.876058,9.397007 7.165297,19.696614 8.519717,29.007944 0.95057,8.068336 0.91696,17.478541 -0.12993,23.69919 -1.67495,9.952988 -4.934652,15.643548 -10.463458,17.127278 -5.5288,1.48372 -12.23374,-2.16825 -18.653102,-9.94909 C 67.008241,95.526557 60.991091,83.827622 57.31811,70.098571 53.645128,56.369511 53.015737,43.224675 54.690703,33.271636 56.365664,23.318607 60.349144,16.798187 65.877943,15.314444 Z" />
    <path
       style="opacity:0.4;fill:none;stroke:url(#linearGradient2518);stroke-width:0.99999982;stroke-linecap:round;stroke-linejoin:miter;stroke-miterlimit:4;stroke-opacity:1;stroke-dasharray:none;stroke-dashoffset:0;display:inline"
       id="path6698"
       d="m 105.2218,61.78998 c 6.50802,30.847189 -0.01,55.54227 -13.57501,58.26256 C 77.42927,122.90365 59.338394,101.33602 51.365975,71.171405 43.25101,40.467443 48.637761,11.934316 62.59454,7.998458 77.40357,3.8222623 98.009028,28.641574 104.64877,59.650332 Z" />
    <path
       style="opacity:0.6;fill:#ffffff;fill-opacity:1;stroke:none;display:inline"
       id="path5501"
       d="m 53.162016,33.490395 c 0.420934,1.573205 -0.51134,3.190263 -2.082296,3.611802 -1.570965,0.421541 -3.185712,-0.512068 -3.606646,-2.085274 -0.420939,-1.573206 0.511334,-3.190265 2.082296,-3.611802 1.570959,-0.421537 3.185708,0.512071 3.606646,2.085274 z" />
  </g>
</svg>
