<?xml version="1.0" encoding="UTF-8" standalone="no"?>
<svg
   version="1.1"
   width="128"
   height="128"
   id="svg4248"
   sodipodi:docname="qbittorrent.svg"
   inkscape:version="1.2.2 (b0a8486541, 2022-12-01)"
   xmlns:inkscape="http://www.inkscape.org/namespaces/inkscape"
   xmlns:sodipodi="http://sodipodi.sourceforge.net/DTD/sodipodi-0.dtd"
   xmlns:xlink="http://www.w3.org/1999/xlink"
   xmlns="http://www.w3.org/2000/svg"
   xmlns:svg="http://www.w3.org/2000/svg"
   xmlns:rdf="http://www.w3.org/1999/02/22-rdf-syntax-ns#"
   xmlns:cc="http://creativecommons.org/ns#"
   xmlns:dc="http://purl.org/dc/elements/1.1/">
  <sodipodi:namedview
     pagecolor="#ffffff"
     bordercolor="#666666"
     borderopacity="1"
     objecttolerance="10"
     gridtolerance="10"
     guidetolerance="10"
     inkscape:pageopacity="0"
     inkscape:pageshadow="2"
     inkscape:window-width="1317"
     inkscape:window-height="893"
     id="namedview53"
     showgrid="false"
     inkscape:zoom="3.0976563"
     inkscape:cx="72.312735"
     inkscape:cy="110.08323"
     inkscape:window-x="687"
     inkscape:window-y="330"
     inkscape:window-maximized="0"
     inkscape:current-layer="svg4248"
     inkscape:pagecheckerboard="0"
     inkscape:showpageshadow="2"
     inkscape:deskcolor="#d1d1d1" />
  <defs
     id="defs4250">
    <linearGradient
       id="linearGradient4011-4">
      <stop
         id="stop4013-8"
         style="stop-color:#ffffff;stop-opacity:1"
         offset="0" />
      <stop
         id="stop4015-5"
         style="stop-color:#ffffff;stop-opacity:0.23529412"
         offset="0.507761" />
      <stop
         id="stop4017-6"
         style="stop-color:#ffffff;stop-opacity:0.15686275"
         offset="0.83456558" />
      <stop
         id="stop4019-1"
         style="stop-color:#ffffff;stop-opacity:0.39215687"
         offset="1" />
    </linearGradient>
    <linearGradient
       x1="71.204407"
       y1="6.2375584"
       x2="71.204407"
       y2="44.340794"
       id="linearGradient3089"
       xlink:href="#linearGradient4011-4"
       gradientUnits="userSpaceOnUse"
       gradientTransform="matrix(2.8378348,0,0,2.8378352,-139.56789,-4.9596713)" />
    <linearGradient
       id="linearGradient3820-7-2-2">
      <stop
         id="stop3822-2-6-36"
         style="stop-color:#3d3d3d;stop-opacity:1"
         offset="0" />
      <stop
         id="stop3864-8-7-6"
         style="stop-color:#686868;stop-opacity:0.49803922"
         offset="0.5" />
      <stop
         id="stop3824-1-2-4"
         style="stop-color:#686868;stop-opacity:0"
         offset="1" />
    </linearGradient>
    <linearGradient
       inkscape:collect="always"
       xlink:href="#linearGradient1278"
       id="linearGradient1280"
       x1="23.120403"
       y1="4.8180451"
       x2="23.120403"
       y2="43.294945"
       gradientUnits="userSpaceOnUse"
       gradientTransform="matrix(2.7435897,0,0,2.7435897,-1.846154,1.153843)" />
    <linearGradient
       inkscape:collect="always"
       id="linearGradient1278">
      <stop
         style="stop-color:#64baff;stop-opacity:1"
         offset="0"
         id="stop1274" />
      <stop
         style="stop-color:#3689e6;stop-opacity:1"
         offset="1"
         id="stop1276" />
    </linearGradient>
    <radialGradient
       xlink:href="#linearGradient3820-7-2-2"
       id="radialGradient3163"
       gradientUnits="userSpaceOnUse"
       gradientTransform="matrix(0.70098161,0,0,0.22292326,-5.5072378,69.498223)"
       cx="99.157013"
       cy="186.17059"
       fx="99.157013"
       fy="186.17059"
       r="62.769119" />
  </defs>
  <metadata
     id="metadata4253">
    <rdf:RDF>
      <cc:Work
         rdf:about="">
        <dc:format>image/svg+xml</dc:format>
        <dc:type
           rdf:resource="http://purl.org/dc/dcmitype/StillImage" />
      </cc:Work>
    </rdf:RDF>
  </metadata>
  <path
     style="opacity:0.8;fill:url(#radialGradient3163);fill-opacity:1;stroke:none;stroke-width:1"
     id="path3818-0-5-0"
     d="m 107.99999,111 a 43.999998,13.992693 0 1 1 -87.999984,0 43.999998,13.992693 0 1 1 87.999984,0 z" />
  <circle
     style="fill:url(#linearGradient1280);fill-opacity:1;stroke:none;stroke-width:0.939185;stroke-linecap:round;stroke-linejoin:round;stroke-dasharray:none;stroke-opacity:0.5;paint-order:markers fill stroke"
     id="path878"
     cx="64"
     cy="67"
     r="53.5" />
  <path
     style="color:#000000;fill:#002e99;fill-opacity:0.15;stroke-linecap:round;-inkscape-stroke:none"
     d="m 70.5,90.999996 c 1.92115,0 3.5,-1.57885 3.5,-3.5 v -3.335937 c 3.250146,2.956937 7.380569,4.835937 12,4.835937 10.703501,0 19,-9.632817 19,-21 0,-11.367183 -8.296499,-21 -19,-21 -4.619431,0 -8.749854,1.879 -12,4.835938 V 33.499996 c 0,-1.92115 -1.57885,-3.5 -3.5,-3.5 -1.92115,0 -3.5,1.57885 -3.5,3.5 v 34.5 19.5 c 0,1.92115 1.57885,3.5 3.5,3.5 z m 15.5,-9 c -6.459975,0 -12,-5.958013 -12,-14 0,-8.041987 5.540025,-14 12,-14 6.459975,0 12,5.958013 12,14 0,8.041987 -5.540025,14 -12,14 z"
     id="path1787"
     sodipodi:nodetypes="sscssscssscsssssss" />
  <circle
     style="fill:none;fill-opacity:1;stroke:#002e99;stroke-width:1.00008;stroke-linecap:round;stroke-linejoin:round;stroke-dasharray:none;stroke-opacity:0.5;paint-order:markers fill stroke"
     id="circle3186"
     cx="64"
     cy="67"
     r="53.499958" />
  <path
     style="color:#000000;fill:#002e99;fill-opacity:0.15;stroke-linecap:round;-inkscape-stroke:none"
     d="m 57.5,44.999996 c -1.92115,0 -3.5,1.57885 -3.5,3.5 v 3.335937 c -3.250146,-2.956937 -7.380569,-4.835937 -12,-4.835937 -10.703501,0 -19,9.632817 -19,21 0,11.367183 8.296499,21 19,21 4.619431,0 8.749854,-1.879 12,-4.835938 V 102.5 c 0,1.92115 1.57885,3.5 3.5,3.5 1.92115,0 3.5,-1.57885 3.5,-3.5 v -34.500004 -19.5 c 0,-1.92115 -1.57885,-3.5 -3.5,-3.5 z m -15.5,9 c 6.459975,0 12,5.958013 12,14 0,8.041987 -5.540025,14 -12,14 -6.459975,0 -12,-5.958013 -12,-14 0,-8.041987 5.540025,-14 12,-14 z"
     id="path1648"
     sodipodi:nodetypes="sscssscssscsssssss" />
  <path
     id="path1789"
     style="color:#000000;fill:#002e99;fill-opacity:0.3;stroke-linecap:round;-inkscape-stroke:none"
     d="m 70.5,89.999996 a 2.5,2.5 0 0 0 2.5,-2.5 v -5.667969 c 3.251527,3.782407 7.836342,6.167969 13,6.167969 10.101867,0 18,-9.116609 18,-20 0,-10.883391 -7.898133,-20 -18,-20 -5.163658,0 -9.748473,2.385562 -13,6.167969 V 33.499996 a 2.5,2.5 0 0 0 -2.5,-2.5 2.5,2.5 0 0 0 -2.5,2.5 v 34.5 19.5 a 2.5,2.5 0 0 0 2.5,2.5 z m 15.5,-7 c -7.072099,0 -13,-6.493431 -13,-15 0,-8.506569 5.927901,-15 13,-15 7.072099,0 13,6.493431 13,15 0,8.506569 -5.927901,15 -13,15 z" />
  <path
     d="m 116.49995,66.998133 c 0,28.995861 -23.506756,52.501817 -52.499285,52.501817 -28.995184,0 -52.500618,-23.506224 -52.500618,-52.501817 0,-28.994518 23.505434,-52.498088 52.500618,-52.498088 28.992529,0 52.499285,23.50357 52.499285,52.498088 z"
     id="path8655"
     style="color:#000000;display:inline;overflow:visible;visibility:visible;opacity:0.5;fill:none;stroke:url(#linearGradient3089);stroke-width:1.00009;stroke-linecap:round;stroke-linejoin:round;stroke-miterlimit:4;stroke-dasharray:none;stroke-dashoffset:0;stroke-opacity:1;marker:none;enable-background:accumulate" />
  <g
     style="opacity:1;fill:#206b00;fill-opacity:0.501961"
     transform="matrix(1.3076923,0,0,1.3076923,5.5384616,9.6923038)"
     id="g4641">
    <g
       id="g4643"
       label="status"
       style="display:inline;fill:#206b00;fill-opacity:0.501961"
       transform="translate(-333.0004,-28)" />
    <g
       id="g4645"
       style="display:inline;fill:#206b00;fill-opacity:0.501961"
       transform="translate(-333.0004,-28)" />
    <g
       id="g4647"
       style="display:inline;fill:#206b00;fill-opacity:0.501961"
       transform="translate(-333.0004,-28)" />
    <g
       style="fill:#206b00;fill-opacity:0.501961"
       id="g4649"
       transform="translate(-333.0004,-28)" />
    <g
       id="g4651"
       style="display:inline;fill:#206b00;fill-opacity:0.501961"
       transform="translate(-333.0004,-28)" />
    <g
       id="g4653"
       style="display:inline;fill:#206b00;fill-opacity:0.501961"
       transform="translate(-333.0004,-28)" />
    <g
       id="g4655"
       style="display:inline;fill:#206b00;fill-opacity:0.501961"
       transform="translate(-333.0004,-28)" />
  </g>
  <path
     id="path1635"
     style="color:#000000;fill:#002e99;fill-opacity:0.3;stroke-linecap:round;-inkscape-stroke:none"
     d="m 57.5,45.999996 a 2.5,2.5 0 0 0 -2.5,2.5 v 5.667969 c -3.251527,-3.782407 -7.836342,-6.167969 -13,-6.167969 -10.101867,0 -18,9.116609 -18,20 0,10.883391 7.898133,20 18,20 5.163658,0 9.748473,-2.385562 13,-6.167969 V 102.5 a 2.5,2.5 0 0 0 2.5,2.5 2.5,2.5 0 0 0 2.5,-2.5 v -34.500004 -19.5 a 2.5,2.5 0 0 0 -2.5,-2.5 z m -15.5,7 c 7.072099,0 13,6.493431 13,15 0,8.506569 -5.927901,15 -13,15 -7.072099,0 -13,-6.493431 -13,-15 0,-8.506569 5.927901,-15 13,-15 z" />
  <path
     style="fill:none;stroke:#ffffff;stroke-width:5;stroke-linecap:round;stroke-linejoin:miter;stroke-miterlimit:4;stroke-dasharray:none;stroke-opacity:1"
     d="M 57.5,47.499996 V 101.5"
     id="path4196"
     sodipodi:nodetypes="cc" />
  <rect
     style="fill:none;fill-opacity:0.1;stroke:#ffffff;stroke-width:5;stroke-linecap:round;stroke-linejoin:round;stroke-dasharray:none;stroke-opacity:1;paint-order:markers fill stroke;stop-color:#000000"
     id="rect41042"
     width="31"
     height="35"
     x="26.5"
     y="49.499992"
     rx="20"
     ry="20" />
  <path
     style="fill:none;stroke:#ffffff;stroke-width:5;stroke-linecap:round;stroke-linejoin:miter;stroke-miterlimit:4;stroke-dasharray:none;stroke-opacity:1"
     d="m 70.5,86.499996 v -54"
     id="path46199"
     sodipodi:nodetypes="cc" />
  <rect
     style="fill:none;fill-opacity:0.1;stroke:#ffffff;stroke-width:5;stroke-linecap:round;stroke-linejoin:round;stroke-dasharray:none;stroke-opacity:1;paint-order:markers fill stroke;stop-color:#000000"
     id="rect1526"
     width="31"
     height="35"
     x="70.5"
     y="49.499992"
     rx="20"
     ry="20" />
</svg>
