<?xml version="1.0" encoding="UTF-8" standalone="no"?>
<svg
   xmlns:dc="http://purl.org/dc/elements/1.1/"
   xmlns:cc="http://creativecommons.org/ns#"
   xmlns:rdf="http://www.w3.org/1999/02/22-rdf-syntax-ns#"
   xmlns:svg="http://www.w3.org/2000/svg"
   xmlns="http://www.w3.org/2000/svg"
   xmlns:xlink="http://www.w3.org/1999/xlink"
   id="svg4018"
   height="128"
   width="128"
   version="1.1">
  <defs
     id="defs4020">
    <linearGradient
       gradientTransform="matrix(3.6057986,0,0,3.6071671,-628.53078,-100.37948)"
       gradientUnits="userSpaceOnUse"
       xlink:href="#linearGradient3985-6-635-120-628-965"
       id="linearGradient4278"
       y2="24.519934"
       x2="182"
       y1="33"
       x1="182" />
    <linearGradient
       id="linearGradient3985-6-635-120-628-965">
      <stop
         offset="0"
         style="stop-color:#ffffff;stop-opacity:1"
         id="stop7116" />
      <stop
         offset="1"
         style="stop-color:#ffffff;stop-opacity:0"
         id="stop7118" />
    </linearGradient>
    <linearGradient
       gradientTransform="matrix(4.8244191,0,0,4.8244205,-848.85923,-138.91768)"
       gradientUnits="userSpaceOnUse"
       xlink:href="#linearGradient3985-746-156-539-972"
       id="linearGradient4276"
       y2="36.026299"
       x2="188"
       y1="17"
       x1="188" />
    <linearGradient
       id="linearGradient3985-746-156-539-972">
      <stop
         offset="0"
         style="stop-color:#ffffff;stop-opacity:1"
         id="stop7110" />
      <stop
         offset="1"
         style="stop-color:#ffffff;stop-opacity:0"
         id="stop7112" />
    </linearGradient>
    <linearGradient
       gradientTransform="matrix(0,5.8666476,5.8666476,0,-107.03294,-233.43246)"
       gradientUnits="userSpaceOnUse"
       xlink:href="#linearGradient3937-859-978-64-227"
       id="linearGradient4274"
       y2="26.714281"
       x2="45.873367"
       y1="26.714281"
       x1="30.142857" />
    <linearGradient
       id="linearGradient3937-859-978-64-227">
      <stop
         offset="0"
         style="stop-color:#ffffff;stop-opacity:0.3019608"
         id="stop7104" />
      <stop
         offset="1"
         style="stop-color:#feffff;stop-opacity:0.40000001"
         id="stop7106" />
    </linearGradient>
    <linearGradient
       gradientTransform="matrix(3.1666667,0,0,4.9545457,-1109.5834,-102.56818)"
       gradientUnits="userSpaceOnUse"
       xlink:href="#linearGradient5093"
       id="linearGradient4272"
       y2="32"
       x2="384"
       y1="9"
       x1="384" />
    <linearGradient
       id="linearGradient5093">
      <stop
         offset="0"
         style="stop-color:#ffffff;stop-opacity:1"
         id="stop5095" />
      <stop
         offset="1"
         style="stop-color:#ffffff;stop-opacity:0"
         id="stop5097" />
    </linearGradient>
    <linearGradient
       gradientTransform="matrix(2.6250001,0,0,4.6250006,-901.31253,-95.812505)"
       gradientUnits="userSpaceOnUse"
       xlink:href="#linearGradient5047"
       id="linearGradient3697"
       y2="33"
       x2="385"
       y1="8"
       x1="385" />
    <linearGradient
       id="linearGradient5047">
      <stop
         offset="0"
         style="stop-color:#e7d198;stop-opacity:1"
         id="stop5049" />
      <stop
         offset="1"
         style="stop-color:#ba964a;stop-opacity:1"
         id="stop5051" />
    </linearGradient>
    <radialGradient
       gradientTransform="matrix(5.2570306,0,0,1.1067431,28.259731,-28.969771)"
       gradientUnits="userSpaceOnUse"
       xlink:href="#linearGradient10691-1-1"
       id="radialGradient3245"
       fy="73.615715"
       fx="6.702713"
       r="7.228416"
       cy="73.615715"
       cx="6.702713" />
    <linearGradient
       id="linearGradient10691-1-1">
      <stop
         offset="0"
         style="stop-color:#000000;stop-opacity:1"
         id="stop10693-3-0" />
      <stop
         offset="1"
         style="stop-color:#000000;stop-opacity:0"
         id="stop10695-1-3" />
    </linearGradient>
    <linearGradient
       gradientTransform="matrix(2.6746618,0,0,2.5459707,-894.48277,-185.58723)"
       gradientUnits="userSpaceOnUse"
       xlink:href="#linearGradient3912-6"
       id="linearGradient3221"
       y2="94.396416"
       x2="361.10583"
       y1="87.050117"
       x1="361.10583" />
    <linearGradient
       id="linearGradient3912-6">
      <stop
         offset="0"
         style="stop-color:#787878;stop-opacity:1"
         id="stop3914-4" />
      <stop
         offset="0.35046947"
         style="stop-color:#b4b4b4;stop-opacity:1"
         id="stop3916-5" />
      <stop
         offset="0.49417919"
         style="stop-color:#c8c8c8;stop-opacity:1"
         id="stop3918-2" />
      <stop
         offset="0.58907253"
         style="stop-color:#e6e6e6;stop-opacity:1"
         id="stop3920-0" />
      <stop
         offset="1"
         style="stop-color:#8c8c8c;stop-opacity:1"
         id="stop3922-2" />
    </linearGradient>
    <linearGradient
       gradientTransform="matrix(2.6843014,0,0,2.5456046,-102.93059,-55.729013)"
       gradientUnits="userSpaceOnUse"
       xlink:href="#linearGradient3924-9"
       id="linearGradient3223"
       y2="43.378311"
       x2="61.968769"
       y1="35.053661"
       x1="61.968769" />
    <linearGradient
       id="linearGradient3924-9">
      <stop
         offset="0"
         style="stop-color:#464646;stop-opacity:1"
         id="stop3926-0" />
      <stop
         offset="0.10079991"
         style="stop-color:#787878;stop-opacity:1"
         id="stop3928-9" />
      <stop
         offset="0.56052971"
         style="stop-color:#828282;stop-opacity:1"
         id="stop3930-9" />
      <stop
         offset="0.64530003"
         style="stop-color:#828282;stop-opacity:1"
         id="stop3932-4" />
      <stop
         offset="1"
         style="stop-color:#646464;stop-opacity:1"
         id="stop3934-5" />
    </linearGradient>
    <linearGradient
       spreadMethod="reflect"
       gradientTransform="matrix(3.1282824,0,0,2.6666665,-10.262791,-71.252086)"
       gradientUnits="userSpaceOnUse"
       xlink:href="#linearGradient3342-7"
       id="linearGradient3218"
       y2="46.971004"
       x2="23.578077"
       y1="46.971004"
       x1="15.573899" />
    <linearGradient
       id="linearGradient3342-7">
      <stop
         offset="0"
         style="stop-color:#ffffff;stop-opacity:0"
         id="stop3344-7" />
      <stop
         offset="1"
         style="stop-color:#ffffff;stop-opacity:1"
         id="stop3346-2" />
    </linearGradient>
    <linearGradient
       gradientTransform="translate(-0.5039056,-63.496083)"
       gradientUnits="userSpaceOnUse"
       xlink:href="#linearGradient3236"
       id="linearGradient3234"
       y2="9.0004082"
       x2="64"
       y1="98.144615"
       x1="64" />
    <linearGradient
       id="linearGradient3236">
      <stop
         offset="0"
         style="stop-color:#bebebe;stop-opacity:1"
         id="stop3240" />
      <stop
         offset="1"
         style="stop-color:#e6e6e6;stop-opacity:1"
         id="stop3244" />
    </linearGradient>
    <radialGradient
       gradientTransform="matrix(3.7780358,0.05354761,-0.03517637,2.9933064,-14.705426,-45.891305)"
       gradientUnits="userSpaceOnUse"
       xlink:href="#linearGradient6712-0"
       id="radialGradient3257"
       fy="4.8630676"
       fx="12.244348"
       r="20.999998"
       cy="4.8630676"
       cx="12.244348" />
    <linearGradient
       id="linearGradient6712-0">
      <stop
         offset="0"
         style="stop-color:#3c3c3c;stop-opacity:1"
         id="stop6714-1" />
      <stop
         offset="1"
         style="stop-color:#1e1e1e;stop-opacity:1"
         id="stop6716-3" />
    </linearGradient>
    <linearGradient
       gradientTransform="matrix(2.9523812,0,0,3.5999974,-7.3610487,-64.296077)"
       gradientUnits="userSpaceOnUse"
       xlink:href="#linearGradient6592-2-7-7"
       id="linearGradient3254"
       y2="19.8125"
       x2="15.25"
       y1="8.4375"
       x1="12.9375" />
    <linearGradient
       id="linearGradient6592-2-7-7">
      <stop
         offset="0"
         style="stop-color:#ffffff;stop-opacity:0.27450982"
         id="stop6594-0-2-0" />
      <stop
         offset="1"
         style="stop-color:#ffffff;stop-opacity:0"
         id="stop6596-2-5-1" />
    </linearGradient>
    <linearGradient
       id="linearGradient6592-2-7-7-3">
      <stop
         offset="0"
         style="stop-color:#ffffff;stop-opacity:0.27450982"
         id="stop6594-0-2-0-6" />
      <stop
         offset="1"
         style="stop-color:#ffffff;stop-opacity:0"
         id="stop6596-2-5-1-4" />
    </linearGradient>
    <linearGradient
       gradientTransform="matrix(2.9523813,0,0,3.5999974,-7.3610488,-64.29608)"
       gradientUnits="userSpaceOnUse"
       xlink:href="#linearGradient6592-2-7-7-3"
       id="linearGradient3238"
       y2="19.8125"
       x2="15.25"
       y1="8.4375"
       x1="12.9375" />
  </defs>
  <metadata
     id="metadata4023">
    <rdf:RDF>
      <cc:Work
         rdf:about="">
        <dc:format>image/svg+xml</dc:format>
        <dc:type
           rdf:resource="http://purl.org/dc/dcmitype/StillImage" />
        <dc:title />
      </cc:Work>
    </rdf:RDF>
  </metadata>
  <g
     id="layer1"
     transform="translate(0,64)">
    <g
       id="g3338"
       transform="translate(0.50390559,-0.503914)">
      <path
         style="opacity:0.3;fill:url(#radialGradient3245);fill-opacity:1;fill-rule:nonzero;stroke:none;stroke-width:0.80000001;marker:none;visibility:visible;display:inline;overflow:visible"
         id="path2589"
         d="m 101.49609,52.503916 c 0,4.41828 -17.013175,8 -37.999998,8 -20.98682,0 -37.999998,-3.58172 -37.999998,-8 0,-4.41828 17.013178,-7.999999 37.999998,-7.999999 20.986823,0 37.999998,3.581719 37.999998,7.999999 l 0,0 z" />
      <path
         style="fill:url(#linearGradient3221);fill-opacity:1;fill-rule:nonzero;stroke:url(#linearGradient3223);stroke-width:0.99827462;stroke-linecap:round;stroke-linejoin:round;stroke-miterlimit:4;stroke-opacity:1;stroke-dasharray:none;stroke-dashoffset:0.50000001;marker:none;visibility:visible;display:inline;overflow:visible;enable-background:new"
         id="rect1789"
         d="m 46.996094,34.003056 c 0,0 0.397503,10.838601 -1.50061,13.36491 -1.898112,2.52633 -5.675011,4.13662 -5.675011,4.13662 -2.423623,0.2654 -2.443672,3.5002 0,3.5002 l 47.351051,0 c 2.443672,0 2.424131,-3.23819 0,-3.5002 0,0 -3.776735,-1.6103 -5.674819,-4.13662 -1.898086,-2.526299 -1.500611,-13.36491 -1.500611,-13.36491 l -32.983056,0 -0.01694,0 z" />
      <path
         style="fill:none;stroke:url(#linearGradient3218);stroke-width:1px;stroke-linecap:square;stroke-linejoin:miter;stroke-opacity:1"
         id="path3340"
         d="m 40.020905,54.003916 46.950378,0" />
      <rect
         style="fill:#1a1a1a;fill-opacity:1;stroke:url(#linearGradient3234);stroke-width:1.00023937;stroke-linecap:round;stroke-linejoin:round;stroke-miterlimit:4;stroke-opacity:1;stroke-dasharray:none;stroke-dashoffset:0.50000001"
         id="rect2722"
         y="-53.995556"
         x="0.99621409"
         ry="2.6666665"
         rx="2.7777872"
         height="87.999352"
         width="124.99976" />
      <rect
         style="fill:url(#radialGradient3257);fill-opacity:1;fill-rule:evenodd;stroke:none;display:inline;enable-background:new"
         id="rect2716"
         y="-47.496082"
         x="7.4960942"
         height="75"
         width="112" />
      <path
         style="fill:url(#linearGradient3254);fill-opacity:1;stroke:none"
         id="rect6588"
         d="m 2.1960944,-53.496083 123.2999956,0 0,28.800015 -78.453996,15.8828767 z" />
      <rect
         style="opacity:0.3;fill:none;stroke:#000000;stroke-width:1.00023937;stroke-linecap:round;stroke-linejoin:round;stroke-miterlimit:4;stroke-opacity:1;stroke-dasharray:none;stroke-dashoffset:0.50000001"
         id="rect3248"
         y="-52.995762"
         x="1.996214"
         ry="2.6060724"
         rx="2.7333424"
         height="85.999763"
         width="122.99976" />
      <path
         style="opacity:0.4;fill:url(#linearGradient3238);fill-opacity:1;stroke:none"
         id="path3164"
         d="M 1.4960944,-52.996089 45.279594,-8.394018 1.4960944,0.503914 z" />
    </g>
    <rect
       style="color:#000000;fill:url(#linearGradient3697);fill-opacity:1;fill-rule:nonzero;stroke:#956e37;stroke-width:0.99999988;stroke-linecap:butt;stroke-linejoin:miter;stroke-miterlimit:4;stroke-opacity:1;stroke-dasharray:none;stroke-dashoffset:0;marker:none;visibility:visible;display:inline;overflow:visible;enable-background:accumulate"
       id="rect5045"
       y="-56.5"
       x="97.5"
       ry="0.49999994"
       rx="0.49999994"
       height="111"
       width="21" />
    <rect
       style="opacity:0.4;color:#000000;fill:none;stroke:url(#linearGradient4272);stroke-width:0.9999997;stroke-linecap:butt;stroke-linejoin:miter;stroke-miterlimit:4;stroke-opacity:1;stroke-dasharray:none;stroke-dashoffset:0;marker:none;visibility:visible;display:inline;overflow:visible;enable-background:accumulate"
       id="rect5045-1"
       y="-55.500004"
       x="98.5"
       height="109.00001"
       width="19" />
    <path
       style="fill:url(#linearGradient4274);fill-opacity:1;fill-rule:evenodd;stroke:#4d4d4d;stroke-width:0.99999988px;stroke-linecap:butt;stroke-linejoin:miter;stroke-opacity:1"
       id="path3410"
       d="M 1.4999999,-54.499706 89.499718,33.5 l -87.9997181,0 0,-87.999706 z m 18.0000071,47.999691 0,22.000008 22.000009,0 -22.000009,-22.000008 z" />
    <path
       style="opacity:0.5;fill:none;stroke:url(#linearGradient4276);stroke-width:1px;stroke-linecap:butt;stroke-linejoin:miter;stroke-opacity:1"
       id="path3981"
       d="m 2.5000002,-52 c 0,28.44398 0,56.05602 0,84.500002 28.4439588,0 56.0560448,0 84.4999998,0 C 87,32.500002 2.5000002,-52 2.5000002,-52 z" />
    <path
       style="opacity:0.15;fill:none;stroke:url(#linearGradient4278);stroke-width:0.99999994px;stroke-linecap:butt;stroke-linejoin:miter;stroke-opacity:1"
       id="path3981-5"
       d="m 18.5,-10.200308 c 0,0 0,26.700308 0,26.700308 0,0 25,0 25,0" />
    <path
       style="opacity:0.6;color:#000000;fill:#956e37;fill-opacity:1;stroke:none;stroke-width:1;marker:none;visibility:visible;display:inline;overflow:visible;enable-background:accumulate"
       id="path3666"
       d="m 98.00004,48.99999 2,0 0,1 -2,0 0,-1 z" />
    <path
       style="opacity:0.6;color:#000000;fill:#956e37;fill-opacity:1;stroke:none;stroke-width:1;marker:none;visibility:visible;display:inline;overflow:visible;enable-background:accumulate"
       id="path3664"
       d="m 98.00004,44.99998 2,0 0,1 -2,0 0,-1 z" />
    <path
       style="opacity:0.6;color:#000000;fill:#956e37;fill-opacity:1;stroke:none;stroke-width:1;marker:none;visibility:visible;display:inline;overflow:visible;enable-background:accumulate"
       id="path3662"
       d="m 98.00004,36.99998 2,0 0,1 -2,0 0,-1 z" />
    <path
       style="opacity:0.6;color:#000000;fill:#956e37;fill-opacity:1;stroke:none;stroke-width:1;marker:none;visibility:visible;display:inline;overflow:visible;enable-background:accumulate"
       id="path3660"
       d="m 98.00004,32.999979 2,0 0,1 -2,0 0,-1 z" />
    <path
       style="opacity:0.6;color:#000000;fill:#956e37;fill-opacity:1;stroke:none;stroke-width:1;marker:none;visibility:visible;display:inline;overflow:visible;enable-background:accumulate"
       id="path3658"
       d="m 98.00004,40.999982 4,0 0,1 -4,0 0,-1 z" />
    <path
       style="opacity:0.6;color:#000000;fill:#956e37;fill-opacity:1;stroke:none;stroke-width:1;marker:none;visibility:visible;display:inline;overflow:visible;enable-background:accumulate"
       id="path3656"
       d="m 98.00004,28.999977 2,0 0,1 -2,0 0,-1 z" />
    <path
       style="opacity:0.6;color:#000000;fill:#956e37;fill-opacity:1;stroke:none;stroke-width:1;marker:none;visibility:visible;display:inline;overflow:visible;enable-background:accumulate"
       id="path3654"
       d="m 98.00004,20.999975 2,0 0,1 -2,0 0,-1 z" />
    <path
       style="opacity:0.6;color:#000000;fill:#956e37;fill-opacity:1;stroke:none;stroke-width:1;marker:none;visibility:visible;display:inline;overflow:visible;enable-background:accumulate"
       id="path3652"
       d="m 98.00004,16.999973 2,0 0,1 -2,0 0,-1 z" />
    <path
       style="opacity:0.6;color:#000000;fill:#956e37;fill-opacity:1;stroke:none;stroke-width:1;marker:none;visibility:visible;display:inline;overflow:visible;enable-background:accumulate"
       id="path3650"
       d="m 98.00004,24.999975 4,0 0,1 -4,0 0,-1 z" />
    <path
       style="opacity:0.6;color:#000000;fill:#956e37;fill-opacity:1;stroke:none;stroke-width:1;marker:none;visibility:visible;display:inline;overflow:visible;enable-background:accumulate"
       id="path3648"
       d="m 98.00004,12.999971 2,0 0,1 -2,0 0,-1 z" />
    <path
       style="opacity:0.6;color:#000000;fill:#956e37;fill-opacity:1;stroke:none;stroke-width:1;marker:none;visibility:visible;display:inline;overflow:visible;enable-background:accumulate"
       id="path3646"
       d="m 98.00004,4.999968 2,0 0,1 -2,0 0,-1 z" />
    <path
       style="opacity:0.6;color:#000000;fill:#956e37;fill-opacity:1;stroke:none;stroke-width:1;marker:none;visibility:visible;display:inline;overflow:visible;enable-background:accumulate"
       id="path3644"
       d="m 98.00004,0.999966 2,0 0,1 -2,0 0,-1 z" />
    <path
       style="opacity:0.6;color:#000000;fill:#956e37;fill-opacity:1;stroke:none;stroke-width:1;marker:none;visibility:visible;display:inline;overflow:visible;enable-background:accumulate"
       id="path3642"
       d="m 98.00004,8.99997 4,0 0,1 -4,0 0,-1 z" />
    <path
       style="opacity:0.6;color:#000000;fill:#956e37;fill-opacity:1;stroke:none;stroke-width:1;marker:none;visibility:visible;display:inline;overflow:visible;enable-background:accumulate"
       id="path3640"
       d="m 98.00004,-3.000035 2,0 0,1 -2,0 0,-1 z" />
    <path
       style="opacity:0.6;color:#000000;fill:#956e37;fill-opacity:1;stroke:none;stroke-width:1;marker:none;visibility:visible;display:inline;overflow:visible;enable-background:accumulate"
       id="path3638"
       d="m 98.00004,-11.000038 2,0 0,1 -2,0 0,-1 z" />
    <path
       style="opacity:0.6;color:#000000;fill:#956e37;fill-opacity:1;stroke:none;stroke-width:1;marker:none;visibility:visible;display:inline;overflow:visible;enable-background:accumulate"
       id="path3636"
       d="m 98.00004,-15.00004 2,0 0,1 -2,0 0,-1 z" />
    <path
       style="opacity:0.6;color:#000000;fill:#956e37;fill-opacity:1;stroke:none;stroke-width:1;marker:none;visibility:visible;display:inline;overflow:visible;enable-background:accumulate"
       id="path3634"
       d="m 98.00004,-7.000037 4,0 0,1 -4,0 0,-1 z" />
    <path
       style="opacity:0.6;color:#000000;fill:#956e37;fill-opacity:1;stroke:none;stroke-width:1;marker:none;visibility:visible;display:inline;overflow:visible;enable-background:accumulate"
       id="path3632"
       d="m 98.00004,-19.000042 2,0 0,1 -2,0 0,-1 z" />
    <path
       style="opacity:0.6;color:#000000;fill:#956e37;fill-opacity:1;stroke:none;stroke-width:1;marker:none;visibility:visible;display:inline;overflow:visible;enable-background:accumulate"
       id="path3630"
       d="m 98.00004,-27.000044 2,0 0,1 -2,0 0,-1 z" />
    <path
       style="opacity:0.6;color:#000000;fill:#956e37;fill-opacity:1;stroke:none;stroke-width:1;marker:none;visibility:visible;display:inline;overflow:visible;enable-background:accumulate"
       id="path3628"
       d="m 98.00004,-31.000046 2,0 0,1 -2,0 0,-1 z" />
    <path
       style="opacity:0.6;color:#000000;fill:#956e37;fill-opacity:1;stroke:none;stroke-width:1;marker:none;visibility:visible;display:inline;overflow:visible;enable-background:accumulate"
       id="path3626"
       d="m 98.00004,-23.000044 4,0 0,1 -4,0 0,-1 z" />
    <path
       style="opacity:0.6;color:#000000;fill:#956e37;fill-opacity:1;stroke:none;stroke-width:1;marker:none;visibility:visible;display:inline;overflow:visible;enable-background:accumulate"
       id="path3624"
       d="m 98.00004,-35.000048 2,0 0,1 -2,0 0,-1 z" />
    <path
       style="opacity:0.6;color:#000000;fill:#956e37;fill-opacity:1;stroke:none;stroke-width:1;marker:none;visibility:visible;display:inline;overflow:visible;enable-background:accumulate"
       id="path3622"
       d="m 98.00004,-43.000051 2,0 0,1 -2,0 0,-1 z" />
    <path
       style="opacity:0.6;color:#000000;fill:#956e37;fill-opacity:1;stroke:none;stroke-width:1;marker:none;visibility:visible;display:inline;overflow:visible;enable-background:accumulate"
       id="path3620"
       d="m 98.00004,-47.000054 2,0 0,1 -2,0 0,-1 z" />
    <path
       style="opacity:0.6;color:#000000;fill:#956e37;fill-opacity:1;stroke:none;stroke-width:1;marker:none;visibility:visible;display:inline;overflow:visible;enable-background:accumulate"
       id="path3618"
       d="m 98.00004,-39.000049 4,0 0,1 -4,0 0,-1 z" />
    <path
       style="opacity:0.6;color:#000000;fill:#956e37;fill-opacity:1;stroke:none;stroke-width:1;marker:none;visibility:visible;display:inline;overflow:visible;enable-background:accumulate"
       id="path3616"
       d="m 98.00004,-51.000055 2,0 0,1 -2,0 0,-1 z" />
    <path
       style="opacity:0.6;color:#000000;fill:#956e37;fill-opacity:1;stroke:none;stroke-width:1;marker:none;visibility:visible;display:inline;overflow:visible;enable-background:accumulate"
       id="path3614"
       d="m 114,46.99999 4,0 0,1 -4,0 0,-1 z" />
    <path
       style="opacity:0.6;color:#000000;fill:#956e37;fill-opacity:1;stroke:none;stroke-width:1;marker:none;visibility:visible;display:inline;overflow:visible;enable-background:accumulate"
       id="path3612"
       d="m 114,38.999981 4,0 0,1 -4,0 0,-1 z" />
    <path
       style="opacity:0.6;color:#000000;fill:#956e37;fill-opacity:1;stroke:none;stroke-width:1;marker:none;visibility:visible;display:inline;overflow:visible;enable-background:accumulate"
       id="path3610"
       d="m 114,30.999978 4,0 0,1 -4,0 0,-1 z" />
    <path
       style="opacity:0.6;color:#000000;fill:#956e37;fill-opacity:1;stroke:none;stroke-width:1;marker:none;visibility:visible;display:inline;overflow:visible;enable-background:accumulate"
       id="path3608"
       d="m 114,22.999976 4,0 0,1 -4,0 0,-1 z" />
    <path
       style="opacity:0.6;color:#000000;fill:#956e37;fill-opacity:1;stroke:none;stroke-width:1;marker:none;visibility:visible;display:inline;overflow:visible;enable-background:accumulate"
       id="path3606"
       d="m 114,14.999972 4,0 0,1 -4,0 0,-1 z" />
    <path
       style="opacity:0.6;color:#000000;fill:#956e37;fill-opacity:1;stroke:none;stroke-width:1;marker:none;visibility:visible;display:inline;overflow:visible;enable-background:accumulate"
       id="path3604"
       d="m 114,6.999969 4,0 0,1 -4,0 0,-1 z" />
    <path
       style="opacity:0.6;color:#000000;fill:#956e37;fill-opacity:1;stroke:none;stroke-width:1;marker:none;visibility:visible;display:inline;overflow:visible;enable-background:accumulate"
       id="path3602"
       d="m 114,-1.000034 4,0 0,1 -4,0 0,-1 z" />
    <path
       style="opacity:0.6;color:#000000;fill:#956e37;fill-opacity:1;stroke:none;stroke-width:1;marker:none;visibility:visible;display:inline;overflow:visible;enable-background:accumulate"
       id="path3600"
       d="m 114,-9 4,0 0,1 -4,0 0,-1 z" />
    <path
       style="opacity:0.6;color:#000000;fill:#956e37;fill-opacity:1;stroke:none;stroke-width:1;marker:none;visibility:visible;display:inline;overflow:visible;enable-background:accumulate"
       id="path3598"
       d="m 114,-17.000041 4,0 0,1 -4,0 0,-1 z" />
    <path
       style="opacity:0.6;color:#000000;fill:#956e37;fill-opacity:1;stroke:none;stroke-width:1;marker:none;visibility:visible;display:inline;overflow:visible;enable-background:accumulate"
       id="path3596"
       d="m 114,-25.000043 4,0 0,1 -4,0 0,-1 z" />
    <path
       style="opacity:0.6;color:#000000;fill:#956e37;fill-opacity:1;stroke:none;stroke-width:1;marker:none;visibility:visible;display:inline;overflow:visible;enable-background:accumulate"
       id="path3594"
       d="m 114,-33.000047 4,0 0,1 -4,0 0,-1 z" />
    <path
       style="opacity:0.6;color:#000000;fill:#956e37;fill-opacity:1;stroke:none;stroke-width:1;marker:none;visibility:visible;display:inline;overflow:visible;enable-background:accumulate"
       id="path3592"
       d="m 114,-41.00005 4,0 0,1 -4,0 0,-1 z" />
    <path
       style="opacity:0.6;color:#000000;fill:#956e37;fill-opacity:1;stroke:none;stroke-width:1;marker:none;visibility:visible;display:inline;overflow:visible;enable-background:accumulate"
       id="path4819-4-33"
       d="m 114,-49.000054 4,0 0,1 -4,0 0,-1 z" />
    <path
       style="opacity:0.15;color:#000000;fill:#ffffff;fill-opacity:1;stroke:none;stroke-width:1;marker:none;visibility:visible;display:inline;overflow:visible;enable-background:accumulate"
       id="path3822"
       d="m 98.00004,50 2,0 0,1 -2,0 0,-1 z" />
    <path
       style="opacity:0.15;color:#000000;fill:#ffffff;fill-opacity:1;stroke:none;stroke-width:1;marker:none;visibility:visible;display:inline;overflow:visible;enable-background:accumulate"
       id="path3820"
       d="m 98.00004,46 2,0 0,1 -2,0 0,-1 z" />
    <path
       style="opacity:0.15;color:#000000;fill:#ffffff;fill-opacity:1;stroke:none;stroke-width:1;marker:none;visibility:visible;display:inline;overflow:visible;enable-background:accumulate"
       id="path3818"
       d="m 98.00004,37.999995 2,0 0,1 -2,0 0,-1 z" />
    <path
       style="opacity:0.15;color:#000000;fill:#ffffff;fill-opacity:1;stroke:none;stroke-width:1;marker:none;visibility:visible;display:inline;overflow:visible;enable-background:accumulate"
       id="path3816"
       d="m 98.00004,33.999994 2,0 0,1 -2,0 0,-1 z" />
    <path
       style="opacity:0.15;color:#000000;fill:#ffffff;fill-opacity:1;stroke:none;stroke-width:1;marker:none;visibility:visible;display:inline;overflow:visible;enable-background:accumulate"
       id="path3814"
       d="m 98.00004,41.999997 4,0 0,1 -4,0 0,-1 z" />
    <path
       style="opacity:0.15;color:#000000;fill:#ffffff;fill-opacity:1;stroke:none;stroke-width:1;marker:none;visibility:visible;display:inline;overflow:visible;enable-background:accumulate"
       id="path3812"
       d="m 98.00004,29.999992 2,0 0,1 -2,0 0,-1 z" />
    <path
       style="opacity:0.15;color:#000000;fill:#ffffff;fill-opacity:1;stroke:none;stroke-width:1;marker:none;visibility:visible;display:inline;overflow:visible;enable-background:accumulate"
       id="path3810"
       d="m 98.00004,21.99999 2,0 0,1 -2,0 0,-1 z" />
    <path
       style="opacity:0.15;color:#000000;fill:#ffffff;fill-opacity:1;stroke:none;stroke-width:1;marker:none;visibility:visible;display:inline;overflow:visible;enable-background:accumulate"
       id="path3808"
       d="m 98.00004,17.999988 2,0 0,1 -2,0 0,-1 z" />
    <path
       style="opacity:0.15;color:#000000;fill:#ffffff;fill-opacity:1;stroke:none;stroke-width:1;marker:none;visibility:visible;display:inline;overflow:visible;enable-background:accumulate"
       id="path3806"
       d="m 98.00004,25.99999 4,0 0,1 -4,0 0,-1 z" />
    <path
       style="opacity:0.15;color:#000000;fill:#ffffff;fill-opacity:1;stroke:none;stroke-width:1;marker:none;visibility:visible;display:inline;overflow:visible;enable-background:accumulate"
       id="path3804"
       d="m 98.00004,13.999986 2,0 0,1 -2,0 0,-1 z" />
    <path
       style="opacity:0.15;color:#000000;fill:#ffffff;fill-opacity:1;stroke:none;stroke-width:1;marker:none;visibility:visible;display:inline;overflow:visible;enable-background:accumulate"
       id="path3802"
       d="m 98.00004,5.999983 2,0 0,1 -2,0 0,-1 z" />
    <path
       style="opacity:0.15;color:#000000;fill:#ffffff;fill-opacity:1;stroke:none;stroke-width:1;marker:none;visibility:visible;display:inline;overflow:visible;enable-background:accumulate"
       id="path3800"
       d="m 98.00004,1.999981 2,0 0,1 -2,0 0,-1 z" />
    <path
       style="opacity:0.15;color:#000000;fill:#ffffff;fill-opacity:1;stroke:none;stroke-width:1;marker:none;visibility:visible;display:inline;overflow:visible;enable-background:accumulate"
       id="path3798"
       d="m 98.00004,9.999985 4,0 0,1 -4,0 0,-1 z" />
    <path
       style="opacity:0.15;color:#000000;fill:#ffffff;fill-opacity:1;stroke:none;stroke-width:1;marker:none;visibility:visible;display:inline;overflow:visible;enable-background:accumulate"
       id="path3796"
       d="m 98.00004,-2.00002 2,0 0,1 -2,0 0,-1 z" />
    <path
       style="opacity:0.15;color:#000000;fill:#ffffff;fill-opacity:1;stroke:none;stroke-width:1;marker:none;visibility:visible;display:inline;overflow:visible;enable-background:accumulate"
       id="path3794"
       d="m 98.00004,-10.000024 2,0 0,1 -2,0 0,-1 z" />
    <path
       style="opacity:0.15;color:#000000;fill:#ffffff;fill-opacity:1;stroke:none;stroke-width:1;marker:none;visibility:visible;display:inline;overflow:visible;enable-background:accumulate"
       id="path3792"
       d="m 98.00004,-14.000025 2,0 0,1 -2,0 0,-1 z" />
    <path
       style="opacity:0.15;color:#000000;fill:#ffffff;fill-opacity:1;stroke:none;stroke-width:1;marker:none;visibility:visible;display:inline;overflow:visible;enable-background:accumulate"
       id="path3790"
       d="m 98.00004,-6.000022 4,0 0,1 -4,0 0,-1 z" />
    <path
       style="opacity:0.15;color:#000000;fill:#ffffff;fill-opacity:1;stroke:none;stroke-width:1;marker:none;visibility:visible;display:inline;overflow:visible;enable-background:accumulate"
       id="path3788"
       d="m 98.00004,-18.000027 2,0 0,1 -2,0 0,-1 z" />
    <path
       style="opacity:0.15;color:#000000;fill:#ffffff;fill-opacity:1;stroke:none;stroke-width:1;marker:none;visibility:visible;display:inline;overflow:visible;enable-background:accumulate"
       id="path3786"
       d="m 98.00004,-26.000029 2,0 0,1 -2,0 0,-1 z" />
    <path
       style="opacity:0.15;color:#000000;fill:#ffffff;fill-opacity:1;stroke:none;stroke-width:1;marker:none;visibility:visible;display:inline;overflow:visible;enable-background:accumulate"
       id="path3784"
       d="m 98.00004,-30.000031 2,0 0,1 -2,0 0,-1 z" />
    <path
       style="opacity:0.15;color:#000000;fill:#ffffff;fill-opacity:1;stroke:none;stroke-width:1;marker:none;visibility:visible;display:inline;overflow:visible;enable-background:accumulate"
       id="path3782"
       d="m 98.00004,-22.000029 4,0 0,1 -4,0 0,-1 z" />
    <path
       style="opacity:0.15;color:#000000;fill:#ffffff;fill-opacity:1;stroke:none;stroke-width:1;marker:none;visibility:visible;display:inline;overflow:visible;enable-background:accumulate"
       id="path3780"
       d="m 98.00004,-34.000033 2,0 0,1 -2,0 0,-1 z" />
    <path
       style="opacity:0.15;color:#000000;fill:#ffffff;fill-opacity:1;stroke:none;stroke-width:1;marker:none;visibility:visible;display:inline;overflow:visible;enable-background:accumulate"
       id="path3778"
       d="m 98.00004,-42.000036 2,0 0,1 -2,0 0,-1 z" />
    <path
       style="opacity:0.15;color:#000000;fill:#ffffff;fill-opacity:1;stroke:none;stroke-width:1;marker:none;visibility:visible;display:inline;overflow:visible;enable-background:accumulate"
       id="path3776"
       d="m 98.00004,-46.000039 2,0 0,1 -2,0 0,-1 z" />
    <path
       style="opacity:0.15;color:#000000;fill:#ffffff;fill-opacity:1;stroke:none;stroke-width:1;marker:none;visibility:visible;display:inline;overflow:visible;enable-background:accumulate"
       id="path3774"
       d="m 98.00004,-38.000034 4,0 0,1 -4,0 0,-1 z" />
    <path
       style="opacity:0.15;color:#000000;fill:#ffffff;fill-opacity:1;stroke:none;stroke-width:1;marker:none;visibility:visible;display:inline;overflow:visible;enable-background:accumulate"
       id="path3772"
       d="m 98.00004,-50.00004 2,0 0,1 -2,0 0,-1 z" />
    <path
       style="opacity:0.15;color:#000000;fill:#ffffff;fill-opacity:1;stroke:none;stroke-width:1;marker:none;visibility:visible;display:inline;overflow:visible;enable-background:accumulate"
       id="path3770"
       d="m 114,48 4,0 0,1 -4,0 0,-1 z" />
    <path
       style="opacity:0.15;color:#000000;fill:#ffffff;fill-opacity:1;stroke:none;stroke-width:1;marker:none;visibility:visible;display:inline;overflow:visible;enable-background:accumulate"
       id="path3768"
       d="m 114,39.999996 4,0 0,1 -4,0 0,-1 z" />
    <path
       style="opacity:0.15;color:#000000;fill:#ffffff;fill-opacity:1;stroke:none;stroke-width:1;marker:none;visibility:visible;display:inline;overflow:visible;enable-background:accumulate"
       id="path3766"
       d="m 114,31.999993 4,0 0,1 -4,0 0,-1 z" />
    <path
       style="opacity:0.15;color:#000000;fill:#ffffff;fill-opacity:1;stroke:none;stroke-width:1;marker:none;visibility:visible;display:inline;overflow:visible;enable-background:accumulate"
       id="path3764"
       d="m 114,23.999989 4,0 0,1 -4,0 0,-1 z" />
    <path
       style="opacity:0.15;color:#000000;fill:#ffffff;fill-opacity:1;stroke:none;stroke-width:1;marker:none;visibility:visible;display:inline;overflow:visible;enable-background:accumulate"
       id="path3762"
       d="m 114,15.999987 4,0 0,1 -4,0 0,-1 z" />
    <path
       style="opacity:0.15;color:#000000;fill:#ffffff;fill-opacity:1;stroke:none;stroke-width:1;marker:none;visibility:visible;display:inline;overflow:visible;enable-background:accumulate"
       id="path3760"
       d="m 114,7.999984 4,0 0,1 -4,0 0,-1 z" />
    <path
       style="opacity:0.15;color:#000000;fill:#ffffff;fill-opacity:1;stroke:none;stroke-width:1;marker:none;visibility:visible;display:inline;overflow:visible;enable-background:accumulate"
       id="path3758"
       d="m 114,-2e-5 4,0 0,1 -4,0 0,-1 z" />
    <path
       style="opacity:0.15;color:#000000;fill:#ffffff;fill-opacity:1;stroke:none;stroke-width:1;marker:none;visibility:visible;display:inline;overflow:visible;enable-background:accumulate"
       id="path3756"
       d="m 114,-8 4,0 0,1 -4,0 0,-1 z" />
    <path
       style="opacity:0.15;color:#000000;fill:#ffffff;fill-opacity:1;stroke:none;stroke-width:1;marker:none;visibility:visible;display:inline;overflow:visible;enable-background:accumulate"
       id="path3754"
       d="m 114,-16.000026 4,0 0,1 -4,0 0,-1 z" />
    <path
       style="opacity:0.15;color:#000000;fill:#ffffff;fill-opacity:1;stroke:none;stroke-width:1;marker:none;visibility:visible;display:inline;overflow:visible;enable-background:accumulate"
       id="path3752"
       d="m 114,-24.00003 4,0 0,1 -4,0 0,-1 z" />
    <path
       style="opacity:0.15;color:#000000;fill:#ffffff;fill-opacity:1;stroke:none;stroke-width:1;marker:none;visibility:visible;display:inline;overflow:visible;enable-background:accumulate"
       id="path3750"
       d="m 114,-32.000032 4,0 0,1 -4,0 0,-1 z" />
    <path
       style="opacity:0.15;color:#000000;fill:#ffffff;fill-opacity:1;stroke:none;stroke-width:1;marker:none;visibility:visible;display:inline;overflow:visible;enable-background:accumulate"
       id="path3748"
       d="m 114,-40.000035 4,0 0,1 -4,0 0,-1 z" />
    <path
       style="opacity:0.15;color:#000000;fill:#ffffff;fill-opacity:1;stroke:none;stroke-width:1;marker:none;visibility:visible;display:inline;overflow:visible;enable-background:accumulate"
       id="path4819-4-33-6"
       d="m 114,-48.00004 4,0 0,1 -4,0 0,-1 z" />
    <path
       style="opacity:0.1;color:#000000;fill:#ffffff;fill-opacity:1;stroke:none;stroke-width:2;marker:none;visibility:visible;display:inline;overflow:visible;enable-background:accumulate"
       id="path3495"
       d="m 2,-41.999999 3.9999991,0 0,1 -3.9999991,0 0,-1 z" />
    <path
       style="opacity:0.1;color:#000000;fill:#ffffff;fill-opacity:1;stroke:none;stroke-width:2;marker:none;visibility:visible;display:inline;overflow:visible;enable-background:accumulate"
       id="path3493"
       d="m 2.0000006,-34.000744 3.9999994,0 0,1 -3.9999994,0 0,-1 z" />
    <path
       style="opacity:0.1;color:#000000;fill:#ffffff;fill-opacity:1;stroke:none;stroke-width:2;marker:none;visibility:visible;display:inline;overflow:visible;enable-background:accumulate"
       id="path3491"
       d="m 2.0000006,-25.916022 3.9999994,0 0,1 -3.9999994,0 0,-1 z" />
    <path
       style="opacity:0.1;color:#000000;fill:#ffffff;fill-opacity:1;stroke:none;stroke-width:2;marker:none;visibility:visible;display:inline;overflow:visible;enable-background:accumulate"
       id="path3489"
       d="m 2.0000006,-18.000737 3.9999994,0 0,1 -3.9999994,0 0,-1 z" />
    <path
       style="opacity:0.1;color:#000000;fill:#ffffff;fill-opacity:1;stroke:none;stroke-width:2;marker:none;visibility:visible;display:inline;overflow:visible;enable-background:accumulate"
       id="path3487"
       d="m 2.0000006,-9.916016 3.9999994,0 0,1 -3.9999994,0 0,-1 z" />
    <path
       style="opacity:0.1;color:#000000;fill:#ffffff;fill-opacity:1;stroke:none;stroke-width:2;marker:none;visibility:visible;display:inline;overflow:visible;enable-background:accumulate"
       id="path3485"
       d="m 2.0000006,-2.00073 3.9999994,0 0,1 -3.9999994,0 0,-1 z" />
    <path
       style="opacity:0.1;color:#000000;fill:#ffffff;fill-opacity:1;stroke:none;stroke-width:2;marker:none;visibility:visible;display:inline;overflow:visible;enable-background:accumulate"
       id="path3483"
       d="m 2.0000006,6.083991 3.9999994,0 0,1 -3.9999994,0 0,-1 z" />
    <path
       style="opacity:0.1;color:#000000;fill:#ffffff;fill-opacity:1;stroke:none;stroke-width:2;marker:none;visibility:visible;display:inline;overflow:visible;enable-background:accumulate"
       id="path3481"
       d="m 2.0000006,13.999275 3.9999994,0 0,1 -3.9999994,0 0,-1 z" />
    <path
       style="opacity:0.1;color:#000000;fill:#ffffff;fill-opacity:1;stroke:none;stroke-width:2;marker:none;visibility:visible;display:inline;overflow:visible;enable-background:accumulate"
       id="rect4034-50-7-1-9"
       d="m 2.0000006,22.083998 3.9999994,0 0,1 -3.9999994,0 0,-1 z" />
    <path
       style="opacity:0.15;color:#000000;fill:#000000;fill-opacity:1;stroke:none;stroke-width:2;marker:none;visibility:visible;display:inline;overflow:visible;enable-background:accumulate"
       id="path3459"
       d="m 2.0000006,-42.915336 3.9999994,0 0,1 -3.9999994,0 0,-1 z" />
    <path
       style="opacity:0.15;color:#000000;fill:#000000;fill-opacity:1;stroke:none;stroke-width:2;marker:none;visibility:visible;display:inline;overflow:visible;enable-background:accumulate"
       id="path3457"
       d="m 2.0000006,-35.000048 3.9999994,0 0,1 -3.9999994,0 0,-1 z" />
    <path
       style="opacity:0.15;color:#000000;fill:#000000;fill-opacity:1;stroke:none;stroke-width:2;marker:none;visibility:visible;display:inline;overflow:visible;enable-background:accumulate"
       id="path3455"
       d="m 2.0000006,-26.915327 3.9999994,0 0,1 -3.9999994,0 0,-1 z" />
    <path
       style="opacity:0.15;color:#000000;fill:#000000;fill-opacity:1;stroke:none;stroke-width:2;marker:none;visibility:visible;display:inline;overflow:visible;enable-background:accumulate"
       id="path3453"
       d="m 2.0000006,-19.000042 3.9999994,0 0,1 -3.9999994,0 0,-1 z" />
    <path
       style="opacity:0.15;color:#000000;fill:#000000;fill-opacity:1;stroke:none;stroke-width:2;marker:none;visibility:visible;display:inline;overflow:visible;enable-background:accumulate"
       id="path3451"
       d="m 2.0000006,-10.915321 3.9999994,0 0,1 -3.9999994,0 0,-1 z" />
    <path
       style="opacity:0.15;color:#000000;fill:#000000;fill-opacity:1;stroke:none;stroke-width:2;marker:none;visibility:visible;display:inline;overflow:visible;enable-background:accumulate"
       id="path3449"
       d="m 2.0000006,-3.000035 3.9999994,0 0,1 -3.9999994,0 0,-1 z" />
    <path
       style="opacity:0.15;color:#000000;fill:#000000;fill-opacity:1;stroke:none;stroke-width:2;marker:none;visibility:visible;display:inline;overflow:visible;enable-background:accumulate"
       id="path3447"
       d="m 2.0000006,5.084686 3.9999994,0 0,1 -3.9999994,0 0,-1 z" />
    <path
       style="opacity:0.15;color:#000000;fill:#000000;fill-opacity:1;stroke:none;stroke-width:2;marker:none;visibility:visible;display:inline;overflow:visible;enable-background:accumulate"
       id="path3445"
       d="m 2.0000006,12.999971 3.9999994,0 0,1 -3.9999994,0 0,-1 z" />
    <path
       style="opacity:0.15;color:#000000;fill:#000000;fill-opacity:1;stroke:none;stroke-width:2;marker:none;visibility:visible;display:inline;overflow:visible;enable-background:accumulate"
       id="rect4034-50-7-4"
       d="m 2.0000006,21.084692 3.9999994,0 0,1 -3.9999994,0 0,-1 z" />
    <g
       id="g3570"
       transform="matrix(0,0.6666663,-1,0,35.587908,28.002604)">
      <path
         style="opacity:0.1;color:#000000;fill:#ffffff;fill-opacity:1;stroke:none;stroke-width:2;marker:none;visibility:visible;display:inline;overflow:visible;enable-background:accumulate"
         id="path3495-9"
         d="m 1.4960944,-41.496089 6.000002,0 0,1 -6.000002,0 0,-1 z" />
      <path
         style="opacity:0.1;color:#000000;fill:#ffffff;fill-opacity:1;stroke:none;stroke-width:2;marker:none;visibility:visible;display:inline;overflow:visible;enable-background:accumulate"
         id="path3493-2"
         d="m 1.4960953,-33.496834 6.0000024,0 0,1 -6.0000024,0 0,-1 z" />
      <path
         style="opacity:0.1;color:#000000;fill:#ffffff;fill-opacity:1;stroke:none;stroke-width:2;marker:none;visibility:visible;display:inline;overflow:visible;enable-background:accumulate"
         id="path3491-7"
         d="m 1.4960953,-25.412112 6.0000024,0 0,1 -6.0000024,0 0,-1 z" />
      <path
         style="opacity:0.1;color:#000000;fill:#ffffff;fill-opacity:1;stroke:none;stroke-width:2;marker:none;visibility:visible;display:inline;overflow:visible;enable-background:accumulate"
         id="path3489-3"
         d="m 1.4960953,-17.496827 6.0000024,0 0,1 -6.0000024,0 0,-1 z" />
      <path
         style="opacity:0.1;color:#000000;fill:#ffffff;fill-opacity:1;stroke:none;stroke-width:2;marker:none;visibility:visible;display:inline;overflow:visible;enable-background:accumulate"
         id="path3487-6"
         d="m 1.4960953,-9.412106 6.0000024,0 0,1 -6.0000024,0 0,-1 z" />
      <path
         style="opacity:0.1;color:#000000;fill:#ffffff;fill-opacity:1;stroke:none;stroke-width:2;marker:none;visibility:visible;display:inline;overflow:visible;enable-background:accumulate"
         id="path3485-4"
         d="m 1.4960953,-1.49682 6.0000024,0 0,1.00000004 -6.0000024,0 0,-1.00000004 z" />
      <path
         style="opacity:0.1;color:#000000;fill:#ffffff;fill-opacity:1;stroke:none;stroke-width:2;marker:none;visibility:visible;display:inline;overflow:visible;enable-background:accumulate"
         id="path3483-7"
         d="m 1.4960953,6.587901 6.0000024,0 0,1 -6.0000024,0 0,-1 z" />
      <path
         style="opacity:0.1;color:#000000;fill:#ffffff;fill-opacity:1;stroke:none;stroke-width:2;marker:none;visibility:visible;display:inline;overflow:visible;enable-background:accumulate"
         id="path3481-9"
         d="m 1.4960953,14.503185 6.0000024,0 0,1 -6.0000024,0 0,-1 z" />
      <path
         style="opacity:0.1;color:#000000;fill:#ffffff;fill-opacity:1;stroke:none;stroke-width:2;marker:none;visibility:visible;display:inline;overflow:visible;enable-background:accumulate"
         id="rect4034-50-7-1-9-7"
         d="m 1.4960953,22.587908 6.0000024,0 0,1 -6.0000024,0 0,-1 z" />
      <path
         style="opacity:0.15;color:#000000;fill:#000000;fill-opacity:1;stroke:none;stroke-width:2;marker:none;visibility:visible;display:inline;overflow:visible;enable-background:accumulate"
         id="path3459-2"
         d="m 1.4960953,-42.411426 6.0000024,0 0,1 -6.0000024,0 0,-1 z" />
      <path
         style="opacity:0.15;color:#000000;fill:#000000;fill-opacity:1;stroke:none;stroke-width:2;marker:none;visibility:visible;display:inline;overflow:visible;enable-background:accumulate"
         id="path3457-2"
         d="m 1.4960953,-34.496138 6.0000024,0 0,1 -6.0000024,0 0,-1 z" />
      <path
         style="opacity:0.15;color:#000000;fill:#000000;fill-opacity:1;stroke:none;stroke-width:2;marker:none;visibility:visible;display:inline;overflow:visible;enable-background:accumulate"
         id="path3455-1"
         d="m 1.4960953,-26.411417 6.0000024,0 0,1 -6.0000024,0 0,-1 z" />
      <path
         style="opacity:0.15;color:#000000;fill:#000000;fill-opacity:1;stroke:none;stroke-width:2;marker:none;visibility:visible;display:inline;overflow:visible;enable-background:accumulate"
         id="path3453-6"
         d="m 1.4960953,-18.496132 6.0000024,0 0,1 -6.0000024,0 0,-1 z" />
      <path
         style="opacity:0.15;color:#000000;fill:#000000;fill-opacity:1;stroke:none;stroke-width:2;marker:none;visibility:visible;display:inline;overflow:visible;enable-background:accumulate"
         id="path3451-3"
         d="m 1.4960953,-10.411411 6.0000024,0 0,1 -6.0000024,0 0,-1 z" />
      <path
         style="opacity:0.15;color:#000000;fill:#000000;fill-opacity:1;stroke:none;stroke-width:2;marker:none;visibility:visible;display:inline;overflow:visible;enable-background:accumulate"
         id="path3449-0"
         d="m 1.4960953,-2.496125 6.0000024,0 0,1 -6.0000024,0 0,-1 z" />
      <path
         style="opacity:0.15;color:#000000;fill:#000000;fill-opacity:1;stroke:none;stroke-width:2;marker:none;visibility:visible;display:inline;overflow:visible;enable-background:accumulate"
         id="path3447-2"
         d="m 1.4960953,5.588596 6.0000024,0 0,1 -6.0000024,0 0,-1 z" />
      <path
         style="opacity:0.15;color:#000000;fill:#000000;fill-opacity:1;stroke:none;stroke-width:2;marker:none;visibility:visible;display:inline;overflow:visible;enable-background:accumulate"
         id="path3445-1"
         d="m 1.4960953,13.503881 6.0000024,0 0,1 -6.0000024,0 0,-1 z" />
      <path
         style="opacity:0.15;color:#000000;fill:#000000;fill-opacity:1;stroke:none;stroke-width:2;marker:none;visibility:visible;display:inline;overflow:visible;enable-background:accumulate"
         id="rect4034-50-7-4-5"
         d="m 1.4960953,21.588602 6.0000024,0 0,1 -6.0000024,0 0,-1 z" />
    </g>
  </g>
</svg>
