<?xml version="1.0" encoding="UTF-8" standalone="no"?>
<svg
   version="1.0"
   width="128"
   height="128"
   id="svg3051"
   sodipodi:docname="time-admin.svg"
   inkscape:version="1.2.2 (b0a8486541, 2022-12-01)"
   xmlns:inkscape="http://www.inkscape.org/namespaces/inkscape"
   xmlns:sodipodi="http://sodipodi.sourceforge.net/DTD/sodipodi-0.dtd"
   xmlns:xlink="http://www.w3.org/1999/xlink"
   xmlns="http://www.w3.org/2000/svg"
   xmlns:svg="http://www.w3.org/2000/svg"
   xmlns:rdf="http://www.w3.org/1999/02/22-rdf-syntax-ns#"
   xmlns:cc="http://creativecommons.org/ns#"
   xmlns:dc="http://purl.org/dc/elements/1.1/">
  <sodipodi:namedview
     id="namedview4407"
     pagecolor="#ffffff"
     bordercolor="#000000"
     borderopacity="0.25"
     inkscape:showpageshadow="2"
     inkscape:pageopacity="0.0"
     inkscape:pagecheckerboard="0"
     inkscape:deskcolor="#d1d1d1"
     showgrid="false"
     inkscape:zoom="6.1135276"
     inkscape:cx="71.726183"
     inkscape:cy="39.420776"
     inkscape:window-width="1278"
     inkscape:window-height="1005"
     inkscape:window-x="556"
     inkscape:window-y="18"
     inkscape:window-maximized="0"
     inkscape:current-layer="svg3051" />
  <metadata
     id="metadata147845">
    <rdf:RDF>
      <cc:Work
         rdf:about="">
        <dc:format>image/svg+xml</dc:format>
        <dc:type
           rdf:resource="http://purl.org/dc/dcmitype/StillImage" />
      </cc:Work>
    </rdf:RDF>
  </metadata>
  <defs
     id="defs3053">
    <linearGradient
       inkscape:collect="always"
       id="linearGradient5395">
      <stop
         style="stop-color:#ff8c82;stop-opacity:1"
         offset="0"
         id="stop5391" />
      <stop
         style="stop-color:#ed5353;stop-opacity:1"
         offset="1"
         id="stop5393" />
    </linearGradient>
    <linearGradient
       id="linearGradient5060">
      <stop
         id="stop5062"
         style="stop-color:black;stop-opacity:1"
         offset="0" />
      <stop
         id="stop5064"
         style="stop-color:black;stop-opacity:0"
         offset="1" />
    </linearGradient>
    <linearGradient
       id="linearGradient5048">
      <stop
         id="stop5050"
         style="stop-color:black;stop-opacity:0"
         offset="0" />
      <stop
         id="stop5056"
         style="stop-color:black;stop-opacity:1"
         offset="0.5" />
      <stop
         id="stop5052"
         style="stop-color:black;stop-opacity:0"
         offset="1" />
    </linearGradient>
    <linearGradient
       id="linearGradient3600">
      <stop
         id="stop3602"
         style="stop-color:white;stop-opacity:1"
         offset="0" />
      <stop
         id="stop3604"
         style="stop-color:#d4d4d4;stop-opacity:1"
         offset="1" />
    </linearGradient>
    <linearGradient
       x1="302.85715"
       y1="366.64789"
       x2="302.85715"
       y2="609.50507"
       id="linearGradient5583"
       xlink:href="#linearGradient5048"
       gradientUnits="userSpaceOnUse"
       gradientTransform="matrix(2.774389,0,0,1.969706,-1892.179,-872.8854)" />
    <radialGradient
       cx="605.71429"
       cy="486.64789"
       r="117.14286"
       fx="605.71429"
       fy="486.64789"
       id="radialGradient5585"
       xlink:href="#linearGradient5060"
       gradientUnits="userSpaceOnUse"
       gradientTransform="matrix(2.774389,0,0,1.969706,-1891.633,-872.8854)" />
    <radialGradient
       cx="605.71429"
       cy="486.64789"
       r="117.14286"
       fx="605.71429"
       fy="486.64789"
       id="radialGradient5587"
       xlink:href="#linearGradient5060"
       gradientUnits="userSpaceOnUse"
       gradientTransform="matrix(-2.774389,0,0,1.969706,112.7623,-872.8854)" />
    <linearGradient
       id="linearGradient3520">
      <stop
         id="stop3522"
         style="stop-color:#f2f2f2;stop-opacity:1"
         offset="0" />
      <stop
         id="stop3524"
         style="stop-color:#999;stop-opacity:1"
         offset="1" />
    </linearGradient>
    <linearGradient
       id="linearGradient3308-4-6">
      <stop
         id="stop3310-1-4"
         style="stop-color:white;stop-opacity:1"
         offset="0" />
      <stop
         id="stop3312-5-3"
         style="stop-color:white;stop-opacity:0"
         offset="1" />
    </linearGradient>
    <linearGradient
       id="linearGradient3600-1">
      <stop
         id="stop3602-9"
         style="stop-color:#f4f4f4;stop-opacity:1"
         offset="0" />
      <stop
         id="stop3604-6"
         style="stop-color:#dbdbdb;stop-opacity:1"
         offset="1" />
    </linearGradient>
    <linearGradient
       x1="23.99999"
       y1="4.999989"
       x2="23.99999"
       y2="43"
       id="linearGradient3199"
       xlink:href="#linearGradient3308-4-6"
       gradientUnits="userSpaceOnUse"
       gradientTransform="matrix(2.1351364,0,0,2.0810805,23.756756,9.0540787)" />
    <linearGradient
       x1="19.15583"
       y1="9.9175043"
       x2="19.15583"
       y2="42.730251"
       id="linearGradient3212"
       xlink:href="#linearGradient3600-1"
       gradientUnits="userSpaceOnUse"
       gradientTransform="matrix(2.0769232,0,0,1.7179485,25.153849,22.107223)" />
    <radialGradient
       cx="14"
       cy="6.7419577"
       r="2"
       fx="14"
       fy="6.7419577"
       id="radialGradient3990"
       xlink:href="#linearGradient3520"
       gradientUnits="userSpaceOnUse"
       gradientTransform="matrix(1.7746314,-3.6582155e-8,6.0984916e-8,3.1482616,-10.014682,-14.079415)"
       spreadMethod="reflect" />
    <linearGradient
       inkscape:collect="always"
       xlink:href="#linearGradient5395"
       id="linearGradient5397"
       x1="14"
       y1="1.50518"
       x2="14"
       y2="7.0051799"
       gradientUnits="userSpaceOnUse"
       gradientTransform="matrix(4.7574517,0,0,4.9833356,8.3340175,11.999182)" />
    <radialGradient
       inkscape:collect="always"
       xlink:href="#linearGradient3520"
       id="radialGradient34704"
       gradientUnits="userSpaceOnUse"
       gradientTransform="matrix(1.7746314,-3.6582155e-8,6.0984916e-8,3.1482616,-10.014682,-13.519487)"
       cx="14"
       cy="6.7419577"
       fx="14"
       fy="6.7419577"
       r="2"
       spreadMethod="reflect" />
    <linearGradient
       x1="15.655657"
       y1="4.1476793"
       x2="15.655657"
       y2="44.785629"
       id="linearGradient5718"
       xlink:href="#linearGradient37935"
       gradientUnits="userSpaceOnUse"
       gradientTransform="matrix(0.29365543,0,0,0.29488301,1.0217782,9.1211978)" />
    <linearGradient
       id="linearGradient37935">
      <stop
         id="stop37937"
         style="stop-color:#7c7c7c;stop-opacity:1"
         offset="0" />
      <stop
         id="stop37939"
         style="stop-color:#242424;stop-opacity:1"
         offset="1" />
    </linearGradient>
    <linearGradient
       inkscape:collect="always"
       xlink:href="#linearGradient3600"
       id="linearGradient41491"
       x1="6.9022565"
       y1="10.33161"
       x2="6.9022565"
       y2="21.912668"
       gradientUnits="userSpaceOnUse"
       gradientTransform="matrix(0.92496282,0,0,0.92467328,0.70507155,1.0766)" />
    <linearGradient
       x1="23.414803"
       y1="16"
       x2="23.414803"
       y2="20.000023"
       id="linearGradient3155"
       xlink:href="#linearGradient5060"
       gradientUnits="userSpaceOnUse"
       gradientTransform="matrix(2,0,0,1.25,26.99999,19.999996)" />
  </defs>
  <g
     transform="matrix(0.04137047,0,0,0.01881439,113.79637,96.83527)"
     id="g5022"
     style="display:inline;opacity:0.587302;stroke-width:0.224197">
    <rect
       width="1339.6335"
       height="478.35718"
       x="-1559.2523"
       y="-150.69685"
       id="rect4173"
       style="display:inline;overflow:visible;visibility:visible;opacity:0.402062;fill:url(#linearGradient5583);fill-opacity:1;fill-rule:nonzero;stroke:none;stroke-width:0.224197;marker:none" />
    <path
       d="m -219.61876,-150.68038 c 0,0 0,478.33079 0,478.33079 142.874166,0.90045 345.40022,-107.16966 345.40014,-239.196175 0,-132.026537 -159.436816,-239.134595 -345.40014,-239.134615 z"
       id="path5058"
       style="display:inline;overflow:visible;visibility:visible;opacity:0.402062;fill:url(#radialGradient5585);fill-opacity:1;fill-rule:nonzero;stroke:none;stroke-width:0.224197;marker:none" />
    <path
       d="m -1559.2523,-150.68038 c 0,0 0,478.33079 0,478.33079 -142.8742,0.90045 -345.4002,-107.16966 -345.4002,-239.196175 0,-132.026537 159.4368,-239.134595 345.4002,-239.134615 z"
       id="path5018"
       style="display:inline;overflow:visible;visibility:visible;opacity:0.402062;fill:url(#radialGradient5587);fill-opacity:1;fill-rule:nonzero;stroke:none;stroke-width:0.224197;marker:none" />
  </g>
  <g
     transform="matrix(0.48021837,0,0,0.19937837,2.4877163,11.816716)"
     id="g2036"
     style="display:inline">
    <g
       transform="matrix(1.052632,0,0,1.285713,-1.263158,-13.42854)"
       id="g3712"
       style="opacity:0.4" />
  </g>
  <rect
     width="81"
     height="67"
     rx="8"
     ry="8"
     x="34.5"
     y="31.499996"
     id="rect5505"
     style="fill:url(#linearGradient3212);fill-opacity:1;stroke:#000000;stroke-width:0.999998;stroke-linecap:round;stroke-linejoin:round;stroke-miterlimit:4;stroke-dasharray:none;stroke-dashoffset:0;stroke-opacity:0.38" />
  <path
     d="m 42.5,19.499999 c -4.346608,0 -8,3.497091 -8,8.000001 v 12 h 81.00001 v -12 c 0,-4.288835 -3.45267,-8.000001 -8.00001,-8.000001 z"
     id="rect2424"
     style="fill:url(#linearGradient5397);fill-opacity:1;stroke:#7a0000;stroke-width:0.999996;stroke-linecap:butt;stroke-linejoin:miter;stroke-miterlimit:4;stroke-dasharray:none;stroke-dashoffset:0;stroke-opacity:0.5"
     sodipodi:nodetypes="ssccsss" />
  <rect
     width="79"
     height="77"
     x="35.5"
     y="20.5"
     id="rect6741"
     style="opacity:0.4;fill:none;stroke:url(#linearGradient3199);stroke-width:1;stroke-linecap:round;stroke-linejoin:round;stroke-miterlimit:4;stroke-dasharray:none;stroke-dashoffset:0;stroke-opacity:1"
     rx="7"
     ry="7" />
  <g
     transform="matrix(1.6397496,0,0,1.7859449,31.682255,13.482825)"
     id="g3541"
     style="stroke-width:0;stroke-dasharray:none">
    <rect
       width="4.8787937"
       height="8.3989153"
       rx="2.4393969"
       ry="2.3996899"
       x="12.39076"
       y="3.0892189"
       id="rect3497"
       style="display:inline;overflow:visible;visibility:visible;opacity:0.4;fill:#ffffff;fill-opacity:1;fill-rule:nonzero;stroke:none;stroke-width:0;stroke-dasharray:none;marker:none;enable-background:accumulate" />
    <rect
       width="4.8787937"
       height="4.4794216"
       rx="3.6590953"
       ry="3.3595662"
       x="12.39076"
       y="5.8888574"
       id="rect3493"
       style="display:inline;overflow:visible;visibility:visible;fill:#c6262e;fill-opacity:1;fill-rule:nonzero;stroke:none;stroke-width:0;stroke-dasharray:none;marker:none;enable-background:accumulate" />
    <rect
       width="4.8787937"
       height="8.3989153"
       rx="2.4393969"
       ry="2.2397108"
       x="12.39076"
       y="0.84950829"
       id="rect3483"
       style="display:inline;overflow:visible;visibility:visible;fill:url(#radialGradient3990);fill-opacity:1;fill-rule:nonzero;stroke:none;stroke-width:0;stroke-dasharray:none;marker:none;enable-background:accumulate" />
  </g>
  <g
     transform="matrix(0.61490612,0,0,0.51026998,3.0590351,1.4913087)"
     id="g3536"
     style="stroke-width:0.814845" />
  <path
     d="m 47.999998,83.517245 v -4.706892 q 1.385259,-2.920687 3.929097,-5.696547 2.569025,-2.775859 6.447749,-5.793097 3.727605,-2.89655 5.21361,-4.779307 1.51119,-1.882757 1.51119,-3.6931 0,-4.441375 -4.659505,-4.441375 -2.266787,0 -3.47574,1.182758 -1.183767,1.158619 -1.536378,3.499996 l -7.127785,-0.386206 q 0.604476,-4.73103 3.677233,-7.217235 3.097941,-2.486204 8.412296,-2.486204 5.742526,0 8.815283,2.510342 3.072755,2.510343 3.072755,7.048269 0,2.389654 -0.982275,4.320686 -0.982274,1.931033 -2.518651,3.572411 -1.536378,1.61724 -3.425367,3.041376 -1.863803,1.424137 -3.626859,2.77586 -1.763056,1.351723 -3.223875,2.727583 -1.435631,1.375861 -2.140854,2.944826 h 16.471984 v 5.575856 z"
     id="path37734"
     style="font-weight:bold;font-size:50.4968px;font-family:Arial;-inkscape-font-specification:'Arial Bold';fill:#4d4d4d" />
  <path
     d="m 101.9999,73.934495 q 0,4.779306 -3.299439,7.434477 -3.299434,2.631031 -9.419758,2.631031 -6.069951,0 -9.419758,-2.631031 -3.324621,-2.631032 -3.324621,-7.3862 0,-3.258619 1.964549,-5.479306 1.964548,-2.244825 5.263982,-2.775859 v -0.09656 q -2.871263,-0.603448 -4.634319,-2.727584 -1.763057,-2.124136 -1.763057,-4.899995 0,-4.175859 3.072756,-6.589649 3.097941,-2.413791 8.739722,-2.413791 5.767712,0 8.840469,2.365515 3.097944,2.341377 3.097944,6.6862 0,2.77586 -1.763059,4.875858 -1.73787,2.099998 -4.684693,2.65517 v 0.09656 q 3.425366,0.531034 5.364732,2.703446 1.96455,2.148274 1.96455,5.551718 z m -7.329282,-0.555171 q 0,-5.334478 -5.541033,-5.334478 -2.569026,0 -3.954284,1.399998 -1.360073,1.399999 -1.360073,4.031031 0,2.993101 1.360073,4.368962 1.360072,1.375861 4.155776,1.375861 2.745329,0 4.029842,-1.375861 1.309699,-1.375861 1.309699,-4.465513 z M 93.839463,58.41382 q 0,-2.413791 -1.15858,-3.524135 -1.15858,-1.134481 -3.500926,-1.134481 -4.583947,0 -4.583947,4.658616 0,4.875858 4.63432,4.875858 2.31716,0 3.450553,-1.134482 1.15858,-1.134482 1.15858,-3.741376 z"
     id="path37736"
     style="font-weight:bold;font-size:50.4968px;font-family:Arial;-inkscape-font-specification:'Arial Bold';fill:#4d4d4d" />
  <g
     transform="matrix(4.7948967,0,0,4.7751668,3.8605378,6.1043449)"
     id="g6754"
     style="stroke-width:0.208985;stroke-dasharray:none">
    <path
       d="m 13.797239,16.312449 c 0,3.240699 -2.61622,5.867826 -5.8429868,5.867826 -3.2270629,0 -5.8431345,-2.627156 -5.8431345,-5.867826 0,-3.240552 2.6160716,-5.867412 5.8431345,-5.867412 3.2267668,0 5.8429868,2.62686 5.8429868,5.867412 z"
       id="path6495"
       style="fill:url(#linearGradient5718);fill-opacity:1;fill-rule:nonzero;stroke:#000000;stroke-width:0.201518;stroke-miterlimit:4;stroke-dasharray:none;stroke-opacity:0.6" />
    <path
       d="m 12.9595,16.312657 c 0,2.775782 -2.240959,5.026002 -5.0053214,5.026002 -2.7643633,0 -5.0053221,-2.25022 -5.0053221,-5.026002 0,-2.775785 2.2409588,-5.026003 5.0053221,-5.026003 2.7643624,0 5.0053214,2.25022 5.0053214,5.026003 z"
       id="path35549"
       style="fill:url(#linearGradient41491);fill-opacity:1;fill-rule:evenodd;stroke:none;stroke-width:0.199478;stroke-linecap:round;stroke-linejoin:bevel;stroke-miterlimit:4;stroke-dasharray:none;stroke-dashoffset:0;stroke-opacity:1" />
    <path
       d="M 7.5287933,17.109565 10.114508,13.4429"
       id="path2312"
       style="fill:none;stroke:#000000;stroke-width:0.417971;stroke-linecap:round;stroke-linejoin:miter;stroke-miterlimit:4;stroke-dasharray:none;stroke-opacity:1"
       inkscape:transform-center-x="-2.513705"
       inkscape:transform-center-y="-3.8174437" />
    <path
       d="M 8.1695637,17.084376 5.9973696,14.86792"
       id="path2314"
       style="fill:none;stroke:#000000;stroke-width:0.417971;stroke-linecap:round;stroke-linejoin:miter;stroke-miterlimit:4;stroke-dasharray:none;stroke-opacity:1" />
    <path
       d="M 7.5587865,16.879434 10.755139,15.550449"
       id="path2316"
       style="fill:#ff0000;fill-rule:evenodd;stroke:#ff0000;stroke-width:0.417971;stroke-linecap:round;stroke-linejoin:miter;stroke-miterlimit:4;stroke-dasharray:none;stroke-opacity:1"
       inkscape:transform-center-x="-3.3812064"
       inkscape:transform-center-y="-1.3996189" />
    <rect
       style="opacity:1;fill:#4d4d4d;fill-opacity:1;stroke-width:0.208986;stroke-linecap:round;stroke-linejoin:round;stroke-dasharray:none;stroke-opacity:0.6;paint-order:markers fill stroke;stop-color:#000000"
       id="rect26998"
       width="1.4598855"
       height="0.41883352"
       x="3.9916317"
       y="16.312656"
       rx="0.20855507"
       ry="0.20941676" />
    <rect
       style="opacity:1;fill:#4d4d4d;fill-opacity:1;stroke-width:0.208985;stroke-linecap:round;stroke-linejoin:round;stroke-dasharray:none;stroke-opacity:0.6;paint-order:markers fill stroke;stop-color:#000000"
       id="rect27321"
       width="1.4598855"
       height="0.41883352"
       x="10.456839"
       y="16.312656"
       rx="0.20855507"
       ry="0.20941676" />
    <rect
       style="opacity:1;fill:#4d4d4d;fill-opacity:1;stroke-width:0.208985;stroke-linecap:round;stroke-linejoin:round;stroke-dasharray:none;stroke-opacity:0.6;paint-order:markers fill stroke;stop-color:#000000"
       id="rect27327"
       width="1.4659173"
       height="0.41711015"
       x="12.543155"
       y="-8.1627331"
       rx="0.20941676"
       ry="0.20855507"
       transform="rotate(90)" />
    <rect
       style="opacity:1;fill:#4d4d4d;fill-opacity:1;stroke-width:0.208985;stroke-linecap:round;stroke-linejoin:round;stroke-dasharray:none;stroke-opacity:0.6;paint-order:markers fill stroke;stop-color:#000000"
       id="rect27329"
       width="1.4659173"
       height="0.41711015"
       x="18.825657"
       y="-8.1627331"
       rx="0.20941676"
       ry="0.20855507"
       transform="rotate(90)" />
  </g>
  <g
     transform="matrix(1.6397496,0,0,1.7859449,71.682256,12.482825)"
     id="g34702"
     style="stroke-width:0;stroke-dasharray:none">
    <rect
       width="4.8787937"
       height="8.3989153"
       rx="2.4393969"
       ry="2.3996899"
       x="12.39076"
       y="3.6491466"
       id="rect34696"
       style="display:inline;overflow:visible;visibility:visible;opacity:0.4;fill:#ffffff;fill-opacity:1;fill-rule:nonzero;stroke:none;stroke-width:0;stroke-dasharray:none;marker:none;enable-background:accumulate" />
    <rect
       width="4.8787937"
       height="4.4794216"
       rx="3.6590953"
       ry="3.3595662"
       x="12.39076"
       y="6.4487848"
       id="rect34698"
       style="display:inline;overflow:visible;visibility:visible;fill:#c6262e;fill-opacity:1;fill-rule:nonzero;stroke:none;stroke-width:0;stroke-dasharray:none;marker:none;enable-background:accumulate" />
    <rect
       width="4.8787937"
       height="8.3989153"
       rx="2.4393969"
       ry="2.2397108"
       x="12.39076"
       y="1.409436"
       id="rect34700"
       style="display:inline;overflow:visible;visibility:visible;fill:url(#radialGradient34704);fill-opacity:1;fill-rule:nonzero;stroke:none;stroke-width:0;stroke-dasharray:none;marker:none;enable-background:accumulate" />
  </g>
  <rect
     width="80.000015"
     height="5"
     rx="0"
     ry="0"
     x="35"
     y="40"
     id="rect3508"
     style="display:inline;overflow:visible;visibility:visible;opacity:0.15;fill:url(#linearGradient3155);fill-opacity:1;fill-rule:nonzero;stroke:none;stroke-width:1;stroke-dasharray:none;marker:none;enable-background:accumulate" />
  <rect
     style="fill:#ffffff;fill-opacity:0.2;stroke:none;stroke-width:1;stroke-linecap:round;stroke-linejoin:round;stroke-opacity:0.5;paint-order:markers fill stroke;stop-color:#000000"
     id="rect12168"
     width="78.000015"
     height="1"
     x="36"
     y="38" />
</svg>
