<?xml version="1.0" encoding="UTF-8" standalone="no"?>
<svg
   version="1.0"
   width="128"
   height="128"
   id="svg3367"
   sodipodi:docname="ubiquity.svg"
   inkscape:version="1.1.2 (0a00cf5339, 2022-02-04)"
   xmlns:inkscape="http://www.inkscape.org/namespaces/inkscape"
   xmlns:sodipodi="http://sodipodi.sourceforge.net/DTD/sodipodi-0.dtd"
   xmlns:xlink="http://www.w3.org/1999/xlink"
   xmlns="http://www.w3.org/2000/svg"
   xmlns:svg="http://www.w3.org/2000/svg"
   xmlns:rdf="http://www.w3.org/1999/02/22-rdf-syntax-ns#"
   xmlns:cc="http://creativecommons.org/ns#"
   xmlns:dc="http://purl.org/dc/elements/1.1/">
  <sodipodi:namedview
     id="namedview90"
     pagecolor="#ffffff"
     bordercolor="#666666"
     borderopacity="1.0"
     inkscape:pageshadow="2"
     inkscape:pageopacity="0.0"
     inkscape:pagecheckerboard="0"
     showgrid="false"
     inkscape:zoom="3.9111844"
     inkscape:cx="110.06896"
     inkscape:cy="102.01513"
     inkscape:window-width="1317"
     inkscape:window-height="893"
     inkscape:window-x="424"
     inkscape:window-y="71"
     inkscape:window-maximized="0"
     inkscape:current-layer="svg3367" />
  <metadata
     id="metadata49726">
    <rdf:RDF>
      <cc:Work
         rdf:about="">
        <dc:format>image/svg+xml</dc:format>
        <dc:type
           rdf:resource="http://purl.org/dc/dcmitype/StillImage" />
      </cc:Work>
    </rdf:RDF>
  </metadata>
  <defs
     id="defs3369">
    <linearGradient
       id="linearGradient3707-319-631-407-324-3-8-4">
      <stop
         offset="0"
         style="stop-color:#185f9a;stop-opacity:1"
         id="stop3760-7-3-4" />
      <stop
         offset="1"
         style="stop-color:#599ec9;stop-opacity:1"
         id="stop3762-8-4-6" />
    </linearGradient>
    <linearGradient
       id="linearGradient2867-449-88-871-390-598-476-591-434-148-57-177-3-8-5">
      <stop
         offset="0"
         style="stop-color:#90dbec;stop-opacity:1"
         id="stop3750-8-9-1" />
      <stop
         offset="0.26238"
         style="stop-color:#42baea;stop-opacity:1"
         id="stop3752-3-2-2" />
      <stop
         offset="0.704952"
         style="stop-color:#3689e6;stop-opacity:1"
         id="stop3754-7-2-5" />
      <stop
         offset="1"
         style="stop-color:#2b63a0;stop-opacity:1"
         id="stop3756-9-3-2" />
    </linearGradient>
    <linearGradient
       id="linearGradient4011-2">
      <stop
         offset="0"
         style="stop-color:#ffffff;stop-opacity:1"
         id="stop4013-7" />
      <stop
         offset="0.507761"
         style="stop-color:#ffffff;stop-opacity:0.23529412"
         id="stop4015-9" />
      <stop
         offset="0.83456558"
         style="stop-color:#ffffff;stop-opacity:0.15686275"
         id="stop4017-5" />
      <stop
         offset="1"
         style="stop-color:#ffffff;stop-opacity:0.39215687"
         id="stop4019-6" />
    </linearGradient>
    <linearGradient
       xlink:href="#linearGradient4011-2"
       id="linearGradient3122"
       gradientUnits="userSpaceOnUse"
       gradientTransform="matrix(1.7027027,0,0,1.7027027,-34.140852,45.824176)"
       x1="71.204407"
       y1="6.2375584"
       x2="71.204407"
       y2="44.340794" />
    <radialGradient
       xlink:href="#linearGradient2867-449-88-871-390-598-476-591-434-148-57-177-3-8-5"
       id="radialGradient3125"
       gradientUnits="userSpaceOnUse"
       gradientTransform="matrix(0,3.5498531,-3.7553211,-9.6621544e-8,119.73176,30.366627)"
       cx="6.0693989"
       cy="8.4497671"
       fx="6.0693989"
       fy="8.4497671"
       r="19.99999" />
    <linearGradient
       xlink:href="#linearGradient3707-319-631-407-324-3-8-4"
       id="linearGradient3127"
       gradientUnits="userSpaceOnUse"
       gradientTransform="matrix(1.6668213,0,0,1.6668213,47.99631,48.996277)"
       x1="24"
       y1="44"
       x2="24"
       y2="3.8990016" />
    <linearGradient
       xlink:href="#linearGradient3742"
       id="linearGradient3730"
       gradientUnits="userSpaceOnUse"
       gradientTransform="matrix(1.7339903,0,0,3.0819181,-140.98913,-3.5238899)"
       x1="118.57409"
       y1="3.7037382"
       x2="118.79462"
       y2="32.292839" />
    <linearGradient
       id="linearGradient3742">
      <stop
         offset="0"
         style="stop-color:#ffffff;stop-opacity:1"
         id="stop3734" />
      <stop
         offset="0.01900466"
         style="stop-color:#ffffff;stop-opacity:0.23529412"
         id="stop3736" />
      <stop
         offset="0.9812181"
         style="stop-color:#ffffff;stop-opacity:0.15686275"
         id="stop3738" />
      <stop
         offset="1"
         style="stop-color:#ffffff;stop-opacity:0.39215687"
         id="stop3740" />
    </linearGradient>
    <linearGradient
       gradientTransform="matrix(2.4795045,0,0,2.1356709,24.785117,-2.8194939)"
       gradientUnits="userSpaceOnUse"
       xlink:href="#linearGradient3600-8"
       id="linearGradient5466-8-3"
       y2="45.68882"
       x2="11.098394"
       y1="5.9702148"
       x1="11.098394" />
    <linearGradient
       id="linearGradient3600-8">
      <stop
         offset="0"
         style="stop-color:#f4f4f4;stop-opacity:1"
         id="stop3602-2" />
      <stop
         offset="1"
         style="stop-color:#dbdbdb;stop-opacity:1"
         id="stop3604-5" />
    </linearGradient>
    <linearGradient
       xlink:href="#linearGradient4614"
       id="linearGradient4604"
       gradientUnits="userSpaceOnUse"
       gradientTransform="matrix(1.769231,0,0,3.1538457,-144.7081,2.1651309)"
       x1="116.83477"
       y1="-38.101143"
       x2="116.7913"
       y2="-26.979191" />
    <linearGradient
       id="linearGradient4614">
      <stop
         id="stop4606"
         style="stop-color:#ffffff;stop-opacity:1"
         offset="0" />
      <stop
         id="stop4608"
         style="stop-color:#ffffff;stop-opacity:0.23529412"
         offset="0.03153139" />
      <stop
         id="stop4610"
         style="stop-color:#ffffff;stop-opacity:0.15686275"
         offset="0.9812181" />
      <stop
         id="stop4612"
         style="stop-color:#ffffff;stop-opacity:0.39215687"
         offset="1" />
    </linearGradient>
    <linearGradient
       gradientTransform="matrix(2.5999998,0,0,2.6000002,-20.400398,-3.7999923)"
       xlink:href="#linearGradient7056"
       id="linearGradient4763"
       x1="25"
       y1="-35"
       x2="25"
       y2="-44.395805"
       gradientUnits="userSpaceOnUse" />
    <linearGradient
       id="linearGradient7056">
      <stop
         offset="0"
         style="stop-color:#e6e6e6;stop-opacity:1"
         id="stop7064" />
      <stop
         offset="1"
         style="stop-color:#c8c8c8;stop-opacity:1"
         id="stop7060" />
    </linearGradient>
    <radialGradient
       id="radialGradient7374"
       gradientUnits="userSpaceOnUse"
       cy="41.636002"
       cx="23.334999"
       gradientTransform="matrix(1.2816215,0,0,0.2871899,13.094313,106.54209)"
       r="22.627001">
      <stop
         id="stop23421-3"
         offset="0" />
      <stop
         id="stop23423-6"
         style="stop-opacity:0"
         offset="1" />
    </radialGradient>
    <radialGradient
       id="radialGradient7374-3"
       gradientUnits="userSpaceOnUse"
       cy="41.636002"
       cx="23.334999"
       gradientTransform="matrix(1.14904,0,0,0.37565594,61.188003,102.85861)"
       r="22.627001">
      <stop
         id="stop23421-3-6"
         offset="0" />
      <stop
         id="stop23423-6-7"
         style="stop-opacity:0"
         offset="1" />
    </radialGradient>
  </defs>
  <path
     id="path23417"
     style="opacity:0.3;fill:url(#radialGradient7374);fill-rule:evenodd;stroke-width:1"
     d="m 71.999999,118.49998 a 29,6.4982711 0 1 1 -57.999998,0 29,6.4982711 0 1 1 57.999998,0 z" />
  <path
     id="path23417-5"
     style="opacity:0.15;fill:url(#radialGradient7374-3);fill-rule:evenodd;stroke-width:0.999999"
     d="m 114,118.5 a 26,8.5 0 1 1 -52,0 26,8.5 0 1 1 52,0 z" />
  <rect
     id="rect3448"
     style="fill:url(#linearGradient4763);fill-opacity:1;stroke:#000000;stroke-width:1;stroke-opacity:0.293023"
     transform="scale(1,-1)"
     rx="1.0000001"
     ry="1.0000001"
     height="39"
     width="39"
     y="-119.49999"
     x="22.499596" />
  <path
     style="opacity:0.1;fill:none;fill-rule:evenodd;stroke:#000000;stroke-width:3;stroke-linecap:butt;stroke-linejoin:miter;stroke-miterlimit:4;stroke-dasharray:none;stroke-opacity:1"
     d="m 22.999597,96.000001 h 38"
     id="path4538" />
  <path
     style="opacity:0.35;fill:#000000;fill-opacity:0.335988;stroke:#000000;stroke-width:1;stroke-linecap:butt;stroke-linejoin:round;stroke-miterlimit:4;stroke-dasharray:none;stroke-dashoffset:0;stroke-opacity:0.674419"
     d="m 28.499597,104.5 v 7 h 9 v -7 z"
     id="rect3450" />
  <rect
     id="rect3458"
     style="opacity:0.4;fill:none;fill-opacity:1;stroke:url(#linearGradient4604);stroke-width:1;stroke-linecap:round;stroke-linejoin:round;stroke-miterlimit:4;stroke-dasharray:none;stroke-dashoffset:0;stroke-opacity:1;marker:none"
     transform="scale(1,-1)"
     height="37"
     width="37"
     y="-118.49999"
     x="23.499596" />
  <rect
     ry="2.5"
     id="rect5391"
     style="fill:url(#linearGradient5466-8-3);fill-opacity:1;stroke:none;stroke-width:0.999922;stroke-linecap:butt;stroke-linejoin:round;stroke-miterlimit:4;stroke-dasharray:none;stroke-dashoffset:0;stroke-opacity:1;marker:none"
     rx="2.5000002"
     height="90"
     width="54"
     y="6"
     x="14.999598" />
  <rect
     ry="3"
     id="rect5391-2"
     style="opacity:0.3;fill:none;fill-opacity:1;stroke:#000000;stroke-width:0.999922;stroke-linecap:butt;stroke-linejoin:round;stroke-miterlimit:4;stroke-dasharray:none;stroke-dashoffset:0;stroke-opacity:1;marker:none"
     rx="2.9999998"
     height="91.000076"
     width="55.000076"
     y="5.4999609"
     x="14.499559" />
  <rect
     rx="2.0000002"
     id="rect5391-2-0"
     style="fill:none;fill-opacity:1;stroke:url(#linearGradient3730);stroke-width:1;stroke-linecap:round;stroke-linejoin:round;stroke-miterlimit:4;stroke-dasharray:none;stroke-dashoffset:0;stroke-opacity:1;marker:none"
     ry="2"
     height="89"
     width="53"
     y="6.5"
     x="15.499598" />
  <path
     style="fill:#ffffff;fill-opacity:1;stroke-width:1"
     d="m 41.750966,17.001953 -4.619141,7.998048 h 3.294922 V 65.88086 l -8.410156,-7.958984 c -0.543003,-0.677435 -0.924212,-1.56479 -0.945312,-2.476563 0,-3.688487 5.5e-5,-5.879274 -0.002,-6.685546 1.557124,-0.546519 2.679688,-2.014547 2.679688,-3.759766 0,-2.207818 -1.791383,-3.998047 -4,-3.998047 -2.209577,0 -4,1.790069 -4,3.998047 0,1.745219 1.123888,3.213247 2.679688,3.759766 l -0.002,6.607422 c 0,1.790615 0.983061,3.667104 2.134766,4.861328 v 0.002 c 0.02845,0.02526 8.921875,8.445312 8.921875,8.445312 0.542204,0.675996 0.92162,1.561522 0.943359,2.472657 v 7.029296 a 5,5 0 0 0 -3.677642,4.822219 5,5 0 0 0 5,5 5,5 0 0 0 5,-5 5,5 0 0 0 -3.681641,-4.818359 v -6.953125 c 0,-0.01164 6.39e-4,-0.02334 0,-0.03516 V 61.144532 c 0.02317,-0.909374 0.40247,-1.795346 0.945313,-2.470703 0,0 8.893103,-8.417303 8.921875,-8.443359 1.151544,-1.194222 2.134766,-3.072347 2.134765,-4.863281 l -0.002,-6.367188 h 2.681641 v -8 h -8 v 8 H 52.4267 c 0,0 -0.002,1.677211 -0.002,6.445312 -0.02093,0.911933 -0.402309,1.799448 -0.945312,2.476563 l -8.41211,7.960937 V 25.000001 h 3.300782 z"
     id="path4696" />
  <path
     id="path1334"
     d="m 41.750966,16.001953 -4.619141,7.998048 h 3.294922 V 64.88086 l -8.410156,-7.958984 c -0.543003,-0.677435 -0.924212,-1.56479 -0.945312,-2.476563 0,-3.688487 5.5e-5,-5.879274 -0.002,-6.685546 1.557124,-0.546519 2.679688,-2.014547 2.679688,-3.759766 0,-2.207818 -1.791383,-3.998047 -4,-3.998047 -2.209577,0 -4,1.790069 -4,3.998047 0,1.745219 1.123888,3.213247 2.679688,3.759766 l -0.002,6.607422 c 0,1.790615 0.983061,3.667104 2.134766,4.861328 v 0.002 c 0.02845,0.02526 8.921875,8.445312 8.921875,8.445312 0.542204,0.675996 0.92162,1.561522 0.943359,2.472657 v 7.029296 a 5,5 0 0 0 -3.677642,4.822219 5,5 0 0 0 5,5 5,5 0 0 0 5,-5 5,5 0 0 0 -3.681641,-4.818359 v -6.953125 c 0,-0.01164 6.39e-4,-0.02334 0,-0.03516 V 60.144532 c 0.02317,-0.909374 0.40247,-1.795346 0.945313,-2.470703 0,0 8.893103,-8.417303 8.921875,-8.443359 1.151544,-1.194222 2.134766,-3.072347 2.134765,-4.863281 l -0.002,-6.367188 h 2.681641 v -8 h -8 v 8 H 52.4267 c 0,0 -0.002,1.677211 -0.002,6.445312 -0.02093,0.911933 -0.402309,1.799448 -0.945312,2.476563 l -8.41211,7.960937 V 24.000001 h 3.300782 z"
     style="fill:#aaaaaa;fill-opacity:1;stroke-width:1" />
  <path
     id="path4655"
     d="m 46.499597,104.5 v 7 h 9 v -7 z"
     style="opacity:0.35;fill:#000000;fill-opacity:0.335988;stroke:#000000;stroke-width:1;stroke-linecap:butt;stroke-linejoin:round;stroke-miterlimit:4;stroke-dasharray:none;stroke-dashoffset:0;stroke-opacity:0.674419" />
  <path
     id="path4661"
     d="m 27.999597,112.5 h 10"
     style="opacity:0.2;fill:none;fill-rule:evenodd;stroke:#ffffff;stroke-width:1px;stroke-linecap:butt;stroke-linejoin:miter;stroke-opacity:1" />
  <path
     style="opacity:0.2;fill:none;fill-rule:evenodd;stroke:#ffffff;stroke-width:1px;stroke-linecap:butt;stroke-linejoin:miter;stroke-opacity:1"
     d="m 45.999597,112.5 h 10"
     id="path4663" />
  <rect
     rx="0.5"
     ry="0.5"
     y="100"
     x="31.999596"
     height="1"
     width="2"
     id="rect4665"
     style="opacity:0.2;fill:#000000;fill-opacity:1;stroke:none;stroke-width:3;stroke-linecap:round;stroke-linejoin:round;stroke-miterlimit:4;stroke-dasharray:none;stroke-dashoffset:0;stroke-opacity:1" />
  <rect
     rx="0.5"
     style="opacity:0.2;fill:#000000;fill-opacity:1;stroke:none;stroke-width:3;stroke-linecap:round;stroke-linejoin:round;stroke-miterlimit:4;stroke-dasharray:none;stroke-dashoffset:0;stroke-opacity:1"
     id="rect4667"
     width="2"
     height="1"
     x="49.999599"
     y="100"
     ry="0.5" />
  <rect
     rx="0.5"
     style="opacity:0.4;fill:#ffffff;fill-opacity:1;stroke:none;stroke-width:3;stroke-linecap:round;stroke-linejoin:round;stroke-miterlimit:4;stroke-dasharray:none;stroke-dashoffset:0;stroke-opacity:1"
     id="rect4669"
     width="2"
     height="1"
     x="31.999596"
     y="101"
     ry="0.5" />
  <rect
     ry="0.5"
     y="101"
     x="49.999599"
     height="1"
     width="2"
     id="rect4671"
     style="opacity:0.4;fill:#ffffff;fill-opacity:1;stroke:none;stroke-width:3;stroke-linecap:round;stroke-linejoin:round;stroke-miterlimit:4;stroke-dasharray:none;stroke-dashoffset:0;stroke-opacity:1"
     rx="0.5" />
  <path
     d="m 88,56.5 c -17.93239,0 -32.5,14.567615 -32.5,32.5 0,17.93239 14.56761,32.5 32.5,32.5 17.93238,0 32.5,-14.56761 32.5,-32.5 0,-17.932385 -14.56762,-32.5 -32.5,-32.5 z"
     id="path2555-7-1"
     style="color:#000000;display:inline;overflow:visible;visibility:visible;fill:url(#radialGradient3125);fill-opacity:1;fill-rule:nonzero;stroke:url(#linearGradient3127);stroke-width:1;stroke-linecap:round;stroke-linejoin:round;stroke-miterlimit:4;stroke-dasharray:none;stroke-dashoffset:0;stroke-opacity:1;marker:none;enable-background:accumulate" />
  <path
     d="M 119.5,88.998872 C 119.5,106.39642 105.39593,120.5 88.0004,120.5 70.60328,120.5 56.5,106.39626 56.5,88.998872 c 0,-17.396721 14.10328,-31.498873 31.5004,-31.498873 17.39553,0 31.4996,14.102152 31.4996,31.498873 z"
     id="path8655-6-6"
     style="color:#000000;display:inline;overflow:visible;visibility:visible;opacity:0.5;fill:none;stroke:url(#linearGradient3122);stroke-width:1;stroke-linecap:round;stroke-linejoin:round;stroke-miterlimit:4;stroke-dasharray:none;stroke-dashoffset:0;stroke-opacity:1;marker:none;enable-background:accumulate" />
  <path
     d="M 73,90.999998 88,106.3 103,90.999998 Z"
     id="rect3005-5-5"
     style="color:#000000;display:inline;overflow:visible;visibility:visible;fill:#3077ac;fill-opacity:1;fill-rule:nonzero;stroke:none;stroke-width:1;marker:none;enable-background:accumulate" />
  <path
     d="m 85,71.999998 v 18 H 73 L 88,105.3 103,89.999998 H 91 v -18 z"
     id="rect3005-5"
     style="color:#000000;display:inline;overflow:visible;visibility:visible;fill:#ffffff;fill-opacity:1;fill-rule:nonzero;stroke:none;stroke-width:1;marker:none;enable-background:accumulate" />
</svg>
