<?xml version="1.0" encoding="UTF-8" standalone="no"?>
<svg
   xmlns:dc="http://purl.org/dc/elements/1.1/"
   xmlns:cc="http://creativecommons.org/ns#"
   xmlns:rdf="http://www.w3.org/1999/02/22-rdf-syntax-ns#"
   xmlns:svg="http://www.w3.org/2000/svg"
   xmlns="http://www.w3.org/2000/svg"
   xmlns:xlink="http://www.w3.org/1999/xlink"
   width="96"
   height="96"
   id="svg3952"
   version="1.1">
  <defs
     id="defs3954">
    <linearGradient
       id="linearGradient3707-319-631-407-324-3-8">
      <stop
         id="stop3760-7-3"
         style="stop-color:#185f9a;stop-opacity:1;"
         offset="0" />
      <stop
         id="stop3762-8-4"
         style="stop-color:#599ec9;stop-opacity:1;"
         offset="1" />
    </linearGradient>
    <linearGradient
       xlink:href="#linearGradient4011"
       id="linearGradient3096"
       gradientUnits="userSpaceOnUse"
       gradientTransform="matrix(2.027027,0,0,2.0270202,-97.405776,-33.399529)"
       x1="71.204407"
       y1="6.2375584"
       x2="71.204407"
       y2="44.340794" />
    <linearGradient
       id="linearGradient4011">
      <stop
         id="stop4013"
         style="stop-color:#ffffff;stop-opacity:1;"
         offset="0" />
      <stop
         offset="0.507761"
         style="stop-color:#ffffff;stop-opacity:0.23529412;"
         id="stop4015" />
      <stop
         id="stop4017"
         style="stop-color:#ffffff;stop-opacity:0.15686275;"
         offset="0.83456558" />
      <stop
         id="stop4019"
         style="stop-color:#ffffff;stop-opacity:0.39215687;"
         offset="1" />
    </linearGradient>
    <radialGradient
       xlink:href="#linearGradient2867-449-88-871-390-598-476-591-434-148-57-177-3-8"
       id="radialGradient3099"
       gradientUnits="userSpaceOnUse"
       gradientTransform="matrix(0,4.5986479,-4.8648362,-1.2516812e-7,89.106957,-53.862133)"
       cx="5.0450659"
       cy="8.4497671"
       fx="5.0450659"
       fy="8.4497671"
       r="19.99999" />
    <linearGradient
       id="linearGradient2867-449-88-871-390-598-476-591-434-148-57-177-3-8">
      <stop
         id="stop3750-8-9"
         style="stop-color:#90dbec;stop-opacity:1;"
         offset="0" />
      <stop
         id="stop3752-3-2"
         style="stop-color:#42baea;stop-opacity:1"
         offset="0.26238" />
      <stop
         id="stop3754-7-2"
         style="stop-color:#3689e6;stop-opacity:1;"
         offset="0.704952" />
      <stop
         id="stop3756-9-3"
         style="stop-color:#2b63a0;stop-opacity:1;"
         offset="1" />
    </linearGradient>
    <linearGradient
       xlink:href="#linearGradient3707-319-631-407-324-3-8"
       id="linearGradient3101"
       gradientUnits="userSpaceOnUse"
       gradientTransform="matrix(1.9745455,0,0,1.9745394,0.6109138,-29.389)"
       x1="24"
       y1="44"
       x2="24"
       y2="3.8990016" />
    <linearGradient
       id="linearGradient8838">
      <stop
         id="stop8840"
         style="stop-color:#000000;stop-opacity:1"
         offset="0" />
      <stop
         id="stop8842"
         style="stop-color:#000000;stop-opacity:0"
         offset="1" />
    </linearGradient>
    <radialGradient
       r="10.625"
       fy="4.625"
       fx="62.625"
       cy="4.625"
       cx="62.625"
       gradientTransform="matrix(4.4050825,0,0,1.4920376,-227.86829,40.540398)"
       gradientUnits="userSpaceOnUse"
       id="radialGradient3950"
       xlink:href="#linearGradient8838" />
    <linearGradient
       xlink:href="#linearGradient4072-8"
       id="linearGradient4187"
       gradientUnits="userSpaceOnUse"
       x1="69.311714"
       y1="21.319286"
       x2="69.311714"
       y2="27.727411"
       gradientTransform="matrix(0.66538912,0,0,0.67971614,4.7245605,21.945132)" />
    <linearGradient
       id="linearGradient4072-8">
      <stop
         id="stop4074-2"
         offset="0"
         style="stop-color:#000000;stop-opacity:1;" />
      <stop
         id="stop4076-2"
         offset="1"
         style="stop-color:#000000;stop-opacity:0;" />
    </linearGradient>
    <linearGradient
       xlink:href="#linearGradient4062"
       id="linearGradient4190"
       gradientUnits="userSpaceOnUse"
       x1="72.458694"
       y1="-37.888779"
       x2="72.458694"
       y2="-24.791594"
       gradientTransform="matrix(0.66559657,0,0,0.68051522,4.7519885,18.632535)" />
    <linearGradient
       id="linearGradient4062">
      <stop
         id="stop4064"
         offset="0"
         style="stop-color:#000000;stop-opacity:1;" />
      <stop
         id="stop4066"
         offset="1"
         style="stop-color:#000000;stop-opacity:0;" />
    </linearGradient>
    <linearGradient
       xlink:href="#linearGradient4072"
       id="linearGradient4193"
       gradientUnits="userSpaceOnUse"
       x1="69.311714"
       y1="-15.790401"
       x2="69.311714"
       y2="33.986996"
       gradientTransform="matrix(0.66538912,0,0,0.67971614,4.2816481,20.262924)" />
    <linearGradient
       id="linearGradient4072">
      <stop
         id="stop4074"
         offset="0"
         style="stop-color:#000000;stop-opacity:1;" />
      <stop
         id="stop4076"
         offset="1"
         style="stop-color:#000000;stop-opacity:0;" />
    </linearGradient>
    <linearGradient
       xlink:href="#linearGradient4072"
       id="linearGradient4196"
       gradientUnits="userSpaceOnUse"
       x1="60.948738"
       y1="-5.801291"
       x2="60.948738"
       y2="34.548019"
       gradientTransform="matrix(0.66538912,0,0,0.67971614,4.4358361,19.997312)" />
    <linearGradient
       gradientTransform="matrix(1.500767,0,0,1.5,-0.0184075,-32.5)"
       xlink:href="#linearGradient3707-319-631-407-324-3-8-27"
       id="linearGradient4092"
       x1="31.071823"
       y1="59.665745"
       x2="31.071823"
       y2="0.35299802"
       gradientUnits="userSpaceOnUse" />
    <linearGradient
       id="linearGradient3707-319-631-407-324-3-8-27">
      <stop
         id="stop3760-7-3-1"
         style="stop-color:#185f9a;stop-opacity:1;"
         offset="0" />
      <stop
         id="stop3762-8-4-6"
         style="stop-color:#599ec9;stop-opacity:1;"
         offset="1" />
    </linearGradient>
  </defs>
  <metadata
     id="metadata3957">
    <rdf:RDF>
      <cc:Work
         rdf:about="">
        <dc:format>image/svg+xml</dc:format>
        <dc:type
           rdf:resource="http://purl.org/dc/dcmitype/StillImage" />
        <dc:title />
      </cc:Work>
    </rdf:RDF>
  </metadata>
  <g
     id="layer1"
     transform="translate(0,32)">
    <path
       style="opacity:0.3;fill:url(#radialGradient3950);fill-opacity:1;fill-rule:evenodd;stroke:none;stroke-width:0.99999988;marker:none;visibility:visible;display:inline;overflow:visible"
       id="path8836"
       d="M 94.804,47.44108 C 94.804,56.196405 73.849131,63.294 48,63.294 22.150869,63.294 1.196,56.196405 1.196,47.44108 1.196,38.685752 22.150869,31.58816 48,31.58816 c 25.849131,0 46.804,7.097592 46.804,15.85292 l 0,0 z" />
    <path
       style="color:#000000;fill:url(#radialGradient3099);fill-opacity:1;fill-rule:nonzero;stroke:url(#linearGradient3101);stroke-width:1;stroke-linecap:round;stroke-linejoin:round;stroke-miterlimit:4;stroke-opacity:1;stroke-dasharray:none;stroke-dashoffset:0;marker:none;visibility:visible;display:inline;overflow:visible;enable-background:accumulate"
       id="path2555-7"
       d="m 48.000006,-20.5 c -21.24301,0 -38.5000699,17.2570005 -38.5000699,38.499944 0,21.242942 17.2570599,38.499951 38.5000699,38.499945 21.243,0 38.500085,-17.257003 38.500066,-38.499945 C 86.500072,-3.2429995 69.243006,-20.5 48.000006,-20.5 Z" />
    <path
       style="opacity:0.5;color:#000000;fill:none;stroke:url(#linearGradient3096);stroke-width:1;stroke-linecap:round;stroke-linejoin:round;stroke-miterlimit:4;stroke-opacity:1;stroke-dasharray:none;stroke-dashoffset:0;marker:none;visibility:visible;display:inline;overflow:visible;enable-background:accumulate"
       id="path8655-6"
       d="M 85.5,17.998789 C 85.5,38.710071 68.709442,55.5 48.000474,55.5 27.28961,55.5 10.500001,38.709879 10.500001,17.998789 c 0,-20.710323 16.789609,-37.498551 37.500473,-37.498551 20.708968,0 37.499526,16.788228 37.499526,37.498551 l 0,0 z" />
    <path
       style="font-size:40px;font-style:normal;font-variant:normal;font-weight:bold;font-stretch:normal;text-align:start;line-height:100%;writing-mode:lr-tb;text-anchor:start;fill:url(#linearGradient4092);fill-opacity:1;stroke:none;font-family:URW Palladio L;-inkscape-font-specification:URW Palladio L Bold"
       id="path3227"
       d="m 36,17.192419 c 0.499895,1.364557 1.062563,2.470636 2.261102,0.958225 1.485926,-0.887738 6.464702,-4.778972 5.966515,-0.967423 -1.594203,7.053048 -3.534699,14.031923 -5.018431,21.106694 -1.551449,3.873758 1.971591,7.377737 5.649904,4.858611 3.909807,-1.61844 7.274188,-4.254601 10.71128,-6.672882 -0.468967,-1.154871 -0.781542,-2.81383 -2.077349,-1.303525 -1.701462,0.775461 -5.41764,4.43148 -6.108039,1.416084 1.429212,-7.637174 4.07722,-14.991636 5.769872,-22.567918 C 54.712532,10.536729 52.168537,6.1351288 48.360465,9.0167712 43.7983,11.011953 39.983133,14.271162 36,17.192419 Z M 52.931668,-8.4940158 c -4.654759,-0.248044 -7.088429,7.286558 -2.665041,9.34836204 3.588661,1.47782496 7.49607,-2.21801304 6.619374,-5.91100404 -0.272069,-1.922971 -1.991428,-3.502044 -3.954332,-3.437358 l -10e-7,0 z" />
    <path
       style="font-size:40px;font-style:normal;font-variant:normal;font-weight:bold;font-stretch:normal;text-align:start;line-height:100%;writing-mode:lr-tb;text-anchor:start;fill:#ffffff;fill-opacity:1;stroke:none;font-family:URW Palladio L;-inkscape-font-specification:URW Palladio L Bold"
       id="path3536"
       d="m 36,18.192419 c 0.499895,1.364557 1.062563,2.470636 2.261102,0.958225 1.485926,-0.887739 6.464702,-4.778972 5.966515,-0.967423 -1.594203,7.053048 -3.534699,14.031923 -5.018431,21.106694 -1.551449,3.873758 1.971591,7.377737 5.649904,4.858611 3.909807,-1.61844 7.274188,-4.254601 10.71128,-6.672882 -0.468967,-1.154871 -0.781542,-2.81383 -2.077349,-1.303525 -1.701462,0.775461 -5.41764,4.43148 -6.108039,1.416084 1.429212,-7.637174 4.07722,-14.991636 5.769872,-22.567918 C 54.712532,11.536729 52.168537,7.1351289 48.360465,10.016771 43.7983,12.011953 39.983133,15.271162 36,18.192419 Z M 52.931668,-7.4940157 c -4.654759,-0.248044 -7.088429,7.28655804 -2.665041,9.348362 3.588661,1.4778251 7.49607,-2.21801296 6.619374,-5.911004 -0.272069,-1.922971 -1.991428,-3.502044 -3.954332,-3.437358 l -10e-7,0 z" />
    <path
       style="font-size:40px;font-style:normal;font-variant:normal;font-weight:bold;font-stretch:normal;text-align:start;line-height:100%;writing-mode:lr-tb;text-anchor:start;opacity:0.1;fill:none;stroke:url(#linearGradient4196);stroke-width:1;stroke-opacity:1;font-family:URW Palladio L;-inkscape-font-specification:URW Palladio L Bold"
       d="m 43.753984,16.198649 c 1.493739,0.10815 1.152061,1.974859 0.840506,2.989233 -1.446711,6.426933 -3.198259,12.784236 -4.45985,19.253034 -0.30433,1.896707 0.848058,4.317124 2.938632,4.335152"
       id="path4119" />
    <path
       style="font-size:40px;font-style:normal;font-variant:normal;font-weight:bold;font-stretch:normal;text-align:start;line-height:100%;writing-mode:lr-tb;text-anchor:start;opacity:0.1;fill:none;stroke:url(#linearGradient4193);stroke-width:1;stroke-opacity:1;font-family:URW Palladio L;-inkscape-font-specification:URW Palladio L Bold"
       d="m 54.435355,36.215012 c -0.124804,-0.981667 -0.89835,-1.772624 -1.662858,-0.787988 -1.355806,0.95314 -2.663333,2.299626 -4.386264,2.42394 -1.103997,-0.02169 -1.663659,-1.380813 -1.214852,-2.325062 1.41122,-7.275172 4.193182,-14.267219 5.618727,-21.535876 C 53.433303,12.75713 52.616188,9.4217737 51.481448,9.9158828 51.294299,9.8160278 51.088463,9.7559138 50.879681,9.7273253 49.07799,9.8375162 47.152,11.232285 45.510716,12.17608 43.470412,13.403774 40.14868,15.617507 36.97554,18.031403"
       id="path4070" />
    <path
       style="font-size:40px;font-style:normal;font-variant:normal;font-weight:bold;font-stretch:normal;text-align:start;line-height:100%;writing-mode:lr-tb;text-anchor:start;opacity:0.1;fill:none;stroke:url(#linearGradient4190);stroke-width:0.99999988;stroke-opacity:1;font-family:URW Palladio L;-inkscape-font-specification:URW Palladio L Bold"
       d="m 52.83551,-6.8843497 c -3.943829,-0.214053 -6.005798,6.212772 -2.258004,7.992039 3.040558,1.27531 6.35118,-2.2378981 5.608385,-5.4248231 -0.230514,-1.659461 -1.687274,-2.6230399 -3.350381,-2.5672159 z"
       id="path3714-3" />
    <path
       style="font-size:40px;font-style:normal;font-variant:normal;font-weight:bold;font-stretch:normal;text-align:start;line-height:100%;writing-mode:lr-tb;text-anchor:start;opacity:0.1;fill:none;stroke:url(#linearGradient4187);stroke-width:1;stroke-opacity:1;font-family:URW Palladio L;-inkscape-font-specification:URW Palladio L Bold"
       d="m 54.878267,37.897219 c 0.105214,-1.326692 -0.535082,-2.317525 -1.500943,-1.030857 -1.355807,0.814459 -2.825247,2.307922 -4.548179,2.504896"
       id="path4070-0" />
  </g>
</svg>
