<?xml version="1.0" encoding="UTF-8" standalone="no"?>
<!-- Created with Inkscape (http://www.inkscape.org/) -->

<svg
   xmlns:dc="http://purl.org/dc/elements/1.1/"
   xmlns:cc="http://creativecommons.org/ns#"
   xmlns:rdf="http://www.w3.org/1999/02/22-rdf-syntax-ns#"
   xmlns:svg="http://www.w3.org/2000/svg"
   xmlns="http://www.w3.org/2000/svg"
   xmlns:xlink="http://www.w3.org/1999/xlink"
   xmlns:sodipodi="http://sodipodi.sourceforge.net/DTD/sodipodi-0.dtd"
   xmlns:inkscape="http://www.inkscape.org/namespaces/inkscape"
   version="1.0"
   width="96"
   height="96"
   id="svg2527"
   inkscape:version="0.48+devel r"
   sodipodi:docname="system-run.svg">
  <metadata
     id="metadata4961">
    <rdf:RDF>
      <cc:Work
         rdf:about="">
        <dc:format>image/svg+xml</dc:format>
        <dc:type
           rdf:resource="http://purl.org/dc/dcmitype/StillImage" />
        <dc:title></dc:title>
      </cc:Work>
    </rdf:RDF>
  </metadata>
  <sodipodi:namedview
     pagecolor="#ffffff"
     bordercolor="#666666"
     borderopacity="1"
     objecttolerance="10"
     gridtolerance="10"
     guidetolerance="10"
     inkscape:pageopacity="0"
     inkscape:pageshadow="2"
     inkscape:window-width="1535"
     inkscape:window-height="876"
     id="namedview4959"
     showgrid="true"
     inkscape:zoom="4.9166667"
     inkscape:cx="50.025039"
     inkscape:cy="53.425327"
     inkscape:window-x="65"
     inkscape:window-y="24"
     inkscape:window-maximized="1"
     inkscape:current-layer="svg2527"
     inkscape:snap-global="false">
    <inkscape:grid
       type="xygrid"
       id="grid4149" />
  </sodipodi:namedview>
  <defs
     id="defs2529">
    <linearGradient
       x1="32.036148"
       y1="19"
       x2="32.036148"
       y2="47.012184"
       id="linearGradient3326"
       xlink:href="#linearGradient3309-8"
       gradientUnits="userSpaceOnUse"
       gradientTransform="matrix(0.93928017,0.34315123,-0.34315123,0.93928017,-1.7936946,-25.633934)" />
    <linearGradient
       x1="63.9995"
       y1="3.1001"
       x2="63.9995"
       y2="122.8994"
       id="linearGradient3309-8"
       gradientUnits="userSpaceOnUse">
      <stop
         id="stop3311-4"
         style="stop-color:#f6f6f6;stop-opacity:1"
         offset="0" />
      <stop
         id="stop3313-8"
         style="stop-color:#d2d2d2;stop-opacity:1"
         offset="1" />
    </linearGradient>
    <linearGradient
       x1="25.922546"
       y1="19"
       x2="25.922546"
       y2="47.044857"
       id="linearGradient3328"
       xlink:href="#linearGradient3397-1"
       gradientUnits="userSpaceOnUse"
       gradientTransform="matrix(0.93928017,0.34315123,-0.34315123,0.93928017,-1.7936946,-25.633934)" />
    <linearGradient
       id="linearGradient3397-1">
      <stop
         id="stop3399-0"
         style="stop-color:#aaaaaa;stop-opacity:1"
         offset="0" />
      <stop
         id="stop3401-3"
         style="stop-color:#8c8c8c;stop-opacity:1"
         offset="1" />
    </linearGradient>
    <linearGradient
       id="linearGradient5128-0">
      <stop
         id="stop5130-4"
         style="stop-color:#ffffff;stop-opacity:1"
         offset="0" />
      <stop
         id="stop5132-4"
         style="stop-color:#959595;stop-opacity:1"
         offset="1" />
    </linearGradient>
    <linearGradient
       x1="86.132919"
       y1="105.105"
       x2="84.63858"
       y2="20.895"
       id="linearGradient2868"
       xlink:href="#linearGradient5128-0"
       gradientUnits="userSpaceOnUse"
       gradientTransform="matrix(0.20281471,0,0,0.20276642,3.0209916,3.2299497)" />
    <linearGradient
       x1="34"
       y1="1"
       x2="34"
       y2="23.00024"
       id="linearGradient3218"
       xlink:href="#linearGradient3309-4"
       gradientUnits="userSpaceOnUse"
       gradientTransform="translate(-24.5,0)" />
    <linearGradient
       x1="63.9995"
       y1="3.1001"
       x2="63.9995"
       y2="122.8994"
       id="linearGradient3309-4"
       gradientUnits="userSpaceOnUse">
      <stop
         id="stop3311-8"
         style="stop-color:#f6f6f6;stop-opacity:1"
         offset="0" />
      <stop
         id="stop3313-88"
         style="stop-color:#d2d2d2;stop-opacity:1"
         offset="1" />
    </linearGradient>
    <linearGradient
       x1="40"
       y1="1"
       x2="40"
       y2="23.019524"
       id="linearGradient3228"
       xlink:href="#linearGradient3397-9"
       gradientUnits="userSpaceOnUse"
       gradientTransform="translate(-24.5,0)" />
    <linearGradient
       id="linearGradient3397-9">
      <stop
         id="stop3399-7"
         style="stop-color:#aaaaaa;stop-opacity:1"
         offset="0" />
      <stop
         id="stop3401-7"
         style="stop-color:#8c8c8c;stop-opacity:1"
         offset="1" />
    </linearGradient>
    <linearGradient
       x1="86.132919"
       y1="105.105"
       x2="84.63858"
       y2="20.895"
       id="linearGradient3241"
       xlink:href="#linearGradient5128-6"
       gradientUnits="userSpaceOnUse"
       gradientTransform="matrix(0.15468061,0,0,0.15468061,2.1004463,2.2551016)" />
    <linearGradient
       id="linearGradient5128-6">
      <stop
         id="stop5130-43"
         style="stop-color:#eeeeee;stop-opacity:1"
         offset="0" />
      <stop
         id="stop5132-0"
         style="stop-color:#a2a2a2;stop-opacity:1"
         offset="1" />
    </linearGradient>
    <linearGradient
       x1="25"
       y1="0"
       x2="25"
       y2="16.000105"
       id="linearGradient3262"
       xlink:href="#linearGradient3309-6"
       gradientUnits="userSpaceOnUse"
       gradientTransform="translate(-17.058189,0)" />
    <linearGradient
       x1="63.9995"
       y1="3.1001"
       x2="63.9995"
       y2="122.8994"
       id="linearGradient3309-6"
       gradientUnits="userSpaceOnUse">
      <stop
         id="stop3311-2"
         style="stop-color:#f6f6f6;stop-opacity:1"
         offset="0" />
      <stop
         id="stop3313-9"
         style="stop-color:#cccccc;stop-opacity:1"
         offset="1" />
    </linearGradient>
    <linearGradient
       x1="21"
       y1="0"
       x2="21"
       y2="16.004715"
       id="linearGradient3264"
       xlink:href="#linearGradient3397-90"
       gradientUnits="userSpaceOnUse"
       gradientTransform="translate(-17.058189,0)" />
    <linearGradient
       id="linearGradient3397-90">
      <stop
         id="stop3399-8"
         style="stop-color:#aaaaaa;stop-opacity:1"
         offset="0" />
      <stop
         id="stop3401-1"
         style="stop-color:#8c8c8c;stop-opacity:1"
         offset="1" />
    </linearGradient>
    <linearGradient
       x1="86.132919"
       y1="105.105"
       x2="84.63858"
       y2="20.895"
       id="linearGradient3260"
       xlink:href="#linearGradient5128-3"
       gradientUnits="userSpaceOnUse"
       gradientTransform="matrix(0.09614231,0,0,0.09614231,1.8468935,1.9430362)" />
    <linearGradient
       id="linearGradient5128-3">
      <stop
         id="stop5130-1"
         style="stop-color:#e5e5e5;stop-opacity:1"
         offset="0" />
      <stop
         id="stop5132-1"
         style="stop-color:#ababab;stop-opacity:1"
         offset="1" />
    </linearGradient>
    <linearGradient
       gradientTransform="matrix(0.3244803,0,0,0.3244803,3.2332655,2.5577454)"
       gradientUnits="userSpaceOnUse"
       xlink:href="#linearGradient5128"
       id="linearGradient2512"
       y2="20.895"
       x2="84.63858"
       y1="105.105"
       x1="86.132919" />
    <linearGradient
       id="linearGradient5128">
      <stop
         offset="0"
         style="stop-color:#e5e5e5;stop-opacity:1"
         id="stop5130" />
      <stop
         offset="1"
         style="stop-color:#ababab;stop-opacity:1"
         id="stop5132" />
    </linearGradient>
    <linearGradient
       gradientUnits="userSpaceOnUse"
       xlink:href="#linearGradient3309"
       id="linearGradient2515"
       y2="45.017357"
       x2="20.758585"
       y1="1"
       x1="20.758585" />
    <linearGradient
       gradientUnits="userSpaceOnUse"
       id="linearGradient3309"
       y2="122.8994"
       x2="63.9995"
       y1="3.1001"
       x1="63.9995">
      <stop
         offset="0"
         style="stop-color:#f6f6f6;stop-opacity:1"
         id="stop3311" />
      <stop
         offset="1"
         style="stop-color:#d2d2d2;stop-opacity:1"
         id="stop3313" />
    </linearGradient>
    <linearGradient
       gradientUnits="userSpaceOnUse"
       xlink:href="#linearGradient3397"
       id="linearGradient2517"
       y2="45"
       x2="37.201294"
       y1="1"
       x1="37.201294" />
    <linearGradient
       id="linearGradient3397">
      <stop
         offset="0"
         style="stop-color:#aaaaaa;stop-opacity:1"
         id="stop3399" />
      <stop
         offset="1"
         style="stop-color:#8c8c8c;stop-opacity:1"
         id="stop3401" />
    </linearGradient>
    <radialGradient
       gradientTransform="matrix(2.1647059,0,0,0.7529402,-111.56471,36.517647)"
       gradientUnits="userSpaceOnUse"
       xlink:href="#linearGradient8838"
       id="radialGradient2436"
       fy="4.625"
       fx="62.625"
       r="10.625"
       cy="4.625"
       cx="62.625" />
    <linearGradient
       id="linearGradient8838">
      <stop
         offset="0"
         style="stop-color:#000000;stop-opacity:1"
         id="stop8840" />
      <stop
         offset="1"
         style="stop-color:#000000;stop-opacity:0"
         id="stop8842" />
    </linearGradient>
    <linearGradient
       inkscape:collect="always"
       xlink:href="#linearGradient5128"
       id="linearGradient3079"
       gradientUnits="userSpaceOnUse"
       gradientTransform="matrix(0.3244803,0,0,0.3244803,41.673946,3.6170674)"
       x1="86.132919"
       y1="105.105"
       x2="84.63858"
       y2="20.895" />
    <linearGradient
       inkscape:collect="always"
       xlink:href="#linearGradient3309"
       id="linearGradient3082"
       gradientUnits="userSpaceOnUse"
       x1="20.758585"
       y1="1"
       x2="20.758585"
       y2="45.017357"
       gradientTransform="translate(38.440681,1.059322)" />
    <linearGradient
       inkscape:collect="always"
       xlink:href="#linearGradient3397"
       id="linearGradient3084"
       gradientUnits="userSpaceOnUse"
       x1="37.201294"
       y1="1"
       x2="37.201294"
       y2="45"
       gradientTransform="translate(38.440681,1.059322)" />
    <radialGradient
       inkscape:collect="always"
       xlink:href="#linearGradient8838"
       id="radialGradient3087"
       gradientUnits="userSpaceOnUse"
       gradientTransform="matrix(2.1647059,0,0,0.7529402,-73.124029,37.576969)"
       cx="62.625"
       cy="4.625"
       fx="62.625"
       fy="4.625"
       r="10.625" />
    <linearGradient
       inkscape:collect="always"
       xlink:href="#linearGradient3309"
       id="linearGradient3094"
       gradientUnits="userSpaceOnUse"
       gradientTransform="matrix(1.4883721,0,0,1.4883721,25.779071,25.267439)"
       x1="20.758585"
       y1="1"
       x2="20.758585"
       y2="45.017357" />
    <linearGradient
       inkscape:collect="always"
       xlink:href="#linearGradient3397"
       id="linearGradient3096"
       gradientUnits="userSpaceOnUse"
       gradientTransform="matrix(1.4883721,0,0,1.4883721,25.779071,25.267439)"
       x1="37.201294"
       y1="1"
       x2="37.201294"
       y2="45" />
    <linearGradient
       inkscape:collect="always"
       xlink:href="#linearGradient5128"
       id="linearGradient3098"
       gradientUnits="userSpaceOnUse"
       gradientTransform="matrix(0.48071155,0,0,0.48070875,30.734467,29.215472)"
       x1="86.132919"
       y1="105.105"
       x2="84.63858"
       y2="20.895" />
  </defs>
  <g
     transform="matrix(1.4813813,0,0,1.4817211,-1.2037897,-1.2138127)"
     id="layer1">
    <path
       d="m 18.636572,2.5905216 c -0.703275,-0.2569307 -1.495689,0.08705 -1.752619,0.7903248 l -0.600515,1.6437399 c -0.499176,-0.013219 -0.993955,0.00248 -1.484533,0.056512 L 14.072373,3.5181351 C 13.756758,2.8391668 12.960838,2.5483897 12.28187,2.864003 L 8.3651471,4.6602954 C 7.6861782,4.9759083 7.3954033,5.7718319 7.7110151,6.4507982 l 0.726532,1.5629636 C 8.0724464,8.359396 7.744193,8.7441155 7.4266456,9.141602 L 5.8122578,8.5518108 C 5.1089821,8.2948801 4.3165666,8.6388602 4.0596381,9.3421356 L 2.5797984,13.392781 c -0.2569313,0.703275 0.1271272,1.477063 0.8304007,1.733991 l 1.6143878,0.589791 c -0.013469,0.508577 -0.010523,1.014295 0.045789,1.513885 l -1.5629633,0.726533 c -0.6789688,0.315613 -0.9697472,1.111534 -0.654132,1.790502 l 1.8363684,3.898094 c 0.3156123,0.678968 1.1115366,0.969744 1.7905029,0.654132 l 1.5629636,-0.726532 c 0.3402133,0.357549 0.7083491,0.688501 1.0984877,1.000178 l -0.6005147,1.64374 c -0.2569313,0.703275 0.1271291,1.477064 0.8304008,1.733991 l 4.0212927,1.469116 c 0.703276,0.256931 1.466338,-0.09777 1.723267,-0.801048 l 0.600515,-1.64374 c 0.508577,0.01347 1.014295,0.01052 1.513885,-0.04579 l 0.726532,1.562963 c 0.315614,0.678968 1.111534,0.969745 1.790502,0.654132 l 3.916723,-1.796292 c 0.678969,-0.315613 0.969742,-1.111538 0.654132,-1.790503 l -0.745161,-1.603039 c 0.357549,-0.340214 0.6885,-0.708349 1.000178,-1.098488 l 1.64374,0.600515 c 0.703276,0.25693 1.466338,-0.09778 1.723267,-0.801049 l 1.47984,-4.050645 c 0.256931,-0.703275 -0.09778,-1.466339 -0.801048,-1.723268 l -1.64374,-0.600514 c 0.01322,-0.499176 -0.0025,-0.993955 -0.05651,-1.484533 l 1.60304,-0.745162 C 29.20091,13.73813 29.491686,12.942208 29.176073,12.26324 L 27.339704,8.365146 C 27.024092,7.6861784 26.228168,7.3954 25.549202,7.711014 L 23.986239,8.4375465 C 23.640605,8.0724458 23.255886,7.7441924 22.858399,7.4266449 L 23.458914,5.782905 C 23.715845,5.0796306 23.361136,4.3165668 22.657865,4.0596378 Z M 17.44374,12.227212 c 2.33649,0.865198 3.033312,3.271157 2.232078,5.410596 -0.764117,2.04033 -3.28437,2.83245 -5.095285,2.159247 -2.03313,-0.755811 -3.092601,-3.151421 -2.377704,-5.119411 0.824544,-2.269829 3.197356,-3.207157 5.240911,-2.450432 z"
       id="rect2576"
       style="fill:url(#linearGradient3326);fill-opacity:1;fill-rule:nonzero;stroke:url(#linearGradient3328);stroke-width:0.67496824;stroke-linecap:butt;stroke-linejoin:round;stroke-miterlimit:4;stroke-opacity:1;stroke-dasharray:none;stroke-dashoffset:0;marker:none;visibility:visible;display:block;overflow:visible;enable-background:accumulate"
       inkscape:connector-curvature="0"
       sodipodi:nodetypes="ssccsccsccssssccsccsccssssccsccsccssssccsccsccssssssss" />
    <path
       d="m 16.001142,7.9055449 c -4.466717,0 -8.1005497,3.6329991 -8.1005497,8.0986901 0,4.465693 3.6338327,8.09869 8.1005497,8.09869 4.466717,0 8.100548,-3.632997 8.100548,-8.09869 0,-4.465691 -3.633831,-8.0986901 -8.100548,-8.0986901 z m 0,3.7119001 c 2.40773,0 4.387795,1.979611 4.387795,4.38679 0,2.407181 -1.980065,4.38679 -4.387795,4.38679 -2.407732,0 -4.387799,-1.979609 -4.387799,-4.38679 0,-2.407179 1.980067,-4.38679 4.387799,-4.38679 z"
       id="path3315"
       style="opacity:0.05;fill:#000000;fill-opacity:1;stroke:none"
       inkscape:connector-curvature="0"
       sodipodi:nodetypes="ssssssssss" />
    <path
       d="m 16.001138,7.5681379 c -4.652776,0 -8.4381072,3.7844321 -8.4381072,8.4360961 0,4.651665 3.7853312,8.436098 8.4381072,8.436098 4.652776,0 8.43811,-3.784433 8.43811,-8.436098 0,-4.651664 -3.785334,-8.4360961 -8.43811,-8.4360961 z"
       id="path28"
       style="fill:none;stroke:url(#linearGradient2868);stroke-width:0.6749683;stroke-miterlimit:4;stroke-dasharray:none"
       inkscape:connector-curvature="0" />
  </g>
  <g
     transform="matrix(1.4761903,0,0,1.4761816,0.28571603,60.285916)"
     id="layer1-3">
    <g
       id="g2486">
      <path
         d="M 10.1875,1.5 C 9.799134,1.5 9.5,1.7991339 9.5,2.1875 l 0,1.6875 C 8.988333,4.0322247 8.496816,4.2537684 8.03125,4.5 L 6.84375,3.3125 c -0.274616,-0.2746162 -0.725384,-0.2746162 -1,0 L 3.3125,5.84375 c -0.274616,0.2746162 -0.274616,0.7253836 0,1 L 4.5,8.03125 C 4.253769,8.4968155 4.032225,8.9883329 3.875,9.5 l -1.6875,0 C 1.799134,9.5 1.5,9.7991344 1.5,10.1875 l 0,3.625 C 1.5,14.200866 1.799134,14.5 2.1875,14.5 l 1.6875,0 c 0.157225,0.511667 0.378769,1.003185 0.625,1.46875 l -1.1875,1.1875 c -0.274616,0.274616 -0.274616,0.725384 0,1 l 2.53125,2.53125 c 0.274616,0.274616 0.725384,0.274616 1,0 L 8.03125,19.5 C 8.496816,19.746232 8.988333,19.967775 9.5,20.125 l 0,1.6875 c 0,0.388366 0.299135,0.6875 0.6875,0.6875 l 3.625,0 c 0.388366,0 0.6875,-0.299134 0.6875,-0.6875 l 0,-1.6875 c 0.511667,-0.157225 1.003185,-0.378768 1.46875,-0.625 l 1.1875,1.1875 c 0.274616,0.274616 0.725384,0.274616 1,0 l 2.53125,-2.53125 c 0.274616,-0.274616 0.274616,-0.725384 0,-1 L 19.5,15.96875 C 19.746232,15.503185 19.967775,15.011667 20.125,14.5 l 1.6875,0 c 0.388366,0 0.6875,-0.299134 0.6875,-0.6875 l 0,-3.625 C 22.5,9.7991341 22.200866,9.5 21.8125,9.5 l -1.6875,0 C 19.967775,8.9883329 19.746232,8.4968155 19.5,8.03125 l 1.1875,-1.1875 c 0.274616,-0.2746162 0.274616,-0.7253837 0,-1 L 18.15625,3.3125 c -0.274616,-0.2746162 -0.725384,-0.2746162 -1,0 L 15.96875,4.5 C 15.503185,4.2537684 15.011667,4.0322247 14.5,3.875 l 0,-1.6875 C 14.5,1.7991341 14.200866,1.5 13.8125,1.5 l -3.625,0 z M 12,9 c 1.656,0 3,1.344 3,3 0,1.656 -1.344,3 -3,3 -1.656,0 -3,-1.344 -3,-3 0,-1.656 1.344,-3 3,-3 z"
         id="rect2426"
         style="fill:url(#linearGradient3218);fill-opacity:1;fill-rule:nonzero;stroke:url(#linearGradient3228);stroke-width:0.67742139;stroke-linecap:butt;stroke-linejoin:round;stroke-miterlimit:4;stroke-opacity:1;stroke-dasharray:none;stroke-dashoffset:0;marker:none;visibility:visible;display:block;overflow:visible;enable-background:accumulate"
         inkscape:connector-curvature="0" />
      <path
         d="m 12,5.9031965 c -3.3618181,-2e-7 -6.0967747,2.7349569 -6.0967747,6.0967745 0,3.361818 2.7349566,6.096775 6.0967747,6.096775 3.361818,-1e-6 6.096775,-2.734957 6.096775,-6.096775 0,-3.3618176 -2.734957,-6.0967745 -6.096775,-6.0967745 z m 0,2.8138961 c 1.812149,0 3.282879,1.4707294 3.282879,3.2828784 0,1.81215 -1.47073,3.282879 -3.282879,3.282879 -1.81215,0 -3.2828786,-1.470729 -3.2828786,-3.282879 0,-1.812149 1.4707286,-3.2828784 3.2828786,-3.2828784 z"
         id="path3315-9"
         style="opacity:0.05;fill:#000000;fill-opacity:1;stroke:none"
         inkscape:connector-curvature="0" />
      <path
         d="m 11.999999,5.5644917 c -3.5485248,0 -6.4354824,2.8869576 -6.4354824,6.4354833 0,3.548526 2.8869576,6.435484 6.4354824,6.435484 3.548528,0 6.435485,-2.886958 6.435485,-6.435484 0,-3.5485257 -2.886957,-6.4354833 -6.435485,-6.4354833 z"
         id="path28-2"
         style="fill:none;stroke:url(#linearGradient3241);stroke-width:0.67742139;stroke-miterlimit:4;stroke-dasharray:none"
         inkscape:connector-curvature="0" />
    </g>
  </g>
  <g
     id="g4130">
    <path
       sodipodi:nodetypes="ssccscsssccssssccssssccssssccssssccssssccssssccssssssss"
       style="fill:url(#linearGradient3094);fill-opacity:1;fill-rule:nonzero;stroke:url(#linearGradient3096);stroke-width:0.99999982;stroke-linecap:butt;stroke-linejoin:round;stroke-miterlimit:4;stroke-opacity:1;stroke-dasharray:none;stroke-dashoffset:0;marker:none;visibility:visible;display:block;overflow:visible;enable-background:accumulate"
       id="rect3267"
       d="m 57.081398,27.499997 c -1.259357,0 -2.27907,1.044699 -2.27907,2.325581 l 0,4.511628 c -2.251821,0.599972 -4.403443,1.506212 -6.372093,2.651163 l -3.209303,-3.209302 c -0.452862,-0.452861 -0.995353,-0.692708 -1.581396,-0.697675 -0.586042,-0.005 -1.182657,0.205914 -1.627907,0.651163 l -6.279069,6.27907 c -0.890499,0.890499 -0.85921,2.303581 0.04651,3.209303 l 3.209303,3.209302 c -1.144952,1.96865 -2.051193,4.120272 -2.651163,6.372093 l -4.511628,0 c -1.280883,0 -2.325582,1.019712 -2.325582,2.27907 l 0,8.83721 c 0,1.259356 1.044699,2.279069 2.325582,2.279069 l 4.511628,0 c 0.59997,2.251821 1.506211,4.403443 2.651163,6.372093 l -3.209303,3.209303 c -0.905721,0.90572 -0.93701,2.318802 -0.04651,3.209302 l 6.279069,6.27907 c 0.890499,0.890499 2.30358,0.859206 3.209303,-0.04651 l 3.209303,-3.209302 c 1.96865,1.144951 4.120272,2.051191 6.372093,2.651162 l 0,4.511629 c 0,1.280882 1.019712,2.325581 2.27907,2.325581 l 8.83721,0 c 1.259355,0 2.279069,-1.044699 2.279069,-2.325581 l 0,-4.511629 c 2.251821,-0.599971 4.403443,-1.506211 6.372093,-2.651162 l 3.209303,3.209302 c 0.905721,0.905721 2.318803,0.937012 3.209302,0.04651 l 6.279071,-6.27907 c 0.890499,-0.890499 0.859208,-2.303582 -0.04651,-3.209302 l -3.209303,-3.209303 c 1.144951,-1.96865 2.051192,-4.120272 2.651163,-6.372093 l 4.511629,0 c 1.280882,0 2.32558,-1.019712 2.32558,-2.279069 l 0,-8.83721 c 0,-1.259357 -1.044698,-2.27907 -2.32558,-2.27907 l -4.511629,0 C 86.062825,50.550502 85.156584,48.39888 84.011633,46.43023 l 3.209303,-3.209302 c 0.90572,-0.905721 0.937012,-2.318804 0.04651,-3.209303 l -6.279071,-6.27907 c -0.890499,-0.890499 -2.303583,-0.859209 -3.209302,0.04651 l -3.209303,3.209302 c -1.96865,-1.144951 -4.120272,-2.051191 -6.372093,-2.651163 l 0,-4.511628 c 0,-1.280882 -1.019712,-2.325581 -2.279069,-2.325581 z M 61.500002,49.5 c 5.4422,0.05309 10.015521,4.540865 9.999998,9.999997 C 71.484458,64.965577 66.92033,69.551117 61.500002,69.5 55.95213,69.44768 51.471123,64.870216 51.5,59.499997 51.530317,53.861946 56.124984,49.447566 61.500002,49.5 Z"
       inkscape:connector-curvature="0" />
    <path
       style="fill:none;stroke:url(#linearGradient3098);stroke-width:0.99999988;stroke-miterlimit:4;stroke-dasharray:none"
       id="path28-6"
       d="m 61.5,39.500234 c -11.028002,0 -20,8.971946 -20,19.999883 0,11.027936 8.971998,19.999883 20,19.999883 11.028002,0 20,-8.971947 20,-19.999883 0,-11.027937 -8.971998,-19.999883 -20,-19.999883 z"
       inkscape:connector-curvature="0" />
    <path
       style="opacity:0.05;fill:#000000;fill-opacity:1;stroke:none"
       id="path3315-7"
       d="M 61.5,40 C 50.747519,39.999998 42,48.74752 42,59.5 42,70.25248 50.747519,79 61.5,79 72.252479,78.999999 81,70.25248 81,59.5 81,48.74752 72.252479,40 61.5,40 Z m 0,9 C 67.296001,49 72,53.704 72,59.5 72,65.296 67.296001,70 61.5,70 55.704,70 51,65.296 51,59.5 51,53.704 55.704,49 61.5,49 Z"
       inkscape:connector-curvature="0" />
  </g>
</svg>
