<?xml version="1.0" encoding="UTF-8" standalone="no"?>
<svg
   xmlns:dc="http://purl.org/dc/elements/1.1/"
   xmlns:cc="http://creativecommons.org/ns#"
   xmlns:rdf="http://www.w3.org/1999/02/22-rdf-syntax-ns#"
   xmlns:svg="http://www.w3.org/2000/svg"
   xmlns="http://www.w3.org/2000/svg"
   xmlns:xlink="http://www.w3.org/1999/xlink"
   id="svg11300"
   height="48"
   width="48"
   version="1.0">
  <metadata
     id="metadata851">
    <rdf:RDF>
      <cc:Work
         rdf:about="">
        <dc:format>image/svg+xml</dc:format>
        <dc:type
           rdf:resource="http://purl.org/dc/dcmitype/StillImage" />
      </cc:Work>
    </rdf:RDF>
  </metadata>
  <defs
     id="defs3">
    <linearGradient
       id="linearGradient6311">
      <stop
         offset="0"
         style="stop-color:#9b9b9b;stop-opacity:1"
         id="stop6313" />
      <stop
         offset="1"
         style="stop-color:#9b9b9b;stop-opacity:0"
         id="stop6315" />
    </linearGradient>
    <linearGradient
       id="linearGradient6393">
      <stop
         offset="0"
         style="stop-color:#f7fc66;stop-opacity:1"
         id="stop6395" />
      <stop
         offset="1"
         style="stop-color:#6efb27;stop-opacity:1"
         id="stop6397" />
    </linearGradient>
    <linearGradient
       id="linearGradient6866">
      <stop
         offset="0"
         style="stop-color:#828282;stop-opacity:1"
         id="stop6868" />
      <stop
         offset="1"
         style="stop-color:#aaa;stop-opacity:1"
         id="stop6870" />
    </linearGradient>
    <linearGradient
       id="linearGradient6842">
      <stop
         offset="0"
         style="stop-color:white;stop-opacity:1"
         id="stop6844" />
      <stop
         offset="1"
         style="stop-color:white;stop-opacity:0"
         id="stop6846" />
    </linearGradient>
    <linearGradient
       id="linearGradient6828">
      <stop
         offset="0"
         style="stop-color:#6e6e6e;stop-opacity:1"
         id="stop6830" />
      <stop
         offset="1"
         style="stop-color:#1e1e1e;stop-opacity:1"
         id="stop6832" />
    </linearGradient>
    <linearGradient
       id="linearGradient2463">
      <stop
         offset="0"
         style="stop-color:white;stop-opacity:1"
         id="stop2465" />
      <stop
         offset="1"
         style="stop-color:white;stop-opacity:0"
         id="stop2467" />
    </linearGradient>
    <linearGradient
       id="linearGradient2366">
      <stop
         offset="0"
         style="stop-color:#2e3436;stop-opacity:1"
         id="stop2368" />
      <stop
         offset="1"
         style="stop-color:#555753;stop-opacity:1"
         id="stop2370" />
    </linearGradient>
    <linearGradient
       id="linearGradient7612">
      <stop
         offset="0"
         style="stop-color:black;stop-opacity:1"
         id="stop7614" />
      <stop
         offset="1"
         style="stop-color:black;stop-opacity:0"
         id="stop7616" />
    </linearGradient>
    <linearGradient
       id="linearGradient8589">
      <stop
         offset="0"
         style="stop-color:#fefefe;stop-opacity:1"
         id="stop8591" />
      <stop
         offset="1"
         style="stop-color:#bebebe;stop-opacity:1"
         id="stop8593" />
    </linearGradient>
    <linearGradient
       id="linearGradient3600">
      <stop
         offset="0"
         style="stop-color:#f4f4f4;stop-opacity:1"
         id="stop3602" />
      <stop
         offset="1"
         style="stop-color:#dbdbdb;stop-opacity:1"
         id="stop3604" />
    </linearGradient>
    <linearGradient
       id="linearGradient3104">
      <stop
         offset="0"
         style="stop-color:#969696;stop-opacity:1"
         id="stop3106" />
      <stop
         offset="1"
         style="stop-color:#bebebe;stop-opacity:1"
         id="stop3108" />
    </linearGradient>
    <linearGradient
       gradientTransform="translate(0,2)"
       gradientUnits="userSpaceOnUse"
       xlink:href="#linearGradient6828"
       id="linearGradient5538"
       y2="38"
       x2="24.875"
       y1="41"
       x1="24.875" />
    <linearGradient
       gradientTransform="translate(0,2)"
       gradientUnits="userSpaceOnUse"
       xlink:href="#linearGradient8589"
       id="linearGradient5541"
       y2="43.380203"
       x2="21.0625"
       y1="38"
       x1="21.0625" />
    <radialGradient
       gradientTransform="matrix(0.9585208,-0.09966997,0.1135695,1.0921915,-0.8814201,3.7206174)"
       gradientUnits="userSpaceOnUse"
       xlink:href="#linearGradient6393"
       id="radialGradient5544"
       fy="31.496664"
       fx="40.092358"
       r="0.38912815"
       cy="31.496664"
       cx="40.092358" />
    <linearGradient
       gradientTransform="matrix(0.5626184,0,0,0.6430234,18.432822,14.72726)"
       gradientUnits="userSpaceOnUse"
       xlink:href="#linearGradient3104"
       id="linearGradient5547"
       y2="31.987118"
       x2="39.931473"
       y1="28.41691"
       x1="39.947655" />
    <radialGradient
       gradientTransform="matrix(1,0,0,0.3846154,0,18.615373)"
       gradientUnits="userSpaceOnUse"
       xlink:href="#linearGradient2463"
       id="radialGradient5550"
       fy="15.279687"
       fx="11.537243"
       r="13"
       cy="15.279687"
       cx="11.537243" />
    <linearGradient
       gradientTransform="matrix(0.9705882,0,0,0.8,0.7058824,10.1)"
       gradientUnits="userSpaceOnUse"
       xlink:href="#linearGradient6828"
       id="linearGradient5553"
       y2="40.875"
       x2="7.4545455"
       y1="31.15625"
       x1="7.5170455" />
    <linearGradient
       gradientTransform="translate(0.5,1.5)"
       gradientUnits="userSpaceOnUse"
       xlink:href="#linearGradient2366"
       id="linearGradient5555"
       y2="33.5"
       x2="9.5"
       y1="41.375"
       x1="9.5625" />
    <linearGradient
       gradientTransform="translate(-2.5e-7,1.999981)"
       gradientUnits="userSpaceOnUse"
       xlink:href="#linearGradient6828"
       id="linearGradient5558"
       y2="33"
       x2="22.007805"
       y1="21"
       x1="21.919418" />
    <linearGradient
       gradientTransform="translate(-2.5e-7,1.999981)"
       gradientUnits="userSpaceOnUse"
       xlink:href="#linearGradient2366"
       id="linearGradient5560"
       y2="21"
       x2="15.335471"
       y1="33"
       x1="15.600636" />
    <linearGradient
       gradientTransform="matrix(0.7828347,0,0,0.8639232,4.8577161,0.6627691)"
       gradientUnits="userSpaceOnUse"
       xlink:href="#linearGradient8589"
       id="linearGradient5563"
       y2="5.4565363"
       x2="36.358372"
       y1="8.0590115"
       x1="32.892288" />
    <linearGradient
       gradientTransform="matrix(0.7142849,0,0,0.6998651,6.857167,1.4502166)"
       gradientUnits="userSpaceOnUse"
       xlink:href="#linearGradient3600"
       id="linearGradient5567"
       y2="47.013336"
       x2="25.132275"
       y1="6.7287393"
       x1="25.132275" />
    <linearGradient
       gradientTransform="matrix(0.5767828,0,0,0.6549695,49.293,0.6702317)"
       gradientUnits="userSpaceOnUse"
       xlink:href="#linearGradient3104"
       id="linearGradient5569"
       y2="2.9062471"
       x2="-51.786404"
       y1="50.786446"
       x1="-51.786404" />
    <radialGradient
       gradientTransform="matrix(0.9998239,0.01876396,-0.01262691,0.6728156,0.1511534,16.48859)"
       gradientUnits="userSpaceOnUse"
       xlink:href="#linearGradient6842"
       id="radialGradient5572"
       fy="11.918329"
       fx="3.7590685"
       r="21"
       cy="11.918329"
       cx="3.7590685" />
    <linearGradient
       gradientTransform="translate(-2.5e-7,1.999981)"
       gradientUnits="userSpaceOnUse"
       xlink:href="#linearGradient8589"
       id="linearGradient5575"
       y2="37"
       x2="11.50602"
       y1="20"
       x1="11.519291" />
    <linearGradient
       gradientTransform="translate(0,2)"
       gradientUnits="userSpaceOnUse"
       xlink:href="#linearGradient6866"
       id="linearGradient5577"
       y2="19.999981"
       x2="20.278992"
       y1="36.999981"
       x1="20.561552" />
    <linearGradient
       gradientTransform="matrix(0.8789125,0,0,1.1284132,2.9061009,0.9064125)"
       gradientUnits="userSpaceOnUse"
       xlink:href="#linearGradient6828"
       id="linearGradient5580"
       y2="18.919773"
       x2="21.686989"
       y1="9.5515556"
       x1="21.586424" />
    <linearGradient
       gradientTransform="matrix(0.8789125,0,0,1.1284132,2.9061009,0.9064125)"
       gradientUnits="userSpaceOnUse"
       xlink:href="#linearGradient2366"
       id="linearGradient5582"
       y2="8.9371939"
       x2="7.4375"
       y1="14.105195"
       x1="7.4375" />
    <radialGradient
       gradientTransform="matrix(1.254902,0,0,0.339869,-6.1176472,27.267974)"
       gradientUnits="userSpaceOnUse"
       xlink:href="#linearGradient7612"
       id="radialGradient5585"
       fy="41.875"
       fx="24"
       r="19.125"
       cy="41.875"
       cx="24" />
    <linearGradient
       gradientUnits="userSpaceOnUse"
       xlink:href="#linearGradient6311"
       id="linearGradient6317"
       y2="6"
       x2="24"
       y1="21"
       x1="24" />
  </defs>
  <g
     id="g6448">
    <path
       style="opacity:0.5;fill:url(#radialGradient5585);fill-opacity:1;fill-rule:nonzero;stroke:none;stroke-width:4;marker:none;visibility:visible;display:inline;overflow:visible"
       id="path3087"
       d="M 48.000002,41.499999 C 48.000002,45.08985 37.254835,48 24.000001,48 10.745166,48 5e-8,45.08985 5e-8,41.499999 5e-8,37.910148 10.745166,34.999998 24.000001,34.999998 c 13.254834,0 24.000001,2.91015 24.000001,6.500001 l 0,0 z" />
    <rect
       style="fill:url(#linearGradient5580);fill-opacity:1;stroke:url(#linearGradient5582);stroke-width:0.99603385;stroke-linecap:round;stroke-linejoin:round;stroke-miterlimit:4;stroke-opacity:1;stroke-dasharray:none;display:inline"
       id="rect2315"
       y="10.497924"
       x="9.4979439"
       ry="0.72383887"
       rx="0.56379259"
       height="22.004059"
       width="29.00411" />
    <path
       style="fill:url(#linearGradient5575);fill-opacity:1;stroke:url(#linearGradient5577);stroke-width:1;stroke-linecap:round;stroke-linejoin:round;stroke-miterlimit:4;stroke-opacity:1"
       id="rect2313"
       d="m 4.5789659,22.499981 4.9210339,0 1.0000002,1 27,0 1,-1 4.921034,0 c 1.151747,0 2.078966,0.927219 2.078966,2.078966 l 0,13.921034 -43.0000002,0 0,-13.921034 c 0,-1.151747 0.9272188,-2.078966 2.0789661,-2.078966 z" />
    <path
       style="opacity:0.9;fill:none;stroke:url(#radialGradient5572);stroke-width:1;stroke-linecap:round;stroke-linejoin:miter;stroke-miterlimit:4;stroke-opacity:1;display:inline"
       id="rect2374"
       d="m 4.4999997,23.499981 39.0000003,0 c 0.518817,0 1,0.481183 1,1 l 0,13 -41.0000002,0 0,-13 c 0,-0.518817 0.4811833,-1 0.9999999,-1 z" />
    <path
       style="fill:url(#linearGradient5567);fill-opacity:1;stroke:url(#linearGradient5569);stroke-width:0.99997759;stroke-linecap:butt;stroke-linejoin:round;stroke-miterlimit:4;stroke-opacity:1;stroke-dasharray:none;stroke-dashoffset:0;display:inline"
       id="rect2594"
       d="m 11.499989,2.4999892 c 5.728776,0 11.457549,0 17.186322,0 1.00495,0.3397 6.403888,4.2097834 7.8137,6.88944 0,8.2015158 0,6.9090548 0,15.1105708 -8.333341,0 -16.66668,0 -25.000022,0 0,-10.497995 0,-11.502016 0,-22.0000108 z" />
    <path
       style="fill:black;fill-opacity:0.32663317;fill-rule:evenodd;stroke:black;stroke-width:1.00754702;stroke-linecap:butt;stroke-linejoin:round;stroke-miterlimit:4;stroke-opacity:0.16582917;stroke-dasharray:none;display:inline"
       id="path8596"
       d="m 28.172621,2.503731 c 0.461632,3.1311527 0.441325,6.8576695 0.441325,6.8576695 0,0 3.526294,-0.084635 7.882281,0.450826 C 32.950272,6.1780173 30.465386,4.662651 28.172621,2.503731 z" />
    <path
       style="fill:url(#linearGradient5563);fill-opacity:1;fill-rule:evenodd;stroke:none;display:inline"
       id="path12038"
       d="m 28,1.9999575 c 1.10808,3.3466499 1.01618,6.706052 1.01618,6.706052 0,0 6.146086,0.444304 7.98382,1.293948 0,-1.389106 -7.295193,-7.9762865 -9,-8 z" />
    <rect
       style="fill:url(#linearGradient5558);fill-opacity:1;stroke:url(#linearGradient5560);stroke-width:1;stroke-linecap:round;stroke-linejoin:miter;stroke-miterlimit:4;stroke-opacity:1;stroke-dasharray:none"
       id="rect2319"
       y="23.499981"
       x="10.5"
       height="11"
       width="27" />
    <path
       style="fill:url(#linearGradient5553);fill-opacity:1;stroke:url(#linearGradient5555);stroke-width:1;stroke-linecap:square;stroke-linejoin:miter;stroke-miterlimit:4;stroke-opacity:1;stroke-dasharray:none"
       id="rect6333"
       d="M 3.5,38.5 C 3.580089,39.536507 3.2926219,40.651877 3.7536297,41.61219 4.6184456,42.831026 6.2237037,42.430252 7.5,42.5 c 0.023032,0.719497 -0.2134627,1.830225 0.7727435,1.983266 10.4180765,0.03903 20.8392415,0.0056 31.2585065,0.01673 1.075221,0.03177 1.003507,-1.16201 0.96875,-1.919563 0.351156,-0.186608 1.047908,-0.02762 1.532856,-0.08044 1.19992,0.163086 2.667095,-0.659828 2.467144,-2.028135 0,-0.657288 0,-1.314577 0,-1.971865 -13.666667,0 -27.333333,0 -41,0 z" />
    <rect
       style="opacity:0.3;fill:none;stroke:url(#radialGradient5550);stroke-width:0.99999982;stroke-linecap:round;stroke-linejoin:miter;stroke-miterlimit:4;stroke-opacity:1;stroke-dasharray:none;display:inline"
       id="rect2459"
       y="24.499981"
       x="11.5"
       height="9"
       width="25" />
    <path
       style="fill:none;stroke:url(#linearGradient5547);stroke-width:0.74988067;stroke-linecap:round;stroke-linejoin:round;stroke-miterlimit:4;stroke-opacity:1;stroke-dasharray:none"
       id="path2726"
       d="m 42.625413,34.50023 c 0,0.62148 -0.503786,1.125291 -1.125237,1.125291 -0.62145,0 -1.125236,-0.503811 -1.125236,-1.125291 0,-0.621481 0.503786,-1.125291 1.125236,-1.125291 0.621451,0 1.125237,0.50381 1.125237,1.125291 z" />
    <path
       style="fill:url(#radialGradient5544);fill-opacity:1;stroke:none"
       id="path2764"
       d="m 42.299999,34.500001 c 3.88e-4,0.442102 -0.357898,0.800702 -0.8,0.800702 -0.442102,0 -0.800388,-0.3586 -0.8,-0.800702 -3.88e-4,-0.442102 0.357898,-0.800702 0.8,-0.800702 0.442102,0 0.800388,0.3586 0.8,0.800702 l 0,0 z" />
    <path
       style="fill:url(#linearGradient5541);fill-opacity:1;stroke:none"
       id="rect6331"
       d="m 40,40 0,3.5 c 0,0.277 -0.223,0.5 -0.5,0.5 l -31,0 C 8.223,44 8,43.777 8,43.5 L 8,40 40,40 z" />
    <rect
       style="fill:url(#linearGradient5538);fill-opacity:1;stroke:none"
       id="rect6329"
       y="40"
       x="10"
       height="2"
       width="28" />
    <path
       style="fill:url(#linearGradient6317);fill-opacity:1;fill-rule:nonzero;stroke:none;stroke-width:0.98542732;marker:none;visibility:visible;display:inline;overflow:visible"
       id="path3288"
       d="m 31,13 -7,8 -7,-8 3,0 0,-7 8,0 0,7 3,0 z" />
  </g>
</svg>
