<?xml version="1.0" encoding="UTF-8" standalone="no"?>
<svg
   xmlns:dc="http://purl.org/dc/elements/1.1/"
   xmlns:cc="http://creativecommons.org/ns#"
   xmlns:rdf="http://www.w3.org/1999/02/22-rdf-syntax-ns#"
   xmlns:svg="http://www.w3.org/2000/svg"
   xmlns="http://www.w3.org/2000/svg"
   xmlns:xlink="http://www.w3.org/1999/xlink"
   id="svg4297"
   height="48"
   width="48"
   version="1.0">
  <metadata
     id="metadata7197">
    <rdf:RDF>
      <cc:Work
         rdf:about="">
        <dc:format>image/svg+xml</dc:format>
        <dc:type
           rdf:resource="http://purl.org/dc/dcmitype/StillImage" />
      </cc:Work>
    </rdf:RDF>
  </metadata>
  <defs
     id="defs4299">
    <radialGradient
       gradientTransform="matrix(0.5938225,0,0,1.5366531,41.140892,-103.93618)"
       gradientUnits="userSpaceOnUse"
       xlink:href="#linearGradient3681"
       id="radialGradient3314"
       fy="41.5"
       fx="5"
       r="5"
       cy="41.5"
       cx="5" />
    <linearGradient
       id="linearGradient3703">
      <stop
         offset="0"
         style="stop-color:#000000;stop-opacity:0"
         id="stop3705" />
      <stop
         offset="0.5"
         style="stop-color:#000000;stop-opacity:1"
         id="stop3711" />
      <stop
         offset="1"
         style="stop-color:#000000;stop-opacity:0"
         id="stop3707" />
    </linearGradient>
    <linearGradient
       gradientTransform="matrix(1.7570316,0,0,1.3969574,-17.394014,-16.411698)"
       gradientUnits="userSpaceOnUse"
       xlink:href="#linearGradient3703"
       id="linearGradient3312"
       y2="34.999718"
       x2="17.554192"
       y1="46.000275"
       x1="17.554192" />
    <linearGradient
       id="linearGradient3681">
      <stop
         offset="0"
         style="stop-color:#000000;stop-opacity:1"
         id="stop3683" />
      <stop
         offset="1"
         style="stop-color:#000000;stop-opacity:0"
         id="stop3685" />
    </linearGradient>
    <radialGradient
       gradientTransform="matrix(0.5938225,0,0,1.5366531,-6.6594735,-103.93618)"
       gradientUnits="userSpaceOnUse"
       xlink:href="#linearGradient3681"
       id="radialGradient3310"
       fy="41.5"
       fx="5"
       r="5"
       cy="41.5"
       cx="5" />
    <linearGradient
       id="linearGradient3295">
      <stop
         offset="0"
         style="stop-color:#c9af8b;stop-opacity:1"
         id="stop3297" />
      <stop
         offset="0.23942046"
         style="stop-color:#ad8757;stop-opacity:1"
         id="stop3299" />
      <stop
         offset="0.27582464"
         style="stop-color:#c2a57f;stop-opacity:1"
         id="stop3301" />
      <stop
         offset="1"
         style="stop-color:#9d7d53;stop-opacity:1"
         id="stop3303" />
    </linearGradient>
    <linearGradient
       gradientUnits="userSpaceOnUse"
       xlink:href="#linearGradient3295"
       id="linearGradient3293"
       y2="45.04248"
       x2="15.464298"
       y1="7.9756851"
       x1="15.464298" />
    <linearGradient
       id="linearGradient3199">
      <stop
         offset="0"
         style="stop-color:#dac197;stop-opacity:1"
         id="stop3201" />
      <stop
         offset="0.23942046"
         style="stop-color:#c1a581;stop-opacity:1"
         id="stop3203" />
      <stop
         offset="0.27582464"
         style="stop-color:#dbc298;stop-opacity:1"
         id="stop3205" />
      <stop
         offset="1"
         style="stop-color:#a68b60;stop-opacity:1"
         id="stop3207" />
    </linearGradient>
    <linearGradient
       gradientTransform="matrix(1.2822251,0,0,1.5572619,-6.0701918,-15.290756)"
       gradientUnits="userSpaceOnUse"
       xlink:href="#linearGradient3199"
       id="linearGradient3197"
       y2="37.27668"
       x2="24.996943"
       y1="15.377745"
       x1="24.822832" />
    <linearGradient
       id="linearGradient4559">
      <stop
         offset="0"
         style="stop-color:#ffffff;stop-opacity:0"
         id="stop4561" />
      <stop
         offset="1"
         style="stop-color:#ffffff;stop-opacity:0"
         id="stop4563" />
    </linearGradient>
    <linearGradient
       gradientTransform="matrix(1.2822251,0,0,1.1746872,-6.0701918,-5.3031677)"
       gradientUnits="userSpaceOnUse"
       xlink:href="#linearGradient4559"
       id="linearGradient2659"
       y2="45.934479"
       x2="43.00663"
       y1="30.554907"
       x1="23.451576" />
    <linearGradient
       id="linearGradient3827">
      <stop
         offset="0"
         style="stop-color:#ffffff;stop-opacity:1"
         id="stop3829" />
      <stop
         offset="0.3021296"
         style="stop-color:#ffffff;stop-opacity:1"
         id="stop4295" />
      <stop
         offset="0.34361121"
         style="stop-color:#ffffff;stop-opacity:0.6901961"
         id="stop4293" />
      <stop
         offset="1"
         style="stop-color:#ffffff;stop-opacity:0"
         id="stop3832" />
    </linearGradient>
    <linearGradient
       gradientUnits="userSpaceOnUse"
       xlink:href="#linearGradient3827"
       id="linearGradient3834"
       y2="8"
       x2="26"
       y1="22"
       x1="26" />
    <linearGradient
       id="linearGradient3275">
      <stop
         offset="0"
         style="stop-color:#ffffff;stop-opacity:0"
         id="stop3277" />
      <stop
         offset="0.245"
         style="stop-color:#ffffff;stop-opacity:1"
         id="stop3283" />
      <stop
         offset="0.77350003"
         style="stop-color:#ffffff;stop-opacity:1"
         id="stop3285" />
      <stop
         offset="1"
         style="stop-color:#ffffff;stop-opacity:0"
         id="stop3279" />
    </linearGradient>
    <linearGradient
       spreadMethod="reflect"
       gradientUnits="userSpaceOnUse"
       xlink:href="#linearGradient3275"
       id="linearGradient3281"
       y2="17.5"
       x2="3.0052247"
       y1="17.5"
       x1="44.994774" />
    <radialGradient
       gradientUnits="userSpaceOnUse"
       xlink:href="#linearGradient6057"
       id="radialGradient2501"
       fy="6.2806997"
       fx="18.031223"
       r="3.1819806"
       cy="6.2806997"
       cx="18.031223" />
    <linearGradient
       id="linearGradient6057">
      <stop
         offset="0"
         style="stop-color:#ffffff;stop-opacity:1"
         id="stop6059" />
      <stop
         offset="1"
         style="stop-color:#ffffff;stop-opacity:0"
         id="stop6061" />
    </linearGradient>
    <filter
       id="filter5745">
      <feGaussianBlur
         stdDeviation="0.8362597"
         id="feGaussianBlur5747" />
    </filter>
    <linearGradient
       gradientTransform="translate(0,-1.926279)"
       gradientUnits="userSpaceOnUse"
       xlink:href="#linearGradient10591"
       id="linearGradient2503"
       y2="17.470011"
       x2="27.192274"
       y1="2.9136841"
       x1="10.650842" />
    <linearGradient
       id="linearGradient10591">
      <stop
         offset="0"
         style="stop-color:#cad0c6;stop-opacity:1"
         id="stop10593" />
      <stop
         offset="0.5"
         style="stop-color:#eaece9;stop-opacity:1"
         id="stop10599" />
      <stop
         offset="1"
         style="stop-color:#c5cbc0;stop-opacity:1"
         id="stop10595" />
    </linearGradient>
    <linearGradient
       gradientTransform="translate(1.6824037,1.125)"
       gradientUnits="userSpaceOnUse"
       xlink:href="#linearGradient6227"
       id="linearGradient2505"
       y2="14.849737"
       x2="33.004314"
       y1="14.849737"
       x1="35.004684" />
    <linearGradient
       id="linearGradient6227">
      <stop
         offset="0"
         style="stop-color:#000000;stop-opacity:1"
         id="stop6229" />
      <stop
         offset="1"
         style="stop-color:#000000;stop-opacity:0"
         id="stop6231" />
    </linearGradient>
    <filter
       x="-0.24242526"
       width="1.4848505"
       y="-0.047579072"
       height="1.0951581"
       id="filter6251">
      <feGaussianBlur
         stdDeviation="0.24444548"
         id="feGaussianBlur6253" />
    </filter>
    <linearGradient
       gradientTransform="translate(-19.532826,1.7437184)"
       gradientUnits="userSpaceOnUse"
       xlink:href="#linearGradient6227"
       id="linearGradient2507"
       y2="13.789077"
       x2="35.020981"
       y1="13.789077"
       x1="32.128025" />
    <radialGradient
       gradientTransform="matrix(0.9016129,0,0,0.5321984,7.5421369,2.5753364)"
       gradientUnits="userSpaceOnUse"
       xlink:href="#linearGradient6075"
       id="radialGradient2468"
       fy="20.3125"
       fx="15.9375"
       r="3.3125"
       cy="20.3125"
       cx="15.9375" />
    <linearGradient
       id="linearGradient6075">
      <stop
         offset="0"
         style="stop-color:#000000;stop-opacity:1"
         id="stop6077" />
      <stop
         offset="1"
         style="stop-color:#000000;stop-opacity:0"
         id="stop6079" />
    </linearGradient>
    <radialGradient
       gradientTransform="matrix(0.9016129,0,0,0.5321984,-4.1578631,2.5753364)"
       gradientUnits="userSpaceOnUse"
       xlink:href="#linearGradient6075"
       id="radialGradient2471"
       fy="20.3125"
       fx="15.9375"
       r="3.3125"
       cy="20.3125"
       cx="15.9375" />
    <filter
       x="-0.49411765"
       width="1.9882354"
       y="-0.082352944"
       height="1.1647059"
       id="filter5957">
      <feGaussianBlur
         stdDeviation="0.69878785"
         id="feGaussianBlur5959" />
    </filter>
    <linearGradient
       gradientTransform="matrix(0.5757575,0,0,0.5031882,2.1818188,5.6942037)"
       gradientUnits="userSpaceOnUse"
       xlink:href="#linearGradient12071"
       id="linearGradient2475"
       y2="18.037588"
       x2="21.941509"
       y1="21.550869"
       x1="21.941509" />
    <linearGradient
       id="linearGradient12071">
      <stop
         offset="0"
         style="stop-color:#ffffff;stop-opacity:1"
         id="stop12073" />
      <stop
         offset="1"
         style="stop-color:#ffffff;stop-opacity:0"
         id="stop12075" />
    </linearGradient>
    <linearGradient
       gradientTransform="matrix(0.5882353,0,0,1.0093553,1.8823531,-5.4858893)"
       gradientUnits="userSpaceOnUse"
       xlink:href="#linearGradient5881"
       id="linearGradient2478"
       y2="17"
       x2="24.75"
       y1="21"
       x1="24.875" />
    <linearGradient
       id="linearGradient5881">
      <stop
         offset="0"
         style="stop-color:#d6c8a7;stop-opacity:1"
         id="stop5883" />
      <stop
         offset="1"
         style="stop-color:#d0bd99;stop-opacity:1"
         id="stop5885" />
    </linearGradient>
    <linearGradient
       gradientTransform="matrix(0.5752306,0,0,0.7195037,2.2029063,-2.3652521)"
       gradientUnits="userSpaceOnUse"
       xlink:href="#linearGradient9845"
       id="linearGradient2481"
       y2="36.127281"
       x2="30.875446"
       y1="25.002281"
       x1="10.907269" />
    <linearGradient
       id="linearGradient9845">
      <stop
         offset="0"
         style="stop-color:#ffffff;stop-opacity:1"
         id="stop9847" />
      <stop
         offset="1"
         style="stop-color:#ffffff;stop-opacity:0.49484536"
         id="stop9849" />
    </linearGradient>
    <linearGradient
       gradientTransform="matrix(0.6001069,0,0,0.7556764,1.5993054,-4.5076835)"
       gradientUnits="userSpaceOnUse"
       xlink:href="#linearGradient2411"
       id="linearGradient2494"
       y2="32.161697"
       x2="40.938126"
       y1="32.161697"
       x1="6.72682" />
    <linearGradient
       id="linearGradient2411">
      <stop
         offset="0"
         style="stop-color:#fee7b1;stop-opacity:1"
         id="stop2413" />
      <stop
         offset="0.25796592"
         style="stop-color:#ebd4b4;stop-opacity:1"
         id="stop2419" />
      <stop
         offset="0.50796592"
         style="stop-color:#c8a775;stop-opacity:1"
         id="stop2421" />
      <stop
         offset="0.74009573"
         style="stop-color:#b0935b;stop-opacity:1"
         id="stop2423" />
      <stop
         offset="1"
         style="stop-color:#fcebbf;stop-opacity:1"
         id="stop2415" />
    </linearGradient>
    <linearGradient
       gradientTransform="matrix(0.6363637,0,0,0.6688257,0.7272722,0.7372566)"
       gradientUnits="userSpaceOnUse"
       xlink:href="#linearGradient3257"
       id="linearGradient2496"
       y2="13.996504"
       x2="22.015385"
       y1="45"
       x1="22.015385" />
    <linearGradient
       id="linearGradient3257">
      <stop
         offset="0"
         style="stop-color:#957747;stop-opacity:1"
         id="stop3259" />
      <stop
         offset="1"
         style="stop-color:#ae8c56;stop-opacity:1"
         id="stop3261" />
    </linearGradient>
    <radialGradient
       gradientTransform="matrix(0.6627767,0,0,0.1337718,-0.2077987,23.106258)"
       gradientUnits="userSpaceOnUse"
       xlink:href="#linearGradient3437"
       id="radialGradient2499"
       fy="46.869949"
       fx="24.45439"
       r="19.61445"
       cy="46.869949"
       cx="24.45439" />
    <linearGradient
       id="linearGradient3437">
      <stop
         offset="0"
         style="stop-color:#000000;stop-opacity:1"
         id="stop3439" />
      <stop
         offset="1"
         style="stop-color:#000000;stop-opacity:0"
         id="stop3441" />
    </linearGradient>
  </defs>
  <g
     id="layer1">
    <g
       style="opacity:0.4;display:inline"
       id="g3305"
       transform="matrix(0.9926623,0,0,0.9761474,0.2751901,1.2929634)">
      <rect
         style="opacity:1;fill:url(#radialGradient3310);fill-opacity:1;stroke:none;stroke-width:1;stroke-linecap:round;stroke-linejoin:miter;stroke-miterlimit:4;stroke-dasharray:none;stroke-dashoffset:1.20000057;stroke-opacity:1"
         id="rect2484"
         transform="scale(-1,-1)"
         y="-47.848343"
         x="-3.6903627"
         height="15.366531"
         width="2.9601951" />
      <rect
         style="opacity:1;fill:url(#linearGradient3312);fill-opacity:1;stroke:none;stroke-width:1;stroke-linecap:round;stroke-linejoin:miter;stroke-miterlimit:4;stroke-dasharray:none;stroke-dashoffset:1.20000057;stroke-opacity:1"
         id="rect2486"
         y="32.481812"
         x="3.6903627"
         height="15.366531"
         width="40.41172" />
      <rect
         style="opacity:1;fill:url(#radialGradient3314);fill-opacity:1;stroke:none;stroke-width:1;stroke-linecap:round;stroke-linejoin:miter;stroke-miterlimit:4;stroke-dasharray:none;stroke-dashoffset:1.20000057;stroke-opacity:1;display:inline"
         id="rect3444"
         transform="scale(1,-1)"
         y="-47.848343"
         x="44.110001"
         height="15.366531"
         width="2.9601951" />
    </g>
    <path
       style="fill:url(#linearGradient3197);fill-opacity:1;fill-rule:nonzero;stroke:url(#linearGradient3293);stroke-width:0.99420077;stroke-linecap:round;stroke-linejoin:miter;marker:none;marker-start:none;marker-mid:none;marker-end:none;stroke-miterlimit:4;stroke-dasharray:none;stroke-dashoffset:0;stroke-opacity:1;visibility:visible;display:block;overflow:visible"
       id="path2488"
       d="M 9.010725,8.5 L 38.508448,8.5 C 40.230433,8.5 41.00537,8.2134495 41.5,9.5 L 44.501734,17.5 L 44.501734,43.173912 C 44.501734,44.727216 44.604664,44.489888 42.882671,44.489888 L 5.1173288,44.489888 C 3.3953364,44.489888 3.4982653,44.727216 3.4982653,43.173912 L 3.4982653,17.5 L 6.5,9.5 C 6.9808316,8.2394378 7.2887325,8.5 9.010725,8.5 z" />
    <path
       style="opacity:0.50549454;fill:none;fill-opacity:1;fill-rule:nonzero;stroke:url(#linearGradient2659);stroke-width:0.74211526;stroke-linecap:butt;stroke-linejoin:miter;marker:none;marker-start:none;marker-mid:none;marker-end:none;stroke-miterlimit:4;stroke-dasharray:none;stroke-dashoffset:0;stroke-opacity:1;visibility:visible;display:block;overflow:visible"
       id="path2490"
       d="M 9.948194,9.5129459 L 37.601066,9.5129459 C 39.215359,9.5129459 40.214446,10.069482 40.890587,11.598974 L 43.219527,18.018695 L 43.219527,41.163252 C 43.219527,42.623928 42.400768,43.359337 40.786471,43.359337 L 7.0532679,43.359337 C 5.4389745,43.359337 4.7804918,42.55051 4.7804918,41.089833 L 4.7804918,18.018695 L 7.0343027,11.461335 C 7.4850649,10.275943 8.3338968,9.5129459 9.948194,9.5129459 z" />
    <path
       style="opacity:0.4;fill:url(#linearGradient3834);fill-opacity:1;fill-rule:nonzero;stroke:none;stroke-width:1;stroke-linecap:square;stroke-linejoin:round;marker:none;marker-start:none;marker-mid:none;marker-end:none;stroke-miterlimit:4;stroke-dasharray:none;stroke-dashoffset:0;stroke-opacity:1;visibility:visible;display:inline;overflow:visible;enable-background:accumulate"
       id="rect3326"
       d="M 22,8 C 23.333333,8 24.666667,8 26,8 C 26,12.666667 26,17.333333 26,22 C 25.606271,22 25.212542,22 24.818813,22 C 24.415688,22 24.012563,22 23.609438,22 C 23.284909,22 22.960381,22 22.635853,22 C 22.423902,22 22.211951,22 22,22 C 22,17.333333 22,12.666667 22,8 z" />
    <path
       style="opacity:0.4;fill:none;fill-rule:evenodd;stroke:url(#linearGradient3281);stroke-width:1px;stroke-linecap:square;stroke-linejoin:miter;stroke-opacity:1;display:inline"
       id="path3273"
       d="M 3.5052248,17.5 L 44.494775,17.5" />
    <g
       id="g2565"
       transform="translate(19,16)">
      <path
         style="opacity:0.4;fill:url(#radialGradient2499);fill-opacity:1;stroke:none;stroke-width:0.46202838;stroke-linecap:butt;stroke-miterlimit:4;stroke-dasharray:none;stroke-dashoffset:0;stroke-opacity:1"
         id="path3435"
         d="M 29,29.376138 C 29,30.825256 23.179701,32 16,32 C 8.8202983,32 2.9999999,30.825256 2.9999999,29.376138 C 2.9999999,27.92702 8.8202983,26.752276 16,26.752276 C 23.179701,26.752276 29,27.92702 29,29.376138 z" />
      <path
         style="fill:url(#linearGradient2494);fill-opacity:1;fill-rule:evenodd;stroke:url(#linearGradient2496);stroke-width:0.99999946;stroke-linecap:round;stroke-linejoin:round;stroke-miterlimit:4;stroke-dashoffset:0;stroke-opacity:1"
         id="rect1314"
         d="M 6.8412233,11.169013 C 12.89135,10.20363 19.005852,10.353502 25.158776,11.169013 C 25.901815,11.169013 26.5,11.866979 26.5,12.73396 L 26.5,28.331183 C 26.5,29.198165 25.863209,29.770726 25.158776,29.896131 C 18.779637,30.704476 13.309955,30.698095 6.8412233,29.896131 C 5.9823661,29.60352 5.4999997,29.198165 5.4999997,28.331183 L 5.4999997,12.73396 C 5.4999997,11.866979 6.0981854,11.169013 6.8412233,11.169013 z" />
      <g
         id="g4695"
         transform="matrix(0.6135135,0,0,0.6517122,0.2148499,6.9218981e-2)">
        <path
           style="opacity:0.14117647;fill:#000000;fill-opacity:1;fill-rule:evenodd;stroke:none;stroke-width:1;stroke-linecap:round;stroke-linejoin:miter;marker:none;marker-start:none;marker-mid:none;marker-end:none;stroke-miterlimit:4;stroke-dasharray:none;stroke-dashoffset:0;stroke-opacity:1;visibility:visible;display:inline;overflow:visible;enable-background:accumulate"
           id="path6193"
           d="M 41.940271,24.444505 C 41.542065,25.774817 37.406119,26.114917 36.638195,26.217936 C 36.638195,26.217936 20.32932,26.698408 20.32932,26.698408 C 20.32932,26.698408 36.59256,26.857542 36.59256,26.857542 C 37.418473,26.760419 41.811211,26.960931 42.02866,25.151612 L 41.940271,24.444505 z" />
        <path
           style="opacity:0.14117647;fill:#000000;fill-opacity:1;fill-rule:evenodd;stroke:none;stroke-width:1;stroke-linecap:round;stroke-linejoin:miter;marker:none;marker-start:none;marker-mid:none;marker-end:none;stroke-miterlimit:4;stroke-dasharray:none;stroke-dashoffset:0;stroke-opacity:1;visibility:visible;display:inline;overflow:visible;enable-background:accumulate"
           id="path4678"
           d="M 41.940271,26.444505 C 41.542065,27.774817 37.406119,28.114917 36.638195,28.217936 C 36.638195,28.217936 17.57932,28.698408 17.57932,28.698408 C 17.57932,28.698408 36.59256,28.857542 36.59256,28.857542 C 37.418473,28.760419 41.811211,28.960931 42.02866,27.151612 L 41.940271,26.444505 z" />
        <path
           style="opacity:0.14117647;fill:#000000;fill-opacity:1;fill-rule:evenodd;stroke:none;stroke-width:1;stroke-linecap:round;stroke-linejoin:miter;marker:none;marker-start:none;marker-mid:none;marker-end:none;stroke-miterlimit:4;stroke-dasharray:none;stroke-dashoffset:0;stroke-opacity:1;visibility:visible;display:inline;overflow:visible;enable-background:accumulate"
           id="path4680"
           d="M 41.940271,28.444505 C 41.542065,29.774817 37.406119,30.114917 36.638195,30.217936 C 36.638195,30.217936 20.32932,30.698408 20.32932,30.698408 C 20.32932,30.698408 36.59256,30.857542 36.59256,30.857542 C 37.418473,30.760419 41.811211,30.960931 42.02866,29.151612 L 41.940271,28.444505 z" />
        <path
           style="opacity:0.14117647;fill:#000000;fill-opacity:1;fill-rule:evenodd;stroke:none;stroke-width:1;stroke-linecap:round;stroke-linejoin:miter;marker:none;marker-start:none;marker-mid:none;marker-end:none;stroke-miterlimit:4;stroke-dasharray:none;stroke-dashoffset:0;stroke-opacity:1;visibility:visible;display:inline;overflow:visible;enable-background:accumulate"
           id="path4682"
           d="M 41.940271,30.444505 C 41.542065,31.774817 37.406119,32.114917 36.638195,32.217936 C 36.638195,32.217936 25.57932,32.698408 25.57932,32.698408 C 25.57932,32.698408 36.59256,32.857542 36.59256,32.857542 C 37.418473,32.760419 41.811211,32.960931 42.02866,31.151612 L 41.940271,30.444505 z" />
        <path
           style="opacity:0.14117647;fill:#000000;fill-opacity:1;fill-rule:evenodd;stroke:none;stroke-width:1;stroke-linecap:round;stroke-linejoin:miter;marker:none;marker-start:none;marker-mid:none;marker-end:none;stroke-miterlimit:4;stroke-dasharray:none;stroke-dashoffset:0;stroke-opacity:1;visibility:visible;display:inline;overflow:visible;enable-background:accumulate"
           id="path4684"
           d="M 41.940271,32.444505 C 41.542065,33.774817 37.406119,34.114917 36.638195,34.217936 C 36.638195,34.217936 20.32932,34.698408 20.32932,34.698408 C 20.32932,34.698408 36.59256,34.857542 36.59256,34.857542 C 37.418473,34.760419 41.811211,34.960931 42.02866,33.151612 L 41.940271,32.444505 z" />
        <path
           style="opacity:0.14117647;fill:#000000;fill-opacity:1;fill-rule:evenodd;stroke:none;stroke-width:1;stroke-linecap:round;stroke-linejoin:miter;marker:none;marker-start:none;marker-mid:none;marker-end:none;stroke-miterlimit:4;stroke-dasharray:none;stroke-dashoffset:0;stroke-opacity:1;visibility:visible;display:inline;overflow:visible;enable-background:accumulate"
           id="path4686"
           d="M 41.940271,34.444505 C 41.542065,35.774817 37.406119,36.114917 36.638195,36.217936 C 36.638195,36.217936 17.89182,36.698408 17.89182,36.698408 C 17.89182,36.698408 36.59256,36.857542 36.59256,36.857542 C 37.418473,36.760419 41.811211,36.960931 42.02866,35.151612 L 41.940271,34.444505 z" />
        <path
           style="opacity:0.14117647;fill:#000000;fill-opacity:1;fill-rule:evenodd;stroke:none;stroke-width:1;stroke-linecap:round;stroke-linejoin:miter;marker:none;marker-start:none;marker-mid:none;marker-end:none;stroke-miterlimit:4;stroke-dasharray:none;stroke-dashoffset:0;stroke-opacity:1;visibility:visible;display:inline;overflow:visible;enable-background:accumulate"
           id="path4688"
           d="M 41.940271,36.444505 C 41.542065,37.774817 37.406119,38.114917 36.638195,38.217936 C 36.638195,38.217936 22.64182,38.698408 22.64182,38.698408 C 22.64182,38.698408 36.59256,38.857542 36.59256,38.857542 C 37.418473,38.760419 41.811211,38.960931 42.02866,37.151612 L 41.940271,36.444505 z" />
        <path
           style="opacity:0.14117647;fill:#000000;fill-opacity:1;fill-rule:evenodd;stroke:none;stroke-width:1;stroke-linecap:round;stroke-linejoin:miter;marker:none;marker-start:none;marker-mid:none;marker-end:none;stroke-miterlimit:4;stroke-dasharray:none;stroke-dashoffset:0;stroke-opacity:1;visibility:visible;display:inline;overflow:visible;enable-background:accumulate"
           id="path4690"
           d="M 41.940271,38.444505 C 41.542065,39.774817 37.406119,40.114917 36.638195,40.217936 C 36.638195,40.217936 28.20432,40.698408 28.20432,40.698408 C 28.20432,40.698408 36.59256,40.857542 36.59256,40.857542 C 37.418473,40.760419 41.811211,40.960931 42.02866,39.151612 L 41.940271,38.444505 z" />
        <path
           style="opacity:0.14117647;fill:#000000;fill-opacity:1;fill-rule:evenodd;stroke:none;stroke-width:1;stroke-linecap:round;stroke-linejoin:miter;marker:none;marker-start:none;marker-mid:none;marker-end:none;stroke-miterlimit:4;stroke-dasharray:none;stroke-dashoffset:0;stroke-opacity:1;visibility:visible;display:inline;overflow:visible;enable-background:accumulate"
           id="path4692"
           d="M 41.940271,40.444505 C 41.542065,41.774817 37.406119,42.114917 36.638195,42.217936 C 36.638195,42.217936 20.32932,42.698408 20.32932,42.698408 C 20.32932,42.698408 36.59256,42.857542 36.59256,42.857542 C 37.418473,42.760419 41.811211,42.960931 42.02866,41.151612 L 41.940271,40.444505 z" />
      </g>
      <path
         style="opacity:0.37999998;fill:none;fill-opacity:1;fill-rule:evenodd;stroke:url(#linearGradient2481);stroke-width:1.00000012;stroke-linecap:round;stroke-linejoin:round;stroke-miterlimit:4;stroke-dashoffset:0;stroke-opacity:0.60109289"
         id="rect6903"
         d="M 7.2418499,12.5 L 24.758151,12.5 C 25.169135,12.5 25.5,12.877332 25.5,13.346035 L 25.5,28.073485 C 25.5,28.542188 25.20624,28.758575 24.758151,28.919521 C 19.030698,29.69439 13.377455,29.692592 7.2418499,28.919521 C 6.830865,28.758575 6.5000002,28.542188 6.5000002,28.073485 L 6.5000002,13.346035 C 6.5000002,12.877332 6.830865,12.5 7.2418499,12.5 z" />
      <path
         style="fill:url(#linearGradient2478);fill-opacity:1;fill-rule:evenodd;stroke:none;stroke-width:2;stroke-linecap:round;stroke-linejoin:round;marker:none;marker-start:none;marker-mid:none;marker-end:none;stroke-miterlimit:4;stroke-dashoffset:0;stroke-opacity:1;visibility:visible;display:inline;overflow:visible"
         id="rect1460"
         d="M 6.9742868,11.67315 C 12.991429,10.690208 19.00857,10.865283 25.025712,11.67315 C 25.565467,11.67315 26,12.155653 26,12.754994 L 26,14.628728 C 26,15.228068 25.565467,15.710572 25.025712,15.710572 C 18.746469,16.174942 12.969016,16.009213 6.9742868,15.710572 C 6.434532,15.710572 6,15.228068 6,14.628728 L 6,12.754994 C 6,12.155653 6.434532,11.67315 6.9742868,11.67315 z" />
      <path
         style="opacity:0.6;fill:none;fill-opacity:1;fill-rule:evenodd;stroke:url(#linearGradient2475);stroke-width:0.99999988;stroke-linecap:round;stroke-linejoin:round;marker:none;marker-start:none;marker-mid:none;marker-end:none;stroke-miterlimit:4;stroke-dashoffset:0;stroke-opacity:1;visibility:visible;display:inline;overflow:visible"
         id="rect1593"
         d="M 7.1910206,14.5 L 24.808977,14.5 C 25.191803,14.5 25.499999,14.758588 25.499999,15.079795 L 25.499999,15.429769 C 25.499999,15.750975 25.191803,16.009564 24.808977,16.009564 C 18.991131,16.643925 13.10756,16.682745 7.1910206,16.009564 C 6.8081948,16.009564 6.4999997,15.750975 6.4999997,15.429769 L 6.4999997,15.079795 C 6.4999997,14.758588 6.8081948,14.5 7.1910206,14.5 z" />
      <rect
         style="opacity:0.2;fill:#ffffff;fill-opacity:1;fill-rule:evenodd;stroke:none;stroke-width:1;stroke-linecap:round;stroke-linejoin:miter;marker:none;marker-start:none;marker-mid:none;marker-end:none;stroke-miterlimit:4;stroke-dasharray:none;stroke-dashoffset:0;stroke-opacity:1;visibility:visible;display:inline;overflow:visible;filter:url(#filter5957);enable-background:accumulate"
         id="rect5887"
         transform="matrix(1.2443855,0,0,0.8057463,-9.9081765,-3.4175137)"
         y="23.226137"
         x="14.594036"
         ry="1.6077254"
         rx="1.6077254"
         height="16.970562"
         width="2.8284271" />
      <path
         style="opacity:0.3;fill:url(#radialGradient2471);fill-opacity:1;fill-rule:evenodd;stroke:none;stroke-width:1;stroke-linecap:round;stroke-linejoin:miter;marker:none;marker-start:none;marker-mid:none;marker-end:none;stroke-miterlimit:4;stroke-dasharray:none;stroke-dashoffset:0;stroke-opacity:1;visibility:visible;display:inline;overflow:visible;enable-background:accumulate"
         id="path6073"
         d="M 13.198185,13.385616 C 13.198185,14.359243 11.861042,15.148523 10.211593,15.148523 C 8.562143,15.148523 7.225,14.359243 7.225,13.385616 C 7.225,12.411989 8.562143,11.622709 10.211593,11.622709 C 11.861042,11.622709 13.198185,12.411989 13.198185,13.385616 z" />
      <path
         style="opacity:0.3;fill:url(#radialGradient2468);fill-opacity:1;fill-rule:evenodd;stroke:none;stroke-width:1;stroke-linecap:round;stroke-linejoin:miter;marker:none;marker-start:none;marker-mid:none;marker-end:none;stroke-miterlimit:4;stroke-dasharray:none;stroke-dashoffset:0;stroke-opacity:1;visibility:visible;display:inline;overflow:visible;enable-background:accumulate"
         id="path6083"
         d="M 24.898185,13.385616 C 24.898185,14.359243 23.561042,15.148523 21.911593,15.148523 C 20.262144,15.148523 18.925,14.359243 18.925,13.385616 C 18.925,12.411989 20.262144,11.622709 21.911593,11.622709 C 23.561042,11.622709 24.898185,12.411989 24.898185,13.385616 z" />
      <g
         id="g1387"
         transform="matrix(0.5585856,0,0,0.6275526,2.5797896,0.2462323)">
        <path
           style="fill:url(#linearGradient2503);fill-opacity:1;fill-rule:evenodd;stroke:#888a85;stroke-width:1.68900073;stroke-linecap:butt;stroke-linejoin:miter;stroke-miterlimit:4;stroke-dasharray:none;stroke-opacity:1"
           id="path2086"
           d="M 10.6402,20.234846 L 10.6402,14.5 C 10.6402,6.6298666 15.897609,2.8910066 24.020027,2.9892921 C 32.18664,3.0875777 37.5,6.5372782 37.5,14.5 L 37.5,20.484846 C 37.5,22.439075 32.009299,22.687797 32.009299,20.484846 L 32.009299,16.5 C 32.009299,14.5 32.577752,8.028147 24.077241,8.028147 C 15.646828,8.028147 16.261091,14.539885 16.293782,16.492026 L 16.293782,20.268524 C 16.293782,22.623144 10.6402,22.613133 10.6402,20.234846 z" />
        <path
           style="opacity:0.18235294;fill:url(#linearGradient2505);fill-opacity:1;fill-rule:evenodd;stroke:none;stroke-width:1;stroke-linecap:round;stroke-linejoin:round;stroke-miterlimit:4;stroke-dashoffset:0;stroke-opacity:1;filter:url(#filter6251)"
           id="rect1345"
           d="M 34.687087,10.837069 L 35.951035,10.962069 C 36.878274,13.784802 36.687087,20.472482 36.687087,20.472482 C 36.624587,21.597482 34.655837,21.003732 34.687087,20.472482 L 34.687087,10.837069 z" />
        <path
           style="opacity:0.14117647;fill:url(#linearGradient2507);fill-opacity:1;fill-rule:evenodd;stroke:none;stroke-width:1;stroke-linecap:round;stroke-linejoin:round;stroke-miterlimit:4;stroke-dashoffset:0;stroke-opacity:1;filter:url(#filter6251)"
           id="path6332"
           transform="matrix(-1,0,0,1,29.05878,-0.6187184)"
           d="M 12.926606,11.544175 L 13.298325,11.71337 C 15.018656,12.768336 15.471857,21.0912 15.471857,21.0912 C 15.409357,22.2162 13.440607,21.62245 13.471857,21.0912 C 13.471857,21.0912 13.850077,14.22056 12.926606,11.544175 z" />
      </g>
      <path
         style="opacity:0.62352941;fill:none;fill-opacity:1;fill-rule:evenodd;stroke:#ffffff;stroke-width:3.1896317;stroke-linecap:round;stroke-linejoin:miter;marker:none;marker-start:none;marker-mid:none;marker-end:none;stroke-miterlimit:4;stroke-dasharray:none;stroke-dashoffset:0;stroke-opacity:1;visibility:visible;display:inline;overflow:visible;filter:url(#filter5745);enable-background:accumulate"
         id="path5675"
         transform="matrix(0.6265109,0,0,0.6275526,0.98581,1.749171)"
         d="M 13.876557,17.722122 L 14.001556,10.222122 C 14.001556,0.3457492 32.689056,-0.454278 32.689056,11.097122 L 32.689056,17.972122" />
      <g
         id="g6067"
         transform="matrix(0.6265109,0,0,0.6275526,0.6007813,0.2222051)">
        <path
           style="opacity:1;fill:url(#radialGradient2501);fill-opacity:1;fill-rule:evenodd;stroke:none;stroke-width:1;stroke-linecap:round;stroke-linejoin:miter;marker:none;marker-start:none;marker-mid:none;marker-end:none;stroke-miterlimit:4;stroke-dasharray:none;stroke-dashoffset:0;stroke-opacity:1;visibility:visible;display:inline;overflow:visible;enable-background:accumulate"
           id="path6055"
           d="M 21.213204,6.2806997 C 21.213645,8.0383706 19.788894,9.463478 18.031223,9.463478 C 16.273553,9.463478 14.848802,8.0383706 14.849243,6.2806997 C 14.848802,4.5230288 16.273553,3.0979214 18.031223,3.0979214 C 19.788894,3.0979214 21.213645,4.5230288 21.213204,6.2806997 L 21.213204,6.2806997 z" />
        <path
           style="opacity:1;fill:#ffffff;fill-opacity:1;fill-rule:evenodd;stroke:none;stroke-width:1;stroke-linecap:round;stroke-linejoin:miter;marker:none;marker-start:none;marker-mid:none;marker-end:none;stroke-miterlimit:4;stroke-dasharray:none;stroke-dashoffset:0;stroke-opacity:1;visibility:visible;display:inline;overflow:visible;enable-background:accumulate"
           id="path6065"
           transform="matrix(0.4343344,0,0,0.4343344,10.199642,3.5527756)"
           d="M 21.213204,6.2806997 C 21.213645,8.0383706 19.788894,9.463478 18.031223,9.463478 C 16.273553,9.463478 14.848802,8.0383706 14.849243,6.2806997 C 14.848802,4.5230288 16.273553,3.0979214 18.031223,3.0979214 C 19.788894,3.0979214 21.213645,4.5230288 21.213204,6.2806997 L 21.213204,6.2806997 z" />
      </g>
    </g>
  </g>
</svg>
