<?xml version="1.0" encoding="UTF-8" standalone="no"?>
<svg
   xmlns:dc="http://purl.org/dc/elements/1.1/"
   xmlns:cc="http://creativecommons.org/ns#"
   xmlns:rdf="http://www.w3.org/1999/02/22-rdf-syntax-ns#"
   xmlns:svg="http://www.w3.org/2000/svg"
   xmlns="http://www.w3.org/2000/svg"
   xmlns:xlink="http://www.w3.org/1999/xlink"
   version="1.1"
   id="svg3515"
   height="48px"
   width="48px">
  <defs
     id="defs3517">
    <linearGradient
       id="linearGradient6036">
      <stop
         offset="0"
         style="stop-color:#ffffff;stop-opacity:1"
         id="stop6038" />
      <stop
         offset="1"
         style="stop-color:#ffffff;stop-opacity:0"
         id="stop6040" />
    </linearGradient>
    <linearGradient
       id="linearGradient4011">
      <stop
         offset="0"
         style="stop-color:#ffffff;stop-opacity:1;"
         id="stop4013" />
      <stop
         id="stop4015"
         style="stop-color:#ffffff;stop-opacity:0.23529412;"
         offset="0.507761" />
      <stop
         offset="0.83456558"
         style="stop-color:#ffffff;stop-opacity:0.15686275;"
         id="stop4017" />
      <stop
         offset="1"
         style="stop-color:#ffffff;stop-opacity:0.39215687;"
         id="stop4019" />
    </linearGradient>
    <linearGradient
       id="linearGradient3487">
      <stop
         offset="0"
         style="stop-color:#e6cde2;stop-opacity:1"
         id="stop3489" />
      <stop
         offset="1"
         style="stop-color:#e6cde2;stop-opacity:0"
         id="stop3491" />
    </linearGradient>
    <linearGradient
       id="linearGradient3495">
      <stop
         offset="0"
         style="stop-color:#c1cbe4;stop-opacity:1"
         id="stop3497" />
      <stop
         offset="1"
         style="stop-color:#c1cbe4;stop-opacity:0"
         id="stop3499" />
    </linearGradient>
    <linearGradient
       id="linearGradient3503">
      <stop
         offset="0"
         style="stop-color:#c4ebdd;stop-opacity:1"
         id="stop3505" />
      <stop
         offset="1"
         style="stop-color:#c4ebdd;stop-opacity:0"
         id="stop3507" />
    </linearGradient>
    <linearGradient
       id="linearGradient3511">
      <stop
         offset="0"
         style="stop-color:#ebeec7;stop-opacity:1"
         id="stop3513" />
      <stop
         offset="1"
         style="stop-color:#ebeec7;stop-opacity:0"
         id="stop3515" />
    </linearGradient>
    <linearGradient
       id="linearGradient3519">
      <stop
         offset="0"
         style="stop-color:#fcd9cd;stop-opacity:1"
         id="stop3521" />
      <stop
         offset="1"
         style="stop-color:#fcd9cd;stop-opacity:0"
         id="stop3523" />
    </linearGradient>
    <linearGradient
       id="linearGradient3428">
      <stop
         offset="0"
         style="stop-color:#aaaaaa;stop-opacity:1"
         id="stop3430" />
      <stop
         offset="1"
         style="stop-color:#d4d4d4;stop-opacity:1"
         id="stop3432" />
    </linearGradient>
    <linearGradient
       gradientUnits="userSpaceOnUse"
       id="linearGradient3263"
       y2="14.2033"
       x2="35.391201"
       y1="32.4165"
       x1="12.2744">
      <stop
         offset="0"
         style="stop-color:#dedcde;stop-opacity:1;"
         id="stop3265" />
      <stop
         offset="0.5"
         style="stop-color:#f0f0f0;stop-opacity:1;"
         id="stop3267" />
      <stop
         offset="1"
         style="stop-color:#d2d2d2;stop-opacity:1"
         id="stop3269" />
    </linearGradient>
    <linearGradient
       id="linearGradient3772">
      <stop
         offset="0"
         style="stop-color:#b4b4b4;stop-opacity:1;"
         id="stop3774" />
      <stop
         offset="1"
         style="stop-color:#969696;stop-opacity:1;"
         id="stop3776" />
    </linearGradient>
    <linearGradient
       id="linearGradient23419">
      <stop
         offset="0"
         style="stop-color:#000000;stop-opacity:1"
         id="stop23421" />
      <stop
         offset="1"
         style="stop-color:#000000;stop-opacity:0"
         id="stop23423" />
    </linearGradient>
    <radialGradient
       xlink:href="#linearGradient23419"
       id="radialGradient3513"
       gradientUnits="userSpaceOnUse"
       gradientTransform="matrix(0.9722718,0,0,0.2872354,1.3124992,29.540524)"
       cx="23.334524"
       cy="41.63604"
       fx="23.334524"
       fy="41.63604"
       r="22.627417" />
    <linearGradient
       y2="14.2033"
       x2="35.391201"
       y1="32.4165"
       x1="12.2744"
       gradientTransform="matrix(0,1.1714389,-1.1714389,0,51.060244,-4.11454)"
       gradientUnits="userSpaceOnUse"
       id="linearGradient3126"
       xlink:href="#linearGradient3263" />
    <linearGradient
       y2="45.032898"
       x2="-21.915663"
       y1="3"
       x1="-21.915663"
       gradientTransform="translate(50.26506,0)"
       gradientUnits="userSpaceOnUse"
       id="linearGradient3128"
       xlink:href="#linearGradient3772" />
    <linearGradient
       y2="32.509201"
       x2="21.448364"
       y1="15.5"
       x1="21.448364"
       gradientTransform="matrix(0.9375,0,0,0.9375,1.5,1.5)"
       gradientUnits="userSpaceOnUse"
       id="linearGradient3130"
       xlink:href="#linearGradient3428" />
    <linearGradient
       y2="9.8622112"
       x2="24.27351"
       y1="10.774516"
       x1="20.580074"
       spreadMethod="reflect"
       gradientUnits="userSpaceOnUse"
       id="linearGradient3132"
       xlink:href="#linearGradient3487" />
    <linearGradient
       y2="9.7956104"
       x2="21.047453"
       y1="11.200086"
       x1="17.494959"
       spreadMethod="reflect"
       gradientUnits="userSpaceOnUse"
       id="linearGradient3134"
       xlink:href="#linearGradient3495" />
    <linearGradient
       y2="10.732353"
       x2="16.994024"
       y1="13.045606"
       x1="14.084608"
       spreadMethod="reflect"
       gradientUnits="userSpaceOnUse"
       id="linearGradient3136"
       xlink:href="#linearGradient3503" />
    <linearGradient
       y2="13.461712"
       x2="14.609327"
       y1="16.188046"
       x1="12.371647"
       spreadMethod="reflect"
       gradientUnits="userSpaceOnUse"
       id="linearGradient3138"
       xlink:href="#linearGradient3511" />
    <linearGradient
       y2="20.612656"
       x2="9.7297754"
       y1="17.886322"
       x1="10.609375"
       spreadMethod="reflect"
       gradientUnits="userSpaceOnUse"
       id="linearGradient3140"
       xlink:href="#linearGradient3519" />
    <linearGradient
       y2="9.8622112"
       x2="24.27351"
       y1="10.774516"
       x1="20.580074"
       spreadMethod="reflect"
       gradientUnits="userSpaceOnUse"
       id="linearGradient3142"
       xlink:href="#linearGradient3487" />
    <linearGradient
       y2="9.7956104"
       x2="21.047453"
       y1="11.200086"
       x1="17.494959"
       spreadMethod="reflect"
       gradientUnits="userSpaceOnUse"
       id="linearGradient3144"
       xlink:href="#linearGradient3495" />
    <linearGradient
       y2="10.732353"
       x2="16.994024"
       y1="13.045606"
       x1="14.084608"
       spreadMethod="reflect"
       gradientUnits="userSpaceOnUse"
       id="linearGradient3146"
       xlink:href="#linearGradient3503" />
    <linearGradient
       y2="13.461712"
       x2="14.609327"
       y1="16.188046"
       x1="12.371647"
       spreadMethod="reflect"
       gradientUnits="userSpaceOnUse"
       id="linearGradient3148"
       xlink:href="#linearGradient3511" />
    <linearGradient
       y2="20.612656"
       x2="9.7297754"
       y1="17.886322"
       x1="10.609375"
       spreadMethod="reflect"
       gradientUnits="userSpaceOnUse"
       id="linearGradient3150"
       xlink:href="#linearGradient3519" />
    <linearGradient
       y2="44.340794"
       x2="71.204407"
       y1="6.2375584"
       x1="71.204407"
       gradientTransform="matrix(1.054054,0,0,1.054054,-51.611003,-2.7278988)"
       gradientUnits="userSpaceOnUse"
       id="linearGradient3152"
       xlink:href="#linearGradient4011" />
    <linearGradient
       y2="45.962208"
       x2="18.203465"
       y1="4.0378027"
       x1="18.775953"
       gradientTransform="matrix(0.4293444,0,0,-0.4293442,13.546752,34.733607)"
       gradientUnits="userSpaceOnUse"
       id="linearGradient3154"
       xlink:href="#linearGradient6036" />
    <linearGradient
       y2="14.2033"
       x2="35.391201"
       y1="32.4165"
       x1="12.2744"
       gradientTransform="matrix(0,1.1714389,-1.1714389,0,51.060244,-4.11454)"
       gradientUnits="userSpaceOnUse"
       id="linearGradient3156"
       xlink:href="#linearGradient3263" />
    <linearGradient
       y2="45.032898"
       x2="-21.915663"
       y1="3"
       x1="-21.915663"
       gradientTransform="translate(50.26506,0)"
       gradientUnits="userSpaceOnUse"
       id="linearGradient3158"
       xlink:href="#linearGradient3772" />
    <linearGradient
       y2="32.509201"
       x2="21.448364"
       y1="15.5"
       x1="21.448364"
       gradientTransform="matrix(0.9375,0,0,0.9375,1.5,1.5)"
       gradientUnits="userSpaceOnUse"
       id="linearGradient3160"
       xlink:href="#linearGradient3428" />
    <linearGradient
       y2="9.8622112"
       x2="24.27351"
       y1="10.774516"
       x1="20.580074"
       spreadMethod="reflect"
       gradientUnits="userSpaceOnUse"
       id="linearGradient3162"
       xlink:href="#linearGradient3487" />
    <linearGradient
       y2="9.7956104"
       x2="21.047453"
       y1="11.200086"
       x1="17.494959"
       spreadMethod="reflect"
       gradientUnits="userSpaceOnUse"
       id="linearGradient3164"
       xlink:href="#linearGradient3495" />
    <linearGradient
       y2="10.732353"
       x2="16.994024"
       y1="13.045606"
       x1="14.084608"
       spreadMethod="reflect"
       gradientUnits="userSpaceOnUse"
       id="linearGradient3166"
       xlink:href="#linearGradient3503" />
    <linearGradient
       y2="13.461712"
       x2="14.609327"
       y1="16.188046"
       x1="12.371647"
       spreadMethod="reflect"
       gradientUnits="userSpaceOnUse"
       id="linearGradient3168"
       xlink:href="#linearGradient3511" />
    <linearGradient
       y2="20.612656"
       x2="9.7297754"
       y1="17.886322"
       x1="10.609375"
       spreadMethod="reflect"
       gradientUnits="userSpaceOnUse"
       id="linearGradient3170"
       xlink:href="#linearGradient3519" />
    <linearGradient
       y2="9.8622112"
       x2="24.27351"
       y1="10.774516"
       x1="20.580074"
       spreadMethod="reflect"
       gradientUnits="userSpaceOnUse"
       id="linearGradient3172"
       xlink:href="#linearGradient3487" />
    <linearGradient
       y2="9.7956104"
       x2="21.047453"
       y1="11.200086"
       x1="17.494959"
       spreadMethod="reflect"
       gradientUnits="userSpaceOnUse"
       id="linearGradient3174"
       xlink:href="#linearGradient3495" />
    <linearGradient
       y2="10.732353"
       x2="16.994024"
       y1="13.045606"
       x1="14.084608"
       spreadMethod="reflect"
       gradientUnits="userSpaceOnUse"
       id="linearGradient3176"
       xlink:href="#linearGradient3503" />
    <linearGradient
       y2="13.461712"
       x2="14.609327"
       y1="16.188046"
       x1="12.371647"
       spreadMethod="reflect"
       gradientUnits="userSpaceOnUse"
       id="linearGradient3178"
       xlink:href="#linearGradient3511" />
    <linearGradient
       y2="20.612656"
       x2="9.7297754"
       y1="17.886322"
       x1="10.609375"
       spreadMethod="reflect"
       gradientUnits="userSpaceOnUse"
       id="linearGradient3180"
       xlink:href="#linearGradient3519" />
    <linearGradient
       y2="44.340794"
       x2="71.204407"
       y1="6.2375584"
       x1="71.204407"
       gradientTransform="matrix(1.054054,0,0,1.054054,-51.611003,-2.7278988)"
       gradientUnits="userSpaceOnUse"
       id="linearGradient3182"
       xlink:href="#linearGradient4011" />
    <linearGradient
       y2="45.962208"
       x2="18.203465"
       y1="4.0378027"
       x1="18.775953"
       gradientTransform="matrix(0.4293444,0,0,-0.4293442,13.546752,34.733607)"
       gradientUnits="userSpaceOnUse"
       id="linearGradient3184"
       xlink:href="#linearGradient6036" />
  </defs>
  <metadata
     id="metadata3520">
    <rdf:RDF>
      <cc:Work
         rdf:about="">
        <dc:format>image/svg+xml</dc:format>
        <dc:type
           rdf:resource="http://purl.org/dc/dcmitype/StillImage" />
        <dc:title />
      </cc:Work>
    </rdf:RDF>
  </metadata>
  <g
     id="layer1">
    <g
       transform="translate(-2,-2)"
       id="g3090">
      <path
         d="M 44.5,24 C 44.5,12.637039 35.362959,3.5 24,3.5 12.637038,3.5 3.5000001,12.63704 3.5000001,24 3.4999981,35.36296 12.637039,44.5 24,44.5 35.362958,44.499998 44.5,35.362961 44.5,24 z m -13,0 c 0,4.12813 -3.28927,7.5 -7.5,7.5 -4.29333,0 -7.5,-3.455313 -7.5,-7.5 0,-4.127303 3.041467,-7.5 7.5,-7.5 4.458533,0 7.5,3.45447 7.5,7.5 z"
         id="path3092"
         style="fill:url(#linearGradient3126);fill-rule:nonzero;stroke:url(#linearGradient3128);stroke-width:1;stroke-miterlimit:4;stroke-opacity:1" />
      <path
         d="m 24,16 c -4.416,0 -8,3.584 -8,8 0,4.416 3.584,8 8,8 4.416,0 8,-3.584 8,-8 0,-4.416 -3.584,-8 -8,-8 z m 0,4 c 2.208,0 4,1.792 4,4 0,2.208 -1.792,4 -4,4 -2.208,0 -4,-1.792 -4,-4 0,-2.208 1.792,-4 4,-4 z"
         id="path3094"
         style="opacity:0.5;fill:#ffffff;fill-opacity:1;fill-rule:nonzero;stroke:none;stroke-width:1;marker:none;visibility:visible;display:inline;overflow:visible;enable-background:accumulate" />
      <path
         d="m 24,16.5 c -4.14,0 -7.5,3.36 -7.5,7.5 0,4.14 3.36,7.5 7.5,7.5 4.14,0 7.5,-3.36 7.5,-7.5 0,-4.14 -3.36,-7.5 -7.5,-7.5 z m 0,3.75 c 2.07,0 3.75,1.68 3.75,3.75 0,2.07 -1.68,3.75 -3.75,3.75 -2.07,0 -3.75,-1.68 -3.75,-3.75 0,-2.07 1.68,-3.75 3.75,-3.75 z"
         id="path3096"
         style="fill:none;stroke:url(#linearGradient3130);stroke-width:1;stroke-linecap:butt;stroke-linejoin:round;stroke-miterlimit:4;stroke-opacity:1;stroke-dasharray:none;stroke-dashoffset:0;marker:none;visibility:visible;display:inline;overflow:visible;enable-background:accumulate" />
      <g
         id="g3098">
        <path
           d="M 15.856928,5.7307748 20.625,16.34375 C 21.660403,15.885186 22.795334,15.625 24,15.625 c 0.03206,0 0.06178,-3.6e-4 0.09375,0 L 24.10801,4.0047512 c -2.94215,-0.070687 -5.543041,0.6572865 -8.251083,1.7260236 l 10e-7,0 z"
           transform="matrix(0.9996011,0.02824295,-0.02824295,0.9996011,0.6924114,-0.6708346)"
           id="path3100"
           style="opacity:0.8;fill:url(#linearGradient3132);fill-opacity:1;fill-rule:nonzero;stroke:none" />
        <path
           d="m 12.121471,7.9060109 6.931026,9.3601041 c 0.913109,-0.669755 1.965938,-1.167064 3.142629,-1.425169 0.03132,-0.0069 0.06026,-0.01359 0.09157,-0.02009 L 19.857174,4.426276 c -2.888973,0.5613244 -5.31953,1.8556038 -7.735703,3.4797349 l 0,0 z"
           id="path3102"
           style="opacity:0.8;fill:url(#linearGradient3134);fill-opacity:1;fill-rule:nonzero;stroke:none" />
        <path
           d="m 8.2523933,11.646535 9.2137237,7.155818 c 0.70865,-0.883264 1.596891,-1.636119 2.666685,-2.18998 0.02847,-0.01474 0.05469,-0.02872 0.08325,-0.0431 L 14.86585,6.2506132 C 12.220599,7.5405321 10.165881,9.452393 8.2523933,11.646535 z"
           id="path3104"
           style="opacity:0.8;fill:url(#linearGradient3136);fill-opacity:1;fill-rule:nonzero;stroke:none" />
        <path
           d="m 5.6328855,16.073974 c 7.1748065,2.242248 7.8502625,7.031463 12.7767855,1.754127 L 10.499985,9.1321388 C 8.2787249,11.062747 6.9132871,13.459349 5.6328855,16.073974 z"
           id="path3106"
           style="opacity:0.8;fill:url(#linearGradient3138);fill-opacity:1;fill-rule:nonzero;stroke:none" />
        <path
           d="M 7.155289,13.193173 C 5.9722117,14.945185 5.2475768,16.829547 4.6301929,18.837116 L 15.96875,21.8125 C 16.184264,21.049497 16.486796,20.297733 16.9375,19.59375 16.95479,19.56675 16.98246,19.52673 17,19.5 L 7.155289,13.193173 z"
           id="path3108"
           style="opacity:0.8;fill:url(#linearGradient3140);fill-opacity:1;fill-rule:nonzero;stroke:none" />
      </g>
      <g
         transform="matrix(-1,0,0,-1,47.999999,47.990833)"
         id="g3110">
        <path
           d="M 15.856928,5.7307748 20.625,16.34375 C 21.660403,15.885186 22.795334,15.625 24,15.625 c 0.03206,0 0.06178,-3.6e-4 0.09375,0 L 24.10801,4.0047512 c -2.94215,-0.070687 -5.543041,0.6572865 -8.251083,1.7260236 l 10e-7,0 z"
           transform="matrix(0.9996011,0.02824295,-0.02824295,0.9996011,0.6924114,-0.6708346)"
           id="path3112"
           style="opacity:0.8;fill:url(#linearGradient3142);fill-opacity:1;fill-rule:nonzero;stroke:none" />
        <path
           d="m 12.121471,7.9060109 6.931026,9.3601041 c 0.913109,-0.669755 1.965938,-1.167064 3.142629,-1.425169 0.03132,-0.0069 0.06026,-0.01359 0.09157,-0.02009 L 19.857174,4.426276 c -2.888973,0.5613244 -5.31953,1.8556038 -7.735703,3.4797349 l 0,0 z"
           id="path3114"
           style="opacity:0.8;fill:url(#linearGradient3144);fill-opacity:1;fill-rule:nonzero;stroke:none" />
        <path
           d="m 8.2523933,11.646535 9.2137237,7.155818 c 0.70865,-0.883264 1.596891,-1.636119 2.666685,-2.18998 0.02847,-0.01474 0.05469,-0.02872 0.08325,-0.0431 L 14.86585,6.2506132 C 12.220599,7.5405321 10.165881,9.452393 8.2523933,11.646535 z"
           id="path3116"
           style="opacity:0.8;fill:url(#linearGradient3146);fill-opacity:1;fill-rule:nonzero;stroke:none" />
        <path
           d="m 5.6328855,16.073974 c 7.1748065,2.242248 7.8502625,7.031463 12.7767855,1.754127 L 10.499985,9.1321388 C 8.2787249,11.062747 6.9132871,13.459349 5.6328855,16.073974 z"
           id="path3118"
           style="opacity:0.8;fill:url(#linearGradient3148);fill-opacity:1;fill-rule:nonzero;stroke:none" />
        <path
           d="M 7.155289,13.193173 C 5.9722117,14.945185 5.2475768,16.829547 4.6301929,18.837116 L 15.96875,21.8125 C 16.184264,21.049497 16.486796,20.297733 16.9375,19.59375 16.95479,19.56675 16.98246,19.52673 17,19.5 L 7.155289,13.193173 z"
           id="path3120"
           style="opacity:0.8;fill:url(#linearGradient3150);fill-opacity:1;fill-rule:nonzero;stroke:none" />
      </g>
      <path
         d="M 43.5,23.99931 C 43.5,34.76921 34.76891,43.5 24.000247,43.5 13.230598,43.5 4.5,34.769111 4.5,23.99931 4.5,13.229908 13.230598,4.5000024 24.000247,4.5000024 34.76891,4.5000024 43.5,13.229908 43.5,23.99931 l 0,0 z"
         id="path3122"
         style="opacity:0.55;color:#000000;fill:none;stroke:url(#linearGradient3152);stroke-width:1;stroke-linecap:round;stroke-linejoin:round;stroke-miterlimit:4;stroke-opacity:1;stroke-dasharray:none;stroke-dashoffset:0;marker:none;visibility:visible;display:inline;overflow:visible;enable-background:accumulate" />
      <path
         d="m 24,32.5 c -4.711429,0 -8.5,-3.788571 -8.5,-8.5 0,-4.711429 3.788571,-8.500001 8.5,-8.500001 4.711431,0 8.5,3.788572 8.5,8.500001 0,4.711429 -3.788569,8.5 -8.5,8.5 l 0,0 0,0 0,0 z"
         id="path3124"
         style="opacity:0.4;fill:none;stroke:url(#linearGradient3154);stroke-width:0.99999982;stroke-miterlimit:4;stroke-opacity:1" />
    </g>
    <path
       d="m 46,41.499867 c 0.0011,3.589753 -9.848934,6.500001 -22,6.500001 -12.151066,0 -22.001133,-2.910248 -21.9999999,-6.500001 C 1.998867,37.910116 11.848934,34.999868 24,34.999868 c 12.151066,0 22.001133,2.910248 22,6.499999 l 0,0 z"
       id="path23417"
       style="opacity:0.3;fill:url(#radialGradient3513);fill-opacity:1;fill-rule:evenodd;stroke:none;stroke-width:2;marker:none;visibility:visible;display:inline;overflow:visible" />
    <g
       transform="translate(2,2)"
       id="g3071">
      <path
         style="fill:url(#linearGradient3156);fill-rule:nonzero;stroke:url(#linearGradient3158);stroke-width:1;stroke-miterlimit:4;stroke-opacity:1"
         id="path2781"
         d="M 44.5,24 C 44.5,12.637039 35.362959,3.5 24,3.5 12.637038,3.5 3.5000001,12.63704 3.5000001,24 3.4999981,35.36296 12.637039,44.5 24,44.5 35.362958,44.499998 44.5,35.362961 44.5,24 z m -13,0 c 0,4.12813 -3.28927,7.5 -7.5,7.5 -4.29333,0 -7.5,-3.455313 -7.5,-7.5 0,-4.127303 3.041467,-7.5 7.5,-7.5 4.458533,0 7.5,3.45447 7.5,7.5 z" />
      <path
         style="opacity:0.5;fill:#ffffff;fill-opacity:1;fill-rule:nonzero;stroke:none;stroke-width:1;marker:none;visibility:visible;display:inline;overflow:visible;enable-background:accumulate"
         id="path2474"
         d="m 24,16 c -4.416,0 -8,3.584 -8,8 0,4.416 3.584,8 8,8 4.416,0 8,-3.584 8,-8 0,-4.416 -3.584,-8 -8,-8 z m 0,4 c 2.208,0 4,1.792 4,4 0,2.208 -1.792,4 -4,4 -2.208,0 -4,-1.792 -4,-4 0,-2.208 1.792,-4 4,-4 z" />
      <path
         style="fill:none;stroke:url(#linearGradient3160);stroke-width:1;stroke-linecap:butt;stroke-linejoin:round;stroke-miterlimit:4;stroke-opacity:1;stroke-dasharray:none;stroke-dashoffset:0;marker:none;visibility:visible;display:inline;overflow:visible;enable-background:accumulate"
         id="path3418"
         d="m 24,16.5 c -4.14,0 -7.5,3.36 -7.5,7.5 0,4.14 3.36,7.5 7.5,7.5 4.14,0 7.5,-3.36 7.5,-7.5 0,-4.14 -3.36,-7.5 -7.5,-7.5 z m 0,3.75 c 2.07,0 3.75,1.68 3.75,3.75 0,2.07 -1.68,3.75 -3.75,3.75 -2.07,0 -3.75,-1.68 -3.75,-3.75 0,-2.07 1.68,-3.75 3.75,-3.75 z" />
      <g
         id="g3527">
        <path
           style="opacity:0.8;fill:url(#linearGradient3162);fill-opacity:1;fill-rule:nonzero;stroke:none"
           id="path3296"
           transform="matrix(0.9996011,0.02824295,-0.02824295,0.9996011,0.6924114,-0.6708346)"
           d="M 15.856928,5.7307748 20.625,16.34375 C 21.660403,15.885186 22.795334,15.625 24,15.625 c 0.03206,0 0.06178,-3.6e-4 0.09375,0 L 24.10801,4.0047512 c -2.94215,-0.070687 -5.543041,0.6572865 -8.251083,1.7260236 l 10e-7,0 z" />
        <path
           style="opacity:0.8;fill:url(#linearGradient3164);fill-opacity:1;fill-rule:nonzero;stroke:none"
           id="path3308"
           d="m 12.121471,7.9060109 6.931026,9.3601041 c 0.913109,-0.669755 1.965938,-1.167064 3.142629,-1.425169 0.03132,-0.0069 0.06026,-0.01359 0.09157,-0.02009 L 19.857174,4.426276 c -2.888973,0.5613244 -5.31953,1.8556038 -7.735703,3.4797349 l 0,0 z" />
        <path
           style="opacity:0.8;fill:url(#linearGradient3166);fill-opacity:1;fill-rule:nonzero;stroke:none"
           id="path3310"
           d="m 8.2523933,11.646535 9.2137237,7.155818 c 0.70865,-0.883264 1.596891,-1.636119 2.666685,-2.18998 0.02847,-0.01474 0.05469,-0.02872 0.08325,-0.0431 L 14.86585,6.2506132 C 12.220599,7.5405321 10.165881,9.452393 8.2523933,11.646535 z" />
        <path
           style="opacity:0.8;fill:url(#linearGradient3168);fill-opacity:1;fill-rule:nonzero;stroke:none"
           id="path3312"
           d="m 5.6328855,16.073974 c 7.1748065,2.242248 7.8502625,7.031463 12.7767855,1.754127 L 10.499985,9.1321388 C 8.2787249,11.062747 6.9132871,13.459349 5.6328855,16.073974 z" />
        <path
           style="opacity:0.8;fill:url(#linearGradient3170);fill-opacity:1;fill-rule:nonzero;stroke:none"
           id="path3314"
           d="M 7.155289,13.193173 C 5.9722117,14.945185 5.2475768,16.829547 4.6301929,18.837116 L 15.96875,21.8125 C 16.184264,21.049497 16.486796,20.297733 16.9375,19.59375 16.95479,19.56675 16.98246,19.52673 17,19.5 L 7.155289,13.193173 z" />
      </g>
      <g
         id="g3297"
         transform="matrix(-1,0,0,-1,47.999999,47.990833)">
        <path
           style="opacity:0.8;fill:url(#linearGradient3172);fill-opacity:1;fill-rule:nonzero;stroke:none"
           id="path3299"
           transform="matrix(0.9996011,0.02824295,-0.02824295,0.9996011,0.6924114,-0.6708346)"
           d="M 15.856928,5.7307748 20.625,16.34375 C 21.660403,15.885186 22.795334,15.625 24,15.625 c 0.03206,0 0.06178,-3.6e-4 0.09375,0 L 24.10801,4.0047512 c -2.94215,-0.070687 -5.543041,0.6572865 -8.251083,1.7260236 l 10e-7,0 z" />
        <path
           style="opacity:0.8;fill:url(#linearGradient3174);fill-opacity:1;fill-rule:nonzero;stroke:none"
           id="path3301"
           d="m 12.121471,7.9060109 6.931026,9.3601041 c 0.913109,-0.669755 1.965938,-1.167064 3.142629,-1.425169 0.03132,-0.0069 0.06026,-0.01359 0.09157,-0.02009 L 19.857174,4.426276 c -2.888973,0.5613244 -5.31953,1.8556038 -7.735703,3.4797349 l 0,0 z" />
        <path
           style="opacity:0.8;fill:url(#linearGradient3176);fill-opacity:1;fill-rule:nonzero;stroke:none"
           id="path3303"
           d="m 8.2523933,11.646535 9.2137237,7.155818 c 0.70865,-0.883264 1.596891,-1.636119 2.666685,-2.18998 0.02847,-0.01474 0.05469,-0.02872 0.08325,-0.0431 L 14.86585,6.2506132 C 12.220599,7.5405321 10.165881,9.452393 8.2523933,11.646535 z" />
        <path
           style="opacity:0.8;fill:url(#linearGradient3178);fill-opacity:1;fill-rule:nonzero;stroke:none"
           id="path3305"
           d="m 5.6328855,16.073974 c 7.1748065,2.242248 7.8502625,7.031463 12.7767855,1.754127 L 10.499985,9.1321388 C 8.2787249,11.062747 6.9132871,13.459349 5.6328855,16.073974 z" />
        <path
           style="opacity:0.8;fill:url(#linearGradient3180);fill-opacity:1;fill-rule:nonzero;stroke:none"
           id="path3307"
           d="M 7.155289,13.193173 C 5.9722117,14.945185 5.2475768,16.829547 4.6301929,18.837116 L 15.96875,21.8125 C 16.184264,21.049497 16.486796,20.297733 16.9375,19.59375 16.95479,19.56675 16.98246,19.52673 17,19.5 L 7.155289,13.193173 z" />
      </g>
      <path
         style="opacity:0.55;color:#000000;fill:none;stroke:url(#linearGradient3182);stroke-width:1;stroke-linecap:round;stroke-linejoin:round;stroke-miterlimit:4;stroke-opacity:1;stroke-dasharray:none;stroke-dashoffset:0;marker:none;visibility:visible;display:inline;overflow:visible;enable-background:accumulate"
         id="path8655"
         d="M 43.5,23.99931 C 43.5,34.76921 34.76891,43.5 24.000247,43.5 13.230598,43.5 4.5,34.769111 4.5,23.99931 4.5,13.229908 13.230598,4.5000024 24.000247,4.5000024 34.76891,4.5000024 43.5,13.229908 43.5,23.99931 l 0,0 z" />
      <path
         style="opacity:0.4;fill:none;stroke:url(#linearGradient3184);stroke-width:0.99999982;stroke-miterlimit:4;stroke-opacity:1"
         id="path3281"
         d="m 24,32.5 c -4.711429,0 -8.5,-3.788571 -8.5,-8.5 0,-4.711429 3.788571,-8.500001 8.5,-8.500001 4.711431,0 8.5,3.788572 8.5,8.500001 0,4.711429 -3.788569,8.5 -8.5,8.5 l 0,0 0,0 0,0 z" />
    </g>
  </g>
</svg>
