<?xml version="1.0" encoding="UTF-8" standalone="no"?>
<svg
   id="svg6"
   version="1.1"
   width="16"
   height="16"
   sodipodi:docname="applications-multimedia-symbolic.svg"
   inkscape:version="1.1.2 (0a00cf5339, 2022-02-04)"
   xmlns:inkscape="http://www.inkscape.org/namespaces/inkscape"
   xmlns:sodipodi="http://sodipodi.sourceforge.net/DTD/sodipodi-0.dtd"
   xmlns="http://www.w3.org/2000/svg"
   xmlns:svg="http://www.w3.org/2000/svg"
   xmlns:rdf="http://www.w3.org/1999/02/22-rdf-syntax-ns#"
   xmlns:cc="http://creativecommons.org/ns#"
   xmlns:dc="http://purl.org/dc/elements/1.1/">
  <sodipodi:namedview
     id="namedview6"
     pagecolor="#ffffff"
     bordercolor="#666666"
     borderopacity="1.0"
     inkscape:pageshadow="2"
     inkscape:pageopacity="0.0"
     inkscape:pagecheckerboard="0"
     showgrid="false"
     inkscape:zoom="45.254834"
     inkscape:cx="5.9993591"
     inkscape:cy="10.69499"
     inkscape:window-width="1317"
     inkscape:window-height="893"
     inkscape:window-x="544"
     inkscape:window-y="76"
     inkscape:window-maximized="0"
     inkscape:current-layer="svg6" />
  <metadata
     id="metadata12">
    <rdf:RDF>
      <cc:Work
         rdf:about="">
        <dc:format>image/svg+xml</dc:format>
        <dc:type
           rdf:resource="http://purl.org/dc/dcmitype/StillImage" />
      </cc:Work>
    </rdf:RDF>
  </metadata>
  <defs
     id="defs10" />
  <path
     id="path2"
     style="color:#000000;font-variation-settings:normal;opacity:1;vector-effect:none;fill:#666666;fill-opacity:1;stroke-width:1;stroke-linecap:butt;stroke-linejoin:miter;stroke-miterlimit:4;stroke-dasharray:none;stroke-dashoffset:0;stroke-opacity:1;marker:none"
     d="M 2.5 1 C 1.669 1 1 1.669 1 2.5 L 1 13.5 C 1 14.331 1.669 15 2.5 15 L 13.5 15 C 14.331 15 15 14.331 15 13.5 L 15 2.5 C 15 1.669 14.331 1 13.5 1 L 2.5 1 z M 10.636719 4 C 10.666452 3.9984423 10.695396 4.0007334 10.722656 4.0058594 C 10.886229 4.0366285 11 4.182875 11 4.390625 L 11 10.716797 C 11.003761 10.765897 11.003882 10.815111 11 10.865234 L 11 10.882812 L 10.998047 10.880859 C 10.934469 11.560291 10.170342 12.057445 9.28125 11.994141 C 8.3853676 11.930353 7.7006678 11.322168 7.7539062 10.634766 C 7.8038175 9.9903253 8.4837311 9.5054978 9.3066406 9.5 C 9.3615013 9.4996335 9.4166637 9.5018726 9.4726562 9.5058594 C 9.6592983 9.5191486 9.8364528 9.5569417 10 9.6132812 L 10 6.0117188 L 7 6.8339844 L 7 11.337891 C 7.0037194 11.391266 7.0037424 11.445531 7 11.5 C 6.9999549 11.500656 7.0000462 11.501297 7 11.501953 C 6.9467773 12.258095 6.1749148 12.814308 5.2792969 12.744141 C 4.3836791 12.673974 3.7006838 12.00419 3.7539062 11.248047 C 3.8038028 10.539163 4.483974 10.006047 5.3066406 10 C 5.3614851 9.9995969 5.4166801 10.001474 5.4726562 10.005859 C 5.6595476 10.020502 5.8362488 10.062802 6 10.125 L 6 5.7636719 C 6 5.4866719 6.2027663 5.2079829 6.4550781 5.1386719 L 10.544922 4.015625 C 10.576462 4.00696 10.606985 4.0015577 10.636719 4 z " />
</svg>
