<?xml version="1.0" encoding="UTF-8" standalone="no"?>
<svg
   xmlns:dc="http://purl.org/dc/elements/1.1/"
   xmlns:cc="http://creativecommons.org/ns#"
   xmlns:rdf="http://www.w3.org/1999/02/22-rdf-syntax-ns#"
   xmlns:svg="http://www.w3.org/2000/svg"
   xmlns="http://www.w3.org/2000/svg"
   version="1.1"
   id="svg2"
   width="16"
   height="16">
  <metadata
     id="metadata12">
    <rdf:RDF>
      <cc:Work
         rdf:about="">
        <dc:format>image/svg+xml</dc:format>
        <dc:type
           rdf:resource="http://purl.org/dc/dcmitype/StillImage" />
      </cc:Work>
    </rdf:RDF>
  </metadata>
  <defs
     id="defs10" />
  <g
     id="g4"
     transform="translate(-972 -460)">
    <path
       id="path6"
       style="marker:none"
       overflow="visible"
       fill="#666"
       d="M974 461c-1.108 0-2 .892-2 2v10c0 1.108.892 2 2 2h12c1.108 0 2-.892 2-2v-10c0-1.108-.892-2-2-2zm4.5 1l2 3H979v3h5v-1.5l3 2-3 2V469h-5v2h1.5l-2 3-2-3h1.5v-2h-2v1.5l-3-2 3-2v1.5h2v-3h-1.5z"
       color="#000" />
  </g>
</svg>
