<?xml version="1.0" encoding="UTF-8" standalone="no"?>
<!-- Created with Inkscape (http://www.inkscape.org/) -->

<svg
   xmlns:dc="http://purl.org/dc/elements/1.1/"
   xmlns:cc="http://creativecommons.org/ns#"
   xmlns:rdf="http://www.w3.org/1999/02/22-rdf-syntax-ns#"
   xmlns:svg="http://www.w3.org/2000/svg"
   xmlns="http://www.w3.org/2000/svg"
   xmlns:xlink="http://www.w3.org/1999/xlink"
   xmlns:sodipodi="http://sodipodi.sourceforge.net/DTD/sodipodi-0.dtd"
   xmlns:inkscape="http://www.inkscape.org/namespaces/inkscape"
   version="1.0"
   width="22"
   height="22"
   id="svg2426"
   sodipodi:version="0.32"
   inkscape:version="0.48.3.1 r9886"
   sodipodi:docname="bluetooth-paired.svg"
   inkscape:output_extension="org.inkscape.output.svg.inkscape">
  <metadata
     id="metadata23">
    <rdf:RDF>
      <cc:Work
         rdf:about="">
        <dc:format>image/svg+xml</dc:format>
        <dc:type
           rdf:resource="http://purl.org/dc/dcmitype/StillImage" />
      </cc:Work>
    </rdf:RDF>
  </metadata>
  <sodipodi:namedview
     inkscape:window-height="1026"
     inkscape:window-width="1680"
     inkscape:pageshadow="2"
     inkscape:pageopacity="0.0"
     guidetolerance="10.0"
     gridtolerance="10.0"
     objecttolerance="10.0"
     borderopacity="1.0"
     bordercolor="#666666"
     pagecolor="#ffffff"
     id="base"
     showgrid="false"
     inkscape:zoom="4"
     inkscape:cx="-23.5"
     inkscape:cy="9"
     inkscape:window-x="0"
     inkscape:window-y="0"
     inkscape:current-layer="svg2426"
     inkscape:window-maximized="1" />
  <defs
     id="defs2428">
    <linearGradient
       x1="12.095703"
       y1="4.0491958"
       x2="12.095703"
       y2="19.954636"
       id="linearGradient2418"
       xlink:href="#linearGradient3587-6-5"
       gradientUnits="userSpaceOnUse" />
    <linearGradient
       id="linearGradient3587-6-5">
      <stop
         id="stop3589-9-2"
         style="stop-color:#000000;stop-opacity:1"
         offset="0" />
      <stop
         id="stop3591-7-4"
         style="stop-color:#363636;stop-opacity:1"
         offset="1" />
    </linearGradient>
    <linearGradient
       x1="14.313253"
       y1="4.0000005"
       x2="14.313253"
       y2="20.001163"
       id="linearGradient2416"
       xlink:href="#linearGradient3587-6-5"
       gradientUnits="userSpaceOnUse" />
    <linearGradient
       id="linearGradient3587-6-5-3">
      <stop
         id="stop3589-9-2-2"
         style="stop-color:#000000;stop-opacity:1"
         offset="0" />
      <stop
         id="stop3591-7-4-73"
         style="stop-color:#363636;stop-opacity:1"
         offset="1" />
    </linearGradient>
    <linearGradient
       inkscape:collect="always"
       xlink:href="#linearGradient3587-6-5-3"
       id="linearGradient2399"
       gradientUnits="userSpaceOnUse"
       gradientTransform="matrix(0.4101105,0,0,0.5452071,5.179195,-6.8985155)"
       x1="31.261829"
       y1="23.638462"
       x2="31.261829"
       y2="38.389946" />
  </defs>
  <g
     style="opacity:0.6;stroke:#ffffff;stroke-opacity:1"
     id="g3216"
     transform="translate(-1.0000002,-1.3659515e-6)">
    <path
       style="fill:none;stroke:#ffffff;stroke-width:1.41149473;stroke-linecap:round;stroke-linejoin:round;stroke-miterlimit:4;stroke-opacity:1;stroke-dasharray:none"
       id="path3218"
       d="M 11.788737,19.294254 15.294253,15.55392 8.7057475,8.9228629 m -10e-8,6.0660801 6.5885056,-6.6310583 -3.55157,-3.6521367"
       inkscape:connector-curvature="0" />
    <path
       style="fill:none;stroke:#ffffff;stroke-width:1px;stroke-linecap:round;stroke-linejoin:miter;stroke-opacity:1"
       id="path3220"
       d="m 11.507463,4.8748901 0.08824,14.1558389"
       inkscape:connector-curvature="0" />
  </g>
  <g
     style="opacity:0.7"
     id="g3212"
     transform="translate(-1.0000002,-1)">
    <path
       style="fill:none;stroke:url(#linearGradient2416);stroke-width:1.41149473;stroke-linecap:round;stroke-linejoin:round;stroke-miterlimit:4;stroke-opacity:1;stroke-dasharray:none"
       id="path3367"
       d="M 11.788737,19.294254 15.294253,15.55392 8.7057475,8.9228629 m -10e-8,6.0660801 6.5885056,-6.6310583 -3.55157,-3.6521367"
       inkscape:connector-curvature="0" />
    <path
       style="fill:none;stroke:url(#linearGradient2418);stroke-width:1px;stroke-linecap:round;stroke-linejoin:miter;stroke-opacity:1"
       id="path3590"
       d="m 11.507463,4.8748901 0.08824,14.1558389"
       inkscape:connector-curvature="0" />
  </g>
  <path
     style="opacity:0.6;fill:#ffffff;fill-opacity:1;fill-rule:nonzero;stroke:none;stroke-width:1;marker:none;visibility:visible;display:inline;overflow:visible;enable-background:accumulate"
     id="path2441"
     d="M 18,7 C 16.892,7 16,7.910763 16,9.03125 L 16,10 c -0.554,0 -1,0.446 -1,1 l 0,3 c 0,0.554 0.446,1 1,1 l 4,0 c 0.554,0 1,-0.446 1,-1 l 0,-3 c 0,-0.554 -0.446,-1 -1,-1 L 20,9.03125 C 20,7.910764 19.108,7 18,7 z m 0,1 c 0.554,0 1,0.442363 1,1 l 0,1 -2,0 0,-1 c 0,-0.557637 0.446,-1 1,-1 z"
     inkscape:connector-curvature="0" />
  <path
     style="opacity:0.7;fill:url(#linearGradient2399);fill-opacity:1;fill-rule:nonzero;stroke:none;stroke-width:1;marker:none;visibility:visible;display:inline;overflow:visible;enable-background:accumulate"
     id="rect2822"
     d="M 18,6 C 16.892,6 16,6.910763 16,8.03125 L 16,9 c -0.554,0 -1,0.446 -1,1 l 0,3 c 0,0.554 0.446,1 1,1 l 4,0 c 0.554,0 1,-0.446 1,-1 l 0,-3 C 21,9.446 20.554,9 20,9 L 20,8.03125 C 20,6.910764 19.108,6 18,6 z m 0,1 c 0.554,0 1,0.442363 1,1 l 0,1 -2,0 0,-1 c 0,-0.557637 0.446,-1 1,-1 z"
     inkscape:connector-curvature="0" />
</svg>
