<?xml version="1.0" encoding="UTF-8" standalone="no"?>
<svg
   xmlns:dc="http://purl.org/dc/elements/1.1/"
   xmlns:cc="http://creativecommons.org/ns#"
   xmlns:rdf="http://www.w3.org/1999/02/22-rdf-syntax-ns#"
   xmlns:svg="http://www.w3.org/2000/svg"
   xmlns="http://www.w3.org/2000/svg"
   xmlns:xlink="http://www.w3.org/1999/xlink"
   id="svg2816"
   height="22"
   width="22"
   version="1.0">
  <defs
     id="defs3199">
    <linearGradient
       id="linearGradient4787">
      <stop
         style="stop-color:#000000;stop-opacity:1;"
         offset="0"
         id="stop4789" />
      <stop
         style="stop-color:#363636;stop-opacity:1;"
         offset="1"
         id="stop4791" />
    </linearGradient>
    <linearGradient
       xlink:href="#linearGradient4787"
       id="linearGradient5021"
       x1="12"
       y1="2"
       x2="12"
       y2="21"
       gradientUnits="userSpaceOnUse" />
    <linearGradient
       id="linearGradient3587-6-5-8">
      <stop
         id="stop3589-9-2-4"
         style="stop-color:#000000;stop-opacity:1"
         offset="0" />
      <stop
         id="stop3591-7-4-3"
         style="stop-color:#363636;stop-opacity:1"
         offset="1" />
    </linearGradient>
    <linearGradient
       xlink:href="#linearGradient3587-6-5-8"
       id="linearGradient3808"
       gradientUnits="userSpaceOnUse"
       gradientTransform="translate(-0.94073967,0)"
       x1="11"
       y1="11.16047"
       x2="11"
       y2="23" />
  </defs>
  <metadata
     id="metadata8">
    <rdf:RDF>
      <cc:Work
         rdf:about="">
        <dc:format>image/svg+xml</dc:format>
        <dc:type
           rdf:resource="http://purl.org/dc/dcmitype/StillImage" />
        <dc:title />
      </cc:Work>
    </rdf:RDF>
  </metadata>
  <g
     id="g4166"
     transform="translate(-1 -1)">
    <g
       id="g4999">
      <g
         id="g5015"
         style="fill:url(#linearGradient5021)">
        <path
           id="path3831"
           d="M 2.0592603,9 C 2,14 2.0788853,21 10.5,21 c 8.421115,0 8.55926,-8 8.55926,-8 l 2.49974,0 c 0.277,0 0.5,-0.216987 0.5,-0.5 l 0,-1 c 0,-0.283013 -0.223,-0.5 -0.5,-0.5 l -2.49974,0 c 0.03386,-0.877365 0,-2 0,-2 z"
           style="opacity:0.6;fill:#ffffff;fill-opacity:1;stroke:none" />
        <path
           style="opacity:0.7;fill:url(#linearGradient3808);fill-opacity:1;stroke:none"
           d="M 2.0592603,8 C 2,13 2.0788853,20 10.5,20 c 8.421115,0 8.55926,-8 8.55926,-8 l 2.49974,0 c 0.277,0 0.5,-0.216987 0.5,-0.5 l 0,-1 c 0,-0.283013 -0.223,-0.5 -0.5,-0.5 l -2.49974,0 c 0.03386,-0.8773655 0,-2 0,-2 z"
           id="path2990" />
      </g>
    </g>
  </g>
</svg>
