<?xml version="1.0" encoding="UTF-8" standalone="no"?>
<!-- Created with Inkscape (http://www.inkscape.org/) -->

<svg
   xmlns:dc="http://purl.org/dc/elements/1.1/"
   xmlns:cc="http://creativecommons.org/ns#"
   xmlns:rdf="http://www.w3.org/1999/02/22-rdf-syntax-ns#"
   xmlns:svg="http://www.w3.org/2000/svg"
   xmlns="http://www.w3.org/2000/svg"
   xmlns:xlink="http://www.w3.org/1999/xlink"
   xmlns:sodipodi="http://sodipodi.sourceforge.net/DTD/sodipodi-0.dtd"
   xmlns:inkscape="http://www.inkscape.org/namespaces/inkscape"
   id="svg2816"
   height="22"
   width="22"
   version="1.0"
   inkscape:version="0.48.3.1 r9886"
   sodipodi:docname="caffeine-cup-empty.svg">
  <defs
     id="defs3199">
    <linearGradient
       id="linearGradient4787">
      <stop
         style="stop-color:#000000;stop-opacity:1;"
         offset="0"
         id="stop4789" />
      <stop
         style="stop-color:#363636;stop-opacity:1;"
         offset="1"
         id="stop4791" />
    </linearGradient>
    <linearGradient
       inkscape:collect="always"
       xlink:href="#linearGradient4787"
       id="linearGradient4793"
       x1="12.01531"
       y1="3.0052493"
       x2="12.01531"
       y2="21.4883"
       gradientUnits="userSpaceOnUse" />
    <linearGradient
       inkscape:collect="always"
       xlink:href="#linearGradient4787"
       id="linearGradient4813"
       gradientUnits="userSpaceOnUse"
       x1="12.01531"
       y1="3.0052493"
       x2="12.01531"
       y2="21.4883" />
    <linearGradient
       inkscape:collect="always"
       xlink:href="#linearGradient4787"
       id="linearGradient4815"
       gradientUnits="userSpaceOnUse"
       x1="12.01531"
       y1="3.0052493"
       x2="12.01531"
       y2="21.4883" />
    <linearGradient
       inkscape:collect="always"
       xlink:href="#linearGradient4787"
       id="linearGradient4817"
       gradientUnits="userSpaceOnUse"
       x1="12.01531"
       y1="3.0052493"
       x2="12.01531"
       y2="21.4883" />
    <linearGradient
       inkscape:collect="always"
       xlink:href="#linearGradient4787"
       id="linearGradient4819"
       gradientUnits="userSpaceOnUse"
       x1="12.01531"
       y1="3.0052493"
       x2="12.01531"
       y2="21.4883" />
    <linearGradient
       inkscape:collect="always"
       xlink:href="#linearGradient4787"
       id="linearGradient4821"
       gradientUnits="userSpaceOnUse"
       x1="12.01531"
       y1="3.0052493"
       x2="12.01531"
       y2="21.4883" />
    <linearGradient
       inkscape:collect="always"
       xlink:href="#linearGradient4787"
       id="linearGradient4823"
       gradientUnits="userSpaceOnUse"
       x1="12.01531"
       y1="3.0052493"
       x2="12.01531"
       y2="21.4883" />
    <linearGradient
       inkscape:collect="always"
       xlink:href="#linearGradient4787"
       id="linearGradient4825"
       gradientUnits="userSpaceOnUse"
       x1="12.01531"
       y1="3.0052493"
       x2="12.01531"
       y2="21.4883" />
    <linearGradient
       inkscape:collect="always"
       xlink:href="#linearGradient4787"
       id="linearGradient4827"
       gradientUnits="userSpaceOnUse"
       x1="12.01531"
       y1="3.0052493"
       x2="12.01531"
       y2="21.4883" />
    <linearGradient
       inkscape:collect="always"
       xlink:href="#linearGradient4787"
       id="linearGradient4829"
       gradientUnits="userSpaceOnUse"
       x1="12.01531"
       y1="3.0052493"
       x2="12.01531"
       y2="21.4883" />
    <linearGradient
       inkscape:collect="always"
       xlink:href="#linearGradient4787"
       id="linearGradient4831"
       gradientUnits="userSpaceOnUse"
       x1="12.01531"
       y1="3.0052493"
       x2="12.01531"
       y2="21.4883" />
    <linearGradient
       inkscape:collect="always"
       xlink:href="#linearGradient4787"
       id="linearGradient4833"
       gradientUnits="userSpaceOnUse"
       x1="12.01531"
       y1="3.0052493"
       x2="12.01531"
       y2="21.4883" />
    <linearGradient
       inkscape:collect="always"
       xlink:href="#linearGradient4787"
       id="linearGradient4835"
       gradientUnits="userSpaceOnUse"
       x1="12.01531"
       y1="3.0052493"
       x2="12.01531"
       y2="21.4883" />
    <linearGradient
       inkscape:collect="always"
       xlink:href="#linearGradient4787"
       id="linearGradient4837"
       gradientUnits="userSpaceOnUse"
       x1="12.01531"
       y1="3.0052493"
       x2="12.01531"
       y2="21.4883" />
    <linearGradient
       inkscape:collect="always"
       xlink:href="#linearGradient4787"
       id="linearGradient4839"
       gradientUnits="userSpaceOnUse"
       x1="12.01531"
       y1="3.0052493"
       x2="12.01531"
       y2="21.4883" />
    <linearGradient
       inkscape:collect="always"
       xlink:href="#linearGradient4787"
       id="linearGradient5021"
       x1="12"
       y1="2"
       x2="12"
       y2="21"
       gradientUnits="userSpaceOnUse" />
  </defs>
  <sodipodi:namedview
     pagecolor="#ffffff"
     bordercolor="#666666"
     borderopacity="1"
     objecttolerance="10"
     gridtolerance="10"
     guidetolerance="10"
     inkscape:pageopacity="0"
     inkscape:pageshadow="2"
     inkscape:window-width="1280"
     inkscape:window-height="749"
     id="namedview3197"
     showgrid="true"
     inkscape:zoom="15.170655"
     inkscape:cx="10.796217"
     inkscape:cy="15.18743"
     inkscape:window-x="0"
     inkscape:window-y="27"
     inkscape:window-maximized="1"
     inkscape:current-layer="g4999">
    <inkscape:grid
       type="xygrid"
       id="grid3209" />
  </sodipodi:namedview>
  <metadata
     id="metadata8">
    <rdf:RDF>
      <cc:Work
         rdf:about="">
        <dc:format>image/svg+xml</dc:format>
        <dc:type
           rdf:resource="http://purl.org/dc/dcmitype/StillImage" />
        <dc:title></dc:title>
      </cc:Work>
    </rdf:RDF>
  </metadata>
  <g
     id="g4166"
     transform="translate(-1 -1)">
    <g
       id="g4999">
      <g
         id="g5015"
         style="fill:url(#linearGradient5021)">
        <path
           style="fill:url(#linearGradient5021);fill-opacity:1"
           d="M 8.7110254,20.960372 C 7.175231,20.77531 5.8421208,20.337407 4.9617303,19.728793 4.5315349,19.431399 3.8541247,18.768642 3.5621757,18.359512 2.9947413,17.564324 2.5346362,16.333917 2.3055053,14.998941 2.1379589,14.022773 2.0039946,11.830733 2,10 l -8.39e-4,-0.384533 8.366525,0 8.366526,0 0,0.372881 0,0.372881 0.221398,10e-4 c 0.604411,0.0028 2.135586,0.09539 2.308672,0.139576 0.308354,0.07871 0.6927,0.186609 0.737718,0.270726 0,0.528834 0,0.544056 0,1.227469 l -0.346521,0.263498 c -0.103681,0.07884 -0.314522,0.123199 -0.436986,0.150644 -0.184994,0.04146 -1.735263,0.131266 -2.353242,0.136324 -0.199848,0.0016 -0.183793,-0.06049 -0.271358,1.050136 -0.214043,2.714797 -0.822199,4.35758 -2.052081,5.54319 -0.227622,0.219428 -0.563373,0.495681 -0.746113,0.613895 -0.697897,0.451468 -1.722362,0.85601 -2.636448,1.041086 -1.08639,0.219963 -3.2954266,0.300234 -4.4462196,0.161565 l 0,0 z"
           id="path4699"
           inkscape:connector-curvature="0"
           sodipodi:nodetypes="csssscccccccccsscssssccc" />
        <path
           style="opacity:1;fill:url(#linearGradient5021);fill-opacity:1"
           d="m 13.463291,8.5258105 c -0.02415,-0.060718 -0.06833,-0.372578 -0.09818,-0.6930229 -0.02985,-0.3204449 -0.136622,-0.9771099 -0.237273,-1.4592558 -0.215557,-1.0325709 -0.223786,-1.2726393 -0.08978,-2.619134 0.05103,-0.5127119 0.09287,-1.0817009 0.093,-1.26442 1.65e-4,-0.2448028 0.01948,-0.3481947 0.07339,-0.3929418 C 13.248569,2.060421 13.493777,2.021894 13.822034,2 c 0.299428,-0.019971 0.590343,-0.047731 0.646477,-0.06169 0.0664,-0.016513 0.144577,0.011324 0.223753,0.079676 0.193958,0.1674414 0.200561,0.4716778 0.0306,1.4101401 -0.383387,2.1169846 -0.370509,2.709477 0.09044,4.1610982 0.100308,0.3158901 0.182379,0.6120288 0.182379,0.6580862 0,0.1885092 -0.169344,0.2597221 -0.692291,0.2911248 -0.272948,0.01639 -0.563753,0.045094 -0.646235,0.063785 -0.130167,0.029498 -0.155762,0.01941 -0.19387,-0.076411 l 0,0 z"
           id="path4705"
           inkscape:connector-curvature="0" />
        <path
           style="opacity:1;fill:url(#linearGradient5021);fill-opacity:1"
           d="M 9.6412562,8.5258105 C 9.6171085,8.4650928 9.5729295,8.1532325 9.5430806,7.8327876 9.5132318,7.5123427 9.4064588,6.8556777 9.3058074,6.3735318 9.0902508,5.3409609 9.0820214,5.1008925 9.2160252,3.7543978 9.2670502,3.2416859 9.3088992,2.6726969 9.3090222,2.4899778 9.3091869,2.245175 9.3284982,2.1417831 9.3824152,2.097036 9.4265332,2.060421 9.6717427,2.021894 10,2 c 0.299429,-0.019971 0.590343,-0.047731 0.646477,-0.06169 0.0664,-0.016513 0.144578,0.011324 0.223754,0.079676 0.194094,0.1675599 0.200615,0.4717584 0.03023,1.4101401 -0.383959,2.1145808 -0.371038,2.7066253 0.09082,4.1610982 0.100307,0.3158901 0.182378,0.6120288 0.182378,0.6580862 0,0.1885092 -0.169344,0.2597221 -0.692291,0.2911248 -0.272947,0.01639 -0.5637535,0.045094 -0.6462348,0.063785 -0.1301672,0.029498 -0.1557623,0.01941 -0.1938708,-0.076411 l 0,0 z"
           id="path4707"
           inkscape:connector-curvature="0" />
        <path
           style="opacity:1;fill:url(#linearGradient5021);fill-opacity:1"
           d="M 5.8844933,8.5722207 C 5.8716402,8.5372486 5.8304488,8.214991 5.792957,7.8560927 5.7554651,7.4971944 5.639873,6.7985802 5.5360856,6.3036165 5.4322981,5.808653 5.3473811,5.2970602 5.3473811,5.1667438 c 0,-0.1303164 0.051922,-0.7950496 0.115382,-1.4771848 C 5.5262232,3.0074237 5.573416,2.3770841 5.567636,2.2888044 5.553583,2.0741698 5.6848229,2.0089351 6.139754,2.0044251 6.3320209,2.002519 6.5942031,1.9837568 6.7223811,1.9627313 7.018328,1.914186 7.1403368,1.9614175 7.206068,2.1499739 7.2862823,2.380077 7.2692235,2.7333941 7.1450687,3.4133711 6.9494371,4.4848154 6.88157,5.0539338 6.8813267,5.6250519 c -2.797e-4,0.6536198 0.079016,1.1069345 0.3321076,1.8986017 0.301034,0.9416317 0.2790342,0.9835529 -0.5376634,1.0245363 -0.2819915,0.01415 -0.5701311,0.039653 -0.6403101,0.056672 -0.087746,0.021279 -0.134897,0.011085 -0.1509675,-0.032642 l 0,0 z"
           id="path4709"
           inkscape:connector-curvature="0" />
      </g>
    </g>
  </g>
</svg>
