<?xml version="1.0" encoding="UTF-8" standalone="no"?>
<svg
   xmlns:dc="http://purl.org/dc/elements/1.1/"
   xmlns:cc="http://creativecommons.org/ns#"
   xmlns:rdf="http://www.w3.org/1999/02/22-rdf-syntax-ns#"
   xmlns:svg="http://www.w3.org/2000/svg"
   xmlns="http://www.w3.org/2000/svg"
   xmlns:xlink="http://www.w3.org/1999/xlink"
   id="svg2404"
   height="22"
   width="15"
   version="1.0">
  <metadata
     id="metadata16">
    <rdf:RDF>
      <cc:Work
         rdf:about="">
        <dc:format>image/svg+xml</dc:format>
        <dc:type
           rdf:resource="http://purl.org/dc/dcmitype/StillImage" />
      </cc:Work>
    </rdf:RDF>
  </metadata>
  <defs
     id="defs2406">
    <linearGradient
       gradientTransform="matrix(0.4100229,0,0,0.5447147,-60.849273,-1.0025304)"
       gradientUnits="userSpaceOnUse"
       xlink:href="#linearGradient3587-6-5-3"
       id="linearGradient2399"
       y2="33.049465"
       x2="165.47679"
       y1="23.868645"
       x1="165.47679" />
    <linearGradient
       id="linearGradient3587-6-5-3">
      <stop
         offset="0"
         style="stop-color:#000000;stop-opacity:1"
         id="stop3589-9-2-2" />
      <stop
         offset="1"
         style="stop-color:#363636;stop-opacity:1"
         id="stop3591-7-4-73" />
    </linearGradient>
    <linearGradient
       gradientTransform="translate(-5,-1)"
       gradientUnits="userSpaceOnUse"
       xlink:href="#linearGradient3587-6-5-3"
       id="linearGradient2396"
       y2="20"
       x2="14"
       y1="4"
       x1="14" />
  </defs>
  <g
     id="layer1">
    <path
       style="opacity:0.6;fill:#ffffff;fill-opacity:1;fill-rule:nonzero;stroke:none;stroke-width:1;marker:none;visibility:visible;display:inline;overflow:visible;enable-background:accumulate"
       id="path3291"
       d="m 4,13 0,3 c 0,1.108 1.338,2 3,2 l 1,0 c 1.662,0 3,-0.892 3,-2 l 0,-3 c 0,0 -7,0 -7,0 z" />
    <path
       style="opacity:0.3;fill:none;stroke:#000000;stroke-width:0.49999994;stroke-linecap:round;stroke-linejoin:miter;stroke-miterlimit:4;stroke-opacity:1;stroke-dasharray:none;stroke-dashoffset:0;marker:none;visibility:visible;display:inline;overflow:visible;enable-background:accumulate"
       id="rect3236"
       d="M 3.25,15.450001 C 3.252844,12.443791 3.2443067,9.437377 3.254278,6.4312954 3.3659022,5.2690397 4.5191399,4.5697645 5.566642,4.3530654 6.038101,4.263253 6.75,4.245207 6.75,4.245207 c 0,0 0,3.254793 0,3.254793 0,0 0.058301,0.75 0.798532,0.75 C 8.271982,8.25 8.25,7.5 8.25,7.5 c 0,0 0,-3.2452164 0,-3.2452164 1.562167,-0.078009 2.75,0.5175975 3.35212,1.6098018 0.244364,0.6091286 0.115217,1.2771243 0.14788,1.9170201 -0.0028,2.5956745 0.0057,5.1915535 -0.0043,7.7870995 -0.111624,1.162256 -1.264862,1.86153 -2.312364,2.07823 C 8.506212,17.823555 7.557192,17.723572 6.619145,17.75 5.387631,17.764194 3.9779253,17.310668 3.3978805,16.135415 3.3019013,15.920455 3.2495712,15.685646 3.25,15.450001 z" />
    <path
       style="opacity:0.6;fill:none;stroke:#ffffff;stroke-width:0.99999994;stroke-linecap:round;stroke-linejoin:miter;stroke-miterlimit:4;stroke-opacity:1;stroke-dashoffset:0;marker:none;visibility:visible;display:inline;overflow:visible;enable-background:accumulate"
       id="path3212"
       d="m 6.5,4.499999 2,0 c 2.216,0 4,1.338 4,3 L 12.5,16.5 c 0,1.662 -1.784,3 -4,3 l -2,0 c -2.2160001,0 -4,-1.338 -4,-3 l 0,-9.000001 c 0,-1.662 1.7839999,-3 4,-3 z m 1.041885,1e-6 0,4" />
    <path
       style="opacity:0.7;fill:url(#linearGradient2399);fill-opacity:1;fill-rule:nonzero;stroke:none;stroke-width:1;marker:none;visibility:visible;display:inline;overflow:visible;enable-background:accumulate"
       id="rect3728"
       d="m 4,12 0,3 c 0,1.108 1.338,2 3,2 l 1,0 c 1.662,0 3,-0.892 3,-2 l 0,-3 c 0,0 -7,0 -7,0 z" />
    <path
       style="opacity:0.7;fill:none;stroke:url(#linearGradient2396);stroke-width:0.99999994;stroke-linecap:round;stroke-linejoin:miter;stroke-miterlimit:4;stroke-opacity:1;stroke-dashoffset:0;marker:none;visibility:visible;display:inline;overflow:visible;enable-background:accumulate"
       id="path3231"
       d="m 6.5,3.499999 2,0 c 2.216,0 4,1.338 4,3 L 12.5,15.5 c 0,1.662 -1.784,3 -4,3 l -2,0 c -2.2160001,0 -4,-1.338 -4,-3 l 0,-9.000001 c 0,-1.662 1.7839999,-3 4,-3 z m 1,1e-6 0,4" />
  </g>
</svg>
