<?xml version="1.0" encoding="UTF-8" standalone="no"?>
<!-- Created with Inkscape (http://www.inkscape.org/) -->

<svg
   xmlns:dc="http://purl.org/dc/elements/1.1/"
   xmlns:cc="http://creativecommons.org/ns#"
   xmlns:rdf="http://www.w3.org/1999/02/22-rdf-syntax-ns#"
   xmlns:svg="http://www.w3.org/2000/svg"
   xmlns="http://www.w3.org/2000/svg"
   xmlns:xlink="http://www.w3.org/1999/xlink"
   xmlns:sodipodi="http://sodipodi.sourceforge.net/DTD/sodipodi-0.dtd"
   xmlns:inkscape="http://www.inkscape.org/namespaces/inkscape"
   version="1.0"
   width="22"
   height="22"
   id="svg3239"
   inkscape:version="0.48.3.1 r9886"
   sodipodi:docname="onboard-mono.svg">
  <metadata
     id="metadata13">
    <rdf:RDF>
      <cc:Work
         rdf:about="">
        <dc:format>image/svg+xml</dc:format>
        <dc:type
           rdf:resource="http://purl.org/dc/dcmitype/StillImage" />
        <dc:title />
      </cc:Work>
    </rdf:RDF>
  </metadata>
  <sodipodi:namedview
     pagecolor="#ffffff"
     bordercolor="#666666"
     borderopacity="1"
     objecttolerance="10"
     gridtolerance="10"
     guidetolerance="10"
     inkscape:pageopacity="0"
     inkscape:pageshadow="2"
     inkscape:window-width="1440"
     inkscape:window-height="849"
     id="namedview11"
     showgrid="true"
     inkscape:zoom="29"
     inkscape:cx="10.391247"
     inkscape:cy="11.18467"
     inkscape:window-x="0"
     inkscape:window-y="27"
     inkscape:window-maximized="1"
     inkscape:current-layer="g3005"
     inkscape:snap-global="true">
    <inkscape:grid
       type="xygrid"
       id="grid3189" />
  </sodipodi:namedview>
  <defs
     id="defs3241">
    <linearGradient
       id="linearGradient3587-6-5">
      <stop
         id="stop3589-9-2"
         style="stop-color:#000000;stop-opacity:1"
         offset="0" />
      <stop
         id="stop3591-7-4"
         style="stop-color:#363636;stop-opacity:1"
         offset="1" />
    </linearGradient>
    <linearGradient
       inkscape:collect="always"
       xlink:href="#linearGradient3587-6-5"
       id="linearGradient3034"
       x1="11"
       y1="3"
       x2="11"
       y2="19"
       gradientUnits="userSpaceOnUse" />
  </defs>
  <g
     id="g3005">
    <path
       d="M 5,5 C 3.892,5 3,5.892 3,7 l 0,10 c 0,1.108 0.892,2 2,2 l 12,0 c 1.108,0 2,-0.892 2,-2 L 19,7 C 19,5.892 18.108,5 17,5 z"
       id="path3235"
       style="opacity:0.6;fill:#ffffff;fill-opacity:1;fill-rule:nonzero;stroke:none;stroke-width:1;marker:none;visibility:visible;display:inline;overflow:visible;enable-background:accumulate"
       inkscape:connector-curvature="0"
       sodipodi:nodetypes="sssssssss" />
    <path
       id="rect2386-8"
       style="opacity:0.69999999999999996;fill:url(#linearGradient3034);fill-opacity:1;fill-rule:nonzero;stroke:none;stroke-width:1;marker:none;visibility:visible;display:inline;overflow:visible;enable-background:accumulate"
       d="m 13,11 c -1,0 -2,1 -2,2 l 0,4 c 0,1 1,2 2,2 l 4,0 c 1,0 2,-1 2,-2 l 0,-4 c 0,-1 -1,-2 -2,-2 z m -8,0 c -1,0 -2,1 -2,2 l 0,4 c 0,1 1,2 2,2 l 4,0 c 1,0 2,-1 2,-2 l 0,-4 c 0,-1 -1,-2 -2,-2 z m 8,-8 c -1,0 -2,1 -2,2 l 0,4 c 0,1 1,2 2,2 l 4,0 c 1,0 2,-1 2,-2 L 19,5 C 19,4 18,3 17,3 z M 5,3 C 4,3 3,4 3,5 l 0,4 c 0,1 1,2 2,2 l 4,0 c 1,0 2,-1 2,-2 L 11,5 C 11,4 10,3 9,3 z" />
  </g>
</svg>
