<?xml version="1.0" encoding="UTF-8" standalone="no"?>
<svg
   xmlns:dc="http://purl.org/dc/elements/1.1/"
   xmlns:cc="http://creativecommons.org/ns#"
   xmlns:rdf="http://www.w3.org/1999/02/22-rdf-syntax-ns#"
   xmlns:svg="http://www.w3.org/2000/svg"
   xmlns="http://www.w3.org/2000/svg"
   xmlns:xlink="http://www.w3.org/1999/xlink"
   id="svg3239"
   height="22"
   width="22"
   version="1.0">
  <metadata
     id="metadata13">
    <rdf:RDF>
      <cc:Work
         rdf:about="">
        <dc:format>image/svg+xml</dc:format>
        <dc:type
           rdf:resource="http://purl.org/dc/dcmitype/StillImage" />
        <dc:title />
      </cc:Work>
    </rdf:RDF>
  </metadata>
  <defs
     id="defs3241">
    <linearGradient
       gradientTransform="translate(0,-1)"
       gradientUnits="userSpaceOnUse"
       y2="21"
       x2="11"
       y1="1"
       x1="11"
       id="linearGradient3795"
       xlink:href="#linearGradient3587-6-5" />
    <linearGradient
       id="linearGradient3587-6-5">
      <stop
         offset="0"
         style="stop-color:#000000;stop-opacity:1"
         id="stop3589-9-2" />
      <stop
         offset="1"
         style="stop-color:#363636;stop-opacity:1"
         id="stop3591-7-4" />
    </linearGradient>
  </defs>
  <path
     id="path3797"
     style="opacity:0.6;fill:#ffffff;fill-opacity:1;stroke:none"
     d="m 2.8844765,12 5.231047,0 C 9.1595235,12 10,12.758345 10,13.700326 l 0,5.599348 C 10,20.241655 9.1595235,21 8.1155235,21 l -5.231047,0 C 1.8404765,21 1,20.241655 1,19.299674 L 1,13.700326 C 1,12.758345 1.8404765,12 2.8844765,12 z M 13.875,12 C 12.831,12 12,12.745519 12,13.6875 l 0,5.625 C 12,20.254481 12.831,21 13.875,21 l 5.25,0 C 20.169,21 21,20.254481 21,19.3125 l 0,-5.625 C 21,12.745519 20.169,12 19.125,12 l -5.25,0 z m 0.46875,1.375 1.875,0 c 0.404294,6e-6 0.757809,0.03516 1.0625,0.09375 0.304683,0.05567 0.576168,0.15235 0.78125,0.28125 0.205073,0.125982 0.334956,0.291998 0.4375,0.5 0.105464,0.205083 0.187495,0.448247 0.1875,0.75 -5e-6,0.181645 -0.04981,0.373051 -0.09375,0.53125 -0.04395,0.158207 -0.102544,0.286137 -0.1875,0.40625 -0.08497,0.120121 -0.189458,0.230472 -0.3125,0.3125 -0.120122,0.0791 -0.248051,0.129886 -0.40625,0.15625 l 0,0.03125 c 0.161129,0.03516 0.2998,0.08887 0.4375,0.15625 0.14062,0.06446 0.272456,0.164066 0.375,0.28125 0.105464,0.114261 0.191401,0.261721 0.25,0.4375 0.06152,0.175784 0.09374,0.373049 0.09375,0.625 -5e-6,0.29297 -0.05372,0.549806 -0.15625,0.78125 -0.102544,0.228516 -0.244146,0.432618 -0.4375,0.59375 -0.190434,0.158203 -0.443364,0.290039 -0.71875,0.375 -0.272465,0.08496 -0.56055,0.125 -0.90625,0.125 l -2.28125,0 0,-6.4375 z m 1.375,1.125 0,1.4375 0.6875,0 c 0.169919,4e-6 0.323239,-0.0332 0.4375,-0.0625 0.114254,-0.03222 0.210934,-0.06347 0.28125,-0.125 0.07031,-0.06152 0.126949,-0.159175 0.15625,-0.25 0.03222,-0.09375 0.03125,-0.189449 0.03125,-0.3125 -4e-6,-0.246089 -0.06348,-0.425776 -0.21875,-0.53125 -0.152347,-0.108393 -0.416019,-0.156245 -0.75,-0.15625 l -0.625,0 z m 0,2.5 0,1.6875 0.78125,0 c 0.178708,1e-6 0.34863,-0.02148 0.46875,-0.0625 0.123043,-0.04101 0.208004,-0.111327 0.28125,-0.1875 0.07617,-0.07617 0.12402,-0.17285 0.15625,-0.28125 0.03222,-0.108397 0.0625,-0.211912 0.0625,-0.34375 -4e-6,-0.120115 -0.03028,-0.247068 -0.0625,-0.34375 C 17.37402,17.36914 17.3291,17.289065 17.25,17.21875 17.17382,17.14844 17.063473,17.100589 16.9375,17.0625 16.81152,17.02442 16.656247,17 16.46875,17 l -0.75,0 z M 13.884477,1 19.115523,1 C 20.159523,1 21,1.7583453 21,2.7003258 l 0,5.5993484 C 21,9.2416547 20.159523,10 19.115523,10 l -5.231046,0 C 12.840477,10 12,9.2416547 12,8.2996742 L 12,2.7003258 C 12,1.7583453 12.840477,1 13.884477,1 z M 2.875,1 C 1.831,1 1,1.7455195 1,2.6875 l 0,5.625 C 1,9.2544805 1.831,10 2.875,10 l 5.25,0 C 9.169,10 10,9.2544805 10,8.3125 l 0,-5.625 C 10,1.7455195 9.169,1 8.125,1 L 2.875,1 z M 5.5,2.1875 c 0.4921836,6.5e-6 0.9208941,0.060553 1.28125,0.21875 C 7.1415965,2.5615296 7.4531197,2.8037168 7.6875,3.09375 7.9247989,3.3808647 8.1044862,3.7177784 8.21875,4.125 8.3359313,4.529301 8.3749937,4.9990272 8.375,5.5 8.3749937,5.9951199 8.3359313,6.4365257 8.21875,6.84375 8.1044862,7.250978 7.9247989,7.584962 7.6875,7.875 7.45019,8.1650396 7.1445262,8.4042972 6.78125,8.5625 6.4208941,8.7207031 5.9921836,8.7812499 5.5,8.78125 5.0078096,8.7812499 4.5820288,8.7207031 4.21875,8.5625 3.8583967,8.4042972 3.5498032,8.1650396 3.3125,7.875 3.078124,7.584962 2.8984367,7.250978 2.78125,6.84375 2.6669916,6.433596 2.6249995,5.9667996 2.625,5.46875 2.6249995,4.9707069 2.6669916,4.5293011 2.78125,4.125 2.8984367,3.7177784 3.0751943,3.3808647 3.3125,3.09375 3.5498032,2.8066465 3.8583967,2.5615296 4.21875,2.40625 4.5820288,2.2480533 5.0048799,2.1875065 5.5,2.1875 z m 0,1.125 C 5.245114,3.3125054 5.0312471,3.369146 4.84375,3.46875 4.6562474,3.5683645 4.4980445,3.718755 4.375,3.90625 4.2548807,4.0937546 4.1835917,4.3242231 4.125,4.59375 4.0664043,4.8603554 4.0312481,5.1630895 4.03125,5.5 4.0312481,5.8369169 4.0664043,6.1367213 4.125,6.40625 4.1835917,6.6728536 4.2548807,6.8750018 4.375,7.0625 4.4980445,7.2470718 4.6591771,7.4003919 4.84375,7.5 5.0283174,7.5996105 5.245114,7.6562511 5.5,7.65625 5.7607385,7.6562511 5.9716758,7.5996105 6.15625,7.5 6.3437457,7.4003919 6.5078081,7.2470718 6.625,7.0625 6.7451125,6.8750018 6.8193312,6.6728536 6.875,6.40625 6.9335889,6.1367213 6.9687451,5.8369169 6.96875,5.5 6.9687451,5.1630895 6.9335889,4.8603554 6.875,4.59375 6.8193312,4.3242231 6.7451125,4.0937546 6.625,3.90625 6.5078081,3.718755 6.3408161,3.5683645 6.15625,3.46875 5.9716758,3.369146 5.7578088,3.3125054 5.5,3.3125 z" />
  <path
     d="m 2.8844765,11 5.231047,0 C 9.1595235,11 10,11.758345 10,12.700326 l 0,5.599348 C 10,19.241655 9.1595235,20 8.1155235,20 l -5.231047,0 C 1.8404765,20 1,19.241655 1,18.299674 L 1,12.700326 C 1,11.758345 1.8404765,11 2.8844765,11 z M 13.875,11 C 12.831,11 12,11.745519 12,12.6875 l 0,5.625 C 12,19.254481 12.831,20 13.875,20 l 5.25,0 C 20.169,20 21,19.254481 21,18.3125 l 0,-5.625 C 21,11.745519 20.169,11 19.125,11 l -5.25,0 z m 0.46875,1.375 1.875,0 c 0.404294,6e-6 0.757809,0.03516 1.0625,0.09375 0.304683,0.05567 0.576168,0.15235 0.78125,0.28125 0.205073,0.125982 0.334956,0.291998 0.4375,0.5 0.105464,0.205083 0.187495,0.448247 0.1875,0.75 -5e-6,0.181645 -0.04981,0.373051 -0.09375,0.53125 -0.04395,0.158207 -0.102544,0.286137 -0.1875,0.40625 -0.08497,0.120121 -0.189458,0.230472 -0.3125,0.3125 -0.120122,0.0791 -0.248051,0.129886 -0.40625,0.15625 l 0,0.03125 c 0.161129,0.03516 0.2998,0.08887 0.4375,0.15625 0.14062,0.06446 0.272456,0.164066 0.375,0.28125 0.105464,0.114261 0.191401,0.261721 0.25,0.4375 0.06152,0.175784 0.09374,0.373049 0.09375,0.625 -5e-6,0.29297 -0.05372,0.549806 -0.15625,0.78125 -0.102544,0.228516 -0.244146,0.432618 -0.4375,0.59375 -0.190434,0.158203 -0.443364,0.290039 -0.71875,0.375 -0.272465,0.08496 -0.56055,0.125 -0.90625,0.125 l -2.28125,0 0,-6.4375 z m 1.375,1.125 0,1.4375 0.6875,0 c 0.169919,4e-6 0.323239,-0.0332 0.4375,-0.0625 0.114254,-0.03222 0.210934,-0.06347 0.28125,-0.125 0.07031,-0.06152 0.126949,-0.159175 0.15625,-0.25 0.03222,-0.09375 0.03125,-0.189449 0.03125,-0.3125 -4e-6,-0.246089 -0.06348,-0.425776 -0.21875,-0.53125 -0.152347,-0.108393 -0.416019,-0.156245 -0.75,-0.15625 l -0.625,0 z m 0,2.5 0,1.6875 0.78125,0 c 0.178708,1e-6 0.34863,-0.02148 0.46875,-0.0625 0.123043,-0.04101 0.208004,-0.111327 0.28125,-0.1875 0.07617,-0.07617 0.12402,-0.17285 0.15625,-0.28125 0.03222,-0.108397 0.0625,-0.211912 0.0625,-0.34375 -4e-6,-0.120115 -0.03028,-0.247068 -0.0625,-0.34375 C 17.37402,16.36914 17.3291,16.289065 17.25,16.21875 17.17382,16.14844 17.063473,16.100589 16.9375,16.0625 16.81152,16.02442 16.656247,16 16.46875,16 l -0.75,0 z M 13.884477,0 19.115523,0 C 20.159523,0 21,0.7583453 21,1.7003258 l 0,5.5993484 C 21,8.2416547 20.159523,9 19.115523,9 L 13.884477,9 C 12.840477,9 12,8.2416547 12,7.2996742 L 12,1.7003258 C 12,0.7583453 12.840477,0 13.884477,0 z M 2.875,0 C 1.831,0 1,0.7455195 1,1.6875 l 0,5.625 C 1,8.2544805 1.831,9 2.875,9 l 5.25,0 C 9.169,9 10,8.2544805 10,7.3125 l 0,-5.625 C 10,0.7455195 9.169,0 8.125,0 L 2.875,0 z M 5.5,1.1875 c 0.4921836,6.5e-6 0.9208941,0.060553 1.28125,0.21875 C 7.1415965,1.5615296 7.4531197,1.8037168 7.6875,2.09375 7.9247989,2.3808647 8.1044862,2.7177784 8.21875,3.125 8.3359313,3.529301 8.3749937,3.9990272 8.375,4.5 8.3749937,4.9951199 8.3359313,5.4365257 8.21875,5.84375 8.1044862,6.250978 7.9247989,6.584962 7.6875,6.875 7.45019,7.1650396 7.1445262,7.4042972 6.78125,7.5625 6.4208941,7.7207031 5.9921836,7.7812499 5.5,7.78125 5.0078096,7.7812499 4.5820288,7.7207031 4.21875,7.5625 3.8583967,7.4042972 3.5498032,7.1650396 3.3125,6.875 3.078124,6.584962 2.8984367,6.250978 2.78125,5.84375 2.6669916,5.433596 2.6249995,4.9667996 2.625,4.46875 2.6249995,3.9707069 2.6669916,3.5293011 2.78125,3.125 2.8984367,2.7177784 3.0751943,2.3808647 3.3125,2.09375 3.5498032,1.8066465 3.8583967,1.5615296 4.21875,1.40625 4.5820288,1.2480533 5.0048799,1.1875065 5.5,1.1875 z m 0,1.125 C 5.245114,2.3125054 5.0312471,2.369146 4.84375,2.46875 4.6562474,2.5683645 4.4980445,2.718755 4.375,2.90625 4.2548807,3.0937546 4.1835917,3.3242231 4.125,3.59375 4.0664043,3.8603554 4.0312481,4.1630895 4.03125,4.5 4.0312481,4.8369169 4.0664043,5.1367213 4.125,5.40625 4.1835917,5.6728536 4.2548807,5.8750018 4.375,6.0625 4.4980445,6.2470718 4.6591771,6.4003919 4.84375,6.5 5.0283174,6.5996105 5.245114,6.6562511 5.5,6.65625 5.7607385,6.6562511 5.9716758,6.5996105 6.15625,6.5 6.3437457,6.4003919 6.5078081,6.2470718 6.625,6.0625 6.7451125,5.8750018 6.8193312,5.6728536 6.875,5.40625 6.9335889,5.1367213 6.9687451,4.8369169 6.96875,4.5 6.9687451,4.1630895 6.9335889,3.8603554 6.875,3.59375 6.8193312,3.3242231 6.7451125,3.0937546 6.625,2.90625 6.5078081,2.718755 6.3408161,2.5683645 6.15625,2.46875 5.9716758,2.369146 5.7578088,2.3125054 5.5,2.3125 z"
     style="fill:url(#linearGradient3795);fill-opacity:1;stroke:none;opacity:0.7"
     id="rect3769" />
</svg>
