<?xml version="1.0" encoding="UTF-8" standalone="no"?>
<svg
   xmlns:dc="http://purl.org/dc/elements/1.1/"
   xmlns:cc="http://creativecommons.org/ns#"
   xmlns:rdf="http://www.w3.org/1999/02/22-rdf-syntax-ns#"
   xmlns:svg="http://www.w3.org/2000/svg"
   xmlns="http://www.w3.org/2000/svg"
   xmlns:sodipodi="http://sodipodi.sourceforge.net/DTD/sodipodi-0.dtd"
   xmlns:inkscape="http://www.inkscape.org/namespaces/inkscape"
   width="22"
   height="22"
   version="1.1"
   id="svg4"
   sodipodi:docname="software-update-available.svg"
   inkscape:version="0.92.4 (5da689c313, 2019-01-14)">
  <metadata
     id="metadata10">
    <rdf:RDF>
      <cc:Work
         rdf:about="">
        <dc:format>image/svg+xml</dc:format>
        <dc:type
           rdf:resource="http://purl.org/dc/dcmitype/StillImage" />
        <dc:title />
      </cc:Work>
    </rdf:RDF>
  </metadata>
  <defs
     id="defs8" />
  <sodipodi:namedview
     pagecolor="#ffffff"
     bordercolor="#666666"
     borderopacity="1"
     objecttolerance="10"
     gridtolerance="10"
     guidetolerance="10"
     inkscape:pageopacity="0"
     inkscape:pageshadow="2"
     inkscape:window-width="1920"
     inkscape:window-height="1030"
     id="namedview6"
     showgrid="true"
     inkscape:zoom="10.727273"
     inkscape:cx="-6.0127116"
     inkscape:cy="10.254237"
     inkscape:window-x="0"
     inkscape:window-y="26"
     inkscape:window-maximized="1"
     inkscape:current-layer="svg4">
    <inkscape:grid
       type="xygrid"
       id="grid815" />
  </sodipodi:namedview>
  <path
     d="M 11,2 8.5654299,5.12012 4.6367195,4.63673 5.1201169,8.56541 2,11 5.1201169,13.434589 4.6367195,17.363269 8.5654299,16.87988 11,20 13.434578,16.87988 17.363272,17.363269 16.879883,13.434589 20,11 16.879883,8.56541 17.363272,4.63673 13.434578,5.12012 Z m -0.9,4.5 h 1.8 v 6.3 h -1.8 z m 0,7.2 h 1.8 v 1.8 h -1.8 z"
     id="path2"
     inkscape:connector-curvature="0"
     style="fill:#dadada;stroke-width:0.89999992" />
  <path
     style="fill:#ff9933;stroke-width:0.08389826"
     d="m 9.7785046,18.403897 -1.2103162,-1.553236 -0.3404085,0.04944 c -0.6374234,0.09254 -3.5284705,0.43756 -3.5467242,0.423281 -0.016507,-0.0129 0.3350839,-2.992906 0.4280864,-3.628353 C 5.1470221,13.436204 5.1032221,13.39351 3.607288,12.231695 2.7598074,11.573479 2.0836079,11.00713 2.1046222,10.973133 2.1256342,10.939125 2.8005034,10.399317 3.6043282,9.773547 4.4081529,9.147765 5.0819798,8.6070688 5.1017209,8.5719926 5.121462,8.5369183 5.0318402,7.6595969 4.9025623,6.6223909 4.7732824,5.5851833 4.6820363,4.7220315 4.6997929,4.7042749 c 0.017753,-0.017757 0.8554892,0.066917 1.8616284,0.188166 1.0061372,0.1212485 1.8739094,0.219876 1.9283796,0.219174 0.054468,-7.02e-4 0.6318133,-0.6808514 1.2829816,-1.5114448 0.6511655,-0.8305934 1.2106695,-1.508192 1.2433275,-1.5057735 0.03269,0.00249 0.584121,0.6819933 1.225457,1.5101685 0.759892,0.9812572 1.219705,1.5057731 1.32006,1.5057731 0.0847,0 0.949941,-0.098156 1.922802,-0.2181241 0.972849,-0.1199681 1.785979,-0.2009528 1.806978,-0.1799652 0.02092,0.020985 -0.05698,0.8050504 -0.173408,1.742364 -0.116348,0.9373125 -0.211567,1.8061022 -0.211567,1.930644 0,0.1943559 0.213548,0.3914841 1.507066,1.3912241 0.828877,0.640632 1.508462,1.188074 1.510166,1.216533 0.0019,0.02842 -0.675068,0.57588 -1.503946,1.216515 -1.328607,1.02688 -1.507416,1.193451 -1.510166,1.40686 -0.0019,0.133136 0.09453,1.013931 0.21395,1.957317 0.119364,0.943383 0.20431,1.725855 0.188766,1.738845 -0.01548,0.01303 -0.89476,-0.08436 -1.953802,-0.216379 -1.05902,-0.131978 -1.949677,-0.211693 -1.979229,-0.177107 -0.02961,0.03463 -0.536784,0.685826 -1.127192,1.447201 -0.590407,0.761374 -1.116161,1.430791 -1.168343,1.487601 -0.07286,0.07927 -0.37624,-0.257806 -1.3051974,-1.44997 z m 2.1597954,-3.792081 -0.02386,-0.901899 -0.901918,-0.02383 -0.901902,-0.0238 v 0.92572 0.925717 h 0.925724 0.925717 z M 11.9145,9.640849 V 6.4946618 l -0.901917,-0.023813 -0.901905,-0.023813 v 3.1938137 3.193803 l 0.901905,-0.02386 0.901906,-0.02386 z"
     id="path12"
     inkscape:connector-curvature="0" />
  <path
     style="fill:none;stroke-width:0.08389826"
     d="M 10.110678,9.640849 V 6.53661 h 0.88094 0.880933 v 3.104239 3.104234 h -0.880933 -0.88094 z"
     id="path14"
     inkscape:connector-curvature="0" />
  <path
     style="fill:none;stroke-width:0.08389826"
     d="m 10.110678,14.632801 v -0.880934 h 0.88094 0.880933 v 0.880934 0.880933 h -0.880933 -0.88094 z"
     id="path16"
     inkscape:connector-curvature="0" />
</svg>
