<?xml version="1.0" encoding="UTF-8" standalone="no"?>
<svg
   xmlns:dc="http://purl.org/dc/elements/1.1/"
   xmlns:cc="http://creativecommons.org/ns#"
   xmlns:rdf="http://www.w3.org/1999/02/22-rdf-syntax-ns#"
   xmlns:svg="http://www.w3.org/2000/svg"
   xmlns="http://www.w3.org/2000/svg"
   xmlns:xlink="http://www.w3.org/1999/xlink"
   id="svg4073"
   height="22"
   width="22"
   version="1.0">
  <metadata
     id="metadata18">
    <rdf:RDF>
      <cc:Work
         rdf:about="">
        <dc:format>image/svg+xml</dc:format>
        <dc:type
           rdf:resource="http://purl.org/dc/dcmitype/StillImage" />
        <dc:title />
      </cc:Work>
    </rdf:RDF>
  </metadata>
  <defs
     id="defs4075">
    <linearGradient
       gradientUnits="userSpaceOnUse"
       y2="15"
       x2="9.311203"
       y1="3"
       x1="9.1701241"
       id="linearGradient3684"
       xlink:href="#linearGradient3587-6-5-1" />
    <linearGradient
       gradientUnits="userSpaceOnUse"
       y2="20"
       x2="15"
       y1="8"
       x1="15"
       id="linearGradient3692"
       xlink:href="#linearGradient3587-6-5-1" />
    <linearGradient
       id="linearGradient3587-6-5-1">
      <stop
         id="stop3589-9-2-9"
         style="stop-color:#000000;stop-opacity:1"
         offset="0" />
      <stop
         id="stop3591-7-4-9"
         style="stop-color:#363636;stop-opacity:1"
         offset="1" />
    </linearGradient>
  </defs>
  <path
     id="path4348-1-7"
     d="M 7,4 2,9 5,9 5,16 9,16 9,9 12,9 7,4 z m 6,5 0,7 -3,0 5,5 5,-5 -3,0 0,-7 -4,0 z"
     style="opacity:0.6;fill:#ffffff;fill-opacity:1;fill-rule:nonzero;stroke:none;stroke-width:1;marker:none;visibility:visible;display:inline;overflow:visible;enable-background:accumulate" />
  <path
     style="opacity:0.7;fill:url(#linearGradient3692);fill-opacity:1;fill-rule:nonzero;stroke:none;stroke-width:1;marker:none;visibility:visible;display:inline;overflow:visible;enable-background:accumulate"
     id="path4348-1"
     d="m 20,15 -5,5 -5,-5 3,0 0,-7 4,0 0,7 3,0 z" />
  <path
     style="opacity:0.7;fill:url(#linearGradient3684);fill-opacity:1;fill-rule:nonzero;stroke:none;stroke-width:1;marker:none;visibility:visible;display:inline;overflow:visible;enable-background:accumulate"
     id="path4348-1-3"
     d="M 12,8 7,3 2,8 l 3,0 0,7 4,0 0,-7 3,0 z" />
</svg>
