<?xml version="1.0" encoding="UTF-8" standalone="no"?>
<!-- Created with Inkscape (http://www.inkscape.org/) -->

<svg
   xmlns:dc="http://purl.org/dc/elements/1.1/"
   xmlns:cc="http://creativecommons.org/ns#"
   xmlns:rdf="http://www.w3.org/1999/02/22-rdf-syntax-ns#"
   xmlns:svg="http://www.w3.org/2000/svg"
   xmlns="http://www.w3.org/2000/svg"
   xmlns:xlink="http://www.w3.org/1999/xlink"
   xmlns:sodipodi="http://sodipodi.sourceforge.net/DTD/sodipodi-0.dtd"
   xmlns:inkscape="http://www.inkscape.org/namespaces/inkscape"
   version="1.0"
   width="96"
   height="96"
   id="svg3486"
   inkscape:version="0.48+devel r"
   sodipodi:docname="applications-fonts.svg">
  <metadata
     id="metadata201560">
    <rdf:RDF>
      <cc:Work
         rdf:about="">
        <dc:format>image/svg+xml</dc:format>
        <dc:type
           rdf:resource="http://purl.org/dc/dcmitype/StillImage" />
        <dc:title />
      </cc:Work>
    </rdf:RDF>
  </metadata>
  <sodipodi:namedview
     pagecolor="#ffffff"
     bordercolor="#666666"
     borderopacity="1"
     objecttolerance="10"
     gridtolerance="10"
     guidetolerance="10"
     inkscape:pageopacity="0"
     inkscape:pageshadow="2"
     inkscape:window-width="1535"
     inkscape:window-height="876"
     id="namedview201558"
     showgrid="true"
     inkscape:zoom="5.2149125"
     inkscape:cx="56.176467"
     inkscape:cy="53.213844"
     inkscape:window-x="65"
     inkscape:window-y="24"
     inkscape:window-maximized="1"
     inkscape:current-layer="svg3486">
    <inkscape:grid
       type="xygrid"
       id="grid4152" />
  </sodipodi:namedview>
  <defs
     id="defs3488">
    <linearGradient
       id="linearGradient9936">
      <stop
         id="stop9938"
         style="stop-color:#575757;stop-opacity:1"
         offset="0" />
      <stop
         id="stop9940"
         style="stop-color:#333333;stop-opacity:1"
         offset="1" />
    </linearGradient>
    <linearGradient
       id="linearGradient2490">
      <stop
         id="stop2492"
         style="stop-color:#791235;stop-opacity:1"
         offset="0" />
      <stop
         id="stop2494"
         style="stop-color:#dd3b27;stop-opacity:1"
         offset="1" />
    </linearGradient>
    <linearGradient
       id="linearGradient3242">
      <stop
         id="stop3244"
         style="stop-color:#f8b17e;stop-opacity:1"
         offset="0" />
      <stop
         id="stop3246"
         style="stop-color:#e35d4f;stop-opacity:1"
         offset="0.31209752" />
      <stop
         id="stop3248"
         style="stop-color:#c6262e;stop-opacity:1"
         offset="0.57054454" />
      <stop
         id="stop3250"
         style="stop-color:#690b54;stop-opacity:1"
         offset="1" />
    </linearGradient>
    <linearGradient
       id="linearGradient3434">
      <stop
         id="stop3436"
         style="stop-color:#ffffff;stop-opacity:0"
         offset="0" />
      <stop
         id="stop3438"
         style="stop-color:#ffffff;stop-opacity:1"
         offset="1" />
    </linearGradient>
    <linearGradient
       id="linearGradient3463">
      <stop
         id="stop3465"
         style="stop-color:#000000;stop-opacity:1"
         offset="0" />
      <stop
         id="stop3467"
         style="stop-color:#000000;stop-opacity:0"
         offset="1" />
    </linearGradient>
    <linearGradient
       x1="15"
       y1="17"
       x2="15"
       y2="33.434338"
       id="linearGradient3260"
       xlink:href="#linearGradient3434"
       gradientUnits="userSpaceOnUse"
       gradientTransform="matrix(2.4743527,0,0,2.5051628,3.0177368,-25.48964)" />
    <linearGradient
       x1="14.498855"
       y1="44.178928"
       x2="14.498855"
       y2="15.875"
       id="linearGradient3263"
       xlink:href="#linearGradient3434"
       gradientUnits="userSpaceOnUse"
       gradientTransform="matrix(2.8429939,0,0,2.701068,-2.1248265,-30.702505)" />
    <linearGradient
       x1="22.05551"
       y1="15.833781"
       x2="22.05551"
       y2="45.49704"
       id="linearGradient3266"
       xlink:href="#linearGradient9936"
       gradientUnits="userSpaceOnUse"
       gradientTransform="matrix(2.5997927,0,0,2.6855815,-0.15188212,-32.235507)" />
    <radialGradient
       cx="-6.1603441"
       cy="36.686291"
       r="14.09771"
       fx="-6.1603441"
       fy="36.686291"
       id="radialGradient3272"
       xlink:href="#linearGradient3463"
       gradientUnits="userSpaceOnUse"
       gradientTransform="matrix(0.77870883,0,0,0.58891999,16.775117,63.990726)" />
    <radialGradient
       cx="-6.1603441"
       cy="36.686291"
       r="14.09771"
       fx="-6.1603441"
       fy="36.686291"
       id="radialGradient3275"
       xlink:href="#linearGradient3463"
       gradientUnits="userSpaceOnUse"
       gradientTransform="matrix(2.5485022,0,0,0.58191275,52.627675,64.346587)" />
    <radialGradient
       cx="-6.1603441"
       cy="36.686291"
       r="14.09771"
       fx="-6.1603441"
       fy="36.686291"
       id="radialGradient3278"
       xlink:href="#linearGradient3463"
       gradientUnits="userSpaceOnUse"
       gradientTransform="matrix(2.1237494,0,0,0.58891999,75.959081,63.990726)" />
    <linearGradient
       x1="143.91531"
       y1="75.220741"
       x2="143.91531"
       y2="103.12598"
       id="linearGradient3281"
       xlink:href="#linearGradient3242"
       gradientUnits="userSpaceOnUse"
       gradientTransform="matrix(3.012366,0,0,2.965281,-370.06059,-194.80043)" />
    <linearGradient
       x1="153.40933"
       y1="98.784538"
       x2="153.40933"
       y2="75.220741"
       id="linearGradient3283"
       xlink:href="#linearGradient2490"
       gradientUnits="userSpaceOnUse"
       gradientTransform="matrix(3.012366,0,0,2.965281,-370.06059,-194.80043)" />
    <radialGradient
       cx="-6.1603441"
       cy="36.686291"
       r="14.09771"
       fx="-6.1603441"
       fy="36.686291"
       id="radialGradient3286"
       xlink:href="#linearGradient3463"
       gradientUnits="userSpaceOnUse"
       gradientTransform="matrix(0.77870883,0,0,0.58891999,66.675159,63.990725)" />
    <linearGradient
       x1="153.40933"
       y1="98.784538"
       x2="153.40933"
       y2="75.220741"
       id="linearGradient3294"
       xlink:href="#linearGradient3434"
       gradientUnits="userSpaceOnUse"
       gradientTransform="matrix(3.1010364,0,0,3.0523254,-382.67,-202.57444)" />
  </defs>
  <path
     d="m 72.856078,85.596014 c 0.001,4.585919 -4.914216,8.303985 -10.978022,8.303985 -6.063813,0 -10.979145,-3.718066 -10.978002,-8.303985 -10e-4,-4.585913 4.914189,-8.303986 10.978002,-8.303986 6.063806,0 10.97915,3.718073 10.978022,8.303986 l 0,0 z"
     id="path3478"
     style="opacity:0.2;fill:url(#radialGradient3286);fill-opacity:1;fill-rule:evenodd;stroke:none;stroke-width:0.99999988;marker:none;visibility:visible;display:inline;overflow:visible;enable-background:accumulate"
     inkscape:connector-curvature="0" />
  <path
     d="m 87.738909,33.550421 c -1.468633,-3.366239 -5.052605,-3.013647 -7.511467,-3.548328 -8.140498,-0.947557 -16.267055,0.563642 -23.089777,5.200109 -6.585182,4.513551 -12.543914,10.62039 -16.72963,18.500951 -3.638237,7.019885 -5.271937,16.39803 -2.976542,25.331459 1.806629,6.013813 7.245197,9.728328 11.831971,8.726715 7.021812,-1.184773 12.025545,-7.77852 16.153306,-14.211213 1.866604,-2.652811 3.080972,-5.623724 5.216453,-8.395553 -0.313571,5.716914 -0.45398,11.654828 0.830273,17.460197 0.729926,3.423047 3.400094,6.121493 6.106205,5.996741 2.753139,-0.319622 4.848813,-2.73718 7.131087,-4.314962 2.052705,-1.839599 5.759969,-5.184047 5.857497,-6.081007 -0.250379,-4.405742 -4.143464,-1.639315 -5.502357,-0.127238 -2.645417,3.160233 -5.5889,0.89246 -4.884928,-3.494776 0.846306,-9.808514 2.506497,-18.230814 4.339112,-27.094752 1.030254,-4.67293 2.114735,-9.31862 3.228802,-13.948428 l -5e-6,0 z M 76.367012,39.417058 C 72.879674,50.56184 69.112506,61.904839 62.667404,70.545696 59.626596,74.487885 55.168215,78.062598 50.252386,76.16634 46.855273,74.64232 46.068227,69.631606 45.994712,65.862216 45.55629,54.731429 50.868442,45.512691 57.50953,39.951759 c 4.6292,-3.728343 10.612661,-5.415862 16.456845,-3.595135 1.103324,0.41563 2.300121,1.491482 2.400637,3.060434 z"
     id="text2400"
     style="font-size:55.90206146px;font-style:normal;font-variant:normal;font-weight:normal;font-stretch:normal;text-align:start;line-height:100%;writing-mode:lr-tb;text-anchor:start;fill:url(#linearGradient3281);fill-opacity:1;fill-rule:evenodd;stroke:url(#linearGradient3283);stroke-width:0.99999946;stroke-linecap:butt;stroke-linejoin:miter;stroke-miterlimit:4;stroke-opacity:1;stroke-dasharray:none;stroke-dashoffset:0;marker:none;visibility:visible;display:inline;overflow:visible;enable-background:accumulate;font-family:Gabrielle;-inkscape-font-specification:Gabrielle"
     inkscape:connector-curvature="0"
     sodipodi:nodetypes="ccccccccccccccccccccccccc" />
  <path
     d="M 92.816085,85.596022 C 92.819194,90.181934 79.413684,93.9 62.876056,93.9 c -16.537619,0 -29.943152,-3.718066 -29.940022,-8.303978 -0.0021,-4.58592 13.402403,-8.303993 29.940022,-8.303993 16.537628,0 29.943138,3.718073 29.940029,8.303993 l 0,0 z"
     id="path3461"
     style="opacity:0.2;fill:url(#radialGradient3278);fill-opacity:1;fill-rule:evenodd;stroke:none;stroke-width:0.99999988;marker:none;visibility:visible;display:inline;overflow:visible;enable-background:accumulate"
     inkscape:connector-curvature="0" />
  <path
     d="m 72.856069,85.694792 c 0.0025,4.531344 -16.082895,8.205196 -35.928041,8.205196 -19.845153,0 -35.93176146,-3.673852 -35.9280261,-8.205196 -0.003714,-4.531336 16.0828731,-8.205182 35.9280261,-8.205182 19.845146,0 35.931791,3.673846 35.928041,8.205182 l 0,0 z"
     id="path3482"
     style="opacity:0.05;fill:url(#radialGradient3275);fill-opacity:1;fill-rule:evenodd;stroke:none;stroke-width:0.99999988;marker:none;visibility:visible;display:inline;overflow:visible;enable-background:accumulate"
     inkscape:connector-curvature="0" />
  <path
     d="M 22.956009,85.596022 C 22.957161,90.181934 18.041819,93.9 11.978022,93.9 5.9142162,93.9 0.99885961,90.181934 1.0000002,85.596022 c -0.001135,-4.58592 4.914216,-8.303993 10.9780208,-8.303993 6.063798,0 10.97914,3.718073 10.977988,8.303993 l 0,0 z"
     id="path3474"
     style="opacity:0.2;fill:url(#radialGradient3272);fill-opacity:1;fill-rule:evenodd;stroke:none;stroke-width:0.99999988;marker:none;visibility:visible;display:inline;overflow:visible;enable-background:accumulate"
     inkscape:connector-curvature="0" />
  <path
     d="m 74.456364,30.801116 c -5.963221,0.239521 -11.702869,1.894504 -16.705411,5.293768 -6.596586,4.521023 -12.279234,9.991128 -16.45662,17.855391 -3.56863,6.885035 -5.156988,16.200649 -2.905293,24.963319 1.66073,5.527749 6.85788,8.415873 10.265352,8.019406 C 56.158995,85.718542 61.1336,78.168273 64.494,72.99421 c -2.49e-4,-0.01626 -2.49e-4,-0.0323 0,-0.04842 1.745988,-2.436692 3.627968,-5.995192 5.669,-8.83879 0.465341,-0.446697 0.554614,-0.764694 1.141,-0.497352 0.586383,0.267333 0.351559,0.865765 0.322,1.511134 -0.320767,5.847655 -0.396235,11.800157 0.872,17.532601 0.56447,2.987105 3.255414,5.319927 5.548067,4.905247 2.719939,-0.890594 4.366754,-2.946705 6.265715,-4.312398 2.04464,-1.807067 3.941611,-3.163189 5.200218,-5.20676 0.326571,-1.35122 -0.834034,-1.734387 -2.57555,-0.282461 -0.760826,0.638305 -1.643903,1.591789 -2.498453,2.287989 -0.546336,0.441419 -2.287298,0.675394 -3.166773,0.09395 -1.286382,-0.436348 -2.452803,-2.064825 -2.111165,-5.741888 0.715573,-9.710625 2.839075,-19.629642 4.551519,-27.87734 1.014019,-4.598938 1.902635,-8.395157 2.995469,-12.944779 -0.534108,-0.946097 -1.200532,-1.406658 -2.227391,-1.699834 -1.130912,-0.322878 -2.57687,-0.583675 -4.018977,-0.879564 -0.04861,-0.0037 -0.09638,0.0035 -0.14524,0 -1.96707,-0.221704 -3.918113,-0.272228 -5.858998,-0.194267 z m -5.196354,3.717038 c 1.622505,0.04409 3.284194,0.310157 4.93888,0.825631 0.01658,0.01586 0.03258,0.03195 0.04833,0.04843 1.627911,0.613182 3.03419,1.74848 3.18594,4.116926 0.0201,0.195598 -0.09744,0.393248 -0.14816,0.5828 -3.499501,10.914358 -6.592504,20.990762 -13.533,30.690859 2.53e-4,0.01623 2.53e-4,0.03231 0,0.0484 -1.652524,2.142213 -3.658562,4.005457 -6.097,5.3848 -2.44017,1.380323 -4.513096,2.067808 -7.425263,1.07997 -0.01621,2.45e-4 -0.03216,2.45e-4 -0.04834,0 C 47.88773,76.267066 46.693385,74.611893 45.971761,72.405341 45.250119,70.198784 44.994538,67.833469 44.954886,65.800252 44.482532,53.808862 50.47218,44.484506 57.650725,38.474 c 0.01621,-2.44e-4 0.03236,-2.44e-4 0.04855,0 3.931555,-2.552483 6.714554,-3.720667 11.560715,-3.956153 z"
     id="path3292"
     style="font-size:55.90206146px;font-style:normal;font-variant:normal;font-weight:normal;font-stretch:normal;text-align:start;line-height:100%;writing-mode:lr-tb;text-anchor:start;opacity:0.4;fill:none;stroke:url(#linearGradient3294);stroke-width:0.99999946;stroke-linecap:butt;stroke-linejoin:miter;stroke-miterlimit:4;stroke-opacity:1;stroke-dasharray:none;stroke-dashoffset:0;marker:none;visibility:visible;display:inline;overflow:visible;enable-background:accumulate;font-family:Gabrielle;-inkscape-font-specification:Gabrielle"
     inkscape:connector-curvature="0"
     sodipodi:nodetypes="ccccccccscccccccccccscccccccccccsccsccccc" />
  <path
     d="M 58.332899,88.615666 51,65.512989 l -29.151549,0 -7.539384,23.102677 -9.5461133,0 L 32.030316,11.615 l 8.632124,0 27.318131,77.000666 z M 48.08947,56.519676 36.371761,23.563381 24.65405,56.519676 Z"
     id="text2396"
     style="font-size:40px;font-style:normal;font-variant:normal;font-weight:normal;font-stretch:normal;fill:url(#linearGradient3266);fill-opacity:1;stroke:#333333;stroke-width:0.99999946px;stroke-linecap:butt;stroke-linejoin:miter;stroke-opacity:1;font-family:Droid Sans;-inkscape-font-specification:Sans"
     inkscape:connector-curvature="0"
     sodipodi:nodetypes="ccccccccccccc" />
  <path
     d="M 66.473,87.482727 39.899,12.54874 32.806778,12.650011 6.2063714,87.833229"
     id="path3422"
     style="font-size:40px;font-style:normal;font-variant:normal;font-weight:normal;font-stretch:normal;opacity:0.3;fill:none;stroke:url(#linearGradient3263);stroke-width:0.99999952px;stroke-linecap:butt;stroke-linejoin:miter;stroke-opacity:1;font-family:Droid Sans;-inkscape-font-specification:Sans"
     inkscape:connector-curvature="0"
     sodipodi:nodetypes="cccc" />
  <path
     d="M 36.39,20.462895 49.489,57.5 l -26.235021,0 z"
     id="path3447"
     style="opacity:0.2;fill:none;stroke:url(#linearGradient3260);stroke-width:0.99999911px;stroke-linecap:butt;stroke-linejoin:round;stroke-opacity:1"
     inkscape:connector-curvature="0"
     sodipodi:nodetypes="cccc" />
</svg>
