<?xml version="1.0" encoding="UTF-8" standalone="no"?>
<svg
   version="1.0"
   width="96"
   height="96"
   id="svg2527"
   sodipodi:docname="preferences-system.svg"
   inkscape:version="1.2.2 (b0a8486541, 2022-12-01)"
   xmlns:inkscape="http://www.inkscape.org/namespaces/inkscape"
   xmlns:sodipodi="http://sodipodi.sourceforge.net/DTD/sodipodi-0.dtd"
   xmlns:xlink="http://www.w3.org/1999/xlink"
   xmlns="http://www.w3.org/2000/svg"
   xmlns:svg="http://www.w3.org/2000/svg"
   xmlns:rdf="http://www.w3.org/1999/02/22-rdf-syntax-ns#"
   xmlns:cc="http://creativecommons.org/ns#"
   xmlns:dc="http://purl.org/dc/elements/1.1/">
  <sodipodi:namedview
     id="namedview24294"
     pagecolor="#ffffff"
     bordercolor="#666666"
     borderopacity="1.0"
     inkscape:showpageshadow="2"
     inkscape:pageopacity="0.0"
     inkscape:pagecheckerboard="0"
     inkscape:deskcolor="#d1d1d1"
     showgrid="false"
     inkscape:zoom="13.906433"
     inkscape:cx="52.529646"
     inkscape:cy="27.828847"
     inkscape:window-width="1326"
     inkscape:window-height="724"
     inkscape:window-x="493"
     inkscape:window-y="386"
     inkscape:window-maximized="0"
     inkscape:current-layer="layer1" />
  <metadata
     id="metadata737">
    <rdf:RDF>
      <cc:Work
         rdf:about="">
        <dc:format>image/svg+xml</dc:format>
        <dc:type
           rdf:resource="http://purl.org/dc/dcmitype/StillImage" />
      </cc:Work>
    </rdf:RDF>
  </metadata>
  <defs
     id="defs2529">
    <linearGradient
       id="linearGradient8838">
      <stop
         id="stop8840"
         style="stop-color:#000000;stop-opacity:1"
         offset="0" />
      <stop
         id="stop8842"
         style="stop-color:#000000;stop-opacity:0"
         offset="1" />
    </linearGradient>
    <radialGradient
       cx="62.625"
       cy="4.625"
       r="10.625"
       fx="62.625"
       fy="4.625"
       id="radialGradient2436"
       xlink:href="#linearGradient8838"
       gradientUnits="userSpaceOnUse"
       gradientTransform="matrix(3.952941,0,0,1.3176453,-199.55294,73.905882)" />
    <linearGradient
       id="linearGradient3397">
      <stop
         id="stop3399"
         style="stop-color:#000000;stop-opacity:0.31999999;"
         offset="0" />
      <stop
         id="stop3401"
         style="stop-color:#000000;stop-opacity:0.34;"
         offset="1" />
    </linearGradient>
    <linearGradient
       x1="37.201294"
       y1="1"
       x2="37.201294"
       y2="45"
       id="linearGradient2517"
       xlink:href="#linearGradient3397"
       gradientUnits="userSpaceOnUse"
       gradientTransform="matrix(2.0232558,0,0,2.0232558,-0.5581375,1.4651183)" />
    <linearGradient
       x1="63.9995"
       y1="3.1001"
       x2="63.9995"
       y2="122.8994"
       id="linearGradient3309"
       gradientUnits="userSpaceOnUse">
      <stop
         id="stop3311"
         style="stop-color:#f6f6f6;stop-opacity:1"
         offset="0" />
      <stop
         id="stop3313"
         style="stop-color:#d2d2d2;stop-opacity:1"
         offset="1" />
    </linearGradient>
    <linearGradient
       x1="20.758585"
       y1="1"
       x2="20.758585"
       y2="45.017357"
       id="linearGradient2515"
       xlink:href="#linearGradient3309"
       gradientUnits="userSpaceOnUse"
       gradientTransform="matrix(2.0232558,0,0,2.0232558,-0.5581375,1.4651183)" />
    <linearGradient
       id="linearGradient5128">
      <stop
         id="stop5130"
         style="stop-color:#fafafa;stop-opacity:1;"
         offset="0" />
      <stop
         id="stop5132"
         style="stop-color:#a8a8a8;stop-opacity:1;"
         offset="1" />
    </linearGradient>
    <linearGradient
       x1="86.132919"
       y1="105.105"
       x2="84.63858"
       y2="20.895"
       id="linearGradient2512"
       xlink:href="#linearGradient5128"
       gradientUnits="userSpaceOnUse"
       gradientTransform="matrix(0.6369428,0,0,0.6369428,7.2356696,7.8726118)" />
  </defs>
  <g
     id="layer1">
    <path
       d="M 90,80 C 90,87.731986 71.195958,94 48,94 24.804042,94 5.9999999,87.731986 5.9999999,80 5.9999999,72.268014 24.804042,66 48,66 c 23.195958,0 42,6.268014 42,14 z"
       id="path8836"
       style="display:inline;overflow:visible;visibility:visible;opacity:0.3;fill:url(#radialGradient2436);fill-opacity:1;fill-rule:evenodd;stroke:none;stroke-width:0.999994;stroke-linecap:butt;stroke-linejoin:round;stroke-miterlimit:4;stroke-dasharray:none;stroke-dashoffset:0;stroke-opacity:1;marker:none;marker-start:none;marker-mid:none;marker-end:none" />
    <path
       id="rect3267"
       style="display:block;overflow:visible;visibility:visible;fill:url(#linearGradient2515);fill-opacity:1;fill-rule:nonzero;stroke:url(#linearGradient2517);stroke-width:1;stroke-linecap:butt;stroke-linejoin:round;stroke-miterlimit:4;stroke-dasharray:none;stroke-dashoffset:0;stroke-opacity:1;marker:none;marker-start:none;marker-mid:none;marker-end:none;enable-background:accumulate"
       d="M 41.994141 4.5 C 40.282206 4.5 38.894531 5.9209128 38.894531 7.6621094 L 38.894531 13.794922 C 35.833468 14.610506 32.90855 15.842022 30.232422 17.398438 L 25.871094 13.035156 C 25.255486 12.419551 24.517352 12.094642 23.720703 12.087891 C 22.924054 12.081091 22.113073 12.367396 21.507812 12.972656 L 12.972656 21.507812 C 11.762135 22.718332 11.80394 24.63988 13.035156 25.871094 L 17.398438 30.232422 C 15.842022 32.90855 14.610506 35.833468 13.794922 38.894531 L 7.6621094 38.894531 C 5.9209124 38.894531 4.5 40.282204 4.5 41.994141 L 4.5 54.005859 C 4.5 55.717795 5.920913 57.105469 7.6621094 57.105469 L 13.794922 57.105469 C 14.610506 60.166531 15.842022 63.09145 17.398438 65.767578 L 13.035156 70.128906 C 11.803944 71.360118 11.762139 73.281666 12.972656 74.492188 L 21.507812 83.027344 C 22.718332 84.237864 24.63988 84.196055 25.871094 82.964844 L 30.232422 78.601562 C 32.90855 80.157978 35.833468 81.389494 38.894531 82.205078 L 38.894531 88.337891 C 38.894531 90.079087 40.282204 91.5 41.994141 91.5 L 54.005859 91.5 C 55.717795 91.5 57.105469 90.079087 57.105469 88.337891 L 57.105469 82.205078 C 60.166531 81.389494 63.09145 80.157978 65.767578 78.601562 L 70.128906 82.964844 C 71.360118 84.196056 73.281668 84.237863 74.492188 83.027344 L 83.027344 74.492188 C 84.237864 73.281668 84.196059 71.360118 82.964844 70.128906 L 78.601562 65.767578 C 80.157978 63.09145 81.389494 60.166531 82.205078 57.105469 L 88.337891 57.105469 C 90.079087 57.105469 91.5 55.717797 91.5 54.005859 L 91.5 41.994141 C 91.5 40.282206 90.079087 38.894531 88.337891 38.894531 L 82.205078 38.894531 C 81.389494 35.833468 80.157978 32.90855 78.601562 30.232422 L 82.964844 25.871094 C 84.196056 24.639883 84.237863 22.718332 83.027344 21.507812 L 74.492188 12.972656 C 73.281668 11.762135 71.360116 11.80394 70.128906 13.035156 L 65.767578 17.398438 C 63.09145 15.842018 60.166531 14.610506 57.105469 13.794922 L 57.105469 7.6621094 C 57.105469 5.9209124 55.717797 4.5 54.005859 4.5 L 41.994141 4.5 z M 48 34.5 A 13.5 13.5 0 0 1 61.5 48 A 13.5 13.5 0 0 1 48 61.5 A 13.5 13.5 0 0 1 34.5 48 A 13.5 13.5 0 0 1 48 34.5 z " />
    <path
       id="path3315"
       style="opacity:0.05;fill:#000000;fill-opacity:1;stroke:none;stroke-width:0.999566;stroke-miterlimit:4;stroke-dasharray:none"
       d="M 48 22 C 33.663386 21.999999 22 33.663388 22 48 C 22 62.336612 33.663386 74 48 74 C 62.33661 73.999998 74 62.336612 74 48 C 74 33.663388 62.33661 22 48 22 z M 48 34 A 14 14 0 0 1 62 48 A 14 14 0 0 1 48 62 A 14 14 0 0 1 34 48 A 14 14 0 0 1 48 34 z " />
    <path
       d="M 48,21.5 C 33.387897,21.5 21.5,33.387898 21.5,48 21.5,62.6121 33.387897,74.5 48,74.5 62.612102,74.5 74.5,62.6121 74.5,48 74.5,33.387898 62.612102,21.5 48,21.5 Z"
       id="path28"
       style="fill:none;stroke:url(#linearGradient2512);stroke-width:1;stroke-miterlimit:4;stroke-dasharray:none" />
  </g>
</svg>
