<?xml version="1.0" encoding="UTF-8" standalone="no"?>
<svg
   version="1.1"
   width="96"
   height="96"
   id="svg2963"
   sodipodi:docname="preferences-other.svg"
   inkscape:version="1.2.2 (b0a8486541, 2022-12-01)"
   xmlns:inkscape="http://www.inkscape.org/namespaces/inkscape"
   xmlns:sodipodi="http://sodipodi.sourceforge.net/DTD/sodipodi-0.dtd"
   xmlns:xlink="http://www.w3.org/1999/xlink"
   xmlns="http://www.w3.org/2000/svg"
   xmlns:svg="http://www.w3.org/2000/svg"
   xmlns:rdf="http://www.w3.org/1999/02/22-rdf-syntax-ns#"
   xmlns:cc="http://creativecommons.org/ns#"
   xmlns:dc="http://purl.org/dc/elements/1.1/">
  <sodipodi:namedview
     id="namedview14197"
     pagecolor="#ffffff"
     bordercolor="#000000"
     borderopacity="0.25"
     inkscape:showpageshadow="2"
     inkscape:pageopacity="0.0"
     inkscape:pagecheckerboard="0"
     inkscape:deskcolor="#d1d1d1"
     showgrid="false"
     inkscape:zoom="4.0000002"
     inkscape:cx="23.624999"
     inkscape:cy="104.24999"
     inkscape:window-width="1278"
     inkscape:window-height="1005"
     inkscape:window-x="877"
     inkscape:window-y="150"
     inkscape:window-maximized="0"
     inkscape:current-layer="svg2963" />
  <metadata
     id="metadata199067">
    <rdf:RDF>
      <cc:Work
         rdf:about="">
        <dc:format>image/svg+xml</dc:format>
        <dc:type
           rdf:resource="http://purl.org/dc/dcmitype/StillImage" />
      </cc:Work>
    </rdf:RDF>
  </metadata>
  <defs
     id="defs3">
    <linearGradient
       id="linearGradient46870">
      <stop
         id="stop46866"
         style="stop-color:#000000;stop-opacity:0.30000001;"
         offset="0" />
      <stop
         id="stop46868"
         style="stop-color:#000000;stop-opacity:0.5;"
         offset="1" />
    </linearGradient>
    <linearGradient
       inkscape:collect="always"
       id="linearGradient37380">
      <stop
         style="stop-color:#8a715e;stop-opacity:1"
         offset="0"
         id="stop37376" />
      <stop
         style="stop-color:#57392d;stop-opacity:1"
         offset="1"
         id="stop37378" />
    </linearGradient>
    <linearGradient
       id="linearGradient25955">
      <stop
         id="stop25951"
         style="stop-color:#000000;stop-opacity:0.40000001;"
         offset="0" />
      <stop
         id="stop25953"
         style="stop-color:#000000;stop-opacity:0.55494499;"
         offset="1" />
    </linearGradient>
    <linearGradient
       id="linearGradient3728">
      <stop
         id="stop3730"
         style="stop-color:black;stop-opacity:1"
         offset="0" />
      <stop
         id="stop3732"
         style="stop-color:black;stop-opacity:0"
         offset="1" />
    </linearGradient>
    <linearGradient
       id="linearGradient3251">
      <stop
         id="stop3253"
         style="stop-color:#695437;stop-opacity:1"
         offset="0" />
      <stop
         id="stop3255"
         style="stop-color:#695337;stop-opacity:0"
         offset="1" />
    </linearGradient>
    <linearGradient
       id="linearGradient3243">
      <stop
         id="stop3245"
         style="stop-color:black;stop-opacity:1"
         offset="0" />
      <stop
         id="stop3247"
         style="stop-color:black;stop-opacity:0"
         offset="1" />
    </linearGradient>
    <linearGradient
       id="linearGradient3275">
      <stop
         id="stop3277"
         style="stop-color:white;stop-opacity:0"
         offset="0" />
      <stop
         id="stop3283"
         style="stop-color:white;stop-opacity:1"
         offset="0.245" />
      <stop
         id="stop3285"
         style="stop-color:white;stop-opacity:1"
         offset="0.77350003" />
      <stop
         id="stop3279"
         style="stop-color:white;stop-opacity:0"
         offset="1" />
    </linearGradient>
    <linearGradient
       x1="11.12416"
       y1="21.5625"
       x2="13.168094"
       y2="21.5625"
       id="linearGradient3313"
       xlink:href="#linearGradient3251"
       gradientUnits="userSpaceOnUse"
       gradientTransform="matrix(-2.4918458,0,0,-2,100.7381,92.000632)" />
    <linearGradient
       x1="10.74916"
       y1="21.5"
       x2="12.109532"
       y2="21.5"
       id="linearGradient3325"
       xlink:href="#linearGradient3251"
       gradientUnits="userSpaceOnUse"
       gradientTransform="matrix(2.4615384,0,0,-2,-6.4615382,92.000632)" />
    <linearGradient
       x1="22.1875"
       y1="20"
       x2="22.1875"
       y2="24.079771"
       id="linearGradient3328"
       xlink:href="#linearGradient3251"
       gradientUnits="userSpaceOnUse"
       gradientTransform="matrix(2.0827886,0,0,2,-0.7554464,-3.999366)" />
    <linearGradient
       x1="44.994774"
       y1="17.5"
       x2="3.0052247"
       y2="17.5"
       id="linearGradient3359"
       xlink:href="#linearGradient3275"
       gradientUnits="userSpaceOnUse"
       gradientTransform="matrix(1.5369713,0,0,1.9571175,11.112691,13.250442)"
       spreadMethod="reflect" />
    <linearGradient
       x1="20.78125"
       y1="24.59375"
       x2="20.8125"
       y2="23.53125"
       id="linearGradient4137"
       xlink:href="#linearGradient3243"
       gradientUnits="userSpaceOnUse"
       gradientTransform="matrix(2.2222075,0,0,2.199995,-5.1809619,-8.3992432)" />
    <linearGradient
       id="linearGradient7381">
      <stop
         id="stop7383"
         style="stop-color:#babdb6;stop-opacity:1"
         offset="0" />
      <stop
         id="stop7385"
         style="stop-color:white;stop-opacity:1"
         offset="1" />
    </linearGradient>
    <linearGradient
       id="linearGradient7444">
      <stop
         id="stop7446"
         style="stop-color:#000000;stop-opacity:0.15868422;"
         offset="0" />
      <stop
         id="stop7448"
         style="stop-color:#000000;stop-opacity:0.58654529;"
         offset="1" />
    </linearGradient>
    <linearGradient
       id="linearGradient5443">
      <stop
         id="stop5445"
         style="stop-color:white;stop-opacity:1"
         offset="0" />
      <stop
         id="stop5447"
         style="stop-color:white;stop-opacity:0"
         offset="1" />
    </linearGradient>
    <linearGradient
       id="linearGradient6221">
      <stop
         id="stop6223"
         style="stop-color:black;stop-opacity:1"
         offset="0" />
      <stop
         id="stop6225"
         style="stop-color:black;stop-opacity:0"
         offset="1" />
    </linearGradient>
    <linearGradient
       id="linearGradient4099">
      <stop
         id="stop4101"
         style="stop-color:#ffe16b;stop-opacity:1"
         offset="0" />
      <stop
         id="stop4103"
         style="stop-color:#ffa154;stop-opacity:1"
         offset="1" />
    </linearGradient>
    <linearGradient
       id="linearGradient4434-3">
      <stop
         id="stop4436-3"
         style="stop-color:#d3d7cf;stop-opacity:1"
         offset="0" />
      <stop
         id="stop4438-8"
         style="stop-color:#babdb6;stop-opacity:1"
         offset="0.18303643" />
      <stop
         id="stop4440-0"
         style="stop-color:white;stop-opacity:1"
         offset="0.31893486" />
      <stop
         id="stop4442-5"
         style="stop-color:#babdb6;stop-opacity:1"
         offset="0.87643671" />
      <stop
         id="stop4444-6"
         style="stop-color:#eeeeec;stop-opacity:1"
         offset="1" />
    </linearGradient>
    <linearGradient
       id="linearGradient7381-5">
      <stop
         id="stop7383-0"
         style="stop-color:#babdb6;stop-opacity:1"
         offset="0" />
      <stop
         id="stop7385-6"
         style="stop-color:white;stop-opacity:1"
         offset="1" />
    </linearGradient>
    <linearGradient
       x1="309.29663"
       y1="67.297691"
       x2="335.30014"
       y2="81.926315"
       id="linearGradient3957"
       xlink:href="#linearGradient4434-3"
       gradientUnits="userSpaceOnUse"
       gradientTransform="matrix(0.7811541,-0.03481362,-0.03481362,0.7811541,70.230423,94.3198)" />
    <linearGradient
       x1="324.49731"
       y1="70.282364"
       x2="330.06076"
       y2="99.273735"
       id="linearGradient3959"
       xlink:href="#linearGradient25955"
       gradientUnits="userSpaceOnUse"
       gradientTransform="matrix(0.7811541,-0.03481362,-0.03481362,0.7811541,70.230423,94.3198)" />
    <linearGradient
       x1="302.29202"
       y1="58.442768"
       x2="308.64914"
       y2="60.767513"
       id="linearGradient3961"
       xlink:href="#linearGradient7381-5"
       gradientUnits="userSpaceOnUse"
       gradientTransform="matrix(0.801996,0,0,0.7960034,64.663101,85.58771)" />
    <linearGradient
       x1="25.571766"
       y1="20.761639"
       x2="27.367689"
       y2="22.476452"
       id="linearGradient4035"
       xlink:href="#linearGradient7381"
       gradientUnits="userSpaceOnUse"
       gradientTransform="matrix(-0.46343851,0,0,-0.46059429,50.010859,85.627057)" />
    <linearGradient
       x1="21.0336"
       y1="40.022591"
       x2="16.081312"
       y2="36.196503"
       id="linearGradient4037"
       xlink:href="#linearGradient46870"
       gradientUnits="userSpaceOnUse"
       gradientTransform="matrix(0.4654252,0,0,0.4646018,27.381243,59.08948)" />
    <linearGradient
       x1="54.765163"
       y1="1.0000008"
       x2="54.72097"
       y2="12.584867"
       id="linearGradient4039"
       xlink:href="#linearGradient5443"
       gradientUnits="userSpaceOnUse"
       gradientTransform="matrix(-0.43041354,-0.42144933,0.43041354,-0.42144933,55.060097,105.38208)" />
    <linearGradient
       x1="-2.1966379"
       y1="40.971893"
       x2="-10.565685"
       y2="40.94883"
       id="linearGradient4050"
       xlink:href="#linearGradient4099"
       gradientUnits="userSpaceOnUse"
       gradientTransform="matrix(0.41529341,-1.4734614e-8,0,0.82758436,-55.62256,-71.036703)" />
    <radialGradient
       cx="-39.458145"
       cy="11.839552"
       r="3.9059753"
       fx="-39.458145"
       fy="11.839552"
       id="radialGradient4054"
       xlink:href="#linearGradient5443"
       gradientUnits="userSpaceOnUse"
       gradientTransform="matrix(1.1258607,-0.07883222,0.13721582,2.8820624,-15.061068,-79.673432)" />
    <linearGradient
       x1="25.571766"
       y1="20.761639"
       x2="27.367689"
       y2="22.476452"
       id="linearGradient4056"
       xlink:href="#linearGradient7381"
       gradientUnits="userSpaceOnUse"
       gradientTransform="matrix(-0.46343851,0,0,-0.46059429,20.010859,85.627057)" />
    <linearGradient
       x1="22.375778"
       y1="35.624268"
       x2="32.447292"
       y2="24.412022"
       id="linearGradient4058"
       xlink:href="#linearGradient7444"
       gradientUnits="userSpaceOnUse"
       gradientTransform="matrix(0.4654252,0,0,0.4646018,-2.6187572,59.08948)" />
    <linearGradient
       x1="-10.939023"
       y1="36.91201"
       x2="-6.9301171"
       y2="36.891792"
       id="linearGradient4060"
       xlink:href="#linearGradient6221"
       gradientUnits="userSpaceOnUse"
       gradientTransform="matrix(0.30905652,0,0,0.74741966,-54.972623,-66.073017)" />
    <linearGradient
       x1="-7.0973897"
       y1="40.323612"
       x2="-10.179404"
       y2="40.309151"
       id="linearGradient4062"
       xlink:href="#linearGradient6221"
       gradientUnits="userSpaceOnUse"
       gradientTransform="matrix(0.25867032,0,0,0.72764303,60.952432,7.2757712)" />
    <linearGradient
       x1="58.548462"
       y1="37.501415"
       x2="56.446907"
       y2="37.585964"
       id="linearGradient4064"
       xlink:href="#linearGradient5443"
       gradientUnits="userSpaceOnUse"
       gradientTransform="matrix(0.53122286,0,0,1.1011764,-90.250833,-77.708542)" />
    <linearGradient
       x1="54.765163"
       y1="1.0000008"
       x2="54.72097"
       y2="12.584867"
       id="linearGradient4066"
       xlink:href="#linearGradient5443"
       gradientUnits="userSpaceOnUse"
       gradientTransform="matrix(-0.43041354,-0.42144933,0.43041354,-0.42144933,25.060097,105.38208)" />
    <linearGradient
       x1="34"
       y1="1"
       x2="34"
       y2="23.00024"
       id="linearGradient3218"
       xlink:href="#linearGradient3309"
       gradientUnits="userSpaceOnUse"
       gradientTransform="translate(-24.5,-3.4273392e-4)" />
    <linearGradient
       x1="63.9995"
       y1="3.1001"
       x2="63.9995"
       y2="122.8994"
       id="linearGradient3309"
       gradientUnits="userSpaceOnUse">
      <stop
         id="stop3311"
         style="stop-color:#f6f6f6;stop-opacity:1"
         offset="0" />
      <stop
         id="stop3313"
         style="stop-color:#d2d2d2;stop-opacity:1"
         offset="1" />
    </linearGradient>
    <linearGradient
       x1="40"
       y1="1"
       x2="40"
       y2="23.019524"
       id="linearGradient3228"
       xlink:href="#linearGradient3397"
       gradientUnits="userSpaceOnUse"
       gradientTransform="translate(-24.5,-3.4273392e-4)" />
    <linearGradient
       id="linearGradient3397">
      <stop
         id="stop3399"
         style="stop-color:#000000;stop-opacity:0.40000001;"
         offset="0" />
      <stop
         id="stop3401"
         style="stop-color:#000000;stop-opacity:0.40000001;"
         offset="1" />
    </linearGradient>
    <linearGradient
       x1="86.132919"
       y1="105.105"
       x2="84.63858"
       y2="20.895"
       id="linearGradient3241"
       xlink:href="#linearGradient5128"
       gradientUnits="userSpaceOnUse"
       gradientTransform="matrix(0.14883576,0,0,0.14883576,2.4745167,2.892241)" />
    <linearGradient
       id="linearGradient5128">
      <stop
         id="stop5130"
         style="stop-color:#eee;stop-opacity:1"
         offset="0" />
      <stop
         id="stop5132"
         style="stop-color:#a2a2a2;stop-opacity:1"
         offset="1" />
    </linearGradient>
    <radialGradient
       cx="17"
       cy="16"
       r="2"
       fx="17"
       fy="16"
       id="radialGradient3744"
       xlink:href="#linearGradient3728"
       gradientUnits="userSpaceOnUse"
       gradientTransform="matrix(3.870463,0,0,3.8610102,-38.230736,-20.462312)" />
    <linearGradient
       x1="15.464298"
       y1="7.9756851"
       x2="15.464298"
       y2="45.04248"
       id="linearGradient3803"
       xlink:href="#linearGradient5443"
       gradientUnits="userSpaceOnUse"
       gradientTransform="matrix(1.983353,0,0,0.72177945,-6.7591836,27.38515)" />
    <linearGradient
       id="linearGradient106305">
      <stop
         offset="0"
         stop-color="#dac197"
         id="stop106301"
         style="stop-color:#e7c591;stop-opacity:1" />
      <stop
         offset="1"
         stop-color="#b19974"
         id="stop106303"
         style="stop-color:#cfa25e;stop-opacity:1" />
    </linearGradient>
    <linearGradient
       xlink:href="#linearGradient3924-2-2-5-8"
       id="linearGradient121760"
       gradientUnits="userSpaceOnUse"
       gradientTransform="matrix(1.8648657,0,0,1.1081081,3.2432229,41.405398)"
       x1="23.99999"
       y1="6.0445275"
       x2="23.99999"
       y2="41.763222" />
    <linearGradient
       id="linearGradient3924-2-2-5-8">
      <stop
         id="stop3926-9-4-9-6"
         style="stop-color:#ffffff;stop-opacity:1"
         offset="0" />
      <stop
         id="stop3928-9-8-6-5"
         style="stop-color:#ffffff;stop-opacity:0.23529412"
         offset="0.09302325" />
      <stop
         id="stop3930-3-5-1-7"
         style="stop-color:#ffffff;stop-opacity:0.15686275"
         offset="0.9069767" />
      <stop
         id="stop3932-8-0-4-8"
         style="stop-color:#ffffff;stop-opacity:0.39215687"
         offset="1" />
    </linearGradient>
    <linearGradient
       xlink:href="#linearGradient106305"
       id="linearGradient121756-2"
       gradientUnits="userSpaceOnUse"
       gradientTransform="matrix(2.5110164,0,0,2.6407416,81.678465,-30.677492)"
       x1="-5.8870335"
       y1="19.341915"
       x2="-5.8870335"
       y2="45.456219" />
    <linearGradient
       inkscape:collect="always"
       xlink:href="#linearGradient37380"
       id="linearGradient37382"
       x1="24.249481"
       y1="18.204994"
       x2="24.249481"
       y2="24.500301"
       gradientUnits="userSpaceOnUse"
       gradientTransform="matrix(2,0,0,2.5,-1.9073486e-6,-14.499998)" />
    <radialGradient
       inkscape:collect="always"
       xlink:href="#linearGradient3728"
       id="radialGradient44777"
       gradientUnits="userSpaceOnUse"
       gradientTransform="matrix(3.0181376,0,0,3.3627555,20.034809,-8.6347575)"
       cx="17"
       cy="16"
       fx="17"
       fy="16"
       r="2" />
    <linearGradient
       id="linearGradient3688-166-749">
      <stop
         id="stop2883"
         style="stop-color:#181818;stop-opacity:1"
         offset="0" />
      <stop
         id="stop2885"
         style="stop-color:#181818;stop-opacity:0"
         offset="1" />
    </linearGradient>
    <linearGradient
       id="linearGradient3702-501-757">
      <stop
         id="stop2895"
         style="stop-color:#181818;stop-opacity:0"
         offset="0" />
      <stop
         id="stop2897"
         style="stop-color:#181818;stop-opacity:1"
         offset="0.5" />
      <stop
         id="stop2899"
         style="stop-color:#181818;stop-opacity:0"
         offset="1" />
    </linearGradient>
    <linearGradient
       inkscape:collect="always"
       xlink:href="#linearGradient5443"
       id="linearGradient25547"
       gradientUnits="userSpaceOnUse"
       gradientTransform="matrix(1.6835774,0,0,20.320114,6.5615494,-165.89312)"
       x1="15.464298"
       y1="7.9756851"
       x2="15.464298"
       y2="45.04248" />
    <linearGradient
       inkscape:collect="always"
       xlink:href="#linearGradient5443"
       id="linearGradient25737"
       gradientUnits="userSpaceOnUse"
       gradientTransform="matrix(1.98405,0,0,1.5686445,5.1685914,19.030242)"
       x1="15.464298"
       y1="7.9756851"
       x2="15.464298"
       y2="45.04248" />
    <linearGradient
       inkscape:collect="always"
       xlink:href="#linearGradient106305"
       id="linearGradient27092"
       gradientUnits="userSpaceOnUse"
       gradientTransform="matrix(2.4741197,0,0,2.6407416,81.183594,-30.677491)"
       x1="-5.8870335"
       y1="19.341915"
       x2="-5.8870335"
       y2="45.456219" />
    <radialGradient
       cx="4.9929786"
       cy="43.5"
       r="2.5"
       fx="4.9929786"
       fy="43.5"
       id="radialGradient3013-6-5-76-7"
       xlink:href="#linearGradient3688-166-749"
       gradientUnits="userSpaceOnUse"
       gradientTransform="matrix(4.007568,0,0,1.7999999,56.976261,9.7000062)" />
    <radialGradient
       cx="4.9929786"
       cy="43.5"
       r="2.5"
       fx="4.9929786"
       fy="43.5"
       id="radialGradient3015-1-6-9-0"
       xlink:href="#linearGradient3688-166-749"
       gradientUnits="userSpaceOnUse"
       gradientTransform="matrix(4.007568,0,0,1.7999999,-39.023741,-166.30001)" />
    <linearGradient
       xlink:href="#linearGradient3702-501-757"
       id="linearGradient1191-2"
       gradientUnits="userSpaceOnUse"
       x1="25.058096"
       y1="47.027729"
       x2="25.058096"
       y2="39.999443"
       gradientTransform="matrix(2.0714285,0,0,1.2857142,-1.7142805,32.071432)" />
    <linearGradient
       inkscape:collect="always"
       xlink:href="#linearGradient6221"
       id="linearGradient35079"
       gradientUnits="userSpaceOnUse"
       gradientTransform="matrix(0.25867032,0,0,0.72764303,62.465453,7.3146919)"
       x1="-7.0973897"
       y1="40.323612"
       x2="-10.179404"
       y2="40.309151" />
    <linearGradient
       inkscape:collect="always"
       xlink:href="#linearGradient3243"
       id="linearGradient39549"
       gradientUnits="userSpaceOnUse"
       gradientTransform="matrix(2.0806166,0,0,2.199995,-1.8052447,-7.3992432)"
       x1="20.78125"
       y1="24.59375"
       x2="20.8125"
       y2="23.53125" />
    <linearGradient
       id="linearGradient59435">
      <stop
         id="stop59431"
         style="stop-color:#000000;stop-opacity:0.34999999;"
         offset="0" />
      <stop
         id="stop59433"
         style="stop-color:#000000;stop-opacity:0.30000001;"
         offset="1" />
    </linearGradient>
    <linearGradient
       id="linearGradient7444-0">
      <stop
         id="stop7446-5"
         style="stop-color:#000000;stop-opacity:0.40000001;"
         offset="0" />
      <stop
         id="stop7448-2"
         style="stop-color:#000000;stop-opacity:0.30000001;"
         offset="1" />
    </linearGradient>
    <linearGradient
       id="linearGradient7421-7">
      <stop
         id="stop7423-9"
         style="stop-color:#ffffff;stop-opacity:0.89999998;"
         offset="0" />
      <stop
         id="stop7425-8"
         style="stop-color:white;stop-opacity:0"
         offset="1" />
    </linearGradient>
    <linearGradient
       x1="304.76227"
       y1="64.295265"
       x2="335.30014"
       y2="81.926315"
       id="linearGradient4633-9"
       xlink:href="#linearGradient4434-3"
       gradientUnits="userSpaceOnUse"
       gradientTransform="translate(55.750001,906.7774)" />
    <linearGradient
       x1="324.49731"
       y1="70.282364"
       x2="330.06076"
       y2="99.273735"
       id="linearGradient4635-6"
       xlink:href="#linearGradient7444-0"
       gradientUnits="userSpaceOnUse"
       gradientTransform="translate(55.750001,906.7774)" />
    <linearGradient
       x1="302.29202"
       y1="58.442768"
       x2="308.64914"
       y2="60.767513"
       id="linearGradient4637-7"
       xlink:href="#linearGradient7381"
       gradientUnits="userSpaceOnUse"
       gradientTransform="translate(55.750001,906.7774)" />
    <linearGradient
       x1="326.60196"
       y1="75.575363"
       x2="317.16116"
       y2="88.006248"
       id="linearGradient4639-0"
       xlink:href="#linearGradient7421-7"
       gradientUnits="userSpaceOnUse"
       gradientTransform="matrix(1.0442231,-2.0386755e-6,-2.0363655e-6,1.0441808,41.883226,903.80788)" />
    <linearGradient
       x1="25.571766"
       y1="20.761639"
       x2="27.367689"
       y2="22.476452"
       id="linearGradient3408-7"
       xlink:href="#linearGradient7381"
       gradientUnits="userSpaceOnUse"
       gradientTransform="matrix(-1.0423996,0,0,-1.0378417,46.101123,124.35976)" />
    <linearGradient
       x1="13.22045"
       y1="43.256157"
       x2="31.088694"
       y2="26.885212"
       id="linearGradient3410-2"
       xlink:href="#linearGradient59435"
       gradientUnits="userSpaceOnUse"
       gradientTransform="matrix(1.0468682,0,0,1.0468717,-4.7990563,64.563522)" />
    <linearGradient
       x1="54.765163"
       y1="1.0000008"
       x2="54.72097"
       y2="12.584867"
       id="linearGradient3412-9"
       xlink:href="#linearGradient5443"
       gradientUnits="userSpaceOnUse"
       gradientTransform="matrix(-0.73220338,-0.7338647,0.73220338,-0.7338647,45.136583,156.11941)" />
    <radialGradient
       inkscape:collect="always"
       xlink:href="#linearGradient3728"
       id="radialGradient110612"
       gradientUnits="userSpaceOnUse"
       gradientTransform="matrix(3.870463,0,0,3.8610102,-41.657716,-12.501501)"
       cx="17"
       cy="16"
       fx="17"
       fy="16"
       r="2" />
  </defs>
  <rect
     style="opacity:0.4;fill:url(#radialGradient3013-6-5-76-7);fill-opacity:1;stroke:none;stroke-width:0.862764"
     id="rect2801-3-7-7-2"
     y="83.5"
     x="77"
     height="8.999999"
     width="10" />
  <rect
     style="opacity:0.4;fill:url(#radialGradient3015-1-6-9-0);fill-opacity:1;stroke:none;stroke-width:0.862764"
     id="rect3696-6-3-5-0"
     transform="scale(-1)"
     y="-92.5"
     x="-19"
     height="8.999999"
     width="10" />
  <rect
     style="opacity:0.4;fill:url(#linearGradient1191-2);fill-opacity:1;stroke:none;stroke-width:0.862764"
     id="rect3700-4-6-9-6"
     y="83.5"
     x="19"
     height="9"
     width="58" />
  <path
     d="M 20.568732,32.500191 73.5,32.500573 c 2.981552,2.2e-5 4.109526,-0.05501 4.80058,1.443236 L 83.5,46 v 37.5 c 0,3.302207 -2.59796,6 -6,6 h -59 c -3.613091,0 -6,-2.97953 -6,-6 V 46 l 5.160887,-11.935051 c 0.520842,-1.138158 1.112236,-1.564771 2.907845,-1.564758 z"
     id="path2488"
     style="font-variation-settings:normal;display:block;overflow:visible;visibility:visible;opacity:1;vector-effect:none;fill:url(#linearGradient27092);fill-opacity:1;fill-rule:nonzero;stroke:none;stroke-width:1;stroke-linecap:butt;stroke-linejoin:miter;stroke-miterlimit:4;stroke-dasharray:none;stroke-dashoffset:0;stroke-opacity:0.3;-inkscape-stroke:none;marker:none;stop-color:#000000;stop-opacity:1"
     sodipodi:nodetypes="ssccssssccs" />
  <path
     d="M 82.505603,46.197076 77.280217,34.134919"
     id="path3798"
     style="display:block;overflow:visible;visibility:visible;opacity:0.5;fill:none;stroke:url(#linearGradient3803);stroke-width:0.994201;stroke-linecap:round;stroke-linejoin:miter;stroke-miterlimit:4;stroke-dasharray:none;stroke-dashoffset:0;stroke-opacity:1;marker:none"
     sodipodi:nodetypes="cc" />
  <path
     d="m 20.798197,34.000869 c -0.862796,1.46e-4 -1.139174,0.14082 -1.36683,0.3125 -0.227658,0.17168 -0.523046,0.53405 -0.781046,1.25 L 14.146393,46.000869 81.859099,46 77.511039,35.929267 c -0.445824,-1.032593 -0.745592,-1.371742 -1.041396,-1.5625 -0.295802,-0.19076 -0.74737,-0.375171 -1.757352,-0.375 z"
     id="path3692"
     style="color:#000000;display:block;overflow:visible;visibility:visible;opacity:0.6;fill:url(#linearGradient3328);fill-opacity:1;fill-rule:nonzero;stroke:none;stroke-width:1;marker:none"
     sodipodi:nodetypes="sscccssss" />
  <path
     d="m 21.189159,34 c -1.019692,-9.5e-5 -1.34633,0.14082 -1.615386,0.3125 -0.269056,0.17168 -0.618158,0.53405 -0.923076,1.25 L 14.138303,46 28,46.000632 v -12 z"
     id="path3694"
     style="color:#000000;display:block;overflow:visible;visibility:visible;opacity:0.6;fill:url(#linearGradient3325);fill-opacity:1;fill-rule:nonzero;stroke:none;stroke-width:1;marker:none"
     sodipodi:nodetypes="ssccccs" />
  <path
     d="M 18.773457,34.022597 13.481514,46.246733"
     id="path3809"
     style="display:block;overflow:visible;visibility:visible;opacity:0.5;fill:none;stroke:url(#linearGradient25737);stroke-width:0.999999;stroke-linecap:round;stroke-linejoin:miter;stroke-miterlimit:4;stroke-dasharray:none;stroke-dashoffset:0;stroke-opacity:1;marker:none"
     sodipodi:nodetypes="cc" />
  <path
     d="m 76.5,33.5 h -57"
     id="path3807"
     style="display:block;overflow:visible;visibility:visible;opacity:0.5;fill:none;stroke:url(#linearGradient25547);stroke-width:0.9942;stroke-linecap:round;stroke-linejoin:miter;stroke-miterlimit:4;stroke-dasharray:none;stroke-dashoffset:0;stroke-opacity:1;marker:none"
     sodipodi:nodetypes="cc" />
  <path
     d="m 74.780178,34.000632 c 1.032248,0 1.362906,0.14082 1.635274,0.3125 0.27237,0.17168 0.62577,0.53405 0.934442,1.25 L 81.879534,46 64,46.000632 v -12 z"
     id="path3696"
     style="color:#000000;display:block;overflow:visible;visibility:visible;opacity:0.670498;fill:url(#linearGradient3313);fill-opacity:1;fill-rule:nonzero;stroke:none;stroke-width:1;marker:none"
     sodipodi:nodetypes="ssccccs" />
  <rect
     width="56.000004"
     height="15.000001"
     x="19.999998"
     y="33"
     id="rect2952"
     style="opacity:1;fill:url(#linearGradient37382);fill-opacity:1;stroke:none;stroke-width:1"
     ry="2.1517475"
     rx="1.5809225" />
  <g
     transform="matrix(1.3630182,0,0,1.3616941,-404.33361,-34.016849)"
     id="g7440"
     style="display:inline;opacity:0.488584;enable-background:new" />
  <g
     transform="translate(-85.599888,-1.038661)"
     id="g2721"
     style="display:inline" />
  <path
     d="m 20.614285,32.499594 h 54.771428 c 1.793261,0 2.299795,0.402481 2.913282,1.468812 L 83.5,46 v 37.5 c 0,3.282297 -2.596211,5.9995 -6,5.9995 h -59 c -3.661097,0 -6,-3.04571 -6,-5.9995 V 46 l 5.201005,-12.031593 c 0.46353,-1.030918 1.059604,-1.468813 2.91328,-1.468813 z"
     id="path14642"
     style="font-variation-settings:normal;display:block;overflow:visible;visibility:visible;opacity:1;vector-effect:none;fill:none;fill-opacity:1;fill-rule:nonzero;stroke:#804b00;stroke-width:1;stroke-linecap:butt;stroke-linejoin:round;stroke-miterlimit:4;stroke-dasharray:none;stroke-dashoffset:0;stroke-opacity:0.5;-inkscape-stroke:none;marker:none;stop-color:#000000;stop-opacity:1"
     sodipodi:nodetypes="ssccssssccs" />
  <g
     transform="matrix(-0.75458608,1.0979117,-1.1188532,-0.74512384,176.22446,46.009572)"
     id="g4031"
     style="stroke-width:0.747296">
    <path
       d="m 41.008611,71.304933 c -0.275184,-0.04457 -0.553166,0.01766 -0.810158,0.22336 a 0.50290655,0.50260937 0 0 0 -0.05587,0.02792 l -6.704753,6.700788 -0.754284,0.223359 a 0.50290655,0.50260937 0 0 0 -0.279365,0.19544 l -1.480632,2.177756 a 0.50290655,0.50260937 0 0 0 0.05587,0.642159 l 0.949839,0.949278 a 0.50290655,0.50260937 0 0 0 0.642539,0.05584 l 2.179044,-1.507677 a 0.50290655,0.50260937 0 0 0 0.195555,-0.2792 l 0.195555,-0.725918 6.732687,-6.728708 a 0.50290655,0.50260937 0 0 0 0,-0.02792 c 0.652718,-0.734669 -0.04048,-1.792754 -0.86603,-1.926477 z"
       id="path4021"
       style="fill:url(#linearGradient4035);fill-opacity:1;stroke:url(#linearGradient4037);stroke-width:0.597839;stroke-linecap:round;stroke-linejoin:round;stroke-miterlimit:4;stroke-dasharray:none;stroke-opacity:1" />
    <path
       d="m 32.213391,82.168298 2.570102,-1.684563 0.287731,-1.071956 c 0.23668,-0.267422 -0.691341,-1.111849 -0.94153,-0.921921 l -1.081306,0.294909 -1.720358,2.51661 c 0.33776,0.330725 0.547602,0.536195 0.885361,0.866921 z"
       id="path4023"
       style="fill:url(#linearGradient4039);fill-opacity:1;stroke:none;stroke-width:0.747296" />
  </g>
  <g
     transform="matrix(2.3010276,1.1497756,-1.1711902,2.2672804,-535.08353,-635.49282)"
     id="g6305"
     style="display:inline;stroke-width:0.338046;enable-background:new">
    <path
       d="m 304.83009,129.64722 c -0.0378,0.0402 -0.0658,0.0881 -0.0804,0.14003 -0.40518,1.47992 -0.31949,3.15578 0.27379,4.28067 0.81024,1.53624 2.61048,2.20625 4.42026,1.80822 0.72274,0.21414 1.6718,0.71421 2.77432,1.80865 l 10.9353,10.83481 2.83315,-2.81604 -10.93528,-10.83481 c -0.99389,-0.9866 -1.50014,-1.84777 -1.7485,-2.53454 0.2856,-0.97743 0.2328,-2.00504 -0.23683,-2.89549 -0.59305,-1.1244 -1.89986,-2.08374 -3.3108,-2.51709 -0.12099,-0.0395 -0.25795,9.2e-4 -0.34601,0.10358 -0.0881,0.10266 -0.10892,0.24521 -0.0483,0.35511 l 1.61439,3.06837 c 0.14503,0.27498 0.0466,0.64136 -0.22391,1.02363 -0.2731,0.38589 -0.71642,0.77909 -1.27556,1.10095 -0.55926,0.32194 -1.11244,0.50954 -1.56953,0.54532 -0.45439,0.0356 -0.8053,-0.0744 -0.9507,-0.35014 l -1.62416,-3.08537 c -0.0453,-0.0856 -0.1291,-0.13927 -0.22875,-0.14646 -0.0996,-0.007 -0.20234,0.0334 -0.27247,0.1106 z"
       id="path3688"
       style="display:inline;fill:url(#linearGradient3957);fill-opacity:1;fill-rule:evenodd;stroke:url(#linearGradient3959);stroke-width:0.429359;stroke-linecap:round;stroke-linejoin:round;stroke-miterlimit:4;stroke-dasharray:none;stroke-dashoffset:0.3612;stroke-opacity:1;enable-background:new" />
    <path
       d="m 309.56088,127.12623 c 0.14961,0.3242 0.22358,0.55592 0.39753,0.88172 0.43508,0.7798 0.88083,1.554 1.30916,2.3374 0.23948,0.6215 -0.18049,1.245 -0.59115,1.6826 -0.80605,0.8152 -1.96299,1.3415 -3.12087,1.2571 -0.43515,-0.0295 -0.79369,-0.33367 -0.96475,-0.73707 l -1.5229,-2.74761 c -0.11852,0.2764 -0.24883,0.6726 -0.28451,1.0116 -0.0791,1.3645 -0.0631,2.67961 0.91892,3.69711 1.35561,1.4154 3.84871,1.53027 5.45331,0.43947 1.18347,-0.7678 2.12468,-2.0754 2.09544,-3.5322 0.0195,-1.1489 -0.5788,-2.2247 -1.42983,-2.9659 -0.69392,-0.627 -1.37799,-1.01602 -2.26035,-1.32422 z"
       id="path2777"
       style="display:inline;fill:url(#linearGradient3961);fill-opacity:1;fill-rule:evenodd;stroke:none;stroke-width:0.338046;enable-background:new"
       sodipodi:nodetypes="ccccccccccccc" />
    <path
       d="m 310.14141,127.62349 1.25,2.4375 c 0.28894,0.54782 0.085,1.12046 -0.25,1.59375 -0.33855,0.47839 -0.8542,0.92749 -1.46875,1.28125 -0.60688,0.34935 -1.22432,0.57896 -1.8125,0.625 -0.2801,0.0219 -0.5499,-0.002 -0.8125,-0.0937 -0.2626,-0.0921 -0.51362,-0.29205 -0.65625,-0.5625 l -1.31238,-2.61491 c -0.17286,1.16401 -0.0512,2.84394 0.36095,3.62534 0.68338,1.29573 2.28373,1.92093 3.8885,1.56799 0.0917,-0.0238 0.18952,-0.0238 0.28125,0 0.82317,0.2439 1.78286,0.74124 2.93924,1.88914 l 11.01353,10.7527 2.03125,-2.00005 -10.8387,-10.93159 c -1.04139,-1.03374 -1.59436,-1.97397 -1.875,-2.75 -0.0358,-0.11084 -0.0358,-0.23291 0,-0.34375 0.24916,-0.8527 0.0784,-1.66141 -0.31755,-2.41216 -0.41054,-0.77836 -1.40087,-1.6001 -2.42109,-2.06401 z"
       id="path3711"
       style="display:inline;fill:none;stroke:#ffffff;stroke-width:0.390325;stroke-linecap:round;stroke-linejoin:round;stroke-miterlimit:4;stroke-dasharray:none;stroke-dashoffset:0.3612;stroke-opacity:0.710641;enable-background:new"
       sodipodi:nodetypes="ccccccccccccccccccc" />
    <path
       d="m 321.9489,144.47965 -0.12501,0.12501 c -0.34845,0.34845 -1.18936,0.0686 -1.88545,-0.6275 l -7.50999,-7.43258 c -0.69969,-0.69248 -0.97595,-1.537 -0.6275,-1.88546 l 0.125,-0.125 c 0.34846,-0.34845 1.18937,-0.0686 1.88546,0.6275 l 7.50999,7.43258 c 0.69969,0.69247 0.97595,1.537 0.6275,1.88545 z"
       id="rect3610"
       style="display:inline;opacity:0.08;fill:#000000;fill-opacity:1;fill-rule:evenodd;stroke:none;stroke-width:0.338046;enable-background:new"
       sodipodi:nodetypes="sscssscss" />
  </g>
  <g
     transform="matrix(2.2931169,-1.3159831,1.3294395,2.2699063,-51.709203,-111.74676)"
     id="g4041"
     style="stroke-width:0.379194">
    <rect
       width="4.5492568"
       height="14.754164"
       rx="1.9958174"
       ry="1.9958194"
       x="-61.229027"
       y="-43.997837"
       transform="matrix(-0.70991067,-0.70429173,0.70641103,-0.70780185,0,0)"
       id="rect5288"
       style="fill:url(#linearGradient4050);fill-opacity:1;stroke:#a62100;stroke-width:0.455033;stroke-linecap:round;stroke-linejoin:round;stroke-miterlimit:4;stroke-dasharray:none;stroke-opacity:0.5" />
    <rect
       width="3.4339042"
       height="13.481557"
       rx="1.1008343"
       ry="1.111737"
       x="-61.256279"
       y="-48.681999"
       transform="matrix(-0.77015324,-0.63785891,0.7144696,-0.69966648,0,0)"
       id="rect5292"
       style="opacity:0.6;fill:none;stroke:url(#radialGradient4054);stroke-width:0.380226;stroke-linecap:round;stroke-linejoin:round;stroke-miterlimit:4;stroke-dasharray:none;stroke-opacity:1" />
    <path
       d="m 11.008611,71.304933 c -0.275184,-0.04457 -0.553166,0.01766 -0.810158,0.22336 a 0.50290655,0.50260937 0 0 0 -0.05587,0.02792 L 3.4378302,78.257001 2.6835458,78.48036 A 0.50290655,0.50260937 0 0 0 2.4041812,78.6758 l -1.4806323,2.177756 a 0.50290655,0.50260937 0 0 0 0.0558729,0.642159 l 0.9498396,0.949278 A 0.50290655,0.50260937 0 0 0 2.5718,82.500833 l 2.1790438,-1.507677 a 0.50290655,0.50260937 0 0 0 0.1955552,-0.2792 L 5.1419542,79.988038 11.874641,73.25933 a 0.50290655,0.50260937 0 0 0 0,-0.02792 c 0.652718,-0.734669 -0.04048,-1.792754 -0.86603,-1.926477 z"
       id="path3822"
       style="fill:url(#linearGradient4056);fill-opacity:1;stroke:url(#linearGradient4058);stroke-width:0.265436;stroke-linecap:round;stroke-linejoin:round;stroke-miterlimit:4;stroke-dasharray:none;stroke-opacity:1" />
    <rect
       width="0.75437969"
       height="11.68676"
       rx="0.7904799"
       ry="0.86949122"
       x="-58.063194"
       y="-42.155598"
       transform="matrix(-0.71163906,-0.70254526,0.70681827,-0.70739518,0,0)"
       id="rect2804"
       style="opacity:0.3;fill:url(#linearGradient4060);fill-opacity:1;stroke:none;stroke-width:0.379194" />
    <rect
       width="1.0346812"
       height="11.64229"
       rx="0.79046124"
       ry="0.86944604"
       x="58.365734"
       y="30.560343"
       transform="matrix(0.71242952,0.70174367,-0.70637979,0.70783302,0,0)"
       id="rect5290"
       style="opacity:0.3;fill:url(#linearGradient4062);fill-opacity:1;stroke:none;stroke-width:0.379194" />
    <rect
       width="0.75438017"
       height="11.686761"
       rx="0.7904799"
       ry="0.86949122"
       x="-59.900883"
       y="-42.19651"
       transform="matrix(-0.71163906,-0.70254526,0.70681827,-0.70739518,0,0)"
       id="rect5398"
       style="opacity:0.25;fill:url(#linearGradient4064);fill-opacity:1;stroke:none;stroke-width:0.379194" />
    <path
       d="M 2.2133914,82.168298 4.7834928,80.483735 5.0712242,79.411779 C 5.3079045,79.144357 4.3798834,78.29993 4.1296942,78.489858 l -1.0813066,0.294909 -1.7203572,2.51661 c 0.3377592,0.330725 0.547602,0.536195 0.885361,0.866921 z"
       id="path5450"
       style="fill:url(#linearGradient4066);fill-opacity:1;stroke:none;stroke-width:0.379194" />
    <rect
       width="1.0346812"
       height="11.64229"
       rx="0.79046124"
       ry="0.86944604"
       x="59.878757"
       y="30.599268"
       transform="matrix(0.71242952,0.70174367,-0.70637979,0.70783302,0,0)"
       id="rect35077"
       style="opacity:0.3;fill:url(#linearGradient35079);fill-opacity:1;stroke:none;stroke-width:0.379194" />
  </g>
  <g
     transform="matrix(-1.3711091,0.27941334,0.2789722,1.3676507,300.14719,-1388.0824)"
     id="g4621"
     style="display:inline;stroke-width:0.844896">
    <path
       d="m 354.90196,961.71351 c -0.0462,0.0494 -0.0794,0.10928 -0.0952,0.17501 -0.43512,1.87515 -0.22941,4.02968 0.59591,5.50649 1.12712,2.01686 3.47459,2.9792 5.77326,2.57211 0.9393,0.316 2.18526,1.01168 3.66202,2.47857 l 15.53259,16.41643 3.47323,-3.45018 -15.53258,-16.41643 c -1.33126,-1.32235 -2.02985,-2.45591 -2.38768,-3.35103 0.31046,-1.23743 0.18398,-2.55857 -0.46932,-3.7276 -0.82498,-1.47618 -2.55608,-2.78144 -4.39068,-3.41795 -0.15743,-0.0576 -0.33081,-0.0136 -0.43789,0.11308 -0.10709,0.12665 -0.1257,0.3083 -0.0417,0.45274 l 2.24619,4.0281 c 0.20176,0.36101 0.0965,0.82534 -0.22868,1.30022 -0.32826,0.47938 -0.87442,0.95837 -1.57324,1.33928 -0.69896,0.38097 -1.3978,0.58999 -1.98206,0.60974 -0.58081,0.0197 -1.03722,-0.1415 -1.23949,-0.50346 l -2.25969,-4.05046 c -0.063,-0.11238 -0.17357,-0.18604 -0.3018,-0.20096 -0.12822,-0.0149 -0.25763,0.0312 -0.34317,0.1263 z"
       id="path4623"
       style="display:inline;fill:url(#linearGradient4633-9);fill-opacity:1;fill-rule:evenodd;stroke:url(#linearGradient4635-6);stroke-width:0.715538;stroke-linecap:round;stroke-linejoin:round;stroke-miterlimit:4;stroke-dasharray:none;stroke-dashoffset:0.3612;stroke-opacity:1;enable-background:new"
       sodipodi:nodetypes="ccscccccccccccsccccccc" />
    <path
       d="m 360.9375,958.8399 c 0.0187,0.007 0.007,0.0312 0,0.0313 l 2.25,4.03125 c 0.30353,0.54308 0.0846,1.18445 -0.28125,1.71875 -0.36949,0.53959 -0.942,1.0624 -1.6875,1.46875 -0.7471,0.40722 -1.53072,0.60279 -2.1875,0.625 -0.65534,0.0222 -1.27047,-0.16491 -1.5625,-0.6875 l -2.25,-4.0625 c -0.0129,-0.002 -0.0334,0.002 -0.0313,0 0.0206,-0.022 0.004,0.016 0,0.0313 -0.41492,1.78813 -0.19972,3.85485 0.5625,5.21875 1.04262,1.86566 3.21941,2.75675 5.375,2.375 2.14547,-0.38402 3.97996,-2.25317 4.4375,-4.03125 0.28891,-1.15158 0.16583,-2.38914 -0.4375,-3.46875 -0.76015,-1.36017 -2.43237,-2.64106 -4.1875,-3.25 z"
       id="path4625"
       style="display:inline;fill:url(#linearGradient4637-7);fill-opacity:1;fill-rule:evenodd;stroke:none;stroke-width:0.844896;enable-background:new" />
    <path
       d="m 361.87428,959.76559 1.3046,2.28822 c 0.44542,0.79692 0.64973,1.96962 0.21632,2.60253 -0.43788,0.63945 -1.08789,1.20775 -1.92529,1.66417 -0.84091,0.45833 -1.93371,0.69956 -2.71108,0.72585 -0.7784,0.0263 -1.27731,-0.52789 -1.69556,-1.27633 l -1.5807,-2.44387 c -0.0695,1.37634 -0.04,2.31838 0.49279,3.27176 0.98205,1.75722 2.59921,2.81709 4.66951,2.45046 0.15156,-0.0299 0.31108,-0.0186 0.45685,0.0326 1.12211,0.37748 2.51422,0.96893 4.13287,2.57669 l 16.14104,16.74007 2.38214,-2.34941 -16.0696,-16.55967 c -1.45937,-1.44953 -1.93604,-2.37534 -2.35857,-3.43226 -0.0637,-0.16527 -0.0752,-0.35019 -0.0326,-0.52209 0.2745,-1.09409 -0.15039,-2.48927 -0.71732,-3.5037 -0.51815,-0.92713 -1.5139,-1.59428 -2.70537,-2.26504 z"
       id="path4627"
       style="display:inline;fill:none;stroke:url(#linearGradient4639-0);stroke-width:0.715538;stroke-linecap:round;stroke-linejoin:miter;stroke-miterlimit:4;stroke-dasharray:none;stroke-dashoffset:0.3612;stroke-opacity:1;enable-background:new"
       sodipodi:nodetypes="ccsscccsccccccccccc" />
    <rect
       width="1.6824219"
       height="26.456028"
       rx="0.64297342"
       ry="1.2844229"
       x="-424.64612"
       y="941.56775"
       transform="matrix(0.70455186,-0.70965251,0.70455186,0.70965251,0,0)"
       id="rect4629"
       style="display:inline;opacity:0.08;fill:#000000;fill-opacity:1;fill-rule:evenodd;stroke:none;stroke-width:0.844905;enable-background:new" />
    <g
       transform="translate(55.750001,906.7774)"
       id="g4631"
       style="display:inline;opacity:0.488584;stroke-width:0.844896;enable-background:new" />
  </g>
  <path
     d="m 77.379426,45.169335 a 6.0362756,6.7255113 0 1 1 -12.07255,0 6.0362756,6.7255113 0 1 1 12.07255,0 z"
     id="path44775"
     style="opacity:0.3;fill:url(#radialGradient44777);fill-opacity:1;stroke:none;stroke-width:1.50001" />
  <g
     transform="matrix(1.447258,-0.0678467,-0.05228906,-1.4303494,19.965661,201.71252)"
     id="g3403"
     style="stroke-width:0.694438">
    <path
       d="m 6.221677,116.38358 4.911842,-3.39317 0.59624,-2.04872 15.224969,-15.248886 c 1.035492,-1.167574 -0.9169,-3.239435 -2.211263,-2.201595 l -15.2307055,15.228451 -2.0579608,0.58368 -3.3553825,4.93182 c 0,0 2.1222608,2.14842 2.1222608,2.14842 z"
       id="path3397"
       style="fill:url(#linearGradient3408-7);fill-opacity:1;stroke:url(#linearGradient3410-2);stroke-width:0.694438;stroke-linecap:round;stroke-linejoin:round;stroke-miterlimit:4;stroke-dasharray:none;stroke-opacity:1" />
    <path
       d="m 6.2706212,115.69753 4.3721608,-2.93331 0.489477,-1.86659 c 0.402632,-0.46565 -1.1760828,-1.93605 -1.6016954,-1.60533 l -1.8394783,0.51353 -2.926607,4.38214 c 0.5745834,0.57588 0.9315599,0.93367 1.5061429,1.50956 z"
       id="path3399"
       style="fill:url(#linearGradient3412-9);fill-opacity:1;stroke:none;stroke-width:0.694438" />
    <path
       d="m 26.893749,94.662074 c 0.07901,-0.394478 -0.735534,-0.998988 -1.112525,-0.997739 -5.327913,5.172419 -10.830535,10.340815 -16.0781693,15.597645 l -1.9643902,0.76863 c -0.9207526,1.35304 -2.0770893,2.89232 -2.9978418,4.24537 0.3485434,0.35963 1.1534727,1.13015 1.502016,1.48979 1.3712649,-0.94363 2.9781152,-2.07353 4.3493803,-3.01717 0.187149,-0.59114 0.422915,-1.38161 0.644444,-1.95248"
       id="path3401"
       style="opacity:0.7;fill:none;stroke:#ffffff;stroke-width:0.694438;stroke-linecap:round;stroke-linejoin:round;stroke-miterlimit:4;stroke-opacity:1"
       sodipodi:nodetypes="cccccccc" />
  </g>
  <path
     d="m 31.881082,49.274665 a 7.7409262,7.7220208 0 1 1 -15.481852,0 7.7409262,7.7220208 0 1 1 15.481852,0 z"
     id="path110610"
     style="opacity:0.3;fill:url(#radialGradient110612);fill-opacity:1;stroke:none;stroke-width:1.5" />
  <path
     d="m 35.308062,41.313854 a 7.7409262,7.7220208 0 1 1 -15.481852,0 7.7409262,7.7220208 0 1 1 15.481852,0 z"
     id="path3736"
     style="opacity:0.3;fill:url(#radialGradient3744);fill-opacity:1;stroke:none;stroke-width:1.5" />
  <g
     id="g2486"
     style="stroke-width:0.53846"
     transform="matrix(1.8571427,0,0,1.8571427,25.714288,19.714921)">
    <path
       d="m 10.1875,1.4996573 c -0.3883662,0 -0.6875002,0.2991339 -0.6875002,0.6875 v 1.6875 c -0.511667,0.1572247 -1.003184,0.3787684 -1.46875,0.625 l -1.1875,-1.1875 c -0.274616,-0.2746162 -0.725384,-0.2746162 -1,0 l -2.53125,2.53125 c -0.274616,0.2746162 -0.274616,0.7253836 0,1 l 1.1875,1.1875 c -0.246231,0.4655655 -0.467775,0.9570829 -0.625,1.46875 h -1.6875 c -0.388366,0 -0.6875,0.2991344 -0.6875,0.6874997 v 3.625 c 0,0.388366 0.299134,0.6875 0.6875,0.6875 h 1.6875 c 0.157225,0.511667 0.378769,1.003185 0.625,1.46875 l -1.1875,1.1875 c -0.274616,0.274616 -0.274616,0.725384 0,1 l 2.53125,2.53125 c 0.274616,0.274616 0.725384,0.274616 1,0 l 1.1875,-1.1875 c 0.465566,0.246232 0.957083,0.467775 1.46875,0.625 v 1.6875 c 0,0.388366 0.299135,0.6875 0.6875002,0.6875 h 3.625 c 0.388366,0 0.6875,-0.299134 0.6875,-0.6875 v -1.6875 c 0.511667,-0.157225 1.003185,-0.378768 1.46875,-0.625 l 1.1875,1.1875 c 0.274616,0.274616 0.725384,0.274616 1,0 l 2.53125,-2.53125 c 0.274616,-0.274616 0.274616,-0.725384 0,-1 L 19.5,15.968407 c 0.246232,-0.465565 0.467775,-0.957083 0.625,-1.46875 h 1.6875 c 0.388366,0 0.6875,-0.299134 0.6875,-0.6875 v -3.625 C 22.5,9.7987914 22.200866,9.4996573 21.8125,9.4996573 H 20.125 C 19.967775,8.9879902 19.746232,8.4964728 19.5,8.0309073 l 1.1875,-1.1875 c 0.274616,-0.2746162 0.274616,-0.7253837 0,-1 l -2.53125,-2.53125 c -0.274616,-0.2746162 -0.725384,-0.2746162 -1,0 l -1.1875,1.1875 C 15.503185,4.2534257 15.011667,4.031882 14.5,3.8746573 v -1.6875 c 0,-0.3883659 -0.299134,-0.6875 -0.6875,-0.6875 z m 1.8125,7.5 c 1.656,0 3,1.3439997 3,2.9999997 0,1.656 -1.344,3 -3,3 -1.656,0 -3.0000002,-1.344 -3.0000002,-3 0,-1.656 1.3440002,-2.9999997 3.0000002,-2.9999997 z"
       id="rect2426"
       style="display:block;overflow:visible;visibility:visible;fill:url(#linearGradient3218);fill-opacity:1;fill-rule:nonzero;stroke:url(#linearGradient3228);stroke-width:0.53846;stroke-linecap:butt;stroke-linejoin:round;stroke-miterlimit:4;stroke-dasharray:none;stroke-dashoffset:0;stroke-opacity:1;marker:none;enable-background:accumulate" />
    <path
       d="m 12,6.0765815 c -3.4144964,-2e-7 -6.1923084,2.7778124 -6.1923084,6.1923095 0,3.414495 2.777812,6.192308 6.1923084,6.192308 3.414495,-1e-6 6.192308,-2.777813 6.192308,-6.192308 0,-3.4144971 -2.777813,-6.1923095 -6.192308,-6.1923095 z m 0,2.8579886 c 1.840545,0 3.334319,1.4937759 3.334319,3.3343209 0,1.840545 -1.493774,3.334319 -3.334319,3.334319 -1.840545,0 -3.3343199,-1.493774 -3.3343199,-3.334319 0,-1.840545 1.4937749,-3.3343209 3.3343199,-3.3343209 z"
       id="path3315"
       style="opacity:0.05;fill:#000000;fill-opacity:1;stroke:none;stroke-width:0.53846" />
    <path
       d="m 12,6.0765807 c -3.4144389,0 -6.1923083,2.7778694 -6.1923083,6.1923083 0,3.41444 2.7778694,6.19231 6.1923083,6.19231 3.414441,0 6.19231,-2.77787 6.19231,-6.19231 0,-3.4144389 -2.777869,-6.1923083 -6.19231,-6.1923083 z"
       id="path28"
       style="fill:none;stroke:url(#linearGradient3241);stroke-width:0.53846;stroke-miterlimit:4;stroke-dasharray:none" />
  </g>
  <path
     d="m 20.446662,34.500027 -1.95333,2.607061 -3.589308,8.392914 L 81.123272,45.5 76.622345,34.92107 73.064628,34.5 l -52.617966,2.4e-5 z"
     id="path3730"
     style="color:#000000;display:block;overflow:visible;visibility:visible;opacity:0.15;fill:none;stroke:url(#linearGradient4137);stroke-width:1;stroke-linecap:butt;stroke-linejoin:miter;stroke-miterlimit:4;stroke-dashoffset:0;stroke-opacity:1;marker:none"
     sodipodi:nodetypes="cccccccc" />
  <rect
     style="font-variation-settings:normal;opacity:1;vector-effect:none;fill:url(#linearGradient121756-2);fill-opacity:1;stroke:none;stroke-width:0.999998;stroke-linecap:butt;stroke-linejoin:miter;stroke-miterlimit:4;stroke-dasharray:none;stroke-dashoffset:0;stroke-opacity:0.3;-inkscape-stroke:none;marker:none;paint-order:markers fill stroke;stop-color:#000000;stop-opacity:1"
     id="rect28924"
     width="70"
     height="36"
     x="13"
     y="46"
     rx="0.125"
     ry="0.125" />
  <rect
     style="opacity:0.3;fill:none;stroke:url(#linearGradient121760);stroke-width:0.999989;stroke-linecap:round;stroke-linejoin:round;stroke-miterlimit:4;stroke-dasharray:none;stroke-dashoffset:0;stroke-opacity:1"
     id="rect6741-5-0-2-3-4-2-4"
     y="47.499996"
     x="13.499994"
     ry="5"
     height="41.000011"
     width="69.000015"
     rx="5" />
  <path
     d="M 16.500121,47.499998 H 79.499878"
     id="path3357"
     style="display:inline;opacity:0.4;fill:none;stroke:url(#linearGradient3359);stroke-width:0.999994px;stroke-linecap:square;stroke-linejoin:miter;stroke-opacity:1" />
  <path
     d="M 17,46.500002 79,46.5 Z"
     id="path39547"
     style="color:#000000;display:block;overflow:visible;visibility:visible;opacity:0.15;fill:none;stroke:url(#linearGradient39549);stroke-width:0.999999;stroke-linecap:butt;stroke-linejoin:miter;stroke-miterlimit:4;stroke-dashoffset:0;stroke-opacity:1;marker:none"
     sodipodi:nodetypes="ccc" />
</svg>
