<?xml version="1.0" encoding="UTF-8" standalone="no"?>
<svg
   version="1.1"
   width="96"
   height="96"
   id="svg4061"
   sodipodi:docname="preferences-system-parental-controls.svg"
   inkscape:version="1.2.2 (b0a8486541, 2022-12-01)"
   xmlns:inkscape="http://www.inkscape.org/namespaces/inkscape"
   xmlns:sodipodi="http://sodipodi.sourceforge.net/DTD/sodipodi-0.dtd"
   xmlns:xlink="http://www.w3.org/1999/xlink"
   xmlns="http://www.w3.org/2000/svg"
   xmlns:svg="http://www.w3.org/2000/svg"
   xmlns:rdf="http://www.w3.org/1999/02/22-rdf-syntax-ns#"
   xmlns:cc="http://creativecommons.org/ns#"
   xmlns:dc="http://purl.org/dc/elements/1.1/">
  <sodipodi:namedview
     id="namedview11554"
     pagecolor="#ffffff"
     bordercolor="#000000"
     borderopacity="0.25"
     inkscape:showpageshadow="2"
     inkscape:pageopacity="0.0"
     inkscape:pagecheckerboard="0"
     inkscape:deskcolor="#d1d1d1"
     showgrid="false"
     inkscape:zoom="4.3229167"
     inkscape:cx="0.11566265"
     inkscape:cy="35.855422"
     inkscape:window-width="1278"
     inkscape:window-height="1005"
     inkscape:window-x="745"
     inkscape:window-y="125"
     inkscape:window-maximized="0"
     inkscape:current-layer="svg4061" />
  <defs
     id="defs4063">
    <linearGradient
       x1="71.204407"
       y1="15.369057"
       x2="71.204407"
       y2="40.495617"
       id="linearGradient3177"
       xlink:href="#linearGradient4806-2"
       gradientUnits="userSpaceOnUse"
       gradientTransform="matrix(3.3583444,0,0,3.3583444,-194.39224,-45.586651)" />
    <linearGradient
       id="linearGradient4806-2">
      <stop
         id="stop4808-4"
         style="stop-color:#ffffff;stop-opacity:1"
         offset="0" />
      <stop
         id="stop4810-0"
         style="stop-color:#ffffff;stop-opacity:0.23529412"
         offset="0.42447853" />
      <stop
         id="stop4812-8"
         style="stop-color:#ffffff;stop-opacity:0.15686275"
         offset="0.82089913" />
      <stop
         id="stop4814-0"
         style="stop-color:#ffffff;stop-opacity:0.39215687"
         offset="1" />
    </linearGradient>
    <radialGradient
       cx="15.026252"
       cy="8.6257601"
       r="19.99999"
       fx="4.4589653"
       fy="8.5088921"
       id="radialGradient4013"
       xlink:href="#linearGradient3846"
       gradientUnits="userSpaceOnUse"
       gradientTransform="matrix(-7.0799428e-8,3.8169717,-3.5961405,-1.1077997e-7,78.649348,-16.766647)" />
    <linearGradient
       id="linearGradient3846">
      <stop
         id="stop3848"
         style="stop-color:#fff3cb;stop-opacity:1"
         offset="0" />
      <stop
         id="stop3850"
         style="stop-color:#fdde76;stop-opacity:1"
         offset="0.26238" />
      <stop
         id="stop3852"
         style="stop-color:#f9c440;stop-opacity:1"
         offset="0.66093999" />
      <stop
         id="stop3854"
         style="stop-color:#e48b20;stop-opacity:1"
         offset="1" />
    </linearGradient>
    <radialGradient
       r="10.625"
       fy="4.625"
       fx="62.625"
       cy="4.625"
       cx="62.625"
       gradientTransform="matrix(4.4235297,0,0,1.5058804,-229.02354,72.035294)"
       gradientUnits="userSpaceOnUse"
       id="radialGradient3950"
       xlink:href="#linearGradient8838" />
    <linearGradient
       id="linearGradient8838">
      <stop
         id="stop8840"
         style="stop-color:#000000;stop-opacity:1"
         offset="0" />
      <stop
         id="stop8842"
         style="stop-color:#000000;stop-opacity:0"
         offset="1" />
    </linearGradient>
  </defs>
  <metadata
     id="metadata4066">
    <rdf:RDF>
      <cc:Work
         rdf:about="">
        <dc:format>image/svg+xml</dc:format>
        <dc:type
           rdf:resource="http://purl.org/dc/dcmitype/StillImage" />
      </cc:Work>
    </rdf:RDF>
  </metadata>
  <path
     style="display:inline;overflow:visible;visibility:visible;opacity:0.3;fill:url(#radialGradient3950);fill-opacity:1;fill-rule:evenodd;stroke:none;stroke-width:0.999998;marker:none"
     id="path8836"
     d="M 95.000001,79 C 95.000001,87.836555 73.95738,95 48,95 22.04262,95 0.9999985,87.836555 0.9999985,79 0.9999985,70.163442 22.042621,63 48,63 c 25.95738,0 47.000001,7.163442 47.000001,16 z" />
  <path
     style="color:#000000;display:inline;overflow:visible;visibility:visible;fill:url(#radialGradient4013);fill-opacity:1;fill-rule:nonzero;stroke:none;stroke-width:1;marker:none;enable-background:accumulate"
     id="path2555-7-65"
     d="M 47.999997,6.5 C 25.101733,6.5 6.5,25.101734 6.5,47.999998 c 0,22.898268 18.601733,41.500007 41.499997,41.500001 22.898264,0 41.500015,-18.601733 41.500001,-41.500001 C 89.499998,25.101734 70.898261,6.5000002 47.999997,6.5 Z" />
  <path
     style="color:#000000;display:inline;overflow:visible;visibility:visible;opacity:0.8;fill:none;stroke:url(#linearGradient3177);stroke-width:1;stroke-linecap:round;stroke-linejoin:round;stroke-miterlimit:4;stroke-dasharray:none;stroke-dashoffset:0;stroke-opacity:1;marker:none;enable-background:accumulate"
     id="path4176"
     d="m 88.500003,47.999999 c 0,22.367525 -18.132495,40.5 -40.500022,40.5 C 25.632473,88.499999 7.5,70.367524 7.5,47.999999 7.5,25.632469 25.632473,7.5 47.999981,7.5 c 22.367527,0 40.500022,18.132469 40.500022,40.499999 z" />
  <path
     style="color:#000000;display:inline;overflow:visible;visibility:visible;opacity:0.5;fill:none;stroke:#985800;stroke-width:1;stroke-linecap:round;stroke-linejoin:round;stroke-miterlimit:4;stroke-dasharray:none;stroke-dashoffset:0;stroke-opacity:1;marker:none;enable-background:accumulate"
     id="path2555-7-1-7"
     d="m 48.000001,6.5002301 c -22.898143,0 -41.4997709,18.6016249 -41.4997709,41.4997679 0,22.898145 18.6016279,41.499783 41.4997709,41.499775 22.898142,0 41.4998,-18.60163 41.499772,-41.499775 0,-22.898143 -18.60163,-41.4997681 -41.499772,-41.4997679 z" />
  <path
     id="path24877"
     d="m 41,28 c -2.77,0 -5,2.23 -5,5 0,2.77 2.23,5 5,5 2.77,0 5,-2.23 5,-5 0,-2.77 -2.23,-5 -5,-5 z m -1,12.058594 c -2.25,0 -3.708946,0.583946 -4.5625,1.4375 -0.426776,0.426776 -0.67113,0.8962 -0.796876,1.273438 -0.03858,0.11576 -0.02264,0.1331 -0.04296,0.242186 l -5.949218,12.335938 c -0.869792,1.802082 1.833332,3.10677 2.703124,1.304688 L 36,47.011718 V 58 71.902344 C 36,73.064868 36.892,74 38,74 c 1.108,0 2,-0.935132 2,-2.097656 V 58 h 2 v 14 c 0,1.108 0.892,2 2,2 1.108,0 2,-0.892 2,-2 V 54 47.011718 l 4.648438,9.640626 c 0.36176,0.74721 1.261426,1.058766 2.007812,0.695312 L 56,58.71875 V 66 73 c 0,0.554 0.446,1 1,1 0.554,0 1,-0.446 1,-1 v -7 h 2 v 7 c 0,0.554 0.446,1 1,1 0.554,0 1,-0.446 1,-1 V 63 60.523438 l 3.214844,4.09375 c 0.809162,1.149956 2.496642,-0.17652 1.570312,-1.234376 l -4.707032,-6 C 61.888908,57.141616 61.599526,57.000524 61.292968,57 h -4.210936 l -3.671876,-1.503906 c -0.0168,-0.05048 -0.03644,-0.10004 -0.0586,-0.14844 L 47.402338,43.011716 c -0.02034,-0.1091 -0.0044,-0.12642 -0.04296,-0.242186 -0.12574,-0.377238 -0.3701,-0.846662 -0.796876,-1.273438 C 45.708936,40.64245 44.25,40.058594 42,40.058594 Z M 59,47.5 c -1.930352,0 -3.5,1.569648 -3.5,3.5 0,1.930352 1.569648,3.5 3.5,3.5 1.930352,0 3.5,-1.569648 3.5,-3.5 0,-1.930352 -1.569648,-3.5 -3.5,-3.5 z"
     style="opacity:0.1;fill:#ffffff;fill-opacity:1;stroke:none;stroke-width:0.5;stroke-linecap:round;stroke-linejoin:miter;stroke-miterlimit:4;stroke-dasharray:none;stroke-dashoffset:0;stroke-opacity:1" />
  <path
     style="opacity:1;fill:#333333;fill-opacity:1;stroke:none;stroke-width:0.5;stroke-linecap:round;stroke-linejoin:miter;stroke-miterlimit:4;stroke-dasharray:none;stroke-dashoffset:0;stroke-opacity:1"
     d="m 41,26 c -2.77,0 -5,2.23 -5,5 0,2.77 2.23,5 5,5 2.77,0 5,-2.23 5,-5 0,-2.77 -2.23,-5 -5,-5 z m -1,12.058594 c -2.25,0 -3.708946,0.583946 -4.5625,1.4375 -0.426776,0.426776 -0.67113,0.8962 -0.796876,1.273438 -0.03858,0.11576 -0.02264,0.1331 -0.04296,0.242186 l -5.949218,12.335938 c -0.869792,1.802082 1.833332,3.10677 2.703124,1.304688 L 36,45.011718 V 56 69.902344 C 36,71.064868 36.892,72 38,72 c 1.108,0 2,-0.935132 2,-2.097656 V 56 h 2 v 14 c 0,1.108 0.892,2 2,2 1.108,0 2,-0.892 2,-2 V 52 45.011718 l 4.648438,9.640626 c 0.36176,0.74721 1.261426,1.058766 2.007812,0.695312 L 56,56.71875 V 64 71 c 0,0.554 0.446,1 1,1 0.554,0 1,-0.446 1,-1 v -7 h 2 v 7 c 0,0.554 0.446,1 1,1 0.554,0 1,-0.446 1,-1 V 61 58.523438 l 3.214844,4.09375 c 0.809162,1.149956 2.496642,-0.17652 1.570312,-1.234376 l -4.707032,-6 C 61.888908,55.141616 61.599526,55.000524 61.292968,55 h -4.210936 l -3.671876,-1.503906 c -0.0168,-0.05048 -0.03644,-0.10004 -0.0586,-0.14844 L 47.402338,41.011716 c -0.02034,-0.1091 -0.0044,-0.12642 -0.04296,-0.242186 -0.12574,-0.377238 -0.3701,-0.846662 -0.796876,-1.273438 C 45.708936,38.64245 44.25,38.058594 42,38.058594 Z M 59,45.5 c -1.930352,0 -3.5,1.569648 -3.5,3.5 0,1.930352 1.569648,3.5 3.5,3.5 1.930352,0 3.5,-1.569648 3.5,-3.5 0,-1.930352 -1.569648,-3.5 -3.5,-3.5 z"
     id="rect24843" />
</svg>
