<?xml version="1.0" encoding="UTF-8" standalone="no"?>
<svg
   version="1.0"
   width="96"
   height="96"
   id="svg3783"
   sodipodi:docname="application-x-addon.svg"
   inkscape:version="1.2.2 (b0a8486541, 2022-12-01)"
   xmlns:inkscape="http://www.inkscape.org/namespaces/inkscape"
   xmlns:sodipodi="http://sodipodi.sourceforge.net/DTD/sodipodi-0.dtd"
   xmlns:xlink="http://www.w3.org/1999/xlink"
   xmlns="http://www.w3.org/2000/svg"
   xmlns:svg="http://www.w3.org/2000/svg"
   xmlns:rdf="http://www.w3.org/1999/02/22-rdf-syntax-ns#"
   xmlns:cc="http://creativecommons.org/ns#"
   xmlns:dc="http://purl.org/dc/elements/1.1/">
  <sodipodi:namedview
     id="namedview42"
     pagecolor="#ffffff"
     bordercolor="#666666"
     borderopacity="1.0"
     inkscape:pageshadow="2"
     inkscape:pageopacity="0.0"
     inkscape:pagecheckerboard="0"
     showgrid="false"
     inkscape:zoom="10.046809"
     inkscape:cx="48.771705"
     inkscape:cy="39.465267"
     inkscape:window-width="1317"
     inkscape:window-height="890"
     inkscape:window-x="194"
     inkscape:window-y="129"
     inkscape:window-maximized="0"
     inkscape:current-layer="svg3783"
     inkscape:showpageshadow="2"
     inkscape:deskcolor="#d1d1d1" />
  <metadata
     id="metadata43">
    <rdf:RDF>
      <cc:Work
         rdf:about="">
        <dc:format>image/svg+xml</dc:format>
        <dc:type
           rdf:resource="http://purl.org/dc/dcmitype/StillImage" />
      </cc:Work>
    </rdf:RDF>
  </metadata>
  <defs
     id="defs3785">
    <linearGradient
       id="linearGradient3702">
      <stop
         id="stop3704"
         style="stop-color:#000000;stop-opacity:0"
         offset="0" />
      <stop
         id="stop3710"
         style="stop-color:#000000;stop-opacity:1"
         offset="0.5" />
      <stop
         id="stop3706"
         style="stop-color:#000000;stop-opacity:0"
         offset="1" />
    </linearGradient>
    <linearGradient
       id="linearGradient3688">
      <stop
         id="stop3690"
         style="stop-color:#000000;stop-opacity:1"
         offset="0" />
      <stop
         id="stop3692"
         style="stop-color:#000000;stop-opacity:0"
         offset="1" />
    </linearGradient>
    <radialGradient
       xlink:href="#linearGradient3688"
       id="radialGradient2470"
       gradientUnits="userSpaceOnUse"
       gradientTransform="matrix(2.003784,0,0,1.4,27.98813,-17.4)"
       cx="4.9929786"
       cy="43.5"
       fx="4.9929786"
       fy="43.5"
       r="2.5" />
    <radialGradient
       xlink:href="#linearGradient3688"
       id="radialGradient2472"
       gradientUnits="userSpaceOnUse"
       gradientTransform="matrix(2.003784,0,0,1.4,-20.01187,-104.4)"
       cx="4.9929786"
       cy="43.5"
       fx="4.9929786"
       fy="43.5"
       r="2.5" />
    <linearGradient
       xlink:href="#linearGradient3702"
       id="linearGradient2474"
       gradientUnits="userSpaceOnUse"
       x1="25.058096"
       y1="47.027729"
       x2="25.058096"
       y2="39.999443" />
    <radialGradient
       xlink:href="#linearGradient3688"
       id="radialGradient2476"
       gradientUnits="userSpaceOnUse"
       gradientTransform="matrix(2.003784,0,0,1.4,27.98813,-17.4)"
       cx="4.9929786"
       cy="43.5"
       fx="4.9929786"
       fy="43.5"
       r="2.5" />
    <radialGradient
       xlink:href="#linearGradient3688"
       id="radialGradient2478"
       gradientUnits="userSpaceOnUse"
       gradientTransform="matrix(2.003784,0,0,1.4,-20.01187,-104.4)"
       cx="4.9929786"
       cy="43.5"
       fx="4.9929786"
       fy="43.5"
       r="2.5" />
    <linearGradient
       xlink:href="#linearGradient3702"
       id="linearGradient2480"
       gradientUnits="userSpaceOnUse"
       x1="25.058096"
       y1="47.027729"
       x2="25.058096"
       y2="39.999443" />
    <linearGradient
       xlink:href="#linearGradient4327"
       id="linearGradient2489"
       gradientUnits="userSpaceOnUse"
       gradientTransform="matrix(2.3720546,0,0,2.3734729,-19.62895,1.717278)"
       x1="24.35816"
       y1="8.6544151"
       x2="24.35816"
       y2="38.263443" />
    <radialGradient
       xlink:href="#linearGradient3242-7-3-8-0-4-58-06"
       id="radialGradient2492"
       gradientUnits="userSpaceOnUse"
       gradientTransform="matrix(0,4.6351374,-6.6862222,-1.5308348e-7,122.84775,-13.718109)"
       cx="7.4404225"
       cy="15.377086"
       fx="7.4404225"
       fy="15.377086"
       r="19.99999" />
    <linearGradient
       id="linearGradient3242-7-3-8-0-4-58-06">
      <stop
         id="stop3244-5-8-5-6-4-3-8"
         style="stop-color:#cdf87e;stop-opacity:1"
         offset="0" />
      <stop
         id="stop3246-9-5-1-5-3-0-7"
         style="stop-color:#a2e34f;stop-opacity:1"
         offset="0.26238" />
      <stop
         id="stop3248-7-2-0-7-5-35-9"
         style="stop-color:#68b723;stop-opacity:1"
         offset="0.66093999" />
      <stop
         id="stop3250-8-2-8-5-6-40-4"
         style="stop-color:#1d7e0d;stop-opacity:1"
         offset="1" />
    </linearGradient>
    <linearGradient
       id="linearGradient4327">
      <stop
         id="stop4329"
         style="stop-color:#ffffff;stop-opacity:0"
         offset="0" />
      <stop
         offset="0.02222222"
         style="stop-color:#ffffff;stop-opacity:0"
         id="stop4335" />
      <stop
         offset="0.06666667"
         style="stop-color:#ffffff;stop-opacity:0.92941176;"
         id="stop4333" />
      <stop
         id="stop4339"
         style="stop-color:#ffffff;stop-opacity:0.29411766"
         offset="0.12083333" />
      <stop
         id="stop4337"
         style="stop-color:#ffffff;stop-opacity:0.16993465"
         offset="0.93478262" />
      <stop
         id="stop4331"
         style="stop-color:#ffffff;stop-opacity:1"
         offset="1" />
    </linearGradient>
  </defs>
  <g
     style="opacity:0.3"
     id="g3761"
     transform="matrix(0.81604276,0,0,0.84327874,37.290645,54.815899)">
    <rect
       style="fill:url(#radialGradient2470);fill-opacity:1;stroke:none"
       id="rect3763"
       y="40"
       x="38"
       height="7"
       width="5" />
    <rect
       style="fill:url(#radialGradient2472);fill-opacity:1;stroke:none"
       id="rect3765"
       transform="scale(-1,-1)"
       y="-47"
       x="-10"
       height="7"
       width="5" />
    <rect
       style="fill:url(#linearGradient2474);fill-opacity:1;stroke:none"
       id="rect3767"
       y="40"
       x="10"
       height="7.0000005"
       width="28" />
  </g>
  <g
     style="opacity:0.3"
     id="g3550"
     transform="matrix(0.82633214,0,0,0.84327874,-1.1316607,54.815899)">
    <rect
       style="fill:url(#radialGradient2476);fill-opacity:1;stroke:none"
       id="rect3552"
       y="40"
       x="38"
       height="7"
       width="5" />
    <rect
       style="fill:url(#radialGradient2478);fill-opacity:1;stroke:none"
       id="rect3554"
       transform="scale(-1,-1)"
       y="-47"
       x="-10"
       height="7"
       width="5" />
    <rect
       style="fill:url(#linearGradient2480);fill-opacity:1;stroke:none"
       id="rect3556"
       y="40"
       x="10"
       height="7.0000005"
       width="28" />
  </g>
  <path
     style="fill:url(#radialGradient2492);fill-opacity:1;stroke:#0f5a00;stroke-width:1.00000012;stroke-linecap:round;stroke-linejoin:round;stroke-miterlimit:4;stroke-opacity:0.49803922;stroke-dasharray:none;stroke-dashoffset:0"
     id="rect3558"
     d="m 37.697366,4.5000001 c -5.687056,0 -10.302633,4.6155784 -10.302633,10.3026339 0,3.554408 2.381556,6.661921 5.122218,8.513978 l 0,2.183388 -23.4380034,0 c -2.5367368,0 -4.5789474,1.647475 -4.5789474,4.184212 l 0,22.25082 c 1.8881311,-2.369334 4.7502754,-3.935034 8.0131568,-3.935034 5.687051,0 10.302632,4.615581 10.302632,10.302634 0,5.687051 -4.615581,10.302631 -10.302632,10.302631 -3.2628815,0 -6.1250258,-1.565701 -8.0131569,-3.935033 l 0,22.250821 c 0,2.536737 2.0422106,4.578948 4.5789474,4.578948 l 22.2508215,0 c -2.369333,-1.888131 -3.935036,-4.750277 -3.935036,-8.013158 0,-5.687052 4.615577,-10.302632 10.302633,-10.302632 5.687053,0 10.302632,4.61558 10.302632,10.302632 0,3.262881 -1.5657,6.125027 -3.935034,8.013158 l 22.250826,0 c 2.536734,0 4.168038,-2.042547 4.209336,-4.578948 l 0,-22.700714 2.158262,0 c 1.852059,2.740658 4.959571,4.384926 8.51398,4.384926 C 86.88442,68.605263 91.5,63.989684 91.5,58.302632 91.5,52.615579 86.88442,48 81.197368,48 c -3.554409,0 -6.712172,2.441283 -8.564229,5.181945 l -2.158265,0 0.05024,-23.497471 C 70.530514,27.147743 68.852314,25.531765 66.315779,25.5 L 42.5,25.5 l 0,-2.183388 c 2.740661,-1.852056 5.499986,-4.95957 5.499986,-8.513978 0,-5.6870555 -4.615578,-10.3026339 -10.302632,-10.3026339 z" />
  <path
     style="opacity:0.4;fill:none;stroke:url(#linearGradient2489);stroke-width:1.00000012;stroke-linecap:round;stroke-linejoin:round;stroke-miterlimit:4;stroke-opacity:1;stroke-dasharray:none;stroke-dashoffset:0"
     id="path3741"
     d="m 37.300361,5.5000001 c -4.788946,0 -8.950139,4.6366879 -8.950139,9.1158109 0,2.782102 1.405664,5.504174 3.569894,6.967576 0,0 1.635161,1.01052 1.632268,1.866226 L 33.516,24.26527 c 0.0465,1.92223 0.150674,2.294412 -2.145774,2.23473 l -22.8895481,0 c -1.2239042,0 -2.9806738,1.487363 -2.9806738,2.712 l 0,20.233423 c 0,0 2.5359311,-2.388014 6.3669959,-2.436423 7.216731,-0.09119 11.937869,4.760815 12.01302,11.429595 C 23.962418,65.750424 17.33817,69.568 12.57998,69.568 7.1100198,69.568 5.5,67.061 5.5,67.061 l 3.5e-6,20.188 C 5.5000037,88.473638 7.4260956,90.5 8.65,90.5 l 20.183466,0 C 27.67528,88.948572 26.28247,85.893242 26.28247,83.833665 c 0,-7.31229 5.780573,-11.708852 11.436557,-11.708852 5.871453,0 11.348172,4.352368 11.348172,11.664658 0,2.059577 -1.295206,4.982324 -2.503146,6.710529 l 19.486947,0 c 1.223906,0 3.449,-1.626363 3.449,-2.851 l 0,-23.03469 c -0.0763,-1.030896 0.401434,-1.513066 1.519866,-1.481058 l 1.632197,0 c 0.855197,-0.0029 1.239264,1.125948 1.883448,1.800586 1.894208,1.88603 4.266253,2.673096 7.046692,2.673096 4.933526,0 8.917793,-4.689216 8.917793,-9.168339 0,-4.479122 -3.545985,-9.433503 -9.06356,-9.433503 -2.78044,0 -4.79187,1.487426 -6.003606,2.526186 -1.100823,0.726775 -2.008922,2.745577 -2.818369,2.696922 l -1.599233,0 C 69.587438,54.21595 69.512178,54.175592 69.5,52.746943 L 69.5,29.212 C 69.5,27.987363 67.974906,26.5 66.751,26.5 l -23.520502,0 c -1.737148,0.07614 -1.90603,-0.275752 -1.874016,-2.057953 l 0.06564,-1.104271 c -0.07876,-0.741913 1.09529,-1.28003 1.948893,-2.003103 2.031648,-1.551791 3.613255,-4.155426 3.613255,-6.937528 0,-4.4791233 -4.082463,-8.8971449 -9.683909,-8.8971449 z" />
</svg>
