<?xml version="1.0" encoding="UTF-8" standalone="no"?>
<!-- Created with Inkscape (http://www.inkscape.org/) -->

<svg
   xmlns:dc="http://purl.org/dc/elements/1.1/"
   xmlns:cc="http://creativecommons.org/ns#"
   xmlns:rdf="http://www.w3.org/1999/02/22-rdf-syntax-ns#"
   xmlns:svg="http://www.w3.org/2000/svg"
   xmlns="http://www.w3.org/2000/svg"
   xmlns:xlink="http://www.w3.org/1999/xlink"
   xmlns:sodipodi="http://sodipodi.sourceforge.net/DTD/sodipodi-0.dtd"
   xmlns:inkscape="http://www.inkscape.org/namespaces/inkscape"
   width="96"
   height="96"
   id="svg4112"
   version="1.1"
   inkscape:version="0.48+devel r"
   sodipodi:docname="application-msword.svg">
  <defs
     id="defs4114">
    <linearGradient
       inkscape:collect="always"
       xlink:href="#linearGradient3977"
       id="linearGradient3988"
       gradientUnits="userSpaceOnUse"
       gradientTransform="matrix(1.3887299,0,0,1.7586849,2.2139983,-55.700735)"
       x1="23.99999"
       y1="5.5641499"
       x2="23.99999"
       y2="43" />
    <linearGradient
       id="linearGradient3977">
      <stop
         offset="0"
         style="stop-color:#ffffff;stop-opacity:1;"
         id="stop3979" />
      <stop
         id="stop3981"
         style="stop-color:#ffffff;stop-opacity:0.23529412;"
         offset="0.03626217" />
      <stop
         offset="0.95056331"
         style="stop-color:#ffffff;stop-opacity:0.15686275;"
         id="stop3983" />
      <stop
         offset="1"
         style="stop-color:#ffffff;stop-opacity:0.39215687;"
         id="stop3985" />
    </linearGradient>
    <radialGradient
       inkscape:collect="always"
       xlink:href="#linearGradient5060"
       id="radialGradient3327"
       gradientUnits="userSpaceOnUse"
       gradientTransform="matrix(0.02303995,0,0,0.01470022,26.360882,21.040177)"
       cx="1202.5675"
       cy="1626.2084"
       fx="1202.5675"
       fy="1626.2084"
       r="117.14286" />
    <linearGradient
       id="linearGradient5060">
      <stop
         id="stop5062"
         style="stop-color:#000000;stop-opacity:1"
         offset="0" />
      <stop
         id="stop5064"
         style="stop-color:#000000;stop-opacity:0"
         offset="1" />
    </linearGradient>
    <radialGradient
       inkscape:collect="always"
       xlink:href="#linearGradient5060"
       id="radialGradient3330"
       gradientUnits="userSpaceOnUse"
       gradientTransform="matrix(-0.02303994,0,0,0.01470022,21.623111,21.040177)"
       cx="497.19547"
       cy="1592.1917"
       fx="497.19547"
       fy="1592.1917"
       r="117.14286" />
    <linearGradient
       id="linearGradient5048">
      <stop
         id="stop5050"
         style="stop-color:#000000;stop-opacity:0"
         offset="0" />
      <stop
         id="stop5056"
         style="stop-color:#000000;stop-opacity:1"
         offset="0.5" />
      <stop
         id="stop5052"
         style="stop-color:#000000;stop-opacity:0"
         offset="1" />
    </linearGradient>
    <linearGradient
       y2="1768.3867"
       x2="477.40265"
       y1="1438.1749"
       x1="477.40265"
       gradientTransform="matrix(0.06732488,0,0,0.01470022,-0.34113915,21.040146)"
       gradientUnits="userSpaceOnUse"
       id="linearGradient4110"
       xlink:href="#linearGradient5048"
       inkscape:collect="always" />
    <linearGradient
       inkscape:collect="always"
       xlink:href="#linearGradient2508-790"
       id="linearGradient3060"
       gradientUnits="userSpaceOnUse"
       gradientTransform="matrix(1.5052213,0,0,1.5083281,-0.64711777,-46.882017)"
       x1="24.239185"
       y1="44.110138"
       x2="24.239185"
       y2="0.19081046" />
    <linearGradient
       id="linearGradient2508-790">
      <stop
         id="stop3686"
         style="stop-color:#294351;stop-opacity:1"
         offset="0" />
      <stop
         id="stop3688"
         style="stop-color:#637a87;stop-opacity:1"
         offset="1" />
    </linearGradient>
    <linearGradient
       inkscape:collect="always"
       xlink:href="#linearGradient3759"
       id="linearGradient3077"
       gradientUnits="userSpaceOnUse"
       spreadMethod="reflect"
       x1="26.188938"
       y1="30.4547"
       x2="44.250275"
       y2="16.134642"
       gradientTransform="matrix(1.5106349,0,0,1.5127175,-0.34080769,-47.25647)" />
    <linearGradient
       id="linearGradient3759">
      <stop
         id="stop3761"
         style="stop-color:#000000;stop-opacity:1"
         offset="0" />
      <stop
         id="stop3763"
         style="stop-color:#000000;stop-opacity:0"
         offset="1" />
    </linearGradient>
    <linearGradient
       inkscape:collect="always"
       xlink:href="#linearGradient5293"
       id="linearGradient3083"
       gradientUnits="userSpaceOnUse"
       gradientTransform="matrix(1.8201222,0,0,1.397134,-98.368345,-41.214262)"
       spreadMethod="reflect"
       x1="75.854454"
       y1="28"
       x2="91"
       y2="12" />
    <linearGradient
       id="linearGradient5293">
      <stop
         id="stop5295"
         style="stop-color:#ffffff;stop-opacity:1"
         offset="0" />
      <stop
         id="stop5297"
         style="stop-color:#ffffff;stop-opacity:0"
         offset="1" />
    </linearGradient>
    <linearGradient
       inkscape:collect="always"
       xlink:href="#linearGradient4000"
       id="linearGradient3086"
       gradientUnits="userSpaceOnUse"
       gradientTransform="matrix(1.7933718,0,0,1.3904207,-96.412562,-39.649543)"
       spreadMethod="reflect"
       x1="75.854454"
       y1="28"
       x2="91"
       y2="12" />
    <linearGradient
       id="linearGradient4000">
      <stop
         id="stop4002"
         style="stop-color:#000000;stop-opacity:1"
         offset="0" />
      <stop
         id="stop4004"
         style="stop-color:#000000;stop-opacity:0"
         offset="1" />
    </linearGradient>
    <radialGradient
       r="18.000002"
       fy="11.49049"
       fx="14.239056"
       cy="11.49049"
       cx="14.239056"
       gradientTransform="matrix(0,4.808308,-8.0041372,0,111.73468,-107.014)"
       gradientUnits="userSpaceOnUse"
       id="radialGradient3144-7"
       xlink:href="#linearGradient2867-449-88-871-390-598-476-591-434-148-895-534-212-357-729-6"
       inkscape:collect="always" />
    <linearGradient
       id="linearGradient2867-449-88-871-390-598-476-591-434-148-895-534-212-357-729-6">
      <stop
         id="stop8022-5"
         style="stop-color:#85c2cf;stop-opacity:1"
         offset="0" />
      <stop
         id="stop8024-6"
         style="stop-color:#74a4be;stop-opacity:1"
         offset="0.26238" />
      <stop
         id="stop8026-9"
         style="stop-color:#5177a0;stop-opacity:1"
         offset="0.704952" />
      <stop
         id="stop8028-3"
         style="stop-color:#2c5889;stop-opacity:1"
         offset="1" />
    </linearGradient>
    <linearGradient
       y2="2.9062471"
       x2="-51.786404"
       y1="53.623615"
       x1="-51.786404"
       gradientTransform="matrix(1.2198328,0,0,1.3536283,89.406361,-51.765201)"
       gradientUnits="userSpaceOnUse"
       id="linearGradient3146-7"
       xlink:href="#linearGradient2508-4"
       inkscape:collect="always" />
    <linearGradient
       id="linearGradient2508-4">
      <stop
         id="stop2510-5"
         style="stop-color:#2e4a5a;stop-opacity:1"
         offset="0" />
      <stop
         id="stop2512-2"
         style="stop-color:#6e8796;stop-opacity:1"
         offset="1" />
    </linearGradient>
    <linearGradient
       id="linearGradient8265-821-176-38-919-66-249-48-321">
      <stop
         id="stop5601"
         style="stop-color:#ffffff;stop-opacity:1"
         offset="0" />
      <stop
         id="stop5603"
         style="stop-color:#ffffff;stop-opacity:0"
         offset="1" />
    </linearGradient>
    <linearGradient
       y2="24.627615"
       x2="20.054544"
       y1="15.298182"
       x1="16.626165"
       gradientTransform="matrix(1.1347525,0,0,2.1245237,8.4963892,-58.943431)"
       gradientUnits="userSpaceOnUse"
       id="linearGradient3055"
       xlink:href="#linearGradient8265-821-176-38-919-66-249-48-321"
       inkscape:collect="always" />
    <radialGradient
       inkscape:collect="always"
       xlink:href="#linearGradient5060-6"
       id="radialGradient3088"
       gradientUnits="userSpaceOnUse"
       gradientTransform="matrix(0.04732263,0,0,0.03114404,52.865049,27.549525)"
       cx="605.71429"
       cy="486.64789"
       fx="605.71429"
       fy="486.64789"
       r="117.14286" />
    <linearGradient
       id="linearGradient5060-6">
      <stop
         id="stop5062-4"
         style="stop-color:#000000;stop-opacity:1"
         offset="0" />
      <stop
         id="stop5064-9"
         style="stop-color:#000000;stop-opacity:0"
         offset="1" />
    </linearGradient>
    <radialGradient
       inkscape:collect="always"
       xlink:href="#linearGradient5060-6"
       id="radialGradient3091"
       gradientUnits="userSpaceOnUse"
       gradientTransform="matrix(-0.04732262,0,0,0.03114404,43.133951,27.549525)"
       cx="605.71429"
       cy="486.64789"
       fx="605.71429"
       fy="486.64789"
       r="117.14286" />
    <linearGradient
       id="linearGradient3111">
      <stop
         id="stop3113"
         style="stop-color:#000000;stop-opacity:1"
         offset="0" />
      <stop
         id="stop3115"
         style="stop-color:#000000;stop-opacity:0"
         offset="1" />
    </linearGradient>
    <linearGradient
       inkscape:collect="always"
       xlink:href="#linearGradient5048-9"
       id="linearGradient3094"
       gradientUnits="userSpaceOnUse"
       gradientTransform="matrix(0.09153846,0,0,0.02058823,-1.084616,49.45137)"
       x1="302.85715"
       y1="366.64789"
       x2="302.85715"
       y2="609.50507" />
    <linearGradient
       id="linearGradient5048-9">
      <stop
         id="stop5050-5"
         style="stop-color:#000000;stop-opacity:0"
         offset="0" />
      <stop
         id="stop5056-6"
         style="stop-color:#000000;stop-opacity:1"
         offset="0.5" />
      <stop
         id="stop5052-0"
         style="stop-color:#000000;stop-opacity:0"
         offset="1" />
    </linearGradient>
    <linearGradient
       y2="609.50507"
       x2="302.85715"
       y1="366.64789"
       x1="302.85715"
       gradientTransform="matrix(0.13828134,0,0,0.03114404,-1.9792667,27.549469)"
       gradientUnits="userSpaceOnUse"
       id="linearGradient3125"
       xlink:href="#linearGradient5048-9"
       inkscape:collect="always" />
  </defs>
  <sodipodi:namedview
     id="base"
     pagecolor="#ffffff"
     bordercolor="#666666"
     borderopacity="1.0"
     inkscape:pageopacity="0.0"
     inkscape:pageshadow="2"
     inkscape:zoom="5.6562501"
     inkscape:cx="38.229552"
     inkscape:cy="49.375819"
     inkscape:current-layer="layer1"
     showgrid="true"
     inkscape:grid-bbox="true"
     inkscape:document-units="px"
     inkscape:window-width="1535"
     inkscape:window-height="876"
     inkscape:window-x="65"
     inkscape:window-y="24"
     inkscape:window-maximized="1"
     showguides="true"
     inkscape:guide-bbox="true">
    <inkscape:grid
       type="xygrid"
       id="grid3820"
       empspacing="5"
       visible="true"
       enabled="true"
       snapvisiblegridlinesonly="true" />
  </sodipodi:namedview>
  <metadata
     id="metadata4117">
    <rdf:RDF>
      <cc:Work
         rdf:about="">
        <dc:format>image/svg+xml</dc:format>
        <dc:type
           rdf:resource="http://purl.org/dc/dcmitype/StillImage" />
        <dc:title></dc:title>
      </cc:Work>
    </rdf:RDF>
  </metadata>
  <g
     id="layer1"
     inkscape:label="Layer 1"
     inkscape:groupmode="layer"
     transform="translate(0,48)">
    <path
       inkscape:connector-curvature="0"
       style="color:#000000;fill:url(#radialGradient3144-7);fill-opacity:1;fill-rule:nonzero;stroke:url(#linearGradient3146-7);stroke-width:0.99992222;stroke-linecap:butt;stroke-linejoin:round;stroke-miterlimit:4;stroke-opacity:1;stroke-dasharray:none;stroke-dashoffset:0;marker:none;visibility:visible;display:inline;overflow:visible;enable-background:accumulate"
       id="path4160"
       d="m 12.499528,-46.500037 c 16.269691,0 70.999869,0.0045 70.999869,0.0045 l 8.5e-5,88.995377 c 0,0 -47.3333,0 -70.999954,0 0,-29.667019 0,-59.33403 0,-89.001047 z"
       sodipodi:nodetypes="ccccc" />
    <path
       inkscape:connector-curvature="0"
       style="opacity:0.1;fill:url(#linearGradient3086);fill-opacity:1;fill-rule:nonzero;stroke:none;stroke-width:0.91176528;marker:none;visibility:visible;display:inline;overflow:visible;enable-background:accumulate"
       id="path3743"
       d="M 37.679953,-19.190713 C 29.623375,-8.8398779 21.570442,1.5240995 13.51389,11.874937 c 0,10.539366 0,21.092247 0,31.631628 19.136962,0 38.273747,0 57.410686,0 5.294622,-6.802395 6.110726,-7.839334 11.56052,-14.841096 0,-9.557716 0,-19.0787336 0,-28.67597375 C 66.671592,-6.7827513 47.948925,-14.792954 37.679953,-19.190713 Z" />
    <path
       inkscape:connector-curvature="0"
       style="opacity:0.4;fill:url(#linearGradient3083);fill-opacity:1;fill-rule:nonzero;stroke:none;stroke-width:0.91176528;marker:none;visibility:visible;display:inline;overflow:visible;enable-background:accumulate"
       id="path3697"
       d="M 37.526531,-21 C 29.349779,-10.599188 21.176726,-0.18517555 13,10.215645 13,20.8059 13,31.409728 13,42 32.422414,42 51.844649,42 71.26704,42 76.640638,35.164762 77.468915,34.122819 83,27.087244 83,17.483382 83,7.9163975 83,-1.7271874 66.950617,-8.532126 47.948678,-16.581008 37.526531,-21 Z" />
    <path
       inkscape:connector-curvature="0"
       style="opacity:0.1;fill:none;stroke:url(#linearGradient3077);stroke-width:0.99999982px;stroke-linecap:butt;stroke-linejoin:miter;stroke-opacity:1"
       id="path3475"
       d="M 38.430299,-10.570195 76.201268,6.1796569 38.430299,-10.570195 Z M 34.404868,-5.2148554 78.324597,14.261724 34.404868,-5.2148554 Z M 30.316038,0.2248166 44.370349,6.4573289 30.316038,0.2248166 Z M 26.290604,5.5801575 70.210333,25.056734 26.290604,5.5801575 Z M 22.201774,11.019834 61.729537,28.548751 22.201774,11.019834 Z M 18.144638,16.417339 54.158822,32.388138 18.144638,16.417339 Z M 14.119211,21.772684 57.160544,40.85972 14.119211,21.772684 Z" />
    <path
       inkscape:connector-curvature="0"
       style="font-size:30.51395607px;font-style:normal;font-variant:normal;font-weight:bold;font-stretch:normal;opacity:0.4;fill:#ffffff;fill-opacity:1;stroke:none;font-family:Droid Sans;-inkscape-font-specification:Droid Sans Bold"
       id="text2616"
       d="m 64.356128,21 c -3.214586,0 -6.429174,0 -9.643815,0 C 52.940731,13.78303 51.036102,6.5958421 49.356164,-0.64163714 48.819732,-2.9210208 48.254906,-6.8214633 47.940038,-8.2268039 46.914138,-0.41686583 44.683138,7.147235 42.855935,14.79039 42.342298,16.860258 41.828686,18.93013 41.315084,21 38.091345,21 34.867606,21 31.64387,21 28.429228,7.6792516 25.214638,-5.6414866 22,-18.962228 c 2.785408,0 5.57077,0 8.35618,0 2.233649,10.9766005 4.758851,21.8986633 6.520522,32.964739 0.747016,-5.225911 1.687437,-10.4244379 3.064344,-15.5240866 1.444347,-5.8135528 2.888644,-11.6271034 4.33294,-17.4406524 2.484016,0 4.968011,0 7.452027,0 1.896418,7.710162 3.865353,15.403982 5.715751,23.1245294 0.658573,3.2639451 1.181609,6.5532356 1.708927,9.8402096 1.66185,-10.8810556 4.194895,-21.60148 6.37253,-32.386289 -0.0459,-1.047918 1.289954,-0.401234 1.954009,-0.57845 2.174233,0 4.348477,0 6.52277,0 C 70.785361,-5.6414866 67.570771,7.6792516 64.356128,21 Z" />
    <path
       inkscape:connector-curvature="0"
       style="font-size:30.51395607px;font-style:normal;font-variant:normal;font-weight:bold;font-stretch:normal;fill:url(#linearGradient3060);fill-opacity:1;stroke:none;font-family:Droid Sans;-inkscape-font-specification:Droid Sans Bold"
       id="text2612"
       d="m 64.356128,20 c -3.214586,0 -6.429174,0 -9.643815,0 C 52.940731,12.783032 51.036102,5.5958466 49.356164,-1.6416355 48.819732,-3.9210154 48.254906,-7.8214683 47.940038,-9.2268041 46.914138,-1.4168665 44.683138,6.1472335 42.855935,13.790394 42.342298,15.860264 41.828686,17.93013 41.315084,20 38.091345,20 34.867606,20 31.64387,20 28.429228,6.6792514 25.214638,-6.6414865 22,-19.962227 c 2.785408,0 5.57077,0 8.35618,0 2.233649,10.9766001 4.758851,21.8986641 6.520522,32.964739 0.747016,-5.2259148 1.687437,-10.4244391 3.064344,-15.5240922 1.444347,-5.8135474 2.888644,-11.6270958 4.33294,-17.4406468 2.484016,0 4.968011,0 7.452027,0 1.896418,7.710164 3.865353,15.4039812 5.715751,23.1245286 0.658573,3.2639448 1.181609,6.5532324 1.708927,9.8402104 1.66185,-10.8810538 4.194895,-21.6014808 6.37253,-32.386289 -0.0459,-1.04792 1.289954,-0.401234 1.954009,-0.57845 2.174233,0 4.348477,0 6.52277,0 C 70.785361,-6.6414865 67.570771,6.6792514 64.356128,20 Z" />
    <path
       style="opacity:0.5;fill:none;stroke:url(#linearGradient3988);stroke-width:0.99999982;stroke-linecap:round;stroke-linejoin:round;stroke-miterlimit:4;stroke-opacity:1;stroke-dasharray:none;stroke-dashoffset:0"
       d="M 82.499998,41.5 13.5,41.5 l 0,-87.000001 68.999998,0 z"
       id="rect6741-1"
       inkscape:connector-curvature="0"
       sodipodi:nodetypes="ccccc" />
    <path
       inkscape:connector-curvature="0"
       style="opacity:0.2;fill:url(#linearGradient3055);fill-opacity:1;fill-rule:evenodd;stroke:none"
       id="path3879"
       d="m 13,-46 0,51.6611006 c 0.0044,0.3823357 0.09415,0.7438928 0.247996,0.9969083 0.153833,0.2530194 0.357476,0.3743608 0.561524,0.3345626 L 82.380937,-13.245803 C 82.733688,-13.349508 82.995088,-13.911701 83,-14.577275 L 83,-46 Z"
       sodipodi:nodetypes="ccsccccc" />
    <rect
       style="opacity:0.3;fill:url(#linearGradient3125);fill-opacity:1;fill-rule:nonzero;stroke:none;stroke-width:1;marker:none;visibility:visible;display:inline;overflow:visible"
       id="rect2879"
       y="38.968414"
       x="14.61447"
       height="7.5635862"
       width="66.769997" />
    <path
       inkscape:connector-curvature="0"
       style="opacity:0.3;fill:url(#radialGradient3091);fill-opacity:1;fill-rule:nonzero;stroke:none;stroke-width:1;marker:none;visibility:visible;display:inline;overflow:visible"
       id="path2881"
       d="m 14.614475,38.968737 c 0,0 0,7.563171 0,7.563171 C 12.177478,46.546117 8.723,44.837375 8.723,42.749828 c 0,-2.087548 2.719505,-3.78109 5.891475,-3.781091 z" />
    <path
       inkscape:connector-curvature="0"
       style="opacity:0.3;fill:url(#radialGradient3088);fill-opacity:1;fill-rule:nonzero;stroke:none;stroke-width:1;marker:none;visibility:visible;display:inline;overflow:visible"
       id="path2883"
       d="m 81.384525,38.968737 c 0,0 0,7.563171 0,7.563171 2.43699,0.01413 5.891475,-1.694533 5.891475,-3.78208 0,-2.087548 -2.719505,-3.78109 -5.891475,-3.781091 z" />
  </g>
</svg>
