<?xml version="1.0" encoding="UTF-8" standalone="no"?>
<!-- Created with Inkscape (http://www.inkscape.org/) -->

<svg
   xmlns:dc="http://purl.org/dc/elements/1.1/"
   xmlns:cc="http://creativecommons.org/ns#"
   xmlns:rdf="http://www.w3.org/1999/02/22-rdf-syntax-ns#"
   xmlns:svg="http://www.w3.org/2000/svg"
   xmlns="http://www.w3.org/2000/svg"
   xmlns:xlink="http://www.w3.org/1999/xlink"
   xmlns:sodipodi="http://sodipodi.sourceforge.net/DTD/sodipodi-0.dtd"
   xmlns:inkscape="http://www.inkscape.org/namespaces/inkscape"
   width="96"
   height="96"
   id="svg4112"
   version="1.1"
   inkscape:version="0.48+devel r"
   sodipodi:docname="application-msword.svg">
  <defs
     id="defs4114">
    <linearGradient
       inkscape:collect="always"
       xlink:href="#linearGradient3977"
       id="linearGradient3988"
       gradientUnits="userSpaceOnUse"
       gradientTransform="matrix(1.3887299,0,0,1.7586849,2.2139983,-55.700735)"
       x1="23.99999"
       y1="5.5641499"
       x2="23.99999"
       y2="43" />
    <linearGradient
       id="linearGradient3977">
      <stop
         offset="0"
         style="stop-color:#ffffff;stop-opacity:1;"
         id="stop3979" />
      <stop
         id="stop3981"
         style="stop-color:#ffffff;stop-opacity:0.23529412;"
         offset="0.03626217" />
      <stop
         offset="0.95056331"
         style="stop-color:#ffffff;stop-opacity:0.15686275;"
         id="stop3983" />
      <stop
         offset="1"
         style="stop-color:#ffffff;stop-opacity:0.39215687;"
         id="stop3985" />
    </linearGradient>
    <radialGradient
       inkscape:collect="always"
       xlink:href="#linearGradient5060"
       id="radialGradient3327"
       gradientUnits="userSpaceOnUse"
       gradientTransform="matrix(0.02303995,0,0,0.01470022,26.360882,21.040177)"
       cx="1202.5675"
       cy="1626.2084"
       fx="1202.5675"
       fy="1626.2084"
       r="117.14286" />
    <linearGradient
       id="linearGradient5060">
      <stop
         id="stop5062"
         style="stop-color:#000000;stop-opacity:1"
         offset="0" />
      <stop
         id="stop5064"
         style="stop-color:#000000;stop-opacity:0"
         offset="1" />
    </linearGradient>
    <radialGradient
       inkscape:collect="always"
       xlink:href="#linearGradient5060"
       id="radialGradient3330"
       gradientUnits="userSpaceOnUse"
       gradientTransform="matrix(-0.02303994,0,0,0.01470022,21.623111,21.040177)"
       cx="497.19547"
       cy="1592.1917"
       fx="497.19547"
       fy="1592.1917"
       r="117.14286" />
    <linearGradient
       id="linearGradient5048">
      <stop
         id="stop5050"
         style="stop-color:#000000;stop-opacity:0"
         offset="0" />
      <stop
         id="stop5056"
         style="stop-color:#000000;stop-opacity:1"
         offset="0.5" />
      <stop
         id="stop5052"
         style="stop-color:#000000;stop-opacity:0"
         offset="1" />
    </linearGradient>
    <linearGradient
       y2="1768.3867"
       x2="477.40265"
       y1="1438.1749"
       x1="477.40265"
       gradientTransform="matrix(0.06732488,0,0,0.01470022,-0.34113915,21.040146)"
       gradientUnits="userSpaceOnUse"
       id="linearGradient4110"
       xlink:href="#linearGradient5048"
       inkscape:collect="always" />
    <linearGradient
       inkscape:collect="always"
       xlink:href="#linearGradient2508-790"
       id="linearGradient3060"
       gradientUnits="userSpaceOnUse"
       gradientTransform="matrix(1.6210076,0,0,1.6591609,-4.3892038,-50.570219)"
       x1="24.239185"
       y1="44.110138"
       x2="24.239185"
       y2="0.19081046" />
    <linearGradient
       id="linearGradient2508-790">
      <stop
         id="stop3686"
         style="stop-color:#294351;stop-opacity:1"
         offset="0" />
      <stop
         id="stop3688"
         style="stop-color:#637a87;stop-opacity:1"
         offset="1" />
    </linearGradient>
    <linearGradient
       inkscape:collect="always"
       xlink:href="#linearGradient3759"
       id="linearGradient3077"
       gradientUnits="userSpaceOnUse"
       spreadMethod="reflect"
       x1="26.188938"
       y1="30.4547"
       x2="44.250275"
       y2="16.134642"
       gradientTransform="matrix(1.5106349,0,0,1.5127175,-0.34080769,-47.25647)" />
    <linearGradient
       id="linearGradient3759">
      <stop
         id="stop3761"
         style="stop-color:#000000;stop-opacity:1"
         offset="0" />
      <stop
         id="stop3763"
         style="stop-color:#000000;stop-opacity:0"
         offset="1" />
    </linearGradient>
    <linearGradient
       inkscape:collect="always"
       xlink:href="#linearGradient5293"
       id="linearGradient3083"
       gradientUnits="userSpaceOnUse"
       gradientTransform="matrix(1.8201222,0,0,1.3749573,-98.368345,-39.893401)"
       spreadMethod="reflect"
       x1="84.262665"
       y1="38.469124"
       x2="103.49214"
       y2="16.650263" />
    <linearGradient
       id="linearGradient5293">
      <stop
         id="stop5295"
         style="stop-color:#ffffff;stop-opacity:1"
         offset="0" />
      <stop
         id="stop5297"
         style="stop-color:#ffffff;stop-opacity:0"
         offset="1" />
    </linearGradient>
    <linearGradient
       inkscape:collect="always"
       xlink:href="#linearGradient4000"
       id="linearGradient3086"
       gradientUnits="userSpaceOnUse"
       gradientTransform="matrix(1.8201222,0,0,1.3749573,-98.566146,-38.531299)"
       spreadMethod="reflect"
       x1="75.854454"
       y1="28"
       x2="91"
       y2="12" />
    <linearGradient
       id="linearGradient4000">
      <stop
         id="stop4002"
         style="stop-color:#000000;stop-opacity:1"
         offset="0" />
      <stop
         id="stop4004"
         style="stop-color:#000000;stop-opacity:0"
         offset="1" />
    </linearGradient>
    <radialGradient
       r="18.000002"
       fy="11.461144"
       fx="14.353076"
       cy="11.461144"
       cx="14.353076"
       gradientTransform="matrix(4.992155e-8,4.7777773,-8.068709,8.4307502e-8,112.47664,-106.5758)"
       gradientUnits="userSpaceOnUse"
       id="radialGradient3144-7"
       xlink:href="#linearGradient2867-449-88-871-390-598-476-591-434-148-895-534-212-357-729-6"
       inkscape:collect="always" />
    <linearGradient
       id="linearGradient2867-449-88-871-390-598-476-591-434-148-895-534-212-357-729-6">
      <stop
         id="stop8022-5"
         style="stop-color:#85c2cf;stop-opacity:1"
         offset="0" />
      <stop
         id="stop8024-6"
         style="stop-color:#74a4be;stop-opacity:1"
         offset="0.25419348" />
      <stop
         id="stop8026-9"
         style="stop-color:#5177a0;stop-opacity:1"
         offset="0.70930237" />
      <stop
         id="stop8028-3"
         style="stop-color:#2c5889;stop-opacity:1"
         offset="1" />
    </linearGradient>
    <linearGradient
       y2="2.7815619"
       x2="-51.979549"
       y1="70.008286"
       x1="-51.159767"
       gradientTransform="matrix(1.2198328,0,0,1.3536283,89.406361,-51.765201)"
       gradientUnits="userSpaceOnUse"
       id="linearGradient3146-7"
       xlink:href="#linearGradient2508-4"
       inkscape:collect="always" />
    <linearGradient
       id="linearGradient2508-4">
      <stop
         id="stop2510-5"
         style="stop-color:#2e4a5a;stop-opacity:1"
         offset="0" />
      <stop
         id="stop2512-2"
         style="stop-color:#6e8796;stop-opacity:1"
         offset="1" />
    </linearGradient>
    <linearGradient
       id="linearGradient8265-821-176-38-919-66-249-48-321">
      <stop
         id="stop5601"
         style="stop-color:#ffffff;stop-opacity:1"
         offset="0" />
      <stop
         id="stop5603"
         style="stop-color:#ffffff;stop-opacity:0"
         offset="1" />
    </linearGradient>
    <linearGradient
       y2="24.627615"
       x2="20.054544"
       y1="15.298182"
       x1="16.626165"
       gradientTransform="matrix(1.1347525,0,0,2.1245237,8.4963892,-58.943431)"
       gradientUnits="userSpaceOnUse"
       id="linearGradient3055"
       xlink:href="#linearGradient8265-821-176-38-919-66-249-48-321"
       inkscape:collect="always" />
    <radialGradient
       inkscape:collect="always"
       xlink:href="#linearGradient5060-6"
       id="radialGradient3088"
       gradientUnits="userSpaceOnUse"
       gradientTransform="matrix(0.04732263,0,0,0.03114404,52.865049,27.549525)"
       cx="605.71429"
       cy="486.64789"
       fx="605.71429"
       fy="486.64789"
       r="117.14286" />
    <linearGradient
       id="linearGradient5060-6">
      <stop
         id="stop5062-4"
         style="stop-color:#000000;stop-opacity:1"
         offset="0" />
      <stop
         id="stop5064-9"
         style="stop-color:#000000;stop-opacity:0"
         offset="1" />
    </linearGradient>
    <radialGradient
       inkscape:collect="always"
       xlink:href="#linearGradient5060-6"
       id="radialGradient3091"
       gradientUnits="userSpaceOnUse"
       gradientTransform="matrix(-0.04732262,0,0,0.03114404,43.133951,27.549525)"
       cx="605.71429"
       cy="486.64789"
       fx="605.71429"
       fy="486.64789"
       r="117.14286" />
    <linearGradient
       id="linearGradient3111">
      <stop
         id="stop3113"
         style="stop-color:#000000;stop-opacity:1"
         offset="0" />
      <stop
         id="stop3115"
         style="stop-color:#000000;stop-opacity:0"
         offset="1" />
    </linearGradient>
    <linearGradient
       inkscape:collect="always"
       xlink:href="#linearGradient5048-9"
       id="linearGradient3094"
       gradientUnits="userSpaceOnUse"
       gradientTransform="matrix(0.09153846,0,0,0.02058823,-1.084616,49.45137)"
       x1="302.85715"
       y1="366.64789"
       x2="302.85715"
       y2="609.50507" />
    <linearGradient
       id="linearGradient5048-9">
      <stop
         id="stop5050-5"
         style="stop-color:#000000;stop-opacity:0"
         offset="0" />
      <stop
         id="stop5056-6"
         style="stop-color:#000000;stop-opacity:1"
         offset="0.5" />
      <stop
         id="stop5052-0"
         style="stop-color:#000000;stop-opacity:0"
         offset="1" />
    </linearGradient>
    <linearGradient
       y2="609.50507"
       x2="302.85715"
       y1="366.64789"
       x1="302.85715"
       gradientTransform="matrix(0.13828134,0,0,0.03114404,-1.9792667,27.549469)"
       gradientUnits="userSpaceOnUse"
       id="linearGradient3125"
       xlink:href="#linearGradient5048-9"
       inkscape:collect="always" />
  </defs>
  <sodipodi:namedview
     id="base"
     pagecolor="#ffffff"
     bordercolor="#666666"
     borderopacity="1.0"
     inkscape:pageopacity="0.0"
     inkscape:pageshadow="2"
     inkscape:zoom="5.6562501"
     inkscape:cx="27.732151"
     inkscape:cy="49.337083"
     inkscape:current-layer="layer1"
     showgrid="true"
     inkscape:grid-bbox="true"
     inkscape:document-units="px"
     inkscape:window-width="1535"
     inkscape:window-height="876"
     inkscape:window-x="65"
     inkscape:window-y="24"
     inkscape:window-maximized="1"
     showguides="true"
     inkscape:guide-bbox="true">
    <inkscape:grid
       type="xygrid"
       id="grid3820"
       empspacing="5"
       visible="true"
       enabled="true"
       snapvisiblegridlinesonly="true" />
  </sodipodi:namedview>
  <metadata
     id="metadata4117">
    <rdf:RDF>
      <cc:Work
         rdf:about="">
        <dc:format>image/svg+xml</dc:format>
        <dc:type
           rdf:resource="http://purl.org/dc/dcmitype/StillImage" />
        <dc:title />
      </cc:Work>
    </rdf:RDF>
  </metadata>
  <g
     id="layer1"
     inkscape:label="Layer 1"
     inkscape:groupmode="layer"
     transform="translate(0,48)">
    <g
       id="g4141">
      <rect
         width="66.769997"
         height="7.5635862"
         x="14.61447"
         y="38.968414"
         id="rect2879"
         style="opacity:0.3;fill:url(#linearGradient3125);fill-opacity:1;fill-rule:nonzero;stroke:none;stroke-width:1;marker:none;visibility:visible;display:inline;overflow:visible" />
      <path
         d="m 14.614475,38.968737 c 0,0 0,7.563171 0,7.563171 C 12.177478,46.546117 8.723,44.837375 8.723,42.749828 c 0,-2.087548 2.719505,-3.78109 5.891475,-3.781091 z"
         id="path2881"
         style="opacity:0.3;fill:url(#radialGradient3091);fill-opacity:1;fill-rule:nonzero;stroke:none;stroke-width:1;marker:none;visibility:visible;display:inline;overflow:visible"
         inkscape:connector-curvature="0" />
      <path
         d="m 81.384525,38.968737 c 0,0 0,7.563171 0,7.563171 2.43699,0.01413 5.891475,-1.694533 5.891475,-3.78208 0,-2.087548 -2.719505,-3.78109 -5.891475,-3.781091 z"
         id="path2883"
         style="opacity:0.3;fill:url(#radialGradient3088);fill-opacity:1;fill-rule:nonzero;stroke:none;stroke-width:1;marker:none;visibility:visible;display:inline;overflow:visible"
         inkscape:connector-curvature="0" />
    </g>
    <path
       inkscape:connector-curvature="0"
       style="color:#000000;fill:url(#radialGradient3144-7);fill-opacity:1;fill-rule:nonzero;stroke:url(#linearGradient3146-7);stroke-width:0.99992222;stroke-linecap:butt;stroke-linejoin:round;stroke-miterlimit:4;stroke-opacity:1;stroke-dasharray:none;stroke-dashoffset:0;marker:none;visibility:visible;display:inline;overflow:visible;enable-background:accumulate"
       id="path4160"
       d="m 12.499528,-46.500037 c 16.269691,0 70.999869,0.0045 70.999869,0.0045 l 8.5e-5,88.995377 c 0,0 -47.3333,0 -70.999954,0 0,-29.667019 0,-59.33403 0,-89.001047 z"
       sodipodi:nodetypes="ccccc" />
    <path
       inkscape:connector-curvature="0"
       style="opacity:0.1;fill:url(#linearGradient3086);fill-opacity:1;fill-rule:nonzero;stroke:none;stroke-width:0.91176528;marker:none;visibility:visible;display:inline;overflow:visible;enable-background:accumulate"
       id="path3743"
       d="M 37.526531,-18.3 C 29.349779,-8.0642805 21.176726,2.1844359 13,12.420157 13,22.842313 13,33.27783 13,43.7 c 19.422414,0 38.844649,0 58.26704,0 C 76.640638,36.973257 77.468915,35.947849 83,29.023958 83,19.572535 83,10.157404 83,0.6668985 66.950617,-6.0300315 47.948678,-13.95115 37.526531,-18.3 Z" />
    <path
       inkscape:connector-curvature="0"
       style="opacity:0.4;fill:url(#linearGradient3083);fill-opacity:1;fill-rule:nonzero;stroke:none;stroke-width:0.91176528;marker:none;visibility:visible;display:inline;overflow:visible;enable-background:accumulate"
       id="path3697"
       d="M 37.526531,-20 C 29.349779,-9.7642803 21.176726,0.48443041 13,10.720159 13,21.142314 13,31.577828 13,42 32.422414,42 51.844649,42 71.26704,42 76.640638,35.273258 77.468915,34.247854 83,27.323954 83,17.872535 83,8.4574071 83,-1.0331051 66.950617,-7.7300288 47.948678,-15.651151 37.526531,-20 Z" />
    <path
       inkscape:connector-curvature="0"
       style="opacity:0.1;fill:none;stroke:url(#linearGradient3077);stroke-width:0.99999982px;stroke-linecap:butt;stroke-linejoin:miter;stroke-opacity:1"
       id="path3475"
       d="M 38.430299,-10.570195 76.201268,6.1796569 38.430299,-10.570195 Z M 34.404868,-5.2148554 78.324597,14.261724 34.404868,-5.2148554 Z M 30.316038,0.2248166 44.370349,6.4573289 30.316038,0.2248166 Z M 26.290604,5.5801575 70.210333,25.056734 26.290604,5.5801575 Z M 22.201774,11.019834 61.729537,28.548751 22.201774,11.019834 Z M 18.144638,16.417339 54.158822,32.388138 18.144638,16.417339 Z M 14.119211,21.772684 57.160544,40.85972 14.119211,21.772684 Z" />
    <path
       inkscape:connector-curvature="0"
       style="font-size:30.51395607px;font-style:normal;font-variant:normal;font-weight:bold;font-stretch:normal;opacity:0.4;fill:#ffffff;fill-opacity:1;stroke:none;font-family:Droid Sans;-inkscape-font-specification:Droid Sans Bold"
       id="text2616"
       d="M 65.614292,24 C 62.15243,24 58.690566,24 55.228645,24 53.320787,16.061333 51.269648,8.1554263 49.460484,0.1941992 48.882788,-2.3131228 48.274514,-6.6036096 47.935426,-8.149484 46.83061,0.4414476 44.427995,8.7619585 42.460238,17.169429 41.90709,19.446284 41.35397,21.723143 40.80086,24 37.329141,24 33.857422,24 30.385706,24 26.923784,9.3471768 23.461918,-5.3056352 20,-19.958451 c 2.99967,0 5.999291,0 8.998963,0 2.405468,12.074261 5.124917,24.0885299 7.022101,36.261213 0.804478,-5.748502 1.81724,-11.4668816 3.300062,-17.0764951 1.555451,-6.3949079 3.110848,-12.7898139 4.666244,-19.1847179 2.675094,0 5.350165,0 8.025259,0 2.042297,8.481178 4.162688,16.9443804 6.155425,25.4369826 0.709232,3.5903396 1.272502,7.2085594 1.840382,10.8242304 1.789685,-11.969161 4.51758,-23.761628 6.862725,-35.624918 -0.04943,-1.15271 1.389181,-0.441357 2.104317,-0.636295 2.341482,0 4.682976,0 7.024522,0 C 72.538081,-5.3056352 69.076215,9.3471768 65.614292,24 Z" />
    <path
       inkscape:connector-curvature="0"
       style="font-size:30.51395607px;font-style:normal;font-variant:normal;font-weight:bold;font-stretch:normal;fill:url(#linearGradient3060);fill-opacity:1;stroke:none;font-family:Droid Sans;-inkscape-font-specification:Droid Sans Bold"
       id="text2612"
       d="M 65.614292,23 C 62.15243,23 58.690566,23 55.228645,23 53.320787,15.061335 51.269648,7.1554312 49.460484,-0.8057991 48.882788,-3.313117 48.274514,-7.603615 47.935426,-9.149485 46.83061,-0.5585532 44.427995,7.7619568 42.460238,16.169433 41.90709,18.44629 41.35397,20.723143 40.80086,23 37.329141,23 33.857422,23 30.385706,23 26.923784,8.3471765 23.461918,-6.3056353 20,-20.95845 c 2.99967,0 5.999291,0 8.998963,0 2.405468,12.07426 5.124917,24.0885307 7.022101,36.261213 0.804478,-5.7485061 1.81724,-11.4668829 3.300062,-17.0765013 1.555451,-6.3949017 3.110848,-12.7898057 4.666244,-19.1847117 2.675094,0 5.350165,0 8.025259,0 2.042297,8.481181 4.162688,16.9443795 6.155425,25.4369817 0.709232,3.5903393 1.272502,7.2085553 1.840382,10.8242313 1.789685,-11.9691591 4.51758,-23.761629 6.862725,-35.624918 -0.04943,-1.152712 1.389181,-0.441357 2.104317,-0.636295 2.341482,0 4.682976,0 7.024522,0 C 72.538081,-6.3056353 69.076215,8.3471765 65.614292,23 Z" />
    <path
       style="opacity:0.5;fill:none;stroke:url(#linearGradient3988);stroke-width:0.99999982;stroke-linecap:round;stroke-linejoin:round;stroke-miterlimit:4;stroke-opacity:1;stroke-dasharray:none;stroke-dashoffset:0"
       d="M 82.499998,41.5 13.5,41.5 l 0,-87.000001 68.999998,0 z"
       id="rect6741-1"
       inkscape:connector-curvature="0"
       sodipodi:nodetypes="ccccc" />
    <path
       inkscape:connector-curvature="0"
       style="opacity:0.2;fill:url(#linearGradient3055);fill-opacity:1;fill-rule:evenodd;stroke:none"
       id="path3879"
       d="m 13,-46 0,51.6611006 c 0.0044,0.3823357 0.09415,0.7438928 0.247996,0.9969083 0.153833,0.2530194 0.357476,0.3743608 0.561524,0.3345626 L 82.380937,-13.245803 C 82.733688,-13.349508 82.995088,-13.911701 83,-14.577275 L 83,-46 Z"
       sodipodi:nodetypes="ccsccccc" />
  </g>
</svg>
