<?xml version="1.0" encoding="UTF-8" standalone="no"?>
<!-- Created with Inkscape (http://www.inkscape.org/) -->

<svg
   xmlns:dc="http://purl.org/dc/elements/1.1/"
   xmlns:cc="http://creativecommons.org/ns#"
   xmlns:rdf="http://www.w3.org/1999/02/22-rdf-syntax-ns#"
   xmlns:svg="http://www.w3.org/2000/svg"
   xmlns="http://www.w3.org/2000/svg"
   xmlns:xlink="http://www.w3.org/1999/xlink"
   xmlns:sodipodi="http://sodipodi.sourceforge.net/DTD/sodipodi-0.dtd"
   xmlns:inkscape="http://www.inkscape.org/namespaces/inkscape"
   version="1.1"
   width="96"
   height="96"
   id="svg3912"
   inkscape:version="0.48+devel r"
   sodipodi:docname="application-x-sln.svg">
  <sodipodi:namedview
     pagecolor="#ffffff"
     bordercolor="#666666"
     borderopacity="1"
     objecttolerance="10"
     gridtolerance="10"
     guidetolerance="10"
     inkscape:pageopacity="0"
     inkscape:pageshadow="2"
     inkscape:window-width="1535"
     inkscape:window-height="876"
     id="namedview99735"
     showgrid="false"
     inkscape:zoom="3.6875"
     inkscape:cx="17.884754"
     inkscape:cy="66.864081"
     inkscape:window-x="65"
     inkscape:window-y="24"
     inkscape:window-maximized="1"
     inkscape:current-layer="svg3912"
     inkscape:snap-global="false">
    <inkscape:grid
       type="xygrid"
       id="grid4015" />
  </sodipodi:namedview>
  <defs
     id="defs3914">
    <linearGradient
       id="linearGradient3977-4">
      <stop
         id="stop3979-7"
         style="stop-color:#ffffff;stop-opacity:1"
         offset="0" />
      <stop
         id="stop3981-6"
         style="stop-color:#ffffff;stop-opacity:0.23529412"
         offset="0.03626217" />
      <stop
         id="stop3983-5"
         style="stop-color:#ffffff;stop-opacity:0.15686275"
         offset="0.95056331" />
      <stop
         id="stop3985-6"
         style="stop-color:#ffffff;stop-opacity:0.39215687"
         offset="1" />
    </linearGradient>
    <linearGradient
       inkscape:collect="always"
       xlink:href="#linearGradient3977-4"
       id="linearGradient3102"
       gradientUnits="userSpaceOnUse"
       gradientTransform="matrix(1.2344885,0,0,1.5586597,2.3723077,24.593984)"
       x1="23.99999"
       y1="5.5641499"
       x2="23.99999"
       y2="43" />
    <radialGradient
       inkscape:collect="always"
       xlink:href="#linearGradient3993"
       id="radialGradient3105"
       gradientUnits="userSpaceOnUse"
       gradientTransform="matrix(0.00248293,4.0196733,-6.6874531,0.004142,97.985308,-5.308456)"
       cx="11.463615"
       cy="10.074774"
       fx="10.933383"
       fy="10.074774"
       r="12.671875" />
    <linearGradient
       inkscape:collect="always"
       xlink:href="#linearGradient2490"
       id="linearGradient3107"
       gradientUnits="userSpaceOnUse"
       gradientTransform="matrix(1.342854,0,0,1.3407385,-0.2284909,31.83644)"
       x1="25"
       y1="44.717304"
       x2="25"
       y2="0.20685701" />
    <linearGradient
       id="linearGradient3993">
      <stop
         offset="0"
         style="stop-color:#a3c0d0;stop-opacity:1"
         id="stop3995" />
      <stop
         offset="1"
         style="stop-color:#427da1;stop-opacity:1"
         id="stop4001" />
    </linearGradient>
    <linearGradient
       id="linearGradient2490">
      <stop
         offset="0"
         style="stop-color:#2e4a5a;stop-opacity:1"
         id="stop2492" />
      <stop
         offset="1"
         style="stop-color:#6e8796;stop-opacity:1"
         id="stop2494" />
    </linearGradient>
    <linearGradient
       y2="609.50507"
       x2="302.85715"
       y1="366.64789"
       x1="302.85715"
       gradientTransform="matrix(0.14476034,0,0,0.02053005,-4.3728904,1036.6837)"
       gradientUnits="userSpaceOnUse"
       id="linearGradient4015"
       xlink:href="#linearGradient5048-9"
       inkscape:collect="always" />
    <linearGradient
       id="linearGradient5048-9">
      <stop
         id="stop5050-6"
         style="stop-color:#000000;stop-opacity:0"
         offset="0" />
      <stop
         id="stop5056-6"
         style="stop-color:#000000;stop-opacity:1"
         offset="0.5" />
      <stop
         id="stop5052-53"
         style="stop-color:#000000;stop-opacity:0"
         offset="1" />
    </linearGradient>
    <radialGradient
       inkscape:collect="always"
       xlink:href="#linearGradient5060-79"
       id="radialGradient3156-4"
       gradientUnits="userSpaceOnUse"
       gradientTransform="matrix(-0.03128083,0,0,0.02053005,31.850121,1036.6837)"
       cx="605.71429"
       cy="486.64789"
       fx="605.71429"
       fy="486.64789"
       r="117.14286" />
    <linearGradient
       id="linearGradient5060-79">
      <stop
         id="stop5062-7"
         style="stop-color:#000000;stop-opacity:1"
         offset="0" />
      <stop
         id="stop5064-2"
         style="stop-color:#000000;stop-opacity:0"
         offset="1" />
    </linearGradient>
    <radialGradient
       inkscape:collect="always"
       xlink:href="#linearGradient5060-79"
       id="radialGradient3153-5"
       gradientUnits="userSpaceOnUse"
       gradientTransform="matrix(0.03128083,0,0,0.02053005,64.045118,1036.6837)"
       cx="605.71429"
       cy="486.64789"
       fx="605.71429"
       fy="486.64789"
       r="117.14286" />
  </defs>
  <metadata
     id="metadata3917">
    <rdf:RDF>
      <cc:Work
         rdf:about="">
        <dc:format>image/svg+xml</dc:format>
        <dc:type
           rdf:resource="http://purl.org/dc/dcmitype/StillImage" />
        <dc:title></dc:title>
      </cc:Work>
    </rdf:RDF>
  </metadata>
  <g
     id="g4089"
     transform="matrix(1.0040259,0,0,1.0028296,-0.14065179,-959.16588)">
    <rect
       width="69.89856"
       height="4.9858918"
       x="12.998364"
       y="1044.2112"
       id="rect2879"
       style="opacity:0.3;fill:url(#linearGradient4015);fill-opacity:1;fill-rule:nonzero;stroke:none;stroke-width:1;marker:none;visibility:visible;display:inline;overflow:visible" />
    <path
       d="m 12.998348,1044.2116 c 0,0 0,4.9853 0,4.9853 -1.610891,0.013 -3.894348,-1.1179 -3.894348,-2.4937 0,-1.3758 1.797632,-2.4916 3.894348,-2.4916 z"
       id="path2881"
       style="opacity:0.3;fill:url(#radialGradient3156-4);fill-opacity:1;fill-rule:nonzero;stroke:none;stroke-width:1;marker:none;visibility:visible;display:inline;overflow:visible"
       inkscape:connector-curvature="0" />
    <path
       d="m 82.896898,1044.2116 c 0,0 0,4.9853 0,4.9853 1.610888,0.013 3.894344,-1.1179 3.894344,-2.4937 0,-1.3758 -1.797625,-2.4916 -3.894344,-2.4916 z"
       id="path2883"
       style="opacity:0.3;fill:url(#radialGradient3153-5);fill-opacity:1;fill-rule:nonzero;stroke:none;stroke-width:1;marker:none;visibility:visible;display:inline;overflow:visible"
       inkscape:connector-curvature="0" />
  </g>
  <g
     id="g4248"
     transform="matrix(1.5106229,0,0,1.5085804,-0.33996868,-47.534798)">
    <path
       d="m 8.5000081,32.50371 c 10.7700849,0 46.9999419,0 46.9999419,0 l 5.7e-5,58.99631 c 0,0 -31.333332,0 -46.9999989,0 0,-19.6667 0,-39.3334 0,-59.00006 z"
       id="path4160"
       style="color:#000000;fill:url(#radialGradient3105);fill-opacity:1;fill-rule:nonzero;stroke:url(#linearGradient3107);stroke-width:0.66242635;stroke-linecap:butt;stroke-linejoin:round;stroke-miterlimit:4;stroke-opacity:1;stroke-dasharray:none;stroke-dashoffset:0;marker:none;visibility:visible;display:inline;overflow:visible;enable-background:accumulate"
       inkscape:connector-curvature="0" />
    <path
       d="m 54.838062,90.837145 -45.6760753,0 0,-57.67056 45.6760753,0 z"
       id="rect6741-1-8"
       style="opacity:0.5;fill:none;stroke:url(#linearGradient3102);stroke-width:0.66242641;stroke-linecap:round;stroke-linejoin:miter;stroke-miterlimit:4;stroke-opacity:1;stroke-dasharray:none;stroke-dashoffset:0"
       inkscape:connector-curvature="0" />
    <path
       sodipodi:nodetypes="scccccscccccccscss"
       style="fill:#4a6574;fill-opacity:1;fill-rule:evenodd;stroke:none"
       id="path3605"
       d="m 25.227112,50.732993 c -3.782629,4.27e-4 -8.345398,2.762208 -10.170316,7.326108 0,3.565987 -2.092937,5.345064 0,10.697959 0.840708,3.267044 2.186946,5.784796 3.317755,8.490927 l 5.209186,-2.145722 C 22.387608,72.68 20.849947,70.262557 20.296989,69.06359 18.748937,65.706474 18.1833,64.204283 18.312537,61.645522 c 0.124971,-2.473832 0.959105,-3.997839 2.480565,-5.456264 1.521489,-1.458286 3.626109,-2.183045 6.139397,-1.83919 5.322775,0.729006 7.035607,4.711584 7.162631,6.651738 0.10455,1.59574 -1.057822,5.525674 -5.147172,5.333653 -2.834909,-0.133354 -4.428403,-1.686867 -4.620052,-4.322097 -0.141185,-1.942186 1.759812,-3.902586 4.837102,-2.912052 0.495318,0.159338 0.528807,-0.718795 -0.03101,-1.16482 -1.441269,-1.148224 -7.150922,-0.709282 -7.131624,3.800992 0.01789,4.179681 3.399862,6.970189 6.666518,6.988924 6.841396,0.0398 8.184871,-5.299153 7.937807,-8.98138 -0.273747,-4.080246 -5.479012,-9.012709 -11.37959,-9.012033 z"
       inkscape:connector-curvature="0" />
    <path
       sodipodi:nodetypes="scsccccsccccccsscss"
       style="fill:#eeeeec;fill-opacity:1;fill-rule:evenodd;stroke:none"
       id="path3607"
       d="m 25.252904,50.070118 c -3.78839,4.26e-4 -8.350224,2.784265 -10.174569,7.356762 -0.904146,1.726009 -0.951733,3.787382 -0.951733,5.560417 0,1.782734 0.380693,2.947963 0.951733,5.106886 0.84729,3.265923 2.187854,5.784798 3.319142,8.490929 l 5.211365,-2.145722 c -1.196628,-2.422268 -2.765954,-4.839709 -3.319143,-6.038674 -1.548698,-3.357117 -2.114582,-4.859299 -1.985281,-7.418069 0.125023,-2.473834 0.990527,-3.997851 2.512622,-5.456265 1.522126,-1.458286 3.596604,-2.183035 6.110944,-1.839189 5.325002,0.729005 7.038527,4.711593 7.165626,6.651737 0.104595,1.595741 -1.027225,5.525683 -5.118304,5.333652 -2.836093,-0.133354 -4.430244,-1.717518 -4.621983,-4.352751 -0.141244,-1.942184 1.760527,-3.871922 4.839124,-2.881397 0.495525,0.159338 0.529057,-0.718805 -0.03102,-1.16482 -1.44187,-1.148224 -7.153922,-0.709272 -7.134606,3.800992 0.0179,4.179681 3.401305,6.970189 6.669306,6.988924 6.844259,0.03981 8.157263,-5.299145 7.910106,-8.98138 -0.27386,-4.080247 -5.450253,-9.01271 -11.353329,-9.012032 z"
       inkscape:connector-curvature="0" />
    <path
       sodipodi:nodetypes="cccccccccccscccccc"
       style="opacity:0.77380952;fill:#466170;fill-opacity:1;fill-rule:evenodd;stroke:none"
       id="path3609"
       d="m 45.740695,50.732993 -5.250837,2.199365 c 1.205662,2.483105 2.786914,4.960289 3.344283,6.189642 1.560428,3.441053 2.130602,4.980639 2.000319,7.603518 -0.12596,2.535258 -0.997999,4.066236 -2.531654,5.561252 -1.533635,1.494744 -3.623859,2.269182 -6.157232,1.91659 -5.365365,-0.746669 -7.091841,-4.829394 -7.219901,-6.818032 -0.105377,-1.635352 1.035016,-5.663825 5.157072,-5.466992 2.857576,0.136686 4.463813,1.729046 4.656993,4.430149 0.142313,1.990609 -1.773872,4.00027 -4.875778,2.984853 -0.499309,-0.163182 -0.533053,0.736774 0.03126,1.193939 1.452792,1.177061 7.208097,0.726862 7.188645,-3.896017 -0.01803,-4.284031 -3.427065,-7.175853 -6.71982,-7.195065 -6.896121,-0.04106 -8.21904,5.46263 -7.970022,9.237332 0.275925,4.181831 5.491526,9.238459 11.439325,9.237334 3.812856,-2.11e-4 8.409407,-2.863111 10.251634,-7.540681 1.774042,-4.098871 0,-7.28569 0,-10.933985 -0.853706,-3.347593 -2.204412,-5.929232 -3.344283,-8.703202 z"
       inkscape:connector-curvature="0" />
    <path
       sodipodi:nodetypes="cccccccccccsccccscc"
       style="fill:#a9c5d3;fill-opacity:1;fill-rule:evenodd;stroke:none"
       id="path3611"
       d="m 45.512361,49.407244 -5.185586,2.199364 c 1.190679,2.483106 2.752283,4.96029 3.302725,6.189642 1.541037,3.441054 2.104121,4.980639 1.975461,7.603519 -0.124395,2.535257 -0.985597,4.066236 -2.500194,5.561252 -1.514576,1.494744 -3.578825,2.269183 -6.080717,1.91659 -5.298692,-0.746668 -7.003714,-4.829393 -7.130182,-6.818032 -0.104067,-1.635352 1.022153,-5.663826 5.092987,-5.466994 2.822065,0.136688 4.408342,1.729049 4.599121,4.43015 0.140544,1.990609 -1.75183,4.000271 -4.815188,2.984854 -0.493103,-0.163181 -0.52643,0.736775 0.03087,1.19394 1.434737,1.17706 7.149391,0.726863 7.130181,-3.896018 -0.01781,-4.284031 -3.415346,-7.175852 -6.667182,-7.195066 -6.810425,-0.04107 -8.116907,5.462628 -7.87098,9.237333 0.272494,4.181831 5.423284,9.23846 11.29717,9.237334 3.874815,-2.17e-4 8.572077,-3.026853 10.278573,-7.949134 0.602683,-1.801093 0.904025,-3.251516 0.904025,-4.904042 0,-1.66248 -0.435271,-3.288459 -0.904025,-5.05594 -0.826984,-3.625249 -2.269607,-6.342632 -3.457057,-9.268752 z"
       inkscape:connector-curvature="0" />
  </g>
</svg>
