<?xml version="1.0" encoding="UTF-8" standalone="no"?>
<svg
   xmlns:dc="http://purl.org/dc/elements/1.1/"
   xmlns:cc="http://creativecommons.org/ns#"
   xmlns:rdf="http://www.w3.org/1999/02/22-rdf-syntax-ns#"
   xmlns:svg="http://www.w3.org/2000/svg"
   xmlns="http://www.w3.org/2000/svg"
   xmlns:xlink="http://www.w3.org/1999/xlink"
   viewBox="0 0 96 96"
   version="1.1"
   id="svg4017"
   height="96"
   width="96">
  <defs
     id="defs4019">
    <linearGradient
       id="linearGradient4285">
      <stop
         id="stop4287"
         offset="0"
         style="stop-color:#000000;stop-opacity:1;" />
      <stop
         id="stop4289"
         offset="1"
         style="stop-color:#000000;stop-opacity:0;" />
    </linearGradient>
    <radialGradient
       r="117.14286"
       fy="486.64789"
       fx="605.71429"
       cy="486.64789"
       cx="605.71429"
       gradientTransform="matrix(0.03128083,0,0,0.02053005,64.045118,1036.6837)"
       gradientUnits="userSpaceOnUse"
       id="radialGradient3153"
       xlink:href="#linearGradient5060" />
    <linearGradient
       id="linearGradient5060">
      <stop
         offset="0"
         style="stop-color:#000000;stop-opacity:1"
         id="stop5062" />
      <stop
         offset="1"
         style="stop-color:#000000;stop-opacity:0"
         id="stop5064" />
    </linearGradient>
    <radialGradient
       r="117.14286"
       fy="486.64789"
       fx="605.71429"
       cy="486.64789"
       cx="605.71429"
       gradientTransform="matrix(-0.03128083,0,0,0.02053005,31.850121,1036.6837)"
       gradientUnits="userSpaceOnUse"
       id="radialGradient3156"
       xlink:href="#linearGradient5060" />
    <linearGradient
       id="linearGradient5048">
      <stop
         offset="0"
         style="stop-color:#000000;stop-opacity:0"
         id="stop5050" />
      <stop
         offset="0.5"
         style="stop-color:#000000;stop-opacity:1"
         id="stop5056" />
      <stop
         offset="1"
         style="stop-color:#000000;stop-opacity:0"
         id="stop5052" />
    </linearGradient>
    <linearGradient
       xlink:href="#linearGradient5048"
       id="linearGradient4015"
       gradientUnits="userSpaceOnUse"
       gradientTransform="matrix(0.14476034,0,0,0.02053005,-4.3728904,1036.6837)"
       x1="302.85715"
       y1="366.64789"
       x2="302.85715"
       y2="609.50507" />
    <linearGradient
       id="linearGradient3104">
      <stop
         id="stop3106"
         style="stop-color:#a0a0a0;stop-opacity:1;"
         offset="0" />
      <stop
         id="stop3108"
         style="stop-color:#bebebe;stop-opacity:1;"
         offset="1" />
    </linearGradient>
    <linearGradient
       id="linearGradient3600-9">
      <stop
         id="stop3602-3"
         style="stop-color:#f4f4f4;stop-opacity:1"
         offset="0" />
      <stop
         id="stop3604-7"
         style="stop-color:#dbdbdb;stop-opacity:1"
         offset="1" />
    </linearGradient>
    <linearGradient
       id="linearGradient3977-4">
      <stop
         offset="0"
         style="stop-color:#ffffff;stop-opacity:1;"
         id="stop3979-7" />
      <stop
         id="stop3981-6"
         style="stop-color:#ffffff;stop-opacity:0.23529412;"
         offset="0.03626217" />
      <stop
         offset="0.95056331"
         style="stop-color:#ffffff;stop-opacity:0.15686275;"
         id="stop3983-5" />
      <stop
         offset="1"
         style="stop-color:#ffffff;stop-opacity:0.39215687;"
         id="stop3985-6" />
    </linearGradient>
    <linearGradient
       y2="43"
       x2="23.99999"
       y1="5.5641499"
       x1="23.99999"
       gradientTransform="matrix(1.8648644,0,0,2.3513558,3.2432571,945.92985)"
       gradientUnits="userSpaceOnUse"
       id="linearGradient3093"
       xlink:href="#linearGradient3977-4" />
    <linearGradient
       y2="47.013336"
       x2="25.132275"
       y1="0.98520643"
       x1="25.132275"
       gradientTransform="matrix(2.0285668,0,0,1.9337922,-0.68560448,952.98382)"
       gradientUnits="userSpaceOnUse"
       id="linearGradient3096"
       xlink:href="#linearGradient3600-9" />
    <linearGradient
       y2="2.9062471"
       x2="-51.786404"
       y1="50.786446"
       x1="-51.786404"
       gradientTransform="matrix(1.6380614,0,0,1.8097403,119.8319,950.82863)"
       gradientUnits="userSpaceOnUse"
       id="linearGradient3098"
       xlink:href="#linearGradient3104" />
    <linearGradient
       y2="14.2033"
       x2="35.391201"
       y1="32.4165"
       x1="12.2744"
       gradientTransform="matrix(0,1.172141,-1.172141,0,59.018172,990.94679)"
       gradientUnits="userSpaceOnUse"
       id="linearGradient3180"
       xlink:href="#linearGradient3263" />
    <linearGradient
       x1="12.2744"
       y1="32.4165"
       x2="35.391201"
       y2="14.2033"
       id="linearGradient3263"
       gradientUnits="userSpaceOnUse">
      <stop
         id="stop3265"
         style="stop-color:#dedcde;stop-opacity:1;"
         offset="0" />
      <stop
         id="stop3267"
         style="stop-color:#f0f0f0;stop-opacity:1;"
         offset="0.5" />
      <stop
         id="stop3269"
         style="stop-color:#d2d2d2;stop-opacity:1"
         offset="1" />
    </linearGradient>
    <linearGradient
       y2="45.032898"
       x2="-21.915663"
       y1="3"
       x1="-21.915663"
       gradientTransform="matrix(1.0005994,0,0,1.0005994,58.222512,995.0638)"
       gradientUnits="userSpaceOnUse"
       id="linearGradient3182"
       xlink:href="#linearGradient3772" />
    <linearGradient
       id="linearGradient3772">
      <stop
         id="stop3774"
         style="stop-color:#b4b4b4;stop-opacity:1;"
         offset="0" />
      <stop
         id="stop3776"
         style="stop-color:#969696;stop-opacity:1;"
         offset="1" />
    </linearGradient>
    <linearGradient
       y2="32.509201"
       x2="21.448364"
       y1="15.5"
       x1="21.448364"
       gradientTransform="matrix(0.93564175,0,0,0.93608145,9.4769059,996.61225)"
       gradientUnits="userSpaceOnUse"
       id="linearGradient3176"
       xlink:href="#linearGradient3428" />
    <linearGradient
       id="linearGradient3428">
      <stop
         id="stop3430"
         style="stop-color:#aaaaaa;stop-opacity:1"
         offset="0" />
      <stop
         id="stop3432"
         style="stop-color:#d4d4d4;stop-opacity:1"
         offset="1" />
    </linearGradient>
    <linearGradient
       gradientTransform="matrix(1.0352921,0.02925141,-0.02925141,1.0352921,0.22640857,-0.83743657)"
       x1="20.580074"
       y1="10.774516"
       x2="24.27351"
       y2="9.8622112"
       id="linearGradient3346"
       xlink:href="#linearGradient3487"
       gradientUnits="userSpaceOnUse"
       spreadMethod="reflect" />
    <linearGradient
       id="linearGradient3487">
      <stop
         id="stop3489"
         style="stop-color:#e6cde2;stop-opacity:1"
         offset="0" />
      <stop
         id="stop3491"
         style="stop-color:#e6cde2;stop-opacity:0"
         offset="1" />
    </linearGradient>
    <linearGradient
       gradientTransform="matrix(1.0357053,0,0,1.0357053,-0.49072578,-0.14264942)"
       x1="17.494959"
       y1="11.200086"
       x2="21.047453"
       y2="9.7956104"
       id="linearGradient3348"
       xlink:href="#linearGradient3495"
       gradientUnits="userSpaceOnUse"
       spreadMethod="reflect" />
    <linearGradient
       id="linearGradient3495">
      <stop
         id="stop3497"
         style="stop-color:#c1cbe4;stop-opacity:1"
         offset="0" />
      <stop
         id="stop3499"
         style="stop-color:#c1cbe4;stop-opacity:0"
         offset="1" />
    </linearGradient>
    <linearGradient
       gradientTransform="matrix(1.0357053,0,0,1.0357053,-0.49072578,-0.14264942)"
       x1="14.084608"
       y1="13.045606"
       x2="16.994024"
       y2="10.732353"
       id="linearGradient3350"
       xlink:href="#linearGradient3503"
       gradientUnits="userSpaceOnUse"
       spreadMethod="reflect" />
    <linearGradient
       id="linearGradient3503">
      <stop
         id="stop3505"
         style="stop-color:#c4ebdd;stop-opacity:1"
         offset="0" />
      <stop
         id="stop3507"
         style="stop-color:#c4ebdd;stop-opacity:0"
         offset="1" />
    </linearGradient>
    <linearGradient
       gradientTransform="matrix(1.0357053,0,0,1.0357053,-0.49072578,-0.14264942)"
       x1="12.371647"
       y1="16.188046"
       x2="14.609327"
       y2="13.461712"
       id="linearGradient3352"
       xlink:href="#linearGradient3511"
       gradientUnits="userSpaceOnUse"
       spreadMethod="reflect" />
    <linearGradient
       id="linearGradient3511">
      <stop
         id="stop3513"
         style="stop-color:#ebeec7;stop-opacity:1"
         offset="0" />
      <stop
         id="stop3515"
         style="stop-color:#ebeec7;stop-opacity:0"
         offset="1" />
    </linearGradient>
    <linearGradient
       gradientTransform="matrix(1.0357053,0,0,1.0357053,-0.49072578,-0.14264942)"
       x1="10.609375"
       y1="17.886322"
       x2="9.7297754"
       y2="20.612656"
       id="linearGradient3354"
       xlink:href="#linearGradient3519"
       gradientUnits="userSpaceOnUse"
       spreadMethod="reflect" />
    <linearGradient
       id="linearGradient3519">
      <stop
         id="stop3521"
         style="stop-color:#fcd9cd;stop-opacity:1"
         offset="0" />
      <stop
         id="stop3523"
         style="stop-color:#fcd9cd;stop-opacity:0"
         offset="1" />
    </linearGradient>
    <linearGradient
       y2="44.340794"
       x2="71.204407"
       y1="6.2375584"
       x1="71.204407"
       gradientTransform="matrix(1.0730809,0,0,1.0735731,-45.043561,991.85537)"
       gradientUnits="userSpaceOnUse"
       id="linearGradient3161"
       xlink:href="#linearGradient4011" />
    <linearGradient
       id="linearGradient4011">
      <stop
         id="stop4013"
         style="stop-color:#ffffff;stop-opacity:1;"
         offset="0" />
      <stop
         offset="0.507761"
         style="stop-color:#ffffff;stop-opacity:0.23529412;"
         id="stop4015" />
      <stop
         id="stop4017"
         style="stop-color:#ffffff;stop-opacity:0.15686275;"
         offset="0.83456558" />
      <stop
         id="stop4019"
         style="stop-color:#ffffff;stop-opacity:0.39215687;"
         offset="1" />
    </linearGradient>
    <linearGradient
       y2="45.962208"
       x2="18.203465"
       y1="4.0378027"
       x1="18.775953"
       gradientTransform="matrix(0.41095945,0,0,-0.41115174,21.926678,1029.357)"
       gradientUnits="userSpaceOnUse"
       id="linearGradient3158"
       xlink:href="#linearGradient6036" />
    <linearGradient
       id="linearGradient6036">
      <stop
         id="stop6038"
         style="stop-color:#ffffff;stop-opacity:1"
         offset="0" />
      <stop
         id="stop6040"
         style="stop-color:#ffffff;stop-opacity:0"
         offset="1" />
    </linearGradient>
    <linearGradient
       gradientTransform="matrix(1.0482741,0.02961821,-0.02961821,1.0482741,0.0450932,-1.3098504)"
       y2="9.8622112"
       x2="24.27351"
       y1="10.774516"
       x1="20.580074"
       spreadMethod="reflect"
       gradientUnits="userSpaceOnUse"
       id="linearGradient4244"
       xlink:href="#linearGradient3487" />
    <linearGradient
       gradientTransform="matrix(1.0486921,0,0,1.0486921,-0.68103348,-0.54141681)"
       y2="9.7956104"
       x2="21.047453"
       y1="11.200086"
       x1="17.494959"
       spreadMethod="reflect"
       gradientUnits="userSpaceOnUse"
       id="linearGradient4246"
       xlink:href="#linearGradient3495" />
    <linearGradient
       gradientTransform="matrix(1.0486921,0,0,1.0486921,-0.68103348,-0.60635122)"
       y2="10.732353"
       x2="16.994024"
       y1="13.045606"
       x1="14.084608"
       spreadMethod="reflect"
       gradientUnits="userSpaceOnUse"
       id="linearGradient4248"
       xlink:href="#linearGradient3503" />
    <linearGradient
       gradientTransform="matrix(1.0486921,0,0,1.0486921,-0.68103348,-0.60635122)"
       y2="13.461712"
       x2="14.609327"
       y1="16.188046"
       x1="12.371647"
       spreadMethod="reflect"
       gradientUnits="userSpaceOnUse"
       id="linearGradient4250"
       xlink:href="#linearGradient3511" />
    <linearGradient
       gradientTransform="matrix(1.0486921,0,0,1.0486921,-0.61594472,-0.60635122)"
       y2="20.612656"
       x2="9.7297754"
       y1="17.886322"
       x1="10.609375"
       spreadMethod="reflect"
       gradientUnits="userSpaceOnUse"
       id="linearGradient4252"
       xlink:href="#linearGradient3519" />
    <radialGradient
       gradientUnits="userSpaceOnUse"
       gradientTransform="matrix(1,0,0,0.29545454,0,728.93132)"
       r="22"
       fy="1034.6122"
       fx="32"
       cy="1034.6122"
       cx="32"
       id="radialGradient4291"
       xlink:href="#linearGradient4285" />
  </defs>
  <metadata
     id="metadata4022">
    <rdf:RDF>
      <cc:Work
         rdf:about="">
        <dc:format>image/svg+xml</dc:format>
        <dc:type
           rdf:resource="http://purl.org/dc/dcmitype/StillImage" />
        <dc:title />
      </cc:Work>
    </rdf:RDF>
  </metadata>
  <g
     transform="translate(0,-956.3622)"
     id="layer1">
    <g
       transform="matrix(1.0040259,0,0,1.0028296,-0.14065179,-2.8037029)"
       id="g4089">
      <rect
         style="opacity:0.3;fill:url(#linearGradient4015);fill-opacity:1;fill-rule:nonzero;stroke:none;stroke-width:1;marker:none;visibility:visible;display:inline;overflow:visible"
         id="rect2879"
         y="1044.2112"
         x="12.998364"
         height="4.9858918"
         width="69.89856" />
      <path
         style="opacity:0.3;fill:url(#radialGradient3156);fill-opacity:1;fill-rule:nonzero;stroke:none;stroke-width:1;marker:none;visibility:visible;display:inline;overflow:visible"
         id="path2881"
         d="m 12.998348,1044.2116 c 0,0 0,4.9853 0,4.9853 -1.610891,0.013 -3.894348,-1.1179 -3.894348,-2.4937 0,-1.3758 1.797632,-2.4916 3.894348,-2.4916 z" />
      <path
         style="opacity:0.3;fill:url(#radialGradient3153);fill-opacity:1;fill-rule:nonzero;stroke:none;stroke-width:1;marker:none;visibility:visible;display:inline;overflow:visible"
         id="path2883"
         d="m 82.896898,1044.2116 c 0,0 0,4.9853 0,4.9853 1.610888,0.013 3.894344,-1.1179 3.894344,-2.4937 0,-1.3758 -1.797625,-2.4916 -3.894344,-2.4916 z" />
    </g>
    <path
       d="m 12.5,957.86216 c 16.269706,0 70.999909,0.008 70.999909,0.008 l 9.3e-5,88.99204 c 0,0 -47.333343,0 -71.000002,0 0,-29.6655 0,-59.33148 0,-88.99771 z"
       id="path4160-6"
       style="fill:url(#linearGradient3096);fill-opacity:1;stroke:url(#linearGradient3098);stroke-width:1;stroke-linecap:butt;stroke-linejoin:round;stroke-miterlimit:4;stroke-opacity:1;stroke-dasharray:none;stroke-dashoffset:0;display:inline" />
    <path
       id="rect6741-1-8"
       d="m 82.499997,1045.8622 -68.999997,0 0,-86.99998 68.999997,0 z"
       style="fill:none;stroke:url(#linearGradient3093);stroke-width:1;stroke-linecap:round;stroke-linejoin:miter;stroke-miterlimit:4;stroke-opacity:1;stroke-dasharray:none;stroke-dashoffset:0" />
    <g
       id="g4158"
       transform="matrix(1.5363636,0,0,1.535672,-1.0596358,-561.60765)">
      <path
         style="opacity:0.3;fill:url(#radialGradient4291);fill-opacity:1;fill-rule:evenodd;stroke:none;stroke-width:2;marker:none;visibility:visible;display:inline;overflow:visible"
         id="path23417"
         d="m 54,1034.6122 c 0.0011,3.5897 -9.848934,6.5 -22,6.5 -12.151066,0 -22.001133,-2.9103 -22,-6.5 -0.00113,-3.5898 9.848934,-6.5 22,-6.5 12.151066,0 22.001133,2.9102 22,6.5 l 0,0 z" />
      <path
         style="fill:url(#linearGradient3180);fill-rule:nonzero;stroke:url(#linearGradient3182);stroke-width:0.65103412;stroke-miterlimit:4;stroke-opacity:1"
         id="path2781"
         d="m 52.453996,1019.0782 c 0,-11.3698 -9.142517,-20.51229 -20.512287,-20.51229 -11.369772,0 -20.512287,9.14249 -20.512287,20.51229 -2e-6,11.3698 9.142516,20.5123 20.512287,20.5123 11.369769,0 20.512287,-9.1425 20.512287,-20.5123 z m -13.007791,0 c 0,4.1306 -3.291242,7.5045 -7.504496,7.5045 -4.295903,0 -7.504495,-3.4574 -7.504495,-7.5045 0,-4.1297 3.04329,-7.5045 7.504495,-7.5045 4.461205,0 7.504496,3.4566 7.504496,7.5045 z" />
      <path
         style="opacity:0.5;fill:#ffffff;fill-opacity:1;fill-rule:nonzero;stroke:none;stroke-width:1;marker:none;visibility:visible;display:inline;overflow:visible;enable-background:accumulate"
         id="path2474"
         d="m 31.932308,1011.2641 c -4.311479,0 -7.810651,3.5007 -7.810651,7.8141 0,4.3135 3.499172,7.8142 7.810651,7.8142 4.311479,0 7.810651,-3.5007 7.810651,-7.8142 0,-4.3134 -3.499172,-7.8141 -7.810651,-7.8141 z m 0,3.907 c 2.15574,0 3.905326,1.7504 3.905326,3.9071 0,2.1567 -1.749586,3.9071 -3.905326,3.9071 -2.15574,0 -3.905325,-1.7504 -3.905325,-3.9071 0,-2.1567 1.749585,-3.9071 3.905325,-3.9071 z" />
      <path
         style="fill:none;stroke:url(#linearGradient3176);stroke-width:0.65103406;stroke-linecap:butt;stroke-linejoin:round;stroke-miterlimit:4;stroke-opacity:1;stroke-dasharray:none;stroke-dashoffset:0;marker:none;visibility:visible;display:inline;overflow:visible;enable-background:accumulate"
         id="path3418"
         d="m 31.932308,1011.5895 c -4.131794,0 -7.485134,3.3549 -7.485134,7.4886 0,4.1338 3.35334,7.4887 7.485134,7.4887 4.131794,0 7.485134,-3.3549 7.485134,-7.4887 0,-4.1337 -3.35334,-7.4886 -7.485134,-7.4886 z m 0,3.9072 c 1.952663,0 3.579882,1.628 3.579882,3.5814 0,2.0669 -1.627219,3.5816 -3.579882,3.5816 -1.952663,0 -3.579882,-1.628 -3.579882,-3.5816 0,-1.9534 1.627219,-3.5814 3.579882,-3.5814 z" />
      <g
         id="g3527"
         transform="translate(8,995.11231)">
        <path
           style="opacity:0.8;fill:url(#linearGradient4244);fill-opacity:1;fill-rule:nonzero;stroke:none"
           id="path3296"
           d="M 16.497763,5.1672263 21.57219,16.498796 c 1.29882,-0.400052 1.977785,-0.410399 3.168699,-0.39271 0.03355,9.5e-4 0.06477,0.0014 0.09823,0.0027 L 25.198283,3.7975158 C 22.116197,3.6362753 19.36819,4.127104 16.497762,5.1672262 Z" />
        <path
           style="opacity:0.8;fill:url(#linearGradient4246);fill-opacity:1;fill-rule:nonzero;stroke:none"
           id="path3308"
           d="m 12.030659,7.7495579 7.268516,9.8158721 c 0.957573,-0.70236 2.126791,-1.09343 3.360779,-1.364103 0.03282,-0.0069 0.06325,-0.01419 0.09607,-0.02108 L 20.143036,4.1003858 c -3.029647,0.5886568 -5.578549,1.9459579 -8.112377,3.6491721 z" />
        <path
           style="opacity:0.8;fill:url(#linearGradient4248);fill-opacity:1;fill-rule:nonzero;stroke:none"
           id="path3310"
           d="m 7.9731897,11.607287 9.6623643,7.504253 c 0.743155,-0.926276 1.674646,-1.715785 2.796532,-2.296613 0.02982,-0.01549 0.05739,-0.03007 0.0873,-0.0452 L 14.90867,5.9486203 C 12.134616,7.3013485 9.9798502,9.3063029 7.9731897,11.607287 Z" />
        <path
           style="opacity:0.8;fill:url(#linearGradient4250);fill-opacity:1;fill-rule:nonzero;stroke:none"
           id="path3312"
           d="m 5.2261319,16.250311 11.6464861,4.197816 c 0.584143,-1.216584 1.168287,-1.762978 1.75243,-2.358276 L 10.330225,8.9704548 C 8.0008036,10.995071 6.568879,13.508372 5.2261319,16.250311 Z" />
        <path
           style="opacity:0.8;fill:url(#linearGradient4252);fill-opacity:1;fill-rule:nonzero;stroke:none"
           id="path3314"
           d="m 6.8877536,13.229232 c -1.2406843,1.837327 -2.0006033,3.813443 -2.6480495,5.918766 l 12.0243029,3.093518 c 0.226012,-0.800152 0.409625,-1.561783 0.882277,-2.30005 0.01819,-0.02835 0.04721,-0.07032 0.0655,-0.09825 z" />
      </g>
      <g
         id="g3297"
         transform="matrix(-1,0,0,-1,55.999999,1043.1031)">
        <path
           style="opacity:0.8;fill:url(#linearGradient3346);fill-opacity:1;fill-rule:nonzero;stroke:none"
           id="path3299"
           d="m 16.34491,5.364019 4.756332,11.387848 c 1.085354,-0.444469 2.267949,-0.616083 3.515134,-0.58085 0.03315,9.39e-4 0.06397,0.0014 0.09701,0.0026 L 25.068105,3.8838852 C 22.024188,3.7246415 19.179789,4.3367774 16.344909,5.364019 Z" />
        <path
           style="opacity:0.8;fill:url(#linearGradient3348);fill-opacity:1;fill-rule:nonzero;stroke:none"
           id="path3301"
           d="m 11.933194,7.9153451 7.308864,9.8894819 c 0.945706,-0.693664 2.036124,-1.208275 3.254836,-1.475595 0.03242,-0.0069 0.06238,-0.01403 0.09487,-0.0208 L 20.010058,4.2465929 c -2.992129,0.5390808 -5.574417,1.8908869 -8.076864,3.6687522 z" />
        <path
           style="opacity:0.8;fill:url(#linearGradient3350);fill-opacity:1;fill-rule:nonzero;stroke:none"
           id="path3303"
           d="m 7.9263296,11.854337 9.7379294,7.607093 c 0.733955,-0.914805 1.588684,-1.824915 2.696672,-2.398549 0.02946,-0.01529 0.05667,-0.02971 0.08622,-0.04464 L 14.710531,6.1356682 C 11.970824,7.4716443 9.9081396,9.5818521 7.9263296,11.854337 Z" />
        <path
           style="opacity:0.8;fill:url(#linearGradient3352);fill-opacity:1;fill-rule:nonzero;stroke:none"
           id="path3305"
           d="M 5.3432851,16.505258 16.81767,20.885856 c 0.5862,-1.108653 1.1724,-1.808795 1.7586,-2.498874 L 10.253904,9.2502655 C 7.9533294,11.249811 6.6694042,13.797276 5.3432851,16.505258 Z" />
        <path
           style="opacity:0.8;fill:url(#linearGradient3354);fill-opacity:1;fill-rule:nonzero;stroke:none"
           id="path3307"
           d="M 6.8398588,13.468105 C 5.614539,15.282681 5.024407,17.341291 4.3849791,19.420541 l 11.9572399,3.054877 c 0.223211,-0.790243 0.372472,-1.53046 0.839276,-2.259583 0.01795,-0.02799 0.04661,-0.06944 0.0647,-0.09705 z" />
      </g>
      <path
         style="opacity:0.55;color:#000000;fill:none;stroke:url(#linearGradient3161);stroke-width:0.65103406;stroke-linecap:round;stroke-linejoin:round;stroke-miterlimit:4;stroke-opacity:1;stroke-dasharray:none;stroke-dashoffset:0;marker:none;visibility:visible;display:inline;overflow:visible;enable-background:accumulate"
         id="path8655"
         d="m 51.784306,1019.0776 c 0,10.9694 -8.888697,19.8617 -19.851746,19.8617 -10.964054,0 -19.852252,-8.8924 -19.852252,-19.8617 0,-10.9689 8.888198,-19.86043 19.852252,-19.86043 10.963049,0 19.851746,8.89153 19.851746,19.86043 l 0,0 z" />
      <path
         style="opacity:0.4;fill:none;stroke:url(#linearGradient3158);stroke-width:0.65103412;stroke-miterlimit:4;stroke-opacity:1;stroke-dasharray:none"
         id="path3281"
         d="m 31.932308,1027.218 c -4.509681,0 -8.136022,-3.6281 -8.136022,-8.1398 0,-4.5118 3.626341,-8.1399 8.136022,-8.1399 4.509682,0 8.136021,3.6281 8.136021,8.1399 0,4.5117 -3.626339,8.1398 -8.136021,8.1398 l 0,0 0,0 0,0 z" />
    </g>
  </g>
</svg>
