<?xml version="1.0" encoding="UTF-8" standalone="no"?>
<svg
   id="svg3901"
   height="96"
   width="96"
   version="1.1"
   sodipodi:docname="application-x-perl.svg"
   inkscape:version="1.1.2 (0a00cf5339, 2022-02-04)"
   xmlns:inkscape="http://www.inkscape.org/namespaces/inkscape"
   xmlns:sodipodi="http://sodipodi.sourceforge.net/DTD/sodipodi-0.dtd"
   xmlns:xlink="http://www.w3.org/1999/xlink"
   xmlns="http://www.w3.org/2000/svg"
   xmlns:svg="http://www.w3.org/2000/svg"
   xmlns:rdf="http://www.w3.org/1999/02/22-rdf-syntax-ns#"
   xmlns:cc="http://creativecommons.org/ns#">
  <sodipodi:namedview
     id="namedview41"
     pagecolor="#ffffff"
     bordercolor="#666666"
     borderopacity="1.0"
     inkscape:pageshadow="2"
     inkscape:pageopacity="0.0"
     inkscape:pagecheckerboard="0"
     showgrid="false"
     inkscape:zoom="5.0234044"
     inkscape:cx="29.163489"
     inkscape:cy="60.019058"
     inkscape:window-width="1396"
     inkscape:window-height="896"
     inkscape:window-x="415"
     inkscape:window-y="140"
     inkscape:window-maximized="0"
     inkscape:current-layer="svg3901" />
  <defs
     id="defs3903">
    <linearGradient
       id="linearGradient3403">
      <stop
         id="stop3405"
         style="stop-color:#ffffff;stop-opacity:1"
         offset="0" />
      <stop
         id="stop3407"
         style="stop-color:#ffffff;stop-opacity:0.23529412"
         offset="0.00541497" />
      <stop
         id="stop3409"
         style="stop-color:#ffffff;stop-opacity:0.15686275"
         offset="1" />
      <stop
         id="stop3411"
         style="stop-color:#ffffff;stop-opacity:0.39215687"
         offset="1" />
    </linearGradient>
    <linearGradient
       id="linearGradient3600">
      <stop
         offset="0"
         style="stop-color:#f4f4f4;stop-opacity:1"
         id="stop3602" />
      <stop
         offset="1"
         style="stop-color:#dbdbdb;stop-opacity:1"
         id="stop3604" />
    </linearGradient>
    <linearGradient
       id="linearGradient5060">
      <stop
         offset="0"
         style="stop-color:#000000;stop-opacity:1"
         id="stop5062" />
      <stop
         offset="1"
         style="stop-color:#000000;stop-opacity:0"
         id="stop5064" />
    </linearGradient>
    <linearGradient
       id="linearGradient5048">
      <stop
         offset="0"
         style="stop-color:#000000;stop-opacity:0"
         id="stop5050" />
      <stop
         offset="0.5"
         style="stop-color:#000000;stop-opacity:1"
         id="stop5056" />
      <stop
         offset="1"
         style="stop-color:#000000;stop-opacity:0"
         id="stop5052" />
    </linearGradient>
    <linearGradient
       id="linearGradient3104-6">
      <stop
         id="stop3106-3"
         style="stop-color:#000000;stop-opacity:0.31782946"
         offset="0" />
      <stop
         id="stop3108-9"
         style="stop-color:#000000;stop-opacity:0.24031007"
         offset="1" />
    </linearGradient>
    <linearGradient
       y2="42.273762"
       x2="23.99999"
       y1="5.6275582"
       x1="23.99999"
       gradientTransform="matrix(1.8648648,0,0,2.3513513,3.2432558,-11.432408)"
       gradientUnits="userSpaceOnUse"
       id="linearGradient3106"
       xlink:href="#linearGradient3403" />
    <linearGradient
       y2="47.013336"
       x2="25.132275"
       y1="0.98520643"
       x1="25.132275"
       gradientTransform="matrix(1.9999954,0,0,1.9120955,1.0813194e-4,-3.8236272)"
       gradientUnits="userSpaceOnUse"
       id="linearGradient3109"
       xlink:href="#linearGradient3600" />
    <linearGradient
       y2="2.9062471"
       x2="-51.786404"
       y1="50.786446"
       x1="-51.786404"
       gradientTransform="matrix(1.6380632,0,0,1.8097673,119.83211,-6.5336729)"
       gradientUnits="userSpaceOnUse"
       id="linearGradient3170"
       xlink:href="#linearGradient3104-6" />
    <linearGradient
       gradientTransform="matrix(0.13730769,0,0,0.02882352,-1.626924,75.431978)"
       gradientUnits="userSpaceOnUse"
       xlink:href="#linearGradient5048"
       id="linearGradient3842"
       y2="609.50507"
       x2="302.85715"
       y1="366.64789"
       x1="302.85715" />
    <radialGradient
       gradientTransform="matrix(-0.04698948,0,0,0.02882352,43.168704,75.431978)"
       gradientUnits="userSpaceOnUse"
       xlink:href="#linearGradient5060"
       id="radialGradient3156"
       fy="486.64789"
       fx="605.71429"
       r="117.14286"
       cy="486.64789"
       cx="605.71429" />
    <radialGradient
       gradientTransform="matrix(0.04698949,0,0,0.02882352,52.831289,75.431978)"
       gradientUnits="userSpaceOnUse"
       xlink:href="#linearGradient5060"
       id="radialGradient3153"
       fy="486.64789"
       fx="605.71429"
       r="117.14286"
       cy="486.64789"
       cx="605.71429" />
  </defs>
  <metadata
     id="metadata3906">
    <rdf:RDF>
      <cc:Work
         rdf:about="" />
    </rdf:RDF>
  </metadata>
  <rect
     width="66.299995"
     height="7"
     x="14.849998"
     y="86"
     id="rect2879-2"
     style="display:inline;overflow:visible;visibility:visible;opacity:0.15;fill:url(#linearGradient3842);fill-opacity:1;fill-rule:nonzero;stroke:none;stroke-width:1;marker:none" />
  <path
     d="m 14.85,86.000298 c 0,0 0,6.999581 0,6.999581 -2.419842,0.014 -5.85,-1.56828 -5.85,-3.50028 0,-1.932 2.700361,-3.499301 5.85,-3.499301 z"
     id="path2881-9"
     style="display:inline;overflow:visible;visibility:visible;opacity:0.15;fill:url(#radialGradient3156);fill-opacity:1;fill-rule:nonzero;stroke:none;stroke-width:1;marker:none" />
  <path
     d="m 81.149999,86.000298 c 0,0 0,6.999581 0,6.999581 C 83.56984,93.013879 87,91.431599 87,89.499599 c 0,-1.932 -2.700361,-3.499301 -5.850001,-3.499301 z"
     id="path2883-1"
     style="display:inline;overflow:visible;visibility:visible;opacity:0.15;fill:url(#radialGradient3153);fill-opacity:1;fill-rule:nonzero;stroke:none;stroke-width:1;marker:none" />
  <path
     d="m 13,0.99999999 h 69.999918 l 8.5e-5,87.99999901 H 13 Z"
     id="path4160"
     style="display:inline;fill:url(#linearGradient3109);fill-opacity:1;stroke:none;stroke-width:0.999997"
     sodipodi:nodetypes="ccccc" />
  <path
     d="M 82.499999,88.499999 H 13.500001 V 1.5 h 68.999998 z"
     id="rect6741-1"
     style="fill:none;stroke:url(#linearGradient3106);stroke-width:1;stroke-linecap:round;stroke-linejoin:round;stroke-miterlimit:4;stroke-dasharray:none;stroke-dashoffset:0;stroke-opacity:1" />
  <path
     d="M 12.499959,0.4999623 83.499966,0.5 l 7.5e-5,89.000043 H 12.499959 Z"
     id="path4160-6-1"
     style="display:inline;fill:none;stroke:url(#linearGradient3170);stroke-width:0.999922;stroke-linecap:butt;stroke-linejoin:round;stroke-miterlimit:4;stroke-dasharray:none;stroke-dashoffset:0;stroke-opacity:1"
     sodipodi:nodetypes="ccccc" />
  <path
     id="path925-6"
     style="display:inline;fill:#8cd5ff;fill-opacity:0.2;fill-rule:evenodd;stroke:none;stroke-width:2;stroke-linecap:round;stroke-linejoin:round;stroke-miterlimit:4;stroke-dasharray:none;stroke-opacity:1;enable-background:new"
     d="m 27.887302,23.513963 c -1.568159,0.01763 -2.629653,0.336233 -2.629653,0.336233 0,0 2.910555,9.303884 8.368653,8.382653 l 0.525931,-1.92175 c -0.05135,4.455058 1.513026,9.920373 2.034369,11.613104 -1.743636,4.449523 -4.170693,11.626331 -3.432998,15.560951 0.57644,3.074531 1.744938,5.433448 3.886685,7.082645 h -0.284638 c -1.455492,5.895885 2.911202,7.369704 11.64416,4.421762 8.732957,2.947942 13.099653,1.474123 11.64416,-4.421762 h -0.284638 c 2.141746,-1.649197 3.310245,-4.008114 3.886684,-7.082645 0.737695,-3.93462 -1.689361,-11.111428 -3.432997,-15.560951 0.521343,-1.692731 2.085713,-7.158046 2.034369,-11.613104 l 0.525931,1.92175 c 5.458097,0.921231 8.368653,-8.382653 8.368653,-8.382653 0,0 -5.345999,-1.595015 -9.758613,2.179722 -0.838147,-1.483314 -2.861719,-2.515955 -4.25079,-2.515955 -2.951139,0 -4.36628,1.256528 -8.732759,1.256528 -4.36648,0 -5.78162,-1.256528 -8.732759,-1.256528 -1.389073,0 -3.412644,1.032641 -4.25079,2.515955 -2.445878,-2.092307 -5.178762,-2.537884 -7.12896,-2.515955 z"
     sodipodi:nodetypes="sccccscccccscccccssscs" />
  <path
     style="display:inline;fill:none;fill-rule:evenodd;stroke:#3689e6;stroke-width:1.5;stroke-linecap:round;stroke-linejoin:round;stroke-miterlimit:4;stroke-dasharray:none;stroke-opacity:1;enable-background:new"
     d="m 36.774296,37.737549 c 0,0 -6.805565,14.838292 -5.572168,21.411443 0.857777,4.571343 2.899619,7.708857 7.17584,9.419947 2.534724,1.014247 9.622034,-1.622706 9.622034,-1.622706 v -11.358932 0 0 c 0,0 -6.414689,-2.1298 -7.717673,-10.344743 0,0 0.689446,7.020414 1.992431,7.223251"
     id="path925"
     inkscape:connector-curvature="0"
     sodipodi:nodetypes="csscccccc" />
  <path
     style="display:inline;fill:none;fill-rule:evenodd;stroke:#3689e6;stroke-width:1.5;stroke-linecap:butt;stroke-linejoin:miter;stroke-miterlimit:4;stroke-dasharray:none;stroke-opacity:1;enable-background:new"
     d="m 33.96787,24.755911 c -4.911247,-4.462438 -11.025249,-2.636896 -11.025249,-2.636896 0,0 3.207346,10.243324 9.221117,9.229134"
     id="path927"
     inkscape:connector-curvature="0"
     sodipodi:nodetypes="ccc" />
  <path
     style="display:inline;fill:none;fill-rule:evenodd;stroke:#3689e6;stroke-width:1.5;stroke-linecap:round;stroke-linejoin:miter;stroke-miterlimit:4;stroke-dasharray:none;stroke-opacity:1;enable-background:new"
     d="m 35.170623,66.946233 c -1.603672,6.490821 3.207345,8.113525 12.829379,4.868116 9.622033,3.245409 14.433051,1.622705 12.829378,-4.868116"
     id="path932"
     inkscape:connector-curvature="0"
     sodipodi:nodetypes="ccc" />
  <path
     style="display:inline;fill:none;fill-rule:evenodd;stroke:#3689e6;stroke-width:1.5;stroke-linecap:butt;stroke-linejoin:round;stroke-miterlimit:4;stroke-dasharray:none;stroke-opacity:1;enable-background:new"
     d="m 38.720196,30.136402 c 3.038963,-1.428613 6.268634,0.322829 6.1596,0.501976 0,0 -1.049378,4.403481 -3.529674,4.023597 -2.323408,-0.355855 -2.627977,-3.527012 -2.629926,-4.525573 z"
     id="path938-7"
     inkscape:connector-curvature="0"
     sodipodi:nodetypes="ccsc" />
  <path
     sodipodi:nodetypes="ccsscsscc"
     inkscape:connector-curvature="0"
     id="path947"
     d="m 60.82938,42.605662 v 0 c 0,0 4.150945,-12.459894 1.603673,-17.849751 C 61.601544,22.996493 59.225707,21.75 57.622035,21.75 c -3.251585,0 -4.811016,1.383206 -9.622033,1.383206 -4.811017,0 -6.370447,-1.383206 -9.622034,-1.383206 -1.603672,0 -3.979509,1.246493 -4.811017,3.005911 -2.547273,5.389857 1.603672,17.849751 1.603672,17.849751 v 0"
     style="display:inline;fill:none;fill-rule:evenodd;stroke:#3689e6;stroke-width:1.5;stroke-linecap:butt;stroke-linejoin:miter;stroke-miterlimit:4;stroke-dasharray:none;stroke-opacity:1;enable-background:new" />
  <path
     sodipodi:nodetypes="csscccccc"
     inkscape:connector-curvature="0"
     id="path949"
     d="m 59.225707,37.737549 c 0,0 6.805565,14.838292 5.572168,21.411443 -0.857775,4.571343 -2.89962,7.708857 -7.17584,9.419947 -2.534723,1.014247 -9.622033,-1.622706 -9.622033,-1.622706 v -11.358932 0 0 c 0,0 6.414688,-2.1298 7.717673,-10.344743 0,0 -0.760321,7.16384 -2.063305,7.366679"
     style="display:inline;fill:none;fill-rule:evenodd;stroke:#3689e6;stroke-width:1.5;stroke-linecap:round;stroke-linejoin:round;stroke-miterlimit:4;stroke-dasharray:none;stroke-opacity:1;enable-background:new" />
  <path
     sodipodi:nodetypes="ccc"
     inkscape:connector-curvature="0"
     id="path951"
     d="m 62.032135,24.755911 c 4.911246,-4.462438 11.025245,-2.636896 11.025245,-2.636896 0,0 -3.207344,10.243324 -9.221115,9.229134"
     style="display:inline;fill:none;fill-rule:evenodd;stroke:#3689e6;stroke-width:1.5;stroke-linecap:butt;stroke-linejoin:miter;stroke-miterlimit:4;stroke-dasharray:none;stroke-opacity:1;enable-background:new" />
  <path
     sodipodi:nodetypes="ccsc"
     inkscape:connector-curvature="0"
     id="path955"
     d="m 57.279808,30.136402 c -3.038963,-1.428613 -6.268635,0.322829 -6.159601,0.501976 0,0 1.049379,4.403481 3.529675,4.023597 2.323409,-0.355855 2.627978,-3.527012 2.629926,-4.525573 z"
     style="display:inline;fill:none;fill-rule:evenodd;stroke:#3689e6;stroke-width:1.5;stroke-linecap:butt;stroke-linejoin:round;stroke-miterlimit:4;stroke-dasharray:none;stroke-opacity:1;enable-background:new" />
</svg>
