<?xml version="1.0" encoding="UTF-8" standalone="no"?>
<svg
   id="svg3901"
   height="96"
   width="96"
   version="1.1"
   sodipodi:docname="application-x-desktop.svg"
   inkscape:version="1.1.1 (3bf5ae0d25, 2021-09-20)"
   xmlns:inkscape="http://www.inkscape.org/namespaces/inkscape"
   xmlns:sodipodi="http://sodipodi.sourceforge.net/DTD/sodipodi-0.dtd"
   xmlns:xlink="http://www.w3.org/1999/xlink"
   xmlns="http://www.w3.org/2000/svg"
   xmlns:svg="http://www.w3.org/2000/svg"
   xmlns:rdf="http://www.w3.org/1999/02/22-rdf-syntax-ns#"
   xmlns:cc="http://creativecommons.org/ns#">
  <sodipodi:namedview
     id="namedview41"
     pagecolor="#ffffff"
     bordercolor="#666666"
     borderopacity="1.0"
     inkscape:pageshadow="2"
     inkscape:pageopacity="0.0"
     inkscape:pagecheckerboard="0"
     showgrid="false"
     inkscape:zoom="2.8284272"
     inkscape:cx="73.892657"
     inkscape:cy="36.769552"
     inkscape:window-width="1396"
     inkscape:window-height="896"
     inkscape:window-x="522"
     inkscape:window-y="134"
     inkscape:window-maximized="0"
     inkscape:current-layer="svg3901" />
  <defs
     id="defs3903">
    <linearGradient
       id="linearGradient3403">
      <stop
         id="stop3405"
         style="stop-color:#ffffff;stop-opacity:1"
         offset="0" />
      <stop
         id="stop3407"
         style="stop-color:#ffffff;stop-opacity:0.23529412"
         offset="0.00541497" />
      <stop
         id="stop3409"
         style="stop-color:#ffffff;stop-opacity:0.15686275"
         offset="1" />
      <stop
         id="stop3411"
         style="stop-color:#ffffff;stop-opacity:0.39215687"
         offset="1" />
    </linearGradient>
    <linearGradient
       id="linearGradient3600">
      <stop
         offset="0"
         style="stop-color:#f4f4f4;stop-opacity:1"
         id="stop3602" />
      <stop
         offset="1"
         style="stop-color:#dbdbdb;stop-opacity:1"
         id="stop3604" />
    </linearGradient>
    <linearGradient
       id="linearGradient5060">
      <stop
         offset="0"
         style="stop-color:#000000;stop-opacity:1"
         id="stop5062" />
      <stop
         offset="1"
         style="stop-color:#000000;stop-opacity:0"
         id="stop5064" />
    </linearGradient>
    <linearGradient
       id="linearGradient5048">
      <stop
         offset="0"
         style="stop-color:#000000;stop-opacity:0"
         id="stop5050" />
      <stop
         offset="0.5"
         style="stop-color:#000000;stop-opacity:1"
         id="stop5056" />
      <stop
         offset="1"
         style="stop-color:#000000;stop-opacity:0"
         id="stop5052" />
    </linearGradient>
    <linearGradient
       id="linearGradient3104-6">
      <stop
         id="stop3106-3"
         style="stop-color:#000000;stop-opacity:0.31782946"
         offset="0" />
      <stop
         id="stop3108-9"
         style="stop-color:#000000;stop-opacity:0.24031007"
         offset="1" />
    </linearGradient>
    <linearGradient
       y2="42.273762"
       x2="23.99999"
       y1="5.6275582"
       x1="23.99999"
       gradientTransform="matrix(1.8648648,0,0,2.3513513,3.2432558,-11.432408)"
       gradientUnits="userSpaceOnUse"
       id="linearGradient3106"
       xlink:href="#linearGradient3403" />
    <linearGradient
       y2="47.013336"
       x2="25.132275"
       y1="0.98520643"
       x1="25.132275"
       gradientTransform="matrix(1.9999954,0,0,1.9120955,1.0813194e-4,-3.8236272)"
       gradientUnits="userSpaceOnUse"
       id="linearGradient3109"
       xlink:href="#linearGradient3600" />
    <linearGradient
       y2="2.9062471"
       x2="-51.786404"
       y1="50.786446"
       x1="-51.786404"
       gradientTransform="matrix(1.6380632,0,0,1.8097673,119.83211,-6.5336729)"
       gradientUnits="userSpaceOnUse"
       id="linearGradient3170"
       xlink:href="#linearGradient3104-6" />
    <linearGradient
       gradientTransform="matrix(0.13730769,0,0,0.02882352,-1.626924,75.431978)"
       gradientUnits="userSpaceOnUse"
       xlink:href="#linearGradient5048"
       id="linearGradient3842"
       y2="609.50507"
       x2="302.85715"
       y1="366.64789"
       x1="302.85715" />
    <radialGradient
       gradientTransform="matrix(-0.04698948,0,0,0.02882352,43.168704,75.431978)"
       gradientUnits="userSpaceOnUse"
       xlink:href="#linearGradient5060"
       id="radialGradient3156"
       fy="486.64789"
       fx="605.71429"
       r="117.14286"
       cy="486.64789"
       cx="605.71429" />
    <radialGradient
       gradientTransform="matrix(0.04698949,0,0,0.02882352,52.831289,75.431978)"
       gradientUnits="userSpaceOnUse"
       xlink:href="#linearGradient5060"
       id="radialGradient3153"
       fy="486.64789"
       fx="605.71429"
       r="117.14286"
       cy="486.64789"
       cx="605.71429" />
    <radialGradient
       xlink:href="#linearGradient2867-449-88-871-390-598-476-591-434-148-57-177-8-3-3-6-4-8-8-8-5"
       id="radialGradient4147-1"
       gradientUnits="userSpaceOnUse"
       gradientTransform="matrix(0,20.090977,-24.665302,0,295.3531,-171.84058)"
       cx="6.7304144"
       cy="9.9571075"
       fx="6.2001843"
       fy="9.9571075"
       r="12.671875" />
    <linearGradient
       id="linearGradient2867-449-88-871-390-598-476-591-434-148-57-177-8-3-3-6-4-8-8-8-5">
      <stop
         offset="0"
         style="stop-color:#919caf;stop-opacity:1;"
         id="stop3750-1-0-7-6-6-1-3-9-3" />
      <stop
         offset="0.26238"
         style="stop-color:#68758e;stop-opacity:1;"
         id="stop3752-3-7-4-0-32-8-923-0-7" />
      <stop
         offset="0.704952"
         style="stop-color:#485a6c;stop-opacity:1;"
         id="stop3754-1-8-5-2-7-6-7-1-9" />
      <stop
         offset="1"
         style="stop-color:#444c5c;stop-opacity:1;"
         id="stop3756-1-6-2-6-6-1-96-6-0" />
    </linearGradient>
  </defs>
  <metadata
     id="metadata3906">
    <rdf:RDF>
      <cc:Work
         rdf:about="" />
    </rdf:RDF>
  </metadata>
  <rect
     width="66.299995"
     height="7"
     x="14.849998"
     y="86"
     id="rect2879-2"
     style="display:inline;overflow:visible;visibility:visible;opacity:0.15;fill:url(#linearGradient3842);fill-opacity:1;fill-rule:nonzero;stroke:none;stroke-width:1;marker:none" />
  <path
     d="m 14.85,86.000298 c 0,0 0,6.999581 0,6.999581 -2.419842,0.014 -5.85,-1.56828 -5.85,-3.50028 0,-1.932 2.700361,-3.499301 5.85,-3.499301 z"
     id="path2881-9"
     style="display:inline;overflow:visible;visibility:visible;opacity:0.15;fill:url(#radialGradient3156);fill-opacity:1;fill-rule:nonzero;stroke:none;stroke-width:1;marker:none" />
  <path
     d="m 81.149999,86.000298 c 0,0 0,6.999581 0,6.999581 C 83.56984,93.013879 87,91.431599 87,89.499599 c 0,-1.932 -2.700361,-3.499301 -5.850001,-3.499301 z"
     id="path2883-1"
     style="display:inline;overflow:visible;visibility:visible;opacity:0.15;fill:url(#radialGradient3153);fill-opacity:1;fill-rule:nonzero;stroke:none;stroke-width:1;marker:none" />
  <path
     d="m 13,0.99999999 h 69.999918 l 8.5e-5,87.99999901 H 13 Z"
     id="path4160"
     style="display:inline;fill:url(#linearGradient3109);fill-opacity:1;stroke:none;stroke-width:0.999997"
     sodipodi:nodetypes="ccccc" />
  <path
     d="M 82.499999,88.499999 H 13.500001 V 1.5 h 68.999998 z"
     id="rect6741-1"
     style="fill:none;stroke:url(#linearGradient3106);stroke-width:1;stroke-linecap:round;stroke-linejoin:round;stroke-miterlimit:4;stroke-dasharray:none;stroke-dashoffset:0;stroke-opacity:1" />
  <path
     d="M 12.499959,0.4999623 83.499966,0.5 l 7.5e-5,89.000043 H 12.499959 Z"
     id="path4160-6-1"
     style="display:inline;fill:none;stroke:url(#linearGradient3170);stroke-width:0.999922;stroke-linecap:butt;stroke-linejoin:round;stroke-miterlimit:4;stroke-dasharray:none;stroke-dashoffset:0;stroke-opacity:1"
     sodipodi:nodetypes="ccccc" />
  <path
     style="color:#000000;clip-rule:nonzero;display:inline;overflow:visible;visibility:visible;isolation:auto;mix-blend-mode:normal;color-interpolation:sRGB;color-interpolation-filters:linearRGB;solid-color:#000000;solid-opacity:1;fill:url(#radialGradient4147-1);fill-opacity:1;fill-rule:nonzero;stroke:none;stroke-width:1.48387;stroke-linecap:butt;stroke-linejoin:miter;stroke-miterlimit:4;stroke-dasharray:none;stroke-dashoffset:0;stroke-opacity:1;marker:none;color-rendering:auto;image-rendering:auto;shape-rendering:auto;text-rendering:auto;enable-background:accumulate"
     d="m 44.999998,26 c -0.539896,0 -0.989804,2.085274 -1.253904,5.065429 a 16.500001,16.500001 0 0 0 -3.987309,1.675782 c -2.303319,-1.930419 -4.102548,-3.095692 -4.485344,-2.712892 l -4.245122,4.245118 c -0.382796,0.382801 0.782475,2.182031 2.712894,4.485352 A 16.500001,16.500001 0 0 0 32.08008,42.746093 C 29.091572,43.009936 27,43.459198 27,44 v 6 c 0,0.539896 2.085274,0.989812 5.065432,1.253907 A 16.500001,16.500001 0 0 0 33.735351,55.25 c -1.926032,2.299195 -3.089372,4.094222 -2.707031,4.476562 l 4.245122,4.245118 c 0.381977,0.381979 2.174746,-0.778583 4.470697,-2.701172 a 16.500001,16.500001 0 0 0 4.001956,1.649414 C 44.009932,65.908424 44.459203,68 44.999999,68 h 6.000003 c 0.539896,0 0.989814,-2.085274 1.253904,-5.065429 a 16.500001,16.500001 0 0 0 3.987309,-1.675782 c 2.303319,1.930419 4.102548,3.095692 4.485354,2.712891 l 4.245111,-4.245118 c 0.382807,-0.3828 -0.782474,-2.182029 -2.712893,-4.485351 A 16.500001,16.500001 0 0 0 63.91992,51.253908 C 66.908428,50.990065 69,50.540801 69,50 v -6 c 0,-0.539896 -2.085274,-0.98981 -5.065422,-1.253907 A 16.500001,16.500001 0 0 0 62.26465,38.75 c 1.926032,-2.299197 3.089372,-4.094222 2.70703,-4.476563 l -4.245111,-4.245118 c -0.381987,-0.381978 -2.174746,0.778584 -4.470707,2.701173 A 16.500001,16.500001 0 0 0 52.253906,31.080078 C 51.990068,28.091574 51.540807,26 51.000001,26 Z m 3.000001,13.5 a 7.5000004,7.5000004 0 0 1 7.500004,7.5 7.5000004,7.5000004 0 0 1 -7.500004,7.5 7.5000004,7.5000004 0 0 1 -7.500003,-7.5 7.5000004,7.5000004 0 0 1 7.500003,-7.5 z"
     id="path4690" />
</svg>
