<?xml version="1.0" encoding="UTF-8" standalone="no"?>
<!-- Created with Inkscape (http://www.inkscape.org/) -->

<svg
   xmlns:dc="http://purl.org/dc/elements/1.1/"
   xmlns:cc="http://creativecommons.org/ns#"
   xmlns:rdf="http://www.w3.org/1999/02/22-rdf-syntax-ns#"
   xmlns:svg="http://www.w3.org/2000/svg"
   xmlns="http://www.w3.org/2000/svg"
   xmlns:xlink="http://www.w3.org/1999/xlink"
   xmlns:sodipodi="http://sodipodi.sourceforge.net/DTD/sodipodi-0.dtd"
   xmlns:inkscape="http://www.inkscape.org/namespaces/inkscape"
   width="96"
   height="96"
   id="svg4112"
   version="1.1"
   inkscape:version="0.48+devel r"
   sodipodi:docname="application-pdf.svg">
  <defs
     id="defs4114">
    <linearGradient
       inkscape:collect="always"
       xlink:href="#linearGradient3977"
       id="linearGradient3988"
       gradientUnits="userSpaceOnUse"
       gradientTransform="matrix(1.8648649,0,0,2.3513511,3.2432535,-58.353766)"
       x1="23.99999"
       y1="5.5641499"
       x2="23.99999"
       y2="43" />
    <linearGradient
       id="linearGradient3977">
      <stop
         offset="0"
         style="stop-color:#ffffff;stop-opacity:1;"
         id="stop3979" />
      <stop
         id="stop3981"
         style="stop-color:#ffffff;stop-opacity:0.23529412;"
         offset="0.03626217" />
      <stop
         offset="0.95056331"
         style="stop-color:#ffffff;stop-opacity:0.15686275;"
         id="stop3983" />
      <stop
         offset="1"
         style="stop-color:#ffffff;stop-opacity:0.39215687;"
         id="stop3985" />
    </linearGradient>
    <radialGradient
       inkscape:collect="always"
       xlink:href="#linearGradient5060"
       id="radialGradient3327"
       gradientUnits="userSpaceOnUse"
       gradientTransform="matrix(0.03096969,0,0,0.01992572,35.184193,34.032952)"
       cx="605.71429"
       cy="486.64789"
       fx="605.71429"
       fy="486.64789"
       r="117.14286" />
    <linearGradient
       id="linearGradient5060">
      <stop
         id="stop5062"
         style="stop-color:#000000;stop-opacity:1"
         offset="0" />
      <stop
         id="stop5064"
         style="stop-color:#000000;stop-opacity:0"
         offset="1" />
    </linearGradient>
    <radialGradient
       inkscape:collect="always"
       xlink:href="#linearGradient5060"
       id="radialGradient3330"
       gradientUnits="userSpaceOnUse"
       gradientTransform="matrix(-0.03096968,0,0,0.01992572,28.815803,34.032952)"
       cx="605.71429"
       cy="486.64789"
       fx="605.71429"
       fy="486.64789"
       r="117.14286" />
    <linearGradient
       id="linearGradient5048">
      <stop
         id="stop5050"
         style="stop-color:#000000;stop-opacity:0"
         offset="0" />
      <stop
         id="stop5056"
         style="stop-color:#000000;stop-opacity:1"
         offset="0.5" />
      <stop
         id="stop5052"
         style="stop-color:#000000;stop-opacity:0"
         offset="1" />
    </linearGradient>
    <linearGradient
       y2="609.50507"
       x2="302.85715"
       y1="366.64789"
       x1="302.85715"
       gradientTransform="matrix(0.09049635,0,0,0.01992572,-0.70796579,34.032912)"
       gradientUnits="userSpaceOnUse"
       id="linearGradient4110"
       xlink:href="#linearGradient5048"
       inkscape:collect="always" />
    <linearGradient
       id="linearGradient4246-9">
      <stop
         offset="0"
         style="stop-color:#ffffff;stop-opacity:1"
         id="stop4248-6" />
      <stop
         offset="1"
         style="stop-color:#dcdcdc;stop-opacity:1"
         id="stop4250-1" />
    </linearGradient>
    <linearGradient
       inkscape:collect="always"
       xlink:href="#linearGradient4246-9"
       id="linearGradient3159"
       gradientUnits="userSpaceOnUse"
       gradientTransform="matrix(1.8962847,0,0,2.3156398,3.5233971,-57.5782)"
       x1="23.969797"
       y1="3.9810441"
       x2="23.969797"
       y2="44.024017" />
    <radialGradient
       r="19.99999"
       fy="8.4497671"
       fx="7.4956832"
       cy="8.4497671"
       cx="7.4956832"
       gradientTransform="matrix(0,5.8002528,-6.9607617,-3.2959265e-7,106.81701,-88.582519)"
       gradientUnits="userSpaceOnUse"
       id="radialGradient4023-5"
       xlink:href="#linearGradient3242-7-5-0-3"
       inkscape:collect="always" />
    <linearGradient
       id="linearGradient3242-7-5-0-3">
      <stop
         offset="0"
         style="stop-color:#f89b7e;stop-opacity:1"
         id="stop3244-6-7-3-3" />
      <stop
         offset="0.26238"
         style="stop-color:#e35d4f;stop-opacity:1"
         id="stop3246-5-0-7-8" />
      <stop
         offset="0.66093999"
         style="stop-color:#c6262e;stop-opacity:1"
         id="stop3248-6-8-8-3" />
      <stop
         offset="1"
         style="stop-color:#690b2c;stop-opacity:1"
         id="stop3250-9-1-8-7" />
    </linearGradient>
    <linearGradient
       y2="3.8990016"
       x2="24"
       y1="44"
       x1="24"
       gradientTransform="matrix(1.8205086,0,0,2.2817603,4.3077898,-56.70279)"
       gradientUnits="userSpaceOnUse"
       id="linearGradient4025-9"
       xlink:href="#linearGradient2490-3-9-0-3"
       inkscape:collect="always" />
    <linearGradient
       id="linearGradient2490-3-9-0-3">
      <stop
         offset="0"
         style="stop-color:#791235;stop-opacity:1"
         id="stop2492-7-7-4-7" />
      <stop
         offset="1"
         style="stop-color:#dd3b27;stop-opacity:1"
         id="stop2494-4-8-6-8" />
    </linearGradient>
  </defs>
  <sodipodi:namedview
     id="base"
     pagecolor="#ffffff"
     bordercolor="#666666"
     borderopacity="1.0"
     inkscape:pageopacity="0.0"
     inkscape:pageshadow="2"
     inkscape:zoom="5.65625"
     inkscape:cx="45.954796"
     inkscape:cy="53.442454"
     inkscape:current-layer="layer1"
     showgrid="true"
     inkscape:grid-bbox="true"
     inkscape:document-units="px"
     inkscape:window-width="1535"
     inkscape:window-height="876"
     inkscape:window-x="65"
     inkscape:window-y="24"
     inkscape:window-maximized="1"
     showguides="true"
     inkscape:guide-bbox="true">
    <inkscape:grid
       type="xygrid"
       id="grid3820"
       empspacing="5"
       visible="true"
       enabled="true"
       snapvisiblegridlinesonly="true" />
  </sodipodi:namedview>
  <metadata
     id="metadata4117">
    <rdf:RDF>
      <cc:Work
         rdf:about="">
        <dc:format>image/svg+xml</dc:format>
        <dc:type
           rdf:resource="http://purl.org/dc/dcmitype/StillImage" />
        <dc:title></dc:title>
      </cc:Work>
    </rdf:RDF>
  </metadata>
  <g
     id="layer1"
     inkscape:label="Layer 1"
     inkscape:groupmode="layer"
     transform="translate(0,48)">
    <g
       id="g4101"
       transform="matrix(1.5172733,0,0,1.4922872,-0.55274648,-23.310439)">
      <rect
         width="43.696804"
         height="4.8391037"
         x="10.151597"
         y="41.338631"
         id="rect2879"
         style="opacity:0.3;fill:url(#linearGradient4110);fill-opacity:1;fill-rule:nonzero;stroke:none;stroke-width:1;marker:none;visibility:visible;display:inline;overflow:visible" />
      <path
         d="m 10.151596,41.338842 c 0,0 0,4.838837 0,4.838837 -1.5948619,0.0091 -3.8556001,-1.084137 -3.8556001,-2.41973 0,-1.335591 1.7797462,-2.419106 3.8556001,-2.419107 z"
         id="path2881"
         style="opacity:0.3;fill:url(#radialGradient3330);fill-opacity:1;fill-rule:nonzero;stroke:none;stroke-width:1;marker:none;visibility:visible;display:inline;overflow:visible"
         inkscape:connector-curvature="0" />
      <path
         d="m 53.848404,41.338842 c 0,0 0,4.838837 0,4.838837 1.594862,0.0091 3.8556,-1.084137 3.8556,-2.41973 0,-1.335591 -1.779744,-2.419106 -3.8556,-2.419107 z"
         id="path2883"
         style="opacity:0.3;fill:url(#radialGradient3327);fill-opacity:1;fill-rule:nonzero;stroke:none;stroke-width:1;marker:none;visibility:visible;display:inline;overflow:visible"
         inkscape:connector-curvature="0" />
    </g>
    <path
       inkscape:connector-curvature="0"
       style="color:#000000;fill:url(#radialGradient4023-5);fill-opacity:1;fill-rule:nonzero;stroke:url(#linearGradient4025-9);stroke-width:1;stroke-linecap:round;stroke-linejoin:round;stroke-miterlimit:4;stroke-opacity:1;stroke-dasharray:none;stroke-dashoffset:0;marker:none;visibility:visible;display:inline;overflow:visible;enable-background:accumulate"
       id="path4160"
       d="m 12.5,-46.440536 c 16.269704,0 70.999915,0.0058 70.999915,0.0058 l 8.5e-5,88.9942 c 0,0 -47.333332,0 -71,0 0,-29.666661 0,-59.333318 0,-88.999977 z"
       sodipodi:nodetypes="ccccc" />
    <path
       style="opacity:0.5;fill:none;stroke:url(#linearGradient3988);stroke-width:1;stroke-linecap:round;stroke-linejoin:round;stroke-miterlimit:4;stroke-opacity:1;stroke-dasharray:none;stroke-dashoffset:0"
       d="m 82.499999,41.578647 -68.999999,0 0,-87.000004 68.999999,0 z"
       id="rect6741-1"
       inkscape:connector-curvature="0"
       sodipodi:nodetypes="ccccc" />
    <path
       inkscape:connector-curvature="0"
       style="opacity:0.05;fill:#000000;fill-opacity:1;fill-rule:evenodd;stroke:none"
       d="M 55.797318,-42.4 C 31.498318,-16.640566 17.617177,-13.004514 13,-12.603571 l 0,9.2571377 c 3.485043,-0.6011847 12.245107,-2.6887202 21.574538,-9.9080337 11.962901,-9.257139 26.087861,-26.38926 26.087861,-26.38926 C 56.955945,-30.661312 55.926157,-1.2230329 55.738693,38.6 l 24.798995,0 C 81.485626,38.6 82.340881,38.153111 83,37.442851 79.096792,25.895412 76.376395,10.71071 74.32328,-3.0571473 72.376874,-21.305378 75.25099,-37.259655 76.316585,-42.4 Z M 13,2.5116034 13,12.708928 c 8.742407,0 23.390822,14.588287 31.536312,29.203926 L 49.758795,38.6 C 41.713359,22.656668 19.67405,2.5116034 13,2.5116034 Z"
       id="path6711-0-7-1-0"
       sodipodi:nodetypes="cccsccsccccccccc" />
    <path
       inkscape:connector-curvature="0"
       style="opacity:0.1;fill:#000000;fill-opacity:1;fill-rule:evenodd;stroke:none"
       d="m 55.481915,-43.4 c -24.117213,25.662262 -37.894505,29.284597 -42.47714,29.684028 l 0,9.2222174 c 3.45897,-0.5989196 12.153498,-2.6785802 21.413134,-9.8706584 11.873402,-9.222223 25.935566,-26.022853 25.935566,-26.022853 -3.263078,11.070555 -4.037765,41.7678858 -4.222564,82.462404 L 80.037196,39.6 c 1.222436,-0.126565 2.290109,-0.743191 2.967579,-1.873267 C 78.828979,26.058398 76.00204,10.149847 73.86928,-4.2055611 71.937435,-22.384959 74.79005,-38.279049 75.847671,-43.4 Z m -42.47714,44.7421827 0,10.1588603 c 9.133516,0 24.314403,14.859616 32.285862,30.536717 L 50.535947,39.6 C 43.68168,23.430757 19.957844,1.3421827 13.004775,1.3421827 Z"
       id="path6711-0-7-4"
       sodipodi:nodetypes="cccsccsccccccccc" />
    <path
       style="opacity:0.25;fill:#000000;fill-opacity:1;fill-rule:evenodd;stroke:none"
       d="M 56.235294,-45 C 31.674169,-19.133552 17.666984,-15.450441 13,-15.047835 l 0,9.2556038 c 3.522639,-0.6036862 12.380588,-2.6490489 21.810662,-9.8983528 12.091949,-9.295599 26.57169,-26.995514 26.57169,-26.995514 C 57.490414,-33.316074 56.285554,-1.3397377 56.170958,41 l 25.091911,0 C 81.88856,41 82.480652,40.811385 83,40.485795 l 0,-7.455903 C 79.435753,21.739965 76.906429,7.5111196 74.957721,-5.4708561 72.990314,-23.794899 75.939455,-39.838301 77.016544,-45 Z M 13,0.1210715 13,10.340804 c 9.753833,0 24.962228,14.774977 32.864016,31.659196 l 6.31797,-1 C 46.685575,24.594489 20.420952,0.1210715 13,0.1210715 Z"
       id="path6711-0-2"
       inkscape:connector-curvature="0"
       sodipodi:nodetypes="cccsccscccccccccc" />
    <path
       style="fill:url(#linearGradient3159);fill-opacity:1;fill-rule:evenodd;stroke:none"
       d="M 56.235294,-46 C 31.674169,-20.225489 17.666983,-16.555467 13,-16.15429 l 0,9.2227019 C 16.522639,-7.5331263 25.380588,-9.6352662 34.810663,-16.858808 46.902611,-26.121366 61.382352,-43.694324 61.382352,-43.694324 57.417677,-34.183099 56.24756,-1.3699931 56.170959,42 l 25.349263,0 C 82.06124,42 82.543867,41.872312 83,41.615721 l 0,-9.927219 C 79.449618,20.445038 76.90184,6.2940081 74.957721,-6.6113558 72.990315,-24.870264 75.939455,-40.85665 77.016544,-46 l -20.78125,0 z M 13,-1.1033496 13,9.1441034 C 23.196651,9.1441034 38.872641,24.137519 46.455882,42 l 6.369487,0 C 49.262192,25.76126 20.779225,-1.1033496 13,-1.1033496 Z"
       id="path6711-2"
       inkscape:connector-curvature="0" />
    <path
       style="opacity:0.1;fill:#000000;fill-opacity:1;fill-rule:evenodd;stroke:none"
       d="M 78.110295,-45.990556 C 68.456481,-38.891626 36.863797,-17.27169 13,-20.010833 l 0,19.59541273 c 0,0 49.507803,8.91961787 70,-7.52210963 l 0,-37.5473361 c -0.519188,-0.320772 -1.11144,-0.50569 -1.737131,-0.50569 l -3.152574,0 z"
       id="path6713-2"
       inkscape:connector-curvature="0" />
    <path
       style="opacity:0.1;fill:#000000;fill-opacity:1;fill-rule:evenodd;stroke:none"
       d="M 83,2 C 74.045744,13.190509 65.111541,27.359767 59,42 l 7.654055,0 C 71.39103,32.376575 77.422714,21.930347 83,14.571429 L 83,2 Z"
       id="path6715-0"
       inkscape:connector-curvature="0" />
  </g>
</svg>
