<?xml version="1.0" encoding="UTF-8" standalone="no"?>
<svg
   id="svg3901"
   height="96"
   width="96"
   version="1.1"
   sodipodi:docname="application-vnd.ms-access.svg"
   inkscape:version="1.1.2 (0a00cf5339, 2022-02-04)"
   xmlns:inkscape="http://www.inkscape.org/namespaces/inkscape"
   xmlns:sodipodi="http://sodipodi.sourceforge.net/DTD/sodipodi-0.dtd"
   xmlns:xlink="http://www.w3.org/1999/xlink"
   xmlns="http://www.w3.org/2000/svg"
   xmlns:svg="http://www.w3.org/2000/svg"
   xmlns:rdf="http://www.w3.org/1999/02/22-rdf-syntax-ns#"
   xmlns:cc="http://creativecommons.org/ns#">
  <sodipodi:namedview
     id="namedview41"
     pagecolor="#ffffff"
     bordercolor="#666666"
     borderopacity="1.0"
     inkscape:pageshadow="2"
     inkscape:pageopacity="0.0"
     inkscape:pagecheckerboard="0"
     showgrid="false"
     inkscape:zoom="5.0234044"
     inkscape:cx="40.211774"
     inkscape:cy="61.213467"
     inkscape:window-width="1396"
     inkscape:window-height="896"
     inkscape:window-x="570"
     inkscape:window-y="132"
     inkscape:window-maximized="0"
     inkscape:current-layer="svg3901" />
  <defs
     id="defs3903">
    <linearGradient
       id="linearGradient3403">
      <stop
         id="stop3405"
         style="stop-color:#ffffff;stop-opacity:1"
         offset="0" />
      <stop
         id="stop3407"
         style="stop-color:#ffffff;stop-opacity:0.23529412"
         offset="0.00541497" />
      <stop
         id="stop3409"
         style="stop-color:#ffffff;stop-opacity:0.15686275"
         offset="1" />
      <stop
         id="stop3411"
         style="stop-color:#ffffff;stop-opacity:0.39215687"
         offset="1" />
    </linearGradient>
    <linearGradient
       id="linearGradient3600">
      <stop
         offset="0"
         style="stop-color:#f4f4f4;stop-opacity:1"
         id="stop3602" />
      <stop
         offset="1"
         style="stop-color:#dbdbdb;stop-opacity:1"
         id="stop3604" />
    </linearGradient>
    <linearGradient
       id="linearGradient5060">
      <stop
         offset="0"
         style="stop-color:#000000;stop-opacity:1"
         id="stop5062" />
      <stop
         offset="1"
         style="stop-color:#000000;stop-opacity:0"
         id="stop5064" />
    </linearGradient>
    <linearGradient
       id="linearGradient5048">
      <stop
         offset="0"
         style="stop-color:#000000;stop-opacity:0"
         id="stop5050" />
      <stop
         offset="0.5"
         style="stop-color:#000000;stop-opacity:1"
         id="stop5056" />
      <stop
         offset="1"
         style="stop-color:#000000;stop-opacity:0"
         id="stop5052" />
    </linearGradient>
    <linearGradient
       id="linearGradient3104-6">
      <stop
         id="stop3106-3"
         style="stop-color:#000000;stop-opacity:0.31782946"
         offset="0" />
      <stop
         id="stop3108-9"
         style="stop-color:#000000;stop-opacity:0.24031007"
         offset="1" />
    </linearGradient>
    <linearGradient
       y2="42.273762"
       x2="23.99999"
       y1="5.6275582"
       x1="23.99999"
       gradientTransform="matrix(1.8648648,0,0,2.3513513,3.2432558,-11.432408)"
       gradientUnits="userSpaceOnUse"
       id="linearGradient3106"
       xlink:href="#linearGradient3403" />
    <linearGradient
       y2="47.013336"
       x2="25.132275"
       y1="0.98520643"
       x1="25.132275"
       gradientTransform="matrix(1.9999954,0,0,1.9120955,1.0813194e-4,-3.8236272)"
       gradientUnits="userSpaceOnUse"
       id="linearGradient3109"
       xlink:href="#linearGradient3600" />
    <linearGradient
       y2="2.9062471"
       x2="-51.786404"
       y1="50.786446"
       x1="-51.786404"
       gradientTransform="matrix(1.6380632,0,0,1.8097673,119.83211,-6.5336729)"
       gradientUnits="userSpaceOnUse"
       id="linearGradient3170"
       xlink:href="#linearGradient3104-6" />
    <linearGradient
       gradientTransform="matrix(0.13730769,0,0,0.02882352,-1.626924,75.431978)"
       gradientUnits="userSpaceOnUse"
       xlink:href="#linearGradient5048"
       id="linearGradient3842"
       y2="609.50507"
       x2="302.85715"
       y1="366.64789"
       x1="302.85715" />
    <radialGradient
       gradientTransform="matrix(-0.04698948,0,0,0.02882352,43.168704,75.431978)"
       gradientUnits="userSpaceOnUse"
       xlink:href="#linearGradient5060"
       id="radialGradient3156"
       fy="486.64789"
       fx="605.71429"
       r="117.14286"
       cy="486.64789"
       cx="605.71429" />
    <radialGradient
       gradientTransform="matrix(0.04698949,0,0,0.02882352,52.831289,75.431978)"
       gradientUnits="userSpaceOnUse"
       xlink:href="#linearGradient5060"
       id="radialGradient3153"
       fy="486.64789"
       fx="605.71429"
       r="117.14286"
       cy="486.64789"
       cx="605.71429" />
    <radialGradient
       cx="8.276144"
       cy="9.9941158"
       r="12.671875"
       fx="8.276144"
       fy="9.9941158"
       id="radialGradient3988-4"
       xlink:href="#linearGradient3242-4"
       gradientUnits="userSpaceOnUse"
       gradientTransform="matrix(0,14.794444,-18.162852,0,229.68208,-142.40561)" />
    <linearGradient
       id="linearGradient3242-4">
      <stop
         id="stop3244-7"
         style="stop-color:#f89b7e;stop-opacity:1"
         offset="0" />
      <stop
         id="stop3246-1"
         style="stop-color:#e35d4f;stop-opacity:1"
         offset="0.26238" />
      <stop
         id="stop3248-5"
         style="stop-color:#c6262e;stop-opacity:1"
         offset="0.66093999" />
      <stop
         id="stop3250-7"
         style="stop-color:#690b2c;stop-opacity:1"
         offset="1" />
    </linearGradient>
  </defs>
  <metadata
     id="metadata3906">
    <rdf:RDF>
      <cc:Work
         rdf:about="" />
    </rdf:RDF>
  </metadata>
  <rect
     width="66.299995"
     height="7"
     x="14.849998"
     y="86"
     id="rect2879-2"
     style="display:inline;overflow:visible;visibility:visible;opacity:0.15;fill:url(#linearGradient3842);fill-opacity:1;fill-rule:nonzero;stroke:none;stroke-width:1;marker:none" />
  <path
     d="m 14.85,86.000298 c 0,0 0,6.999581 0,6.999581 -2.419842,0.014 -5.85,-1.56828 -5.85,-3.50028 0,-1.932 2.700361,-3.499301 5.85,-3.499301 z"
     id="path2881-9"
     style="display:inline;overflow:visible;visibility:visible;opacity:0.15;fill:url(#radialGradient3156);fill-opacity:1;fill-rule:nonzero;stroke:none;stroke-width:1;marker:none" />
  <path
     d="m 81.149999,86.000298 c 0,0 0,6.999581 0,6.999581 C 83.56984,93.013879 87,91.431599 87,89.499599 c 0,-1.932 -2.700361,-3.499301 -5.850001,-3.499301 z"
     id="path2883-1"
     style="display:inline;overflow:visible;visibility:visible;opacity:0.15;fill:url(#radialGradient3153);fill-opacity:1;fill-rule:nonzero;stroke:none;stroke-width:1;marker:none" />
  <path
     d="m 13,0.99999999 h 69.999918 l 8.5e-5,87.99999901 H 13 Z"
     id="path4160"
     style="display:inline;fill:url(#linearGradient3109);fill-opacity:1;stroke:none;stroke-width:0.999997"
     sodipodi:nodetypes="ccccc" />
  <path
     d="M 82.499999,88.499999 H 13.500001 V 1.5 h 68.999998 z"
     id="rect6741-1"
     style="fill:none;stroke:url(#linearGradient3106);stroke-width:1;stroke-linecap:round;stroke-linejoin:round;stroke-miterlimit:4;stroke-dasharray:none;stroke-dashoffset:0;stroke-opacity:1" />
  <path
     d="M 12.499959,0.4999623 83.499966,0.5 l 7.5e-5,89.000043 H 12.499959 Z"
     id="path4160-6-1"
     style="display:inline;fill:none;stroke:url(#linearGradient3170);stroke-width:0.999922;stroke-linecap:butt;stroke-linejoin:round;stroke-miterlimit:4;stroke-dasharray:none;stroke-dashoffset:0;stroke-opacity:1"
     sodipodi:nodetypes="ccccc" />
  <path
     inkscape:connector-curvature="0"
     style="color:#000000;clip-rule:nonzero;display:inline;overflow:visible;visibility:visible;isolation:auto;mix-blend-mode:normal;color-interpolation:sRGB;color-interpolation-filters:linearRGB;solid-color:#000000;solid-opacity:1;fill:url(#radialGradient3988-4);fill-opacity:1;fill-rule:nonzero;stroke:none;stroke-width:1;stroke-linecap:butt;stroke-linejoin:miter;stroke-miterlimit:4;stroke-dasharray:none;stroke-dashoffset:0;stroke-opacity:1;marker:none;color-rendering:auto;image-rendering:auto;shape-rendering:auto;text-rendering:auto;enable-background:accumulate"
     id="path4255"
     d="m 50,25.934 -24,4.4 v 32.266666 l 24,4.4 z m 5.745834,5.866666 c -0.46917,0.0046 -0.945832,0.0278 -1.420834,0.04584 l -1.925,0.04584 v 3.7125 3.7125 l 0.733334,0.09166 c 1.461974,0.18354 4.901336,0.1285 7.195832,-0.09166 6.172558,-0.592122 10.063248,-2.288058 9.395834,-4.07918 -0.748782,-2.00947 -6.94162,-3.497596 -13.979166,-3.4375 z M 70,36.842334 69.45,37.484 c -0.724602,0.871126 -2.724972,1.798076 -5.179166,2.3375 -1.516394,0.333292 -3.154646,0.459454 -6.920834,0.55 l -4.95,0.09166 v 2.8875 2.841666 l 4.8125,-0.1375 c 3.812372,-0.09026 5.299074,-0.220918 7.0125,-0.595826 2.472358,-0.540968 4.39851,-1.31807 5.133334,-2.108334 l 0.504166,-0.55 0.09166,-2.979166 z M 37.320834,39.409 H 38.7875 c 1.221646,0 1.512368,0.05704 1.604166,0.366666 0.06102,0.205866 0.915376,3.365694 1.925,7.0125 1.009624,3.646806 1.873858,6.727952 1.925,6.875 0.06776,0.19476 -0.254876,0.2873 -1.145832,0.275 -0.672732,-0.0092 -1.328008,-0.08096 -1.466668,-0.1375 -0.1386,-0.05654 -0.389488,-0.820552 -0.595832,-1.695834 l -0.4125,-1.558332 h -1.925 H 36.725 l -0.320834,1.420832 -0.275,1.466668 -1.375,0.04584 -1.329166,0.04584 0.09166,-0.366666 c 0.06438,-0.211738 0.818708,-2.899724 1.65,-5.958334 0.831292,-3.058612 1.657188,-6.028228 1.833334,-6.645832 z m 1.375,3.3 c -0.06028,0.0168 -0.341748,0.94468 -0.641668,2.154166 -0.319894,1.290122 -0.62565,2.498298 -0.6875,2.704166 -0.099,0.32945 0.06756,0.4125 1.283334,0.4125 h 1.375 L 39.383334,45.459 c -0.34477,-1.382258 -0.654324,-2.63627 -0.6875,-2.75 z M 70,43.625666 l -0.641666,0.6875 c -1.673256,1.811994 -7.073342,2.952936 -13.704168,2.8875 l -3.116666,-0.04584 -0.09166,2.75 -0.04584,2.75 0.366666,0.1375 c 0.801386,0.241906 8.447998,-0.0665 10.358334,-0.4125 2.666774,-0.483016 5.110392,-1.308308 6.004166,-2.0625 l 0.733334,-0.64166 0.09166,-3.025 z m 0,6.6 -0.641666,0.779166 C 67.79601,52.804852 62.993996,53.866428 56.25,53.892332 H 52.4 V 56.688166 59.484 l 1.145834,0.09166 C 55.867002,59.73992 56.711838,59.703 59.55,59.484 c 4.802992,-0.370638 8.47037,-1.346208 9.670834,-2.6125 L 69.8625,56.184 69.95416,53.204832 Z"
     sodipodi:nodetypes="ccccccccccccscccscccccscccccscsccccccccccccscccccsccccccccccscccccccccccscccc" />
</svg>
