<?xml version="1.0" encoding="UTF-8" standalone="no"?>
<svg
   id="svg3901"
   height="96"
   width="96"
   version="1.1"
   sodipodi:docname="application-pgp-encrypted.svg"
   inkscape:version="1.1.1 (3bf5ae0d25, 2021-09-20)"
   xmlns:inkscape="http://www.inkscape.org/namespaces/inkscape"
   xmlns:sodipodi="http://sodipodi.sourceforge.net/DTD/sodipodi-0.dtd"
   xmlns:xlink="http://www.w3.org/1999/xlink"
   xmlns="http://www.w3.org/2000/svg"
   xmlns:svg="http://www.w3.org/2000/svg"
   xmlns:rdf="http://www.w3.org/1999/02/22-rdf-syntax-ns#"
   xmlns:cc="http://creativecommons.org/ns#">
  <sodipodi:namedview
     id="namedview41"
     pagecolor="#ffffff"
     bordercolor="#666666"
     borderopacity="1.0"
     inkscape:pageshadow="2"
     inkscape:pageopacity="0.0"
     inkscape:pagecheckerboard="0"
     showgrid="false"
     inkscape:zoom="5.0234044"
     inkscape:cx="46.382887"
     inkscape:cy="28.864887"
     inkscape:window-width="1396"
     inkscape:window-height="896"
     inkscape:window-x="522"
     inkscape:window-y="133"
     inkscape:window-maximized="0"
     inkscape:current-layer="svg3901" />
  <defs
     id="defs3903">
    <linearGradient
       id="linearGradient3403">
      <stop
         id="stop3405"
         style="stop-color:#ffffff;stop-opacity:1"
         offset="0" />
      <stop
         id="stop3407"
         style="stop-color:#ffffff;stop-opacity:0.23529412"
         offset="0.00541497" />
      <stop
         id="stop3409"
         style="stop-color:#ffffff;stop-opacity:0.15686275"
         offset="1" />
      <stop
         id="stop3411"
         style="stop-color:#ffffff;stop-opacity:0.39215687"
         offset="1" />
    </linearGradient>
    <linearGradient
       id="linearGradient3600">
      <stop
         offset="0"
         style="stop-color:#f4f4f4;stop-opacity:1"
         id="stop3602" />
      <stop
         offset="1"
         style="stop-color:#dbdbdb;stop-opacity:1"
         id="stop3604" />
    </linearGradient>
    <linearGradient
       id="linearGradient5060">
      <stop
         offset="0"
         style="stop-color:#000000;stop-opacity:1"
         id="stop5062" />
      <stop
         offset="1"
         style="stop-color:#000000;stop-opacity:0"
         id="stop5064" />
    </linearGradient>
    <linearGradient
       id="linearGradient5048">
      <stop
         offset="0"
         style="stop-color:#000000;stop-opacity:0"
         id="stop5050" />
      <stop
         offset="0.5"
         style="stop-color:#000000;stop-opacity:1"
         id="stop5056" />
      <stop
         offset="1"
         style="stop-color:#000000;stop-opacity:0"
         id="stop5052" />
    </linearGradient>
    <linearGradient
       id="linearGradient3104-6">
      <stop
         id="stop3106-3"
         style="stop-color:#000000;stop-opacity:0.31782946"
         offset="0" />
      <stop
         id="stop3108-9"
         style="stop-color:#000000;stop-opacity:0.24031007"
         offset="1" />
    </linearGradient>
    <linearGradient
       y2="42.273762"
       x2="23.99999"
       y1="5.6275582"
       x1="23.99999"
       gradientTransform="matrix(1.8648648,0,0,2.3513513,3.2432558,-11.432408)"
       gradientUnits="userSpaceOnUse"
       id="linearGradient3106"
       xlink:href="#linearGradient3403" />
    <linearGradient
       y2="47.013336"
       x2="25.132275"
       y1="0.98520643"
       x1="25.132275"
       gradientTransform="matrix(1.9999954,0,0,1.9120955,1.0813194e-4,-3.8236272)"
       gradientUnits="userSpaceOnUse"
       id="linearGradient3109"
       xlink:href="#linearGradient3600" />
    <linearGradient
       y2="2.9062471"
       x2="-51.786404"
       y1="50.786446"
       x1="-51.786404"
       gradientTransform="matrix(1.6380632,0,0,1.8097673,119.83211,-6.5336729)"
       gradientUnits="userSpaceOnUse"
       id="linearGradient3170"
       xlink:href="#linearGradient3104-6" />
    <linearGradient
       gradientTransform="matrix(0.13730769,0,0,0.02882352,-1.626924,75.431978)"
       gradientUnits="userSpaceOnUse"
       xlink:href="#linearGradient5048"
       id="linearGradient3842"
       y2="609.50507"
       x2="302.85715"
       y1="366.64789"
       x1="302.85715" />
    <radialGradient
       gradientTransform="matrix(-0.04698948,0,0,0.02882352,43.168704,75.431978)"
       gradientUnits="userSpaceOnUse"
       xlink:href="#linearGradient5060"
       id="radialGradient3156"
       fy="486.64789"
       fx="605.71429"
       r="117.14286"
       cy="486.64789"
       cx="605.71429" />
    <radialGradient
       gradientTransform="matrix(0.04698949,0,0,0.02882352,52.831289,75.431978)"
       gradientUnits="userSpaceOnUse"
       xlink:href="#linearGradient5060"
       id="radialGradient3153"
       fy="486.64789"
       fx="605.71429"
       r="117.14286"
       cy="486.64789"
       cx="605.71429" />
  </defs>
  <metadata
     id="metadata3906">
    <rdf:RDF>
      <cc:Work
         rdf:about="" />
    </rdf:RDF>
  </metadata>
  <rect
     width="66.299995"
     height="7"
     x="14.849998"
     y="86"
     id="rect2879-2"
     style="display:inline;overflow:visible;visibility:visible;opacity:0.15;fill:url(#linearGradient3842);fill-opacity:1;fill-rule:nonzero;stroke:none;stroke-width:1;marker:none" />
  <path
     d="m 14.85,86.000298 c 0,0 0,6.999581 0,6.999581 -2.419842,0.014 -5.85,-1.56828 -5.85,-3.50028 0,-1.932 2.700361,-3.499301 5.85,-3.499301 z"
     id="path2881-9"
     style="display:inline;overflow:visible;visibility:visible;opacity:0.15;fill:url(#radialGradient3156);fill-opacity:1;fill-rule:nonzero;stroke:none;stroke-width:1;marker:none" />
  <path
     d="m 81.149999,86.000298 c 0,0 0,6.999581 0,6.999581 C 83.56984,93.013879 87,91.431599 87,89.499599 c 0,-1.932 -2.700361,-3.499301 -5.850001,-3.499301 z"
     id="path2883-1"
     style="display:inline;overflow:visible;visibility:visible;opacity:0.15;fill:url(#radialGradient3153);fill-opacity:1;fill-rule:nonzero;stroke:none;stroke-width:1;marker:none" />
  <path
     d="m 13,0.99999999 h 69.999918 l 8.5e-5,87.99999901 H 13 Z"
     id="path4160"
     style="display:inline;fill:url(#linearGradient3109);fill-opacity:1;stroke:none;stroke-width:0.999997"
     sodipodi:nodetypes="ccccc" />
  <path
     d="M 82.499999,88.499999 H 13.500001 V 1.5 h 68.999998 z"
     id="rect6741-1"
     style="fill:none;stroke:url(#linearGradient3106);stroke-width:1;stroke-linecap:round;stroke-linejoin:round;stroke-miterlimit:4;stroke-dasharray:none;stroke-dashoffset:0;stroke-opacity:1" />
  <path
     d="M 12.499959,0.4999623 83.499966,0.5 l 7.5e-5,89.000043 H 12.499959 Z"
     id="path4160-6-1"
     style="display:inline;fill:none;stroke:url(#linearGradient3170);stroke-width:0.999922;stroke-linecap:butt;stroke-linejoin:round;stroke-miterlimit:4;stroke-dasharray:none;stroke-dashoffset:0;stroke-opacity:1"
     sodipodi:nodetypes="ccccc" />
  <path
     inkscape:connector-curvature="0"
     style="color:#000000;display:inline;overflow:visible;visibility:visible;fill:#0093dd;fill-opacity:1;fill-rule:nonzero;stroke:none;stroke-width:1;marker:none;enable-background:accumulate"
     d="m 47.999996,19.988 c -8.863998,0 -15.999994,7.135996 -15.999994,15.999998 v 7.994896 H 30 v 12.191994 l 0.812498,-1.062498 c 1.16266,-1.561402 4.261624,-3.791598 6.687504,-4.749998 1.278062,-0.505 4.346792,-1.059102 7.812498,-1.437504 5.221696,-0.586798 15.087254,-0.941998 18.687498,-4.941994 V 35.987998 C 63.999998,27.123996 56.864004,19.988 47.999996,19.988 Z m 1.312504,1.9375 c 0.758336,0.0442 1.501596,0.13256 2.25,0.312516 2.688738,0.646196 2.992304,1.2686 0.375014,0.750002 -4.117982,-0.8162 -9.587526,1.017 -12.937496,4.375 -1.0017,1.004198 -2.26545,2.666894 -2.8125,3.687494 -1.12713,2.103002 -0.949806,0.748502 0.249984,-1.812494 2.193606,-4.682302 7.56666,-7.622252 12.874998,-7.312518 z m -1.312504,6.062496 C 52.432,27.987996 56,31.555996 56,35.987998 v 7.994896 H 40.000002 v -7.994896 c 0,-4.432002 3.567998,-8.000002 7.999994,-8.000002 z M 66,48.312394 l -2.124996,1.75 c -1.155004,0.982796 -2.962506,2.3278 -4.062504,2.999998 -2.251264,1.375798 -7.588692,3.312498 -9.187502,3.312498 -0.60137,0 -0.953914,0.14562 -0.812494,0.375018 0.266508,0.432 3.462068,0.237672 6.812498,-0.437496 1.100002,-0.221436 3.652492,-1.219602 5.687496,-2.250004 L 66,52.187408 V 50.24991 Z m 0,4.312502 -1.125004,1.562496 c -3.731428,5.1434 -9.807534,7.9934 -18.249994,8.5 -5.638976,0.338184 -3.574396,0.98 3.187502,0.999998 4.58055,0.0064 5.613018,-0.13288 8.374992,-1.062498 1.727946,-0.5814 3.162806,-1.025502 3.250002,-0.937498 0.31464,0.315216 -3.065916,3.112496 -4.937502,4.062496 -3.586,1.8202 -6.027876,2.331 -12.499996,2.624998 -4.597606,0.2088 -6.48514,0.4465 -7.374996,0.937504 -1.133088,0.623996 -0.384378,0.667498 14.062498,0.6875 H 66 Z"
     id="rect3164"
     sodipodi:nodetypes="sscccccccsscccccccssccsscccscccccccccccccccccc" />
</svg>
