<?xml version="1.0" encoding="UTF-8" standalone="no"?>
<svg
   version="1.1"
   width="96"
   height="96"
   id="svg3049"
   sodipodi:docname="application-x-lzma.svg"
   inkscape:version="1.1.2 (0a00cf5339, 2022-02-04)"
   xmlns:inkscape="http://www.inkscape.org/namespaces/inkscape"
   xmlns:sodipodi="http://sodipodi.sourceforge.net/DTD/sodipodi-0.dtd"
   xmlns:xlink="http://www.w3.org/1999/xlink"
   xmlns="http://www.w3.org/2000/svg"
   xmlns:svg="http://www.w3.org/2000/svg"
   xmlns:rdf="http://www.w3.org/1999/02/22-rdf-syntax-ns#"
   xmlns:cc="http://creativecommons.org/ns#"
   xmlns:dc="http://purl.org/dc/elements/1.1/">
  <sodipodi:namedview
     id="namedview54"
     pagecolor="#ffffff"
     bordercolor="#666666"
     borderopacity="1.0"
     inkscape:pageshadow="2"
     inkscape:pageopacity="0.0"
     inkscape:pagecheckerboard="0"
     showgrid="false"
     inkscape:zoom="3.7675533"
     inkscape:cx="35.964986"
     inkscape:cy="52.023153"
     inkscape:window-width="1317"
     inkscape:window-height="893"
     inkscape:window-x="701"
     inkscape:window-y="137"
     inkscape:window-maximized="0"
     inkscape:current-layer="svg3049" />
  <defs
     id="defs3051">
    <linearGradient
       id="linearGradient3811">
      <stop
         id="stop3813"
         style="stop-color:#000000;stop-opacity:1"
         offset="0" />
      <stop
         id="stop3815"
         style="stop-color:#000000;stop-opacity:0"
         offset="1" />
    </linearGradient>
    <linearGradient
       xlink:href="#linearGradient121303"
       id="linearGradient121764"
       gradientUnits="userSpaceOnUse"
       gradientTransform="matrix(2.0331557,0,0,1.636411,-0.69079033,15.567117)"
       x1="25.086039"
       y1="-1.3623691"
       x2="25.086039"
       y2="18.299334" />
    <linearGradient
       id="linearGradient121303">
      <stop
         id="stop121295"
         style="stop-color:#ffffff;stop-opacity:1"
         offset="0" />
      <stop
         id="stop121297"
         style="stop-color:#ffffff;stop-opacity:0.23529412"
         offset="0.11419468" />
      <stop
         id="stop121299"
         style="stop-color:#ffffff;stop-opacity:0.15686275"
         offset="0.93896598" />
      <stop
         id="stop121301"
         style="stop-color:#ffffff;stop-opacity:0.39215687"
         offset="1" />
    </linearGradient>
    <linearGradient
       xlink:href="#c"
       id="linearGradient121762"
       gradientUnits="userSpaceOnUse"
       gradientTransform="matrix(2.2362101,0,0,1.8517678,-5.6414616,-6.9575318)"
       x1="24.537001"
       y1="21.915001"
       x2="24.537001"
       y2="9.9296083" />
    <linearGradient
       id="c">
      <stop
         offset="0"
         stop-color="#fff"
         id="stop36" />
      <stop
         offset="0.3312453"
         stop-color="#fff"
         id="stop38" />
      <stop
         offset="0.36582196"
         stop-color="#fff"
         stop-opacity=".643"
         id="stop40" />
      <stop
         offset="1"
         stop-color="#fff"
         stop-opacity=".391"
         id="stop42" />
    </linearGradient>
    <linearGradient
       xlink:href="#linearGradient3924-2-2-5-8"
       id="linearGradient121760"
       gradientUnits="userSpaceOnUse"
       gradientTransform="matrix(2.0270272,0,0,1.6756756,-0.6486551,16.283787)"
       x1="23.99999"
       y1="5.9204559"
       x2="23.99999"
       y2="42.079544" />
    <linearGradient
       id="linearGradient3924-2-2-5-8">
      <stop
         id="stop3926-9-4-9-6"
         style="stop-color:#ffffff;stop-opacity:1"
         offset="0" />
      <stop
         id="stop3928-9-8-6-5"
         style="stop-color:#ffffff;stop-opacity:0.23529412"
         offset="0.09302325" />
      <stop
         id="stop3930-3-5-1-7"
         style="stop-color:#ffffff;stop-opacity:0.15686275"
         offset="0.9069767" />
      <stop
         id="stop3932-8-0-4-8"
         style="stop-color:#ffffff;stop-opacity:0.39215687"
         offset="1" />
    </linearGradient>
    <linearGradient
       xlink:href="#d"
       id="linearGradient121758"
       gradientUnits="userSpaceOnUse"
       gradientTransform="matrix(2.4012199,0,0,2.1906549,-8.4506609,-3.983781)"
       x1="23.452"
       y1="30.555"
       x2="43.007"
       y2="45.933998" />
    <linearGradient
       id="d">
      <stop
         offset="0"
         stop-color="#fff"
         stop-opacity="0"
         id="stop65" />
      <stop
         offset="1"
         stop-color="#fff"
         stop-opacity="0"
         id="stop67" />
    </linearGradient>
    <linearGradient
       xlink:href="#linearGradient106305"
       id="linearGradient121756"
       gradientUnits="userSpaceOnUse"
       gradientTransform="matrix(2.4079952,0,0,2.5904958,81.141271,-24.975762)"
       x1="-5.8870335"
       y1="19.72085"
       x2="-5.8870335"
       y2="43.375748" />
    <linearGradient
       id="linearGradient106305">
      <stop
         offset="0"
         stop-color="#dac197"
         id="stop106301"
         style="stop-color:#e7c591;stop-opacity:1" />
      <stop
         offset="1"
         stop-color="#b19974"
         id="stop106303"
         style="stop-color:#cfa25e;stop-opacity:1" />
    </linearGradient>
    <linearGradient
       xlink:href="#linearGradient106305"
       id="linearGradient1703"
       gradientUnits="userSpaceOnUse"
       gradientTransform="matrix(2.4080002,0,0,2.5879287,81.169866,-24.86398)"
       x1="-5.8870335"
       y1="11.482978"
       x2="-5.8870335"
       y2="22.148865" />
    <radialGradient
       cx="5"
       cy="41.5"
       fx="5"
       fy="41.5"
       gradientTransform="matrix(2.0057742,0,0,3.2,245.82223,-194.8)"
       gradientUnits="userSpaceOnUse"
       xlink:href="#linearGradient3811"
       id="k-0-7-3-9-3"
       r="5" />
    <linearGradient
       xlink:href="#h"
       id="linearGradient121754"
       gradientUnits="userSpaceOnUse"
       gradientTransform="matrix(4.2608664,0,0,2.9091,106.71847,-55.82)"
       x1="17.554001"
       y1="46"
       x2="17.554001"
       y2="35" />
    <linearGradient
       id="h">
      <stop
         offset="0"
         stop-opacity="0"
         id="stop54" />
      <stop
         offset=".5"
         id="stop56" />
      <stop
         offset="1"
         stop-opacity="0"
         id="stop58" />
    </linearGradient>
    <radialGradient
       cx="5"
       cy="41.5"
       fx="5"
       fy="41.5"
       gradientTransform="matrix(2.0057742,0,0,3.2,-167.87841,-194.8)"
       gradientUnits="userSpaceOnUse"
       xlink:href="#linearGradient3811"
       id="i-6-9-7-8-9"
       r="5" />
  </defs>
  <metadata
     id="metadata3054">
    <rdf:RDF>
      <cc:Work
         rdf:about="">
        <dc:format>image/svg+xml</dc:format>
        <dc:type
           rdf:resource="http://purl.org/dc/dcmitype/StillImage" />
      </cc:Work>
    </rdf:RDF>
  </metadata>
  <rect
     style="color:#000000;display:inline;overflow:visible;visibility:visible;opacity:0.5;fill:none;stroke:none;stroke-width:0.999997;stroke-linecap:round;stroke-linejoin:round;stroke-miterlimit:4;stroke-dasharray:none;stroke-dashoffset:0;stroke-opacity:1;marker:none;enable-background:accumulate"
     id="rect5505-21-3-1"
     y="11.657606"
     x="9.3749914"
     ry="7.5"
     rx="7.5"
     height="77.25"
     width="77.25" />
  <g
     id="g3005"
     transform="matrix(0.69915254,0,0,0.75,-96.618619,33.5)"
     style="stroke-width:1.38098">
    <rect
       fill="url(#i)"
       height="32"
       opacity="0.4"
       transform="scale(-1)"
       width="10"
       x="-157.84845"
       y="-78"
       id="rect77-9-90-2-7-8"
       style="fill:url(#i-6-9-7-8-9);stroke-width:1.38098" />
    <rect
       fill="url(#j)"
       height="32"
       opacity="0.4"
       width="98"
       x="157.84845"
       y="46"
       id="rect79-7-2-0-1-4"
       style="fill:url(#linearGradient121754);stroke-width:1.38098" />
    <rect
       fill="url(#k)"
       height="32"
       opacity="0.4"
       transform="scale(1,-1)"
       width="10"
       x="255.84845"
       y="-78"
       id="rect81-3-8-6-7-8"
       style="fill:url(#k-0-7-3-9-3);stroke-width:1.38098" />
  </g>
  <path
     id="rect5505-21-1-5-0-6-5-1-2-5-10"
     style="color:#000000;font-variation-settings:normal;display:inline;overflow:visible;visibility:visible;vector-effect:none;fill:url(#linearGradient1703);fill-opacity:1;fill-rule:nonzero;stroke:none;stroke-width:0.999998;stroke-linecap:butt;stroke-linejoin:miter;stroke-miterlimit:4;stroke-dasharray:none;stroke-dashoffset:0;stroke-opacity:0.3;-inkscape-stroke:none;marker:none;enable-background:accumulate;stop-color:#000000"
     d="m 23.5,11.5 c -4.6536,0 -6.509999,2.747488 -8.4,7 -1.448692,3.250967 -3.134251,6.614613 -4.473435,9.8 C 9.9143288,29.534994 9.5,30.966289 9.5,32.500001 h 77 C 86.5,30.966289 86.085673,29.534994 85.373438,28.3 83.997948,25.130745 82.389195,21.73274 80.9,18.5 c -1.947256,-4.226603 -3.746402,-7 -8.399997,-7 z" />
  <path
     id="rect5505-21-1-5-0-6-5-1-2-3"
     style="color:#000000;font-variation-settings:normal;display:inline;overflow:visible;visibility:visible;vector-effect:none;fill:url(#linearGradient121756);fill-opacity:1;fill-rule:nonzero;stroke:none;stroke-width:0.999997;stroke-linecap:butt;stroke-linejoin:miter;stroke-miterlimit:4;stroke-dasharray:none;stroke-dashoffset:0;stroke-opacity:0.3;-inkscape-stroke:none;marker:none;enable-background:accumulate;stop-color:#000000"
     d="M 17.899973,25 C 14.39998,25 9.5,26.793268 9.5,34.25 v 46.73538 c 0,4.163099 3.334175,7.514619 7.475728,7.514619 h 0.924245 60.200052 0.924247 c 4.141553,0 7.475728,-3.35152 7.475728,-7.514619 V 34.25 C 86.5,29.000866 84.400008,25 78.100025,25 Z"
     sodipodi:nodetypes="ssssccsssss" />
  <path
     d="m 21.547032,23.646793 h 51.784574 c 3.023929,0 4.894744,1.037807 6.161622,3.891079 l 4.361025,11.972549 V 82.67174 c 0,2.723197 -1.533735,4.095285 -4.556258,4.095285 H 16.125593 c -3.022523,0 -4.255689,-1.509158 -4.255689,-4.232355 V 39.507624 L 16.09048,27.27912 c 0.84271,-2.209887 2.43403,-3.633726 5.456552,-3.633726 z"
     display="block"
     fill="none"
     opacity="0.505"
     overflow="visible"
     stroke="url(#m)"
     stroke-width="0.742"
     style="stroke:url(#linearGradient121758);marker:none"
     id="path85-1-8-5-7-0" />
  <rect
     style="opacity:0.3;fill:none;stroke:url(#linearGradient121760);stroke-width:0.999996;stroke-linecap:round;stroke-linejoin:round;stroke-miterlimit:4;stroke-dasharray:none;stroke-dashoffset:0;stroke-opacity:1"
     id="rect6741-5-0-2-3-4-2-4"
     y="25.499998"
     x="10.499996"
     ry="6.5"
     height="62.000008"
     width="75"
     rx="6.5" />
  <path
     d="m 44.25,11 h 7.5 l 0.694838,14 0.05516,8.78125 c -0.879576,0 -1.760643,-1.427229 -2.641709,-1.427229 -0.900448,0 -1.802386,1.427229 -2.704324,1.427229 -0.724532,0 -1.450555,-1.249849 -2.176578,-1.249849 -0.474076,0 -0.948153,1.249849 -1.422229,1.249849 L 43.499998,25 Z"
     fill="url(#n)"
     opacity="0.3"
     overflow="visible"
     style="fill:url(#linearGradient121762);stroke-width:0.535152;marker:none"
     id="path87-0-9-7-6-4"
     sodipodi:nodetypes="ccccsssccc" />
  <path
     id="rect5505-21-1-5-0-6-5-1-2-5-1-4"
     style="color:#000000;font-variation-settings:normal;display:inline;overflow:visible;visibility:visible;vector-effect:none;fill:none;fill-opacity:1;fill-rule:nonzero;stroke:#804b00;stroke-width:0.999998;stroke-linecap:butt;stroke-linejoin:miter;stroke-miterlimit:4;stroke-dasharray:none;stroke-dashoffset:0;stroke-opacity:0.5;-inkscape-stroke:none;marker:none;enable-background:accumulate;stop-color:#000000"
     d="m 23.499466,11.499999 c -4.653602,0 -6.509974,2.743905 -8.399974,6.991284 -1.448693,3.24704 -3.133113,6.60684 -4.472297,9.788381 -0.7122348,1.233503 -1.1271985,2.662328 -1.1271985,4.194188 v 48.559447 c 0,4.136553 3.3341745,7.466703 7.4757285,7.466703 h 62.048549 c 4.141555,0 7.475729,-3.33015 7.475729,-7.466703 V 32.473852 c 0,-1.53186 -0.414963,-2.960685 -1.127198,-4.194188 -1.375488,-3.165429 -2.983099,-6.559544 -4.472295,-9.788381 -1.947255,-4.221502 -3.74637,-6.991284 -8.399977,-6.991284 z"
     sodipodi:nodetypes="sccccccccccss" />
  <path
     id="rect5505-21-1-5-0-6-5-1-2-5-1-7-7"
     style="color:#000000;font-variation-settings:normal;display:inline;overflow:visible;visibility:visible;opacity:0.15;vector-effect:none;fill:none;fill-opacity:1;fill-rule:nonzero;stroke:url(#linearGradient121764);stroke-width:0.999987;stroke-linecap:round;stroke-linejoin:round;stroke-miterlimit:4;stroke-dasharray:none;stroke-dashoffset:0;stroke-opacity:1;-inkscape-stroke:none;marker:none;enable-background:accumulate;stop-color:#000000"
     d="M 84.500005,27.394254 80.104574,18.420685 C 79.138266,16.432377 78.238142,14.904427 77.191011,13.953232 76.143872,13.002035 74.464537,12.499994 72.396086,12.499994 H 23.588073 c -2.071177,0 -3.601609,0.501367 -4.652342,1.447982 -1.050733,0.946615 -1.9442,2.463528 -2.877552,4.454319 v 0.0027 l -4.558184,9.095052" />
  <g
     transform="matrix(2.1070406,0,0,2.1070406,-4.1774466,-5.0487344)"
     id="text2865"
     style="font-style:normal;font-variant:normal;font-weight:bold;font-stretch:normal;font-size:12px;font-family:'URW Gothic L';-inkscape-font-specification:'Andale Mono Bold';opacity:0.5;fill:#000000;fill-opacity:1;stroke:none">
    <path
       d="m 11,40.844002 h 1.596 v -8.868 H 11 v 8.868"
       id="path3644" />
    <path
       d="m 14.175,40.844002 h 5.064 v -1.428 h -3.156 l 2.928,-3.792 v -1.428 h -4.5 v 1.428 h 2.592 l -2.928,3.792 v 1.428"
       id="path3646" />
    <path
       d="m 20.414063,40.844002 h 1.596 v -3.276 c 0,-0.66 0.06,-1.104001 0.168,-1.38 0.192,-0.432 0.6,-0.684 1.128,-0.684 0.431999,0 0.804,0.156 1.02,0.42 0.192,0.252 0.276,0.648 0.276,1.272 v 3.648 h 1.596 v -3.276 c 0,-0.743999 0.06,-1.116001 0.228,-1.428 0.204,-0.408 0.612,-0.636 1.116,-0.636 0.395999,0 0.732,0.144 0.948,0.408 0.216,0.252 0.3,0.624 0.3,1.284 v 3.648 h 1.596 v -3.84 c 0,-0.803999 -0.144001,-1.452001 -0.432,-1.908 -0.42,-0.672 -1.260001,-1.056 -2.256,-1.056 -0.935999,0 -1.596001,0.312 -2.136,1.032 -0.456,-0.72 -1.044001,-1.032 -1.956,-1.032 -0.779999,0 -1.260001,0.216 -1.728,0.78 v -0.624 h -1.464 v 6.648"
       id="path3648" />
    <path
       d="m 38.4195,34.196002 h -1.464 v 0.888 c -0.551999,-0.731999 -1.212001,-1.044 -2.172,-1.044 -1.967998,0 -3.384,1.476002 -3.384,3.504 0,2.003998 1.404002,3.456 3.348,3.456 0.935999,0 1.572001,-0.300001 2.208,-1.02 v 0.864 h 1.464 v -6.648 m -3.468,1.308 c 1.139999,0 1.956,0.852001 1.956,2.064 0,0.479999 -0.192,1.032 -0.48,1.368 -0.323999,0.383999 -0.84,0.6 -1.452,0.6 -1.163999,0 -1.968,-0.792001 -1.968,-1.956 0,-1.211999 0.804001,-2.076 1.944,-2.076"
       id="path3650" />
  </g>
</svg>
