<?xml version="1.0" encoding="UTF-8" standalone="no"?>
<svg
   id="svg3901"
   height="96"
   width="96"
   version="1.1"
   sodipodi:docname="application-vnd.oasis-opendocument.formula.svg"
   inkscape:version="1.1.1 (3bf5ae0d25, 2021-09-20)"
   xmlns:inkscape="http://www.inkscape.org/namespaces/inkscape"
   xmlns:sodipodi="http://sodipodi.sourceforge.net/DTD/sodipodi-0.dtd"
   xmlns:xlink="http://www.w3.org/1999/xlink"
   xmlns="http://www.w3.org/2000/svg"
   xmlns:svg="http://www.w3.org/2000/svg"
   xmlns:rdf="http://www.w3.org/1999/02/22-rdf-syntax-ns#"
   xmlns:cc="http://creativecommons.org/ns#">
  <sodipodi:namedview
     id="namedview41"
     pagecolor="#ffffff"
     bordercolor="#666666"
     borderopacity="1.0"
     inkscape:pageshadow="2"
     inkscape:pageopacity="0.0"
     inkscape:pagecheckerboard="0"
     showgrid="false"
     inkscape:zoom="14.208333"
     inkscape:cx="63.976541"
     inkscape:cy="45.043989"
     inkscape:window-width="1396"
     inkscape:window-height="896"
     inkscape:window-x="522"
     inkscape:window-y="56"
     inkscape:window-maximized="0"
     inkscape:current-layer="svg3901"
     showguides="false" />
  <defs
     id="defs3903">
    <linearGradient
       id="linearGradient3403">
      <stop
         id="stop3405"
         style="stop-color:#ffffff;stop-opacity:1"
         offset="0" />
      <stop
         id="stop3407"
         style="stop-color:#ffffff;stop-opacity:0.23529412"
         offset="0.00541497" />
      <stop
         id="stop3409"
         style="stop-color:#ffffff;stop-opacity:0.15686275"
         offset="1" />
      <stop
         id="stop3411"
         style="stop-color:#ffffff;stop-opacity:0.39215687"
         offset="1" />
    </linearGradient>
    <linearGradient
       id="linearGradient3600">
      <stop
         offset="0"
         style="stop-color:#f4f4f4;stop-opacity:1"
         id="stop3602" />
      <stop
         offset="1"
         style="stop-color:#dbdbdb;stop-opacity:1"
         id="stop3604" />
    </linearGradient>
    <linearGradient
       id="linearGradient5060">
      <stop
         offset="0"
         style="stop-color:#000000;stop-opacity:1"
         id="stop5062" />
      <stop
         offset="1"
         style="stop-color:#000000;stop-opacity:0"
         id="stop5064" />
    </linearGradient>
    <linearGradient
       id="linearGradient5048">
      <stop
         offset="0"
         style="stop-color:#000000;stop-opacity:0"
         id="stop5050" />
      <stop
         offset="0.5"
         style="stop-color:#000000;stop-opacity:1"
         id="stop5056" />
      <stop
         offset="1"
         style="stop-color:#000000;stop-opacity:0"
         id="stop5052" />
    </linearGradient>
    <linearGradient
       id="linearGradient3104-6">
      <stop
         id="stop3106-3"
         style="stop-color:#000000;stop-opacity:0.31782946"
         offset="0" />
      <stop
         id="stop3108-9"
         style="stop-color:#000000;stop-opacity:0.24031007"
         offset="1" />
    </linearGradient>
    <linearGradient
       y2="42.273762"
       x2="23.99999"
       y1="5.6275582"
       x1="23.99999"
       gradientTransform="matrix(1.8648648,0,0,2.3513513,3.2432558,-11.432408)"
       gradientUnits="userSpaceOnUse"
       id="linearGradient3106"
       xlink:href="#linearGradient3403" />
    <linearGradient
       y2="47.013336"
       x2="25.132275"
       y1="0.98520643"
       x1="25.132275"
       gradientTransform="matrix(1.9999954,0,0,1.9120955,1.0813194e-4,-3.8236272)"
       gradientUnits="userSpaceOnUse"
       id="linearGradient3109"
       xlink:href="#linearGradient3600" />
    <linearGradient
       y2="2.9062471"
       x2="-51.786404"
       y1="50.786446"
       x1="-51.786404"
       gradientTransform="matrix(1.6380632,0,0,1.8097673,119.83211,-6.5336729)"
       gradientUnits="userSpaceOnUse"
       id="linearGradient3170"
       xlink:href="#linearGradient3104-6" />
    <linearGradient
       gradientTransform="matrix(0.13730769,0,0,0.02882352,-1.626924,75.431978)"
       gradientUnits="userSpaceOnUse"
       xlink:href="#linearGradient5048"
       id="linearGradient3842"
       y2="609.50507"
       x2="302.85715"
       y1="366.64789"
       x1="302.85715" />
    <radialGradient
       gradientTransform="matrix(-0.04698948,0,0,0.02882352,43.168704,75.431978)"
       gradientUnits="userSpaceOnUse"
       xlink:href="#linearGradient5060"
       id="radialGradient3156"
       fy="486.64789"
       fx="605.71429"
       r="117.14286"
       cy="486.64789"
       cx="605.71429" />
    <radialGradient
       gradientTransform="matrix(0.04698949,0,0,0.02882352,52.831289,75.431978)"
       gradientUnits="userSpaceOnUse"
       xlink:href="#linearGradient5060"
       id="radialGradient3153"
       fy="486.64789"
       fx="605.71429"
       r="117.14286"
       cy="486.64789"
       cx="605.71429" />
    <linearGradient
       gradientUnits="userSpaceOnUse"
       y2="59.500019"
       x2="15"
       y1="0.50000042"
       x1="15"
       id="linearGradient877"
       xlink:href="#linearGradient875"
       gradientTransform="matrix(1.6153844,0,0,1.508474,-1.230807,-0.254227)" />
    <linearGradient
       id="linearGradient875">
      <stop
         id="stop871"
         offset="0"
         style="stop-color:#667885;stop-opacity:1" />
      <stop
         id="stop873"
         offset="1"
         style="stop-color:#485a6c;stop-opacity:1" />
    </linearGradient>
    <linearGradient
       x1="8.3773117"
       y1="5.6389141"
       x2="8.3773117"
       y2="42.349087"
       id="linearGradient3144"
       xlink:href="#linearGradient3977-6"
       gradientUnits="userSpaceOnUse"
       gradientTransform="matrix(2.3699578,0,0,2.3513512,0.4652508,-11.43241)" />
    <linearGradient
       id="linearGradient3977-6">
      <stop
         id="stop3979-9"
         style="stop-color:#ffffff;stop-opacity:1"
         offset="0" />
      <stop
         id="stop3981-3"
         style="stop-color:#ffffff;stop-opacity:0.23529412"
         offset="0.0048102" />
      <stop
         id="stop3983-7"
         style="stop-color:#ffffff;stop-opacity:0.15686275"
         offset="0.99380541" />
      <stop
         id="stop3985-4"
         style="stop-color:#ffffff;stop-opacity:0.39215687"
         offset="1" />
    </linearGradient>
  </defs>
  <metadata
     id="metadata3906">
    <rdf:RDF>
      <cc:Work
         rdf:about="" />
    </rdf:RDF>
  </metadata>
  <rect
     width="66.299995"
     height="7"
     x="14.849998"
     y="86"
     id="rect2879-2"
     style="display:inline;overflow:visible;visibility:visible;opacity:0.15;fill:url(#linearGradient3842);fill-opacity:1;fill-rule:nonzero;stroke:none;stroke-width:1;marker:none" />
  <path
     d="m 14.85,86.000298 c 0,0 0,6.999581 0,6.999581 -2.419842,0.014 -5.85,-1.56828 -5.85,-3.50028 0,-1.932 2.700361,-3.499301 5.85,-3.499301 z"
     id="path2881-9"
     style="display:inline;overflow:visible;visibility:visible;opacity:0.15;fill:url(#radialGradient3156);fill-opacity:1;fill-rule:nonzero;stroke:none;stroke-width:1;marker:none" />
  <path
     d="m 81.149999,86.000298 c 0,0 0,6.999581 0,6.999581 C 83.56984,93.013879 87,91.431599 87,89.499599 c 0,-1.932 -2.700361,-3.499301 -5.850001,-3.499301 z"
     id="path2883-1"
     style="display:inline;overflow:visible;visibility:visible;opacity:0.15;fill:url(#radialGradient3153);fill-opacity:1;fill-rule:nonzero;stroke:none;stroke-width:1;marker:none" />
  <path
     d="m 13,0.99999999 h 69.999918 l 8.5e-5,87.99999901 H 13 Z"
     id="path4160"
     style="display:inline;fill:url(#linearGradient3109);fill-opacity:1;stroke:none;stroke-width:0.999997"
     sodipodi:nodetypes="ccccc" />
  <path
     d="M 22.999959,0.4999623 83.499966,0.5 l 7.5e-5,89.000043 h -60.50008"
     id="path4160-6-1"
     style="display:inline;fill:none;stroke:url(#linearGradient3170);stroke-width:0.999922;stroke-linecap:butt;stroke-linejoin:round;stroke-miterlimit:4;stroke-dasharray:none;stroke-dashoffset:0;stroke-opacity:1"
     sodipodi:nodetypes="cccc" />
  <path
     d="M 82.499999,88.499999 H 13.500001 V 1.5 h 68.999998 z"
     id="rect6741-1"
     style="fill:none;stroke:url(#linearGradient3106);stroke-width:1;stroke-linecap:round;stroke-linejoin:round;stroke-miterlimit:4;stroke-dasharray:none;stroke-dashoffset:0;stroke-opacity:1" />
  <path
     style="color:#000000;display:inline;overflow:visible;visibility:visible;fill:url(#linearGradient877);fill-opacity:1;fill-rule:nonzero;stroke:none;stroke-width:1;stroke-linecap:butt;stroke-linejoin:round;stroke-miterlimit:4;stroke-dasharray:none;stroke-dashoffset:0;stroke-opacity:1;marker:none;enable-background:accumulate"
     id="path4530"
     d="M 22.999959,89.500007 H 13 C 12.499959,89.500043 12.499959,89.500043 12.499959,89 V 1 c 0,-0.49999 0,-0.49999 0.500041,-0.49999 h 9.999959"
     sodipodi:nodetypes="cccccc" />
  <path
     style="color:#000000;display:inline;overflow:visible;visibility:visible;opacity:0.5;fill:none;fill-opacity:1;fill-rule:nonzero;stroke:#1a1a1a;stroke-width:0.999995;stroke-linecap:butt;stroke-linejoin:round;stroke-miterlimit:4;stroke-dasharray:none;stroke-dashoffset:0;stroke-opacity:1;marker:none;enable-background:accumulate"
     id="path4530-6"
     d="M 22.999961,89.500043 H 12.499959 V 0.50001 h 10.500002" />
  <path
     style="opacity:0.5;fill:none;stroke:url(#linearGradient3144);stroke-width:0.999998;stroke-linecap:butt;stroke-linejoin:miter;stroke-miterlimit:4;stroke-dasharray:none;stroke-dashoffset:0;stroke-opacity:1"
     id="rect6741-1-5"
     d="M 23,88.499999 H 13.500001 V 1.5000002 H 23"
     sodipodi:nodetypes="cccc" />
  <path
     d="m 32.999824,26 v 1 h -1 v 1 h 1 v 1 h 1.000353 v -1 h 1 v -1 h -1 v -1 z m 19.000172,0 v 1 H 51 v 1 h 0.999996 v 1 H 53 v -1 h 1 V 27 H 53 V 26 Z M 71,26 v 1 h -1 v 1 h 1 v 1 h 1 v -1 h 1 v -1 h -1 v -1 z m -34.999823,1 v 1 h 2 v -1 z m 3,0 v 1 h 2 v -1 z m 3,0 v 1 h 2 v -1 z m 3,0 v 1 h 2 v -1 z m 3,0 v 1 h 2 V 27 Z M 55,27 v 1 h 2 v -1 z m 3,0 v 1 h 2 v -1 z m 3,0 v 1 h 2 v -1 z m 3,0 v 1 h 2 v -1 z m 3,0 v 1 h 2 v -1 z m -34.000176,3 v 2 h 1.000353 v -2 z m 19.000172,0 v 2 H 53 V 30 Z M 71,30 v 2 h 1 v -2 z m -38.000176,3 v 2 h 1.000353 v -2 z m 19.000172,0 v 2 H 53 V 33 Z M 71,33 v 2 h 1 v -2 z m -39.000176,3 v 1 h 1 v 1 h 1.000353 v -1 h 1 v -1 h -1 -1.000353 z m 4.000353,0 v 1 h 2 v -1 z m 3,0 v 1 h 2 v -1 z m 3,0 v 1 h 2 v -1 z m 3,0 v 1 h 2 v -1 z m 3,0 v 1 h 2 V 36 Z M 51,36 v 1 h 0.999996 v 1 H 53 v -1 h 1 v -1 h -1 -0.999996 z m 4,0 v 1 h 2 v -1 z m 3,0 v 1 h 2 v -1 z m 3,0 v 1 h 2 v -1 z m 3,0 v 1 h 2 v -1 z m 3,0 v 1 h 2 v -1 z m 3,0 v 1 h 1 v 1 h 1 v -1 h 1 v -1 h -1 -1 z m -37.000176,3 v 2 h 1.000353 v -2 z m 19.000172,0 v 2 H 53 V 39 Z M 71,39 v 2 h 1 v -2 z m -38.000176,3 v 2 h 1.000353 v -2 z m 19.000172,0 v 2 H 53 V 42 Z M 71,42 v 2 h 1 v -2 z m -38.000176,3 v 2 h 1.000353 v -2 z m 19.000172,0 v 2 H 53 V 45 Z M 71,45 v 2 h 1 v -2 z m -38.000176,3 v 2 h 1.000353 v -2 z m 19.000172,0 v 2 H 53 V 48 Z M 71,48 v 2 h 1 v -2 z m -38.000176,3 v 1 h -1 v 1 h 1 v 1 h 1.000353 v -1 h 1 v -1 h -1 v -1 z m 19.000172,0 v 1 H 51 v 1 h 0.999996 v 1 H 53 v -1 h 1 V 52 H 53 V 51 Z M 71,51 v 1 h -1 v 1 h 1 v 1 h 1 v -1 h 1 v -1 h -1 v -1 z m -34.999823,1 v 1 h 2 v -1 z m 3,0 v 1 h 2 v -1 z m 3,0 v 1 h 2 v -1 z m 3,0 v 1 h 2 v -1 z m 3,0 v 1 h 2 V 52 Z M 55,52 v 1 h 2 v -1 z m 3,0 v 1 h 2 v -1 z m 3,0 v 1 h 2 v -1 z m 3,0 v 1 h 2 v -1 z m 3,0 v 1 h 2 v -1 z"
     fill="#f09e6f"
     id="path23"
     sodipodi:nodetypes="ccccccccccccccccccccccccccccccccccccccccccccccccccccccccccccccccccccccccccccccccccccccccccccccccccccccccccccccccccccccccccccccccccccccccccccccccccccccccccccccccccccccccccccccccccccccccccccccccccccccccccccccccccccccccccccccccccccccccccccccccccccccccccccccccccccccccccccccccccccccccccccccccccccccccccccccccccccccccccccccccccccccccccccccccccccccccccccccc"
     style="fill:#f37329;fill-opacity:1;stroke-width:0.999997" />
  <path
     style="fill:#667885;fill-opacity:1;stroke-width:0.999997"
     d="m 52.75,36 6.985352,8.050781 V 44.15332 L 52.25,53 h 3.720705 l 5.806643,-6.709473 h 0.115717 L 68.276855,53 h 4.029788 l -8.21631,-8.98291 V 43.914551 L 70.75,36 H 67 l -5.029293,5.743652 H 61.854981 L 56.75,36 Z"
     id="path2159"
     sodipodi:nodetypes="ccccccccccccccccc" />
  <path
     style="fill:#667885;fill-opacity:1;stroke-width:0.999997"
     d="M 49.25,27 42,46.5 37.25,37.5 33,39.5 V 43 L 36,41.5 41.25,53 H 43 L 51.5,30 H 70 v 2 h 2 v -5 z"
     id="path25-3"
     sodipodi:nodetypes="cccccccccccccc" />
  <path
     d="m 59.896529,59.635544 c -0.71051,0 -1.18523,0.105306 -1.42773,0.316406 -0.23971,0.2083 -0.361429,0.627312 -0.361328,1.257812 v 1.027344 c -1.01e-4,0.428 -0.0754,0.724017 -0.226561,0.886717 -0.151201,0.1629 -0.726803,-0.144677 -0.83008,0.24414 h -0.265619 v 0.61133 h 0.265619 c 0.399501,0 0.67497,0.0825 0.826171,0.24805 0.1542,0.1655 0.230369,0.46373 0.23047,0.89453 v 1.02344 c -1.01e-4,0.6306 0.121618,1.0506 0.361328,1.26172 0.242501,0.21119 0.71722,0.3164 1.42773,0.3164 h 0.275401 v -0.61523 h -0.30079 c -0.399511,0 -0.660601,-0.0609 -0.7832,-0.1836 -0.119799,-0.1227 -0.179689,-0.38887 -0.179689,-0.79687 v -1.06055 c 0,-0.4451 -0.063,-0.77005 -0.191401,-0.97265 -0.1284,-0.20261 -0.35127,-0.34293 -0.66797,-0.41993 0.313901,-0.0713 0.533711,-0.20755 0.662111,-0.41015 0.1309,-0.2026 0.19726,-0.52857 0.19726,-0.976566 v -1.060546 c 0,-0.4052 0.0598,-0.668316 0.179689,-0.791016 0.122601,-0.1254 0.383701,-0.189353 0.7832,-0.189453 h 0.30079 v -0.611328 z m 6.966801,0 v 0.611328 h 0.29102 c 0.40241,10e-5 0.66441,0.06385 0.787111,0.189453 0.122999,0.1255 0.183588,0.388615 0.183588,0.791016 v 1.060546 c 0,0.447996 0.065,0.773966 0.193361,0.976566 0.131201,0.2026 0.354069,0.33915 0.66797,0.41015 -0.3167,0.077 -0.53957,0.21732 -0.66797,0.41993 -0.128601,0.20259 -0.193361,0.52755 -0.193361,0.97265 v 1.06055 c 0,0.4023 -0.0609,0.66551 -0.183588,0.79101 -0.122701,0.1253 -0.384701,0.18946 -0.787111,0.18946 h -0.29102 v 0.61523 h 0.265631 c 0.710409,0 1.184119,-0.1052 1.42382,-0.3164 0.23971,-0.21111 0.35938,-0.63112 0.35938,-1.26172 v -1.02344 c 0,-0.4308 0.0772,-0.72903 0.22851,-0.89453 0.153999,-0.1652 0.727881,-0.636104 0.83399,-0.24805 H 70.2481 v -0.61133 h -0.273439 c -0.4023,0 -0.67998,-0.0815 -0.83399,-0.24414 -0.150891,-0.1627 -0.22851,-0.458717 -0.22851,-0.886717 v -1.027344 c 0,-0.6305 -0.11967,-1.049512 -0.35938,-1.257812 -0.2397,-0.2111 -1.241438,-1.003006 -1.42382,-0.316406 z M 52.09575,60.51445 v 1.361328 H 50.8145 v 0.613281 h 1.28125 v 2.601564 c 0,0.5792 0.120771,0.98781 0.363281,1.22461 0.242599,0.2368 0.65939,0.35547 1.25,0.35547 h 0.9629 v -0.63086 h -0.88672 c -0.33381,0 -0.56708,-0.0692 -0.70118,-0.20899 -0.134101,-0.1399 -0.201171,-0.38643 -0.201171,-0.74023 v -2.601564 h 1.789071 V 61.875778 H 52.88286 V 60.51445 Z m -15.27734,1.119141 c -0.57641,0 -1.01898,0.125853 -1.33008,0.376953 -0.311011,0.2482 -0.4668,0.601144 -0.4668,1.060549 0,0.3624 0.1042,0.65013 0.3125,0.86133 0.208309,0.2082 0.53849,0.35631 0.99219,0.44531 l 0.29492,0.0586 0.0352,0.0117 c 0.699,0.1399 1.04883,0.39066 1.04883,0.75586 0,0.2539 -0.0959,0.4531 -0.28711,0.5957 -0.1912,0.1397 -0.4605,0.20899 -0.80859,0.20899 -0.23972,0 -0.49548,-0.0373 -0.76368,-0.11133 -0.2682,-0.0771 -0.54789,-0.1906 -0.84179,-0.3418 v 0.81446 c 0.3025,0.0998 0.58209,0.1717 0.84179,0.2207 0.2596,0.051 0.50919,0.0781 0.7461,0.0781 0.5992,0 1.06759,-0.13303 1.40429,-0.39843 0.3367,-0.2682 0.50391,-0.6396 0.50391,-1.11328 0,-0.35661 -0.10023,-0.64665 -0.30273,-0.86915 -0.1998,-0.2226 -0.49581,-0.36937 -0.886719,-0.44335 l -0.31641,-0.0606 c -0.52221,-0.0999 -0.84927,-0.203 -0.98047,-0.3086 -0.1309,-0.1056 -0.19726,-0.26451 -0.19726,-0.47851 0,-0.2368 0.0876,-0.413245 0.26171,-0.527345 0.17691,-0.1165 0.44419,-0.175781 0.80079,-0.175781 0.2369,0 0.46895,0.03361 0.69726,0.09961 0.2282,0.0656 0.45429,0.163622 0.67969,0.294922 v -0.769531 -0.002 c -0.2283,-0.0942 -0.46037,-0.164938 -0.69727,-0.210938 -0.23681,-0.049 -0.48343,-0.07227 -0.74023,-0.07227 z m 5.02148,0.01953 c -0.576411,0 -1.03031,0.223875 -1.36132,0.671875 -0.331001,0.447997 -0.4961,1.068127 -0.4961,1.861327 0,0.7789 0.1651,1.39084 0.4961,1.83594 0.33381,0.4422 0.78781,0.66406 1.36132,0.66406 0.2882,0 0.54101,-0.0639 0.75782,-0.18945 0.2198,-0.1283 0.39308,-0.31008 0.521479,-0.54688 v 2.43555 h 0.79297 v -6.617188 h -0.79297 v 0.611328 c -0.1313,-0.2368 -0.305689,-0.416462 -0.52539,-0.539062 -0.21691,-0.1254 -0.468609,-0.1875 -0.753909,-0.1875 z m 6.683599,0.07617 c -0.04128,0.371514 -0.698749,0.09084 -0.972659,0.273437 -0.2711,0.1797 -0.47231,0.439792 -0.60351,0.779305 v -0.937508 h -0.791021 v 4.792968 h 0.791022 v -2.38281 c 0,-0.582 0.13092,-1.02774 0.390619,-1.33594 0.259611,-0.308195 0.634189,-0.460937 1.125,-0.460937 0.2083,0 0.400219,0.02984 0.574219,0.08984 0.174101,0.06 0.34536,0.153852 0.51367,0.285157 v -0.802735 c -0.1541,-0.1028 -0.31607,-0.179516 -0.48437,-0.228516 -0.1684,-0.049 -0.521544,-0.265092 -0.542969,-0.07227 z m 12.70703,0.02148 1.716801,2.294922 -1.884771,2.5 h 0.912111 l 1.400389,-1.92188 1.402341,1.92188 h 0.912109 l -1.88281,-2.5 1.7168,-2.294922 h -0.88672 l -1.26172,1.734372 -1.271479,-1.734372 z M 41.96489,62.321084 c 0.3795,-10e-7 0.665379,0.156804 0.85938,0.470699 0.1973,0.311 0.294919,0.76915 0.294919,1.37695 0,0.6077 -0.098,1.06892 -0.294919,1.38282 -0.194001,0.311 -0.47988,0.46679 -0.85938,0.46679 -0.3795,0 -0.66722,-0.15579 -0.86132,-0.46679 -0.1907,-0.311 -0.28711,-0.77222 -0.28711,-1.38282 0,-0.6107 0.096,-1.06986 0.28711,-1.38086 0.1941,-0.310989 0.48182,-0.466789 0.86132,-0.466789 z"
     fill="url(#a)"
     id="path25"
     style="fill:#485a6c;fill-opacity:1"
     sodipodi:nodetypes="sccccsccsccccsccscsssccssccccsccccsscccsscsccscsscsccscsscsccccccscsccscsccccccccsccccscsccccscsccccscscccccccssscsccccccccssccccccscsccccsscccccccccccccscscscscs" />
</svg>
