<?xml version="1.0" encoding="UTF-8" standalone="no"?>
<!-- Created with Inkscape (http://www.inkscape.org/) -->

<svg
   xmlns:dc="http://purl.org/dc/elements/1.1/"
   xmlns:cc="http://creativecommons.org/ns#"
   xmlns:rdf="http://www.w3.org/1999/02/22-rdf-syntax-ns#"
   xmlns:svg="http://www.w3.org/2000/svg"
   xmlns="http://www.w3.org/2000/svg"
   xmlns:xlink="http://www.w3.org/1999/xlink"
   xmlns:sodipodi="http://sodipodi.sourceforge.net/DTD/sodipodi-0.dtd"
   xmlns:inkscape="http://www.inkscape.org/namespaces/inkscape"
   width="96"
   height="96"
   id="svg4017"
   version="1.1"
   inkscape:version="0.48+devel r"
   sodipodi:docname="audio-x-smart-playlist.svg"
   viewBox="0 0 96 96">
  <defs
     id="defs4019">
    <linearGradient
       id="linearGradient4117">
      <stop
         offset="0"
         style="stop-color:#542f57;stop-opacity:1"
         id="stop4153" />
      <stop
         offset="1"
         style="stop-color:#bb5ca4;stop-opacity:1"
         id="stop4155" />
    </linearGradient>
    <linearGradient
       id="linearGradient4157">
      <stop
         id="stop4119"
         style="stop-color:#542f57;stop-opacity:1"
         offset="0" />
      <stop
         id="stop4121"
         style="stop-color:#bb5ca4;stop-opacity:1"
         offset="1" />
    </linearGradient>
    <radialGradient
       inkscape:collect="always"
       xlink:href="#linearGradient5060"
       id="radialGradient3153"
       gradientUnits="userSpaceOnUse"
       gradientTransform="matrix(0.03128083,0,0,0.02053005,64.045118,1036.6837)"
       cx="605.71429"
       cy="486.64789"
       fx="605.71429"
       fy="486.64789"
       r="117.14286" />
    <linearGradient
       id="linearGradient5060">
      <stop
         id="stop5062"
         style="stop-color:#000000;stop-opacity:1"
         offset="0" />
      <stop
         id="stop5064"
         style="stop-color:#000000;stop-opacity:0"
         offset="1" />
    </linearGradient>
    <radialGradient
       inkscape:collect="always"
       xlink:href="#linearGradient5060"
       id="radialGradient3156"
       gradientUnits="userSpaceOnUse"
       gradientTransform="matrix(-0.03128083,0,0,0.02053005,31.850121,1036.6837)"
       cx="605.71429"
       cy="486.64789"
       fx="605.71429"
       fy="486.64789"
       r="117.14286" />
    <linearGradient
       id="linearGradient5048">
      <stop
         id="stop5050"
         style="stop-color:#000000;stop-opacity:0"
         offset="0" />
      <stop
         id="stop5056"
         style="stop-color:#000000;stop-opacity:1"
         offset="0.5" />
      <stop
         id="stop5052"
         style="stop-color:#000000;stop-opacity:0"
         offset="1" />
    </linearGradient>
    <linearGradient
       y2="609.50507"
       x2="302.85715"
       y1="366.64789"
       x1="302.85715"
       gradientTransform="matrix(0.14476034,0,0,0.02053005,-4.3728904,1036.6837)"
       gradientUnits="userSpaceOnUse"
       id="linearGradient4015"
       xlink:href="#linearGradient5048"
       inkscape:collect="always" />
    <linearGradient
       id="linearGradient3104">
      <stop
         offset="0"
         style="stop-color:#a0a0a0;stop-opacity:1;"
         id="stop3106" />
      <stop
         offset="1"
         style="stop-color:#bebebe;stop-opacity:1;"
         id="stop3108" />
    </linearGradient>
    <linearGradient
       id="linearGradient3600-9">
      <stop
         offset="0"
         style="stop-color:#f4f4f4;stop-opacity:1"
         id="stop3602-3" />
      <stop
         offset="1"
         style="stop-color:#dbdbdb;stop-opacity:1"
         id="stop3604-7" />
    </linearGradient>
    <linearGradient
       id="linearGradient3977-4">
      <stop
         id="stop3979-7"
         style="stop-color:#ffffff;stop-opacity:1;"
         offset="0" />
      <stop
         offset="0.03626217"
         style="stop-color:#ffffff;stop-opacity:0.23529412;"
         id="stop3981-6" />
      <stop
         id="stop3983-5"
         style="stop-color:#ffffff;stop-opacity:0.15686275;"
         offset="0.95056331" />
      <stop
         id="stop3985-6"
         style="stop-color:#ffffff;stop-opacity:0.39215687;"
         offset="1" />
    </linearGradient>
    <linearGradient
       inkscape:collect="always"
       xlink:href="#linearGradient3977-4"
       id="linearGradient3093"
       gradientUnits="userSpaceOnUse"
       gradientTransform="matrix(1.8648644,0,0,2.3513558,3.2432571,945.92985)"
       x1="23.99999"
       y1="4.0272427"
       x2="23.99999"
       y2="43" />
    <linearGradient
       inkscape:collect="always"
       xlink:href="#linearGradient5060"
       id="linearGradient4126"
       x1="51.588909"
       y1="979.86877"
       x2="51.588909"
       y2="1021.8686"
       gradientUnits="userSpaceOnUse"
       gradientTransform="matrix(1.2142857,0,0,1.2141223,-10.23983,-212.29186)" />
    <linearGradient
       inkscape:collect="always"
       xlink:href="#linearGradient5060"
       id="linearGradient4128"
       x1="55.627373"
       y1="1021.8686"
       x2="55.627373"
       y2="991.98413"
       gradientUnits="userSpaceOnUse"
       gradientTransform="matrix(1.2142857,0,0,1.2141223,-10.23983,-212.29186)" />
    <radialGradient
       inkscape:collect="always"
       xlink:href="#linearGradient3671-580"
       id="radialGradient3901"
       cx="35.252277"
       cy="984.35272"
       fx="35.252277"
       fy="984.35272"
       r="24.000008"
       gradientTransform="matrix(3.5051372e-6,5.6506459,-5.164142,3.1941621e-6,5136.2502,739.03338)"
       gradientUnits="userSpaceOnUse" />
    <linearGradient
       id="linearGradient3671-580">
      <stop
         offset="0"
         style="stop-color:#fc93dc;stop-opacity:1"
         id="stop4088" />
      <stop
         offset="0.26238"
         style="stop-color:#da72d3;stop-opacity:1"
         id="stop4090" />
      <stop
         offset="0.704952"
         style="stop-color:#a33fab;stop-opacity:1"
         id="stop4092" />
      <stop
         offset="1"
         style="stop-color:#502b58;stop-opacity:1"
         id="stop4094" />
    </linearGradient>
    <linearGradient
       inkscape:collect="always"
       xlink:href="#linearGradient4157"
       id="linearGradient4165"
       x1="100.96777"
       y1="1034.697"
       x2="100.96777"
       y2="979.99701"
       gradientUnits="userSpaceOnUse"
       gradientTransform="matrix(1.5106366,0,0,1.508468,-121.67383,-507.64821)" />
  </defs>
  <sodipodi:namedview
     id="base"
     pagecolor="#ffffff"
     bordercolor="#666666"
     borderopacity="1.0"
     inkscape:pageopacity="0.0"
     inkscape:pageshadow="2"
     inkscape:zoom="4.3046875"
     inkscape:cx="52.95273"
     inkscape:cy="43.798286"
     inkscape:document-units="px"
     inkscape:current-layer="layer1"
     showgrid="true"
     inkscape:window-width="1535"
     inkscape:window-height="876"
     inkscape:window-x="65"
     inkscape:window-y="24"
     inkscape:window-maximized="1"
     units="px"
     showguides="false"
     inkscape:snap-global="false">
    <inkscape:grid
       type="xygrid"
       id="grid3011"
       empspacing="5"
       visible="true"
       enabled="true"
       snapvisiblegridlinesonly="true" />
  </sodipodi:namedview>
  <metadata
     id="metadata4022">
    <rdf:RDF>
      <cc:Work
         rdf:about="">
        <dc:format>image/svg+xml</dc:format>
        <dc:type
           rdf:resource="http://purl.org/dc/dcmitype/StillImage" />
        <dc:title></dc:title>
      </cc:Work>
    </rdf:RDF>
  </metadata>
  <g
     inkscape:label="Layer 1"
     inkscape:groupmode="layer"
     id="layer1"
     transform="translate(0,-956.3622)">
    <path
       inkscape:connector-curvature="0"
       style="fill:url(#radialGradient3901);fill-opacity:1;stroke:url(#linearGradient4165);stroke-width:0.9999218;stroke-linecap:butt;stroke-linejoin:round;stroke-miterlimit:4;stroke-opacity:1;stroke-dasharray:none;stroke-dashoffset:0;display:inline"
       id="path4160-6-2"
       d="m 12.499961,957.86245 c 16.269722,0 70.99999,0.004 70.99999,0.004 l 8.9e-5,88.99575 c 0,0 -47.333394,0 -71.000079,0 0,-29.6667 0,-59.33401 0,-89.00149 z"
       sodipodi:nodetypes="ccccc" />
    <g
       id="g4089"
       transform="matrix(1.0040259,0,0,1.0028296,-0.14065179,-2.8037029)">
      <rect
         width="69.89856"
         height="4.9858918"
         x="12.998364"
         y="1044.2112"
         id="rect2879"
         style="opacity:0.3;fill:url(#linearGradient4015);fill-opacity:1;fill-rule:nonzero;stroke:none;stroke-width:1;marker:none;visibility:visible;display:inline;overflow:visible" />
      <path
         d="m 12.998348,1044.2116 c 0,0 0,4.9853 0,4.9853 -1.610891,0.013 -3.894348,-1.1179 -3.894348,-2.4937 0,-1.3758 1.797632,-2.4916 3.894348,-2.4916 z"
         id="path2881"
         style="opacity:0.3;fill:url(#radialGradient3156);fill-opacity:1;fill-rule:nonzero;stroke:none;stroke-width:1;marker:none;visibility:visible;display:inline;overflow:visible"
         inkscape:connector-curvature="0" />
      <path
         d="m 82.896898,1044.2116 c 0,0 0,4.9853 0,4.9853 1.610888,0.013 3.894344,-1.1179 3.894344,-2.4937 0,-1.3758 -1.797625,-2.4916 -3.894344,-2.4916 z"
         id="path2883"
         style="opacity:0.3;fill:url(#radialGradient3153);fill-opacity:1;fill-rule:nonzero;stroke:none;stroke-width:1;marker:none;visibility:visible;display:inline;overflow:visible"
         inkscape:connector-curvature="0" />
    </g>
    <path
       style="fill:none;stroke:url(#linearGradient3093);stroke-width:1;stroke-linecap:round;stroke-linejoin:miter;stroke-miterlimit:4;stroke-opacity:1;stroke-dasharray:none;stroke-dashoffset:0"
       d="m 82.499997,1045.8622 -68.999997,0 0,-86.99998 68.999997,0 z"
       id="rect6741-1-8"
       inkscape:connector-curvature="0"
       sodipodi:nodetypes="ccccc" />
    <path
       sodipodi:nodetypes="ssccccccccssssccscccccsssscccccsccssssccccccccssssssss"
       inkscape:connector-curvature="0"
       d="m 44.499999,978.36846 c -0.831,0 -1.499999,0.66892 -1.499999,1.49982 l 0,5.01494 c -2.05465,0.48505 -3.971955,1.31219 -5.718751,2.39042 l -3.5625,-3.56208 c -0.587605,-0.58762 -1.52177,-0.58762 -2.109375,0 l -4.265625,4.26504 c -0.587605,0.58762 -0.587608,1.52156 0,2.10919 l 3.5625,3.56207 c -1.078289,1.74654 -1.905531,3.6636 -2.390625,5.71803 l -5.015625,0 c -0.831,0 -1.5,0.66891 -1.5,1.49981 l 0,5.9992 c 0,0.831 0.669,1.4999 1.5,1.4999 l 5.015625,0 c 0.484606,2.0524 1.314205,3.973 2.390625,5.7181 l -3.5625,3.562 c -0.587605,0.5875 -0.587608,1.5216 0,2.109 l 4.265625,4.2652 c 0.587605,0.5874 1.52177,0.5874 2.109375,0 l 3.5625,-3.5621 c 1.74516,1.0763 3.666163,1.9058 5.718751,2.3903 l 0,5.0151 c 0,0.831 0.668999,1.4998 1.499999,1.4998 l 6,0 c 0.831,0 1.5,-0.6688 1.5,-1.4998 l 0,-5.0151 c 2.054649,-0.485 3.971954,-1.3121 5.71875,-2.3903 l 3.5625,3.5621 c 0.587605,0.5874 1.52177,0.5874 2.109375,0 l 4.265625,-4.2652 c 0.587605,-0.5874 0.587609,-1.5215 0,-2.109 l -3.5625,-3.562 c 1.078289,-1.7467 1.905531,-3.6639 2.390625,-5.7181 l 5.015625,0 c 0.831,0 1.5,-0.6689 1.5,-1.4999 l 0,-5.9992 c 0,-0.8309 -0.669,-1.49981 -1.5,-1.49981 l -5.015625,0 c -0.484606,-2.05232 -1.314205,-3.97314 -2.390625,-5.71803 l 3.5625,-3.56207 c 0.587605,-0.58763 0.587609,-1.52157 0,-2.10919 l -4.265625,-4.26504 c -0.587605,-0.58762 -1.521772,-0.58762 -2.109375,0 l -3.5625,3.56208 c -1.74516,-1.07628 -3.666164,-1.90582 -5.71875,-2.39042 l 0,-5.01494 c 0,-0.8309 -0.669,-1.49982 -1.5,-1.49982 z M 47.5,994.3633 c 5.5,0 9.5,4.06663 9.5,8.4989 0,5.5 -4,9.4989 -9.5,9.4989 -5.5,0 -9.5,-3.9989 -9.5,-9.4989 0,-4.47335 4,-8.4989 9.5,-8.4989 z"
       id="path3381"
       style="opacity:0.3;fill:#ffffff;fill-opacity:1;fill-rule:nonzero;stroke:none;stroke-width:1.70000005;marker:none;visibility:visible;display:inline;overflow:visible;enable-background:accumulate" />
    <path
       sodipodi:nodetypes="sscccccsccssssccccccccssssccccccccssssccscccccssssssss"
       inkscape:connector-curvature="0"
       d="m 50.5,1028.3816 c 0.831,0 1.5,-0.669 1.5,-1.4998 l 0,-5.0152 c 2.054649,-0.4849 3.971954,-1.3121 5.71875,-2.3902 l 3.5625,3.5621 c 0.587605,0.5874 1.52177,0.5874 2.109375,0 l 4.265625,-4.2652 c 0.587605,-0.5875 0.587608,-1.5216 0,-2.1091 l -3.5625,-3.562 c 1.078289,-1.7467 1.905531,-3.6638 2.390625,-5.7181 l 5.015625,0 c 0.831,0 1.5,-0.6689 1.5,-1.4998 l 0,-5.99924 c 0,-0.83089 -0.669,-1.49981 -1.5,-1.49981 l -5.015625,0 c -0.484606,-2.05233 -1.314205,-3.97315 -2.390625,-5.71803 l 3.5625,-3.56208 c 0.587605,-0.58762 0.587608,-1.52156 0,-2.10919 l -4.265625,-4.26504 c -0.587605,-0.58762 -1.52177,-0.58762 -2.109375,0 l -3.5625,3.56208 C 55.97359,985.21672 54.052586,984.38717 52,983.90258 l 0,-5.01495 c 0,-0.83089 -0.669,-1.49982 -1.5,-1.49982 l -6,0 c -0.831,0 -1.499999,0.66893 -1.499999,1.49982 l 0,5.01495 c -2.05465,0.48504 -3.971955,1.31218 -5.718751,2.39041 l -3.5625,-3.56208 c -0.587605,-0.58762 -1.52177,-0.58762 -2.109375,0 l -4.265625,4.26504 c -0.587605,0.58763 -0.587609,1.52157 0,2.10919 l 3.5625,3.56208 c -1.078289,1.74654 -1.905531,3.6636 -2.390625,5.71803 l -5.015625,0 c -0.831,0 -1.5,0.66892 -1.5,1.49981 l 0,5.99924 c 0,0.8309 0.669,1.4998 1.5,1.4998 l 5.015625,0 c 0.484606,2.0525 1.314205,3.9731 2.390625,5.7181 l -3.5625,3.562 c -0.587605,0.5875 -0.587609,1.5216 0,2.1091 l 4.265625,4.2652 c 0.587605,0.5874 1.521772,0.5874 2.109375,0 l 3.5625,-3.5621 c 1.74516,1.0763 3.666163,1.9058 5.718751,2.3902 l 0,5.0152 c 0,0.8308 0.668999,1.4998 1.499999,1.4998 z m -3,-16.0194 c -5.499999,0 -9.499998,-4 -9.499999,-9.5 -2e-6,-5.5 4,-9.5 9.499999,-9.5 5.500001,0 9.500001,4 9.500001,9.5 0,5.5 -4,9.5 -9.500001,9.5 z"
       id="rect2588"
       style="fill:#82437a;fill-opacity:1;fill-rule:nonzero;stroke:none;stroke-width:1.70000005;marker:none;visibility:visible;display:inline;overflow:visible;enable-background:accumulate" />
    <path
       sodipodi:nodetypes="cccccccccccccccccccccccccccccccccccccccccccccccccc"
       inkscape:connector-curvature="0"
       style="opacity:0.1;fill:none;stroke:url(#linearGradient4126);stroke-width:1;stroke-miterlimit:4;stroke-opacity:1;stroke-dasharray:none;marker:none;visibility:visible;display:inline;overflow:visible;enable-background:accumulate"
       d="m 43.5,978.8622 0.014,5.3844 c -2.127631,0.54928 -4.214194,1.45987 -6.341822,2.6662 -1.207424,-1.16086 -2.658334,-2.79376 -3.921141,-3.88786 -0.444151,-0.40622 -0.888303,-0.27283 -1.332453,0.0844 -0.920714,0.96617 -3.379671,3.24478 -4.233795,4.2663 -0.348312,0.37753 -0.434534,0.81123 -0.01806,1.35266 l 3.819187,3.7672 c -1.016537,1.87479 -2.136709,4.13909 -2.565462,6.38792 l -5.410107,-0.002 c -0.77802,0.11207 -0.90117,0.52624 -0.980414,0.96075 0.03422,1.32253 -0.09022,4.81493 0.03359,6.12883 0.05967,0.7119 0.445382,0.8939 0.940524,0.8982 l 5.351285,0 c 0.620954,2.3189 1.434733,4.4975 2.656183,6.3796 -1.160995,1.2073 -2.670879,2.4323 -3.765128,3.6948 -0.584817,0.5567 -0.470631,1.0766 -0.01806,1.5786 l 4.266611,4.1516 c 0.379255,0.2388 0.707883,0.6153 1.45565,-0.146 l 3.705905,-3.593 c 2.103946,1.0592 4.207892,2.0679 6.311839,2.6418 l 0.07465,5.3325 c 0.12036,0.5912 0.561068,0.7552 1.002125,0.9187 l 5.985586,-0.012 c 0.493923,-0.1165 0.921026,-0.4734 0.980415,-1.0019 l 0.05933,-5.3507 c 2.120273,-0.5761 4.18501,-1.4298 6.195774,-2.5533 l 3.962207,3.8057 c 0.385016,0.1008 0.759541,0.2342 1.250321,0.018 l 4.377526,-4.4717 c 0.36904,-0.3687 0.267086,-0.7375 0.03858,-1.1063 l -3.860252,-3.9726 c 1.016078,-1.8836 2.033125,-3.7657 2.62175,-6.2905 l 5.312753,0.012 1.021481,-1.043 -0.01305,-5.98513 c 0.01338,-0.66052 -0.43331,-0.86096 -0.961057,-0.98034 l -5.433416,-0.0593 c -0.514112,-2.44827 -1.540149,-4.45397 -2.594586,-6.19501 l 3.929396,-4.00272 c 0.288683,-0.52075 0.194687,-0.98262 -0.228348,-1.39388 l -4.26661,-4.21289 c -0.30395,-0.22223 -0.628144,-0.38878 -1.147654,-0.0182 l -3.931768,3.88047 c -2.047458,-1.22953 -4.187885,-1.99422 -6.3435,-2.68298 l 0,-5.34311 c -0.03836,-0.59882 -0.414809,-0.89334 -0.999999,-1 l -6,0 c -0.676274,0.0839 -0.923382,0.47997 -0.999995,1 z"
       id="path4223" />
    <path
       sodipodi:nodetypes="ccccc"
       style="opacity:0.1;fill:none;stroke:url(#linearGradient4128);stroke-width:1;stroke-miterlimit:4;stroke-opacity:1;stroke-dasharray:none;marker:none;visibility:visible;display:inline;overflow:visible;enable-background:accumulate"
       d="m 47.5,1012.8622 c 6.017087,0 10.063993,-4.1454 10,-10 0,-5.86621 -4.134823,-10.08257 -10,-10 -5.787672,0 -9.999999,4.29683 -9.999999,10 0.08433,5.9201 4.520316,10 9.999999,10 z"
       id="path4183"
       inkscape:connector-curvature="0" />
  </g>
</svg>
