<?xml version="1.0" encoding="UTF-8" standalone="no"?>
<!-- Created with Inkscape (http://www.inkscape.org/) -->

<svg
   xmlns:dc="http://purl.org/dc/elements/1.1/"
   xmlns:cc="http://creativecommons.org/ns#"
   xmlns:rdf="http://www.w3.org/1999/02/22-rdf-syntax-ns#"
   xmlns:svg="http://www.w3.org/2000/svg"
   xmlns="http://www.w3.org/2000/svg"
   xmlns:xlink="http://www.w3.org/1999/xlink"
   xmlns:sodipodi="http://sodipodi.sourceforge.net/DTD/sodipodi-0.dtd"
   xmlns:inkscape="http://www.inkscape.org/namespaces/inkscape"
   width="96"
   height="96"
   id="svg4017"
   version="1.1"
   inkscape:version="0.48+devel r"
   sodipodi:docname="image-x-xcf.svg"
   viewBox="0 0 96 96">
  <defs
     id="defs4019">
    <linearGradient
       id="linearGradient4130">
      <stop
         offset="0"
         style="stop-color:#000000;stop-opacity:1"
         id="stop4132" />
      <stop
         offset="1"
         style="stop-color:#000000;stop-opacity:0.3882353"
         id="stop4134" />
    </linearGradient>
    <radialGradient
       inkscape:collect="always"
       xlink:href="#linearGradient5060"
       id="radialGradient3153"
       gradientUnits="userSpaceOnUse"
       gradientTransform="matrix(0.03128083,0,0,0.02053005,64.045118,1036.6837)"
       cx="605.71429"
       cy="486.64789"
       fx="605.71429"
       fy="486.64789"
       r="117.14286" />
    <linearGradient
       id="linearGradient5060">
      <stop
         id="stop5062"
         style="stop-color:#000000;stop-opacity:1"
         offset="0" />
      <stop
         id="stop5064"
         style="stop-color:#000000;stop-opacity:0"
         offset="1" />
    </linearGradient>
    <radialGradient
       inkscape:collect="always"
       xlink:href="#linearGradient5060"
       id="radialGradient3156"
       gradientUnits="userSpaceOnUse"
       gradientTransform="matrix(-0.03128083,0,0,0.02053005,31.850121,1036.6837)"
       cx="605.71429"
       cy="486.64789"
       fx="605.71429"
       fy="486.64789"
       r="117.14286" />
    <linearGradient
       id="linearGradient5048">
      <stop
         id="stop5050"
         style="stop-color:#000000;stop-opacity:0"
         offset="0" />
      <stop
         id="stop5056"
         style="stop-color:#000000;stop-opacity:1"
         offset="0.5" />
      <stop
         id="stop5052"
         style="stop-color:#000000;stop-opacity:0"
         offset="1" />
    </linearGradient>
    <linearGradient
       y2="609.50507"
       x2="302.85715"
       y1="366.64789"
       x1="302.85715"
       gradientTransform="matrix(0.14476034,0,0,0.02053005,-4.3728904,1036.6837)"
       gradientUnits="userSpaceOnUse"
       id="linearGradient4015"
       xlink:href="#linearGradient5048"
       inkscape:collect="always" />
    <linearGradient
       id="linearGradient3104">
      <stop
         offset="0"
         style="stop-color:#a0a0a0;stop-opacity:1;"
         id="stop3106" />
      <stop
         offset="1"
         style="stop-color:#bebebe;stop-opacity:1;"
         id="stop3108" />
    </linearGradient>
    <linearGradient
       id="linearGradient3600-9">
      <stop
         offset="0"
         style="stop-color:#f4f4f4;stop-opacity:1"
         id="stop3602-3" />
      <stop
         offset="1"
         style="stop-color:#dbdbdb;stop-opacity:1"
         id="stop3604-7" />
    </linearGradient>
    <linearGradient
       id="linearGradient3977-4">
      <stop
         id="stop3979-7"
         style="stop-color:#ffffff;stop-opacity:1;"
         offset="0" />
      <stop
         offset="0.03626217"
         style="stop-color:#ffffff;stop-opacity:0.23529412;"
         id="stop3981-6" />
      <stop
         id="stop3983-5"
         style="stop-color:#ffffff;stop-opacity:0.15686275;"
         offset="0.95056331" />
      <stop
         id="stop3985-6"
         style="stop-color:#ffffff;stop-opacity:0.39215687;"
         offset="1" />
    </linearGradient>
    <linearGradient
       inkscape:collect="always"
       xlink:href="#linearGradient3977-4"
       id="linearGradient3093"
       gradientUnits="userSpaceOnUse"
       gradientTransform="matrix(1.8648644,0,0,2.3513558,3.2432571,945.92985)"
       x1="23.99999"
       y1="5.5641499"
       x2="23.99999"
       y2="43" />
    <linearGradient
       inkscape:collect="always"
       xlink:href="#linearGradient3600-9"
       id="linearGradient3096"
       gradientUnits="userSpaceOnUse"
       gradientTransform="matrix(2.0285668,0,0,1.9337922,-0.68560448,952.98382)"
       x1="25.132275"
       y1="0.98520643"
       x2="25.132275"
       y2="47.013336" />
    <linearGradient
       inkscape:collect="always"
       xlink:href="#linearGradient3104"
       id="linearGradient3098"
       gradientUnits="userSpaceOnUse"
       gradientTransform="matrix(1.6380614,0,0,1.8097403,119.8319,950.82863)"
       x1="-51.786404"
       y1="50.786446"
       x2="-51.786404"
       y2="2.9062471" />
    <linearGradient
       inkscape:collect="always"
       xlink:href="#linearGradient3927"
       id="linearGradient3819"
       gradientUnits="userSpaceOnUse"
       gradientTransform="matrix(1.0274557,0,0,1.02362,-0.95830856,-0.92103054)"
       x1="34.658031"
       y1="33.601665"
       x2="31.127357"
       y2="22.232906" />
    <linearGradient
       id="linearGradient3927">
      <stop
         id="stop3929"
         offset="0"
         style="stop-color:#ffffff;stop-opacity:0.28813559" />
      <stop
         style="stop-color:#ffffff;stop-opacity:0.8"
         offset="0.16901067"
         id="stop3931" />
      <stop
         id="stop3933"
         offset="1"
         style="stop-color:#ffffff;stop-opacity:0;" />
    </linearGradient>
    <radialGradient
       inkscape:collect="always"
       xlink:href="#linearGradient5060"
       id="radialGradient4126"
       gradientUnits="userSpaceOnUse"
       gradientTransform="matrix(0.03128083,0,0,0.02053005,64.045118,1036.6837)"
       cx="605.71429"
       cy="486.64789"
       fx="605.71429"
       fy="486.64789"
       r="117.14286" />
    <linearGradient
       inkscape:collect="always"
       xlink:href="#linearGradient4130"
       id="linearGradient4128"
       x1="23.548243"
       y1="8.9776707"
       x2="23.548243"
       y2="38.891953"
       gradientUnits="userSpaceOnUse" />
  </defs>
  <sodipodi:namedview
     id="base"
     pagecolor="#ffffff"
     bordercolor="#666666"
     borderopacity="1.0"
     inkscape:pageopacity="0.0"
     inkscape:pageshadow="2"
     inkscape:zoom="12.175495"
     inkscape:cx="46.038203"
     inkscape:cy="37.84048"
     inkscape:document-units="px"
     inkscape:current-layer="layer1"
     showgrid="true"
     inkscape:window-width="1535"
     inkscape:window-height="876"
     inkscape:window-x="65"
     inkscape:window-y="24"
     inkscape:window-maximized="1"
     units="px">
    <inkscape:grid
       type="xygrid"
       id="grid3011"
       empspacing="5"
       visible="true"
       enabled="true"
       snapvisiblegridlinesonly="true" />
  </sodipodi:namedview>
  <metadata
     id="metadata4022">
    <rdf:RDF>
      <cc:Work
         rdf:about="">
        <dc:format>image/svg+xml</dc:format>
        <dc:type
           rdf:resource="http://purl.org/dc/dcmitype/StillImage" />
        <dc:title></dc:title>
      </cc:Work>
    </rdf:RDF>
  </metadata>
  <g
     inkscape:label="Layer 1"
     inkscape:groupmode="layer"
     id="layer1"
     transform="translate(0,-956.3622)">
    <g
       id="g4089"
       transform="matrix(1.0040259,0,0,1.0028296,-0.14065179,-2.8037029)">
      <rect
         width="69.89856"
         height="4.9858918"
         x="12.998364"
         y="1044.2112"
         id="rect2879"
         style="opacity:0.3;fill:url(#linearGradient4015);fill-opacity:1;fill-rule:nonzero;stroke:none;stroke-width:1;marker:none;visibility:visible;display:inline;overflow:visible" />
      <path
         d="m 12.998348,1044.2116 c 0,0 0,4.9853 0,4.9853 -1.610891,0.013 -3.894348,-1.1179 -3.894348,-2.4937 0,-1.3758 1.797632,-2.4916 3.894348,-2.4916 z"
         id="path2881"
         style="opacity:0.3;fill:url(#radialGradient3156);fill-opacity:1;fill-rule:nonzero;stroke:none;stroke-width:1;marker:none;visibility:visible;display:inline;overflow:visible"
         inkscape:connector-curvature="0" />
      <path
         d="m 82.896898,1044.2116 c 0,0 0,4.9853 0,4.9853 1.610888,0.013 3.894344,-1.1179 3.894344,-2.4937 0,-1.3758 -1.797625,-2.4916 -3.894344,-2.4916 z"
         id="path2883"
         style="opacity:0.3;fill:url(#radialGradient3153);fill-opacity:1;fill-rule:nonzero;stroke:none;stroke-width:1;marker:none;visibility:visible;display:inline;overflow:visible"
         inkscape:connector-curvature="0" />
    </g>
    <path
       inkscape:connector-curvature="0"
       style="fill:url(#linearGradient3096);fill-opacity:1;stroke:url(#linearGradient3098);stroke-width:1;stroke-linecap:butt;stroke-linejoin:round;stroke-miterlimit:4;stroke-opacity:1;stroke-dasharray:none;stroke-dashoffset:0;display:inline"
       id="path4160-6"
       d="m 12.5,957.86216 c 16.269706,0 70.999909,0.008 70.999909,0.008 l 9.3e-5,88.99204 c 0,0 -47.333343,0 -71.000002,0 0,-29.6655 0,-59.33148 0,-88.99771 z"
       sodipodi:nodetypes="ccccc" />
    <path
       style="fill:none;stroke:url(#linearGradient3093);stroke-width:1;stroke-linecap:round;stroke-linejoin:miter;stroke-miterlimit:4;stroke-opacity:1;stroke-dasharray:none;stroke-dashoffset:0"
       d="m 82.499997,1045.8622 -68.999997,0 0,-86.99998 68.999997,0 z"
       id="rect6741-1-8"
       inkscape:connector-curvature="0"
       sodipodi:nodetypes="ccccc" />
    <g
       id="g3168"
       transform="matrix(1.6706476,0,0,1.6714138,8.782012,960.96646)">
      <g
         id="layer1-7"
         transform="matrix(0.7400127,0,0,0.7400127,7.8444241,9.1459649)">
        <path
           inkscape:connector-curvature="0"
           id="path4323"
           d="m 37.287157,6.5805223 c -0.159471,0.078283 -0.301013,0.332228 -0.43877,0.744986 -0.367349,1.1006888 -2.952195,8.7044047 -17.594656,9.0712997 -6.987157,0.173537 -9.9600664,-5.959886 -9.9600664,-5.959886 l -0.1755074,7.888087 c 0,0 0.7510375,1.757875 -0.7459085,3.593458 C 8.2908788,21.791468 8.242234,21.647759 8.1528642,21.524064 7.6140861,20.778349 6.9824896,20.150864 6.3100324,19.683511 5.5373768,19.14652 4.7336871,18.791974 3.940677,18.675587 c -0.9142579,-0.13418 -1.7985534,0.06356 -2.500986,0.569698 -0.70264643,0.506282 -1.11169012,1.281931 -1.27243149,2.191133 -0.13934826,0.788198 -0.09100081,1.640254 0.17550776,2.541715 0.23197375,0.78465 0.60226212,1.576863 1.14080073,2.322604 0.5689289,0.787825 1.2777148,1.485461 2.0183397,1.972024 0.8352708,0.548737 1.7207961,0.870188 2.5887397,0.920276 0.2685845,0.01551 0.543,-0.05027 0.789785,-0.08767 5.6216276,4.451105 16.7799816,8.604901 24.1761986,3.856397 0.159989,0.05435 -0.08613,0.372442 0.07467,0.427948 0.0039,0.076 -0.02,0.151382 0,0.219113 l 0.351015,-0.131465 c 0.06247,0.01985 0.11172,0.06894 0.175511,0.08764 0.01367,0.004 0.03015,-0.0039 0.04386,0 l 0.131633,0.131472 2.923359,1.100993 c -0.136801,1.156453 0.963742,2.454375 2.41456,3.00881 2.612766,0.998477 5.789765,2.702645 5.789765,2.702645 -1.459592,-4.419187 -2.534321,-9.294239 -5.411658,-8.650674 -0.593859,0.132827 -1.365867,0.323929 -1.70603,0.677541 l -2.651855,-1.637714 -0.13163,0 -0.02872,0.442251 C 36.989867,27.449142 39.30481,20.135674 37.90144,7.4131366 37.82022,6.7773499 37.552946,6.4500359 37.287161,6.5805043 Z"
           style="opacity:0.5;color:#000000;fill:url(#linearGradient4128);fill-opacity:1;fill-rule:nonzero;stroke:none;stroke-width:0.68663466;marker:none;visibility:visible;display:inline;overflow:visible;enable-background:accumulate"
           sodipodi:nodetypes="csccccssssssssscccccccccscscccccsc" />
      </g>
      <g
         style="color:#000000;fill:none;stroke:url(#radialGradient4126);stroke-width:0.80867946;stroke-linecap:butt;stroke-linejoin:miter;stroke-miterlimit:4;stroke-opacity:1;stroke-dasharray:none;stroke-dashoffset:0;marker:none;visibility:visible;display:inline;overflow:visible;enable-background:accumulate"
         id="layer1-7-5"
         transform="matrix(0.7400127,0,0,0.7400127,7.8444241,9.1459649)" />
      <path
         id="path4694-0"
         d="m 35.580586,13.72953 c -0.158936,-0.05543 -0.335714,-0.03946 -0.48162,0.03199 -0.377632,0.184903 -0.464948,0.461986 -0.577944,0.799706 -0.132512,0.396051 -0.618762,1.878336 -2.375992,3.326765 -1.757229,1.448429 -4.772575,2.842995 -10.049801,2.974895 -4.836053,0.119812 -6.87111,-4.062491 -6.87111,-4.062491 -0.16617,-0.397803 -0.911057,-0.23878 -0.899023,0.191928 l -0.128433,5.757863 c 0.007,0.06761 0.0291,0.133645 0.06422,0.191928 0,0 0.287461,0.693235 -0.160541,1.599405 -0.369301,-0.454596 -0.77465,-0.874748 -1.220103,-1.183559 -0.610976,-0.423563 -1.256012,-0.701548 -1.92648,-0.799703 -0.777292,-0.113789 -1.5651991,0.03554 -2.1833432,0.479822 -0.6280979,0.451435 -0.958347,1.13506 -1.0916716,1.887298 -0.1152226,0.650107 -0.0849,1.359436 0.1284319,2.079228 0.1838138,0.620195 0.4725211,1.266188 0.8990238,1.855311 0.4474928,0.618117 1.0064268,1.142913 1.6053991,1.53543 0.667939,0.43771 1.387275,0.725587 2.119128,0.767715 0.207527,0.01196 0.341768,-0.03848 0.481619,-0.06398 2.11483,1.630039 5.147905,3.171639 8.380186,3.902551 3.195771,0.722657 6.37371,0.782586 9.167735,-0.86342 0.103329,0.200231 0.365979,0.301992 0.577944,0.223918 l 0.06422,-0.03199 0.03211,0 c 0.02719,0.03644 0.05976,0.06889 0.09632,0.09596 l 1.994426,0.767715 c 0.04549,0.921559 0.755111,1.799915 1.845307,2.215494 1.877849,0.715832 4.173964,1.79382 4.173964,1.79382 0.323654,0.179414 0.666243,-0.177458 0.560805,-0.531198 -0.454103,-1.523491 -0.95751,-3.152804 -1.497482,-4.218534 -0.269987,-0.532865 -0.459983,-1.207181 -0.932975,-1.517409 -0.47299,-0.310226 -0.969824,-0.591061 -1.646883,-0.529156 -0.392082,0.03585 -1.127922,0.207895 -1.408789,0.401646 l -1.226322,-0.803584 c 2.775321,-3.069848 4.084467,-8.360635 3.09773,-17.283735 -0.03659,-0.285714 -0.09728,-0.526275 -0.256864,-0.73573 -0.07979,-0.104727 -0.194251,-0.200472 -0.353178,-0.255906 z"
         style="opacity:0.15;color:#000000;fill:none;stroke:url(#linearGradient3819);stroke-width:0.59843314;stroke-linecap:butt;stroke-linejoin:miter;stroke-miterlimit:4;stroke-opacity:1;stroke-dasharray:none;stroke-dashoffset:0;marker:none;visibility:visible;display:inline;overflow:visible;enable-background:accumulate"
         inkscape:connector-curvature="0"
         sodipodi:nodetypes="ccssccccccsssssssccsccccccscsssscccscc" />
      <path
         inkscape:connector-curvature="0"
         style="opacity:0.1;color:#000000;fill:#000000;fill-opacity:1;fill-rule:nonzero;stroke:none;stroke-width:1.10237157;marker:none;visibility:visible;display:inline;overflow:visible;enable-background:accumulate"
         d="m 30.641864,33.433814 c 0.116617,0.0397 -0.06279,0.271879 0.05444,0.312397 0.0029,0.05551 -0.01456,0.110509 0,0.159952 l 0.255859,-0.09597 c 0.04552,0.01447 0.08144,0.05033 0.12793,0.06399 0.01,0.003 0.02196,-0.0029 0.03198,0 l 0.09595,0.09597 2.339357,0.894158 c -0.09972,0.844204 0.493997,1.701236 1.551515,2.105968 1.904477,0.728881 4.494151,2.109811 4.494151,2.109811 -0.89241,-2.989827 -1.771586,-6.930951 -4.083409,-6.334053 -0.423738,0.109406 -0.936096,0.176586 -1.184043,0.465621 l -2.127605,-1.284315 -0.09595,0 -0.02096,0.322841"
         id="path3104"
         sodipodi:nodetypes="ccccccccscscccc" />
    </g>
  </g>
</svg>
