<?xml version="1.0" encoding="UTF-8" standalone="no"?>
<svg
   xmlns:dc="http://purl.org/dc/elements/1.1/"
   xmlns:cc="http://creativecommons.org/ns#"
   xmlns:rdf="http://www.w3.org/1999/02/22-rdf-syntax-ns#"
   xmlns:svg="http://www.w3.org/2000/svg"
   xmlns="http://www.w3.org/2000/svg"
   xmlns:xlink="http://www.w3.org/1999/xlink"
   xmlns:sodipodi="http://sodipodi.sourceforge.net/DTD/sodipodi-0.dtd"
   xmlns:inkscape="http://www.inkscape.org/namespaces/inkscape"
   version="1.0"
   width="96"
   height="96"
   id="svg2453"
   sodipodi:docname="image-x-generic.svg"
   inkscape:version="1.0.2 (e86c870879, 2021-01-15)">
  <sodipodi:namedview
     pagecolor="#ffffff"
     bordercolor="#666666"
     borderopacity="1"
     objecttolerance="10"
     gridtolerance="10"
     guidetolerance="10"
     inkscape:pageopacity="0"
     inkscape:pageshadow="2"
     inkscape:window-width="1920"
     inkscape:window-height="1030"
     id="namedview37"
     showgrid="false"
     inkscape:zoom="11.681993"
     inkscape:cx="38.5941"
     inkscape:cy="67.269589"
     inkscape:window-x="0"
     inkscape:window-y="0"
     inkscape:window-maximized="1"
     inkscape:current-layer="svg2453" />
  <metadata
     id="metadata54826">
    <rdf:RDF>
      <cc:Work
         rdf:about="">
        <dc:format>image/svg+xml</dc:format>
        <dc:type
           rdf:resource="http://purl.org/dc/dcmitype/StillImage" />
        <dc:title />
      </cc:Work>
    </rdf:RDF>
  </metadata>
  <defs
     id="defs2455">
    <linearGradient
       id="linearGradient259-942">
      <stop
         id="stop3802"
         style="stop-color:#ffffff;stop-opacity:1"
         offset="0" />
      <stop
         id="stop3804"
         style="stop-color:#e0e0e0;stop-opacity:1"
         offset="1" />
    </linearGradient>
    <linearGradient
       id="linearGradient3610-302">
      <stop
         id="stop3796"
         style="stop-color:#333333;stop-opacity:1"
         offset="0" />
      <stop
         id="stop3798"
         style="stop-color:#292929;stop-opacity:1"
         offset="1" />
    </linearGradient>
    <linearGradient
       id="linearGradient4157-401-351">
      <stop
         id="stop3790"
         style="stop-color:#262626;stop-opacity:1"
         offset="0" />
      <stop
         id="stop3792"
         style="stop-color:#828282;stop-opacity:1"
         offset="1" />
    </linearGradient>
    <linearGradient
       xlink:href="#linearGradient4157-401-351"
       id="linearGradient3011"
       gradientUnits="userSpaceOnUse"
       gradientTransform="matrix(-0.75014524,0.00282226,0.00141883,-0.58235411,86.572392,72.624249)"
       x1="28.938274"
       y1="17.33289"
       x2="105.36545"
       y2="92.823723" />
    <linearGradient
       xlink:href="#linearGradient3610-302"
       id="linearGradient3013"
       gradientUnits="userSpaceOnUse"
       gradientTransform="matrix(-1.7029519,0.00640699,0.00414497,-1.7012897,-5.097565,-6.4188677)"
       x1="-24.032034"
       y1="-13.090545"
       x2="-24.097931"
       y2="-40.163883" />
    <linearGradient
       xlink:href="#linearGradient259-942"
       id="linearGradient3016"
       gradientUnits="userSpaceOnUse"
       gradientTransform="matrix(-0.7470727,0.00128911,-4.9749648e-4,-0.51566195,86.906897,72.998858)"
       x1="108.26451"
       y1="110.28094"
       x2="25.817675"
       y2="14.029031" />
    <radialGradient
       xlink:href="#linearGradient3688-166-749-9"
       id="radialGradient3184-9"
       gradientUnits="userSpaceOnUse"
       gradientTransform="matrix(2.003784,0,0,1.4,27.98813,-17.4)"
       cx="4.9929786"
       cy="43.5"
       fx="4.9929786"
       fy="43.5"
       r="2.5" />
    <linearGradient
       id="linearGradient3688-166-749-9">
      <stop
         id="stop2883-0"
         style="stop-color:#181818;stop-opacity:1"
         offset="0" />
      <stop
         id="stop2885-4"
         style="stop-color:#181818;stop-opacity:0"
         offset="1" />
    </linearGradient>
    <radialGradient
       xlink:href="#linearGradient3688-464-309-1"
       id="radialGradient3186-4"
       gradientUnits="userSpaceOnUse"
       gradientTransform="matrix(2.003784,0,0,1.4,-20.01187,-104.4)"
       cx="4.9929786"
       cy="43.5"
       fx="4.9929786"
       fy="43.5"
       r="2.5" />
    <linearGradient
       id="linearGradient3688-464-309-1">
      <stop
         id="stop2889-6"
         style="stop-color:#181818;stop-opacity:1"
         offset="0" />
      <stop
         id="stop2891-4"
         style="stop-color:#181818;stop-opacity:0"
         offset="1" />
    </linearGradient>
    <linearGradient
       xlink:href="#linearGradient3702-501-757-3"
       id="linearGradient3188-5"
       gradientUnits="userSpaceOnUse"
       x1="25.058096"
       y1="47.027729"
       x2="25.058096"
       y2="39.999443" />
    <linearGradient
       id="linearGradient3702-501-757-3">
      <stop
         id="stop2895-1"
         style="stop-color:#181818;stop-opacity:0"
         offset="0" />
      <stop
         id="stop2897-7"
         style="stop-color:#181818;stop-opacity:1"
         offset="0.5" />
      <stop
         id="stop2899-1"
         style="stop-color:#181818;stop-opacity:0"
         offset="1" />
    </linearGradient>
  </defs>
  <g
     style="display:inline"
     id="g2036"
     transform="matrix(2.1999991,0,0,0.5555561,-4.8000004,61.676879)">
    <g
       style="opacity:0.4"
       id="g3712"
       transform="matrix(1.052632,0,0,1.285713,-1.263158,-13.42854)">
      <rect
         style="fill:url(#radialGradient3184-9);fill-opacity:1;stroke:none"
         id="rect2801"
         y="40"
         x="38"
         height="7"
         width="5" />
      <rect
         style="fill:url(#radialGradient3186-4);fill-opacity:1;stroke:none"
         id="rect3696"
         transform="scale(-1,-1)"
         y="-47"
         x="-10"
         height="7"
         width="5" />
      <rect
         style="fill:url(#linearGradient3188-5);fill-opacity:1;stroke:none"
         id="rect3700"
         y="40"
         x="10"
         height="7.0000005"
         width="28" />
    </g>
  </g>
  <path
     style="fill:url(#linearGradient3016);fill-opacity:1;stroke:#c1c1c1;stroke-width:0.99999964;stroke-linecap:round;stroke-linejoin:miter;stroke-miterlimit:4;stroke-opacity:0.96862745"
     d="m 91.499999,85.499829 -86.9999983,-1.3e-5 0,-68.999974 86.9999983,-1.3e-5 z"
     id="rect3580" />
  <path
     style="fill:url(#linearGradient3011);fill-opacity:1;stroke:url(#linearGradient3013);stroke-width:1.00000012;stroke-linecap:round;stroke-linejoin:miter;stroke-miterlimit:4;stroke-opacity:1"
     d="m 88.500001,82.388713 -81.0000022,6e-6 5.6e-6,-62.777779 80.9999916,6e-6 z"
     id="rect3582" />
  <path
     d="m 43.271807,35.805624 c -1.897377,0 -3.289709,1.423089 -4.155071,3.155869 -0.752646,1.507081 -1.135866,3.42601 -1.241746,5.498865 -1.702911,-1.169172 -3.455107,-2.027598 -5.110259,-2.342994 -1.914778,-0.364868 -3.899564,-0.126618 -5.0625,1.38667 -1.166076,1.517378 -0.856534,3.508823 0,5.259783 0.766074,1.566035 2.12835,3.068009 3.772995,4.446908 -2.069374,0.691752 -3.917056,1.657257 -5.205778,2.868973 -1.423491,1.338429 -2.396886,3.090853 -1.862618,4.925069 0.534744,1.835847 2.337963,2.77654 4.25059,3.108054 1.34618,0.233332 2.889089,0.12726 4.489386,-0.143449 C 26.362258,71.238938 21.28261,80.880327 20.204,83.000231 h 6.065448 c 1.559858,-3.380644 4.146799,-8.334833 7.689268,-13.197281 0.02285,0.161146 -0.07854,0.36956 -0.04775,0.525979 0.315624,1.603632 1.158032,3.11705 2.722287,3.681848 1.797584,0.649044 3.598987,-0.233366 5.014741,-1.577935 1.050964,-0.998122 1.919799,-2.408447 2.674528,-3.968746 0.984837,1.431634 2.056969,2.710339 3.247641,3.5384 1.59762,1.111072 3.484767,1.682256 5.15802,0.765059 1.676563,-0.919012 2.233935,-2.836731 2.149174,-4.781621 -0.05876,-1.348469 -0.507392,-2.818053 -1.098467,-4.303459 1.569527,0.206106 3.084459,0.271941 4.393868,0 1.903035,-0.395228 3.673241,-1.354757 4.15507,-3.203686 0.481319,-1.846917 -0.586788,-3.558517 -2.053656,-4.829437 -0.906417,-0.785338 -2.059664,-1.452022 -3.34316,-2.008282 1.088992,-0.885539 2.062796,-1.812687 2.722288,-2.821156 1.067446,-1.632292 1.622072,-3.558595 0.668632,-5.211967 -0.955878,-1.657598 -2.928397,-2.132578 -4.871462,-2.008281 -1.943065,0.124292 -4.091843,0.832465 -6.208727,2.056097 -0.205785,0.118952 -0.331329,0.257868 -0.525353,0.38253 0.01008,-0.237288 0.09552,-0.427872 0.09552,-0.669427 0,-2.451823 -0.458047,-4.675043 -1.337264,-6.407373 -0.879219,-1.73233 -2.305453,-3.155869 -4.20283,-3.155869 z m 0.143277,16.496592 c 2.029332,0 3.677477,1.650103 3.677477,3.681849 0,2.031747 -1.631838,3.634032 -3.677477,3.634032 -2.045652,0 -3.677475,-1.602282 -3.677475,-3.634032 0,-2.03175 1.648131,-3.681849 3.677475,-3.681849 z"
     id="path4039"
     style="opacity:0.15;fill:#000000;fill-opacity:1;stroke:none;stroke-width:1" />
  <path
     d="m 43.271807,37.240109 c -2.250815,0 -4.059553,3.621756 -4.059553,8.128757 0,0.749899 0.04866,1.509796 0.143279,2.199545 -0.483729,-0.489304 -0.941909,-1.030597 -1.528303,-1.482302 -3.567829,-2.748333 -7.606236,-3.507421 -8.978773,-1.721384 -1.372533,1.786036 0.443966,5.476053 4.011792,8.224389 0.676976,0.521478 1.318416,0.915368 2.005897,1.291037 -0.778789,0.09967 -1.565739,0.238095 -2.387971,0.478163 -4.32163,1.261796 -7.316469,4.100537 -6.686321,6.263924 0.630148,2.163384 4.657143,2.839729 8.978774,1.577935 0.810303,-0.236587 1.590716,-0.483804 2.292452,-0.812876 -0.171292,0.312205 -0.370335,0.618276 -0.525354,0.956324 -7.177829,6.413798 -12.994089,17.288956 -14.709906,20.65661 h 2.817807 c 1.86164,-4.222287 5.507675,-11.442221 10.936911,-17.739821 -0.858458,3.575689 -0.303235,6.750209 1.528301,7.411513 2.117342,0.764498 5.111376,-2.072022 6.638562,-6.31174 0.137394,-0.381355 0.181378,-0.771459 0.286556,-1.147589 0.164935,0.363897 0.326217,0.735617 0.525354,1.099773 2.161844,3.95327 5.52394,6.294177 7.498231,5.211967 1.974291,-1.082212 1.779769,-5.179627 -0.382076,-9.132896 -0.123333,-0.225512 -0.251481,-0.407011 -0.382075,-0.621611 0.239501,0.07457 0.468119,0.126402 0.716391,0.191265 4.355829,1.137837 8.362777,0.315672 8.931015,-1.864832 0.568253,-2.180503 -2.52153,-4.83919 -6.877358,-5.977027 -0.06663,-0.01734 -0.124557,-0.03129 -0.191039,-0.04782 0.05868,-0.03299 0.132352,-0.06172 0.191039,-0.09563 3.898544,-2.2535 6.140151,-5.699007 5.01474,-7.650594 -1.125411,-1.951587 -5.223507,-1.679703 -9.122052,0.573795 -1.24876,0.721824 -2.250913,1.565579 -3.104363,2.438626 0.323664,-1.170042 0.525354,-2.536473 0.525354,-3.968745 0,-4.507 -1.85649,-8.128757 -4.107311,-8.128756 z m 0.143277,13.627621 c 2.813528,0 5.11026,2.299459 5.11026,5.116335 0,2.816875 -2.296732,5.068519 -5.11026,5.068519 -2.813538,0 -5.110259,-2.251644 -5.110259,-5.068519 0,-2.816876 2.296721,-5.116335 5.110259,-5.116335 z"
     id="path4019-9"
     style="opacity:0.3;fill:#000000;fill-opacity:1;stroke:none;stroke-width:1" />
  <path
     d="m 43.287777,35.694 c -2.250814,0 -4.075467,3.653643 -4.075467,8.160644 0,0.749899 0.03275,1.477921 0.127368,2.167671 -0.483729,-0.489304 -0.94191,-1.014662 -1.528303,-1.466367 -3.56783,-2.748335 -7.606252,-3.507421 -8.978787,-1.721384 -1.372533,1.786035 0.44397,5.476062 4.011796,8.224399 0.676976,0.521479 1.350261,0.89943 2.037742,1.2751 -0.778789,0.09967 -1.597583,0.269972 -2.419815,0.510039 -4.32163,1.261796 -7.316478,4.084609 -6.68633,6.247996 0.630148,2.163384 4.657156,2.855669 8.978785,1.593875 0.810305,-0.236587 1.590719,-0.499743 2.292456,-0.828815 -0.171291,0.312206 -0.354416,0.618278 -0.509435,0.956326 -8.492003,7.588087 -15.474078,22.123002 -15.474078,22.123002 l 2.92925,0.0638 c 1.590624,-3.823216 5.524294,-12.21858 11.589638,-19.254029 -0.858458,3.575688 -0.303232,6.734282 1.528305,7.395586 2.117341,0.764497 5.095464,-2.072032 6.62265,-6.31175 0.137394,-0.381354 0.213214,-0.771459 0.318391,-1.14759 0.164935,0.363897 0.310307,0.719679 0.509445,1.083835 2.161843,3.95327 5.539864,6.310124 7.514155,5.227914 1.974292,-1.082212 1.779769,-5.163702 -0.382075,-9.116971 -0.123334,-0.225511 -0.251482,-0.42295 -0.382075,-0.63755 0.2395,0.07456 0.452193,0.126403 0.700466,0.191265 4.355829,1.137837 8.346867,0.331608 8.915105,-1.848896 0.568253,-2.180503 -2.52153,-4.855136 -6.877359,-5.992974 -0.06663,-0.01734 -0.124556,-0.04724 -0.191038,-0.06376 0.05869,-0.03299 0.132352,-0.02983 0.191038,-0.06374 3.898545,-2.253501 6.156076,-5.699019 5.030665,-7.650605 -1.12541,-1.951587 -5.207597,-1.679703 -9.106141,0.573795 -1.248761,0.721824 -2.266839,1.549644 -3.120289,2.422691 0.323664,-1.170042 0.509429,-2.520539 0.509429,-3.952812 0,-4.507 -1.824655,-8.160643 -4.075476,-8.160643 z m 0.127307,13.643576 c 2.813528,0 5.094335,2.283528 5.094335,5.100403 0,2.816876 -2.280807,5.100403 -5.094335,5.100403 -2.813538,0 -5.094354,-2.283527 -5.094354,-5.100403 0,-2.816875 2.280816,-5.100403 5.094354,-5.100403 z"
     id="path4019"
     style="fill:#d2d2d2;fill-opacity:1;stroke:none;stroke-width:1" />
</svg>
