<?xml version="1.0" encoding="UTF-8" standalone="no"?>
<svg
   version="1.0"
   width="96"
   height="96"
   id="svg2453"
   sodipodi:docname="image-bmp.svg"
   inkscape:version="1.1.1 (3bf5ae0d25, 2021-09-20)"
   xmlns:inkscape="http://www.inkscape.org/namespaces/inkscape"
   xmlns:sodipodi="http://sodipodi.sourceforge.net/DTD/sodipodi-0.dtd"
   xmlns:xlink="http://www.w3.org/1999/xlink"
   xmlns="http://www.w3.org/2000/svg"
   xmlns:svg="http://www.w3.org/2000/svg"
   xmlns:rdf="http://www.w3.org/1999/02/22-rdf-syntax-ns#"
   xmlns:cc="http://creativecommons.org/ns#"
   xmlns:dc="http://purl.org/dc/elements/1.1/">
  <sodipodi:namedview
     pagecolor="#ffffff"
     bordercolor="#666666"
     borderopacity="1"
     objecttolerance="10"
     gridtolerance="10"
     guidetolerance="10"
     inkscape:pageopacity="0"
     inkscape:pageshadow="2"
     inkscape:window-width="1317"
     inkscape:window-height="890"
     id="namedview37"
     showgrid="false"
     inkscape:zoom="4.1302083"
     inkscape:cx="37.649433"
     inkscape:cy="66.34048"
     inkscape:window-x="539"
     inkscape:window-y="119"
     inkscape:window-maximized="0"
     inkscape:current-layer="svg2453"
     inkscape:pagecheckerboard="0" />
  <metadata
     id="metadata54826">
    <rdf:RDF>
      <cc:Work
         rdf:about="">
        <dc:format>image/svg+xml</dc:format>
        <dc:type
           rdf:resource="http://purl.org/dc/dcmitype/StillImage" />
      </cc:Work>
    </rdf:RDF>
  </metadata>
  <defs
     id="defs2455">
    <radialGradient
       xlink:href="#linearGradient3688-166-749-9"
       id="radialGradient3184-9"
       gradientUnits="userSpaceOnUse"
       gradientTransform="matrix(2.003784,0,0,1.4,27.98813,-17.4)"
       cx="4.9929786"
       cy="43.5"
       fx="4.9929786"
       fy="43.5"
       r="2.5" />
    <linearGradient
       id="linearGradient3688-166-749-9">
      <stop
         id="stop2883-0"
         style="stop-color:#181818;stop-opacity:1"
         offset="0" />
      <stop
         id="stop2885-4"
         style="stop-color:#181818;stop-opacity:0"
         offset="1" />
    </linearGradient>
    <radialGradient
       xlink:href="#linearGradient3688-464-309-1"
       id="radialGradient3186-4"
       gradientUnits="userSpaceOnUse"
       gradientTransform="matrix(2.003784,0,0,1.4,-20.01187,-104.4)"
       cx="4.9929786"
       cy="43.5"
       fx="4.9929786"
       fy="43.5"
       r="2.5" />
    <linearGradient
       id="linearGradient3688-464-309-1">
      <stop
         id="stop2889-6"
         style="stop-color:#181818;stop-opacity:1"
         offset="0" />
      <stop
         id="stop2891-4"
         style="stop-color:#181818;stop-opacity:0"
         offset="1" />
    </linearGradient>
    <linearGradient
       xlink:href="#linearGradient3702-501-757-3"
       id="linearGradient3188-5"
       gradientUnits="userSpaceOnUse"
       x1="25.058096"
       y1="47.027729"
       x2="25.058096"
       y2="39.999443" />
    <linearGradient
       id="linearGradient3702-501-757-3">
      <stop
         id="stop2895-1"
         style="stop-color:#181818;stop-opacity:0"
         offset="0" />
      <stop
         id="stop2897-7"
         style="stop-color:#181818;stop-opacity:1"
         offset="0.5" />
      <stop
         id="stop2899-1"
         style="stop-color:#181818;stop-opacity:0"
         offset="1" />
    </linearGradient>
    <linearGradient
       id="linearGradient3654-601">
      <stop
         id="stop3808"
         style="stop-color:#ffffff;stop-opacity:1"
         offset="0" />
      <stop
         id="stop3810"
         style="stop-color:#ffffff;stop-opacity:0"
         offset="1" />
    </linearGradient>
    <linearGradient
       x1="25.132275"
       y1="0.98520643"
       x2="25.132275"
       y2="47.013336"
       id="linearGradient3169"
       xlink:href="#linearGradient3600-9"
       gradientUnits="userSpaceOnUse"
       gradientTransform="matrix(2.51428,0,0,1.4775177,-12.342723,13.272673)" />
    <linearGradient
       id="linearGradient3600-9">
      <stop
         id="stop3602-3"
         style="stop-color:#f4f4f4;stop-opacity:1"
         offset="0" />
      <stop
         id="stop3604-7"
         style="stop-color:#dbdbdb;stop-opacity:1"
         offset="1" />
    </linearGradient>
    <linearGradient
       x1="164.28023"
       y1="241.65149"
       x2="164.28023"
       y2="156.78416"
       id="linearGradient3077-9"
       xlink:href="#linearGradient4785-3-8"
       gradientUnits="userSpaceOnUse"
       gradientTransform="matrix(0.92801423,0,0,0.69039298,-107.40171,-86.426677)" />
    <linearGradient
       id="linearGradient4785-3-8">
      <stop
         id="stop4787-5-5"
         style="stop-color:#262626;stop-opacity:1"
         offset="0" />
      <stop
         id="stop4789-1-1"
         style="stop-color:#4d4d4d;stop-opacity:1"
         offset="1" />
    </linearGradient>
    <linearGradient
       x1="30.305618"
       y1="6.9420786"
       x2="30.305618"
       y2="36.268814"
       id="linearGradient3079-1"
       xlink:href="#linearGradient3610-302-9-7-6"
       gradientUnits="userSpaceOnUse"
       gradientTransform="matrix(2.1067431,0,0,2.0169146,6.2436757,7.6903178)" />
    <linearGradient
       id="linearGradient3610-302-9-7-6">
      <stop
         id="stop3796-3-8-6"
         style="stop-color:#1d1d1d;stop-opacity:1"
         offset="0" />
      <stop
         id="stop3798-1-9-9"
         style="stop-color:#000000;stop-opacity:1"
         offset="1" />
    </linearGradient>
    <linearGradient
       x1="23.99999"
       y1="5.8641062"
       x2="23.99999"
       y2="42.100208"
       id="linearGradient3166"
       xlink:href="#linearGradient3977-4"
       gradientUnits="userSpaceOnUse"
       gradientTransform="matrix(2.3513517,0,0,1.810806,-8.4324215,7.5405956)" />
    <linearGradient
       id="linearGradient3977-4">
      <stop
         id="stop3979-7"
         style="stop-color:#ffffff;stop-opacity:1"
         offset="0" />
      <stop
         id="stop3981-6"
         style="stop-color:#ffffff;stop-opacity:0.23529412"
         offset="0.01214366" />
      <stop
         id="stop3983-5"
         style="stop-color:#ffffff;stop-opacity:0.15686275"
         offset="0.98781353" />
      <stop
         id="stop3985-6"
         style="stop-color:#ffffff;stop-opacity:0.39215687"
         offset="1" />
    </linearGradient>
    <linearGradient
       x1="-51.786404"
       y1="50.786446"
       x2="-51.786404"
       y2="2.9062471"
       id="linearGradient3163"
       xlink:href="#linearGradient3104-6"
       gradientUnits="userSpaceOnUse"
       gradientTransform="matrix(2.0533446,0,0,1.4030761,138.04296,11.046962)" />
    <linearGradient
       id="linearGradient3104-6">
      <stop
         id="stop3106-3"
         style="stop-color:#000000;stop-opacity:0.31782946"
         offset="0" />
      <stop
         id="stop3108-9"
         style="stop-color:#000000;stop-opacity:0.24031007"
         offset="1" />
    </linearGradient>
    <linearGradient
       x1="19.857143"
       y1="33.986282"
       x2="19.857143"
       y2="38.430866"
       id="linearGradient20332"
       xlink:href="#linearGradient3654-601"
       gradientUnits="userSpaceOnUse"
       gradientTransform="matrix(2,0,0,2,1.0000015,-3.9373986)" />
  </defs>
  <g
     style="display:inline;stroke-width:1"
     id="g2036"
     transform="matrix(2.1999991,0,0,0.5555561,-4.8000004,61.888879)">
    <g
       style="opacity:0.4;stroke-width:1"
       id="g3712"
       transform="matrix(1.052632,0,0,1.285713,-1.263158,-13.42854)">
      <rect
         style="fill:url(#radialGradient3184-9);fill-opacity:1;stroke:none;stroke-width:1"
         id="rect2801"
         y="40"
         x="38"
         height="7"
         width="5" />
      <rect
         style="fill:url(#radialGradient3186-4);fill-opacity:1;stroke:none;stroke-width:1"
         id="rect3696"
         transform="scale(-1)"
         y="-47"
         x="-10"
         height="7"
         width="5" />
      <rect
         style="fill:url(#linearGradient3188-5);fill-opacity:1;stroke:none;stroke-width:1"
         id="rect3700"
         y="40"
         x="10"
         height="7.0000005"
         width="28" />
    </g>
  </g>
  <path
     d="M 3.9999982,17 C 24.165265,17 91.999894,17.0047 91.999894,17.0047 L 91.999998,85 c 0,0 -58.666665,0 -87.9999998,0 0,-22.666671 0,-45.333 0,-67.999589 z"
     id="path4160-6"
     style="display:inline;fill:url(#linearGradient3169);fill-opacity:1;stroke:none;stroke-width:1" />
  <rect
     width="79"
     height="59.000004"
     x="8.5"
     y="21.5"
     id="rect3180"
     style="color:#000000;display:inline;overflow:visible;visibility:visible;fill:url(#linearGradient3077-9);fill-opacity:1;fill-rule:nonzero;stroke:url(#linearGradient3079-1);stroke-width:1;stroke-linecap:round;stroke-linejoin:miter;stroke-miterlimit:4;stroke-dasharray:none;stroke-dashoffset:0;stroke-opacity:1;marker:none;enable-background:accumulate" />
  <path
     d="M 91.500002,84.500005 H 4.4999972 V 17.499999 H 91.500002 Z"
     id="rect6741-1-8"
     style="fill:none;stroke:url(#linearGradient3166);stroke-width:0.999998;stroke-linecap:round;stroke-linejoin:miter;stroke-miterlimit:4;stroke-dasharray:none;stroke-dashoffset:0;stroke-opacity:1" />
  <path
     d="m 3.4999989,16.499997 c 20.3944001,0 88.9999051,0.0048 88.9999051,0.0048 l 9.7e-5,68.99524 c 0,0 -59.333333,0 -89.0000021,0 0,-23.000055 0,-45.999884 0,-68.999675 z"
     id="path4160-6-1"
     style="display:inline;fill:none;stroke:url(#linearGradient3163);stroke-width:0.999993;stroke-linecap:butt;stroke-linejoin:round;stroke-miterlimit:4;stroke-dasharray:none;stroke-dashoffset:0;stroke-opacity:1;paint-order:normal" />
  <path
     d="m 17.067782,40.015989 c 0,7.560468 0,15.115423 0,22.675883 -0.270884,1.13632 0.289684,1.4608 1.332496,1.24594 2.95366,-0.1466 6.046828,0.42484 8.842928,-0.80986 3.570844,-1.54897 4.969622,-6.60993 2.543856,-9.78053 -0.38653,-1.563971 -4.339456,-2.040093 -2.967832,-2.927935 3.291434,-2.149736 2.948266,-7.784436 -0.545112,-9.531348 -2.891694,-1.329934 -6.135124,-0.730384 -9.206336,-0.87215 z m 2.301584,2.304968 c 1.59554,0.04552 3.216736,-0.12836 4.784872,0.249184 2.313506,0.373614 3.247094,3.325504 2.059312,5.232898 -1.38597,2.46893 -4.450018,2.16054 -6.844184,2.180374 0,-2.553178 0,-5.10928 0,-7.662456 z m 0,10.092015 c 2.221276,0.0557 4.57589,-0.1896 6.66248,0.74756 2.725726,1.06597 3.434142,5.07621 1.21136,7.03949 -2.171416,1.9473 -5.220568,1.22714 -7.87384,1.37052 0,-3.05731 0,-6.10026 0,-9.15757 z M 35,64.035172 c 1.092482,-7.99086 2.184962,-15.981715 3.277442,-23.972571 0.813064,0.0355 0.843208,1.382124 1.32037,1.980146 2.811184,5.89669 5.622368,11.793385 8.433552,17.690065 3.094493,-6.55673 6.188983,-13.113471 9.283473,-19.670211 0.80155,0.03922 0.39504,1.526832 0.67828,2.187464 1.00229,7.2617 2.00459,14.523397 3.00688,21.785107 -0.71732,-0.1012 -1.76927,0.1964 -2.29184,-0.1368 -0.74671,-5.66913 -1.49342,-11.33826 -2.24012,-17.007379 -2.71814,5.714739 -5.43627,11.429479 -8.154405,17.144219 -0.956366,0.23944 -0.940854,-1.15123 -1.408538,-1.73144 -2.478618,-5.18105 -4.957236,-10.3621 -7.435852,-15.543153 -0.747488,5.758193 -1.494976,11.516393 -2.242462,17.274593 -0.74226,0 -1.48452,0 -2.22678,0 z M 66.999997,40.081519 c 0,7.936216 0,15.885683 0,23.821893 0.4792,0.33188 1.52162,0.0256 2.21881,0.1248 0,-3.02181 0,-6.08289 0,-9.1047 0.20098,-0.63105 -0.42733,-2.1675 0.46712,-2.05792 3.18508,-0.14908 6.77952,0.52084 9.45913,-1.746103 3.1858,-2.887532 2.1155,-9.347784 -2.04364,-10.539004 -3.30925,-0.81416 -6.73028,-0.397842 -10.10142,-0.498886 z m 2.21881,2.307356 c 2.31273,0.07252 4.67616,-0.224036 6.94837,0.311806 2.93234,0.83967 3.41386,5.667716 0.75907,7.171512 -2.4036,1.140286 -5.15333,0.58671 -7.70744,0.68597 0,-2.71319 0,-5.456096 0,-8.169288 z"
     id="path20306"
     style="font-style:normal;font-variant:normal;font-weight:normal;font-stretch:normal;font-size:16.707px;font-family:'Century Gothic';-inkscape-font-specification:'Century Gothic';fill:#ffffff;fill-opacity:1;stroke:none;stroke-width:1" />
  <path
     d="m 17.067782,88.081792 c 0,-7.56048 0,-15.11542 0,-22.6759 -0.270884,-1.1363 0.289684,-1.4608 1.332496,-1.24592 2.95366,0.1466 6.046828,-0.42486 8.842928,0.80984 3.570844,1.54898 4.969622,6.60994 2.543856,9.78054 -0.38653,1.56396 -4.339456,2.0401 -2.967832,2.92794 3.291434,2.14972 2.948266,7.78444 -0.545112,9.53134 -2.891694,1.32994 -6.135124,0.73038 -9.206336,0.87216 z m 2.301584,-2.30498 c 1.59554,-0.0456 3.216736,0.1284 4.784872,-0.24918 2.313506,-0.37362 3.247094,-3.3255 2.059312,-5.2329 -1.38597,-2.46892 -4.450018,-2.16054 -6.844184,-2.18038 0,2.55318 0,5.10928 0,7.66246 z m 0,-10.09202 c 2.221276,-0.0558 4.57589,0.1896 6.66248,-0.74754 2.725726,-1.06598 3.434142,-5.07622 1.21136,-7.0395 -2.171416,-1.9473 -5.220568,-1.22714 -7.87384,-1.37052 0,3.05732 0,6.10026 0,9.15756 z M 35,64.062612 c 1.092482,7.99084 2.184962,15.9817 3.277442,23.97256 0.813064,-0.0356 0.843208,-1.38212 1.32037,-1.98014 2.811184,-5.8967 5.622368,-11.79338 8.433552,-17.69008 3.094493,6.55674 6.188983,13.11348 9.283473,19.67022 0.80155,-0.0392 0.39504,-1.52684 0.67828,-2.18746 1.00229,-7.2617 2.00459,-14.5234 3.00688,-21.7851 -0.71732,0.1012 -1.76927,-0.1962 -2.29184,0.1368 -0.74671,5.66912 -1.49342,11.33824 -2.24012,17.00736 -2.71814,-5.71472 -5.43627,-11.42948 -8.154405,-17.1442 -0.956366,-0.23944 -0.940854,1.15122 -1.408538,1.73142 -2.478618,5.18106 -4.957236,10.36212 -7.435852,15.54316 -0.747488,-5.7582 -1.494976,-11.5164 -2.242462,-17.27458 -0.74226,0 -1.48452,0 -2.22678,0 z m 31.999997,23.95364 c 0,-7.93622 0,-15.88568 0,-23.82188 0.4792,-0.33188 1.52162,-0.0256 2.21881,-0.1248 0,3.0218 0,6.08288 0,9.1047 0.20098,0.63104 -0.42733,2.16748 0.46712,2.0579 3.18508,0.149 6.77952,-0.52084 9.45913,1.74612 3.1858,2.88752 2.1155,9.34778 -2.04364,10.539 -3.30925,0.81416 -6.73028,0.39784 -10.10142,0.49888 z m 2.21881,-2.30736 c 2.31273,-0.0726 4.67616,0.22404 6.94837,-0.3118 2.93234,-0.83968 3.41386,-5.66772 0.75907,-7.17152 -2.4036,-1.14028 -5.15333,-0.5867 -7.70744,-0.68596 0,2.71318 0,5.4561 0,8.16928 z"
     id="path20311"
     style="font-style:normal;font-variant:normal;font-weight:normal;font-stretch:normal;font-size:16.707px;font-family:'Century Gothic';-inkscape-font-specification:'Century Gothic';opacity:0.15;fill:url(#linearGradient20332);fill-opacity:1;stroke:none;stroke-width:1" />
</svg>
