<?xml version="1.0" encoding="UTF-8" standalone="no"?>
<svg
   id="svg3901"
   height="96"
   width="96"
   version="1.1"
   sodipodi:docname="text-x-gettext-translation-template.svg"
   inkscape:version="1.1.2 (0a00cf5339, 2022-02-04)"
   xmlns:inkscape="http://www.inkscape.org/namespaces/inkscape"
   xmlns:sodipodi="http://sodipodi.sourceforge.net/DTD/sodipodi-0.dtd"
   xmlns:xlink="http://www.w3.org/1999/xlink"
   xmlns="http://www.w3.org/2000/svg"
   xmlns:svg="http://www.w3.org/2000/svg"
   xmlns:rdf="http://www.w3.org/1999/02/22-rdf-syntax-ns#"
   xmlns:cc="http://creativecommons.org/ns#">
  <sodipodi:namedview
     id="namedview41"
     pagecolor="#ffffff"
     bordercolor="#666666"
     borderopacity="1.0"
     inkscape:pageshadow="2"
     inkscape:pageopacity="0.0"
     inkscape:pagecheckerboard="0"
     showgrid="false"
     inkscape:zoom="5.0234043"
     inkscape:cx="53.350275"
     inkscape:cy="73.555696"
     inkscape:window-width="1396"
     inkscape:window-height="896"
     inkscape:window-x="522"
     inkscape:window-y="132"
     inkscape:window-maximized="0"
     inkscape:current-layer="svg3901" />
  <defs
     id="defs3903">
    <linearGradient
       id="linearGradient3403">
      <stop
         id="stop3405"
         style="stop-color:#ffffff;stop-opacity:1"
         offset="0" />
      <stop
         id="stop3407"
         style="stop-color:#ffffff;stop-opacity:0.23529412"
         offset="0.00541497" />
      <stop
         id="stop3409"
         style="stop-color:#ffffff;stop-opacity:0.15686275"
         offset="1" />
      <stop
         id="stop3411"
         style="stop-color:#ffffff;stop-opacity:0.39215687"
         offset="1" />
    </linearGradient>
    <linearGradient
       id="linearGradient3600">
      <stop
         offset="0"
         style="stop-color:#f4f4f4;stop-opacity:1"
         id="stop3602" />
      <stop
         offset="1"
         style="stop-color:#dbdbdb;stop-opacity:1"
         id="stop3604" />
    </linearGradient>
    <linearGradient
       id="linearGradient5060">
      <stop
         offset="0"
         style="stop-color:#000000;stop-opacity:1"
         id="stop5062" />
      <stop
         offset="1"
         style="stop-color:#000000;stop-opacity:0"
         id="stop5064" />
    </linearGradient>
    <linearGradient
       id="linearGradient5048">
      <stop
         offset="0"
         style="stop-color:#000000;stop-opacity:0"
         id="stop5050" />
      <stop
         offset="0.5"
         style="stop-color:#000000;stop-opacity:1"
         id="stop5056" />
      <stop
         offset="1"
         style="stop-color:#000000;stop-opacity:0"
         id="stop5052" />
    </linearGradient>
    <linearGradient
       id="linearGradient3104-6">
      <stop
         id="stop3106-3"
         style="stop-color:#000000;stop-opacity:0.31782946"
         offset="0" />
      <stop
         id="stop3108-9"
         style="stop-color:#000000;stop-opacity:0.24031007"
         offset="1" />
    </linearGradient>
    <linearGradient
       y2="42.273762"
       x2="23.99999"
       y1="5.6275582"
       x1="23.99999"
       gradientTransform="matrix(1.8648648,0,0,2.3513513,3.2432558,-11.432408)"
       gradientUnits="userSpaceOnUse"
       id="linearGradient3106"
       xlink:href="#linearGradient3403" />
    <linearGradient
       y2="47.013336"
       x2="25.132275"
       y1="0.98520643"
       x1="25.132275"
       gradientTransform="matrix(1.9999954,0,0,1.9120955,1.0813194e-4,-3.8236272)"
       gradientUnits="userSpaceOnUse"
       id="linearGradient3109"
       xlink:href="#linearGradient3600" />
    <linearGradient
       y2="2.9062471"
       x2="-51.786404"
       y1="50.786446"
       x1="-51.786404"
       gradientTransform="matrix(1.6380632,0,0,1.8097673,119.83211,-6.5336729)"
       gradientUnits="userSpaceOnUse"
       id="linearGradient3170"
       xlink:href="#linearGradient3104-6" />
    <linearGradient
       gradientTransform="matrix(0.13730769,0,0,0.02882352,-1.626924,75.431978)"
       gradientUnits="userSpaceOnUse"
       xlink:href="#linearGradient5048"
       id="linearGradient3842"
       y2="609.50507"
       x2="302.85715"
       y1="366.64789"
       x1="302.85715" />
    <radialGradient
       gradientTransform="matrix(-0.04698948,0,0,0.02882352,43.168704,75.431978)"
       gradientUnits="userSpaceOnUse"
       xlink:href="#linearGradient5060"
       id="radialGradient3156"
       fy="486.64789"
       fx="605.71429"
       r="117.14286"
       cy="486.64789"
       cx="605.71429" />
    <radialGradient
       gradientTransform="matrix(0.04698949,0,0,0.02882352,52.831289,75.431978)"
       gradientUnits="userSpaceOnUse"
       xlink:href="#linearGradient5060"
       id="radialGradient3153"
       fy="486.64789"
       fx="605.71429"
       r="117.14286"
       cy="486.64789"
       cx="605.71429" />
    <linearGradient
       xlink:href="#linearGradient1106"
       id="linearGradient1108-3"
       x1="21.073494"
       y1="46.197311"
       x2="21.073494"
       y2="1.4174461"
       gradientUnits="userSpaceOnUse"
       gradientTransform="matrix(1.4,0,0,1.4,1.6,3.6000015)" />
    <linearGradient
       id="linearGradient1106">
      <stop
         style="stop-color:#abacae;stop-opacity:1;"
         offset="0"
         id="stop1102-6" />
      <stop
         style="stop-color:#d4d4d4;stop-opacity:1"
         offset="1"
         id="stop1104-7" />
    </linearGradient>
    <linearGradient
       xlink:href="#linearGradient890"
       id="linearGradient917"
       gradientUnits="userSpaceOnUse"
       x1="29.943974"
       y1="0.5753113"
       x2="29.943974"
       y2="34.108799"
       gradientTransform="matrix(1.4,0,0,1.4,4.800002,0.40006953)" />
    <linearGradient
       id="linearGradient890">
      <stop
         style="stop-color:#64baff;stop-opacity:1"
         offset="0"
         id="stop886" />
      <stop
         style="stop-color:#3689e6;stop-opacity:1"
         offset="1"
         id="stop888" />
    </linearGradient>
    <radialGradient
       r="3.5"
       fy="39.464806"
       fx="7"
       cy="39.464806"
       cx="7"
       gradientTransform="matrix(0,-0.89962666,0.93506368,0,-81.62938,-32.204086)"
       gradientUnits="userSpaceOnUse"
       id="radialGradient3159-2"
       xlink:href="#linearGradient5060" />
    <radialGradient
       r="3.5"
       fy="39.464806"
       fx="7"
       cy="39.464806"
       cx="7"
       gradientTransform="matrix(0,-0.89962666,0.93506368,0,-33.629364,44.798864)"
       gradientUnits="userSpaceOnUse"
       id="radialGradient3157-51"
       xlink:href="#linearGradient5060" />
    <linearGradient
       gradientTransform="matrix(1.0133332,0,0,0.89962576,-0.0436346,3.8658836)"
       y2="42.040661"
       x2="18.142136"
       y1="35"
       x1="18.142136"
       gradientUnits="userSpaceOnUse"
       id="linearGradient3161-7"
       xlink:href="#linearGradient5048" />
    <linearGradient
       xlink:href="#linearGradient3412"
       id="linearGradient3058"
       gradientUnits="userSpaceOnUse"
       gradientTransform="matrix(0,4.0756442,-3.9997237,0,232.38511,-91.829374)"
       x1="30.739399"
       y1="35.285313"
       x2="45.902721"
       y2="50.73642" />
    <linearGradient
       id="linearGradient3412">
      <stop
         id="stop3414"
         style="stop-color:#f0f0f1;stop-opacity:1"
         offset="0" />
      <stop
         id="stop3416"
         style="stop-color:#cbcdd9;stop-opacity:1"
         offset="1" />
    </linearGradient>
    <linearGradient
       y2="127.03607"
       x2="75.779678"
       y1="86"
       x1="75.779678"
       gradientTransform="matrix(-1.5533129,0,0,1.5611141,180.36874,-102.42017)"
       gradientUnits="userSpaceOnUse"
       id="linearGradient3133"
       xlink:href="#linearGradient6240" />
    <linearGradient
       id="linearGradient6240">
      <stop
         id="stop6242"
         style="stop-color:#ffffff;stop-opacity:1"
         offset="0" />
      <stop
         id="stop6244"
         style="stop-color:#ffffff;stop-opacity:0"
         offset="1" />
    </linearGradient>
  </defs>
  <metadata
     id="metadata3906">
    <rdf:RDF>
      <cc:Work
         rdf:about="" />
    </rdf:RDF>
  </metadata>
  <rect
     width="66.299995"
     height="7"
     x="14.849998"
     y="86"
     id="rect2879-2"
     style="display:inline;overflow:visible;visibility:visible;opacity:0.15;fill:url(#linearGradient3842);fill-opacity:1;fill-rule:nonzero;stroke:none;stroke-width:1;marker:none" />
  <path
     d="m 14.85,86.000298 c 0,0 0,6.999581 0,6.999581 -2.419842,0.014 -5.85,-1.56828 -5.85,-3.50028 0,-1.932 2.700361,-3.499301 5.85,-3.499301 z"
     id="path2881-9"
     style="display:inline;overflow:visible;visibility:visible;opacity:0.15;fill:url(#radialGradient3156);fill-opacity:1;fill-rule:nonzero;stroke:none;stroke-width:1;marker:none" />
  <path
     d="m 81.149999,86.000298 c 0,0 0,6.999581 0,6.999581 C 83.56984,93.013879 87,91.431599 87,89.499599 c 0,-1.932 -2.700361,-3.499301 -5.850001,-3.499301 z"
     id="path2883-1"
     style="display:inline;overflow:visible;visibility:visible;opacity:0.15;fill:url(#radialGradient3153);fill-opacity:1;fill-rule:nonzero;stroke:none;stroke-width:1;marker:none" />
  <path
     d="m 13,0.99999999 h 69.999918 l 8.5e-5,87.99999901 H 13 Z"
     id="path4160"
     style="display:inline;fill:url(#linearGradient3109);fill-opacity:1;stroke:none;stroke-width:0.999997"
     sodipodi:nodetypes="ccccc" />
  <path
     d="M 82.499999,88.499999 H 13.500001 V 1.5 h 68.999998 z"
     id="rect6741-1"
     style="fill:none;stroke:url(#linearGradient3106);stroke-width:1;stroke-linecap:round;stroke-linejoin:round;stroke-miterlimit:4;stroke-dasharray:none;stroke-dashoffset:0;stroke-opacity:1" />
  <path
     d="M 12.499959,0.4999623 83.499966,0.5 l 7.5e-5,89.000043 H 12.499959 Z"
     id="path4160-6-1"
     style="display:inline;fill:none;stroke:url(#linearGradient3170);stroke-width:0.999922;stroke-linecap:butt;stroke-linejoin:round;stroke-miterlimit:4;stroke-dasharray:none;stroke-dashoffset:0;stroke-opacity:1"
     sodipodi:nodetypes="ccccc" />
  <path
     id="rect1016"
     d="m 26.8,40 h 22.4 c 1.551198,0 2.8,1.2488 2.8,2.799998 v 22.4 C 52,66.751198 50.751198,68 49.2,68 H 26.8 C 25.248802,68 24,66.7512 24,65.199998 v -22.4 C 24,41.2488 25.248802,40 26.8,40 Z"
     style="font-variation-settings:normal;vector-effect:none;fill:url(#linearGradient1108-3);fill-opacity:1;stroke:none;stroke-width:1;stroke-linecap:butt;stroke-linejoin:round;stroke-miterlimit:4;stroke-dasharray:none;stroke-dashoffset:0;stroke-opacity:1;marker:none" />
  <path
     style="font-style:normal;font-variant:normal;font-weight:bold;font-stretch:normal;font-size:16px;line-height:1.25;font-family:'Open Sans';-inkscape-font-specification:'Open Sans Bold';font-variation-settings:normal;letter-spacing:0px;word-spacing:0px;vector-effect:none;fill:#555761;fill-opacity:1;stroke:none;stroke-width:1;stroke-linecap:butt;stroke-linejoin:round;stroke-miterlimit:4;stroke-dasharray:none;stroke-dashoffset:0;stroke-opacity:1;marker:none"
     d="m 34.874556,44.149872 a 0.4414296,0.4438105 0 0 0 -0.425512,0.40836 c -0.0062,0.07462 -0.02958,0.293566 -0.06632,0.633374 -0.06606,0.539154 -0.1176,0.999842 -0.15474,1.380644 a 0.4414296,0.4438105 0 0 0 0,0.0028 l -0.0663,0.711158 a 0.4414296,0.4438105 0 0 0 0,0.0028 l -0.011,0.11112 c -0.711008,0.0427 -1.436168,0.07222 -2.202154,0.07222 -0.59342,0 -1.195528,-0.0202 -1.804276,-0.0639 a 0.4414296,0.4438105 0 0 0 -0.46972,0.480588 l 0.14368,1.588992 a 0.4414296,0.4438105 0 0 0 0.411694,0.402806 c 0.251222,0.0158 0.574796,0.025 0.978122,0.025 0.877812,0 1.810234,-0.04956 2.760292,-0.11392 -0.0778,1.01722 -0.1377,1.965038 -0.16026,2.791848 -0.632556,0.35483 -1.195608,0.69 -1.59981,0.986176 a 0.4414296,0.4438105 0 0 0 -0.0054,0.0028 c -2.346802,1.77914 -3.591972,3.856916 -3.591972,6.155954 0,0.852138 0.18098,1.558472 0.610634,2.064024 0.42966,0.505552 1.086364,0.74727 1.842958,0.74727 1.042638,0 2.121346,-0.427572 3.221724,-1.102848 0.05274,0.327586 0.12356,0.762806 0.14644,0.891724 a 0.4414296,0.4438105 0 0 0 0.58853,0.33891 l 1.635728,-0.611152 a 0.4414296,0.4438105 0 0 0 0.270782,-0.530588 c -0.16908,-0.64076 -0.27185,-1.255788 -0.339858,-1.855676 1.785934,-1.73913 3.22648,-3.913776 4.354574,-6.47542 0.767084,0.12082 1.431204,0.329612 1.96177,0.655598 a 0.4414296,0.4438105 0 0 0 0.0028,0.0028 c 1.206414,0.729114 1.751776,1.68693 1.751776,3.052978 0,1.32332 -0.592636,2.32773 -1.914796,3.158536 -1.034496,0.654354 -2.45817,1.0938 -4.27721,1.288974 A 0.4414296,0.4438105 0 0 0 38.143454,62.0372 l 0.972596,1.511208 a 0.4414296,0.4438105 0 0 0 0.431036,0.19724 c 2.178534,-0.310732 3.927754,-0.93521 5.230464,-1.905678 1.659598,-1.237702 2.533722,-2.919612 2.533722,-4.91143 0,-1.811384 -0.731126,-3.345292 -2.133078,-4.469734 a 0.4414296,0.4438105 0 0 0 -0.0054,-0.0028 c -0.886104,-0.691324 -2.066582,-1.108332 -3.442766,-1.347308 0.08156,-0.248914 0.18446,-0.540254 0.221046,-0.708378 A 0.4414296,0.4438105 0 0 0 41.619506,49.872506 L 39.95062,49.483594 a 0.4414296,0.4438105 0 0 0 -0.527742,0.32502 c -0.11946,0.47437 -0.225464,0.842254 -0.328804,1.188966 -1.00646,0.10886 -1.907352,0.294468 -2.7299,0.538924 0.02882,-0.683038 0.06602,-1.342628 0.12434,-1.950128 2.31755,-0.25421 4.485198,-0.623766 6.476602,-1.12785 A 0.4414296,0.4438105 0 0 0 43.29662,47.978078 L 43.11966,46.411454 A 0.4414296,0.4438105 0 0 0 42.564294,46.03365 c -1.94584,0.535984 -3.891566,0.900428 -5.835574,1.136188 0.07914,-0.741538 0.16334,-1.505952 0.276306,-2.40849 a 0.4414296,0.4438105 0 0 0 -0.408932,-0.497254 l -1.679936,-0.11112 a 0.4414296,0.4438105 0 0 0 -0.04146,-0.0028 z m 3.224484,9.228378 c -0.51478,1.07502 -1.108226,2.04763 -1.773882,2.927966 -0.02724,-0.728084 -0.05468,-1.437246 -0.05804,-2.430714 0.583966,-0.224766 1.207406,-0.361698 1.831908,-0.497252 z m -4.288262,1.939012 c 0.02956,1.312828 0.07178,2.539882 0.15196,3.46967 -0.970678,0.85506 -1.844762,1.275082 -2.600032,1.275082 -0.13506,0 -0.14902,-0.02068 -0.16026,-0.03334 -0.0112,-0.0126 -0.04974,-0.07724 -0.04974,-0.255572 0,-0.09624 -0.0182,-0.18828 -0.03594,-0.280574 0.0112,-0.07156 0.03594,-0.14676 0.03594,-0.21946 l -0.0028,0.03334 c 0.07768,-1.008754 0.643322,-2.090976 1.776646,-3.244654 a 0.4414296,0.4438105 0 0 0 0.0054,-0.0056 c 0.30994,-0.328228 0.58816,-0.506106 0.878652,-0.738936 z"
     id="path1033" />
  <path
     id="path4"
     d="M 46.8,20 C 45.248802,20 44,21.248802 44,22.8 V 45.199998 C 44,46.751198 45.248802,48 46.8,48 H 69.2 C 70.7512,48 72,46.7512 72,45.199998 V 22.8 C 72,21.248802 70.7512,20 69.2,20 Z"
     style="color:#000000;font-variation-settings:normal;vector-effect:none;fill:url(#linearGradient917);fill-opacity:1;stroke:none;stroke-width:1;stroke-linecap:butt;stroke-linejoin:round;stroke-miterlimit:4;stroke-dasharray:none;stroke-dashoffset:0;stroke-opacity:1;marker:none" />
  <path
     id="path1020"
     d="m 56.582032,26 -5.960938,16 h 2.74479 l 1.653646,-5 h 5.91146 l 1.67448,5 h 2.773436 L 59.415364,26 Z M 57.998698,28.640624 60.384114,35 h -4.817708 z"
     style="color:#000000;font-variation-settings:normal;vector-effect:none;fill:#ffffff;fill-opacity:1;stroke:none;stroke-width:1;stroke-linecap:butt;stroke-linejoin:round;stroke-miterlimit:4;stroke-dasharray:none;stroke-dashoffset:0;stroke-opacity:1;marker:none"
     sodipodi:nodetypes="ccccccccccccc" />
  <g
     transform="matrix(-1.4166672,0,0,0.63518455,94.000026,69.544436)"
     id="g22150"
     style="opacity:0.2;stroke-width:1.70639">
    <rect
       width="3.2727261"
       height="6.2973804"
       x="-48"
       y="-41.650166"
       transform="scale(-1)"
       id="rect22134"
       style="fill:url(#radialGradient3159-2);fill-opacity:1;stroke:none;stroke-width:1.70639" />
    <rect
       width="3.2727261"
       height="6.2973804"
       x="1.6387316e-05"
       y="35.352787"
       id="rect22120"
       style="fill:url(#radialGradient3157-51);fill-opacity:1;stroke:none;stroke-width:1.70639" />
    <rect
       width="41.454529"
       height="6.2973785"
       x="3.2727439"
       y="35.352787"
       id="rect22138"
       style="fill:url(#linearGradient3161-7);fill-opacity:1;stroke:none;stroke-width:1.70639" />
  </g>
  <path
     d="m 90.499942,34.207106 -60.292839,60.29303 h 60.292839 z m -12.058563,28.13663 v 20.2163 H 58.092538 Z"
     id="path2993"
     style="display:inline;overflow:visible;visibility:visible;opacity:0.8;fill:url(#linearGradient3058);fill-opacity:1;fill-rule:evenodd;stroke:#83899a;stroke-width:0.999997px;stroke-linecap:butt;stroke-linejoin:miter;stroke-miterlimit:4;stroke-dasharray:none;stroke-dashoffset:0;stroke-opacity:1;marker:none;enable-background:accumulate" />
  <path
     d="m 82.500003,93.499936 v -1.9999"
     id="path3101"
     style="opacity:0.3;fill:none;stroke:#ffffff;stroke-width:1px;stroke-linecap:round;stroke-linejoin:miter;stroke-opacity:1" />
  <path
     d="m 73.500003,93.499936 v -1.9999"
     id="path3103"
     style="opacity:0.3;fill:none;stroke:#ffffff;stroke-width:1px;stroke-linecap:round;stroke-linejoin:miter;stroke-opacity:1" />
  <path
     d="m 64.500003,93.499936 v -1.9999"
     id="path3105"
     style="opacity:0.3;fill:none;stroke:#ffffff;stroke-width:1px;stroke-linecap:round;stroke-linejoin:miter;stroke-opacity:1" />
  <path
     d="m 55.500003,93.499936 v -1.9999"
     id="path3107"
     style="opacity:0.3;fill:none;stroke:#ffffff;stroke-width:1px;stroke-linecap:round;stroke-linejoin:miter;stroke-opacity:1" />
  <path
     d="m 46.500003,93.499936 v -1.9999"
     id="path3109"
     style="opacity:0.3;fill:none;stroke:#ffffff;stroke-width:1px;stroke-linecap:round;stroke-linejoin:miter;stroke-opacity:1" />
  <path
     d="m 81.499899,94.500036 v -3 m -8.999997,3 v -3 m -8.999997,3 v -2.9643 m -8.999997,2.9643 v -3 m -8.999997,3 v -3"
     id="path3091"
     style="opacity:0.75;fill:none;stroke:#83899a;stroke-width:1px;stroke-linecap:round;stroke-linejoin:miter;stroke-opacity:1" />
  <path
     d="m 89.500002,36.707206 v 56.79273 H 32.706998 Z M 79.44926,59.785536 55.779206,83.537636 H 79.44926 Z"
     id="path3934"
     style="display:inline;overflow:visible;visibility:visible;opacity:0.5;fill:none;stroke:url(#linearGradient3133);stroke-width:0.999995px;stroke-linecap:butt;stroke-linejoin:miter;stroke-miterlimit:4;stroke-dasharray:none;stroke-dashoffset:0;stroke-opacity:1;marker:none;enable-background:accumulate"
     sodipodi:nodetypes="cccccccc" />
  <path
     d="M 89.500286,49.500036 H 87.500385"
     id="path3101-7"
     style="opacity:0.3;fill:none;stroke:#ffffff;stroke-width:1px;stroke-linecap:round;stroke-linejoin:miter;stroke-opacity:1" />
  <path
     d="M 89.500286,58.500036 H 87.500385"
     id="path3103-5"
     style="opacity:0.3;fill:none;stroke:#ffffff;stroke-width:1px;stroke-linecap:round;stroke-linejoin:miter;stroke-opacity:1" />
  <path
     d="M 89.500286,67.500036 H 87.500385"
     id="path3105-3"
     style="opacity:0.3;fill:none;stroke:#ffffff;stroke-width:1px;stroke-linecap:round;stroke-linejoin:miter;stroke-opacity:1" />
  <path
     d="M 89.500286,76.500036 H 87.500385"
     id="path3107-5"
     style="opacity:0.3;fill:none;stroke:#ffffff;stroke-width:1px;stroke-linecap:round;stroke-linejoin:miter;stroke-opacity:1" />
  <path
     d="M 89.500286,85.500036 H 87.500385"
     id="path3109-6"
     style="opacity:0.3;fill:none;stroke:#ffffff;stroke-width:1px;stroke-linecap:round;stroke-linejoin:miter;stroke-opacity:1" />
  <path
     d="m 90.500003,50.500036 h -3 m 3,9 h -3 m 3,8.9999 h -2.964346 m 2.964346,9 h -3 m 3,9 h -3"
     id="path3091-2"
     style="opacity:0.75;fill:none;stroke:#83899a;stroke-width:1px;stroke-linecap:round;stroke-linejoin:miter;stroke-opacity:1" />
</svg>
