<?xml version="1.0" encoding="UTF-8" standalone="no"?>
<svg
   xmlns:dc="http://purl.org/dc/elements/1.1/"
   xmlns:cc="http://creativecommons.org/ns#"
   xmlns:rdf="http://www.w3.org/1999/02/22-rdf-syntax-ns#"
   xmlns:svg="http://www.w3.org/2000/svg"
   xmlns="http://www.w3.org/2000/svg"
   xmlns:xlink="http://www.w3.org/1999/xlink"
   width="96"
   height="96"
   id="svg4017"
   version="1.1"
   viewBox="0 0 96 96">
  <defs
     id="defs4019">
    <radialGradient
       xlink:href="#linearGradient5060"
       id="radialGradient3153"
       gradientUnits="userSpaceOnUse"
       gradientTransform="matrix(0.03128083,0,0,0.02053005,64.045118,1036.6837)"
       cx="605.71429"
       cy="486.64789"
       fx="605.71429"
       fy="486.64789"
       r="117.14286" />
    <linearGradient
       id="linearGradient5060">
      <stop
         id="stop5062"
         style="stop-color:#000000;stop-opacity:1"
         offset="0" />
      <stop
         id="stop5064"
         style="stop-color:#000000;stop-opacity:0"
         offset="1" />
    </linearGradient>
    <radialGradient
       xlink:href="#linearGradient5060"
       id="radialGradient3156"
       gradientUnits="userSpaceOnUse"
       gradientTransform="matrix(-0.03128083,0,0,0.02053005,31.850121,1036.6837)"
       cx="605.71429"
       cy="486.64789"
       fx="605.71429"
       fy="486.64789"
       r="117.14286" />
    <linearGradient
       id="linearGradient5048">
      <stop
         id="stop5050"
         style="stop-color:#000000;stop-opacity:0"
         offset="0" />
      <stop
         id="stop5056"
         style="stop-color:#000000;stop-opacity:1"
         offset="0.5" />
      <stop
         id="stop5052"
         style="stop-color:#000000;stop-opacity:0"
         offset="1" />
    </linearGradient>
    <linearGradient
       y2="609.50507"
       x2="302.85715"
       y1="366.64789"
       x1="302.85715"
       gradientTransform="matrix(0.14476034,0,0,0.02053005,-4.3728904,1036.6837)"
       gradientUnits="userSpaceOnUse"
       id="linearGradient4015"
       xlink:href="#linearGradient5048" />
    <linearGradient
       id="linearGradient3104">
      <stop
         offset="0"
         style="stop-color:#a0a0a0;stop-opacity:1;"
         id="stop3106" />
      <stop
         offset="1"
         style="stop-color:#bebebe;stop-opacity:1;"
         id="stop3108" />
    </linearGradient>
    <linearGradient
       id="linearGradient3600-9">
      <stop
         offset="0"
         style="stop-color:#f4f4f4;stop-opacity:1"
         id="stop3602-3" />
      <stop
         offset="1"
         style="stop-color:#dbdbdb;stop-opacity:1"
         id="stop3604-7" />
    </linearGradient>
    <linearGradient
       id="linearGradient3977-4">
      <stop
         id="stop3979-7"
         style="stop-color:#ffffff;stop-opacity:1;"
         offset="0" />
      <stop
         offset="0.03626217"
         style="stop-color:#ffffff;stop-opacity:0.23529412;"
         id="stop3981-6" />
      <stop
         id="stop3983-5"
         style="stop-color:#ffffff;stop-opacity:0.15686275;"
         offset="0.95056331" />
      <stop
         id="stop3985-6"
         style="stop-color:#ffffff;stop-opacity:0.39215687;"
         offset="1" />
    </linearGradient>
    <linearGradient
       xlink:href="#linearGradient3977-4"
       id="linearGradient3093"
       gradientUnits="userSpaceOnUse"
       gradientTransform="matrix(1.8648644,0,0,2.3513558,3.2432571,945.92985)"
       x1="23.99999"
       y1="5.5641499"
       x2="23.99999"
       y2="43" />
    <linearGradient
       xlink:href="#linearGradient3600-9"
       id="linearGradient3096"
       gradientUnits="userSpaceOnUse"
       gradientTransform="matrix(2.0285668,0,0,1.9337922,-0.68560448,952.98382)"
       x1="25.132275"
       y1="0.98520643"
       x2="25.132275"
       y2="47.013336" />
    <linearGradient
       xlink:href="#linearGradient3104"
       id="linearGradient3098"
       gradientUnits="userSpaceOnUse"
       gradientTransform="matrix(1.6380614,0,0,1.8097403,119.8319,950.82863)"
       x1="-51.786404"
       y1="50.786446"
       x2="-51.786404"
       y2="2.9062471" />
    <linearGradient
       xlink:href="#linearGradient3104-5-2"
       id="linearGradient3027"
       gradientUnits="userSpaceOnUse"
       gradientTransform="matrix(1.5068494,0,0,1.5195207,-3.5175435,952.01595)"
       x1="22.004084"
       y1="47.813133"
       x2="22.004084"
       y2="3.3638515" />
    <linearGradient
       id="linearGradient3104-5-2">
      <stop
         id="stop3106-2-9"
         style="stop-color:#aaaaaa;stop-opacity:1"
         offset="0" />
      <stop
         id="stop3108-5-3"
         style="stop-color:#c8c8c8;stop-opacity:1"
         offset="1" />
    </linearGradient>
    <linearGradient
       xlink:href="#linearGradient3104-5-2"
       id="linearGradient4132"
       gradientUnits="userSpaceOnUse"
       gradientTransform="matrix(1.5068494,0,0,1.5195207,-3.5175435,952.01595)"
       x1="22.004084"
       y1="47.813133"
       x2="22.004084"
       y2="3.3638515" />
  </defs>
  <metadata
     id="metadata4022">
    <rdf:RDF>
      <cc:Work
         rdf:about="">
        <dc:format>image/svg+xml</dc:format>
        <dc:type
           rdf:resource="http://purl.org/dc/dcmitype/StillImage" />
        <dc:title />
      </cc:Work>
    </rdf:RDF>
  </metadata>
  <g
     id="layer1"
     transform="translate(0,-956.3622)">
    <g
       id="g4089"
       transform="matrix(1.0040259,0,0,1.0028296,-0.14065179,-2.8037029)">
      <rect
         width="69.89856"
         height="4.9858918"
         x="12.998364"
         y="1044.2112"
         id="rect2879"
         style="opacity:0.3;fill:url(#linearGradient4015);fill-opacity:1;fill-rule:nonzero;stroke:none;stroke-width:1;marker:none;visibility:visible;display:inline;overflow:visible" />
      <path
         d="m 12.998348,1044.2116 c 0,0 0,4.9853 0,4.9853 -1.610891,0.013 -3.894348,-1.1179 -3.894348,-2.4937 0,-1.3758 1.797632,-2.4916 3.894348,-2.4916 z"
         id="path2881"
         style="opacity:0.3;fill:url(#radialGradient3156);fill-opacity:1;fill-rule:nonzero;stroke:none;stroke-width:1;marker:none;visibility:visible;display:inline;overflow:visible" />
      <path
         d="m 82.896898,1044.2116 c 0,0 0,4.9853 0,4.9853 1.610888,0.013 3.894344,-1.1179 3.894344,-2.4937 0,-1.3758 -1.797625,-2.4916 -3.894344,-2.4916 z"
         id="path2883"
         style="opacity:0.3;fill:url(#radialGradient3153);fill-opacity:1;fill-rule:nonzero;stroke:none;stroke-width:1;marker:none;visibility:visible;display:inline;overflow:visible" />
    </g>
    <path
       style="fill:url(#linearGradient3096);fill-opacity:1;stroke:url(#linearGradient3098);stroke-width:1;stroke-linecap:butt;stroke-linejoin:round;stroke-miterlimit:4;stroke-opacity:1;stroke-dasharray:none;stroke-dashoffset:0;display:inline"
       id="path4160-6"
       d="m 12.5,957.86216 c 16.269706,0 70.999909,0.008 70.999909,0.008 l 9.3e-5,88.99204 c 0,0 -47.333343,0 -71.000002,0 0,-29.6655 0,-59.33148 0,-88.99771 z" />
    <path
       style="fill:none;stroke:url(#linearGradient3093);stroke-width:1;stroke-linecap:round;stroke-linejoin:miter;stroke-miterlimit:4;stroke-opacity:1;stroke-dasharray:none;stroke-dashoffset:0"
       d="m 82.499997,1045.8622 -68.999997,0 0,-86.99998 68.999997,0 z"
       id="rect6741-1-8" />
    <path
       style="fill:none;stroke:url(#linearGradient4132);stroke-width:0.99999994px;stroke-linecap:butt;stroke-linejoin:miter;stroke-opacity:1"
       id="path3475"
       d="m 20,970.8622 5,0 z m 6,0 5,0 z m 6,0 4,0 z m 5,0 1,0 z m 2,0 4,0 z m 5,0 11,0 z m 12,0 8,0 z m 9,0 2,0 z m -45,3 8,0 z m 9,0 4,0 z m 5,0 1,0 z m 2,0 4,0 z m 5,0 3,0 z m 4,0 5,0 z m 6,0 8,0 z m 9,0 4,0 z m 5,0 1,0 z m -45,3 7,0 z m 8,0 11,0 z m 12,0 5,0 z m 6,0 5,0 z m 6,0 4,0 z m 5,0 6,0.0236 z m 7,0.0236 11.000001,0 z m -44,2.9764 9,0 z m 10,0 10,0 z m 11,0 4,0 z m 5,0 9,0 z m 10,0 7,0 z m 8,0 2,0 z m 3,0 1,0 z m 2,0 4,0 z m -49,3 4,0 z m 5,0 13,0 z m -5,6.97645 7,0 z m 8,0 11,0 z m 12,0 5,0 z m 6,0 5,0 z m 6,0 4,0 z m 5,0 6,0.0471 z m 7,0.0471 11.000001,0 z m -44,2.97645 5,0 z m 6,0 5,0 z m 6,0 4,0 z m 5,0 1,0 z m 2,0 4,0 z m 5,0 11,0 z m 12,0 8,0 z m 9,0 2,0 z m 3,0 6,0 z m -48,3 8,0 z m 9,0 10,0 z m 11,0 3,0 z m 4,0 8,0 z m 9,0 11,0 z m 12,0 4,0 z m -45,3 9,0 z m 10,0 10,0 z m 11,0 4,0 z m 5,0 9,0 z m 10,0 7,0 z m 8,0 2,0 z m 3,0 1,0 z m 2,0 4,0 z m -49,3 8,0 z m 9,0 4,0 z m 5,0 1,0 z m 2,0 4,0 z m 5,0 3,0 z m 4,0 6,0 z m 7,0 7,0 z m 8,0 4,0 z m 5,0 1,0 z m -45,6 7,0 z m 8,0 11,0 z m 12,0 5,0 z m 6,0 5,0 z m 6,0 4,0 z m 5,0 6,0 z m 7,0 11.000001,0 z m -44,3 8,0 z m 9,0 4,0 z m 5,0 1,0 z m 2,0 4,0 z m 5,0 3,0 z m 4,0 5,0 z m 6,0 8,0 z m 9,0 4,0 z m 5,0 1,0 z m -45,3 9,0 z m 10,0 2,0 z m 3,0 6,0 z m 7,0 9,0 z m 10,0 5,0 z m 6,0 1,0 z m 2,0 8,0 z m 9,0 4,0 z m -47,3 8,0 z m 9,0 4,0 z m 5,0 6,0 z m 7,0 6,0 z m 7,0 2,0 z m 3,0 2,0 z m 3,0 4,0 z" />
    <path
       style="fill:none;stroke:url(#linearGradient3027);stroke-width:1;stroke-linecap:butt;stroke-linejoin:miter;stroke-miterlimit:4;stroke-opacity:1;stroke-dasharray:none"
       id="path3475-2"
       d="m 20,1022.8622 5,0 z m 5.942211,0 5.057789,0 z m 6.057789,0 4,0 z m 5,0 1,0 z m 2,0 4,0 z m 5,0 11,0 z m 12,0 8,0 z m 9,0 2,0 z m -45,2.9765 7,0 z m 8,0 11,0 z m 12,0 5,0 z m 6,0 4,0 z m 5,0 5,0 z m 6,0 6,0.047 z m 7,0.047 11.000001,0 z m -44,2.9765 9,0 z m 10,0 10,0 z m 11,0 4,0 z m 5,0 9,0 z m 10,0 7,0 z m 8,0 2,0 z m 3,0 1,0 z m 2,0 4,0 z m -49,3 3.523868,0 z m 4.629397,0 13.059044,0 z m -4.629397,0 8.706029,0 z m 9.396984,0 9.603016,0 z m 10.603016,0 3,0 z m 4,0 8,0 z m 9,0 11,0 z m 12,0 4,0 z" />
  </g>
</svg>
