<?xml version="1.0" encoding="UTF-8" standalone="no"?>
<!-- Created with Inkscape (http://www.inkscape.org/) -->

<svg
   xmlns:dc="http://purl.org/dc/elements/1.1/"
   xmlns:cc="http://creativecommons.org/ns#"
   xmlns:rdf="http://www.w3.org/1999/02/22-rdf-syntax-ns#"
   xmlns:svg="http://www.w3.org/2000/svg"
   xmlns="http://www.w3.org/2000/svg"
   xmlns:xlink="http://www.w3.org/1999/xlink"
   xmlns:sodipodi="http://sodipodi.sourceforge.net/DTD/sodipodi-0.dtd"
   xmlns:inkscape="http://www.inkscape.org/namespaces/inkscape"
   width="96"
   height="96"
   id="svg4132"
   version="1.1"
   inkscape:version="0.48+devel r"
   sodipodi:docname="text-x-lua_96.svg">
  <defs
     id="defs4134">
    <linearGradient
       inkscape:collect="always"
       id="linearGradient4271">
      <stop
         style="stop-color:#aaaaaa;stop-opacity:1"
         offset="0"
         id="stop4273" />
      <stop
         style="stop-color:#c8c8c8;stop-opacity:1"
         offset="1"
         id="stop4275" />
    </linearGradient>
    <linearGradient
       inkscape:collect="always"
       id="linearGradient4263">
      <stop
         style="stop-color:#aaaaaa;stop-opacity:1"
         offset="0"
         id="stop4265" />
      <stop
         style="stop-color:#c8c8c8;stop-opacity:1"
         offset="1"
         id="stop4267" />
    </linearGradient>
    <linearGradient
       inkscape:collect="always"
       id="linearGradient4255">
      <stop
         style="stop-color:#aaaaaa;stop-opacity:1"
         offset="0"
         id="stop4257" />
      <stop
         style="stop-color:#c8c8c8;stop-opacity:1"
         offset="1"
         id="stop4259" />
    </linearGradient>
    <linearGradient
       inkscape:collect="always"
       id="linearGradient4247">
      <stop
         style="stop-color:#aaaaaa;stop-opacity:1"
         offset="0"
         id="stop4249" />
      <stop
         style="stop-color:#c8c8c8;stop-opacity:1"
         offset="1"
         id="stop4251" />
    </linearGradient>
    <linearGradient
       inkscape:collect="always"
       id="linearGradient4239">
      <stop
         style="stop-color:#aaaaaa;stop-opacity:1"
         offset="0"
         id="stop4241" />
      <stop
         style="stop-color:#c8c8c8;stop-opacity:1"
         offset="1"
         id="stop4243" />
    </linearGradient>
    <linearGradient
       inkscape:collect="always"
       xlink:href="#linearGradient5031"
       id="linearGradient4061"
       gradientUnits="userSpaceOnUse"
       gradientTransform="matrix(1.3500413,0,0,2.9165228,9.1510907,-53.520344)"
       x1="22.104254"
       y1="40.124432"
       x2="22.104254"
       y2="10.035408" />
    <linearGradient
       id="linearGradient5031">
      <stop
         id="stop5033"
         style="stop-color:#a3a3a3;stop-opacity:1"
         offset="0" />
      <stop
         id="stop5035"
         style="stop-color:#bababa;stop-opacity:1"
         offset="1" />
    </linearGradient>
    <linearGradient
       inkscape:collect="always"
       xlink:href="#linearGradient3977-4"
       id="linearGradient3093"
       gradientUnits="userSpaceOnUse"
       gradientTransform="matrix(1.8648651,0,0,2.3513452,3.2432542,-42.432359)"
       x1="23.99999"
       y1="5.8641062"
       x2="23.99999"
       y2="42.100208" />
    <linearGradient
       id="linearGradient3977-4">
      <stop
         id="stop3979-7"
         style="stop-color:#ffffff;stop-opacity:1;"
         offset="0" />
      <stop
         offset="0.01214366"
         style="stop-color:#ffffff;stop-opacity:0.23529412;"
         id="stop3981-6" />
      <stop
         id="stop3983-5"
         style="stop-color:#ffffff;stop-opacity:0.15686275;"
         offset="0.98781353" />
      <stop
         id="stop3985-6"
         style="stop-color:#ffffff;stop-opacity:0.39215687;"
         offset="1" />
    </linearGradient>
    <linearGradient
       id="linearGradient3600-9">
      <stop
         offset="0"
         style="stop-color:#f4f4f4;stop-opacity:1"
         id="stop3602-3" />
      <stop
         offset="1"
         style="stop-color:#dbdbdb;stop-opacity:1"
         id="stop3604-7" />
    </linearGradient>
    <radialGradient
       inkscape:collect="always"
       xlink:href="#linearGradient5060"
       id="radialGradient3153"
       gradientUnits="userSpaceOnUse"
       gradientTransform="matrix(0.04731961,0,0,0.03108414,52.839231,43.354112)"
       cx="605.71429"
       cy="486.64789"
       fx="605.71429"
       fy="486.64789"
       r="117.14286" />
    <linearGradient
       id="linearGradient5060">
      <stop
         id="stop5062"
         style="stop-color:#000000;stop-opacity:1"
         offset="0" />
      <stop
         id="stop5064"
         style="stop-color:#000000;stop-opacity:0"
         offset="1" />
    </linearGradient>
    <radialGradient
       inkscape:collect="always"
       xlink:href="#linearGradient5060"
       id="radialGradient3156"
       gradientUnits="userSpaceOnUse"
       gradientTransform="matrix(-0.0473196,0,0,0.03108414,43.108761,43.354112)"
       cx="605.71429"
       cy="486.64789"
       fx="605.71429"
       fy="486.64789"
       r="117.14286" />
    <linearGradient
       id="linearGradient5048">
      <stop
         id="stop5050"
         style="stop-color:#000000;stop-opacity:0"
         offset="0" />
      <stop
         id="stop5056"
         style="stop-color:#000000;stop-opacity:1"
         offset="0.5" />
      <stop
         id="stop5052"
         style="stop-color:#000000;stop-opacity:0"
         offset="1" />
    </linearGradient>
    <linearGradient
       y2="609.50507"
       x2="302.85715"
       y1="366.64789"
       x1="302.85715"
       gradientTransform="matrix(0.13827238,0,0,0.03108414,-2.0015852,43.354112)"
       gradientUnits="userSpaceOnUse"
       id="linearGradient4130"
       xlink:href="#linearGradient5048"
       inkscape:collect="always" />
    <linearGradient
       inkscape:collect="always"
       xlink:href="#linearGradient3104"
       id="linearGradient3098"
       gradientUnits="userSpaceOnUse"
       gradientTransform="matrix(1.6380614,0,0,1.8097403,119.83189,-37.53361)"
       x1="-51.786404"
       y1="50.786446"
       x2="-51.786404"
       y2="2.9062471" />
    <linearGradient
       id="linearGradient3104">
      <stop
         offset="0"
         style="stop-color:#a0a0a0;stop-opacity:1;"
         id="stop3106" />
      <stop
         offset="1"
         style="stop-color:#bebebe;stop-opacity:1;"
         id="stop3108" />
    </linearGradient>
    <linearGradient
       inkscape:collect="always"
       xlink:href="#linearGradient3600-9"
       id="linearGradient4128"
       gradientUnits="userSpaceOnUse"
       gradientTransform="matrix(1.9852747,0,0,1.9027129,12.095794,-65.598214)"
       x1="15.063006"
       y1="17.132492"
       x2="15.063006"
       y2="63.90781" />
    <linearGradient
       inkscape:collect="always"
       xlink:href="#linearGradient4239"
       id="linearGradient4245"
       x1="42.294849"
       y1="61"
       x2="42.294849"
       y2="-28"
       gradientUnits="userSpaceOnUse" />
    <linearGradient
       inkscape:collect="always"
       xlink:href="#linearGradient4247"
       id="linearGradient4253"
       x1="49.294849"
       y1="61"
       x2="49.294849"
       y2="-29"
       gradientUnits="userSpaceOnUse" />
    <linearGradient
       inkscape:collect="always"
       xlink:href="#linearGradient4255"
       id="linearGradient4261"
       x1="39.294849"
       y1="61"
       x2="39.294849"
       y2="-29"
       gradientUnits="userSpaceOnUse" />
    <linearGradient
       inkscape:collect="always"
       xlink:href="#linearGradient4263"
       id="linearGradient4269"
       x1="40.294849"
       y1="61"
       x2="40.294849"
       y2="-28"
       gradientUnits="userSpaceOnUse" />
    <linearGradient
       inkscape:collect="always"
       xlink:href="#linearGradient4271"
       id="linearGradient4277"
       x1="38.294849"
       y1="61"
       x2="38.294849"
       y2="-28"
       gradientUnits="userSpaceOnUse" />
    <radialGradient
       inkscape:collect="always"
       xlink:href="#linearGradient4114-3-2"
       id="radialGradient3172-0"
       gradientUnits="userSpaceOnUse"
       gradientTransform="matrix(0.93427969,0,0,0.30813294,8.5678353,16.472532)"
       cx="15.115514"
       cy="63.965389"
       fx="15.115514"
       fy="63.965389"
       r="12.289036" />
    <linearGradient
       id="linearGradient4114-3-2">
      <stop
         id="stop4116-7-9"
         style="stop-color:#000000;stop-opacity:1"
         offset="0" />
      <stop
         id="stop4118-4-1"
         style="stop-color:#000000;stop-opacity:0"
         offset="1" />
    </linearGradient>
    <radialGradient
       inkscape:collect="always"
       xlink:href="#linearGradient4172"
       id="radialGradient4178"
       cx="20.138643"
       cy="12.122985"
       fx="20.138643"
       fy="12.122985"
       r="11"
       gradientUnits="userSpaceOnUse"
       gradientTransform="matrix(-0.91869629,0.7960495,-0.79514217,-0.9195167,56.012121,14.443161)" />
    <linearGradient
       inkscape:collect="always"
       id="linearGradient4172">
      <stop
         style="stop-color:#8282bf;stop-opacity:1"
         offset="0"
         id="stop4174" />
      <stop
         style="stop-color:#000080;stop-opacity:1"
         offset="1"
         id="stop4176" />
    </linearGradient>
    <linearGradient
       inkscape:collect="always"
       xlink:href="#linearGradient4156"
       id="linearGradient4162"
       x1="14.070047"
       y1="31.767511"
       x2="29.828938"
       y2="17.828428"
       gradientUnits="userSpaceOnUse"
       gradientTransform="matrix(1.0686034,0,0,1.0696902,-0.81931647,-2.4444913)" />
    <linearGradient
       inkscape:collect="always"
       id="linearGradient4156">
      <stop
         style="stop-color:#000058;stop-opacity:1"
         offset="0"
         id="stop4158" />
      <stop
         style="stop-color:#000078;stop-opacity:1"
         offset="1"
         id="stop4160" />
    </linearGradient>
    <radialGradient
       inkscape:collect="always"
       xlink:href="#linearGradient4165"
       id="radialGradient4171"
       cx="32.802898"
       cy="13.760531"
       fx="32.802898"
       fy="13.760531"
       r="3.4999998"
       gradientTransform="matrix(-0.72146615,4.966475e-8,-4.7555484e-8,-0.69241918,59.091681,21.077137)"
       gradientUnits="userSpaceOnUse" />
    <linearGradient
       inkscape:collect="always"
       id="linearGradient4165">
      <stop
         style="stop-color:#5858a9;stop-opacity:1"
         offset="0"
         id="stop4167" />
      <stop
         style="stop-color:#000080;stop-opacity:1"
         offset="1"
         id="stop4169" />
    </linearGradient>
    <linearGradient
       inkscape:collect="always"
       xlink:href="#linearGradient4164"
       id="linearGradient4170"
       x1="30.651611"
       y1="16.348345"
       x2="35.248386"
       y2="11.751223"
       gradientUnits="userSpaceOnUse"
       gradientTransform="matrix(1.0986537,0,0,1.0998368,-2.2902181,-2.3865606)" />
    <linearGradient
       inkscape:collect="always"
       id="linearGradient4164">
      <stop
         style="stop-color:#000058;stop-opacity:1"
         offset="0"
         id="stop4166" />
      <stop
         style="stop-color:#000078;stop-opacity:1"
         offset="1"
         id="stop4168" />
    </linearGradient>
    <linearGradient
       inkscape:collect="always"
       xlink:href="#linearGradient4155"
       id="linearGradient4163"
       x1="28.798479"
       y1="18.222336"
       x2="21.484772"
       y2="26.383757"
       gradientUnits="userSpaceOnUse"
       gradientTransform="matrix(1.1207905,0,0,1.1219319,-1.967428,-3.7505221)" />
    <linearGradient
       inkscape:collect="always"
       id="linearGradient4155">
      <stop
         style="stop-color:#ffffff;stop-opacity:0.78"
         offset="0"
         id="stop4157" />
      <stop
         style="stop-color:#ffffff;stop-opacity:0.314"
         offset="1"
         id="stop4159" />
    </linearGradient>
    <linearGradient
       inkscape:collect="always"
       xlink:href="#linearGradient4167"
       id="linearGradient4174"
       x1="35.94286"
       y1="10.928572"
       x2="32.485714"
       y2="14.535714"
       gradientUnits="userSpaceOnUse"
       gradientTransform="matrix(1.1344696,0,0,1.1357109,-5.2287767,-1.1302405)" />
    <linearGradient
       inkscape:collect="always"
       id="linearGradient4167">
      <stop
         style="stop-color:#ffffff;stop-opacity:1;"
         offset="0"
         id="stop4170" />
      <stop
         style="stop-color:#ffffff;stop-opacity:0;"
         offset="1"
         id="stop4172" />
    </linearGradient>
  </defs>
  <sodipodi:namedview
     id="base"
     pagecolor="#ffffff"
     bordercolor="#666666"
     borderopacity="1.0"
     inkscape:pageopacity="0.0"
     inkscape:pageshadow="2"
     inkscape:zoom="4"
     inkscape:cx="48.566903"
     inkscape:cy="64.452703"
     inkscape:current-layer="layer1"
     showgrid="false"
     inkscape:document-units="px"
     inkscape:grid-bbox="true"
     inkscape:window-width="1535"
     inkscape:window-height="876"
     inkscape:window-x="65"
     inkscape:window-y="24"
     inkscape:window-maximized="1">
    <inkscape:grid
       type="xygrid"
       id="grid4108" />
  </sodipodi:namedview>
  <metadata
     id="metadata4137">
    <rdf:RDF>
      <cc:Work
         rdf:about="">
        <dc:format>image/svg+xml</dc:format>
        <dc:type
           rdf:resource="http://purl.org/dc/dcmitype/StillImage" />
        <dc:title />
      </cc:Work>
    </rdf:RDF>
  </metadata>
  <g
     id="layer1"
     inkscape:label="Layer 1"
     inkscape:groupmode="layer"
     transform="translate(0,32)">
    <g
       id="g4130">
      <rect
         width="66.765793"
         height="7.549015"
         x="14.591103"
         y="54.750984"
         id="rect2879"
         style="opacity:0.3;fill:url(#linearGradient4130);fill-opacity:1;fill-rule:nonzero;stroke:none;stroke-width:1;marker:none;visibility:visible;display:inline;overflow:visible" />
      <path
         d="m 14.5911,54.751312 c 0,0 0,7.548562 0,7.548562 C 12.154257,62.314971 8.7,60.608591 8.7,58.525066 c 0,-2.083531 2.719333,-3.773754 5.8911,-3.773754 z"
         id="path2881"
         style="opacity:0.3;fill:url(#radialGradient3156);fill-opacity:1;fill-rule:nonzero;stroke:none;stroke-width:1;marker:none;visibility:visible;display:inline;overflow:visible"
         inkscape:connector-curvature="0" />
      <path
         d="m 81.356898,54.751312 c 0,0 0,7.548562 0,7.548562 2.436841,0.01509 5.891102,-1.691283 5.891102,-3.774808 0,-2.083531 -2.719333,-3.773754 -5.891102,-3.773754 z"
         id="path2883"
         style="opacity:0.3;fill:url(#radialGradient3153);fill-opacity:1;fill-rule:nonzero;stroke:none;stroke-width:1;marker:none;visibility:visible;display:inline;overflow:visible"
         inkscape:connector-curvature="0" />
    </g>
    <path
       inkscape:connector-curvature="0"
       style="fill:url(#linearGradient4128);fill-opacity:1;stroke:url(#linearGradient3098);stroke-width:1;stroke-linecap:butt;stroke-linejoin:round;stroke-miterlimit:4;stroke-opacity:1;stroke-dasharray:none;stroke-dashoffset:0;display:inline"
       id="path4160-6-19"
       d="m 12.5,-30.50008 c 16.269706,0 70.999908,0.008 70.999908,0.008 L 83.500003,58.5 c 0,0 -47.333344,0 -71.000003,0 0,-29.6655 0,-59.33152061 0,-88.99775 z"
       sodipodi:nodetypes="ccccc" />
    <path
       style="fill:none;stroke:url(#linearGradient3093);stroke-width:0.99999988;stroke-linecap:round;stroke-linejoin:miter;stroke-miterlimit:4;stroke-opacity:1;stroke-dasharray:none;stroke-dashoffset:0"
       d="m 82.500002,57.500002 -69.000002,0 0,-87.000003 69.000002,0 z"
       id="rect6741-1-8"
       inkscape:connector-curvature="0"
       sodipodi:nodetypes="ccccc" />
    <g
       id="g4161"
       transform="translate(-0.294848,-2)">
      <path
         sodipodi:nodetypes="ccccccccccccccccccccccccccccccccccccccccccccccccccccccccccccccccccccccccccccccccccccccccccccccccccccccccccccccccccccccccccccccccccccccccccccccccccccccccccccccccccccccccccccccccccccccccccccccccccccccccccccc"
         id="path4149"
         d="m 22.294848,-12 0,1 5,0 0,-1 z m 6,0 0,1 4,0 0,-1 z m 5,0 0,1 3,0 0,-1 z m 4,0 0,1 2,0 0,-1 z m 3,0 0,1 3,0 0,-1 z m 4,0 0,1 10,0 0,-1 z m -22,4 0,1 7,0 0,-1 z m 8,0 0,1 4,0 0,-1 z m 5,0 0,1 1,0 0,-1 z m 2,0 0,1 3,0 0,-1 z m 4,0 0,1 3,0 0,-1 z m 4,0 0,1 6,0 0,-1 z m 7,0 0,1 7,0 0,-1 z m -30,4 0,1 8,0 0,-1 z m 9,0 0,1 9,0 0,-1 z m -9,4 0,1 4,0 0,-1 z m 5,0 0,1 5,0 0,-1 z m 6,0 0,1 3,0 0,-1 z m 7,8 0,1 4,0 0,-1 z m 5,0 0,1 3,0 0,-1 z m 4,0 0,1 5,0 0,-1 z m 6,0 0,1 1,0 0,-1 z m -15,12 0,1 5,0 0,-1 z m 6,0 0,1 4,0 0,-1 z m 5,0 0,1 3,0 0,-1 z m -11,4 0,1 4.059238,0 0,-1 z m 5,0 0,1 9,0 0,-1 z m 10,0 0,1 8,0 0,-1 z m -15,4 0,1 5,0 0,-1 z m 6,0 0,1 8,0 0,-1 z m 9,0 0,1 6,0 0,-1 z m -15,4 0,1 4,0 0,-1 z m 5,0 0,1 3,0 0,-1 z m 4,0 0,1 5,0 0,-1 z m 6,0 0,1 1,0 0,-1 z m 2,0 0,1 7,0 0,-1 z m -17,12 0,1 5,0 0,-1 z m 6,0 0,1 4,0 0,-1 z m 5,0 0,1 4,0 0,-1 z m 5,0 0,1 6,0 0,-1 z m 7,0 0,1 10,0 0,-1 z"
         style="fill:url(#linearGradient4245);fill-opacity:1;stroke:none;display:inline"
         inkscape:connector-curvature="0" />
      <path
         sodipodi:nodetypes="cccccccccc"
         id="path4063"
         d="m 22.294848,4 0,1 6,0 0,-1 z m 0,4 0,1 6.031695,0 0,-1 z"
         style="fill:url(#linearGradient4253);fill-opacity:1;stroke:none;display:inline"
         inkscape:connector-curvature="0" />
      <path
         sodipodi:nodetypes="cccccccccccccccccccccccccccccccccccccccccccccccccccccccccccccccccccccccccccccccc"
         id="path4061"
         d="m 29.294848,4 0,1 11,0 0,-1 z m 0,4 0,1 10,0 0,-1 z m 3,28 0,1 9,0 0,-1 z m 10,0 0,1 3,0 0,-1 z m 4,0 0,1 8,0 0,-1 z m 9,0 0,1 6,0 0,-1 z m 7,0 0,1 2,0 0,-1 z m 3,0 0,1 1,0 0,-1 z m 2,0 0,1 4,0 0,-1 z m -32,4 0,1 1,0 0,-1 z m 2,0 0,1 3,0 0,-1 z m 4,0 0,1 3,0 0,-1 z m 4,0 0,1 5,0 0,-1 z m 6,0 0,1 6,0 0,-1 z m 7,0 0,1 5,0 0,-1 z m 6,0 0,1 1,0 0,-1 z"
         style="fill:url(#linearGradient4269);fill-opacity:1;stroke:none;display:inline"
         inkscape:connector-curvature="0" />
      <path
         sodipodi:nodetypes="ccccc"
         d="m 22.294848,44 6,0 0,1 -6,0 z"
         id="path4009"
         style="fill:url(#linearGradient4277);fill-opacity:1;stroke:none;display:inline"
         inkscape:connector-curvature="0" />
      <path
         sodipodi:nodetypes="cccccccccccccccccccccccccccccccccccccccccccccccccc"
         id="path4007"
         d="m 28.294848,12 0,1 4,0 0,-1 z m -6,4 0,1 2,0 0,-1 z m 6,4 0,1 4,0 0,-1 z m 1,4 0,1 5,0 0,-1 z m -1,4 0,1 4,0 0,-1 z m -1,4 0,1 4,0 0,-1 z m -5,4 0,1 9,0 0,-1 z m 0,4 0,1 7,0 0,-1 z m 8,0 0,1 4,0 0,-1 z m -1,4 0,1 7,0 0,-1 z"
         style="fill:url(#linearGradient4061);fill-opacity:1;stroke:none;display:inline"
         inkscape:connector-curvature="0" />
      <path
         sodipodi:nodetypes="ccccccccccccccccccccccccc"
         id="path5302"
         d="m 22.294848,12 0,1 5,0 0,-1 z m 0,8 0,1 5,0 0,-1 z m 0,4 0,1 6,0 0,-1 z m 0,4 0,1 5,0 0,-1 z m 0,4 0,1 4,0 0,-1 z"
         style="fill:url(#linearGradient4261);fill-opacity:1;stroke:none;display:inline"
         inkscape:connector-curvature="0" />
    </g>
    <g
       transform="matrix(1.9161418,0,0,1.9142386,1.5228171,-28.511719)"
       id="g4271">
      <path
         d="m 34.171365,36.18237 c 0.0014,2.091612 -5.139505,3.787422 -11.481404,3.787422 -6.341901,0 -11.482669,-1.69581 -11.481405,-3.787422 -0.0012,-2.091602 5.139504,-3.787391 11.481405,-3.787391 6.341899,0 11.482669,1.695789 11.481404,3.787391 z"
         id="path2917"
         style="opacity:0.3;fill:url(#radialGradient3172-0);fill-opacity:1;stroke:none;display:inline"
         inkscape:connector-curvature="0" />
      <g
         id="g4204">
        <ellipse
           style="fill:url(#radialGradient4178);fill-opacity:1;stroke:url(#linearGradient4162);stroke-width:0.52214128;stroke-opacity:1"
           id="circle10"
           cy="24.297764"
           cx="22.68996"
           rx="11.220334"
           ry="11.23175"
           d="M 33.910295,24.297764 A 11.220334,11.23175 0 0 1 22.68996,35.529513 11.220334,11.23175 0 0 1 11.469626,24.297764 11.220334,11.23175 0 0 1 22.68996,13.066014 11.220334,11.23175 0 0 1 33.910295,24.297764 Z" />
        <ellipse
           cx="27.125959"
           cy="19.857357"
           style="fill:#ffffff"
           id="circle12"
           rx="3.3922334"
           ry="3.395606"
           d="m 30.518193,19.857357 a 3.3922334,3.395606 0 0 1 -3.392234,3.395606 3.3922334,3.395606 0 0 1 -3.392233,-3.395606 3.3922334,3.395606 0 0 1 3.392233,-3.395606 3.3922334,3.395606 0 0 1 3.392234,3.395606 z" />
        <ellipse
           style="fill:url(#radialGradient4171);fill-opacity:1;stroke:url(#linearGradient4170);stroke-width:0.52214164;stroke-miterlimit:4;stroke-opacity:1;stroke-dasharray:none"
           cx="33.910423"
           cy="13.066145"
           id="circle14"
           rx="3.1311624"
           ry="3.1345351"
           d="m 37.041586,13.066145 a 3.1311624,3.1345351 0 0 1 -3.131163,3.134535 3.1311624,3.1345351 0 0 1 -3.131162,-3.134535 3.1311624,3.1345351 0 0 1 3.131162,-3.1345351 3.1311624,3.1345351 0 0 1 3.131163,3.1345351 z" />
        <path
           inkscape:connector-curvature="0"
           d="m 33.388415,24.297773 c 0,5.91156 -4.792903,10.70935 -10.698454,10.70935 -5.905543,0 -10.69845,-4.79779 -10.69845,-10.70935 0,-5.911559 4.792907,-10.709348 10.69845,-10.709348 5.905551,0 10.698454,4.797789 10.698454,10.709348 z"
           id="path3164"
           style="opacity:0.4;fill:none;stroke:url(#linearGradient4163);stroke-width:0.5221414;stroke-linecap:round;stroke-linejoin:round;stroke-miterlimit:4;stroke-opacity:1;stroke-dasharray:none;stroke-dashoffset:0" />
        <path
           inkscape:connector-curvature="0"
           d="m 31.301266,13.091222 c -0.01383,-1.441834 1.143855,-2.623247 2.584113,-2.63709 1.440249,-0.01384 2.620377,1.145095 2.634204,2.586929 0.01384,1.441833 -1.143856,2.623251 -2.584108,2.637095 -1.440256,0.01385 -2.620381,-1.145101 -2.634209,-2.586934 z"
           id="path3164-2"
           style="opacity:0.26000001;fill:none;stroke:url(#linearGradient4174);stroke-width:0.5221414;stroke-linecap:round;stroke-linejoin:round;stroke-miterlimit:4;stroke-opacity:1;stroke-dasharray:none;stroke-dashoffset:0" />
      </g>
    </g>
  </g>
</svg>
