<?xml version="1.0" encoding="UTF-8" standalone="no"?>
<!-- Created with Inkscape (http://www.inkscape.org/) -->

<svg
   xmlns:dc="http://purl.org/dc/elements/1.1/"
   xmlns:cc="http://creativecommons.org/ns#"
   xmlns:rdf="http://www.w3.org/1999/02/22-rdf-syntax-ns#"
   xmlns:svg="http://www.w3.org/2000/svg"
   xmlns="http://www.w3.org/2000/svg"
   xmlns:xlink="http://www.w3.org/1999/xlink"
   xmlns:sodipodi="http://sodipodi.sourceforge.net/DTD/sodipodi-0.dtd"
   xmlns:inkscape="http://www.inkscape.org/namespaces/inkscape"
   width="96"
   height="96"
   id="svg4017"
   version="1.1"
   inkscape:version="0.48+devel r"
   sodipodi:docname="text-x-csrc.svg"
   viewBox="0 0 96 96">
  <defs
     id="defs4019">
    <radialGradient
       inkscape:collect="always"
       xlink:href="#linearGradient5060"
       id="radialGradient3153"
       gradientUnits="userSpaceOnUse"
       gradientTransform="matrix(0.03128083,0,0,0.02053005,64.045118,1036.6837)"
       cx="605.71429"
       cy="486.64789"
       fx="605.71429"
       fy="486.64789"
       r="117.14286" />
    <linearGradient
       id="linearGradient5060">
      <stop
         id="stop5062"
         style="stop-color:#000000;stop-opacity:1"
         offset="0" />
      <stop
         id="stop5064"
         style="stop-color:#000000;stop-opacity:0"
         offset="1" />
    </linearGradient>
    <radialGradient
       inkscape:collect="always"
       xlink:href="#linearGradient5060"
       id="radialGradient3156"
       gradientUnits="userSpaceOnUse"
       gradientTransform="matrix(-0.03128083,0,0,0.02053005,31.850121,1036.6837)"
       cx="605.71429"
       cy="486.64789"
       fx="605.71429"
       fy="486.64789"
       r="117.14286" />
    <linearGradient
       id="linearGradient5048">
      <stop
         id="stop5050"
         style="stop-color:#000000;stop-opacity:0"
         offset="0" />
      <stop
         id="stop5056"
         style="stop-color:#000000;stop-opacity:1"
         offset="0.5" />
      <stop
         id="stop5052"
         style="stop-color:#000000;stop-opacity:0"
         offset="1" />
    </linearGradient>
    <linearGradient
       y2="609.50507"
       x2="302.85715"
       y1="366.64789"
       x1="302.85715"
       gradientTransform="matrix(0.14476034,0,0,0.02053005,-4.3728904,1036.6837)"
       gradientUnits="userSpaceOnUse"
       id="linearGradient4015"
       xlink:href="#linearGradient5048"
       inkscape:collect="always" />
    <linearGradient
       id="linearGradient3104">
      <stop
         offset="0"
         style="stop-color:#a0a0a0;stop-opacity:1;"
         id="stop3106" />
      <stop
         offset="1"
         style="stop-color:#bebebe;stop-opacity:1;"
         id="stop3108" />
    </linearGradient>
    <linearGradient
       id="linearGradient3600-9">
      <stop
         offset="0"
         style="stop-color:#f4f4f4;stop-opacity:1"
         id="stop3602-3" />
      <stop
         offset="1"
         style="stop-color:#dbdbdb;stop-opacity:1"
         id="stop3604-7" />
    </linearGradient>
    <linearGradient
       id="linearGradient3977-4">
      <stop
         id="stop3979-7"
         style="stop-color:#ffffff;stop-opacity:1;"
         offset="0" />
      <stop
         offset="0.03626217"
         style="stop-color:#ffffff;stop-opacity:0.23529412;"
         id="stop3981-6" />
      <stop
         id="stop3983-5"
         style="stop-color:#ffffff;stop-opacity:0.15686275;"
         offset="0.95056331" />
      <stop
         id="stop3985-6"
         style="stop-color:#ffffff;stop-opacity:0.39215687;"
         offset="1" />
    </linearGradient>
    <linearGradient
       inkscape:collect="always"
       xlink:href="#linearGradient3977-4"
       id="linearGradient3093"
       gradientUnits="userSpaceOnUse"
       gradientTransform="matrix(1.8648644,0,0,2.3513558,3.2432571,945.92985)"
       x1="23.99999"
       y1="5.5641499"
       x2="23.99999"
       y2="43" />
    <linearGradient
       inkscape:collect="always"
       xlink:href="#linearGradient3600-9"
       id="linearGradient3096"
       gradientUnits="userSpaceOnUse"
       gradientTransform="matrix(2.0285668,0,0,1.9337922,-0.68560448,952.98382)"
       x1="25.132275"
       y1="0.98520643"
       x2="25.132275"
       y2="47.013336" />
    <linearGradient
       inkscape:collect="always"
       xlink:href="#linearGradient3104"
       id="linearGradient3098"
       gradientUnits="userSpaceOnUse"
       gradientTransform="matrix(1.6380614,0,0,1.8097403,119.8319,950.82863)"
       x1="-51.786404"
       y1="50.786446"
       x2="-51.786404"
       y2="2.9062471" />
    <linearGradient
       inkscape:collect="always"
       xlink:href="#linearGradient3104-5-2"
       id="linearGradient3027"
       gradientUnits="userSpaceOnUse"
       gradientTransform="matrix(1.5068494,0,0,1.5195207,-3.5175435,952.01595)"
       x1="22.004084"
       y1="47.813133"
       x2="22.004084"
       y2="3.3638515" />
    <linearGradient
       id="linearGradient3104-5-2">
      <stop
         id="stop3106-2-9"
         style="stop-color:#aaaaaa;stop-opacity:1"
         offset="0" />
      <stop
         id="stop3108-5-3"
         style="stop-color:#c8c8c8;stop-opacity:1"
         offset="1" />
    </linearGradient>
    <linearGradient
       inkscape:collect="always"
       xlink:href="#linearGradient3104-5-2"
       id="linearGradient4132"
       gradientUnits="userSpaceOnUse"
       gradientTransform="matrix(1.5068494,0,0,1.5195207,-3.5175435,952.01595)"
       x1="22.004084"
       y1="47.813133"
       x2="22.004084"
       y2="3.3638515" />
    <linearGradient
       inkscape:collect="always"
       xlink:href="#linearGradient3830"
       id="linearGradient3161"
       gradientUnits="userSpaceOnUse"
       x1="31.945835"
       y1="48.361855"
       x2="31.945835"
       y2="22.754225"
       gradientTransform="matrix(1.5138956,0,0,1.5229836,0.63734222,954.70789)" />
    <linearGradient
       id="linearGradient3830">
      <stop
         id="stop3832"
         style="stop-color:#ffffff;stop-opacity:1"
         offset="0" />
      <stop
         id="stop3834"
         style="stop-color:#ffffff;stop-opacity:0"
         offset="1" />
    </linearGradient>
    <radialGradient
       inkscape:collect="always"
       xlink:href="#linearGradient2867-449-88-871-390-598-476-591-434-148-57-177"
       id="radialGradient3167"
       gradientUnits="userSpaceOnUse"
       gradientTransform="matrix(-2.4533111e-7,10.034807,-12.279538,-3.0121785e-7,158.58093,864.0195)"
       cx="7.8060555"
       cy="9.9571075"
       fx="7.2758255"
       fy="9.9571075"
       r="12.671875" />
    <linearGradient
       id="linearGradient2867-449-88-871-390-598-476-591-434-148-57-177">
      <stop
         offset="0"
         style="stop-color:#90dbec;stop-opacity:1;"
         id="stop3750" />
      <stop
         offset="0.39060768"
         style="stop-color:#55c1ec;stop-opacity:1;"
         id="stop3752" />
      <stop
         offset="0.84839314"
         style="stop-color:#3689e6;stop-opacity:1;"
         id="stop3754" />
      <stop
         offset="1"
         style="stop-color:#2b63a0;stop-opacity:1;"
         id="stop3756" />
    </linearGradient>
    <linearGradient
       inkscape:collect="always"
       xlink:href="#linearGradient3707-319-631-407-324"
       id="linearGradient3169"
       gradientUnits="userSpaceOnUse"
       x1="25"
       y1="51.067951"
       x2="25"
       y2="11.579654"
       gradientTransform="matrix(1.5174516,0,0,1.5199956,-0.09030569,955.32941)" />
    <linearGradient
       id="linearGradient3707-319-631-407-324">
      <stop
         offset="0"
         style="stop-color:#185f9a;stop-opacity:1;"
         id="stop3760" />
      <stop
         offset="1"
         style="stop-color:#599ec9;stop-opacity:1;"
         id="stop3762" />
    </linearGradient>
    <linearGradient
       inkscape:collect="always"
       xlink:href="#linearGradient3830"
       id="linearGradient4147"
       gradientUnits="userSpaceOnUse"
       gradientTransform="matrix(1.5920802,0,0,1.5779233,-2.234573,953.50839)"
       x1="30.924681"
       y1="18.28594"
       x2="30.924681"
       y2="36.030781" />
    <radialGradient
       inkscape:collect="always"
       xlink:href="#linearGradient5060"
       id="radialGradient4170"
       cx="48.208954"
       cy="1018.5387"
       fx="48.208954"
       fy="1018.5387"
       r="21.194542"
       gradientTransform="matrix(1,0,0,0.35935905,0.24558915,652.21764)"
       gradientUnits="userSpaceOnUse" />
  </defs>
  <sodipodi:namedview
     id="base"
     pagecolor="#ffffff"
     bordercolor="#666666"
     borderopacity="1.0"
     inkscape:pageopacity="0.0"
     inkscape:pageshadow="2"
     inkscape:zoom="5.6568543"
     inkscape:cx="38.029139"
     inkscape:cy="47.756328"
     inkscape:document-units="px"
     inkscape:current-layer="layer1"
     showgrid="true"
     inkscape:window-width="1535"
     inkscape:window-height="876"
     inkscape:window-x="65"
     inkscape:window-y="24"
     inkscape:window-maximized="1"
     units="px"
     inkscape:snap-global="true">
    <inkscape:grid
       type="xygrid"
       id="grid3011"
       empspacing="5"
       visible="true"
       enabled="true"
       snapvisiblegridlinesonly="true" />
  </sodipodi:namedview>
  <metadata
     id="metadata4022">
    <rdf:RDF>
      <cc:Work
         rdf:about="">
        <dc:format>image/svg+xml</dc:format>
        <dc:type
           rdf:resource="http://purl.org/dc/dcmitype/StillImage" />
        <dc:title />
      </cc:Work>
    </rdf:RDF>
  </metadata>
  <g
     inkscape:label="Layer 1"
     inkscape:groupmode="layer"
     id="layer1"
     transform="translate(0,-956.3622)">
    <g
       id="g4089"
       transform="matrix(1.0040259,0,0,1.0028296,-0.14065179,-2.8037029)">
      <rect
         width="69.89856"
         height="4.9858918"
         x="12.998364"
         y="1044.2112"
         id="rect2879"
         style="opacity:0.3;fill:url(#linearGradient4015);fill-opacity:1;fill-rule:nonzero;stroke:none;stroke-width:1;marker:none;visibility:visible;display:inline;overflow:visible" />
      <path
         d="m 12.998348,1044.2116 c 0,0 0,4.9853 0,4.9853 -1.610891,0.013 -3.894348,-1.1179 -3.894348,-2.4937 0,-1.3758 1.797632,-2.4916 3.894348,-2.4916 z"
         id="path2881"
         style="opacity:0.3;fill:url(#radialGradient3156);fill-opacity:1;fill-rule:nonzero;stroke:none;stroke-width:1;marker:none;visibility:visible;display:inline;overflow:visible"
         inkscape:connector-curvature="0" />
      <path
         d="m 82.896898,1044.2116 c 0,0 0,4.9853 0,4.9853 1.610888,0.013 3.894344,-1.1179 3.894344,-2.4937 0,-1.3758 -1.797625,-2.4916 -3.894344,-2.4916 z"
         id="path2883"
         style="opacity:0.3;fill:url(#radialGradient3153);fill-opacity:1;fill-rule:nonzero;stroke:none;stroke-width:1;marker:none;visibility:visible;display:inline;overflow:visible"
         inkscape:connector-curvature="0" />
    </g>
    <path
       inkscape:connector-curvature="0"
       style="fill:url(#linearGradient3096);fill-opacity:1;stroke:url(#linearGradient3098);stroke-width:1;stroke-linecap:butt;stroke-linejoin:round;stroke-miterlimit:4;stroke-opacity:1;stroke-dasharray:none;stroke-dashoffset:0;display:inline"
       id="path4160-6"
       d="m 12.5,957.86216 c 16.269706,0 70.999909,0.008 70.999909,0.008 l 9.3e-5,88.99204 c 0,0 -47.333343,0 -71.000002,0 0,-29.6655 0,-59.33148 0,-88.99771 z"
       sodipodi:nodetypes="ccccc" />
    <path
       style="fill:none;stroke:url(#linearGradient3093);stroke-width:1;stroke-linecap:round;stroke-linejoin:miter;stroke-miterlimit:4;stroke-opacity:1;stroke-dasharray:none;stroke-dashoffset:0"
       d="m 82.499997,1045.8622 -68.999997,0 0,-86.99998 68.999997,0 z"
       id="rect6741-1-8"
       inkscape:connector-curvature="0"
       sodipodi:nodetypes="ccccc" />
    <path
       inkscape:connector-curvature="0"
       style="fill:none;stroke:url(#linearGradient4132);stroke-width:0.99999994px;stroke-linecap:butt;stroke-linejoin:miter;stroke-opacity:1"
       id="path3475"
       d="m 20,970.8622 5,0 z m 6,0 5,0 z m 6,0 4,0 z m 5,0 1,0 z m 2,0 4,0 z m 5,0 11,0 z m 12,0 8,0 z m 9,0 2,0 z m -45,3 8,0 z m 9,0 4,0 z m 5,0 1,0 z m 2,0 4,0 z m 5,0 3,0 z m 4,0 5,0 z m 6,0 8,0 z m 9,0 4,0 z m 5,0 1,0 z m -45,3 7,0 z m 8,0 11,0 z m 12,0 5,0 z m 6,0 5,0 z m 6,0 4,0 z m 5,0 6,0.0236 z m 7,0.0236 11.000001,0 z m -44,2.9764 9,0 z m 10,0 10,0 z m 11,0 4,0 z m 5,0 9,0 z m 10,0 7,0 z m 8,0 2,0 z m 3,0 1,0 z m 2,0 4,0 z m -49,3 4,0 z m 5,0 13,0 z m -5,6.97645 7,0 z m 8,0 11,0 z m 12,0 5,0 z m 6,0 5,0 z m 6,0 4,0 z m 5,0 6,0.0471 z m 7,0.0471 11.000001,0 z m -44,2.97645 5,0 z m 6,0 5,0 z m 6,0 4,0 z m 5,0 1,0 z m 2,0 4,0 z m 5,0 11,0 z m 12,0 8,0 z m 9,0 2,0 z m 3,0 6,0 z m -48,3 8,0 z m 9,0 10,0 z m 11,0 3,0 z m 4,0 8,0 z m 9,0 11,0 z m 12,0 4,0 z m -45,3 9,0 z m 10,0 10,0 z m 11,0 4,0 z m 5,0 9,0 z m 10,0 7,0 z m 8,0 2,0 z m 3,0 1,0 z m 2,0 4,0 z m -49,3 8,0 z m 9,0 4,0 z m 5,0 1,0 z m 2,0 4,0 z m 5,0 3,0 z m 4,0 6,0 z m 7,0 7,0 z m 8,0 4,0 z m 5,0 1,0 z m -45,6 7,0 z m 8,0 11,0 z m 12,0 5,0 z m 6,0 5,0 z m 6,0 4,0 z m 5,0 6,0 z m 7,0 11.000001,0 z m -44,3 8,0 z m 9,0 4,0 z m 5,0 1,0 z m 2,0 4,0 z m 5,0 3,0 z m 4,0 5,0 z m 6,0 8,0 z m 9,0 4,0 z m 5,0 1,0 z m -45,3 9,0 z m 10,0 2,0 z m 3,0 6,0 z m 7,0 9,0 z m 10,0 5,0 z m 6,0 1,0 z m 2,0 8,0 z m 9,0 4,0 z m -47,3 8,0 z m 9,0 4,0 z m 5,0 6,0 z m 7,0 6,0 z m 7,0 2,0 z m 3,0 2,0 z m 3,0 4,0 z"
       sodipodi:nodetypes="cccccccccccccccccccccccccccccccccccccccccccccccccccccccccccccccccccccccccccccccccccccccccccccccccccccccccccccccccccccccccccccccccccccccccccccccccccccccccccccccccccccccccccccccccccccccccccccccccccccccccccccccccccccccccccccccccccccccccccccccccccccccccccccccccccccccccccccccccccccccccccccccccccccccccccccccccccccccc" />
    <path
       inkscape:connector-curvature="0"
       style="fill:none;stroke:url(#linearGradient3027);stroke-width:1;stroke-linecap:butt;stroke-linejoin:miter;stroke-miterlimit:4;stroke-opacity:1;stroke-dasharray:none"
       id="path3475-2"
       d="m 20,1022.8622 5,0 z m 5.942211,0 5.057789,0 z m 6.057789,0 4,0 z m 5,0 1,0 z m 2,0 4,0 z m 5,0 11,0 z m 12,0 8,0 z m 9,0 2,0 z m -45,2.9765 7,0 z m 8,0 11,0 z m 12,0 5,0 z m 6,0 4,0 z m 5,0 5,0 z m 6,0 6,0.047 z m 7,0.047 11.000001,0 z m -44,2.9765 9,0 z m 10,0 10,0 z m 11,0 4,0 z m 5,0 9,0 z m 10,0 7,0 z m 8,0 2,0 z m 3,0 1,0 z m 2,0 4,0 z m -49,3 3.523868,0 z m 4.629397,0 13.059044,0 z m -4.629397,0 8.706029,0 z m 9.396984,0 9.603016,0 z m 10.603016,0 3,0 z m 4,0 8,0 z m 9,0 11,0 z m 12,0 4,0 z"
       sodipodi:nodetypes="ccccccccccccccccccccccccccccccccccccccccccccccccccccccccccccccccccccccccccccccccccccccccccccc" />
    <g
       id="g4177">
      <path
         d="m 69.649081,1018.2387 c 0.0023,4.2063 -9.48747,7.6165 -21.194539,7.6165 -11.707069,0 -21.196869,-3.4102 -21.194542,-7.6165 -0.0023,-4.206 9.487473,-7.6164 21.194542,-7.6164 11.707069,0 21.196871,3.4104 21.194539,7.6164 z"
         id="path2917"
         style="opacity:0.3;fill:url(#radialGradient4170);fill-opacity:1;stroke:none;display:inline"
         inkscape:connector-curvature="0" />
      <g
         id="g4172">
        <path
           inkscape:connector-curvature="0"
           style="fill:url(#radialGradient3167);fill-opacity:1;fill-rule:nonzero;stroke:url(#linearGradient3169);stroke-width:0.99999988;stroke-linecap:square;stroke-linejoin:round;stroke-miterlimit:4;stroke-opacity:1;stroke-dasharray:none;stroke-dashoffset:0;marker:none;visibility:visible;display:inline;overflow:visible;enable-background:accumulate"
           id="path3737"
           d="m 48.468143,982.8622 c -10.470415,0 -18.968142,8.51198 -18.968144,19 0,10.4879 8.497727,19 18.968144,19 7.777605,0 15.080766,-5.1951 17.438125,-11.9726 l -8.431866,-0.062 c -2.020406,2.661 -5.632147,4.4349 -9.006259,4.4349 -6.282251,0 -11.380886,-5.1071 -11.380886,-11.3998 -3e-6,-6.29284 5.098635,-11.40003 11.380886,-11.40003 4.172664,0 8.115702,3.04489 10.133539,6.42379 l 7.416316,0 C 65.31636,989.79594 56.817073,982.8622 48.468143,982.8622 Z"
           sodipodi:nodetypes="sssccsssccs" />
        <path
           inkscape:connector-curvature="0"
           style="opacity:0.5;fill:none;stroke:url(#linearGradient4147);stroke-width:0.99999994;stroke-linecap:square;stroke-linejoin:miter;stroke-miterlimit:4;stroke-opacity:1;stroke-dasharray:none;stroke-dashoffset:0;marker:none;visibility:visible;display:inline;overflow:visible;enable-background:accumulate"
           id="path3838"
           d="m 64.82575,995.76995 c -1.861807,-7.08173 -10.081606,-11.92351 -16.113757,-11.90775 -7.083664,-0.0982 -13.932395,4.25867 -16.693036,10.71935 -2.937927,6.48055 -1.513316,14.60605 3.506424,19.69035 3.407527,3.6379 8.411977,5.6296 13.383703,5.5897"
           sodipodi:nodetypes="ccccc" />
        <path
           inkscape:connector-curvature="0"
           style="opacity:0.5;fill:none;stroke:url(#linearGradient3161);stroke-width:0.99999994;stroke-linecap:square;stroke-linejoin:miter;stroke-miterlimit:4;stroke-opacity:1;stroke-dasharray:none;stroke-dashoffset:0;marker:none;visibility:visible;display:inline;overflow:visible;enable-background:accumulate"
           id="path3845"
           d="m 48.010405,989.49914 c -6.468311,0.55734 -10.852397,4.95371 -11.786607,10.17654 -0.856994,6.30342 2.53916,12.03702 8.352211,13.96092 4.586771,1.6944 10.412967,-0.075 13.374755,-3.785 l 6.290486,0.031"
           sodipodi:nodetypes="ccccc" />
      </g>
    </g>
  </g>
</svg>
