<?xml version="1.0" encoding="UTF-8" standalone="no"?>
<svg
   xmlns:dc="http://purl.org/dc/elements/1.1/"
   xmlns:cc="http://creativecommons.org/ns#"
   xmlns:rdf="http://www.w3.org/1999/02/22-rdf-syntax-ns#"
   xmlns:svg="http://www.w3.org/2000/svg"
   xmlns="http://www.w3.org/2000/svg"
   xmlns:xlink="http://www.w3.org/1999/xlink"
   xmlns:sodipodi="http://sodipodi.sourceforge.net/DTD/sodipodi-0.dtd"
   xmlns:inkscape="http://www.inkscape.org/namespaces/inkscape"
   width="96"
   height="96"
   id="svg4017"
   version="1.1"
   viewBox="0 0 96 96"
   sodipodi:docname="x-office-document-template.svg"
   inkscape:version="1.0.2 (e86c870879, 2021-01-15)">
  <sodipodi:namedview
     pagecolor="#ffffff"
     bordercolor="#666666"
     borderopacity="1"
     objecttolerance="10"
     gridtolerance="10"
     guidetolerance="10"
     inkscape:pageopacity="0"
     inkscape:pageshadow="2"
     inkscape:window-width="1319"
     inkscape:window-height="980"
     id="namedview43"
     showgrid="false"
     inkscape:zoom="15.999999"
     inkscape:cx="28.842358"
     inkscape:cy="93.88131"
     inkscape:window-x="564"
     inkscape:window-y="293"
     inkscape:window-maximized="0"
     inkscape:current-layer="g3096"
     inkscape:document-rotation="0"
     inkscape:snap-page="true"
     inkscape:snap-text-baseline="true"
     inkscape:snap-center="true"
     inkscape:snap-object-midpoints="true"
     inkscape:snap-midpoints="true"
     inkscape:snap-smooth-nodes="true"
     inkscape:snap-intersection-paths="true"
     inkscape:object-paths="true"
     inkscape:snap-bbox="true"
     inkscape:bbox-paths="true"
     inkscape:bbox-nodes="true"
     inkscape:snap-bbox-midpoints="true"
     inkscape:snap-bbox-edge-midpoints="true" />
  <defs
     id="defs4019">
    <radialGradient
       xlink:href="#linearGradient5060"
       id="radialGradient3153"
       gradientUnits="userSpaceOnUse"
       gradientTransform="matrix(0.03128083,0,0,0.02053005,64.045118,1036.6837)"
       cx="605.71429"
       cy="486.64789"
       fx="605.71429"
       fy="486.64789"
       r="117.14286" />
    <linearGradient
       id="linearGradient5060">
      <stop
         id="stop5062"
         style="stop-color:#000000;stop-opacity:1"
         offset="0" />
      <stop
         id="stop5064"
         style="stop-color:#000000;stop-opacity:0"
         offset="1" />
    </linearGradient>
    <radialGradient
       xlink:href="#linearGradient5060"
       id="radialGradient3156"
       gradientUnits="userSpaceOnUse"
       gradientTransform="matrix(-0.03128083,0,0,0.02053005,31.850121,1036.6837)"
       cx="605.71429"
       cy="486.64789"
       fx="605.71429"
       fy="486.64789"
       r="117.14286" />
    <linearGradient
       id="linearGradient5048">
      <stop
         id="stop5050"
         style="stop-color:#000000;stop-opacity:0"
         offset="0" />
      <stop
         id="stop5056"
         style="stop-color:#000000;stop-opacity:1"
         offset="0.5" />
      <stop
         id="stop5052"
         style="stop-color:#000000;stop-opacity:0"
         offset="1" />
    </linearGradient>
    <linearGradient
       y2="609.50507"
       x2="302.85715"
       y1="366.64789"
       x1="302.85715"
       gradientTransform="matrix(0.14476034,0,0,0.02053005,-4.3728904,1036.6837)"
       gradientUnits="userSpaceOnUse"
       id="linearGradient4015"
       xlink:href="#linearGradient5048" />
    <linearGradient
       id="linearGradient3104">
      <stop
         offset="0"
         style="stop-color:#a0a0a0;stop-opacity:1;"
         id="stop3106" />
      <stop
         offset="1"
         style="stop-color:#bebebe;stop-opacity:1;"
         id="stop3108" />
    </linearGradient>
    <linearGradient
       id="linearGradient3600-9">
      <stop
         offset="0"
         style="stop-color:#f4f4f4;stop-opacity:1"
         id="stop3602-3" />
      <stop
         offset="1"
         style="stop-color:#dbdbdb;stop-opacity:1"
         id="stop3604-7" />
    </linearGradient>
    <linearGradient
       id="linearGradient3977-4">
      <stop
         id="stop3979-7"
         style="stop-color:#ffffff;stop-opacity:1;"
         offset="0" />
      <stop
         offset="0.03626217"
         style="stop-color:#ffffff;stop-opacity:0.23529412;"
         id="stop3981-6" />
      <stop
         id="stop3983-5"
         style="stop-color:#ffffff;stop-opacity:0.15686275;"
         offset="0.95056331" />
      <stop
         id="stop3985-6"
         style="stop-color:#ffffff;stop-opacity:0.39215687;"
         offset="1" />
    </linearGradient>
    <linearGradient
       xlink:href="#linearGradient3977-4"
       id="linearGradient3093"
       gradientUnits="userSpaceOnUse"
       gradientTransform="matrix(1.8648644,0,0,2.3513558,3.2432571,945.92985)"
       x1="23.99999"
       y1="5.5641499"
       x2="23.99999"
       y2="43" />
    <linearGradient
       xlink:href="#linearGradient3600-9"
       id="linearGradient3096"
       gradientUnits="userSpaceOnUse"
       gradientTransform="matrix(2.0285668,0,0,1.9337922,-0.68560448,952.98382)"
       x1="25.132275"
       y1="0.98520643"
       x2="25.132275"
       y2="47.013336" />
    <linearGradient
       xlink:href="#linearGradient3104"
       id="linearGradient3098"
       gradientUnits="userSpaceOnUse"
       gradientTransform="matrix(1.6380614,0,0,1.8097403,119.8319,950.82863)"
       x1="-51.786404"
       y1="50.786446"
       x2="-51.786404"
       y2="2.9062471" />
    <radialGradient
       r="12.671875"
       fy="16.231987"
       fx="18.1481"
       cy="16.231987"
       cx="18.1481"
       gradientTransform="matrix(0,14.809702,-17.852363,0,337.72597,-319.1013)"
       gradientUnits="userSpaceOnUse"
       id="radialGradient4873"
       xlink:href="#linearGradient2867-449-88-871-390-598-476-591-434-148-57-177-8-3-3" />
    <linearGradient
       id="linearGradient2867-449-88-871-390-598-476-591-434-148-57-177-8-3-3">
      <stop
         id="stop3750-1-0-7"
         style="stop-color:#ffcd7d;stop-opacity:1"
         offset="0" />
      <stop
         id="stop3752-3-7-4"
         style="stop-color:#fc8f36;stop-opacity:1"
         offset="0.26238" />
      <stop
         id="stop3754-1-8-5"
         style="stop-color:#e23a0e;stop-opacity:1"
         offset="0.704952" />
      <stop
         id="stop3756-1-6-2"
         style="stop-color:#ac441f;stop-opacity:1"
         offset="1" />
    </linearGradient>
    <linearGradient
       gradientUnits="userSpaceOnUse"
       y2="59.500019"
       x2="15"
       y1="0.50000042"
       x1="15"
       id="linearGradient877"
       xlink:href="#linearGradient875"
       gradientTransform="matrix(1.6153844,0,0,1.508474,-1.2307663,0.745763)" />
    <linearGradient
       id="linearGradient875">
      <stop
         id="stop871"
         offset="0"
         style="stop-color:#64baff;stop-opacity:1" />
      <stop
         id="stop873"
         offset="1"
         style="stop-color:#3689e6;stop-opacity:1" />
    </linearGradient>
    <linearGradient
       y2="3.3638515"
       x2="22.004084"
       y1="47.813133"
       x1="22.004084"
       gradientTransform="matrix(1.2586111,0,0,1,-13.599983,985.31513)"
       gradientUnits="userSpaceOnUse"
       id="linearGradient3030"
       xlink:href="#linearGradient3104-5-3" />
    <linearGradient
       id="linearGradient3104-5-3">
      <stop
         offset="0"
         style="stop-color:#aaaaaa;stop-opacity:1"
         id="stop3106-2-94" />
      <stop
         offset="1"
         style="stop-color:#c8c8c8;stop-opacity:1"
         id="stop3108-5-9" />
    </linearGradient>
    <linearGradient
       xlink:href="#linearGradient3104-5-3"
       id="linearGradient3052"
       gradientUnits="userSpaceOnUse"
       gradientTransform="matrix(1.2586111,0,0,1,-13.884582,985.31513)"
       x1="22.004084"
       y1="47.813133"
       x2="22.004084"
       y2="3.3638515" />
    <linearGradient
       gradientTransform="matrix(2,0,0,2.0333333,-35.839193,-10.47905)"
       gradientUnits="userSpaceOnUse"
       xlink:href="#linearGradient3104-5-3"
       id="linearGradient3039"
       y2="3.3638515"
       x2="22.004084"
       y1="47.813133"
       x1="22.004084" />
    <linearGradient
       gradientTransform="matrix(1.9830986,0,0,2.0333333,4.255223,-17.978168)"
       gradientUnits="userSpaceOnUse"
       xlink:href="#linearGradient3104-5-3"
       id="linearGradient3039-3"
       y2="3.3638515"
       x2="22.004084"
       y1="47.813133"
       x1="22.004084" />
    <linearGradient
       inkscape:collect="always"
       xlink:href="#linearGradient3104-5-3"
       id="linearGradient993"
       gradientUnits="userSpaceOnUse"
       gradientTransform="matrix(2,0,0,2.0333333,4.035807,-6.9790501)"
       x1="22.004084"
       y1="47.813133"
       x2="22.004084"
       y2="3.3638515" />
    <linearGradient
       x1="8.3773117"
       y1="5.6389141"
       x2="8.3773117"
       y2="42.349087"
       id="linearGradient3144"
       xlink:href="#linearGradient3977-6"
       gradientUnits="userSpaceOnUse"
       gradientTransform="matrix(2.3699578,0,0,2.3783783,0.46524949,-10.581039)" />
    <linearGradient
       id="linearGradient3977-6">
      <stop
         id="stop3979-9"
         style="stop-color:#ffffff;stop-opacity:1"
         offset="0" />
      <stop
         id="stop3981-3"
         style="stop-color:#ffffff;stop-opacity:0.23529412"
         offset="0.0048102" />
      <stop
         id="stop3983-7"
         style="stop-color:#ffffff;stop-opacity:0.15686275"
         offset="0.99380541" />
      <stop
         id="stop3985-4"
         style="stop-color:#ffffff;stop-opacity:0.39215687"
         offset="1" />
    </linearGradient>
    <linearGradient
       xlink:href="#linearGradient3412"
       id="linearGradient3058"
       gradientUnits="userSpaceOnUse"
       gradientTransform="matrix(0,4.0756442,-3.9997237,0,232.40922,863.52999)"
       x1="30.739399"
       y1="35.285313"
       x2="45.902721"
       y2="50.73642" />
    <linearGradient
       id="linearGradient3412">
      <stop
         id="stop3414"
         style="stop-color:#f0f0f1;stop-opacity:1"
         offset="0" />
      <stop
         id="stop3416"
         style="stop-color:#cbcdd9;stop-opacity:1"
         offset="1" />
    </linearGradient>
    <linearGradient
       y2="127.03607"
       x2="75.779678"
       y1="86"
       x1="75.779678"
       gradientTransform="matrix(-1.5533129,0,0,1.5611141,180.39285,852.93919)"
       gradientUnits="userSpaceOnUse"
       id="linearGradient3133"
       xlink:href="#linearGradient6240" />
    <linearGradient
       id="linearGradient6240">
      <stop
         id="stop6242"
         style="stop-color:#ffffff;stop-opacity:1"
         offset="0" />
      <stop
         id="stop6244"
         style="stop-color:#ffffff;stop-opacity:0"
         offset="1" />
    </linearGradient>
    <radialGradient
       r="3.5"
       fy="39.464806"
       fx="7"
       cy="39.464806"
       cx="7"
       gradientTransform="matrix(0,-0.89962666,0.93506368,0,-81.62938,-32.204086)"
       gradientUnits="userSpaceOnUse"
       id="radialGradient3159-2"
       xlink:href="#linearGradient5060" />
    <radialGradient
       r="3.5"
       fy="39.464806"
       fx="7"
       cy="39.464806"
       cx="7"
       gradientTransform="matrix(0,-0.89962666,0.93506368,0,-33.629364,44.798864)"
       gradientUnits="userSpaceOnUse"
       id="radialGradient3157-51"
       xlink:href="#linearGradient5060" />
    <linearGradient
       gradientTransform="matrix(1.0133332,0,0,0.89962576,-0.0436346,3.8658836)"
       y2="42.040661"
       x2="18.142136"
       y1="35"
       x1="18.142136"
       gradientUnits="userSpaceOnUse"
       id="linearGradient3161-7"
       xlink:href="#linearGradient5048" />
  </defs>
  <metadata
     id="metadata4022">
    <rdf:RDF>
      <cc:Work
         rdf:about="">
        <dc:format>image/svg+xml</dc:format>
        <dc:type
           rdf:resource="http://purl.org/dc/dcmitype/StillImage" />
        <dc:title />
      </cc:Work>
    </rdf:RDF>
  </metadata>
  <g
     id="layer1"
     transform="translate(0,-956.3622)">
    <g
       id="g4089"
       transform="matrix(1.0040259,0,0,1.0028296,-0.14065179,-2.8037029)">
      <rect
         width="69.89856"
         height="4.9858918"
         x="12.998364"
         y="1044.2112"
         id="rect2879"
         style="opacity:0.3;fill:url(#linearGradient4015);fill-opacity:1;fill-rule:nonzero;stroke:none;stroke-width:1;marker:none;visibility:visible;display:inline;overflow:visible" />
      <path
         d="m 12.998348,1044.2116 c 0,0 0,4.9853 0,4.9853 -1.610891,0.013 -3.894348,-1.1179 -3.894348,-2.4937 0,-1.3758 1.797632,-2.4916 3.894348,-2.4916 z"
         id="path2881"
         style="opacity:0.3;fill:url(#radialGradient3156);fill-opacity:1;fill-rule:nonzero;stroke:none;stroke-width:1;marker:none;visibility:visible;display:inline;overflow:visible" />
      <path
         d="m 82.896898,1044.2116 c 0,0 0,4.9853 0,4.9853 1.610888,0.013 3.894344,-1.1179 3.894344,-2.4937 0,-1.3758 -1.797625,-2.4916 -3.894344,-2.4916 z"
         id="path2883"
         style="opacity:0.3;fill:url(#radialGradient3153);fill-opacity:1;fill-rule:nonzero;stroke:none;stroke-width:1;marker:none;visibility:visible;display:inline;overflow:visible" />
    </g>
    <path
       style="fill:url(#linearGradient3096);fill-opacity:1;stroke:url(#linearGradient3098);stroke-width:1;stroke-linecap:butt;stroke-linejoin:round;stroke-miterlimit:4;stroke-opacity:1;stroke-dasharray:none;stroke-dashoffset:0;display:inline"
       id="path4160-6"
       d="m 12.5,957.86216 c 16.269706,0 70.999909,0.008 70.999909,0.008 l 9.3e-5,88.99204 c 0,0 -47.333343,0 -71.000002,0 0,-29.6655 0,-59.33148 0,-88.99771 z" />
    <path
       style="fill:none;stroke:url(#linearGradient3093);stroke-width:1;stroke-linecap:round;stroke-linejoin:miter;stroke-miterlimit:4;stroke-opacity:1;stroke-dasharray:none;stroke-dashoffset:0"
       d="m 82.499997,1045.8622 -68.999997,0 0,-86.99998 68.999997,0 z"
       id="rect6741-1-8" />
  </g>
  <path
     style="color:#000000;display:inline;overflow:visible;visibility:visible;fill:url(#linearGradient877);fill-opacity:1;fill-rule:nonzero;stroke:none;stroke-width:1;stroke-linecap:butt;stroke-linejoin:round;stroke-miterlimit:4;stroke-dasharray:none;stroke-dashoffset:0;stroke-opacity:1;marker:none;enable-background:accumulate"
     id="path4530"
     d="M 23,90.499997 H 12.5 V 1.5 H 23" />
  <path
     style="color:#000000;display:inline;overflow:visible;visibility:visible;opacity:0.5;fill:none;fill-opacity:1;fill-rule:nonzero;stroke:#0d52bf;stroke-width:0.999995;stroke-linecap:butt;stroke-linejoin:round;stroke-miterlimit:4;stroke-dasharray:none;stroke-dashoffset:0;stroke-opacity:1;marker:none;enable-background:accumulate"
     id="path4530-6"
     d="M 23.000001,90.499996 H 12.499999 V 1.4999589 h 10.500002" />
  <path
     style="fill:none;stroke:url(#linearGradient993);stroke-width:1px;stroke-linecap:butt;stroke-linejoin:miter;stroke-opacity:1"
     id="path3475"
     d="m 30,16.5 h 4.6875 z m 5.375,0 h 4.375 z m 5.0625,0 h 3.875 z m 4.5,0 h 1.6875 z m 2.375,0 h 3.75 z m 4.5,0 h 9.875 z m 10.5,0 H 69.875 Z M 30,20.566666 h 7.3125 z m 8.125,0 h 3.5 z m 4.125,0 H 44 Z m 2.4375,0 h 3.1875 z m 3.875,0 h 3.25 z m 3.875,0 h 5.1875 z m 5.875,0 h 6.75 z m 7.375,0 h 4.5 z m 5.125,0 h 1.125 z M 30,24.569789 h 6.1875 z m 6.8125,0 h 10.125 z m 10.75,0 H 52.5 Z m 5.5625,0 h 4.625 z m 5.25,0 h 3.9375 z m 4.5625,0 6.1875,0.06354 z m 6.75,0.06354 z M 30,28.699997 h 8.5625 z m 9.25,0 h 9.25 z m 9.875,0 h 3.6875 z m 4.3125,0 h 8.6875 z m 9.25,0 h 5.9375 z m 6.625,0 h 2.375 z M 30,32.766664 h 3.1875 z m 4.1875,0 H 46 Z M 30,40.836455 h 6.1875 z m 6.8125,0 h 10.125 z m 10.75,0 H 52.5 Z m 5.5625,0 h 4.625 z m 5.25,0 h 3.9375 z m 4.5625,0 6.1875,0.06354 z m 6.75,0.06354 z M 30,44.966664 h 4.6875 z m 5.375,0 h 4.3125 z m 5.0625,0 h 3.875 z m 4.5,0 h 1.6875 z m 2.375,0 h 3.75 z m 4.5,0 h 9.8125 z m 10.5,0 h 7.5 z m 8.125,0 h 2.375 z M 30,49.03333 h 7.875 z m 8.5,0 h 8.4375 z m 9.0625,0 h 3.25 z m 3.875,0 h 7.9375 z m 8.5625,0 h 10 z m 10.6875,0 H 74.375 Z M 30,53.099997 h 8.5625 z m 9.25,0 h 9.25 z m 9.875,0 h 3.6875 z m 4.3125,0 h 8.6875 z m 9.25,0 h 5.9375 z m 6.625,0 h 2.375 z M 30,57.166663 h 7.3125 z m 8.125,0 h 3.5 z m 4.125,0 H 44 Z m 2.4375,0 h 3.1875 z m 3.875,0 h 3.25 z m 3.875,0 h 5.1875 z m 5.875,0 h 6.75 z m 7.375,0 h 4.5 z m 5.125,0 h 1.125 z M 30,65.236455 h 6.1875 z m 6.8125,0 h 10.125 z m 10.75,0 H 52.5 Z m 5.5625,0 h 4.625 z m 5.25,0 h 3.9375 z m 4.5625,0 6.1875,0.06354 z m 6.75,0.06354 z M 30,69.366663 h 7.3125 z m 8.125,0 h 3.5 z m 4.125,0 H 44 Z m 2.4375,0 h 3.1875 z m 3.875,0 h 3.25 z m 3.875,0 h 5.1875 z m 5.875,0 h 6.75 z m 7.375,0 h 4.5 z m 5.125,0 h 1.125 z M 30,73.43333 h 7.75 z m 8.4375,0 h 2.4375 z m 3.0625,0 h 5.5625 z m 6.1875,0 h 8.1875 z m 8.875,0 h 5.5625 z m 6.125,0 h 1.1875 z m 1.8125,0 h 7.0625 z M 30,77.499996 h 7.75 z m 8.4375,0 h 3.5 z m 4.125,0 h 5.5 z m 6.125,0 h 5.9375 z m 6.625,0 h 2.375 z m 3,0 h 1.3125 z m 2,0 H 64 Z" />
  <path
     style="opacity:0.5;fill:none;stroke:url(#linearGradient3144);stroke-width:0.999999;stroke-linecap:butt;stroke-linejoin:miter;stroke-miterlimit:4;stroke-dasharray:none;stroke-dashoffset:0;stroke-opacity:1"
     id="rect6741-1-5"
     d="m 23,90.50002 h -9.500001 v -88 H 23"
     sodipodi:nodetypes="cccc" />
  <g
     transform="translate(-0.02410978,-955.35936)"
     id="g3096">
    <g
       transform="matrix(-1.4166672,0,0,0.63518455,94.024133,1024.9038)"
       id="g22150"
       style="opacity:0.2;stroke-width:1.70639">
      <rect
         width="3.2727261"
         height="6.2973804"
         x="-48"
         y="-41.650166"
         transform="scale(-1)"
         id="rect22134"
         style="fill:url(#radialGradient3159-2);fill-opacity:1;stroke:none;stroke-width:1.70639" />
      <rect
         width="3.2727261"
         height="6.2973804"
         x="1.6387316e-05"
         y="35.352787"
         id="rect22120"
         style="fill:url(#radialGradient3157-51);fill-opacity:1;stroke:none;stroke-width:1.70639" />
      <rect
         width="41.454529"
         height="6.2973785"
         x="3.2727439"
         y="35.352787"
         id="rect22138"
         style="fill:url(#linearGradient3161-7);fill-opacity:1;stroke:none;stroke-width:1.70639" />
    </g>
    <path
       d="M 90.524049,989.56647 30.23121,1049.8595 h 60.292839 z m -12.058563,28.13663 v 20.2163 H 58.116645 Z"
       id="path2993"
       style="display:inline;overflow:visible;visibility:visible;opacity:0.8;fill:url(#linearGradient3058);fill-opacity:1;fill-rule:evenodd;stroke:#83899a;stroke-width:0.999997px;stroke-linecap:butt;stroke-linejoin:miter;stroke-miterlimit:4;stroke-dasharray:none;stroke-dashoffset:0;stroke-opacity:1;marker:none;enable-background:accumulate" />
    <path
       d="m 82.52411,1048.8593 v -1.9999"
       id="path3101"
       style="opacity:0.3;fill:none;stroke:#ffffff;stroke-width:1px;stroke-linecap:round;stroke-linejoin:miter;stroke-opacity:1" />
    <path
       d="m 73.52411,1048.8593 v -1.9999"
       id="path3103"
       style="opacity:0.3;fill:none;stroke:#ffffff;stroke-width:1px;stroke-linecap:round;stroke-linejoin:miter;stroke-opacity:1" />
    <path
       d="m 64.52411,1048.8593 v -1.9999"
       id="path3105"
       style="opacity:0.3;fill:none;stroke:#ffffff;stroke-width:1px;stroke-linecap:round;stroke-linejoin:miter;stroke-opacity:1" />
    <path
       d="m 55.52411,1048.8593 v -1.9999"
       id="path3107"
       style="opacity:0.3;fill:none;stroke:#ffffff;stroke-width:1px;stroke-linecap:round;stroke-linejoin:miter;stroke-opacity:1" />
    <path
       d="m 46.52411,1048.8593 v -1.9999"
       id="path3109"
       style="opacity:0.3;fill:none;stroke:#ffffff;stroke-width:1px;stroke-linecap:round;stroke-linejoin:miter;stroke-opacity:1" />
    <path
       d="m 81.524006,1049.8594 v -3 m -8.999997,3 v -3 m -8.999997,3 v -2.9643 m -8.999997,2.9643 v -3 m -8.999997,3 v -3"
       id="path3091"
       style="opacity:0.75;fill:none;stroke:#83899a;stroke-width:1px;stroke-linecap:round;stroke-linejoin:miter;stroke-opacity:1" />
    <path
       d="m 89.524109,992.06657 v 56.79273 H 32.731105 Z m -10.050742,23.07833 -23.670054,23.7521 h 23.670054 z"
       id="path3934"
       style="display:inline;overflow:visible;visibility:visible;opacity:0.5;fill:none;stroke:url(#linearGradient3133);stroke-width:0.999995px;stroke-linecap:butt;stroke-linejoin:miter;stroke-miterlimit:4;stroke-dasharray:none;stroke-dashoffset:0;stroke-opacity:1;marker:none;enable-background:accumulate"
       sodipodi:nodetypes="cccccccc" />
    <path
       d="M 89.524393,1004.8594 H 87.524492"
       id="path3101-7"
       style="opacity:0.3;fill:none;stroke:#ffffff;stroke-width:1px;stroke-linecap:round;stroke-linejoin:miter;stroke-opacity:1" />
    <path
       d="M 89.524393,1013.8594 H 87.524492"
       id="path3103-5"
       style="opacity:0.3;fill:none;stroke:#ffffff;stroke-width:1px;stroke-linecap:round;stroke-linejoin:miter;stroke-opacity:1" />
    <path
       d="M 89.524393,1022.8594 H 87.524492"
       id="path3105-3"
       style="opacity:0.3;fill:none;stroke:#ffffff;stroke-width:1px;stroke-linecap:round;stroke-linejoin:miter;stroke-opacity:1" />
    <path
       d="M 89.524393,1031.8594 H 87.524492"
       id="path3107-5"
       style="opacity:0.3;fill:none;stroke:#ffffff;stroke-width:1px;stroke-linecap:round;stroke-linejoin:miter;stroke-opacity:1" />
    <path
       d="M 89.524393,1040.8594 H 87.524492"
       id="path3109-6"
       style="opacity:0.3;fill:none;stroke:#ffffff;stroke-width:1px;stroke-linecap:round;stroke-linejoin:miter;stroke-opacity:1" />
    <path
       d="m 90.52411,1005.8594 h -3 m 3,9 h -3 m 3,8.9999 h -2.964346 m 2.964346,9 h -3 m 3,9 h -3"
       id="path3091-2"
       style="opacity:0.75;fill:none;stroke:#83899a;stroke-width:1px;stroke-linecap:round;stroke-linejoin:miter;stroke-opacity:1" />
  </g>
</svg>
