<?xml version="1.0" encoding="UTF-8" standalone="no"?>
<svg
   xmlns:dc="http://purl.org/dc/elements/1.1/"
   xmlns:cc="http://creativecommons.org/ns#"
   xmlns:rdf="http://www.w3.org/1999/02/22-rdf-syntax-ns#"
   xmlns:svg="http://www.w3.org/2000/svg"
   xmlns="http://www.w3.org/2000/svg"
   xmlns:xlink="http://www.w3.org/1999/xlink"
   width="64"
   height="64"
   id="svg3294"
   version="1.1">
  <defs
     id="defs3296">
    <linearGradient
       id="linearGradient8838">
      <stop
         id="stop8840"
         offset="0"
         style="stop-color:#7f7f7f;stop-opacity:1;" />
      <stop
         id="stop8842"
         offset="1"
         style="stop-color:#808080;stop-opacity:0;" />
    </linearGradient>
    <radialGradient
       xlink:href="#linearGradient8838"
       id="radialGradient2759"
       gradientUnits="userSpaceOnUse"
       gradientTransform="matrix(1,0,0,0.341176,0,3.047059)"
       cx="62.625"
       cy="4.625"
       fx="62.625"
       fy="4.625"
       r="10.625" />
    <linearGradient
       id="linearGradient3277-442">
      <stop
         id="stop3378"
         offset="0"
         style="stop-color:#575757;stop-opacity:1;" />
      <stop
         id="stop3380"
         offset="1"
         style="stop-color:#333333;stop-opacity:1;" />
    </linearGradient>
    <linearGradient
       xlink:href="#linearGradient3277-442"
       id="linearGradient2782"
       gradientUnits="userSpaceOnUse"
       x1="32.892574"
       y1="27.988184"
       x2="31.364458"
       y2="29.484051"
       gradientTransform="matrix(1.3778869,0,0,1.3646825,-0.85149011,-14.713614)" />
    <linearGradient
       id="linearGradient11114-516">
      <stop
         id="stop3372"
         offset="0"
         style="stop-color:#242424;stop-opacity:0.99215686;" />
      <stop
         id="stop3374"
         offset="1"
         style="stop-color:#656565;stop-opacity:1;" />
    </linearGradient>
    <linearGradient
       xlink:href="#linearGradient11114-516"
       id="linearGradient2780"
       gradientUnits="userSpaceOnUse"
       gradientTransform="matrix(0.53632942,0,0,0.53118972,137.47009,-22.963899)"
       x1="-172.65306"
       y1="99.667191"
       x2="-164.71831"
       y2="91.972626" />
    <linearGradient
       id="linearGradient12093-170">
      <stop
         id="stop3384"
         offset="0"
         style="stop-color:#ffffff;stop-opacity:1;" />
      <stop
         id="stop3386"
         offset="1"
         style="stop-color:#ffffff;stop-opacity:0;" />
    </linearGradient>
    <linearGradient
       xlink:href="#linearGradient12093-170"
       id="linearGradient2778"
       gradientUnits="userSpaceOnUse"
       gradientTransform="matrix(0.53632943,0,0,0.53118971,-69.056301,-17.830459)"
       x1="277.573"
       y1="146.1507"
       x2="201.87128"
       y2="67.350082" />
    <linearGradient
       id="linearGradient4454-600">
      <stop
         style="stop-color:#a1a1a1;stop-opacity:0.20784314;"
         offset="0"
         id="stop3408" />
      <stop
         style="stop-color:#a1a1a1;stop-opacity:0.67843139;"
         offset="1"
         id="stop3410" />
    </linearGradient>
    <radialGradient
       xlink:href="#linearGradient4454-600"
       id="radialGradient2776"
       gradientUnits="userSpaceOnUse"
       cx="18.240929"
       cy="21.817987"
       fx="18.240929"
       fy="21.817987"
       r="8.3085051" />
    <linearGradient
       id="linearGradient4467-402">
      <stop
         style="stop-color:#ffffff;stop-opacity:1;"
         offset="0"
         id="stop3390" />
      <stop
         style="stop-color:#ffffff;stop-opacity:0.24761905;"
         offset="1.0000000"
         id="stop3392" />
    </linearGradient>
    <radialGradient
       xlink:href="#linearGradient4467-402"
       id="radialGradient2774"
       gradientUnits="userSpaceOnUse"
       gradientTransform="matrix(4.6024902,0,0,3.542329,-51.98076,-51.997786)"
       cx="15.414371"
       cy="13.078408"
       fx="15.414371"
       fy="13.078408"
       r="6.65625" />
    <linearGradient
       id="linearGradient11104-770">
      <stop
         id="stop3402"
         offset="0"
         style="stop-color:#333333;stop-opacity:1;" />
      <stop
         id="stop3404"
         offset="1"
         style="stop-color:#333333;stop-opacity:0.6122449;" />
    </linearGradient>
    <linearGradient
       xlink:href="#linearGradient11104-770"
       id="linearGradient2772"
       gradientUnits="userSpaceOnUse"
       gradientTransform="matrix(0.56769605,0,0,0.5520441,-0.12678757,-14.069119)"
       x1="41.541653"
       y1="68.291702"
       x2="41.485142"
       y2="4.5362983" />
    <linearGradient
       id="linearGradient2300-465">
      <stop
         id="stop3396"
         offset="0"
         style="stop-color:#343434;stop-opacity:0.97647059" />
      <stop
         id="stop3398"
         offset="1"
         style="stop-color:#929292;stop-opacity:1" />
    </linearGradient>
    <linearGradient
       xlink:href="#linearGradient2300-465"
       id="linearGradient2770"
       gradientUnits="userSpaceOnUse"
       gradientTransform="matrix(0.56769605,0,0,0.5520441,-73.763306,-18.223749)"
       x1="173.09576"
       y1="75.31868"
       x2="173.09576"
       y2="11.949074" />
    <linearGradient
       id="linearGradient6209-717">
      <stop
         style="stop-color:#979797;stop-opacity:1"
         offset="0"
         id="stop3366" />
      <stop
         style="stop-color:#000000;stop-opacity:0.34117648"
         offset="1"
         id="stop3368" />
    </linearGradient>
    <linearGradient
       xlink:href="#linearGradient6209-717"
       id="linearGradient2768"
       gradientUnits="userSpaceOnUse"
       gradientTransform="matrix(0.54289021,0,0,0.54079187,-68.95496,-17.740355)"
       x1="173.09576"
       y1="75.31868"
       x2="173.09576"
       y2="11.949074" />
  </defs>
  <metadata
     id="metadata3299">
    <rdf:RDF>
      <cc:Work
         rdf:about="">
        <dc:format>image/svg+xml</dc:format>
        <dc:type
           rdf:resource="http://purl.org/dc/dcmitype/StillImage" />
        <dc:title />
      </cc:Work>
    </rdf:RDF>
  </metadata>
  <g
     id="layer1"
     transform="translate(0,16)">
    <path
       transform="matrix(2.9290487,0,0,2.2649724,-151.3838,29.545134)"
       d="m 73.25,4.625 a 10.625,3.625 0 1 1 -21.25,0 10.625,3.625 0 1 1 21.25,0 z"
       id="path8836"
       style="opacity:0.3;fill:url(#radialGradient2759);fill-opacity:1;fill-rule:evenodd;stroke:none;stroke-width:0.99999988;marker:none;visibility:visible;display:inline;overflow:visible" />
    <path
       id="path11112"
       d="m 37.748176,16.574292 23.980746,22.10483 -3.324066,4.46799 -23.893895,-23.911514 3.237215,-2.661306 z"
       style="fill:url(#linearGradient2780);fill-opacity:1;fill-rule:evenodd;stroke:url(#linearGradient2782);stroke-width:1.25790954;stroke-linecap:round;stroke-linejoin:round;stroke-miterlimit:4;stroke-opacity:1;stroke-dasharray:none;display:inline" />
    <path
       id="path11122"
       d="M 58.445275,41.69614 39.213196,17.945208 62.481643,38.168775 58.445275,41.69614 z"
       style="fill:url(#linearGradient2778);fill-opacity:1;fill-rule:evenodd;stroke:none;display:inline" />
    <path
       transform="matrix(0.4727959,-0.52996278,0.60602585,0.39493179,-121.54418,126.22395)"
       d="m 247.90924,110.29199 a 4.8668494,2.6562009 0 1 1 -9.7337,0 4.8668494,2.6562009 0 1 1 9.7337,0 z"
       id="path13082"
       style="fill:#3e3e3e;fill-opacity:1;stroke:none;display:inline" />
    <path
       style="fill:url(#radialGradient2776);fill-opacity:1;fill-rule:evenodd;stroke:none;stroke-width:0.88163906;marker:none;visibility:visible;display:inline"
       id="path4452"
       d="m 25.897786,18.478292 a 8.3085051,8.3085051 0 1 1 -16.61701,0 8.3085051,8.3085051 0 1 1 16.61701,0 z"
       transform="matrix(2.0460961,0,0,1.9772116,-11.039884,-31.272291)" />
    <path
       style="opacity:0.83422457;fill:url(#radialGradient2774);fill-opacity:1;fill-rule:evenodd;stroke:none;stroke-width:1;marker:none;visibility:visible;display:inline;overflow:visible"
       d="M 24.728503,-10.57129 C 15.485071,-10.57129 8,-3.9384485 8,4.2525593 8,6.6181553 8.2072569,9.0615418 9.3199298,11.046744 11.542896,11.772815 14.443101,12 16.949406,12 27.902807,12 37.32404,3.9529204 38,-5.6032047 34.927551,-8.8206164 29.853722,-10.57129 24.728503,-10.57129 z"
       id="path4462" />
    <path
       id="path2298"
       d="m 25.000003,-11.354885 c -10.682072,0 -19.3548944,7.7767541 -19.3548886,17.3548863 0,9.5781327 8.6728166,17.3548837 19.3548886,17.3548847 10.682062,0 19.354885,-7.776752 19.354885,-17.3548847 0,-9.5781322 -8.672817,-17.3548863 -19.354885,-17.3548863 z m 0.230624,1.138592 c 9.56052,0 17.332471,6.9537479 17.332471,15.5262385 0,8.5724915 -7.771951,15.5262405 -17.332471,15.5262405 -9.560523,10e-7 -17.3147284,-6.953748 -17.3147284,-15.5262405 0,-8.5724906 7.7542054,-15.5262385 17.3147284,-15.5262385 z"
       style="fill:url(#linearGradient2770);fill-opacity:1;stroke:url(#linearGradient2772);stroke-width:1.29022872;stroke-linecap:round;stroke-linejoin:round;stroke-miterlimit:4;stroke-opacity:1;stroke-dasharray:none;display:inline" />
    <path
       id="path4267"
       d="M 25.491094,-11 C 15.275784,-11 7,-3.3829053 7,6.000001 7,15.382905 15.275779,23.000001 25.491094,23 35.706402,23 44,15.382904 44,6.000001 44,-3.3829053 35.706397,-11 25.491094,-11 z m 0.106889,0.656577 c 9.60021,0 16.643089,7.1528419 16.643089,15.9707721 0,8.8179299 -8.913705,14.7665589 -16.443103,14.7665589 -9.600217,0 -16.9521504,-5.948628 -16.9521504,-14.7665589 0,-8.8179302 7.1519474,-15.9707721 16.7521644,-15.9707721 z"
       style="fill:url(#linearGradient2768);fill-opacity:1;stroke:none;display:inline" />
  </g>
</svg>
