<?xml version="1.0" encoding="UTF-8" standalone="no"?>
<svg
   xmlns:dc="http://purl.org/dc/elements/1.1/"
   xmlns:cc="http://creativecommons.org/ns#"
   xmlns:rdf="http://www.w3.org/1999/02/22-rdf-syntax-ns#"
   xmlns:svg="http://www.w3.org/2000/svg"
   xmlns="http://www.w3.org/2000/svg"
   xmlns:xlink="http://www.w3.org/1999/xlink"
   id="svg3489"
   height="64"
   width="64"
   version="1.1">
  <defs
     id="defs3491">
    <linearGradient
       id="linearGradient4806">
      <stop
         offset="0"
         style="stop-color:#ffffff;stop-opacity:1"
         id="stop4808" />
      <stop
         offset="0.42447853"
         style="stop-color:#ffffff;stop-opacity:0.23529412"
         id="stop4810" />
      <stop
         offset="0.82089913"
         style="stop-color:#ffffff;stop-opacity:0.15686275"
         id="stop4812" />
      <stop
         offset="1"
         style="stop-color:#ffffff;stop-opacity:0.39215687"
         id="stop4814" />
    </linearGradient>
    <linearGradient
       id="linearGradient3820-7-2">
      <stop
         offset="0"
         style="stop-color:#000000;stop-opacity:1"
         id="stop3822-2-6" />
      <stop
         offset="1"
         style="stop-color:#000000;stop-opacity:0"
         id="stop3824-1-2" />
    </linearGradient>
    <linearGradient
       y2="40.495617"
       x2="71.204407"
       y1="15.369057"
       x1="71.204407"
       gradientTransform="matrix(2.3268746,0,0,2.3268746,-135.94475,-32.842783)"
       gradientUnits="userSpaceOnUse"
       id="linearGradient3293"
       xlink:href="#linearGradient4806" />
    <radialGradient
       r="62.769119"
       fy="185.29727"
       fx="99.189415"
       cy="185.29727"
       cx="99.189415"
       gradientTransform="matrix(0.3823536,7.5555777e-8,-1.8372241e-8,0.1115198,-5.9254271,36.335849)"
       gradientUnits="userSpaceOnUse"
       id="radialGradient3300"
       xlink:href="#linearGradient3820-7-2" />
    <radialGradient
       r="62.769119"
       fy="185.29727"
       fx="99.189415"
       cy="185.29727"
       cx="99.189415"
       gradientTransform="matrix(0.2549024,5.3967361e-8,-1.2248161e-8,0.07965545,6.7163816,44.240666)"
       gradientUnits="userSpaceOnUse"
       id="radialGradient4192"
       xlink:href="#linearGradient3820-7-2" />
    <linearGradient
       x1="2035.1652"
       y1="3208.0737"
       x2="2035.1652"
       y2="3241.9966"
       id="linearGradient11527-6-5"
       xlink:href="#linearGradient947"
       gradientUnits="userSpaceOnUse"
       gradientTransform="matrix(2.261075,0,0,1.6903709,-4577.9225,-5418.7019)" />
    <linearGradient
       id="linearGradient947">
      <stop
         offset="0"
         style="stop-color:#64baff;stop-opacity:1"
         id="stop943" />
      <stop
         offset="1"
         style="stop-color:#3689e6;stop-opacity:1"
         id="stop945" />
    </linearGradient>
    <radialGradient
       xlink:href="#linearGradient3242-7-3-8-0-4-58-06"
       id="radialGradient3106"
       gradientUnits="userSpaceOnUse"
       gradientTransform="matrix(0,1.2420762,-1.3512236,0,114.60033,-44.65654)"
       cx="65.916344"
       cy="48.448635"
       fx="65.916344"
       fy="48.448635"
       r="31.000002" />
    <linearGradient
       id="linearGradient3242-7-3-8-0-4-58-06">
      <stop
         id="stop3244-5-8-5-6-4-3-8"
         style="stop-color:#cdf87e;stop-opacity:1"
         offset="0" />
      <stop
         id="stop3246-9-5-1-5-3-0-7"
         style="stop-color:#a2e34f;stop-opacity:1"
         offset="0.26238" />
      <stop
         id="stop3248-7-2-0-7-5-35-9"
         style="stop-color:#68b723;stop-opacity:1"
         offset="0.66093999" />
      <stop
         id="stop3250-8-2-8-5-6-40-4"
         style="stop-color:#1d7e0d;stop-opacity:1"
         offset="1" />
    </linearGradient>
    <linearGradient
       gradientTransform="matrix(0.9862841,0,0,0.8052748,26.937969,31.355295)"
       gradientUnits="userSpaceOnUse"
       xlink:href="#linearGradient4154"
       id="linearGradient3030-44"
       y2="36.813152"
       x2="24.138529"
       y1="9.4932871"
       x1="24.138529" />
    <linearGradient
       id="linearGradient4154">
      <stop
         offset="0"
         style="stop-color:#ffffff;stop-opacity:1"
         id="stop4156" />
      <stop
         offset="0.00000001"
         style="stop-color:#ffffff;stop-opacity:0.23529412"
         id="stop4158" />
      <stop
         offset="1"
         style="stop-color:#ffffff;stop-opacity:0.15686275"
         id="stop4160" />
      <stop
         offset="1"
         style="stop-color:#ffffff;stop-opacity:0.39215687"
         id="stop4162" />
    </linearGradient>
    <linearGradient
       gradientTransform="matrix(0.8119709,0,0,0.97655406,30.811339,27.403273)"
       gradientUnits="userSpaceOnUse"
       xlink:href="#linearGradient4299"
       id="linearGradient3030-1"
       y2="26.211275"
       x2="24.138529"
       y1="20.067223"
       x1="24.138529" />
    <linearGradient
       id="linearGradient4299">
      <stop
         id="stop4301"
         style="stop-color:#ffffff;stop-opacity:1"
         offset="0" />
      <stop
         id="stop4303"
         style="stop-color:#ffffff;stop-opacity:0.23529412"
         offset="0" />
      <stop
         id="stop4305"
         style="stop-color:#ffffff;stop-opacity:0.15686275"
         offset="1" />
      <stop
         id="stop4307"
         style="stop-color:#ffffff;stop-opacity:0.39215687"
         offset="1" />
    </linearGradient>
  </defs>
  <metadata
     id="metadata3494">
    <rdf:RDF>
      <cc:Work
         rdf:about="">
        <dc:format>image/svg+xml</dc:format>
        <dc:type
           rdf:resource="http://purl.org/dc/dcmitype/StillImage" />
        <dc:title />
      </cc:Work>
    </rdf:RDF>
  </metadata>
  <g
     id="g4198">
    <path
       style="opacity:0.2;fill:url(#radialGradient3300);fill-opacity:1;stroke:none"
       id="path3818-0"
       d="m 55.999998,57.0017 a 24,6.9985714 0 1 1 -47.9999991,0 24,6.9985714 0 1 1 47.9999991,0 z" />
    <path
       d="m 47.999998,59.0017 a 16,4.9988822 0 1 1 -31.999999,0 16,4.9988822 0 1 1 31.999999,0 z"
       id="path4190"
       style="opacity:0.4;fill:url(#radialGradient4192);fill-opacity:1;stroke:none" />
  </g>
  <path
     d="M 32.000001,2.499998 C 15.722912,2.499998 2.5,15.722908 2.5,31.999997 2.5,48.277086 15.722912,61.499998 32.000001,61.499998 48.277088,61.499998 61.500027,48.277086 61.5,31.999997 61.5,15.722908 48.277088,2.499998 32.000001,2.499998 Z"
     id="path2555-7-8-5-0-9"
     style="color:#000000;display:inline;overflow:visible;visibility:visible;opacity:0.98999999;fill:url(#linearGradient11527-6-5);fill-opacity:1;fill-rule:nonzero;stroke:none;stroke-width:0.99999988;marker:none;enable-background:accumulate" />
  <path
     d="m 32,2.499999 c -16.277082,0 -29.5,13.222915 -29.5,29.499998 0,16.277083 13.222918,29.500005 29.5,29.5 16.27708,0 29.50001,-13.222917 29.5,-29.5 C 61.5,15.722914 48.27708,2.499999 32,2.499999 z"
     id="path2555-7-1"
     style="opacity:0.5;color:#000000;fill:none;stroke:#002e99;stroke-width:0.99999988;stroke-linecap:round;stroke-linejoin:round;stroke-miterlimit:4;stroke-opacity:1;stroke-dasharray:none;stroke-dashoffset:0;marker:none;visibility:visible;display:inline;overflow:visible;enable-background:accumulate;fill-opacity:1;fill-rule:nonzero;clip-rule:nonzero;isolation:auto;mix-blend-mode:normal;color-interpolation:sRGB;color-interpolation-filters:linearRGB;solid-color:#000000;solid-opacity:1;filter-blend-mode:normal;filter-gaussianBlur-deviation:0;color-rendering:auto;image-rendering:auto;shape-rendering:auto;text-rendering:auto" />
  <path
     d="m 60.50001,31.999999 c 0,15.740115 -12.7599,28.499999 -28.50002,28.499999 -15.740099,0 -28.499991,-12.759884 -28.499991,-28.499999 0,-15.740116 12.759892,-28.5000013 28.499991,-28.5000013 15.74012,0 28.50002,12.7598853 28.50002,28.5000013 z"
     id="path3019"
     style="opacity:0.5;color:#000000;fill:none;stroke:url(#linearGradient3293);stroke-width:1;stroke-linecap:round;stroke-linejoin:round;stroke-miterlimit:4;stroke-opacity:1;stroke-dasharray:none;stroke-dashoffset:0;marker:none;visibility:visible;display:inline;overflow:visible;enable-background:accumulate" />
  <path
     style="opacity:0.05;fill:#002e99;fill-opacity:1;stroke:#000000;stroke-width:2;stroke-linecap:round;stroke-linejoin:round;stroke-miterlimit:4;stroke-dasharray:none;stroke-opacity:1"
     d="m 16.175337,37.21806 c -2.938029,2.938029 -2.938029,7.668573 -10e-7,10.606601 2.938029,2.938029 7.668573,2.938029 10.606602,0 l 4.242641,-4.24264 c 1.737257,-1.737258 2.421973,-4.097842 2.104746,-6.347388 l -4.226067,4.226067 -1.06066,1.06066 -3.18198,3.181981 c -1.762818,1.762817 -4.601144,1.762817 -6.363961,0 -1.762817,-1.762817 -1.762817,-4.601144 0,-6.363961 l 3.18198,-3.18198 1.060661,-1.060661 4.226066,-4.226066 c -2.249545,-0.317227 -4.610129,0.367489 -6.347387,2.104746 z M 32.97542,20.417976 c -1.73726,1.73726 -2.421973,4.097842 -2.104748,6.347389 l 4.226069,-4.226069 1.06066,-1.06066 3.18198,-3.18198 c 1.762818,-1.762818 4.601144,-1.762818 6.363961,-10e-7 1.762817,1.762818 1.762816,4.601144 0,6.363961 l -3.18198,3.181981 -1.060661,1.06066 -4.226069,4.226069 c 2.249548,0.317224 4.61013,-0.367489 6.34739,-2.104749 l 4.24264,-4.24264 c 2.938029,-2.938029 2.938029,-7.668573 0,-10.606602 -2.938028,-2.938028 -7.668573,-2.938028 -10.606601,0 z M 24.660618,37.21806 c -0.587606,0.587606 -0.587606,1.533714 0,2.12132 0.587605,0.587606 1.533714,0.587606 2.12132,0 L 39.339381,26.781937 c 0.587606,-0.587606 0.587606,-1.533715 0,-2.121321 -0.587605,-0.587605 -1.533714,-0.587605 -2.12132,10e-7 z"
     id="path4550" />
  <path
     id="path4548"
     d="m 16.175337,37.21806 c -2.938029,2.938029 -2.938029,7.668573 -10e-7,10.606601 2.938029,2.938029 7.668573,2.938029 10.606602,0 l 4.242641,-4.24264 c 1.737257,-1.737258 2.421973,-4.097842 2.104746,-6.347388 l -4.226067,4.226067 -1.06066,1.06066 -3.18198,3.181981 c -1.762818,1.762817 -4.601144,1.762817 -6.363961,0 -1.762817,-1.762817 -1.762817,-4.601144 0,-6.363961 l 3.18198,-3.18198 1.060661,-1.060661 4.226066,-4.226066 c -2.249545,-0.317227 -4.610129,0.367489 -6.347387,2.104746 z M 32.97542,20.417976 c -1.73726,1.73726 -2.421973,4.097842 -2.104748,6.347389 l 4.226069,-4.226069 1.06066,-1.06066 3.18198,-3.18198 c 1.762818,-1.762818 4.601144,-1.762818 6.363961,-10e-7 1.762817,1.762818 1.762816,4.601144 0,6.363961 l -3.18198,3.181981 -1.060661,1.06066 -4.226069,4.226069 c 2.249548,0.317224 4.61013,-0.367489 6.34739,-2.104749 l 4.24264,-4.24264 c 2.938029,-2.938029 2.938029,-7.668573 0,-10.606602 -2.938028,-2.938028 -7.668573,-2.938028 -10.606601,0 z M 24.660618,37.21806 c -0.587606,0.587606 -0.587606,1.533714 0,2.12132 0.587605,0.587606 1.533714,0.587606 2.12132,0 L 39.339381,26.781937 c 0.587606,-0.587606 0.587606,-1.533715 0,-2.121321 -0.587605,-0.587605 -1.533714,-0.587605 -2.12132,10e-7 z"
     style="opacity:0.15;fill:#002e99;fill-opacity:1;stroke:none;stroke-width:1;stroke-linecap:butt;stroke-linejoin:miter;stroke-miterlimit:4;stroke-dasharray:none;stroke-opacity:1;color:#000000;clip-rule:nonzero;display:inline;overflow:visible;visibility:visible;isolation:auto;mix-blend-mode:normal;color-interpolation:sRGB;color-interpolation-filters:linearRGB;solid-color:#000000;solid-opacity:1;fill-rule:nonzero;stroke-dashoffset:0;marker:none;filter-blend-mode:normal;filter-gaussianBlur-deviation:0;color-rendering:auto;image-rendering:auto;shape-rendering:auto;text-rendering:auto;enable-background:accumulate" />
  <g
     id="g4309">
    <path
       style="color:#000000;display:inline;overflow:visible;visibility:visible;fill:url(#radialGradient3106);fill-opacity:1;fill-rule:nonzero;stroke:none;stroke-width:0.98542738;marker:none;enable-background:accumulate"
       id="path2262"
       d="m 44.5,45.50002 0,-8.0337 9.104416,0 -0.104416,8.0337 8.007287,0 0,9 -8.007287,0 0,8.0073 -9,0 0,-8.0073 -8.007286,0 0,-9 8.007286,0 z" />
    <path
       style="color:#000000;clip-rule:nonzero;display:inline;overflow:visible;visibility:visible;opacity:0.5;isolation:auto;mix-blend-mode:normal;color-interpolation:sRGB;color-interpolation-filters:linearRGB;solid-color:#000000;solid-opacity:1;fill:none;fill-opacity:1;fill-rule:nonzero;stroke:#0f5a00;stroke-width:1;stroke-linecap:round;stroke-linejoin:round;stroke-miterlimit:4;stroke-dasharray:none;stroke-dashoffset:0;stroke-opacity:1;marker:none;color-rendering:auto;image-rendering:auto;shape-rendering:auto;text-rendering:auto;enable-background:accumulate"
       id="path2262-9"
       d="m 44.5,45.50002 0,-8.0337 9.104416,0 -0.104416,8.0337 8.007287,0 0,9 -8.007287,0 0,8.0073 -9,0 0,-8.0073 -8.007286,0 0,-9 8.007286,0 z" />
    <path
       d="m 45.5,47.006331 0,-8.50633 6.999999,0 0,8.493668 m 0,6.006331 0,8.5 -6.999999,0 0,-8.5"
       id="path2272-4"
       style="display:inline;opacity:0.5;fill:none;stroke:url(#linearGradient3030-44);stroke-width:0.99999994;stroke-linecap:butt;stroke-linejoin:miter;stroke-miterlimit:4;stroke-dasharray:none;stroke-opacity:1" />
    <path
       d="m 53,46.527141 7.499861,-0.02535 0,6.973006 L 53,53.500147 m -8,0 -7.50014,-0.02535 0,-6.973006 L 45,46.527141"
       id="path2272-2"
       style="display:inline;opacity:0.5;fill:none;stroke:url(#linearGradient3030-1);stroke-width:1;stroke-linecap:butt;stroke-linejoin:miter;stroke-miterlimit:4;stroke-dasharray:none;stroke-opacity:1" />
  </g>
  <path
     style="opacity:1;fill:#ffffff;fill-opacity:1;stroke:none;stroke-width:3;stroke-linecap:round;stroke-linejoin:round;stroke-miterlimit:4;stroke-dasharray:none;stroke-opacity:1"
     d="m 16.175337,36.21806 c -2.938029,2.938029 -2.938029,7.668573 -10e-7,10.606601 2.938029,2.938029 7.668573,2.938029 10.606602,0 l 4.242641,-4.24264 c 1.737257,-1.737258 2.421973,-4.097842 2.104746,-6.347388 l -4.226067,4.226067 -1.06066,1.06066 -3.18198,3.181981 c -1.762818,1.762817 -4.601144,1.762817 -6.363961,0 -1.762817,-1.762817 -1.762817,-4.601144 0,-6.363961 l 3.18198,-3.18198 1.060661,-1.060661 4.226066,-4.226066 c -2.249545,-0.317227 -4.610129,0.367489 -6.347387,2.104746 z M 32.97542,19.417976 c -1.73726,1.73726 -2.421973,4.097842 -2.104748,6.347389 l 4.226069,-4.226069 1.06066,-1.06066 3.18198,-3.18198 c 1.762818,-1.762818 4.601144,-1.762818 6.363961,-10e-7 1.762817,1.762818 1.762816,4.601144 0,6.363961 l -3.18198,3.181981 -1.060661,1.06066 -4.226069,4.226069 c 2.249548,0.317224 4.61013,-0.367489 6.34739,-2.104749 l 4.24264,-4.24264 c 2.938029,-2.938029 2.938029,-7.668573 0,-10.606602 -2.938028,-2.938028 -7.668573,-2.938028 -10.606601,0 z M 24.660618,36.21806 c -0.587606,0.587606 -0.587606,1.533714 0,2.12132 0.587605,0.587606 1.533714,0.587606 2.12132,0 L 39.339381,25.781937 c 0.587606,-0.587606 0.587606,-1.533715 0,-2.121321 -0.587605,-0.587605 -1.533714,-0.587605 -2.12132,10e-7 z"
     id="rect4753" />
</svg>
